<svg xmlns="http://www.w3.org/2000/svg" viewBox="0 0 24 24"><path fill="#44739e" d="m16.952 7.889 2.332 6.734h1.613L23 7.889h-1.181l-1.728 5.244-1.7-5.244Zm-6.021 0h5.386v.987h-1.958l-.058 5.747h-1.353V8.876h-2.017Zm-1.366 8.224v-.462H8.374c.478-.47 1.1-1.04 1.1-1.662a.806.806 0 0 0-.919-.856 1.96 1.96 0 0 0-.869.21l.047.487a1.26 1.26 0 0 1 .675-.236c.239 0 .48.126.48.395 0 .537-.996 1.368-1.268 1.633v.491h1.946m-8.56-4.76a3.368 3.368 0 1 0 6.735 0 3.264 3.264 0 0 0-3.362-3.464 3.267 3.267 0 0 0-3.373 3.464m1.298 0a2.26 2.26 0 0 1 2.075-2.477 2.259 2.259 0 0 1 2.063 2.477 2.217 2.217 0 0 1-2.063 2.478 2.219 2.219 0 0 1-2.075-2.478"/></svg>