<svg xmlns="http://www.w3.org/2000/svg" viewBox="0 0 24 24"><path fill="#44739e" d="M13.761 9.493h.731a.095.095 0 0 1 .095.095v3.752a.093.093 0 0 1-.094.093h-.732a.093.093 0 0 1-.094-.093V9.587a.093.093 0 0 1 .094-.094m6.414 1.077h-.804a.11.11 0 0 0-.099.076l-.407 1.59-.407-1.59a.11.11 0 0 0-.098-.076h-.801a.065.065 0 0 0-.066.09l.88 2.774c-.026.305-.232.33-.682.33a.095.095 0 0 0-.094.095v.558a.093.093 0 0 0 .094.094c1.1 0 1.423-.281 1.677-1.075l.875-2.774a.065.065 0 0 0-.068-.092m-7.944-.054a1.01 1.01 0 0 0-.541.16v-.015a.095.095 0 0 0-.096-.093h-.731a.095.095 0 0 0-.094.093v3.752a.095.095 0 0 0 .094.094h.731a.095.095 0 0 0 .096-.094V13.32a1.01 1.01 0 0 0 .541.159c.66 0 1.202-.51 1.202-1.483-.002-.934-.539-1.48-1.202-1.48m-.205 2.208a.293.293 0 0 1-.336-.33V11.6a.293.293 0 0 1 .336-.33c.248.014.472.229.486.723-.014.501-.238.716-.486.731m4.118-2.208A1.363 1.363 0 0 0 14.812 12c0 .973.539 1.484 1.204 1.484a1.01 1.01 0 0 0 .541-.16v.013a.093.093 0 0 0 .093.095h.732a.095.095 0 0 0 .094-.095v-1.689c0-.591-.387-1.132-1.332-1.132m.413 1.881a.294.294 0 0 1-.338.33c-.247-.014-.471-.23-.486-.724.015-.494.239-.709.486-.724a.294.294 0 0 1 .338.33Zm6.358-.526-2.062-1.272c-.11-.071-.21-.019-.21.116v2.57c0 .134.095.187.21.116l2.062-1.272a.14.14 0 0 0 0-.258M6.281 11.23a.77.77 0 1 0 .77.77.77.77 0 0 0-.77-.77m-.909-3.601A4.371 4.371 0 1 0 9.743 12a4.371 4.371 0 0 0-4.371-4.371M2.414 10.8a.77.77 0 0 0 .77-.77h1.284a2.055 2.055 0 0 1-2.054 2.055Zm3.867 3.255a2.055 2.055 0 0 1-1.808-1.078v.99H3.185v-1.791a2.274 2.274 0 0 0 1.261-1.11 2.053 2.053 0 0 1 1.835-1.12 2.055 2.055 0 0 1 0 4.11Z"/></svg>