<svg xmlns="http://www.w3.org/2000/svg" fill="#44739e" viewBox="0 0 24 24"><path d="M5.4125 1.1494c.802 5.4144 5.312 2.4189 5.5345 7.2054l.071 1.5285c-.2503-.4735-.826-1.229-1.3004-1.3587-.8819.3055-1.6846 1.1497-2.6269 2.1153-.5806-.4065-1.7222.2305-1.8893.3607-.086.8726.5351 2.084 2.0009 2.4096 0 0 .855-.4702.7434-1.8457.724-.644.9743-.8675 1.5946-1.344.2114.1386 1.056 1.258 1.4762 2.2116l-.0695 7.4817v.1047c0 .2094 0 .314-.1995.4188-.7183.5566-1.9073 1.0057-3.1882 1.036-.6025.204-.9218.1378-.9138.62.7023.3858.846.2948 1.652.4023 1.3327.1708 2.1946.0303 3.8226.0303 1.5043 0 1.5921.0468 3.1802.0083.806-.102 1.5044.0413 2.2066-.372.399-.6255-.0279-.4987-.359-.6475-.9937-.0661-3.4437-.5373-3.7908-1.0801-.1995-.1047-.1995-.3114-.1995-.4161V8.3548c.399-4.5823 4.1857-1.7773 4.9878-7.1944-1.241-.033-9.8719-.011-12.7329-.011"/></svg>