<svg xmlns="http://www.w3.org/2000/svg" viewBox="0 0 24 24"><path fill="#44739e" d="M22.978 7.782a2.16 2.16 0 0 0-.172-.685 2.41 2.41 0 0 0-.445-.698 2.4 2.4 0 0 0-.807-.586 2 2 0 0 0-.482-.151c-.054-.008-.11-.015-.164-.024-.019-.004-.037-.015-.054-.024H3.148c-.019.008-.029.02-.054.022a2.26 2.26 0 0 0-1.184.508c-.308.25-.541.557-.697.922a2.58 2.58 0 0 0-.164.536C1.012 7.801 1 8 1 8.203c0 2.569 0 5.14.002 7.704a2.503 2.503 0 0 0 .651 1.702c.226.248.493.441.799.578a2.43 2.43 0 0 0 1.074.196h17.04c.061 0 .123.005.182-.002a8 8 0 0 0 .394-.062 1.9 1.9 0 0 0 .374-.12 2.425 2.425 0 0 0 1.437-1.797c.016-.115.025-.232.04-.347L23 15.99V8.061c-.007-.129-.015-.204-.02-.281h-.001Zm-11.759 2.804c-.002.196-.034.393-.096.58a1.224 1.224 0 0 1-.586.714l-.135.074c-.087.049-.187.065-.284.09-.196.048-.39.093-.585.137-.154.037-.309.068-.462.104-.116.027-.229.057-.345.084l-.461.104-.324.076-.482.11-.337.082-.474.109-.454.109-.461.104c-.113.026-.225.055-.337.081-.055.012-.108.026-.163.037a.261.261 0 0 0-.222.248c-.006.219-.006.439-.006.658 0 .103 0 .206.01.31a.54.54 0 0 0 .044.158c.046.108.139.159.246.185.183.046.37.049.558.046h.081l4.265-.001.897-.001.089.003v1.414c-.022-.092-.042-.09-.062-.09H8.976c-.492 0-.984 0-1.475-.002H4.797a1.72 1.72 0 0 1-.523-.069 1.119 1.119 0 0 1-.772-.746 1.64 1.64 0 0 1-.079-.521c0-.483 0-.968.004-1.451 0-.139.01-.272.032-.414.04-.258.126-.499.297-.703a1.14 1.14 0 0 1 .411-.298c.171-.079.35-.128.532-.168.164-.036.326-.074.488-.111.123-.027.248-.049.373-.077l.494-.111c.162-.037.326-.068.49-.102.118-.026.238-.055.357-.081l.503-.108.371-.084c.165-.037.329-.07.495-.107l.494-.111c.118-.027.235-.049.352-.077a.885.885 0 0 0 .354-.162.547.547 0 0 0 .194-.332 1.5 1.5 0 0 0-.005-.582c-.034-.174-.116-.215-.277-.419a.655.655 0 0 0-.32-.085c-.162-.002-.326-.002-.489-.002H5.571c-.104 0-.206.011-.308.022a.42.42 0 0 0-.183.074.297.297 0 0 0-.113.168.65.65 0 0 0-.022.199v.154c-.05-.048-1.402-.043-1.494-.057-.002-.016-.006-.033-.006-.05.003-.3-.004-.601.012-.9a.854.854 0 0 1 .345-.644c.168-.13.362-.203.57-.245.197-.04.393-.049.594-.049 1.202 0 2.404 0 3.608-.002l1.213-.003c.062 0 .122.003.181.004.155.005.301.044.44.102.219.092.404.231.546.424.13.178.222.378.248.598.024.137.019.276.02.414.001.397.004.793-.001 1.189Zm9.229 4.617c-.082.221-.218.406-.4.557a1.598 1.598 0 0 1-.968.342h-1.161c-.184 0-.366-.009-.547-.04a1.59 1.59 0 0 1-.649-.244 1.36 1.36 0 0 1-.468-.578 2.5 2.5 0 0 1-.143-.437c-.023-.095-.033-.194-.05-.291l-.065-.356c-.019-.105-.035-.211-.055-.316l-.039-.211-.053-.291a63 63 0 0 1-.061-.363l-.062-.349-.053-.29a42 42 0 0 0-.084-.453c-.021-.114-.047-.228-.068-.341-.018-.097-.033-.194-.049-.291l-.059-.309-.062-.329-.059-.303c-.021-.112-.039-.223-.061-.335-.028-.133-.058-.266-.153-.373a.53.53 0 0 0-.317-.183 1.98 1.98 0 0 0-.699.001c-.148.028-.278.095-.344.244a.5.5 0 0 0-.042.209v.651l.001 3.205.002 2.277c0 .093 0 .093-.092.093h-1.172c-.032 0-.051-.016-.051-.049V9.305c0-.099 0-.197.015-.295.07-.452.283-.812.703-1.022a1.3 1.3 0 0 1 .348-.111 1.7 1.7 0 0 1 .313-.019c.514 0 1.028-.009 1.542.003.402.01.747.16 1.008.48.14.172.24.364.307.572.043.127.081.255.113.384.023.094.034.19.052.283.021.117.046.234.068.349.018.101.033.203.051.304l.079.407.041.231.056.283c.037.191.07.386.107.577.02.109.042.215.063.322.019.101.037.203.054.303l.058.31.064.349.059.295c.027.142.051.285.081.428.028.137.053.276.091.41a.553.553 0 0 0 .4.392.82.82 0 0 0 .299.03c.076-.006.153-.005.228-.009.086-.003.17-.002.253-.014a.424.424 0 0 0 .291-.196.615.615 0 0 0 .103-.34l.007-3.467.003-2.6v-.033h1.316c.003-.034.006-.018.006 0v6.71c0 .2-.028.394-.099.578Z"/></svg>