<svg xmlns="http://www.w3.org/2000/svg" viewBox="0 0 24 24"><path fill="#44739e" d="M6.511 12c0-5.215 1.903-9.444 4.25-9.444.033 0 .063.02.096.022A3.32 3.32 0 0 0 8.311 1a2.2 2.2 0 0 0-.281.032A2.2 2.2 0 0 0 7.75 1C5.015 1 2.8 5.925 2.8 12s2.216 11 4.95 11a2.2 2.2 0 0 0 .28-.032 2.2 2.2 0 0 0 .281.032 3.32 3.32 0 0 0 2.546-1.578c-.033 0-.064.022-.096.022-2.347 0-4.25-4.229-4.25-9.444m2.209 9.444c-2.349 0-4.252-4.229-4.252-9.444S6.371 2.556 8.72 2.556c.049 0 .096.03.146.033C6.588 2.76 4.761 6.896 4.761 12s1.827 9.24 4.105 9.41c-.05.004-.097.034-.146.034m1.021 0c-2.348 0-4.251-4.229-4.251-9.444s1.903-9.444 4.251-9.444c.06 0 .117.036.178.041-2.263.212-4.07 4.324-4.07 9.403s1.809 9.191 4.07 9.403a1.7 1.7 0 0 1-.178.041M7.75 12c0-4.914 1.695-8.903 3.85-9.35a2.05 2.05 0 0 0-.396-.089 2.2 2.2 0 0 0-.22.05C8.742 2.87 6.957 6.954 6.957 12s1.785 9.13 4.027 9.393a2.2 2.2 0 0 0 .22.051 2.05 2.05 0 0 0 .396-.09c-2.155-.451-3.85-4.44-3.85-9.354m1.261 0c0-4.905 1.69-8.889 3.843-9.35a2.07 2.07 0 0 0-.409-.091 2 2 0 0 0-.219.05C9.981 2.87 8.195 6.954 8.195 12s1.787 9.13 4.028 9.393a2.2 2.2 0 0 0 .22.051 2.07 2.07 0 0 0 .408-.092c-2.15-.463-3.84-4.447-3.84-9.352M16.25 1a2.4 2.4 0 0 0-.268.03 2.8 2.8 0 0 0-.269-.03 3.317 3.317 0 0 0-2.546 1.578c-.024.032-.048.063-.071.096-2.098.58-3.727 4.51-3.727 9.326s1.629 8.746 3.731 9.326c.023.033.047.064.071.096A3.317 3.317 0 0 0 15.713 23c.09 0 .18-.015.269-.03a2.4 2.4 0 0 0 .268.03c2.735 0 4.95-4.925 4.95-11S18.985 1 16.25 1m.669 1.666c2.079.541 3.697 4.373 3.748 9.114h-.151c-.038-4.586-1.598-8.314-3.597-8.845Zm0 .493c1.879.544 3.341 4.167 3.378 8.618h-.157c-.01-4.335-1.418-7.873-3.221-8.367Zm3.206 9.067h.168c-.061 4.399-1.51 7.973-3.374 8.512v-.503c1.751-.48 3.12-3.835 3.206-8.009m-3.206 7.797v-.565c1.631-.48 2.894-3.501 2.945-7.231h.065c-.083 4.042-1.364 7.305-3.01 7.796m0-16.401c1.695.506 3.015 3.946 3.024 8.155h-.079c-.051-3.73-1.314-6.752-2.945-7.232Zm-.491-1.065c.015 0 .029.009.046.011v.264c-.012 0-.022-.008-.034-.008-2.225 0-4.033 4.002-4.07 8.953h-.183c.054-5.11 1.927-9.22 4.241-9.22m-3.572 9.223h-.271c.04-4.827 1.75-8.728 3.85-8.728.012 0 .022.007.034.007v.26c-1.986.027-3.603 3.805-3.613 8.461m3.618-8.25v.92c-1.844 0-3.337 3.26-3.391 7.33h-.031c.011-4.538 1.54-8.22 3.422-8.25M10.097 12c0-3.903 1.067-7.251 2.587-8.69a11.14 11.14 0 0 0-.824 1.787A16.3 16.3 0 0 0 10.492 12a16.28 16.28 0 0 0 1.368 6.902 11.1 11.1 0 0 0 .824 1.788c-1.52-1.439-2.587-4.787-2.587-8.69m6.38 9.432c-.016 0-.031.012-.046.012-2.31 0-4.187-4.111-4.241-9.221h.183c.067 4.902 1.862 8.849 4.07 8.849.012 0 .022-.007.034-.008Zm0-.59c-.012 0-.022.007-.034.007-2.09 0-3.786-3.85-3.85-8.624h.282c.091 4.485 1.664 8.075 3.602 8.103Zm0-.722c-1.833-.031-3.318-3.526-3.41-7.893h.02c.054 4.07 1.546 7.331 3.39 7.331Zm-1.276-8.181c0-1.564.571-2.833 1.276-2.833s1.275 1.266 1.275 2.83-.571 2.833-1.275 2.833-1.279-1.265-1.279-2.83Zm1.721 9.394v-.369c1.981-.527 3.532-4.203 3.593-8.741h.155c-.053 4.737-1.672 8.57-3.751 9.111Z"/></svg>