<svg xmlns="http://www.w3.org/2000/svg" fill="#44739e" viewBox="0 0 24 24"><path d="M2.976.922S2.007.7474 2.007 2.11c0 1.3624.2302 18.0608.2302 18.0608s.3943.6657.5421.634c.1469-.0315 2.6472-.3599 2.6797-.3641l.0174-.0026.0134-4.0156.028-9.1996 4.4118.013-.004-.3203-4.4063-.0542.0053-1.6204 5.2242.1084.012-.3382-5.2348-.1524.0026-.878s-.0587-.6753.3681-.6753 11.2863.3783 11.2863.3783.3565.0118.3681.2583c.0006.0123-.0005.6211 0 .6869l-1.107.1149-.0107.439-4.3689-.1343-.0067.328 4.3917.0903-.0053 1.5081-2.4522-.0103-.0027.2827 2.471.0065.0026.2066h1.0909c.0032 2.5704.007 5.4448.0053 7.7264.5628.1571 1.4389.435 1.4389.435l-1.459.2105c-.0002.224.003.574.0053.9258l-.9664-.3499-.68.0827 1.6477.59c.001.1223.002.2879.0027.368l2.155-.2918-.008-14.8007s.0112-.5481-.5863-.5655S2.976.922 2.976.922m6.508 3.3984-.0054.5526 1.3546.031-.0308.8715-.8218-.0193.0227 1.8037.2945-.0297.008.3512 1.0066.0297v.5681a.035.035 0 0 1 .024.0104.032.032 0 0 1 .0108.0232v.013l.2476.12a.034.034 0 0 1 .016.0142.032.032 0 0 1 .0027.0207.02.02 0 0 1-.0027.0052l.4337.1213-.0214-2.0542a.07.07 0 0 1 .0174-.0181c.0212-.0001 1.8043-.0079 1.8043-.018l.0027-.9504-1.8672.013.0308-1.3352zm4.3595 2.4816-1.6825.0168.02 1.9161 1.6625-.0452zm-2.5311 1.7108-.1633.1576.2182.2104.2128-.2053-.2677-.1291zm2.5217 5.694c-.0303 0-8.185.8987-8.185.8987l3.3236 1.7238 9.9344-1.2124s-5.0427-1.41-5.073-1.41m-8.2371.9284.0107.4959.2248.1136.6425.0206 2.2059 1.1673-.2677.1859.4283.2892 1.36-.1136.3426-.186 6.5426-.7953.3748.062-.0322-.5165-8.4914 1.0433zm.6746 1.286-.7335.0207-.0108 4.013.8728-.1756-.0375-.9348 3.4051 2.4945s-.0267.4545.0322.8728.637.3719.637.3719l1.344-.2789.2087-.2427 8.272-1.5288.2195.2066s1.0815-.222 1.2047-.2479c.1231-.0258.2195-.2014.2837-.315s-.0254-1.8076-.0053-2.3396c.017-.4466-.0824-.4266-.1338-.439l-.787.1342s-.2169.0569-.3267.0103c-.1808-.0765-.1606-.2066-.1606-.2066s.0107-.222-.0696-.47c-.0803-.2478-.2677-.2117-.2677-.2117l-7.3618.9968s-.3861.0579-.7214.1407l-1.874-.9929-.0427.0233a.0343.033 0 0 1-.0148.0039l-.546.0464 2.0974 1.0678c-.0031.0065-.038.0088-.0389.0155-.101.885-.2104.9922-.4818 1.033l-1.4403.1962-3.2017-2.1175z"/></svg>