<svg xmlns="http://www.w3.org/2000/svg" fill="#44739e" viewBox="0 0 24 24"><path d="M3.3202.9539s-.932-.1741-.932 1.1844c0 1.3586.2214 18.009.2214 18.009s.3792.6638.5214.6322c.1412-.0314 2.5462-.3588 2.5775-.3631l.0167-.0025.013-4.004.0115-3.8997 4.259-.0012-.004-.3051-4.2538-.0541.0052-1.6158 5.0404.0567.0115-.3219-5.0507-.1171.018-6.1477s-.0564-.6733.3541-.6733 10.8559.3772 10.8559.3772.3428.0117.354.2575c.005.1068.0028 3.4.004 5.9584l-1.0687.1146.0025.3141-4.2151-.0618-.0064.3386 4.2447.058.0051 1.5346-2.3895.0167-.0025.2961 2.3767-.0231.0025.2356h1.0531c-.0002 1.0092.0018 1.713.0012 2.4307.5413.1567 1.384.4339 1.384.4339l-1.4033.2098c-.0001.2234.0028.5723.0051.9231l-.9295-.3489-.654.0824 1.5848.5884c.001.122.002.287.0025.3669l2.0728-.291-.0076-14.7581s.0109-.5466-.5639-.564S3.3201.954 3.3201.954ZM9.58 9.6159l-.0051.551 1.3029.031-.0296.869-.7905-.0193.0218 1.7985.2833-.0296.0078.3502.9682.0296v.5665a.033.033 0 0 1 .0231.0104.033.033 0 0 1 .0104.0232v.0129l.2382.1197a.033.033 0 0 1 .0154.0141.033.033 0 0 1 .0025.0206.03.03 0 0 1-.0025.0051l.4172.121-.0206-2.0483a.07.07 0 0 1 .0167-.018c.0204-.0001 1.7355-.0078 1.7355-.018l.0025-.9476-1.796.0129.0296-1.3312zm4.1932 2.4745-1.6183.0167.0193 1.9106 1.599-.045zm-2.4346 1.7059-.157.157.2098.21.2047-.2048-.2575-.1287zm2.4256.4042c-.0291 0-7.8728.8961-7.8728.8961l3.1968 1.7188 9.5555-1.209s-4.8504-1.4059-4.8795-1.4059m-7.923.9257.0103.4944.2163.1133.618.0206 2.1218 1.1639-.2575.1854.412.2884 1.308-.1133.3296-.1854 6.2931-.7931.3605.0618-.031-.515-8.1676 1.0403zm.6489 1.2823-.7056.0206-.0103 4.0015.8394-.1751-.036-.9321 3.2752 2.4873s-.0257.4532.031.8703c.0566.4172.6128.3708.6128.3708l1.2926-.278.2008-.2421 7.9565-1.5243.2112.206s1.0402-.2215 1.1587-.2472c.1184-.0258.2111-.2009.273-.3142.0617-.1133-.0246-1.8024-.0052-2.3329.0163-.4452-.0793-.4253-.1287-.4377l-.757.1339s-.2086.0566-.3142.0104c-.174-.0764-.1545-.206-.1545-.206s.0104-.2215-.067-.4687c-.0772-.2472-.2574-.2111-.2574-.2111l-7.081.994s-.3715.0576-.694.1402l-1.8024-.99-.0412.0232a.03.03 0 0 1-.0142.0039l-.5252.0463 2.0174 1.0647c-.003.0064-.0366.0088-.0373.0155-.0973.8823-.2025.9893-.4635 1.03l-1.3853.1956L6.799 17.552Z"/></svg>