<svg xmlns="http://www.w3.org/2000/svg" viewBox="0 0 24 24"><path fill="#44739e" d="M3.362 1.007s-.928-.173-.928 1.179.221 17.922.221 17.922.377.661.519.629c.14-.031 2.534-.357 2.565-.361l.016-.003.013-3.984.012-3.881 4.238-.001-.004-.304-4.233-.054.005-1.608 5.016.057.012-.321-5.027-.116.018-6.118s-.056-.67.353-.67 10.803.375 10.803.375.341.012.352.256c.005.106.003 3.384.004 5.93l-1.063.114.002.312-4.194-.061-.007.337 4.224.058.006 1.527-2.378.016-.003.295 2.365-.023.003.235h1.048c0 1.004.002 1.704.001 2.419.539.156 1.377.431 1.377.431l-1.396.209c0 .222.003.57.005.919l-.925-.347-.651.082 1.577.585c.001.122.002.286.003.365l2.062-.289-.007-14.687s.011-.544-.561-.561-15.443-.863-15.443-.863m6.23 8.62-.005.549 1.296.031-.029.864-.787-.019.022 1.79.282-.029.007.348.964.03v.563a.033.033 0 0 1 .023.011.033.033 0 0 1 .01.023v.013l.237.119a.033.033 0 0 1 .016.014.033.033 0 0 1 .002.02.03.03 0 0 1-.002.005l.415.121-.021-2.039a.07.07 0 0 1 .017-.018c.02 0 1.727-.007 1.727-.018l.003-.943-1.788.013.03-1.324Zm4.173 2.463-1.611.017.019 1.901 1.592-.045Zm-2.423 1.698-.157.156.209.209.204-.204-.256-.128Zm2.414.402c-.029 0-7.835.892-7.835.892l3.181 1.71 9.51-1.203s-4.827-1.399-4.856-1.399m-7.885.921.01.492.215.113.615.02 2.112 1.159-.256.184.41.287 1.301-.113.328-.184 6.263-.789.359.061-.031-.512-8.128 1.035Zm.646 1.276-.703.021-.01 3.982.835-.174-.035-.928 3.259 2.475s-.026.451.031.866c.056.416.61.369.61.369l1.286-.276.2-.241 7.918-1.517.21.205s1.035-.22 1.153-.246.21-.2.272-.313c.061-.113-.024-1.793-.005-2.321.016-.443-.079-.424-.128-.436l-.754.133s-.207.057-.312.011c-.173-.076-.154-.205-.154-.205s.01-.221-.067-.467-.256-.21-.256-.21l-7.047.989s-.369.058-.69.14l-1.794-.985-.041.023a.03.03 0 0 1-.014.004l-.523.046 2.008 1.059c-.003.007-.037.009-.037.016-.097.878-.202.984-.462 1.025l-1.378.194-3.065-2.101Z"/></svg>