<svg xmlns="http://www.w3.org/2000/svg" viewBox="0 0 24 24"><path fill="#44739e" d="M3.045 1.007s-.961-.173-.961 1.179.228 17.922.228 17.922.392.66.538.629 2.627-.357 2.659-.361l.018-.003.013-3.985.028-9.128 4.378.013-.004-.318-4.373-.054.005-1.608 5.184.108.012-.336-5.194-.151.002-.872s-.058-.67.366-.67 11.199.376 11.199.376.354.011.365.256c.001.012 0 .616 0 .682L16.41 4.8l-.011.435-4.335-.133-.007.326 4.358.089-.005 1.497-2.433-.011-.003.281 2.452.006.003.205h1.082c.003 2.551.007 5.403.005 7.667.559.156 1.428.432 1.428.432l-1.448.209c0 .222.003.569.006.919l-.959-.348-.675.082 1.635.586c.001.121.002.286.003.365l2.138-.29-.008-14.686s.011-.544-.582-.561-16.009-.863-16.009-.863m6.458 3.372-.005.549 1.344.031-.03.864-.816-.019.023 1.79.292-.029.008.348.999.03v.563a.035.035 0 0 1 .023.011.032.032 0 0 1 .011.023v.013l.246.119a.034.034 0 0 1 .016.014.032.032 0 0 1 .002.02.02.02 0 0 1-.002.005l.43.121-.021-2.039a.07.07 0 0 1 .017-.018c.021 0 1.791-.007 1.791-.017l.002-.944-1.853.013.031-1.325Zm4.326 2.463-1.669.017.02 1.901 1.649-.045ZM11.318 8.54l-.162.156.216.209.211-.204-.265-.128Zm2.502 5.65c-.03 0-8.122.892-8.122.892l3.298 1.71 9.858-1.203S13.85 14.19 13.82 14.19m-8.174.921.011.492.223.113.637.02 2.189 1.159-.265.184.425.287 1.349-.113.34-.184 6.493-.789.371.061-.032-.512-8.426 1.035Zm.67 1.276-.728.021-.011 3.982.866-.174-.037-.928 3.379 2.475s-.027.451.032.866.632.369.632.369l1.334-.276.207-.241 8.208-1.517.218.205s1.073-.22 1.195-.246.218-.2.282-.313-.025-1.793-.005-2.321c.016-.443-.082-.424-.133-.436l-.781.133s-.215.057-.324.01c-.18-.075-.16-.205-.16-.205s.011-.22-.069-.466-.265-.21-.265-.21l-7.306.989s-.383.058-.715.14l-1.86-.986-.042.024a.034.033 0 0 1-.015.003l-.542.047 2.081 1.059c-.003.007-.037.009-.038.015-.1.879-.209.985-.478 1.026l-1.43.194-3.177-2.101Z"/></svg>