<svg xmlns="http://www.w3.org/2000/svg" viewBox="0 0 24 24"><path fill="#44739e" d="M1 12V5.851h12.297v12.298H1Zm6.329 4.256c.53-.04.866-.135 1.349-.382.285-.147.499-.301.755-.546.327-.312.543-.596.692-.905.217-.451.317-.895.317-1.408 0-.509-.1-.949-.31-1.369-.134-.267-.444-.68-.699-.931l-.135-.134-.609.61-.609.609.102.115c.181.204.232.27.3.386.139.233.201.513.183.824-.05.862-.713 1.449-1.637 1.45-.245 0-.386-.022-.599-.09-.469-.151-.803-.423-1.129-.916-.099-.149-.187-.271-.197-.271-.016 0-1.199 1.194-1.21 1.221s.324.45.503.634c.472.488 1.046.836 1.642.995.441.118.78.147 1.291.108m1.511-5.58 1.645-1.642-.567-.557-.568-.557-.043.033c-.024.018-.446.43-.938.915-1.064 1.049-2.295 2.304-2.295 2.339 0 .049 1.048 1.109 1.098 1.11.013.001.764-.738 1.668-1.641M8.275 8.56l.783-.782H6.525c-1.393 0-2.532.005-2.532.012s.346.36.769.783l.77.77h1.961Zm10.053 2.598c-.254-.039-.447-.127-.609-.277-.14-.13-.203-.259-.223-.455-.058-.591.214-.942.908-1.169.239-.079.474-.127.858-.179l.287-.038.005-.095c.011-.193-.105-.386-.284-.473-.09-.045-.112-.048-.305-.048-.114.001-.249.011-.301.023-.116.027-.275.112-.426.225-.062.047-.117.086-.123.086-.007 0-.107-.097-.225-.215l-.214-.214.075-.065c.156-.135.255-.201.405-.273.52-.247 1.081-.255 1.557-.022.263.129.482.395.56.679.033.123.056.831.058 1.791l.001.641h-.705v-.155c0-.085-.005-.155-.01-.155s-.057.038-.116.084c-.212.166-.422.254-.719.303-.188.03-.266.03-.454.001m.665-.622c.345-.101.571-.395.583-.755.009-.232.011-.23-.339-.172-.431.073-.649.148-.81.279-.286.231-.201.601.155.676.094.02.295.006.411-.028m2.919.631c-.372-.051-.625-.225-.793-.546l-.079-.152-.007-1.497-.006-1.497.058-.072c.082-.105.656-.645.67-.631.006.006.015.26.02.564l.009.554.48.004.48.005-.011.286c-.006.158-.015.29-.019.294-.004.005-.217.012-.473.017l-.465.009v1.794l.082.079c.044.043.097.086.116.096.13.064.331.032.513-.08l.056-.035.229.229.228.229-.1.08c-.253.204-.661.315-.988.27m-6.57-.028c-.334-.06-.754-.28-.974-.509l-.055-.058.225-.226.224-.227.132.111c.247.207.509.306.811.307.279 0 .431-.067.501-.222.057-.126.032-.232-.08-.341-.096-.094-.179-.137-.509-.262-.365-.139-.688-.294-.783-.376-.196-.169-.307-.489-.264-.76.071-.454.475-.743 1.083-.775.307-.016.593.044.87.184.114.057.47.304.471.327.001.015-.422.429-.439.429-.01 0-.082-.047-.162-.104-.312-.223-.588-.301-.82-.232-.109.033-.169.079-.212.165-.059.114-.036.209.071.299.081.068.182.115.501.231.488.177.708.297.863.469.137.152.223.382.221.593-.003.304-.173.621-.422.782-.126.081-.352.163-.541.196-.181.032-.535.031-.712-.001"/></svg>