<svg xmlns="http://www.w3.org/2000/svg" viewBox="0 0 24 24"><path fill="#44739e" d="M0 12V5.2925h13.415v13.4151H0Zm6.9045 4.6432c.5784-.0438.9449-.1477 1.4714-.4175.3108-.1593.5444-.328.8232-.5946.3568-.3414.5933-.6504.7554-.9874.2371-.4928.346-.9763.346-1.5367 0-.5549-.1087-1.0345-.3384-1.4926-.1464-.292-.484-.7421-.7625-1.0167l-.1473-.1453-.6645.6647-.6645.6647.1113.1256c.1973.2229.2532.2946.328.4206.1512.2544.219.5604.1992.8997-.0548.94-.7778 1.5802-1.7856 1.5809-.2671.0001-.4217-.023-.6538-.0978-.5112-.1648-.8763-.4609-1.2319-.999-.1073-.1624-.2038-.2953-.2144-.2953-.018 0-1.3082 1.3018-1.32 1.3317-.0117.0297.3538.4905.5485.6916.5154.5323 1.1414.9118 1.7911 1.0857.4817.1289.8517.1598 1.4088.1177m1.6485-6.0877 1.7944-1.7916-.6191-.6074-.6192-.6074-.047.0358c-.0257.0197-.486.469-1.0227.9983-1.161 1.145-2.5045 2.514-2.5045 2.5517 0 .0533 1.1437 1.2096 1.1982 1.2114.014.0003.833-.8054 1.82-1.7908zm-.6166-2.308.8536-.8537H6.0273c-1.5195 0-2.7627.006-2.7627.014s.3778.3919.8395.8537l.8396.8397h2.1392zm10.9664 2.8342c-.2762-.043-.4875-.1392-.6637-.3023-.1527-.1414-.2219-.2826-.243-.4962-.064-.6453.233-1.028.9905-1.276.2606-.0854.5168-.1386.9355-.1945l.313-.0418.006-.104c.0113-.2105-.115-.4207-.3099-.516-.0987-.0483-.1229-.052-.3325-.0516-.1244.0003-.2726.0115-.3293.0248-.1265.0297-.3.1217-.4638.2458-.068.0514-.1286.0934-.135.0934-.007 0-.1166-.1053-.245-.234l-.2335-.2341.082-.071c.1697-.1466.278-.2195.4418-.2976.5669-.27 1.1793-.2786 1.698-.0239.2873.141.5265.431.6108.7403.0368.1348.0618.9067.0635 1.9542l.001.699h-.7693v-.1688c0-.093-.005-.1689-.01-.1689-.006 0-.0623.0411-.1266.0914-.2319.1813-.4608.2776-.7845.3301-.2058.0334-.2904.0336-.496.002zm.7262-.679c.3756-.1101.623-.4302.636-.823.009-.2537.0122-.2518-.3702-.1875-.4706.0792-.7076.1605-.8837.3034-.3117.2529-.2193.6559.169.7378.1024.0216.3218.007.4489-.0306zm3.1846.6886c-.4063-.0559-.6818-.2455-.8652-.5955l-.0868-.1657-.007-1.633-.007-1.6331.063-.0793c.09-.1138.7164-.7033.7313-.6884.007.007.0167.284.022.616l.01.6036.5235.005.5236.005-.0123.3124c-.007.1718-.016.316-.0205.3206-.005.005-.2367.0128-.516.0185l-.5077.0102v1.9565l.0892.0862c.049.0474.106.0945.1266.1047.142.0698.361.0356.56-.0874l.0613-.0378.2492.2497.2492.2497-.1095.088c-.276.2218-.7207.3432-1.0772.2942zm-7.1675-.0304c-.3643-.0659-.8223-.3055-1.0624-.5556l-.0603-.0628.245-.247.245-.247.1436.1206c.2693.2262.5554.3344.8848.3345.3048 0 .4697-.0728.5463-.2415.0626-.1378.0356-.2536-.087-.3727-.1051-.102-.1955-.1485-.555-.2852-.399-.1518-.7505-.3206-.8547-.4105-.2134-.1842-.3346-.533-.2881-.8286.078-.4959.5184-.8109 1.1821-.8456.3349-.0175.6463.0482.949.2002.1242.0624.5122.3318.5138.3568.001.017-.4609.468-.4795.468-.01 0-.0889-.0511-.1765-.1137-.34-.2426-.641-.3275-.8946-.2521-.1182.035-.1841.0862-.2316.1793-.0637.1247-.0392.2279.0776.326.0887.0747.1989.1255.547.252.532.1932.7726.324.9415.512.1493.166.243.4171.2412.647-.003.332-.189.6771-.4604.8526-.138.0892-.3837.1784-.5904.2145-.1971.0344-.5834.0338-.7765-.001z"/></svg>