<svg xmlns="http://www.w3.org/2000/svg" fill="#44739e" viewBox="0 0 24 24"><path d="M5.883 9.879a.578.578 0 1 0 .578.578.577.577 0 0 0-.578-.578m.003 1.548a.578.578 0 1 0 .575.578.578.578 0 0 0-.575-.578m.007 1.552a.577.577 0 1 0 .564.577.563.563 0 0 0-.564-.577m9.934-3.113a1.565 1.565 0 1 0 1.564 1.565 1.565 1.565 0 0 0-1.564-1.565m0 2.352a.787.787 0 1 1 .787-.787.788.788 0 0 1-.787.787m-4.767-2.203a.486.486 0 0 0-.348-.139H7.419a.42.42 0 0 0-.11.013.462.462 0 0 0-.265.171.48.48 0 0 0-.1.306v1.639a.62.62 0 0 0 .022.148.439.439 0 0 0 .307.306.64.64 0 0 0 .187.02h2.719c.035 0 .035 0 .035.042v.606c0 .016-.006.019-.019.019H7.448a.57.57 0 0 0-.149.017.46.46 0 0 0-.255.164.507.507 0 0 0-.113.31.5.5 0 0 0 .02.135.51.51 0 0 0 .164.261.408.408 0 0 0 .268.1h3.309a.56.56 0 0 0 .194-.029.413.413 0 0 0 .232-.177.57.57 0 0 0 .081-.3V10.4a.46.46 0 0 0-.017-.171.444.444 0 0 0-.122-.214m-.836 1.516a.015.015 0 0 1-.016.016H7.947a.016.016 0 0 1-.016-.016v-.658c0-.01 0-.016.016-.016h2.261a.015.015 0 0 1 .016.016zm4.113-1.013v-.645h-.755v1.654l-1.058-1.445a.507.507 0 0 0-.409-.209h-.446v3.086h.755v-1.722l1.119 1.519a.514.514 0 0 0 .407.207h.384v-.613a1.724 1.724 0 0 1 0-1.832zm6.728-.645-.536 2.027-.629-2.027h-.852l-.622 2.027-.535-2.028h-.935s.035.119.093.3a1.74 1.74 0 0 1 .532 1.258 1.68 1.68 0 0 1-.038.361c.074.242.125.406.125.406.233.758.546.758.694.758s.464 0 .713-.767l.4-1.265.4 1.271c.245.768.558.768.71.768s.464 0 .7-.758L22 9.876ZM2.587 11.431A.571.571 0 0 0 2 12a.578.578 0 1 0 .587-.567Zm-.01-1.552a.578.578 0 1 0 .578.6.577.577 0 0 0-.578-.6m.007 3.097a.576.576 0 1 0 .571.574.578.578 0 0 0-.571-.574m1.654.003a.576.576 0 1 0 .571.574.574.574 0 0 0-.571-.574m-.003-3.097a.576.576 0 1 0 .574.578.576.576 0 0 0-.574-.578m.571 2.126a.576.576 0 1 0-.584.577.575.575 0 0 0 .584-.577"/></svg>