<svg xmlns="http://www.w3.org/2000/svg" viewBox="0 0 24 24"><path fill="#44739e" d="M5.272 9.667a.636.636 0 1 0 .636.636.635.635 0 0 0-.636-.636m.003 1.703a.636.636 0 1 0 .633.636.636.636 0 0 0-.633-.636m.008 1.707a.635.635 0 1 0 .62.635.619.619 0 0 0-.62-.635M16.21 9.653a1.721 1.721 0 1 0 1.72 1.722 1.721 1.721 0 0 0-1.72-1.722m0 2.587a.866.866 0 1 1 .866-.865.867.867 0 0 1-.866.865m-5.244-2.423a.535.535 0 0 0-.382-.153H6.961a.46.46 0 0 0-.121.014.508.508 0 0 0-.291.188.528.528 0 0 0-.11.337v1.803a.68.68 0 0 0 .024.163.483.483 0 0 0 .338.336.7.7 0 0 0 .205.022h2.991c.039 0 .039 0 .039.047v.666c0 .018-.007.021-.021.021H6.993a.63.63 0 0 0-.164.019.506.506 0 0 0-.28.18.558.558 0 0 0-.124.341.55.55 0 0 0 .022.149.56.56 0 0 0 .18.287.45.45 0 0 0 .295.11h3.64a.62.62 0 0 0 .213-.032.454.454 0 0 0 .255-.195.627.627 0 0 0 .089-.33v-3.55a.51.51 0 0 0-.018-.188.49.49 0 0 0-.135-.235m-.919 1.668a.016.016 0 0 1-.018.017H7.542a.018.018 0 0 1-.017-.017v-.724c0-.011 0-.018.017-.018h2.487a.016.016 0 0 1 .018.018Zm4.524-1.115v-.709h-.831v1.819l-1.163-1.589a.558.558 0 0 0-.45-.23h-.491v3.394h.831v-1.894l1.231 1.671a.565.565 0 0 0 .447.228h.423v-.675a1.896 1.896 0 0 1 0-2.015Zm7.401-.709-.59 2.229-.692-2.229h-.937l-.684 2.229-.589-2.23h-1.028s.038.131.102.33a1.914 1.914 0 0 1 .585 1.383 1.85 1.85 0 0 1-.042.398c.082.266.138.446.138.446.256.834.601.834.763.834s.511 0 .785-.844l.44-1.391.44 1.398c.269.845.613.845.781.845s.51 0 .77-.834L23 9.664ZM1.646 11.375a.628.628 0 0 0-.645.625.636.636 0 1 0 .645-.623Zm-.011-1.708a.636.636 0 1 0 .636.66.635.635 0 0 0-.636-.66m.008 3.407a.634.634 0 1 0 .628.631.636.636 0 0 0-.628-.631m1.819.003a.634.634 0 1 0 .628.632.631.631 0 0 0-.628-.632m-.003-3.406a.634.634 0 1 0 .631.635.634.634 0 0 0-.631-.635m.628 2.338a.634.634 0 1 0-.642.635.632.632 0 0 0 .642-.635"/></svg>