<svg xmlns="http://www.w3.org/2000/svg" fill="#44739e" viewBox="0 0 24 24"><path d="M16.7 9.774a.31.31 0 0 1 .207.077c.03.234.05.458.071.695a13.57 13.57 0 0 0 .554 2.977c.03.1.13.384.307.872a.7.7 0 0 0 .011-.1v-.042c-.15-.412-.236-.656-.262-.747a16.78 16.78 0 0 1-.624-3.666c-.01-.079-.317-.2-.369-.064-.306.8.553 3.829.7 4.265.093.277.186.537.276.779l.006-.005a.35.35 0 0 0 .042-.034c-.087-.236-.177-.489-.268-.759-.129-.383-1-3.433-.7-4.225.003-.005.009-.021.049-.023m1.208 4.807c.157.43.363.992.623 1.7a.6.6 0 0 0 .043-.055c-.268-.728-.478-1.3-.635-1.732a1 1 0 0 1-.031.087m.174 1.381c-.124-.308-.266-.662-.417-1.064l-.016.012-.033.025c.244.65.466 1.173.623 1.581l.049-.037zm.757.815-.226-.616a.7.7 0 0 1-.039.064l.212.578a1.117 1.117 0 0 1 .026.84.8.8 0 0 1-.433.407.905.905 0 0 1-.611-.05 5.17 5.17 0 0 1-.929-.419l-.05.039a5.2 5.2 0 0 0 .96.435 1.38 1.38 0 0 0 .427.089.66.66 0 0 0 .222-.038.847.847 0 0 0 .467-.438 1.182 1.182 0 0 0-.023-.885zm-2.222-7.102c.039.01.079.018.118.024l.077.028.031-.02h.063a.5.5 0 0 0-.156-.049.243.243 0 0 0-.133.017m1.725 7.897c-.123.1-.418.12-1.123-.28l-.051.039q.916.525 1.211.287c.182-.149.091-.5-.14-1.1l-.049.037c.21.55.304.893.152 1.017m.68-11.518L17.811 5.6a.69.69 0 0 0-.564.033l-2.221 1.15a.226.226 0 0 0-.122.2V8.6a.437.437 0 0 0 .279.4l1.377.53a.854.854 0 0 0 .8-.1l1.722-1.216a.466.466 0 0 0 .2-.378v-1.41a.4.4 0 0 0-.26-.372m-3.977.577.467-.236-.012-.009a.153.153 0 0 1-.056-.131.151.151 0 0 1 .078-.118.15.15 0 0 1 .221.113v.02l1.542-.816a.9.9 0 0 1 .288-.046l.544.129V3.411a.114.114 0 0 0-.077-.108l-1.3-.461a.255.255 0 0 0-.206.016l-.793.436a.354.354 0 0 0-.183.313l.01 1.453a.15.15 0 0 1-.03.091l-.275.367V5.8a.153.153 0 0 1-.059.12l-.329.252a.15.15 0 0 1-.15.019l-.479-.2-.176.209.116.14ZM8.732 7.8h.007l.167-.1.313-.227a.125.125 0 0 1 .073-.024.115.115 0 0 1 .057.014.125.125 0 0 1 .069.111v.11l.079.08.149.021a.125.125 0 0 1 .046.231.007.007 0 0 0 0 .007v.006l.282.108a.353.353 0 0 0 .31-.026l1.647-.977.034-.17-.005-.008-.741-.269a.124.124 0 0 1-.082-.124l.059-1.2a.127.127 0 0 1 .064-.1c.5-.278.865-.494.944-.553V3.332a.308.308 0 0 0-.2-.286l-.372-.146a.123.123 0 0 1-.08-.113l-.011-.407v-.007l-.571-.206h-.01l-.343.129-.005.007-.009.251a.126.126 0 0 1-.06.1l-.466.285a.126.126 0 0 1-.13 0 .124.124 0 0 1-.06-.115l.046-.713v-.008L9.622 2h-.006l-.284.158v.006L9.316 3.2a.123.123 0 0 1-.046.1.74.74 0 0 1-.284.143.184.184 0 0 0-.139.2l.018.13a.123.123 0 0 1-.045.113l-.191.157a.3.3 0 0 0-.11.242l.066 2.185a.263.263 0 0 0 .125.215l.085.052a.123.123 0 0 1 .057.08.127.127 0 0 1-.019.1l-.318.46v.296zm-1.856-.824.234.052.814-.428-.011-.449L6.6 5.524l.253-.738 1.582.608L8.4 4.29a.423.423 0 0 1 .081-.258l-1.74-.619-.573.327-.059.773.042.055.127.24L5.9 5.8l-.259.284v.325l.372.087.026.116.357.1-.318.257-.437-.138v.189l.711.35ZM14.006 6l-2.326-.83-.351.2v.006l-.059 1.107 3.516 1.35v-.849a.34.34 0 0 1 .086-.226l-.75-.257a.147.147 0 0 1-.068-.047l-.134-.163a.15.15 0 0 1 0-.192zm-2.989 14.557.672-1.12-1.453-.711-.63 1.12zm4.138-6.687v-.262L9.524 11.16 4.72 14.264v.249l5.715 2.68zm2.832-4.734-.557.393a.975.975 0 0 1-.524.178c.061.031.112.075.118.126.031.237.051.463.072.7a13.5 13.5 0 0 0 .55 2.955c.023.079.092.276.21.6zm-2.475.12-.145 5.305a.373.373 0 0 0 .118.283l.106.1v.163l.483.191.206-.129.272.133a.408.408 0 0 0 .42-.039l.552-.407c-.092-.248-.187-.513-.283-.8-.137-.407-1.017-3.469-.7-4.3a.142.142 0 0 1 .075-.081c-.034-.009-.067-.02-.1-.032zm.979 8.181.365-.365.04.025c.116.074.224.139.323.2l.971-.739c-.063-.164-.136-.346-.217-.547-.121-.3-.26-.645-.407-1.035l-.524.388a.521.521 0 0 1-.542.049l-.213-.1-.2.125-.613-.242V15l-.074-.07a.493.493 0 0 1-.154-.373l.017-.621-4.82 3.393-3.4-1.593-2.019 1.348a.4.4 0 0 0-.036.027l-.052.045a.355.355 0 0 0-.121.267v1.142a.7.7 0 0 0 .381.622l1.475.751a2.1 2.1 0 0 0 .651-.055l.993-.674a.238.238 0 0 1 .311-.023l.462.224a.165.165 0 0 1 .1.245l-.455.75a.484.484 0 0 0-.066.3l.009.078a.351.351 0 0 0 .2.276l1.827.893a.432.432 0 0 0 .453-.045l5.639-4.291q-.12-.069-.237-.144zm-5.43 3.275L9.443 19.9l.745-1.325 1.668.817zm7.67-6.012a.455.455 0 0 0-.282-.441l-.475-.2-.006.23a.8.8 0 0 1-.007.085c.157.431.373 1.019.652 1.778a.59.59 0 0 0 .063-.238zm-3.438-1.734L12.944 12a.352.352 0 0 0-.33.032l-.311.208 2.97 1.291v.175z"/></svg>