<svg xmlns="http://www.w3.org/2000/svg" viewBox="0 0 24 24"><path fill="#44739e" d="M17.17 9.553a.34.34 0 0 1 .228.085c.033.257.055.504.078.764a14.93 14.93 0 0 0 .609 3.276c.033.11.143.422.338.959a.8.8 0 0 0 .012-.11v-.046c-.165-.453-.26-.722-.288-.822a18.46 18.46 0 0 1-.687-4.033c-.011-.087-.348-.22-.406-.071-.336.88.609 4.213.771 4.693.102.304.204.59.303.857l.007-.006a.4.4 0 0 0 .046-.037c-.096-.26-.195-.538-.295-.835-.142-.422-1.1-3.777-.77-4.649.003-.005.01-.023.054-.025m1.329 5.289c.173.473.399 1.091.685 1.87a.7.7 0 0 0 .048-.06c-.295-.801-.526-1.431-.699-1.906a1.1 1.1 0 0 1-.034.096m.191 1.519c-.136-.339-.292-.728-.458-1.17l-.018.013-.036.027c.268.715.512 1.291.685 1.74l.054-.041Zm.833.897-.248-.678a.8.8 0 0 1-.043.071l.233.635a1.23 1.23 0 0 1 .029.925.88.88 0 0 1-.477.447.996.996 0 0 1-.672-.055 5.7 5.7 0 0 1-1.022-.461l-.055.043a5.72 5.72 0 0 0 1.056.479 1.52 1.52 0 0 0 .47.098.73.73 0 0 0 .244-.042.932.932 0 0 0 .514-.482 1.3 1.3 0 0 0-.025-.974Zm-2.444-7.814c.042.011.086.02.129.027l.085.03.034-.022h.07a.55.55 0 0 0-.172-.054.267.267 0 0 0-.146.019m1.897 8.689c-.135.11-.459.132-1.235-.309l-.056.043q1.008.578 1.332.316c.2-.164.1-.55-.154-1.21l-.054.041c.231.605.335.982.167 1.119m.749-12.673-1.333-.499a.76.76 0 0 0-.62.036l-2.444 1.265a.249.249 0 0 0-.134.22v1.779a.481.481 0 0 0 .307.44l1.515.584a.94.94 0 0 0 .88-.11l1.895-1.338a.513.513 0 0 0 .22-.416V5.87a.44.44 0 0 0-.286-.41m-4.376.635.514-.26-.013-.009a.168.168 0 0 1-.062-.145.166.166 0 0 1 .086-.129.165.165 0 0 1 .243.124v.022l1.697-.898a.99.99 0 0 1 .316-.05l.599.141V2.552a.125.125 0 0 0-.085-.118l-1.43-.508a.28.28 0 0 0-.227.018l-.872.48a.389.389 0 0 0-.202.344l.011 1.599a.165.165 0 0 1-.033.1l-.302.404v.31a.168.168 0 0 1-.065.132l-.362.277a.165.165 0 0 1-.165.021l-.527-.22-.194.23.128.154ZM8.403 7.381h.008l.184-.11.344-.25a.138.138 0 0 1 .081-.026.13.13 0 0 1 .062.015.138.138 0 0 1 .076.123v.121l.087.088.164.023a.138.138 0 0 1 .051.254.008.008 0 0 0 0 .008v.006l.31.119a.388.388 0 0 0 .341-.029l1.812-1.075.037-.187-.005-.008-.815-.296a.136.136 0 0 1-.091-.137l.065-1.32a.14.14 0 0 1 .071-.11c.55-.306.951-.544 1.038-.608V2.465a.339.339 0 0 0-.22-.314l-.409-.161a.135.135 0 0 1-.088-.124l-.012-.448V1.41l-.628-.226h-.011l-.378.142-.005.007-.01.277a.139.139 0 0 1-.066.11l-.513.313a.139.139 0 0 1-.143 0 .136.136 0 0 1-.066-.126l.051-.785v-.009L9.383 1h-.007l-.312.174v.006l-.018 1.14a.135.135 0 0 1-.051.11.81.81 0 0 1-.312.158.202.202 0 0 0-.153.22l.02.143a.135.135 0 0 1-.05.124l-.21.173a.33.33 0 0 0-.121.266l.073 2.404a.289.289 0 0 0 .137.236l.094.058a.135.135 0 0 1 .062.088.14.14 0 0 1-.02.11l-.35.506v.326Zm-2.042-.906.258.057.895-.471-.012-.494-1.444-.69.278-.812 1.741.669-.039-1.215a.465.465 0 0 1 .089-.283l-1.914-.681-.631.359-.064.851.046.06.139.264-.415 1.092-.285.312v.358l.409.096.029.127.392.11-.35.283-.48-.152v.208l.782.385Zm7.845-1.074-2.559-.913-.386.22v.006l-.065 1.218 3.868 1.486v-.935a.374.374 0 0 1 .095-.248l-.825-.283a.16.16 0 0 1-.075-.052l-.148-.179a.165.165 0 0 1 0-.211Zm-3.289 16.016.74-1.233-1.599-.782-.693 1.232Zm4.553-7.357v-.289l-6.195-2.693-5.286 3.415v.274l6.288 2.949Zm3.116-5.209-.613.433a1.073 1.073 0 0 1-.576.195c.067.034.123.083.129.139.034.261.056.509.08.77a14.85 14.85 0 0 0 .605 3.251c.025.087.101.304.231.66Zm-2.723.132-.16 5.837a.41.41 0 0 0 .13.311l.117.11v.179l.531.211.227-.142.299.146a.449.449 0 0 0 .462-.043l.607-.448c-.101-.273-.205-.564-.311-.88-.151-.448-1.119-3.816-.77-4.731a.156.156 0 0 1 .082-.089c-.037-.01-.073-.022-.11-.035Zm1.077 9.001.402-.402.044.028c.127.081.246.153.355.22l1.068-.813c-.069-.181-.149-.381-.239-.602-.133-.33-.286-.71-.447-1.139l-.577.427a.573.573 0 0 1-.596.054l-.234-.11-.221.138-.674-.267v-.215l-.081-.077a.542.542 0 0 1-.17-.411l.019-.683-5.303 3.733-3.741-1.752-2.221 1.483a.4.4 0 0 0-.04.029l-.057.05a.39.39 0 0 0-.133.294v1.256a.77.77 0 0 0 .419.684l1.623.827a2.31 2.31 0 0 0 .716-.061l1.093-.741a.262.262 0 0 1 .342-.026l.508.247a.182.182 0 0 1 .11.269l-.5.825a.533.533 0 0 0-.073.33l.01.086a.386.386 0 0 0 .22.304l2.01.982a.475.475 0 0 0 .498-.049l6.204-4.721q-.132-.076-.26-.159Zm-5.974 3.603-1.78-.893.819-1.458 1.835.899Zm8.438-6.614a.501.501 0 0 0-.31-.485l-.522-.221-.007.254a.9.9 0 0 1-.008.093c.173.474.411 1.121.718 1.956a.65.65 0 0 0 .069-.262Zm-3.782-1.908-2.584-1.063a.387.387 0 0 0-.364.035l-.342.229 3.268 1.421v.192Z"/></svg>