<svg xmlns="http://www.w3.org/2000/svg" fill="#44739e" viewBox="0 0 24 24"><path d="M3.7464 6.1065c.083.064.179.139.276.221h4.864v-.3h-5.065zm7.35-1.369-.325-.647-.353.647zm8.725 1.29h-5.059v.3h4.841c.1-.087.2-.163.288-.229zm-10.877-1.881c-.188 0-.97.048-.97.048v.231s.846-.011.97-.016.192-.263 0-.263m-.016.622c-.242.006-.976.038-.976.038l-.011.241h1.008c.15 0 .22-.284-.021-.279m4.708-.385c0-.094.028-.253-.245-.253s-.834-.019-.834-.019v.46s.6.009.853.009.226-.102.226-.197m-7.132.467-.323-.509-.35.54zm14.113 1.2s-.357-.494-.9-1.17a2.333 2.333 0 0 1-.539-1.352s-1.17-.5-2.209-.9a3.736 3.736 0 0 1-2.433.178 16.86 16.86 0 0 0-2.721-.2 16.8 16.8 0 0 0-2.679.214 3.727 3.727 0 0 1-2.435-.186c-1.039.407-2.209.9-2.209.9a2.316 2.316 0 0 1-.539 1.351c-.544.676-.9 1.171-.9 1.171s1.265 1.085 1.127 1.579-1.671 5.363-.362 8.023a8.1 8.1 0 0 0 5.857 4.688 4.082 4.082 0 0 1 2.161 1.26 4.02 4.02 0 0 1 2.151-1.266 8.1 8.1 0 0 0 5.858-4.687c1.308-2.66-.225-7.529-.363-8.024s1.135-1.579 1.135-1.579m-14.776-1.982.714-.09.886 1.344v-1.471s1.356-.111 1.742-.111.426.2.426.47a.318.318 0 0 1-.237.335c-.024 0-.019.039 0 .039s.274-.007.274.19v.316l.79-1.453h.722l.852 1.669v-1.645s1.422.035 1.753.07.381.239.381.239l-.007-.2s.647.014 1.5.085 1.341.138 1.341.138v.571l1.174.117v-.475l.528.084v1.123h-.529v-.393c-.179-.025-.36-.042-.542-.05-.374-.021-.637-.032-.637-.032v.468h-.536v-1.076s-.157-.026-.5-.047-.516-.021-.516-.021v1.144h-.542v-1.2h-.713v.121c0 .47-.265.494-.3.494s-.019.032 0 .032.261-.016.261.175v.4h-.54v-.238s.051-.163-.215-.163h-.84v.386h-1.095l-.146-.282h-1.087l-.153.283h-.581s-.008-.011 0-.1a.383.383 0 0 1-.291.1h-2.32l-.139-.226h-1.091l-.149.228h-.6zm-2.221 2.026.116-.152h16.2l.111.145c-.1.093-.213.206-.331.334H3.9434c-.116-.124-.229-.235-.323-.327m.576 9.468c-1.029-2.093-.209-5.567.39-7.724a1.493 1.493 0 0 0-.478-1.232h15.448a1.492 1.492 0 0 0-.473 1.224c.118.423.244.9.365 1.4l-1.95.886-2.474-2.89a.13.13 0 0 0-.06-.024l-3.943.382c-.089.008-.1.1-.023.134l2.471 1.109-1.233.541c-.081.035-.07.121.018.134l2.432.361a.16.16 0 0 0 .057-.016l.853-.73.442.944-2.891.746a.076.076 0 0 0-.052.081s.146.764.24 1.118l-.013.006-.861-.968c-.124-.14-.529.473-.613.568l-.849.029a.068.068 0 0 0-.067.07v.01l.174 1.245-.633-.862a.075.075 0 0 0-.1-.016l-2.448 1.733-.484-.966 1.1-.169a.14.14 0 0 0 .049-.032l1.309-2.07c.048-.075-.014-.141-.092-.1l-1.2.639.8-2.632c.024-.085-.052-.133-.117-.071l-2.818 2.686a.17.17 0 0 0-.021.062l.571 3.722-2.568 1.163c-.088-.159-.175-.322-.258-.491m15.34-5.956c.443 1.994.722 4.367-.057 5.95a7.683 7.683 0 0 1-5.561 4.46 4.363 4.363 0 0 0-2.082 1.076 4.424 4.424 0 0 0-2.079-1.071 7.5 7.5 0 0 1-5.117-3.647l6.233-2.835-.5.689-.251-.006c-.088 0-.113.083-.039.13l.506.322a.079.079 0 0 0 .088-.01l.791-.814.146.2-.744.807c-.023 0-.477.018-.276.153l.468.315a.079.079 0 0 0 .089-.008l.809-.808.146.193-.734.793h-.236c-.3 0 .385.6.5.484l.817-.823.161.213-.674.788h-.294c-.086 0-.111.08-.039.129l.456.316a.079.079 0 0 0 .089-.008l.784-.788a.45.45 0 0 0 .05.063.046.046 0 0 0-.008.028l-.042 1.183a.06.06 0 0 0 .009.026.075.075 0 0 0-.067.019l-.742.855a.126.126 0 0 0-.014.063l.005.024a.07.07 0 0 0-.053 0l-1.048.339a.18.18 0 0 0-.043.039l-.016.036a.076.076 0 0 0-.029-.065l-1.3-.834a.244.244 0 0 0-.151.007l.068-.026a.088.088 0 0 0 .045-.074l-.237-2.274c-.01-.091-.109-.1-.136-.014l-.874 2.69c-.022.069.023.113.092.087l.827-.314c-.118.061-.2.14-.133.2.518.451 1.984 1.912 1.849 1.434l-.009-.029c.037.055.076.089.11.083l1.614-.281c.071-.013.089-.072.037-.121h.057a.071.071 0 0 0 .1-.007l1.38-1.521c.037-.04.034-.083 0-.1a.08.08 0 0 0 .06-.068l.042-1.774c0-.064-.042-.094-.094-.07l.055-.037c.07-.046-.008-.214-.013-.237l1.117-.045c.146-.006.107-.567.109-.614.008-.083-.065-.115-.121-.054l-.164.176-1.078.041-.074-.278 1.177-.082c.144-.01.084-.56.087-.616.009-.227-.263.086-.3.125l-1.115.013-.073-.247 1.2-.073c.145-.009.121-.612.121-.614.023-.23-.271.079-.308.112l-1.162.022-.066-.24 1.233-.068a.081.081 0 0 0 .065-.056l.115-.6c.018-.087-.065-.127-.123-.059l-.145.171h-.9z"/></svg>