<svg xmlns="http://www.w3.org/2000/svg" viewBox="0 0 24 24"><path fill="#44739e" d="M19.381 16.308v-4.134h-2.42v4.134Zm0-4.482h-2.42V7.683h2.42v4.133Zm3.103.348A2.72 2.72 0 0 1 23 13.72a2.589 2.589 0 0 1-2.587 2.588h-.694v-4.134Zm-2.765-.348h2.448a2.62 2.62 0 0 0-.813-.505 1.98 1.98 0 0 0 .99-1.696 1.959 1.959 0 0 0-1.942-1.942h-.694v4.133Zm-7.08 4.482H10.23v-4.134h2.409Zm0-4.482H10.23V7.683h2.409v4.133Zm.348 4.482v-4.134h2.765a2.75 2.75 0 0 1 .516 1.556 2.588 2.588 0 0 1-2.587 2.588h-.691Zm0-4.482V7.683h.694a1.944 1.944 0 0 1 .951 3.638 2.87 2.87 0 0 1 .813.505H12.99Zm-7.843 0H2.576l1.448-4.143h1.12v4.133Zm2.915 0L6.61 7.683H5.491v4.133h2.568Zm1.566 4.482h-2.16l-.605-1.725H5.481v-2.42h2.687l1.447 4.134Zm-8.625 0h2.161l.605-1.725h1.378v-2.42H2.457L1.01 16.298Z"/></svg>