<svg xmlns="http://www.w3.org/2000/svg" fill="#44739e" viewBox="0 0 24 24"><path d="m20.745 15.209-.966 3.134-.869-3.134h-1.003l-.872 3.155-.979-3.155h-1.244l1.738 4.898h.959l.886-2.971.901 2.971h.956L22 15.209ZM3.426 14.05a.713.713 0 0 1-.713.713A.713.713 0 0 1 2 14.05a.713.713 0 0 1 .713-.713.713.713 0 0 1 .713.713M2.15 15.209h1.157v4.898H2.15Zm3.817 3.128-1.173-3.128H3.529l1.948 4.898h.949l1.948-4.898H7.128Zm2.637-3.128h1.157v4.898H8.604Zm3.526 3.659 2.059-1.225-2.059-1.227Zm3.115-1.248a2.619 2.619 0 1 0-.2 1.027h-1.188a1.6 1.6 0 1 1 .361-1.029zM11.292 6.579a.707.707 0 0 1 1.362.051l2.163 5.749a5.6 5.6 0 0 0 .559 1.105 2.03 2.03 0 0 0 1.607.724 1.71 1.71 0 0 0 .686-.127 2.119 2.119 0 0 0 1.321-1.867L19 5.938a2.038 2.038 0 0 0-.772-1.846 2.116 2.116 0 0 0-2-.171 2.332 2.332 0 0 0-1.258 1.566l1.1 3.058.852-2.452v5.8l-2.286-6.365a2.866 2.866 0 0 0-1.146-1.416 2.874 2.874 0 0 0-2.281-.242 2.8 2.8 0 0 0-1.737 1.5l1.146 3.021zm1.496 7.505a2.79 2.79 0 0 0 1.737-1.5l-1.147-3.02-.673 1.813a.707.707 0 0 1-1.362-.051l-2.166-5.75a5.6 5.6 0 0 0-.56-1.106 2.035 2.035 0 0 0-1.607-.724 1.87 1.87 0 0 0-.682.118 2.121 2.121 0 0 0-1.322 1.867L5 12.007a2.039 2.039 0 0 0 .772 1.849 2.116 2.116 0 0 0 2 .171 2.339 2.339 0 0 0 1.258-1.566L7.935 9.4l-.855 2.455v-5.8l2.281 6.371a2.692 2.692 0 0 0 3.427 1.658"/></svg>