<svg xmlns="http://www.w3.org/2000/svg" viewBox="0 0 24 24"><path fill="#44739e" d="M12.084 10.133a1.69 1.69 0 1 0 1.682 1.689 1.686 1.686 0 0 0-1.682-1.689m-7.16 0a1.69 1.69 0 1 0 1.682 1.689 1.686 1.686 0 0 0-1.682-1.689M12.044 1A11 11 0 1 0 23 12 10.978 10.978 0 0 0 12.044 1M6.663 15.187v-.911a2.211 2.211 0 0 1-1.76.87 3.328 3.328 0 0 1 0-6.657 3.409 3.409 0 0 1 3.423 3.317v3.369Zm5.464.052a3.409 3.409 0 0 1-3.425-3.317v-5.6h1.662v3.13a2.213 2.213 0 0 1 1.76-.87 3.329 3.329 0 0 1 0 6.657Zm7.128-.078a3.329 3.329 0 0 1 0-6.657 3.359 3.359 0 0 1 3.251 2.678l-1.668-.006a1.679 1.679 0 1 0 .007 1.351l1.667-.007a3.311 3.311 0 0 1-3.257 2.645Z"/></svg>