<svg xmlns="http://www.w3.org/2000/svg" viewBox="0 0 24 24"><path fill="#44739e" d="M2.911 18.944 1 22.126h.915l.285-.465h1.954l-.352-.614h-1.25l.746-1.381.129.011 1.353 2.449h.88l-1.777-3.182Zm2.866.946v1.301a.933.933 0 0 0 .938.935H9.33v-.612H6.818a.273.273 0 0 1-.275-.271v-1.402a.274.274 0 0 1 .272-.276h2.512v-.613H6.72a.939.939 0 0 0-.943.938m7.062 1.383a.279.279 0 0 1-.276.276h-1.65a.276.276 0 0 1-.273-.276V18.95h-.77v2.241a.932.932 0 0 0 .938.935h1.858a.939.939 0 0 0 .94-.935V18.95h-.77v2.323Zm1.522-3.96c3.783-.604 5.92-2.91 5.92-7.638s-2.138-7.04-5.92-7.642a14.4 14.4 0 0 0-2.251-.161 14.4 14.4 0 0 0-2.258.167c-3.78.603-5.919 2.91-5.919 7.641s2.139 7.04 5.919 7.639a14.3 14.3 0 0 0 2.258.164 14.25 14.25 0 0 0 2.251-.164Zm0-14.686c2.673.576 4.862 2.401 4.862 7.048 0 3.531-1.265 5.43-3.047 6.392L15.17 9.308l-.809-2.279-1.637-4.6a10 10 0 0 1 1.637.208Zm-2.566-.22h.617l.091 5.632h-.798l.09-5.633ZM4.984 9.68c0-4.646 2.189-6.471 4.862-7.047a10.07 10.07 0 0 1 1.637-.204L9.846 7.035l-.808 2.279-1.006 6.755c-1.782-.961-3.048-2.86-3.048-6.392Zm4.862 7.046a7.15 7.15 0 0 1-1.64-.56l1.64-3.404 1.777-3.686h.962l1.776 3.686 1.64 3.404a7.1 7.1 0 0 1-1.64.56 11.46 11.46 0 0 1-4.51 0Zm10.919 2.951 1.355 2.449H23l-1.776-3.182h-.974l-1.911 3.182h.917l.283-.465h1.957l-.353-.614H19.89l.746-1.381Zm-3.455-.727h-3.099v3.178h.77v-2.563h2.125a.23.23 0 0 1 .228.22v.449a.23.23 0 0 1-.228.22h-1.851l.166.611h1.681a.228.228 0 0 1 .227.22v.829h.715v-.765a.617.617 0 0 0-.392-.577.55.55 0 0 0 .44-.481v-.55a.788.788 0 0 0-.785-.784Z"/></svg>