<svg xmlns="http://www.w3.org/2000/svg" viewBox="0 0 24 24"><path fill="#44739e" d="M21.419 8.594H2.581a1.733 1.733 0 0 0-1.577 1.838v2.09a1.733 1.733 0 0 0 1.577 1.837h6.568a1.398 1.398 0 0 0 1.281 1.047h3.14a1.398 1.398 0 0 0 1.282-1.047h6.567a1.733 1.733 0 0 0 1.577-1.833v-2.089a1.733 1.733 0 0 0-1.577-1.843m1.04 3.931c0 .626-.398 1.302-1.04 1.302h-7.07v.265a.856.856 0 0 1-.779.777h-3.14a.856.856 0 0 1-.779-.777v-.264h-7.07c-.644 0-1.041-.676-1.041-1.302v-2.089c0-.626.397-1.301 1.041-1.301h18.838c.642 0 1.04.675 1.04 1.301Zm-1.04-.791H2.581c-.394 0-.792.362-.792 1.054v.11l.079.079a1.157 1.157 0 0 0 .713.34H21.53l.079-.079a1.157 1.157 0 0 0 .34-.713c0-.235 0-.791-.53-.791m-.123 1.047H2.581a.51.51 0 0 1-.25-.11c.027-.259.142-.398.25-.398l18.81-.027a1.03 1.03 0 0 1 .022.282.52.52 0 0 1-.117.253"/></svg>