<svg xmlns="http://www.w3.org/2000/svg" viewBox="0 0 24 24"><path fill="#44739e" d="M9.612 19.634c-.068-.11-.068-.122.047-.379a2.234 2.234 0 0 0-.079-1.964 2.64 2.64 0 0 1-.22-1.936c.162-.579.385-.811.588-.611.099.11.097.131-.101.673a2.18 2.18 0 0 0 .161 1.672 2.732 2.732 0 0 1 .065 2.391c-.11.204-.135.237-.255.25a.176.176 0 0 1-.208-.099Zm2.222.044c-.098-.099-.078-.2.053-.52a1.87 1.87 0 0 0 .13-.676 2.134 2.134 0 0 0-.269-1.209 2.453 2.453 0 0 1-.28-1.227c0-.598.234-1.302.448-1.357a.209.209 0 0 1 .286.181 1.54 1.54 0 0 1-.118.398 1.62 1.62 0 0 0-.117.799 1.44 1.44 0 0 0 .143.837 2.497 2.497 0 0 1 .382 1.335 2.18 2.18 0 0 1-.239 1.261c-.096.183-.137.22-.249.234a.209.209 0 0 1-.182-.051Zm2.184 0c-.075-.078-.052-.197.11-.624a1.74 1.74 0 0 0 .11-.665 2.215 2.215 0 0 0-.268-1.1 4.8 4.8 0 0 1-.234-.621 2.915 2.915 0 0 1 0-1.223 2.01 2.01 0 0 1 .33-.745.229.229 0 0 1 .312.078c.068.103.065.122-.07.46a2.12 2.12 0 0 0 .083 1.824 2.6 2.6 0 0 1 .317 1.301 2.11 2.11 0 0 1-.11.805c-.137.419-.246.572-.41.572a.235.235 0 0 1-.175-.065ZM1.127 13.332a.47.47 0 0 1-.11-.181q-.027-1.973-.011-3.947l.011-3.85.143-.286a1.413 1.413 0 0 1 .77-.722c.234-.086.286-.086 10.074-.086s9.841 0 10.075.086a1.43 1.43 0 0 1 .77.719l.14.286L23 9.204c0 2.117 0 3.896-.013 3.947a.46.46 0 0 1-.11.181c-.086.086-.189.086-10.876.086s-10.788-.015-10.874-.101Zm.952-1.649c.013-.99.021-1.051.116-1.248a.92.92 0 0 1 .313-.343l.202-.138h18.613l.2.138a.935.935 0 0 1 .301.345c.097.195.105.256.11 1.249l.016 1.039h.338V9.14c0-3.874 0-3.756-.226-3.967l-.104-.099-.026.299a.949.949 0 0 1-.564.88c-.141.059-1.152.067-9.359.067s-9.213.018-9.358-.039a.928.928 0 0 1-.557-.88l-.025-.296-.11.099c-.235.208-.229.095-.229 3.96v3.587h.338Zm8.718-2.28a.232.232 0 0 1-.033-.39c.082-.06.262-.071 1.237-.071 1.286 0 1.351.014 1.326.274-.023.226-.105.241-1.32.241a5.8 5.8 0 0 1-1.205-.051Zm8.319-.091a.22.22 0 0 1 .11-.33c.196-.103.406.22.245.38a.253.253 0 0 1-.359-.052Zm1.12.008a.22.22 0 0 1 .304-.313.227.227 0 1 1-.304.313m1.18 3.213v-.193H2.588v.385h18.828Zm0-.902v-.237H2.588v.473h18.828Zm0-.85a.44.44 0 0 0-.244-.33c-.067-.033-2.571-.049-9.171-.049s-9.098.016-9.169.049a.46.46 0 0 0-.244.33v.096h18.828Zm-.13-5.06c.117-.117.13-.148.13-.45v-.33H2.586v.33c0 .301.007.33.124.45l.13.127h18.311Z"/></svg>