<svg xmlns="http://www.w3.org/2000/svg" viewBox="0 0 24 24"><path fill="#44739e" d="M15.737 6.269c-.048-.023-.651.452-.698.428l-2.453 5.011a2.16 2.16 0 0 0-.583-.117 2.227 2.227 0 0 0-2.225 2.225 2.185 2.185 0 0 0 .991 1.804l-.977 2.136.751.345.99-2.155a2.1 2.1 0 0 0 .468.095 2.228 2.228 0 0 0 2.226-2.225 2.185 2.185 0 0 0-.901-1.74l2.454-5.015c-.044-.022.004-.768-.043-.792m-3.734 9.069a1.523 1.523 0 1 1 1.523-1.522 1.524 1.524 0 0 1-1.523 1.522m7.655-9.971-.925.817a9.708 9.708 0 0 1 .079 14.049 14.27 14.27 0 0 0-6.943-1.441 14.344 14.344 0 0 0-6.741 1.375 9.708 9.708 0 0 1 .22-14.05L4.423 5.3a10.965 10.965 0 0 0 .474 16.342l.018.019a15.12 15.12 0 0 1 6.954-1.642 15.086 15.086 0 0 1 7.117 1.729 10.979 10.979 0 0 0 .666-16.381Zm-7.655-1.886a9.727 9.727 0 0 1 6.289 2.302l.925-.816a10.947 10.947 0 0 0-14.353-.069l.926.817a9.73 9.73 0 0 1 6.213-2.234"/></svg>