<svg xmlns="http://www.w3.org/2000/svg" fill="#44739e" viewBox="0 0 24 24"><path d="M21.265 5.032h-3.31a.735.735 0 0 0-.735.735v8.657a2.06 2.06 0 0 0-.316.261 6.8 6.8 0 0 0-.719.918c-.085.132-.152.249-.212.353a1.273 1.273 0 0 1-.467.557 1.67 1.67 0 0 1-.576.173 2.13 2.13 0 0 1-.422.02v-6.358a.375.375 0 0 0-.375-.375H2.375a.375.375 0 0 0-.375.375v7.5a.375.375 0 0 0 .375.375h.657a.375.375 0 0 1 .375.375.374.374 0 0 0 .375.374H6a.374.374 0 0 0 .375-.374.375.375 0 0 1 .375-.375h3a.375.375 0 0 1 .375.375.374.374 0 0 0 .375.374h2.221a.374.374 0 0 0 .375-.374.374.374 0 0 1 .374-.375h.658a.371.371 0 0 0 .352-.263 2.5 2.5 0 0 0 .3.023 2.6 2.6 0 0 0 .392-.03 1.96 1.96 0 0 0 .686-.212 1.55 1.55 0 0 0 .588-.676c.058-.1.122-.213.2-.34a6.7 6.7 0 0 1 .569-.746v2.258a.735.735 0 0 0 .735.735h3.31a.735.735 0 0 0 .74-.739V5.767a.735.735 0 0 0-.735-.735M8.723 10.648a.375.375 0 0 1 .375-.375h4.722a.375.375 0 0 1 .375.375v6.3a.375.375 0 0 1-.375.375H9.1a.375.375 0 0 1-.375-.375Zm-3.205.525a2.326 2.326 0 1 1 0 4.647 2.326 2.326 0 1 1 0-4.647m8.682 6.746H2.313v-.3H14.2Zm2.9-2.291a6.8 6.8 0 0 0-.72.918c-.084.132-.152.249-.212.353a1.273 1.273 0 0 1-.467.557 1.67 1.67 0 0 1-.576.173 2.18 2.18 0 0 1-.615 0v-.6c.027 0 .053.006.08.006a2.6 2.6 0 0 0 .392-.03 1.96 1.96 0 0 0 .686-.212 1.54 1.54 0 0 0 .587-.676c.058-.1.123-.213.2-.34a6.67 6.67 0 0 1 .682-.869c.025-.026.054-.048.081-.073v.681c-.04.038-.083.073-.118.112m4.639-6.3a.645.645 0 0 1-.645.645h-2.949a.645.645 0 0 1-.645-.645v-3.4a.645.645 0 0 1 .645-.645h2.947a.645.645 0 0 1 .645.645zM3.981 13.366a3.06 3.06 0 0 0 .753.238.75.75 0 0 0 .073.235 3.23 3.23 0 0 0-.548.6.581.581 0 0 0 .212.816.635.635 0 0 0 .843-.233 3.16 3.16 0 0 0 .279-.789.77.77 0 0 0 .21-.058 3.02 3.02 0 0 0 .622.54.635.635 0 0 0 .843-.233.582.582 0 0 0-.211-.817 3.08 3.08 0 0 0-.766-.241.73.73 0 0 0-.05-.24 3.24 3.24 0 0 0 .538-.6.582.582 0 0 0-.211-.817.635.635 0 0 0-.843.233 3.03 3.03 0 0 0-.261.71.84.84 0 0 0-.282.078 2.92 2.92 0 0 0-.569-.481.636.636 0 0 0-.843.233.582.582 0 0 0 .211.826m1.145-.1a.463.463 0 0 1 .613-.169.423.423 0 0 1 .154.594.462.462 0 0 1-.613.169.423.423 0 0 1-.154-.592Zm4.591 3.454h3.328a.525.525 0 0 0 .525-.525v-.6a.524.524 0 0 0-.525-.524H9.717a.524.524 0 0 0-.525.524v.6a.525.525 0 0 0 .525.525m.312-1.35h2.7a.525.525 0 1 1 0 1.05h-2.7a.525.525 0 0 1 0-1.05m2.29-1.049h1.251v.3h-1.251zm-3.127 0h2.658v.3H9.192Zm0-.75h4.378v.3H9.192Zm0-.749h4.378v.3H9.192Zm0-.75h4.378v.3H9.192Zm0-.749h4.378v.3H9.192Z"/></svg>