<svg xmlns="http://www.w3.org/2000/svg" viewBox="0 0 24 24"><path fill="#44739e" d="M22.191 4.333H18.55a.808.808 0 0 0-.808.808v9.523a2.27 2.27 0 0 0-.348.287 7.5 7.5 0 0 0-.791 1.01c-.093.145-.167.274-.233.388a1.4 1.4 0 0 1-.513.613 1.84 1.84 0 0 1-.634.19 2.34 2.34 0 0 1-.464.022v-6.993a.412.412 0 0 0-.413-.413H1.412a.412.412 0 0 0-.412.413v8.25a.412.412 0 0 0 .412.412h.723a.412.412 0 0 1 .413.413.411.411 0 0 0 .412.411H5.4a.411.411 0 0 0 .412-.411.412.412 0 0 1 .413-.413h3.3a.412.412 0 0 1 .412.413.411.411 0 0 0 .413.411h2.443a.411.411 0 0 0 .413-.411.411.411 0 0 1 .411-.413h.724a.408.408 0 0 0 .387-.289 2.8 2.8 0 0 0 .33.025 2.86 2.86 0 0 0 .431-.033 2.16 2.16 0 0 0 .755-.233 1.705 1.705 0 0 0 .647-.744c.063-.11.134-.234.22-.374a7.4 7.4 0 0 1 .625-.82v2.483a.808.808 0 0 0 .809.809h3.641a.808.808 0 0 0 .814-.813V5.141a.808.808 0 0 0-.809-.808M8.395 10.511a.412.412 0 0 1 .413-.413h5.194a.412.412 0 0 1 .412.413v6.93a.412.412 0 0 1-.412.412H8.81a.412.412 0 0 1-.413-.412Zm-3.525.577a2.559 2.559 0 1 1 0 5.112 2.559 2.559 0 1 1 0-5.112m9.55 7.421H1.344v-.33H14.42Zm3.19-2.52a7.5 7.5 0 0 0-.792 1.009c-.092.146-.167.274-.233.389a1.4 1.4 0 0 1-.514.612 1.84 1.84 0 0 1-.634.191 2.4 2.4 0 0 1-.676 0v-.66c.03 0 .058.006.088.006a2.86 2.86 0 0 0 .431-.033 2.16 2.16 0 0 0 .755-.233 1.694 1.694 0 0 0 .645-.744c.064-.11.136-.234.22-.374a7.34 7.34 0 0 1 .751-.955c.027-.029.059-.053.089-.081v.749c-.044.042-.092.081-.13.124m5.103-6.93a.709.709 0 0 1-.71.709h-3.244a.709.709 0 0 1-.709-.709v-3.74a.709.709 0 0 1 .709-.71h3.242a.709.709 0 0 1 .71.71ZM3.179 13.5a3.37 3.37 0 0 0 .828.262.83.83 0 0 0 .081.259 3.55 3.55 0 0 0-.603.66.639.639 0 0 0 .233.897.698.698 0 0 0 .927-.256 3.48 3.48 0 0 0 .307-.868.85.85 0 0 0 .231-.064 3.32 3.32 0 0 0 .684.594.698.698 0 0 0 .928-.256.64.64 0 0 0-.232-.899 3.4 3.4 0 0 0-.843-.265.8.8 0 0 0-.055-.264 3.56 3.56 0 0 0 .592-.66.64.64 0 0 0-.232-.899.698.698 0 0 0-.928.257 3.33 3.33 0 0 0-.287.781.92.92 0 0 0-.31.086 3.2 3.2 0 0 0-.626-.53.7.7 0 0 0-.927.257.64.64 0 0 0 .232.908m1.26-.11a.509.509 0 0 1 .674-.186.465.465 0 0 1 .169.654.508.508 0 0 1-.674.186.465.465 0 0 1-.169-.651Zm5.05 3.8h3.66a.577.577 0 0 0 .578-.578v-.66a.576.576 0 0 0-.578-.576h-3.66a.576.576 0 0 0-.578.576v.66a.577.577 0 0 0 .578.578m.343-1.485h2.97a.577.577 0 1 1 0 1.155h-2.97a.577.577 0 0 1 0-1.155m2.519-1.154h1.376v.33h-1.376Zm-3.44 0h2.924v.33H8.911Zm0-.825h4.816v.33H8.911Zm0-.824h4.816v.33H8.911Zm0-.825h4.816v.33H8.911Zm0-.824h4.816v.33H8.911Z"/></svg>