<svg xmlns="http://www.w3.org/2000/svg" fill="#44739e" viewBox="0 0 24 24"><path d="M9.829 18.94c-.062-.1-.062-.111.042-.345A2.031 2.031 0 0 0 9.8 16.81a2.4 2.4 0 0 1-.2-1.76c.147-.527.35-.738.534-.556.09.1.088.119-.092.612a1.982 1.982 0 0 0 .147 1.52 2.484 2.484 0 0 1 .059 2.174c-.1.185-.123.215-.232.227a.16.16 0 0 1-.189-.09zm2.02.04c-.089-.09-.071-.182.048-.473a1.7 1.7 0 0 0 .118-.614 1.94 1.94 0 0 0-.244-1.1 2.23 2.23 0 0 1-.255-1.115c0-.544.213-1.184.407-1.234a.19.19 0 0 1 .26.165 1.4 1.4 0 0 1-.107.362 1.47 1.47 0 0 0-.106.726 1.31 1.31 0 0 0 .13.761 2.27 2.27 0 0 1 .347 1.214 1.984 1.984 0 0 1-.217 1.146c-.088.166-.125.2-.227.213a.19.19 0 0 1-.165-.047zm1.985 0c-.068-.071-.047-.179.1-.567a1.58 1.58 0 0 0 .1-.605 2.014 2.014 0 0 0-.243-1 4.4 4.4 0 0 1-.213-.565 2.65 2.65 0 0 1 0-1.111 1.83 1.83 0 0 1 .3-.678.208.208 0 0 1 .284.071c.061.094.059.111-.064.418a1.927 1.927 0 0 0 .075 1.659 2.365 2.365 0 0 1 .289 1.182 1.92 1.92 0 0 1-.1.732c-.125.381-.224.52-.373.52a.214.214 0 0 1-.159-.059ZM2.115 13.211a.43.43 0 0 1-.1-.165q-.025-1.794-.01-3.588l.01-3.5.13-.26a1.285 1.285 0 0 1 .7-.657c.213-.078.26-.078 9.158-.078s8.947 0 9.16.078a1.3 1.3 0 0 1 .7.654l.127.26.01 3.503c0 1.924 0 3.542-.012 3.588a.42.42 0 0 1-.1.165c-.078.078-.172.078-9.887.078s-9.808-.014-9.886-.092zm.865-1.5c.012-.9.019-.955.106-1.134a.836.836 0 0 1 .284-.312l.184-.125h16.921l.182.125a.85.85 0 0 1 .274.314c.088.177.095.232.1 1.135l.014.945h.308V9.4c0-3.522 0-3.415-.206-3.607l-.094-.09-.024.272a.863.863 0 0 1-.513.8c-.128.054-1.047.061-8.508.061S3.632 6.852 3.5 6.8a.844.844 0 0 1-.506-.8l-.023-.269-.1.09c-.213.189-.208.087-.208 3.6v3.261h.307Zm7.926-2.072a.211.211 0 0 1-.03-.355c.075-.054.238-.064 1.125-.064 1.169 0 1.228.012 1.205.249-.021.205-.095.219-1.2.219a5.28 5.28 0 0 1-1.095-.047Zm7.563-.083a.2.2 0 0 1 .1-.3c.178-.094.369.2.223.345a.23.23 0 0 1-.327-.047Zm1.018.007a.2.2 0 0 1 .277-.284.206.206 0 1 1-.277.284m1.073 2.921v-.175H3.443v.35H20.56Zm0-.82v-.215H3.443v.43H20.56Zm0-.773a.4.4 0 0 0-.222-.3c-.061-.03-2.337-.044-8.337-.044s-8.272.014-8.336.044a.418.418 0 0 0-.222.3v.088H20.56Zm-.118-4.6c.106-.106.118-.134.118-.409v-.3H3.441v.3c0 .274.007.3.113.409l.118.116h16.647z"/></svg>