<svg xmlns="http://www.w3.org/2000/svg" fill="#44739e" viewBox="0 0 24 24"><path d="M15.393 6.792c-.043-.021-.591.41-.634.389l-2.229 4.554a1.96 1.96 0 0 0-.53-.107 2.024 2.024 0 0 0-2.022 2.022 1.986 1.986 0 0 0 .9 1.64l-.888 1.941.683.314.9-1.959a1.9 1.9 0 0 0 .425.086 2.025 2.025 0 0 0 2.023-2.022 1.986 1.986 0 0 0-.819-1.581l2.23-4.558c-.04-.02.004-.698-.039-.719M12 15.034a1.384 1.384 0 1 1 1.384-1.384A1.385 1.385 0 0 1 12 15.034m6.957-9.062-.841.742a8.823 8.823 0 0 1 .072 12.768 12.97 12.97 0 0 0-6.31-1.309 13.036 13.036 0 0 0-6.126 1.249 8.823 8.823 0 0 1 .2-12.769l-.841-.742a9.965 9.965 0 0 0 .431 14.852l.016.017a13.74 13.74 0 0 1 6.32-1.492 13.71 13.71 0 0 1 6.468 1.571 9.978 9.978 0 0 0 .605-14.887ZM12 4.258a8.84 8.84 0 0 1 5.715 2.092l.841-.742a9.949 9.949 0 0 0-13.044-.062l.841.742A8.842 8.842 0 0 1 12 4.258"/></svg>