<svg xmlns="http://www.w3.org/2000/svg" viewBox="0 0 24 24"><path fill="#44739e" d="M10.435 7.504a.977.977 0 0 0-.909 1.033.978.978 0 0 0 .909 1.034.978.978 0 0 0 .907-1.034.977.977 0 0 0-.907-1.033m4.169 5.609-.57-.033a.33.33 0 0 1-.164-.055l-.288 6.754a1.65 1.65 0 0 0 .525.11l.754.025.291-6.132.622-.801.017-.66-.527.528a.813.813 0 0 1-.66.264m-9.738-.49L4.3 12.59a.33.33 0 0 1-.163-.056l-.291 6.698a2.8 2.8 0 0 0 .556.086l.723.036.287-6.062.624-.801.015-.66-.527.527a.812.812 0 0 1-.658.265m8.995.033a.156.156 0 0 0-.053.135l.059.088a.23.23 0 0 0 .056.057.2.2 0 0 0 .039.007l.462.028a.933.933 0 0 0 .799-.369h.006l.491-.471-1.234-.049Zm-9.65-.492a.165.165 0 0 0 .101.286l.462.027a.931.931 0 0 0 .799-.367l.384-.44-1.065-.066Zm6.001 7.134 3.282.141.277-6.485a.28.28 0 0 1-.052-.086.265.265 0 0 1 .074-.289l.55-.502-4.034-.142Zm4.771.205 3.769.161a5.41 5.41 0 0 0 2.171-.352l-.102-6.886a.375.375 0 0 0-.491-.352 3.55 3.55 0 0 1-1.218.171l-3.215-.11-.021.88-.623.802Zm-9.737-.535 4.862.325.073-5.391.026-1.973-4.049-.251-.021.844-.622.802ZM1.34 11.153l-.033-.014-.165 7.103a5.54 5.54 0 0 0 2.177.603l.44.03.283-6.611.014.021a.26.26 0 0 1 .088-.193l.597-.494-2.162-.133a3.72 3.72 0 0 1-1.239-.312m17.131 8.752-3.498-.201-.014.312-.856-.029a1.73 1.73 0 0 1-.594-.126l-.033-.014.01-.229-8.25-.476-.015.316-.826-.043a2.86 2.86 0 0 1-.618-.1l-.04-.01.011-.249-.631-.036a4.48 4.48 0 0 1-1.677-.435l1.015.976a2.08 2.08 0 0 0 1.306.575l14.155.911a2.926 2.926 0 0 0 2.005-.623l1.593-1.251a4.41 4.41 0 0 1-1.913.699 6.5 6.5 0 0 1-1.13.033M4.253 9.562a.44.44 0 0 0 .313.153l11.744.63a.455.455 0 0 0 .481-.42l.356-4.416-12.65-.607-.353 4.328a.447.447 0 0 0 .109.332m6.182.11a1.08 1.08 0 0 1-1.012-1.136 1.081 1.081 0 0 1 1.012-1.137 1.08 1.08 0 0 1 1.015 1.138 1.08 1.08 0 0 1-1.015 1.136Zm3.171-2.961a.085.085 0 0 1 .089-.082l1.461.068a.085.085 0 0 1 .08.089l-.028.639a.086.086 0 0 1-.089.081l-1.461-.067a.085.085 0 0 1-.081-.087Zm.051 2.491 1.152.053a.269.269 0 1 1-.025.537l-1.152-.053a.269.269 0 1 1 .025-.537M9.021 6.705l3.062.135a.246.246 0 0 1 .235.253.245.245 0 0 1-.256.237l-3.063-.134a.246.246 0 0 1 .022-.491m-2.897-.368a.085.085 0 0 1 .088-.085l1.43.066a.085.085 0 0 1 .08.088l-.029.641a.085.085 0 0 1-.088.081l-1.43-.066a.084.084 0 0 1-.081-.088Zm.063 2.491 1.168.053a.269.269 0 0 1-.024.538l-1.169-.054a.269.269 0 0 1 .025-.537m16.509-2.984v-.119h.007l-.007-.559-1.265.77a2.266 2.266 0 0 1-1.127.249l-3.094-.129-.314 3.884a.558.558 0 0 1-.558.516h-.03L4.561 9.818a.55.55 0 0 1-.519-.596l.304-3.707-2.136-.089a.45.45 0 0 1-.277-.11l-.066.394a.05.05 0 0 0 .008.02l-.018.131-.697 5.22L1 17.819a.96.96 0 0 0 .042.299l.165-7.115.063.015a.7.7 0 0 1 .11.04 3.56 3.56 0 0 0 1.203.296l3.568.22.008-.008v.009l4.103.254 5.302.186.404.013 3.148.11a3.42 3.42 0 0 0 1.182-.165.477.477 0 0 1 .625.448l.104 6.911a4.35 4.35 0 0 0 .518-.308l.629-.44.826-.794ZM2.059 4.681l17.99.864a3.57 3.57 0 0 0 1.952-.55l.7-.429.006-.435-1.282.646a2.266 2.266 0 0 1-1.124.246L2.21 4.272a.454.454 0 0 1-.258-.096v.396a.11.11 0 0 0 .107.109m.139-.519.142.007 17.965.746h.146a4.18 4.18 0 0 0 1.158-.403l1.038-.497c.049-.024.045-.043.044-.049-.019-.088-.31-.238-.527-.246l-16.18-.768a7.08 7.08 0 0 0-2.784.451l-1.122.423a.168.168 0 0 0-.11.188.22.22 0 0 0 .017.05.344.344 0 0 0 .213.098"/></svg>