<svg xmlns="http://www.w3.org/2000/svg" fill="#44739e" viewBox="0 0 24 24"><path d="M10.577 8.138a.888.888 0 0 0-.826.939.889.889 0 0 0 .826.94.889.889 0 0 0 .825-.94.888.888 0 0 0-.825-.939m3.79 5.099-.518-.03a.3.3 0 0 1-.149-.05l-.262 6.14a1.5 1.5 0 0 0 .477.1l.686.023.264-5.575.566-.728.015-.6-.479.48a.739.739 0 0 1-.6.24m-8.853-.445L5 12.762a.3.3 0 0 1-.148-.051L4.587 18.8a2.54 2.54 0 0 0 .506.078l.657.033.261-5.511.567-.728.014-.6-.479.479a.738.738 0 0 1-.599.241m8.178.03a.142.142 0 0 0-.048.122l.053.08a.21.21 0 0 0 .051.052.2.2 0 0 0 .036.007l.42.025a.848.848 0 0 0 .726-.335h.005l.447-.429-1.122-.044Zm-8.773-.448a.15.15 0 0 0 .092.26l.42.025a.846.846 0 0 0 .726-.334l.349-.4-.968-.06zm5.455 6.486 2.984.128.252-5.895a.25.25 0 0 1-.047-.079.241.241 0 0 1 .067-.262l.5-.457-3.667-.129zm4.338.186 3.426.147a4.92 4.92 0 0 0 1.974-.32l-.093-6.26a.341.341 0 0 0-.446-.32 3.23 3.23 0 0 1-1.108.155l-2.922-.1-.019.8-.567.729zM5.86 18.56l4.42.295.066-4.901.024-1.793-3.681-.228-.019.767-.566.729Zm-3.551-7.105-.03-.012-.15 6.457a5.035 5.035 0 0 0 1.979.548l.4.027.257-6.01.013.019a.237.237 0 0 1 .08-.175l.543-.449-1.966-.121a3.38 3.38 0 0 1-1.126-.284m15.574 7.957-3.18-.183-.013.284-.778-.027a1.57 1.57 0 0 1-.54-.114l-.03-.013.009-.208-7.5-.433-.014.287-.751-.039a2.6 2.6 0 0 1-.562-.091l-.036-.009.01-.226-.574-.033a4.07 4.07 0 0 1-1.524-.395l.923.887a1.89 1.89 0 0 0 1.187.523l12.868.828a2.66 2.66 0 0 0 1.823-.566l1.448-1.138a4.01 4.01 0 0 1-1.739.636 5.9 5.9 0 0 1-1.027.03M4.957 10.009a.4.4 0 0 0 .285.139l10.676.573a.414.414 0 0 0 .437-.382l.324-4.015-11.5-.551-.321 3.934a.406.406 0 0 0 .099.302m5.62.1a.982.982 0 0 1-.92-1.033.983.983 0 0 1 .92-1.033.982.982 0 0 1 .923 1.034.982.982 0 0 1-.923 1.033Zm2.883-2.692a.077.077 0 0 1 .081-.074l1.328.061a.077.077 0 0 1 .073.081l-.026.581a.078.078 0 0 1-.081.074l-1.328-.061A.077.077 0 0 1 13.434 8Zm.046 2.265 1.048.048a.2443.2443 0 1 1-.023.488l-1.047-.048a.2442.2442 0 1 1 .022-.488m-4.214-2.27 2.783.122a.224.224 0 0 1 .214.23.223.223 0 0 1-.233.216l-2.784-.122a.2232.2232 0 0 1 .02-.446m-2.634-.335A.077.077 0 0 1 6.738 7l1.3.06a.077.077 0 0 1 .073.08l-.027.583a.077.077 0 0 1-.08.073l-1.3-.06a.076.076 0 0 1-.073-.08Zm.057 2.265 1.062.048a.245.245 0 0 1-.022.489L6.693 9.83a.2442.2442 0 0 1 .022-.488m15.009-2.713v-.108h.006l-.006-.508-1.15.7a2.06 2.06 0 0 1-1.025.226l-2.813-.117-.285 3.531a.507.507 0 0 1-.507.469h-.028l-10.679-.58a.5.5 0 0 1-.472-.542l.277-3.37L3.1 6.249a.41.41 0 0 1-.252-.1l-.06.358a.045.045 0 0 0 .007.018l-.016.119-.634 4.746L2 17.515a.87.87 0 0 0 .038.272l.15-6.468.057.014a.66.66 0 0 1 .1.036 3.24 3.24 0 0 0 1.094.269l3.244.2.007-.007v.008l3.73.231 4.82.169.367.012 2.862.1a3.11 3.11 0 0 0 1.075-.15.434.434 0 0 1 .568.407l.094 6.283a3.95 3.95 0 0 0 .471-.28l.572-.4.751-.722ZM2.963 5.572l16.354.785a3.245 3.245 0 0 0 1.775-.5l.636-.39.006-.395-1.166.587a2.06 2.06 0 0 1-1.022.224L3.1 5.2a.413.413 0 0 1-.235-.087v.36a.1.1 0 0 0 .098.099m.126-.472.129.006 16.332.678h.133a3.8 3.8 0 0 0 1.052-.366l.944-.452c.045-.022.041-.039.04-.044-.017-.08-.282-.217-.479-.224L6.531 4A6.44 6.44 0 0 0 4 4.41l-1.02.384a.153.153 0 0 0-.1.171.2.2 0 0 0 .015.046.313.313 0 0 0 .194.089"/></svg>