<svg xmlns="http://www.w3.org/2000/svg" viewBox="0 0 24 24"><path fill="#44739e" d="m14.231 16.809-.175.096v.012h-.088a.092.092 0 0 0-.045-.062v-.027h-.176v.1a.1.1 0 0 0-.051-.013.1.1 0 0 0-.025.006l-.028-.006h-.013v-.151l-.061.153h-.008a.11.11 0 0 0-.061 0h-.019a.088.088 0 0 0-.175 0 .11.11 0 0 0-.081.045l-.019.028.012.075a.18.18 0 0 0-.015.075c0 .079.044.136.11.136a.066.066 0 0 0 .03 0h.073l.019.027a.118.118 0 0 0 .166.025.13.13 0 0 0 .035-.041l.006-.02h.131a.1.1 0 0 0 .051 0l.087.293v-.291h.054l.013.288.075-.291h.103a.11.11 0 0 0 .067-.025l.029-.024v-.31h-.021Zm2.759.211v-.18h-.058v-.077l-.198.046v.031H16.7a.19.19 0 0 0-.079 0h-.158a.22.22 0 0 0-.054-.01.2.2 0 0 0-.075.014.1.1 0 0 0-.101-.087h-.009v-.015h-.199v.087a.178.178 0 0 0-.103.043.165.165 0 0 0-.119-.043.25.25 0 0 0-.065.009l-.029-.007h-.027a.1.1 0 0 0-.037 0h-.191a.13.13 0 0 0-.042 0 .2.2 0 0 0-.061.011l-.043-.009h-.028a.1.1 0 0 0-.036 0h-.051a.102.102 0 0 0-.124-.074.101.101 0 0 0-.076.082.22.22 0 0 0-.069-.012.24.24 0 0 0-.11.027l-.06.035.032.081a.135.135 0 0 0-.028.084.139.139 0 0 0 .142.135h.345l-.008.024.056.033a.24.24 0 0 0 .11.028.198.198 0 0 0 .13-.041.15.15 0 0 0 .038-.044h.129v-.021a.143.143 0 0 0 .08.023.12.12 0 0 0 .039 0h.167a.15.15 0 0 0 .044.009.13.13 0 0 0 .042 0h.259v-.012a.21.21 0 0 0 .081.016.26.26 0 0 0 .058 0h.348a.15.15 0 0 0 .054.01.2.2 0 0 0 .062-.01l.057-.02-.015-.143Zm-.254-.73v.031h-.035a.16.16 0 0 0-.079 0h-.158a.19.19 0 0 0-.055-.011.2.2 0 0 0-.075.015.1.1 0 0 0-.101-.087h-.009v-.015h-.198v.087a.17.17 0 0 0-.103.043.167.167 0 0 0-.12-.044.22.22 0 0 0-.065.01l-.028-.007h-.028a.14.14 0 0 0-.037.005h-.191a.18.18 0 0 0-.041-.005.18.18 0 0 0-.061.012l-.044-.009h-.028a.14.14 0 0 0-.036.006h-.051a.099.099 0 0 0-.099-.077.101.101 0 0 0-.101.084.19.19 0 0 0-.069-.013.22.22 0 0 0-.11.029l-.06.034.032.081a.135.135 0 0 0-.028.084.139.139 0 0 0 .142.135h.005a.12.12 0 0 0 .04 0h.301l-.009.023.061.029a.24.24 0 0 0 .11.027.198.198 0 0 0 .13-.04.15.15 0 0 0 .037-.044h.13v-.019a.147.147 0 0 0 .079.023.12.12 0 0 0 .04 0h.167a.15.15 0 0 0 .045.009.13.13 0 0 0 .041 0h.258v-.012a.21.21 0 0 0 .082.016.26.26 0 0 0 .058 0h.347a.15.15 0 0 0 .054.01.2.2 0 0 0 .063-.01l.056-.019-.014-.143h.013v-.185h-.058v-.077Zm-1.997-.279a.135.135 0 0 0 .138.135.11.11 0 0 0 .038 0h.273l-.008.022.053.034a.22.22 0 0 0 .11.029.185.185 0 0 0 .125-.043.18.18 0 0 0 .033-.042h.119v-.012a.14.14 0 0 0 .067.016h.196a.2.2 0 0 0 .033.007.11.11 0 0 0 .039 0h.242v-.008a.21.21 0 0 0 .068.012.22.22 0 0 0 .046 0h.33a.13.13 0 0 0 .042.009.2.2 0 0 0 .061-.01l.054-.021-.011-.142h.01v-.191h-.053v-.078l-.194.049v.029h-.03a.19.19 0 0 0-.069 0h-.15a.14.14 0 0 0-.043-.01.15.15 0 0 0-.063.013.099.099 0 0 0-.097-.086v-.033h-.196v.088a.154.154 0 0 0-.088.04.154.154 0 0 0-.11-.041.22.22 0 0 0-.061.009h-.297a.15.15 0 0 0-.056.012l-.037-.009h-.1a.101.101 0 0 0-.098-.077.099.099 0 0 0-.098.083.17.17 0 0 0-.057-.01.22.22 0 0 0-.11.03l-.055.034.029.08a.143.143 0 0 0-.025.082m.119-.766a.138.138 0 0 0 .14.135h.006a.13.13 0 0 0 .041 0h.3l-.009.024.058.033a.23.23 0 0 0 .11.028.198.198 0 0 0 .129-.041.15.15 0 0 0 .038-.044h.128v-.017a.163.163 0 0 0 .12.017h.168a.15.15 0 0 0 .044.009.13.13 0 0 0 .041 0h.259v-.012a.21.21 0 0 0 .081.016.33.33 0 0 0 .059-.005h.347v-.006a.14.14 0 0 0 .053.01.2.2 0 0 0 .063-.008l.057-.021-.014-.143h.012v-.185h-.059v-.077l-.197.046v.031h-.035a.19.19 0 0 0-.078 0h-.158v.006a.17.17 0 0 0-.129 0 .102.102 0 0 0-.101-.086h-.009v-.016h-.2v.087a.17.17 0 0 0-.104.043.165.165 0 0 0-.118-.043.25.25 0 0 0-.065.009l-.029-.007h-.028a.1.1 0 0 0-.036 0h-.191a.13.13 0 0 0-.042 0 .18.18 0 0 0-.061.012l-.044-.01h-.028a.1.1 0 0 0-.035 0h-.051a.102.102 0 0 0-.124-.074.101.101 0 0 0-.076.082.22.22 0 0 0-.069-.012.23.23 0 0 0-.11.028l-.06.034.032.081a.132.132 0 0 0-.026.076m2.784 5.435-.723.039.042.156.437 1.623.694-.007-.412-1.655Zm-.861.205a.413.413 0 0 0-.297-.143l-1.22.058v.162l.005.377 1.98 1.158-.403-1.512a.5.5 0 0 0-.065-.1m-8.476.435a.161.161 0 0 0-.167-.133l-.77.041v.11l.033.043 1.175 1.495-.272-1.54Zm.844-.192-.723.04.024.161L8.709 23l.839-.009-.364-1.702ZM19.006 1.96 7.53 1.279q-.117-.006-.235-.006A3.836 3.836 0 0 0 3.467 5.11v14.37a1.705 1.705 0 0 0 1.711 1.705h.089l13.32-.715a2.902 2.902 0 0 0 2.75-2.897V4.429a2.475 2.475 0 0 0-2.331-2.469M6.738 4.805a.563.563 0 1 1 .614-.537.576.576 0 0 1-.613.537ZM16.3 4.08a.564.564 0 1 1-.615.538.579.579 0 0 1 .615-.538m-1.373-.057a.563.563 0 1 1-.615.538.58.58 0 0 1 .615-.538m-6.82.84a.564.564 0 1 1 .615-.538.579.579 0 0 1-.612.538Zm1.342.056a.563.563 0 1 1 .615-.538.579.579 0 0 1-.612.538Zm1.364.057a.563.563 0 1 1 .615-.537.578.578 0 0 1-.612.537Zm1.372.058a.563.563 0 1 1 .615-.537.576.576 0 0 1-.612.537Zm.775-.531a.593.593 0 1 1 .598.588h-.03a.578.578 0 0 1-.564-.588Zm1.54 13.14-1.361.058v-2.052h.416l-.028.135h-.008a.084.084 0 0 0-.167 0 .11.11 0 0 0-.061.049l-.011.022.009.074a.21.21 0 0 0-.011.073.154.154 0 0 0 .032.11v.047l.017-.03.015.007a.1.1 0 0 0 .056 0h.03l.012.022a.1.1 0 0 0 .101.057l.019.091h-.039l-.025-.006h-.005a.088.088 0 0 0-.087-.073.09.09 0 0 0-.088.073.122.122 0 0 0-.094.044l-.025.03.014.075a.16.16 0 0 0-.016.077.131.131 0 0 0 .074.129h.008a.08.08 0 0 0 .031 0 .14.14 0 0 0 .031 0h.1v.012l.024.029a.132.132 0 0 0 .098.044.124.124 0 0 0 .11-.061l.01-.024h.039a.117.117 0 0 0 .062 0h.064a.08.08 0 0 0 .031 0 .14.14 0 0 0 .03 0h.159a.08.08 0 0 0 .022 0h.207a.11.11 0 0 0 .065-.02l.034-.025v-.32h-.03v-.102l-.178.083v.019h-.11a.08.08 0 0 0-.022 0 .092.092 0 0 0-.052-.064v-.022h-.085l.016-.088h.028a.1.1 0 0 0 .025 0h.046l.045-.049v-.304h-.02l-.011-.126-.158.119-.011.007h-.009a.09.09 0 0 0-.04-.065v-.026h-.009v-.048h.696Zm-.87-2.153v-.06a.1.1 0 0 0 .031-.03l.01-.024h.04a.08.08 0 0 0 .03 0h.049l-.021.11Zm.11.159-.009.047h-.058v.088h-.033v-.136Zm-.11.506v-.009a.1.1 0 0 0 .044 0h.05l.038.17a.11.11 0 0 0-.032.008l-.028-.008a.09.09 0 0 0-.029.006h-.041Zm.88-.66h-.7v-.11h.05a.08.08 0 0 0 .031 0h.388a.11.11 0 0 0 .064-.02l.035-.024v-.314h-.028v-.102l-.179.083v.015a.055.055 0 0 0-.026 0h-.096a.096.096 0 0 0-.051-.065v-.022h-.18v.097l-.011.007a.12.12 0 0 0-.06-.017.15.15 0 0 0-.032.006l-.029-.006h-.104a.117.117 0 0 0-.062 0h-.036a.091.091 0 0 0-.088-.073.09.09 0 0 0-.087.073.132.132 0 0 0-.095.044l-.025.029.016.076a.17.17 0 0 0-.017.077.131.131 0 0 0 .075.129h.037a.08.08 0 0 0 .031 0h.097v.012l.024.029a.13.13 0 0 0 .097.044.14.14 0 0 0 .047-.012l-.009.041h-.451v-.64h1.384Zm2.86 2.03-2.718.116.016-1.988h2.698Zm0-2.03h-2.699l.005-.641h2.696Zm.22-10.23a.563.563 0 1 1 .615-.538.578.578 0 0 1-.605.534Zm1.381.058a.563.563 0 1 1 .615-.538.579.579 0 0 1-.605.535ZM3.15 5.11A4.159 4.159 0 0 1 6.685 1a4.09 4.09 0 0 0-4.022 3.81l.072 13.506a2.75 2.75 0 0 0 .447 1.516 2.1 2.1 0 0 1-.032-.353Z"/></svg>