<svg xmlns="http://www.w3.org/2000/svg" viewBox="0 0 24 24"><path fill="#44739e" d="M9.427 16.924a10.12 10.12 0 0 0 12.448.085A10.1 10.1 0 0 0 23 16.052V3.7A2.703 2.703 0 0 0 20.299 1H3.7A2.703 2.703 0 0 0 1 3.7v16.599A2.703 2.703 0 0 0 3.7 23h16.599A2.703 2.703 0 0 0 23 20.299v-1.854a11.91 11.91 0 0 1-4.09 2.118 10.679 10.679 0 0 1-11.53-3.716 8.073 8.073 0 0 1 .714-10.485 7.672 7.672 0 0 0-1.491 4.99 7.854 7.854 0 0 0 2.824 5.572m-5.122-3.748a9.35 9.35 0 0 0 4.006 7.085 10.755 10.755 0 0 0 7.108 1.831 10.164 10.164 0 0 1-4.68.171 10.45 10.45 0 0 1-5.246-2.802A10.509 10.509 0 0 1 3.017 9.14a9.805 9.805 0 0 1 8.568-7.077 7.399 7.399 0 0 1 7.744 5.72 7.04 7.04 0 0 0-3.119-3.617 7.227 7.227 0 0 0-5.696-.567 9.313 9.313 0 0 0-6.209 9.577"/></svg>