<svg xmlns="http://www.w3.org/2000/svg" viewBox="0 0 24 24"><path fill="#44739e" d="M23 10.857v-.303h-.566v-.523l-.385.125v.403h-.337v.302h.337v1.189a.807.807 0 0 0 .152.565.55.55 0 0 0 .427.174.99.99 0 0 0 .35-.061l-.016-.299a.75.75 0 0 1-.23.027c-.22 0-.298-.152-.298-.424v-1.175Zm-2.217-.359a.798.798 0 0 0-.722.41h-.009l-.021-.358h-.351c.013.181.018.367.018.592v1.591h.398v-1.306a.6.6 0 0 1 .025-.185.568.568 0 0 1 .532-.407c.377 0 .506.293.506.644v1.254h.397v-1.306c-.004-.748-.47-.929-.773-.929m-2.247.008a1.06 1.06 0 0 0-1.025 1.175 1.016 1.016 0 0 0 1.072 1.1 1.73 1.73 0 0 0 .726-.139l-.07-.284a1.41 1.41 0 0 1-.604.11.697.697 0 0 1-.747-.752h1.539a1.5 1.5 0 0 0 .014-.186.926.926 0 0 0-.905-1.024m-.645.926a.66.66 0 0 1 .609-.645.564.564 0 0 1 .55.645Zm-1.054-.882h.398v2.183h-.398Zm.199-.861a.241.241 0 0 0-.247.246.244.244 0 1 0 .247-.246m-.634-.155h-.396v1.301h-.007a.727.727 0 0 0-.66-.33 1.042 1.042 0 0 0-.976 1.172.99.99 0 0 0 .94 1.103.81.81 0 0 0 .743-.428h.009l.016.381h.356c-.014-.148-.018-.369-.018-.562Zm-.398 2.286a.77.77 0 0 1-.016.173.592.592 0 0 1-.58.471c-.427 0-.644-.367-.644-.808 0-.484.242-.843.653-.843a.587.587 0 0 1 .571.458.83.83 0 0 1 .016.169Zm-1.894.389v-.817c0-.44-.164-.89-.831-.89a1.364 1.364 0 0 0-.716.194l.09.26a1.08 1.08 0 0 1 .566-.164.449.449 0 0 1 .497.506v.04c-.842 0-1.31.285-1.31.813a.621.621 0 0 0 .667.627.804.804 0 0 0 .665-.325h.013l.03.277h.358a3.3 3.3 0 0 1-.034-.523Zm-.385-.203a.42.42 0 0 1-.022.125.55.55 0 0 1-.527.363.354.354 0 0 1-.376-.38c0-.424.493-.501.925-.493Zm-2.381.727h.394v-1.159a1.2 1.2 0 0 1 .017-.186.55.55 0 0 1 .532-.51.6.6 0 0 1 .134.013v-.376a.44.44 0 0 0-.11-.013.66.66 0 0 0-.606.48h-.017l-.013-.428h-.345c.012.198.016.424.016.679Zm-2.419-1.077a.975.975 0 0 0 .929 1.063.776.776 0 0 0 .696-.362v.241c0 .55-.298.76-.705.76a1.217 1.217 0 0 1-.638-.172l-.101.302a1.42 1.42 0 0 0 .727.183 1.16 1.16 0 0 0 .795-.26 1.246 1.246 0 0 0 .311-.99V11.15c0-.268.009-.44.018-.6h-.346l-.018.33h-.008a.716.716 0 0 0-.679-.38 1.048 1.048 0 0 0-.981 1.156m1.605-.428a.58.58 0 0 1 .022.182v.389a.74.74 0 0 1-.029.211.579.579 0 0 1-.55.407c-.428 0-.643-.355-.643-.783 0-.506.267-.826.647-.826a.573.573 0 0 1 .553.42m-2.303 1.505v-1.12a.8.8 0 0 1 .013-.151.44.44 0 0 1 .465-.344.7.7 0 0 1 .186.021v-.647a.7.7 0 0 0-.143-.009.647.647 0 0 0-.596.453h-.015l-.022-.406h-.592c.009.19.017.403.017.726v1.479Zm-1.694-2.205h.683v2.205h-.683Zm.337-.956a.344.344 0 1 0 0 .688.344.344 0 1 0 0-.688m-2.64 2.536a.676.676 0 0 0 .712.674.787.787 0 0 0 .631-.273h.014l.038.22h.618a3.6 3.6 0 0 1-.03-.536v-.761a.855.855 0 0 0-.968-.95 1.79 1.79 0 0 0-.856.194l.125.44a1.254 1.254 0 0 1 .61-.168c.337 0 .402.168.402.286v.03c-.779-.002-1.296.276-1.296.844m1.319-.416v.238a.5.5 0 0 1-.012.118.372.372 0 0 1-.355.25.244.244 0 0 1-.272-.259c-.002-.261.276-.349.637-.344Zm5.685 2.945a5.379 5.379 0 0 1-6.597-.069 4.157 4.157 0 0 1-1.487-2.96 4.07 4.07 0 0 1 .799-2.639 4.288 4.288 0 0 0-.402 5.558 5.655 5.655 0 0 0 6.106 1.993 6.181 6.181 0 0 0 3.929-3.359h-.972a5.39 5.39 0 0 1-1.376 1.476m2.784-4.597a5.795 5.795 0 0 0-1.876-3.587 6.295 6.295 0 0 1 1.31 3.591Zm-9.97 6.336a5.046 5.046 0 0 1 1.188-8.869 3.835 3.835 0 0 1 3.035.307A3.75 3.75 0 0 1 9.92 9.742 3.94 3.94 0 0 0 5.807 6.69a5.208 5.208 0 0 0-4.564 3.76 5.593 5.593 0 0 0 1.31 5.498 5.537 5.537 0 0 0 2.792 1.495 5.39 5.39 0 0 0 2.489-.091 5.71 5.71 0 0 1-3.786-.976"/></svg>