<svg xmlns="http://www.w3.org/2000/svg" fill="#44739e" viewBox="0 0 24 24"><path d="M21.976 14.224V9.873a3.61 3.61 0 0 0-.41-1.649 5.29 5.29 0 0 0-1.32-1.328 4.2 4.2 0 0 1-.592-.32c-1.549-.824-5.193-2.794-6.332-3.2a4.43 4.43 0 0 0-1.321-.229h-.045a4.7 4.7 0 0 0-1.322.229c-1.138.411-4.782 2.381-6.331 3.2a2.52 2.52 0 0 1-.638.32 3.73 3.73 0 0 0-1.323 1.282 4.39 4.39 0 0 0-.366 1.646v4.349a3.14 3.14 0 0 0 .41 1.649 5.31 5.31 0 0 0 1.322 1.328c.046.045.273.137.592.32 1.549.824 5.148 2.794 6.331 3.2a4.44 4.44 0 0 0 1.322.229h.045a4.7 4.7 0 0 0 1.321-.229c1.139-.411 4.783-2.381 6.332-3.2a2.52 2.52 0 0 1 .638-.32 3.726 3.726 0 0 0 1.32-1.282 3.56 3.56 0 0 0 .367-1.644m-.683 0a2.58 2.58 0 0 1-.317 1.234 4.32 4.32 0 0 1-1.048 1.053c-.046 0-.091.046-.228.091a61.5 61.5 0 0 1-6.651 3.389 3.04 3.04 0 0 1-1.092.182h-.046a3.06 3.06 0 0 1-1.094-.182 73.3 73.3 0 0 1-6.649-3.389l-.183-.091a3.3 3.3 0 0 1-1.093-1.053 2.574 2.574 0 0 1-.322-1.234V9.873a2.574 2.574 0 0 1 .319-1.237 4.32 4.32 0 0 1 1.048-1.053c.045 0 .091-.046.182-.092a73.4 73.4 0 0 1 6.65-3.387 3.04 3.04 0 0 1 1.094-.18h.136a3.03 3.03 0 0 1 1.093.184 73.4 73.4 0 0 1 6.651 3.387l.182.092a3.92 3.92 0 0 1 1.094 1.053 2.815 2.815 0 0 1 .317 1.237zM11.452 7.95l-6.514 7 2.779-.5s3.006-3.113 3.644-3.8a.776.776 0 0 1 .593-.275.718.718 0 0 1 .592.275c.637.642 3.643 3.8 3.643 3.8l2.779.5-6.513-7a.713.713 0 0 0-1.003 0m6.515.869a1.094 1.099 0 0 1-1.094 1.099 1.094 1.099 0 0 1-1.094-1.099 1.094 1.099 0 0 1 1.094-1.099 1.094 1.099 0 0 1 1.094 1.099"/></svg>