<svg xmlns="http://www.w3.org/2000/svg" fill="#44739e" viewBox="0 0 24 24"><path d="m8.3467 5.9734-.036-.35.626-.33.26.23.485-.254-1.53-1.321-.5.259.2 2.021zm-.171-1.379.462.429-.38.2-.087-.628zm3.111.383-.057-.72.54.682.636-.051-.679-.719a.508.508 0 0 0 .388-.563c-.031-.4-.34-.553-.728-.522l-.765.061.149 1.872zm-.066-1.5c.166-.013.357 0 .373.2s-.17.249-.336.261h-.05l-.037-.466zm5.632 3.321.149.14 1.086-.462.004.003-.557.98.367.357.997-1.672-.371-.349-.997.44.397-1.005-.367-.346-1.604 1.09.375.346.93-.623.003.004zm-2.706-1.475c.023.008.047.015.071.021a1.025 1.025 0 0 0 1.33-.577c.01-.025.019-.05.027-.076a1.1 1.1 0 0 0-2.073-.668 1.026 1.026 0 0 0 .645 1.3m-.141-1.134a.561.561 0 0 1 1.061.342v.015a.551.551 0 0 1-.7.347h-.01a.551.551 0 0 1-.343-.7zm4.985 4.943.299-.124.221.534.382-.159-.221-.534.289-.12.234.563.382-.159-.43-1.036-1.735.72.429 1.036.383-.158zm-15.908 3.061 1.869.78.007-.544-.322-.139.009-.706.327-.123.007-.548-1.888.72zm.584-.27.6-.2v.427zm2.968-5.562-.306-.279-.379.416-.232-.212.418-.458-.306-.279-.764.837 1.387 1.266.346-.378-.544-.498zm5.412-1.178a6.84 6.84 0 1 0 6.84 6.84 6.84 6.84 0 0 0-6.84-6.84m-2.09.51a6.64 6.64 0 0 1 2.006-.332v5.487h-2.006Zm-2.022 1.082v4.069h-2.453a6.65 6.65 0 0 1 2.453-4.069m0 10.5a6.662 6.662 0 0 1-2.506-4.409h2.51zm2.022 1.081v-5.491h2.008v5.825a6.67 6.67 0 0 1-2.008-.334m2.17.333V5.3574a6.666 6.666 0 0 1 0 13.332m-.08-16.166a9.5 9.5 0 1 0 9.5 9.5 9.5 9.5 0 0 0-9.5-9.5m0 18.81a9.31 9.31 0 1 1 9.31-9.31 9.31 9.31 0 0 1-9.31 9.31m3.662-13.931a.2.2 0 1 0-.2-.2.2.2 0 0 0 .2.2m5.389 4.321a1.0052 1.0052 0 0 0-2.008-.1 1 1 0 0 0 .006.172 1.0052 1.0052 0 0 0 2.008.1 1.1 1.1 0 0 0-.006-.172m-.949.589h-.018a.55.55 0 0 1-.562-.538v-.016a.552.552 0 0 1 .541-.561.561.561 0 0 1 .038 1.114zm-4.718-3.789c-.185 0-.354.134-.438.4h-1.011a.656.656 0 0 0 .64.57h.977a.19.19 0 0 1 .2.177v.013a.2.2 0 0 1-.2.2h-.977a.583.583 0 0 0-.64.506h2.1a.255.255 0 0 1 .262.247v.006a.269.269 0 0 1-.262.27h-1.925a1.382 1.382 0 0 0 .024 2.763h1.974a.218.218 0 0 1 .214.218c0 .118-.095.181-.214.181h-1.923a.9.9 0 0 0-.917.882v.014a.918.918 0 0 0 .917.917h1.566a.19.19 0 0 1 .19.189.19.19 0 0 1-.19.19h-.973a.516.516 0 0 0-.5.517.487.487 0 0 0 .489.484h.582c.223 0 .24.152.235.257.535-.2.258-.57.009-.57h-.713a.155.155 0 0 1 0-.31h.927a.653.653 0 1 0 0-1.3h-1.533a.2025.2025 0 0 1 0-.405h2.026a1.2 1.2 0 0 0 1.215-1.184v-.017a1.235 1.235 0 0 0-1.215-1.233h-2.125a.215.215 0 0 1 0-.429h2.252a1.858 1.858 0 0 0 1.748-1.838 2.44 2.44 0 0 0-1.161-2.054.556.556 0 0 1-.556.337zm-1.431-1.012h2.424v.194h-2.424zm-1.153 3.22-.011.011a.2.2 0 0 0 .25.3.18.18 0 0 0 .035-.038l.555-.38a1.027 1.027 0 0 1 .475-.933 1.022 1.022 0 0 1-.475-.928l-.555-.38a.2.2 0 0 0-.278.279l.358.248c.177.117.144.311.118.475s-.19.084-.244.025a.418.418 0 0 0-.712.295.409.409 0 0 0 .41.408h.007a.416.416 0 0 0 .295-.121c.05-.059.219-.135.244.024s.063.344-.114.462zm1.153-2.816h2.424v.253h-2.424zm-8.864 1.211-1.353-.563-.197.474 1.735.721.433-1.041-.382-.159z"/></svg>