<svg xmlns="http://www.w3.org/2000/svg" fill="#44739e" viewBox="0 0 24 24"><path d="M11.118 16.254a21.72 21.72 0 0 1-6.77-1.135 8.8 8.8 0 0 1-1.062-.5C2.438 14.12 2 13.566 2 12.981a1.23 1.23 0 0 1 .047-.354 4.73 4.73 0 0 1 .341-.915 6.326 6.326 0 0 1 3.371-2.907 14.98 14.98 0 0 1 4.929-1.032c.469-.028.643-.032 1.338-.032s.84 0 1.331.032a13.264 13.264 0 0 1 6.014 1.566c.183.109.451.289.61.407a5.136 5.136 0 0 1 1.949 2.735 1.22 1.22 0 0 1 .07.457.98.98 0 0 1-.054.391q-.291.9-2 1.63a19.9 19.9 0 0 1-5.893 1.218c-.352.027-.734.049-1.231.07-.256.01-1.426.017-1.708.006zm1.535-.177c.527-.016 1.055-.045 1.581-.089a16.17 16.17 0 0 0 5.735-1.346c.859-.442 1.363-.953 1.479-1.5a1.1 1.1 0 0 0 .014-.223.88.88 0 0 0-.056-.37c-.254-.765-1.3-1.452-2.987-1.953-.257-.076-.515-.146-.774-.213-.471-.106-.947-.2-1.424-.272A28.18 28.18 0 0 0 8.668 10a18.3 18.3 0 0 0-3.4.724c-1.946.626-2.941 1.5-2.762 2.435.1.536.6 1.04 1.451 1.48a12.05 12.05 0 0 0 2.9.956 24.75 24.75 0 0 0 4.328.478c.141 0 .284.011.315.011.11.007.959 0 1.159-.011m-1.559-.365a23.58 23.58 0 0 1-4.877-.621 8.42 8.42 0 0 1-2.578-1.023 1.607 1.607 0 0 1-.812-1.024c-.055-.413.262-.857.9-1.26a14.64 14.64 0 0 1 6.155-1.523c.765-.056 1.468-.077 2.307-.07.674.006 1.093.02 1.674.059 2.942.2 5.392.83 6.556 1.7a1.29 1.29 0 0 1 .664 1.084 1.14 1.14 0 0 1-.358.666 3.52 3.52 0 0 1-.994.681 15.14 15.14 0 0 1-4.965 1.208c-.544.055-1.026.088-1.742.121-.232.009-1.663.013-1.931.007m1.074-.95a.69.69 0 0 0 .287-.158.639.639 0 0 0-.09-1.007.615.615 0 0 0-.358-.105.647.647 0 0 0-.647.56.61.61 0 0 0 .061.363.657.657 0 0 0 .483.359.95.95 0 0 0 .264-.014zm.285-2.562a11.5 11.5 0 0 0 3.342-.754c.278-.111.306-.126.336-.192a.2.2 0 0 0 0-.14.188.188 0 0 0-.111-.094c-.068-.018-1.128-.111-1.829-.162a22.3 22.3 0 0 0-3.281-.054c-.782.051-1.717.137-2.758.254-.439.05-.584.068-.611.079a.173.173 0 0 0-.093.11.146.146 0 0 0 .014.127c.03.065.073.084.43.2a14.13 14.13 0 0 0 3.45.643q.555.012 1.112-.011z"/></svg>