<svg xmlns="http://www.w3.org/2000/svg" viewBox="0 0 24 24"><path fill="#44739e" d="M11.029 16.679a23.89 23.89 0 0 1-7.446-1.248 9.7 9.7 0 0 1-1.168-.55C1.482 14.332 1 13.723 1 13.079a1.35 1.35 0 0 1 .052-.389 5.2 5.2 0 0 1 .375-1.007 6.958 6.958 0 0 1 3.708-3.197 16.48 16.48 0 0 1 5.421-1.135c.516-.031.707-.035 1.472-.035s.923 0 1.463.035a14.59 14.59 0 0 1 6.615 1.722c.201.12.496.318.671.448a5.65 5.65 0 0 1 2.144 3.008 1.34 1.34 0 0 1 .077.503 1.08 1.08 0 0 1-.06.43q-.32.99-2.199 1.793a21.89 21.89 0 0 1-6.482 1.339c-.387.03-.807.054-1.354.077-.282.011-1.568.019-1.879.007Zm1.688-.195c.58-.017 1.16-.049 1.739-.097a17.79 17.79 0 0 0 6.308-1.481c.945-.486 1.499-1.048 1.627-1.65a1.2 1.2 0 0 0 .015-.245.97.97 0 0 0-.062-.407c-.279-.841-1.429-1.597-3.285-2.148-.283-.084-.566-.161-.851-.234-.518-.117-1.042-.22-1.567-.299A31 31 0 0 0 8.334 9.8a20.13 20.13 0 0 0-3.739.797c-2.141.688-3.235 1.65-3.038 2.678.11.59.66 1.144 1.596 1.628a13.25 13.25 0 0 0 3.189 1.051 27.2 27.2 0 0 0 4.761.526c.155 0 .312.012.346.012.121.008 1.055 0 1.275-.012m-1.715-.401a25.94 25.94 0 0 1-5.364-.683 9.26 9.26 0 0 1-2.836-1.126 1.768 1.768 0 0 1-.893-1.126c-.06-.454.288-.942.99-1.386a16.1 16.1 0 0 1 6.77-1.675c.841-.061 1.615-.085 2.537-.077.742.007 1.203.022 1.842.065 3.235.22 5.93.913 7.21 1.87a1.419 1.419 0 0 1 .731 1.192 1.254 1.254 0 0 1-.394.733 3.87 3.87 0 0 1-1.093.749 16.65 16.65 0 0 1-5.461 1.328c-.599.061-1.129.097-1.916.133-.255.01-1.829.015-2.124.008m1.181-1.045a.76.76 0 0 0 .316-.174.703.703 0 0 0-.099-1.107.676.676 0 0 0-.394-.116.712.712 0 0 0-.712.616.67.67 0 0 0 .068.4.723.723 0 0 0 .531.394 1.05 1.05 0 0 0 .29-.015Zm.314-2.818a12.65 12.65 0 0 0 3.675-.829c.306-.122.337-.139.37-.211a.22.22 0 0 0 0-.154.207.207 0 0 0-.122-.104c-.075-.019-1.241-.122-2.012-.178a24.5 24.5 0 0 0-3.608-.059c-.861.056-1.889.151-3.034.279-.483.055-.642.075-.672.087a.19.19 0 0 0-.102.121.161.161 0 0 0 .015.14c.033.071.08.092.473.22a15.54 15.54 0 0 0 3.795.707q.61.013 1.223-.012Z"/></svg>