<svg xmlns="http://www.w3.org/2000/svg" viewBox="0 0 24 24"><path fill="#44739e" d="M21.171 11.557V9.765h-.903v1.792h-1.825v.891h1.825v1.792h.903v-1.792H23v-.891Zm-4.845-1.233a1.448 1.448 0 0 1 1.185.646l.065.091h1.065l-.161-.318a2.442 2.442 0 0 0-2.154-1.362 2.548 2.548 0 0 0-2.456 2.617 2.548 2.548 0 0 0 2.462 2.62 2.44 2.44 0 0 0 2.155-1.367l.159-.319h-1.065l-.064.09a1.448 1.448 0 0 1-1.185.647 1.598 1.598 0 0 1-1.504-1.676 1.747 1.747 0 0 1 .495-1.237 1.42 1.42 0 0 1 1.003-.432m3.933 6.457H1.916V7.219h18.343V8.82h.916V6.312H1v11.376h20.175v-2.504h-.916ZM6.61 11.403c-.307.012-.66.012-.706.012a3.18 3.18 0 0 0-2.066.63 1.507 1.507 0 0 0-.488 1.148 1.284 1.284 0 0 0 .592 1.14 2.19 2.19 0 0 0 1.179.294 3.84 3.84 0 0 0 1.36-.254 3.3 3.3 0 0 0 .402-.205l.006.341h.946v-2.782c0-.182-.007-.432-.016-.55-.041-.677-.387-1.813-2.253-1.813a1.98 1.98 0 0 0-2.067 1.441l-.101.422h.973l.073-.247c.032-.11.239-.67 1.126-.67s1.259.268 1.301.927c0 .047 0 .098.006.154h-.263Zm-2.115 1.331a2.363 2.363 0 0 1 1.404-.378h.087l.904-.014c0 .188 0 .393-.007.606v.02a2.45 2.45 0 0 1-.77.532 2.373 2.373 0 0 1-1.65.038.366.366 0 0 1-.163-.345.567.567 0 0 1 .195-.459m9.144 1.784V9.486h-1.022l-1.673 3.615-1.678-3.615H8.249v5.032h.949v-2.912l1.349 2.912h.786l1.348-2.912v2.912Z"/></svg>