<svg xmlns="http://www.w3.org/2000/svg" fill="#44739e" viewBox="0 0 24 24"><path d="M11.218 2.275A3.49 3.49 0 0 0 8.9 4.179a4.07 4.07 0 0 0-.158 2.449c.209.638 5.036 8.945 5.423 9.332a3.512 3.512 0 0 0 2.744 1A3.087 3.087 0 0 0 19 15.959a2.9 2.9 0 0 0 1-2.424 2.356 2.356 0 0 0-.318-1.449c-.6-1.238-4.8-8.389-5.164-8.8a3.559 3.559 0 0 0-3.3-1.011m-3.1 15.2v.287h2.247l-.692.672-.692.672.13.209c.072.115.134.212.137.216a1.5 1.5 0 0 0 .208-.035 1.25 1.25 0 0 1 .694.058.967.967 0 0 1 .443.446.994.994 0 0 1-.014.786 1.1 1.1 0 0 1-1.679.244 1.14 1.14 0 0 1-.3-.572l-.033-.158-.263.059a1.46 1.46 0 0 0-.291.086c-.047.045.04.387.156.608a1.53 1.53 0 0 0 .65.621 2.018 2.018 0 0 0 1.686-.014 1.82 1.82 0 0 0 .589-.559 1.506 1.506 0 0 0 .035-1.39 1.525 1.525 0 0 0-.61-.566 1.42 1.42 0 0 0-.651-.132c-.081.018.066-.135.91-.947l.385-.37v-.511H8.117Zm4.1 2.006v2.3l1.018-.012c1.141-.013 1.188-.02 1.631-.237a2.107 2.107 0 0 0 1.094-1.459 3.85 3.85 0 0 0-.03-1.267 2.06 2.06 0 0 0-.559-1 2.01 2.01 0 0 0-.877-.53 3.85 3.85 0 0 0-1.244-.08l-1.033-.011zm1.934-1.706a1.5 1.5 0 0 1 1.156 1.177 3.14 3.14 0 0 1 0 1.069 1.49 1.49 0 0 1-.8 1.041 2.236 2.236 0 0 1-1.116.168h-.537v-3.5h.55a4.6 4.6 0 0 1 .747.045M6.3 10.327a3.449 3.449 0 0 0-2.263 3.7 4.44 4.44 0 0 0 .3 1.024 4.263 4.263 0 0 0 1.612 1.595 3.45 3.45 0 0 0 4.588-1.636 2.435 2.435 0 0 0 .248-1.429 2.585 2.585 0 0 0-.235-1.424 3.67 3.67 0 0 0-1.633-1.669 3.683 3.683 0 0 0-2.617-.161"/></svg>