<svg xmlns="http://www.w3.org/2000/svg" viewBox="0 0 24 24"><path fill="#44739e" d="M10.913 1.951a4.792 4.792 0 0 0-3.181 2.617 5.61 5.61 0 0 0-.219 3.366c.287.879 6.927 12.294 7.455 12.827a4.83 4.83 0 0 0 3.77 1.381 4.244 4.244 0 0 0 2.869-1.382 3.984 3.984 0 0 0 1.376-3.332 3.24 3.24 0 0 0-.44-1.993c-.828-1.702-6.598-11.53-7.098-12.102a4.892 4.892 0 0 0-4.532-1.382M4.151 13.017a4.744 4.744 0 0 0-3.111 5.084 6.05 6.05 0 0 0 .406 1.408 5.876 5.876 0 0 0 2.215 2.192 4.741 4.741 0 0 0 6.306-2.249 3.35 3.35 0 0 0 .342-1.964 3.56 3.56 0 0 0-.323-1.958 5.045 5.045 0 0 0-2.245-2.293 5.065 5.065 0 0 0-3.59-.22"/></svg>