<svg xmlns="http://www.w3.org/2000/svg" fill="#44739e" viewBox="0 0 24 24"><path d="M16.641 9.659v.25h.864v2.8h.249v-2.8h.865v-.25h-.001zm3.455 2.712h-.052l-.948-2.712h-.301l1.098 3.052h.354l1.098-3.052h-.3zM9.139 10.892H9.12a.7.7 0 0 0-.54-.218 1.019 1.019 0 0 0 0 2.036.7.7 0 0 0 .54-.234h.019v.173h.444v-2.99h-.444Zm-.516 1.42a.6.6 0 0 1-.567-.624.589.589 0 0 1 .567-.616.569.569 0 0 1 .548.616.579.579 0 0 1-.548.624M3.836 9.659l-1.114 2.99h.5l.251-.713h1.282l.251.713h.5l-1.115-2.99ZM3.625 11.5l.475-1.358h.023L4.6 11.5Zm6.209.145v1h.444v-1a.507.507 0 0 1 .567-.574.65.65 0 0 1 .162.015V10.7a.77.77 0 0 0-.216-.027.89.89 0 0 0-.957.972m-3.298-.972a.856.856 0 0 0-.875.854v1.122H6.1v-1.122a.433.433 0 1 1 .864 0v1.122h.444v-1.122a.857.857 0 0 0-.872-.854m6.982-.86a.293.293 0 0 0-.293.283.291.291 0 1 0 .582 0 .289.289 0 0 0-.289-.283m-.224.922h.444v1.913h-.444zm2.171.157h-.019a.7.7 0 0 0-.54-.218 1.019 1.019 0 0 0 0 2.036.7.7 0 0 0 .54-.234h.019v.173h.444v-2.99h-.444zm-.517 1.42a.6.6 0 0 1-.567-.624.589.589 0 0 1 .567-.616.569.569 0 0 1 .548.616.579.579 0 0 1-.548.624m-2.881-1.638a1 1 0 0 0-1.033 1.01 1.034 1.034 0 0 0 2.067 0 1 1 0 0 0-1.034-1.01m0 1.637a.6.6 0 0 1-.582-.627.583.583 0 1 1 1.165 0 .606.606 0 0 1-.583.627m-1.557 4.742a.25.25 0 0 0-.347.067l-.163.239a.251.251 0 0 0 0 .28l.161.239a.248.248 0 0 0 .208.11.254.254 0 0 0 .139-.042.25.25 0 0 0 .068-.347l-.067-.1.067-.1a.25.25 0 0 0-.066-.346m1.623 1.902-.1.067-.1-.067a.25.25 0 0 0-.279.415l.239.161a.253.253 0 0 0 .279 0l.239-.161a.25.25 0 0 0-.279-.415zm1.356-1.555.067.1-.067.1a.251.251 0 0 0 .068.347.254.254 0 0 0 .139.042.248.248 0 0 0 .208-.11l.161-.239a.251.251 0 0 0 0-.28l-.165-.24a.2503.2503 0 0 0-.415.28zm-1.555-1.357.1-.067.1.067a.247.247 0 0 0 .139.043.25.25 0 0 0 .14-.457l-.239-.161a.249.249 0 0 0-.279 0l-.239.161a.25.25 0 1 0 .279.414zm.1.441a1.015 1.015 0 1 0 1.015 1.016 1.017 1.017 0 0 0-1.015-1.016m0 1.53a.515.515 0 1 1 .515-.515.516.516 0 0 1-.515.515m8.75-13.803h-17.5a1.25 1.25 0 0 0-1.25 1.25v12a1.251 1.251 0 0 0 1.25 1.25H9.61a.3.3 0 0 0 .039 0 2.672 2.672 0 0 0 4.769 0 .3.3 0 0 0 .039 0h6.327a1.252 1.252 0 0 0 1.25-1.25v-12a1.251 1.251 0 0 0-1.25-1.25m-8.75 15.462a2.174 2.174 0 1 1 2.173-2.173 2.176 2.176 0 0 1-2.173 2.173m9.5-2.212a.752.752 0 0 1-.75.75h-6.173A2.674 2.674 0 1 0 9.36 17.5a2.7 2.7 0 0 0 .1.712H3.284a.751.751 0 0 1-.75-.75v-12a.75.75 0 0 1 .75-.75h17.5a.751.751 0 0 1 .75.75z"/></svg>