<svg xmlns="http://www.w3.org/2000/svg" fill="#44739e" viewBox="0 0 24 24"><path d="m20.138 11.893.473-.793L22 9.716l-.381-.134-1.087 1.146-.64.859-1.533 1.213L2.4 9.612l-.3.372L18.357 13.4Zm-3.938-.882a.577.577 0 0 0 .462-.065c.082-.069.029-.129-.149-.163-.051-.009-.1-.016-.155-.02l-.275.221a.8.8 0 0 0 .117.027m5.222-1.887L6.839 6.4a.617.617 0 0 0-.38.06l-1.56.88a.615.615 0 0 0-.23.22l-.05.08a.65.65 0 0 1-.26.26L2.55 8.924a.127.127 0 0 0 .03.24L18.057 12.3a.69.69 0 0 0 .61-.16L20 11.033a.554.554 0 0 0 .17-.24l.1-.23a.62.62 0 0 1 .17-.25l1.06-.939a.149.149 0 0 0 0-.212.137.137 0 0 0-.067-.038m-6.1-.88c.56.02 1.01.26 1 .52s-.48.47-1.04.45-1-.26-.99-.53.47-.47 1.03-.44m-5.089-.98c.56.02 1 .26.99.53s-.47.47-1.03.44-1.01-.26-1-.52.48-.47 1.04-.45m-2.409-.49c.56.03 1 .26.99.53s-.47.47-1.03.45-1.01-.26-1-.53.48-.47 1.04-.45m-2.971 1.7.27.045-1.239.69-.31-.06zm.641.12.27.06-1.23.69-.29-.06zm.65.13.23.04-1.23.69-.25-.04zm.62.12.26.05-1.25.69-.26-.05zm.63.12.28.05-1.26.69-.28-.05zm.65.12.23.04-1.24.7-.25-.05zm.61.12.279.05-1.249.7-.29-.06zm.649.12.27.05-1.259.7-.27-.049zm.65.12.24.05-1.26.7-.249-.05zm.61.12.27.05-1.27.7-.27-.05zm.64.12.27.05-1.26.709-.28-.06zm.65.13.278.048-1.18.726-.295-.058zm-.11-1.62c.01-.27.48-.46 1.04-.44s1 .26.99.53-.47.46-1.03.44-1.01-.26-1-.53m2.8 3.029.16-.23-.47-.09-.419.18-.39-.08 1.6-.65.46.09-.54.86zm1.49-.07a.9.9 0 0 1-.12-.03l-.36.29-.38-.07.98-.76a4.7 4.7 0 0 1 .49.07.83.83 0 0 1 .41.15c.06.06.06.13-.03.21a.7.7 0 0 1-.36.15 1.67 1.67 0 0 1-.63-.01m2.42.04a1.22 1.22 0 0 0-.27-.09.933.933 0 0 0-.78.16c-.18.17-.09.31.25.38a2.3 2.3 0 0 0 .35.03l-.09.17a2.67 2.67 0 0 1-.48-.05c-.59-.11-.69-.36-.43-.59a1.6 1.6 0 0 1 1.3-.24 1.8 1.8 0 0 1 .36.1zm-3.385-.678c-.084.038-.185.088-.27.125l-.324.139.356.068.124-.177c.033-.05.081-.107.118-.154zm5.667.918-.164.48a.824.824 0 0 1-.223.343l-1.428 1.319a.89.89 0 0 1-.79.215l-16.068-3.5-.068.8a1.4 1.4 0 0 0 .006.288l.271 2.042a.6.6 0 0 0 .453.5l15.135 3.659a.873.873 0 0 0 .861-.271l2.59-2.939a.713.713 0 0 0 .171-.369L22 11.488v-1.34l-1.066 1a.72.72 0 0 0-.19.29zm.276 2.116a.845.845 0 0 1-.2.583c-.125.119-.227.03-.227-.184a.835.835 0 0 1 .2-.547c.116-.1.215-.037.227.15"/></svg>