<svg xmlns="http://www.w3.org/2000/svg" viewBox="0 0 24 24"><path fill="#44739e" d="m20.952 11.885.52-.873L23 9.49l-.419-.148-1.196 1.261-.704.945-1.686 1.334L1.44 9.375l-.33.41 17.883 3.757Zm-4.332-.971a.635.635 0 0 0 .508-.071c.09-.076.032-.142-.164-.179-.056-.01-.11-.018-.17-.022l-.303.243a.9.9 0 0 0 .129.029m5.744-2.075L6.323 5.842a.68.68 0 0 0-.418.066l-1.716.968a.677.677 0 0 0-.253.242l-.055.088a.715.715 0 0 1-.286.286l-1.99 1.127a.14.14 0 0 0 .033.264l17.025 3.449a.759.759 0 0 0 .671-.176l1.466-1.217a.61.61 0 0 0 .187-.264l.11-.253a.68.68 0 0 1 .187-.275l1.166-1.033a.164.164 0 0 0 0-.234.15.15 0 0 0-.074-.041m-6.71-.968c.616.022 1.111.286 1.1.572s-.528.517-1.144.495-1.1-.286-1.089-.583.517-.517 1.133-.484m-5.598-1.078c.616.022 1.1.286 1.089.583s-.517.517-1.133.484-1.111-.286-1.1-.572.528-.517 1.144-.495m-2.65-.539c.616.033 1.1.286 1.089.583s-.517.517-1.133.495-1.111-.286-1.1-.583.528-.517 1.144-.495M4.15 8.124l.297.049-1.363.759-.341-.066Zm.705.132.297.066-1.353.759-.319-.066Zm.715.143.253.044-1.353.759-.275-.044Zm.682.132.286.055-1.375.759-.286-.055Zm.693.132.308.055-1.386.759-.308-.055Zm.715.132.253.044-1.364.77-.275-.055Zm.671.132.307.055-1.374.77-.319-.066Zm.714.132.297.055-1.385.77-.297-.054Zm.715.132.264.055-1.386.77-.274-.055Zm.671.132.297.055-1.397.77-.297-.055Zm.704.132.297.055-1.386.78-.308-.066Zm.715.143.306.052-1.298.799-.324-.064Zm-.121-1.782c.011-.297.528-.506 1.144-.484s1.1.286 1.089.583-.517.506-1.133.484-1.111-.286-1.1-.583m3.08 3.332.176-.253-.517-.099-.461.198-.429-.088 1.76-.715.506.099-.594.946Zm1.639-.077a1 1 0 0 1-.132-.033l-.396.319-.418-.077 1.078-.836a5.2 5.2 0 0 1 .539.077.913.913 0 0 1 .451.165c.066.066.066.143-.033.231a.77.77 0 0 1-.396.165 1.84 1.84 0 0 1-.693-.011m2.662.044a1.34 1.34 0 0 0-.297-.099 1.026 1.026 0 0 0-.858.176c-.198.187-.099.341.275.418a2.5 2.5 0 0 0 .385.033l-.099.187a2.94 2.94 0 0 1-.528-.055c-.649-.121-.759-.396-.473-.649a1.76 1.76 0 0 1 1.43-.264 1.98 1.98 0 0 1 .396.11Zm-3.723-.746c-.093.042-.204.097-.297.137l-.357.153.392.075.136-.195c.037-.055.089-.117.13-.169Zm6.234 1.01-.181.528a.906.906 0 0 1-.245.377l-1.571 1.451a.979.979 0 0 1-.869.236L1.08 10.121l-.075.88a1.54 1.54 0 0 0 .007.317l.298 2.246a.66.66 0 0 0 .498.55l16.649 4.025a.96.96 0 0 0 .947-.298l2.849-3.233a.784.784 0 0 0 .188-.406L23 11.439V9.965l-1.173 1.1a.79.79 0 0 0-.209.319Zm.303 2.327a.93.93 0 0 1-.22.642c-.137.13-.25.033-.25-.203a.92.92 0 0 1 .22-.602c.128-.11.237-.04.25.165"/></svg>