<svg xmlns="http://www.w3.org/2000/svg" viewBox="0 0 24 24"><path fill="#44739e" d="M8.819 10.057c0 1.022.407 1.424 1.438 1.424a2.86 2.86 0 0 0 .589-.046v-.813a3.4 3.4 0 0 1-.365.025c-.44 0-.646-.22-.646-.681V6.959h1.017v-.813H9.835V4.875H8.819v1.271h-.77v.813h.77ZM2.87 11.502c.44-.018.62-.289 1.163-.289s.698.289 1.17.28c.49-.009.795-.44 1.092-.875a3.88 3.88 0 0 0 .49-1.005A1.588 1.588 0 0 1 5.84 8.17a1.619 1.619 0 0 1 .77-1.355 1.674 1.674 0 0 0-1.302-.709c-.586-.034-1.084.33-1.363.33s-.708-.314-1.172-.306a1.726 1.726 0 0 0-1.467.892 3.682 3.682 0 0 0 .44 3.577c.297.438.655.92 1.124.903m2.069-5.974a1.598 1.598 0 0 0 .369-1.14 1.584 1.584 0 0 0-1.052.543 1.5 1.5 0 0 0-.377 1.1 1.327 1.327 0 0 0 1.06-.503m16.693.517a1.426 1.426 0 0 1-1.426 1.425 1.426 1.426 0 0 1-1.426-1.425 1.426 1.426 0 0 1 1.426-1.426 1.426 1.426 0 0 1 1.426 1.426m-7.171 11.592H1.508A.669.669 0 0 1 1 17.404v2.89a.66.66 0 0 0 .66.66h12.65a.66.66 0 0 0 .66-.66v-2.89a.667.667 0 0 1-.509.233M1.99 14.523l-.887 1.884a1.05 1.05 0 0 0-.103.369.535.535 0 0 0 .089.241.498.498 0 0 0 .415.22h12.957a.495.495 0 0 0 .413-.22.51.51 0 0 0 .089-.241 1.05 1.05 0 0 0-.094-.369l-.889-1.884a1.053 1.053 0 0 0-.948-.601H2.934a1.05 1.05 0 0 0-.944.601m5.929.369a.288.288 0 0 1 .188-.097.249.249 0 0 1-.054.204.286.286 0 0 1-.22.089.275.275 0 0 1 .083-.196Zm-.686.373a.556.556 0 0 1 .367-.159c.098 0 .184.054.245.054a1.6 1.6 0 0 1 .292-.059.488.488 0 0 1 .304.126.241.241 0 0 0-.135.242c.032.192.304.256.307.258a.42.42 0 0 1-.101.179.414.414 0 0 1-.315.156c-.15 0-.201-.05-.37-.05s-.23.048-.372.051a.387.387 0 0 1-.31-.16.465.465 0 0 1 .084-.638Zm14.894-5.883a.699.699 0 0 1-.699.699.699.699 0 0 1-.698-.699.699.699 0 0 1 .698-.698.699.699 0 0 1 .699.698m-.873 1.921a.7.7 0 0 0-.698.698v2.09a.699.699 0 1 0 1.397 0v-2.09a.7.7 0 0 0-.699-.698m-1.598-1.921a.699.699 0 0 1-.699.699.699.699 0 0 1-.698-.699.699.699 0 0 1 .698-.698.699.699 0 0 1 .699.698m2.297-6.46H18.46a1.05 1.05 0 0 0-1.047 1.047v16.062a1.05 1.05 0 0 0 1.047 1.047h3.493A1.052 1.052 0 0 0 23 20.031V3.971a1.052 1.052 0 0 0-1.047-1.049m-2.128.698h.763c.029 0 .054.04.054.087s-.025.088-.054.088h-.763c-.029 0-.055-.039-.055-.088s.026-.087.055-.087m-.841 11.351a.873.873 0 1 1 .873-.872.872.872 0 0 1-.873.872m0-2.09a.873.873 0 1 1 .873-.88.873.873 0 0 1-.873.874Zm0-2.619a.873.873 0 1 1 .873-.873.873.873 0 0 1-.873.866Zm-.678-4.211a1.901 1.901 0 1 1 1.9 1.894 1.901 1.901 0 0 1-1.9-1.9Zm3.821 8.052a.873.873 0 0 1-1.746 0v-2.102a.873.873 0 1 1 1.746 0Zm-.699-3.841a.873.873 0 1 1 .873-.873.873.873 0 0 1-.873.866Zm.525-6.15a.398.398 0 1 1 .398-.398.398.398 0 0 1-.398.391Zm-2.271 9.985a.699.699 0 0 1-.698.698.699.699 0 0 1-.699-.698.699.699 0 0 1 .699-.699.699.699 0 0 1 .698.699m0-2.096a.699.699 0 0 1-.698.699.699.699 0 0 1-.699-.699.699.699 0 0 1 .699-.698.699.699 0 0 1 .698.698m-7.25-5.855h-1.067l1.926 5.304h1.072l1.92-5.304h-1.056l-1.387 4.282h-.021Z"/></svg>