<svg xmlns="http://www.w3.org/2000/svg" viewBox="0 0 24 24"><path fill="#44739e" d="M9.108 10.0893c0 .929.37 1.294 1.307 1.294a2.6 2.6 0 0 0 .536-.042v-.739a3.1 3.1 0 0 1-.332.023c-.4 0-.587-.2-.587-.619v-2.734h.924v-.739h-.924v-1.155h-.924v1.155h-.7v.739h.7zM3.7 11.4023c.4-.016.564-.262 1.057-.262s.635.262 1.064.254c.445-.008.723-.4.993-.795a3.53 3.53 0 0 0 .445-.914 1.444 1.444 0 0 1-.859-1.312 1.472 1.472 0 0 1 .7-1.232 1.522 1.522 0 0 0-1.184-.644c-.532-.031-.985.3-1.239.3s-.643-.286-1.065-.278a1.569 1.569 0 0 0-1.334.811 3.347 3.347 0 0 0 .4 3.251c.27.399.596.837 1.022.821m1.881-5.431a1.453 1.453 0 0 0 .335-1.036 1.44 1.44 0 0 0-.956.494 1.364 1.364 0 0 0-.343 1 1.206 1.206 0 0 0 .964-.458m15.175.47a1.296 1.296 0 0 1-1.296 1.296 1.296 1.296 0 0 1-1.296-1.296 1.296 1.296 0 0 1 1.296-1.296 1.296 1.296 0 0 1 1.296 1.296m-6.519 10.539H2.462a.608.608 0 0 1-.462-.212v2.627a.6.6 0 0 0 .6.6h11.5a.6.6 0 0 0 .6-.6v-2.627a.606.606 0 0 1-.463.212M2.9 14.1493l-.806 1.712a.95.95 0 0 0-.094.336.486.486 0 0 0 .081.219.453.453 0 0 0 .377.2h11.779a.45.45 0 0 0 .376-.2.464.464 0 0 0 .081-.219.95.95 0 0 0-.086-.336l-.808-1.712a.957.957 0 0 0-.862-.547h-9.18a.955.955 0 0 0-.858.547m5.39.335a.262.262 0 0 1 .171-.088.226.226 0 0 1-.049.185.26.26 0 0 1-.2.081.25.25 0 0 1 .075-.178zm-.624.339a.505.505 0 0 1 .334-.144c.089 0 .167.049.223.049a1.45 1.45 0 0 1 .265-.054.444.444 0 0 1 .277.115.219.219 0 0 0-.123.22c.029.174.276.232.279.234a.38.38 0 0 1-.092.163.376.376 0 0 1-.286.142c-.137 0-.183-.046-.337-.046s-.209.044-.338.047a.352.352 0 0 1-.282-.146.423.423 0 0 1 .077-.58zm13.54-5.348a.635.635 0 0 1-.635.635.635.635 0 0 1-.635-.635.635.635 0 0 1 .635-.635.635.635 0 0 1 .635.635m-.793 1.746a.636.636 0 0 0-.635.635v1.9a.635.635 0 1 0 1.27 0v-1.9a.636.636 0 0 0-.635-.635m-1.453-1.746a.635.635 0 0 1-.635.635.635.635 0 0 1-.635-.635.635.635 0 0 1 .635-.635.635.635 0 0 1 .635.635m2.088-5.873h-3.175a.955.955 0 0 0-.952.952v14.602a.955.955 0 0 0 .952.952h3.175a.956.956 0 0 0 .952-.952v-14.6a.956.956 0 0 0-.952-.954m-1.934.635h.693c.027 0 .049.036.049.079s-.022.08-.049.08h-.693c-.027 0-.05-.036-.05-.08s.023-.079.05-.079m-.765 10.319a.794.794 0 1 1 .794-.793.793.793 0 0 1-.794.793m0-1.9a.794.794 0 1 1 .794-.8.794.794 0 0 1-.794.794zm0-2.381a.794.794 0 1 1 .794-.794.794.794 0 0 1-.794.788Zm-.616-3.828a1.728 1.728 0 1 1 1.727 1.722 1.728 1.728 0 0 1-1.727-1.728zm3.473 7.32a.794.794 0 0 1-1.587 0v-1.911a.794.794 0 1 1 1.587 0zm-.635-3.492a.794.794 0 1 1 .794-.794.794.794 0 0 1-.794.788zm.477-5.591a.362.362 0 1 1 .362-.362.362.362 0 0 1-.362.356zm-2.064 9.077a.635.635 0 0 1-.635.635.635.635 0 0 1-.635-.635.635.635 0 0 1 .635-.635.635.635 0 0 1 .635.635m0-1.905a.635.635 0 0 1-.635.635.635.635 0 0 1-.635-.635.635.635 0 0 1 .635-.635.635.635 0 0 1 .635.635m-6.591-5.323h-.97l1.751 4.822h.974l1.746-4.822h-.96l-1.261 3.893h-.019z" class="cls-1" data-name="Colore riempimento 1"/></svg>