<svg xmlns="http://www.w3.org/2000/svg" viewBox="0 0 24 24"><path fill="#44739e" d="M7.189 6.901s-.931.004-1.602.887c-.595.786-.444 1.457-.444 1.457s.808.14 1.519-.714c.666-.8.527-1.63.527-1.63m4.471.614v2.314h-.94v1.403h.94v4.098c0 1.089.64 1.756 1.851 1.756q.586 0 1.117-.164.53-.163.898-.326l-.368-1.443c-.109.045-.612.258-.993.258-.402 0-.681-.201-.681-.694v-3.485h1.498V9.829h-1.498V7.515ZM7.046 9.353c-.833 0-1.473.474-1.818.474-.401 0-1.001-.446-1.773-.446C2.267 9.381 1 10.445 1 12.473c0 2.062 1.497 4.626 2.681 4.626.414 0 1.049-.416 1.688-.416.628 0 1.092.401 1.687.401 1.298 0 2.258-2.703 2.258-2.703s-1.374-.532-1.374-2.076c0-1.368 1.103-1.932 1.103-1.932s-.564-1.02-1.997-1.02m8.725.476 2.627 7.134h1.974L23 9.829h-1.715l-1.825 5.65-1.81-5.65Z"/></svg>