<svg xmlns="http://www.w3.org/2000/svg" fill="#44739e" viewBox="0 0 24 24"><path d="M13.9698 2.3131h-4.22a1.16 1.16 0 0 0-1.16 1.157v17.2a1.16 1.16 0 0 0 1.16 1.16h4.22a1.16 1.16 0 0 0 1.16-1.16v-17.2a1.16 1.16 0 0 0-1.16-1.157m-3.587 15.4a1.055 1.055 0 1 1 1.055-1.054 1.055 1.055 0 0 1-1.055 1.054m0-2.742a1.055 1.055 0 1 1 1.055-1.055 1.055 1.055 0 0 1-1.055 1.054zm0-2.743a1.055 1.055 0 1 1 1.055-1.058 1.055 1.055 0 0 1-1.055 1.058m3.9 4.431a1.055 1.055 0 0 1-2.11 0v-2.743a1.055 1.055 0 0 1 2.11 0zm-1.055-4.431a1.055 1.055 0 1 1 1.058-1.058 1.055 1.055 0 0 1-1.055 1.058zm-1.421-2.637a2.479 2.479 0 1 1 2.479-2.479 2.479 2.479 0 0 1-2.479 2.479m1.846-5.274a.633.633 0 1 1 .633-.633.633.633 0 0 1-.633.633m-.527 2.795a1.319 1.319 0 0 1-1.319 1.319 1.319 1.319 0 0 1-1.319-1.319 1.319 1.319 0 0 1 1.319-1.319 1.319 1.319 0 0 1 1.319 1.319"/></svg>