<svg xmlns="http://www.w3.org/2000/svg" viewBox="0 0 24 24"><path fill="#44739e" d="m18.078 12.042.007-1.712c-.045.089-.392.089-.392.089h-.255v-.339h.445c.067 0 .204-.104.204-.171l.014-1.356c0-.069-.07-.189-.138-.193h-.525v-.232h.647V7.96a.268.268 0 0 0-.269-.269h-.378v-.159a2.413 2.413 0 0 0-1.569-2.253 1.947 1.947 0 0 1-.494-1.529V2.477c0-.99-.55-1.089-1.667-1.282A12.4 12.4 0 0 0 11.595 1a12.06 12.06 0 0 0-2.113.195c-1.118.22-1.669.335-1.669 1.282V3.75a1.915 1.915 0 0 1-.482 1.525A2.413 2.413 0 0 0 5.75 7.532v8.936a2.413 2.413 0 0 0 1.581 2.257 1.915 1.915 0 0 1 .482 1.525v1.273c0 .947.55 1.064 1.669 1.282a12.06 12.06 0 0 0 2.113.195 12.4 12.4 0 0 0 2.113-.195c1.116-.193 1.667-.287 1.667-1.282V20.25a1.947 1.947 0 0 1 .494-1.529 2.413 2.413 0 0 0 1.569-2.253v-1.375h.171c.096 0 .459-.104.459-.199v-1.075c.077-.032.178-.121.182-.203v-1.388c-.004-.08-.104-.152-.172-.186m-.983 4.426a2.066 2.066 0 0 1-2.063 2.064H8.157a2.066 2.066 0 0 1-2.062-2.064V7.532a2.066 2.066 0 0 1 2.062-2.064h6.875a2.066 2.066 0 0 1 2.063 2.064ZM8.157 5.812h6.874c.953 0 1.719.767 1.719 1.72v8.936c0 .953-.766 1.72-1.719 1.72H8.157a1.716 1.716 0 0 1-1.719-1.72V7.532c0-.953.767-1.72 1.719-1.72"/></svg>