<svg xmlns="http://www.w3.org/2000/svg" viewBox="0 0 24 24"><path fill="#44739e" d="M10.15 5.962c.33 0 .466-.14.466-.376a.403.403 0 0 0-.449-.411.387.387 0 0 0-.44.402.38.38 0 0 0 .423.385m2.539-.328c0-.089 0-.287.006-.392-.081.115-.55.619-.777.873h.77Zm6.286-4.015H4.989a.758.758 0 0 0-.759.758v19.25a.758.758 0 0 0 .759.758h13.986a.758.758 0 0 0 .759-.758V2.377a.758.758 0 0 0-.759-.758m-5.702 3.692a1.72 1.72 0 0 0 .468-.235h.129v1.598h-.155v-1.43a1.5 1.5 0 0 1-.44.186Zm-1.531.918v-.117l.944-1.024h.155v1.027h.266l-.021.11h-.245v.44h-.152v-.44Zm-.762-3.122a.131.131 0 0 1 .123-.139H12v-.359a.55.55 0 0 1 .509-.58.484.484 0 0 1 .363.167.612.612 0 0 1 .151.407v.335a.036.036 0 0 1-.033.039h-.12a.036.036 0 0 1-.034-.039v-.335a.387.387 0 0 0-.096-.259.306.306 0 0 0-.232-.11.351.351 0 0 0-.322.369v.361h.235a.131.131 0 0 1 .124.138v.805a.132.132 0 0 1-.124.139h-1.32a.132.132 0 0 1-.123-.139Zm.276 2.673v-.312h.143v.312Zm.143.58v.314h-.143V6.36Zm-1.22-1.301c.441 0 .624.286.624.725 0 .396-.086.914-.653.914a.513.513 0 0 1-.561-.342h.164a.386.386 0 0 0 .402.229c.452 0 .485-.516.494-.731a.55.55 0 0 1-.511.227.518.518 0 0 1-.577-.502.55.55 0 0 1 .618-.52m4.071 16.529H9.428a.165.165 0 1 1 0-.33h4.824a.165.165 0 1 1 0 .33ZM19.672 1H4.327a.817.817 0 0 0-.817.817v20.366a.817.817 0 0 0 .817.817h15.345a.817.817 0 0 0 .818-.817V1.817A.817.817 0 0 0 19.672 1m.458 20.932a.789.789 0 0 1-.789.79H4.659a.789.789 0 0 1-.789-.79V2.1a.789.789 0 0 1 .789-.79h14.682a.789.789 0 0 1 .789.79Z"/></svg>