<svg xmlns="http://www.w3.org/2000/svg" viewBox="0 0 24 24"><path fill="#44739e" d="M4.873 11.178a1.1 1.1 0 0 0-.971 1.188v-.696a.694.694 0 0 0-.645-.735h-.226a1.168 1.168 0 0 0-1.086 1.237v9.587A1.169 1.169 0 0 0 3.031 23h.226a.694.694 0 0 0 .645-.735v-.695a1.1 1.1 0 0 0 .971 1.188 1.1 1.1 0 0 0 .967-1.188v-9.204a1.1 1.1 0 0 0-.967-1.188m16.097-.24h-.227a.694.694 0 0 0-.645.735v.693a1.1 1.1 0 0 0-.971-1.188 1.1 1.1 0 0 0-.97 1.188v9.204a1.1 1.1 0 0 0 .97 1.188 1.1 1.1 0 0 0 .971-1.188v.694a.694.694 0 0 0 .645.735h.227a1.169 1.169 0 0 0 1.085-1.238v-9.586a1.168 1.168 0 0 0-1.085-1.236m-.89.055c0-.098.018-.192.018-.291C20.098 5.345 16.473 1 12 1s-8.098 4.345-8.098 9.703c0 .098.009.194.011.29h.527c.147-5.194 3.501-9.35 7.628-9.35s7.48 4.158 7.629 9.35Z"/></svg>