<svg xmlns="http://www.w3.org/2000/svg" viewBox="0 0 24 24"><path fill="#44739e" d="M15.661 1.79h-1.375v.292a.302.302 0 0 1-.303.303h-3.594a.302.302 0 0 1-.303-.303V1.79H8.339A1.149 1.149 0 0 0 7.262 3v17.981a1.149 1.149 0 0 0 1.077 1.21h7.322a1.149 1.149 0 0 0 1.077-1.21V3.001a1.149 1.149 0 0 0-1.077-1.211m.775-.79H7.564a1.306 1.306 0 0 0-1.306 1.306v19.388A1.306 1.306 0 0 0 7.564 23h8.872a1.306 1.306 0 0 0 1.306-1.306V2.306A1.306 1.306 0 0 0 16.436 1m.711 20.309a1.215 1.215 0 0 1-1.175 1.254H7.99a1.215 1.215 0 0 1-1.174-1.254V2.673A1.217 1.217 0 0 1 7.99 1.418h7.982a1.217 1.217 0 0 1 1.175 1.255Z"/></svg>