<svg xmlns="http://www.w3.org/2000/svg" viewBox="0 0 24 24"><path fill="#44739e" d="M10.3659 6.511c.3 0 .424-.127.424-.342a.366.366 0 0 0-.408-.374.352.352 0 0 0-.4.366.345.345 0 0 0 .384.35m2.308-.298c0-.081 0-.261.006-.357-.074.105-.5.563-.707.794h.7zm5.715-3.65H5.6739a.689.689 0 0 0-.69.689v17.5a.689.689 0 0 0 .69.689h12.715a.689.689 0 0 0 .69-.689v-17.5a.689.689 0 0 0-.69-.689m-5.184 3.356a1.56 1.56 0 0 0 .426-.214h.117v1.453h-.141v-1.3a1.37 1.37 0 0 1-.4.169zm-1.392.835v-.107l.859-.931h.141v.934h.241l-.019.1h-.222v.4h-.139v-.4zm-.692-2.839a.119.119 0 0 1 .112-.126h.815v-.326a.5.5 0 0 1 .463-.528.44.44 0 0 1 .33.152.556.556 0 0 1 .137.37v.305a.033.033 0 0 1-.03.035h-.109a.033.033 0 0 1-.031-.035v-.305a.352.352 0 0 0-.087-.235.278.278 0 0 0-.211-.1.319.319 0 0 0-.293.335v.328h.214a.119.119 0 0 1 .112.126v.732a.12.12 0 0 1-.112.126h-1.2a.12.12 0 0 1-.112-.126zm.251 2.43v-.283h.13v.283zm.13.528v.285h-.13v-.285Zm-1.109-1.183c.4 0 .567.26.567.659 0 .36-.078.831-.594.831a.466.466 0 0 1-.51-.311h.149a.351.351 0 0 0 .366.208c.411 0 .441-.469.449-.664a.5.5 0 0 1-.465.206.471.471 0 0 1-.524-.456.5.5 0 0 1 .562-.473m3.7 15.026h-4.383a.15.15 0 1 1 0-.3h4.385a.15.15 0 1 1 0 .3zM19.0229 2h-13.95a.743.743 0 0 0-.743.743v18.514a.743.743 0 0 0 .743.743h13.95a.743.743 0 0 0 .743-.743V2.743a.743.743 0 0 0-.743-.743m.416 19.029a.717.717 0 0 1-.717.718H5.3739a.717.717 0 0 1-.717-.718V3a.717.717 0 0 1 .717-.718h13.348a.717.717 0 0 1 .717.718z" class="cls-1" data-name="Colore riempimento 1"/></svg>