<svg xmlns="http://www.w3.org/2000/svg" viewBox="0 0 24 24"><path fill="#44739e" d="M17.894 10.282a.122.122 0 0 0 .122-.122V8.34a.122.122 0 0 0-.122-.122h-.22v-.686a2.413 2.413 0 0 0-1.571-2.253 1.947 1.947 0 0 1-.494-1.529V2.477c0-.99-.55-1.089-1.668-1.282A12.43 12.43 0 0 0 11.828 1a12.05 12.05 0 0 0-2.113.195c-1.117.22-1.668.335-1.668 1.282V3.75a1.914 1.914 0 0 1-.482 1.525 2.414 2.414 0 0 0-1.581 2.257v8.936a2.414 2.414 0 0 0 1.581 2.257 1.914 1.914 0 0 1 .482 1.525v1.273c0 .947.55 1.064 1.668 1.282a12.05 12.05 0 0 0 2.113.195 12.43 12.43 0 0 0 2.113-.195c1.117-.193 1.668-.287 1.668-1.282V20.25a1.947 1.947 0 0 1 .494-1.529 2.413 2.413 0 0 0 1.569-2.253v-1.375h.171a.172.172 0 0 0 .173-.171v-2.406a.173.173 0 0 0-.173-.173h-.171v-2.061Zm-.566 6.186a2.066 2.066 0 0 1-2.062 2.064H8.391a2.066 2.066 0 0 1-2.063-2.064V7.532a2.066 2.066 0 0 1 2.063-2.064h6.875a2.066 2.066 0 0 1 2.062 2.064ZM8.391 5.812h6.874c.952 0 1.719.767 1.719 1.72v8.936c0 .953-.767 1.72-1.719 1.72H8.391a1.716 1.716 0 0 1-1.719-1.72V7.532c0-.953.766-1.72 1.719-1.72"/></svg>