<svg xmlns="http://www.w3.org/2000/svg" fill="#44739e" viewBox="0 0 24 24"><path d="m17.738 12.038.006-1.556c-.041.081-.356.081-.356.081h-.232v-.308h.405c.061 0 .185-.095.185-.156l.013-1.233c0-.062-.064-.171-.126-.175h-.477V8.48h.588v-.153a.244.244 0 0 0-.244-.244h-.344v-.145A2.194 2.194 0 0 0 15.73 5.89a1.77 1.77 0 0 1-.449-1.39V3.343c0-.9-.5-.99-1.516-1.166A11.25 11.25 0 0 0 11.844 2a10.96 10.96 0 0 0-1.921.177c-1.016.2-1.517.305-1.517 1.166V4.5a1.741 1.741 0 0 1-.438 1.386 2.194 2.194 0 0 0-1.437 2.052v8.124a2.194 2.194 0 0 0 1.437 2.052 1.741 1.741 0 0 1 .438 1.386v1.157c0 .861.5.968 1.517 1.166a10.96 10.96 0 0 0 1.921.177 11.25 11.25 0 0 0 1.921-.177c1.015-.176 1.516-.261 1.516-1.166V19.5a1.77 1.77 0 0 1 .449-1.39 2.194 2.194 0 0 0 1.426-2.048v-1.25h.156c.087 0 .417-.095.417-.181v-.977c.07-.029.162-.11.165-.185v-1.262c-.003-.072-.094-.138-.156-.169m-.894 4.024a1.878 1.878 0 0 1-1.875 1.876h-6.25a1.878 1.878 0 0 1-1.875-1.876V7.938a1.878 1.878 0 0 1 1.875-1.876h6.25a1.878 1.878 0 0 1 1.875 1.876zM8.719 6.375h6.249c.8659 0 1.563.6971 1.563 1.563v8.124c0 .8659-.6971 1.563-1.563 1.563H8.719a1.5596 1.5596 0 0 1-1.563-1.563V7.938c0-.8659.6971-1.563 1.563-1.563"/></svg>