<svg xmlns="http://www.w3.org/2000/svg" viewBox="0 0 24 24"><path fill="#44739e" d="M10.066 7.388a.898.841 90 0 1-.841.898.898.841 90 0 1-.841-.898.898.841 90 0 1 .841-.899.898.841 90 0 1 .841.899m.386-1.614s-2.938-.271-2.938 1.634c0 2.116 3.277 1.747 3.277 1.747s2.598.273 2.598-1.684c0-2.02-2.937-1.697-2.937-1.697M9.225 8.673a1.287 1.287 0 1 1 1.228-1.285 1.26 1.26 0 0 1-1.228 1.285m2.562-1.08a.205.205 0 1 1 .205-.205.204.204 0 0 1-.205.205m2.995-6.265a13.04 13.04 0 0 0-5.142-.135 5.979 5.979 0 0 0-4.852 5.856c-.212 2.552 1.894 4.949 2.551 4.93 1.295-.038 3.006-.016 4.034.057a51.3 51.3 0 0 0 5.186.175 6.777 6.777 0 0 0 2.634-4.431 6.03 6.03 0 0 0-4.411-6.452m.966 6.205a3.76 3.76 0 0 1-.541 2.068 2.98 2.98 0 0 1-1.682 1.353s-.333.333-2.384.368c-.488.01-2.976.323-4.297-1.315a4.814 4.814 0 0 1-1.012-2.619 3.515 3.515 0 0 1 1.855-3.373 5.94 5.94 0 0 1 3.152-.58 5.48 5.48 0 0 1 3.17.618 4.26 4.26 0 0 1 .977.999 3.874 3.874 0 0 1 .762 2.481m-5.147 6.064a.776.776 0 0 0-.695.841.666.666 0 0 0 .656.754.792.792 0 0 0 .812-.754c0-.696-.389-.841-.773-.841m-3.345-1.269-.156.824a70.4 70.4 0 0 0-.716 7.819c.854.754 9.243 1.064 11.118.02a44.3 44.3 0 0 0-.812-8.485c-3.788.115-4.734-.503-9.434-.178m3.306 3.073a.877.877 0 0 1-.865-.963.986.986 0 0 1 .904-1.049.917.917 0 0 1 .982 1.049.998.998 0 0 1-1.021.963m-3.718 6.06.039.888c1.863 1.082 9.8.631 10.194-.026l.044-.864a25.57 25.57 0 0 1-10.277.002"/></svg>