<svg xmlns="http://www.w3.org/2000/svg" viewBox="0 0 24 24"><path fill="#44739e" d="M9.312 22.843h12.573A1.11 1.11 0 0 0 23 21.733v-9.604H9.312ZM21.89 1.157H9.312v10.631H23V2.267a1.11 1.11 0 0 0-1.11-1.11M1 2.267v19.466a1.11 1.11 0 0 0 1.11 1.11h6.859V1.157H2.11A1.11 1.11 0 0 0 1 2.267m4.254 2.785a.319.319 0 1 1-.319.318.318.318 0 0 1 .319-.318m0 .898a.319.319 0 1 1-.319.319.318.318 0 0 1 .319-.319m0 .898a.319.319 0 1 1-.319.318.318.318 0 0 1 .319-.318m0 .898a.319.319 0 1 1-.319.319.319.319 0 0 1 .319-.319m0 .898a.319.319 0 1 1-.319.319.318.318 0 0 1 .319-.319m0 .899a.319.319 0 1 1-.319.318.318.318 0 0 1 .319-.318m0 .897a.319.319 0 1 1-.319.319.318.318 0 0 1 .319-.319m0 .899a.319.319 0 1 1-.319.318.318.318 0 0 1 .319-.319Zm0 .897a.319.319 0 1 1-.319.319.319.319 0 0 1 .319-.319m0 .899a.319.319 0 1 1-.319.319.318.318 0 0 1 .319-.319m0 .898a.319.319 0 1 1-.319.318.318.318 0 0 1 .319-.318m0 .898a.319.319 0 1 1-.319.319.318.318 0 0 1 .319-.319m0 .898a.319.319 0 1 1-.319.318.318.318 0 0 1 .319-.318m0 .899a.318.318 0 1 1-.319.318.318.318 0 0 1 .319-.318m0 .897a.319.319 0 1 1-.319.319.318.318 0 0 1 .319-.314Z"/></svg>