<svg xmlns="http://www.w3.org/2000/svg" viewBox="0 0 24 24"><path fill="#44739e" d="M23 11.918a2.44 2.42 90 0 0-.753-1.664 6.749 6.693 90 0 0-2.794-2.235 19.005 18.849 90 0 0-7.947-1.59 16.773 16.636 90 0 0-7.573 1.593C2.042 9.03 1 10.414 1 11.918a3.196 3.17 90 0 0 .06.618c0 .052.012.111.019.157a1.513 1.5 90 0 0-.045.367 2.701 2.678 90 0 0 .777 1.854c1.514 1.655 5.118 2.661 9.485 2.661h.55a25.056 24.851 90 0 0 8.108-1.252c1.854-.724 2.835-1.709 2.835-2.847v-.09A4.793 4.754 90 0 0 23 11.918M4.771 10.671a24.559 24.358 90 0 1 7.074-.938 24.548 24.347 90 0 1 7.074.938c1.822.584 2.867 1.373 2.867 2.165S20.741 14.417 18.919 15a24.548 24.347 90 0 1-7.074.938 24.559 24.358 90 0 1-7.074-.941c-1.822-.584-2.867-1.372-2.867-2.164s1.045-1.577 2.867-2.162m-.77-2.495a16.636 16.5 90 0 1 7.506-1.574c4.4 0 8.213 1.233 10.01 3.014-1.945-1.409-5.578-2.383-9.635-2.383-4.502 0-8.32 1.147-9.973 2.995a3.405 3.377 90 0 0-.705 1.157A4.888 4.848 90 0 1 4 8.177Zm15.886 7.922a24.899 24.696 90 0 1-8.042 1.239c-4.561.086-8.348-.905-9.888-2.589a2.464 2.444 90 0 1-.715-1.689c0-.786.749-1.509 2.133-2.077-1.091.539-1.677 1.178-1.677 1.854 0 .915 1.072 1.762 3.017 2.385a24.72 24.518 90 0 0 7.131.947 24.714 24.512 90 0 0 7.131-.947c1.946-.623 3.017-1.47 3.017-2.385a1.387 1.376 90 0 0-.33-.864 2.005 1.989 90 0 1 .922 1.495c-.003 1.019-.96 1.952-2.7 2.632Z"/></svg>