<svg xmlns="http://www.w3.org/2000/svg" fill="#44739e" viewBox="0 0 24 24"><path d="M20.994 2.177H9.6v6.391H22V3.183a1.006 1.006 0 0 0-1.006-1.006M9.6 21.823h11.39A1.006 1.006 0 0 0 22 20.817v-5.429H9.6ZM2.0385 3.1967v17.634a1.006 1.006 0 0 0 1.006 1.006h6.213V2.1907h-6.213a1.006 1.006 0 0 0-1.006 1.006m3.854 2.523a.289.289 0 1 1-.289.288.288.288 0 0 1 .289-.288m0 .813a.289.289 0 1 1-.289.289.288.288 0 0 1 .289-.289m0 .814a.289.289 0 1 1-.289.288.288.288 0 0 1 .289-.288m0 .813a.289.289 0 1 1-.289.289.289.289 0 0 1 .289-.289m0 .814a.289.289 0 1 1-.289.289.288.288 0 0 1 .289-.289m0 .814a.289.289 0 1 1-.289.288.288.288 0 0 1 .289-.288m0 .813a.289.289 0 1 1-.289.289.288.288 0 0 1 .289-.289m0 .814a.289.289 0 1 1-.289.288.288.288 0 0 1 .289-.289zm0 .813a.289.289 0 1 1-.289.289.289.289 0 0 1 .289-.289m0 .814a.289.289 0 1 1-.289.289.288.288 0 0 1 .289-.289m0 .814a.289.289 0 1 1-.289.288.288.288 0 0 1 .289-.288m0 .813a.289.289 0 1 1-.289.289.288.288 0 0 1 .289-.289m0 .814a.289.289 0 1 1-.289.288.288.288 0 0 1 .289-.288m0 .814a.288.288 0 1 1-.289.288.288.288 0 0 1 .289-.288m0 .813a.289.289 0 1 1-.289.289.288.288 0 0 1 .289-.285zM9.604 8.879H22v6.198H9.604Z"/></svg>