<svg xmlns="http://www.w3.org/2000/svg" viewBox="0 0 24 24"><path fill="#44739e" d="M14.394 17.86c.836-.251.965-.29 1.222-.567a3.685 3.685 0 0 0 1.22-2.848 17.08 17.08 0 0 0-1.228-5.261 13.14 13.14 0 0 0-1.376-2.958c-.1-.155-.193-.305-.282-.446a4.14 4.14 0 0 0-1.262-1.481 2.5 2.5 0 0 1-.13-.092c-.335-.246-.893-.661-2.741-.496a63.4 63.4 0 0 0-6.608 2.908 4.983 4.983 0 0 1 2.803 1.404 8.877 8.877 0 0 1 2.584 3.944 8.71 8.71 0 0 1-.622 6.768 2.76 2.76 0 0 1-.992.959 3.9 3.9 0 0 0 .462-.018 17.46 17.46 0 0 0 4.184-.922l.036-.013c1.345-.463 2.18-.714 2.73-.881m-7.988 1.802c1.683-.367 2.756-4.01 2.14-6.72-.782-3.415-4.116-6.477-5.863-5.935-1.599.498-2.097 3.539-1.328 6.705.616 2.535 3.127 6.097 4.881 5.974l.105-.012ZM3.587 14.11a.068.068 0 0 1-.048-.125c.077-.01.113.106.048.125m.308.101h-.06c-.067-.105-.134-.207-.2-.309-.024-.038-.053-.1-.111-.072-.037.017-.027.075-.031.111s-.026.043-.028.075.018.045.021.067l-.01.152h-.057v-.126c0-.067.006-.134.011-.201a.32.32 0 0 1 .01-.095c.012-.029.033-.039.063-.057a.134.134 0 0 1 .112.022 1.45 1.45 0 0 1 .183.273l.092.146Zm.364.073h-.057l-.039-.145c-.034.08-.164.055-.223.01a.241.241 0 0 1-.066-.304c.022-.028.052-.032.089-.052.214-.029.244.23.31.485Zm.357-.141-.057.006-.013-.045c-.026.018-.041.045-.08.056-.118.035-.26-.112-.25-.266.007-.097.047-.111.124-.156.184-.027.223.164.279.405Zm.129-.393c-.133.02-.069.208-.027.38l-.057.005c-.052-.214-.098-.353 0-.438l.057-.027c.013 0 .02.057.024.077Zm.438.33-.057.006-.014-.049c-.026.018-.041.048-.079.062-.119.038-.261-.127-.25-.291.007-.099.049-.125.123-.168.184-.029.223.177.278.439Zm-1.223-.211c-.028.016-.05.026-.061.054-.034.089.058.23.156.202.132-.039.064-.284-.095-.256m.948-.147c-.026.018-.047.029-.058.061-.036.101.053.268.152.234.136-.046.069-.327-.094-.295m-.558.092c-.029.018-.052.029-.062.06-.033.095.058.241.156.211.129-.042.06-.302-.094-.271m9.037 5.267a.772.772 0 0 1-.499.47.881.881 0 0 1-.685-.272 1.76 1.76 0 0 1-.288-.346l-.168.058-.036.013c-.125.042-.295.101-.504.167a2.87 2.87 0 0 0 .953.794 1.385 1.385 0 0 0 1.027.128 1.243 1.243 0 0 0 .771-.77 1.943 1.943 0 0 0 .035-1.065q-.266.082-.603.188a1.005 1.005 0 0 1-.003.635m2.913-8.669c.136.426.264.849.374 1.263l2.484-1.91Zm2.903-.505-2.494 1.914a12.06 12.06 0 0 1 .371 2.031l2.123-1.634Zm-1.764 8.703 1.683-.314.086-5.907-1.769 1.361Zm-1.706.319 1.563-.277v-4.801l-.21.128c.01.161.016.319.014.472a3.944 3.944 0 0 1-1.291 3.027l-.03.032-.046.111Zm5.614-5.128v-.27c-.059-2.858-.385-6.263-2.767-5.96h-.161a4.187 4.187 0 0 0-2.753 1.005c.06.16.123.335.185.509.123.349.244.7.359 1.049l3.097-.781v9.044l-3.723.685.014-1.424a3.5 3.5 0 0 1-1.128.447l-.245.074a2.708 2.708 0 0 0 2.904 1.758c2.792-.172 4.062-2.069 4.218-6.136m1.588-3.164a4.97 4.97 0 0 0-.476-1.898 2.428 2.428 0 0 0-.969-1.145 8.02 8.02 0 0 0-2.211-.112 3.1 3.1 0 0 1 .436.112c2.261.928 2.417 9.231.392 11.185-.985.95-1.427.985-1.427.985a5.48 5.48 0 0 1-1.641.356 4.49 4.49 0 0 0 2.596.029 3.434 3.434 0 0 0 2.041-.985 3.18 3.18 0 0 0 .77-1.126c.674-1.397.583-5.677.489-7.401m-10.732 8.642a.881.881 0 0 0 .685.272.772.772 0 0 0 .499-.47 1.005 1.005 0 0 0 0-.635c-.403.129-.893.287-1.475.487a1.76 1.76 0 0 0 .291.346"/></svg>