<svg xmlns="http://www.w3.org/2000/svg" viewBox="0 0 24 24"><path fill="#44739e" d="M5.276 12.509a.213.213 0 1 0 .213.213.213.213 0 0 0-.213-.213m-3.535 1.949 19.856 2.458c.11.013.177-.098.184-.213l.42-6.187.344-5.079a.194.194 0 0 0-.187-.203L1.18 4.742a.176.176 0 0 0-.18.187l.582 9.362a.178.178 0 0 0 .159.167m2.367-1.474h-.017v.042a.89.89 0 0 1-.412 0v-.034l-.019-.008c0-.088.013-.232.028-.33a.203.203 0 0 1-.093-.175.22.22 0 0 1 .197-.21.6.6 0 0 1 .208 0 .22.22 0 0 1 .178.232.242.242 0 0 1-.098.161 1.76 1.76 0 0 1 .028.322m.88.166.024-.514a.267.267 0 0 1 .53 0v.026l.034.526ZM18.16 7.332a.233.233 0 0 1 .234-.22l2.189.046a.238.238 0 0 1 .167.076.23.23 0 0 1 .063.172l-.412 8.158a.238.238 0 0 1-.083.168.233.233 0 0 1-.152.056h-.028l-2.23-.267a.236.236 0 0 1-.208-.247Zm-3.63-.049a.264.264 0 0 1 .27-.255l2.64.067a.265.265 0 0 1 .258.276l-.162 3.614a.262.262 0 0 1-.263.252h-.02l-2.591-.187a.263.263 0 0 1-.244-.272Zm-.15 4.389a.242.242 0 0 1 .079-.173.235.235 0 0 1 .18-.062l2.671.188a.24.24 0 0 1 .22.252l-.155 3.384a.243.243 0 0 1-.242.23h-.026l-2.595-.29a.241.241 0 0 1-.22-.246Zm-3.333-4.673a.245.245 0 0 1 .182-.07l2.55.064a.25.25 0 0 1 .243.258l-.098 3.477a.249.249 0 0 1-.25.243h-.024l-2.441-.22a.251.251 0 0 1-.229-.249l-.009-3.318a.253.253 0 0 1 .076-.181Zm-.076 4.408a.242.242 0 0 1 .079-.178.236.236 0 0 1 .181-.063l2.455.183a.242.242 0 0 1 .22.247l-.065 3.274a.245.245 0 0 1-.082.176.24.24 0 0 1-.16.061h-.026l-2.39-.266a.242.242 0 0 1-.22-.24Zm-.431-4.54.061 5.566-7.81-.594-.055-5.28Zm.677 3.808 2.442.22a.168.168 0 0 0 .125-.042.163.163 0 0 0 .056-.12l.098-3.477a.165.165 0 0 0-.162-.171l-2.546-.068a.165.165 0 0 0-.117.047.168.168 0 0 0-.05.12l.01 3.325a.166.166 0 0 0 .144.166m1.312-1.753h-.151v-.067l.151.005Zm.091-.133-.355-.011-.083-.382.543.007Zm-.161-1.407a.513.513 0 0 1 .497.528.536.536 0 0 1-.231.445l-.543-.006a.541.541 0 0 1-.22-.44.513.513 0 0 1 .497-.527m5.461 8.042 2.234.261a.13.13 0 0 0 .102-.032.132.132 0 0 0 .049-.095l.411-8.159a.135.135 0 0 0-.132-.14l-2.189-.048a.134.134 0 0 0-.134.127l-.458 7.944a.135.135 0 0 0 .117.142m.749-7.81 1.667.057-.416 7.74-1.65-.176Zm-7.473 7.145 2.389.267a.158.158 0 0 0 .176-.154l.065-3.274a.158.158 0 0 0-.146-.161l-2.45-.183h-.012a.159.159 0 0 0-.159.158v3.19a.157.157 0 0 0 .137.157m1.32-1.586-.151-.01v-.061l.151.005Zm.091-.133-.355-.011-.083-.382.541.007Zm-.167-1.411a.514.514 0 0 1 .496.529.536.536 0 0 1-.231.445l-.541-.006a.539.539 0 0 1-.22-.44.514.514 0 0 1 .496-.528m2.09 3.492 2.595.289a.154.154 0 0 0 .119-.036.16.16 0 0 0 .055-.11l.156-3.383a.157.157 0 0 0-.148-.164l-2.671-.19a.163.163 0 0 0-.117.041.158.158 0 0 0-.052.11l-.078 3.282a.157.157 0 0 0 .141.161m1.462-1.527-.151-.01v-.061l.151.006Zm.091-.133-.355-.011-.083-.381.541.006Zm-.161-1.411a.514.514 0 0 1 .496.529.536.536 0 0 1-.231.44l-.541-.008a.536.536 0 0 1-.22-.44.514.514 0 0 1 .493-.521Zm-1.256-1.085 2.592.189a.187.187 0 0 0 .133-.046.18.18 0 0 0 .059-.126l.16-3.616a.18.18 0 0 0-.049-.131.18.18 0 0 0-.127-.057l-2.64-.067a.18.18 0 0 0-.181.175l-.11 3.494a.18.18 0 0 0 .163.185m1.459-1.87-.15-.008v-.063l.15.006Zm.091-.133-.355-.009-.082-.383.542.007Zm-.161-1.41a.513.513 0 0 1 .497.528.537.537 0 0 1-.231.447l-.542-.008a.537.537 0 0 1-.22-.44.513.513 0 0 1 .496-.528ZM8.653 9.09l-.011-1.048-1.659.22.008.776Zm-.151-.945.009.864-1.425-.03-.012-.66Zm-.223 1.02-1.119-.03v.198l.204.014.47.03.318.021.127.008.11-.007v-.22Zm-1.093.145v-.152l1.066.03v.192Zm1.1.07v-.19l.075.01v.175Zm-2.855-.379c.013.019.034.042.053.07l.015.021c.033.046.065.093.094.14a.26.26 0 0 1 0-.054.09.09 0 0 0 0-.033.3.3 0 0 0 0-.05.13.13 0 0 0-.025-.091.046.046 0 0 0-.025-.013.14.14 0 0 1-.053-.027.165.165 0 0 1-.039-.064 1.2 1.2 0 0 0-.045-.097.11.11 0 0 1-.006-.035.15.15 0 0 1 0-.066c0-.015 0-.029.007-.044a.68.68 0 0 0-.024-.26l.006.557a.3.3 0 0 1 .042.046m.378-.055a.22.22 0 0 1 .02.049.3.3 0 0 1 .011.147.3.3 0 0 0 0 .121.88.88 0 0 0 .064.18l.016.035a.29.29 0 0 1 .037.1h.044v-.216a.22.22 0 0 0-.022-.061l-.018-.03-.024-.048-.032-.06a.6.6 0 0 1-.03-.06.66.66 0 0 1-.025-.098v-.018a.26.26 0 0 1 0-.097c0-.016 0-.034.009-.058a.33.33 0 0 0 0-.073v-.27l-.007-.02-.086-.016a.165.165 0 0 0-.025.087.6.6 0 0 0 0 .172.9.9 0 0 0 .041.155.8.8 0 0 0 .027.079m-.365-.534v.025l.01.016v.043a.77.77 0 0 1 0 .167l-.007.046a.11.11 0 0 0 0 .051.1.1 0 0 0 .011.028q.017.03.03.062l.022.039c.016.033.018.037.027.045a.066.066 0 0 0 .03.015.11.11 0 0 1 .053.028.168.168 0 0 1 .041.122.4.4 0 0 1 0 .056v.032a.77.77 0 0 0 0 .135.4.4 0 0 0 .011.054v.016c.006.024.015.048.023.071l.009.028v.007l.01.039a.2.2 0 0 1 0 .022l.016.023h.042a.33.33 0 0 1-.015-.074l-.011-.065a.8.8 0 0 0-.027-.1.25.25 0 0 1-.017-.091v-.056a.29.29 0 0 0-.009-.092.25.25 0 0 0-.053-.11.3.3 0 0 0-.03-.028.15.15 0 0 1-.039-.05.17.17 0 0 1 0-.104.7.7 0 0 1 .016-.093.07.07 0 0 0 0-.041.1.1 0 0 0-.025-.047.324.324 0 0 1-.08-.227l-.041-.01Zm.702.271-.029.041a.3.3 0 0 0-.035.057.165.165 0 0 0-.009.11.22.22 0 0 0 .033.059c.03.049.048.074.059.091a.26.26 0 0 1 .027.043.14.14 0 0 1 .011.068v.084a1.2 1.2 0 0 0 .021.172.7.7 0 0 0 .018.067l.006.019a.28.28 0 0 1 .017.071h.027l-.01-1.001a.2.2 0 0 0-.088.034.11.11 0 0 0-.025.037c.001.014-.01.028-.023.048M5.92 8.9a.26.26 0 0 0 0 .088.4.4 0 0 0 .026.11.4.4 0 0 0 .025.052l.034.063a.63.63 0 0 1 .055.149.17.17 0 0 1 0 .033v.09a.7.7 0 0 0 .007.092h.139v-.046l-.007-.023a1.3 1.3 0 0 1-.024-.088.55.55 0 0 1-.014-.083.17.17 0 0 1 0-.037v-.059a.6.6 0 0 1 0-.087.103.103 0 0 0-.008-.051.22.22 0 0 0-.022-.036c-.013-.018-.03-.043-.061-.092a.3.3 0 0 1-.04-.07.203.203 0 0 1 .011-.142.28.28 0 0 1 .039-.067l.026-.038a.6.6 0 0 0 .028-.044.13.13 0 0 1 .034-.046l.002-.01.022-.02-.275-.056a.57.57 0 0 1 .01.161v.11a.33.33 0 0 1 0 .081c0 .031-.004.049-.007.066m-.376-.446v.022l.007.011v.039l.008.01v.011a.22.22 0 0 0 .034.048.13.13 0 0 1 .035.067.11.11 0 0 1-.006.062.8.8 0 0 0-.015.088.132.132 0 0 0 0 .08.08.08 0 0 0 .026.033.3.3 0 0 1 .037.035.33.33 0 0 1 .063.13.3.3 0 0 1 .01.102v.06a.21.21 0 0 0 .017.08.66.66 0 0 1 .027.11c0 .022.008.044.011.067a.21.21 0 0 0 .042.073h.078a.33.33 0 0 0-.033-.085l-.016-.035a.9.9 0 0 1-.067-.189.35.35 0 0 1 0-.136.25.25 0 0 0-.008-.123.17.17 0 0 0-.018-.044 1 1 0 0 1-.033-.083.94.94 0 0 1-.041-.161.7.7 0 0 1-.01-.185.15.15 0 0 0 0-.031v-.036l.006-.018-.166-.031v.042ZM3.97 12.373a.24.24 0 0 0-.127-.022.264.264 0 0 0-.128.021.125.125 0 0 0-.076.122.162.162 0 0 0 .042.094.22.22 0 0 0 .174.047c.082 0 .097-.013.097-.013a.11.11 0 0 0 .067-.048.142.142 0 0 0-.009-.164.18.18 0 0 0-.04-.037m2.828-4.287v.075l-3.94-.88v.53l1.563.273.022 1.491h.15a.036.036 0 0 1 .018 0l-.201.007h-.097l-.013-.01-.015-1.441-1.415-.247v.025l1.386.243v.242L2.87 8.197l.02 1.715h.064a.132.132 0 0 1 .078.019l.243.149-.372.02H2.89v.058a.024.024 0 0 1 .021-.013l.729-.039a.04.04 0 0 1 .017.007.021.021 0 0 1 .01.016v.019h.099l.11.036-.151.014-.058.005.036.855a.076.076 0 0 0 .035.055.1.1 0 0 0 .074.016l.44-.071a.033.033 0 0 1 .023.005.026.026 0 0 1 .011.019v.381c0 .008-.007.015-.018.018l-1.201.283h-.001l-.132-.007a.03.03 0 0 1-.02-.007l-.007-.01v.024l3.675.277 2.588-1.22-2.061-.457a.19.19 0 0 0 .069-.034l2.146.476-2.64 1.244 3.792.285-.046-4.22-1.29.134v-.075l1.301-.139-.012-1.069-7.575-.304v.544Zm-1.444.243h.023l.04.008.069.013a.08.08 0 0 1 .024.022.06.06 0 0 1 .031 0l.17.031a.06.06 0 0 1 .028.013.08.08 0 0 1 .032 0l.078.015.045.009a.044.044 0 0 1 .024 0l.271.054a.063.063 0 0 1 .045.034l.029-.007a.066.066 0 0 1 .05.011.049.049 0 0 1 .023.04l.012 1.043H6.03l-.22-.022h-.088v-.011a.032.032 0 0 0-.014-.023.055.055 0 0 0-.03-.009h-.013v-.017l-.011-.042-.011-.019c-.011-.03-.018-.053-.025-.073v-.016a1.87 1.87 0 0 0-.232-.351v.063a.99.99 0 0 0 .124.256.42.42 0 0 1 .068.144.04.04 0 0 1 0 .016.22.22 0 0 0 0 .044h.081l-.168.008h-.033.06V9.53a.1.1 0 0 0 0-.02v-.033a.6.6 0 0 0-.058-.11 2.3 2.3 0 0 1-.066-.116v.317h-.063v-.319a.044.044 0 0 1 .037-.041.7.7 0 0 1-.037-.104v-.079a.043.043 0 0 1 .022-.036.047.047 0 0 1-.021-.036l-.007-.629Zm.77 1.699h-.036v-.375h.038Zm-.392-.33-.002-.081.33.03v.196l-.319-.041a.023.023 0 0 0 .006-.02Zm.315.177v.094l-.344.027c-.087 0-.179-.006-.264-.006v-.084Zm.012.11v.037c-.065-.006-.13-.011-.196-.015h-.012Zm-.929-.417a.025.025 0 0 1 .018 0l.252.014h.087l.188-.009h.016a.02.02 0 0 1 .008.014l.014.11.011.082v.007a.013.013 0 0 1 0 .016l-.017-.073V9.65a.016.016 0 0 0-.019-.016l-.159.016a.55.55 0 0 1-.11 0h-.011l-.275-.031v-.014a.023.023 0 0 1 0-.031Zm.19.084.014.33h-.16v-.33h.013l-.249-.022v-.016Zm-.172.33h-.049v-.321h.051Zm-.078-.31v.22l-.372-.047a.029.029 0 0 0 .007-.024l-.013-.091-.009-.093Zm-.008.33a1.43 1.43 0 0 0-.487.076l-.225.016v-.127l.718-.032Zm-1.068-.408a.03.03 0 0 1 .022-.008l.27.011h.187l.163-.015h.018a.033.033 0 0 1 .011.016v.029l.012.098.01.09v.009l-.008.011-.02-.082v-.088a.02.02 0 0 0-.022-.018l-.187.015a.58.58 0 0 1-.131 0H4.31V9.66l-.32-.035v-.018a.02.02 0 0 1 .008-.018Zm-.213.543-.026-.508v.005l.451.051.028.591v.007Zm-.029.647-.016-.414.541.337h-.004l-.511.081Zm.568.88-.66.154v-.138l.66-.155Zm.011-.741-.011.027-.44.083h-.036c-.029 0-.05-.022-.048-.042v-.089a.082.082 0 0 1 .025-.063l.51-.09h.009Zm0-.635v-.171h.048l.171-.012a.035.035 0 0 0-.011.026c0 .044.079.084.207.122Zm2.189.116v.025a.258.258 0 0 0 .1.176.9.9 0 0 0 .11.049c.046.023.086.062.07.09s-.122.027-.182.009a.33.33 0 0 1-.11-.054.276.276 0 0 1-.088-.269l.006-.026c-.143 0-.302 0-.474-.013v.024a.48.48 0 0 0 .029.117.22.22 0 0 1-.167-.009l-.029-.016a.236.236 0 0 0 .041-.099.2.2 0 0 0 0-.023c-.153-.011-.297-.025-.43-.04v.023a.77.77 0 0 0 .004.192.136.136 0 0 1-.017.096.124.124 0 0 1-.069.052c-.068.021-.161-.015-.169-.047s.067-.035.123-.11a.22.22 0 0 0 .051-.152.17.17 0 0 0-.018-.047l-.011-.03c-.44-.059-.72-.141-.721-.199 0-.082.531-.139 1.298-.09a2.7 2.7 0 0 1 1.301.255c.001.055-.243.1-.64.108Zm2.267.018-1.957-.364V9.96l1.97.33Zm.057-.007v-.11l.232.04Zm-2.623-.58v-.067l3.246.48v.11Zm3.657.397-.365.135v-.11l.366-.124Zm-.809-2.906.028 2.645h-.032l-.211.04-.031-2.849Zm-.304-.184.032 2.871-.66-.084v-.496l-.77-.05v.44l-.471-.064-.05-2.075Zm-.713 2.594h.04v.176h-.011l-.66-.082h-.029v-.153h.03v.083l.626.071Zm.787.314.25-.057.737.094-.33.11-2.336-.329-.803-.118.363-.019.122.013v.033Zm14.05-6.188a.396.396 0 0 0-.286-.127L2.178 3.556a.298.298 0 0 0-.297.281l-.045.803 20.759.451-.712 11.795-.151.231-20.25-2.586.178 2.574a.419.419 0 0 0 .357.388l19.432 2.95a.33.33 0 0 0 .057 0 .393.393 0 0 0 .38-.302l.11-.485 1.003-15.5a.392.392 0 0 0-.11-.294m-1.567 16.507.01-.146-19.289-2.93a.22.22 0 0 1-.185-.201L1.7 14.759l19.838 2.537v-.073h.019Zm.476-.735-.11.467a.187.187 0 0 1-.055.094l-.013.195.22-3.066.122-.187Zm.947-14.666-.049-.035a.23.23 0 0 0-.13-.044L2.049 4.443l.033-.595a.098.098 0 0 1 .096-.096l20.429.18a.194.194 0 0 1 .191.206Zm-2.514 2.798-1.466-.051-.163 3.073 1.458.096Z"/></svg>