<svg xmlns="http://www.w3.org/2000/svg" fill="#44739e" viewBox="0 0 24 24"><path d="m16.751 17.289.063-.039.414.665-.063.039zm.288-.8.067-.03.61 1.347-.068.031zm.207-.128.067-.032.236.5-.067.032zm.325-1.639a2.5 2.5 0 0 0-.276-.6.965.965 0 0 0-.583-.322.527.527 0 0 1-.384-.293H7.286c-.1.138-.144.32-.271.338-.556.08-.793.794-.793.794-.258.727-1.114 3.167-.536 4.928.114.348 1.405.725 3.169.947a1.63 1.63 0 0 1-.089-.567c0-.421.12-.762.268-.762s.267.341.267.762a1.54 1.54 0 0 1-.106.607c2.741.3 6.454.228 8.747-.857 1.197-.567.221-3.908-.371-4.978zm.2 3.257a.46.46 0 0 1-.172.146l-.407-.8-.065.033.4.795a.7.7 0 0 1-.113.027c-.362.053-.63.021-.776-.881a1.126 1.126 0 0 1 .068-.594l.235.33.06-.043-.26-.364a.77.77 0 0 1 .426-.4 1.04 1.04 0 0 1 .316-.063.326.326 0 0 1 .168.04c.135.083.166.291.206.555l.014.1a1.543 1.543 0 0 1-.091 1.119zm-.239-1.546.069-.027.295.763-.069.026zm.037.731.067-.03.2.452-.068.031zM9.3 9.811a1.556 1.556 0 0 0 1.48-1.627A1.558 1.558 0 0 0 9.3 6.558a1.557 1.557 0 0 0-1.475 1.626A1.558 1.558 0 0 0 9.3 9.811m0-2.866a1.186 1.186 0 0 1 1.125 1.239A1.185 1.185 0 0 1 9.3 9.424a1.187 1.187 0 0 1-1.12-1.24A1.187 1.187 0 0 1 9.3 6.945m.655 1.239A.69.69 0 0 1 9.3 8.9a.724.724 0 1 1 .654-.721Zm-2.228 5.079H15.8a5.552 5.552 0 0 0 2.421-4.876C18.221 4.6 15.821 2 11.926 2s-6.3 2.594-6.3 6.386a5.708 5.708 0 0 0 2.101 4.877M6.551 7.1a4.647 4.647 0 0 1 4.3-4.276c3.285-.008 1.956 1.316 1.956 4.276 0 2.813-1.033 5.093-2.722 5.093C7.123 12.19 6.32 9.9 6.551 7.1m10.47 13.118-.292.488-.111-.066.213-.355q-.3.1-.6.177l-.164.358-.117-.054.121-.265a9.3 9.3 0 0 1-.486.1l-.147.32-.117-.054.109-.24q-.234.039-.471.066l-.045.276-.127-.021.039-.24c-.177.019-.354.035-.532.047l-.014.255-.132-.01.013-.239c-.216.014-.435.024-.657.032v.237h-.124v-.23c-.235.008-.473.014-.717.019v.247h-.129v-.244h-.188c-.089 0-.254.006-.476.008v.231h-.129v-.23c-.209 0-.457 0-.733-.006v.236h-.129v-.239c-.208-.006-.43-.014-.661-.026v.265h-.138v-.272c-.212-.012-.431-.027-.652-.046l.058.265-.126.028-.067-.3c-.177-.017-.357-.036-.535-.058l.1.27-.116.052-.13-.335c-.187-.025-.374-.054-.557-.086l.154.3-.116.058-.2-.389c-.132-.025-.261-.053-.388-.082l.148.327-.118.053-.189-.419a6.6 6.6 0 0 1-.352-.1l.144.32-.117.053-.193-.427a4.8 4.8 0 0 1-.321-.123c-.102-.044-.613-.168-.613-.168.839.371.637.36 1.07.978a1.246 1.246 0 0 0 .775.572c.776.167 1.461.3 1.846.351a18.4 18.4 0 0 0 5.611-.221s1.477-.277 1.68-.813a1.45 1.45 0 0 1 .351-.5 2.94 2.94 0 0 1 .867-.57 5.2 5.2 0 0 0-.748.317c-.109.04-.217.082-.325.121z"/></svg>