<svg xmlns="http://www.w3.org/2000/svg" viewBox="0 0 24 24"><path fill="#44739e" d="M7.882 1.686h2.776c.065 0 .117.052.117.117v8.011a.117.117 0 0 1-.117.117H7.882a.117.117 0 0 1-.116-.117V1.803c0-.065.052-.117.116-.117m3.061 10.622a.376.329 90 0 1-.329.377.376.329 90 0 1-.329-.377.376.329 90 0 1 .329-.376.376.329 90 0 1 .329.376m5.732-.687h-6.076a.687.687 0 0 0 0 1.375h6.076a.687.687 0 0 0 0-1.375m-6.061 1.126a.44.44 0 1 1 .392-.44.418.418 0 0 1-.392.44m-.796-.439a.784.784 0 0 1 .408-.687h-.848a.672.672 0 1 0 0 1.344h.796a.782.782 0 0 1-.356-.657m-1.21-.015a.77.77 0 0 1 .77-.77h.477a.803.803 0 0 0-.607-.295.974.974 0 0 0-.874 1.05.974.974 0 0 0 .88 1.05.796.796 0 0 0 .585-.271h-.461a.77.77 0 0 1-.77-.764m1.371 4.139a.812.708 90 0 1-.709.811.812.708 90 0 1-.708-.811.812.708 90 0 1 .708-.812.812.708 90 0 1 .709.812m.402-3.372h-.426a.905.905 0 0 1-.709.366 1.069 1.069 0 0 1-.97-1.146 1.069 1.069 0 0 1 .97-1.145.912.912 0 0 1 .728.39h.44a.8.8 0 0 1 .089 0 .8.8 0 0 1 .09 0h.477V1.817a.54.54 0 0 0-.539-.539H7.935a.54.54 0 0 0-.54.539v20.465a.54.54 0 0 0 .54.54h2.596a.54.54 0 0 0 .539-.54v-9.19h-.471a.75.75 0 0 1-.218-.032m-2.499-3.002a.243.243 0 0 1-.244-.244V1.803a.244.244 0 0 1 .244-.244h2.776a.244.244 0 0 1 .243.244v8.011a.243.243 0 0 1-.243.244Zm1.386 7.28a.913.913 0 1 1 .803-.906.861.861 0 0 1-.803.906m-1.327 5.61a.668.668 0 0 1-.667-.666V1.817a.668.668 0 0 1 .667-.666h2.595a.666.666 0 0 1 .591.358.631.631 0 0 0-.618-.509H7.664a.63.63 0 0 0-.629.63v20.645a.63.63 0 0 0 .629.63h-.192a.645.645 0 0 1-.643-.644V1.648a.641.641 0 0 1 .265-.52.645.645 0 0 0-.457.615v20.614a.643.643 0 0 0 .645.643h3.006a.63.63 0 0 0 .254-.052Z"/></svg>