<svg xmlns="http://www.w3.org/2000/svg" viewBox="0 0 24 24"><path fill="#44739e" d="M19.991 6.148a4.391 4.391 0 0 0-3.52-1.825L7.803 6.446a6.6 6.6 0 0 1 4.417 4.999c.43 1.955.938 5.108-1.384 7.128l8.768-2.464a4.059 4.059 0 0 0 2.076-3.322 11.21 11.21 0 0 0-.32-4.118 6.82 6.82 0 0 0-1.369-2.521M5.293 15.836l-.099-.038v.312l.002.001v.028l.313.106-.002-.097-.213-.074Zm-.059-.262a.373.373 0 0 0-.531.363.785.785 0 0 0 .542.702.378.378 0 0 0 .531-.367.822.822 0 0 0-.542-.698m.01.953a.621.621 0 0 1-.428-.55.295.295 0 0 1 .419-.288.646.646 0 0 1 .428.55.297.297 0 0 1-.419.288m1.267-2.428-.001.232.233.073-.004-.226Zm.087-1.831a.102.102 0 0 0 .143-.097.22.22 0 0 0-.145-.187.1.1 0 0 0-.143.096.209.209 0 0 0 .145.188m.699 1.614.002.098-.014.015.001.152.042.052.043-.013-.004-.259-.042-.053Zm-.375.094v-.155l-.014-.03v-.099l-.027-.036-.042.012v.267l.04.053Zm.389-.119-.042-.053-.333-.165-.042.012.042.054.333.164Zm-.038.358.042-.012-.043-.052-.119-.055-.041.013.041.051Zm-.378-.209.041.053.119.056.042-.013-.042-.053-.119-.056Zm.042.34-.042.016.042.051.34.149.042-.013-.042-.052Zm-.028-.111.013-.016v-.155l-.043-.053-.04.013v.267l.042.053.028-.01Zm.42-.015-.041.013.002.152.013.027.001.098.029.034.043-.014-.004-.258Zm-.376-1.543v-.101l.013-.015v-.155l-.043-.055-.041.011v.267l.043.055Zm.013-.359v-.155l-.014-.03v-.1l-.029-.037-.041.01v.267l.041.055Zm.015.372-.042.012.042.055.34.167.042-.012-.044-.053Zm.332-.458.042-.009-.042-.056-.335-.185-.04.01.042.056Zm-1.474 1.825-.104.084.014.532.036.086.009.342.073.097.107-.085-.024-.911Zm-.111-.221.109.145.105-.083-.024-.911-.111-.148-.068.055.007.342-.031.066Zm-1.482-1.478-.069.056.004.348-.033.067.007.544.108.147.106-.084-.013-.929Zm-1.091.872.108.149.304.091.105-.086-.107-.149-.305-.091Zm.042.795.034-.068-.004-.549-.108-.151-.106.087.004.943.109.148.073-.058Zm.072.372-.106.088.107.147.867.242.108-.085-.11-.148Zm.44-1.002.108.148.305.089.106-.083-.11-.149-.304-.09Zm.396-1.003.107-.083-.109-.151-.85-.268-.106.085.107.15Zm7.581-1.387a6.414 6.414 0 0 0-4.338-4.42c-1.489.402-2.229.643-3.719 1.047C.58 8.842.735 12.607 1.385 14.767c.695 2.31 2.269 5.472 5.635 4.824l3.33-.919c2.565-2.489 1.883-5.687 1.336-7.667m-5.163 8.03c-1.831.462-3.936-1.615-4.699-4.639s.104-5.852 1.936-6.314 3.937 1.603 4.699 4.633-.103 5.851-1.936 6.313ZM22.847 8.879a4.08 4.08 0 0 0-2.257-2.86l-.407.121a6.81 6.81 0 0 1 1.369 2.522 11.2 11.2 0 0 1 .32 4.116l.165-.059c.923-.622 1.158-2.605.81-3.84"/></svg>