<svg xmlns="http://www.w3.org/2000/svg" viewBox="0 0 24 24"><path fill="#44739e" d="M13.393 7.117c-.096 0-.191.011-.285.017s-.19-.017-.286-.017a4.62 4.62 0 0 0-.969.11 5.61 5.61 0 0 0-4.163 5.629 5.61 5.61 0 0 0 4.163 5.632 4.77 4.77 0 0 0 1.54.257c.11 0 .228 0 .342-.013a3.6 3.6 0 0 0 1.301-.365 12.1 12.1 0 0 0 1.093-.666l-.09.048a5.877 5.877 0 0 0 2.483-4.893 5.83 5.83 0 0 0-2.86-5.138 4.664 4.664 0 0 0-2.269-.601m-5.002 7.598a5.41 5.41 0 0 1-.394-1.86 6.97 6.97 0 0 1 .798-2.98 5.5 5.5 0 0 1 .361-.539c-.013.025-.025.051-.038.077a8.305 8.305 0 0 0-.789 3.439 7.857 7.857 0 0 0 1.32 4.094 8.45 8.45 0 0 1-1.258-2.231M2.509 1.695l9.209-.279 10.358-.119L20.372 1l-18.55.351.057 21.174.655.475-.033-13.754Zm.602.542v20.728l19.067-1.144V1.761Zm16.674 17.428-14.144.906V4.815l14.139-.33Zm-.303-14.871-13.53.32v15.134l13.53-.866Zm-4.751 13.73.056-.013a7.65 7.65 0 0 1-1.965.386 5.768 5.768 0 0 1-5.434-6.041 5.767 5.767 0 0 1 5.434-6.041 4.92 4.92 0 0 1 1.58.261 5.768 5.768 0 0 1 4.272 5.78 5.787 5.787 0 0 1-3.943 5.668"/></svg>