<svg xmlns="http://www.w3.org/2000/svg" viewBox="0 0 24 24"><path fill="#44739e" d="M7.351 17.894a2.06 2.06 0 0 0-.269 1.171c.043.877.549 1.578 1.125 1.55s1.01-.768.966-1.652a2.05 2.05 0 0 0-.382-1.139.913.913 0 0 0-.708-.412h-.032a.895.895 0 0 0-.7.482m8.78-7.8a1.771 1.771 0 0 0-1.768 1.766v7.241a1.769 1.769 0 1 0 3.538 0V11.86a1.771 1.771 0 0 0-1.77-1.766M9.342 1a3.246 3.246 0 0 0-3.243 3.243v15.455a3.243 3.243 0 1 0 6.485 0V4.243A3.246 3.246 0 0 0 9.342 1M8.337 15.974a.448.448 0 0 1-.375.496.515.515 0 0 1 0-.987.448.448 0 0 1 .375.491m-.304 1.11a1.218 1.218 0 0 1 1.022.54 2.396 2.396 0 0 1 .448 1.323c.053 1.065-.522 1.962-1.281 1.999h-.048c-.739 0-1.371-.823-1.427-1.865a2.4 2.4 0 0 1 .319-1.36 1.214 1.214 0 0 1 .967-.637"/></svg>