<svg xmlns="http://www.w3.org/2000/svg" viewBox="0 0 24 24"><path fill="#44739e" d="M22.399 7.24c-.019-.319-.169-.674-.46-.735l-2.328-.262-.872-.062a1.022 1.022 0 0 0-.846.981v9.672a1.024 1.024 0 0 0 .845.981l.874-.064 2.341-.262c.277-.071.421-.412.443-.719 0-.038.139-4.747.138-4.784Zm-5.029-.094a1.57 1.57 0 0 1 .208-.733c-.264.081-.538.169-.801.257a.776.776 0 0 0-.279.587l.018 4.741c.011.011-.026 4.73-.018 4.74a.776.776 0 0 0 .279.59c.263.087.537.176.802.257a1.575 1.575 0 0 1-.208-.708c-.008-2.455-.006-7.279-.001-9.731m-6.104-5.742L5.654 1a2.66 2.66 0 0 0-.591.091 2.251 2.251 0 0 0-.872 1.744c0 .058-.01 9.139-.008 9.189.024.049-.011 9.13.009 9.172a2.107 2.107 0 0 0 .934 1.727c.035 0 .082.023.117.026a1.9 1.9 0 0 0 .4.051c.007 0 5.61-.407 5.619-.404a1.932 1.932 0 0 0 1.718-1.917c.211-5.382.213-11.946 0-17.327a1.936 1.936 0 0 0-1.714-1.948M3.665 2.83a2.89 2.89 0 0 1 .457-1.488c-.424.124-.855.259-1.276.394l-.555.181a.665.665 0 0 0-.296.199 1.852 1.852 0 0 0-.529 1.283s.035 8.593.033 8.599-.033 8.589-.033 8.602a1.852 1.852 0 0 0 .535 1.284.7.7 0 0 0 .353.222c.166.057.37.121.538.177.407.13.823.261 1.234.381a2.883 2.883 0 0 1-.458-1.442C3.654 16.604 3.66 7.443 3.665 2.83"/></svg>