<svg xmlns="http://www.w3.org/2000/svg" fill="#44739e" viewBox="0 0 24 24"><path d="M8.352 16.276c0-.246-.149-.447-.332-.447s-.331.2-.331.447.149.446.331.446.332-.2.332-.446m5.12.303c0-.246-.148-.447-.331-.447s-.331.2-.331.447.149.446.331.446.331-.2.331-.446m-5.143-4.755c0-.246-.149-.447-.331-.447s-.331.2-.331.447.148.446.331.446.331-.2.331-.446m5.143.159c0-.246-.148-.446-.331-.446s-.331.2-.331.446.149.446.331.446.331-.2.331-.446m0-4.595c0-.246-.148-.447-.331-.447s-.331.2-.331.447.149.446.331.446.331-.2.331-.446m-5.143.141c0-.246-.149-.446-.331-.446s-.331.2-.331.446.148.446.331.446.331-.2.331-.446M5.473 5.193v.21l10.605-.499-.047 14.122-10.558-.904v.26l10.628.904.496-.213V4.904l-.459-.27ZM18.653 2.2l-13.386.96a.557.557 0 0 0-.517.555v16.01a.556.556 0 0 0 .5.553l13.387 1.439a.557.557 0 0 0 .616-.554V2.757a.557.557 0 0 0-.6-.557M16.68 19.128l-.565.242-10.725-.912v-.425l.138.011v-.1l10.359.856v-4.378l-10.359-.428v-.251l10.359.465V9.691H5.528V9.53l10.359-.118V5.1l-10.359.522v-.138l-.138.006v-.375l10.769-.565.521.307Zm-9.133-2.852a.54.54 0 0 1 .473-.588c.6376.1322.6376 1.0428 0 1.175a.54.54 0 0 1-.473-.587m5.6118-.2725c.5283-.0197.6728 1.1827-.0178 1.1712-.5933-.035-.5807-1.1816-.0173-1.1566zM7.525 11.824A.54.54 0 0 1 8 11.236c.6376.1322.6376 1.0428 0 1.175a.54.54 0 0 1-.475-.587m5.622-.4252c.5064-.1007.7192 1.1717-.006 1.1722-.5947-.0122-.6175-1.2076.006-1.1722M7.525 7.529A.541.541 0 0 1 8 6.941a.541.541 0 0 1 .473.588.541.541 0 0 1-.473.588.541.541 0 0 1-.475-.588m5.178-.141c-.0168-.6795.8812-.8431.8993-.0117.0403.8198-.881.808-.8992.0117"/></svg>