<svg xmlns="http://www.w3.org/2000/svg" fill="#44739e" viewBox="0 0 24 24"><path d="M12.3811 11.6425a.92.92 0 0 0-.777.063.64.64 0 0 0-.2.242 1.022 1.022 0 0 0-1.268-.085 1.214 1.214 0 0 0-.39.712c-.094.315-.229.767-.017.967.231.219.758.025 1.051-.169a1.95 1.95 0 0 0 .54-.556 1.05 1.05 0 0 0 .422.73 1.067 1.067 0 0 0 .613.19 1.029 1.029 0 0 0 1.017-1.273c-.069-.281-.296-.651-.991-.821m.573 1.714a.92.92 0 0 1-1.123.062 1.037 1.037 0 0 1-.374-.876.725.725 0 0 0 .04-.4.54.54 0 0 1 .2-.308.516.516 0 0 1 .311-.091 1.44 1.44 0 0 1 .337.052c.618.152.817.467.875.706a.887.887 0 0 1-.266.855m3.912-2.215-.108.029v.146h-.095v.085h.095v.331a.23.23 0 0 0 .042.159.155.155 0 0 0 .12.046.27.27 0 0 0 .1-.015v-.083a.24.24 0 0 1-.065.008c-.061 0-.082-.043-.082-.118v-.328h.158v-.084h-.158zm-.418.434v.349h.11v-.362c0-.21-.13-.26-.212-.26a.24.24 0 0 0-.113.031.2.2 0 0 0-.079.078v-.379h-.11v.892h.11v-.367a.14.14 0 0 1 .008-.053.158.158 0 0 1 .148-.11c.101 0 .138.083.138.181m-.59-.092v-.167h-.1v.092a.2.2 0 0 0-.19-.106.292.292 0 0 0-.274.323.272.272 0 0 0 .259.3.216.216 0 0 0 .193-.1v.068c0 .153-.083.212-.2.212a.343.343 0 0 1-.178-.047l-.028.084a.4.4 0 0 0 .2.05.323.323 0 0 0 .221-.073.35.35 0 0 0 .087-.277zm-.109.182a.2.2 0 0 1-.009.059.163.163 0 0 1-.153.113c-.12 0-.18-.1-.18-.219 0-.14.075-.229.181-.229a.158.158 0 0 1 .154.116.17.17 0 0 1 .007.051zm-.703-.349h.11v.608h-.11zm.052-.103a.069.069 0 1 0 0-.137.067.067 0 0 0-.069.069.065.065 0 0 0 .069.068m-.35.218c0 .132 0 .235.013.348a2.5 2.5 0 0 0-.152-.275l-.271-.428h-.119v.847h.1v-.362c0-.141 0-.242-.009-.349a2.8 2.8 0 0 0 .158.282l.269.43h.11v-.847h-.1zm-6.477 1.927h-.005v-.119h-.1c0 .056.005.118.005.189v.419h.109v-.324a.27.27 0 0 1 0-.052.155.155 0 0 1 .148-.142.15.15 0 0 1 .038 0v-.1a.1.1 0 0 0-.032 0 .182.182 0 0 0-.163.129m-.488-.133a.3.3 0 0 0-.285.328.282.282 0 0 0 .3.306.49.49 0 0 0 .2-.038l-.019-.079a.39.39 0 0 1-.168.032.2.2 0 0 1-.209-.211h.427a.3.3 0 0 0 0-.052.258.258 0 0 0-.246-.286m-.178.259a.182.182 0 0 1 .169-.18.157.157 0 0 1 .153.18zm-.457-.259a.222.222 0 0 0-.2.114l-.006-.1h-.1v.608h.111v-.366a.15.15 0 0 1 .007-.051.157.157 0 0 1 .148-.113c.1 0 .141.081.141.179v.351h.111v-.363c.003-.209-.128-.259-.212-.259m-.7 0a.223.223 0 0 0-.2.114l-.007-.1h-.093v.608h.11v-.366a.15.15 0 0 1 .008-.051.155.155 0 0 1 .148-.113c.1 0 .14.081.14.179v.351h.111v-.363c.001-.209-.13-.259-.217-.259m-.593.014h.11v.608h-.11zm.055-.238a.067.067 0 0 0-.069.069.066.066 0 0 0 .067.068.069.069 0 1 0 0-.137zm-.655-.007a1.43 1.43 0 0 0-.232.018v.832a1.8 1.8 0 0 0 .2.01.52.52 0 0 0 .374-.122.45.45 0 0 0 .122-.329.39.39 0 0 0-.119-.3.485.485 0 0 0-.345-.109m-.012.772a.7.7 0 0 1-.111-.006v-.668a.65.65 0 0 1 .128-.011.3.3 0 0 1 .343.326.325.325 0 0 1-.355.359zm11.697-.33h-.119l-.085.129c-.02.033-.04.064-.06.1-.02-.034-.039-.065-.062-.1l-.086-.13h-.124l.206.3-.216.31h.122l.088-.137c.023-.036.044-.069.064-.1.021.036.041.07.065.1l.089.137h.126l-.214-.314zm-.646.234c0-.121-.045-.248-.231-.248a.376.376 0 0 0-.2.054l.025.073a.3.3 0 0 1 .16-.048.126.126 0 0 1 .138.141v.013c-.235 0-.366.079-.366.226a.173.173 0 0 0 .186.174.228.228 0 0 0 .186-.09l.009.076h.1a.9.9 0 0 1-.01-.145zm-.107.169a.11.11 0 0 1-.006.035.152.152 0 0 1-.147.1.1.1 0 0 1-.1-.105c0-.118.137-.139.257-.137zm-.616-.687h.11v.892h-.11zm-.388.27a.3.3 0 0 0-.285.327.283.283 0 0 0 .3.307.48.48 0 0 0 .2-.038l-.019-.079a.39.39 0 0 1-.168.031.194.194 0 0 1-.208-.211h.426a.3.3 0 0 0 0-.051.257.257 0 0 0-.246-.286m-.178.258a.183.183 0 0 1 .169-.179.157.157 0 0 1 .154.179zm-.378-.04a.223.223 0 0 0 .16-.216.208.208 0 0 0-.067-.16.345.345 0 0 0-.245-.069 1.16 1.16 0 0 0-.209.017v.835h.109v-.366h.1c.1 0 .144.047.169.164a1.07 1.07 0 0 0 .057.2h.113a1.3 1.3 0 0 1-.066-.232.212.212 0 0 0-.121-.173m-.14-.046h-.112v-.309a.45.45 0 0 1 .108-.01c.115 0 .194.049.194.158s-.074.161-.19.161m-5.192-2.383a.2.2 0 0 0-.19-.106.292.292 0 0 0-.274.323.272.272 0 0 0 .259.3.216.216 0 0 0 .193-.1v.067c0 .154-.083.213-.2.213a.343.343 0 0 1-.178-.048l-.028.084a.39.39 0 0 0 .2.05.318.318 0 0 0 .221-.073.348.348 0 0 0 .087-.277v-.52h-.1zm-.012.257a.2.2 0 0 1-.009.059.16.16 0 0 1-.153.113c-.12 0-.18-.1-.18-.218 0-.141.075-.23.181-.23a.159.159 0 0 1 .154.117.16.16 0 0 1 .007.05zm-.804-.367a.225.225 0 0 0-.2.115l-.006-.1h-.1v.608h.11v-.363a.16.16 0 0 1 .008-.051.156.156 0 0 1 .148-.113c.1 0 .141.082.141.18v.35h.11v-.363c.004-.208-.126-.263-.211-.263m-.596.018h.11v.608h-.11zm.053-.103a.069.069 0 1 0 0-.137.067.067 0 0 0-.069.069.066.066 0 0 0 .069.068m-.343.361v.35h.111v-.363c0-.208-.131-.259-.215-.259a.224.224 0 0 0-.2.115l-.007-.1h-.1c0 .05.005.1.005.165v.443h.111v-.367a.16.16 0 0 1 .007-.051.157.157 0 0 1 .149-.113c.103.004.139.082.139.18m-.713.35v-.326a.4.4 0 0 1 0-.052.155.155 0 0 1 .148-.141.2.2 0 0 1 .038 0v-.1a.15.15 0 0 0-.031 0 .182.182 0 0 0-.168.133h-.001v-.119h-.1c0 .057.005.118.005.19v.418zm-.248-.309a.288.288 0 0 0-.293-.313.3.3 0 0 0-.3.323.289.289 0 0 0 .291.313.3.3 0 0 0 .302-.323m-.482.006c0-.115.056-.236.187-.236s.182.131.182.234c0 .137-.079.236-.185.236s-.186-.101-.186-.234zm-.292-.543h-.14l-.15.409c-.038.107-.068.2-.09.285a3.8 3.8 0 0 0-.086-.285l-.144-.409h-.14l-.059.846h.099l.022-.363c.008-.127.014-.269.017-.374.024.1.058.209.1.329l.137.4h.083l.149-.411c.043-.117.078-.222.107-.321 0 .1.006.247.012.365l.022.372h.106zm14.646 11.12.328-.164v-7.2l-.328.119zm0-7.245v-4.546l.272-.157v4.604l.056-.02V2.2345l-.328.092v7.873h-.118v4.613zm-17.44 6.647 17.322.58v-7.171l-17.322-.353zm17.395-19.147.354-.098-16.232-.157-1.021.132zm-17.395 7.674v4.529h.12v-4.528l17.202.268v-7.825l-17.322-.127z"/></svg>