<svg xmlns="http://www.w3.org/2000/svg" viewBox="0 0 24 24"><path fill="#44739e" d="M21.893 1.195H9.36v21.61h12.529A1.107 1.107 0 0 0 23 21.699V2.301a1.107 1.107 0 0 0-1.107-1.106M1 2.301v19.398a1.107 1.107 0 0 0 1.107 1.106h6.834V1.195H2.107A1.107 1.107 0 0 0 1 2.301m4.239 2.776a.318.318 0 1 1-.318.316.317.317 0 0 1 .318-.316m0 .894a.318.318 0 1 1-.318.318.317.317 0 0 1 .318-.318m0 .895a.318.318 0 1 1-.318.317.317.317 0 0 1 .318-.317m0 .895a.318.318 0 1 1-.318.317.318.318 0 0 1 .318-.317m0 .895a.318.318 0 1 1-.318.318.317.317 0 0 1 .318-.318m0 .895a.318.318 0 1 1-.318.317.317.317 0 0 1 .318-.317m0 .895a.318.318 0 1 1-.318.318.317.317 0 0 1 .318-.318m0 .895a.318.318 0 1 1-.318.317.317.317 0 0 1 .318-.318Zm0 .894a.318.318 0 1 1-.318.318.318.318 0 0 1 .318-.318m0 .896a.318.318 0 1 1-.318.318.317.317 0 0 1 .318-.318m0 .895a.318.318 0 1 1-.318.317.317.317 0 0 1 .318-.317m0 .894a.318.318 0 1 1-.318.318.317.317 0 0 1 .318-.318m0 .896a.318.318 0 1 1-.318.317.317.317 0 0 1 .318-.317m0 .895a.317.317 0 1 1-.318.317.317.317 0 0 1 .318-.317m0 .895a.318.318 0 1 1-.318.317.317.317 0 0 1 .318-.313Z"/></svg>