<svg xmlns="http://www.w3.org/2000/svg" fill="#44739e" viewBox="0 0 24 24"><path d="m10.237 8.765.001-.043Zm4.593-.039v.042zm-1.706 7.153a.578.619 0 0 1-.578.619.578.619 0 0 1-.578-.619.578.619 0 0 1 .578-.619.578.619 0 0 1 .578.619m0 3.653a.578.619 0 0 1-.578.619.578.619 0 0 1-.578-.619.578.619 0 0 1 .578-.619.578.619 0 0 1 .578.619M11.408 9.1a2.7 2.7 0 0 0 1.132.413h.01a2.544 2.544 0 0 0 1.115-.39 2.6 2.6 0 0 1 1.154-.4h.011l-.013-4.019a2.75 2.75 0 0 0-.309-1.26 2.362 2.362 0 0 0-1.377-1.164 2.068 2.068 0 0 0-1.423.058 2.07 2.07 0 0 0-1.044.956 3.7 3.7 0 0 0-.418 1.7v.582l-.007 3.146V8.68a2.74 2.74 0 0 1 1.169.42m3.463 12.84L14.83 8.768v.042a2.535 2.535 0 0 0-1.13.39 2.6 2.6 0 0 1-1.154.4h-.011a2.735 2.735 0 0 1-1.171-.422 2.67 2.67 0 0 0-1.131-.412L10.207 22Zm-3.178-6.246a.852.852 0 0 1 .853-.853.852.852 0 0 1 .853.853v5.985l-1.706.027zm-1.538-11.54a4.7 4.7 0 0 1 .259-.906l.007-.017c.138-.346.529-.9 1.74-1.228h-.733a2.416 2.416 0 0 0-1.434.465 1.74 1.74 0 0 0-.633.885 5.14 5.14 0 0 0-.232 1.529v16.736l.954.382V7.525h-.527v-.289h.527v-1.66h-.5v-.257h.5v-.352a4.8 4.8 0 0 1 .037-.584h-.431v-.229Z"/></svg>