<svg xmlns="http://www.w3.org/2000/svg" viewBox="0 0 24 24"><path fill="#44739e" d="M8.837 13.267a.117.117 0 0 0-.089-.033.15.15 0 0 0-.14.12h.269a.156.156 0 0 0-.04-.087m.877 3.936a4.798 4.798 0 0 0 4.545-5.006 4.797 4.797 0 0 0-4.545-5.005 4.797 4.797 0 0 0-4.546 5.005 4.798 4.798 0 0 0 4.546 5.006m.177-1.725h-.583a.564.564 0 0 1 0-1.128h.583a.564.564 0 0 1 0 1.128m-1.787-2.09c0-.054-.006-.11-.008-.175-.016.045-.032.092-.05.14l-.179.492h-.156l-.164-.484c-.016-.047-.03-.088-.042-.128 0 .055-.006.11-.009.167l-.029.45h-.196l.072-1.04h.225l.173.49c.023.072.043.132.06.188.017-.055.037-.116.062-.188l.182-.49h.225l.065 1.04h-.204l-.027-.46h.042Zm-.791-2.158v-.847a.163.163 0 0 1 .07-.132l.603-.423a.162.162 0 0 1 .254.132v.899a.163.163 0 0 1-.077.138l-.603.37a.162.162 0 0 1-.247-.137m.593 1.1v-.077h3.615v.084Zm2.241.672a.12.12 0 0 1-.089.035.117.117 0 0 1-.118-.117.119.119 0 0 1 .12-.12.121.121 0 0 1 .087.202m.018.068v.77h-.209v-.77Zm-.33.726v.045h-.191v-.053a.31.31 0 0 1-.2.069.353.353 0 0 1-.33-.391.44.44 0 0 1 .116-.313.33.33 0 0 1 .234-.098.303.303 0 0 1 .168.047v-.352h.209v.872c-.009.049-.009.127-.003.181Zm-1.081-.741a.33.33 0 0 1 .33.365v.095l-.037.005h-.44a.174.174 0 0 0 .19.155.42.42 0 0 0 .168-.025l.045-.02.041.172-.031.014a.605.605 0 0 1-.247.046.361.361 0 0 1-.379-.388.373.373 0 0 1 .364-.412Zm2.004.786v-.052a.3.3 0 0 1-.195.068c-.065 0-.278-.024-.278-.342v-.44h.207v.422c0 .177.079.177.11.177a.139.139 0 0 0 .126-.088.13.13 0 0 0 .009-.047v-.464h.208v.542c0 .077 0 .135.005.184v.045Zm1.375 0h-.206v-.431c0-.169-.082-.169-.11-.169a.12.12 0 0 0-.11.086.18.18 0 0 0-.008.048v.466h-.206v-.453c0-.045-.009-.147-.101-.147a.13.13 0 0 0-.115.095.13.13 0 0 0-.008.049v.456h-.206v-.771h.194v.049a.28.28 0 0 1 .184-.064.243.243 0 0 1 .201.102.23.23 0 0 1 .048-.045.272.272 0 0 1 .177-.057c.124 0 .268.089.268.34Zm-.429-2.831.064-.054a.33.33 0 0 0 .11-.06l.213.734a.083.083 0 0 1-.008.066.11.11 0 0 1-.063.047.102.102 0 0 1-.123-.066Zm.33-.962a.088.088 0 0 1 .041.045l.171.489a.072.072 0 0 1 0 .056.086.086 0 0 1-.057.043.087.087 0 0 1-.103-.052l-.161-.458-.158-.078.087.55a.171.171 0 0 1-.137.186h-.01l-.34.28-.045.55a.101.101 0 0 1-.104.088h-.008a.1.1 0 0 1-.073-.036.084.084 0 0 1-.022-.065l.048-.583a.092.092 0 0 1 .035-.063l.281-.232.024-.016-.011-.028c0-.021-.047-.275-.073-.43l-.015-.091-.171.209a.08.08 0 0 1-.063.029h-.288a.072.072 0 1 1 0-.143h.239l.268-.33v-.007a.185.185 0 0 1 .144-.098.2.2 0 0 1 .144.037Zm-.818-.465a.185.185 0 1 1 .184.17.177.177 0 0 1-.188-.165Zm-5.413 3.824a.37.37 0 0 1 .123-.274c-.015-.067-.032-.132-.044-.2a4.898 4.898 0 0 1 .789-3.537.35.35 0 0 1-.016-.103.373.373 0 0 1 .371-.373.3.3 0 0 1 .034 0 3.903 3.903 0 0 1 3.997-.972.371.371 0 1 1-.147.305 3.57 3.57 0 0 0-3.561.852.37.37 0 0 1-.323.556.35.35 0 0 1-.122-.023 4.64 4.64 0 0 0-.693 3.229c.01.058.024.11.037.17a.373.373 0 0 1 .3.365.367.367 0 0 1-.11.268 4.057 4.057 0 0 0 2.609 2.53.373.373 0 1 1-.098.32 4.384 4.384 0 0 1-2.831-2.75.373.373 0 0 1-.315-.363m3.507 3.256a.206.206 0 1 0-.205-.206.206.206 0 0 0 .205.206m.169-3.42c-.121 0-.164.121-.164.22s.042.212.162.212a.145.145 0 0 0 .142-.117.17.17 0 0 0 0-.044v-.119a.151.151 0 0 0-.144-.156Zm-.118 6.398c3.656 0 6.63-3.352 6.63-7.472s-2.973-7.47-6.63-7.47-6.63 3.351-6.63 7.47 2.974 7.472 6.63 7.472M9.713 6.69a5.298 5.298 0 0 1 5.046 5.507 5.298 5.298 0 0 1-5.046 5.506 5.298 5.298 0 0 1-5.046-5.506A5.298 5.298 0 0 1 9.714 6.69Zm6.781 5.479c0 4.4-3.2 7.973-7.132 7.973-.11 0-.227 0-.34-.009a7.7 7.7 0 0 0 1.249.104 7.92 7.92 0 0 0 7.787-8.04 7.92 7.92 0 0 0-7.787-8.04 7.7 7.7 0 0 0-.799.042c3.882.066 7.022 3.621 7.022 7.97m5.634-10.997L3.412 1l-1.177.144 19.484.134ZM21.96 23l.379-.179V1.432l-.379.099v13.564ZM1.661 9.79v12.52l19.973.633V1.55L1.661 1.408Zm8.609-6.135a8.428 8.428 0 0 1 8.289 8.542 8.427 8.427 0 0 1-8.289 8.541 8.427 8.427 0 0 1-8.287-8.541 8.427 8.427 0 0 1 8.288-8.542Zm-.537 11.646.095-.137-.411-.285.401-.202-.075-.149-.654.328Z"/></svg>