<svg xmlns="http://www.w3.org/2000/svg" viewBox="0 0 24 24"><path fill="#44739e" d="M2.974 5.121a5.37 5.37 0 0 1 1.018-3.224C2.446 2.78 1.082 4.19 1.11 5.554v12.89c-.045 1.238 1.295 2.614 2.81 3.531-1.789-1.748-.641-14.521-.946-16.854m16.163-3.218L7.405 1.017c-.169-.015-.333-.007-.501-.009-2.11-.15-3.417 1.888-3.427 4.113v13.73c-.018 2.265 1.412 4.306 3.529 4.139.608.014 11.266-.85 12.131-.895a4.171 4.171 0 0 0 3.755-4.118V6.021a4.172 4.172 0 0 0-3.755-4.118m-7.144 14.181a.631.631 0 0 1-.22-1.012c.068-.604-.437-1.093 0-1.759.104-.699-.389-1.447-.03-2.024.239-.669-.48-1.375.038-2.048.143-.279-.28-.588-.212-.87.056-.363.711-.726.618-.205-.047.131-.326.208-.219.375a.956.956 0 0 1 .042 1.126c-.161.688.446 1.376-.008 2.064-.179.649.416 1.247.094 1.823-.082.255-.221.619-.049.828a.942.942 0 0 1-.007 1.011c-.197.195.198.352.212.533-.062.098-.148.21-.259.158m1.187-.125c-.413.309-.815-.523-.482-.844.205-.667-.474-1.097.084-1.896-.054-.721-.444-1.313-.046-2.026.174-.458-.344-.98-.188-1.444a1.078 1.078 0 0 0-.038-1.245c.035-.618 1.055-.706.514-.133-.115.033-.131.114-.06.262.506.553-.254 1.096.041 1.711.418.631-.205 1.31-.037 1.927a3.6 3.6 0 0 1 .209.845c-.041.344-.282.661-.251 1.014a1.129 1.129 0 0 1 0 1.359c.059.163.431.265.254.47m2.071-.353c-.337.615-.863.282-.317-.211-.562-.681.27-1.261-.146-1.949-.294-.548.246-1.127.115-1.661-.573-.901.32-1.47-.143-2.27-.198-.373.034-.607.17-.924-.114-.141-.44-.367-.198-.525.727.072.584.738.335 1.186a1.67 1.67 0 0 1 .006 1.668c0 .352.22.682.229 1.032.088.493-.437.999-.126 1.48a1.212 1.212 0 0 1-.063 1.21c-.199.307.464.666.138.964m.813-2.45c.176.415.395.917.066 1.32-.154.169-.086.344.018.504a.468.468 0 0 1-.046.707c-.102.161-.229.272-.407.21-.298-.221.375-.442.159-.668-.288-.317-.174-.714.01-1.099.127-.325-.187-.687-.188-1.016-.091-.453.393-.972.189-1.414a1.458 1.458 0 0 1-.016-1.405c.27-.37-.405-.895-.137-1.271.011-.148.274-.344.115-.484-.198-.102-.302-.411 0-.458.414.16.619.627.337.889-.334.404.307.852.115 1.286a1.565 1.565 0 0 0 .011 1.543c.126.462-.316.9-.226 1.356"/></svg>