<svg xmlns="http://www.w3.org/2000/svg" viewBox="0 0 24 24"><path fill="#44739e" d="M13.287 16.385c0-1.993-1.29-3.614-2.88-3.614s-2.879 1.621-2.879 3.614 1.29 3.616 2.879 3.616 2.88-1.622 2.88-3.616m.278.333a4.184 4.184 0 0 1-1.171 2.709 3.15 3.15 0 0 1-.617.464 3.02 3.02 0 0 0 .665-.35 3.675 3.675 0 0 0 1.419-3.067 3.79 3.79 0 0 0-1.551-3.235 3.2 3.2 0 0 0-.302-.182c.051.039.099.08.148.123a4.256 4.256 0 0 1 1.409 3.534Zm-.14-10.687c0-1.994-1.291-3.616-2.879-3.616s-2.88 1.622-2.88 3.616 1.29 3.614 2.88 3.614 2.879-1.625 2.879-3.618Zm-3-3.29a.265.265 0 1 1-.231.29v-.03a.25.25 0 0 1 .231-.263Zm0 .712a.399.399 0 0 1 .371.443c0 .203-.138.436-.34.436s-.403-.093-.402-.436a.401.401 0 0 1 .371-.443m0 6.029a.867.867 0 0 1-.775-.928.838.838 0 0 1 .775-.93.855.855 0 0 1 .775.93.858.858 0 0 1-.775.925Zm0-1.987a1.347 1.347 0 0 1-1.118-1.441 1.29 1.29 0 0 1 1.12-1.44c.71 0 1.128.728 1.12 1.44s-.397 1.44-1.12 1.44Zm4.282 15.063V1.389a.39.39 0 0 0-.39-.389l-6.966.256c-.2 0-.306.245-.306.475l-.029 20.33c0 .212.188.484.399.484l6.836.455a.491.491 0 0 0 .456-.443Zm-2.48-2.674a4.56 4.56 0 0 1-1.811.333h-.094c-1.72 0-3.119-1.73-3.119-3.857s1.399-3.858 3.119-3.858a3.74 3.74 0 0 1 1.874.443 3.974 3.974 0 0 1 1.903 3.489 3.82 3.82 0 0 1-1.872 3.451Zm.083-10.339a4.21 4.21 0 0 1-1.895.332c-.059 0 .054.021 0 0-.014-.01.006.017 0 0-.121.018.122 0 0 0-1.719 0-3.118-1.73-3.118-3.856s1.399-3.855 3.118-3.855c.117 0-.111-.015 0 0a3.71 3.71 0 0 1 1.866.443 3.916 3.916 0 0 1 1.9 3.481 3.92 3.92 0 0 1-1.871 3.455m4.249 12.001v-.083c0-.2-.009-.438-.009-.711l.009-19.115a.416.416 0 0 0-.34-.451l-1.39-.064a.57.57 0 0 1 .066.269 6.5 6.5 0 0 1 .017.806v.077l.013 20.027a.753.753 0 0 1-.055.419.64.64 0 0 1-.092.177l1.464-.131c.341-.196.339-.32.32-1.218h.056Zm-.325-14.425a.411.411 0 1 1-.82.043.3.3 0 0 1 0-.043V5.357a.411.411 0 1 1 .82-.042.3.3 0 0 1 0 .042Zm.295-5.981a.589.589 0 0 1 .215.5l-.01 19.113c0 .311.006.577.011.789.015.72.021 1.006-.18 1.219.163.02.352-.276.383-.572l.036-20.519c0-.196-.337-.507-.455-.533Zm-5.527 4.907a.704.704 0 0 1-.591.776.704.704 0 0 1-.592-.776.704.704 0 0 1 .592-.775.704.704 0 0 1 .591.775m2.639.349a4.19 4.19 0 0 1-1.17 2.706 3.15 3.15 0 0 1-.617.464 3.05 3.05 0 0 0 .664-.35 3.673 3.673 0 0 0 1.419-3.064 3.79 3.79 0 0 0-1.55-3.235c-.098-.065-.2-.126-.303-.181.051.038.1.079.149.123a3.918 3.918 0 0 1 1.408 3.537"/></svg>