<svg xmlns="http://www.w3.org/2000/svg" fill="#44739e" viewBox="0 0 24 24"><path d="M13.064 11.6c-1.12-4.34-4-7.447-6.7-7.447-.1 0-.208 0-.312.014l.168 1.2a.621.621 0 0 1-.53.7.621.621 0 0 1-.7-.53l-.145-1.029c-2.458 1.226-3.529 5.407-2.388 9.828 1.12 4.34 4 7.447 6.7 7.447a3.4 3.4 0 0 0 .854-.108 4.71 4.71 0 0 0 3.083-3.5 12.367 12.367 0 0 0-.03-6.575M17.6 2.217a2.7 2.7 0 0 0-.46.04l-1.31.112A3.636 3.636 0 0 1 18.242 4.4a10.26 10.26 0 0 1 1.137 4.912 10.26 10.26 0 0 1-1.137 4.911 5.56 5.56 0 0 1-.708 1.005c.005-.082.01-.164.013-.246a9.16 9.16 0 0 0 1.682-5.67c0-3.76-1.694-6.819-3.776-6.819a2.9 2.9 0 0 0-2.262 1.363l-.119-.092a4.51 4.51 0 0 0-3.227-1.019A31.4 31.4 0 0 0 5.8 4.085l.031-.009A4.891 4.891 0 0 1 10.4 5.692a12.56 12.56 0 0 1 3.212 5.859 12.55 12.55 0 0 1 .025 6.681 5.333 5.333 0 0 1-2.463 3.337 1.25 1.25 0 0 1-.369.2 27.9 27.9 0 0 0 3.612-.718l.741-.309a7.076 7.076 0 0 0 2.171-3.984l.441-.035a.048.048 0 0 0 .035-.019.046.046 0 0 1 .035-.02c2.318-.21 4.16-3.366 4.16-7.23 0-3.997-1.971-7.237-4.4-7.237m-2.634 2.165.042 1.48c-.039-.057-.195-.279-.234-.334l-.02-.885-.682.023c-.038-.039-.249-.25-.287-.287Zm2.447-.217.4 9.588-.264-.012-.006-.113.152.006-.055-1.283-.221-.007q-.05-.352-.114-.7l.082.07-.058-2.214-.891-.89c-.085-.217-.175-.431-.268-.641l1.14 1.091-.138-4.61-1.885.162.066 1.788c-.039-.063-.162-.257-.2-.319L15.091 4.4l.6-.061z"/></svg>