<svg xmlns="http://www.w3.org/2000/svg" viewBox="0 0 24 24"><path fill="#44739e" d="M13.462 15.448a.126.126 0 0 0-.116.22.124.124 0 0 0 .197-.102.137.137 0 0 0-.081-.118M3.364 5.9a5.133 5.133 0 0 1 .986-3.103 7.8 7.8 0 0 0-.869.567 4.078 4.078 0 0 0-1.902 2.95v12.335a4.144 4.144 0 0 0 2.02 2.946c.219.159.446.307.676.444a5.165 5.165 0 0 1-.911-3.001Zm10.354 9.172a.294.294 0 0 0-.21-.097.27.27 0 0 0-.208.101c-.023.035-.315.783-.335.861-.006.023 0 .024.06.024h.066l.061-.161c.048-.132.059-.168.053-.2a.211.211 0 0 1 .064-.184.36.36 0 0 0 .082-.146.7.7 0 0 1 .053-.116.141.141 0 0 1 .199-.01 2.3 2.3 0 0 1 .175.417c.08.213.148.391.153.396a.19.19 0 0 0 .071 0h.062l-.16-.424a4.5 4.5 0 0 0-.186-.461m5.116-12.253-11.71-.857c-2.473 0-3.192 1.825-3.28 3.938v13.138c0 1.587.666 3.962 3.28 3.962.032 0 11.707-.857 11.707-.857a3.992 3.992 0 0 0 3.59-3.937V6.761a3.993 3.993 0 0 0-3.587-3.942m-5.327 14.672a1.907 1.907 0 0 1-1.027-3.514V8.379a1.027 1.027 0 0 1 2.054 0v5.594a1.907 1.907 0 0 1-1.027 3.518m.811-3.309-.074-.041v-3.324h-.505v-.3h.505v-.548h-.505v-.3h.505v-.516h-.505v-.3h.505v-.471a.734.734 0 1 0-1.468 0v5.756l-.072.042a1.621 1.621 0 1 0 1.614 0Zm-.811 2.423a1.012 1.012 0 0 1-.44-1.929v-2.718a.386.386 0 0 1 .386-.386h.116a.386.386 0 0 1 .385.386v2.718a1.011 1.011 0 0 1-.441 1.929ZM7.124 1"/></svg>