<svg xmlns="http://www.w3.org/2000/svg" viewBox="0 0 24 24"><path fill="#44739e" d="M10.828 1.299a12.19 12.19 0 0 0-3.689 1.12 9.58 9.58 0 0 1 3.333-.612 9.73 9.73 0 0 1 9.767 9.694v.092c.078 6.388-4.29 10.237-8.437 10.531a9.357 9.357 0 0 1-5.53-1.059 8.95 8.95 0 0 0 4.2 1.059A9.802 9.802 0 0 0 19.94 12.02a9.8 9.8 0 0 0-9.468-10.102A9.8 9.8 0 0 0 1.005 12.02a10.202 10.202 0 0 0 5.045 8.93h-.009a9.915 9.915 0 0 0 5.848 1.851c6.379-.22 11.233-4.214 11.109-10.984A10.7 10.7 0 0 0 12.219 1.199a10.6 10.6 0 0 0-1.384.1M6.601 18.111a.055.055 0 0 1-.033 0h-.029a.071.071 0 0 1-.059-.026c-.061-.074.015-.214.668-1.064.122-.157.225-.292.284-.377h.006c.196-.194.254-.208.306-.183a.078.078 0 0 1 .036.092 5.12 5.12 0 0 1-1.179 1.558m.602.296H7.16l-.02-.036a6.58 6.58 0 0 1 .856-1.609l.016-.021h.029a.143.143 0 0 1 .143.071c.081.154-.154.514-.44.91l.045-.034-.208.296c-.283.39-.341.427-.38.427Zm.576.44-.042-.085c-.122-.22.153-.701.417-1.165a3.4 3.4 0 0 0 .3-.592l.012-.037h.037a.122.122 0 0 1 .146.059c.162.28-.752 1.684-.806 1.748Zm.687.197-.017.006a.1.1 0 0 1-.05.013.077.077 0 0 1-.055-.019c-.088-.078 0-.368.424-1.415.079-.193.147-.366.167-.428l.016-.048.051.009a.151.151 0 0 1 .11.082c.147.284-.39 1.344-.635 1.782Zm.948-1.657v-.036l.034-.014a.121.121 0 0 1 .162.033c.176.244-.387 1.734-.489 1.847l-.085.089-.017-.122a2.51 2.51 0 0 1 .235-1.222 1.98 1.98 0 0 0 .16-.571Zm-.11-5.38v-.008a.1.1 0 0 1 .11-.059.134.134 0 0 1 .11.095.122.122 0 0 1-.037.138.088.088 0 0 1-.06.024.103.103 0 0 1-.058-.02.148.148 0 0 1-.06-.17m-.02.11c0 .029-.046.272-.156.28h-.016a.073.073 0 0 1-.055-.025c-.033-.038-.017-.085.037-.22.046-.11.078-.178.143-.161s.051.091.045.133Zm2.656 8.647c0 .481-.122.65-1.55.67h-.154c-.733 0-1.123-.079-1.311-.265a.566.566 0 0 1-.145-.428c0-.529.366-.692 1.588-.692s1.588.17 1.588.693Zm-2.12-2.736q.075-.297.122-.6v-.049h.056a.142.142 0 0 1 .122.1 3.74 3.74 0 0 1-.363 1.854l-.078.091-.018-.112a3.62 3.62 0 0 1 .159-1.282Zm.593-.22c.018-.152.031-.272.035-.323v-.062l.063.008c.102.016.162.132.181.355.044.471-.11 1.539-.299 1.61l-.032.012-.033-.024c-.051-.041-.061-.22.085-1.573Zm.564-.297a.11.11 0 0 1 .04-.102.129.129 0 0 1 .131-.021c.082.044.087.156.087 1.016 0 .88-.008.965-.09 1a.14.14 0 0 1-.03 0 .172.172 0 0 1-.105-.06 10.85 10.85 0 0 1-.033-1.832Zm.489-.139.042-.015a.13.13 0 0 1 .151.047 3.75 3.75 0 0 1 .171 1.87.085.085 0 0 1-.07.04h-.006c-.089-.02-.142-.187-.252-1.608l-.023-.286Zm1.003 1.777a.093.093 0 0 1-.074-.04 5.56 5.56 0 0 1-.377-1.864l.009-.017.014-.006c.021-.011.09-.038.156.055a5.84 5.84 0 0 1 .352 1.789h.007c-.008.017-.024.074-.074.085Zm.672-.265-.023.047-.05-.019c-.041-.014-.089-.054-.195-.354a9.7 9.7 0 0 1-.392-1.446l.009-.01a.11.11 0 0 1 .152-.008 3.113 3.113 0 0 1 .499 1.788Zm.638-.33c-.33-.024-.504-.61-.66-1.127a3.4 3.4 0 0 0-.166-.489l-.021-.037.027-.026a.119.119 0 0 1 .116-.041c.177.036.354.514.586 1.186a4.6 4.6 0 0 0 .168.449l.051.094Zm.574-.275a.07.07 0 0 1-.033.009.08.08 0 0 1-.053-.024c-.11-.091-.956-1.423-.856-1.68l.011-.022a.085.085 0 0 1 .097-.022 3.564 3.564 0 0 1 .856 1.656.066.066 0 0 1-.028.074Zm.625-.537a.09.09 0 0 1-.062.095h-.022c-.056 0-.186-.06-.543-.556-.148-.205-.612-.88-.502-1.031l.018-.026h.033c.266.024 1.016 1.328 1.074 1.489v.011Zm.44-.401-.008.033-.061-.008c-.092-.015-1.184-1.124-1.137-1.44v-.046l.04-.008c.208-.042 1.078 1.026 1.174 1.309.034.085.016.128-.008.152Zm.534-.527a.055.055 0 0 1-.016.017.066.066 0 0 1-.028.033.057.057 0 0 1-.035.012c-.061 0-.22-.083-.733-.581-.697-.672-.647-.746-.622-.782a.07.07 0 0 1 .043-.03.09.09 0 0 1 .024-.024c.156-.089 1.064.9 1.1.942.319.342.295.374.265.411Zm.367-.566a.082.082 0 0 1-.058.024c-.058 0-.178-.046-.458-.234-.01 0-.945-.636-.934-.91a.062.062 0 0 1 .012-.086c.122-.096 1.166.734 1.35.94.055.054.174.189.092.264Zm.352-.567a.058.058 0 0 1-.035.009 7.46 7.46 0 0 1-1.474-.854c-.025-.021-.061-.052-.049-.093a.14.14 0 0 1 .024-.083l.059.018-.053-.022a.081.081 0 0 1 .078-.048 3.71 3.71 0 0 1 1.458.911.136.136 0 0 1 .02.101.069.069 0 0 1-.024.06Zm.351-.667a.124.124 0 0 1-.071.015 3.08 3.08 0 0 1-.901-.342c-.594-.288-.711-.354-.733-.445a.145.145 0 0 1 .057-.122c.07-.071.135-.05.854.302.188.08.812.36.826.519a.077.077 0 0 1-.032.065Zm.226-.694a.154.154 0 0 1-.11.024 4.14 4.14 0 0 1-1.506-.502c-.142-.11-.093-.204-.066-.244l.022-.024h.034c.189.027 1.485.375 1.61.63a.074.074 0 0 1 .017.101Zm.152-.672h-.097c-.322 0-1.45-.16-1.614-.416a.143.143 0 0 1 0-.151l.019-.034h.04l.11.017c1.118.15 1.567.304 1.547.524Zm-.104-.689a9.2 9.2 0 0 1-.97-.08h-.047c-.32-.03-.513-.068-.55-.184-.017-.049 0-.11.068-.158l.014-.012h.018a3.905 3.905 0 0 1 1.711.307.07.07 0 0 1 0 .077c-.019.012-.039.042-.245.042Zm.25-.806c-.062.153-.55.175-.825.175h-.076c-.244 0-.816-.031-.88-.202a.122.122 0 0 1 .056-.144 8.7 8.7 0 0 1 1.674.033.12.12 0 0 1 .051.132Zm0-.684c-.019.11-.205.134-1.32.244h-.054a2.2 2.2 0 0 1-.226.018.236.236 0 0 1-.165-.04.158.158 0 0 1-.049-.122v-.049l.022-.017a2.84 2.84 0 0 1 1.246-.232 1.54 1.54 0 0 0 .234-.018l.012.042.017-.053h.012c.198.093.28.14.266.22Zm-.086-.77c.018.08-.09.13-.136.15a5.46 5.46 0 0 1-1.457.304c-.103 0-.178-.013-.203-.046a.085.085 0 0 1 0-.11 2.11 2.11 0 0 1 1.077-.342c.098-.017.202-.032.254-.044v-.031h.075c.309.007.378.047.39.11Zm-.22-.77a.079.079 0 0 1 0 .092 3.33 3.33 0 0 1-1.503.612.37.37 0 0 1-.07-.007.146.146 0 0 1-.134-.122c0-.147.265-.234.698-.366a3.1 3.1 0 0 0 .394-.131h.01c.501-.152.572-.127.607-.081Zm-.473-.721a.166.166 0 0 1 .177 0 .146.146 0 0 1 .066.123.044.044 0 0 1 .015.022c.02.048-.025.082-.042.096a6.05 6.05 0 0 1-1.534.673.11.11 0 0 1-.051-.013.074.074 0 0 1-.029-.077c0-.22.47-.424 1.043-.651.122-.048.256-.101.312-.132v-.01Zm-.046-.565c.092.2-1.299.946-1.313.954l-.017.01h-.019c-.08-.008-.188-.029-.206-.11-.028-.129.211-.272.634-.513a5.2 5.2 0 0 0 .464-.282l.013-.006c.301-.104.409-.11.44-.038Zm-.626-.66h.016c.049-.013.183-.043.219.046.088.208-.879.888-1.134 1.039a.57.57 0 0 1-.245.102.08.08 0 0 1-.057-.031l-.016-.021v-.035c.053-.304.378-.514.696-.714a2.62 2.62 0 0 0 .504-.386Zm-.22-.591a.145.145 0 0 1 .077.102c.01.093-.081.187-.594.678-.225.232-.62.611-.78.611h-.018a.075.075 0 0 1-.056-.055c-.041-.161.488-.65.65-.798.598-.575.62-.599.721-.538m-.666-.476h.013c.088-.027.192-.049.24.02.07.11-.092.305-.478.733a4 4 0 0 0-.275.322c-.304.33-.39.367-.432.367l-.024-.012a.07.07 0 0 1-.053-.049 4.55 4.55 0 0 1 .99-1.376Zm-.528-.446.044-.071h.024c.033-.012.142-.045.196.027.085.115-.08.379-.481.929a3 3 0 0 0-.212.31l-.011.015c-.22.254-.318.317-.378.317a.074.074 0 0 1-.047-.017c-.043-.033-.142-.11.6-1.112.146-.22.203-.318.256-.404Zm-.49-.489.01-.025.028-.009a.122.122 0 0 1 .143.024c.028.037.122.143-.282.874-.074.135-.449.805-.593.805h-.036l-.039-.044c-.09-.244.22-.733.49-1.175a4.2 4.2 0 0 0 .264-.459Zm-.61-.33.005-.033.033-.013a.134.134 0 0 1 .16.037c.192.245-.624 1.704-.633 1.719l-.039.06-.062-.045c-.189-.189.026-.623.254-1.08a3.2 3.2 0 0 0 .272-.644Zm-.622-.279.008-.033.032-.012a.122.122 0 0 1 .155.049c.162.257-.378 1.65-.506 1.769l-.061.062-.044-.074a1.906 1.906 0 0 1 .22-1.173 4.1 4.1 0 0 0 .191-.587Zm-.749.244c.042-.173.082-.336.11-.465v-.028l.021-.012a.119.119 0 0 1 .122-.012c.045.024.098.085.086.354-.018.44-.225 1.399-.452 1.501l-.074.033-.012-.08a4.59 4.59 0 0 1 .196-1.296Zm-.044 6.658c-.022.046.062.16.013.158a1.1 1.1 0 0 1-.262 0 .406.406 0 0 1-.348-.204.33.33 0 0 1 .124-.45l.016-.009a.231.231 0 0 1 .301-.009.492.492 0 0 1 .15.515Zm-.579-6.82c.027-.22.053-.418.05-.468v-.072l.086-.006c.086-.008.142-.012.181.027s.035.11 0 .293a7.2 7.2 0 0 0-.085.716v.011a1.9 1.9 0 0 0-.025.268c-.015.318-.03.534-.122.6a.11.11 0 0 1-.068.024h-.02a.096.096 0 0 1-.06-.037c-.086-.11-.049-.542.061-1.369Zm-.253 6.38c.11-.072.162-.11.204-.062s.01.084-.036.147-.153.206-.122.28v.024c-.01.122.022.183-.033.192h-.056c-.023 0-.009-.014-.023-.043-.032-.071-.086-.419.06-.535Zm-.367-6.965L11 4.841a.11.11 0 0 1 .11-.037c.04.016.158.061.166.907 0 .234 0 1.008-.155 1.067a.13.13 0 0 1-.03 0 .085.085 0 0 1-.063-.03 3.9 3.9 0 0 1-.058-1.63c.007-.101.013-.199.013-.23Zm.029 6.881c.162.089.162.368.208.51.122.359-.062.144-.098.156a.42.42 0 0 1-.146.026.43.43 0 0 1-.367-.22.322.322 0 0 1 .127-.44.246.246 0 0 1 .264-.036Zm-.611-6.964c.384.11.324 1.656.288 1.906l-.013.078-.071-.032c-.22-.098-.246-.77-.263-1.519a2.75 2.75 0 0 0-.014-.356l-.057-.116Zm.022 7.024c.183.17.095.601.11.744h-.15v-.11c0-.069-.11-.012-.23-.058a.55.55 0 0 1-.244-.185.8.8 0 0 1 .015.155l-.012.198-.102-.184c-.159-.542-.281-.599-.314-.599s-.049 0-.086.064l-.028.044-.054-.015-.047-.021.01-.061.036-.11.005-.022.018-.012a.234.234 0 0 1 .252-.012.72.72 0 0 1 .255.427.558.558 0 0 1 .196-.281l.018-.013a.301.301 0 0 1 .337.043Zm-.735-6.992c.11-.015.21.121.305.44.118.402.294 1.416.11 1.502l-.026.013-.036-.017a3.84 3.84 0 0 1-.372-1.567 8 8 0 0 0-.043-.304l-.01-.062Zm-.676.11c.065-.009.122.036.192.133a3.504 3.504 0 0 1 .415 1.76l-.046.078-.053-.073a5.86 5.86 0 0 1-.559-1.834l-.013-.066Zm-.645.18a.207.207 0 0 1 .149.077 4.235 4.235 0 0 1 .648 1.739.073.073 0 0 1-.066.078h-.005c-.196 0-.77-1.644-.782-1.834v-.072Zm-.666.235h.02a.095.095 0 0 1 .052-.012c.269.021.88 1.512.926 1.704.01.037.025.091-.018.123l-.034.018-.024-.017c-.33-.056-.862-1.466-.953-1.71l-.013-.036v-.07Zm-.626.33a.122.122 0 0 1 .118-.015c.305.096 1.005 1.442 1.057 1.641l.026.11-.11-.036c-.354-.13-.66-.734-.897-1.222a7.7 7.7 0 0 0-.21-.404l-.024-.04Zm-.576.367a.098.098 0 0 1 .122-.033 4.85 4.85 0 0 1 1.189 1.587l-.012.047H7.75a.1.1 0 0 1-.037 0 .19.19 0 0 1-.055-.012 4.94 4.94 0 0 1-1.176-1.54l-.019-.025Zm-.492.379.021-.01c.037-.009.11-.027.612.489.134.141.806.855.753 1.014v.013l-.01.012a.14.14 0 0 1-.098.048c-.08 0-.146-.073-.517-.477-.717-.784-.828-.904-.818-1.002a.12.12 0 0 1 .057-.079Zm-.456.464h.016c.257.131 1.475 1.039 1.43 1.39a.062.062 0 0 1-.023.066.058.058 0 0 1-.042.018.275.275 0 0 1-.122-.065c-.087-.049-1.467-1.175-1.375-1.37.009-.019.038-.059.11-.04Zm-.526.562.024-.039.044.016a4.356 4.356 0 0 1 1.589 1.179l.019.024-.012.029a.124.124 0 0 1-.076.086H6.57c-.094 0-.266-.128-1.148-.795-.361-.261-.49-.379-.41-.498Zm-.399.567a.074.074 0 0 1 .06-.033 5.29 5.29 0 0 1 1.662 1.004.176.176 0 0 1 .034.09.076.076 0 0 1 .031.073l-.009.037h-.055a4.136 4.136 0 0 1-1.719-1.12l-.02-.026Zm-.379.595a.081.081 0 0 1 .074-.04.594.594 0 0 1 .293.06 5.74 5.74 0 0 1 1.519.838l.019.063-.067.011a.55.55 0 0 1-.083 0 3.72 3.72 0 0 1-1.755-.837.079.079 0 0 1-.012-.097Zm-.324.66a.079.079 0 0 1 .06-.064v-.018h.05c.09-.008 1.68.424 1.87.791a.073.073 0 0 1 .013.096c-.009.012-.022.032-.078.032a3.33 3.33 0 0 1-.88-.261c-1.064-.403-1.045-.525-1.038-.572Zm-.11.589c.029-.039.042-.061.812.147.342.093.808.227 1.007.304.07.027.136.053.122.11a.049.049 0 0 1-.024.04.123.123 0 0 1-.081.08.47.47 0 0 1-.155.021 3.46 3.46 0 0 1-1.687-.55.124.124 0 0 1-.018-.11Zm-.141.671c.32 0 1.719.142 1.923.41.058.037.06.074.048.102-.016.048-.11.065-.249.065a4.7 4.7 0 0 1-.705-.076c-.49-.082-1.076-.22-1.076-.44v-.056Zm-.126.709.015-.025h.031c.014 0 1.612-.058 1.884.236a.167.167 0 0 1 .046.137v.029l-.022.015a1.1 1.1 0 0 1-.33.028 3.99 3.99 0 0 1-1.605-.244.122.122 0 0 1-.02-.172Zm-.032.693.017-.027h.08c1.746-.162 1.856.036 1.89.102a.156.156 0 0 1-.036.184l-.008.019h-.965l-.012-.008a2.1 2.1 0 0 0-.235 0c-.11 0-.208.009-.3.009-.228 0-.394-.024-.45-.11a.148.148 0 0 1 .012-.163Zm.021.769a.11.11 0 0 1 .019-.046c.085-.11.489-.152 1.263-.2.148-.009.297-.018.361-.026v-.022l.062.01c.212.036.297.078.301.148s-.086.122-.167.143a6.07 6.07 0 0 1-1.394.175c-.232 0-.409-.024-.452-.086a.088.088 0 0 1 0-.098Zm.178.855-.036-.018v-.029a.207.207 0 0 1 .028-.172c.122-.171.536-.22.935-.257a2 2 0 0 0 .586-.11l.017-.012h.012c.266.018.33.056.349.11a.088.088 0 0 1-.04.102 6.1 6.1 0 0 1-1.779.392.18.18 0 0 1-.075-.01Zm.199.636a.151.151 0 0 1-.122-.131v-.034l.03-.019a3.27 3.27 0 0 1 .909-.319 5.1 5.1 0 0 0 .581-.17h.015c.258-.025.33 0 .352.054a.09.09 0 0 1-.018.11 3.6 3.6 0 0 1-1.602.533.5.5 0 0 1-.146-.021Zm.225.716-.025-.024a.18.18 0 0 1-.048-.181c.048-.182.419-.297.808-.418a2.3 2.3 0 0 0 .54-.204l.012-.008h.014c.347-.06.458-.055.476.03.044.22-1.724.798-1.742.803Zm.259.577a.11.11 0 0 1-.09-.089v-.026c.086-.194.44-.352.827-.523a3.74 3.74 0 0 0 .565-.282l.016-.008c.302-.1.38-.093.419-.048a.082.082 0 0 1 0 .101 4.43 4.43 0 0 1-1.702.88h-.032Zm.299.6a.09.09 0 0 1-.042-.056.066.066 0 0 1-.029-.039c-.03-.078.048-.146.937-.692.196-.122.378-.232.469-.292l.016-.009c.188-.064.27-.066.308-.01s-.02.134-.084.198a4.6 4.6 0 0 1-1.52.912.11.11 0 0 1-.05-.012Zm.414.61a.081.081 0 0 1-.05-.072v-.019a1.008 1.008 0 0 1 .528-.574 2.53 2.53 0 0 0 .476-.357c.49-.366.581-.322.612-.31a.078.078 0 0 1 .045.062c.012.146-.476.534-.902.821l-.014.008-.134.11c-.318.256-.452.342-.533.342a.1.1 0 0 1-.024-.013Zm.378.57-.03-.014-.012-.042c-.032-.143.746-.916 1.182-1.283.122-.122.232-.184.317-.162a.11.11 0 0 1 .083.085.343.343 0 0 1-.165.289c-1.088 1.024-1.284 1.126-1.344 1.126h-.024Zm.565.44a.055.055 0 0 1-.029-.008.078.078 0 0 1-.071-.036c-.052-.083.052-.22.66-.871.22-.237.428-.459.511-.577l.008-.014.019-.005c.04-.015.155-.055.206.018.094.144-.347.639-.734 1.031s-.509.461-.564.461Zm4.913-5.492a.14.14 0 0 0 .07-.11.163.163 0 0 0-.062-.141.205.205 0 0 0-.11-.045.086.086 0 0 0-.06.026.233.233 0 0 0-.029.266q.056.079.188 0m-.586 8.081c-1.353 0-1.353.22-1.353.462a.335.335 0 0 0 .082.264c.146.145.558.208 1.3.198a3.47 3.47 0 0 0 1.21-.135c.11-.057.122-.123.122-.305v-.029c0-.22 0-.46-1.356-.46m1.438-8.378a.179.179 0 0 0-.11.151.145.145 0 0 0 .095.141.123.123 0 0 0 .17-.029.163.163 0 0 0-.005-.22.143.143 0 0 0-.104-.05.2.2 0 0 0-.042.007Zm-1.76.208c.026.06.062.122.138.122a.206.206 0 0 0 .164-.153.142.142 0 0 0-.088-.161.13.13 0 0 0-.065-.017.165.165 0 0 0-.11.044.15.15 0 0 0-.045.166"/></svg>