<svg xmlns="http://www.w3.org/2000/svg" fill="#44739e" viewBox="0 0 24 24"><path d="m2.922 14.36 11.065 3.762a3 3 0 0 0 3.494-1.234l4.309-6.809a1.374 1.374 0 0 0-.818-2.059L10.891 5.443a2.994 2.994 0 0 0-2.9.827l-5.616 5.845A1.342 1.342 0 0 0 2 13.144a1.358 1.358 0 0 0 .922 1.216m9.362-3.221c-.518 0-.938-.252-.938-.562s.42-.563.938-.563.937.252.937.563-.421.562-.937.562m5.197 5.92a2.993 2.993 0 0 1-3.494 1.233L2.922 14.53a1.355 1.355 0 0 1-.917-1.2 1.361 1.361 0 0 0 .917 1.4l11.065 3.762a3 3 0 0 0 3.494-1.234l4.309-6.809a1.35 1.35 0 0 0 .2-.79 1.35 1.35 0 0 1-.2.591z"/></svg>