<svg xmlns="http://www.w3.org/2000/svg" viewBox="0 0 24 24"><path fill="#44739e" d="M21.891 1.166H9.334V8.21H23V2.275a1.109 1.109 0 0 0-1.109-1.109M9.334 22.819h12.553A1.109 1.109 0 0 0 23 21.71v-5.984H9.334ZM1 2.29v19.435a1.109 1.109 0 0 0 1.109 1.109h6.847V1.181H2.109A1.109 1.109 0 0 0 1 2.29m4.248 2.781a.319.319 0 1 1-.319.317.317.317 0 0 1 .319-.317m0 .896a.319.319 0 1 1-.319.318.317.317 0 0 1 .319-.318m0 .897a.319.319 0 1 1-.319.317.317.317 0 0 1 .319-.317m0 .896a.319.319 0 1 1-.319.318.319.319 0 0 1 .319-.318m0 .897a.319.319 0 1 1-.319.319.317.317 0 0 1 .319-.319m0 .897a.319.319 0 1 1-.319.318.317.317 0 0 1 .319-.318m0 .896a.319.319 0 1 1-.319.319.317.317 0 0 1 .319-.319m0 .897a.319.319 0 1 1-.319.318.317.317 0 0 1 .319-.319Zm0 .896a.319.319 0 1 1-.319.319.319.319 0 0 1 .319-.319m0 .898a.319.319 0 1 1-.319.318.317.317 0 0 1 .319-.318m0 .897a.319.319 0 1 1-.319.317.317.317 0 0 1 .319-.317m0 .896a.319.319 0 1 1-.319.318.317.317 0 0 1 .319-.318m0 .897a.319.319 0 1 1-.319.317.317.317 0 0 1 .319-.317m0 .897a.317.317 0 1 1-.319.317.317.317 0 0 1 .319-.317m0 .896a.319.319 0 1 1-.319.318.317.317 0 0 1 .319-.314Zm4.09-9.071H23v6.831H9.338Z"/></svg>