<svg xmlns="http://www.w3.org/2000/svg" viewBox="0 0 24 24"><path fill="#44739e" d="M11.964 14.759a.764.764 0 1 0 .66.758.715.715 0 0 0-.66-.758m-2.395 0a.764.764 0 1 0 .66.758.715.715 0 0 0-.66-.758m2.395-2.348a.77.77 0 1 0 .66.758.715.715 0 0 0-.66-.758m-2.395.005a.751.751 0 1 0 .647.743.701.701 0 0 0-.647-.743m2.395-2.352a.764.764 0 1 0 .66.757.715.715 0 0 0-.66-.757m-2.395.01a.751.751 0 1 0 .647.744.701.701 0 0 0-.647-.744m2.395-2.357a.764.764 0 1 0 .66.756.715.715 0 0 0-.66-.756m-2.395.016a.751.751 0 1 0 .647.743.701.701 0 0 0-.647-.743m2.395-2.364a.715.715 0 0 0-.659.757.668.668 0 1 0 1.319 0 .716.716 0 0 0-.66-.757m-2.395.023a.702.702 0 0 0-.646.743.653.653 0 1 0 1.293 0 .701.701 0 0 0-.647-.743m2.382-2.371a.715.715 0 0 0-.66.757.668.668 0 1 0 1.32 0 .716.716 0 0 0-.66-.757M9.559 4.537a.701.701 0 0 0 .646-.743.652.652 0 1 0-1.292 0 .701.701 0 0 0 .646.743m1.301 14.678h-.042a1.167 1.167 0 0 0-.989 1.32 1.21 1.21 0 0 0 1.092 1.217h.042a1.167 1.167 0 0 0 .989-1.319 1.21 1.21 0 0 0-1.092-1.218m.029-17.662a2.442 2.442 0 0 0-2.546 2.32v11.895a2.442 2.442 0 0 0 2.546 2.317 2.442 2.442 0 0 0 2.546-2.317V3.873a2.442 2.442 0 0 0-2.546-2.32m-1.33 1.336a.869.869 0 0 1 .824.905.828.828 0 1 1-1.65 0 .869.869 0 0 1 .826-.905m.009 13.526a.9.9 0 1 1 .814-.895.858.858 0 0 1-.813.892Zm0-2.348a.909.909 0 1 1 .825-.905.868.868 0 0 1-.824.902Zm0-2.341a.909.909 0 1 1 .825-.905.868.868 0 0 1-.824.902Zm0-2.341a.909.909 0 1 1 .825-.905.868.868 0 0 1-.824.902Zm0-2.341a.868.868 0 0 1-.824-.906.828.828 0 1 1 1.65 0 .869.869 0 0 1-.825.902Zm2.393 9.371a.9.9 0 1 1 .814-.895.858.858 0 0 1-.811.892Zm0-2.348a.9.9 0 1 1 .814-.895.858.858 0 0 1-.811.892Zm0-2.346a.9.9 0 1 1 .814-.897.859.859 0 0 1-.811.893Zm0-2.348a.9.9 0 1 1 .814-.897.859.859 0 0 1-.811.893Zm0-2.348a.858.858 0 0 1-.813-.895.817.817 0 1 1 1.627 0 .858.858 0 0 1-.811.892Zm-.013-2.348a.858.858 0 0 1-.813-.895.817.817 0 1 1 1.627 0 .858.858 0 0 1-.811.892Zm2.121 15.874V3.688a2.832 2.832 0 0 0-2.951-2.685H10.7a2.868 2.868 0 0 0-2.99 2.72v16.425a3.002 3.002 0 0 0 3.129 2.849h.545a2.576 2.576 0 0 0 2.685-2.446m-3.1 1.358h-.05a1.372 1.372 0 0 1-1.27-1.371 1.331 1.331 0 0 1 1.161-1.484 1.363 1.363 0 0 1 1.319 1.37 1.332 1.332 0 0 1-1.16 1.485m-.08-3.663a2.613 2.613 0 0 1-2.724-2.478V3.873a2.613 2.613 0 0 1 2.724-2.479 2.614 2.614 0 0 1 2.725 2.479v11.895a2.614 2.614 0 0 1-2.725 2.478m5.134-15.337-.091-.069v18.534l.077-.048c.011 0 .101-.085.178-.88.052-.542.081-1.25.081-1.992V5.638a8.46 8.46 0 0 0-.245-2.729m-3.045-1.857-.668-.049a2.914 2.914 0 0 1 1.988 2.685v16.863a2.667 2.667 0 0 1-1.79 2.446l.25-.014a3.849 3.849 0 0 0 3.073-1.76V2.682a3.669 3.669 0 0 0-2.853-1.63"/></svg>