<svg xmlns="http://www.w3.org/2000/svg" fill="#44739e" viewBox="0 0 24 24"><path d="M9.6 21.823h11.39A1.006 1.006 0 0 0 22 20.817V17.1H9.6ZM20.994 2.177H9.6v4.682H22V3.183a1.006 1.006 0 0 0-1.006-1.006M9.604 7.17H22v4.652H9.604ZM2.0234 3.183v17.634a1.006 1.006 0 0 0 1.006 1.006h6.213V2.177h-6.213a1.006 1.006 0 0 0-1.006 1.006m3.854 2.523a.289.289 0 1 1-.289.288.288.288 0 0 1 .289-.288m0 .813a.289.289 0 1 1-.289.289.288.288 0 0 1 .289-.289m0 .814a.289.289 0 1 1-.289.288.288.288 0 0 1 .289-.288m0 .813a.289.289 0 1 1-.289.289.289.289 0 0 1 .289-.289m0 .814a.289.289 0 1 1-.289.289.288.288 0 0 1 .289-.289m0 .814a.289.289 0 1 1-.289.288.288.288 0 0 1 .289-.288m0 .813a.289.289 0 1 1-.289.289.288.288 0 0 1 .289-.289m0 .814a.289.289 0 1 1-.289.288.288.288 0 0 1 .289-.289zm0 .813a.289.289 0 1 1-.289.289.289.289 0 0 1 .289-.289m0 .814a.289.289 0 1 1-.289.289.288.288 0 0 1 .289-.289m0 .814a.289.289 0 1 1-.289.288.288.288 0 0 1 .289-.288m0 .813a.289.289 0 1 1-.289.289.288.288 0 0 1 .289-.289m0 .814a.289.289 0 1 1-.289.288.288.288 0 0 1 .289-.288m0 .814a.288.288 0 1 1-.289.288.288.288 0 0 1 .289-.288m0 .813a.289.289 0 1 1-.289.289.288.288 0 0 1 .289-.285zm3.7266-4.963H22v4.652H9.604Z"/></svg>