<svg xmlns="http://www.w3.org/2000/svg" fill="#44739e" viewBox="0 0 24 24"><path d="M10.071 7.846a.758.81 0 0 1-.758.81.758.81 0 0 1-.758-.81.758.81 0 0 1 .758-.81.758.81 0 0 1 .758.81m.348-1.455s-2.648-.244-2.648 1.473c0 1.908 2.954 1.575 2.954 1.575s2.342.246 2.342-1.518c0-1.821-2.648-1.53-2.648-1.53M9.313 9.005a1.16 1.16 0 1 1 1.107-1.159 1.136 1.136 0 0 1-1.107 1.159m2.31-.974a.185.185 0 1 1 .185-.185.184.184 0 0 1-.185.185m2.7-5.648a11.76 11.76 0 0 0-4.636-.122 5.39 5.39 0 0 0-4.374 5.28c-.191 2.3 1.708 4.461 2.3 4.444 1.167-.034 2.71-.014 3.637.052a46.2 46.2 0 0 0 4.675.157A6.11 6.11 0 0 0 18.3 8.2a5.436 5.436 0 0 0-3.977-5.817m.871 5.594a3.39 3.39 0 0 1-.488 1.864 2.686 2.686 0 0 1-1.516 1.22s-.3.3-2.149.332c-.44.009-2.683.291-3.874-1.186a4.34 4.34 0 0 1-.913-2.361 3.169 3.169 0 0 1 1.673-3.041 5.354 5.354 0 0 1 2.841-.523 4.94 4.94 0 0 1 2.858.558 3.84 3.84 0 0 1 .881.9 3.493 3.493 0 0 1 .687 2.237m-4.64 5.467a.7.7 0 0 0-.627.758.6.6 0 0 0 .592.68.714.714 0 0 0 .732-.68c0-.627-.351-.758-.697-.758M7.538 12.3l-.141.743a63.5 63.5 0 0 0-.645 7.049c.77.68 8.333.959 10.023.018a39.96 39.96 0 0 0-.732-7.65c-3.415.104-4.268-.453-8.505-.16m2.981 2.77a.791.791 0 0 1-.78-.868.889.889 0 0 1 .815-.946.827.827 0 0 1 .885.946.9.9 0 0 1-.92.868m-3.352 5.464.035.8c1.679.976 8.835.569 9.19-.023l.04-.779a23.055 23.055 0 0 1-9.265.002"/></svg>