<svg xmlns="http://www.w3.org/2000/svg" fill="#44739e" viewBox="0 0 24 24"><path d="M21.8598 12.0408a2.182 2.2 0 0 0-.6784-1.5 6.0352 6.085 0 0 0-2.5192-2.016 16.9958 17.136 0 0 0-7.166-1.433 15.0003 15.124 0 0 0-6.8286 1.436c-1.705.909-2.6442 2.157-2.6442 3.513a2.8584 2.882 0 0 0 .0545.557c0 .047.01.1.0169.142a1.3528 1.364 0 0 0-.0407.331 2.415 2.435 0 0 0 .7002 1.671c1.3658 1.493 4.615 2.4 8.5525 2.4h.496a22.4072 22.592 0 0 0 7.3106-1.129c1.6722-.653 2.556-1.541 2.556-2.567v-.081a4.2867 4.322 0 0 0 .1904-1.324m-16.4365-1.124a21.9629 22.144 0 0 1 6.3784-.846 21.953 22.134 0 0 1 6.3784.846c1.6435.526 2.5857 1.238 2.5857 1.952s-.9422 1.425-2.5857 1.951a21.953 22.134 0 0 1-6.3784.846 21.9629 22.144 0 0 1-6.3784-.849c-1.6424-.526-2.5847-1.237-2.5847-1.951s.9423-1.422 2.5847-1.949m-.6942-2.25a14.8773 15 0 0 1 6.7681-1.419c3.9673 0 7.405 1.111 9.0256 2.717-1.7535-1.27-5.0295-2.148-8.6873-2.148-4.0596 0-7.5022 1.034-8.9929 2.7a3.0449 3.07 0 0 0-.6357 1.043 4.371 4.407 0 0 1 2.5212-2.892zm14.3238 7.143a22.2674 22.451 0 0 1-7.2512 1.117c-4.112.078-7.5269-.816-8.9154-2.334a2.2038 2.222 0 0 1-.6447-1.523c0-.709.6754-1.361 1.9231-1.873-.9839.486-1.5115 1.062-1.5115 1.672 0 .825.966 1.588 2.7195 2.15a22.1067 22.289 0 0 0 6.43.854 22.1017 22.284 0 0 0 6.43-.854c1.7545-.562 2.7206-1.325 2.7206-2.15a1.2408 1.251 0 0 0-.2976-.779 1.7932 1.808 0 0 1 .8312 1.348c-.003.918-.8659 1.76-2.435 2.373z"/></svg>