<svg xmlns="http://www.w3.org/2000/svg" viewBox="0 0 24 24"><path fill="#44739e" d="M17.039 23h-.037a10.3 10.3 0 0 1-1.38-.092l-.054-.008a8.3 8.3 0 0 1-.836-.164l-.237-.062a.889.889 0 0 1-.647-.855V3.36l-8.304.526a.323.323 0 0 1-.227-.078.305.305 0 0 1-.106-.215.3.3 0 0 1 .054-.197.295.295 0 0 1-.035-.128.314.314 0 0 1 .286-.333h.013l8.32-.528v-.098l-8.267.509a.316.316 0 0 1-.226-.553.307.307 0 0 1-.105-.218.316.316 0 0 1 .277-.329h.013l8.995-.572a.32.32 0 0 1 .093.007h.007l.083-.012.438-.052.141-.012c.598-.054 1.182-.08 1.747-.077a2.2 2.2 0 0 1 .709.158l.026.009h.017l.029.012.078.033.058.026a2.8 2.8 0 0 1 .45.254l.013.009a.888.888 0 0 1 .365.718v19.6a.888.888 0 0 1-.354.709 2.7 2.7 0 0 1-1.397.472m-2.24-.502a7.8 7.8 0 0 0 .808.156l.052.008a9.8 9.8 0 0 0 1.347.09h.026a2.446 2.446 0 0 0 1.259-.42.638.638 0 0 0 .258-.513V2.226a.641.641 0 0 0-.265-.518l-.012-.009a2.53 2.53 0 0 0-.406-.228l-.059-.027-.065-.028-.027-.01h-.018l-.036-.018a1.93 1.93 0 0 0-.618-.141c-.553 0-1.133.022-1.724.076l-.208.019-.243.031-.119.013-.139.017-.021-.007a.12.12 0 0 0-.031 0l-9.004.573a.069.069 0 0 0-.057.071.067.067 0 0 0 .07.061l8.699-.553-.097.192a1 1 0 0 0-.053.096l-.026.079-8.545.524a.071.071 0 0 0-.056.072.069.069 0 0 0 .072.061l8.529-.525v.591l-8.564.543a.069.069 0 0 0-.028.118l.162.118-.171.097a.067.067 0 0 0-.035.062.066.066 0 0 0 .022.043.07.07 0 0 0 .05.017l8.565-.543v18.726a.639.639 0 0 0 .473.615l.214.057Zm1.974-.258h-.126a9.34 9.34 0 0 1-1.464-.139l-.039-.007h-.038l-.076-.016h-.037l-.078-.016H14.9l-.119-.028-.042-.01-.108-.027-.088-.024-.09-.026v-4.825l.149.032h.034l.045.008.074.012h.054l.289.04h.02l.05.007h.096l.144.011h.212l.165.011h.172l.303.01h.034l.323.007h.163Zm.426 0v-4.922l.119-.007a2.48 2.48 0 0 0 .652-.124l.165-.058v4.761l-.052.038a1.6 1.6 0 0 1-.37.192l-.075.024-.019.007h-.017l-.028.01h-.014l-.078.021h-.078l-.052.01Zm0-5.293V2.714a2.62 2.62 0 0 1 .933.355v13.658l-.079.039a1.99 1.99 0 0 1-.721.17Zm-.427 0h-.6l-.302-.01h-.023l-.107-.007h-.03l-.402-.029a.4.4 0 0 1-.052 0l-.083-.007h-.19l-.118-.017h-.016l-.082-.013-.068-.011-.045-.009h-.01l-.065-.013h-.012l-.027-.007-.091-.025V2.806l.15-.019.178-.021h.045l.072-.008.094-.007.157-.015c.531-.043 1.038-.067 1.505-.068h.124Zm1.362-14.284-.183-.099c-.06-.032-.132-.071-.208-.104l-.026-.012-.012-.006-.023-.009-.015-.006h-.009l-.043-.018a.17.17 0 0 1-.033-.012l-.035-.013h-.007l-.023-.008c-.038-.013-.316-.098-.316-.098V1.77l.167.041.043.011h.007l.022.007.068.022.028.009.023.008h.019l.035.014h.007l.023.009.069.028.035.015.118.058a1.7 1.7 0 0 1 .221.132l.052.038ZM14.445 2.4v-.49l.218-.027.253-.027.431-.037.237-.015h.137l.133-.008h.266c.15 0 .337-.011.525-.011h.124v.496h-.124c-.492 0-1.022.028-1.575.076h-.027l-.075.007h-.047l-.342.038Z"/></svg>