<svg xmlns="http://www.w3.org/2000/svg" viewBox="0 0 24 24"><path fill="#44739e" d="M11.998 13.87c-3.508 0-6.352 1.812-6.352 4.046s2.839 4.046 6.352 4.046 6.353-1.812 6.353-4.046-2.849-4.046-6.353-4.046m.455-2.345h.06l.033-.007.018-.005.021-.007h.019l.019-.009.017-.01.016-.007.012-.009.015-.011a.383.383 0 0 0 .155-.305v-.035a.4.4 0 0 0-.041-.153l-.011-.02-.012-.018-.005-.008-.001-.021-.009-.011-.011-.012-.008-.008-.011-.011-.016-.015-.017-.014-.014-.01-.013-.01-.02-.011h-.009l-.019-.01-.015-.007-.018-.006h-.129a.386.386 0 1 0 0 .77Zm-.499-1.882c-5.699 0-10.322 2.991-10.322 6.679S6.255 23 11.954 23s10.322-2.99 10.322-6.678-4.622-6.679-10.322-6.679m2.476.898h.182l.022.007.027.009h.014l.017.006.019.01.015.007.012.006.021.013.024.015.019.013.018.013.011.01.018.016.009.006.015.015.009.009.019.02.007.01.009.01.013.018.012.015.014.02v.008l.013.022.006.012.009.017.01.021.008.019v.009l.008.018v.015l.006.023v.755a.015.015 0 0 1-.015.016h-.143a.015.015 0 0 1-.016-.013v-.143l-.018.015-.017.011-.012.009-.018.012-.023.014-.022.012h-.01l-.026.012-.016.008-.02.008-.02.006-.018.006h-.168a.597.597 0 0 1-.019-1.195Zm-1.21.618a.603.603 0 0 1 .598-.598h.01v.211a.389.389 0 0 0-.394.38v.594h-.21Zm-.77-.619h.098a.7.7 0 0 1 .063.013h.009l.041.014.028.01.021.01.026.013.01.005.027.017.025.015.018.014.03.024.012.011.01.009.016.016.014.014.017.02.009.011.017.021.008.013.011.017.007.011.012.019.014.028.01.021.013.033.008.02v.013l.008.027v.018l.005.024v.704a.015.015 0 0 1-.015.015h-.183a.015.015 0 0 1-.015-.013v-.143l-.035.027-.022.015-.024.014-.02.012-.019.009-.024.011-.023.01-.02.008-.028.009-.022.005h-.024l-.024.006h-.101a.598.598 0 1 1 0-1.196Zm-1.38 0h.184l.021.007.019.006h.009l.023.01.016.007.018.009.02.01h.008l.018.011.018.011h.007l.02.014.015.012.015.012.01.008.014.013.009.009.009.009.009.01.009.011.009.008.014.019.019.025.007.01.012.018.006.012.014.022.008.018.01.02.008.019.007.018.006.017v1.076a.015.015 0 0 1-.015.016h-.183a.017.017 0 0 1-.015-.015v-.43l-.019.016-.015.012-.012.008-.011.007-.014.009-.016.01-.023.012h-.01l-.018.009-.024.01-.021.007h-.011l-.025.008h-.01l-.022.005h-.136a.6.6 0 0 1-.02-1.197Zm-2.256 1.205.467-1.231a.416.416 0 0 1 .531-.239.41.41 0 0 1 .239.232l.47 1.238v.006h-.22l-.44-1.159a.205.205 0 0 0-.117-.116.199.199 0 0 0-.254.11l-.11.28a.309.309 0 0 0-.172.276.3.3 0 0 0 .023.117l-.187.491h-.22Zm.921-.594a.208.208 0 1 1-.207-.205.207.207 0 0 1 .207.205m2.227 11.674c-4.298 0-7.783-2.31-7.783-5.163s3.485-5.164 7.783-5.164 7.782 2.31 7.782 5.164-3.485 5.163-7.782 5.163m2.487-11.3h.05a.388.388 0 0 0 .338-.377v-.028a.383.383 0 0 0-.098-.238l-.007-.007v-.006a.3.3 0 0 0-.037-.033l-.009-.006-.01-.007-.015-.011-.015-.009-.02-.01-.025-.01h-.011l-.02-.006h-.012l-.022-.006h-.075a.386.386 0 1 0 0 .77Zm-3.355.002h.049a.386.386 0 0 0 .338-.378v-.029a.377.377 0 0 0-.099-.238l-.012-.013a.3.3 0 0 0-.037-.033l-.009-.007-.009-.007-.017-.011-.015-.009-.019-.01h-.006l-.025-.011-.018-.006-.019-.006h-.102a.387.387 0 1 0 0 .77Zm.925-9.996c5.17 0 9.471 2.484 10.367 5.76C21.898 3.763 17.416 1 11.954 1 6.168 1 1.477 4.1 1.477 7.923a2.8 2.8 0 0 0 .012.316c.251-3.733 4.869-6.708 10.53-6.708M2.758 12.449c1.914-2.002 5.337-3.335 9.24-3.335h.032c.595.007 9.743.229 10.83 7.026 0-.137-.008-.273-.02-.409l-.303-6.6V9.03q0-.233-.026-.465v-.007c-.393-3.643-4.953-6.517-10.513-6.517S1.878 4.915 1.483 8.558v.078c-.014.143-.02.287-.02.433v.023l-.284 6.454a4.8 4.8 0 0 0-.039.594v.297l.007-.067a7.015 7.015 0 0 1 1.241-3.502 5.4 5.4 0 0 1 .37-.419"/></svg>