<svg xmlns="http://www.w3.org/2000/svg" viewBox="0 0 24 24"><path fill="#44739e" d="M15.933 22.19a7.14 7.14 0 0 1-2.576.039h.036a9.87 9.87 0 0 1-4.385-2.2 12.107 12.107 0 0 1-3.421-9.587c.276-2.81 2.228-7.942 7.24-8.846.086-.021.173-.038.258-.054a17.4 17.4 0 0 0-2.178.163c-.256.034-.957.158-.957.158a8.96 8.96 0 0 0-3.536 2.228 10.576 10.576 0 0 0-2.843 8.14 11.91 11.91 0 0 0 6.65 9.997l2.05.083a.22.22 0 0 0 .207.2c.205.012.482.027.808.031 2.2.022 2.53-.015 2.632-.145.019-.025.012-.022.01-.025a1.7 1.7 0 0 0 .005-.178ZM14.404 1.452a7.3 7.3 0 0 0-1.313.122c-.087.016-.173.034-.26.054-3.995.886-7.022 5.107-7.022 10.177 0 5.72 3.85 10.352 8.595 10.352S23 17.522 23 11.805 19.15 1.452 14.404 1.452m7.408 9.3a.11.11 0 0 1 0 .159.11.11 0 0 1-.094.034.122.122 0 0 1-.122-.122c0-.082.151-.132.212-.071m-.28.911a.123.123 0 0 1-.011.154.102.102 0 0 1-.175-.08c0-.11.141-.156.187-.074Zm-.121-2.661a.118.118 0 0 1-.036.208c-.065.016-.096 0-.096-.056a.23.23 0 0 0-.023-.086c-.036-.076.092-.132.155-.066m-.277 1.86a.122.122 0 0 1-.098.202.13.13 0 0 1-.11-.122c.006-.102.165-.165.211-.08Zm-.21 4.07v.026a.3.3 0 0 0 .015.067c.016.036.012.036-.033 0s-.036-.08.018-.093m-.612-3.988a.1.1 0 0 1 .048.036c.029.034.041.11.017.11s-.086-.14-.065-.14Zm-.088 2.945c0 .014-.024 0-.044-.041s-.024-.067-.014-.067.032.02.044.043a.11.11 0 0 1 .01.069Zm-.022-5.105c0 .03 0 .03-.015 0a.173.173 0 0 0-.066-.066c-.036-.019-.042-.027-.018-.027a.11.11 0 0 1 .07.032.103.103 0 0 1 .028.06Zm-.081.05c0 .022-.009.034-.021.026a.053.053 0 0 1-.021-.039.077.077 0 0 0-.031-.052c-.016-.015-.024-.037-.016-.049s.089.051.089.101Zm.01-1c.036.036.044.143.012.164-.012.008-.022-.012-.022-.05a.12.12 0 0 0-.034-.088c-.031-.024-.033-.024-.02.019.031.098-.01.142-.048.054-.054-.11.024-.184.11-.098Zm-.794-.404a.096.096 0 0 1 .122.013c.037.046.006.063-.04.024s-.085-.05-.048-.01.034.14.008.138-.085-.156-.044-.177Zm.132.167c-.028.029-.031 0-.009-.061.014-.036.015-.036.024 0a.076.076 0 0 1-.024.061Zm.008 1.525a.165.165 0 0 1 .026.098c-.007.042-.012.036-.048-.034l-.048-.098c-.025-.041.035-.01.065.034Zm-.146.734a.076.076 0 0 1 .052.039c.049.095.006.116-.045.022-.037-.053-.038-.064-.012-.064Zm-.086-3.277a.157.157 0 0 1 .021.16c-.021.053-.056.038-.045-.019a.11.11 0 0 0-.027-.097l-.04-.043.024.054a.143.143 0 0 1 .008.093c-.012.03-.024.02-.055-.054-.057-.119.021-.183.11-.095Zm.033 3.995c.06.11.012.208-.097.208-.073 0-.11-.044-.11-.123-.006-.11.153-.174.202-.087Zm-.207 1.711a.088.088 0 0 1 0 .11.11.11 0 0 1-.19-.097.11.11 0 0 1 .138-.053.103.103 0 0 1 .046.041Zm-.033-1.031a.11.11 0 0 1-.073.132.11.11 0 0 1-.11-.034c-.045-.061-.042-.091.018-.15s.132-.047.159.049Zm-.22-1.551c-.151 0-.134-.238.021-.256a.19.19 0 0 1 .056.029.122.122 0 0 1 .037.17.125.125 0 0 1-.119.055Zm.091-1.711c-.06-.061-.098-.041-.059.025.027.046.03.069.012.098s-.024.035-.048-.021a.66.66 0 0 0-.047-.098c-.031-.053.091-.082.141-.032a.084.084 0 0 1 .024.043c0 .012-.021 0-.039-.012Zm0 .893c-.014.012-.036-.01-.066-.064-.039-.072-.04-.083-.011-.076a.132.132 0 0 1 .066.06c.016.041.019.066.006.081Zm-.118-3.158a.079.079 0 0 1 .11 0l.01.013c.068.069.022.213-.058.183s-.11-.143-.068-.18Zm-.018 1.441c.03.025.037.123 0 .123-.013 0-.013-.013-.007-.025s-.008-.049-.047-.081c-.059-.051-.012-.053.049 0Zm-.147-.011c.016-.024.065.025.086.086a.124.124 0 0 1 0 .085c-.018.037-.11-.134-.088-.158Zm.15 3.018c.031.037.031.158 0 .178-.088.053-.184.011-.184-.085a.11.11 0 0 1 .179-.092Zm-.177 1.76c-.042 0-.079-.086-.061-.15.033-.122.184-.094.196.038q0 .118-.136.118Zm-.085-.957c-.102.024-.153-.137-.061-.199.056-.041.073-.041.12 0a.11.11 0 0 1-.063.201Zm-.151-4.591c0-.055.122-.05.155.007a.11.11 0 0 1 .01.11c-.021.058-.026.062-.044.032s-.024-.03-.036-.01-.083-.091-.083-.146Zm-.012-1.468c.059-.043.152-.036.177.01a.131.131 0 0 1-.11.208c-.05 0-.059-.01-.059-.053a.22.22 0 0 0-.025-.095c-.024-.036-.024-.048.01-.07Zm.033 3.669a.123.123 0 0 1-.05.166.11.11 0 0 1-.034.012c-.082.021-.122 0-.139-.088-.037-.165.152-.242.22-.09Zm-.44 5.253c.044.053.019.163-.04.177a.098.098 0 0 1-.116-.074.097.097 0 0 1 .03-.094.083.083 0 0 1 .11-.025.08.08 0 0 1 .02.016Zm.047-1.29a.095.095 0 0 1-.081.169c-.049 0-.061-.017-.065-.077-.012-.11.07-.156.152-.089Zm.051 1.912a.11.11 0 0 1-.055.174.098.098 0 0 1-.129-.054v-.02c-.032-.129.119-.208.189-.1m-.072-2.52c-.064 0-.086-.03-.086-.11a.087.087 0 0 1 .077-.096.09.09 0 0 1 .077.033.1.1 0 0 1-.072.174Zm.032-1.467a.075.075 0 0 1 .101-.028.1.1 0 0 1 .021.016.101.101 0 0 1 .016.14.102.102 0 0 1-.066.036c-.11.012-.146-.08-.078-.16Zm.167-.62c.062-.016.067-.014.11.027a.11.11 0 0 1 .013.157.11.11 0 0 1-.097.038c-.103 0-.127-.191-.026-.22Zm.036 1.454c.053-.036.066-.036.11.012.074.074.05.144-.056.172s-.134-.126-.057-.182Zm.152.88a.12.12 0 0 1 .024.078c0 .11-.122.147-.168.051s.066-.204.144-.126Zm-.056-2.75c-.06.011-.077.01-.098-.021-.086-.11.048-.277.146-.179a.122.122 0 0 1 0 .173.15.15 0 0 1-.043.026Zm-.122-1.616a.12.12 0 0 1 .028.089c0 .041-.012.036-.054-.039s-.034-.118.03-.052Zm-.177-2.26a.103.103 0 0 1 .14.034l.006.01c.039.077.014.165-.05.159s-.144-.174-.093-.205Zm-.052 1.453c.068-.016.082-.014.11.023s.048.161.022.177-.019-.024-.021-.065a.15.15 0 0 0-.031-.089c-.036-.022-.042-.012-.021.047s.012.1-.02.1c-.008 0-.017-.017-.017-.037a.16.16 0 0 0-.031-.078c-.036-.054-.036-.068 0-.079Zm-.027 3.967a.11.11 0 0 1 .008.147c-.037.036-.135.032-.149-.007-.043-.124.061-.22.146-.141Zm-1.621 2.24a.123.123 0 0 1-.042-.086l.029-.04.028-.054a.11.11 0 0 1 .104.018c.077.07-.025.22-.118.168m.256.304a.091.091 0 0 1-.034.124.096.096 0 0 1-.048.012c-.065.007-.094-.021-.094-.099a.09.09 0 0 1 .175-.041Zm-.55.856a.091.091 0 0 1 .087-.094.088.088 0 0 1 .088.058c.026.071 0 .122-.069.134a.09.09 0 0 1-.11-.069.13.13 0 0 1 0-.03Zm-.11.545a.099.099 0 0 1 .03-.138.11.11 0 0 1 .057-.016c.05 0 .07.012.086.054.045.11-.119.207-.17.093Zm.156-1.071a.091.091 0 0 1 .122-.043.09.09 0 0 1 .048.06.078.078 0 0 1-.02.098c-.084.091-.208 0-.15-.117Zm-.873-3.885a.117.117 0 0 1 .012-.064.096.096 0 0 1 .129-.043l.011.007a.099.099 0 0 1 .022.136 1.2 1.2 0 0 0-.134-.03Zm1.967 1.313c-.045-.122.09-.207.158-.101a.091.091 0 0 1-.072.154c-.05 0-.069-.012-.085-.053Zm.068 1.101a.096.096 0 0 1 .134.006l.008.009c.053.098-.055.208-.134.142a.131.131 0 0 1-.012-.154Zm.012-2.641a.09.09 0 0 1-.07-.151.079.079 0 0 1 .103-.047.077.077 0 0 1 .037.028.096.096 0 0 1 .038.13.095.095 0 0 1-.11.046Zm.072-2.64c-.024-.045-.038-.088-.031-.094s.064.024.09.073a.079.079 0 0 1 0 .071c-.012.02-.024.012-.059-.049Zm-.017 1.899a.11.11 0 0 1 .009.158.11.11 0 0 1-.069.038.11.11 0 0 1-.098-.11.11.11 0 0 1 .048-.082c.059-.046.07-.045.11-.006Zm-.024 1.13a.101.101 0 0 1-.031.138.11.11 0 0 1-.055.016c-.063 0-.085-.029-.085-.11a.089.089 0 0 1 .171-.049Zm-.155.446a.11.11 0 0 1-.068.181.089.089 0 0 1-.095-.084v-.006c0-.094.11-.149.163-.092Zm-.11 2.012c.054.086-.064.208-.142.142a.131.131 0 0 1 0-.161.11.11 0 0 1 .142.012Zm-.11-.99c0-.11.122-.147.166-.061a.101.101 0 0 1-.054.15.085.085 0 0 1-.11-.095Zm.019.532c0-.11.089-.154.155-.084a.101.101 0 0 1 0 .145.08.08 0 0 1-.03.02c-.069.033-.122 0-.122-.088Zm-.045-.954c-.098.022-.139-.122-.054-.185.058-.04.056-.04.103 0a.102.102 0 0 1-.049.178Zm-.342.21a.11.11 0 0 1 .039-.046c.056-.037.061-.039.104 0a.11.11 0 0 1 .027.146.11.11 0 0 1-.045.036.09.09 0 0 1-.101-.018c-.012-.043-.012-.081-.024-.11Zm.189-.855a.101.101 0 0 1 0 .145.1.1 0 0 1-.03.02c-.073.042-.122 0-.122-.091s.088-.157.155-.086Zm-.051-.387a.09.09 0 0 1 .176-.036c.024.07 0 .122-.07.134a.089.089 0 0 1-.11-.062.09.09 0 0 1 0-.048Zm-.077 1.719v-.008a.092.092 0 0 1 .087-.099.096.096 0 0 1 .069.025.128.128 0 0 1 .025.079c0 .11-.123.146-.171.052a.11.11 0 0 1-.01-.045m.205-2.119c-.103 0-.122-.174-.024-.212.046-.017.046-.017.085.02a.11.11 0 0 1 0 .157.11.11 0 0 1-.059.03Zm-.041-.535c-.042 0-.076-.041-.076-.11s.049-.122.094-.122a.11.11 0 0 1 .061.031.122.122 0 0 1-.025.172.12.12 0 0 1-.043.021Zm0-1.87c-.17.039-.191-.233-.019-.276a.18.18 0 0 1 .049.021.14.14 0 0 1-.029.256Zm-.054 1.1a.116.116 0 0 1-.057.206c-.098 0-.122-.14-.044-.192.054-.037.048-.036.1-.011Zm-.134 2.5a.092.092 0 0 1 0 .129.095.095 0 0 1-.072.025.11.11 0 0 1-.037 0 1.5 1.5 0 0 0-.048-.122.09.09 0 0 1 .002-.028c.042-.068.104-.066.148 0Zm-.263-.834c.053-.051.073-.051.122 0a.095.095 0 0 1 .014.133.09.09 0 0 1-.042.03c-.097.061-.179-.073-.091-.159Zm-.021-.403a.095.095 0 0 1 .09-.1.094.094 0 0 1 .088.049.091.091 0 0 1-.065.143c-.064.008-.116-.025-.116-.086Zm.057.84a.11.11 0 0 1-.007.154.11.11 0 0 1-.053.025l-.029-.045-.044-.065-.02-.025.013-.029a.096.096 0 0 1 .134-.018h.006ZM15.86 9.31c.054-.036.045-.034.089-.017a.112.112 0 0 1-.042.22.11.11 0 0 1-.095-.119.11.11 0 0 1 .047-.077Zm.056.488a.11.11 0 0 1 .141 0c.077.078-.026.225-.122.169a.132.132 0 0 1-.019-.169m.165-1.108c0-.11.088-.145.154-.074a.11.11 0 0 1 0 .151.11.11 0 0 1-.035.024c-.074.031-.122-.01-.122-.091Zm.153-1.198a.11.11 0 0 1-.194-.082.152.152 0 0 1 .11-.122.13.13 0 0 1 .073.042.11.11 0 0 1 .011.16v.005Zm-.287.799a.11.11 0 0 1-.094-.121.11.11 0 0 1 .044-.074c.054-.036.045-.034.089-.019a.112.112 0 0 1-.04.22Zm-.159.72a.101.101 0 0 1-.097-.176.091.091 0 0 1 .128-.009.122.122 0 0 1-.01.173l-.014.011Zm-.22.737a.103.103 0 0 1 0-.206.125.125 0 0 1 .068.025.11.11 0 0 1 0 .154.11.11 0 0 1-.066.03Zm-.026-1.203c-.066.018-.11-.02-.11-.1 0-.11.086-.152.154-.083a.11.11 0 0 1 .013.15.102.102 0 0 1-.058.036Zm-.072.569a.15.15 0 0 1 .025.092.091.091 0 0 1-.154.072.11.11 0 0 1-.01-.151.11.11 0 0 1 .071-.037.12.12 0 0 1 .067.029Zm.086.963a.11.11 0 0 1 .049-.07c.058-.042.063-.04.11 0a.11.11 0 0 1 0 .151h-.01a1 1 0 0 0-.122-.065Zm.338.22a.08.08 0 0 1 .022-.051.092.092 0 0 1 .132.008l.009.012a.11.11 0 0 1-.04.149l-.021-.022-.074-.071Zm.66 1.98a.12.12 0 0 1 .089-.08.103.103 0 0 1 .06.03.11.11 0 0 1 0 .158c-.063.072-.149.026-.15-.081Zm.122.782c.055-.055.11-.045.141.025.051.11-.072.211-.147.123-.048-.06-.048-.093 0-.146Zm.208.412a.13.13 0 0 1 .06.041c.067.066.042.147-.055.174-.046.013-.11-.048-.11-.11a.19.19 0 0 1 .103-.11Zm.141.54a.11.11 0 0 1-.016.158c-.065.034-.104.026-.131-.029-.048-.103.065-.204.144-.126Zm-.131.562c.045-.068.128-.066.156 0s.025.082-.012.122a.096.096 0 0 1-.144-.11Zm.156-1.511c0-.11.088-.154.154-.082a.097.097 0 0 1 0 .137.083.083 0 0 1-.039.025c-.072.037-.122.005-.122-.08Zm.32.392a.101.101 0 0 1 0 .143.11.11 0 0 1-.033.021c-.054.03-.06.029-.088-.008-.086-.11.03-.259.123-.156Zm-.03.525a.11.11 0 0 1 .141 0c.077.075-.024.22-.122.166a.132.132 0 0 1-.02-.167Zm-.11-2.077c-.037-.097.058-.188.139-.138a.14.14 0 0 1 .038.071c.027.11-.138.171-.178.065Zm.171-1.169c.058-.04.068-.04.11 0a.11.11 0 0 1 0 .148.11.11 0 0 1-.039.025.097.097 0 0 1-.073-.175Zm.134.699c.019-.048.122-.041.154.012a.103.103 0 0 1-.033.143l-.021.01c-.091.021-.136-.063-.102-.166Zm.08-1.022c-.068.007-.094-.023-.094-.11a.089.089 0 0 1 .175-.031.091.091 0 0 1-.084.137Zm.019-.579c-.041-.059-.038-.088.012-.137s.095-.053.137.012c.068.103-.077.226-.15.123Zm-.051-1.32c0-.077.032-.11.104-.11a.132.132 0 0 1 .078.025.121.121 0 0 1-.012.171.124.124 0 0 1-.066.03c-.067 0-.105-.036-.105-.11Zm.074.732a.123.123 0 0 1 0-.166.102.102 0 0 1 .144-.008.1.1 0 0 1 .028.042c.06.118-.095.234-.172.124Zm.11-2.957c.049.049.058.175.012.159a.057.057 0 0 0-.054.013c-.019.017-.029.017-.035 0a1 1 0 0 0-.048-.098c-.039-.077-.039-.077 0-.096.071-.031.077-.029.123.017Zm-.245-1.447c.063-.044.102-.034.14.032s0 .16-.07.16c-.04 0-.055-.012-.066-.056a.29.29 0 0 0-.026-.087c-.017-.015 0-.034.025-.056Zm-.055 2.897a.123.123 0 0 1 .173.007c.073.137-.059.291-.168.195a.163.163 0 0 1-.012-.212Zm-.055-.702c.037.045 0 .054-.049.01s-.034-.037-.007-.037a.086.086 0 0 1 .054.02Zm-.161-1.483c.046-.033.056-.033.11.013a.11.11 0 0 1 .041.152l-.014.019c-.025.025-.042.036-.043.022a.026.026 0 0 0-.027-.024c-.066-.009-.117-.158-.077-.188Zm-.01 2.906a.11.11 0 0 1-.062.145.12.12 0 0 1-.048.009c-.073 0-.11-.07-.093-.154a.11.11 0 0 1 .201-.008Zm-.283-4.318a.122.122 0 0 1 .15-.007.147.147 0 0 1-.034.206.13.13 0 0 1-.043.021c-.077 0-.137-.179-.076-.227Zm0 2.182c.073-.019.122 0 .147.051s.012.128-.029.11c-.015-.007-.027 0-.027.01 0 .046-.044.013-.077-.057l-.043-.093c-.006-.014.009-.024.029-.03Zm.078 1.458a.176.176 0 0 1 .007.189.12.12 0 0 1-.16-.014c-.071-.134.056-.278.153-.182Zm-.175-2.89a.142.142 0 0 1 .012.184c-.04.033-.122.009-.122-.036a.19.19 0 0 0-.033-.083c-.054-.092.066-.148.143-.071Zm-.33.761c.068-.036.073-.024.122.013a.162.162 0 0 1 .021.184c-.028.051-.066.054-.046 0s.007-.033-.021-.007-.038.017-.05-.033a.36.36 0 0 0-.043-.11c-.028-.045-.027-.049.017-.065Zm-.021 2.261c.05.098 0 .196-.096.196s-.122-.147-.061-.214a.101.101 0 0 1 .143-.016l.016.016Zm-.188-1.43a.101.101 0 0 1 .122 0c.024.029.045.139.024.152s-.024-.032-.019-.086c0-.015-.065-.069-.085-.069s0 .021.016.048a.116.116 0 0 1 .02.105c-.013.04-.019.036-.06-.047s-.042-.1-.015-.11Zm.039 2.657a.103.103 0 0 1 .022.145.102.102 0 0 1-.102.04c-.043 0-.096-.068-.096-.122a.196.196 0 0 1 .11-.101.136.136 0 0 1 .061.03Zm-.11-4.841a.11.11 0 0 1-.013.153.13.13 0 0 1-.032.019c-.061.013-.069.007-.103-.091-.042-.129.081-.193.151-.086Zm-.265.747c.07-.017.085-.012.122.032a.147.147 0 0 1 0 .18c-.019.017-.03.018-.03 0s-.013-.017-.029-.013-.041-.018-.063-.078c-.047-.11-.047-.116 0-.133Zm-.174.844c.022-.037.123-.03.168.01s.036.174-.008.188c-.017 0-.024 0-.014-.012s-.012-.032-.044 0-.03 0-.047-.062-.033-.088-.046-.091a.021.021 0 0 1-.012-.027m-.091.832c.048-.017.053-.016.101.022.089.072.04.252-.067.252-.135 0-.165-.22-.037-.272Zm-.021.856a.153.153 0 0 1-.012.187.11.11 0 0 1-.176-.09c0-.098.125-.164.188-.09Zm-.13-3.85a.165.165 0 0 1-.01.183c-.048.054-.132.051-.132 0a.2.2 0 0 0-.022-.083c-.043-.078.098-.159.165-.093Zm-.091.785a.155.155 0 0 1 .012.189.073.073 0 0 1-.103 0 .077.077 0 0 1-.019-.041.176.176 0 0 0-.032-.089c-.045-.068.068-.11.143-.046Zm-.176.799c.076-.02.11-.012.14.032.061.093.026.208-.059.208-.025 0-.043-.025-.059-.083a.24.24 0 0 0-.041-.092c-.032-.012-.025-.041.016-.052Zm.076.904c.037.037.044.142.01.164s-.021 0-.015-.049a.096.096 0 0 0-.028-.1c-.044-.04-.073-.025-.034.016a.083.083 0 0 1 .024.058v.058c0 .039-.044.029-.044-.013a.165.165 0 0 0-.034-.082c-.059-.07.051-.11.122-.045Zm-.061.888c.068.098.03.202-.073.202-.07 0-.11-.045-.11-.122a.102.102 0 0 1 .183-.082Zm-.067.812a.11.11 0 0 1 .019.151.11.11 0 0 1-.074.04c-.061 0-.094-.038-.094-.122s.078-.137.149-.076Zm-.18.794a.098.098 0 0 1 .135-.022.097.097 0 0 1 .022.134.094.094 0 0 1-.077.041.098.098 0 0 1-.08-.16Zm-.045.77a.081.081 0 0 1 .101-.053.079.079 0 0 1 .053.053.099.099 0 1 1-.152 0Zm-.049.44a.09.09 0 0 1 0 .039 1.1 1.1 0 0 0-.122.006h-.041c-.037-.08 0-.152.076-.152a.12.12 0 0 1 .071.025.125.125 0 0 1 .026.08Zm-1.746 3.394a.11.11 0 0 1-.009-.147l.009-.01a.088.088 0 0 1 .121-.009.101.101 0 0 1-.121.161Zm.062 2.109c-.029 0-.079-.077-.079-.123a.2.2 0 0 1 .103-.101.13.13 0 0 1 .062.042.11.11 0 0 1-.011.149.11.11 0 0 1-.073.027Zm-1.65-5.409a.123.123 0 0 1-.012.172l-.022.015c-.068.038-.122.015-.149-.068a.111.111 0 0 1 .183-.125Zm-.3-.6a.105.105 0 0 1 .177-.06.138.138 0 0 1 0 .18.11.11 0 0 1-.16-.019.11.11 0 0 1-.018-.11Zm.28 2.023a.15.15 0 0 1 .062.042.094.094 0 0 1 .019.13l-.017.016a.098.098 0 0 1-.175-.073.164.164 0 0 1 .105-.121Zm.086 3.035a.122.122 0 0 1 0 .173l-.009.008c-.091.064-.168.02-.168-.095a.103.103 0 0 1 .177-.092Zm-.152-2.035a.09.09 0 0 1 .083-.096h.012a.13.13 0 0 1 .068.024.11.11 0 0 1 0 .154.11.11 0 0 1-.077.03c-.058-.008-.081-.039-.081-.119Zm.11-1.76a.095.095 0 0 1 .085-.105.1.1 0 0 1 .077.028.162.162 0 0 1 .019.098c-.012.125-.184.11-.184-.027Zm.11 2.576a.09.09 0 0 1 .16-.008.122.122 0 0 1-.049.162.1.1 0 0 1-.11-.159Zm.066-1.259a.094.094 0 0 1 .083-.11.096.096 0 0 1 .095.053c.032.049.032.055 0 .103a.094.094 0 0 1-.125.044.091.091 0 0 1-.053-.09m.228-2.791c.07.124-.092.246-.171.137a.176.176 0 0 1-.034-.085.11.11 0 0 1 .097-.121.11.11 0 0 1 .11.059Zm-.014-.689a.122.122 0 0 1 0 .173.11.11 0 0 1-.147.007c-.098-.128.029-.297.147-.193Zm-.066 2.782a.1.1 0 0 1-.102-.099.11.11 0 0 1 .016-.055.099.099 0 0 1 .135-.035.094.094 0 0 1 .036.035.1.1 0 0 1-.038.137.12.12 0 0 1-.047.013Zm-.025-1.466a.092.092 0 0 1 .125-.046.095.095 0 0 1 .046.046c.027.071.024.083-.012.122a.103.103 0 1 1-.159-.131Zm.22.504a.102.102 0 0 1 .069.025.11.11 0 0 1-.008.154.11.11 0 0 1-.058.027.11.11 0 0 1-.093-.115.11.11 0 0 1 .093-.091Zm.037-3.165a3 3 0 0 0-.038-.091c-.013-.031.038-.013.066.029s.044.14.017.14a.31.31 0 0 1-.05-.084Zm.136 4.4a.11.11 0 0 1-.02.142.096.096 0 0 1-.134-.027l-.006-.011c-.057-.125.085-.22.159-.11Zm-.193 2.451c.059-.042.064-.041.11.006a.11.11 0 0 1 0 .15.1.1 0 0 1-.036.024.11.11 0 0 1-.072-.192Zm.075-.401c-.048-.059-.048-.1 0-.149a.085.085 0 0 1 .116-.022.077.077 0 0 1 .029.034c.064.099-.064.23-.139.132Zm.054-1.173c-.102 0-.122-.169-.024-.204a.084.084 0 0 1 .116.028l.006.013a.103.103 0 0 1-.032.143.11.11 0 0 1-.066.015Zm.092-1.419a.096.096 0 0 1-.08-.154.09.09 0 0 1 .119-.048.084.084 0 0 1 .048.048.1.1 0 0 1-.039.136.1.1 0 0 1-.046.012Zm1.059-2.284c0-.096.069-.142.147-.1a.143.143 0 0 1 .016.18.097.097 0 0 1-.137 0 .1.1 0 0 1-.026-.084Zm.062 1.604c-.074.039-.123 0-.123-.089 0-.11.083-.153.154-.076a.102.102 0 0 1-.009.145.1.1 0 0 1-.024.015Zm0-2.78c-.103.026-.17-.093-.11-.2.033-.061.146-.045.179.027a.121.121 0 0 1-.055.163h-.012Zm.009 1.618a.158.158 0 0 1 .017.098.085.085 0 0 1-.164.028c-.049-.11.073-.22.147-.126m-.093.489a.11.11 0 0 1 .069.024.11.11 0 0 1-.069.181.103.103 0 0 1 0-.205m-.185-1.53a.122.122 0 0 1-.12-.125.12.12 0 0 1 .034-.083.096.096 0 0 1 .131-.02c.098.044.062.228-.036.228Zm.055 2.493a.09.09 0 0 1-.035.123.1.1 0 0 1-.046.011c-.065.008-.094-.023-.094-.1a.09.09 0 0 1 .077-.1.089.089 0 0 1 .098.066m-.268.631a.103.103 0 1 1 0-.206.11.11 0 0 1 .068.025.11.11 0 0 1-.068.181m-.028.509c-.1.077-.202-.067-.122-.164.043-.045.078-.047.122 0a.11.11 0 0 1 .009.155Zm.071-1.454a.11.11 0 0 1-.05-.194c.058-.042.122 0 .138.079s-.028.11-.088.11Zm-.092-.515c-.063 0-.102-.084-.07-.154a.092.092 0 0 1 .122-.045.097.097 0 0 1 .044.045.099.099 0 0 1-.026.137.102.102 0 0 1-.065.017Zm.075-.559c-.093.095-.22-.065-.127-.164.039-.043.057-.046.11-.015a.141.141 0 0 1 .014.179m-.166 1.561c-.062.092-.172.047-.172-.069a.097.097 0 0 1 .105-.088.099.099 0 0 1 .079.055.083.083 0 0 1 0 .102Zm-.22.44a.11.11 0 0 1 .069.024.11.11 0 0 1-.008.154.117.117 0 0 1-.06.028.103.103 0 0 1 0-.206Zm-.11-.977c0-.089.11-.147.163-.088a.122.122 0 0 1-.076.201c-.037 0-.085-.063-.085-.11Zm.22-2.268a.11.11 0 0 1-.147.012c-.11-.122.025-.293.141-.187a.122.122 0 0 1 .007.173Zm-.11-1.491c-.01 0-.02 0-.021-.024s0-.034-.008-.052l-.009-.038a.048.048 0 0 0-.032-.03c-.024-.009-.024 0-.006.046.043.11 0 .147-.054.043-.03-.058-.036-.098-.024-.11a.122.122 0 0 1 .127.01c.03.037.045.134.026.152Zm0 1.98c.067.123-.096.245-.175.135a.122.122 0 0 1 0-.165.11.11 0 0 1 .149-.01.12.12 0 0 1 .029.04Zm-.196.578c.048-.036.069-.036.115.007.071.06.033.191-.052.191a.11.11 0 0 1-.102-.123.117.117 0 0 1 .04-.075Zm.016.746c-.078-.11.021-.244.124-.172a.124.124 0 0 1-.014.173.1.1 0 0 1-.024.015c-.043.018-.05.016-.081-.017Zm.22 2.067a.165.165 0 0 1 .025.093.091.091 0 0 1-.183 0 .095.095 0 0 1 .161-.093Zm.068.611a.11.11 0 0 1 .02.154.12.12 0 0 1-.033.029c-.067.015-.06.015-.101-.022a.103.103 0 0 1 .116-.171Zm.031 1.65c.021.076 0 .122-.06.141s-.122-.021-.122-.103.16-.13.182-.034Zm-.029-.381c-.037 0-.085-.064-.085-.11a.095.095 0 0 1 .081-.11.1.1 0 0 1 .065.014.118.118 0 0 1-.056.208Zm.059-.648a.097.097 0 0 1 .13-.043.11.11 0 0 1 .036.032.11.11 0 0 1-.026.146.1.1 0 0 1-.068.019c-.061 0-.098-.073-.069-.15Zm.153-.791a.11.11 0 0 1-.088-.133.11.11 0 0 1 .023-.049c.036-.035.134-.031.151.009.039.098 0 .176-.082.176Zm.128.309a.098.098 0 0 1 .063.176.11.11 0 0 1-.074.029c-.058 0-.081-.032-.081-.11a.089.089 0 0 1 .084-.093H13.1Zm.043.977a.088.088 0 0 1 .124-.009.08.08 0 0 1 .02.025.099.099 0 0 1-.018.142.101.101 0 0 1-.126-.158m.049-1.678a.089.089 0 0 1 .072-.103.09.09 0 0 1 .086.034.122.122 0 0 1-.02.171.11.11 0 0 1-.053.024c-.035 0-.081-.068-.081-.123Zm.141-.34c-.102.034-.162-.093-.085-.177.04-.044.068-.046.122-.011a.122.122 0 0 1-.009.173.13.13 0 0 1-.028.02Zm-.017-.537a.179.179 0 0 1 .103-.11.14.14 0 0 1 .063.041c.049.05.052.079.009.14a.101.101 0 0 1-.171-.068Zm.208-.427a.097.097 0 0 1 .13-.041.11.11 0 0 1 .034.03.11.11 0 0 1-.026.146.11.11 0 0 1-.068.019c-.062 0-.098-.074-.069-.151Zm.156-2.346a.11.11 0 0 1-.006-.158.11.11 0 0 1 .067-.035.11.11 0 0 1 .067.024.121.121 0 0 1-.02.17c-.055.043-.061.043-.11 0Zm.51 1.934a.072.072 0 0 1-.085-.011.11.11 0 0 1 0-.154.11.11 0 0 1 .051-.027.11.11 0 0 1 .068.024.122.122 0 0 1-.014.164Zm-.067-.55a.091.091 0 0 1 .078-.103.092.092 0 0 1 .065.015.123.123 0 0 1 .029.148.095.095 0 0 1-.175-.06Zm.257-.357c-.066.032-.098.016-.122-.054-.04-.11.11-.206.164-.103a.11.11 0 0 1-.042.147Zm-.186-.755c-.098.044-.18-.1-.102-.177a.087.087 0 0 1 .123-.011.08.08 0 0 1 .023.029.101.101 0 0 1-.045.159Zm-.288-.789a.122.122 0 0 1 0-.165.102.102 0 0 1 .172.034c.062.124-.092.242-.17.131Zm.122 1.092a.11.11 0 0 1 0 .149.11.11 0 0 1-.037.025c-.074.026-.122-.012-.122-.103s.093-.144.159-.071m-.122.48a.122.122 0 0 1-.013.173.08.08 0 0 1-.023.015c-.05.018-.066.015-.092-.018-.076-.11.021-.245.126-.17Zm-.18.518a.09.09 0 0 1 .117-.049.1.1 0 0 1 .05.049.085.085 0 0 1-.008.104c-.074.11-.22.017-.158-.104Zm.049.426a.096.096 0 0 1 .135.008v.006c.056.11-.049.245-.134.154a.142.142 0 0 1-.01-.17Zm.684-.22a.123.123 0 0 1-.011-.172c.043-.048.078-.048.122-.007a.11.11 0 0 1 .022.128l-.079.029Zm.272-.469c-.054.123-.22.02-.172-.1a.094.094 0 0 1 .123-.049.1.1 0 0 1 .049.049.11.11 0 0 1 0 .1m.08-.358a.139.139 0 0 1-.019-.182.096.096 0 0 1 .135.008l.005.008c.052.1-.033.22-.122.166Zm.019-.77a.101.101 0 0 1-.076-.164.08.08 0 0 1 .107-.048.088.088 0 0 1 .048.048.102.102 0 0 1-.02.142.11.11 0 0 1-.056.021Zm-.015-.778a.122.122 0 0 1-.088-.202.097.097 0 0 1 .136-.012.09.09 0 0 1 .028.037c.046.086.012.172-.076.177m-.049-.817c-.102 0-.146-.15-.076-.244a.134.134 0 1 1 .075.244Zm.053-.967c-.019-.025-.03-.013-.041.012s-.024.012-.063-.074-.044-.11-.025-.122a.11.11 0 0 1 .149.03c.053.079.037.19-.02.143Zm-.056-.841c-.048 0-.063-.012-.088-.082-.04-.11-.041-.11.054-.131a.15.15 0 0 1 .059.031c.074.05.057.182-.025.182m-.103-.99c.048-.036.068-.034.11.007.069.062.027.206-.055.189-.061-.011-.11-.164-.06-.196m-.042 4.621a.11.11 0 0 1-.006.16.1.1 0 0 1-.028.019c-.073.027-.121-.012-.121-.101s.089-.147.156-.078Zm-.122-.599c-.057.035-.067.035-.11 0a.11.11 0 0 1-.011-.158.096.096 0 0 1 .14-.016.122.122 0 0 1-.018.168Zm-.055-.969c.076.117-.073.262-.161.155a.131.131 0 0 1-.013-.177.11.11 0 0 1 .154 0 .11.11 0 0 1 .02.025Zm-.115-.875c.037.071.026.135-.021.11a.035.035 0 0 0-.042.025c-.01.027-.11-.122-.11-.174a.46.46 0 0 1 .122-.025.147.147 0 0 1 .055.061Zm-.122-.897a.11.11 0 0 1 .037.123c-.013.067-.053.11-.065.078a.025.025 0 0 0-.032-.01c-.021.008-.036-.025-.089-.178-.011-.032.012-.047.081-.057a.165.165 0 0 1 .065.049Zm-.104-.647a.077.077 0 0 1-.115-.059.1.1 0 0 0-.031-.063c-.043-.037-.04-.052.015-.078s.063-.03.11.006a.143.143 0 0 1 .018.197Zm-.069-.978a.122.122 0 0 1 0 .167c-.04.056-.134.056-.134 0a.21.21 0 0 0-.023-.079c-.047-.076.075-.146.154-.077Zm-.15 3.031a.144.144 0 0 1 0 .203.146.146 0 0 1-.084.041c-.102 0-.147-.183-.061-.244a.09.09 0 0 1 .144.008Zm-.262-.88a.079.079 0 0 1 .093.061c.032.074.012.153-.038.134a.041.041 0 0 0-.048.013c-.01.018-.02 0-.031-.035a.35.35 0 0 0-.043-.102c-.034-.055-.017-.071.067-.071m-.255-.825a.103.103 0 0 1 .13.015c.056.056.034.184-.031.184s-.146-.171-.098-.2Zm-.168-.782a.091.091 0 0 1 .142.044c.032.075 0 .146-.071.146s-.122-.159-.072-.19Zm-.05 2.22a.12.12 0 0 1 .124.013c.04.026.062.144.024.132a.05.05 0 0 1-.024-.049.077.077 0 0 0-.021-.054c-.044-.032-.052-.012-.02.049s.031.068 0 .095-.032.025-.044-.032a.19.19 0 0 0-.044-.088c-.046-.033-.04-.056 0-.066Zm-.019 2.025a.142.142 0 0 1-.016.176c-.055.028-.077.027-.11-.01a.11.11 0 1 1 .13-.172Zm-.276-2.85c.022-.028.125-.017.16.018a.141.141 0 0 1 .007.183c-.019.025-.031.029-.031.013a.019.019 0 0 0-.018-.021h-.008c-.026.01-.121-.165-.11-.194Zm.102 1.485a.135.135 0 0 1 .028.19.14.14 0 0 1-.1.055.133.133 0 0 1-.12-.147.13.13 0 0 1 .046-.088c.067-.061.078-.061.148-.01Zm-.376-2.251c.072-.057.11-.062.161-.012a.131.131 0 0 1 .009.184l-.009.008c-.055.038-.131.009-.11-.043a.117.117 0 0 0-.021-.082c-.022-.024-.034-.055-.029-.055Zm-.174-.76a.086.086 0 0 1 .121-.01.169.169 0 0 1 0 .181c-.082.066-.195-.098-.122-.171Zm-.058 2.948c0 .029-.01.024-.054-.025s-.04-.044.007-.019c.025.014.045.034.045.045Zm-.193-1.527c.07-.019.086-.016.122.03a.122.122 0 0 1 0 .157c-.042.034-.093 0-.127-.076s-.038-.101.005-.11Zm-.024 2.2a.139.139 0 0 1 .02.22c-.062.06-.102.065-.157.01-.11-.101.015-.307.137-.227Zm-.318-2.92a.097.097 0 0 1 .136.013c.05.09.016.177-.058.15s-.11-.13-.079-.164Zm.038 1.439a.083.083 0 0 1 .061.026c.03.038.038.144.01.15s-.022-.007-.022-.024a.08.08 0 0 0-.014-.045c-.009-.008-.017.01-.017.041 0 .098-.026.072-.122-.11 0-.01.044-.027.11-.03Zm-.167.82c.026.039.024.122 0 .122s-.016-.016-.016-.038-.01-.041-.022-.041-.018.017-.011.036a.1.1 0 0 1-.01.079c-.024.03-.032.033-.032.008a.37.37 0 0 0-.041-.11.21.21 0 0 1-.029-.084.233.233 0 0 1 .172.032Zm-.322-1.5c.022-.036.131-.018.153.021.045.084 0 .203-.065.176-.034-.01-.11-.167-.085-.195Zm.104 2.4c-.012.033-.095-.098-.095-.151 0-.024.049.014.075.061a.118.118 0 0 1 .013.093Zm.013.618a.195.195 0 0 1 .013.208.143.143 0 0 1-.182-.017c-.079-.141.054-.292.169-.189Zm-.088 2.31a.122.122 0 0 1-.066.213c-.065 0-.096-.036-.096-.11 0-.115.099-.168.173-.098Zm-.4-1.298a.183.183 0 0 1-.01.208c-.096.072-.195.017-.195-.11a.122.122 0 0 1 .21-.097Zm-.211-.66-.047-.097c-.022-.04.039-.009.069.036a.16.16 0 0 1 .025.098c-.008.04-.012.037-.047-.037m.22 1.366a.11.11 0 0 1 .178.012.117.117 0 0 1-.023.162.13.13 0 0 1-.042.02c-.101.033-.173-.088-.117-.194Zm.187 1.588a.121.121 0 0 1 .161-.015.163.163 0 0 1-.01.183c-.098.103-.227-.039-.154-.171Zm-.041-5.351c-.021-.017-.028-.017-.028 0 0 .044-.037.024-.059-.033l-.034-.091a.03.03 0 0 1 .025-.043c.071-.018.086-.011.122.033.055.077.037.186-.025.136Zm-.012-1.637c.031.028.034.132.006.146a.022.022 0 0 1-.032 0c-.009-.022-.023-.012-.04.012s-.037.026-.06-.036c-.034-.11.049-.196.122-.121Zm-.293 2.289c.066-.014.075-.013.115.022s.052.162.017.184c-.013 0-.016 0-.009-.021.017-.043-.012-.041-.045 0s-.021.027-.049-.028a.8.8 0 0 0-.053-.097c-.026-.04-.025-.044.017-.06Zm.012.856c-.04.01-.069 0-.058-.021.035-.054.093.02.063.078a.8.8 0 0 0-.043.098c-.012.036-.016.034-.034-.021a.36.36 0 0 0-.052-.095c-.042-.049 0-.069.064-.028.034.022.055.025.065.012s-.005-.021-.015-.021Zm-.263-2.298c.049-.036.064-.034.11.014a.095.095 0 0 1 .023.13l-.017.017c-.029.025-.033.022-.018-.018s-.026-.064-.048 0c-.014.036-.018.034-.054-.037s-.035-.081 0-.11m.092 4.948a.17.17 0 0 1 .046.073c.049.122-.097.244-.187.156-.11-.11.015-.31.14-.229Zm-.818-4.59a.053.053 0 0 0 .058.018c.016-.01.007-.021-.025-.033s-.044-.022-.02-.038a.059.059 0 0 1 .078.029.07.07 0 0 1 0 .024c0 .015-.019.033-.041.041s-.042.026-.042.043c0 .054-.036.028-.048-.038s-.009-.09.036-.046Zm-.182.902c.02.016.033.037.025.043s-.101-.032-.101-.057.03-.017.076.015Zm-.123 0c.019-.022.081.049.079.095 0 .071-.046.064-.071-.012a.176.176 0 0 1-.011-.081Zm.046.99c.026.072.025.074-.02.062a.037.037 0 0 0-.051.016c-.016.048-.047.04-.06-.014a.4.4 0 0 0-.025-.09c-.027-.09.124-.065.159.03Zm-.683-.406a.08.08 0 0 1 0 .041.176.176 0 0 1-.042-.085c0-.037.033 0 .044.049Zm-.978 3.456c.027-.05.061-.054.11-.017a.138.138 0 0 1-.013.187c-.085.054-.158-.07-.11-.167Zm.169 2.032c-.057.031-.101.008-.116-.06-.025-.11.063-.187.132-.123a.141.141 0 0 1-.02.187Zm.282-.978c-.043.064-.122.072-.158.014-.075-.139.086-.26.164-.124a.086.086 0 0 1-.01.11Zm0-1.832c-.037-.049-.042-.079-.006-.068a.069.069 0 0 1 .031.058c0 .058 0 .059-.031.02Zm.336.806a.21.21 0 0 1 .049.074c.042.11-.089.22-.169.144-.11-.098-.008-.285.11-.208Zm.091 1.886a.12.12 0 1 1 0-.187.193.193 0 0 1 0 .195Zm-.025-4.43c0-.024.045 0 .064.034a.103.103 0 0 1 .01.077c-.012.03-.073-.065-.073-.11Zm.154 1.087c-.016.017-.088-.132-.076-.155s.037-.018.065.009a.154.154 0 0 1 .012.147Zm.081 2.465c-.01 0-.023-.017-.029-.038a.55.55 0 0 0-.024-.07c-.019-.042.01-.048.046-.012s.034.12.007.12m-.014-2.543c-.008-.052-.007-.064.007-.042a.176.176 0 0 1 .021.08c0 .066-.011.045-.028-.043Zm.11 4.978c0 .044-.009.042-.042-.024-.048-.09-.032-.122.025-.053a.11.11 0 0 1 .017.074Zm0-3.993c-.011 0-.029-.03-.045-.066s-.022-.056-.035-.082c0-.009.049-.018.075.008s.04.148.012.148Zm.11 3.101c-.011.03-.073-.065-.073-.11 0-.026.044 0 .064.033a.11.11 0 0 1 .015.074Zm.163-2.42a.12.12 0 0 1 .03.098c-.008.057-.009.056-.054-.033-.055-.122-.044-.15.031-.068Zm.086 1.601c-.011.029-.021.022-.053-.037-.067-.132-.04-.189.03-.07a.143.143 0 0 1 .03.093Zm.045-3.788c-.024.022-.033.017-.045-.036a.14.14 0 0 0-.033-.084c-.031-.022-.022-.049.018-.06l.043-.012a.18.18 0 0 1 .048.022c.041.021.041.024 0 .051s-.035.03 0 .019.043 0 .034.053-.014.056-.024.036-.012-.016-.034 0Zm.122.919-.014-.041a1 1 0 0 0-.045-.098c-.052-.1.048-.142.122-.055.037.043.037.044 0 .077a.176.176 0 0 0-.054.076Zm.153 2.04c.039.093 0 .104-.054.013s-.054-.094-.007-.085a.165.165 0 0 1 .056.076Zm-.11 3.095a.7.7 0 0 0-.025-.062c-.02-.043.03-.029.053.012a.165.165 0 0 1 .021.064c0 .036-.035.027-.048-.012Zm.061.898c-.037-.062-.04-.088 0-.077.013 0 .028.038.03.07v.06Zm.052-1.726c-.019 0-.085-.11-.085-.146s.04-.013.071.052.055.098.029.098Zm.078-3.58c-.008.053-.009.052-.048-.028l-.038-.107c0-.009 0-.016.024-.016a.075.075 0 0 1 .055.042.187.187 0 0 1 .018.1Zm.093 2.758c-.011 0-.035-.033-.055-.073-.033-.07-.027-.086.021-.055s.062.131.037.131Zm.123-2.163c0-.01 0-.012.024 0a.13.13 0 0 1 .054.049c.025.044.027.102 0 .102s-.029-.031-.045-.067-.025-.074-.031-.083Zm.028-2.044c.022-.034.065-.017.089.034s.032.134 0 .134-.027-.024-.033-.05a.146.146 0 0 0-.042-.074.046.046 0 0 1-.012-.042Zm.098 3.458c-.022 0-.086-.147-.066-.147s.032.022.048.049c.051.049.059.101.033.099Zm-.006-4.11c-.01 0-.011-.017 0-.038s.012-.03-.028 0-.044.038-.085-.048a.29.29 0 0 1-.033-.103c.012-.022.122-.018.146 0a.047.047 0 0 1 .027.052c-.009.021 0 .027.012.017s.024 0 .024.018c0 .046-.029.097-.049.097Zm.043-.88c-.02.017-.023.009-.012-.041a.143.143 0 0 0-.017-.103c-.031-.041-.068-.027-.04.016a.165.165 0 0 1 .02.065c0 .069-.031.057-.074-.027l-.043-.083.046-.019a.103.103 0 0 1 .139.102.138.138 0 0 1-.019.085Zm.151-1.063a.13.13 0 0 1 .036.146c-.023.06-.06.042-.048-.022v-.042l-.021.047c-.03.067-.053.057-.09-.038s.042-.176.117-.09Zm-.037 3.381c.027.013.047.033.042.047s-.014.056-.02.085l-.013.061-.047-.092c-.054-.123-.054-.141.036-.101Zm-.008 5.486c-.06-.11-.055-.132.008-.07a.136.136 0 0 1 .031.086c0 .055 0 .055-.039-.016m0-.855c-.049-.088-.05-.096-.008-.081a.12.12 0 0 1 .053.064c.029.085-.007.097-.048.02Zm.143 1.751c0 .027-.016.022-.042-.031s-.021-.09.024-.036a.081.081 0 0 1 .014.07Zm.006-2.493c-.01 0-.031-.024-.05-.061-.033-.07-.02-.097.022-.047s.039.098.026.11Zm-.06-1.805c-.11-.132.038-.318.163-.196a.142.142 0 0 1 0 .199.15.15 0 0 1-.07.039c-.036.014-.059 0-.097-.04Zm.244 5.132c-.02-.034-.026-.061-.015-.061s.028.018.04.041c.032.07.008.086-.032.016Zm.056-3.941c-.11.042-.176-.006-.176-.122a.123.123 0 0 1 .11-.131.135.135 0 0 1 .066.015c.069.049.066.212-.009.24Zm.087-1.922a.091.091 0 0 1 .13-.018.122.122 0 0 1 .043.167.124.124 0 0 1-.11.061.122.122 0 0 1-.11-.133.118.118 0 0 1 .034-.075Zm.054 1.062c.055-.036.048-.036.101-.01a.123.123 0 0 1 .058.163.127.127 0 0 1-.076.065c-.119.044-.193-.144-.084-.22ZM11 14.963a.128.128 0 0 1 .042.081c0 .036-.008.03-.042-.026-.06-.088-.06-.101-.007-.054Zm.088.914c-.023 0-.09-.144-.068-.144s.034.021.05.046c.029.05.038.101.012.098Zm-.03-1.43c-.103 0-.148-.192-.059-.256a.17.17 0 0 1 .067-.031.19.19 0 0 1 .068.032.149.149 0 0 1 .012.209.15.15 0 0 1-.088.047Zm.143 2.206c-.047-.077-.048-.086-.022-.086s.031.017.042.037c.044.075.024.117-.02.042Zm-.012-2.924c-.11 0-.136-.166-.035-.22.048-.029.05-.029.11.009a.122.122 0 0 1 .01.173.123.123 0 0 1-.079.04Zm.136-.823c.05-.048.09-.051.132-.012a.122.122 0 0 1-.069.22.11.11 0 0 1-.11-.121.12.12 0 0 1 .047-.087m.172 4.607c-.011 0-.03-.024-.043-.054-.024-.054-.009-.067.034-.024s.033.073.008.073Zm.012-2.236a.134.134 0 0 1 .122-.132.11.11 0 0 1 .093.045.128.128 0 1 1-.22.088Zm.232.751c-.01 0-.028-.024-.042-.051-.027-.061 0-.071.038-.012s.031.063.008.063Zm-.122-2.034c-.068-.122.044-.261.149-.18a.157.157 0 0 1 .049.08c.024.11-.149.196-.199.1Zm.208 4.208c0-.024.024-.016.053.021a.13.13 0 0 1 .027.067c0 .031-.081-.055-.082-.088Zm.122-1.43c0 .022-.019.012-.043-.029-.036-.064-.021-.086.024-.032a.08.08 0 0 1 .016.061Zm.049-4.07c.052-.038.059-.038.093-.016a.117.117 0 0 1 .034.16.118.118 0 0 1-.081.05.11.11 0 0 1-.044-.192m.11 1.934a.11.11 0 0 1 .153 0c.08.098-.051.268-.143.188a.136.136 0 0 1-.01-.188m.033.76c-.011-.122.091-.184.171-.096a.124.124 0 0 1-.014.173l-.02.013c-.081.043-.131.01-.139-.09Zm.122 2.167c-.009 0-.033-.028-.053-.061-.042-.073-.011-.085.037-.017s.042.078.018.078Zm.192-1.39a.123.123 0 0 1-.172 0c-.077-.141.056-.293.168-.193a.164.164 0 0 1 .008.2Zm.075-3.072c-.054.052-.123.054-.146 0-.06-.11.037-.232.129-.162a.1.1 0 0 1 .03.14l-.008.017Zm.055 3.63c-.021-.028-.028-.049-.016-.049s.032.017.044.041c.034.061.017.065-.027 0Zm.058 1.52c-.039-.051-.04-.082 0-.048a.092.092 0 0 1 .031.056c0 .024-.005.024-.029-.008Zm.015-3.555c.066-.045.131 0 .131.095 0 .056-.011.072-.056.089a.099.099 0 0 1-.074-.184Zm.141.812c-.072 0-.11-.034-.11-.11s.033-.11.11-.11a.128.128 0 0 1 .079.024.122.122 0 0 1-.012.173.124.124 0 0 1-.066.03Zm.135 1.922a.17.17 0 0 1-.031-.062c0-.012.015 0 .031.02a.14.14 0 0 1 .031.062c0 .012-.012 0-.03-.02Zm.041-1.279c-.09 0-.13-.163-.054-.22a.087.087 0 0 1 .123 0l.011.016a.122.122 0 0 1-.006.173.128.128 0 0 1-.074.031m.097-1.881c-.055-.122.087-.22.16-.11a.102.102 0 0 1-.02.142.097.097 0 0 1-.135-.023l-.011-.018Zm.066.422c.057-.054.098-.052.137.01a.092.092 0 0 1 0 .131.09.09 0 0 1-.038.023.101.101 0 0 1-.104-.172Zm.038 2.084a.136.136 0 0 1 0-.192.13.13 0 0 1 .08-.04c.05 0 .078.012.094.036.069.135-.065.289-.176.19Zm.22 1.345c-.039-.069-.036-.105 0-.053a.146.146 0 0 1 .03.072c-.006.019-.017.014-.036-.022Zm.136-2.118c-.072 0-.11-.037-.11-.11s.032-.11.11-.11a.134.134 0 0 1 .078.024.123.123 0 0 1-.015.173.125.125 0 0 1-.069.028Zm.122-1.949a.165.165 0 0 1 .026.092.092.092 0 0 1-.092.093.1.1 0 1 1 .058-.186Zm.014-.489a.103.103 0 0 1 0 .147.14.14 0 0 1-.026.019c-.068.044-.122.017-.122-.07-.024-.102.067-.162.135-.093Zm-.11 1.077c0-.065.034-.102.092-.102a.098.098 0 0 1 .06.178.11.11 0 0 1-.06.028.091.091 0 0 1-.101-.1Zm.305.44a.11.11 0 0 1-.068.183.088.088 0 0 1-.093-.082.07.07 0 0 1 0-.015.094.094 0 0 1 .153-.084Zm.184-.518c-.034 0-.096-.076-.096-.122a.091.091 0 0 1 .168-.067.11.11 0 0 1-.082.192Zm.232.293c.077.076-.024.22-.122.166a.121.121 0 0 1-.023-.162.11.11 0 0 1 .136 0Zm-.264-.794c-.072.037-.122 0-.122-.081 0-.11.084-.155.155-.082a.11.11 0 0 1-.012.149.1.1 0 0 1-.03.018Zm-.27 2.477c-.068-.122.029-.244.146-.186.03.016.041.043.041.101-.009.119-.147.18-.196.087Zm.206-.929a.097.097 0 0 1 .135-.021l.006.006a.11.11 0 0 1-.008.154.11.11 0 0 1-.06.027c-.091 0-.128-.077-.08-.163Zm.116 2.231c-.041-.053-.041-.083 0-.048a.09.09 0 0 1 .032.056c-.01.029-.017.026-.041 0Zm.159-.696c-.146.033-.182-.22-.048-.264.048-.019.048-.018.098.022a.139.139 0 0 1-.068.244Zm.148-.856a.096.096 0 0 1-.133-.031.1.1 0 0 1-.015-.039c-.036-.122.123-.208.184-.102a.11.11 0 0 1-.021.154.1.1 0 0 1-.033.017Zm-.062-2.167a.11.11 0 0 1 .132 0c.078.076-.024.22-.11.167a.13.13 0 0 1-.025-.167Zm.191 1.344c-.09.095-.205.012-.159-.11a.096.096 0 0 1 .129-.04.095.095 0 0 1 .047.057.08.08 0 0 1-.02.1Zm-.008-.733a.131.131 0 0 1-.025-.163.11.11 0 0 1 .14 0c.077.073-.024.22-.115.167Zm.11 3.641c-.04-.053-.04-.083 0-.049a.088.088 0 0 1 .033.056c0 .03-.008.028-.032 0Zm.041-.892a.077.077 0 0 1-.03-.049c0-.012.012-.009.03 0a.08.08 0 0 1 .031.047c0 .01-.011.01-.03 0Zm-.013-.733a.11.11 0 0 1-.006-.159.096.096 0 0 1 .134-.029.1.1 0 0 1 .034.036c.077.116-.074.261-.162.154Zm.15-.806c-.074.036-.122 0-.122-.086s.122-.159.166-.074a.11.11 0 0 1-.031.15l-.013.007Zm.036-.77c-.102.056-.183-.11-.089-.18.052-.036.065-.034.11.017a.095.095 0 0 1 .011.134.09.09 0 0 1-.037.026Zm0-.77c-.054 0-.07-.019-.081-.061-.033-.122.122-.201.168-.086.037.088 0 .153-.086.147Zm.13-.44a1.5 1.5 0 0 1-.22-.02.125.125 0 0 1-.078.048c-.032 0-.068-.044-.081-.088a1.3 1.3 0 0 1-.208-.085.12.12 0 0 1-.066.027c-.064.008-.093-.024-.093-.1a.04.04 0 0 1 0-.018 1.54 1.54 0 0 1-.177-.14.087.087 0 0 1-.11.022.134.134 0 0 1-.028-.159 2 2 0 0 1-.139-.18.086.086 0 0 1-.155-.008.11.11 0 0 1 .049-.149h.009a2.2 2.2 0 0 1-.11-.22.11.11 0 0 1-.066.047c-.097.029-.158-.142-.072-.193.04-.022.056-.024.082 0a2.5 2.5 0 0 1-.079-.313c0 .049-.033.08-.093.085s-.093-.021-.093-.098a.09.09 0 0 1 .069-.11.089.089 0 0 1 .11.07 2.5 2.5 0 0 1-.033-.403 2.247 2.247 0 0 1 .477-1.418 2.26 2.26 0 0 0-.449 1.386 2.35 2.35 0 0 0 .032.403l.007.039a2.3 2.3 0 0 0 .078.312c.017.053.036.102.055.153a2.2 2.2 0 0 0 .11.22 1.3 1.3 0 0 0 .098.158 2 2 0 0 0 .139.18 1.7 1.7 0 0 0 .136.138 1.54 1.54 0 0 0 .178.14c.051.033.11.062.158.09a1.4 1.4 0 0 0 .207.086 1.29 1.29 0 0 0 .55.045 1.1 1.1 0 0 0 .208-.05 1.4 1.4 0 0 0 .171-.065 1.6 1.6 0 0 0 .324-.211 1.4 1.4 0 0 0 .158-.155 1.1 1.1 0 0 0 .079-.092v.006a.098.098 0 0 1 .075.079.091.091 0 0 1-.024.092c-.067.073-.142.044-.154-.049a1.9 1.9 0 0 1-.159.154.1.1 0 0 1 .02.019c.056.088-.061.208-.142.142a.09.09 0 0 1-.024-.048 1.5 1.5 0 0 1-.176.097.123.123 0 0 1-.065.11c-.053.03-.06.03-.086-.008a.12.12 0 0 1-.022-.037 1.3 1.3 0 0 1-.207.045.123.123 0 0 1-.054.062c-.059.03-.11.012-.117-.057Zm.682.137a.095.095 0 0 1 .128-.037.1.1 0 0 1 .04.045.11.11 0 0 1-.057.143.14.14 0 0 1-.037.009c-.065 0-.105-.088-.073-.16Zm-.052.612c-.067 0-.102-.081-.068-.154a.087.087 0 0 1 .11-.049.088.088 0 0 1 .048.049.11.11 0 0 1-.055.143.09.09 0 0 1-.039.008Zm-.275-.33c-.097.036-.161-.071-.097-.163a.084.084 0 0 1 .11-.034l.018.013a.123.123 0 0 1-.015.173l-.017.011Zm-.309.256a.128.128 0 0 1 .076-.054.12.12 0 0 1 .074.054.097.097 0 0 1-.015.134.095.095 0 0 1-.135-.015.096.096 0 0 1 0-.119m.012.832a.091.091 0 0 1 .095-.104.13.13 0 0 1 .069.024.11.11 0 0 1-.008.154.11.11 0 0 1-.061.028c-.056 0-.091-.04-.091-.11Zm.231.741a.092.092 0 0 1-.009.11.099.099 0 0 1-.181 0c-.061-.162.126-.265.19-.11m-.063 1.667a.14.14 0 0 1 .059.067c.015.03.024.06.015.067s-.017 0-.024-.027a.3.3 0 0 0-.049-.079c-.024-.034-.028-.036 0-.03Zm.061.94c-.051-.066-.051-.098 0-.049a.12.12 0 0 1 .043.07c0 .022-.012.018-.041-.021Zm.017-1.613c-.097.069-.183.022-.183-.102s.116-.181.195-.102a.151.151 0 0 1-.012.203Zm.083-2.246c.045-.034.061-.032.11.018a.095.095 0 0 1-.028.163c-.11.057-.18-.104-.081-.182Zm.11.948a.131.131 0 0 1-.024-.161.11.11 0 0 1 .141 0c.082.069-.025.22-.117.161m.227.815c-.062.034-.122.025-.147-.017-.07-.123.056-.27.152-.174a.141.141 0 0 1-.005.191m.064.742c-.011 0-.029-.024-.042-.052-.028-.061 0-.049.04.012.012.021.015.039 0 .039Zm-.033-2.184a.087.087 0 0 1 .12-.018l.008.006a.123.123 0 0 1-.015.173l-.016.011c-.102.036-.171-.086-.095-.172Zm.123 3.019c-.02-.031-.025-.054-.015-.054s.033.02.045.043c.034.065.015.065-.025.009Zm.122-2.068a.117.117 0 0 1-.053-.209.092.092 0 0 1 .13 0 .09.09 0 0 1 .02.035c.037.091-.008.167-.097.167Zm.134.802a.14.14 0 0 1-.012-.198l.012-.012c.061-.049.095-.049.147 0 .11.11-.025.305-.143.208Zm.199-1.379c-.09.097-.22-.007-.144-.124a.087.087 0 0 1 .117-.036.086.086 0 0 1 .044.057.081.081 0 0 1-.016.1Zm.012-.584c0-.092.093-.146.154-.084a.11.11 0 0 1 0 .16.11.11 0 0 1-.085.034.162.162 0 0 1-.073-.11Zm.273-.579c.038.082-.007.158-.093.149-.06 0-.068-.014-.073-.072-.01-.129.118-.186.167-.079Zm-.036 4.088a.154.154 0 0 1-.03-.06c0-.012.016 0 .032.02a.14.14 0 0 1 .03.06c0 .01-.012 0-.029-.021Zm.025-2.152c-.092.073-.183.033-.183-.083s.09-.154.171-.082a.123.123 0 0 1 .012.165m.03-2.35a.089.089 0 0 1-.11.058.091.091 0 0 1-.063-.094c0-.11.104-.155.164-.063a.084.084 0 0 1 .012.096Zm-.064-1.246a.088.088 0 0 1-.104-.071.08.08 0 0 1 0-.026l.022-.066a.087.087 0 0 1 .151.033.084.084 0 0 1-.067.13Zm.244 4.301c0 .015-.019 0-.034-.033-.025-.055-.025-.056.008-.024a.08.08 0 0 1 .029.053Zm0-1.274c-.129.068-.232-.079-.122-.184.049-.048.061-.05.122-.01a.123.123 0 0 1 .026.172.1.1 0 0 1-.02.021Zm.105-.58a.087.087 0 0 1-.11-.065.11.11 0 0 1 0-.033.09.09 0 0 1 .176-.036c.031.069 0 .122-.063.134Zm.133 2.631-.034-.067.043.049a.176.176 0 0 1 .043.068c0 .034-.015.016-.047-.048Zm.11-1.308c-.062.05-.117.05-.155-.008-.091-.122.039-.283.162-.195a.141.141 0 0 1 0 .2Zm.176-.64a.092.092 0 0 1-.127-.036l-.008-.02c-.051-.134.102-.236.18-.122a.117.117 0 0 1-.015.162.15.15 0 0 1-.022.014Zm.085 1.271c-.028-.049-.029-.057 0-.046a.088.088 0 0 1 .046.052c.022.061 0 .061-.036-.006Zm.035-1.908a.096.096 0 0 1-.138-.069c-.039-.11.086-.203.163-.122a.123.123 0 0 1 0 .173.1.1 0 0 1-.022.017Zm.022-.616c-.071.025-.11-.008-.11-.098 0-.11.097-.147.155-.061a.1.1 0 0 1-.01.14.1.1 0 0 1-.031.017Zm.135-1.753c-.034.036-.135.032-.147-.008-.033-.079.012-.171.08-.171a.11.11 0 0 1 .09.131.11.11 0 0 1-.022.049Zm-.012-.667a.127.127 0 0 1-.022-.161.11.11 0 0 1 .139 0c.083.069-.02.22-.11.16Zm.09 4.228a.08.08 0 0 1-.031-.047c0-.012.013-.008.029 0a.088.088 0 0 1 .031.047c.006.015-.008.013-.024 0Zm-.031-3.143c0-.103.123-.147.165-.062a.101.101 0 0 1-.029.139.1.1 0 0 1-.026.012.084.084 0 0 1-.102-.057.09.09 0 0 1 0-.034Zm.318 2.565a.123.123 0 0 1-.172.017.13.13 0 0 1-.044-.096c0-.05.08-.142.122-.142a.143.143 0 0 1 .082.054.122.122 0 0 1 .018.164Zm.012-.66c-.082.019-.122-.017-.122-.101 0-.122.141-.167.188-.065a.11.11 0 0 1-.031.151.12.12 0 0 1-.03.013Zm.123 1.963c-.021-.033-.029-.062-.018-.062s.03.02.042.043c.044.065.02.082-.02.014Zm.075-4.025a.097.097 0 0 1-.06-.184c.059-.039.064-.039.11.009a.098.098 0 0 1 .01.139.11.11 0 0 1-.053.032Zm.081.419a.096.096 0 0 1 .127-.045.095.095 0 0 1 .045.045.105.105 0 1 1-.171 0Zm.069 2.832c-.027-.04-.029-.049 0-.049a.058.058 0 0 1 .045.043c.024.058.01.058-.033 0Zm.099-2.248c.062-.024.062-.024.1.005a.123.123 0 0 1-.048.212c-.11.012-.159-.19-.048-.234Zm.058 1.512a.116.116 0 0 1-.043-.073c0-.037.016-.019.066.071.028.036.027.036-.019 0Zm.124-.62a.122.122 0 1 1 0-.173l.015.019a.121.121 0 0 1-.018.15Zm-.033-2.229c-.058 0-.076-.01-.092-.051-.054-.142.11-.245.185-.11a.099.099 0 0 1-.022.139.11.11 0 0 1-.063.02Zm.16.395a.121.121 0 0 1 .162.015c.053.097.021.168-.078.182s-.146-.131-.077-.201Zm.09 3.873c-.04-.052-.039-.085 0-.053a.08.08 0 0 1 .029.058c0 .024 0 .024-.024-.01Zm.135-3.247c.048-.016.048-.016.098.018a.131.131 0 0 1 .025.181.132.132 0 0 1-.089.051c-.128.011-.16-.208-.029-.253Zm.06 2.42c-.05-.085-.05-.11 0-.048a.17.17 0 0 1 .042.082c.008.017-.01 0-.034-.036Zm.074-.818c-.036-.05-.036-.081 0-.049a.085.085 0 0 1 .031.059c.005.022 0 .021-.028-.012Zm-.02-.794-.035-.066.043.049a.2.2 0 0 1 .043.067c0 .032-.012.012-.048-.053Zm.274-1.666a.122.122 0 0 1-.172-.015l-.006-.009c-.066-.144.057-.278.166-.184.048.038.058.175.017.205Zm.086-1.179a.123.123 0 0 1-.166.05l-.025-.017a.128.128 0 0 1 .153-.205.138.138 0 0 1 .048.169Zm.081 1.75c0 .022-.016.012-.042-.03-.036-.065-.021-.085.026-.033a.08.08 0 0 1 .024.058Zm-.014-5.17c-.01 0-.038-.036-.062-.083-.043-.091-.01-.122.051-.036.039.046.048.11.017.11Zm.01-.146c-.038-.037-.038-.039 0-.039a.053.053 0 0 1 .048.032c.02.045 0 .045-.042 0Zm.144 2.9a.36.36 0 0 1-.074-.137c0-.029.082.079.082.11v.024Zm.05 1.21c0 .022-.014.013-.04-.028a.24.24 0 0 1-.041-.082c.008-.037.086.07.086.11Zm-.066 1.945c-.028-.056-.029-.067 0-.057a.1.1 0 0 1 .043.061c.027.073 0 .07-.036-.007Zm.077.813c-.038-.067-.038-.103 0-.053a.147.147 0 0 1 .031.074c.007.015 0 .008-.023-.025Zm-.075-8.92c-.049 0-.061-.009-.061-.051a.21.21 0 0 0-.024-.092.047.047 0 0 1 0-.068.14.14 0 0 1 .189.008.132.132 0 0 1-.043.181.13.13 0 0 1-.055.019Zm.205.688c.05-.038.067-.038.11 0s.052.161.008.179c-.079.031-.184-.132-.11-.186Zm.062 3.567a.305.305 0 0 1-.082-.153c.02-.02.086.069.086.11.008.017 0 .033 0 .033Zm.094 2.592c0 .022-.016.012-.04-.031-.038-.064-.021-.086.024-.032a.079.079 0 0 1 .024.062Zm.05 4.325c-.024-.028-.037-.056-.031-.065s.067.046.068.086c.007.009 0 0-.033-.028Zm.027-5.61a.36.36 0 0 1-.072-.139c0-.028.081.079.081.11v.022Zm0-2.261-.055-.012.033.062a.143.143 0 0 1 .016.101c-.009.029-.016.024-.033-.026a.31.31 0 0 0-.043-.088c-.015-.021-.012-.033.008-.048.04-.024.098-.024.11 0s0 .02-.039.01Zm.087 7.96c-.017.01-.021 0-.012-.049a.097.097 0 0 0-.018-.097c-.018-.017-.025-.031-.013-.031a.09.09 0 0 1 .044.024c.037.033.037.134 0 .154Zm.092-.978c-.009 0-.027-.012-.041-.048s0-.05.037.012c.015.024.017.047.007.047Zm.046-1.833c-.039-.049-.04-.08 0-.048a.085.085 0 0 1 .031.058c0 .025 0 .025-.027-.006Zm.093-2.227c-.051-.094-.049-.123 0-.066a.183.183 0 0 1 .04.093c.008.037 0 .03-.036-.028Zm.193-2.212c-.008.012-.022 0-.033-.026s-.028-.045-.036-.045a.02.02 0 0 1-.019-.019c0-.038.036-.026.071.024a.074.074 0 0 1 .022.065Zm-.012-2.86a.11.11 0 0 1 .132 0 .122.122 0 0 1-.057.22c-.074-.007-.135-.181-.072-.227Zm.122 5.855c-.007.01-.024 0-.041-.017-.045-.057-.036-.081.009-.038.019.025.036.043.03.054Zm.054-1.522c-.022-.025-.034-.056-.028-.069s.068.058.068.098c0 .012-.017 0-.039-.028Zm.012-2.42c-.054-.049-.071-.037-.06.046l.009.077-.04-.073c-.038-.066-.038-.073-.008-.098s.042-.03.091 0a.072.072 0 0 1 .041.054c0 .024 0 .024-.034 0Zm-.024-.782c-.069-.018-.122-.136-.077-.171a.092.092 0 0 1 .131 0c.056.08.012.2-.059.177Zm.1 5.571c-.032-.069-.031-.081 0-.054a.18.18 0 0 1 .04.065c.015.062-.013.052-.046-.012Zm.22 1.914c-.011.089-.053.082-.067-.013-.008-.043-.022-.081-.034-.081s-.025 0 0 .071 0 .067-.042 0l-.037-.071c0-.013.043-.03.098-.037a.103.103 0 0 1 .058.039.128.128 0 0 1 .028.094Zm.043-3.343a.123.123 0 0 1-.098-.143.125.125 0 0 1 .042-.071c.064-.044.11-.039.149.012a.122.122 0 0 1 0 .173.125.125 0 0 1-.088.033Zm.189-2.598a.102.102 0 0 0-.021-.059c-.022-.018-.025-.008-.019.048.01.092-.009.09-.048 0s.057-.163.122-.061c.03.046.024.137-.012.137-.013 0-.013-.024-.013-.052Zm.043 3.34c-.022-.029-.035-.059-.03-.069s.069.049.069.088-.013.016-.039-.017Zm.122.06c-.012.021-.02.012-.02-.035s-.015-.069-.034-.077-.047-.051-.012-.051a.073.073 0 0 1 .036.029.122.122 0 0 1 .025.14Zm.187.946c-.036.067-.098.05-.144-.048s-.042-.089-.009-.11.064-.033.122.025.062.083.03.141Zm.142-1.686c-.11 0-.138-.171-.035-.22.068-.036.074-.036.122.012a.123.123 0 0 1-.007.173.12.12 0 0 1-.079.033ZM2.907 8.758a9.286 9.286 0 0 1 5.4-6.533 8.4 8.4 0 0 0-1.423.459 9.64 9.64 0 0 0-2.962 1.918 10.593 10.593 0 0 0-2.917 7.631 10.327 10.327 0 0 0 6.446 9.591c.134.036 1.547.404 1.547.404a7.06 7.06 0 0 1-2.266-1.44A11.27 11.27 0 0 1 2.915 8.756"/></svg>