<svg xmlns="http://www.w3.org/2000/svg" viewBox="0 0 24 24"><path fill="#44739e" d="M8.266 8.297a1.343.917 90 0 1-.917 1.344 1.343.917 90 0 1-.917-1.344 1.343.917 90 0 1 .917-1.343 1.343.917 90 0 1 .917 1.343m-.917-2.024c-.729 0-1.319.906-1.319 2.024s.59 2.025 1.319 2.025 1.318-.907 1.318-2.025-.59-2.024-1.318-2.024m0 3.653c-.578 0-1.041-.729-1.041-1.629s.463-1.629 1.041-1.629 1.04.73 1.04 1.629-.464 1.629-1.04 1.629m6.785-8.791a9.192 9.192 0 0 0-6.889 1.563c-1.585.237-2.972 2.111-3.253 4.539a7.685 7.685 0 0 0 1.063 5.259l.096 8.195a64.86 64.86 0 0 0 14.951.062V8.624c-.2-3.584-1.522-6.482-5.968-7.489M7.492 15.474c-.081 0-.147 0-.147-.463s.066-.462.147-.462.148 0 .148.462c.004.422-.062.463-.148.463m-.132-2.065c-1.742 0-3.156-2.288-3.156-5.112S5.621 3.19 7.364 3.19s3.156 2.288 3.156 5.112-1.409 5.107-3.156 5.107ZM6.068 21.12v1.339a44.81 44.81 0 0 0 13.1.116l-.033-1.358a70 70 0 0 1-13.067-.097"/></svg>