<svg xmlns="http://www.w3.org/2000/svg" viewBox="0 0 24 24"><path fill="#44739e" d="M1.647 9.893a.169.169 0 0 0-.169.169v1.965a.169.169 0 0 0 .339 0v-1.965a.169.169 0 0 0-.17-.169m10.169 4.917h-.011l-1.054.006a1.7 1.7 0 0 0-1.224.472 1.365 1.365 0 0 0-.386.99 1.495 1.495 0 0 0 .464 1.058 1.663 1.663 0 0 0 1.209.447l1.055-.026a1.396 1.396 0 0 0 1.459-1.476 1.429 1.429 0 0 0-1.512-1.471m-1.539 2.354a.898.898 0 0 1 0-1.778.898.898 0 0 1 0 1.778m12.709-1.379a1.484 1.484 0 0 0-1.552-1.497l-10.492.179v-.035l-.289-.083-.284-.082-.01-6.343c0-2.4-1.624-4.353-3.614-4.353h-.537c-1.934 0-3.507 1.899-3.507 4.234v8.553c0 2.309 1.556 4.222 3.469 4.264l.907.02a2.917 2.917 0 0 0 2.101-.873 3.96 3.96 0 0 0 .96-1.559l.288-.055v-.008h.029l10.823-.424a1.716 1.716 0 0 0 1.708-1.938M6.68 18.841a2.17 2.17 0 0 0 .654-.101l.923-.175a2.528 2.528 0 0 1-1.577.56 2.941 2.941 0 0 1-2.748-3.091 2.941 2.941 0 0 1 2.753-3.091 2.578 2.578 0 0 1 1.833.786l-.746-.22a2.224 2.224 0 0 0-1.087-.286 2.658 2.658 0 0 0-2.475 2.811 2.658 2.658 0 0 0 2.47 2.807m-.1-6.595c-1.787 0-3.242-1.828-3.242-4.074S4.793 4.104 6.58 4.104s3.242 1.827 3.242 4.068-1.457 4.077-3.242 4.077Zm5.29 5.681-1.055.025h-.05a1.834 1.834 0 0 1-1.283-.497 1.668 1.668 0 0 1-.518-1.183 1.54 1.54 0 0 1 .44-1.112 1.87 1.87 0 0 1 1.349-.526l1.055-.005h.01a1.609 1.609 0 0 1 1.687 1.64 1.564 1.564 0 0 1-1.635 1.661ZM6.58 4.386c-1.631 0-2.958 1.699-2.958 3.789s1.327 3.79 2.958 3.79 2.959-1.7 2.959-3.79S8.211 4.386 6.58 4.386m1.539 2.139a.297.297 0 0 0 .158.049.146.146 0 0 0 .163-.151c0-.11-.091-.157-.186-.157h-.05v-.081h.051a.145.145 0 0 0 .161-.133.11.11 0 0 0-.127-.118.247.247 0 0 0-.143.051l-.025-.077a.315.315 0 0 1 .19-.063.186.186 0 0 1 .206.186.195.195 0 0 1-.133.186.201.201 0 0 1 .16.202.237.237 0 0 1-.262.237.346.346 0 0 1-.187-.054Zm.075.898a.385.385 0 0 1 .229-.116.44.44 0 0 1 .071-.006v.083a.3.3 0 0 0-.073 0 .307.307 0 0 0-.249.279.208.208 0 0 1 .173-.091.226.226 0 0 1 .22.253.255.255 0 0 1-.238.279c-.154 0-.255-.131-.255-.33a.525.525 0 0 1 .125-.351ZM6.36 6.582l.077-.078c.184-.191.266-.292.267-.411a.135.135 0 0 0-.143-.154.23.23 0 0 0-.151.067l-.032-.075a.3.3 0 0 1 .203-.086.212.212 0 0 1 .22.228c0 .145-.096.263-.247.422l-.058.062h.322v.088H6.36Zm.01 1.402a.31.31 0 0 0 .154.043.165.165 0 0 0 .17-.171c0-.101-.062-.173-.206-.173a.8.8 0 0 0-.1.007l.047-.377h.343v.089h-.274l-.027.201a.4.4 0 0 1 .058 0 .286.286 0 0 1 .155.042.23.23 0 0 1 .102.202.259.259 0 0 1-.267.27.33.33 0 0 1-.179-.049Zm.11 1.157a.197.197 0 0 1-.11-.177.209.209 0 0 1 .22-.209.192.192 0 0 1 .209.194.2.2 0 0 1-.118.184.22.22 0 0 1 .145.203.23.23 0 0 1-.245.229.22.22 0 0 1-.241-.214.22.22 0 0 1 .143-.209Zm-1.649-3.28h.082v.786h-.091V5.96l-.125.074-.021-.08Zm-.253 1.955.32-.503h.11v.489h.1v.084h-.104v.213h-.093v-.213h-.33Zm.086 1.735.312-.694h-.348v-.088h.453v.07l-.313.716Zm.745 1.313-.11.093-.33-.377-.093-.11.449-.387.092.11-.34.294Zm1.16.044c-.173 0-.289-.142-.291-.398s.127-.402.306-.402.292.145.292.391c0 .264-.111.409-.307.409m1.356-.073-.016-.015-.009.009-.311-.31.1-.101.22.219.428-.451.102.096Zm.517-1.383a.345.345 0 0 1-.209.11.4.4 0 0 1-.089 0v-.09a.4.4 0 0 0 .078 0 .267.267 0 0 0 .151-.076.36.36 0 0 0 .094-.21.201.201 0 0 1-.169.085.22.22 0 0 1-.215-.239.261.261 0 0 1 .246-.279c.146 0 .237.131.237.33a.524.524 0 0 1-.124.369m-1.864.737c-.105 0-.182.11-.182.322s.072.315.18.315.181-.125.181-.322-.056-.315-.179-.315M4.911 7.54v-.123a1.1 1.1 0 0 1-.059.109l-.176.268h.235Zm3.419.491c.084 0 .14-.077.14-.189s-.059-.18-.148-.18a.158.158 0 0 0-.139.096.1.1 0 0 0-.011.048c.002.127.056.225.158.225m-.009.802c-.083 0-.142.08-.142.192s.054.166.139.166a.156.156 0 0 0 .141-.082.077.077 0 0 0 .008-.039c0-.134-.045-.237-.146-.237M6.596 9.1a.152.152 0 0 0 .11-.143.118.118 0 0 0-.122-.129.12.12 0 0 0-.124.126c0 .078.054.121.136.146m-.013.388a.135.135 0 0 0 .144-.141c0-.096-.06-.141-.158-.172a.167.167 0 0 0-.129.163.139.139 0 0 0 .143.15M3.502 19.535a5.01 5.01 0 0 1-1.085-3.177V7.805a4.381 4.381 0 0 1 3.12-4.447h-.25A4.287 4.287 0 0 0 1 7.645v8.659a4.343 4.343 0 0 0 3.847 4.287 3.825 3.825 0 0 1-1.345-1.056m-1.58-7.508a.276.276 0 0 1-.549 0v-1.965a.276.276 0 1 1 .549 0Z"/></svg>