<svg xmlns="http://www.w3.org/2000/svg" viewBox="0 0 24 24"><path fill="#44739e" d="M15.863 12.635a.441.441 0 0 0 .261-.442.45.45 0 0 0-.104-.239.54.54 0 0 0-.23-.159.56.56 0 0 0-.184-.032.451.451 0 0 0-.396.215.368.368 0 0 0-.054.245.43.43 0 0 0 .042.23.47.47 0 0 0 .138.154.506.506 0 0 0 .527.028m2.047.034a.62.62 0 0 0 .406-.014.575.575 0 0 0 .245-.231.4.4 0 0 0 .042-.167v-.029a.507.507 0 0 0-.914-.215.276.276 0 0 0-.049.125v.108a.5.5 0 0 0 .029.175.534.534 0 0 0 .241.248m-3.723-.843a.491.491 0 0 0-.653.167.575.575 0 0 0-.026.408.484.484 0 0 0 .681.24.442.442 0 0 0-.002-.815m-3.279 6.327c-1.15-.173-1.253 2.015-.196 2.151 1.152.148 1.249-1.99.198-2.151ZM21.41 1.66 8.297 1a53.5 53.5 0 0 0-6.008.528.722.722 0 0 0-.641.718v19.508a.46.46 0 0 0 .393.46A40.14 40.14 0 0 0 8.067 23c1.929-.06 11.273-.92 13.381-1.087a.988.988 0 0 0 .904-.985V2.645a.988.988 0 0 0-.943-.985Zm.536 18.396a1.3 1.3 0 0 1-1.174 1.297l-11.822.848a1.179 1.179 0 0 1-1.211-1.254V2.911a1.196 1.196 0 0 1 1.207-1.266l11.821.653a1.277 1.277 0 0 1 1.179 1.28ZM20.739 2.799 8.918 2.147a.69.69 0 0 0-.67.764v18.033a.678.678 0 0 0 .667.748l11.822-.846a.794.794 0 0 0 .702-.792V3.573a.772.772 0 0 0-.698-.775Zm-4.08 1.775c.136-1.127 1.367-.818 1.253.215-.135 1.115-1.38.835-1.253-.215m-4.682-.184c.159-1.19 1.38-.874 1.25.23-.156 1.18-1.391.889-1.25-.23m-1.541-.063c.164-1.208 1.387-.89 1.247.23-.164 1.194-1.396.905-1.247-.23m-1.059.981c-.782-.095-.612-2.025.224-1.858.779.113.614 2.005-.225 1.858Zm2.629 14.105c-.277 1.897-2.662 1.506-2.385-.376.28-1.909 2.648-1.481 2.384.376Zm-.107-6.994a.23.23 0 0 1 .221-.391.247.247 0 0 1 .147.206.239.239 0 0 1-.369.184Zm1.231.47a.35.35 0 0 1-.133 0c-.008-.007-.138-.307-.287-.673a3.9 3.9 0 0 0-.326-.731.27.27 0 0 0-.37.005 1.07 1.07 0 0 0-.1.211.6.6 0 0 1-.154.26.382.382 0 0 0-.115.336c.01.057-.008.124-.1.367l-.116.299h-.123c-.115 0-.123 0-.115-.042.035-.145.576-1.516.625-1.576a.479.479 0 0 1 .389-.164.598.598 0 0 1 .39.188 8 8 0 0 1 .345.805l.297.712Zm1.46.373-.126.007v-.24a.98.98 0 0 0-.014-.238 1.3 1.3 0 0 0-.156.069.797.797 0 0 1-.624.026.709.709 0 0 1-.019-1.293.53.53 0 0 1 .313-.03.63.63 0 0 1 .31.069.753.753 0 0 1 .423.549c.01.061.018.327.019.593v.481Zm.23-8.582c-.149 1.164-1.38.876-1.251-.23.154-1.169 1.38-.854 1.254.23Zm1.436 8.23h-.115v-.071c0-.081-.02-.087-.106-.032a1.01 1.01 0 0 1-.392.122.8.8 0 0 1-.176-.016.69.69 0 0 1-.441-.294.732.732 0 0 1 .031-.836.657.657 0 0 1 .632-.237.752.752 0 0 1 .613.41l.061.115.006.413v.412Zm.115-8.193c-.143 1.15-1.38.86-1.254-.222.143-1.16 1.371-.844 1.251.222Zm.95 6.968v.103h-.08a.45.45 0 0 0-.291.133c-.115.115-.13.204-.13.643v.378l-.115.01-.115.011.006-.468.006-.467.057-.115a.637.637 0 0 1 .557-.346h.115Zm1.54 1.254h-.25v-.072c0-.038-.007-.07-.015-.07a1.3 1.3 0 0 0-.15.069.64.64 0 0 1-.279.083 1 1 0 0 1-.217 0 .776.776 0 0 1-.345-.184.717.717 0 0 1-.211-.575.69.69 0 0 1 .408-.616.54.54 0 0 1 .313-.034.62.62 0 0 1 .31.064.751.751 0 0 1 .423.533 3.8 3.8 0 0 1 .018.43v.324Zm.65-8.113c-.129 1.099-1.371.82-1.256-.213.127-1.113 1.36-.802 1.253.213Zm1.545.062c-.123 1.085-1.365.805-1.257-.211.121-1.095 1.355-.786 1.254.211Z"/></svg>