<svg xmlns="http://www.w3.org/2000/svg" viewBox="0 0 24 24"><path fill="#44739e" d="M10.571 10.098v-6.89a1.521 1.521 0 0 0-3.042 0v6.89a.029.029 0 0 0 .031.028h2.98a.029.029 0 0 0 .031-.028m.308 2.048a.404.353 90 0 1-.353.404.404.353 90 0 1-.352-.404.404.353 90 0 1 .352-.403.404.353 90 0 1 .353.403m6.152-.737H10.51a.738.738 0 0 0 0 1.476h6.521a.738.738 0 0 0 0-1.476m-6.5 1.21a.475.475 0 1 1 .421-.473.45.45 0 0 1-.421.473m-.862-.473a.843.843 0 0 1 .444-.737H9.2a.722.722 0 1 0 0 1.441h.855a.842.842 0 0 1-.386-.704m-1.295-.016a.824.824 0 0 1 .824-.823h.512a.863.863 0 0 0-.652-.317 1.047 1.047 0 0 0-.939 1.126 1.047 1.047 0 0 0 .939 1.127.854.854 0 0 0 .628-.289H9.2a.824.824 0 0 1-.826-.824m1.469 4.441a.87.759 90 0 1-.759.871.87.759 90 0 1-.76-.871.87.759 90 0 1 .76-.87.87.759 90 0 1 .759.87m.434-3.617H9.82a.976.976 0 0 1-.762.392 1.149 1.149 0 0 1-1.041-1.23 1.148 1.148 0 0 1 1.041-1.225.977.977 0 0 1 .782.419h.478a.7.7 0 0 1 .095.006.7.7 0 0 1 .097-.006h.52V2.92a1.745 1.745 0 0 0-1.743-1.743h-.474A1.745 1.745 0 0 0 7.07 2.92v18.172a1.745 1.745 0 0 0 1.743 1.743h.474a1.745 1.745 0 0 0 1.743-1.743v-8.105h-.52a.85.85 0 0 1-.233-.033m-2.717-2.64a.222.222 0 0 1-.221-.216v-6.89a1.71 1.71 0 0 1 3.418 0v6.89a.222.222 0 0 1-.222.216Zm1.529 7.23a.98.98 0 1 1 .863-.974.924.924 0 0 1-.863.974m-.276 5.412a1.864 1.864 0 0 1-1.862-1.863V2.92a1.865 1.865 0 0 1 1.862-1.862h.474a1.86 1.86 0 0 1 .737.152 1.94 1.94 0 0 0-.88-.21h-.848a2.037 2.037 0 0 0-2.037 2.037v17.926A2.037 2.037 0 0 0 8.296 23h.205a2.036 2.036 0 0 1-2.037-2.037V3.077a2.037 2.037 0 0 1 1.565-1.982 1.946 1.946 0 0 0-1.343 1.851v18.108A1.946 1.946 0 0 0 8.631 23h.513a1.95 1.95 0 0 0 .695-.128 1.85 1.85 0 0 1-.554.084Z"/></svg>