<svg xmlns="http://www.w3.org/2000/svg" viewBox="0 0 24 24"><path fill="#44739e" d="m2.018 14.595 12.169 4.138a3.3 3.3 0 0 0 3.843-1.357l4.739-7.489a1.511 1.511 0 0 0-.899-2.265L10.782 4.788a3.293 3.293 0 0 0-3.189.91l-6.177 6.428a1.476 1.476 0 0 0-.412 1.132 1.494 1.494 0 0 0 1.014 1.337m10.296-3.542c-.569 0-1.031-.277-1.031-.618s.462-.619 1.031-.619 1.031.277 1.031.619-.463.618-1.031.618m5.716 6.511a3.292 3.292 0 0 1-3.843 1.356L2.018 14.782a1.49 1.49 0 0 1-1.009-1.319 1.497 1.497 0 0 0 1.009 1.539l12.169 4.138a3.3 3.3 0 0 0 3.843-1.357l4.739-7.489a1.485 1.485 0 0 0 .22-.869 1.485 1.485 0 0 1-.22.65Z"/></svg>