<svg xmlns="http://www.w3.org/2000/svg" viewBox="0 0 24 24"><path fill="#44739e" d="M13.878 3.193a1.658 1.658 0 0 0-1.46 1.803 1.658 1.658 0 0 0 1.46 1.803 1.658 1.658 0 0 0 1.458-1.803 1.658 1.658 0 0 0-1.458-1.803m0 2.253a.415.415 0 0 1-.366-.45.373.373 0 1 1 .729 0 .413.413 0 0 1-.363.45m4.201 4.371a1.838 1.838 0 0 0 1.606-1.999 1.838 1.838 0 0 0-1.606-2 1.838 1.838 0 0 0-1.605 2 1.838 1.838 0 0 0 1.605 1.999m0-3.674a1.54 1.54 0 0 1 1.355 1.675 1.54 1.54 0 0 1-1.355 1.674 1.54 1.54 0 0 1-1.35-1.674 1.54 1.54 0 0 1 1.35-1.675m-5.782 4.393a1.748 1.748 0 0 0 1.524 1.901 1.748 1.748 0 0 0 1.525-1.905 1.748 1.748 0 0 0-1.525-1.9 1.748 1.748 0 0 0-1.524 1.904m7.831 2.956a3.466 3.466 0 0 0 1.031-2.519l-.079-6.81a3.085 3.085 0 0 0-3.079-3.038h-5.11a2.957 2.957 0 0 0-2.957 2.997l.094 7.122a3.219 3.219 0 0 0 3.179 3.189l4.398.073a3.47 3.47 0 0 0 2.523-1.014m-4.583-8.496a1.896 1.896 0 0 1-1.667 2.06 1.895 1.895 0 0 1-1.668-2.06 1.895 1.895 0 0 1 1.668-2.061 1.896 1.896 0 0 1 1.667 2.061m-3.429 5.54a1.928 1.928 0 0 1 1.705-2.089 1.929 1.929 0 0 1 1.706 2.089 1.929 1.929 0 0 1-1.706 2.09 1.928 1.928 0 0 1-1.705-2.09m4.221-2.718a1.972 1.972 0 0 1 1.742-2.137 1.973 1.973 0 0 1 1.742 2.137 1.972 1.972 0 0 1-1.742 2.137 1.972 1.972 0 0 1-1.742-2.137m-5.624 5.922a3.578 3.578 0 0 1-1.048-2.491L9.57 4.126A3.329 3.329 0 0 1 11.653 1l-6.471.373a3.438 3.438 0 0 0-2.34 3.344l.101 6.51A3.17 3.17 0 0 0 6 14.348c2.09.073 4.173.25 6.258.303a3.574 3.574 0 0 1-1.545-.911m2.487 1.058c-.09 0-.18-.008-.269-.016-1.36-.016-2.72-.094-4.048-.171l-.338-.02 1.783 2.025h.698a1.1 1.1 0 0 0 .124 0l4.207-.123c.584-.046.746-.413.746-.939a.88.88 0 0 0-.22-.706Zm2.638 3.335-1.463-1.513h-1.877l1.484 1.581Zm-7.392-3.27a.78.78 0 0 0-.578-.257h-.979a.618.618 0 0 0-.596.791 2.78 2.78 0 0 0 .578 1.062l3.088 3.597a3.35 3.35 0 0 0 .417.43l.057.052a1.96 1.96 0 0 0 .921.538h.013l1.139-.078v-.402a3.01 3.01 0 0 0-.339-1.342l-.291-.559 4.565-.229.02.016a1.893 1.893 0 0 1 .754 1.44l.031.77.187-.014.22-.043a.84.84 0 0 0 .498-.907v-.019a1.92 1.92 0 0 0-.166-.53v-.008a1.84 1.84 0 0 0-.337-.48l-2.019-2.057-.919.03 1.501 1.633-4.461.22Zm8.571 5.162a1.773 1.773 0 0 0-.412-1.138l-.081-.095-4.201.213.128.232a2.45 2.45 0 0 1 .313 1.197v.558l4.253-.271Zm-4.392.329a2.6 2.6 0 0 0-.024-.262h-.012c.015.085.027.172.036.262m5.072.411-.026.01-.228.043-.29.022v.008l-4.526.289v-.007l-1.273.087-.034-.009a2.11 2.11 0 0 1-.982-.572l-.054-.05a3.1 3.1 0 0 1-.349-.349l-5.219.289a.092.092 0 0 0-.029.177h.024l4.917.563.184.021a8.3 8.3 0 0 0 1.031.054c.175 0 .35-.009.525-.021l7.287-.482a3 3 0 0 0 .305-.044h.024a.77.77 0 0 0 .252-.081l.116-.057h.01c.037-.032-.202-.066-.25-.072l-1.038-.103a.97.97 0 0 1-.377.284m1.524 1.175v-1.036a1 1 0 0 1-.44.094l-.097.005-7.619.515a6.6 6.6 0 0 1-1.233-.038l-5.025-.625v1.086l4.884.613a8.96 8.96 0 0 0 1.7.05l7.681-.502a.166.166 0 0 0 .149-.162m-7.824.849c-.197.013-.395.02-.593.02a9.2 9.2 0 0 1-1.14-.072l-4.863-.614c-.194.06-.258.165 0 .22l4.744.549a7.87 7.87 0 0 0 1.819.091l7.66-.496c.269-.023.361-.167.236-.255a.346.346 0 0 1-.178.064Zm1.192-2.699h.012a2.32 2.32 0 0 0-.22-.7 3.13 3.13 0 0 1 .208.7m-1.746 1.254a8.3 8.3 0 0 1-1.031-.054l-.184-.021.228.029a6.4 6.4 0 0 0 .987.046m8.117-.544h.024Zm-2.561-2.192-4.303.22.03.056 4.335-.22Z"/></svg>