<svg xmlns="http://www.w3.org/2000/svg" fill="#44739e" viewBox="0 0 24 24"><path d="m9.336 7.261-.03-.081-.085-.013-.054.065.03.082.084.014Zm.552 1.442-.05-.136-.144-.02-.093.117.05.137.145.025Zm-.62.51-.02.095.07.066.093-.029.021-.094-.071-.066Zm.535-1.446-.03-.122-.12-.034-.089.087.03.12.119.035Zm-.501.898.013.007.014-.007v-.02l-.009-.006-.01.008Zm-.315-.325-.007.05.039.031.048-.02.006-.05-.041-.03Zm.049-.611-.017.069.05.049.07-.017.018-.069-.05-.05Zm-.752.232v-.142l-.122-.069-.123.069v.142l.13.069Zm-.386 1.098-.025.042.025.044h.051l.024-.044-.025-.043Zm2.521-.179v.04l.035.02.033-.02v-.04l-.033-.02Zm-2.075.125-.007-.017-.018-.011a.35.35 0 0 1-.074-.038l-.013-.008h-.06v.046a.14.14 0 0 0 0 .05l-.009.059h.059a.26.26 0 0 1 .079 0l.079.014-.029-.081Zm.125.21-.036.061.036.062h.07l.036-.062-.035-.061Zm-.149-.897-.06-.091-.109.006-.049.098.06.09.108-.006Zm.306.492-.02.047.03.04.051-.006.02-.046-.03-.04zm7.445 8.29h.012l.117-7.783a1.8 1.8 0 0 0 .022-.265c0-.045-.006-.089-.01-.134l.093-5.367.038-.037c0-.03-.03-.053-.036-.082v-.013a1.556 1.556 0 0 0-.276-.636c-.575.363-2.1.54-4.528.567-2.648.029-4.9-.17-5.046-.707 0 0-.321.5-.258.769v.021l.131 7.632-.052-.031c.019.525.178 4.706.206 6.5 0 0 .082.838 1.809 1.493a4.84 4.84 0 0 0-.026 1.278c.081.523.617.8.949 1.015a5.3 5.3 0 0 0 1.665.474 15.4 15.4 0 0 0 5.19-.029 2.7 2.7 0 0 0 1.612-.632.54.54 0 0 0 .129-.371v-2.083c.003-1.03-.563-.979-1.741-1.579M6.708 9.07a.314.314 0 0 0-.156.263.27.27 0 0 0 .009.07l-.007.012c-.018.043.025.076.058.1 0 .523.045 1.593-.106 1.669v.007c-.019.008-.05-.03-.077-.055l-.13-7.5a.984.984 0 0 0 .485.307A12.85 12.85 0 0 0 10 4.231c.415.008.859.015 1.362.02h.238a29.76 29.76 0 0 0 4.3-.319c.044-.013.073-.052.114-.073a.72.72 0 0 0 .192-.122l-.1 4.771c-.039-.067-.086-.116-.147-.116s-.137.062-.185.178a.484.484 0 0 0-.22-.355.42.42 0 0 0-.469-.563c-.015-.2-.139-.356-.29-.356a.24.24 0 0 0-.163.065.31.31 0 0 0 .067-.192.384.384 0 0 0-.358-.355.35.35 0 0 0-.229-.09.33.33 0 0 0-.166.045c-.048-.177-.152-.288-.259-.288s-.2.1-.252.256a.438.438 0 0 0-.382-.229.47.47 0 0 0-.123.014v-.007a.41.41 0 0 0-.572-.1c-.034-.2-.147-.348-.286-.348a.278.278 0 0 0-.238.189l-.016-.01a.535.535 0 0 0-.318-.136.328.328 0 0 0-.278.106.305.305 0 0 0-.071.167l-.037-.016a.436.436 0 0 0-.8-.074.437.437 0 0 0-.8.1.374.374 0 0 0-.448-.1.383.383 0 0 0-.21.279.4.4 0 0 0-.325.236.27.27 0 0 0-.072-.008.291.291 0 0 0-.29.292.3.3 0 0 0 .01.073.307.307 0 0 0-.159.135.425.425 0 0 0-.341.313.46.46 0 0 0-.165-.031.409.409 0 0 0-.42.4.4.4 0 0 0 .183.329.39.39 0 0 0-.116.123.262.262 0 0 0-.154-.052c-.188 0-.333.211-.333.477a.65.65 0 0 0 .034.211m.633.2.02-.031-.026-.027-.016-.02-.05-.06-.027.068c-.006.013-.013.025-.02.038v.01c-.11-.025-.22-.04-.328-.068l-.04-.014V9.16a.54.54 0 0 1-.04-.2c0-.211.113-.382.239-.382a.184.184 0 0 1 .135.068l.05.065.029-.069a.269.269 0 0 1 .165-.175l.049-.009.051.03a.18.18 0 0 1 .059.051l.056.054.028.085a.67.67 0 0 1 .01.352l-.02.059h.143l-.018-.058a.8.8 0 0 1-.006-.1.54.54 0 0 1 .038-.2l.015-.046L7.8 8.67a.3.3 0 0 1-.059-.039l-.061-.058-.016-.078a.4.4 0 0 1 0-.05v-.068l-.06.01a.5.5 0 0 1-.057.006h-.059l-.06-.02a.306.306 0 0 1-.214-.285.314.314 0 0 1 .327-.3.347.347 0 0 1 .177.049l.07.036V7.79a.324.324 0 0 1 .3-.3h.022l.01-.026a.228.228 0 0 1 .151-.118l.053-.017-.024-.048a.2.2 0 0 1-.017-.074A.2.2 0 0 1 8.475 7a.19.19 0 0 1 .087.021l.049.027L8.628 7a.3.3 0 0 1 .292-.217h.054v-.048a.286.286 0 0 1 .163-.235.282.282 0 0 1 .372.14c0 .012.01.025.012.038l.01.035h.086v-.088a.344.344 0 0 1 .677-.086l.022.086-.022.087a.3.3 0 0 1-.012.039v.037a.22.22 0 0 1-.017.092l-.026.065h.309l-.075-.079a.35.35 0 0 1-.08-.154l-.028-.085.022-.087a.344.344 0 0 1 .664-.011l.007.024.024.007a.32.32 0 0 1 .108.058l.1.082-.014-.12a.2.2 0 0 1 0-.077.215.215 0 0 1 .246-.183h.007a.434.434 0 0 1 .252.112.5.5 0 0 1 .06.062l.055.069.026-.084c.036-.122.1-.2.176-.2.1 0 .193.156.2.355v.126l.08-.1a.316.316 0 0 1 .444-.045.31.31 0 0 1 .076.09l.02.045.039-.016a.31.31 0 0 1 .128-.025.344.344 0 0 1 .342.344.33.33 0 0 1-.021.116l-.015.049.051.014.026.006.066.017-.01-.062v-.088c0-.253.107-.429.2-.429s.155.117.184.279l.014.079.063-.059a.244.244 0 0 1 .343 0l.01.01h.017a.3.3 0 0 1 .289.264.275.275 0 0 1-.2.243l-.02.008-.008.022-.018.03-.022.043.035.027a.6.6 0 0 0 .074.038l.09.036.05.019.015-.053c.03-.109.1-.182.181-.182.107 0 .2.135.2.3v.1l.065-.025a.33.33 0 0 1 .113-.02.329.329 0 0 1 .317.337.345.345 0 0 1-.04.144l-.03.056.06.006c.1.022.191.169.211.356v.045h.043a.07.07 0 0 1 .036 0l.048.02.016-.05c.038-.124.088-.18.119-.18.05 0 .11.105.144.282l-.006.25v.007c-.33.157-1.159.4-3.909.468a15.5 15.5 0 0 1-4.867-.305Zm7.275-1.763a.37.37 0 0 0-.048.084l-.046-.017a.45.45 0 0 0 .094-.066Zm-3.811 8.333v-.015a1.47 1.47 0 0 1-.083-.277v-.031a1.6 1.6 0 0 1-.029-.227v-.06l-.034-3.394a1.574 1.574 0 0 1 1.48-1.619h.066a1.55 1.55 0 0 1 .246.019c.032.005.064.007.1.013a1.55 1.55 0 0 1 .221.064c.022.008.045.014.068.024a1.5 1.5 0 0 1 .219.112c.014.009.03.016.044.026a1.7 1.7 0 0 1 .2.159l.031.027a1.6 1.6 0 0 1 .172.2l.022.029a1.5 1.5 0 0 1 .132.232.14.14 0 0 1 .017.032 1.53 1.53 0 0 1 .085.255.17.17 0 0 0 .011.038 1.7 1.7 0 0 1 .033.268.08.08 0 0 0 0 .038c.005.013 0 .018 0 .026a.5.5 0 0 1 0 .055l-.034 3.4a1.576 1.576 0 0 1-1.472 1.581h-.024c-.055 0-.089-.006-.121-.007a1.56 1.56 0 0 1-.237-.027.22.22 0 0 1-.056-.016 1.36 1.36 0 0 1-.238-.08l-.035-.016a1.5 1.5 0 0 1-.233-.13l-.018-.014a1.54 1.54 0 0 1-.212-.183v-.01a1.7 1.7 0 0 1-.181-.224V16.1a1.46 1.46 0 0 1-.14-.259zm.047 3.362-.026.015-.026-.017v-.031l.027-.014.037.014zm.129-.344-.057-.008v-.014a.4.4 0 0 0 .068.022zm.2.7-.079-.016v-.021a.32.32 0 0 0 .079.031zm.04-.378-.05-.029V19.1l.045-.03.05.031.005.06zm.18-.272.02-.017v.013zm.087.4-.04-.011-.01-.041.03-.029.041.012.01.04zm.091.309.005-.013v.013zm.01-.546-.03-.011-.005-.03.025-.02.03.01v.031zm.281.355h-.036l-.02-.03.015-.032h.036l.02.029zm.14-.209-.034-.02v-.04l.034-.02.034.02v.04zm.006-.262a.09.09 0 0 0 .029-.069.09.09 0 0 0 0-.027h.01a.12.12 0 0 0 .023.043.6.6 0 0 0-.061.064zm.175.726v-.008l-.01.011a.132.132 0 0 0 .037-.088.09.09 0 0 0 0-.033l.005.009h.007a.16.16 0 0 0 .026.055.32.32 0 0 0-.064.065zm.166-.52-.012.016-.024-.006v-.023l.02-.016.021.007zm.167-.113v.015l-.014.008-.014-.008v-.015l.013-.008Zm-.014-.129a.16.16 0 0 0 .03-.033.07.07 0 0 0 .013.03l-.006-.006Zm.043.228-.029.009-.02-.02.006-.03.027-.009.022.021zm.175.474-.017.008-.025.013v-.01a.15.15 0 0 0 .03-.045.2.2 0 0 0 .015.036zm.072-.259-.026-.017v-.03h.027l.025.017v.02zm.227-.362a.24.24 0 0 0-.076-.062h.03a.6.6 0 0 0 .07.011h.031c0 .015-.007.031-.01.047h-.044zm.052.311h-.03l-.01-.026.016-.022h.028l.02.028zm.182.424h-.047a.27.27 0 0 0-.075-.075.26.26 0 0 0 .04.006.3.3 0 0 0 .064.01h.028a.4.4 0 0 0-.01.063zm-.044-.479-.008.02h-.022l-.013-.018.01-.02h.02zm-.011-.1v-.015l.02-.009.016.007v.015l-.017.01zm.125.374v-.013h.007v.013zm.207-.569a.1.1 0 0 0 0 .026h-.044v-.018l.046-.016zm.046.3h-.027l-.013-.023.013-.022h.026l.013.023zm.087-.1h-.022v-.011l.012-.007.01.007zm.008.57h-.007v-.023a.26.26 0 0 0 .046-.019h.006v.036zm.206-.742.03-.04h.048l.02.044-.028.04h-.05zm.287.385-.016.035a.3.3 0 0 0-.124-.037.28.28 0 0 0-.077.009v-.019a.444.444 0 0 0 .214-.016l.006.012zm.226.164-.016.01-.016-.01v-.018l.016-.01.016.01zm.04-.252h-.02v-.01l.01-.006.01.006zm0-.2h-.025l-.013-.023.014-.022h.026l.012.023zm.1.071-.016.018-.025-.01v-.026l.019-.018.027.009zm.222.311v.005h-.008a.13.13 0 0 1-.007-.034.18.18 0 0 0 .046.006.23.23 0 0 0 .02.034.4.4 0 0 0-.051-.006zm.387.011h-.022l-.01-.02.012-.02h.023l.01.02zm.252 0-.05.007-.029-.04.019-.047.05-.01.03.04zm2.183-.74-.007.017c-.184.355-.725.628-1.611.812v-.011l-.037.009-.03-.026a.14.14 0 0 0-.027-.02l-.045-.025h.028l.046-.01-.015-.006-.024-.018a.3.3 0 0 0 .05-.157.279.279 0 0 0-.276-.28.272.272 0 0 0-.182.069.28.28 0 0 0-.154-.133h-.014a.28.28 0 0 0-.169.014h-.035a.17.17 0 0 0-.043.032l-.037.025a.32.32 0 0 0-.092.036.19.19 0 0 0-.076-.037.281.281 0 0 0-.523-.071.23.23 0 0 0-.075.043.36.36 0 0 0-.107-.049.319.319 0 0 0-.154-.223.33.33 0 0 0-.124-.022h-.019a.252.252 0 0 0-.148.1.26.26 0 0 0-.165-.089H13.5a.263.263 0 0 0-.149.04c-.01.006-.022 0-.03.01a.3.3 0 0 0-.044.051.4.4 0 0 0-.026.031.31.31 0 0 0-.084-.03.2.2 0 0 0-.266-.092.21.21 0 0 0-.079.068.228.228 0 0 0-.227-.149.215.215 0 0 0-.229.189l-.006.01a.2.2 0 0 0 0 .034v.019h-.008a.2.2 0 0 0-.236-.139H12.1a.19.19 0 0 0-.073.043.2.2 0 0 0-.053.086c0 .006-.005.01-.006.015l-.006.012a.2.2 0 0 0 .036.109l-.01.026a.327.327 0 0 0-.122-.123.307.307 0 0 0-.266-.16.3.3 0 0 0-.187.067.235.235 0 0 0-.133-.044.226.226 0 0 0-.156.062.221.221 0 0 0-.169-.085.236.236 0 0 0-.226.234.32.32 0 0 0-.1-.016.269.269 0 0 0-.276.247l-.007.011a.24.24 0 0 0 .064.164c.064.018.13.034.2.051l.07.081.016.02-.259-.07c-1.007-.273-1.593-.651-1.593-1.038v-.023a.81.81 0 0 1 .042-.284c.105-.278.492-.6 1.626-.906l.407-.081a12.156 12.156 0 0 1 5.844.5c.562.231.881.5.895.746a.627.627 0 0 1-.076.339zm-6.358-3.963-.009.007h.01l2-.062a.393.393 0 0 0 .379-.39l.02-1.4a.407.407 0 0 0-.118-.289.386.386 0 0 0-.286-.112l-2.011.062a.392.392 0 0 0-.381.4v1.4a.4.4 0 0 0 .119.284.38.38 0 0 0 .277.1m-.308-.391v-1.4a.3.3 0 0 1 .289-.3l2.018-.061h.009a.29.29 0 0 1 .208.085.3.3 0 0 1 .089.218l-.02 1.408a.3.3 0 0 1-.288.3l-2 .063a.29.29 0 0 1-.216-.085.3.3 0 0 1-.09-.214zm1.366.159v-.005a.2.2 0 0 0 .2-.17.03.03 0 0 0 .011-.02c0-.01-.006-.01-.007-.019a.2.2 0 0 0-.183-.18.192.192 0 0 0-.148.07.2.2 0 0 0-.057.122v.007a.188.188 0 0 0 .187.2zm-1.257 1.301h-.009a1.4 1.4 0 0 0 .09.15 1.09 1.09 0 0 0 .335.388l.013.013a1.3 1.3 0 0 0 .183.112c.021.012.041.026.063.037a1.4 1.4 0 0 0 .157.059c.04.013.078.03.12.04l.02.008a1.4 1.4 0 0 0 .25.036c.882 0 1.493-1.274 1.319-1.881l-.448.025-2.1.07-.1.007a1.4 1.4 0 0 0-.027.216.11.11 0 0 1 0 .036 1.48 1.48 0 0 0 .026.358 1.4 1.4 0 0 0 .047.144 1.5 1.5 0 0 0 .061.182m.089-.81v-.058l1.945-.044c-.073.634-.46 1.074-.948 1.074a.93.93 0 0 1-.282-.035.9.9 0 0 1-.159-.051.82.82 0 0 1-.283-.185.97.97 0 0 1-.139-.179.75.75 0 0 1-.056-.1.85.85 0 0 1-.068-.237c0-.021-.014-.04-.016-.06a.76.76 0 0 1 .006-.125m.101-.521a.1934.1934 0 0 0 .272-.275.2.2 0 0 0-.137-.056.236.236 0 0 0-.193.189.178.178 0 0 0 .046.116c.012.012.004.018.012.026m4.913 4.569a.21.21 0 0 0-.04-.094.015.015 0 0 0-.008-.016.674.674 0 0 0-.445-.257.52.52 0 0 0-.161.026.45.45 0 0 0-.268-.081.466.466 0 0 0-.241.064l-.047.01h-.009a.312.312 0 0 0-.176-.13.475.475 0 0 0-.465.083l-.025.01a.4.4 0 0 0-.045-.013.348.348 0 0 0-.32-.175.406.406 0 0 0-.19.045.47.47 0 0 0-.206-.045.434.434 0 0 0-.263.079.34.34 0 0 0-.23-.079.38.38 0 0 0-.148.03.412.412 0 0 0-.245-.07.4.4 0 0 0-.26.081.37.37 0 0 0-.17-.039.282.282 0 0 0-.262.131.474.474 0 0 0-.3-.1.51.51 0 0 0-.189.034.46.46 0 0 0-.279.006.41.41 0 0 0-.177-.04.315.315 0 0 0-.287.145c-.01 0-.068.051-.079.051a.311.311 0 0 0-.316.173.55.55 0 0 0-.1.324l.153.048a.3.3 0 0 1 0-.043.351.351 0 0 1 .359-.338h.032a.3.3 0 0 1 .288-.219.284.284 0 0 1 .177.061.306.306 0 0 1 .278-.009.378.378 0 0 1 .489.094l.007-.009a.257.257 0 0 1 .084-.1.226.226 0 0 1 .1-.056.22.22 0 0 1 .084-.01c.022 0 .041-.013.063-.007a.28.28 0 0 1 .093.048h.007c.024-.026.061-.03.091-.046a.34.34 0 0 1 .155-.062.38.38 0 0 1 .094.03.31.31 0 0 1 .135.044l.023.022a.29.29 0 0 1 .159-.042.277.277 0 0 1 .229.119h.005a.346.346 0 0 1 .263-.121.334.334 0 0 1 .206.069.3.3 0 0 1 .189-.07.347.347 0 0 1 .32.265l.044.018.025-.014a.364.364 0 0 1 .175-.137l.018-.008a.38.38 0 0 1 .111-.015h.03a.37.37 0 0 1 .1.017l.04.017.028.01c.01 0 .01.016.02.022a.343.343 0 0 1 .122.155l.018.008a.3.3 0 0 1 .05-.014.349.349 0 0 1 .494 0l.015.017a.35.35 0 0 1 .162-.039l.032.007a.5.5 0 0 1 .066.011.47.47 0 0 1 .09.041l.04.028a.6.6 0 0 1 .055.06.5.5 0 0 1 .033.052.34.34 0 0 1 .024.063.33.33 0 0 1 .015.076l.006.027a.5.5 0 0 1-.008.066v.012l.119-.027h-.024c.004-.013-.032-.257-.032-.274M10.504 7.93l-.079.06.004.098.085.044.08-.053-.004-.094Zm2.104 9.192a8.9 8.9 0 0 0-1.336.108 5.7 5.7 0 0 0-.894.166 3.43 3.43 0 0 0-1.3.667 7 7 0 0 1 1.835-.64c4.57-.559 6.472.758 6.607.956v-.032c.08-.017-1.099-1.308-4.912-1.225m-2.804-7.76-.051.066.032.076.082.01.051-.064-.032-.077Zm2.549 2.307h.007a.19.19 0 0 0 .059-.034v.034h.043c-.01-.171-.013-.308-.149-.3a.13.13 0 0 0-.068.026.16.16 0 0 0-.044.08c-.022.099.059.216.152.194m-.1-.22h.006a.065.065 0 0 1 .053-.041c.083-.008.113.1.077.159a.084.084 0 0 1-.052.04.071.071 0 0 1-.084-.044.127.127 0 0 1 .001-.114zm.989 3.051a.21.21 0 0 0 .06-.045.18.18 0 0 0 .045-.057c0-.007.011-.01.013-.015a.21.21 0 0 0 0-.117.191.191 0 0 0-.12-.12.194.194 0 0 0-.132.014.2.2 0 0 0-.057.047.17.17 0 0 0-.045.058c0 .006-.01.009-.014.016a.19.19 0 0 0 0 .115.183.183 0 0 0 .115.117.2.2 0 0 0 .135-.013m-.466-2.863a.26.26 0 0 0 .063-.034v.035h.043c-.008-.171-.012-.3-.145-.3-.063 0-.093.037-.11.1-.027.11.057.228.149.199m-.1-.21v-.011a.064.064 0 0 1 .051-.036.107.107 0 0 1 .108.107.11.11 0 0 1-.019.06.085.085 0 0 1-.056.04.071.071 0 0 1-.084-.047.14.14 0 0 1 .005-.113zm-.176.231h.043a1 1 0 0 1 0-.174c.007-.047.024-.082.071-.084 0 0 0-.042-.009-.046a.058.058 0 0 0-.043.008.12.12 0 0 0-.07.109 1.3 1.3 0 0 0 .007.2zm-.451.022a.084.084 0 0 0 .066-.032c0-.006.015 0 .02-.01l.006.117h.044c-.01-.2 0-.391-.154-.385a.1.1 0 0 0-.069.033.2.2 0 0 0 0 .242.154.154 0 0 0 .087.035m-.077-.216a.062.062 0 0 1 .052-.04c.09-.007.12.1.086.16a.085.085 0 0 1-.055.039.07.07 0 0 1-.084-.044.129.129 0 0 1 .001-.115m-.317.104a.04.04 0 0 0 .048.026c.047-.01.043-.072.015-.1a.041.041 0 0 0-.056.01.062.062 0 0 0-.007.064m-.009.013a.14.14 0 0 1 0-.058c.012-.02.023-.04.033-.061l.008-.033a.13.13 0 0 1 .014-.038.033.033 0 0 1 .017-.026c.044-.018.055.035.067.067l.1.259h.043l-.044-.119a10 10 0 0 0-.1-.229.08.08 0 0 0-.079-.03.11.11 0 0 0-.051.039.3.3 0 0 0-.023.079l-.043.171v.02l-.025.088h.047ZM9.648 7.053l.016-.032-.019-.03h-.037l-.016.034.02.03zm3.228 1.986.013-.022-.013-.022h-.025l-.013.022.013.022zm.968-1.687v-.04l-.03-.017-.032.018v.036l.03.018zm.36 1.749.04-.085-.053-.078-.094.008-.039.085.052.077zm-1.117-1.119v-.035l-.031-.018-.031.018v.036l.03.018zm1.027-.379.002-.005-.002-.003h-.006l-.002.003.002.005zm-.465 1.699.064-.059-.02-.086-.085-.025-.064.06.02.087zm.162-.676.015-.091-.072-.056-.085.035-.012.09.072.055zm.061-.628v-.122l-.105-.06-.106.06v.122l.106.059zm1.016.979-.02.043.027.039.046-.004.02-.042-.027-.04zm-.394-.86.024-.05-.03-.045-.054.003-.025.05.03.045zm-3.245-4.962c2.541 0 4.6-.259 4.6-.578S13.79 2 11.249 2s-4.6.259-4.6.577 2.059.578 4.6.578M15.334 8.9l.005-.01-.005-.008h-.01l-.004.009.004.01zm-.734-.1v-.04l-.035-.02-.036.025v.04l.036.02zm.17-.417.008-.013-.008-.013h-.015l-.008.013.008.013Zm.317.271.083-.16-.096-.152-.19.008-.084.159.097.152Zm-3.017-1.28.06-.088-.045-.096-.107-.009-.059.088.045.096Zm-1.599 2.063v.01l.008.005.008-.005v-.01l-.01-.005Zm.291-1.656-.032.039.015.048.048.01.032-.035-.015-.044Zm.573.049-.02.03.015.037.035.002.02-.03-.016-.031zm-.303.976.07.149.164.02.097-.133-.067-.155-.167-.017Zm.206-1.294.054-.15-.106-.124-.159.03-.055.154.107.124zm.198.914-.015.014.005.02.02.006.015-.015-.005-.019zm-.088-1.531.169.03-.123-.11-.081-.099v.149l.011.033zm-.325 2.575-.049-.024-.046.03.002.055.05.025.046-.031zm.754-.277.005-.025-.02-.017-.023.01-.005.023.02.017zm.255-1.205v.02l.022.009.022-.013v-.02l-.022-.013Zm.453.596-.04.105.074.086.11-.02.038-.105-.072-.085Zm-1.662-1.363-.005.044.036.027.04-.018.006-.044-.036-.026Zm1.915-.09.021-.017-.005-.026-.025-.008-.018.017.005.026Zm-.202.369.059-.139-.089-.128-.159.017-.064.141.092.122Z"/></svg>