<svg xmlns="http://www.w3.org/2000/svg" viewBox="0 0 24 24"><path fill="#44739e" d="M7.887 16.865c0-.277-.168-.504-.374-.504s-.373.225-.373.504.168.502.373.502.374-.225.374-.502m5.77.341c0-.277-.167-.504-.373-.504s-.373.226-.373.504.168.503.373.503.373-.226.373-.503m-5.796-5.358c0-.278-.168-.504-.373-.504s-.373.225-.373.504.167.502.373.502.373-.225.373-.502m5.796.179c0-.277-.167-.503-.373-.503s-.373.226-.373.503.168.502.373.502.373-.225.373-.502m0-5.179c0-.277-.167-.503-.373-.503s-.373.225-.373.503.168.503.373.503.373-.225.373-.503m-5.796.159c0-.277-.168-.502-.373-.502s-.373.225-.373.502.167.503.373.503.373-.225.373-.503M4.643 4.375v.236l11.951-.562-.053 15.915-11.898-1.019v.293l11.977 1.019.559-.24V4.049l-.517-.304Zm14.853-3.373L4.411 2.084a.628.628 0 0 0-.583.625v18.043a.627.627 0 0 0 .563.623l15.087 1.621a.628.628 0 0 0 .694-.624V1.63a.628.628 0 0 0-.676-.628m-2.224 19.077-.636.273-12.087-1.028v-.479l.156.012v-.112l11.674.964v-4.934l-11.674-.482v-.283l11.674.524v-5.09H4.705v-.182l11.674-.133V4.27l-11.674.588v-.155l-.156.007v-.423l12.136-.637.587.346ZM6.98 16.865a.609.609 0 0 1 .533-.663c.719.149.719 1.175 0 1.324a.609.609 0 0 1-.533-.661m6.324-.307c.596-.023.758 1.333-.02 1.32-.668-.04-.654-1.332-.019-1.304Zm-6.349-4.71a.609.609 0 0 1 .536-.663c.718.149.718 1.175 0 1.324a.609.609 0 0 1-.536-.661m6.336-.48c.571-.113.81 1.321-.007 1.321-.67-.013-.696-1.36.007-1.321M6.955 7.007a.61.61 0 0 1 .536-.662.61.61 0 0 1 .533.662.61.61 0 0 1-.533.663.61.61 0 0 1-.536-.663m5.836-.159c-.019-.765.993-.95 1.013-.013.045.924-.993.911-1.013.013"/></svg>