<svg xmlns="http://www.w3.org/2000/svg" fill="#44739e" viewBox="0 0 24 24"><path d="m21.363 19.1483-6.573 1.332a.909.909 0 0 1-1.072-.71.9.9 0 0 1-.018-.178l-.067-14.933a.8.8 0 0 1 .794-.806.9.9 0 0 1 .144.012l6.662 1.15a.067.067 0 0 0 .077-.055.065.065 0 0 0-.018-.058l-.117-.116a.07.07 0 0 0-.035-.019l-7.654-1.419h-.02L2.758 4.6673l-.242.031a.567.567 0 0 0-.493.587.066.066 0 0 0-.023.047v12.5l.122.437a.066.066 0 0 0 .08.048.066.066 0 0 0 .05-.066V5.7123a.852.852 0 0 1 .758-.847l9.35-1.039a.8.8 0 0 1 .88.71.8.8 0 0 1 0 .082v15.074a.885.885 0 0 1-.885.885 1.1 1.1 0 0 1-.115-.008l-8.811-1.155a.066.066 0 0 0-.046.121l.206.138.03.011 8.644 1.257a6.95 6.95 0 0 0 2.437-.077l6.418-1.357c.011 0 .3-.242.3-.242a.067.067 0 0 0-.055-.117m.092-13.765L14.9 4.1783a.666.666 0 0 0-.777.531.7.7 0 0 0-.011.123v14.717a.664.664 0 0 0 .8.652l6.557-1.375a.666.666 0 0 0 .531-.652V6.0383a.666.666 0 0 0-.545-.655m-8.488 14.14V4.8663a.75.75 0 0 0-.75-.75.7.7 0 0 0-.079 0l-8.957.937a.75.75 0 0 0-.672.746v12.657a.75.75 0 0 0 .662.745l8.956 1.068a.751.751 0 0 0 .835-.657.9.9 0 0 0 .005-.089m-7.697-7.241c-.19.036-.263-.246-.14-.388a.157.157 0 0 1 .221-.026c.108.113.079.383-.081.414m.809.491-.179-.014q-.162-.6-.325-1.182c-.041-.144-.072-.379-.253-.3-.119.052-.138.263-.181.41-.031.105-.114.139-.144.251-.023.085.013.164 0 .246q-.081.264-.162.524l-.17-.014v-.005c.042-.144.083-.289.125-.435.067-.231.133-.464.2-.7a1.67 1.67 0 0 1 .109-.338.477.477 0 0 1 .223-.181.293.293 0 0 1 .306.12 5.18 5.18 0 0 1 .31 1.049c.049.185.1.372.147.559zm1.009.439-.178-.014v-.566c-.157.3-.531.148-.683-.046a1.029 1.029 0 0 1 .046-1.122.385.385 0 0 1 .294-.157c.625-.023.524.945.521 1.905m1.144-.331v.006l-.17-.009v-.178c-.09.051-.152.142-.272.163-.369.062-.668-.554-.533-1.1.088-.356.2-.493.465-.525.533-.006.515.723.51 1.643m.639-1.4v.007c-.394.013-.338.744-.332 1.408v.006l-.17-.009v-.006c0-.822-.111-1.3.284-1.559a.39.39 0 0 1 .221-.065c.026.02 0 .219 0 .219zm1.054 1.488v.007l-.17-.009v-.2c-.09.054-.152.158-.272.183-.371.074-.671-.615-.532-1.227.083-.371.2-.472.446-.485.539-.008.533.707.528 1.73zm-.556-1.497c-.086 0-.156.085-.207.2-.17.365-.025 1.038.287.969.413-.1.398-1.209-.08-1.169m-1.692.06c-.1 0-.166.085-.219.2-.163.334 0 .914.3.854.408-.093.395-1.091-.081-1.054m-1.145.037c-.1 0-.162.078-.215.177-.166.3-.011.85.295.794.411-.079.396-1.008-.08-.971"/></svg>