<svg xmlns="http://www.w3.org/2000/svg" fill="#44739e" viewBox="0 0 24 24"><path d="M2.589 10.083a.154.154 0 0 0-.154.154v1.787a.154.154 0 0 0 .308 0v-1.787a.154.154 0 0 0-.154-.154m9.25 4.473h-.01l-.959.005a1.547 1.547 0 0 0-1.113.43 1.242 1.242 0 0 0-.351.9 1.36 1.36 0 0 0 .422.963 1.513 1.513 0 0 0 1.1.406l.959-.023a1.27 1.27 0 0 0 1.328-1.343 1.3 1.3 0 0 0-1.376-1.338m-1.4 2.141a.817.817 0 0 1 0-1.617.817.817 0 0 1 0 1.617M22 15.443a1.35 1.35 0 0 0-1.411-1.362l-9.545.163v-.032l-.263-.076-.258-.074-.009-5.77c0-2.184-1.478-3.96-3.288-3.96h-.488c-1.76 0-3.191 1.727-3.191 3.851v7.781c0 2.1 1.416 3.841 3.156 3.879l.825.018a2.654 2.654 0 0 0 1.911-.794 3.6 3.6 0 0 0 .874-1.418l.262-.05v-.008h.026l9.846-.385A1.561 1.561 0 0 0 22 15.443m-14.833 2.78a1.97 1.97 0 0 0 .595-.092l.84-.159a2.3 2.3 0 0 1-1.435.509 2.675 2.675 0 0 1-2.5-2.812 2.675 2.675 0 0 1 2.505-2.812 2.345 2.345 0 0 1 1.667.715l-.679-.2a2.023 2.023 0 0 0-.988-.26 2.418 2.418 0 0 0-2.252 2.557 2.418 2.418 0 0 0 2.247 2.554m-.091-6c-1.626 0-2.949-1.663-2.949-3.706s1.323-3.7 2.949-3.7 2.949 1.662 2.949 3.7-1.325 3.709-2.949 3.709zm4.812 5.168-.959.023h-.046a1.668 1.668 0 0 1-1.167-.452 1.517 1.517 0 0 1-.471-1.076 1.4 1.4 0 0 1 .4-1.012 1.7 1.7 0 0 1 1.227-.478l.96-.005h.009a1.464 1.464 0 0 1 1.535 1.492 1.423 1.423 0 0 1-1.488 1.511zM7.076 5.073c-1.484 0-2.691 1.546-2.691 3.447s1.207 3.448 2.691 3.448 2.692-1.547 2.692-3.448S8.56 5.073 7.076 5.073m1.4 1.946a.27.27 0 0 0 .144.045.133.133 0 0 0 .148-.138c0-.1-.083-.143-.169-.143h-.046V6.71H8.6a.132.132 0 0 0 .146-.121.1.1 0 0 0-.115-.108.225.225 0 0 0-.13.047l-.023-.07a.287.287 0 0 1 .173-.058.169.169 0 0 1 .187.17.177.177 0 0 1-.121.169.183.183 0 0 1 .146.184.216.216 0 0 1-.239.215.315.315 0 0 1-.17-.049Zm.068.817a.35.35 0 0 1 .209-.106.4.4 0 0 1 .064-.005V7.8a.27.27 0 0 0-.066 0 .279.279 0 0 0-.227.254.189.189 0 0 1 .158-.083.206.206 0 0 1 .2.231.232.232 0 0 1-.217.253c-.14 0-.232-.119-.232-.3a.478.478 0 0 1 .114-.319Zm-1.668-.765L6.946 7c.167-.174.242-.266.243-.374a.123.123 0 0 0-.13-.14.21.21 0 0 0-.138.061l-.029-.068a.274.274 0 0 1 .185-.079.193.193 0 0 1 .2.208c0 .132-.087.239-.225.384L7 7.048h.293v.08h-.417Zm.009 1.275a.28.28 0 0 0 .14.039.15.15 0 0 0 .155-.155c0-.092-.057-.158-.188-.158a.7.7 0 0 0-.091.007l.043-.343h.312v.081h-.249L6.982 8a.35.35 0 0 1 .053 0 .26.26 0 0 1 .141.038.209.209 0 0 1 .093.184.236.236 0 0 1-.243.245.3.3 0 0 1-.163-.044Zm.1 1.053a.179.179 0 0 1-.1-.161.19.19 0 0 1 .2-.19.175.175 0 0 1 .19.176.182.182 0 0 1-.107.167.2.2 0 0 1 .132.185.209.209 0 0 1-.223.208.2.2 0 0 1-.219-.194.2.2 0 0 1 .13-.19Zm-1.5-2.984h.075v.715h-.083v-.625l-.114.067-.019-.072Zm-.23 1.778.291-.457h.1v.445h.091v.076h-.095v.194h-.084v-.194h-.3zm.078 1.579.284-.632H5.3v-.08h.412v.064l-.284.651Zm.678 1.194-.1.085-.3-.343-.085-.1.408-.352.084.1-.309.267zm1.055.04c-.157 0-.263-.129-.265-.362s.116-.366.279-.366.265.132.265.356c0 .24-.101.372-.279.372M8.3 10.94l-.015-.014-.008.008-.283-.282.091-.092.2.2.389-.411.093.088zm.47-1.258a.314.314 0 0 1-.19.1.35.35 0 0 1-.081 0V9.7a.37.37 0 0 0 .071 0 .243.243 0 0 0 .137-.069.327.327 0 0 0 .086-.191.183.183 0 0 1-.154.077.2.2 0 0 1-.196-.217.237.237 0 0 1 .224-.254c.133 0 .216.119.216.3a.477.477 0 0 1-.113.336m-1.696.67c-.095 0-.165.1-.165.293s.065.287.163.287.165-.114.165-.293-.051-.287-.163-.287m-1.516-2.41V7.83a1 1 0 0 1-.054.1l-.16.243h.214zm3.11.447c.076 0 .127-.07.127-.172s-.053-.164-.134-.164a.144.144 0 0 0-.127.088.09.09 0 0 0-.01.043c.002.116.051.205.144.205m-.008.73c-.076 0-.129.072-.129.174s.049.151.126.151a.142.142 0 0 0 .128-.074.07.07 0 0 0 .008-.036c0-.122-.041-.215-.133-.215m-1.569.242a.138.138 0 0 0 .1-.13.107.107 0 0 0-.111-.117.109.109 0 0 0-.113.115c0 .071.049.11.124.132m-.012.353a.123.123 0 0 0 .131-.128c0-.087-.055-.128-.144-.156a.152.152 0 0 0-.117.148.126.126 0 0 0 .13.136m-2.803 9.14a4.558 4.558 0 0 1-.987-2.89V8.183a3.985 3.985 0 0 1 2.838-4.045H5.9a3.9 3.9 0 0 0-3.9 3.9v7.877a3.951 3.951 0 0 0 3.5 3.9 3.48 3.48 0 0 1-1.224-.961m-1.437-6.83a.251.251 0 0 1-.5 0v-1.787a.251.251 0 1 1 .5 0z"/></svg>