<svg xmlns="http://www.w3.org/2000/svg" viewBox="0 0 24 24"><path fill="#44739e" d="M13.17 11.56c-1.232-4.774-4.4-8.192-7.37-8.192-.11 0-.229 0-.343.016l.185 1.32a.683.683 0 0 1-.583.77.683.683 0 0 1-.77-.583l-.16-1.132C1.425 5.107.247 9.706 1.502 14.57c1.232 4.774 4.4 8.191 7.37 8.191a3.74 3.74 0 0 0 .94-.118 5.181 5.181 0 0 0 3.391-3.85 13.604 13.604 0 0 0-.033-7.233m4.99-10.321a2.97 2.97 0 0 0-.506.044l-1.441.123a4 4 0 0 1 2.653 2.234 11.286 11.286 0 0 1 1.251 5.403 11.286 11.286 0 0 1-1.251 5.402 6.1 6.1 0 0 1-.779 1.106c.006-.09.011-.181.015-.271a10.076 10.076 0 0 0 1.85-6.237c0-4.136-1.864-7.501-4.154-7.501a3.19 3.19 0 0 0-2.488 1.499l-.131-.101a4.96 4.96 0 0 0-3.55-1.121A34.5 34.5 0 0 0 5.18 3.293l.034-.01a5.38 5.38 0 0 1 5.026 1.778 13.816 13.816 0 0 1 3.533 6.445 13.805 13.805 0 0 1 .028 7.349 5.866 5.866 0 0 1-2.71 3.671 1.38 1.38 0 0 1-.406.22 30.7 30.7 0 0 0 3.974-.79l.815-.34a7.784 7.784 0 0 0 2.388-4.382l.485-.039a.053.053 0 0 0 .038-.021.051.051 0 0 1 .039-.022C20.974 16.921 23 13.45 23 9.199c0-4.396-2.168-7.96-4.84-7.96M15.262 3.62l.047 1.628a39 39 0 0 0-.258-.367l-.022-.974-.75.025c-.042-.042-.274-.275-.316-.315Zm2.692-.239.44 10.547-.29-.013-.007-.124.167.006-.06-1.411-.243-.008q-.055-.387-.126-.77l.091.077-.064-2.435-.98-.979c-.094-.239-.193-.474-.295-.705l1.254 1.2-.152-5.071-2.073.178.072 1.967c-.043-.069-.178-.283-.22-.351L15.4 3.64l.66-.067Z"/></svg>