<svg xmlns="http://www.w3.org/2000/svg" viewBox="0 0 24 24"><path fill="#44739e" d="M9.984 12.095a.144.144 0 0 0-.061-.123.21.21 0 0 0-.109-.04.098.098 0 0 0-.063.022.194.194 0 0 0-.026.245c.035.044.099.045.189 0a.128.128 0 0 0 .07-.104m-.759-.157a.16.16 0 0 0-.064-.014.183.183 0 0 0-.107.039.13.13 0 0 0-.046.154.152.152 0 0 0 .14.107.2.2 0 0 0 .163-.139c.011-.043.004-.102-.086-.147m1.52.252a.136.136 0 0 0 .17-.027.137.137 0 0 0-.006-.198.156.156 0 0 0-.105-.044.13.13 0 0 0-.043.007.164.164 0 0 0-.112.135c.001.053.035.097.096.127m3.34-.067a4.59 4.59 0 0 0-4.459-4.7 4.589 4.589 0 0 0-4.459 4.7 4.589 4.589 0 0 0 4.459 4.7 4.59 4.59 0 0 0 4.459-4.7m-3.423-.338a.252.252 0 0 1 .303-.008.418.418 0 0 1 .158.467c-.022.043.062.145.015.145a1.2 1.2 0 0 1-.266-.007.412.412 0 0 1-.347-.185.282.282 0 0 1 .132-.412Zm-.367.069c.113-.064.164-.094.207-.054s.009.073-.037.13-.154.187-.122.254v.028-.011c-.01.113.022.164-.033.172h-.056c-.022 0 0-.011-.021-.039-.038-.063-.092-.376.055-.48Zm-2.037.269c0 .026-.048.244-.158.25h-.021a.073.073 0 0 1-.055-.022c-.033-.035-.017-.077.038-.198.047-.1.08-.16.143-.145s.05.082.045.115Zm.199.045a.092.092 0 0 1-.06.021.11.11 0 0 1-.059-.017.122.122 0 0 1-.062-.154v-.006a.108.108 0 0 1 .105-.054.131.131 0 0 1 .109.087.104.104 0 0 1-.04.123Zm1.015.335h-.15v-.094c0-.062-.113-.011-.229-.053a.56.56 0 0 1-.245-.167.6.6 0 0 1 .017.139l-.013.179-.103-.167c-.16-.489-.281-.536-.314-.54s-.048.006-.086.061l-.026.039-.053-.013-.056-.016.022-.059c0-.016.017-.046.034-.097l.006-.019.018-.011a.258.258 0 0 1 .252-.012.643.643 0 0 1 .259.384.5.5 0 0 1 .196-.252l.02-.01a.33.33 0 0 1 .336.038c.182.15.094.54.107.67Zm.079-.304a.275.275 0 0 1 .131-.396.262.262 0 0 1 .275-.03c.161.08.162.328.209.457.122.326-.061.131-.1.141a.439.439 0 0 1-.515-.172m13.447-.377A10.718 10.718 0 0 0 10.809 1.283a12.22 12.22 0 0 0-3.667 1.1 9.75 9.75 0 0 1 13.098 9.208c.078 6.398-4.291 10.254-8.451 10.547-.458.032-.886.04-1.287.029a8.96 8.96 0 0 1-4.483-1.203c0 .007.014.025.046.055a10.255 10.255 0 0 0 5.812 1.799c6.383-.219 11.245-4.216 11.121-10.996m-3.085.204a9.799 9.799 0 0 0-9.454-10.09 9.799 9.799 0 0 0-9.454 10.09 9.798 9.798 0 0 0 9.454 10.089 9.798 9.798 0 0 0 9.454-10.089m-7.378 7.04c0 .018-.021.074-.072.084h-.016a.092.092 0 0 1-.072-.04 5.56 5.56 0 0 1-.384-1.861l.007-.017.017-.008c.02-.011.089-.04.157.055a5.88 5.88 0 0 1 .352 1.79Zm.588-.181-.024.045-.049-.017c-.04-.015-.088-.054-.196-.356a9.66 9.66 0 0 1-.388-1.447l.009-.01a.114.114 0 0 1 .151-.008 3.11 3.11 0 0 1 .49 1.793Zm.639-.334c-.33-.027-.505-.611-.658-1.129a3.4 3.4 0 0 0-.166-.489l-.018-.036.027-.029a.122.122 0 0 1 .122-.04c.177.035.354.513.587 1.184a4.4 4.4 0 0 0 .168.452l.053.094Zm.574-.276a.06.06 0 0 1-.031.008.076.076 0 0 1-.052-.022c-.111-.093-.957-1.427-.855-1.683l.011-.017a.09.09 0 0 1 .1-.021 3.58 3.58 0 0 1 .855 1.66.067.067 0 0 1-.034.075Zm.629-.539a.094.094 0 0 1-.064.096.12.12 0 0 1-.024 0c-.055 0-.185-.061-.543-.558-.147-.204-.611-.883-.504-1.032l.021-.026h.033c.265.025 1.017 1.333 1.077 1.493v.01Zm.442-.401-.017.036-.061-.007c-.094-.015-1.187-1.126-1.141-1.443v-.041l.041-.008c.208-.042 1.079 1.026 1.176 1.311.039.081.02.127-.004.152Zm.537-.527a.1.1 0 0 1-.019.016.068.068 0 0 1-.027.033.055.055 0 0 1-.035.012c-.061 0-.215-.083-.733-.582-.697-.673-.649-.745-.623-.783a.065.065 0 0 1 .042-.03.073.073 0 0 1 .026-.025c.156-.088 1.064.902 1.1.945.315.346.292.375.263.414Zm.366-.568a.082.082 0 0 1-.057.023c-.06 0-.18-.045-.462-.234-.01-.006-.946-.635-.935-.91a.065.065 0 0 1 .013-.087c.123-.098 1.168.739 1.353.941.05.054.17.186.087.267Zm.349-.571a.054.054 0 0 1-.034.01 7.46 7.46 0 0 1-1.477-.865c-.023-.018-.061-.049-.048-.089a.134.134 0 0 1 .025-.084l.056.018-.055-.022a.084.084 0 0 1 .078-.048 3.73 3.73 0 0 1 1.467.911.13.13 0 0 1 .018.1.064.064 0 0 1-.031.069Zm.353-.67a.122.122 0 0 1-.073.017 3.1 3.1 0 0 1-.902-.343c-.594-.289-.712-.354-.728-.448a.147.147 0 0 1 .057-.122c.072-.07.136-.046.855.304.188.081.813.36.828.52a.077.077 0 0 1-.038.072Zm.224-.694c-.015.018-.052.025-.103.025a4.17 4.17 0 0 1-1.508-.501c-.145-.122-.096-.205-.069-.244l.022-.026h.034c.19.029 1.488.379 1.614.634a.071.071 0 0 1 .008.112Zm.155-.723v.048h-.097c-.322 0-1.451-.16-1.616-.416a.137.137 0 0 1 0-.151l.02-.034.04.006.108.014c1.115.167 1.564.316 1.545.533m.136-.698c-.016.025-.036.055-.245.055a9.4 9.4 0 0 1-.97-.08h-.048c-.322-.031-.513-.071-.55-.182-.017-.054 0-.109.07-.163l.013-.012h.017a3.924 3.924 0 0 1 1.711.313.068.068 0 0 1 .002.073Zm.008-.753c-.061.154-.551.176-.826.176h-.076c-.244 0-.818-.029-.88-.201-.011-.028-.017-.085.056-.145a8.6 8.6 0 0 1 1.675.033.122.122 0 0 1 .051.141Zm0-.683c-.019.114-.205.135-1.324.245h-.051c-.098.008-.171.014-.229.014a.236.236 0 0 1-.165-.041.155.155 0 0 1-.045-.123v-.026l.021-.018a2.836 2.836 0 0 1 1.248-.232c.105-.006.213-.011.235-.017l.012.042.021-.053h.013c.197.088.279.143.267.213Zm-.087-.775c.017.081-.09.13-.137.151a5.42 5.42 0 0 1-1.457.314c-.102 0-.176-.014-.202-.046a.084.084 0 0 1 .006-.11 2.11 2.11 0 0 1 1.078-.342c.096-.014.204-.03.255-.043l-.007-.033h.074c.31.008.379.049.393.113Zm-.225-.77a.073.073 0 0 1 0 .091 3.35 3.35 0 0 1-1.505.611.4.4 0 0 1-.071-.006.148.148 0 0 1-.136-.123c0-.15.266-.237.702-.366a3.1 3.1 0 0 0 .393-.134h.01c.505-.14.574-.116.607-.069Zm-.297-.716a.158.158 0 0 1 .066.122.053.053 0 0 1 .016.023c.02.048-.025.083-.044.097a6.08 6.08 0 0 1-1.534.673.09.09 0 0 1-.052-.012.071.071 0 0 1-.028-.076c0-.218.47-.425 1.045-.652.122-.048.256-.102.313-.131V9.22l.046-.026a.166.166 0 0 1 .175-.003Zm-.224-.564c.092.202-1.301.949-1.316.956l-.016.009h-.018c-.081-.009-.188-.03-.206-.114-.029-.132.21-.274.633-.515a5.1 5.1 0 0 0 .465-.282l.015-.008c.303-.106.411-.117.445-.042Zm-.639-.647.013-.014h.018c.05-.011.185-.043.221.047.088.207-.876.889-1.135 1.041a.574.574 0 0 1-.245.101.077.077 0 0 1-.063-.026l-.017-.021v-.026c.052-.304.38-.513.695-.716a2.65 2.65 0 0 0 .516-.383Zm-.212-.612a.143.143 0 0 1 .078.107c.01.093-.081.188-.594.679-.227.233-.622.611-.781.611h-.02a.077.077 0 0 1-.056-.056c-.04-.16.489-.65.652-.798.605-.572.627-.595.723-.534Zm-.669-.475h.014c.085-.028.19-.05.237.018.072.107-.089.307-.476.734-.112.122-.22.244-.276.324-.308.322-.39.366-.433.366h-.019a.071.071 0 0 1-.053-.049 4.56 4.56 0 0 1 .995-1.381Zm-.525-.439.045-.072h.021c.035-.011.144-.045.198.027.085.115-.08.38-.482.931a2.9 2.9 0 0 0-.213.311l-.011.017c-.221.257-.319.319-.375.319a.073.073 0 0 1-.046-.017c-.043-.033-.142-.108.601-1.114.149-.225.209-.319.262-.402m-.489-.489.011-.026.027-.008a.122.122 0 0 1 .143.028c.029.035.122.142-.28.874-.075.136-.451.807-.596.807h-.036l-.012-.033c-.091-.245.216-.734.488-1.179a4.2 4.2 0 0 0 .255-.463m-.611-.336.006-.033.033-.01a.134.134 0 0 1 .157.034c.196.245-.622 1.712-.63 1.723l-.042.06-.057-.051c-.19-.19.026-.623.255-1.082a3.18 3.18 0 0 0 .278-.641m-.621-.279v-.033l.033-.009a.122.122 0 0 1 .154.047c.162.257-.378 1.649-.506 1.771l-.064.061-.033-.079a1.92 1.92 0 0 1 .219-1.175 4 4 0 0 0 .19-.583Zm-.752.245c.043-.174.082-.338.105-.466v-.024l.021-.014a.122.122 0 0 1 .122-.013c.045.025.097.088.086.354-.018.443-.227 1.405-.454 1.506l-.074.033-.009-.079a4.62 4.62 0 0 1 .197-1.301Zm-.611-.162c.028-.215.055-.419.052-.47v-.056l.086-.008c.085-.008.142-.013.181.028s.034.113 0 .293c-.024.147-.059.366-.087.717v.012a1.76 1.76 0 0 0-.022.27c-.015.318-.031.532-.122.601a.104.104 0 0 1-.066.023h-.02a.086.086 0 0 1-.061-.036c-.097-.116-.059-.555.048-1.377Zm-.625-.585.027-.029a.103.103 0 0 1 .115-.035c.039.015.159.06.165.907 0 .236 0 1.01-.154 1.069a.09.09 0 0 1-.029 0 .088.088 0 0 1-.065-.03 3.95 3.95 0 0 1-.058-1.633c.006-.101.013-.199.013-.229Zm-.587-.079c.384.108.323 1.659.288 1.91l-.011.076-.072-.032c-.219-.097-.245-.775-.262-1.521a3.4 3.4 0 0 0-.015-.356l-.057-.117Zm-.711.037c.112-.013.211.123.307.445.122.406.294 1.419.115 1.504l-.032.016-.04-.03a3.83 3.83 0 0 1-.367-1.57c-.017-.135-.032-.245-.043-.306l-.01-.06Zm-.678.102c.064-.007.122.038.192.136a3.51 3.51 0 0 1 .416 1.762l-.046.077-.053-.073a5.87 5.87 0 0 1-.561-1.834l-.008-.068Zm-.647.182a.21.21 0 0 1 .15.077 4.27 4.27 0 0 1 .646 1.744.073.073 0 0 1-.072.078c-.196 0-.777-1.647-.783-1.833v-.066Zm-.667.235h.02a.103.103 0 0 1 .053-.01c.269.019.874 1.513.926 1.711.011.038.025.089-.017.122l-.035.024-.026-.018c-.332-.056-.864-1.466-.953-1.717l-.009-.021v-.014l-.009-.066Zm.097 13.538-.042-.079c-.123-.224.154-.703.418-1.165a3.4 3.4 0 0 0 .3-.596v-.006a4.5 4.5 0 0 1-.26-.078 2.49 2.49 0 0 1-.452.795l.045-.033-.208.294c-.282.395-.34.432-.38.432H7.13l-.02-.037a6.36 6.36 0 0 1 .807-1.54 6 6 0 0 1-.245-.104 4.97 4.97 0 0 1-1.1 1.39.11.11 0 0 1-.034 0h-.029a.077.077 0 0 1-.059-.027c-.061-.074.015-.215.669-1.066.122-.156.226-.293.284-.376l.009-.009.029-.029a4 4 0 0 1-.225-.13 5.54 5.54 0 0 1-.645.743c-.396.4-.513.467-.562.467a.054.054 0 0 1-.031-.01.081.081 0 0 1-.071-.034c-.054-.083.052-.222.659-.874.157-.168.307-.329.41-.45a5 5 0 0 1-.203-.15c-1.045.978-1.24 1.084-1.303 1.084a.07.07 0 0 1-.02 0l-.037-.022-.013-.041c-.029-.137.682-.856 1.126-1.232-.06-.054-.122-.108-.176-.164a7.1 7.1 0 0 1-.567.421l-.014.008c-.011.007-.078.061-.137.109-.315.256-.45.347-.53.347a.09.09 0 0 1-.037-.008.082.082 0 0 1-.05-.073v-.019a1.007 1.007 0 0 1 .532-.57 2.67 2.67 0 0 0 .475-.357v-.006l.105-.075c-.056-.061-.11-.122-.162-.189a3.88 3.88 0 0 1-1.263.699.11.11 0 0 1-.056-.012.093.093 0 0 1-.036-.06.073.073 0 0 1-.03-.036c-.029-.078.049-.146.94-.693l.255-.157a6 6 0 0 1-.135-.2 3.84 3.84 0 0 1-1.248.546.2.2 0 0 1-.04 0 .106.106 0 0 1-.09-.09v-.03c.086-.193.446-.353.829-.522.137-.061.267-.122.38-.176a10 10 0 0 1-.122-.227c-.511.224-1.223.457-1.223.459l-.034.006-.023-.024a.187.187 0 0 1-.053-.18c.053-.182.422-.297.813-.418.141-.044.285-.088.394-.132-.031-.073-.06-.148-.087-.222a3.73 3.73 0 0 1-1.126.277.49.49 0 0 1-.144-.017.15.15 0 0 1-.122-.131v-.034l.029-.02a3.28 3.28 0 0 1 .913-.319c.122-.03.235-.059.342-.09a5 5 0 0 1-.061-.235 7.3 7.3 0 0 1-1.222.201.18.18 0 0 1-.078-.01l-.036-.018v-.03a.202.202 0 0 1 .028-.17c.123-.173.536-.217.937-.259.105-.011.211-.023.307-.036q-.02-.123-.037-.245a6.6 6.6 0 0 1-.93.08c-.233 0-.41-.025-.45-.086a.084.084 0 0 1 0-.098.1.1 0 0 1 .021-.045c.084-.109.489-.153 1.264-.2h.061c0-.082-.008-.163-.009-.245H4.45l-.013-.006a2.3 2.3 0 0 0-.234 0 5.5 5.5 0 0 1-.3.01c-.229 0-.395-.025-.451-.115a.147.147 0 0 1 .011-.162l.017-.028h.079a10.9 10.9 0 0 1 1.269-.058c0-.066.009-.131.013-.195a3.24 3.24 0 0 1-1.329-.244.122.122 0 0 1-.018-.169l.018-.023h.029a9.05 9.05 0 0 1 1.344.051c.011-.063.022-.122.036-.188a7 7 0 0 1-.284-.043c-.489-.082-1.075-.225-1.075-.443v-.062h.058a7.46 7.46 0 0 1 1.389.18q.028-.099.059-.194a3.01 3.01 0 0 1-1.308-.507.122.122 0 0 1-.021-.106l.027-.045c.027-.039.04-.06.813.147.187.051.414.115.611.175.028-.071.057-.14.088-.208-.105-.037-.23-.082-.379-.138-1.056-.404-1.038-.521-1.031-.566a.084.084 0 0 1 .06-.065v-.016l.053-.001a6.72 6.72 0 0 1 1.452.483c.035-.067.073-.133.111-.198a4.12 4.12 0 0 1-1.337-.774.079.079 0 0 1-.011-.093.082.082 0 0 1 .071-.029c.043-.014.122 0 .291.057a9.2 9.2 0 0 1 1.152.564c.043-.064.087-.122.134-.186a4.06 4.06 0 0 1-1.269-.942l-.02-.027.014-.031a.071.071 0 0 1 .065-.046 5.55 5.55 0 0 1 1.421.783q.082-.09.168-.172c-.167-.122-.423-.312-.834-.622-.361-.272-.489-.387-.411-.509l.025-.039.045.016a4.46 4.46 0 0 1 1.384.946c.063-.059.129-.122.195-.174-.366-.298-1.314-1.109-1.236-1.273.009-.019.037-.058.114-.039h.014A5.59 5.59 0 0 1 6.847 8.01c.067-.05.137-.099.208-.147-.072-.072-.176-.184-.336-.361C6 6.718 5.89 6.597 5.901 6.5a.122.122 0 0 1 .065-.09l.021-.009c.035-.01.11-.029.611.489a6.7 6.7 0 0 1 .688.825c.084-.05.17-.098.258-.142a5.73 5.73 0 0 1-1.092-1.497l-.011-.027.015-.024a.097.097 0 0 1 .128-.033 5.46 5.46 0 0 1 1.165 1.484c.115-.053.233-.099.352-.141-.343-.152-.635-.733-.87-1.206-.076-.152-.147-.295-.21-.403l-.025-.042.038-.031a.122.122 0 0 1 .122-.018c.306.096 1.008 1.446 1.059 1.645v.017a4.56 4.56 0 0 1 1.414-.224 4.936 4.936 0 0 1 4.805 5.047 4.936 4.936 0 0 1-4.805 5.047 4.55 4.55 0 0 1-.997-.11c.105.328-.765 1.665-.817 1.729Zm4.061.412a.082.082 0 0 1-.07.041h-.017c-.088-.022-.142-.188-.25-1.612-.01-.122-.018-.227-.024-.285v-.042l.042-.016a.13.13 0 0 1 .15.047 3.74 3.74 0 0 1 .169 1.866Zm-.597-.867c0 .883-.007.967-.089 1a.07.07 0 0 1-.032 0 .16.16 0 0 1-.101-.057 10.76 10.76 0 0 1-.037-1.844c0-.048.011-.083.041-.1a.132.132 0 0 1 .132-.022c.082.049.086.162.086 1.022Zm-.837.996-.032.011-.031-.022c-.057-.046-.068-.216.08-1.575.017-.157.03-.276.033-.328v-.062l.064.01c.103.016.162.132.182.354.049.471-.104 1.546-.3 1.611Zm-.634-.055-.078.091-.026-.116a3.66 3.66 0 0 1 .16-1.281c.051-.228.101-.443.122-.604l.006-.055h.057a.147.147 0 0 1 .122.1 3.75 3.75 0 0 1-.363 1.864Zm-.652-.116-.084.09-.017-.123a2.49 2.49 0 0 1 .236-1.222 2.04 2.04 0 0 0 .162-.574v-.037l.036-.015a.122.122 0 0 1 .161.034c.177.234-.386 1.734-.494 1.846Zm-.654-.173-.016.007a.115.115 0 0 1-.051.014.077.077 0 0 1-.055-.021c-.088-.078 0-.367.425-1.417.08-.194.148-.367.168-.428l.016-.049.051.009a.152.152 0 0 1 .111.078c.141.283-.401 1.345-.64 1.784Zm1.778 2.398c-.741 0-1.126-.078-1.314-.265a.568.568 0 0 1-.151-.429c0-.532.367-.695 1.589-.695s1.589.169 1.589.695v.023c0 .482-.122.651-1.552.671Zm.121-1.159c-1.355 0-1.355.225-1.355.463a.337.337 0 0 0 .081.264c.148.146.561.208 1.303.199a3.46 3.46 0 0 0 1.208-.135c.111-.056.122-.122.122-.304v-.024c-.006-.227-.006-.463-1.359-.463"/></svg>