<svg xmlns="http://www.w3.org/2000/svg" fill="#44739e" viewBox="0 0 24 24"><path d="M13.707 3.994a1.508 1.508 0 0 0-1.327 1.64 1.508 1.508 0 0 0 1.327 1.639 1.508 1.508 0 0 0 1.326-1.639 1.508 1.508 0 0 0-1.326-1.64m0 2.049a.377.377 0 0 1-.332-.409.339.339 0 1 1 .663 0 .376.376 0 0 1-.331.409m3.821 3.975a1.671 1.671 0 0 0 1.46-1.818 1.671 1.671 0 0 0-1.46-1.819 1.671 1.671 0 0 0-1.46 1.819 1.671 1.671 0 0 0 1.46 1.818m0-3.341A1.4 1.4 0 0 1 18.76 8.2a1.4 1.4 0 0 1-1.232 1.522A1.4 1.4 0 0 1 16.3 8.2a1.4 1.4 0 0 1 1.228-1.523m-5.258 3.995a1.59 1.59 0 0 0 1.386 1.728 1.59 1.59 0 0 0 1.386-1.732 1.59 1.59 0 0 0-1.386-1.728 1.59 1.59 0 0 0-1.386 1.732m7.121 2.688a3.152 3.152 0 0 0 .937-2.291l-.071-6.193a2.805 2.805 0 0 0-2.8-2.762H12.81a2.689 2.689 0 0 0-2.689 2.725l.085 6.476a2.927 2.927 0 0 0 2.891 2.9l4 .067a3.155 3.155 0 0 0 2.294-.922m-4.168-7.726a1.724 1.724 0 0 1-1.516 1.873 1.723 1.723 0 0 1-1.516-1.873 1.723 1.723 0 0 1 1.516-1.874 1.724 1.724 0 0 1 1.516 1.874m-3.118 5.038a1.753 1.753 0 0 1 1.551-1.9 1.754 1.754 0 0 1 1.551 1.9 1.754 1.754 0 0 1-1.551 1.9 1.753 1.753 0 0 1-1.551-1.9M15.944 8.2a1.793 1.793 0 0 1 1.584-1.943A1.794 1.794 0 0 1 19.112 8.2a1.793 1.793 0 0 1-1.584 1.943A1.793 1.793 0 0 1 15.944 8.2m-5.115 5.385a3.254 3.254 0 0 1-.953-2.265L9.79 4.843A3.027 3.027 0 0 1 11.684 2L5.8 2.339A3.126 3.126 0 0 0 3.672 5.38l.092 5.92a2.883 2.883 0 0 0 2.78 2.838c1.9.066 3.794.227 5.69.276a3.25 3.25 0 0 1-1.405-.829m2.262.962c-.082 0-.164-.007-.245-.014-1.236-.015-2.473-.086-3.681-.156l-.307-.018 1.621 1.841h.635a1 1 0 0 0 .113 0l3.825-.111c.531-.042.679-.376.679-.854a.8.8 0 0 0-.2-.642zm2.399 3.033-1.331-1.376h-1.706l1.349 1.438zm-6.722-2.974a.71.71 0 0 0-.526-.233h-.89a.562.562 0 0 0-.542.719 2.53 2.53 0 0 0 .526.966l2.808 3.271a3.05 3.05 0 0 0 .379.391l.052.047a1.784 1.784 0 0 0 .837.489h.012l1.036-.071v-.365a2.74 2.74 0 0 0-.308-1.221l-.265-.508 4.151-.208.018.014a1.721 1.721 0 0 1 .686 1.31l.028.7.17-.013.2-.039a.764.764 0 0 0 .453-.825v-.017a1.75 1.75 0 0 0-.151-.482v-.007a1.67 1.67 0 0 0-.306-.437l-1.836-1.87-.836.027 1.365 1.485-4.057.2zm7.794 4.694a1.612 1.612 0 0 0-.375-1.034l-.073-.087-3.821.194.117.211a2.23 2.23 0 0 1 .284 1.088v.508l3.868-.247zm-3.994.3a2.4 2.4 0 0 0-.022-.239h-.011c.014.078.025.157.033.239m4.612.373-.023.009-.208.04-.263.02v.007l-4.116.263v-.007l-1.158.079-.031-.008a1.92 1.92 0 0 1-.893-.52l-.049-.045a2.84 2.84 0 0 1-.317-.318l-4.746.263a.084.084 0 0 0-.026.161h.021l4.472.512.167.019a7.5 7.5 0 0 0 .938.049c.159 0 .318-.008.477-.019l6.626-.438a2.7 2.7 0 0 0 .278-.04h.022a.7.7 0 0 0 .229-.074l.105-.052h.009c.034-.029-.183-.06-.227-.065l-.944-.094a.885.885 0 0 1-.343.258m1.386 1.069V20.1a.91.91 0 0 1-.4.085l-.088.005-6.929.468a6 6 0 0 1-1.121-.034l-4.569-.569v.988L9.9 21.6a8.15 8.15 0 0 0 1.546.046l6.985-.457a.151.151 0 0 0 .135-.147m-7.115.772c-.179.012-.359.018-.539.018a8.4 8.4 0 0 1-1.037-.065l-4.422-.559c-.176.055-.234.15 0 .2l4.314.5a7.16 7.16 0 0 0 1.654.082l6.966-.451c.245-.021.328-.152.215-.232a.315.315 0 0 1-.162.059zm1.084-2.454h.011a2.11 2.11 0 0 0-.2-.637 2.85 2.85 0 0 1 .189.637m-1.587 1.14a7.5 7.5 0 0 1-.938-.049l-.167-.019.207.026a5.85 5.85 0 0 0 .898.042m7.381-.495h.022zM16 18.012l-3.913.2.027.051 3.942-.2z"/></svg>