<svg xmlns="http://www.w3.org/2000/svg" viewBox="0 0 24 24"><path fill="#44739e" d="M10.389 6.299c3.054-.207 5.533 2.339 5.533 5.705s-2.479 5.913-5.533 5.706c-3.129-.211-5.102-2.37-5.102-5.706S7.26 6.51 10.389 6.299m-9.301.223v10.965a4.748 4.748 0 0 0 4.297 4.697l9.937.752h.043c.242.025.485.044.738.056h.081c.101.007.201.009.301.008h.19a7.434 7.434 0 0 0 3.92-1.523 4.782 4.782 0 0 0 2.317-3.57V6.093a4.755 4.755 0 0 0-2.191-3.566A7.21 7.21 0 0 0 16.675 1h-.174c-.11 0-.213 0-.319.008h-.037l-10.76.813a4.748 4.748 0 0 0-4.297 4.701m.22-.012a4.518 4.518 0 0 1 4.089-4.467l10.766-.814c2.283-.172 4.122 1.84 4.122 4.468v12.592c0 2.628-1.839 4.639-4.122 4.468l-10.766-.815a4.518 4.518 0 0 1-4.087-4.466Zm.458 0v10.966a4.057 4.057 0 0 0 3.66 4.006l10.767.813c1.996.151 3.624-1.63 3.624-4.006V5.697c0-2.376-1.628-4.158-3.624-4.007l-10.767.813a4.057 4.057 0 0 0-3.66 4.007m3.059 5.483c0-3.576 2.16-5.942 5.533-6.162 3.33-.226 6.025 2.543 6.025 6.162s-2.695 6.392-6.025 6.163c-3.373-.226-5.533-2.587-5.533-6.163"/></svg>