<svg xmlns="http://www.w3.org/2000/svg" viewBox="0 0 24 24"><path fill="#44739e" d="M12.714 10.859a.124.124 0 0 0 .02.117.25.25 0 0 0 .068.042.314.312 0 0 0 .13.031c.028 0 .056.005.081.01 0 0-.012.012-.031.023l-.036.02.076.048.025-.012.17-.091c.077-.04.151-.082.225-.125.11-.075.175-.162.161-.232a.11.11 0 0 0-.068-.077.208.207 0 0 0-.125-.05.88.877 0 0 0-.473.096.412.411 0 0 0-.223.2m.33-.169a.399.398 0 0 1 .082-.025.456.455 0 0 1 .22.006c.116.04.096.143-.04.23l-.016.008a.55.548 0 0 1-.102.039.633.632 0 0 1-.198.018.193.192 0 0 1-.139-.075.136.136 0 0 1 .049-.11.43.429 0 0 1 .082-.054Zm-.774.031.045.019.045.018.187-.109a.901.898 0 0 1 .377-.155.353.352 0 0 1 .178.022l.029.015.056-.028.068-.032-.043-.021a.601.599 0 0 0-.386-.009l-.081.022-.241.13Zm-.416-.391a.127.126 0 0 0 .031.164.205.204 0 0 0 .058.037.648.646 0 0 0 .202.041c.059 0 .063.006.025.028l-.035.02.041.022.047.018.203-.11.207-.116.037-.044c.078-.088.073-.176-.019-.23a.516.514 0 0 0-.373-.053.628.626 0 0 0-.424.223m.148-.014a.301.3 0 0 1 .097-.072.482.48 0 0 1 .409-.044.14.14 0 0 1 .054.044.086.085 0 0 1 .006.088.229.228 0 0 1-.084.086.539.537 0 0 1-.317.074c-.11-.007-.177-.048-.185-.11a.11.11 0 0 1 .02-.066m-.819-.165a.399.398 0 0 0 .267.109.826.824 0 0 1 .095.011.719.717 0 0 1-.102.068l-.11.066.052.022.052.021.22-.133c.124-.073.25-.149.276-.168.101-.074.139-.161.098-.231a.177.177 0 0 0-.097-.077.312.311 0 0 0-.152-.047.921.918 0 0 0-.329.036c-.235.068-.352.213-.27.323m.152-.164a.486.485 0 0 1 .204-.109c.168-.035.33 0 .36.074a.085.084 0 0 1-.018.11.477.476 0 0 1-.372.116h-.031c-.149-.018-.214-.104-.143-.191m-1.234-.249.057.021.179-.06a.741.739 0 0 0 .207-.082.398.397 0 0 1 .207-.071.842.84 0 0 0 .193-.044 1.223 1.219 0 0 1 .149-.041c.097-.009.174.02.176.066a1.36 1.356 0 0 1-.198.262c-.1.128-.176.235-.176.238a.17.17 0 0 0 .057.024l.047.02.194-.251a3.384 3.374 0 0 0 .231-.286c.007-.05-.025-.094-.089-.124a.525.523 0 0 0-.266-.025c-.053.008-.93.287-1.005.321-.021.01-.018.011.037.032m.787-.109a.195.194 0 0 0-.141-.025c-.082.011-.144.051-.138.092a.08.08 0 0 0 .036.032.27.269 0 0 0 .22-.016c.038-.029.045-.058.023-.083m12.056.01-.011.018a7.46 7.438 0 0 0-.181-1.233 1.753 1.748 0 0 0-.866-1.154l-6.819-3.811a5.052 5.038 0 0 0-5.668.49l-7.671 6.238a1.946 1.94 0 0 0-.723 1.648 2.051 2.045 0 0 0 .038.26c.038.28.11.691.11.781a2.065 2.059 0 0 0 .041.287c.33 2.047.149 2.844 1.044 3.4l6.513 3.861a4.743 4.73 0 0 0 5.733-.43l7.84-6.635c.734-.621.735-1.332.62-3.72m-.249.067a1.517 1.512 0 0 1-.535 1.316l-7.84 6.634a4.701 4.688 0 0 1-3.062 1.159 4.8 4.787 0 0 1-2.53-.739l-6.514-3.863a1.707 1.702 0 0 1-.812-1.316 2.012 2.006 0 0 0 .536.483l6.514 3.86a5.033 5.018 0 0 0 2.656.777 4.949 4.935 0 0 0 3.216-1.218l7.841-6.635a1.76 1.754 0 0 0 .493-.668 1.661 1.656 0 0 1 .037.21m-20.81.668 7.671-6.243a4.784 4.77 0 0 1 5.398-.467l6.819 3.812a1.54 1.535 0 0 1 .242 2.502l-7.842 6.634a4.706 4.692 0 0 1-3.06 1.16 4.799 4.785 0 0 1-2.53-.74l-6.518-3.861a1.726 1.721 0 0 1-.181-2.797m5.191 4.014a.314.235 0 0 1-.313.235.314.235 0 0 1-.314-.235.314.235 0 0 1 .314-.235.314.235 0 0 1 .313.235"/></svg>