<svg xmlns="http://www.w3.org/2000/svg" viewBox="0 0 24 24"><path fill="#44739e" d="m22.299 19.664-7.23 1.465a1 1 0 0 1-1.179-.781 1 1 0 0 1-.02-.196l-.074-16.426a.88.88 0 0 1 .874-.887 1 1 0 0 1 .158.014l7.328 1.265a.074.074 0 0 0 .085-.061.071.071 0 0 0-.02-.064l-.129-.127a.077.077 0 0 0-.038-.021l-8.419-1.561h-.022L1.834 3.735l-.266.034a.624.624 0 0 0-.543.646.073.073 0 0 0-.025.051v13.75l.134.481a.073.073 0 0 0 .088.053.073.073 0 0 0 .055-.073V4.884a.937.937 0 0 1 .834-.931L12.396 2.81a.88.88 0 0 1 .968.781.9.9 0 0 1 0 .09v16.581a.973.973 0 0 1-.974.974 1.2 1.2 0 0 1-.126-.009l-9.692-1.271a.073.073 0 0 0-.051.134l.227.151.033.012 9.508 1.383a7.65 7.65 0 0 0 2.681-.085l7.06-1.492c.012 0 .33-.266.33-.266a.074.074 0 0 0-.061-.129M22.4 4.522l-7.21-1.325a.733.733 0 0 0-.855.584.77.77 0 0 0-.012.135v16.189a.73.73 0 0 0 .88.717l7.213-1.512a.733.733 0 0 0 .584-.718V5.243a.733.733 0 0 0-.6-.721m-9.336 15.554V3.954a.825.825 0 0 0-.825-.825.8.8 0 0 0-.087 0l-9.853 1.03a.825.825 0 0 0-.739.821v13.923a.825.825 0 0 0 .728.819l9.852 1.175a.826.826 0 0 0 .918-.723 1 1 0 0 0 .006-.098m-8.467-7.965c-.209.04-.289-.27-.154-.427a.173.173 0 0 1 .243-.028c.119.124.087.421-.089.455m.89.54-.197-.015q-.178-.66-.358-1.3c-.045-.159-.079-.417-.278-.33-.131.057-.152.289-.199.451-.034.115-.125.153-.158.276-.026.093.014.18 0 .27q-.089.291-.179.577l-.187-.016v-.005c.047-.158.092-.318.138-.479.074-.254.146-.51.22-.77a1.84 1.84 0 0 1 .12-.371.525.525 0 0 1 .245-.199.322.322 0 0 1 .337.132 5.7 5.7 0 0 1 .341 1.153c.054.204.11.41.161.615Zm1.11.483-.196-.015v-.623c-.173.33-.584.163-.751-.05a1.132 1.132 0 0 1 .05-1.235.423.423 0 0 1 .324-.172c.687-.026.576 1.039.573 2.095m1.258-.364v.007l-.187-.01v-.196c-.099.056-.167.156-.299.179-.406.069-.735-.609-.586-1.21.096-.391.22-.542.511-.577.586-.007.567.795.561 1.807m.703-1.54v.008c-.433.014-.372.818-.365 1.549v.006l-.187-.01v-.006c0-.904-.122-1.43.312-1.715a.43.43 0 0 1 .243-.072c.029.022 0 .241 0 .241Zm1.159 1.637v.008l-.187-.01v-.22c-.099.059-.167.174-.299.201-.408.081-.738-.676-.585-1.35.091-.408.22-.519.491-.533.593-.009.586.778.58 1.903Zm-.611-1.647c-.095 0-.172.094-.228.22-.187.402-.027 1.142.316 1.066.454-.11.438-1.33-.088-1.286m-1.861.066c-.11 0-.183.094-.241.22-.18.368 0 1.006.33.94.449-.103.434-1.2-.089-1.16m-1.26.041c-.11 0-.178.086-.236.195-.183.33-.012.935.324.873.452-.087.436-1.109-.088-1.068"/></svg>