<svg xmlns="http://www.w3.org/2000/svg" viewBox="0 0 24 24"><path fill="#44739e" d="M17.9467 17.4894c-1.2818-.141-2.4074-.6707-3.2994-1.5526-.262-.2589-.6429-.7139-.6429-.7678 0-.0177.766-.56.791-.56.007 0 .0725.0786.1466.1744 1.3929 1.8023 3.8974 2.2939 5.83 1.1444.9926-.5903 1.7394-1.5705 2.0442-2.6829.3037-1.1084.1944-2.2676-.3094-3.2814-.6809-1.3701-1.9476-2.2808-3.436-2.4703-.342-.0435-1.002-.0303-1.3118.0264-.783.1431-1.482.4618-2.0932.9543-.2286.1842-.6198.5857-.7603.7804-.0568.0787-.112.1403-.1227.137-.0278-.009-.7784-.5365-.7784-.5474 0-.013.128-.1839.2517-.336.1417-.1741.5065-.5428.6952-.7025 1.6516-1.3975 3.9963-1.7058 5.9368-.7804.9615.4586 1.7725 1.196 2.3266 2.1157 1.0898 1.8086 1.0416 4.1378-.1215 5.8823-.2503.3754-.3928.5497-.7062.8637-.459.4598-.88.762-1.4648 1.051-.5395.2667-1.0427.4246-1.652.5184-.2813.0433-1.056.0628-1.3235.0334zm-.7134-4.4478c0-.9566-.007-1.6896-.0165-1.6896-.009 0-.3321.1151-.718.2558-.3859.1406-.7164.2599-.7345.265-.0308.009-.0328-.0263-.0325-.5515l.0004-.5606 2.257-.8102 2.2571-.8102.005 2.254c.003 1.2398.001 2.2575-.003 2.2617-.01.01-2.9821 1.0743-3.0009 1.0748-.008.0001-.014-.76-.014-1.6892zM0 14.5012c0-.0132.3833-1.1474.8519-2.5205l.8518-2.4966.628-.005.628-.005.8574 2.5135c.4715 1.3824.8573 2.5188.8573 2.5252 0 .006-.2484.0117-.552.0117h-.5518l-.1062-.3332a86 86 0 0 0-.1677-.521l-.0615-.1877H1.3271l-.1642.5163-.164.5162-.4995.005c-.3955.004-.4994 0-.4994-.019zm2.9282-1.9806c-.1597-.4872-.4846-1.5193-.5598-1.7787l-.0926-.3191-.0218.0845c-.0764.2962-.4163 1.3984-.6296 2.0415l-.0265.0798h1.3656zm2.3657-.5184v-2.523l.9303-.014c.5117-.008 1.008-.008 1.1029-.0006 1.0503.0807 1.5767.5858 1.5757 1.512-.0003.2877-.0354.4544-.1442.6852-.143.3034-.3492.506-.6812.6695l-.192.0945.0449.0592c.0462.0611 1.2684 2.0194 1.2684 2.0324 0 .004-.2692.007-.5981.007h-.5982l-.5704-.9668-.5704-.9668H6.308l-.005.962-.005.9622-.5022.005-.5021.005zm2.0354-.2829c.3676-.1012.5314-.3362.5142-.7376-.006-.1512-.0173-.2043-.0616-.302-.0918-.2023-.2594-.314-.5397-.3595-.1285-.0208-.7506-.0262-.8642-.007l-.0704.0116v1.4455l.4552-.01c.3376-.007.484-.018.5665-.0406zm2.747 2.7913-.183-.006V9.4793l.8397-.014c.4619-.008.9328-.008 1.0466-.001 1.1735.0737 1.897.6175 2.1502 1.6156.0716.2824.0975.5244.0966.9011-.004 1.4854-.7106 2.335-2.0926 2.5149-.1718.0224-.3847.028-.948.0249-.3996-.002-.8089-.007-.9095-.0101zm1.6473-.8501c.2389-.027.3707-.0632.5537-.1525.492-.2399.7178-.7695.6898-1.6183-.006-.1715-.0236-.3672-.0413-.4508-.1232-.5807-.4237-.928-.921-1.0644-.1776-.0487-.4203-.0662-.821-.0592l-.2956.005V13.64l.0798.0107c.0832.0112.2318.0194.4553.0253.0723.002.2074-.005.3003-.0156z"/></svg>