<svg xmlns="http://www.w3.org/2000/svg" viewBox="0 0 24 24"><path fill="#44739e" d="M17.451 17.032c-1.175-.129-2.207-.615-3.024-1.423-.24-.238-.59-.655-.59-.704 0-.016.703-.513.725-.513.007 0 .067.072.135.159 1.277 1.653 3.572 2.103 5.344 1.049.91-.541 1.594-1.439 1.874-2.459.278-1.016.178-2.078-.284-3.008-.624-1.256-1.785-2.091-3.149-2.264-.314-.04-.919-.028-1.203.024-.718.131-1.358.423-1.919.875-.209.169-.568.537-.697.715-.052.072-.102.129-.112.126-.026-.009-.714-.492-.714-.502 0-.012.118-.169.231-.308.13-.16.464-.498.637-.644 1.514-1.281 3.664-1.564 5.442-.715.882.42 1.625 1.096 2.133 1.939.999 1.658.955 3.793-.111 5.392-.23.344-.36.504-.648.792-.42.421-.806.698-1.342.963-.495.245-.956.389-1.515.475-.257.04-.968.058-1.213.031m-.654-4.077c0-.877-.006-1.549-.015-1.549-.008 0-.304.105-.658.234s-.657.239-.673.243c-.029.009-.03-.024-.03-.505v-.514l2.069-.743 2.069-.742.005 2.066c.002 1.136.001 2.069-.003 2.073-.009.009-2.734.985-2.751.985-.007 0-.013-.696-.013-1.548M1 14.293c0-.012.351-1.052.781-2.311l.781-2.288.575-.005.576-.004.786 2.304c.432 1.267.786 2.309.786 2.314 0 .006-.228.011-.506.011h-.506l-.097-.305a79 79 0 0 0-.154-.478l-.056-.172H2.217l-.151.473-.15.473-.458.005c-.363.004-.458 0-.458-.017m2.684-1.816c-.146-.446-.444-1.392-.513-1.63l-.085-.293-.02.078c-.07.271-.381 1.282-.577 1.871l-.024.073h1.252Zm2.169-.475V9.689l.853-.013c.469-.007.924-.007 1.011 0 .962.074 1.445.537 1.444 1.386 0 .264-.033.416-.132.628-.131.278-.32.464-.625.614l-.176.086.041.055c.043.056 1.163 1.851 1.163 1.863 0 .003-.247.006-.548.006h-.548l-.523-.886-.523-.886h-.508l-.004.881-.005.882-.46.005-.46.005Zm1.866-.259c.336-.093.487-.309.471-.676-.006-.139-.016-.188-.057-.277-.084-.186-.237-.288-.494-.33-.118-.019-.688-.024-.792-.006l-.065.01v1.325l.417-.009c.31-.006.444-.016.52-.037m2.518 2.558-.168-.005V9.689l.77-.012c.423-.008.855-.008.959-.001 1.076.067 1.739.566 1.971 1.481.066.258.089.48.089.826-.004 1.361-.652 2.14-1.919 2.305-.157.02-.352.026-.869.023-.366-.002-.741-.007-.833-.01m1.51-.779c.219-.025.339-.058.507-.14.451-.22.658-.705.633-1.483-.006-.157-.022-.337-.038-.413-.113-.533-.389-.851-.845-.976-.162-.045-.385-.061-.752-.054l-.271.004v3.043l.073.01c.076.01.212.018.417.023.067.002.19-.004.276-.014"/></svg>