<svg xmlns="http://www.w3.org/2000/svg" viewBox="0 0 24 24"><path fill="#44739e" d="M16.425 16.7348c-.1245-.0223-.2463-.098-.2833-.1762-.0645-.1358-.0268-.3063.0878-.3978l.066-.0526-.0445-.035c-.0857-.0674-.0713-.2402.0245-.2941.0298-.0168.0272-.0244-.027-.0807-.0764-.0794-.0997-.1427-.0997-.2706 0-.2102.1174-.362.3275-.4234.0316-.009.2072-.011.3907-.004l.3333.0126v.063c0 .0626-.0003.0628-.0913.0628h-.0913l.0444.0877c.0998.1973.0189.4278-.1886.5372-.061.0322-.115.0415-.2621.0454-.1045.003-.1966.0142-.2113.0264-.0143.012-.026.0461-.026.076 0 .0737.0522.0911.2726.0911.2218 0 .3508.0273.4253.09.2071.1743.1048.489-.1956.6014-.12.045-.3254.0637-.4511.0412zm.4465-.1801c.1033-.0536.1545-.1492.1306-.2436-.0313-.1237-.088-.1485-.3525-.1542-.1962-.004-.2341-.0003-.2669.0282-.1494.1298-.132.3162.0365.3922.089.0401.3574.0267.4523-.0226m-.0496-.9225c.1558-.1142.1484-.3613-.0142-.4699-.049-.0327-.0904-.0426-.1784-.0426-.1335 0-.2165.0412-.2742.1359-.0752.1234-.0335.3308.0789.3923.1055.0577.2984.0499.388-.0157zm-3.9487.5186c-.11-.0268-.1966-.103-.2523-.2217-.0437-.0932-.0493-.1279-.0487-.3024.0006-.1761.006-.2098.0544-.315.1004-.2203.253-.309.5458-.3173l.1877-.005.005-.2633.005-.2633h.1684l-.005.8403-.005.8403-.082.006-.0822.006.008-.1264c.006-.0948.003-.118-.0118-.0926-.104.1773-.2959.2618-.488.215zm.2673-.1562c.0739-.0385.1278-.1025.1755-.2086.0372-.0827.0423-.1254.0432-.3659l.001-.2722-.105-.0167c-.2248-.0357-.3685.0257-.4536.1937-.0458.0903-.0516.1224-.0512.2816.0004.2026.0336.3043.1218.3737.061.048.1903.055.2683.0144m.8769.1484q-.1366-.0483-.177-.2087c-.0114-.0454-.0202-.2638-.0202-.5037v-.4236h.169l.0001.399c0 .2195.009.4308.0197.4696.0296.1067.082.1454.197.1454.112 0 .1986-.0482.2661-.1485.0684-.1015.0802-.1797.0803-.5322l.0001-.3333h.169v1.1454h-.1502v-.1267l-.0002-.1268-.0422.069c-.0553.0905-.1275.1453-.2338.1773-.108.0325-.1815.0319-.2777-.002zm3.3705.0124c-.0834-.0122-.0846-.0134-.0902-.0904l-.006-.078.0714.0166c.1078.025.2808.0207.3512-.009.1232-.0515.1648-.1918.0804-.271-.0239-.0225-.1185-.0662-.2103-.0972-.0965-.0326-.1888-.0774-.219-.1064-.1417-.1358-.1018-.372.0803-.4744.0876-.0492.2739-.0712.419-.0495.0852.0128.0863.0138.0863.085v.072l-.0798-.0184c-.044-.01-.1324-.015-.1966-.0112-.1487.009-.2118.0594-.2118.1692 0 .0937.057.1482.2018.193.2588.0802.3427.1581.3427.3183 0 .1055-.0327.1734-.1206.2506-.101.0886-.3027.1293-.499.1006zm1.8829-.002c-.089-.0211-.1458-.0645-.1807-.1382-.0607-.1277-.0275-.261.0907-.3651.102-.09.2367-.137.4275-.1497l.1455-.01v-.1055c0-.1223-.048-.2183-.1232-.2469-.0772-.0294-.2532-.02-.365.0192-.1343.0473-.1314.0478-.1314-.0259 0-.0518.009-.067.0516-.0835.1092-.0424.207-.0594.3434-.0595.1883-.0001.2914.0492.3514.1682.0403.08.0422.1042.0422.5398v.4561h-.1502l-.0002-.1267-.0002-.1268-.0422.0697c-.0569.094-.1495.1588-.2612.1828-.1029.022-.112.022-.1982.002zm.3277-.1847c.0714-.0508.1553-.2136.1553-.3011v-.0648l-.1267.0114c-.1818.0164-.2667.0457-.3371.1161-.078.078-.0816.152-.0116.2352.0475.0565.056.0594.1561.0521.0694-.005.1259-.0219.164-.049zm1.9415.1848c-.0785-.0194-.1545-.0744-.1851-.134-.0322-.0626-.0295-.2142.005-.281.0652-.1261.267-.2206.514-.2407l.1425-.0116-.003-.099c-.004-.1365-.035-.2021-.1148-.24-.087-.0413-.2809-.0292-.404.0253-.0805.0357-.0888.0364-.0891.008a.35.35 0 0 0-.0112-.0727c-.01-.0367.002-.045.1149-.0798.1365-.0422.3482-.0514.4607-.0202.0864.024.1782.1212.2039.216.0118.0437.0204.254.0205.5023l.0002.4272h-.1724l.006-.113.006-.113-.0632.0761c-.1053.1269-.2806.188-.4321.1505zm.278-.1596c.0795-.0411.1471-.1316.1793-.2397.0459-.1545.047-.153-.1013-.1405-.2703.0227-.3959.0981-.3959.2377 0 .1107.0623.17.1785.17.0475 0 .1102-.0124.1394-.0275m-18.4659.1208c.007-.021.1285-.3696.2708-.7746l.2587-.7364.1697-.005.1696-.005.0184.0523c.0101.0288.1336.3746.2744.7685.1408.394.256.7214.256.7277 0 .006-.071.0114-.158.0114H4.454l-.0559-.155-.0559-.1549-.298-.005-.298-.005-.0542.16-.0543.1601H3.489c-.141 0-.148-.002-.1366-.0382zm.8794-.605a17 17 0 0 1-.1107-.3237c-.0447-.1341-.085-.2313-.0895-.216a52 52 0 0 1-.1957.596c-.007.018.0423.0235.2082.0235h.2171zm.7196.6306c-.007-.007-.0125-.3564-.0125-.7767v-.7642l.2135-.013c.3684-.0228.5958.0254.7044.1492.1588.1808.115.501-.086.6295-.0497.0317-.1134.0624-.1418.0683s-.0516.0184-.0516.028c0 .009.1056.1638.2347.343s.2347.331.2347.3372c0 .006-.079.0113-.1754.0113h-.1753l-.2143-.3184c-.1178-.1752-.2206-.3188-.2284-.3192-.008-.0005-.014.1428-.014.3184v.3192h-.1378c-.0757 0-.1433-.006-.1502-.0125zm.5143-.87c.1383-.0384.2135-.1814.1612-.3064-.0403-.0964-.1013-.1285-.2508-.132l-.1274-.003-.005.23-.005.2301.0804-.0001c.0442 0 .1105-.008.1472-.0187zm.8392.8696c-.0306-.008-.0329-.0608-.0329-.7743v-.7657l.263-.0104c.4218-.0167.644.029.8033.1654.11.094.1922.2696.2077.4434.0295.3297-.0384.5624-.212.7266-.1863.1761-.3607.2284-.7521.2254-.1343-.001-.259-.006-.277-.0104m.6503-.276c.0876-.0368.1772-.1194.2237-.2064.0361-.0675.0414-.1063.0414-.3027 0-.1975-.005-.235-.0421-.304-.0815-.1525-.2081-.2124-.449-.2124h-.1567v1.0489l.0422.009c.0665.0145.276-.006.3404-.0327zm1.5176.2664c-.0173-.0173-.0225-.7304-.0225-3.0954 0-2.953.001-3.074.0343-3.1038.0298-.027.0896-.0311.4502-.0311h.4159l.0292.0446c.0257.0392.0267.081.009.3399-.0182.2607-.0127.3714.0146.2946.005-.0138.0506-.0874.1016-.1636.2663-.3982.6958-.5935 1.2457-.5663.2487.0123.3817.0453.5866.1456.4701.2301.7352.7254.7927 1.481.051.6701-.0912 1.304-.3913 1.744-.2803.411-.7171.6742-1.2705.7655-.1993.033-.6646.0428-.8676.0184l-.1174-.014v1.052c0 .9313-.003 1.0554-.0295 1.0815-.0252.0252-.0967.0295-.4938.0295-.3361 0-.4706-.006-.4869-.0225zm1.845-2.9355c.354-.0922.5795-.3501.6897-.7888.037-.1478.0423-.2162.0424-.5626.0001-.4379-.0214-.5815-.1179-.7877-.117-.2503-.2657-.3504-.5383-.3629-.2418-.011-.3501.0322-.5263.21-.1918.1935-.2971.4168-.356.755-.0379.2167-.042 1.5087-.005 1.5106.0128.0007.0741.0126.136.0266.1586.0357.5377.0356.6753-.0002zm.2543 2.1772v-.7807l.3333.006c.315.006.3378.009.416.0532.1026.058.152.123.1705.2239.0306.1671-.0604.347-.2091.4137l-.0712.0319.1033.0428c.0655.0272.122.0673.1544.1097.046.0603.051.0822.051.2217 0 .142-.005.1614-.0569.2357-.0715.1017-.195.179-.3259.2036-.0556.0105-.2056.0191-.3333.0191h-.2321zm.627.5874c.0948-.0531.143-.1193.1558-.2144.0149-.1114-.023-.2055-.104-.2586-.0786-.0516-.2704-.0898-.407-.0812l-.0935.006-.005.2946-.005.2945.071.008c.1347.016.3112-.006.388-.0493zm-.0454-.7314c.0455-.0232.0986-.064.118-.0908.0499-.0684.0613-.1825.0267-.2653-.0435-.1042-.1169-.1336-.3555-.1427l-.2019-.008v.5487h.165c.1341 0 .1805-.008.2477-.0423zm.6013.3532v-.5738h.1696l-.005.568-.005.568-.0798.006-.0798.006zm.4632.5591c-.007-.007-.0125-.3871-.0125-.845v-.8324h.169v1.69h-.072c-.0396 0-.0776-.006-.0845-.0126m2.804-.5602v-.5727h.1676l-.0102.1267-.01.1268.0438-.0743c.0241-.0409.0803-.0999.1248-.1311.0684-.0481.102-.058.2182-.0638.1671-.008.2532.0259.3153.1256.0409.0657.0428.0874.0484.552l.006.4835h-.1713v-.423c0-.3195-.006-.4386-.0262-.4859-.0811-.194-.3487-.156-.4724.0672-.0553.1-.0554.1004-.0615.4709l-.006.3708h-.1662zm3.211-.2723v-.845h.1495l.005.5298.005.5298.214-.2575.214-.2575h.205l-.0536.0614c-.3041.3482-.3857.4444-.3858.455 0 .007.1064.1468.2365.3112s.2365.3032.2365.3084c0 .005-.046.009-.1023.009h-.1023l-.231-.3039-.231-.3038-.005.3038-.005.3039h-.1493zm1.9903.2734v-.5738h.172l-.012.1267-.0122.1268.0436-.0743c.024-.0409.08-.0999.1245-.1311.0684-.0481.102-.058.2182-.0638.1672-.008.2532.0259.3153.1256.0409.0658.0428.0874.0484.5531l.006.4847-.081-.006-.081-.006-.009-.457-.009-.4569-.0613-.0548c-.126-.1125-.3252-.049-.4278.1363-.0548.099-.0555.1038-.0648.4662l-.009.3661-.0798.006-.0798.006zm2.272-.2734v-.845h.1502v1.69h-.1501zm-10.747-.56c-.0418-.0463-.0392-.1078.006-.1535.0466-.0466.096-.0478.1505-.004.0465.0377.0557.1183.0186.1631-.0326.0393-.1377.0356-.1755-.006zm6.3157-.6699c-.3983-.0803-.7145-.2977-.8622-.5928-.1127-.2251-.14-.3789-.1276-.7194.014-.3886.0917-.6849.3023-1.154.2023-.4507.4341-.7847.7905-1.139.4758-.473.9031-.6915 1.3522-.6916.2258 0 .3756.0351.582.1366.4478.22.7865.6801 1.407 1.9111.2348.4658.4763.8706.5893.988.1045.1084.2064.1609.3398.1748.203.0212.198.009.2042.4979.007.5438.0216.5136-.2502.5123-.1613-.0008-.2342-.0103-.3372-.0438-.4311-.1405-.799-.482-1.165-1.0816-.1147-.1879-.2446-.4246-.5721-1.0423-.3205-.6046-.5255-.8908-.6917-.9658-.097-.0437-.2089-.0287-.3536.0475-.3327.175-.6805.591-.9644 1.153-.2704.5355-.3038.8413-.1047.959.077.0455.2682.0453.4059-.0004.2851-.0946.482-.2288.8193-.5584.2404-.2348.2718-.2593.3322-.2593.0762 0 .0865.0108.4054.4225.2295.2962.2345.3191.1002.4639-.1353.1458-.4818.4369-.6705.5631-.5367.3591-1.0844.509-1.5311.4188zm-17.0041-.0305c-.279-.0402-.573-.183-.7533-.3659-.2073-.2104-.3063-.4905-.3063-.8668 0-.268.041-.5032.14-.8023.2162-.6534.5002-1.121.9578-1.5773.704-.702 1.3882-.8792 2.0087-.5203.1576.0912.445.3868.6007.6182.071.1054.1352.188.1426.1834.007-.005.1447-.1795.3053-.3889.1605-.2093.3143-.4017.3419-.4276l.05-.0469.5209-.006c.3222-.003.54.002.5712.0136.041.0156.0503.031.0503.084 0 .0915-.0732.1937-.7208 1.0065-.3086.3872-.5692.7143-.579.7268-.0194.0244.0797.2204.3016.597.3288.5579.4547.6836.714.7134.195.0224.1903.009.1903.5165 0 .5393.0116.5172-.2625.502-.4578-.0251-.863-.2819-1.2477-.7903-.1294-.171-.377-.5548-.4126-.6399-.005-.011-.095.0728-.2007.1865-.5428.5831-.8783.8548-1.3221 1.0707-.3951.1923-.7518.262-1.0904.2132zm.5041-1.0694c.3-.1.5962-.3046.9502-.6564.2254-.224.6203-.6665.6375-.7143.0102-.0284-.2193-.3997-.3463-.5603-.1542-.195-.252-.2548-.393-.2403-.3209.0331-.7547.4592-1.0937 1.0742-.327.5933-.3915.9741-.1862 1.0993.0827.0505.2767.0495.4315-.002zm4.8688 1.0047c-.0266-.0266-.0295-.3317-.0295-3.0772 0-2.5614.004-3.051.0258-3.069.0182-.0152.1665-.02.5023-.0165l.4765.005.005 3.0681c.003 2.252-.0009 3.0749-.0164 3.0936-.0167.0202-.1163.0255-.4775.0255-.39 0-.4607-.004-.486-.0295zm6.5003.009c-.0311-.0181-.033-.1845-.033-3.0752 0-2.3518.005-3.0612.0226-3.0785.0357-.0357.9417-.0317.9715.004.0358.043.0162 2.4933-.0213 2.663-.0344.1556-.0104.166.0694.03.1267-.2158.404-.443.6682-.5478.3232-.128.8013-.1396 1.1063-.0266.3925.1454.6144.4644.6755.971.0115.0953.0192.728.0192 1.5778 0 1.2537-.003 1.4236-.0292 1.4605-.0288.0412-.0352.0417-.4871.0417-.452 0-.4583-.0006-.4871-.0417-.0258-.0368-.0292-.2015-.0292-1.4044 0-1.4888-.001-1.5058-.1085-1.6599-.0626-.0899-.1573-.141-.2957-.1598-.2452-.0333-.4557.047-.6569.2504-.222.2246-.3504.531-.3846.918-.0102.1157-.0187.6247-.0188 1.1313-.0001.6911-.006.9267-.0227.9436-.029.0289-.9093.031-.9586.002zm9.3745-3.9506c-.5257-.1165-.9362-.5127-1.0818-1.0438-.0446-.1629-.0455-.5077-.002-.6749.1028-.3922.3827-.742.7361-.9201.2344-.1181.4207-.157.6942-.145.2486.011.3612.0388.5645.1391.2756.136.4982.3635.64.6538.3775.7728-.0317 1.7-.866 1.9622-.1704.0536-.509.0677-.6853.0287zm.6572-.2163c.4868-.1615.817-.594.8408-1.1012.0265-.5634-.2884-1.0302-.8251-1.2232-.1218-.0438-.166-.0496-.3818-.05-.2186-.0004-.2594.005-.3902.0509-.3864.1359-.6909.4577-.7946.8399-.0214.079-.0334.1917-.0339.3192-.001.346.1123.6162.3641.866.1634.1622.3724.2794.5823.3266.171.0385.4783.0249.6384-.0282m-.751-.7873c0-.3071-.007-.5273-.0173-.5273-.009 0-.1115.0338-.2269.0751s-.2132.0751-.2175.0751c-.004 0-.008-.0739-.008-.1643l.0003-.1643.6804-.2428c.3743-.1335.691-.2464.704-.2508.0184-.006.0233.1405.0232.6934l-.0001.7015-.452.1596c-.2487.0878-.4598.1624-.4693.1659-.0102.004-.0172-.2085-.0172-.521z"/></svg>