<svg xmlns="http://www.w3.org/2000/svg" viewBox="0 0 24 24"><path fill="#44739e" d="M12 5.462a4.107 4.107 0 1 0 4.107 4.107A4.107 4.107 0 0 0 12 5.462m0 6.845a2.739 2.739 0 1 1 2.738-2.738A2.738 2.738 0 0 1 12 12.307M12 1a7.7 7.7 0 0 0-7.7 7.7v6.6a7.7 7.7 0 0 0 15.4 0V8.7A7.7 7.7 0 0 0 12 1M9.091 2.277h5.817a.407.407 0 1 1 0 .814H9.091a.407.407 0 1 1 0-.814m5.817 18.648H9.091a.408.408 0 0 1 0-.815h5.817a.408.408 0 1 1 0 .815M12 14.439a4.871 4.871 0 1 1 4.871-4.87A4.871 4.871 0 0 1 12 14.439"/></svg>