<svg xmlns="http://www.w3.org/2000/svg" viewBox="0 0 24 24"><path fill="#44739e" d="M10.288 12.861a2.42 2.42 0 1 0-.708-1.712 2.42 2.42 0 0 0 .708 1.712m.55-2.889a1.65 1.65 0 1 1 0 2.334 1.658 1.658 0 0 1 .003-2.334Zm-2.345.353v3.349a3.507 3.507 0 1 0 7.014 0v-3.349a3.507 3.507 0 0 0-7.014 0m6.367.816h.006a2.86 2.86 0 0 1-2.86 2.86H12a2.86 2.86 0 1 1 2.86-2.86m3.63-6.039H5.51A4.51 4.51 0 0 0 1 9.609v4.779a4.51 4.51 0 0 0 4.51 4.51h12.98a4.51 4.51 0 0 0 4.51-4.51V9.609a4.51 4.51 0 0 0-4.51-4.507m-7.294.825h1.608a.11.11 0 0 1 0 .22h-1.608a.11.11 0 0 1 0-.22m4.634 4.4v3.351a3.83 3.83 0 1 1-7.66 0v-3.353a3.83 3.83 0 1 1 7.66 0ZM5.51 18.249a3.868 3.868 0 0 1-3.863-3.861V9.609A3.863 3.863 0 0 1 5.51 5.75h5.571a4.532 4.532 0 0 0-3.606 4.434v3.882a4.532 4.532 0 0 0 2.785 4.18Zm7.407-.198a.11.11 0 0 1-.11.11H11.19a.11.11 0 0 1-.11-.11.11.11 0 0 1 .11-.11h1.609a.11.11 0 0 1 .118.1Zm9.432-3.663a3.863 3.863 0 0 1-3.859 3.861h-4.745a4.53 4.53 0 0 0 2.785-4.18v-3.885a4.532 4.532 0 0 0-3.606-4.434h5.566a3.865 3.865 0 0 1 3.859 3.859Z"/></svg>