<svg xmlns="http://www.w3.org/2000/svg" viewBox="0 0 24 24"><path fill="#44739e" d="M17.312 11.741h-4.3v4.255h-1.748v-4.255H6.647a6.216 6.216 0 0 0-1.801 4.379v1.932h14.308v-1.855a6.29 6.29 0 0 0-1.842-4.456M4.925 18.836a.077.077 0 0 0-.077.077A4.087 4.087 0 0 0 8.935 23h6.133a4.087 4.087 0 0 0 4.086-4.087.076.076 0 0 0-.075-.077Zm9.097-11.953a2.021 2.021 0 0 1-2.021 2.021A2.021 2.021 0 0 1 9.98 6.883a2.021 2.021 0 0 1 2.021-2.02 2.021 2.021 0 0 1 2.021 2.02m2.328 4.18a5.84 5.84 0 0 0 1.713-4.116 6.063 6.063 0 0 0-12.123 0 5.84 5.84 0 0 0 1.713 4.121ZM12.001 3.6a3.283 3.283 0 1 1-3.283 3.283A3.283 3.283 0 0 1 12.001 3.6"/></svg>