<svg xmlns="http://www.w3.org/2000/svg" viewBox="0 0 24 24"><path fill="#44739e" d="M12 6.225a4.107 4.107 0 1 0 4.107 4.107A4.107 4.107 0 0 0 12 6.225m2.738 4.107A2.739 2.739 0 1 1 12 7.592a2.738 2.738 0 0 1 2.74 2.74ZM12 1a7.7 7.7 0 0 0-7.7 7.7v6.6a7.7 7.7 0 0 0 15.4 0V8.7A7.7 7.7 0 0 0 12 1m-1.368.461h2.734a.191.191 0 0 1 0 .383h-2.734a.191.191 0 1 1 0-.383m2.744 20.798h-2.75a.193.193 0 0 1 0-.384h2.735a.193.193 0 0 1 .02.384Zm5.134-7.627a6.511 6.511 0 0 1-13.022 0V8.935a6.511 6.511 0 1 1 13.022 0ZM12 2.98a5.968 5.968 0 0 0-5.962 5.955v5.697a5.961 5.961 0 0 0 11.922 0V8.935A5.968 5.968 0 0 0 12 2.98m4.872 7.359A4.871 4.871 0 1 1 12 5.462a4.871 4.871 0 0 1 4.871 4.871Z"/></svg>