<svg xmlns="http://www.w3.org/2000/svg" viewBox="0 0 24 24"><path fill="#44739e" d="M14.2587 14.9081c-.442-.0435-.6708-.1486-.8547-.3926-.1109-.1472-.1449-.2405-.167-.4576-.0197-.1941-.055-1.5262-.0559-2.116l-.0005-.2953h-.9563v-1.5188h.9563v-1.05h2.4189v1.05h1.3875v1.5188h-1.3875V14.87l-.061.0103c-.2334.0396-.9924.056-1.2797.0277zM.3695 14.8519c-.2933-.1548-.443-.6289-.3337-1.0563.0602-.2353.1525-.391.3462-.5833.1398-.1388.2032-.1859.3575-.2653.41-.211.7671-.299 1.8188-.448.5687-.0805 1.1893-.2027 1.3006-.256.099-.0476.1517-.147.1518-.287.0003-.2618-.2616-.4224-.6873-.4216-.2864.0006-.5295.0755-.6468.1995-.0707.0747-.1268.2077-.1273.3018l-.0004.0797h-.2953c-.1625 0-.6826.006-1.156.0125l-.8606.0125.0131-.1156c.048-.4233.2714-.8779.5897-1.1991.4086-.4126 1.0092-.6563 1.906-.7735.392-.0512.956-.0678 1.2844-.0378 1.3052.1194 2.1816.6292 2.344 1.3635.0347.1574.0366.249.037 1.8392l.0003 1.6735H4.0302v-.6657c0-.366-.005-.6656-.0108-.6656-.0308 0-.563.1613-.7363.2232-.2451.0875-.3536.1417-.5018.2509-.1283.0945-.2136.2343-.2136.3499 0 .098.0977.2876.2084.4047l.097.1026-1.2168-.0009C.4827 14.889.437 14.8877.3695 14.852zm7.2233-2.3334v-2.372H9.843l.0006.2673.0006.2672.0411-.0563c.2856-.3911.7075-.5946 1.2328-.5946.1703 0 .2523.01.39.0465.0958.0256.1771.0497.1807.0535.004.004.0126.3456.02.7594l.0138.7523-.457.01c-.3267.007-.4904.0184-.5744.0397-.309.0782-.5303.2806-.617.5644-.032.105-.034.1964-.0293 1.3735l.005 1.261h-2.457zm10.3668 2.3026c-.1321-.1384-.3755-.5956-.4746-.8915-.108-.3225-.1307-.4936-.1313-.9892-.0005-.4397.002-.469.0524-.683.1335-.5634.3336-.948.6782-1.3031.3765-.388.8361-.6375 1.4652-.7954.3991-.1002.6793-.132 1.1688-.1328.4756-.0008.685.0239 1.0974.1296.644.165 1.1257.4413 1.4844.8513.3753.4288.5819.8993.6721 1.5303.0274.1915.0381.9455.0155 1.0828l-.0116.0703h-4.1765v1.1813l-.8485.0003c-.4666.0001-.8653.005-.886.0103-.0266.007-.057-.0104-.1054-.0612zm3.6776-2.4358c0-.0742-.0542-.2677-.1052-.3756-.1406-.2975-.3877-.4489-.7669-.47-.242-.0135-.4251.0174-.5893.0995-.2572.1287-.4007.3553-.4409.6965l-.0116.0984h1.9139z"/></svg>