<svg xmlns="http://www.w3.org/2000/svg" viewBox="0 0 24 24"><path fill="#44739e" d="M14.07 14.666c-.405-.04-.614-.136-.783-.36-.102-.135-.133-.221-.153-.42-.018-.178-.05-1.399-.051-1.939l-.001-.271h-.876v-1.392h.876v-.963H15.3v.963h1.271v1.392H15.3v2.955l-.056.009c-.214.037-.91.052-1.173.026Zm-12.731-.052c-.269-.142-.406-.576-.306-.968.055-.216.14-.358.317-.535.128-.127.186-.17.328-.243.376-.193.703-.274 1.667-.411.521-.073 1.09-.185 1.192-.234.091-.044.139-.135.139-.263.001-.24-.239-.388-.63-.387-.262.001-.485.069-.592.183-.065.069-.117.19-.117.277l-.001.073h-.27c-.149 0-.626.005-1.06.011l-.789.012.012-.106c.044-.388.249-.805.541-1.099.374-.379.925-.602 1.747-.709.359-.047.876-.063 1.177-.035 1.197.109 2 .577 2.149 1.25.032.144.034.228.034 1.686v1.534H4.694v-.611c0-.335-.004-.61-.01-.61-.028 0-.516.148-.675.205-.224.08-.324.13-.46.23-.117.087-.195.215-.195.321 0 .09.089.263.191.371l.089.094-1.116-.001c-1.076-.001-1.117-.002-1.179-.035m6.621-2.139v-2.174h2.063v.245l.001.245.038-.052c.261-.358.648-.545 1.13-.545.156 0 .231.009.357.043.088.023.162.045.166.049.003.004.011.317.018.696l.013.69-.419.009c-.3.006-.45.017-.527.036-.283.072-.486.257-.565.518-.03.096-.031.18-.027 1.259l.004 1.156H7.96Zm9.503 2.111c-.121-.127-.344-.546-.435-.817-.099-.296-.12-.453-.12-.907-.001-.403.001-.43.048-.626.122-.517.305-.869.621-1.195.345-.355.767-.584 1.343-.729.366-.092.623-.121 1.072-.121.436-.001.628.021 1.006.118.59.152 1.032.405 1.36.781.344.393.534.824.617 1.403.025.175.034.866.014.992l-.011.065H19.15v1.082l-.778.001c-.428 0-.793.004-.812.009-.025.007-.053-.009-.097-.056m3.371-2.233c0-.068-.05-.245-.096-.344-.129-.273-.356-.412-.703-.431-.222-.012-.39.016-.54.091-.236.118-.368.326-.405.639l-.01.09h1.754Z"/></svg>