<svg xmlns="http://www.w3.org/2000/svg" viewBox="0 0 24 24"><path fill="#44739e" d="m14.754 14.783-.746 1.672a.7.7 0 0 1 .083-.007c.029 0 .055 0 .088.007.067-.22.154-.44.238-.645h.608c.096.22.182.446.252.645.04 0 .08-.007.125-.007s.08 0 .126.007l-.719-1.672Zm-.292.926.261-.612.266.612Zm3.939-.889v1.635c.034 0 .069-.007.11-.007s.067 0 .11.007V14.82c-.039 0-.073.006-.11.006s-.076-.005-.11-.006m-4.698 0h-.051c-.241.428-.461.843-.689 1.253-.256-.424-.486-.873-.678-1.253h-.062c-.024.251-.168 1.25-.23 1.635a.8.8 0 0 1 .086-.007.8.8 0 0 1 .084.007c0-.294.065-.77.118-1.234.162.312.33.622.484.937l.13.271h.024c.144-.33.349-.713.628-1.21.033.237.081.752.122 1.234.036 0 .073-.007.11-.007s.069 0 .11.007c-.065-.456-.132-1.046-.195-1.635Zm3.195 0c0 .025.007.047.007.071s0 .048-.007.072a4.5 4.5 0 0 1 .525-.029v1.526c.033 0 .069-.008.105-.008s.068 0 .11.008v-1.526a4 4 0 0 1 .499.029c0-.024-.007-.049-.007-.072s0-.046.007-.071Zm-6.028 0v1.231h-.024L9.709 14.82h-.09v1.635a.44.44 0 0 1 .067-.007.6.6 0 0 1 .067.007v-1.29h.024l1.034 1.144c.044.047.085.096.124.146h.073V14.82c-.024 0-.046.006-.067.006s-.049-.005-.071-.006m5.866 1.441-.494-.624c.242-.043.491-.177.491-.454 0-.242-.162-.363-.532-.363h-.507v1.635a1.1 1.1 0 0 1 .11-.007c.033 0 .067 0 .11.007l.004-.721.081-.077.191.22.283.365c.051.069.101.139.15.209.044 0 .092-.008.137-.008s.089 0 .139.008l-.045-.06Zm-.826-.618-.005-.737q.1755-.015.351 0a.281.281 0 0 1 .264.301.349.349 0 0 1-.307.342c-.101.018-.2.1-.303.094m-11.509-.86-.748 1.672a.7.7 0 0 1 .084-.007.9.9 0 0 1 .089.007c.067-.22.153-.44.238-.645h.605c.096.22.182.446.251.645.041 0 .082-.007.127-.007s.08 0 .125.007l-.718-1.672Zm-.292.926.26-.612.267.612Zm1.391-.544a.283.283 0 0 1 .302-.279.307.307 0 0 1 .297.208h.024a1.3 1.3 0 0 1 .064-.196.54.54 0 0 0-.343-.11.469.469 0 0 0-.531.459c0 .541.749.344.749.789a.337.337 0 0 1-.33.349.429.429 0 0 1-.388-.249h-.026a1.05 1.05 0 0 1-.046.214.62.62 0 0 0 .391.138.55.55 0 0 0 .592-.55c0-.509-.755-.332-.755-.773m2.956-.382c-.489-.03-.898.365-.886.854-.021.49.392.887.88.847.505.035.929-.374.912-.88.004-.489-.419-.873-.906-.821m0 1.622a.66.66 0 0 1-.654-.739c0-.485.255-.803.676-.803a.638.638 0 0 1 .498.231.795.795 0 0 1 .151.527.727.727 0 0 1-.669.784Zm11.817-1.579c-.024 0-.046-.005-.067-.006v1.231h-.027l-1.138-1.231h-.093v1.635a.44.44 0 0 1 .067-.007.6.6 0 0 1 .067.007v-1.29h.023l1.035 1.144c.043.047.085.096.124.146h.073V14.82c-.021.001-.043.006-.064.006m-12.675.139c0-.024-.008-.048-.008-.072s0-.046.008-.071H6.363c0 .025.006.047.006.071s0 .048-.006.072a4.5 4.5 0 0 1 .524-.029v1.526c.033 0 .068-.008.105-.008s.067 0 .11.008v-1.528q.249 0 .496.031m7.249-5.72v-.77a1.9 1.9 0 0 1 .243.014h.009v-.088h-.64v.088h.007a2.2 2.2 0 0 1 .257-.014v.77ZM10.782 8.4v.837h.083v-.652l.518.573.064.075h.048v-.837h-.082v.629l-.573-.619Zm3.612.19c0-.127-.091-.19-.275-.19h-.263v.837h.121v-.401h.035l.093.11.142.183.078.11h.159l-.33-.413c.149-.033.24-.119.24-.236m-.271.179a.58.58 0 0 1-.146.006v-.316a1.1 1.1 0 0 1 .168 0 .133.133 0 0 1 .127.145.165.165 0 0 1-.143.165Zm-1.021.464a3.1 3.1 0 0 1 .11-.303l.007-.017h.296c.046.104.087.211.124.32h.143l-.367-.855h-.039l-.382.855h.104Zm.266-.668.123.283h-.242c.007-.02.11-.254.119-.283m-3.181-.183a.427.427 0 0 0-.454.44.419.419 0 0 0 .451.433.44.44 0 0 0 .466-.451.42.42 0 0 0-.463-.422m.33.446a.43.43 0 0 1-.11.275.297.297 0 0 1-.22.095.323.323 0 0 1-.321-.365c0-.245.128-.397.33-.397a.317.317 0 0 1 .245.11.39.39 0 0 1 .074.261Zm1.558.403a4.8 4.8 0 0 1 .043-.481l.013-.116c.014.028.172.33.232.45l.068.14h.023c.07-.161.169-.344.304-.586.02.144.045.432.059.597v.007h.129v-.008c-.029-.204-.06-.473-.098-.823v-.007h-.039l-.203.368-.14.255c-.125-.209-.238-.429-.33-.619h-.041v.006c-.012.124-.084.628-.116.823v.008h.101Zm-3.268-.046a.205.205 0 0 1-.188-.122h-.026l-.025.117a.317.317 0 0 0 .202.071.281.281 0 0 0 .305-.281c0-.138-.104-.178-.204-.22s-.175-.068-.175-.171a.134.134 0 0 1 .144-.133.146.146 0 0 1 .143.1h.023l.035-.11a.277.277 0 0 0-.177-.059c-.167 0-.275.092-.275.238s.11.19.207.228.169.067.169.169a.162.162 0 0 1-.158.173m6.391-.785h.114v.837h-.114Zm-6.073 0v.088h.007a2.2 2.2 0 0 1 .257-.014v.771h.12v-.77q.121-.001.243.014h.007v-.088h-.634Zm6.449.185.518.573.064.075h.047v-.837h-.082v.629l-.572-.619h-.059v.837h.083v-.658Zm-7.62.347.008-.019h.296c.046.104.087.211.125.32h.143l-.368-.855h-.037l-.381.855h.103c.033-.105.073-.208.111-.301m.158-.367c.012.029.11.263.122.283h-.242c.007-.02.107-.254.12-.283m8.273 2.775a.66.66 0 0 1-.142-.082l-.978-.699a6.2 6.2 0 0 1-.572.297l.542.565c.048.051.2.173.323.144l.148-.04Zm.595-2.231 2.75.565c.18.041.366.05.55.027l.895-.263-4.022-.54c-.056.069-.113.139-.173.211m2.87.717c-.081-.011-.139-.023-.146-.024l-2.822-.581a7 7 0 0 1-.261.277l1.843.569a.93.93 0 0 0 .448.033Zm-1.333.391a.9.9 0 0 1-.091-.025l-1.909-.591a6.8 6.8 0 0 1-.426.38l.999.468a.67.67 0 0 0 .387.072Zm-1.027-1.78 4.18.278c.117.016.235.016.352 0a.282.282 0 0 0 .174-.153l.171-.301a.6.6 0 0 1 .037-.053h-4.763c-.046.073-.097.149-.151.229m5.497-.864a.158.158 0 0 0-.141-.062h-4.501a.623.623 0 0 0-.484.312 4.7 4.7 0 0 1-.142.251h4.914c.124-.009.143-.031.172-.08l.162-.263a.22.22 0 0 0 .033-.11.085.085 0 0 0-.013-.048m-6.311 3.678c.392-.148.45-.295.506-.44a.48.48 0 0 1 .097-.161 1.07 1.07 0 0 1-.246-.082l-1.056-.494a6.3 6.3 0 0 1-.59.41l.934.669a.477.477 0 0 0 .355.098m.725-2.684c-.049.069-.101.14-.156.212l4.004.537c.153.021.2-.031.209-.042l.198-.351a.44.44 0 0 1 .048-.069h-.05Zm-3.483 1.034h-.434l1.113 1.159a6 6 0 0 0 .55-.278Zm-1.447 0 .452 1.63c.249-.033.495-.082.738-.145l-.88-1.485h-.311Zm1.997 1.21-1.164-1.21h-.37l.857 1.451a6.4 6.4 0 0 0 .677-.241m1.375-.799-.892-.417h-.808l1.128.809a6.4 6.4 0 0 0 .572-.392M13.1 12.161a.594.594 0 0 1-.12-.237l-.154-.55c-.192.022-.389.036-.588.044l.56.533c.15.142.185.18.302.21m.155-.038a.227.227 0 0 0 .178.021l.778-.211a.76.76 0 0 1-.169-.207l-.313-.528a6.6 6.6 0 0 1-.77.155l.151.542a.393.393 0 0 0 .145.228m1.157-.245.888-.243a.77.77 0 0 1-.162-.124l-.575-.6a5.8 5.8 0 0 1-.705.251l.295.499c.037.064.157.233.259.217m1.548-1.956c.009-.007.267-.22.377-.33H15.26Zm-3.895-.321v1.69a6.8 6.8 0 0 0 .727-.044l-.456-1.65Zm-4.67-.57v-.207l-.397.054c.055.068.11.134.169.2Zm0 .13-.128.026c.042.046.084.092.128.138Zm0-.954h-.88c.048.074.096.147.147.22l.733-.048Zm0 .486v-.179l-.642.043c.05.068.1.135.152.202Zm-1.256-.868a.634.634 0 0 0-.484-.312H1.154c-.11 0-.151.049-.154.11a.22.22 0 0 0 .032.11l.162.268c.036.06.06.073.176.082h4.91q-.073-.132-.141-.258m.461.742-4.304.287a.3.3 0 0 1 .046.068l.198.349c.009.012.057.062.209.041l4.004-.536a9 9 0 0 1-.153-.209m-.09-.13a10 10 0 0 1-.15-.23H1.596c.046.056.139.234.208.354a.286.286 0 0 0 .175.153c.117.017.235.017.352 0Zm10.976-.23h-.88v.172l.735.048c.049-.073.096-.146.145-.22m.26-.444a.84.84 0 0 1 .22-.251h-4.145a.68.68 0 0 0-.498.181.7.7 0 0 0-.178.342.18.18 0 0 1-.014.041h4.435c.063-.102.123-.207.18-.313m-.744 1.115-.398-.054v.207l.229.047c.059-.067.117-.137.169-.2m-12.734.796 2.75-.566a7 7 0 0 1-.173-.21l-4.021.54.895.263a1.6 1.6 0 0 0 .549-.027m1.986-1.911s.11.202.18.313h4.435a.3.3 0 0 1-.014-.041.693.693 0 0 0-.179-.342.674.674 0 0 0-.496-.181H6.031a.84.84 0 0 1 .223.251m10.993.794-.643-.043v.179l.491.066a6 6 0 0 0 .152-.202m-.517.634-.13-.026v.165c.048-.045.09-.091.13-.139m-8.573.821c.183.141.374.272.572.391l1.128-.808h-.808Zm-.117-.09.699-.33H7.664c.109.105.367.322.376.33m-.717 1.329a.473.473 0 0 0 .357-.096l.932-.674a6.4 6.4 0 0 1-.588-.411l-1.054.493a1.06 1.06 0 0 1-.249.084.53.53 0 0 1 .097.16c.056.148.114.294.505.444m1.441.17.543-.565a6.3 6.3 0 0 1-.573-.297l-.976.699a.8.8 0 0 1-.144.082l.826.225c.125.029.275-.094.324-.144M4.149 9.826l.936.275a.91.91 0 0 0 .449-.034l1.846-.569c-.088-.09-.175-.182-.26-.277l-2.82.581c-.053.01-.101.019-.151.024m6.87 2.098a.59.59 0 0 1-.121.237.426.426 0 0 0 .19-.11l.673-.641a7 7 0 0 1-.588-.044Zm-.749-.725c-.18.302-.312.526-.31.526a.79.79 0 0 1-.171.208l.778.211a.227.227 0 0 0 .178-.021.394.394 0 0 0 .146-.229l.151-.541a6.6 6.6 0 0 1-.772-.154m-.424.461.294-.497a5.9 5.9 0 0 1-.706-.252l-.576.6a.75.75 0 0 1-.158.124l.889.243c.101.016.221-.153.257-.218m-2.933-1.21.996-.467a7.3 7.3 0 0 1-.426-.38l-1.908.588a.66.66 0 0 1-.094.026l1.042.307a.67.67 0 0 0 .39-.074m4.616-.849h-.312l-.88 1.486q.3645.0945.738.144Zm-.464 0h-.368l-1.165 1.21a5.8 5.8 0 0 0 .676.236Zm-2.213.88q.268.153.55.278l1.114-1.158h-.434Zm2.356.761q.362.041.727.044V9.601h-.265Zm4.683 4.322c.012-.156.074-.361-.083-.369-.116-.01.134.085.018.095l.045.383c.103.008.202-.073.304-.089.175-.022-.284-.02-.284-.02"/></svg>