<svg xmlns="http://www.w3.org/2000/svg" viewBox="0 0 24 24"><path fill="#44739e" d="M11.628 3.551c-.053.035-.044.044.045.045a1.1 1.1 0 0 1 .22.03c.1.027.11.022.051-.045a.253.253 0 0 0-.32-.03m1.014 0c.084 0 .067-.137-.026-.212s-.136-.072-.136-.01c0 .092.099.22.162.22m-3.166.212a4.95 4.95 0 0 0-.798-.169L6.247 3.2c-1.691-.276-1.741-.283-1.828-.248s-.029 17.21.043 17.298c.027.034 0 .11.15.183a.97.97 0 0 0 .427.095s1.546.49 1.894.598.945.291 1.328.408l.826.249c.263.086.376.055.5-.131l.11-.172-.048-5.94C9.59 7.541 9.533 3.824 9.472 3.761M4.586 20.409l.014.013Zm1.696-.489c-.17-.059-.343-.11-.517-.161-.348-.084-.417-.129-.44-.28a.32.32 0 0 1 .023-.199c.033-.04.027-.056-.023-.056s-.125.096-.195.213c-.153.257-.205.16-.063-.12.11-.213.192-.22.588-.11.303.089.356.132.358.282 0 .185.048.22.446.366s.448.11.126-.054c-.23-.119-.151-.164.09-.05.11.053.171.11.171.171 0 .131-.176.131-.565 0Zm.604-.143a.387.387 0 0 0-.212-.125c-.076-.016-.15-.033-.22-.053-.042-.011-.078 0-.074.014.016.097-.011.15-.074.15-.045 0-.057-.021-.036-.054a.385.385 0 0 0 .023-.18.9.9 0 0 0 .011-.125s.134.041.288.09c.267.092.378.182.378.309 0 .051-.02.043-.069-.026Zm2.44-15.542c-.011.056-.02.022-.02-.077s.008-.147.019-.103a.47.47 0 0 1 .011.18Zm.137 7.341c-.01 1.679-.01 1.679-.033.55a19.7 19.7 0 0 1 .025-2.249c.009 0 .014.763.008 1.691Zm3.446-8.122c-.015.022-.011.045.008.045.084 0-.197.126-.291.13-.065 0-.093.019-.073.05.042.067.414.023.496-.06a.147.147 0 0 0 .036-.14.098.098 0 0 0-.178-.03ZM5.661 19.328c-.231-.081-.22-.08-.252-.023-.054.087.028.22.167.264.22.079.297.053.123-.04a.9.9 0 0 1-.22-.156c-.044-.051-.007-.046.162.028a.91.91 0 0 1 .251.145c.044.067.044-.024 0-.095a.6.6 0 0 0-.227-.123M16.066 3.413a.85.85 0 0 0-.172.041c-.062.022-.77.212-1.566.429l-1.456.391-1.411-.226c-.783-.126-1.442-.22-1.454-.22s-.034 4.091-.034 9.091v9.121c.068.034 1.149.365 1.445.456 0 0-.06.013.078.11A2.86 2.86 0 0 0 12.63 23c.202-.01 1.119-.345 1.138-.537a6.5 6.5 0 0 1 .806-.415c.396-.185.88-.419 1.078-.517l.359-.179.028-4.895c.016-2.692.043-6.728.06-8.968a34.3 34.3 0 0 0-.034-4.08Zm-5.626 8.086a3.85 3.85 0 0 1 .021.756c-.021.604-.027.642-.09.539a3.33 3.33 0 0 1-.076-1.094c-.008-.952 0-.981.079-.959s.099.016.057-.143c-.027-.103-.029-.11-.078-.013s-.061-.391-.036-1.328c.01-.32.063-.422.122-.233a4.7 4.7 0 0 1 .025.686c0 .324 0 .819.022 1.1.022.395.011.519-.034.55s-.053.065-.022.138Zm-.015-2.689c-.134-.139-.143-.166-.143-.482s.014-.369.12-.301a.91.91 0 0 1 .069.391 1.98 1.98 0 0 0 .057.448c.025.055-.012.036-.103-.056m-.01-.887c-.087-.092-.11-.164-.11-.38a.69.69 0 0 0-.058-.323c-.11-.11-.044-.122.103-.011.13.099.151.139.128.236a.59.59 0 0 0 .019.447c.089.151.047.165-.08.031m.039-.739a.447.447 0 0 1-.161-.22c-.008-.056 0-.411.013-.783.023-.559.039-.677.09-.66a.23.23 0 0 1 .091.138.55.55 0 0 1-.026.263.3.3 0 0 0-.012.229 2.22 2.22 0 0 1 .05.526 2.2 2.2 0 0 0 .056.536c.045.07.027.067-.101-.028m2.349 11.951c-.01-3.78.041-13.692.069-13.692.011 0 .013 3.562 0 7.913s-.025 8.207-.038 8.565-.023-.899-.031-2.79Zm.77 3.3a2.13 2.13 0 0 1-.703.33 5.45 5.45 0 0 1 .718-.4c.007 0 0 .032-.014.061ZM6.374 2.921l1.954.314c.615.1 1.176.18 1.245.18.14 0 .483-.266 1.073-.831l.336-.325-1.007-.211c-.559-.11-1.172-.248-1.369-.296a1.086 1.086 0 0 0-.77-.016c-.201.053-2.97.686-3.334.76a.374.374 0 0 0-.165.062 2.5 2.5 0 0 0 .594.131Zm2.762-.261c.22 0 .287.012.22.037a.68.68 0 0 1-.448 0c-.062-.025.009-.037.22-.037m-.052.253c-.045-.011.088-.057.297-.102a1.093 1.093 0 0 0 .516-.21c.168-.153.309-.179.179-.034s-.51.397-.423.288c.061-.078.06-.082-.017-.052a1.58 1.58 0 0 1-.55.11m.21.167a.83.83 0 0 1 .266-.15c.011 0-.027.039-.085.089-.095.078-.181.11-.181.063Zm1.384-.671a7.56 7.56 0 0 1-1.155.872c-.087 0-.102.014.473-.43.755-.578.906-.677.682-.44Zm-5.453.067c.075-.02.51-.123.966-.22s1.063-.248 1.343-.317a1.92 1.92 0 0 1 1.045-.085c.093.027.536.127.985.22a6.3 6.3 0 0 1 .861.22c.03.031.028.045-.005.045-.074 0-1.657-.354-1.922-.43-.22-.062-.253-.059-1.008.11-1.454.336-2.171.493-2.287.488s-.1 0 .028-.038Zm4.143-.75c.843.17.974.205.804.213-.055 0-.038.018.05.044a.62.62 0 0 0 .246.02 1.07 1.07 0 0 1 .359.042l.247.065-.202-.018-.201-.019.228.06a11.9 11.9 0 0 0 1.592.08l1.362.022.672-.336.671-.335-.201-.04c-.11-.022-.325-.056-.472-.077-.944-.134-2.216-.33-2.56-.384a2.51 2.51 0 0 0-.835-.048c-.017.017-2.06.447-2.462.514-.121.021.016.057.702.197m.921.11a1.25 1.25 0 0 1-.248-.033c-.123-.033-.123-.033-.023-.033a1.24 1.24 0 0 1 .247.034c.12.025.123.028.023.028Zm3.778.206-.265.119h-1.265a10.5 10.5 0 0 1-1.261-.037c0-.022-.083-.063-.185-.094s-.175-.065-.163-.076a.246.246 0 0 1 .142.026c.162.061.22.058.174-.01s-.051-.258-.008-.258c.019 0 .045.037.058.082a.62.62 0 0 0 .119.18c.075.081.134.097.33.09l.243-.012-.11-.199c-.134-.24-.134-.24-.011-.181a.83.83 0 0 1 .22.22c.079.125.146.177.236.177h.11l-.082-.079a.33.33 0 0 1-.089-.127.62.62 0 0 0-.145-.18c-.101-.1-.11-.134-.056-.11a1.33 1.33 0 0 1 .291.246.8.8 0 0 1 .194.251 3.5 3.5 0 0 0 .66.027c.624 0 .697-.009.88-.11a.57.57 0 0 1 .212-.085.73.73 0 0 1-.244.142Zm-2.536-.295a.097.097 0 0 0 .08.056c.033 0 .091.049.132.11.072.11.072.11-.041.11a.151.151 0 0 1-.158-.11c-.045-.126-.058-.282-.013-.172Zm1.175.11c.044.04.095.059.11.041s.018 0 0 .045c-.04.102-.097.098-.154-.008-.064-.128-.051-.161.041-.078m1.76-.173a2.34 2.34 0 0 1-.358.202 1.126 1.126 0 0 1-.573.175h-.22l.18-.038a3.6 3.6 0 0 0 .542-.202c.354-.156.424-.179.424-.137m-3.77-.464a2.54 2.54 0 0 1 .783-.11c.05.008.448.067.88.128a12.1 12.1 0 0 1 2.015.325 17.9 17.9 0 0 1-1.924-.247 3.16 3.16 0 0 0-1.841-.011 7.4 7.4 0 0 1-1.334.245 10.34 10.34 0 0 1 1.43-.33Zm3.63 2.108a.21.21 0 0 1-.128-.071c-.068-.083-.08-.082-.248.011a2.4 2.4 0 0 1-.394.152c-.397.11-.197.166.24.062.542-.126.618-.147.54-.151m3.709-.454-1.465.403a.336.336 0 0 0-.195.125c-.052.132-.067 1.77-.085 9.901-.018 6.844-.012 7.846.046 7.867a3.74 3.74 0 0 0 .77-.311c.402-.189 1.178-.479 1.178-.479a1.246 1.246 0 0 0 .713-.324c.07-.06.012-.079.13-.139a1.56 1.56 0 0 0 .279-.175c.057-.056.07-.91.11-6.366.022-3.468.041-7.32.041-8.568V2.54l-.11-.009c-.067 0-.704.151-1.42.346Zm-1.572 6.636c-.015 3.133-.031 6.962-.036 8.518a15.95 15.95 0 0 1-.039 2.2c-.036-.739-.011-14.945.029-15.816a3.74 3.74 0 0 1 .051-.594c.016 0 .015 2.561 0 5.691Zm-.487-6.472q-.559-.161-1.111-.351a4.22 4.22 0 0 0-1.617-.354 8.53 8.53 0 0 0-2.029.022 11.04 11.04 0 0 0-1.248 1.108c0 .022.011.042.024.042s.646.101 1.404.22a10.8 10.8 0 0 0 1.558.2c.099-.014.502-.11.894-.22l1.306-.359c.318-.089.672-.172.77-.188.233-.032.248-.081.045-.12m-3.133-.639c.335 0 .47 0 .302.011a7 7 0 0 1-.606 0c-.167-.011-.028-.022.305-.022Zm.11.693c.089 0 .164.017.164.045s-.063.027-.147.011c-.201-.039-.209-.06-.016-.06Zm-.017-.129c.088 0 .123.013.08.024a.38.38 0 0 1-.158 0c-.04-.014-.006-.024.078-.024m.921.673a1.73 1.73 0 0 1-.358.071 1.88 1.88 0 0 1 .584-.157c.05 0-.051.036-.22.08Zm.845-.321c-.22.052-.496.124-.619.157s-.426.11-.671.179a3.25 3.25 0 0 0-.472.145c-.023.027.025.02.385-.05.11-.021.11-.017-.029.039a1.3 1.3 0 0 1-.393.068c-.191 0-1.902-.264-2.513-.391l-.148-.031.515-.425a3.38 3.38 0 0 0 .533-.501c.021-.078.129-.11.368-.123.129 0 .13 0 .028.041a4.95 4.95 0 0 0-.591.448 6.8 6.8 0 0 1-.602.465c-.11.059-.11.062.165.097.66.085 1.48.019 1.182-.097-.059-.022-.152-.006-.61.098-.068.016-.033-.018.09-.084a.77.77 0 0 1 .366-.104c.2.008.179-.041-.067-.157l-.186-.089.192.022c.238.025.302.075.44.348.165.33.392.414.261.101l-.065-.156.168-.069c.137-.058.154-.078.094-.11a.242.242 0 0 0-.196 0c-.11.041-.139.03-.239-.063a.605.605 0 0 0-.207-.13l-.089-.022h.089a.51.51 0 0 1 .213.059c.07.035.123.044.123.022 0-.078.295.014.464.145a.356.356 0 0 0 .337.11c.091-.011.245-.034.346-.047l.18-.024-.144.056c-.304.119-.172.174.171.071.148-.045.171-.067.145-.145a.55.55 0 0 0-.11-.174c-.09-.11-.023-.101.16.009a.616.616 0 0 0 .266.089.63.63 0 0 1 .281.11c.157.11.163.11.447.045a1.14 1.14 0 0 1 .308-.05 1.7 1.7 0 0 1-.376.11Zm.693-.276a15.2 15.2 0 0 1-1.79-.573c-.16-.104.11-.034.965.258a4.32 4.32 0 0 1 .826.312Zm-1.165-.759c.043 0 .56.162 1.141.361l1.061.363 1.495-.406c.822-.22 1.556-.407 1.628-.407.246 0 .092-.045-.379-.11q-.47-.065-.941-.134c-.256-.04-.682-.099-.941-.134-.358-.051-.714-.102-1.071-.157q-.33-.053-.651-.09a7.9 7.9 0 0 0-.737.358 2.9 2.9 0 0 0-.615.361Zm2.225.537a9.8 9.8 0 0 1-1.767-.58c.013 0 .44.129.945.29a5.06 5.06 0 0 1 .822.29m-.44-.44c.1 0 .146.01.103.021a.55.55 0 0 1-.18 0c-.056-.011-.022-.02.078-.02Zm2.2.018a2.75 2.75 0 0 1-.463.089 4.04 4.04 0 0 1 .82-.199c.048 0-.11.049-.357.11m-2.516-.701c.031 0 .348.041.701.089l1.32.182c.37.051.744.11.831.129.156.037.156.038.023.042s-1.47-.168-2.211-.289a1.291 1.291 0 0 0-1.106.142 2.1 2.1 0 0 1-.481.189 4.04 4.04 0 0 1 .925-.485"/></svg>