<svg xmlns="http://www.w3.org/2000/svg" fill="#44739e" viewBox="0 0 24 24"><path d="m11.573 9.448 2.916 1.015a.1.1 0 0 0 .034.005.1.1 0 0 0 .1-.063l.231-.522a.1.1 0 0 0 0-.085.11.11 0 0 0-.063-.058l-2.854-.979a.105.105 0 0 0-.125.045l-.293.487a.108.108 0 0 0-.008.091.107.107 0 0 0 .062.064m-.026-.137.292-.487a.072.072 0 0 1 .085-.031l2.854.98a.07.07 0 0 1 .042.1l-.231.523a.072.072 0 0 1-.089.038l-2.915-1.019a.071.071 0 0 1-.038-.104m.053.072 2.911 1.017a.039.039 0 0 0 .047-.02l.231-.522a.04.04 0 0 0 0-.03.038.038 0 0 0-.022-.021l-2.854-.98h-.012a.036.036 0 0 0-.032.019l-.293.487a.037.037 0 0 0 .02.054zm.316-.252 2.568.869-.022.065L11.89 9.2Zm-.711.319 3.395 1.213a.152.152 0 0 0 .188-.077l.39-.81a.152.152 0 0 0-.087-.209L11.77 8.413a.15.15 0 0 0-.178.064l-.465.751a.152.152 0 0 0 .078.222m-.048-.2.464-.751a.115.115 0 0 1 .1-.056.11.11 0 0 1 .039.007l3.319 1.15a.117.117 0 0 1 .07.066.115.115 0 0 1 0 .1l-.39.81a.117.117 0 0 1-.145.06l-3.397-1.218a.115.115 0 0 1-.071-.072.114.114 0 0 1 .011-.1zM9.073 7.993V8l.03-.011v-.013l-.033.004Zm-.129.052a.08.08 0 0 1-.017-.013l-.035.013.012.014Zm.163-.052v-.008l-.063.1a.1.1 0 0 0 .063-.092m-.199 0a.076.076 0 0 1 .082-.066.086.086 0 0 1 .074.037l.036-.012a.12.12 0 0 0-.107-.059.109.109 0 0 0-.116.1.085.085 0 0 0 .009.038l.032-.012a.06.06 0 0 1-.01-.026m.198-.008h.014l.018.042a.14.14 0 0 0 0-.029v-.014l-.01-.026h-.012l-.012.019ZM9.1 7.968l.015-.006.013-.019-.028.009Zm-.21.124-.016-.04.018-.007-.009-.014-.032.011v.006a.13.13 0 0 0 .039.044m.121.032.028-.041a.13.13 0 0 1-.049.009.127.127 0 0 1-.09-.033h-.008l.019.046a.17.17 0 0 0 .075.018Zm.053-.16-.149.055a.07.07 0 0 0 .012.013l.143-.052a.1.1 0 0 0-.006-.016M9.072 8l-.128.048a.1.1 0 0 0 .046.013A.077.077 0 0 0 9.072 8m.028.557-.112-.272-.011.015.11.269Zm-.185-.449-.025-.016.055.133.011-.017Zm.341.205.012-.018-.11-.269-.012.018Zm-.116-.329.018.042.011-.017-.03-.073a.14.14 0 0 1 .001.048m-.163.318-.032-.077-.011.018.031.077Zm.301.018-.178.287-.015-.036-.014.011.026.063.2-.324-.018-.044-.011.023Zm-.14-.298a.144.144 0 0 1-.127.1l-.055.084.032.077.158-.241Zm.12.296-.14.223-.018.016.005.012Zm1.097.092.034-.013V8.38l-.033.012Zm-.13.052-.016-.012-.035.013.012.013Zm.164-.052V8.4l-.062.094a.1.1 0 0 0 .062-.084m-.199 0a.075.075 0 0 1 .082-.065.085.085 0 0 1 .073.036l.034-.012a.12.12 0 0 0-.107-.059.109.109 0 0 0-.116.1.085.085 0 0 0 .009.038l.032-.012a.06.06 0 0 1-.007-.026m.21-.01.018.042a.14.14 0 0 0 0-.029V8.4l-.01-.026h-.007l-.016.024Zm-.228.109-.016-.04.018-.006-.009-.015-.032.011v.007a.15.15 0 0 0 .039.043m.213-.124.02-.008.009-.013v-.007l-.032.012Zm-.085.156.028-.044a.12.12 0 0 1-.054.012.127.127 0 0 1-.086-.033h-.008l.019.046a.16.16 0 0 0 .075.019zm.089-.14-.001.001v.001Zm-.044-.02-.148.055a.08.08 0 0 0 .012.014l.143-.053a.06.06 0 0 0-.007-.016m.009.034-.129.047a.1.1 0 0 0 .047.013.077.077 0 0 0 .082-.06m.029.563-.112-.272-.011.017.11.268Zm.158-.246.012-.018-.111-.267-.012.017Zm-.341-.207-.025-.016.056.137.012-.017Zm.06.198-.032-.077-.011.018.032.077zm.303.016-.179.285-.014-.033-.014.009.024.058.2-.32-.016-.038-.011.018Zm-.141-.339.02.046.011-.017-.032-.077-.007.011a.12.12 0 0 1 .008.037m-.002.039a.146.146 0 0 1-.122.1l-.058.088.031.077.159-.242Zm.124.298v-.005l-.141.224a.2.2 0 0 1-.017.022v.009zm5.223 1.668a.1.1 0 0 1-.017-.013l-.035.013.013.014zm.126-.065.034-.013-.007-.015-.033.012a.04.04 0 0 1 .006.016m-.064.075-.021.036h.006a.11.11 0 0 0 .117-.1v-.007l-.035.012a.071.071 0 0 1-.067.059m-.097-.063a.074.074 0 0 1 .082-.065.087.087 0 0 1 .07.033l.018-.032a.124.124 0 0 0-.088-.035.109.109 0 0 0-.117.1.08.08 0 0 0 .009.038l.033-.012a.046.046 0 0 1-.007-.027m.211-.012v.009l.011-.02-.005-.011-.026.009v.018zm.018-.016v.005l.006.017zm-.248.128-.016-.04.018-.007-.009-.015-.031.012v.006a.15.15 0 0 0 .038.044m.095-.001a.12.12 0 0 1-.08-.032h-.008l.019.046a.16.16 0 0 0 .05.016zm.065.024a.138.138 0 0 0 .087-.091l-.013-.035Zm.047-.163.033-.012a.12.12 0 0 0-.033-.042l-.018.03a.08.08 0 0 1 .018.024m-.067.061.042-.016v-.012l-.026.009zm.027-.047-.141.052a.05.05 0 0 0 .011.014l.117-.043zm-.051.089.024-.042-.086.032a.1.1 0 0 0 .047.013zm.058-.091-.003-.004-.004.006zm-.148.144a.2.2 0 0 1-.026-.016l.039.094.011-.018zm.185.475.157-.292-.117-.3v.006a.11.11 0 0 1 0 .032l.107.28-.14.262-.131-.318-.011.018.133.324zm.162-.278-.161.3-.007-.017-.012.016.017.041.182-.341-.013-.035-.011.02zm-.117-.355-.006-.014h-.01a.14.14 0 0 1 .008.024zm-.184.316-.033-.08-.01.019.033.08zm.029-.14h-.025l-.026.044.033.08.077-.133a.16.16 0 0 1-.059.009m1.249.322a.05.05 0 0 1-.016-.012l-.036.013.013.014zm.127-.063.001-.002h-.002zm.001-.002.032-.012-.007-.016h-.012zm-.04.068-.025.043a.107.107 0 0 0 .1-.1v-.008l-.035.013a.062.062 0 0 1-.04.052m-.123-.055a.075.075 0 0 1 .082-.065.086.086 0 0 1 .073.036l.021-.008.007-.012a.12.12 0 0 0-.1-.051.11.11 0 0 0-.117.1.085.085 0 0 0 .009.038l.033-.012a.05.05 0 0 1-.008-.026m.211-.013.013.032.009-.016v-.009l-.011-.029-.026.01v.017zm-.229.112-.017-.039.018-.007-.011-.015-.031.012v.006a.14.14 0 0 0 .041.043m.19.007a.13.13 0 0 0 .055-.075v-.012Zm-.074-.008h-.016a.125.125 0 0 1-.086-.032h-.008l.019.046a.15.15 0 0 0 .071.018zm.09-.139.033-.012a.17.17 0 0 0-.019-.028l-.019.032zm-.025.046v-.011l-.013.021zm-.008-.034-.148.055a.05.05 0 0 0 .012.014l.142-.053a.05.05 0 0 0-.006-.016m-.032.084.026-.045-.114.042a.09.09 0 0 0 .088 0zm-.116.06a.1.1 0 0 1-.025-.016l.048.117.011-.019zm.347.198-.119-.313a.13.13 0 0 1 0 .028l.108.281-.141.262-.122-.3-.01.019.13.318zm-.119-.313.011-.019-.015-.038h-.01a.12.12 0 0 1 .011.047zm-.044.654.182-.34-.005-.014-.183.34zm-.128-.358-.033-.08-.011.019.033.08zm.019-.162-.037.064.032.08.1-.171a.166.166 0 0 1-.095.027m.463-.164a.15.15 0 0 0 .012-.154.119.119 0 0 0-.1-.05h-.012a.144.144 0 0 0-.121.082l-.075.13.122.319zM6.571 8.016l12.746 4.519h.007v-.006l.4-1.569a.01.01 0 0 0-.006-.011L7.586 6.78h-.007L6.567 8v.01zm10.337 3.213.139-.238-.074-.179a.12.12 0 0 1-.014-.056.144.144 0 0 1 .151-.134.16.16 0 0 1 .12.053l.059-.1a.212.212 0 0 1 .178-.12.193.193 0 0 1 .176.08.213.213 0 0 1-.009.224l-.361.672a.246.246 0 0 1-.212.116.226.226 0 0 1-.113-.029c-.074-.045-.123-.143-.04-.289m-1.289-.453.123-.211-.065-.157a.12.12 0 0 1-.014-.056.143.143 0 0 1 .151-.133.155.155 0 0 1 .106.039l.08-.138a.209.209 0 0 1 .178-.12.191.191 0 0 1 .176.08.211.211 0 0 1-.009.223l-.361.673a.248.248 0 0 1-.212.116.226.226 0 0 1-.113-.029c-.074-.043-.123-.142-.04-.287M11.1 9.21l.464-.751a.185.185 0 0 1 .22-.078L15.1 9.535a.186.186 0 0 1 .106.256l-.39.81a.186.186 0 0 1-.167.1.17.17 0 0 1-.063-.011l-3.392-1.207a.188.188 0 0 1-.113-.114.186.186 0 0 1 .019-.159m-1.01-.352.127-.194-.082-.2a.13.13 0 0 1-.014-.056.144.144 0 0 1 .151-.134.152.152 0 0 1 .139.081h.01l.1-.158a.248.248 0 0 1 .205-.131.171.171 0 0 1 .162.067.177.177 0 0 1-.01.189l-.424.672a.29.29 0 0 1-.242.129.19.19 0 0 1-.1-.025c-.026-.018-.112-.085-.022-.24m-1.284-.421.128-.194-.08-.2a.116.116 0 0 1-.015-.055.144.144 0 0 1 .151-.134.151.151 0 0 1 .139.081h.005l.107-.163a.247.247 0 0 1 .205-.131.174.174 0 0 1 .162.066.179.179 0 0 1-.01.19l-.424.672a.29.29 0 0 1-.243.129.2.2 0 0 1-.1-.025c-.031-.013-.114-.08-.025-.236m6.873 2.373c-.05.088-.045.159.015.2a.179.179 0 0 0 .212-.039l-.131-.321ZM9.538 7.866a.126.126 0 0 0 .013-.118.1.1 0 0 0-.087-.036h-.013a.181.181 0 0 0-.149.1l-.13.2.11.268zM6.2 8.114l-.157.164 13.53 4.967 1.9-2.132-.646-.9L8.168 5.888l-.631.562-1.03 1.363Zm1.323-1.375a.078.078 0 0 1 .086-.024l12.139 4.169a.078.078 0 0 1 .05.093l-.4 1.569a.074.074 0 0 1-.039.049.08.08 0 0 1-.036.009.08.08 0 0 1-.026 0L6.548 8.081a.081.081 0 0 1-.048-.053.082.082 0 0 1 .015-.071Zm9.445 4.524c-.05.088-.045.159.015.2a.178.178 0 0 0 .23-.062l-.133-.325Zm-6.146-2.977a.126.126 0 0 0 .013-.118.1.1 0 0 0-.087-.036h-.013a.177.177 0 0 0-.149.094l-.131.2.111.266zm5.462 1.986a.153.153 0 0 0 .013-.154.121.121 0 0 0-.1-.049h-.011a.146.146 0 0 0-.122.082l-.091.156.123.321zm-7.42-1.799c-.022.039-.053.112 0 .144a.2.2 0 0 0 .207-.035l-.106-.262Zm1.284.42c-.022.039-.053.112 0 .144A.2.2 0 0 0 10.356 9l-.107-.262Zm9.202 4.379L5.93 8.324l-.228.201 13.453 4.931Zm-.264.305L5.602 8.607l-.228.201 13.514 4.96Zm-.304.328L5.247 8.917l-.227.202 13.566 4.988Zm-.31.323L4.935 9.215l-.228.201 13.591 5zm-.268.298L4.609 9.5l-.227.201 13.644 5.019Zm-.273.317L4.259 9.828l-.228.201 13.705 5.024Zm-.295.34-13.73-5.045-.199.176 13.746 5.074zm-.305.337L3.54 10.436l-.228.201 13.831 5.106Zm-.264.322L3.215 10.721l-.228.201 13.89 5.142zm-14.362-4.66a.362.362 0 0 0-.1.366l.282.955 12.8 4.964c.169.066.358.072.412-.1l.168-.5a1.1 1.1 0 0 1 .215-.328l.341-.356-13.936-5.172Zm19.221-.228-.615-.217.074.137.282.152-4.96 5.509a1.89 1.89 0 0 0-.332.515l-.088.2-.119.319a.233.233 0 0 1-.276.12L2.8 12.61l-.069-.21-.107-.353-.156-.513a.67.67 0 0 1-.025-.126.226.226 0 0 1 .077-.2l3.027-2.629.941-.879.478-.64-4.472 3.862-.364.334a.274.274 0 0 0-.112.331l.377.991.02.048a.69.69 0 0 0 .166.244l.148.12.183.094 12.641 4.883.312.112.192.033h.156l.141-.03.045-.037 5.119-5.965.472-.984a.1.1 0 0 0-.064-.142"/></svg>