<svg xmlns="http://www.w3.org/2000/svg" fill="#44739e" viewBox="0 0 24 24"><path d="M18.178 6.708a3.3 3.3 0 0 0-2.059.716 3.32 3.32 0 0 0-4.119 0 3.32 3.32 0 0 0-4.119 0 3.321 3.321 0 1 0 0 5.212 3.324 3.324 0 0 0 4.119 0 3.324 3.324 0 0 0 4.119 0 3.322 3.322 0 1 0 2.059-5.928m-10.84 5.385a2.561 2.561 0 1 1 0-4.127 3.321 3.321 0 0 0 0 4.127m.543-.542a2.561 2.561 0 0 1 0-3.043 2.561 2.561 0 0 1 0 3.043m3.576.542a2.566 2.566 0 0 1-3.033 0 3.321 3.321 0 0 0 0-4.127 2.566 2.566 0 0 1 3.033 0 3.321 3.321 0 0 0 0 4.127m.543-.542a2.561 2.561 0 0 1 0-3.043 2.561 2.561 0 0 1 0 3.043m3.576.542a2.566 2.566 0 0 1-3.033 0 3.321 3.321 0 0 0 0-4.127 2.566 2.566 0 0 1 3.033 0 3.321 3.321 0 0 0 0 4.127m.543-.542a2.561 2.561 0 0 1 0-3.043 2.561 2.561 0 0 1 0 3.043m2.059 1.039a2.578 2.578 0 0 1-1.516-.5 3.321 3.321 0 0 0 0-4.127 2.561 2.561 0 1 1 1.516 4.624zm-.991 4.491a1.74 1.74 0 0 0-.472-1.06l-.862-1.092h-1.2l.683.766a2.4 2.4 0 0 0 .262.243 1.13 1.13 0 0 0-.542-.134 2.38 2.38 0 0 0-1.156.281 1.148 1.148 0 0 0-.639 1.028 1.19 1.19 0 0 0 .364.843 2.435 2.435 0 0 0 1.6.5 2.515 2.515 0 0 0 1.565-.467 1.2 1.2 0 0 0 .395-.913zm-1 .032a.644.644 0 0 1-.389.568 1.23 1.23 0 0 1-.575.122 1.354 1.354 0 0 1-.581-.128.649.649 0 0 1-.383-.549.692.692 0 0 1 .459-.6 1.21 1.21 0 0 1 .486-.1 1.46 1.46 0 0 1 .5.083.7.7 0 0 1 .479.6zm-8.144.038a.9.9 0 0 0-.153-.012H6.74a1 1 0 0 0-.153.012 1.1 1.1 0 0 0 .1-.108l.517-.856a1.5 1.5 0 0 0 .115-.223 1.7 1.7 0 0 0 .115.229l.53.863a.66.66 0 0 0 .083.095zm1.928 1.227-2.3-3.449H6.382l.339.4a.17.17 0 0 0 .032.019.1.1 0 0 0-.032.019l-2 3.008h1.157l.313-.518a.16.16 0 0 0 .019-.057.7.7 0 0 0 .077.012h2.075a.18.18 0 0 0 .07-.012.083.083 0 0 0 .013.05l.326.531zM13 17.33v-1.437h-1.011v1.1a2.02 2.02 0 0 1-.032.492.545.545 0 0 1-.562.332c-.344 0-.5-.135-.568-.345a1.34 1.34 0 0 1-.032-.224c-.006-.083 0-.172 0-.268v-1.087H9.773v1.444a.96.96 0 0 0 .288.734 1.89 1.89 0 0 0 1.3.39 1.815 1.815 0 0 0 1.348-.4.937.937 0 0 0 .291-.731m5.509 1.048v-2.523h-1.041v2.523z"/></svg>