<svg xmlns="http://www.w3.org/2000/svg" viewBox="0 0 24 24"><path fill="#44739e" d="M19.152 5.189a3.82 3.82 0 0 0-2.384.829 3.844 3.844 0 0 0-4.77 0 3.844 3.844 0 0 0-4.769 0 3.845 3.845 0 1 0 0 6.035 3.849 3.849 0 0 0 4.769 0 3.849 3.849 0 0 0 4.77 0 3.847 3.847 0 1 0 2.384-6.864M6.6 11.425a2.965 2.965 0 1 1 0-4.779 3.845 3.845 0 0 0 0 4.779m.629-.628a2.965 2.965 0 0 1 0-3.523 2.965 2.965 0 0 1 0 3.523m4.141.628a2.971 2.971 0 0 1-3.512 0 3.845 3.845 0 0 0 0-4.779 2.971 2.971 0 0 1 3.512 0 3.845 3.845 0 0 0 0 4.779m.628-.628a2.965 2.965 0 0 1 0-3.523 2.965 2.965 0 0 1 0 3.523m4.141.628a2.971 2.971 0 0 1-3.512 0 3.845 3.845 0 0 0 0-4.779 2.971 2.971 0 0 1 3.512 0 3.845 3.845 0 0 0 0 4.779m.629-.628a2.965 2.965 0 0 1 0-3.523 2.965 2.965 0 0 1 0 3.523M19.152 12a2.985 2.985 0 0 1-1.756-.579 3.845 3.845 0 0 0 0-4.778 2.965 2.965 0 1 1 1.756 5.354Zm-1.148 5.2a2.015 2.015 0 0 0-.546-1.227l-.998-1.265h-1.39l.791.887a2.8 2.8 0 0 0 .303.282 1.31 1.31 0 0 0-.627-.155 2.756 2.756 0 0 0-1.339.325 1.329 1.329 0 0 0-.74 1.19 1.378 1.378 0 0 0 .422.976 2.82 2.82 0 0 0 1.853.579 2.912 2.912 0 0 0 1.812-.54 1.39 1.39 0 0 0 .457-1.058Zm-1.158.037a.746.746 0 0 1-.45.658 1.424 1.424 0 0 1-.666.141 1.57 1.57 0 0 1-.673-.148.751.751 0 0 1-.443-.636.801.801 0 0 1 .531-.694 1.4 1.4 0 0 1 .563-.116 1.69 1.69 0 0 1 .579.096.811.811 0 0 1 .555.695Zm-9.429.044a1.04 1.04 0 0 0-.178-.014H5.908a1.16 1.16 0 0 0-.177.014 1.3 1.3 0 0 0 .115-.125l.599-.991a1.74 1.74 0 0 0 .133-.258 2 2 0 0 0 .133.265l.614.999a.76.76 0 0 0 .096.11Zm2.232 1.421-2.663-3.994H5.493l.393.464a.2.2 0 0 0 .037.022.12.12 0 0 0-.037.022L3.57 18.699h1.34l.362-.6a.19.19 0 0 0 .022-.066.8.8 0 0 0 .089.014h2.403a.21.21 0 0 0 .081-.014.096.096 0 0 0 .015.058l.378.614Zm3.507-1.213v-1.664h-1.17v1.273a2.34 2.34 0 0 1-.037.57.631.631 0 0 1-.651.384c-.398 0-.579-.156-.658-.399a1.55 1.55 0 0 1-.037-.259c-.007-.097 0-.2 0-.311v-1.258H9.42v1.672a1.112 1.112 0 0 0 .333.85 2.188 2.188 0 0 0 1.505.451 2.102 2.102 0 0 0 1.561-.463 1.085 1.085 0 0 0 .337-.846m6.379 1.213v-2.921H18.33v2.921Z"/></svg>