<svg xmlns="http://www.w3.org/2000/svg" viewBox="0 0 24 24"><path fill="#44739e" d="M14.353 8.059C11.585 5.785 8.62 3.907 6.247 2.918c-2.57-1.087-4.349-1.087-5.041 0-.099.198-.198.396-.198.594v.494c-.098 1.581.692 4.547 1.483 6.82 1.483 5.14.198 7.216.198 7.216-.396.395-.593.988-.593 1.582 0 1.186.889 2.075 1.977 2.174.494 0 .988-.198 1.285-.494 1.977-1.977 7.215-.989 7.413-.89.989.297 4.942 1.384 7.512 1.483.791 0 1.483-.099 1.879-.395.296-.198.494-.692.494-.692 1.68-2.57-3.064-8.402-8.303-12.751m-1.384 11.169C7.73 18.042 4.27 13.297 3.282 10.53c-.297-.89-.593-1.78-.791-2.57.099.099.198.296.297.395 1.581 2.274 4.052 4.844 6.82 7.117 2.372 1.977 4.844 3.558 7.018 4.646-1.285-.297-2.57-.593-3.657-.89m8.995.791c-.297.494-1.582.692-3.954-.395-2.273-.989-5.14-2.768-7.809-5.042-2.768-2.273-5.14-4.744-6.623-6.919-1.186-1.779-1.68-2.965-1.68-3.657v-.099c0-.198 0-.395.099-.494s.494-.297 1.087-.297c.692 0 1.582.198 2.867.791 2.273.988 5.14 2.768 7.809 5.041 6.227 5.041 8.995 9.885 8.204 11.071m-8.896-9.39C10.3 8.256 7.532 6.872 6.939 7.564s1.087 3.262 3.855 5.635 5.536 3.756 6.129 3.064c.692-.692-1.088-3.262-3.855-5.634"/></svg>