<svg xmlns="http://www.w3.org/2000/svg" viewBox="0 0 24 24"><path fill="#44739e" d="M17.298 5.529c-1.816-1.497-3.758-2.724-5.333-3.381-1.739-.735-2.957-.715-3.45.058-.067.135-.145.289-.145.444v.319q-.029.391.058.985l.01.058.058.029c.358.194.725.406 1.13.648l.397.241-.223-.396c-.502-.86-.599-1.324-.599-1.555v-.068c0-.087 0-.213.029-.242.02-.019.232-.154.619-.154.492 0 1.082.164 1.826.512 1.594.695 3.449 1.884 5.082 3.285 4.232 3.42 5.749 6.473 5.343 7.082-.126.212-.773.357-2.029-.135l-.445-.174.31.367c.347.406.686.84 1.033 1.304l.049.049.087.009c.618 0 1.043-.096 1.294-.28.223-.145.358-.473.358-.483 1.159-1.788-2.019-5.662-5.459-8.522m-2.705 2.677c1.043.859 2.058 1.787 3.014 2.734l.039.029c.396.174.705.261.937.261.184 0 .309-.049.396-.145.097-.097.135-.222.135-.387-.029-.724-1.12-2.154-2.657-3.478-1.642-1.411-3.671-2.589-4.183-1.99-.271.319.048.976.357 1.468l.029.029c.686.493 1.334.986 1.933 1.479m-.541.657C11.346 6.64 8.448 4.805 6.129 3.838c-2.512-1.062-4.251-1.062-4.928 0-.096.194-.193.387-.193.58v.483c-.096 1.546.677 4.445 1.449 6.667 1.45 5.024.194 7.053.194 7.053-.387.386-.58.966-.58 1.546 0 1.159.87 2.029 1.932 2.125.483 0 .967-.193 1.256-.483 1.933-1.932 7.053-.966 7.247-.869.966.29 4.831 1.352 7.343 1.449.773 0 1.449-.097 1.835-.386.29-.194.483-.677.483-.677 1.643-2.512-2.995-8.212-8.115-12.463M12.699 19.78c-5.121-1.159-8.502-5.797-9.469-8.502-.289-.87-.579-1.739-.773-2.512.097.097.194.29.29.386 1.546 2.223 3.962 4.735 6.667 6.957 2.319 1.932 4.734 3.478 6.86 4.541-1.256-.29-2.512-.58-3.575-.87m8.792.773c-.29.483-1.546.677-3.865-.386-2.222-.966-5.024-2.706-7.632-4.928-2.706-2.222-5.024-4.637-6.474-6.763-1.159-1.739-1.642-2.898-1.642-3.575v-.096c0-.194 0-.387.096-.483s.483-.29 1.063-.29c.676 0 1.546.193 2.802.773 2.222.966 5.024 2.705 7.633 4.927 6.087 4.928 8.792 9.662 8.019 10.821m-8.695-9.178C10.09 9.056 7.385 7.703 6.805 8.379s1.063 3.189 3.768 5.508 5.411 3.671 5.991 2.995c.676-.677-1.063-3.189-3.768-5.507"/></svg>