<svg xmlns="http://www.w3.org/2000/svg" viewBox="0 0 24 24"><path fill="#44739e" d="M22.977 6.629a3.462 3.462 0 0 0-2.153-2.811l-.014-.007-.06-.022-.053-.02-.024-.009c-.053-.017-.11-.036-.162-.051s-.11-.03-.16-.043a1 1 0 0 0-.079-.018 3.4 3.4 0 0 0-.468-.068H9.347q-.08.007-.161.016h-.019l-.08.013-.051.007-.051.009-.102.02h-.021a.6.6 0 0 0-.061.014h-.007l-.061.016-.032.016c-.055.015-.11.031-.163.048h-.014l-.086.03-.019.008-.083.031h-.011A3.465 3.465 0 0 0 6.738 5.1a3.42 3.42 0 0 0-.567 1.529 3.4 3.4 0 0 0-.023.396v4.055a6 6 0 0 0-.099-.137 3.127 3.127 0 0 0-2.244-1.472 2.805 2.805 0 0 0 0 5.61c1.606 0 2.93-2.383 2.93-2.804a2.9 2.9 0 0 0-.493-1.057h5.651V7.861h1.13v1.39h.77v-1.39h1.232v.819h.77v-.819h1.457v5.978h-11.1v3.126a3.458 3.458 0 0 0 3.455 3.455h1.466v-3.384h7.004v3.383h1.467A3.458 3.458 0 0 0 23 16.964V7.025a3.4 3.4 0 0 0-.023-.396M2.651 10.943a1.41 1.41 0 0 1 2.024 0 4.92 4.92 0 0 1 1.002 1.328c-1.804 3.764-4.96.556-3.026-1.328"/></svg>