<svg xmlns="http://www.w3.org/2000/svg" fill="#44739e" viewBox="0 0 24 24"><path d="M6.1 12.4846a1.442 1.442 0 1 0-1.441-1.442 1.443 1.443 0 0 0 1.441 1.442m0-2.669a1.227 1.227 0 1 1-1.227 1.227A1.228 1.228 0 0 1 6.1 9.8156m-2.145 1.497a.641.641 0 1 0-.64-.641.642.642 0 0 0 .64.641m0-1.228a.587.587 0 1 1-.587.587.588.588 0 0 1 .587-.587m2.533 2.44a1.059 1.059 0 1 0 1.059 1.058 1.06 1.06 0 0 0-1.059-1.058m0 1.983a.925.925 0 1 1 .925-.925.925.925 0 0 1-.925.925M5.282 12.949a1.641 1.641 0 0 1-1.641 1.641A1.641 1.641 0 0 1 2 12.949a1.641 1.641 0 0 1 1.641-1.641 1.641 1.641 0 0 1 1.641 1.641m10.04-1.7854h.842v3.168h-.842zm1.0352-.8524a.614.614 0 0 1-.6023.6255.614.614 0 0 1-.6255-.6023.614.614 0 0 1 .6023-.6255.614.614 0 0 1 .6255.6023m1.4758.0114h-.842v.841H16.5v.757h.492v1.349a.951.951 0 0 0 1.014 1.091 1.45 1.45 0 0 0 .585-.114v-.785a.94.94 0 0 1-.314.058.387.387 0 0 1-.443-.442v-1.157h.757v-.757h-.757zm-6.05.841 1.206 3.169h.877l1.185-3.169h-.885l-.749 2.006-.75-2.006zm9.737.428a1.641 1.641 0 1 0 .48 1.16 1.642 1.642 0 0 0-.48-1.16m-.42 1.463a.8.8 0 1 1-.433-1.045.8.8 0 0 1 .493.739.78.78 0 0 1-.06.306M9.642 9.8226l-1.726 4.51h.928l.356-.941h1.832l.357.942h.92l-1.719-4.51Zm-.126 2.74.6-1.587.6 1.587z"/></svg>