<svg xmlns="http://www.w3.org/2000/svg" viewBox="0 0 24 24"><path fill="#44739e" d="M5.51 12.399a1.586 1.586 0 1 0-1.585-1.586 1.587 1.587 0 0 0 1.585 1.586m0-2.936a1.35 1.35 0 1 1-1.35 1.35 1.351 1.351 0 0 1 1.35-1.35M3.15 11.11a.705.705 0 1 0-.704-.705.706.706 0 0 0 .704.705m0-1.351a.646.646 0 1 1-.645.646.647.647 0 0 1 .645-.646m2.787 2.684a1.165 1.165 0 1 0 1.165 1.164 1.166 1.166 0 0 0-1.165-1.164m0 2.182a1.018 1.018 0 1 1 1.017-1.018 1.018 1.018 0 0 1-1.017 1.018M4.61 12.91a1.805 1.805 0 0 1-1.805 1.805A1.805 1.805 0 0 1 1 12.91a1.805 1.805 0 0 1 1.805-1.805A1.805 1.805 0 0 1 4.61 12.91m11.044-1.964h.926v3.485h-.926Zm1.139-.937a.675.675 0 0 1-.663.688.675.675 0 0 1-.688-.663.675.675 0 0 1 .663-.688.675.675 0 0 1 .688.663m1.623.012h-.926v.925h-.54v.833h.541v1.484a1.046 1.046 0 0 0 1.116 1.2 1.595 1.595 0 0 0 .643-.125v-.864a1.03 1.03 0 0 1-.345.064.426.426 0 0 1-.488-.486v-1.273h.833v-.833h-.833Zm-6.655.925 1.327 3.486h.965l1.303-3.486h-.973l-.824 2.207-.825-2.207Zm10.711.471A1.805 1.805 0 1 0 23 12.693a1.806 1.806 0 0 0-.528-1.276m-.462 1.609a.88.88 0 1 1-.476-1.149.88.88 0 0 1 .542.813.86.86 0 0 1-.066.336M9.406 9.471l-1.898 4.961h1.02l.392-1.035h2.015l.393 1.036h1.012l-1.891-4.961Zm-.138 3.014.66-1.746.66 1.746Z"/></svg>