<svg xmlns="http://www.w3.org/2000/svg" viewBox="0 0 24 24"><path fill="#44739e" d="m13.945 13.071-.007-.001-3.823.553v.091l3.822-.552 2.405.385-.005-.093Zm-6.204 2.188 2.296-.397-.017-1.918-2.279.285Zm1.915-1.888c.065 0 .118.087.118.195s-.055.194-.12.194-.116-.087-.116-.194.053-.195.118-.195m1.53.448-1.069.165.001.093 1.068-.165Zm-4.877.845.29-.045v-.091l-.29.044Zm0-.4.29-.042v-.091l-.29.041Zm9.94-4.684 2.944.065V5.916l-2.944.254Zm.272-3.157 2.4-.211v3.163l-2.4-.052ZM6.309 15.109l.29-.048v-.091l-.29.047Zm-4.785-4.265.276.026V6.599l-.276.064Zm2.164-4.226-1.724-.03v4.29l1.724-.082Zm-.33 3.904-1.052.045V6.94h1.071Zm2.132.175.036-4.045-1.724-.03.013 4.168ZM5.215 6.94l-.011 3.49-1.053.058-.008-3.548ZM2.523 19.439l-.035-5.532-.901-.279v5.156Zm7.598-4.951 1.065-.174v-.091l-1.066.173Zm.361.767.191.057.513-.093v-.092Zm-1.957.257 1.164.381a1.243 1.243 0 0 0 .66.03l1.155-.27a.012.012 0 0 0 .009-.01.013.013 0 0 0-.008-.011l-1.386-.413Zm1.601-.555 1.06-.186v-.091l-1.062.185Zm-3.817-1.156.29-.039v-.091l-.29.038Zm2.088 2.842a.41.41 0 0 0-.123-.097.45.45 0 0 1-.172-.146.91.91 0 0 1-.02-.825l.013-.041.041.011.124.037h.027l-.188-.062 1.878-.345h.02l.04-.007v-.212l-2.292.395-.006-.038v2.725l.632-.146a1.32 1.32 0 0 1 .047-.629c.062-.248.11-.463-.021-.62m2.393.19c.015-.046.071-.052.22-.071s.426-.052.451-.145a2.49 2.49 0 0 0 .082-.765 4.94 4.94 0 0 1-1.666.33 3.72 3.72 0 0 1-.84-.244c-.263-.096-.56-.204-.887-.295a.796.796 0 0 0 .023.704.35.35 0 0 0 .142.122.48.48 0 0 1 .148.118c.162.192.103.44.04.701a1.166 1.166 0 0 0-.036.626l1.309.524a4.13 4.13 0 0 0 1.084-.291 5.1 5.1 0 0 0-.051-.628 1.97 1.97 0 0 1-.019-.686m.498-3.073v1.739l.251.075a.077.077 0 0 1 .045.07v.035a.1.1 0 0 1 0 .027.08.08 0 0 1-.01.035h.008l.025.019a1.584 1.584 0 0 1-.027.77l6.93 2.2-.072-3.54Zm-.374 3.85c.01.082.02.164.027.245l3.399 1.292 2.31-.831-3.919-1.242ZM1 1v22h22V1Zm12.944 10.612-1.534.162v-.318l1.525-.163 8.79.848v.406Zm8.784 1.421-8.784-1.077-1.53.165v-.255l1.54-.167 8.773.939Zm-8.79-1.83-1.521.161v-.28l1.534-.121 8.777.74v.348Zm.013-.331-1.534.121v-.341l1.532-.084 8.777.638v.406Zm0-.394-1.522.083v-.295l1.51-.057 8.79.55v.357Zm2.119-.713V6.008l3.3-.29v4.119Zm5.407-8.493-7.522 1.547-8.566-1.547ZM8.606 3.97v-.228l3.687.383.044 6.05v.073l-.015 1.881-3.711.402V9.33l3.133-.091.036-4.96ZM1.433 10.9V6.59l.458-.104V6.5l1.888.032 1.841.031-.02 1.95.02 2.134 2.896-.136v.363l-7.243.485V10.9Zm-.161.55 7.243-.485v.344l-7.243.609Zm0 .558 7.243-.609v.33l-7.243.673Zm2.075 1.025-.06.078-2.015.22v-.377l2.061-.205Zm.386.241a4.38 4.38 0 0 1 1.641-.017c.016.087-.743.162-1.11.195a6.03 6.03 0 0 1-1.592.07c0-.099.717-.202 1.061-.248m.242-.688-.315-.076v-.11l.29-.052-.402-.068 4.967-.46v.305Zm4.54-.352v.308l-4.827.524v-.353l.123-.011.021.006.257-.034Zm-7.243.254 2.038-.19.007.13v.11l.006.119-2.057.209Zm21.483 10.241H1.272v-3.825l.249-.055-.024-.018v-.341l-.225.047v-.502l.225-.044v-.093l-.225.045v-.387l.225-.044v-.089l-.225.044v-.454l.225-.041v-.091l-.225.04v-.411l.225-.039v-.092l-.225.04v-.484l.225-.038v-.091l-.225.036v-.396l.225-.035v-.091l-.225.035v-.363l.225-.033v-.091l-.225.033v-.426l.225-.03v-.091l-.225.03v-.44l.225-.027v-.091l-.225.026v-.44l2.028-.22.022.013-1.98.22.926.31h-.013l.211.065.037.012.02.007 4.017-.499.059-.008v-.091l-.178.022-1.086-.253-1.598.174-.011-.013 10.211-1.108 8.791 1.078v.39l-8.784-1.173-3.98.477.185.024h-.036v.044l3.831-.46 8.79 1.175v.382l-5.325-.782v.091l5.325.782v.406l-5.325-.852v.082l.045.017 5.28.844v.337l-1.633-.282v.092l1.635.281v.44l-1.65-.31v.091l1.65.312v.337l-1.65-.314v.091l1.657.316v.463l-1.667-.341v.091l1.669.342v.364l-1.677-.363v.093l1.679.363v.492l-1.69-.393v.092l1.692.394v.289l-1.698-.387v.197l-.175.087 1.879.449Zm-4.08-4.016 2.26-1.116.072-3.054-2.41.633Zm-.09-3.633.743-.193h.008l.203-.053.578-.15.984-.254.029-.01-3.74-.618-.124.033-.23-.032-.032-.039.024-.022-.458-.076-.048.02-.179-.036v-.021l-2.473-.411-2.692.412.539.11h-.028l.259.052h.027l.835.168h-.02l.254.051h.017l1.438.289-.376-.071 1.692.336 2.677.539h.031l.077-.024Zm-6.475-1.388a.047.047 0 0 1 0-.094l1.437-.22a1.9 1.9 0 0 1 .188-.017l.392.695Zm6.044 1.079-3.905-.698-.405-.719a1.9 1.9 0 0 1 .284.024l5.763.967a.051.051 0 0 1 .032.064.055.055 0 0 1-.032.032l-1.32.317a1.01 1.01 0 0 1-.411.013ZM7.695 13.108l2.101-.271-.803-.107-2.122.227Zm-1.386 3.926.29-.059v-.092l-.29.058Zm0-1.41.29-.05v-.092l-.29.05Zm0 .478.29-.053v-.092l-.29.053Zm0 .467.29-.057v-.092l-.29.057Zm1.3-3.35-.92-.172v4.571l.9.407Zm-1.3 4.568.357-.079-.067-.031v-.272l-.29.062ZM4.674 18.94l1.54-.388v-5.075l-1.584.195Zm1.276-5.1.035.323-1.04.156-.055-.33Zm-3.3.071.052 5.561 1.884-.509-.094-5.272Zm.452.652-.049-.33 1.059-.158.03.324Zm13.184-1.235.067.004.013.248-.005.055.157.032.109-.046-.002-.022-.033-.007v-.246l.225-.029h.002l.198.028.039-.001.013.395-.035.031.012.015.219.031.177-.046v-.02l-.061-.022v-.658l-.196-.01-.259.062v.018l.14.018-.003.098-.465-.053-.002-.212-.187-.024-.197.045v.014l.142.023.002.192-.066.022Zm.045-.264-.142-.023v-.022l-2.244-.329-.007-.001-3.828.512.001.09 3.827-.511 2.394.352Z"/></svg>