<svg xmlns="http://www.w3.org/2000/svg" viewBox="0 0 24 24"><path fill="#44739e" d="M20.927 9.336a1.077 1.077 0 0 0-1.074 1.073v3.085a1.074 1.074 0 0 0 2.147 0v-3.085a1.076 1.076 0 0 0-1.073-1.073m-4.499-2.489H4.806A2.809 2.809 0 0 0 2 9.652v4.7a2.809 2.809 0 0 0 2.806 2.806h11.622a2.809 2.809 0 0 0 2.806-2.806v-4.7a2.809 2.809 0 0 0-2.806-2.805m1.916 7.5a1.918 1.918 0 0 1-1.916 1.916H4.806a1.918 1.918 0 0 1-1.916-1.916V9.652a1.917 1.917 0 0 1 1.916-1.915h11.622a1.918 1.918 0 0 1 1.916 1.915zM4.188 8.41h.579c.3983 0 .719.3207.719.719v5.645a.7174.7174 0 0 1-.719.719h-.579a.7174.7174 0 0 1-.719-.719V9.129c0-.3983.3207-.719.719-.719" class="cls-1" data-name="Colore riempimento 1"/></svg>