<svg xmlns="http://www.w3.org/2000/svg" viewBox="0 0 24 24"><path fill="#44739e" d="M21.819 9.067h.001c.654 0 1.18.526 1.18 1.18v3.394c0 .653-.526 1.18-1.18 1.18h-.001a1.178 1.178 0 0 1-1.181-1.18v-3.394c0-.654.527-1.18 1.181-1.18m-4.948 8.599H4.087A3.09 3.09 0 0 1 1 14.579V9.414a3.09 3.09 0 0 1 3.087-3.08h12.784a3.09 3.09 0 0 1 3.086 3.08v5.17a3.09 3.09 0 0 1-3.086 3.082M4.087 7.307a2.11 2.11 0 0 0-2.108 2.107v5.17a2.11 2.11 0 0 0 2.108 2.109h12.784a2.111 2.111 0 0 0 2.107-2.109v-5.17a2.111 2.111 0 0 0-2.107-2.107Zm.068.741h5.317c.853 0 1.539.687 1.539 1.539v4.714c0 .852-.686 1.539-1.539 1.539H4.155a1.536 1.536 0 0 1-1.539-1.539V9.587c0-.852.686-1.539 1.539-1.539"/></svg>