<svg xmlns="http://www.w3.org/2000/svg" fill="#44739e" viewBox="0 0 24 24"><path d="m7.766 7.7075-.463.549h.411a1.627 1.627 0 0 0 .8-.213 1.7 1.7 0 0 0 .6-.591 4.77 4.77 0 0 1 3.08-1.185 5.017 5.017 0 0 1 3.559 1.064 1.8 1.8 0 0 0 .546.506 1.877 1.877 0 0 0 .939.244l.289-.267a4.37 4.37 0 0 1-.866-.433l-.07-.042a1.24 1.24 0 0 1-.38-.36c-.506-.691-2.3-1.389-4.053-1.288-1.466.088-3.087.759-3.54 1.465a1.12 1.12 0 0 1-.386.386 1.18 1.18 0 0 1-.466.165m2.306 6.651c-.08 0-.137.1-.137.28s.054.274.136.274.138-.108.138-.28-.043-.274-.137-.274m1.801-1.424h-2.29a.609.609 0 0 0-.61.609v1.067a.609.609 0 0 0 .61.609h2.29a.608.608 0 0 0 .609-.609v-1.067a.608.608 0 0 0-.609-.609m-2.122 2.037h-.429v-.055l.072-.065c.172-.163.249-.25.251-.352a.12.12 0 0 0-.134-.131.226.226 0 0 0-.142.057l-.029-.064a.29.29 0 0 1 .19-.069.19.19 0 0 1 .206.2c0 .124-.091.224-.232.361l-.054.05h.3zm.315.012c-.131 0-.22-.124-.222-.346s.1-.35.234-.35.222.126.222.341-.085.355-.234.355m.531 0c-.132 0-.221-.124-.223-.346s.1-.35.234-.35.223.126.223.341-.086.355-.237.355zm.531 0c-.132 0-.221-.124-.223-.346s.1-.35.234-.35.223.126.223.341-.086.355-.234.355m.856-.012H11.9l-.076-.238c-.017-.057-.032-.106-.045-.165a1.5 1.5 0 0 1-.046.165l-.081.238h-.082l-.152-.5h.094l.066.254c.014.056.028.108.038.16.012-.051.028-.105.045-.159l.081-.255h.077l.078.25c.018.06.033.113.044.164a1.2 1.2 0 0 1 .038-.163l.071-.251h.09zm-1.382-.613c-.079 0-.137.1-.137.28s.053.274.137.274.137-.108.137-.28-.045-.274-.137-.274m.531 0c-.079 0-.137.1-.137.28s.054.274.137.274.137-.108.137-.28-.042-.274-.137-.274m5.375-2.668h.448v-.2h-2.035v.2h.417l-.331.2a2.056 2.056 0 0 0-.965 1.76 2 2 0 0 0 1.335 1.929l.075.025v.072h.942v-.072l.075-.025a2 2 0 0 0 1.335-1.928 2.056 2.056 0 0 0-.965-1.76zm-10.577 0h.448v-.2H4.345v.2h.417l-.332.2a2.057 2.057 0 0 0-.965 1.761 2 2 0 0 0 1.335 1.929l.075.025v.072h.942v-.072l.075-.025a2 2 0 0 0 1.336-1.929 2.056 2.056 0 0 0-.966-1.759zm4.061 5.754h.338a.033.033 0 0 1 .033.033v.018a.033.033 0 0 1-.033.033h-.338a.033.033 0 0 1-.033-.033v-.018a.033.033 0 0 1 .033-.033m1.52-.452a.042.042 0 1 0 0-.084h-.559a.042.042 0 1 0 0 .084zm-1.071 0a.042.042 0 1 0 0-.084h-.559a.042.042 0 1 0 0 .084zm-1.299.146a.451.486 0 0 1-.451.486.451.486 0 0 1-.451-.486.451.486 0 0 1 .451-.486.451.486 0 0 1 .451.486m12.352-10.042-4.949.023a.84.84 0 0 0 .119.095l.071.043a3.21 3.21 0 0 0 .946.438h.189l-.576.531h-.028a2.03 2.03 0 0 1-1.04-.264 1.94 1.94 0 0 1-.589-.544 1.36 1.36 0 0 0-.359-.292l-5.584.025a1.46 1.46 0 0 0-.454.379 1.84 1.84 0 0 1-.646.639 1.77 1.77 0 0 1-.876.232h-.724l.707-.839h.046a.99.99 0 0 0 .414-.148.85.85 0 0 0 .28-.26l-2.191.01a2.463 2.463 0 0 0-1.2.321l-2.621 1.966a2.474 2.474 0 0 1 1.573-.352h13.582a1.63 1.63 0 0 1 1.714 1.8l-.024 6.363c0 1.029-.545 1.194-.765 1.5l3.207-2.864a.266.266 0 0 0 .064-.166l.214-8.017c.005-.22-.007-.575-.5-.619m-2.34 10.264v-6.652a1.46 1.46 0 0 0-1.46-1.457H3.455a1.46 1.46 0 0 0-1.461 1.457v6.652a1.461 1.461 0 0 0 1.461 1.461h14.239a1.461 1.461 0 0 0 1.46-1.461m-13.12-1.6v.134H4.658v-.134a2.219 2.219 0 0 1-1.41-2.109 2.292 2.292 0 0 1 .88-1.815v-.565h2.466v.589a2.292 2.292 0 0 1 .849 1.79 2.22 2.22 0 0 1-1.409 2.109zm2.566 1.939a.556.556 0 1 1 .578-.556.567.567 0 0 1-.578.555zm1.8-.125h-.473a.088.088 0 0 1 0-.175h.467a.088.088 0 1 1 0 .175zm.179-.431h-.831v-.3h.826zm.892.431h-.477a.088.088 0 0 1 0-.175h.468a.088.088 0 1 1 0 .175zm.179-.431h-.826v-.3h.826zm1.071-2.347a.585.585 0 0 1-.585.585H9.28a.584.584 0 0 1-.584-.585v-1.506a.584.584 0 0 1 .584-.585h2.851a.585.585 0 0 1 .585.585zm3.9.963v.135h-1.386v-.135a2.218 2.218 0 0 1-1.41-2.108 2.292 2.292 0 0 1 .879-1.815v-.565h2.469v.59a2.291 2.291 0 0 1 .848 1.79 2.218 2.218 0 0 1-1.41 2.107zm-5.558 1.685h.338a.033.033 0 0 1 .033.033v.018a.033.033 0 0 1-.033.033h-.338a.033.033 0 0 1-.033-.033v-.018a.033.033 0 0 1 .033-.033"/></svg>