<svg xmlns="http://www.w3.org/2000/svg" viewBox="0 0 24 24"><path fill="#44739e" d="M17.284 11.045a.926.926 0 1 0 0-1.852h-.526v-.66h.525a.926.926 0 1 0 0-1.852h-.525V4.663A1.474 1.474 0 0 0 15.296 3.2h-1.838V1h-4.4v2.2H7.222a1.474 1.474 0 0 0-1.464 1.463v16.863A1.474 1.474 0 0 0 7.222 23h8.063a1.475 1.475 0 0 0 1.474-1.463v-7.986h.525a.926.926 0 1 0 0-1.851h-.526v-.66Zm0-1.522a.596.596 0 1 1 0 1.192h-1.296a.596.596 0 1 1 0-1.192Zm0-2.506a.596.596 0 1 1 0 1.191h-1.296a.596.596 0 1 1 0-1.191Zm-5.623 11.674a2.396 2.396 0 0 1-1.693-4.201c0-.206.037-7.92.037-8.199a1.575 1.575 0 0 1 1.656-1.551 1.54 1.54 0 0 1 1.611 1.551c0 .301.08 8.001.08 8.199a2.396 2.396 0 0 1-1.691 4.201m5.623-6.661a.596.596 0 1 1 0 1.191h-1.296a.596.596 0 1 1 0-1.191Zm-5.623-6.399a.805.805 0 0 0-.784.825v6.336h1.567V6.456a.805.805 0 0 0-.783-.825"/></svg>