<svg xmlns="http://www.w3.org/2000/svg" viewBox="0 0 24 24"><path fill="#44739e" d="M20.926 9.336h.001c.5944 0 1.073.4786 1.073 1.073v3.085c0 .5944-.4786 1.073-1.073 1.073h-.001a1.0707 1.0707 0 0 1-1.073-1.073v-3.085c0-.5944.4786-1.073 1.073-1.073m-4.498 7.817H4.806A2.809 2.809 0 0 1 2 14.347V9.652a2.809 2.809 0 0 1 2.806-2.8h11.622a2.809 2.809 0 0 1 2.806 2.8v4.7a2.809 2.809 0 0 1-2.806 2.801M4.806 7.736A1.918 1.918 0 0 0 2.89 9.652v4.7a1.918 1.918 0 0 0 1.916 1.917h11.622a1.919 1.919 0 0 0 1.916-1.917v-4.7a1.919 1.919 0 0 0-1.916-1.916Zm.572.674H15.76c1.0576 0 1.909.8514 1.909 1.909v3.265a1.905 1.905 0 0 1-1.909 1.909H5.378a1.905 1.905 0 0 1-1.909-1.909v-3.265c0-1.0576.8514-1.909 1.909-1.909" class="cls-1" data-name="Colore riempimento 1"/></svg>