<svg xmlns="http://www.w3.org/2000/svg" fill="#44739e" viewBox="0 0 24 24"><path d="M19.95 8.337a2.374 2.374 0 0 0-2.083-1.955 92.5 92.5 0 0 0-11.751 0 2.374 2.374 0 0 0-2.082 1.955 31.05 31.05 0 0 0 0 7.041 2.374 2.374 0 0 0 2.082 1.955 92.5 92.5 0 0 0 11.751 0 2.374 2.374 0 0 0 2.083-1.955 31.05 31.05 0 0 0 0-7.041m-3.95 7.6a.388.388 0 0 1-.387.387H8.376a.388.388 0 0 1-.387-.387.389.389 0 0 1 .387-.388h7.232a.389.389 0 0 1 .387.388zm1.495-1.168h-11a.391.391 0 0 1 0-.782h11a.391.391 0 0 1 0 .782m1.576-9.84A10 10 0 1 0 4.929 19.071 9.93 9.93 0 0 0 12 22a10 10 0 0 0 7.07-17.071ZM12 21.531A9.531 9.531 0 1 1 21.531 12 9.541 9.541 0 0 1 12 21.531"/></svg>