<svg xmlns="http://www.w3.org/2000/svg" viewBox="0 0 24 24"><path fill="#44739e" d="M12.92 12.917c0 .682-.848.641-.848.641h-.848v-1.231h.848c.873-.006.848.591.848.591m-1.696-2.469h.646c.671.037.646.535.646.535 0 .621-.742.631-.742.631h-.55Zm1.54 1.408s.58-.248.574-.903c0 0 .088-1.075-1.336-1.206h-1.581v4.507h1.813s1.512.004 1.512-1.272c0 0 .037-.868-.982-1.126M8.672 8.865h6.654v6.27H8.673Zm-3.425 4.052c0 .682-.848.641-.848.641h-.848v-1.231h.848c.873-.006.848.591.848.591m-1.696-2.469h.646c.671.037.646.535.646.535 0 .621-.743.631-.743.631h-.549Zm1.539 1.408s.58-.248.575-.903c0 0 .089-1.075-1.336-1.206h-1.58v4.507H4.56s1.514.004 1.514-1.272c0 0 .036-.868-.984-1.126M1 8.865h6.654v6.27H1Zm20.643 1.206v.833s-.813-.5-1.711-.51c0 0-1.676-.033-1.751 1.606 0 0-.06 1.508 1.731 1.593 0 0 .751.091 1.771-.559v.862s-1.368.813-2.952.187c0 0-1.333-.486-1.383-2.083 0 0-.055-1.641 1.721-2.186 0 0 .474-.182 1.327-.101 0 0 .509.05 1.246.357m-5.296 5.065H23v-6.27h-6.654Z"/></svg>