<svg xmlns="http://www.w3.org/2000/svg" viewBox="0 0 24 24"><path fill="#44739e" d="m9.622 8.919-.147-.046.073.563.097 1.225.065.325.092-.215.077-.364-.156-.89Zm.935-7.906-.271.021h-.049l-.275.023a.19.19 0 0 0 .089.012v.089c-.356.06-.31.11-.31.11l.097.324.049.164.161.532a7.48 7.48 0 0 0 2.302.226 12.8 12.8 0 0 0 2.31-.17c.054-.014.082-.03.079-.043l.033-.101c.083-.258.296-.915.28-.905s.023-.076-.314-.148v-.066a1.1 1.1 0 0 0 .135-.028c-.205-.02-.4-.038-.592-.053h-3.724Zm4.009 1.173-.069.01c-.192.027-.385.051-.579.071a14.2 14.2 0 0 1-1.54.076h-.083a8.25 8.25 0 0 1-2.074-.157 15 15 0 0 1 1.926-.121h.283c.571 0 1.112.02 1.508.045h.044c.241.016.424.033.52.048a.21.21 0 0 1 .082.019Zm-.036 7.913-.087-1.127-.076-.588a.048.048 0 0 0-.078-.033l-.471.36a.31.31 0 0 1-.133.058l-.156.029a.55.55 0 0 1-.33-.04l-.849-.38a.06.06 0 0 0-.02 0 .055.055 0 0 0-.03.01.048.048 0 0 0-.017.048l.12.687.154.855-.084.376-.136.307a.081.081 0 0 0 .007.08.077.077 0 0 0 .071.034l.804-.116a3.74 3.74 0 0 1 .563-.038l.77.007a.066.066 0 0 0 .047-.028.069.069 0 0 0 .013-.058Zm-4.941.472-.096-1.222-.082-.642a.057.057 0 0 0-.037-.046.056.056 0 0 0-.058.008l-.517.391a.33.33 0 0 1-.143.063l-.176.032a.616.616 0 0 1-.355-.043l-.931-.411a.058.058 0 0 0-.059 0 .057.057 0 0 0-.021.056l.131.748.169.929-.091.408-.15.33a.093.093 0 0 0 .009.092.091.091 0 0 0 .083.039l.88-.126a4.14 4.14 0 0 1 .617-.042l.848.009a.08.08 0 0 0 .056-.033.084.084 0 0 0 .015-.066Zm2.512-1.336.091 1.199.042.211a.2.2 0 0 1 .01-.031l.134-.302.074-.341-.15-.83-.066-.379-.202-.068Zm-3.636-.183.172-.031a.23.23 0 0 0 .098-.044l.229-.173a.136.136 0 0 0-.126-.082l-.296.117-.539.103.167.074a.51.51 0 0 0 .295.036m5.046-.357.069-.013-.044-.162a.052.052 0 0 0-.064-.016l-.279.135.052.023a.46.46 0 0 0 .266.033m-2.484.259.162-.031a.22.22 0 0 0 .092-.042l.11-.087v-.017a.084.084 0 0 0-.047-.058.09.09 0 0 0-.074 0l-.457.22a.45.45 0 0 0 .214.015m-3.719 1.484-.166-.91-.131-.749a.14.14 0 0 1 0-.044.295.295 0 0 0-.36.255l.152.88.011.543.083.603-.162.084v.046h.343l.147-.33Zm-.6-.025-.011-.541-.11-.616a1.8 1.8 0 0 0-.401.091 1.28 1.28 0 0 0-.309.156.586.586 0 0 1-.292.11.85.85 0 0 1-.396-.062.4.4 0 0 0-.11-.029.033.033 0 0 0-.024.008c-.065.061-.012.347.155.534a1 1 0 0 0 .127.11 1.3 1.3 0 0 1 .236.22.8.8 0 0 1 .097.132.19.19 0 0 0 .039.049c.096.084.277.11.847-.034l.16-.041Zm-4.445.644 1.065-.084-.39-.048.07.027-.197.05-.406.038-.206-.029.085-.067-.378.026Zm4.197 2.905a.66.66 0 0 1 .122.033c-.117-.361.153-.257.172-.426a2.446 2.446 0 0 1 1.138-1.749 25.85 25.85 0 0 1 4.103-.696l-.697-.007a3.8 3.8 0 0 0-.568.04l-.841.124h-.014a.188.188 0 0 1-.149-.072.185.185 0 0 1-.122.059l-.852-.008a3.96 3.96 0 0 0-.602.04l-.886.127h-.016a.198.198 0 0 1-.123-.041.6.6 0 0 0-.104.044 2.446 2.446 0 0 0-1.138 1.749c-.021.183.022.055.22.532a.68.68 0 0 0 .357.251m2.705 8.893.036.028h13.732v-5.894l-.079.025-13.394 4.31a.889.889 0 0 0-.295 1.531M1.441 7.812a6.82 6.82 0 0 0 1.752-.044h-.008a6.82 6.82 0 0 0-1.744.044m1.853-.022a6.5 6.5 0 0 1-1.155.098h-.054a5.6 5.6 0 0 1-.745-.046l.042 1.392a6.05 6.05 0 0 0 1.057.093h.023a3.52 3.52 0 0 0 .832-.091Zm-1 3.195.11.017.399-.04.076-.018-.071-.029-.061-.152-.09-.192-.073-1.21H2.34v.281l.017.398.025.55-.038.354Zm-.059.119-.382-.102.007.408.381.153Zm1.117-.085-1.085.086.007.463 1.078-.124Zm-1.52.285-.581.041v.627l3.136-.295-.632-.508-.364.026v.284l-1.155.133-.001-.023-.401-.162Zm-.464 2.143.013.784 2.968-.369.005-.78Zm2.987.723-2.967.375.006 1.24 2.961-.432Zm.018-2.265-2.997.298.008.973 2.965-.363Zm9.793-4.622a6.44 6.44 0 0 0 1.498-.035h-.008a6.46 6.46 0 0 0-1.49.035m.213.965a.153.153 0 0 1 .093.123l.019.153c.22.016.44.021.528.022h.02a3.33 3.33 0 0 0 .735-.075v-1.2a6.1 6.1 0 0 1-1.021.081H14.7a5.2 5.2 0 0 1-.652-.038l.034 1.068.145-.11a.151.151 0 0 1 .152-.024m.604.9.022.462-.035.301h.019l.323-.029-.051-.12-.083-.158-.065-1.026h-.143v.232Zm.536.801.277-.021-.185-.022.034.013ZM4.513 13.991v1.231l4.736 5.084-.295-3.34-4.442-3.836-.007.861Zm18.158-.27L9.115 16.988l.301 3.433 13.255-4.351ZM7.649 14.978c-.213-.226-.969-.78-1.019-.897h-.066l.064-.007a1.1 1.1 0 0 1-.034-.091.66.66 0 0 0-.122-.033.68.68 0 0 1-.356-.25l-.746-.66a5.7 5.7 0 0 1-.434-.44c-.006.039-.321-.203-.302-.364a.997.997 0 0 1 .068-.724s.025-.269.633-.622a2.1 2.1 0 0 1 .55-.146.385.385 0 0 1-.24-.092.28.28 0 0 1-.06-.074.7.7 0 0 0-.087-.117 1.17 1.17 0 0 0-.22-.204.88.88 0 0 1-.142-.124c-.175-.196-.28-.55-.149-.679.067-.063.15-.033.24 0a.77.77 0 0 0 .35.055.477.477 0 0 0 .246-.097 1.4 1.4 0 0 1 .33-.166 1.85 1.85 0 0 1 .418-.095l-.027-.157v-.006a.403.403 0 0 1 .164-.287.397.397 0 0 1 .33-.064h.019l.017-.015a.162.162 0 0 1 .163-.02l.598.266.683-.13.297-.121h.008a.245.245 0 0 1 .227.122l.2-.148a.159.159 0 0 1 .162-.021.165.165 0 0 1 .09.096l.145.046v-.019a.163.163 0 0 1 .061-.156.153.153 0 0 1 .158-.018l.814.373.541-.262a.189.189 0 0 1 .165 0 .19.19 0 0 1 .094.102l.178-.141a.19.19 0 0 1 .035-.043.18.18 0 0 1 .058-.03l.02-.015a.151.151 0 0 1 .154-.021.154.154 0 0 1 .09.097l.202.068-.034-.193a.153.153 0 0 1 .057-.147.15.15 0 0 1 .155-.019l.674.302.357-.174a.156.156 0 0 1 .203.061l.006.014.046.177a.2.2 0 0 0 .075-.034l.173-.133-.059-1.569-10.147-.18.119 4.42.678.55-1.114.105.021.018 1.108-.11-.028 1.042 4.584 3.96 13.241-3.148-.733-.294a.55.55 0 0 1-.11.088L9.36 16.057a2.31 2.31 0 0 1-.77-.335l-.142.032ZM9.831 1.615l-3.566-.44-1.183-.155 2.64.147h2.322v-.085a.19.19 0 0 1-.089-.012l.275-.023h.049l.271-.021h.022l.143-.016H4.93l.072.008h-1.27l1.189.148 4.96.614Zm4.318-.614.134.01c.192.015.388.033.592.053a1.1 1.1 0 0 1-.135.028v.066h8.102v.021l-4.876 1.43-3.19-.396-.033.101c0 .014-.025.029-.079.043l3.233.4v7.675a2.51 2.51 0 0 0-.974-.174h-.363c-.041 0-.792.07-1.854.169l.019.09a.177.177 0 0 1-.161.211l-.777-.008a3.6 3.6 0 0 0-.55.037l-.808.117h-.014a.187.187 0 0 1-.133-.056h-.015l.015.072a.187.187 0 0 1-.036.149.165.165 0 0 1-.051.045c2.662-.33 5.565-.638 5.565-.638h.292V2.747l4.791-1.404V13.05l-1.035-.208a1.4 1.4 0 0 0 .02-.317 1.07 1.07 0 0 0-.093-.484 1.17 1.17 0 0 0-.425-.45 4.2 4.2 0 0 0-.696-.365c-.347-.169-.391-.204-.518-.263a2.64 2.64 0 0 0-.936-.227c-.141-.01-.266-.01-.363-.01 0 0-9.161.953-9.856 1.357a2.453 2.453 0 0 0-1.138 1.749 2.2 2.2 0 0 0 .153 1.087 1.89 1.89 0 0 0 .365.586 1.65 1.65 0 0 0 .268.22 2.31 2.31 0 0 0 .77.335l12.131-2.682a.55.55 0 0 0 .11-.088.6.6 0 0 0 .098-.13.85.85 0 0 0 .073-.162l1.072.22v.405h.008-.008v3.382l.079-.025v5.895H9.189l-.036-.029H1.158V15.34l.077-.014v-.16l-.076.013V1.158h3.769L3.69 1.011H1.001V23h21.998V1.001Z"/></svg>