<svg xmlns="http://www.w3.org/2000/svg" fill="#44739e" viewBox="0 0 24 24"><path d="m9.882 9.11-.133-.042.066.512.088 1.114.059.295.084-.195.07-.331-.142-.809zm.8502-7.1874-.246.019h-.045l-.25.021a.17.17 0 0 0 .081.011v.081c-.324.054-.282.1-.282.1l.088.294.045.149.146.484a6.8 6.8 0 0 0 2.093.205 11.63 11.63 0 0 0 2.1-.154c.049-.013.075-.027.072-.039l.03-.092c.076-.235.269-.832.255-.823s.021-.069-.286-.134v-.06a1 1 0 0 0 .123-.026c-.186-.018-.364-.034-.538-.048h-3.386zm3.645 1.066-.063.009c-.174.025-.35.047-.526.065a12.9 12.9 0 0 1-1.4.069h-.076a7.5 7.5 0 0 1-1.885-.143 13.6 13.6 0 0 1 1.751-.11h.257c.519 0 1.011.018 1.371.041h.04c.219.015.385.03.473.044a.19.19 0 0 1 .074.017zm-.033 7.194-.079-1.024-.069-.535a.044.044 0 0 0-.071-.03l-.428.327a.28.28 0 0 1-.121.053l-.142.026a.5.5 0 0 1-.3-.036l-.772-.345a.05.05 0 0 0-.018 0 .05.05 0 0 0-.027.009.044.044 0 0 0-.016.043l.109.625.14.777-.076.342-.124.279a.074.074 0 0 0 .007.073.07.07 0 0 0 .064.031l.731-.106a3.4 3.4 0 0 1 .512-.034l.7.006a.06.06 0 0 0 .043-.025.063.063 0 0 0 .012-.053zm-4.492.429-.087-1.111-.075-.583a.052.052 0 0 0-.033-.042.051.051 0 0 0-.053.007l-.47.356a.3.3 0 0 1-.13.057l-.16.029a.56.56 0 0 1-.323-.039l-.846-.374a.053.053 0 0 0-.054 0 .052.052 0 0 0-.019.051l.119.68.154.845-.083.371-.136.3a.085.085 0 0 0 .008.083.083.083 0 0 0 .075.036l.8-.115a3.76 3.76 0 0 1 .561-.038l.771.008a.074.074 0 0 0 .051-.03.076.076 0 0 0 .014-.06zm2.284-1.214.083 1.09.038.192a.16.16 0 0 1 .009-.029l.122-.274.067-.31-.136-.755-.06-.344-.184-.062zm-3.306-.167.157-.028a.21.21 0 0 0 .089-.04l.208-.157a.124.124 0 0 0-.115-.075l-.269.107-.49.093.152.068a.465.465 0 0 0 .268.032m4.588-.324.062-.012-.04-.147a.047.047 0 0 0-.058-.015l-.253.123.047.021a.42.42 0 0 0 .242.03m-2.259.235.148-.028a.2.2 0 0 0 .083-.038l.1-.079v-.016a.076.076 0 0 0-.042-.052.081.081 0 0 0-.068 0l-.415.2a.41.41 0 0 0 .194.013m-3.381 1.349-.151-.827-.119-.681a.13.13 0 0 1 0-.04.268.268 0 0 0-.327.232l.138.8.01.494.076.548-.148.076v.042h.312l.134-.3zm-.545-.022-.01-.492-.1-.56a1.63 1.63 0 0 0-.365.083 1.16 1.16 0 0 0-.281.141.533.533 0 0 1-.265.1.77.77 0 0 1-.36-.056.37.37 0 0 0-.1-.026.03.03 0 0 0-.022.007c-.059.055-.011.315.141.485a.9.9 0 0 0 .115.1 1.18 1.18 0 0 1 .215.2.74.74 0 0 1 .088.12.17.17 0 0 0 .036.045c.087.076.251.1.77-.031l.145-.037zm-4.041.585.968-.076-.355-.044.064.025-.179.045-.369.035-.187-.027.077-.061-.344.024zm3.815 2.641a.6.6 0 0 1 .111.03c-.106-.328.139-.233.157-.387a2.224 2.224 0 0 1 1.034-1.59 23.5 23.5 0 0 1 3.73-.633l-.633-.006a3.44 3.44 0 0 0-.517.036l-.764.113h-.013a.171.171 0 0 1-.135-.066.168.168 0 0 1-.111.054l-.775-.007a3.6 3.6 0 0 0-.547.036l-.806.116h-.014a.18.18 0 0 1-.112-.038.53.53 0 0 0-.095.04 2.224 2.224 0 0 0-1.034 1.59c-.019.167.02.05.2.484a.618.618 0 0 0 .324.228m2.46 8.085.032.026h12.485v-5.359l-.072.023-12.177 3.918a.808.808 0 0 0-.268 1.392m-7.023-13.676a6.2 6.2 0 0 0 1.593-.04h-.007a6.2 6.2 0 0 0-1.586.04m1.685-.02a5.9 5.9 0 0 1-1.05.089h-.049a5.1 5.1 0 0 1-.677-.042l.038 1.266a5.5 5.5 0 0 0 .961.084h.021a3.2 3.2 0 0 0 .756-.082zm-.909 2.905.1.015.363-.036.069-.017-.065-.026-.055-.138-.082-.175-.066-1.1h-.222v.256l.015.362.023.5-.035.321zm-.054.108-.347-.093.006.371.347.139zm1.016-.077-.987.078.007.421.98-.113zm-1.382.259-.528.037v.57l2.851-.268-.575-.462-.331.024v.258l-1.05.121-.001-.021-.364-.147zm-.422 1.948.012.713 2.698-.336.005-.709zm2.716.657-2.698.341.006 1.128 2.692-.393zm.016-2.059-2.725.271.008.885 2.695-.33zm8.903-4.202a5.85 5.85 0 0 0 1.362-.032h-.007a5.87 5.87 0 0 0-1.355.032m.194.877a.139.139 0 0 1 .084.112l.018.139c.2.015.4.019.48.02h.018a3.03 3.03 0 0 0 .668-.068v-1.091a5.56 5.56 0 0 1-.928.074h-.048a4.7 4.7 0 0 1-.593-.035l.031.971.132-.1a.137.137 0 0 1 .138-.022m.549.819.02.42-.032.273h.017l.294-.026-.046-.109-.076-.144-.059-.933h-.13v.211zm.487.728.252-.019-.168-.02.031.012zm-10.006 3.675v1.119l4.306 4.622-.268-3.037-4.039-3.487-.006.783zm16.508-.246-12.324 2.97.274 3.121 12.05-3.955zm-13.657 1.143c-.193-.206-.881-.709-.926-.816h-.06l.058-.006a1 1 0 0 1-.031-.083.6.6 0 0 0-.111-.03.618.618 0 0 1-.323-.227l-.679-.6a5.2 5.2 0 0 1-.394-.4c-.006.035-.292-.185-.275-.331a.906.906 0 0 1 .062-.658s.023-.245.576-.566a1.9 1.9 0 0 1 .5-.132.35.35 0 0 1-.219-.084.25.25 0 0 1-.054-.067.64.64 0 0 0-.079-.107 1.06 1.06 0 0 0-.2-.185.8.8 0 0 1-.129-.113c-.159-.178-.255-.5-.136-.617.061-.057.137-.03.218 0a.7.7 0 0 0 .319.05.434.434 0 0 0 .223-.088 1.27 1.27 0 0 1 .3-.151 1.68 1.68 0 0 1 .38-.087l-.024-.142v-.006a.366.366 0 0 1 .149-.261.361.361 0 0 1 .3-.058h.017l.016-.014a.147.147 0 0 1 .148-.018l.543.242.621-.118.27-.11h.008a.223.223 0 0 1 .206.111l.182-.135a.145.145 0 0 1 .147-.019.15.15 0 0 1 .082.087l.132.042v-.017a.148.148 0 0 1 .055-.142.139.139 0 0 1 .144-.016l.74.339.492-.238a.172.172 0 0 1 .15 0 .174.174 0 0 1 .085.092l.162-.128a.17.17 0 0 1 .032-.039.16.16 0 0 1 .053-.027l.018-.014a.137.137 0 0 1 .14-.019.14.14 0 0 1 .082.088l.183.062-.031-.175a.139.139 0 0 1 .052-.134.136.136 0 0 1 .141-.017l.613.274.324-.158a.142.142 0 0 1 .185.056l.005.012.042.161a.18.18 0 0 0 .068-.031l.158-.121-.054-1.426-9.225-.164.108 4.019.617.5-1.013.095.019.017 1.007-.1-.025.947 4.167 3.6 12.038-2.862-.666-.267a.5.5 0 0 1-.1.08l-11.027 2.431a2.1 2.1 0 0 1-.7-.305l-.129.029zm1.9845-12.1492-3.242-.4-1.076-.141 2.4.134h2.111v-.077a.17.17 0 0 1-.081-.011l.25-.021h.045l.246-.019h.02l.13-.015h-5.259l.065.008h-1.154l1.081.134 4.509.558zm3.9255-.5578.122.009c.174.014.352.03.538.048a1 1 0 0 1-.123.026v.06h7.366v.019l-4.433 1.3-2.9-.36-.03.092c0 .012-.023.026-.072.039l2.939.363v6.978a2.28 2.28 0 0 0-.885-.158h-.33c-.038 0-.72.063-1.686.153l.017.082a.161.161 0 0 1-.146.192l-.706-.007a3.3 3.3 0 0 0-.5.033l-.735.107h-.013a.17.17 0 0 1-.121-.051h-.013l.013.065a.17.17 0 0 1-.032.136.15.15 0 0 1-.047.041c2.42-.3 5.06-.58 5.06-.58h.265v-7l4.356-1.276v10.643l-.941-.189a1.28 1.28 0 0 0 .018-.288.97.97 0 0 0-.085-.44 1.065 1.065 0 0 0-.386-.409 3.84 3.84 0 0 0-.633-.332c-.315-.154-.355-.186-.471-.239a2.4 2.4 0 0 0-.851-.207c-.128-.009-.241-.009-.33-.009 0 0-8.328.867-8.96 1.234a2.23 2.23 0 0 0-1.035 1.59 2 2 0 0 0 .139.988 1.72 1.72 0 0 0 .332.533 1.5 1.5 0 0 0 .244.2 2.1 2.1 0 0 0 .7.305l11.029-2.439a.5.5 0 0 0 .1-.08.54.54 0 0 0 .089-.118.77.77 0 0 0 .066-.147l.975.2v.368h.007-.007v3.075l.072-.023v5.359H9.4882l-.032-.026h-7.269v-6.824l.07-.013v-.145l-.069.012V2.0546h3.427l-1.126-.134h-2.445v19.991h20v-20Z"/></svg>