<svg xmlns="http://www.w3.org/2000/svg" fill="#44739e" viewBox="0 0 24 24"><path d="M19.4295 7.081a10.19 10.19 0 0 0-1.8363-2.378 9.8 9.8 0 0 0-.7587-.6644h.3052a.503.503 0 0 0 .4498-.2765.495.495 0 0 0-.0492-.5226 7.139 7.139 0 0 0-5.5041-2.442A6.954 6.954 0 0 0 6.521 3.2438a.495.495 0 0 0-.0446.5207.503.503 0 0 0 .4486.274h.1849q-.3615.291-.7051.6273a10.2 10.2 0 0 0-1.8364 2.4194.495.495 0 0 0 .022.4849.503.503 0 0 0 .4274.2364h6.3535V18.627a1.5 1.5 0 0 0 .003.1102.88.88 0 0 1-.1036.371 1.037 1.037 0 0 1-.8836.45 16.76 16.76 0 0 0-2.5621.4655 7.4 7.4 0 0 0-1.1071.3702c-.1958.0883-.7157.3226-.7157.7988 0 .8494 1.4723 1.5663 1.9399 1.6779a18.5 18.5 0 0 0 3.835.3234 19.57 19.57 0 0 0 3.9603-.3242 3.7 3.7 0 0 0 1.0773-.6307 1.842 1.842 0 0 0 .8599-1.3084c-.0001-.6163-.7625-.8845-1.9072-1.0975a23.3 23.3 0 0 0-2.523-.3051.817.817 0 0 1-.752-.423 1.11 1.11 0 0 1-.1124-.3946 1.2 1.2 0 0 0-.003-.097l-.0009.0002V7.8065h6.6062a.503.503 0 0 0 .4286-.2384.495.495 0 0 0 .0186-.4871M5.91 6.8097a9.8 9.8 0 0 1 1.2016-1.4354 7.93 7.93 0 0 1 1.789-1.3358h6.1208a8.12 8.12 0 0 1 1.8465 1.355 9.87 9.87 0 0 1 1.21 1.4162Z"/></svg>