<svg xmlns="http://www.w3.org/2000/svg" viewBox="0 0 24 24"><path fill="#44739e" d="M19.296 7.174a10.12 10.12 0 0 0-2.547-2.988h.298a.494.494 0 0 0 .442-.271.486.486 0 0 0-.049-.514 7.009 7.009 0 0 0-5.404-2.398A6.828 6.828 0 0 0 6.62 3.406a.486.486 0 0 0-.044.511.494.494 0 0 0 .44.269h.179a10.09 10.09 0 0 0-2.493 2.992.486.486 0 0 0 .022.476.494.494 0 0 0 .42.232h6.239v10.625a1.5 1.5 0 0 0 .003.109.86.86 0 0 1-.102.364 1.018 1.018 0 0 1-.868.442 16.5 16.5 0 0 0-2.516.457 7.3 7.3 0 0 0-1.087.364c-.192.086-.703.316-.703.784 0 .834 1.446 1.538 1.905 1.648a18.17 18.17 0 0 0 3.766.317 19.23 19.23 0 0 0 3.889-.318 3.63 3.63 0 0 0 1.058-.62 1.809 1.809 0 0 0 .844-1.284c0-.606-.748-.869-1.872-1.078a22.9 22.9 0 0 0-2.478-.3.802.802 0 0 1-.739-.415 1.09 1.09 0 0 1-.11-.387 1.2 1.2 0 0 0-.003-.096h-.001V7.886h6.487a.494.494 0 0 0 .421-.234.486.486 0 0 0 .019-.478m-4.217-3.967H8.238a6 6 0 0 1 .337-.238 6.11 6.11 0 0 1 3.453-.987A6.357 6.357 0 0 1 15.49 2.99c.113.073.217.146.314.217Z"/></svg>