<svg xmlns="http://www.w3.org/2000/svg" viewBox="0 0 24 24"><path fill="#44739e" d="M19.296 7.174a10 10 0 0 0-1.804-2.336 9.6 9.6 0 0 0-.745-.652h.3a.494.494 0 0 0 .442-.271.486.486 0 0 0-.049-.514 7.01 7.01 0 0 0-5.404-2.398A6.829 6.829 0 0 0 6.62 3.406a.486.486 0 0 0-.044.511.494.494 0 0 0 .44.269h.182q-.355.286-.692.616a10.02 10.02 0 0 0-1.804 2.376.486.486 0 0 0 .022.476.494.494 0 0 0 .42.232h6.239v10.625a1.5 1.5 0 0 0 .003.109.86.86 0 0 1-.102.364 1.018 1.018 0 0 1-.868.442 16.46 16.46 0 0 0-2.516.457 7.3 7.3 0 0 0-1.087.364c-.192.086-.703.316-.703.784 0 .834 1.446 1.538 1.905 1.648a18.17 18.17 0 0 0 3.766.317 19.2 19.2 0 0 0 3.889-.318 3.63 3.63 0 0 0 1.058-.62 1.809 1.809 0 0 0 .844-1.284c0-.606-.748-.869-1.873-1.078a22.9 22.9 0 0 0-2.477-.3.802.802 0 0 1-.738-.415 1.09 1.09 0 0 1-.111-.388 1.2 1.2 0 0 0-.003-.095h-.001V7.886h6.487a.494.494 0 0 0 .421-.234.486.486 0 0 0 .019-.478M6.02 6.907A9.6 9.6 0 0 1 7.2 5.498a7.79 7.79 0 0 1 1.756-1.312h6.011a7.97 7.97 0 0 1 1.813 1.33 9.7 9.7 0 0 1 1.188 1.391Z"/></svg>