<svg xmlns="http://www.w3.org/2000/svg" fill="#44739e" viewBox="0 0 24 24"><path d="M19.4509 7.081a10.31 10.31 0 0 0-2.5932-3.0425h.3034a.503.503 0 0 0 .4498-.2764.495.495 0 0 0-.0492-.5227 7.138 7.138 0 0 0-5.5041-2.442 6.953 6.953 0 0 0-5.5152 2.4465.495.495 0 0 0-.0447.5207.503.503 0 0 0 .4486.274h.182A10.27 10.27 0 0 0 4.5898 7.085a.495.495 0 0 0 .022.485.503.503 0 0 0 .4273.2364h6.3536V18.627a1.5 1.5 0 0 0 .003.1102.875.875 0 0 1-.1036.3711 1.037 1.037 0 0 1-.8837.4499 16.8 16.8 0 0 0-2.5621.4655 7.4 7.4 0 0 0-1.1071.3703c-.1957.0882-.7156.3226-.7156.7988 0 .8493 1.4722 1.5662 1.9398 1.6778a18.5 18.5 0 0 0 3.8351.3235 19.58 19.58 0 0 0 3.9603-.3242 3.7 3.7 0 0 0 1.0773-.6307 1.842 1.842 0 0 0 .8598-1.3084c-.0001-.6164-.7624-.8845-1.907-1.0975a23.3 23.3 0 0 0-2.523-.3051.817.817 0 0 1-.7522-.423 1.11 1.11 0 0 1-.1123-.3946 1.2 1.2 0 0 0-.003-.097l-.001.0001V7.8065h6.6063a.503.503 0 0 0 .4286-.2384.495.495 0 0 0 .0186-.4871m-4.2936-4.0393h-6.967a6 6 0 0 1 .3433-.2422 6.22 6.22 0 0 1 3.5162-1.0054 6.474 6.474 0 0 1 3.5257 1.0262c.1149.0742.2214.1486.3197.2214Z"/></svg>