<svg xmlns="http://www.w3.org/2000/svg" viewBox="0 0 24 24"><path fill="#44739e" d="M19.296 7.173a10.13 10.13 0 0 0-2.547-2.988h.298a.494.494 0 0 0 .442-.271.486.486 0 0 0-.048-.514 7.011 7.011 0 0 0-5.405-2.398h-.062a6.822 6.822 0 0 0-5.355 2.403.486.486 0 0 0-.043.511.494.494 0 0 0 .44.269h.179a10.09 10.09 0 0 0-2.493 2.992.486.486 0 0 0 .022.476.494.494 0 0 0 .419.232h6.24v10.626a1.5 1.5 0 0 0 .003.108.86.86 0 0 1-.102.365 1.018 1.018 0 0 1-.868.442 16.46 16.46 0 0 0-2.516.457 7.3 7.3 0 0 0-1.087.363c-.192.087-.703.317-.703.785 0 .834 1.446 1.538 1.905 1.648a18.17 18.17 0 0 0 3.766.317 19.2 19.2 0 0 0 3.889-.318 3.63 3.63 0 0 0 1.058-.62 1.809 1.809 0 0 0 .845-1.284c-.001-.606-.749-.869-1.873-1.078a22.9 22.9 0 0 0-2.478-.3.802.802 0 0 1-.738-.415 1.09 1.09 0 0 1-.111-.388 1.2 1.2 0 0 0-.003-.095h-.001V7.885h6.488a.494.494 0 0 0 .421-.234.486.486 0 0 0 .018-.478"/></svg>