<svg xmlns="http://www.w3.org/2000/svg" viewBox="0 0 24 24"><path fill="#44739e" d="M22.103 7.7C19.375.658 9.381-1.299 4.207 4.207c-6.904 6.772-1.9 18.853 7.771 18.759 7.615.238 13.297-8.352 10.125-15.266M11.978 22.488C2.004 22.472-2.243 9.755 5.54 3.735v-.009c6.641-5.361 17.041-.339 16.917 8.273a10.495 10.495 0 0 1-10.479 10.489m-2.857-1.145a.042.042 0 1 0 .03.077.042.042 0 0 0-.03-.077m.722-.084.084-.013c-.037-.038-.068-.038-.084.013m.691-.097.084.012v-.036c-.039-.009-.059-.01-.084.024m.675-.085.061.036c-.008-.037-.019-.042-.061-.036m-2.028-.036c-.057.042.02.12.073.082s-.017-.123-.073-.082m.467-.182h.048l-.048-.013Zm.947.002c-.057.025-.046.167.019.138s.065-.176-.019-.138m-.995-.015h.036l-.036-.012Zm-.049-.012H9.6l-.049-.012Zm-.036-.012h.036l-.036-.012Zm-.969-.003c-.083.033-.05.178.045.142s.039-.175-.045-.142m.568-.131-.036-.012v.012Zv.011l.134.05c-.132.195.158.244.121.048l.146.012v-.012Zm-.109-.024h.036l-.036-.012Zm1.633-.005c-.029.018 0 .069.031.046s-.004-.067-.031-.046m4.409-.2.012.072c.05-.027.043-.064-.012-.072m-.645-.091a.18.18 0 0 0-.058-.007c-.058.215.204.1.058.007m-.095-.177v.013l.061-.013Zm1.318-.047c-.048.032.007.124.058.084s-.014-.113-.058-.084m-6.696.096c-.141.158.165.282.292.287s.087-.073.123-.153c.163-.139-.044-.291-.194-.305l.026-.048-.171.024.012.049c-.08.032-.073.071-.088.146m5.973-.231.024-.024-.024.012Zm-3.057-.152c-.174.033-.02.159.097.136.168-.032.012-.156-.097-.136m.618-.006h-.109c-.384.098.244.236.255.011a.55.55 0 0 0-.146-.011m-1.201.001-.024.072c.3.164.396-.145.024-.072m4.906-.064c-.047.02 0 .085.038.062s0-.077-.038-.062m-2.992-.015c-.11.026-.6.033-.456.157.153-.021.486.005.585-.089.068-.069-.099-.072-.129-.068m.415-.097c-.2.045-.11.178.062.136.193-.048.101-.173-.062-.136m.546-.134c-.159.027-.188.181 0 .149.138-.022.162-.178 0-.149m.316-.043v.012c.109.057.237-.012.329-.072l-.012-.049a.402.402 0 0 0-.317.109m.497-.145.049-.024-.049.012Zm-8.19-.158.17.122a.29.29 0 0 0-.17-.122m.583-.266c-.03.072 0 .12.085.11-.004-.069-.013-.099-.085-.11m-.473.012c.026.1.085.136.157.205l-.169-.072c.036.051.149.172.181.06l.062.012.036-.036a.24.24 0 0 0-.267-.169m-1.804-.191c-.036.017-.008.075.025.055s.009-.073-.025-.055m6.317-.071c-.306.049-.125.515 0 .622.175-.084.38-.66 0-.622m1.054.641a.92.92 0 0 0 .169-.367c.009-.143-.118-.319-.277-.258-.219.086-.095.35-.008.476.024.036.058.168.116.149m-.58-.615c-.241.057-.13.347-.05.478.02.033.049.154.098.147.163-.11.339-.699-.048-.625m-1.008-.071c-.201.077-.132.33-.065.464.032.165.074.256.178.061.189-.162.247-.589-.113-.525m1.86.307a.95.95 0 0 0 .263.34 1.1 1.1 0 0 0 .126-.426c-.063-.333-.491-.228-.389.086m-5.754-.207.048-.109c-.09-.024-.152.073-.048.109m6.604.207c.188-.433-.5-.527-.345-.062a.89.89 0 0 0 .268.292 1.8 1.8 0 0 0 .077-.23m-7.976-.389a.253.253 0 0 0 .134.134.25.25 0 0 0-.134-.134m5.047.17c0-.11-.158-.255-.269-.17l.016-.024h-.231v.012c-.025-.085-.172-.178-.253-.11l.011-.031-.303-.11v.037c-.06-.118-.251-.083-.299.038.085-.22-.273-.396-.44-.302-.072.026-.133.16-.018.16a.44.44 0 0 0-.049.282v.077h.024v-.011a.16.16 0 0 0 .05.06l-.289-.133-.11-.11h-.02c.202-.017.516-.405.22-.525h-.01c-.05-.087-.22-.152-.305-.185a.7.7 0 0 0-.019.073c0-.098-.064-.185-.17-.158l.018-.011c-.11-.096-.288-.346-.439-.255h.015a.165.165 0 0 0-.076.018l.008-.005c-.055-.011-.089.04-.11.084h.007a.445.445 0 0 0-.092.393c-.058-.023-.093-.076-.17-.06-.02.278-.33.529-.291.825.096-.059.33-.203.394-.041.045.11-.028.23.031.344.362-.194.522-.355.558.182.072-.024.181-.055.206-.133.083 0 .159-.11.241-.05s.042.268.148.29c.151.031.257-.272.4-.266s.071.259.183.287.181-.186.291-.208a.343.343 0 0 1 .292.154.68.68 0 0 0 .22-.05.19.19 0 0 0-.11-.073h.021c.046-.118.192-.174.219-.313v.01l.097.048.007-.01a.45.45 0 0 0 .032.241c.018.045 0 .24.092.193.116-.136.274-.274.272-.464m3.18-.284c-.33.082.006.536.165.579.11-.142.153-.641-.165-.579m.708.241c.04-.145-.006-.409-.211-.393-.443.013.198.873.211.393m-9.068-.32.061-.038-.085-.06Zm-.424-.243a.44.44 0 0 0 .242.267c.006-.105-.144-.248-.242-.267m9.706-.018c-.293.094 0 .514.191.5.141-.131.064-.559-.191-.5m-7.777-.006c-.165.045-.232.219-.343.337a.92.92 0 0 0-.355.426c.007.079.22.166.176.024a.322.322 0 0 0 .281-.303c.066-.127.293-.328.241-.484m9.595.387a1.25 1.25 0 0 0-.374-.439c-.034.025-.089.069-.012.084 0 .208.271.716.522.607l-.061-.06c.017-.077-.032-.127-.075-.192m-4.73-.286c.024-.032.011-.11.013-.15-.128-.025-.289-.056-.226.13a.186.186 0 0 0 .213.02m.691-.008c.093-.254-.276-.22-.412-.142-.062.225.3.268.412.142m-1.275-.171c-.11-.087-.276-.074-.24.109.096.097.293.054.24-.109m1.736-.087c-.065.008-.17 0-.219.044-.194.195.267.244.349.129s-.033-.19-.13-.173m2.221-.048c-.284.034-.068.516.168.463.164-.102.053-.489-.168-.463m-4.554.116c.089-.12-.165-.177-.226-.125a.43.43 0 0 0-.036.136c.088.05.223.124.262-.011m2.759-.162a.11.11 0 0 0-.042.185.303.303 0 0 0 .306-.063c.027-.047-.012-.104-.009-.155a.87.87 0 0 0-.255.033m-3.883.187v.012l.073.05a.404.404 0 0 1 .11-.231c-.171-.27-.138.134-.183.169m.518-.119c.146-.138-.062-.235-.19-.235-.007.045-.058.117-.045.156.018.059.186.118.235.079m-3.953.051c-.154.085-.225.078-.243.272-.029.058-.134.142-.129.207.009.102.22.155.204 0 .179 0 .23-.168.322-.291.115-.156.281-.253.308-.462-.217-.058-.323.164-.462.274m9.502-.302c-.236.078.007.474.22.413.162-.113-.008-.482-.22-.413m-5.861.016-.073-.024-.036.024.048.098h.012Zm4.307.175c.055-.008.164-.028.194-.08.049-.162-.207-.165-.278-.075a.102.102 0 0 0 .084.155m2.664-.079c-.035-.039-.264-.3-.279-.12a4.47 4.47 0 0 0 .733 1.044l.207-.134a2.9 2.9 0 0 0-.661-.79m-11.637-.205-.013.049-.109-.012c-.005.227.262.062.122-.037m4.256-.117c-.188.07.015.319.151.256.178-.083-.026-.302-.151-.256m6.953.154c-.006-.246-.417-.322-.339-.012.039.178.373.274.339.012m-1.581-.22c-.143 0-.276.149-.11.227.152.002.288-.151.11-.227m-10.046-.072a.166.166 0 0 0 .098.121.168.168 0 0 0-.098-.121m3.882-.108a.11.11 0 0 0-.084.096l.134-.024Zm9.173.725a2.6 2.6 0 0 0-.606-.568c-.06-.04-.25-.236-.311-.131.038.369.486.676.698.989l.026-.012c.071.22.329.029.329-.11-.013-.058-.096-.116-.136-.168m-8.773-.491c.044-.016.073-.083.11-.11-.09-.148-.255-.244-.363-.048.035.063.167.189.253.158m-3.991-.138.036-.012c-.094-.289-.282-.017-.024.061Zm11.454-.197c-.191.074.023.392.193.322s-.035-.384-.193-.322m-7.813-.009-.025.098.085-.012Zm6.612.202c.269-.124-.082-.315-.17-.08l.06.11a.32.32 0 0 0 .11-.03m-10.956-.214a.358.358 0 0 0 .206.303.299.299 0 0 0-.206-.303m1.553-.012c-.26.073-.285.266-.599.28-.097.261-.079.257.185.202.124-.171.27-.315.414-.482m-1.383-.012.122.146c-.012-.067-.048-.148-.122-.146m3.245.146c.023-.11-.219-.275-.31-.305-.048-.015-.109.044-.12-.023h-.025v.009a.116.116 0 0 0-.027-.11l.033.014c-.012-.211-.29-.349-.44-.461-.054-.148-.13-.423-.341-.446s-.27.189-.386.324c-.254.313-.675.501-.925.79-.029.092.203.22.28.227s.077-.076.137-.109c.32-.149.579-.429.895-.556-.028.063-.037.172.048.19a.084.084 0 0 0-.037.027l.085.012v.024c-.311.198-.529.55-.825.77-.044.083.121.212.169.269.022.027.046.064.086.055a6.34 6.34 0 0 0 .879-.811l.007.023a.355.355 0 0 0 .267-.074c.134.093-.058.256-.132.34a6.6 6.6 0 0 0-.55.659c-.06.09-.183.11-.109.243.04.078.152.171.249.121a1.55 1.55 0 0 1 .395-.39c.2-.296.541-.507.697-.812m8.899-.34-.072.073c.059.01.086-.014.072-.073m-8.553-.025-.025.158c.118-.011.131-.108.025-.158m.413.037c-.26-.204-.267.301.007.246.157-.057.077-.181-.007-.246m8.524.185c.16-.063-.04-.321-.169-.273-.161.06.036.327.169.273m-8.804-.246-.024-.037.012.037Zm7.434.016c-.117.22.412.127.137-.089a.374.374 0 0 0-.137.089m-11.304-.113a.29.29 0 0 0 .121.194.28.28 0 0 0-.121-.194m-.364-.195a.425.425 0 0 0 .157.268c-.008-.088-.065-.241-.157-.268m13.007-.031a.184.184 0 0 0-.122.146c.103-.008.121-.055.122-.146m-11.779.341c.116-.102.279-.194.329-.358l-.109.036.024-.06a1.27 1.27 0 0 0-.389.178c-.149.076-.406.155-.291.368-.196-.245-.317.099-.049.195l.036-.037-.012-.049.05.012.012-.012-.015-.065c.202.065.289-.096.414-.208m-.549-.006.025-.157V16.6c-.119-.009-.182-.093-.267-.158l.097.231-.049-.012c-.011.151.08.123.194.157m3.252-.116c.301.15.269-.219.025-.272-.051 0-.109.062-.158.076a.308.308 0 0 0 .133.196m8.36-.203a.2.2 0 0 0 .048-.069c-.256-.113-.232.203-.048.069m1.092.178c.18-.044 0-.317-.146-.288-.199.041-.005.324.146.288m-9.597-.295.024.024v-.024Zm11.999-.192c-.029.016 0 .06.026.044a.025.025 0 0 0-.026-.044m-15.021-.037c-.046 0-.06-.054-.121-.048a.164.164 0 0 0-.134.255h.05c.083-.082.159-.088.205-.207m2.823.182c.053 0 .102-.071.145-.1-.145-.479-.613-.101-.145.1m10.195-.026c.166-.136-.102-.419-.278-.342-.239.144.083.455.278.342m-1.128-.219a.169.169 0 0 0 .122-.133c-.099-.012-.164.028-.122.133m1.153-.539c-.459.236.475.633.299.176a.281.281 0 0 0-.299-.176m-13.596.26c-.068-.157-.047-.248-.247-.279l-.012.085c-.136-.047-.14.047-.146.146l-.073.012-.06-.062.06.17h.024l.013-.085h.012l.012.048.036-.012-.012-.048.158.206c-.014-.058-.055-.109-.012-.158l.048.097.061.037.036-.025h.012l.134.158-.012-.096c.042-.04-.012-.147-.032-.194m2.981.067c.053 0 .109-.068.157-.091-.132-.36-.191-.245-.364-.207.012.086.094.308.207.298m-3.726-.467a.292.292 0 0 0 .097.206.236.236 0 0 0-.097-.206m13.603-.036c-.116.022-.187.268-.013.246.132-.018.181-.278.013-.246m1.818-.074c-.056-.017-.146-.079-.194-.024l-.036-.012c0 .046.012.07.06.073.115.178.578.478.753.267l-.085-.025c-.05-.149-.359-.235-.498-.279m-.837-.162a.156.156 0 0 0-.063.258c.11.167.523.121.354-.132a.289.289 0 0 0-.291-.126m-13.686.106c.054-.046.11-.057.145-.125-.156.044-.432 0-.516.159.031.253.267.112.371-.034m2.475-.218c-.046-.014-.117.041-.169.045-.002.504.588.278.169-.045m-3.445.348h.017a.846.846 0 0 0-.17-.45.895.895 0 0 0 .153.45m13.974-.506c-.13.044-.136.307.022.247.122-.046.149-.303-.022-.247m-14.108-.04-.037-.098.025.098Zm14.997-.113c-.229.135.078.396.253.3.214-.127-.092-.378-.253-.3m.91.09c-.15-.019-.313-.145-.453-.104-.104.099.167.19.22.22a2.13 2.13 0 0 0 .929.383c.057-.027.074-.136.089-.189a2.54 2.54 0 0 0-.785-.31M6.335 14.78c.048.076.204.099.248 0a.323.323 0 0 0-.138-.278c-.053-.013-.11.031-.17.028a.352.352 0 0 0 .06.25m-2.476-.275c-.124-.042-.303.095-.132.178.087.015.244-.165.132-.178m2.282-.089.062.061c-.009-.041-.02-.054-.062-.061m11.372-.059c-.118.053-.071.265.054.201.098-.053.085-.262-.054-.201m-11.189-.014-.085.085h.073Zm12.028-.058c-.205.12.062.342.219.258.2-.092-.074-.321-.219-.258m-.029-.306h-.024l-.049.133c.136.084.129-.042.073-.133m-11.983.25c.048-.096-.069-.287-.174-.268-.193 0-.102.32.019.329.036.001.14-.029.155-.061m12.331-.222c.086-.044-.063-.133-.126-.104-.09.042.06.137.126.104m-15.83-.138a2.69 2.69 0 0 0 .195.838h.012a4.1 4.1 0 0 0-.207-.838m.814-.278-.231-.025c.01.129.162.086.231.025m-.814-.11-.024-.012v.037l.024-.012Zm1.554 2.322c.027.026.05.069.089.076a5.35 5.35 0 0 0 1.05-.477c-.035.058.054.081.101.086v.006c.173.069-.068.186-.139.234-.255.183-.543.344-.797.511-.057.07.042.206.014.297.182.124.347-.015.497-.123.317-.258 1.086-.514 1.13-.713.049-.173-.235-.33-.3-.45-.055-.256-.138-.591-.455-.618v-.012c.33-.11.051-.598-.229-.51a.401.401 0 0 0-.061-.667.4.4 0 0 1-.058.066c.067-.08.047-.197-.091-.198a.093.093 0 0 0 .064-.063h-.046c.036-.036.11-.058.133-.101-.012-.137-.118-.295-.29-.219-.367.086-.082.204.085.282v.012l-.17.11.036.024.023-.005a.116.116 0 0 0-.039.177l-.033-.015c-.336.301-.879.244-1.243.466-.048.052-.022.191-.042.263-.083-.088-.139-.388-.279-.377l-.037-.036-.012.061-.11-.129c-.136.048-.057.308-.036.425l-.024-.025h-.018l-.024.025c-.015-.074-.059-.253-.121-.291a2.25 2.25 0 0 0 .206.775h.017a.163.163 0 0 1 .074-.145l.048.085.025-.024h.012l.072.036.024-.097.049.025c.172-.133.048-.188.143-.261.541.177 1.039-.305 1.666-.165v.024l-.268.13-.959.387-.29.157-.231-.091-.17.074v.157l-.11-.061h-.016a.477.477 0 0 0 .169.462l.012-.074.048.024v-.048l.171.06.036-.072c.122.085.11-.161.231-.179.516.128 1.004-.31 1.516-.391l-.158.19-.445.269-.66.426a1.25 1.25 0 0 0 .22.235M3.12 13.53l-.024-.085.012.085Zm2.935-.061a.55.55 0 0 0-.155-.024.346.346 0 0 0 .048.243c.114-.021.282-.119.107-.219m12.633-.136c-.293.032-.139.35.096.294.306-.032.131-.331-.096-.294m-14.196-.094h-.024v.024Zm14.45-.288c-.062-.11-.203-.04-.22.058.06.067.273.067.22-.058m-4.574-.283v.012c.061.025.347.11.364 0h.048Zm7.186-.642a.273.273 0 0 0 .103-.158v-.012c.062-.237-.031-.573-.279-.62l-.034-.011h-.029a1.5 1.5 0 0 0-.219-.006h-.913l-.363.012v.012h.011v.425l-.011-.412v1.407h.011v.012h.45l-.038-.012h.05v-.012l-.012-.23v.17c-.011-.102-.02-.246.041-.292h.711l-.231-.012h-.29c.341.016.785-.124.691.388h.449l-.038-.012h.05l-.012-.304v.039a.44.44 0 0 0-.011-.075h.011l-.013-.036v.02a.22.22 0 0 0-.219-.197 1.1 1.1 0 0 1 .134-.084m-.349-.209v-.009.016a.158.158 0 0 1-.117.096h-.017v.006a3.8 3.8 0 0 1-.775-.006v-.33c.243 0 .482-.017.727-.011v.011h.074l-.06-.01c.074.006.141.021.168.084a.195.195 0 0 1 0 .153m-15.81.863c.22.015.454 0 .679 0 .094 0 .206.008.312 0h.059-.029l.067-.012h.036-.015a.376.376 0 0 0 .297-.311h.012v-.02a.8.8 0 0 0 .013-.101v-.035a.62.62 0 0 0-.013-.224v-.019h-.022a5.6 5.6 0 0 0-.889-.011H5.85v.01h-.012v.146h.012v.01h.051a4.3 4.3 0 0 0 .685 0 .044.044 0 0 1 .017.016v.17a.4.4 0 0 1-.01.055.35.35 0 0 1-.123.135.33.33 0 0 1-.057.018l-.017-.006v.009a2.3 2.3 0 0 1-.314 0h-.648c-.228-.031-.306-.21-.295-.432.018-.158-.008-.289 0-.45v-.016h.025v-.023a.34.34 0 0 1 .05-.11.29.29 0 0 1 .11-.086l.028-.008h.033-.013a.44.44 0 0 1 .067-.008h.906v.009h.06-.03a.22.22 0 0 1 .218.151v.111h.195a.55.55 0 0 0-.007-.084h.007l-.013-.061v.034a.406.406 0 0 0-.329-.306h.011l-.049-.012a8.1 8.1 0 0 0-1.091-.015v.004l-.044.007-.017-.005v.009l-.045.013a.356.356 0 0 0-.166.101.37.37 0 0 0-.075.11l.007-.015v.026l-.008.023v-.013.026l-.007.03v-.019.057l-.006.035v-.031.058a2.4 2.4 0 0 0-.012.319 1.54 1.54 0 0 0 .012.352v.022l.007.033v.028h.008v.043h.009v.036h.009a.36.36 0 0 0 .071.101.3.3 0 0 0 .063.049.48.48 0 0 0 .133.059v.008h.039l.034.007v.006Zm-.212-.29.024.024Zm.061.061.024.024Zm-.667.217-.195-.012v.012Zm.485-.109.012.013-.024-.025Zm6.516-.048-.024-.024Zm-.377-.681v-.026a.626.626 0 0 0-.017-.329l-.007-.029-.012-.044v.016a.385.385 0 0 0-.349-.232c-.286-.027-1.144.013-1.447 0v.46l-.012-.4v1.334h.012v.061a2.75 2.75 0 0 1 .38 0l.058-.007h.011v-.044l.011-.053v-.267c.138 0 .648-.011.776 0v.011h.023a.142.142 0 0 1 .087.091v.031h.008a.4.4 0 0 1 .007.088v-.063.205h.01v.011h.461l-.011-.077v-.006h.011l-.012-.207v.025a.6.6 0 0 0-.007-.061h.007l-.012-.049v.011l-.009-.027a.23.23 0 0 0-.088-.13.22.22 0 0 0-.042-.028h.006-.017l-.02-.011v-.008l-.024-.007.015-.011a.26.26 0 0 0 .093-.055.227.227 0 0 0 .086-.123h.012l-.006-.018.01-.03Zm-.533.461-.009-.011.019.021Zm.024.024.017.016Zm.048-.538a.157.157 0 0 1-.117.118h-.017v.006a3.74 3.74 0 0 1-.776-.006v-.33c.244 0 .483-.018.728-.011v.011h.072l-.058-.011c.077.007.146.03.168.101Zm.74.552h.012l-.012-.037Zm-2.475-.316.008.008-.02-.02Zm.024.024.012.013-.014-.015Zm-.012-.012.01.01-.014-.014Zm-.036-.036.012.012-.024-.024Zm-4.246.318c.17-.042.07-.259.024-.364-.126.048-.067.272-.024.364m1.989-.645-.061-.012v.012Zm8.688-.061h.036l-.036-.012Zm-10.677-.036a.714.714 0 0 0 0 .364c.07-.086.146-.322 0-.364m13.091.072h.012l-.012-.194ZM6.663 11.31l-.024-.024Zm6.698 0 .008.008-.02-.02Zm-4.422.02-.018-.02Zm8.122.809a3.7 3.7 0 0 0 .012.508v.008h.45v-.019a9.1 9.1 0 0 0 0-1.403v-.008h-.009a.97.97 0 0 0-.432 0h-.009v.008a3.4 3.4 0 0 0-.012.489h-.958v-.509h-.037a1.9 1.9 0 0 0-.424 0c.013.264-.021 1.154 0 1.401v.042h.012v.012h.449v-.376l.014-.146h.006l.235-.018h.686a.06.06 0 0 1 .017.011m2.427-.926v.037h.012Zm-1.65 0v1.455H19.5v-.096h.012l-.012-.146v-.109h-.11v-.01h-1.08v-.22h1.099v-.303H18.31v-.22a8 8 0 0 0 1.065 0h.051l.046.011v-.065a1.15 1.15 0 0 0 0-.296h-.037c-.314-.028-1.265.015-1.597-.001m-4.333.605v-.17l-.009-.056a.41.41 0 0 0-.329-.38l-.036-.012h-.028.015l-.06-.012v.007a1.5 1.5 0 0 0-.17-.007h.146l-.341-.012h-.226a4 4 0 0 0-.394 0h-.156v.011h.017l-.062.009-.039-.008v.011h.01l-.041.008-.022-.007v.011a.407.407 0 0 0-.317.348l-.011-.033v.038h.011a.7.7 0 0 0-.011.082.3.3 0 0 0-.012-.034v.607h.011v-.035c.039.68.975.439 1.447.471h.119-.066l.103-.013h.06l-.044-.008c.02 0 .039 0 .055-.011v.007h.036l-.024-.008a.44.44 0 0 0 .352-.418v.05h.011l-.009-.063a3.3 3.3 0 0 0 .014-.373m-.522-.182.013.011-.025-.023Zm-.036-.036.011.011-.023-.023Zm-.989.594.021.021Zm.036.037-.007-.008.019.02Zm1.038-.165-.006-.042v.063a.252.252 0 0 1-.167.185h-.015v.006a4.25 4.25 0 0 1-.759 0h-.006c-.22-.06-.139-.368-.133-.535.119-.33.614-.146.886-.176v.007h.031c.187.036.213.291.163.493Zm2.404-.833v-.008h-.008a.236.236 0 0 0-.134-.026c-.358.047-1.368-.033-1.585.026h-.008v.008c-.046.059-.012.278-.012.344l.558.01h.085a7.7 7.7 0 0 0 0 .978v.053h.007v.024h-.012v.012l.461.012v-.012h.012v-1.067h.073l.57-.011c0-.024 0-.063.006-.104a.9.9 0 0 0 0-.171.18.18 0 0 0-.013-.068m-11.539.684h.042l-.049-.013v.01a.3.3 0 0 0-.073-.01l.073-.012h-.044l.044-.017v.005h.037l-.026-.013a.212.212 0 0 0 .136-.122v.012h.012l-.007-.021.009-.027h.008v-.035a.41.41 0 0 0-.009-.183v-.025l-.011-.048v.032a.322.322 0 0 0-.22-.214l-.037-.012-.043-.006c-.202-.037-.806 0-1.025-.009-.073 0-.261-.034-.319.012h-.011v.008c-.042.055-.011.247-.011.307.017.2-.033.934.011 1.108v.008h.008c.133.054 1.183-.009 1.388.012v-.012h-.016.073l-.028-.007a.346.346 0 0 0 .298-.272h.009v-.034a.369.369 0 0 0-.22-.422Zm-.031.145-.028-.025Zm-.037-.607-.024-.027Zm-1.237.369v-.439c.248.005.857-.01 1.104 0v.007h.033a.158.158 0 0 1 .11.105v.182c-.065.228-.337.142-.51.151h-.736Zm1.31.529a.181.181 0 0 1-.151.141l-.022-.007v.01c-.296.01-.842 0-1.142 0v-.486c.368-.017.737-.02 1.105-.009v.009h.057a.182.182 0 0 1 .148.155Zm.687-.8-.012-.183v-.145a.255.255 0 0 0-.185 0h-.01v.009c-.056.155.012 1.183-.012 1.41v.012h.207v-.121h.012l-.012-.22v-.763Zm3.863 8.886-.049-.021Zm.305.116a8 8 0 0 1-.305-.118c.281.1-.015.239.155.329.147.054.11-.11.184-.154.045-.028.131.016.178.027-.068-.031-.142-.056-.212-.084m-5.345-9.888v.036l.012.037Zm15.324-.298c-.2.037-.19.279.024.242.197-.035.181-.282-.024-.242m-15.7-.188c-.1.031-.118.252-.097.34.12-.042.117-.234.097-.34m17.992-.264a.8.8 0 0 0-.084.022c-.077.348.386-.016.084-.022m-17.458.24h.024l.012-.097-.06.013Zm14.146.364c.292-.028.21-.287.11-.356-.188.016-.19.217-.11.356m3.559-.654c-.067.015-.036.159.032.151s.043-.168-.032-.151m-17.45.314a.153.153 0 0 0-.134-.06l.036.06Zm1.532.231c-.041-.11-.22-.16-.319-.157a10.6 10.6 0 0 1-1.189-.11v.036l.157.012-.012.037a10.1 10.1 0 0 1 1.08.42c.137.027.35-.061.283-.238m13.214-.552c-.267.071-.157.392.097.322.073-.019.271-.158.23-.252s-.256-.089-.327-.07m-13.667.12c.19.22.614.362.549-.054-.128-.203-.387-.115-.58-.094-.173-.01-.038.118.031.148m12.74-.296h-.024l-.012.037.048.024ZM3.186 9.559c-.082.027-.093.154-.096.231.096-.026.089-.139.096-.231m14.434-.033-.049-.084.012.06.025.024Zm.951.162a.57.57 0 0 0 .22-.284c-.196-.078-.618-.102-.549.22.04.12.228.117.329.064m2.498-.533c-.103.038-.031.292.079.264s.028-.299-.079-.264M5.578 9.43c-.122-.152-.416-.118-.563-.054-.008.094.33.397.459.341a.179.179 0 0 0 .104-.287m11.871-.146c-.012-.187-.119-.161-.219-.049v.012c.086.099.109.053.219.037m3.905-.13c-.146.228.484.071.136-.077-.041.069-.094.026-.136.077m.375.008c.056-.031 0-.118-.053-.084s.004.111.053.084M3.594 9.151l-.012-.098-.074.22a.149.149 0 0 0 .118-.134Zm1.929-.134c.016.052.046.059.097.06-.016-.049-.047-.057-.097-.06M3.387 8.93c-.101-.046-.14.244-.145.317.081-.017.219-.237.145-.317m3.29-.171c-.056.014-.083.11-.098.161l.012.012c.2.005.232-.155.086-.173m13.316.052c.074-.053-.051-.292-.135-.231-.044.032.063.284.135.231m-2.968.025c.05 0 .086-.06.133-.074a.233.233 0 0 0-.133-.194c-.025.05-.171.275 0 .268m-11.32-.344c-.185.072.057.306.192.249.171-.072-.058-.303-.192-.249m14.717.149a.3.3 0 0 0-.029-.097c-.104-.303-.218.13.029.097m.825-.097c.028.013.064.04.096.034s.173-.121.167-.155c-.016-.085-.121-.032-.117.035l-.134-.048-.012.072c-.322-.156-.069.356 0 .062M3.57 8.351a.76.76 0 0 0-.11.315c.096-.044.207-.231.11-.315m.643-.014-.024.061h.012Zm2.944-.06c-.11-.192-.286.049-.283.179a.169.169 0 1 0 .283-.179m10.645-.02c.059-.022.064-.115-.011-.092s-.066.12.011.092m2.957.313c.12-.064-.042-.394-.139-.412-.085.037.057.412.139.412m-4.172-.307a.34.34 0 0 0 .05.086c.396-.103-.086-.407-.05-.086m-12.302.074a3.225 3.225 0 0 0 1.186.471c.14-.08-.145-.23-.191-.263a3.08 3.08 0 0 0-.885-.463Zm1.663-.308c-.22.051.011.361.181.322a.138.138 0 0 0 .074-.22.241.241 0 0 0-.255-.102m-1.857.333a.49.49 0 0 0 .202-.226 1.7 1.7 0 0 0-.068.189h.012a13 13 0 0 1 1.735-2.462 8.7 8.7 0 0 0-1.664 2.238.55.55 0 0 0 .038-.152c-.207.006-.238.253-.255.413m13.468-.607c-.134 0-.058.146 0 0M4.88 7.911a.736.736 0 0 0 .315.145c-.08-.125-.151-.312-.315-.338-.133.039-.138.151 0 .193m16.227.065c.109-.081-.093-.281-.163-.306 0 .068-.062.129-.056.194s.166.157.219.112m-4.851-.322c-.042.031-.058.116-.08.161.24.251.268-.246.08-.161m4.276.283a.543.543 0 0 0-.195-.356.348.348 0 0 0 .195.356M6.131 7.595c-.118.134.139.463.33.364.249-.18-.124-.47-.33-.364M18.869 7.5h.024v.024h-.024ZM4.592 7.465c-.09-.062-.173.212-.173.266.062-.01.256-.209.173-.266m12.605-.089c-.051.017-.053.101.009.08s.053-.102-.009-.08m-1.248-.057a.29.29 0 0 0-.149-.098c-.196.328.212.288.149.098m-9.167-.055a.824.824 0 0 0-.44-.128c.016.175.238.66.471.422a.211.211 0 0 0-.031-.294m13.386.017a.454.454 0 0 0-.134-.229c.029.09.035.19.134.229M4.916 6.978a.22.22 0 0 0-.133.231.315.315 0 0 0 .133-.231m11.963-.015c-.084.019-.146.19-.024.17.098-.017.145-.198.024-.17m-8.554.006c-.073.01-.257.199-.121.228.147.236.415-.099.121-.228m-1.237.255c.219-.121-.041-.423-.23-.348-.179.108.043.434.23.348m8.254-.354c-.092.018-.036.203.058.193.147-.016.055-.214-.058-.193m-6.381-.11a1.2 1.2 0 0 0-.053-.146.304.304 0 0 0-.213.11c-.092.129.295.299.266.036m-1.65-.133c-.081.047.024.208.103.169s-.029-.212-.103-.169m9.192-.028c-.098.036-.138.252 0 .2.103-.037.145-.253 0-.2m-1.637-.029a.24.24 0 0 0-.074-.016c-.012.231.301.11.074.016m-5.331-.04c.047-.301-.254-.23-.355-.061a.184.184 0 0 0 .355.061M3.837 7.597v.085a7.07 7.07 0 0 1 .752-1.056l.122-.303-.086.036v-.048c-.245.056-.314.397-.509.534.026-.203.317-.4.303-.534a3.24 3.24 0 0 0-.51.777l.11-.086c-.013.245-.284.408-.267.644Zm3.975-1.141c.08-.046-.023-.22-.101-.168s.026.211.101.168m8.303-.185c-.11.04-.156.273 0 .226.116-.035.149-.279 0-.226m-1.978.064.024-.097c-.213-.085-.217.042-.024.097m-9.788.741a6.4 6.4 0 0 0-.388.715c0 .05.044.057.069.024l.025.012.12-.145.043-.142.22-.283.073.061a.354.354 0 0 0 .133-.194l-.085.036c-.018-.119.122-.271.22-.329l-.024.121a1.19 1.19 0 0 0 .351-.461l-.146.061.122-.231c-.064-.048.067-.136.048-.207l-.363.377-.152.147a1.34 1.34 0 0 1-.266.438m9.194-.947.036-.073-.173-.036c.026.082.059.09.137.109m-3.385-.061v-.036l-.097-.012c.017.047.049.047.097.048m5.581-.086c-.11 0-.203.244-.061.247s.211-.253.061-.247m-7.632-.049c-.162.046-.023.346.121.312.169-.042.034-.357-.121-.312m4.718-.022c-.06.056.092.11.138.065s-.106-.098-.138-.065m-.435-.062-.181-.012a.091.091 0 0 0 .181.012m-.619-.012-.169.026.169.012Zm3.519-.1c-.11.029-.158.263-.012.229.113-.026.151-.267.012-.229m-9.912-.081-.049.073.073-.061Zm3.13-.015c-.174.069-.015.439.17.37s.016-.444-.17-.37m6.334.099c.103-.04.125-.274-.013-.22-.095.036-.118.269.013.22m-5.776-.347c-.319-.219-.23.578.072.417.181-.091.056-.348-.072-.417m5.29-.064c-.102.052-.086.29.046.219.089-.055.08-.284-.046-.219m-7.85.401c-.064-.028-.07-.127-.158-.127a.652.652 0 0 0-.33.307 2.58 2.58 0 0 0 1.008.716c-.073-.304-.344-.53-.424-.825.317.156.53.58.871.659.11-.02-.037-.298-.061-.347a4.86 4.86 0 0 0-.641-.873l-.33.254c.021.07.199.23.065.236m-.656-.499c-.045.007-.261.14-.198.198s.195-.146.198-.198m8.045-.067c-.09.032-.11.262.011.225s.116-.267-.011-.225m-8.033.769a6.3 6.3 0 0 1 .629-.55.46.46 0 0 0-.11.131 1.25 1.25 0 0 0 .352-.291.66.66 0 0 0-.095.048c.125-.084.133-.219-.014-.166a.835.835 0 0 0-.365.317.87.87 0 0 0-.462.44c-.109.109-.229.15-.266.317.154-.011.235-.146.331-.246m7.571-.659c.095-.033.1-.261-.023-.226-.103.029-.098.266.023.226m-2.474-.164c.02-.047.02-.079-.025-.11a.092.092 0 0 0 .025.11m-1.269.243a1.46 1.46 0 0 0-.345-.352c0 .176-.073.368 0 .533a.195.195 0 1 0 .345-.181m3.211-.388c-.099.051-.062.276.059.22.102-.055.068-.287-.059-.22m-5.894.122a2.09 2.09 0 0 0 .506.75c.05.053.234.3.31.228s-.04-.22-.077-.3a5.8 5.8 0 0 0-.512-.813l-.037-.008a.4.4 0 0 1-.041.026 8.62 8.62 0 0 1 4.725-1.494.47.47 0 0 0-.213-.034c.243-.073.068-.22-.152-.148a.37.37 0 0 1-.11-.036l.014-.072c-.241-.11-.127.089-.266.133a.65.65 0 0 0-.308.031c-.055 0-.11-.035-.162-.007a.35.35 0 0 0-.078.036l.074.036-.062.11v.012l.243-.024v-.016l-.026-.016a.234.234 0 0 0 .144.01 7.9 7.9 0 0 0-4.231 1.716 1.4 1.4 0 0 0 .274-.147.066.066 0 0 0-.015.027m4.421-.143c-.058.034-.019.18.046.132.046-.038.018-.174-.046-.132m.55.144c.076-.05.035-.243-.068-.184-.083.045-.032.247.068.184m.483.038c.094-.033.083-.255-.034-.219s-.084.263.034.219m-4.645-.283c-.132 0-.226.058-.11.182a.76.76 0 0 0 .209.279l-.024-.291Zm-.582-.049a.351.351 0 0 0-.412.231.516.516 0 0 0 .412-.231m2.956.437c-.023-.119-.156-.207-.211-.316s-.099-.235-.22-.241c.092.25-.066.541.078.762.163.188.396.015.353-.205m-2.516-.734c-.075-.073-.249.064-.282.151.063.019.319-.057.282-.151m.315-.133a.24.24 0 0 0 .191-.152c-.048.004-.288.107-.191.152m9.472.091a.707.707 0 0 0-.363-.255.854.854 0 0 0 .363.255m-.412-.303V4.14l-.096-.049a.076.076 0 0 0 .096.061M10.24 5.194a.229.229 0 1 0 .447-.084 4.62 4.62 0 0 1-.432-1.019h-.025c-.036.353.063.749.01 1.103m1.386-1.128.061.013.012-.049h-.073Zm2.888.206a.364.364 0 0 0 .22-.279l-.255-.072Zm1.88-.339v-.024l-.084-.024c.018.045.035.059.084.048m.17-.061v.013l.279.157a.513.513 0 0 0-.279-.17M11.626 3.8c-.11-.102-.045.145-.024.193h.012l.024-.11.085.013c-.001-.073-.019-.108-.097-.096m2.523.012-.229-.062c-.05.23.139.236.229.062m-4.051-.098.06.012h.012l.036-.048Zm3.308-.024h.097c-.033-.031-.059-.033-.097 0m-6.732.101c.064-.021.049-.141-.023-.125s-.058.152.023.125m9.865-.101-.091-.057h-.005c.01.058.04.063.096.057m-8.917 0 .122-.048-.122.036Zm8.65.012-.193-.084v.012l.193.084Zm-5.095 1.185c.151-.179 0-1.021.024-1.342-.243-.008-.44-.036-.32.279a6 6 0 0 0 .13.659c.026.094-.007.435.166.404m.389-1.152a.263.263 0 0 0 .181-.205l-.243-.012Zm1.091-.238v.012a.58.58 0 0 0 .425.036.57.57 0 0 0-.154-.051c.236-.092-.073-.173-.173-.168a.102.102 0 0 0 .055.154.5.5 0 0 0-.153.017m-2.596 0 .097-.026a.078.078 0 0 0-.097.026m1.977 0h.352c-.054-.088-.261-.05-.352-.05v.012h-.157v.012l.157.014Zm4.029.096-.643-.279v.012a2.38 2.38 0 0 0 .643.279ZM8.86 3.447c.11 0 .344-.049.4-.157-.1.012-.359.052-.4.157m3.53-.06c-.046-.133-.345-.173-.279.036a.48.48 0 0 0 .279-.036M9.539 3.23l.22-.062a.262.262 0 0 0-.22.062m-2.342.085c.1-.012.075-.181-.024-.162a.082.082 0 0 0 .024.162m6.234-.239c-.206 0-.084.165-.094.282a.66.66 0 0 0 .11.038c-.129-.013-.165.151-.026.175a1.5 1.5 0 0 0-.156-.006c.09.098.323.103.449.11v-.011l.11.023h-.036v.015c.368.019.7.277 1.056.279a.32.32 0 0 0-.079-.065.095.095 0 0 0 .052-.18.186.186 0 0 0 .184-.131c.196.032-.019.266.22.283-.131-.023-.287.031-.137.157a.55.55 0 0 0-.103-.015.235.235 0 0 0 .087.09.3.3 0 0 0-.039 0 3.1 3.1 0 0 0-.064.538c.051.053.133-.082.158-.11.046-.067.234-.246.168-.329a1.8 1.8 0 0 1 .391.171c-.103-.056-.136.03-.143.11-.093.43.212.22.33-.012l-.045-.03c.115.062.229.124.341.189-.121-.027-.11.22-.11.28h.037a.368.368 0 0 0-.183.451c.29 0 .237.245.317.424.066.068.171-.009.253-.011.144 0 .156.168.146.278a.451.451 0 0 0 .518-.136c.05-.075.043-.213.14-.243.036-.146-.147-.235-.182-.364l-.017.007a.056.056 0 0 0 .011-.067l.261.169a1.32 1.32 0 0 0-.209-.231 1.2 1.2 0 0 1 .089-.144l.069.036.012-.013c-.052-.157.119-.062.183-.019.193.129.376.279.569.407l-.254-.268-.616-.501a.55.55 0 0 0 .082.03c-.02.076.17.133.119.021a.56.56 0 0 0 .22.11l-.195-.182a1.033 1.033 0 0 0-.439-.318.084.084 0 0 1-.036-.05v-.041a1.13 1.13 0 0 1-.186-.042.81.81 0 0 0-.33-.204 1.2 1.2 0 0 0-.125-.071l-.011-.01-.081-.041a10.7 10.7 0 0 0-1.068-.486.11.11 0 0 0-.032-.013 1.5 1.5 0 0 0-.183-.058 1.4 1.4 0 0 0-.357-.092l-.028-.009a.088.088 0 0 0-.087-.024l-.023-.003-.075-.018c-.128-.035-.26-.057-.385-.102a.295.295 0 0 0-.22-.036c-.057-.025-.487-.124-.328.013m-.676-.077c-.154.021-.033.371.157.315.049 0 .083.009.11-.036l-.038-.036a.255.255 0 0 0 .159-.146.58.58 0 0 0-.19-.097.7.7 0 0 1 .093.012l.024-.061-.33-.024a.12.12 0 0 0 .06.048c-.022-.002-.042.004-.045.025m1.189.024.012-.024-.012-.049-.05.013V2.95h.026c-.089-.028-.038.054.024.073m-3.228-.057-.024-.012-.11.048v.012c.062.029.118.023.134-.048M8.908 2.95h-.073v.013l.049.012Zm3.397-.036v.012h.085Zm-.169 0v.012l.073-.012Zm2.523.012v-.024l-.097-.012a.082.082 0 0 0 .097.036m-3.239.012c-.04-.037-.22-.09-.22.015-.004.145.181.04.22-.015m3.094-.048v-.013a1 1 0 0 0-.401-.11c.063.089.297.122.401.123m-5.703-.303-.02-.05h-.11l-.06.05v.012c.085.046.111.071.19-.012m3.883-.026c.013-.089-.137-.044-.17-.024.027.034.157.118.17.024m.645-.035a.09.09 0 0 0 .034-.024.147.147 0 0 0-.146 0 .143.143 0 0 0 .112.024m-2.021.011c-.026-.04-.05-.045-.097-.036v.036l.061.024Zm.66.02a.14.14 0 0 0 .048-.02c-.055-.179-.236.05-.048.02m3.273.597.024.014-.013-.06h-.012l-.043-.016a.796.796 0 0 0-.539-.156.98.98 0 0 0 .456.173ZM7.973 19.961c.228.116.46.219.69.329l-.109-.059a1.1 1.1 0 0 0 .152.041c0-.104.08-.149.085-.243.008-.154-.19-.312-.33-.203-.071.053-.067.191-.128.251a.19.19 0 0 0 .06.071 6.6 6.6 0 0 0-.364-.168v-.011l.061.024.135-.267-.026-.097a.3.3 0 0 0-.027-.024c-.022-.05-.099-.067-.159-.067a.15.15 0 0 0-.056 0 .098.098 0 0 0-.083.078c-.029.07-.013.158-.1.189a.56.56 0 0 0 .243.153Zm1.917.917.028.022v-.022Zm-.797-8.559a.6.6 0 0 0 0-.062v-.007a.4.4 0 0 0-.01-.051.32.32 0 0 0-.128-.187.4.4 0 0 0-.041-.033v-.011l-.036-.011.024-.013h-.024a.33.33 0 0 0 .089-.069.19.19 0 0 0 .035-.049.3.3 0 0 0 .025-.052h.008v-.011a.33.33 0 0 0 .013-.05v-.018a.42.42 0 0 0-.013-.165l-.012-.038v.008a.362.362 0 0 0-.258-.233 8.1 8.1 0 0 0-1.598-.016v.012h.012c0 .018-.008.037-.011.056v.009c0 .417-.022.842 0 1.261v.056h.007v.024h-.014l.534.012H8.75v.008l.041-.008h.032-.016a.341.341 0 0 0 .281-.274v-.008a.44.44 0 0 0 .005-.08m-1.459-.517v-.2c.251 0 .502-.029.752-.009v.009h.075a.11.11 0 0 1 .09.059v.012h.006a.13.13 0 0 1 0 .068v-.008.015c-.044.121-.802.033-.922.058Zm.969.44a.086.086 0 0 1-.064.073h-.007c-.11.022-.77 0-.898.008v-.205c.11 0 .794-.011.885.008h.013a.09.09 0 0 1 .071.119ZM21.685 7.67h.012l-.025-.049Zm-.074-.17h.012l-.024-.048Zm-.036-.085h.012l-.037-.072Zm.17.4h.012l-.024-.048Zm.538 1.964c.037-.025.007-.098-.037-.071s-.002.1.037.071m-.574-2.048h.012l-.024-.049Zm-.207-.474h.012l-.024-.048ZM5.244 12.451l.024.024Zm-.061-.061.024.024Zm4.513 8.481h.037l-.037-.012Z"/></svg>