<svg xmlns="http://www.w3.org/2000/svg" viewBox="0 0 24 24"><path fill="#44739e" d="M1 14.396h2.38a3.28 3.28 0 0 0 1.588-.229c.755-.401 1.22-1.908.095-2.176a1.173 1.173 0 0 0 .534-.36 1.483 1.483 0 0 0-.173-1.746 1.606 1.606 0 0 0-.89-.278c-.649-.063-1.32-.02-1.971-.02h-.924s-.047.275-.058.36c-.04.304-.092.608-.128.913-.141 1.181-.305 2.357-.453 3.536m5.602-4.809-.168 1.32h1.65l-1.294.668-.473.279-.11.736-.213 1.804h1.64l.047-.338.124-.914.283-2.236.18-1.32H6.602m1.515 4.81H9.61l.312-2.5.33.576.681 1.275.348.649h1.499c.203-1.608.385-3.202.601-4.809H11.89l-.314 2.53a16.7 16.7 0 0 1-.907-1.707c-.11-.22-.387-.815-.387-.815H8.733s-.051.387-.067.524m9.57 1.515h-2.09a6.8 6.8 0 0 0 .351.673c.053.093.184.282.184.282a2.64 2.64 0 0 1-.27.335.977.977 0 0 1-1.362-.376 1.113 1.113 0 0 1 .55-1.552 2.67 2.67 0 0 1 .99-.084h1.76l.168-1.32h-2.089a4.62 4.62 0 0 0-1.321.089 2.497 2.497 0 0 0-1.031 4.046 2.75 2.75 0 0 0 2.21.675h1.606l.11-.744c.095-.67.134-1.354.257-2.02m.097 2.766h4.054l.063-.359.11-.938-2.549-.024.048-.433h2.116l.168-1.32h-2.131l.048-.409 2.573-.036L23 9.611l-2.981-.024H18.95l-.044.36-.118.913-.452 3.535M2.875 11.462c.021-.135.131-.694.131-.694h.279c.245 0 .602-.047.802.131a.32.32 0 0 1-.202.556 2.4 2.4 0 0 1-.385.011h-.625m-.225 1.799c.025-.16.11-.806.11-.806h.44a1.477 1.477 0 0 1 .814.119c.376.23.073.618-.22.674a2.3 2.3 0 0 1-.433.019Z"/></svg>