<svg xmlns="http://www.w3.org/2000/svg" fill="#44739e" viewBox="0 0 24 24"><path d="M4.46 2.032h15.07v.02h.078v.019h.078v.02h.078v.019h.058v.02h.059v.019l.117.02v.019h.039v.02l.1.019v.02l.117.039v.019h.039v.02l.117.039.02.039.078.02v.019l.058.02.02.039h.039v.019l.058.02.02.039h.039l.039.058h.039l.078.1h.039l.176.2.117.1v.039l.1.078.019.058.039.02v.039l.039.019.02.059h.019v.039l.039.02v.039l.039.019.02.078.039.02.039.117h.019v.039h.02l.039.117h.019v.059h.02l.019.078h.02l.156.566v.117a3.48 3.48 0 0 1 .039.839v12.913a3.18 3.18 0 0 1-.019.723v.156h-.02v.117h-.019v.1h-.02v.1h-.019l-.02.137h-.019v.058h-.02v.059h-.019l-.02.117h-.02l-.019.078h-.02v.059h-.019l-.039.117h-.02v.039h-.019l-.039.117-.039.019-.02.079-.044.016v.039l-.039.02v.041h-.019l-.02.058-.039.02v.039l-.039.019-.019.059-.1.078v.039l-.2.176-.1.117H20.9l-.078.1h-.039l-.039.059H20.7l-.039.058-.078.02-.039.059-.078.019-.02.039h-.039v.02h-.039v.019h-.038v.02h-.039v.019h-.039v.02h-.039v.019l-.117.039v.02l-.469.156-.2.019v.02l-.273.02a2.2 2.2 0 0 1-.488.019H5.4a2.54 2.54 0 0 1-.566-.019h-.159v-.02h-.117v-.03h-.1v-.019h-.1l-.469-.156v-.02l-.117-.039v-.016h-.034v-.02H3.7v-.019h-.04v-.02h-.039v-.019h-.039v-.02h-.039l-.02-.039-.078-.019-.019-.039h-.039l-.02-.04h-.039l-.039-.058H3.25l-.039-.057h-.039l-.078-.1h-.039l-.176-.2-.117-.1v-.039l-.1-.078v-.039l-.058-.039v-.039l-.059-.039-.019-.078-.039-.02-.02-.058H2.45l-.02-.071-.039-.019-.039-.117h-.019v-.039h-.02l-.039-.117h-.019l-.02-.1h-.019v-.039H2.2v-.059h-.02v-.058h-.023V19.8h-.02v-.058h-.019L2.1 19.6h-.021v-.1A4.17 4.17 0 0 1 2 18.39V5.721a4.57 4.57 0 0 1 .157-1.581l.043-.175h.02l.019-.078h.02v-.059h.019l.039-.117h.02v-.039h.019l.039-.117.039-.02.02-.078.039-.019V3.4l.039-.02v-.04h.019l.02-.059.039-.019v-.039l.039-.02.019-.058.1-.078v-.039l.117-.1.176-.2H3.1l.078-.1h.039l.039-.058h.039l.02-.039.058-.02V2.5h.039l.02-.039.058-.02v-.018l.078-.02.02-.039.112-.039v-.02h.039v-.019l.117-.039v-.02l.1-.019v-.02h.039v-.019l.176-.039v-.02h.058v-.019H4.3v-.02c.063-.021.113 0 .156-.039M6.1 4.3v.019l-.117.02v.019h-.039v.02h-.039l-.02.039h-.039l-.078.1-.039.02v.033l-.039.019v.039l-.039.02v.058h-.019a1.31 1.31 0 0 0-.04.449v6.891a4.4 4.4 0 0 0 .04 1.015l.039.41h.019l.02.176h.019v.078h.02l.019.136h.02v.059h.019V14h.02l.019.117h.02v.039h.019v.059h.02v.058h.019v.039h.02v.059h.019v.039h.02v.058H6l.02.078h.019v.054h.02l.039.117h.02v.039h.019v.044h.02v.039h.019v.039H6.2v.039h.019v.039h.02v.039h.019v.039h.02v.04H6.3v.039h.02v.039l.039.019.039.117h.019l.02.059.039.019.019.078h.02l.019.059.039.019v.04h.02l.02.058.039.02v.039l.039.019.019.059.059.039v.039l.039.019.019.059.078.058v.039l.059.039.019.059.118.1v.039l.136.117v.036l.312.293a5 5 0 0 0 .586.546l.117.137h.039v.019l.059.039.039.059h.039l.078.1h.034l.059.078h.039l.058.078h.039l.059.078h.039l.039.058h.039l.058.078h.039l.02.039h.039l.02.04.058.019.039.059h.039v.019l.059.02.018.041h.04l.039.058h.039l.02.039.058.02v.019h.039l.02.039h.039l.02.039h.039l.019.039.078.02.02.039h.039l.019.039.059.02v.019l.078.02v.019l.058.02.02.039h.039v.012h.039l.02.039.078.02.019.039.078.019.02.039.117.039.019.039h.039v.02h.04l.019.046.117.039.02.039.078.02v.019h.039v.02h.039l.019.039h.039v.019h.039v.02H11v.019h.04l.019.039h.041v.02h.039v.019h.039v.02h.039v.019h.039v.02h.039v.019h.039v.02h.039v.019h.039v.02h.039v.019l.118.04v.019h.058v.02h.039v.019l.078.02v.014h.056v.02h.058v.019h.274v-.019h.058v-.02h.059v-.019l.078-.02v-.019h.039v-.02h.058V19.5h.039v-.02l.079-.02v-.019h.039v-.02h.039v-.019h.039v-.02h.041v-.019h.039v-.02h.039v-.019h.039v-.02h.039v-.019h.039v-.02h.039l.019-.039h.04v-.016h.039v-.02h.039v-.019h.039l.019-.039h.039v-.02h.039v-.019h.039v-.02h.039l.02-.039.115-.034.019-.039.079-.02.019-.039.117-.039.02-.039.078-.019.019-.039.078-.02.02-.039.078-.019v-.02l.059-.019.019-.039.078-.02.02-.039h.039l.019-.039h.039l.02-.039.078-.02.019-.039h.039l.02-.039h.039l.02-.039h.039v-.019l.058-.02.02-.039h.039l.039-.058h.039v-.02l.058-.019.02-.039h.039l.019-.039.059-.02.039-.063h.039l.038-.059h.039l.039-.059h.039l.039-.058h.044l.059-.078h.039l.019-.039h.02l.019-.039h.039l.059-.078h.039l.039-.059h.02l.019-.039h.039l.1-.117a6 6 0 0 0 .7-.644l.351-.332v-.039l.137-.117V16.2l.117-.1.019-.059.059-.039v-.039l.078-.058.019-.059.039-.019v-.039l.059-.039.012-.049.039-.019v-.039l.04-.02v-.039l.039-.019v-.04l.039-.019v-.039l.039-.02.019-.078.039-.019.02-.059h.026l.039-.117.039-.019v-.039h.02v-.039h.019v-.04h.02v-.039h.019v-.039h.02v-.039h.019v-.039h.02v-.039h.019V14.8h.02v-.039h.02v-.041h.019l.02-.078h.019V14.6h.02v-.059h.019l.02-.078h.019v-.058h.02v-.039h.019v-.056h.02v-.039h.019l.02-.117h.019v-.039h.02l.039-.2h.014v-.059h.02l.019-.136h.02l.019-.176a5.35 5.35 0 0 0 .118-1.5v-7.2h-.02v-.079h-.019l-.02-.117-.039-.02v-.039l-.039-.019v-.039l-.078-.059-.039-.058a1.994 1.994 0 0 0-1.013-.114ZM12 5.936h4.7a2.56 2.56 0 0 1 .02.644v6.208c-.04.048 0 .141-.02.214h-.02v.137h-.02v.1h-.019v.078h-.02v.078H16.6v.058h-.02v.078h-.019v.039h-.02l-.019.118H16.5v.039h-.019v.058h-.02l-.019.078h-.02v.059h-.019l-.04.117h-.019l-.02.078-.039.02-.039.117-.039.019-.019.078-.039.02-.02.078-.039.019v.039l-.039.02v.039L16 14.6v.039l-.039.02v.041l-.059.039v.039l-.059.039v.039l-.078.058v.039l-.1.078v.04l-.137.117v.039l-.215.2a3.6 3.6 0 0 1-.429.41l-.137.156h-.039l-.1.117h-.039l-.078.1h-.039l-.079.1h-.039l-.058.078h-.036l-.039.059h-.039l-.039.058h-.039l-.059.079h-.039l-.019.039h-.04l-.019.039-.059.019-.039.059h-.039l-.019.039h-.039l-.039.058h-.039v.02l-.059.019-.019.039h-.039l-.039.059h-.04L13.42 17l-.059.019v.02h-.039l-.019.039h-.039l-.02.039h-.039l-.019.039-.078.02-.02.039h-.039l-.019.039h-.039l-.02.039-.078.019v.02l-.059.019-.019.039-.078.02-.02.039-.078.019-.019.039-.117.04-.02.039-.483.257Z"/></svg>