<svg xmlns="http://www.w3.org/2000/svg" viewBox="0 0 24 24"><path fill="#44739e" d="M3.718 1.04H20.28v.022h.085v.021h.086v.022h.086v.021h.064v.022h.064v.021l.129.022v.021h.043v.022l.11.021v.022l.128.043v.02h.043v.022l.129.043.022.043.086.022v.021l.063.022.022.043h.043v.021l.064.022.022.043h.043l.043.063h.042l.086.11h.043l.193.22.129.11v.043l.11.085.021.064.043.022v.043l.043.021.022.065h.02v.043l.043.022v.042l.043.021.022.086.043.022.043.129h.021v.043h.022l.043.128h.02v.065h.022l.021.086h.022l.172.622v.128a3.82 3.82 0 0 1 .043.922v14.192a3.5 3.5 0 0 1-.021.794v.172h-.022v.128h-.021v.11h-.022v.11h-.021l-.022.151h-.021v.063h-.022v.065h-.021l-.022.129h-.022l-.021.085h-.022v.065h-.02l-.043.129h-.022v.043h-.021l-.043.128-.043.021-.022.087-.048.018v.042l-.043.022v.046h-.021l-.022.063-.043.022v.043l-.043.021-.021.065-.109.086v.042l-.22.194-.11.128h-.028l-.085.11h-.043l-.043.065h-.048l-.043.064-.086.022-.043.065-.086.021-.022.042h-.042v.022h-.043v.021h-.042v.022h-.043v.021h-.043v.022h-.043v.021l-.128.043v.022l-.516.171-.219.021v.022l-.3.022a2.42 2.42 0 0 1-.537.021H4.751a2.8 2.8 0 0 1-.622-.021h-.175v-.022h-.128v-.033h-.11v-.021h-.11l-.516-.171v-.022l-.128-.043V22.6h-.038v-.022h-.041v-.02h-.044v-.022h-.043v-.021h-.043v-.022H2.71l-.022-.043-.086-.021-.02-.043h-.043l-.022-.044h-.043l-.043-.064h-.043l-.043-.062h-.043l-.085-.11h-.043l-.194-.22-.128-.11v-.043l-.11-.085v-.043l-.064-.043v-.043l-.065-.043-.021-.086-.042-.021-.022-.064h-.019l-.022-.078-.043-.021-.043-.129H1.38v-.043h-.022l-.042-.128h-.021l-.022-.11h-.021v-.043h-.018v-.065h-.022v-.064h-.025v-.057h-.022v-.063h-.021l-.02-.156h-.023v-.11a4.58 4.58 0 0 1-.087-1.22V5.095a5.02 5.02 0 0 1 .173-1.738l.047-.192h.022l.021-.086h.022v-.065h.021l.043-.128h.022v-.043h.021l.042-.129.043-.022.022-.086.043-.02v-.042l.043-.022v-.044h.021l.022-.065.043-.021v-.043l.043-.022.021-.063.109-.086v-.043l.129-.11.193-.22h.043l.086-.11h.043l.043-.063h.043l.022-.043.063-.022v-.012h.043l.022-.043.064-.022v-.02l.086-.022.022-.043.123-.043V1.34h.043v-.02l.128-.043v-.022l.11-.021v-.022h.043v-.021l.193-.043v-.022h.064v-.021h.078v-.022c.069-.023.124 0 .172-.043M5.52 3.533v.021l-.128.022v.021h-.043v.022h-.043l-.022.043h-.043l-.086.109-.042.022v.037l-.043.021v.042l-.043.022v.064h-.021a1.44 1.44 0 0 0-.044.494v7.573a4.84 4.84 0 0 0 .044 1.115l.043.451h.021l.022.193h.021v.086h.022l.02.149h.022v.065h.021v.088h.022l.021.129h.022v.043h.021v.064h.022v.064h.021v.043h.022v.065h.021v.043h.022v.064h.018l.022.085h.021v.06h.022l.043.128h.022v.043h.021v.048h.022v.043h.021v.043h.026v.043h.021v.043h.022v.043h.021v.043h.022v.043h.024v.043h.022v.043l.043.021.043.129h.021l.022.065.042.02.021.086h.022l.021.065.043.021v.044h.022l.022.064.043.022v.042l.043.021.021.065.064.043v.043l.043.021.021.065.086.063v.043l.065.043.021.065.129.11v.043l.15.128v.04l.343.322a5.5 5.5 0 0 0 .644.6l.128.15h.043v.021l.065.043.043.065h.043l.085.11h.038l.065.086h.043l.063.085h.043l.065.086h.043l.043.064h.043l.063.085h.043l.022.043h.043l.022.044.064.021.043.065h.042v.021l.065.022.02.045h.044l.043.064h.043l.022.043.063.022v.02h.043l.022.043h.043l.022.043h.043l.021.043.086.022.022.043h.042l.021.043.065.022v.021l.086.022v.02l.064.022.022.043h.042v.013h.043l.022.043.086.022.021.043.086.021.022.043.128.043.021.043h.043v.022h.044l.021.05.128.043.022.043.086.022v.021h.043v.022h.043l.021.043h.043v.02h.042v.022h.044v.021h.044l.021.043h.045v.022h.043v.021h.043v.022h.043v.021h.043v.022h.043v.021h.042v.022h.043v.021h.043v.022h.043v.02l.13.044v.021h.063v.022h.043v.021l.086.022v.016h.062v.022h.063v.02h.301v-.02h.064v-.022h.065v-.021l.086-.022v-.021h.043v-.022h.063v-.024h.043v-.022l.087-.022v-.021h.043v-.022h.043v-.021h.043v-.022h.045v-.021h.042v-.022h.043v-.021h.043v-.022h.043v-.021h.043v-.022h.043l.021-.042h.044v-.018h.042v-.022h.043v-.021h.043l.021-.043h.043v-.022h.043v-.021h.043v-.022h.043l.022-.042.126-.038.021-.043.087-.022.02-.043.129-.042.022-.043.086-.021.021-.043.085-.022.022-.043.086-.021v-.022l.065-.021.021-.042.086-.022.021-.043h.043l.021-.043h.043l.022-.043.086-.022.021-.043h.043l.022-.043h.042l.022-.043h.043v-.02l.064-.022.022-.043h.043l.043-.064h.043v-.022l.063-.021.022-.043h.043l.021-.043.065-.022.043-.069h.043l.041-.065h.043l.043-.065h.043l.043-.063h.048l.065-.086h.043l.021-.043h.022l.021-.043h.042l.065-.085h.043l.043-.065h.022l.021-.043h.043l.11-.129a6.6 6.6 0 0 0 .769-.707l.386-.365v-.043l.15-.129v-.047l.129-.11.021-.065.065-.043v-.042l.085-.064.021-.065.043-.021v-.043l.065-.043.013-.054.043-.02v-.043l.044-.022v-.043l.043-.021v-.044l.043-.021v-.043l.042-.022.021-.085.043-.021.022-.065h.029l.043-.129.042-.021v-.042h.022v-.043h.021v-.044h.022v-.043h.021v-.043h.022v-.043h.021v-.043h.022v-.043h.021v-.045h.022v-.042h.022v-.046h.021l.022-.085h.021v-.046h.022v-.065h.02l.022-.086h.021v-.064h.022v-.043h.021v-.061h.022v-.043h.021l.022-.129h.021v-.042h.022l.043-.22h.015v-.065h.022l.021-.15h.022l.021-.193a5.88 5.88 0 0 0 .129-1.648V4.131h-.021v-.087h-.021l-.022-.129-.043-.022v-.042l-.043-.021v-.043l-.086-.065-.043-.064a2.19 2.19 0 0 0-1.113-.125Zm6.484 1.798h5.166a2.8 2.8 0 0 1 .022.708v6.822c-.044.053 0 .155-.022.235h-.022v.151h-.022v.11h-.021v.086h-.022v.085h-.023v.064h-.022v.086h-.021v.043h-.022l-.021.129h-.024v.043h-.021v.064h-.022l-.021.086h-.022v.064h-.021l-.044.129h-.021l-.022.086-.042.022-.043.128-.043.021-.021.086-.043.022-.022.086-.043.021v.042l-.043.022v.043l-.056.038v.042l-.043.022v.045l-.064.043v.043l-.065.043v.043l-.086.064v.043l-.11.085v.044l-.15.129v.043l-.237.219a3.96 3.96 0 0 1-.471.451l-.151.171h-.043l-.109.129h-.043l-.086.11h-.043l-.087.11h-.043l-.063.086h-.04l-.043.064h-.043l-.043.064h-.042l-.065.087h-.043l-.021.043h-.044l-.021.043-.065.021-.042.064h-.043l-.021.043h-.043l-.043.064h-.043v.022l-.065.021-.021.043h-.042l-.043.065h-.044l-.021.028-.065.021v.022h-.043l-.021.043h-.043l-.022.043h-.042l-.021.043-.086.022-.022.042h-.043l-.021.043h-.043l-.022.043-.085.021v.022l-.065.021-.021.043-.086.022-.022.043-.085.02-.021.043-.129.044-.022.043-.531.283Z"/></svg>