<svg xmlns="http://www.w3.org/2000/svg" fill="#44739e" viewBox="0 0 24 24"><path d="M2.7402 2.3008v1.6387h4.0489V4.83h.2011v.2402h10.0606V4.83h.1797v.2402h3.3203v-.25h-3.3203v-.8808h3.8886V2.3008Zm14.4903 2.7695h-.1797v1.1602h.1797zm0 1.1602v.25h3.3203v-.25zm0 .25h-.1797v1.1601h.1797zm-.1797 0v-.25H6.9902v.25zm-10.0606-.25V5.0703h-.2011v1.1602zm0-2.291h10.0606v.8808H6.9902Zm-3.6894.8808v.25h3.4785v-.25zm0 1.4102v.25h3.4785v-.25zm3.4883.2597v1.1602h.2011V6.4902Zm.2011 1.1602v.25h10.0606v-.25zm10.0606.25v1.1601h.1797V7.9004Zm.1797 0h3.3203v-.25h-3.3203zm0 1.1601v.25h3.3203v-.25zm0 .25h-.1797v1.1602h.1797zm0 1.1602v.25h3.3203v-.25zm0 .25h-.1797v1.1602h.1797zm-.1797 0v-.25H6.9902v.25zm-10.0606 0h-.2011v1.1602h.2011zm0-.25V9.3105h-.2011v1.1602zm0-1.1602h10.0606v-.25H6.9902Zm0-.25V7.9004h-.2011v1.1601ZM3.3008 7.6504v.25h3.4785v-.25zm0 1.4101v.25h3.4785v-.25zm0 1.4102v.25h3.4785v-.25zm0 1.42v.25h3.4785v-.25zm3.6894 0v.25h10.0606v-.25zm10.0606.25v1.16h.1797v-1.16zm.1797 0h3.3203v-.25h-3.3203zm0 1.16v.25h3.3203v-.25zm0 .25h-.1797v1.1602h.1797zm0 1.1602v.25h3.3203v-.25zm0 .25h-.1797v1.1582h.1797zm0 1.1582v.25h3.3203v-.25zm0 .25h-.1797v1.1602h.1797zm-.1797 0v-.25H6.9902v.25zm-10.0606 0h-.2011v1.1602h.2011zm0-.25V14.961h-.2011v1.1582zm0-1.1582h10.0606v-.25H6.9902Zm0-.25v-1.1601h-.2011v1.1601zm0-1.1601h10.0606v-.25H6.9902Zm0-.25v-1.1602h-.2011v1.1602zm-3.6894 0v.25h3.4785v-.25zm0 1.4101v.25h3.4785v-.25zm0 1.4082v.25h3.4785v-.25zm0 1.42v.25h3.4785v-.25zm3.6894 0v.25h10.0606v-.25zm10.0606.25v1.1601h.1797v-1.1601zm.1797 0h3.3203v-.25h-3.3203zm0 1.1601v.25h3.3203v-.25zm0 .25h-.1797v1.1602h.1797zm0 1.1602v.25h3.3203v-.25zm0 .25h-.1797v.6914H6.9902v-.6914h-.2011v.6914H3.3008v.5h17.25v-.5h-3.3203zm-10.2403 0h10.0606v-.25H6.9902Zm0-.25v-1.1602h-.2011v1.1602zm0-1.1602h10.0606v-.25H6.9902Zm0-.25v-1.1601h-.2011v1.1601zm-3.6894 0v.25h3.4785v-.25zm0 1.4102v.25h3.4785v-.25z"/></svg>