<svg xmlns="http://www.w3.org/2000/svg" viewBox="0 0 24 24"><path fill="#44739e" d="M1.632 1v1.849H6.2v1.004h.227v.271h11.351v-.271h.202v.271h3.746v-.282H17.98v-.993h4.388V1ZM17.98 4.125h-.202v1.309h.202Zm0 1.309v.282h3.746v-.282Zm0 .282h-.202v1.308h.202Zm-.202 0v-.282H6.427v.282ZM6.427 5.434V4.125H6.2v1.309Zm0-2.585h11.351v.994H6.427Zm-4.162.994v.282h3.924v-.282Zm0 1.591v.282h3.924v-.282Zm3.935.293v1.308h.227V5.727Zm.227 1.308v.282h11.351v-.282Zm11.351.282v1.309h.202V7.317Zm.202 0h3.746v-.282H17.98Zm0 1.309v.282h3.746v-.282Zm0 .282h-.202v1.309h.202Zm0 1.309v.282h3.746v-.282Zm0 .282h-.202v1.309h.202Zm-.202 0v-.282H6.427v.282Zm-11.351 0H6.2v1.309h.227Zm0-.282V8.908H6.2v1.309Zm0-1.309h11.351v-.282H6.427Zm0-.282V7.317H6.2v1.309ZM2.265 7.035v.282h3.924v-.282Zm0 1.591v.282h3.924v-.282Zm0 1.591v.282h3.924v-.282Zm0 1.602v.282h3.924v-.282Zm4.162 0v.282h11.351v-.282Zm11.351.282v1.309h.202v-1.309Zm.202 0h3.746v-.282H17.98Zm0 1.309v.282h3.746v-.282Zm0 .282h-.202v1.309h.202Zm0 1.309v.282h3.746v-.282Zm0 .282h-.202v1.307h.202Zm0 1.307v.282h3.746v-.282Zm0 .282h-.202v1.309h.202Zm-.202 0v-.282H6.427v.282Zm-11.351 0H6.2v1.309h.227Zm0-.282v-1.307H6.2v1.307Zm0-1.307h11.351v-.282H6.427Zm0-.282v-1.309H6.2v1.309Zm0-1.309h11.351v-.282H6.427Zm0-.282v-1.309H6.2v1.309Zm-4.162 0v.282h3.924v-.282Zm0 1.591v.282h3.924v-.282Zm0 1.589v.282h3.924v-.282Zm0 1.602v.282h3.924v-.282Zm4.162 0v.282h11.351v-.282Zm11.351.282v1.309h.202v-1.309Zm.202 0h3.746v-.282H17.98Zm0 1.309v.282h3.746v-.282Zm0 .282h-.202v1.309h.202Zm0 1.309v.282h3.746v-.282Zm0 .282h-.202v.78H6.427v-.78H6.2v.78H2.265V23h19.461v-.564H17.98Zm-11.553 0h11.351v-.282H6.427Zm0-.282v-1.309H6.2v1.309Zm0-1.309h11.351v-.282H6.427Zm0-.282v-1.309H6.2v1.309Zm-4.162 0v.282h3.924v-.282Zm0 1.591v.282h3.924v-.282Z"/></svg>