<svg xmlns="http://www.w3.org/2000/svg" viewBox="0 0 24 24"><path fill="#44739e" d="M20.872 19.821a36.35 36.35 0 0 1-9.638-6.962A35.23 35.23 0 0 1 4.176 3.13a.459.459 0 0 1 .539-.625 8.93 8.93 0 0 1 2.088.855 41.27 41.27 0 0 1 13.874 13.839 7.93 7.93 0 0 1 .827 2.117.454.454 0 0 1-.632.505m1.014-3.279A42.386 42.386 0 0 0 7.457 2.151 8.05 8.05 0 0 0 3.781 1a3.01 3.01 0 0 0-.998.166c-1.138.491-1.758 1.837-1.758 4.792a16.18 16.18 0 0 0 3.832 10.007l-3.685 5.557a.916.916 0 0 0 .758 1.428l6.043-.022a1.831 1.831 0 0 0 1.517-.814l.92-1.381a15.47 15.47 0 0 0 7.665 2.24 6.013 6.013 0 0 0 4.52-1.454c.535-.501.703-2.377-.713-4.977"/></svg>