<svg xmlns="http://www.w3.org/2000/svg" fill="#44739e" viewBox="0 0 24 24"><path d="M20.843 8.844a7.037 7.037 0 0 0-1.981-5.192A6.41 6.41 0 0 0 14.574 2H3.628a.466.466 0 0 0-.393.245.41.41 0 0 0-.074.223c-.012 1.67-.007 2.118.006 3.041l.007.657c.011.916.365 3.056 3.436 3.136l7.99-.017a5.7 5.7 0 0 1 3.81 1.428A4.47 4.47 0 0 1 19.282 12a4.49 4.49 0 0 1-.876 1.288 5.707 5.707 0 0 1-3.831 1.426L6.6 14.693c-3.057.08-3.411 2.22-3.422 3.136l-.007.657c-.013.924-.018 1.371-.006 3.042a.477.477 0 0 0 .473.472h11a6.43 6.43 0 0 0 4.223-1.651 7.037 7.037 0 0 0 1.981-5.193 8.22 8.22 0 0 0-.5-3.156 8.21 8.21 0 0 0 .501-3.156m-1.78 1.18a6.56 6.56 0 0 0-4.49-1.691l-7.952.023c-1.639-.043-2.478-.781-2.494-2.2L4.118 5.5c-.01-.821-.016-1.271-.008-2.548h10.482a5.512 5.512 0 0 1 3.616 1.39 6.132 6.132 0 0 1 1.683 4.52 8.06 8.06 0 0 1-.2 1.915 5.3 5.3 0 0 0-.628-.753m.828 5.114a6.136 6.136 0 0 1-1.676 4.512 5.55 5.55 0 0 1-3.641 1.4H4.11c-.008-1.277 0-1.727.008-2.548l.009-.659c.016-1.413.855-2.152 2.481-2.2l7.944.022a6.526 6.526 0 0 0 4.511-1.69 5.3 5.3 0 0 0 .632-.755 8.07 8.07 0 0 1 .196 1.918"/></svg>