<svg xmlns="http://www.w3.org/2000/svg" fill="#44739e" viewBox="0 0 24 24"><path d="M20.818 8.777a6.984 6.984 0 0 0-1.956-5.151A6.347 6.347 0 0 0 14.632 2H3.459v.262h-.272c-.013 1.694-.007 2.156.005 3.087l.008.69c.01.872.349 2.909 3.289 2.985L14.644 9a6.044 6.044 0 0 1 4.056 1.52A4.8 4.8 0 0 1 19.724 12a4.82 4.82 0 0 1-1.024 1.48A6.044 6.044 0 0 1 14.633 15l-8.152-.023c-2.932.076-3.271 2.113-3.281 2.984l-.008.691c-.012.93-.018 1.392-.005 3.086h.272V22H14.7a6.332 6.332 0 0 0 4.159-1.627 6.984 6.984 0 0 0 1.956-5.151A8.12 8.12 0 0 0 20.291 12a8.13 8.13 0 0 0 .527-3.223"/></svg>