<svg xmlns="http://www.w3.org/2000/svg" viewBox="0 0 24 24"><path fill="#44739e" d="M5.869 16.729c.575.011 16.765.576 17.126-5.169.293-4.75-11.621-4.298-11.621-4.298-.023 0-.101 0-.101.056s.033.08.078.08c3.306 0 8.676 1.319 8.507 4.162-.135 2.302-4.332 5.01-13.989 5.01a.097.097 0 0 0-.09.079c0 .034.033.067.09.079ZM3.314 8.041c-.022 0-.022.012-.033.023a30 30 0 0 0-2.167 3.418l-.068.125-.011.045a.31.31 0 0 0 .034.338c.361.565 2.38 1.23 6.882 1.23 3.362 0 6.938-.541 6.938-1.556 0-.959-3.519-1.54-6.938-1.54a17.4 17.4 0 0 0-2.573.203c.305-.474 1.592-2.199 1.592-2.211.022-.022.022-.022.022-.033v-.019c-.022-.011-.033-.022-.056-.022Zm1.309 3.623c0-.204 1.275-.497 3.329-.497s3.317.293 3.317.497c0 .22-1.264.507-3.317.507s-3.329-.282-3.329-.507"/></svg>