<svg xmlns="http://www.w3.org/2000/svg" viewBox="0 0 24 24"><path fill="#44739e" d="M12.195 12.024a.195.195 0 0 1-.195.195.195.195 0 0 1-.195-.195.195.195 0 0 1 .195-.194.195.195 0 0 1 .195.194m.276 1.365a.471.471 0 1 0-.471.471.472.472 0 0 0 .471-.471m10.439-1.71L23 9.395c0-.11-.057-.202-.135-.202H1.124c-.07 0-.126.081-.124.18l.046 2.31h.086l.01.638c-.068 0-.122.083-.12.181l.044 2.173c0 .074.044.132.096.132h21.637c.062 0 .11-.069.117-.158l.029-2.123a.22.22 0 0 0-.121-.186l.012-.66Zm-11.564-1.98a.03.03 0 0 1 .005-.011.035.035 0 0 1 .03-.018h.809a.478.478 0 0 1 .318.122.525.525 0 0 1 .147.384.61.61 0 0 1-.038.235.6.6 0 0 1 .038.233.52.52 0 0 1-.148.384.47.47 0 0 1-.312.122h-.814a.034.034 0 0 1-.034-.034v-.274a.227.227 0 0 1 .254-.232h.589a.42.42 0 0 0 .284-.11.35.35 0 0 0 .065-.095.33.33 0 0 0-.065-.096.422.422 0 0 0-.281-.11h-.592a.227.227 0 0 1-.254-.232v-.048c-.001-.063-.007-.096-.001-.22m.66 4.354a.66.66 0 1 1 .66-.66.66.66 0 0 1-.666.66Zm10.689-1.736H1.277l-.01-.638H22.7Zm-10.172-1.766a.484.484 0 0 1-.33.125h-.589c-.12 0-.183.058-.184.162v.238h.77a.415.415 0 0 0 .27-.104.455.455 0 0 0 .124-.33.6.6 0 0 0-.014-.142.44.44 0 0 1-.047.051m-1.106-.578c0 .104.064.159.185.163h.588a.484.484 0 0 1 .33.125.33.33 0 0 1 .047.055.6.6 0 0 0 .015-.141.462.462 0 0 0-.124-.33.416.416 0 0 0-.269-.102h-.77v.188Z"/></svg>