<svg xmlns="http://www.w3.org/2000/svg" viewBox="0 0 24 24"><path fill="#44739e" d="M12 6.023h-.149a6.357 6.357 0 1 0 .149 0m5.531 6.282h-5.588v5.589a5.584 5.584 0 0 1-5.589-5.577v-.012h5.589V6.72a5.583 5.583 0 0 1 5.589 5.576ZM6.974 6.53a.7.7 0 0 0 .186-.287.22.22 0 0 0-.097-.236.227.227 0 0 0-.123-.038.3.3 0 0 0-.128.033.91.91 0 0 0-.214.186c-.233.24-.945.99-.945.99l.379.362ZM6.35 5.494a.232.232 0 0 0-.278-.181.506.506 0 0 0-.197.126 11.7 11.7 0 0 0-.959 1.047l.363.346s.734-.77.932-.99a.409.409 0 0 0 .139-.348M12 1.857A10.144 10.144 0 1 0 22.143 12 10.143 10.143 0 0 0 12 1.857m-1.566.824c.3-.033.598-.059.896-.072l.592 1.471.021.11.021-.11.586-1.471c.299.015.598.038.897.072l.098 2.661c-.22-.037-.432-.065-.642-.085L12.84 3.46l.009-.125-.036.119-.593 1.345h-.55l-.602-1.346-.038-.118.012.125-.064 1.797c-.22.021-.429.049-.641.085ZM4.123 6.6q.33-.422.684-.826c.682-.761.934-.983 1.26-1.018a.66.66 0 0 1 .485.137.632.632 0 0 1 .22.66l-.009.023.025-.009a.672.672 0 0 1 .77.159c.348.403.152.823-.194 1.19-.491.517-.743.77-1.365 1.458Zm9.207 12.154a6.6 6.6 0 0 1-1.32.134 6.5 6.5 0 0 1-.668-.034A6.585 6.585 0 0 1 12 5.719h.151a6.584 6.584 0 0 1 1.179 13.035M17.68 8.15c-.118-.155-.33-.411-.478-.57l.68-1.313.061-.085-.082.063-1.32.681c-.149-.137-.381-.33-.558-.472l1.407-2.195c.198.153.352.279.515.416l-.921 1.392-.081.095.103-.07 1.227-.615.433.433-.616 1.227-.07.103.094-.082 1.392-.918q.22.252.415.514ZM12 1a11 11 0 1 0 11 11A11.012 11.012 0 0 0 12 1m0 21.699A10.699 10.699 0 1 1 22.699 12 10.711 10.711 0 0 1 12 22.699"/></svg>