<svg xmlns="http://www.w3.org/2000/svg" viewBox="0 0 24 24"><path fill="#44739e" d="m6.616 15.031.404-.274h-.497l-.151-.444-.15.441-.501.003.405.276-.153.438.396-.269.405.269Zm-.796-1.462.405-.274h-.496l-.15-.442-.153.44-.499.002.404.275-.151.438.394-.267.405.267Zm2.37 1.902.396-.269.402.269-.158-.44.405-.274h-.496l-.15-.444-.153.441-.499.003.403.276Zm-.803.738-.152-.444-.152.441-.5.003.405.275-.152.439.396-.27.402.27-.156-.44.403-.274Zm1.431 1.533-.152-.441-.151.441h-.5l.405.278-.152.438.395-.268.402.268-.156-.44.404-.276Zm-1.622-5.475.641-.638-.002-.741h-1.17v.509H6.03V9.493h.635v.517h1.17l.002-.753-.641-.639H5.497l-.638.639v2.372l.64.638Zm-.395-8.756.395-.267.405.267-.158-.44.405-.274h-.497l-.149-.441-.153.439-.499.002.404.277Zm3.326 15.683-.151-.442-.153.442h-.499l.406.277-.153.437.396-.267.402.267-.156-.438.403-.276ZM7.782 4.357l-.153.438.396-.268.404.268-.158-.441.405-.274h-.497l-.149-.442-.153.442h-.5ZM4.86 7.331h-.496l-.15-.443-.152.44-.5.003.405.277-.152.436.394-.267.405.267-.159-.44Zm1.154-1.406-.151.438.394-.269.405.269-.159-.442.405-.275h-.497l-.149-.441-.152.441h-.501Zm-2.118.169.403.269-.156-.442.402-.275H4.05l-.15-.441-.151.441h-.501l.405.279-.153.438Zm1.093-1.299.396-.268.402.268-.156-.441.403-.274h-.495l-.151-.442-.151.442h-.5l.405.277Zm13.641 8.5-.151-.442-.151.44-.502.002.407.275-.153.438.396-.267.402.267-.156-.439.403-.274ZM8.381 5.646h-.5l.404.279-.151.438.394-.269.403.269-.156-.442.402-.275h-.493l-.152-.441Zm9.23 2.972v.875h.195v1.903l-.449.001-.002-.619-1.1.001-.002.948.62.54h1.565l.499-.534-.001-2.24h.196l-.002-.875Zm.225 6.139-.151-.444-.152.441-.5.003.404.276-.151.438.394-.269.405.269-.158-.44.404-.274Zm3.807-10.082L16.468 1a6.6 6.6 0 0 1-4.469 1.72A6.61 6.61 0 0 1 7.527 1l-5.17 3.674A19.075 19.075 0 0 0 11.999 23a19.073 19.073 0 0 0 9.644-18.325m-9.644 17.249a18.066 18.066 0 0 1-8.773-16.82L7.48 2.078a7.945 7.945 0 0 0 4.519 1.514 7.98 7.98 0 0 0 4.52-1.517l4.254 3.027a18.073 18.073 0 0 1-8.774 16.822m8.253-16.278-.15-.441-.151.441h-.503l.407.279-.153.438.396-.269.403.269-.156-.442.402-.275Zm-.312 1.685-.151-.443-.153.44-.5.003.405.277-.151.436.395-.267.403.267-.157-.44.404-.273Zm-8.411 10.213h-.497l-.148-.442-.153.44-.501.002.405.276-.153.438.396-.267.405.267-.159-.44Zm.506.956-.152.44-.501.002.407.277-.153.437.395-.267.404.267-.158-.44.404-.274h-.495Zm.151 2.179-.151-.444-.152.442-.501.002.407.275-.153.437.395-.268.404.268-.158-.44.404-.272Zm1.232-2.861.404-.274h-.495l-.151-.442-.152.44-.5.002.404.276-.151.438.395-.267.402.267Zm.815 1.376-.151-.442-.15.442h-.503l.407.277-.153.437.396-.267.403.267-.157-.438.403-.276Zm1.236-4.881-.15.441-.503.003.407.276-.153.438.396-.269.403.269-.156-.44.402-.274h-.495Zm1.505 1.896-.15-.444-.151.441-.503.003.407.275-.153.439.395-.27.404.27-.156-.44.402-.274Zm-1.433 1.533-.149-.441-.152.441h-.501l.405.278-.153.438.396-.268.405.268-.159-.44.405-.276ZM6.646 7.331l-.15-.443-.151.44-.501.003.405.277-.153.436.396-.267.405.267-.158-.44.402-.273Zm6.681 7.426-.151-.444-.152.441-.5.003.404.276-.151.438.395-.269.402.269-.156-.44.404-.274Zm-2.295 0-.148-.444-.153.441-.501.003.405.276-.153.438.396-.269.405.269-.159-.44.405-.274Zm1.154 1.452-.151-.444-.152.441-.501.003.407.275-.153.439.395-.27.404.27-.158-.44.404-.274Zm0-2.914-.151-.442-.152.44-.501.002.407.275-.153.438.395-.267.404.267-.158-.439.404-.274Zm-2.44 2.914-.151-.444-.15.441-.503.003.407.275-.153.439.396-.27.403.27-.156-.44.402-.274Zm.28-2.914-.151-.442-.151.44-.501.002.405.275-.152.438.396-.267.402.267-.156-.439.403-.274Zm6.376-9.784.395-.267.404.267-.156-.44.402-.274h-.495l-.15-.441-.153.439-.501.002.407.277Zm1.091 2.414-.151.438.396-.269.402.269-.156-.442.403-.275h-.495l-.151-.441-.152.441h-.5Zm.721-1.13.396-.268.403.268-.157-.441.403-.274h-.495l-.151-.442-.15.442h-.503l.407.277Zm-.569 2.536-.15-.443-.151.44-.502.003.406.277-.153.436.396-.267.403.267-.156-.44.402-.273Zm-3.031 8.878-.151-.444-.153.441-.5.003.404.275-.15.439.396-.27.402.27-.156-.44.403-.274Zm1.867-2.914-.15-.442-.152.44-.499.002.404.275-.153.438.395-.267.405.267-.158-.439.405-.274Zm-2.149 0-.148-.442-.153.44-.501.002.405.275-.151.438.396-.267.403.267-.159-.439.405-.274Zm1.231-8.5.396-.268.403.268-.159-.441.405-.274h-.496l-.15-.442-.153.442h-.5l.405.277Zm-7.686 8.5-.15-.442-.151.44-.501.002.405.275-.153.438.396-.267.404.267-.157-.439.402-.274Zm3.474-3.802v-.88H9.177v.88h.201l-.88 1.904h-.165v.87h1.508v-.87h-.186l.067-.154h1.082l.069.154h-.186v.87h1.504v-.87h-.165l-.88-1.904Zm-1.327 1.047.241-.43.23.43Zm.247-5.745.395-.268.403.268-.157-.441.404-.274h-.495l-.151-.442-.151.442h-.502l.407.277ZM8.655 6.888l-.151.44-.5.003.405.277-.152.436.395-.267.402.267-.156-.44.403-.273h-.494Zm4.066 1.156.396-.267.402.267-.156-.44.403-.273h-.495l-.151-.443-.152.44-.5.003.405.277ZM10.87 6.888l-.15.44-.501.003.405.277-.153.436.396-.267.405.267-.159-.44.405-.273h-.497Zm1.929-.525.395-.269.404.269-.158-.442.405-.275h-.496l-.15-.441-.153.441h-.499l.403.279Zm2.271 0 .396-.269.403.269-.156-.442.402-.275h-.495l-.151-.441-.15.441h-.503l.407.279Zm.69 5.261v-1.1l-.265-.179.265-.184V9.25l-.666-.629h-2.426v.88h.311v1.905h-.309v.87h2.42Zm-1.21-.227h-.484v-.511h.484Zm0-1.401h-.484v-.503h.484Zm.397-1.952.396-.267.403.267-.157-.44.403-.273h-.495l-.151-.443-.15.44-.501.003.405.277Zm-3.992-2.398-.151-.441-.153.441h-.5l.407.279-.153.438.395-.269.404.269-.157-.442.403-.275Zm1.967-.851.395-.268.405.268-.159-.441.404-.274h-.495l-.151-.442-.152.442h-.499l.405.277Z"/></svg>