<svg xmlns="http://www.w3.org/2000/svg" viewBox="0 0 24 24"><path fill="#44739e" d="M16.583 8.792c0 .761-2.053 1.375-4.583 1.375s-4.583-.614-4.583-1.375V4.938c0-.223.243-.344.431-.224.731.468 2.316.869 4.152.869s3.421-.401 4.153-.869c.187-.12.43.001.43.224Zm-7.02-6.62c1.467-.341 3.718-.341 5.08 0 1.39.348 1.371.928-.101 1.296-1.503.376-3.896.376-5.282 0-1.358-.368-1.196-.948.303-1.296m6.406-.732C14.952 1.147 13.595 1 12.211 1c-1.375 0-2.769.147-3.869.44-1.21.321-1.842.761-1.842 1.201v18.846c0 .367.458.734 1.393 1.027 1.045.321 2.457.486 3.896.486s2.897-.165 4.024-.486 1.687-.742 1.687-1.155V2.513c0-.395-.514-.78-1.531-1.073"/></svg>