<svg xmlns="http://www.w3.org/2000/svg" fill="#44739e" viewBox="0 0 24 24"><path d="m3.973 18.043 4.591 2.97a1.048 1.048 0 0 0 1.618-.867l-.028-4.638c-.086-2.655-1.218-3.271-2.313-3.867l-.112-.061-4.594-2.66A.768.768 0 0 0 2 9.634l.277 5.475a3.149 3.149 0 0 0 1.696 2.934m1.46-4.243c.473-.157 1.037.255 1.257.919a1.135 1.135 0 0 1-.458 1.488c-.472.156-1.036-.256-1.257-.919a1.136 1.136 0 0 1 .458-1.488m.74 2.23c.375-.125.527-.686.339-1.251s-.645-.925-1.02-.8-.527.686-.339 1.251.647.924 1.02.8m9.176-9.705-.339.191.185.08.337-.19zm-.225-.101-.342.19.182.081.339-.191zm-1.966.789.372-.192-.179-.081-.374.192Zm2.083-.397.189.081.335-.191-.187-.081Zm-1.482.306-.183-.081-.372.193.185.081Zm-.317-.23.179.081.365-.193-.178-.081Zm.548.331-.186-.081-.369.192.187.081zm-.55.555.198.08.373-.193-.196-.08zm.23-.343.191.081.366-.193-.19-.08zm.227-.783.177.081.353-.192-.175-.081Zm1.006-.33-.343.191.178.081.342-.191Zm-.217-.101-.346.191.175.081.344-.191Zm-2.544 1.546-.401.194.191.081.399-.195zm.236.1-.399.195.194.08.397-.194zm-.469-.202-.403.195.188.081.401-.195Zm1.053.354.199.081.383-.194-.198-.081Zm-.739.144.197.08.395-.195-.196-.08zm-.766-.7-.406.195.18.081.405-.195zm.726-.606-.169-.082-.391.193.171.082Zm-.487.241-.171-.082-.401.194.173.082Zm.965-.483-.168-.082-.381.193.169.082Zm-2.263.738.171.081.411-.195-.169-.081Zm2.563-1.061-.374.193.166.082.373-.193zm-2.358.763-.415.195.167.082.413-.195zm2.036-1.411-.37.191.151.082.369-.191zM10.4 6.753l-.417.195.164.082.415-.195Zm.967-.505-.156-.082-.398.193.157.082Zm-.056-.131.155.082.387-.193-.153-.082Zm2.118-.728-.152-.082-.358.191.153.082Zm-.015.464-.363.192.165.082.361-.192zm-1.466.105.38-.193-.152-.082-.381.193Zm1.318-.276.355-.191-.154-.082-.357.191Zm-2.962.919.159.082.407-.194-.157-.082Zm3.16-.817.354-.191-.158-.081-.355.191Zm-2.567.107.393-.193-.144-.082-.394.192Zm.826-.983-.132-.083-.38.192.133.083ZM10.03 5.927l.406-.193-.14-.083-.407.194Zm1.08-.332-.142-.083-.396.193.143.083Zm-.849.035-.137-.083-.409.194.138.083Zm-.51.242-.138-.083-.419.194.14.083Zm2.406-.806.366-.191-.137-.083-.367.191Zm.196-.294-.133-.083-.369.192.134.082Zm-.783.981.384-.193-.147-.083-.385.194Zm.704-.515-.373.192.146.082.372-.191Zm-3.188.794-.429.195.142.083.428-.195Zm.305.608.155.083.421-.195-.154-.083Zm.235-.298-.424.195.151.083.423-.195Zm-.184-.103-.426.195.148.082.425-.194Zm-.179-.103-.428.195.145.083.426-.195Zm3.069-.967.365-.191-.14-.082-.365.191zm-1.005 14.896.068-.044a.567.567 0 0 0 .232-.213 2.22 2.22 0 0 0 .293-1.218l-.074-4.3a4.238 4.238 0 0 0-2.013-3.822 37.2 37.2 0 0 0-4.567-2.66 1.462 1.462 0 0 0-1.256.071l-1.289.7a1.01 1.01 0 0 1 .537.126l4.594 2.66.108.059c1.1.6 2.354 1.28 2.444 4.08l.027 4.642a1.294 1.294 0 0 1-.195.674ZM5.66 8.944l-.053.092a.041.041 0 0 1-.055.015l-.932-.538a.04.04 0 0 1-.014-.055l.053-.092a.04.04 0 0 1 .055-.015l.932.538a.04.04 0 0 1 .014.055m3.307 1.962-.06.087a.04.04 0 0 1-.056.007l-.366-.251a.039.039 0 0 0-.046 0l-.36.26A.039.039 0 0 1 8.023 11l-.063-.086a.039.039 0 0 1 .01-.056l.281-.2a.04.04 0 0 0 0-.066l-.287-.2a.04.04 0 0 1-.01-.056l.06-.087a.04.04 0 0 1 .056-.011l.366.251a.039.039 0 0 0 .046 0l.36-.26a.04.04 0 0 1 .056.009l.063.087a.039.039 0 0 1-.01.056l-.281.2a.041.041 0 0 0 0 .067l.287.2a.041.041 0 0 1 .01.058m12.308-2.983a3.878 3.878 0 0 0-2.288-3.444c-.018-.008-2.012-.863-3.82-1.551a1.97 1.97 0 0 0-.692-.111 3.54 3.54 0 0 0-1.441.318L5.076 7.357l-.27.157a1.64 1.64 0 0 1 .531.121 37.3 37.3 0 0 1 4.6 2.67 4.407 4.407 0 0 1 2.1 3.977l.074 4.306a2.374 2.374 0 0 1-.264 1.209c.358-.214.69-.422.717-.438l6.992-5.023c.784-.636 1.018-.843 1.205-1.375a12.6 12.6 0 0 0 .3-1.941c.042-.341.09-.741.149-1.214zm-4.241-1-4.188 2.523a.8.8 0 0 1-.787.021l-4.8-2.542a.188.188 0 0 1 0-.331l4.56-2.472a.582.582 0 0 1 .528-.013l4.66 2.244a.323.323 0 0 1 .027.568zm3.327-1.585.456-.246a3.84 3.84 0 0 0-.7-.6l-.448.241a4.5 4.5 0 0 1 .692.605m.928 4.784a2.5 2.5 0 0 0 .475-.764l-.428.228-.009.233Zm-.233-3.792.427-.283a4.5 4.5 0 0 0-.61-.893l-.455.246a4.5 4.5 0 0 1 .334.421 3.95 3.95 0 0 1 .304.509m.752 2.913a3.35 3.35 0 0 0 .179-.857l-.619.365-.029.741ZM18.877 4a2.5 2.5 0 0 0-.318-.022 2.15 2.15 0 0 0-.36.03l.357.149zm.723.682.444-.239a3.4 3.4 0 0 0-.34-.189 2.9 2.9 0 0 0-.686-.228l-.361.176.383.163a3.74 3.74 0 0 1 .56.317m1.8 3.249-.028.724.623-.367a4.03 4.03 0 0 0-.076-1.021l-.515.292a2.4 2.4 0 0 1-.004.372m.5-.747a4.62 4.62 0 0 0-.377-1.06l-.429.285a3.25 3.25 0 0 1 .3 1.065z"/></svg>