<svg xmlns="http://www.w3.org/2000/svg" fill="#44739e" viewBox="0 0 24 24"><path d="M14.338 4.2a.11.11 0 0 0 .116-.126l-.009-.147.1.121-.094.141h.085l.035-.059.019-.031.025.028.044.054h.085l-.112-.13.094-.137-.085.006-.04.062-.015.024-.017-.022-.046-.057h-.148l.009.155c0 .023 0 .054-.051.057a.047.047 0 0 1-.056-.051l-.01-.154H14.2l.01.154a.107.107 0 0 0 .128.112m-.238-.256h-.062l-.1.274.072-.005.025-.074h.085l.035.07h.073zm-.042.137.014-.04.019.036zm1.735.219a.113.113 0 1 0 .111.113.111.111 0 0 0-.111-.113m-1.449.112a.113.113 0 1 0 .111.112.112.112 0 0 0-.111-.112m-1.464.225a.112.112 0 0 1-.112.112.112.112 0 0 1-.112-.112.112.112 0 0 1 .112-.112.112.112 0 0 1 .112.112m-1.555.083a.112.112 0 0 1-.112.112.112.112 0 0 1-.112-.112.112.112 0 0 1 .112-.112.112.112 0 0 1 .112.112m4.688-.965a.376.376 0 0 0-.513 0 .034.034 0 0 0 0 .05.04.04 0 0 0 .027.011.044.044 0 0 0 .029-.011.289.289 0 0 1 .4 0 .041.041 0 0 0 .056 0 .034.034 0 0 0 0-.05zm-.257.01a.267.267 0 0 0-.2.083.033.033 0 0 0 0 .049.045.045 0 0 0 .027.01.04.04 0 0 0 .029-.013.191.191 0 0 1 .274 0 .04.04 0 0 0 .028.013.042.042 0 0 0 .028-.01.032.032 0 0 0 0-.049.27.27 0 0 0-.186-.083m.006.109a.171.171 0 0 0-.136.066.034.034 0 0 0 .009.049.04.04 0 0 0 .023.011.038.038 0 0 0 .032-.015.092.092 0 0 1 .072-.036.091.091 0 0 1 .072.036.043.043 0 0 0 .026.015h.006a.035.035 0 0 0 .023-.007.034.034 0 0 0 .011-.053.171.171 0 0 0-.138-.066m-.045.337a.08.08 0 0 0 .011-.026.082.082 0 0 0-.01-.063.06.06 0 0 0-.018-.022c-.009-.008-.024-.026-.142-.173-.072-.089-.13-.162-.131-.165l-.04.024.106.132.121.152h-.012a.125.125 0 0 0-.067.03.09.09 0 0 0-.03.052.073.073 0 0 0 .014.064.085.085 0 0 0 .037.031.124.124 0 0 0 .161-.036m-4.535-.234a.388.388 0 0 0-.288.154.038.038 0 0 0 0 .049.025.025 0 0 0 .022.009.028.028 0 0 0 .021-.011.323.323 0 0 1 .5-.024.029.029 0 0 0 .044 0 .039.039 0 0 0 0-.049.39.39 0 0 0-.299-.128m.006.13a.285.285 0 0 0-.216.123.038.038 0 0 0 0 .049.029.029 0 0 0 .028.008.026.026 0 0 0 .022-.013.22.22 0 0 1 .353-.016.028.028 0 0 0 .044 0 .038.038 0 0 0 0-.049.285.285 0 0 0-.231-.102m.012.13a.181.181 0 0 0-.146.095.038.038 0 0 0 .009.048.033.033 0 0 0 .019.006.032.032 0 0 0 .018-.016.114.114 0 0 1 .2-.009.029.029 0 0 0 .043.006.037.037 0 0 0 .005-.049.181.181 0 0 0-.148-.081m.073.206a.074.074 0 0 0-.072-.075.079.079 0 1 0 .072.075m1.236-.343.124.085-.117.09a.031.031 0 0 0 0 .054.062.062 0 0 0 .038.01.06.06 0 0 0 .037-.012l.066-.051.005.175a.039.039 0 0 0 .031.034.1.1 0 0 0 .023 0 .07.07 0 0 0 .032-.01l.26-.161a.034.034 0 0 0 .018-.033.037.037 0 0 0-.026-.03l-.19-.076.19-.088a.037.037 0 0 0 .025-.03.034.034 0 0 0-.025-.032l-.268-.143a.068.068 0 0 0-.056 0 .04.04 0 0 0-.029.035v.174l-.069-.048a.068.068 0 0 0-.075 0 .031.031 0 0 0 .006.057m.374.2-.117.072v-.121Zm-.007-.238-.117.056v-.12ZM14.25 6.26l-.169.431.476-.04.028-.071-.272.023.043-.109.273-.023.027-.071-.271.023.042-.109.512-.043-.006-.069Zm-1.219.263.034-.087c.017-.043-.01-.075-.042-.072l-.4.034-.142.36-.377.032.006.068.761-.064a.08.08 0 0 0 .074-.059l.034-.088a.048.048 0 0 0-.017-.063.086.086 0 0 0 .069-.061m-.188.137-.017.041a.04.04 0 0 1-.036.031l-.1.008.043-.108.1-.009c.015-.001.017.018.01.037m.072-.18-.017.041a.041.041 0 0 1-.036.031l-.1.008.044-.108.1-.009c.014-.001.016.018.009.037m.65-.162-.309.026a.122.122 0 0 0-.124.08l-.113.288c-.016.04 0 .069.038.066l.36-.03c.037 0 .059-.018.083-.076l.113-.289a.047.047 0 0 0-.048-.065m-.165.121-.085.215c-.011.031-.023.035-.054.038s-.041-.01-.033-.03l.086-.216a.057.057 0 0 1 .056-.046c.03 0 .042.01.03.039m.646.012-.2.018.027-.07c.011-.029.023-.04.043-.042s.029.018.02.043l.207-.017.017-.046c.012-.034.009-.07-.028-.067l-.364.031a.074.074 0 0 0-.074.049l-.053.136c-.015.039-.011.07.033.066l.209-.018-.028.075a.051.051 0 0 1-.048.037c-.025 0-.025-.018-.016-.038l-.205.017-.02.051c-.013.032 0 .059.038.056l.361-.031a.084.084 0 0 0 .073-.057l.051-.127c.011-.032 0-.069-.043-.066m4.926-3.1588a.653.653 0 0 0-.26-.542h.042l-2.054-.718a2.52 2.52 0 0 0-.993-.138l-1.831.109-.7.042-5.079.3-.4.024-1.727.1c-.122 0-.146.078-.15.11v.02a.12.12 0 0 1 0-.026c0-.033.028-.109.15-.111a.414.414 0 0 0-.3.113.424.424 0 0 0-.114.29l-.014 16.624a.37.37 0 0 0 .031.126.33.33 0 0 0 .061.119.66.66 0 0 0 .1.128l1.859 1.651v-.02a1.08 1.08 0 0 0 .155.169.856.856 0 0 0 .561.221.74.74 0 0 0 .105-.007l9.673-1.575c.605-.083.8-.378.848-.62v-.014a.8.8 0 0 0 .014-.148V7.5352h.008v-.671l.013-3.568zm-11.653.681.038 17.01-1.468-1.3a.62.62 0 0 1-.108-.2l.008-16.617a.172.172 0 0 1 .044-.119.125.125 0 0 1 .056-.033h.006a.83.83 0 0 0 .132.054l.128.039 1.231.594a1.58 1.58 0 0 0-.067.572m-.881-1.29 9.284-.555a2.27 2.27 0 0 1 .9.125l.925.323-9.7.569a.95.95 0 0 0-.308.068zm11.6 17.224-9.681 1.576a.432.432 0 0 1-.315-.093l10.407-1.631a.8.8 0 0 1-.416.147zm.522-.388v.006l-10.712 1.62a.64.64 0 0 1-.049-.158l10.758-1.685zm0-.432-10.769 1.629v-.157l10.766-1.687zm0-.43-10.771 1.626v-.18l10.768-1.571zm0-.339-10.773 1.516v-.166l10.77-1.574zm0-.438-10.775 1.516v-.157l10.772-1.574zm0-.429-10.776 1.517v-.2l10.773-1.46zm0-.358-10.773 1.4v-.166l10.77-1.457zm0-.437-10.775 1.4v-.157l10.772-1.457zm0-.428-10.777 1.4v-.231l10.774-1.276zm0-.321-10.784 1.221v-.165l10.781-1.28zm0-.436-10.786 1.221v-.156l10.783-1.279zm0-.428-10.787 1.222v-.171l10.784-1.26zm0-.423-10.789 1.203v-.165l10.786-1.261zm0-.436-10.791 1.199v-.156l10.788-1.257zm0-.428-10.793 1.204v-.151l10.79-1.26zm0-.422-10.794 1.204v-.165l10.791-1.261zm0-.436-10.796 1.204v-.156l10.793-1.263zm0-.427-10.798 1.204v-.2l10.795-1.161zm0-.371-10.803 1.109v-.165l10.8-1.161zm0-.436-10.803 1.11v-.157l10.8-1.166zm0-.426-10.803 1.109v-.2l10.8-1.08zm0-.384-10.803 1.023v-.165l10.8-1.08zm0-.436-10.803 1.024v-.179l10.8-.967zm0-.335-10.8.911v-.158l10.8-.967Zm0-.428-10.8.911v-.154l10.797-.968Zm0-.424-10.807.911v-.084l10.804-.968Zm0-.355-10.813.907v-.161l10.81-.968zm0-.435-10.81.912v-.157l10.807-.968zm0-.426-10.817.911v-.2l2.024-.179c1.334-.073 2.679-.2 4-.323.441-.042.885-.087 1.329-.137l3.457-.3zm-4.473-.316a.04.04 0 0 1-.026.01.036.036 0 0 1-.026-.011.266.266 0 0 0-.37 0 .035.035 0 0 1-.026.011.036.036 0 0 1-.025-.01.032.032 0 0 1 0-.047.339.339 0 0 1 .475 0 .032.032 0 0 1-.007.046zm-.11.085a.17.17 0 0 0-.127-.056.172.172 0 0 0-.127.056.035.035 0 0 1-.027.011.034.034 0 0 1-.029-.012.032.032 0 0 1 0-.047.248.248 0 0 1 .363 0 .032.032 0 0 1 0 .047.035.035 0 0 1-.026.009.036.036 0 0 1-.032-.009zm0 .09a.043.043 0 0 1-.03.009.04.04 0 0 1-.024-.014.085.085 0 0 0-.067-.034.082.082 0 0 0-.067.034.037.037 0 0 1-.032.014.04.04 0 0 1-.021-.006.033.033 0 0 1-.008-.047.157.157 0 0 1 .252 0 .034.034 0 0 1-.011.043zm-.306-.057c.11.14.124.157.132.165a.05.05 0 0 1 .015.017.08.08 0 0 1 .009.06.065.065 0 0 1-.01.025.114.114 0 0 1-.148.039.077.077 0 0 1-.033-.029.076.076 0 0 1-.014-.062.086.086 0 0 1 .029-.049.11.11 0 0 1 .061-.028h.012l-.113-.144-.1-.125.037-.023s.049.069.115.153zm5.1-.916c-1.563.23-3.313.44-5.009.591-2.014.18-4.152.371-6.176.4v-4.203a.342.342 0 0 1 .317-.306l10.454-.516c.279-.008.387.106.413.432l-.013 3.565zM8.303 2.7142l.414.206 7.333-.433-.664-.227-1.223.077-4.735.286z"/></svg>