<svg xmlns="http://www.w3.org/2000/svg" viewBox="0 0 24 24"><path fill="#44739e" d="m17.772 13.726 5.145-.183V8.815l-5.145.342Zm2.321-.358a.081.081 0 0 1-.079.08l-.732.027a.075.075 0 0 1-.079-.074v-.009a.081.081 0 0 1 .079-.08l.732-.027a.074.074 0 0 1 .079.074Zm-.89-3.484a.085.085 0 0 1 .079-.082l.732-.045a.073.073 0 0 1 .079.073v.006a.082.082 0 0 1-.079.082l-.732.044a.071.071 0 0 1-.079-.072Zm-.562-.172a.074.074 0 0 1-.081-.072v-.007a.086.086 0 0 1 .081-.083l.756-.043a.074.074 0 0 1 .081.072v.008a.086.086 0 0 1-.081.082Zm2.662-.034a.073.073 0 0 1 .079.073v.01a.085.085 0 0 1-.079.082l-.734.044a.074.074 0 0 1-.079-.073v-.008a.086.086 0 0 1 .079-.083Zm-.123-.201v-.01a.085.085 0 0 1 .079-.083l.732-.046a.073.073 0 0 1 .079.073v.01a.084.084 0 0 1-.079.082l-.732.045a.073.073 0 0 1-.079-.071m.202 3.249a.082.082 0 0 1-.079.082l-.734.029a.076.076 0 0 1-.079-.073v-.01a.084.084 0 0 1 .079-.08l.734-.031a.075.075 0 0 1 .079.074Zm.609.186a.075.075 0 0 1 .079.075v.009a.082.082 0 0 1-.079.081l-.732.029a.075.075 0 0 1-.079-.075v-.006a.081.081 0 0 1 .079-.08Zm-1.237.128v.006a.082.082 0 0 1-.08.082l-.757.029a.076.076 0 0 1-.08-.074v-.007a.084.084 0 0 1 .08-.081l.757-.03a.076.076 0 0 1 .08.075m-.837-.47a.076.076 0 0 1-.08-.075v-.006a.084.084 0 0 1 .08-.082l.757-.033a.075.075 0 0 1 .08.075v.007a.082.082 0 0 1-.08.081Zm1.342-.057a.075.075 0 0 1-.079-.075v-.009a.082.082 0 0 1 .079-.081l.732-.032a.075.075 0 0 1 .079.075v.009a.081.081 0 0 1-.079.081Zm.123-.379a.081.081 0 0 1-.079.08l-.734.033a.075.075 0 0 1-.079-.074v-.009a.082.082 0 0 1 .079-.08l.734-.034a.074.074 0 0 1 .079.074Zm-1.462-.151a.076.076 0 0 1-.081-.075v-.006a.084.084 0 0 1 .081-.086l.756-.037a.075.075 0 0 1 .08.074v.008a.084.084 0 0 1-.08.081Zm1.341-.063a.074.074 0 0 1-.079-.073v-.01a.082.082 0 0 1 .079-.082l.733-.034a.074.074 0 0 1 .079.074v.01a.082.082 0 0 1-.079.081Zm.123-.38a.082.082 0 0 1-.079.081l-.733.036a.075.075 0 0 1-.08-.073v-.009a.084.084 0 0 1 .08-.081l.733-.037a.074.074 0 0 1 .079.074Zm-1.464-.145a.075.075 0 0 1-.081-.074v-.007a.085.085 0 0 1 .081-.082l.756-.039a.075.075 0 0 1 .08.074v.008a.086.086 0 0 1-.08.082Zm1.341-.067a.074.074 0 0 1-.079-.074v-.01a.084.084 0 0 1 .079-.081l.733-.038a.074.074 0 0 1 .079.074v.01a.082.082 0 0 1-.079.081Zm.123-.381a.082.082 0 0 1-.079.081l-.733.039a.074.074 0 0 1-.08-.073v-.01a.086.086 0 0 1 .08-.081l.733-.038a.073.073 0 0 1 .079.072Zm-1.464-.14a.075.075 0 0 1-.081-.073v-.007a.085.085 0 0 1 .081-.082l.754-.039a.075.075 0 0 1 .08.074v.006a.086.086 0 0 1-.08.084Zm1.341-.072a.074.074 0 0 1-.079-.074v-.009a.085.085 0 0 1 .079-.082l.733-.041a.074.074 0 0 1 .079.074v.01a.082.082 0 0 1-.079.081Zm.123-.382a.084.084 0 0 1-.079.083l-.733.04a.073.073 0 0 1-.08-.072v-.009a.084.084 0 0 1 .08-.081l.733-.043a.074.074 0 0 1 .079.073Zm-1.464-.133a.075.075 0 0 1-.081-.073v-.007a.085.085 0 0 1 .081-.084l.756-.045a.074.074 0 0 1 .08.074v.007a.087.087 0 0 1-.08.083Zm1.341-.078a.074.074 0 0 1-.079-.074v-.012a.085.085 0 0 1 .079-.082l.733-.043a.073.073 0 0 1 .079.073v.009a.085.085 0 0 1-.079.083Zm-.507-.635a.087.087 0 0 1-.08.083l-.757.046a.074.074 0 0 1-.08-.072v-.007a.087.087 0 0 1 .08-.083l.757-.048a.074.074 0 0 1 .08.073Zm-1.357.586a.074.074 0 0 1 .081.072v.001a.085.085 0 0 1-.081.082l-.756.044a.073.073 0 0 1-.081-.072v-.008a.084.084 0 0 1 .081-.081Zm-.194.38a.082.082 0 0 1 .079-.081l.732-.042a.073.073 0 0 1 .079.073v.008a.082.082 0 0 1-.079.082l-.732.04a.073.073 0 0 1-.079-.071Zm.194.205a.075.075 0 0 1 .081.073v.007a.085.085 0 0 1-.081.082l-.756.041a.074.074 0 0 1-.081-.073v-.006a.086.086 0 0 1 .081-.083Zm-.194.379a.082.082 0 0 1 .079-.08l.732-.04a.074.074 0 0 1 .079.073v.01a.085.085 0 0 1-.079.081l-.732.037a.073.073 0 0 1-.079-.071Zm.194.207a.075.075 0 0 1 .081.072v.008a.084.084 0 0 1-.081.081l-.756.039a.075.075 0 0 1-.081-.073v-.015a.084.084 0 0 1 .081-.081Zm-.194.378a.082.082 0 0 1 .079-.08l.732-.037a.074.074 0 0 1 .079.073v.01a.082.082 0 0 1-.079.08l-.732.035a.073.073 0 0 1-.079-.071Zm.194.207a.075.075 0 0 1 .081.073v.004a.084.084 0 0 1-.081.081l-.756.035a.075.075 0 0 1-.081-.073v-.007a.084.084 0 0 1 .081-.081Zm-.194.378a.082.082 0 0 1 .079-.08l.732-.033a.074.074 0 0 1 .079.072v.01a.082.082 0 0 1-.079.081l-.732.033a.075.075 0 0 1-.079-.074Zm.194.208a.075.075 0 0 1 .081.074v.006a.084.084 0 0 1-.081.082l-.756.031a.075.075 0 0 1-.081-.073v-.007a.082.082 0 0 1 .081-.08Zm-.194.37a.082.082 0 0 1 .079-.08l.732-.031a.075.075 0 0 1 .079.074v.01a.081.081 0 0 1-.079.079l-.732.031a.075.075 0 0 1-.079-.074Zm.194.208a.076.076 0 0 1 .081.075v.007a.082.082 0 0 1-.081.08l-.756.03a.075.075 0 0 1-.081-.074v-.008a.084.084 0 0 1 .081-.08Zm1.98.305a.082.082 0 0 1-.08.08l-.733.027a.075.075 0 0 1-.079-.074v-.007a.082.082 0 0 1 .079-.08l.733-.027a.074.074 0 0 1 .08.073Zm1.358-.051a.081.081 0 0 1-.079.081l-.733.027a.075.075 0 0 1-.079-.075v-.01a.081.081 0 0 1 .079-.08l.733-.027a.075.075 0 0 1 .079.074Zm0-.599a.081.081 0 0 1-.079.081l-.733.03a.074.074 0 0 1-.079-.074v-.009a.081.081 0 0 1 .079-.081l.733-.031a.074.074 0 0 1 .079.075Zm0-.598a.082.082 0 0 1-.079.081l-.733.033a.074.074 0 0 1-.079-.074v-.009a.082.082 0 0 1 .079-.082l.733-.033a.074.074 0 0 1 .079.074Zm0-.598a.082.082 0 0 1-.079.081l-.733.036a.075.075 0 0 1-.079-.075v-.006a.082.082 0 0 1 .079-.081l.733-.037a.074.074 0 0 1 .079.074Zm0-.6a.084.084 0 0 1-.079.083l-.733.038a.074.074 0 0 1-.079-.073v-.009a.084.084 0 0 1 .079-.083l.733-.038a.073.073 0 0 1 .079.073Zm0-.598a.084.084 0 0 1-.079.083l-.733.041a.074.074 0 0 1-.079-.073v-.009a.084.084 0 0 1 .079-.083l.733-.043a.074.074 0 0 1 .079.074Zm0-.598a.084.084 0 0 1-.079.082l-.733.044a.073.073 0 0 1-.079-.072v-.004a.085.085 0 0 1 .079-.082l.733-.045a.074.074 0 0 1 .079.074Zm-.891-.55a.085.085 0 0 1 .079-.082l.733-.049a.074.074 0 0 1 .079.074v.009a.085.085 0 0 1-.079.083l-.733.048a.073.073 0 0 1-.079-.073Zm-1.359.088a.085.085 0 0 1 .079-.081l.733-.049a.073.073 0 0 1 .08.073v.009a.084.084 0 0 1-.08.082l-.733.047a.073.073 0 0 1-.079-.071Zm-1.288.084a.085.085 0 0 1 .079-.082l.733-.047a.071.071 0 0 1 .079.071v.009a.085.085 0 0 1-.079.083l-.733.046a.071.071 0 0 1-.079-.071Zm-1.28.083a.085.085 0 0 1 .079-.081l.733-.048a.071.071 0 0 1 .079.071v.01a.082.082 0 0 1-.079.08l-.733.047a.071.071 0 0 1-.079-.07Zm0 .58a.082.082 0 0 1 .079-.081l.733-.045a.071.071 0 0 1 .079.071v.01a.082.082 0 0 1-.079.08l-.733.045a.073.073 0 0 1-.079-.072Zm0 .579a.082.082 0 0 1 .079-.08l.733-.042a.073.073 0 0 1 .079.072v.006a.085.085 0 0 1-.079.082l-.733.04a.073.073 0 0 1-.079-.071Zm0 .58a.084.084 0 0 1 .079-.081l.733-.038a.073.073 0 0 1 .079.071v.01a.084.084 0 0 1-.079.081l-.733.038a.073.073 0 0 1-.079-.071Zm0 .579a.081.081 0 0 1 .079-.079l.733-.036a.073.073 0 0 1 .079.072v.009a.082.082 0 0 1-.079.08l-.733.036a.073.073 0 0 1-.073-.075Zm0 .581a.082.082 0 0 1 .079-.08l.733-.033a.074.074 0 0 1 .079.072v.009a.082.082 0 0 1-.079.08l-.733.032a.073.073 0 0 1-.079-.071Zm0 .579a.081.081 0 0 1 .079-.079l.733-.031a.074.074 0 0 1 .079.073v.01a.081.081 0 0 1-.079.079l-.733.03a.074.074 0 0 1-.079-.073Zm0 .58a.081.081 0 0 1 .079-.079l.733-.028a.075.075 0 0 1 .079.074v.009a.081.081 0 0 1-.079.079l-.733.026a.074.074 0 0 1-.079-.072Zm-11.612.375V9.085l-5.147-.182v4.567ZM3.48 13.39a.073.073 0 0 1-.079.072l-.733-.048a.084.084 0 0 1-.079-.082v-.009a.071.071 0 0 1 .079-.071l.733.047a.082.082 0 0 1 .079.082Zm-.891-3.576a.074.074 0 0 1 .079-.072l.733.03a.081.081 0 0 1 .079.08v.009a.074.074 0 0 1-.079.073l-.733-.031a.081.081 0 0 1-.079-.079Zm-.562-.228a.084.084 0 0 1-.08-.079v-.009a.075.075 0 0 1 .08-.074l.757.03a.082.082 0 0 1 .08.08v.008a.075.075 0 0 1-.08.073Zm2.662.238a.081.081 0 0 1 .08.081v.008a.075.075 0 0 1-.08.075l-.732-.031a.082.082 0 0 1-.079-.08v-.01a.075.075 0 0 1 .079-.073Zm-.123-.22v-.008a.075.075 0 0 1 .079-.075l.734.028a.084.084 0 0 1 .079.082v.009a.075.075 0 0 1-.079.074l-.734-.028a.082.082 0 0 1-.079-.077Zm.203 3.272a.073.073 0 0 1-.08.072l-.732-.045a.084.084 0 0 1-.079-.081v-.006a.073.073 0 0 1 .079-.072l.732.045a.082.082 0 0 1 .08.081Zm.61.247a.086.086 0 0 1 .079.083v.01a.073.073 0 0 1-.079.072l-.734-.043a.085.085 0 0 1-.079-.082v-.009a.073.073 0 0 1 .079-.073Zm-1.238 0v.012a.074.074 0 0 1-.081.073l-.755-.047a.086.086 0 0 1-.08-.084v-.007a.073.073 0 0 1 .08-.072l.755.047a.085.085 0 0 1 .081.084Zm-.836-.555a.084.084 0 0 1-.08-.083v-.006a.073.073 0 0 1 .08-.073l.755.044a.085.085 0 0 1 .081.083v.007a.074.074 0 0 1-.081.073Zm1.34.08a.084.084 0 0 1-.079-.082v-.009a.073.073 0 0 1 .079-.073l.734.043a.084.084 0 0 1 .079.082v.01a.075.075 0 0 1-.079.073Zm.124-.367a.074.074 0 0 1-.08.074l-.732-.043a.082.082 0 0 1-.079-.082v-.008a.073.073 0 0 1 .079-.073l.732.041a.085.085 0 0 1 .08.082Zm-1.464-.3a.084.084 0 0 1-.08-.083v-.006a.074.074 0 0 1 .08-.074l.755.042a.085.085 0 0 1 .081.082v.007a.074.074 0 0 1-.081.074Zm1.34.075a.084.084 0 0 1-.079-.082v-.004a.073.073 0 0 1 .079-.073l.734.04a.084.084 0 0 1 .079.082v.009a.075.075 0 0 1-.079.074Zm.124-.368a.073.073 0 0 1-.08.073l-.732-.039a.082.082 0 0 1-.079-.081v-.01a.074.074 0 0 1 .079-.073l.732.039a.082.082 0 0 1 .08.081Zm-1.464-.294a.084.084 0 0 1-.08-.083v-.001a.074.074 0 0 1 .08-.074l.755.039a.084.084 0 0 1 .081.081v.008a.075.075 0 0 1-.081.074Zm1.34.069a.082.082 0 0 1-.079-.082v-.005a.073.073 0 0 1 .079-.073l.734.037a.085.085 0 0 1 .079.082v.009a.075.075 0 0 1-.079.074Zm.124-.369a.074.074 0 0 1-.08.074l-.732-.036a.082.082 0 0 1-.079-.08v-.006a.073.073 0 0 1 .079-.073l.732.036a.082.082 0 0 1 .08.081Zm-1.464-.288a.084.084 0 0 1-.08-.082v-.007a.074.074 0 0 1 .08-.073l.755.035a.084.084 0 0 1 .081.081v.008a.075.075 0 0 1-.081.073Zm1.34.064a.082.082 0 0 1-.079-.081v-.01a.075.075 0 0 1 .079-.063l.734.035a.082.082 0 0 1 .079.082v.008a.076.076 0 0 1-.079.075Zm.124-.368a.074.074 0 0 1-.08.073l-.732-.033a.082.082 0 0 1-.079-.081v-.009a.074.074 0 0 1 .079-.073l.732.033a.082.082 0 0 1 .08.08Zm-1.464-.284a.082.082 0 0 1-.08-.081v-.007a.076.076 0 0 1 .08-.075l.755.033a.084.084 0 0 1 .081.082v.007a.075.075 0 0 1-.081.074Zm1.34.059a.082.082 0 0 1-.079-.081v-.009a.075.075 0 0 1 .079-.075l.734.032a.084.084 0 0 1 .079.082v.008a.075.075 0 0 1-.079.075Zm-.504-.691a.075.075 0 0 1-.081.074l-.755-.029a.084.084 0 0 1-.08-.082v-.006a.076.076 0 0 1 .08-.075l.755.039a.082.082 0 0 1 .081.081Zm-1.357.447a.084.084 0 0 1 .08.082v.006a.076.076 0 0 1-.08.075l-.757-.03a.082.082 0 0 1-.08-.08v-.007a.075.075 0 0 1 .08-.073Zm-.195.361a.074.074 0 0 1 .079-.073l.733.032a.082.082 0 0 1 .079.081v.009a.073.073 0 0 1-.079.073l-.733-.033a.082.082 0 0 1-.079-.08Zm.195.225a.082.082 0 0 1 .08.081v.016a.075.075 0 0 1-.08.074l-.757-.036a.084.084 0 0 1-.08-.081v-.007a.075.075 0 0 1 .08-.073Zm-.195.36a.073.073 0 0 1 .079-.073l.733.036a.082.082 0 0 1 .079.08v.01a.074.074 0 0 1-.079.072l-.733-.036a.082.082 0 0 1-.079-.08Zm.195.225a.084.084 0 0 1 .08.082v.007a.074.074 0 0 1-.08.073l-.757-.038a.084.084 0 0 1-.08-.082v-.006a.075.075 0 0 1 .08-.074Zm-.195.359a.073.073 0 0 1 .079-.072l.733.039a.082.082 0 0 1 .079.08v.01a.074.074 0 0 1-.079.073l-.733-.04a.082.082 0 0 1-.079-.08Zm.195.226a.086.086 0 0 1 .08.083v.006a.075.075 0 0 1-.08.074l-.757-.042a.086.086 0 0 1-.08-.081v-.002a.074.074 0 0 1 .08-.073Zm-.195.359a.073.073 0 0 1 .079-.072l.733.041a.085.085 0 0 1 .079.081v.01a.073.073 0 0 1-.079.072l-.733-.042a.082.082 0 0 1-.079-.08Zm.195.228a.085.085 0 0 1 .08.082v.018a.074.074 0 0 1-.08.072l-.757-.045a.084.084 0 0 1-.08-.081v-.012a.074.074 0 0 1 .08-.073Zm-.195.357a.071.071 0 0 1 .079-.072l.733.044a.084.084 0 0 1 .079.082v.018a.073.073 0 0 1-.079.072l-.733-.045a.082.082 0 0 1-.079-.082Zm.195.228a.086.086 0 0 1 .08.082v.008a.074.074 0 0 1-.08.072l-.757-.048a.085.085 0 0 1-.08-.081v-.008a.073.073 0 0 1 .08-.072Zm1.979.506a.073.073 0 0 1-.079.073l-.732-.047a.085.085 0 0 1-.08-.083v-.01a.073.073 0 0 1 .08-.071l.732.047a.084.084 0 0 1 .079.083Zm1.359.088a.074.074 0 0 1-.079.074l-.733-.048a.084.084 0 0 1-.08-.083v-.01a.073.073 0 0 1 .08-.072l.733.047a.087.087 0 0 1 .079.084Zm0-.598a.075.075 0 0 1-.079.074l-.733-.045a.085.085 0 0 1-.08-.083v-.01a.073.073 0 0 1 .08-.072l.733.044a.085.085 0 0 1 .079.082Zm0-.598a.075.075 0 0 1-.079.074l-.733-.043a.082.082 0 0 1-.08-.082v-.009a.074.074 0 0 1 .08-.074l.733.042a.085.085 0 0 1 .079.082Zm0-.599a.075.075 0 0 1-.079.074l-.733-.039a.084.084 0 0 1-.08-.083v-.006a.074.074 0 0 1 .08-.074l.733.039a.085.085 0 0 1 .079.082Zm0-.599a.075.075 0 0 1-.079.075L5.31 11.2a.084.084 0 0 1-.08-.082v-.009a.074.074 0 0 1 .08-.074l.733.035a.084.084 0 0 1 .079.083Zm0-.598a.076.076 0 0 1-.079.075l-.728-.032a.082.082 0 0 1-.079-.081v-.009a.075.075 0 0 1 .079-.075l.734.033a.084.084 0 0 1 .079.082Zm0-.598a.076.076 0 0 1-.079.075l-.733-.031a.082.082 0 0 1-.08-.081v-.01a.074.074 0 0 1 .08-.074l.733.03a.084.084 0 0 1 .079.081Zm-.892-.642a.075.075 0 0 1 .08-.075l.733.028a.082.082 0 0 1 .079.081v.009a.077.077 0 0 1-.079.076l-.728-.023a.081.081 0 0 1-.079-.081Zm-1.352-.045a.074.074 0 0 1 .079-.074l.732.026a.082.082 0 0 1 .08.081v.01a.075.075 0 0 1-.08.076l-.732-.029a.081.081 0 0 1-.079-.081Zm-1.289-.049a.074.074 0 0 1 .079-.072l.733.026a.082.082 0 0 1 .079.08v.009a.074.074 0 0 1-.079.074l-.733-.028a.081.081 0 0 1-.079-.079Zm-1.28-.047a.074.074 0 0 1 .079-.072l.733.026a.081.081 0 0 1 .079.079v.01a.074.074 0 0 1-.079.073l-.733-.028a.081.081 0 0 1-.079-.079Zm0 .58a.074.074 0 0 1 .079-.073l.733.03a.082.082 0 0 1 .079.08v.009a.074.074 0 0 1-.079.072l-.733-.03a.081.081 0 0 1-.079-.08Zm0 .579a.073.073 0 0 1 .079-.071l.733.032a.082.082 0 0 1 .079.08v.004a.073.073 0 0 1-.079.073l-.733-.033a.081.081 0 0 1-.079-.079Zm0 .58a.073.073 0 0 1 .079-.072l.733.036a.081.081 0 0 1 .079.08v.01a.073.073 0 0 1-.079.071l-.733-.036a.081.081 0 0 1-.079-.079Zm0 .58a.073.073 0 0 1 .079-.071l.733.038a.082.082 0 0 1 .079.081v.008a.073.073 0 0 1-.079.072l-.733-.033a.082.082 0 0 1-.079-.08Zm0 .58a.073.073 0 0 1 .079-.072l.733.042a.082.082 0 0 1 .079.08v.015a.071.071 0 0 1-.079.071l-.733-.042a.082.082 0 0 1-.079-.08Zm0 .579a.071.071 0 0 1 .079-.07l.733.044a.082.082 0 0 1 .079.08v.01a.073.073 0 0 1-.079.072l-.733-.046a.085.085 0 0 1-.079-.081Zm0 .58a.071.071 0 0 1 .079-.071l.733.048a.082.082 0 0 1 .079.081v.009a.073.073 0 0 1-.079.071l-.733-.048a.082.082 0 0 1-.079-.08Zm10.682-.665c-1.429-.009-2.859-.058-4.272-.088-.036 0-.066.02-.066.048v.314c0 .027.027.048.063.049 1.42.031 2.846.059 4.265.057s2.89-.015 4.289-.057c.034 0 .06-.022.06-.047v-.317c0-.027-.028-.049-.065-.047-1.43.053-2.858.099-4.274.088m-.056 3.259h-.009a.093.093 0 0 0-.049.023.063.063 0 0 0-.022.04.06.06 0 0 0 .01.048.07.07 0 0 0 .027.023.09.09 0 0 0 .119-.027.04.04 0 0 0 .008-.02.06.06 0 0 0-.007-.048.044.044 0 0 0-.01-.016c-.007-.007-.018-.02-.11-.131-.053-.067-.096-.122-.096-.125l-.029.018.078.101Zm.211-.098a.129.129 0 0 0-.102-.051.126.126 0 0 0-.1.051.027.027 0 0 0 .005.036.033.033 0 0 0 .017.008.025.025 0 0 0 .024-.011.064.064 0 0 1 .053-.027.067.067 0 0 1 .054.027.03.03 0 0 0 .018.011.022.022 0 0 0 .017 0 .024.024 0 0 0 .012-.034Zm.031-.071a.196.196 0 0 0-.138-.063.191.191 0 0 0-.147.063.025.025 0 0 0 0 .035.03.03 0 0 0 .02.007.027.027 0 0 0 .022-.009.137.137 0 0 1 .199 0 .027.027 0 0 0 .021.009.03.03 0 0 0 .021-.007.025.025 0 0 0 0-.034Zm-.326-.031a.025.025 0 0 0 .02.009.03.03 0 0 0 .021-.009.209.209 0 0 1 .295 0 .031.031 0 0 0 .042 0 .026.026 0 0 0 0-.037.272.272 0 0 0-.379 0 .026.026 0 0 0 0 .037Zm5.447.18a.11.11 0 0 1-.103.11c-1.713.067-3.479.122-5.212.122-1.749 0-3.495-.067-5.238-.142a.081.081 0 0 1-.077-.081v-.504c-1.835-.117-3.694-.285-5.662-.484v.566c.82 1.529 7.266 1.525 10.996 1.525 3.703 0 9.724.153 10.914-1.521 0-.566.051 0 .051-.57-1.843.205-3.748.374-5.669.491ZM1.167 14.565a89.1 89.1 0 0 0 10.827.667 102.5 102.5 0 0 0 10.841-.632.184.184 0 0 0 .065-.346l-1.1-.572a90.6 90.6 0 0 1-9.821.537 89.1 89.1 0 0 1-9.765-.521l-1.098.512a.185.185 0 0 0 .051.355m10.353-3.824v.08l.008-.006h.317l.008.006v-.08l-.013-.018v-.137l.047-.034-.047-.034v-.136l.013-.019v-.079l-.008.005h-.317l-.008-.005v.079l.013.019v.136l-.046.034.046.034v.137Zm-.19 2.777h-.089l-.047.077h.092a.034.034 0 0 0 .034-.021l.019-.028c.003-.014.003-.028-.009-.028m.503-.129a.055.055 0 0 0-.054.029l-.094.153c-.008.014 0 .024.028.024s.039 0 .052-.024l.092-.153c.013-.021-.001-.029-.024-.029m-.425 0h-.089l-.047.078h.092a.034.034 0 0 0 .034-.02l.019-.029c.008-.013.008-.029-.009-.029m-1.075-1.921v.05l.005-.004h.249l.005.004v-.05l-.01-.012v-.086l.037-.02-.037-.022v-.086l.01-.012v-.05l-.005.003h-.249l-.005-.003v.05l.01.012v.086l-.037.022.037.02v.086ZM6.668 9.102v4.718c1.777.131 3.546.16 5.315.16s3.56-.057 5.315-.16V9.102c-1.732.042-3.563.067-5.315.067-1.791 0-3.515-.017-5.315-.067m5.314 2.274v.146l-.076.045h-.247l-.041-.024.041-.023h.084v-.089l.009-.012v-.054l.027-.015-.027-.016v-.055l-.009-.011v-.085h-.084l-.041-.023.041-.023h.247l.076.044v.147l-.036.022Zm-.55-.784.047-.034-.047-.034v-.232l.098-.072h.317l.098.072v.232l-.046.034.046.034v.232l-.098.071h-.317l-.098-.071Zm-.212 0 .046-.034-.046-.034v-.138l.012-.018v-.092l.039-.027.051.037v.232l-.046.034.046.034v.232l-.051.038-.039-.03v-.087l-.012-.018Zm-.076.784.037-.021-.037-.022v-.146l.076-.044h.249l.076.044v.146l-.037.022.037.021v.146l-.04.024-.031-.018v-.054l-.01-.012v-.086l.037-.021-.037-.022v-.086l.01-.012v-.049h-.259v.049l.01.012v.086l-.037.022.037.021v.086l-.01.012v.054l-.03.018-.041-.024Zm-.44 0 .037-.021-.037-.022v-.146l.041-.023.03.017v.054l.01.012v.086l-.037.022.037.021v.086l-.01.012v.049h.259v-.049l-.01-.012v-.086l.037-.021-.037-.022v-.086l.01-.012v-.054l.031-.017.04.023v.146l-.037.022.037.021v.146l-.076.045h-.249l-.076-.045Zm-.439 0 .036-.021-.036-.022v-.146l.076-.044h.248l.076.044v.146l-.036.022.036.021v.146l-.076.045h-.248l-.076-.045Zm-.44-.189.076-.044h.248l.04.023-.04.023h-.248v.049l.01.013v.083H10l.03.019.031-.019h.094l.076.045v.146l-.076.046h-.249l-.039-.025.039-.023h.249v-.049l-.01-.012v-.086h-.089l-.031-.018-.031.018h-.093l-.076-.045Zm1.643 2.363-.038.063a.07.07 0 0 1-.07.038h-.691v-.05h.343l.155-.257h.36a.035.035 0 0 1 .032.056l-.036.062a.08.08 0 0 1-.064.041.031.031 0 0 1 .006.041Zm.383.101h-.329c-.032 0-.048-.023-.03-.05l.124-.206a.119.119 0 0 1 .118-.051h.28c.03 0 .054.024.039.051l-.125.206c-.025.035-.046.045-.079.045Zm.495 0h-.33c-.032 0-.044-.021-.029-.044l.022-.035h.186c-.01.014-.011.029.011.029a.047.047 0 0 0 .046-.025l.03-.052h-.189c-.039 0-.04-.024-.025-.051l.058-.097a.073.073 0 0 1 .072-.032h.33c.033 0 .033.028.02.051l-.019.033h-.188c.01-.018 0-.033-.015-.033s-.029.008-.042.028l-.03.05h.188c.038 0 .045.027.033.051l-.056.09a.08.08 0 0 1-.075.032Zm.646-.186-.03.051h-.247l-.048.077h.248l-.031.05h-.432l.185-.306h.62v.05h-.465l-.045.078Zm3.399-1v.43a.065.065 0 0 1-.062.064c-1.417.057-2.897.075-4.347.078S9.098 13 7.657 12.958a.064.064 0 0 1-.062-.063v-.429a.065.065 0 0 1 .066-.065c1.436.042 2.897.088 4.342.1s2.865-.075 4.322-.101a.065.065 0 0 1 .065.067Zm-4.137-1.1v.054l.01.012v.089h-.08v-.089l.009-.012v-.054l.027-.015-.027-.016v-.055l-.009-.011v-.085h-.085l-.04-.023.04-.023h.248l.04.023-.04.023h-.083v.083l-.01.011v.055l-.026.015Zm.209-.037v-.147l.077-.044h.247l.076.044v.147l-.036.022.036.02v.147l-.076.045h-.247l-.077-.045v-.141l.036-.021Zm1.319.042.036-.02-.036-.022v-.147l.04-.023.03.018v.054l.01.012v.083h.089l.03.019.032-.019h.089v-.083l.01-.012v-.054l.03-.018.04.023v.147l-.036.022.036.02v.147l-.04.024-.03-.019v-.054l-.01-.012v-.08h-.089l-.032-.018-.03.018h-.089v.083l-.01.013v.053l-.03.019-.04-.024Zm-.439 0 .036-.02-.036-.022v-.147l.077-.044h.247l.04.023-.04.023h-.254v.05l.01.012v.086l-.036.022.036.021v.085l-.01.013v.049h.254l.04.023-.04.024h-.247l-.077-.045Zm-.121 0 .036-.02-.036-.022v-.086l.011-.012v-.054l.029-.018.04.023v.147l-.036.022.036.02v.147l-.076.045h-.247l-.076-.045v-.141l.035-.021-.035-.022v-.146l.039-.023.03.017v.054l.01.012v.086l-.036.022.036.021v.086l-.01.012v.049h.261v-.049l-.011-.012Zm-.512-1.084.051-.037.038.027v.087l.014.019v.133h.109l.04.028.04-.028h.11v-.129l.013-.018v-.092l.037-.027.052.037v.232l-.046.034.046.034v.232l-.052.038-.037-.028v-.087l-.013-.018v-.133h-.11l-.04-.029-.04.029h-.118l-.097-.072Zm-.563.3.097-.071h.119l.039.028.041-.028h.11v-.129l.013-.018v-.08h-.322l-.051-.037.051-.037h.318l.097.071v.232l-.097.072h-.12l-.041-.029-.039.029h-.11v.133l-.013.018v.086l.007-.005h.318l.051.037-.051.037h-.32l-.097-.071Zm-.102-.169.056.042-.056.04-.056-.04Zm0 .263.056.042-.056.04-.056-.04Zm-.107.67-.036-.022v-.086l.01-.012v-.05l-.006.003h-.083v.085l-.01.011v.055l-.026.016.026.015v.054l.01.012v.083h.083l.006.004v-.05l-.01-.012v-.086Zm.568 0 .036.02v.086l-.01.012v.05l.007-.004h.247l.006.004v-.05l-.01-.012v-.086l.036-.02-.036-.022v-.086l.01-.012v-.05l-.006.003h-.247l-.007-.003v.05l.01.012v.086ZM1.092 8.572c3.718.204 7.451.365 11.107.356 3.545-.008 7.11-.101 10.635-.367.19 0 .177-.22-.008-.269l-4.179-1.099a1.9 1.9 0 0 0-.244-.046 2.3 2.3 0 0 0-.247-.016c-2.12-.058-4.227-.066-6.328-.058-1.989.008-3.958.051-5.938.104a1.4 1.4 0 0 0-.309.04L1.15 8.341c-.094.023-.11.067-.125.11s-.019.121.067.121"/></svg>