<svg xmlns="http://www.w3.org/2000/svg" viewBox="0 0 24 24"><path fill="#44739e" d="M14.29 3.543a.121.121 0 0 0 .127-.139l-.01-.162.11.133-.103.155h.093l.039-.065.021-.034.027.031.049.06h.093l-.123-.143.104-.151-.094.006-.044.069-.016.026-.019-.024-.051-.063h-.163l.01.171c0 .025 0 .059-.056.062a.052.052 0 0 1-.061-.056l-.011-.169h-.074l.011.169a.118.118 0 0 0 .141.124m-.262-.282h-.068l-.111.301.08-.005.027-.082h.094l.038.077h.081Zm-.046.151.015-.044.021.039Zm1.909.241a.124.124 0 1 0 .122.124.122.122 0 0 0-.122-.124m-1.595.123a.124.124 0 1 0 .122.123.123.123 0 0 0-.122-.123m-1.611.247a.123.123 0 0 1-.123.124.123.123 0 0 1-.123-.124.123.123 0 0 1 .123-.123.123.123 0 0 1 .123.123m-1.711.092a.123.123 0 0 1-.123.123.123.123 0 0 1-.123-.123.123.123 0 0 1 .123-.124.123.123 0 0 1 .123.124m5.159-1.062a.414.414 0 0 0-.565 0 .037.037 0 0 0 0 .055.044.044 0 0 0 .03.012.048.048 0 0 0 .032-.012.318.318 0 0 1 .44 0 .045.045 0 0 0 .062 0 .037.037 0 0 0 0-.055Zm-.283.011a.294.294 0 0 0-.22.091.036.036 0 0 0 0 .054.05.05 0 0 0 .03.011.044.044 0 0 0 .031-.014.21.21 0 0 1 .302 0 .044.044 0 0 0 .031.014.046.046 0 0 0 .031-.011.035.035 0 0 0 0-.054.297.297 0 0 0-.205-.091m.007.12a.188.188 0 0 0-.15.072.037.037 0 0 0 .01.054.044.044 0 0 0 .025.012.042.042 0 0 0 .035-.016.101.101 0 0 1 .08-.04.1.1 0 0 1 .079.04.047.047 0 0 0 .028.016h.007a.04.04 0 0 0 .025-.007.037.037 0 0 0 .012-.059.188.188 0 0 0-.151-.072m-.05.371a.09.09 0 0 0 .012-.029.09.09 0 0 0-.011-.069.066.066 0 0 0-.02-.025c-.01-.008-.026-.028-.156-.19-.079-.098-.143-.178-.144-.181l-.044.026.117.145.133.167h-.014a.14.14 0 0 0-.073.033.1.1 0 0 0-.033.058.08.08 0 0 0 .015.07.094.094 0 0 0 .041.034.136.136 0 0 0 .177-.039m-4.99-.258a.427.427 0 0 0-.317.17.042.042 0 0 0 0 .054.028.028 0 0 0 .024.009.031.031 0 0 0 .023-.012.355.355 0 0 1 .551-.026.032.032 0 0 0 .048 0 .043.043 0 0 0 0-.054.429.429 0 0 0-.329-.141m.007.143a.314.314 0 0 0-.238.136.042.042 0 0 0 0 .053.032.032 0 0 0 .031.009.029.029 0 0 0 .024-.014.242.242 0 0 1 .388-.018.031.031 0 0 0 .049 0 .042.042 0 0 0 0-.054.314.314 0 0 0-.254-.112m.013.143a.199.199 0 0 0-.161.105.042.042 0 0 0 .01.053.036.036 0 0 0 .021.006.035.035 0 0 0 .02-.017.125.125 0 0 1 .22-.01.032.032 0 0 0 .047.006.041.041 0 0 0 .006-.054.199.199 0 0 0-.163-.089m.08.227a.081.081 0 0 0-.079-.083.087.087 0 1 0 .079.083m1.36-.378.137.094-.129.099a.034.034 0 0 0 0 .059.068.068 0 0 0 .042.011.066.066 0 0 0 .04-.013l.073-.056.005.193a.043.043 0 0 0 .035.037.1.1 0 0 0 .025 0 .08.08 0 0 0 .035-.011l.286-.177a.037.037 0 0 0 .02-.036.041.041 0 0 0-.029-.033l-.209-.084.209-.097a.041.041 0 0 0 .028-.033.037.037 0 0 0-.028-.035l-.295-.157a.075.075 0 0 0-.061 0 .044.044 0 0 0-.032.038v.192l-.076-.053a.075.075 0 0 0-.082 0 .034.034 0 0 0 .006.062m.412.221-.129.079v-.133Zm-.008-.262-.129.061V3.32Zm1.512 2.418-.186.474.524-.044.03-.078-.299.026.047-.12.301-.026.03-.078-.299.026.047-.12.563-.048-.007-.076Zm-1.342.29.038-.096c.019-.047-.011-.083-.046-.079l-.44.037-.157.396-.415.035.007.075.837-.07a.088.088 0 0 0 .082-.065l.037-.097a.053.053 0 0 0-.018-.069.095.095 0 0 0 .075-.067m-.206.15-.019.045a.044.044 0 0 1-.04.035l-.11.008.048-.118.11-.01c.016-.001.018.019.011.04m.079-.198-.019.045a.045.045 0 0 1-.039.035l-.111.008.049-.119.11-.009c.015-.002.018.019.01.04m.715-.178-.34.029a.134.134 0 0 0-.136.088l-.125.317c-.017.044 0 .075.042.072l.396-.033c.041 0 .065-.02.092-.083l.124-.318a.052.052 0 0 0-.053-.072m-.181.133-.094.237c-.012.034-.025.038-.059.042s-.046-.011-.037-.033l.095-.238a.063.063 0 0 1 .062-.051c.033 0 .046.011.033.043m.71.013-.22.02.03-.077c.012-.032.025-.044.047-.046s.032.02.022.047l.228-.018.019-.051c.013-.037.01-.077-.031-.074l-.401.034a.081.081 0 0 0-.081.054l-.058.15c-.017.043-.012.077.036.073l.23-.02-.031.082a.056.056 0 0 1-.053.041c-.027 0-.027-.02-.017-.042l-.226.019-.022.056c-.014.035 0 .065.042.062l.397-.035a.092.092 0 0 0 .081-.062l.056-.14c.012-.035 0-.076-.048-.073m5.421-3.475a.719.719 0 0 0-.286-.597h.046l-2.26-.79a2.77 2.77 0 0 0-1.093-.152l-2.015.12-.77.047-5.589.33-.44.026-1.9.11c-.134 0-.161.086-.165.121v.022a.13.13 0 0 1 0-.029c0-.036.031-.119.165-.122a.456.456 0 0 0-.33.125.467.467 0 0 0-.126.319l-.015 18.292a.41.41 0 0 0 .034.138.36.36 0 0 0 .067.131.73.73 0 0 0 .11.141l2.046 1.817v-.022a1.2 1.2 0 0 0 .17.186.942.942 0 0 0 .618.243.8.8 0 0 0 .115-.008l10.644-1.733c.665-.091.88-.416.933-.682v-.015a.9.9 0 0 0 .015-.163V7.212h.009v-.738l.014-3.926Zm-12.823.749.042 18.717-1.615-1.431a.68.68 0 0 1-.119-.22l.009-18.284a.19.19 0 0 1 .048-.131.14.14 0 0 1 .062-.036h.006a.9.9 0 0 0 .146.059l.141.043 1.354.654a1.74 1.74 0 0 0-.074.629m-.969-1.419 10.215-.611a2.5 2.5 0 0 1 .991.137l1.018.356-10.674.626a1.05 1.05 0 0 0-.339.075Zm12.764 18.952L7.709 22.56a.475.475 0 0 1-.347-.102l11.451-1.795a.88.88 0 0 1-.458.162Zm.574-.427v.006L7.148 22.188a.7.7 0 0 1-.053-.174l11.837-1.854Zm0-.476L7.086 21.716v-.173l11.846-1.856Zm0-.473L7.084 21.239v-.198l11.848-1.728Zm0-.373L7.081 20.745v-.182l11.851-1.732Zm0-.482L7.079 20.263v-.172l11.853-1.732Zm0-.472-11.857 1.67v-.221l11.854-1.606Zm0-.394L7.081 19.27v-.183l11.851-1.603Zm0-.48-11.856 1.54v-.173l11.853-1.603Zm0-.471-11.858 1.54v-.254l11.855-1.404Zm0-.354L7.069 17.768v-.182l11.863-1.408Zm0-.479L7.067 17.288v-.172l11.865-1.407Zm0-.471L7.066 16.818v-.188l11.866-1.386Zm0-.466L7.064 16.332v-.182l11.868-1.387Zm0-.48-11.873 1.32v-.172l11.87-1.383Zm0-.47L7.059 15.382v-.166l11.873-1.386Zm0-.465L7.058 14.918v-.182l11.874-1.387Zm0-.48L7.056 14.438v-.171l11.876-1.39Zm0-.469L7.054 13.968v-.22l11.878-1.277Zm0-.409L7.048 13.456v-.182l11.884-1.277Zm0-.479L7.048 12.977v-.173l11.884-1.283Zm0-.469-11.887 1.22v-.22l11.884-1.188Zm0-.423L7.048 11.99v-.182l11.884-1.188Zm0-.479L7.048 11.511v-.197l11.884-1.064Zm0-.369L7.052 11.018v-.173l11.883-1.064Zm0-.471L7.052 10.547v-.169l11.88-1.065Zm0-.466L7.044 10.081v-.092l11.888-1.066Zm0-.391-11.898.998v-.177l11.895-1.065Zm0-.479L7.041 9.213V9.04l11.891-1.065Zm0-.468L7.033 8.743v-.22l2.227-.197c1.468-.08 2.948-.22 4.401-.356.486-.046.974-.095 1.463-.15l3.804-.33Zm-4.922-.348a.044.044 0 0 1-.028.011.04.04 0 0 1-.029-.012.293.293 0 0 0-.407 0 .04.04 0 0 1-.029.012.04.04 0 0 1-.027-.011.035.035 0 0 1 0-.052.373.373 0 0 1 .523 0 .035.035 0 0 1-.008.051Zm-.121.093a.187.187 0 0 0-.139-.061.19.19 0 0 0-.14.061.04.04 0 0 1-.03.012.037.037 0 0 1-.032-.013.035.035 0 0 1 0-.051.273.273 0 0 1 .4 0 .035.035 0 0 1 0 .051.04.04 0 0 1-.029.01.04.04 0 0 1-.035-.01Zm0 .099a.047.047 0 0 1-.033.01.044.044 0 0 1-.026-.015.094.094 0 0 0-.074-.038.09.09 0 0 0-.073.038.041.041 0 0 1-.036.015.044.044 0 0 1-.023-.006.036.036 0 0 1-.009-.052.173.173 0 0 1 .278 0 .037.037 0 0 1-.012.047Zm-.336-.062c.121.154.136.172.145.181a.055.055 0 0 1 .016.019.088.088 0 0 1 .01.066.07.07 0 0 1-.011.027.125.125 0 0 1-.162.043.085.085 0 0 1-.037-.032.084.084 0 0 1-.015-.068.095.095 0 0 1 .032-.054.12.12 0 0 1 .067-.031h.013l-.124-.158-.11-.137.04-.026s.054.076.127.169Zm5.611-1.008c-1.719.253-3.645.484-5.511.65-2.216.198-4.569.408-6.796.44V2.98a.376.376 0 0 1 .349-.336l11.503-.568c.307-.009.426.117.454.475l-.014 3.923ZM7.649 1.908l.456.226 8.068-.476-.73-.25-1.346.085-5.21.315Z"/></svg>