<svg xmlns="http://www.w3.org/2000/svg" viewBox="0 0 24 24"><path fill="#44739e" d="m18.58 7.181.919-.332V8.92l1.853-.663V5.501l-2.772.995Zm-4.633 5.534a3.832 3.832 0 0 0 2.759-3.74 3.427 3.427 0 0 0-1.118-2.382c-.578-.492-1.413-1.074-4.111-1.14-.557-.013-2.252.047-2.252.047v.096a3.817 3.817 0 0 1 1.24 1.672c.258-.008.648-.029 1.033-.008a3.13 3.13 0 0 1 2.043.644 2.134 2.134 0 0 1 .752 1.65 2.248 2.248 0 0 1-1.575 2.148 8.07 8.07 0 0 1-2.115.476v.298a4.3 4.3 0 0 1 1.385 1.248c.597.788 4.061 5.887 4.061 5.887h2.86s-4.62-6.442-4.963-6.892Zm6.303-8.326A2.75 2.75 0 1 0 23 7.139a2.75 2.75 0 0 0-2.75-2.75m0 5.103a2.35 2.35 0 1 1 2.351-2.351 2.35 2.35 0 0 1-2.351 2.351M7.657 11.998a3.345 3.345 0 0 0 1.805-3.032c0-1.523-.904-3.537-4.691-3.537-1.594 0-3.342.051-3.771.064v14.113h3.132c4.11 0 6.284-1.514 6.284-4.381a3.211 3.211 0 0 0-2.759-3.227m-2.86 5.642H3.192V7.246c.022 0 .72-.009 1.153-.009 1.789 0 2.781.925 2.808 2.2a2.266 2.266 0 0 1-.996 2.055 4.19 4.19 0 0 1-1.54.576v.336a9.02 9.02 0 0 1 1.87.478 2.468 2.468 0 0 1 1.529 2.497c.014 1.733-1.663 2.261-3.221 2.261Z"/></svg>