<svg xmlns="http://www.w3.org/2000/svg" viewBox="0 0 24 24"><path fill="#44739e" d="M17.5 4.667c-.507 0-.917-.41-.917-.917s.41-.917.917-.917.917.41.917.917-.41.917-.917.917M12 8.333c2.025 0 3.667 1.642 3.667 3.667S14.025 15.667 12 15.667 8.333 14.025 8.333 12 9.975 8.333 12 8.333m0 9.167c-3.033 0-5.5-2.467-5.5-5.5S8.967 6.5 12 6.5s5.5 2.467 5.5 5.5-2.467 5.5-5.5 5.5M5.583 3.75c0-.507.41-.917.917-.917s.917.41.917.917-.41.917-.917.917-.917-.41-.917-.917M12 2.833c.507 0 .917.41.917.917s-.41.917-.917.917-.917-.41-.917-.917.41-.917.917-.917M19.333 1H4.667C2.65 1 1 2.65 1 4.667v14.666C1 21.35 2.65 23 4.667 23h14.666C21.35 23 23 21.35 23 19.333V4.667C23 2.65 21.35 1 19.333 1"/></svg>