<svg xmlns="http://www.w3.org/2000/svg" viewBox="0 0 24 24"><path fill="#44739e" d="M21.728 1.067H2.554a1.04 1.04 0 0 0-.684.255l-.511.44A1.043 1.043 0 0 0 1 2.554v19.103a1.276 1.276 0 0 0 1.276 1.276h19.241a1.045 1.045 0 0 0 .788-.359l.44-.512a1.036 1.036 0 0 0 .255-.683V2.343a1.276 1.276 0 0 0-1.272-1.276m-5.721.912h1.02v.632h-1.02ZM4.388 9.39h15.129v.391H4.388Zm13.236 3.514v.393h-1.203v.406h-.406V12.11h1.609v.405h-1.203v.393Zm-1.957 0v.393h-1.204v.406h-.406V12.11h1.61v.405h-1.204v.393Zm-1.944-.794v1.596h-1.611V12.11Zm-3.148.405v1.191h-.406V12.11h1.613v1.596h-.412v-1.194Zm-2.431-1.624.135-.11a.508.508 0 0 1 .118.36.497.497 0 0 1-.132.299l-.128-.103a.34.34 0 0 0 .082-.171.355.355 0 0 0-.075-.278Zm.081 1.219h1.61v1.596h-1.61Zm.535-1.116a.94.94 0 0 1-.196.679l-.132-.099a.717.717 0 0 0 .175-.538.696.696 0 0 0-.178-.387l.124-.124a.9.9 0 0 1 .207.466Zm-.05-.587.128-.11a1.267 1.267 0 0 1 .011 1.612l-.124-.096a1.054 1.054 0 0 0-.015-1.409Zm-.814 1.703v1.596H6.281V13.3h1.197v-.785H6.281V10.9h1.615v.405H6.693v.805Zm11.671 3.349H4.437v-.39h15.13Zm0-12.845h-1.02v-.635h1.02ZM8.63 12.512h.799v.785H8.63Zm3.889 0h.799v.785h-.799Z"/></svg>