<svg xmlns="http://www.w3.org/2000/svg" viewBox="0 0 24 24"><path fill="#44739e" d="M12 16.583c-2.527 0-4.583-2.056-4.583-4.583S9.473 7.417 12 7.417 16.583 9.473 16.583 12 14.527 16.583 12 16.583M5.227 8.214c-.505 0-.917-.41-.917-.917 0-.505.412-.916.917-.916.507 0 .916.411.916.916 0 .507-.409.917-.916.917M3.75 12.917c-.507 0-.917-.41-.917-.917s.41-.917.917-.917.917.41.917.917-.41.917-.917.917m5.418-9.595c.506 0 .916.41.916.917s-.41.916-.916.916-.917-.409-.917-.916.41-.917.917-.917M12 9.25c1.519 0 2.75 1.231 2.75 2.75s-1.231 2.75-2.75 2.75S9.25 13.519 9.25 12 10.481 9.25 12 9.25M12 1C5.95 1 1 5.95 1 12s4.95 11 11 11 11-4.95 11-11S18.05 1 12 1"/></svg>