<svg xmlns="http://www.w3.org/2000/svg" viewBox="0 0 24 24"><path fill="#44739e" d="M21.453 10.602c-1.124 0-1.724.631-1.747 1.447a1.77 1.77 0 0 0-1.794-1.463 1.77 1.77 0 0 0-1.77 1.448 1.43 1.43 0 0 0-1.409-1.448 1.23 1.23 0 0 0-.885.362V9.809h-.847v2.54l-.008.254c-.054.524-.408.786-.793.786-.4 0-.77-.185-.77-.786l-.023-.215v-.947h1.317v-.801h-1.309v-.831h-.855v2.232a1.809 1.809 0 0 0-3.171-.793v-.646h-.1c-1.101 0-1.694.616-1.732 1.401a1.694 1.694 0 0 0-1.679-1.401 1.54 1.54 0 0 0-1.054.431V9.801H2v2.587c.015 1.001.708 1.801 1.786 1.801.924 0 1.594-.6 1.771-1.401v1.317h.846v-1.871c.023-.524.347-.824.87-.832a1.809 1.809 0 1 0 3.295 1.325c0 .877.693 1.462 1.54 1.462.354 0 .662-.154.9-.4v.308h.847v-1.894c.023-.577.362-.824.732-.824s.692.247.692.816l.008.139v1.771h.862v-1.332c.154.862.893 1.424 1.771 1.424a1.66 1.66 0 0 0 1.701-1.301h-.831a.92.92 0 0 1-.87.6c-.462 0-.855-.308-.955-.831h2.749v1.447h.846v-1.647l.008-.231c.016-.516.354-.816.893-.816h.093v-.816ZM3.778 13.373a.98.98 0 0 1-.985-.985c0-.539.431-.986.993-.986s.985.432.985.986a.98.98 0 0 1-.993.985m5.004 0a.98.98 0 0 1-.97-.985c-.008-.539.416-.986.978-.986s.985.432.985.986a.98.98 0 0 1-.985.985m8.214-1.385a.96.96 0 0 1 .916-.693c.539 0 .847.431.916.693Zm4.149 1.747c0 .231.193.423.424.423a.423.423 0 1 0 0-.846.423.423 0 0 0-.424.423m.054 0a.37.37 0 1 1 .739 0 .37.37 0 0 1-.739 0"/><path fill="#44739e" d="M21.453 13.543h.17q.1 0 .092.084 0 .093-.092.093h-.17Zm0 .231h.17q.077 0 .077.1v.053l.023.062h.077v-.008l-.031-.061v-.069q-.015-.077-.062-.108.077-.023.077-.131 0-.123-.154-.139h-.246v.508h.069Z"/></svg>