<svg xmlns="http://www.w3.org/2000/svg" viewBox="0 0 24 24"><path fill="#44739e" d="M12 23a11 11 0 1 1 11-11 11 11 0 0 1-11 11m0-3.437A7.563 7.563 0 1 0 4.437 12 7.563 7.563 0 0 0 12 19.563m-.679-13.93c.299-.02.601-.034.901-.044v1.85h-.9q0-.903-.001-1.806m2.166 1.834V5.766a6.57 6.57 0 0 1 4.033 2.997 6.38 6.38 0 0 1 .455 5.54 6.518 6.518 0 0 1-4.492 3.93v-1.689a4.96 4.96 0 0 0 2.778-.812 2.901 2.901 0 0 0 .736-2.822 2.014 2.014 0 0 0-1.579-1.376 2.11 2.11 0 0 0 .34-3.3 4.28 4.28 0 0 0-2.271-.767m-6.012-.024a7.55 7.55 0 0 1 2.616-1.56v1.592c-.873 0-1.747.011-2.619-.032ZM6.456 8.81c.254-.476.655-.854.906-1.331a.264.264 0 0 1 .049.212 8.7 8.7 0 0 0 .064 1.082 7.15 7.15 0 0 1 1.335.057.55.55 0 0 1 .411.584c.015 1.592 0 3.183.009 4.774-.013.278.056.614-.186.817a4.27 4.27 0 0 1-1.291.074 4.47 4.47 0 0 0-.291 1.423c.88.049 1.754.017 2.629.026v1.589A6.52 6.52 0 0 1 6.17 14.64a6.369 6.369 0 0 1 .286-5.83m4.902.069a4.6 4.6 0 0 1 2.285.314 1.002 1.002 0 0 1 .055 1.65 4.24 4.24 0 0 1-2.339.383V8.88Zm0 3.608a5.577 5.577 0 0 1 2.805.37 1.05 1.05 0 0 1 .09 1.734 5.63 5.63 0 0 1-2.895.499v-2.602Zm-.036 4.07h.94v1.848q-.471-.012-.941-.041.001-.898.001-1.802Z"/></svg>