<svg xmlns="http://www.w3.org/2000/svg" fill="#44739e" viewBox="0 0 24 24"><path d="M12 22a10 10 0 1 1 10-10 10 10 0 0 1-10 10m0-3.125A6.875 6.875 0 1 0 5.125 12 6.875 6.875 0 0 0 12 18.875m-.617-12.663c.272-.018.546-.031.819-.04v1.682h-.818q0-.821-.001-1.642m1.969 1.667V6.333a5.974 5.974 0 0 1 3.666 2.724 5.8 5.8 0 0 1 .414 5.037 5.925 5.925 0 0 1-4.084 3.572v-1.535a4.51 4.51 0 0 0 2.526-.738 2.637 2.637 0 0 0 .669-2.566 1.831 1.831 0 0 0-1.436-1.251 1.918 1.918 0 0 0 .309-3 3.89 3.89 0 0 0-2.064-.697m-5.466-.022a6.86 6.86 0 0 1 2.379-1.418v1.447c-.794 0-1.589.01-2.381-.029zM6.96 9.1c.231-.433.595-.776.824-1.21a.24.24 0 0 1 .044.193 7.9 7.9 0 0 0 .058.983 6.5 6.5 0 0 1 1.214.052.5.5 0 0 1 .374.531c.013 1.447 0 2.894.008 4.34-.012.253.051.558-.169.743a3.88 3.88 0 0 1-1.174.067 4.06 4.06 0 0 0-.264 1.294c.8.044 1.594.015 2.39.023v1.445A5.926 5.926 0 0 1 6.7 14.4a5.79 5.79 0 0 1 .26-5.3m4.456.063a4.184 4.184 0 0 1 2.078.285.911.911 0 0 1 .05 1.5 3.854 3.854 0 0 1-2.127.348V9.164Zm0 3.28a5.07 5.07 0 0 1 2.55.336.955.955 0 0 1 .082 1.576 5.12 5.12 0 0 1-2.632.454v-2.365zm-.032 3.7h.854v1.68q-.428-.011-.855-.038.001-.816.001-1.638z"/></svg>