<svg xmlns="http://www.w3.org/2000/svg" viewBox="0 0 24 24"><path fill="#44739e" d="m7.172 6.204.17.043a17.287 15.242 0 0 0 4.644.462 17.328 15.277 0 0 0 4.641-.461l.206-.104.074-.126c.4-.664 1.47-2.433.129-3.475-1.18-.918-3.903-1.002-5.089-.988-1.116-.012-3.844.069-5.021.988-1.338 1.041-.271 2.81.161 3.532Zm.322-3.255a8.179 7.211 0 0 1 3.36-.823 8.438 7.44 0 0 1 1.171.016 7.968 7.026 0 0 1 4.445.807c.845.662.16 1.944-.254 2.639a17.123 15.097 0 0 1-4.23.401 17.122 15.096 0 0 1-4.232-.395 6.813 6.007 0 0 1-.523-1.084 1.652 1.457 0 0 1 .259-1.561Zm4.501 4.301a24.92 24.92 0 0 1-5.045-.501 28.35 28.35 0 0 1 1.407 8.348.915.915 0 0 0 .229.631l.398.455a25.2 25.2 0 0 0 3.014.17 25.3 25.3 0 0 0 3.02-.17l.395-.448a.913.913 0 0 0 .222-.63 28.43 28.43 0 0 1 1.398-8.349 25.03 25.03 0 0 1-5.038.494m-1.637 14.019-.243.243a6.39 6.39 0 0 0 3.764-.365l-.121-.121a6.49 6.49 0 0 1-3.4.243m.847 1.087a2.98 2.98 0 0 0 1.46 0c0-.122.243-.365.365-.487h-2.19a1.69 1.69 0 0 1 .365.487m-1.934-5.569.455 2.83a.834.834 0 0 0 .272.52h4.004a.823.823 0 0 0 .275-.52l.455-2.83c-.95.094-1.989.122-2.734.122s-1.787-.028-2.727-.122m1.086 3.751-.244.243a7.62 7.62 0 0 0 3.773-.243 11.46 11.46 0 0 1-3.529 0M1.767 8.319a12.45 12.45 0 0 0 3.351.378 12.36 12.36 0 0 0 1.874-.098q-.076-.29-.157-.581a12.4 12.4 0 0 1-1.717.094 12.35 12.35 0 0 1-3.055-.324 5.05 5.05 0 0 1-.373-.893 1.191 1.191 0 0 1 .187-1.278 5.926 5.926 0 0 1 3.269-.66 5.6 5.6 0 0 1 .83-.009h.047a7.7 7.7 0 0 1-.178-.461c-.292-.014-.552-.016-.752-.014a6.39 6.39 0 0 0-3.623.811c-.965.852-.195 2.301.121 2.891l.058.106Zm3.423.818a17.45 17.45 0 0 1-3.529-.35 19.87 19.87 0 0 1 .985 5.841.63.63 0 0 0 .16.44l.278.319a17.8 17.8 0 0 0 2.111.122 17.8 17.8 0 0 0 2.114-.122l.276-.313a.64.64 0 0 0 .155-.442q.015-.868.105-1.73a29.6 29.6 0 0 0-.669-3.872 17.4 17.4 0 0 1-1.986.107M4.045 19.196l-.17.17a4.47 4.47 0 0 0 2.634-.256l-.088-.077a4.54 4.54 0 0 1-2.376.163m.593.76a2.07 2.07 0 0 0 1.02 0c0-.085.17-.254.255-.339h-1.53a1.18 1.18 0 0 1 .255.339m-1.354-3.897.318 1.979a.588.588 0 0 0 .19.365h2.799a.578.578 0 0 0 .193-.365l.318-1.979c-.665.065-1.392.088-1.913.088s-1.247-.023-1.905-.088m.76 2.624-.171.171a5.32 5.32 0 0 0 2.636-.171 7.98 7.98 0 0 1-2.465 0m11.37-11.847a2.3 2.3 0 0 1-.072-.345 2.3 2.3 0 0 0 .072.345m7.114-1.615a6.46 6.46 0 0 0-3.672-.809c-.194 0-.453 0-.749.015-.057.163-.121.319-.184.466.047 0 .093-.009.139-.011a6 6 0 0 1 .852.012 5.6 5.6 0 0 1 .83-.011 5.74 5.74 0 0 1 2.378.672c.608.541.121 1.59-.183 2.16a12.34 12.34 0 0 1-3.053.328 12.3 12.3 0 0 1-1.756-.094c-.053.193-.106.386-.156.578a12.4 12.4 0 0 0 1.912.105 12.47 12.47 0 0 0 3.349-.377l.143-.087.056-.105c.289-.541 1.061-1.989.094-2.842m-5.704 3.802a29.2 29.2 0 0 0-.644 3.665q.111.965.129 1.947a.63.63 0 0 0 .161.44l.278.319a17.8 17.8 0 0 0 2.111.122 17.8 17.8 0 0 0 2.113-.122l.275-.313a.633.633 0 0 0 .156-.441 19.92 19.92 0 0 1 .974-5.841 17.44 17.44 0 0 1-3.529.346 17.2 17.2 0 0 1-2.024-.122m.886 10.173-.172.17a4.47 4.47 0 0 0 2.635-.256l-.085-.084a4.54 4.54 0 0 1-2.378.17m.593.76a2.07 2.07 0 0 0 1.019 0c0-.085.171-.254.256-.339h-1.53a1.18 1.18 0 0 1 .255.339m-1.353-3.897.317 1.979a.588.588 0 0 0 .19.365h2.799a.578.578 0 0 0 .193-.365l.318-1.979c-.666.065-1.392.088-1.913.088s-1.247-.023-1.904-.088m.759 2.624-.172.171a5.32 5.32 0 0 0 2.636-.171 7.97 7.97 0 0 1-2.464 0"/></svg>