<svg xmlns="http://www.w3.org/2000/svg" viewBox="0 0 24 24"><path fill="#44739e" d="m12.874 18.484.53 2.914c0 .265 0 .265.265.53l.53.265.53.53a.973.973 0 0 0 .792.27h.795a.973.973 0 0 0 .795-.265l.53-.53.53-.265c.265-.265.265-.265.265-.53l.53-2.914h-6.092m8.745-16.165C20.03 1 16.054 1 15.789 1S11.55 1 9.961 2.325c-1.319 1.325-.265 3.709.265 4.509a22.83 22.83 0 0 0 5.564.795 25.16 25.16 0 0 0 5.559-.801c.53-.795 1.59-3.179.265-4.508m-5.828 6.094a36.2 36.2 0 0 1-5.034-.53c1.325 3.975 1.59 7.419 1.325 8.479 0 .265 0 .53.265.53l.264.53c.795 0 1.855.265 3.18.265a12.9 12.9 0 0 0 3.18-.265l.265-.265a.82.82 0 0 0 .265-.53 38.38 38.38 0 0 1 1.32-8.479c-1.589 0-3.709.265-5.034.265M5.455 18.484a.57.57 0 0 0 .53.53.57.57 0 0 0 .53-.53v-1.056c-.53 0-.795-.265-1.06-.265v1.32ZM9.693 8.419v-.795a.26.26 0 0 1-.265-.265.26.26 0 0 0-.265-.265 6.74 6.74 0 0 1-.53-1.855H7.31c-2.649 0-5.034.53-5.564 1.32v.269c0 .795 2.65 1.59 5.564 1.59h2.383m.53 1.855a11.4 11.4 0 0 0-.265-1.319 9.94 9.94 0 0 1-2.65.265 16.64 16.64 0 0 1-5.034-.795 6.565 6.565 0 0 0 2.12 3.974 1.16 1.16 0 0 1 .265.795v2.385a.973.973 0 0 0 .265.795 3.808 3.808 0 0 0 2.384.53c1.325 0 1.855-.265 2.12-.53a.973.973 0 0 0 .265-.795v-2.39c0-.53 0-.53.265-.795l.53-.529a3.365 3.365 0 0 0-.265-1.59m-2.383 8.21a.53.53 0 0 0 1.06 0v-1.319a2.74 2.74 0 0 1-1.06.265Z"/></svg>