<svg xmlns="http://www.w3.org/2000/svg" fill="#44739e" viewBox="0 0 24 24"><path d="M9.5732 13.208c1.887.597 4.639.792 6.427.792s4.54-.195 6.427-.792c-.768 2.018-2.1 2.911-2.417 4.792-.138.819-.255 1.963-.177 2.801.049.533-.357 1.001-.89 1.055-.864.089-1.846.144-2.943.144-1.098 0-2.079-.055-2.944-.144-.533-.054-.938-.522-.889-1.055.078-.838-.039-1.982-.177-2.801-.317-1.881-1.649-2.774-2.417-4.792M13 22.8623c1.041.101 2.187.138 3 .138s1.959-.037 3-.138l-.501 3.108c-.026.218-.132.42-.3.573l-.467.424c-.031.029-.06.06-.087.092l-.494.583c-.19.226-.479.358-.786.358h-.73c-.307 0-.596-.132-.786-.358l-.494-.583a1.1 1.1 0 0 0-.087-.092l-.467-.424c-.168-.153-.274-.355-.3-.573zM16 4c3.853 0 7 3.332 7 6.5 0 .289-.055.543-.085.805-.031.256-.074.47-.127.707-1.09.46-3.404.988-6.788.988s-5.698-.528-6.788-.988c-.053-.237-.096-.451-.127-.707-.03-.262-.085-.516-.085-.805C9 7.332 12.147 4 16 4"/></svg>