<svg xmlns="http://www.w3.org/2000/svg" fill="#44739e" viewBox="0 0 24 24"><path d="M12.79 14.09c-1.41-.45-3.48-.59-4.82-.59s-3.41.14-4.82.59c.57-1.51 1.57-2.18 1.81-3.59.11-.61.19-1.47.13-2.1-.04-.4.27-.75.67-.79.65-.07 1.38-.11 2.21-.11s1.56.04 2.21.11c.4.04.7.39.66.79-.06.63.03 1.49.13 2.1.24 1.41 1.24 2.08 1.82 3.59m-2.57-7.24c-.78-.07-1.64-.1-2.25-.1s-1.47.03-2.25.1l.38-2.33c.02-.16.1-.32.23-.43l.35-.32c.02-.02.05-.04.07-.07l.37-.44c.12-.16.34-.26.57-.26h.55c.23 0 .45.1.59.27l.37.44c.02.02.04.05.07.07l.35.32c.12.11.21.27.23.43zM7.97 21c-2.89 0-5.25-2.5-5.25-4.88 0-.21.04-.41.06-.61.02-.19.06-.35.1-.53.82-.35 2.55-.74 5.09-.74s4.27.4 5.09.75c.04.18.07.34.1.53.02.2.06.39.06.61 0 2.37-2.36 4.87-5.25 4.87m3.47-13.77c.01.02.02.04.04.05.56-.04 1.14-.06 1.57-.06.52 0 1.26.03 1.94.09l-.32-2c-.02-.14-.09-.28-.2-.37l-.3-.28c-.03-.02-.04-.04-.06-.06l-.32-.38c-.12-.15-.31-.23-.51-.23h-.47c-.2 0-.39.09-.49.22L12 4.6c-.02.03-.04.04-.06.06l-.3.28c-.11.09-.18.23-.2.37l-.27 1.67c.1.06.19.15.27.25m6.07 7.54c-.03-.16-.05-.3-.09-.46-.63-.27-1.9-.57-3.73-.63.01.02.02.03.02.05.04.1.21.66.31 1.04v.01c.04.15.06.27.06.31v.01c.02.09.04.17.05.27 0 .02.01.04.01.06.01.05.01.11.02.16.02.15.05.33.05.55 0 1.14-.46 2.33-1.24 3.34.02 0 .04.01.06.01 2.49 0 4.52-2.15 4.52-4.19.02-.2-.02-.36-.04-.53m-4.46-6.9c-.46 0-.87.02-1.26.04.05.19.07.39.05.58-.05.51.03 1.29.12 1.84.1.58.39 1.01.76 1.56.22.33.47.7.69 1.14 1.14.02 2.69.15 3.79.5-.5-1.3-1.36-1.88-1.57-3.09-.09-.52-.16-1.26-.11-1.81.03-.34-.22-.65-.57-.68-.56-.05-1.19-.08-1.9-.08m8.18 6.21c-.02-.14-.05-.26-.08-.4-.55-.23-1.63-.49-3.2-.55.01.03.03.06.04.09.03.08.18.57.27.89v.01c.03.13.06.23.05.26v.01c.01.07.03.15.04.23 0 .02 0 .03.01.05 0 .05.01.09.02.14.02.13.04.29.04.47 0 .23-.03.46-.07.68-.01.04-.01.07-.02.11-.05.23-.11.45-.19.68-.01.02-.02.04-.02.06-.19.48-.45.95-.79 1.37 2.17 0 3.94-1.88 3.94-3.66.01-.15-.02-.29-.04-.44m-4.86-5.36c-.04.44.03 1.11.1 1.58.08.5.34.87.65 1.35.18.27.38.58.57.92.99.02 2.31.13 3.26.43-.44-1.13-1.19-1.64-1.37-2.7-.08-.46-.14-1.1-.1-1.58.03-.3-.2-.56-.5-.59-.49-.05-1.04-.08-1.66-.08-.37 0-.71.01-1.04.03.09.21.12.42.09.64m-.44-1.17c.5-.04 1.02-.05 1.4-.05.46 0 1.1.02 1.69.08l-.28-1.74c-.02-.12-.08-.24-.17-.32l-.26-.24-.05-.05-.28-.33c-.11-.13-.27-.2-.44-.2h-.41c-.17 0-.34.08-.43.2l-.28.3-.05.05-.27.24c-.1.08-.16.2-.17.32l-.25 1.53c.09.06.17.13.25.21"/></svg>