<svg xmlns="http://www.w3.org/2000/svg" fill="#44739e" viewBox="0 0 24 24"><path d="M16.3425 24.0066c1.215.116 2.552.16 3.5.16.949 0 2.285-.044 3.5-.16l-.584 3.625c-.03.255-.154.491-.35.669l-.545.495c-.036.033-.071.069-.102.107l-.575.681c-.223.263-.561.416-.917.416h-.853c-.357 0-.695-.153-.917-.416l-.575-.681a1.04 1.04 0 0 0-.103-.107l-.544-.495c-.197-.178-.32-.414-.351-.669zm-9.1133-2.1318c.904.087 1.897.119 2.604.119.706 0 1.7-.032 2.603-.119l-.436 2.363c-.023.19-.116.366-.26.498l-.406.368a.8.8 0 0 0-.077.08l-.427.506c-.165.196-.416.31-.682.31h-.635c-.265 0-.516-.114-.681-.31l-.428-.506a1 1 0 0 0-.077-.08l-.406-.368c-.145-.132-.237-.308-.259-.498zm19.958-18.244c1.779 1.637.16 4.65-.384 5.726-1.465.426-3.809.81-6.966.81-3.155 0-5.5-.384-6.964-.81-.544-1.076-2.165-4.089-.385-5.726 1.902-1.749 7.029-1.629 7.349-1.629.322 0 5.449-.12 7.35 1.629m-7.3496 7.702c1.777 0 4.368-.166 6.459-.645-1.584 4.922-1.855 9.425-1.801 10.707.012.295-.089.578-.284.802l-.515.589c-1.108.131-2.395.214-3.859.214s-2.75-.083-3.859-.214l-.515-.589c-.194-.224-.296-.507-.283-.802.053-1.282-.217-5.785-1.801-10.707 2.091.479 4.682.645 6.458.645m-7.1533.4971c-.813.104-1.765.17-2.854.17-2.254 0-3.93-.281-4.976-.596-.389-.79-1.545-3.004-.274-4.206 1.358-1.285 5.02-1.197 5.25-1.197.063 0 .395-.006.863.012.122 1.497.863 2.853 1.232 3.687 0 0 .244.592.502 1.295.09.279.176.558.257.835m.2627.9404c.236.891.431 1.759.592 2.586-.442 2.167-.535 3.915-.509 4.54.009.204-.061.397-.194.552l-.354.404c-.763.09-1.646.147-2.652.147s-1.891-.057-2.653-.147l-.353-.404c-.134-.155-.203-.348-.195-.552.037-.881-.149-3.975-1.238-7.356 1.437.328 3.218.442 4.439.442.865 0 2.011-.062 3.117-.212"/></svg>