<svg xmlns="http://www.w3.org/2000/svg" fill="#44739e" viewBox="0 0 24 24"><path d="M10.1 16.1c-.8.1-1.5.1-2.2.1-.9 0-1.7 0-2.6-.1 0 .2-.1.4-.1.6-.1.3 0 .7.3.9l.3 2c0 .2.1.3.2.4l.4.3.1.1.4.4c.1.2.3.3.5.3H8c.2 0 .5-.1.6-.3l.4-.4v-.1l.4-.3c.1-.1.2-.3.2-.4l.3-2c.3-.2.4-.6.3-.9 0-.2-.1-.4-.1-.6m7.9.9c-.9.1-1.9.2-2.7.2-1.1 0-2.1-.1-3.2-.2 0 .2-.1.5-.2.7-.1.4 0 .9.3 1.1l.4 2.5c0 .2.1.4.3.5l.4.4.1.1.5.5c.2.2.5.3.7.3h.7c.3 0 .6-.1.7-.3l.5-.5.1-.1.4-.4c.2-.1.3-.3.3-.5l.4-2.5c.3-.3.5-.7.3-1.1zm3.7-10.1C21.7 4 20.9.8 15 .8c-3.2 0-4.8.9-5.7 2.3-.8 1.1-1 2.6-1 3.9 0 2.2 1.2 5.8 3.1 8.1.3.4.6.7.9 1 0 0 .6.2 2.7.2s2.7-.2 2.7-.2c.3-.3.6-.6.9-1 1.9-2.3 3.1-5.9 3.1-8.1zm-6.4-.2c-2.9 0-4.7.1-6 .2 0-1 .1-2 .6-2.9.1-.2.3-.5.5-.7.8-.9 2.2-1.5 4.7-1.5 4.9 0 5.7 2.4 5.7 5.1-1.3-.2-3-.2-5.5-.2m-7.6 8.8c1.7 0 2.2-.2 2.2-.2.1-.1.1-.2.2-.2-1.6-2.3-2.6-5.3-2.8-7.4-2 0-3.3.1-4.3.1 0-2.2.6-4.1 4.6-4.1h.1c.2-.3.3-.5.4-.8h-.4c-4.8 0-5.4 2.7-5.4 5 0 1.8 1 4.7 2.5 6.6.2.3.5.6.7.8 0 0 .5.2 2.2.2"/></svg>