<svg xmlns="http://www.w3.org/2000/svg" viewBox="0 0 24 24"><path fill="#44739e" d="M18.366 6.748a.529.529 0 0 0-.696-.23.513.513 0 0 0-.268.302.504.504 0 0 0 .031.395 1.716 1.716 0 0 1 .192.79 1.87 1.87 0 0 1-3.73 0 1.786 1.786 0 0 1 .891-1.524.508.508 0 0 0 .228.33.541.541 0 0 0 .718-.144l.462-.675c.01-.014.018-.029.022-.037l.025-.047a.5.5 0 0 0 .034-.11.4.4 0 0 0 .006-.056v-.046l-.01-.083c0-.017-.006-.031-.009-.042l-.016-.062c0-.014-.012-.027-.016-.037l-.088-.125-.021-.02-.711-.553a.531.531 0 0 0-.728.077.51.51 0 0 0-.063.562 2.839 2.839 0 0 0-1.771 2.592 2.913 2.913 0 0 0 5.823 0 2.72 2.72 0 0 0-.305-1.257M8.887 21.311c-.016.575 1.203 1.743 2.375 1.687 1.171.056 2.39-1.112 2.374-1.686a4.117 4.117 0 0 1-4.749-.001m4.55-.992a4.086 4.086 0 0 1-4.35 0c-.169-.102-.302-.072-.302.083v.186a.653.653 0 0 0 .302.477 4.086 4.086 0 0 0 4.35 0 .653.653 0 0 0 .302-.477v-.186c0-.152-.133-.185-.302-.083m0-1.118a4.086 4.086 0 0 1-4.35 0c-.169-.103-.302-.073-.302.082v.186a.653.653 0 0 0 .302.478 4.086 4.086 0 0 0 4.35 0 .653.653 0 0 0 .302-.478v-.186c0-.155-.133-.185-.302-.082m0-1.119a4.086 4.086 0 0 1-4.35 0c-.169-.102-.302-.073-.302.082v.186a.653.653 0 0 0 .302.478 4.086 4.086 0 0 0 4.35 0 .653.653 0 0 0 .302-.478v-.19c0-.151-.133-.18-.302-.078M12.096 7.744a3.654 3.654 0 0 1 4.535-3.555A6.001 6.001 0 0 0 5.329 6.988a6.135 6.135 0 0 0 .8 2.99A22.16 22.16 0 0 1 8.405 16.4c.458 2.082 2.873 1.901 2.873 1.901s2.515 0 2.703-1.883a16.25 16.25 0 0 1 1.789-5.014h-.01a3.664 3.664 0 0 1-3.664-3.66"/></svg>