<svg xmlns="http://www.w3.org/2000/svg" viewBox="0 0 24 24"><path fill="#44739e" d="M1.001 5.971v15.366a.962.962 0 0 0 .904.904H5.22a.8.8 0 0 0 .904-.904V5.971c0-3.315 2.41-4.219 3.314-4.219H5.22a4.12 4.12 0 0 0-4.219 4.219m3.315 13.558a.962.962 0 0 1-.904.904.8.8 0 0 1-.904-.904.962.962 0 0 1 .904-.904.8.8 0 0 1 .904.904m0-4.218a.8.8 0 0 1-.904.904.8.8 0 0 1-.904-.904.8.8 0 0 1 .904-.904.962.962 0 0 1 .904.904m0-4.218a.8.8 0 0 1-.904.904.8.8 0 0 1-.904-.904.8.8 0 0 1 .904-.904.8.8 0 0 1 .904.904m0-4.219a.8.8 0 0 1-.904.904.962.962 0 0 1-.904-.904 1.357 1.357 0 0 1 .904-.903.798.798 0 0 1 .904.903m3.314-.903v15.366a.962.962 0 0 0 .904.904h3.314a.8.8 0 0 0 .904-.904V5.971c0-3.315 2.411-4.219 3.315-4.219h-4.219A4.31 4.31 0 0 0 7.63 5.971m3.314 13.558a.962.962 0 0 1-.904.904.8.8 0 0 1-.904-.904.962.962 0 0 1 .904-.904.8.8 0 0 1 .904.904m0-4.218a.8.8 0 0 1-.904.904.8.8 0 0 1-.904-.904.8.8 0 0 1 .904-.904.962.962 0 0 1 .904.904m0-4.218a.962.962 0 0 1-.904.904.8.8 0 0 1-.904-.904.8.8 0 0 1 .904-.904.8.8 0 0 1 .904.904m0-4.219a.8.8 0 0 1-.904.904.8.8 0 0 1-.9-.904.962.962 0 0 1 .904-.903.962.962 0 0 1 .904.903m3.616-.903v15.366a.962.962 0 0 0 .904.904h3.313a.962.962 0 0 0 .904-.904V5.971c0-3.315 2.411-4.219 3.315-4.219h-4.222a4.12 4.12 0 0 0-4.218 4.219m3.314 13.558a.962.962 0 0 1-.903.904.8.8 0 0 1-.904-.904.962.962 0 0 1 .904-.904.798.798 0 0 1 .903.904m0-4.218a.798.798 0 0 1-.903.904.8.8 0 0 1-.904-.904.8.8 0 0 1 .904-.904.962.962 0 0 1 .903.904m0-4.218a.962.962 0 0 1-.903.904.8.8 0 0 1-.904-.904.8.8 0 0 1 .904-.904.798.798 0 0 1 .903.904m0-4.219a.798.798 0 0 1-.903.904.8.8 0 0 1-.904-.904.798.798 0 0 1 .904-.903.798.798 0 0 1 .903.903"/></svg>