<svg xmlns="http://www.w3.org/2000/svg" viewBox="0 0 24 24"><path fill="#44739e" d="M16.87 12.217c-1.426-.455-3.52-.596-4.875-.596s-3.449.141-4.875.596c.576-1.527 1.588-2.205 1.83-3.631.112-.617.193-1.487.132-2.124-.041-.405.273-.759.678-.799.657-.071 1.395-.111 2.235-.111s1.578.04 2.235.111c.405.04.708.394.668.799-.061.637.03 1.507.131 2.124.243 1.426 1.255 2.104 1.841 3.631m-2.599-7.323c-.789-.071-1.659-.101-2.276-.101s-1.487.03-2.276.101l.384-2.357c.021-.161.102-.323.233-.434l.354-.324c.02-.02.051-.041.071-.071l.374-.445c.122-.162.344-.263.577-.263h.556c.233 0 .455.101.597.273l.374.445c.02.02.041.051.071.071l.354.324c.121.111.212.273.233.435Zm-2.276 14.313c-2.923 0-5.31-2.529-5.31-4.936 0-.213.04-.415.06-.617.021-.192.061-.354.101-.536.83-.354 2.58-.749 5.149-.749s4.319.405 5.148.759c.041.182.071.344.102.536.02.202.06.394.06.617 0 2.397-2.387 4.926-5.31 4.926m1.75.748c-.556.162-1.133.263-1.75.263-.597 0-1.184-.091-1.75-.263a5.07 5.07 0 0 1-1.548 1.376C9.446 22.292 10.64 23 11.995 23s2.549-.708 3.297-1.669c-.617-.354-1.143-.84-1.547-1.376m-7.738-3.904c-1.76.04-2.974.314-3.571.577-.03.141-.06.263-.081.414s-.05.314-.05.476c0 1.861 1.851 3.823 4.117 3.823 1.315 0 2.488-.678 3.236-1.598-1.679-.688-3.054-2.074-3.651-3.692m-.334-1.78c0-.213.02-.395.041-.557.01-.05.01-.111.02-.171.02-.162.05-.294.071-.415.01-.041.01-.081.02-.122 0-.01 0-.03.01-.04l.02-.071v-.01c.091-.415.243-.86.314-1.032.162-.414.344-.768.526-1.092-.091 0-.182-.01-.284-.01q-.971 0-1.729.091c-.314.03-.556.303-.526.617.05.495-.02 1.163-.101 1.649-.192 1.102-.971 1.628-1.416 2.812.92-.294 2.174-.415 3.186-.446a4.85 4.85 0 0 1-.152-1.203m1.396-4.087c.04-.06.081-.131.121-.192.334-.506.597-.92.719-1.436l-.011-.122c-.02-.131-.091-.252-.182-.343l-.273-.253c-.03-.01-.04-.031-.06-.051l-.284-.344c-.111-.131-.283-.212-.465-.212h-.435c-.182 0-.354.081-.445.202l-.293.344c-.01.03-.031.04-.051.061l-.273.242a.58.58 0 0 0-.182.334l-.293 1.831c.607-.051 1.284-.081 1.76-.081.192.01.414.01.647.02m14.565 6.858c-.02-.151-.05-.273-.08-.414-.597-.253-1.821-.537-3.581-.577-.587 1.558-1.902 2.994-3.631 3.702.758.921 1.911 1.588 3.236 1.588 2.266 0 4.117-1.962 4.117-3.813-.01-.182-.04-.324-.061-.486m-3.823-5.189c.04.101.212.668.314 1.052v.01c.04.152.06.274.06.314v.01c.021.091.041.172.051.273 0 .02.01.041.01.061.01.05.01.111.02.162.02.151.051.334.051.556 0 .395-.061.799-.162 1.194 1.011.03 2.266.151 3.196.445-.455-1.184-1.234-1.71-1.426-2.812-.081-.476-.152-1.153-.101-1.649.03-.314-.202-.587-.516-.617-.506-.051-1.082-.091-1.73-.091-.101 0-.192.01-.283.01.172.314.364.668.516 1.082m-1.022-1.861.122.182c.232-.01.465-.01.647-.01.476 0 1.153.02 1.76.081l-.293-1.821c-.02-.121-.091-.253-.182-.333l-.253-.253-.051-.051-.293-.344c-.111-.131-.283-.212-.465-.212h-.435c-.182 0-.354.081-.445.202l-.294.344-.05.051-.273.252a.58.58 0 0 0-.182.334l-.031.172c.132.506.395.911.718 1.406"/></svg>