<svg xmlns="http://www.w3.org/2000/svg" fill="#44739e" viewBox="0 0 24 24"><path d="m12.793 17.9.482 2.65c0 .241 0 .241.241.482l.482.241.482.482a.885.885 0 0 0 .72.245h.723a.885.885 0 0 0 .723-.241l.482-.482.482-.241c.241-.241.241-.241.241-.482l.482-2.65h-5.54m7.952-14.7C19.3 2 15.685 2 15.444 2s-3.855 0-5.3 1.205c-1.2 1.205-.241 3.373.241 4.1a20.76 20.76 0 0 0 5.06.723A22.88 22.88 0 0 0 20.5 7.3c.482-.723 1.446-2.891.241-4.1m-5.3 5.542a32.9 32.9 0 0 1-4.578-.482c1.205 3.615 1.446 6.747 1.205 7.711 0 .241 0 .482.241.482l.24.482c.723 0 1.687.241 2.892.241a11.73 11.73 0 0 0 2.892-.241l.241-.241a.746.746 0 0 0 .241-.482 34.9 34.9 0 0 1 1.2-7.711c-1.445 0-3.373.241-4.578.241M6.046 17.9a.518.518 0 0 0 .482.482.518.518 0 0 0 .482-.482v-.96c-.482 0-.723-.241-.964-.241v1.2zM9.9 8.747v-.723a.236.236 0 0 1-.241-.241.236.236 0 0 0-.241-.241 6.13 6.13 0 0 1-.482-1.687H7.733c-2.409 0-4.578.482-5.06 1.2V7.3c0 .723 2.41 1.446 5.06 1.446H9.9m.482 1.687a10.4 10.4 0 0 0-.241-1.2 9.04 9.04 0 0 1-2.41.241 15.13 15.13 0 0 1-4.578-.723 5.97 5.97 0 0 0 1.928 3.614 1.056 1.056 0 0 1 .241.723v2.169a.885.885 0 0 0 .241.723 3.463 3.463 0 0 0 2.168.482c1.205 0 1.687-.241 1.928-.482a.885.885 0 0 0 .241-.723v-2.173c0-.482 0-.482.241-.723l.482-.481a3.06 3.06 0 0 0-.241-1.446M8.215 17.9a.482.482 0 0 0 .964 0v-1.2a2.49 2.49 0 0 1-.964.241z"/></svg>