<svg xmlns="http://www.w3.org/2000/svg" viewBox="0 0 24 24"><path fill="#44739e" d="M10.783 13.779c-.118.723-.225 1.743-.154 2.49.048.474-.308.889-.783.937-.77.083-1.636.13-2.62.13s-1.85-.047-2.621-.13c-.474-.048-.842-.463-.795-.937.072-.747-.023-1.767-.154-2.49-.284-1.672-1.47-2.467-2.146-4.257 1.672.533 4.127.699 5.716.699s4.044-.166 5.716-.699c-.688 1.79-1.874 2.585-2.159 4.257m-1.328 7.079c-.024.19-.13.38-.273.51l-.415.38c-.035.023-.059.059-.083.083l-.438.522c-.166.201-.427.32-.7.32h-.652c-.273 0-.534-.119-.676-.309l-.439-.521c-.024-.036-.059-.06-.083-.083l-.415-.38c-.154-.13-.249-.32-.273-.51l-.45-2.763c.925.083 1.944.119 2.668.119s1.743-.036 2.668-.119Zm3.996-13.756c0 .261-.047.487-.071.724-.035.225-.071.415-.118.628-.973.415-3.024.89-6.036.89s-5.064-.463-6.036-.878c-.048-.213-.095-.403-.119-.628C1.047 7.6 1 7.363 1 7.114c0-2.822 2.799-5.787 6.226-5.787s6.225 2.965 6.225 5.775M11.02 17.953l.321 1.98c.023.166.106.332.237.439l.356.332c.023.024.047.036.071.071l.379.463c.119.154.344.261.581.261h.558c.237 0 .462-.095.604-.273l.38-.451c.024-.023.035-.047.071-.071l.356-.332c.13-.107.213-.273.237-.439l.379-2.371c-.806.071-1.683.106-2.3.106-.51 0-1.198-.023-1.862-.071-.024.012-.035.036-.047.06-.095.118-.202.225-.321.296m7.566-9.866c0-2.419-2.407-4.969-5.36-4.969-.024 0-.047.012-.071.012.925 1.198 1.47 2.609 1.47 3.961 0 .26-.035.474-.059.652-.012.059-.012.13-.024.19 0 .023-.011.047-.011.071-.012.118-.036.213-.06.32v.012c0 .047-.023.189-.071.367v.012c-.118.451-.32 1.115-.367 1.233 0 .024-.012.036-.024.06 2.17-.071 3.676-.427 4.423-.747.048-.19.071-.356.107-.546.024-.201.071-.391.047-.628m-3.083 8.716c.415-.036.712-.403.676-.807-.059-.652.024-1.529.13-2.146.249-1.435 1.269-2.123 1.862-3.664-1.304.415-3.142.569-4.494.593-.261.521-.558.96-.818 1.351-.439.653-.783 1.163-.902 1.85-.106.653-.201 1.578-.142 2.182.024.226 0 .463-.059.688.462.024.948.048 1.494.048.842 0 1.589-.036 2.253-.095m7.495-7.791c0-2.111-2.099-4.341-4.673-4.341.404.498.712 1.056.937 1.625 0 .024.012.047.024.071.095.273.166.534.225.807.012.047.012.083.024.13.047.261.083.534.083.806 0 .214-.024.404-.047.558-.012.059-.024.106-.024.166-.012.023-.012.035-.012.059-.012.095-.036.19-.047.273v.012c.011.035-.024.154-.06.308v.012c-.107.379-.284.96-.32 1.055-.012.036-.036.071-.047.107 1.861-.071 3.142-.379 3.794-.652.036-.166.071-.309.095-.475.024-.177.06-.343.048-.521m-5.918 7.637c.392.023.795.035 1.234.035.735 0 1.387-.035 1.968-.095.356-.035.629-.344.593-.699-.047-.57.024-1.329.119-1.874.213-1.257 1.102-1.862 1.624-3.202-1.126.356-2.692.486-3.866.51-.225.403-.462.771-.676 1.091-.367.569-.676 1.008-.77 1.601-.083.557-.166 1.352-.119 1.874.036.26 0 .51-.107.759m-.711.877.296 1.814c.012.143.083.285.202.38l.32.285.059.059.332.356c.107.142.309.237.51.237h.486c.202 0 .392-.083.522-.237l.332-.392.06-.059.308-.285c.107-.095.178-.237.201-.379l.332-2.064c-.699.072-1.458.095-2.004.095-.45 0-1.067-.012-1.66-.059-.095.095-.19.178-.296.249"/></svg>