<svg xmlns="http://www.w3.org/2000/svg" fill="#44739e" viewBox="0 0 24 24"><path d="M16.82 9.91c-1.1.35-2.59.51-3.83.57l2.25 2.25c.4-.94 1.12-1.62 1.58-2.82m.27-.9c.04-.18.07-.34.1-.53.02-.2.06-.39.06-.61C17.25 5.5 14.89 3 12 3c-1.77 0-3.34.94-4.29 2.21l4.55 4.54c2.39-.03 4.04-.41 4.83-.74m-7.34 8.14.38 2.33c.02.16.1.32.23.43l.35.32c.02.02.05.04.07.07l.37.44c.13.16.35.26.58.26h.55c.23 0 .45-.1.59-.27l.37-.44c.02-.02.04-.05.07-.07l.35-.32c.12-.11.21-.27.23-.43l.38-2.33c-.78.07-1.64.1-2.25.1s-1.49-.02-2.27-.09m12.23 3.79L2.86 1.87 1.45 3.28l5.4 5.39c.02.11.04.23.06.34.12.05.27.11.44.16l1.02 1.02c-.42-.08-.83-.17-1.19-.28.58 1.51 1.57 2.18 1.81 3.59.11.61.19 1.47.13 2.1-.04.4.27.75.67.79.65.07 1.38.11 2.21.11s1.56-.04 2.21-.11c.1-.01.2-.04.29-.09l6.08 6.06z"/></svg>