<svg xmlns="http://www.w3.org/2000/svg" viewBox="0 0 24 24"><path fill="#44739e" d="M17.574 12.173c1.578-.395 2.565-.987 2.762-1.677.099-.099.099-.296.099-.395V4.675c0-.099 0-.296-.099-.395-.296-.69-1.282-1.282-2.959-1.677-3.749-.986-9.668-.986-13.417 0C2.283 3.096 1.296 3.59 1 4.28v3.65s0 2.467.099 2.664c.296.691 1.184 1.184 2.762 1.677 1.874.494 4.341.79 6.906.79 2.466-.198 4.933-.395 6.807-.888M3.072 9.213c0-.296.592-.691 2.17-1.085 1.48-.395 3.453-.493 5.525-.493 1.973 0 3.946.197 5.524.493 1.579.394 2.171.789 2.171 1.085s-.493.691-2.072 1.085c-3.058.789-8.09.789-11.247 0-1.578-.296-2.071-.789-2.071-1.085m19.632 6.215c-.197-.493-.987-.986-2.269-1.282-2.861-.789-7.399-.789-10.26 0-1.283.296-2.072.789-2.269 1.282 0 .099-.099.198-.099.296v2.467s0 1.874.099 2.071c.197.494.888.888 2.17 1.283 1.48.394 3.354.592 5.328.592 1.874 0 3.847-.198 5.327-.592 1.184-.296 1.973-.789 2.17-1.283 0-.098.099-.197.099-.296v-4.242c-.296-.098-.296-.197-.296-.296m-3.157 4.637c-2.368.592-6.215.592-8.583 0-1.184-.296-1.578-.592-1.578-.789s.493-.592 1.677-.888 2.663-.395 4.242-.395c1.48 0 3.058.099 4.242.395 1.283.296 1.677.592 1.677.888-.098.197-.493.592-1.677.789"/></svg>