<svg xmlns="http://www.w3.org/2000/svg" fill="#44739e" viewBox="0 0 24 24"><path d="m16.91 16.05.29 1.83c.02.13.08.25.18.34l.27.25c.02.02.04.03.05.05l.29.34c.11.14.28.21.46.21h.43c.18 0 .35-.08.46-.21l.29-.34c.02-.02.03-.04.05-.05l.27-.25c.1-.09.16-.21.18-.34l.29-1.83c-.61.06-1.29.08-1.77.08s-1.13-.02-1.74-.08m1.77-11.12c-.43 0-.83.09-1.22.21.5.83.8 1.77.8 2.74 0 .21-.03.39-.05.54-.01.05-.02.11-.02.19-.03.23-.07.42-.11.62-.01.02-.01.05-.02.07l-.27.9v.01c.29.01.58.02.9.02 2 0 3.36-.31 4-.58.03-.14.06-.26.08-.41.02-.16.05-.31.05-.48-.01-1.87-1.87-3.83-4.14-3.83m-1.14 5.85c-.25.52-.53.94-.78 1.33-.2.29-.37.55-.5.82.02.08.05.16.06.25.08.48.15 1.16.1 1.65-.03.31.21.59.53.62.51.05 1.09.09 1.73.09.65 0 1.23-.03 1.73-.09.31-.03.55-.31.53-.62-.05-.49.02-1.17.1-1.65.19-1.11.97-1.64 1.42-2.82-1.11.35-2.74.47-3.79.47-.32-.01-.72-.03-1.13-.05M7.18 9.91c1.41.45 3.48.59 4.82.59s3.41-.14 4.82-.59c-.57 1.51-1.57 2.18-1.81 3.59-.11.61-.19 1.47-.13 2.1.04.4-.27.75-.67.79-.65.07-1.38.11-2.21.11s-1.56-.04-2.21-.11c-.4-.04-.7-.39-.66-.79.06-.63-.03-1.49-.13-2.1-.24-1.41-1.24-2.08-1.82-3.59m2.57 7.24c.78.07 1.64.1 2.25.1s1.47-.03 2.25-.1l-.38 2.33c-.02.16-.1.32-.23.43l-.35.32c-.02.02-.05.04-.07.07l-.37.44c-.12.16-.34.26-.57.26h-.55c-.23 0-.45-.1-.59-.27l-.37-.44c-.02-.02-.04-.05-.07-.07l-.35-.32c-.12-.11-.21-.27-.23-.43zM12 3c2.89 0 5.25 2.5 5.25 4.88 0 .21-.04.41-.06.61-.02.19-.06.35-.1.53-.82.35-2.55.74-5.09.74s-4.27-.4-5.09-.75c-.04-.18-.07-.34-.1-.53-.02-.2-.06-.39-.06-.61C6.75 5.5 9.11 3 12 3M5.35 16.13c-.48 0-1.16-.02-1.77-.08l.29 1.83c.02.13.08.25.18.34l.27.25c.02.01.03.03.05.05l.29.34c.11.13.28.21.46.21h.43c.18 0 .35-.07.46-.21l.29-.34c.01-.02.03-.03.05-.05l.27-.25c.1-.09.16-.21.18-.34l.29-1.83c-.61.06-1.26.08-1.74.08M1.18 8.76c0 .17.03.32.05.48.02.15.05.27.08.41.64.27 2 .58 4 .58.32 0 .61-.01.9-.02v-.01l-.27-.9c-.01-.02-.01-.05-.02-.07-.04-.2-.08-.39-.11-.62 0-.08-.01-.14-.02-.19-.02-.15-.05-.33-.05-.54 0-.97.3-1.91.8-2.74-.39-.12-.79-.21-1.22-.21-2.27 0-4.13 1.96-4.14 3.83m4.15 2.07c-1.05 0-2.68-.12-3.79-.47.45 1.18 1.23 1.71 1.42 2.82.08.48.15 1.16.1 1.65-.02.31.22.59.53.62.5.06 1.08.09 1.73.09.64 0 1.22-.04 1.73-.09.32-.03.56-.31.53-.62-.05-.49.02-1.17.1-1.65.01-.09.04-.17.06-.25-.13-.27-.3-.53-.5-.82-.25-.39-.53-.81-.78-1.33-.41.02-.81.04-1.13.05"/></svg>