<svg xmlns="http://www.w3.org/2000/svg" fill="#44739e" viewBox="0 0 24 24"><path d="m8.017 7.3578.1397.035a14.2068 12.5256 0 0 0 3.816.3798 14.2398 12.5547 0 0 0 3.814-.3789l.1698-.0855.0602-.1035c.3288-.5456 1.2086-1.9995.1067-2.8556-.97-.7543-3.2078-.8236-4.1827-.8124-.9167-.0095-3.1584.0573-4.1264.8124-1.099.8552-.2222 2.3091.1329 2.9026Zm.2648-2.6751a6.7212 5.9259 0 0 1 2.7607-.6765 6.9346 6.114 0 0 1 .9622.0128 6.5485 5.7736 0 0 1 3.653.6637c.6946.5439.132 1.5975-.2085 2.1688a14.072 12.4067 0 0 1-3.4765.3293 14.071 12.4059 0 0 1-3.4775-.325 5.5989 4.9364 0 0 1-.4297-.8903 1.358 1.1973 0 0 1 .2124-1.2828ZM11.98 8.217a20.48 20.48 0 0 1-4.146-.412 23.3 23.3 0 0 1 1.157 6.861.752.752 0 0 0 .188.518l.327.374a20.7 20.7 0 0 0 2.477.14 20.8 20.8 0 0 0 2.482-.14l.324-.368a.75.75 0 0 0 .183-.518 23.36 23.36 0 0 1 1.149-6.861 20.57 20.57 0 0 1-4.141.406m-1.345 11.521-.2.2a5.25 5.25 0 0 0 3.094-.3l-.1-.1a5.335 5.335 0 0 1-2.794.2m.696.893a2.45 2.45 0 0 0 1.2 0c0-.1.2-.3.3-.4h-1.8a1.39 1.39 0 0 1 .3.4m-1.589-4.576.374 2.325a.685.685 0 0 0 .223.428h3.291a.676.676 0 0 0 .226-.428l.374-2.325c-.781.077-1.635.1-2.247.1s-1.469-.023-2.241-.1m.892 3.082-.2.2a6.26 6.26 0 0 0 3.1-.2 9.42 9.42 0 0 1-2.9 0M3.5746 9.0953a10.23 10.23 0 0 0 2.754.311 10.16 10.16 0 0 0 1.54-.081q-.062-.238-.129-.477a10.2 10.2 0 0 1-1.411.077 10.15 10.15 0 0 1-2.51-.266 4.15 4.15 0 0 1-.307-.734.979.979 0 0 1 .154-1.05 4.87 4.87 0 0 1 2.686-.543 4.6 4.6 0 0 1 .682-.007h.039c-.051-.12-.1-.247-.146-.379-.24-.011-.454-.013-.618-.011a5.25 5.25 0 0 0-2.978.666c-.793.7-.16 1.891.1 2.376l.047.087zm2.8134.6727a14.34 14.34 0 0 1-2.9-.288 16.33 16.33 0 0 1 .809 4.8.518.518 0 0 0 .132.362l.228.262a14.6 14.6 0 0 0 1.735.1 14.6 14.6 0 0 0 1.737-.1l.227-.257a.525.525 0 0 0 .128-.363q.012-.714.086-1.422a24.3 24.3 0 0 0-.55-3.182 14.3 14.3 0 0 1-1.632.088m-.941 8.266-.14.14a3.675 3.675 0 0 0 2.165-.21L7.4 17.9a3.73 3.73 0 0 1-1.953.134m.487.625a1.7 1.7 0 0 0 .839 0c0-.07.139-.209.209-.279H5.725a.97.97 0 0 1 .209.279m-1.112-3.203.261 1.627a.483.483 0 0 0 .156.3h2.3a.475.475 0 0 0 .159-.3l.261-1.627c-.546.054-1.144.073-1.572.073s-1.025-.019-1.565-.073m.624 2.157-.14.14a4.374 4.374 0 0 0 2.166-.14 6.56 6.56 0 0 1-2.026 0m9.344-9.736a1.9 1.9 0 0 1-.059-.284 1.9 1.9 0 0 0 .059.284m5.8464-1.3271a5.307 5.307 0 0 0-3.018-.665c-.159 0-.372 0-.615.012-.047.134-.1.262-.151.383.038 0 .076-.007.114-.009a4.9 4.9 0 0 1 .7.01 4.6 4.6 0 0 1 .682-.009 4.72 4.72 0 0 1 1.954.552c.5.445.1 1.307-.15 1.775a10.14 10.14 0 0 1-2.509.27 10.1 10.1 0 0 1-1.443-.077c-.044.158-.087.317-.128.475a10.2 10.2 0 0 0 1.571.086 10.25 10.25 0 0 0 2.752-.31l.118-.071.046-.087c.237-.444.872-1.634.077-2.335M15.949 9.674a24 24 0 0 0-.529 3.012q.091.793.106 1.6a.518.518 0 0 0 .132.362l.228.262a14.6 14.6 0 0 0 1.735.1 14.6 14.6 0 0 0 1.737-.1l.226-.257a.52.52 0 0 0 .128-.363 16.37 16.37 0 0 1 .8-4.8 14.33 14.33 0 0 1-2.9.284 14.1 14.1 0 0 1-1.663-.1m.728 8.36-.141.14a3.674 3.674 0 0 0 2.165-.21l-.07-.069a3.73 3.73 0 0 1-1.954.139m.487.625a1.7 1.7 0 0 0 .838 0c0-.07.14-.209.21-.279h-1.257a.97.97 0 0 1 .209.279m-1.112-3.203.261 1.627a.483.483 0 0 0 .156.3h2.3a.475.475 0 0 0 .159-.3l.261-1.627c-.547.054-1.144.073-1.572.073s-1.025-.019-1.565-.073m.624 2.157-.141.14a4.37 4.37 0 0 0 2.166-.14 6.55 6.55 0 0 1-2.025 0"/></svg>