<svg xmlns="http://www.w3.org/2000/svg" viewBox="0 0 24 24"><path fill="#44739e" d="M17.779 2.281c1.398 1.285.125 3.653-.302 4.498-1.152.336-2.997.637-5.477.637s-4.324-.301-5.477-.637c-.427-.845-1.7-3.213-.301-4.498C7.717.907 11.748 1.001 12 1.001c.253 0 4.283-.094 5.779 1.28M12 8.333c1.396 0 3.434-.131 5.078-.507-1.245 3.867-1.459 7.405-1.417 8.411.01.234-.069.455-.222.632l-.404.462c-.873.104-1.884.169-3.035.169s-2.162-.065-3.035-.169l-.404-.462c-.153-.177-.232-.398-.222-.632.042-1.006-.172-4.544-1.417-8.411 1.644.376 3.682.507 5.078.507M9.252 18.29c.955.093 2.006.127 2.752.127s1.796-.034 2.752-.127l-.46 2.849c-.024.2-.121.385-.275.525l-.428.389q-.0435.0405-.081.084l-.452.535c-.174.207-.44.328-.722.328h-.669c-.281 0-.546-.121-.72-.328l-.454-.535a1 1 0 0 0-.08-.084l-.428-.389c-.154-.14-.252-.325-.276-.525Z"/></svg>