<svg xmlns="http://www.w3.org/2000/svg" viewBox="0 0 24 24"><path fill="#44739e" d="M1.753 3.337c-.489.147-.753.362-.753.616v8.067c0 .244.235.449.714.596.459.137 1.066.215 1.711.215.635 0 1.281-.078 1.77-.215.557-.156.841-.381.841-.655V7.668l.645.646v7.001c0 .205.156.489.909.723.626.186 1.457.294 2.347.294.88 0 1.76-.108 2.425-.294.714-.205 1.085-.479 1.085-.802v-.156l.743.743v3.716c0 .293.372.586 1.115.821.841.254 1.965.391 3.119.391q.337 0 .675-.029l1.3 1.3 1.379-1.378L3.102 1.978Zm1.76 3.667c-1.183 0-1.799-.304-1.799-.431V5.009c.391.215 1.095.362 1.799.362.068 0 .137-.01.205-.02L5.107 6.74c-.264.127-.802.264-1.594.264m6.561-1.008c1.017 0 2.034-.215 2.532-.537.02-.02.039-.01.049 0s.01.029.01.029v2.288c0 .235-.626.528-1.682.645l2.464 2.464V4.051c.01-.303-.323-.558-.987-.753-.597-.176-1.399-.264-2.269-.264-.86 0-1.682.098-2.327.264-.753.195-1.164.489-1.183.821l1.652 1.653c.509.136 1.115.224 1.741.224M8.02 4.266c0-.03.108-.176.636-.294.841-.205 2.171-.205 2.953-.009.43.107.518.234.518.254 0 .039-.107.166-.577.283-.87.216-2.278.216-3.07 0-.381-.097-.46-.205-.46-.234m13.738-.763c-.811-.235-1.897-.352-3.002-.352-1.095 0-2.219.117-3.089.352-.968.254-1.477.606-1.477.958v7.158l8.311 8.311-.176.176c.44-.206.675-.44.675-.675V4.364c-.01-.313-.43-.626-1.242-.861m-5.123.587c1.173-.274 2.972-.274 4.067 0 1.115.283 1.095.743-.088 1.036-1.202.303-3.119.303-4.224 0-1.085-.293-.948-.762.245-1.036m5.622 5.299c0 .607-1.643 1.095-3.667 1.095s-3.666-.488-3.666-1.095v-3.08c0-.176.195-.273.342-.176.586.372 1.848.695 3.324.695s2.738-.323 3.325-.695c.146-.097.342 0 .342.176Z"/></svg>