<svg xmlns="http://www.w3.org/2000/svg" fill="#44739e" viewBox="0 0 24 24"><path d="M10.97 13.5c-.1.61-.19 1.47-.13 2.1.04.4-.26.75-.66.79-.65.07-1.38.11-2.21.11s-1.56-.04-2.21-.11c-.4-.04-.71-.39-.67-.79.06-.63-.02-1.49-.13-2.1-.24-1.41-1.24-2.08-1.81-3.59 1.41.45 3.48.59 4.82.59s3.41-.14 4.82-.59c-.58 1.51-1.58 2.18-1.82 3.59m-1.12 5.97c-.02.16-.11.32-.23.43l-.35.32c-.03.02-.05.05-.07.07l-.37.44c-.14.17-.36.27-.59.27h-.55c-.23 0-.45-.1-.57-.26l-.37-.44c-.02-.03-.05-.05-.07-.07l-.35-.32c-.13-.11-.21-.27-.23-.43l-.38-2.33c.78.07 1.64.1 2.25.1s1.47-.03 2.25-.1zm3.37-11.6c0 .22-.04.41-.06.61-.03.19-.06.35-.1.53-.82.35-2.55.75-5.09.75s-4.27-.39-5.09-.74c-.04-.18-.08-.34-.1-.53-.02-.2-.06-.4-.06-.61C2.72 5.5 5.08 3 7.97 3s5.25 2.5 5.25 4.87m-2.05 9.15.27 1.67c.02.14.09.28.2.37l.3.28c.02.02.04.03.06.06l.32.39c.1.13.29.22.49.22h.47c.2 0 .39-.08.51-.23l.32-.38c.02-.02.03-.04.06-.06l.3-.28c.11-.09.18-.23.2-.37l.32-2c-.68.06-1.42.09-1.94.09-.43 0-1.01-.02-1.57-.06-.02.01-.03.03-.04.05-.08.1-.17.19-.27.25m6.38-8.32c0-2.04-2.03-4.19-4.52-4.19-.02 0-.04.01-.06.01.78 1.01 1.24 2.2 1.24 3.34 0 .22-.03.4-.05.55-.01.05-.01.11-.02.16 0 .02-.01.04-.01.06-.01.1-.03.18-.05.27v.01c0 .04-.02.16-.06.31v.01c-.1.38-.27.94-.31 1.04 0 .02-.01.03-.02.05 1.83-.06 3.1-.36 3.73-.63.04-.16.06-.3.09-.46.02-.17.06-.33.04-.53m-2.6 7.35c.35-.03.6-.34.57-.68-.05-.55.02-1.29.11-1.81.21-1.21 1.07-1.79 1.57-3.09-1.1.35-2.65.48-3.79.5-.22.44-.47.81-.69 1.14-.37.55-.66.98-.76 1.56-.09.55-.17 1.33-.12 1.84.02.19 0 .39-.05.58.39.02.8.04 1.26.04.71 0 1.34-.03 1.9-.08m6.32-6.57c0-1.78-1.77-3.66-3.94-3.66.34.42.6.89.79 1.37 0 .02.01.04.02.06.08.23.14.45.19.68.01.04.01.07.02.11.04.22.07.45.07.68 0 .18-.02.34-.04.47-.01.05-.02.09-.02.14-.01.02-.01.03-.01.05-.01.08-.03.16-.04.23v.01c.01.03-.02.13-.05.26v.01c-.09.32-.24.81-.27.89-.01.03-.03.06-.04.09 1.57-.06 2.65-.32 3.2-.55.03-.14.06-.26.08-.4.02-.15.05-.29.04-.44m-4.99 6.44c.33.02.67.03 1.04.03.62 0 1.17-.03 1.66-.08.3-.03.53-.29.5-.59-.04-.48.02-1.12.1-1.58.18-1.06.93-1.57 1.37-2.7-.95.3-2.27.41-3.26.43-.19.34-.39.65-.57.92-.31.48-.57.85-.65 1.35-.07.47-.14 1.14-.1 1.58.03.22 0 .43-.09.64m-.6.74.25 1.53c.01.12.07.24.17.32l.27.24.05.05.28.3c.09.12.26.2.43.2h.41c.17 0 .33-.07.44-.2l.28-.33.05-.05.26-.24c.09-.08.15-.2.17-.32l.28-1.74c-.59.06-1.23.08-1.69.08-.38 0-.9-.01-1.4-.05-.08.08-.16.15-.25.21"/></svg>