<svg xmlns="http://www.w3.org/2000/svg" viewBox="0 0 24 24"><path fill="#44739e" d="M17.471 9.637c-1.179.375-2.776.547-4.105.611l2.411 2.411c.429-1.007 1.201-1.736 1.694-3.022m.289-.964c.043-.193.075-.365.107-.568.021-.215.064-.418.064-.654 0-2.54-2.529-5.219-5.626-5.219-1.896 0-3.579 1.008-4.597 2.369l4.876 4.865c2.561-.032 4.329-.44 5.176-.793m-7.866 8.723.408 2.496c.021.172.107.343.246.461l.375.343c.021.021.054.043.075.075l.397.472c.139.171.375.278.621.278h.589c.247 0 .483-.107.633-.289l.396-.472c.022-.021.043-.053.075-.075l.375-.343c.129-.117.225-.289.247-.46l.407-2.497c-.836.075-1.757.107-2.411.107s-1.597-.021-2.433-.096M23 21.457 2.511 1.021 1 2.532l5.787 5.776c.021.118.043.247.064.365.129.053.289.118.471.171l1.093 1.093c-.45-.086-.889-.182-1.275-.3.622 1.618 1.683 2.336 1.94 3.847.118.654.203 1.575.139 2.251-.043.428.29.803.718.846.697.075 1.479.118 2.368.118s1.672-.043 2.369-.118a.82.82 0 0 0 .31-.096l6.516 6.494Z"/></svg>