<svg xmlns="http://www.w3.org/2000/svg" fill="#44739e" viewBox="0 0 24 24"><path d="M8.1699 10.0847c2.05.62 5 .915 7.83.915s5.78-.295 7.83-.915l-3.619 4.278c-.35.412-.548.931-.565 1.471l-.144 5.114c-.016.517-.422.933-.938.968-.79.053-1.644.084-2.564.084s-1.773-.031-2.563-.084c-.517-.035-.923-.451-.939-.968l-.143-5.114a2.394 2.394 0 0 0-.566-1.471zM25 6.653v.951c0 .352-.062.698-.181 1.024C23.554 9.278 20.542 10 16 10s-7.554-.722-8.819-1.372A3.01 3.01 0 0 1 7 7.604v-.951c0-.181.06-.361.18-.531C8.01 4.912 11.65 4 16 4c4.97 0 9 1.188 9 2.653M13 22.862c1.041.101 2.187.138 3 .138s1.959-.037 3-.138l-.501 3.108c-.026.218-.132.42-.3.573l-.467.424c-.031.029-.06.06-.087.092l-.494.583c-.19.226-.479.358-.786.358h-.73c-.307 0-.596-.132-.786-.358l-.494-.583a1.1 1.1 0 0 0-.087-.092l-.467-.424c-.168-.153-.274-.355-.3-.573z"/></svg>