<svg xmlns="http://www.w3.org/2000/svg" viewBox="0 0 24 24"><path fill="#44739e" d="M11.925 1c-.299.004-.806.246-.806.246s-1.677-.117-3.363 1.313-.945 4.105-.945 4.105l2.413 9.232c.119.011.239.018.359.028.37.019 1.593.088 2.39.096.889.009 2.565-.048 2.666-.052l.079-.006 2.386-9.108s.869-2.661-.65-4.143c-1.52-1.482-3.629-1.465-3.629-1.465s-.601-.25-.9-.246m2.419 2.601c.203.032.375.164.43.347.039.118.021.244-.052.349s-.193.181-.331.207l-3.437.742c-.277.074-.436.204-.436.296 0 .093.161.232.459.297l3.307.788c.531.132.897.553.897 1.033s-.366.902-.897 1.034l-3.959.928c-.076.013-.13.07-.128.138-.007.068.049.13.128.139l3.297.789c.669.11 1.173.597 1.228 1.187-.052.597-.561 1.087-1.238 1.195l-3.351.676h-.128c-.295.028-.561-.156-.593-.412s.18-.486.475-.514l3.33-.678c.277-.074.437-.203.437-.296s-.16-.232-.459-.297l-3.308-.732c-.539-.126-.912-.553-.907-1.038-.007-.484.367-.909.907-1.029l3.961-.928c.076-.013.128-.072.126-.139.003-.069-.049-.13-.126-.147l-3.287-.798c-.68-.105-1.19-.597-1.238-1.195.052-.597.56-1.09 1.238-1.198l3.446-.74a.63.63 0 0 1 .209-.004M9.085 16.789a2.24 2.24 0 0 1-.151.713c-.143.405-.011.855.329 1.122l.405 2.495a.837.837 0 0 0 .283.527l.443.399.084.083.461.539c.181.214.452.336.736.333h.695a.947.947 0 0 0 .734-.333l.463-.539.084-.083.443-.399a.837.837 0 0 0 .283-.527l.405-2.466c.34-.267.472-.717.329-1.122a2.36 2.36 0 0 1-.151-.714c-.942.092-1.883.149-2.712.149a29.2 29.2 0 0 1-3.163-.177"/></svg>