<svg xmlns="http://www.w3.org/2000/svg" viewBox="0 0 24 24"><path fill="#44739e" d="M13.895 2.826c-5.097 0-9.105 2.157-9.105 5.017v.693c0 2.781 4.018 5.018 9.105 5.018S23 11.396 23 8.536v-.693c0-2.78-4.008-5.017-9.105-5.017m0 9.877c-4.552 0-8.333-1.93-8.333-4.246s3.86-4.246 8.333-4.246 8.333 2.009 8.333 4.325-3.78 4.167-8.333 4.167m0-.772c3.246 0 6.017-1.386 5.869-3.167 0-.159 0-.307-.079-.544-.307-1.465-2.781-2.544-5.869-2.544S8.62 6.854 8.036 7.952c-.237.446-.336 1.633.416 2.356 1.109 1.059 3.513 1.623 5.443 1.623m0-5.483c2.93 0 5.018 1.079 5.097 2.088-.158 1.079-2.158 2.237-5.097 2.237S8.878 9.615 8.798 8.536c.08-1.009 2.168-2.088 5.097-2.088m-5.156 7.977c-2.642 0-4.453 1.009-4.948 1.949-.208.376-.287 1.406.356 2.019.95.911 3.009 1.386 4.661 1.386 2.781 0 5.156-1.188 5.028-2.712 0-.129 0-.267-.069-.465-.268-1.257-2.386-2.177-5.028-2.177m.059 4.354c-2.513 0-4.295-.99-4.364-1.92.069-.861 1.851-1.781 4.364-1.781s4.296.93 4.365 1.781c-.129.93-1.851 1.92-4.365 1.92m5.463-4.245c1.039.643 1.673 1.464 1.673 2.335 0 1.979-3.236 3.573-7.136 3.573s-7.135-1.653-7.135-3.632c0-1.762 2.603-3.256 5.869-3.573-.594-.287-1.128-.604-1.594-.96C3.029 12.891 1 14.405 1 16.285v.594c0 2.375 3.434 4.295 7.798 4.295s7.799-1.851 7.799-4.295v-.594c0-.663-.267-1.276-.742-1.841-.515.05-1.049.08-1.594.09"/></svg>