<svg xmlns="http://www.w3.org/2000/svg" viewBox="0 0 24 24"><path fill="#44739e" d="M16.555 12.409c-.96.268-2.494.508-4.555.508s-3.596-.24-4.555-.508C7.737 7.607 10.274 1 12 1s4.263 6.607 4.555 11.409m.027.938c0 .04.001.081.001.119 0 2.268-.697 3.876-1.585 4.756-.823.117-1.826.195-2.998.195s-2.175-.078-2.999-.195c-.887-.88-1.584-2.488-1.584-4.756 0-.038.001-.079.001-.119 1.418.364 3.317.486 4.582.486s3.164-.122 4.582-.486m-6.874 5.886c.795.073 1.67.1 2.292.1s1.497-.027 2.292-.1l-.383 2.278c-.02.161-.1.309-.229.421l-.356.311c-.024.022-.047.044-.068.067l-.377.429c-.145.165-.366.261-.599.261h-.56c-.233 0-.454-.096-.599-.261l-.377-.429a1.2 1.2 0 0 0-.068-.067l-.356-.311c-.129-.112-.209-.26-.229-.421Z"/></svg>