<svg xmlns="http://www.w3.org/2000/svg" viewBox="0 0 24 24"><path fill="#44739e" d="M5.5 10.245c-2.251-.25-4-1.75-4-3 0-1.75 2.25-3.25 5.25-3.25S12 5.495 12 7.245v.5h.75V6.246A3.012 3.012 0 0 0 11 3.745a6.916 6.916 0 0 0-4-1.249 7.15 7.15 0 0 0-4.25 1.249C1.5 4.495 1 5.246 1 6.246v.75a3.787 3.787 0 0 0 1.75 2.75 8.94 8.94 0 0 0 2.25 1c0-.251.25-.251.5-.501m0-4.75a5.89 5.89 0 0 1 2 .5 10.6 10.6 0 0 1 1.75 1.25.918.918 0 0 1 .25.751l1.25-.251v-.5c0-1.5-1.75-2.5-4-2.5s-4 1-4 2.5c0 1.25 1.5 2.25 3.5 2.501 0-.251.25-.251.5-.501s.5-.249.75-.5a1.896 1.896 0 0 1-1-.5 5.36 5.36 0 0 1-1.75-1c-.25-.5-.5-.999-.25-1.25a1.298 1.298 0 0 1 1-.5m8.25 6.5c-3.5 0-6.25 1.501-6.25 3.75 0 2 2.75 3.75 6.25 3.75s6.25-1.75 6.25-3.75c0-2.249-2.75-3.75-6.25-3.75m4.25 5.5c-.25.501-.75.501-1.75.75a8.62 8.62 0 0 1-3.25-.75 6.446 6.446 0 0 1-2.25-2.249 1.658 1.658 0 0 1-.5-1.75c.25-.501.75-.751 1.75-.751a5.694 5.694 0 0 1 2.75.751 6.05 6.05 0 0 1 2.75 1.999c.5 1 .75 1.5.5 2m2-7.5a12.99 12.99 0 0 0-6.25-1.75 14.85 14.85 0 0 0-6.5 1.75 4.84 4.84 0 0 0-2.75 4v1.251a5.433 5.433 0 0 0 2.75 4.249 11.138 11.138 0 0 0 6.5 2 11.01 11.01 0 0 0 6.5-1.75c1.75-1.25 2.75-2.75 2.75-4.25v-1.5a6.36 6.36 0 0 0-3-4m-6.25 10.5c-4.5 0-8.25-2.25-8.25-5s3.75-5 8.25-5 8.25 2.25 8.25 5-3.75 5-8.25 5"/></svg>