<svg xmlns="http://www.w3.org/2000/svg" viewBox="0 0 24 24"><path fill="#44739e" d="M17.272 2.197C16.046 1.088 13.2.986 11.962 1.001c-1.16-.015-4.009.087-5.237 1.198-1.396 1.253-.282 3.398.168 4.271l.083.157.178.052a18.491 18.093 90 0 0 4.844.559 18.543 18.144 90 0 0 4.842-.559l.216-.123.081-.156c.418-.804 1.534-2.943.135-4.203m-.864 3.684a18.287 17.894 90 0 1-4.41.484 18.281 17.888 90 0 1-4.415-.47 7.415 7.256 90 0 1-.539-1.31 1.758 1.72 90 0 1 .269-1.88 8.73 8.542 90 0 1 4.726-.977 8.518 8.335 90 0 1 4.637.977c.882.785.169 2.335-.268 3.176M7.157 7.272a27.77 27.693 90 0 1 1.375 8.183.891.889 90 0 0 .224.617l.388.446a24.867 24.798 90 0 0 2.947.168 24.949 24.879 90 0 0 2.952-.168l.385-.438a.891.889 90 0 0 .217-.618 27.862 27.785 90 0 1 1.367-8.183 24.518 24.45 90 0 1-4.925.485 24.462 24.394 90 0 1-4.93-.492m3.33 14.574-.238.239a6.265 6.248 90 0 0 3.678-.358l-.12-.118a6.363 6.346 90 0 1-3.32.237m.828 1.065a2.908 2.9 90 0 0 1.425 0c0-.119.237-.357.355-.475H10.96a1.644 1.639 90 0 1 .355.475m-1.889-5.458.444 2.773a.818.816 90 0 0 .265.511h3.914a.806.804 90 0 0 .269-.511l.445-2.773c-.929.092-1.945.125-2.666.125s-1.753-.033-2.672-.125m1.061 3.676-.239.238a7.462 7.442 90 0 0 3.68-.238 11.206 11.175 90 0 1-3.441 0"/></svg>