<svg xmlns="http://www.w3.org/2000/svg" viewBox="0 0 24 24"><path fill="#44739e" d="M11.275 14.132c-1.439-.459-3.551-.602-4.918-.602s-3.48.143-4.918.602c.581-1.54 1.602-2.224 1.847-3.662.112-.623.193-1.5.132-2.143-.041-.408.276-.765.684-.806.663-.072 1.408-.112 2.255-.112s1.591.04 2.255.112c.408.041.714.398.673.806-.061.643.031 1.52.133 2.143.244 1.438 1.265 2.122 1.857 3.662M8.652 6.745c-.795-.071-1.673-.102-2.295-.102s-1.5.031-2.296.102l.388-2.377c.02-.163.102-.326.234-.439l.357-.326c.021-.021.051-.041.072-.072l.377-.449c.123-.163.347-.265.582-.265h.561c.235 0 .459.102.602.276l.378.449c.02.02.04.051.071.071l.357.327c.123.112.214.275.235.438ZM6.357 21.183C3.408 21.183 1 18.632 1 16.204c0-.215.041-.419.061-.623.021-.194.061-.357.102-.54.837-.358 2.602-.755 5.194-.755s4.356.408 5.193.765c.041.183.071.347.102.541.02.204.061.397.061.622 0 2.418-2.408 4.969-5.356 4.969M18.468 7.684c.408-.031.816-.041 1.132-.041.398 0 .959.021 1.459.061l-.245-1.51c-.01-.102-.071-.204-.153-.275l-.224-.204c-.02-.01-.031-.031-.041-.041l-.245-.286c-.092-.112-.234-.173-.387-.173h-.358c-.153 0-.295.061-.367.173l-.235.276c-.01.02-.03.03-.04.041l-.225.204c-.081.071-.132.173-.153.275l-.204 1.255c.102.072.194.163.286.245m4.499 5.653c-.02-.123-.04-.225-.061-.347-.459-.194-1.388-.408-2.694-.459.031.081.072.132.103.214.03.071.163.51.234.796v.01c.031.112.051.204.051.235v.01c.01.071.031.132.041.204 0 .01 0 .03.01.041 0 .04.01.081.01.122.021.112.031.255.031.418 0 .766-.275 1.561-.745 2.265 1.714-.193 3.051-1.683 3.051-3.122.01-.132-.02-.255-.031-.387m-4.101-4.602c-.041.398.02.99.092 1.408.071.449.295.775.581 1.204.143.204.286.439.429.694.846.02 1.959.122 2.754.377-.377-.979-1.03-1.418-1.183-2.326-.061-.398-.123-.959-.082-1.367.031-.255-.173-.49-.428-.51-.419-.041-.898-.072-1.439-.072-.296 0-.561.01-.816.021.071.173.112.367.092.571M9.897 7.123c.01.02.021.041.041.051.571-.041 1.163-.061 1.602-.061.53 0 1.285.03 1.979.092l-.326-2.041c-.021-.143-.092-.286-.204-.378l-.306-.285c-.031-.021-.041-.041-.062-.062l-.326-.387c-.123-.153-.316-.235-.52-.235h-.48c-.204 0-.398.092-.5.225l-.326.387c-.021.031-.041.041-.062.061l-.306.286c-.112.092-.183.235-.204.378l-.286 1.714c.102.071.194.163.286.255m6.193 7.693c-.03-.163-.051-.306-.091-.469-.643-.276-1.939-.582-3.806-.643.01.02.02.031.02.051.041.102.215.673.317 1.061v.01c.04.153.061.276.061.317v.01c.02.092.041.173.051.275 0 .021.01.041.01.061.01.051.01.113.02.164.021.153.051.336.051.561 0 1.163-.469 2.377-1.265 3.408.021 0 .041.01.061.01 2.541 0 4.612-2.194 4.612-4.275.01-.194-.03-.357-.041-.541m-4.56-7.04c-.47 0-.888.02-1.286.041.051.194.071.398.051.591-.051.521.031 1.317.122 1.878.103.592.398 1.03.776 1.592.224.336.479.714.704 1.163 1.163.02 2.745.153 3.867.51-.51-1.327-1.388-1.918-1.602-3.153-.092-.53-.163-1.285-.112-1.847.03-.347-.225-.663-.582-.693-.571-.041-1.204-.082-1.938-.082m8.356 6.346c-.02-.143-.051-.265-.082-.408-.561-.235-1.663-.5-3.265-.561.011.031.031.061.041.092.031.081.184.581.276.908v.01c.03.133.061.235.051.265v.011c.01.071.03.153.04.234 0 .021 0 .031.011.051 0 .051.01.092.02.143.021.133.041.296.041.48 0 .234-.031.469-.072.693-.01.041-.01.072-.02.113-.051.234-.112.459-.194.693-.01.021-.02.041-.02.062-.194.489-.459.969-.806 1.398 2.214 0 4.02-1.919 4.02-3.735 0-.153-.031-.296-.041-.449m-4.959-5.469c-.041.449.031 1.133.102 1.612.082.511.347.888.664 1.378.183.275.387.592.581.939 1.01.02 2.357.132 3.326.438-.449-1.153-1.214-1.673-1.398-2.755-.081-.469-.142-1.122-.102-1.612.031-.306-.204-.571-.51-.602-.5-.051-1.061-.081-1.693-.081-.378 0-.725.02-1.051.041.071.204.102.418.081.642m-.459-1.204c.51-.04 1.041-.051 1.429-.051.469 0 1.122.021 1.724.082l-.286-1.775c-.02-.123-.081-.245-.173-.327l-.266-.245-.051-.051-.285-.336c-.112-.133-.276-.204-.449-.204h-.418c-.174 0-.347.081-.439.204l-.286.316-.051.051-.275.245a.472.472 0 0 0-.174.326l-.255 1.561c.092.062.184.133.255.204"/></svg>