<svg xmlns="http://www.w3.org/2000/svg" viewBox="0 0 24 24"><path fill="#44739e" d="M15.733 1.007a.961.961 0 0 0-.785.262 4.016 4.016 0 0 0-3.407 1.309c-1.827 1.308-1.042 3.926-1.042 3.926l2.355 9.16h5.235l2.356-9.16s.785-2.618-.524-4.189a6.55 6.55 0 0 0-3.407-1.046.961.961 0 0 0-.781-.262m2.356 2.618c.262 0 .262.261.523.261v.262l-.261.262-3.664.786a.912.912 0 0 0-.524.261.912.912 0 0 0 .524.262l3.407.785c.524 0 .785.523.785 1.046a1.169 1.169 0 0 1-.785 1.048l-3.925 1.046v.524l3.402.785c.523 0 1.047.524 1.308 1.309 0 .523-.523 1.046-1.308 1.309h-3.67a.524.524 0 0 1 0-1.048L17.042 12a.912.912 0 0 0 .524-.262.912.912 0 0 0-.524-.261l-3.407-.785c-.524 0-.785-.524-.785-1.048a1.167 1.167 0 0 1 .785-1.046l3.926-1.048v-.523l-3.139-.262a2.148 2.148 0 0 1-1.309-1.308c0-.524.523-1.047 1.309-1.309l3.664-.523m-5.232 13.086a.961.961 0 0 1-.261.785c-.262.524 0 .785.261 1.047l.524 2.617c0 .262 0 .525.261.525l.524.523.524.523a.961.961 0 0 0 .785.262h.784a.963.963 0 0 0 .786-.262l.262-.523.523-.523c.262-.263.262-.263.262-.525l.523-2.356c.262-.261.523-.784.262-1.046 0-.262-.262-.523-.262-.785h-2.617a12.75 12.75 0 0 1-3.141-.262M6.573 5.98a.262.262 0 0 0 0 .524l2.617.523c.262 0 .262.262.524.262v-.524c0-.523-.262-.785-.262-1.308Zm-1.048 8.376h3.927l1.047-3.927-.785-2.617q0 .394-.785.786l-2.879.785 2.617.523c.523 0 .785.523 1.047 1.047A.959.959 0 0 1 8.667 12l-2.617.523c-.262 0-.525 0-.525-.261s.263-.262.263-.524l2.616-.523a.262.262 0 1 0 0-.523l-2.616-.524a.835.835 0 0 1-.786-.785.694.694 0 0 1 .786-.791l3.137-.78-2.352-.523c-.523 0-.785-.524-1.048-1.047 0-.523.525-.785 1.048-1.046l2.617-.525h.262c0-.523.262-1.046.262-1.57a3.325 3.325 0 0 1-1.571-.261c-.262 0-.523-.262-.785-.262s-.523 0-.523.262a3.362 3.362 0 0 0-2.618 1.046 3.898 3.898 0 0 0-.785 3.408l1.832 7.067h.261m4.189.785H7.625a7.26 7.26 0 0 1-2.356-.262v.524c0 .261 0 .786.262.786l.263 1.831c0 .262 0 .262.261.523l.262.262.262.786c.261.262.261.262.523.262h.523c.262 0 .523 0 .523-.262l.262-.523.786-.263v-.523l.262-1.832a.963.963 0 0 0 .261-.786v-.523"/></svg>