<svg xmlns="http://www.w3.org/2000/svg" fill="#44739e" viewBox="0 0 24 24"><path d="M22.3035 5.3975c1.525 1.402.137 3.985-.329 4.907-1.257.366-3.269.695-5.975.695s-4.717-.329-5.974-.695c-.466-.922-1.855-3.505-.329-4.907 1.631-1.499 6.028-1.396 6.303-1.396.276 0 4.672-.103 6.304 1.396m-6.3037 6.6016c1.523 0 3.746-.143 5.539-.553-1.358 4.219-1.591 8.078-1.545 9.176.011.255-.076.496-.242.689l-.441.504c-.952.113-2.055.184-3.311.184s-2.359-.071-3.311-.184l-.441-.504c-.166-.193-.253-.434-.242-.689.046-1.098-.187-4.957-1.545-9.176 1.793.41 4.016.553 5.539.553m-2.998 10.8623c1.042.101 2.188.138 3.002.138s1.96-.037 3.002-.138l-.501 3.108c-.026.218-.132.42-.3.573l-.467.424c-.032.029-.061.06-.089.092l-.493.583c-.19.226-.48.358-.787.358h-.73c-.307 0-.596-.132-.786-.358l-.495-.583a1.1 1.1 0 0 0-.087-.092l-.467-.424c-.168-.153-.275-.355-.301-.573z"/></svg>