<svg xmlns="http://www.w3.org/2000/svg" viewBox="0 0 24 24"><path fill="#44739e" d="M11.888 19.787c-.804 0-1.446-.097-1.864-.182-.043 0-.075-.011-.118-.011l.332 2.067q.032.225.193.386l.31.278.054.054.332.385c.129.15.321.236.525.236h.482c.203 0 .396-.086.525-.236l.332-.385.053-.054.311-.278c.118-.097.182-.236.203-.386l.332-2.067c-.117.011-.246.021-.364.032-.578.107-1.146.161-1.638.161M22.566 2.692C20.981 1.45 16.118 1 12.091 1 7.7 1 2.676 1.568 1.38 2.853a.543.543 0 0 0-.16.386v1.124c0 .075.01.139.042.204.033.075.311.685 1.157.899a5.4 5.4 0 0 1-.107-.407l-.096-.599a.381.381 0 0 1 .214-.418c.096-.054 2.528-1.264 9.404-1.264h.064c6.941 0 9.372 1.221 9.479 1.264.15.075.236.246.215.418l-.097.578c-.032.171-.086.343-.118.514.407-.139 1.403-.557 1.403-1.371v-1.06c-.01-.172-.085-.322-.214-.429M7.303 12.557c1.489-.257 3.117-.45 4.595-.45 1.393 0 3.053.182 4.627.418 1.296-1.35 3.471-4.177 4.167-7.616l.043-.257c-.782-.289-3.364-1.071-8.772-1.071h-.065c-5.473 0-8.065.782-8.847 1.071l.043.268c.718 3.449 2.924 6.298 4.209 7.637m4.595.353c-1.242 0-2.624.15-3.931.354.022.043.054.075.065.118.139 1.178.749 1.488.782 1.499.128.064.224.193.235.343 0 .032.032.718 0 2.099-.021 1.071.696 1.393.729 1.403.01 0 1.96.568 4.262-.01.118-.065.739-.407.707-1.393-.032-1.381 0-2.067 0-2.099.011-.15.097-.289.236-.343.021-.011.632-.321.771-1.499.011-.054.054-.097.075-.15-1.36-.193-2.753-.322-3.931-.322"/></svg>