<svg xmlns="http://www.w3.org/2000/svg" viewBox="0 0 24 24"><path fill="#44739e" d="M6.109 9.441c1.73.547 4.252.726 5.891.726s4.162-.179 5.892-.726c-.704 1.849-1.925 2.668-2.216 4.392-.127.751-.234 1.8-.162 2.568.045.488-.328.917-.816.967-.792.081-1.692.132-2.698.132s-1.906-.051-2.698-.132c-.489-.05-.86-.479-.815-.967.071-.768-.036-1.817-.163-2.568-.29-1.724-1.511-2.543-2.215-4.392M9.25 18.29c.954.093 2.005.127 2.75.127s1.796-.034 2.75-.127l-.459 2.849c-.024.2-.121.385-.275.525l-.428.389c-.029.027-.055.055-.08.084l-.453.535c-.174.207-.439.328-.72.328h-.67c-.281 0-.546-.121-.72-.328l-.453-.535a1 1 0 0 0-.08-.084l-.428-.389c-.154-.14-.251-.325-.275-.525ZM12 1c3.532 0 6.417 3.054 6.417 5.958 0 .265-.051.498-.078.738-.029.235-.068.431-.117.648-.999.422-3.12.906-6.222.906s-5.223-.484-6.222-.906c-.049-.217-.088-.413-.117-.648-.027-.24-.078-.473-.078-.738C5.583 4.054 8.468 1 12 1"/></svg>