<svg xmlns="http://www.w3.org/2000/svg" fill="#44739e" viewBox="0 0 24 24"><path d="M15.4915 4.4736c-.9302-.8414-3.0884-.9186-4.0268-.9067-.8802-.012-3.0407.0653-3.9721.9079-1.0582.9507-.214 2.5775.1279 3.2394l.0628.1189.1348.0392a13.7212 14.0226 0 0 0 3.6734.4242 13.7595 14.0619 0 0 0 3.6721-.4242l.164-.0927.0616-.1188c.3163-.6097 1.1628-2.2318.1023-3.1872m-.6558 2.7938a13.57 13.8682 0 0 1-3.3442.3672 13.5653 13.8634 0 0 1-3.3478-.3565 5.5024 5.6233 0 0 1-.4093-.9935 1.3047 1.3333 0 0 1 .2047-1.426 6.478 6.6204 0 0 1 3.5838-.7403 6.321 6.46 0 0 1 3.5163.7403c.6686.5954.128 1.7707-.2035 2.4088M7.8202 8.3222a21.0012 21.0597 0 0 1 1.0433 6.2053.6738.6757 0 0 0 .1696.4685l.2943.3379a18.8057 18.858 0 0 0 2.2349.1272 18.8674 18.92 0 0 0 2.2382-.1272l.292-.3322a.6738.6757 0 0 0 .1651-.4685 21.0709 21.1295 0 0 1 1.0366-6.2053 18.5417 18.5934 0 0 1-3.7353.3671 18.499 18.5506 0 0 1-3.7387-.3728m2.5258 11.0524-.1808.1814a4.7382 4.7514 0 0 0 2.7896-.2715l-.091-.09a4.8123 4.8257 0 0 1-2.5178.1801m.6278.8075a2.199 2.205 0 0 0 1.0804 0c0-.09.1796-.2703.2695-.3604h-1.6195a1.2432 1.2467 0 0 1 .2696.3604m-1.433-4.1387.3369 2.1026a.6188.6205 0 0 0 .201.3874h2.9682a.6098.6115 0 0 0 .2044-.3874l.337-2.1026c-.7042.0698-1.4746.0946-2.0216.0946s-1.3297-.0248-2.026-.0946m.804 2.7873-.1808.1802a5.6434 5.6591 0 0 0 2.7908-.1802 8.4746 8.4982 0 0 1-2.61 0"/></svg>