<svg xmlns="http://www.w3.org/2000/svg" viewBox="0 0 24 24"><path fill="#44739e" d="M10.126 16.094c-.79.099-1.48.099-2.171.099-.888 0-1.677 0-2.565-.099 0 .197-.099.395-.099.592-.098.296 0 .691.296.888l.296 1.973c0 .197.099.296.198.395l.394.296.099.098.395.395c.098.197.296.296.493.296h.592c.197 0 .493-.099.592-.296l.394-.395v-.098l.395-.296c.099-.099.197-.296.197-.395l.296-1.973c.296-.197.395-.592.296-.888 0-.197-.098-.395-.098-.592m7.793.888c-.888.099-1.874.197-2.663.197-1.086 0-2.072-.098-3.157-.197 0 .197-.099.493-.198.691-.098.394 0 .888.296 1.085l.395 2.466c0 .198.099.395.296.493l.395.395.098.099.493.493c.198.197.494.296.691.296h.691c.296 0 .592-.099.69-.296l.493-.493.099-.099.395-.395c.197-.098.296-.295.296-.493l.394-2.466c.296-.296.494-.691.296-1.085Zm3.651-9.964C21.57 4.157 20.78 1 14.96 1c-3.157 0-4.736.888-5.624 2.269-.789 1.085-.986 2.565-.986 3.848 0 2.17 1.184 5.722 3.058 7.991.296.394.592.69.888.986 0 0 .592.197 2.664.197s2.663-.197 2.663-.197c.296-.296.592-.592.888-.986 1.875-2.269 3.059-5.821 3.059-7.991Zm-6.314-.197c-2.861 0-4.637.098-5.92.197 0-.987.099-1.973.592-2.861.099-.197.296-.493.494-.691.789-.888 2.17-1.479 4.636-1.479 4.834 0 5.624 2.367 5.624 5.031-1.283-.197-2.96-.197-5.426-.197m-7.498 8.681c1.677 0 2.17-.197 2.17-.197.099-.099.099-.197.198-.197-1.579-2.269-2.565-5.229-2.763-7.301-1.973 0-3.255.099-4.242.099 0-2.171.592-4.045 4.538-4.045h.099c.197-.296.296-.493.394-.789h-.394c-4.736 0-5.328 2.663-5.328 4.932 0 1.776.987 4.637 2.467 6.512.197.296.493.592.69.789 0 0 .494.197 2.171.197"/></svg>