<svg xmlns="http://www.w3.org/2000/svg" viewBox="0 0 24 24"><path fill="#44739e" d="M21.797 14.125V1.756c0-.265-.206-.481-.461-.491l-.53-.02-.785.079-3.328-.137a.462.462 0 0 0-.295-.138L15.917 1h-.059c-.029 0-.059 0-.078.01l-3.034.451c-.236.04-.412.246-.412.481v19.831c0 .226.157.422.373.481l3.023.736c.04.01.079.01.118.01.03 0 .049 0 .079-.01l5.458-.854c.236-.039.412-.245.412-.481Zm-1.413-4.074-3.613.148h-.236v-8.09h.226l3.623.148Zm-8.983 2.837V4.436c0-.177-.137-.334-.324-.334l-.451-.01-.737.049-3.642-.098c-.069-.049-.137-.088-.216-.098l-.442-.039h-.068l-3.014.324c-.177.019-.304.167-.304.334v13.331c0 .167.117.304.284.334l3.024.481c.02 0 .029.01.049.01h.029l5.508-.56c.177-.019.304-.157.304-.334Zm-1.168-1.04-3.839.108h-.216V4.672h.207l3.838.117Z"/></svg>