<svg xmlns="http://www.w3.org/2000/svg" viewBox="0 0 24 24"><path fill="#44739e" d="M4.822 6.578c1.88.568 4.584.838 7.178.838s5.298-.27 7.177-.838l-3.317 3.921a2.192 2.192 0 0 0-.518 1.349l-.132 4.687c-.015.474-.387.856-.86.888-.724.048-1.507.077-2.35.077s-1.625-.029-2.35-.077c-.473-.032-.846-.414-.86-.888l-.131-4.687a2.195 2.195 0 0 0-.519-1.349ZM20.25 3.432v.872c0 .322-.057.64-.166.938C18.925 5.838 16.163 6.5 12 6.5s-6.925-.662-8.084-1.258a2.76 2.76 0 0 1-.166-.938v-.872c0-.166.055-.331.165-.487C4.676 1.836 8.012 1 12 1c4.556 0 8.25 1.089 8.25 2.432m-11 14.858c.954.093 2.005.127 2.75.127s1.796-.034 2.75-.127l-.459 2.849c-.024.2-.121.385-.275.525l-.428.389c-.029.027-.055.055-.08.084l-.453.535c-.174.207-.439.328-.72.328h-.67c-.281 0-.546-.121-.72-.328l-.453-.535a1 1 0 0 0-.08-.084l-.428-.389c-.154-.14-.251-.325-.275-.525Z"/></svg>