<svg xmlns="http://www.w3.org/2000/svg" viewBox="0 0 24 24"><path fill="#44739e" d="M16.952 21.572c2.126 0 3.988-1.064 3.988-2.393-.266-1.595-1.862-2.394-3.988-2.394s-3.989.799-3.989 2.394c0 1.329 1.861 2.393 3.989 2.393m-2.128-3.723c0-.265.532-.265 1.064-.532a4.95 4.95 0 0 1 1.861.532 2.724 2.724 0 0 1 1.596 1.33c.265.265.531.797.265 1.063 0 .266-.532.532-1.063.532a8.2 8.2 0 0 1-2.128-.532c-.531-.266-.797-.798-1.329-1.329-.266-.532-.532-.798-.266-1.064m7.977-3.457h-.797l-.267.798v.532h.798l-1.064 6.381h-9.304l-1.063-5.583h-.533l1.064 5.849a.26.26 0 0 0 .265.266h9.571c.266 0 .266 0 .266-.266l1.064-6.913v-.798c.265-.266.265-.266 0-.266m-.53-13.027H1.531A.572.572 0 0 0 1 1.897v1.595l2.128 11.965a.571.571 0 0 0 .531.531h16.752a.571.571 0 0 0 .531-.531l1.861-11.965V1.897a.572.572 0 0 0-.532-.532m-2.393 13.561H3.925L2.064 4.024h19.409Zm-7.711-1.064c3.723 0 6.647-1.861 6.647-3.989S15.89 5.62 12.167 5.62 5.52 7.48 5.52 9.608s2.925 4.254 6.647 4.254M8.445 7.481c.266-.531.797-.797 1.861-.797a7.085 7.085 0 0 1 3.19.797 5.556 5.556 0 0 1 2.658 2.128c.533.797.799 1.329.533 1.861a2.44 2.44 0 0 1-1.596 1.063 8.66 8.66 0 0 1-3.456-1.063 7.24 7.24 0 0 1-2.658-2.128c-.532-.798-.798-1.329-.532-1.862"/></svg>