<svg xmlns="http://www.w3.org/2000/svg" viewBox="0 0 24 24"><path fill="#44739e" d="M17.958 16.77a.953.953 0 0 0 .26.778c.26.519 0 .778-.26 1.037l-.518 2.593c0 .259 0 .259-.26.518l-.518.26-.519.778a.953.953 0 0 1-.777.259h-.515a.953.953 0 0 1-.777-.259l-.519-.519-.519-.519c0-.259-.259-.259-.259-.518l-.259-2.593c-.259-.259-.519-.518-.259-1.037 0-.259.259-.519.259-.778 1.037 0 2.074.259 3.111.259a8 8 0 0 0 2.334-.259m4.668-8.298a5.952 5.952 0 0 1-1.037 3.626v.259c-.26 0-.26 0-.519.259-1.037 1.815-2.074 2.074-2.856 3.371-1.037 0-1.815.259-2.857.259a14.8 14.8 0 0 1-3.367-.255c-.519-1.296-1.556-1.555-2.856-3.37 0-.26-.26-.26-.26-.519v-.259a7.045 7.045 0 0 1 .782-8.296 7.581 7.581 0 0 1 8.297-2.076 7.75 7.75 0 0 1 4.668 7.001Zm-5.705.519a1.428 1.428 0 0 0 .777-1.297.688.688 0 0 0-.777-.777l-2.857-.778a.905.905 0 0 1-.518-.259l.259-.26 2.856-.778a.254.254 0 0 0 .26-.259v-.259c0-.261-.26-.52-.519-.261l-2.593.52a1.187 1.187 0 0 0-1.037 1.297 1.723 1.723 0 0 0 1.037 1.296l2.857.778v.518l-3.371.519c-.518 0-.778.518-.778 1.037s.26.778.778 1.037l2.857.778a.905.905 0 0 1 .518.259l-.259.259-3.125.524a.519.519 0 1 0 0 1.038l2.857-.778a1.187 1.187 0 0 0 1.037-1.297 1.115 1.115 0 0 0-1.037-1.037l-2.593-.778v-.524ZM4.734 17.029a.558.558 0 0 0 .519.519.559.559 0 0 0 .519-.519v-.778a2.34 2.34 0 0 1-1.297-.26Zm2.075-9.338a6.904 6.904 0 0 1 .778-3.111c-.259.259-.518 0-1.037 0a9.02 9.02 0 0 0-5.186 1.296v.259c0 1.038 2.333 1.556 5.186 1.556Zm1.561 5.448c0-.259-.26-.259-.26-.518v-.26a6.987 6.987 0 0 1-1.296-3.889H6.55a14.69 14.69 0 0 1-4.662-.778 5.675 5.675 0 0 0 2.074 3.626 1.136 1.136 0 0 1 .259.778v2.074a.953.953 0 0 0 .259.778 2.018 2.018 0 0 0 2.076.518 2.794 2.794 0 0 0 2.074-.518.953.953 0 0 0 .259-.778v-.259c-.259-.26-.259-.519-.518-.778m-1.297 3.89c0 .259.26.519.778.519a.558.558 0 0 0 .519-.519v-1.293c-.519.259-.778.259-1.297.519Z"/></svg>