<svg xmlns="http://www.w3.org/2000/svg" viewBox="0 0 24 24"><path fill="#44739e" d="M9.232 18.273c.957.086 2.013.123 2.762.123s1.805-.037 2.762-.123l-.466 2.861c-.025.196-.123.393-.283.528l-.429.393c-.025.024-.062.049-.086.086l-.455.54c-.159.196-.429.319-.712.319h-.675c-.282 0-.552-.123-.724-.331l-.454-.541c-.025-.024-.05-.061-.086-.086l-.43-.392c-.147-.135-.258-.332-.282-.528ZM11.994 1C7.316 1 3.535 4.794 3.535 9.459c0 3.597 2.247 6.666 5.402 7.894.43.098.822.147 1.215.184v-7.82c0-1.019.823-1.842 1.842-1.842s1.841.823 1.841 1.842v7.869c.577-.037 1.068-.098 1.326-.27 3.106-1.252 5.304-4.297 5.304-7.857C20.453 4.794 16.671 1 11.994 1m0 8.103c.344 0 .614.27.614.614v7.611c0 .344-.27.307-.614.307s-.614.037-.614-.307V9.717c0-.332.27-.614.614-.614"/></svg>