<svg xmlns="http://www.w3.org/2000/svg" fill="#44739e" viewBox="0 0 24 24"><path d="M16 2c6.627 0 12 .895 12 2v24c0 1.104-5.373 2-12 2s-12-.896-12-2V4c0-1.105 5.373-2 12-2m9.6 24.366V10H6v16.366C6 27.268 10.588 28 16 28c5.413 0 9.6-.732 9.6-1.634m-15.1084-6.0265c1.617.495 3.976.658 5.509.658s3.891-.163 5.509-.658c-.659 1.676-1.8 2.417-2.072 3.979-.118.68-.218.99-.152 1.685.042.443-.306.832-.762.877-.741.074-1.583.119-2.523.119-.941 0-1.782-.045-2.524-.119-.456-.045-.803-.434-.761-.877.066-.695-.035-1.005-.153-1.685-.271-1.562-1.413-2.303-2.071-3.979m-.3096-1.6875c-.045-.196-.082-.375-.109-.587-.026-.217-.073-.428-.073-.668C10 14.766 12.698 12 16 12c3.303 0 6 2.766 6 5.397 0 .24-.047.451-.072.668-.027.212-.064.391-.109.587-.935.382-2.918.821-5.819.821-2.9 0-4.883-.439-5.818-.821"/></svg>