<svg xmlns="http://www.w3.org/2000/svg" viewBox="0 0 24 24"><path fill="#44739e" d="m11.75 8.671-3.901 1.426c-.19.096-.475.096-.666 0l-3.9-1.426c-.19-.096-.095-.286 0-.286l3.9-1.332c.191-.095.476-.095.666 0l3.901 1.332c.19 0 .19.286 0 .286m1.997-2.664L7.849 3.724c-.19-.095-.475-.095-.666 0L1.285 6.007c-.19.095-.285.285-.285.476V8.48c0 .191.095.381.285.476l5.898 2.283c.191.095.476.095.666 0l5.898-2.283c.19-.095.286-.285.286-.476V6.483c0-.191-.096-.381-.286-.476m6.279 10.94-5.137 1.902q-.428.143-.856 0l-5.137-1.902c-.191-.095-.191-.381 0-.476l5.137-1.807q.428-.143.856 0l5.137 1.807c.19.095.19.381 0 .476m2.663-3.615-7.705-2.949q-.428-.143-.856 0l-7.801 2.949c-.19.095-.38.38-.38.666v2.663c0 .286.19.571.38.666l7.706 2.949q.428.143.856 0l7.705-2.949c.19-.095.381-.38.381-.666v-2.663c.095-.286-.095-.571-.286-.666"/></svg>