<svg xmlns="http://www.w3.org/2000/svg" viewBox="0 0 24 24"><path fill="#44739e" d="M8.376 7.534c.988-.822 2.465-.802 3.62-.039.41-.274.86-.46 1.33-.538.851-.147 1.663.059 2.289.577l1.663 1.164c-.411-2.553-2.622-4.5-5.282-4.5-2.671 0-4.872 1.947-5.283 4.5Zm13.539 3.61c-1.066-1.066-2.944-1.585-4.715-1.301l-2.182-1.536c-.401-.352-.949-.489-1.526-.391-.548.098-1.076.391-1.487.851 0 0 0 .01-.009.01 0 0 0-.01-.01-.01-.861-.959-2.201-1.155-3.013-.46L6.791 9.843c-1.761-.294-3.649.235-4.705 1.301-1.693 1.692-1.37 4.774.714 6.858 1.183 1.183 2.69 1.8 4.079 1.8 1.057 0 2.045-.352 2.778-1.086 1.165-1.164 1.673-3.336 1.165-5.253l1.174-1.507 1.193 1.526c-.137.519-.225 1.057-.215 1.624.019 1.428.528 2.769 1.36 3.6.733.734 1.721 1.086 2.778 1.086 1.389 0 2.896-.616 4.079-1.8 2.094-2.074 2.417-5.156.724-6.848M8.963 18.031c-1.311 1.311-3.766.988-5.478-.714-.842-.841-1.37-1.888-1.497-2.945-.118-1.017.156-1.917.782-2.533.548-.548 1.282-.812 2.084-.812 1.135 0 2.387.528 3.385 1.526 1.722 1.712 2.035 4.167.724 5.478m11.543-.714c-1.712 1.712-4.167 2.025-5.478.714-.616-.616-.9-1.516-.782-2.534.127-1.056.655-2.103 1.496-2.944 1.712-1.702 4.168-2.025 5.479-.714s.988 3.766-.715 5.478"/></svg>