<svg xmlns="http://www.w3.org/2000/svg" fill="#44739e" viewBox="0 0 24 24"><path d="M12.211 1.1035c-.3015.0043-.8125.248-.8125.248s-1.6904-.118-3.3906 1.3243-.9531 4.1387-.9531 4.1387l2.4336 9.3086c.12.0104.2412.018.3613.0273.3738.0199 1.6062.0896 2.4102.0976.8962.009 2.5866-.0492 2.6875-.0527.0266-.0017.0535-.004.08-.0058l2.4063-9.1836s.8756-2.6835-.6563-4.1777c-1.5319-1.4943-3.6582-1.4766-3.6582-1.4766s-.6066-.2524-.9082-.248zm2.4395 2.623c.2046.032.378.1646.4336.3496.0388.1192.0206.2454-.0527.3516s-.1947.1827-.334.209l-3.4648.748c-.2798.0748-.4395.2054-.4395.2988 0 .0936.1617.2335.463.2989l3.334.7949c.535.1333.9042.5573.9042 1.041s-.3692.9096-.9043 1.043l-3.9922.9355c-.0764.0135-.1305.071-.1289.1387-.0065.069.05.131.129.1406l3.3241.795c.6753.1116 1.1827.602 1.2383 1.1972-.0522.6017-.565 1.0963-1.248 1.2051l-3.3789.6817h-.1289c-.297.0284-.565-.1578-.5977-.416s.1815-.4892.4786-.5176l3.3574-.6836c.2797-.0747.4414-.2054.4414-.2988s-.1617-.2334-.463-.2989l-3.3358-.7382c-.5435-.1277-.919-.5579-.914-1.047-.0076-.4879.3699-.9162.914-1.037l3.994-.9356c.0765-.0136.1286-.073.127-.1406.0026-.07-.049-.131-.127-.1485l-3.3144-.8046c-.685-.1057-1.1995-.602-1.248-1.2051.0522-.6017.565-1.0982 1.248-1.207l3.4746-.7461a.63.63 0 0 1 .211-.004zm-5.3027 13.297a2.26 2.26 0 0 1-.1523.7188c-.1442.4083-.0112.8613.332 1.1309l.4082 2.5156a.844.844 0 0 0 .2852.5312l.4472.4023.084.084.4648.543c.1829.2161.4566.3392.7422.336h.7012a.955.955 0 0 0 .7402-.336l.4668-.543.084-.084.4473-.4023a.844.844 0 0 0 .2852-.5312l.4082-2.4863c.3432-.2695.4761-.7227.332-1.131a2.38 2.38 0 0 1-.1524-.7206c-.9494.0934-1.8989.1503-2.7344.1503a29.4 29.4 0 0 1-3.1895-.1777z"/></svg>