<svg xmlns="http://www.w3.org/2000/svg" viewBox="0 0 24 24"><path fill="#44739e" d="m11.77 8.651 3.975 3.976c.182-1.265.493-2.797 1.008-4.404-1.436.321-3.226.439-4.448.439-.16 0-.353-.011-.535-.011m.535-.793c2.176 0 3.794-.268 4.801-.557.375-.739 1.49-2.808.268-3.943-1.318-1.201-4.844-1.126-5.069-1.126s-3.75-.075-5.068 1.126c-.14.128-.247.278-.332.439l4.029 4.018c.428.022.878.043 1.371.043m-2.411 9.527.408 2.497c.021.171.107.343.235.46l.375.343c.022.022.054.043.075.075l.397.472c.15.182.386.289.632.289h.589c.247 0 .483-.107.633-.289l.396-.472c.022-.021.043-.053.075-.075l.375-.343c.14-.117.225-.289.247-.46l.407-2.497c-.836.086-1.757.118-2.411.118-.675 0-1.597-.032-2.433-.118M23 21.457 2.511 1.021 1 2.532l7.308 7.287c.686 2.722.825 5.026.793 5.766-.01.214.054.407.193.557l.354.407c.761.096 1.65.15 2.657.15s1.897-.054 2.658-.15l.032-.043 6.483 6.473Z"/></svg>