<svg xmlns="http://www.w3.org/2000/svg" viewBox="0 0 24 24"><path fill="#44739e" d="M7.478 11.633c.978-.244 2.444-.489 4.522-.489s3.544.245 4.522.489C16.278 16.4 13.711 23 12 23s-4.278-6.6-4.522-11.367m-.122-.977s0-.123 0 0c0-2.445.733-4.034 1.588-4.889.856-.123 1.834-.123 3.056-.123s2.2.123 3.056.245c.855.855 1.588 2.444 1.588 4.767v.122c-1.466-.367-3.3-.489-4.644-.489s-3.178 0-4.644.367m6.966-5.867c-.855-.122-1.711-.122-2.322-.122s-1.467 0-2.322.122l.366-2.322c0-.123.123-.367.245-.367l.367-.367.122-.122.366-.489c.123 0 .367-.122.612-.122h.611c.244 0 .489.122.611.244l.244.489.122.123.367.366c.122.122.245.245.245.367Z"/></svg>