<svg xmlns="http://www.w3.org/2000/svg" fill="#44739e" viewBox="0 0 24 24"><path d="M11.18 14c-1.41-.45-3.48-.59-4.82-.59s-3.41.14-4.82.59c.57-1.51 1.57-2.18 1.81-3.59.11-.61.19-1.47.13-2.1-.04-.4.27-.75.67-.79.65-.07 1.38-.11 2.21-.11s1.56.04 2.21.11c.4.04.7.39.66.79-.06.63.03 1.49.13 2.1.24 1.41 1.24 2.08 1.82 3.59M8.61 6.76c-.78-.07-1.64-.1-2.25-.1s-1.47.03-2.25.1l.38-2.33c.02-.16.1-.32.23-.43l.35-.32c.02-.02.05-.04.07-.07l.37-.44c.12-.16.34-.26.57-.26h.55c.23 0 .45.1.59.27l.37.44c.02.02.04.05.07.07l.35.32c.12.11.21.27.23.43zM6.36 20.91c-2.89 0-5.25-2.5-5.25-4.88 0-.21.04-.41.06-.61.02-.19.06-.35.1-.53.82-.35 2.55-.74 5.09-.74s4.27.4 5.09.75c.04.18.07.34.1.53.02.2.06.39.06.61 0 2.37-2.36 4.87-5.25 4.87M18.23 7.68c.4-.03.8-.04 1.11-.04.39 0 .94.02 1.43.06l-.24-1.48c-.01-.1-.07-.2-.15-.27l-.22-.2c-.02-.01-.03-.03-.04-.04l-.24-.28c-.09-.11-.23-.17-.38-.17h-.35c-.15 0-.29.06-.36.17l-.23.27c-.01.02-.03.03-.04.04l-.22.2c-.08.07-.13.17-.15.27l-.2 1.23c.1.07.19.16.28.24m4.41 5.54c-.02-.12-.04-.22-.06-.34-.45-.19-1.36-.4-2.64-.45.03.08.07.13.1.21.03.07.16.5.23.78v.01c.03.11.05.2.05.23v.01c.01.07.03.13.04.2 0 .01 0 .03.01.04 0 .04.01.08.01.12.02.11.03.25.03.41 0 .75-.27 1.53-.73 2.22 1.68-.19 2.99-1.65 2.99-3.06.01-.13-.02-.25-.03-.38m-4.02-4.51c-.04.39.02.97.09 1.38.07.44.29.76.57 1.18.14.2.28.43.42.68.83.02 1.92.12 2.7.37-.37-.96-1.01-1.39-1.16-2.28-.06-.39-.12-.94-.08-1.34.03-.25-.17-.48-.42-.5-.41-.04-.88-.07-1.41-.07-.29 0-.55.01-.8.02.07.17.11.36.09.56M9.83 7.13c.01.02.02.04.04.05.56-.04 1.14-.06 1.57-.06.52 0 1.26.03 1.94.09l-.32-2c-.02-.14-.09-.28-.2-.37l-.3-.28c-.03-.02-.04-.04-.06-.06l-.32-.38c-.12-.15-.31-.23-.51-.23h-.47c-.2 0-.39.09-.49.22l-.32.38c-.02.03-.04.04-.06.06l-.3.28c-.11.09-.18.23-.2.37l-.28 1.68c.1.07.19.16.28.25m6.07 7.54c-.03-.16-.05-.3-.09-.46-.63-.27-1.9-.57-3.73-.63.01.02.02.03.02.05.04.1.21.66.31 1.04v.01c.04.15.06.27.06.31V15c.02.09.04.17.05.27 0 .02.01.04.01.06.01.05.01.11.02.16.02.15.05.33.05.55 0 1.14-.46 2.33-1.24 3.34.02 0 .04.01.06.01 2.49 0 4.52-2.15 4.52-4.19.01-.19-.03-.35-.04-.53m-4.47-6.9c-.46 0-.87.02-1.26.04.05.19.07.39.05.58-.05.51.03 1.29.12 1.84.1.58.39 1.01.76 1.56.22.33.47.7.69 1.14 1.14.02 2.69.15 3.79.5-.5-1.3-1.36-1.88-1.57-3.09-.09-.52-.16-1.26-.11-1.81.03-.34-.22-.65-.57-.68-.56-.04-1.18-.08-1.9-.08m8.19 6.22c-.02-.14-.05-.26-.08-.4-.55-.23-1.63-.49-3.2-.55.01.03.03.06.04.09.03.08.18.57.27.89v.01c.03.13.06.23.05.26v.01c.01.07.03.15.04.23 0 .02 0 .03.01.05 0 .05.01.09.02.14.02.13.04.29.04.47 0 .23-.03.46-.07.68-.01.04-.01.07-.02.11-.05.23-.11.45-.19.68-.01.02-.02.04-.02.06-.19.48-.45.95-.79 1.37 2.17 0 3.94-1.88 3.94-3.66 0-.15-.03-.29-.04-.44m-4.86-5.36c-.04.44.03 1.11.1 1.58.08.5.34.87.65 1.35.18.27.38.58.57.92.99.02 2.31.13 3.26.43-.44-1.13-1.19-1.64-1.37-2.7-.08-.46-.14-1.1-.1-1.58.03-.3-.2-.56-.5-.59-.49-.05-1.04-.08-1.66-.08-.37 0-.71.02-1.03.04.07.2.1.41.08.63m-.45-1.18c.5-.04 1.02-.05 1.4-.05.46 0 1.1.02 1.69.08l-.28-1.74c-.02-.12-.08-.24-.17-.32l-.26-.24-.05-.05-.28-.33c-.11-.13-.27-.2-.44-.2h-.41c-.17 0-.34.08-.43.2l-.28.31-.05.05-.27.24c-.1.08-.16.2-.17.32l-.25 1.53c.09.06.18.13.25.2"/></svg>