<svg xmlns="http://www.w3.org/2000/svg" fill="#44739e" viewBox="0 0 24 24"><path d="M19.12 21.3423c.0135.2629.0675.5221.16.7686.1518.4359.0115.92-.35 1.2077l-.43 2.6551a.908.908 0 0 1-.3.5689l-.47.4292-.09.0899-.49.5789a1 1 0 0 1-.78.3593h-.74a1 1 0 0 1-.78-.3593l-.49-.5789-.09-.0899-.47-.4292a.908.908 0 0 1-.3-.5689l-.43-2.685a1.087 1.087 0 0 1-.35-1.2078 2.45 2.45 0 0 0 .16-.7685 30.6 30.6 0 0 0 3.36.1896c.88 0 1.88-.0599 2.88-.1597m4.8801-9.3426a7.975 7.975 0 0 1-1.0601 3.9926l-.11.1696c-.1.1597-.2.3195-.31.4692-1.36 1.9763-2.47 2.4055-3.15 3.6831a28.3 28.3 0 0 1-3.11.1697 29.9 29.9 0 0 1-3.64-.2196c-.68-1.2377-1.78-1.6868-3.12-3.6332-.11-.1497-.21-.3095-.31-.4692l-.11-.1696c-1.6894-2.907-1.3745-6.5587.7877-9.1348s5.7089-3.5252 8.8722-2.3742 5.2661 4.1557 5.2602 7.5164M18 12.5686a1.158 1.158 0 0 0 .84-1.1129 1.158 1.158 0 0 0-.84-1.1129l-3.1-.8485c-.28-.0698-.43-.2195-.43-.3194 0-.0998.15-.2395.41-.3194l3.22-.7985a.48.48 0 0 0 .3098-.2217.478.478 0 0 0 .0502-.3772.51.51 0 0 0-.6-.3693l-3.23.7985c-.6349.1162-1.1115.6452-1.16 1.2876a1.408 1.408 0 0 0 1.16 1.2876l3.08.8584a.16.16 0 0 1 .12.1597.15.15 0 0 1-.12.1498l-3.71.9981a1.128 1.128 0 0 0-.85 1.108 1.148 1.148 0 0 0 .85 1.1179l3.1.7885c.28.0699.43.2196.43.3194s-.15.2396-.41.3194l-3.12.7287a.5023.5023 0 0 0-.445.5539.503.503 0 0 0 .555.4442h.12l3.14-.7286c.6349-.1162 1.1115-.6452 1.16-1.2876-.0517-.6356-.5224-1.1585-1.15-1.2777l-3.09-.8484a.14.14 0 0 1-.12-.1497.1496.1496 0 0 1 .12-.1497z"/></svg>