<svg xmlns="http://www.w3.org/2000/svg" viewBox="0 0 24 24"><path fill="#44739e" d="M12 13.784c-1.288 0-3.171-.099-4.559-.496v.099c0 2.28.694 3.865 1.586 4.757.793.099 1.784.198 2.973.198s2.18-.099 2.973-.198c.892-.892 1.586-2.477 1.586-4.757v-.099c-1.388.397-3.271.496-4.559.496m-2.279 5.45.396 2.28c0 .198.099.297.198.396l.397.297.099.099.396.397c.099.198.397.297.595.297h.594c.199 0 .496-.099.595-.297l.396-.397.099-.099.397-.297c.099-.099.198-.297.198-.396l.396-2.28c-.792.099-1.684.099-2.279.099s-1.684 0-2.477-.099m3.369-6.937c.198-.099.396-.198.396-.297s-.198-.198-.396-.297l-2.973-.595c-.495-.099-.793-.495-.892-.991 0-.495.298-.892.793-1.09l3.369-1.09c.099 0 .099-.099.099-.099 0-.099-.099-.099-.099-.099l-1.982-.397-.991-.198c-.495-.198-.991-.694-1.09-1.288 0-.595.397-1.09.991-1.288l2.973-.892c.298-.099.496.099.595.297v.396c0 .199-.198.199-.297.199l-2.973.891c-.199.1-.397.199-.397.298s.198.198.397.297l2.973.694c.495.099.792.495.792.991s-.297.892-.693 1.09l-3.37 1.09c-.099 0-.099.099-.099.099 0 .099.099.099.099.099l2.973.694c.595.099 1.09.594 1.09 1.09 0 .297-.099.594-.297.793 1.09-.099 1.883-.199 2.478-.397C16.261 7.541 13.784 1 12 1c-1.685 0-4.261 6.64-4.559 11.396.793.199 2.082.397 3.667.496Z"/></svg>