<svg xmlns="http://www.w3.org/2000/svg" viewBox="0 0 24 24"><path fill="#44739e" d="M12.942 14.478c-1.672-.533-4.127-.699-5.716-.699s-4.044.166-5.716.699c.676-1.79 1.862-2.585 2.146-4.257.131-.723.226-1.743.154-2.49-.047-.474.321-.889.795-.937.771-.083 1.636-.13 2.621-.13s1.85.047 2.62.13c.475.048.831.463.783.937-.071.747.036 1.767.154 2.49.285 1.672 1.471 2.467 2.159 4.257M9.894 5.893c-.925-.083-1.945-.119-2.668-.119s-1.743.036-2.668.119l.45-2.763c.024-.19.119-.38.273-.51l.415-.38c.024-.023.059-.047.083-.083l.439-.521c.142-.19.403-.309.676-.309h.652c.273 0 .534.119.7.32l.438.522c.024.024.048.06.083.083l.415.38c.143.13.249.32.273.51Zm-2.668 16.78C3.799 22.673 1 19.708 1 16.886c0-.249.047-.486.071-.724.024-.225.071-.415.119-.628.972-.415 3.024-.878 6.036-.878s5.063.475 6.036.89c.047.213.083.403.118.628.024.237.071.463.071.724 0 2.81-2.798 5.775-6.225 5.775m4.115-16.33c.012.024.023.048.047.06.664-.048 1.352-.071 1.862-.071.617 0 1.494.035 2.3.106l-.379-2.371c-.024-.166-.107-.332-.237-.439l-.356-.332c-.036-.024-.047-.048-.071-.071l-.38-.451c-.142-.178-.367-.273-.604-.273h-.558c-.237 0-.462.107-.581.261l-.379.463c-.024.035-.048.047-.071.071l-.356.332c-.131.107-.214.273-.237.439l-.321 1.98c.119.071.226.178.321.296m7.198 8.942c-.036-.19-.059-.356-.107-.546-.747-.32-2.253-.676-4.423-.747.012.024.024.036.024.06.047.118.249.782.367 1.233v.012c.048.178.071.32.071.367v.012c.024.107.048.202.06.32 0 .024.011.048.011.071.012.06.012.131.024.19.024.178.059.392.059.652 0 1.352-.545 2.763-1.47 3.961.024 0 .047.012.071.012 2.953 0 5.36-2.55 5.36-4.969.024-.237-.023-.427-.047-.628M13.25 7.102c-.546 0-1.032.024-1.494.048.059.225.083.462.059.688-.059.604.036 1.529.142 2.182.119.687.463 1.197.902 1.85.26.391.557.83.818 1.351 1.352.024 3.19.178 4.494.593-.593-1.541-1.613-2.229-1.862-3.664-.106-.617-.189-1.494-.13-2.146.036-.404-.261-.771-.676-.807-.664-.059-1.411-.095-2.253-.095m9.7 7.365c-.024-.166-.059-.309-.095-.475-.652-.273-1.933-.581-3.794-.652.011.036.035.071.047.107.036.095.213.676.32 1.055v.012c.036.154.071.273.06.308v.012c.011.083.035.178.047.273 0 .024 0 .036.012.059 0 .06.012.107.024.166.023.154.047.344.047.558 0 .272-.036.545-.083.806-.012.047-.012.083-.024.13-.059.273-.13.534-.225.807-.012.024-.024.047-.024.071-.225.569-.533 1.127-.937 1.625 2.574 0 4.673-2.23 4.673-4.341.012-.178-.024-.344-.048-.521M17.187 8.11c-.047.522.036 1.317.119 1.874.094.593.403 1.032.77 1.601.214.32.451.688.676 1.091 1.174.024 2.74.154 3.866.51-.522-1.34-1.411-1.945-1.624-3.202-.095-.545-.166-1.304-.119-1.874.036-.355-.237-.664-.593-.699-.581-.06-1.233-.095-1.968-.095-.439 0-.842.012-1.234.035.107.249.143.499.107.759m-.522-1.387c.593-.047 1.21-.059 1.66-.059.546 0 1.305.023 2.004.095l-.332-2.064c-.023-.142-.094-.284-.201-.379l-.308-.285-.06-.059-.332-.392c-.13-.154-.32-.237-.522-.237h-.486c-.201 0-.403.095-.51.237l-.332.356-.059.059-.32.285a.55.55 0 0 0-.202.38l-.296 1.814c.106.071.201.154.296.249"/></svg>