<svg xmlns="http://www.w3.org/2000/svg" viewBox="0 0 24 24"><path fill="#44739e" d="M22.636 10.858a1.98 1.98 0 0 0-.488-.49v.007a2.807 2.807 0 0 0-1.65-.468c-.483-.011-1.21-.018-1.855-.02h-2.12v.817c1.592 0 2.706-.013 3.935.021a1.947 1.947 0 0 1 1.099.289 1.195 1.195 0 0 1 .007 1.98 1.94 1.94 0 0 1-1.1.289c-1.228.034-2.346.021-3.936.021v.817c1.6 0 2.749 0 3.976-.024a2.798 2.798 0 0 0 1.649-.468 1.985 1.985 0 0 0 .483-2.771m-8.024.292h-.006c0 .415-.138.55-.565.558-.203.007-.74.007-1.18.007h-1.216v2.4h1.109v-1.578h.109c.576 0 1.295 0 1.565-.01.831-.025 1.083-.262 1.115-1.032.008-.104.008-.235.008-.379V9.879h-.939Zm-7.343-.645a1.54 1.54 0 0 0-1.3-.616c-.343 0-1.83-.01-2.697-.01H1v.814c1.823 0 3.987 0 4.935.011a.682.682 0 0 1 .468.137.397.397 0 0 1 .11.434c-.088.243-.33.302-.58.307-.378.006-1.407.008-2.177.008H1v.812c1.823 0 3.991 0 4.935.011.293 0 .605.11.605.44s-.312.44-.605.44c-.942.014-3.112.01-4.935.01v.815c1.829 0 4.223.006 4.962-.011a1.53 1.53 0 0 0 1.3-.615 1.16 1.16 0 0 0-.172-1.493 1.161 1.161 0 0 0 .179-1.494m2.11.63V9.879h-.94c0 .401-.009 1.219.008 1.613.032.77.281 1.006 1.064 1.033.544.019.973.012 1.724.01v-.82c-.601 0-.846 0-1.29-.007-.428-.008-.563-.148-.566-.573"/></svg>