<svg xmlns="http://www.w3.org/2000/svg" fill="#44739e" viewBox="0 0 24 24"><path d="M4.9367 16.1875a5.5171 5.4132 0 0 0 2.7968.459 4.7925 4.7022 0 0 1-2.5828-.5508 4.7338 4.6446 0 0 1-2.149-2.3633c-.0099-.0235-.0179-.045-.0278-.0684.006.0137.01.0274.016.041l-.014-.0332a4.7089 4.6202 0 0 1 .1154-3.8252l.0299-.0586c.0498-.0977.0995-.1953.1573-.2852.0199-.0351.0418-.0683.0637-.1035.0517-.082.1075-.164.1652-.2442.0239-.0332.0458-.0664.0697-.0976a4.4 4.4 0 0 1 .2607-.3203 5.1 5.1 0 0 1 .3384-.3477c.0458-.043.0996-.08.1414-.1211.0736-.0645.1453-.1309.223-.1895a5 5 0 0 1 .199-.1425c.0657-.045.1234-.0918.1871-.1329.0816-.0527.1672-.0976.2508-.1464.0518-.0293.0996-.0625.1573-.0918.0995-.0528.199-.0977.2986-.1416.0418-.0196.0816-.041.1254-.0586.1135-.0489.229-.0899.3444-.129.0318-.0117.0617-.0253.0936-.0351.1274-.043.2568-.0781.3881-.1113l.0617-.0176a5.2 5.2 0 0 1 .43-.086l.0279-.0058a5.4106 5.3087 0 0 1 3.609.6523 5.7789 5.67 0 0 0-.5504-.331 5.3907 5.2892 0 0 0-1.7627-.586 5.532 5.4278 0 0 0-3.1552.4239 5.4415 5.339 0 0 0-1.6761 1.1719l-.0418.041a5.341 5.2403 0 0 0-1.481 4.1798 4.9269 4.834 0 0 0 .209.8105 4.886 4.794 0 0 0 1.0839 1.7325 5.1409 5.044 0 0 0 1.5975 1.1123m6.9275-5.5646h.1731c.118 0 .213.095.213.213v2.3436c0 .118-.095.213-.213.213h-.1731a.2125.2125 0 0 1-.213-.213V10.836c0-.118.095-.213.213-.213m-.3335 4.5324a.411.4033 0 0 0-.5803.0127 4.5447 4.459 0 0 1-3.0168 1.3926 5.4325 5.3302 0 0 1-2.781-.4659 4.7925 4.7022 0 0 0 2.588.5508 5.5171 5.4132 0 0 1-2.797-.459 5.6574 5.5509 0 0 0 3.01.5489 4.7228 4.6339 0 0 0 3.1272-1.4463.2349.2305 0 0 1 .3275-.0068.231.2266 0 0 1 .0707.1562.227.2227 0 0 1-.0657.1612 5.1498 5.0528 0 0 1-3.0258 1.542 5.308 5.2081 0 0 1-4.4402-1.3868 5.1837 5.086 0 0 1-.6031-.6728 4.8681 4.7765 0 0 1-.8839-1.256 5.4584 5.3556 0 0 0 3.5264 3.3019 5.5738 5.4689 0 0 0 2.4267.1875 5.326 5.2257 0 0 0 3.1283-1.5928.4051.3975 0 0 0-.011-.5664Zm-.8072-7.5187h-.008a5.4106 5.3087 0 0 0-3.609-.6524l-.028.0059a5.2 5.2 0 0 0-.4299.0859l-.0617.0176c-.1314.0332-.2608.0683-.3882.1113-.0318.0098-.0617.0234-.0935.0352-.1155.039-.231.08-.3444.1289-.0438.0175-.0836.039-.1254.0586-.0996.044-.1991.0888-.2986.1416-.0538.0293-.1055.0625-.1573.0918a11 11 0 0 0-.2508.1465c-.0637.041-.1254.0878-.1871.1328-.0618.0449-.1354.0918-.1991.1426a7 7 0 0 0-.223.1894c-.0458.041-.0995.0781-.1413.1211a5.1 5.1 0 0 0-.3384.3477 4.4 4.4 0 0 0-.2608.3203c-.0239.0312-.0458.0644-.0697.0976a5 5 0 0 0-.1652.2442c-.0219.0351-.0438.0684-.0637.1035a8 8 0 0 0-.1573.2852l-.0298.0586a4.7089 4.6202 0 0 0-.1174 3.8213A4.5357 4.4503 0 0 1 5.479 7.8631a4.691 4.6026 0 0 1 2.6655-.2549 4.5198 4.4347 0 0 1 2.33 1.212l.017.0166a.5763.5654 0 0 0 .8072-.0303.5614.5508 0 0 0-.0289-.7813l-.0139-.0175a5.2872 5.1876 0 0 0-.5345-.42h-.005a5.0841 4.9884 0 0 0-.5494-.2851 5.7789 5.67 0 0 1 .5504.331Zm.427.5156a.3822.375 0 0 1 .1224.2607.3872.3799 0 0 1-.0995.2735.3981.3906 0 0 1-.5544.0215l-.012-.0118a4.7079 4.6192 0 0 0-2.4275-1.2607 4.8771 4.7853 0 0 0-2.772.2646 4.7776 4.6876 0 0 0-1.2591.7432 5.4106 5.3087 0 0 1 6.4696-.707 5.2812 5.1817 0 0 1 .5156.4052zm10.7476 2.547a.1821.1787 0 0 0-.1573-.0782h-.199a.2578.253 0 0 0-.233.1582l-.6728 1.7266-.6968-1.7286a.2588.254 0 0 0-.2329-.1562h-.205a.1821.1787 0 0 0-.1732.252l.9814 2.377a.1055.1035 0 0 1 0 .0488l-.205.5117a1.3935 1.3672 0 0 1-.0597.1367.445.4365 0 0 1-.0697.1075.2697.2647 0 0 1-.0816.0664.2986.293 0 0 1-.213.0059c-.0379-.0098-.0578-.0157-.0617-.0157a.199.1953 0 0 0-.2549.168l-.0318.2851a.0627.0615 0 0 0 .0458.0664l.0577.0157a1.1854 1.1631 0 0 0 .1752.037 1.2282 1.2051 0 0 0 .1871.0157.7843.7695 0 0 0 .5295-.1738 1.4621 1.4346 0 0 0 .2568-.3555 2.7 2.7 0 0 0 .0717-.1543l1.26-3.1446a.1692.166 0 0 0-.0178-.1719zm-5.542-.0763h-.1732a.2429.2383 0 0 0-.229.17l-.4737 1.6465-.5972-1.6602a.2518.247 0 0 0-.233-.1602h-.1552a.2488.2441 0 0 0-.231.1641l-.5593 1.6465-.4837-1.6406a.2478.2432 0 0 0-.231-.17h-.207a.1881.1846 0 0 0-.1831.2442l.7565 2.3594a.2468.2422 0 0 0 .2309.166h.1811a.2498.2451 0 0 0 .231-.162l.5732-1.6447.6132 1.6485a.2548.25 0 0 0 .2329.1602h.1831a.2449.2402 0 0 0 .231-.17l.7086-2.3594a.1901.1865 0 0 0-.1851-.2422zm2.751 2.6212a2.4 2.4 0 0 1-.0258-.207 7 7 0 0 1-.014-.2305 10 10 0 0 1-.008-.2696c-.002-.0976 0-.25 0-.25v-.6933a.9744.956 0 0 0-.3284-.795 1.294 1.2696 0 0 0-.8251-.2422 1.8045 1.7705 0 0 0-.5634.0977 1.7408 1.708 0 0 0-.428.2363.212.208 0 0 0-.0816.1426.199.1953 0 0 0 .0498.1543l.187.2168a.0717.0703 0 0 0 .0439.0215.0567.0557 0 0 0 .0458-.0156l.0537-.045a1.0351 1.0156 0 0 1 .6967-.252.7584.7442 0 0 1 .438.1173.42.4121 0 0 1 .1443.3828h-.2518a4.2282 4.1485 0 0 0-.448.0254 1.8911 1.8555 0 0 0-.4976.1172 1.066 1.046 0 0 0-.42.293.8142.7988 0 0 0-.1831.543.849.833 0 0 0 .0995.4062.835.8194 0 0 0 .2468.2734.9953.9766 0 0 0 .3325.1504 1.3755 1.3496 0 0 0 .3603.045 1.2342 1.211 0 0 0 .6031-.131.8898.873 0 0 0 .1921-.1523v.0235a.229.2246 0 0 0 .223.1953h.3125a.0637.0625 0 0 0 .0478-.0215.0657.0645 0 0 0 .016-.0488zm-.613-1.0742a1.1655 1.1436 0 0 1-.0359.2812.5833.5723 0 0 1-.1135.2266.6091.5977 0 0 1-.2259.162.9694.9512 0 0 1-.3862.0645.5454.5352 0 0 1-.1692-.0253.5285.5186 0 0 1-.1473-.0684.3384.332 0 0 1-.0995-.1055.2757.2705 0 0 1-.0339-.1387.2827.2773 0 0 1 .0617-.1875.5116.502 0 0 1 .1991-.1367 1.2302 1.207 0 0 1 .3225-.084c.1214-.0176.3105-.0234.3145-.0234h.3076zm-8.1568-.5587a4.1993 4.1202 0 0 0-.4479.0254 1.8672 1.832 0 0 0-.4976.1172 1.066 1.046 0 0 0-.42.293.8142.7988 0 0 0-.1832.543.849.833 0 0 0 .0995.4062.835.8194 0 0 0 .2469.2735.9764.958 0 0 0 .3324.1504 1.3755 1.3496 0 0 0 .3603.0449 1.2422 1.2188 0 0 0 .6052-.1309.9187.9014 0 0 0 .193-.1523v.0234a.227.2227 0 0 0 .221.1953h.3126a.0637.0625 0 0 0 .0477-.0214.0657.0645 0 0 0 .016-.0489l-.012-.08a1.8493 1.8145 0 0 1-.0239-.207 7 7 0 0 1-.0139-.2306 10 10 0 0 1-.008-.2695c-.002-.0977 0-.25 0-.25v-.6934a.9744.956 0 0 0-.3285-.795 1.294 1.2696 0 0 0-.826-.2421 1.8045 1.7705 0 0 0-.5634.0977 1.7408 1.708 0 0 0-.428.2363.212.208 0 0 0-.0856.1387.206.2022 0 0 0 .0497.1543l.1872.2168a.0667.0654 0 0 0 .0418.0214.0567.0557 0 0 0 .0458-.0156l.0537-.0449a1.0391 1.0196 0 0 1 .6967-.252.7545.7402 0 0 1 .438.1172.419.4111 0 0 1 .1453.3829zm.2588.5215v.0372a1.1655 1.1436 0 0 1-.0358.2812.5872.5762 0 0 1-.1155.2266.621.6094 0 0 1-.227.162.9356.918 0 0 1-.3821.0645.5454.5352 0 0 1-.1692-.0253.5285.5186 0 0 1-.1473-.0684.3633.3565 0 0 1-.0996-.1055.2757.2705 0 0 1-.0338-.1387.2827.2773 0 0 1 .0617-.1875.4977.4883 0 0 1 .199-.1367 1.2302 1.207 0 0 1 .3226-.084c.1214-.0176.3105-.0234.3125-.0234h.1553zM6.81 11.3691a.851.835 0 0 1 .2787-.1895.8958.879 0 0 1 .3682-.0703.649.6367 0 0 1 .3086.0742 1.3148 1.29 0 0 1 .23.1738.2419.2373 0 0 0 .2925.0157l.2648-.1953a.0627.0615 0 0 0 .0259-.043.0587.0576 0 0 0-.016-.0469l-.0547-.0527a1.5149 1.4864 0 0 0-.4718-.3516 1.3298 1.3047 0 0 0-.5812-.127 1.5716 1.542 0 0 0-.5972.1075 1.3536 1.3282 0 0 0-.4718.3047 1.4333 1.4063 0 0 0-.3066.4609 1.6403 1.6094 0 0 0 0 1.1563 1.4223 1.3955 0 0 0 .3066.461 1.3935 1.3672 0 0 0 .4718.3046 1.5647 1.5352 0 0 0 .5972.1074 1.3795 1.3535 0 0 0 .5713-.1171 1.8374 1.8028 0 0 0 .408-.3008.206.2022 0 0 0 .0588-.1504.199.1953 0 0 0-.0757-.1465l-.2488-.2012a.0557.0547 0 0 0-.0458-.0137.0607.0596 0 0 0-.0418.0235l-.0438.0547a.853.837 0 0 1-.2627.2187.643.6309 0 0 1-.3205.0781.9137.8965 0 0 1-.3683-.0703.8958.879 0 0 1-.2787-.1894.7903.7754 0 0 1-.1732-.2813 1.073 1.0528 0 0 1-.0617-.3555 1.0262 1.0069 0 0 1 .0617-.3554.838.8223 0 0 1 .1762-.2832m5.1399-2.1056a.4648.456 0 1 0 .4638.4551.4588.4502 0 0 0-.1354-.3222.4489.4404 0 0 0-.3284-.1329m.217.667a.2986.293 0 0 1-.217.087.2916.2861 0 0 1-.214-.085.2986.293 0 0 1-.0886-.2139.2986.293 0 0 1 .2986-.2988.2916.2861 0 0 1 .216.087.2986.293 0 0 1 .0886.2118.2916.2861 0 0 1-.0837.212"/></svg>