<svg xmlns="http://www.w3.org/2000/svg" viewBox="0 0 24 24"><path fill="#44739e" d="M4.224 16.615a6.095 5.98 0 0 0 3.089.507 5.295 5.195 0 0 1-2.853-.608 5.23 5.131 0 0 1-2.374-2.611c-.011-.026-.02-.05-.031-.076.007.015.011.031.018.046l-.016-.037a5.202 5.104 0 0 1 .128-4.226l.033-.065c.055-.108.11-.216.174-.315.022-.039.046-.075.07-.114.057-.091.119-.181.182-.27.027-.037.051-.073.077-.108a4.9 4.9 0 0 1 .288-.354A5.6 5.6 0 0 1 3.383 8c.051-.047.11-.088.157-.134.081-.071.16-.144.246-.209a5.5 5.5 0 0 1 .22-.157c.072-.05.136-.102.206-.147.091-.058.185-.108.278-.162.057-.032.11-.069.173-.101.11-.059.22-.108.33-.157.046-.022.09-.045.139-.065.125-.054.253-.099.38-.142.035-.013.068-.028.104-.039.14-.047.283-.086.428-.123l.069-.019a5.8 5.8 0 0 1 .475-.095l.03-.007a5.977 5.865 0 0 1 3.988.721 6.384 6.264 0 0 0-.608-.366 5.956 5.843 0 0 0-1.948-.647 6.112 5.996 0 0 0-3.486.468 6.012 5.898 0 0 0-1.851 1.295l-.047.045a5.901 5.789 0 0 0-1.636 4.618 5.443 5.34 0 0 0 .231.895 5.398 5.296 0 0 0 1.198 1.914 5.68 5.572 0 0 0 1.765 1.229m7.653-6.147h.191c.13 0 .235.104.235.235v2.589c0 .13-.105.235-.235.235h-.191a.235.235 0 0 1-.235-.235v-2.589c0-.13.104-.235.235-.235m-.369 5.007a.454.446 0 0 0-.641.014 5.021 4.926 0 0 1-3.333 1.538 6.002 5.889 0 0 1-3.072-.514 5.295 5.195 0 0 0 2.859.608 6.095 5.98 0 0 1-3.09-.507 6.25 6.132 0 0 0 3.326.607 5.218 5.119 0 0 0 3.454-1.598.26.255 0 0 1 .362-.008.255.25 0 0 1 .078.173.251.246 0 0 1-.072.178 5.689 5.582 0 0 1-3.343 1.703 5.864 5.754 0 0 1-4.906-1.532 5.727 5.619 0 0 1-.666-.743 5.378 5.277 0 0 1-.976-1.388 6.03 5.917 0 0 0 3.896 3.648 6.158 6.042 0 0 0 2.68.207 5.884 5.773 0 0 0 3.457-1.759.448.439 0 0 0-.013-.626Zm-.891-8.307h-.009a5.977 5.865 0 0 0-3.987-.72l-.031.006a5.8 5.8 0 0 0-.475.095l-.068.02c-.146.036-.288.075-.429.123-.035.01-.068.025-.104.038-.127.043-.255.089-.38.143-.048.019-.092.043-.139.065-.11.048-.22.098-.329.156-.06.032-.117.069-.174.101a12 12 0 0 0-.277.162c-.071.046-.139.097-.207.147s-.15.101-.22.158a8 8 0 0 0-.246.209c-.051.045-.11.086-.156.134a5.6 5.6 0 0 0-.374.384 4.9 4.9 0 0 0-.288.354c-.027.034-.051.071-.077.107a5.5 5.5 0 0 0-.183.27c-.024.039-.048.076-.07.114a9 9 0 0 0-.174.316l-.033.064a5.202 5.104 0 0 0-.13 4.222 5.011 4.917 0 0 1 2.766-6.417 5.182 5.085 0 0 1 2.944-.282 4.993 4.899 0 0 1 2.575 1.339l.018.018a.637.625 0 0 0 .892-.033.62.609 0 0 0-.032-.863l-.015-.02a5.841 5.731 0 0 0-.591-.464h-.005a5.617 5.511 0 0 0-.607-.315 6.384 6.264 0 0 1 .608.366Zm.471.57a.422.414 0 0 1 .136.288.428.42 0 0 1-.11.302.44.432 0 0 1-.613.024l-.013-.013a5.201 5.103 0 0 0-2.682-1.393 5.388 5.287 0 0 0-3.062.292 5.278 5.179 0 0 0-1.391.822 5.977 5.865 0 0 1 7.147-.782 5.835 5.725 0 0 1 .57.448Zm11.874 2.814a.201.197 0 0 0-.174-.086h-.22a.285.28 0 0 0-.257.174l-.743 1.908-.77-1.91a.286.281 0 0 0-.257-.172h-.227a.201.197 0 0 0-.191.278l1.084 2.626a.117.114 0 0 1 0 .054l-.226.565a1.54 1.51 0 0 1-.066.151.492.482 0 0 1-.077.119.298.292 0 0 1-.091.073.33.324 0 0 1-.235.007c-.042-.011-.064-.017-.068-.017a.22.216 0 0 0-.282.185l-.035.315a.069.068 0 0 0 .051.073l.064.018a1.31 1.285 0 0 0 .193.041 1.357 1.331 0 0 0 .207.017.866.85 0 0 0 .585-.192 1.615 1.585 0 0 0 .283-.393 3 3 0 0 0 .08-.17l1.392-3.474a.187.183 0 0 0-.02-.19m-6.123-.084h-.191a.268.263 0 0 0-.253.187l-.523 1.819-.66-1.834a.278.273 0 0 0-.257-.177h-.172a.275.27 0 0 0-.255.182l-.618 1.819-.534-1.813a.274.269 0 0 0-.256-.188h-.228a.208.204 0 0 0-.203.27l.836 2.607a.273.268 0 0 0 .255.183h.2a.276.271 0 0 0 .256-.179l.633-1.817.677 1.821a.281.276 0 0 0 .258.177h.202a.271.265 0 0 0 .255-.187l.783-2.607a.21.206 0 0 0-.205-.268Zm3.04 2.895a2.7 2.7 0 0 1-.029-.228 8 8 0 0 1-.015-.255 11 11 0 0 1-.009-.298c-.002-.108 0-.276 0-.276v-.766a1.076 1.056 0 0 0-.363-.878 1.43 1.403 0 0 0-.912-.268 1.994 1.956 0 0 0-.622.108 1.923 1.887 0 0 0-.473.261.234.23 0 0 0-.09.158.22.216 0 0 0 .055.17l.207.24a.079.078 0 0 0 .048.024.063.062 0 0 0 .051-.018l.059-.049a1.144 1.122 0 0 1 .77-.279.838.822 0 0 1 .484.13.464.455 0 0 1 .159.423h-.278a4.671 4.583 0 0 0-.495.028 2.089 2.05 0 0 0-.55.129 1.178 1.156 0 0 0-.464.324.9.882 0 0 0-.202.6.938.92 0 0 0 .11.449.922.905 0 0 0 .273.302 1.1 1.079 0 0 0 .367.166 1.52 1.491 0 0 0 .398.05 1.364 1.338 0 0 0 .666-.145.983.964 0 0 0 .212-.168v.025a.253.248 0 0 0 .247.216h.345a.07.069 0 0 0 .053-.024.073.071 0 0 0 .018-.053Zm-.678-1.186a1.288 1.263 0 0 1-.039.31.644.632 0 0 1-.126.251.673.66 0 0 1-.249.179 1.071 1.051 0 0 1-.427.071.603.591 0 0 1-.187-.028.584.573 0 0 1-.163-.076.374.367 0 0 1-.109-.116.305.299 0 0 1-.038-.153.312.306 0 0 1 .068-.207.565.555 0 0 1 .22-.152 1.359 1.333 0 0 1 .356-.092c.135-.02.344-.026.348-.026h.34Zm-9.011-.618a4.639 4.552 0 0 0-.495.029 2.063 2.024 0 0 0-.55.129 1.178 1.156 0 0 0-.464.324.9.882 0 0 0-.202.6.938.92 0 0 0 .11.448.922.905 0 0 0 .273.303 1.079 1.058 0 0 0 .367.166 1.52 1.491 0 0 0 .398.049 1.372 1.346 0 0 0 .669-.144 1.015.996 0 0 0 .213-.169v.026a.251.246 0 0 0 .244.216h.345a.07.069 0 0 0 .053-.024.073.071 0 0 0 .018-.054l-.014-.088a2.043 2.005 0 0 1-.026-.229 8 8 0 0 1-.015-.254 11 11 0 0 1-.009-.298c-.002-.108 0-.276 0-.276v-.766a1.076 1.056 0 0 0-.363-.879 1.43 1.403 0 0 0-.913-.267 1.994 1.956 0 0 0-.622.108 1.923 1.887 0 0 0-.473.261.234.23 0 0 0-.094.153.228.223 0 0 0 .054.17l.207.24a.074.072 0 0 0 .046.024.063.062 0 0 0 .051-.018l.059-.049a1.148 1.126 0 0 1 .77-.279.834.818 0 0 1 .484.13.463.454 0 0 1 .16.423Zm.286.577v.041a1.288 1.263 0 0 1-.04.31.649.637 0 0 1-.127.251.686.673 0 0 1-.251.179 1.034 1.014 0 0 1-.422.071.603.591 0 0 1-.187-.028.584.573 0 0 1-.163-.076.401.394 0 0 1-.11-.116.305.299 0 0 1-.037-.153.312.306 0 0 1 .068-.207.55.539 0 0 1 .22-.152 1.359 1.333 0 0 1 .356-.092c.134-.02.343-.026.345-.026h.172Zm-4.183-.844a.94.922 0 0 1 .308-.209.99.971 0 0 1 .407-.078.717.703 0 0 1 .341.082 1.453 1.425 0 0 1 .254.192.267.262 0 0 0 .323.017l.293-.216a.069.068 0 0 0 .028-.047.065.064 0 0 0-.018-.052l-.06-.058a1.674 1.642 0 0 0-.521-.389 1.469 1.441 0 0 0-.642-.14 1.736 1.704 0 0 0-.66.119 1.495 1.467 0 0 0-.521.337 1.583 1.554 0 0 0-.339.509 1.812 1.778 0 0 0 0 1.277 1.571 1.542 0 0 0 .339.509 1.54 1.51 0 0 0 .521.337 1.729 1.696 0 0 0 .66.119 1.524 1.495 0 0 0 .631-.13 2.03 1.992 0 0 0 .451-.332.228.223 0 0 0 .065-.166.22.216 0 0 0-.084-.162l-.275-.222a.062.06 0 0 0-.051-.015.067.066 0 0 0-.046.026l-.048.06a.942.925 0 0 1-.29.242.71.697 0 0 1-.354.086 1.009.99 0 0 1-.407-.078.99.971 0 0 1-.308-.209.873.857 0 0 1-.192-.311 1.185 1.163 0 0 1-.068-.393 1.134 1.112 0 0 1 .068-.392.926.908 0 0 1 .195-.313m5.679-2.326a.513.504 0 1 0 .512.502.507.497 0 0 0-.15-.355.496.487 0 0 0-.362-.147m.239.737a.33.324 0 0 1-.239.096.322.316 0 0 1-.237-.094.33.324 0 0 1-.098-.237.33.324 0 0 1 .33-.33.322.316 0 0 1 .239.096.33.324 0 0 1 .098.234.322.316 0 0 1-.093.235"/></svg>