<svg xmlns="http://www.w3.org/2000/svg" viewBox="0 0 24 24"><path fill="#44739e" d="m10.535 14.413-.673-.337-.487-1.166a3.46 3.46 0 0 0-1.523-1.694 1.494 1.494 0 0 0 1.22-1.46 1.516 1.516 0 1 0-2.615 1.029c-.099-.008-.198-.023-.299-.023a5.15 5.15 0 0 0-2.086.443l-.253.112a4.043 4.043 0 0 0-2.19 2.415l-.083.246a1.011 1.011 0 1 0 1.917.641l.082-.246a2.02 2.02 0 0 1 1.095-1.206l.253-.112.088-.036-.532 2.007a2.021 2.021 0 0 0 .464 1.884l2.232 2.434.695 2.781a1.011 1.011 0 0 0 1.961-.49l-.725-2.907a1.53 1.53 0 0 0-.354-.657l-1.564-1.704.608-2.068.303.727a1.514 1.514 0 0 0 .72.772l.847.42a1.011 1.011 0 1 0 .898-1.805Zm-6.585 2.91-.786 1.97-1.875 1.872a1.012 1.012 0 0 0 1.431 1.431l1.947-1.949a1.52 1.52 0 0 0 .337-.507l.458-1.143-1.291-1.402a3.1 3.1 0 0 1-.221-.272M2.429 1.607H1.306V2.73a1.123 1.123 0 0 0 1.123-1.123m1.499 0h-.752a1.869 1.869 0 0 1-1.87 1.869v.756a2.621 2.621 0 0 0 2.622-2.625m1.494 0h-.747a3.369 3.369 0 0 1-3.369 3.369v.746a4.116 4.116 0 0 0 4.116-4.115m6.349 4.352 1.965 3.403 1.42-1.786-1.123-1.948Zm8.422 3.021V7.458a1.405 1.405 0 0 0 .842-1.285 1.325 1.325 0 0 0-.298-.843l1.106-.649a1.187 1.187 0 0 0 .433-1.623l-.775-1.348a1.193 1.193 0 0 0-1.623-.438l-4.565 2.65a1.108 1.108 0 0 0-.409 1.521l.842 1.46a1.123 1.123 0 0 0 1.533.409l1.055-.607a1.426 1.426 0 0 0 .736.748V8.98a1.123 1.123 0 0 0 1.123 1.123H23V8.98Z"/></svg>