<svg xmlns="http://www.w3.org/2000/svg" fill="#44739e" viewBox="0 0 24 24"><path d="m10.9 14.166-.6-.3-.433-1.038a3.082 3.082 0 0 0-1.357-1.509 1.33 1.33 0 0 0 1.087-1.3 1.35 1.35 0 1 0-2.329.916c-.088-.007-.176-.02-.266-.02a4.59 4.59 0 0 0-1.858.394l-.225.1a3.6 3.6 0 0 0-1.95 2.151l-.074.219a.9.9 0 1 0 1.707.571l.073-.219a1.8 1.8 0 0 1 .975-1.074l.225-.1.079-.032-.474 1.787a1.8 1.8 0 0 0 .413 1.678l1.988 2.167.619 2.477a.9.9 0 0 0 1.746-.436L9.6 18.009a1.36 1.36 0 0 0-.315-.585l-1.393-1.518.542-1.841.27.647a1.348 1.348 0 0 0 .641.688l.754.374a.9.9 0 1 0 .8-1.608zm-5.864 2.592-.7 1.754-1.67 1.667a.9009.9009 0 0 0 1.274 1.274l1.734-1.735a1.35 1.35 0 0 0 .3-.452l.408-1.018L5.232 17a2.8 2.8 0 0 1-.196-.242M3.681 2.762h-1v1a1 1 0 0 0 1-1m1.335 0h-.67a1.664 1.664 0 0 1-1.665 1.665V5.1a2.334 2.334 0 0 0 2.335-2.338m1.33 0h-.665a3 3 0 0 1-3 3v.665a3.665 3.665 0 0 0 3.665-3.665M12 6.638l1.75 3.03 1.265-1.59-1-1.735zm7.5 2.69V7.973a1.251 1.251 0 0 0 .75-1.145 1.18 1.18 0 0 0-.265-.75l.985-.578a1.057 1.057 0 0 0 .385-1.446l-.69-1.2a1.062 1.062 0 0 0-1.445-.39l-4.065 2.36a.987.987 0 0 0-.365 1.354l.75 1.3a1 1 0 0 0 1.365.365l.94-.541a1.27 1.27 0 0 0 .655.666v1.36a1 1 0 0 0 1 1H22v-1z"/></svg>