<svg xmlns="http://www.w3.org/2000/svg" viewBox="0 0 24 24"><path fill="#44739e" d="M8.972 19.396a1.096 1.096 0 0 0-1.036.874.645.645 0 0 0 .706.849.992.992 0 0 0 1.033-.871.696.696 0 0 0-.703-.852m5.267 0c-.542 0-.741.414-.661.874a1.053 1.053 0 0 0 1.069.849.619.619 0 0 0 .66-.871 1.171 1.171 0 0 0-1.068-.852m3.249-4.633a.91.91 0 0 0-.743-.389H5.885a.91.91 0 0 0-.763.416L1.14 21.005a.91.91 0 0 0 .762 1.395h19.165a.91.91 0 0 0 .743-1.423Zm-7.702.71h.244l.463 1.06c.127.246.227.467.316.683h.007c-.011-.28 0-.535.013-.861l.044-.878h.213l-.054 2.096h-.288l-.559-1.064a4.44 4.44 0 0 1-.254-.698h-.008c-.029.264-.062.515-.114.863l-.139.896h-.262Zm-2.929 5.828h-.369l.242-.921c.081-.292.179-.643.274-.904h-.015c-.175.245-.377.506-.62.796l-.896 1.017h-.282l-.011-.997a5.35 5.35 0 0 1 .082-.815h-.008c-.135.262-.326.612-.505.926l-.52.899h-.361l1.27-2.096h.412l-.02 1.014a6.8 6.8 0 0 1-.023.705h.013c.159-.211.352-.441.58-.705l.846-1.014h.411Zm1.725.029c-.776 0-1.198-.429-1.018-1.063a1.526 1.526 0 0 1 1.468-1.101.928.928 0 0 1 1.018 1.061 1.323 1.323 0 0 1-1.468 1.103m2.693-1.9v1.866h-.383l.055-1.866h-.774l.021-.227h1.849l.013.227Zm1.217 1.866-.176-2.096h.323l.227 2.096Zm-.125-3.698a.983.983 0 0 1-.982-1.064c-.007-.664.329-1.1.787-1.1s.861.439.983 1.061c.138.726-.24 1.108-.793 1.108Zm2.315 3.732a1.365 1.365 0 0 1-1.473-1.063.91.91 0 0 1 .995-1.101 1.553 1.553 0 0 1 1.473 1.061c.235.726-.25 1.103-.999 1.103Zm3.66-.034-1.387-1.064a9.6 9.6 0 0 1-.781-.698h-.01c.123.265.227.516.366.865l.352.895h-.356l-.775-2.089h.353l1.29 1.06c.32.246.587.467.828.683h.007c-.173-.281-.308-.536-.471-.861l-.437-.878h.304l1.096 2.096Zm-6.161-5.637c-.377 0-.55.415-.533.874a.786.786 0 0 0 .709.849c.433 0 .612-.395.531-.87-.071-.416-.323-.853-.707-.853M2.156 2.094H1.018v1.138a1.138 1.138 0 0 0 1.138-1.138m1.519 0h-.762a1.893 1.893 0 0 1-1.895 1.895v.762a2.656 2.656 0 0 0 2.657-2.657m1.513 0h-.756a3.414 3.414 0 0 1-3.414 3.414v.756a4.17 4.17 0 0 0 4.17-4.17m9.864 6.048-1.138-1.974-2.292.335 1.991 3.448Zm5.103 1.422V8.018a1.423 1.423 0 0 0 .854-1.303 1.343 1.343 0 0 0-.302-.854l1.121-.654a1.202 1.202 0 0 0 .438-1.644l-.785-1.365a1.211 1.211 0 0 0-1.644-.438l-4.626 2.685a1.124 1.124 0 0 0-.415 1.542l.854 1.479a1.138 1.138 0 0 0 1.553.415l1.069-.614a1.445 1.445 0 0 0 .746.756v1.541a1.138 1.138 0 0 0 1.137 1.138H23V9.564Z"/></svg>