<svg xmlns="http://www.w3.org/2000/svg" viewBox="0 0 24 24"><path fill="#44739e" d="M2.632 1.613H1.521v1.112a1.112 1.112 0 0 0 1.111-1.112m1.485 0h-.745a1.85 1.85 0 0 1-1.851 1.851v.748a2.595 2.595 0 0 0 2.596-2.599m1.478 0h-.739a3.335 3.335 0 0 1-3.335 3.335v.74a4.075 4.075 0 0 0 4.074-4.075m12.068 14.085-.287-1.018a.478.478 0 0 0-.585-.333l-.556.155a.467.467 0 0 0-.228.144l-1.364-3.201c-.595-1.515-3.464-1.476-5.407-1.505s-4.641.013-5.195 1.505l-1.37 3.204a.467.467 0 0 0-.228-.145l-.55-.157a.476.476 0 0 0-.589.328l-.286 1.019a.477.477 0 0 0 .333.588l.549.154a.5.5 0 0 0 .056.01 2.22 2.22 0 0 0-.171.721v3.722a.292.292 0 0 0 .208.322v.99a.667.667 0 0 0 .667.667h1.801a.667.667 0 0 0 .667-.667v-.949h8.423v.955a.667.667 0 0 0 .667.667h1.8a.667.667 0 0 0 .667-.667v-.994a.291.291 0 0 0 .207-.322v-3.719a2.22 2.22 0 0 0-.171-.72.5.5 0 0 0 .056-.01l.549-.155a.476.476 0 0 0 .333-.588Zm-15.103.179.014-.053c.012.018.023.035.037.053Zm.584 2.904a.445.445 0 0 1-.444-.438v-1.039c0-.244.403-.434.752-.445a17.6 17.6 0 0 1 2.224.626c.235.067.445.509.445.753-.004.825-2.116.54-2.979.543Zm6.438-3.455h-.239c-1.768 0-5.294-.313-5.294-.313-.101-.006-.197-.07-.165-.165 1.357-4.141 1.399-3.83 5.382-3.781s4.008-.252 5.534 3.781c.032.095-.065.16-.166.165l-.787.065a2.269 2.269 0 0 0-4.265.244Zm2.176-.845a1.485 1.485 0 0 1 1.242.667c-.799.059-1.717.119-2.572.154a1.477 1.477 0 0 1 1.33-.821m4.225 3.86a.445.445 0 0 1-.438.445c-.859 0-2.974.281-2.979-.54 0-.243.206-.686.445-.752a17.6 17.6 0 0 1 2.224-.626c.349.006.752.197.752.444Zm4.237-9.428V7.407a1.391 1.391 0 0 0 .834-1.274 1.312 1.312 0 0 0-.294-.833l1.095-.643a1.175 1.175 0 0 0 .428-1.608l-.767-1.334a1.181 1.181 0 0 0-1.607-.434L15.39 3.905a1.097 1.097 0 0 0-.406 1.506l.834 1.445a1.112 1.112 0 0 0 1.517.406l1.045-.602a1.412 1.412 0 0 0 .729.741v1.512a1.112 1.112 0 0 0 1.111 1.112H23V8.913Zm-4.986-1.39-1.112-1.929-2.24.328 1.945 3.369Z"/></svg>