<svg xmlns="http://www.w3.org/2000/svg" fill="#44739e" viewBox="0 0 24 24"><path d="M13.394 13.723a1.869 1.869 0 0 0-1.62-1.829 4.62 4.62 0 0 0-1.1-.017h-.064a.257.257 0 0 0-.226.283.3.3 0 0 0 .3.265h.016c1.367.006 2 .447 2.043 1.326.027.544-.629 1.262-1.64 1.443a1.4 1.4 0 0 0-.352-.03 9.2 9.2 0 0 0-1.019.1 15 15 0 0 1-1.981.381 1.428 1.428 0 0 1-1.542-.862 5.37 5.37 0 0 1-.44-1.157 1.52 1.52 0 0 0-.318-.583l-.306-.343a3.06 3.06 0 0 0-.607-.752c-.092-.044-.129.121-.112.493-.215-.295-.348-.439-.4-.435-.078.008-.063.2-.045.395a.98.98 0 0 0 .2.453 2.13 2.13 0 0 0-.481.171 2.5 2.5 0 0 0-.287.225.433.433 0 0 0-.138.222l-.024.1a.217.217 0 0 1-.062.105l-.432.406a.2.2 0 0 0-.046.063.3.3 0 0 0-.033.13.27.27 0 0 0 .051.153l.009.014.33.571a.219.219 0 0 0 .154.105l.417.068a.219.219 0 0 1 .182.192 15.7 15.7 0 0 0 .463 2.8 3.84 3.84 0 0 0 .754 1.242 1.947 1.947 0 0 1 0 1.277 1.215 1.215 0 0 1-.295.627.21.21 0 0 1-.122.068l-.376.067a.216.216 0 0 0-.179.214v.111a.217.217 0 0 0 .22.215h.789a.219.219 0 0 0 .2-.132l.714-1.668a5.96 5.96 0 0 0 .261.936.2.2 0 0 1 .013.072.21.21 0 0 1-.211.211h-.091a.218.218 0 0 0-.217.218v.149a.217.217 0 0 0 .217.214h.6a.218.218 0 0 0 .212-.223q-.027-1.076.006-1.5a3.03 3.03 0 0 1 .133-.694 1.6 1.6 0 0 0 .259 0 26.5 26.5 0 0 1 2.667-.354 5.12 5.12 0 0 1 .306 1.253 2.09 2.09 0 0 1-.122.829.221.221 0 0 1-.2.145l-.3.014a.217.217 0 0 0-.207.223v.1A.216.216 0 0 0 9.54 22h.571a.217.217 0 0 0 .188-.108 8.15 8.15 0 0 0 .615-1.24 4.27 4.27 0 0 0 .225-1.03 14.5 14.5 0 0 1 1.3.771.894.894 0 0 1 .188.521c0 .258-.015.332-.188.465a.39.39 0 0 1-.25.077.218.218 0 0 0-.218.217v.11a.218.218 0 0 0 .218.217h.722a.217.217 0 0 0 .209-.156 8.5 8.5 0 0 0 .231-.93 1.454 1.454 0 0 0-.1-1.012c-.2-.454-.7-.677-.807-1.084s.033-1.021-.121-2.009a2.49 2.49 0 0 0-.3-.926l.024-.017a2.768 2.768 0 0 0 1.347-2.143M3.681 2.762h-1v1a1 1 0 0 0 1-1m1.335 0h-.67a1.664 1.664 0 0 1-1.665 1.665V5.1a2.334 2.334 0 0 0 2.335-2.338m1.33 0h-.665a3 3 0 0 1-3 3v.665a3.665 3.665 0 0 0 3.665-3.665M12 6.638l1.75 3.03 1.265-1.59-1-1.735zm7.5 2.69V7.973a1.251 1.251 0 0 0 .75-1.145 1.18 1.18 0 0 0-.265-.75l.985-.578a1.057 1.057 0 0 0 .385-1.446l-.69-1.2a1.062 1.062 0 0 0-1.445-.39l-4.065 2.36a.987.987 0 0 0-.365 1.354l.75 1.3a1 1 0 0 0 1.365.365l.94-.541a1.27 1.27 0 0 0 .655.666v1.36a1 1 0 0 0 1 1H22v-1z"/></svg>