<svg xmlns="http://www.w3.org/2000/svg" viewBox="0 0 24 24"><path fill="#44739e" d="M13.18 13.745a2.09 2.09 0 0 0-1.812-2.045 5.17 5.17 0 0 0-1.23-.019h-.071a.287.287 0 0 0-.253.316.335.335 0 0 0 .336.297h.017c1.529.006 2.237.5 2.285 1.482.03.609-.704 1.411-1.834 1.614a1.57 1.57 0 0 0-.394-.034 10.3 10.3 0 0 0-1.139.112 16.8 16.8 0 0 1-2.215.426 1.597 1.597 0 0 1-1.724-.964 6 6 0 0 1-.492-1.293 1.7 1.7 0 0 0-.356-.652l-.342-.384a3.42 3.42 0 0 0-.678-.841c-.103-.049-.145.136-.126.552-.24-.33-.389-.491-.447-.487-.087.009-.07.224-.05.442a1.096 1.096 0 0 0 .223.506 2.38 2.38 0 0 0-.537.192 2.8 2.8 0 0 0-.321.251.484.484 0 0 0-.155.248l-.026.112a.243.243 0 0 1-.07.118l-.483.454a.22.22 0 0 0-.051.07.335.335 0 0 0-.037.145.3.3 0 0 0 .057.171l.01.016.369.639a.245.245 0 0 0 .172.117l.466.076a.245.245 0 0 1 .204.215 17.55 17.55 0 0 0 .518 3.13 4.29 4.29 0 0 0 .843 1.389 2.177 2.177 0 0 1 0 1.428 1.36 1.36 0 0 1-.33.701.235.235 0 0 1-.137.076l-.42.075a.242.242 0 0 0-.2.239v.124a.243.243 0 0 0 .246.241h.882a.245.245 0 0 0 .224-.148l.798-1.865a6.66 6.66 0 0 0 .292 1.047.22.22 0 0 1 .014.08.235.235 0 0 1-.236.236h-.101a.244.244 0 0 0-.243.244v.167a.243.243 0 0 0 .243.239h.67a.244.244 0 0 0 .238-.25q-.031-1.203.006-1.677a3.4 3.4 0 0 1 .149-.776 1.8 1.8 0 0 0 .29 0 29.6 29.6 0 0 1 2.982-.396 5.73 5.73 0 0 1 .342 1.401 2.34 2.34 0 0 1-.137.927.247.247 0 0 1-.223.163l-.336.015a.243.243 0 0 0-.231.25v.111A.242.242 0 0 0 8.87 23h.639a.243.243 0 0 0 .21-.121 9.1 9.1 0 0 0 .688-1.386 4.77 4.77 0 0 0 .251-1.152 16.2 16.2 0 0 1 1.454.862 1 1 0 0 1 .21.583c0 .288-.017.371-.21.519a.436.436 0 0 1-.28.087.244.244 0 0 0-.243.242v.123a.244.244 0 0 0 .243.243h.808a.243.243 0 0 0 .233-.175 9.5 9.5 0 0 0 .259-1.039 1.626 1.626 0 0 0-.112-1.132c-.224-.508-.783-.757-.903-1.212s.037-1.142-.135-2.246a2.78 2.78 0 0 0-.335-1.036l.027-.019a3.095 3.095 0 0 0 1.506-2.396M2.319 1.489H1.201v1.118a1.118 1.118 0 0 0 1.118-1.118m1.493 0h-.749a1.861 1.861 0 0 1-1.862 1.862v.753a2.61 2.61 0 0 0 2.611-2.615m1.487 0h-.743a3.354 3.354 0 0 1-3.355 3.355v.743a4.098 4.098 0 0 0 4.098-4.098m6.322 4.334 1.957 3.388 1.414-1.778-1.118-1.94Zm8.386 3.008V7.316a1.399 1.399 0 0 0 .838-1.28 1.32 1.32 0 0 0-.296-.839l1.102-.646a1.182 1.182 0 0 0 .43-1.617l-.772-1.342a1.187 1.187 0 0 0-1.615-.436l-4.545 2.639a1.104 1.104 0 0 0-.408 1.514l.838 1.453a1.118 1.118 0 0 0 1.526.409l1.051-.605a1.42 1.42 0 0 0 .733.744v1.521a1.118 1.118 0 0 0 1.118 1.118h2.795V8.831Z"/></svg>