<svg xmlns="http://www.w3.org/2000/svg" viewBox="0 0 24 24"><path fill="#44739e" d="m12.164 16.246.15.11a1.2 1.2 0 0 0 .079-.125l-.16-.093a1.3 1.3 0 0 1-.069.108m-.683-9.895h.941a.092.092 0 0 0 .094-.091v-.72a.092.092 0 0 0-.094-.09h-.941a.092.092 0 0 0-.093.09v.72a.092.092 0 0 0 .093.091m.377-.541a.095.095 0 0 1 .188 0v.18a.095.095 0 0 1-.188 0Zm2.488 7.207a.22.22 0 0 0-.046 0v.415a.2.2 0 0 0 .037 0c.094 0 .156-.066.156-.22 0-.129-.057-.195-.147-.195m-.452-1.458v.175a.147.147 0 0 0 .158.133h.34v-.44h-.34a.147.147 0 0 0-.158.132m-1.926-7.447a3.663 3.663 0 0 0-2.201.578c-.963.771-1.789 8.492-.97 11.902.253 1.05 3.115 1.08 3.115 1.08 1.929-.115 3.065-.317 3.212-1.022.824-3.93-.033-11.356-.978-12.005a4.02 4.02 0 0 0-2.178-.533m-.77 1.43a.277.277 0 0 1 .281-.271V5.09a.471.471 0 0 1 .941 0v.179a.277.277 0 0 1 .281.271v.72a.276.276 0 0 1-.281.27h-.941a.276.276 0 0 1-.281-.27Zm0 3.156a.276.276 0 0 1 .276-.268h.758v-.172a.276.276 0 0 0-.285-.266.281.281 0 0 0-.275.201.096.096 0 0 1-.11.065.088.088 0 0 1-.068-.11.468.468 0 0 1 .458-.33.46.46 0 0 1 .474.44v.177a.276.276 0 0 1 .283.263v.711a.275.275 0 0 1-.284.265h-.951a.275.275 0 0 1-.284-.265Zm-1.536 4.825h-.097v-.254h-.173v.254h-.098v-.59h.098v.235h.173v-.235h.097Zm.283.009c-.134 0-.209-.131-.209-.302s.083-.307.22-.307.209.139.209.298c-.005.208-.095.311-.22.311m.567-.009h-.278v-.59h.097v.495h.181Zm.38-.067a.273.273 0 0 1-.205.073.66.66 0 0 1-.11-.008v-.582a.73.73 0 0 1 .131-.012.246.246 0 0 1 .184.062.305.305 0 0 1 .076.226.338.338 0 0 1-.076.241m-.134-.749a.233.233 0 0 1-.22-.166l-.779.012a.228.228 0 0 1-.44.007h-.008l-.181-.024-.017-.036a.31.31 0 0 1-.023-.199.22.22 0 0 1 .015-.048l.006-.013c.052-.128.239-.174.283-.183a.77.77 0 0 0 .126-.047c.031-.016.062-.033.091-.052a1.237 1.237 0 0 1 .666-.237.88.88 0 0 1 .603.204l.102-.151a.157.157 0 0 1 .132-.072h.11v.195h-.09l-.067.099.07.011c.09.008.11.121.104.289v.011l-.009.057c0 .063-.055.142-.247.167a.237.237 0 0 1-.227.176m.63 4.497h-.097v-.255h-.173v.255h-.096v-.591h.096v.235h.173v-.235h.097Zm.283.008c-.133 0-.209-.131-.209-.302s.083-.307.22-.307.209.141.209.298c-.005.206-.095.311-.22.311m.201-1.701a.513.513 0 0 0-.391.274.454.454 0 0 0 .116.499l-.144.115a.624.624 0 0 1-.14-.697.618.618 0 0 1 1.122-.04.579.579 0 0 1-.042.564l.103.06-.396.199.029-.41.104.059a.403.403 0 0 0 .036-.387.497.497 0 0 0-.397-.236m.366 1.693h-.278v-.591h.098v.495h.186Zm.38-.067a.273.273 0 0 1-.205.072.66.66 0 0 1-.11-.008v-.582a.66.66 0 0 1 .131-.012.246.246 0 0 1 .184.061.3.3 0 0 1 .076.226.34.34 0 0 1-.076.243m.67-3.612h-.097v-.256h-.177v.256h-.097v-.592h.097v.236h.173v-.236h.096Zm.283.008c-.134 0-.209-.131-.209-.302s.083-.307.22-.307.209.14.209.297c-.007.208-.095.318-.22.318Zm.22-1.23-.374.508.047-.367h-.343a.03.03 0 0 1-.009-.021c0-.008.009-.019.024-.041l.375-.508-.047.367h.298c.025 0 .037 0 .044.005a.03.03 0 0 1 .009.021c0 .003-.008.014-.024.036m.347 1.222h-.278v-.592h.098v.495h.18Zm.38-.068a.273.273 0 0 1-.205.073.9.9 0 0 1-.11-.008v-.582a.66.66 0 0 1 .131-.012.246.246 0 0 1 .184.062.297.297 0 0 1 .076.227.338.338 0 0 1-.076.24m.086-2.09h.344v.18h-.345v.199h.345v.179h-.345v.121h-.551a.345.345 0 0 1-.368-.31h-.516a.32.32 0 0 0-.34.292v.347l-.211.012v-.358a.516.516 0 0 1 .55-.473h.516a.345.345 0 0 1 .366-.313h.55Zm-2.37-6.277a.283.283 0 0 0-.564 0v.179h.564Zm-.559 11.606c-.077 0-.11.104-.11.211s.039.213.11.213.11-.095.11-.22-.036-.204-.11-.204m-.955-3.68a.15.15 0 0 0-.046 0v.415a.2.2 0 0 0 .037 0c.093 0 .155-.067.155-.22 0-.128-.052-.195-.146-.195m.204-.893-.036.052-.044-.065-.037-.006.017-.025a.66.66 0 0 0-.551-.21 1.1 1.1 0 0 0-.584.211 1 1 0 0 1-.11.062.94.94 0 0 1-.154.057h.001c-.062.013-.157.052-.176.092v.012l-.007.019v.007a.154.154 0 0 0 0 .067l.09.012h.032l.093-.035v.102a.097.097 0 0 0 .085.102.099.099 0 0 0 .085-.102v-.07l1.042-.017v.069a.097.097 0 0 0 .083.098.098.098 0 0 0 .085-.103h.075v-.065c.11-.009.16-.034.167-.045l.008-.054a.8.8 0 0 0-.008-.14Zm2.651.893c-.077 0-.11.104-.11.213s.038.211.11.211.11-.095.11-.214-.036-.21-.11-.21m-3.626 0c-.077 0-.11.103-.11.212s.038.211.11.211.11-.095.11-.214-.036-.209-.11-.209m2.497 3.681a.22.22 0 0 0-.046 0v.415a.2.2 0 0 0 .037 0c.094 0 .156-.066.156-.22 0-.129-.057-.195-.147-.195m-.972-7.202h.947a.092.092 0 0 0 .095-.088v-.709a.092.092 0 0 0-.095-.088h-.947a.091.091 0 0 0-.095.088v.711a.091.091 0 0 0 .095.086m.378-.533a.096.096 0 0 1 .191 0v.176a.096.096 0 0 1-.191 0Zm3.127-7.085a4.27 4.27 0 0 0-2.922-.864 4.307 4.307 0 0 0-2.971.939c-2.233 2.118-3.404 14.097-1.3 19.297C8.42 22.814 11.974 23 11.974 23c2.594-.186 3.972-.572 4.321-1.658 1.974-6.153.843-17.532-1.316-19.465m-2.955 20.001c-1.261 0-2.283-.214-2.283-.475s1.022-.477 2.283-.477 2.281.214 2.281.477-1.027.475-2.281.475m3.63-4.401c-.172.807-1.506 1.038-3.769 1.169 0 0-3.359-.034-3.654-1.234-.966-3.902.003-12.729 1.134-13.606a4.39 4.39 0 0 1 2.588-.66 4.823 4.823 0 0 1 2.549.609c1.11.74 2.116 9.227 1.152 13.717Z"/></svg>