<svg xmlns="http://www.w3.org/2000/svg" fill="#44739e" viewBox="0 0 24 24"><path d="M16.223 11.229v-.011l-.002.007zm-.367-.129a1.11 1.11 0 0 0-.46.689c-.023.069.011.092.08.092a.816.816 0 0 0 .46-.161.65.65 0 0 0 .285-.5c-.022-.025-.045-.1-.09-.134a.223.223 0 0 0-.275.014m-6.632-.009a.6.6 0 0 0-.15.081 1.38 1.38 0 0 0-.413.482 1.326 1.326 0 0 0-.207.621.242.242 0 0 0 .1.241.2.2 0 0 0 .253-.046 2.13 2.13 0 0 0 .31-.356 3.23 3.23 0 0 0 .253-.494.87.87 0 0 0 .092-.379.171.171 0 0 0-.238-.15m9.781-1.161c-.115-.057-.242-.092-.356-.138-.276-.1-.529-.218-.8-.31s-.54-.149-.816-.218c-.391-.092-.782-.184-1.172-.253s-.793-.138-1.184-.173q-.948-.085-1.9-.137a21.5 21.5 0 0 0-2.574.057c-.529.035-1.046.1-1.563.172-.345.046-.679.1-1.023.173-.242.046-.483.115-.724.172-.276.069-.552.138-.828.23-.333.115-.644.242-.965.368a4.86 4.86 0 0 0-1.092.621 1.69 1.69 0 0 0-.541.563 1.72 1.72 0 0 0-.206.551 1.264 1.264 0 0 0 .356.989 3.06 3.06 0 0 0 .655.552 5.8 5.8 0 0 0 .954.494c.264.1.529.207.793.287.356.115.713.23 1.08.31.564.115 1.138.219 1.713.311.391.057.793.1 1.2.126.644.035 1.288.069 1.862.092l.012-.023c.54-.023 1.011-.023 1.482-.057s.943-.069 1.414-.127c.4-.046.816-.1 1.219-.172.344-.058.689-.138 1.023-.218.356-.092.712-.184 1.057-.3a8.17 8.17 0 0 0 1.437-.644 3.14 3.14 0 0 0 .758-.586 1.47 1.47 0 0 0 .4-.713 1.206 1.206 0 0 0-.333-1.08 3.96 3.96 0 0 0-1.338-.919m-11.137.4a1.24 1.24 0 0 0-.805.172 1.737 1.737 0 0 0-.678.736 1.334 1.334 0 0 0-.115.965.613.613 0 0 0 .724.425 1.18 1.18 0 0 0 .632-.287.1.1 0 0 1 .046-.023h.081c-.012.023 0 .058-.023.081a1.354 1.354 0 0 1-1.184.425.847.847 0 0 1-.77-.563 1.15 1.15 0 0 1-.046-.529 1.3 1.3 0 0 1 .241-.644 1.72 1.72 0 0 1 .356-.4 2.44 2.44 0 0 1 .6-.356 2.1 2.1 0 0 1 .782-.161h.011a1.06 1.06 0 0 1 .552.115.265.265 0 0 1 .057.436.276.276 0 0 1-.31.023.226.226 0 0 1-.092-.252.15.15 0 0 0 .011-.069c.01-.057-.013-.091-.07-.091zm2.126.724c-.069.184-.138.356-.2.54-.092.264-.183.54-.275.8a.115.115 0 0 0 .023.1c.023.023.08.011.1-.012a2.3 2.3 0 0 0 .241-.229.1.1 0 0 1 .092-.035c-.011.035 0 .069-.011.092a1.274 1.274 0 0 1-.471.448c-.253.115-.426.012-.426-.241v-.047l-.023-.023-.023-.011-.069.069a.74.74 0 0 1-.436.3.414.414 0 0 1-.529-.391 1.07 1.07 0 0 1 .138-.6 1.767 1.767 0 0 1 .8-.781 1.1 1.1 0 0 1 .276-.081.308.308 0 0 1 .276.081c.035.046.069.046.092 0s.069-.069.126-.069h.219c.08.001.103.036.08.093zm1.9.379a.193.193 0 0 1-.31-.1c-.034-.069-.069-.081-.115-.012a4.7 4.7 0 0 0-.333.494c-.138.276-.242.564-.357.839-.057.115-.08.138-.206.138h-.184c-.069 0-.092-.034-.069-.092.034-.1.08-.218.115-.321l.31-.966c.011-.034-.012-.08-.012-.115a.26.26 0 0 0-.114.046c-.069.058-.115.127-.173.184l-.023.023a.28.28 0 0 1-.092.023c0-.023-.023-.069 0-.092.1-.126.2-.241.31-.356a.435.435 0 0 1 .276-.173l.012.012c.195 0 .264.08.253.218a.46.46 0 0 0-.012.127c0 .034.023.057.023.08.023-.011.058-.011.069-.034.046-.058.092-.127.138-.184a.64.64 0 0 1 .3-.219.274.274 0 0 1 .322.138.306.306 0 0 1-.132.345zm1.46-.115c-.023-.069-.058-.069-.092-.023a3.8 3.8 0 0 0-.322.425 5.04 5.04 0 0 0-.437.977.13.13 0 0 1-.149.1h-.184c-.08 0-.1-.035-.08-.1.08-.218.161-.425.23-.643.069-.2.137-.4.195-.609a.156.156 0 0 0-.012-.127c-.046-.046-.091 0-.126.035-.057.057-.1.115-.161.172-.023.012-.034.046-.057.046H12.1v-.069a1.5 1.5 0 0 1 .526-.502.19.19 0 0 1 .23 0 .215.215 0 0 1 .069.23c-.012.058-.035.127-.046.184v.092h.021v.012a.3.3 0 0 0 .046-.058 1.44 1.44 0 0 1 .414-.46.284.284 0 0 1 .413.115.307.307 0 0 1-.23.368.177.177 0 0 1-.193-.162zm1.218 1a2.7 2.7 0 0 1-.31.322.94.94 0 0 1-.3.161c-.264.08-.414-.081-.333-.334.057-.183.126-.379.2-.563.1-.253.207-.517.3-.77.069-.184.069-.184.264-.184l-.023-.011h.115c.069 0 .092.034.069.092-.08.241-.172.483-.252.724-.081.207-.15.414-.219.621a.152.152 0 0 0 .023.126c.023.023.092.011.127-.012a1.86 1.86 0 0 0 .229-.2c.012-.011.023-.046.035-.046a.38.38 0 0 1 .1-.034.154.154 0 0 1-.029.111zm-.1-1.553a.156.156 0 0 1-.172-.165.335.335 0 0 1 .264-.345.168.168 0 0 1 .2.115.333.333 0 0 1-.293.398zm2.028.886a.857.857 0 0 1-.471.276 5 5 0 0 1-.575.092c-.092.012-.126.035-.126.127a.475.475 0 0 0 .046.31.265.265 0 0 0 .253.149.894.894 0 0 0 .62-.241 1.1 1.1 0 0 1 .115-.1c.012-.012.046 0 .058 0v.057a1.227 1.227 0 0 1-.943.494.587.587 0 0 1-.505-.23.612.612 0 0 1-.115-.4l.011-.011a1.338 1.338 0 0 1 .736-1.138.958.958 0 0 1 .712-.081.416.416 0 0 1 .184.699zm2-.275c-.08.092-.184.126-.264.069a.33.33 0 0 1-.092-.127c-.035-.08-.058-.08-.115-.023a1.82 1.82 0 0 0-.379.552c-.115.276-.23.563-.345.839a.14.14 0 0 1-.15.1h-.206c-.069 0-.092-.034-.069-.092.114-.344.241-.689.356-1.034a2.8 2.8 0 0 0 .08-.287c.012-.023-.011-.081-.023-.081-.023-.023-.069-.011-.092 0a1.84 1.84 0 0 0-.207.207c-.011.023-.023.046-.045.046h-.069v-.069a1.49 1.49 0 0 1 .528-.506.208.208 0 0 1 .253.035.205.205 0 0 1 .046.1 2 2 0 0 1-.034.253c-.012.046-.023.138-.023.138h.023l.011.023a3.2 3.2 0 0 1 .23-.31 1.48 1.48 0 0 1 .252-.209.293.293 0 0 1 .368.046.266.266 0 0 1-.034.333zm2.643-1.265a7.2 7.2 0 0 0-.794-.58 5.74 5.74 0 0 0-.869-.453c-.328-.126-.643-.265-.97-.378a12.4 12.4 0 0 0-1.651-.454c-.605-.113-1.209-.239-1.827-.327-.491-.063-.983-.114-1.486-.139-.53-.038-1.059-.038-1.588-.063a26.7 26.7 0 0 0-3.011.189c-.378.05-.756.126-1.134.189-.3.05-.6.1-.895.176q-.6.151-1.209.341c-.416.138-.832.289-1.235.466a7.03 7.03 0 0 0-1.235.693 3.375 3.375 0 0 0-1.071 1.159A1.7 1.7 0 0 0 2 12.039a2.235 2.235 0 0 0 .63 1.108 4.8 4.8 0 0 0 .983.769 8.75 8.75 0 0 0 1.424.693c.4.151.806.277 1.222.391.441.126.882.239 1.335.327s.9.151 1.349.214a22.3 22.3 0 0 0 2.431.177 24.9 24.9 0 0 0 3.629-.177c.416-.063.819-.126 1.235-.2.264-.051.542-.114.806-.177.391-.1.769-.214 1.159-.327a8.2 8.2 0 0 0 .933-.328c.327-.138.642-.3.957-.466a4.54 4.54 0 0 0 1.071-.743 2.524 2.524 0 0 0 .744-1.134 1.654 1.654 0 0 0-.063-1.071 2.72 2.72 0 0 0-.702-.984m.189 2.507a3.23 3.23 0 0 1-1.058.92 8.7 8.7 0 0 1-.895.466c-.29.126-.58.227-.882.328-.277.088-.554.176-.831.252-.215.063-.441.113-.656.164-.327.075-.667.138-1.008.2-.289.051-.579.1-.882.126-.667.076-1.335.139-2 .177l-1.184.037c-.781-.05-1.563-.075-2.331-.138a14.2 14.2 0 0 1-1.638-.2c-.605-.1-1.21-.239-1.8-.39a7.8 7.8 0 0 1-1.046-.315 7.6 7.6 0 0 1-1.751-.87 3.08 3.08 0 0 1-.87-.845 1.4 1.4 0 0 1 .012-1.625 3.93 3.93 0 0 1 .441-.479 2.2 2.2 0 0 1 .366-.315 6.8 6.8 0 0 1 .831-.491 10.5 10.5 0 0 1 1.033-.429q.549-.189 1.1-.34c.252-.076.5-.126.756-.176s.478-.114.718-.152.5-.075.756-.113c.163-.013.327-.05.491-.076h.176c.29-.012.567-.037.857-.063a4.7 4.7 0 0 1 .592-.05c.517-.025 1.046-.038 1.563-.038a20 20 0 0 1 2.457.139c.441.05.882.1 1.31.176.6.114 1.21.252 1.8.4a10.7 10.7 0 0 1 1.222.391 7.4 7.4 0 0 1 1.386.68 3.94 3.94 0 0 1 .882.756 1.537 1.537 0 0 1 .39 1.122 1.565 1.565 0 0 1-.307.771"/></svg>