<svg xmlns="http://www.w3.org/2000/svg" viewBox="0 0 24 24"><path fill="#44739e" d="M16.679 11.459v-.013l-.002.008Zm-.404-.142a1.22 1.22 0 0 0-.506.758c-.025.076.012.101.088.101a.9.9 0 0 0 .506-.177.715.715 0 0 0 .314-.55c-.024-.028-.05-.11-.099-.148a.245.245 0 0 0-.303.016m-7.296-.01a.66.66 0 0 0-.165.089 1.52 1.52 0 0 0-.454.53 1.46 1.46 0 0 0-.228.683.266.266 0 0 0 .11.265.22.22 0 0 0 .279-.05 2.34 2.34 0 0 0 .341-.392 3.55 3.55 0 0 0 .278-.543.96.96 0 0 0 .101-.417.188.188 0 0 0-.262-.165M19.74 10.03c-.127-.063-.267-.102-.392-.152-.304-.11-.582-.24-.88-.341s-.594-.164-.898-.24c-.43-.101-.86-.203-1.289-.279s-.872-.151-1.303-.19q-1.043-.093-2.09-.151a23.7 23.7 0 0 0-2.832.063c-.581.039-1.15.11-1.719.189-.38.051-.747.11-1.125.191-.267.05-.532.126-.797.189-.304.076-.607.152-.911.253-.366.126-.708.266-1.061.405a5.35 5.35 0 0 0-1.202.683 1.86 1.86 0 0 0-.595.619 1.89 1.89 0 0 0-.227.606 1.39 1.39 0 0 0 .392 1.089 3.37 3.37 0 0 0 .721.607 6.4 6.4 0 0 0 1.049.543c.291.11.582.228.873.316.391.126.784.253 1.188.341.62.127 1.252.241 1.884.342.43.063.873.11 1.32.139.709.038 1.417.076 2.049.101l.013-.025c.594-.026 1.112-.026 1.63-.063s1.038-.076 1.556-.14c.44-.05.898-.11 1.341-.189.378-.064.758-.152 1.125-.24.392-.101.784-.202 1.163-.33a9 9 0 0 0 1.581-.708 3.45 3.45 0 0 0 .834-.645 1.617 1.617 0 0 0 .44-.784 1.327 1.327 0 0 0-.366-1.188 4.36 4.36 0 0 0-1.472-1.011m-12.252.44a1.364 1.364 0 0 0-.886.189 1.91 1.91 0 0 0-.746.809 1.468 1.468 0 0 0-.126 1.062.674.674 0 0 0 .796.468 1.3 1.3 0 0 0 .695-.316.11.11 0 0 1 .051-.025h.089c-.013.025 0 .063-.025.089a1.49 1.49 0 0 1-1.303.467.932.932 0 0 1-.847-.619 1.265 1.265 0 0 1-.05-.582 1.43 1.43 0 0 1 .265-.709 1.9 1.9 0 0 1 .391-.44 2.68 2.68 0 0 1 .66-.391 2.31 2.31 0 0 1 .861-.177h.012a1.166 1.166 0 0 1 .607.126.292.292 0 0 1 .063.48.304.304 0 0 1-.341.025.249.249 0 0 1-.101-.277.165.165 0 0 0 .012-.076c.011-.063-.015-.1-.077-.1Zm2.339.796c-.076.202-.152.392-.22.594-.102.291-.202.594-.303.88a.127.127 0 0 0 .025.11c.026.026.088.012.11-.013a2.5 2.5 0 0 0 .265-.252.11.11 0 0 1 .102-.038c-.012.038 0 .075-.012.101a1.4 1.4 0 0 1-.519.493c-.278.126-.468.013-.468-.265v-.052l-.026-.026-.025-.012-.076.076a.814.814 0 0 1-.479.33.455.455 0 0 1-.582-.43 1.177 1.177 0 0 1 .151-.66 1.944 1.944 0 0 1 .881-.859 1.2 1.2 0 0 1 .303-.089.339.339 0 0 1 .304.089c.038.051.076.051.101 0s.076-.076.139-.076h.241c.088.001.113.04.088.102Zm2.09.417a.212.212 0 0 1-.341-.11c-.038-.076-.076-.089-.127-.013a5.2 5.2 0 0 0-.366.543c-.152.304-.266.621-.393.923-.063.127-.088.152-.226.152h-.203c-.076 0-.101-.037-.076-.101.038-.11.088-.24.127-.353l.341-1.063c.012-.037-.013-.088-.013-.127a.286.286 0 0 0-.126.051c-.076.064-.126.14-.19.202l-.026.026a.31.31 0 0 1-.101.025c0-.025-.025-.076 0-.101.11-.139.22-.265.341-.392a.48.48 0 0 1 .304-.19l.013.013c.215 0 .291.088.278.24a.5.5 0 0 0-.013.14c0 .037.026.062.026.088.025-.012.063-.012.075-.038.051-.064.102-.139.152-.202a.704.704 0 0 1 .33-.241.301.301 0 0 1 .355.152.337.337 0 0 1-.146.379Zm1.606-.127c-.025-.075-.064-.075-.101-.025a4.2 4.2 0 0 0-.355.468 5.55 5.55 0 0 0-.48 1.075.143.143 0 0 1-.164.11h-.203c-.088 0-.11-.039-.088-.11.088-.24.178-.468.253-.708.076-.22.151-.44.215-.67a.172.172 0 0 0-.013-.14c-.051-.05-.1 0-.139.039-.063.063-.11.126-.177.189-.025.013-.037.051-.063.051h-.065v-.076a1.65 1.65 0 0 1 .579-.552.209.209 0 0 1 .253 0 .237.237 0 0 1 .076.253c-.013.063-.039.139-.051.202v.101h.023v.013a.33.33 0 0 0 .051-.063 1.58 1.58 0 0 1 .456-.506.312.312 0 0 1 .454.126.338.338 0 0 1-.253.405.195.195 0 0 1-.212-.178Zm1.34 1.101a2.97 2.97 0 0 1-.341.354 1.03 1.03 0 0 1-.33.177c-.291.088-.456-.089-.367-.368.063-.201.139-.416.22-.619.11-.278.228-.569.331-.847.075-.202.075-.202.29-.202l-.025-.012h.126c.076 0 .101.037.076.101-.088.265-.189.531-.277.796-.089.228-.165.456-.241.683a.167.167 0 0 0 .025.139c.026.025.101.012.14-.013a2.05 2.05 0 0 0 .252-.22c.013-.012.025-.051.038-.051a.42.42 0 0 1 .11-.037.17.17 0 0 1-.032.122Zm-.11-1.709a.172.172 0 0 1-.189-.181.369.369 0 0 1 .29-.38.185.185 0 0 1 .22.127.366.366 0 0 1-.322.437Zm2.231.975a.943.943 0 0 1-.518.303 5.5 5.5 0 0 1-.633.102c-.101.013-.138.038-.138.139a.523.523 0 0 0 .05.341.292.292 0 0 0 .278.164.984.984 0 0 0 .683-.265 1.2 1.2 0 0 1 .126-.11c.013-.013.051 0 .064 0v.063a1.35 1.35 0 0 1-1.038.543.646.646 0 0 1-.555-.253.673.673 0 0 1-.127-.44l.013-.012a1.472 1.472 0 0 1 .809-1.252 1.054 1.054 0 0 1 .783-.089.458.458 0 0 1 .203.769Zm2.2-.303c-.088.101-.202.139-.29.076a.36.36 0 0 1-.102-.14c-.038-.088-.063-.088-.126-.025a2 2 0 0 0-.417.607c-.126.304-.253.62-.38.923a.154.154 0 0 1-.165.11h-.226c-.076 0-.101-.037-.076-.101.125-.378.265-.758.392-1.137a3.1 3.1 0 0 0 .088-.316c.013-.025-.013-.089-.026-.089-.025-.025-.076-.012-.101 0a2 2 0 0 0-.228.228c-.012.025-.025.05-.049.05h-.076v-.076a1.64 1.64 0 0 1 .581-.556.229.229 0 0 1 .278.038.226.226 0 0 1 .051.11 2.2 2.2 0 0 1-.038.278c-.013.051-.025.152-.025.152h.025l.012.026a3.5 3.5 0 0 1 .253-.341 1.63 1.63 0 0 1 .278-.23.322.322 0 0 1 .405.05.293.293 0 0 1-.038.367Zm2.908-1.391a7.9 7.9 0 0 0-.874-.638 6.3 6.3 0 0 0-.956-.499c-.361-.138-.707-.291-1.067-.416a13.6 13.6 0 0 0-1.816-.499c-.666-.124-1.33-.263-2.01-.36-.54-.069-1.081-.125-1.635-.153-.583-.042-1.165-.042-1.747-.069a29.4 29.4 0 0 0-3.312.208c-.416.055-.832.138-1.248.208-.33.055-.66.11-.984.193q-.66.167-1.33.376c-.458.151-.916.317-1.359.512a7.73 7.73 0 0 0-1.359.763 3.71 3.71 0 0 0-1.178 1.275 1.87 1.87 0 0 0-.185 1.22 2.46 2.46 0 0 0 .693 1.219 5.28 5.28 0 0 0 1.082.846 9.63 9.63 0 0 0 1.566.762c.44.166.887.305 1.345.43.485.139.97.263 1.468.36s.99.166 1.484.235a24.5 24.5 0 0 0 2.675.195 27.4 27.4 0 0 0 3.992-.195c.458-.069.901-.138 1.359-.22.29-.056.596-.125.886-.194.431-.11.846-.236 1.275-.36a9 9 0 0 0 1.027-.361c.36-.152.706-.33 1.053-.513a5 5 0 0 0 1.178-.817 2.777 2.777 0 0 0 .818-1.248 1.82 1.82 0 0 0-.069-1.178 2.99 2.99 0 0 0-.772-1.082m.208 2.758a3.55 3.55 0 0 1-1.164 1.012 9.6 9.6 0 0 1-.985.512c-.319.139-.638.25-.97.361-.305.097-.61.194-.914.277-.237.07-.486.125-.722.181-.36.082-.734.152-1.109.22-.318.056-.637.11-.97.139-.734.083-1.469.152-2.2.194l-1.303.041c-.859-.055-1.72-.083-2.564-.152a15.6 15.6 0 0 1-1.802-.22c-.666-.11-1.332-.263-1.981-.429a8.6 8.6 0 0 1-1.15-.346 8.36 8.36 0 0 1-1.927-.958 3.39 3.39 0 0 1-.957-.929 1.54 1.54 0 0 1 .013-1.788 4.3 4.3 0 0 1 .486-.527 2.42 2.42 0 0 1 .402-.346 7.5 7.5 0 0 1 .914-.541 11.6 11.6 0 0 1 1.137-.471q.604-.208 1.21-.375c.277-.083.55-.138.832-.193s.526-.126.79-.167.55-.083.831-.125c.18-.014.36-.055.54-.083h.194c.319-.013.624-.041.943-.07a5.2 5.2 0 0 1 .651-.055c.569-.027 1.151-.041 1.72-.041a22 22 0 0 1 2.703.153c.485.055.97.11 1.441.193.66.126 1.331.277 1.98.44a11.8 11.8 0 0 1 1.344.43 8.14 8.14 0 0 1 1.525.748 4.33 4.33 0 0 1 .97.832 1.69 1.69 0 0 1 .429 1.234 1.72 1.72 0 0 1-.337.849"/></svg>