<svg xmlns="http://www.w3.org/2000/svg" viewBox="0 0 24 24"><path fill="#44739e" d="M15.989 13.007v-.01l-.003.007Zm-.345-.118a1.043 1.043 0 0 0-.429.646c-.022.064.01.085.075.085a.77.77 0 0 0 .43-.149.612.612 0 0 0 .266-.464c-.021-.023-.041-.094-.083-.125a.211.211 0 0 0-.259.007m-6.204-.01a.58.58 0 0 0-.14.075 1.3 1.3 0 0 0-.387.452 1.24 1.24 0 0 0-.194.579.232.232 0 0 0 .098.232.184.184 0 0 0 .231-.043 2.1 2.1 0 0 0 .29-.334 3.1 3.1 0 0 0 .238-.463.83.83 0 0 0 .085-.355.161.161 0 0 0-.221-.143m9.151-1.086c-.108-.054-.232-.087-.334-.13-.257-.096-.495-.204-.752-.289s-.505-.141-.763-.205c-.366-.086-.731-.172-1.098-.232s-.741-.129-1.107-.161c-.591-.054-1.183-.098-1.774-.129a19.9 19.9 0 0 0-2.409.053c-.495.033-.979.098-1.462.162-.323.042-.635.097-.957.161-.232.044-.452.107-.678.162-.258.064-.517.128-.774.214-.313.108-.602.232-.904.348a4.55 4.55 0 0 0-1.022.579 1.59 1.59 0 0 0-.505.527 1.61 1.61 0 0 0-.193.517 1.182 1.182 0 0 0 .333.927 2.84 2.84 0 0 0 .613.515 5.33 5.33 0 0 0 .893.464c.247.097.494.193.741.269.334.108.667.215 1.012.291.527.107 1.064.203 1.602.29.365.054.741.097 1.118.116.603.033 1.204.064 1.738.086l.01-.022c.506-.021.947-.021 1.391-.053s.882-.065 1.323-.116c.377-.043.764-.098 1.139-.161.323-.055.645-.13.958-.205.333-.086.666-.172.988-.28a7.5 7.5 0 0 0 1.346-.602 2.92 2.92 0 0 0 .709-.548 1.38 1.38 0 0 0 .376-.666 1.134 1.134 0 0 0-.311-1.012 3.7 3.7 0 0 0-1.247-.87m-10.42.375a1.167 1.167 0 0 0-.753.163 1.63 1.63 0 0 0-.635.688 1.25 1.25 0 0 0-.106.902.579.579 0 0 0 .676.399 1.11 1.11 0 0 0 .592-.269.076.076 0 0 1 .043-.022h.079c-.01.022 0 .055-.022.076a1.265 1.265 0 0 1-1.108.398.791.791 0 0 1-.724-.527 1.08 1.08 0 0 1-.044-.495 1.224 1.224 0 0 1 .232-.602 1.59 1.59 0 0 1 .334-.377 2.32 2.32 0 0 1 .559-.334 1.99 1.99 0 0 1 .731-.149h.011a.996.996 0 0 1 .516.107.249.249 0 0 1 .054.409.261.261 0 0 1-.291.022.216.216 0 0 1-.086-.238.14.14 0 0 0 .011-.064c.007-.054-.015-.087-.069-.087m1.99.678c-.065.173-.13.334-.183.505-.086.248-.173.507-.259.754a.116.116 0 0 0 .022.097.081.081 0 0 0 .096-.012 2 2 0 0 0 .232-.214.089.089 0 0 1 .086-.032c-.011.032 0 .064-.011.085a1.177 1.177 0 0 1-.44.42c-.232.107-.398.01-.398-.232v-.053l-.021-.022-.022-.011-.065.065a.687.687 0 0 1-.408.279.387.387 0 0 1-.495-.366.996.996 0 0 1 .129-.558 1.65 1.65 0 0 1 .753-.731 1 1 0 0 1 .258-.076.285.285 0 0 1 .258.076c.032.043.064.043.086 0s.064-.065.116-.065h.204c.062.006.082.038.062.091m1.774.355a.181.181 0 0 1-.29-.096c-.033-.065-.065-.076-.108-.011a4.3 4.3 0 0 0-.312.464c-.129.258-.231.527-.333.784-.055.108-.076.13-.194.13h-.172c-.064 0-.086-.033-.064-.087.031-.096.075-.204.106-.3l.291-.904c.011-.032-.01-.075-.01-.108a.255.255 0 0 0-.108.043 2.2 2.2 0 0 0-.161.173l-.022.021a.23.23 0 0 1-.086.022c0-.022-.022-.065 0-.086.096-.116.183-.232.29-.334a.406.406 0 0 1 .258-.161l.011.011c.183 0 .248.075.237.204a.4.4 0 0 0-.011.115c0 .033.022.055.022.076.022-.011.053-.011.065-.031.042-.055.085-.116.128-.173a.596.596 0 0 1 .279-.204.255.255 0 0 1 .302.129.285.285 0 0 1-.118.323m1.366-.107c-.022-.065-.055-.065-.086-.022a3.36 3.36 0 0 0-.301.399 4.64 4.64 0 0 0-.409.913.123.123 0 0 1-.141.097h-.171c-.075 0-.097-.032-.075-.097.075-.204.15-.398.215-.602.064-.183.129-.376.182-.57a.138.138 0 0 0-.01-.115c-.043-.043-.086 0-.116.032-.054.053-.098.107-.151.161-.022.01-.032.043-.053.043h-.055v-.062a1.38 1.38 0 0 1 .495-.472.177.177 0 0 1 .216 0 .199.199 0 0 1 .063.214c-.01.055-.031.116-.043.173v.085h.022a.22.22 0 0 0 .043-.053 1.36 1.36 0 0 1 .387-.43.265.265 0 0 1 .387.108.289.289 0 0 1-.214.348.166.166 0 0 1-.185-.15m1.14.935a2.55 2.55 0 0 1-.291.301.88.88 0 0 1-.279.151c-.248.075-.387-.075-.312-.312.053-.172.116-.354.182-.527.097-.231.193-.484.28-.72.064-.172.064-.172.247-.172l-.021-.011h.107c.065 0 .087.032.065.086-.076.232-.161.451-.232.677-.075.194-.14.387-.204.579a.14.14 0 0 0 .021.116c.022.021.086.011.116-.011a1.8 1.8 0 0 0 .215-.182c.011-.012.021-.044.033-.044a.34.34 0 0 1 .096-.032.147.147 0 0 1-.025.101Zm-.092-1.453a.146.146 0 0 1-.156-.16.313.313 0 0 1 .248-.322.154.154 0 0 1 .182.107.311.311 0 0 1-.274.375m1.898.83a.817.817 0 0 1-.441.258 4.8 4.8 0 0 1-.538.086c-.086.01-.116.032-.116.116a.463.463 0 0 0 .043.291.25.25 0 0 0 .232.139.842.842 0 0 0 .579-.232 1 1 0 0 1 .107-.096c.011-.012.044 0 .054 0v.053a1.147 1.147 0 0 1-.882.464.554.554 0 0 1-.474-.215.58.58 0 0 1-.106-.376l.01-.012a1.251 1.251 0 0 1 .688-1.064.892.892 0 0 1 .667-.075.389.389 0 0 1 .177.663m1.871-.258c-.075.085-.172.115-.248.064a.31.31 0 0 1-.086-.115c-.032-.076-.053-.076-.107-.022a1.7 1.7 0 0 0-.355.516c-.108.258-.215.526-.322.785a.132.132 0 0 1-.14.097h-.194c-.065 0-.085-.032-.065-.087.108-.322.232-.644.334-.967a2.6 2.6 0 0 0 .075-.269c.011-.021-.01-.075-.022-.075-.02-.021-.063-.011-.085 0a1.7 1.7 0 0 0-.194.193c-.01.022-.022.043-.043.043h-.065v-.064a1.39 1.39 0 0 1 .495-.474.193.193 0 0 1 .232.033.19.19 0 0 1 .043.097 1.9 1.9 0 0 1-.031.232 1.3 1.3 0 0 0-.022.128h.022l.01.022a2.7 2.7 0 0 1 .214-.29 1.36 1.36 0 0 1 .238-.204.273.273 0 0 1 .347.043.249.249 0 0 1-.031.314m-3.215 7.667a.443.443 0 0 0 .129-.592.447.447 0 0 0-.398-.204H9.311a.473.473 0 0 0-.398.302.446.446 0 0 0 .43.57h2.656l-.01-.012h2.656a.463.463 0 0 0 .258-.064M4.106 4.824a.426.426 0 0 0 .506-.44V2.125c0-.085.021-.107.106-.107h1.623c.085 0 .115.032.115.097v.656a.424.424 0 0 0 .334.452.432.432 0 0 0 .516-.442V1.623a.45.45 0 0 0-.054-.232.41.41 0 0 0-.387-.205h-2.64a.38.38 0 0 0-.194.032.426.426 0 0 0-.258.42v1.369h-.022V4.35a.74.74 0 0 1 .01.151.44.44 0 0 0 .345.323m16.486 7.137a6.7 6.7 0 0 0-.743-.542 5.45 5.45 0 0 0-.811-.424c-.307-.116-.601-.247-.908-.348a11.3 11.3 0 0 0-1.545-.424c-.565-.106-1.131-.225-1.709-.307-.463-.059-.919-.105-1.39-.13-.496-.034-.991-.034-1.485-.059a24.8 24.8 0 0 0-2.818.177c-.348.048-.707.116-1.062.178-.282.046-.565.094-.836.164q-.566.14-1.132.319c-.388.13-.778.271-1.159.436a6.6 6.6 0 0 0-1.158.648 3.16 3.16 0 0 0-1.003 1.085 1.585 1.585 0 0 0-.153 1.037 2.086 2.086 0 0 0 .59 1.037 4.47 4.47 0 0 0 .92.719 8.17 8.17 0 0 0 1.331.649c.378.142.755.259 1.144.365.412.116.825.224 1.249.307s.838.142 1.262.201a20.9 20.9 0 0 0 2.275.164 23.5 23.5 0 0 0 3.395-.164c.389-.059.766-.116 1.159-.189.248-.048.506-.107.754-.166.365-.094.72-.2 1.085-.306a7.5 7.5 0 0 0 .872-.307c.307-.13.601-.283.896-.435a4.23 4.23 0 0 0 1.002-.696 2.35 2.35 0 0 0 .695-1.061 1.535 1.535 0 0 0-.059-1.002 2.55 2.55 0 0 0-.658-.926m.176 2.346a3.02 3.02 0 0 1-.99.861 8.2 8.2 0 0 1-.837.436c-.271.116-.542.212-.825.307-.26.082-.519.164-.778.232-.2.059-.412.106-.613.154-.307.07-.625.128-.943.187-.271.048-.542.095-.826.116-.624.071-1.249.13-1.873.165l-1.109.036c-.73-.048-1.461-.071-2.181-.13a13 13 0 0 1-1.531-.189c-.567-.094-1.132-.224-1.686-.365a7.3 7.3 0 0 1-.979-.294 7.14 7.14 0 0 1-1.639-.811 2.89 2.89 0 0 1-.811-.79 1.31 1.31 0 0 1 .012-1.522 3.8 3.8 0 0 1 .412-.447 2.1 2.1 0 0 1 .342-.295 6.5 6.5 0 0 1 .779-.464 9.7 9.7 0 0 1 .966-.401q.512-.177 1.026-.318c.231-.071.471-.116.707-.165s.448-.106.672-.141.472-.072.707-.107c.153-.011.307-.047.464-.071h.164c.271-.011.531-.035.802-.059a4.5 4.5 0 0 1 .554-.047c.483-.023.979-.035 1.462-.035a18.7 18.7 0 0 1 2.299.13c.412.046.825.094 1.226.164.565.107 1.132.232 1.685.378a9.9 9.9 0 0 1 1.144.365 7 7 0 0 1 1.297.637 3.65 3.65 0 0 1 .824.707 1.432 1.432 0 0 1 .365 1.043 1.456 1.456 0 0 1-.288.733m-1.145 7.368H4.374a.67.67 0 0 0-.289.065.56.56 0 0 0-.216.817.589.589 0 0 0 .517.258h7.613v-.01h7.742a.601.601 0 0 0 .474-.464.579.579 0 0 0-.592-.666m3.054-14.044c-.333-.204-.677-.387-1.01-.579-.388-.216-.763-.442-1.152-.656-.332-.195-.666-.376-1-.57l-1.064-.613c-.398-.232-.811-.463-1.204-.688-.348-.205-.678-.399-1.022-.592-.495-.279-.99-.559-1.473-.839-.419-.232-.828-.473-1.237-.709l-1.064-.613a.83.83 0 0 0-.431-.151v.043a.73.73 0 0 0-.375.096c-.183.108-.377.216-.56.324-.269.161-.548.311-.828.472-.348.194-.677.387-1.021.58s-.678.387-1.022.579c-.301.172-.602.355-.904.526-.279.151-.558.301-.827.464-.376.215-.763.441-1.14.656-.301.172-.613.348-.914.516-.377.226-.753.442-1.13.656-.354.193-.695.398-1.053.592-.28.161-.549.322-.828.473a.774.774 0 0 0-.398.484.71.71 0 0 0 .796.87 1.92 1.92 0 0 0 .473-.225c.14-.065.247-.15.376-.231.086-.055.183-.087.269-.141.215-.115.43-.246.646-.366.268-.15.526-.3.784-.45.232-.13.463-.259.688-.389s.474-.268.71-.407.464-.281.696-.409.463-.269.695-.398c.347-.193.688-.398 1.032-.592.194-.108.399-.232.592-.332.232-.141.464-.281.695-.409l.811-.452c.259-.151.528-.312.796-.464s.548-.311.829-.472a.159.159 0 0 1 .182 0c.116.075.248.15.366.214.232.14.473.269.709.409s.463.269.695.397.464.269.695.399.485.269.721.408.463.268.695.398.464.269.688.398c.269.15.548.311.817.463.232.14.474.269.711.409s.484.269.72.409c.269.151.527.301.796.451.204.116.398.232.602.347.258.151.527.302.785.452s.484.269.721.409a.729.729 0 0 0 .871.022.695.695 0 0 0 .312-.494.686.686 0 0 0-.317-.675"/></svg>