<svg xmlns="http://www.w3.org/2000/svg" viewBox="0 0 24 24"><path fill="#44739e" d="M22.884 3.6c-.078-.078-.184-.126-.291-.126h-9.857a.44.44 0 0 0-.155-.029H1.407c-.223 0-.407.184-.407.407v1.007c0 .048.01.087.019.135l1.153 3.341c.058.165.213.271.387.271h1.82v3.099L1.61 14.59c-.9.901-.416 2.808 1.114 4.338.125.126.251.242.387.359.91.784 1.917 1.21 2.74 1.21.484 0 .901-.145 1.211-.455l.803-.843c.049.039.097.088.146.136.91.784 1.917 1.21 2.74 1.21.484 0 .9-.145 1.21-.455l.92-.968c.078.077.155.155.242.223.91.784 1.917 1.21 2.741 1.21.484 0 .9-.145 1.21-.455l4.677-4.871c.077-.077.126-.174.184-.261.029-.049.068-.078.097-.126.213-.445.232-1.007.038-1.656-.232-.774-.735-1.588-1.433-2.285a6.2 6.2 0 0 0-.542-.484c-.068-.049-.126-.097-.194-.145a7 7 0 0 0-.358-.252c-.087-.049-.164-.097-.252-.145-.096-.059-.203-.107-.3-.155s-.193-.088-.281-.126c-.077-.029-.155-.058-.232-.078-.107-.038-.223-.077-.329-.097-.02 0-.039 0-.049-.009-.445-.097-.861-.078-1.22.039-.009 0-.029.009-.038.009v-.813l2.662.629 1.027-.639h.978c.174 0 .339-.116.387-.29l1.056-3.36c.009-.039.019-.068.019-.107L23 3.9c0-.106-.039-.213-.116-.3M8.979 9.652c-.097-.049-.194-.087-.281-.126-.077-.029-.155-.058-.232-.077-.107-.039-.213-.078-.33-.097-.019 0-.038 0-.048-.01-.445-.097-.862-.077-1.22.039-.01 0-.029.009-.039.009v-.774l2.45.581v.61a2.9 2.9 0 0 0-.3-.155m-2.498 9.809c-.494.494-1.918.155-3.176-1.114-1.269-1.268-1.598-2.692-1.114-3.176.242-.242.697-.281 1.239-.116.649.194 1.337.629 1.937 1.23 1.259 1.259 1.598 2.682 1.114 3.176m4.89.029c-.494.494-1.918.155-3.176-1.114-1.269-1.268-1.598-2.692-1.114-3.176.242-.242.697-.281 1.249-.116.649.194 1.336.629 1.937 1.23 1.259 1.259 1.597 2.692 1.104 3.176m.397-10.071c-.01 0-.029.01-.039.01v-.784l2.653.639.019-.01v.697c-.067-.048-.145-.087-.213-.125-.096-.059-.203-.107-.3-.155s-.193-.088-.281-.126c-.077-.029-.155-.058-.232-.078-.107-.038-.223-.077-.329-.097-.02 0-.039 0-.049-.009-.455-.097-.871-.087-1.229.038m4.725 10.071c-.494.494-1.917.155-3.176-1.114-1.269-1.268-1.598-2.692-1.114-3.176.242-.242.698-.281 1.24-.116.649.194 1.336.629 1.936 1.23 1.269 1.259 1.608 2.682 1.114 3.176"/></svg>