<svg xmlns="http://www.w3.org/2000/svg" fill="#44739e" viewBox="0 0 24 24"><path d="M20.71 2H7.286a.589.589 0 0 0-.548.548v2.74l1.918 1.37h3.835v.547a2.342 2.342 0 0 0-1.644.822L4 15.151a3.517 3.517 0 0 0-1.1 2.739 3.372 3.372 0 0 0 1.37 2.74A5.055 5.055 0 0 0 7.56 22a3.82 3.82 0 0 0 2.465-.822l6.85-6.849a4.244 4.244 0 0 0-.275-5.754c-.274-.274-.548-.274-.822-.822V6.658h3.562l1.643-1.37v-2.74c.274-.274 0-.548-.274-.548M5.094 20.082A5.51 5.51 0 0 1 4 17.89a3.19 3.19 0 0 1 .548-1.917c.548-.274 1.1-.822 1.644-.822h.274a3.383 3.383 0 0 1 2.192 1.1 3.21 3.21 0 0 1 .822 4.383c-.822 1.1-3.014.822-4.384-.548M13.587 8.3V6.11a.589.589 0 0 1 .548-.548c.274 0 .274.274.274.548v2.465a1.2 1.2 0 0 0-.822-.274m6.575-4.109H7.834V3.1h12.328z"/></svg>