<svg xmlns="http://www.w3.org/2000/svg" viewBox="0 0 24 24"><path fill="#44739e" d="M20.684 5.598H4.822c-1.433 0-2.58.573-2.58 1.433v1.72h.096c.191.86 1.242 1.433 2.484 1.433h2.389v.096c-.478-.096-.86 0-1.242.287-.478.286-4.205 2.962-4.205 2.962-.477.287-.764.86-.764 1.529s.191 1.338.573 1.911c.574.955 1.529 1.433 2.294 1.433.382 0 .669-.095.955-.287l.382-.286s.096 0 .096-.096l.096-.095.668-.478c.574.764 1.434 1.242 2.103 1.242.382 0 .668-.095.955-.287l.382-.286s.096 0 .096-.096l.095-.095.669-.478c.383.478.86.86 1.338 1.051.287.096.573.191.765.191.382 0 .668-.095.955-.287l.382-.286s.096 0 .096-.096l.095-.095.669-.478c.574.764 1.434 1.242 2.102 1.242.383 0 .669-.095.956-.287 0 0 .191-.095.382-.286 0 0 .096 0 .096-.096l.095-.095c1.051-.765 3.249-2.294 3.631-2.485.956-.669 1.052-2.197.192-3.44-.287-.382-.574-.669-.956-.955v-.669c.86-.191 1.529-.669 1.72-1.338h.096v-1.72c.191-.86-.86-1.433-2.294-1.433M6.16 13.529q-.143 0 0 0c-.287.191-.478.478-.573.764-.383-.573-.956-1.051-1.529-1.242 1.051-.764 2.197-1.529 2.484-1.72s.669-.095.86 0c.287.096.669.382.86.669Zm2.102-3.345h3.249v.096c-.478-.096-.86 0-1.242.287-.191.095-.669.477-1.338.86-.191-.287-.478-.478-.764-.669Zm4.3 1.816c-1.051.764-2.102 1.433-2.102 1.433-.287.191-.478.478-.573.765-.383-.574-.956-1.051-1.529-1.242l.86-.478c.764-.574 1.529-1.051 1.72-1.147.286-.191.669-.095.86 0 .286.096.573.382.764.669m.096-1.816h3.249v.096c-.478-.096-.86 0-1.243.287-.191.095-.669.477-1.337.86-.192-.287-.478-.478-.765-.669Zm4.108 2.007c-.955.669-1.815 1.338-1.911 1.338-.286.191-.477.478-.573.764-.382-.573-.955-1.051-1.529-1.242l.669-.478c.86-.573 1.625-1.146 1.816-1.242.286-.191.669-.095.86 0 .286.096.668.382.86.669Zm.287-2.007h3.249v.096c-.478-.096-.86 0-1.242.287-.191.095-.669.477-1.338.86-.191-.287-.478-.478-.764-.669Zm4.491 2.103c.574.86.574 1.815.096 2.102-.191.191-1.338.955-2.389 1.72 0-.573-.191-1.242-.573-1.72-.383-.573-.956-1.051-1.529-1.242l.764-.574c.765-.573 1.529-1.051 1.72-1.146.287-.191.669-.096.86 0 .382.095.765.382 1.051.86m-.191-3.154v-.764s-.382-.382-1.147-.096l.096.956h-3.249v-.86s-.382-.382-1.146-.096l.095.956h-3.249v-.86s-.382-.382-1.146-.096l.095.956h-3.44v-.86s-.382-.382-1.147-.096l.096.956H4.822c-.955 0-1.624-.478-1.624-.86s.669-.86 1.624-.86h15.862c.956 0 1.625.478 1.625.86-.096.287-.383.573-.956.764"/></svg>