<svg xmlns="http://www.w3.org/2000/svg" fill="#44739e" viewBox="0 0 24 24"><path d="M22.3 13.6c-.1-.1-.3-.2-.7-.5-1.2-.9-3.7-2.7-4.1-2.9-.2-.1-.3-.2-.5-.3-.1 0-.2 0-.3-.1h-.5v-.1c1.7 0 3.3-.7 3.3-1.6v-2c0-.5-.5-.9-1.2-1.2-.6-.2-1.3-.4-2.1-.4H7.9c-.4 0-.8 0-1.2.1-1 .3-1.7.8-1.7 1.5v2C5 9 6.2 9.7 7.9 9.7h.4v.1h-.6c-.1 0-.2 0-.3.1-.2.1-.4.1-.5.3-.4.2-2.9 2-4.1 2.9-.4.3-.6.4-.6.4-.5.4-.8 1-.8 1.7s.2 1.5.7 2.1c.5.7 1.1 1.2 1.7 1.4.2.3.5.4.8.4.4 0 .7-.1 1-.3h.1s4.3-3 4.8-3.4c1.1-.7 1.2-2.5.2-3.9q-.45-.75-1.2-1.2v-.5h5.3v.5c-.4.3-.8.6-1.2 1.1-1 1.5-.9 3.2.2 3.9.5.3 4.8 3.4 4.8 3.4h.1c.3.2.6.3 1 .3q.45 0 .9-.3c.6-.2 1.2-.7 1.7-1.4.5-.6.7-1.4.7-2.1s-.2-1.2-.7-1.6m-16.6 4-.6.4c-.6.4-1.7-.1-2.3-1-.3-.5-.5-1.1-.5-1.6 0-.3.1-.7.4-1l.6-.4c.2-.1.3-.1.5-.1s.4.1.5.1c.5.2.9.6 1.3 1.1.7.9.7 2.1.1 2.5m9.1-9v.1H9.5c0-.1-.4-.4-1.3-.1v.1h-.3C6.7 8.7 6 8.2 6 8.1s.6-.6 1.9-.6h8.5c1.2 0 1.9.5 1.9.6s-.6.6-1.9.6h-.3v-.1c-.9-.3-1.3 0-1.3 0m6.7 8.3c-.7 1-1.7 1.4-2.3 1l-.6-.4c-.6-.4-.5-1.6.1-2.5.3-.5.8-.9 1.3-1.1.1-.1.3-.1.5-.1s.3 0 .5.1l.6.4c.4.2.4.7.4 1 .1.5-.1 1.1-.5 1.6"/></svg>