<svg xmlns="http://www.w3.org/2000/svg" viewBox="0 0 24 24"><path fill="#44739e" d="M1.079 9.85a1.053 1.053 0 0 0 .086.965.134.134 0 0 1 .049.138l-.009.035a.13.13 0 0 0 .096.159l7.812 1.831a.208.208 0 0 0 .249-.149l.116-.446.729.194a1.975 1.975 0 0 0 .65 1.683l-.408.633-.388-.25a.208.208 0 0 0-.284.057l-4.546 6.609a.131.131 0 0 0 .037.182l.046.031a.134.134 0 0 1 .057.135c-.029.206.208.528.585.772a1.053 1.053 0 0 0 .945.216.135.135 0 0 1 .147 0l.03.02a.128.128 0 0 0 .184-.046l4.154-6.861a.205.205 0 0 0-.068-.279l-.387-.25.409-.633a1.979 1.979 0 0 0 1.801-.1l.477.585-.357.29a.209.209 0 0 0-.034.288l4.881 6.365a.128.128 0 0 0 .184.022l.044-.036a.135.135 0 0 1 .146-.012c.186.092.567-.034.915-.318s.55-.631.498-.831a.134.134 0 0 1 .041-.141l.027-.023a.128.128 0 0 0 .016-.185l-5.241-6.074a.208.208 0 0 0-.288-.026l-.356.292-.476-.585a2 2 0 0 0 .197-.246 1.98 1.98 0 0 0 .272-1.504l.694-.27.166.429a.208.208 0 0 0 .263.122l7.56-2.676a.13.13 0 0 0 .078-.168l-.02-.054a.134.134 0 0 1 .034-.142 1.053 1.053 0 0 0-.02-.969c-.162-.418-.431-.717-.636-.73a.133.133 0 0 1-.122-.083l-.013-.032a.131.131 0 0 0-.171-.073l-7.393 3.108a.207.207 0 0 0-.116.266l.167.43-.704.272a1.914 1.914 0 0 0-1.516-.979l-.041-.753.462-.025a.207.207 0 0 0 .196-.213L12.777 1.8a.13.13 0 0 0-.137-.126h-.055a.135.135 0 0 1-.125-.077c-.098-.184-.479-.305-.926-.28s-.81.187-.891.38a.137.137 0 0 1-.116.09h-.034a.13.13 0 0 0-.122.141l.671 7.992a.208.208 0 0 0 .219.189l.463-.025.04.745a1.99 1.99 0 0 0-1.256.866 2.14 2.14 0 0 0-.144.281l-.727-.193.116-.446a.208.208 0 0 0-.142-.252l-7.692-2.27a.13.13 0 0 0-.162.09l-.014.054a.133.133 0 0 1-.116.095c-.2.036-.434.362-.548.796m9.71 6.074-.386.596a.334.334 0 0 1-.462.099l-.348-.224a.334.334 0 0 1-.099-.463l.384-.596a.318.318 0 0 1 .355-.115l-.488.754a.204.204 0 0 0 .061.28l.174.116a.205.205 0 0 0 .281-.06l.487-.756a.321.321 0 0 1 .041.369m3.945-.853.447.55a.336.336 0 0 1-.048.47l-.32.26a.336.336 0 0 1-.469-.047l-.448-.551a.318.318 0 0 1 0-.374l.567.695a.205.205 0 0 0 .286.03l.16-.132a.203.203 0 0 0 .029-.285l-.567-.694a.317.317 0 0 1 .363.078m.408-4.016.661-.256a.334.334 0 0 1 .431.191l.15.385a.334.334 0 0 1-.191.432l-.661.256a.318.318 0 0 1-.358-.116l.839-.324a.204.204 0 0 0 .116-.263l-.075-.193a.204.204 0 0 0-.263-.116l-.838.324a.318.318 0 0 1 .189-.32m-3.694-1.628-.038-.708a.334.334 0 0 1 .315-.348l.412-.023a.336.336 0 0 1 .347.315l.039.708a.319.319 0 0 1-.217.305l-.05-.897a.203.203 0 0 0-.213-.191l-.208.011a.203.203 0 0 0-.191.213l.05.897a.317.317 0 0 1-.246-.282m-3.099 1.782.685.181a.318.318 0 0 1 .224.301l-.869-.231a.203.203 0 0 0-.248.145l-.053.2a.203.203 0 0 0 .143.247l.869.232a.318.318 0 0 1-.347.151l-.681-.181a.334.334 0 0 1-.232-.409l.106-.399a.337.337 0 0 1 .403-.237"/></svg>