<svg xmlns="http://www.w3.org/2000/svg" fill="#44739e" viewBox="0 0 24 24"><path d="M23.54 13.57c0-2.29-4.14-3.68-11.09-3.74V8.22c1.24-.07 2.5-.44 2.5-1.29v-.42c0-.96-1.61-1.3-2.99-1.3s-2.99.34-2.99 1.3v.42c0 .85 1.25 1.21 2.49 1.29v1.61c-6.89.07-11 1.45-11 3.74 0 .14.01.28.03.41 0 .01 0 .01.01.01.39 2.29 3.98 3.32 11.51 3.32 7.55 0 11.14-1.04 11.51-3.34 0-.01.01-.02.01-.03 0-.12.01-.25.01-.37M12 16.31c-6.5 0-10.02-.8-10.49-2.37.37-.46 2.86-1.55 10.49-1.55 8.39 0 10.22 1.31 10.49 1.54-.46 1.58-3.98 2.38-10.49 2.38"/></svg>