<svg xmlns="http://www.w3.org/2000/svg" viewBox="0 0 24 24"><path fill="#44739e" d="m1.742 3.316 5.737 5.727-5.599 5.599c-1.277 1.278-1.179 3.635.393 5.207.884.884 1.964 1.277 2.947 1.277.884 0 1.67-.295 2.259-.884l1.474-1.474c.196.393.491.786.785 1.081.885.884 1.965 1.277 2.947 1.277.885 0 1.67-.295 2.26-.884l1.866-1.867 3.694 3.694 1.385-1.385L3.127 1.931Zm5.049 16.238c-.982.983-2.652.786-3.831-.393s-1.375-2.849-.393-3.831c.393-.393.983-.589 1.572-.589.786 0 1.572.294 2.26.982 1.08 1.179 1.277 2.849.392 3.831m7.368 0c-.982.983-2.652.786-3.831-.393s-1.375-2.849-.393-3.831c.393-.393.982-.589 1.572-.589.786 0 1.571.294 2.259.982.589.589.884 1.277.982 2.063q.148 1.031-.589 1.768m8.35-16.896H5.308l.982.982h15.728v1.179H7.469L9.63 6.98h.108v.108l.983.983V6.489c0-.196.196-.393.393-.393s.393.197.393.393V8.65l-.275-.069 7.691 7.692 2.319-2.318c1.277-1.277 1.178-3.635-.393-5.207-.295-.294-.59-.491-.884-.687V6.98h1.277c.098 0 .196 0 .294-.098l1.366-1.179v-.098s0-.098.098-.098V3.149c0-.295-.196-.491-.491-.491M17.106 7.57c-.589.098-1.081.393-1.572.786l-1.473 1.473c-.197-.393-.491-.786-.786-1.081s-.59-.491-.884-.687V6.98h4.715Zm1.866 1.08h-.098l-.687-.196V6.489c0-.196.196-.393.392-.393s.393.197.393.393Z"/></svg>