<svg xmlns="http://www.w3.org/2000/svg" viewBox="0 0 24 24"><path fill="#44739e" d="M21.418 9.887c-.396-.396-.869-.695-1.38-.936h.579c.135 0 .27-.058.366-.164l1.178-1.351c.077-.087.115-.203.115-.318V4.956c0-.27-.212-.482-.482-.482H1.811c-.271 0-.483.212-.483.482v2.171c0 .116.039.232.116.319l1.158 1.35c.096.097.231.155.366.155h1.313C2.216 9.964 1 12.251 1 14.403c0 3.01 2.036 5.123 4.94 5.123.936 0 1.911-.28 2.808-.752.763.472 1.679.752 2.712.752.936 0 1.91-.28 2.808-.752.762.472 1.678.752 2.711.752 2.789 0 6.021-2.422 6.021-5.548 0-1.631-.56-3.078-1.582-4.091m-6.108-.936c-.126.058-.251.135-.367.203-.125-.078-.27-.145-.405-.203Zm-5.52 0c-.125.067-.241.135-.366.212-.126-.077-.27-.145-.406-.212Zm-3.136 9.195c-.279.396-.82.425-1.129.415-.598-.029-1.264-.279-1.862-.704s-1.052-.965-1.274-1.525c-.115-.279-.26-.81.02-1.206.251-.347.714-.415 1.023-.415h.106c.598.029 1.264.28 1.862.705 1.148.81 1.727 2.065 1.254 2.73m5.51 0c-.473.666-1.843.531-2.991-.289s-1.727-2.075-1.255-2.731c.251-.347.714-.415 1.023-.415h.106c.599.029 1.264.28 1.863.705s1.051.965 1.273 1.524c.116.28.271.811-.019 1.206m5.519 0c-.472.666-1.843.531-2.991-.289-.598-.425-1.052-.965-1.274-1.525-.115-.279-.26-.81.02-1.206.251-.347.714-.415 1.023-.415h.106c.598.029 1.264.28 1.862.705 1.148.81 1.727 2.065 1.254 2.73"/></svg>