<svg xmlns="http://www.w3.org/2000/svg" fill="#44739e" viewBox="0 0 24 24"><path d="M23.17 3.14c-.08-.08-.19-.13-.3-.13H12.69a.45.45 0 0 0-.16-.03H.99c-.23 0-.42.19-.42.42v1.04c0 .05.01.09.02.14l1.19 3.45c.06.17.22.28.4.28h1.88v3.2L1.2 14.49c-.93.93-.43 2.9 1.15 4.48.13.13.26.25.4.37.94.81 1.98 1.25 2.83 1.25.5 0 .93-.15 1.25-.47l.83-.87c.05.04.1.09.15.14.94.81 1.98 1.25 2.83 1.25.5 0 .93-.15 1.25-.47l.95-1c.08.08.16.16.25.23.94.81 1.98 1.25 2.83 1.25.5 0 .93-.15 1.25-.47L22 15.15c.08-.08.13-.18.19-.27.03-.05.07-.08.1-.13.22-.46.24-1.04.04-1.71-.24-.8-.76-1.64-1.48-2.36-.18-.18-.37-.35-.56-.5-.07-.05-.13-.1-.2-.15-.12-.09-.25-.18-.37-.26-.09-.05-.17-.1-.26-.15-.1-.06-.21-.11-.31-.16s-.2-.09-.29-.13c-.08-.03-.16-.06-.24-.08-.11-.04-.23-.08-.34-.1-.02 0-.04 0-.05-.01-.46-.1-.89-.08-1.26.04-.01 0-.03.01-.04.01v-.84l2.75.65 1.06-.66h1.01c.18 0 .35-.12.4-.3l1.09-3.47c.01-.04.02-.07.02-.11l.03-1.01c0-.11-.04-.22-.12-.31M8.81 9.39c-.1-.05-.2-.09-.29-.13-.08-.03-.16-.06-.24-.08-.11-.04-.22-.08-.34-.1-.02 0-.04 0-.05-.01-.46-.1-.89-.08-1.26.04-.01 0-.03.01-.04.01v-.8l2.53.6v.63c-.1-.06-.2-.11-.31-.16M6.23 19.52c-.51.51-1.98.16-3.28-1.15-1.31-1.31-1.65-2.78-1.15-3.28.25-.25.72-.29 1.28-.12.67.2 1.38.65 2 1.27 1.3 1.3 1.65 2.77 1.15 3.28m5.05.03c-.51.51-1.98.16-3.28-1.15-1.31-1.31-1.65-2.78-1.15-3.28.25-.25.72-.29 1.29-.12.67.2 1.38.65 2 1.27 1.3 1.3 1.65 2.78 1.14 3.28m.41-10.4c-.01 0-.03.01-.04.01v-.81l2.74.66.02-.01v.72c-.07-.05-.15-.09-.22-.13-.1-.06-.21-.11-.31-.16s-.2-.09-.29-.13c-.08-.03-.16-.06-.24-.08-.11-.04-.23-.08-.34-.1-.02 0-.04 0-.05-.01-.47-.1-.9-.09-1.27.04m4.88 10.4c-.51.51-1.98.16-3.28-1.15-1.31-1.31-1.65-2.78-1.15-3.28.25-.25.72-.29 1.28-.12.67.2 1.38.65 2 1.27 1.31 1.3 1.66 2.77 1.15 3.28"/></svg>