<svg xmlns="http://www.w3.org/2000/svg" viewBox="0 0 24 24"><path fill="#44739e" d="M22.287 13.833c-.102-.102-.306-.203-.713-.509-1.222-.917-3.768-2.75-4.176-2.954-.204-.101-.305-.203-.509-.305-.102 0-.204 0-.306-.102h-.509v-.102c1.732 0 3.361-.713 3.361-1.63V6.194c0-.509-.509-.916-1.222-1.222-.611-.203-1.324-.407-2.139-.407H7.62c-.407 0-.814 0-1.222.102-1.018.305-1.731.814-1.731 1.527v2.037c0 .917 1.222 1.63 2.953 1.63h.408v.102h-.611c-.102 0-.204 0-.306.102-.204.102-.407.102-.509.305-.408.204-2.954 2.037-4.176 2.954-.407.306-.611.407-.611.407C1.306 14.139 1 14.75 1 15.463s.204 1.528.713 2.139c.509.713 1.12 1.222 1.731 1.426.204.305.51.407.815.407.408 0 .713-.102 1.019-.305h.102s4.379-3.056 4.889-3.463c1.12-.713 1.222-2.547.203-3.973q-.458-.763-1.222-1.222v-.509h5.398v.509c-.407.306-.815.611-1.222 1.121-1.019 1.527-.917 3.259.204 3.972.509.305 4.889 3.463 4.889 3.463h.101c.306.203.611.305 1.019.305q.458 0 .917-.305c.611-.204 1.222-.713 1.731-1.426.509-.611.713-1.426.713-2.139s-.204-1.222-.713-1.63M5.38 17.907l-.611.408c-.612.407-1.732-.102-2.343-1.019-.306-.509-.509-1.12-.509-1.629 0-.306.102-.713.407-1.019l.611-.407c.204-.102.306-.102.509-.102s.408.102.51.102c.509.203.916.611 1.324 1.12.713.917.713 2.139.102 2.546m9.268-9.166v.102H9.25c0-.102-.407-.408-1.324-.102v.102H7.62c-1.222 0-1.935-.51-1.935-.612s.611-.611 1.935-.611h8.658c1.222 0 1.935.51 1.935.611s-.611.612-1.935.612h-.306v-.102c-.916-.306-1.324 0-1.324 0m6.824 8.453c-.713 1.019-1.731 1.426-2.342 1.019l-.611-.407c-.612-.408-.51-1.63.101-2.547.306-.509.815-.916 1.324-1.12.102-.102.306-.102.51-.102s.305 0 .509.102l.611.407c.407.204.407.713.407 1.019.102.509-.101 1.12-.509 1.629"/></svg>