<svg xmlns="http://www.w3.org/2000/svg" viewBox="0 0 24 24"><path fill="#44739e" d="M23 12.998c0-1.523-1.788-2.875-4.531-3.708-.491-1.523-3.102-2.62-6.469-2.62S6.022 7.767 5.531 9.29C2.788 10.123 1 11.475 1 12.998h.009c0 .028-.009.057-.009.094 0 2.346 4.928 4.238 11 4.238s11-1.901 11-4.238c0-.028-.009-.056-.009-.094ZM12 7.616c2.374 0 4.218.596 5.079 1.315-1.523-.331-3.244-.52-5.079-.52s-3.556.189-5.079.52C7.782 8.212 9.626 7.616 12 7.616m.255 8.929c-4.71 0-8.522-1.551-8.522-3.453 0-1.91 3.822-3.452 8.522-3.452s8.522 1.551 8.522 3.452-3.811 3.453-8.522 3.453"/></svg>