<svg xmlns="http://www.w3.org/2000/svg" viewBox="0 0 24 24"><path fill="#44739e" d="M22.207 13.114c-.097-.097-4.164-2.905-4.648-3.293 0 0-.097 0-.097-.097 1.646-.29 3.099-.774 3.099-1.549v-.968c0-1.84-6.876-1.937-8.231-1.937s-8.231.097-8.231 1.937v.968c0 .775 1.162 1.162 2.614 1.453-.097 0-.193.096-.29.193-.484.291-4.648 3.293-4.648 3.293-.484.387-.775.968-.775 1.743 0 .677.194 1.452.678 2.033.484.678 1.065 1.162 1.646 1.356.291.097.581.194.872.194.387 0 .677-.097.968-.291 0 0 .194-.097.387-.29 0 0 .097 0 .097-.097l.097-.097c.968-.581 2.518-1.646 3.389-2.227 0 .678.097 1.162.097 1.162 0 1.259 1.356 2.13 3.002 2.13h.097c1.743 0 3.002-1.065 3.002-2.324v-.678c.871.678 2.13 1.55 2.905 2.034l.097.097s.096 0 .096.096c.291.194.388.291.388.291.29.194.678.29.968.29s.581-.096.872-.193c.677-.291 1.258-.775 1.646-1.356.484-.678.678-1.356.678-2.034.096-.871-.194-1.452-.775-1.839m-2.421-.485c-.678.291-1.259.775-1.743 1.356-.484.678-.678 1.356-.678 2.034-.871-.581-1.743-1.259-2.227-1.55 0-1.065-.097-2.324-.097-3.002.581-.774 1.453-1.065 2.034-.677.193.096 1.549.968 2.711 1.839M9.037 10.112v-.097h.194c-.097.097-.097.097-.194.097 0 .097 0 0 0 0m1.453-.097c.387-.291.968-.387 1.452-.387h.388c.484.096.871.193 1.162.387l.097.097c.193.193.387.387.387.678v.484c0 .387 0 .871.097 1.355 0 .485 0 .969.097 1.55-.581-.388-1.259-.484-2.034-.484s-1.549.29-2.033.677v-.968c0-.871-.097-1.743-.097-2.227v-.291c0-.29.193-.581.484-.871m4.551.097-.097.097c0-.097 0-.097-.097-.194.097 0 .097 0 .194.097m.387-3.68h-.096Zm-1.258-.097h-.388Zm-3.293 0h-.29Zm1.453.968c4.164 0 6.585.581 7.166.969-.291.194-1.356.484-3.196.775l.097-.678c-.872-.291-1.259 0-1.259 0v.774c-.387 0-.678 0-1.065.097h-.097c-.097-.097-.194-.097-.387-.193-.097 0-.097 0-.194-.097-.097 0-.194-.097-.291-.097s-.29-.097-.387-.097v-.678s-.097-.29-1.162 0v.581h-.097c-.097 0-.193 0-.29.097h-.194c-.097 0-.29.097-.387.097-.097.097-.291.097-.388.194-.387 0-.774-.097-1.162-.097v-.678s-.387-.291-1.259 0l.097.581c-1.549-.194-2.421-.484-2.711-.581.581-.388 3.002-.969 7.166-.969m-5.714 8.716c0-.678-.193-1.356-.677-2.034s-1.066-1.162-1.647-1.356c1.162-.871 2.518-1.743 2.809-1.936.484-.291 1.355 0 1.936.678 0 .677.097 1.839.097 2.905-.484.29-1.549 1.065-2.518 1.743"/></svg>