<svg xmlns="http://www.w3.org/2000/svg" viewBox="0 0 24 24"><path fill="#44739e" d="M17.63 19.038v-.313c-.104-.208-.208-.521-.312-.73l-2.294-5.317c-1.043-2.398-1.043-3.441-1.043-3.441l-.104-7.194c0-.105 0-.209-.104-.209C13.773 1.73 13.251 1 12 1c-1.043 0-1.564.626-1.668.938v.209s-.105 5.213-.105 6.986c0 .73-.208 1.564-.521 2.294l-.73 1.251c0 .104-.104.104-.104.208L6.682 18.1c-.104.208-.208.417-.312.729v.626C6.37 21.436 8.872 23 12 23s5.63-1.564 5.63-3.545Zm-8.028-5.109.313-.73c.104-.208.73-.73 2.189-.73 1.356 0 1.773.313 1.877.417v.105l1.46 3.44q-1.408-.625-3.441-.625c-1.355 0-2.607.312-3.545.73ZM12 21.853c-2.502 0-4.588-1.147-4.588-2.502S9.498 16.848 12 16.848s4.588 1.147 4.588 2.503-2.086 2.502-4.588 2.502"/></svg>