<svg xmlns="http://www.w3.org/2000/svg" viewBox="0 0 24 24"><path fill="#44739e" d="M22.875 1.189c-.094-.106-.231-.158-.378-.158H1.526c-.295 0-.526.231-.526.525v1.293c0 .063.011.116.032.169l1.482 4.299c.073.21.273.357.494.357h2.333v3.984l-3.574 3.711c-1.166 1.167-.536 3.616 1.43 5.582.158.158.326.315.494.462 1.177 1.01 2.47 1.556 3.522 1.556.62 0 1.166-.189 1.555-.589l1.199-1.261c.105.105.21.2.315.294 1.177 1.01 2.47 1.556 3.521 1.556.621 0 1.167-.189 1.556-.589l6.024-6.265c.094-.094.168-.22.241-.336.032-.063.084-.105.116-.168.273-.568.305-1.304.052-2.134-.294-.999-.956-2.039-1.85-2.943-.231-.232-.462-.431-.693-.621l-.253-.189c-.157-.115-.305-.221-.462-.326l-.316-.189a4.7 4.7 0 0 0-.388-.2c-.127-.063-.242-.115-.368-.157-.106-.042-.2-.074-.295-.105-.147-.042-.284-.095-.42-.127-.021 0-.042-.01-.063-.01-.578-.126-1.104-.105-1.567.052-.021.011-.042.011-.052.011v-.999l3.416.82 1.325-.82h1.261c.231 0 .431-.147.505-.368l1.356-4.33c.01-.042.021-.095.021-.137l.042-1.262c.031-.147-.021-.283-.116-.388M11.932 9.388c-.094-.063-.199-.116-.294-.179a4.6 4.6 0 0 0-.389-.2c-.126-.063-.242-.115-.368-.157a5 5 0 0 0-.294-.105c-.147-.042-.284-.095-.421-.127-.021 0-.042-.01-.063-.01-.578-.126-1.103-.105-1.566.052.011.022-.011.022-.032.022v-1.01l3.417.82.01-.01ZM8.053 21.645c-.63.63-2.47.199-4.099-1.43s-2.06-3.469-1.43-4.1c.305-.304.894-.368 1.598-.157.841.252 1.724.82 2.502 1.587 1.629 1.629 2.06 3.469 1.429 4.1m6.591 0c-.63.63-2.47.199-4.099-1.43s-2.061-3.469-1.43-4.1c.305-.304.894-.368 1.598-.157.83.241 1.713.809 2.491 1.587 1.63 1.629 2.071 3.469 1.44 4.1"/></svg>