<svg xmlns="http://www.w3.org/2000/svg" viewBox="0 0 24 24"><path fill="#44739e" d="M22.981 13.458v-3.401c0-2.252-7.176-2.847-10.97-2.847s-10.969.596-10.969 2.847v3.309a1.25 1.25 0 0 0 .038.763c.393 2.095 7.246 2.661 10.931 2.661 3.71 0 10.632-.574 10.94-2.703a.5.5 0 0 0 .018-.042 1.75 1.75 0 0 0 .012-.587m-10.97 2.371c-6.475 0-10.008-1.246-10.008-1.886 0-.496 2.131-1.353 6.1-1.715 1.672-.084 3.492-.127 5.295-.148 5.589.161 8.622 1.271 8.622 1.863 0 .64-3.533 1.886-10.009 1.886m.024-2.427c-.212 0-2.071.022-2.071.758s1.859.758 2.071.758 2.071-.021 2.071-.758-1.859-.758-2.071-.758"/></svg>