<svg xmlns="http://www.w3.org/2000/svg" viewBox="0 0 24 24"><path fill="#44739e" d="M22.509 2.766H4.925c-.295 0-.491.197-.491.491v2.26c0 .098.098.196.196.196L6.3 6.99c.099.098.197.098.295.098h3.143v.59c-.589.098-1.178.393-1.571.786L1.88 14.751c-1.277 1.277-1.179 3.634.393 5.206.884.884 1.964 1.277 2.947 1.277.884 0 1.67-.295 2.259-.884l1.474-1.474c.196.393.491.786.785 1.081.885.884 1.965 1.277 2.947 1.277.885 0 1.67-.295 2.26-.884l6.287-6.287c1.277-1.277 1.179-3.635-.393-5.206-.295-.295-.59-.492-.884-.688V7.088h1.277c.098 0 .196 0 .294-.098l1.376-1.179v-.098s0-.098.098-.098V3.257c0-.294-.196-.491-.491-.491M6.791 19.662c-.982.983-2.652.786-3.831-.393s-1.375-2.848-.393-3.831c.393-.393.983-.589 1.572-.589.786 0 1.572.294 2.26.982 1.08 1.179 1.277 2.849.392 3.831m7.368 0c-.982.983-2.652.786-3.831-.393s-1.375-2.848-.393-3.831c.393-.393.982-.589 1.572-.589.786 0 1.571.294 2.259.982.589.59.884 1.277.982 2.063q.148 1.031-.589 1.768m-3.438-11.1V6.597c0-.196.196-.393.393-.393s.393.197.393.393v2.161Zm6.385-.884c-.589.098-1.081.393-1.572.786l-1.473 1.473c-.197-.393-.491-.786-.786-1.08s-.59-.492-.884-.688V7.088h4.715Zm1.768 1.08-.687-.196V6.597c0-.196.196-.393.392-.393s.393.197.393.393v2.161Zm3.144-3.831H5.416V3.748h16.602Z"/></svg>