<svg xmlns="http://www.w3.org/2000/svg" viewBox="0 0 24 24"><path fill="#44739e" d="M7.6 4.826v1.748h3.526v2.963c-.914-.875-2.067-1.507-3.429-1.507-1.561 0-3.114 1.026-4.132 2.351a4 4 0 0 1 .185-.007 3.85 3.85 0 0 1 1.551.329c.65-.611 1.511-1.023 2.396-1.023 1.757 0 3.192 1.308 3.429 3a3.85 3.85 0 0 1 .874-.106c.294.002.588.037.874.106.237-1.692 1.672-3 3.429-3 .885 0 1.748.413 2.398 1.025a3.85 3.85 0 0 1 1.549-.331q.095.002.189.009c-1.017-1.327-2.573-2.353-4.136-2.353-1.362 0-2.515.633-3.429 1.509V6.574H16.4V4.826Zm-3.85 6.648c-1.519 0-2.75 1.232-2.75 2.75s1.231 2.75 2.75 2.75 2.75-1.231 2.75-2.75-1.231-2.75-2.75-2.75m16.5 0c-1.519 0-2.75 1.232-2.75 2.75s1.231 2.75 2.75 2.75S23 15.743 23 14.224s-1.231-2.75-2.75-2.75m-8.25 2.2c-1.519 0-2.75 1.232-2.75 2.75s1.231 2.75 2.75 2.75 2.75-1.231 2.75-2.75-1.231-2.75-2.75-2.75"/></svg>