<svg xmlns="http://www.w3.org/2000/svg" viewBox="0 0 24 24"><path fill="#44739e" d="M22.477 4.715H4.006a.561.561 0 0 0-.521.521v2.081l1.301 1.04h2.602v.261c-.26.259-.78.52-1.041.78L1.662 14.08c-1.04 1.042-.78 2.86.261 4.163a4.677 4.677 0 0 0 2.341 1.041 2.362 2.362 0 0 0 1.821-.781l1.041-1.04c.26.26.26.52.52.78a3.178 3.178 0 0 0 2.341 1.041 2.362 2.362 0 0 0 1.821-.781l1.041-1.04c.26.26.26.52.52.78a3.3 3.3 0 0 0 2.341 1.041 2.362 2.362 0 0 0 1.821-.781l4.683-4.682a2.955 2.955 0 0 0 .783-2.082 2.368 2.368 0 0 0-1.04-2.081c-.261-.26-.52-.26-.781-.52v-.52h.52l1.301-1.041V5.236c-.261-.261-.261-.521-.52-.521M5.307 17.718c-.781.781-1.822.52-2.86-.259a2.018 2.018 0 0 1-.263-2.6 1.98 1.98 0 0 1 1.042-.52 2.25 2.25 0 0 1 1.56.781c1.041.779 1.301 2.08.521 2.6m5.463 0c-.52.781-1.821.521-2.602-.259a1.43 1.43 0 0 1-.78-1.301 1.955 1.955 0 0 1 .26-1.301c.52-.26.781-.52 1.301-.52a2.25 2.25 0 0 1 1.56.781 1.43 1.43 0 0 1 .781 1.299 1.987 1.987 0 0 1-.52 1.301M8.429 9.398v-1.3c0-.261.259-.261.259 0v1.3Zm4.682-.78c-.52.259-.78.52-1.301.78l-.78.78c0-.259-.26-.52-.521-.78a.956.956 0 0 1-.779-.258v-.522Zm3.382 9.1a1.76 1.76 0 0 1-2.601-.259c-.781-.781-1.041-2.082-.521-2.602.521-.26.781-.521 1.301-.521a2.254 2.254 0 0 1 1.562.781c.779.78 1.04 2.081.259 2.601m-2.341-8.325V8.098c0-.261.26-.261.26 0v1.3Zm4.683-.78a5.72 5.72 0 0 0-1.301.78l-1.041 1.042c-.259-.261-.259-.521-.52-.781s-.52-.261-.52-.52v-.516Zm1.301.78h-.521V8.098c0-.261.26-.261.26 0v1.3Zm1.821-2.601H4.521V5.756h17.431Z"/></svg>