<svg xmlns="http://www.w3.org/2000/svg" viewBox="0 0 24 24"><path fill="#44739e" d="M18.991 13.344c0 .636-3.103.906-6.938.906s-6.938-.366-6.938-.906 3.103-.886 6.928-.886 6.948.356 6.948.886m1.359-3.478c-.193-1.07-3.884-1.928-8.422-1.928-4.597 0-8.326.877-8.432 1.966C2.021 10.347 1 10.964 1 11.812l.039 1.59c-.039 1.908 7.265 2.66 10.956 2.66 3.72 0 10.658-.578 10.966-2.708L23 11.812c0-.877-1.099-1.503-2.65-1.946m-8.355 5.232c-6.495 0-10.031-1.253-10.031-1.889 0-.501 2.139-1.358 6.119-1.715 1.677-.087 3.498-.125 5.309-.144 5.609.163 8.644 1.272 8.644 1.869 0 .636-3.546 1.879-10.041 1.879"/></svg>