<svg xmlns="http://www.w3.org/2000/svg" fill="#44739e" viewBox="0 0 24 24"><path d="M2.4402 9.879a.91.91 0 0 0 .074.834.116.116 0 0 1 .043.119l-.008.03a.112.112 0 0 0 .083.138l6.751 1.582a.18.18 0 0 0 .215-.129l.1-.385.63.167a1.707 1.707 0 0 0 .562 1.455l-.353.547-.335-.216a.18.18 0 0 0-.245.049l-3.929 5.711a.113.113 0 0 0 .032.158l.04.026a.116.116 0 0 1 .049.117c-.025.178.18.456.506.667a.91.91 0 0 0 .816.187.117.117 0 0 1 .127 0l.026.017a.111.111 0 0 0 .159-.04l3.59-5.929a.177.177 0 0 0-.059-.241l-.334-.216.353-.547a1.71 1.71 0 0 0 1.557-.086l.412.505-.309.251a.181.181 0 0 0-.029.249l4.218 5.5a.111.111 0 0 0 .159.019l.038-.031a.117.117 0 0 1 .126-.01c.161.079.49-.03.791-.275s.475-.545.43-.718a.116.116 0 0 1 .036-.122l.023-.02a.111.111 0 0 0 .014-.16l-4.529-5.249a.18.18 0 0 0-.249-.022l-.308.252-.411-.505a1.7 1.7 0 0 0 .17-.213 1.71 1.71 0 0 0 .235-1.3l.6-.233.143.371a.18.18 0 0 0 .228.105l6.533-2.312a.112.112 0 0 0 .067-.146l-.017-.046a.116.116 0 0 1 .029-.123.91.91 0 0 0-.017-.837c-.14-.362-.372-.62-.55-.631a.115.115 0 0 1-.105-.072l-.011-.028a.113.113 0 0 0-.148-.063l-6.389 2.686a.179.179 0 0 0-.1.23l.144.372-.608.235a1.654 1.654 0 0 0-1.31-.846l-.036-.651.4-.022a.179.179 0 0 0 .169-.184l-.18-6.928a.112.112 0 0 0-.118-.109h-.048a.117.117 0 0 1-.108-.066c-.084-.159-.414-.264-.8-.242s-.7.161-.77.328a.118.118 0 0 1-.1.078h-.03a.112.112 0 0 0-.105.122l.58 6.906a.18.18 0 0 0 .189.164l.4-.022.035.644a1.72 1.72 0 0 0-1.086.748 1.85 1.85 0 0 0-.124.243l-.628-.167.1-.385a.18.18 0 0 0-.123-.218l-6.647-1.962a.112.112 0 0 0-.14.078l-.012.047a.115.115 0 0 1-.1.082c-.173.031-.375.313-.474.688m8.391 5.249-.333.515a.289.289 0 0 1-.4.085l-.3-.193a.289.289 0 0 1-.086-.4l.332-.515a.275.275 0 0 1 .307-.1l-.422.652a.176.176 0 0 0 .053.242l.15.1a.177.177 0 0 0 .243-.052l.421-.653a.277.277 0 0 1 .035.319m3.409-.737.387.475a.29.29 0 0 1-.042.406l-.276.225a.29.29 0 0 1-.406-.041l-.387-.476a.275.275 0 0 1 0-.323l.49.6a.177.177 0 0 0 .247.026l.139-.114a.175.175 0 0 0 .025-.246l-.49-.6a.274.274 0 0 1 .313.068m.353-3.471.571-.221a.289.289 0 0 1 .373.165l.129.333a.289.289 0 0 1-.165.373l-.571.221a.275.275 0 0 1-.309-.1l.725-.28a.176.176 0 0 0 .1-.227l-.065-.167a.176.176 0 0 0-.227-.1l-.724.28a.275.275 0 0 1 .163-.277m-3.192-1.407-.033-.612a.289.289 0 0 1 .272-.3l.356-.02a.29.29 0 0 1 .3.272l.034.612a.276.276 0 0 1-.188.263l-.043-.775a.175.175 0 0 0-.184-.165l-.18.01a.175.175 0 0 0-.165.184l.043.775a.274.274 0 0 1-.212-.244m-2.678 1.54.592.157a.275.275 0 0 1 .193.26l-.751-.2a.175.175 0 0 0-.214.125l-.046.173a.175.175 0 0 0 .124.214l.751.2a.275.275 0 0 1-.3.131l-.589-.157a.289.289 0 0 1-.2-.353l.091-.345a.291.291 0 0 1 .349-.205"/></svg>