<svg xmlns="http://www.w3.org/2000/svg" viewBox="0 0 24 24"><path fill="#44739e" d="M23 11.018c0-2.254-7.195-2.852-10.99-2.852S1 8.764 1 11.018l.039 2.157C1 15.082 8.301 15.834 11.99 15.834c3.718 0 10.654-.578 10.962-2.707ZM11.99 14.87c-6.492 0-10.027-1.252-10.027-1.888 0-.5 2.139-1.358 6.117-1.714 1.676-.087 3.496-.125 5.307-.145 5.606.164 8.64 1.272 8.64 1.869.01.636-3.535 1.878-10.037 1.878m6.367-1.753c0 .636-2.822.906-6.299.906s-6.3-.366-6.3-.906 2.823-.886 6.3-.886 6.299.357 6.299.886"/></svg>