<svg xmlns="http://www.w3.org/2000/svg" viewBox="0 0 24 24"><path fill="#44739e" d="M7.6 2.848v2.2h3.3v5.794a2.2 2.2 0 0 0-1.1 1.906v1.1h4.4v-1.1a2.2 2.2 0 0 0-1.1-1.906V5.048h3.3v-2.2H9.8Zm-2.2 9.9a4.4 1.65 0 0 0-4.4 1.65 4.4 1.65 0 0 0 4.4 1.65 4.4 1.65 0 0 0 4.4-1.65 4.4 1.65 0 0 0-4.4-1.65m13.2 0a4.4 1.65 0 0 0-4.4 1.65 4.4 1.65 0 0 0 4.4 1.65 4.4 1.65 0 0 0 4.4-1.65 4.4 1.65 0 0 0-4.4-1.65m-8.8 2.2v1.1a2.2 2.2 0 0 0 1.1 1.905 2.2 2.2 0 0 0 2.2 0 2.2 2.2 0 0 0 1.1-1.905v-1.1Zm-.591 2.075-1.905 1.1.55.954 1.905-1.1Zm5.582 0-.55.954 1.905 1.1.55-.954Zm-3.341 1.929v2.2h1.1v-2.2Z"/></svg>