<svg xmlns="http://www.w3.org/2000/svg" viewBox="0 0 24 24"><path fill="#44739e" d="M22.508 1H1.492C1.217 1 1 1.217 1 1.492v3.437c0 .118.039.237.118.325L2.95 7.381c.088.109.226.168.374.168h3.752c-2.413 1.763-3.801 4.766-3.801 7.622C3.275 19.78 6.377 23 10.818 23c4.284 0 9.257-3.713 9.257-8.509 0-2.501-.857-4.726-2.413-6.273-.246-.246-.512-.462-.787-.669h3.771c.138 0 .276-.059.375-.168l1.861-2.127c.079-.088.118-.207.118-.325V1.492c0-.275-.217-.492-.492-.492M12.167 21.237c-.384.542-1.103.818-2.028.768-1.005-.049-2.098-.462-3.083-1.162-1.94-1.378-2.875-3.535-2.038-4.697.827-1.162 3.171-.985 5.111.394s2.866 3.535 2.038 4.697"/></svg>