<svg xmlns="http://www.w3.org/2000/svg" viewBox="0 0 24 24"><path fill="#44739e" d="M11.951 6.426C6.525 6.426 1 7.61 1 9.682v1.973c0 .296.197.493.493.493h.099c.099.987.592 2.269 2.368 3.453 2.663 1.874 6.708 1.973 7.892 1.973h.395c1.282 0 5.228-.197 7.793-1.973 1.677-1.184 2.269-2.466 2.368-3.453h.099c.296 0 .493-.197.493-.493V9.682c-.099-2.072-5.623-3.256-11.049-3.256m7.497 8.386c-2.367 1.677-6.215 1.874-7.3 1.775h-.296c-1.085 0-4.933-.098-7.3-1.775-2.565-1.875-1.875-3.651-1.875-3.749v-.099c1.283-.69 4.44-1.578 9.274-1.578s7.991.789 9.273 1.578v.099c.099.098.691 1.874-1.776 3.749"/></svg>