<svg xmlns="http://www.w3.org/2000/svg" fill="#44739e" viewBox="0 0 24 24"><path d="m21.915 13.992-1.64-1.641h.7l.469-.7-.231-4.451H2v4.217l.469 1.172h8.669v3.28c0 .469.937.937 1.874.937s1.874-.468 1.874-.937v-3.518h1.172v.938s2.109 2.343 2.577 3.046a1.22 1.22 0 0 0 .938.468 1.668 1.668 0 0 0 1.405-.7c.937-.237 1.172-1.174.937-2.111m-11.246-2.109H2.7l-.234-.7h8.2zm2.343 4.452c-.937 0-1.171-.235-1.171-.469a1.79 1.79 0 0 1 1.171-.469c.937 0 1.172.235 1.172.469.234 0-.235.469-1.172.469m8.435-1.406a1.254 1.254 0 0 1-.7.937c-.234.234-.7.234-.937.469-.234 0-.234 0-.469-.235 0-.234-.234-.468 0-.468a1.258 1.258 0 0 1 .7-.938c0-.234.469-.468.937-.468.235 0 .235 0 .469.234z"/></svg>