<svg xmlns="http://www.w3.org/2000/svg" viewBox="0 0 24 24"><path fill="#44739e" d="M11.849 8.677c-4.219 0-7.534 2.11-7.534 4.521s3.315 4.515 7.534 4.515 7.534-2.109 7.534-4.52-3.314-4.521-7.534-4.521m5.124 6.329c0 .603-.904.904-1.808.904a9.28 9.28 0 0 1-3.918-.904 6.296 6.296 0 0 1-3.014-2.411c-.603-.904-.905-1.809-.603-2.11.301-.603.904-.904 2.109-.904a6.87 6.87 0 0 1 3.316.904 7.297 7.297 0 0 1 3.315 2.411c.904.904.904 1.809.603 2.11m2.712-8.728a17.89 17.89 0 0 0-7.836-2.11 15.65 15.65 0 0 0-7.534 2.11A5.837 5.837 0 0 0 1 11.088v1.507a5.898 5.898 0 0 0 3.315 5.118 13.277 13.277 0 0 0 7.836 2.109c3.014 0 5.72-.602 7.534-2.109A6.27 6.27 0 0 0 23 12.595v-1.507a5.837 5.837 0 0 0-3.315-4.815m-7.836 12.349c-5.424 0-9.643-2.711-9.643-6.027s4.519-6.028 9.945-6.028 9.945 2.713 9.945 6.028c-.302 3.316-4.821 6.027-10.247 6.027"/></svg>