<svg xmlns="http://www.w3.org/2000/svg" viewBox="0 0 24 24"><path fill="#44739e" d="m22.907 14.188-1.804-1.805h.77l.516-.77-.254-4.896H1v4.638l.516 1.29h9.536v3.608c0 .516 1.031 1.03 2.061 1.03s2.062-.514 2.062-1.03v-3.87h1.289v1.032s2.32 2.577 2.835 3.35a1.342 1.342 0 0 0 1.031.515 1.835 1.835 0 0 0 1.546-.77c1.031-.261 1.289-1.291 1.031-2.322m-12.371-2.32H1.77l-.257-.77h9.02Zm2.577 4.897c-1.03 0-1.288-.258-1.288-.516a1.97 1.97 0 0 1 1.288-.516c1.031 0 1.29.259 1.29.516.257 0-.259.516-1.29.516m9.279-1.546a1.379 1.379 0 0 1-.77 1.03c-.257.258-.77.258-1.031.516-.257 0-.257 0-.516-.258 0-.258-.257-.515 0-.515a1.384 1.384 0 0 1 .77-1.032c0-.257.516-.515 1.031-.515.259 0 .259 0 .516.258Z"/></svg>