<svg xmlns="http://www.w3.org/2000/svg" fill="#44739e" viewBox="0 0 24 24"><path d="M21.765 10.147c0-.235 0-.235-.236-.235l-2.823-.941-5.177-1.883c-2.117-.706-4.235-1.412-6.117-2.117h-.236l-4.7 1.647c-.236.235-.471.235-.471.47v4.236c0 .235 0 .235.235.235l.706.235 6.353 2.118 1.647.47a1.013 1.013 0 0 1 .941-.941c1.177-.47 2.118-.706 3.294-1.176a4.725 4.725 0 0 1 1.883-.941 1.5 1.5 0 0 1 1.412 0 4.9 4.9 0 0 1 1.411.941 4.177 4.177 0 0 1 .942 2.353v.235c.235-.235.47-.235.941-.471a.23.23 0 0 0 .23-.235 21.55 21.55 0 0 1-.235-4m-8.471 1.647c-.235 0-.47.235-.706.235-.47.236-1.176.471-1.647.706h-.235c-1.177-.235-2.118-.706-3.294-.941l-2.353-.706c-.471-.235-.706-.235-1.177-.47a.231.231 0 0 1-.235-.236.23.23 0 0 1 .235-.235c.236 0 .471-.235.706-.235l2.118-.941h.235c1.177.47 2.588.941 3.765 1.411l2.588.942.235.235a.23.23 0 0 1-.235.235m5.882 1.412a3.24 3.24 0 0 0-.941-.706.716.716 0 0 0-.941 0c-.706.235-1.176.471-1.882.706a18.43 18.43 0 0 0-3.294 1.176.507.507 0 0 0-.471.471v1.412a2.542 2.542 0 0 0 .706 1.647 1.84 1.84 0 0 0 .941.941.442.442 0 0 0 .706 0c.941-.471 1.882-.706 2.824-1.177a4.81 4.81 0 0 1 2.117-1.176c.471-.235.706-.471.706-.941v-.706a3.39 3.39 0 0 0-.471-1.647m-4.941 4c0 .235-.235.235-.47.235a.506.506 0 0 1-.471-.47 1.524 1.524 0 0 1-.47-1.177v-.47c0-.236.235-.236.47-.236a.824.824 0 0 1 .471.236 3.344 3.344 0 0 1 .47 1.411z"/></svg>