<svg xmlns="http://www.w3.org/2000/svg" viewBox="0 0 24 24"><path fill="#44739e" d="M22.463 4.758H1.537A.578.578 0 0 0 1 5.291v1.613l2.146 12.072c0 .269.268.269.537.269h16.903a.937.937 0 0 0 .536-.269L23 6.904V5.291c0-.267 0-.536-.537-.536m-2.42 13.42H3.951L2.342 7.44h19.853Zm-7.78-.805c3.756 0 6.71-1.878 6.71-4.024s-2.95-4.29-6.71-4.29-6.71 1.878-6.71 4.025 2.951 4.29 6.71 4.29m-3.751-6.444a2.09 2.09 0 0 1 1.879-.804 7.15 7.15 0 0 1 3.218.804 7.29 7.29 0 0 1 2.681 2.148c.805.804 1.074 1.609.805 1.877a2.09 2.09 0 0 1-1.878.806 9.26 9.26 0 0 1-3.488-.806 7.315 7.315 0 0 1-2.683-2.146c-.536-.805-.805-1.342-.536-1.879"/></svg>