<svg xmlns="http://www.w3.org/2000/svg" viewBox="0 0 24 24"><path fill="#44739e" d="m22.907 14.185-1.804-1.805h.77l.516-.77-.254-4.896H1v4.639l.516 1.289h9.02l-1.547 1.543a1.937 1.937 0 0 0 .516 2.578 3.66 3.66 0 0 0 1.547.514 1.03 1.03 0 0 0 1.031-.514 13.2 13.2 0 0 0 1.546-1.806v1.032c0 .515 1.031 1.031 2.062 1.031s2.061-.516 2.061-1.031v-1.032l1.547 1.806a1.342 1.342 0 0 0 1.03.514 1.836 1.836 0 0 0 1.547-.77c1.031-.257 1.289-1.288 1.031-2.319M1.516 11.092h9.02v.77H1.77Zm10.051 5.412a.898.898 0 0 1-.515.259c-.516 0-.77-.259-1.289-.516a1.955 1.955 0 0 0-.515-1.031V14.7a.798.798 0 0 1 .515-.257c.516 0 .77.257 1.289.514a1.342 1.342 0 0 1 .515 1.032c.258.258.258.258 0 .515m4.124.259c-1.031 0-1.288-.259-1.288-.516a1.97 1.97 0 0 1 1.288-.516c1.03 0 1.289.258 1.289.516.257 0-.259.516-1.289.516m6.701-1.547a1.379 1.379 0 0 1-.77 1.031c-.257.257-.77.257-1.031.516-.258 0-.258 0-.516-.259 0-.257-.257-.515 0-.515a1.382 1.382 0 0 1 .77-1.032c0-.257.516-.514 1.031-.514.259 0 .259 0 .516.257Z"/></svg>