<svg xmlns="http://www.w3.org/2000/svg" fill="#44739e" viewBox="0 0 24 24"><path d="M9 2.0004v1c.0002.5358.572 1.0309 1.5 1.2988.235.0675.4874.1187.75.1523l-.002 5.6344A3.52 3.52 0 0 1 12 10c.2523.0009.5037.029.75.084V4.4516a5.05 5.05 0 0 0 .75-.1524c.928-.2679 1.4998-.763 1.5-1.2988v-1zM12 11c-1.3807 0-2.5 1.1193-2.5 2.5S10.6193 16 12 16s2.5-1.1193 2.5-2.5S13.3807 11 12 11m-7.5 2C3.1193 13 2 14.1193 2 15.5S3.1193 18 4.5 18 7 16.8807 7 15.5 5.8807 13 4.5 13m15 0c-1.3807 0-2.5 1.1193-2.5 2.5s1.1193 2.5 2.5 2.5 2.5-1.1193 2.5-2.5-1.1193-2.5-2.5-2.5m-8.2949 3.9043c-.2149 1.5381-1.5198 2.7266-3.1172 2.7266-.804 0-1.5886-.3752-2.1797-.9316A3.5 3.5 0 0 1 4.5 19a3.5 3.5 0 0 1-.1719-.0078c.9248 1.2061 2.3395 2.1387 3.7598 2.1387 1.2597 0 2.3252-.5916 3.1621-1.4082V21.25A.75.75 0 0 0 12 22c.3994-.0005.7283-.351.748-.75v-1.5273c.8371.8176 1.9036 1.4082 3.1642 1.4082 1.419 0 2.831-.932 3.7559-2.1367a3.5 3.5 0 0 1-.168.006 3.5 3.5 0 0 1-1.4102-.2989c-.5908.5557-1.3737.9297-2.1777.9297-1.5974 0-2.9022-1.1885-3.1172-2.7266a3.5 3.5 0 0 1-.795.0957 3.5 3.5 0 0 1-.7948-.0957z"/></svg>