<svg xmlns="http://www.w3.org/2000/svg" viewBox="0 0 24 24"><path fill="#44739e" d="M8.7 1v1.1c0 .59.629 1.134 1.65 1.429.258.074.536.13.825.167l-.002 6.198A3.87 3.87 0 0 1 12 9.8c.278.001.554.032.825.092V3.697a5.56 5.56 0 0 0 .825-.168c1.021-.295 1.65-.839 1.65-1.429V1Zm3.3 9.9c-1.519 0-2.75 1.231-2.75 2.75S10.481 16.4 12 16.4s2.75-1.231 2.75-2.75S13.519 10.9 12 10.9m-8.25 2.2C2.231 13.1 1 14.331 1 15.85s1.231 2.75 2.75 2.75 2.75-1.231 2.75-2.75-1.231-2.75-2.75-2.75m16.5 0c-1.519 0-2.75 1.231-2.75 2.75s1.231 2.75 2.75 2.75S23 17.369 23 15.85s-1.231-2.75-2.75-2.75m-9.124 4.295c-.237 1.691-1.672 2.999-3.429 2.999-.885 0-1.748-.413-2.398-1.025a3.85 3.85 0 0 1-1.549.331 4 4 0 0 1-.189-.009c1.017 1.327 2.573 2.353 4.136 2.353 1.385 0 2.557-.651 3.478-1.549v1.68A.825.825 0 0 0 12 23c.439-.001.801-.386.823-.825v-1.68c.921.899 2.094 1.549 3.48 1.549 1.561 0 3.115-1.025 4.132-2.351a4 4 0 0 1-.185.007 3.85 3.85 0 0 1-1.551-.329c-.65.611-1.511 1.023-2.396 1.023-1.757 0-3.192-1.307-3.429-2.999A3.85 3.85 0 0 1 12 17.5a3.85 3.85 0 0 1-.874-.105"/></svg>