<svg xmlns="http://www.w3.org/2000/svg" viewBox="0 0 24 24"><path fill="#44739e" d="M19.944 6.806V5.125a.459.459 0 0 0-.916 0v1.681h-1.834V5.125a.459.459 0 0 0-.916 0v1.681h-.916v.916a2.75 2.75 0 0 0 2.138 2.68v3.432l.914 6.745a1.221 1.221 0 0 1-2.442-.022V12a1.835 1.835 0 0 0-1.834-1.834h-1.832V2.782A1.811 1.811 0 0 0 10.472 1h-5.5a1.811 1.811 0 0 0-1.834 1.782V23h9.168V11.388h1.832a.613.613 0 0 1 .612.612v8.555a2.444 2.444 0 1 0 4.888 0l-.916-6.764v-3.389a2.75 2.75 0 0 0 2.14-2.68v-.916Zm-14.49 10.32 1.32-2.632H5.125l2.303-3.949h1.65l-1.65 2.632h1.975Zm5.63-9.658a.588.588 0 0 1-.612.56h-5.5a.588.588 0 0 1-.61-.56V2.782a.588.588 0 0 1 .61-.56h5.5a.588.588 0 0 1 .612.56Z"/></svg>