<svg xmlns="http://www.w3.org/2000/svg" fill="#44739e" viewBox="0 0 24 24"><path d="M19.886 7.426c.057-.011.126-.018.179-.026a.4.4 0 0 1 .2.049.061.061 0 0 0 .089-.067c-.02-.063-.049-.138-.065-.19a.144.144 0 0 0-.1-.093.106.106 0 0 1-.081-.126.266.266 0 0 1 .049-.108.762.762 0 0 0 .142-.64.51.51 0 0 0-.2-.261.077.077 0 0 1-.02-.115.233.233 0 0 0 .044-.13.91.91 0 0 0-.06-.294.49.49 0 0 1 0-.168c.016-.078-.086-.126-.086-.126s.077-.082 0-.246-.6-.215-.6-.215.077-.335-.345-.5c-.341-.13-.613.4-.706.617a.124.124 0 0 1-.142.067.08.08 0 0 1-.053-.13l.28-.3a.112.112 0 0 0-.041-.179l-.032-.015.016-.007a.236.236 0 0 0 .146-.3v-.001a.237.237 0 0 0-.142-.145l-.058-.023a.273.273 0 0 1-.138-.126l-.044-.089a.282.282 0 0 0-.268-.145 1.46 1.46 0 0 0-.894.412c-.511.469-.869 2.523-.93 2.928a.25.25 0 0 1-.06.127c-.053.063-.143.167-.268.305a3.734 3.734 0 0 1-1.708 1.027 17.7 17.7 0 0 1-2.3.126 6.69 6.69 0 0 1-2.347-.405c-.538-.314-.997-1.946-1.61-2.552a3.39 3.39 0 0 0-1.559-.811 1.1 1.1 0 0 0-.341-.015.076.076 0 0 1-.077-.112 1.04 1.04 0 0 0 .073-.138c.008-.048-.069-.167-.069-.167l-.138-.112-.057-.078-.155-.048-.028-.019a.072.072 0 0 0-.1.037l-.045.131s-.1-.2-.167-.168c-.109.056 0 .35 0 .35s-.2-.335-.312-.283c-.2.09.04.521.04.521s-.15-.264-.255-.223c-.053.018 0 .35 0 .35s-.109-.038-.15-.019.045.279.045.279H4.31a.082.082 0 0 0-.077.052l-.016.045-.073.059a.212.212 0 0 0-.073.2l.016.086-.021.089.009.1a1.8 1.8 0 0 0-.313.294.83.83 0 0 0-.118.457.415.415 0 0 1 .179-.119l.191-.1a.664.664 0 0 1 .381-.067.5.5 0 0 0 .065 0h.175a1.27 1.27 0 0 0-.1.361.574.574 0 0 0 .669.566.536.536 0 0 0 .39-.257A6.98 6.98 0 0 0 4.952 8.8a4.64 4.64 0 0 0 .921 3.318C7.035 13.6 8.781 13.971 9.2 14.272s.974.923 1.364 1.131c.345.186.845.729 1.393 1.15a3.7 3.7 0 0 0 .642.431 11.8 11.8 0 0 1-.662 2.065.278.278 0 0 1-.285.156 5.75 5.75 0 0 0-.836-.022 2.26 2.26 0 0 0-.54.167c-.041.015-.024.067.016.067.191 0 .483 0 .593.011 0 0 .219.067.223.067-.032 0-.3.008-.345.012a7.26 7.26 0 0 0-1.218.186.036.036 0 0 0 .008.07c.2.019.585.056.755.082.256.041.362.164.63.212a1.7 1.7 0 0 1-.309.164c-.13.03-.312.335-.422.536-.016.029.02.063.057.048.227-.119.731-.387.792-.409a5.56 5.56 0 0 1 1.27-.376c.029-.007.078-.019.159-.145.219.03.463.071.662.108a1.6 1.6 0 0 1-.309.163c-.13.03-.3.324-.418.529a.039.039 0 0 0 .057.048c.2-.115.572-.335.735-.42a6.96 6.96 0 0 1 1.319-.354c.033-.007.094-.026.2-.216a.29.29 0 0 1 .171-.137 1.77 1.77 0 0 1 .426-.108c.09.1.382.1.512.093h.085a.025.025 0 0 0 .02-.041l-.056-.059c0-.008-.143-.153-.248-.253a1.47 1.47 0 0 0-.646-.1c.094-.253.207-.577.333-1.012.118-.372.224-.748.309-1.075a2.083 2.083 0 0 0 1.027-1.112 2.957 2.957 0 0 0 1.218-2 8.47 8.47 0 0 0-.58-2.392 3.86 3.86 0 0 0 1.266-.4 2.678 2.678 0 0 0 .845-1.715 8.3 8.3 0 0 0 .049-1.034.218.218 0 0 1 .122-.175.7.7 0 0 0 .146-.085A2.7 2.7 0 0 1 20.243 8a.067.067 0 0 0 .053-.1.88.88 0 0 0-.207-.205l-.236-.156a.064.064 0 0 1 .033-.113M14.2 19.041c-.04.09-.2.09-.308.082a5.1 5.1 0 0 0-.861-.022 3.3 3.3 0 0 0-.333.048c.089-.245.585-1.856.682-2.221a4.54 4.54 0 0 0 .755-.457c.285-.264.309-.395.309-.395a1.39 1.39 0 0 0 .451.8 12.6 12.6 0 0 1-.695 2.165"/></svg>