<svg xmlns="http://www.w3.org/2000/svg" viewBox="0 0 24 24"><path fill="#44739e" d="M11.706 14.87h.003v.177h-.003Zm.021-.846-.016.845.371-.085.11.149-.485.11-.03 1.569 1.331 1.905.295.084h.146l1.25-.453-.043-.185Zm.122 2.24 1.1-.269.116.142-1.116.268Zm1.079 1.602-.145-.168 1.21-.361.152.185Zm-3.851-4.641 1.547 1.992.054-2.385-1.583.161Zm1.583.386v.182l-.519.103-.152-.176Zm-1.388.035-.207-.203-1.865.203v.214Zm1.557-6.886v-.575l-1.764-.481-1.655.128v.525Zm-.048.812.013-.652-3.399-.397.003.635Zm.013.115-3.399-.361-.036.663 3.435.38Zm-.023.776L7.359 8.14v.756l3.412.234Zm-1.942 3.535-1.519.061v.671l1.519-.106Zm.043-.82-1.562.042v.726l1.562-.055Zm-1.562-.747h1.518v.66H7.31ZM8.9 9.62l-1.59-.019v.673h1.562Zm1.823 2.951.11-2.993v-.347l-3.52-.256v.505l1.65.046-.055 3.16-1.65.11v.291l3.451-.33ZM9.112 9.726l1.561.061-.089 2.793-1.513.096Zm-5.21 1.881 1.266.134.015-.777-1.281-.104Zm0-.862 1.281.112.012-.679-1.289-.056ZM3.89 7.007h-.14l-.11 5.016 1.87.209v-.339l.08-4.984Zm1.43 2.658-.625-.027.019-1.036h.621Zm-1.466-.062.016-1.001h.619l-.014 1.027Zm1.48-1.276-.619.02.018-1.028.615-.035Zm-.833-.99-.013 1.021-.619.015.015-1.005Zm-.684 4.4.028-1.76 1.466.064-.021 1.829Zm2.22-4.859-.065 5.434.295.035.111-5.491ZM3.26 12.023l.065-4.971-.208.01-.085 4.936Zm-.122.956.713.079.009-.32-.715-.084Zm1.849.254.713.079.009-.32-.714-.083Zm1.339-7.199v-.621l-3.123.374v.567Zm.881-.688-.007.345 3.783-.345-.321 13.052-3.699-1.119Zl-.276.032-.257 12.269 4.395 1.327v-.453l.275-13.662Zm11.817-1.561-.68 18.126v.167l3.08-2.04v.01l.303-.235.652-14.316-3.355-2.433Zm2.42 15.73-2.698 1.743.624-17.246 2.64 1.737ZM2.87 5.346v.352l-.042 2.719L1 9.143v.358l.043.031h.177l1.604-.623v.084l-.523.183h.519v.11H2.1l-.777.274v.261l1.489.05v.11l-1.486-.042v.603l1.476.066v.142l-1.474-.09v.593l1.464.125v.11l-1.463-.11v.616l1.452.159v.11l-1.451-.174v.66l1.418.208.022.008-.073 3.944 14.981 5.002.536.167.679-19.014Zm3.467 8.25-3.41-.481.011-.634 3.41.453Zm-3.3-6.637.373-.029-.088 5.206.201.022-.572-.062Zm.516 5.203.131-5.253 1.994-.155-.083 5.634Zm2.814.312-.485-.054.057-5.686.557-.043Zm.156-7.247L6.5 6.234l-3.462.362.016-.922ZM2.926 13.34l3.41.505-.087 3.857.209.066-3.588-1.127Zm14.772 7.966-11.157-3.51.263-12.605 4.925-.636-.199.025-.324 14.683.28.088.363-14.811 6.436-.831Zm1.571-19.384L1.959 4.741v.538l17.166-2.484 3.731 2.702L23 5.43v-.521Zm-1.894 13.912.043-.006a.11.11 0 0 1 .047.011c.012 0 .025 0 .021-.015l-.016-.043a.032.032 0 0 0-.024-.021.024.024 0 0 1-.019-.03.07.07 0 0 1 .011-.024.165.165 0 0 0 .035-.145.117.117 0 0 0-.048-.06.018.018 0 0 1 0-.026.055.055 0 0 0 .01-.03.18.18 0 0 0-.014-.067.13.13 0 0 1 0-.038c0-.018-.02-.029-.02-.029s.019-.019 0-.056-.142-.048-.142-.048.018-.077-.082-.11c-.082-.03-.146.091-.169.14a.029.029 0 0 1-.033.016.019.019 0 0 1-.013-.03l.067-.068a.025.025 0 0 0-.01-.041h-.007a.053.053 0 0 0 .034-.068.054.054 0 0 0-.034-.033h-.013a.06.06 0 0 1-.033-.029l-.009-.019a.066.066 0 0 0-.064-.033.354.354 0 0 0-.214.093 1.73 1.73 0 0 0-.22.667.047.047 0 0 1-.014.028l-.064.071a.89.89 0 0 1-.406.233 4.3 4.3 0 0 1-.55.028 1.65 1.65 0 0 1-.558-.092c-.128-.071-.237-.44-.383-.581a.825.825 0 0 0-.371-.185.28.28 0 0 0-.081 0 .017.017 0 0 1-.018-.025l.018-.032c0-.011-.017-.037-.017-.037l-.033-.025-.013-.019-.037-.011h-.007a.018.018 0 0 0-.024.008l-.011.029s-.023-.045-.04-.037 0 .079 0 .079-.048-.076-.074-.065c-.048.021.01.119.01.119s-.036-.059-.061-.051 0 .08 0 .08a.08.08 0 0 0-.035 0c-.01 0 .011.062.011.062h-.03a.018.018 0 0 0-.018.012v.01l-.017.015a.05.05 0 0 0-.018.045v.019l-.005.021v.022a.42.42 0 0 0-.074.066.18.18 0 0 0-.029.11.1.1 0 0 1 .043-.027l.045-.022a.173.173 0 0 1 .092-.014h.056a.3.3 0 0 0-.023.082.135.135 0 0 0 .159.129.132.132 0 0 0 .094-.059 1.54 1.54 0 0 0-.154.499 1.025 1.025 0 0 0 .22.755 2.06 2.06 0 0 0 .792.492c.101.067.232.21.324.258s.201.166.33.261a.88.88 0 0 0 .153.098 2.64 2.64 0 0 1-.157.471.066.066 0 0 1-.067.035 1.4 1.4 0 0 0-.2 0 .6.6 0 0 0-.128.039c-.01 0 0 .015 0 .015h.142l.052.016h-.082a1.9 1.9 0 0 0-.289.042.008.008 0 0 0 0 .016c.048 0 .138.013.179.019.06.009.086.037.15.048a.33.33 0 0 1-.074.037c-.031.007-.074.076-.1.122 0 .007 0 .015.013.011.054-.027.174-.088.189-.093a1.34 1.34 0 0 1 .302-.085c.006 0 .018 0 .038-.034.052.008.11.017.157.025a.5.5 0 0 1-.073.038c-.031.006-.073.074-.099.12 0 .006 0 .015.013.011.046-.027.136-.076.175-.096a1.7 1.7 0 0 1 .313-.08c.008 0 .022 0 .049-.05a.066.066 0 0 1 .04-.031.5.5 0 0 1 .102-.025c.02.022.091.022.122.022h.02a.007.007 0 0 0 .005-.01l-.014-.013s-.033-.034-.059-.057a.35.35 0 0 0-.154-.022c.022-.058.05-.132.08-.231s.052-.171.073-.244a.482.482 0 0 0 .244-.254.667.667 0 0 0 .29-.454 1.87 1.87 0 0 0-.138-.55.97.97 0 0 0 .302-.091.594.594 0 0 0 .2-.39 1.8 1.8 0 0 0 .012-.236.048.048 0 0 1 .029-.039.2.2 0 0 0 .035-.02.7.7 0 0 1 .121-.03.015.015 0 0 0 .012-.023.18.18 0 0 0-.05-.046l-.056-.035a.028.028 0 0 1 .015-.055m-1.353 2.645c-.01.02-.049.02-.073.019a1.4 1.4 0 0 0-.206 0c-.016 0-.064.006-.079.011.022-.056.14-.423.163-.505a1.1 1.1 0 0 0 .179-.105c.068-.06.074-.09.074-.09a.312.312 0 0 0 .11.182 2.7 2.7 0 0 1-.168.488"/></svg>