<svg xmlns="http://www.w3.org/2000/svg" fill="#44739e" viewBox="0 0 24 24"><path d="M18.261 20.1c.1 0 .053.044 0 .071l-.149.194-.309.361v-.379a.263.263 0 0 0-.185.106.42.42 0 0 0 0 .211v.388c-.071-.194 0-.4-.079-.591h-.062v.794h-.053v-.9c-.123 0-.167 0-.167.105v.556h-.185v.158h-.053v-.528a.165.165 0 0 1 0 .07l-.08.044v-.56l-.1.317-.044-.194v-.061l-.061.731v-.758h-.053v.882h-.041l-.04-.717h-.41l-.1.758h-.061l-.088-.767-.08.5-.07-.881v1.119h-.041l-.089-.537v.608h-.052v-.943h-.124v.96a.32.32 0 0 1 0 .1h-.044a4.1 4.1 0 0 1-.062-.467v-.96c0-.08 0-.115-.123-.115l-.088 1.34h-.123v-1.163h-.053v1.3h-.062v-.494h-.044v.542l-.053-1.331-.15 1.146-.053-.615h-.061l-.08.775c-.044-.176-.1-.335-.123-.493a4.5 4.5 0 0 1 0-.494h-.053v.512h-.044l-.062-.714h-.053v.961H13.9v-.74h-.053v.793h-.053v-1.183h-.054V21h-.053c-.123-.211 0-.458-.1-.67v.8h-.067v-1.11h-.053v.247a2.6 2.6 0 0 1-.088.361 5.3 5.3 0 0 0 0 .538.17.17 0 0 1 0 .114v-.352h-.044l-.079.193v.115h-.221v.044h-.009a.9.9 0 0 1 .221 0 .37.37 0 0 1 .132 0l.053.053h-.273c.088.053.229 0 .282.115h-.371l.124.1.247.089h-.159l.088.158c-.238 0-.3 0-.317-.114a.8.8 0 0 1-.062.123.33.33 0 0 1-.07.088l-.044-.255-.053.264-.053-.282-.1.282-.132-.37v.114l-.062.256v-.238h-.053l-.07.212v-.133l-.071.141-.044-.211v.2l-.141-.238-.141.264v-.106l-.053.106-.062-.3v.1l-.052.177v-.221h-.062c0-.158-.176-.07-.247-.141l.088-.053h-.141l.282-.044h-.21l.176-.044-.229-.044-.547.194-.193-.079h.237l-.387-.062h.3c0-.053 0-.053.159-.07-.132 0-.256-.106-.4 0v-.133l-.044.185-.062-.132v-.96h-.132v.546h-.048l-.1-.714h-.05v.987h-.071c-.194-.273-.061-.59-.141-.881v.458l-.088-.308v.37l-.159-.088v.493H9.66V19.97h-.08v.881l-.08-.758v.071l-.053.987a.44.44 0 0 1-.053.088s-.07-.044-.079-.07a1.27 1.27 0 0 1 0-.247v-1.137l-.087 1.375h-.062v-1.3H9.1l-.229.882-.071-.772v1.3h-.048l-.088-.881-.1.644v-.142l-.088-1v.555h-.42v-.635H8v1.146l-.071-.7-.343.908h-.041v-1h-.062v.476l-.106-.723v.617l-.077-.618h-.134v.883a.4.4 0 0 1 0 .071h-.044v-.353H6.91v.661h-.044a2.4 2.4 0 0 1 0-.238v-.381a.09.09 0 0 0-.044-.07h-.071v.07c0 .053-.052.1-.052.141v.582a.54.54 0 0 1 0-.114V20.6a.31.31 0 0 0 0-.1l-.08.176v-.229l-.079.326-.053-.062c-.053.071 0 .176-.123.238a.633.633 0 0 0-.053-.317.65.65 0 0 1 0-.088c0-.212 0-.212-.238-.274a1.7 1.7 0 0 1-.317-.105l.555.1a.33.33 0 0 0-.106-.062q-.278-.066-.546-.159l.625.115c-.07-.1-.246-.062-.352-.141l.326.044.062-.22V20h.713l-.951-.238.7.089-.45-.141s-.123 0-.07-.071h-.11c-.247-.07-.493-.123-.74-.185v-.044h.2l.881.167a.23.23 0 0 0 .132 0l-.211-.061h.276c-.388-.141-.811-.177-1.181-.335l.617.114-.168-.061h.168l-.741-.353 1.516.256-.555-.185.643.114-1-.255 1.075.176v-.057l-1.1-.282.679.123-.467-.114a.131.131 0 0 1-.133-.15l.52.088-.678-.211.308.044h.238a1.37 1.37 0 0 0 .256 0h-.041a.075.075 0 0 1 0-.062.053.053 0 0 1 .061 0 1.3 1.3 0 0 1 .177 0v.134c.3-.044.132.15.2.247l.291-.388-.132.317.423-.59-.079.3a3.1 3.1 0 0 0 .211-.265c0-.053.071-.088.15-.053l-.159.556.15-.247v.185c0 .062-.061.141.071.167s0 .062.061.132l.168-.334.07.07.106-.114.053.132.22-.326-.079.643.141-.335c.132.115.044.247.106.37a1.05 1.05 0 0 1 .106-.352c.044-.115.088-.212.132-.326a1.72 1.72 0 0 1-.044.458h.053c.1-.264.22-.529.3-.793a1.4 1.4 0 0 0 0-.388c.071.238-.088.441-.158.661 0 0-.08.062-.124.088s0-.194 0-.291a1.34 1.34 0 0 0-.053-.185l-.22.3.1-.661-.335.758-.055-.136-.123.141v-.335h-.062l-.185.149.167-.66-.155.305-.162.3h-.114l.211-.617a.255.255 0 0 0-.114.07l-.344.406a.45.45 0 0 1-.106.044 2.53 2.53 0 0 1 .071-.476l.061-.071v-.193l-.079.061-.247-.361c.194 0 .238.114.37.194l-.047-.136c.159 0 .185 0 .3.211a.169.169 0 0 0 .185-.2 1.1 1.1 0 0 1 0-.334l.211.564.08-.432.185.2.062-.431.141.449-.064-.583.194.661v-.088l.2.124v-.291l.22.273h.044l.115-.811.264.652c-.044-.176-.1-.352-.132-.528a1.7 1.7 0 0 1 0-.2l.273.714v-.309l.15.185c.114-.246-.079-.432-.071-.661.071.124.115.238.185.344s.062.053.089.071a.23.23 0 0 0 0-.1 1.28 1.28 0 0 0-.071-.274c.159.159.15.379.388.476.1-.194-.071-.361-.079-.555l.176.229V16.1l.335.379v-.123l.114.061-.185-.634.159.185v-.141l.114-.212.467.661-.211-.564a.225.225 0 0 1 .256.044c.061.044.2.256.317.388.106-.123 0-.2-.044-.282l-.159-.291.1.053.2-.115.37.265h.053a.56.56 0 0 0-.044-.176c-.071-.124-.159-.247-.221-.379l.168.114-.053-.176.529.458-.353-.484c.273.105.406.326.635.493 0-.238-.2-.37-.273-.564l.273.256c.044-.23-.194-.353-.2-.564l.608.546a.38.38 0 0 0-.053-.079c-.07-.1-.15-.185-.22-.274a.28.28 0 0 1-.044-.07 2.6 2.6 0 0 1-.062-.273l.573.423-.194-.265.414.2-.123-.211.22.1c-.053-.256-.3-.388-.44-.582.079 0 .149-.071.238 0l.246.158.177-.326.414.265-.088.044 1.9-.423-.882.229.934-.159-1.031.265h.141l-.4.114.5-.1-.15.062.485-.1-1.322.353v.051l1.19-.265v.044l-.811.256h.211l-.22.088.626-.132-.265.079.626-.132-.819.229 1.163-.194-.238.08h.15l-1.128.334c.326 0 .617-.114.934-.123l-.67.176.3-.044-.309.1.423-.079-.343.1 1.048-.132-.881.264 1.066-.194-.705.185.67-.141-1.19 1.04v.079l1.437-.264-1.833.467h.106a3.8 3.8 0 0 1 .449-.088s.132-.079.141 0h.132l.7-.15h.124l-.1.071.423-.053-.414.123.528-.106-.44.124.343-.053-.7.185.882-.15-1.428.7h.15a1.7 1.7 0 0 1 0 .283.093.093 0 0 1-.062.088 1.8 1.8 0 0 1-.167.061l-.133-.335v.159l-.114-.07.07.467-.167-.415v.194l-.106-.211-.053.361-.22-.176v.344l-.247-.5.088.608-.132-.343v.229c-.123 0-.123-.044-.15-.1a.95.95 0 0 0-.079-.168c-.159.124 0 .265-.088.388l-.115-.229-.158.241a2.4 2.4 0 0 0-.088-.238.9.9 0 0 0-.089-.106.36.36 0 0 0 0 .123v.291l-.1.141-.194-.731.07.7-.167-.67v.37l-.229-.431c0 .246.079.475-.062.713l-.115-.308-.1.053-.1-.2v.414l-.106-.44-.08.537c-.1-.053-.193-.088-.238.062L12.5 18l-.08.176c-.037-.057-.073-.116-.1-.176a1.26 1.26 0 0 0-.089-.2.5.5 0 0 1 0 .2c0 .053-.088.088-.158.15l-.088-.5v.582a1.31 1.31 0 0 0 0 .529.44.44 0 0 1 0 .114c.123-.1.246-.194.193-.361l.106.634v-.308l.053-.062.062.053c.053.106.1.212.158.326L12.7 19l.1.115c.141-.256 0-.511.08-.758l.123.582v-.652l.1.3.079-.07.1.061v-.246l.079.176v-.2c.186.177.141.4.256.608l.062-.149.1.211v-.555l.149.546h.045v-.238l.1.159-.052-.573c.1.141.061.335.22.467v-.405l.159.52a.28.28 0 0 0 .052-.115 2.2 2.2 0 0 0 0-.255 2.2 2.2 0 0 1 0-.23l.186.591v-.49l.687.476v-.7l.185.546v-.361l.106.044v-.2l.132.291v-.414l.159.361-.08-.5c.168.247.247.538.423.811.044-.088 0-.22.194-.194l-.061.071 1.1-.238-1.181.352c.062.079.141.071.229.044l.67-.141h.132l-.6.168.811-.124-.467.168.546-.106-.722.185.6-.123-.6.158.555-.114-.212.079.758-.159-.881.238.379-.061-.679.2.961-.1-.67.185a4.83 4.83 0 0 1 .943-.114l-.82.273v.159l.538-.08v.15l.723-.141c-.124.106-.335.1-.476.194l.476-.1-.547.194-.414.1v.053zm-8.09-1.762v-.565c-.291.1-.123-.141-.238-.193l-.1.423v-.362l-.1.37v-.3c-.062.185-.114.379-.167.564v.485l.185-.362v.547l.194-.556v.556h.07a.54.54 0 0 0 .079-.159 2.08 2.08 0 0 1 .106-.432l.071.6h.044l.088-.555.053.221.079-.141.115.7a.46.46 0 0 0 .079-.194 1.9 1.9 0 0 1 .07-.194.1.1 0 0 0 .08-.053c.026-.053.053.044.061.071a.55.55 0 0 0 .045.2l.061-.643c.159.211.088.467.168.7a.31.31 0 0 0 0-.114.161.161 0 0 1 .053-.15.764.764 0 0 0 .176-.406l.07-.1h.053l-.15-.661h-.044v.665c-.105-.22 0-.475-.185-.7-.088.229 0 .467-.167.67l-.053-.4-.141.5-.123-.7-.124.405h-.053v-.441l-.079.511v-.282a.69.69 0 0 0-.071.212.41.41 0 0 0-.211.282zm3.529-2.281.335.132a.168.168 0 0 1 .141.15 1.1 1.1 0 0 0 .053.282 2.7 2.7 0 0 1 .282-.212.41.41 0 0 1 .185-.044 3.8 3.8 0 0 1 .379.044c-.07-.105-.115-.193-.176-.273a.113.113 0 0 1 0-.158c.061-.071.106-.159.185-.265-.132.006-.265.006-.4 0a.23.23 0 0 1-.167 0c-.1-.061-.176-.141-.282-.22a2.2 2.2 0 0 0-.062.3.132.132 0 0 1-.115.123zm-1.921 2.124a.608.608 0 0 0 .009.7c0-.229.132-.449-.053-.67zm5.217 1.648.5-.062v-.15zm-6.248.987h.152c0-.167 0-.185-.185-.176zm6.469-.767v.273c.185 0 .088-.123.088-.193l-.044.052zm.475-.2v.361a.28.28 0 0 0-.044-.335Zm-11.637.271a.2.2 0 0 0 .262.083l.02-.013zm4.01-10.743-.079.229.555-.467-.379.52.538-.432-.379.581.326-.141-.106.177.256-.168.1.388.441-.335-.3.564.4-.229a.28.28 0 0 0-.053.106.29.29 0 0 0 .053.106l.441-.353-.185.335h.088v.185l.264-.2-.4.494.141.1.784-.5c0 .23-.273.371-.37.6l.476-.309-.115.212.353-.185-.485.617.441-.415-.08.159.291-.256.106-.044a.147.147 0 0 1 0 .088 2.6 2.6 0 0 0-.088.3l.238-.211h.1a.5.5 0 0 1 0 .079 1.03 1.03 0 0 1-.08.176l-.326.45.529-.529c0 .22-.2.344-.255.537.185-.1.255-.29.5-.361l-.317.6.3-.29-.176.308c.176 0 .247-.123.361-.185l-.123.264c.247 0 .326-.264.59-.211a.249.249 0 0 1-.211.264c.106.106-.079.071-.079.132h.22c-.079.212-.335.212-.529.291l.3-.053a.465.465 0 0 1 .308 0 .335.335 0 0 0 .141 0h.406a.59.59 0 0 1-.459.053l.062.08c-.141 0-.247-.168-.405 0l.405.29h-.19c-.079.08 0 .133 0 .23-.238 0-.379-.212-.617-.282l.432.387-.273-.132.476.608H14.3l.186.2-.714-.317.22.229-.194-.088c0 .176.238.273.238.44l-.485-.255.141.185-.423-.3.106.168-.229-.133c0 .212.194.318.256.485l-.23-.132-.2-.15.2.379-.264-.194.291.406h-.053l-.273-.2.335.432c-.062.053-.1.061-.159 0l-.5-.273-.185-.124h-.044a.54.54 0 0 0 .052.176 4.3 4.3 0 0 1 .282.415l-.132-.08.115.238-.379-.37h-.044l.123.529-.546-.476a.33.33 0 0 0 0 .132 4.5 4.5 0 0 1 .185.476l-.291-.317.176.344-.485-.635.23.5h-.053l-.177-.176.15.326a2.8 2.8 0 0 0-.2-.255c-.062-.071-.071-.2-.256-.185l.062.22-.185-.071a1.05 1.05 0 0 0 0 .177.22.22 0 0 0 .044.158l-.282-.123c0 .132-.124.238-.062.37s0 .088-.123.1-.212 0-.247-.132a.235.235 0 0 0-.124-.124l.106.388-.273-.537.106.414-.132-.212-.044.247-.177-.335H9.58a4.05 4.05 0 0 0 .071.555h-.009l-.242-.557.106.555c-.282-.15-.3-.4-.441-.608v.309l-.1-.124-.053.185-.237-.414v.8l-.175-.562-.132.053-.092-.231v.335l-.07-.141-.141.343a.4.4 0 0 1-.089-.07l-.076-.174c0-.045-.079-.106 0-.115l-.123-.062.053-.044h.22l-1.322-.22-.062-.141 1.12.141c.141 0 .282.088.423 0l-.829-.176a7.9 7.9 0 0 0 .881.088l-.352-.106h.176l-.985-.247a7 7 0 0 1 .709.089l-.767-.194c.335 0 .644.124.97.141l-.661-.211.978.185-.529-.177h.1l-.864-.45.282.044-.185-.061.379.053v-.089l1.014.141-.626-.149-.608-.159v-.044l1.463.282v-.044L7.3 13.924l.793.15L8.021 14l.705.123v-.044l-1.349-.485.881.168-.114-.08h.238L8 13.589h.255l-.819-.247 1.392.256-1.248-.344.828.133-.414-.115h.264l-.537-.132h.485l-.547-.168 1.058.2-.379-.115c-.08 0-.194 0-.229-.114s-.115-.044-.177-.062l-.2-.062.837.159-.52-.141 1.225.238-.3-.114h.265l-.469-.121h.088l-.6-.573h.265l-.7-.185.625.115-.828-.2 1.022.2-.625-.159.334.044-.669-.211 1.269.211-1.031-.291.881.159-.084-.05.176-.053-.925-.229c.123-.1.229 0 .343 0l-.255-.079h.114c.335-.141.617 0 .926 0l-.582-.139h.273l-.15-.071.952.185-1.207-.4.978.167-.643-.211.661.123c-.221-.088-.459-.114-.67-.2v-.044l.925.15-1.375-.361v-.048l.882.158-.5-.167h.3l-.2-.062.582.106-.881-.238v-.044l1.436.282v-.044l-1.53-.361a5.96 5.96 0 0 1 1.057.114l-.67-.167.785.15-.573-.177.6.053v-.044l-.388-.115h.212L8.875 10c.3-.079.547.088.838 0L9.4 9.9l.432.062Zm-.379 2.644c.132.052.256.1.362.149a.166.166 0 0 1 .1.106 2.3 2.3 0 0 1 .071.335l.264-.238a.231.231 0 0 1 .2-.053.98.98 0 0 1 .379.053 1.87 1.87 0 0 0-.176-.264c-.053-.062 0-.106 0-.168l.176-.264-.4.053a.27.27 0 0 1-.15-.044l-.256-.23a.94.94 0 0 0-.044.2c0 .132-.07.2-.22.247a2.7 2.7 0 0 0-.3.132zm.8-3.649h.15l-.247.361c.318-.061.476-.291.749-.405l-.264.3.388-.237V8.6h.238v.1l.176-.062-.476.626.088-.044.45-.4c.053-.044.1-.105.194 0l-.5.564a.164.164 0 0 1-.062.124h.053l.467-.406v.2l.177-.1-.362.432.432-.256-.255.335a1.92 1.92 0 0 0 .74-.467l-.538.617a1.87 1.87 0 0 1 .608-.4c0 .264-.308.4-.387.608l.105.061.732-.581c-.123.229-.379.4-.45.678l.282-.247a2.9 2.9 0 0 1 .283-.193l-.177.273h.15a.47.47 0 0 1 0 .106c-.044.07-.106.141-.159.211a.47.47 0 0 0 0 .106l.547-.414.062.123.634-.22-.617.123 1.243-.326v-.042l-1.357.256 1.11-.282-.881.185c0-.141.185-.15.3-.177l.882-.229-.882.194.423-.158-.361.052.1-.061-.432.079.344-.141-.291.044.89-.308-.828.176.114-.053h-.079l.088-.079-.59.114 1.339-.467-1.04.176.529-.141-.828.168.74-.229-.5.053.572-.159H13.8l.388-.115-.3.053.793-.2-.714.149.318-.105-1.232.276 1.454-.388h-.159l.159-.062a3.73 3.73 0 0 0-.961-.308l.362-.1-.362.035.494-.132h-.194l.388-.114-.476.1.546-.149v-.139l-1.472.327.186.29a.86.86 0 0 1-.371-.053.212.212 0 0 0-.2.053c-.08.071-.177.133-.274.212a1.7 1.7 0 0 1 0-.265.192.192 0 0 0-.158-.176c-.1 0-.194-.079-.317-.123.132-.053.255-.1.361-.15a.151.151 0 0 0 .1-.1 2.3 2.3 0 0 0 .07-.326c.106.088.194.15.265.22a.2.2 0 0 0 .176-.035h.617l.379-.15-.326.062.352-.1h-.1l.6-.167v-.039l-1 .186.432-.177-.661.132a1.26 1.26 0 0 1 .273-.1c.071 0 .2 0 .212-.062s.176-.088.264-.132l.132-.053h-.291l.353-.282-1.287.167 1.216-.317-.458.088.079-.079h-.387l.449-.132-1.04.185.194-.185v-.041l.67-.237-.432.079.238-.115c.07 0 .194 0 .22-.141h-.326l.044.08c-.229-.1-.423 0-.652 0l.2.255-.353-.22c.075.1.154.186.238.273v.071h-.088c-.062 0-.114-.089-.167-.124l-.247-.176.379.449h-.106l-.453-.315.3.441h-.044l-.07.15-.476-.362.308.441a.23.23 0 0 1-.114-.053l-.1-.053.088.212c-.3-.062-.335-.291-.529-.415a1.333 1.333 0 0 1 .194.653c-.132-.1-.2-.212-.388-.23l.079.221-.185-.126v.2l-.2-.044v.141l-.379-.1c.22.1.476.115.714.194l-.044.079-.591-.029.67.176a1 1 0 0 1-.309 0A1.86 1.86 0 0 0 10 7.6h-.208l.3.1h.208l.15-.044-.353.3.318.114-.133.124.353-.053-.123.123a.28.28 0 0 0-.044.088ZM12.1 5l-.317.045c0 .141.167.158.229.264l-.344-.168v.1l-.768-.218h.124l.493.088a.222.222 0 0 0 .168 0l-.406-.123h.121l-.784-.229a.57.57 0 0 1-.1-.053h.317l-.264-.08c.246 0 .467.106.713.088l-.449-.2.59.105-1.137-.264.741.141c0-.1 0-.211-.141-.255h.132l-.186-.341H11c0-.062 0-.088-.088-.106a3.9 3.9 0 0 1-.44-.106l-.106-.053.581.106-.458-.123.467.053a.322.322 0 0 0-.22-.185l-.7-.282h-.059l.837-.3a.265.265 0 0 0 .212-.2c.044-.229.114-.449.176-.7l.643.546a.209.209 0 0 0 .2.053l.978-.114a3.1 3.1 0 0 1-.352.449.389.389 0 0 0-.064.545.38.38 0 0 0 .064.063 4.1 4.1 0 0 1 .282.441l-.881-.115v.1a.1.1 0 0 0 .105.115h.547l-.767.079h.176l-.467.124.626-.106-.132.062.678-.133a2.64 2.64 0 0 1-.581.15c-.2 0-.335.141-.556.141.212.132.388 0 .582 0l-.185.062c.185 0 .344-.079.52-.062l-.573.124v.167l.309.141-.354.099.432-.08-.291.124Zm-.317-.431a.458.458 0 0 0-.423 0zm4.662 9.342L16 14l.185-.071-.5.053.353-.115h-.221l.688-.238-.511.1v-.132l-.247.044.053.106c-.115-.062-.2-.15-.265 0l-.22-.15.053.08-.238-.062.335.379-.882-.37.556.652a11.5 11.5 0 0 0 1.348-.361zm-4.882-8.527c.168 0 .23.2.423.168a.55.55 0 0 0-.255-.194c-.432-.106-.881-.185-1.313-.273h-.212l.467.123h-.1l.652.167a.37.37 0 0 1 .177.089 1.058 1.058 0 0 0 .573.361zm-.158.335c-.115-.22-.141-.247-.406-.291l-.978-.167h-.159l1.366.4-.061-.141zm3.525 4.812h-.079l-.6.088c-.079.1-.149.2-.22.3l.141-.106c0 .106.088.053.132 0a1.5 1.5 0 0 1 .159-.159.18.18 0 0 0 .114-.044l-.123.15.97-.255c-.247-.071-.432.061-.653.053l.159-.08zm-2.115-2.838 1.278-.335c-.15-.088-.291 0-.459 0l.327-.1-.7.167h-.168c-.167 0-.2.168-.273.273M10.435 8.83c-.194.115-.352.22-.52.309h-.1L9.51 9.1l.2.061-.485-.079a1.32 1.32 0 0 0 .3.1l.511.141h.044a.773.773 0 0 0 .352-.485m.968-2.52c.123-.052.123-.132 0-.193 0 0-.053-.1-.1-.106l-.388-.08.353.141h-.238c.07.071.132.115.176.168a.8.8 0 0 1 .106.167zm-.881-.158c0 .114 0 .185.194.2a.93.93 0 0 1 .22.053 1.1 1.1 0 0 1 .158.106c.018-.273-.185-.414-.564-.361Zm.458-.5-.679-.141h-.229a1.3 1.3 0 0 0 .353.141l.775.194a.239.239 0 0 0-.22-.194M16.8 18v.114h-.044L16.684 18l.07.361.3-.114C16.948 18 16.887 18 16.8 18m-9.22-2.216-.423-.084-.344-.053.881.238c0-.08 0-.08-.114-.1m1.868-6.76.159-.106-.829-.15a2.5 2.5 0 0 0 .67.256m-2.265 7.393c-.053-.088-.083-.211-.183-.255a1.67 1.67 0 0 0-.44-.1l.423.158h-.108l.291.168zM17.265 18h-.193l.061.229.318-.088zm-9.571-2.322a7.85 7.85 0 0 0-1.022-.178l1 .238zm9.157 1.507.688-.185.167-.053h-.079l-.882.185-.07.079h.194zm0 0-.079.044a.24.24 0 0 0-.062.071l.882-.238a.75.75 0 0 0-.212 0l-.52.1zm-.123-.071.106-.044.6-.158-.881.158.149.071zm1.022.141-.767.159v.079l.75-.211zm-2.141-5.94-.459.045c-.105 0-.1 0-.053.1a.75.75 0 0 0 .089.089c.088-.159.282-.141.431-.2zm-1.851-.881a.525.525 0 0 0-.265.335l.274-.256s.088-.061.105-.052a.191.191 0 0 0 .159-.053h-.291Zm2.327 7.148.088.2h.149c-.008-.264-.035-.282-.237-.2m-6.267-8.4.15-.168c-.22-.061-.238-.061-.388.071Zm4.345 1.286.758-.2-.7.15a.085.085 0 0 0-.07.052zm-4.071-2.29h.246v-.071c-.158 0-.308-.132-.484 0zm4.406 3 .406-.255c-.256.026-.362.07-.371.255zm-.432-.608.758-.185a7.7 7.7 0 0 0-.775.185zm.406 3.42.326.308c.07.062.07.062.176 0l-.493-.326zm-7.659 3.124.238.1h-.07l.114.071.159-.071-.423-.1zM12.1 5.076c.194.061.317-.088.485-.106l-.441.088h-.053a.07.07 0 0 1 .027.009zm3.208 7.13c-.123-.106-.194 0-.273 0s-.071-.053-.221.105zM9.7 8.513l-.688-.141a1.33 1.33 0 0 0 .679.141zm6.9 8.531-.256.053.2.1zM9.545 8.716l.221.052.1-.114c-.1-.071-.193-.009-.29.062Zm7.738 9.007a1.47 1.47 0 0 0 .538-.15zm-10.963.361L5.8 18a1.77 1.77 0 0 0 .511.141zm.238-.881-.459-.15.459.141zM9.6 7.667v.044l.476.062.07-.044h-.061Zm-.106.969-.467-.079a1.45 1.45 0 0 0 .458.123Zm5.6 2.644.432-.132a.93.93 0 0 0-.449.1zM10.9 6.054c-.1-.088-.255-.07-.387-.106l.4.106zm1.763-1.463-.229.053h.229zm3.448 8.809-.45.1v.044l.441-.114ZM8.893 8.3l.449.1-.458-.09Zm1.833-1.322-.194-.114c-.009.114.018.132.194.106Zm-3.032 9.475v-.246h-.123l.141.273ZM17.477 18c0 .07 0 .07.123.053l.23-.088-.344.052zM13.335 5.71a.45.45 0 0 0 .317-.053h-.317Zm-3.243 2.468h-.318c.124 0 .212.159.362.07l-.044-.048Zm4.812 3c-.133.062-.15.186-.2.282l.229-.264zm.132 2.274c.106.044.132.176.308.106-.106-.035-.158-.132-.308-.106m-8.117 3.107a.6.6 0 0 0-.353-.061l.335.088zM9.5 8.425a.55.55 0 0 0 .273 0L9.5 8.381Zm.837-2.512-.317-.062.309.071ZM10.5 8.4l-.282.168.123-.08a.8.8 0 0 0 .124-.123zm7.1 9.6h-.07v.044l.291-.079h-.247zm-.132 0 .2-.088-.282.061h.1zm-8.275.361a1.7 1.7 0 0 1-.044.458H9.2c.1-.264.221-.528.3-.793a1.4 1.4 0 0 0 0-.388c.071.238-.088.441-.159.661 0 0-.079.062-.123.089zm2.644.529c0-.22.114-.441-.071-.661a.608.608 0 0 0 .018.652zm5.155 1 .5-.062v-.15l-.512.194zm-6.09.943c0-.168 0-.185-.185-.177v.185zm6.284-.485c.185 0 .088-.123.088-.194l-.044.053-.044-.132zm.476-.115a.282.282 0 0 0 0-.361zm.6-.141-.414.1v.053l.414-.141zm-11.906.1-.282-.07a.193.193 0 0 0 .264.07zM11.4 4.6l.388-.035a.456.456 0 0 0-.388.035m-1.467 9.818v-.467l-.4.246-.388-.185.114.459-.308.361h.467l.247.4.176-.44.458-.106zM13.018 13l.264-.494-.555.088-.4-.4-.079.555-.5.247.512.247.079.555.388-.4.555.088zm-.794 3.781.1-.415-.387.177-.371-.212.053.423-.317.282.414.079.176.4.2-.379h.423zm3.261 2.256h.326l-.176-.273.123-.309-.326.088-.246-.22v.335l-.282.176.308.115.079.326zm-7.932 0h-.4l.22.335-.15.361.388-.106.3.256v-.4l.335-.211-.37-.133-.1-.387zm4.5-15.82.291-.485-.564.08-.379-.4-.106.547-.525.241.5.246.229.705.343-.572h.6"/></svg>