<svg xmlns="http://www.w3.org/2000/svg" viewBox="0 0 24 24"><path fill="#44739e" d="m15.659 10.975.077.211h.018v.043h.02v.057h.019v.038h.02l.037.116h.02v.057h.018v.039h.02v.038h.019l.038.116h.02l.057.172h.02v.039h.019v.057h.019v.039h.019l.039.115h.021v.057h.02v.039h.018l.039.115h.02v.058h.013v.038h.02l.037.116h.02v.058h.019v.037h.019l.039.116h.019l.058.173h.019v.038h.019v.058h.019v.039h.019v.038h.023l.038.11h.019v.059h.02v.038h.019l.038.11h.02v.058h.019v.039h.019l.038.11h.02v.057h.018v.039h.02v.047h.019l.038.11h.02v.057h.019v.039h.02l.038.115h.019l.02.096h.018l.039.115h.019v.058h.019l.019.077h.02l.115.307a.56.56 0 0 1-.019.249l-.039.193h-.019a.66.66 0 0 1-.33.345l.173.404h.019l.02.077h.018v.068h.02v.039h.019l.038.115h.02v.057h.019v.039h.02l.038.11h.019v.057h.024v.039h.02l.038.115h.019v.057h.02v.039h.013l.039.115h.019v.059h.019v.039h.02l.037.116h.02v.038h.019v.059h.02v.037h.027l.039.116h.019v.058h.019v.038h.02l.038.11h.019v.059h.019v.038h.02l.038.11h.019v.059h.02v.042h.018l.039.11h.02v.059h.018v.051h.02l.038.116h.017v.037h.019v.059h.02l.038.115h.019l.02.096h.018v.038h.02l.039.11h.018v.058h.019v.038h.02l.038.11h.019v.057h.02v.059h.019v.098a.52.52 0 0 1 .019.23l-.077.231h-.019l-.019.057-.039.02v.038l-.077.057-.057.077h-.038l-.02.039-.11.038v.019h-.059v.02h-.077v.018h-3.945v1.845a2.26 2.26 0 0 1-.077.88l-.038.019v.042l-.039.02v.038l-.038.019-.077.096h-.039l-.018.038h-.039l-.02.039h-.057v.019h-.038v.019h-.057v.02h-.078V23h-2.75l-.231-.077v-.019l-.054-.014-.02-.039h-.038l-.019-.038-.095-.076v-.038l-.037-.029-.02-.057h-.018l-.077-.231v-2.498H6.382a1.23 1.23 0 0 1-.44-.038v-.019l-.11-.038-.018-.039h-.049l-.077-.095-.057-.039v-.038l-.039-.02v-.039l-.038-.018v-.039h-.02l-.038-.192h-.019a.57.57 0 0 1 .019-.25l.038-.192h.02v-.038h.019l.058-.173h.019l.038-.11h.02v-.038h.02v-.058h.018v-.038h.02l.057-.174h.015v-.04h.018v-.038h.02l.039-.116h.019v-.058h.019l.038-.11h.02v-.038h.018v-.059h.029l.038-.11h.019v-.038h.02v-.058h.019l.038-.11h.02v-.039h.019v-.058h.014l.038-.116h.02v-.037h.019v-.059h.02L6.38 17h.019v-.051h.02v-.037h.018v-.058h.02l.041-.117h.02v-.038h.018v-.058h.017l.038-.115h.017v-.039h.022l.019-.095h.019l.039-.116h.019l.057-.173h.02v-.034h.018v-.057h.02v-.038h.019v-.039h.02l.038-.115h.02v-.058h.02l.095-.231h-.02v-.023h-.039v-.02h-.037l-.039-.057a.84.84 0 0 1-.211-.25v-.057h-.02v-.038h-.019v-.097h-.019a.91.91 0 0 1 .019-.33h.019v-.057h.02v-.039h.019v-.057h.018l.039-.116h.02v-.038h.018v-.054h.02v-.038h.019l.038-.116h.02v-.055h.02v-.038h.02l.018-.077h.019l.02-.077h.019v-.058h.014l.019-.077h.019v-.038h.019v-.039h.02v-.057h.019v-.038h.019l.039-.116h.019v-.058h.018v-.038h.029l.038-.115h.019l.053-.175h.019v-.039h.019v-.06h.019v-.039h.02v-.038h.019l.038-.11h.02v-.058h.02v-.041h.018l.039-.11h.02v-.058h.018v-.039h.02l.039-.115h.018v-.058h.019v-.038h.02l.039-.116h.016v-.06h.022v-.039h.019l.038-.115h.02l.057-.173h.019v-.038h.02v-.058h.018v-.039h.02v-.039h.019l.038-.115h.02v-.057h.02v-.039h.02l.057-.173h.019v-.038h.014l.077-.211a.82.82 0 0 1-.422-.308l-.039-.11h-.015l-.019-.12a.75.75 0 0 1-.02-.33h.02l.019-.135h.02l.038-.115h.019v-.039h.02v-.054h.018v-.038h.019v-.037h.02l.018-.077h.02v-.059h.019v-.038h.02l.038-.116h.02v-.058h.02v-.037h.019l.038-.116h.019V9.13h.014v-.039h.019l.038-.11h.02v-.063h.019V8.88h.02l.038-.11h.019v-.063h.02v-.038h.027V8.63h.02l.037-.11h.02v-.062h.019v-.039h.014l.039-.11h.018v-.063h.02v-.038h.019l.038-.116h.02v-.054h.019v-.041h.019l.038-.116h.02l.058-.173h.022V7.67h.019v-.057h.02v-.039h.016v-.038h.02l.037-.11h.02v-.063h.019l.038-.11h.02v-.044h.019v-.057h.02l.038-.116h.019v-.038h.02v-.06h.018l.039-.11h.019v-.042h.019v-.057h.02v-.038h.02l.057-.173h.02l.038-.11h.019v-.044h.019v-.038h.02v-.058h.018V6.23h.02l.039-.116h.018l.02-.845-.077-.058v-.033l-.059-.044v-.038l-.076-.058V5l-.039-.019-.019-.058-.077-.057v-.039l-.058-.038V4.75l-.057-.038v-.039l-.077-.057v-.039l-.038-.019-.02-.058-.076-.057v-.035l-.039-.02-.019-.057-.077-.057v-.042L8.8 4.193v-.038l-.077-.058v-.039h-.018l-.039-.11h-.02v-.063h-.018v-.077h-.02a.7.7 0 0 1 .058-.402l.019-.098h.02l.018-.057.039-.019v-.034l.077-.058.019-.039h.038l.039-.057h.038v-.023l.116-.038v-.019h.077v-.019h.057v-.02H9.3c.289-.103.63-.185.922-.288l.33-.077v-.022l.057-.039v-.035l.039-.019.019-.058h.011v-.038l.039-.019v-.039l.038-.019v-.038l.039-.02v-.038h.019l.019-.057.043-.021V2.06l.039-.018v-.039l.057-.038v-.039l.038-.019.019-.058h.02v-.038l.038-.019v-.039l.039-.018v-.039l.038-.02v-.038l.039-.019v-.038h.019l.019-.059.039-.018v-.039l.059-.038v-.039l.039-.019v-.041l.038-.02v-.035l.039-.019.077-.096h.037l.02-.038h.039l.018-.039h.039v-.02l.115-.018v-.02h.089a.484.484 0 0 1 .212-.019.893.893 0 0 1 .519.33v.039l.038.018v.036l.058.038v.039l.038.018v.039l.039.02.018.057h.02v.038l.039.02v.039l.038.018v.039l.039.019v.038l.038.02v.038l.039.019v.039l.057.038v.039l.038.018v.038l.039.02v.038l.038.019v.038l.039.02v.037l.038.02v.039l.038.018v.039l.038.02v.038l.039.019v.039l.058.038v.02h.057v.02h.058v.018l.135.02v.019l.134.02v.018h.077v.02l.268.057v.019l.136.02v.019l.134.019v.019l.134.02v.019h.061v.019h.058v.019h.077v.02h.057v.019l.11.019v.019l.077.019v.02h.039l.037.057h.039l.058.077h.019v.038l.058.039v.038h.031l.038.116h.019v.057h.02v.077h.019a.88.88 0 0 1-.135.576l-.057.039v.038l-.058.039v.038l-.076.058v.038l-.039.019-.019.058-.077.057v.039l-.039.019-.019.058-.077.057v.039l-.038.019-.019.058-.077.057v.038l-.058.039v.035l-.057.039v.038l-.077.057v.042l-.058.039v.038l-.077.058v.403c.068.084-.023.33.019.44h.02l.038.116h.019v.038h.02v.057h.019l.038.116h.018v.038h.018v.039h.02v.059h.019l.038.11h.015v.044h.02v.057h.018l.039.116h.02v.036h.018v.057h.02l.039.116h.018v.039h.019v.057h.02l.038.115h.019v.039h.02v.057h.022l.038.11h.02v.038h.019v.039h.02v.057h.013l.038.116h.019v.038h.02v.057h.018l.039.116h.02v.049h.018v.058h.02l.039.115h.019l.018.097h.02l.039.11h.018v.038h.02v.059h.019l.038.11h.02v.038h.019v.039h.02v.058h.018l.039.11h.018v.048h.02v.059h.019l.038.11h.027v.038h.019v.059h.019l.039.115h.019v.038h.014v.058h.02l.038.115h.019v.039h.02v.057h.018l.039.11h.02v.039h.018l.02.095h.019l.038.116h.019l.02.134a.716.716 0 0 1-.5.865m-4.51-5.264.635-.212a.69.69 0 0 1 .364-.038l.711.25v-.49h-.022l.018-.345h.026v-.077h.018l.039-.11h.02v-.044l.057-.039v-.038l.057-.038v-.038l.077-.059v-.038l.077-.057v-.039l.058-.038v-.039l.076-.057c.028-.036-.008-.028.039-.058-.022-.022 0-.008-.039-.019v-.02l-.134-.019V4.02h-.077v-.019l-.134-.019v-.014h-.057v-.024h-.059v-.02l-.191-.039v-.018l-.116-.039-.019-.038h-.038l-.097-.116-.062-.036v-.041l-.039-.018-.02-.059h-.018v-.037l-.058-.039v-.038l-.038-.02v-.039l-.039-.018V3.29l-.038-.02v-.037l-.039-.02v-.038l-.038-.019v-.038c-.008-.013-.025-.016-.039-.039-.022.017 0 0-.018.019-.063.04-.075.11-.116.172l-.038.02-.02.057h-.019v.039l-.038.02v.038l-.058.039v.037l-.038.02v.039l-.193.211h-.038l-.019.038h-.038v.019h-.037v.02h-.057v.018h-.038v.02l-.136.019v.02h-.057v.024h-.057v.02l-.135.018v.019h-.077v.02h-.058v.019l-.115.019v.019h.02l.018.058.077.058v.038l.058.039v.038l.077.057v.039l.077.058v.031l.058.037v.039l.057.038v.039h.019l.02.077h.018v.057h.02v.058h.019l.02.346h-.02Zm-2.058 7.213-.154.365h-.017v.059h-.022v.038h-.019l-.038.11h-.02v.058H8.8v.039h-.019l-.038.11h-.02v.066h-.018v.039h-.02v.038h-.019l-.058.173h-.02v.038a.396.396 0 0 0-.077.173.55.55 0 0 1 .25.23l.038.02.039.115h.019v.039h.019v.076a.73.73 0 0 1 .039.231h-.019v.115h-.019l-.019.11h-.019l-.02.077H8.8l-.057.173h-.02v.038h-.018v.059h-.02v.038h-.019l-.038.11h-.02v.059h-.02v.038h-.019l-.038.116h-.019v.057h-.019v.038h-.015l-.038.116h-.024v.057h-.019l-.039.115h-.019v.039H8.32v.057h-.019l-.058.173a.828.828 0 0 1 .653.346v.039h.022v.048h.019v.059h.02v.038h.016a1.12 1.12 0 0 1 0 .44h-.019v.059h-.019l-.039.115h-.019v.037l-.096.077-.076.097h-.039l-.02.039a.97.97 0 0 1-.538.095v-.019h-.057v-.019c-.047-.019-.11-.014-.154-.039l-.018-.038H7.84l-.022-.039h-.036l-.096-.115h-.019l-.077.211h-.02v.039h-.018v.038h-.02v.058h-.019v.039a1.18 1.18 0 0 0-.134.288h9.241l-.115-.288h-.019l-.02-.097h-.019v-.038h-.019l-.039-.11h-.019l-.057-.174h-.024v-.038h-.019v-.058h-.02v-.038h-.018l-.039-.116h-.014v-.063h-.019v-.038h-.02l-.038-.116h-.019v-.057h-.019v-.038h-.019l-.039-.116h-.019v-.057h-.019v-.039h-.019v-.038h-.02l-.038-.116h-.019v-.056h-.023v-.038h-.019l-.038-.116h-.019v-.055h-.02v-.038h-.014l-.039-.11h-.019v-.057h-.019v-.039h-.02l-.038-.115h-.019v-.058h-.022v-.038h-.02l-.038-.116h-.019v-.057h-.02v-.038h-.019l-.038-.116h-.02v-.058h-.019v-.04h-.019l-.038-.115h-.014v-.059h-.019v-.046h-.025l-.039-.11h-.018v-.038h-.02V15.2h-.019v-.038h-.02a1.2 1.2 0 0 1-.057-.346h.019l.02-.191h.018l.039-.116h.02v-.038l.038-.02v-.039l.039-.018a.374.374 0 0 0 .11-.154h-.019v-.019a.782.782 0 0 1-.903-.308v-.037h-.019v-.039h-.02v-.058a.704.704 0 0 1-.057-.346h.019v-.095h.02v-.059h.018v-.038h.02v-.057l.039-.02.018-.076.116-.097.038-.057h.039l.018-.039h.039v-.016c.073-.041.079.009.096-.097h-.019l-.019-.077h-.02v-.038h-.018v-.058h-.02l-.039-.115h-.018v-.039h-.02v-.057h-.019l-.038-.115h-.02v-.039h-.019v-.057h-.018v-.039h-.02l-.057-.172h-.02l-.039-.116h-.018v-.038h-.02v-.043h-.019v-.055h-.02l-.037-.116h-.02v-.038h-.014v-.057h-.02l-.039-.116h-.018v-.038h-.02v-.058h-.019l-.038-.115h-.02v-.039h-.013v-.057h-.019v-.038h-.025l-.058-.174h-.019l-.039-.11h-.019v-.039h-.019v-.038h-.022v-.059h-.02l-.019-.075h-.016a1.02 1.02 0 0 1-.038-.44h.019v-.077h.019v-.039h.019v-.057l.039-.02.019-.077.038-.019v-.045l.077-.057.02-.039h.038l.019-.038h.039l.018-.039h.039v-.019l.097-.019.018-.057h-.018v-.059h-.02v-.038h-.019v-.039h-.02v-.038h-.018v-.037h-.02v-.055h-.019v-.042h-.02v-.039h-.018l-.039-.11h-.019v-.063h-.019v-.038h-.019l-.039-.11h-.019v-.063h-.019v-.038h-.02l-.038-.11h-.022v-.063h-.02v-.038h-.019l-.038-.116h-.019v-.057h-.014v-.039h-.019v-.038h-.02l-.038-.116h-.019v-.057h-.02v-.038h-.019l-.038-.116h-.02v-.057h-.019v-.039h-.018l-.039-.115h-.02V7.69h-.018c-.038-.075-.049-.169-.116-.212v-.019l-.115-.019v-.02h-.039v-.019l-.173-.038v-.02h-.038v-.019l-.173-.038v-.018h-.04v-.021l-.173-.038V7.19h-.036v-.02l-.173-.038v-.019h-.039v-.02l-.11-.018v-.02a1.54 1.54 0 0 0-.211-.057v-.019l-1.364.499c-.02.048-.055.093-.077.135v.038h-.019v.039h-.02v.057h-.018v.038h-.027v.039h-.02l-.018.077h-.02v.057h-.019v.039h-.02l-.038.115h-.019v.057h-.02v.039h-.018v.038h-.02l-.037.116h-.02v.057h-.019v.039h-.02l-.038.11h-.017v.057h-.022v.038h-.018l-.039.11h-.02v.068h-.018v.039h-.019v.038h-.02l-.038.116h-.019v.057h-.02v.039h-.019l-.058.174h-.02l-.038.11h-.018l-.038.135h.018v.019l.096.018v.02h.039l.019.039h.039l.038.057h.039v.02l.057.038v.039l.057.037v.038h.022v.039h.019l.038.11h.02l.019.384h-.019l-.02.135h-.018l-.02.076h-.019v.039h-.022v.058h-.018v.038h-.02v.039h-.019l-.02.076h-.018v.058h-.019v.039h-.02l-.038.11h-.019v.057h-.02v.038h-.019l-.038.116h-.02v.057h-.02v.039a.385.385 0 0 0-.077.172l.211.096.039.058h.038v.019l.058.039v.038l.058.039.038.115h.019v.039h.02v.057h.019v.077h.017a.913.913 0 0 1-.097.518h-.013v.038l-.058.039v.039h-.019l-.038.058h-.039l-.038.057h-.039l-.018.039a1.067 1.067 0 0 1-.538.077 1.35 1.35 0 0 0-.25-.097m2.75-2.612h.33v.019l.116.02v.018l.076.019v.02h.038l.02.038h.038l.096.116.057.038v.038l.039.019v.039h.008v.038h.018v.058h.02v.058h.019v.076h.02a.557.557 0 0 1-.039.308v.077h-.016v.053h-.022l-.02.076-.039.019v.039l-.134.115-.039.058-.115.038-.019.039h-.057v.018a.88.88 0 0 1-.673-.095l-.057-.077-.058-.019v-.039l-.058-.038v-.039l-.038-.019-.058-.173h-.018v-.096h-.02l.02-.307h.018l.019-.11a.81.81 0 0 1 .193-.231l.038-.057h.039l.018-.038h.039v-.02l.077-.019v-.019l.115-.019Zm1.364 3.726a.946.946 0 0 1 .48.134l.097.11.076.059v.038l.038.019v.038h.02v.039h.019v.079a.61.61 0 0 1 .058.347h-.025v.093h-.019v.057a.858.858 0 0 1-.538.481h-.33v-.02h-.057v-.018l-.174-.059a.747.747 0 0 1-.33-.77l.019-.134h.018v-.039h.02l.039-.115.057-.039.02-.057.249-.172H13v-.017h.057v-.019h.135Zm-2.978 1.46a.21.21 0 0 0 .096-.057v-.007h.038l.02-.037.077-.02v-.019h.057v-.02h.077v-.014h.111v-.022h.095v.022h.134v.019h.059v.02h.057l.25.172v.039l.077.057.038.116h.019v.038h.016l.019.154h.02v.23h-.017v.077h-.022v.077h-.019l-.019.077h-.017v.039l-.038.018v.039l-.076.057-.077.097h-.039l-.019.038a.97.97 0 0 1-.538.096v-.02h-.058v-.021h-.077v-.019l-.115-.038-.039-.058h-.038l-.076-.096-.038-.02v-.038l-.039-.019-.02-.077-.038-.019v-.058a.616.616 0 0 1-.057-.345h.018v-.096h.02v-.058h.019v-.058h.02v-.038h.018v-.039l.039-.018v-.039h.02a.22.22 0 0 0 .057-.097m1.268 4.401v1.632h1.018v-1.633Z"/></svg>