<svg xmlns="http://www.w3.org/2000/svg" fill="#44739e" viewBox="0 0 24 24"><path d="M21.559 12.494A1.479 1.479 0 0 0 21 11.336a1.52 1.52 0 0 0-.631-2.245 1.426 1.426 0 0 0-.106-1.3 1.519 1.519 0 0 0-1.052-.737 1.585 1.585 0 0 0-.456-1.228 1.51 1.51 0 0 0-1.228-.456 1.444 1.444 0 0 0-.6-.959 1.719 1.719 0 0 0-.029-1.953A1.261 1.261 0 0 0 15.806 2a8.06 8.06 0 0 0-3.3 1.129 2.09 2.09 0 0 0-1.079-.01A8.02 8.02 0 0 0 8.089 2a1.246 1.246 0 0 0-1.123.527A1.712 1.712 0 0 0 6.948 4.5a1.447 1.447 0 0 0-.473.871 1.572 1.572 0 0 0-1.684 1.685 1.487 1.487 0 0 0-1.052.737 1.68 1.68 0 0 0-.106 1.3 1.4 1.4 0 0 0-.842.982A1.447 1.447 0 0 0 3 11.336a1.6 1.6 0 0 0-.561 1.192A1.481 1.481 0 0 0 3 13.686a1.52 1.52 0 0 0 .631 2.245 1.426 1.426 0 0 0 .106 1.3 1.519 1.519 0 0 0 1.052.737 1.585 1.585 0 0 0 .456 1.228 1.513 1.513 0 0 0 1.228.456 1.491 1.491 0 0 0 .738 1.048 1.68 1.68 0 0 0 1.3.1 1.4 1.4 0 0 0 .983.842 1.447 1.447 0 0 0 1.263-.21 1.606 1.606 0 0 0 1.19.568 1.922 1.922 0 0 0 1.3-.6 1.574 1.574 0 0 0 1.263.21 1.482 1.482 0 0 0 .982-.842 1.425 1.425 0 0 0 1.3-.1 1.523 1.523 0 0 0 .737-1.052 1.586 1.586 0 0 0 1.228-.457 1.507 1.507 0 0 0 .456-1.227 1.49 1.49 0 0 0 1.052-.737 1.68 1.68 0 0 0 .106-1.3 1.4 1.4 0 0 0 .842-.982A1.447 1.447 0 0 0 21 13.651a1.481 1.481 0 0 0 .561-1.158ZM16.3 9.652a1.6 1.6 0 0 0 .948.7 1.607 1.607 0 0 0-.176 1.157 1.812 1.812 0 0 0 .632 1.018 1.64 1.64 0 0 0-.632 1.017 1.476 1.476 0 0 0 .176 1.158 1.7 1.7 0 0 0-.948.7 1.74 1.74 0 0 0-.28 1.158 1.735 1.735 0 0 0-1.158.281 1.592 1.592 0 0 0-.7.947 1.715 1.715 0 0 0-2.175.456 1.638 1.638 0 0 0-1.017-.631 1.476 1.476 0 0 0-1.158.175 1.7 1.7 0 0 0-.7-.947 1.735 1.735 0 0 0-1.158-.281 1.73 1.73 0 0 0-.281-1.157 1.588 1.588 0 0 0-.947-.7 1.61 1.61 0 0 0 .174-1.157 1.808 1.808 0 0 0-.631-1.017 1.808 1.808 0 0 0 .631-1.017 1.472 1.472 0 0 0-.175-1.158 1.7 1.7 0 0 0 .947-.7 1.73 1.73 0 0 0 .281-1.157 1.55 1.55 0 0 0 .373.007l-.553 1.113a.392.392 0 0 0 .07.386.319.319 0 0 0 .386.07L9.6 9.512l.28 1.333c0 .141.141.246.281.281h.035a.486.486 0 0 0 .351-.176l1.429-2.859 1.412 2.824a.338.338 0 0 0 .316.211h.07a.379.379 0 0 0 .281-.281l.281-1.368 1.368.561a.344.344 0 0 0 .456-.456L15.616 8.5a1.58 1.58 0 0 0 .4 0 1.73 1.73 0 0 0 .28 1.157zM9.22 8.126c.021-.017.041-.035.061-.053.035-.035.035-.07.07-.105l.033-.048a4.62 4.62 0 0 0 1.686-.478l.443-.221.033.006-1.212 2.46-.141-.737c-.035-.1-.07-.21-.175-.245a.316.316 0 0 0-.175-.035.213.213 0 0 1-.143-.035l-.912.35zm3.113-.895c.035 0 .035 0 .07.036l.421.21a4.06 4.06 0 0 0 1.684.491l.562 1.123-.913-.351c-.07-.07-.175-.035-.281 0a.405.405 0 0 0-.175.245l-.14.737zm3.543-4.525a.666.666 0 0 1 .456.175c.281.316.211.772-.105 1.369a5.12 5.12 0 0 0-.386 2.315.666.666 0 0 1-.6.631.51.51 0 0 1-.211.035h-.245a4.24 4.24 0 0 1-1.551-.407 2.07 2.07 0 0 0 .748-1.124l.005-.02c.006-.023.011-.046.016-.07s.015-.069.02-.1.007-.043.01-.065l.006-.047c0-.026.005-.052.007-.078v-.306c0-.027 0-.055-.007-.082v-.037c0-.027-.007-.053-.012-.08s-.014-.078-.023-.117l-.007-.029c-.007-.03-.015-.06-.024-.089l-.006-.021c-.01-.034-.022-.069-.034-.1v-.007a1.2 1.2 0 0 0-.041-.1c-.015-.031-.024-.054-.037-.081l-.005-.011a2.36 2.36 0 0 0-.6-.772 7.7 7.7 0 0 1 2.631-.772zm-3.523 1.113a.31.31 0 0 0 .086.045 1.33 1.33 0 0 1 .24.1 1.4 1.4 0 0 1-.128 2.461 1.4 1.4 0 0 1-.183.068 2.1 2.1 0 0 1-.421.07 1.37 1.37 0 0 1-.3-.033.3.3 0 0 0-.087-.037 1.4 1.4 0 0 1-.985-1.036v-.036l-.007-.039v-.386a1.4 1.4 0 0 1 1.8-1.179zm-4.826-.9a.564.564 0 0 1 .456-.211h.07a7.67 7.67 0 0 1 2.631.772l-.055.046a2.115 2.115 0 0 0-.752 1.262v.018c-.005.031-.01.061-.014.091v.031c0 .029-.006.057-.008.086v.304c0 .026 0 .052.007.078l.006.048c0 .021.006.042.01.063s.012.068.019.1l.018.078a2.244 2.244 0 0 0 .764 1.183q-.105.057-.213.108a3.96 3.96 0 0 1-1.138.281.37.37 0 0 0-.147-.029H8.9a1 1 0 0 0-.215-.028c-.6-.175-.6-.561-.6-.666a5.84 5.84 0 0 0-.316-2.07.28.28 0 0 0-.055-.07c-.025-.057-.044-.092-.05-.1-.351-.6-.386-1.053-.14-1.368Zm12.629 10.416a.3.3 0 0 0-.245.281.334.334 0 0 0 .14.351.782.782 0 0 1 .316.877.8.8 0 0 1-.7.6.352.352 0 0 0-.281.211.43.43 0 0 0 .071.351.8.8 0 0 1 .07.947.777.777 0 0 1-.842.386.408.408 0 0 0-.351.14.324.324 0 0 0-.035.351.772.772 0 0 1-.175.912.759.759 0 0 1-.912.176.322.322 0 0 0-.351.035.358.358 0 0 0-.141.35.733.733 0 0 1-.385.842.8.8 0 0 1-.948-.07.334.334 0 0 0-.35-.07.3.3 0 0 0-.211.281.792.792 0 0 1-.6.7.78.78 0 0 1-.877-.315.45.45 0 0 0-.349-.144.343.343 0 0 0-.281.246.829.829 0 0 1-1.543 0 .3.3 0 0 0-.281-.246h-.035a1.04 1.04 0 0 0-.351.106.781.781 0 0 1-.877.315.794.794 0 0 1-.6-.7.348.348 0 0 0-.211-.281.43.43 0 0 0-.35.07.8.8 0 0 1-.948.07.777.777 0 0 1-.385-.842.4.4 0 0 0-.138-.351.322.322 0 0 0-.351-.035.772.772 0 0 1-.912-.176.76.76 0 0 1-.175-.912.324.324 0 0 0-.035-.351.359.359 0 0 0-.351-.14.778.778 0 0 1-.842-.386.8.8 0 0 1 .07-.947.334.334 0 0 0 .071-.351.307.307 0 0 0-.281-.21.793.793 0 0 1-.7-.6.783.783 0 0 1 .316-.877.45.45 0 0 0 .14-.351.339.339 0 0 0-.25-.278.829.829 0 0 1 0-1.544.3.3 0 0 0 .246-.28.334.334 0 0 0-.14-.351.783.783 0 0 1-.316-.877.8.8 0 0 1 .7-.6.348.348 0 0 0 .28-.21.433.433 0 0 0-.07-.351.861.861 0 0 1-.07-.947.777.777 0 0 1 .842-.386.408.408 0 0 0 .351-.14.548.548 0 0 0 .11-.414.772.772 0 0 1 .175-.912.759.759 0 0 1 .912-.176.32.32 0 0 0 .351-.035.358.358 0 0 0 .141-.35.715.715 0 0 1 .038-.371 6.5 6.5 0 0 1 .1 1.212 1.385 1.385 0 0 0 .776 1.2 1.008 1.008 0 0 1-.636-.254.338.338 0 0 0-.491 0A.374.374 0 0 0 7 8a1.007 1.007 0 0 1 .07 1.228 1.026 1.026 0 0 1-1.157.386.4.4 0 0 0-.456.21.348.348 0 0 0 .175.456.938.938 0 0 1 .526 1.088.978.978 0 0 1-.912.806.347.347 0 0 0-.316.351.92.92 0 0 0 .211.456.978.978 0 0 1 .912.807.938.938 0 0 1-.526 1.088.348.348 0 0 0-.176.456.365.365 0 0 0 .456.21 1.025 1.025 0 0 1 1.158.386.962.962 0 0 1-.065 1.232.338.338 0 0 0 0 .491.374.374 0 0 0 .491 0 1.007 1.007 0 0 1 1.228-.07A1.026 1.026 0 0 1 9 18.738a.4.4 0 0 0 .21.456.347.347 0 0 0 .456-.175 1 1 0 0 1 1.895.386.352.352 0 0 0 .7 0 .978.978 0 0 1 .807-.912.938.938 0 0 1 1.088.526.347.347 0 0 0 .456.175.365.365 0 0 0 .21-.456 1.024 1.024 0 0 1 .386-1.157.961.961 0 0 1 1.228.07.339.339 0 0 0 .491 0 .374.374 0 0 0 0-.491 1.007 1.007 0 0 1-.07-1.228 1.024 1.024 0 0 1 1.157-.386.4.4 0 0 0 .456-.21.348.348 0 0 0-.175-.456 1 1 0 0 1 .386-1.9.353.353 0 0 0 0-.7.977.977 0 0 1-.912-.807.938.938 0 0 1 .526-1.088.348.348 0 0 0 .175-.456.365.365 0 0 0-.456-.21 1.026 1.026 0 0 1-1.157-.386.961.961 0 0 1 .07-1.228.339.339 0 0 0 0-.491.374.374 0 0 0-.491 0 .974.974 0 0 1-.772.245 1.263 1.263 0 0 0 .844-1.206.8.8 0 0 0 0-.122c0-.181.006-.346.014-.5a6.1 6.1 0 0 1 .072-.641c.006-.032.012-.064.019-.095a.66.66 0 0 1 .105.526.407.407 0 0 0 .141.351.322.322 0 0 0 .35.035.771.771 0 0 1 .912.175.759.759 0 0 1 .179.918.324.324 0 0 0 .035.351.359.359 0 0 0 .351.14.779.779 0 0 1 .842.386.8.8 0 0 1-.071.947.336.336 0 0 0-.07.351.306.306 0 0 0 .281.211.756.756 0 0 1 .7.6.782.782 0 0 1-.316.877.36.36 0 0 0-.141.351.344.344 0 0 0 .246.281.829.829 0 0 1 0 1.543"/></svg>