<svg xmlns="http://www.w3.org/2000/svg" viewBox="0 0 24 24"><path fill="#44739e" d="M18.989 21.009c.11 0 .058.048 0 .078l-.165.215-.342.399v-.419a.29.29 0 0 0-.204.117.464.464 0 0 0 0 .233v.429c-.079-.214 0-.442-.088-.653h-.068v.878h-.059v-.995c-.136 0-.185 0-.185.116v.614h-.204v.175h-.059v-.584a.18.18 0 0 1 0 .078l-.088.048v-.619l-.111.351-.048-.215v-.067l-.068.808v-.838h-.058v.975h-.046l-.044-.793h-.453l-.111.838h-.067l-.098-.848-.088.553-.078-.974v1.237h-.045l-.098-.593v.672h-.058v-1.043h-.137v1.062a.35.35 0 0 1 0 .11h-.049a4.5 4.5 0 0 1-.068-.516v-1.062c0-.088 0-.127-.136-.127l-.097 1.482h-.136v-1.286h-.059v1.437h-.069v-.546h-.048v.599l-.059-1.471-.166 1.267-.058-.68h-.068l-.088.857c-.049-.195-.111-.371-.136-.545a5 5 0 0 1 0-.546h-.059v.566h-.048l-.069-.79h-.059v1.063h-.28v-.818h-.059v.876h-.059v-1.308h-.059v1.198h-.059c-.136-.234 0-.507-.11-.741v.885h-.075V20.92h-.058v.273a2.9 2.9 0 0 1-.097.399 5.9 5.9 0 0 0 0 .595.188.188 0 0 1 0 .126v-.389h-.049l-.087.214v.127h-.245v.048h-.01a1 1 0 0 1 .245 0 .41.41 0 0 1 .146 0l.058.059h-.302c.098.059.253 0 .312.127h-.41l.137.111.273.098h-.176l.098.175c-.264 0-.332 0-.351-.126a.9.9 0 0 1-.068.136.37.37 0 0 1-.078.097l-.049-.282-.058.292-.059-.312-.11.312-.146-.409v.126l-.069.283v-.263h-.058l-.078.234v-.147l-.078.156-.049-.233v.221l-.156-.263-.156.292v-.118l-.058.118-.069-.332v.111l-.057.195v-.244h-.069c0-.175-.195-.078-.273-.156l.097-.059h-.156l.312-.048h-.232l.195-.049-.254-.049-.604.215-.214-.087h.262l-.428-.069h.332c0-.059 0-.059.176-.077-.146 0-.283-.118-.442 0v-.147l-.049.204-.069-.146v-1.061h-.146v.603h-.053l-.11-.789h-.056v1.091h-.078c-.215-.302-.068-.652-.156-.974v.507l-.097-.341v.409l-.176-.097v.545h-.068v-1.287H9.39v.974l-.088-.838v.078l-.059 1.092a.5.5 0 0 1-.059.097s-.077-.049-.087-.077a1.4 1.4 0 0 1 0-.273V20.66l-.096 1.521h-.069v-1.438h-.073l-.253.976-.078-.854v1.437h-.054l-.097-.974-.11.712v-.157l-.098-1.105v.613h-.464v-.702h-.062v1.267l-.078-.774-.38 1.004H7.14v-1.105h-.069v.526l-.117-.8v.683l-.085-.684h-.148v.977a.44.44 0 0 1 0 .078h-.049v-.39h-.234v.731h-.049a2.7 2.7 0 0 1 0-.263v-.422a.1.1 0 0 0-.048-.077h-.079v.077c0 .059-.057.111-.057.156v.644a.6.6 0 0 1 0-.126v-.63a.34.34 0 0 0 0-.11l-.089.195v-.254l-.087.361-.059-.069c-.059.079 0 .195-.136.263a.7.7 0 0 0-.059-.35.7.7 0 0 1 0-.097c0-.235 0-.235-.263-.303a1.9 1.9 0 0 1-.35-.116l.613.11a.37.37 0 0 0-.117-.068q-.307-.073-.603-.176l.691.127c-.078-.111-.272-.069-.39-.156l.361.049.068-.244v.175h.789l-1.052-.263.774.098-.497-.156s-.136 0-.078-.078H5.6c-.273-.077-.545-.136-.819-.205v-.048h.222l.974.184a.254.254 0 0 0 .146 0l-.234-.067h.306c-.429-.156-.897-.196-1.306-.37l.682.126-.186-.068h.186l-.819-.39 1.676.283-.614-.205.711.126-1.106-.282 1.189.195v-.063l-1.216-.312.751.136-.517-.126a.145.145 0 0 1-.147-.166l.575.098-.75-.234.341.049h.263a1.5 1.5 0 0 0 .283 0h-.045a.083.083 0 0 1 0-.069.059.059 0 0 1 .067 0 1.4 1.4 0 0 1 .196 0v.149c.332-.049.146.165.221.273l.322-.429-.146.35.468-.652-.088.331a3.4 3.4 0 0 0 .234-.293c0-.058.078-.097.166-.058l-.176.615.166-.273v.204c0 .069-.068.156.078.185s0 .068.068.146l.185-.37.078.078.117-.126.058.146.244-.361-.088.711.156-.37c.146.127.049.273.117.409a1.16 1.16 0 0 1 .118-.389c.048-.127.097-.235.146-.361a1.9 1.9 0 0 1-.049.507h.059c.11-.292.243-.585.331-.877a1.55 1.55 0 0 0 0-.429c.079.263-.097.487-.174.731 0 0-.089.068-.138.097s0-.215 0-.322a1.5 1.5 0 0 0-.058-.204l-.243.331.11-.73-.37.838-.061-.151-.136.156v-.37h-.069l-.204.164.185-.729-.172.337-.179.332h-.126l.233-.683a.28.28 0 0 0-.126.078l-.38.449a.5.5 0 0 1-.117.048 2.8 2.8 0 0 1 .078-.526l.068-.078v-.214l-.088.068-.273-.399c.215 0 .263.126.409.214l-.052-.15c.176 0 .205 0 .332.233a.187.187 0 0 0 .205-.221 1.22 1.22 0 0 1 0-.369l.233.623.088-.478.205.222.068-.477.156.496-.07-.644.214.731v-.098l.221.138v-.322l.243.302h.049l.127-.897.292.721c-.048-.195-.11-.389-.146-.584a1.9 1.9 0 0 1 0-.221l.302.789v-.341l.166.204c.126-.272-.087-.477-.079-.731.079.137.128.264.205.381s.069.058.098.078a.25.25 0 0 0 0-.11 1.4 1.4 0 0 0-.078-.303c.176.176.166.419.429.526.11-.214-.079-.399-.087-.614l.194.254v-.196l.371.419v-.136l.126.067-.205-.701.176.205v-.156l.126-.234.516.73-.233-.623a.249.249 0 0 1 .283.049c.067.048.221.283.351.429.117-.136 0-.222-.049-.312l-.176-.322.111.059.221-.128.409.293h.058a.62.62 0 0 0-.048-.194c-.079-.137-.176-.273-.245-.419l.186.126-.058-.195.585.507-.391-.536c.302.117.449.361.702.546 0-.264-.221-.41-.302-.624l.302.283c.049-.254-.214-.39-.221-.624l.672.604a.42.42 0 0 0-.058-.087c-.078-.111-.166-.205-.243-.303a.31.31 0 0 1-.049-.078 2.9 2.9 0 0 1-.069-.301l.634.467-.215-.293.458.221-.136-.233.243.111c-.058-.283-.331-.429-.486-.644.087 0 .165-.078.263 0l.272.175.196-.361.458.293-.098.049 2.101-.468-.975.254 1.033-.176-1.14.293h.156l-.443.126.553-.111-.166.069.537-.111-1.462.391v.056l1.316-.293v.049l-.897.283h.233l-.243.097.692-.146-.293.087.692-.146-.905.254 1.286-.215-.264.088h.166l-1.247.37c.361 0 .682-.126 1.033-.136l-.741.194.332-.048-.342.11.468-.087-.38.111 1.159-.146-.974.291 1.179-.214-.78.205.741-.156-1.316 1.15v.087l1.589-.292-2.027.516h.118a4.2 4.2 0 0 1 .496-.097s.146-.087.156 0h.146l.774-.166h.137l-.111.079.468-.059-.458.136.584-.117-.486.137.379-.059-.774.205.975-.166-1.579.774h.166a1.9 1.9 0 0 1 0 .313.103.103 0 0 1-.068.097 2 2 0 0 1-.185.068l-.147-.371v.176l-.126-.077.077.516-.184-.459v.215l-.118-.234-.058.4-.243-.195v.38l-.274-.552.098.672-.146-.379v.253c-.136 0-.136-.049-.166-.111a1.05 1.05 0 0 0-.087-.186c-.176.138 0 .293-.098.429l-.127-.253-.175.267a2.7 2.7 0 0 0-.097-.263 1 1 0 0 0-.098-.118.4.4 0 0 0 0 .136v.322l-.111.156-.214-.808.077.774-.185-.741v.409l-.253-.477c0 .272.088.526-.068.789l-.128-.341-.11.059-.111-.221v.457l-.117-.486-.088.594c-.111-.059-.214-.098-.263.068l-.365-.309-.089.194c-.041-.063-.081-.128-.11-.194a1.4 1.4 0 0 0-.099-.221.55.55 0 0 1 0 .221c0 .058-.097.097-.174.166l-.098-.553v.643a1.45 1.45 0 0 0 0 .585.5.5 0 0 1 0 .126c.136-.11.272-.214.214-.399l.117.701v-.341l.058-.068.069.059c.059.117.111.234.175.36l.158-.174.11.128c.156-.284 0-.565.089-.839l.136.644v-.721l.11.332.088-.078.11.068v-.272l.088.194v-.221c.205.196.156.443.283.673l.068-.165.111.233v-.614l.165.604h.049v-.263l.111.176-.058-.634c.111.156.068.371.244.517v-.448l.175.575a.31.31 0 0 0 .058-.127 2.4 2.4 0 0 0 0-.282 2.4 2.4 0 0 1 0-.255l.206.654v-.542l.759.526v-.774l.205.604v-.399l.117.048v-.221l.146.322v-.458l.176.4-.089-.553c.186.273.273.595.468.896.049-.097 0-.243.214-.214l-.067.078 1.216-.263-1.306.389c.069.088.156.079.254.049l.741-.156h.145l-.663.186.897-.137-.517.186.604-.118-.798.205.663-.136-.663.175.613-.126-.234.087.838-.176-.974.263.419-.067-.751.221 1.063-.111-.741.205a5.34 5.34 0 0 1 1.043-.126l-.907.302v.176l.595-.089v.166l.799-.156c-.137.117-.37.111-.526.215l.526-.111-.604.215-.458.11v.059Zm-8.946-1.949v-.624c-.321.11-.136-.156-.263-.214l-.11.468v-.4l-.111.409v-.332c-.068.205-.126.419-.184.624v.536l.204-.4v.605l.215-.615v.615h.077a.6.6 0 0 0 .087-.176 2.3 2.3 0 0 1 .118-.478l.078.664h.049l.097-.614.059.244.087-.156.127.774a.51.51 0 0 0 .087-.214 2.1 2.1 0 0 1 .078-.215.111.111 0 0 0 .088-.058c.029-.059.059.048.068.078a.61.61 0 0 0 .05.221l.067-.711c.176.234.097.517.186.774a.34.34 0 0 0 0-.126.178.178 0 0 1 .058-.166.845.845 0 0 0 .195-.448l.077-.111h.059l-.166-.731h-.049v.735c-.116-.243 0-.525-.204-.774-.097.254 0 .517-.185.741l-.058-.442-.156.553-.136-.774-.137.448h-.059v-.488l-.087.565v-.312a.76.76 0 0 0-.079.235.453.453 0 0 0-.233.311Zm3.902-2.522.371.146a.186.186 0 0 1 .156.166 1.22 1.22 0 0 0 .058.312 3 3 0 0 1 .312-.234.45.45 0 0 1 .205-.049 4.2 4.2 0 0 1 .419.049c-.078-.117-.127-.214-.195-.302a.125.125 0 0 1 0-.175c.068-.079.117-.176.205-.293a4.7 4.7 0 0 1-.443 0 .254.254 0 0 1-.184 0c-.111-.067-.195-.156-.312-.243a2.4 2.4 0 0 0-.069.331.146.146 0 0 1-.127.136Zm-2.124 2.349a.672.672 0 0 0 .01.774c0-.253.146-.497-.058-.741Zm5.769 1.822.553-.069v-.165ZM10.681 21.8h.169c0-.184 0-.204-.205-.194Zm7.153-.848v.302c.205 0 .097-.136.097-.213l-.048.057Zm.525-.221v.399a.31.31 0 0 0-.048-.37Zm-12.867.3a.221.221 0 0 0 .29.092l.022-.015ZM9.926 9.152l-.087.253.614-.516-.419.575.594-.478-.419.643.361-.156-.117.196.283-.186.11.429.488-.371-.332.624.442-.253a.31.31 0 0 0-.058.117.32.32 0 0 0 .058.117l.488-.39-.205.37h.098v.205l.292-.221-.443.546.156.111.867-.553c0 .254-.302.41-.409.663l.526-.341-.127.234.39-.205-.536.683.488-.459-.089.176.322-.284.117-.048a.163.163 0 0 1 0 .097 2.9 2.9 0 0 0-.097.332l.263-.233h.111a.55.55 0 0 1 0 .087 1.14 1.14 0 0 1-.089.194l-.36.498.585-.585c0 .243-.221.38-.282.594.204-.111.282-.321.553-.399l-.351.663.332-.321-.195.341c.195 0 .273-.136.399-.205l-.136.292c.274 0 .361-.292.653-.233a.275.275 0 0 1-.234.292c.118.117-.087.078-.087.146h.243c-.087.234-.37.234-.585.322l.332-.059a.514.514 0 0 1 .341 0 .37.37 0 0 0 .156 0h.449a.652.652 0 0 1-.508.059l.069.088c-.156 0-.274-.186-.448 0l.448.321h-.21c-.088.088 0 .147 0 .254-.264 0-.42-.234-.683-.312l.478.428-.302-.146.526.673h-.141l.206.221-.79-.351.243.253-.214-.097c0 .195.263.302.263.487l-.536-.282.156.204-.468-.332.117.186-.253-.147c0 .235.214.352.283.536l-.254-.146-.221-.165.221.419-.292-.215.322.449h-.059l-.302-.221.37.478c-.068.058-.11.067-.175 0l-.553-.302-.205-.137h-.048a.6.6 0 0 0 .057.194 4.8 4.8 0 0 1 .312.459l-.146-.088.127.263-.419-.409h-.049l.136.585-.603-.527a.365.365 0 0 0 0 .146 5 5 0 0 1 .204.527l-.322-.351.195.38-.536-.702.254.553h-.058l-.196-.194.166.36a3.1 3.1 0 0 0-.221-.282c-.069-.078-.079-.221-.284-.205l.069.244-.205-.079a1.16 1.16 0 0 0 0 .196.243.243 0 0 0 .049.175l-.312-.136c0 .146-.137.263-.068.409s0 .097-.136.11-.235 0-.273-.146a.26.26 0 0 0-.137-.137l.117.429-.302-.593.117.457-.146-.234-.048.273-.196-.37H9.39a4.5 4.5 0 0 0 .079.613h-.01l-.268-.616.117.614c-.312-.166-.332-.442-.487-.672v.341l-.111-.137-.059.205-.262-.458v.885l-.193-.622-.146.059-.102-.256v.371l-.077-.156-.156.379a.44.44 0 0 1-.099-.077l-.084-.193c0-.049-.087-.117 0-.127l-.136-.068.059-.049h.243l-1.461-.243-.069-.156 1.238.156c.156 0 .312.097.468 0l-.917-.195a8.7 8.7 0 0 0 .975.098l-.39-.118h.195l-1.089-.273a7.7 7.7 0 0 1 .784.099l-.848-.215c.37 0 .712.137 1.072.156l-.731-.233 1.082.204-.585-.195h.11l-.955-.498.312.049-.205-.068.419.059v-.099l1.122.156-.693-.164-.672-.176v-.049l1.618.312v-.049l-1.609-.38.877.166-.08-.082.78.136v-.049l-1.492-.536.974.186-.126-.089h.263l-.422-.103h.282l-.906-.273 1.54.283-1.38-.38.915.147-.458-.127h.292l-.593-.146h.536l-.605-.186 1.17.221-.419-.127c-.089 0-.215 0-.253-.126s-.128-.048-.196-.068l-.221-.069.925.176-.575-.156 1.355.263-.332-.126h.293l-.519-.134h.098l-.664-.633h.293l-.774-.205.691.127-.915-.221 1.13.221-.691-.175.369.048-.74-.233 1.404.233-1.14-.322.974.176-.093-.055.194-.059-1.022-.253c.136-.11.253 0 .379 0l-.282-.087h.126c.37-.156.682 0 1.024 0l-.644-.154h.302l-.166-.078 1.053.204-1.335-.442 1.082.185-.711-.234.731.136c-.245-.097-.508-.126-.741-.221v-.049l1.023.166-1.521-.399v-.053l.976.175-.553-.185h.331l-.221-.068.644.117-.974-.263v-.049l1.587.312v-.049l-1.691-.399a6.6 6.6 0 0 1 1.168.126l-.74-.185.868.166-.634-.196.663.059v-.049l-.429-.127h.235l-.548-.148c.332-.087.605.097.927 0l-.346-.11.478.068Zm-.419 2.924c.146.057.283.11.4.164a.184.184 0 0 1 .111.118 2.54 2.54 0 0 1 .079.37l.291-.263a.255.255 0 0 1 .222-.059 1.08 1.08 0 0 1 .419.059 2.07 2.07 0 0 0-.195-.292c-.059-.069 0-.117 0-.186l.195-.292-.443.059a.3.3 0 0 1-.165-.049l-.284-.254a1.04 1.04 0 0 0-.048.221c0 .146-.078.221-.243.273a3 3 0 0 0-.332.146Zm.885-4.035h.166l-.273.399c.351-.067.526-.322.828-.448l-.292.332.429-.262v.231h.263v.111l.195-.069-.527.692.098-.048.497-.443c.059-.048.111-.116.215 0l-.553.624a.181.181 0 0 1-.069.137h.059l.516-.449v.221l.196-.11-.4.477.477-.283-.282.371a2.12 2.12 0 0 0 .819-.517l-.595.683a2.07 2.07 0 0 1 .672-.443c0 .292-.341.443-.428.673l.116.067.809-.642c-.136.253-.419.442-.497.749l.312-.273a3.2 3.2 0 0 1 .313-.213l-.196.302h.166a.52.52 0 0 1 0 .117c-.049.077-.117.156-.176.233a.52.52 0 0 0 0 .117l.605-.457.068.136.701-.244-.682.136 1.375-.36v-.047l-1.501.284 1.227-.312-.974.204c0-.156.205-.166.332-.195l.975-.254-.975.215.468-.175-.399.058.11-.068-.478.088.381-.156-.322.048.984-.34-.915.194.126-.058h-.088l.098-.088-.653.126 1.481-.516-1.15.195.585-.156-.916.186.818-.254-.552.059.632-.176h-.555l.429-.127-.332.059.877-.222-.789.165.351-.116-1.362.305 1.608-.429h-.176l.176-.068a4.12 4.12 0 0 0-1.063-.341l.4-.11-.4.038.546-.146h-.214l.429-.126-.526.111.603-.165v-.154l-1.627.362.205.321a.95.95 0 0 1-.41-.059.234.234 0 0 0-.221.059c-.088.078-.196.147-.303.234a1.9 1.9 0 0 1 0-.293.212.212 0 0 0-.175-.195c-.11 0-.214-.087-.35-.136.146-.058.282-.11.399-.165a.167.167 0 0 0 .111-.111 2.54 2.54 0 0 0 .077-.36c.117.097.214.165.293.243a.221.221 0 0 0 .195-.039h.682l.419-.166-.361.069.39-.111h-.111l.663-.184v-.044l-1.105.206.477-.196-.73.146a1.4 1.4 0 0 1 .301-.11c.079 0 .222 0 .235-.069s.194-.097.292-.146l.146-.058h-.322l.39-.312-1.423.185 1.345-.351-.507.097.088-.087h-.428l.496-.146-1.15.205.215-.205v-.045l.741-.262-.478.087.263-.127c.078 0 .215 0 .243-.156h-.36l.049.088c-.254-.11-.468 0-.721 0l.221.282-.391-.243c.083.111.171.206.264.302v.078h-.098c-.068 0-.126-.098-.184-.137l-.273-.194.419.496h-.118l-.5-.348.331.488h-.048l-.078.165-.526-.4.34.488a.254.254 0 0 1-.126-.059l-.11-.058.097.234c-.332-.069-.37-.322-.585-.459a1.474 1.474 0 0 1 .215.722c-.146-.11-.221-.234-.429-.254l.087.244-.204-.139v.221l-.222-.049v.156l-.419-.11c.244.11.527.127.79.214l-.049.088-.653-.033.74.195a1.1 1.1 0 0 1-.341 0 2.06 2.06 0 0 0-.842.004h-.23l.332.111h.23l.166-.049-.39.332.351.126-.147.137.391-.058-.136.136a.31.31 0 0 0-.049.097Zm1.784-3.728-.35.049c0 .156.185.175.253.292l-.38-.185v.11l-.849-.241h.137l.545.097a.245.245 0 0 0 .185 0l-.448-.136h.133l-.866-.253a.63.63 0 0 1-.111-.058h.35l-.291-.089c.272 0 .516.117.788.097l-.497-.221.653.116-1.257-.292.819.156c0-.11 0-.233-.156-.282h.146l-.206-.377h.186c0-.068 0-.097-.097-.117a4.3 4.3 0 0 1-.487-.117l-.117-.059.642.118-.506-.136.516.058a.356.356 0 0 0-.243-.204l-.774-.312h-.065l.925-.332a.293.293 0 0 0 .235-.221c.048-.253.126-.496.194-.774l.711.604a.231.231 0 0 0 .222.058l1.081-.126a3.43 3.43 0 0 1-.389.497.43.43 0 0 0-.071.602.42.42 0 0 0 .071.07 4.5 4.5 0 0 1 .312.488l-.975-.128v.111a.111.111 0 0 0 .116.127h.605l-.848.088h.195l-.517.137.693-.118-.146.069.749-.147a2.92 2.92 0 0 1-.642.166c-.221 0-.37.156-.615.156.235.146.429 0 .644 0l-.205.068c.205 0 .381-.087.575-.068l-.633.137v.184l.341.156-.391.11.477-.089-.321.137Zm-.35-.477a.506.506 0 0 0-.468 0Zm5.155 10.33-.492.098.204-.079-.553.059.391-.127h-.245l.761-.263-.565.11v-.146l-.273.049.058.117c-.127-.068-.221-.166-.293 0l-.243-.166.059.089-.263-.069.37.419-.975-.409.615.721a12.7 12.7 0 0 0 1.49-.399Zm-5.398-9.429c.185 0 .254.221.467.186a.61.61 0 0 0-.282-.215c-.477-.117-.974-.204-1.451-.301h-.235l.517.136h-.111l.721.184a.41.41 0 0 1 .196.099 1.17 1.17 0 0 0 .633.399Zm-.175.371c-.127-.244-.156-.273-.449-.322l-1.081-.185h-.176l1.51.443-.067-.156Zm3.897 5.32h-.087l-.663.098c-.088.11-.165.221-.244.331l.156-.117c0 .117.098.059.146 0a1.66 1.66 0 0 1 .176-.176.2.2 0 0 0 .126-.048l-.136.165 1.073-.281c-.273-.079-.478.067-.722.058l.175-.088ZM12.967 7.29l1.413-.37c-.166-.097-.322 0-.508 0l.362-.111-.774.185h-.186c-.184 0-.221.186-.302.302m-2.637 1.251c-.214.128-.389.244-.575.342h-.11l-.337-.043.221.067-.537-.087a1.46 1.46 0 0 0 .332.111l.565.156h.049a.855.855 0 0 0 .389-.537m1.07-2.786c.136-.058.136-.146 0-.213 0 0-.058-.111-.11-.118l-.429-.088.39.156h-.263c.077.078.146.127.195.186a.9.9 0 0 1 .117.184Zm-.974-.175c0 .126 0 .205.215.221a1.03 1.03 0 0 1 .243.059 1.2 1.2 0 0 1 .175.117c.02-.302-.205-.458-.624-.399Zm.507-.553-.751-.155h-.253a1.44 1.44 0 0 0 .39.155l.857.215a.264.264 0 0 0-.243-.215m6.438 13.645v.126h-.049l-.079-.126.077.399.332-.126c-.117-.273-.185-.273-.281-.273M7.179 16.236l-.468-.092-.38-.059.974.263c0-.088 0-.088-.126-.11m2.065-7.475.176-.117-.917-.166a2.76 2.76 0 0 0 .741.283M6.74 16.937c-.059-.097-.092-.233-.203-.281a1.85 1.85 0 0 0-.486-.111l.468.175h-.12l.322.185Zm11.147 1.75h-.213l.067.253.352-.097ZM7.305 16.119a8.7 8.7 0 0 0-1.13-.197l1.105.264Zm10.125 1.667.76-.205.185-.059h-.087l-.976.205-.077.087h.214Zm0 0-.088.048a.27.27 0 0 0-.068.079l.975-.263a.83.83 0 0 0-.235 0l-.575.11Zm-.136-.079.117-.049.663-.174-.974.174.165.079Zm1.13.156-.849.176v.087l.83-.233Zm-2.368-6.568-.507.05c-.116 0-.111 0-.059.11a.83.83 0 0 0 .099.099c.097-.176.311-.156.476-.221Zm-2.046-.974a.58.58 0 0 0-.293.37l.303-.283s.097-.067.116-.057a.211.211 0 0 0 .175-.059h-.321Zm2.573 7.904.097.221h.165c-.009-.292-.039-.312-.262-.221m-6.93-9.288.166-.186c-.243-.068-.263-.068-.429.078Zm4.804 1.422.839-.222-.774.166a.094.094 0 0 0-.078.058ZM9.956 7.827h.272v-.079c-.175 0-.34-.146-.535 0Zm4.872 3.317.449-.282c-.283.028-.401.077-.41.282Zm-.478-.673.838-.204a8.5 8.5 0 0 0-.857.204Zm.449 3.782.361.34c.077.069.077.069.194 0l-.545-.36Zm-8.468 3.454.263.111h-.078l.126.078.176-.078-.468-.111Zm5.845-13.31c.215.067.351-.098.537-.118l-.488.098h-.059a.08.08 0 0 1 .03.01Zm3.547 7.883c-.136-.117-.214 0-.301 0s-.079-.058-.245.116Zm-6.2-4.083-.761-.156a1.47 1.47 0 0 0 .751.156Zm7.629 9.433-.283.058.221.111ZM9.351 8.421l.245.058.11-.126c-.11-.079-.213-.01-.32.068Zm8.556 9.959a1.63 1.63 0 0 0 .595-.165Zm-12.122.4-.575-.093a1.96 1.96 0 0 0 .565.156Zm.264-.975-.508-.165.508.155ZM9.412 7.262v.048l.526.069.078-.049h-.068Zm-.117 1.071-.516-.087a1.6 1.6 0 0 0 .506.136Zm6.192 2.923.477-.146a1.03 1.03 0 0 0-.496.111ZM10.85 5.478c-.111-.097-.282-.077-.428-.117l.442.117Zm1.949-1.618-.253.059h.253Zm3.812 9.74-.497.111v.049l.487-.126ZM8.63 7.961l.497.111-.507-.099ZM10.657 6.5l-.214-.126c-.01.126.02.146.214.117ZM7.305 16.976v-.272h-.136l.156.302Zm10.817 1.711c0 .077 0 .077.136.058l.254-.097-.38.057Zm-4.58-13.589a.498.498 0 0 0 .35-.059h-.35ZM9.956 7.827h-.351c.137 0 .234.175.4.077l-.049-.053Zm5.321 3.317c-.147.068-.166.205-.221.311l.253-.291Zm.146 2.514c.117.049.146.195.34.117-.117-.039-.174-.146-.34-.117m-8.975 3.435a.663.663 0 0 0-.391-.067l.371.097ZM9.302 8.1a.61.61 0 0 0 .301 0l-.301-.049Zm.925-2.778-.35-.068.341.078Zm.18 2.75-.312.186.136-.089a.9.9 0 0 0 .138-.136Zm7.851 10.615h-.078v.048l.322-.087h-.273Zm-.146 0 .221-.098-.312.068h.111Zm-9.15.399a1.88 1.88 0 0 1-.049.506h.057c.11-.292.244-.584.332-.877a1.55 1.55 0 0 0 0-.429c.078.264-.098.488-.176.731 0 0-.088.069-.136.099Zm2.924.585c0-.243.126-.488-.079-.731a.672.672 0 0 0 .02.721Zm5.699 1.105.553-.068v-.166l-.566.215Zm-6.733 1.043c0-.186 0-.204-.205-.196v.205Zm6.948-.536c.204 0 .097-.136.097-.215l-.048.059-.049-.146Zm.526-.127a.312.312 0 0 0 0-.399ZM18.99 21l-.458.11v.059l.458-.156Zm-13.165.11-.312-.077a.213.213 0 0 0 .292.077Zm5.577-17.24.429-.038a.504.504 0 0 0-.429.038M9.78 14.726v-.516l-.442.272-.429-.205.126.508-.34.399h.516l.273.442.195-.486.506-.118Zm3.411-1.568.292-.546-.613.097-.443-.442-.087.614-.553.273.566.273.088.614.429-.443.613.098Zm-.878 4.181.111-.459-.428.196-.41-.235.059.468-.351.312.458.087.194.442.222-.419h.467Zm3.606 2.494h.361l-.195-.302.136-.341-.36.097-.272-.243v.37l-.312.195.34.127.088.36Zm-8.77 0h-.443l.244.371-.166.399.429-.117.332.283v-.443l.37-.233-.409-.147-.111-.428Zm4.975-17.492.322-.536-.623.088-.42-.442-.117.605-.58.266.553.272.253.78.379-.633h.664"/></svg>