<svg xmlns="http://www.w3.org/2000/svg" viewBox="0 0 24 24"><path fill="#44739e" d="M22.512 12.546a1.626 1.626 0 0 0-.615-1.273 1.672 1.672 0 0 0-.694-2.469 1.568 1.568 0 0 0-.116-1.43 1.67 1.67 0 0 0-1.157-.81 1.743 1.743 0 0 0-.501-1.351 1.661 1.661 0 0 0-1.351-.501 1.588 1.588 0 0 0-.66-1.055 1.89 1.89 0 0 0-.032-2.148 1.387 1.387 0 0 0-1.201-.503 8.86 8.86 0 0 0-3.629 1.241 2.3 2.3 0 0 0-1.186-.011 8.82 8.82 0 0 0-3.671-1.23 1.37 1.37 0 0 0-1.235.579 1.883 1.883 0 0 0-.02 2.17 1.59 1.59 0 0 0-.52.958 1.729 1.729 0 0 0-1.852 1.853 1.635 1.635 0 0 0-1.157.81 1.848 1.848 0 0 0-.116 1.43 1.54 1.54 0 0 0-.926 1.08 1.591 1.591 0 0 0 .23 1.387 1.76 1.76 0 0 0-.617 1.311 1.629 1.629 0 0 0 .617 1.273 1.672 1.672 0 0 0 .694 2.469 1.568 1.568 0 0 0 .116 1.429 1.67 1.67 0 0 0 1.157.811 1.743 1.743 0 0 0 .501 1.35 1.664 1.664 0 0 0 1.351.502 1.64 1.64 0 0 0 .811 1.152 1.848 1.848 0 0 0 1.43.11 1.54 1.54 0 0 0 1.081.926 1.591 1.591 0 0 0 1.389-.231 1.766 1.766 0 0 0 1.309.625 2.114 2.114 0 0 0 1.429-.66 1.73 1.73 0 0 0 1.389.231 1.63 1.63 0 0 0 1.08-.926 1.567 1.567 0 0 0 1.43-.11 1.675 1.675 0 0 0 .81-1.157 1.744 1.744 0 0 0 1.351-.502 1.657 1.657 0 0 0 .501-1.35 1.639 1.639 0 0 0 1.157-.81 1.848 1.848 0 0 0 .117-1.43 1.54 1.54 0 0 0 .926-1.08 1.591 1.591 0 0 0-.235-1.387 1.629 1.629 0 0 0 .617-1.274Zm-5.783-3.125a1.76 1.76 0 0 0 1.042.77 1.767 1.767 0 0 0-.193 1.272 1.993 1.993 0 0 0 .695 1.119 1.804 1.804 0 0 0-.695 1.119 1.623 1.623 0 0 0 .193 1.273 1.87 1.87 0 0 0-1.042.77 1.913 1.913 0 0 0-.308 1.274 1.908 1.908 0 0 0-1.274.309 1.75 1.75 0 0 0-.769 1.041 1.886 1.886 0 0 0-2.392.501 1.8 1.8 0 0 0-1.119-.693 1.623 1.623 0 0 0-1.273.192 1.87 1.87 0 0 0-.77-1.041 1.908 1.908 0 0 0-1.273-.309 1.902 1.902 0 0 0-.309-1.273 1.746 1.746 0 0 0-1.042-.77 1.77 1.77 0 0 0 .191-1.272 1.988 1.988 0 0 0-.693-1.118 1.988 1.988 0 0 0 .693-1.119 1.62 1.62 0 0 0-.192-1.273 1.87 1.87 0 0 0 1.041-.77 1.902 1.902 0 0 0 .309-1.272 1.7 1.7 0 0 0 .411.007l-.608 1.224a.431.431 0 0 0 .077.425.351.351 0 0 0 .424.077l1.508-.617.308 1.466c0 .155.155.27.309.309h.038a.534.534 0 0 0 .386-.194l1.572-3.144 1.552 3.106a.372.372 0 0 0 .348.232h.077a.417.417 0 0 0 .309-.309l.309-1.505 1.504.617a.378.378 0 0 0 .502-.501l-.598-1.19a1.74 1.74 0 0 0 .439 0 1.902 1.902 0 0 0 .308 1.272ZM8.943 7.743c.023-.019.045-.039.067-.059.038-.038.038-.077.077-.115l.036-.053a5.08 5.08 0 0 0 1.854-.526l.487-.243.037.007-1.333 2.705-.155-.81c-.039-.11-.077-.231-.193-.27a.35.35 0 0 0-.192-.038.234.234 0 0 1-.157-.039l-1.003.385Zm3.423-.985c.039 0 .039 0 .077.04l.463.231a4.465 4.465 0 0 0 1.852.54l.618 1.235-1.004-.386c-.077-.077-.192-.039-.309 0a.445.445 0 0 0-.192.269l-.154.811Zm3.896-4.976a.732.732 0 0 1 .502.193c.309.347.232.849-.116 1.505a5.63 5.63 0 0 0-.424 2.546.732.732 0 0 1-.66.694.56.56 0 0 1-.232.038h-.269a4.66 4.66 0 0 1-1.706-.447 2.276 2.276 0 0 0 .823-1.236l.005-.022c.007-.026.012-.051.018-.077s.016-.076.022-.11.007-.047.011-.072l.006-.051c0-.029.006-.058.008-.086V4.32c0-.029 0-.06-.008-.09v-.041c0-.029-.007-.058-.013-.087s-.015-.086-.025-.129l-.008-.032a1.6 1.6 0 0 0-.026-.098l-.007-.023a1.6 1.6 0 0 0-.037-.11v-.008a1.3 1.3 0 0 0-.045-.11c-.017-.034-.027-.059-.041-.089l-.006-.012a2.595 2.595 0 0 0-.659-.849 8.47 8.47 0 0 1 2.893-.849Zm-3.874 1.224a.34.34 0 0 0 .095.05 1.46 1.46 0 0 1 .264.11 1.54 1.54 0 0 1-.141 2.706 1.5 1.5 0 0 1-.201.075 2.3 2.3 0 0 1-.463.077 1.5 1.5 0 0 1-.33-.036.33.33 0 0 0-.096-.041 1.54 1.54 0 0 1-1.083-1.139v-.04l-.008-.043v-.424a1.54 1.54 0 0 1 1.98-1.297Zm-5.307-.99a.62.62 0 0 1 .501-.232h.077a8.44 8.44 0 0 1 2.894.849l-.061.051a2.326 2.326 0 0 0-.827 1.388v.02c-.005.034-.011.067-.015.1v.034c0 .032-.007.062-.009.094v.335c0 .028 0 .057.008.085l.006.053c0 .023.007.046.011.07s.014.074.021.109l.02.086a2.468 2.468 0 0 0 .84 1.301q-.115.063-.234.119a4.36 4.36 0 0 1-1.251.309.41.41 0 0 0-.162-.032h-.309a1.1 1.1 0 0 0-.237-.031c-.659-.192-.659-.617-.659-.732a6.42 6.42 0 0 0-.348-2.276.31.31 0 0 0-.06-.077c-.028-.063-.049-.102-.055-.11-.386-.66-.425-1.158-.154-1.505Zm13.888 11.455a.33.33 0 0 0-.269.309.367.367 0 0 0 .154.386.86.86 0 0 1 .347.964.88.88 0 0 1-.77.66.387.387 0 0 0-.309.232.473.473 0 0 0 .079.386.88.88 0 0 1 .077 1.042.854.854 0 0 1-.926.424.449.449 0 0 0-.386.154.356.356 0 0 0-.039.386.849.849 0 0 1-.192 1.003.835.835 0 0 1-1.003.194.354.354 0 0 0-.386.038.394.394 0 0 0-.155.385.806.806 0 0 1-.424.926.88.88 0 0 1-1.042-.077.367.367 0 0 0-.385-.077.33.33 0 0 0-.232.309.871.871 0 0 1-.66.77.858.858 0 0 1-.964-.347.495.495 0 0 0-.384-.158.377.377 0 0 0-.309.271.912.912 0 0 1-1.697 0 .33.33 0 0 0-.309-.271h-.039a1.14 1.14 0 0 0-.386.117.859.859 0 0 1-.964.346.873.873 0 0 1-.66-.77.383.383 0 0 0-.232-.309.473.473 0 0 0-.385.077.88.88 0 0 1-1.042.077.854.854 0 0 1-.424-.926.44.44 0 0 0-.152-.386.354.354 0 0 0-.386-.038.849.849 0 0 1-1.002-.194.836.836 0 0 1-.193-1.003.356.356 0 0 0-.038-.386.395.395 0 0 0-.386-.154.856.856 0 0 1-.926-.424.88.88 0 0 1 .077-1.042.367.367 0 0 0 .078-.386.338.338 0 0 0-.309-.23.872.872 0 0 1-.77-.66.861.861 0 0 1 .347-.965.495.495 0 0 0 .154-.386.373.373 0 0 0-.275-.305.912.912 0 0 1 0-1.698.33.33 0 0 0 .271-.308.367.367 0 0 0-.154-.386.861.861 0 0 1-.348-.965.88.88 0 0 1 .77-.66.383.383 0 0 0 .308-.231.476.476 0 0 0-.077-.386.947.947 0 0 1-.077-1.041.854.854 0 0 1 .926-.424.449.449 0 0 0 .386-.154.603.603 0 0 0 .121-.456.849.849 0 0 1 .193-1.003.835.835 0 0 1 1.003-.193.352.352 0 0 0 .386-.039.394.394 0 0 0 .155-.385.786.786 0 0 1 .041-.408 7.15 7.15 0 0 1 .11 1.333 1.523 1.523 0 0 0 .854 1.32 1.11 1.11 0 0 1-.7-.279.372.372 0 0 0-.54 0 .411.411 0 0 0 .001.534 1.107 1.107 0 0 1 .077 1.351 1.128 1.128 0 0 1-1.272.424.44.44 0 0 0-.501.231.383.383 0 0 0 .192.501 1.032 1.032 0 0 1 .579 1.197 1.076 1.076 0 0 1-1.003.886.382.382 0 0 0-.348.386 1.01 1.01 0 0 0 .232.502 1.076 1.076 0 0 1 1.003.887 1.032 1.032 0 0 1-.578 1.197.383.383 0 0 0-.194.501.401.401 0 0 0 .502.231 1.127 1.127 0 0 1 1.273.425 1.058 1.058 0 0 1-.072 1.354.372.372 0 0 0 0 .54.411.411 0 0 0 .54 0 1.107 1.107 0 0 1 1.351-.077 1.128 1.128 0 0 1 .419 1.273.44.44 0 0 0 .231.501.382.382 0 0 0 .501-.192 1.1 1.1 0 0 1 2.084.424.387.387 0 0 0 .77 0 1.076 1.076 0 0 1 .887-1.003 1.032 1.032 0 0 1 1.197.579.382.382 0 0 0 .501.192.401.401 0 0 0 .231-.501 1.126 1.126 0 0 1 .425-1.273 1.057 1.057 0 0 1 1.35.077.373.373 0 0 0 .54 0 .411.411 0 0 0 0-.54 1.107 1.107 0 0 1-.077-1.35 1.126 1.126 0 0 1 1.273-.425.44.44 0 0 0 .501-.23.383.383 0 0 0-.192-.502 1.1 1.1 0 0 1 .424-2.089.388.388 0 0 0 0-.77 1.074 1.074 0 0 1-1.003-.888 1.032 1.032 0 0 1 .579-1.196.383.383 0 0 0 .192-.502.401.401 0 0 0-.501-.231 1.128 1.128 0 0 1-1.273-.424 1.057 1.057 0 0 1 .077-1.35.373.373 0 0 0 0-.54.411.411 0 0 0-.54 0 1.07 1.07 0 0 1-.849.269 1.389 1.389 0 0 0 .928-1.326.9.9 0 0 0 0-.134c0-.199.007-.381.016-.55a6.7 6.7 0 0 1 .079-.705c.007-.035.013-.071.021-.105a.726.726 0 0 1 .115.579.448.448 0 0 0 .155.386.354.354 0 0 0 .385.038.848.848 0 0 1 1.003.193.835.835 0 0 1 .197 1.009.356.356 0 0 0 .039.386.395.395 0 0 0 .386.154.857.857 0 0 1 .926.425.88.88 0 0 1-.078 1.041.37.37 0 0 0-.077.386.337.337 0 0 0 .309.232.831.831 0 0 1 .769.66.86.86 0 0 1-.347.964.396.396 0 0 0-.155.386.378.378 0 0 0 .27.309.912.912 0 0 1 0 1.697"/></svg>