<svg xmlns="http://www.w3.org/2000/svg" viewBox="0 0 24 24"><path fill="#44739e" d="M10.735 6.619a7.57 7.57 0 0 0-7.571 7.571 7.572 7.572 0 0 0 15.143 0 7.58 7.58 0 0 0-7.572-7.571m2.938 10.107a4.058 4.058 0 0 1-3.537 1.199 3.87 3.87 0 0 0 1.522-1.656 2.547 2.547 0 0 0 1.623-2.366 2.51 2.51 0 0 0-.283-1.144 3.944 3.944 0 0 1 1.738.387 4.058 4.058 0 0 1-1.063 3.581Zm-1.516-4.935a2.53 2.53 0 0 0-1.422-.434 2.543 2.543 0 0 0-2.339 1.54 3.3 3.3 0 0 1-.68-1.714 4.063 4.063 0 0 1 6.569.718 6.05 6.05 0 0 0-2.128-.11m.11 2.112a1.528 1.528 0 1 1-1.528-1.528 1.528 1.528 0 0 1 1.523 1.528Zm-5.315-1.505a4.42 4.42 0 0 0 1.265 1.773 2.53 2.53 0 0 0 2.154 2.24 3.3 3.3 0 0 1-1.65 1.028 4.057 4.057 0 0 1-1.77-5.041Zm13.93-11.127V1H17v.427l-1.089.234v.01h-4.93a1.258 1.258 0 0 0-1.258 1.258v2.514a8.807 8.807 0 1 0 1.678-.032V3.348h4.509v.026l1.089.234v.459h3.882v-.27h1.198v-2.53Zm-4.509 7.287a7.969 7.969 0 0 1-5.633 13.6 7.967 7.967 0 1 1 5.628-13.6Zm5.33-5.145h-.624v-1.76h.624Z"/></svg>