<svg xmlns="http://www.w3.org/2000/svg" viewBox="0 0 24 24"><path fill="#44739e" d="M13.108 9.395V6.748h.279l.357-.021V2.893l-.019-.353h-.429V1h-2.598v1.54h-.092l-.357.02v3.829l.021.358h.616v2.648a5.45 5.45 0 0 0-4.327 5.326v2.838a5.441 5.441 0 0 0 10.882 0v-2.838a5.447 5.447 0 0 0-4.333-5.326m-1.736-7.648h1.251v.793h-1.251Zm1.084 10.161a4.196 4.196 0 0 1 3.206 2.118 6.21 6.21 0 0 0-2.2-.11 2.62 2.62 0 0 0-1.471-.45 2.63 2.63 0 0 0-2.42 1.596 3.4 3.4 0 0 1-.702-1.78 4.2 4.2 0 0 1 3.587-1.374m1.121 4.188a1.581 1.581 0 1 1-1.58-1.579 1.581 1.581 0 0 1 1.58 1.579m-5.556 1.395a4.195 4.195 0 0 1 .064-2.951 4.565 4.565 0 0 0 1.308 1.833 2.621 2.621 0 0 0 2.225 2.318 3.41 3.41 0 0 1-1.703 1.062 4.202 4.202 0 0 1-1.894-2.262m7.016 1.525a4.198 4.198 0 0 1-3.658 1.24 4.004 4.004 0 0 0 1.572-1.713 2.63 2.63 0 0 0 1.679-2.447 2.596 2.596 0 0 0-.293-1.183 4.1 4.1 0 0 1 1.797.4 4.2 4.2 0 0 1-1.097 3.703"/></svg>