<svg xmlns="http://www.w3.org/2000/svg" fill="#44739e" viewBox="0 0 24 24"><path d="M8.8866 12.1325h1.007a.83.83 0 0 1 .214.07.71.71 0 0 0 .308.08h3.122a.71.71 0 0 0 .308-.08.83.83 0 0 1 .214-.07c.048-.006.361 0 1.007 0 1.584.006 4.531.017 6.137-.107.139-.011.389-.048.54-.072-.114-.009-7.347-.052-7.42-.053a2 2 0 0 0-.318.046c-.047.015-.151.061-.251.106s-.228.1-.286.12c-.159.048-1.512.049-1.569.049v-.038l-.007.037c-.381 0-1.271-.01-1.4-.048-.058-.018-.174-.07-.286-.12s-.2-.091-.251-.106a1.95 1.95 0 0 0-.321-.046c-.071 0-7.3.044-7.418.054.152.024.4.061.541.072 1.598.123 4.545.112 6.129.106m5.519.292h-4.873c0 .034.036.136.252.325a1.023 1.023 0 0 0 .857.259h1.281v.016-.015h1.372a1.019 1.019 0 0 0 .857-.259c.218-.19.25-.292.254-.326m-3.989.2a.8.8 0 0 0-.11-.009c-.084 0-.135.02-.135.067s.054.067.134.067a1 1 0 0 0 .111-.008h.01l-.009.045a1.1 1.1 0 0 1-.131.01c-.151 0-.224-.048-.224-.117s.074-.116.228-.116a1 1 0 0 1 .127.01l.009.045h-.01zm.534.165h-.111v-.082h-.177v.082h-.108v-.218h.108v.081h.177v-.081h.111zm.393 0-.12-.109h.032a.35.35 0 0 0 .054 0c.031-.005.045-.017.045-.031s-.01-.023-.041-.028a.4.4 0 0 0-.058 0h-.053v.167h-.106v-.217h.162a.56.56 0 0 1 .13.011c.059.013.075.034.075.059s-.016.035-.048.045a.2.2 0 0 1-.057.011l.122.087zm.531-.171-.1.085v.091h-.11v-.089l-.157-.131h.128l.107.093.093-.084.009-.009h.075zm.273.185a.8.8 0 0 1-.17-.017l.01-.046h.011v-.007a.52.52 0 0 0 .145.021c.065 0 .087-.009.087-.024l-.005-.01a.46.46 0 0 0-.109-.019c-.079-.009-.137-.022-.137-.072s.1-.066.173-.066a1.04 1.04 0 0 1 .171.014l-.009.042h-.009v.007a.55.55 0 0 0-.127-.016c-.065 0-.078.006-.078.019v.008a.32.32 0 0 0 .09.016c.118.014.159.034.159.073.005.052-.097.071-.202.071zm.684-.011h-.355v-.221h.109v.172h.243zm.454 0h-.361v-.221h.357v.036h-.01v.005h-.235v.048h.24v.036h-.24v.051h.25zm.369 0-.123-.112h.088c.031-.005.044-.017.045-.031s-.01-.023-.041-.028a.4.4 0 0 0-.058 0h-.053v.173h-.109v-.223h.166a.66.66 0 0 1 .134.011c.061.014.077.036.077.061s-.017.036-.05.047a.17.17 0 0 1-.058.01l.125.09zm7.555-.692c-1.609.124-4.559.113-6.143.107h-1a.73.73 0 0 0-.193.064.79.79 0 0 1-.339.087h-3.119a.79.79 0 0 1-.339-.087.73.73 0 0 0-.193-.064c-.045-.006-.444-.005-1 0-1.585.006-4.534.017-6.143-.107-.211-.016-.655-.09-.674-.093h-.011v.012a.14.14 0 0 0 .01.046l-.025-.013a1.626 1.626 0 0 0 .664.5 1.945 1.945 0 0 0 .876.264l1.267.194c1.994.315 4.969.769 5.013.776 0 0 .143.02.322.039a4.42 4.42 0 0 0 .886.041 2.3 2.3 0 0 1 .438-.126 3.5 3.5 0 0 1 .445-.026 3.34 3.34 0 0 1 .5.025 2.3 2.3 0 0 1 .439.126 4.4 4.4 0 0 0 .885-.041c.179-.019.319-.038.322-.039.044-.007 3.019-.461 5.013-.776l1.267-.194a2.07 2.07 0 0 0 .876-.264 1.414 1.414 0 0 0 .664-.5l-.025.013a.12.12 0 0 0 .01-.046v-.014h-.025c-.013.006-.457.08-.668.096m-12.1 1.071c-.442-.189-1.039-.624-1.174-.678a.63.63 0 0 0-.274-.038s-3.073-.124-3.423-.151-.974-.1-.974-.1l4.523.073a1.35 1.35 0 0 1 .24.034.74.74 0 0 1 .2.1h1.149s-.393.011-.425.027-.011.027-.011.027h-.827l.032.033.248.032.188.156h.9a.87.87 0 0 0-.2.059l-.032.027.394.078h-.8.005a2.53 2.53 0 0 0 .629.29c.393.113 1.093.232 1.093.232a5.54 5.54 0 0 1-1.461-.201m4.187-.13h-2.68a1.39 1.39 0 0 1-.62-.1 1.1 1.1 0 0 1-.256-.177c-.3-.253-.264-.369-.264-.369h.02v-.013h4.937v.013h.02s.036.116-.264.369a1.12 1.12 0 0 1-.256.177 1.39 1.39 0 0 1-.62.1zm6.432-.737c-.35.027-3.423.151-3.423.151a.63.63 0 0 0-.274.038c-.135.054-.732.489-1.174.678a5.54 5.54 0 0 1-1.453.21s.7-.119 1.093-.232a2.55 2.55 0 0 0 .63-.29h.005-.827l.395-.078h.017l-.032-.027a.87.87 0 0 0-.2-.059h.9l.188-.156.248-.032.032-.033h-.823s.021-.011-.011-.027-.425-.027-.425-.027h1.146a.74.74 0 0 1 .2-.1 1.35 1.35 0 0 1 .24-.034l4.523-.073s-.627.069-.975.095zm-9.021-1.533v.091h.476v-.391l.626-.554v-.037h-.322l-.117.105-.326.276-.339-.276-.12-.105h-.554v.037l.676.562zm8.58.056v-.742c.065 0 .137-.012.249-.012a2 2 0 0 1 .269.012c.121.019.174.055.187.1-.015.051-.079.1-.209.114a1.74 1.74 0 0 1-.245.014h-.144v.06l.541.492h.606v-.094l-.461-.31a.9.9 0 0 0 .168-.04c.145-.047.216-.122.217-.206v-.044a.2.2 0 0 0-.131-.182.8.8 0 0 0-.206-.071 2.74 2.74 0 0 0-.587-.049c-.343 0-.7.013-.731.015v.985h.477zm-10.771 0v-.742c.066 0 .138-.012.25-.012a2 2 0 0 1 .268.012c.122.019.175.055.188.1-.015.051-.08.1-.208.113a1.8 1.8 0 0 1-.246.014h-.145v.06l.542.492h.605v-.093l-.461-.31a.9.9 0 0 0 .168-.04c.145-.047.217-.122.217-.206a.2.2 0 0 0 0-.027v-.017a.2.2 0 0 0-.131-.182.8.8 0 0 0-.206-.071 2.75 2.75 0 0 0-.587-.049c-.342 0-.7.013-.73.015v.985h.476zm-4.283.078a4.6 4.6 0 0 0 .577-.044l.042-.236v-.041a4.5 4.5 0 0 1-.519.037c-.354 0-.6-.076-.62-.263.023-.2.256-.28.627-.28a3.8 3.8 0 0 1 .512.04v-.044l-.02-.09-.022-.1a4.4 4.4 0 0 0-.563-.043 1.616 1.616 0 0 0-.767.145.384.384 0 0 0-.239.345v.062c0 .304.322.512.992.512m9.598-.329v-.073c0-.159-.18-.241-.691-.3-.193-.021-.4-.035-.43-.1.021-.042.1-.062.358-.062a2.6 2.6 0 0 1 .592.073l.034-.2v-.023a4.36 4.36 0 0 0-.744-.063 1.17 1.17 0 0 0-.688.147.17.17 0 0 0-.064.132v.047c0 .219.254.272.6.315.292.036.454.051.5.1-.038.043-.153.066-.393.066a2.8 2.8 0 0 1-.675-.089c0 .008-.045.237-.045.237a.11.11 0 0 0 0 .038 3.46 3.46 0 0 0 .739.073c.464.011.907-.069.907-.318m4.351.197v-.15h-1.112v-.16h1.07v-.215h-1.07v-.172h1.091l.001-.16v-.037h-1.568v.985h1.588v-.037zm-12.183.054v-.349h.827v.386h.476v-.985h-.476v.368h-.827v-.368h-.477v.985h.477zm10.064-.054v-.166h-1.081l.001-.691v-.037h-.477v.985h1.557v-.037zM2.341 12h-.127a.32.32 0 0 0-.125.057.37.37 0 0 1 .139-.055z"/></svg>