<svg xmlns="http://www.w3.org/2000/svg" viewBox="0 0 24 24"><path fill="#44739e" d="M18.105 15.665a.195.195 0 0 0 .166.057c.124-.014.128-.203.128-.203s.029-.433.029-.868a1.782 1.782 0 0 0-.429-1.029s-4.445-4.897-6.002-4.897-6.002 4.897-6.002 4.897a1.782 1.782 0 0 0-.429 1.029c0 .44.03.868.03.868s0 .189.127.203a.196.196 0 0 0 .167-.057c.497-.432 4.463-3.839 6.107-3.839s5.612 3.407 6.108 3.839M5.726 11.217a.196.196 0 0 0 .166-.057c.494-.433 4.461-3.839 6.105-3.839s5.612 3.411 6.108 3.839a.195.195 0 0 0 .166.057c.124-.014.128-.204.128-.204s.029-.433.029-.868a1.787 1.787 0 0 0-.429-1.03s-4.445-4.897-6.002-4.897-6.002 4.897-6.002 4.897a1.787 1.787 0 0 0-.429 1.03c0 .435.03.868.03.868s.003.19.13.204M18.064 17a.52.52 0 0 0-.272-.069.51.51 0 0 0-.272.069.195.195 0 0 0-.11.166.198.198 0 0 0 .11.167.583.583 0 0 0 .539 0c.068-.04.14-.11.22-.11a.44.44 0 0 1 .22.11.523.523 0 0 0 .272.068.506.506 0 0 0 .275-.068.199.199 0 0 0 .11-.167.195.195 0 0 0-.11-.166.57.57 0 0 0-.551 0c-.072.045-.129.11-.22.11s-.134-.065-.211-.11m-.409 2.268v-.382h1.604v-.351h-1.604v-.349s0-.101.119-.101h1.839v-.282c0-.081-.088-.078-.09-.078h-2.575a.075.075 0 0 0-.079.078v1.517a.406.406 0 0 0 .413.407h2.255a.077.077 0 0 0 .077-.074v-.281h-1.852a.099.099 0 0 1-.107-.104M2.572 17.977c.044 0 .202-.007.345 0a.814.814 0 0 1 .693.383.075.075 0 0 0 .065.037h.77a1.244 1.244 0 0 0-1.152-.716c-.277 0-.77-.017-1.094 0a1.254 1.254 0 0 0-.847.307.974.974 0 0 0-.352.736 1.127 1.127 0 0 0 1.185 1.045c.463.017.513.018 1.12 0a1.165 1.165 0 0 0 1.14-.716h-.77a.074.074 0 0 0-.066.038.795.795 0 0 1-.684.387H2.57a.751.751 0 1 1 0-1.501Zm9.523 1.018a.673.673 0 0 0 .578-.625.729.729 0 0 0-.795-.645H9.989a.404.404 0 0 0-.408.409v1.518a.073.073 0 0 0 .075.075h.71v-.709h.669a.802.802 0 0 1 .859.709h.782a.917.917 0 0 0-.581-.732m-.498-.33h-1.231v-.4a.178.178 0 0 1 .188-.186H11.6a.293.293 0 1 1 0 .586Zm-6.019-.943h-.631a.078.078 0 0 0-.077.076v1.85a.078.078 0 0 0 .077.076h.709v-1.923a.079.079 0 0 0-.078-.079m3.506 0h-2.93a.076.076 0 0 0-.076.077v.32h.7a.44.44 0 0 1 .44.44v1.094a.079.079 0 0 0 .077.076h.71v-1.505a.102.102 0 0 1 .103-.101H9.16v-.319a.076.076 0 0 0-.076-.082m12.748 0h-1.704c-.028 0-.093.007-.093.074v1.852a.072.072 0 0 0 .071.076h.713v-1.546a.098.098 0 0 1 .103-.101h.784a.581.581 0 0 1 .538.619v.953a.079.079 0 0 0 .083.078H23v-.98a1.09 1.09 0 0 0-1.168-1.025m-6.534-.026c-.541-.012-1.09 0-1.095 0a1.041 1.041 0 1 0 0 2.058s.55.011 1.095 0a1.041 1.041 0 1 0 0-2.058m-.374 1.775s-.198.006-.347 0a.77.77 0 0 1-.791-.75.758.758 0 0 1 .789-.735s.194-.008.349 0a.759.759 0 0 1 .791.735.77.77 0 0 1-.791.75"/></svg>