<svg xmlns="http://www.w3.org/2000/svg" viewBox="0 0 24 24"><path fill="#44739e" d="M1 1v22h22V1Zm21.67 21.608-21.266-.035-.074-16.41 1.253.363a5.5 5.5 0 0 1 .067-.566.65.65 0 0 1 .11-.277c0-.202.054-.359.11-.359s.103.15.11.343a1.42 1.42 0 0 1 .205.503c.044.146.097.323.168.527l.182.041-.081-.537a1.06 1.06 0 0 1-.034-.203l-.04-.263.046.035c.016-.152.057-.259.11-.259s.11.18.11.403v.019l.299.226.009.019.02.041c.046.095.159.33.297.615h3.19l-.213.766-.797 3.251-.385 1.093.346 1.672a.594.594 0 0 0 .259.382.528.528 0 0 0 .41.071l1.619-.373a.47.47 0 0 0 .087-.028.603.603 0 0 0 .35-.642l-.272-1.92-.136-.77L8.11 6.83h.726a3.67 3.67 0 0 0 .201 1.43 5.42 5.42 0 0 1 .227 1.199 2.23 2.23 0 0 1-.094.686l.168.95.272 1.923a.66.66 0 0 1-.456.735c-.156.34-.36.713-.573 1.111-.541 1.016-.02.789-.199 1.484-.188.729-.098 1.719.456 1.884a1.062 1.062 0 0 0 1.025-.377c.152-.22.064-.44 0-.709a2.49 2.49 0 0 1 .11-1.75c.11 0 .081 1.312.512 1.374.259.036.62-.388.77-.77.173-.449.029-.758-.11-1.374a9.35 9.35 0 0 1-.227-1.993c-.02-.82.102-.825.085-1.729a12 12 0 0 0-.171-1.684 5.57 5.57 0 0 0-.54-2.082 4 4 0 0 0-.197-.298h.44V5.19H3.97l-1.861-.66-.78-.33V1.392H22.67ZM2.026 5.54c0-.22.051-.404.11-.404s.11.18.11.404-.05.402-.11.402-.11-.18-.11-.402m2.488.44c0-.22.09-.404.2-.404s.2.18.2.404-.089.402-.2.402-.194-.176-.194-.398Zm1.352.028c0-.22.09-.402.2-.402s.199.18.199.402-.09.403-.199.403-.2-.176-.2-.398Zm1.658-.028c0-.22.089-.404.199-.404s.2.18.2.404a.69.69 0 0 1-.05.266l-.174-.308-.099.364a.627.627 0 0 1-.076-.318Zm.44.85.736 4.479-2.31.485L7.574 6.83Zm-.282-.457.038-.157.078.138a.11.11 0 0 1-.074.028.11.11 0 0 1-.043 0ZM9.09 5.98c0-.22.09-.404.2-.404s.2.18.2.404a.77.77 0 0 1-.027.199.4.4 0 0 0-.282-.074.25.25 0 0 0-.075.029.77.77 0 0 1-.017-.15Zm-3.762 8.972a7.7 7.7 0 0 1-.323-.778 2.01 2.01 0 0 1-.117-.913 9.8 9.8 0 0 0-.088-1.855 7.81 7.81 0 0 0-.5-2.276 3.8 3.8 0 0 0-.33-.61 6.05 6.05 0 0 1-.405-.738 10.7 10.7 0 0 1-.583-1.551c-.038-.126-.077-.255-.11-.33a8.25 8.25 0 0 0-.155 1.558 22.8 22.8 0 0 0-.022 2.45 6.9 6.9 0 0 1-.025 1.002c-.033.509-.088 1.361-.174 3.15-.176 3.785-.149 4.539-.139 4.782a1.05 1.05 0 0 1 0 .166.52.52 0 0 1 .1-.082.38.38 0 0 1 .207-.057 1.5 1.5 0 0 1 .44.11c.088.028.187.061.304.096a2.92 2.92 0 0 0 .962.195 1.21 1.21 0 0 0 .919-.4.59.59 0 0 0 .135-.323.6.6 0 0 0-.059-.266.264.264 0 0 1-.008-.278.279.279 0 0 1 .283-.066c.081.011.142.016.17-.011.05-.049.042-.193.035-.298a1.06 1.06 0 0 0-.023-.166c-.014-.073-.029-.155.042-.209.094-.071.198 0 .291.071l.062.044a3 3 0 0 0-.188-.729c-.309-.833-.526-1.307-.7-1.688m.401-3.912c-.304-.938-.763-2.35-.794-2.42S4.19 7.063 3.807 6.27l-.194-.146.283 1.855c.1.192.18.317.252.432a4.03 4.03 0 0 1 .339.638 8 8 0 0 1 .517 2.333 10.05 10.05 0 0 1 .089 1.89 1.826 1.826 0 0 0 .11.837 7.5 7.5 0 0 0 .316.758c.176.383.396.862.703 1.697l.02.056.297-.927.225-.912-.58-.834Zm14.302 6.306h.413l.158-2.928h-.557Zm-7.214.114h.413l.157-2.927h-.555Zm9.238-3.713-1.583.021a.78.78 0 0 0 .241-.086c.357-.193.517-.668.464-.721-.029-.028-.11.082-.336.182-.174.076-.344.149-.463.066-.103-.073-.06-.183-.204-.33-.013-.013-.163-.162-.247-.11-.043.026-.029.08-.083.131-.075.07-.181.038-.183.058s.068.02.139.073a.44.44 0 0 1 .14.196c.044.11.013.151.044.247a.457.457 0 0 0 .203.241.37.37 0 0 0 .149.052l-1.287.016a.55.55 0 0 0 .091-.076c.096-.097.266-.33.203-.509-.136-.385-1.32-.366-1.43-.008-.056.185.178.44.311.539a.9.9 0 0 0 .098.064l-2.925.037 2.377-.039v-2.113l-3.004.067v2.098l-3.047.039v.505l10.33-.168Zm-7.219-1.931 2.875-.064v1.971l-2.875.048Zm5.996-7.201-9.107.166v6.549l8.976-.173Zm-.621 6.09-7.988.154V5.233l8.101-.148Zm-5.22 2.952 2.566-.043v-1.749l-2.566.058Z"/></svg>