<svg xmlns="http://www.w3.org/2000/svg" fill="#44739e" viewBox="0 0 24 24"><path d="M8.454 11.7a2.51 2.51 0 0 0-2.013 1.629c-.124.347-.213.463-.374.49-.249.036-.347.151-.347.427 0 .17.053.205.249.205.232 0 .25.027.214.267-.027.178-.089.267-.2.267-.169 0-.267.17-.267.455 0 .133.062.169.294.169.267 0 .3.026.392.383a2.659 2.659 0 0 0 3.223 1.665l.454-.107v-.632c0-.588-.009-.615-.16-.481a1.93 1.93 0 0 1-1.291.294A1.585 1.585 0 0 1 7.6 15.88l-.089-.267h.917c.882 0 .926-.009.98-.205.106-.419.106-.419-.971-.419H7.412v-.534h1.113c.828 0 1.113-.027 1.113-.116a2 2 0 0 1 .054-.311c.053-.2.053-.2-1.069-.2a5 5 0 0 1-1.123-.059 1.977 1.977 0 0 1 .748-.952 1.9 1.9 0 0 1 1.4-.009c.294.16.285.169.419-.508.08-.418.08-.418-.2-.507a3.16 3.16 0 0 0-1.413-.093m2.787-3.14v3.713l2.627 2.627 2.632 2.627.552-.561.561-.552-2.431-2.431-2.422-2.422V4.838h-1.519Zm-.579-6.474a9.82 9.82 0 0 0-5.53 2.681 9.29 9.29 0 0 0-2.083 2.787 9.972 9.972 0 0 0 0 8.9 9.1 9.1 0 0 0 1.941 2.658A9.979 9.979 0 1 0 18.846 4.749a9.88 9.88 0 0 0-8.184-2.663M14 3.769a10.23 10.23 0 0 1 3.081 1.452 8.885 8.885 0 0 1 3.17 4.835 9.28 9.28 0 0 1-.045 4.052 8.615 8.615 0 0 1-6.26 6.153 9.3 9.3 0 0 1-4.046-.044 8.578 8.578 0 0 1-6.108-6.109 6.42 6.42 0 0 1-.232-2.1 6.42 6.42 0 0 1 .232-2.1 9.88 9.88 0 0 1 1.225-2.719A9.165 9.165 0 0 1 9.46 3.9 9.015 9.015 0 0 1 14 3.769"/></svg>