<svg xmlns="http://www.w3.org/2000/svg" data-name="Livello 1" viewBox="0 0 24 24"><path fill="#44739e" d="M13.2813 4.4844a4.7 4.7 0 0 0-.9122.0449 5.49 5.49 0 0 0-3.8398 2.7012c-.42.64-.6 1.4891-1 2.1191-1.73-1.5-4.36.1-4 3.5h-.1992a3.35 3.35 0 0 0-2.1797 1.33 5.75 5.75 0 0 0-1.0899 2.6212v1.4785c.17.12.3589.121.5489.121h15.6015c.21-.01.3185-.1704.3985-.4804.4-1.64-.2703-2.6406-1.3203-2.6406-2.73-.03-5.4595-.079-8.1895-.129-.16 0-.4592.1499-.4492-.2401s.2987-.2403.4687-.2403a238 238 0 0 1 8.1016-.1406c1.17-.01 2.58-1.0586 3-3.0586a1.58 1.58 0 0 1 .1797-.5312A1.62 1.62 0 0 0 18.4492 9.5c-.12-.29-.2086-.6006-.3086-.8906A6.62 6.62 0 0 0 16.5098 6a4.68 4.68 0 0 0-3.2285-1.5156m6.0546 5.9687c-.3393.009-.3818.2294-.5468 1.0469-.03.17-.0996.3395-.0996.5195-.29 1.47.1414 2.3607 1.1914 2.4707.57.06 1.1387.1407 1.7187.1407.11.02.3608-.0613.3008.2187s-.2404.2813-.4004.2813c-.43.05-.8705.1093-1.3105.1093-1.48 0-2.5902.89-3.1602 3 .13.1.2704.0996.4004.0996h6.1797A.56.56 0 0 0 24 18.2402l-.0508-3.4609c-.12-.28-.2398-.5596-.3398-.8496A4.8 4.8 0 0 0 19.789 10.5c-.195-.03-.34-.0498-.4532-.0469" class="cls-1" data-name="Colore riempimento 1"/></svg>