<svg xmlns="http://www.w3.org/2000/svg" viewBox="0 0 24 24"><path fill="#44739e" d="M14.663 7.524a4.07 4.07 0 0 0-3.197.55.284.284 0 0 0-.05.431.379.379 0 0 0 .485.068 3.34 3.34 0 0 1 2.629-.452 3.015 3.015 0 0 1 2.465 3.452l-.03.131a2.86 2.86 0 0 1-.145.456.373.373 0 0 0 .186.463.312.312 0 0 0 .44-.139 3.43 3.43 0 0 0 .213-.71l.01-.043a3.672 3.672 0 0 0-3.006-4.207m3.3 14.397H16.95l1.169-1.275a.922.922 0 0 0 .01-1.138 1.394 1.394 0 0 0-1.127-.524 1.302 1.302 0 0 0-1.419 1.133.472.472 0 0 0 .92 0 .46.46 0 0 1 .507-.398.393.393 0 0 1 .324.158.32.32 0 0 1 .02.359l-1.683 1.836a.306.306 0 0 0-.039.382.483.483 0 0 0 .41.201h1.92a.376.376 0 1 0 0-.734Zm-9.412-1.885a2.27 2.27 0 0 1-.833.154 1.728 1.728 0 0 1-1.884-1.501 1.728 1.728 0 0 1 1.884-1.502 2.27 2.27 0 0 1 .824.151.517.517 0 0 0 .615-.17.338.338 0 0 0-.212-.49 3.37 3.37 0 0 0-1.227-.22 2.571 2.571 0 0 0-2.804 2.235 2.573 2.573 0 0 0 2.804 2.236 3.37 3.37 0 0 0 1.241-.231.337.337 0 0 0 .209-.492.519.519 0 0 0-.617-.17m3.686-3.586a2.57 2.57 0 0 0-2.804 2.235 2.571 2.571 0 0 0 2.804 2.236 2.573 2.573 0 0 0 2.804-2.236 2.571 2.571 0 0 0-2.804-2.235m0 3.74a1.727 1.727 0 0 1-1.887-1.505 1.727 1.727 0 0 1 1.883-1.501 1.727 1.727 0 0 1 1.885 1.501 1.727 1.727 0 0 1-1.881 1.502Zm-4.429-4.743a.367.367 0 0 0 0-.733H5.1a3.362 3.362 0 0 1-1.153-6.523.366.366 0 0 0 .22-.453 4.375 4.375 0 1 1 8.359-2.581.368.368 0 0 0 .293.254.363.363 0 0 0 .356-.149 3.683 3.683 0 0 1 2.982-1.532h.024a3.597 3.597 0 0 1 2.623 1.128 3.663 3.663 0 0 1 1.024 2.695.367.367 0 0 0 .734.036 4.4 4.4 0 0 0-1.228-3.239 4.328 4.328 0 0 0-3.144-1.356 4.435 4.435 0 0 0-3.184 1.339 5.11 5.11 0 0 0-9.763 2.114 5.17 5.17 0 0 0 .139 1.185A4.096 4.096 0 0 0 5.1 15.447ZM21.5 8.181a.367.367 0 0 0-.464.569 3.363 3.363 0 0 1-2.13 5.964H9.311a.367.367 0 0 0 0 .733h9.595A4.097 4.097 0 0 0 21.5 8.181"/></svg>