<svg xmlns="http://www.w3.org/2000/svg" fill="#44739e" viewBox="0 0 24 24"><path d="M14.421 7.624a3.7 3.7 0 0 0-2.907.5.258.258 0 0 0-.045.392.345.345 0 0 0 .441.062 3.038 3.038 0 0 1 2.39-.411 2.741 2.741 0 0 1 2.241 3.139l-.027.119a2.6 2.6 0 0 1-.132.414.339.339 0 0 0 .169.421.284.284 0 0 0 .4-.126 3.12 3.12 0 0 0 .194-.646l.009-.039a3.339 3.339 0 0 0-2.733-3.825m3 13.09H16.5l1.063-1.159a.838.838 0 0 0 .009-1.035 1.267 1.267 0 0 0-1.024-.476 1.184 1.184 0 0 0-1.291 1.03.429.429 0 0 0 .837 0 .418.418 0 0 1 .461-.362.357.357 0 0 1 .294.144.291.291 0 0 1 .019.326l-1.531 1.669a.278.278 0 0 0-.035.348.439.439 0 0 0 .373.182h1.745a.342.342 0 1 0 0-.667zM8.864 19a2.06 2.06 0 0 1-.757.14 1.571 1.571 0 0 1-1.713-1.365 1.571 1.571 0 0 1 1.713-1.365 2.06 2.06 0 0 1 .749.137.47.47 0 0 0 .559-.154.307.307 0 0 0-.193-.446 3.06 3.06 0 0 0-1.115-.2 2.338 2.338 0 0 0-2.55 2.032 2.339 2.339 0 0 0 2.55 2.033 3.06 3.06 0 0 0 1.128-.21.306.306 0 0 0 .19-.447.472.472 0 0 0-.561-.155m3.351-3.26a2.337 2.337 0 0 0-2.549 2.032 2.338 2.338 0 0 0 2.549 2.033 2.339 2.339 0 0 0 2.55-2.033 2.338 2.338 0 0 0-2.55-2.032m0 3.4a1.57 1.57 0 0 1-1.715-1.368 1.57 1.57 0 0 1 1.712-1.365 1.57 1.57 0 0 1 1.713 1.365 1.57 1.57 0 0 1-1.71 1.365zm-4.027-4.312a.334.334 0 0 0 0-.667H5.726a3.057 3.057 0 0 1-1.048-5.93.333.333 0 0 0 .2-.412 3.978 3.978 0 1 1 7.6-2.347.335.335 0 0 0 .266.231.33.33 0 0 0 .324-.135 3.349 3.349 0 0 1 2.711-1.393h.022A3.27 3.27 0 0 1 18.186 5.2a3.33 3.33 0 0 1 .931 2.451.334.334 0 0 0 .667.032 4 4 0 0 0-1.116-2.945 3.935 3.935 0 0 0-2.859-1.232 4.032 4.032 0 0 0-2.895 1.217 4.646 4.646 0 0 0-8.876 1.922 4.7 4.7 0 0 0 .126 1.077 3.724 3.724 0 0 0 1.562 7.106Zm12.449-6.606a.334.334 0 0 0-.422.517 3.058 3.058 0 0 1-1.936 5.422H9.555a.334.334 0 0 0 0 .667h8.724a3.725 3.725 0 0 0 2.358-6.606"/></svg>