<svg xmlns="http://www.w3.org/2000/svg" viewBox="0 0 24 24"><path fill="#44739e" d="M11.705 1.001a.098.098 0 0 0-.083.098l-.014 1.268c0 .038.019.057.058.055l.167-.012a.06.06 0 0 0 .064-.07l-.017-.523c0-.022.011-.034.033-.033h.039a.023.023 0 0 1 .024.022.41.41 0 0 0 .115.389.063.063 0 0 0 .091 0l.012-.016.197-.393a.036.036 0 0 1 .049-.014.033.033 0 0 1 .019.027 3.5 3.5 0 0 1 .005.473.19.19 0 0 0 .034.138c.049.054.11.05.197-.009a.123.123 0 0 0 .052-.101V1.122a.11.11 0 0 0-.209-.053l-.385.692a.049.049 0 0 1-.067.018.052.052 0 0 1-.022-.024c-.088-.229-.054-.6-.292-.739a.102.102 0 0 0-.067-.015m-.89.068a.6.6 0 0 0-.071 0 .66.66 0 0 0-.454.793c.048.403.33.701.628.665a.66.66 0 0 0 .454-.794.696.696 0 0 0-.557-.666Zm2.365.014a.045.045 0 0 0-.043.043l-.18 1.272a.065.065 0 0 0 .049.071c.403.09 1.21.097.867-.607a.093.093 0 0 1 0-.09c.29-.519-.323-.66-.684-.687Zm1.278.22a.096.096 0 0 0-.089.074l-.298 1.185a.098.098 0 0 0 .072.118l.102.026a.097.097 0 0 0 .118-.071l.298-1.186a.097.097 0 0 0-.071-.117l-.102-.027a.09.09 0 0 0-.03 0Zm-4.988.035a.34.34 0 0 0-.143.033.086.086 0 0 0-.05.098L9.562 2.7a.055.055 0 0 0 .075.046l.578-.128a.073.073 0 0 0 .06-.065.17.17 0 0 0-.093-.197.095.095 0 0 0-.072-.006l-.241.076a.06.06 0 0 1-.077-.039q-.11-.456-.203-.912-.022-.11-.079-.126a.13.13 0 0 0-.04-.01Zm1.32.012c.129-.014.256.173.285.418.027.247-.054.458-.184.472-.128.016-.256-.171-.285-.418-.036-.246.048-.457.176-.472Zm2.696.036a.142.142 0 0 1 .12.044.137.137 0 0 1 .005.193.142.142 0 0 1-.199-.202.125.125 0 0 1 .074-.035m1.932.155a.167.167 0 0 0-.143.072q-.36.512-.707 1.062c-.033.053-.008.094.075.125a.156.156 0 0 0 .141-.018.317.317 0 0 1 .409.009.084.084 0 0 1 .035.062.22.22 0 0 0 .206.22.09.09 0 0 0 .11-.076v-.009l.042-1.272a.168.168 0 0 0-.162-.175Zm-6.811.042a.41.41 0 0 0-.142.022.66.66 0 0 0-.279.87c.131.384.469.615.754.517a.66.66 0 0 0 .279-.87.729.729 0 0 0-.612-.539m4.76.278h.009c.152 0 .274.086.273.189v.024c0 .104-.126.186-.276.184h-.01a.041.041 0 0 1-.041-.042V1.9a.041.041 0 0 1 .042-.04Zm-4.78 0c.122 0 .265.146.339.353.083.236.049.464-.076.509s-.296-.11-.38-.346c-.084-.237-.05-.464.075-.508a.11.11 0 0 1 .042-.008m7.703.02a.11.11 0 0 0-.091.058l-.512 1.058a.152.152 0 0 0 .074.204l.022.008c.22.066.308-.388.364-.539a.047.047 0 0 1 .06-.028.052.052 0 0 1 .027.024 1.02 1.02 0 0 1 .089.652.2.2 0 0 0 0 .133.203.203 0 0 0 .138.074.11.11 0 0 0 .129-.068q.22-.526.481-1.062c.043-.088.011-.154-.096-.199a.11.11 0 0 0-.154.062l-.22.491a.037.037 0 0 1-.071-.009l-.13-.771a.11.11 0 0 0-.11-.088m-8.637.084a.12.12 0 0 0-.035 0c-.757.201-.306 1.551.509 1.32a.146.146 0 0 0 .11-.205.068.068 0 0 0-.074-.052.494.494 0 0 1-.618-.483.357.357 0 0 1 .165-.367.11.11 0 0 0 .036-.158.11.11 0 0 0-.089-.052Zm7.629.078h.007c.054.017.04.209-.031.432v.011a.038.038 0 0 1-.049.025l-.129-.035a.038.038 0 0 1-.025-.05v-.011c.071-.22.171-.387.225-.369Zm-8.865.537a.066.066 0 0 0-.031.012l-.13.097a.064.064 0 0 0-.015.101l.304.43a.032.032 0 0 1-.009.046.035.035 0 0 1-.027 0l-.763-.259a.087.087 0 0 0-.11.055.089.089 0 0 0 .01.078q.336.511.668 1.024c.045.07.11.081.194.031a.126.126 0 0 0 .046-.206l-.322-.473c-.036-.052-.024-.069.036-.05a2.34 2.34 0 0 1 .695.35.143.143 0 0 0 .203-.197l-.69-1.016a.059.059 0 0 0-.057-.027Zm11.349.104a.137.137 0 0 0-.086.034l-.95.813a.132.132 0 0 0 .145.22.398.398 0 0 1 .284-.032.243.243 0 0 1 .184.235.196.196 0 0 0 .184.211.068.068 0 0 0 .077-.05l.318-1.244a.147.147 0 0 0-.11-.181.14.14 0 0 0-.047 0Zm-.201.452a.032.032 0 0 1 .027.036l-.138.381a.031.031 0 0 1-.041.018h-.007l-.149-.095a.033.033 0 0 1-.01-.044l.289-.285a.035.035 0 0 1 .025-.008Zm-5.533.055a5.6 5.6 0 0 0-.812.059.07.07 0 0 0-.057.079.068.068 0 0 0 .026.043l.786.596a.053.053 0 0 0 .067 0q.4-.277.794-.562a.11.11 0 0 0 .047-.118.042.042 0 0 0-.039-.038 5.6 5.6 0 0 0-.812-.061Zm-7.225.139a.11.11 0 0 0-.082.11c-.007.068.026.125.072.129s.088-.046.094-.11-.026-.124-.073-.129Zm14.023.097a.074.074 0 0 0-.053.026l-.836.942a.076.076 0 0 0 0 .11l.098.086a.691.691 0 0 0 .975-.028l.05-.056a.692.692 0 0 0-.088-.971l-.097-.086a.08.08 0 0 0-.055-.019ZM14 3.45a.11.11 0 0 0-.042.019l-1.441 1.07a.374.374 0 0 0-.15.299v2.219a.346.346 0 0 0 .174.302q1.974 1.138 3.944 2.287c.367.22 1.21-.22 1.835-.449a1.78 1.78 0 0 0 .346-.167.13.13 0 0 0 .053-.07l.523-1.843a.11.11 0 0 0-.015-.096 8.844 8.844 0 0 0-5.177-3.573.11.11 0 0 0-.047 0Zm-3.946 0a.154.154 0 0 0-.068 0 8.8 8.8 0 0 0-5.093 3.458.278.278 0 0 0-.047.288Q5.091 8 5.3 8.814a.398.398 0 0 0 .252.303q.849.35 1.681.61a.282.282 0 0 0 .226-.024l4.076-2.351a.306.306 0 0 0 .153-.264V4.879c0-.22-.095-.267-.252-.393q-.637-.504-1.32-1.002a.14.14 0 0 0-.062-.027Zm-4.852.067a.45.45 0 0 0-.269.11.66.66 0 0 0 .065.905.66.66 0 0 0 .886.189.66.66 0 0 0-.065-.903.796.796 0 0 0-.617-.296Zm0 .272a.527.527 0 0 1 .391.22c.158.189.205.411.103.496s-.312 0-.471-.188-.204-.411-.103-.496a.14.14 0 0 1 .08-.033Zm13.64.011a.012.012 0 0 1 .012 0h.005a.356.356 0 0 1-.013.497l-.019.022a.356.356 0 0 1-.487.097.016.016 0 0 1 0-.023l.5-.588.011-.007Zm.88.412a.05.05 0 0 0-.023.013l-.889.832a.143.143 0 0 0-.008.199l.33.354a.074.074 0 0 0 .11 0l.096-.097a.053.053 0 0 0 0-.083l-.188-.176a.058.058 0 0 1 0-.092l.212-.214a.053.053 0 0 1 .074 0l.22.23a.078.078 0 0 0 .082.019.173.173 0 0 0 .11-.212.1.1 0 0 0-.038-.068.321.321 0 0 1-.169-.242.056.056 0 0 1 .095-.05l.234.22a.054.054 0 0 0 .074 0l.11-.101a.056.056 0 0 0 0-.09l-.393-.425a.054.054 0 0 0-.05-.015Zm-15.377 0a.088.088 0 0 0-.063.027l-.079.08a.091.091 0 0 0 0 .129l.88.856a.091.091 0 0 0 .129 0l.077-.081a.09.09 0 0 0 0-.128l-.88-.856a.092.092 0 0 0-.065-.026Zm-.456.431a.063.063 0 0 0-.047.032c-.404.801.55 1.549 1.117.93a.059.059 0 0 0 .013-.063.158.158 0 0 0-.186-.117.143.143 0 0 0-.079.034.272.272 0 0 1-.254.079.539.539 0 0 1-.397-.762.062.062 0 0 0-.037-.084l-.102-.045a.07.07 0 0 0-.028 0Zm16.77.604a.044.044 0 0 0-.024.008l-1.066.77a.067.067 0 0 0-.016.094l.11.141a.042.042 0 0 0 .066.008l.476-.353a.051.051 0 0 1 .078.012l.163.22a.126.126 0 0 0 .174.025.123.123 0 0 0 .041-.143.79.79 0 0 0-.164-.247.063.063 0 0 1-.013-.062c.018-.057.065-.062.143-.019a.33.33 0 0 1 .069.052l.13.129a.119.119 0 0 0 .17 0 .12.12 0 0 0 .015-.154l-.314-.474a.047.047 0 0 0-.045-.022ZM3.09 5.716a.124.124 0 0 0-.11.132v.024a4.73 4.73 0 0 0 .829 1.1.043.043 0 0 0 .07 0l.12-.11a.065.065 0 0 0 .009-.089c-.196-.248.077-.413.301-.419a.142.142 0 0 0 .138-.147.144.144 0 0 0-.101-.132l-1.21-.36a.11.11 0 0 0-.042 0Zm.396.374a.03.03 0 0 1 .02 0l.32.116a.04.04 0 0 1 .024.049v.009l-.1.149a.038.038 0 0 1-.054.008l-.012-.006-.22-.262a.037.037 0 0 1 0-.054.044.044 0 0 1 .019-.009Zm17.717.035-.026.01c-.367.22-1.364.605-.819 1.21.353.39.973-.085 1.3-.288a.139.139 0 0 0 .048-.202.126.126 0 0 0-.168-.057c-.22.11-.434.225-.66.357-.137.08-.267.11-.362-.036a.213.213 0 0 1 .06-.296l.011-.007.77-.44a.086.086 0 0 0 .031-.116.08.08 0 0 0-.02-.023l-.11-.091a.068.068 0 0 0-.053-.014Zm.508.22a.11.11 0 0 0-.117.084c0 .052.047.098.115.105a.11.11 0 0 0 .132-.083c0-.052-.047-.099-.115-.104h-.013ZM2.76 6.578c-.259.015-.486.418-.569.613a.054.054 0 0 0 .025.07l1.106.576a.121.121 0 0 0 .163-.051.12.12 0 0 0 .013-.061.188.188 0 0 0-.17-.195.026.026 0 0 1-.022-.03.03.03 0 0 1 .012-.01l.034-.034a.066.066 0 0 1 .059-.019.293.293 0 0 0 .374-.275c0-.04-.008-.054-.047-.045l-.673.154c-.045.012-.06 0-.045-.05.059-.179.12-.414-.033-.55a.3.3 0 0 0-.22-.092Zm-.023.28a.044.044 0 0 1 .026 0l.022.012c.055.028.045.156-.022.288l-.003.019a.043.043 0 0 1-.059.019l-.141-.072a.044.044 0 0 1-.02-.059v-.013c.056-.11.138-.193.195-.194Zm19.077.413a.18.18 0 0 0-.064.013.11.11 0 0 0-.065.147l.046.11a.056.056 0 0 1-.034.083l-.937.397a.047.047 0 0 0-.027.072l.067.156a.064.064 0 0 0 .094.036l.922-.404a.055.055 0 0 1 .07.025l.076.149a.069.069 0 0 0 .094.031l.121-.072a.058.058 0 0 0 .031-.084c-.099-.196-.198-.394-.295-.592a.11.11 0 0 0-.099-.073Zm-19.759.31c-.016 0-.029.012-.039.034l-.246.535a.052.052 0 0 0 .032.08L3 8.704a.077.077 0 0 0 .101-.044v-.007a2.7 2.7 0 0 1 .153-.393.22.22 0 0 0 .025-.156.143.143 0 0 0-.156-.097.054.054 0 0 0-.057.041l-.098.271a.046.046 0 0 1-.068.031l-.33-.135a.059.059 0 0 1-.033-.077v-.005l.133-.266a.057.057 0 0 0-.025-.077l-.131-.055a.058.058 0 0 0-.086.036l-.11.278a.097.097 0 0 1-.186-.045.495.495 0 0 1 .104-.258.058.058 0 0 0-.01-.082l-.016-.006-.121-.069a.06.06 0 0 0-.034-.008m9.951.365a.41.41 0 0 0-.176.065q-1.928 1.115-3.79 2.222a.385.385 0 0 0-.177.424q.542 2.167 1.108 4.301c.11.415.07.743.642.747q2.554.021 5.051-.021a.284.284 0 0 0 .272-.22l1.253-4.884a.277.277 0 0 0-.125-.304q-1.883-1.144-3.81-2.236a.495.495 0 0 0-.248-.094m-7.779.157a.11.11 0 0 0-.088.071L3.6 9.615a.11.11 0 0 0 .063.139.11.11 0 0 0 .1-.012l.77-.532a.11.11 0 0 0 .044-.117l-.231-.91a.11.11 0 0 0-.119-.08m15.604.013a.103.103 0 0 0-.11.076l-.249.917a.11.11 0 0 0 .044.116l.798.515a.11.11 0 0 0 .146-.032.11.11 0 0 0 .01-.093l-.55-1.43a.11.11 0 0 0-.089-.069m2.467.171h-.016l-1.269.386a.035.035 0 0 0-.027.046c.089.379.4 1.048.865.593.171-.167.337-.073.485-.187.226-.176.093-.574-.006-.816a.036.036 0 0 0-.032-.025Zm-.16.33q.036 0 .047.043.082.33-.245.233a.11.11 0 0 1-.069-.133.11.11 0 0 1 .062-.067l.18-.071a.08.08 0 0 1 .025 0ZM2.129 8.64a.722.722 0 0 0-.68.542l-.033.125a.077.077 0 0 0 .054.092l1.223.322a.076.076 0 0 0 .093-.053l.033-.124a.712.712 0 0 0-.493-.88h-.014a.66.66 0 0 0-.182-.023Zm19.528.151a.071.071 0 0 1 .061.048v.013a.22.22 0 0 1-.101.295l-.022.008a.227.227 0 0 1-.256-.18v-.012a.071.071 0 0 1 .045-.089l.244-.08a.1.1 0 0 1 .028 0Zm-19.58.142a.48.48 0 0 1 .138.016l.031.009a.365.365 0 0 1 .304.409v.006a.016.016 0 0 1-.021.012l-.77-.207a.018.018 0 0 1-.012-.021.33.33 0 0 1 .33-.22Zm20.095.611a1 1 0 0 0-.187.014c-.394.068-.672.363-.62.66a.653.653 0 0 0 .805.414c.394-.068.672-.363.621-.66a.596.596 0 0 0-.616-.428Zm-20.72.17a.121.121 0 0 0-.133.094l-.101.55a.063.063 0 0 0 .052.074l1.282.213a.049.049 0 0 0 .064-.046l.094-.577a.059.059 0 0 0-.05-.069h-.146a.06.06 0 0 0-.065.052l-.056.264a.071.071 0 0 1-.084.055l-.267-.052a.062.062 0 0 1-.051-.067l.035-.321a.073.073 0 0 0-.055-.084l-.125-.041a.054.054 0 0 0-.068.035V9.8l-.06.359a.059.059 0 0 1-.065.054h-.081a.054.054 0 0 1-.054-.055v-.011a2.8 2.8 0 0 0 .039-.305.122.122 0 0 0-.11-.124Zm17.478.039a.09.09 0 0 0-.044 0l-1.584.597a.55.55 0 0 0-.375.369q-.618 2.429-1.247 4.853a.66.66 0 0 0 .083.626q.449.618.896 1.181a.267.267 0 0 0 .212.099l1.835-.031a.095.095 0 0 0 .066-.027 3.2 3.2 0 0 0 .4-.479 8.715 8.715 0 0 0 1.588-4.59c.02-.357.057-1.335-.266-1.56q-.746-.518-1.52-1.022a.08.08 0 0 0-.042-.016Zm-13.815 0a.125.125 0 0 0-.059.022q-.779.524-1.581 1.066a.34.34 0 0 0-.11.256 8.413 8.413 0 0 0 1.839 6.282.189.189 0 0 0 .143.069l1.826.027a.34.34 0 0 0 .28-.139l.924-1.239a.285.285 0 0 0 .048-.241l-1.311-5.224a.323.323 0 0 0-.202-.225L5.18 9.766a.13.13 0 0 0-.062-.007Zm17.083.097c.186 0 .319.071.33.167.02.128-.167.263-.418.303s-.472-.03-.493-.157.167-.261.419-.302a.9.9 0 0 1 .157-.011Zm-20.46.871a.11.11 0 0 0-.11.097l-.039.296a.092.092 0 0 1-.183-.012v-.247a.125.125 0 0 0-.249-.018 4.4 4.4 0 0 0-.046.517.053.053 0 0 0 .054.06l1.277.125a.051.051 0 0 0 .063-.048l.024-.173a.065.065 0 0 0-.055-.073h-.006l-.565-.034a.059.059 0 0 1-.055-.063l.032-.358a.058.058 0 0 0-.052-.065h-.09Zm21.113.067-1.298.11a.055.055 0 0 0-.05.058l.038.615a.054.054 0 0 0 .057.051h.009l.164-.036a.054.054 0 0 0 .043-.059l-.028-.294a.054.054 0 0 1 .05-.06l1.027-.086a.054.054 0 0 0 .05-.056v-.189a.054.054 0 0 0-.056-.053ZM2.44 12.157l-1.32.061a.13.13 0 0 0-.12.135 11.062 11.062 0 0 0 10.57 10.631.142.142 0 0 0 .165-.161v-1.277a.124.124 0 0 0-.116-.123 9.531 9.531 0 0 1-9.042-9.142.131.131 0 0 0-.137-.124m19.131.023a.11.11 0 0 0-.11.099 9.698 9.698 0 0 1-2.489 6.085.052.052 0 0 0 0 .08l1.007.99a.053.053 0 0 0 .087 0A10.787 10.787 0 0 0 23 12.319a.1.1 0 0 0-.095-.104ZM9.194 16.444a.279.279 0 0 0-.22.11l-.979 1.276a.288.288 0 0 0-.047.251q.241.846.425 1.697a.34.34 0 0 0 .183.196 8.85 8.85 0 0 0 6.421.203 3.63 3.63 0 0 0 .625-.271.11.11 0 0 0 .053-.072 11.7 11.7 0 0 0 .44-1.878.14.14 0 0 0-.028-.09l-1.011-1.352a.179.179 0 0 0-.143-.072Zm-2.049 1.76-.99.017a.092.092 0 0 0-.093.093.091.091 0 0 0 .037.074l1.232.945a.092.092 0 0 0 .131-.017.096.096 0 0 0 .016-.08l-.241-.96a.095.095 0 0 0-.091-.072Zm10.753 0h-.983a.095.095 0 0 0-.092.069l-.25.952a.093.093 0 0 0 .067.11.092.092 0 0 0 .08-.017l1.236-.951a.095.095 0 0 0-.058-.168Zm.581.669a.08.08 0 0 0-.053.02 9.686 9.686 0 0 1-6.038 2.511.095.095 0 0 0-.088.095v1.391a.11.11 0 0 0 .11.11h.007a11.253 11.253 0 0 0 7.072-2.97.044.044 0 0 0 .013-.02.132.132 0 0 0-.02-.155q-.479-.488-.95-.951a.08.08 0 0 0-.052-.022Z"/></svg>