<svg xmlns="http://www.w3.org/2000/svg" fill="#44739e" viewBox="0 0 24 24"><path d="M16.408 5.977a1.126 1.126 0 1 0 1.125-1.125 1.127 1.127 0 0 0-1.125 1.125m1.182.087a.1.1 0 0 1-.144-.028l-.454-.677a.1041.1041 0 0 1 .173-.116l.453.677a.1.1 0 0 1-.028.144m.792 10.397a2.77 2.77 0 1 0 2.77 2.77 2.772 2.772 0 0 0-2.77-2.77m0 3.879a1.11 1.11 0 1 1 1.11-1.109 1.11 1.11 0 0 1-1.11 1.109m0-4.167a3.048 3.048 0 0 1 2.294 1.04 5.39 5.39 0 0 0-4.367-8.553H9.636V3.377h4.469a.484.484 0 0 0 .41.226h2.729a.485.485 0 0 0 .485-.485v-.632A.485.485 0 0 0 17.244 2h-2.729a.484.484 0 0 0-.41.226h-5.62V8.66h-.794A5.393 5.393 0 0 0 6.32 19.269l-.206.583-.63 1.784H8.65l.362-1.574.142-.616h6.18c0-.071-.009-.143-.009-.215a3.061 3.061 0 0 1 3.057-3.058m-.849-8.782a1.415 1.415 0 0 1-1.413-1.414v-.01h-3.663a1.176 1.176 0 0 0-1.176 1.177v.9h5.028a5.974 5.974 0 0 1 3.039.827V7.144a1.171 1.171 0 0 0-.426-.906 1.415 1.415 0 0 1-1.389 1.153M9.062 21.508v-.001z"/></svg>