<svg xmlns="http://www.w3.org/2000/svg" viewBox="0 0 24 24"><path fill="#44739e" d="M1.793 17.768c-.232.369-.481.797-.695 1.138a.695.695 0 0 0 .231.946l4.53 2.779a.695.695 0 0 0 .967-.187 1 1 0 0 0 .025-.042c.181-.302.415-.695.67-1.116 1.793-2.957 3.599-2.596 6.852-1.043l4.477 2.122a.695.695 0 0 0 .927-.329l.008-.019 2.156-4.864a.695.695 0 0 0-.347-.911c-.948-.445-2.833-1.332-4.53-2.149-6.117-2.962-11.304-2.764-15.271 3.675M22.207 6.234c.232-.368.481-.797.695-1.137a.695.695 0 0 0-.231-.947l-4.533-2.781a.695.695 0 0 0-.967.187 1 1 0 0 0-.026.042c-.18.302-.414.695-.669 1.116-1.794 2.957-3.599 2.596-6.852 1.043L5.15 1.636a.695.695 0 0 0-.927.329l-.008.019-2.158 4.869a.695.695 0 0 0 .347.912c.947.445 2.833 1.332 4.529 2.149 6.12 2.957 11.307 2.759 15.274-3.68"/></svg>