<svg xmlns="http://www.w3.org/2000/svg" viewBox="0 0 24 24"><path fill="#44739e" d="m6.705 14.645 3.199.646 8.146-.409-1.774-.732Zm3.245.464-1.988-.361.673-.032 1.895.362Zm.837-.044-1.889-.361.901-.042 1.64.371Zm.88-.045-1.638-.37.869-.041 1.623.367Zm1.08-.056-1.618-.366 1.027-.048 1.347.374Zm.99-.051-1.343-.374 1.008-.047 1.169.378Zm1.007-.052-1.166-.378.88-.041 1.156.373Zm1.042-.055-1.155-.372.686-.033 1.146.37Zm.85-.043-1.143-.37.687-.032.99.374Zm-.126-1.243-.131.492 1.919.858.108-.425-1.511-.778Zm-.154-.046a34.8 34.8 0 0 0-9.859.66s.061.239.121.407l9.607-.531a2.66 2.66 0 0 0 .131-.536m-.994-5.196-.139-.056Zm6.443 6.013a20.98 20.98 0 0 0-5.334-1.32l-.057-4.269-1.052-.418v4.55l-.138-.017V8.222l-5.042.258-.037 4.304a.02.02 0 0 1-.009.016c-.009 0-.376.039-.377.039-3.885.435-7.539 1.529-8.749 2.524-.022.017 0 .056 0 .085l3.785.33 1.224-.456.956-.323.424-.131-.852-.208-.181-.586a30.93 30.93 0 0 1 10.167-.66 10.03 10.03 0 0 1 1.916.962l3.857.78.617.185H23a8.86 8.86 0 0 0-1.195-1.05"/></svg>