<svg xmlns="http://www.w3.org/2000/svg" fill="#44739e" viewBox="0 0 24 24"><path d="M9.693 20.657h7.812v.188H9.693Zm7.057-.311c-.5.006-1.022-.868-1.145-1.623a2.31 2.31 0 0 1 .185-1.523c.23-.461.526-.628.681-1.071a1.819 1.819 0 0 0-.437-1.5c-.238-.351-.526-.492-.469-.648a.311.311 0 0 1 .541-.145 2.67 2.67 0 0 1 .6.762 1.682 1.682 0 0 1 .272 1.632c-.232.586-.567.692-.726 1.317a3.48 3.48 0 0 0-.089 1.139 2.95 2.95 0 0 0 .966 1.66zm-1.4 0c-.5.006-1.022-.868-1.145-1.623a2.31 2.31 0 0 1 .184-1.524c.231-.461.527-.628.681-1.071a1.816 1.816 0 0 0-.437-1.5c-.237-.351-.525-.492-.468-.648a.31.31 0 0 1 .54-.145 2.64 2.64 0 0 1 .6.762 1.682 1.682 0 0 1 .272 1.632c-.231.586-.567.692-.726 1.317a3.48 3.48 0 0 0-.088 1.139 2.954 2.954 0 0 0 .965 1.66zm-1.342 0c-.5.006-1.022-.868-1.145-1.623a2.31 2.31 0 0 1 .184-1.524c.231-.461.527-.628.681-1.071a1.812 1.812 0 0 0-.437-1.5c-.237-.351-.525-.492-.468-.648a.31.31 0 0 1 .54-.145 2.64 2.64 0 0 1 .6.762 1.684 1.684 0 0 1 .273 1.632c-.232.586-.568.692-.726 1.317a3.46 3.46 0 0 0-.089 1.139 2.954 2.954 0 0 0 .965 1.66zm-1.385 0c-.5.006-1.022-.868-1.145-1.623a2.315 2.315 0 0 1 .185-1.524c.231-.461.526-.628.681-1.071a1.816 1.816 0 0 0-.437-1.5c-.238-.351-.526-.492-.468-.648a.31.31 0 0 1 .54-.145 2.66 2.66 0 0 1 .6.762 1.682 1.682 0 0 1 .272 1.632c-.231.586-.567.692-.726 1.317a3.48 3.48 0 0 0-.089 1.139A2.96 2.96 0 0 0 13 20.346Zm-1.37 0c-.5.006-1.022-.868-1.145-1.623a2.31 2.31 0 0 1 .185-1.524c.231-.461.526-.628.681-1.071a1.816 1.816 0 0 0-.437-1.5c-.238-.351-.526-.492-.468-.648a.31.31 0 0 1 .54-.145 2.66 2.66 0 0 1 .6.762 1.682 1.682 0 0 1 .272 1.632c-.231.586-.567.692-.726 1.317a3.48 3.48 0 0 0-.089 1.139 2.955 2.955 0 0 0 .966 1.66zm-4.066-7.962 2.908.588L17.5 12.6l-1.612-.666Zm2.95.422-1.807-.328.612-.029 1.722.329zm.761-.04-1.717-.328L10 12.4l1.491.337zm.8-.041-1.489-.336.79-.037 1.475.333zm.982-.051-1.471-.332.933-.044 1.225.34zm.9-.046-1.221-.34.916-.043 1.063.344zm.915-.047-1.06-.344.8-.037 1.051.339zm.947-.05-1.05-.338.624-.03 1.042.336zm.773-.039-1.039-.337.624-.029.9.34zm-.115-1.13-.119.447 1.745.78.098-.386-1.374-.708zm-.14-.042a31.63 31.63 0 0 0-8.962.6s.056.217.11.37l8.733-.483a2.42 2.42 0 0 0 .119-.487m-.903-4.723-.127-.051Zm5.857 5.466a19.07 19.07 0 0 0-4.849-1.2l-.052-3.881-.956-.38v4.136l-.126-.015V6.546l-4.583.234-.034 3.913a.018.018 0 0 1-.008.014c-.008 0-.342.036-.343.036-3.531.395-6.853 1.39-7.953 2.294-.02.016 0 .051 0 .077l3.441.3L6.564 13l.869-.294.385-.119-.774-.189-.165-.533a28.12 28.12 0 0 1 9.242-.6 9.12 9.12 0 0 1 1.742.875l3.506.709.561.168H22a8.05 8.05 0 0 0-1.086-.954"/></svg>