<svg xmlns="http://www.w3.org/2000/svg" fill="#44739e" viewBox="0 0 24 24"><path d="M6.978 11.781h-.625a.222.222 0 1 0 0 .441h.691a.32.32 0 0 0 .11-.02.209.209 0 0 0 0-.4.31.31 0 0 0-.112-.021zm.233.219c0 .079-.07.13-.166.13h-.691a.184.184 0 0 1-.114-.035.11.11 0 0 1-.046-.088.117.117 0 0 1 .046-.094.18.18 0 0 1 .114-.036h.691c.096-.002.166.05.166.123m4.295-1.736c-.007 0-.026.008-.026 0s-.019 0-.021 0h-.041c0-.005 0-.006-.012 0s-.021.007-.021 0-.038.013-.045.008l-.015.005c0-.007-.029.012-.03.012l-.016-.011c-.007-.005-.022 0-.029 0h-.034c0-.014-.027 0-.034.007v.007h-.005a.07.07 0 0 1-.036.027c0-.006-.012 0-.012 0h-.034v-.007h.005v-.009l.007-.007a.2.2 0 0 1 .025-.033.07.07 0 0 1 0-.014h-.024c-.008 0-.009-.014-.009-.014v-.012a.06.06 0 0 0-.007-.017V10.2h-.014v.014l-.007.008-.007.007v.007-.036h-.006v.005l-.015.008v.006l-.043.02c-.01-.01-.036.008-.047.013s0 .007 0 .007v.006a.03.03 0 0 1 0 .013.24.24 0 0 0-.032.015v.006a.15.15 0 0 1-.022.01c-.005-.006-.007-.007 0 0s-.006 0 0 0h-.007V10.3l-.008-.007v-.028s.012-.016.016-.017v-.02s-.018-.007-.027 0h-.007v.005s-.009 0-.008.012h-.007a.1.1 0 0 0 0 .009l-.079.029v.018h.007v.007h.009v.005h.011c.005 0 0 .018 0 .027a.015.015 0 0 0-.007.01h-.007c-.006.023-.065.009-.077.013-.013-.014-.049.011-.065.017v.007l.006.009h.008v.004h-.008v.006h-.006v.011c.006 0 .008 0 .01.008h.011c0 .009.005.02 0 .025s-.008.049-.007.064l-.034.013-.006.006c0 .009-.017.016-.027.019-.021.022-.005.022-.013.046v.027c0 .005.006.007.007.015 0 0 .008.009.009.014s.005 0 .005 0h.016c0 .007.013 0 .018 0v-.01l.021-.006v.023h.011c.007 0 .03 0 .034-.012h.006l.006-.01v-.008a.045.045 0 0 0 .014-.013l.008-.007v-.012l.031-.006v.006l.008.019v.005h.009c0 .006.026.013.033.01a.021.021 0 0 0 .02.007c0 .006.006 0 .006 0h.011c.003 0 .038-.007.048-.01l.006.034c.009 0 .018 0 .029-.008h.006s.006.014.008.011c0 .022.02.036.024.059.01 0 .007.047.013.061a.2.2 0 0 0 .037-.008c0 .005 0 .008.007.005l.005.009h.007v.023c.007 0 .017 0 .025-.007v.034s.009.008.017 0l.008.007v.02s0 .009-.012.012a.007.007 0 0 1-.007.007l-.01.016c-.012 0-.007.023-.017.027v.007h-.006a.008.008 0 0 1-.007.007.023.023 0 0 1-.012.009c0 .007-.016.018-.015.029s.023 0 .034 0a.008.008 0 0 1 .009.007h.024l.014.007v.005c0 .005.024.017.015.02v.077h.009c0-.005.006-.009 0-.016s0-.007 0-.011.01-.023.009-.031v-.011l.007-.007c.007-.007 0 0 0-.006l.057-.018s-.006.007-.005.013 0 .005-.008.006 0 0 0 .008v.015h.006v-.002h.007l.007-.012.01-.011v-.006c0-.006 0-.015 0 0v-.022a.013.013 0 0 1 .01-.012.2.2 0 0 0 0-.074l.006-.022.009-.007v-.006s.006-.011.01-.012l.009-.009s.007-.011.011-.012.033-.021.045-.025.016-.012.022-.015.039-.016.047-.019 0-.008.008-.01l.007-.009v-.018c0-.007 0 0 .005 0v-.005h.006v-.012l.005-.008v-.008l.005-.005v-.006c.007-.006 0-.028.009-.039s.01-.032.008-.046 0-.035 0-.043v-.047l.017-.006c0-.006.012-.015.012-.021h.006v-.008a.012.012 0 0 0 .009-.013c.006 0 .01-.015.01-.016h.006v-.014s0-.007.009-.009v-.014c.016 0 .012-.066.011-.083a.02.02 0 0 1-.007-.012h-.005a.011.011 0 0 1-.011-.007ZM7.872 8.238l.106.079a.87.87 0 0 0-.145.272s-.011 0-.106.069a1.1 1.1 0 0 0-.154.151 1.14 1.14 0 0 0-.218.368.7.7 0 0 0-.028.111v.017l-.05.067a1.12 1.12 0 0 0-.286.684s0-.007-.029.036l-.039.062a1.4 1.4 0 0 0-.1.2 1.35 1.35 0 0 0-.066.192.9.9 0 0 0-.022.108.8.8 0 0 0-.01.112.7.7 0 0 0 .006.114.3.3 0 0 0 .021.073l-.034.085c-.018.045-.037.092-.054.142l-.014.043-.011.032c0 .015-.009.031-.013.046l-.008.029h-.265a.221.221 0 1 0 0 .438h.691a.32.32 0 0 0 .115-.021.206.206 0 0 0 .038-.377.3.3 0 0 0-.153-.04h-.035c0-.014-.005-.028-.008-.041a.9.9 0 0 0-.03-.091 1.44 1.44 0 0 0 .2-.754c0-.006.006-.016.006-.016a1.46 1.46 0 0 0 .309-.736v-.047a1.376 1.376 0 0 0 .4-.635l.009-.028a1.256 1.256 0 0 0 .527-.593c0-.012.007-.027.011-.04a1.36 1.36 0 0 0 .58-.449.7.7 0 0 0 .041-.08 1.434 1.434 0 0 0 .683-.379l.015-.021a1.344 1.344 0 0 0 .744-.288.2.2 0 0 0 .026-.029 1.36 1.36 0 0 0 .729-.166h.005l.066.006v-.192a1.1 1.1 0 0 1-.123.108.56.56 0 0 1-.124.065.9.9 0 0 1-.145.043 1.6 1.6 0 0 1-.16.025C10.716 7 10.659 7 10.6 7a1.8 1.8 0 0 0 .126-.2.54.54 0 0 1 .083-.048.7.7 0 0 1 .085-.036.86.86 0 0 1 .168-.041 1.53 1.53 0 0 1 .26-.011v-.088a1.038 1.038 0 0 0-.664.161h-.006l-.084.013a1.11 1.11 0 0 0-.689.282h-.055l-.049.006a.26.26 0 0 0-.044.009l-.064.018a1.56 1.56 0 0 0-.238.089c-.028.014-.057.029-.085.046a.87.87 0 0 0-.239.21.13.13 0 0 0-.018.028l-.016.031-.087.039a1.122 1.122 0 0 0-.589.441l-.083.061-.035.025-.057-.06-.02-.019c-.159-.505.018-1.238-.311-1.67L6.015 3.845A9.87 9.87 0 0 0 4.1 5.628l2.2 2.106c.41.388 1.126.166 1.572.504M6.8 11.069v-.011l.011.02.04.078a.96.96 0 0 1 .059.153v.017h-.202a2.1 2.1 0 0 1 .092-.257m.246.351a.168.168 0 0 1 .153.073.1.1 0 0 1 .013.049c0 .078-.07.13-.166.13h-.692a.184.184 0 0 1-.114-.035.11.11 0 0 1-.046-.088c0-.077.069-.129.16-.129zm.03-.761a1.1 1.1 0 0 1-.036.141c-.008.023-.016.047-.025.071-.026.071-.058.142-.09.211-.013-.027-.026-.055-.041-.082s-.029-.054-.044-.08a.26.26 0 0 1-.017-.056.7.7 0 0 1-.007-.1.89.89 0 0 1 .09-.375c.031-.066.066-.129.1-.189l.007-.012a1.3 1.3 0 0 1 .077.266v.071a.7.7 0 0 1-.015.134Zm.079-.364-.01-.015a.4.4 0 0 1-.024-.056.7.7 0 0 1-.039-.162 1.008 1.008 0 0 1 .255-.618.7.7 0 0 1 .033.077l.007.024a.5.5 0 0 1 .014.066l.007.045v.032a1.24 1.24 0 0 1-.244.612Zm.64-1.3a1.17 1.17 0 0 1-.32.529.26.26 0 0 1-.028-.039.387.387 0 0 1-.031-.225.63.63 0 0 1 .058-.176.7.7 0 0 1 .043-.072.87.87 0 0 1 .1-.123.7.7 0 0 1 .057-.054l.115-.106.011-.016v.05a.4.4 0 0 1 0 .05 1 1 0 0 1-.006.177ZM9.852 7.27l.02-.048a.56.56 0 0 1 .047-.088.2.2 0 0 1 .025-.034.75.75 0 0 1 .232-.156 1.2 1.2 0 0 1 .25-.075c.055-.011.108-.018.159-.026a.57.57 0 0 1-.059.1 1.2 1.2 0 0 1-.078.1l-.016.017a.75.75 0 0 1-.262.159 1.6 1.6 0 0 1-.164.053c-.057.016-.116.03-.176.043a.5.5 0 0 0 .022-.045m-.722.336.009-.039.015-.047a.2.2 0 0 1 .024-.045.7.7 0 0 1 .066-.075.8.8 0 0 1 .144-.113 1 1 0 0 1 .077-.042 1.95 1.95 0 0 1 .313-.109h.014a1.33 1.33 0 0 1-.134.242.63.63 0 0 1-.1.1 1 1 0 0 1-.133.087l-.079.035c-.077.037-.16.069-.245.1a.8.8 0 0 0 .029-.094M8.474 8a.78.78 0 0 1 .118-.15.82.82 0 0 1 .136-.109L8.8 7.7a2.3 2.3 0 0 1 .22-.1h.013l-.006.025-.033.1a.83.83 0 0 1-.059.13.6.6 0 0 1-.039.059.8.8 0 0 1-.048.054 1.23 1.23 0 0 1-.248.182c-.047.027-.1.053-.144.078A.44.44 0 0 1 8.474 8m-.252.2c.042-.034.085-.065.127-.095a.32.32 0 0 1 .012.085.3.3 0 0 1 0 .04.5.5 0 0 1-.01.066v.024l-.007.02v.017a1.237 1.237 0 0 1-.415.507.26.26 0 0 1-.02-.146c0-.024.007-.046.01-.063s.008-.03.009-.034a.823.823 0 0 1 .243-.368ZM7.177 7.068c.181.107.2.175.554.049-.088.178-.166.288-.039.457l.408.486-.038.04-.486-.448c-.182-.116-.286-.019-.468.088.134-.314.121-.386-.029-.555a10.3 10.3 0 0 1-.914-1.03c.341.255.681.618 1.012.913m-2.8-1.429c.056-.01.023-.047.113-.036.451.466.964.938 1.415 1.4.148.114.214.23.363.343.03.042.173.049.2.091-.346.006-.456-.192-.638-.349-.472-.488-.982-.96-1.455-1.449Zm12.87 9.853c.219.088.482.175.7.263a4.89 4.89 0 0 1-.936 1.558q-.609-.637-1.22-1.274l.041-.03a1.136 1.136 0 0 0 .478-.568l.1-.067a1.127 1.127 0 0 0 .4-.633v-.017l.051-.069a1.125 1.125 0 0 0 .286-.682l.07-.1a1.116 1.116 0 0 0 .193-.719.34.34 0 0 0-.022-.073l.04-.081a2.1 2.1 0 0 0 .1-.283h.272a.23.23 0 0 0 .251-.216.234.234 0 0 0-.251-.223h-.692a.31.31 0 0 0-.128.027.211.211 0 0 0-.131.187.208.208 0 0 1 .131-.189v-.066a.31.31 0 0 0 .125.026h.695a.249.249 0 0 0 .232-.132.2.2 0 0 0 .019-.085.231.231 0 0 0-.251-.222h-.692a.31.31 0 0 0-.125.026.208.208 0 0 0-.134.188.206.206 0 0 1 .134-.189v-.069a.3.3 0 0 0 .127.027h.69a.23.23 0 0 0 .251-.216.231.231 0 0 0-.251-.222h-.282v-.017a1.37 1.37 0 0 0-.172-.728l-.013-.015-.017-.1a1.136 1.136 0 0 0-.287-.682L17 9.707a1.25 1.25 0 0 0-.3-.572.9.9 0 0 0-.085-.073c-.019-.015-.032-.025-.055-.045l-.026-.046-.028-.05a1.34 1.34 0 0 0-.277-.451.87.87 0 0 0-.164-.128l-.02-.032.081-.078c.454-.338 1.17-.119 1.58-.5L19.9 5.628a9.72 9.72 0 0 0-1.916-1.784l-1.87 2.442c-.323.425-.1 1.155-.264 1.668l-.028.03L15.8 8a.93.93 0 0 0-.361-.233l-.079-.087a1.143 1.143 0 0 0-.636-.4h-.012l-.091-.076a1.152 1.152 0 0 0-.682-.284l-.1-.069a1.136 1.136 0 0 0-.725-.195.3.3 0 0 0-.073.021l-.082-.033a2.3 2.3 0 0 0-.273-.093V6.32a3.1 3.1 0 0 0 1.287-.686v-.819a4.12 4.12 0 0 0-1.331-.49 1.223 1.223 0 0 0 .614-1.067A1.255 1.255 0 0 0 12.019 2a1.268 1.268 0 0 0-1.258 1.258 1.235 1.235 0 0 0 .614 1.06 4.16 4.16 0 0 0-1.359.5v.819a3.08 3.08 0 0 0 1.307.694v-.046a.233.233 0 0 1 .223-.253.2.2 0 0 1 .159.088.193.193 0 0 0-.135-.063.231.231 0 0 0-.222.251V7a.285.285 0 0 0 .066.189 4.912 4.912 0 0 0-4.173 4.182.2.2 0 0 1-.037.375v.058a.215.215 0 0 1 .148.2.213.213 0 0 1-.15.2v.055a.215.215 0 0 1 .148.2.207.207 0 0 1-.115.181 4.91 4.91 0 0 0 4.173 4.243c-.007.009-.018.014-.024.025a.3.3 0 0 0-.037.148v.039h-.015c-.032.009-.068.022-.106.037a1.45 1.45 0 0 0-.765-.207.04.04 0 0 1-.015-.007 1.457 1.457 0 0 0-.737-.309h-.024a1.446 1.446 0 0 0-.66-.419H9.01a1.46 1.46 0 0 0-.606-.51l-.04-.01a1.34 1.34 0 0 0-.45-.583 2 2 0 0 1-.072-.048 1.45 1.45 0 0 0-.393-.693 1.454 1.454 0 0 0-.3-.741l-.027-.025a1.434 1.434 0 0 0-.167-.754v-.006c0-.046.009-.092.013-.139h.081a.3.3 0 0 0 .145-.034.207.207 0 0 0 .115-.182.217.217 0 0 0-.148-.2.33.33 0 0 0-.112-.02h-.696a.231.231 0 0 0-.252.217.235.235 0 0 0 .252.223H6.6v.008a1.11 1.11 0 0 0 .159.73l.017.116a1.134 1.134 0 0 0 .271.674l.023.115a1.106 1.106 0 0 0 .371.647l.051.039.045.1a1.125 1.125 0 0 0 .44.591l.063.085a2.2 2.2 0 0 0 .187.232q-.621.652-1.244 1.3a5.09 5.09 0 0 1-.936-1.566c.219-.088.468-.175.687-.263a5.665 5.665 0 0 1-2.222-2 5.525 5.525 0 0 0 .278 3.523l.394-.7a12.4 12.4 0 0 0 1.134 1.71q-.549.582-1.1 1.163a.2759.2759 0 1 0 .4.38l1.053-1.134a7.323 7.323 0 0 0 3.458 2.092A2.808 2.808 0 0 1 12 22a2.757 2.757 0 0 1 1.858-1.477 7.27 7.27 0 0 0 3.473-2.092q.532.57 1.068 1.14c.278.294.643-.123.393-.386q-.553-.582-1.11-1.163a11.7 11.7 0 0 0 1.132-1.71c.118.232.25.467.382.7a5.524 5.524 0 0 0 .277-3.523 5.665 5.665 0 0 1-2.226 2.003m-.261-3.546a.2.2 0 0 1 .12-.035h.694c.089 0 .158.052.158.122a.142.142 0 0 1-.158.13h-.692a.2.2 0 0 1-.12-.035.13.13 0 0 1-.034-.039.106.106 0 0 1-.013-.05.117.117 0 0 1 .045-.093m-4.312-9.069a.6.6 0 0 1 .088.833.1.1 0 0 1-.1-.014.637.637 0 0 0 .012-.819m-1.614.888a1.053 1.053 0 0 1 .079-1.21c.037.029.038.041.081.078a1.154 1.154 0 0 0-.16 1.132m5.711 13.8-.06.06-1.2-1.3a.9.9 0 0 0 .068-.056zm-1.654-1.134h-.008c0-.008.005-.018.008-.025l.034-.107a.9.9 0 0 1 .056-.121 1.157 1.157 0 0 1 .481-.38.326.326 0 0 1-.019.222 1.022 1.022 0 0 1-.552.411m1.107-1.02a.7.7 0 0 1-.035.09.8.8 0 0 1-.148.218 1.74 1.74 0 0 1-.247.207.437.437 0 0 1 .011-.236v-.018a1.22 1.22 0 0 1 .415-.506v.064c0 .037.006.074.006.109a.23.23 0 0 1-.002.072m.351-.342a1.5 1.5 0 0 1-.168.185l-.057.055-.008.008c0-.034-.008-.068-.008-.1a1 1 0 0 1 .014-.177.946.946 0 0 1 .209-.4c.035-.044.073-.088.111-.13l.01.019a.42.42 0 0 1 .036.113.4.4 0 0 1 .008.065v.029a.8.8 0 0 1-.147.333m.365-.68a2 2 0 0 1-.135.2 1.1 1.1 0 0 1-.06-.214v-.03a1.244 1.244 0 0 1 .245-.609l.008.022.013.04a.51.51 0 0 1 .052.172.815.815 0 0 1-.123.419m.2-.559-.008.014a1.44 1.44 0 0 1-.076-.265.6.6 0 0 1-.005-.071 1.41 1.41 0 0 1 .165-.558c.013.027.026.054.04.08l.045.079a.3.3 0 0 1 .017.059.7.7 0 0 1 .008.1 1.137 1.137 0 0 1-.183.562zm.2-.867v.009l-.009-.016-.055-.109a.8.8 0 0 1-.045-.124v-.011h.206a2.2 2.2 0 0 1-.094.251zm-.237-.6h.697a.13.13 0 1 1 0 .254h-.692a.2.2 0 0 1-.12-.035.12.12 0 0 1-.044-.063.1.1 0 0 1 0-.025c-.005-.075.067-.129.162-.129zm-.163.3a.29.29 0 0 0 .162.046h.027c0 .011 0 .023.006.034a.9.9 0 0 0 .03.091 1.437 1.437 0 0 0-.2.754c0 .005-.008.014-.008.014a1.48 1.48 0 0 0-.308.737.4.4 0 0 0 0 .047 1.38 1.38 0 0 0-.4.635c0 .007-.481.306-.536.621 0 .012-.007.027-.01.041a1.065 1.065 0 0 0-.583.449.7.7 0 0 0-.04.077 1.436 1.436 0 0 0-.677.389l-.014.02-.013-.02a1.463 1.463 0 0 0-.739.3c-.009.008-.017.02-.026.029a1.39 1.39 0 0 0-.729.166l-.006.005a4 4 0 0 0-.188-.016v-.028a.3.3 0 0 0-.032-.137.206.206 0 0 0-.185-.123.208.208 0 0 0-.122.041.2.2 0 0 1 .143-.065.206.206 0 0 1 .184.122 4.909 4.909 0 0 0 4.267-4.227zm-1.9 3.662a1.04 1.04 0 0 1-.053.182.3.3 0 0 1-.026.046 1.03 1.03 0 0 1-.6.339h-.013c.021-.047.043-.093.066-.134a.7.7 0 0 1 .068-.107.4.4 0 0 1 .048-.054 1.4 1.4 0 0 1 .513-.27zm-.731.384a1.4 1.4 0 0 0-.028.058.53.53 0 0 1-.085.158.988.988 0 0 1-.616.255c.008-.012.019-.06.05-.116l.02-.034a.45.45 0 0 1 .058-.068.72.72 0 0 1 .188-.124 1.3 1.3 0 0 1 .155-.061 2.5 2.5 0 0 1 .261-.066zm-.9.516a1.04 1.04 0 0 1-.657.134h-.015c.014-.015.027-.03.04-.046a1.2 1.2 0 0 1 .16-.145 1.18 1.18 0 0 1 .6-.144.4.4 0 0 1-.127.2zm-.677 0a1 1 0 0 0-.041.045v-.1l.084.007zM11.87 9.88l-.12-.032-.081.094v-.12l-.11-.042.113-.035.009-.122.078.094.112-.035-.068.1zm1.29 2.852c-.015-.1-.028-.2-.039-.292v-.01a5.32 5.32 0 0 1 1.75-.808c.033.1.057.2.1.308a5.12 5.12 0 0 0-1.805.804zm.043.364h-.024.022zm-.123-1.418a4.95 4.95 0 0 1 1.642-.715c.017.114.043.25.059.313a4.64 4.64 0 0 0-1.693.741c0-.106-.008-.21-.008-.313zm-.9-.984c-.014-.1-.032-.22-.046-.32a1.424 1.424 0 0 1 1.021-.039c-.018.12-.035.24-.05.36a1.95 1.95 0 0 0-.921.005Zm2.9 1.527a1.46 1.46 0 0 0 .083.2 8.97 8.97 0 0 0-1.879.953c-.009-.1-.019-.192-.028-.288a6.62 6.62 0 0 1 1.828-.863zm-.43-2.68a3.559 3.559 0 0 1 .865 3.511 6.435 6.435 0 0 1-.861-3.509zm0 .863c.012.078.013.151.034.292a4.6 4.6 0 0 0-1.594.657c.006-.1.013-.205.022-.308a6.53 6.53 0 0 1 1.543-.639zm-1.5.283c.016-.126.035-.251.054-.378a14.2 14.2 0 0 1 1.41-.627c0 .106.007.212.01.317a6.2 6.2 0 0 0-1.469.69zm-1.064-.615-.039-.284a1.149 1.149 0 0 1 1.157.174s-.025.159-.031.2a1.106 1.106 0 0 0-1.082-.088zm.007.649-.069.1.071.1-.121-.033-.081.1v-.119l-.11-.044.113-.034.009-.124.077.1zm-.365-.134c.018.829-1.306.829-1.324 0s1.313-.826 1.329.002zm-1.245.815.01-.122.077.1.112-.035-.069.1.07.1-.12-.032-.08.094v-.12l-.11-.042zm.14.244c.191-.1.38-.192.572-.28a4.5 4.5 0 0 1 .81-.293c.071-.017.142-.034.215-.046a1.74 1.74 0 0 1 .3-.028 1.36 1.36 0 0 1 .552.053c-.009.1-.016.2-.021.308-.824-.29-1.8.306-2.579.674-.025-.085-.052-.171-.078-.257.006.001.089-.051.234-.129zm2.415.04v.02c0 .107 0 .215.008.324a4.15 4.15 0 0 0-2.386.627c-.028-.091-.056-.181-.083-.271.005.002 1.645-.961 2.466-.698zm.028.628c0 .043.008.087.013.131s.013.093.019.139a3.758 3.758 0 0 0-2.265.715c-.024-.1-.048-.194-.072-.291a4.516 4.516 0 0 1 2.31-.692zm.07.526c.013.084.027.168.044.253a4.02 4.02 0 0 0-2.208.816l-.063-.293a4.04 4.04 0 0 1 2.232-.774zm-.056.478c.078 0 .094.036.05.122a4.7 4.7 0 0 1-1.03.564 1.24 1.24 0 0 1 .013-.278 6.4 6.4 0 0 1 .972-.406zm2.254-.545c.044.087.075.154.132.248-1.1.413-2.2 1.314-3.021 1.572-.11.014-.171-.008-.3-.216 1.005-.277 1.849-1.066 3.194-1.602zm-2.7-5.606A.285.285 0 0 0 12.692 7v-.063h.025l.089-.029a1.46 1.46 0 0 0 .754.2l.009.006a1.486 1.486 0 0 0 .742.308h.038a1.465 1.465 0 0 0 .669.421 1.487 1.487 0 0 0 .615.511l.026.007a1.324 1.324 0 0 0 .462.586l.086.049a1.484 1.484 0 0 0 .406.693l.014.01a1.464 1.464 0 0 0 .31.731l.026.024a1.47 1.47 0 0 0 .192.758.65.65 0 0 0-.022.152h-.031a.3.3 0 0 0-.162.045 4.909 4.909 0 0 0-4.302-4.24zm4.975 4.287h.191c.089 0 .158.052.158.122a.142.142 0 0 1-.158.129h-.692a.2.2 0 0 1-.035 0 .22.22 0 0 1-.06-.017.117.117 0 0 1-.072-.1c0-.077.07-.128.167-.128h.507zm-.384-.094v-.044l.046.043h-.05zm.043-.694a.81.81 0 0 1 .111.22 1.18 1.18 0 0 1 .046.362v.107a1.32 1.32 0 0 1-.194-.2.86.86 0 0 1-.125-.3 1.3 1.3 0 0 1-.016-.083c-.01-.056-.017-.111-.022-.165l-.006-.08a2 2 0 0 0 .194.124zm-.313-.793a.7.7 0 0 1 .067.075 1.15 1.15 0 0 1 .2.564l-.057-.033-.127-.085-.038-.031a1.247 1.247 0 0 1-.264-.6 1.6 1.6 0 0 0 .2.095zm-.431-.76a.3.3 0 0 1 .034.02 1.056 1.056 0 0 1 .348.6v.007c-.025-.012-.053-.023-.08-.035l-.064-.03a1 1 0 0 1-.1-.06 1.115 1.115 0 0 1-.308-.479l-.033-.085.061.02a.86.86 0 0 1 .146.044zm.093-3.256c.432-.526.843-1.089 1.274-1.615.017.054.049.016.05.108-.411.5-.82 1.067-1.231 1.568-.095.161-.2.24-.3.4-.038.035-.027.177-.066.211-.044-.339.143-.472.277-.67Zm-.2 1.733c.127-.171.048-.282-.039-.463.361.128.377.059.562-.05.334-.3.679-.666 1.024-.926a10.5 10.5 0 0 1-.919 1.049c-.151.171-.164.243-.029.563-.184-.109-.289-.207-.473-.089l-.493.453c-.013-.013-.026-.026-.041-.039.139-.168.276-.332.415-.496Zm-.419.82a1.027 1.027 0 0 1 .418.546v.007a1.65 1.65 0 0 1-.2-.076.7.7 0 0 1-.053-.027 1.136 1.136 0 0 1-.391-.481h.028c.03.005.061.008.092.011s.063.006.1.007a.1.1 0 0 1 .013.015zm-.627-.566h.017a.79.79 0 0 1 .253.134.97.97 0 0 1 .127.12 2.2 2.2 0 0 1 .155.194h-.098c-.035 0-.068-.009-.1-.014s-.054-.012-.074-.018a.6.6 0 0 1-.068-.026 1.12 1.12 0 0 1-.323-.252 3 3 0 0 1-.121-.134 1.7 1.7 0 0 0 .239-.002Zm-.749-.471a.3.3 0 0 1 .045 0 .13.13 0 0 1 .039 0 .76.76 0 0 1 .186.057 1.32 1.32 0 0 1 .4.316h.005c-.033 0-.066 0-.1.006h-.074a.9.9 0 0 1-.1-.009.6.6 0 0 1-.071-.017.83.83 0 0 1-.142-.062l-.07-.043c-.047-.031-.094-.066-.141-.1l-.069-.058-.069-.061c.062-.002.115-.014.168-.027Zm-.7-.363a.8.8 0 0 1 .358.087 1.8 1.8 0 0 1 .28.181l.014.009a1.34 1.34 0 0 1-.272.04 1.113 1.113 0 0 1-.535-.2c-.026-.015-.052-.032-.078-.048l.06-.021a.54.54 0 0 1 .183-.046zm-.939-.2.068-.04.017-.01a.18.18 0 0 1 .054-.017 1.045 1.045 0 0 1 .669.184l.011.006a1.33 1.33 0 0 1-.263.077.76.76 0 0 1-.309-.034 2.4 2.4 0 0 1-.321-.125c.03-.004.057-.019.084-.035zm-.062-.085h.008l-.019.011-.11.056a.75.75 0 0 1-.117.044v-.2a2.5 2.5 0 0 1 .248.095zM11.437 3.2a.55.55 0 0 1 .024-.114.585.585 0 0 1 .558-.411.58.58 0 0 1 .278.071l.048.029a.6.6 0 0 1 .087.072.585.585 0 0 1 0 .827.76.76 0 0 1-.087.072l-.048.029a.582.582 0 0 1-.65-.063.59.59 0 0 1-.186-.278.55.55 0 0 1-.024-.114zm-1.211 1.665h3.523v.089h-3c-.35 0-.365.127-.41.295h-.116zm0 .813v-.09h3.523v.09zm2.251.379a.23.23 0 0 0-.221.251V7a.3.3 0 0 0 .036.147h-.088A.3.3 0 0 0 12.239 7v-.715a.232.232 0 0 1 .222-.253.2.2 0 0 1 .16.09.2.2 0 0 0-.144-.065m.122.251V7c0 .1-.051.166-.122.166s-.128-.07-.128-.166v-.692c0-.09.052-.158.122-.158s.129.068.129.158zm-.575-.251a.231.231 0 0 0-.223.251V7a.306.306 0 0 0 .037.148c-.032 0-.063 0-.094.007A.3.3 0 0 0 11.786 7v-.692c0-.008-.007-.013-.008-.022A.233.233 0 0 1 12 6.032a.2.2 0 0 1 .16.089.193.193 0 0 0-.136-.064m.122.251V7c0 .1-.052.167-.122.167S11.9 7.092 11.9 7v-.692c0-.09.052-.158.122-.158a.141.141 0 0 1 .124.158m-.7.409v-.409c0-.09.053-.158.122-.158a.141.141 0 0 1 .13.158V7c0 .1-.052.166-.123.166s-.129-.07-.129-.166zm-2.93 5.316a3.565 3.565 0 0 1 .73-2.161l-.02.645.2-.091c.37 1.173 1.567 4.934 1.594 5.021a3.59 3.59 0 0 1-2.509-3.414ZM9.6 10.908l.286.108.178.543-.3-.115zm.586 1.847.315.115.178.543-.324-.126zm.748 2.375-.174-.549.347.13.18.551zM9.689 10.3l.235-.107-.53-.512a3.568 3.568 0 0 1 5.15-.251 8.7 8.7 0 0 0-1.337.6c.021-.265.028-.615-.573-.665a5.436 5.436 0 0 0-2.888 1.015A13.07 13.07 0 0 1 11 14.227a4.02 4.02 0 0 1 1.1-.635c-.043.415-.165 1.4.907 1.065.793-.246 1.544-.97 2.394-1.283a3.589 3.589 0 0 1-3.317 2.239 3.54 3.54 0 0 1-.672-.065c-.144-.454-1.312-4.014-1.723-5.248m.6.295-.12-.032-.081.1v-.12l-.109-.043.113-.035.009-.122.078.095.112-.035-.068.1zm1.525 7.248h-.052a.3.3 0 0 0 .018-.1v-.153h.01c0-.019-.006-.039-.01-.06v-.477a.32.32 0 0 0-.02-.11.211.211 0 0 0-.2-.15.2.2 0 0 0-.106.03.2.2 0 0 1 .131-.054.211.211 0 0 1 .2.15h.048c-.005.01-.014.015-.018.025a.33.33 0 0 0-.017.106v.691a.3.3 0 0 0 .02.106zm-.128-.793v.691c0 .091-.052.159-.121.159a.141.141 0 0 1-.13-.159v-.691c0-.1.051-.166.122-.166s.133.073.133.17zm-.125.95h.032a1.5 1.5 0 0 1-1.367.976 5.52 5.52 0 0 1-2.873-1.278l1.29-1.382.035.036a1.116 1.116 0 0 0 .623.4l.156.128a.908.908 0 0 0 .618.234l.1.069a1.112 1.112 0 0 0 .722.193.28.28 0 0 0 .085-.026l.1.039a2.3 2.3 0 0 0 .268.1v.267a.232.232 0 0 0 .211.244m-.216-.812v.2a1.2 1.2 0 0 1-.086-.027l-.075-.028-.072-.029-.015-.006a1.34 1.34 0 0 1 .248-.112zm-.874-.171a.6.6 0 0 1 .075 0 1.26 1.26 0 0 1 .48.131c.027.011.053.024.079.036l-.057.029a.52.52 0 0 1-.166.075 1.025 1.025 0 0 1-.665-.183l-.012-.008a1.27 1.27 0 0 1 .266-.082zm-.764-.317a1.225 1.225 0 0 1 .608.245l-.059.02a.51.51 0 0 1-.176.054 1.024 1.024 0 0 1-.635-.27l-.009-.006c.029-.005.059-.011.088-.018l.126-.025Zm-.7-.42a1.25 1.25 0 0 1 .552.341.44.44 0 0 1-.24.037.6.6 0 0 1-.1-.017.63.63 0 0 1-.168-.072 1 1 0 0 1-.072-.049 1.64 1.64 0 0 1-.185-.176l-.055-.059c.03 0 .06 0 .089-.006h.075a1 1 0 0 1 .107 0zm-2.478-3.696h-.175c-.091 0-.16-.053-.16-.123a.142.142 0 0 1 .16-.13h.691c.1 0 .166.051.166.122s-.07.131-.166.131zm.34.093v.035l-.037-.035Zm-.038.685a.884.884 0 0 1-.146-.537v-.148l.03.028a1.37 1.37 0 0 1 .158.169 1.23 1.23 0 0 1 .147.625 1.7 1.7 0 0 0-.171-.111.14.14 0 0 1-.018-.026m.29.794a.77.77 0 0 1-.159-.233 1.24 1.24 0 0 1-.086-.326l-.012-.079v-.007l.063.041.118.084h.005l.035.032a.96.96 0 0 1 .215.432c.015.056.029.113.041.17l-.041-.018a1.4 1.4 0 0 0-.153-.074.2.2 0 0 1-.026-.022m.373.739a.76.76 0 0 1-.23-.286.9.9 0 0 1-.034-.078 1.7 1.7 0 0 1-.053-.158l-.022-.073v-.012c.025.013.051.024.077.035a1 1 0 0 1 .163.1 1.23 1.23 0 0 1 .332.563l-.04-.012-.019-.006a.51.51 0 0 1-.174-.068Zm.53.73a.8.8 0 0 1-.081-.056 1 1 0 0 1-.293-.421l-.031-.073v-.013a1.2 1.2 0 0 1 .255.1 1.14 1.14 0 0 1 .38.479l-.031.011a.182.182 0 0 1-.128 0zm.1.125a.69.69 0 0 1 .253.016.66.66 0 0 1 .2.108l.064.052a2.4 2.4 0 0 1 .239.251.4.4 0 0 1-.244 0 .77.77 0 0 1-.171-.077.86.86 0 0 1-.135-.1 1.7 1.7 0 0 1-.207-.25Zm.381.474c.027.012.056.024.086.034l-1.3 1.391c-.018-.017-.064-.056-.061-.06Zm-3.04 3.351c-.03.031-.064-.043-.034-.074l1.119-1.193a.19.19 0 0 0 .057.073zm6.545 1.592c-.066-.308-.519-1.016-.929-1.052a6.725 6.725 0 0 1-3.832-1.653 7.68 7.68 0 0 1-1.864-2.531c-.182-.373-.424.153-.512.381a5.4 5.4 0 0 0 .191-.871 5.36 5.36 0 0 0-.293-1.089c.132.293.475.937.658.965l.775.11c-.234.036-.826.043-.673.388a7.2 7.2 0 0 0 1.836 2.529 6.236 6.236 0 0 0 3.733 1.595c.4.022.8-.841.907-1.111zm.136-3.837v.415c0 .091-.053.159-.121.159a.141.141 0 0 1-.131-.159v-.691c0-.1.052-.166.123-.166s.129.069.129.166zm.127-.381a.32.32 0 0 0-.017.1v.691a.3.3 0 0 0 .017.1h-.051a.28.28 0 0 0 .018-.1v-.154h.006c0-.013 0-.025-.006-.039v-.5a.31.31 0 0 0-.017-.1.214.214 0 0 0-.2-.157.2.2 0 0 0-.119.04.2.2 0 0 1 .142-.064.214.214 0 0 1 .2.156h.046c-.006.012-.015.017-.019.027m.076.8v-.691c0-.1.052-.166.122-.166s.131.069.131.166v.691c0 .091-.053.159-.123.159a.141.141 0 0 1-.13-.163zm.122.253a.233.233 0 0 0 .224-.253v-.299h.058a1.225 1.225 0 0 0 .634-.1.9.9 0 0 0 .1-.058h.006l.082-.012a1.6 1.6 0 0 0 .425-.112.85.85 0 0 0 .259-.176s.018.008.124-.011a1.3 1.3 0 0 0 .343-.125.94.94 0 0 0 .307-.247.27.27 0 0 0 .034-.06l.081-.034c.049-.02.1-.042.153-.067l.02-.01.059-.03.039-.023 1.216 1.3a5.56 5.56 0 0 1-2.888 1.286 1.494 1.494 0 0 1-1.358-.99.185.185 0 0 0 .082.019zm6.016 1.4c.03.031 0 .1-.033.074l-1.066-1.111a.166.166 0 0 0 .056-.074zm.466-3.963a5.55 5.55 0 0 0 .191.871c-.087-.227-.33-.754-.512-.381a7.051 7.051 0 0 1-6.112 4.2c-.008-.11.015-.058.007-.161a6.714 6.714 0 0 0 5.96-4.162c.16-.356-.44-.348-.674-.386l.775-.11c.183-.028.528-.672.658-.964a5.4 5.4 0 0 0-.293 1.087z"/></svg>