<svg xmlns="http://www.w3.org/2000/svg" viewBox="0 0 24 24"><path fill="#44739e" d="M6.476 11.759h-.688a.244.244 0 1 0 0 .485h.76a.35.35 0 0 0 .121-.022.23.23 0 0 0 0-.44.34.34 0 0 0-.123-.023Zm.256.241c0 .087-.077.143-.182.143h-.761a.202.202 0 0 1-.125-.038.121.121 0 0 1-.051-.097.129.129 0 0 1 .051-.104.198.198 0 0 1 .125-.039h.761c.105-.002.182.055.182.135m4.725-1.91c-.008 0-.029.009-.029 0s-.021 0-.023 0h-.045c0-.005 0-.006-.013 0s-.024.008-.024 0-.041.015-.049.009l-.017.006c0-.008-.031.013-.033.013l-.017-.012c-.008-.006-.024 0-.032 0h-.037c0-.016-.03 0-.038.008v.007h-.005a.077.077 0 0 1-.04.03c0-.007-.013 0-.013 0h-.038v-.008h.006v-.01l.008-.007a.22.22 0 0 1 .027-.037.1.1 0 0 1 0-.015h-.026c-.009 0-.01-.015-.01-.015v-.014a.07.07 0 0 0-.008-.018v-.007h-.015v.015l-.008.009-.008.008v.008-.04h-.006v.005l-.017.009v.007l-.047.022c-.011-.011-.04.009-.052.014s0 .008 0 .008v.006a.03.03 0 0 1 0 .015.3.3 0 0 0-.035.016v.007a.2.2 0 0 1-.024.011c-.006-.007-.008-.008 0 0s-.007 0 0 0h-.008v-.01l-.009-.008v-.031s.014-.017.018-.018v-.022s-.02-.008-.03 0h-.007v.005s-.01 0-.009.014h-.008v.009l-.087.032v.02h.008v.008h.01v.005h.012c.005 0 0 .02 0 .03a.017.017 0 0 0-.008.011h-.007c-.007.025-.072.01-.085.014-.014-.015-.054.012-.072.019v.008l.007.01h.009v.004h-.009v.007h-.007v.012c.007 0 .009 0 .011.009h.012c0 .009.006.022 0 .027s-.008.054-.007.07l-.038.015-.006.006c0 .01-.019.018-.03.021-.023.024-.005.024-.014.051v.03c0 .005.006.007.007.016 0 0 .009.01.01.015s.006 0 .006 0h.017c0 .008.015 0 .02 0v-.011l.023-.006v.025h.012c.008 0 .033 0 .038-.013h.006l.007-.011v-.009a.05.05 0 0 0 .015-.014l.009-.008v-.013l.034-.007v.007l.009.021v.005h.01c0 .007.029.015.036.011a.023.023 0 0 0 .022.008c0 .007.007 0 .007 0h.012c.003 0 .042-.008.053-.011l.006.037c.01 0 .02 0 .032-.008h.007s.007.015.009.012c0 .024.022.039.026.065.011 0 .008.051.014.067a.22.22 0 0 0 .041-.009c0 .005 0 .009.008.005l.005.01h.008v.026c.008 0 .019 0 .028-.008v.037s.009.009.018 0l.009.008v.022s0 .01-.013.013a.008.008 0 0 1-.008.008l-.011.018c-.013 0-.008.025-.019.029v.008h-.006a.009.009 0 0 1-.008.008.025.025 0 0 1-.013.01c0 .007-.018.019-.017.031s.026 0 .038 0a.009.009 0 0 1 .01.008h.026l.015.008v.005c0 .006.027.019.017.022v.085h.01c0-.005.007-.01 0-.018s0-.007 0-.012.011-.025.01-.034v-.012l.007-.008c.008-.007 0 0 0-.006l.063-.02s-.006.008-.005.014 0 .006-.009.007 0 0 0 .009v.016h.007v-.002h.007l.008-.013.011-.012v-.007c0-.007 0-.016 0 0v-.024a.014.014 0 0 1 .011-.013.22.22 0 0 0 0-.082l.006-.024.01-.008v-.006s.007-.012.011-.013l.01-.01s.008-.012.012-.014.037-.023.05-.027.017-.013.024-.017.043-.017.052-.02 0-.009.009-.011l.007-.01v-.02c0-.008 0 0 .006 0v-.006h.006v-.013l.006-.009v-.008l.005-.006v-.007c.008-.006 0-.03.01-.042s.011-.036.009-.051 0-.039 0-.047v-.052l.019-.007c0-.006.013-.016.013-.023h.007v-.009a.013.013 0 0 0 .01-.014c.006 0 .011-.016.011-.017h.006v-.016s0-.008.01-.01v-.015c.018 0 .013-.073.012-.091a.022.022 0 0 1-.008-.014h-.005a.012.012 0 0 1-.012-.007ZM7.459 7.862l.117.087a.96.96 0 0 0-.16.299s-.012 0-.116.076a1.2 1.2 0 0 0-.17.166 1.25 1.25 0 0 0-.239.405.8.8 0 0 0-.031.122v.019l-.055.073a1.232 1.232 0 0 0-.315.753s0-.008-.032.039l-.043.068a1.54 1.54 0 0 0-.11.22 1.5 1.5 0 0 0-.072.212 1 1 0 0 0-.024.118.9.9 0 0 0-.011.124.8.8 0 0 0 .006.125.33.33 0 0 0 .023.08l-.037.094c-.02.049-.041.101-.06.156l-.015.047-.012.036c0 .016-.01.034-.014.05l-.009.032h-.292a.243.243 0 1 0 0 .482h.76a.35.35 0 0 0 .127-.023.227.227 0 0 0 .042-.415.33.33 0 0 0-.169-.044H6.51c0-.015-.006-.031-.009-.045a1 1 0 0 0-.033-.1 1.584 1.584 0 0 0 .22-.83c0-.006.007-.017.007-.017a1.606 1.606 0 0 0 .34-.81v-.052a1.514 1.514 0 0 0 .44-.698l.01-.031a1.382 1.382 0 0 0 .579-.652c0-.013.008-.03.012-.044a1.496 1.496 0 0 0 .638-.494.8.8 0 0 0 .045-.088 1.577 1.577 0 0 0 .752-.417l.016-.023a1.48 1.48 0 0 0 .819-.317.22.22 0 0 0 .028-.032 1.496 1.496 0 0 0 .802-.182h.006l.072.006v-.211a1.2 1.2 0 0 1-.135.119.62.62 0 0 1-.136.071 1 1 0 0 1-.16.048 1.8 1.8 0 0 1-.176.027c-.059.009-.122.009-.187.009a2 2 0 0 0 .139-.22.6.6 0 0 1 .091-.053.8.8 0 0 1 .093-.039.95.95 0 0 1 .185-.046 1.7 1.7 0 0 1 .286-.012v-.096a1.142 1.142 0 0 0-.73.177h-.007l-.092.014a1.22 1.22 0 0 0-.758.31h-.061l-.053.007a.3.3 0 0 0-.049.01l-.07.019a1.7 1.7 0 0 0-.262.098c-.031.016-.063.032-.094.051a.96.96 0 0 0-.262.231.14.14 0 0 0-.02.031l-.018.034-.096.043a1.234 1.234 0 0 0-.648.485l-.091.067-.038.028-.063-.067-.022-.02c-.175-.556.02-1.362-.342-1.837L5.417 3.029A10.86 10.86 0 0 0 3.31 4.991l2.42 2.316c.451.427 1.239.183 1.729.555M6.28 10.976v-.012l.012.022.044.086a1.06 1.06 0 0 1 .065.168v.019h-.222a2.3 2.3 0 0 1 .101-.283m.271.386a.185.185 0 0 1 .168.08.11.11 0 0 1 .014.054c0 .086-.077.143-.182.143h-.762a.202.202 0 0 1-.125-.038.121.121 0 0 1-.051-.097c0-.085.076-.142.176-.142Zm.033-.837a1.2 1.2 0 0 1-.04.155c-.009.025-.018.052-.027.078-.029.078-.064.156-.099.232-.015-.029-.029-.06-.046-.09s-.031-.059-.048-.088a.3.3 0 0 1-.019-.062.8.8 0 0 1-.007-.11.98.98 0 0 1 .099-.412c.034-.073.072-.142.11-.208l.007-.013a1.43 1.43 0 0 1 .085.292v.079a.77.77 0 0 1-.016.147Zm.087-.4-.011-.017a.44.44 0 0 1-.027-.062.77.77 0 0 1-.043-.178 1.11 1.11 0 0 1 .281-.68.8.8 0 0 1 .036.085l.008.027a.55.55 0 0 1 .015.072l.008.05v.035a1.364 1.364 0 0 1-.269.673Zm.704-1.43a1.287 1.287 0 0 1-.352.581.3.3 0 0 1-.031-.042.426.426 0 0 1-.034-.248.7.7 0 0 1 .063-.194.8.8 0 0 1 .048-.079.96.96 0 0 1 .11-.135.8.8 0 0 1 .062-.059l.127-.117.012-.018v.055a.4.4 0 0 1 0 .055 1.1 1.1 0 0 1-.007.195Zm2.262-1.898.022-.053a.6.6 0 0 1 .052-.097.22.22 0 0 1 .027-.037.83.83 0 0 1 .256-.172 1.32 1.32 0 0 1 .275-.082c.06-.012.118-.02.175-.029a.63.63 0 0 1-.065.11 1.3 1.3 0 0 1-.086.11l-.018.019a.825.825 0 0 1-.288.175 1.8 1.8 0 0 1-.18.058c-.063.018-.128.033-.194.047a.6.6 0 0 0 .024-.049m-.794.37.01-.043.016-.052a.22.22 0 0 1 .027-.049.8.8 0 0 1 .072-.083.88.88 0 0 1 .159-.124 1.1 1.1 0 0 1 .085-.047 2.15 2.15 0 0 1 .344-.119h.015a1.46 1.46 0 0 1-.147.266.7.7 0 0 1-.11.11 1.1 1.1 0 0 1-.146.095l-.087.039c-.085.041-.176.076-.27.11a.9.9 0 0 0 .032-.103m-.722.433a.86.86 0 0 1 .13-.165.9.9 0 0 1 .15-.12l.079-.045a2.5 2.5 0 0 1 .242-.11h.014l-.006.028-.037.109a.9.9 0 0 1-.064.144.7.7 0 0 1-.043.064 1 1 0 0 1-.053.06 1.35 1.35 0 0 1-.273.2c-.052.03-.11.058-.158.086a.484.484 0 0 1 .019-.251m-.277.22c.046-.037.094-.072.14-.105a.35.35 0 0 1 .013.094.3.3 0 0 1 0 .044.55.55 0 0 1-.011.073v.026l-.008.022v.019a1.36 1.36 0 0 1-.456.557.286.286 0 0 1-.022-.16c0-.027.008-.051.011-.07s.009-.033.01-.037a.905.905 0 0 1 .267-.405ZM6.695 6.575c.199.117.22.192.609.054-.097.195-.182.316-.043.502l.449.535-.042.044-.534-.493c-.201-.127-.315-.021-.515.097.147-.345.133-.425-.032-.611A11.3 11.3 0 0 1 5.582 5.57c.375.281.749.68 1.113 1.005m-3.08-1.572c.061-.011.025-.052.124-.04.496.513 1.06 1.032 1.557 1.54.162.126.235.253.399.378.033.046.19.053.22.1-.381.006-.502-.212-.702-.384-.519-.537-1.08-1.056-1.6-1.594Zm14.157 10.838c.241.097.53.193.77.289a5.38 5.38 0 0 1-1.03 1.714q-.67-.7-1.342-1.401l.045-.033a1.25 1.25 0 0 0 .526-.625l.11-.074a1.24 1.24 0 0 0 .44-.696v-.019l.056-.076a1.238 1.238 0 0 0 .315-.75l.077-.11a1.228 1.228 0 0 0 .212-.791.37.37 0 0 0-.024-.08l.044-.089a2.3 2.3 0 0 0 .11-.311h.299a.253.253 0 0 0 .276-.238.257.257 0 0 0-.276-.245h-.761a.34.34 0 0 0-.141.029.232.232 0 0 0-.144.206.229.229 0 0 1 .144-.208v-.072a.34.34 0 0 0 .138.028h.764a.274.274 0 0 0 .255-.145.22.22 0 0 0 .021-.093.254.254 0 0 0-.276-.245h-.761a.34.34 0 0 0-.138.029.229.229 0 0 0-.147.207.227.227 0 0 1 .147-.208v-.076a.33.33 0 0 0 .14.03h.759a.253.253 0 0 0 .276-.238.254.254 0 0 0-.276-.244h-.31v-.019a1.507 1.507 0 0 0-.189-.801l-.015-.016-.018-.11a1.25 1.25 0 0 0-.316-.75l-.032-.132a1.375 1.375 0 0 0-.33-.629 1 1 0 0 0-.094-.081c-.02-.016-.035-.027-.06-.049l-.029-.051-.03-.055a1.47 1.47 0 0 0-.305-.496.96.96 0 0 0-.181-.141l-.021-.035.089-.086c.499-.372 1.287-.131 1.738-.55l2.413-2.314a10.7 10.7 0 0 0-2.108-1.963l-2.057 2.687c-.355.467-.11 1.27-.29 1.834l-.031.033-.024.018a1.02 1.02 0 0 0-.397-.256l-.087-.096a1.257 1.257 0 0 0-.7-.44h-.013l-.1-.084a1.267 1.267 0 0 0-.75-.312l-.11-.076a1.25 1.25 0 0 0-.798-.214.33.33 0 0 0-.08.023l-.09-.037a2.5 2.5 0 0 0-.3-.102v-.254a3.41 3.41 0 0 0 1.415-.755v-.901a4.53 4.53 0 0 0-1.464-.539 1.345 1.345 0 0 0 .676-1.173A1.381 1.381 0 0 0 12.021 1a1.395 1.395 0 0 0-1.384 1.384 1.359 1.359 0 0 0 .676 1.166 4.58 4.58 0 0 0-1.495.55v.901a3.39 3.39 0 0 0 1.437.763v-.051a.256.256 0 0 1 .246-.278.22.22 0 0 1 .175.097.212.212 0 0 0-.149-.069.254.254 0 0 0-.244.276V6.5a.314.314 0 0 0 .072.208 5.403 5.403 0 0 0-4.59 4.6.22.22 0 0 1-.041.413v.063a.237.237 0 0 1 .163.22.234.234 0 0 1-.165.22v.061a.237.237 0 0 1 .163.22.228.228 0 0 1-.126.199 5.401 5.401 0 0 0 4.59 4.667c-.008.01-.02.016-.027.028a.33.33 0 0 0-.04.163v.042h-.017c-.035.01-.075.025-.116.041a1.595 1.595 0 0 0-.842-.228.04.04 0 0 1-.016-.007 1.603 1.603 0 0 0-.811-.34h-.026a1.59 1.59 0 0 0-.726-.461h-.017a1.606 1.606 0 0 0-.667-.561L8 16.037a1.474 1.474 0 0 0-.495-.641 2 2 0 0 1-.079-.053 1.595 1.595 0 0 0-.432-.762 1.6 1.6 0 0 0-.33-.816l-.03-.027a1.577 1.577 0 0 0-.183-.829v-.007c0-.051.009-.101.014-.153h.089a.33.33 0 0 0 .159-.037.228.228 0 0 0 .127-.201.239.239 0 0 0-.163-.22.36.36 0 0 0-.123-.022h-.766a.254.254 0 0 0-.277.239.259.259 0 0 0 .277.245h.272v.009a1.22 1.22 0 0 0 .175.803l.019.128a1.247 1.247 0 0 0 .298.741l.025.127a1.217 1.217 0 0 0 .408.711l.056.043.05.11a1.238 1.238 0 0 0 .484.65l.069.094a2.4 2.4 0 0 0 .206.255q-.683.717-1.369 1.43a5.6 5.6 0 0 1-1.029-1.722c.241-.097.514-.193.755-.29a6.23 6.23 0 0 1-2.444-2.2 6.078 6.078 0 0 0 .306 3.876l.433-.77a13.64 13.64 0 0 0 1.248 1.881q-.604.64-1.21 1.279a.303.303 0 1 0 .44.418l1.158-1.248a8.055 8.055 0 0 0 3.804 2.302A3.089 3.089 0 0 1 12 23a3.033 3.033 0 0 1 2.044-1.625 7.997 7.997 0 0 0 3.82-2.301q.585.627 1.175 1.254c.306.324.707-.135.432-.424q-.608-.641-1.221-1.28a12.87 12.87 0 0 0 1.245-1.881c.13.255.275.514.421.77a6.076 6.076 0 0 0 .304-3.875 6.23 6.23 0 0 1-2.448 2.203m-.287-3.9a.22.22 0 0 1 .132-.039h.763c.098 0 .174.057.174.134a.156.156 0 0 1-.174.143h-.761a.22.22 0 0 1-.132-.038.14.14 0 0 1-.038-.043.12.12 0 0 1-.014-.055.129.129 0 0 1 .05-.102m-4.744-9.976a.66.66 0 0 1 .097.916.11.11 0 0 1-.11-.015.701.701 0 0 0 .013-.901m-1.775.977a1.158 1.158 0 0 1 .087-1.331c.041.031.042.045.089.085a1.269 1.269 0 0 0-.176 1.245m6.282 15.181-.066.066-1.32-1.43a1 1 0 0 0 .075-.062Zm-1.819-1.248h-.009c0-.009.005-.02.009-.027l.037-.118a1 1 0 0 1 .062-.133 1.273 1.273 0 0 1 .529-.418.36.36 0 0 1-.021.244 1.124 1.124 0 0 1-.607.452m1.217-1.122a.8.8 0 0 1-.038.099.88.88 0 0 1-.163.24 1.9 1.9 0 0 1-.272.228.48.48 0 0 1 .013-.26v-.02a1.34 1.34 0 0 1 .456-.556v.07c0 .041.007.081.007.12a.25.25 0 0 1-.003.079m.387-.376a1.65 1.65 0 0 1-.185.203l-.063.061-.009.009c0-.038-.009-.075-.009-.11a1.1 1.1 0 0 1 .016-.195 1.04 1.04 0 0 1 .23-.44c.038-.048.08-.097.122-.143l.011.021a.46.46 0 0 1 .039.124.44.44 0 0 1 .009.072v.032a.88.88 0 0 1-.161.366m.401-.748a2.2 2.2 0 0 1-.148.22 1.2 1.2 0 0 1-.066-.235v-.033a1.37 1.37 0 0 1 .269-.67l.009.024.014.044a.56.56 0 0 1 .057.189.896.896 0 0 1-.135.461m.22-.615-.009.015a1.6 1.6 0 0 1-.083-.291.7.7 0 0 1-.006-.078 1.55 1.55 0 0 1 .182-.614c.014.03.028.059.044.088l.049.087a.33.33 0 0 1 .019.065.8.8 0 0 1 .009.11 1.25 1.25 0 0 1-.202.618Zm.22-.954v.01l-.01-.017-.06-.12a.9.9 0 0 1-.05-.137v-.012h.227a2.4 2.4 0 0 1-.104.276Zm-.261-.66h.767a.143.143 0 1 1 0 .28h-.761a.22.22 0 0 1-.132-.039.132.132 0 0 1-.049-.069.1.1 0 0 1 0-.028c-.005-.082.074-.141.179-.141Zm-.179.33a.32.32 0 0 0 .178.051h.03c0 .012 0 .025.007.037a1 1 0 0 0 .033.1 1.58 1.58 0 0 0-.22.83c0 .005-.009.015-.009.015a1.63 1.63 0 0 0-.339.811.4.4 0 0 0 0 .052 1.52 1.52 0 0 0-.44.698c0 .008-.529.337-.59.683 0 .013-.007.03-.011.045a1.17 1.17 0 0 0-.641.494.8.8 0 0 0-.044.085 1.58 1.58 0 0 0-.745.428l-.015.022-.014-.022a1.61 1.61 0 0 0-.813.33c-.01.009-.019.022-.029.032a1.53 1.53 0 0 0-.802.182l-.006.006a4.4 4.4 0 0 0-.207-.018v-.031a.33.33 0 0 0-.035-.15.227.227 0 0 0-.204-.136.23.23 0 0 0-.134.046.22.22 0 0 1 .157-.072.227.227 0 0 1 .203.134 5.4 5.4 0 0 0 4.693-4.649Zm-2.09 4.029a1.14 1.14 0 0 1-.058.2.33.33 0 0 1-.029.05 1.133 1.133 0 0 1-.66.373h-.014c.023-.052.047-.102.072-.147a.77.77 0 0 1 .075-.118.44.44 0 0 1 .053-.059 1.54 1.54 0 0 1 .564-.297Zm-.804.422a2 2 0 0 0-.031.064.58.58 0 0 1-.093.174 1.087 1.087 0 0 1-.678.28c.009-.013.021-.066.055-.128l.022-.037a.5.5 0 0 1 .064-.075.8.8 0 0 1 .207-.136 1.4 1.4 0 0 1 .17-.067 2.8 2.8 0 0 1 .287-.073Zm-.99.568a1.144 1.144 0 0 1-.723.147h-.016c.015-.017.029-.033.044-.051a1.3 1.3 0 0 1 .176-.159 1.3 1.3 0 0 1 .66-.159.44.44 0 0 1-.14.22Zm-.745 0a1 1 0 0 0-.045.049v-.11l.093.008Zm-.948-8.08-.132-.035-.089.103v-.132l-.121-.046.124-.038.01-.135.086.104.123-.039-.075.11Zm1.419 3.137c-.016-.11-.031-.22-.043-.321v-.011a5.85 5.85 0 0 1 1.925-.889c.036.11.063.22.11.339a5.63 5.63 0 0 0-1.985.884Zm.047.401h-.026.024Zm-.135-1.56a5.45 5.45 0 0 1 1.806-.787c.019.126.047.275.065.345a5.1 5.1 0 0 0-1.862.815c0-.117-.009-.231-.009-.345Zm-.99-1.083c-.015-.11-.035-.242-.051-.352a1.566 1.566 0 0 1 1.124-.042c-.02.132-.039.264-.055.396a2.145 2.145 0 0 0-1.014.005Zm3.19 1.68a1.6 1.6 0 0 0 .091.22 9.87 9.87 0 0 0-2.067 1.048c-.009-.11-.02-.211-.03-.316a7.28 7.28 0 0 1 2.01-.95Zm-.473-2.948a3.915 3.915 0 0 1 .952 3.862 7.08 7.08 0 0 1-.948-3.86Zm0 .949c.013.086.014.167.037.322a5.06 5.06 0 0 0-1.753.722c.007-.11.014-.225.024-.338a7.18 7.18 0 0 1 1.698-.703Zm-1.65.312c.018-.139.039-.276.059-.416a15.6 15.6 0 0 1 1.551-.69c0 .117.008.233.011.349a6.82 6.82 0 0 0-1.615.759Zm-1.17-.677-.043-.312a1.264 1.264 0 0 1 1.272.191s-.027.175-.034.22a1.217 1.217 0 0 0-1.19-.097Zm.007.714-.076.11.078.11-.133-.036-.089.11v-.131l-.121-.049.125-.037.01-.136.084.11Zm-.401-.147c.02.912-1.437.912-1.457 0s1.445-.909 1.462.002Zm-1.37.896.011-.134.085.11.123-.039-.076.11.077.11-.132-.035-.088.104v-.132l-.121-.047Zm.154.269c.21-.11.418-.212.63-.308a4.95 4.95 0 0 1 .891-.323c.078-.018.156-.037.236-.05a1.9 1.9 0 0 1 .33-.031 1.5 1.5 0 0 1 .607.058c-.01.11-.017.22-.023.339-.906-.319-1.98.337-2.837.741-.027-.093-.057-.188-.086-.282.007.001.098-.056.258-.142Zm2.657.044v.022c0 .117 0 .236.009.356a4.565 4.565 0 0 0-2.625.69c-.031-.1-.062-.199-.091-.298.005.002 1.809-1.058 2.712-.768Zm.031.69c0 .048.008.096.014.144s.014.103.021.153a4.134 4.134 0 0 0-2.492.787c-.026-.11-.052-.214-.079-.32a4.97 4.97 0 0 1 2.541-.761Zm.077.579c.014.092.029.185.048.278a4.42 4.42 0 0 0-2.429.898l-.069-.322a4.444 4.444 0 0 1 2.455-.852Zm-.062.526c.086 0 .103.039.055.134a5.17 5.17 0 0 1-1.133.62 1.36 1.36 0 0 1 .014-.305 7.04 7.04 0 0 1 1.07-.447Zm2.479-.6c.049.096.083.17.146.273-1.21.454-2.42 1.445-3.323 1.729-.121.016-.189-.009-.33-.237 1.105-.305 2.033-1.173 3.513-1.763Zm-2.97-6.166a.314.314 0 0 0 .064-.184v-.069h.028l.098-.032a1.606 1.606 0 0 0 .829.22l.01.006a1.635 1.635 0 0 0 .816.339h.042a1.61 1.61 0 0 0 .736.463 1.636 1.636 0 0 0 .676.562l.029.008a1.456 1.456 0 0 0 .508.645l.095.054a1.63 1.63 0 0 0 .446.762l.016.011a1.61 1.61 0 0 0 .341.804l.028.026a1.617 1.617 0 0 0 .212.834.72.72 0 0 0-.025.167h-.034a.33.33 0 0 0-.178.05 5.4 5.4 0 0 0-4.732-4.664Zm5.473 4.715h.21c.098 0 .174.058.174.135a.156.156 0 0 1-.174.141h-.761a.2.2 0 0 1-.039 0 .24.24 0 0 1-.066-.018.129.129 0 0 1-.079-.11c0-.085.077-.141.184-.141h.558Zm-.422-.103v-.048l.05.047h-.055Zm.047-.763a.89.89 0 0 1 .122.242 1.3 1.3 0 0 1 .051.398v.117a1.45 1.45 0 0 1-.214-.22.95.95 0 0 1-.137-.33 1.4 1.4 0 0 1-.018-.091 2 2 0 0 1-.024-.181l-.007-.088a2.2 2.2 0 0 0 .214.136Zm-.344-.873a.8.8 0 0 1 .073.083 1.265 1.265 0 0 1 .22.62l-.062-.036-.14-.094-.042-.034a1.37 1.37 0 0 1-.29-.66 1.8 1.8 0 0 0 .22.105Zm-.475-.836a.3.3 0 0 1 .038.022 1.162 1.162 0 0 1 .383.66v.008c-.028-.013-.059-.025-.088-.039l-.071-.033a1.1 1.1 0 0 1-.11-.066 1.227 1.227 0 0 1-.339-.526l-.036-.094.067.022a.95.95 0 0 1 .161.048Zm.103-3.581c.475-.579.927-1.198 1.401-1.777.019.06.054.018.055.119-.452.55-.902 1.174-1.354 1.725-.104.177-.22.264-.33.44-.042.038-.03.194-.073.232-.048-.373.158-.519.305-.737Zm-.22 1.906c.139-.188.053-.31-.043-.509.397.14.415.065.618-.055.367-.33.747-.733 1.126-1.019a11.55 11.55 0 0 1-1.01 1.154c-.167.188-.181.267-.032.619-.203-.12-.318-.227-.521-.098l-.542.499a.6.6 0 0 0-.045-.043c.153-.185.304-.365.456-.546Zm-.461.902a1.13 1.13 0 0 1 .46.601v.007a1.8 1.8 0 0 1-.22-.083.8.8 0 0 1-.059-.03 1.25 1.25 0 0 1-.43-.529h.031c.033.005.067.009.101.012s.07.007.11.008a.1.1 0 0 1 .015.016Zm-.69-.623h.019a.87.87 0 0 1 .278.148 1.07 1.07 0 0 1 .14.132 2.4 2.4 0 0 1 .17.213h-.108c-.038 0-.074-.01-.109-.015s-.06-.013-.082-.02a.7.7 0 0 1-.075-.029 1.23 1.23 0 0 1-.355-.277 3.3 3.3 0 0 1-.133-.147 1.9 1.9 0 0 0 .263-.002Zm-.824-.518a.3.3 0 0 1 .05 0 .14.14 0 0 1 .043 0 .84.84 0 0 1 .204.063 1.45 1.45 0 0 1 .44.348h.006c-.037 0-.073 0-.11.006h-.082a1 1 0 0 1-.11-.01.7.7 0 0 1-.078-.018.9.9 0 0 1-.156-.069l-.077-.047c-.052-.034-.103-.073-.155-.11l-.076-.064-.076-.067c.068-.002.127-.015.185-.03Zm-.77-.399a.88.88 0 0 1 .394.096 2 2 0 0 1 .308.199l.015.01a1.47 1.47 0 0 1-.299.044 1.224 1.224 0 0 1-.588-.22c-.029-.017-.057-.036-.086-.053l.066-.023a.6.6 0 0 1 .201-.051Zm-1.033-.22.075-.044.019-.011a.2.2 0 0 1 .059-.019 1.15 1.15 0 0 1 .736.203l.012.006a1.46 1.46 0 0 1-.289.085.84.84 0 0 1-.34-.037A2.64 2.64 0 0 1 13 6.336c.033-.004.063-.021.092-.038Zm-.068-.094h.009l-.021.013-.121.061a.8.8 0 0 1-.129.049V6.1a2.8 2.8 0 0 1 .273.104ZM11.381 2.32a.6.6 0 0 1 .026-.125.643.643 0 0 1 .614-.453.64.64 0 0 1 .306.079l.053.031a.66.66 0 0 1 .095.08.643.643 0 0 1 0 .909.84.84 0 0 1-.095.08l-.053.031a.64.64 0 0 1-.715-.069.65.65 0 0 1-.205-.306.6.6 0 0 1-.026-.125Zm-1.332 1.831h3.875v.098h-3.3c-.385 0-.402.14-.451.325h-.128Zm0 .895v-.099h3.875v.099Zm2.476.417a.253.253 0 0 0-.243.276V6.5a.33.33 0 0 0 .039.162h-.097a.33.33 0 0 0 .039-.162v-.787a.255.255 0 0 1 .244-.278.22.22 0 0 1 .176.099.22.22 0 0 0-.158-.071m.134.276V6.5c0 .11-.056.183-.134.183s-.141-.077-.141-.183v-.761c0-.099.057-.174.134-.174s.142.075.142.174Zm-.633-.276a.254.254 0 0 0-.245.276V6.5a.34.34 0 0 0 .041.163c-.035 0-.069 0-.104.007a.33.33 0 0 0 .047-.17v-.761c0-.009-.008-.015-.009-.024a.256.256 0 0 1 .244-.28.22.22 0 0 1 .176.098.212.212 0 0 0-.15-.07m.135.276V6.5c0 .11-.058.184-.135.184s-.136-.083-.136-.184v-.761c0-.099.057-.174.134-.174a.155.155 0 0 1 .137.174m-.77.45v-.45c0-.099.058-.174.134-.174a.155.155 0 0 1 .143.174V6.5c0 .11-.057.183-.135.183s-.142-.077-.142-.183Zm-3.223 5.847a3.922 3.922 0 0 1 .803-2.377l-.022.71.22-.1c.407 1.29 1.723 5.427 1.753 5.523a3.949 3.949 0 0 1-2.76-3.756Zm1.192-1.237.315.119.195.597-.33-.127Zm.645 2.031.346.127.196.597-.356-.138Zm.822 2.613-.191-.604.382.143.198.606ZM9.458 10.13l.258-.118-.583-.563a3.925 3.925 0 0 1 5.665-.276 9.57 9.57 0 0 0-1.47.66c.023-.291.031-.676-.631-.731a5.98 5.98 0 0 0-3.176 1.116A14.38 14.38 0 0 1 10.9 14.45a4.42 4.42 0 0 1 1.21-.699c-.047.457-.181 1.54.998 1.172.872-.271 1.698-1.067 2.633-1.412a3.948 3.948 0 0 1-3.649 2.463 3.9 3.9 0 0 1-.739-.071c-.158-.5-1.443-4.416-1.895-5.773m.66.325-.132-.036-.089.11v-.132l-.12-.047.124-.038.01-.135.086.105.123-.039-.075.11Zm1.677 7.972h-.057a.33.33 0 0 0 .02-.11v-.168h.011c0-.021-.007-.043-.011-.066v-.525a.35.35 0 0 0-.022-.121.232.232 0 0 0-.22-.165.22.22 0 0 0-.117.033.22.22 0 0 1 .145-.059.232.232 0 0 1 .22.165h.052c-.005.011-.015.016-.019.027a.36.36 0 0 0-.019.117v.76a.33.33 0 0 0 .022.117Zm-.14-.872v.76c0 .1-.058.175-.134.175a.155.155 0 0 1-.143-.175v-.76c0-.11.057-.183.135-.183s.146.081.146.187Zm-.138 1.045h.035a1.65 1.65 0 0 1-1.503 1.074 6.07 6.07 0 0 1-3.161-1.406l1.419-1.52.039.039a1.228 1.228 0 0 0 .685.44l.172.141a1 1 0 0 0 .68.257l.109.076a1.223 1.223 0 0 0 .795.213.31.31 0 0 0 .093-.029l.11.043a2.5 2.5 0 0 0 .295.11v.294a.255.255 0 0 0 .232.268m-.237-.893v.22a1.3 1.3 0 0 1-.095-.03l-.083-.031-.079-.032-.016-.006a1.47 1.47 0 0 1 .273-.123Zm-.962-.188a.7.7 0 0 1 .083 0 1.39 1.39 0 0 1 .528.144c.029.012.058.026.087.039l-.063.032a.57.57 0 0 1-.183.083 1.127 1.127 0 0 1-.731-.201l-.014-.009a1.4 1.4 0 0 1 .293-.09Zm-.84-.349a1.35 1.35 0 0 1 .669.27l-.065.022a.56.56 0 0 1-.194.059 1.126 1.126 0 0 1-.698-.297l-.01-.007c.032-.005.065-.012.096-.019l.139-.028Zm-.77-.462a1.375 1.375 0 0 1 .607.375.484.484 0 0 1-.264.041.66.66 0 0 1-.11-.019.7.7 0 0 1-.185-.079 1.1 1.1 0 0 1-.079-.054 1.8 1.8 0 0 1-.204-.194l-.06-.064c.033 0 .066 0 .098-.007h.082a1.1 1.1 0 0 1 .118 0Zm-2.726-4.066h-.193c-.1 0-.176-.058-.176-.135a.156.156 0 0 1 .176-.143h.761c.11 0 .182.056.182.134s-.077.144-.182.144Zm.374.103v.038l-.041-.038Zm-.042.753a.972.972 0 0 1-.16-.59v-.163l.033.031a1.5 1.5 0 0 1 .173.185 1.353 1.353 0 0 1 .162.688 1.9 1.9 0 0 0-.188-.122.15.15 0 0 1-.02-.029m.319.874a.85.85 0 0 1-.175-.257 1.36 1.36 0 0 1-.094-.358l-.014-.087v-.008l.07.045.13.093h.005l.039.035a1.056 1.056 0 0 1 .236.475c.017.062.032.124.045.187l-.045-.02a1.5 1.5 0 0 0-.168-.081.2.2 0 0 1-.029-.024m.41.813a.836.836 0 0 1-.253-.315 1 1 0 0 1-.037-.086 1.9 1.9 0 0 1-.058-.174l-.024-.08v-.013c.027.014.056.026.084.038a1.1 1.1 0 0 1 .18.11 1.353 1.353 0 0 1 .365.62l-.044-.014-.021-.006a.56.56 0 0 1-.192-.075Zm.583.803a.9.9 0 0 1-.089-.062 1.1 1.1 0 0 1-.322-.463l-.034-.08v-.015a1.32 1.32 0 0 1 .28.11 1.254 1.254 0 0 1 .418.527l-.034.012a.2.2 0 0 1-.14 0Zm.11.137a.76.76 0 0 1 .279.018.73.73 0 0 1 .22.118l.07.058a2.64 2.64 0 0 1 .263.276.44.44 0 0 1-.268 0 .85.85 0 0 1-.188-.085.95.95 0 0 1-.149-.11 1.87 1.87 0 0 1-.228-.275Zm.42.521a.8.8 0 0 0 .094.038l-1.43 1.53c-.02-.019-.07-.062-.067-.066Zm-3.344 3.687c-.033.034-.071-.048-.038-.082l1.231-1.312a.21.21 0 0 0 .063.08Zm7.199 1.751c-.073-.339-.571-1.118-1.022-1.158a7.397 7.397 0 0 1-4.215-1.818 8.45 8.45 0 0 1-2.05-2.784c-.201-.41-.467.168-.564.419a5.94 5.94 0 0 0 .21-.958 5.9 5.9 0 0 0-.322-1.198c.145.322.523 1.031.724 1.062l.852.121c-.257.039-.908.047-.74.426a7.92 7.92 0 0 0 2.02 2.782 6.86 6.86 0 0 0 4.106 1.755c.44.024.88-.925.998-1.222Zm.15-4.221v.456c0 .101-.059.175-.133.175a.155.155 0 0 1-.145-.175v-.76c0-.11.058-.182.136-.182s.142.076.142.182Zm.139-.419a.35.35 0 0 0-.018.11v.76a.33.33 0 0 0 .018.11h-.056a.31.31 0 0 0 .02-.11v-.169h.007c0-.015 0-.028-.007-.043v-.55a.34.34 0 0 0-.019-.11.235.235 0 0 0-.22-.173.22.22 0 0 0-.131.044.22.22 0 0 1 .157-.07.235.235 0 0 1 .22.171h.05c-.006.013-.016.019-.021.03m.084.88v-.76c0-.11.057-.183.134-.183s.144.076.144.183v.76c0 .1-.058.175-.135.175a.155.155 0 0 1-.143-.18Zm.134.278a.256.256 0 0 0 .247-.278v-.329h.063a1.35 1.35 0 0 0 .698-.11 1 1 0 0 0 .11-.064h.006l.091-.013a1.76 1.76 0 0 0 .467-.123.94.94 0 0 0 .285-.194s.02.009.136-.012a1.43 1.43 0 0 0 .378-.137 1.03 1.03 0 0 0 .337-.272.3.3 0 0 0 .038-.066l.089-.037c.054-.022.11-.047.168-.074l.022-.011.065-.033.043-.026 1.338 1.431a6.116 6.116 0 0 1-3.177 1.414 1.643 1.643 0 0 1-1.494-1.089.204.204 0 0 0 .09.021Zm6.618 1.54c.033.034 0 .11-.037.082l-1.172-1.223a.183.183 0 0 0 .061-.081Zm.512-4.359a6.1 6.1 0 0 0 .21.958c-.095-.25-.363-.829-.563-.419a7.756 7.756 0 0 1-6.723 4.62c-.009-.121.017-.064.008-.177a7.385 7.385 0 0 0 6.556-4.578c.176-.392-.484-.383-.742-.425l.853-.121c.201-.031.581-.739.724-1.06a5.94 5.94 0 0 0-.323 1.195Z"/></svg>