<svg xmlns="http://www.w3.org/2000/svg" fill="#44739e" viewBox="0 0 24 24"><path d="M18.882 2.8H5.118A2.321 2.321 0 0 0 2.8 5.117v13.766A2.321 2.321 0 0 0 5.118 21.2h13.764a2.321 2.321 0 0 0 2.318-2.317V5.12a2.321 2.321 0 0 0-2.315-2.32Zm-7.37 17.015a7.985 7.985 0 0 1-5.7-2.208A7.576 7.576 0 0 1 3.5 12a7.46 7.46 0 0 1 2.312-5.6 7.958 7.958 0 0 1 5.694-2.225 7.622 7.622 0 0 1 5.973 2.7l-1.846 1.592a5.255 5.255 0 0 0-4.142-1.848h-.255a5.23 5.23 0 0 0-5.085 5.373v.29a5.207 5.207 0 0 0 5.34 5.071 5.336 5.336 0 0 0 4.194-1.866l1.815 1.574a7.821 7.821 0 0 1-5.986 2.753zm7.817-7.689 1.171 1.025a2.7 2.7 0 0 1-.172.356l-1.528-.294h-.022a.208.208 0 0 0-.209.19l-.063 1.553-.189.062a.61.61 0 0 1-.188.042l-.735-1.36a.021.021 0 0 1-.021-.021.2.2 0 0 0-.273-.042l-1.259.924-.315-.252.608-1.427.008-.021a.2.2 0 0 0-.13-.251l-1.512-.4v-.4l1.512-.4s.021-.02 0-.02l.015-.006a.186.186 0 0 0 .09-.246l-.609-1.427.316-.252 1.258.923a.021.021 0 0 0 .021.021.2.2 0 0 0 .27-.085l.734-1.364a2.17 2.17 0 0 1 .4.085l.061 1.564v.021a.191.191 0 0 0 .229.146l1.532-.294a1.9 1.9 0 0 1 .172.357l-1.175 1.008-.021.02a.2.2 0 0 0 .025.271zm-1.729-.693a.586.586 0 0 0-.586.586.617.617 0 0 0 .589.588.587.587 0 0 0 .586-.588V12a.574.574 0 0 0-.585-.563z"/></svg>