<svg xmlns="http://www.w3.org/2000/svg" viewBox="0 0 24 24"><path fill="#44739e" d="M18.488 12.024a.759.759 0 0 1 .761-.76.742.742 0 0 1 .76.76.76.76 0 0 1-.76.761.799.799 0 0 1-.761-.761m-1.302-.787-1.956.516v.515l1.956.517a.261.261 0 0 1 .162.353l-.787 1.845.407.327 1.629-1.195a.258.258 0 0 1 .353.054.027.027 0 0 0 .027.027l.951 1.765a.78.78 0 0 0 .244-.055l.244-.081.082-2.008a.267.267 0 0 1 .27-.245h.028l1.982.38a3.6 3.6 0 0 0 .222-.461l-1.52-1.331a.255.255 0 0 1-.027-.354l.027-.027L23 10.476a2.42 2.42 0 0 0-.222-.462l-1.982.381a.25.25 0 0 1-.298-.191v-.026l-.085-2.008a2.84 2.84 0 0 0-.515-.111l-.95 1.765a.261.261 0 0 1-.354.111.027.027 0 0 1-.026-.028l-1.627-1.195-.41.326.788 1.846a.24.24 0 0 1-.135.326c.026 0 0 .027 0 .027m-5.842 7.682a6.736 6.736 0 0 1-6.907-6.93 6.766 6.766 0 0 1 6.907-6.951 6.804 6.804 0 0 1 5.358 2.39l2.39-2.036a9.858 9.858 0 0 0-7.726-3.499 10.3 10.3 0 0 0-7.366 2.878 9.65 9.65 0 0 0-2.995 7.24 9.803 9.803 0 0 0 2.995 7.239 10.337 10.337 0 0 0 7.371 2.856 10.12 10.12 0 0 0 7.743-3.562l-2.345-2.037a6.903 6.903 0 0 1-5.425 2.414"/></svg>