<svg xmlns="http://www.w3.org/2000/svg" viewBox="0 0 24 24"><path fill="#44739e" d="M12.509 6.507c.938 0 1.701-1.131 1.701-2.522s-.763-2.522-1.701-2.522-1.702 1.131-1.702 2.522.764 2.522 1.702 2.522m-2.119-.463a1.2 1.2 0 0 0 .524-.135 3.63 3.63 0 0 1-.529-1.924 3.3 3.3 0 0 1 1.005-2.493 1.37 1.37 0 0 0-1-.492c-.938 0-1.701 1.131-1.701 2.522s.763 2.522 1.701 2.522m7.336 13.281a.67.67 0 0 1-.367.343.76.76 0 0 1-.516-.041 4.3 4.3 0 0 1-.785-.355l-.038.03a8 8 0 0 1-.2-.122l-.056-.03.308-.308.034.021c.097.062.187.117.27.167l-.04.031q.77.44 1.023.242c.154-.125.077-.422-.117-.93l-.042.031c.178.466.257.756.129.861-.104.084-.354.101-.947-.236l.818-.622c-.06-.155-.121-.309-.184-.463-.102-.253-.22-.544-.343-.875l-.318.236v-.131l.282-.208c-.083-.22-.163-.45-.239-.677a4 4 0 0 1-.043-.138v-.165c.038.134.07.24.088.292.079.236.157.455.234.661l.035-.029c-.078-.212-.154-.427-.226-.642-.022-.067-.073-.236-.136-.463v-1.147a11.2 11.2 0 0 0 .29 1.182c.025.085.11.331.258.739a.8.8 0 0 0 .01-.085v-.036c-.126-.348-.199-.55-.22-.632a14.1 14.1 0 0 1-.33-1.441l.049-.019a11.4 11.4 0 0 0 .33 1.446c.019.066.078.233.178.507l.06-2.31 1.039-.734a.399.399 0 0 0 .17-.321v-1.187a.338.338 0 0 0-.221-.314l-1.023-.384a.594.594 0 0 0-.477.028l-.11.057V8.496c0-.008-.012-.01-.015-.019l.179-.097-6.192-1.923a1.63 1.63 0 0 1-.791-.245l-2.337-.725-.028.022-.027-.01a.22.22 0 0 0-.175.014l-.67.369a.296.296 0 0 0-.155.264l.009 1.229c0 .027-.011 1.02-.009 1.035l.075 7.799-.401.259v.21l4.833 2.266 3.6-2.53v.119l-3.595 2.53-2.874-1.351-1.706 1.14-.031.023-.044.037a.3.3 0 0 0-.102.22v.967a.59.59 0 0 0 .322.525l1.247.635a1.8 1.8 0 0 0 .55-.046l.839-.57a.204.204 0 0 1 .263-.02l.391.19a.141.141 0 0 1 .1.17.12.12 0 0 1-.016.038l-.384.633a.418.418 0 0 0-.057.253l.008.066a.297.297 0 0 0 .17.235l1.54.755a.363.363 0 0 0 .383-.039l4.763-3.624a4.4 4.4 0 0 0 .811.367 1.2 1.2 0 0 0 .361.076.6.6 0 0 0 .188-.033.715.715 0 0 0 .383-.354l-.021-.11c-.001.028.002.054-.012.079m-7.853-5.482-1.567 1.02v-3.821l.538.207.027.866a.22.22 0 0 0 .11.181l.071.045a.102.102 0 0 1 .049.068.11.11 0 0 1-.016.084l-.271.39v.25l.183.11.142-.085.264-.191a.11.11 0 0 1 .062-.021.08.08 0 0 1 .048.012.11.11 0 0 1 .059.093v.094l.067.067.125.019a.11.11 0 0 1 .09.12.11.11 0 0 1-.05.071v.011l.239.091a.294.294 0 0 0 .261-.022l1.392-.826.03-.143v-.007l-.627-.227a.11.11 0 0 1-.069-.11l.05-1.016a.11.11 0 0 1 .054-.084c.423-.235.731-.418.798-.467v-1.16a.262.262 0 0 0-.169-.242l-.314-.123a.102.102 0 0 1-.068-.096l-.009-.344-.484-.175h-.009l-.29.11v.006l-.007.213a.11.11 0 0 1-.051.085l-.394.241a.11.11 0 0 1-.11 0 .1.1 0 0 1-.05-.098l.038-.603v-.014l-.263-.086-.24.133-.013.88a.103.103 0 0 1-.038.085.63.63 0 0 1-.241.121.156.156 0 0 0-.118.169l.015.11a.101.101 0 0 1-.037.096l-.162.133a.4.4 0 0 0-.026.034l-.576-.205V6.721l5.911 1.826a.275.275 0 0 0-.031.115l.009 1.229c0 .028-.011 1.02-.009 1.036l.01 1.048-.66-.203-1.966-.702-.297.168v.006l-.05.936 2.972 1.143v-.717l.008-.012.024 2.564-1.462-.605a.295.295 0 0 0-.28.028l-.263.176 2.014.88v.11Zm7.69 4.229-.033.054.139.377c0-.036.012-.067.015-.102Zm.053-.209.046-1.027a.385.385 0 0 0-.239-.373l-.401-.169v.195l-.007.071.55 1.504a.52.52 0 0 0 .051-.201m-.868-.85-.028.022c.207.551.394.991.527 1.336l.042-.031-.175-.44c-.121-.299-.239-.598-.352-.9Zm.782 1.114-.537-1.465a.8.8 0 0 1-.026.073l.527 1.438Z"/></svg>