<svg xmlns="http://www.w3.org/2000/svg" viewBox="0 0 24 24"><path fill="#44739e" d="M22.996 17.909v-5.321a.596.596 0 0 0-.192-.458v-.906a13.7 13.7 0 0 0-.175-3.018l-.104-.476a4.338 4.338 0 0 0-1.379-2.75l-.078-.068-17.474.22h-.088l-.075.057a5.013 5.013 0 0 0-1.637 3.67c-.052 1.086-.085 1.931-.093 2.565l-.092.053a1.18 1.18 0 0 0-.452.526h-.009v.037a1.55 1.55 0 0 0-.148.623v6.346h.642a.42.42 0 0 1 .175-.047h5.486a.44.44 0 0 1 .228.075l9.591.051c.35 0 .712 0 1.067-.029l3.959-.055a.96.96 0 0 0 .848-1.037Zm-20.702-6.67c.009-.62.04-1.417.091-2.429v.011A4.197 4.197 0 0 1 3.63 5.882h.169c-.67.44-1.21 2.677-1.272 5.357Zm1.262-.013a17.82 17.82 0 0 1 .718-4.693h.486a1.59 1.59 0 0 0-.488-.671l3.21-.039c-.707.31-1.285 2.619-1.352 5.403Zm3.409 0h-.192a10.54 10.54 0 0 1 1.133-5.344.5.5 0 0 0-.11-.061h.543c-.717.259-1.311 2.584-1.377 5.405Zm9.95 0h-.198a20.35 20.35 0 0 1 .615-4.693h.161a21.78 21.78 0 0 0-.581 4.693Zm5.194.011h-.233c-.07-2.998-.735-5.438-1.516-5.438s-1.451 2.44-1.521 5.434h-.175q.025-1.046.148-2.082c.061-.88.16-1.749.296-2.611h-.349a32.9 32.9 0 0 0-.382 4.693h-.308a32.9 32.9 0 0 1 .385-4.693h-.297a24.57 24.57 0 0 0-.506 4.693h-.296a24.5 24.5 0 0 1 .512-4.693h-.21c-.22-.475-.464-.746-.725-.746-.781 0-1.446 2.441-1.518 5.439h-.175a11.295 11.295 0 0 1 1.048-5.221.57.57 0 0 0-.395-.22c-.781 0-1.448 2.441-1.518 5.439h-.385a32.1 32.1 0 0 1 .385-4.693h-.33a29.26 29.26 0 0 0-.449 4.688h-.442a24.5 24.5 0 0 1 .511-4.693h-.303a21.78 21.78 0 0 0-.578 4.693h-.467a20.57 20.57 0 0 1 .615-4.693h.32c-.22-.475-.465-.745-.726-.745-.78 0-1.446 2.44-1.517 5.438h-.175a11 11 0 0 1 1.087-5.279.508.508 0 0 0-.33-.152c-.779 0-1.446 2.441-1.515 5.439H9.9a13.85 13.85 0 0 1 .762-4.693h-.469a32.1 32.1 0 0 0-.383 4.693h-.238a28.8 28.8 0 0 1 .427-4.693h-.367a24.56 24.56 0 0 0-.51 4.692h-.367a21.7 21.7 0 0 1 .577-4.693h-.11a1.285 1.285 0 0 0-.595-.724l12.208-.147a3.545 3.545 0 0 1 1.015 2.19v.011l.11.495a13.8 13.8 0 0 1 .151 2.749Z"/></svg>