<svg xmlns="http://www.w3.org/2000/svg" fill="#44739e" viewBox="0 0 24 24"><path d="M13.0528 7.005c.852 0 1.546-1.028 1.546-2.292s-.694-2.292-1.546-2.292-1.547 1.028-1.547 2.292.694 2.292 1.547 2.292m-1.926-.421a1.09 1.09 0 0 0 .476-.122 3.3 3.3 0 0 1-.481-1.749 3 3 0 0 1 .914-2.266 1.244 1.244 0 0 0-.909-.447c-.853 0-1.546 1.028-1.546 2.292s.693 2.292 1.546 2.292m6.667 12.071a.61.61 0 0 1-.333.312.69.69 0 0 1-.469-.038 3.9 3.9 0 0 1-.714-.322l-.034.027a7 7 0 0 1-.182-.111l-.051-.027.28-.28.031.019c.088.056.17.106.245.152l-.036.028q.7.4.93.22c.14-.114.07-.384-.107-.845l-.038.028c.162.423.234.687.117.782-.094.077-.321.092-.86-.214l.743-.565c-.054-.141-.11-.281-.167-.421-.093-.23-.2-.495-.312-.795l-.289.214V16.7l.256-.189c-.075-.2-.148-.409-.217-.615a4 4 0 0 1-.039-.126v-.15c.035.122.064.218.08.266.072.214.143.413.213.6l.032-.026c-.071-.193-.14-.388-.206-.583-.02-.061-.066-.215-.123-.421v-1.043a10.2 10.2 0 0 0 .263 1.075c.023.077.1.3.235.671a.7.7 0 0 0 .009-.077v-.033c-.115-.316-.181-.5-.2-.574a12.8 12.8 0 0 1-.3-1.31l.044-.017a10.4 10.4 0 0 0 .3 1.314c.018.06.071.212.162.461l.055-2.1.944-.667a.363.363 0 0 0 .154-.291v-1.079a.307.307 0 0 0-.2-.286l-.93-.349a.54.54 0 0 0-.434.026l-.1.052V8.813c0-.007-.011-.009-.013-.017l.162-.089-5.627-1.747a1.483 1.483 0 0 1-.719-.223l-2.124-.659-.026.02-.024-.009a.2.2 0 0 0-.159.013l-.609.335a.269.269 0 0 0-.141.24l.008 1.117c0 .025-.01.927-.008.941l.068 7.088-.364.235v.191l4.392 2.06 3.272-2.3v.108l-3.267 2.3-2.612-1.228-1.551 1.036-.028.021-.04.034a.274.274 0 0 0-.093.2v.878a.536.536 0 0 0 .293.478l1.133.577a1.63 1.63 0 0 0 .5-.042l.763-.518a.185.185 0 0 1 .239-.018l.355.172a.128.128 0 0 1 .091.155.11.11 0 0 1-.015.034l-.349.576a.38.38 0 0 0-.051.23l.007.06a.27.27 0 0 0 .154.213l1.4.686a.33.33 0 0 0 .348-.035l4.329-3.294a4 4 0 0 0 .737.334 1.09 1.09 0 0 0 .328.069.55.55 0 0 0 .171-.03.65.65 0 0 0 .348-.322l-.019-.1c-.001.026.002.049-.011.072m-7.137-4.982-1.424.927v-3.473l.489.188.024.787a.2.2 0 0 0 .1.165l.065.04a.093.093 0 0 1 .044.062.1.1 0 0 1-.014.077l-.247.354v.227l.167.1.129-.077.24-.174a.1.1 0 0 1 .056-.019.074.074 0 0 1 .044.011.1.1 0 0 1 .053.085v.085l.061.061.114.017a.1.1 0 0 1 .082.109.1.1 0 0 1-.046.065v.01l.217.083a.267.267 0 0 0 .238-.02l1.265-.751.027-.13v-.006l-.57-.207a.1.1 0 0 1-.063-.1l.046-.923a.1.1 0 0 1 .049-.076c.384-.214.664-.38.725-.425V9.691a.238.238 0 0 0-.153-.22l-.286-.112a.093.093 0 0 1-.062-.087l-.008-.313-.44-.159h-.008l-.263.1v.006l-.007.193a.1.1 0 0 1-.046.077l-.358.219a.1.1 0 0 1-.1 0 .091.091 0 0 1-.046-.089l.035-.548v-.012l-.239-.079-.218.121-.012.8a.094.094 0 0 1-.035.077.57.57 0 0 1-.219.11.142.142 0 0 0-.107.154l.014.1a.092.092 0 0 1-.034.087l-.147.121a.4.4 0 0 0-.024.031l-.523-.186V7.2l5.372 1.659a.25.25 0 0 0-.028.105l.008 1.117c0 .025-.01.927-.008.941l.009.953-.6-.185-1.787-.638-.27.153v.005l-.045.851 2.701 1.039v-.652l.007-.011.022 2.331-1.329-.55a.268.268 0 0 0-.254.025l-.239.16 1.83.8v.1zm6.989 3.843-.03.049.126.343c0-.033.011-.061.014-.093zm.048-.19.042-.933a.35.35 0 0 0-.217-.339l-.365-.154v.177l-.006.065.5 1.367a.47.47 0 0 0 .046-.183m-.789-.772-.025.02c.188.5.358.9.479 1.214l.038-.028-.159-.4c-.11-.272-.217-.544-.32-.818zm.711 1.012-.488-1.331a.7.7 0 0 1-.024.066l.479 1.307z"/></svg>