<svg xmlns="http://www.w3.org/2000/svg" viewBox="0 0 24 24"><path fill="#44739e" d="M12.982 16.598a5.906 5.906 0 0 1-5.383-4.845 7.34 7.34 0 0 1-.034-1.822 5.902 5.902 0 0 1 5.063-4.994 7.45 7.45 0 0 1 1.999.055 6.32 6.32 0 0 1 1.327.432l.301.141-.283.132a2.625 2.625 0 0 0 .466 4.93 2.88 2.88 0 0 0 1.366 0 2.705 2.705 0 0 0 1.25-.741c.116-.123.233-.212.233-.196a3.1 3.1 0 0 1 .061.378 7.22 7.22 0 0 1-.071 1.832 5.893 5.893 0 0 1-2.248 3.539 6.04 6.04 0 0 1-4.052 1.159Zm-1.787 1.038c-.284-.026-1.029-.156-1.305-.225a8.454 8.454 0 0 1-5.488-4.437 7.72 7.72 0 0 1-.831-3.644 7.8 7.8 0 0 1 .827-3.645 8.02 8.02 0 0 1 1.637-2.271 8.408 8.408 0 0 1 4.891-2.367 11.3 11.3 0 0 1 2.512.05 8.565 8.565 0 0 1 3.255 1.295 8.24 8.24 0 0 1 3.727 7.394c-.027.048-.041 0-.058-.209a7.396 7.396 0 0 0-14.58-.678 7.09 7.09 0 0 0 .233 3.711 7.379 7.379 0 0 0 4.61 4.611 7.5 7.5 0 0 0 1.606.357c.52.042.39.082-.253.076-.349 0-.699-.011-.778-.018Zm10.173 3.122v-1.433h.531v2.866h-.531Zm-1.097 0v-1.433h.567v2.866h-.567Zm-3.671.45.009-.983.186-.061a2.8 2.8 0 0 1 .54-.085l.349-.023v.466l-.202.022c-.117.013-.24.031-.283.039l-.081.017v1.591h-.532Zm-4.502-.45v-1.433h.566v.806l.133-.03a1.12 1.12 0 0 1 .566.014.781.781 0 0 1 .529.394c.097.176.098.186.111.932l.012.752h-.537v-.635a5.24 5.24 0 0 0-.037-.761c-.047-.171-.176-.239-.453-.239-.35 0-.323-.065-.323.835v.793h-.567Zm-4.176.547c0-.963.014-1.042.193-1.124a2.154 2.154 0 0 1 1.281-.012c.331.168.363.282.363 1.242v.78h-.492v-.667a5 5 0 0 0-.038-.773c-.047-.138-.161-.188-.427-.188-.368 0-.349-.044-.349.85v.778h-.531Zm-3.742-.097.009-.983.187-.061a2.8 2.8 0 0 1 .539-.085l.349-.023v.466l-.202.022c-.117.013-.24.031-.283.039l-.081.017v1.591h-.527Zm14.691-1.119a.873.873 0 0 0-.487.098c-.357.175-.494.445-.494.978 0 .62.233.959.724 1.06a1.69 1.69 0 0 0 .737-.057.981.981 0 0 0 .531-1.003 1.022 1.022 0 0 0-.296-.842.894.894 0 0 0-.715-.234m0 .444h.065c.294.028.417.214.417.629a.7.7 0 0 1-.158.53.549.549 0 0 1-.571.04c-.143-.089-.191-.233-.191-.582-.002-.44.124-.624.436-.617Zm-7.959 1.713a1.5 1.5 0 0 0-.163-.035.852.852 0 0 1-.547-.418.963.963 0 0 1-.117-.558 1.204 1.204 0 0 1 .062-.568.861.861 0 0 1 .905-.583 2.33 2.33 0 0 1 .466.046l.185.048v.46l-.097-.025a1.85 1.85 0 0 0-.601-.052c-.269.037-.399.233-.399.601 0 .564.292.724 1.002.547l.095-.024v.458l-.164.042a2.33 2.33 0 0 1-.627.061m-4.621-.019a.707.707 0 0 1-.582-.443 2.8 2.8 0 0 1-.076-.911l-.014-.77h.535l.01.723c.011.699.013.725.095.815a.475.475 0 0 0 .667-.047 3.14 3.14 0 0 0 .044-.788v-.698h.523v.718c0 .825-.036 1.013-.226 1.203a1.232 1.232 0 0 1-.98.203Zm-3.489-.001a.875.875 0 0 1-.625-.477c-.065-.124-.076-.2-.076-.583 0-.485.039-.612.253-.829a1.281 1.281 0 0 1 1.171-.203l.187.048v.46l-.098-.024a1.85 1.85 0 0 0-.6-.053c-.269.038-.399.233-.399.601s.116.544.381.604a1.54 1.54 0 0 0 .62-.06l.099-.022-.011.221c-.011.223-.011.223-.142.268a1.95 1.95 0 0 1-.76.049m11.808.766c0-.008.079-.203.177-.433a3.7 3.7 0 0 0 .177-.473c0-.029-.16-.466-.35-.978s-.349-.942-.349-.964.093-.041.277-.041h.277l.224.699a5.1 5.1 0 0 0 .233.664c0-.02.104-.331.218-.691l.206-.654.29-.011a1.5 1.5 0 0 1 .289 0c0 .022-.901 2.408-1.004 2.66l-.086.212-.287.01a1.4 1.4 0 0 1-.292 0"/></svg>