<svg xmlns="http://www.w3.org/2000/svg" fill="#44739e" viewBox="0 0 24 24"><path d="M12.813 15.841a5.071 5.071 0 0 1-4.622-4.16 6.3 6.3 0 0 1-.029-1.565 5.068 5.068 0 0 1 4.347-4.288 6.4 6.4 0 0 1 1.717.047 5.43 5.43 0 0 1 1.139.371l.259.121-.243.114a2.254 2.254 0 0 0 .4 4.233 2.475 2.475 0 0 0 1.173 0 2.323 2.323 0 0 0 1.073-.636c.1-.106.2-.182.2-.169a2.7 2.7 0 0 1 .053.325 6.2 6.2 0 0 1-.061 1.573 5.06 5.06 0 0 1-1.931 3.039 5.187 5.187 0 0 1-3.479.995zm-1.534.892c-.244-.023-.884-.134-1.121-.194a7.259 7.259 0 0 1-4.712-3.81A6.63 6.63 0 0 1 4.732 9.6a6.7 6.7 0 0 1 .71-3.13 6.89 6.89 0 0 1 1.406-1.95 7.22 7.22 0 0 1 4.2-2.032 9.7 9.7 0 0 1 2.157.043A7.355 7.355 0 0 1 16 3.643a7.076 7.076 0 0 1 3.2 6.349c-.023.041-.035 0-.05-.18A6.351 6.351 0 0 0 6.631 9.23a6.09 6.09 0 0 0 .2 3.187 6.336 6.336 0 0 0 3.958 3.959 6.43 6.43 0 0 0 1.379.307c.447.036.335.07-.217.065-.3 0-.6-.009-.668-.015zm8.735 2.68v-1.23h.456v2.461h-.456zm-.942 0v-1.23h.487v2.461h-.487zm-3.152.387.008-.844.159-.053a2.4 2.4 0 0 1 .464-.073l.3-.019v.4l-.174.019c-.1.011-.206.026-.243.033l-.069.015v1.366h-.457zm-3.866-.387v-1.23h.486v.692l.114-.026a.96.96 0 0 1 .486.012.671.671 0 0 1 .455.339c.083.151.084.159.095.8l.01.646h-.461V20.1a4.5 4.5 0 0 0-.032-.653c-.04-.147-.151-.205-.389-.205-.3 0-.277-.056-.277.717v.681h-.487zm-3.586.47c0-.827.012-.895.166-.965a1.85 1.85 0 0 1 1.1-.01c.284.144.312.242.312 1.066v.67h-.423v-.573a4.3 4.3 0 0 0-.032-.664c-.041-.118-.139-.161-.367-.161-.316 0-.3-.038-.3.73v.668h-.456ZM5.255 19.8l.008-.844.16-.053a2.4 2.4 0 0 1 .463-.073l.3-.019v.4l-.174.019c-.1.011-.206.026-.243.033l-.069.015v1.366h-.453Zm12.615-.961a.75.75 0 0 0-.418.084c-.307.15-.424.382-.424.84 0 .532.2.823.621.91a1.45 1.45 0 0 0 .633-.049.842.842 0 0 0 .456-.861.878.878 0 0 0-.254-.723.768.768 0 0 0-.614-.201m0 .381h.056c.252.024.358.184.358.54a.6.6 0 0 1-.136.455.471.471 0 0 1-.49.035c-.123-.077-.164-.2-.164-.5-.002-.378.106-.536.374-.53zm-6.834 1.471a1.3 1.3 0 0 0-.14-.03.732.732 0 0 1-.47-.359.827.827 0 0 1-.1-.479 1.034 1.034 0 0 1 .053-.488.739.739 0 0 1 .777-.5 2 2 0 0 1 .4.039l.159.041v.395l-.083-.021a1.59 1.59 0 0 0-.516-.045c-.231.032-.343.2-.343.516 0 .485.251.622.86.47l.082-.021v.394l-.141.036a2 2 0 0 1-.538.052m-3.968-.016a.607.607 0 0 1-.5-.381 2.4 2.4 0 0 1-.065-.782l-.012-.661h.459l.009.621c.009.6.011.622.081.7a.408.408 0 0 0 .573-.041 2.7 2.7 0 0 0 .038-.676v-.6H8.1v.617c0 .708-.031.87-.194 1.033a1.058 1.058 0 0 1-.842.174Zm-2.996-.001a.751.751 0 0 1-.537-.41c-.056-.106-.065-.171-.065-.5 0-.417.033-.526.217-.712a1.1 1.1 0 0 1 1.006-.174l.16.041v.395l-.084-.021a1.59 1.59 0 0 0-.515-.045c-.231.032-.343.2-.343.516s.1.467.327.518a1.32 1.32 0 0 0 .533-.051l.085-.019-.01.19c-.009.191-.009.191-.122.23a1.67 1.67 0 0 1-.652.042m10.139.658c0-.007.068-.175.152-.372a3.2 3.2 0 0 0 .152-.406c0-.025-.137-.4-.3-.84s-.3-.809-.3-.828.08-.035.238-.035h.238l.192.6a4.4 4.4 0 0 0 .2.57c0-.017.089-.284.187-.593l.177-.562.249-.009a1.3 1.3 0 0 1 .248 0c0 .019-.773 2.068-.862 2.284l-.074.182-.246.009a1.2 1.2 0 0 1-.251 0"/></svg>