<svg xmlns="http://www.w3.org/2000/svg" viewBox="0 0 24 24"><path fill="#44739e" d="M1.893 18.976c-.093-.016-.271-.08-.361-.13-.129-.073-.339-.289-.409-.42-.122-.23-.156-.529-.09-.786.05-.198.125-.326.283-.484.224-.224.465-.322.792-.323.301-.001.555.097.767.296l.121.114-.201.177-.201.176-.07-.07c-.111-.111-.22-.159-.382-.167-.177-.01-.297.032-.409.142-.126.125-.158.209-.158.412 0 .197.03.282.141.396.102.105.227.153.4.154.124 0 .162-.007.245-.046.055-.026.137-.085.182-.131l.083-.085.205.153c.112.085.208.162.211.172.004.011-.052.075-.123.144-.152.146-.346.252-.537.292-.11.023-.387.031-.489.014m2.194-.013a.92.92 0 0 1-.372-.21c-.127-.118-.198-.229-.255-.397-.045-.133-.045-.134-.051-.808l-.006-.675h.567l.006.658c.005.641.006.659.043.729.105.195.35.264.58.162.043-.018.116-.07.164-.115l.086-.081v-1.353h.567v2.08h-.532v-.077c0-.043-.004-.078-.01-.078-.004 0-.04.023-.079.051-.123.089-.244.125-.445.132-.118.003-.209-.003-.263-.018m4.122.007c-.29-.058-.491-.23-.579-.495-.034-.105-.038-.156-.044-.617l-.006-.502-.287-.005-.287-.005-.004-.236-.005-.236h.586v-.586l.279.005.279.005.005.287.004.288h.67v.482h-.672l.005.48c.007.545.005.54.153.617.067.035.095.039.244.033.158-.005.169-.003.176.029.012.049.077.409.077.424 0 .042-.429.065-.593.032Zm1.785-.005c-.232-.059-.453-.232-.561-.437-.116-.222-.119-.249-.128-.988l-.007-.666h.568l.006.649c.005.732.007.742.137.854.176.15.471.113.675-.086l.078-.075v-1.342h.55v2.079h-.533v-.077c0-.042-.003-.077-.009-.077-.004 0-.04.023-.079.051-.12.087-.245.124-.436.131-.106.004-.207-.003-.261-.017Zm4.274-.004c-.285-.061-.562-.275-.688-.53a1.174 1.174 0 0 1 .001-1.035c.157-.321.403-.505.745-.556.454-.069.882.193 1.052.644.051.135.086.385.069.494l-.012.082h-.712c-.579 0-.712.004-.712.022 0 .119.149.325.282.39.221.107.523.059.713-.113l.072-.065.164.162.163.162-.1.092c-.12.11-.332.218-.495.252-.15.031-.394.031-.542-.001m.602-1.353c-.001-.053-.07-.166-.135-.221-.154-.132-.379-.134-.547-.005-.065.05-.095.09-.134.183l-.027.065h.422c.325 0 .421-.005.421-.022m1.925 1.354c-.118-.033-.17-.057-.253-.112-.041-.029-.079-.051-.083-.051-.005 0-.007.034-.007.077v.077h-.533v-3.042h.55v1.099l.107-.058c.31-.169.686-.163.984.016.203.122.376.341.457.576.054.157.066.469.025.641-.114.477-.535.806-1.022.801-.081-.001-.182-.011-.225-.024m.419-.548c.112-.055.189-.138.249-.268.063-.139.062-.33-.004-.473-.093-.204-.231-.302-.443-.315-.197-.011-.331.039-.483.183l-.065.061v.611l.054.061c.164.187.47.248.692.14m2.008.539c-.402-.105-.699-.408-.787-.802-.037-.166-.026-.433.024-.574.107-.302.296-.513.579-.644.168-.077.283-.101.481-.1.273.002.488.076.7.243.126.099.221.222.295.383s.097.27.097.46c0 .3-.1.537-.316.751-.158.155-.289.229-.503.284-.171.044-.401.043-.57-.001m.538-.54c.195-.095.293-.285.281-.54-.009-.177-.062-.292-.184-.4-.203-.179-.571-.151-.748.056-.163.19-.178.515-.034.723s.444.279.685.161m-13.708-.98v-1.522h.568l-.005 1.517-.004 1.517-.28.004-.279.005Zm5.896.48v-1.04h.55v.188l.046-.043c.131-.121.314-.184.542-.185.092 0 .172.005.178.01.007.007-.003.126-.018.266l-.03.254h-.183c-.17 0-.189.004-.273.051-.05.027-.126.087-.168.132l-.077.082v1.325h-.567Zm8.793.993c.026-.04.524-.736.706-.986l.057-.079-.343-.476c-.189-.262-.344-.48-.344-.484s.143-.007.317-.007h.317l.076.107c.042.059.133.19.204.291l.129.184.202-.291.203-.291h.316c.174 0 .316.004.316.01 0 .005-.151.22-.336.477s-.335.474-.334.484c.001.009.176.258.388.553s.385.54.385.546c0 .005-.148.008-.329.005l-.33-.004-.217-.312-.243-.348c-.023-.033-.038-.014-.265.316l-.24.352h-.666zM5.378 13.878c.071-.087 3.424-4.728 3.424-4.739 0-.007-.668-.938-1.486-2.069L5.831 5.014h1.37l1.369.001 1.41 2.048c.775 1.126 1.412 2.057 1.415 2.069.002.011-.719 1.089-1.605 2.394L8.181 13.9h-1.41c-1.126 0-1.407-.005-1.393-.022m8.839-2.346c-.883-1.302-1.606-2.379-1.605-2.393 0-.022 2.759-4.044 2.815-4.104.016-.017.306-.021 1.38-.017l1.36.004-1.485 2.054c-.816 1.13-1.484 2.058-1.485 2.063s.773 1.076 1.719 2.38 1.718 2.374 1.718 2.377c0 .002-.632.004-1.406.004h-1.406Z"/></svg>