<svg xmlns="http://www.w3.org/2000/svg" viewBox="0 0 24 24"><path fill="#44739e" d="M.9739 19.6098c-.1013-.0168-.2958-.087-.3938-.142-.14-.0787-.37-.315-.4458-.458-.1327-.2508-.1701-.577-.0984-.8573.0552-.2158.1369-.3552.3092-.5276.2444-.2446.5067-.3518.8632-.3528.3292-.0009.6055.1059.8376.3236l.1318.1237-.219.1928-.2192.1928-.0773-.0772c-.1206-.1206-.2397-.1727-.4165-.1821-.1933-.0103-.3234.0351-.4457.1557-.138.136-.173.2272-.173.4493 0 .2144.033.3071.154.4316.1115.1149.2478.1673.4366.168.1348.0004.1761-.007.2676-.0502.0595-.0279.1487-.0923.1982-.143l.09-.0925.2237.1675c.123.0921.2268.1766.2307.1876.004.011-.0568.0817-.1348.157-.165.1592-.377.2744-.5848.318-.1205.0251-.4222.0337-.5344.0151zm2.3943-.0141a1.006 1.006 0 0 1-.406-.2285c-.139-.1287-.2167-.2497-.2786-.4338-.0488-.145-.0488-.1463-.0556-.8811l-.007-.736h.6194l.006.7172c.006.6996.007.7192.0474.7951.1141.2135.3817.2885.6327.1775.0461-.0204.1263-.0768.1782-.1253l.0944-.0883v-1.4762h.6188v2.2688h-.5813v-.0844c0-.0464-.004-.0844-.01-.0844-.005 0-.0441.025-.0863.0556-.1342.0972-.2665.1363-.4854.1433-.1294.004-.2278-.003-.287-.0196zm4.4966.008c-.3166-.0636-.5357-.251-.6315-.5405-.038-.1146-.042-.1694-.0486-.6728l-.007-.548-.3126-.005-.3126-.005-.005-.2579-.005-.2578h.6386v-.6385l.3047.005.3047.005.005.3141.005.3141h.7304v.525h-.7335l.006.5237c.007.5948.005.5889.1663.673.074.0386.1038.0427.2667.0368.172-.006.184-.004.1925.0316.0126.053.0834.4455.0834.4621 0 .0456-.4679.071-.6469.035zm1.9473-.006c-.253-.0644-.4949-.2526-.612-.4761-.1268-.2422-.1307-.2717-.1396-1.0782l-.008-.7266h.6198l.006.7078c.006.799.008.8104.1502.9318.1915.164.5136.1233.7362-.093l.085-.0827v-1.464h.6v2.2689h-.5813v-.0844c0-.0464-.004-.0844-.01-.0844-.005 0-.044.025-.0864.0556-.1314.0952-.2671.136-.476.1433-.1147.004-.225-.003-.2841-.0181zm4.6624-.004c-.3109-.067-.6138-.3004-.7508-.5784a1.281 1.281 0 0 1 .0006-1.1292c.1716-.35.4397-.55.8128-.6066.4954-.075.9625.2111 1.1477.703.0555.1474.0938.4195.0759.539l-.0133.0889h-.777c-.6317 0-.777.005-.777.0248 0 .1294.1633.3545.308.4246.2414.1168.5708.0651.7782-.1223l.0786-.071.1782.1766.1782.1767-.1088.0998c-.1315.1205-.362.2379-.5405.2752-.163.0341-.4296.0336-.5907-.001zm.656-1.4756c-.001-.0576-.0762-.1812-.147-.2418-.1674-.1433-.4131-.1453-.5971-.005-.0708.054-.1032.0985-.1455.2l-.0293.0703h.4596c.3555 0 .4596-.005.4593-.0234zm2.1004 1.4773c-.1286-.037-.1858-.0624-.2757-.1232-.0453-.0306-.0862-.0556-.0908-.0556-.005 0-.008.038-.008.0844v.0844h-.5813v-3.3189h.6v1.1994l.1172-.064c.3383-.1843.7479-.1774 1.0735.018.2211.1328.4103.3712.4983.6279.059.1717.072.5119.0271.6993-.1247.52-.5837.8797-1.1153.8741-.088-.001-.198-.0126-.2445-.0259zm.4574-.5988c.1221-.0597.206-.15.271-.2916.0695-.1514.0679-.3599-.004-.5165-.102-.2226-.252-.3291-.4832-.343-.2152-.0127-.361.0424-.5273.1997l-.0703.0665v.6661l.0588.067c.1786.2035.5121.2705.7548.1518zm2.1906.5885c-.4393-.1151-.7629-.4447-.8585-.8745-.0404-.1815-.0285-.4728.0256-.6262.1165-.3304.3227-.5597.632-.7025.1836-.0848.3083-.1109.525-.1096.2978.002.5319.083.7637.2649.1373.1078.2408.2424.3214.4181.0805.1756.1056.295.1056.502 0 .3274-.109.5857-.345.8187-.1715.1692-.3154.2505-.5486.3101-.1864.0477-.4368.0472-.6211-.001zm.5862-.5893c.2126-.104.3198-.3102.3064-.589-.009-.1934-.067-.3186-.2006-.4363-.2215-.195-.6223-.165-.8157.061-.1778.2077-.1943.5616-.0368.7892.157.2268.4841.3035.7467.175zM5.5116 17.9264v-1.66h.619l-.005 1.6549-.005 1.6547-.3047.005-.3047.005zm6.4316.5246v-1.1345h.6v.2045l.0502-.0465c.1432-.1327.3424-.2007.5915-.202.1003-.0004.1877.005.1943.0112.007.007-.003.1369-.0203.2896l-.0323.2776h-.1995c-.1855 0-.2065.004-.2984.0548-.0544.0301-.1367.0952-.1828.1445l-.084.0897v1.4454h-.6187zm9.5924 1.0828c.0286-.0437.572-.803.7698-1.0756l.0627-.0865-.3748-.5193c-.206-.2857-.3747-.523-.3747-.5276 0-.005.1557-.008.346-.008h.346l.0824.1172c.0454.0645.1456.2073.2227.3176l.1402.2003.2213-.3175.2214-.3176h.3444c.1895 0 .3445.005.3445.0109 0 .006-.165.2402-.3667.5203-.2016.2802-.3654.5179-.364.5282.001.0103.1917.2817.4228.6032s.4204.5896.4204.5958c0 .006-.1617.009-.3593.006l-.3593-.005-.2375-.3407-.2641-.3788c-.0252-.036-.042-.0158-.2893.3449l-.2625.383-.3631.0005-.3631.0004.0337-.0516zM4.7759 14.0492c.0772-.0958 3.7358-5.1588 3.7358-5.1699 0-.008-.7294-1.0237-1.621-2.2576L5.2699 4.3784l1.4944.0009 1.4944.0009 1.5376 2.2337c.8457 1.2286 1.5401 2.2442 1.5433 2.257.003.0128-.7843 1.1884-1.75 2.6125l-1.7557 2.5892H6.2954c-1.2283 0-1.5346-.005-1.5195-.0234m9.6426-2.5595c-.9634-1.4206-1.7515-2.5956-1.7513-2.611.0003-.0242 3.0103-4.4118 3.0713-4.477.0174-.0186.3341-.0225 1.5055-.0188l1.4834.005-1.6195 2.2408c-.8907 1.2324-1.6196 2.245-1.6198 2.25s.8433 1.1737 1.8744 2.5968 1.8748 2.5895 1.8748 2.5923c0 .003-.6901.005-1.5336.005H16.17z"/></svg>