<svg xmlns="http://www.w3.org/2000/svg" viewBox="0 0 24 24"><path fill="#44739e" d="M19.126 9.62Q21.084 6.59 23 3.531c-3.602 1.26-7.19 2.562-10.802 3.798a.51.51 0 0 1-.382 0C8.198 6.102 4.609 4.788 1 3.531q1.929 3.047 3.874 6.085c.61-.249 1.229-.475 1.846-.719-.352-.622-.73-1.227-1.087-1.845 1.163.581 2.342 1.13 3.495 1.731-.801.312-1.607.608-2.401.931a1.371 1.371 0 0 0-.963 1.046 2.675 2.675 0 0 0 .66 1.623q2.577 4.042 5.157 8.086a21.3 21.3 0 0 0-.007-2.155c-.683-2.185-1.37-4.369-1.992-6.572-.119-.273.175-.464.384-.56.677-.33 1.338-.688 2.026-.99.68.251 1.302.64 1.966.934.235.11.601.289.477.616-.626 2.2-1.305 4.387-1.993 6.571a20.4 20.4 0 0 0-.012 2.153c1.749-2.719 3.479-5.449 5.22-8.171a2.486 2.486 0 0 0 .607-1.524 1.36 1.36 0 0 0-.956-1.057c-.801-.324-1.609-.627-2.42-.934 1.153-.599 2.336-1.144 3.499-1.729-.357.618-.737 1.224-1.089 1.845.609.245 1.231.465 1.835.724"/></svg>