<svg xmlns="http://www.w3.org/2000/svg" viewBox="0 0 24 24"><path fill="#44739e" d="M16.6 14.865h.883v1.793H16.6Zm4.17.023a.152.152 0 0 0-.098-.023.15.15 0 0 0-.096.023l-2.218 1.73c-.023.019-.013.043.023.043h1.078l1.144-.919a.11.11 0 0 1 .14 0l1.143.919h1.078c.036 0 .047-.024.024-.043Zm-8.891.047-.903.725a.119.119 0 0 0 0 .204l.903.724a.33.33 0 0 0 .241.07h3.16v-.59l-2.809-.014a.21.21 0 0 1-.147-.044l-.299-.201c-.022-.017-.032-.028-.032-.045s.01-.028.032-.045l.305-.201a.21.21 0 0 1 .146-.045l2.81-.013v-.593H12.12a.33.33 0 0 0-.241.068m-3.748-.07a.152.152 0 0 0-.098.023l-2.217 1.73c-.023.019-.012.043.024.043h1.078l1.143-.923a.11.11 0 0 1 .14 0l1.144.92h1.078c.036 0 .046-.024.023-.043l-2.218-1.727a.15.15 0 0 0-.097-.023m2.057-3.346 1.987-1.501 1.988 1.5a.594.594 0 0 0 .404.13h7.553v-1.43h-6.841V8.771h6.841v-1.43h-7.553a.598.598 0 0 0-.404.129l-1.988 1.497-1.987-1.499a.598.598 0 0 0-.405-.129H2.236v1.43h6.836v1.444H2.236v1.43h7.547a.594.594 0 0 0 .405-.124m-5.787 3.416a.33.33 0 0 0-.241-.07H1v.593l2.809.013a.21.21 0 0 1 .147.045l.299.2c.022.018.032.028.032.046s-.01.028-.032.045l-.299.201a.21.21 0 0 1-.147.044L1 16.068v.592h3.16a.33.33 0 0 0 .241-.07l.904-.724a.12.12 0 0 0 0-.203Z"/></svg>