<svg xmlns="http://www.w3.org/2000/svg" viewBox="0 0 24 24"><path fill="#44739e" d="M7.752 10.656H6.007l-.652 2.613h2.004a1.54 1.54 0 0 0 1.586-1.507c0-1.072-1.193-1.106-1.193-1.106m.059 1.188s-.076.849-.8.849h-.409l.361-1.41h.372c.133 0 .518.035.476.561m9.957-1.189h-1.183l-.992.856.216-.856h-1.107l-.653 2.616h1.105l.225-.904.591.904h1.336l-.99-1.37Zm.516 0-.652 2.616h1.156l.652-2.616Zm-8.08 0-1.486 2.614h.77l.246-.44h1.056l.078.44H12l-.48-2.614Zm.164 1.516h-.264l.426-.755.139.755Zm2.64-1.516-.655 2.616h1.156l.654-2.616ZM3.505 9.652H1v4.696l5.232-4.696ZM1.66 11.357l1.154-1.065h1.733L1.66 12.887Zm20.54-.702-.386 1.54-.512-1.54h-1.286l-.653 2.616h.799l.389-1.554.515 1.553h1.281L23 10.655Z"/></svg>