<svg xmlns="http://www.w3.org/2000/svg" viewBox="0 0 24 24"><path fill="#44739e" d="M22.867 10.297a11 11 0 1 0-.008 3.455 11.03 11.03 0 0 0 .008-3.455m-1.37 3.241.64.102a10.26 10.26 0 0 1-1.007 3.064l-.577-.296a9.72 9.72 0 0 1-1.785 2.44l.458.461a10.28 10.28 0 0 1-2.614 1.89l-.294-.579a9.65 9.65 0 0 1-2.877.923l-.483-3.105a6.55 6.55 0 0 0 1.943-.624l-.247-.486a5.95 5.95 0 0 1-1.779.57l.083.54a6.54 6.54 0 0 1-2.038 0l-.502 3.104a9.6 9.6 0 0 0 3.023.006l.099.642a10.29 10.29 0 0 1-3.226-.008l.104-.64a9.63 9.63 0 0 1-2.871-.946l-.297.579a10.35 10.35 0 0 1-2.603-1.905l.461-.457a9.57 9.57 0 0 1-1.767-2.45l-.58.294a10.31 10.31 0 0 1-.985-3.072l.641-.099a9.66 9.66 0 0 0 .924 2.877l2.805-1.418a6.58 6.58 0 0 1-.624-1.942l-3.104.482a9.66 9.66 0 0 1 .006-3.023l-.641-.102a10.24 10.24 0 0 1 1.008-3.065l.578.297a9.74 9.74 0 0 1 1.779-2.446l-.457-.46a10.27 10.27 0 0 1 2.613-1.895l.294.578a9.68 9.68 0 0 1 2.878-.923l-.1-.641a10.27 10.27 0 0 1 3.226.006l-.104.642a9.65 9.65 0 0 1 2.871.944l.297-.577a10.38 10.38 0 0 1 2.604 1.904l-.461.457a9.63 9.63 0 0 1 1.767 2.45l.58-.293a10.32 10.32 0 0 1 .986 3.071l-.643.101a9.6 9.6 0 0 1-.002 3.028m-9.606-1.981a.442.442 0 1 0 .501.367.442.442 0 0 0-.501-.367m.558 1.407 2.209 4.359a5.96 5.96 0 0 0 1.514-1.096l-3.441-3.462a1.05 1.05 0 0 1-.282.199m-.664.104-.773 4.821a5.95 5.95 0 0 0 1.868 0l-.75-4.823a1.13 1.13 0 0 1-.345.002m1.25-1.244 4.825-.749a5.96 5.96 0 0 0-.571-1.779l-4.358 2.209a1.07 1.07 0 0 1 .104.319m-.304-.599 3.464-3.443a6.03 6.03 0 0 0-1.509-1.105l-2.23 4.345a1.05 1.05 0 0 1 .275.203m.195 1.265 4.344 2.229a6 6 0 0 1-1.104 1.508l.384.387a6.54 6.54 0 0 0 1.204-1.647l-.485-.248a6 6 0 0 0 .584-1.776l-4.822-.772a1.1 1.1 0 0 1-.105.319m-1.884-6.399.749 4.825a1.04 1.04 0 0 1 .342 0l.772-4.822a5.95 5.95 0 0 0-1.863-.003m-.16 6.069-4.826.748a5.97 5.97 0 0 0 .572 1.78l4.358-2.208a1.04 1.04 0 0 1-.104-.32m-3.159 4.042a5.96 5.96 0 0 0 1.508 1.104l2.231-4.345a1.06 1.06 0 0 1-.276-.201Zm1.508 1.102-.249.486a6.48 6.48 0 0 0 1.938.637l.086-.538a5.94 5.94 0 0 1-1.775-.585m6.963-9.522a6.02 6.02 0 0 1 1.095 1.514l.486-.246a6.5 6.5 0 0 0-1.195-1.656l2.224-2.212a9.7 9.7 0 0 0-2.429-1.784l-1.436 2.796a6.6 6.6 0 0 1 1.647 1.203Zm1.661 5.161.538.088a6.5 6.5 0 0 0 0-2.039l-.538.084a5.98 5.98 0 0 1 0 1.867m-3.17-6.264.249-.485a6.47 6.47 0 0 0-1.937-.636l-.087.538a5.93 5.93 0 0 1 1.775.583m-6.962 9.523a5.96 5.96 0 0 1-1.095-1.514l-.487.246a6.53 6.53 0 0 0 1.195 1.656Zm3.319-10.111-.084-.539a6.5 6.5 0 0 0-1.941.623L7.598 3.37a9.64 9.64 0 0 0-2.45 1.776L7.364 7.37a6.56 6.56 0 0 0-1.203 1.646l.485.248A6 6 0 0 1 7.75 7.756l-.384-.386a6.48 6.48 0 0 1 1.656-1.194l.245.485a5.95 5.95 0 0 0-1.512 1.095l3.436 3.463a1.1 1.1 0 0 1 .276-.2L9.258 6.66a6 6 0 0 1 1.784-.569m-4.98 4.949 4.822.778a1.08 1.08 0 0 1 .11-.323L6.645 9.264a5.93 5.93 0 0 0-.583 1.776l-.538-.087a6.51 6.51 0 0 0 0 2.039l.538-.084a5.95 5.95 0 0 1 0-1.868m2.92 6.75a6.54 6.54 0 0 1-1.646-1.204l-2.224 2.216a9.68 9.68 0 0 0 2.439 1.783Zm8.793-8.74a6.47 6.47 0 0 1 .622 1.942l3.106-.482a9.63 9.63 0 0 0-.923-2.877Zm-.019 5.923 2.796 1.435a9.64 9.64 0 0 0 .945-2.87l-3.104-.502a6.5 6.5 0 0 1-.637 1.937m-2.855 2.835 1.417 2.806a9.65 9.65 0 0 0 2.45-1.767l-2.216-2.229a6.47 6.47 0 0 1-1.651 1.19m-1.904-12.25.507-3.105a9.7 9.7 0 0 0-3.022-.007l.481 3.106a6.47 6.47 0 0 1 2.034.006M3.364 7.581a9.68 9.68 0 0 0-.945 2.87l3.105.502a6.45 6.45 0 0 1 .637-1.937Z"/></svg>