<svg xmlns="http://www.w3.org/2000/svg" fill="#44739e" viewBox="0 0 24 24"><path d="M19.5 5.663a7.964 7.964 0 0 0-6.743-3.5h-1.246a12.29 12.29 0 0 0-4.246 1.5 8.747 8.747 0 0 0-5.244 8.741c.25 3.5 1.249 7.492 7.242 9.24a12.11 12.11 0 0 0 4.246 0 3.16 3.16 0 0 0 1.5-.25 9.19 9.19 0 0 0 4.745-2.747A10.256 10.256 0 0 0 22 12.156a11.513 11.513 0 0 0-2.5-6.493M18.753 17.9a7.977 7.977 0 0 1-5.993 2.747 7.158 7.158 0 0 1-5.495-2.5 9.34 9.34 0 0 1-2.5-6.244 9.588 9.588 0 0 1 2.251-6.24 8.126 8.126 0 0 1 5.744-2.5 7.82 7.82 0 0 1 5.993 3 10.005 10.005 0 0 1 2 5.744 10.16 10.16 0 0 1-2 5.994"/></svg>