<svg xmlns="http://www.w3.org/2000/svg" viewBox="0 0 24 24"><path fill="#44739e" d="M20.251 5.036a8.757 8.757 0 0 0-7.414-3.848h-1.37a13.51 13.51 0 0 0-4.669 1.649 9.618 9.618 0 0 0-5.766 9.611c.275 3.848 1.374 8.238 7.963 10.16a13.32 13.32 0 0 0 4.669 0 3.474 3.474 0 0 0 1.649-.275 10.105 10.105 0 0 0 5.217-3.021A11.277 11.277 0 0 0 23 12.175a12.66 12.66 0 0 0-2.749-7.139m-.822 13.455a8.77 8.77 0 0 1-6.589 3.02 7.87 7.87 0 0 1-6.042-2.748 10.27 10.27 0 0 1-2.749-6.866 10.542 10.542 0 0 1 2.475-6.861 8.935 8.935 0 0 1 6.316-2.749 8.598 8.598 0 0 1 6.589 3.299 11 11 0 0 1 2.2 6.315 11.17 11.17 0 0 1-2.2 6.591"/></svg>