<svg xmlns="http://www.w3.org/2000/svg" viewBox="0 0 24 24"><path fill="#44739e" d="m17.262 13.338-.005 2.158-.009 2.167-1.512-2.167-1.517-2.158h-.956v6.067h1.135l.004-1.959.01-1.964 1.352 1.959 1.352 1.964h1.216v-6.067h-.533Zm-11.598 0v1.064l1.592.01 1.597.009-1.592 1.95-1.593 1.951-.004.538v.545h4.602v-1.069l-1.587-.004-1.578-.01 1.578-1.959 1.587-1.965v-1.06H7.963Zm7.754-2.676.588-.01.142-.348.141-.349h3.08l.151.359.15.357h.58a5.3 5.3 0 0 0 .58-.014c0-.009-.561-1.366-1.249-3.024l-1.247-3.011-.495-.009c-.382 0-.504 0-.518.033s-.565 1.367-1.239 2.991-1.229 2.97-1.238 2.992.108.038.574.033M14.78 8.81c.008-.033.249-.608.527-1.282s.513-1.225.528-1.225 1.036 2.431 1.06 2.53c.009.033-.198.042-1.06.042-1.014-.003-1.074-.008-1.055-.065M9.348 4.599H5.664v6.068h3.684l.692-.693.688-.688v-3.3l-.693-.692Zm.25 3.038v1.21l-.353.377-.355.381H6.733V5.664h2.148l.358.382.359.381ZM12 1H1v9.685l.66.66.66.66-.66.66-.66.66V23h22v-9.68l-.66-.66-.66-.66.66-.66.66-.66V1Zm9.926 5.14v4.07l-.891.891-.895.899.895.895.891.89v8.15H2.065V13.79l.89-.89.895-.9-.895-.894-.89-.891V2.069h19.861Z"/></svg>