<svg xmlns="http://www.w3.org/2000/svg" viewBox="0 0 24 24"><path fill="#44739e" d="M15.945 9.562a2.496 2.496 0 0 0-2.481 2.456 2.42 2.42 0 0 0 2.444 2.42 2.499 2.499 0 0 0 2.493-2.337 2.47 2.47 0 0 0-2.456-2.539m-.037 4.19a1.734 1.734 0 0 1 0-3.466 1.685 1.685 0 0 1 1.753 1.732 1.76 1.76 0 0 1-1.753 1.734M2.511 9.71H1v4.569h1.517a2.31 2.31 0 0 0 2.142-2.303A2.208 2.208 0 0 0 2.511 9.71m-.018 3.891h-.779V10.37h.63A1.56 1.56 0 0 1 3.953 12a1.54 1.54 0 0 1-1.46 1.601M23 9.71h-.714v2.952l-.004-.015-3.136-3.053v4.686h.723v-2.984l-.003-.017L23 14.368ZM5.462 14.28h2.546v-.714H6.175v-1.358h1.428v-.712l-1.428.001v-1.074H8.02V9.71H5.462Zm6.52-1.655L8.865 9.597v4.683h.714v-2.964l.005-.029 3.112 3.099V9.71h-.714Z"/></svg>