<svg xmlns="http://www.w3.org/2000/svg" fill="#44739e" viewBox="0 0 24 24"><path d="m10.927 9.588-.458.023-.003-.062-.162.008.003.062-.079.004-.003-.063-.162.008.003.063-.086.005-.003-.064-.162.008.003.064-.084.004-.003-.06-.162.007.003.061-.078.004-.003-.061-.161.008.002.061-.078.004-.002-.062-.162.008.003.062-.083.004-.003-.062-.162.007.003.063-.174.009v.149h2.253zm5.884.094V9.45a.323.323 0 0 0-.1-.589l-.34-.912-.009-.019a.323.323 0 0 0-.266-.508.37.37 0 0 0-.067.007l-1.658-1.224a.12.12 0 0 0-.042-.02l.162-.654-.176-.165.294-1.3a.151.151 0 0 0-.114-.182l-.025-.005a.152.152 0 0 0-.182.114l-1.15 5.09a.152.152 0 0 0 .115.181l.025.006a.151.151 0 0 0 .181-.115l.392-1.731h.171l.2-.789 1.562 1.15a.322.322 0 0 0 .255.28v.012l.34.912a.322.322 0 0 0 .093.463v.232a.132.132 0 0 0 .05.1h-.242v.093h.51v.49h-.51v.082h.664v-.664h-.184a.13.13 0 0 0 .051-.103m-9.54.949h.169a.324.324 0 0 0 .281-.161l.076-.13h-.352Zm8.455 9.528h-1.283v-4.93h-1.338v4.93h-3.4a.413.413 0 0 0-.413.413h6.847a.413.413 0 0 0-.413-.413m-2.552-9.45h1.2v4.409h-1.2zm2.5-.318a.023.023 0 0 0-.024-.023H8.944a.023.023 0 0 0-.023.023.183.183 0 0 0 .182.183h6.388a.183.183 0 0 0 .183-.183m-8.289-.426h9.34v.318h-9.34Z"/></svg>