<svg xmlns="http://www.w3.org/2000/svg" viewBox="0 0 24 24"><path fill="#44739e" d="M17.849 6.258c1.74-.585 2.078-.108.713 1.086-1.383 1.21-3.956 2.671-5.707 3.239-1.726.561-1.966.029-.572-1.165 1.373-1.179 3.849-2.583 5.566-3.16m-5.332 6.397c2.51-.695 6.115-2.743 7.996-4.54.952-.908 1.264-1.565 1.01-1.895-1.787-2.937-5.319-4.147-8.24-2.894.043-.158.075-.321.075-.493C13.358 1.82 12.537 1 11.525 1c-1.013 0-1.834.82-1.834 1.833 0 .901.652 1.648 1.51 1.802L2.665 12.81a.883.883 0 0 0-.272.627.872.872 0 0 0 .258.633l5.442 5.442c-.509.075-.997.166-1.421.287-.894.259-1.4.578-1.53.909a.43.43 0 0 0-.034.171v.573c0 .059.01.114.034.172.134.344.677.674 1.622.935 2.132.588 5.549.588 7.683 0 .945-.261 1.492-.591 1.626-.935a.45.45 0 0 0 .035-.172v-.573c0-.058-.011-.117-.035-.171-.13-.331-.636-.65-1.526-.909-1.131-.324-2.641-.476-4.135-.46L4.535 13.46l5.024-4.813c-.104 1.291.148 2.643.805 3.893.146.396.872.469 2.153.115"/></svg>