<svg xmlns="http://www.w3.org/2000/svg" fill="#44739e" viewBox="0 0 24 24"><path d="m10.989 12.262-.458.023-.003-.062-.162.007.003.063-.079.004-.003-.063-.162.007.003.064-.086.004-.003-.064-.162.008.003.064-.084.004-.003-.06-.161.008.002.06-.078.004-.003-.061-.161.008.003.061-.078.004-.003-.061-.162.007.003.062-.083.005-.003-.063-.162.008.003.063-.173.008v.15h2.252zm5.884.094v-.233a.322.322 0 0 0-.1-.589l-.34-.912-.009-.018a.324.324 0 0 0-.266-.509.3.3 0 0 0-.067.008l-1.658-1.225a.14.14 0 0 0-.042-.02l.163-.653-.177-.166.295-1.3a.152.152 0 0 0-.114-.181l-.025-.006a.153.153 0 0 0-.182.115L13.2 11.754a.152.152 0 0 0 .114.181l.025.006a.153.153 0 0 0 .182-.114l.391-1.732h.171l.2-.789 1.562 1.151a.321.321 0 0 0 .255.279v.012l.34.912a.323.323 0 0 0 .073.45l.02.013v.233a.131.131 0 0 0 .05.1h-.24v.094h.51v.489h-.51v.082h.663v-.665h-.184a.131.131 0 0 0 .051-.1m-9.54.949H7.5a.325.325 0 0 0 .281-.162l.076-.13h-.35zm8.426 6.828h-1.293V15.2h-1.338v4.93h-3.39a.413.413 0 0 0-.413.413h6.848a.413.413 0 0 0-.414-.41m-2.562-6.772h1.2v1.732h-1.2zm2.539-.296a.024.024 0 0 0-.024-.024H9.006a.024.024 0 0 0-.023.024.184.184 0 0 0 .182.182h6.388a.183.183 0 0 0 .183-.182m-8.289-.427h9.34v.318h-9.34z"/></svg>