<svg xmlns="http://www.w3.org/2000/svg" viewBox="0 0 24 24"><path fill="#44739e" d="M21.253 18.508c.011.154.308.112.319.008v-.372c0-.129-.298-.137-.308.01a2.65 2.65 0 0 0-.011.354m.154 1.235c.723-.009 1.084-1.028.971-1.896a1.576 1.576 0 0 0-.841-.182 2.05 2.05 0 0 0-.019.311s.179 0 .171.11v.498c0 .124-.183.094-.183.094s.025.445.013.596c.108.076-.283.096-.187 0l-.009-.588s-.176.011-.186-.055 0-.511 0-.511c.01-.077 0-.125.153-.125a3 3 0 0 1 .021-.328 1.517 1.517 0 0 0-.769.22c-.207.842.143 1.856.865 1.856m1.371-.89a1.027 1.027 0 0 0-.286-.941 7 7 0 0 1 .025.771c-.012.395-.397 1.294-1.105 1.294s-1.091-.873-1.067-1.294a2.36 2.36 0 0 1 .063-.75c-.236.162-.298.729-.273.891a7.15 7.15 0 0 1-.199 1.765c.335-.244.286-.223.485-.608.161-.315.197.294.955.284s.856-.599 1.004-.315a.921.921 0 0 0 .608.619c.025-.356-.347-.804-.21-1.716m-.492 1.243c-.023 0-.051.022-.092.074a1.167 1.167 0 0 1-1.601 0c-.223-.213-.098.353-.657.681a1.467 1.467 0 0 0 1.529 1.333c.733.063 1.614-.694 1.529-1.365-.612-.215-.597-.723-.708-.723m-.823 1.479a.316.316 0 1 1 .013-.628.316.316 0 1 1-.014.633ZM2.82 18.15l-.276 1.911H14.26l-.219-1.911Zm13.858 0h-2.386l.27 1.911h2.592Zm.468-1.112H2.437a.689.689 0 0 0-.672.542L1 21.065v.897h17.643v-.897l-.823-3.496a.688.688 0 0 0-.674-.531m.118 3.427H2.463a.413.413 0 0 1-.404-.499l.394-1.87a.414.414 0 0 1 .404-.329h13.969a.414.414 0 0 1 .403.321l.433 1.871a.414.414 0 0 1-.403.506Zm5.708-17.242a.823.823 0 0 0-.824-.823l-5.652.017a.889.889 0 0 0-.84-.604l-12.939.042a.889.889 0 0 0-.884.894l.03 9.92a.889.889 0 0 0 .893.887h4.425l-.228 1.511h-.624a.478.478 0 0 0 0 .953l5.786-.017a.478.478 0 0 0 0-.954h-.63l-.242-1.509h3.236v1.683a.823.823 0 0 0 .824.823l6.874-.022A.823.823 0 0 0 23 15.2Zm-20.19-.411 12.821-.041.022 7.314-12.821.038Zm5.126 12.247.227-1.518h2.137l.235 1.511Zm-5.097-2.453v-1.539l12.821-.039v1.54Zm14.233 2.484h-1.708v-1.563h.353a.889.889 0 0 0 .886-.891V9.644l.483.487Zm2.756 0h-1.862V9.77l-1.36-1.369-.024.021-.018-5.111 5.551-.026v4.198l-2.289 2.419Zm2.294-.019-1.411.019v-4.836l1.411-1.482ZM9.221 11.392l-.011-.011a.465.465 0 1 0 .465.465.454.454 0 0 0-.454-.454"/></svg>