<svg xmlns="http://www.w3.org/2000/svg" viewBox="0 0 24 24"><path fill="#44739e" d="m10.432 8.527-.603.031-.004-.082-.214.01.004.082-.104.005-.004-.083-.213.011.004.083-.114.007-.004-.085-.213.011.004.084-.111.005-.004-.079-.213.01.004.08-.103.005-.004-.08-.212.01.003.081-.103.005-.003-.082-.213.011.004.082-.11.005-.004-.082-.213.009.004.083-.229.012v.197h2.968Zm7.753.124v-.305a.426.426 0 0 0-.132-.777l-.448-1.201-.012-.025a.426.426 0 0 0-.35-.67.5.5 0 0 0-.088.01L14.97 4.07a.16.16 0 0 0-.055-.026l.213-.862-.232-.218.388-1.713a.199.199 0 0 0-.151-.239l-.033-.007a.2.2 0 0 0-.239.15l-1.516 6.707a.2.2 0 0 0 .152.238l.033.008a.199.199 0 0 0 .238-.151l.517-2.281h.225l.264-1.04 2.058 1.516a.424.424 0 0 0 .336.369v.015l.448 1.202a.424.424 0 0 0 .122.61v.306a.174.174 0 0 0 .066.132h-.319v.122h.672v.646h-.672v.108h.875v-.875h-.242a.171.171 0 0 0 .067-.136M5.615 9.902h.223a.427.427 0 0 0 .37-.213l.1-.171h-.464Zm11.14 12.554h-1.69V15.96h-1.763v6.496h-4.48a.544.544 0 0 0-.544.544H17.3a.544.544 0 0 0-.545-.544m-3.362-12.452h1.581v5.81h-1.581Zm3.294-.419a.03.03 0 0 0-.032-.03H7.819a.03.03 0 0 0-.03.03.241.241 0 0 0 .24.242h8.417a.241.241 0 0 0 .241-.242M5.765 9.024h12.307v.419H5.765Z"/></svg>