<svg xmlns="http://www.w3.org/2000/svg" fill="#44739e" viewBox="0 0 24 24"><path d="M15.9092 3.9383 1.1709 5.8074l-.0098.2364 8.082 2.4609 13.3477-2.877.006-.2011zm5.7383 1.9668-1.6465.3652s.0626.132.2363.1934 1.4632-.2792 1.459-.4024-.0488-.1562-.0488-.1562m-2.213.4824-.5312.1348-.1113 5.2226v.002l-.002.002-.0039.002c-.001.0003-.0027-.0001-.0039 0l-.0527.0018c-.0051.0002-.0098-.0026-.0098-.0059l.1113-5.2129-.5312.0918-.0704 5.0957.5176.1465.5938-.164zm-14.5273.9277-.0097 5.7989.5761.2207.7774-.1524-.0078-5.4902-.7266-.084.004 5.5957c0 .0031-.0043.0062-.0098.006l-.0528-.004c-.0056-.0003-.0098-.0027-.0098-.0059L5.417 7.5946zM18.294 11.872l-.0098 2.455s-2.2697-.5995-2.375-.6132c-.1054-.0138-.8184.1914-.8184.1914s-.0366.0137-.0469.0332c-.02.038-.0117.1953-.0117.1953l6.955 1.8047s.1111.0335.2227.0312c.1626-.0033.588-.162.588-.162s.041-.002.041-.0821c-.005-.0656-.181-.2794-.4043-.3574-.0504-.016-3.1934-.8106-3.1934-.8106l.0039-2.668-.5.1407zM4.997 13.3758l.0099 4.2832s-1.707-.68-1.7891-.6934c-.0721-.0117-.933.1198-.9961.1563-.0389.0224-.045.2285-.045.2285l6.0548 2.6758s.0959.0627.3203.0215.6992-.164.6992-.164.212-.069.1113-.211-.412-.3985-.412-.3985l-2.84-1.1718-.0038-4.6875-.6739.1152z"/></svg>