<svg xmlns="http://www.w3.org/2000/svg" fill="#44739e" viewBox="0 0 24 24"><path d="M22 13c-1.104 0-2 .896-2 2s.896 2 2 2 2-.896 2-2-.896-2-2-2m0 6c-2.206 0-4-1.794-4-4s1.794-4 4-4 4 1.794 4 4-1.794 4-4 4m-6 7c-2.206 0-4-1.794-4-4s1.794-4 4-4 4 1.794 4 4-1.794 4-4 4m-6-13c1.104 0 2 .896 2 2s-.896 2-2 2-2-.896-2-2 .896-2 2-2m-4 2c0-2.206 1.794-4 4-4s4 1.794 4 4-1.794 4-4 4-4-1.794-4-4m10 5c1.104 0 2 .896 2 2s-.896 2-2 2-2-.896-2-2 .896-2 2-2m0-16C9.373 4 4 9.373 4 16s5.373 12 12 12 12-5.373 12-12S22.627 4 16 4"/></svg>