<svg xmlns="http://www.w3.org/2000/svg" viewBox="0 0 24 24"><path fill="#44739e" d="M1 12.76h.057v.221H1Zm0 .412h.057v.22H1Zm21.942 0H23v.22h-.058Zm0-.822H23v.221h-.058Zm0 .41H23v.221h-.058ZM1 12.35h.057v.221H1Zm19.338.221.163-.22h2.441V5.019H1.057v7.331h3.22l-.163.22H1.057v.189H3.97l-.162.22H1.057v.19h2.616l-.162.22H1.057v5.592h21.89v-5.589h-3.212l.161-.22h3.046v-.191h-2.907l.163-.22h2.744v-.189Zm-1.131-2.291-1.351 1.831h-2.139l1.352-1.835Zm-15.041.951.703-.955H8.92c1.03 0 1.293.814 1.004 1.205l-.464.63H7.896c-.297 0-.208-.122-.157-.189.097-.133.258-.359.354-.488s.098-.203-.096-.203Zm3.159 2.161H3.882l1.408-1.92h1.76c.194 0 .191.074.097.202l-.358.487c-.049.068-.139.19.158.19H9.29a2.437 2.437 0 0 1-1.965 1.041m3.876 0H9.182l.77-1.042h2.015Zm2.921 0h-2.02l.77-1.042h2.02Zm-4.001-1.281 1.351-1.835h2.019l-.77 1.052h.9l.776-1.052h2.014l-1.351 1.835Zm9.24 1.276h-3.238c-.827 0-1.052-.399-.799-.741.073-.097.22-.299.22-.299h4.586Z"/></svg>