<svg xmlns="http://www.w3.org/2000/svg" viewBox="0 0 24 24"><path fill="#44739e" d="M5.136 1A4.134 4.134 0 0 0 1 5.136v13.728A4.134 4.134 0 0 0 5.136 23h13.728A4.134 4.134 0 0 0 23 18.864V5.136A4.134 4.134 0 0 0 18.864 1Zm2.93 2.75h3.086c2.778-.002 5.041 2.192 5.065 4.914.007 2.72-2.24 4.929-5.016 4.939H8.063a.21.21 0 0 1-.083-.02h-.006a.21.21 0 0 1-.071-.057h-.006a.21.21 0 0 1-.037-.077.21.21 0 0 1-.008-.099c.022-.128.055-.253.099-.374l.011-.052a2.6 2.6 0 0 1 .179-.397c.035-.062.077-.115.119-.173a2.433 2.433 0 0 1 1.729-1.03c.053-.008.106-.017.161-.02.033-.002.064-.006.097-.007h.874a2.638 2.638 0 0 0 2.596-2.414v-.388a2.641 2.641 0 0 0-2.634-2.442h-.836a2.422 2.422 0 0 1-2.271-1.599 2 2 0 0 1-.034-.074v-.003a2.5 2.5 0 0 1-.09-.363.222.222 0 0 1 .027-.148.22.22 0 0 1 .026-.039.2.2 0 0 1 .022-.014.22.22 0 0 1 .036-.033.22.22 0 0 1 .09-.023.2.2 0 0 1 .013-.007m3.255 3.449c.807.014 1.452.671 1.452 1.478 0 1.973-2.959 1.973-2.959 0a1.477 1.477 0 0 1 1.507-1.478m2.43 1.246c.003.072.005.145.005.219v-.173l-.005-.047Zm.005.407-.005.098c0-.009.005-.019.005-.027v-.069Zm-3.025 5.659c.062 0 .113.052.113.115a1.16 1.16 0 0 1-1.159 1.157h-.737a1.581 1.581 0 1 0 1.507 2.242H9.182a.173.173 0 0 1-.165-.165v-.088c0-.589.478-1.064 1.066-1.065h1.711c.051.207.076.418.077.632l.008.03c.033 3.809-5.684 3.859-5.716.05a2.857 2.857 0 0 1 2.786-2.904Zm4.324.002c3.715.097 3.707 5.628-.008 5.714-3.903.09-3.894-5.816.008-5.714m-.129 1.276c-2.022.165-1.899 3.164.129 3.163a1.584 1.584 0 1 0-.129-3.163"/></svg>