<svg xmlns="http://www.w3.org/2000/svg" viewBox="0 0 24 24"><path fill="#44739e" d="M19.653 5.037a.06.06 0 0 0-.028-.027 18.15 18.15 0 0 0-4.477-1.388.067.067 0 0 0-.072.035 12.3 12.3 0 0 0-.557 1.144 16.76 16.76 0 0 0-5.029 0 11.7 11.7 0 0 0-.567-1.144.073.073 0 0 0-.072-.035A18.1 18.1 0 0 0 4.375 5.01a.074.074 0 0 0-.03.026 18.545 18.545 0 0 0-3.248 12.513.075.075 0 0 0 .028.052 18.21 18.21 0 0 0 5.489 2.775.069.069 0 0 0 .077-.026 13 13 0 0 0 1.133-1.826.07.07 0 0 0-.031-.094h-.008a12 12 0 0 1-1.721-.821.07.07 0 0 1-.025-.097.08.08 0 0 1 .017-.021c.117-.086.23-.175.341-.266a.067.067 0 0 1 .072-.01 13.01 13.01 0 0 0 11.053 0 .067.067 0 0 1 .071.009c.11.092.227.181.342.267a.071.071 0 0 1 .015.099.08.08 0 0 1-.02.019 11.3 11.3 0 0 1-1.717.816.07.07 0 0 0-.04.091v.006a14.4 14.4 0 0 0 1.122 1.826.068.068 0 0 0 .077.026 18.2 18.2 0 0 0 5.499-2.774.073.073 0 0 0 .029-.051 18.43 18.43 0 0 0-3.247-12.512M8.355 15.052a2.114 2.114 0 0 1-1.98-2.216 2.102 2.102 0 0 1 1.98-2.216 2.089 2.089 0 0 1 1.979 2.216 2.102 2.102 0 0 1-1.979 2.216m7.308 0a2.114 2.114 0 0 1-1.979-2.216 2.102 2.102 0 0 1 1.979-2.216 2.089 2.089 0 0 1 1.98 2.216 2.096 2.096 0 0 1-1.98 2.216"/></svg>