<svg xmlns="http://www.w3.org/2000/svg" fill="#44739e" viewBox="0 0 24 24"><path d="M13.671 4.448H8.516v3.766h.126a5.972 5.972 0 0 1 2.314 11.335h2.755l.388-.009a7.551 7.551 0 0 0-.431-15.09Zm-.132 9.716a5.261 5.261 0 1 0-5.261 5.261 5.263 5.263 0 0 0 5.261-5.261M13.9 3.569H7.6v4.358l-.3.042a6.277 6.277 0 0 0 0 12.4l.294.037.042.006.229.017h5.925A8.228 8.228 0 0 0 22 12.191V11.7a8.118 8.118 0 0 0-8.1-8.131m7.783 8.609a7.869 7.869 0 0 1-7.851 7.879h-4.6c-.141.023-.285.04-.43.051l-.236.016-.24.005q-.24 0-.477-.021l-.133-.01h-.023l-.126-.016-.267-.042a5.97 5.97 0 0 1-.007-11.763h.008l.299-.045.067-.009.242-.023V3.934h6.026a7.764 7.764 0 0 1 7.747 7.774z"/></svg>