<svg xmlns="http://www.w3.org/2000/svg" fill="#44739e" viewBox="0 0 24 24"><path d="M18.957 5.668a.055.055 0 0 0-.026-.024 16.5 16.5 0 0 0-4.071-1.262.061.061 0 0 0-.065.031 11.2 11.2 0 0 0-.507 1.041 15.24 15.24 0 0 0-4.573 0A10.6 10.6 0 0 0 9.2 4.413a.066.066 0 0 0-.066-.031 16.46 16.46 0 0 0-4.07 1.262.067.067 0 0 0-.027.023 16.863 16.863 0 0 0-2.954 11.379.068.068 0 0 0 .026.047A16.56 16.56 0 0 0 7.1 19.616a.063.063 0 0 0 .07-.023 11.8 11.8 0 0 0 1.03-1.661.064.064 0 0 0-.028-.085h-.007A10.9 10.9 0 0 1 6.6 17.1a.064.064 0 0 1-.023-.088.07.07 0 0 1 .016-.019c.106-.078.209-.159.31-.242a.061.061 0 0 1 .065-.009 11.83 11.83 0 0 0 10.051 0 .061.061 0 0 1 .065.008c.1.084.206.165.311.243a.065.065 0 0 1 .013.09.07.07 0 0 1-.018.017 10.3 10.3 0 0 1-1.561.742.064.064 0 0 0-.037.083v.006a13.1 13.1 0 0 0 1.021 1.66.062.062 0 0 0 .07.024 16.55 16.55 0 0 0 5-2.523.066.066 0 0 0 .026-.046 16.76 16.76 0 0 0-2.952-11.378M8.683 14.775a1.922 1.922 0 0 1-1.8-2.015 1.911 1.911 0 0 1 1.8-2.015 1.9 1.9 0 0 1 1.8 2.015 1.911 1.911 0 0 1-1.8 2.015m6.646 0a1.922 1.922 0 0 1-1.8-2.015 1.911 1.911 0 0 1 1.8-2.015 1.9 1.9 0 0 1 1.8 2.015 1.906 1.906 0 0 1-1.8 2.015"/></svg>