<svg xmlns="http://www.w3.org/2000/svg" viewBox="0 0 24 24"><path fill="#44739e" d="M12.001 6.841a2.92 2.92 0 1 1 2.922-2.921 2.919 2.919 0 0 1-2.922 2.921m5.983 11.348A6.226 6.226 0 0 1 12.019 23h-.037a6.229 6.229 0 0 1-5.966-4.811c-.068-.275.104-.592.428-.41a11.371 11.371 0 0 0 11.109 0c.328-.184.497.133.432.41Zm-1.254-5.117a4.916 4.916 0 0 1-4.711 3.798h-.028a4.916 4.916 0 0 1-4.72-3.798c-.053-.22.082-.469.34-.33a8.968 8.968 0 0 0 8.773 0c.255-.143.392.11.337.33Zm-1.346-4.607a3.52 3.52 0 0 1-3.374 2.719h-.019a3.52 3.52 0 0 1-3.374-2.719c-.038-.156.058-.336.241-.232a6.436 6.436 0 0 0 6.285 0c.182-.102.279.076.241.232"/></svg>