<svg xmlns="http://www.w3.org/2000/svg" viewBox="0 0 24 24"><path fill="#44739e" d="M9.82 15.706a4.51 4.51 0 0 1-1.89-.462.08.08 0 0 0-.03-.007c-.024 0-.03.029-.012.065a2.079 2.079 0 0 0 3.865 0c.024-.048 0-.08-.042-.058a4.51 4.51 0 0 1-1.891.462m-3.017-.179c-.063-.058-.075-.162-.075-.343V7.209l-.235-.094-.016.007-.044.015c-.243.087-1.203.402-1.98.592l-.13.032V8.3l.187-.02c.44-.045.6.012.66.067s.075.195.075.402v1.812a2.053 2.053 0 0 0-1.269-.406 2.79 2.79 0 0 0-2.096 1.063A3.865 3.865 0 0 0 1 13.664c0 3.119 2.369 3.21 2.64 3.21a2.208 2.208 0 0 0 1.608-.607v.482l.195.147 2.193-.777v-.52l-.181.014c-.427.033-.59-.029-.652-.086m-1.555-.368a1.02 1.02 0 0 1-1.038.672c-.786 0-1.704-.683-1.704-2.602 0-1.738.815-2.355 1.514-2.355a1.239 1.239 0 0 1 1.228 1.27Zm9.942-1.95-1.468-.87a.907.907 0 0 1-.501-.818.77.77 0 0 1 .862-.713c.47 0 1.048.175 1.341 1.54l.029.134h.516l-.065-2.2h-.413l-.048.086a.117.117 0 0 1-.098.064 2.2 2.2 0 0 1-.207-.062 3.54 3.54 0 0 0-1.055-.21 1.885 1.885 0 0 0-2.043 1.839c0 1.082.793 1.619 1.675 2.117l.786.448a.99.99 0 0 1 .621.88c0 .489-.362.794-.944.794-1.074 0-1.396-.892-1.571-1.766l-.027-.135h-.526v2.456h.408l.051-.056c.094-.11.094-.11.185-.11a2.55 2.55 0 0 1 .597.098 4.32 4.32 0 0 0 .978.146 2.035 2.035 0 0 0 2.138-1.919 1.956 1.956 0 0 0-1.221-1.743m7.67 2.99c-.597-.11-.674-.12-.674-.99v-2.727c0-1.54-.619-2.327-1.838-2.327a2.45 2.45 0 0 0-1.826.845V7.242l-.22-.134-.021.009-.057.024c-.287.116-1.398.449-1.909.59l-.124.035v.535l.188-.021a2.5 2.5 0 0 1 .321-.013.366.366 0 0 1 .267.078.587.587 0 0 1 .081.396v6.448c0 .868-.054.943-.717 1.014l-.152.016v.525h3.147v-.538h-.027c-.609-.065-.77-.083-.77-.999v-3.226a1.98 1.98 0 0 1 1.32-.754c.597 0 .862.404.862 1.31v2.674c0 .843-.145.939-.77.99h-.012v.541H23v-.519Zm-14.167-4.24c-.017 0-.022.022-.011.043a1.21 1.21 0 0 0 2.275 0c.016-.029 0-.053-.031-.039a2.838 2.838 0 0 1-2.212 0 .06.06 0 0 0-.021-.004m1.127 2.66a1.624 1.624 0 0 0 1.518-1.039c.018-.037 0-.065-.037-.048a3.41 3.41 0 0 1-2.962 0 .07.07 0 0 0-.025-.006c-.02 0-.025.026-.011.054a1.624 1.624 0 0 0 1.517 1.039m0-5.15a1.183 1.183 0 1 0-1.183-1.182A1.181 1.181 0 0 0 9.82 9.469m.781 1.05c.01-.021 0-.041-.028-.03a2.47 2.47 0 0 1-1.507 0c-.027-.011-.037.009-.026.03a.826.826 0 0 0 1.561 0"/></svg>