<svg xmlns="http://www.w3.org/2000/svg" fill="#44739e" viewBox="0 0 24 24"><path d="M5.76 2A3.758 3.758 0 0 0 2 5.76v12.48A3.758 3.758 0 0 0 5.76 22h12.48A3.758 3.758 0 0 0 22 18.24V5.76A3.758 3.758 0 0 0 18.24 2zm11.734 3.164c.168.043.334.115.393.254-.17.501-.159 1.048-.184 1.553.25.01.496.023.906.023.204 0 .44 0 .702-.008.13.029.146.22.189.315a.78.78 0 0 1-.13.176h-1.683c-.007.217-.017.393-.017.72 0 .205 0 .439.006.701-.029.132-.218.146-.313.19a.8.8 0 0 1-.175-.131V7.473c-.119-.002-.211-.005-.372-.004-.154 0-.329 0-.54.008-.132 0-.255-.023-.547-.104a.236.236 0 0 1-.155-.203c.044-.168.118-.336.256-.395.437.148.908.142 1.357.16.003-.155.008-.3.008-.53 0-.154 0-.329-.008-.54 0-.132.02-.257.102-.549a.235.235 0 0 1 .205-.152m-9.96 1.637a11.45 11.45 0 0 1 3.802.562c.808.25 1.596.56 2.357.926a17.7 17.7 0 0 1 1.715.969c.14.092.95.695 1.078.787.26.215.607.518.858.77a7.48 7.48 0 0 1 1.367 1.789c.07.14.125.278.22.437.076.152.138.308.184.47.024.093.05.233.059.245.046 0 .102.287.09.398.008.268-.011.533-.057.797l.016-.023a2.9 2.9 0 0 1-.159.537 6.8 6.8 0 0 1-.277.55 4.74 4.74 0 0 1-.78.962 6.585 6.585 0 0 1-3.314 1.302c-.83.1-1.673.077-2.498-.068-.278-.05-.697-.148-.697-.148v.287a1.07 1.07 0 0 1-.068.242.413.413 0 0 1-.297.215.84.84 0 0 1-.51-.024.735.735 0 0 1-.4-.633c-.035-.23-.077-.615-.077-.615l-.37-.18a9.33 9.33 0 0 1-1.391-.845 17 17 0 0 1-.717-.6 4.04 4.04 0 0 1-.79-.94.903.903 0 0 1-.093-.847 2.308 2.308 0 0 1 1.195-.906 9.14 9.14 0 0 1 1.653-.502 6.7 6.7 0 0 0 .498-.088l.015-.016a4.9 4.9 0 0 0 .016-.59c0-.152.117-1.138.15-1.353.032-.229.095-.454.19-.666a.175.175 0 0 1 .23-.018c.464.287.59 1.261.625 1.756.017.3.036.764.036.764s.52-.019.841 0c.329.016.656.049.98.1.585.082 1.156.24 1.7.466.381.176.686.481.857.864a.895.895 0 0 1-.07.824 1.13 1.13 0 0 1-.879.578 1.38 1.38 0 0 1-.627-.139.102.102 0 0 1 0-.144c0-.018.2-.116.301-.174a.42.42 0 0 0 .139-.106c.09-.079.178-.161.17-.267-.012-.104-.158-.215-.29-.268a10.57 10.57 0 0 0-3.083-.52l.07 3.362s.278.051.498.086c.13.016.668.07.807.07a7.55 7.55 0 0 0 3.306-.533 3.33 3.33 0 0 0 1.145-.814 2.337 2.337 0 0 0 .556-1.748 4.49 4.49 0 0 0-.974-2.077 11.48 11.48 0 0 0-4.51-3.158 14.32 14.32 0 0 0-5.012-1.123 8.12 8.12 0 0 0-1.922.149c-.069.015-.141.041-.21.06a.326.326 0 0 0-.157.07l-.025.022.059.023c.05.03.279.039.39.065a.36.36 0 0 1 .254.15.161.161 0 0 1 0 .192c-.115.139-.54.115-.719.088-.185-.023-.438-.09-.482-.264a.776.776 0 0 1 .15-.568 1.39 1.39 0 0 1 .926-.668A9.4 9.4 0 0 1 7.533 6.8zm2.607 6.935s-.493.034-.838.067a9.3 9.3 0 0 0-1.73.353c-.14.05-.431.176-.45.323-.004.15.058.29.172.388.06.07.4.397.494.475.557.44 1.167.809 1.815 1.1.208.085.546.206.546.206s-.019-.97-.01-1.92v-.992z"/></svg>