<svg xmlns="http://www.w3.org/2000/svg" fill="#44739e" viewBox="0 0 24 24"><path d="M18.8234 12.7323a.5.5 0 0 0 .079 0c.026-.007.036-.034.045-.057s0-.057 0-.086v-.035a.066.066 0 0 0-.035-.063.31.31 0 0 0-.121-.016h-1.727a.94.94 0 0 1-.184-.008.037.037 0 0 1-.032-.029.16.16 0 0 1 .014-.112.1.1 0 0 1 .085-.035h1.777a.074.074 0 0 0 .076-.042.34.34 0 0 0 .009-.135.08.08 0 0 0-.054-.072.85.85 0 0 0-.182 0h-1.625a.2.2 0 0 1-.1-.017.37.37 0 0 1 0-.119.077.077 0 0 1 .075-.032h1.836a.33.33 0 0 0 .083-.005.067.067 0 0 0 .047-.065.9.9 0 0 0 0-.117.075.075 0 0 0-.071-.067h-2.529a.184.184 0 0 0-.106.026.17.17 0 0 0-.055.108c-.011.229-.017.459-.011.689a.85.85 0 0 0 .013.208.13.13 0 0 0 .046.062.24.24 0 0 0 .121.025h2.526zm-.036.039h-.029c-.192.227-.388.45-.581.676-.069.079-.14.157-.206.238-.01.013-.022.027-.04.025h-.947a1.6 1.6 0 0 1-.171 0 1.6 1.6 0 0 0 .171 0h.947c.018 0 .03-.012.04-.025.066-.081.137-.159.206-.238.193-.226.389-.449.581-.676h-1.165c-.259.3-.517.6-.777.9a.26.26 0 0 0-.044.06h1.185c.058-.063.112-.129.168-.193l.645-.748zm-.088-1.195h.129a.114.114 0 0 1 .107.1.84.84 0 0 1 0 .123.106.106 0 0 1-.074.1.24.24 0 0 1-.074.006h-.449l-.078.091h.369a.48.48 0 0 1 .136.006.117.117 0 0 1 .082.105.37.37 0 0 1-.011.149.112.112 0 0 1-.113.068h-.748c-.031.036-.064.072-.095.11h.929a.31.31 0 0 1 .118.019.1.1 0 0 1 .051.058c.08-.089.155-.182.235-.27.325-.376.648-.753.974-1.129.044-.053.093-.105.135-.161-.042.056-.091.108-.135.162-.326.375-.649.752-.974 1.128-.08.088-.155.181-.235.27a.1.1 0 0 1 .006.025c.146-.166.289-.334.434-.5l.694-.8c.085-.1.175-.2.257-.3h-1.191c-.184.215-.37.428-.554.643zm-13.867.233a1.74 1.74 0 0 0-.623-.168c-.311-.035-.625-.023-.937-.029-.344 0-.687-.005-1.031 0a.227.227 0 0 0-.176.062c-.029.033-.018.079-.026.119-.007.135-.015.27-.016.405v.286c.008.067-.012.147.037.2a.264.264 0 0 0 .2.057h1.072c.053 0 .106-.007.16 0a5.36 5.36 0 0 0 1.074-.069 1.14 1.14 0 0 0 .268-.088.454.454 0 0 0 .244-.306.375.375 0 0 0-.021-.245.51.51 0 0 0-.225-.224m-.479.427a.314.314 0 0 1-.236.184 1.4 1.4 0 0 1-.249.044c-.051 0-.1 0-.152.01h-.746a.77.77 0 0 1-.185-.012.058.058 0 0 1-.031-.059v-.452c0-.039.044-.054.077-.055h.5a2.81 2.81 0 0 1 .8.065.365.365 0 0 1 .188.12.21.21 0 0 1 .034.155m11.233-.582a.3.3 0 0 0-.078-.007h-1.475c-.2 0-.392 0-.587.015a2.05 2.05 0 0 0-.56.115.8.8 0 0 0-.076.035.5.5 0 0 0-.074.044.5.5 0 0 0-.061.048.5.5 0 0 0-.039.043.37.37 0 0 0-.065.329.4.4 0 0 0 .016.045.506.506 0 0 0 .268.239 1.82 1.82 0 0 0 .559.127 5.9 5.9 0 0 0 .594.018h1.383a.233.233 0 0 0 .137-.028.133.133 0 0 0 .046-.1c.009-.106 0-.211 0-.317v-.111l-.009-.029a.143.143 0 0 0-.114-.05h-1.416c-.036 0-.083.015-.082.056v.043a.8.8 0 0 0 0 .087.049.049 0 0 0 .052.032h.705a.6.6 0 0 1 .14.006c.029.007.044.036.057.06s0 .027 0 .041a.142.142 0 0 1-.023.09h-.007a.87.87 0 0 1-.161.007h-.825l-.155-.01a1.7 1.7 0 0 1-.223-.044.57.57 0 0 1-.186-.085.218.218 0 0 1-.086-.208l.006-.027.008-.025a.294.294 0 0 1 .157-.153 1.39 1.39 0 0 1 .483-.081h1.617c.03 0 .078 0 .082-.04a.47.47 0 0 0-.004-.165zm-3.531.264a.7.7 0 0 0-.217-.144 1.9 1.9 0 0 0-.546-.132 7.1 7.1 0 0 0-.746-.029h-1.145a.358.358 0 0 0-.254.057c-.041.048-.024.117-.032.175s0 .112-.011.167v.553c0 .026.006.052.008.079a.176.176 0 0 0 .171.1c.061.007.123 0 .185 0h1c.064-.008.128 0 .192 0a7 7 0 0 0 .756-.03 2.4 2.4 0 0 0 .286-.06 1.3 1.3 0 0 0 .135-.042.55.55 0 0 0 .161-.089.458.458 0 0 0 .159-.261.6.6 0 0 0 0-.16.4.4 0 0 0-.102-.184m-.673.408a.477.477 0 0 1-.232.113 3.4 3.4 0 0 1-.72.046h-.445a.42.42 0 0 1-.133-.012c-.033-.014-.036-.053-.036-.083v-.42a.066.066 0 0 1 .027-.063.37.37 0 0 1 .156-.019h.568a3.05 3.05 0 0 1 .394.016 1.08 1.08 0 0 1 .317.076.26.26 0 0 1 .143.128.21.21 0 0 1-.039.218m-3.133-.599c-.05-.017-.1-.03-.151-.043l-.034-.007a3.2 3.2 0 0 0-.257-.045c-.148-.018-.3-.029-.445-.035a7.1 7.1 0 0 0-1.023.035 1.81 1.81 0 0 0-.6.167.557.557 0 0 0-.227.206.375.375 0 0 0 .021.39.645.645 0 0 0 .291.212 1.3 1.3 0 0 0 .161.055 3.96 3.96 0 0 0 .971.116 5.7 5.7 0 0 0 1.132-.078 1.36 1.36 0 0 0 .432-.157.446.446 0 0 0 .2-.235.353.353 0 0 0-.055-.34.877.877 0 0 0-.416-.241m-.247.489a.282.282 0 0 1-.174.165 1.4 1.4 0 0 1-.424.093 3.5 3.5 0 0 1-.57 0 1.45 1.45 0 0 1-.437-.094.31.31 0 0 1-.176-.153.167.167 0 0 1 .042-.173.527.527 0 0 1 .245-.128 2.65 2.65 0 0 1 .721-.066h.007a2.1 2.1 0 0 1 .368.036.774.774 0 0 1 .328.129.18.18 0 0 1 .07.191m12.832-1.283q-1.053 1.221-2.111 2.443c-.1.118-.2.233-.3.353h1.166c.032.005.046-.028.065-.047l2.29-2.654a.7.7 0 0 0 .078-.1z"/></svg>