<svg xmlns="http://www.w3.org/2000/svg" fill="#44739e" viewBox="0 0 24 24"><path d="M15.413 8.291h.589v3.887h-.589Zm-3.443 7.238h-.007l-.786-2.016h-.571v2.624h.356v-2.194h.007l.868 2.194h.233l.871-2.194h.008v2.194h.367v-2.624h-.571Zm-4.421-1.694h.842v2.302h.367v-2.302H9.6v-.322H7.549Zm11.711 1.032a.92.92 0 0 0-.236-.13 4 4 0 0 0-.257-.088l-.2-.069a.65.65 0 0 1-.162-.081.355.355 0 0 1-.109-.116.333.333 0 0 1-.041-.171.36.36 0 0 1 .044-.182.41.41 0 0 1 .115-.126.47.47 0 0 1 .156-.074.64.64 0 0 1 .172-.023.61.61 0 0 1 .285.065.56.56 0 0 1 .2.167l.246-.239a.806.806 0 0 0-.306-.208 1.07 1.07 0 0 0-.409-.078 1.22 1.22 0 0 0-.309.041.83.83 0 0 0-.274.128.7.7 0 0 0-.2.222.747.747 0 0 0-.019.61.62.62 0 0 0 .148.2.85.85 0 0 0 .208.13 2 2 0 0 0 .236.087c.08.025.156.05.227.075a.87.87 0 0 1 .189.09.42.42 0 0 1 .129.129.35.35 0 0 1 .047.188.374.374 0 0 1-.046.192.42.42 0 0 1-.118.132.52.52 0 0 1-.16.078.67.67 0 0 1-.176.024.656.656 0 0 1-.321-.08.664.664 0 0 1-.236-.212l-.272.229a.92.92 0 0 0 .365.272 1.18 1.18 0 0 0 .457.091 1.13 1.13 0 0 0 .322-.046.81.81 0 0 0 .277-.139.684.684 0 0 0 .192-.236.74.74 0 0 0 .072-.337.63.63 0 0 0-.067-.308.64.64 0 0 0-.169-.207m2.097-5.38-.767 1.724-.767-1.724h-.643l1.089 2.446-.022.048-.008.019-.239.53a.315.315 0 0 1-.415.159l-.084-.037-.164.369-.074.164.2.091a.764.764 0 0 0 1.006-.386L22 9.487Zm-9.314.745A1.944 1.944 0 0 0 10.1 8.29H8.7v3.883h1.4a1.944 1.944 0 0 0 1.943-1.941M9.7 11.585h-.412V8.879h.812a1.353 1.353 0 0 1 0 2.706zm8.155-2.098a1.333 1.333 0 0 0-.769.242V8.291H16.5v3.887h.59v-.243a1.345 1.345 0 1 0 .769-2.448zm0 2.151a.81.81 0 0 1-.769-.556.8.8 0 0 1 0-.511.811.811 0 1 1 .769 1.067m-1.243 2.237a1.26 1.26 0 0 0-.42-.266 1.515 1.515 0 0 0-1.056 0 1.25 1.25 0 0 0-.417.266 1.2 1.2 0 0 0-.275.413 1.48 1.48 0 0 0 0 1.064 1.23 1.23 0 0 0 .275.416 1.25 1.25 0 0 0 .417.272 1.5 1.5 0 0 0 1.056 0 1.25 1.25 0 0 0 .42-.272 1.26 1.26 0 0 0 .276-.416 1.452 1.452 0 0 0 0-1.064 1.23 1.23 0 0 0-.276-.413m-.067 1.338a.96.96 0 0 1-.191.319.87.87 0 0 1-.3.213.95.95 0 0 1-.391.078.94.94 0 0 1-.388-.078.89.89 0 0 1-.3-.213.97.97 0 0 1-.19-.319 1.15 1.15 0 0 1-.067-.391 1.12 1.12 0 0 1 .067-.386 1 1 0 0 1 .189-.319.87.87 0 0 1 .3-.217 1 1 0 0 1 .782 0 .88.88 0 0 1 .3.217.97.97 0 0 1 .191.319 1.12 1.12 0 0 1 .067.386 1.15 1.15 0 0 1-.069.391M2.573 8.291H2v3.882h.573a1.941 1.941 0 1 0 0-3.882m11.114 3.886a1.346 1.346 0 1 0-1.345-1.345 1.346 1.346 0 0 0 1.345 1.345m0-2.161a.811.811 0 1 1-.811.811.815.815 0 0 1 .811-.811m-6.164 2.157V8.291h-.572a1.941 1.941 0 1 0 0 3.882zm-1.885 1.34L4.5 16.137h.408l.263-.644h1.246l.267.644H7.1l-1.128-2.624ZM5.3 15.17l.493-1.231.489 1.231Z"/></svg>