<svg xmlns="http://www.w3.org/2000/svg" viewBox="0 0 24 24"><path fill="#44739e" d="M15.754 7.684h.648v4.275h-.648Zm-3.787 7.961h-.008l-.864-2.217h-.628v2.886h.391v-2.413h.008l.955 2.413h.256l.958-2.413h.009v2.413h.404v-2.886h-.628Zm-4.863-1.863h.926v2.532h.404v-2.532h.926v-.354H7.104Zm12.882 1.135a1.01 1.01 0 0 0-.26-.143 4.4 4.4 0 0 0-.282-.097l-.22-.076a.72.72 0 0 1-.178-.089.39.39 0 0 1-.12-.127.366.366 0 0 1-.046-.188.396.396 0 0 1 .049-.201.45.45 0 0 1 .126-.138.52.52 0 0 1 .172-.082.7.7 0 0 1 .189-.025.67.67 0 0 1 .314.072.616.616 0 0 1 .22.183l.27-.263a.89.89 0 0 0-.336-.228 1.18 1.18 0 0 0-.45-.086 1.34 1.34 0 0 0-.34.045.91.91 0 0 0-.302.141.77.77 0 0 0-.22.244.822.822 0 0 0-.02.671.68.68 0 0 0 .162.22.94.94 0 0 0 .229.143 2.2 2.2 0 0 0 .26.096c.088.027.171.055.249.082a.96.96 0 0 1 .208.099.46.46 0 0 1 .142.142.385.385 0 0 1 .052.207.41.41 0 0 1-.051.211.46.46 0 0 1-.129.145.57.57 0 0 1-.176.086.74.74 0 0 1-.194.026.72.72 0 0 1-.353-.088.73.73 0 0 1-.26-.233l-.299.252a1.01 1.01 0 0 0 .402.299 1.3 1.3 0 0 0 .502.1 1.24 1.24 0 0 0 .355-.05.89.89 0 0 0 .304-.153.75.75 0 0 0 .211-.26.814.814 0 0 0 .08-.37.69.69 0 0 0-.074-.339.7.7 0 0 0-.186-.228m2.307-5.918-.844 1.897-.844-1.897h-.707l1.198 2.691-.024.053-.009.02-.263.583a.347.347 0 0 1-.457.175l-.092-.04-.18.406-.082.18.22.1a.84.84 0 0 0 1.107-.425L23 8.999Zm-10.246.82A2.138 2.138 0 0 0 9.91 7.682H8.37v4.272h1.54a2.138 2.138 0 0 0 2.137-2.135M9.47 11.307h-.453V8.33h.893a1.488 1.488 0 0 1 0 2.977Zm8.971-2.308a1.466 1.466 0 0 0-.846.266V7.684h-.645v4.275h.649v-.267a1.48 1.48 0 1 0 .846-2.693Zm0 2.366a.891.891 0 0 1-.846-.611.88.88 0 0 1 0-.562.892.892 0 1 1 .846 1.173m-1.368 2.461a1.39 1.39 0 0 0-.462-.293 1.667 1.667 0 0 0-1.161 0 1.375 1.375 0 0 0-.459.293 1.32 1.32 0 0 0-.303.454 1.628 1.628 0 0 0 0 1.171 1.35 1.35 0 0 0 .303.457 1.375 1.375 0 0 0 .459.299 1.65 1.65 0 0 0 1.161 0 1.375 1.375 0 0 0 .462-.299 1.39 1.39 0 0 0 .304-.457 1.597 1.597 0 0 0 0-1.171 1.35 1.35 0 0 0-.304-.454m-.074 1.472a1.06 1.06 0 0 1-.21.351.96.96 0 0 1-.33.234 1.045 1.045 0 0 1-.43.086 1.03 1.03 0 0 1-.427-.086.98.98 0 0 1-.33-.234 1.07 1.07 0 0 1-.209-.351 1.26 1.26 0 0 1-.073-.43 1.23 1.23 0 0 1 .073-.425 1.1 1.1 0 0 1 .208-.351.96.96 0 0 1 .33-.239 1.1 1.1 0 0 1 .861 0 .97.97 0 0 1 .33.239 1.07 1.07 0 0 1 .21.351 1.23 1.23 0 0 1 .073.425 1.26 1.26 0 0 1-.076.43M1.63 7.684H1v4.27h.63a2.135 2.135 0 1 0 0-4.27m12.226 4.274a1.481 1.481 0 1 0-1.48-1.479 1.481 1.481 0 0 0 1.48 1.479m0-2.377a.892.892 0 1 1-.892.892.896.896 0 0 1 .892-.892m-6.781 2.373v-4.27h-.629a2.135 2.135 0 1 0 0 4.27Zm-2.073 1.474L3.75 16.314h.449l.289-.708h1.371l.293.708h.458l-1.241-2.886ZM4.63 15.25l.542-1.354.538 1.354Z"/></svg>