<svg xmlns="http://www.w3.org/2000/svg" fill="#44739e" viewBox="0 0 24 24"><path d="M6.408 7.117h8.13a14.28 14.28 0 0 1 4.211.25 4.963 4.963 0 0 1 2.585 2.209 5.046 5.046 0 0 1 .333 4.3 5.056 5.056 0 0 1-2.585 2.624c-1.235.533-3.29.376-5.045.376H8.576a11.94 11.94 0 0 1-2.752-.084 5.607 5.607 0 0 1-2.71-1.626A5.094 5.094 0 0 1 2.822 9.2 5.34 5.34 0 0 1 5.24 7.367Zm0 .25a12 12 0 0 1-1.251.292 4.976 4.976 0 0 0-2.126 1.667 4.83 4.83 0 0 0 .833 6.254 5.79 5.79 0 0 0 2.168 1 6.87 6.87 0 0 0 1.46.041h8.088a11.45 11.45 0 0 0 2.585-.083 4.77 4.77 0 0 0 3.252-2.71A4.762 4.762 0 0 0 21 9.493a4.655 4.655 0 0 0-2.543-1.959 15.57 15.57 0 0 0-4.044-.167Zm.25.625a4.58 4.58 0 0 1 1.459.208 4.1 4.1 0 0 1 2.377 5.378A4.217 4.217 0 0 1 7.116 16a3.3 3.3 0 0 1-2.042-.417 4.006 4.006 0 0 1-2-5.086 4.26 4.26 0 0 1 2.291-2.255c.279-.116 1.092-.127 1.293-.25m10.423 0A4.72 4.72 0 0 1 18.5 8.2a4.083 4.083 0 0 1 2.376 5.378A4.2 4.2 0 0 1 17.5 16a3.22 3.22 0 0 1-1.835-.333 4.02 4.02 0 0 1-1.334-.834 4.23 4.23 0 0 1-.917-4.211A4.287 4.287 0 0 1 15.872 8.2c.258-.1 1.025-.1 1.209-.209m-10.548.168c-.226.136-.96.169-1.251.292A4.017 4.017 0 0 0 3.2 10.619 3.84 3.84 0 0 0 5.282 15.5a3.21 3.21 0 0 0 1.876.333 4.027 4.027 0 0 0 3.21-2.376 4.2 4.2 0 0 0-.041-2.877 3.737 3.737 0 0 0-3.794-2.421m10.381 0c-.091.055-.236.008-.375.042a6.1 6.1 0 0 0-.959.291 3.972 3.972 0 0 0-2.043 2.252 4.029 4.029 0 0 0 1.168 4.211 4.8 4.8 0 0 0 1.084.583 3.085 3.085 0 0 0 1.751.292 4.015 4.015 0 0 0 3.127-2.168 3.87 3.87 0 0 0-3.753-5.5M4.657 11.369l.542.042a.917.917 0 0 1 .333.792c-.167.219-.478.71-.875.417a.524.524 0 0 1-.417-.5c-.211-.332.266-.614.417-.751m3.835 0c.425-.017.694.074.792.375a.626.626 0 0 1 .084.417c-.18.236-.2.466-.584.5a.322.322 0 0 1-.333-.042c-.3-.089-.428-.342-.417-.75a.5.5 0 0 0 .083-.209 3.3 3.3 0 0 0 .375-.292m6.546 0a2 2 0 0 1 .625.084 2.1 2.1 0 0 0 .251.333c.015.582-.14.617-.417.876-.2.017-.317.063-.459-.042-.249-.067-.269-.219-.417-.375-.015-.582.14-.617.417-.876m3.836 0a1.8 1.8 0 0 1 .667.125c.339.635.227.737-.209 1.168-.2.019-.352.068-.5-.042a.516.516 0 0 1-.333-.334c-.146-.177-.052-.428 0-.625a2.5 2.5 0 0 0 .375-.292M4.7 11.536c-.187.176-.322.215-.333.584.146.186.142.347.458.375.1.059.2-.008.334-.042l.208-.25a2.02 2.02 0 0 0-.041-.459l-.25-.208zm3.794 0c-.163.206-.291.226-.292.625.1.105.2.229.292.334.189.014.281.058.417-.042.231-.074.3-.269.292-.583a.684.684 0 0 0-.709-.334m6.588 0c-.094.1-.191.2-.292.292-.046.543.242.757.75.625l.209-.25a2.08 2.08 0 0 0-.042-.459l-.25-.208zm3.835 0c-.106.1-.191.09-.25.25a.555.555 0 0 0-.083.375c.1.105.194.229.292.334.188.014.28.058.417-.042a.31.31 0 0 0 .208-.167.622.622 0 0 0 .084-.416c-.1-.1-.195-.229-.292-.334z" class="cls-1" data-name="Colore riempimento 1"/></svg>