<svg xmlns="http://www.w3.org/2000/svg" viewBox="0 0 24 24"><path fill="#44739e" d="M8.61 10.647A1.353 1.353 0 1 0 9.964 12a1.353 1.353 0 0 0-1.354-1.353m-.132.385a.132.132 0 0 1 .264 0V12a.132.132 0 1 1-.263.02.06.06 0 0 1 .001-.02v-.968Zm.831 1.684a.982.982 0 0 1-1.389.009l-.009-.009a1.01 1.01 0 0 1 0-1.412.99.99 0 0 1 .268-.194.11.11 0 0 1 .15.048v.013a.135.135 0 0 1-.057.174.7.7 0 0 0-.189.138.753.753 0 0 0 0 1.055.733.733 0 0 0 1.036.006l.008-.006a.753.753 0 0 0 0-1.055.65.65 0 0 0-.186-.138.132.132 0 0 1-.061-.174.13.13 0 0 1 .172-.061.87.87 0 0 1 .251.193 1.01 1.01 0 0 1 .006 1.413m5.604-2.069A1.353 1.353 0 1 0 16.267 12a1.353 1.353 0 0 0-1.354-1.353m-.132.385a.132.132 0 0 1 .264 0V12a.132.132 0 1 1-.263.02.06.06 0 0 1 0-.02v-.968Zm.831 1.684a.983.983 0 0 1-1.39.009l-.008-.009a1.008 1.008 0 0 1 0-1.412.99.99 0 0 1 .268-.194.11.11 0 0 1 .15.048v.013a.135.135 0 0 1-.057.174.7.7 0 0 0-.189.138.753.753 0 0 0 0 1.055.733.733 0 0 0 1.036.006l.007-.006a.753.753 0 0 0 0-1.055.63.63 0 0 0-.185-.138.132.132 0 0 1-.061-.174.13.13 0 0 1 .172-.061.87.87 0 0 1 .251.193 1.01 1.01 0 0 1 .006 1.413M21.985 1H2.015A1.015 1.015 0 0 0 1 2.015v19.97A1.015 1.015 0 0 0 2.015 23h19.97A1.015 1.015 0 0 0 23 21.985V2.015A1.015 1.015 0 0 0 21.985 1M8.61 13.65A1.65 1.65 0 1 1 10.26 12a1.65 1.65 0 0 1-1.65 1.65m6.302 0a1.65 1.65 0 1 1 1.65-1.65 1.65 1.65 0 0 1-1.65 1.65"/></svg>