<svg xmlns="http://www.w3.org/2000/svg" viewBox="0 0 24 24"><path fill="#44739e" d="M5.853 6.641h8.942a15.7 15.7 0 0 1 4.631.274 5.46 5.46 0 0 1 2.844 2.43 5.55 5.55 0 0 1 .366 4.73 5.56 5.56 0 0 1-2.843 2.886c-1.359.586-3.619.413-5.549.413H8.237a13.13 13.13 0 0 1-3.026-.092 6.167 6.167 0 0 1-2.981-1.789 5.603 5.603 0 0 1-.321-6.561 5.873 5.873 0 0 1 2.659-2.017Zm0 .274a13.2 13.2 0 0 1-1.376.322A5.473 5.473 0 0 0 2.139 9.07a5.312 5.312 0 0 0 .916 6.879 6.37 6.37 0 0 0 2.384 1.1 7.56 7.56 0 0 0 1.606.045h8.896a12.6 12.6 0 0 0 2.843-.092 5.246 5.246 0 0 0 3.577-2.98 5.238 5.238 0 0 0-.459-4.768 5.12 5.12 0 0 0-2.797-2.155 17.13 17.13 0 0 0-4.448-.184Zm.275.688a5.04 5.04 0 0 1 1.605.229 4.509 4.509 0 0 1 2.614 5.915 4.638 4.638 0 0 1-3.715 2.664 3.63 3.63 0 0 1-2.246-.459 4.406 4.406 0 0 1-2.2-5.594 4.685 4.685 0 0 1 2.52-2.48c.307-.128 1.201-.14 1.422-.275m11.464 0a5.19 5.19 0 0 1 1.561.229 4.491 4.491 0 0 1 2.613 5.915 4.619 4.619 0 0 1-3.713 2.664 3.54 3.54 0 0 1-2.019-.367 4.42 4.42 0 0 1-1.467-.917 4.652 4.652 0 0 1-1.008-4.631 4.715 4.715 0 0 1 2.703-2.664c.284-.11 1.127-.11 1.33-.23M5.99 7.787c-.248.149-1.055.185-1.376.321a4.418 4.418 0 0 0-2.289 2.384 4.223 4.223 0 0 0 2.289 5.369 3.53 3.53 0 0 0 2.064.366 4.429 4.429 0 0 0 3.53-2.613 4.62 4.62 0 0 0-.045-3.165A4.11 4.11 0 0 0 5.99 7.787m11.418 0c-.1.06-.259.008-.412.046a6.7 6.7 0 0 0-1.055.32 4.37 4.37 0 0 0-2.247 2.477 4.431 4.431 0 0 0 1.285 4.631 5.28 5.28 0 0 0 1.192.641 3.393 3.393 0 0 0 1.926.322 4.416 4.416 0 0 0 3.439-2.385 4.256 4.256 0 0 0-4.128-6.049M3.927 11.317l.596.046a1.009 1.009 0 0 1 .366.871c-.183.241-.525.781-.962.459a.576.576 0 0 1-.459-.55c-.232-.365.293-.675.459-.826m4.218 0c.468-.019.763.082.871.413a.69.69 0 0 1 .093.458c-.198.26-.22.513-.643.55a.354.354 0 0 1-.366-.046c-.33-.098-.471-.376-.459-.825a.55.55 0 0 0 .092-.23 3.6 3.6 0 0 0 .412-.321m7.2 0a2.2 2.2 0 0 1 .687.092 2.3 2.3 0 0 0 .276.367c.017.64-.154.678-.458.963-.22.019-.349.069-.505-.046-.274-.074-.296-.241-.459-.412-.016-.641.154-.679.459-.964m4.219 0a1.98 1.98 0 0 1 .733.138c.373.698.25.81-.229 1.284-.22.021-.388.075-.55-.046a.568.568 0 0 1-.367-.367c-.16-.195-.057-.471 0-.688a2.75 2.75 0 0 0 .413-.321m-15.59.185c-.205.193-.354.236-.366.642.161.205.156.382.504.413.11.064.22-.009.367-.047l.229-.275a2.22 2.22 0 0 0-.045-.504l-.275-.229Zm4.173 0c-.179.226-.32.248-.321.687.11.116.22.252.321.368.208.015.309.063.459-.047.254-.081.33-.295.321-.641a.752.752 0 0 0-.78-.367m7.246 0c-.103.11-.21.22-.321.321-.051.597.266.833.825.687l.23-.275a2.3 2.3 0 0 0-.046-.504l-.275-.229Zm4.218 0c-.116.11-.21.099-.275.275a.61.61 0 0 0-.091.412c.11.116.213.252.321.368.207.015.308.063.459-.047a.341.341 0 0 0 .228-.183.684.684 0 0 0 .093-.458c-.11-.11-.215-.252-.321-.367Z"/></svg>