<svg xmlns="http://www.w3.org/2000/svg" viewBox="0 0 24 24"><path fill="#44739e" d="M21.486 17.712c-.494 1.368-1.509 2.266-2.266 2.005s-.97-1.581-.475-2.951c.494-1.368 1.509-2.265 2.266-2.005.756.261.969 1.582.475 2.951M3.906 15.85c-.482.168-1.129-.41-1.446-1.289s-.181-1.729.301-1.896c.483-.167 1.131.411 1.447 1.29s.181 1.727-.302 1.895m17.983-2.093-7.234-2.369V7.265c.99-.101 1.919-.239 2.727-.421 1.474-.335 2.31-.749 2.527-1.176a.445.445 0 0 0 .056-.223v-.544c0-.075-.016-.147-.056-.223-.222-.445-1.126-.872-2.691-1.21-3.534-.762-9.19-.762-12.717 0-1.564.338-2.464.765-2.686 1.21-.039.076-.057.148-.057.223v.544c0 .076.018.151.057.223.217.427 1.053.841 2.532 1.176.807.181 1.734.32 2.722.42v2.637l-5.235 1.758c-.851.295-1.09 1.788-.534 3.334.555 1.547 1.695 2.561 2.545 2.266l5.708-2.629c.646-.252.736-1.528.201-2.851-.281-.698-.721-1.283-1.168-1.651V7.382c1.493.084 3.059.085 4.552.001v4.199c-.679.446-1.382 1.295-1.811 2.331-.712 1.72-.593 3.379.269 3.707l7.61 3.417c1.134.383 2.654-.936 3.395-2.946.74-2.01.421-3.95-.712-4.334"/></svg>