<svg xmlns="http://www.w3.org/2000/svg" fill="#44739e" viewBox="0 0 24 24"><path d="M13.261 14.2853a4.918 4.918 0 0 0 2.948-.659 1.7 1.7 0 0 0 .684-1.36 1.9 1.9 0 0 0-1.693-1.7l-.121-.026v-.237l.108-.055c.852-.262 1.381-.829 1.381-1.478a1.331 1.331 0 0 0-.66-1.176 4 4 0 0 0-2.334-.514 13.5 13.5 0 0 0-1.923.13v7.008c.316.028.863.067 1.61.067m-.78-6.689.126-.023a6.04 6.04 0 0 1 1.032-.068c1.723 0 2.086.739 2.086 1.36 0 .833-.828 1.392-2.06 1.392h-1.184zm0 3.08h1.093c1.518 0 2.425.59 2.425 1.579 0 1.01-.88 1.591-2.412 1.591a7.2 7.2 0 0 1-.976-.046l-.13-.02zm2.942-5.274-.034-.018.021-.5-2.842 1.921c.266-.018.539-.028.813-.031zm-7.601 8.313-1.103.617 5.39 3.28.932-.593-.108-.069zm3.523-.549v-1.209l-1.063-.673-1.058.591zm0 .61v-.459l-2.244-1.374.042.462zm5.529-5.01a1.836 1.836 0 0 1-1.192 1.615 2.116 2.116 0 0 1 1.494 1.625l4.7-3.234.124.065-6.41-3.348-1.932 1.284a4.19 4.19 0 0 1 2.417.561 1.62 1.62 0 0 1 .799 1.432m-1.631 5.659-.041-.027a7.7 7.7 0 0 1-1.542.177l.687.419zm-8.706.591-3.188 1.574 5.182 3.66 3.368-1.857zm4.808-3.214v-.392l-1.076-.659.036.404zm1.442.342 2 1.22a1.267 1.267 0 0 0 .8-.663l-2.8-1.639zm2.905.111a1.1 1.1 0 0 0-.026-.156l-1.874-1.111c-.078 0-.155-.006-.218-.006H12.9l2.748 1.578a1.16 1.16 0 0 0 .044-.305m-2.905.444 1.3.812a3.44 3.44 0 0 0 .536-.093l-1.84-1.126zm0 .814c.189.018.448.026.8.026.076 0 .161 0 .246-.007l-1.046-.662zm-1.316-6.588c.236-.041.525-.074.833-.1l2.981-2-1.032-.517-4.906 3.309.957.55 1.041-.7v-.519zm5.72 5.238c0 .035.009.067.009.1a2 2 0 0 1-.8 1.6 3.04 3.04 0 0 1-.99.465l.127.074-.152.109h-.006l-1.015.653-.946-.578c-.055 0-.1.006-.156.006-.225 0-.431 0-.62-.009l1.653 1.029.138.08-.025.019-.053.034-.075.054-1 .64-5.41-3.307.045.5 5.164 3.214.137.081.108.066v.028l-1.2.773-5-3.063-.53-.326.047.527 5.437 3.365.1.059h.008l-.148.084-3.507 1.992-5.317-3.776v.552l5.317 3.8 3.862-2.276.628-.37.582-.341 1.973-2.413.01-.006 1.02-1.248 2.3-2.808 3.073-2.176.021-.533zM7.096 5.7043l2.088 1.26 4.884-3.277-2.06-1.034zm4.249 3.833-1.069-.634.001-.019-.033-.014.383-.248.718-.482v-.51l-1.049.708-1.138-.663v-.015l-.057-.034.116-.085 4.953-3.324.021-.469-5.014 3.383-2.211-1.372.106.657-.003-.001.003.004.002.013.025.015 1.071 1.164.003.015.023.014 1.083 1.177.004.015.024.015 1.484 1.613-.402.225.956.582v-1.047l-.036-.021.036-.024zm2.791 1.479 1.5.884c-.205-.6-.912-.814-1.5-.884m-3.631-2.147.84.497v-1.055zm4.913-.004c0-.7-.6-1.054-1.779-1.054a6.8 6.8 0 0 0-.852.044v2.1h.878c1.065-.003 1.753-.43 1.753-1.09m-4.073 5.623v-.545l-2.312-1.463-1.033.579 5.267 3.207.873-.556-1.8-1.141c-.387-.02-.684-.046-.854-.065zM6.65 6.6563l-1.043.594 2.317 2.982-4.375 2.944-.008-.009-.026.033-.022.014-.752-.877L2 15.5393l3.098-.45-.71-.831 5.492-3.715z"/></svg>