<svg xmlns="http://www.w3.org/2000/svg" viewBox="0 0 24 24"><path fill="#44739e" d="M11.768 12.7h.82a3.483 3.483 0 0 0 3.483-3.483V2.171A7.51 7.51 0 0 0 12.216 1c-.14 0-.22.007-.22.007S11.919 1 11.776 1a7.435 7.435 0 0 0-3.493.957v7.259a3.483 3.483 0 0 0 3.485 3.484m-.859-10.05a1.8 1.8 0 0 1 .053-.22 1.68 1.68 0 0 1 .184-.397 1.5 1.5 0 0 1 .136-.165c.071-.078.03-.026.16-.131a1.57 1.57 0 0 1 .378-.212 1.1 1.1 0 0 1 .4-.102 1.98 1.98 0 0 1 .451.026 2.64 2.64 0 0 1 .397.104 2.2 2.2 0 0 1 .27.147.75.75 0 0 1 .178.186 3 3 0 0 1 .168.248 1.9 1.9 0 0 1 .125.245c.017.057.058.271.061.294s.037.154-.076.162-.135-.117-.143-.152a3.3 3.3 0 0 0-.115-.363 3.6 3.6 0 0 0-.276-.385.946.946 0 0 0-.386-.239 2.06 2.06 0 0 0-.594-.086.89.89 0 0 0-.274.039 1.52 1.52 0 0 0-.343.167 1.4 1.4 0 0 0-.286.242 1.5 1.5 0 0 0-.22.44 1.44 1.44 0 0 0-.02.458 1.14 1.14 0 0 0 .343.666 1.08 1.08 0 0 0 .458.205 1.65 1.65 0 0 0 .296.018.65.65 0 0 0 .271-.033 1.1 1.1 0 0 0 .172-.066.91.91 0 0 0 .287-.183.76.76 0 0 0 .179-.317.55.55 0 0 0 .006-.194c0-.03 0-.057-.007-.082a1.3 1.3 0 0 0-.046-.193.86.86 0 0 0-.048-.169.74.74 0 0 0-.059-.123c-.016-.025-.031-.043-.048-.069a.753.753 0 0 0-.576-.316.79.79 0 0 0-.257.034.86.86 0 0 0-.181.087.55.55 0 0 0-.069.043.44.44 0 0 0-.057.044 1 1 0 0 0-.056.081.59.59 0 0 0-.138.44.55.55 0 0 0 .514.558.76.76 0 0 0 .468-.177.392.392 0 0 0 .059-.265.44.44 0 0 0-.098-.264.422.422 0 0 0-.288-.12.202.202 0 0 0-.22.179.176.176 0 0 0 .11.19 1.2 1.2 0 0 0 .182 0c.029 0 .075 0 .075.088-.008.165-.367.073-.371.07a.397.397 0 0 1-.195-.291.408.408 0 0 1 .237-.402.48.48 0 0 1 .162-.032.715.715 0 0 1 .33.077.6.6 0 0 1 .059.032l.034.023a.59.59 0 0 1 .186.362 1 1 0 0 1 .01.139.484.484 0 0 1-.039.22.42.42 0 0 1-.19.203 1.1 1.1 0 0 1-.391.139.86.86 0 0 1-.371-.035.707.707 0 0 1-.44-.591.84.84 0 0 1 .14-.644 1 1 0 0 1 .081-.103 1.07 1.07 0 0 1 .274-.197.76.76 0 0 1 .295-.099 1.4 1.4 0 0 1 .147 0 1.5 1.5 0 0 1 .23.036 1.13 1.13 0 0 1 .182.053.74.74 0 0 1 .11.066.91.91 0 0 1 .229.192 1.01 1.01 0 0 1 .144.282c.026.081.048.199.075.33a1.045 1.045 0 0 1-.019.523.825.825 0 0 1-.22.324 1.39 1.39 0 0 1-.419.259.83.83 0 0 1-.47.092 1.64 1.64 0 0 1-.557-.105.99.99 0 0 1-.413-.279 1.01 1.01 0 0 1-.249-.417c-.03-.087-.084-.311-.084-.311s.007 0-.006-.117a.77.77 0 0 1 .009-.167m-1.674 7.936V5.714a.197.197 0 0 1 .197-.197h5.493a.197.197 0 0 1 .196.197v4.872a.196.196 0 0 1-.196.196H9.432a.197.197 0 0 1-.197-.196m5.653-4.836H9.466v4.8h5.419Zm-.314 4.465a.068.068 0 0 1-.068.068H9.85a.067.067 0 0 1-.067-.068v-4.13a.067.067 0 0 1 .067-.067h4.656a.067.067 0 0 1 .068.067Zm-3.055 7.472h1.32l-.66-1.121Zm-5.868-5.663h-.618v.902h-.901v.617h.901v.901h.618v-.901h.901v-.617h-.901Zm15.846-6.862a30.8 30.8 0 0 0-3.022-.777 9.06 9.06 0 0 0-2.171-2.065v6.897a3.72 3.72 0 0 1-3.716 3.717h-.82a3.721 3.721 0 0 1-3.716-3.717V2.093a8.96 8.96 0 0 0-2.53 2.292 30.8 30.8 0 0 0-3.021.777c-.395.209-1.821 2.603-.846 8.769S4.79 24.278 5.278 22.64s.418-1.637.66-2.23.731-.627 1.358-.77a30.9 30.9 0 0 1 4.375-.482.06.06 0 0 0 0 .013q.086 1.552.176 3.104c.033.597.965.6.931 0q-.089-1.553-.176-3.104a31.3 31.3 0 0 1 4.102.473c.626.139 1.115.175 1.358.77s.175.593.66 2.229 2.647-2.543 3.623-8.709-.45-8.563-.848-8.772M2.02 8.039a1.719 1.719 0 1 1 1.719 1.724A1.721 1.721 0 0 1 2.02 8.039m5.145 5.644a.186.186 0 0 1-.185.185h-.999v.999a.186.186 0 0 1-.186.186h-.906a.186.186 0 0 1-.186-.186v-.999h-.999a.186.186 0 0 1-.186-.185v-.906a.187.187 0 0 1 .186-.187h.999v-.997a.186.186 0 0 1 .186-.186h.906a.186.186 0 0 1 .186.186v.997h.999a.187.187 0 0 1 .185.187Zm6.097 4.459h-2.167a.144.144 0 0 1-.127-.07.146.146 0 0 1 0-.145l1.083-1.84a.145.145 0 0 1 .248 0l1.082 1.84a.141.141 0 0 1 0 .145.143.143 0 0 1-.119.075ZM19.52 7.331a.952.952 0 1 1-.952.952.954.954 0 0 1 .952-.948Zm-1.834 3.678a.952.952 0 1 1 .952-.953.955.955 0 0 1-.952.953m1.811 1.787a.952.952 0 1 1 .953-.952.954.954 0 0 1-.953.949Zm1.836-1.76a.952.952 0 1 1 .952-.952.955.955 0 0 1-.952.945Zm-3.647-1.533a.55.55 0 1 0 .55.55.55.55 0 0 0-.55-.55M4.839 8.044a1.1 1.1 0 0 1-1.1 1.099A1.1 1.1 0 0 1 2.64 8.044a1.1 1.1 0 0 1 1.099-1.1 1.1 1.1 0 0 1 1.1 1.1m14.658 3.246a.55.55 0 1 0 .55.55.55.55 0 0 0-.55-.55m2.386-1.214a.55.55 0 0 1-.55.55.55.55 0 0 1-.55-.55.55.55 0 0 1 .55-.55.55.55 0 0 1 .55.55M20.07 8.288a.55.55 0 0 1-.55.55.55.55 0 0 1-.55-.55.55.55 0 0 1 .55-.55.55.55 0 0 1 .55.55"/></svg>