<svg xmlns="http://www.w3.org/2000/svg" fill="#44739e" viewBox="0 0 24 24"><path d="M11.793 12.638h.745a3.167 3.167 0 0 0 3.167-3.167V3.065A6.83 6.83 0 0 0 12.2 2c-.127 0-.2.006-.2.006S11.93 2 11.8 2a6.76 6.76 0 0 0-3.176.87v6.6a3.167 3.167 0 0 0 3.169 3.168M11.012 3.5a1.6 1.6 0 0 1 .048-.2 1.53 1.53 0 0 1 .167-.361 1.4 1.4 0 0 1 .124-.15c.064-.071.027-.023.145-.119a1.43 1.43 0 0 1 .344-.193 1 1 0 0 1 .364-.092 1.8 1.8 0 0 1 .41.023 2.4 2.4 0 0 1 .361.095 2 2 0 0 1 .245.133.68.68 0 0 1 .162.17 2.7 2.7 0 0 1 .153.225 1.7 1.7 0 0 1 .113.223c.016.052.053.246.056.267s.033.14-.069.147-.123-.106-.13-.138a3 3 0 0 0-.105-.33 3.3 3.3 0 0 0-.251-.35.86.86 0 0 0-.351-.217 1.87 1.87 0 0 0-.54-.078.81.81 0 0 0-.249.035 1.38 1.38 0 0 0-.312.152 1.27 1.27 0 0 0-.26.22 1.36 1.36 0 0 0-.2.4 1.31 1.31 0 0 0-.018.416 1.036 1.036 0 0 0 .312.606.98.98 0 0 0 .416.186 1.5 1.5 0 0 0 .269.017.59.59 0 0 0 .247-.03 1 1 0 0 0 .156-.06.83.83 0 0 0 .261-.167.69.69 0 0 0 .163-.288.5.5 0 0 0 .005-.176c0-.028 0-.052-.006-.075A1.2 1.2 0 0 0 13 3.616a.78.78 0 0 0-.044-.154.67.67 0 0 0-.053-.112c-.015-.023-.028-.039-.044-.063A.685.685 0 0 0 12.335 3a.72.72 0 0 0-.233.031.78.78 0 0 0-.165.079.5.5 0 0 0-.063.039.4.4 0 0 0-.051.04.9.9 0 0 0-.051.074.537.537 0 0 0-.126.4.5.5 0 0 0 .468.507.69.69 0 0 0 .425-.161.356.356 0 0 0 .054-.241.4.4 0 0 0-.089-.24.384.384 0 0 0-.262-.109.184.184 0 0 0-.2.163.16.16 0 0 0 .1.173 1.1 1.1 0 0 0 .165 0c.027 0 .068 0 .068.08-.007.15-.333.066-.337.063a.361.361 0 0 1-.177-.264.371.371 0 0 1 .215-.366.44.44 0 0 1 .148-.029.65.65 0 0 1 .3.07.5.5 0 0 1 .053.029l.031.021a.537.537 0 0 1 .169.329.9.9 0 0 1 .009.127.44.44 0 0 1-.035.2.383.383 0 0 1-.173.184 1 1 0 0 1-.355.127.78.78 0 0 1-.338-.032.643.643 0 0 1-.4-.537.764.764 0 0 1 .128-.586.9.9 0 0 1 .073-.094.97.97 0 0 1 .249-.179.69.69 0 0 1 .269-.09 1.3 1.3 0 0 1 .133 0 1.34 1.34 0 0 1 .209.033 1.03 1.03 0 0 1 .166.048.67.67 0 0 1 .1.06.83.83 0 0 1 .208.175.92.92 0 0 1 .131.256c.024.074.044.181.068.3a.95.95 0 0 1-.017.476.75.75 0 0 1-.2.294 1.26 1.26 0 0 1-.381.236.753.753 0 0 1-.427.083 1.49 1.49 0 0 1-.507-.095.9.9 0 0 1-.375-.254.92.92 0 0 1-.227-.379c-.027-.079-.076-.283-.076-.283s.006 0-.006-.106a.7.7 0 0 1 .009-.152M9.49 10.716v-4.43a.179.179 0 0 1 .179-.179h4.994a.179.179 0 0 1 .178.179v4.43a.178.178 0 0 1-.178.178H9.669a.179.179 0 0 1-.179-.178m5.139-4.397H9.7v4.364h4.927zm-.285 4.059a.062.062 0 0 1-.062.062h-4.233a.061.061 0 0 1-.061-.062V6.623a.061.061 0 0 1 .061-.061h4.233a.061.061 0 0 1 .062.061zm-2.778 6.794h1.2l-.6-1.019zm-5.335-5.149h-.562v.82H4.85v.561h.819v.819h.562v-.819h.819v-.561h-.819Zm14.407-6.239a28 28 0 0 0-2.747-.706A8.24 8.24 0 0 0 15.917 3.2v6.271a3.382 3.382 0 0 1-3.379 3.379h-.745a3.383 3.383 0 0 1-3.379-3.379V2.994a8.15 8.15 0 0 0-2.3 2.084 28 28 0 0 0-2.747.706c-.359.19-1.656 2.367-.769 7.973s2.85 9.407 3.294 7.918.38-1.488.6-2.027.665-.57 1.235-.7a28.1 28.1 0 0 1 3.977-.439.05.05 0 0 0 0 .012q.079 1.411.16 2.822c.03.543.878.546.847 0q-.081-1.412-.16-2.822a28.45 28.45 0 0 1 3.729.43c.57.127 1.014.159 1.235.7s.159.539.6 2.027 2.407-2.312 3.294-7.918-.409-7.786-.771-7.976M2.93 8.4a1.563 1.563 0 1 1 1.563 1.567A1.565 1.565 0 0 1 2.93 8.4m4.678 5.131a.169.169 0 0 1-.169.169h-.908v.908a.169.169 0 0 1-.169.169h-.824a.169.169 0 0 1-.169-.169V13.7h-.908a.169.169 0 0 1-.169-.169v-.823a.17.17 0 0 1 .169-.17h.908v-.907a.169.169 0 0 1 .169-.169h.824a.169.169 0 0 1 .169.169v.907h.908a.17.17 0 0 1 .169.17zm5.543 4.055h-1.97a.131.131 0 0 1-.116-.064.133.133 0 0 1 0-.132l.985-1.673a.132.132 0 0 1 .225 0l.984 1.673a.128.128 0 0 1 0 .132.13.13 0 0 1-.108.068zm5.69-9.83a.866.866 0 1 1-.866.866.867.867 0 0 1 .866-.862ZM17.173 11.1a.866.866 0 1 1 .866-.866.868.868 0 0 1-.866.866m1.647 1.625a.866.866 0 1 1 .866-.866.867.867 0 0 1-.866.863zm1.669-1.6a.866.866 0 1 1 .866-.866.868.868 0 0 1-.866.859zm-3.316-1.394a.5.5 0 1 0 .5.5.5.5 0 0 0-.5-.5M5.493 8.404a1 1 0 0 1-1 1 1 1 0 0 1-1-1 1 1 0 0 1 1-1 1 1 0 0 1 1 1m13.327 2.952a.5.5 0 1 0 .5.5.5.5 0 0 0-.5-.5m2.169-1.104a.5.5 0 0 1-.5.5.5.5 0 0 1-.5-.5.5.5 0 0 1 .5-.5.5.5 0 0 1 .5.5m-1.648-1.626a.5.5 0 0 1-.5.5.5.5 0 0 1-.5-.5.5.5 0 0 1 .5-.5.5.5 0 0 1 .5.5"/></svg>