<svg xmlns="http://www.w3.org/2000/svg" viewBox="0 0 24 24"><path fill="#44739e" d="M14.329 12.08a1.14 1.14 0 0 1-.721.221h-.087a1.152 1.152 0 0 1-.744-.385.02.02 0 0 0-.007 0 .03.03 0 0 0-.006 0 .01.01 0 0 0-.005.004l-.303.37a.047.047 0 0 0-.012.03c0 .011.004.021.012.031a1.68 1.68 0 0 0 .904.461c.034 0 .069.011.103.014a1.665 1.665 0 0 0 1.097-.264Zm-1.473.557c-.098.248-.286.514-.338.752.28.001.648.077.707-.292.098-.246.43-.589-.369-.46m1.326-2.026c-.315-.098-.453.118-.536.386l-.407.845.517.15c.12-.152.239-.786.361-.352.272.568.551 1.132.822 1.7.105.034.684.172.569-.05l-1.28-2.651-.047-.029Zm4.679.035-.962 1.172c-.352-.394-.647-.857-1.033-1.207-.256-.035-.538-.033-.423.313.003.812-.005 1.625.004 2.437.202.052.651.122.529-.239V11.53c.313.361.597.765.928 1.1.329-.34.613-.738.924-1.1.009.615-.018 1.237.014 1.847.143-.025.559.139.519-.123-.002-.869.004-1.739-.003-2.607-.135-.056-.351-.04-.497-.001m2.289 2.218c.054-.217-.157-.699.222-.591.456-.002.914.006 1.369-.003.053-.14.065-.414-.017-.529H21.15c.054-.218-.158-.701.222-.593.528-.002 1.057.006 1.584-.004.074-.234.087-.652-.284-.526h-2.009c-.107.287-.018.657-.047.976v1.756c.289.104.657.017.977.046h1.345c.081-.184.143-.663-.222-.53-.521-.001-1.045-.003-1.566-.002m-11.502 0c.053-.217-.158-.699.221-.591.46-.009.93.02 1.384-.014-.018-.163.143-.593-.166-.518h-1.44c.054-.218-.157-.701.222-.593.532-.009 1.071.019 1.598-.014-.007-.187.137-.622-.21-.516-.709.009-1.427-.019-2.131.014-.03.901-.004 1.812-.013 2.718.271.106.627.017.931.047.473-.01.956.019 1.423-.015-.002-.187.129-.618-.211-.515Zm-4.046-1.725H6.85a.298.298 0 0 1 .297.297.297.297 0 0 1-.297.296H5.601v-.593Zm1.461 1.1a.825.825 0 0 0-.21-1.623H5.117a.044.044 0 0 0-.032.014.047.047 0 0 0-.013.032v2.685a.047.047 0 0 0 .045.047h.44a.047.047 0 0 0 .046-.047v-1.076h.855l.664 1.08a.104.104 0 0 0 .034.031.09.09 0 0 0 .044.011h.55a.02.02 0 0 0 .008-.001.01.01 0 0 0 .005-.006.014.014 0 0 0 .002-.008l-.001-.008Zm-5.529-1.096c.548.031 1.227-.154 1.561.443.473.961-.611 1.395-1.366 1.273-.359.086-.132-.412-.195-.62Zm2.248.858c.029-1.138-1.133-1.477-2.047-1.389-.234.034-.542-.067-.733.046.01.904-.018 1.819.014 2.718.469.032.954.004 1.428.014.727-.013 1.355-.664 1.338-1.389"/></svg>