<svg xmlns="http://www.w3.org/2000/svg" fill="#44739e" viewBox="0 0 24 24"><path d="M12.488 21.065c.006.014.02.017.032 0s.039 0 .073 0a.28.28 0 0 0-.071-.006c-.009.008-.026.01-.032 0a.41.41 0 0 0-.146-.059l-.032-.007.032.007a.41.41 0 0 1 .144.065m6.852-.705.028.044c.021.028.025.017.037-.027.007-.026.019-.064.025-.083s.012-.035.015-.046v-.018c0-.011 0-.015-.013-.015a.4.4 0 0 0-.09.026l-.036.017c-.02.008-.028.02-.022.029l.01.006c.006.007.026.036.046.067m-6.844 1.061v-.001l-.001-.001Zm-.186-.425h-.002zm.172.4-.002-.006-.006.006zM12.245 21a.14.14 0 0 1 .063 0c-.035-.009-.063-.009-.063 0m-.667-.002v-.002l-.015-.006Zm-.039-.027a.85.85 0 0 1-.1-.079.36.36 0 0 0-.043-.034.1.1 0 0 1-.026-.019.1.1 0 0 0 .027.02.36.36 0 0 1 .043.034.85.85 0 0 0 .1.079l.009.007.014.009-.015-.012zm.098-.115a.027.027 0 0 1 .006.016v.028l-.01.008a.035.035 0 0 0-.006.019.034.034 0 0 0 .034.036c.014 0 .014 0 0-.037a.06.06 0 0 0-.013-.025h.01a.026.026 0 0 0 .007-.036c-.011-.014-.022-.017-.026-.01zm-.044-.047-.007.015a.05.05 0 0 0 0 .025.7.7 0 0 0-.008.1V21h.009v-.05a.7.7 0 0 1 .008-.1.05.05 0 0 1 0-.025l.007-.015q.006-.018.015-.039c.021-.055.033-.075.021-.081h-.009c.011.006 0 .026-.021.08zm.733.281h-.013a.16.16 0 0 1-.048-.034v-.006l-.014-.018a.04.04 0 0 1-.006-.032.042.042 0 0 0 .006.027l.017.018v.006a.16.16 0 0 0 .048.034h.013c.081.032.263.095.308.107.015 0 .023 0 .028-.01 0 .007-.013.01-.027.009-.049-.006-.231-.069-.312-.101m.359.01-.014.054c0 .011-.006.023-.01.034 0-.012.008-.024.011-.036l.014-.054a.194.194 0 0 0-.082-.027.21.21 0 0 1 .081.029m-.758-.182c0-.01 0-.01-.01-.01l.011.015zm-.534-.195a.4.4 0 0 1-.017.063c-.011.031-.015.042-.007.052-.006-.01 0-.02.007-.05a.45.45 0 0 0 .017-.063l.007-.025.043-.01h.057a.9.9 0 0 1 .125 0 .75.75 0 0 0-.134 0h-.1zm.707.336-.011.011h.019a.027.027 0 0 0 .017-.01h-.009a.02.02 0 0 0-.016-.001m.175-.715-.002.003zm-.167-.087h.001l-.001-.003zm.38.149c0-.006-.016-.008-.016 0v.011c-.006 0-.009-.011-.016 0-.029.052-.1.163-.129.2a.15.15 0 0 0-.024.037s0 .006.014-.009.019-.015.158-.015c.116 0 .141 0 .141-.01s-.005-.007-.018-.009a1.3 1.3 0 0 1-.215 0l-.011.007.005-.007h-.013a.014.014 0 0 1 0-.019l.009-.008a.4.4 0 0 0 .039-.043l.013-.016c.008-.013.013-.013.013-.013a.14.14 0 0 1-.015.026l-.012.019-.014.022c.024-.031.072-.105.106-.162v-.01c-.003-.013-.01.005-.015-.001m-.388-.148h.009c.003 0-.008-.005-.009 0m.373.342a.13.13 0 0 1-.027 0 .3.3 0 0 0-.037 0 .6.6 0 0 0 .064 0m-.365 1.089-.001.001h.001zm-.128.004v.013-.006s.024-.011.066-.011.059 0 .06.007a.2.2 0 0 0-.062-.007c-.044-.006-.064-.002-.064.004m.064.013a.17.17 0 0 1-.063 0 .17.17 0 0 0 .064 0c.067 0 .069 0 .064-.017-.002.011-.009.011-.065.017m.049-.073h-.1V21.6a2.46 2.46 0 0 1 .023-.429 2.53 2.53 0 0 0-.023.435v.029h.107Zm.316-1.033c-.016 0-.017-.011-.013-.023a.14.14 0 0 0-.019.03h.006a.07.07 0 0 1 .026-.007m.191.011h.01a.5.5 0 0 0-.1-.008h-.033a.11.11 0 0 0 .035.007.9.9 0 0 1 .088.001m-.589.343s0 .009.025.013h.012c.005 0 .021 0 .024-.006 0-.011-.056-.009-.068 0h.008zm7.424-.878-.041.009-.048.012c-.021.006-.039.018-.059.025a.8.8 0 0 1 .252-.053.7.7 0 0 0-.104.007m-5.69-1.051.019-.051a.15.15 0 0 1 .036-.059 1.4 1.4 0 0 0-.2.156.19.19 0 0 0 .1-.025zm1.677.114-.318.019c-.351.019-.659.037-.764.049l.3-.02.377-.023.445-.026.5-.029.165-.009h-.035c-.125 0-.326.017-.67.039m3.541 1.771.022.018c-.03-.025-.058-.054-.09-.077a.28.28 0 0 0 .068.059m-5.14-1.691c.029.011.03.011.067-.006a.4.4 0 0 1 .045-.018c.012 0 .014-.012 0-.029-.027-.041.038-.053.087-.016.03.023.045.024.067.006s.093-.021.106 0l.008.013.067-.005V19.1l.009-.125v-.068l-.035-.063v-.058l.043-.038c-.031 0-.046 0-.05-.011s0-.017.017-.031l.006-.007a.4.4 0 0 0-.053.025c-.053.028-.069.04-.059.053a.043.043 0 0 0 .018.015.09.09 0 0 1 .021.022c.046.058.06.174.007.145a.2.2 0 0 0-.055-.007H14.1l-.006-.016h.091V18.9a.082.082 0 0 0-.015-.053.044.044 0 0 0-.013-.014.07.07 0 0 0-.029-.007.42.42 0 0 0-.091.017.009.009 0 0 0-.01.006.06.06 0 0 1 0-.016c.006-.013.005-.008 0-.01a.38.38 0 0 0-.176.087.2.2 0 0 0-.054.1c0 .024-.007.028-.024.031s-.04.021-.037.028h.009a.02.02 0 0 1-.013.007h-.012a.32.32 0 0 0-.146.028c-.037.014-.1.088-.088.1a.8.8 0 0 0 .122 0 .52.52 0 0 1 .215.015m.4-.17c0 .007-.009.01-.042.011-.06 0-.088 0-.094-.007a.284.284 0 0 1 .132-.004zm-.143-.2.044-.01c.01 0 .029.01.027.018a.2.2 0 0 1-.1 0 .1.1 0 0 1 .025-.008zm-.054.008c0 .007.007.013.021.021a.1.1 0 0 1-.026-.017zm-.2.217c.011-.006.014-.011.012-.02a.021.021 0 0 1 .022-.023h.01l.007.008a.04.04 0 0 1 0 .015.034.034 0 0 0 .005.017.06.06 0 0 0 .017.014.055.055 0 0 1 .02.017c.015.017 0 .026-.054.026-.022 0-.033 0-.04-.011a.05.05 0 0 1-.01-.021c-.004-.011-.004-.016.007-.022zm.288-.267-.044.009a.07.07 0 0 0-.031.011.193.193 0 0 0 .1 0c.001-.011-.015-.027-.025-.02m5.465 1.344h.095-.007a.43.43 0 0 0-.088 0m-.434.762c-.008 0-.017.018-.011.024s.017 0 .017-.014-.006-.01-.006-.01m-.545-1.908h.156zm.825 1.929v-.003l-.005.003zm-.189-.69a1.06 1.06 0 0 1 .191-.067.03.03 0 0 0 .022-.007l.016-.006.016-.005a.4.4 0 0 1 .091-.008h.007a1.05 1.05 0 0 0-.137-.007.82.82 0 0 0-.206.1m-7.679.317a.18.18 0 0 1-.037-.054.37.37 0 0 0 .037.054m-.157.119a.13.13 0 0 0 .062 0l.112-.009h-.03a1 1 0 0 1-.134.006v-.006zm.332.162a.18.18 0 0 0-.013.074.17.17 0 0 1 .013-.066l.026-.035c.011-.016.033-.013.051 0a.093.093 0 0 1 .031.06v-.008a.09.09 0 0 0-.022-.042l-.016-.018c-.016-.009-.035-.014-.044 0zm-.175-.281.007.01.006.009-.006-.01zm-.143.11.005-.001zm.426.217v.012s.005.01.01-.007.012 0 .019 0v-.008h-.015a.011.011 0 0 1-.014.003m-.24-.255c0-.009-.013-.025-.036-.052a.123.123 0 0 1 .036.052m-.263.187-.006.019zm.953-.463a.4.4 0 0 0-.064.1c-.023.044-.038.045-.051.012.013.041.03.039.054-.008a.4.4 0 0 1 .063-.1l.013-.017c0-.009.008 0 0-.009zm-.279.597-.009.002zm-.649-.247s0-.012-.005 0a.28.28 0 0 0-.019.055l-.007.047v.008c0-.019.009-.037.017-.064s.011-.031.014-.046m.104.246a.47.47 0 0 0-.077-.052.5.5 0 0 0 .065.05l.025.018a.5.5 0 0 1 .067.057.031.031 0 0 0-.012-.026.56.56 0 0 1-.068-.047m-.104-.246v-.017.006zm-.025.113a.65.65 0 0 0 .034-.114c0-.014 0 0-.006 0v.015a.65.65 0 0 1-.028.099m1.145.58v.01c0 .006.007.008.01.013a.06.06 0 0 1-.009-.024zm-.457-.564c.014.008.036-.007.037-.025-.004.004-.023.033-.037.025m-.625.505c0-.008.009-.008.028-.008a.22.22 0 0 0 .09-.029.23.23 0 0 1 .068-.025h-.01a.22.22 0 0 0-.062.023.22.22 0 0 1-.09.029.044.044 0 0 0-.028.008.27.27 0 0 0 .054.083c.038.046.075.1.09.088a.4.4 0 0 1-.082-.082.27.27 0 0 1-.058-.087m.158.116c.006-.034.014-.067.023-.1a.7.7 0 0 0 .019-.084c.002-.017-.013 0-.014 0l-.018.076-.019.079c0 .008-.024 0-.036-.012h.008c.029.023.036.02.036.012l.019-.079c.01-.041.018-.073.018-.076 0 .007-.009.044-.019.084s-.017.066-.023.1c0 .01 0 .01.007.01s.013-.013.019-.034c-.006.019-.012.032-.018.032s-.003.002-.002-.008m.068-.205a.05.05 0 0 0 0-.021v-.037l-.021.022-.013.018v.008a.08.08 0 0 1 .019.012h.016c-.006.037-.023.107-.042.181a1.9 1.9 0 0 0 .047-.2zm-.113.183c0 .006-.006 0 0 .008.022.037.032.055.018.063l.008.006c.007 0 .008-.028-.018-.063zm.471-.195c0-.01 0 0-.006.023v.053l.006-.065zm-.006.076v.033-.007zm-.315-.986.007-.006zm-.246.97c.007-.006.012-.006.021 0s.023 0 .076-.023a.094.094 0 0 1 .044-.012c-.007 0-.018 0-.046.007-.046.018-.067.029-.076.023s-.014-.006-.021 0a.014.014 0 0 1-.019 0s0 .009.007.01a.017.017 0 0 0 .014-.005m-.025-.013a.37.37 0 0 1 .072-.036c.025-.009.028-.013.048-.021l-.033.013c-.063.025-.079.036-.087.044m.518.193v.015zm-.33.045c0 .023.115.1.129.082h.009c-.017.012-.106-.052-.118-.074 0 0-.02-.014-.02-.008m-.019-.256.006.006.002-.001zm.389-.228-.011.009c-.006.007 0 .014.008.019s.016.017.016.04v.111a.3.3 0 0 0 0 .041v.1c0 .042 0 .049-.015.058l-.062.049a.72.72 0 0 1-.139.1c.028 0 .063-.03.15-.1h.003v.01l.009-.007v.018a.08.08 0 0 1 .008.034v.042a.2.2 0 0 0 .011.073.05.05 0 0 1 0 .027c0 .02 0 .034.014.02v-.044a.54.54 0 0 1-.005-.175c.01-.034.009-.049 0-.034a.018.018 0 0 1-.015.007c-.005 0-.008.005-.012.007l.035-.028c.012-.007.012-.022.012-.048v-.042c0-.014.008-.058.008-.089v-.011c-.006-.01-.006 0-.006.023 0-.039.01-.083.01-.119v.047a.6.6 0 0 0 .006-.092.1.1 0 0 0-.011-.05h.006a.018.018 0 0 0-.02.004m.107-.233h.001zm-.657.492s-.008 0-.007-.008v.01zm.72.1c-.006-.061-.007-.122-.008-.183v.026a1 1 0 0 0 .008.157m-.29.322.028.008h.042a.24.24 0 0 0-.07-.008m.13-.032a.17.17 0 0 0 .006-.077v.007a.18.18 0 0 1-.006.07m.048-.881a.033.033 0 0 0 .018.026.032.032 0 0 1-.018-.026m-.272.791a.05.05 0 0 0-.018 0 .05.05 0 0 1 .027-.007.05.05 0 0 0 .015-.009 1.24 1.24 0 0 1 .143-.107 1.15 1.15 0 0 0-.138.1.043.043 0 0 1-.029.023m.006-.028c-.021 0-.039 0-.072-.024-.057-.033-.077-.039-.078-.024l.008.007c.008 0 .015-.006.058.018s.056.033.084.023m.082-.46c-.051.022-.107.044-.124.051-.045.017-.068.038-.068.063v.005c0-.024.023-.045.067-.062.017-.007.073-.029.124-.051.132-.053.131-.054.134.044v.052-.058c.001-.1.001-.1-.133-.044m.237.072a.054.054 0 0 1 .01.03v.074a1.04 1.04 0 0 1 .022.158v.187h.007v-.196c0-.046-.01-.117-.013-.164l-.009-.045v-.02a.054.054 0 0 0-.01-.03.06.06 0 0 0-.032-.009.07.07 0 0 0-.02 0v.006a.1.1 0 0 1 .015 0 .06.06 0 0 1 .03.009m-.043-.384h-.011v.008-.005zm-.081.89v-.016a.03.03 0 0 0-.012-.017.015.015 0 0 1-.008-.016v-.009a.14.14 0 0 0 .006-.029.6.6 0 0 0 0-.058.012.012 0 0 1 0-.01.5.5 0 0 1 0 .075.14.14 0 0 1-.006.029v.009a.015.015 0 0 0 .008.016.03.03 0 0 1 .012.017v.019c0 .009.016.01.026 0v-.01h-.023Zm.031-.09v-.052a1.7 1.7 0 0 1 .007-.2v.021c0 .052-.006.105-.005.158zm.15-1.375v-.001zm.075.186a.6.6 0 0 1-.05-.124.25.25 0 0 0-.019-.048v-.006a.02.02 0 0 0 .006.015.25.25 0 0 1 .019.048.6.6 0 0 0 .05.124c.006.006.026-.025.07-.107.011-.019.015-.029.011-.037a.044.044 0 0 1-.009.03c-.052.08-.071.111-.078.105m-.519-.09-.004.003h.012zm.444-.096v.008c.005-.006.016-.006.035 0l.074.023c.024.007.036.011.041.018v-.007c0-.007-.018-.012-.043-.019l-.074-.023Zm-.279.354-.009-.029.007.024zm.452-.269a.37.37 0 0 0-.051.073c-.023.042-.035.059-.046.058.013.009.026-.008.052-.055l.007-.01.02-.034h.005a.17.17 0 0 1 .019-.027.05.05 0 0 0 .018-.022c0-.006.01 0 .019-.006h-.025a.05.05 0 0 1-.018.023m-.453.187-.002-.002-.001.005zm.262.692s-.011.01-.011.016l.011-.011Zm-.189.511a.42.42 0 0 1-.169-.045.07.07 0 0 1-.028-.017.14.14 0 0 0 .03.018.42.42 0 0 0 .169.045v-.011zm.279-1.243c.009 0 .022 0 .048-.049l.035-.061c-.007.01-.014.019-.02.029l-.017.029c-.026.045-.031.049-.049.049h-.015v.01-.011zm.11-.122a.06.06 0 0 0-.025.008c.009-.012.025-.014.025-.008m.036-.028v-.014h-.009v.01a.023.023 0 0 0 .005.013.011.011 0 0 0 .004-.009m-.208-.02-.014-.03h-.005l.013.027.025.067c.023.064.034.089.047.09-.011-.007-.021-.031-.041-.087zm-.006.072c.013.033.025.066.035.1a.11.11 0 0 0 .016.03.054.054 0 0 1 .012.034v.025c0 .008 0 0 .006 0v-.025a.054.054 0 0 0-.012-.034.11.11 0 0 1-.016-.03 1 1 0 0 0-.029-.105.8.8 0 0 1-.035-.1h-.012a.9.9 0 0 0 .035.105m-.4-.005a.024.024 0 0 0-.026 0 .026.026 0 0 1 .023 0 .022.022 0 0 0-.022 0l.006.008c.022-.008.028 0 .067.055s.042.06.057.06.01.008.011.015v-.006c.005-.008 0-.018-.016-.018s-.019-.008-.032-.025c.006.006.012.009.014 0a.2.2 0 0 1-.044-.054c-.024-.036-.035-.049-.049-.051a.04.04 0 0 1-.017-.008.025.025 0 0 0 .012.008.13.13 0 0 1 .016.016m.305-.154a.46.46 0 0 0-.117.006.2.2 0 0 1-.015.025c.014 0 .027-.007.041-.008a.27.27 0 0 0 .063 0 .34.34 0 0 0 .084-.007.42.42 0 0 0-.132 0c.026-.003.049-.016.076-.016m-.197.353a.07.07 0 0 1-.007-.024.06.06 0 0 0 .007.024m-.067 1.079a.5.5 0 0 0 .083.029.16.16 0 0 1 .065.028c-.006-.009-.026-.017-.067-.029a.5.5 0 0 1-.083-.029c-.028-.011-.039-.012-.049 0v.007c.012-.021.023-.02.051-.006m.066-1.118a.018.018 0 0 0-.006.013l.006-.012.006-.017zm.219.256c0-.008-.005-.008-.005-.008h-.013c-.018 0-.018.009-.018.009a.032.032 0 0 0 .03 0zm-.212-.27a2.2 2.2 0 0 0 .073-.226 2.3 2.3 0 0 1-.073.225zm.027-.11a.05.05 0 0 0 0 .021l.006-.016c.006-.023 0-.033 0-.023l-.007.017zm.037 1.233h-.006.009v-.062c0-.045 0-.063-.014-.058.011 0 .013.012.013.053zm-.1-1.102-.019-.039a.6.6 0 0 0-.058-.083.12.12 0 0 1-.027-.038h-.006s.006.016.033.046a.6.6 0 0 1 .058.083l.019.034.018-.014a.04.04 0 0 0 .013-.01v-.006a.04.04 0 0 1-.013.016Zm-.04 1.179h.013a.07.07 0 0 0 .029.006.6.6 0 0 0-.067-.028c.009.01.016.022.025.022m-.055-1.3a.23.23 0 0 1-.042-.07.22.22 0 0 0 .043.072c.023.031.059.082.078.113.036.056.056.079.056.066 0 .011-.019-.009-.054-.064a2.2 2.2 0 0 0-.081-.117m-.011-.071-.007-.005h-.005l.008.003zm.166.035a.5.5 0 0 1 .033-.094l.007-.007c.008 0 .008 0 .008.006 0-.006 0-.006-.009-.006l-.007.007a.5.5 0 0 0-.033.094c-.025.075-.037.091-.054.081.018.01.031-.004.055-.081m-.054.078h-.002zm.087 1.181h-.005a.27.27 0 0 1-.1-.032.5.5 0 0 1 .1-.081.47.47 0 0 0-.1.083v.005a.27.27 0 0 0 .1.032zm8.717-2.672-.006-.003.006.009zm-9.718.872.085-.008zm.237-.023a.54.54 0 0 0-.156.008h.032c.06-.003.095-.008.124-.008m8.032 1.763-.039-.031h-.008c0 .02.132.111.142.1s-.013-.015-.03-.025a.6.6 0 0 1-.065-.044m-8.036-1.758.068-.006h-.064zm8.347 1.845v-.122c0-.017-.007-.019-.024-.008a.73.73 0 0 0-.115.1.28.28 0 0 0 .12.03zm-4.631-3.439-.03.013.032-.013zm-3.933 1.766s0 .013.006.014a.018.018 0 0 0 .024 0l.008-.007a.1.1 0 0 0 0-.026l-.005.015c-.009.009-.015.012-.02.01h-.005a.07.07 0 0 1 0-.02v-.025a.13.13 0 0 1 .008-.059s.006-.008.011-.008h.006a.09.09 0 0 1 .005.033v-.036h-.028a.036.036 0 0 0-.016.011.2.2 0 0 0-.006.059v.025s0 .007.005.012zm8.57 1.73a.11.11 0 0 0-.05-.018.6.6 0 0 1-.083-.031c-.034-.017-.057-.021-.069-.013l-.006.012a.47.47 0 0 0 .122.044c.03.007.057-.001.086.006m-5.456-3.101.119-.07.154-.086-.055.028-1.234.69-.018.004.008.008.004.001.946-.527zm7.084 3.291v.003h.042v.094h.14V21.9h.042v-.002l-.112-.001zm-.627-.004h-.473v.099h.981v-.1h-.508zm-4.235.009v.089h.982v-.085h.001v-.01h-.983zm1.152.005h.14V22h-.14zm-3.443-.012h.982v.1h-.982zm1.147.007v.089h.982v-.098l-.982.003Zm-2.12-2.71h-.005c0 .006-.011.007-.016.011zM19.5 21.7h.006l-.006-.017Zm.005-.142a.28.28 0 0 0 0-.082v-.006a.14.14 0 0 1 0-.036 1.4 1.4 0 0 1-.137.093.57.57 0 0 0-.089.073c0 .016.021 0 .1-.054.115-.089.11-.091.111.048a.44.44 0 0 0 .006.1v-.034a.43.43 0 0 1 .009-.102M18.218 22l.003-.004h-.001Zm-1.672-4.023-.123.006.143-.006zM17.713 22h.507l.008-.019h.01a.05.05 0 0 0-.017.023h.479V21.9h-.982zm-1.607-4 .129-.007h.053l.094-.006h.041-.177c-.054 0-.115.01-.177.01l-.143.01zm3.339.475v-.014h.007-.016c-.004.002 0 .007.009.014m-3.209-.483-.014.008a.04.04 0 0 1 .014-.008m-.3.025a.173.173 0 0 0 .105-.012.18.18 0 0 1-.107.006zm-2.347 3.887h.042V22h.14v-.096h.04v-.002h-.224zm3.055-3.927h1.216-.06l-.191-.007h-.8c-.037 0-.105.006-.177.006h-.071.078zm1.767.032c0 .026.04.048.12.048-.079-.003-.117-.023-.12-.048m1.696 2.6c-.095 0-.111 0-.108-.02a.14.14 0 0 1 .034-.053c.043-.055.056-.075.056-.087v-.023c.014-.011.013-.025 0-.033a.12.12 0 0 0-.051.058.74.74 0 0 1-.114.163c-.032.036-.087.1-.123.15s-.076.1-.09.115a.1.1 0 0 0-.024.038.016.016 0 0 0 .011.018c.02.011.028.011.029 0v-.057l.055-.062c.03-.034.071-.084.091-.11.057-.076.069-.088.086-.082a.97.97 0 0 0 .263 0c-.005-.01-.022-.012-.115-.015m-.125.012c-.018 0-.022 0-.017-.016a.03.03 0 0 1 .015.007l.014.012zm-1.451-2.564c.037 0 .1.011.137.011a1.2 1.2 0 0 0-.137-.011m.295.011h.02l-.01-.019a.07.07 0 0 0-.039-.013.64.64 0 0 0-.1-.009h-.034a.26.26 0 0 0 .038.026c.042.002.083.009.125.015m1.304 3.209c-.068-.027-.064-.026-.064-.016a.9.9 0 0 0 .051.159.028.028 0 0 0 .02-.009l.025-.021h.011a.078.078 0 0 1-.021.055c-.021.028-.029.054-.023.059s.038-.014.073-.059c.064-.084.086-.117.079-.126h-.01a.43.43 0 0 1-.141-.042m-1.719-3.268S18.4 18 18.405 18s.006.007.006.011h.045l.2.015h.007a.2.2 0 0 1-.032-.022h-.026a.17.17 0 0 1-.046-.032l-.007-.006c-.006.012-.015.01-.012 0s0 0-.009.015l-.006.012c.007-.018.01-.028.008-.033l-.025-.021a.08.08 0 0 0-.02-.012h-.008a.012.012 0 0 0-.015.008.06.06 0 0 1-.025.023.044.044 0 0 0-.017.016.025.025 0 0 1 .013-.014c.023-.015.037-.032.034-.04h-.026a.07.07 0 0 0-.021 0h-.009l-.009.006a.1.1 0 0 1-.043.017h-.033l.006.006c0-.008 0-.006-.008-.006l-.018.005-.049.012h-.014a.2.2 0 0 1-.033.009.36.36 0 0 1-.109.007h-.244l.18.007c.106.007.22.017.371.026m.562.068H19v-.011a.37.37 0 0 1 .081 0h.035l.157.014h.027c.061.005.115.013.121.013a.2.2 0 0 0 .041.006l.089.011.089.01c.017 0 .053.009.079.009l.047.006-.033-.005a.4.4 0 0 0-.045-.006.6.6 0 0 1-.076-.01.3.3 0 0 0-.079-.009c-.018 0-.058-.01-.089-.01l-.089-.011a.14.14 0 0 1-.041-.006.56.56 0 0 0-.121-.013h-.024l-.157-.014h-.035a.55.55 0 0 0-.081 0l-.014.007v.01h.018Zm.783 2.985-.006-.002.001.002zm.297.347c-.005-.015-.016-.007-.052.031a.5.5 0 0 1-.078.062c-.029.017-.037.024-.027.036l.017.013c.031.022.044.019.1-.028s.065-.05.05-.091a.2.2 0 0 0-.01-.023m-9.321-1.497.003-.004h-.003zm.219.038v-.032a.07.07 0 0 0 0-.02zm-.362-.073h-.011s-.008 0-.015.012a.09.09 0 0 0-.011.042.21.21 0 0 0 .006.087v.007a.033.033 0 0 0 .027.007l.017-.009.006-.007a.28.28 0 0 0 0-.082.093.093 0 0 0-.012-.057zm.006.075a.08.08 0 0 0 0 .022v.019c0 .023-.009.034-.021.032s0-.024-.006-.042a.3.3 0 0 1 0-.085c0-.01.011-.013.016 0a.14.14 0 0 1 .011.045zm4.27-1.752h.011c.043-.017.1-.037.156-.055s.124-.037.181-.051a2 2 0 0 1 .1-.022c.036-.007.078-.014.116-.02l.045-.008.073-.013h.071c.034-.006.161-.017.3-.027H15.9a.084.084 0 0 1-.1 0h-.024v.005-.005h-.025l-.065.007.012.007-.013-.007-.059.008h-.025l-.14.019h-.022a.6.6 0 0 0-.107.015h-.066l-.049.012-.031.008-.059.016-.046.014-.063.019-.062.047-.073.026-.03.011h.005zm5.348 3.069c.008-.006-.007-.015-.027-.015h-.019l.021.009a.036.036 0 0 0 .025.006m-4.916-3.179h.001l-.002-.002h-.001l.001.001zm-.115.0302.0007-.0006.003.004-.0008.0006zm-.303.1098h.004v.003h-.004Zm-.004-.03-.073.018a.06.06 0 0 1-.036.009h.006l.032-.007.071-.016zm-9.409 1.473h-.003v1.639h.512l.003-1.64h-.512Zm15.454-.186c-.018 0-.024 0-.024.008q0 .012.024.012c.016 0 .022 0 .024-.012s0-.011-.022-.011zM5.473 18.253v.761h.491l.002-.761h-.002Zm-.152 3.273h.825v-2.018h-.825Zm.079-1.914h.646v1.8H5.4Zm-.079-.365h.825v-1.2h-.825Zm.063-1.078h.67v.931h-.67zm14.16 2.779c0 .009 0 .012.035.015a.056.056 0 0 0 .041-.012.12.12 0 0 0-.076-.003M5.495 17.192v.508h.471v-.003h.002v-.508h-.473Zm.027-.908a1 1 0 0 0-.136.188.63.63 0 0 0-.065.229h.721l.012-.023Zm-.201 1.596h.825v-.912h-.825Zm.087-.776h.646v.678h-.646Zm.738-.457v-.719a.89.89 0 0 0-.485.209zm14.793 2.762a.08.08 0 0 0-.037.006l-.006.006a.011.011 0 0 0 .007.01h.023c.021 0 .032-.008.032-.024s-.007.002-.019.002m-.592-.509a.4.4 0 0 1 .023.034l.01-.006a.3.3 0 0 0-.033-.028m.027-.177a.25.25 0 0 1-.035-.044l.011.014zm.007.199-.001.001.01.009zm-4.748-.912h-.001zm-3.696 3.033a.038.038 0 0 1 .037-.008h-.01a.04.04 0 0 0-.03.006l-.055.025a.7.7 0 0 1-.069.032l-.073.032-.018.007-.1.042a.6.6 0 0 1-.11.054c.136-.056.411-.178.428-.19m3.702-3.026-.001-.003-.001-.001-.001-.001-.003-.002v.001zm-5.88-7.105v.152h.4a.154.154 0 0 0 .16-.146v-.2a.205.205 0 0 0 .107-.1l.15.08a.173.173 0 0 0 .22-.054l.121-.188a.136.136 0 0 0-.034-.188l-.021-.012-.655-.341a.183.183 0 0 0-.233.056l-.111.173a.145.145 0 0 0 .044.2l.018.009.159.083a.157.157 0 0 0-.044.109.184.184 0 0 0 .12.166v.2zm10.077 10.714c.039-.015.054-.021.042-.036a.3.3 0 0 0-.053-.039c-.081-.055-.079-.055-.073.014a.2.2 0 0 0 .011.073c.01.012.029.004.073-.012m-8.472-11.097-.325-.043-.161.251.203.23zm8.236 11.06c-.03 0-.048 0-.047.013a.073.073 0 0 0 .043.007h.031v-.02zm-4.036-3.563-.004-.002.004.003zm-5.39 3.871h.982v.1h-.982Zm-.351.007h.042V22h.14v-.096h.042v-.002h-.223ZM6.316 16.64l.486-.509a.88.88 0 0 0-.486-.207Zm.001 1.241h.825v-.912h-.825ZM6.4 17.1h.646v.678H6.4Zm3.824-1.415-.466-.005v-4.806h.006v-2h1.307L2.609 2v20h2.157v-6.68H7.65V22h2.1v-5.179h.474zm-2.6-2.8-.07.008-2.761-.006V12.8L4.8 8.993V8.9h2.826zm2.51 3.728h-.21v-.728h.21zm10.155 4.452v-.014c0-.015-.023-.024-.085-.039s-.077-.018-.076-.027a.5.5 0 0 1 .078-.077.33.33 0 0 0 .078-.08c0-.013-.017 0-.054.028l-.09.078a.35.35 0 0 0-.059.062c-.007.014-.014.019-.034.021s-.017 0-.018 0a.35.35 0 0 0 .085.026c.044.011.1.028.129.037.058.018.078.02.083 0v-.009c0-.009-.01-.012-.025-.008s-.013.008-.012.002m-.067-.189.012-.014h.012l-.014.011-.018.011zm-.107.124c0 .008-.009.008-.014 0a.015.015 0 0 1 0-.016.009.009 0 0 1 .009-.009.026.026 0 0 1 .007.016zM6.317 19.248h.825v-1.2h-.825Zm.068-1.078h.671v.93h-.671Zm1.026-9H5.054l-.016 3.53H7.4Zm-.163 1.145h-.026v-.038H5.244v.038h-.028a.42.42 0 0 1 0-.211h.026v.038h1.98V10.1h.026a.42.42 0 0 1 0 .215m.015-.284H5.2V9.27h2.063zm-.781 7.16v.509h.474v-.512h-.474Zm.659-.491a.59.59 0 0 0-.066-.229 1 1 0 0 0-.14-.188l-.539.395.011.022ZM21.3 20.556c-.025-.008-.046-.017-.046-.021a.4.4 0 0 0-.022-.054c-.046-.1-.124-.283-.124-.293s.009-.013.02-.02a.109.109 0 0 0 .05-.085.9.9 0 0 0 0-.148v-.008l-.009-.1v-.06l-.008-.106-.006-.013q-.009-.014-.027-.036c-.022-.02-.021-.052-.029-.08l.008-.016.006-.018v-.026l.006-.007c.009-.008.012-.011.006-.014h-.021c0-.014-.012-.026-.021-.025.008 0 .016 0 .018.008s0 0 0-.01V19.4l.006-.009c.006-.009 0-.009-.006-.009s-.012-.023-.008-.033v-.006a.02.02 0 0 0 .007-.015c0-.01-.022-.012-.039 0l-.011.009a.033.033 0 0 1-.016.007h-.008c-.01.006-.015.023-.012.045a.018.018 0 0 1 0 .024v.007c-.008 0-.01.034-.006.053a.12.12 0 0 0 .027.032.2.2 0 0 0 .033.018v.02s-.01 0-.014.006a.052.052 0 0 1-.038.009c-.03 0-.041.011-.035.02a.046.046 0 0 0 .031.015.2.2 0 0 1 .04.014c.02.011.049.013.043 0h.01a.031.031 0 0 1 .024.019.03.03 0 0 1 .008.014l.006.011v.013l.008.123.014.231c0 .016-.007.027-.013.025s-.009 0-.008 0c0 .019 0 .038-.006.033v.027l-.009.011a.09.09 0 0 1-.025.014.28.28 0 0 1-.063.022c-.02 0-.036.008-.042 0l-.016-.009V20a2.2 2.2 0 0 0-.021-.343c-.006-.006-.021-.009-.053-.012l-.076-.008h-.027l-.017.039c-.009.021-.039.1-.067.179s-.056.153-.062.169a.48.48 0 0 0-.039.114.3.3 0 0 1-.083.129c-.034.034-.042.014-.058.019a.43.43 0 0 0 .11-.139.4.4 0 0 1 .021-.066c.012-.029.054-.142.093-.249s.076-.206.083-.218a.28.28 0 0 0 .022-.065.9.9 0 0 1 .057-.173.07.07 0 0 0 .008-.032V19.3h.07a.5.5 0 0 0 .093-.015c.009 0 .015 0 .014-.007l-.108-.1-.008-.006-.05-.04-.049-.037-.057-.039-.083-.055-.04-.022-.042-.018H20.6l-.017.019h-.008c-.013.013-.019.013-.092.009s-.085-.014-.113-.053l.013.008.015-.007-.049-.028a1.6 1.6 0 0 0-.066-.092l-.064-.078c-.056-.069-.141-.17-.171-.2s-.013-.034-.025-.053l.019.024v.006l.065.077.009.011.04.05.007.009.023.021.033.041.011.014.024.03.053.066.075.043-.382-.453h-.014c-.007-.02-.03-.044-.029-.062.006-.054-.012-.073-.064-.066h-.04s0-.026.057-.053a.32.32 0 0 0 .057-.032l.011-.015h-.016l-.008.005a.3.3 0 0 0 .037-.024c0-.006 0-.009-.006-.012a.5.5 0 0 0-.1-.014l-.047-.007a.4.4 0 0 0-.045-.006h-.029.014a.57.57 0 0 1 .1.014c.007 0 .009.006.006.012s-.013.008-.02.013l-.112-.017-.075-.011h-.007c-.151-.022-.275-.035-.353-.044l-.19-.02h-.039l-.066-.007H19a.03.03 0 0 0 0 .025v.008l.008.017.007.013.007.011.01.011a.14.14 0 0 0 .037.035c.05.028.158.078.374.175h.009l-.035.017-.048-.021-.033-.015c-.216-.1-.324-.147-.374-.175a.1.1 0 0 1-.032-.021l-.01-.011-.007-.011-.007-.013-.008-.017v-.023c-.017-.01-.012-.015-.011-.021h-.197.158l.027.054.015.032a1.1 1.1 0 0 0 .328.173c.078.035.148.084.225.12l.012-.007.006.006h-.01a8.9 8.9 0 0 1 .891.476l.015.015h-.019a.2.2 0 0 1-.047 0c-.032 0-.076.011-.078.019s-.008.005-.015 0a.009.009 0 0 0-.012 0s0 .006-.008 0a.044.044 0 0 0-.032 0 1.06 1.06 0 0 1-.159 0 4.7 4.7 0 0 0-.474 0c0 .011-.049.008-.053 0a.135.135 0 0 0-.1-.023h-.054l-.053-.043c-.03-.023-.123-.1-.207-.169-.2-.165-.419-.343-.585-.471-.07-.053-.13-.1-.174-.128a.5.5 0 0 0-.038-.025.3.3 0 0 0-.071-.033h-.028c.026.008.048.017.048.017l.015.006.029.014c.039.023.035.034.072.055.01.006.017.009.018.016s-.009-.009-.019-.015c-.036-.02-.032-.032-.072-.054l-.024-.013-.017.015s-.022-.009-.048-.017h-.012a.8.8 0 0 0-.2-.017c-.072 0-.016-.006-.348-.017-.032 0-.13 0-.291-.008h-.456a11.4 11.4 0 0 0-1.2.069 1.5 1.5 0 0 0-.191.022 2.7 2.7 0 0 0-.368.09l.024-.01a1 1 0 0 0-.068.02h-.006l-.027.007-.112.042c-.027.011-.119.047-.243.106l-.013.007-.014.006c-.054.025-.065.031-.093.046l-.05.027-.046.024h-.008l-.018.009-.018.01-.08.048-.046.027-.064.037c-.005 0-.024.015-.05.028l-.023.011c-.065.039-.169.1-.292.181l-.075.049c-.1.065-.213.145-.23.161-.042.039-.254.117-.235.086a3.6 3.6 0 0 1 .406-.293l-.49.312-.08.023a.06.06 0 0 0-.026.007H13.1c.008 0 .017 0 .019-.005l.08-.023.49-.312.029-.018.2-.127.361-.211.153-.084.131-.067.082-.043.058-.027.034-.017.02-.009.042-.018h.013-.014l-.049.021-.048.023-.043.02-.054.025H14.6l-.261.122-.2.11-.188.1-.06.039-.146.089-.051.028-.013.009-.653.365h-.02l-.018.01H13c-.029.048-.108.054-.126.056-.191.017-1.9.485-2.24.581h.025c.057 0 .361-.028.465-.041l.221-.017a.51.51 0 0 0 .177-.026.12.12 0 0 1 .041-.013h.01a.12.12 0 0 1-.039.024.1.1 0 0 0-.022.007.51.51 0 0 1-.177.026l-.134.01a.04.04 0 0 1 .026.008h-.011l-.017.007-.027.016-.023.02-.009.008-.049.044c-.017.014-.03.031-.045.045 0-.009-.011-.009-.011-.031a.2.2 0 0 0 0-.023.66.66 0 0 0 .1-.089h-.019l-.13.012v.009a.076.076 0 0 1 .006.042.075.075 0 0 0 .01.044H11c.007 0 .011-.011.018-.016v.071c-.016.016-.034.031-.048.048h.028c0 .007-.023.036-.067.058a2.5 2.5 0 0 1-.333.086c-.086.019-.116.024-.119.046a.16.16 0 0 0 .02.064c.012.031.036.1.055.16.032.1.061.182.117.33.027.072.049.094.057.057l.013-.064a1.7 1.7 0 0 1 .095-.3.4.4 0 0 0 .01-.047c.01-.046.047-.068.131-.076a1.7 1.7 0 0 0 .188-.027c.007 0 .025-.02.041-.04a.889.889 0 0 1 1.062-.349 1.012 1.012 0 0 0-1.034.368.1.1 0 0 1-.1.047c-.176.016-.231.029-.231.054a.9.9 0 0 1-.031.093 3.1 3.1 0 0 0-.1.337c-.007.042-.018.056-.046.056a.035.035 0 0 1-.033-.013.37.37 0 0 1-.047-.106c-.02-.052-.042-.106-.048-.12a.34.34 0 0 1-.02-.053.9.9 0 0 0-.038-.108c-.016-.045-.046-.128-.064-.184a.45.45 0 0 0-.038-.1c-.011-.01-.018.021-.028.094-.014.092-.015.1-.024.1l-.008-.006-.006-.013-.005-.017v-.1l.005.02v-.011c0-.046.017-.076.045-.081a.06.06 0 0 0 .023-.013.037.037 0 0 1 .023-.01 1 1 0 0 0 .268-.059.53.53 0 0 1 .118-.035c.092-.019.1-.022.1-.034v-.006c-.007-.012-.037-.014-.1 0-.132.017-.145.02-.163.038a.064.064 0 0 1-.076.014.115.115 0 0 0-.058-.009.1.1 0 0 1-.042 0h-.01v-.061c0-.043 0-.063.006-.059h.008a.09.09 0 0 0-.01-.035c-.009-.016-.011-.023-.008-.033a.2.2 0 0 0 .041-.008h.055a.6.6 0 0 0 .071-.009.055.055 0 0 0 .035.01.037.037 0 0 1 .025.007.12.12 0 0 0 .034.006c.017 0 .029 0 .037.011l.008.013.006.009c.019.021.043 0 .071-.05a.14.14 0 0 0 .013-.033l-.219.021h.024c.047-.007.1-.012.143-.016h.053-.009a.98.98 0 0 0-.222.029h-.078l.022-.021c.343-.1 2.049-.564 2.24-.581a.184.184 0 0 0 .113-.047 3.95 3.95 0 0 0-.8.06c-.278.04-.418.06-.517.081a4.2 4.2 0 0 0-.621.187 2.27 2.27 0 0 0-.5.3c-.039.03-.062.052-.057.062s.008 0 .015 0v.189l-.038.029c-.025.017-.038.031-.035.035s-.052.034-.063.065a1.6 1.6 0 0 0-.026.384.137.137 0 0 0 .055.057.63.63 0 0 1-.006.107l.008.008v-.01c0-.015.009-.022.013-.015v.016s-.006 0-.008.009l.033.029.009.006a.06.06 0 0 1 0 .033.07.07 0 0 0 0 .035.4.4 0 0 1 .007.06.45.45 0 0 0 .009.077.076.076 0 0 1-.025.089c-.025.017-.037.023-.044.016s-.008-.023-.008-.058a.11.11 0 0 0-.005-.044h-.006l-.032-.005-.006.031c-.044.194-.042.273.008.3a1.094 1.094 0 0 0 .515.115c.132.006.143.009.143.03a.065.065 0 0 0 .065.067h.016a1.2 1.2 0 0 0 .165-.027c.022 0 .021 0 .05.043a.878.878 0 0 0 .611.338h-.565V22h.981v-.1h-.037c-.028 0-.045.013-.076.016a1.36 1.36 0 0 0 .691-.278l.052-.041h.248l.065-.035a.48.48 0 0 0 .116-.084l.053-.05h1.223l2.5-.01h1.278v.034c0 .023.018.025.028.036a.053.053 0 0 1-.022-.05c0-.035 0-.042.009-.044s.011-.007.018 0 .01.015.013.04v.011a.06.06 0 0 0 .009.027s.006 0 .006-.015 0-.013.006-.013h.02v.011a.02.02 0 0 0 0 .015.04.04 0 0 0 .015.014h.007l.015.014a.59.59 0 0 0 .2.114.22.22 0 0 1 .064.042 1.15 1.15 0 0 0 .442.246h-.383v.1h.982v-.066h-.095a.7.7 0 0 0 .088-.013 1.056 1.056 0 0 0 .654-.7c.007-.045.017-.047.046-.006s.047.054.142.037.185-.031.291-.042c.192-.021.217-.039.28-.194.019-.049.092-.237.114-.3.064-.096.05-.127-.062-.16m-1.531-2.245a1.63 1.63 0 0 0-.253.111.25.25 0 0 0-.045.025h-.008a.24.24 0 0 1 .044-.025 1.54 1.54 0 0 1 .253-.11.12.12 0 0 0 .03-.016c.025-.012.055-.027.069-.032-.008.006-.017.009-.024.015a.13.13 0 0 1-.067.032zm.452.487c.021.019.051.043.076.062a1 1 0 0 1-.077-.06Zm-9.872 1.749.006-.009-.007-.006c-.009-.01-.01-.025-.014-.1 0-.03.008-.044.022-.035h.01c0-.008.009-.01.012 0a.21.21 0 0 1 .009.079c-.01.084-.015.095-.039.071zm.521.735.011-.009c-.107-.01-.126-.015-.08-.02a.62.62 0 0 1 .182 0c-.006.032-.035.037-.114.029zm9.747-2.053a1.57 1.57 0 0 0 .356-.013l-.007-.009a.5.5 0 0 0-.041-.032l.004.003c.016.013.034.028.041.032s.008.007.007.009a1.46 1.46 0 0 1-.355.013h-.01zm-.439.438.014.006a2.1 2.1 0 0 1 .265.155l.016.009a.027.027 0 0 0 .032-.006.03.03 0 0 0 0-.019.02.02 0 0 1 0-.015.12.12 0 0 1 .013-.021.3.3 0 0 0 .018-.027.2.2 0 0 1 .039-.028c.036-.022.05-.032.054-.044v-.021a.04.04 0 0 1 .018-.019.14.14 0 0 0 .037-.037c.01-.014.02-.024.022-.022a.07.07 0 0 0 .034-.023.2.2 0 0 1 .018-.029.2.2 0 0 0 .02-.036.34.34 0 0 0 .018-.044c.009-.028.029-.08.043-.115v-.006a.2.2 0 0 1-.012.043l.011-.007a1.6 1.6 0 0 0-.044.115.34.34 0 0 1-.018.044.3.3 0 0 1-.019.036.17.17 0 0 0-.019.03c-.006.01-.031.027-.035.023s-.012.008-.021.022a.17.17 0 0 1-.038.037.047.047 0 0 0-.018.019v.031c0 .012-.019.022-.055.044-.021.013-.038.025-.038.029a.13.13 0 0 1-.018.027.1.1 0 0 0-.012.021.02.02 0 0 0 0 .015.03.03 0 0 1 0 .019c0 .01-.017.012-.033.006l-.02-.011a1.5 1.5 0 0 0-.1-.065c-.039-.024-.056-.044-.084-.062a1 1 0 0 1-.1-.074zm-1.066-.044c-.007 0-.012 0-.012-.009v-.006a.2.2 0 0 1 .02-.024l.024-.026v.02a.08.08 0 0 1-.007.027h.011l-.021.023zm.01.038a.3.3 0 0 0-.016.046.4.4 0 0 1 .015-.046zm-.035-.394c-.5.021-1.742.093-2.425.14a2.33 2.33 0 0 1-.4.017 2.23 2.23 0 0 0 .391-.017c.684-.047 1.92-.119 2.426-.14zm0 .379c0 .007-.01.017-.012.026v-.019zm-.611.709h.011a.4.4 0 0 0 .038-.059 1.335 1.335 0 0 1 .385-.4.46.46 0 0 0 .135-.118l.018-.023v.01l.006-.008v.043l-.011.015a.51.51 0 0 1-.136.118 1.345 1.345 0 0 0-.388.4c-.023.037-.033.051-.04.051s-.006 0-.008-.008a.011.011 0 0 1 0-.013zm-4.454-1.094c-.022-.012-.033-.019-.033-.025a.1.1 0 0 0 .032.023.37.37 0 0 1 .1.084.76.76 0 0 0 .121.112.76.76 0 0 1-.122-.1v-.007a.325.325 0 0 0-.098-.087m.166.361.118-.01h.015c0 .006-.035.01-.17.018l-.134.011h-.03a1.4 1.4 0 0 1 .201-.019m.133 1.355.873-.036.393-.016c.471-.019.555-.024.567-.03a.037.037 0 0 1 .029 0 1.2 1.2 0 0 0 .188 0l.346-.016.312-.013.327-.013.644-.027a1.5 1.5 0 0 0 .189-.013c.017 0 .014.007.023.009-.014-.008-.04-.007-.125 0-.154.008-.516.024-.755.033-.1 0-.275.011-.391.016l-.457.019-.371.017-.3.013c-.1 0-.243.009-.318.013l-.3.013-.324.013-.394.016-.809.035h-.2l.21-.01c.131 0 .422-.014.643-.023m2.191-1.538.406-.026c.651-.043 1.265-.079 1.673-.1l.266-.013a.094.094 0 0 1-.043.013l-.221.016h-.02l-.256.015a1.8 1.8 0 0 0-.366.014l-.425.029a1.8 1.8 0 0 0-.209.017l-.071.007h-.013l-.155.011-.4.026-.371.026a.32.32 0 0 1-.089.017l-.1.006-.235.015c-.377.023-.656.041-.737.049a.87.87 0 0 1-.161 0s.054-.006.117-.01l.219-.017c.058 0 .148-.013.2-.016l.263-.02.261-.02a1.3 1.3 0 0 0 .149-.013zm-.3-.018v-.02l.007-.023-.006.019-.007.024zm2.355-.015a.14.14 0 0 1-.041.008.83.83 0 0 1-.172.01.022.022 0 0 1 0-.016.023.023 0 0 1 .012-.012h.1a.48.48 0 0 1 .1.007zm-.24-.021c.008.006 0 .015 0 .029a.025.025 0 0 1-.007-.032Zm-2.091.926-.017.015-.017.016-.018-.021-.007-.01-.007-.012v-.147a1.4 1.4 0 0 1 .013-.152v-.076c0-.027 0-.041.007-.04s.007.076.012.164.011.186.015.215l.007.052zm1.913-.765a.06.06 0 0 1-.032 0c-.019-.008-.027-.009-.128-.01a.78.78 0 0 1-.167-.014.34.34 0 0 0-.095-.008 1.4 1.4 0 0 1-.257 0h-.02a.31.31 0 0 1-.113 0h-.022a.17.17 0 0 1-.064-.012c-.01 0-.016-.008-.013-.011s0-.035.01-.035v-.007l.071-.007h.015a.27.27 0 0 0 .114 0 .025.025 0 0 1 .021 0 1.37 1.37 0 0 0 .256 0 .31.31 0 0 1 .1.008.7.7 0 0 0 .166.014c.1 0 .11 0 .129.01a.06.06 0 0 0 .032 0 .26.26 0 0 1 .068 0 .12.12 0 0 0 .054 0 .145.145 0 0 1 .085.006.17.17 0 0 0 .064.01.125.125 0 0 1 .057.01l.016.009.014.009a.6.6 0 0 0 .119.021.3.3 0 0 1 .072.021.115.115 0 0 1 .045.03l.012.009h.016a.08.08 0 0 1 .02.012h.018a.08.08 0 0 1 .02.006l.022.013.017.01c.015.006.03 0 .086-.019s.074-.024.072-.018a.3.3 0 0 1-.064.041.34.34 0 0 0-.045.027c-.027.008-.038.01-.049.006a.11.11 0 0 1-.028.028l-.018-.011-.019-.006H18.8l-.012-.007-.015-.01h-.017a.036.036 0 0 1-.016-.011.115.115 0 0 0-.041-.028.3.3 0 0 0-.071-.021.6.6 0 0 1-.12-.021.04.04 0 0 1-.018-.011l-.011-.007a.13.13 0 0 0-.058-.01.2.2 0 0 1-.064-.01.145.145 0 0 0-.085-.006.12.12 0 0 1-.054 0 .26.26 0 0 0-.068 0zm.563.355c-.02.014-.022.01-.009 0a1.9 1.9 0 0 1 .266-.185.37.37 0 0 0 .064-.041c.037-.016.041-.011.025.017s-.041.033-.123.076l.007-.007a2 2 0 0 0-.229.139Zm-.256.3h.007a.85.85 0 0 1 .082-.126.3.3 0 0 0 .028-.039v-.02l.014-.013a.12.12 0 0 1 .037 0 .1.1 0 0 1 .043 0 .013.013 0 0 1 .011.015.05.05 0 0 1-.012.017.2.2 0 0 0-.035 0c-.028 0-.04 0-.047.012s-.091.125-.128.177h-.007a.06.06 0 0 1 .008-.024Zm.207-.152-.026.025a.02.02 0 0 1-.013-.012v-.007a.024.024 0 0 1 .02-.006v.007zm.746-.474h.011a1.44 1.44 0 0 1 .263 0c.123.013.2.029.2.044a.6.6 0 0 0-.075-.007.35.35 0 0 1-.1-.008 1.83 1.83 0 0 0-.5.051c-.056.016-.067.016-.067 0-.015-.03.117-.063.269-.076zm.128-.325h.009c-.1 0-.2.006-.225 0zm-.229.063a.23.23 0 0 0 .075-.009l.157-.007h.024a.25.25 0 0 1 .066.006.025.025 0 0 1 .008.014c0 .013.014.008.022-.008s.1-.018.123 0-.025.053-.045.053h.011c-.015 0-.033.016-.024.021s0 .057-.018.057-.018 0-.018.006-.006 0-.013 0a.013.013 0 0 0-.016.006c0 .007-.017.01-.057.01-.059 0-.087.007-.073.015a.015.015 0 0 0 .016 0 .11.11 0 0 1 .044 0c.082 0 .112.023.035.023-.031 0-.044 0-.041-.007s0 0-.009 0a.084.084 0 0 1-.043 0 .33.33 0 0 0-.053-.01.048.048 0 0 1-.029-.009.04.04 0 0 0-.025-.01.027.027 0 0 1-.025-.017c0-.012-.012-.015-.036-.015a.077.077 0 0 1-.071-.048.021.021 0 0 0-.014-.01q-.009 0-.009-.018c.001-.025.015-.039.039-.039zm-.05-.063h.009-.026zm-.021-.25h-.153c-.073 0-.212 0-.33.008h.269a1 1 0 0 1 .142.007.3.3 0 0 1 .057.015c.016.008.025.017.025.028s-.007.009-.017.015a.2.2 0 0 1-.064.02.4.4 0 0 0-.059.011.93.93 0 0 1-.165.028l-.048.007c-.02 0-.161.015-.222.018a.11.11 0 0 0-.045.006.56.56 0 0 1-.1.008c-.048 0-.12.006-.159.01a.33.33 0 0 1-.077 0 .13.13 0 0 0-.04 0 1.2 1.2 0 0 1-.146.009.6.6 0 0 0-.136.007c-.013.007-.136.007-.5.013-.105 0-.223.006-.263.008-.142.008-.461.011-.78.007-.147 0-.141 0-.141-.057 0-.028-.015-.043.035-.053.068-.014.259-.021.781-.045l.282-.013h.043l.373-.015h.037c.471-.018.642-.026.592-.027l-.428.011.578-.02h.022c.231-.007.42-.013.505-.014h.128zm-.887-.768.045.035c.433.336.6.471.776.635.03.027.049.044.048.054 0-.01-.019-.027-.048-.053-.179-.164-.344-.3-.776-.635l-.045-.035-.032-.025Zm-2.78-.091h.006c.016 0 .06-.005.113-.011h.022-.018l.05-.006h-.032c.113-.012.244-.022.386-.031h.103c-.1 0-.188.011-.274.018-.138.009-.265.02-.372.032zm-.234.051h.014a.13.13 0 0 1-.034 0c.009 0 .011-.003.02-.003zm-1.714.83c.036-.026.07-.05.155-.106-.077.051-.128.086-.17.118zm-.167.172v-.015c0-.01.022-.015.031-.025a.4.4 0 0 0-.033.04 1.6 1.6 0 0 1 .149-.119h-.016c-.006 0-.013.009-.018.01a1.47 1.47 0 0 1 .287-.23c.021-.012.067-.042.1-.066l.056-.037.033-.021c.033-.021.076-.045.114-.068l.03-.017.064-.037.046-.027.064-.038.053-.029h.007l.046-.024.05-.027c.028-.015.05-.025.093-.046s.072-.034.112-.051c.06-.027.121-.051.182-.075h.005c.052-.019.082-.031.116-.042a1 1 0 0 1 .068-.02c.023-.006.044-.012.072-.018l-.052.015a4.04 4.04 0 0 0-.541.222c-.173.088-.389.211-.542.308l-.031.019-.056.037c-.035.024-.08.054-.1.066s-.015.014-.023.019a.5.5 0 0 1 .08-.051.33.33 0 0 1 .1-.038c.034-.005.044-.007.045-.016v-.023c0-.021.041-.048.229-.152a.7.7 0 0 1 .131-.068.6.6 0 0 1-.083.057.8.8 0 0 0-.082.056c.009 0 .154-.074.361-.183a2.74 2.74 0 0 1 1.3-.341c.176-.01.291-.008.351-.006h.047l-.028.18-.079.736.106-.01.042-.348.021-.175v-.007l.05-.428h.041v.024l-.09.959.12-.006.054-.917c0-.011.05-.009.073-.013h.63c.262 0 .525.007.611.012a1.3 1.3 0 0 1 .152.015.4.4 0 0 1 .045.006.4.4 0 0 1 .043.027 1.5 1.5 0 0 1 .211.173l.288.273.038.019h.1a.28.28 0 0 0 .1-.006 1.86 1.86 0 0 1 .367.3c.006.006.01.011.009.014a1.9 1.9 0 0 1-.356.025c-.386.012-1.324.047-1.548.057l-.371.017c-.128.006-.315.014-.416.02l-.263.013-.135.007a.6.6 0 0 1 .127.012v.015c-.008.041-.026.089-.033.088a1.43 1.43 0 0 0-.32 0c-.088.008-.273.013-.367.01a.05.05 0 0 0-.029.006.19.19 0 0 1-.058 0h-.3a1.7 1.7 0 0 0-.19.008.8.8 0 0 1-.11.007 1.2 1.2 0 0 0-.146.012.15.15 0 0 1-.051 0 .5.5 0 0 0-.077.007.32.32 0 0 1-.173-.011c-.09-.021-.112-.03-.1-.041a.3.3 0 0 1 .048-.006h-.056a.6.6 0 0 1-.157 0 .04.04 0 0 0-.03 0 .27.27 0 0 1-.074.013c-.083.01-.123.024-.125.051s.005.031.031.053c.025.026.038.048.037.058s-.011.011-.036-.008a1 1 0 0 1-.124-.1l-.013-.008a.3.3 0 0 0-.022-.036.93.93 0 0 0-.269 0 .13.13 0 0 1-.048 0h-.006c-.005-.005.004-.023.011-.039zm.116.091a.57.57 0 0 1-.1.027c-.015 0-.012-.02 0-.027s.109-.013.1-.003zm-.118-.009h.01a.045.045 0 0 0-.02.027.15.15 0 0 1 .01-.03zm-.382.018a.46.46 0 0 1 .116-.016l.17-.006a.1.1 0 0 1 .043 0c.007.013-.026.05-.054.059l-.041.014a.66.66 0 0 1-.132.026c-.034 0-.049.01-.049.017s0 .009-.039.011a.107.107 0 0 0-.054.019.44.44 0 0 1-.11.051.2.2 0 0 0-.042.022l-.041.025c-.012.006-.044.024-.07.04a.3.3 0 0 1-.058.03.18.18 0 0 0-.042.026.114.114 0 0 1-.042.026.114.114 0 0 0-.039.03c-.024.025-.03.029-.045.025-.04-.01-.038-.014.034-.062.034-.023.079-.055.1-.071l.137-.1.16-.113a.4.4 0 0 1 .098-.056zm.259 1.176v.046a.16.16 0 0 1-.011-.037zm-.019-.763a.1.1 0 0 1-.01.029.059.059 0 0 1-.043.031.65.65 0 0 0-.152.064.05.05 0 0 1-.026.01.075.075 0 0 0-.038.021l-.037.032a.1.1 0 0 0-.018.02.09.09 0 0 1-.023.02.06.06 0 0 0-.016.016v.008c-.005.008-.019.007-.041 0h-.006l-.015-.018c-.034-.033-.049-.051-.047-.053h.007a.11.11 0 0 1 .026.015.2.2 0 0 0 .047.028c.021.009.036.01.041 0v-.008a.12.12 0 0 1 .016-.016.074.074 0 0 0 .024-.026.1.1 0 0 1 .018-.02l.037-.032a.084.084 0 0 1 .038-.021.04.04 0 0 0 .025-.01.7.7 0 0 1 .153-.064.057.057 0 0 0 .04-.033zm-1.246-.214h.006a.14.14 0 0 0 .044-.016c.01 0 .078-.024.151-.043a1.8 1.8 0 0 0 .287-.091l.018-.007a1.02 1.02 0 0 1 .205-.036c.043 0 .088-.006.133-.007h.056l-.016.015c-.009.008-.06.044-.114.079-.082.054-.23.156-.37.258l-.03.022-.084-.017a2.4 2.4 0 0 0-.27-.038c-.081-.007-.091-.01-.091-.025a.032.032 0 0 0-.013-.022c-.026-.025.008-.051.088-.075zm-1.043.548v-.007c.013-.016.03-.03.045-.045a.5.5 0 0 0 .05-.036c.039-.033.1-.08.136-.105.012-.008.023-.017.034-.026a.4.4 0 0 1 .061-.012.04.04 0 0 1 .022 0 .08.08 0 0 1-.016.015.34.34 0 0 1-.048.037c-.035.025-.1.072-.136.1-.077.063-.1.073-.134.074zm.919.038h.007c.012 0 .067.007.123.011a.9.9 0 0 1 .353.091c.048.021.059.02.062.015.014.015 0 .019-.063-.01a.9.9 0 0 0-.353-.091.8.8 0 0 1-.123-.011h-.022zm-.058.788a.1.1 0 0 0 .031.028.07.07 0 0 1 .018.016v.023l-.005-.008c0 .007-.01.012-.015.007v-.016h.005a.15.15 0 0 0-.02-.029l-.1-.107a.9.9 0 0 1-.078-.088c-.013-.017-.028-.033-.043-.049 0 0-.006-.01-.021-.018s-.01-.012-.016-.017c-.02-.022-.041-.047-.061-.072a.5.5 0 0 0-.055-.061c-.006 0-.01 0-.011.006l.006.008a.024.024 0 0 1 .006.023.46.46 0 0 1 .05.058.3.3 0 0 0 .029.03c.007.011.024.028.021.034h-.018v-.005a.22.22 0 0 1-.079.013.36.36 0 0 0-.093.013v.006h.028a.26.26 0 0 0-.04.006.3.3 0 0 1 .052-.007.7.7 0 0 0 .094 0 .7.7 0 0 0 .09-.012l.005.005s0 .007-.013.012-.017.011 0 .007.042.012.122.1l.033.036h.007c.005.005.005.012.009.018l.043.046v.01c.006 0 .009-.006.015 0v.008h-.008v.009c0 .007.005.016-.007.019a.3.3 0 0 0-.04.013.7.7 0 0 1-.1.029c-.006 0-.007-.019-.007-.043 0 .031 0 .059.007.059a.7.7 0 0 0 .1-.037.3.3 0 0 1 .04-.013c.014 0 .009-.013.009-.023 0 .008.013.017.012.025a.035.035 0 0 1-.005.018c-.006.011-.033.021-.15.056l-.1.029c-.051.016-.069.015-.08 0l.006.008a.016.016 0 0 1-.01.008l-.043.016a.7.7 0 0 1-.14.043l.011-.014v-.008c0-.007.02-.015.071-.03s.065-.022.071-.033-.017-.033-.061-.065l-.066-.05a.18.18 0 0 0-.042-.025h-.008a.46.46 0 0 0 .079.073c.053.041.076.057.076.069s-.024.018-.073.033a.3.3 0 0 0-.041.018c.022-.011.012-.028.049-.038s.045-.012.037-.023a.18.18 0 0 0-.034-.028l-.074-.058a.6.6 0 0 0-.049-.036l-.011-.01v-.03c0 .02.024.013.028-.009v-.006c-.013.014-.02.018-.016-.008l.011-.009.007-.047a.28.28 0 0 1 .019-.055.06.06 0 0 1 .012-.02c0-.015 0-.023-.009-.017a.33.33 0 0 0-.05.151.2.2 0 0 1 .012-.12c.025-.055.037-.059.208-.073.051 0 .057 0 .029-.039l-.015-.017-.015-.018a.34.34 0 0 1-.03-.044.1.1 0 0 0-.012-.022c-.01-.007-.008-.031 0-.044s.034-.016.121.088c.147.177.2.239.221.239a.05.05 0 0 1 .04.015.019.019 0 0 1 0 .018.07.07 0 0 0 .024.049zm-.5.25-.008.007c-.018.013-.045.011-.041 0v-.007a.042.042 0 0 1 .027 0zm-.064-.215a.05.05 0 0 1 0 .018c0 .01 0 .019-.006.019a.032.032 0 0 1 0-.033zm.182-.529a.71.71 0 0 0-.156.2.7.7 0 0 1 .165-.217.05.05 0 0 0 .017-.025c.002.005.002.019-.027.039zm-.22.268a.6.6 0 0 1-.016.058.18.18 0 0 1-.036.067c-.024.029-.028.05-.012.066l.009.008h.006v.037a.13.13 0 0 0 0 .055v.026h-.006a.116.116 0 0 1 0-.064v-.037h-.006l-.009-.008c-.016-.016-.012-.037.012-.066a.18.18 0 0 0 .036-.067.18.18 0 0 1 .016-.058.14.14 0 0 0 .006-.041.109.109 0 0 1 .041-.084c.014-.007.016-.012.016-.037a.063.063 0 0 1 .006-.033.1.1 0 0 0 .011-.025.31.31 0 0 1 .077-.121.32.32 0 0 0-.066.1.033.033 0 0 1-.011.025.063.063 0 0 0-.006.033c0 .025 0 .03-.016.037a.114.114 0 0 0-.041.084.14.14 0 0 1-.011.042zm1.438.448a.06.06 0 0 0-.022.036.2.2 0 0 1-.015.048c-.015.033-.015.034 0 .048s0 .013 0 .018a.14.14 0 0 0-.021-.013h-.01l-.037-.013-.165-.058.007.007a.64.64 0 0 0 .111.041c.094.029.117.039.109.053v.006h.011c-.007.028-.041.047-.1.025s-.093-.032-.093-.013a.55.55 0 0 0 .035.132c.005.01-.016.019-.015.029a.6.6 0 0 0-.022-.086.4.4 0 0 1-.027-.108c0-.02.026-.009.084.012a.22.22 0 0 0 .075.02.03.03 0 0 1 .023 0 .022.022 0 0 0 .021-.008c.007-.008-.011.008-.016 0a.048.048 0 0 0-.031-.008.3.3 0 0 1-.078-.02c-.058-.02-.08-.024-.089-.012v.006s0 .007-.006.006l-.006-.016c.009-.011.03-.008.088.012a.3.3 0 0 0 .078.02.048.048 0 0 1 .031.008h.016v-.006c.007-.014-.016-.024-.11-.053a.6.6 0 0 1-.082-.031.75.75 0 0 0-.093-.037l-.122-.046a.3.3 0 0 0-.039-.014c-.008 0 0 0 0 .007a.2.2 0 0 1-.036-.009.059.059 0 0 0-.053 0 .09.09 0 0 0-.013.053c0 .036 0 .073.005.109v-.109c0-.012.015 0 .017 0s.025-.018.046-.012.007-.016.027-.007.083.035.123.05c.075.028.1.04.1.058a.7.7 0 0 0 .025.089c.011.036.022.077.03.1a.12.12 0 0 1 .011.026v.009c0 .008.01.019.015.019a.138.138 0 0 1-.074.146c-.051.036-.066.032-.19-.049-.027-.018-.044-.027-.053-.032.014 0 .019-.012.063.018a.143.143 0 0 0 .067.032l-.038-.021c-.026-.018-.042-.031-.035-.029l.019.01a.1.1 0 0 0 .024.02l.033.02.019.011v-.023l.01.005-.006-.005h-.006c0-.009-.009-.017-.036-.033l-.1-.062a.33.33 0 0 0-.067-.035c-.012 0-.019 0-.023-.023v.034c0 .028.008.1.01.155 0 .105.009.12.031.112a.012.012 0 0 0 .008-.013v-.008a.02.02 0 0 1 0-.015l.007-.008a.013.013 0 0 0 .007-.01v-.015h.052s-.007.013-.037.027-.052.045-.04.058a.82.82 0 0 0 .159-.046c.039-.016.058-.019.059-.013s-.023.026-.076.053a.64.64 0 0 1-.33.03h-.06c-.019 0-.038-.01-.057-.015s-.049 0-.074 0l.011-.009h.035a.7.7 0 0 1-.063-.017.7.7 0 0 1-.144-.074.5.5 0 0 1-.054-.034c-.027-.022-.061-.05-.089-.078a.24.24 0 0 0-.052-.044l.013.021.033.037c-.016-.017-.042-.019-.056-.037a.665.665 0 0 1-.125-.249c-.01-.041 0-.046.014-.028a.26.26 0 0 1 .029.058.057.057 0 0 0 .013.027c.007.009.014.006.025-.006s.012 0 .018-.009c0-.009.022-.02.09-.047l.145-.062c.014-.011.017-.019-.009-.02s-.02 0-.025-.036v-.034c-.06.017-.119.037-.176.059s-.091.029-.1.011v-.01s.018-.008.018-.013 0 .018.008.02a.16.16 0 0 0 .052-.014c.115-.045.222-.084.289-.105l.139-.044.086-.027c.016 0 .019-.008.024-.015-.008.015-.027.025-.1.049l-.13.042h-.01c-.01 0-.011.01 0 .014s.011.021 0 .056-.013.036.016.028h.02l.16-.071c.01-.007.011-.011.007-.018l-.006-.007c-.015-.016-.013-.033 0-.04s.02 0 .028.013a.03.03 0 0 1 .008.016h.016a.15.15 0 0 1 .032 0h.007l.007.006h-.005a.13.13 0 0 1 .008.033v.018a.106.106 0 0 0 .006.05H12c.012 0 .014 0 .01-.009-.012-.029-.008-.045.014-.047s.025-.008.014-.028.032-.036.082-.023c.033.009.056.007.051 0a.05.05 0 0 0-.016-.009.04.04 0 0 1-.02-.013c-.007-.01-.009-.021 0-.028s.008-.01.006-.014-.008-.007-.017-.01a.05.05 0 0 1-.022-.018v-.009l-.009-.014a.035.035 0 0 0-.013-.008.035.035 0 0 1-.025-.014c-.006-.009 0-.017.028-.017s.026 0 .026-.009v-.006h-.018a.038.038 0 0 1-.009-.034c0-.011.03-.01.039 0s.019.012.027-.007.006-.016 0-.022v.007l-.007-.006c-.011-.012 0-.018.017-.008s.024.006.071-.065c.013-.02.046-.068.074-.108.1-.137.137-.206.129-.227l-.005-.007c-.019-.021-.07-.05-.08-.042a2.8 2.8 0 0 0-.2.336c-.086.181-.111.214-.147.192l-.022-.013-.012.015c-.009.011-.021.012-.028 0a.03.03 0 0 1-.009-.022c0-.014 0-.018.014-.021s.02-.007 0-.029l-.024-.028-.016-.018a.14.14 0 0 1-.023-.032.53.53 0 0 0-.05-.074c-.027-.037-.065-.09-.083-.119a2 2 0 0 0-.078-.11c-.045-.06-.053-.083-.031-.095s.019 0 .029 0 0-.006.007-.006a.023.023 0 0 1 .016.006.05.05 0 0 0 .021.01c.014 0 .025.015.049.051a.17.17 0 0 0 .046.057c.012-.042.023-.077.032-.106a1 1 0 0 1 .024-.069.1.1 0 0 1 .017-.027.77.77 0 0 0-.272.058c-.035.022-.057.026-.059.016s0-.017.019-.033.007-.009.006-.011a.048.048 0 0 0-.036.014c-.008.007-.007.01-.011.016 0-.007 0-.019.023-.032s.031-.016.036-.014 0 0-.006.011-.021.028-.019.033.024.006.059-.016a.77.77 0 0 1 .272-.058.04.04 0 0 1 .015-.022.46.46 0 0 1 .117-.006c.036 0 .069-.028.106-.022a.83.83 0 0 1 .282.1.4.4 0 0 0 .047.033 1 1 0 0 1 .07.073c-.021-.021-.039-.046-.062-.065a.4.4 0 0 1-.047-.033.86.86 0 0 0-.282-.1c-.037-.006-.07.022-.106.022h.063a.5.5 0 0 0 .063.013.8.8 0 0 1 .08.029.7.7 0 0 1 .1.035s.007-.007.011 0h-.006.008v.008a.38.38 0 0 1-.052.089c-.029.045-.061.1-.07.116a.27.27 0 0 1-.029.051c0 .007.015-.009.035-.048.009-.019.041-.071.07-.116a.38.38 0 0 0 .052-.089v-.009a.2.2 0 0 0 .019.007.055.055 0 0 0 .025.02.75.75 0 0 1 .116.077v.012l-.006.01-.007.012a.054.054 0 0 0-.011.026.26.26 0 0 1-.041.071.27.27 0 0 0-.038.06c0 .007.027.008.037.011h.1c.064 0 .091 0 .1.019a.2.2 0 0 1 .021.045c.026.068 0 .082-.006.115v.041a.4.4 0 0 0-.052.04l-.09.076a.14.14 0 0 0-.017.018h-.005a.05.05 0 0 0-.011.014.1.1 0 0 0-.015.015c0 .008-.024 0-.034 0h-.014c-.014 0-.017.009-.039 0a1.1 1.1 0 0 0-.123-.03c-.05-.011-.043-.022-.061-.031s-.032-.01-.034-.017-.017 0-.016-.008a.26.26 0 0 1 .044-.085.56.56 0 0 0 .045-.079s-.008 0-.025.029a.49.49 0 0 0-.09.152.032.032 0 0 0 .019.03 3.4 3.4 0 0 0 .372.091.57.57 0 0 1 .1.027.09.09 0 0 0 .051 0s.007 0 .019-.011.019-.007.024 0a.1.1 0 0 1 0 .019c.006.004.012.012.006.021zm-.253.22v.02l-.009-.016a.13.13 0 0 1-.012-.039l-.005-.023h.005l.008.019a.3.3 0 0 1 .013.036zm-.148-.192c.037.014.075.029.113.04h-.007zm.1.059a.6.6 0 0 0-.066-.031l-.021-.008-.019-.008-.047-.02h-.012l-.036-.017c-.01-.007-.008-.01 0-.008l.024.011h.012l.047.02.04.016c.06.019.074.03.082.042zm-.287.266a.03.03 0 0 1 .037 0v.013-.008c-.004-.015-.022-.013-.033-.008zm.012.125-.012-.06a.22.22 0 0 1-.007-.067.21.21 0 0 0 .007.066zm0-.059c0-.007.018.009.022.006a.22.22 0 0 0 0 .067.6.6 0 0 1-.022-.072zm.016-.046h-.01l.011-.005zm-.133-.487c-.03 0-.032-.008-.03-.016.009-.011.006-.027.022-.027a.07.07 0 0 0 .029 0 .014.014 0 0 1 .015 0h.011v.018a.03.03 0 0 1 0 .016.046.046 0 0 1-.038.026.071.071 0 0 1-.074-.006c-.006.006.013 0 .017-.007l.022-.012c0 .007.009.011.032.014s.009-.007.016-.009-.011 0-.017 0zm.075.024v-.009c0-.013 0-.021.014-.021v.015c.007.016-.004.016-.009.016Zm.406-.774a.21.21 0 0 0 .061.044.19.19 0 0 1-.056-.047zm-.055.306c-.022.029-.034.045-.031.053a.012.012 0 0 1-.009-.013v-.007h.009a.16.16 0 0 0 .036-.036zm.158.47c-.046-.01-.082-.018-.081-.032s.025-.035.078-.081a.26.26 0 0 0 .062-.066c-.007.009.009.033 0 .039a.53.53 0 0 0-.115.107.42.42 0 0 0 .089.04c.013 0 .018 0 .024-.019s.011-.023.015-.016a.06.06 0 0 1 .007.023.13.13 0 0 0 .019.047v-.005a.028.028 0 0 1-.021-.012c.001-.009-.026-.018-.072-.026Zm.055.024h-.008l-.012-.005Zm-.14-.049h-.007a.03.03 0 0 1 0-.023v-.005h.007v.009a.028.028 0 0 0 0 .022zm-.046.037A.42.42 0 0 1 12.39 21a1.35 1.35 0 0 1-.179-.05.3.3 0 0 1 .053.007c.1.024.187.044.209.047s.012.001.011.006zm-.319-.078h-.009a.015.015 0 0 1-.01-.014h.009a.05.05 0 0 1 .015.011zm.572-.285-.017-.017a.16.16 0 0 1-.015-.033.08.08 0 0 1-.018-.028.5.5 0 0 0-.066-.1c-.017-.022-.04-.039-.059-.06v-.006c.017.019.037.035.053.055a.5.5 0 0 1 .066.1.13.13 0 0 0 .018.028.2.2 0 0 0 .024.028l.017.017c.013.014.018.034.03.088a.22.22 0 0 0-.028-.075zm-.115-.334v.005c-.01 0-.031-.022-.031-.028.014.007.027.019.036.02zm.017.014h.01a.014.014 0 0 1 .009.013c.005.007 0 .007-.009 0s-.005-.013-.005-.016zm.128.411a.5.5 0 0 0 .033.105.46.46 0 0 1-.03-.1zm.061.46c-.015 0-.01 0-.016-.013a.227.227 0 0 1-.035-.111.23.23 0 0 0 .032.1c.006.008.011.013.016.013a.36.36 0 0 0 .043-.118h.006c.012.018-.026.128-.041.128Zm.073-.286c-.006.061-.016.087-.027.076a.046.046 0 0 1-.011-.022c0-.009-.006-.018-.01-.027s-.011-.006-.02 0-.012.011-.015.006v-.007c-.014-.015-.021.05-.008.093-.016-.038-.008-.112.007-.1v.007a.03.03 0 0 0 .015-.006c.009-.006.014-.009.02 0s.007.018.01.027a.06.06 0 0 0 .011.022c.011.011.021-.015.027-.076a.2.2 0 0 0 0-.055.2.2 0 0 1 .005.059zm-.312-.862a1.066 1.066 0 0 1 .45.614 1.082 1.082 0 0 0-.445-.617zm.456.3a1.3 1.3 0 0 1-.107-.119 1.27 1.27 0 0 0-.347-.272c-.024-.014-.043-.04-.067-.052l-.013-.011h-.025a1.247 1.247 0 0 0-1.128.094l-.064.012a1.4 1.4 0 0 0-.124.07.05.05 0 0 1-.019.01v-.005l.011-.019a.93.93 0 0 1 .257-.236.95.95 0 0 0-.24.22l-.011.019a.06.06 0 0 0 .017-.009c.04-.025.082-.049.124-.07l.05-.027a1.254 1.254 0 0 1 1.122-.1 1.42 1.42 0 0 0-.765-.1c-.19.027-.212.023-.119-.024a1.25 1.25 0 0 1 .348-.1 1.53 1.53 0 0 1 .331.012 1.05 1.05 0 0 1 .148.032.4.4 0 0 0 .058.017 1.31 1.31 0 0 1 .355.228.26.26 0 0 0 .034.039 1.3 1.3 0 0 1 .148.18c-.01-.006-.01 0-.031-.017a1.2 1.2 0 0 0-.166-.117c-.018-.009-.07-.039-.115-.065a1.5 1.5 0 0 0-.173-.067c.024.012.043.038.067.052a1.24 1.24 0 0 1 .347.271c.038.044.086.1.107.119l.1.1c.015.017.02.021.029.03l.007.014a.11.11 0 0 1 .007.041l-.026-.024c-.009-.01-.012-.01-.03-.029a1.3 1.3 0 0 0-.092-.097Zm.06.647a.28.28 0 0 1-.014-.094c0-.025-.008-.05-.012-.075 0 .028.018.053.019.082a.2.2 0 0 0 .007.077Zm.145.32.015-.009c-.123.006-.158 0-.158-.011s.009-.015.082-.017a.27.27 0 0 0 .07 0c.01-.011.124 0 .124.014s-.014.021-.13.026zm.149-.3a.13.13 0 0 0-.048 0 .86.86 0 0 1-.134.007c-.071 0-.1 0-.111-.016h.11c.1 0 .124 0 .129-.034s0-.051 0-.076c-.009-.1-.014-.28-.011-.311a1.9 1.9 0 0 1 .017.2c.012.2.019.228.055.23zm-.012-1.356a.016.016 0 0 1-.008-.01v-.184c0-.015.007-.031.011-.046s.006-.01.007 0a.12.12 0 0 1 0 .027v.175a.016.016 0 0 0 .008.01.11.11 0 0 0 .054-.01c.141-.039.168-.05.194-.078a.1.1 0 0 1 .025-.02c.025 0 .111-.085.15-.139-.026.049-.137.159-.165.159a.09.09 0 0 0-.026.02c-.026.028-.053.039-.193.078a.12.12 0 0 1-.054.016zm4.55 1.711.011-.009h-.021c.213 0 .388-.007.391-.009a.027.027 0 0 1 .03 0 2.6 2.6 0 0 1-.408.016zm.466 0 .011-.008h.006zm0-.013.011-.008h.006zm.069-.408a.97.97 0 0 0-.014.2l.011-.008c0 .126.014.116-.135.116-.19 0-.288-.011-.206-.023.056-.009.051-.016-.012-.016s-.09 0-.085.019-.026.022-.064.027a.12.12 0 0 1-.033.006h-.627c-.917.012-1.715.021-3.445.037a2.34 2.34 0 0 1-.443 0c-.018-.022 0-.023.542-.027l.784-.007.647-.007c.219 0 .43 0 .47-.007s.322-.006.626-.009l.714-.01.429-.007c.3 0 .329-.007.332-.026a.2.2 0 0 1 .079-.09 2.1 2.1 0 0 0 .16-.155l.1-.1.01-.011a.1.1 0 0 1 .022-.018.43.43 0 0 1 .138.008c.009.006.01.028.003.105zm.65-.39-.019-.022-.043-.034c-.029-.036-.04-.054-.04-.064s.036-.056.047-.056a.08.08 0 0 0 .029-.023.35.35 0 0 1 .054-.046l.039-.029a.8.8 0 0 0-.132.066 1.6 1.6 0 0 0-.145.162c0 .015-.023.029-.03.018s-.046.014-.046.046a.08.08 0 0 1-.019.034.47.47 0 0 0-.066.2.1.1 0 0 1-.021.039.138.138 0 0 0-.023.135l.01.016c.011.01.022 0 .038-.024s.022-.027.026-.02a.157.157 0 0 1-.019.1c-.023.054-.048.072-.059.051a.063.063 0 0 1-.007-.036.05.05 0 0 0 0-.017.09.09 0 0 1-.007-.03V21a.2.2 0 0 1-.014-.076.94.94 0 0 1 .057-.349 1.14 1.14 0 0 1 .083-.163.23.23 0 0 0 .021-.038 1.2 1.2 0 0 1 .207-.212.5.5 0 0 0 .048-.032 1.06 1.06 0 0 1 .17-.08.2.2 0 0 0 .039-.014.7.7 0 0 1 .209-.04.8.8 0 0 1 .138 0h.094l.027.006.033.009h.016c.043.013.064.05.1.068a.8.8 0 0 0-.134-.051l-.063-.016a1.55 1.55 0 0 0-.226-.01l-.067.01a.4.4 0 0 0-.123.029.1.1 0 0 1-.034.012.94.94 0 0 0-.169.082.1.1 0 0 1-.025.016.93.93 0 0 0-.158.142.07.07 0 0 1-.019.023.25.25 0 0 0-.048.068.25.25 0 0 1-.024.038.08.08 0 0 0-.015.036c0 .009 0 .015.008.012a.6.6 0 0 0 .052-.059.5.5 0 0 1 .079-.081c.019-.014.062-.05.094-.08a.25.25 0 0 1 .081-.059.12.12 0 0 0 .04-.016.9.9 0 0 1 .123-.052c-.023.009-.049 0-.071.015-.06.027-.1.035-.1.022a.16.16 0 0 1 .069-.047.027.027 0 0 0 .02-.009.167.167 0 0 1 .08-.036.025.025 0 0 0 .018-.006.34.34 0 0 1 .137-.033l.076-.01a1.05 1.05 0 0 1 .177.009.4.4 0 0 1 .047.009l.009.016h-.133a.7.7 0 0 0-.077.017.6.6 0 0 1 .059 0 .513.513 0 0 1 .308.07c.03.029.032.029.049.016a.06.06 0 0 1 .035-.01c.009 0 .01 0 .01-.007a.85.85 0 0 1 .238.155l.006.009.026.036.042.066c.016.023.015.031 0 .031s-.02.011-.006.03.013.048.007.048a.04.04 0 0 1-.028-.019l-.008-.014c-.005-.009-.011-.018-.017-.027a.023.023 0 0 1-.009-.031l.009-.009a.023.023 0 0 0 .012-.015.03.03 0 0 0-.007-.015c-.012-.012-.013-.012-.013 0s-.023.023-.054-.009c-.055-.059-.054-.058-.082-.058s-.034-.006-.064-.028l-.066-.046a.45.45 0 0 1-.056-.041.11.11 0 0 0-.045-.022.16.16 0 0 1-.049-.01 1.1 1.1 0 0 0-.162-.008.1.1 0 0 1 .013.009l.014.029a.7.7 0 0 0 .029.078.46.46 0 0 0 .04.107c.013.015.025-.006.053-.054.066-.113.071-.117.115-.089a.05.05 0 0 1 .014.012c.015.018 0 .047-.078.165l-.105.164.053-.086c.019-.035.055-.092.079-.126a.22.22 0 0 0 .043-.074.019.019 0 0 0-.011-.016c-.018-.01-.019-.009-.027.012s-.009.018-.015.016-.024.015-.065.086-.051.082-.117-.107a.14.14 0 0 0-.022-.045h-.004a.36.36 0 0 0 .033.1l.042.114a.076.076 0 0 0 .02.036.018.018 0 0 1 .007.017.76.76 0 0 1-.089.163l-.076.124h-.028c-.035 0-.031.009-.119-.142-.057-.1-.072-.128-.069-.148v-.015c.006-.01.022-.059.067-.2.009-.028.012-.046.009-.049s-.016.021-.026.042a.1.1 0 0 0-.011.03.72.72 0 0 1-.047.135c-.012.01-.018 0-.06-.062a.38.38 0 0 0-.058-.074c-.011-.008-.019-.018-.019-.023s-.027-.013-.037 0l-.007.011c0 .014.011.034.045.079.052.069.088.127.225.332a.7.7 0 0 0 .09.121s-.01.009-.014 0-.066-.1-.135-.2c-.1-.147-.171-.257-.209-.3-.013-.015-.022-.023-.025-.023a.11.11 0 0 0-.031.019.4.4 0 0 1-.036.024c-.025.008 0 .059.09.168l.041.05.042.051c.023.029.044.055.054.069l.043.055.012.015.022.027.017.022.008.009c.006.007.009 0 .022 0s.019-.011.028 0 0 .029-.017.032-.012 0 0 .027a.036.036 0 0 1-.006.054s0-.008-.007-.008a2.4 2.4 0 0 0-.22-.294 3 3 0 0 1-.117-.149c-.05-.069-.06-.076-.081-.053l-.008.012.01.011a.15.15 0 0 1 .018.026.37.37 0 0 0 .055.074c.032.037.05.057.047.069s-.036.016-.12.018c-.067 0-.1.006-.107.014v.008a2 2 0 0 0 .257-.014c.016-.008.036.013.136.136s.1.136.081.149l.014-.007a.034.034 0 0 1 .014-.009s.008 0 .01.012l-.019.01c-.016.007-.06.02-.092.03s-.054 0-.092.016l.072-.024a.4.4 0 0 0 .054-.019l-.066.02-.146.04c-.054.018-.071.021-.073.015s-.033-.026-.048-.04c.007.007.016.015.016.02s-.032.022-.1.04a.11.11 0 0 0-.036.018c.021-.012 0-.027.04-.038s.069-.018.055-.035a.4.4 0 0 0-.06-.049.6.6 0 0 1-.1-.082c-.029-.035-.019-.063.006-.146s.024-.08.058-.085a1.04 1.04 0 0 1 .168-.017c.053.004.06.004.023-.041zm-.022-.377a.4.4 0 0 1-.067.052c-.014 0 0-.018.016-.034a.09.09 0 0 1 .044-.024c0 .006 0 .007-.006.014zm-.081.062L19 20.26v.006c-.007.005-.011.006-.013 0s0-.007 0-.018l.009-.006H19Zm1.322.294.006.01c.006.009.006.018 0 .023s-.016-.006-.024-.015a.03.03 0 0 1-.009-.018c.003-.016.015-.016.03-.003zm-.554-.067a.013.013 0 0 1-.011 0v-.011h.011c.004 0 .003.006.003.008zm-.153.316c.008-.013.015-.026.024-.038s.038-.056.059-.088l-.007.011a2 2 0 0 1-.073.112zm.039.044a.015.015 0 0 1-.014.016.015.015 0 0 1-.011 0 .015.015 0 0 1 0-.022h.019zm-.022.817c0 .045.009.064.019.067h-.036s-.006-.007-.01-.007h-.089v-.18a.107.107 0 0 0 .056.008h.052a.4.4 0 0 0 0 .041v.009a.2.2 0 0 0 .011.059zm.006-.435v-.007l.007.045a.5.5 0 0 1 0 .053c.003-.033-.002-.069-.004-.094zm-.116.31v-.061a.13.13 0 0 0 0 .032c.006.017.015.008.03.008h.02s0 .009-.027.011-.025.007-.026.011zm.049-.538a.08.08 0 0 0-.031 0 .021.021 0 0 1-.026-.009.034.034 0 0 1-.01-.044h.013a.18.18 0 0 1 .1-.01l.008.005a.035.035 0 0 1 0 .037c-.016.022-.034.031-.057.022Zm-.062-.105a.02.02 0 0 1 .015 0h.013l-.006.009-.012.006h-.006zm.066-.073h.011v.007zm-.2-.327a.01.01 0 0 1-.008.01v.048l-.015-.019c-.013-.014-.018-.024-.015-.028h.016v-.019h.01a.011.011 0 0 1 .012.009zm-.061-.092H19.3c0 .014-.072-.075-.074-.1 0-.008.016-.006.02.009a.027.027 0 0 0 .022.02.035.035 0 0 1 .025.022.12.12 0 0 0 .019.03.03.03 0 0 1 .016.02zm.124.376a.012.012 0 0 1-.011.018h-.007v-.007a.013.013 0 0 1 .013-.013zm0 .241a.021.021 0 0 1-.019.021.02.02 0 0 1-.015-.006.016.016 0 0 1 0-.024l.009-.001c.012 0 .021 0 .024.006zm-.258.007a.18.18 0 0 0 .052-.01l-.019.006a.2.2 0 0 1-.052.01h-.018l.019-.011a.3.3 0 0 1 .051-.019.3.3 0 0 0-.036.014l-.019.011zm-.288.295c-.008-.028 0-.036.125-.087.147-.062.154-.066.1-.061h-.04l-.013-.022a.1.1 0 0 1-.013-.037c0-.009 0-.013-.014-.013a.56.56 0 0 0-.091.026c-.083.03-.1.033-.114.015s.028-.017.028-.027c.006.013.013.021.069 0a1.4 1.4 0 0 1 .219-.066c.088-.021.151-.04.2-.057-.034.01-.065.021-.08.027s-.012.019-.012.041 0 .035-.022.045-.045.032-.033.032l.023-.008.022-.008.1-.046c.109-.049.151-.061.168-.04a.075.075 0 0 1 .01.032.04.04 0 0 0 0 .016h-.007v.108a1.9 1.9 0 0 1-.007.2v.071-.103c0 .02 0 .031-.006.031s0-.011-.006-.03v-.035h.012v-.081.049-.224h-.009v-.006c-.013-.008-.041 0-.193.07-.073.032-.364.15-.389.158a.02.02 0 0 0-.014.018.027.027 0 0 0 .008.023h.022a.03.03 0 0 1 .023-.006.33.33 0 0 0 .081-.026c.043-.018.036 0 .051 0-.135.053-.177.068-.192.052a.046.046 0 0 1-.005-.03zm.621-.247v.017zm-.364.589a.33.33 0 0 1-.056-.05c-.011-.012-.014-.02 0-.015.029.011.037.012.027 0l-.016-.017a.1.1 0 0 1-.021-.021c-.008-.01-.009-.016-.006-.024a.2.2 0 0 0 .006-.037.9.9 0 0 1 .025-.107.31.31 0 0 0 .02-.1c0 .005.027-.01.026 0a.08.08 0 0 1-.007.034.15.15 0 0 0-.007.036.5.5 0 0 0 .032-.115c0-.027.009-.033.057-.055l.145-.068c.065-.031.093-.043.109-.04s.016 0 .017.016v-.031.415a.28.28 0 0 1 0 .081c0 .036-.009.081-.01.1a.3.3 0 0 1 0 .045s0 .007.011.009h-.045a.42.42 0 0 1-.086-.006.4.4 0 0 0-.084 0h-.016l.024.013a.65.65 0 0 1-.144-.062zm.168.079.013-.008a.67.67 0 0 0 .237.009h.036a.72.72 0 0 0 .147.006.14.14 0 0 1 .035-.011l.073-.026a.676.676 0 0 0 .318-.218.739.739 0 0 1-.858.249zm.4-.169a.4.4 0 0 1 0-.069c0-.025.011-.028.029-.017a1.24 1.24 0 0 1 .148.1.039.039 0 0 0 .03.014c.011 0 .02 0 .022.009s.025 0 .043-.01c-.02.013-.04.025-.061.036s-.02.011-.03.017a1 1 0 0 1-.089.034c-.03.01-.014.01-.024.016s-.044.009-.067.012c0 0 .01 0 .011-.009v-.017a.018.018 0 0 1 .006-.015v-.015a.5.5 0 0 1-.021-.085zm-.008-.1.011-.007s-.004.013-.014.013zm0 0h-.006a.008.008 0 0 1 .009-.007c-.012.006-.009.008-.009.011zm.5-.012a.3.3 0 0 0-.051.049c-.036.038-.087.044-.128.074.043-.035.077-.067.077-.077s-.034 0-.1.045-.073.042-.115.013a.7.7 0 0 0-.059-.037.45.45 0 0 1-.123-.09.055.055 0 0 1-.016-.018v.071a.5.5 0 0 0 .01.094.35.35 0 0 1 .01.129.32.32 0 0 0-.009-.12.42.42 0 0 1-.009-.1 2.5 2.5 0 0 0-.022-.275v-.062a.127.127 0 0 1 0-.067c0-.013.017-.016.035-.012h.014a.08.08 0 0 0 0 .026c0-.019.01-.021.017-.028h.01-.008s.008-.009.015-.008l-.006-.015a.025.025 0 0 0-.025.013l-.013-.009c-.027-.014-.025 0-.035 0s-.022.039-.029.034-.006-.016 0-.026h-.01a.36.36 0 0 0 0 .093v.117a1.5 1.5 0 0 0-.025-.191c0-.012.005-.012 0-.026s.016-.043.053-.042.032 0 .032-.008 0-.008.008-.011h.019a.017.017 0 0 1 0 .017v.015a.17.17 0 0 0 .045.022c.021.012.034.02.034.023h-.035a.53.53 0 0 1 .119.039c.063.022.118.042.122.042a.086.086 0 0 1 .06.045c.009.036.015.042.028.03s.016-.01.084.016a.43.43 0 0 0 .095.026.1.1 0 0 1 .016 0v.006h.008c0 .007.011 0 .017-.009a.18.18 0 0 1-.009.061l.013-.008a.7.7 0 0 1-.125.143zm.006-.23h.018l.014.005a.028.028 0 0 1-.025-.006zm.092.022a.018.018 0 0 0-.011-.01c.006-.011.014-.027.016-.023s-.016.026-.016.037zm-.062-.143a22 22 0 0 0-.4-.109c-.119-.031-.174-.048-.188-.07s0-.037.031-.07.042-.053.034-.063 0-.016.015-.012a1.13 1.13 0 0 0 .275-.333.37.37 0 0 1 .047-.065c.014-.013.024-.009.04 0l.011.011c.02.025 0 .058-.058.139-.024.031-.036.047-.03.055s.037.008.094.009a.8.8 0 0 1 .109.008.026.026 0 0 0 .021 0 .025.025 0 0 1 .019.01.43.43 0 0 1 .063.159l.007.03-.028.029a1.4 1.4 0 0 1-.1.086c-.041.032-.063.052-.058.062s.023.011.056.019a.256.256 0 0 1 .126.055.036.036 0 0 1 .005.041c-.034.03-.05.031-.102.013zm.143-.228h.009a.19.19 0 0 1-.032-.075.47.47 0 0 0-.02-.08.7.7 0 0 1-.013-.052.06.06 0 0 1 .01.021.22.22 0 0 0 .014.041.174.174 0 0 0 .032.072l.019.021.018.02a.056.056 0 0 1 .017.038c-.015.038-.041.026-.065-.002zm.035-.6-.015-.02-.032-.042a1.093 1.093 0 0 0-1.514-.106 1.145 1.145 0 0 0-.367.626l.011-.008c-.009.052-.02.069-.046.073l-.078.01a.26.26 0 0 0-.078.021c-.022.014-.078.02-.082.008l-.007-.014c.006 0 .023 0 .023.008s.014.016.04 0a.9.9 0 0 1 .148-.039c.029-.006.033-.012.047-.074a1.18 1.18 0 0 1 .416-.663c.028-.022.059-.049.07-.06s.022-.019.029-.017a.32.32 0 0 0 .089-.035 1.1 1.1 0 0 1 1.309.259c.03.035.049.057.056.063s-.022.024-.03.015zm.027-.193a.034.034 0 0 1-.02 0 .15.15 0 0 1-.047-.033 1.24 1.24 0 0 0-.285-.184 1.258 1.258 0 0 0-.992-.031.2.2 0 0 1-.05.019c-.007 0 0-.008 0-.026v-.015a.2.2 0 0 0 .047-.018 1.258 1.258 0 0 1 .992.031 1.24 1.24 0 0 1 .289.186.16.16 0 0 0 .043.031.03.03 0 0 0 .019 0h.023l.036.018c.025.01.039.01.045 0v.01a.03.03 0 0 1 0 .019c0 .026-.011.031-.045.013a.22.22 0 0 1-.041-.02Zm-13.998-.397h-.002v1.639h.512v-.537l.002-1.104h-.512Zm6.001 2.212h.982v.097h-.982Zm-5.994-3.643v.761h.491l.002-.761h-.002Zm-.156 3.274h.825v-2.019h-.825Zm.08-1.905h.646v1.794H6.4Z"/></svg>