<svg xmlns="http://www.w3.org/2000/svg" viewBox="0 0 24 24"><path fill="#44739e" d="M12.532 21.967c.006.016.022.019.035 0s.043 0 .08 0a.3.3 0 0 0-.078-.006c-.01.009-.029.011-.035 0a.45.45 0 0 0-.161-.065l-.035-.008.035.008a.45.45 0 0 1 .159.071m7.535-.775.031.048c.023.031.028.019.041-.029.008-.029.021-.071.027-.092s.014-.038.017-.05v-.02c0-.012 0-.017-.014-.017a.44.44 0 0 0-.099.029l-.04.019c-.022.009-.031.022-.024.032l.011.006c.006.008.028.04.05.074m-7.527 1.167v-.001l-.001-.001Zm-.204-.468h-.002Zm.189.44-.002-.006-.007.006Zm-.261-.435a.154.154 0 0 1 .07 0c-.039-.01-.07-.01-.07 0m-.733-.002v-.003l-.017-.006Zm-.043-.03a.94.94 0 0 1-.11-.087.4.4 0 0 0-.047-.037.11.11 0 0 1-.029-.021.11.11 0 0 0 .03.022.4.4 0 0 1 .047.037.94.94 0 0 0 .11.087l.01.008.015.01-.016-.014Zm.108-.127a.03.03 0 0 1 .006.018v.031l-.011.009a.04.04 0 0 0-.006.021.037.037 0 0 0 .037.039c.016 0 .016 0 0-.041a.066.066 0 0 0-.014-.027h.011a.029.029 0 0 0 .008-.04c-.013-.015-.025-.018-.029-.011Zm-.049-.051-.007.016a.055.055 0 0 0 0 .028.8.8 0 0 0-.009.11v.056h.01v-.055a.8.8 0 0 1 .009-.11.055.055 0 0 1 0-.028l.007-.016q.007-.02.017-.043c.023-.061.036-.083.023-.089h-.01c.012.006 0 .028-.023.088Zm.807.309h-.015a.18.18 0 0 1-.053-.038v-.006l-.015-.02a.044.044 0 0 1-.007-.035.046.046 0 0 0 .007.03l.019.019v.007a.18.18 0 0 0 .053.037h.014c.089.035.289.105.339.118.016 0 .025 0 .03-.011 0 .008-.014.011-.029.01-.054-.007-.254-.076-.343-.111m.394.011-.015.059c0 .012-.007.025-.011.038 0-.014.009-.027.012-.04l.015-.059a.21.21 0 0 0-.09-.03.23.23 0 0 1 .089.032m-.833-.2c0-.011 0-.011-.011-.011l.012.016Zm-.588-.215a.44.44 0 0 1-.018.069c-.012.035-.017.047-.008.058-.007-.011 0-.022.008-.055a.5.5 0 0 0 .018-.07l.008-.027.047-.011h.063a1 1 0 0 1 .138 0 .83.83 0 0 0-.148 0h-.11Zm.778.37-.012.012h.021a.03.03 0 0 0 .018-.011h-.009a.022.022 0 0 0-.018-.001m.192-.787-.002.004Zm-.183-.095h.001l-.001-.004Zm.418.164c0-.007-.018-.009-.018 0v.012c-.007 0-.01-.012-.018 0-.031.057-.109.179-.141.22a.17.17 0 0 0-.027.04s0 .007.016-.01.021-.016.173-.016c.128 0 .155 0 .155-.011s-.005-.008-.019-.01a1.43 1.43 0 0 1-.237 0l-.012.008.006-.008h-.015a.015.015 0 0 1 0-.021l.01-.009a.44.44 0 0 0 .043-.047l.014-.018c.009-.014.015-.014.015-.014a.15.15 0 0 1-.017.029l-.013.021-.015.024c.026-.034.079-.116.116-.178v-.011c-.003-.015-.011.005-.016-.001m-.427-.163h.01c.003 0-.009-.006-.01 0m.41.376a.14.14 0 0 1-.03 0 .3.3 0 0 0-.04 0 .7.7 0 0 0 .07 0m-.401 1.198-.001.001h.001Zm-.141.004v.014-.006s.026-.012.073-.012.064 0 .066.007a.22.22 0 0 0-.069-.007c-.048-.007-.07-.003-.07.004m.07.014a.19.19 0 0 1-.069 0 .19.19 0 0 0 .07 0c.074 0 .076 0 .071-.018-.002.012-.01.012-.072.018m.054-.08h-.11v-.036a2.7 2.7 0 0 1 .026-.472 2.8 2.8 0 0 0-.026.478v.032h.118Zm.348-1.136c-.018 0-.019-.012-.014-.025a.15.15 0 0 0-.021.033h.006a.08.08 0 0 1 .029-.008m.21.012h.011a.55.55 0 0 0-.11-.009h-.036a.12.12 0 0 0 .038.008 1 1 0 0 1 .097.001m-.648.377s0 .01.028.015h.013c.005 0 .023 0 .026-.007 0-.012-.061-.01-.075 0h.009Zm8.165-.965-.045.01-.053.013c-.023.006-.043.02-.065.027a.88.88 0 0 1 .277-.058.8.8 0 0 0-.114.008m-6.258-1.156.021-.056a.165.165 0 0 1 .04-.065 1.54 1.54 0 0 0-.22.171.21.21 0 0 0 .11-.027Zm1.844.125-.349.021c-.386.021-.725.041-.841.054l.33-.022.415-.025.489-.029.55-.032.182-.01h-.039c-.137 0-.358.019-.737.043m3.895 1.948.024.02c-.033-.028-.064-.06-.099-.085a.31.31 0 0 0 .075.065M14 19.937c.032.012.033.012.074-.006a.4.4 0 0 1 .049-.02c.013 0 .015-.013 0-.032-.03-.045.042-.058.096-.018.033.026.049.027.073.007s.103-.023.117 0l.009.014.073-.005v-.071l.01-.137v-.075l-.038-.069v-.064l.047-.042c-.034 0-.05 0-.055-.012s0-.019.019-.034l.006-.008a.44.44 0 0 0-.058.028c-.058.031-.076.044-.065.058a.047.047 0 0 0 .02.017.1.1 0 0 1 .023.024c.051.063.066.191.008.159a.22.22 0 0 0-.061-.008h-.042l-.007-.017h.1v-.04a.09.09 0 0 0-.016-.058.05.05 0 0 0-.015-.015.08.08 0 0 0-.032-.008.46.46 0 0 0-.1.019.01.01 0 0 0-.011.006.07.07 0 0 1 0-.017c.007-.015.006-.009 0-.011a.42.42 0 0 0-.193.095.22.22 0 0 0-.06.11c0 .027-.007.031-.026.034s-.044.023-.041.031h.01a.022.022 0 0 1-.014.008h-.013a.35.35 0 0 0-.161.031c-.041.015-.11.096-.097.11a.9.9 0 0 0 .134 0 .57.57 0 0 1 .237.016m.44-.187c0 .008-.01.011-.046.012-.066 0-.097 0-.104-.007a.31.31 0 0 1 .145-.005Zm-.157-.22.048-.011c.011 0 .032.011.03.02a.22.22 0 0 1-.11 0 .1.1 0 0 1 .027-.009Zm-.06.009c0 .008.008.014.023.023a.11.11 0 0 1-.028-.019Zm-.22.239c.012-.007.016-.012.013-.022a.023.023 0 0 1 .025-.026h.011l.007.009a.04.04 0 0 1 0 .017.04.04 0 0 0 .006.018.07.07 0 0 0 .018.016.06.06 0 0 1 .022.018c.017.019 0 .029-.059.029-.024 0-.036 0-.044-.012a.055.055 0 0 1-.011-.023c-.004-.012-.004-.018.008-.024Zm.317-.294-.048.01a.08.08 0 0 0-.035.012.21.21 0 0 0 .11 0c.002-.012-.016-.03-.027-.022m6.01 1.478h.105-.008a.47.47 0 0 0-.097 0m-.477.838c-.009 0-.019.02-.012.027s.019 0 .019-.016-.007-.011-.007-.011m-.599-2.098h.171Zm.907 2.121v-.003l-.006.003Zm-.208-.759a1.17 1.17 0 0 1 .21-.073.033.033 0 0 0 .024-.008l.018-.007.017-.005a.44.44 0 0 1 .101-.009h.007a1.2 1.2 0 0 0-.15-.008.9.9 0 0 0-.227.11m-8.445.349a.2.2 0 0 1-.041-.059.4.4 0 0 0 .041.059m-.173.131a.14.14 0 0 0 .068 0l.123-.01h-.033a1.1 1.1 0 0 1-.147.007v-.007Zm.365.178a.2.2 0 0 0-.014.081.19.19 0 0 1 .014-.072l.029-.039c.012-.017.036-.014.056 0a.102.102 0 0 1 .034.066v-.008a.1.1 0 0 0-.024-.047l-.018-.019c-.017-.01-.038-.016-.048 0Zm-.192-.309.007.011.007.01-.007-.011Zm-.157.121.005-.001Zm.468.239v.013s.006.011.011-.008.013 0 .021 0v-.009h-.017a.012.012 0 0 1-.015.004m-.264-.281c0-.01-.014-.027-.04-.057a.135.135 0 0 1 .04.057m-.289.206-.007.021Zm1.048-.509a.44.44 0 0 0-.07.11c-.026.048-.042.049-.057.013.015.045.033.043.06-.009a.44.44 0 0 1 .069-.11l.014-.019c0-.01.009 0 0-.01Zm-.307.656-.01.002Zm-.714-.271s0-.014-.005 0a.3.3 0 0 0-.021.06l-.008.052v.009c0-.021.01-.041.019-.071s.012-.034.015-.05m.115.27a.5.5 0 0 0-.085-.057.55.55 0 0 0 .072.055l.027.02a.55.55 0 0 1 .074.062.034.034 0 0 0-.014-.028.6.6 0 0 1-.074-.052m-.115-.27v-.019.006Zm-.027.124a.7.7 0 0 0 .037-.126c0-.015 0 0-.006 0v.017a.7.7 0 0 1-.031.109m1.259.638v.011c0 .006.008.009.011.014a.07.07 0 0 1-.01-.026Zm-.503-.621c.016.009.04-.007.041-.027-.004.004-.025.036-.041.027m-.687.556c0-.009.01-.009.031-.009a.24.24 0 0 0 .099-.032.25.25 0 0 1 .075-.027h-.011a.24.24 0 0 0-.068.025.24.24 0 0 1-.099.032.048.048 0 0 0-.031.009.3.3 0 0 0 .059.091c.042.051.083.11.099.097a.44.44 0 0 1-.09-.09.3.3 0 0 1-.064-.096m.174.127c.006-.037.015-.073.025-.11a.8.8 0 0 0 .021-.092c.002-.019-.014 0-.015 0l-.02.084-.021.087c0 .008-.026 0-.04-.014h.009c.032.026.04.022.04.014l.021-.087c.011-.045.019-.081.019-.084 0 .008-.009.048-.02.092s-.019.073-.026.11c0 .011 0 .011.008.011s.014-.014.021-.037c-.007.021-.013.035-.02.035s-.003.002-.002-.009m.075-.225a.055.055 0 0 0 0-.023v-.041l-.023.024-.015.02v.009a.1.1 0 0 1 .021.013h.018c-.007.041-.026.118-.046.199a2.1 2.1 0 0 0 .051-.22Zm-.125.201c0 .007-.006 0 0 .009.025.041.036.061.02.069l.009.007c.008 0 .009-.031-.02-.069Zm.518-.214c0-.011 0 0-.006.025v.058l.006-.071Zm-.006.083v.037-.008Zm-.347-1.084.008-.007Zm-.27 1.067c.008-.007.013-.007.023 0s.025 0 .084-.026a.1.1 0 0 1 .048-.013c-.008 0-.02 0-.051.008-.05.02-.073.032-.083.025s-.016-.006-.023 0a.015.015 0 0 1-.021 0s0 .01.007.011a.019.019 0 0 0 .016-.005m-.028-.015a.4.4 0 0 1 .08-.039c.027-.01.03-.014.052-.023l-.036.014c-.069.028-.087.04-.096.048m.57.213v.016Zm-.363.049c0 .026.127.11.142.09h.01c-.019.014-.117-.057-.13-.081 0 0-.022-.015-.022-.009m-.021-.281.007.006.002-.001Zm.428-.251-.012.01c-.007.008 0 .015.009.021s.017.018.017.044v.122a.3.3 0 0 0 0 .045v.11c0 .046 0 .054-.016.064l-.068.054a.8.8 0 0 1-.153.109c.031 0 .069-.032.165-.109h.003v.011l.01-.008v.02a.09.09 0 0 1 .009.037v.046a.22.22 0 0 0 .012.08.055.055 0 0 1 0 .03c0 .022 0 .038.015.022v-.048a.6.6 0 0 1-.005-.193c.011-.037.01-.054 0-.037a.02.02 0 0 1-.017.008c-.005 0-.009.005-.013.007l.039-.03c.013-.008.013-.025.013-.053v-.046c0-.016.009-.064.009-.098v-.012c-.007-.011-.007 0-.007.025 0-.043.011-.091.011-.131v.052a.66.66 0 0 0 .007-.101.11.11 0 0 0-.013-.055h.007a.02.02 0 0 0-.022.004m.118-.256h.001Zm-.723.541s-.009 0-.008-.009v.011Zm.792.11c-.007-.067-.008-.134-.009-.202v.029a1.1 1.1 0 0 0 .009.173m-.319.354.031.009h.046a.26.26 0 0 0-.077-.009m.143-.035a.19.19 0 0 0 .007-.085v.008a.2.2 0 0 1-.007.077m.053-.969a.036.036 0 0 0 .02.028.035.035 0 0 1-.02-.028m-.299.87a.06.06 0 0 0-.02 0 .055.055 0 0 1 .03-.008.06.06 0 0 0 .016-.01 1.4 1.4 0 0 1 .157-.118 1.3 1.3 0 0 0-.151.11.047.047 0 0 1-.032.026m.006-.031c-.023 0-.043 0-.079-.026-.063-.037-.085-.043-.086-.027l.009.008c.009 0 .017-.007.064.02s.061.036.092.025m.09-.506c-.056.024-.117.048-.136.056-.049.019-.075.042-.075.069v.006c0-.027.026-.05.074-.068.019-.008.08-.032.136-.056.146-.059.144-.06.148.048v.057-.064c.001-.11.001-.11-.147-.048m.261.079a.06.06 0 0 1 .011.033v.082a1.14 1.14 0 0 1 .024.173v.206h.008v-.216c0-.05-.011-.128-.014-.18l-.01-.049v-.022a.06.06 0 0 0-.011-.033.066.066 0 0 0-.035-.01.08.08 0 0 0-.022 0v.006a.1.1 0 0 1 .016 0 .066.066 0 0 1 .033.01m-.047-.422h-.012v.009-.006Zm-.089.979v-.018a.033.033 0 0 0-.013-.019.016.016 0 0 1-.009-.017v-.01a.15.15 0 0 0 .006-.032.7.7 0 0 0 0-.064.013.013 0 0 1 0-.011.55.55 0 0 1 0 .083.15.15 0 0 1-.006.032v.009a.016.016 0 0 0 .009.018.033.033 0 0 1 .013.019v.021c0 .01.017.011.028 0v-.011h-.025Zm.034-.099v-.057a1.9 1.9 0 0 1 .008-.22v.023c0 .057-.007.115-.006.173Zm.165-1.513v-.001Zm.082.205a.66.66 0 0 1-.055-.136.3.3 0 0 0-.021-.053v-.007a.022.022 0 0 0 .007.017.3.3 0 0 1 .021.053.66.66 0 0 0 .055.136c.006.007.028-.028.077-.118.012-.021.016-.032.012-.04a.048.048 0 0 1-.01.033c-.057.088-.078.122-.086.115m-.571-.099-.004.003h.013Zm.489-.106v.009c.005-.006.017-.006.038 0l.082.026c.026.007.039.012.045.019v-.007c0-.008-.02-.014-.048-.021l-.081-.026Zm-.307.39-.01-.032.008.026Zm.497-.296a.4.4 0 0 0-.056.08c-.025.046-.039.065-.051.064.015.01.029-.009.058-.06l.007-.011.022-.038h.006a.2.2 0 0 1 .021-.03.055.055 0 0 0 .019-.024c0-.006.011 0 .021-.006h-.027a.055.055 0 0 1-.02.025m-.498.206-.002-.003-.001.006Zm.288.761s-.012.011-.012.017l.012-.012Zm-.208.562a.46.46 0 0 1-.186-.05.08.08 0 0 1-.031-.019.15.15 0 0 0 .033.02.46.46 0 0 0 .186.05v-.012Zm.307-1.367c.01 0 .024 0 .053-.054l.038-.067c-.007.011-.015.021-.022.032l-.018.031c-.029.05-.035.054-.054.054h-.017v.011-.012Zm.121-.135a.07.07 0 0 0-.028.009c.01-.013.028-.015.028-.009m.04-.03v-.016h-.01v.011a.025.025 0 0 0 .005.015.012.012 0 0 0 .005-.01m-.229-.022-.016-.033h-.005l.014.029.028.074c.025.07.037.098.051.099-.012-.008-.023-.034-.045-.096Zm-.007.079c.014.036.028.072.039.11a.12.12 0 0 0 .017.033.06.06 0 0 1 .013.037v.028c0 .009 0 0 .007 0v-.028a.06.06 0 0 0-.013-.037.12.12 0 0 1-.018-.033 1.1 1.1 0 0 0-.032-.116.9.9 0 0 1-.038-.11h-.013a1 1 0 0 0 .038.116m-.44-.006a.026.026 0 0 0-.028 0 .029.029 0 0 1 .025 0 .024.024 0 0 0-.024 0l.006.009c.025-.009.031 0 .074.061s.046.066.063.066.011.008.012.016v-.006c.005-.009 0-.02-.018-.02s-.021-.009-.035-.028c.007.007.013.01.015 0a.22.22 0 0 1-.048-.059c-.026-.04-.038-.054-.054-.056a.044.044 0 0 1-.019-.009.027.027 0 0 0 .014.009.14.14 0 0 1 .017.017m.336-.169a.5.5 0 0 0-.129.007.2.2 0 0 1-.016.027c.015 0 .029-.008.045-.009a.3.3 0 0 0 .069 0 .37.37 0 0 0 .092-.007.46.46 0 0 0-.145 0c.029-.004.054-.018.084-.018m-.217.388a.08.08 0 0 1-.008-.026.07.07 0 0 0 .008.026m-.074 1.187a.55.55 0 0 0 .092.032.18.18 0 0 1 .071.031c-.006-.01-.028-.019-.074-.032a.55.55 0 0 1-.091-.032c-.031-.012-.043-.013-.054 0v.007c.013-.023.026-.022.056-.006m.073-1.23a.02.02 0 0 0-.007.015l.007-.014.007-.018Zm.241.282c0-.009-.006-.009-.006-.009h-.014c-.02 0-.02.01-.02.01a.035.035 0 0 0 .033 0Zm-.233-.297a2.4 2.4 0 0 0 .08-.249 2.5 2.5 0 0 1-.08.248Zm.029-.121a.055.055 0 0 0 0 .023l.007-.018c.007-.025 0-.036 0-.025l-.008.019Zm.041 1.356h-.007.01v-.068c0-.05 0-.069-.015-.064.012 0 .014.013.014.058Zm-.11-1.212-.021-.043a.66.66 0 0 0-.064-.091.13.13 0 0 1-.029-.042h-.007s.007.018.036.051a.66.66 0 0 1 .064.091l.021.037.02-.015a.04.04 0 0 0 .014-.011v-.007a.044.044 0 0 1-.014.018Zm-.044 1.297h.014a.08.08 0 0 0 .032.006.7.7 0 0 0-.073-.031c.009.011.017.025.027.025m-.06-1.43a.25.25 0 0 1-.047-.077.24.24 0 0 0 .048.079c.025.034.065.09.085.124.04.062.062.087.062.073 0 .012-.021-.01-.059-.07a2.4 2.4 0 0 0-.089-.129m-.013-.078-.007-.006h-.006l.009.004Zm.183.038a.55.55 0 0 1 .036-.103l.008-.008c.009 0 .009 0 .009.007 0-.007 0-.007-.01-.007l-.008.008a.55.55 0 0 0-.036.103c-.028.083-.041.1-.059.089.019.011.034-.004.06-.089m-.059.086h-.003Zm.095 1.299h-.005a.3.3 0 0 1-.11-.035.55.55 0 0 1 .11-.089.52.52 0 0 0-.11.091v.005a.3.3 0 0 0 .11.036Zm9.587-2.939-.006-.003.006.01Zm-10.688.959.094-.008Zm.261-.025a.6.6 0 0 0-.171.009h.035c.066-.003.104-.009.136-.009m8.834 1.939-.043-.034h-.009c0 .022.145.122.156.11s-.014-.017-.033-.028a.7.7 0 0 1-.071-.048m-8.838-1.933.074-.007h-.07Zm9.18 2.029v-.134c0-.019-.008-.021-.027-.009a.8.8 0 0 0-.126.11.31.31 0 0 0 .132.033Zm-5.094-3.782-.033.014.036-.014Zm-4.325 1.942s0 .014.007.015a.02.02 0 0 0 .026 0l.009-.008a.1.1 0 0 0 0-.028l-.006.016c-.01.01-.016.014-.022.011h-.005a.08.08 0 0 1 0-.022v-.027a.14.14 0 0 1 .009-.065s.006-.009.012-.009h.006a.1.1 0 0 1 .006.036v-.039h-.031a.04.04 0 0 0-.018.012.22.22 0 0 0-.006.065v.027s0 .008.005.014Zm9.425 1.902a.12.12 0 0 0-.055-.019.66.66 0 0 1-.091-.035c-.038-.018-.063-.023-.076-.014l-.007.013a.52.52 0 0 0 .135.049c.033.007.062-.001.094.006m-6-3.41.131-.077.169-.095-.06.031-1.358.759-.019.004.008.009.005.001 1.04-.579Zm7.791 3.619v.004h.046v.103h.154v-.103h.046v-.003l-.123-.001Zm-.69-.004h-.52v.109h1.079v-.11h-.559Zm-4.658.01v.098h1.08v-.094h.002v-.011h-1.082Zm1.267.005h.154v.103h-.154Zm-3.786-.013h1.08v.11h-1.08Zm1.261.008v.098h1.08v-.108l-1.08.003Zm-2.331-2.981h-.006c0 .007-.012.008-.017.013Zm7.17 2.759h.007l-.007-.019Zm.006-.157a.3.3 0 0 0 0-.09v-.006a.15.15 0 0 1 0-.04 1.5 1.5 0 0 1-.151.102.63.63 0 0 0-.098.081c0 .017.023 0 .11-.06.127-.098.121-.1.122.053a.48.48 0 0 0 .007.11v-.037a.47.47 0 0 1 .01-.113m-1.416.487.004-.005h-.001Zm-1.838-4.425-.136.007.158-.007Zm1.283 4.425h.558l.008-.021h.011a.055.055 0 0 0-.018.025h.527v-.114h-1.08Zm-1.767-4.4.142-.007h.058l.103-.007h.045-.194c-.06 0-.127.011-.195.011l-.157.011Zm3.672.523v-.016h.008-.018c-.004.003 0 .008.01.016m-3.529-.531-.016.008a.04.04 0 0 1 .016-.008m-.33.027a.19.19 0 0 0 .115-.013.2.2 0 0 1-.117.007Zm-2.581 4.275h.046v.106h.154v-.106h.044v-.002h-.247Zm3.359-4.319h1.338-.066l-.21-.008h-.88c-.041 0-.116.007-.195.007h-.078.086Zm1.944.035c0 .029.044.053.132.053-.087-.003-.129-.025-.132-.053m1.865 2.86c-.105 0-.122 0-.119-.022a.154.154 0 0 1 .038-.058c.047-.061.061-.083.061-.096v-.025c.016-.013.014-.028 0-.037a.132.132 0 0 0-.056.064.8.8 0 0 1-.125.179c-.036.04-.096.11-.136.165s-.083.11-.099.127a.11.11 0 0 0-.026.042.018.018 0 0 0 .012.019c.022.012.031.012.032 0v-.062l.06-.069c.033-.037.079-.092.101-.121.062-.083.075-.096.094-.09a1.07 1.07 0 0 0 .289 0c-.005-.011-.024-.013-.126-.016m-.138.013c-.019 0-.024 0-.018-.018a.033.033 0 0 1 .016.008l.016.013Zm-1.595-2.82c.04 0 .11.012.15.012a1.3 1.3 0 0 0-.15-.012m.324.012h.022l-.011-.021a.077.077 0 0 0-.043-.014.7.7 0 0 0-.11-.01h-.037a.3.3 0 0 0 .042.029c.046.002.091.01.137.016m1.434 3.529c-.075-.029-.07-.028-.07-.017a1 1 0 0 0 .056.175.03.03 0 0 0 .022-.01l.027-.023h.012a.086.086 0 0 1-.023.06c-.023.031-.031.06-.025.065s.042-.015.08-.065c.071-.092.095-.128.087-.138h-.011a.47.47 0 0 1-.155-.047m-1.89-3.594s-.012-.01-.007-.01.007.008.007.013h.049l.22.016h.008a.22.22 0 0 1-.035-.024h-.029a.19.19 0 0 1-.051-.035l-.007-.007c-.007.013-.017.011-.013 0s0 0-.01.017l-.007.013c.008-.02.011-.031.009-.037l-.028-.023a.1.1 0 0 0-.022-.013h-.008a.013.013 0 0 0-.017.009.066.066 0 0 1-.027.025.05.05 0 0 0-.019.018.027.027 0 0 1 .014-.016c.025-.016.041-.035.038-.044h-.029a.08.08 0 0 0-.023 0h-.01l-.01.007a.11.11 0 0 1-.047.019h-.036l.006.006c0-.008 0-.006-.009-.006l-.019.005-.054.013h-.016a.2.2 0 0 1-.036.01.4.4 0 0 1-.12.008h-.268l.198.008c.116.007.242.018.408.028m.618.075h.029v-.012a.4.4 0 0 1 .09 0h.038l.173.015h.029c.067.006.127.015.133.015a.22.22 0 0 0 .046.006l.097.012.098.011c.019 0 .059.01.087.01l.052.007-.036-.006a.4.4 0 0 0-.05-.006.7.7 0 0 1-.083-.011.33.33 0 0 0-.087-.01c-.02 0-.064-.011-.098-.011l-.098-.012a.15.15 0 0 1-.045-.007.6.6 0 0 0-.133-.014h-.027l-.172-.015h-.039a.6.6 0 0 0-.089 0l-.015.007v.011h.019Zm.861 3.283-.007-.002.001.002Zm.327.382c-.006-.017-.018-.008-.058.034a.55.55 0 0 1-.085.068c-.032.019-.041.026-.03.04l.019.014c.034.024.048.021.11-.031s.071-.055.055-.1a.2.2 0 0 0-.011-.025M10.6 20.699l.004-.004H10.6Zm.241.042v-.035a.08.08 0 0 0 0-.022Zm-.398-.08h-.012s-.009 0-.016.013a.1.1 0 0 0-.012.046.23.23 0 0 0 .006.096v.008a.036.036 0 0 0 .03.007l.019-.01.006-.007a.3.3 0 0 0 0-.091.102.102 0 0 0-.013-.062Zm.007.082a.1.1 0 0 0 0 .024v.021c0 .026-.01.038-.023.036s0-.027-.007-.047a.33.33 0 0 1 0-.093c0-.011.012-.014.018 0a.15.15 0 0 1 .012.049Zm4.696-1.927h.012c.047-.018.11-.04.172-.06s.136-.041.199-.056a2 2 0 0 1 .11-.024c.039-.008.085-.016.127-.022l.05-.009.08-.014h.078c.037-.007.177-.019.33-.03h-.02a.092.092 0 0 1-.11 0h-.026v.005-.005h-.028l-.071.008.013.007-.014-.007-.065.008h-.028l-.154.021h-.024a.66.66 0 0 0-.118.017h-.072l-.054.013-.034.009-.065.017-.051.016-.069.021-.068.051-.08.029-.033.012h.005Zm5.881 3.376c.009-.007-.007-.017-.029-.017h-.021l.023.01a.04.04 0 0 0 .027.007m-5.406-3.497h.001l-.002-.002h-.001l.001.001Zm-.127.034.001-.001.004.004-.001.001Zm-.333.12h.005v.004h-.005Zm-.004-.033-.08.02a.066.066 0 0 1-.04.01h.007l.035-.008.078-.017Zm-10.348 1.62h-.003v1.803h.563l.003-1.804h-.563Zm16.996-.204c-.02 0-.026 0-.026.009q0 .013.026.013c.018 0 .024 0 .026-.013s0-.012-.024-.012ZM4.817 18.875v.837h.54l.002-.837h-.002Zm-.167 3.599h.907v-2.219H4.65Zm.086-2.105h.711v1.98h-.711Zm-.086-.401h.907v-1.32H4.65Zm.069-1.186h.737v1.024h-.737Zm15.573 3.057c0 .01 0 .013.038.016a.062.062 0 0 0 .045-.013.132.132 0 0 0-.083-.003M4.841 17.708v.559h.518v-.004h.002v-.558h-.52Zm.03-.999a1.1 1.1 0 0 0-.15.207.69.69 0 0 0-.071.252h.793l.013-.025Zm-.221 1.756h.907v-1.003H4.65Zm.095-.854h.711v.746h-.711Zm.812-.503v-.79a.98.98 0 0 0-.534.23Zm16.269 3.038a.09.09 0 0 0-.041.007l-.006.006a.012.012 0 0 0 .007.011h.026c.023 0 .035-.009.035-.026s-.008.002-.021.002m-.651-.56a.4.4 0 0 1 .025.038l.011-.007a.3.3 0 0 0-.036-.031m.03-.194a.28.28 0 0 1-.039-.049l.012.016Zm.007.218-.001.002.011.009Zm-5.222-1.003h-.001Zm-4.064 3.336a.042.042 0 0 1 .04-.009h-.011a.044.044 0 0 0-.033.007l-.06.027a.8.8 0 0 1-.076.036l-.08.035-.02.007-.11.047a.66.66 0 0 1-.121.059c.15-.062.452-.196.471-.209m4.071-3.328-.001-.003-.001-.001-.001-.001-.004-.003v.002ZM9.53 10.801v.167h.44a.169.169 0 0 0 .176-.16v-.22a.225.225 0 0 0 .118-.11l.165.088a.19.19 0 0 0 .242-.06l.133-.206a.15.15 0 0 0-.037-.207l-.024-.013-.72-.375a.201.201 0 0 0-.256.061l-.122.191a.159.159 0 0 0 .048.22l.02.009.175.092a.173.173 0 0 0-.049.12.202.202 0 0 0 .132.182v.22Zm11.083 11.783c.043-.016.059-.023.046-.039a.33.33 0 0 0-.058-.043c-.089-.061-.087-.061-.081.015a.22.22 0 0 0 .013.08c.011.014.031.005.08-.013M11.296 10.38l-.358-.047-.177.276.223.253Zm9.057 12.164c-.033 0-.052 0-.051.014a.08.08 0 0 0 .047.008h.034v-.022Zm-4.438-3.919-.005-.002.005.003Zm-5.928 4.257h1.08v.11h-1.08Zm-.386.008h.046v.106h.154v-.106h.046v-.002h-.245Zm-3.857-5.789.534-.56a.97.97 0 0 0-.534-.228Zm.001 1.365h.907v-1.003h-.907Zm.091-.859h.711v.745h-.711Zm4.206-1.557-.513-.005v-5.286h.007V8.56h1.437L1.667 1v21.996h2.372v-7.347h3.172v7.347H9.52V17.3h.522Zm-2.86-3.079-.077.009-3.036-.007v-.095l.008-4.187v-.103h3.108Zm2.761 4.1h-.231v-.801h.231Zm11.168 4.896v-.015c0-.017-.025-.026-.093-.043s-.085-.02-.084-.03a.55.55 0 0 1 .086-.084.36.36 0 0 0 .086-.088c0-.015-.019 0-.06.03l-.099.086a.4.4 0 0 0-.065.068c-.007.016-.015.021-.037.024s-.019 0-.02 0a.4.4 0 0 0 .094.028c.048.012.11.031.141.041.064.02.086.022.092 0v-.01c0-.01-.011-.013-.028-.009s-.014.009-.013.002m-.074-.208.014-.015h.013l-.016.012-.019.012Zm-.117.137c0 .009-.01.009-.016 0a.016.016 0 0 1 0-.018.01.01 0 0 1 .01-.01.03.03 0 0 1 .008.018ZM5.745 19.969h.907v-1.32h-.907Zm.075-1.186h.738v1.023H5.82Zm1.128-9.898H4.356l-.018 3.883h2.598Zm-.179 1.26H6.74v-.042H4.565v.042h-.031a.46.46 0 0 1 0-.232h.029v.041H6.74v-.046h.029a.46.46 0 0 1 0 .237m.016-.313H4.516v-.837h2.269Zm-.859 7.875v.56h.522v-.564h-.522Zm.725-.54a.65.65 0 0 0-.072-.252 1.1 1.1 0 0 0-.154-.207l-.593.435.012.024Zm15.572 4.241c-.028-.009-.051-.019-.051-.024a.44.44 0 0 0-.024-.059c-.05-.11-.136-.311-.136-.322s.01-.014.022-.022a.12.12 0 0 0 .055-.094 1 1 0 0 0 0-.162v-.009l-.01-.11v-.066l-.009-.117-.007-.014q-.009-.015-.029-.04c-.024-.022-.023-.057-.032-.088l.009-.017.006-.02v-.029l.007-.007c.01-.009.013-.012.006-.016h-.023c0-.015-.013-.028-.023-.027.009 0 .018 0 .02.009s0 0 0-.011v-.027l.007-.01c.006-.01 0-.01-.007-.01s-.013-.025-.009-.036v-.007a.022.022 0 0 0 .008-.016c0-.011-.024-.013-.043 0l-.012.01a.036.036 0 0 1-.018.008h-.008c-.011.006-.017.025-.014.049a.02.02 0 0 1 0 .026v.008c-.008 0-.011.038-.006.058a.13.13 0 0 0 .03.036.2.2 0 0 0 .036.019v.022s-.011 0-.016.007a.057.057 0 0 1-.041.01c-.033 0-.045.012-.039.022a.05.05 0 0 0 .034.016.22.22 0 0 1 .044.016c.022.012.054.014.047 0h.011a.034.034 0 0 1 .027.021.033.033 0 0 1 .009.015l.006.012v.015l.009.135.015.254c0 .017-.007.03-.014.027s-.01 0-.009 0c0 .021 0 .042-.006.037v.029l-.01.012a.1.1 0 0 1-.028.016.3.3 0 0 1-.069.024c-.022 0-.039.009-.046 0l-.018-.01v-.155a2.4 2.4 0 0 0-.023-.377c-.006-.007-.023-.01-.058-.013l-.084-.009h-.029l-.019.043c-.01.023-.043.11-.074.197s-.061.168-.068.185a.53.53 0 0 0-.043.126.33.33 0 0 1-.091.142c-.037.037-.046.015-.064.021a.47.47 0 0 0 .121-.153.44.44 0 0 1 .023-.073c.013-.032.06-.156.102-.274s.084-.226.092-.239a.3.3 0 0 0 .024-.072 1 1 0 0 1 .063-.19.08.08 0 0 0 .008-.035v-.049h.077a.55.55 0 0 0 .103-.016c.01 0 .016 0 .015-.008l-.119-.11-.008-.007-.055-.044-.054-.04-.063-.043-.091-.061-.044-.024-.046-.02h-.016l-.019.021h-.008c-.015.015-.021.015-.102.01s-.093-.015-.124-.058l.014.009.017-.008-.054-.031a1.8 1.8 0 0 0-.073-.101l-.07-.086c-.062-.076-.155-.187-.188-.22s-.014-.037-.027-.058l.02.026v.007l.072.085.01.012.044.055.007.01.026.023.036.045.012.015.027.033.058.073.082.047-.42-.498h-.015c-.008-.022-.033-.049-.032-.068.007-.06-.013-.081-.07-.073h-.044s0-.028.062-.058a.35.35 0 0 0 .063-.035l.012-.017h-.018l-.008.006a.3.3 0 0 0 .04-.027c0-.006 0-.01-.006-.013a.55.55 0 0 0-.11-.015l-.052-.008a.4.4 0 0 0-.049-.007h-.032.015a.63.63 0 0 1 .11.016c.008 0 .01.006.007.013s-.015.009-.022.014l-.124-.018-.082-.013h-.008c-.166-.024-.302-.038-.388-.048l-.209-.022h-.043l-.072-.008h-.025a.033.033 0 0 0 0 .028v.009l.009.018.008.015.008.012.011.012a.15.15 0 0 0 .04.038c.055.031.174.086.412.193h.01l-.039.018-.053-.023-.036-.016c-.238-.11-.356-.162-.411-.193a.11.11 0 0 1-.036-.023l-.011-.012-.007-.012-.008-.014-.009-.019v-.025c-.018-.011-.013-.017-.012-.023h-.216.173l.03.059.016.035a1.21 1.21 0 0 0 .361.191c.086.038.163.092.248.132l.013-.008.006.006h-.011a9.8 9.8 0 0 1 .98.524l.017.016h-.021a.22.22 0 0 1-.052 0c-.035 0-.083.013-.086.021s-.008.006-.016 0a.01.01 0 0 0-.013 0s0 .007-.009 0a.048.048 0 0 0-.035 0 1.2 1.2 0 0 1-.175 0 5.2 5.2 0 0 0-.521 0c0 .012-.054.009-.059 0a.148.148 0 0 0-.11-.025h-.059l-.058-.047a19 19 0 0 1-.228-.186c-.22-.182-.461-.377-.643-.518-.077-.058-.143-.11-.192-.141a.6.6 0 0 0-.041-.027.33.33 0 0 0-.079-.037h-.03a.7.7 0 0 1 .052.019l.017.007.032.015c.043.025.038.037.079.061.011.006.019.009.02.017s-.01-.01-.021-.016c-.04-.022-.035-.036-.079-.06l-.027-.014-.018.016s-.025-.009-.053-.018h-.013a.88.88 0 0 0-.22-.019c-.079 0-.018-.007-.383-.019-.035 0-.143 0-.32-.008h-.502a12.5 12.5 0 0 0-1.319.075 1.7 1.7 0 0 0-.21.025 3 3 0 0 0-.405.099l.026-.011a1 1 0 0 0-.074.022h-.007l-.03.007-.123.047c-.03.012-.131.051-.267.116l-.014.008-.016.006c-.059.028-.071.034-.102.051l-.055.03-.051.026h-.009l-.019.01-.02.011-.088.053-.051.029-.07.041c-.006 0-.026.017-.055.031l-.025.012c-.072.043-.186.11-.322.199l-.082.054c-.11.071-.234.159-.253.177-.046.043-.279.129-.258.095a4 4 0 0 1 .446-.323l-.539.344-.088.025a.07.07 0 0 0-.028.008h-.01c.009 0 .018 0 .021-.006l.088-.025.539-.343.031-.02.22-.14.397-.232.169-.092.144-.074.09-.047.064-.03.037-.019.022-.01.046-.019h.015-.016l-.054.023-.052.025-.048.022-.059.028h-.005l-.287.134-.22.121-.206.11-.066.043-.161.097-.056.031-.014.01-.718.402h-.022l-.02.011h.011c-.032.052-.119.059-.139.061-.21.019-2.089.533-2.463.639h.027c.063 0 .397-.031.512-.045l.243-.019a.56.56 0 0 0 .194-.028.13.13 0 0 1 .045-.015h.011a.13.13 0 0 1-.043.027.1.1 0 0 0-.024.007.56.56 0 0 1-.194.029l-.148.011a.044.044 0 0 1 .029.009h-.012l-.019.008-.03.017-.025.022-.01.009-.054.048c-.018.016-.033.034-.049.05 0-.01-.012-.01-.012-.034a.2.2 0 0 0 0-.026.73.73 0 0 0 .11-.097h-.021l-.143.013v.01a.084.084 0 0 1 .006.046.08.08 0 0 0 .011.048h-.002c.008 0 .012-.012.02-.017v.078c-.018.017-.037.034-.053.053h.031c0 .007-.025.039-.074.063a2.75 2.75 0 0 1-.366.095c-.094.021-.127.026-.131.05a.18.18 0 0 0 .022.071c.013.034.04.11.061.176.035.11.067.2.128.363.03.079.054.103.063.062l.014-.07a1.87 1.87 0 0 1 .105-.33.4.4 0 0 0 .011-.052c.011-.05.052-.074.144-.083a1.9 1.9 0 0 0 .207-.03c.007 0 .027-.022.045-.044a.978.978 0 0 1 1.168-.384 1.113 1.113 0 0 0-1.137.405.11.11 0 0 1-.11.052c-.194.017-.254.032-.254.059a1 1 0 0 1-.035.102 3.4 3.4 0 0 0-.11.371c-.007.046-.019.062-.05.062a.038.038 0 0 1-.036-.015.4.4 0 0 1-.052-.116 4 4 0 0 0-.053-.132.4.4 0 0 1-.022-.058 1 1 0 0 0-.042-.119c-.017-.05-.05-.141-.07-.203a.5.5 0 0 0-.042-.11c-.012-.011-.02.023-.031.104-.015.101-.016.11-.026.11l-.009-.007-.006-.014-.006-.019v-.11l.006.022v-.012c0-.051.018-.083.049-.089a.07.07 0 0 0 .025-.014.04.04 0 0 1 .026-.011 1.1 1.1 0 0 0 .294-.065.58.58 0 0 1 .13-.039c.101-.021.11-.024.11-.037v-.007c-.008-.013-.041-.015-.11 0-.145.019-.159.022-.179.042a.07.07 0 0 1-.084.016.126.126 0 0 0-.063-.01.11.11 0 0 1-.047 0h-.011v-.067c0-.048 0-.07.007-.065h.009a.1.1 0 0 0-.011-.039c-.01-.017-.012-.025-.009-.036a.22.22 0 0 0 .045-.009h.061a.7.7 0 0 0 .078-.01.06.06 0 0 0 .038.011.04.04 0 0 1 .028.008.13.13 0 0 0 .037.006c.019 0 .032 0 .041.013l.008.014.007.01c.021.023.047 0 .078-.055a.15.15 0 0 0 .014-.037l-.24.024h.026c.052-.008.11-.014.157-.018h.059-.01a1.08 1.08 0 0 0-.245.032h-.085l.024-.023c.377-.11 2.253-.62 2.463-.639a.202.202 0 0 0 .125-.052 4.34 4.34 0 0 0-.88.066c-.306.044-.46.066-.569.089a4.6 4.6 0 0 0-.683.206 2.5 2.5 0 0 0-.55.33c-.042.033-.068.057-.062.068s.009 0 .016 0v.208l-.042.032c-.027.018-.041.034-.038.038s-.057.038-.069.072a1.76 1.76 0 0 0-.029.422.15.15 0 0 0 .061.063.7.7 0 0 1-.007.117l.009.009v-.011c0-.016.01-.024.014-.016v.017s-.007 0-.009.01l.037.032.009.007a.066.066 0 0 1 0 .036.08.08 0 0 0 0 .038.44.44 0 0 1 .008.066.5.5 0 0 0 .01.085.084.084 0 0 1-.027.098c-.028.019-.041.025-.049.018s-.009-.026-.009-.064a.12.12 0 0 0-.005-.049h-.007l-.035-.005-.007.034c-.048.213-.046.3.009.33a1.2 1.2 0 0 0 .567.126c.145.007.157.01.157.033a.071.071 0 0 0 .071.074h.018a1.3 1.3 0 0 0 .181-.03c.025 0 .024 0 .055.048a.966.966 0 0 0 .672.371h-.621v.102h1.079v-.11h-.041c-.031 0-.049.014-.083.017a1.496 1.496 0 0 0 .76-.306l.057-.045h.273l.071-.038a.53.53 0 0 0 .128-.092l.058-.055h1.345l2.749-.011h1.406v.037c0 .025.02.027.031.04a.058.058 0 0 1-.025-.055c0-.039 0-.047.01-.049s.012-.008.02 0 .011.017.014.044v.012a.066.066 0 0 0 .01.03s.007 0 .007-.017 0-.014.007-.014h.022v.012a.022.022 0 0 0 0 .017.044.044 0 0 0 .016.015h.008l.016.016a.65.65 0 0 0 .22.125.24.24 0 0 1 .071.046 1.265 1.265 0 0 0 .486.271h-.422v.11h1.08v-.073h-.104a.8.8 0 0 0 .097-.014 1.161 1.161 0 0 0 .719-.77c.008-.05.019-.052.051-.007s.051.06.156.041.203-.034.32-.046c.211-.023.238-.043.308-.214.021-.053.101-.26.125-.33.071-.105.055-.139-.068-.175m-1.684-2.469a1.8 1.8 0 0 0-.278.122.3.3 0 0 0-.05.027h-.008a.26.26 0 0 1 .048-.027 1.7 1.7 0 0 1 .278-.121.13.13 0 0 0 .033-.018c.028-.013.061-.03.076-.035-.009.006-.019.01-.026.016a.143.143 0 0 1-.074.036Zm.497.535c.023.021.056.047.084.068a1.1 1.1 0 0 1-.085-.066Zm-10.857 1.924.007-.01-.008-.007c-.01-.011-.011-.027-.015-.11 0-.033.009-.048.024-.038h.011c0-.009.01-.011.013 0a.23.23 0 0 1 .01.087c-.011.092-.016.104-.043.078Zm.573.808.012-.01c-.117-.011-.138-.016-.088-.022a.68.68 0 0 1 .201 0c-.007.035-.039.041-.126.032Zm10.72-2.258a1.73 1.73 0 0 0 .391-.014l-.007-.01a.6.6 0 0 0-.045-.035l.004.003c.018.014.037.031.045.035s.009.008.008.01a1.6 1.6 0 0 1-.391.014h-.011Zm-.483.482.015.006a2.3 2.3 0 0 1 .292.171l.017.01a.03.03 0 0 0 .036-.007.033.033 0 0 0 0-.021.022.022 0 0 1 0-.016.13.13 0 0 1 .014-.023.3.3 0 0 0 .02-.03.22.22 0 0 1 .043-.031c.039-.024.055-.035.059-.048v-.023a.044.044 0 0 1 .02-.021.15.15 0 0 0 .04-.041c.011-.015.022-.026.025-.024a.077.077 0 0 0 .037-.025.2.2 0 0 1 .02-.032.22.22 0 0 0 .022-.04.4.4 0 0 0 .02-.048c.01-.031.032-.088.047-.127v-.006a.22.22 0 0 1-.013.047l.012-.008a1.8 1.8 0 0 0-.049.127.4.4 0 0 1-.019.048.3.3 0 0 1-.021.04.2.2 0 0 0-.021.033c-.007.011-.034.029-.039.025s-.013.009-.023.024a.19.19 0 0 1-.042.041.05.05 0 0 0-.019.021v.034c0 .013-.021.024-.061.048-.023.015-.042.028-.042.032a.14.14 0 0 1-.019.03.1.1 0 0 0-.014.023.022.022 0 0 0 0 .016.033.033 0 0 1 0 .021c0 .011-.018.014-.036.007l-.022-.012a1.7 1.7 0 0 0-.11-.072c-.043-.026-.061-.048-.092-.068a1.1 1.1 0 0 1-.11-.081Zm-1.172-.049c-.008 0-.014 0-.014-.009v-.007a.2.2 0 0 1 .022-.026l.027-.029v.022a.09.09 0 0 1-.008.03h.012l-.023.025Zm.011.042a.33.33 0 0 0-.018.051.4.4 0 0 1 .017-.051Zm-.039-.433c-.55.023-1.916.102-2.667.154a2.56 2.56 0 0 1-.44.019 2.45 2.45 0 0 0 .43-.019c.753-.052 2.112-.131 2.668-.154Zm0 .417c0 .007-.011.018-.013.028v-.021Zm-.672.779h.012a.44.44 0 0 0 .042-.064 1.47 1.47 0 0 1 .423-.44.51.51 0 0 0 .149-.13l.02-.025v.011l.006-.009v.047l-.012.017a.56.56 0 0 1-.149.129 1.48 1.48 0 0 0-.427.44c-.025.041-.036.056-.044.056s-.007 0-.009-.008a.012.012 0 0 1 0-.015Zm-4.898-1.203c-.024-.013-.037-.021-.037-.027a.11.11 0 0 0 .036.025.41.41 0 0 1 .11.092.84.84 0 0 0 .133.124.84.84 0 0 1-.134-.11v-.008a.36.36 0 0 0-.108-.096m.182.397.13-.011h.017c0 .007-.039.011-.187.02l-.148.012h-.033a1.54 1.54 0 0 1 .221-.021m.147 1.491.96-.04.432-.018c.518-.021.61-.026.623-.033a.04.04 0 0 1 .032 0 1.3 1.3 0 0 0 .207 0l.381-.017.343-.015.359-.014.709-.03a1.7 1.7 0 0 0 .208-.014c.018 0 .015.008.025.01-.016-.009-.044-.008-.138 0-.169.009-.567.026-.83.036-.11 0-.302.012-.43.018l-.503.021-.408.019-.33.014c-.11 0-.267.01-.349.014l-.33.014-.357.015-.433.017-.89.039h-.22l.231-.011c.144 0 .465-.016.708-.025m2.409-1.692.447-.029c.716-.047 1.391-.086 1.84-.11l.292-.014a.1.1 0 0 1-.047.014l-.243.018h-.022l-.282.017a1.98 1.98 0 0 0-.402.015l-.468.032a2 2 0 0 0-.229.019l-.079.007h-.014l-.17.012-.44.029-.408.029a.35.35 0 0 1-.098.018l-.11.007-.259.016c-.414.026-.721.045-.81.054a.96.96 0 0 1-.177 0s.059-.006.129-.011l.24-.018c.064 0 .163-.015.22-.018l.29-.022.287-.022a1.4 1.4 0 0 0 .163-.014Zm-.33-.02v-.022l.008-.025-.007.021-.007.026Zm2.59-.016a.15.15 0 0 1-.045.009.9.9 0 0 1-.189.011.024.024 0 0 1 0-.018.025.025 0 0 1 .013-.013h.11a.53.53 0 0 1 .11.007Zm-.264-.023c.009.006 0 .016 0 .032a.027.027 0 0 1-.007-.036Zm-2.299 1.018-.019.017-.019.017-.02-.023-.007-.011-.008-.013v-.162a1.5 1.5 0 0 1 .014-.167v-.084c0-.029 0-.045.008-.044s.008.084.013.181.012.204.017.236l.007.057Zm2.104-.841a.066.066 0 0 1-.036 0c-.021-.009-.029-.01-.14-.011a.86.86 0 0 1-.184-.016.37.37 0 0 0-.105-.008 1.54 1.54 0 0 1-.282 0h-.022a.34.34 0 0 1-.124 0h-.025a.19.19 0 0 1-.07-.014c-.011 0-.018-.008-.014-.012s0-.038.011-.038v-.008l.078-.008h.016a.3.3 0 0 0 .126 0 .027.027 0 0 1 .023 0 1.5 1.5 0 0 0 .281 0 .34.34 0 0 1 .11.009.77.77 0 0 0 .183.016c.11 0 .121 0 .142.011a.066.066 0 0 0 .035 0 .3.3 0 0 1 .075 0 .13.13 0 0 0 .059 0 .16.16 0 0 1 .093.006.19.19 0 0 0 .071.011.14.14 0 0 1 .063.011l.017.01.016.01a.66.66 0 0 0 .13.023.33.33 0 0 1 .08.023.126.126 0 0 1 .049.033l.013.01h.018a.1.1 0 0 1 .022.013h.02a.1.1 0 0 1 .022.007l.024.014.019.011c.016.007.033 0 .094-.021s.082-.026.079-.02a.33.33 0 0 1-.07.046.4.4 0 0 0-.05.029c-.029.009-.041.011-.053.007a.12.12 0 0 1-.031.031l-.02-.012-.021-.007h-.007l-.013-.008-.016-.011h-.019a.04.04 0 0 1-.017-.012.13.13 0 0 0-.046-.031.33.33 0 0 0-.078-.023.66.66 0 0 1-.132-.023.044.044 0 0 1-.019-.012l-.013-.008a.14.14 0 0 0-.063-.011.22.22 0 0 1-.071-.011.16.16 0 0 0-.093-.006.13.13 0 0 1-.06 0 .3.3 0 0 0-.074 0Zm.619.39c-.022.016-.024.011-.01 0a2.1 2.1 0 0 1 .292-.203.4.4 0 0 0 .071-.045c.04-.018.045-.012.027.018s-.045.037-.135.084l.008-.008a2.2 2.2 0 0 0-.252.153Zm-.282.33h.008a.94.94 0 0 1 .09-.138.33.33 0 0 0 .031-.043v-.022l.015-.015a.13.13 0 0 1 .041 0 .11.11 0 0 1 .047 0 .014.014 0 0 1 .012.017.055.055 0 0 1-.013.019.2.2 0 0 0-.038 0c-.031 0-.044 0-.052.013s-.1.137-.141.194h-.008a.07.07 0 0 1 .009-.026Zm.228-.167-.029.027a.022.022 0 0 1-.014-.013v-.007a.026.026 0 0 1 .022-.007v.008Zm.82-.521h.012a1.6 1.6 0 0 1 .29 0c.135.014.22.032.22.048a.7.7 0 0 0-.083-.008.4.4 0 0 1-.11-.008 2 2 0 0 0-.55.056c-.061.017-.073.017-.073 0-.017-.033.128-.07.295-.084Zm.141-.358h.01c-.11 0-.22.007-.248 0Zm-.252.069a.25.25 0 0 0 .083-.009l.172-.008h.027a.28.28 0 0 1 .072.006.027.027 0 0 1 .009.016c0 .014.016.009.024-.009s.11-.02.136 0-.028.058-.05.058h.012c-.016 0-.036.018-.026.023s0 .063-.02.063-.02 0-.02.007-.006 0-.014 0a.014.014 0 0 0-.018.006c0 .008-.018.011-.062.011-.065 0-.096.008-.081.017a.016.016 0 0 0 .018 0 .12.12 0 0 1 .048 0c.091 0 .124.025.039.025-.034 0-.049 0-.045-.008s0 0-.01 0a.09.09 0 0 1-.047 0 .36.36 0 0 0-.059-.011.053.053 0 0 1-.032-.009.044.044 0 0 0-.027-.011.03.03 0 0 1-.028-.019c0-.013-.013-.017-.039-.017a.085.085 0 0 1-.078-.052.023.023 0 0 0-.016-.011q-.01 0-.01-.02c.001-.028.017-.043.043-.043Zm-.055-.069h.01-.028Zm-.023-.275h-.168c-.08 0-.233 0-.363.009h.296a1.1 1.1 0 0 1 .156.008.33.33 0 0 1 .063.016c.017.009.027.019.027.031s-.008.01-.019.017a.22.22 0 0 1-.07.022.44.44 0 0 0-.065.012 1 1 0 0 1-.181.03l-.053.008c-.022 0-.177.017-.244.02a.12.12 0 0 0-.05.007.6.6 0 0 1-.11.008c-.053 0-.132.007-.175.011a.36.36 0 0 1-.084 0 .14.14 0 0 0-.044 0 1.3 1.3 0 0 1-.161.01.66.66 0 0 0-.149.008c-.015.008-.15.008-.55.014-.116 0-.246.007-.29.009-.156.009-.507.012-.857.008-.162 0-.155 0-.155-.063 0-.031-.017-.047.038-.058.075-.016.285-.023.859-.05l.31-.014h.047l.411-.017h.04c.518-.019.706-.028.651-.029l-.47.012.635-.022h.025c.254-.008.461-.014.555-.016h.141Zm-.975-.844.049.038c.476.37.66.518.854.698.033.03.053.049.052.06 0-.011-.021-.03-.052-.058-.197-.181-.379-.33-.854-.699l-.049-.038-.036-.028Zm-3.058-.1h.007c.017 0 .066-.006.124-.013h.024-.02l.055-.006h-.035c.125-.013.269-.024.425-.034h.113c-.11 0-.207.012-.301.02-.152.009-.292.022-.409.035Zm-.257.056h.015a.14.14 0 0 1-.037 0c.01 0 .012-.004.022-.004Zm-1.885.912c.039-.028.077-.055.17-.116-.084.056-.14.094-.187.13Zm-.184.19v-.017c0-.011.024-.016.034-.027a.4.4 0 0 0-.036.044 1.8 1.8 0 0 1 .164-.131h-.018c-.006 0-.014.01-.02.011a1.62 1.62 0 0 1 .316-.253c.023-.013.074-.046.11-.073l.062-.04.036-.024c.036-.023.084-.049.125-.074l.033-.019.071-.041.05-.029.071-.042.058-.032h.008l.05-.027.055-.029c.031-.017.055-.028.103-.051s.079-.037.123-.056c.066-.03.133-.056.2-.082h.005c.058-.021.091-.034.128-.047a1 1 0 0 1 .075-.022c.025-.006.048-.013.079-.019l-.057.016a4.44 4.44 0 0 0-.595.244c-.191.097-.428.232-.596.339l-.034.021-.062.041c-.039.026-.088.059-.11.072s-.017.016-.025.021a.55.55 0 0 1 .088-.056.36.36 0 0 1 .11-.042c.037-.005.048-.007.049-.017v-.026c0-.023.045-.052.252-.167a.77.77 0 0 1 .144-.075.66.66 0 0 1-.091.063.9.9 0 0 0-.09.062c.009 0 .169-.082.397-.202a3.01 3.01 0 0 1 1.429-.375c.194-.011.32-.008.386-.006h.052l-.031.198-.087.809.117-.011.046-.383.023-.192v-.008l.055-.47h.045v.026l-.099 1.055.132-.007.06-1.008c0-.013.055-.01.08-.015h.693c.288 0 .577.008.672.013a1.4 1.4 0 0 1 .167.017.4.4 0 0 1 .049.007.4.4 0 0 1 .048.029 1.65 1.65 0 0 1 .232.191l.317.3.041.021h.11a.31.31 0 0 0 .11-.007 2.05 2.05 0 0 1 .404.33c.007.007.011.012.01.015a2.1 2.1 0 0 1-.392.028c-.424.013-1.456.052-1.702.063l-.408.018c-.141.007-.347.016-.458.022l-.289.015-.148.007a.66.66 0 0 1 .139.013v.017c-.009.045-.028.098-.036.097a1.57 1.57 0 0 0-.352 0c-.097.009-.3.014-.404.011a.055.055 0 0 0-.031.006.21.21 0 0 1-.064 0h-.33a1.9 1.9 0 0 0-.209.009.9.9 0 0 1-.121.008 1.3 1.3 0 0 0-.161.013.17.17 0 0 1-.056 0 .55.55 0 0 0-.084.008.35.35 0 0 1-.191-.012c-.099-.023-.123-.033-.11-.045a.33.33 0 0 1 .053-.007h-.062a.66.66 0 0 1-.172 0 .044.044 0 0 0-.033 0 .3.3 0 0 1-.082.014c-.091.011-.135.027-.137.056s.005.034.034.059c.028.028.042.052.041.063s-.012.012-.04-.008a1.1 1.1 0 0 1-.136-.11l-.014-.009a.3.3 0 0 0-.025-.04 1.02 1.02 0 0 0-.296 0 .14.14 0 0 1-.052 0h-.007c-.005-.005.004-.025.012-.043Zm.128.1a.63.63 0 0 1-.11.029c-.017 0-.013-.022 0-.029s.12-.015.11-.004Zm-.13-.01h.011a.05.05 0 0 0-.022.029.17.17 0 0 1 .011-.032Zm-.42.02a.5.5 0 0 1 .127-.018l.187-.007a.11.11 0 0 1 .048 0c.007.015-.029.055-.06.065l-.045.016a.73.73 0 0 1-.145.028c-.037 0-.054.011-.054.019s0 .01-.043.012a.12.12 0 0 0-.059.021.48.48 0 0 1-.121.056.22.22 0 0 0-.046.024l-.045.028a.7.7 0 0 0-.077.044.33.33 0 0 1-.064.033.2.2 0 0 0-.046.028.125.125 0 0 1-.047.029.125.125 0 0 0-.042.033c-.027.027-.033.032-.05.027-.044-.011-.042-.015.037-.068.038-.025.087-.06.11-.078l.151-.11.176-.124a.44.44 0 0 1 .108-.062Zm.285 1.293v.051a.18.18 0 0 1-.012-.041Zm-.021-.839a.11.11 0 0 1-.011.032.065.065 0 0 1-.047.034.72.72 0 0 0-.168.07.055.055 0 0 1-.028.011.08.08 0 0 0-.042.023l-.041.035a.11.11 0 0 0-.02.022.1.1 0 0 1-.025.022.07.07 0 0 0-.017.018v.009c-.006.009-.021.008-.046 0h-.006l-.017-.02c-.037-.036-.053-.056-.051-.058h.007a.12.12 0 0 1 .029.016.22.22 0 0 0 .052.031c.023.01.039.011.045 0v-.009a.13.13 0 0 1 .017-.017.08.08 0 0 0 .027-.029.11.11 0 0 1 .02-.022l.04-.035a.09.09 0 0 1 .042-.023.044.044 0 0 0 .028-.011.77.77 0 0 1 .168-.071.063.063 0 0 0 .044-.036Zm-1.371-.236h.007a.15.15 0 0 0 .048-.017c.011 0 .086-.027.167-.047a2 2 0 0 0 .315-.101l.02-.007a1.12 1.12 0 0 1 .225-.04c.048 0 .097-.006.147-.008h.061l-.017.017c-.01.009-.066.048-.126.087-.09.059-.253.171-.407.284l-.033.024-.092-.019a2.6 2.6 0 0 0-.297-.042c-.089-.007-.1-.011-.1-.027a.035.035 0 0 0-.014-.024c-.029-.028.008-.056.096-.083Zm-1.147.603v-.008c.015-.017.033-.033.05-.049a.6.6 0 0 0 .055-.04c.043-.036.11-.088.149-.115.014-.009.026-.019.038-.029a.44.44 0 0 1 .067-.013.044.044 0 0 1 .024 0 .1.1 0 0 1-.017.017.4.4 0 0 1-.053.04c-.039.028-.11.079-.15.11-.085.07-.11.081-.147.082Zm1.011.042h.008c.013 0 .073.008.135.012a.99.99 0 0 1 .388.1c.053.023.065.022.068.017.016.016 0 .02-.069-.011a.99.99 0 0 0-.388-.1.9.9 0 0 1-.135-.013h-.024Zm-.064.867a.11.11 0 0 0 .034.03.08.08 0 0 1 .02.018v.025l-.005-.009c0 .008-.011.014-.017.008v-.017h.006a.17.17 0 0 0-.022-.032l-.11-.118a1 1 0 0 1-.086-.097c-.014-.019-.031-.036-.047-.054 0 0-.007-.011-.023-.019s-.011-.014-.018-.019a2 2 0 0 1-.067-.079.55.55 0 0 0-.061-.067c-.006 0-.011 0-.012.006l.007.009a.026.026 0 0 1 .006.025.5.5 0 0 1 .055.064.3.3 0 0 0 .032.033c.008.012.027.031.023.037h-.019v-.005a.24.24 0 0 1-.087.014.4.4 0 0 0-.102.014v.007h.03a.3.3 0 0 0-.044.007.33.33 0 0 1 .058-.008.8.8 0 0 0 .103 0 .8.8 0 0 0 .099-.013l.005.005s0 .008-.014.013-.019.013 0 .008.046.013.134.11l.037.04h.007c.006.005.006.013.01.02l.047.05v.011c.007 0 .01-.006.017 0v.009h-.009v.01c0 .008.006.017-.008.021a.3.3 0 0 0-.044.014.8.8 0 0 1-.11.032c-.006 0-.007-.021-.007-.047 0 .034 0 .065.007.065a.8.8 0 0 0 .11-.041.3.3 0 0 1 .044-.014c.016 0 .01-.015.01-.026 0 .009.015.019.014.028a.04.04 0 0 1-.006.02c-.007.012-.036.023-.165.061l-.11.032c-.056.018-.076.017-.088 0l.007.009a.018.018 0 0 1-.011.009l-.048.017a.77.77 0 0 1-.154.047l.013-.015v-.009c0-.007.022-.016.078-.033s.071-.024.078-.036-.019-.036-.067-.071l-.073-.055a.2.2 0 0 0-.046-.028h-.009a.5.5 0 0 0 .087.08c.058.045.084.063.084.076s-.027.02-.081.037a.3.3 0 0 0-.045.019c.024-.012.013-.03.054-.041s.05-.014.041-.026a.2.2 0 0 0-.038-.031l-.081-.063a.7.7 0 0 0-.054-.04l-.012-.011v-.033c0 .022.026.014.031-.01v-.006c-.015.015-.022.019-.018-.009l.012-.01.008-.052a.3.3 0 0 1 .021-.06.07.07 0 0 1 .013-.022c0-.017 0-.026-.01-.019a.36.36 0 0 0-.055.166.22.22 0 0 1 .013-.132c.028-.06.041-.065.229-.08.056 0 .063 0 .032-.043l-.017-.019-.016-.02a.4.4 0 0 1-.033-.048.1.1 0 0 0-.013-.024c-.011-.008-.009-.034 0-.049s.037-.017.133.097c.162.195.22.263.243.263a.055.055 0 0 1 .044.017.021.021 0 0 1 0 .019.077.077 0 0 0 .026.054Zm-.55.274-.008.008c-.02.014-.05.012-.045 0v-.008a.046.046 0 0 1 .029 0Zm-.07-.236a.06.06 0 0 1 0 .02c0 .011 0 .021-.007.021a.035.035 0 0 1 0-.037Zm.2-.582a.78.78 0 0 0-.171.22.77.77 0 0 1 .181-.238.055.055 0 0 0 .019-.028c.002.006.002.021-.03.043Zm-.242.295a.7.7 0 0 1-.017.064.2.2 0 0 1-.04.073c-.026.032-.031.055-.013.073l.01.009h.006v.041a.14.14 0 0 0 0 .06v.029h-.006a.13.13 0 0 1 0-.071v-.04h-.007l-.01-.009c-.017-.018-.013-.041.013-.073a.2.2 0 0 0 .04-.074.2.2 0 0 1 .018-.063.15.15 0 0 0 .006-.045.12.12 0 0 1 .045-.093c.016-.007.018-.013.018-.04a.07.07 0 0 1 .007-.037.11.11 0 0 0 .012-.027.34.34 0 0 1 .084-.133.35.35 0 0 0-.072.11.036.036 0 0 1-.012.027.07.07 0 0 0-.007.036c0 .028 0 .033-.018.041a.125.125 0 0 0-.045.093.15.15 0 0 1-.012.046Zm1.582.493a.066.066 0 0 0-.024.039.22.22 0 0 1-.017.053c-.016.036-.016.037 0 .053s0 .014 0 .02a.15.15 0 0 0-.023-.015h-.011l-.041-.014-.181-.064.007.008a.7.7 0 0 0 .123.045c.103.032.128.043.119.058v.007h.013c-.008.031-.046.052-.11.027s-.103-.035-.103-.014a.6.6 0 0 0 .039.145c.005.011-.018.021-.017.032a.66.66 0 0 0-.024-.094.44.44 0 0 1-.03-.119c0-.022.029-.01.093.013a.24.24 0 0 0 .082.022.033.033 0 0 1 .026 0 .024.024 0 0 0 .023-.009c.007-.009-.012.009-.018 0a.053.053 0 0 0-.034-.009.33.33 0 0 1-.086-.022c-.064-.022-.088-.026-.098-.013v.007s0 .008-.006.006l-.007-.017c.01-.012.033-.009.097.013a.33.33 0 0 0 .086.022.053.053 0 0 1 .034.009h.017v-.007c.008-.015-.017-.026-.121-.058a.66.66 0 0 1-.09-.034.8.8 0 0 0-.102-.041l-.134-.05a.3.3 0 0 0-.043-.016c-.009 0 0 0 0 .008a.2.2 0 0 1-.04-.01.065.065 0 0 0-.058 0 .1.1 0 0 0-.014.058c0 .04 0 .081.005.12v-.12c0-.013.017 0 .019 0s.027-.02.05-.013.008-.018.03-.008.091.039.135.055c.083.031.11.044.11.064a.8.8 0 0 0 .028.098c.012.04.024.085.033.11a.13.13 0 0 1 .012.029v.01c0 .008.011.02.016.02a.152.152 0 0 1-.081.161c-.056.04-.072.035-.209-.054a.6.6 0 0 0-.058-.035c.015 0 .021-.013.069.02a.157.157 0 0 0 .074.035l-.042-.023c-.029-.02-.046-.034-.038-.032l.02.011a.11.11 0 0 0 .027.022l.036.022.021.012v-.025l.011.005-.007-.005h-.006c0-.01-.01-.019-.04-.037l-.11-.068a.36.36 0 0 0-.073-.038c-.014 0-.021 0-.026-.026v.038c0 .031.009.11.011.17 0 .116.01.132.034.123a.013.013 0 0 0 .009-.014v-.009a.022.022 0 0 1 0-.016l.008-.009a.014.014 0 0 0 .008-.011v-.016h.057s-.008.014-.041.029-.057.05-.044.064a.9.9 0 0 0 .175-.051c.043-.017.064-.02.065-.014s-.025.029-.084.058a.704.704 0 0 1-.363.033h-.066c-.021 0-.041-.011-.062-.016s-.054 0-.082 0l.012-.01h.039a.8.8 0 0 1-.069-.019.77.77 0 0 1-.159-.081.6.6 0 0 1-.059-.037c-.03-.025-.067-.055-.098-.086a.26.26 0 0 0-.057-.049l.014.024.036.04c-.017-.018-.046-.021-.061-.04a.73.73 0 0 1-.138-.274c-.011-.045 0-.051.016-.031a.3.3 0 0 1 .032.064.063.063 0 0 0 .014.029c.008.01.015.007.027-.006s.014 0 .02-.01c0-.01.024-.022.099-.052l.16-.068c.015-.012.018-.021-.01-.022s-.022 0-.028-.04v-.037c-.066.019-.131.041-.193.065s-.1.032-.11.012v-.011s.019-.009.019-.014 0 .019.009.022a.18.18 0 0 0 .057-.016c.127-.049.245-.092.318-.115l.153-.049.095-.029c.017 0 .021-.009.026-.017-.009.017-.03.028-.11.054l-.143.046h-.011c-.011 0-.012.011 0 .016s.012.023 0 .061-.014.04.018.031h.022l.176-.078c.011-.008.012-.012.007-.02l-.006-.007c-.017-.018-.014-.037 0-.044s.022 0 .031.014a.033.033 0 0 1 .008.017h.018a.17.17 0 0 1 .035 0h.008l.008.007h-.006a.14.14 0 0 1 .009.036v.02a.12.12 0 0 0 .006.055h.017c.013 0 .015 0 .011-.01-.013-.032-.009-.049.015-.051s.028-.009.016-.031.035-.04.09-.026c.036.01.062.008.056 0a.06.06 0 0 0-.018-.009.044.044 0 0 1-.022-.015c-.007-.011-.009-.023 0-.031s.009-.011.007-.015-.009-.008-.019-.011a.055.055 0 0 1-.024-.02v-.01l-.01-.015a.04.04 0 0 0-.014-.009.038.038 0 0 1-.028-.015c-.006-.01 0-.019.031-.019s.029 0 .029-.01v-.006h-.02a.042.042 0 0 1-.01-.038c0-.012.033-.011.043 0s.021.013.03-.008.006-.017 0-.024v.008l-.008-.007c-.012-.013 0-.019.019-.008s.026.006.078-.072c.014-.022.05-.075.081-.119.11-.15.151-.226.142-.249l-.005-.008c-.021-.023-.077-.055-.088-.046a3.1 3.1 0 0 0-.22.369c-.095.199-.122.236-.162.211l-.024-.014-.013.017c-.01.012-.023.013-.031 0a.033.033 0 0 1-.01-.025c0-.015 0-.019.015-.023s.022-.007 0-.032l-.026-.03-.018-.02a.15.15 0 0 1-.025-.035.6.6 0 0 0-.055-.082c-.03-.04-.071-.099-.091-.131a2.2 2.2 0 0 0-.086-.121c-.05-.066-.058-.091-.034-.104s.021 0 .032 0 0-.007.007-.007a.025.025 0 0 1 .018.007.055.055 0 0 0 .023.011c.016 0 .028.016.054.056a.19.19 0 0 0 .051.063c.013-.046.025-.085.035-.117a1 1 0 0 1 .026-.076.11.11 0 0 1 .019-.029.85.85 0 0 0-.299.063c-.039.025-.063.029-.065.018s0-.019.021-.036.007-.01.006-.012a.053.053 0 0 0-.039.015c-.009.008-.008.011-.012.018 0-.008 0-.021.025-.036s.034-.017.04-.015 0 0-.007.012-.023.031-.021.036.026.007.065-.017a.85.85 0 0 1 .299-.064.044.044 0 0 1 .017-.024.5.5 0 0 1 .128-.007c.04 0 .076-.031.117-.024a.91.91 0 0 1 .31.11.44.44 0 0 0 .052.036 1.1 1.1 0 0 1 .077.081c-.023-.024-.043-.051-.069-.072a.44.44 0 0 1-.051-.036.95.95 0 0 0-.31-.11c-.041-.007-.077.024-.117.024h.069a.6.6 0 0 0 .07.014.9.9 0 0 1 .088.032.8.8 0 0 1 .11.039s.007-.008.012 0h-.007.009v.008a.42.42 0 0 1-.057.098c-.032.05-.067.11-.077.128a.3.3 0 0 1-.032.056c0 .008.016-.01.038-.053.01-.021.045-.078.077-.127a.42.42 0 0 0 .058-.098v-.01a.2.2 0 0 0 .02.008.06.06 0 0 0 .028.022.83.83 0 0 1 .127.084v.013l-.006.011-.008.014a.06.06 0 0 0-.012.028.29.29 0 0 1-.045.078.3.3 0 0 0-.042.066c0 .008.03.009.041.012h.11c.07 0 .1 0 .11.021a.22.22 0 0 1 .023.05c.029.075 0 .09-.007.126v.045a.44.44 0 0 0-.057.044l-.099.084a.15.15 0 0 0-.019.02h-.005a.06.06 0 0 0-.012.015.1.1 0 0 0-.017.017c0 .008-.026 0-.037 0h-.015c-.016 0-.019.01-.043 0a1.2 1.2 0 0 0-.136-.033c-.055-.012-.047-.025-.067-.034s-.035-.011-.037-.019-.019 0-.018-.009a.29.29 0 0 1 .049-.093.6.6 0 0 0 .049-.087s-.009 0-.027.032a.54.54 0 0 0-.099.167.035.035 0 0 0 .021.033 3.7 3.7 0 0 0 .409.1.63.63 0 0 1 .11.03.1.1 0 0 0 .056 0s.008 0 .021-.013.021-.007.026 0a.1.1 0 0 1 0 .021c.007.005.013.014.007.023Zm-.279.242v.022l-.009-.018a.14.14 0 0 1-.014-.043l-.005-.025h.005l.009.021a.3.3 0 0 1 .014.039Zm-.162-.212c.04.016.082.032.124.044h-.008Zm.11.065a.7.7 0 0 0-.073-.034l-.023-.009-.021-.008-.052-.022h-.013l-.039-.019c-.011-.008-.009-.011 0-.009l.026.012h.013l.052.022.044.018c.066.021.081.033.09.046Zm-.316.293a.033.033 0 0 1 .041 0v.014-.009c-.005-.016-.024-.014-.037-.008Zm.013.137-.013-.066a.24.24 0 0 1-.008-.073.23.23 0 0 0 .008.072Zm0-.064c0-.008.02.009.024.006a.24.24 0 0 0 0 .074.7.7 0 0 1-.024-.079Zm.018-.051h-.011l.012-.006Zm-.146-.536c-.033 0-.036-.008-.033-.017.009-.012.006-.03.024-.03a.08.08 0 0 0 .032 0 .015.015 0 0 1 .016 0h.012v.02a.033.033 0 0 1 0 .017.051.051 0 0 1-.042.029.078.078 0 0 1-.081-.007c-.006.007.014 0 .019-.007l.024-.013c0 .007.01.012.035.015s.01-.008.018-.01-.012 0-.019 0Zm.082.027v-.01c0-.014 0-.023.015-.023v.016c.008.018-.004.018-.009.018Zm.447-.852a.23.23 0 0 0 .067.049.21.21 0 0 1-.062-.052Zm-.061.337c-.024.032-.037.05-.034.058a.013.013 0 0 1-.01-.014v-.008h.01a.18.18 0 0 0 .04-.039Zm.174.517c-.051-.011-.09-.02-.089-.035s.027-.039.086-.089a.29.29 0 0 0 .068-.073c-.008.01.01.036 0 .043a.58.58 0 0 0-.127.118.46.46 0 0 0 .098.044c.014 0 .02 0 .027-.021s.012-.026.016-.018a.07.07 0 0 1 .008.025.14.14 0 0 0 .021.052v-.005a.031.031 0 0 1-.023-.014c.001-.009-.029-.019-.08-.028Zm.06.026h-.008l-.014-.005Zm-.154-.054h-.007a.033.033 0 0 1 0-.025v-.005h.007v.01a.03.03 0 0 0 0 .024Zm-.05.041a.46.46 0 0 1-.098-.014 1.5 1.5 0 0 1-.197-.055.33.33 0 0 1 .058.008c.11.026.206.048.23.051s.013.001.012.007Zm-.351-.086h-.01a.016.016 0 0 1-.011-.015h.01a.06.06 0 0 1 .016.012Zm.629-.313-.019-.019a.18.18 0 0 1-.016-.036.09.09 0 0 1-.02-.031.55.55 0 0 0-.073-.11c-.018-.024-.044-.043-.064-.066v-.006c.018.02.04.038.058.06a.55.55 0 0 1 .072.11.14.14 0 0 0 .02.031.2.2 0 0 0 .027.031l.018.018c.015.016.02.038.033.097a.24.24 0 0 0-.03-.082Zm-.126-.367v.005c-.011 0-.035-.024-.035-.031.016.008.03.021.04.022Zm.018.015h.011a.015.015 0 0 1 .01.014c.006.008 0 .008-.01 0s-.005-.014-.005-.017Zm.141.452a.55.55 0 0 0 .036.115.5.5 0 0 1-.033-.11Zm.067.506c-.016 0-.011 0-.017-.014a.25.25 0 0 1-.039-.122.25.25 0 0 0 .035.109c.007.009.012.015.018.015a.4.4 0 0 0 .047-.13h.007c.013.02-.029.141-.045.141Zm.08-.315c-.006.067-.017.096-.029.084a.05.05 0 0 1-.012-.024c0-.01-.007-.02-.011-.03s-.012-.007-.022 0-.014.012-.017.007v-.008c-.015-.017-.023.055-.009.102-.017-.042-.008-.123.008-.11v.008a.033.033 0 0 0 .017-.007c.009-.006.015-.01.022 0s.007.02.011.03a.07.07 0 0 0 .012.024c.012.012.023-.016.029-.083a.22.22 0 0 0 0-.061.22.22 0 0 1 .006.065Zm-.343-.948a1.172 1.172 0 0 1 .495.676 1.19 1.19 0 0 0-.489-.679Zm.502.33a1.4 1.4 0 0 1-.118-.131 1.4 1.4 0 0 0-.382-.299c-.026-.015-.047-.044-.073-.057l-.015-.012h-.027a1.371 1.371 0 0 0-1.241.103l-.07.014a1.5 1.5 0 0 0-.136.077.055.055 0 0 1-.021.011v-.006l.012-.021a1.02 1.02 0 0 1 .283-.259 1.05 1.05 0 0 0-.264.242l-.013.02a.07.07 0 0 0 .019-.009c.044-.028.09-.054.137-.077l.055-.03a1.379 1.379 0 0 1 1.233-.11 1.56 1.56 0 0 0-.841-.11c-.209.03-.233.025-.131-.027a1.38 1.38 0 0 1 .383-.109 1.7 1.7 0 0 1 .364.013 1.16 1.16 0 0 1 .163.035.44.44 0 0 0 .064.019 1.44 1.44 0 0 1 .39.25.3.3 0 0 0 .037.043 1.43 1.43 0 0 1 .163.198c-.011-.006-.011 0-.034-.018a1.3 1.3 0 0 0-.182-.129c-.02-.01-.077-.043-.127-.072a1.7 1.7 0 0 0-.19-.073c.026.013.047.041.073.057a1.36 1.36 0 0 1 .382.298c.042.048.095.11.118.131l.11.11c.016.018.022.023.032.033l.007.015a.12.12 0 0 1 .008.045l-.029-.026c-.009-.011-.013-.011-.033-.032a1.4 1.4 0 0 0-.101-.107Zm.066.712a.31.31 0 0 1-.016-.104c0-.027-.008-.055-.013-.082 0 .031.02.058.021.09a.22.22 0 0 0 .008.085Zm.159.352.017-.01c-.136.006-.174 0-.174-.012s.01-.017.09-.019a.3.3 0 0 0 .077 0c.011-.012.136 0 .136.015s-.015.024-.142.029Zm.164-.33a.14.14 0 0 0-.053 0 .95.95 0 0 1-.147.008c-.078 0-.11 0-.122-.018h.121c.11 0 .136 0 .142-.037s0-.057 0-.084c-.01-.11-.016-.308-.012-.342a2.1 2.1 0 0 1 .018.22c.013.22.021.251.061.253Zm-.013-1.491a.018.018 0 0 1-.009-.011v-.203c0-.016.008-.034.012-.05s.007-.011.008 0a.13.13 0 0 1 0 .029v.193a.018.018 0 0 0 .009.011.12.12 0 0 0 .059-.011c.155-.043.185-.055.213-.086a.11.11 0 0 1 .028-.022c.027 0 .122-.094.165-.153-.029.054-.151.175-.182.175a.1.1 0 0 0-.028.022c-.029.031-.058.043-.212.086a.13.13 0 0 1-.06.017Zm5.004 1.881.012-.01h-.023c.234 0 .427-.007.43-.01a.03.03 0 0 1 .033 0 2.86 2.86 0 0 1-.449.018Zm.512 0 .012-.009h.007Zm0-.014.012-.009h.007Zm.076-.449a1.07 1.07 0 0 0-.015.22l.012-.009c0 .139.015.128-.148.128-.209 0-.317-.012-.227-.025.062-.01.056-.018-.013-.018s-.099 0-.094.021-.028.024-.07.03a.13.13 0 0 1-.036.006h-.69c-1.008.013-1.886.023-3.789.041a2.57 2.57 0 0 1-.487 0c-.02-.024 0-.025.596-.03l.862-.007.712-.008c.241 0 .473 0 .517-.008s.354-.006.688-.01l.786-.011.471-.007c.33 0 .362-.008.365-.029a.22.22 0 0 1 .087-.099 2.3 2.3 0 0 0 .176-.17l.11-.11.011-.013a.11.11 0 0 1 .025-.019.47.47 0 0 1 .151.008c.01.007.011.031.004.116Zm.715-.429-.021-.024-.047-.037c-.032-.04-.044-.06-.044-.071s.04-.061.052-.061a.09.09 0 0 0 .032-.026.4.4 0 0 1 .059-.05l.043-.032a.9.9 0 0 0-.145.073 1.8 1.8 0 0 0-.16.178c0 .016-.025.032-.033.02s-.05.015-.05.05a.09.09 0 0 1-.021.038.52.52 0 0 0-.073.219.11.11 0 0 1-.023.043.152.152 0 0 0-.025.149l.011.017c.012.011.024 0 .042-.026s.024-.03.028-.022a.173.173 0 0 1-.021.11c-.025.059-.053.079-.065.056a.07.07 0 0 1-.007-.039.06.06 0 0 0 0-.019.1.1 0 0 1-.008-.033v-.033a.22.22 0 0 1-.015-.084 1.03 1.03 0 0 1 .062-.384 1.25 1.25 0 0 1 .091-.179.25.25 0 0 0 .024-.042 1.32 1.32 0 0 1 .227-.233.6.6 0 0 0 .053-.035 1.17 1.17 0 0 1 .187-.088.22.22 0 0 0 .043-.015.77.77 0 0 1 .23-.044.9.9 0 0 1 .152 0h.103l.03.006.036.01h.017c.048.014.071.055.11.075a.9.9 0 0 0-.147-.056l-.069-.018a1.7 1.7 0 0 0-.249-.011l-.073.011a.44.44 0 0 0-.136.032.11.11 0 0 1-.037.013 1.03 1.03 0 0 0-.186.091.11.11 0 0 1-.027.017 1.02 1.02 0 0 0-.174.156.08.08 0 0 1-.021.026.28.28 0 0 0-.053.074.3.3 0 0 1-.026.042.09.09 0 0 0-.017.04c0 .01 0 .016.009.013a.7.7 0 0 0 .057-.065.55.55 0 0 1 .087-.089c.021-.015.068-.055.103-.088a.275.275 0 0 1 .09-.065.13.13 0 0 0 .044-.017 1 1 0 0 1 .135-.058c-.026.01-.054 0-.078.017-.066.03-.11.038-.11.024a.176.176 0 0 1 .076-.052.03.03 0 0 0 .022-.01.184.184 0 0 1 .088-.039.027.027 0 0 0 .019-.007.37.37 0 0 1 .151-.036l.084-.011a1.16 1.16 0 0 1 .194.01.4.4 0 0 1 .052.01l.01.017h-.146a.8.8 0 0 0-.085.019.7.7 0 0 1 .065 0 .564.564 0 0 1 .339.077c.033.032.035.032.053.018a.066.066 0 0 1 .039-.011c.01 0 .011 0 .011-.008a.94.94 0 0 1 .262.17l.006.01.029.04.046.072c.018.026.017.035 0 .035s-.022.012-.007.033.015.052.008.052a.044.044 0 0 1-.031-.021l-.008-.015c-.006-.01-.013-.02-.019-.03a.025.025 0 0 1-.01-.034l.01-.01a.025.025 0 0 0 .013-.016.033.033 0 0 0-.008-.017c-.013-.013-.014-.013-.014 0s-.025.026-.059-.01c-.061-.064-.06-.063-.09-.063s-.038-.007-.071-.031l-.072-.051a.5.5 0 0 1-.062-.045.12.12 0 0 0-.05-.024.18.18 0 0 1-.053-.011 1.2 1.2 0 0 0-.179-.009.1.1 0 0 1 .015.01l.015.032a.8.8 0 0 0 .032.086.5.5 0 0 0 .044.117c.014.017.027-.006.058-.059.073-.124.078-.129.127-.098a.06.06 0 0 1 .015.013c.017.02 0 .052-.086.182l-.115.18.058-.094c.021-.039.061-.102.087-.139a.24.24 0 0 0 .047-.081.021.021 0 0 0-.012-.018c-.02-.011-.021-.01-.029.013s-.01.02-.017.018-.026.016-.071.094-.057.091-.129-.117a.15.15 0 0 0-.024-.05h-.005a.4.4 0 0 0 .037.11l.046.126a.084.084 0 0 0 .022.039.02.02 0 0 1 .007.019.84.84 0 0 1-.097.179l-.084.137h-.031c-.038 0-.034.009-.131-.157-.062-.11-.079-.14-.076-.162v-.017c.007-.011.025-.065.074-.22.01-.031.013-.05.01-.054s-.018.023-.029.046a.11.11 0 0 0-.012.033.8.8 0 0 1-.051.149c-.014.011-.02 0-.066-.068a.42.42 0 0 0-.064-.082c-.012-.008-.021-.019-.021-.025s-.03-.014-.041 0l-.007.012c0 .016.012.038.049.087.057.076.097.14.248.365a.77.77 0 0 0 .099.133s-.011.01-.016 0-.072-.11-.148-.22c-.11-.161-.188-.282-.23-.33-.014-.016-.024-.025-.028-.025a.12.12 0 0 0-.034.021.4.4 0 0 1-.039.026c-.028.009 0 .065.099.185l.045.055.046.056c.025.032.048.061.059.076l.048.061.013.016.024.03.019.024.008.01c.007.008.01 0 .025 0s.021-.012.03 0 0 .032-.018.035-.013 0 0 .03a.04.04 0 0 1-.007.059s0-.009-.008-.009a2.64 2.64 0 0 0-.242-.323 3.3 3.3 0 0 1-.128-.164c-.055-.076-.066-.083-.089-.058l-.009.013.011.012a.17.17 0 0 1 .02.029.4.4 0 0 0 .06.081c.035.041.055.063.052.076s-.04.018-.132.02c-.074 0-.11.006-.118.015v.009a2.2 2.2 0 0 0 .283-.015c.018-.009.04.014.149.149s.11.15.09.164l.015-.008a.04.04 0 0 1 .015-.01s.009 0 .011.014l-.021.011c-.017.007-.066.022-.101.033s-.059 0-.101.017l.079-.026a.44.44 0 0 0 .06-.021l-.073.022-.16.044c-.06.02-.079.023-.081.016s-.036-.028-.053-.044c.008.008.018.017.018.022s-.035.025-.11.044a.12.12 0 0 0-.04.02c.024-.013 0-.029.044-.042s.076-.019.061-.038a.44.44 0 0 0-.066-.054.66.66 0 0 1-.11-.09c-.032-.039-.021-.069.007-.161s.026-.088.063-.093a1.14 1.14 0 0 1 .185-.019c.058.005.066.005.025-.045Zm-.024-.414a.44.44 0 0 1-.074.057c-.015 0 0-.02.018-.038a.1.1 0 0 1 .048-.026c0 .007 0 .008-.006.015Zm-.089.068-.016.012v.007c-.007.005-.012.006-.014 0s0-.008 0-.02l.01-.007h.004Zm1.454.323.006.011c.007.01.007.02 0 .026s-.017-.007-.026-.017a.033.033 0 0 1-.01-.02c.003-.017.017-.017.033-.003Zm-.61-.073a.014.014 0 0 1-.012 0v-.013h.012c.005 0 .004.007.004.009Zm-.168.347c.009-.014.017-.029.027-.042s.041-.061.064-.097l-.007.013a2.2 2.2 0 0 1-.08.123Zm.043.048a.016.016 0 0 1-.015.018.016.016 0 0 1-.012 0 .016.016 0 0 1 0-.024h.021Zm-.024.899c0 .049.01.07.021.074h-.04s-.006-.008-.011-.008h-.098v-.198a.12.12 0 0 0 .062.009h.057a.4.4 0 0 0 0 .045v.01a.22.22 0 0 0 .012.065Zm.007-.478v-.008l.007.049a.6.6 0 0 1 0 .059c.004-.037-.002-.076-.004-.104Zm-.128.341v-.068a.14.14 0 0 0 0 .036c.007.018.016.008.033.008h.022s0 .01-.03.013-.027.007-.028.012Zm.054-.592a.09.09 0 0 0-.034 0 .023.023 0 0 1-.029-.01.037.037 0 0 1-.011-.048h.014a.2.2 0 0 1 .11-.011l.009.005a.038.038 0 0 1 0 .041c-.017.024-.037.034-.062.024Zm-.068-.116a.022.022 0 0 1 .016 0h.014l-.006.01-.013.007h-.007Zm.072-.08h.012v.008Zm-.22-.36a.011.011 0 0 1-.009.011v.053l-.016-.021c-.014-.015-.02-.026-.017-.03h.018v-.021h.011a.012.012 0 0 1 .013.01Zm-.067-.101h-.031c0 .016-.079-.082-.081-.11 0-.009.018-.006.022.01a.03.03 0 0 0 .024.022.038.038 0 0 1 .028.024.13.13 0 0 0 .021.033.033.033 0 0 1 .017.022Zm.137.414a.013.013 0 0 1-.013.02h-.007v-.008a.014.014 0 0 1 .014-.014Zm0 .265a.023.023 0 0 1-.021.023.022.022 0 0 1-.017-.007.018.018 0 0 1 0-.026l.01-.001c.013 0 .023 0 .026.006Zm-.284.008a.2.2 0 0 0 .057-.011l-.021.006a.22.22 0 0 1-.057.011h-.02l.021-.012a.33.33 0 0 1 .056-.021.3.3 0 0 0-.039.016l-.021.012Zm-.317.324c-.009-.031 0-.04.138-.096.161-.068.169-.072.11-.067h-.044l-.015-.024a.11.11 0 0 1-.014-.041c0-.01 0-.014-.015-.014a.6.6 0 0 0-.101.029c-.091.033-.11.036-.125.016s.031-.019.031-.03c.006.015.014.023.076 0a1.54 1.54 0 0 1 .241-.072c.096-.023.166-.044.22-.063-.038.011-.072.023-.088.03s-.014.021-.014.045 0 .038-.024.049-.049.036-.036.036l.025-.009.024-.009.11-.051c.12-.053.166-.067.185-.044a.08.08 0 0 1 .011.036.04.04 0 0 0 0 .017h-.008v.119a2.1 2.1 0 0 1-.007.22v.078-.113c0 .022 0 .034-.007.034s0-.012-.006-.033v-.039h.013v-.089.054-.246h-.01v-.007c-.014-.009-.045 0-.212.077-.081.035-.401.165-.428.174a.022.022 0 0 0-.016.02.03.03 0 0 0 .009.025h.024a.033.033 0 0 1 .026-.007.36.36 0 0 0 .089-.028c.047-.02.039 0 .056 0-.149.058-.195.075-.211.057a.05.05 0 0 1-.006-.033Zm.683-.272v.019Zm-.4.648a.36.36 0 0 1-.062-.055c-.012-.013-.015-.022 0-.016.032.012.041.013.03 0l-.018-.019a.11.11 0 0 1-.023-.023c-.009-.011-.01-.018-.006-.027a.2.2 0 0 0 .006-.04 1 1 0 0 1 .028-.118.34.34 0 0 0 .022-.11c0 .006.029-.011.028 0a.09.09 0 0 1-.007.037.17.17 0 0 0-.008.04.55.55 0 0 0 .035-.126c0-.03.01-.037.063-.061l.159-.075c.072-.034.102-.047.12-.044s.018 0 .019.018v-.034.456a.3.3 0 0 1 0 .089c0 .04-.01.089-.011.11a.3.3 0 0 1 0 .05s0 .007.012.01h-.05a.46.46 0 0 1-.094-.007.44.44 0 0 0-.093 0h-.017l.026.014a.72.72 0 0 1-.158-.068Zm.184.087.015-.009a.74.74 0 0 0 .26.01h.04a.8.8 0 0 0 .162.007.15.15 0 0 1 .038-.012l.08-.029a.743.743 0 0 0 .35-.24.813.813 0 0 1-.943.274Zm.44-.186a.44.44 0 0 1 0-.076c0-.027.012-.031.032-.018a1.4 1.4 0 0 1 .163.109.043.043 0 0 0 .033.016c.012 0 .022 0 .024.01s.028 0 .048-.011c-.022.014-.044.027-.068.039s-.022.012-.033.019a1.1 1.1 0 0 1-.097.037c-.033.011-.016.011-.027.018s-.048.01-.074.013c0 0 .011 0 .013-.01v-.018a.02.02 0 0 1 .006-.017v-.016a.55.55 0 0 1-.023-.094Zm-.008-.11.012-.008s-.005.015-.016.015Zm0 0h-.007a.009.009 0 0 1 .01-.008c-.013.007-.01.009-.01.013Zm.549-.013a.33.33 0 0 0-.056.054c-.039.042-.095.048-.14.081.047-.038.084-.073.084-.084s-.037 0-.11.049-.08.046-.126.014a.8.8 0 0 0-.065-.04.5.5 0 0 1-.135-.099.06.06 0 0 1-.018-.02v.078a.55.55 0 0 0 .011.103.39.39 0 0 1 .011.142.35.35 0 0 0-.01-.132.46.46 0 0 1-.01-.11 2.8 2.8 0 0 0-.024-.302v-.068a.14.14 0 0 1 0-.074c0-.014.019-.018.039-.013h.015a.09.09 0 0 0 0 .028c0-.021.011-.023.019-.03h.011-.009s.009-.01.016-.009l-.006-.017a.027.027 0 0 0-.028.015l-.014-.01c-.03-.016-.027 0-.038 0s-.025.043-.032.037-.007-.018 0-.029h-.011a.4.4 0 0 0 0 .103v.128a1.65 1.65 0 0 0-.028-.21c0-.013.006-.013 0-.028s.018-.048.058-.046.036 0 .036-.009 0-.009.008-.012h.021a.019.019 0 0 1 0 .018v.017a.19.19 0 0 0 .05.024c.023.013.037.022.037.025h-.038a.58.58 0 0 1 .131.043c.069.024.129.046.134.046a.095.095 0 0 1 .066.05c.01.039.016.046.031.033s.017-.011.092.017a.47.47 0 0 0 .104.029.1.1 0 0 1 .018 0v.007h.009c0 .007.012 0 .018-.01a.2.2 0 0 1-.009.067l.014-.009a.77.77 0 0 1-.138.157Zm.007-.253h.02l.015.005a.031.031 0 0 1-.027-.006Zm.101.024a.02.02 0 0 0-.012-.011c.007-.012.016-.03.018-.025s-.018.028-.018.041Zm-.068-.157a24 24 0 0 0-.44-.12c-.131-.034-.191-.053-.207-.077s0-.041.035-.077.046-.058.037-.069 0-.018.016-.013a1.24 1.24 0 0 0 .303-.367.4.4 0 0 1 .052-.071c.015-.014.026-.01.044 0l.012.012c.022.027 0 .064-.064.153-.027.034-.04.052-.033.06s.041.009.103.01a.9.9 0 0 1 .12.009.03.03 0 0 0 .023 0 .027.027 0 0 1 .021.011.47.47 0 0 1 .069.175l.008.033-.031.032a1.5 1.5 0 0 1-.11.094c-.045.036-.069.058-.064.069s.026.012.062.02a.28.28 0 0 1 .139.061.04.04 0 0 1 .005.045c-.037.033-.055.034-.112.014Zm.157-.251h.01a.21.21 0 0 1-.035-.082.5.5 0 0 0-.022-.088.8.8 0 0 1-.014-.058.07.07 0 0 1 .011.024.24.24 0 0 0 .015.045.19.19 0 0 0 .035.079l.021.023.02.022a.062.062 0 0 1 .019.042c-.017.042-.045.028-.072-.002Zm.039-.66-.017-.022-.035-.046a1.202 1.202 0 0 0-1.665-.116 1.26 1.26 0 0 0-.404.688l.013-.009c-.01.057-.022.076-.051.08l-.086.011a.29.29 0 0 0-.086.024c-.024.015-.085.022-.09.008l-.007-.015c.006 0 .025 0 .025.009s.015.017.044 0a1 1 0 0 1 .163-.043c.031-.007.036-.013.051-.082a1.298 1.298 0 0 1 .458-.729c.031-.024.065-.054.077-.066s.024-.021.032-.018a.35.35 0 0 0 .098-.039 1.21 1.21 0 0 1 1.439.285c.033.038.054.063.062.069s-.024.027-.033.017Zm.03-.212a.037.037 0 0 1-.022 0 .17.17 0 0 1-.052-.036 1.36 1.36 0 0 0-.314-.203 1.384 1.384 0 0 0-1.091-.034.22.22 0 0 1-.055.021c-.007 0 0-.009 0-.028v-.017a.22.22 0 0 0 .052-.02 1.384 1.384 0 0 1 1.091.034 1.36 1.36 0 0 1 .318.205.18.18 0 0 0 .047.034.033.033 0 0 0 .021 0h.025l.04.02c.028.011.043.011.05 0v.011a.033.033 0 0 1 0 .021c0 .028-.013.034-.05.014a.24.24 0 0 1-.045-.022Zm-15.395-.437h-.002v1.803h.563v-.591l.002-1.214h-.563Zm6.6 2.433h1.08v.107h-1.08Zm-6.592-4.006v.837h.54l.002-.837h-.002Zm-.172 3.6h.907v-2.22h-.907Zm.088-2.095h.71v1.973h-.707Z"/></svg>