<svg xmlns="http://www.w3.org/2000/svg" viewBox="0 0 24 24"><path fill="#44739e" d="M20.77 15.309c-.63-.594-3.485-3.311-4.253-5.636a4.5 4.5 0 0 1-.239-1.4 3.4 3.4 0 0 1 .242-1.208 9.11 9.11 0 0 1 1.912-2.714c.337-.356 1.79-1.811 2.271-2.292a.81.81 0 0 0 .213-.401 2.1 2.1 0 0 0 .038-.385V1L12.27 7.764a.768.768 0 0 0-.291.376.8.8 0 0 0-.288-.377L3.014 1v14.543l8.684-6.763a.79.79 0 0 0 .288-.378.695.695 0 0 0 .187.29c.628.594 3.485 3.31 4.252 5.635a4.5 4.5 0 0 1 .242 1.401 3.4 3.4 0 0 1-.242 1.208 9.14 9.14 0 0 1-1.912 2.713c-.337.354-1.793 1.811-2.272 2.293a.81.81 0 0 0-.213.401 2.13 2.13 0 0 0-.037.385V23l8.684-6.763a.688.688 0 0 0 .311-.509.628.628 0 0 0-.216-.419M7.675 6.975c-.815-2.219-3.916-4.817-4.44-5.264.572.447 3.926 3.046 4.81 5.264a3.52 3.52 0 0 1 .273 1.297 3.52 3.52 0 0 1-.273 1.296c-.884 2.217-4.237 4.816-4.809 5.264.524-.446 3.624-3.046 4.439-5.264a3.76 3.76 0 0 0 .253-1.296 3.76 3.76 0 0 0-.253-1.297m-.654 4.979c.116-.107.232-.211.339-.313a11.23 11.23 0 0 0 1.771-2.333c.294-.564.391-.811.938-.862.579-.055.958-.071 1.294-.076.136 0 .199.017.219.087s-.034.125-.135.197c-.891.627-2.177 1.709-3.994 3.114-.116.09-.232.182-.347.271a5.64 5.64 0 0 1-.811.59c-.014-.007.214-.214.726-.674Zm13.397 4.155c-.891.628-2.2 1.684-3.994 3.115a14.8 14.8 0 0 1-1.213.862 11.38 11.38 0 0 0 2.574-3.289c.267-.579.392-.81.938-.862.579-.055 1.273-.105 1.61-.109.136 0 .201.017.222.087s-.035.125-.137.196M12.607 8.37c.336 0 .711.021 1.294.076.546.053.644.298.937.862a11.28 11.28 0 0 0 1.772 2.334c.11.102.992.968.971.987s-.951-.77-1.065-.861c-1.796-1.432-3.102-2.487-3.993-3.114-.102-.072-.15-.145-.136-.197s.084-.088.22-.087m8.056-6.403c-.75.611-3.898 3.438-4.587 5.106a3.2 3.2 0 0 0-.273 1.199 4 4 0 0 0 .231 1.315 5.8 5.8 0 0 0 .388.858c0 .012.015.023.021.035a19.63 19.63 0 0 0 3.742 4.373l.073.067c-.428-.333-.835-.7-1.436-1.251a21 21 0 0 1-1.746-1.853 6.062 6.062 0 0 1-1.788-3.544 5.037 5.037 0 0 1 1.808-3.23c.619-.615 2.926-2.611 3.575-3.09ZM12.301 21.99c.479-.479 1.928-1.93 2.267-2.289a8.9 8.9 0 0 0 1.928-2.738 3.43 3.43 0 0 0 .246-1.235 4.57 4.57 0 0 0-.246-1.425 15.875 15.875 0 0 0-3.86-5.271c.493.441 3.49 3.127 4.275 5.382a4 4 0 0 1 .231 1.316 3.2 3.2 0 0 1-.273 1.198c-.695 1.682-3.895 4.548-4.612 5.127.014-.02.026-.046.044-.065m-.207.419v.019Z"/></svg>