<svg xmlns="http://www.w3.org/2000/svg" fill="#44739e" viewBox="0 0 24 24"><path d="M19.7556 14.8346c-.544-.513-3.01-2.86-3.673-4.868a3.88 3.88 0 0 1-.206-1.209 2.94 2.94 0 0 1 .209-1.043 7.87 7.87 0 0 1 1.651-2.344c.291-.307 1.546-1.564 1.961-1.979a.7.7 0 0 0 .184-.347 1.8 1.8 0 0 0 .033-.332v-.236l-7.5 5.842a.663.663 0 0 0-.251.324.69.69 0 0 0-.249-.325l-7.494-5.841v12.56l7.5-5.841a.684.684 0 0 0 .249-.326.6.6 0 0 0 .161.25c.543.513 3.01 2.859 3.673 4.867a3.88 3.88 0 0 1 .209 1.21 2.94 2.94 0 0 1-.209 1.043 7.89 7.89 0 0 1-1.652 2.343c-.291.306-1.548 1.564-1.962 1.98a.7.7 0 0 0-.184.347 1.84 1.84 0 0 0-.032.332v.235l7.5-5.841a.594.594 0 0 0 .269-.439.542.542 0 0 0-.187-.362m-11.309-7.198c-.704-1.916-3.382-4.16-3.835-4.546.494.386 3.391 2.631 4.154 4.546a3.04 3.04 0 0 1 .236 1.12 3.04 3.04 0 0 1-.236 1.12c-.763 1.914-3.659 4.159-4.153 4.546.453-.385 3.13-2.631 3.834-4.546a3.25 3.25 0 0 0 .218-1.12 3.25 3.25 0 0 0-.218-1.12m-.565 4.3c.1-.092.2-.182.293-.27a9.7 9.7 0 0 0 1.529-2.015c.254-.487.338-.7.81-.744.5-.048.828-.062 1.118-.066.117 0 .172.015.189.075s-.029.108-.117.17c-.769.542-1.88 1.476-3.449 2.69-.1.077-.2.157-.3.234a4.87 4.87 0 0 1-.7.509c-.012-.006.185-.185.627-.582zm11.57 3.589c-.769.542-1.9 1.454-3.449 2.69a12.8 12.8 0 0 1-1.048.744 9.83 9.83 0 0 0 2.223-2.84c.231-.5.339-.7.81-.745.5-.047 1.1-.09 1.391-.094.117 0 .173.015.191.075s-.03.108-.118.17m-6.746-6.684c.29 0 .614.018 1.118.066.471.045.556.257.809.744a9.74 9.74 0 0 0 1.53 2.016c.095.088.857.836.839.852s-.821-.665-.92-.743c-1.551-1.237-2.679-2.148-3.448-2.69-.088-.062-.13-.125-.118-.17s.073-.076.19-.075m6.958-5.53c-.648.528-3.367 2.969-3.962 4.41a2.76 2.76 0 0 0-.236 1.035 3.45 3.45 0 0 0 .2 1.136 5 5 0 0 0 .335.741c0 .01.013.02.018.03a16.95 16.95 0 0 0 3.232 3.777l.063.058c-.37-.288-.721-.605-1.24-1.081a18.1 18.1 0 0 1-1.508-1.6 5.235 5.235 0 0 1-1.544-3.061 4.35 4.35 0 0 1 1.561-2.789c.535-.531 2.527-2.255 3.088-2.669zm-7.222 17.293c.414-.414 1.665-1.667 1.958-1.977a7.69 7.69 0 0 0 1.665-2.365 2.96 2.96 0 0 0 .212-1.066 3.95 3.95 0 0 0-.212-1.231 13.71 13.71 0 0 0-3.334-4.552c.426.381 3.014 2.7 3.692 4.648a3.45 3.45 0 0 1 .2 1.136 2.76 2.76 0 0 1-.236 1.035c-.6 1.453-3.364 3.928-3.983 4.428.012-.017.022-.04.038-.056m-.179.362v.016z"/></svg>