<svg xmlns="http://www.w3.org/2000/svg" viewBox="0 0 24 24"><path fill="#44739e" d="M5.862 7.653v3.71a4.53 4.53 0 0 0-1.367-.205C2.564 11.158 1 12.194 1 13.751c0 1.755 1.564 2.596 3.495 2.596a4.5 4.5 0 0 0 1.364-.204v.186h3.942v-4.15h1.17v3.087s.194 1.048 2.65 1.048a14.2 14.2 0 0 0 2.156-.275 1.86 1.86 0 0 1 .666-.075 5.8 5.8 0 0 1 .895.179 10.7 10.7 0 0 0 1.715.171 10.1 10.1 0 0 0 1.852-.117c.981-.165 2.47-.953 2.008-2.038a3.41 3.41 0 0 0-1.056-1.067c-.128-.096-1.153-.835-.3-1.135a2.02 2.02 0 0 1 .454-.057c.14 0 .588.011.588.011l.103-.467a9.29 9.29 0 0 0-2.79-.357c-.748 0-3.401.272-3.401 1.511 0 .942 1.637 1.858 1.719 1.93.104.097.301.305.272.47 0 .197-.311.69-1.286.465a3.08 3.08 0 0 0-1.572-.076s-.594.079-.705-.135v-3.073h1.049v-1.017h-1.063V8.37l-3.943 1.678v1.11H9.816V7.653Zm.126 7.605a1.555 1.555 0 0 1 0-2.996Z"/></svg>