<svg xmlns="http://www.w3.org/2000/svg" viewBox="0 0 24 24"><path fill="#44739e" d="M14.979 2.244a4.59 4.59 0 0 0-2.238.534 5.065 5.065 0 0 0-2.743 3.745 4.803 4.803 0 0 0 .272 2.64 9.1 9.1 0 0 0 .421.936c-.805.056-1.62.103-2.425.178a.374.374 0 0 1-.337-.178 7.302 7.302 0 0 0-3.744-2.856.646.646 0 0 0-.862.225 8.97 8.97 0 0 0-1.788 2.996 9.3 9.3 0 0 0-.524 2.809 11.7 11.7 0 0 0 .159 2.49 8.22 8.22 0 0 0 .815 2.49 2.62 2.62 0 0 1 .365.562c.318.43.346.365.655.833l.271.3.3.177a15.5 15.5 0 0 0 3.951 1.311 15.26 15.26 0 0 0 2.93.318 13.5 13.5 0 0 0 1.498-.056 18.8 18.8 0 0 0 2.284-.299 22.8 22.8 0 0 0 2.509-.759 2.135 2.135 0 0 0 1.17-.721 9.36 9.36 0 0 0 1.779-4.091 8.76 8.76 0 0 0-.206-3.623c-.14-.533-.365-1.03-.552-1.544v-.094a.346.346 0 0 1 .337-.365 6 6 0 0 0 1.226-.122 3.202 3.202 0 0 0 2.36-2.256 7.28 7.28 0 0 0 .131-1.741.477.477 0 0 0-.403-.553h-2.883c0-.093-.085-.196-.131-.29a4.943 4.943 0 0 0-3.829-2.902 4.2 4.2 0 0 0-.768-.094m-.431 1.17a3.25 3.25 0 0 1 .852 0 3.745 3.745 0 0 1 1.975.796 3.81 3.81 0 0 1 1.377 2.341 3.576 3.576 0 0 1-.281 2.284 8.3 8.3 0 0 1-.721 1.114.693.693 0 0 0-.084.73c.234.571.477 1.096.655 1.657a6.96 6.96 0 0 1 .234 3.006 7.255 7.255 0 0 1-.936 2.808 6.1 6.1 0 0 1-.721 1.067 1.92 1.92 0 0 1-.674.347 14.98 14.98 0 0 1-3.23.833c-.524.056-1.058.094-1.591.112a7.9 7.9 0 0 1-1.049 0 16.95 16.95 0 0 1-3.155-.412 17.25 17.25 0 0 1-3.136-1.086 1.872 1.872 0 0 1-.936-1.076c-.272-.618-.487-1.348-.74-2.069a4.96 4.96 0 0 1-.14-.936 6.24 6.24 0 0 1-.075-1.171h-.056a16.5 16.5 0 0 1 .412-2.443 7.255 7.255 0 0 1 1.488-2.809.225.225 0 0 1 .215 0 6.15 6.15 0 0 1 2.996 2.687.552.552 0 0 0 .581.328c.777-.056 1.554-.15 2.331-.206.309 0 .618 0 .936.047h1.058a.552.552 0 0 0 .59-.347.674.674 0 0 0-.234-.73 3.24 3.24 0 0 1-1.199-1.732 3.745 3.745 0 0 1 0-2.49 3.838 3.838 0 0 1 1.648-2.116 3.745 3.745 0 0 1 1.61-.534m1.554 1.732a1.03 1.03 0 0 0-1.048.937 1.039 1.039 0 1 0 2.069-.075 1.067 1.067 0 0 0-1.021-.862m3.745 1.217h2.078c.365 0 .365 0 .365.375a2.95 2.95 0 0 1-.88 1.985 2.63 2.63 0 0 1-1.872.721 5.12 5.12 0 0 0 .318-3.099Z"/></svg>