<svg xmlns="http://www.w3.org/2000/svg" viewBox="0 0 24 24"><path fill="#44739e" d="M1.924 18.152a24.34 24.34 0 0 1 3.459 1.424c4.646 2.128 7.184 2.555 10.036 1.683a16.61 16.61 0 0 0 6.949-4.79c.776-.864.802-.906.27-.528a14.775 14.775 0 0 1-9.076 2.673 14.43 14.43 0 0 1-5.494-1.406 11.45 11.45 0 0 0-6.861-1.165.57.57 0 0 1-.207.017v.401c0 .469.017.968.047 1.482h.072a4.14 4.14 0 0 1 .805.209m0-13.399a24.5 24.5 0 0 1 3.459 1.415c4.646 2.13 7.184 2.557 10.036 1.683a16.6 16.6 0 0 0 6.949-4.781c.776-.862.802-.906.27-.526a14.773 14.773 0 0 1-9.076 2.671 14.41 14.41 0 0 1-5.494-1.407 11.45 11.45 0 0 0-6.861-1.157.65.65 0 0 1-.207.017v.4c0 .468.017.968.047 1.482h.072a4.27 4.27 0 0 1 .805.203m0 6.61a24.5 24.5 0 0 1 3.459 1.416c4.646 2.13 7.184 2.557 10.036 1.683a16.6 16.6 0 0 0 6.949-4.789c.776-.863.802-.907.27-.527a14.773 14.773 0 0 1-9.076 2.672 14.41 14.41 0 0 1-5.494-1.406 11.457 11.457 0 0 0-6.861-1.158.61.61 0 0 1-.207.017v.4c0 .469.017.969.047 1.484h.072a4.27 4.27 0 0 1 .805.208"/></svg>