<svg xmlns="http://www.w3.org/2000/svg" fill="#44739e" viewBox="0 0 24 24"><path d="M19.013 9.53c-1.207 0-2.049 1.086-2.049 2.641 0 1.506.817 2.556 1.987 2.556 1.02 0 2.049-.819 2.049-2.648 0-1.525-.8-2.549-1.987-2.549m1.172 2.577c0 .905-.377 1.878-1.2 1.878-.785 0-1.2-.92-1.2-1.828 0-.938.372-1.885 1.2-1.885.789 0 1.2.928 1.2 1.835m-7.627-1.735h1.617v4.277h.945v-4.277h1.625v-.764h-4.187zm-1.278 2.199c0 .938-.393 1.414-1.169 1.414-.718 0-1.113-.5-1.113-1.414V9.608h-.944v2.949a1.9 1.9 0 0 0 2.034 2.17 1.974 1.974 0 0 0 2.137-2.2V9.608h-.945ZM5.9 9.608H4.895L3 14.649h.976l.553-1.511h1.708l.568 1.511h1L5.93 9.687Zm.105 2.809H4.758l.463-1.235c.053-.15.1-.308.157-.484.048.158.1.321.166.494z"/></svg>