<svg xmlns="http://www.w3.org/2000/svg" viewBox="0 0 24 24"><path fill="#44739e" d="M20.571 8.819c-1.475 0-2.504 1.328-2.504 3.228 0 1.841.999 3.124 2.429 3.124 1.246 0 2.504-1.001 2.504-3.236 0-1.864-.978-3.116-2.429-3.116m1.433 3.15c0 1.106-.461 2.295-1.467 2.295-.959 0-1.466-1.124-1.466-2.234 0-1.146.454-2.304 1.466-2.304.965 0 1.467 1.134 1.467 2.243m-9.322-2.121h1.976v5.228h1.155V9.848h1.986v-.933h-5.117Zm-1.562 2.688c0 1.146-.48 1.728-1.429 1.728-.877 0-1.36-.611-1.36-1.728V8.915H7.177v3.604a2.322 2.322 0 0 0 2.486 2.652 2.413 2.413 0 0 0 2.612-2.689V8.915H11.12ZM4.544 8.915H3.316L1 15.076h1.193l.676-1.847h2.087l.695 1.847h1.222L4.581 9.011Zm.129 3.433H3.149l.566-1.51c.064-.183.122-.376.191-.591.059.193.123.392.203.604Z"/></svg>