<svg xmlns="http://www.w3.org/2000/svg" viewBox="0 0 24 24"><path fill="#44739e" d="M2 13.432c-.061.039-.048.076 0 .112v.5h20v-.8H2Zm-.049-1.619h20.037v.788H1.951Zm0-1.292H22v.742H1.951Zm10.323 9.304c-3.5-.522-3.254-4.509.283-5.06 0 0-7.3.074-9.005.037 1.5 5.256 7.21 6.714 12.282 5.178 1.44-.436 4.065-2.5 3.929-5.361-.857 3.281-3.502 5.733-7.489 5.206M6.2 5.9c1.755-1.254 4.98-2.1 7.032-.593 1.383 1.047.958 3.821-1.005 3.835h7.958a13.82 13.82 0 0 0-2.478-3.7c-3.147-3.118-9.649-2.657-12.6 1a6.78 6.78 0 0 0-.959 1.507c-.135.292-.459 1.114-.459 1.114A10.06 10.06 0 0 1 6.2 5.9" class="cls-1" data-name="Colore riempimento 1"/></svg>