<svg xmlns="http://www.w3.org/2000/svg" viewBox="0 0 24 24"><path fill="#44739e" d="M1.054 13.61c-.067.043-.053.083 0 .123v.548H23v-.878H1.054ZM1 11.833h21.987v.865H1Zm0-1.418h22v.815H1Zm11.328 10.21c-3.841-.573-3.571-4.948.31-5.553 0 0-8.01.082-9.881.041 1.646 5.768 7.911 7.367 13.477 5.682 1.58-.478 4.461-2.743 4.311-5.883-.94 3.601-3.842 6.291-8.217 5.713M5.662 5.345c1.926-1.376 5.465-2.305 7.717-.651 1.517 1.149 1.051 4.193-1.103 4.208h8.732a15.17 15.17 0 0 0-2.719-4.06C14.836 1.421 7.701 1.927 4.463 5.94a7.44 7.44 0 0 0-1.052 1.653c-.148.321-.504 1.223-.504 1.223a11.04 11.04 0 0 1 2.755-3.471"/></svg>