<svg xmlns="http://www.w3.org/2000/svg" viewBox="0 0 24 24"><path fill="#44739e" d="M6.516 21.757v.364a14.4 14.4 0 0 0 2.86.716 21.83 21.83 0 0 0 5.65-.043 10.67 10.67 0 0 0 2.284-.631v-.38a25.895 25.895 0 0 1-10.794-.026m4.531-2.494a.176.176 0 0 1-.176.176.176.176 0 0 1-.176-.176.176.176 0 0 1 .176-.176.176.176 0 0 1 .176.176m-.352-.784a.176.176 0 1 0 .176-.176.176.176 0 0 0-.176.176m.352-.819a.176.176 0 1 0-.176.176.176.176 0 0 0 .176-.176m2.002 1.603a.176.176 0 0 1-.176.176.176.176 0 0 1-.176-.176.176.176 0 0 1 .176-.176.176.176 0 0 1 .176.176m-.176-.96a.176.176 0 1 0 .176.176.176.176 0 0 0-.176-.176m0-.818a.176.176 0 1 0 .176.175.176.176 0 0 0-.176-.175m-1.007-.223a.452.452 0 0 0-.451.451v1.497a.451.451 0 1 0 .901 0v-1.497a.451.451 0 0 0-.45-.451m5.726-15.697a5.758.565 0 0 1-5.758.566 5.758.565 0 0 1-5.758-.566A5.758.565 0 0 1 11.834 1a5.758.565 0 0 1 5.758.565m-5.758.741c3.444 0 5.758-.338 5.758-.654-.395.33-3.119.531-5.758.531s-5.363-.197-5.758-.531c-.001.316 2.314.654 5.758.654m3.692-.109c-1.056.102-2.384.157-3.692.157-1.217 0-2.45-.047-3.465-.136l.136.054a2.123 2.123 0 0 1 1.164 1.1l4.462.022A2.143 2.143 0 0 1 15.3 2.288ZM7.195 3.231l.019.007a.04.04 0 0 0 .015 0l.174-.013q1.03-.072 2.067-.11a2.075 2.075 0 0 0-.982-.795l-.296-.11c-.293-.027-.567-.059-.813-.093a8.5 8.5 0 0 0-2.387.491l.22.052c.665.152 1.334.347 1.983.571m9.348.009h.016l.145-.053a9.86 9.86 0 0 1 1.826-.472l.33-.053h.019a5.93 5.93 0 0 0-2.29-.598c-.259.044-.559.083-.891.117l-.387.154a2.1 2.1 0 0 0-.971.785q.99.038 1.98.11Zm2.451-.467c-.903 1.078-13.481 1.03-14.067 0v18.204c4.007 2.043 13.243 1.188 14.146-.22Zm-7.898 15.706a.22.22 0 0 1-.2.22v.341a.22.22 0 1 1-.049 0v-.341a.22.22 0 0 1 0-.44v-.374a.22.22 0 1 1 .049 0v.374a.22.22 0 0 1 .2.22m1.269.731a.501.501 0 0 1-1 0v-1.497a.501.501 0 0 1 1 0Zm.508.278a.22.22 0 1 1 .22-.22.22.22 0 0 1-.22.22m0-.785a.22.22 0 1 1 .22-.22.22.22 0 0 1-.22.22m0-.818a.22.22 0 1 1 .22-.22.22.22 0 0 1-.22.22"/></svg>