<svg xmlns="http://www.w3.org/2000/svg" fill="#44739e" viewBox="0 0 24 24"><path d="M11.442 13.76C6.228 13.76 2 14.372 2 15.128S6.228 16.5 11.442 16.5s9.453-.612 9.453-1.368-4.229-1.372-9.453-1.372m-.334 1.854c-1.2 0-2.158-.207-2.158-.459s.96-.459 2.158-.459 2.15.206 2.15.459-.958.459-2.15.459M18.763 7.5h-4.087c-1.084 1.3-1.286 1.557-1.286 1.557A19.5 19.5 0 0 0 12.1 10.8a13.4 13.4 0 0 0-.5-1.761s-.123-.36-.51-1.539H3.718l-.256 1.111h2.387c1.242 0 2 .513 1.788 1.422-.229.991-1.312 1.413-2.466 1.413h-.432l.555-2.421H3.365l-.819 3.537h2.739c2.062 0 4.017-1.106 4.37-2.529a2.754 2.754 0 0 0-.106-1.3.35.35 0 0 0-.018-.054c-.008-.009-.017-.072.018-.081.017-.009.053.027.053.036s.018.045.035.081l1.744 5.032 4.44-5.122 1.879-.014h.458c1.243 0 2.009.513 1.8 1.422-.229.99-1.32 1.413-2.475 1.413h-.44l.557-2.421h-1.929l-.819 3.537h2.739c2.061 0 4.035-1.106 4.361-2.529S20.842 7.5 18.763 7.5"/></svg>