<svg xmlns="http://www.w3.org/2000/svg" viewBox="0 0 24 24"><path fill="#44739e" d="M11.387 13.936C5.651 13.936 1 14.609 1 15.441s4.651 1.509 10.387 1.509 10.399-.673 10.399-1.504-4.652-1.51-10.399-1.51m-.367 2.04c-1.32 0-2.374-.228-2.374-.505s1.056-.505 2.374-.505 2.365.226 2.365.505-1.054.505-2.365.505m8.421-8.926h-4.496c-1.193 1.43-1.415 1.712-1.415 1.712a21.5 21.5 0 0 0-1.419 1.918 14.7 14.7 0 0 0-.55-1.937S11.426 8.347 11 7.05H2.89l-.282 1.222h2.626c1.367 0 2.2.564 1.967 1.564-.252 1.09-1.443 1.555-2.713 1.555h-.475l.611-2.664H2.502l-.901 3.891h3.013c2.268 0 4.419-1.216 4.807-2.782a3.03 3.03 0 0 0-.116-1.43.4.4 0 0 0-.02-.059c-.009-.01-.019-.08.02-.09.018-.009.058.03.058.04s.02.05.038.089l1.919 5.536 4.884-5.635 2.068-.015h.503c1.368 0 2.211.564 1.981 1.564-.252 1.089-1.453 1.555-2.723 1.555h-.484l.613-2.664h-2.123l-.901 3.891h3.014c2.267 0 4.439-1.216 4.797-2.782S21.728 7.05 19.441 7.05"/></svg>