<svg xmlns="http://www.w3.org/2000/svg" viewBox="0 0 24 24"><path fill="#44739e" d="m19.179 6.099-.051-.136-.009-.026c-.014-.038-.029-.074-.042-.113l-.018-.047-.036-.088-.026-.066-.03-.068-.036-.085-.022-.049c-.015-.033-.031-.069-.047-.102l-.013-.03-.06-.117V5.16a7.394 7.394 0 0 0-3.164-3.298l-.012-.006-.133-.068-.037-.018-.113-.054-.065-.029-.085-.039-.092-.043-.057-.025-.129-.052-.026-.01a7.84 7.84 0 0 0-2.86-.516h-.026a7.306 7.306 0 0 0-6.487 3.654 7.886 7.886 0 0 0 1.057 9.527 7.775 7.775 0 0 0 2.736 1.713v1.048h.014v.845h1.105v2.123H9.312v1.955-.066c.709.08 1.445.126 2.203.14.49.009.983 0 1.469-.014h.019c.16 0 .321-.013.479-.022q.631-.038 1.235-.103v.056-1.946h-1.104v-2.117h1.104v-.89h-.006v-1.017l.113-.043.058-.024.04-.015.119-.051.101-.043.059-.026.149-.069h.008a7.41 7.41 0 0 0 2.809-2.277l.007-.009c.027-.038.055-.076.081-.113l.022-.03.064-.093.034-.051.049-.074.046-.073.033-.053c.02-.032.039-.064.059-.095l.018-.033c.023-.04.046-.079.069-.119v-.01a7.994 7.994 0 0 0 .53-6.488m-6.291 13.787h-1.727v-2.121h1.727Zm1.481-3.205a6.274 6.274 0 0 1-4.709 0v-.498a6.52 6.52 0 0 0 1.659.397c.081.008.163.016.244.021.1 0 .2.01.3.013s.198 0 .299 0c.215 0 .429-.021.643-.046a6.7 6.7 0 0 0 .874-.165c.185-.048.368-.104.548-.168l.142-.053Zm2.181-4.285a5.544 5.544 0 0 1-2.147 1.679q-.17.073-.339.136a6.355 6.355 0 0 1-2.803.339 5.553 5.553 0 0 1-3.72-2.078 6.063 6.063 0 0 1-1.32-4.279 5.472 5.472 0 0 1 1.302-3.097 6.61 6.61 0 0 1 1.751-1.434l.013-.008a5.724 5.724 0 0 1 3.68-.597l.097.017a5.745 5.745 0 0 1 3.092 1.654l.006.006c.056.058.113.113.162.177l.038.043a5.555 5.555 0 0 1 1.424 3.34 6.005 6.005 0 0 1-1.236 4.101Zm-.383-7.418a5.716 5.716 0 0 0-3.423-1.822l-.148-.02a5.04 5.04 0 0 0-1.418.022h-.027l-.089.015-.071.014-.046.009-.113.024h-.008a5.763 5.763 0 0 0-3.133 1.96l-.011.013-.072.089-.023.03-.056.074-.035.048-.043.057-.045.066-.031.042c-.018.027-.037.054-.055.082l-.017.025-.065.102v.008a5.277 5.277 0 0 0-.811 2.879v.261a5.424 5.424 0 0 0 2.749 4.507 5.414 5.414 0 0 0 5.425.194c.068-.037.135-.077.202-.113a5.1 5.1 0 0 0 1.036-.76 5.69 5.69 0 0 0 1.707-3.458 5.36 5.36 0 0 0-1.089-4.003 8 8 0 0 0-.29-.345m-1.521 8.301a5.324 5.324 0 0 1-7.922-4.584 5.288 5.288 0 1 1 7.922 4.584m-.35 8.75-.226.02-.172.013-.163.012-.238.015-.101.005-.279.014h-.064l-.333.011h-.012c-.289.008-.58.01-.869.008s-.58-.009-.867-.02h-.05l-.293-.014-.102-.007-.237-.014-.161-.011-.174-.013-.24-.021-.09-.008c-.113-.01-.217-.022-.324-.034v.87a25.43 25.43 0 0 0 5.424 0v-.87l-.324.035Z"/></svg>