<svg xmlns="http://www.w3.org/2000/svg" viewBox="0 0 24 24"><path fill="#44739e" d="M12 1a4.999 4.999 0 0 0-4.999 4.999v5.849a4.987 4.987 0 0 0 1.844 3.873 4.7 4.7 0 0 0 .538.382c.029.019.06.037.09.054v1.911h1.026v1.973H9.477v1.045a24.24 24.24 0 0 0 5.046 0v-1.045h-1.027v-1.975h1.027V16.15c.032-.018.063-.037.094-.057a4.55 4.55 0 0 0 .538-.382 4.98 4.98 0 0 0 1.844-3.873V5.989A4.999 4.999 0 0 0 12 1M9.757 16.868v-.509a4.93 4.93 0 0 0 2.243.537 4.85 4.85 0 0 0 2.241-.537v.509a5.314 5.314 0 0 1-4.482 0Zm3.047 3.171h-1.608v-1.973h1.608Zm2.843-8.11a2.94 2.94 0 0 1-.611 1.788 3.61 3.61 0 0 1-1.111.958 4.06 4.06 0 0 1-1.966.504h-.016a4.08 4.08 0 0 1-1.965-.508 3.51 3.51 0 0 1-1.102-.954 2.95 2.95 0 0 1-.611-1.753V5.867a1.3 1.3 0 0 1 .011-.166A2.95 2.95 0 0 1 8.89 4.06a3.6 3.6 0 0 1 1.111-.956 4.055 4.055 0 0 1 1.95-.5h.017a4.055 4.055 0 0 1 1.979.507 3.51 3.51 0 0 1 1.1.955 2.955 2.955 0 0 1 .608 1.793l-.013 5.221v.853Zm-.362-5.898a3.04 3.04 0 0 0-.542-1.746 3.22 3.22 0 0 0-.983-.933 3.41 3.41 0 0 0-1.778-.5h-.031a3.41 3.41 0 0 0-1.733.489l-.065.038a3.3 3.3 0 0 0-.931.896 3.04 3.04 0 0 0-.546 1.594 1.4 1.4 0 0 0-.008.168v5.71a3.04 3.04 0 0 0 .544 1.705 3.22 3.22 0 0 0 .985.931 3.41 3.41 0 0 0 1.744.497h.032a3.41 3.41 0 0 0 1.763-.493l.065-.039a3.3 3.3 0 0 0 .928-.897 3.036 3.036 0 0 0 .547-1.741v-.799Zm-.297 5.766a2.795 2.795 0 0 1-.5 1.511 3.04 3.04 0 0 1-.896.851.14.14 0 0 0-.03.02 3.1 3.1 0 0 1-1.586.438h-.013a3.11 3.11 0 0 1-1.601-.453 2.94 2.94 0 0 1-.901-.853 2.8 2.8 0 0 1-.501-1.569V6.037a1.2 1.2 0 0 1 .009-.14v-.009a2.777 2.777 0 0 1 .501-1.469 3 3 0 0 1 .898-.85.16.16 0 0 0 .029-.019 3.095 3.095 0 0 1 1.574-.439h.013a3.11 3.11 0 0 1 1.614.455 2.94 2.94 0 0 1 .899.854 2.8 2.8 0 0 1 .502 1.611l-.01 4.879v.797ZM9.202 21.848l.034-.008Zm5.321-.051v-.348a23.94 23.94 0 0 1-5.046 0v.675a22.6 22.6 0 0 0 2.523.133 23.6 23.6 0 0 0 2.523-.133v-.323c.099.013.19.03.275.047v.276a.275.275 0 0 1-.245.275 23.73 23.73 0 0 1-5.11 0 .279.279 0 0 1-.246-.275v-.275c-.515.099-.825.233-.825.395 0 .374 1.621.756 3.624.756s3.623-.382 3.623-.756c.005-.189-.416-.339-1.096-.447"/></svg>