<svg xmlns="http://www.w3.org/2000/svg" viewBox="0 0 24 24"><path fill="#44739e" d="M8.424 7.891c.252 1.129.665 2.967.927 4.125l.791 3.503c.19.846.401 1.774.48 2.112.152.655.187.939.067 1.147.255.015.736.029 1.321.032s1.05.01 1.316.01l-.005-.009a.665.665 0 0 1-.1-.505l.006-.032c.033-.209.033-.209.537-2.44.228-.998.43-1.896.453-2.004.012-.056.059-.264.124-.554.06-.261.134-.587.21-.922.06-.268.144-.641.237-1.057.151-.665.326-1.448.469-2.079.695-3.079 1.734-7.665 1.864-8.218H6.865l.066.289c.123.53.765 3.366 1.493 6.602m3.281-3.062a.222.222 0 0 1 .444 0v6.085a.222.222 0 0 1-.444 0Zm7.781-3.309c-.053-.024-.474-.134-1.086-.264-.4-.084-.738-.152-.901-.183-.041.137-.111.417-.198.789-.111.478-.372 1.652-.605 2.672-.11.486-.237 1.045-.351 1.553s-.212.942-.276 1.219c-.121.547-.398 1.775-.616 2.739-1.407 6.2-1.859 8.247-1.862 8.428 0 .111.016.159.353.486a1.677 1.677 0 0 1 .316 2.462 1.3 1.3 0 0 0-.111.17.676.676 0 0 1 .068.356v.035c.211-.132.59-.374 1.036-.666a36 36 0 0 0 3.921-2.687 3.14 3.14 0 0 0 .653-1.3 19.74 19.74 0 0 0 .154-3.818c.028-1.885.05-5.202.055-7.319.013-3.839.012-3.881-.095-4.125a1.087 1.087 0 0 0-.455-.547m-5.928 20.288a.492.492 0 0 1 .164-.485c.133-.134.222-.19.307-.18a.42.42 0 0 0 .055-.075c.011-.028.024-.058.039-.088a1.3 1.3 0 0 0-.3-1.452l-.186-.222-1.656.005h-1.655l-.164.192a1.73 1.73 0 0 0-.424.922.95.95 0 0 0 0 .259 1 1 0 0 0 .059.167 1.38 1.38 0 0 0 .26.397.388.388 0 0 1 .274.159.377.377 0 0 1 .124.345.356.356 0 0 1-.244.245l-.025.01a2.1 2.1 0 0 0 .012.222l.022.251.241.122a2.953 2.953 0 0 0 1.518.397 2.783 2.783 0 0 0 1.487-.376l.349-.174v-.241c0-.05 0-.154-.006-.205a.303.303 0 0 1-.251-.195m-4.221-1.453c0-.605.196-.943.955-1.642a.377.377 0 0 0 .097-.177v-.023c.018-.126-.049-.424-1.164-5.379l-.088-.378-.945-4.185c-.341-1.514-.651-2.89-.84-3.726-.258-1.155-.503-2.244-.636-2.837-.052-.228-.086-.384-.1-.444-.05-.198-.101-.42-.117-.493-.111 0-.429.071-.916.172l-.07.014c-1.087.229-1.23.333-1.423.712l-.132.247v3.616c0 5.496.039 10.119.09 10.756a3.185 3.185 0 0 0 1.065 2.335c.257.199 3.787 2.526 4.637 3.063v-.046a.554.554 0 0 1 .091-.381.3.3 0 0 0-.05-.057 1.674 1.674 0 0 1-.454-1.147"/></svg>