<svg xmlns="http://www.w3.org/2000/svg" viewBox="0 0 24 24"><path fill="#44739e" d="M9.115 15.515a.54.54 0 0 1-.093-.16l-.181.123.106.15Zm1.049-.745-.105-.151-.246.173a.5.5 0 0 1 .096.156Zm-.526.331a.28.28 0 0 0-.069-.126l-.302.22v.012a.29.29 0 0 0 .063.115Zm-.586.219.159-.116a.338.338 0 0 1 .018-.222.232.232 0 0 1 .144-.127.2.2 0 0 1 .054-.007.255.255 0 0 1 .177.081l.152-.108a.431.431 0 0 0-.432-.144.405.405 0 0 0-.26.232.528.528 0 0 0-.028.364.6.6 0 0 0 .016.047m.8-.337-.156.109a.336.336 0 0 1-.016.232.225.225 0 0 1-.144.128.243.243 0 0 1-.241-.083l-.15.109a.448.448 0 0 0 .338.166.38.38 0 0 0 .102-.013.407.407 0 0 0 .262-.232.535.535 0 0 0 .005-.423Zm-.671-3.719a.53.53 0 0 0 .296.095.46.46 0 0 0 .126-.017.593.593 0 0 0 .357-.754.68.68 0 0 0-.27-.387.491.491 0 0 0-.745.204.708.708 0 0 0 .232.859Zm.096-1.113a.61.61 0 0 1 .318 1.158.61.61 0 0 1-.318-1.158m-.057 1.062a.442.442 0 0 0 .372.07.533.533 0 0 0 .314-.679.625.625 0 0 0-.245-.348.463.463 0 0 0-.262-.084.4.4 0 0 0-.11.015.444.444 0 0 0-.283.249.645.645 0 0 0 .214.783ZM3.916 2.714a51.1 51.1 0 0 0 6.293 1.135c1.969.258 3.854.429 5.775.519.21-.014.429-.023.66-.034a5.19 5.19 0 0 0 3.006-.708l.985-.861L7.161 1.01a1.29 1.29 0 0 0-.619.073L3.817 2.126l-.049.018c-.292.107-.463.184-.449.272.014.129.522.286.597.298m16.912.51c-.101.095-.484.52-.586.634a2.386 2.386 0 0 1-1.719.92 12.86 12.86 0 0 1-3.193.126l-.125-.007C9.452 4.564 5.173 3.824 3.13 2.81l.237 17.702a.463.463 0 0 0 .464.406c.082.015 7.876 1.378 10.742 1.866l.167.029a7.78 7.78 0 0 0 3.325.015 15.17 15.17 0 0 0 2.702-1.654c0-.27.012-4.664.025-9.059.008-2.267.015-4.535.022-6.237 0-.85.007-1.56.01-2.056 0-.347 0-.479.007-.589.021-.022.078-.086-.003-.009M8.554 6.074l1.976.249a.446.446 0 0 1 .389.429v.029a.444.444 0 0 1-.506.452l-1.976-.276a.445.445 0 0 1 .116-.883ZM8.207 9.93a1.302 1.302 0 0 1 1.969-.541 1.895 1.895 0 0 1 .63 2.298 1.339 1.339 0 0 1-.854.748 1.25 1.25 0 0 1-.33.045 1.66 1.66 0 0 1-1.506-1.29 1.838 1.838 0 0 1 .092-1.26Zm.031 4.417a1.302 1.302 0 0 1 1.969-.541 1.83 1.83 0 0 1 .721 1.043 1.582 1.582 0 0 1-.946 2.008 1.24 1.24 0 0 1-.33.045 1.657 1.657 0 0 1-1.506-1.29 1.824 1.824 0 0 1 .093-1.265Zm2.228 6.15-1.976-.283a.445.445 0 0 1 .116-.882l1.975.255a.445.445 0 0 1 .388.43v.029a.446.446 0 0 1-.502.451Zm.059-1.189-1.979-.249a.445.445 0 0 1 .104-.884l1.98.22a.445.445 0 0 1 .394.423v.029a.446.446 0 0 1-.498.461Z"/></svg>