<svg xmlns="http://www.w3.org/2000/svg" viewBox="0 0 24 24"><path fill="#44739e" d="M11.748 3.973c3.645 0 6.599-.615 6.599-1.374a.42.42 0 0 0-.159-.301 1.1 1.1 0 0 0-.089-.074 3.66 3.66 0 0 0-1.176-.477 17.11 17.11 0 0 0-9.062-.258 5.64 5.64 0 0 0-2.551.809.42.42 0 0 0-.159.301c0 .759 2.954 1.374 6.597 1.374m8.946 16.305L20.591 4a7.9 7.9 0 0 0-.866-.706.25.25 0 0 1 0 .042c0 .77-3.462 1.4-7.731 1.4-4.253 0-7.699-.621-7.732-1.39a3.63 3.63 0 0 0-.959.963v16.278c.251 3.267 17.638 3.267 17.391-.309m-1.105-1.771a.416.416 0 0 1-.303.394 28.44 28.44 0 0 1-7.432.942 35 35 0 0 1-6.773-.851.595.595 0 0 1-.479-.583v-.64a.317.317 0 0 1 .386-.309 30.97 30.97 0 0 0 6.853.809 37.06 37.06 0 0 0 7.419-.646.279.279 0 0 1 .338.272c.001.191-.009.366-.009.612M18.578 2.601a3.3 3.3 0 0 0-.231-.11 1.1 1.1 0 0 1 .089.073Z"/></svg>