<svg xmlns="http://www.w3.org/2000/svg" fill="#44739e" viewBox="0 0 24 24"><path d="M17.569 11.479c.979-4.561-1.133-8.634-5.428-8.634-2.4 0-7.394 2.635-9.2 8.268-1.338 4.161-.154 9.245 3.855 9.644 5.592.557 9.904-5.249 10.773-9.278M12.91 2.493a6.67 6.67 0 0 1 3.149 1.2 1.52 1.52 0 0 0 .425-.243A5.894 5.894 0 0 0 12.464 2a8.13 8.13 0 0 0-3.61 1.108c.04.187.088.333.088.333a7.4 7.4 0 0 1 3.968-.948m8.078 6.447a9.6 9.6 0 0 0-4.479-5.6 7.908 7.908 0 0 1 2.218 5.874 11.36 11.36 0 0 1-.26 2.3 13.04 13.04 0 0 1-1.34 3.453c-.255.491-.549 1-.89 1.54a11.17 11.17 0 0 1-1.406 1.637 10.54 10.54 0 0 1-7.088 3.616l.363.044a17.28 17.28 0 0 0 4.875.036 10.163 10.163 0 0 0 5.3-1.922 8.646 8.646 0 0 0 2.669-3.772 10.84 10.84 0 0 0 .038-7.206m-4.751 7.56c.341-.54.635-1.049.89-1.54a15.85 15.85 0 0 1-2.3 3.177 11.17 11.17 0 0 0 1.41-1.637"/></svg>