<svg xmlns="http://www.w3.org/2000/svg" fill="#44739e" viewBox="0 0 24 24"><path d="M9.509 15.032a.47.47 0 0 1-.08-.138L9.273 15l.091.13Zm.906-.643-.091-.13-.212.149a.43.43 0 0 1 .083.135zm-.454.286a.24.24 0 0 0-.06-.109l-.26.19v.01a.25.25 0 0 0 .054.1zm-.506.189.137-.1a.292.292 0 0 1 .016-.192.2.2 0 0 1 .124-.11.18.18 0 0 1 .047-.006.22.22 0 0 1 .153.07l.131-.093a.372.372 0 0 0-.373-.124.35.35 0 0 0-.225.2.456.456 0 0 0-.024.314.5.5 0 0 0 .014.041m.691-.291-.135.094a.29.29 0 0 1-.014.2.194.194 0 0 1-.124.111.21.21 0 0 1-.208-.072l-.13.094a.387.387 0 0 0 .292.144.33.33 0 0 0 .088-.012.351.351 0 0 0 .226-.2.462.462 0 0 0 .005-.365zm-.58-3.211a.457.457 0 0 0 .256.082.4.4 0 0 0 .109-.015.512.512 0 0 0 .308-.651.586.586 0 0 0-.233-.334.424.424 0 0 0-.643.176.611.611 0 0 0 .2.742zm.083-.961a.527.527 0 0 1 .275 1 .527.527 0 0 1-.275-1m-.049.917a.382.382 0 0 0 .321.06.46.46 0 0 0 .271-.586.54.54 0 0 0-.211-.3.4.4 0 0 0-.226-.073.34.34 0 0 0-.095.013.383.383 0 0 0-.245.215.557.557 0 0 0 .185.676ZM5.021 3.98a44.1 44.1 0 0 0 5.433.98c1.7.223 3.327.37 4.986.448.181-.012.37-.02.57-.029a4.48 4.48 0 0 0 2.595-.612l.851-.743L7.822 2.509a1.115 1.115 0 0 0-.534.063l-2.353.9-.042.016c-.252.092-.4.159-.388.235.012.111.451.247.516.257m14.601.44c-.087.082-.418.449-.506.548a2.06 2.06 0 0 1-1.484.794 11.1 11.1 0 0 1-2.757.109l-.108-.006C9.8 5.577 6.106 4.938 4.342 4.063l.205 15.284a.4.4 0 0 0 .4.35c.071.013 6.8 1.19 9.275 1.611l.144.025a6.72 6.72 0 0 0 2.871.013 13.1 13.1 0 0 0 2.333-1.428c0-.233.01-4.027.021-7.821.007-1.958.013-3.916.019-5.385 0-.734.006-1.347.009-1.775 0-.3 0-.414.006-.509.018-.019.067-.074-.003-.008M9.025 6.881l1.706.215a.385.385 0 0 1 .336.37v.025a.383.383 0 0 1-.437.391l-1.706-.239a.3843.3843 0 0 1 .1-.762zm-.3 3.329a1.124 1.124 0 0 1 1.7-.467 1.636 1.636 0 0 1 .544 1.984 1.156 1.156 0 0 1-.737.646 1.08 1.08 0 0 1-.285.039 1.433 1.433 0 0 1-1.3-1.114 1.587 1.587 0 0 1 .079-1.088zm.027 3.814a1.124 1.124 0 0 1 1.7-.467 1.58 1.58 0 0 1 .623.9 1.366 1.366 0 0 1-.817 1.734 1.07 1.07 0 0 1-.285.039 1.431 1.431 0 0 1-1.3-1.114 1.575 1.575 0 0 1 .08-1.092zm1.924 5.31-1.706-.245a.384.384 0 0 1 .1-.761l1.705.22a.384.384 0 0 1 .335.371v.025a.385.385 0 0 1-.433.39zm.051-1.027-1.709-.215a.3841.3841 0 0 1 .09-.763l1.709.19a.384.384 0 0 1 .341.365v.025a.385.385 0 0 1-.43.398z"/></svg>