<svg xmlns="http://www.w3.org/2000/svg" fill="#44739e" viewBox="0 0 24 24"><path d="M15.228 17.026c-.077-.015-.156-.02-.232-.037.049.041.092.09.139.134.068.063.138.122.2.191a9.12 9.12 0 0 0 2.378.263 10.15 10.15 0 0 0 2.347-.251c.1-.019.291-.338.291-.338a12.56 12.56 0 0 1-2.67.276 12.7 12.7 0 0 1-2.453-.238m3.087-.461a6.04 6.04 0 0 1-2.139-.546 6.3 6.3 0 0 1-.622-.318 6.5 6.5 0 0 1-.335-.22 4.07 4.07 0 0 1-1.673-2.1 4.554 4.554 0 0 0 .55 2.433c.052.1.105.187.163.278a4.25 4.25 0 0 0 .382.514c.022.025.037.056.06.081a2.24 2.24 0 0 0 .372.118c.086.021.191.044.312.067a14.3 14.3 0 0 0 2.7.184 8.65 8.65 0 0 0 2.561-.345 5.85 5.85 0 0 0 .733-1.076 3.434 3.434 0 0 1-3.064.93m-.26-7.405a3.89 3.89 0 0 0-1.415.118 4.34 4.34 0 0 0-3.064 3.754 4.02 4.02 0 0 0 1.858 2.352c.109.07.215.144.326.206.173.1.349.187.523.266a5.7 5.7 0 0 0 1.18.394c1.321.269 3.271.32 4.1-1.121.994-1.734-.244-5.643-3.508-5.969m-9.369 8.132c.022-.026.049-.046.073-.071a3.4 3.4 0 0 1 .266-.254c-.215.046-.433.068-.65.1a12.75 12.75 0 0 1-2.036.173 12.63 12.63 0 0 1-2.67-.276 2.4 2.4 0 0 0 .164.229c.046.055.092.1.128.108h.009a10.06 10.06 0 0 0 2.338.249 9.13 9.13 0 0 0 2.378-.258m1.165-1.342a4.56 4.56 0 0 0 .623-2.591 4.3 4.3 0 0 1-2.021 2.324c-.1.063-.211.121-.322.178a6 6 0 0 1-.581.275 6.12 6.12 0 0 1-1.845.407 3.432 3.432 0 0 1-3.061-.931 5.9 5.9 0 0 0 .732 1.077 8.65 8.65 0 0 0 2.561.345 16 16 0 0 0 2.311-.124c.2-.027.359-.055.5-.083a3.1 3.1 0 0 0 .577-.163 4.3 4.3 0 0 0 .345-.464c.056-.088.13-.162.181-.25m-3.293.277a5.5 5.5 0 0 0 .855-.264c.153-.059.306-.125.462-.2.107-.052.215-.105.322-.164a4.27 4.27 0 0 0 2.247-2.59A4.307 4.307 0 0 0 6.88 9.157a4 4 0 0 0-.915-.019c-3.263.325-4.5 4.235-3.506 5.969.827 1.44 2.777 1.394 4.099 1.12m5.271.864a18.8 18.8 0 0 1-2.335-.153 4.1 4.1 0 0 1-.371.349 12.1 12.1 0 0 0 2.665.244 13.36 13.36 0 0 0 3.091-.314 4 4 0 0 1-.345-.324 17.86 17.86 0 0 1-2.705.198m-1.782-.86a4.4 4.4 0 0 1-.335.47 14.6 14.6 0 0 0 1.559.1 22.8 22.8 0 0 0 3.053-.153 4.5 4.5 0 0 1-.366-.514 13.65 13.65 0 0 1-2.193.161c-.665-.003-1.226-.025-1.718-.064m.762-2.748a5.25 5.25 0 0 1-.613 2.493c.665.047 1.266.038 1.646.037a12.5 12.5 0 0 0 1.981-.162 5.27 5.27 0 0 1-.556-2.368 4.648 4.648 0 0 1 3.22-4.482 5.263 5.263 0 0 0-9.444-.134 4.615 4.615 0 0 1 3.766 4.616"/></svg>