<svg xmlns="http://www.w3.org/2000/svg" viewBox="0 0 24 24"><path fill="#44739e" d="M22.783 17.041c-.05-.208-.091-.418-.146-.622s-.093-.388-.136-.584c-.605-2.692-1.243-5.372-1.87-8.057q-.207-.905-.421-1.808a3.623 3.623 0 0 0-.72-1.713 2.167 2.167 0 0 0-1.697-.516l-2.633-.15c-2.887-.156-5.773-.33-8.66-.491-.88-.049-1.76-.083-2.632-.149a4.1 4.1 0 0 0-1.567.018c-.384.126-.603.586-.834.952a2.66 2.66 0 0 0-.41.748 5.57 5.57 0 0 0-.012 1.5c.036.97.041 1.955.116 2.924.079 1.015.068 2.046.124 3.066a35.85 35.85 0 0 0 .627 5.097 8.16 8.16 0 0 0 .608 2.138 2.867 2.867 0 0 0 1.112 1.084 3.12 3.12 0 0 0 1.336.611 5.3 5.3 0 0 0 .646-.014 5.06 5.06 0 0 0 .879-.037l-.015.056.132-.056a5.6 5.6 0 0 0 1.43.056v-.034h.695v-.02h-.207v-.018l.44-.019v.019h-.069v.018l.31-.054v.017h-.031v.019h.071l-.015-.036.565-.018v.018h-.072v.017l.176-.017v-.018h-.059v-.02l.33.038.22-.057.709-.052v.018h-.043v.017h.088v-.017h-.029v-.018l1.802-.11 2.925-.145 1.052-.073 1.359-.071.399-.056h.014c.04-.05.073-.061.119-.018h.015l.206-.049.561-.033 1.525-.11.604-.141a2.33 2.33 0 0 1 .517-.447c.032-.024.176-.12.133-.156a1.21 1.21 0 0 0 .355-.256c.512-.562.235-1.494.078-2.171M19.36 4.236l.044.056-.058-.038Zm-1.447.145.116.77-.861-.038a3.17 3.17 0 0 1-.148-.75ZM4.144 19.337l-.11-.66c-.075-.288-.131-.585-.18-.887l-.252-1.533c-.277-1.714-.566-3.425-.849-5.138l-.617-3.644c0-.022 0-.038-.01-.059l-.529-3.129-.027.22-.163.128.014.055c-.092.034-.185.241-.22.346l-.045-.017.014.073-.045-.018-.028.31H1.08c-.011-.33-.08-.799.206-.99a.44.44 0 0 1 .161-.275l.163-.348.21-.33-.177.475-.022.17h.04a.9.9 0 0 1 .006-.126c0 .041.013.081.015.123l.041-.008 2.586 15.234Zm17.707-1.12c-.07.044-.2.013-.276.013a5.4 5.4 0 0 0-.621.022c-.912.11-1.849.078-2.763.11q-2.402.07-4.803.2c-1.359.074-2.721.074-4.08.147-.931.052-1.862.061-2.794.11-.246.011-.492.033-.74.033-.061 0-.202.034-.253-.017s-.044-.146-.054-.202c-.027-.169-.055-.339-.086-.512q-.19-1.036-.357-2.081-.647-3.97-1.354-7.927-.257-1.469-.501-2.944c-.009-.053-.038-.156.014-.19.062-.037.177-.009.246-.009.22 0 .434.031.65.036.837.012 1.675.067 2.513.11 2.917.147 5.829.225 8.749.383.681.036 1.362.054 2.04.09.26.015.524 0 .785.033a4.1 4.1 0 0 0 .605.023c.068 0 .187-.026.243.035a.53.53 0 0 1 .061.201l.11.495.429 1.882c.55 2.361 1.077 4.729 1.626 7.088l.496 2.174.12.511c.016.051.052.151 0 .186Z"/></svg>