<svg xmlns="http://www.w3.org/2000/svg" fill="#44739e" viewBox="0 0 24 24"><path d="M11.771 4.7c3.314 0 6-.559 6-1.249a.382.382 0 0 0-.145-.274 1 1 0 0 0-.081-.067 3.33 3.33 0 0 0-1.069-.434 15.555 15.555 0 0 0-8.24-.234 5.13 5.13 0 0 0-2.319.735.382.382 0 0 0-.145.274c0 .69 2.686 1.249 5.999 1.249m8.134 14.825-.094-14.8a7.2 7.2 0 0 0-.787-.642.23.23 0 0 1 0 .038c0 .7-3.148 1.273-7.03 1.273-3.867 0-7-.565-7.03-1.264a3.3 3.3 0 0 0-.872.876v14.8c.228 2.971 16.037 2.971 15.813-.281m-1.005-1.61a.378.378 0 0 1-.276.358 25.86 25.86 0 0 1-6.757.857 31.83 31.83 0 0 1-6.158-.774.541.541 0 0 1-.436-.53v-.582a.288.288 0 0 1 .351-.281 28.16 28.16 0 0 0 6.231.736 33.7 33.7 0 0 0 6.746-.588.254.254 0 0 1 .307.248c.001.173-.008.332-.008.556m-.919-14.462a3 3 0 0 0-.21-.1 1 1 0 0 1 .081.066z"/></svg>