<svg xmlns="http://www.w3.org/2000/svg" fill="#44739e" viewBox="0 0 24 24"><path d="M3.027 7.02a.3.3 0 1 0-.3-.3.3.3 0 0 0 .3.3m12.388 8.851-.022-.097h-.024l-.022.097-.017-.097h-.033l.036.151h.026l.022-.099.022.099h.026l.036-.151h-.033zm-.18-.1a.05.05 0 0 0-.036.014.053.053 0 0 0-.013.039v.05a.057.057 0 0 0 .013.04.05.05 0 0 0 .036.014.05.05 0 0 0 .037-.014.06.06 0 0 0 .012-.039v-.051a.057.057 0 0 0-.012-.039.05.05 0 0 0-.037-.014m.016.1a.026.026 0 0 1 0 .014.013.013 0 0 1-.012 0h-.011a.02.02 0 0 1 0-.014v-.047a.02.02 0 0 1 0-.014.013.013 0 0 1 .011 0 .017.017 0 0 1 .012 0 .026.026 0 0 1 0 .014zm-.128-.1a.027.027 0 0 0-.019.008.06.06 0 0 0-.011.017v-.022h-.033v.151h.033v-.1a.026.026 0 0 1 0-.014.017.017 0 0 1 .024 0 .02.02 0 0 1 0 .014v.1h.034v-.1a.056.056 0 0 0-.01-.037.029.029 0 0 0-.018-.017m-.161.073-.013-.006h-.037v-.017h.025l.009.012.027-.015a.044.044 0 0 0-.017-.026.055.055 0 0 0-.032-.009.047.047 0 0 0-.034.012.044.044 0 0 0-.013.034.06.06 0 0 0 0 .021l.01.012.012.007h.028l.01.005v.009l-.005.01h-.012a.03.03 0 0 1-.016-.005.03.03 0 0 1-.011-.013l-.027.016a.037.037 0 0 0 .018.027.06.06 0 0 0 .034.01.055.055 0 0 0 .037-.013.05.05 0 0 0 .013-.035.043.043 0 0 0 0-.022.03.03 0 0 0-.006-.014m-.154-.072a.047.047 0 0 0-.037.015.07.07 0 0 0-.013.045v.038a.063.063 0 0 0 .013.043.05.05 0 0 0 .039.015.044.044 0 0 0 .03-.01.046.046 0 0 0 .016-.027l-.029-.012-.007.011h-.011a.02.02 0 0 1-.015-.006.026.026 0 0 1-.005-.017v-.007h.068v-.026a.077.077 0 0 0-.013-.049.04.04 0 0 0-.036-.013m.017.065h-.036v-.007a.03.03 0 0 1 .005-.018.018.018 0 0 1 .014-.006.017.017 0 0 1 .012.005.018.018 0 0 1 0 .016zm-.106-.107h-.034v.044h-.013v.033h.013v.079a.05.05 0 0 0 .008.03.032.032 0 0 0 .027.01h.016v-.037h-.015v-.079h.017v-.033h-.017Zm-.119.041a.05.05 0 0 0-.03.009.047.047 0 0 0-.016.025l.026.013.008-.009h.011a.017.017 0 0 1 .013 0 .02.02 0 0 1 .005.013v.012H14.6a.046.046 0 0 0-.035.012.05.05 0 0 0-.012.036.045.045 0 0 0 .01.033.032.032 0 0 0 .027.012h.016a.027.027 0 0 0 .012-.009v-.009.019h.031v-.1a.05.05 0 0 0-.013-.037.045.045 0 0 0-.036-.02m.017.11a.014.014 0 0 1-.006.012.027.027 0 0 1-.015 0h-.012v-.01a.02.02 0 0 1 .005-.014h.032zm-.124-.081a.06.06 0 0 0-.01-.016.027.027 0 0 0-.018-.007.029.029 0 0 0-.027.014.07.07 0 0 0-.009.039v.05a.073.073 0 0 0 .009.039.031.031 0 0 0 .027.014.03.03 0 0 0 .018-.007.034.034 0 0 0 .01-.016v.02h.034v-.212h-.034zm0 .079v.017h-.008a.014.014 0 0 1-.012-.006.03.03 0 0 1 0-.015v-.044a.034.034 0 0 1 0-.016.014.014 0 0 1 .012-.006h.008v.016zm-.125-.108a.025.025 0 0 0-.017.008.05.05 0 0 0-.011.016v-.021h-.034v.213h.034v-.082a.06.06 0 0 0 .01.016.03.03 0 0 0 .018.007.031.031 0 0 0 .027-.014.076.076 0 0 0 .009-.04v-.049a.07.07 0 0 0-.009-.039.029.029 0 0 0-.027-.015m0 .1a.025.025 0 0 1 0 .016.014.014 0 0 1-.011.006h-.009v-.082h.009a.014.014 0 0 1 .011.006.025.025 0 0 1 0 .016zm-.126.005a.017.017 0 0 1 0 .013.015.015 0 0 1-.022 0 .016.016 0 0 1 0-.012v-.1h-.034v.1a.06.06 0 0 0 .01.038.032.032 0 0 0 .027.013.026.026 0 0 0 .019-.008.04.04 0 0 0 .008-.017v.022h.034v-.151h-.034Zm2.38-.461h-.035l-.037.065v-.126h-.033v.213h.033v-.033l.017-.028.024.061h.037l-.041-.094zm-.187.039a.016.016 0 0 1 .013-.006h.011a.05.05 0 0 1 .006.014l.031-.012a.057.057 0 0 0-.015-.032.047.047 0 0 0-.032-.01.05.05 0 0 0-.039.015.06.06 0 0 0-.013.041v.044a.058.058 0 0 0 .013.041.05.05 0 0 0 .039.015.041.041 0 0 0 .046-.041l-.031-.012v.013h-.011a.02.02 0 0 1-.013 0 .027.027 0 0 1 0-.016v-.041a.03.03 0 0 1-.005-.013m-.111-.041a.043.043 0 0 0-.037.016.064.064 0 0 0-.014.044v.039a.06.06 0 0 0 .014.042.05.05 0 0 0 .039.015.05.05 0 0 0 .03-.009.045.045 0 0 0 .015-.028l-.028-.012-.007.011h-.011a.02.02 0 0 1-.015-.006.026.026 0 0 1 0-.017v-.007h.068v-.026a.08.08 0 0 0-.013-.049.045.045 0 0 0-.041-.013m.017.066h-.036v-.008a.035.035 0 0 1 0-.018.017.017 0 0 1 .014-.006.014.014 0 0 1 .012.006.017.017 0 0 1 .005.015zm-.13-.066a.03.03 0 0 0-.02.007.06.06 0 0 0-.01.018v-.084h-.034v.213h.034v-.1a.02.02 0 0 1 0-.014s.006-.005.011-.005a.016.016 0 0 1 .012 0 .024.024 0 0 1 0 .015v.1h.034v-.1a.063.063 0 0 0-.009-.037.03.03 0 0 0-.018-.013m-.145.041a.014.014 0 0 1 .012-.006h.011a.023.023 0 0 1 .006.014l.031-.012a.05.05 0 0 0-.015-.032.046.046 0 0 0-.032-.01.05.05 0 0 0-.039.015.065.065 0 0 0-.013.041v.044a.063.063 0 0 0 .013.041.05.05 0 0 0 .039.015.046.046 0 0 0 .032-.01.048.048 0 0 0 .015-.031l-.032-.012-.005.013h-.011a.017.017 0 0 1-.012 0 .022.022 0 0 1 0-.016v-.041a.023.023 0 0 1 0-.013m-.157.164.034-.037v-.052h-.034zm-.036-.247h-.034v.044h-.012v.034h.012v.078a.05.05 0 0 0 .008.03.033.033 0 0 0 .027.01h.016v-.037h-.015v-.078h.017v-.034h-.017zm-.102.042a.03.03 0 0 0-.02.007.07.07 0 0 0-.01.017v-.022h-.034v.152h.034v-.1a.02.02 0 0 1 0-.014.015.015 0 0 1 .012 0 .013.013 0 0 1 .011 0 .02.02 0 0 1 0 .014v.1h.033v-.1a.065.065 0 0 0-.009-.037.03.03 0 0 0-.017-.017m-.143 0a.05.05 0 0 0-.03.009.05.05 0 0 0-.016.025l.027.012.008-.009h.011a.02.02 0 0 1 .013.005.016.016 0 0 1 0 .012v.012h-.021a.044.044 0 0 0-.034.012.05.05 0 0 0-.012.036.055.055 0 0 0 .009.034.036.036 0 0 0 .028.011h.016a.04.04 0 0 0 .012-.01v-.009.02h.032v-.1a.056.056 0 0 0-.013-.038.047.047 0 0 0-.03-.022m.017.109a.017.017 0 0 1 0 .012.034.034 0 0 1-.016 0h-.011v-.01a.02.02 0 0 1 0-.014.02.02 0 0 1 .012 0h.02zm-.105-.151h-.034v.044h-.013v.034h.013v.078a.05.05 0 0 0 .008.03.033.033 0 0 0 .027.01h.016v-.037h-.015v-.078h.017v-.034h-.019Zm-.102.042a.03.03 0 0 0-.02.007.07.07 0 0 0-.01.017v-.022h-.034v.152h.034v-.1a.02.02 0 0 1 0-.014.013.013 0 0 1 .011 0 .017.017 0 0 1 .012 0 .02.02 0 0 1 0 .014v.1h.034v-.1a.065.065 0 0 0-.009-.037.029.029 0 0 0-.018-.017m-.133.121a.024.024 0 0 1-.016-.005.03.03 0 0 1-.011-.013l-.027.016a.037.037 0 0 0 .018.027.053.053 0 0 0 .034.01.046.046 0 0 0 .05-.048.046.046 0 0 0 0-.022.022.022 0 0 0-.01-.013l-.013-.007h-.037v-.016h.012l.013.005.009.011.027-.015a.048.048 0 0 0-.017-.026.055.055 0 0 0-.032-.009.047.047 0 0 0-.034.012.045.045 0 0 0-.013.034.06.06 0 0 0 0 .021l.009.012.013.007h.038v.019zm-.106-.18h.034v.038h-.034zm0 .061h.034v.152h-.034zm-.032.071-.014-.007h-.036v-.016h.012l.012.005.009.011.028-.015a.0503.0503 0 0 0-.1.011.06.06 0 0 0 0 .021l.009.012.012.007h.039v.01l-.005.009h-.013a.02.02 0 0 1-.015-.005.03.03 0 0 1-.012-.013l-.027.016a.044.044 0 0 0 .018.027.055.055 0 0 0 .034.01.05.05 0 0 0 .037-.013.046.046 0 0 0 .013-.035.07.07 0 0 0 0-.022.03.03 0 0 0-.001-.013m-.103.014a.022.022 0 0 0-.01-.013l-.013-.007h-.037v-.016h.012l.013.005.009.011.027-.015a.048.048 0 0 0-.017-.026.055.055 0 0 0-.032-.009.047.047 0 0 0-.034.012.045.045 0 0 0-.013.034.04.04 0 0 0 0 .021l.008.012L15 15.5h.038v.01l-.005.009h-.012a.024.024 0 0 1-.021.01.03.03 0 0 1-.011-.013l-.027.016a.037.037 0 0 0 .018.027.053.053 0 0 0 .034.01.05.05 0 0 0 .037-.013.05.05 0 0 0 .013-.035.05.05 0 0 0 0-.021m-.141.067h.035l-.058-.213h-.023l-.059.213h.036l.008-.034h.053zm-.052-.07.017-.072.018.072zm-.179-.084a.046.046 0 0 0-.037.016.064.064 0 0 0-.013.044v.039a.06.06 0 0 0 .014.042.05.05 0 0 0 .038.015.045.045 0 0 0 .03-.009.052.052 0 0 0 .016-.028l-.028-.012-.007.011h-.012a.017.017 0 0 1-.014-.006.022.022 0 0 1-.005-.017v-.007h.068v-.026a.086.086 0 0 0-.013-.049.045.045 0 0 0-.037-.013m.018.066h-.036v-.008a.027.027 0 0 1 .005-.018.017.017 0 0 1 .026 0 .02.02 0 0 1 .005.015zm-.133-.025a.03.03 0 0 1 0 .015v.1h.034v-.1a.064.064 0 0 0-.01-.039.029.029 0 0 0-.026-.013.03.03 0 0 0-.02.007.06.06 0 0 0-.014.02l-.006-.014a.03.03 0 0 0-.027-.013.026.026 0 0 0-.019.007.04.04 0 0 0-.011.017v-.022h-.034v.152h.034v-.1a.02.02 0 0 1 0-.014.017.017 0 0 1 .012 0 .014.014 0 0 1 .012.006.022.022 0 0 1 0 .015v.1h.034v-.1a.025.025 0 0 1 .005-.016.014.014 0 0 1 .012 0 .014.014 0 0 1 .024-.008m-.206-.041a.043.043 0 0 0-.036.014.053.053 0 0 0-.013.039v.049a.055.055 0 0 0 .013.04.053.053 0 0 0 .072 0 .053.053 0 0 0 .013-.039v-.05a.053.053 0 0 0-.013-.039.043.043 0 0 0-.036-.014m.016.1a.02.02 0 0 1-.005.014h-.011a.013.013 0 0 1-.012 0 .026.026 0 0 1 0-.014v-.047a.026.026 0 0 1 0-.014.017.017 0 0 1 .012 0 .013.013 0 0 1 .011 0 .02.02 0 0 1 .005.014zm-.128-.069h-.046v-.09h-.034v.213h.034v-.087h.046v.087h.034v-.213h-.034zm2.509-.39a.03.03 0 0 0-.02.008.04.04 0 0 0-.012.017v-.023H16.7v.152h.035v-.086a.036.036 0 0 1 .006-.022.021.021 0 0 1 .017-.008h.012l.01-.035h-.006zm-.144 0a.05.05 0 0 0-.037.014.057.057 0 0 0-.013.039v.05a.057.057 0 0 0 .013.039.046.046 0 0 0 .037.014.045.045 0 0 0 .036-.014.053.053 0 0 0 .013-.039v-.05a.053.053 0 0 0-.013-.039.05.05 0 0 0-.036-.014m.015.1a.02.02 0 0 1 0 .014.014.014 0 0 1-.011.005.017.017 0 0 1-.012-.005.02.02 0 0 1 0-.014v-.048a.02.02 0 0 1 0-.014.017.017 0 0 1 .012 0 .014.014 0 0 1 .011 0 .02.02 0 0 1 0 .014zm-.097.054v-.119h.022v-.033h-.022v-.022h.02V15h-.021a.03.03 0 0 0-.026.01.045.045 0 0 0-.008.03v.02H16.5v.033h.014v.119zm-.126-.061v-.027a.08.08 0 0 0-.013-.049.045.045 0 0 0-.036-.017.043.043 0 0 0-.037.016.064.064 0 0 0-.014.044v.039a.06.06 0 0 0 .014.042.05.05 0 0 0 .038.015.05.05 0 0 0 .032-.01.04.04 0 0 0 .015-.028l-.028-.012-.007.012h-.011a.02.02 0 0 1-.015-.006.03.03 0 0 1-.005-.017v-.007zm-.068-.035a.03.03 0 0 1 .005-.017.015.015 0 0 1 .014-.007.014.014 0 0 1 .012.006.02.02 0 0 1 0 .015v.011h-.036Zm-.048.096v-.037h-.007V15h-.043v.172a.042.042 0 0 0 .009.029.031.031 0 0 0 .025.011zm-.142-.021a.05.05 0 0 0 .01.016.024.024 0 0 0 .018.007.031.031 0 0 0 .027-.014.074.074 0 0 0 .01-.04v-.048a.066.066 0 0 0-.01-.04.03.03 0 0 0-.026-.014.024.024 0 0 0-.018.007.04.04 0 0 0-.011.017V15h-.033v.212h.033zm0-.079v-.017h.009a.013.013 0 0 1 .011.006.025.025 0 0 1 0 .016v.043a.027.027 0 0 1 0 .016.014.014 0 0 1-.011.005h-.009v-.017Zm-.096-.112h.034v.038h-.034zm0 .06h.034v.151h-.034zm-.018.152v-.037h-.007V15H16v.172a.042.042 0 0 0 0 .028.031.031 0 0 0 .025.011zm-.111-.152h.034v.151h-.034zm0-.06h.034v.038h-.034zm-.076.058a.05.05 0 0 0-.03.009.044.044 0 0 0-.016.025l.026.012.008-.009h.011a.017.017 0 0 1 .018.018v.012h-.021a.048.048 0 0 0-.035.012.046.046 0 0 0-.012.035.055.055 0 0 0 .01.034.034.034 0 0 0 .027.011h.016a.03.03 0 0 0 .012-.01v-.008.019h.031v-.1a.056.056 0 0 0-.012-.038.048.048 0 0 0-.033-.022m.017.109a.015.015 0 0 1-.005.012.025.025 0 0 1-.016 0h-.012v-.011a.017.017 0 0 1 0-.013.014.014 0 0 1 .012 0h.02zm-.125.045.043-.152h-.034l-.022.098-.022-.098h-.033l.043.152zm-.129-.001a.03.03 0 0 0 .012-.01v-.008.019h.031v-.1a.052.052 0 0 0-.013-.038.045.045 0 0 0-.035-.013.05.05 0 0 0-.03.009.04.04 0 0 0-.016.025l.026.012.008-.009h.011a.017.017 0 0 1 .018.018v.012h-.021a.042.042 0 0 0-.047.047.055.055 0 0 0 .009.034.038.038 0 0 0 .028.011zm-.022-.042a.022.022 0 0 1 0-.013.017.017 0 0 1 .012 0h.021v.016a.013.013 0 0 1-.006.012.024.024 0 0 1-.016 0h-.011Zm-.124-.038-.013-.007h-.037v-.017h.025l.009.011.027-.015a.048.048 0 0 0-.017-.026.055.055 0 0 0-.032-.009.044.044 0 0 0-.034.013.042.042 0 0 0-.013.034.06.06 0 0 0 0 .02l.009.012.013.008h.028l.01.005v.009l-.005.009h-.012a.03.03 0 0 1-.016 0 .03.03 0 0 1-.011-.014l-.027.016a.04.04 0 0 0 .018.028.06.06 0 0 0 .034.009.05.05 0 0 0 .037-.013.057.057 0 0 0 .009-.057.022.022 0 0 0-.002-.016m-.105.02v-.027a.08.08 0 0 0-.013-.049.049.049 0 0 0-.073 0 .064.064 0 0 0-.014.044v.039a.06.06 0 0 0 .014.042.05.05 0 0 0 .039.015.05.05 0 0 0 .03-.009.04.04 0 0 0 .015-.028l-.028-.012-.007.012h-.011a.02.02 0 0 1-.015-.006.03.03 0 0 1 0-.017v-.007zm-.068-.035a.03.03 0 0 1 0-.017.016.016 0 0 1 .014-.007.014.014 0 0 1 .012.006.02.02 0 0 1 0 .015v.011H15.3Zm-.101.057a.043.043 0 0 0 .008.029.031.031 0 0 0 .027.011h.016v-.037h-.015v-.082h.017v-.034h-.017v-.044H15.2v.044h-.013v.034h.013Zm-.036.039v-.1a.052.052 0 0 0-.013-.038.045.045 0 0 0-.035-.013.05.05 0 0 0-.03.009.044.044 0 0 0-.016.025l.026.012.008-.009h.011a.017.017 0 0 1 .018.018v.012h-.021a.042.042 0 0 0-.047.047.05.05 0 0 0 .01.034.034.034 0 0 0 .027.011h.016a.03.03 0 0 0 .012-.01v-.008.019zm-.037-.033a.022.022 0 0 1-.015 0H15.1v-.011a.022.022 0 0 1 0-.013.017.017 0 0 1 .013 0h.02v.016a.013.013 0 0 1-.006.008m-.088.033V15h-.034v.082a.06.06 0 0 0-.01-.017.034.034 0 0 0-.018-.007.031.031 0 0 0-.027.014.074.074 0 0 0-.009.04v.049a.07.07 0 0 0 .009.039.029.029 0 0 0 .027.014A.024.024 0 0 0 15 15.2a.03.03 0 0 0 .01-.016v.021zM15 15.167v.006h-.008a.013.013 0 0 1-.012-.005.034.034 0 0 1 0-.016v-.043a.03.03 0 0 1 0-.016.014.014 0 0 1 .012-.006H15v.072zm-.148.02a.04.04 0 0 0 .01.016.024.024 0 0 0 .018.007.031.031 0 0 0 .027-.014.074.074 0 0 0 .009-.04v-.048a.074.074 0 0 0-.009-.04.031.031 0 0 0-.027-.014.027.027 0 0 0-.018.007.06.06 0 0 0-.01.017v-.022h-.034v.214h.034zm0-.079v-.011l.005-.006h.008a.014.014 0 0 1 .012.006.025.025 0 0 1 0 .016v.043a.027.027 0 0 1 0 .016.017.017 0 0 1-.012.005h-.008l-.005-.006v-.011Zm-.064.1v-.152h-.034v.1a.02.02 0 0 1 0 .014.017.017 0 0 1-.022 0 .017.017 0 0 1 0-.013v-.1h-.042v.1a.056.056 0 0 0 .01.037.03.03 0 0 0 .027.013.021.021 0 0 0 .018-.008.04.04 0 0 0 .009-.016v.022zm-.231-.055-.022-.097h-.024l-.022.097-.017-.097h-.033l.036.152h.026l.022-.1.022.1h.026l.036-.152h-.033zm-.179-.099a.043.043 0 0 0-.037.016.064.064 0 0 0-.014.044v.039a.06.06 0 0 0 .014.042.05.05 0 0 0 .039.015.05.05 0 0 0 .03-.009.04.04 0 0 0 .015-.028l-.028-.012-.007.012h-.011a.02.02 0 0 1-.015-.006.03.03 0 0 1-.005-.017v-.007h.068v-.023a.08.08 0 0 0-.013-.049.045.045 0 0 0-.036-.017m.017.066h-.036v-.008a.03.03 0 0 1 .005-.017.015.015 0 0 1 .014-.007.014.014 0 0 1 .012.006.02.02 0 0 1 0 .015zm-.128.019-.054-.143h-.034v.212h.031v-.139l.054.139h.035v-.212h-.032zm2.26-.351v-.026a.077.077 0 0 0-.013-.049.043.043 0 0 0-.036-.018.046.046 0 0 0-.037.016.066.066 0 0 0-.014.044v.039a.06.06 0 0 0 .014.042.05.05 0 0 0 .038.015.05.05 0 0 0 .031-.009.04.04 0 0 0 .015-.027L16.5 14.8l-.007.012h-.011a.02.02 0 0 1-.015-.006.03.03 0 0 1 0-.017v-.007zm-.068-.034a.03.03 0 0 1 0-.018.017.017 0 0 1 .014-.006.013.013 0 0 1 .012 0 .02.02 0 0 1 .005.015v.011h-.036zm-.104-.1v.046h-.013v.033h.013v.079a.045.045 0 0 0 .008.03.03.03 0 0 0 .026.01h.016v-.037h-.01v-.079h.017V14.7h-.017v-.044zm-.127.075.026.012.008-.008h.011a.015.015 0 0 1 .017.017v.012h-.021a.045.045 0 0 0-.034.012.048.048 0 0 0-.012.035.053.053 0 0 0 .009.034.034.034 0 0 0 .028.011h.016a.023.023 0 0 0 .012-.01v-.008.019h.032v-.1a.05.05 0 0 0-.013-.037.046.046 0 0 0-.036-.014.048.048 0 0 0-.029.009.04.04 0 0 0-.014.016m.062.076v.011a.024.024 0 0 1-.016 0h-.011v-.011a.022.022 0 0 1 0-.013.016.016 0 0 1 .012 0h.02zm-.09.044v-.212h-.034v.082a.04.04 0 0 0-.011-.016.025.025 0 0 0-.017-.008.031.031 0 0 0-.027.014.076.076 0 0 0-.009.04v.051a.076.076 0 0 0 .009.04.031.031 0 0 0 .027.014.03.03 0 0 0 .018-.007.032.032 0 0 0 .01-.017v.021zm-.036-.041-.005.007h-.008a.014.014 0 0 1-.012-.006.024.024 0 0 1 0-.015v-.044a.025.025 0 0 1 0-.016.014.014 0 0 1 .012-.006h.008l.005.007v.065zm-.154.02a.032.032 0 0 0 .01.017.028.028 0 0 0 .018.006.031.031 0 0 0 .027-.014.07.07 0 0 0 .009-.04v-.048a.076.076 0 0 0-.009-.04.031.031 0 0 0-.027-.014.03.03 0 0 0-.018.008.05.05 0 0 0-.01.016V14.7h-.034v.213h.034zm0-.079v-.017h.008a.014.014 0 0 1 .012.006.034.034 0 0 1 0 .016v.046a.034.034 0 0 1 0 .016.014.014 0 0 1-.012.006h-.008v-.016zm-.064.1V14.7h-.034v.1a.018.018 0 0 1 0 .013.013.013 0 0 1-.011 0 .017.017 0 0 1-.012 0 .023.023 0 0 1 0-.013v-.1h-.034v.1a.07.07 0 0 0 .009.038.035.035 0 0 0 .028.012.024.024 0 0 0 .018-.007.06.06 0 0 0 .009-.017v.022zm-.186-.118V14.7h-.017v-.044h-.034v.044H15.7v.033h.012v.079a.045.045 0 0 0 .009.03.03.03 0 0 0 .026.01h.016v-.037h-.015v-.079Zm-.119-.031a.026.026 0 0 0-.019.008.04.04 0 0 0-.011.017V14.7h-.034v.151h.034v-.1a.02.02 0 0 1 0-.014.017.017 0 0 1 .024 0 .026.026 0 0 1 0 .014v.1h.034v-.1a.067.067 0 0 0-.01-.037.032.032 0 0 0-.018-.014m-.094.149v-.1a.054.054 0 0 0-.013-.037.052.052 0 0 0-.065 0 .042.042 0 0 0-.016.025l.026.012.008-.008h.011a.015.015 0 0 1 .017.017v.012h-.021a.045.045 0 0 0-.034.012.048.048 0 0 0-.012.035.053.053 0 0 0 .009.034.034.034 0 0 0 .028.011h.016a.023.023 0 0 0 .012-.01v-.008.019zm-.037-.033a.025.025 0 0 1-.016 0h-.011v-.011a.017.017 0 0 1 0-.013.016.016 0 0 1 .012 0h.02v.016c0 .002-.001.006-.005.008m-.083-.085V14.7h-.017v-.044h-.034v.044h-.013v.033h.013v.079a.05.05 0 0 0 .008.03.033.033 0 0 0 .027.01h.016v-.037h-.015v-.079zm-.122.086a.03.03 0 0 1-.016-.005.03.03 0 0 1-.011-.013l-.027.016a.04.04 0 0 0 .018.027.06.06 0 0 0 .034.009.05.05 0 0 0 .036-.012.048.048 0 0 0 .014-.035.05.05 0 0 0 0-.023.026.026 0 0 0-.01-.013l-.013-.007h-.037v-.017h.025l.009.012.027-.016a.05.05 0 0 0-.017-.026.055.055 0 0 0-.037-.014.048.048 0 0 0-.034.013.044.044 0 0 0-.013.034.06.06 0 0 0 0 .02l.009.013.013.007.014.005h.013l.011.005v.018zm-.106-.18h.034v.038h-.034zm0 .061h.034v.152h-.034zm-.032.07-.014-.007h-.036v-.017h.024l.009.012.028-.016a.053.053 0 0 0-.018-.026.055.055 0 0 0-.066 0 .047.047 0 0 0-.012.034.06.06 0 0 0 0 .02l.009.013.012.007.014.005h.014l.011.005v.009l-.005.009h-.013a.027.027 0 0 1-.015-.005.03.03 0 0 1-.012-.013l-.027.016a.05.05 0 0 0 .018.027.06.06 0 0 0 .034.009.053.053 0 0 0 .037-.012.048.048 0 0 0 .013-.035.07.07 0 0 0 0-.023.05.05 0 0 0-.005-.012m-.099.032a.05.05 0 0 0 0-.023.026.026 0 0 0-.01-.013l-.013-.007h-.037v-.017h.025l.009.012.027-.016a.05.05 0 0 0-.017-.026.055.055 0 0 0-.032-.009.048.048 0 0 0-.034.013.044.044 0 0 0-.013.034.04.04 0 0 0 0 .02l.008.013.013.007.014.005h.014l.01.005v.009l-.005.009h-.012a.03.03 0 0 1-.015-.004.03.03 0 0 1-.011-.013l-.027.016a.04.04 0 0 0 .018.027.06.06 0 0 0 .034.009.053.053 0 0 0 .037-.012.052.052 0 0 0 .017-.039m-.11.049-.058-.212h-.023l-.059.212h.036l.008-.033h.053l.008.033zm-.087-.069.017-.073.018.073zm-.129.008v-.026a.084.084 0 0 0-.013-.049.043.043 0 0 0-.037-.018.05.05 0 0 0-.037.016.066.066 0 0 0-.013.044v.039a.06.06 0 0 0 .014.042.05.05 0 0 0 .038.015.045.045 0 0 0 .03-.009.046.046 0 0 0 .016-.027l-.028-.013-.007.012h-.012a.017.017 0 0 1-.014-.006.023.023 0 0 1-.005-.017v-.007zm-.068-.034a.024.024 0 0 1 .005-.018.016.016 0 0 1 .013-.006.015.015 0 0 1 .013 0 .025.025 0 0 1 .005.015v.011h-.036zm-.059-.006a.063.063 0 0 0-.01-.039.03.03 0 0 0-.026-.014.03.03 0 0 0-.02.008.05.05 0 0 0-.014.019l-.006-.014a.032.032 0 0 0-.027-.013.027.027 0 0 0-.019.008.04.04 0 0 0-.011.016V14.7h-.034v.151h.034v-.1a.02.02 0 0 1 0-.014.013.013 0 0 1 .012-.005.017.017 0 0 1 .012.005.025.025 0 0 1 0 .016v.1h.034v-.1a.025.025 0 0 1 .005-.015.014.014 0 0 1 .012-.005.017.017 0 0 1 .012.005.034.034 0 0 1 0 .016v.1h.034zm-.28-.039a.053.053 0 0 0-.013.039v.05a.053.053 0 0 0 .013.039.043.043 0 0 0 .036.014.045.045 0 0 0 .036-.013.057.057 0 0 0 .013-.04v-.05a.053.053 0 0 0-.013-.039.053.053 0 0 0-.072 0m.052.041v.05a.02.02 0 0 1-.005.014.013.013 0 0 1-.011.005.017.017 0 0 1-.012-.005.026.026 0 0 1 0-.014v-.05a.026.026 0 0 1 0-.014.013.013 0 0 1 .012-.005s.009 0 .011.005a.02.02 0 0 1 .005.014m-.094.099v-.212h-.034v.089h-.046v-.089h-.034v.212h.034v-.087h.046v.087zm.517-.755h.034v.038h-.034Zm-.028.027a.045.045 0 0 0 .013-.035.07.07 0 0 0 0-.022.034.034 0 0 0-.01-.013l-.014-.007h-.027l-.009-.005v-.016h.024l.009.011.028-.015a.05.05 0 0 0-.018-.026.052.052 0 0 0-.031-.009.042.042 0 0 0-.047.047.06.06 0 0 0 0 .02l.009.012.012.007.014.005h.025v.01l-.005.009h-.013a.026.026 0 0 1-.015 0 .04.04 0 0 1-.012-.014l-.027.016a.044.044 0 0 0 .018.027.055.055 0 0 0 .034.01.049.049 0 0 0 .042-.012m-.123-.112.034-.037v-.052h-.034zm-.012.072v-.05a.053.053 0 0 0-.013-.039.045.045 0 0 0-.036-.014.046.046 0 0 0-.037.014.057.057 0 0 0-.013.039v.049a.06.06 0 0 0 .013.04.05.05 0 0 0 .037.014.05.05 0 0 0 .036-.014.053.053 0 0 0 .013-.039m-.034 0a.024.024 0 0 1 0 .015.014.014 0 0 1-.011.005.017.017 0 0 1-.012-.005.024.024 0 0 1 0-.015v-.047a.02.02 0 0 1 0-.014.017.017 0 0 1 .012-.005.014.014 0 0 1 .011.005.02.02 0 0 1 0 .014zm-.13.072a.012.012 0 0 1-.01 0h-.01l-.006-.011-.032.011a.047.047 0 0 0 .014.03.048.048 0 0 0 .031.009.048.048 0 0 0 .038-.014.055.055 0 0 0 .013-.04v-.158h-.034V14a.06.06 0 0 0-.01-.016.024.024 0 0 0-.018-.007.032.032 0 0 0-.027.014.073.073 0 0 0-.009.039v.05a.07.07 0 0 0 .009.039.032.032 0 0 0 .027.014.028.028 0 0 0 .019-.007.04.04 0 0 0 .009-.016v.029a.017.017 0 0 1-.004.014m0-.062-.005.006h-.009a.013.013 0 0 1-.011-.005.025.025 0 0 1 0-.016v-.044a.027.027 0 0 1 0-.016.013.013 0 0 1 .011-.005h.009l.005.006v.07zm-.133.043a.05.05 0 0 0 .036-.014.057.057 0 0 0 .013-.039v-.05a.057.057 0 0 0-.013-.039.045.045 0 0 0-.036-.014.046.046 0 0 0-.037.014.053.053 0 0 0-.013.039v.049a.055.055 0 0 0 .013.04.05.05 0 0 0 .037.014m-.016-.1a.02.02 0 0 1 0-.014.014.014 0 0 1 .011-.005.017.017 0 0 1 .012.005.02.02 0 0 1 0 .014v.047a.024.024 0 0 1 0 .015.017.017 0 0 1-.012.005.014.014 0 0 1-.011-.005.024.024 0 0 1 0-.015zm-.155-.114v.212h.104v-.037h-.07v-.175Zm2.57-.301a.05.05 0 0 0-.036.014.053.053 0 0 0-.013.039v.05a.053.053 0 0 0 .013.039.045.045 0 0 0 .036.014.046.046 0 0 0 .037-.014.057.057 0 0 0 .013-.039v-.05a.057.057 0 0 0-.013-.039.05.05 0 0 0-.037-.014m.016.1a.03.03 0 0 1 0 .014.017.017 0 0 1-.012.005.013.013 0 0 1-.011-.005.02.02 0 0 1 0-.014v-.048a.017.017 0 0 1 0-.013s.006-.005.011-.005a.013.013 0 0 1 .012.005.022.022 0 0 1 0 .013zm-.128-.1a.027.027 0 0 0-.019.008.04.04 0 0 0-.011.017v-.083h-.033v.212h.033v-.1a.026.026 0 0 1 0-.014.017.017 0 0 1 .024 0 .02.02 0 0 1 0 .014v.1h.034v-.1a.065.065 0 0 0-.009-.037.031.031 0 0 0-.019-.017m-.183.101a.06.06 0 0 0 .013.041.052.052 0 0 0 .038.014.048.048 0 0 0 .033-.01.05.05 0 0 0 .014-.031l-.031-.012a.03.03 0 0 1-.005.013l-.011.005a.016.016 0 0 1-.013-.006.025.025 0 0 1 0-.016v-.041a.025.025 0 0 1 0-.016.016.016 0 0 1 .013-.006h.011a.04.04 0 0 1 .005.014l.031-.012a.045.045 0 0 0-.014-.031.055.055 0 0 0-.071 0 .06.06 0 0 0-.013.042zm-.092.053h.071v-.037h-.071v-.05h.061v-.037h-.061v-.051h.071v-.037h-.105v.212h.013zm-.176-.154a.05.05 0 0 0-.03.009.044.044 0 0 0-.016.025l.027.012.007-.008h.011a.017.017 0 0 1 .013 0 .017.017 0 0 1 0 .013v.012h-.021a.042.042 0 0 0-.047.047.055.055 0 0 0 .01.034.031.031 0 0 0 .027.011h.016a.023.023 0 0 0 .012-.01v-.008.019h.031v-.1a.056.056 0 0 0-.012-.038.053.053 0 0 0-.028-.018m.017.109a.014.014 0 0 1 0 .012.025.025 0 0 1-.016 0h-.011v-.011a.017.017 0 0 1 0-.013.014.014 0 0 1 .012-.005h.02zm-.127-.084v-.022h-.035v.151h.035v-.086a.032.032 0 0 1 .007-.022.02.02 0 0 1 .017-.008h.007l.01-.036h-.014a.032.032 0 0 0-.02.008.06.06 0 0 0-.007.015m-.06.13v-.037h-.015v-.079h.017v-.033H16v-.044h-.034v.044h-.012v.033h.012v.079a.046.046 0 0 0 .008.029.034.034 0 0 0 .027.011zm-.149-.001.02-.043.021.043h.036l-.04-.075.038-.076h-.036l-.018.042-.018-.042h-.037l.038.075-.04.076zm-.048-.061v-.027a.08.08 0 0 0-.013-.048.043.043 0 0 0-.037-.018.05.05 0 0 0-.037.016.064.064 0 0 0-.013.044v.039a.06.06 0 0 0 .014.042.05.05 0 0 0 .038.015.045.045 0 0 0 .03-.009.046.046 0 0 0 .016-.027l-.028-.013-.007.012h-.012a.017.017 0 0 1-.014-.006.03.03 0 0 1-.005-.017v-.007zm-.068-.035a.023.023 0 0 1 .005-.017.017.017 0 0 1 .013-.007.016.016 0 0 1 .013.006.025.025 0 0 1 .005.015v.011h-.036Zm-.129-.077h.02v-.035h-.021a.031.031 0 0 0-.026.01.05.05 0 0 0-.008.03v.021h-.013v.032h.013v.119h.034v-.119h.021v-.032h-.021V13.6Zm-.066.072a.053.053 0 0 0-.013-.039.053.053 0 0 0-.072 0 .053.053 0 0 0-.013.039v.05a.053.053 0 0 0 .013.039.053.053 0 0 0 .072 0 .053.053 0 0 0 .013-.039zm-.033.049a.022.022 0 0 1 0 .014.013.013 0 0 1-.011.005.017.017 0 0 1-.012-.005.03.03 0 0 1 0-.014v-.048a.022.022 0 0 1 0-.013.013.013 0 0 1 .012-.005c.005 0 .009 0 .011.005a.017.017 0 0 1 0 .013zm-.194-.16v.172a.045.045 0 0 0 .009.03.03.03 0 0 0 .025.01h.015v-.037h-.012v-.172zm-.069 0v.172a.045.045 0 0 0 .009.03.03.03 0 0 0 .025.01h.015v-.037h-.016v-.172zm-.031.212v-.151H15.2v.1a.018.018 0 0 1 0 .013.012.012 0 0 1-.011 0 .016.016 0 0 1-.012 0 .023.023 0 0 1 0-.013v-.1h-.034v.1a.063.063 0 0 0 .009.037.033.033 0 0 0 .028.013.022.022 0 0 0 .018-.008.04.04 0 0 0 .009-.016v.022ZM15.1 13.6h.02v-.035h-.02a.031.031 0 0 0-.026.01.05.05 0 0 0-.008.03v.021h-.013v.032h.013v.119h.034v-.119h.022v-.032H15.1v-.015zm-.126.135h-.034v.09l.034-.038zm-.05-.023v-.027a.074.074 0 0 0-.013-.048.043.043 0 0 0-.036-.018.046.046 0 0 0-.037.016.064.064 0 0 0-.014.044v.039a.06.06 0 0 0 .014.042.05.05 0 0 0 .039.015.05.05 0 0 0 .03-.009.04.04 0 0 0 .015-.027l-.028-.013-.007.012h-.011a.02.02 0 0 1-.015-.006.03.03 0 0 1-.005-.017v-.007zm-.068-.035a.03.03 0 0 1 .005-.017.017.017 0 0 1 .014-.007.014.014 0 0 1 .012.006.02.02 0 0 1 0 .015v.011h-.036Zm-.056.028a.03.03 0 0 0-.01-.013l-.013-.007h-.037v-.017h.024l.009.012.028-.016a.048.048 0 0 0-.017-.026.055.055 0 0 0-.032-.009.044.044 0 0 0-.034.013.042.042 0 0 0-.013.034.06.06 0 0 0 0 .02l.009.013.013.007h.038v.018h-.012a.03.03 0 0 1-.016 0 .03.03 0 0 1-.011-.013l-.028.016a.05.05 0 0 0 .018.027.065.065 0 0 0 .035.009.052.052 0 0 0 .036-.012.05.05 0 0 0 .014-.036.07.07 0 0 0-.001-.02m-.168-.022a.045.045 0 0 0-.034.012.048.048 0 0 0-.012.035.055.055 0 0 0 .009.034.034.034 0 0 0 .028.011h.016a.023.023 0 0 0 .012-.01v-.008.019h.032v-.1a.056.056 0 0 0-.013-.038.05.05 0 0 0-.036-.013.046.046 0 0 0-.029.009.04.04 0 0 0-.016.025l.026.012.008-.008h.011a.018.018 0 0 1 .013 0 .017.017 0 0 1 0 .013v.012zm.021.045c0 .006 0 .01-.005.012a.025.025 0 0 1-.016 0h-.011v-.011a.017.017 0 0 1 0-.013.017.017 0 0 1 .012-.005h.02zm-.09-.016v-.027a.074.074 0 0 0-.013-.048.043.043 0 0 0-.036-.018.046.046 0 0 0-.037.016.064.064 0 0 0-.014.044v.039a.06.06 0 0 0 .014.042.05.05 0 0 0 .038.015.05.05 0 0 0 .031-.009.04.04 0 0 0 .015-.027l-.028-.013-.007.012h-.011a.02.02 0 0 1-.015-.006.03.03 0 0 1-.005-.017v-.007zm-.068-.035a.03.03 0 0 1 .005-.017.017.017 0 0 1 .014-.007.014.014 0 0 1 .012.006.02.02 0 0 1 .005.015v.011H14.5Zm-.049.096v-.037h-.007v-.172H14.4v.172a.045.045 0 0 0 .009.03.03.03 0 0 0 .025.01zm-.076-.061v-.027a.074.074 0 0 0-.013-.048.04.04 0 0 0-.036-.018.047.047 0 0 0-.037.016.064.064 0 0 0-.013.044v.039a.06.06 0 0 0 .013.042.05.05 0 0 0 .039.015.05.05 0 0 0 .03-.009.046.046 0 0 0 .016-.027l-.029-.013-.007.012h-.011a.02.02 0 0 1-.015-.006.03.03 0 0 1-.005-.017v-.007zm-.068-.035a.03.03 0 0 1 .005-.017.02.02 0 0 1 .014-.007.018.018 0 0 1 .013.006.02.02 0 0 1 0 .015v.011H14.3Zm-.124-.055v.151h.035v-.086a.04.04 0 0 1 .006-.022.023.023 0 0 1 .018-.008h.006l.011-.036h-.014a.032.032 0 0 0-.02.008.06.06 0 0 0-.012.017v-.022zm2.552-.208.035-.151h-.033l-.017.097-.022-.097h-.023l-.022.097-.018-.097h-.032l.035.151h.026l.022-.099.023.099zm-.192.003a.05.05 0 0 0 .03-.01.046.046 0 0 0 .016-.027l-.029-.013-.006.012h-.012a.017.017 0 0 1-.014-.006.023.023 0 0 1 0-.017v-.007h.067v-.026a.084.084 0 0 0-.012-.049.043.043 0 0 0-.037-.018.047.047 0 0 0-.037.016.066.066 0 0 0-.013.044v.039a.056.056 0 0 0 .014.042.045.045 0 0 0 .033.02m-.02-.1a.024.024 0 0 1 0-.018.015.015 0 0 1 .013-.006.02.02 0 0 1 .013.005.025.025 0 0 1 0 .016v.01h-.036zm-.125-.002a.026.026 0 0 1 0-.014.017.017 0 0 1 .024 0 .026.026 0 0 1 0 .014v.1h.034v-.1a.06.06 0 0 0-.01-.037.03.03 0 0 0-.026-.013.027.027 0 0 0-.019.008.04.04 0 0 0-.011.017v-.022h-.034v.151h.034zm-.121.061h-.034v.09l.034-.037zm-.097.006a.03.03 0 0 1-.016 0 .036.036 0 0 1-.011-.013l-.027.016a.047.047 0 0 0 .018.027.06.06 0 0 0 .034.01.054.054 0 0 0 .037-.013.048.048 0 0 0 .013-.035.07.07 0 0 0 0-.023.05.05 0 0 0-.01-.013l-.014-.006h-.036v-.008l.005-.009h.024l.009.012.027-.015a.04.04 0 0 0-.017-.026.052.052 0 0 0-.031-.01.048.048 0 0 0-.035.013.048.048 0 0 0-.013.034.04.04 0 0 0 0 .02l.009.013.012.007.014.005h.024v.018zm-.139-.067a.02.02 0 0 1 0-.014.013.013 0 0 1 .011-.005.017.017 0 0 1 .012.005.02.02 0 0 1 0 .014v.1h.041v-.1a.07.07 0 0 0-.009-.037.032.032 0 0 0-.026-.013.03.03 0 0 0-.02.008.06.06 0 0 0-.01.017v-.022H16v.151h.034zm-.161-.002v.05a.062.062 0 0 0 .013.04.05.05 0 0 0 .037.014.047.047 0 0 0 .036-.014.057.057 0 0 0 .013-.04v-.05a.053.053 0 0 0-.013-.039.047.047 0 0 0-.036-.014.05.05 0 0 0-.037.014.057.057 0 0 0-.013.039m.034 0a.026.026 0 0 1 0-.014.013.013 0 0 1 .012-.005s.009 0 .011.005a.02.02 0 0 1 0 .014v.047a.02.02 0 0 1 0 .014.013.013 0 0 1-.011.005.017.017 0 0 1-.012-.005.026.026 0 0 1 0-.014zm-.098.104a.05.05 0 0 0 .032-.01.048.048 0 0 0 .015-.031l-.032-.013-.005.014h-.011a.014.014 0 0 1-.012-.006.025.025 0 0 1-.005-.016v-.04a.026.026 0 0 1 .007-.015.014.014 0 0 1 .012-.006h.011a.026.026 0 0 1 .006.014l.031-.011a.048.048 0 0 0-.015-.032.046.046 0 0 0-.032-.011.053.053 0 0 0-.039.015.066.066 0 0 0-.013.042v.044a.065.065 0 0 0 .013.041.05.05 0 0 0 .037.021m-.112-.215h.034v.212h-.034zm-.125.212h.034V13.2h-.034v.082a.05.05 0 0 0-.011-.016.025.025 0 0 0-.018-.008.03.03 0 0 0-.026.014.076.076 0 0 0-.009.04v.049a.076.076 0 0 0 .009.04.03.03 0 0 0 .026.014.03.03 0 0 0 .019-.007.06.06 0 0 0 .01-.016zm0-.041v.007h-.008a.014.014 0 0 1-.012-.006.022.022 0 0 1 0-.015v-.044a.025.025 0 0 1 0-.016.014.014 0 0 1 .012-.006h.008v.065zm-.13-.073a.02.02 0 0 1 0 .014v.1h.033v-.1a.07.07 0 0 0-.009-.037.032.032 0 0 0-.026-.013.03.03 0 0 0-.02.008.06.06 0 0 0-.01.017v-.022h-.034v.151h.034v-.1a.02.02 0 0 1 0-.014.014.014 0 0 1 .011-.005.014.014 0 0 1 .021.001m-.144.024a.044.044 0 0 0-.034.012.048.048 0 0 0-.012.035.053.053 0 0 0 .009.034.034.034 0 0 0 .028.012h.016a.03.03 0 0 0 .012-.01v-.008.019h.032v-.1a.054.054 0 0 0-.013-.037.047.047 0 0 0-.036-.014.05.05 0 0 0-.03.009.047.047 0 0 0-.016.025l.027.012.008-.008h.011a.018.018 0 0 1 .013 0 .017.017 0 0 1 0 .013v.012zm.021.046a.017.017 0 0 1 0 .012.035.035 0 0 1-.016 0h-.011v-.011a.018.018 0 0 1 0-.013.016.016 0 0 1 .012 0h.02zm-.121-.042a.033.033 0 0 1 .006-.021.019.019 0 0 1 .017-.008h.012l.01-.036h-.013a.03.03 0 0 0-.02.008.05.05 0 0 0-.012.017v-.022h-.04v.151h.04zm-.069-.064v-.011a.056.056 0 0 0-.013-.038.053.053 0 0 0-.036-.013h-.063v.212h.065a.045.045 0 0 0 .036-.013.05.05 0 0 0 .013-.038v-.014a.045.045 0 0 0-.009-.03.04.04 0 0 0-.026-.014.036.036 0 0 0 .024-.014.04.04 0 0 0 .009-.027m-.079-.026h.027a.017.017 0 0 1 .018.018v.011a.02.02 0 0 1 0 .015.017.017 0 0 1-.013.005h-.027zm.047.106v.015a.017.017 0 0 1-.019.019h-.028v-.055h.028a.017.017 0 0 1 .014.006.02.02 0 0 1 .006.015zm-.279-.044a.025.025 0 0 1 0 .016v.1h.034v-.1a.025.025 0 0 1 0-.015.014.014 0 0 1 .012-.005.017.017 0 0 1 .012.005.025.025 0 0 1 0 .016v.1h.034v-.1a.063.063 0 0 0-.01-.039.03.03 0 0 0-.026-.014.03.03 0 0 0-.02.008.045.045 0 0 0-.014.02l-.006-.014a.031.031 0 0 0-.027-.014.03.03 0 0 0-.019.008.06.06 0 0 0-.011.017v-.022h-.034v.151h.034v-.1a.026.026 0 0 1 0-.014.013.013 0 0 1 .012-.005.017.017 0 0 1 .029.001m-.175-.026a.053.053 0 0 0-.013.039v.05a.057.057 0 0 0 .013.04.047.047 0 0 0 .036.014.046.046 0 0 0 .036-.014.057.057 0 0 0 .013-.04v-.05a.053.053 0 0 0-.013-.039.046.046 0 0 0-.036-.014.047.047 0 0 0-.036.014m.052.041v.047a.026.026 0 0 1 0 .014.017.017 0 0 1-.024 0 .026.026 0 0 1 0-.014v-.047a.026.026 0 0 1 0-.014.017.017 0 0 1 .024 0 .026.026 0 0 1 .003.014zm-.138.06a.05.05 0 0 0 .008.03.033.033 0 0 0 .027.01h.016v-.037h-.016V13.3h.017v-.033h-.017v-.044h-.034v.044h-.013v.033h.013Zm-.074-.075h.012l.009.012.028-.015a.044.044 0 0 0-.017-.026.055.055 0 0 0-.032-.01.048.048 0 0 0-.034.013.044.044 0 0 0-.013.034.06.06 0 0 0 0 .02l.009.013.013.007.013.005h.025v.009l-.005.009h-.012a.03.03 0 0 1-.016 0 .024.024 0 0 1-.011-.013l-.028.016a.047.047 0 0 0 .018.027.065.065 0 0 0 .035.01.053.053 0 0 0 .036-.013.048.048 0 0 0 .014-.035.07.07 0 0 0 0-.023.03.03 0 0 0-.01-.013l-.013-.006h-.037v-.017zm-.132.117a.023.023 0 0 0 .018-.008.06.06 0 0 0 .009-.017v.022h.034v-.151h-.034v.1a.018.018 0 0 1 0 .013.015.015 0 0 1-.022 0 .017.017 0 0 1 0-.013v-.1h-.034v.1a.06.06 0 0 0 .01.038.032.032 0 0 0 .019.016m-.153-.008a.06.06 0 0 0 .031.008.055.055 0 0 0 .029-.008.047.047 0 0 0 .019-.024.12.12 0 0 0 .008-.041h-.035a.055.055 0 0 1-.006.026.019.019 0 0 1-.015.008.018.018 0 0 1-.016-.007.033.033 0 0 1-.006-.021v-.083a.033.033 0 0 1 .006-.021.018.018 0 0 1 .016-.008h.011l.007.011v.019h.035a.11.11 0 0 0-.008-.04.042.042 0 0 0-.019-.024.055.055 0 0 0-.029-.008.06.06 0 0 0-.031.008.05.05 0 0 0-.019.022.08.08 0 0 0-.007.037v.083a.08.08 0 0 0 .007.036.048.048 0 0 0 .022.027m1.614-.609a.043.043 0 0 0 .027-.008.06.06 0 0 0 .014-.02v.028h.045v-.265h-.048v.1a.07.07 0 0 0-.015-.018.043.043 0 0 0-.026-.009.047.047 0 0 0-.038.017.08.08 0 0 0-.013.05v.061a.077.077 0 0 0 .013.049.044.044 0 0 0 .041.015m0-.124a.032.032 0 0 1 .006-.02.022.022 0 0 1 .016-.007h.012l.007.008v.086l-.007.008h-.012a.019.019 0 0 1-.016-.007.03.03 0 0 1-.006-.019Zm-.153.124a.08.08 0 0 0 .043-.011.06.06 0 0 0 .023-.035l-.041-.015a.03.03 0 0 1-.01.015.027.027 0 0 1-.016 0 .025.025 0 0 1-.028-.028v-.009h.1v-.033a.085.085 0 0 0-.019-.06.061.061 0 0 0-.051-.022.073.073 0 0 0-.054.019.082.082 0 0 0-.019.056v.048a.07.07 0 0 0 .02.053.078.078 0 0 0 .052.022m-.029-.121a.033.033 0 0 1 .007-.023.026.026 0 0 1 .02-.008.021.021 0 0 1 .017.008.023.023 0 0 1 .007.018v.014h-.051Zm-.148.121a.084.084 0 0 0 .044-.011.058.058 0 0 0 .022-.035l-.041-.015a.04.04 0 0 1-.009.015.03.03 0 0 1-.017 0 .024.024 0 0 1-.02-.007.03.03 0 0 1-.008-.021v-.009h.1v-.033a.09.09 0 0 0-.018-.06.065.065 0 0 0-.052-.022.07.07 0 0 0-.053.019.078.078 0 0 0-.019.056v.048a.07.07 0 0 0 .019.053.08.08 0 0 0 .052.022m-.029-.121a.04.04 0 0 1 .007-.023.028.028 0 0 1 .02-.008.025.025 0 0 1 .018.008.023.023 0 0 1 .007.018v.014h-.052zm-.168.012h.086v-.045h-.086v-.067h.101v-.046h-.149v.265h.048zm-.237.066a.046.046 0 0 1-.023-.006.04.04 0 0 1-.015-.016l-.039.019a.054.054 0 0 0 .025.034.1.1 0 0 0 .049.012.078.078 0 0 0 .053-.016.054.054 0 0 0 .019-.043.07.07 0 0 0 0-.028.06.06 0 0 0-.019-.013.07.07 0 0 0-.02-.009l-.021-.005h-.018l-.013-.005a.014.014 0 0 1-.005-.01.011.011 0 0 1 .006-.011.03.03 0 0 1 .017 0 .035.035 0 0 1 .018.005.04.04 0 0 1 .013.015l.039-.019a.056.056 0 0 0-.025-.033.084.084 0 0 0-.044-.011.072.072 0 0 0-.05.016.052.052 0 0 0-.018.042.06.06 0 0 0 .005.025.034.034 0 0 0 .013.016l.017.009.02.006h.02l.015.006a.011.011 0 0 1 .006.011.013.013 0 0 1-.007.012.03.03 0 0 1-.018-.003m-.243.041.031-.125.033.125h.037l.05-.189h-.047l-.024.12-.032-.12h-.033l-.032.12-.024-.12h-.047l.05.189zm-.174.002a.084.084 0 0 0 .044-.011.058.058 0 0 0 .022-.035l-.041-.015a.04.04 0 0 1-.009.015.03.03 0 0 1-.017 0 .024.024 0 0 1-.02-.007.03.03 0 0 1-.008-.021v-.009h.1v-.033a.09.09 0 0 0-.018-.06.065.065 0 0 0-.052-.022.07.07 0 0 0-.053.019.078.078 0 0 0-.019.056v.048a.07.07 0 0 0 .019.053.08.08 0 0 0 .052.022m-.029-.121a.04.04 0 0 1 .007-.023.028.028 0 0 1 .02-.008.025.025 0 0 1 .018.008.023.023 0 0 1 .007.018v.014H14.6Zm-.212-.054.077.172h.049v-.264h-.045v.178l-.078-.178h-.049v.264h.046zm-3.416 3.249a.074.074 0 0 1-.074.074.074.074 0 0 1-.074-.074.074.074 0 0 1 .074-.074.074.074 0 0 1 .074.074m.446-2.386a.022.022 0 0 1 .008-.018.043.043 0 0 1 .024-.006.034.034 0 0 1 .024.007.024.024 0 0 1 .009.02v.076h.031v-.076a.048.048 0 0 0-.014-.038.06.06 0 0 0-.04-.013.055.055 0 0 0-.026.006.046.046 0 0 0-.016.015v-.019h-.031v.125h.031zm-.116-.088a.1.1 0 0 0-.041-.008.1.1 0 0 0-.041.008.07.07 0 0 0-.028.023.06.06 0 0 0-.009.034v.043a.064.064 0 0 0 .009.034.06.06 0 0 0 .028.022.086.086 0 0 0 .041.008.09.09 0 0 0 .041-.008.054.054 0 0 0 .027-.022.057.057 0 0 0 .01-.034v-.049a.055.055 0 0 0-.01-.034.06.06 0 0 0-.027-.017m.005.107a.036.036 0 0 1-.013.029.048.048 0 0 1-.033.01.053.053 0 0 1-.034-.01.038.038 0 0 1-.012-.029v-.051a.037.037 0 0 1 .012-.029.053.053 0 0 1 .034-.011.05.05 0 0 1 .033.011.035.035 0 0 1 .013.029zm1.805-.259a.058.058 0 0 0 .011.037.05.05 0 0 0 .036.013h.025v-.048h-.02v-.094h.023v-.046h-.023v-.055h-.049v.055H13.1v.042h.019zm-.162-.064a.03.03 0 0 1 .008-.022.03.03 0 0 1 .021-.008.03.03 0 0 1 .022.008.03.03 0 0 1 .008.021v.117h.049v-.114a.085.085 0 0 0-.016-.056.057.057 0 0 0-.046-.02.05.05 0 0 0-.03.009.08.08 0 0 0-.016.02v-.1h-.049v.261h.049zm-.19.116a.046.046 0 0 0 .028-.008.06.06 0 0 0 .015-.019v.027a.026.026 0 0 1-.01.023.037.037 0 0 1-.025.009.06.06 0 0 1-.019 0 .05.05 0 0 1-.015-.011l-.033.031a.07.07 0 0 0 .027.022.1.1 0 0 0 .04.008.08.08 0 0 0 .062-.022.078.078 0 0 0 .022-.06v-.19h-.049v.025a.08.08 0 0 0-.016-.019.046.046 0 0 0-.027-.009.057.057 0 0 0-.047.021.1.1 0 0 0-.016.061v.029a.1.1 0 0 0 .016.06.057.057 0 0 0 .047.022m-.014-.11a.04.04 0 0 1 .008-.027.026.026 0 0 1 .021-.009.03.03 0 0 1 .015 0 .03.03 0 0 1 .01.01.04.04 0 0 1 0 .017v.042a.03.03 0 0 1 0 .015l-.01.01a.03.03 0 0 1-.015 0 .024.024 0 0 1-.021-.01.038.038 0 0 1-.008-.026zm-.139-.155h.049v.049h-.049zm0 .075h.049v.187h-.049zm-.156.187h.126v-.048h-.126v-.214h-.049v.262h.021zm-.294.003a.047.047 0 0 0 .029-.008.06.06 0 0 0 .015-.019v.027a.029.029 0 0 1-.01.023.037.037 0 0 1-.025.009.06.06 0 0 1-.019 0 .04.04 0 0 1-.015-.011l-.033.031a.066.066 0 0 0 .027.022.1.1 0 0 0 .04.008.08.08 0 0 0 .062-.022.078.078 0 0 0 .022-.06v-.19h-.049v.025a.08.08 0 0 0-.016-.019.05.05 0 0 0-.028-.009.055.055 0 0 0-.046.021.1.1 0 0 0-.016.061v.029a.1.1 0 0 0 .016.06.055.055 0 0 0 .046.022m-.013-.11a.04.04 0 0 1 .007-.027.03.03 0 0 1 .022-.009.03.03 0 0 1 .015 0l.01.01a.04.04 0 0 1 0 .017v.042a.03.03 0 0 1 0 .015l-.01.01a.03.03 0 0 1-.015 0 .027.027 0 0 1-.022-.01.038.038 0 0 1-.007-.026zm-.201-.006a.03.03 0 0 1 .008-.022.03.03 0 0 1 .021-.008.03.03 0 0 1 .022.008.03.03 0 0 1 .008.021v.117h.049v-.114a.085.085 0 0 0-.016-.056.057.057 0 0 0-.046-.02.05.05 0 0 0-.03.009.08.08 0 0 0-.016.02v-.029H11.9v.19h.049zm-.145-.149h.049v.049h-.049zm0 .075h.049v.187h-.049zm-.056.19h.025v-.048h-.019v-.21H11.7v.212a.05.05 0 0 0 .013.037.048.048 0 0 0 .033.009m-.143-.265h.049v.049h-.049zm0 .075h.049v.187h-.049zm-.115.19a.1.1 0 0 0 .037-.007.12.12 0 0 0 .033-.021l-.033-.028a.1.1 0 0 1-.017.01.07.07 0 0 1-.02 0 .04.04 0 0 1-.03-.01.044.044 0 0 1-.01-.023h.114v-.012a.124.124 0 0 0-.02-.077.066.066 0 0 0-.057-.027.08.08 0 0 0-.061.023.092.092 0 0 0-.022.064v.022a.08.08 0 0 0 .023.061.085.085 0 0 0 .063.025m-.031-.137a.037.037 0 0 1 .028-.01.03.03 0 0 1 .022.009.044.044 0 0 1 .01.025h-.069a.04.04 0 0 1 .009-.025zm-.236.125a.1.1 0 0 0 .052.011.09.09 0 0 0 .044-.01.1.1 0 0 0 .032-.031.14.14 0 0 0 .017-.049h-.051a.06.06 0 0 1-.015.03.04.04 0 0 1-.027.011.042.042 0 0 1-.033-.013.052.052 0 0 1-.011-.035v-.072a.055.055 0 0 1 .011-.036.045.045 0 0 1 .033-.013.04.04 0 0 1 .019.005.05.05 0 0 1 .014.014.07.07 0 0 1 .009.022h.051a.14.14 0 0 0-.017-.049.09.09 0 0 0-.032-.03.09.09 0 0 0-.044-.011.1.1 0 0 0-.052.012.068.068 0 0 0-.032.033.11.11 0 0 0-.011.053v.07a.11.11 0 0 0 .011.053.08.08 0 0 0 .032.035m-.444.039h.155v.12h-.155zm.07-.027a.173.173 0 1 0-.173-.173.173.173 0 0 0 .173.173m2.108 2.464a.028.028 0 0 0-.02.008.03.03 0 0 0-.008.022v.01h.054v-.014a.022.022 0 0 0-.007-.019.03.03 0 0 0-.019-.007m.309.079a.02.02 0 0 0-.006.016.017.017 0 0 0 .005.013.03.03 0 0 0 .017.005.05.05 0 0 0 .024-.005.018.018 0 0 0 .008-.015v-.02h-.03a.024.024 0 0 0-.018.006m-1.59.028a.021.021 0 0 0 .023-.023v-.059a.023.023 0 1 0-.046 0v.059a.021.021 0 0 0 .023.023m1.609-.515h-2.6a.228.228 0 0 0-.228.228v.581a.228.228 0 0 0 .228.228h2.6a.228.228 0 0 0 .228-.228v-.581a.228.228 0 0 0-.228-.228m-1.683.431a.061.061 0 0 1 .02-.048.08.08 0 0 1 .054-.017.082.082 0 0 1 .055.017.064.064 0 0 1 .019.048v.062a.066.066 0 0 1-.019.049.082.082 0 0 1-.055.017.08.08 0 0 1-.054-.017.063.063 0 0 1-.02-.049zm-.138-.062h.052v.027a.07.07 0 0 1 .018-.02.047.047 0 0 1 .03-.01h.02l-.015.044h-.018a.034.034 0 0 0-.025.01.035.035 0 0 0-.01.027v.106h-.052zm-.56.322a.173.173 0 1 1 .173-.173.172.172 0 0 1-.175.173zm.436.175h-.03l-.072-.175h.034l.053.137.054-.137h.033zm.1-.527h-.105v.067h.09v.045h-.09v.105h-.05v-.262h.155zm.038.527h-.036V16.1h.031zm0-.15h-.036v-.025h.031zm.172.1h-.1a.026.026 0 0 0 .01.022.044.044 0 0 0 .029.009h.019l.017-.009.02.016a.08.08 0 0 1-.026.014.1.1 0 0 1-.03 0 .078.078 0 0 1-.051-.015.048.048 0 0 1-.018-.041v-.014a.052.052 0 0 1 .017-.043.075.075 0 0 1 .05-.015.058.058 0 0 1 .046.017.066.066 0 0 1 .016.048zm.2.052h-.024l-.038-.086-.039.086h-.024l-.049-.125h.026l.028.089.04-.089h.022l.039.089.028-.089h.033zm.1-.31h-.05v-.123a.021.021 0 0 0-.007-.017.024.024 0 0 0-.018-.006.021.021 0 0 0-.023.023v.123h-.051v-.187h.051v.026a.08.08 0 0 1 .016-.02.054.054 0 0 1 .068.007.065.065 0 0 1 .014.046zm.125-.145h-.025v.097h.022v.046h-.024A.05.05 0 0 1 12 15.9a.045.045 0 0 1-.013-.036v-.1h-.019v-.042h.019v-.054h.051v.054h.025zm.191.091a.029.029 0 0 0 .024.009.026.026 0 0 0 .023-.01.06.06 0 0 0 .01-.031h.052a.12.12 0 0 1-.012.05.066.066 0 0 1-.028.029.09.09 0 0 1-.045.01.1.1 0 0 1-.046-.01.07.07 0 0 1-.029-.028.087.087 0 0 1-.01-.044v-.1a.09.09 0 0 1 .01-.045.08.08 0 0 1 .029-.028.11.11 0 0 1 .046-.009.1.1 0 0 1 .045.009.07.07 0 0 1 .028.03.12.12 0 0 1 .012.05h-.052a.1.1 0 0 0-.005-.024.04.04 0 0 0-.016-.018.03.03 0 0 0-.017 0 .032.032 0 0 0-.024.009.036.036 0 0 0-.009.026v.1a.033.033 0 0 0 .004.023zm.289.054H12.5v-.024.011a.04.04 0 0 1-.017.012.07.07 0 0 1-.024 0 .06.06 0 0 1-.042-.014.057.057 0 0 1-.014-.042.054.054 0 0 1 .018-.044.085.085 0 0 1 .052-.014h.027v-.015a.021.021 0 0 0-.006-.016.03.03 0 0 0-.02 0 .04.04 0 0 0-.016 0 .03.03 0 0 0-.012.011l-.04-.015a.053.053 0 0 1 .024-.031.09.09 0 0 1 .045-.011.077.077 0 0 1 .053.017.056.056 0 0 1 .019.046zm.3 0h-.051v-.12a.027.027 0 0 0-.006-.019.021.021 0 0 0-.018-.007.024.024 0 0 0-.018.006.025.025 0 0 0-.007.019v.121h-.05v-.12a.027.027 0 0 0-.007-.019.022.022 0 0 0-.019-.007.021.021 0 0 0-.023.023v.123h-.051v-.187h.051v.025a.08.08 0 0 1 .016-.019.05.05 0 0 1 .029-.009.051.051 0 0 1 .04.016.06.06 0 0 1 .009.017.07.07 0 0 1 .021-.024.053.053 0 0 1 .03-.009.051.051 0 0 1 .04.017.074.074 0 0 1 .014.048zm.19-.076h-.1v.009a.03.03 0 0 0 .008.021.03.03 0 0 0 .022.007.03.03 0 0 0 .017 0 .027.027 0 0 0 .01-.015l.043.016A.052.052 0 0 1 13 15.9a.077.077 0 0 1-.045.012.08.08 0 0 1-.055-.012.067.067 0 0 1-.02-.052V15.8a.07.07 0 0 1 .02-.054.074.074 0 0 1 .055-.02.068.068 0 0 1 .055.022.09.09 0 0 1 .019.06zm.146-.063h-.017a.034.034 0 0 0-.036.037v.106h-.066v-.187h.052v.026a.08.08 0 0 1 .018-.019.047.047 0 0 1 .03-.01h.02zm.184.139h-.047v-.024.011a.06.06 0 0 1-.018.012.06.06 0 0 1-.024 0 .056.056 0 0 1-.041-.014.068.068 0 0 1 0-.086.087.087 0 0 1 .052-.014h.032v-.015a.019.019 0 0 0-.007-.016.027.027 0 0 0-.019 0 .05.05 0 0 0-.017 0 .03.03 0 0 0-.012.011l-.039-.015a.053.053 0 0 1 .024-.031.087.087 0 0 1 .044-.011.08.08 0 0 1 .054.017.056.056 0 0 1 .019.046zm-.925-.071a.02.02 0 0 0-.006.016.015.015 0 0 0 .006.013.026.026 0 0 0 .017.005.046.046 0 0 0 .023-.005.016.016 0 0 0 .008-.015v-.02h-.03a.024.024 0 0 0-.018.006m-.867.275a.04.04 0 0 0-.028.009.029.029 0 0 0-.009.023h.07a.044.044 0 0 0-.01-.024.036.036 0 0 0-.023-.008m.235-1.645a.03.03 0 0 0-.022-.009.036.036 0 0 0-.028.01.047.047 0 0 0-.01.028h.07V14.5a.05.05 0 0 0-.01-.027m-.544.253a.05.05 0 0 0-.033.011.035.035 0 0 0-.013.029v.051a.033.033 0 0 0 .013.028.046.046 0 0 0 .033.011.047.047 0 0 0 .034-.011.036.036 0 0 0 .013-.028v-.051a.038.038 0 0 0-.013-.029.05.05 0 0 0-.034-.011m2.009-.709h-2.588a.235.235 0 0 0-.235.235v.637a.235.235 0 0 0 .235.235h2.588a.235.235 0 0 0 .235-.235v-.637a.235.235 0 0 0-.235-.235m-2.33.742H10.8v-.12h.155zm-.084-.15a.173.173 0 1 1 .172-.173.173.173 0 0 1-.172.173m.484.207a.065.065 0 0 1-.01.034.07.07 0 0 1-.027.022.09.09 0 0 1-.042.008.09.09 0 0 1-.041-.008.06.06 0 0 1-.027-.022.057.057 0 0 1-.01-.034v-.05a.052.052 0 0 1 .01-.033.056.056 0 0 1 .027-.023.11.11 0 0 1 .041-.008.11.11 0 0 1 .042.008.067.067 0 0 1 .027.023.06.06 0 0 1 .01.033zm.033-.284a.07.07 0 0 1-.026.058.116.116 0 0 1-.074.021.15.15 0 0 1-.037 0 .12.12 0 0 1-.033-.011.14.14 0 0 1-.029-.017l.023-.041a.11.11 0 0 0 .035.019.11.11 0 0 0 .041.007.075.075 0 0 0 .037-.008.027.027 0 0 0 .014-.023.024.024 0 0 0-.007-.017.04.04 0 0 0-.018-.009l-.023-.005-.031-.006a.09.09 0 0 1-.029-.011.05.05 0 0 1-.021-.022.07.07 0 0 1-.008-.038.072.072 0 0 1 .025-.059.11.11 0 0 1 .071-.021.14.14 0 0 1 .044.007.15.15 0 0 1 .04.02l-.02.042a.12.12 0 0 0-.032-.016.1.1 0 0 0-.032-.006.07.07 0 0 0-.035.007.024.024 0 0 0-.012.021.025.025 0 0 0 .007.019.05.05 0 0 0 .019.009l.026.006.03.007a.08.08 0 0 1 .027.013.05.05 0 0 1 .02.021.08.08 0 0 1 .008.036zm.081.2h-.029v.024h.031v.021h-.031v.1H11.4v-.1h-.017v-.021h.017v-.017a.033.033 0 0 1 .009-.025.05.05 0 0 1 .03-.008h.023zm.007-.118h-.05v-.188h.05zm0-.213h-.05v-.05h.05zm.093.331h-.03v.024h.032v.021h-.032v.1H11.5v-.1h-.017v-.021h.017v-.017a.03.03 0 0 1 .01-.025.047.047 0 0 1 .03-.008h.023zm.1-.118h-.049v-.025a.06.06 0 0 1-.015.019.059.059 0 0 1-.075-.013.1.1 0 0 1-.017-.06V14.5a.1.1 0 0 1 .017-.06.055.055 0 0 1 .046-.021.044.044 0 0 1 .027.009.05.05 0 0 1 .017.019v-.1h.049zm.2-.074h-.114a.037.037 0 0 0 .01.023.04.04 0 0 0 .03.01.06.06 0 0 0 .019 0 .08.08 0 0 0 .018-.01l.032.028a.1.1 0 0 1-.032.021.1.1 0 0 1-.037.007.085.085 0 0 1-.063-.022.08.08 0 0 1-.023-.062v-.021a.086.086 0 0 1 .022-.064.076.076 0 0 1 .061-.023.068.068 0 0 1 .057.027.124.124 0 0 1 .02.077zm.322.074h-.176v-.263h.05v.215h.126zm.079 0h-.05v-.188h.05zm0-.213h-.05v-.05h.05zm.2.207a.078.078 0 0 1-.022.06.085.085 0 0 1-.062.022.1.1 0 0 1-.04-.008.067.067 0 0 1-.027-.022l.033-.031a.04.04 0 0 0 .015.011.06.06 0 0 0 .018 0 .038.038 0 0 0 .026-.008.029.029 0 0 0 .01-.023v-.023a.06.06 0 0 1-.015.019.059.059 0 0 1-.075-.013.1.1 0 0 1-.017-.06V14.5a.1.1 0 0 1 .017-.06.055.055 0 0 1 .046-.021.05.05 0 0 1 .028.009.06.06 0 0 1 .016.019v-.026h.049zm.206.006h-.049V14.5a.03.03 0 0 0-.008-.021.034.034 0 0 0-.044 0 .034.034 0 0 0-.007.022v.113h-.049v-.263h.049v.1a.08.08 0 0 1 .016-.02.05.05 0 0 1 .03-.009.054.054 0 0 1 .046.02.085.085 0 0 1 .016.056zm.126-.145h-.023v.094h.025v.047h-.025a.046.046 0 0 1-.036-.012.053.053 0 0 1-.011-.037v-.1h-.02v-.043h.02v-.054h.049v.054h.023Zm-.392-.001a.03.03 0 0 0-.015 0 .028.028 0 0 0-.022.009.04.04 0 0 0-.007.027v.029a.038.038 0 0 0 .007.026.028.028 0 0 0 .022.009.03.03 0 0 0 .015 0l.009-.01a.025.025 0 0 0 0-.016V14.5a.03.03 0 0 0 0-.016zm-.8 0a.03.03 0 0 0-.015 0 .028.028 0 0 0-.022.009.04.04 0 0 0-.007.027v.029a.038.038 0 0 0 .007.026.028.028 0 0 0 .022.009.03.03 0 0 0 .015 0l.009-.01a.025.025 0 0 0 0-.016V14.5a.03.03 0 0 0 0-.016zm-.859-.631h2.469a.293.293 0 0 0 .293-.293v-.654a.294.294 0 0 0-.293-.293h-2.469a.293.293 0 0 0-.293.293v.654a.293.293 0 0 0 .293.293m-.17-.947a.17.17 0 0 1 .17-.17h2.469a.17.17 0 0 1 .17.17v.654a.17.17 0 0 1-.17.17h-2.469a.17.17 0 0 1-.17-.17zm-4.93-3.768a.13.13 0 0 0 .053-.01.09.09 0 0 0 .037-.029L5.7 9.049a.07.07 0 0 1-.025.02.07.07 0 0 1-.029.007.06.06 0 0 1-.046-.016.06.06 0 0 1-.016-.046v-.041a.055.055 0 0 1 .06-.061.07.07 0 0 1 .029.007.064.064 0 0 1 .025.018l.035-.031a.09.09 0 0 0-.037-.03.13.13 0 0 0-.053-.01.108.108 0 0 0-.08.028.1.1 0 0 0-.028.079v.041a.1.1 0 0 0 .108.108Zm-.276-.337a.072.072 0 0 0-.019.052.074.074 0 0 0 .019.053.067.067 0 0 0 .052.019.068.068 0 0 0 .052-.019.07.07 0 0 0 .018-.052.072.072 0 0 0-.018-.053.068.068 0 0 0-.052-.019.067.067 0 0 0-.052.019m.082.052a.037.037 0 0 1-.008.025.03.03 0 0 1-.022.009.027.027 0 0 1-.023-.009.037.037 0 0 1-.008-.025.036.036 0 0 1 .008-.024.027.027 0 0 1 .023-.013.03.03 0 0 1 .022.009.036.036 0 0 1 .008.028m-.163.282v-.35h-.049l-.05.034v.05l.05-.03v.296Zm-.214-.183a.08.08 0 0 0 .04-.028.072.072 0 0 0 .014-.046v-.005a.09.09 0 0 0-.024-.067.1.1 0 0 0-.07-.024.092.092 0 0 0-.066.024.112.112 0 0 0-.033.066h.05A.06.06 0 0 1 5 8.823a.056.056 0 0 1 .065 0 .042.042 0 0 1 .012.032v.011a.05.05 0 0 1-.007.034.041.041 0 0 1-.032.012h-.025v.048h.025a.043.043 0 0 1 .036.015.055.055 0 0 1 .013.04v.011a.045.045 0 0 1-.013.036.052.052 0 0 1-.038.013.06.06 0 0 1-.036-.01.045.045 0 0 1-.018-.033h-.05a.12.12 0 0 0 .017.049.09.09 0 0 0 .036.031.12.12 0 0 0 .052.01.1.1 0 0 0 .073-.022.1.1 0 0 0 .026-.071V9.02a.093.093 0 0 0-.016-.056.07.07 0 0 0-.044-.028m-.652.079v.014h.04a.144.144 0 0 1 .125.074l.011.021.009-.009.013-.015a.249.249 0 1 0-.409-.25v.022h.023a.217.217 0 0 1 .188.143m.083-.3a.215.215 0 0 1 .151.262.22.22 0 0 1-.045.084.179.179 0 0 0-.144-.073h-.017a.252.252 0 0 0-.2-.147.214.214 0 0 1 .255-.126m.238.206a.022.022 0 0 0 .022.022H4.8a.022.022 0 1 0 0-.044h-.033a.022.022 0 0 0-.022.022m-.031-.177a.022.022 0 0 0-.006.031.022.022 0 0 0 .028.008l.031-.018a.022.022 0 0 0 .006-.031.021.021 0 0 0-.028-.007Zm-.577.021.031.018a.023.023 0 0 0 .03-.01.022.022 0 0 0-.007-.028l-.032-.018a.021.021 0 0 0-.03.008.023.023 0 0 0 .008.03m.293-.159a.022.022 0 1 0 .044 0v-.035a.022.022 0 1 0-.044 0zm.16.032a.0224.0224 0 0 0 .039.022l.018-.031a.023.023 0 0 0-.01-.03.022.022 0 0 0-.029.008Zm-.315.022a.023.023 0 0 0 .041-.02L4.3 8.607a.022.022 0 0 0-.03-.01.023.023 0 0 0-.01.03zm.325.523v-.016a.141.141 0 0 0-.14-.123.1.1 0 0 0-.025 0H4.42V9.03a.216.216 0 0 0-.417.062v.016h-.029a.107.107 0 0 0 0 .213h.638a.072.072 0 0 0 0-.144zm.136-.124a.0223.0223 0 0 0-.025.037l.031.017a.022.022 0 0 0 .03-.009.023.023 0 0 0-.008-.029Zm1.317-.732a.246.246 0 0 0 .177-.06.223.223 0 0 0 .062-.167v-.063a.22.22 0 0 0-.061-.168.23.23 0 0 0-.171-.06.18.18 0 0 0-.06.009.2.2 0 0 0-.05.024v-.167h.314v-.1h-.429v.392h.109a.146.146 0 0 1 .05-.043.116.116 0 0 1 .059-.016.113.113 0 0 1 .089.034.13.13 0 0 1 .031.094V8.1a.132.132 0 0 1-.031.094.113.113 0 0 1-.089.034.133.133 0 0 1-.08-.023.09.09 0 0 1-.037-.064h-.119a.212.212 0 0 0 .077.138.25.25 0 0 0 .159.048m-.653 0a.263.263 0 0 0 .182-.056.2.2 0 0 0 .061-.155v-.338a.2.2 0 0 0-.061-.155.263.263 0 0 0-.182-.056.26.26 0 0 0-.18.056.2.2 0 0 0-.062.155v.338a.2.2 0 0 0 .061.154.255.255 0 0 0 .181.057m-.123-.549a.112.112 0 0 1 .028-.078.126.126 0 0 1 .094-.03.13.13 0 0 1 .095.03.112.112 0 0 1 .029.082v.338a.114.114 0 0 1-.029.082.13.13 0 0 1-.095.03.126.126 0 0 1-.094-.03.114.114 0 0 1-.029-.082Zm-.37.432h.125v.109h-.125zm0-.426h.125v.109h-.125zm-.38.543a.24.24 0 0 0 .175-.06.22.22 0 0 0 .062-.167.225.225 0 0 0-.055-.163.2.2 0 0 0-.154-.058.133.133 0 0 0-.082.023l.19-.325h-.129L4.35 7.9a.45.45 0 0 0-.044.1.38.38 0 0 0-.015.1.218.218 0 0 0 .062.166.243.243 0 0 0 .174.061m-.117-.218a.148.148 0 0 1 .029-.1.1.1 0 0 1 .082-.034.12.12 0 0 1 .092.034.136.136 0 0 1 .032.1.12.12 0 0 1-.03.087.122.122 0 0 1-.088.031.108.108 0 0 1-.117-.118m-.413.21h.119v-.743h-.119l-.121.071v.107l.121-.064Zm3.555 6.994a.1.1 0 0 1 .038.008.16.16 0 0 1 .04.025l.033-.034a.17.17 0 0 0-.05-.033.19.19 0 0 0-.061-.01.106.106 0 0 0-.076.025.087.087 0 0 0-.027.069.083.083 0 0 0 .018.055.16.16 0 0 0 .054.039l.059.026a.048.048 0 0 1 .031.045.041.041 0 0 1-.016.036.086.086 0 0 1-.05.012.2.2 0 0 1-.045-.006.34.34 0 0 1-.051-.017l-.009.047a.22.22 0 0 0 .047.014.3.3 0 0 0 .054 0 .15.15 0 0 0 .091-.023.093.093 0 0 0 .011-.127.165.165 0 0 0-.058-.04l-.05-.024a.09.09 0 0 1-.026-.018.04.04 0 0 1-.009-.022.045.045 0 0 1 .014-.035.056.056 0 0 1 .038-.012M7 15.356a.08.08 0 0 0-.048.012.054.054 0 0 0-.019.039v-.047h-.061v.255h.051v-.143c0-.047.02-.071.06-.071a.042.042 0 0 1 .034.013.048.048 0 0 1 .012.035v.166h.051v-.166a.1.1 0 0 0-.022-.069.082.082 0 0 0-.058-.024m-.27.049v-.045h-.133v.045h.082v.165h-.097v.045h.226v-.045H6.73Zm-.03-.085a.033.033 0 0 0 .025-.01.036.036 0 0 0 .011-.025.036.036 0 0 0-.011-.026.036.036 0 0 0-.05 0 .036.036 0 0 0-.011.026.036.036 0 0 0 .011.025.033.033 0 0 0 .025.01m-.287.036q-.059 0-.063.051v-.152H6.3v.36h.068a.16.16 0 0 0 .115-.039.143.143 0 0 0 .041-.11.122.122 0 0 0-.027-.085.1.1 0 0 0-.084-.025m.031.193a.089.089 0 0 1-.071.028h-.027v-.1c0-.049.021-.073.064-.073a.052.052 0 0 1 .044.019.082.082 0 0 1 .015.053.11.11 0 0 1-.025.073m-.333-.193a.1.1 0 0 0-.082.034.15.15 0 0 0-.029.1.148.148 0 0 0 .029.1.115.115 0 0 0 .165 0 .148.148 0 0 0 .029-.1.15.15 0 0 0-.029-.1.1.1 0 0 0-.083-.034m.044.2a.051.051 0 0 1-.044.022.049.049 0 0 1-.043-.022.117.117 0 0 1-.015-.064.114.114 0 0 1 .015-.064.05.05 0 0 1 .043-.023.052.052 0 0 1 .044.023.114.114 0 0 1 .015.064.117.117 0 0 1-.015.06Zm-.243-.099a.107.107 0 0 0 .029-.08.1.1 0 0 0-.029-.076.118.118 0 0 0-.082-.027h-.118v.341h.05v-.13h.072l.062.13h.057l-.07-.139a.1.1 0 0 0 .029-.019m-.082-.017h-.068v-.12h.068a.057.057 0 0 1 .044.016.06.06 0 0 1 .016.046.056.056 0 0 1-.016.043.06.06 0 0 1-.044.015m1.289-.675a.109.109 0 0 0-.086.035.143.143 0 0 0-.033.1.128.128 0 0 0 .036.1.14.14 0 0 0 .1.034h.036a.4.4 0 0 0 .045-.005l-.006-.062h-.069a.084.084 0 0 1-.059-.019.054.054 0 0 1-.016-.026h.161v-.032a.13.13 0 0 0-.028-.09.112.112 0 0 0-.081-.035m-.051.113a.085.085 0 0 1 .012-.035.049.049 0 0 1 .04-.018.044.044 0 0 1 .036.014.053.053 0 0 1 .014.039Zm-.194.147.087-.255h-.066l-.061.197H6.83l-.061-.197h-.066l.087.255Zm-.215-.125a.143.143 0 0 0-.03-.1.108.108 0 0 0-.085-.035.11.11 0 0 0-.086.035.143.143 0 0 0-.03.1.145.145 0 0 0 .03.1.109.109 0 0 0 .086.034.107.107 0 0 0 .085-.034.145.145 0 0 0 .03-.1m-.079.052a.041.041 0 0 1-.036.019.039.039 0 0 1-.036-.019.085.085 0 0 1-.008-.052.087.087 0 0 1 .013-.052.04.04 0 0 1 .036-.018.043.043 0 0 1 .036.018.087.087 0 0 1 .013.052.085.085 0 0 1-.018.049Zm-.434-.268v.341h.234v-.059h-.171v-.282zm2.991-.509a.108.108 0 0 0-.086.034.145.145 0 0 0-.031.1.13.13 0 0 0 .036.1.142.142 0 0 0 .1.034h.035l.045-.006-.006-.061h-.069a.09.09 0 0 1-.059-.019.054.054 0 0 1-.016-.026h.164V14.3a.13.13 0 0 0-.029-.093.108.108 0 0 0-.084-.032m-.051.112a.076.076 0 0 1 .012-.034.047.047 0 0 1 .04-.019.046.046 0 0 1 .036.014.053.053 0 0 1 .014.039zm-.164-.112a.044.044 0 0 0-.03.01.043.043 0 0 0-.013.026h-.006a.07.07 0 0 0-.009-.023.035.035 0 0 0-.029-.013.037.037 0 0 0-.039.036v-.031h-.067v.254h.064v-.17c0-.019.006-.029.018-.029s.015.008.015.022v.177h.049v-.17c0-.019.006-.029.017-.029s.015.009.015.027v.172h.064v-.2a.07.07 0 0 0-.012-.046.045.045 0 0 0-.037-.013m-.594.199h-.005l-.029-.194h-.046l-.029.194h-.005l-.009-.194h-.063l.017.254h.085l.026-.192h.003l.025.192h.083l.024-.254h-.062Zm-.343-.199a.106.106 0 0 0-.085.034.145.145 0 0 0-.03.1.143.143 0 0 0 .03.1.121.121 0 0 0 .17 0 .138.138 0 0 0 .031-.1.14.14 0 0 0-.031-.1.106.106 0 0 0-.085-.034m.036.184a.04.04 0 0 1-.036.018.043.043 0 0 1-.036-.018.087.087 0 0 1-.013-.052.085.085 0 0 1 .013-.052.043.043 0 0 1 .036-.018.04.04 0 0 1 .036.018.085.085 0 0 1 .013.052.087.087 0 0 1-.013.052m-.301-.184a.062.062 0 0 0-.042.012.07.07 0 0 0-.018.039h-.006v-.152h-.065v.36h.065V14.3c0-.045.016-.067.049-.067a.032.032 0 0 1 .027.012.045.045 0 0 1 .01.033v.153h.065v-.166a.106.106 0 0 0-.022-.069.082.082 0 0 0-.063-.021m-.201.184a.06.06 0 0 0-.016-.044.1.1 0 0 0-.049-.026l-.071-.02-.011-.005v-.009c0-.007.006-.011.017-.014a.25.25 0 0 1 .055 0h.066l.007-.06h-.076a.21.21 0 0 0-.1.02.065.065 0 0 0-.034.061.06.06 0 0 0 .013.041.075.075 0 0 0 .038.023l.083.024.011.005v.01c0 .006 0 .011-.015.014a.18.18 0 0 1-.047 0h-.033l-.05-.005-.008.062h.091a.19.19 0 0 0 .1-.02.064.064 0 0 0 .029-.057m-.602.041a.143.143 0 0 0 .031-.1.146.146 0 0 0-.031-.1.123.123 0 0 0-.17 0 .146.146 0 0 0-.031.1.143.143 0 0 0 .031.1.121.121 0 0 0 .17 0m-.134-.1a.085.085 0 0 1 .013-.052.045.045 0 0 1 .072 0 .085.085 0 0 1 .013.052.087.087 0 0 1-.013.052.045.045 0 0 1-.072 0 .087.087 0 0 1-.013-.045zm-.208.134v-.283h.098v-.058h-.258v.058h.097v.283zM5.9 14.31v.018a.108.108 0 0 0 .029.085.144.144 0 0 0 .095.026h.032l.031-.005-.006-.061h-.055a.072.072 0 0 1-.049-.013.054.054 0 0 1-.015-.042v-.083h.113v-.055h-.113v-.08H5.9v.077h-.064v.059H5.9v.071zm-.106-.003a.145.145 0 0 0-.03-.1.107.107 0 0 0-.085-.034.106.106 0 0 0-.085.034.14.14 0 0 0-.031.1.138.138 0 0 0 .031.1.1.1 0 0 0 .085.035.1.1 0 0 0 .085-.035.143.143 0 0 0 .03-.1m-.079.052a.045.045 0 0 1-.072 0 .087.087 0 0 1-.013-.052.085.085 0 0 1 .013-.052.045.045 0 0 1 .072 0 .085.085 0 0 1 .013.052.087.087 0 0 1-.013.052m-.299-.21a.073.073 0 0 1 .036.008.074.074 0 0 1 .028.022l.04-.046a.11.11 0 0 0-.043-.033.16.16 0 0 0-.064-.012.146.146 0 0 0-.114.046.19.19 0 0 0-.041.129.193.193 0 0 0 .042.137.153.153 0 0 0 .118.044.26.26 0 0 0 .06-.006l.037-.008v-.167h-.122v.058h.056v.059a.12.12 0 0 1-.028 0 .087.087 0 0 1-.072-.03.138.138 0 0 1-.024-.088.126.126 0 0 1 .024-.083.08.08 0 0 1 .067-.03m-.501.199v-.168h-.066v.12a.114.114 0 0 1-.011.06.04.04 0 0 1-.035.017.033.033 0 0 1-.027-.012.048.048 0 0 1-.01-.033v-.152H4.7v.168a.1.1 0 0 0 .02.067.068.068 0 0 0 .056.024.064.064 0 0 0 .042-.014.065.065 0 0 0 .024-.04h.008v.052h.1v-.053l-.035-.005Zm-.389-.173a.109.109 0 0 0-.086.034.145.145 0 0 0-.03.1.143.143 0 0 0 .03.1.107.107 0 0 0 .086.035.1.1 0 0 0 .085-.035.143.143 0 0 0 .03-.1.145.145 0 0 0-.03-.1.107.107 0 0 0-.085-.034m.036.184a.043.043 0 0 1-.036.018.04.04 0 0 1-.036-.018.087.087 0 0 1-.013-.052.085.085 0 0 1 .013-.052.04.04 0 0 1 .036-.018.043.043 0 0 1 .036.018.09.09 0 0 1 .013.052.1.1 0 0 1-.013.052m-.322-.107h-.005l-.069-.159h-.071l.111.232v.109h.063v-.109l.111-.232h-.071Zm3.065-1.678-.737-.418a.119.119 0 0 0-.179.1v.844a.119.119 0 0 0 .179.1l.737-.418a.12.12 0 0 0 0-.208m-1.474-2.021a.872.872 0 1 0 .869-.871.872.872 0 0 0-.869.871m1.2.4a1 1 0 0 0-.766-.084.0543.0543 0 1 1-.024-.106 1.11 1.11 0 0 1 .847.1.056.056 0 0 1 .018.075.054.054 0 0 1-.078.019zm.088-.233a1.146 1.146 0 0 0-.869-.1.066.066 0 0 1-.084-.045.068.068 0 0 1 .045-.085 1.273 1.273 0 0 1 .979.116.068.068 0 0 1 .022.094.067.067 0 0 1-.096.024Zm-.96-.52a1.607 1.607 0 0 1 1.143.116.082.082 0 0 1-.083.141 1.447 1.447 0 0 0-1.013-.1.082.082 0 0 1-.1-.055.081.081 0 0 1 .053-.102m6.125 1.484h.032v-.162h.11v-.029h-.11v-.045c0-.066.026-.1.077-.1h.046l.005-.028a.2.2 0 0 0-.049 0q-.111 0-.111.132v.042H12.2v.029h.086zm-.284 0h.032v-.162h.11v-.029h-.11v-.045q0-.1.078-.1h.045l.006-.028a.2.2 0 0 0-.049 0c-.075 0-.112.044-.112.132v.042h-.09v.029H12Zm-.255.005a.1.1 0 0 0 .08-.035.184.184 0 0 0 0-.2.1.1 0 0 0-.08-.035.1.1 0 0 0-.079.035.184.184 0 0 0 0 .2.1.1 0 0 0 .079.035m-.055-.208a.065.065 0 0 1 .055-.027.063.063 0 0 1 .055.027.153.153 0 0 1 0 .151.063.063 0 0 1-.055.027.065.065 0 0 1-.055-.027.126.126 0 0 1-.019-.075.13.13 0 0 1 .019-.076m-.529.203a.3.3 0 0 1-.015.029.15.15 0 0 1-.034.037.12.12 0 0 1-.043.016h-.024v.03h.029a.13.13 0 0 0 .05-.018.15.15 0 0 0 .041-.043.34.34 0 0 0 .035-.074l.088-.232h-.035l-.079.22v.008l-.094-.228h-.034l.107.255zm-.317.005a.13.13 0 0 0 .046-.008.08.08 0 0 0 .033-.023.056.056 0 0 0 .013-.028v.056h.069v-.026h-.044v-.118a.11.11 0 0 0-.029-.083.13.13 0 0 0-.091-.027H10.8v.03h.054a.1.1 0 0 1 .066.018.071.071 0 0 1 .021.057v.011h-.013a.34.34 0 0 0-.047 0 .14.14 0 0 0-.084.021.071.071 0 0 0-.028.06.064.064 0 0 0 .021.051.09.09 0 0 0 .054.009m.03-.122h.061v.023a.05.05 0 0 1-.011.033.076.076 0 0 1-.031.024.12.12 0 0 1-.047.009.056.056 0 0 1-.038-.011.036.036 0 0 1-.013-.031c.005-.03.026-.047.079-.047m-.359.117h.047c.1 0 .153-.055.153-.166s-.051-.175-.153-.175h-.078v.341zm0-.312h.047a.109.109 0 0 1 .091.037.167.167 0 0 1 .03.109.148.148 0 0 1-.03.1.113.113 0 0 1-.091.034h-.047zm6.097-.818a.185.185 0 0 0 .094-.018.065.065 0 0 0 .011-.1.117.117 0 0 0-.056-.027l-.046-.011a.11.11 0 0 1-.038-.015.03.03 0 0 1-.011-.023.035.035 0 0 1 .023-.032.21.21 0 0 1 .074-.01h.061v-.029h-.063a.23.23 0 0 0-.1.017.059.059 0 0 0-.031.056.054.054 0 0 0 .016.041.13.13 0 0 0 .054.025l.058.014a.08.08 0 0 1 .031.015.037.037 0 0 1 .01.025.034.034 0 0 1-.021.032.2.2 0 0 1-.069.009h-.036l-.043-.006v.03a.2.2 0 0 0 .036.006zm-.336-.149c0-.057.025-.086.075-.086a.06.06 0 0 1 .045.017.064.064 0 0 1 .016.046v.167h.032v-.166a.093.093 0 0 0-.024-.069.087.087 0 0 0-.067-.025.082.082 0 0 0-.05.013.053.053 0 0 0-.024.038v-.046h-.029v.255h.032zm-.221.149a.1.1 0 0 0 .08-.035.15.15 0 0 0 .028-.1.148.148 0 0 0-.028-.1.1.1 0 0 0-.08-.035.1.1 0 0 0-.079.035.148.148 0 0 0-.028.1.15.15 0 0 0 .028.1.1.1 0 0 0 .079.035M16 10.346a.065.065 0 0 1 .055-.027.063.063 0 0 1 .055.027.153.153 0 0 1 0 .151.063.063 0 0 1-.055.026A.064.064 0 0 1 16 10.5a.13.13 0 0 1-.019-.076.126.126 0 0 1 .019-.078m-.219-.107a.025.025 0 0 0 .02-.009.024.024 0 0 0 .008-.019.024.024 0 0 0-.008-.02.028.028 0 0 0-.02-.008.027.027 0 0 0-.019.008.024.024 0 0 0-.008.02.024.024 0 0 0 .008.019.025.025 0 0 0 .019.009m-.008.31h.111v-.03H15.8v-.225h-.12v.029h.088v.196h-.103v.03h.103zm-.344-.14v.042a.108.108 0 0 0 .023.077.1.1 0 0 0 .073.026h.063v-.029h-.058a.067.067 0 0 1-.052-.018.074.074 0 0 1-.017-.055v-.127h.117v-.029h-.117v-.077h-.032v.077h-.074v.029h.074zm-.275.145a.11.11 0 0 0 .046-.009.07.07 0 0 0 .033-.022.06.06 0 0 0 .013-.028v.056h.069v-.024h-.044V10.4a.108.108 0 0 0-.029-.082.135.135 0 0 0-.091-.028h-.048l-.005.029h.055a.1.1 0 0 1 .065.019.071.071 0 0 1 .021.057v.011h-.06a.143.143 0 0 0-.083.02.071.071 0 0 0-.029.061.064.064 0 0 0 .021.051.09.09 0 0 0 .066.016m.03-.122h.061v.023a.05.05 0 0 1-.011.033.076.076 0 0 1-.031.024.12.12 0 0 1-.047.009.056.056 0 0 1-.038-.011.036.036 0 0 1-.013-.031c0-.03.026-.047.079-.047m-.309.117h.072v-.03h-.072v-.08a.18.18 0 0 1 .019-.089.059.059 0 0 1 .055-.032.043.043 0 0 1 .038.016.083.083 0 0 1 .012.051h.032a.117.117 0 0 0-.018-.073.074.074 0 0 0-.06-.023.07.07 0 0 0-.075.07l-.006-.065h-.078v.029h.052v.2h-.062v.03h.094zm-.275.005a.085.085 0 0 0 .056-.017.067.067 0 0 0 .025-.044v.041a.1.1 0 0 1-.022.071.088.088 0 0 1-.067.026h-.077v.03h.071a.128.128 0 0 0 .1-.035.142.142 0 0 0 .03-.1v-.232h-.029v.054a.068.068 0 0 0-.026-.044.1.1 0 0 0-.131.019.162.162 0 0 0-.026.1.152.152 0 0 0 .026.1.089.089 0 0 0 .07.031m-.05-.209a.066.066 0 0 1 .057-.027.068.068 0 0 1 .057.026.117.117 0 0 1 .02.074v.007a.12.12 0 0 1-.02.074.077.077 0 0 1-.114 0 .122.122 0 0 1-.019-.075.134.134 0 0 1 .017-.079zm-.202.209h.07v-.03l-.03.005h-.03a.1.1 0 0 1-.079-.028.1.1 0 0 1-.027-.064h.181v-.025a.13.13 0 0 0-.027-.087.1.1 0 0 0-.077-.031.1.1 0 0 0-.082.034.14.14 0 0 0-.029.1.134.134 0 0 0 .034.1.13.13 0 0 0 .096.026m-.08-.209a.073.073 0 0 1 .059-.026.067.067 0 0 1 .054.022.1.1 0 0 1 .019.064h-.152a.107.107 0 0 1 .02-.06m-.281.064v.042a.108.108 0 0 0 .024.077.093.093 0 0 0 .072.026h.063v-.029h-.055a.068.068 0 0 1-.052-.018.08.08 0 0 1-.017-.055v-.127h.118v-.029h-.118v-.077h-.032v.077h-.073v.029h.073zm-.306-.004c0-.057.025-.086.075-.086a.06.06 0 0 1 .045.017.06.06 0 0 1 .016.046v.167h.032v-.166a.093.093 0 0 0-.024-.069.1.1 0 0 0-.117-.012.06.06 0 0 0-.024.038v-.046h-.029v.255h.032zm-.206-.166a.027.027 0 0 0 .02-.009.027.027 0 0 0 .008-.019.028.028 0 0 0-.008-.02.029.029 0 0 0-.04 0 .028.028 0 0 0-.008.02.027.027 0 0 0 .008.019.027.027 0 0 0 .02.009m-.009.31h.112v-.03h-.084v-.225h-.121v.029h.088v.196h-.102v.03h.102zm-.621 0 .035-.225h.003l.036.225h.044l.045-.255h-.031l-.036.229h-.003l-.037-.229h-.039l-.036.229h-.004l-.032-.229h-.029l.037.255zm-.227.005h.071l-.005-.03-.03.005h-.03a.1.1 0 0 1-.079-.028.1.1 0 0 1-.027-.064h.182v-.025a.13.13 0 0 0-.027-.087.1.1 0 0 0-.077-.031.1.1 0 0 0-.082.034.14.14 0 0 0-.029.1.134.134 0 0 0 .034.1.13.13 0 0 0 .099.026m-.08-.209a.074.074 0 0 1 .06-.026.065.065 0 0 1 .053.022.1.1 0 0 1 .019.064h-.152a.107.107 0 0 1 .02-.06m-.298.06c0-.057.025-.086.075-.086a.057.057 0 0 1 .044.017.06.06 0 0 1 .017.046v.167h.031v-.166a.093.093 0 0 0-.023-.069.087.087 0 0 0-.067-.025.09.09 0 0 0-.051.013.06.06 0 0 0-.024.038v-.046h-.029v.255h.032zm-.579.042h.024a.18.18 0 0 0 .068-.012l.064.114h.04l-.076-.131.011-.008a.2.2 0 0 0 .049-.116h-.034a.23.23 0 0 1-.022.072.093.093 0 0 1-.041.04.16.16 0 0 1-.067.012h-.016v-.23h-.032v.361h.032zm-.194.107h.041a.26.26 0 0 0 .04-.006v-.03l-.036.006h-.042a.1.1 0 0 1-.076-.026.107.107 0 0 1-.027-.079.1.1 0 0 1 .024-.073.09.09 0 0 1 .068-.026.08.08 0 0 1 .041.01.073.073 0 0 1 .032.031l.026-.018a.076.076 0 0 0-.036-.039.13.13 0 0 0-.062-.014.12.12 0 0 0-.092.035.133.133 0 0 0 .1.23zm-.29 0h.07v-.03l-.031.005h-.03a.106.106 0 0 1-.086-.029.1.1 0 0 1-.027-.064h.182v-.025a.13.13 0 0 0-.028-.087.094.094 0 0 0-.076-.031.106.106 0 0 0-.083.034.147.147 0 0 0-.029.1.134.134 0 0 0 .035.1.13.13 0 0 0 .103.027m-.081-.209a.075.075 0 0 1 .06-.026.067.067 0 0 1 .054.022.1.1 0 0 1 .019.064h-.152a.115.115 0 0 1 .023-.06zm-.296.06q0-.087.075-.087a.06.06 0 0 1 .045.017.064.064 0 0 1 .016.047v.167h.032v-.166a.1.1 0 0 0-.023-.069.087.087 0 0 0-.067-.025.084.084 0 0 0-.051.013.06.06 0 0 0-.024.038v-.152h-.032v.361h.029Zm-.188.149a.225.225 0 0 0 .089-.018l-.008-.029a.17.17 0 0 1-.076.017c-.085 0-.128-.049-.128-.149a.16.16 0 0 1 .032-.106.108.108 0 0 1 .086-.037.1.1 0 0 1 .041.009.1.1 0 0 1 .032.027l.022-.022a.073.073 0 0 0-.037-.032.14.14 0 0 0-.059-.011.134.134 0 0 0-.11.046.19.19 0 0 0-.04.129c0 .122.052.176.156.176m2.277-1.212a.2.2 0 0 0 .094-.017.061.061 0 0 0 .029-.055.058.058 0 0 0-.018-.045.13.13 0 0 0-.056-.027l-.046-.011a.09.09 0 0 1-.037-.015.028.028 0 0 1-.012-.022.033.033 0 0 1 .023-.032.2.2 0 0 1 .074-.01h.062v-.029h-.063a.216.216 0 0 0-.1.017.057.057 0 0 0-.031.055.053.053 0 0 0 .017.041.113.113 0 0 0 .054.025l.057.015a.064.064 0 0 1 .031.014.035.035 0 0 1-.011.057.19.19 0 0 1-.069.01h-.035L12.81 9.3v.031h.036zm-.336-.149c0-.057.025-.085.075-.085a.06.06 0 0 1 .045.016.067.067 0 0 1 .016.047v.166h.032v-.166A.093.093 0 0 0 12.7 9.1a.088.088 0 0 0-.066-.024.09.09 0 0 0-.051.012.055.055 0 0 0-.024.038V9.08h-.029v.255h.032zm-.22.149a.1.1 0 0 0 .079-.035.148.148 0 0 0 .028-.1.15.15 0 0 0-.028-.1.1.1 0 0 0-.079-.034.1.1 0 0 0-.08.034.15.15 0 0 0-.028.1.148.148 0 0 0 .028.1.1.1 0 0 0 .08.035m-.056-.208a.072.072 0 0 1 .111 0 .13.13 0 0 1 .019.076.126.126 0 0 1-.019.075.071.071 0 0 1-.111 0 .126.126 0 0 1-.019-.075.13.13 0 0 1 .019-.076m-.208.208h.04a.3.3 0 0 0 .041-.006v-.03a.2.2 0 0 1-.037.006h-.038A.1.1 0 0 1 12 9.285a.11.11 0 0 1-.026-.078.106.106 0 0 1 .024-.074.087.087 0 0 1 .067-.025.1.1 0 0 1 .042.009.074.074 0 0 1 .031.032l.027-.019a.087.087 0 0 0-.037-.039.13.13 0 0 0-.061-.013.122.122 0 0 0-.093.034.135.135 0 0 0-.032.1.134.134 0 0 0 .034.1.13.13 0 0 0 .093.03m-.299-.315a.028.028 0 0 0 .02-.008.029.029 0 0 0 0-.04.028.028 0 0 0-.02-.008.027.027 0 0 0-.019.008.027.027 0 0 0 0 .04.027.027 0 0 0 .019.008m-.008.31h.111v-.029h-.084v-.226h-.121v.03h.089v.196h-.103v.029h.103zm-.598.005a.093.093 0 0 0 .056-.016.072.072 0 0 0 .025-.045v.058h.027v-.362h-.032v.159a.063.063 0 0 0-.025-.044.107.107 0 0 0-.131.02.164.164 0 0 0-.026.1.156.156 0 0 0 .026.1.09.09 0 0 0 .08.03m-.05-.209a.063.063 0 0 1 .056-.026.068.068 0 0 1 .058.025.12.12 0 0 1 .019.074v.008a.116.116 0 0 1-.019.073.075.075 0 0 1-.114 0 .122.122 0 0 1-.02-.075.133.133 0 0 1 .02-.079m-.239.209a.1.1 0 0 0 .057-.016.077.077 0 0 0 .025-.045l.005.058h.027v-.362h-.032v.159a.067.067 0 0 0-.025-.044.092.092 0 0 0-.055-.014.089.089 0 0 0-.076.034.157.157 0 0 0-.026.1.15.15 0 0 0 .026.1.089.089 0 0 0 .074.03m-.05-.209a.065.065 0 0 1 .057-.026.067.067 0 0 1 .057.025.113.113 0 0 1 .02.074v.008a.116.116 0 0 1-.019.073.077.077 0 0 1-.115 0 .122.122 0 0 1-.019-.075.134.134 0 0 1 .019-.079m-.291.113h.138l.027.091h.033L10.625 9h-.045l-.107.341h.033zm.067-.223.059.193h-.12Zm1.575-1.073-.113-.241h-.072l.138.284h.033a.2.2 0 0 1-.014.023.115.115 0 0 1-.041.035.19.19 0 0 1-.059.015h-.054v.051h.059a.26.26 0 0 0 .08-.02.15.15 0 0 0 .057-.047.31.31 0 0 0 .044-.082l.1-.259h-.072Zm-.276-.127a.1.1 0 0 0-.042-.086.235.235 0 0 0-.127-.03h-.07l-.007.051h.083a.17.17 0 0 1 .073.015.045.045 0 0 1 .024.042v.013h-.01a.5.5 0 0 0-.055 0 .23.23 0 0 0-.116.024.078.078 0 0 0-.041.07.069.069 0 0 0 .03.06.136.136 0 0 0 .081.018.21.21 0 0 0 .059-.008.085.085 0 0 0 .039-.025.06.06 0 0 0 .012-.033h.008v.063h.111v-.049l-.052-.006Zm-.066.065a.053.053 0 0 1-.011.03.08.08 0 0 1-.032.023.14.14 0 0 1-.054.009.08.08 0 0 1-.044-.01.033.033 0 0 1-.016-.029q0-.045.09-.045h.067zm-.38-.128h-.007a.056.056 0 0 0-.028-.042.12.12 0 0 0-.063-.015.13.13 0 0 0-.1.039.155.155 0 0 0-.035.112.148.148 0 0 0 .035.108.134.134 0 0 0 .1.037.12.12 0 0 0 .064-.015.055.055 0 0 0 .027-.042h.007l.007.058h.062v-.4h-.069zm0 .1a.1.1 0 0 1-.021.067.08.08 0 0 1-.062.022.079.079 0 0 1-.063-.024.1.1 0 0 1-.022-.072.11.11 0 0 1 .022-.076.074.074 0 0 1 .063-.026.078.078 0 0 1 .062.023.093.093 0 0 1 .021.066Zm-.463-.16a.154.154 0 0 0-.112.039.172.172 0 0 0 0 .218.18.18 0 0 0 .224 0 .172.172 0 0 0 0-.218.154.154 0 0 0-.112-.039m.059.22a.075.075 0 0 1-.059.025.074.074 0 0 1-.059-.025.11.11 0 0 1-.021-.072.106.106 0 0 1 .021-.071.072.072 0 0 1 .059-.026.073.073 0 0 1 .059.026.106.106 0 0 1 .02.071.11.11 0 0 1-.02.075Zm-.484-.308h-.136v.051h.136v.33h.068v-.33h.135v-.051h-.135zm8.706 7.607h-.007c-.129 0-.258.018-.352.028l-.007-.006a.057.057 0 0 0-.067 0l-.01.012h-.05c-.024 0-.043.007-.054.022l-.008.014v.013c.008.03.039.031.076.026l-.084.187-.015.035a.055.055 0 0 0 0 .053.045.045 0 0 0 .039.021.08.08 0 0 0 .045-.012l.013-.006a.9.9 0 0 1 .242-.032c.045 0 .062.012.062.014a.216.216 0 0 1-.077.06 1.1 1.1 0 0 1-.112.057 1.2 1.2 0 0 1-.239.082h-.006a.054.054 0 0 0-.043.021l-.008.014.008.036h.033a.35.35 0 0 0 .092-.016l.084-.025a1.14 1.14 0 0 0 .278-.125c.041-.026.1-.062.094-.115 0-.031-.029-.082-.168-.085a.92.92 0 0 0-.211.022c.013-.028.024-.055.035-.083s.033-.08.052-.119h.04c.1-.011.209-.023.307-.032h.01a.088.088 0 0 0 .059-.015l.017-.017-.011-.021c-.013-.012-.041-.009-.057-.008m-.823.573.006-.014a4 4 0 0 1 .226-.44l.009-.013a.165.165 0 0 0 .03-.072v-.017l-.009-.007h-.006a.07.07 0 0 0-.053-.007c-.052.015-.12.039-.16.054s-.049.016-.054.039v.024l.018.011a.083.083 0 0 0 .072 0l.041-.014h.007a2.1 2.1 0 0 0-.226.47h-.05c-.031 0-.07 0-.07.04v.016l.01.009a.056.056 0 0 0 .04.011h.11c.032 0 .06 0 .09-.006h.012c.033 0 .062 0 .075-.025l.022-.037-.043-.009a.43.43 0 0 0-.097-.013m1.29-1.328a.055.055 0 0 0-.032 0h-.006a.22.22 0 0 1-.1.049L19.6 14.5c.006-.017.024-.062-.021-.081a.054.054 0 0 0-.074.043c-.036.053-.058.073-.108.075v-.016l.012-.017c.012-.016.027-.035.018-.058a.042.042 0 0 0-.034-.025.072.072 0 0 0-.077.041l.024.02-.025-.019a.264.264 0 0 1-.1.09.19.19 0 0 1 .039-.06c.023-.028.041-.05.026-.074a.047.047 0 0 0-.053-.014h-.007a.22.22 0 0 0-.059.054.36.36 0 0 1-.1.048.083.083 0 0 0 .025-.051.063.063 0 0 0-.041-.064.252.252 0 0 0-.231.018.177.177 0 0 0-.109.067l-.033.025a.6.6 0 0 1-.156.1v-.013a.18.18 0 0 0 .02-.105c-.007-.027-.035-.072-.139-.069a.22.22 0 0 0-.108.031l.013-.042c.15-.08.3-.191.293-.266a.055.055 0 0 0-.047-.046.261.261 0 0 0-.26.125.66.66 0 0 0-.089.162.7.7 0 0 0-.028.086.74.74 0 0 1-.155.052.2.2 0 0 0-.039-.029l-.008-.005a.22.22 0 0 1 .044-.024v.025l.014.005a.1.1 0 0 0 .1-.046.045.045 0 0 0 0-.052.087.087 0 0 0-.094-.027.288.288 0 0 0-.178.093.049.049 0 0 0-.008.043.074.074 0 0 0 .03.037c-.065.019-.106.049-.112.086a.059.059 0 0 0 .038.062.124.124 0 0 0 .054.011.218.218 0 0 0 .143-.054.116.116 0 0 0 .036-.049.7.7 0 0 0 .12-.037.24.24 0 0 0 0 .038.1.1 0 0 0 .032.059v.039l.019-.031a.08.08 0 0 0 .032.005c.029 0 .046-.02.049-.058a.184.184 0 0 1 .07-.1.11.11 0 0 1 .068-.009.26.26 0 0 1-.018.076l-.009.03a.055.055 0 0 0 0 .055.094.094 0 0 0 .081.027.412.412 0 0 0 .234-.113.21.21 0 0 0 .1.021.4.4 0 0 0 .086-.01h.008A.32.32 0 0 0 19 14.6a.34.34 0 0 0 .118-.022.066.066 0 0 0 .028.042.1.1 0 0 0 .058.016.216.216 0 0 0 .116-.041.094.094 0 0 0 .057.028.21.21 0 0 0 .151-.04.1.1 0 0 0 .057.019.29.29 0 0 0 .173-.078.033.033 0 0 0 .009-.033l-.009-.021Zm-.949.052.008-.008.007.009zm.127-.019a.15.15 0 0 1-.032-.027.09.09 0 0 1 .049-.01.11.11 0 0 1 .035 0 .14.14 0 0 1-.052.04zM20.1 13.4c-.018 0-.032.005-.059.023a.4.4 0 0 1-.127.063.083.083 0 0 0 .025-.051.066.066 0 0 0-.041-.064.251.251 0 0 0-.231.018.183.183 0 0 0-.11.067l-.032.025a.57.57 0 0 1-.156.1v-.013a.187.187 0 0 0 .02-.1c-.007-.028-.035-.073-.139-.07a.22.22 0 0 0-.108.031c.005-.017.009-.033.013-.042.15-.08.3-.191.293-.266a.057.057 0 0 0-.048-.046.261.261 0 0 0-.26.126.72.72 0 0 0-.122.275.494.494 0 0 1-.279.069c-.029 0-.046-.011-.049-.017a.035.035 0 0 1 .01-.028.14.14 0 0 1 .045-.038c0 .017.018.034.052.039a.184.184 0 0 0 .1-.016.069.069 0 0 0 .047-.081c-.013-.036-.069-.049-.115-.046a.307.307 0 0 0-.231.106.088.088 0 0 0-.011.091c.019.039.068.061.146.066h.035a.54.54 0 0 0 .247-.06v.008a.093.093 0 0 0 .032.059v.039l.018-.031a.06.06 0 0 0 .033 0c.029 0 .045-.02.048-.058a.18.18 0 0 1 .071-.1.108.108 0 0 1 .067-.009.3.3 0 0 1-.017.076l-.01.03a.059.059 0 0 0 0 .055.1.1 0 0 0 .081.027.4.4 0 0 0 .234-.113.2.2 0 0 0 .1.021.4.4 0 0 0 .086-.01h.008a.3.3 0 0 0 .089.013.36.36 0 0 0 .236-.093c.023-.023.032-.04.027-.057l-.006-.019zm-.448.091.008-.008.006.01zm.127-.019a.15.15 0 0 1-.032-.027.094.094 0 0 1 .049-.01.11.11 0 0 1 .036.005.16.16 0 0 1-.053.036zm-1.716.454a1.22 1.22 0 0 0 .3-.086c.076-.036.181-.084.181-.163s-.067-.12-.17-.13-.109.011-.114.017l-.015.017.007.018c.008.021.028.023.054.025a.34.34 0 0 1 .05.006c.044.009.069.025.075.038a.014.014 0 0 1 0 .015.574.574 0 0 1-.286.136 1.35 1.35 0 0 1-.314.043.6.6 0 0 1-.164-.02.111.111 0 0 1-.081-.055.1.1 0 0 1 .014-.087.48.48 0 0 1 .171-.156 1.6 1.6 0 0 1 .5-.205c.055-.008.082-.015.092-.038l.007-.021-.01-.014c-.019-.029-.056-.022-.085-.017h-.096c-.115 0-.165-.027-.17-.045s.012-.045.073-.088a1.04 1.04 0 0 1 .291-.116.82.82 0 0 1 .207-.034.2.2 0 0 1 .105.013.023.023 0 0 1 .014.031c0 .017-.028.053-.151.106-.02.007-.042.015-.044.038v.023l.019.01a.162.162 0 0 0 .118-.02c.112-.052.167-.106.167-.165a.1.1 0 0 0-.042-.082.61.61 0 0 0-.44 0c-.126.037-.449.162-.425.305.007.048.045.081.114.1a1.7 1.7 0 0 0-.3.142.73.73 0 0 0-.163.125.27.27 0 0 0-.086.185.142.142 0 0 0 .061.1.556.556 0 0 0 .308.069 1.4 1.4 0 0 0 .228-.02M20.59 10.9V7.12H3.41v9.734h17.18ZM9.846 16.255a.28.28 0 0 1-.28.28H4.008a.279.279 0 0 1-.279-.28v-8.59a.279.279 0 0 1 .279-.279h5.558a.279.279 0 0 1 .28.279zm3.856.04a.24.24 0 0 1-.239.24h-2.926a.24.24 0 0 1-.239-.24v-3.75a.239.239 0 0 1 .239-.239h2.926a.239.239 0 0 1 .239.239zm3.3-.068a.308.308 0 0 1-.307.308h-2.321a.307.307 0 0 1-.307-.308v-3.614a.306.306 0 0 1 .307-.307h2.319a.307.307 0 0 1 .307.307Zm3.191.082a.226.226 0 0 1-.226.226h-2.395a.226.226 0 0 1-.226-.226v-3.777a.226.226 0 0 1 .226-.226h2.393a.226.226 0 0 1 .226.226zm0-4.615a.266.266 0 0 1-.265.266h-9.364a.266.266 0 0 1-.266-.266v-.8h9.893zm0-.9H10.3V9.673h9.893zm0-1.224H10.3v-1.2h9.893zm0-1.3H10.3v-.618a.266.266 0 0 1 .266-.266h9.362a.266.266 0 0 1 .265.266zM2 5.71v12.58h20V5.71Zm19.415 12.061H2.505V6.229h18.91z"/></svg>