<svg xmlns="http://www.w3.org/2000/svg" fill="#44739e" viewBox="0 0 24 24"><path d="M10.882 3.547c-.244 0-.442.08-.442.179 0 0 .006.01.008.016l.715-.152a.88.88 0 0 0-.281-.043m0 .358c.245 0 .443-.08.443-.179 0-.01-.01-.018-.013-.027l-.737.155a.88.88 0 0 0 .307.051M6.01 19.751s.433.682.663.721a24.2 24.2 0 0 0 5.33.536 21.94 21.94 0 0 0 5.4-.561 7.1 7.1 0 0 1 .771-.693 30.66 30.66 0 0 1-6.1.587 30.38 30.38 0 0 1-6.064-.59m15.455-7.704c-.634 2.537-4.775 6.446-10.831 6.8-3.554.206-5.469-.479-6.953-1.987a12.6 12.6 0 0 0 1.664 2.3 20.82 20.82 0 0 0 5.816.737c5.9.041 7.683-.79 7.683-.79a9.277 9.277 0 0 0 2.621-7.06m-8.894 6.127c3.185-.61 7.924-3.111 8.826-6.873.415-1.731-2.9-8.951-10.172-8.27C3.813 3.726 1 12.076 3.262 15.781c1.879 3.076 6.307 2.968 9.309 2.393m.39-14.7.181-.032.228.282.493-.144.071.12-.472.138.274.339-.163.042-.273-.333-.546.159-.065-.12.518-.152Zm-2.749.251c0-.15.3-.272.67-.272a1.24 1.24 0 0 1 .493.091l.2-.042.089.121-.148.032a.14.14 0 0 1 .035.07c0 .15-.3.271-.671.271a1.19 1.19 0 0 1-.508-.1l-.248.052-.081-.122.2-.042c-.012-.018-.031-.037-.031-.058Z"/></svg>