<svg xmlns="http://www.w3.org/2000/svg" viewBox="0 0 24 24"><path fill="#44739e" d="M18.113 8.961a.46.46 0 0 0-.458-.436H6.214a.461.461 0 0 0-.458.432l-.42 7.16a.461.461 0 0 0 .459.485h12.213a.462.462 0 0 0 .46-.482Zm-.464 6.553a.55.55 0 0 1-.55.565H6.504a.556.556 0 0 1-.55-.576l.278-5.922a.556.556 0 0 1 .549-.525l10.15-.015a.556.556 0 0 1 .557.536ZM6.214 8.303h2.241a4.784 4.784 0 0 0-2.164-.967 4.52 4.52 0 0 0-1.018-.021c-3.631.361-5.007 4.712-3.901 6.641.77 1.341 2.41 1.519 3.789 1.365l.369-6.376a.682.682 0 0 1 .684-.642m12.12.647.314 6.377c1.413.189 3.173.056 3.98-1.347 1.106-1.929-.271-6.278-3.903-6.641a4.37 4.37 0 0 0-1.575.131 4.8 4.8 0 0 0-1.572.833h2.077a.68.68 0 0 1 .679.647m.027 7.754a11.3 11.3 0 0 0 2.595-.279c.111-.021.324-.376.324-.376a13.9 13.9 0 0 1-2.629.29.685.685 0 0 1-.151.268.67.67 0 0 1-.139.097m-13.217-.401a14 14 0 0 1-2.426-.281 2.6 2.6 0 0 0 .183.255.35.35 0 0 0 .142.12h.01a11.2 11.2 0 0 0 2.327.265.7.7 0 0 1-.08-.057.674.674 0 0 1-.156-.302m13.54-.18h.074a9.6 9.6 0 0 0 2.85-.383 6.5 6.5 0 0 0 .815-1.198 3.816 3.816 0 0 1-3.409 1.035c-.12-.008-.236-.042-.356-.057l.029.582c0 .008-.003.015-.003.021m-13.7-.569a3.817 3.817 0 0 1-3.406-1.036 6.57 6.57 0 0 0 .814 1.198 9.64 9.64 0 0 0 2.723.377l.033-.562c-.055.005-.109.019-.164.023"/></svg>