<svg xmlns="http://www.w3.org/2000/svg" viewBox="0 0 24 24"><path fill="#44739e" d="M8.587 3.654C14.734 5.23 23.457 1.33 11.068 1c-2.587.063-7.578 1.403-2.481 2.654m7.052-1.304c.488.522-1.27.501-1.567.261-.175-.604 1.419-.511 1.567-.261m-2.873-.567c-.4.25-1.805.313-1.65-.26.456-.23 1.772-.358 1.65.26m0 1.481c-.4.249-1.805.312-1.65-.262.456-.23 1.772-.352 1.65.262m-2.96-.914c.122.669-1.901.576-1.65 0a2.136 2.136 0 0 1 1.65 0m7.544.725-1.26.595a14.642 14.642 0 0 1-9.705-.369s-.233 18.44-.175 18.467a14.667 14.667 0 0 0 11.259.211S17.35 4.028 17.35 3.075"/></svg>