<svg xmlns="http://www.w3.org/2000/svg" fill="#44739e" viewBox="0 0 24 24"><path d="M17.494 9.269a.413.413 0 0 0-.412-.392H6.8a.414.414 0 0 0-.412.388L6.011 15.7a.414.414 0 0 0 .412.436H17.4a.415.415 0 0 0 .413-.433zm-.417 5.889a.494.494 0 0 1-.494.508H7.06a.5.5 0 0 1-.494-.518l.25-5.322a.5.5 0 0 1 .493-.472l9.123-.013a.5.5 0 0 1 .5.481zM6.8 8.677h2.014a4.3 4.3 0 0 0-1.945-.869 4.06 4.06 0 0 0-.915-.019c-3.263.325-4.5 4.235-3.506 5.969.692 1.205 2.166 1.365 3.405 1.227l.332-5.731a.613.613 0 0 1 .615-.577m10.893.582.282 5.731c1.27.17 2.852.051 3.577-1.21.994-1.734-.244-5.643-3.508-5.969a3.93 3.93 0 0 0-1.415.118 4.31 4.31 0 0 0-1.413.748h1.866a.611.611 0 0 1 .611.582m.024 6.969a10.16 10.16 0 0 0 2.332-.251c.1-.019.291-.338.291-.338a12.5 12.5 0 0 1-2.362.261.616.616 0 0 1-.136.241.6.6 0 0 1-.125.087m-11.879-.361a12.6 12.6 0 0 1-2.18-.252 2.3 2.3 0 0 0 .164.229.314.314 0 0 0 .128.108h.009a10.07 10.07 0 0 0 2.091.238.6.6 0 0 1-.072-.051.606.606 0 0 1-.14-.272m12.169-.161h.067a8.63 8.63 0 0 0 2.561-.345 5.84 5.84 0 0 0 .733-1.076 3.43 3.43 0 0 1-3.064.93c-.108-.007-.212-.038-.32-.051l.026.523c0 .007-.003.013-.003.019m-12.313-.512a3.431 3.431 0 0 1-3.061-.931 5.9 5.9 0 0 0 .732 1.077 8.66 8.66 0 0 0 2.447.339l.03-.505c-.05.004-.098.017-.148.02"/></svg>