<svg xmlns="http://www.w3.org/2000/svg" viewBox="0 0 24 24"><path fill="#44739e" d="M10.714 2.204c-.283 0-.512.093-.512.208 0 0 .006.011.009.018l.828-.176a1.02 1.02 0 0 0-.325-.05m0 .415c.284 0 .513-.093.513-.207 0-.012-.011-.021-.015-.032l-.854.18a1.02 1.02 0 0 0 .356.059M5.067 20.984s.502.79.769.836a28.05 28.05 0 0 0 6.177.621 25.43 25.43 0 0 0 6.258-.65 8.2 8.2 0 0 1 .894-.804 35.53 35.53 0 0 1-7.07.681 35.2 35.2 0 0 1-7.028-.684m17.912-8.929c-.735 2.941-5.534 7.471-12.553 7.881-4.119.239-6.338-.555-8.058-2.303a14.6 14.6 0 0 0 1.929 2.666 24.13 24.13 0 0 0 6.74.854c6.838.048 8.904-.915 8.904-.915a10.752 10.752 0 0 0 3.038-8.183m-10.308 7.101c3.692-.707 9.184-3.605 10.229-7.965.481-2.006-3.361-10.374-11.789-9.585-8.59.806-11.85 10.483-9.228 14.777 2.177 3.565 7.309 3.44 10.788 2.773m.452-17.036.21-.037.264.326.572-.167.082.14-.547.16.317.392-.188.049-.317-.386-.633.184-.075-.139.6-.176Zm-3.186.291c0-.174.348-.316.777-.316a1.44 1.44 0 0 1 .571.106l.232-.049.103.14-.171.037a.16.16 0 0 1 .04.082c0 .173-.348.314-.778.314a1.38 1.38 0 0 1-.588-.116l-.288.06-.094-.141.232-.049c-.014-.021-.036-.043-.036-.067Z"/></svg>