<svg xmlns="http://www.w3.org/2000/svg" viewBox="0 0 24 24"><path fill="#44739e" d="M2.86 8.375a1.873 1.873 0 0 1-1.015-.705c-.067.305-.11.577.083.705a5.214 5.214 0 0 0 2.42.893 60.9 60.9 0 0 0 8.238.798c5.404.015 9.44-1.424 9.948-2.289 0 0-.758.598-4.086 1.205A39.16 39.16 0 0 1 2.86 8.375M1.845 7.67c.017-.077.035-.155.05-.235-.095.052-.098.137-.05.235m12.717 1.443c1.403-.009 10.227-.729 6.436-2.41-2.377-1.108-18.506-1.898-18.841.986 3.367 1.71 10.94 1.424 12.405 1.424m.965-2.485a3.527 3.527 0 0 1 2.136.084c.816.796-3.785.479-2.136-.088Zm-6.923.47c-.47.204-3.287.045-1.966-.47.348-.278 3.069-.102 1.966.465Zm2.479-.813a3.52 3.52 0 0 1 2.008.043c1.379.739-3.739.618-2.008-.047Zm0 1.534c.348-.263 3.078-.122 1.965.47-.505.196-3.274.065-1.965-.469Zm11.878 4.573c-.064-1.335.219-3.632-.427-4.615-.018 1.342-1.411 1.464-2.35 1.753-3.594.914-8.641.895-12.777.598-1.787-.42-4.674-.157-5.853-1.88-.779-.554-.683 5.656-.043 6.792a4.825 4.825 0 0 0 1.452 1.533c3.466 2.094 20.966 3.743 19.998-4.181"/></svg>