<svg xmlns="http://www.w3.org/2000/svg" viewBox="0 0 24 24"><path fill="#44739e" d="M18.127 11.43c1.077-5.017-1.246-9.498-5.972-9.498-2.64 0-8.134 2.899-10.121 9.096-1.472 4.578-.17 10.171 4.241 10.61 6.152.613 10.896-5.775 11.852-10.208m-5.126-9.886a7.34 7.34 0 0 1 3.465 1.321 1.67 1.67 0 0 0 .467-.268 6.484 6.484 0 0 0-4.422-1.595 8.944 8.944 0 0 0-3.972 1.219c.044.206.097.366.097.366a8.14 8.14 0 0 1 4.365-1.043m8.887 7.093a10.562 10.562 0 0 0-4.927-6.161 8.7 8.7 0 0 1 2.44 6.463 12.5 12.5 0 0 1-.286 2.53 14.35 14.35 0 0 1-1.474 3.799c-.281.54-.604 1.1-.979 1.694a12.3 12.3 0 0 1-1.547 1.801 11.596 11.596 0 0 1-7.798 3.978l.399.049a19.01 19.01 0 0 0 5.363.039 11.18 11.18 0 0 0 5.831-2.114 9.51 9.51 0 0 0 2.937-4.15 11.926 11.926 0 0 0 .041-7.928m-5.226 8.317c.375-.594.698-1.154.979-1.694a17.44 17.44 0 0 1-2.531 3.495 12.3 12.3 0 0 0 1.552-1.801"/></svg>