<svg xmlns="http://www.w3.org/2000/svg" viewBox="0 0 24 24"><path fill="#44739e" d="M15.579 17.83c-.085-.017-.173-.023-.258-.042.055.046.103.101.155.15.076.07.154.135.222.212a10.15 10.15 0 0 0 2.646.293 11.3 11.3 0 0 0 2.612-.28c.111-.021.324-.376.324-.376a13.98 13.98 0 0 1-2.971.307 14.13 14.13 0 0 1-2.73-.264m3.435-.513a6.72 6.72 0 0 1-2.38-.608 7 7 0 0 1-.692-.354 7 7 0 0 1-.373-.244 4.528 4.528 0 0 1-1.861-2.337 5.067 5.067 0 0 0 .612 2.707c.058.111.117.208.181.309a4.7 4.7 0 0 0 .425.572c.025.028.041.063.067.09a2.5 2.5 0 0 0 .414.132c.096.023.213.049.347.074a15.9 15.9 0 0 0 3.004.205 9.62 9.62 0 0 0 2.85-.384 6.5 6.5 0 0 0 .815-1.197 3.821 3.821 0 0 1-3.409 1.035m-.289-8.239a4.33 4.33 0 0 0-1.575.131 4.829 4.829 0 0 0-3.409 4.177 4.473 4.473 0 0 0 2.068 2.617c.121.078.239.16.362.229.193.111.389.208.582.296a6.34 6.34 0 0 0 1.313.438c1.47.3 3.64.356 4.562-1.247 1.106-1.929-.271-6.279-3.903-6.641M8.301 18.126c.024-.029.054-.052.081-.079a3.8 3.8 0 0 1 .296-.283c-.239.051-.482.076-.723.111a14.2 14.2 0 0 1-2.266.193 14.05 14.05 0 0 1-2.971-.307 2.7 2.7 0 0 0 .183.254c.051.062.102.112.142.121h.01a11.2 11.2 0 0 0 2.602.277 10.16 10.16 0 0 0 2.646-.287m1.296-1.494a5.074 5.074 0 0 0 .693-2.882 4.784 4.784 0 0 1-2.249 2.585c-.111.07-.234.135-.358.198a6.7 6.7 0 0 1-.646.306 6.81 6.81 0 0 1-2.053.453 3.819 3.819 0 0 1-3.406-1.036 6.57 6.57 0 0 0 .814 1.199 9.62 9.62 0 0 0 2.85.384 17.8 17.8 0 0 0 2.571-.138c.223-.03.4-.062.557-.093a3.45 3.45 0 0 0 .642-.181 4.8 4.8 0 0 0 .383-.516c.063-.098.145-.181.202-.279m-3.664.309a6.1 6.1 0 0 0 .951-.294c.17-.066.341-.139.514-.223.119-.057.239-.116.358-.182a4.75 4.75 0 0 0 2.501-2.882 4.792 4.792 0 0 0-3.966-4.286 4.45 4.45 0 0 0-1.018-.021c-3.631.362-5.007 4.712-3.901 6.641.92 1.603 3.09 1.552 4.561 1.247m5.865.961a20.9 20.9 0 0 1-2.598-.17 4.6 4.6 0 0 1-.413.388 13.46 13.46 0 0 0 2.965.272 14.87 14.87 0 0 0 3.439-.35 4.5 4.5 0 0 1-.384-.36 19.9 19.9 0 0 1-3.009.22m-1.983-.957a4.9 4.9 0 0 1-.373.523 16.3 16.3 0 0 0 1.735.111 25.4 25.4 0 0 0 3.397-.17 5 5 0 0 1-.408-.572 15.2 15.2 0 0 1-2.44.179c-.74-.003-1.364-.028-1.911-.071m.848-3.057a5.84 5.84 0 0 1-.682 2.773c.74.053 1.408.043 1.831.042a13.9 13.9 0 0 0 2.204-.181 5.864 5.864 0 0 1-.618-2.634 5.172 5.172 0 0 1 3.582-4.987 5.856 5.856 0 0 0-10.508-.149 5.135 5.135 0 0 1 4.191 5.136"/></svg>