<svg xmlns="http://www.w3.org/2000/svg" viewBox="0 0 24 24"><path fill="#44739e" d="M11.657 22.997a10.02 10.02 0 0 1-2.539-.401 11.73 11.73 0 0 1-2.264-.935 15 15 0 0 1-1.953-1.258 12.6 12.6 0 0 1-.728-.585.825.825 0 0 1 1.163-1.174c.979.812 1.996 1.46 2.991 1.905 1.433.643 2.869.899 4.315.767 1.323-.119 2.663-.559 4.024-1.325a15.9 15.9 0 0 0 1.964-1.319c.162-.126.176-.136.25-.172a.84.84 0 0 1 .23-.076.6.6 0 0 1 .133-.009c.096 0 .122.003.198.021a.826.826 0 0 1 .356 1.415 14 14 0 0 1-.49.38 16.8 16.8 0 0 1-2.066 1.327 14.7 14.7 0 0 1-.778.389c-1.607.74-3.215 1.091-4.806 1.05m.732-7.302c-.885 0-1.616-.002-1.623-.004a3.302 3.302 0 0 1-2.248-1.119 3.8 3.8 0 0 1-.676-1.132 4.29 4.29 0 0 1-.274-1.739 4.13 4.13 0 0 1 .114-.793 3.557 3.557 0 0 1 .945-1.698 3.593 3.593 0 0 1 2.005-.978c.125-.018-.032-.018 2.737-.018 1.4 0 2.545.001 2.545.003l-.469.821-.468.817-2.058.002-2.055.002-.058.011a1.925 1.925 0 0 0-.779.302 1.78 1.78 0 0 0-.555.648 2.37 2.37 0 0 0-.245.89 2.6 2.6 0 0 0 .262 1.362c.105.211.22.37.378.528.13.13.249.217.398.291.165.083.33.129.554.154.046.006.172.007 2.081.008l2.033.002.47.819.469.822c0 .003-.761.003-3.483 0Zm-1.073-2.981a.823.823 0 0 1 .005-1.643c.053-.005 3.14-.005 3.194 0 .193.018.367.097.504.231a.819.819 0 0 1 .248.684.827.827 0 0 1-.649.715c-.086.018.021.016-1.705.015-.873 0-1.591 0-1.598-.002ZM4.67 5.584a.825.825 0 0 1-.554-1.339c.055-.069.101-.11.33-.284a17.2 17.2 0 0 1 2.21-1.463c.311-.17.655-.344.955-.479 1.276-.577 2.531-.907 3.802-.996A8.6 8.6 0 0 1 12.101 1a8.6 8.6 0 0 1 .702.024c1.519.11 3.03.579 4.514 1.403.811.449 1.62 1.008 2.42 1.668a.828.828 0 0 1 .106 1.236.837.837 0 0 1-.402.231.64.64 0 0 1-.198.021.6.6 0 0 1-.133-.01.84.84 0 0 1-.23-.073 1 1 0 0 1-.229-.162 15 15 0 0 0-1.499-1.091c-1.528-.969-3.05-1.494-4.584-1.585a8.3 8.3 0 0 0-.941 0c-1.391.083-2.773.509-4.204 1.299-.671.369-1.354.825-2.05 1.366a1.65 1.65 0 0 1-.201.147.83.83 0 0 1-.283.101 1.24 1.24 0 0 1-.218.007Z"/></svg>