<svg xmlns="http://www.w3.org/2000/svg" viewBox="0 0 24 24"><path fill="#44739e" d="M19.946 15.325a3.7 3.7 0 0 1-.22-.04.88.88 0 0 1-.139-.18 3.959 3.959 0 0 0-3.761-1.641 3.739 3.739 0 0 0-2.937 1.938c-.092.182-.093.182-.227.182a3.656 3.656 0 0 0-3.402 2.332 2.985 2.985 0 0 0-.122 1.313 7.6 7.6 0 0 0 .792.015h.782l-.009-.057c0-.032-.02-.11-.033-.17a1.549 1.549 0 0 1 .805-1.806 2.97 2.97 0 0 1 1.634-.208l.11.009.128-.188a4.81 4.81 0 0 1 1.157-1.367 3.095 3.095 0 0 1 4.358.88 2.9 2.9 0 0 0 .371.539l.22.032c1.521.21 2.232.891 2.184 2.09l-.008.24h1.286l.012-.034a3.43 3.43 0 0 0 .041-1.048 3.519 3.519 0 0 0-3.022-2.831m-2.081 2.551c-.175.045-.173.046-.233-.074a1.87 1.87 0 0 0-2.003-.856 1.699 1.699 0 0 0-1.218.88c-.032.078-.054.083-.214.044-1.069-.256-2.192.376-2.22 1.249v.119h8.148v-.11a1.723 1.723 0 0 0-2.26-1.252m1.507-8.333c-.482.043-1.002.297-1.063.52-.11.401.278.65.647.414a1.002 1.002 0 0 1 1.519.689.393.393 0 0 0 .778.037 1.595 1.595 0 0 0-.181-.688 1.793 1.793 0 0 0-1.7-.972m-1.174-.371a2.485 2.485 0 0 1 3.83 1.995.75.75 0 0 0 .05.314.483.483 0 0 0 .88-.005l.042-.095-.009-.276a3.447 3.447 0 0 0-3.778-3.285 3.52 3.52 0 0 0-1.534.536c-.236.154-.298.248-.298.458 0 .44.409.619.817.358m-7.38 3.616a5.63 5.63 0 0 0 2.006.143h1.125v-.812l-1.026-.01a4.31 4.31 0 0 1-1.593-.127 1.458 1.458 0 0 1-.82-1.145.737.737 0 0 1-.01-.375c.01-.007 3.449-.028 3.449-.028v-.818l-3.479.045a1.968 1.968 0 0 1 .769-1.521c.28-.135.344-.141 1.616-.152l1.094-.009v-.827H11.86l-.22.021a2.428 2.428 0 0 0-2.292 2.453c-.158 1.605.406 2.817 1.47 3.162M8.614 6.886l-.041-2.715v-.11a.158.158 0 0 0-.102-.149l-.061-.023a.14.14 0 0 1-.03-.015l-.079-.055a.12.12 0 0 1-.031-.028l-.054-.063a.176.176 0 0 0-.068-.048l-.11-.037c0-.018.052-.099 0-.121a25.9 25.9 0 0 0-6.507 0c-.044.022.029.09.049.11l-.185.102a.12.12 0 0 0-.035.026l-.086.085a.15.15 0 0 1-.068.041l-.11.032L1 3.961v3.043h.132v.064a.092.092 0 0 0 .092.092.093.093 0 0 1 .093.089v.021a.092.092 0 0 0 .093.089h.66a.159.159 0 0 1 .16.165l-.034 1.048a.157.157 0 0 1-.142.153l-.603.065a.158.158 0 0 0-.11.066l-.184.255a.19.19 0 0 0-.036.055 12.65 12.65 0 0 0 .174 2.785.157.157 0 0 0 .131.134 24.8 24.8 0 0 0 6.789-.033.157.157 0 0 0 .121-.136 12.54 12.54 0 0 0 .134-2.774.15.15 0 0 0-.03-.057l-.125-.156a.15.15 0 0 0-.069-.05l-.204-.076a.14.14 0 0 0-.031-.007l-.247-.039a.158.158 0 0 1-.135-.157V7.49a.158.158 0 0 1 .157-.158l.406-.006a.092.092 0 0 0 .091-.088v-.009a.092.092 0 0 1 .097-.088h.079l-.008-.096a.161.161 0 0 0 .163-.159m-2.227 1.76-.357-.057-.382-.017-1.19-.011-1.137.034-.382.047v-1.32h3.453Zm.74.047-.301-.015V7.325h.359Zm.116 3.737a25.25 25.25 0 0 1-4.774 0 11.6 11.6 0 0 0-.914.88v.025c-.011.069-.018.128.013.154a7.7 7.7 0 0 0 3.391.486 6.665 6.665 0 0 0 3.157-.473.282.282 0 0 0 .021-.208 8.14 8.14 0 0 0-.894-.864m.452 1.493a13.1 13.1 0 0 1-2.739.26h-.041a12.65 12.65 0 0 1-2.908-.281 4.5 4.5 0 0 0-.358.381v.025c-.011.067-.019.129.012.155.527.44 2.984.586 4.745.418a3.113 3.113 0 0 0 1.583-.404.297.297 0 0 0 .02-.211 2.9 2.9 0 0 0-.314-.343m.135.893a5.58 5.58 0 0 1-1.411.278c-.451.043-.98.066-1.523.066a10.34 10.34 0 0 1-3.022-.345c-.047.066-.088.125-.11.172v.041c-.01.074-.024.185.019.231.48.514 2.651.703 4.299.55.99-.091 1.672-.291 1.827-.535a.525.525 0 0 0 .024-.308 1.8 1.8 0 0 0-.103-.15m-.133.863a5.57 5.57 0 0 1-1.603.344c-.387.036-.797.053-1.209.053a7.82 7.82 0 0 1-2.918-.439c-.045.066-.084.125-.11.172v.042c-.009.07-.023.186.018.233.453.505 2.508.696 4.07.55.973-.089 1.65-.29 1.796-.539a.54.54 0 0 0 .024-.31c-.02-.02-.045-.064-.068-.106m-.087.802a5.06 5.06 0 0 1-1.643.374c-.351.032-.723.049-1.1.049a7.55 7.55 0 0 1-2.772-.416c-.046.069-.084.131-.11.179v.043c-.008.07-.023.187.019.234.44.505 2.374.694 3.908.557.948-.086 1.628-.293 1.774-.541a.583.583 0 0 0 .023-.313 1.8 1.8 0 0 0-.099-.166m-2.704 1.276a10 10 0 0 1-1.85-.159l.048.397.012.137c0 .02.007.092.015.176l.19 2.107a3.992 3.992 0 0 0 3.031-.063l.238-2.725c-.238.042-.471.068-.659.086-.334.032-.679.044-1.025.044"/></svg>