<svg xmlns="http://www.w3.org/2000/svg" fill="#44739e" viewBox="0 0 24 24"><path d="M19.216 15.2a3.4 3.4 0 0 1-.2-.037.8.8 0 0 1-.126-.163 3.6 3.6 0 0 0-3.42-1.492 3.4 3.4 0 0 0-2.67 1.762c-.084.165-.085.165-.207.165A3.324 3.324 0 0 0 9.5 17.556a2.714 2.714 0 0 0-.111 1.193 6.9 6.9 0 0 0 .72.014h.711l-.008-.052c0-.029-.018-.1-.03-.154a1.408 1.408 0 0 1 .732-1.642 2.7 2.7 0 0 1 1.486-.19l.1.009.116-.171a4.37 4.37 0 0 1 1.052-1.243 2.814 2.814 0 0 1 3.963.8 2.63 2.63 0 0 0 .337.49l.2.029c1.383.191 2.029.81 1.986 1.9l-.008.219h1.17l.011-.031a3.12 3.12 0 0 0 .037-.953 3.2 3.2 0 0 0-2.748-2.574m-1.892 2.319c-.159.041-.157.042-.212-.067a1.7 1.7 0 0 0-1.821-.778 1.545 1.545 0 0 0-1.107.8c-.029.071-.049.075-.195.04-.972-.233-1.993.342-2.018 1.135v.109h7.408v-.1a1.567 1.567 0 0 0-2.055-1.139m1.37-7.576c-.438.039-.911.27-.966.472-.1.365.253.591.588.377a.911.911 0 0 1 1.381.626.357.357 0 0 0 .708.034 1.45 1.45 0 0 0-.165-.626 1.63 1.63 0 0 0-1.546-.883m-1.067-.338a2.259 2.259 0 0 1 3.482 1.814.68.68 0 0 0 .046.286.439.439 0 0 0 .8-.005l.038-.086-.008-.251a3.134 3.134 0 0 0-3.435-2.987 3.2 3.2 0 0 0-1.395.487c-.215.14-.271.226-.271.417 0 .4.372.563.743.325m-6.71 3.288a5.12 5.12 0 0 0 1.824.13h1.023v-.738l-.933-.009a3.92 3.92 0 0 1-1.449-.116 1.326 1.326 0 0 1-.745-1.041.67.67 0 0 1-.009-.341c.009-.006 3.136-.025 3.136-.025v-.744l-3.164.041a1.789 1.789 0 0 1 .7-1.383c.254-.123.312-.128 1.469-.138l.995-.008v-.752h-1.9l-.2.019a2.208 2.208 0 0 0-2.084 2.23c-.143 1.459.369 2.561 1.337 2.875M8.913 7.527l-.037-2.469v-.1a.144.144 0 0 0-.093-.135l-.056-.021a.13.13 0 0 1-.027-.014l-.072-.05a.11.11 0 0 1-.028-.025l-.049-.058a.16.16 0 0 0-.062-.043l-.1-.034c0-.016.047-.09 0-.11a23.56 23.56 0 0 0-5.916 0c-.04.02.026.082.044.1l-.168.093a.11.11 0 0 0-.032.024l-.078.077a.136.136 0 0 1-.062.037l-.1.029-.087.039v2.767h.12v.058a.084.084 0 0 0 .084.084.085.085 0 0 1 .084.081v.019a.084.084 0 0 0 .085.081h.6a.145.145 0 0 1 .145.15l-.031.953a.143.143 0 0 1-.129.139l-.548.059a.144.144 0 0 0-.1.06l-.167.232a.17.17 0 0 0-.033.05 11.5 11.5 0 0 0 .158 2.532.143.143 0 0 0 .119.122 22.56 22.56 0 0 0 6.173-.03.143.143 0 0 0 .11-.124 11.4 11.4 0 0 0 .122-2.522.14.14 0 0 0-.027-.052l-.114-.142a.136.136 0 0 0-.063-.045l-.185-.069a.13.13 0 0 0-.028-.007l-.225-.035a.144.144 0 0 1-.123-.143V8.076a.144.144 0 0 1 .143-.144l.369-.005a.084.084 0 0 0 .083-.08v-.008a.084.084 0 0 1 .088-.08h.072l-.007-.088a.146.146 0 0 0 .148-.144m-2.025 1.6-.325-.052-.347-.015-1.082-.01-1.034.031-.347.042v-1.2h3.14zm.673.043-.274-.014v-1.23h.327zm.105 3.398a22.96 22.96 0 0 1-4.34 0 10.5 10.5 0 0 0-.831.8v.022c-.01.063-.017.117.011.14a7 7 0 0 0 3.084.442 6.06 6.06 0 0 0 2.87-.43.256.256 0 0 0 .019-.189 7.4 7.4 0 0 0-.813-.785m.411 1.357a11.9 11.9 0 0 1-2.49.236H5.55a11.5 11.5 0 0 1-2.644-.255 4.1 4.1 0 0 0-.326.346v.023c-.01.061-.017.117.011.141.479.4 2.713.533 4.314.38a2.83 2.83 0 0 0 1.44-.367.27.27 0 0 0 .018-.192 2.66 2.66 0 0 0-.286-.312m.123.812a5.07 5.07 0 0 1-1.283.253c-.41.039-.891.06-1.385.06a9.4 9.4 0 0 1-2.747-.314c-.043.06-.08.114-.1.156v.038c-.009.067-.022.168.017.21.436.467 2.41.639 3.909.5.9-.083 1.52-.265 1.661-.487a.477.477 0 0 0 .022-.28 1.6 1.6 0 0 0-.094-.136m-.121.785a5.06 5.06 0 0 1-1.457.312c-.352.033-.725.049-1.1.049a7.11 7.11 0 0 1-2.653-.4c-.041.06-.076.114-.1.157v.038c-.008.064-.021.169.017.212.411.459 2.28.633 3.7.5.885-.081 1.5-.264 1.633-.49a.493.493 0 0 0 .022-.282c-.018-.018-.041-.058-.062-.096M8 16.251a4.6 4.6 0 0 1-1.494.34c-.319.029-.657.044-1 .044a6.86 6.86 0 0 1-2.52-.378c-.042.063-.077.119-.1.163v.039c-.008.064-.021.17.017.213.4.459 2.158.631 3.553.506.862-.078 1.48-.266 1.613-.492a.53.53 0 0 0 .021-.284 1.6 1.6 0 0 0-.09-.151m-2.459 1.16a9.07 9.07 0 0 1-1.682-.145l.044.361.011.125c0 .018.006.084.014.16l.172 1.916a3.63 3.63 0 0 0 2.756-.058l.217-2.477c-.217.038-.429.062-.6.078-.303.029-.617.04-.932.04"/></svg>