<svg xmlns="http://www.w3.org/2000/svg" fill="#44739e" viewBox="0 0 24 24"><path d="m19.855 15.021.01-.02c-.047.048-.095.1-.145.14a1.89 1.89 0 0 1-.773.434 1.81 1.81 0 0 0-.6.295 1.22 1.22 0 0 0-.352.384 1.88 1.88 0 0 1-.364.43 2.9 2.9 0 0 1-1.669.631 3.25 3.25 0 0 1-1.214-.084 3.15 3.15 0 0 0-.82-.1 2.07 2.07 0 0 0-1.074.291 6.72 6.72 0 0 1-1.458.552 6.07 6.07 0 0 1-2.681.235 5.7 5.7 0 0 1-1.615-.535 14.5 14.5 0 0 1-1.968-1.359A6.2 6.2 0 0 1 3.973 15.3l-.02-.024a15.6 15.6 0 0 0 .837 1.514A3.92 3.92 0 0 0 6.239 18a5.16 5.16 0 0 0 3.007.445l.193-.01a14 14 0 0 1 2.845.04 4.68 4.68 0 0 0 1.558-.034 12.42 12.42 0 0 0 4.723-1.914 4.97 4.97 0 0 0 1.291-1.5zm-3.612 1.337a8.24 8.24 0 0 1-1.691.227c-.3.022-.672.05-1.152.09-.716.06-1.179.107-1.553.144-.592.059-.919.09-1.59.113a8.72 8.72 0 0 1-2.3-.132 8.45 8.45 0 0 1-1.674-.575 16.8 16.8 0 0 1-2.208-1.209l-.154-.1c.057.077.118.155.184.234a5.94 5.94 0 0 0 1.134.983c.308.23.568.427.793.593a9.3 9.3 0 0 0 .985.534c1.413.653 2.776.638 4.89.33a6 6 0 0 0 .865-.371 2.23 2.23 0 0 1 1.149-.309 3.27 3.27 0 0 1 .859.106l.227.049a13.32 13.32 0 0 0 2.791-.874l.04-.06a1.455 1.455 0 0 1 .4-.435c.03-.023.06-.044.09-.065l-.224.092a14.55 14.55 0 0 1-1.859.635zm-2.845.214c.48-.041.852-.068 1.153-.091a8.12 8.12 0 0 0 1.678-.224c.293-.075.575-.161.831-.248-.18.032-.362.056-.544.07a4.3 4.3 0 0 1-1.389-.092 4.1 4.1 0 0 0-.949-.107 2.65 2.65 0 0 0-1.239.284 8.15 8.15 0 0 1-1.673.54c-.15.04-.3.07-.464.11.357-.02.64-.05 1.049-.09.367-.037.831-.083 1.552-.143zM3.3 14.51l-.007-.021a4.1 4.1 0 0 1-.582-.5c-.03-.03-.058-.061-.086-.091l.008.013a16 16 0 0 0 1 1.563 4 4 0 0 0 .449.459l-.313-.6c-.107-.207-.214-.415-.319-.623a.98.98 0 0 1-.15-.2m16.369.409c.062-.057.121-.116.173-.17.14-.144.2-.2.264-.2a.1.1 0 0 1 .08.038.133.133 0 0 1 .03.1.06.06 0 0 1 .037 0l.018.01v.01a4.88 4.88 0 0 0 .739-.9l.036-.057c-.072.065-.146.127-.222.187a2.24 2.24 0 0 1-.881.425 2.3 2.3 0 0 0-.7.293 1.3 1.3 0 0 0-.4.383 1.91 1.91 0 0 1-.415.427l-.046.032c.5-.21.934-.417 1.269-.575zm-.691-.4a18.5 18.5 0 0 1-2.142.619 10.67 10.67 0 0 1-1.944.214c-.345.02-.774.046-1.327.083-.825.055-1.359.1-1.788.132-.682.055-1.058.085-1.83.1a11.57 11.57 0 0 1-2.641-.15 10.9 10.9 0 0 1-1.928-.59A20.6 20.6 0 0 1 2.825 13.7l-.21-.109c.07.08.142.159.222.241a3.3 3.3 0 0 0 .35.32c-.043-.12-.022-.14.01-.17l.032-.03h.044c.051.008.064.032.154.187.048.085.113.2.194.327.144.1.319.216.531.355l.9.588a11.5 11.5 0 0 0 1.162.556c1.629.665 3.207.66 5.645.366a7.7 7.7 0 0 0 1-.366 2.806 2.806 0 0 1 1.309-.3 4.3 4.3 0 0 1 .979.11c.088.02.176.037.267.053a16.93 16.93 0 0 0 3.222-.86l.045-.06a1.49 1.49 0 0 1 .457-.429c.041-.029.081-.05.119-.074zm-12.422.711a12.46 12.46 0 0 0 2.176.044l.242-.01a21.85 21.85 0 0 1 3.544.073c.129.013.249.026.369.036l.661-.046c.552-.037.981-.062 1.328-.082h.178a17.25 17.25 0 0 0 5.3-1.778 5.41 5.41 0 0 0 1.6-1.489L22 11.9c-.078.065-.17.14-.268.21a2.49 2.49 0 0 1-.949.42 2.56 2.56 0 0 0-.756.29 1.37 1.37 0 0 0-.439.383 1.94 1.94 0 0 1-.446.425 4.09 4.09 0 0 1-2.059.6 5.06 5.06 0 0 1-1.5-.1 5 5 0 0 0-1.033-.112 3.07 3.07 0 0 0-1.352.28 9.4 9.4 0 0 1-1.808.534 9.26 9.26 0 0 1-3.325.205 8.5 8.5 0 0 1-2-.549 19.16 19.16 0 0 1-2.475-1.378 7.52 7.52 0 0 1-1.464-1.024q-.064-.062-.126-.126l.027.042a16.4 16.4 0 0 0 1.1 1.559 4.2 4.2 0 0 0 .49.462 17.5 17.5 0 0 0 1.788.816c.324.124.7.268 1.154.4zm10.878-1.959a12.6 12.6 0 0 1-2.1.206l-1.439.08q-.967.057-1.935.13c-.739.054-1.146.079-1.983.1a13.58 13.58 0 0 1-2.862-.157 12.6 12.6 0 0 1-2.092-.6 23.5 23.5 0 0 1-2.767-1.233l-.237-.123c.076.08.156.164.243.247a7.46 7.46 0 0 0 1.431 1c.375.23.694.422.972.588a13.2 13.2 0 0 0 1.273.566c1.779.672 3.482.673 6.125.39a9 9 0 0 0 1.082-.364 3.24 3.24 0 0 1 1.415-.294 5.15 5.15 0 0 1 1.064.115c.1.019.192.037.291.053a19.53 19.53 0 0 0 3.5-.847l.05-.06a1.54 1.54 0 0 1 .491-.43c.048-.029.093-.052.138-.075l-.334.106a21 21 0 0 1-2.318.618zm.061.6c.033.029.07.054.1.08a3.37 3.37 0 0 0 1.446-.5 2.3 2.3 0 0 0 .2-.165 17.5 17.5 0 0 1-1.842.509 1.1 1.1 0 0 1 .09.08zm-.6.026.02.024c.029.032.05.062.08.092h.092l.177-.01a3 3 0 0 1-.132-.14zm-.45-1.69a.148.148 0 0 1 .026-.1.12.12 0 0 1 .078-.053.11.11 0 0 1 .088.024.134.134 0 0 1 .048.088 3.22 3.22 0 0 0 .331 1.078c.13-.02.263-.043.412-.073a21.4 21.4 0 0 0 2.308-.609q.806-.255 1.6-.548a3.6 3.6 0 0 0-.03-.415c-.2-1.5-1.6-4.167-2.908-4.229a1 1 0 0 0-.21.014c-.6.108-1.021.809-1.264 1.379a8.08 8.08 0 0 0-.578 3.727 3.17 3.17 0 0 0 .223.809c.067-.006.133-.012.2-.02a3.52 3.52 0 0 1-.316-1.072ZM18.87 14.4h.147c.688-.238 1.3-.484 1.741-.665l.037-.015c.045-.036.088-.072.128-.109a3 3 0 0 0 .21-.451 5.26 5.26 0 0 1-.681.486 13.5 13.5 0 0 1-1.58.754zm-8.153-4.733a3.069 3.069 0 0 0 .635 2.916 2.35 2.35 0 0 0 .976.644 2.18 2.18 0 0 0 .511.11 2.26 2.26 0 0 0 .339.01c.056 0 .112-.01.168-.012a2.717 2.717 0 0 0 2.15-2.023 8.023 8.023 0 0 0-.147-4.1 1.815 1.815 0 0 0-.959-1.23c-.771-.264-1.661.552-2.122 1.062a7.63 7.63 0 0 0-1.514 2.506c-.014.043-.028.086-.04.128zm.083.44a3.9 3.9 0 0 1 .128-.642.138.138 0 0 1 .06-.08.11.11 0 0 1 .09-.01.12.12 0 0 1 .07.065.15.15 0 0 1 .007.1 3.67 3.67 0 0 0-.12.606 2.623 2.623 0 0 0 .178 1.337 2.26 2.26 0 0 0 .22.4 2.69 2.69 0 0 0 1.049.889.141.141 0 0 1 .057.177.12.12 0 0 1-.115.08.1.1 0 0 1-.03-.005l-.118-.047h.012a2.925 2.925 0 0 1-.939-.773 2.56 2.56 0 0 1-.353-.59 2.9 2.9 0 0 1-.2-1.5zm4.536 3.266c.5-.025.834-.042 1.127-.067l-.01-.021-.04-.11-.027-.09-.035-.116c-.012-.04-.016-.05-.022-.077l-.03-.121a.4.4 0 0 0-.016-.077l-.02-.121a.6.6 0 0 0-.014-.08 4.1 4.1 0 0 1-.035-.413v-.458a1 1 0 0 1 .007-.144v-.1c0-.036.007-.092.011-.138a.6.6 0 0 1 .01-.11 1.2 1.2 0 0 0 .014-.13l.013-.117.017-.13.017-.121.021-.128.021-.125.025-.127.025-.124c.01-.041.02-.086.028-.128l.028-.122.033-.128.03-.118.037-.127.032-.113.04-.126.035-.107.045-.125c.014-.041.022-.067.035-.1l.048-.124.033-.082c-.4-.844-.879-1.37-1.362-1.491.01.03.017.06.026.089s.026.078.037.119l.035.135.03.128c.02.09.039.179.057.27l.024.14.024.137.02.143.017.138c.006.047.01.1.014.144s.01.092.015.139l.009.148.007.137v.829c0 .05-.005.1-.008.145s0 .08-.008.12-.008.1-.013.142-.006.074-.01.111l-.016.139c0 .034-.008.067-.013.1l-.022.138-.014.089-.031.144a.3.3 0 0 1-.012.068 3.9 3.9 0 0 1-.115.4l-.028.07c-.016.043-.032.086-.05.128s-.025.053-.038.08-.033.074-.052.109L15.3 12l-.056.1-.05.079c-.018.025-.04.062-.06.092l-.057.076c-.02.026-.042.058-.065.086l-.06.07c-.022.025-.046.055-.07.08l-.065.068-.072.073c-.025.024-.047.042-.07.063l-.077.068-.074.057c-.028.02-.054.042-.081.06l-.08.053-.084.055-.08.046-.09.048-.081.04-.09.04c-.028.012-.057.023-.086.033l-.094.034-.089.026-.1.026-.09.02-.057.012.016.022.03.038.419-.025c.61-.03 1.074-.05 1.449-.072zm-8.8-.869c-.034-.138-.06-.276-.08-.416a.138.138 0 0 1 .08-.147l.02-.007a.1.1 0 0 1 .089.025.134.134 0 0 1 .046.087v.028a3.6 3.6 0 0 0 .123.522 2.69 2.69 0 0 0 .346.74c.049.069.1.136.157.2a14.6 14.6 0 0 0 2.668.126c.338-.005.6-.013.849-.024a3.08 3.08 0 0 0 .43-1.01c-.02-.022-.038-.044-.057-.067l-.06-.071-.062-.083a2 2 0 0 1-.11-.163c-.02-.03-.034-.051-.05-.078l-.05-.1-.043-.08c-.016-.033-.03-.066-.044-.1s-.026-.053-.038-.08-.026-.067-.04-.1l-.031-.083-.034-.1-.026-.083-.027-.11a1.3 1.3 0 0 1-.021-.085l-.02-.11-.015-.086c-.005-.038-.01-.076-.014-.114s-.01-.057-.011-.086 0-.077-.008-.116 0-.057 0-.086a1.1 1.1 0 0 1 0-.117v-.086a.66.66 0 0 1 .008-.12c.008-.04 0-.056.007-.084s.01-.085.015-.127a.45.45 0 0 1 .009-.08c.007-.045.017-.09.026-.136a.33.33 0 0 1 .013-.068c.015-.067.032-.133.05-.2.01-.036.023-.073.035-.11a7.7 7.7 0 0 0-.521-.9c-.358-.527-1.021-1.345-1.739-1.379a1 1 0 0 0-.212.013c-.789.138-1.34 1.312-1.634 2.536a8.9 8.9 0 0 0-.242 1.6c0 .088-.008.174-.01.259a5.5 5.5 0 0 0 .023.56c0 .053.011.106.018.158a3.11 3.11 0 0 0 .338 1.049c.087.019.176.039.27.057a3.08 3.08 0 0 1-.413-.976Zm2.675 2.253a.38.38 0 0 0 .087-.02c-.2 0-.4 0-.6-.013s-.383-.025-.57-.043a2.21 2.21 0 0 0 1.08.076zm1.139-5.978v.007c.042.067.084.136.124.21l.042.076.083.149.045.088.048.089.01-.027.023-.062.035-.089.026-.065.038-.09.03-.065.04-.09.034-.068.043-.09.035-.07.048-.092.037-.07.052-.093.038-.067.06-.1.034-.06.075-.121.024-.038.1-.158.03-.045.078-.112.04-.06.07-.1.048-.062a3 3 0 0 1 .067-.088l.05-.064.064-.084.052-.063.067-.08.053-.062.035-.039a.74.74 0 0 0-.115-.014c-.448-.02-.926.3-1.385.923a5.65 5.65 0 0 0-.409.652c.047.067.09.13.129.2zm2.487 4.736-.041-.088-.06-.008-.06-.01-.076-.009-.055-.01-.082-.02a.16.16 0 0 1-.047-.013q-.135-.039-.264-.09l-.045-.02-.09-.04-.051-.029a1.2 1.2 0 0 1-.08-.042l-.052-.03-.073-.047-.053-.036-.07-.048-.05-.04-.064-.054c-.017-.013-.033-.028-.05-.043l-.065-.055-.048-.047-.028-.026-.012.044-.016.065c-.009.031-.019.062-.028.093l-.02.062c-.011.032-.023.064-.034.095l-.02.057c-.015.035-.03.07-.046.105l-.018.043c-.022.048-.045.1-.07.143l-.015.03-.06.11-.03.05-.016.026c.32-.016.619-.037 1.012-.065zm-6.614-1.442v-.41a2.64 2.64 0 0 1-.283-.5 3.193 3.193 0 0 1-.067-2.141.118.118 0 0 1 .144-.084.11.11 0 0 1 .065.062.138.138 0 0 1 .008.1 3.26 3.26 0 0 0-.122 1.268 2.5 2.5 0 0 0 .179.675 1.5 1.5 0 0 0 .084.174c0-.033.006-.07.008-.1l.01-.117.01-.092.01-.07c0-.03.008-.06.01-.092l.01-.072a.6.6 0 0 1 .015-.094l.01-.074a.6.6 0 0 1 .015-.093l.013-.073.017-.094.015-.076q.007-.048.018-.093l.015-.076.02-.092.019-.076.022-.093.018-.075.024-.093.02-.072.025-.09.02-.078.025-.088.023-.075.03-.088.024-.073.03-.086.029-.072.033-.084L6.8 8.7l.033-.08.03-.07.037-.082.03-.067.037-.076.03-.063.039-.078.035-.059.04-.07.03-.055.042-.066.034-.052.044-.062.039-.057.044-.063.04-.05.047-.049.04-.046.05-.05.044-.04.053-.044.044-.04.056-.035.044-.03.057-.035.044-.024.062-.03.04-.02.07-.025.037-.013c.036-.01.072-.019.109-.026a1.2 1.2 0 0 1 .119-.01h.163c.026 0 .051.006.076.01l.05.01a.33.33 0 0 1 .073.016l.055.017.072.024.054.023.072.03.058.03a.8.8 0 0 1 .07.04l.058.034.07.045c.02.013.039.028.057.042l.07.052.059.048.07.058.059.054.07.066.06.06.07.071.06.066.07.077.06.072.068.086.06.078.068.09.06.085.046.062.042-.07.04-.07.07-.115.031-.055c.035-.054.07-.107.1-.159s.065-.094.1-.14c-.184-1.284-.627-2.141-1.219-2.343a.96.96 0 0 0-.265-.05c-.826-.04-1.8.917-2.478 1.9a6.68 6.68 0 0 0-.932 1.849 3.117 3.117 0 0 0 .569 2.844Zm-3.335-1.029a.12.12 0 1 1 .239-.019.1.1 0 0 1 0 .029 3.32 3.32 0 0 0 .12 1.1 19.5 19.5 0 0 0 1.806.759 13.9 13.9 0 0 0 1.5.469l-.03-.061-.034-.073-.037-.092-.03-.073-.032-.1-.025-.075-.03-.1a4 4 0 0 1-.041-.19.5.5 0 0 0-.012-.057 2.7 2.7 0 0 1-.046-.323c-.022-.021-.04-.045-.062-.07s-.042-.045-.062-.07l-.071-.083-.057-.074c-.018-.025-.038-.06-.057-.088a.9.9 0 0 1-.049-.078c-.014-.026-.036-.062-.053-.093l-.045-.08a1.1 1.1 0 0 1-.046-.1c-.014-.034-.027-.055-.04-.082l-.04-.1a1.5 1.5 0 0 1-.068-.192c-.01-.037-.02-.055-.027-.083s-.021-.075-.03-.112l-.021-.085c-.007-.028-.015-.077-.022-.116l-.016-.085c0-.03-.01-.08-.015-.12s-.008-.055-.01-.083-.008-.081-.01-.121v-.29a.7.7 0 0 1 .008-.13v-.079a1 1 0 0 1 .016-.134.23.23 0 0 1 .008-.074c.008-.05.018-.1.028-.15a.3.3 0 0 1 .01-.057c.033-.137.073-.273.119-.406l.03-.075c.018-.05.035-.1.055-.146l.04-.1.059-.136a.8.8 0 0 1 .05-.1c.016-.034.039-.09.061-.135s.038-.072.057-.108.045-.087.07-.132l.06-.1.075-.133.067-.11.083-.132.07-.107c.025-.036.05-.078.078-.117A1.457 1.457 0 0 0 5.455 6.7C4.084 6.638 2.8 9.707 2.727 11.3a3.43 3.43 0 0 0 .03.624l.207.1a3.78 3.78 0 0 1-.078-.972"/></svg>