<svg xmlns="http://www.w3.org/2000/svg" viewBox="0 0 24 24"><path fill="#44739e" d="M12.005 2.089a10.155 10.155 0 0 1 10.284 9.879 10.155 10.155 0 0 1-10.284 9.943 10.155 10.155 0 0 1-10.313-9.943 10.155 10.155 0 0 1 10.313-9.879m0 17.227a7.478 7.478 0 0 0 7.616-7.348 7.478 7.478 0 0 0-7.616-7.294 7.469 7.469 0 0 0-7.617 7.294 7.469 7.469 0 0 0 7.617 7.385m0-17.919A10.82 10.82 0 0 0 1 11.968a10.829 10.829 0 0 0 11.005 10.635A10.82 10.82 0 0 0 23 11.968 10.811 10.811 0 0 0 12.005 1.397Zm0 17.227a6.786 6.786 0 0 1-6.924-6.693 6.786 6.786 0 0 1 6.924-6.629 6.795 6.795 0 0 1 6.924 6.629 6.795 6.795 0 0 1-6.924 6.628Z"/></svg>