<svg xmlns="http://www.w3.org/2000/svg" viewBox="0 0 24 24"><path fill="#44739e" d="M9.624 11.323h.831v-.7h1.527v-.702H9.624Zm3.663-1.402h-.907l.597 1.399h.882Zm1.366 2.233.416 1.018 1.408-3.251h-.902Zm2.233.044h.831v1.973h-.831Zm0-2.277h.831v1.867h-.831Zm-9.941 3.443v.701h2.142v-.701H7.776Zm7.081-1.635h-.874l1.042 2.442h.442l.2-.461-.452-1.107Zm-3.572.705h1.471v-.702H9.624v2.333h2.358v-.701h-1.527ZM6.945 9.921h.831v3.033h-.831Zm-2.675 0h.831v3.033H4.27Zm0 3.443v.701h2.142v-.701h-1.31Zm-2.44-.93h1.471v-.702H1v2.333h2.358v-.701H1.83ZM1 11.323h.83v-.7h1.528v-.702H1Zm21.139.875a1.42 1.42 0 0 1-2.814 0h-.864a2.294 2.294 0 0 0 4.539 0Zm-1.411-1.628a1.421 1.421 0 0 1 1.411 1.221H23a2.209 2.209 0 0 0-2.257-1.961 2.215 2.215 0 0 0-2.276 1.961h.86a1.43 1.43 0 0 1 1.402-1.221"/></svg>