<svg xmlns="http://www.w3.org/2000/svg" viewBox="0 0 24 24"><path fill="#44739e" d="m17.401 5.4-.22-.22-.462.462a4.3 4.3 0 0 1-.484.451s-1.166-1.1-2.563-2.563S11.131 1 11.12 1L8.172 3.904 5.235 6.819l.462.473.473.462-2.585 2.563L1 12.88l1.672 1.694L5.598 17.5l1.232 1.254.473-.451c.253-.253.473-.451.473-.451s1.166 1.155 2.563 2.574L12.891 23l.165-.176 5.247-5.181.473-.473-.462-.473a6.2 6.2 0 0 1-.451-.484l2.574-2.552L23 11.109S19.7 7.732 17.401 5.4M13.1 14.112l-3.652 2.123V7.743S16.741 12 16.752 12s-1.639.957-3.652 2.112"/></svg>