<svg xmlns="http://www.w3.org/2000/svg" viewBox="0 0 24 24"><path fill="#44739e" d="m21.375 15.814-5.423-2.467V9.152h.741a1.99 1.99 0 0 0 1.976-.988V5.697c0-.247 0-.494-.74-.74L8.297 1.255c-.252-.247-.988-.247-1.481-.247a1.482 1.482 0 0 0-.988.247c-.493 0-.493.493-.74.74v2.468q0 .371.74.74l1.977.74v4.442l-1.482-.74a6.19 6.19 0 0 0-2.468-.493 4.83 4.83 0 0 0-1.728.246 1.786 1.786 0 0 0-.988 1.481v3.948c0 .247.247.74.988 1.234l15.546 6.417a4.67 4.67 0 0 0 1.977.493 2.66 2.66 0 0 0 1.977-.493 1.478 1.478 0 0 0 1.234-1.235v-4.194a2.553 2.553 0 0 0-1.486-1.235M8.791 6.19l6.415 2.715V13.1l-6.415-2.715Zm12.584 11.599c-1.48.74-2.965 0-3.953-.247-.74-.246-15.053-6.416-15.053-6.416s-1.234-.494 0-.988c1.727-.741 2.965 0 4.442.493a2.48 2.48 0 0 0 .74.247v.989a.531.531 0 0 0 .494.493c.246 0 .74 0 .74-.247v-.741c1.481.741 3.948 1.728 6.415 2.715v.988a.494.494 0 0 0 .989 0v-.74c2.714.988 4.941 1.977 4.941 1.977s1.727.737.245 1.477"/></svg>