<svg xmlns="http://www.w3.org/2000/svg" fill="#44739e" viewBox="0 0 24 24"><path d="M20.539 15.483 15.6 13.236v-3.82h.675a1.812 1.812 0 0 0 1.8-.9V6.27c0-.225 0-.45-.674-.674L8.629 2.225C8.4 2 7.73 2 7.281 2a1.35 1.35 0 0 0-.9.225c-.449 0-.449.449-.674.674v2.247q0 .338.674.674l1.8.674v4.045l-1.349-.674a5.64 5.64 0 0 0-2.248-.449 4.4 4.4 0 0 0-1.573.224 1.626 1.626 0 0 0-.9 1.349v3.595c0 .225.225.674.9 1.124l14.157 5.843a4.25 4.25 0 0 0 1.8.449 2.423 2.423 0 0 0 1.8-.449 1.346 1.346 0 0 0 1.124-1.124v-3.82a2.325 2.325 0 0 0-1.353-1.124M9.079 6.719l5.842 2.472v3.82l-5.842-2.472Zm11.46 10.562c-1.348.674-2.7 0-3.6-.225-.674-.224-13.708-5.842-13.708-5.842s-1.124-.45 0-.9c1.573-.675 2.7 0 4.045.449a2.26 2.26 0 0 0 .674.225v.9a.484.484 0 0 0 .45.449c.224 0 .674 0 .674-.225v-.674c1.348.674 3.595 1.573 5.842 2.472v.9a.45.45 0 0 0 .9 0v-.674c2.472.9 4.5 1.8 4.5 1.8s1.572.671.223 1.345"/></svg>