<svg xmlns="http://www.w3.org/2000/svg" viewBox="0 0 24 24"><path fill="#44739e" d="M21.982 9.756a4.69 4.69 0 0 0-1.996-.5 3.355 3.355 0 0 0-2.246.5l-2.995.998V6.012l1.747-.748c.749-.25.749-.749.749-.749V2.019c0-.249 0-.499-.749-.749-.249-.249-.499-.249-.998-.249a1.867 1.867 0 0 0-1.247.249L4.763 5.264a.797.797 0 0 0-.749.748v2.496q0 .374.749.748a1.5 1.5 0 0 0 .998.25h.998v4.992l-4.741 1.747a1.504 1.504 0 0 0-.999 1.247v3.992a1.494 1.494 0 0 0 1.248 1.249 4.255 4.255 0 0 0 1.747.249 4.5 4.5 0 0 0 2.496-.499l15.223-6.238a1.496 1.496 0 0 0 1.248-1.249v-3.993a1.504 1.504 0 0 0-.999-1.247M7.757 8.757l5.99-2.495v4.991l-5.99 2.496Zm13.477 6.988s-12.977 5.49-13.975 5.739c-1.498.749-2.995 1.249-4.493.5-1.497-.5 0-.998 0-.998s13.975-5.99 14.974-6.488a4.398 4.398 0 0 1 3.993-.251c1.248.749-.499 1.498-.499 1.498"/></svg>