<svg xmlns="http://www.w3.org/2000/svg" viewBox="0 0 24 24"><path fill="#44739e" d="M19.288 14.702c-.244 0-.345.213-.345.431s.101.431.345.431.344-.22.344-.431-.101-.431-.344-.431M12 1a11 11 0 1 0 11 11A11 11 0 0 0 12 1M2.992 9.623h3.06v.727H3.843v.909h2.06v.711h-2.06v1.02h2.209v.729h-3.06Zm.826 6.076h-.826v-1.133h.815v.172H3.19v.296h.571v.163H3.19v.33h.628Zm.929 0-.283-.433-.287.433h-.228l.402-.587-.374-.55h.236l.256.4.269-.4h.22l-.374.55.401.587Zm.859.027a.595.595 0 0 1 0-1.186.44.44 0 0 1 .48.387h-.198a.271.271 0 0 0-.282-.225c-.243 0-.345.22-.345.431s.102.431.345.431a.293.293 0 0 0 .289-.296h.193a.463.463 0 0 1-.482.458m1.594-.027h-.827v-1.133h.816v.172h-.617v.296h.57v.163h-.57v.33H7.2Zm1.126 0H7.5v-1.133h.815v.172h-.617v.296h.572v.163h-.572v.33h.628Zm.77 0h-.469v-1.133h.47c.349 0 .499.254.499.566s-.15.567-.499.567Zm-1.056-3.21h-.77v1.228h-.854V9.623H8.04c1.042 0 1.741.513 1.741 1.43s-.699 1.436-1.741 1.436m3.652.639c.319 0 .835-.094.835-.516 0-.44-.631-.531-1.24-.692-.638-.17-1.252-.409-1.252-1.167a1.381 1.381 0 0 1 1.547-1.251c.864 0 1.657.376 1.657 1.332h-.852c-.028-.498-.411-.626-.846-.626-.289 0-.66.121-.66.47 0 .318.208.367 1.246.633.301.076 1.246.258 1.246 1.196 0 .759-.597 1.327-1.721 1.327-.915 0-1.773-.452-1.76-1.471h.852c.004.55.462.765.948.765m-.89 2.127v.44h-.199v-.44l-.425-.689h.23l.3.507.295-.507h.22Zm1.008.471a.595.595 0 1 1 .542-.593.55.55 0 0 1-.542.593m1.711-.435a.465.465 0 0 1-.929 0v-.725h.198v.66c0 .153.01.33.266.33s.266-.176.266-.33v-.66h.199Zm1.054.408a.31.31 0 0 1-.031-.167c0-.207-.041-.299-.22-.299h-.292v.466h-.198v-1.133h.541c.247 0 .374.11.374.306a.275.275 0 0 1-.187.286c.068.01.168.061.168.24a.517.517 0 0 0 .062.298Zm1.482 0h-.22l-.379-1.133h.207l.284.897.29-.897h.202Zm.79 0h-.198v-1.133h.198Zm-1.384-1.86a1.933 1.933 0 0 1-1.923-2.169 1.939 1.939 0 1 1 3.85 0 1.933 1.933 0 0 1-1.927 2.169m2.104 1.887c-.258 0-.467-.124-.472-.404h.198c0 .174.129.242.287.242s.24-.086.24-.17a.134.134 0 0 0-.095-.14c-.079-.031-.182-.052-.337-.095a.287.287 0 0 1-.251-.287c0-.225.21-.33.415-.33.236 0 .434.126.434.362h-.198c-.01-.146-.11-.2-.245-.2-.091 0-.207.033-.207.147 0 .079.053.123.134.147.018 0 .269.069.33.086a.299.299 0 0 1 .22.29c-.002.256-.227.352-.453.352m.919-.027h-.198v-1.133h.198Zm.802.027a.595.595 0 1 1 .542-.593.55.55 0 0 1-.542.593m1.72-.027H20.8l-.515-.832v.832h-.189v-1.133h.209l.517.835v-.835h.189Zm-.873-1.98-1.086-1.818c-.14-.231-.44-.847-.536-1.053.016.357.032.759.032 1.21v1.659h-.835V9.623h.88l1.085 1.818c.139.232.44.848.537 1.053-.016-.355-.032-.8-.032-1.254V9.623h.833v4.094Zm-4.672-3.488c-.77 0-1.074.714-1.074 1.439s.298 1.44 1.074 1.44 1.075-.714 1.075-1.44-.3-1.439-1.075-1.439m-3.653 4.471c-.243 0-.345.22-.345.431s.102.431.345.431.344-.22.344-.431-.102-.431-.344-.431m2.54.026h-.323v.352h.33c.126 0 .194-.062.194-.18-.004-.143-.098-.172-.201-.172M8.04 10.35h-.77v1.407h.77c.536 0 .891-.232.891-.703s-.356-.704-.891-.704m.98 4.378h-.195v.81h.195c.311 0 .379-.179.379-.405s-.068-.405-.379-.405"/></svg>