<svg xmlns="http://www.w3.org/2000/svg" viewBox="0 0 24 24"><path fill="#44739e" d="M7.759 1a1.193 1.193 0 0 0-1.183 1.138v1.414a2.46 2.46 0 0 0-.444.231 1.045 1.045 0 0 0-.287.842v13.667H1.757v-.646h3.145c.287 0 .397-.103.397-.519s.009-.795 0-1.248-.111-.592-.453-.592H1.757v-.665h3.136c.286 0 .397-.084.397-.518v-1.295c0-.407-.11-.546-.424-.546H1.757v-.675h3.118c.305 0 .415-.111.415-.537V9.785c0-.416-.101-.554-.424-.554H1.703V5.087a1.23 1.23 0 0 0 0-.314.268.268 0 0 0-.361-.186c-.148.037-.24.214-.24.473v4.512c0 .342.12.528.379.509h3.032c.056 0 .149.092.149.092a4 4 0 0 1 0 .573H1.508c-.296 0-.406.148-.406.527v1.259c0 .453.102.582.444.582h3.116v.675H1.49c-.268 0-.388.138-.388.499v1.277c0 .444.102.563.444.563h3.116v.685H1.481c-.259 0-.379.149-.379.5v1.257c0 .49.092.611.48.611h4.283c.018.582.276.925.738.925v1.378a1.59 1.59 0 0 0 .343 1.017.925.925 0 0 0 1.165.305 1.341 1.341 0 0 0 .712-1.239v-1.295l.11-.158a2.2 2.2 0 0 1 .352 0v1.509a1.239 1.239 0 0 0 1.23 1.302 1.322 1.322 0 0 0 1.064-1.423v-1.165a1.5 1.5 0 0 0 0-.204h.434v1.387a1.378 1.378 0 0 0 .924 1.396 1.147 1.147 0 0 0 1.23-1.062 2.63 2.63 0 0 0 0-.536v-1.194h.445c0 .49-.01.951.027 1.414a1.443 1.443 0 0 0 .621 1.241.869.869 0 0 0 1.127-.112 1.535 1.535 0 0 0 .481-1.212v-1.322h.435v1.508a1.258 1.258 0 0 0 1.109 1.284 1.267 1.267 0 0 0 1.111-1.293v-1.277a1.8 1.8 0 0 1 0-.222h.424v1.443a1.332 1.332 0 0 0 1.064 1.423c.601.028 1.1-.517 1.165-1.284v-1.508l.24-.045c.315-.102.482-.435.482-.925V4.441a.823.823 0 0 0-.352-.676 2.5 2.5 0 0 0-.37-.139v-1.34A1.276 1.276 0 0 0 21.123 1a1.174 1.174 0 0 0-1.12 1.129 8.9 8.9 0 0 0-.047 1.219v.278h-.433V2.414A1.341 1.341 0 0 0 18.45 1a1.239 1.239 0 0 0-1.183 1.257v1.351h-.435V2.369a1.359 1.359 0 0 0-.676-1.25c-.74-.407-1.544.279-1.544 1.324v1.156h-.445V2.488a1.572 1.572 0 0 0-.489-1.23.925.925 0 0 0-1.147-.092 1.498 1.498 0 0 0-.601 1.257v1.176h-.443V2.405c-.018-.934-.722-1.599-1.416-1.349a1.461 1.461 0 0 0-.786 1.45v1.102h-.48V2.322A1.295 1.295 0 0 0 7.759 1m0 .86c.213.018.407.26.407.574v1.192l-.914-.018V2.322a.453.453 0 0 1 .507-.462m8 0a.555.555 0 0 1 .435.583v1.183l-.934-.018V2.331a.462.462 0 0 1 .499-.471m2.644.009a.518.518 0 0 1 .462.554v1.203h-.915V2.369a.49.49 0 0 1 .453-.5m-7.998.009a.499.499 0 0 1 .434.527v1.221h-.907V2.322a.453.453 0 0 1 .473-.444m2.7 0a.499.499 0 0 1 .407.509v1.239h-.898V2.322a.444.444 0 0 1 .491-.444m7.98 0c.25 0 .444.222.444.601v1.147h-.924c0-.407-.01-.841 0-1.183s.23-.565.48-.565m-14.5 2.673h15.6v14.648l-15.6-.027Zm7.832 3.302c-.08 0-.162.055-.25.166l-3.356 4.392a.462.462 0 0 0-.102.454.305.305 0 0 0 .325.24h.516v2.552c0 .379.093.5.38.5h4.948c.287-.009.378-.121.378-.509v-2.543h.509a.305.305 0 0 0 .323-.249.49.49 0 0 0-.11-.454c-.212-.286-.435-.564-.648-.86a.546.546 0 0 1-.083-.278v-1.58c0-.314-.101-.453-.351-.453h-.249c-.462 0-.518.045-.518.637v.121l-.139-.242c-.407-.573-.878-1.155-1.331-1.728-.084-.111-.163-.167-.242-.167m4.457 12.253a1 1 0 0 1 0 .167v1.192c-.018.36-.184.61-.471.61s-.472-.267-.472-.674v-1.277Zm-5.353.009v1.489a.462.462 0 0 1-.925 0v-1.479Zm-6.289.01h.907v1.488a.481.481 0 0 1-.463.473.509.509 0 0 1-.444-.527Zm2.682 0h.925l.009.009c0 .462.018 1.045 0 1.387s-.24.563-.49.554-.444-.266-.444-.599Zm5.346 0 .961.047v1.432a.499.499 0 0 1-.462.518.518.518 0 0 1-.499-.592Zm5.345 0h.897v1.461a.499.499 0 0 1-.417.48.49.49 0 0 1-.48-.415 2.65 2.65 0 0 1 0-.389Z"/></svg>