<svg xmlns="http://www.w3.org/2000/svg" data-name="Livello 1" viewBox="0 0 24 24"><path fill="#44739e" d="M7.3496.1602a1.29 1.29 0 0 0-1.2793 1.2304V2.92a2.66 2.66 0 0 0-.4805.25 1.13 1.13 0 0 0-.3105.9102v14.7793h-4.42v-.6992h3.4005c.31 0 .4297-.1106.4297-.5606s.01-.8596 0-1.3496-.1203-.6406-.4903-.6406H.8594v-.7188H4.25c.31 0 .4297-.0905.4297-.5605v-1.4004c0-.44-.119-.5899-.459-.5899H.8594v-.7304h3.371c.33 0 .4493-.1201.4493-.5801V9.6602c0-.45-.109-.5997-.459-.5997h-3.42V4.5801a1.33 1.33 0 0 0 0-.3399.29.29 0 0 0-.3905-.2011c-.16.04-.2598.2317-.2598.5117v4.8789c0 .37.1301.5708.4101.5508h3.2793c.06 0 .1602.0996.1602.0996a4.3 4.3 0 0 1 0 .6191H.5898c-.32 0-.4394.1603-.4394.5703v1.3614c0 .49.1105.6289.4805.6289H4v.7304H.5703c-.29 0-.42.1491-.42.5391v1.3809c0 .48.1106.6093.4806.6093H4v.7403H.5605c-.28 0-.4101.161-.4101.541v1.3594c0 .53.0995.6601.5195.6601h4.6309c.02.63.2988 1 .7988 1v1.4902a1.72 1.72 0 0 0 .3711 1.0997 1 1 0 0 0 1.2598.33A1.45 1.45 0 0 0 8.5 22.4004V21l.1191-.17a2.4 2.4 0 0 1 .3809 0v1.6309a1.34 1.34 0 0 0 1.33 1.4082 1.43 1.43 0 0 0 1.1505-1.539v-1.2598a1.6 1.6 0 0 0 0-.2207h.4687v1.5a1.49 1.49 0 0 0 1 1.5098 1.24 1.24 0 0 0 1.3301-1.1485 2.84 2.84 0 0 0 0-.58v-1.291h.4805c0 .53-.0107 1.0292.0293 1.5292a1.56 1.56 0 0 0 .6718 1.3418.94.94 0 0 0 1.2188-.121 1.66 1.66 0 0 0 .5195-1.3106v-1.4297h.4707v1.6309a1.36 1.36 0 0 0 1.1992 1.3886 1.37 1.37 0 0 0 1.2012-1.3984v-1.3809a1.9 1.9 0 0 1 0-.2402h.459v1.5606a1.44 1.44 0 0 0 1.1504 1.539c.65.03 1.1898-.5587 1.2598-1.3887v-1.6308l.2597-.0488c.34-.11.5215-.47.5215-1v-16a.89.89 0 0 0-.3809-.7305A2.74 2.74 0 0 0 22.9395 3V1.5508A1.38 1.38 0 0 0 21.8008.1602a1.27 1.27 0 0 0-1.211 1.2207 9.65 9.65 0 0 0-.0507 1.3183V3h-.4688V1.6895A1.45 1.45 0 0 0 18.9102.1602a1.34 1.34 0 0 0-1.2793 1.3593v1.461h-.4707V1.6406a1.47 1.47 0 0 0-.7305-1.3515c-.8-.44-1.67.3016-1.67 1.4316v1.25h-.4804V1.7695a1.7 1.7 0 0 0-.5293-1.33 1 1 0 0 0-1.2402-.0997 1.62 1.62 0 0 0-.6504 1.3594v1.2715h-.4785v-1.291c-.02-1.01-.7813-1.729-1.5313-1.459A1.58 1.58 0 0 0 9 1.7891v1.1914h-.5195V1.5898A1.4 1.4 0 0 0 7.3496.1602m0 .9296c.23.02.4395.2811.4395.6211V3l-.9883-.0195V1.5898a.49.49 0 0 1 .5488-.5m8.6504 0a.6.6 0 0 1 .4707.6309V3l-1.0098-.0195V1.5996A.5.5 0 0 1 16 1.0898m2.8594.0098a.56.56 0 0 1 .5.5996V3h-.9903V1.6406a.53.53 0 0 1 .4903-.541m-8.6485.0098a.54.54 0 0 1 .4688.5703V3h-.9805V1.5898a.49.49 0 0 1 .5117-.4804m2.92 0a.54.54 0 0 1 .4394.5508V3h-.9707V1.5898a.48.48 0 0 1 .5313-.4804m8.6289 0c.27 0 .4804.2404.4804.6504V3h-1c0-.44-.01-.9093 0-1.2793s.2496-.6113.5196-.6113M6.08 4h16.8691v15.8398L6.08 19.8105zm8.4687 3.5703c-.0862 0-.1745.0597-.2695.1797l-3.629 4.75a.5.5 0 0 0-.1112.4902.33.33 0 0 0 .3515.2598h.5586v2.7598c0 .41.1002.541.4102.541h5.3515c.31-.01.4082-.1308.4082-.5508v-2.75h.5508a.33.33 0 0 0 .3496-.2695.53.53 0 0 0-.1191-.4903c-.23-.31-.4712-.6097-.7012-.9297a.59.59 0 0 1-.0898-.3007v-1.709c0-.34-.109-.4903-.379-.4903h-.2695c-.5 0-.5605.0495-.5605.6895v.1309L16.25 9.619c-.44-.62-.9495-1.2491-1.4395-1.8691-.09-.12-.1754-.1797-.2617-.1797m4.8203 13.25a1.1 1.1 0 0 1 0 .1797v1.289c-.02.39-.1997.6602-.5097.6602s-.5098-.2885-.5098-.7285v-1.3809zm-5.789.0098v1.6094a.5.5 0 0 1-1 0v-1.5996zm-6.8008.0098h.9805v1.6094a.52.52 0 0 1-.5.5117.55.55 0 0 1-.4805-.5703zm2.9004 0h1l.0098.0098c0 .5.02 1.13 0 1.5s-.2593.6096-.5293.5996-.4805-.2884-.4805-.6484zm5.7812 0 1.0391.0508v1.5488A.54.54 0 0 1 16 23a.56.56 0 0 1-.539-.6406Zm5.7793 0h.9707v1.58a.54.54 0 0 1-.4511.5196.53.53 0 0 1-.5196-.4492 2.86 2.86 0 0 1 0-.42z" class="cls-1" data-name="Colore riempimento 1"/></svg>