<svg xmlns="http://www.w3.org/2000/svg" viewBox="0 0 24 24"><path fill="#44739e" d="M12.162 20.393h1.286a.315.315 0 0 0 .328-.297.344.344 0 0 0-.362-.327H12.16a.075.075 0 0 0-.079.071v.48a.075.075 0 0 0 .081.073m-1.562 0h1.247a.075.075 0 0 0 .08-.071v-.48a.075.075 0 0 0-.08-.071H10.57a.314.314 0 0 0-.328.297.344.344 0 0 0 .358.325M6.988 22.72h.058v.273h1.418v-.273h7.002V23h1.419v-.28h.06c.734-.172 2.51-1.008 2.401-3.879l-14.711.031a4.088 4.088 0 0 0 2.353 3.848m8.661-.1h1.065v.211h-1.065Zm-2.262-3.443v-.039l.008-.019a.06.06 0 0 1 .014-.013.06.06 0 0 1 .021 0h.123a.036.036 0 0 1 .034.018.08.08 0 0 1 .012.039v.327h-.042v-.327l-.007-.006h-.109l-.008.006v.327h-.046Zm-.336 0v-.039a.044.044 0 0 1 .009-.017.06.06 0 0 1 .014-.014.044.044 0 0 1 .02 0h.124a.039.039 0 0 1 .034.018.076.076 0 0 1 .011.039v.265a.07.07 0 0 1 0 .022l-.008.019a.044.044 0 0 1-.014.013.06.06 0 0 1-.02 0h-.128a.033.033 0 0 1-.02 0 .044.044 0 0 1-.014-.013l-.009-.019v-.274Zm-.633-.074h.042v.165h.133v-.165h.04v.38h-.04v-.167h-.133v.167h-.042Zm-.335.334h.164l.007-.008v-.113h-.172v-.048h.172v-.113l-.007-.006h-.164v-.046h.168a.038.038 0 0 1 .035.018.065.065 0 0 1 .011.039v.286a.07.07 0 0 1-.009.019.044.044 0 0 1-.014.013.06.06 0 0 1-.021 0h-.168Zm-.633-.334h.041v.165h.134v-.165h.04v.38h-.04v-.167h-.134v.167h-.035Zm-.335.238v-.015a.076.076 0 0 1 .01-.04.046.046 0 0 1 .035-.018h.125v-.107l-.007-.007h-.163v-.045h.168a.044.044 0 0 1 .021 0l.013.013.009.017v.143l-.007.016a.033.033 0 0 1-.013.012.044.044 0 0 1-.022.007h-.118l-.007.007v.114h.174v.046h-.218Zm-.634-.238h.042v.165h.133v-.165h.041v.38h-.041v-.167h-.133v.167h-.042Zm-.191 0h.074v.38h-.035v-.337h-.039Zm.272.546h2.928a.431.431 0 1 1 0 .861h-2.928a.431.431 0 0 1 0-.861m-3.336 3.176v-.208h1.065v.218H7.226Zm5.876-3.388h.11l.006-.007v-.275l-.006-.006h-.11l-.009.006v.279Zm2.626-9.186C13.922 5.972 13.696 2.956 14.386 1L10.13 2.342c.508 1.901.154 3.702-1.878 7.9-1.337 2.763-3.617 4.181-3.617 8.251h14.732c.005-3.398-2.455-5.443-3.639-8.242"/></svg>