<svg xmlns="http://www.w3.org/2000/svg" viewBox="0 0 24 24"><path fill="#44739e" d="M12.006 20.061H10.48a.165.165 0 0 0-.165.165v.08a.165.165 0 0 0 .165.165h1.526ZM15.235 1H8.73c3.723 8.438-9.803 16.839-1.695 21.988h8.559l1.384.012v-.268C24.898 18.263 12.065 9.205 15.235 1M8.26 22.876H7.186v-.125H8.26Zm.284-.214h7.125a71 71 0 0 1-7.123 0Zm1.61-2.397a.364.364 0 0 1 .364-.363h3.176a.364.364 0 1 1 0 .728h-3.173a.364.364 0 0 1-.365-.365Zm6.71 2.606h-.931v-.115h.931Zm-11.99-4.987h14.461c-1.065.097-13.423.103-14.453 0Zm9.004 2.422v-.08a.165.165 0 0 0-.165-.165h-1.502v.409h1.502a.165.165 0 0 0 .165-.164"/></svg>