<svg xmlns="http://www.w3.org/2000/svg" viewBox="0 0 24 24"><path fill="#44739e" d="M14.64 9.619v.147l.024.355a1.011 1.003 90 0 1 .44-.261l.11-.016.027-.36c-.11.088-.635.009-.761 0a.357.354 90 0 1 .16.135m1.065-.042h.016a.975.968 90 0 1 .654.245l.175.166c.042.036.167.139.196.161a2.438 2.42 90 0 0 .963.313 1.627 1.615 90 0 0 .637-.111c.163-.054.264-.088.305-.111a4.387 4.355 90 0 0 .709-.435c.694-.589.583-.517.956-1.357a.355.352 90 0 0-.085-.04 2.881 2.86 90 0 1-1.682 1.731 2.549 2.53 90 0 1-.829.203 2.36 2.343 90 0 1-.646-.156l-.034-.016a2.181 2.165 90 0 1-.563-.404 1.29 1.28 90 0 0-.758-.322.389.386 90 0 0-.211.048.513.509 90 0 1-.168.055l-.014.153a.315.312 90 0 0 .11-.047.533.529 90 0 1 .269-.076m5.34-1.627a.316.314 90 0 0 .11-.02l-.076-.031Zm-.806.353.11.027.011-.004c.056-.103.196-.111.288-.159a1.639 1.627 90 0 0 .35-.498l-.014-.039h-.008l-.246-.023-.007.028c-.201.17-.48.389-.484.669m.332-.892.021.021a.313.31 90 0 1 .066-.111l.022-.681a3.657 3.63 90 0 0-.109.771m.669.4.33-.165c-.008-.045.256-1.404.22-1.441l-.11-.054-.586 1.26.012.017a.389.386 90 0 1 .077.321Zm1.65-2.335a1.638 1.626 90 0 0-.403.626l-.896 7.283.513-.386L23 5.477Zm-.527.294a1.823 1.81 90 0 1 .384-.465l-1.995-.215a.843.837 90 0 0-.476.644l-.366 3.153a4.021 3.992 90 0 0 .236-.508l-.034-.009a1.239 1.23 90 0 1 .158-.474c.013-.033.301-.28.33-.31a.373.371 90 0 1-.16-.295c.05-.127.167-1.273.352-1.305l.023-.015.806.02.256.123a11.01 10.93 90 0 1-.209 1.594l-.395.199a.238.237 90 0 1-.339.08.857.85 90 0 1-.303.298.318.316 90 0 0-.22.124 3.444 3.419 90 0 1-.577 1.096l-.263 2.262a1.551 1.54 90 0 0-2.059-.163c-.051.041-.458.373-.472.387a.957.95 90 0 0-.292.736c0 .099 0 .191.012.279h.024l.375.099a1.744 1.731 90 0 1 .008-.387.824.818 90 0 1 .826-.709 1.744 1.731 90 0 1 1.44 1.646v.05l.127.033-.136.122a1.108 1.1 90 0 1-.042.198l.143-.134v.878l.189-.143a4.453 4.421 90 0 0 .351-.316c.182-.222.425-.262.357-1.071l.659.191.303.079.915-7.505Zm-1.496 1.533.047.007.538-1.201-.55-.011Zm.202-.975h.066l-.096.492-.071-.007Zm-.134 1.191.051-.042-.022-.047-.212-.033-.043.039-.016.061Zm-5.075 5.874v.325l2.116.516.4-.341-1.722-.5Zm-.128.402v-.539l-1.704 1.204.206-.001.255.062.172.078Zm.514 2.307.173.035.001.025.051.89.725.206 2.266-2.366v-.812l-2.326 2.169-.019-.007-.935-.271Zm.819-.221 2.362-2.11-2.649-.699-.676-.033-.205.146.78.018 2.082.588-.047.04-1.995 1.684-1.22-.411.089.082.113.11.186.219ZM4.614 12.954l-.035.244.21-.143Zm-.005-.478.019.137.011.209.205.114.393-.199-.66-.39Zm2.314-1.933-1.194-.319-1.947.78.004.002.097.085.12.123.126.156.147.252 1.574-.667 1.655.673.887-.439Zm1.658.537.161-.071-1.7-.732-1.363-.354-2.239.903.141.098 2.142-.868 1.243.325Zm5.367 5.757.077.068.825.763v-.01l.047.042a1.449 1.439 90 0 0-.099-1.095l-.04.011-.006-.013-.815.222Zm-.705-1.261-.013-.031c-.389.089-.589.35-.613.86l1.09.317v-.008h.006l-.456-1.145Zm-.501 1.36v.009h-.051a1.568 1.557 90 0 0 .576.895l.018-.04.305-.682.11-.236v-.01Zm1.128.044-.121 1.168v.045c.256.111.797.054.913-.13l-.514-.7Zm-.08-1.414v.029l.11 1.123h.005v.01l.638-.543a1.446 1.435 90 0 0-.754-.619Zm1.723-.252a1.906 1.892 90 0 0-2.626-.407c-.057.047-.527.429-.549.443a1.097 1.089 90 0 0-.338.846 2.874 2.853 90 0 0 .539 1.75 1.695 1.683 90 0 0 .304.317 2.037 2.022 90 0 0 1.588.643 1.397 1.387 90 0 0 .251-.052 1.507 1.496 90 0 0 .491-.243l.251-.19a5.011 4.974 90 0 0 .406-.363c.23-.279.543-.305.382-1.509a2.378 2.361 90 0 0-.699-1.235m-1.286 3.076c-.824.13-1.907-.935-1.739-2.199a.953.946 90 0 1 .954-.817 2.012 1.998 90 0 1 1.664 1.894.997.99 90 0 1-.879 1.122M3.271 13.423a1.284 1.275 90 0 0-.071-.9l-.649.191Zm-.841-1.759.083.953.487-.443a1.131 1.123 90 0 0-.57-.51m-.897.692.831.261-.363-.967c-.296.071-.451.286-.468.706m.498 1.186.33-.787-.77.05a1.303 1.294 90 0 0 .44.737m.36.291c.195.092.608.044.696-.111l-.599-.886Zm.08-3.109s-.889.359-.958.422A1.619 1.607 90 0 0 1 12.29a2.486 2.468 90 0 0 .573 1.532 1.688 1.675 90 0 0 1.424.637.621.616 90 0 0 .274-.079l.733-.416a.481.477 90 0 0 .146-.123 2.017 2.002 90 0 0-1.679-3.117m.744 3.039a.776.77 90 0 1-.455.232c-.627.11-1.452-.776-1.32-1.815a.776.77 90 0 1 .237-.474.753.748 90 0 1 .489-.199c.55-.029 1.232.748 1.266 1.561a.953.946 90 0 1-.217.695m12.667-.922-2.257 1.587.188-.027 2.069-1.445Zm-2.413 1.529 2.391-1.681-.086-.19-3.259-.887c.094-.169.22-.676 1.402-1.357h.008l.447.032a.174.173 90 0 0 .126-.043.161.16 90 0 0 .053-.12v-.358a.166.165 90 0 0-.157-.164l-.44-.024h-.007a.116.116 90 0 0-.078.03.111.11 90 0 0-.035.081v.261a4.402 4.37 90 0 0-1.721 1.551l-2.293-.627h-.403l-.401.199A1.504 1.493 90 0 0 9.236 10a1.528 1.517 90 0 0-1.589-1.356s-.712.283-.77.332a1.262 1.253 90 0 0-.411.903 1.405 1.395 90 0 0 .013.183l.341.089a1.339 1.329 90 0 1 0-.359.615.611 90 0 1 .19-.374.607.603 90 0 1 .419-.181c.44-.023.991.59 1.017 1.232a.911.904 90 0 1-.042.322l.501.215-.33.144-.015-.005-.29-.127a.244.242 90 0 1-.025.023l-.009.008.33.146-.14.045-.676.332a1.366 1.356 90 0 0 .211.018L4.74 13.186l.07.087 6.426 2.144H12l1.328-1.048Zm.13-.684-2.026-.561.231-.161 2.028.56Zm.412-.31-2.003-.554.256-.177 2.003.554Zm-4.5-2.313 5.636 1.516-.238.17-5.659-1.542Zm-.53.274 5.729 1.53-.247.173-1.989-.54.119-.083-2.295-.619-.13.076-1.457-.396Zm1.981 1.441-1.231.734c.016.03.121.041.272.047l-.62.121.021-.332c.088.072.117.092.174.1l.788-.61-.577-.204.857-.564.45.111-.757.385ZM8.45 11.592l1.494.413-.289.167-1.505-.411Zm-.578.287 1.549.428-.258.151-1.586-.443Zm-.57.277 1.598.455-.32.186-1.632-.46Zm-.625.312 1.667.466-.299.173-1.685-.484Zm4.826 2.651-6.16-1.984.301-.136 6.169 1.924Zm.502-.363-6.146-1.869.287-.138 1.674.489-.174.101 2.496.775.208-.137 1.98.577Zm.536-.356-1.98-.57.284-.197 1.993.554Zm-1.495-.909.277-.193 2.013.571-.282.187Zm-6.348-.169v.143l.068.064L11.26 15.8h.656l-.016-.179-.638.005-6.489-2.231Zm6.567 3.228.585-.037.014-.568-.591.028-6.793-2.342v.549Zm5.954-2.302a1.491 1.481 90 0 0 .264.276 4.4 4.4 0 0 0 .153.128l.282-.237a1.628 1.616 90 0 1-.22-.179l-.58-.141c.037.053.068.104.101.153"/></svg>