<svg xmlns="http://www.w3.org/2000/svg" fill="#44739e" viewBox="0 0 24 24"><path d="M17.175 12.998v-.568l-1.752 1.269.212-.002.262.066.176.081zm.708 2.493.053.938.746.216 2.331-2.491v-.856l-2.393 2.284-.019-.006-.963-.286.066.139.178.035zm-.858-1.028.116.116.192.231 1.214.385 2.431-2.222-2.726-.737-.696-.036-.21.155.802.018 2.142.621-.048.042-2.054 1.774-1.255-.433zM5.917 12.217l-.181-.106-.036.256Zm-.156-.245.212.121.404-.211-.678-.411.032.137.019.144zm-.881-1.916.004.003.1.09.124.129.129.164.151.266 1.62-.703 1.703.709.913-.462-1.512-.681-1.229-.336Zm3.354-.766-1.402-.372-2.304.951.146.103 2.203-.914 1.28.343 1.66.736.166-.075zm7.106 6.91.079.073.849.8v-.011l.049.045a1.575 1.575 0 0 0-.1-1.154l-.042.012-.006-.014-.838.237zm-.726-1.328-.014-.032c-.4.1-.606.369-.631.9l1.122.335v-.008l-.468-1.206zm-.514 1.434v.009h-.052a1.653 1.653 0 0 0 .592.942l.019-.042.315-.717.112-.249v-.011zm1.155.046-.125 1.23-.005.048c.264.118.82.057.94-.136l-.529-.738zm-.078-1.489v.029l.109 1.183v-.005.011l.657-.572a1.486 1.486 0 0 0-.766-.646m1.774-.263c-.809-.812-1.823-1.165-2.7-.431l-.561.47a1.178 1.178 0 0 0-.347.892 3.083 3.083 0 0 0 .555 1.843 1.77 1.77 0 0 0 .313.334 2.048 2.048 0 0 0 1.634.677 1.4 1.4 0 0 0 .257-.055 1.5 1.5 0 0 0 .506-.256l.259-.2a5.3 5.3 0 0 0 .417-.383c.236-.293.559-.32.393-1.589a2.53 2.53 0 0 0-.726-1.302m-1.323 3.24c-.848.136-1.963-.985-1.79-2.317a.983.983 0 0 1 .982-.86c.738-.036 1.665.955 1.711 1.994a1.038 1.038 0 0 1-.903 1.181zM4.355 12.608a1.4 1.4 0 0 0-.078-.952l-.668.2zm-.87-1.855.086 1 .5-.471a1.16 1.16 0 0 0-.586-.529m-.918.728.854.275-.374-1.022c-.304.078-.461.304-.48.747m.512 1.249.342-.829-.793.052a1.38 1.38 0 0 0 .451.777m.37.306c.2.1.625.047.716-.112l-.616-.932Zm.082-3.275s-.915.378-.986.445a1.735 1.735 0 0 0-.527 1.206 2.657 2.657 0 0 0 .59 1.613 1.7 1.7 0 0 0 1.464.671.616.616 0 0 0 .283-.083l.754-.439a.49.49 0 0 0 .15-.13 2.054 2.054 0 0 0 .312-1.469 1.973 1.973 0 0 0-2.04-1.814m.766 3.2a.792.792 0 0 1-.468.244c-.646.112-1.494-.813-1.363-1.912a.84.84 0 0 1 .244-.5.766.766 0 0 1 .5-.211c.561-.03 1.268.788 1.3 1.645a1.024 1.024 0 0 1-.21.736Zm10.903.674 2.129-1.521v-.122l-2.322 1.672zm-.354-.035 2.461-1.77-.088-.2-6.127-1.706h-.414l-.413.208A1.62 1.62 0 0 0 10.494 9a1.574 1.574 0 0 0-1.637-1.429s-.734.3-.791.351a1.36 1.36 0 0 0-.423.952 1.7 1.7 0 0 0 .014.193l.351.093a1.5 1.5 0 0 1 0-.378.66.66 0 0 1 .2-.394.616.616 0 0 1 .423-.188c.45-.023 1.017.622 1.045 1.3a.97.97 0 0 1-.043.339l.515.228-.336.151-.012-.011-.3-.132-.026.023-.009.008.341.154-.143.048-.7.352a1.4 1.4 0 0 0 .216.019l-3.318 1.676.073.093 6.615 2.259h.781L14.7 13.6zm.135-.72-2.081-.589.237-.169 2.087.589zm.423-.327-2.06-.583.263-.187 2.06.582zm-4.63-2.437 5.8 1.6-.245.179-5.829-1.627Zm-.544.29 5.894 1.611-.254.181-2.047-.568.123-.087-2.362-.651-.133.079-1.5-.416zm2.038 1.523L11 12.7c.016.031.124.043.28.05l-.638.128.021-.35c.091.076.121.1.179.106l.813-.634-.594-.215.882-.6.464.118-.779.407zm-2.585-1.253 1.537.435-.3.176-1.552-.439zm-.6.3 1.6.451-.266.158-1.632-.462zm-.586.292 1.645.478-.33.2-1.68-.485zm-.644.328 1.715.491-.307.182-1.733-.51zm4.966 2.793L6.482 12.3l.311-.144 6.346 2.027zm.517-.383-6.324-1.97.295-.144 1.723.515-.179.106 2.567.821.211-.15 2.034.608zm.551-.375-2.041-.6.291-.207 2.052.588zm-1.538-.958.285-.2 2.071.6-.29.2zm-6.457.044 6.681 2.392h.676l-.017-.188-.656.004L5.9 12.576l-.077-.078v.151zm7.303 2.544-.607.03-6.989-2.467v.578l6.981 2.496.601-.037zm5.511-1.787a1.56 1.56 0 0 0 .271.291c.055.049.106.092.158.135l.289-.25a1.76 1.76 0 0 1-.222-.188l-.6-.149c.036.055.07.109.104.161m3.272-1.28a2.2 2.2 0 0 0-.627-1.131c-.7-.706-1.578-1.013-2.34-.374-.051.043-.47.394-.485.408a1.027 1.027 0 0 0-.3.775c0 .105 0 .2.013.295h.025l.386.1a1.86 1.86 0 0 1 .008-.407.851.851 0 0 1 .849-.747c.64-.032 1.443.83 1.483 1.733v.053l.131.035-.139.128a1.14 1.14 0 0 1-.044.209l.148-.141v.924l.194-.15a4.7 4.7 0 0 0 .361-.333c.202-.25.481-.271.337-1.377m-2.493 1.267.41-.36-1.771-.527h-.817v.342z"/></svg>