<svg xmlns="http://www.w3.org/2000/svg" viewBox="0 0 24 24"><path fill="#44739e" d="M17.673 12.021v-.625l-1.927 1.396.233-.002.288.073.194.089Zm.779 2.743.058 1.031.821.238 2.564-2.74v-.942l-2.633 2.513-.02-.007-1.06-.315.073.153.196.039Zm-.944-1.131.128.127.211.254 1.335.424 2.674-2.444-2.998-.811-.766-.04-.231.171.882.02 2.356.683-.052.046-2.26 1.951-1.38-.476ZM5.289 11.162l-.199-.116-.04.281Zm-.172-.269.234.133.444-.232-.746-.452.035.15.021.159Zm-.969-2.108.005.003.11.099.136.142.142.181.166.292 1.782-.773 1.873.78 1.005-.508-1.664-.75-1.351-.369Zm3.69-.843-1.543-.409-2.534 1.046.161.114 2.423-1.006 1.408.377 1.826.81.183-.082Zm7.816 7.601.087.081.934.88v-.012l.054.049a1.733 1.733 0 0 0-.11-1.269l-.046.013-.007-.015-.921.26Zm-.798-1.46-.016-.036c-.44.11-.666.406-.694.99l1.235.369v-.009l-.515-1.326Zm-.566 1.577v.01h-.057a1.818 1.818 0 0 0 .651 1.036l.021-.046.347-.789.123-.274v-.012Zm1.271.051-.138 1.353-.005.053c.29.129.902.062 1.034-.15l-.582-.812Zm-.086-1.638v.032l.12 1.301V15.4v.013l.723-.63a1.635 1.635 0 0 0-.843-.71m1.952-.29c-.89-.893-2.006-1.281-2.97-.474l-.618.517a1.296 1.296 0 0 0-.381.982 3.39 3.39 0 0 0 .61 2.027 1.95 1.95 0 0 0 .344.367 2.253 2.253 0 0 0 1.798.745 1.54 1.54 0 0 0 .283-.06 1.65 1.65 0 0 0 .556-.282l.285-.22a5.8 5.8 0 0 0 .459-.421c.259-.323.615-.352.432-1.748a2.783 2.783 0 0 0-.798-1.433m-1.456 3.565c-.933.149-2.159-1.084-1.969-2.549a1.081 1.081 0 0 1 1.08-.946c.812-.04 1.832 1.05 1.883 2.193a1.142 1.142 0 0 1-.994 1.299Zm-12.4-5.756a1.54 1.54 0 0 0-.086-1.047l-.735.22Zm-.957-2.04.094 1.1.55-.518a1.276 1.276 0 0 0-.644-.582m-1.01.801.939.302-.411-1.124c-.334.086-.507.334-.528.822m.563 1.373.376-.911-.872.057a1.518 1.518 0 0 0 .496.854m.407.337c.22.11.688.052.788-.123l-.678-1.025Zm.09-3.603s-1.006.416-1.084.49A1.91 1.91 0 0 0 1 10.277a2.923 2.923 0 0 0 .649 1.774 1.87 1.87 0 0 0 1.61.738.68.68 0 0 0 .312-.091l.829-.483a.54.54 0 0 0 .165-.143 2.26 2.26 0 0 0 .343-1.616A2.17 2.17 0 0 0 2.664 8.46m.843 3.521a.87.87 0 0 1-.515.268c-.71.123-1.643-.894-1.499-2.103a.924.924 0 0 1 .268-.55.843.843 0 0 1 .55-.232c.617-.033 1.395.866 1.43 1.809a1.126 1.126 0 0 1-.231.81Zm11.993.741 2.342-1.673v-.134l-2.554 1.839Zm-.389-.039 2.707-1.947-.097-.22-6.739-1.876h-.456l-.454.229a1.782 1.782 0 0 0 .252-1.246 1.731 1.731 0 0 0-1.801-1.572s-.807.33-.87.387a1.496 1.496 0 0 0-.465 1.047 1.9 1.9 0 0 0 .015.212l.386.102a1.65 1.65 0 0 1 0-.415.726.726 0 0 1 .22-.434.678.678 0 0 1 .465-.207c.495-.025 1.119.685 1.15 1.43a1.07 1.07 0 0 1-.047.373l.566.251-.369.166-.014-.012-.33-.145-.028.025-.01.009.375.169-.157.053-.77.387a1.54 1.54 0 0 0 .237.021l-3.65 1.844.081.102 7.276 2.485h.859l1.507-1.218Zm.149-.792-2.29-.647.261-.186 2.296.648Zm.465-.359-2.266-.642.289-.205 2.266.64Zm-5.093-2.681 6.38 1.76-.27.197-6.412-1.79Zm-.599.319 6.484 1.772-.28.199-2.251-.625.135-.095-2.598-.716-.147.086-1.65-.457Zm2.242 1.675-1.395.848c.018.035.137.048.308.055l-.701.141.023-.385c.1.084.133.11.197.117l.894-.698-.654-.236.971-.66.51.13-.857.447ZM9.432 9.467l1.69.479-.33.193-1.707-.483Zm-.66.33 1.76.496-.293.174-1.795-.508Zm-.645.321 1.81.526-.363.22-1.848-.533Zm-.708.361 1.886.54-.338.2-1.906-.561Zm5.462 3.072L5.91 11.253l.343-.158 6.98 2.23Zm.569-.421-6.957-2.167.325-.158 1.895.566-.197.117 2.824.903.232-.165 2.238.669Zm.606-.412-2.245-.66.32-.228 2.257.647Zm-1.692-1.054.314-.22 2.278.66-.319.22Zm-7.103.048 7.35 2.631h.743l-.018-.206-.722.004-7.344-2.584-.084-.086v.166Zm8.034 2.799-.668.033-7.688-2.714v.636l7.679 2.745.661-.04Zm6.062-1.966a1.72 1.72 0 0 0 .298.32c.061.054.117.101.174.148l.318-.275a1.94 1.94 0 0 1-.244-.206l-.66-.164c.039.06.077.12.114.177m3.599-1.408a2.42 2.42 0 0 0-.689-1.244c-.77-.777-1.736-1.115-2.574-.412-.057.048-.517.434-.534.449a1.13 1.13 0 0 0-.33.853c0 .115 0 .22.014.324h.028l.424.11a2.05 2.05 0 0 1 .009-.448.936.936 0 0 1 .934-.821c.704-.035 1.588.913 1.632 1.906v.058l.144.039-.153.141a1.25 1.25 0 0 1-.049.23l.163-.156v1.017l.214-.165a5.2 5.2 0 0 0 .397-.366c.222-.275.529-.299.37-1.515m-2.742 1.394.451-.396-1.948-.58h-.899v.376Z"/></svg>