<svg xmlns="http://www.w3.org/2000/svg" viewBox="0 0 24 24"><path fill="#44739e" d="M16.374 14.234h-.067a.126.125 90 0 0-.126.126v.967h.319v-.967a.127.126 90 0 0-.126-.126m-.973-.641a.127.126 90 0 0-.124-.127h-.067a.126.125 90 0 0-.126.127v.967h.319Zm-2.946-2.221h-.067a.127.126 90 0 0-.126.126v.967h.319v-.967a.126.125 90 0 0-.126-.126m-.972-.641a.126.125 90 0 0-.126-.127h-.067a.127.126 90 0 0-.126.127v.967h.319ZM8.825 8.643h-.068a.128.127 90 0 0-.127.126v.968h.32v-.968a.127.126 90 0 0-.125-.126m-.974-.64a.127.126 90 0 0-.126-.127h-.067a.128.127 90 0 0-.126.127v.968h.319ZM2.18 5.502c-.018-.205-.446-.306-.671-.706a.389.387 90 0 1-.026-.285c.054-.209.302-.314.413-.348.643-.201 1.26-.423 1.909-.602a5.636 5.609 90 0 0 1.98-.818c.471-.352 1.045-1.433.941-1.603-.059-.097-.47-.01-.493.183a1.311 1.305 90 0 1-.607.954 4.382 4.361 90 0 1-1.92.882 11.119 11.066 90 0 0-2.179.697.938.934 90 0 0-.525.699.675.671 90 0 0 .077.366 1.664 1.656 90 0 0 .846.814Zm1.906 1.581.487.37a.138.137 90 0 0 .155.006l1.443-.895a.132.132 90 0 0 0-.221l-.478-.33a.14.139 90 0 0-.148 0l-.051.029.401.281.087.267-1.273.785-.558-.415c-.064-.049.027-.087.096-.128l.263-.202-.413.246a.131.131 90 0 0-.011.207m.78-2.864L2.221 5.933a.512.509 90 0 0-.035.835l17.275 13.426a.509.507 90 0 0 .658-.029l2.509-2.341a.513.51 90 0 0-.043-.785L5.444 4.238a.509.507 90 0 0-.578-.019m15.458 12.046 1.032.794-.329.315-1.044-.814Zm-.609.521 1.033.795-.33.314-1.044-.815Zm-.688.588 1.033.794-.329.314-1.046-.813Zm-.688.612 1.033.794-.329.315-1.046-.814Zm-4.049-3.908a1.382 1.376 90 0 1 1.712-.882 1.382 1.376 90 0 1 1.191 1.524 1.038 1.034 90 0 1-.122.307.998.993 90 0 0-.483-.639v1.03h-.489v-1.053a.213.212 90 0 1 .1-.18 2.554 2.542 90 0 0-.385-.117 2.474 2.462 90 0 0-.324-.049v.631h-.489v-.619a1.015 1.01 90 0 0-.729.382 1.048 1.043 90 0 1 .018-.335m-3.869-2.895a1.381 1.375 90 0 1 1.714-.882 1.381 1.375 90 0 1 1.189 1.523 1.026 1.022 90 0 1-.122.307 1.041 1.036 90 0 0-.542-.677.18.18 90 0 1 .007.049v1.053h-.489v-1.053a.213.212 90 0 1 .165-.207 2.587 2.575 90 0 0-.774-.177v.669h-.49v-.649a.983.979 90 0 0-.676.375 1.046 1.041 90 0 1 .018-.331M8.577 7.584a1.38 1.374 90 0 1 1.189 1.523 1.007 1.002 90 0 1-.121.308 1.102 1.097 90 0 0-.622-.727.22.219 90 0 1 .012.081v1.053h-.489V8.769a.211.209 90 0 1 .191-.211 2.548 2.536 90 0 0-.8-.161v.662h-.489v-.621a.932.927 90 0 0-.602.359 1.015 1.01 90 0 1 .018-.33 1.382 1.376 90 0 1 1.713-.883M6.013 5.578l.742.528a.213.212 90 0 1-.008.352L4.508 7.887a.213.212 90 0 1-.242-.01l-.757-.587a.213.212 90 0 1 .019-.349l2.253-1.369a.22.219 90 0 1 .232.006m14.189 14.693a.605.602 90 0 1-.779.035L1.826 6.628l-.007 2.315L19.608 22.9l2.979-2.866.413-2.372Z"/></svg>