<svg xmlns="http://www.w3.org/2000/svg" fill="#44739e" viewBox="0 0 24 24"><path d="M3.077 6.139c-.016-.186-.406-.278-.611-.641a.35.35 0 0 1-.023-.259c.048-.189.275-.284.375-.315.587-.182 1.148-.384 1.741-.547a5.1 5.1 0 0 0 1.8-.741c.429-.319.952-1.3.857-1.454-.054-.088-.428-.009-.45.166a1.189 1.189 0 0 1-.552.865 3.98 3.98 0 0 1-1.75.8 10.14 10.14 0 0 0-1.986.634.85.85 0 0 0-.478.629.624.624 0 0 0 .071.332 1.505 1.505 0 0 0 .771.738Zm3.026.479-.106-.073-.791.606Zm-1.284.955.443.335a.127.127 0 0 0 .142.006l1.31-.814a.12.12 0 0 0 0-.2l-.434-.3a.126.126 0 0 0-.136 0l-.044.018.366.254.079.242-1.16.713-.51-.377c-.057-.044.026-.079.089-.116l.239-.183-.376.223a.119.119 0 0 0-.008.199m.706-2.598L3.114 6.53a.463.463 0 0 0-.032.756l15.745 12.18a.462.462 0 0 0 .6-.027l2.285-2.123a.465.465 0 0 0-.039-.712L6.053 4.992a.464.464 0 0 0-.528-.017m.854 4.245-.527-.408.348-.244.5.384Zm13.232 6.686.941.72-.3.285-.953-.738zm-.555.472L20 17.1l-.3.286-.953-.739Zm-.627.533.941.721-.3.285-.953-.738zm-.628.556.941.72-.3.286-.952-.739zm-2.459-4.454.316.258-.509.417-.336-.261zm-.821 1.772.5.385-.319.268-.526-.408zm-1.632-1.234.5.384-.319.268-.527-.408zm-1.029-3.115.317.258-.509.417-.337-.261zM10.9 12.1l.5.385-.319.267-.527-.408zm-1.526-1.155.5.385-.319.268-.526-.408ZM8.653 8.1l.312.255-.551.382-.336-.26Zm-.49 1.894-.319.268-.527-.408.343-.244ZM6.571 6.208l.677.479a.193.193 0 0 1-.008.319L5.2 8.3a.189.189 0 0 1-.22-.01l-.691-.531a.192.192 0 0 1 .018-.317L6.36 6.2a.2.2 0 0 1 .211.008m12.908 13.399a.548.548 0 0 1-.709.032L2.731 7.232l-.007 2.1 16.214 12.66 2.715-2.6.376-2.151z"/></svg>