<svg xmlns="http://www.w3.org/2000/svg" fill="#44739e" viewBox="0 0 24 24"><path d="M3.063 6.072c-.017-.186-.407-.278-.612-.641a.355.355 0 0 1-.023-.259c.049-.189.275-.284.376-.315.586-.182 1.148-.384 1.74-.547a5.09 5.09 0 0 0 1.805-.741c.429-.319.952-1.3.857-1.454-.054-.088-.428-.009-.449.166a1.189 1.189 0 0 1-.553.865 3.966 3.966 0 0 1-1.75.8 10.16 10.16 0 0 0-1.986.634.851.851 0 0 0-.479.634.614.614 0 0 0 .07.332 1.51 1.51 0 0 0 .771.738Zm2.128 1.012.897-.533-.105-.073Zm-.391.422.444.335a.125.125 0 0 0 .141.006L6.7 7.031a.12.12 0 0 0 0-.2l-.435-.3a.127.127 0 0 0-.135 0l-.047.028.366.254.079.242-1.16.713-.509-.377c-.058-.044.025-.079.088-.116l.239-.183-.376.223a.119.119 0 0 0-.01.191m.711-2.599L3.1 6.463a.463.463 0 0 0-.032.756L18.813 19.4a.464.464 0 0 0 .6-.027l2.287-2.124a.465.465 0 0 0-.039-.712L6.038 4.925a.464.464 0 0 0-.527-.018M19.6 15.839l.941.72-.3.285-.952-.738zm-.555.472.941.72-.3.286-.952-.739zm-.627.533.941.721-.3.285-.953-.739zm-.627.556.941.72-.3.285-.953-.738zm-.979-2.633-.662.545-.162-.133.677-.52zM16 14.155l.147.108-.662.544-.162-.133zm-3.57-2.668-.663.544-.161-.133.677-.519zm-.807-.612.147.108-.662.544-.162-.133zm-3.148-2.35-.663.545-.161-.134.677-.519Zm-.66-.5-.662.544-.162-.133.677-.519ZM6.556 6.141l.677.479a.193.193 0 0 1-.008.319l-2.04 1.3a.191.191 0 0 1-.221-.01l-.69-.529a.193.193 0 0 1 .017-.317l2.054-1.25a.2.2 0 0 1 .211.008M19.465 19.54a.55.55 0 0 1-.71.032L2.716 7.165l-.006 2.1 16.213 12.66 2.716-2.6.376-2.151z"/></svg>