<svg xmlns="http://www.w3.org/2000/svg" viewBox="0 0 24 24"><path fill="#44739e" d="M2.184 5.487c-.017-.204-.446-.305-.671-.704a.384.384 0 0 1-.025-.285c.053-.207.302-.311.412-.345.645-.2 1.261-.422 1.912-.601a5.6 5.6 0 0 0 1.977-.814c.471-.351 1.046-1.428.941-1.597-.059-.097-.47-.01-.494.182a1.306 1.306 0 0 1-.606.95 4.37 4.37 0 0 1-1.922.879 11.14 11.14 0 0 0-2.182.696.934.934 0 0 0-.525.691.685.685 0 0 0 .078.365 1.653 1.653 0 0 0 .847.81Zm3.324.526-.117-.08-.868.665Zm-1.41 1.049.486.368a.139.139 0 0 0 .156.007l1.439-.895a.132.132 0 0 0 0-.219l-.477-.33a.138.138 0 0 0-.149 0l-.048.02.402.279.086.266-1.274.783-.56-.414c-.062-.048.029-.087.098-.128l.262-.201-.413.245a.131.131 0 0 0-.008.219m.775-2.853L2.225 5.916a.509.509 0 0 0-.035.831l17.293 13.377a.507.507 0 0 0 .659-.029l2.51-2.332a.511.511 0 0 0-.043-.782L5.453 4.227a.51.51 0 0 0-.58-.018m.938 4.662-.579-.448.382-.268.55.422Zm14.533 7.343 1.034.791-.33.313-1.046-.81Zm-.609.519 1.036.793-.329.314-1.047-.812Zm-.689.585 1.034.792-.33.313-1.047-.81Zm-.69.611 1.034.791-.33.314-1.045-.812Zm-2.701-4.892.348.283-.56.458-.369-.286Zm-.901 1.946.549.423-.351.294-.577-.448Zm-1.793-1.355.549.422-.35.294-.579-.448Zm-1.13-3.421.348.283-.559.458-.37-.287Zm-1.054 1.827.549.423-.351.293-.578-.448Zm-1.676-1.268.549.422-.351.295-.577-.448Zm-.792-3.125.342.28-.605.419-.369-.285Zm-.539 2.08-.35.294-.579-.448.377-.268ZM6.022 5.563l.744.526a.212.212 0 0 1-.009.35L4.516 7.86a.208.208 0 0 1-.242-.01l-.758-.584a.211.211 0 0 1 .019-.348L5.79 5.554a.22.22 0 0 1 .232.009m14.177 14.716a.602.602 0 0 1-.778.036L1.804 6.687l-.007 2.307 17.808 13.905 2.982-2.856.413-2.362Z"/></svg>