<svg xmlns="http://www.w3.org/2000/svg" fill="#44739e" viewBox="0 0 24 24"><path d="M16.0049 13.981h-.0607a.1135.114 0 0 0-.1145.115v.877h.2897v-.877a.1145.115 0 0 0-.1145-.115m-.8828-.581a.1145.115 0 0 0-.1124-.115h-.0607a.1135.114 0 0 0-.1145.115v.877h.2896zM12.45 11.385h-.0607a.1145.115 0 0 0-.1145.115v.877h.2896V11.5a.1135.114 0 0 0-.1144-.115m-.8818-.581a.1135.114 0 0 0-.1144-.115h-.0608a.1145.115 0 0 0-.1144.115v.877h.2896zM9.1568 8.91H9.095a.1154.116 0 0 0-.1145.114v.878h.2896v-.878a.1145.115 0 0 0-.1134-.114m-.8828-.581a.1145.115 0 0 0-.1144-.115h-.0607a.1154.116 0 0 0-.1145.115v.878h.2896ZM3.1297 6.061c-.0169-.186-.405-.278-.609-.641a.3513.353 0 0 1-.023-.258c.0488-.19.2737-.285.3743-.316.5832-.182 1.1425-.384 1.7316-.546A5.0876 5.112 0 0 0 6.4 3.558c.427-.319.9475-1.3.853-1.454-.0538-.088-.426-.009-.447.166a1.1833 1.189 0 0 1-.5503.865 3.956 3.975 0 0 1-1.7416.8 10.0378 10.086 0 0 0-1.9765.633.847.851 0 0 0-.4768.634.609.612 0 0 0 .0697.332 1.5018 1.509 0 0 0 .7673.738zm1.7287 1.434.4419.335a.1244.125 0 0 0 .1403.006l1.3087-.812a.1194.12 0 0 0 0-.2l-.4329-.3a.1264.127 0 0 0-.1343 0l-.0468.027.3642.254.0787.243-1.1545.712-.5066-.377c-.0577-.044.025-.079.0876-.116l.2379-.183-.3742.223a.1184.119 0 0 0-.01.188m.7076-2.598L3.1665 6.452a.4618.464 0 0 0-.0318.757l15.6698 12.179a.4598.462 0 0 0 .5971-.027l2.276-2.123a.4628.465 0 0 0-.0387-.712L6.0905 4.914a.4598.462 0 0 0-.5245-.017m14.0217 10.927.9365.72-.2986.286-.9474-.739zm-.5523.472.9365.721-.2986.285-.9475-.739zm-.624.534.9365.72-.2986.285-.9485-.738zm-.624.555.9364.72-.2985.286-.9485-.739zM14.114 13.84a1.248 1.254 0 0 1 1.5535-.8 1.248 1.254 0 0 1 1.0798 1.382.9375.942 0 0 1-.1104.279.9007.905 0 0 0-.438-.58v.934h-.4438V14.1a.192.193 0 0 1 .0906-.163 2.306 2.317 0 0 0-.3494-.106 2.2333 2.244 0 0 0-.2936-.045v.573h-.4438v-.562a.9166.921 0 0 0-.6608.347.9465.951 0 0 1 .0159-.304m-3.5092-2.626a1.247 1.253 0 0 1 1.5546-.8 1.247 1.253 0 0 1 1.0788 1.381.9266.931 0 0 1-.1105.279.9395.944 0 0 0-.4916-.614.1602.161 0 0 1 .006.044v.955h-.4439v-.955a.192.193 0 0 1 .1503-.188 2.3358 2.347 0 0 0-.7026-.16v.607h-.444v-.589a.8877.892 0 0 0-.613.34.9445.949 0 0 1 .016-.3zm-1.673-3.265a1.246 1.252 0 0 1 1.0789 1.382.9086.913 0 0 1-.1095.279.9952 1 0 0 0-.5643-.659.199.2 0 0 1 .011.073v.955h-.444v-.955a.19.191 0 0 1 .1733-.191 2.3 2.311 0 0 0-.7256-.146v.6h-.4438v-.563a.841.845 0 0 0-.5454.326.9166.921 0 0 1 .016-.3 1.248 1.254 0 0 1 1.5535-.801M6.606 6.13l.6738.479a.192.193 0 0 1-.008.319L5.2416 8.224a.192.193 0 0 1-.22-.009l-.6867-.532a.192.193 0 0 1 .017-.317L6.396 6.124a.199.2 0 0 1 .21.006m12.8712 13.327a.5464.549 0 0 1-.7066.032L2.8082 7.0821l-.006 2.1 16.1356 12.66 2.703-2.6.3742-2.151z"/></svg>