<svg xmlns="http://www.w3.org/2000/svg" viewBox="0 0 24 24"><path fill="#44739e" d="M2.182 5.486c-.019-.204-.448-.305-.673-.704a.39.39 0 0 1-.025-.285c.054-.207.302-.312.413-.346.644-.199 1.261-.421 1.911-.6a5.59 5.59 0 0 0 1.983-.814c.471-.351 1.046-1.428.942-1.598-.06-.096-.471-.009-.494.183a1.306 1.306 0 0 1-.607.95 4.36 4.36 0 0 1-1.922.879 11.16 11.16 0 0 0-2.182.696.935.935 0 0 0-.526.697.674.674 0 0 0 .077.364 1.66 1.66 0 0 0 .847.811Zm2.337 1.112.985-.586-.115-.08Zm-.429.463.487.368a.137.137 0 0 0 .155.007l1.445-.896a.132.132 0 0 0 0-.22l-.478-.33a.14.14 0 0 0-.148 0l-.052.031.402.279.087.266-1.274.783-.56-.414c-.063-.048.028-.087.097-.127l.263-.201-.413.245a.131.131 0 0 0-.011.209m.781-2.855-2.649 1.71a.509.509 0 0 0-.035.83l17.296 13.381a.51.51 0 0 0 .659-.03l2.512-2.333a.511.511 0 0 0-.043-.782L5.45 4.226a.51.51 0 0 0-.579-.02m15.476 12.009 1.034.791-.33.313-1.045-.811Zm-.609.518 1.033.791-.329.315-1.046-.812Zm-.689.586 1.033.792-.329.313-1.047-.812Zm-.689.611 1.034.791-.33.313-1.047-.811Zm-1.075-2.893-.728.599-.178-.146.744-.571Zm-.892-.672.161.119-.727.597-.178-.146Zm-3.922-2.931-.728.598-.177-.146.744-.57Zm-.886-.672.161.119-.727.597-.178-.146ZM8.127 8.181l-.729.598-.177-.147.744-.57Zm-.725-.55-.728.598-.178-.146.744-.57ZM6.019 5.562l.743.526a.212.212 0 0 1-.009.35l-2.24 1.429a.21.21 0 0 1-.243-.011l-.758-.582a.212.212 0 0 1 .018-.348l2.257-1.373a.22.22 0 0 1 .232.009m14.18 14.718a.604.604 0 0 1-.78.036L1.8 6.687l-.006 2.307L19.603 22.9l2.984-2.856.413-2.363Z"/></svg>