<svg xmlns="http://www.w3.org/2000/svg" viewBox="0 0 24 24"><path fill="#44739e" d="M11.024 12.586a1.364 1.364 0 0 0 0-1.604.88.88 0 0 0-1.437 0 1.368 1.368 0 0 0 0 1.604.88.88 0 0 0 1.437 0m-1.071-.802c0-.324.186-.55.353-.55s.352.227.352.55-.186.55-.352.55-.353-.225-.353-.55m2.013 2.024a3.476 3.476 0 0 0 0-4.047 2.004 2.004 0 0 0-3.32 0 3.476 3.476 0 0 0 0 4.047 2.004 2.004 0 0 0 3.32 0m-2.825-.379a2.85 2.85 0 0 1 0-3.284 1.381 1.381 0 0 1 2.328 0 2.85 2.85 0 0 1 0 3.284 1.38 1.38 0 0 1-2.328 0m3.639 1.435a5.048 5.048 0 0 0 .99-3.08 5.06 5.06 0 0 0-.99-3.079 3.124 3.124 0 0 0-2.474-1.32 3.123 3.123 0 0 0-2.474 1.314 5.06 5.06 0 0 0-.989 3.08 5.048 5.048 0 0 0 .989 3.079 3.123 3.123 0 0 0 2.474 1.32 3.124 3.124 0 0 0 2.474-1.314m-5.308-3.08c0-2.081 1.271-3.772 2.834-3.772s2.834 1.691 2.834 3.772-1.271 3.773-2.834 3.773-2.834-1.688-2.834-3.773m4.713 5.402a4.85 4.85 0 0 0 1.513-1.274 6.606 6.606 0 0 0 1.372-4.128 6.61 6.61 0 0 0-1.372-4.129 4.84 4.84 0 0 0-1.513-1.272 3.967 3.967 0 0 0-3.757 0 4.83 4.83 0 0 0-1.514 1.272 6.61 6.61 0 0 0-1.371 4.129 6.606 6.606 0 0 0 1.371 4.128 4.84 4.84 0 0 0 1.514 1.274 3.967 3.967 0 0 0 3.757 0m-6.013-5.402c0-2.893 1.856-5.248 4.137-5.248s4.138 2.355 4.138 5.248-1.856 5.249-4.138 5.249-4.137-2.355-4.137-5.249m4.595 9.328c2.118.11 5.373.483 8.493.967a.704.704 0 0 0 .494-.064.119.119 0 0 0 .036-.104c-.165-1.694-.454-5.199-.53-9.65a58 58 0 0 1 .503-8.243c.179-1.499.308-2.582.047-2.691a4.19 4.19 0 0 0-1.285.167 39.8 39.8 0 0 1-7.117.808c-4.16.11-7.2-.054-7.972-.102l-.161-.011c-.073.122-.403 1.138-.49 9.59a35.53 35.53 0 0 0 .593 6.951c.163.855.33 1.513.451 1.947.079.282.14.469.167.55a16.9 16.9 0 0 1 3.206-.22c.923-.004 2.083.027 3.565.105m8.079-2.664a.26.26 0 1 1-.255-.312.288.288 0 0 1 .255.312m-.152-1.099a.26.26 0 1 1-.254-.313.288.288 0 0 1 .254.309Zm-.357-1.478a.32.32 0 1 1-.253.314.288.288 0 0 1 .253-.317ZM4.798 11.866c0-3.663 2.47-6.642 5.508-6.642s5.508 2.979 5.508 6.642-2.471 6.642-5.508 6.642-5.508-2.98-5.508-6.642m6.693-9.993a39.87 39.87 0 0 0 7.097-.807L18.93 1l-14.979.671a.58.58 0 0 0-.308.11c.922.051 3.873.197 7.848.092m9.631.375a.577.577 0 0 0-.605-.575l-.23.01c.26.238.154 1.126-.042 2.773a58 58 0 0 0-.502 8.226c.076 4.448.364 7.95.529 9.641a.243.243 0 0 1-.073.205.588.588 0 0 1-.39.11 1.4 1.4 0 0 1-.206-.016c-3.117-.482-6.367-.852-8.482-.964a28.93 28.93 0 0 0-6.759.11.58.58 0 0 0 .377.174l15.327 1.056a1.079 1.079 0 0 0 1.152-1.082Z"/></svg>