<svg xmlns="http://www.w3.org/2000/svg" viewBox="0 0 24 24"><path fill="#44739e" d="m15.23 18.313-1.746 3.036-1.092-3.032H10.92l1.588 4.169a.645.645 0 0 0 .55.312h.77a.636.636 0 0 0 .555-.319l2.215-3.945v-.219Zm-.99 4.079a.465.465 0 0 1-.408.233h-.77a.473.473 0 0 1-.409-.231l-1.487-3.905h1.108l1.173 3.266 1.887-3.266h1.1ZM4.876 18.31h-2.75a.99.99 0 0 0-1.123 1.055v2.212c0 .569.135 1.222 1.19 1.222h3.835v-1.026H2.859c-.44 0-.44-.118-.44-.22v-.447h3.63v-1.737c-.001-.712-.384-1.059-1.173-1.059m.998 2.626H2.245v.616c0 .21.081.391.611.391h3.002v.685H2.195c-.852 0-1.02-.427-1.02-1.051v-2.208c0-.64.402-.88.953-.88h2.75c.739 0 1.002.315 1.002.89ZM4.476 19.17h-1.87c-.256 0-.363.145-.363.298v.781h2.606v-.781c0-.276-.163-.298-.373-.298m.204.907H2.418v-.609c0-.084.065-.127.193-.127h1.87c.203 0 .203.014.203.127Zm5.834-.488a1.22 1.22 0 0 0 .308-.351 1.51 1.51 0 0 0 .068-.614v-.311H6.343v1.026h2.611c-.696.65-2.303 2.155-2.454 2.309a1.1 1.1 0 0 0-.302.979v.166h4.765v-.98H8.147c.664-.618 2.152-2.004 2.367-2.224m.28 2.394v.641H6.365c-.009-.498.027-.605.259-.862.185-.193 2.759-2.593 2.759-2.593h-2.87v-.68h4.206a1.94 1.94 0 0 1-.052.686 1.11 1.11 0 0 1-.27.297c-.242.249-2.683 2.517-2.683 2.517Zm9.392-.169c.671-.624 2.179-2.03 2.362-2.218a1.24 1.24 0 0 0 .313-.356 1.51 1.51 0 0 0 .07-.62v-.307h-4.548v1.026h2.609c-.696.65-2.303 2.155-2.454 2.309a1.107 1.107 0 0 0-.303.979v.166H23v-.98Zm2.648.811h-4.428c-.01-.498.026-.605.258-.862.185-.189 2.759-2.594 2.759-2.594h-2.87v-.68h4.207a1.94 1.94 0 0 1-.054.686 1.12 1.12 0 0 1-.268.297c-.242.249-2.684 2.517-2.684 2.517h3.08Zm-6.23-4.094v4.263h1.447v-4.481h-1.325Zm.169-.047h1.108v4.141h-1.108Zm-3.199-5.642a2.95 2.95 0 0 0 1.353-1.593 6.7 6.7 0 0 0 .228-.966 5.4 5.4 0 0 0 .059-1.215l-.059.024a1.94 1.94 0 0 0-.763.6 5.896 5.896 0 0 0-.818 3.15m1.579 4.848c1.054.585 2.387.086 3.617-1.512 1.54-2.004.704-4.233-.409-5.663a4.7 4.7 0 0 0-1.332-1.191 5.3 5.3 0 0 1-.236 1.886 5.84 5.84 0 0 1-1.64 2.466 4.72 4.72 0 0 1-1.523.88 5.236 5.236 0 0 0 .776 2.473 2.5 2.5 0 0 0 .747.661m0-4.521a5.59 5.59 0 0 0 1.289-2.079 5 5 0 0 0 .211-1.95 2.05 2.05 0 0 0-1.203-.144 6.18 6.18 0 0 1-.297 2.333v.01a3.173 3.173 0 0 1-1.589 1.784c-.006.351 0 .704.03 1.049a4.4 4.4 0 0 0 1.559-1.003M6.905 9.528a6.21 6.21 0 0 1 1.623-3.365 5.7 5.7 0 0 1 .466-.44 5.83 5.83 0 0 1 1.731-1.001 5.236 5.236 0 0 0-.66-2.378 2.68 2.68 0 0 0-1.074-.955c-.983-.453-2.199-.097-3.362 1.18-1.643 1.8-.892 4.205.161 5.751a5.45 5.45 0 0 0 1.115 1.208m2.845.075a5.544 5.544 0 0 0 .973-3.091 4.49 4.49 0 0 0-1.65 1.98c-.029.064-.056.128-.082.191a3.52 3.52 0 0 0-.257 1.471 1.54 1.54 0 0 0 .262-.059 1.78 1.78 0 0 0 .754-.492M8.803 6.41a5.734 5.734 0 0 0-1.539 3.367 2.406 2.406 0 0 0 1.229.394 3.82 3.82 0 0 1 .357-1.785c.046-.101.093-.198.144-.293a4.557 4.557 0 0 1 1.749-1.88c.019-.367.022-.737 0-1.1A5.52 5.52 0 0 0 8.994 6.22c-.066.06-.13.125-.191.19m1.399 6.485a4.25 4.25 0 0 1-.532-.389 3.355 3.355 0 0 1-1.09-1.753 9.2 9.2 0 0 0-1.252.072 5.225 5.225 0 0 0 .941 2.09 4.07 4.07 0 0 0 1.401 1.05 5.335 5.335 0 0 0 2.246.501c.134 0 .266 0 .395-.014a3.16 3.16 0 0 0 .447-1.079 3.6 3.6 0 0 1-.583.047 4.13 4.13 0 0 1-1.973-.525m-.532-2.069a9.4 9.4 0 0 0-.845-.068 3.036 3.036 0 0 0 .845 1.417 3.487 3.487 0 0 0 2.505 1 3.16 3.16 0 0 0 .628-.061c.054-1.352-1.429-2.068-3.133-2.288m0 5.415a5.8 5.8 0 0 0 2.342-1.403h-.096a5.7 5.7 0 0 1-2.246-.468 4.48 4.48 0 0 1-1.689-1.223l-.008-.009a5.69 5.69 0 0 1-1.015-2.258c-.104.019-.206.04-.304.062-2.366.535-3.81 2.09-3.514 3.871.373 1.36 1.892 2.802 5.204 1.846.486-.133.927-.27 1.326-.418M14.093 4.72a3.74 3.74 0 0 1 .504.27 5.82 5.82 0 0 1 2.268 3.27c2.185-.781 4.043-2.852 3.816-4.27-.325-1.686-2.708-1.889-5.284-1.559a9.4 9.4 0 0 0-1.304.289 3.79 3.79 0 0 0-2.435 1.749 4.73 4.73 0 0 1 .831-.075 3.95 3.95 0 0 1 1.604.326m1.061 3.881a3.2 3.2 0 0 0-1.061-1.938 2.9 2.9 0 0 0-.433-.297 2.677 2.677 0 0 0-1.312-.343 2.92 2.92 0 0 0-.977.172c0 .049.011.097.017.147a2.924 2.924 0 0 0 2.705 2.213 5.32 5.32 0 0 0 1.061.046m-1.375-2.449a3.3 3.3 0 0 1 .314.199 3.386 3.386 0 0 1 1.308 2.231q.307-.029.626-.092c.167-.032.33-.073.501-.121a5.412 5.412 0 0 0-2.139-3.073 3.2 3.2 0 0 0-.296-.168 3.55 3.55 0 0 0-1.604-.363 4.47 4.47 0 0 0-1.003.12 3.11 3.11 0 0 0-.133 1.055 3.14 3.14 0 0 1 .99-.165 2.907 2.907 0 0 1 1.436.377"/></svg>