<svg xmlns="http://www.w3.org/2000/svg" fill="#44739e" viewBox="0 0 24 24"><path d="M12 9.7c-2.0492 0-3.0751 2.4774-1.6263 3.9263C11.8226 15.075 14.3 14.0493 14.3 12c.0028-1.2714-1.0286-2.3028-2.3-2.3m0 4.425c-1.899 0-2.8485-2.2968-1.5043-3.6378S14.1345 10.101 14.13 12c0 1.1762-.9538 2.1296-2.13 2.129zm6.817 1.845-.316-.86c-.482-.06-.91-.127-1.292-.2l-.6.624-.309-.834a4.42 4.42 0 0 1-2-1.062c1.6-.113 3.569-.873 7.207-3.792A9.78 9.78 0 0 0 19.676 6.5q-.4.48-.771.905l.167.938-.806-.227q-.411.443-.788.812l.152.852-.825-.231a5.1 5.1 0 0 1-2.282 1.293c.7-1.5 1.063-3.248.343-8.038A7.84 7.84 0 0 0 12 2.253a7.6 7.6 0 0 0-1.611.187q.25.492.465.935l1.348.334-.822.81c.173.4.32.764.442 1.1l.944.234-.656.647a4.865 4.865 0 0 1 .126 2.676c-.858-1.438-2.859-2.955-6.2-4.444a12.2 12.2 0 0 0-3.07 3.923c.493.031.949.065 1.372.1l.822-.871.267.985c.444.054.845.114 1.206.179l.726-.769.268.991a4.516 4.516 0 0 1 2.091 1.087c-1.6.112-3.57.87-7.214 3.791a9.75 9.75 0 0 0 1.822 3.346c.312-.376.611-.725.9-1.051l-.334-.91.964.215q.481-.513.918-.924l-.285-.777.931.207a4.755 4.755 0 0 1 2.061-1.11c-.7 1.508-1.067 3.252-.341 8.051a7.83 7.83 0 0 0 2.86.551 7.58 7.58 0 0 0 1.61-.187 45 45 0 0 1-.563-1.138l-1.015-.215.576-.745c-.243-.56-.432-1.052-.577-1.489l-.721-.152.492-.638a4.65 4.65 0 0 1-.044-2.372c.853 1.442 2.852 2.966 6.206 4.464a12.21 12.21 0 0 0 3.083-3.939c-.545-.034-1.046-.071-1.506-.113zm-6.784-1.4A2.567 2.567 0 1 1 14.6 12a2.566 2.566 0 0 1-2.567 2.566ZM12 11a1 1 0 1 0 1 1 1 1 0 0 0-1-1"/></svg>