<svg xmlns="http://www.w3.org/2000/svg" viewBox="0 0 24 24"><path fill="#44739e" d="M11.994 9.405c-2.313 0-3.471 2.796-1.836 4.431 1.636 1.635 4.432.477 4.432-1.835.003-1.435-1.161-2.599-2.596-2.596m0 4.994c-2.143 0-3.215-2.592-1.698-4.106s4.107-.436 4.102 1.708c0 1.327-1.077 2.403-2.404 2.402Zm7.694 2.082-.357-.97c-.544-.068-1.027-.144-1.458-.226l-.677.704-.349-.941a4.99 4.99 0 0 1-2.257-1.199c1.805-.127 4.028-.985 8.133-4.279a11.04 11.04 0 0 0-2.066-3.777q-.451.542-.87 1.022l.188 1.058-.909-.256q-.464.5-.89.916l.172.962-.931-.261a5.756 5.756 0 0 1-2.576 1.46c.79-1.693 1.2-3.666.387-9.072A8.85 8.85 0 0 0 11.994 1a8.58 8.58 0 0 0-1.818.211q.282.555.524 1.055l1.522.377-.928.914c.195.452.361.863.499 1.242l1.065.264-.74.73a5.49 5.49 0 0 1 .142 3.02c-.968-1.623-3.227-3.335-6.997-5.015a13.77 13.77 0 0 0-3.465 4.427c.556.035 1.071.074 1.548.113l.928-.983.301 1.112c.502.061.954.129 1.362.202l.819-.868.302 1.118a5.097 5.097 0 0 1 2.36 1.227c-1.805.127-4.029.982-8.141 4.279a11 11 0 0 0 2.056 3.776c.352-.424.689-.818 1.016-1.186l-.377-1.027 1.088.243q.542-.579 1.036-1.043l-.322-.877 1.051.233a5.37 5.37 0 0 1 2.326-1.252c-.79 1.702-1.204 3.67-.385 9.086a8.84 8.84 0 0 0 3.228.622 8.56 8.56 0 0 0 1.817-.211 51 51 0 0 1-.636-1.284l-1.145-.243.65-.841c-.274-.632-.488-1.187-.651-1.68l-.814-.172.555-.72a5.25 5.25 0 0 1-.049-2.677c.962 1.627 3.218 3.347 7.004 5.038a13.78 13.78 0 0 0 3.479-4.446c-.615-.038-1.18-.08-1.699-.127Zm-7.657-1.58a2.897 2.897 0 1 1 2.897-2.9 2.896 2.896 0 0 1-2.897 2.896Zm-.037-4.029a1.129 1.129 0 1 0 1.128 1.129 1.129 1.129 0 0 0-1.128-1.129"/></svg>