<svg xmlns="http://www.w3.org/2000/svg" viewBox="0 0 24 24"><path fill="#44739e" d="M12.98 5.004a.202.202 0 0 1-.183-.262 25.4 25.4 0 0 1 1.421-3.372.29.29 0 0 1 .317-.158 21.94 21.94 0 0 1 8.248 2.657.398.398 0 0 1 .214.399 22.106 22.106 0 0 1-9.592 18.001.203.203 0 0 1-.311-.094 26.5 26.5 0 0 1-1.042-3.5.321.321 0 0 1 .118-.361 18.13 18.13 0 0 0 6.768-11.962 18.11 18.11 0 0 0-5.964-1.348ZM5.731 9.467a14.92 14.92 0 0 1 4.509-1.268c.164-.026.233.089.213.22a28.7 28.7 0 0 0-.37 3.53.255.255 0 0 1-.238.251 11.36 11.36 0 0 0-2.561.834 18.26 18.26 0 0 0 2.878 3.787.836.836 0 0 1 .232.484 27.33 27.33 0 0 0 1.43 5.371.189.189 0 0 1-.015.22.206.206 0 0 1-.247 0A22.119 22.119 0 0 1 1.002 4.268a.417.417 0 0 1 .212-.404 22.17 22.17 0 0 1 11.311-2.795.195.195 0 0 1 .168.301 24.6 24.6 0 0 0-1.348 3.409.264.264 0 0 1-.271.208 18.22 18.22 0 0 0-6.014 1.36 18.6 18.6 0 0 0 .671 3.115v.011Z"/></svg>