<svg xmlns="http://www.w3.org/2000/svg" fill="#44739e" viewBox="0 0 24 24"><path d="M13.324 8.637a6.873 6.873 0 0 1 0 3.883c-.02.078 0 .08 0 .081h1.441a5.13 5.13 0 0 0 .4-2.051 6.2 6.2 0 0 0-.4-1.913zM12.31 12.6a5.13 5.13 0 0 0 .4-2.051 6.2 6.2 0 0 0-.4-1.913h-1.441a6.873 6.873 0 0 1 0 3.883c-.02.078 0 .08 0 .081zm-2.492 0a5.125 5.125 0 0 0 .4-2.051 6.23 6.23 0 0 0-.4-1.913H8.376a6.873 6.873 0 0 1 0 3.883c-.02.078 0 .08 0 .081zm-.101.493h-1.48a3.477 3.477 0 0 1-1.931 2.5c-.046.029.014.039.073.036a3.437 3.437 0 0 0 3.338-2.536m2.483 0h-1.486a3.479 3.479 0 0 1-1.93 2.5c-.047.029.013.039.073.036a3.438 3.438 0 0 0 3.343-2.536m-.915 2.496c-.047.029.014.039.073.036a3.437 3.437 0 0 0 3.342-2.532h-1.485a3.476 3.476 0 0 1-1.93 2.496M19.387 2.18H4.613A2.613 2.613 0 0 0 2 4.793v14.414a2.613 2.613 0 0 0 2.613 2.613h14.774A2.613 2.613 0 0 0 22 19.207V4.793a2.613 2.613 0 0 0-2.613-2.613m-1.323 17.032a1.226 1.226 0 0 1-1.226 1.226H4.76a1.226 1.226 0 0 1-1.227-1.226V4.881A1.226 1.226 0 0 1 4.76 3.655h12.078a1.226 1.226 0 0 1 1.226 1.226zm3.02-3.576h-1.757v-1.757h1.757zm0-2.758h-1.757v-1.756h1.757zm0-2.757h-1.757V8.364h1.757z" class="cls-1" data-name="Colore riempimento 1"/></svg>