<svg xmlns="http://www.w3.org/2000/svg" viewBox="0 0 24 24"><path fill="#44739e" d="m21.066 13.04 1.908-2.141h-2.182l-.803.918-.832-.918h-3.871v-.649h2.041V8.564H12.03v2.452a1.702 1.702 0 0 0-1.11-.354 2.098 2.098 0 0 0-1.343.473 2.295 2.295 0 0 0-.638.838 2.2 2.2 0 0 0-.706-.881 2.458 2.458 0 0 0-1.487-.44 2.431 2.431 0 0 0-1.896.797v-.55H2.954v-.649h2.074V8.564H1v6.638h1.954V12.52h1.398a2.75 2.75 0 0 0-.046.502 2.363 2.363 0 0 0 .71 1.727 2.483 2.483 0 0 0 1.734.67 2.51 2.51 0 0 0 1.43-.396 2.32 2.32 0 0 0 .77-.895 2.42 2.42 0 0 0 .48.684 2.132 2.132 0 0 0 1.507.624 1.58 1.58 0 0 0 1.094-.44v.209h7.066l.819-.926.825.926H23ZM6.75 11.869a.64.64 0 0 1 .638.412h-1.26a.672.672 0 0 1 .622-.412m.671 1.843-.04.055a.602.602 0 0 1-.631.308.746.746 0 0 1-.706-.609h2.702c.015.083.032.165.054.246Zm3.835.26a.839.839 0 0 1-.763-.919c0-.494.237-.99.763-.99.681 0 .734.76.734.99 0 .444-.192.919-.734.919m5.812.971h-3.282v-6.12h3.282v1.163h-2.041v1.166h2.041v1.11h-2.041v1.515h2.041Zm-1.782-1.431v-.996h2.041v-1.153l1.5 1.685-1.5 1.684v-1.21Zm4.631.37-.934 1.056h-1.497l1.687-1.894-1.687-1.892h1.554l.953 1.049.916-1.049h1.487l-1.678 1.887 1.702 1.904h-1.562Z"/></svg>