<svg xmlns="http://www.w3.org/2000/svg" fill="#44739e" viewBox="0 0 24 24"><path d="m20.1018 12.9694 1.734-1.946h-1.983l-.73.835-.757-.835h-3.519v-.59h1.856v-1.533h-4.816v2.229a1.547 1.547 0 0 0-1.009-.321 1.907 1.907 0 0 0-1.221.43 2.086 2.086 0 0 0-.58.761 2 2 0 0 0-.642-.8 2.235 2.235 0 0 0-1.351-.4 2.21 2.21 0 0 0-1.724.724v-.5h-1.724v-.59h1.886v-1.533h-3.662v6.035h1.776v-2.438h1.271a2.5 2.5 0 0 0-.042.456 2.148 2.148 0 0 0 .646 1.57 2.257 2.257 0 0 0 1.576.609 2.284 2.284 0 0 0 1.3-.36 2.107 2.107 0 0 0 .7-.813 2.2 2.2 0 0 0 .437.621 1.938 1.938 0 0 0 1.37.568 1.437 1.437 0 0 0 .994-.4v.19h6.424l.744-.842.75.842h2.054zm-13.015-1.064a.582.582 0 0 1 .58.374h-1.145a.611.611 0 0 1 .565-.374m.61 1.675-.036.05a.547.547 0 0 1-.574.28.678.678 0 0 1-.642-.553h2.457c.013.075.029.15.049.223zm3.487.237a.763.763 0 0 1-.694-.836c0-.449.215-.9.694-.9.619 0 .667.691.667.9 0 .404-.175.836-.667.836m5.283.882h-2.983v-5.563h2.983v1.057h-1.855v1.06h1.855v1.009h-1.855v1.377h1.855zm-1.62-1.3v-.906h1.856v-1.048l1.363 1.532-1.363 1.531v-1.1zm4.21.336-.849.96h-1.361l1.534-1.722-1.534-1.72h1.413l.866.954.833-.954h1.352l-1.526 1.716 1.548 1.73h-1.42z"/></svg>