<svg xmlns="http://www.w3.org/2000/svg" viewBox="0 0 24 24"><path fill="#44739e" d="M14.9058 1.1489c-1.8647 1.2927-3.0763 3.4651-3.2746 5.7169 1.4327-.1653 2.8933.3605 3.8735 1.4232.2984.3126 1.763 1.6791.5812.9687-.429-.2637-1.9082-.4618-1.7707-.184 2.4808 1.3116 2.858 5.0504.9125 6.9839-1.9225 1.9699-5.5204 1.6763-7.1684-.5066-.4927-.6942-1.104-1.6414-.7902-2.5017.7038-1.2811 2.272-1.5451 3.5958-1.6088.5452-.3 1.7802-1.2857.512-1.4992-1.0134-.4501-1.9329-1.0784-2.6843-1.8958-.9532-.5435-.1937-2.4909-.5311-2.791-.9606.3238-1.8378 1.538-2.5087 1.792-.5884-.6605-.043-2.2396-.471-2.495-2.4562 1.6253-3.8483 4.5387-3.9536 7.444-.0075-.4213.2367-1.7115.0439-.6336-.4395 3.8385 1.4927 7.8047 4.7047 9.9293 3.627 2.514 8.8034 2.4315 12.342-.2084 3.0972-2.1937 4.8855-6.1182 4.3888-9.898-.2486-2.1009-1.0356-4.3634-2.8795-5.5756.5308 1.0346.877 2.1554 1.0958 3.2952-.8659-2.8997-3.9012-5.1445-5.0758-7.1812-.3005-.4332-.324-1.2783-.9423-.5743m.356.0683c.4462 1.8324 4.066 4.6054 5.2864 7.4592.5305 1.3022.1883 2.6711-.3874 3.8975-.3658.7729-1.346 2.1188-1.759 2.2283.527-1.8368.0053-4.0628-1.3909-5.2435-.365-1.087-1.6054-1.8156-2.2581-2.9314-.9078-1.745-.7037-3.8818.509-5.4101"/></svg>