<svg xmlns="http://www.w3.org/2000/svg" fill="#44739e" viewBox="0 0 24 24"><path d="M12 2a10 10 0 1 0 10 10A10 10 0 0 0 12 2m1.876 18.839V6.979a5.25 5.25 0 0 0-.921-.252l-.072-.014v14.279q-.435.043-.885.043c-.3 0-.593-.014-.883-.043V6.713a5.37 5.37 0 0 0-.982.262h-.01v13.86a9.032 9.032 0 0 1-7-10.512v-.026c.011-.058.02-.116.033-.174.025-.119.054-.237.084-.354l.009-.039c.033-.127.069-.252.108-.377l.022-.053c.041-.132.086-.263.133-.393l.007-.022a9.006 9.006 0 0 1 3.067-4.112l.019-.014c.1-.077.208-.151.314-.223l.053-.036c.1-.064.195-.127.294-.188l.083-.051c.092-.055.186-.109.28-.161.035-.019.069-.039.1-.057.092-.05.185-.1.279-.143l.111-.055c.1-.046.2-.089.294-.132l.1-.044c.107-.045.216-.088.326-.128l.073-.028c.127-.046.254-.089.383-.129l.021-.007c.151-.047.3-.088.457-.127l.147-.037q.2-.047.4-.084c.079-.015.159-.028.238-.041l.185-.027c.171-.024.343-.043.517-.057h.064a8.7 8.7 0 0 1 1.061-.016h.018a9 9 0 0 1 1.125.122l.074.014c.089.016.179.028.268.047a9.034 9.034 0 0 1 0 17.673zm.19-17.411A8.85 8.85 0 0 0 12 3.181a8.829 8.829 0 0 0-2.072 17.4V17.7a6.079 6.079 0 0 1-3.992-5.518h3.992v-.672h-3.78a5.887 5.887 0 0 1 5.631-5.431 5.864 5.864 0 0 1 6.061 5.431h-3.766v.672h3.99a6.079 6.079 0 0 1-3.99 5.517v2.88q.293-.07.575-.16l.028-.009a8.824 8.824 0 0 0-.611-16.984Zm-8.5 7.2L3.8 10l.65-1.853.413.145L4.4 9.609l.34.118.437-1.24.413.145-.438 1.24.607.213Zm1.386-2.8L5.54 6.586l.366-.462L7.363 7.4Zm3.1-2.128-.071.041-.081.032-.2.1-.143.071-.239.1a9 9 0 0 0-.329.144l-.1.04-.1.035a.6.6 0 0 1-.2.057.53.53 0 0 1-.189-.02.344.344 0 0 1-.143-.094.67.67 0 0 1-.127-.192L8.068 5.9l.519-.239c.041.09.092.143.149.143a.29.29 0 0 0 .082-.012.85.85 0 0 0 .127-.049l.149-.063.38-.176.137-.063c.1-.047.137-.117.1-.205a.129.129 0 0 0-.166-.075l-.108.04-.108.043-.319.131-.155.062-.268.106-.113.047a1.3 1.3 0 0 1-.138.041.334.334 0 0 1-.372-.1.88.88 0 0 1-.131-.205A.98.98 0 0 1 7.725 5a.384.384 0 0 1 .12-.315 2.65 2.65 0 0 1 .613-.343l.254-.11.241-.105a1.65 1.65 0 0 1 .29-.106.83.83 0 0 1 .227-.028.343.343 0 0 1 .2.071.55.55 0 0 1 .156.2l.053.115-.519.239-.037-.059a.152.152 0 0 0-.143-.068h-.033a1 1 0 0 0-.117.043l-.143.06-.3.143-.137.063a.36.36 0 0 0-.1.063.119.119 0 0 0-.031.158.135.135 0 0 0 .164.079l.059-.016.061-.022L8.742 5l.487-.2.286-.117a.57.57 0 0 1 .114-.04 1.1 1.1 0 0 1 .123-.023c.195-.022.355.106.482.382l.019.033a.485.485 0 0 1-.201.658zm4.21.039-.827-.1-.773-.785-.241-.027-.078.685-.568-.063.215-1.869.568.065-.08.7.252.031.809-.613.811.094-1.156.813zm3.111 1.181-1.083-.9-.217.261 1.159.965-.278.337-1.6-1.332 1.2-1.441 1.588 1.32-.282.335-1.145-.965-.166.2 1.084.9Zm2.683 2.639c.023.059.037.1.043.122s.017.055.027.1a.444.444 0 0 1-.047.4.5.5 0 0 1-.1.1 1.2 1.2 0 0 1-.121.067 1.3 1.3 0 0 1-.131.058.764.764 0 0 1-.347.061.482.482 0 0 1-.278-.215.5.5 0 0 1-.049.332.71.71 0 0 1-.3.169l-.214.08-.205-.538.162-.065a.41.41 0 0 0 .2-.119.28.28 0 0 0-.02-.228l-.315-.853-.435.162-.2-.538L19.484 8Zm-.938.141.033.088a.35.35 0 0 0 .027.059.2.2 0 0 0 .034.045.23.23 0 0 0 .223 0 .215.215 0 0 0 .131-.107.253.253 0 0 0-.021-.175l-.053-.158-.271-.737-.409.153.276.75ZM8 16.255a5.83 5.83 0 0 0 1.924 1.193v-5.06H6.148A5.82 5.82 0 0 0 8 16.255m6.074-3.867v5.05a5.9 5.9 0 0 0 3.766-5.05zm-1.389 5.392v-5.392h-1.37v5.4a6.04 6.04 0 0 0 .894.036c.16-.011.319-.024.476-.044m-1.37-6.008v.387h1.37v-.654h-1.37zm.018 6.189v2.773a5.8 5.8 0 0 0 .684.027c.227 0 .456-.009.685-.027v-2.773a6.03 6.03 0 0 1-1.369 0"/></svg>