<svg xmlns="http://www.w3.org/2000/svg" viewBox="0 0 24 24"><path fill="#44739e" d="m11.658 14.818-.2-.027a1.87 1.87 0 0 0-.169-.431l.124-.154a.308.308 0 0 0-.018-.409l-.22-.22a.308.308 0 0 0-.41-.028l-.148.11a1.8 1.8 0 0 0-.45-.195l-.02-.194a.307.307 0 0 0-.303-.275h-.312a.307.307 0 0 0-.309.269l-.026.192a1.84 1.84 0 0 0-.465.191l-.154-.127a.307.307 0 0 0-.409.019l-.225.22a.307.307 0 0 0-.028.409l.132.17a1.8 1.8 0 0 0-.177.432l-.22.022a.308.308 0 0 0-.275.304v.312a.308.308 0 0 0 .269.31l.229.029a1.8 1.8 0 0 0 .163.399l-.148.182a.307.307 0 0 0 .019.409l.22.22a.308.308 0 0 0 .41.028l.183-.142a1.76 1.76 0 0 0 .41.179l.025.236a.308.308 0 0 0 .303.278h.312a.307.307 0 0 0 .309-.269l.029-.225a1.8 1.8 0 0 0 .44-.173l.172.14a.308.308 0 0 0 .41-.019l.22-.22a.31.31 0 0 0 .029-.41l-.132-.171a1.76 1.76 0 0 0 .187-.433l.204-.02a.307.307 0 0 0 .278-.304v-.312a.307.307 0 0 0-.259-.302M9.652 16.06a.813.813 0 1 1 .821-.803.813.813 0 0 1-.821.803m6.638-4.386-.309-.01a2.23 2.23 0 0 0-.258-.508l.165-.252a.306.306 0 0 0-.056-.406l-.388-.33a.308.308 0 0 0-.41.011l-.22.201a2.23 2.23 0 0 0-.572-.186l-.06-.296a.309.309 0 0 0-.33-.246l-.507.043a.309.309 0 0 0-.283.297l-.01.301a2.24 2.24 0 0 0-.549.288l-.257-.17a.308.308 0 0 0-.405.057l-.33.391a.309.309 0 0 0 .011.41l.22.239a2.34 2.34 0 0 0-.165.55l-.321.066a.31.31 0 0 0-.247.33l.043.508a.31.31 0 0 0 .298.282l.347.011a2.27 2.27 0 0 0 .245.468l-.194.293a.308.308 0 0 0 .059.406l.388.33a.308.308 0 0 0 .41-.011l.254-.238a2.24 2.24 0 0 0 .521.17l.07.348a.309.309 0 0 0 .33.246l.507-.043a.309.309 0 0 0 .283-.297l.011-.34a2.27 2.27 0 0 0 .522-.264l.279.184a.31.31 0 0 0 .407-.057l.33-.389a.308.308 0 0 0-.011-.409l-.226-.24a2.2 2.2 0 0 0 .177-.549l.309-.064a.31.31 0 0 0 .247-.33l-.043-.507a.309.309 0 0 0-.282-.288m-2.365 1.752a.996.996 0 1 1 .91-1.077.996.996 0 0 1-.914 1.075Zm7.533-3.255a3.91 3.91 0 0 0-2.859-1.105.454.454 0 0 1-.403-.288 5.842 5.842 0 0 0-5.195-3.548 5.847 5.847 0 0 0-5.269 3.711c-.128.289-.317.304-.591.296h-.087a4.253 4.253 0 0 0-3.952 3.237.55.55 0 0 1-.313.357 3.07 3.07 0 0 0-1.782 2.998 2.891 2.891 0 0 0 2.749 2.941h14.917a4.057 4.057 0 0 0 2.895-1.262 5.271 5.271 0 0 0-.11-7.337m-.44 6.802a3.3 3.3 0 0 1-2.349 1.033H7.443a2.742 2.742 0 0 1-1.152-2.189 2.697 2.697 0 0 1 1.546-2.633.928.928 0 0 0 .535-.602 3.881 3.881 0 0 1 3.586-2.968.919.919 0 0 0 1.024-.523 6.14 6.14 0 0 1 2.099-2.585A5.542 5.542 0 0 1 17.5 9.104a1.209 1.209 0 0 0 1.126.725 3.156 3.156 0 0 1 2.298.897 4.508 4.508 0 0 1 .094 6.247"/></svg>