<svg xmlns="http://www.w3.org/2000/svg" fill="#44739e" viewBox="0 0 24 24"><path d="M12.419 2.3025c1.964-.403 5.192-.403 7.159 0 1.94.397 1.88 1.03-.085 1.414-1.937.378-5.043.378-6.982 0-1.967-.384-2.029-1.017-.092-1.414m8.473 10.129c1.203-.337 1.893-.763 2.064-1.205a.57.57 0 0 0 .044-.222v-9.012c0-.075-.013-.15-.044-.221-.166-.426-.809-.838-1.946-1.17-2.752-.802-7.272-.802-10.024 0-1.132.332-1.776.744-1.942 1.17a.55.55 0 0 0-.044.221v9.012c0 .075.013.146.044.222.171.442.866.868 2.069 1.205 1.1.307 2.469.482 3.887.541v14.051c-2.927.113-5.279.708-5.86 1.476-.093.12-.14.247-.14.375v1.25c0 1.035 3.135 1.875 7 1.875s7-.84 7-1.875v-1.25c0-.943-2.609-1.723-6-1.853v-14.049c1.42-.058 2.791-.233 3.892-.541"/></svg>