<svg xmlns="http://www.w3.org/2000/svg" viewBox="0 0 24 24"><path fill="#44739e" d="M14.386 10.2a11.11 11.11 0 0 0-4.77 0L8.47 4.277a40.26 40.26 0 0 0 7.062 0Zm3.702-8.681a36 36 0 0 0-12.181 0c-3.3.684-3.19 1.772.156 2.431.142.027.303.047.449.073l1.486 7.683c.11.3.734.66 2.112.852v8.483a3.784 3.784 0 0 0-1.815.516.22.22 0 0 0-.075.154v.519c0 .427 1.693.77 3.781.77s3.782-.347 3.782-.77v-.516c0-.285-.77-.531-1.891-.665v-8.49c1.373-.195 1.969-.55 2.112-.852l1.486-7.683c.147-.026.312-.047.455-.074 3.342-.66 3.443-1.747.143-2.43"/></svg>