<svg xmlns="http://www.w3.org/2000/svg" viewBox="0 0 24 24"><path fill="#44739e" d="M13.374 23 9.13 10.855H7.988L3.74 23h.645l3.872-11.071V23h.604V11.934L12.729 23Zm-.577-20.508H4.321L6.694 9.41h3.73Zm6.14 7.011-.053-.192c1.109-.302 1.32-.631 1.354-.724a.21.21 0 0 0 .017-.084V2.198a.21.21 0 0 0-.016-.079c-.047-.117-.264-.416-1.272-.703a15.41 15.41 0 0 0-7.111 0c-.941.268-1.19.55-1.256.675h2.756l-.012.038a16.35 16.35 0 0 1 4.685.089c.81.161 1.187.379 1.186.686s-.398.535-1.249.696a14.45 14.45 0 0 1-2.552.203 14.5 14.5 0 0 1-2.552-.203h-.022l-1.832 5.354a4.25 4.25 0 0 0 .941.357 12.76 12.76 0 0 0 2.756.372l.191.008v10.218l-.191.008a15.8 15.8 0 0 0-1.917.18l.99 2.829c.5.047 1.048.074 1.642.074 2.956 0 4.84-.66 4.84-1.112v-.88c0-.396-1.43-.998-4.13-1.1l-.192-.007V9.69l.191-.008a12.8 12.8 0 0 0 2.759-.373l.053.194Z"/></svg>