<svg xmlns="http://www.w3.org/2000/svg" viewBox="0 0 24 24"><path fill="#44739e" d="M9.538 2.583c1.35-.277 3.57-.277 4.922 0 1.334.273 1.292.708-.059.972-1.331.26-3.467.26-4.8 0-1.352-.264-1.395-.699-.063-.972m5.825 6.964c.827-.232 1.302-.525 1.419-.829a.39.39 0 0 0 .031-.152V2.37c0-.052-.009-.103-.031-.152-.114-.293-.556-.576-1.338-.804-1.892-.552-4.999-.552-6.891 0-.778.228-1.221.511-1.335.804a.38.38 0 0 0-.031.152v6.196c0 .051.009.1.031.152.117.304.595.597 1.422.829.756.211 1.698.331 2.672.372v9.66c-2.012.078-3.629.487-4.028 1.015-.064.082-.097.17-.097.258v.859C7.187 22.422 9.343 23 12 23s4.813-.578 4.813-1.289v-.859c0-.649-1.794-1.185-4.125-1.274V9.919c.976-.04 1.918-.16 2.675-.372"/></svg>