<svg xmlns="http://www.w3.org/2000/svg" fill="#44739e" viewBox="0 0 24 24"><path d="M13.251 22 9.393 10.959H8.355L4.493 22h.586l3.52-10.065V22h.549V11.94L12.665 22Zm-.524-18.644H5.021l2.157 6.289h3.391zm5.581 6.374-.048-.175c1.008-.274 1.2-.573 1.231-.658a.19.19 0 0 0 .016-.076V3.089a.19.19 0 0 0-.015-.072c-.043-.106-.24-.378-1.156-.639a14.01 14.01 0 0 0-6.465 0c-.855.244-1.082.5-1.142.614h2.506l-.011.034a14.86 14.86 0 0 1 4.259.081c.736.147 1.079.345 1.078.624s-.362.486-1.135.633a13.14 13.14 0 0 1-2.32.184 13.16 13.16 0 0 1-2.32-.184h-.02L11.1 9.231a3.86 3.86 0 0 0 .856.324 11.6 11.6 0 0 0 2.505.339l.174.007v9.289l-.174.007a14.4 14.4 0 0 0-1.743.164l.9 2.572c.455.042.953.067 1.493.067 2.687 0 4.4-.6 4.4-1.011v-.8c0-.36-1.3-.907-3.754-1l-.175-.006V9.9l.174-.007a11.63 11.63 0 0 0 2.508-.339l.048.176z"/></svg>