<svg xmlns="http://www.w3.org/2000/svg" viewBox="0 0 24 24"><path fill="#44739e" d="M7.816 3.948c.104.028.227.047.331.075l.312 2.147 1.674 1.673-.511-3.574c1.683.208 3.612.208 5.295 0l-.86 5.929c-.511-.18-1.163-.265-1.816-.256l2.354 2.345c.407-.179.606-.397.681-.577l1.116-7.687c.113-.028.236-.047.34-.075 2.506-.662 2.582-1.75.114-2.43-2.515-.691-6.638-.691-9.143 0-2.478.68-2.402 1.768.113 2.43M20.373 22.14l1.333-1.343L3.627 2.766 2.294 4.099l6.865 6.846.113.756c.085.293.53.624 1.475.823l.114.104v8.405c-.691.114-1.201.293-1.362.52-.047.057-.066.114-.066.161v.511c0 .425 1.267.775 2.836.775s2.837-.35 2.837-.775v-.511c0-.284-.577-.529-1.418-.671v-5.579Z"/></svg>