<svg xmlns="http://www.w3.org/2000/svg" viewBox="0 0 24 24"><path fill="#44739e" d="M18.628 19.555H5.359c-.097 0-.194 0-.194-.097C4.971 19.361 1 17.133 1 12.969c0-2.325 1.259-4.456 3.487-6.102 2.131-1.55 4.843-2.422 7.555-2.422 5.036 0 10.751 3.003 10.944 7.942.291 5.134-4.164 7.071-4.261 7.071 0 .097 0 .097-.097.097m-13.076-.969h12.979c.581-.29 3.777-1.937 3.584-5.811-.194-4.649-5.424-7.361-9.977-7.361-2.518 0-5.036.775-6.973 2.227-2.034 1.453-3.196 3.294-3.196 5.328 0 3.293 3.002 5.23 3.583 5.617"/></svg>