<svg xmlns="http://www.w3.org/2000/svg" fill="#44739e" viewBox="0 0 24 24"><path d="M11.364 11.48c.006-.033.016-.08-.019-.105a.11.11 0 0 0-.1-.012.259.259 0 0 0-.128.3.343.343 0 0 0 .247-.183m3.306 1.929a1.45 1.45 0 0 0 .63-.591l-.086-.028c.046-.091.106-.208.049-.31a.187.187 0 0 0-.174-.068.986.986 0 0 0-.721.713.248.248 0 0 0 .083.272.28.28 0 0 0 .219.012m-2.689 1.214c4.139 0 7.495-1.037 7.495-2.317s-3.356-2.317-7.495-2.317-7.495 1.037-7.495 2.317 3.355 2.317 7.495 2.317m3.507-2.295a.47.47 0 0 1 .051.14l.778-1.082.478.031-1.318 1.85c-.021.048-.055.107-.021.163a.13.13 0 0 0 .072.05.514.514 0 0 0 .313-.116c.171-.127.328-.287.487-.429.032-.021.06-.049.1-.041s.105.048.117.1l-.006.023c-.319.3-.647.726-1.125.767a.37.37 0 0 1-.314-.125.288.288 0 0 1-.051-.22.922.922 0 0 1-.9.269.5.5 0 0 1-.251-.513 1.16 1.16 0 0 1 .06-.19c-.2.119-.427.3-.7.2a.338.338 0 0 1-.205-.292.5.5 0 0 1 0-.117l-.656.924h-.427c-.008-.005-.023-.012-.02-.023l.012-.035.683-.967c.037-.076.1-.17.046-.259-.054-.043-.128 0-.183.013a2.55 2.55 0 0 0-.709.647c-.268.327-.635.741-1.148.657a.576.576 0 0 1-.459-.434c0-.007 0-.015-.008-.017a2.4 2.4 0 0 1-.333.276.134.134 0 0 1-.063 0 .218.218 0 0 1-.077-.145c.02-.065.1-.091.151-.142.356-.337.459-.84.977-1.045a1.01 1.01 0 0 1 .419-.084.115.115 0 0 1 .1.068.094.094 0 0 1 .017.092c-.051.045-.128.045-.188.071a.93.93 0 0 0-.6.678.3.3 0 0 0 .154.309.479.479 0 0 0 .467-.084.987.987 0 0 0 .37-.677.74.74 0 0 0-.06-.29c0-.063.072-.111.129-.137a.182.182 0 0 1 .153 0 .458.458 0 0 1 .123.34.4.4 0 0 1-.006.1c.282-.215.519-.6.932-.545a.271.271 0 0 1 .222.185.44.44 0 0 1 0 .2.755.755 0 0 1 .664-.34.317.317 0 0 1 .248.2.3.3 0 0 1-.314.378.228.228 0 0 1-.176-.1.176.176 0 0 1 0-.19c-.094.01-.154.107-.182.178-.032.1-.077.231.017.317.062.081.185.053.273.041.567-.173.906-.853 1.584-.779a.371.371 0 0 1 .303.151m-7.871-.091a.658.658 0 0 1 .424-.107.127.127 0 0 1 .083.061.081.081 0 0 1-.009.076c-.14.119-.33.188-.427.348a.388.388 0 0 0-.009.434.638.638 0 0 0 .661.145 3.547 3.547 0 0 0 1.436-1.221 1.2 1.2 0 0 0-.6.18.08.08 0 0 1-.066 0c-.025-.012-.028-.038-.034-.061.014-.116.16-.165.259-.2a3.7 3.7 0 0 1 .61-.116 3.4 3.4 0 0 1 1.174-1c-.738-.155-1.829-.381-2.379.256a.35.35 0 0 0-.08.325.287.287 0 0 0 .245.14 1 1 0 0 0 .67-.391.094.094 0 0 1 .074-.018c.023 0 .034.028.042.043a.706.706 0 0 1-.245.452.944.944 0 0 1-.923.295.492.492 0 0 1-.344-.406.825.825 0 0 1 .535-.805 3.247 3.247 0 0 1 1.767-.228l.438.045 1.231.163a5.79 5.79 0 0 0 1.971-.041c.069 0 .157-.028.211.02a.079.079 0 0 1 .026.087c-.029.124-.18.208-.294.269a3.013 3.013 0 0 1-1.863.035l-.931-.218c-.009.036.008.081-.014.112a2.6 2.6 0 0 0-.9.835 4 4 0 0 0 .612-.054.368.368 0 0 1 .165-.383.364.364 0 0 1 .257-.048.217.217 0 0 1 .134.132.29.29 0 0 1-.112.3.64.64 0 0 1-.205.11v.007a.87.87 0 0 1 .157.122.055.055 0 0 1-.014.046.116.116 0 0 1-.083.025c-.105-.007-.168-.1-.242-.165-.256.036-.521.059-.786.079l-.168.213-.456.635a1.9 1.9 0 0 1-1.618.964.926.926 0 0 1-.787-.548.826.826 0 0 1 .407-.944m4.372 2.812c4.41 0 7.984-1.234 7.984-2.757S16.4 9.536 11.989 9.536s-7.984 1.234-7.984 2.756 3.575 2.757 7.984 2.757m-.008-5.27c4.269 0 7.731 1.131 7.731 2.527s-3.462 2.527-7.731 2.527S4.25 13.7 4.25 12.306s3.461-2.527 7.731-2.527m-6.87 4.069-.337-.217a1.892 1.892 0 0 1-.919-1.217l-.141-.022.016.136a2.305 2.305 0 0 0 1.381 1.32m13.447.178a2.8 2.8 0 0 0 1.281-.832 1.608 1.608 0 0 0 .431-.983c-.05.008-.106 0-.15.014a1.5 1.5 0 0 1-.347.874 3.18 3.18 0 0 1-1.215.927m2.162-1.991-.015.05c-.025.123-.172.059-.263.087-.037 0-.05.039-.056.064a1.207 1.207 0 0 1-.178.6 2.73 2.73 0 0 1-1.163 1.108 12.8 12.8 0 0 1-3.428.989 20.85 20.85 0 0 1-6.64.1 13.02 13.02 0 0 1-4.166-1.22 2.547 2.547 0 0 1-1.119-1.073c-.068-.092-.04-.22-.078-.323s-.187-.048-.275-.087a.166.166 0 0 1-.075-.111l-.034.1a1.21 1.21 0 0 0 .334.724 5.656 5.656 0 0 0 2.894 1.578 21.03 21.03 0 0 0 7.79.605A17.04 17.04 0 0 0 19 14.065a4.2 4.2 0 0 0 1.375-.908c.298-.303.564-.715.345-1.122M12 9.186c-4.97 0-9 1.426-9 3.184s4.03 3.184 9 3.184 9-1.425 9-3.184-4.029-3.184-9-3.184m0 6.305c-4.871 0-8.9-1.4-8.9-3.121S7.127 9.25 12 9.25s8.887 1.4 8.887 3.12S16.87 15.491 12 15.491"/></svg>