<svg xmlns="http://www.w3.org/2000/svg" fill="#44739e" viewBox="0 0 24 24"><path d="m12 2-.364 1.131h-1.188l.963.7-.37 1.129.959-.7.959.7-.37-1.129.963-.7h-1.188ZM4.389 6.232v4.427l3.782 5.667L11.945 22l.055-.007h.046l3.782-5.674 3.787-5.68V6.232zm.315.313H19.3v3.761H4.7V6.545Zm2.663.745a2.15 2.15 0 0 0-.292.038 1 1 0 0 0-.224.1.55.55 0 0 0-.117.249 2.19 2.19 0 0 0-.071.7 3.16 3.16 0 0 0 .046.7.59.59 0 0 0 .1.247.55.55 0 0 0 .2.178.825.825 0 0 0 .346.046.99.99 0 0 0 .4-.059.52.52 0 0 0 .2-.165.51.51 0 0 0 .066-.214 4.4 4.4 0 0 0 .051-.765A2.38 2.38 0 0 0 8 7.669a.513.513 0 0 0-.117-.242.9.9 0 0 0-.216-.1 2.3 2.3 0 0 0-.3-.037m10.669.025-.28.008-.261.959-.387 1.228.491.013.071-.509H18l.326.005.066.191.059.3h.19l.247-.005c.026 0-.326-1.241-.326-1.241l-.249-.946Zm-.928 2.195v-.378h-.845l.8-1.343.037-.089v-.372h-1.258v.315h.791l-.418.789-.432.7.008.229v.155h.9ZM5.33 7.328v2.116h.392V8.5h.628v-.31h-.628v-.547h.628v-.315zm3.1 0V9.51h.432V8.6h.217a.35.35 0 0 1 .163.073.582.582 0 0 1 .091.377l.006.458h.236l.2.007.007-.491a1.15 1.15 0 0 0-.02-.32.35.35 0 0 0-.1-.2c-.069-.053-.183-.132-.183-.132a.49.49 0 0 0 .138-.059.315.315 0 0 0 .091-.137 1.1 1.1 0 0 0 .03-.276l-.013-.26a1 1 0 0 0-.125-.213.65.65 0 0 0-.188-.1h-.981Zm1.528 0v.315h.471v.9l.007.972h.4l-.013-.972v-.9h.549v-.315H9.959Zm1.895 0-.079.255-.079.256-.2.717-.191.8-.038.163h.41l.04-.3.046-.236h.692l.046.236.051.3h.432l-.033-.159-.2-.72-.188-.646-.092-.333-.086-.333h-.534Zm1.325 0v2.187h1.1V9.36l-.007-.229h-.626v-1.8h-.47Zm1.332 0v1.058l.006 1.129h1.1V9.36l-.012-.229h-.7V8.5h.626v-.31h-.63v-.547h.705v-.315h-1.1Zm-7.182.315a.3.3 0 0 1 .051 0 .233.233 0 0 1 .209.11 2.25 2.25 0 0 1 .058.549l-.012.58-.019.163a.355.355 0 0 1-.1.119.62.62 0 0 1-.151.046.49.49 0 0 1-.142-.046.37.37 0 0 1-.1-.17l-.033-.242v-.509a1.2 1.2 0 0 1 .071-.49.26.26 0 0 1 .169-.11Zm1.534.013h.216a.385.385 0 0 1 .183.064.314.314 0 0 1 .058.144L9.326 8a.53.53 0 0 1-.033.163.185.185 0 0 1-.092.091.62.62 0 0 1-.188.013h-.15v-.611Zm3.25.045.145.509.117.451h-.542l.039-.138.04-.137.089-.339ZM18 7.839l.216.829h-.4ZM4.7 10.463h14.61l-.027.059-.026.059-3.629 5.437L12 21.451h-.059l-3.614-5.438L4.7 10.581zm6.987.561-6.035.032L11.65 20.1Zm.547 0 .04 9.076 5.993-9.044Z"/></svg>