<svg xmlns="http://www.w3.org/2000/svg" viewBox="0 0 24 24"><path fill="#44739e" d="m11.998 1-.401 1.244h-1.306l1.059.77-.407 1.242 1.055-.77 1.055.77-.407-1.242 1.059-.77h-1.307ZM3.626 5.655v4.87l4.16 6.234L11.937 23l.061-.008h.05l4.161-6.241 4.165-6.248V5.655Zm.346.344h16.056v4.138H3.968V5.999Zm2.93.82a2.4 2.4 0 0 0-.322.042 1.1 1.1 0 0 0-.246.11.605.605 0 0 0-.129.274 2.41 2.41 0 0 0-.078.77 3.48 3.48 0 0 0 .051.77.65.65 0 0 0 .11.271.605.605 0 0 0 .22.196.91.91 0 0 0 .38.051 1.09 1.09 0 0 0 .44-.065.57.57 0 0 0 .22-.182.56.56 0 0 0 .073-.235 4.84 4.84 0 0 0 .056-.842 2.62 2.62 0 0 0-.079-.743.564.564 0 0 0-.129-.266 1 1 0 0 0-.237-.11 2.5 2.5 0 0 0-.33-.041m11.735.028-.308.008-.287 1.055-.425 1.351.54.014.078-.56h.363l.358.006.073.21.065.33h.209l.272-.005c.028 0-.359-1.366-.359-1.366l-.274-1.04Zm-1.02 2.414v-.416h-.93l.88-1.477.041-.098v-.409h-1.384v.346h.87l-.46.868-.475.77.009.252v.171h.99Zm-12.956-2.4v2.327h.431V8.15h.691v-.341h-.691v-.602h.691v-.346Zm3.41 0v2.4h.475V8.26h.239a.385.385 0 0 1 .179.08.64.64 0 0 1 .1.415l.007.504h.259l.22.008.008-.541a1.26 1.26 0 0 0-.022-.352.385.385 0 0 0-.11-.22 7 7 0 0 0-.201-.145.54.54 0 0 0 .152-.065.347.347 0 0 0 .1-.15 1.2 1.2 0 0 0 .033-.304l-.015-.286a1.1 1.1 0 0 0-.137-.234.72.72 0 0 0-.207-.11H8.072Zm1.681 0v.346h.518v.99l.007 1.07h.44l-.014-1.07v-.99h.604v-.346H9.753Zm2.084 0-.087.28-.087.282-.22.789-.21.88-.042.179h.451l.044-.33.051-.26h.761l.051.26.056.33h.475l-.036-.175-.22-.792-.207-.711-.101-.366-.095-.366h-.587Zm1.458 0v2.406h1.21v-.171l-.008-.252h-.689v-1.98h-.517Zm1.465 0v1.164l.006 1.242h1.21v-.171l-.013-.252h-.77V8.15h.689v-.341h-.693v-.602h.775v-.346h-1.21Zm-7.9.346a.33.33 0 0 1 .056 0 .256.256 0 0 1 .23.121 2.48 2.48 0 0 1 .063.604l-.013.638-.021.18a.39.39 0 0 1-.11.13.68.68 0 0 1-.166.051.54.54 0 0 1-.156-.051.407.407 0 0 1-.11-.187l-.036-.266v-.56a1.32 1.32 0 0 1 .078-.539.286.286 0 0 1 .186-.121Zm1.687.015h.238a.424.424 0 0 1 .201.07.345.345 0 0 1 .064.158l.007.15a.58.58 0 0 1-.036.179.204.204 0 0 1-.101.1.68.68 0 0 1-.207.015h-.165v-.672Zm3.575.049.16.56.128.496h-.596l.043-.152.044-.15.098-.373Zm6.477.152.237.912h-.44Zm-14.63 2.886h16.071l-.03.065-.029.065-3.991 5.981-3.991 5.976h-.065l-3.975-5.982-3.99-5.975Zm7.686.617-6.639.036 6.598 9.948Zm.601 0 .044 9.984 6.593-9.948Z"/></svg>