<svg xmlns="http://www.w3.org/2000/svg" viewBox="0 0 24 24"><path fill="#44739e" d="M8.935 13.29h6.112v4.092H8.935Zm-7.93-5.802h6.23v4.094h-6.23Zm15.736 9.893h3.849a4.193 4.193 0 0 0 2.395-3.581v-.511h-6.244ZM8.935 1.691h6.112v4.094H8.935Zm7.811 5.802h6.249v4.094h-6.249Zm6.243-2.169a4.091 4.091 0 0 0-2.557-3.628h-3.69v4.089h6.247ZM7.23 1.694H3.557A4.095 4.095 0 0 0 1 5.331v.458h6.23ZM1 13.289v.506a4.19 4.19 0 0 0 2.397 3.586H7.23v-4.093H1Zm4.306 8.358h.99v.662h-.99Zm-1.284-.94H5.03v.663H4.022Zm2.548 1.602h.623a.68.68 0 0 0 .389-.581v-.082H6.57Zm-1.264-2.54h.99v.663h-.99Zm1.265.939h1.012v.663H6.571Zm1.011-.351a.66.66 0 0 0-.415-.588H6.57v.659h1.012Zm-2.552-.588h-.595a.66.66 0 0 0-.413.589v.074H5.03Zm-1.008 1.877v.082a.677.677 0 0 0 .387.581h.621v-.66Zm14.555-.339h1.279v-.534h-1.279v-.423h1.842v-.553h-2.448v2.487l-.002.001h2.461v-.553h-1.853Zm-1.263-1.298a.88.88 0 0 0-.582-.208H14.77v2.489h.609v-1.94h1.369a.194.194 0 0 1 .148.065c.057.059.049.227.049.227v1.649h.608V20.68a.88.88 0 0 0-.239-.671m3.405-.213v.553h.574v1.935h.607v-1.935H23v-.553Zm-7.018.157v2.332h.608v-2.488h-.608Zm-2.579.396h.573v1.935h.609v-1.935h1.099v-.553h-2.281Zm-10.115-.553v2.488h.608v-.978h1.839v-.534H1.615v-.423h2.139v-.554H1.007Zm8.918.005H8.029v2.486h.607v-.978h1.25a.69.69 0 0 1 .241.021.124.124 0 0 1 .064.11v.849h.589v-.713a.45.45 0 0 0-.084-.32.22.22 0 0 0-.072-.053l-.022-.011a.594.594 0 0 0 .206-.44v-.182a.763.763 0 0 0-.175-.572.964.964 0 0 0-.708-.197m.275.843a.129.129 0 0 1-.063.11.77.77 0 0 1-.273.022H8.636v-.426h1.183a.85.85 0 0 1 .318.021.129.129 0 0 1 .064.11Z"/></svg>