<svg xmlns="http://www.w3.org/2000/svg" fill="#44739e" viewBox="0 0 24 24"><path d="M18.5348 20.0812c-.17-.071-.274-.134-.274-.277 0-.085.065-.223.28-.223a.47.47 0 0 1 .269.081c.033.018.055.018.071-.01l.02-.034a.047.047 0 0 0-.007-.066.663.663 0 0 0-.346-.1.386.386 0 0 0-.429.336v.025c0 .231.133.316.356.411s.354.18.354.32a.245.245 0 0 1-.257.232h-.014a.594.594 0 0 1-.348-.148c-.029-.024-.045-.014-.065.012l-.03.038c-.029.037 0 .055.012.069a.66.66 0 0 0 .427.164.408.408 0 0 0 .437-.372c-.012-.243-.188-.347-.456-.458m-1.584 0c-.17-.071-.273-.134-.273-.277 0-.085.065-.223.279-.223a.473.473 0 0 1 .27.081c.032.018.054.018.071-.01l.02-.034a.047.047 0 0 0-.007-.066.67.67 0 0 0-.346-.1.386.386 0 0 0-.43.337v.024c0 .231.134.316.357.411s.354.18.354.32a.245.245 0 0 1-.257.232h-.014a.594.594 0 0 1-.349-.148c-.028-.024-.044-.014-.064.012l-.031.038c-.028.037 0 .055.012.069a.66.66 0 0 0 .428.164.408.408 0 0 0 .437-.372c-.007-.243-.183-.347-.457-.458m-1.194-.615h-.8a.037.037 0 0 0-.039.037v1.341a.038.038 0 0 0 .038.038h.8a.038.038 0 0 0 .039-.037v-.059a.04.04 0 0 0-.039-.039h-.68v-.516h.581a.04.04 0 0 0 .039-.038v-.059a.041.041 0 0 0-.039-.039h-.581v-.489h.68a.038.038 0 0 0 .039-.037v-.063a.038.038 0 0 0-.036-.04zm-1.429.57 1.083-1.671c.049-.069 0-.149-.09-.149h-.78a.1.1 0 0 0-.085.048l-.625.993h-.005l-.614-.993a.115.115 0 0 0-.086-.048h-.779a.1.1 0 0 0-.1.1.1.1 0 0 0 .013.053l1.079 1.671-1.121 1.766a.1.1 0 0 0 .036.137.1.1 0 0 0 .054.013h.742a.123.123 0 0 0 .089-.05l.684-1.079h.01l.7 1.079a.115.115 0 0 0 .09.048h.742a.093.093 0 0 0 .105-.079.09.09 0 0 0-.019-.071zm-1.91.053a1.919 1.919 0 1 0-1.923 1.917 1.919 1.919 0 0 0 1.923-1.917m-.854 0a1.068 1.068 0 1 1 0-.011zm-3.193-1.873h-2.211a.1.1 0 0 0-.1.1v3.534a.1.1 0 0 0 .1.1h.63a.106.106 0 0 0 .1-.1v-1.3h1.219a.106.106 0 0 0 .1-.1v-.582a.106.106 0 0 0-.1-.1h-1.217v-.769h1.479a.1.1 0 0 0 .1-.1v-.582a.1.1 0 0 0-.1-.1zm3.647-4.683c.141-.093.283-.192.424-.3l.052-.04c.069-.052.136-.1.2-.157l.07-.057c.058-.047.115-.1.17-.141l.076-.066.151-.134.07-.063.145-.136.059-.056.094-.093c.031-.03.061-.06.089-.09l.151-.157.043-.047c.046-.049.091-.1.138-.15l.024-.027c.051-.058.1-.119.156-.18l.021-.025.029-.035.127-.154.041-.05c.051-.065.1-.132.153-.2l.051-.07.115-.159.049-.07c.048-.069.1-.14.142-.213l.042-.067v-.016l.093-.153.051-.086c.042-.073.082-.148.122-.222l.06-.092c.027-.053.053-.106.078-.16l.046-.1.02-.046v.006a6.6 6.6 0 0 1-1.02 1.345c-.619.63-2.773 2.557-4.542.861a5.71 5.71 0 0 1-1.752-4 3.26 3.26 0 0 1 .72-2.317 3.24 3.24 0 0 1 2.268-.765h.029a5.72 5.72 0 0 1 2.9.786 6.63 6.63 0 0 0-1.227-.648l-.02-.012-.073-.028-.17-.063a6.67 6.67 0 0 0-2.209-.38h-.182c-.16 0-.3.009-.44.021h-.056c-.157.014-.3.032-.434.054h-.02c-.067.011-.134.024-.2.038s-.14.03-.214.048l-.055.013c-.123.031-.246.068-.376.111l-.066.023c-.058.02-.116.042-.173.064l-.168.071-.064.029c-.109.051-.214.1-.309.161l-.05.031a3.1 3.1 0 0 0-.281.189l-.029.023a2.6 2.6 0 0 0-.25.22l-.007.004a3.42 3.42 0 0 0-.75 1.3 4.3 4.3 0 0 0-.135.47c-.02.082-.037.165-.053.249a6.1 6.1 0 0 0-.1.786 6.8 6.8 0 0 0 0 .834c.012.188.033.381.061.571s.065.386.109.576.1.386.161.575.135.383.215.568a6.6 6.6 0 0 0 .426.825 6.23 6.23 0 0 0 1.007 1.251 2.5 2.5 0 0 0 .239.21l.044.033c.062.046.126.09.193.131l.021.014h.008l.013.007.038.023.03.016c.052.029.106.056.16.081l.017.008.015.006a2.6 2.6 0 0 0 .529.171l.038.007q.1.019.207.03h.315a3.2 3.2 0 0 0 .41-.042l.047-.007.063-.011.032-.005.067-.016.029-.007h.01l.036-.009.023-.006c.049-.012.1-.024.147-.038l.116-.038c.074-.025.135-.046.2-.07l.114-.045c.067-.028.134-.057.2-.088l.02-.009c.026-.012.051-.023.076-.036.076-.037.151-.076.225-.116l.066-.035a3.1 3.1 0 0 0 .429-.237m6.857-8.658a10.073 10.073 0 0 0-7.082-2.869h-.375a9.34 9.34 0 0 0-2.825.5c-.114.032-.227.066-.337.1-.077.026-.151.054-.239.087l-.015.013c-.069.027-.136.056-.2.085l-.045.015c-.063.029-.125.058-.186.089l-.053.029c-.058.029-.115.06-.17.091l-.1.059c-.04.024-.08.047-.116.072a3.65 3.65 0 0 0-.48.358c-.06.053-.117.106-.171.161a3.3 3.3 0 0 0-.263.311l-.036.046a3.7 3.7 0 0 0-.225.341l-.039.067-.023.042c-1.785 2.716-1.75 8.31 1.86 11.754a3.943 3.943 0 0 0 2.754 1.166h.187c2.368-.075 4.773-2.067 6.1-3.423 1.905-1.946 5.056-6.108 2.079-9.094m-7.634 9.168c-.067.031-.135.061-.2.089l-.115.046c-.063.024-.126.046-.189.067-.043.014-.086.029-.13.042s-.116.031-.174.046l-.144.035c-.044.01-.1.016-.145.023a3 3 0 0 1-.421.041h-.032a1.7 1.7 0 0 1-.2-.008l-.083-.006a2.4 2.4 0 0 1-.221-.031l-.039-.008c-.04-.008-.08-.017-.119-.027l-.1-.028a2.9 2.9 0 0 1-.338-.126 2.6 2.6 0 0 1-.211-.107l-.062-.038c-.076-.046-.149-.1-.22-.149l-.045-.033a2.8 2.8 0 0 1-.244-.215 6.26 6.26 0 0 1-1.021-1.262 6.4 6.4 0 0 1-.431-.833 7.4 7.4 0 0 1-.217-.573 6 6 0 0 1-.162-.582c-.045-.2-.082-.388-.111-.582a7.2 7.2 0 0 1-.061-.576 6.6 6.6 0 0 1 0-.842 6.1 6.1 0 0 1 .095-.794c.016-.085.034-.168.054-.251.039-.164.084-.324.136-.476a3.48 3.48 0 0 1 .763-1.319 2.7 2.7 0 0 1 .264-.229l.03-.024a3.1 3.1 0 0 1 .292-.193l.051-.031c.1-.058.206-.113.315-.164l.064-.029a3.3 3.3 0 0 1 .346-.138l.062-.022c.124-.042.25-.08.381-.113l.05-.017c.138-.033.278-.063.422-.087h.02c.143-.023.29-.041.439-.055h.056c.146-.013.295-.019.445-.022h.183a7.03 7.03 0 0 1 2.239.388c.053.018.1.038.157.058l.088.033a6.73 6.73 0 0 1 2.2 1.434c.063.064.122.129.177.194.036.042.069.086.1.13l.08.112.069.1c.048.08.094.161.134.245l.013.03c.036.077.066.156.1.236v.016a2.37 2.37 0 0 0-.568-.86l-.028-.034c-2.034-2-5.144-1.957-6.212-.868s-1.049 4.241 1.03 6.23c1.606 1.539 3.556.053 4.45-.86a5.74 5.74 0 0 0 1.292-1.942 2.73 2.73 0 0 0 .174-1.008v.338a1.7 1.7 0 0 1-.014.169.8.8 0 0 1-.015.118c-.008.055-.018.109-.028.163s-.018.09-.029.135c-.015.067-.032.133-.051.2-.011.037-.022.074-.034.112-.018.054-.036.108-.055.162a2 2 0 0 0-.035.1c-.03.077-.062.154-.1.23-.015.034-.03.068-.046.1-.025.055-.052.109-.079.163-.015.029-.029.059-.045.089-.039.076-.08.15-.123.224-.017.03-.034.058-.051.087-.032.055-.065.109-.1.162l-.05.081c-.047.072-.1.144-.144.215l-.049.069c-.038.054-.076.108-.115.16l-.052.071c-.051.068-.1.135-.155.2l-.04.051-.124.146-.05.06c-.053.062-.106.123-.158.181l-.024.027c-.046.052-.092.1-.138.151l-.044.048-.151.157-.09.091-.1.093-.059.057c-.047.045-.095.091-.146.137-.023.022-.048.044-.073.066-.049.045-.1.09-.151.135l-.077.066c-.055.047-.112.095-.17.142l-.071.058-.2.158-.053.04a7.9 7.9 0 0 1-.853.557l-.067.036c-.075.04-.151.08-.227.117zm4.463-5.963a4.538 4.538 0 0 1-1.447 2.9c-.6.61-2.676 2.472-4.359.859a5.57 5.57 0 0 1-1.711-3.913 3.172 3.172 0 0 1 .682-2.22 3.154 3.154 0 0 1 2.178-.726h.027a5.59 5.59 0 0 1 3.953 1.626 2.31 2.31 0 0 1 .552.836l.01.027.018.054.008.028a2.57 2.57 0 0 1 .089.529m1.514-.624a5 5 0 0 1-.282.984 7.87 7.87 0 0 1-.74 1.4c-.138.211-.29.425-.451.637-.146.191-.3.385-.466.575-.19.221-.39.439-.6.65-.057.058-.118.118-.18.179l-.054.053-.151.145-.054.05c-.068.064-.138.127-.21.192l-.044.038c-.059.053-.12.105-.188.163l-.066.057-.188.154-.055.045c-.079.063-.161.125-.243.188l-.074.055-.191.138-.084.059c-.083.058-.167.115-.254.17l-.034.022c-.083.054-.167.105-.253.156l-.09.053-.209.116-.084.045c-.094.049-.188.1-.283.14l-.067.03-.231.1-.043.017.018-.008c.078-.038.154-.078.23-.119l.067-.036a7.7 7.7 0 0 0 .76-.489l.1-.073.053-.04.2-.159.071-.058.145-.121.027-.022.076-.067c.053-.045.1-.09.153-.135l.074-.067.156-.148.05-.047c.064-.063.127-.125.186-.185s.1-.1.152-.159l.036-.039.008-.008.139-.152.024-.027c.052-.059.105-.12.158-.183l.051-.06c.043-.051.086-.1.128-.157l.041-.05c.052-.066.1-.133.156-.2l.052-.071.129-.181.041-.058c.049-.072.1-.144.144-.217l.051-.081c.034-.054.067-.109.1-.163.017-.03.035-.059.052-.088.042-.075.084-.151.124-.227l.045-.09c.028-.054.055-.109.086-.176.014-.03.028-.06.041-.09.034-.078.067-.155.1-.233.008-.021.015-.041.022-.061l.013-.036c.019-.055.038-.11.056-.165.012-.037.024-.075.035-.113.019-.066.036-.132.052-.2.01-.045.02-.091.028-.136s.021-.111.029-.166.011-.08.016-.121c.006-.058.01-.115.014-.173s0-.1 0-.157v-.191a.23.23 0 0 0 0-.037 2.6 2.6 0 0 0-.092-.516l-.011-.025c-.005-.019-.012-.038-.018-.056l-.012-.03-.007-.017a2.7 2.7 0 0 0-.088-.222l-.014-.033-.005-.011v-.011c-.042-.086-.088-.17-.138-.251-.017-.029-.036-.056-.055-.084l-.015-.022-.008-.012-.073-.1a3 3 0 0 0-.105-.133 2.6 2.6 0 0 0-.184-.2l-.007.002a6.4 6.4 0 0 0-2.215-1.44l-.088-.034h-.012l-.02-.008-.111-.041-.025-.016h-.006a6.77 6.77 0 0 0-2.211-.392h-.231c-.162 0-.309.01-.448.022h-.057c-.16.015-.3.033-.443.056h-.021c-.068.011-.137.024-.208.039s-.144.031-.219.049l-.057.019c-.126.032-.252.069-.386.114l-.068.023-.081.03c-.091.034-.181.07-.269.109l-.065.03c-.114.053-.221.109-.321.167l-.052.031c-.1.062-.2.129-.292.2l-.03.025a2.7 2.7 0 0 0-.259.227l-.026.014v.013a3.59 3.59 0 0 0-.762 1.324 4.7 4.7 0 0 0-.139.482c-.02.084-.037.168-.054.254a6.3 6.3 0 0 0-.1.8 6.7 6.7 0 0 0 0 .85c.013.192.033.388.062.582s.066.394.112.587.1.393.164.586.137.39.218.579a6.7 6.7 0 0 0 .435.841l.075.12a7.84 7.84 0 0 1-.864-1.485l-.021-.047c-.011-.025-.021-.05-.031-.075l-.02-.048a8.27 8.27 0 0 1-.6-2.662l-.007-.161v-.536c0-.164.015-.334.032-.52l.008-.088c.016-.16.038-.323.065-.485l.016-.091c.03-.165.064-.322.1-.467l.017-.063c.042-.159.087-.309.134-.446l.009-.022c.048-.136.1-.274.168-.421l.032-.065c.056-.123.12-.247.19-.369.012-.022.025-.044.038-.065a3.8 3.8 0 0 1 .217-.33l.039-.045a3.3 3.3 0 0 1 .255-.3c.041-.042.084-.083.128-.123a3.6 3.6 0 0 1 .5-.378c.036-.024.074-.046.113-.069l.1-.057c.054-.03.109-.061.165-.089l.05-.025c.059-.029.119-.058.181-.086l.044-.019c.065-.028.131-.056.2-.083l.033-.011c.072-.028.145-.056.235-.086a7.46 7.46 0 0 1 2.223-.369h.045a8.6 8.6 0 0 1 2.828.444 7.86 7.86 0 0 1 2.888 1.781v.019l.026.013a3.056 3.056 0 0 1 .94 2.1 3.7 3.7 0 0 1-.054.737"/></svg>