<svg xmlns="http://www.w3.org/2000/svg" viewBox="0 0 24 24"><path fill="#44739e" d="M15.6492 22.2221c-1.7392-.1798-3.405-.8878-4.7765-2.0302-.42-.3498-1.115-1.0343-1.0972-1.0806.0106-.0276 2.7632-2.325 2.7784-2.319.008.003.0868.0958.1752.206.1823.2267.547.5943.756.7617.5117.4103 1.1751.7477 1.7688.8996.4075.1043.5427.1196 1.0536.1194.4472-.0002.4981-.004.7358-.0548 1.1923-.2552 2.1728-.9896 2.6843-2.0106.428-.8543.4914-1.8763.1722-2.778-.1809-.5112-.5558-1.0542-.99-1.434-.6723-.588-1.5807-.8842-2.6123-.8518-.3246.0102-.6957.0569-.9108.1147-.7205.1934-1.2485.4438-1.7808.8445-.0876.066-.1687.1235-.1801.1278-.0221.008-2.7736-.2647-2.7813-.276-.003-.005 1.0708-8.8974 1.2683-10.501l.0253-.2052h10.6851v3.4631l-3.758.005-3.758.005-.1567 1.5685c-.0862.8627-.1526 1.5727-.1475 1.5777.005.005.1232-.0142.2625-.0429 1.02-.2101 2.185-.2241 3.1938-.0384 1.0118.1864 1.9038.5603 2.7072 1.1351.5784.4138 1.1817.9706 1.5442 1.425 1.2889 1.616 1.7578 3.6357 1.3418 5.7795-.245 1.263-.8662 2.4549-1.7596 3.3764-1.1854 1.2227-2.7286 1.957-4.6143 2.1956-.3583.0453-1.4597.056-1.8293.0179zM3.4414 18.7676c-.918-.0885-1.8616-.5645-2.459-1.2402-.7111-.8044-1.034-1.7365-.9757-2.8162.0484-.8952.4508-1.7816 1.1068-2.4376 1.184-1.184 2.9946-1.4594 4.4696-.6796 1.076.5688 1.7911 1.571 1.9993 2.802.0464.2742.0463.8673-.0001 1.141-.1373.8096-.4649 1.4788-1.0022 2.0478-.8109.8587-1.9702 1.2955-3.1387 1.1828"/></svg>