<svg xmlns="http://www.w3.org/2000/svg" viewBox="0 0 24 24"><path fill="#44739e" d="M10.516 20.198v-1.342l3.299-3.475c1.814-1.912 3.375-3.565 3.47-3.673.986-1.131 1.454-1.979 1.638-2.966.048-.258.056-.713.017-.934-.052-.294-.191-.654-.355-.922-.512-.835-1.356-1.272-2.288-1.185-.508.048-.882.196-1.273.504-.542.427-.85 1.13-.887 2.027l-.012.265h-3.627v-.135c0-.388.08-.967.198-1.436.291-1.161.795-2.025 1.637-2.808.871-.81 2.033-1.377 3.223-1.573 1.834-.303 3.714.215 5.096 1.403.933.802 1.607 1.953 1.844 3.15.233 1.177.095 2.568-.362 3.645-.29.682-1.029 1.819-1.727 2.656-.116.139-1.225 1.3-2.464 2.58l-2.253 2.328 3.655.005 3.655.004v3.224H10.516Zm-6.4-1.593c-1.215-.192-2.204-.91-2.737-1.986-.561-1.132-.496-2.458.175-3.539.557-.899 1.501-1.51 2.573-1.668.32-.047.913-.029 1.222.037 1.057.225 1.927.86 2.452 1.792.101.177.236.489.292.67.475 1.534-.096 3.195-1.406 4.087-.441.301-.911.495-1.434.591-.233.043-.909.052-1.137.016"/></svg>