<svg xmlns="http://www.w3.org/2000/svg" viewBox="0 0 24 24"><path fill="#44739e" d="M18.0442 19.3845v-1.86l-4.1476-.005-4.1475-.005-.005-1.4053-.005-1.4052 3.9128-5.974 3.9128-5.9739h4.049v11.5925h2.3861v3.1752h-2.3861v3.7201h-3.5699zm0-8.3072V7.8054l-2.1307 3.2519a6345 6345 0 0 0-2.143 3.2718c-.009.014.6224.02 2.1307.02h2.143zM3.2388 18.3127c-1.24-.0778-2.3805-.861-2.915-2.0017-.5122-1.093-.4106-2.4079.2636-3.411 1.0743-1.5987 3.232-2.0273 4.8241-.9582.8117.5451 1.339 1.3642 1.5132 2.351.016.0905.0245.2919.0239.5636-.0009.3839-.006.4443-.051.658-.148.6974-.4673 1.293-.9558 1.7822-.4862.4872-1.1281.8318-1.7847.9584-.1785.0344-.2739.0447-.6083.0654-.0517.003-.1911-.0003-.31-.008z"/></svg>