<svg xmlns="http://www.w3.org/2000/svg" viewBox="0 0 24 24"><path fill="#44739e" d="M17.541 18.769v-1.705l-3.802-.004-3.802-.005-.005-1.288-.005-1.288 3.587-5.477 3.587-5.476h3.712v10.627H23v2.911h-2.187v3.41H17.54Zm0-7.615V8.155l-1.954 2.981a5816 5816 0 0 0-1.964 2.999c-.008.013.571.018 1.953.018h1.965ZM3.969 17.787c-1.137-.072-2.182-.79-2.672-1.835-.47-1.002-.377-2.207.241-3.127.985-1.465 2.963-1.858 4.422-.878.745.499 1.228 1.25 1.388 2.155.014.083.022.267.021.516 0 .352-.005.408-.046.604-.136.639-.429 1.185-.876 1.633-.446.447-1.035.763-1.636.879-.164.031-.252.041-.558.06-.047.003-.175 0-.284-.008Z"/></svg>