<svg xmlns="http://www.w3.org/2000/svg" viewBox="0 0 24 24"><path fill="#44739e" d="M15.8189 22.2326c-1.8722-.1388-3.663-.9075-5.137-2.2051-.2767-.2436-.9165-.8914-.907-.9183.007-.019 2.785-2.3413 2.7996-2.3402.006.0004.064.0733.1302.162.4844.6505 1.3406 1.2946 2.112 1.589 1.459.5567 3.0733.2402 4.183-.8202.894-.8544 1.2747-2.084 1.0243-3.3091-.122-.5969-.439-1.2255-.8565-1.6983-.9815-1.1115-2.6836-1.534-4.3982-1.092-.267.0688-.716.232-.9176.3333-.0741.0372-.1394.0677-.1452.0677-.006 0-.0105-.5174-.0105-1.1498V9.7017l1.8826-2.2338c1.0354-1.2285 1.8825-2.2387 1.8825-2.2447s-1.5186-.011-3.3746-.011H10.712V1.7475h12.2966v2.3013l-1.8332 2.2565c-1.0083 1.2411-1.8305 2.2594-1.827 2.2628.003.003.1097.0506.236.1048 1.0854.4653 2.0129 1.1288 2.749 1.9665.9598 1.0922 1.4675 2.2299 1.6402 3.6751.0351.2937.0352 1.3889.0002 1.6723-.1428 1.1548-.4457 2.0267-1.0307 2.9672-1.2853 2.0659-3.7617 3.318-6.5234 3.2983-.2038-.001-.4742-.0103-.6008-.0197M3.5477 18.8293c-1.063-.0817-2.0988-.6484-2.7532-1.5063-1.1059-1.4497-1.0524-3.4539.1296-4.8562.7812-.9268 2.0214-1.4462 3.22-1.3486.935.0761 1.741.4366 2.3994 1.0732.4455.4307.7568.9078.9628 1.476.237.6535.2878 1.408.1421 2.1091-.2772 1.3341-1.2725 2.4441-2.5752 2.8718-.2974.0977-.5846.1544-.92.1816-.279.0226-.3029.0226-.6055-.0006"/></svg>