<svg xmlns="http://www.w3.org/2000/svg" viewBox="0 0 24 24"><path fill="#44739e" d="M11.974 3.385c-2.379 0-4.616.932-6.289 2.604a.48.48 0 0 0 0 .678.48.48 0 0 0 .678 0c1.496-1.497 3.481-2.322 5.611-2.322s4.101.826 5.615 2.324a.48.48 0 0 0 .68-.002.48.48 0 0 0-.005-.68c-1.686-1.668-3.91-2.602-6.29-2.602M11.967 1C9.076 1 6.184 2.096 3.988 4.292a.48.48 0 0 0 0 .68.48.48 0 0 0 .68 0c4.024-4.024 10.577-4.024 14.601 0a.48.48 0 0 0 .677 0 .48.48 0 0 0 0-.68C17.75 2.096 14.858 1 11.967 1m.712 8.576a1.952 1.952 0 0 0-1.952 1.95 1.952 1.952 0 0 0 1.952 1.953 1.952 1.952 0 0 0 1.953-1.953 1.952 1.952 0 0 0-1.953-1.95m-.705-3.377a5.629 5.629 0 0 0-5.631 5.632v1.313c0 .847-.737 1.535-1.585 1.535a1.257 1.257 0 0 0-1.265 1.264c0 .704.561 1.265 1.265 1.265.56 0 1.087-.111 1.567-.32-.16.687-.766 1.2-1.502 1.2a1.257 1.257 0 0 0-1.265 1.265c0 .704.561 1.265 1.265 1.265 1.104 0 2.111-.448 2.847-1.168v1.663c0 .704.561 1.265 1.265 1.265s1.265-.561 1.265-1.265v-2.368h.495v2.993c0 .704.561 1.262 1.265 1.262s1.264-.558 1.264-1.262v-2.992h.498v2.367c0 .704.561 1.265 1.265 1.265s1.262-.561 1.262-1.265V19.29a4.04 4.04 0 0 0 2.992 1.31c.704 0 1.265-.558 1.265-1.262.028-.691-.547-1.252-1.235-1.252-.704 0-1.313-.48-1.49-1.135.448.16.915.257 1.41.257.704 0 1.263-.561 1.263-1.265a1.257 1.257 0 0 0-1.263-1.265c-.847 0-1.585-.686-1.585-1.534v-1.313c0-3.103-2.511-5.632-5.632-5.632m-.177 3.225a2.805 2.805 0 0 1 1.192.18 1.951 1.951 0 0 1 1.615 1.612 2.8 2.8 0 0 1 .188 1.063 2.8 2.8 0 1 1-5.6 0 2.8 2.8 0 0 1 2.605-2.855"/></svg>