<svg xmlns="http://www.w3.org/2000/svg" viewBox="0 0 24 24"><path fill="#44739e" d="M4.667 1h14.666C21.358 1 23 2.642 23 4.667v14.666C23 21.358 21.358 23 19.333 23H4.667C2.642 23 1 21.358 1 19.333V4.667C1 2.642 2.642 1 4.667 1m.916 1.833c-1.519 0-2.75 1.231-2.75 2.75v12.834c0 1.519 1.231 2.75 2.75 2.75h12.834c1.519 0 2.75-1.231 2.75-2.75V5.583c0-1.519-1.231-2.75-2.75-2.75ZM6.5 4.667h4.583v14.666H6.5c-1.012 0-1.833-.821-1.833-1.833v-11c0-1.012.821-1.833 1.833-1.833m11 0c1.012 0 1.833.821 1.833 1.833v11c0 1.012-.821 1.833-1.833 1.833h-4.583V4.667Z"/></svg>