<svg xmlns="http://www.w3.org/2000/svg" viewBox="0 0 24 24"><path fill="#44739e" d="M19.912 7.224C18.754 5.969 15.667 5.197 12 5.197s-6.754.676-7.912 2.027C2.254 7.899 1 8.864 1 10.118v4.536c0 2.701 5.693 4.149 11 4.149s11-1.448 11-4.149v-4.439c0-1.254-1.254-2.219-3.088-2.991m-2.219 5.596c-1.544.386-3.474.579-5.693.579-2.123 0-4.053-.193-5.693-.579 1.544-.289 3.377-.579 5.693-.579 2.219 0 4.149.29 5.693.579M12 17.162c-5.789 0-9.36-1.447-9.36-2.412 0-.482.676-.965 1.93-1.351 2.123.676 4.825 1.062 7.43 1.062s5.404-.386 7.43-1.062c1.254.483 1.93.965 1.93 1.351 0 .965-3.571 2.412-9.36 2.412"/></svg>