<svg xmlns="http://www.w3.org/2000/svg" viewBox="0 0 24 24"><path fill="#44739e" d="M12.434 6.525s-.01 0 0 0V4.522c.967-.049 2.762-.276 2.762-1.263v-.986C15.196 1.059 12.483 1 11.931 1s-3.256.069-3.256 1.273v.986c0 .987 1.816 1.214 2.782 1.263l-.009 2.013c-.07.009-.139.009-.208.019-3.512.454-6.264 3.956-6.264 8.198s2.742 7.745 6.264 8.199c.227.029.464.049.691.049H12c3.877 0 7.024-3.7 7.024-8.248.01-4.38-2.92-7.961-6.59-8.227m-1.065 1.006c.197-.03.394-.04.601-.04.356 0 .711.05 1.046.148.947.267 1.756.878 2.407 1.727-.276-.049-.572-.089-.888-.089h-.019c-1.648 0-3.463.582-5.101 1.638-.888.572-1.667 1.253-2.308 1.983.463-2.881 2.042-5.051 4.262-5.367m.592 14.482c-.178 0-.346-.009-.513-.029-.888-.109-1.678-.523-2.339-1.174.158.02.316.029.494.029h.019c1.648 0 3.463-.582 5.101-1.637.69-.444 1.302-.937 1.835-1.47-.77 2.496-2.447 4.262-4.597 4.281m2.229-3.64c-1.48.947-3.108 1.48-4.577 1.48-1.362.02-2.447-.464-2.99-1.312s-.523-2.013.059-3.266c.612-1.332 1.776-2.584 3.256-3.532 1.49-.947 3.108-1.479 4.578-1.479h.01c.611 0 1.134.108 1.608.276.552 1.164.868 2.575.868 4.124 0 .365-.02.72-.059 1.075-.642.957-1.579 1.884-2.753 2.634"/></svg>