<svg xmlns="http://www.w3.org/2000/svg" viewBox="0 0 24 24"><path fill="#44739e" d="M22.59 1.01H1.488c-.195 0-.488.293-.488.488v21.004c0 .293.195.488.488.488h21.004c.293 0 .489-.195.489-.488V1.498c.097-.195-.196-.488-.391-.488m-.489 21.101H1.977V1.987h20.027v20.124ZM5.689 18.399h12.602c.293 0 .489-.196.489-.489V6.187c0-.293-.196-.488-.489-.488H5.689c-.293 0-.488.195-.488.488V17.91c0 .293.195.489.488.489m12.114-.977h-5.275V6.676h5.275ZM6.178 6.676h5.373v10.746H6.178ZM7.741 8.63H9.89c.293 0 .488-.196.488-.489s-.293-.488-.488-.488H7.741c-.293 0-.489.195-.489.488s.196.489.489.489m2.149 6.936H7.741c-.293 0-.489.195-.489.488s.196.489.489.489H9.89c.293 0 .488-.196.488-.489s-.293-.488-.488-.488m4.298-6.936h2.15c.293 0 .488-.196.488-.489s-.195-.488-.488-.488h-2.15c-.293 0-.488.195-.488.488s.195.489.488.489m2.15 6.936h-2.15c-.293 0-.488.195-.488.488s.195.489.488.489h2.15c.293 0 .488-.196.488-.489s-.195-.488-.488-.488"/></svg>