<svg xmlns="http://www.w3.org/2000/svg" viewBox="0 0 24 24"><path fill="#44739e" d="m18.934 7.182-.209-.524c-.524-1.467-.733-1.886-2.2-2.724-1.676-.943-2.619-.524-2.724-.419l-.628.314c-.838-.628-3.143-2.409-4.714-2.723-2.305-.419-3.038.523-3.143.838-.21.419-.524 1.466-.629 2.2v.209c-.104 1.152-.523 4.819.315 6.914.838 2.2 1.885 4.086 4.295 7.124 2.723 3.457 3.561 4.19 4.085 4.399.21.105.524.21.838.21.419 0 .943-.21 1.467-.733.943-.838 1.048-2.2 1.048-2.829v-3.143c0-.523-.105-1.152-.105-1.676h.524c.523-.104 1.571-.419 1.676-.523 0 0 .104 0 .104-.105.105-.105.524-.419.524-1.362v-.21c.105-.733.105-3.352-.524-5.237M7.202 3.934h.209c.524 0 1.467.524 2.2 1.152 1.257.838 2.619 1.886 3.352 3.772.314.838.734 4.085.734 4.399 0 0-.105.105-.105.21-.105.314-.419.838-.419 1.571 0 .838.524 1.467.733 1.886 0 .838 0 2.305-.105 2.724 0 .209-.104.419-.209.419h-.105c-.419-.21-1.467-1.153-2.619-2.514S7.097 12 6.573 10.639c-.419-1.572-.629-3.457-.524-4.296v-.209c.21-.733.524-1.99 1.153-2.2"/></svg>