<svg xmlns="http://www.w3.org/2000/svg" viewBox="0 0 24 24"><path fill="#44739e" d="M12.528 6.676v10.746h5.275V6.676Zm3.81 9.867h-2.15c-.293 0-.488-.196-.488-.489s.195-.488.488-.488h2.15c.293 0 .488.195.488.488s-.195.489-.488.489m0-7.913h-2.15c-.293 0-.488-.196-.488-.489s.195-.488.488-.488h2.15c.293 0 .488.195.488.488s-.195.489-.488.489M6.178 6.676v10.746h5.373V6.676Zm3.712 9.867H7.741c-.293 0-.489-.196-.489-.489s.196-.488.489-.488H9.89c.293 0 .488.195.488.488s-.293.489-.488.489m0-7.913H7.741c-.293 0-.489-.196-.489-.489s.196-.488.489-.488H9.89c.293 0 .488.195.488.488s-.293.489-.488.489m12.7-7.62H1.488c-.195 0-.488.293-.488.488v21.004c0 .293.195.488.488.488h21.004c.293 0 .489-.195.489-.488V1.498c.097-.195-.196-.488-.391-.488m-3.322 16.998c0 .586-.39.977-.977.977H5.592c-.587 0-.977-.391-.977-.977V6.285c0-.586.39-.977.977-.977h12.602c.586 0 .977.391.977.977v11.723Z"/></svg>