<svg xmlns="http://www.w3.org/2000/svg" fill="#44739e" viewBox="0 0 24 24"><path d="M19.9 6.2c-.2-.1-.5-.2-.7-.3-1.5-.7-5.4-1.6-8-1.7-2.6-.2-5.9.5-7.5.9-1.8.4-2.2 1.8-2.2 1.8 0 .1 0 .3-.1.4-.1.5-.2 1.2-.1 3.8s1 5.1 1.5 6.4c.1.3.2.6.2.8.3.9 1.6 1.6 2.6 1.7.3 0 .6.1 1 .1.8 0 1.8-.1 3.9-.3 3-.3 7-1.6 8-2.2s1.7-1.7 2.7-4.2c.2-.5.4-.9.5-1.2.6-1.4.8-1.9.8-2.8 0-2-1.3-2.6-2.6-3.2M3.7 13c.1-.3.2-.6.3-.7.1-.3 0-.6-.1-.8s-.3-.3-.6-.4c-.5-.1-.5-.1-.5-.5 0 0-.3-1.9.6-3.2q.75-.9 2.1-1.2c1.7-.3 3.4-.4 4.9-.4 3.6 0 6.7.7 9.2 2.1.8.6 1.1 1.4.9 2.6-.4 2.6-2.8 5.7-4.1 6.2-1.5.7-7 1.8-9.1 1.7-2.2-.1-2.8-.7-3.3-1.8s-.7-2.2-.7-2.4c-.1-.1.2-.7.4-1.2"/></svg>