<svg xmlns="http://www.w3.org/2000/svg" viewBox="0 0 24 24"><path fill="#44739e" d="M11.995 3.375c-5.356 0-9.724 4.398-9.724 9.812S6.629 23 11.995 23s9.725-4.398 9.725-9.813c0-5.404-4.359-9.812-9.725-9.812m4.388 17.465c-3.264 1.886-7.662 1.29-8.981-.518-.479-.665-.636-1.427-.46-2.277.313-1.495 1.632-3.001 3.607-4.144 1.358-.782 3.059-1.212 4.652-1.212.733 0 1.446.088 2.101.274 1.026.303 1.789.821 2.131 1.475.909 1.711.332 4.438-3.05 6.402M12.699 3.414V1h-.978v2.394c-5.228.147-9.441 4.477-9.441 9.793C2.28 18.602 6.639 23 12.005 23s9.724-4.398 9.724-9.813c-.009-5.17-3.997-9.411-9.03-9.773m3.684 17.426c-3.264 1.886-7.662 1.29-8.981-.518-.479-.665-.636-1.427-.46-2.277.313-1.495 1.632-3.001 3.607-4.144 1.358-.782 3.059-1.212 4.652-1.212.733 0 1.446.088 2.101.274 1.026.303 1.789.821 2.131 1.475.909 1.711.332 4.438-3.05 6.402"/></svg>