<svg xmlns="http://www.w3.org/2000/svg" viewBox="0 0 24 24"><path fill="#44739e" d="M5.447 23h-.054l-.172-.181-.175-.18-.212-.322-.213-.321-.226-.396-.226-.396-.357-.72-.357-.719-.163-.396-.164-.397-.083-.236-.082-.234-.113-.452-.113-.452-.074-.371-.075-.372-.062-.434-.062-.434-.028-.384-.03-.384.014-.317.015-.317.063-.113.063-.113.113-.101.113-.1.253-.15.253-.152.305-.144.306-.145.411-.175.411-.174.853-.326.853-.327.372-.151.372-.149.186-.093.185-.094.057-.052.055-.053v-.066l-.045-.017-.046-.041-.088-.031-.084-.026-.667-.014-.671-.017-.067-.043-.066-.044v-.101l.106-.046.105-.045.369-.054.369-.055.139-.036.139-.036.127-.058.125-.057.271-.272.271-.272.211-.106.211-.102.252-.087.252-.087.113-.054.113-.054.112-.085.113-.086.137-.207.137-.205.141-.306.147-.308.112-.31.113-.309.083-.286.083-.285.031-.154.03-.155-.011-.134-.011-.133-.068-.139-.068-.139-.139-.181-.14-.179-.381-.406-.382-.405-.072-.113-.072-.113v-.182l.079-.103.071-.1.195-.126.194-.131.297-.142.298-.144.409-.174.409-.174.645-.266.644-.265.434-.16.433-.16.769-.256.768-.257.844-.26.842-.26.757-.226.755-.226.732-.202.731-.203.624-.158.623-.158.356-.074.355-.073.151-.017.153-.017.016.026.017.027-.031.049-.03.048-.169.113-.168.113-.316.16-.317.162-.539.238-.538.238-.577.234-.576.233-.791.301-.79.302-.631.262-.633.262-.545.246-.545.247-.385.195-.384.196-.207.123-.206.124-.12.091-.119.091-.032.06-.032.059.032.226.032.226.013.348.005.358-.065.558-.066.557-.048.265-.05.264-.059.182-.059.181-.039.149-.038.149-.031.292-.03.291.029.304.03.302.05.197.052.195.07.139.07.14.113.154.113.153.154.133.153.134.119.08.118.08.113.054.113.054h3.112l.248.042.248.043.128.04.129.04.052.049.053.048-.009.03-.01.028-.063.03-.062.032-.183.024-.184.023-.486.039-.486.037-.192.037-.192.037-.078.046-.078.045-.008.053-.007.053.081.044.083.045.868.013.87.012.066.044.068.044v.052l-.025.045-.024.044-.103.042-.103.042-.268.027-.266.028-1.484-.029-1.484-.026-.247-.025-.248-.024-.226-.037-.226-.037-.08-.023-.08-.023-.05.167-.05.167-.279.044-.279.045-.298.02-.297.021-.225.052-.226.053-.472.013-.471.015-.304-.041-.292-.048-.217-.015-.217-.015-.197.067-.199.065-.276.145-.276.146-.298.188-.298.189-.319.226-.318.225-.322.251-.323.251-.339.288-.339.288-.204.215-.204.216-.085.178-.085.179-.039.179-.041.18-.026.316-.026.316.016.311.016.309.037.533.037.533-.018 1.206-.034 1.202.029.397.028.396.041.137.04.136.049.1.049.098.135.213.133.214.015.075.014.075-.057.04-.058.04Z"/></svg>