<svg xmlns="http://www.w3.org/2000/svg" viewBox="0 0 24 24"><path fill="#44739e" d="M22.707 10.347a16.2 16.2 0 0 0-2.132-.576c-.356-.074-1.382-.323-5.557-1.349q-2.995-.737-5.984-1.5a6.16 6.16 0 0 0-.899-.185 2.29 2.29 0 0 0-.633.203 23.6 23.6 0 0 0-3.52 1.98 15.7 15.7 0 0 0-2.937 2.42.913.913 0 0 0 .077.742.98.98 0 0 0 .33.182 1.25 1.25 0 0 1 .344.176 1.7 1.7 0 0 0 .316.198c.201.097.22.129.262.369a.687.687 0 0 1-.017.433l.382-.007c-.049-.052-.066-.084-.037-.07a3.3 3.3 0 0 0 .617.254c.035 0 .517.153 1.073.34s1.759.583 2.677.88c2.061.66 6.38 2.09 6.773 2.232a1.896 1.896 0 0 0 1.535-.146 21 21 0 0 0 2.108-1.247.079.079 0 0 1 .072-.045.88.88 0 0 0 .242-.151 20.8 20.8 0 0 1 2.082-1.181 1.56 1.56 0 0 0 .319-.165 1.22 1.22 0 0 1 .612-.147 4.2 4.2 0 0 0 .721-.122.81.81 0 0 1 .297-.06c.022.013.076-.005.12-.04a5.2 5.2 0 0 0 .746-1.045c.405-.894.404-2.113.008-2.373Zm-6.125 5.241c-1.627 1.03-1.6 1.018-2.146 1.012a2.695 2.695 0 0 1-1.058-.22 10 10 0 0 1-1.084-.403 1.4 1.4 0 0 0-.29-.092 3.2 3.2 0 0 1-.712-.202.57.57 0 0 0-.187-.071 6 6 0 0 1-.688-.226q-.448-.152-.9-.289c-.392-.121-.797-.253-.899-.291a5.7 5.7 0 0 0-.424-.132 3.9 3.9 0 0 1-.413-.132.9.9 0 0 0-.268-.075.26.26 0 0 1-.143-.044 1.54 1.54 0 0 0-.341-.134 14.3 14.3 0 0 1-1.364-.44.97.97 0 0 0-.253-.066.43.43 0 0 1-.171-.049 11.3 11.3 0 0 0-.807-.27 6.24 6.24 0 0 1-1.527-.528c.018 0 .349.094.737.209q1.43.419 2.85.902a1.54 1.54 0 0 0 .26.082 1.32 1.32 0 0 1 .264.083c.044.023.581.202 1.191.396 1.697.542 2.366.759 2.541.822.088.033.337.11.556.182s.466.151.55.182q.88.312 1.771.594a2.06 2.06 0 0 0 .898.176c.311-.043.44-.077.405-.11-.015-.017.11-.095.275-.174a4.5 4.5 0 0 0 .755-.529 6.2 6.2 0 0 1 .823-.583c.359-.198.733-.534.597-.537-.037 0-.007-.047.066-.11a9.6 9.6 0 0 1 .929-.584c.068 0-.149.324-.253.379a3.1 3.1 0 0 0-.781.561c0 .034.185-.047.411-.18.599-.354.696-.432.728-.589.082-.405.141-.535.275-.622l.146-.092-.124.135c-.132.145-.137.319-.007.343a2.09 2.09 0 0 0 .55-.286c.704-.44.905-.51 1.32-.44.394.071.471.176.09.126-.407-.055-.374-.072-4.155 2.322Zm4.483-1.777a1.63 1.63 0 0 1-.344 0c-.094-.011-.017-.021.172-.021s.266.01.172.021m1.499-1.1a3 3 0 0 1-.416.567c-.28.302-.282.303-.47.24-.225-.074-.344-.199-.568-.599-.22-.383-.383-.517-.647-.517-.378 0-.66.146-1.828.94-.483.33-2.102 1.659-2.875 2.361a1.76 1.76 0 0 1-1.297.585 6.66 6.66 0 0 1-1.879-.495q-3.008-.974-6.019-1.934c-2.483-.795-4.599-1.499-4.709-1.566a1.13 1.13 0 0 0-.294-.137.603.603 0 0 1-.431-.726 20.3 20.3 0 0 1 3.251-2.61 19.25 19.25 0 0 1 3.704-1.98 4.5 4.5 0 0 1 .635.124c.277.068.574.151.66.187.189.071 10.543 2.639 10.832 2.683.11.017.2.044.2.064a2.46 2.46 0 0 1-.951.468 15.07 15.07 0 0 1-2.566-.566Q8.612 7.699 8.451 7.644c-.103-.039-.061-.071.319-.249a1.22 1.22 0 0 0 .382-.22 2.4 2.4 0 0 0-.798.38c-.11.135.116.22 1.768.635 1.58.399 2.962.751 6.964 1.772 1.262.321 2.2.535 2.357.535a1.217 1.217 0 0 0 .682-.242 2.75 2.75 0 0 1 .583-.27 8.17 8.17 0 0 1 1.931.485 1.606 1.606 0 0 1 .264.897 3.76 3.76 0 0 1-.339 1.339Zm-1.415-1.623a46.2 46.2 0 0 0-4.839 3.771c-1.036.898-1.261 1.027-1.813 1.041a11.46 11.46 0 0 1-2.47-.686c-1.193-.38-3.645-1.16-5.45-1.732l-4.154-1.32c-1.1-.35-1.182-.372-1.155-.288s.088.121 1.551.577c.756.237 1.804.568 2.328.737s1.24.396 1.589.504c.88.272 3.662 1.15 4.525 1.43 2.547.825 2.97.941 3.3.914a2.354 2.354 0 0 0 1.298-.648q1.383-1.222 2.859-2.331c.161-.115.566-.423.9-.685a20.13 20.13 0 0 1 2.816-1.862c.052.014.081 0 .066-.022a.33.33 0 0 0-.207-.049c-.134 0-.389.14-1.145.649Zm-17.032-.336c.123 0 .124-.007.026-.052-.073-.034-.012-.041.194-.02.185.019.312.009.33-.026s0-.056-.044-.056a.86.86 0 0 1-.228-.056c-.132-.051-.139-.064-.057-.11a.194.194 0 0 1 .189 0 .236.236 0 0 0 .236-.02 1.2 1.2 0 0 1 .235-.091c.051-.011-.076-.022-.284-.026a1.01 1.01 0 0 0-.44.052.22.22 0 0 0-.058.123c0 .035-.086.093-.192.128-.14.046-.171.076-.119.11a.44.44 0 0 0 .212.044m5.33 2.337a.95.95 0 0 0 .279-.185c.23-.192.229-.254 0-.094-.205.142-.343.279-.279.279m-4.828-2.915a.187.187 0 0 0 .149.05c.11 0 .11-.006.011-.05-.145-.062-.198-.062-.16 0m9.95 7.085a2.15 2.15 0 0 0 .476-.053l-.841.052a3.3 3.3 0 0 0 .365 0ZM3.754 11.18c-.253-.08-.207-.168.062-.125a.4.4 0 0 0 .33-.098l.166-.122h-.25a1.17 1.17 0 0 0-.506.12c-.378.182-.384.21-.066.282.381.08.583.041.264-.057m1.512-1.15.395-.266a2.75 2.75 0 0 1 .371-.22c.103-.042.084-.051-.124-.053a.746.746 0 0 0-.503.169 2.9 2.9 0 0 1-.569.277l-.311.11.297.042c.253.03.322.022.44-.059m3.375 5.42c.582.19 1.87.608 2.86.928s1.98.653 2.2.74a1.6 1.6 0 0 0 .503.14L2.753 13.429a25.6 25.6 0 0 0 3.375 1.2Zm5.927-6.784c2.86.713 5.29 1.295 5.39 1.294s-.124-.079-.539-.183c-3.884-.971-9.696-2.42-9.845-2.454a.62.62 0 0 0-.291 0c-.087.033-.088.041-.014.044.047 0 2.432.586 5.298 1.299m-.571 5.815c.136-.05.516-.39.432-.388a1.01 1.01 0 0 0-.3.214c-.128.116-.187.195-.132.174m-.26-1.162.22-.175a1.76 1.76 0 0 0 .22-.187.46.46 0 0 0-.159-.035.49.49 0 0 0-.304.068c-.286.179-.484.403-.455.512.035.134-.366.49-.55.49-.11 0-.119.011-.064.079.11.13.2.097.482-.168.174-.162.258-.28.242-.341-.025-.096.144-.279.415-.449l.158-.099-.101.157Zm1.38.136a.254.254 0 0 0 .172-.169c0-.077-.291-.044-.424.047a7.37 7.37 0 0 0-1.018.94c-.089.127-.049.11.184-.103.492-.44 1.171-.927 1.076-.77-.017.03-.017.057.01.057M8.938 7.445c.057.058 10.593 2.677 10.748 2.672.187 0-10.427-2.69-10.643-2.693-.07 0-.119.009-.11.022Zm-.374.132c0 .031.045.058.1.058s.609.129 1.232.288c6.554 1.669 9.328 2.357 9.498 2.354.22 0-.483-.19-6.731-1.76-4.026-1.017-4.1-1.029-4.1-.941Zm6.23 4.742a4.1 4.1 0 0 1 .623-.469c.062-.017.029-.03-.082-.033-.162 0-.252.05-.671.418-.351.307-.525.423-.634.426-.13 0-.136.009-.044.049.207.089.293.048.808-.391m.4.707-.152.044h.18c.178 0 .535-.17.535-.264 0-.026-.006-.045-.013-.041a1.1 1.1 0 0 1-.12.033.57.57 0 0 0-.192.101.73.73 0 0 1-.238.127m-3.12.426a2.2 2.2 0 0 0 .299-.318 1.1 1.1 0 0 0-.186.083 1.74 1.74 0 0 0-.317.242.84.84 0 0 1-.303.187c-.175.044-.142.131.047.131.092 0 .235-.099.46-.316Zm-.416-1.422.11.045a.73.73 0 0 0 .134.05 2.86 2.86 0 0 0 .392-.235c.281-.185.33-.238.235-.237a1.045 1.045 0 0 0-.392.183 1.18 1.18 0 0 1-.369.188Zm2.037-.063c.2-.175.22-.209.125-.209a.935.935 0 0 0-.37.229c-.297.267-.44.352-.611.359-.102 0-.093.014.049.059.19.062.33-.01.807-.44m-4.306.918a3.2 3.2 0 0 0 .307-.275.35.35 0 0 1 .151-.109 1.32 1.32 0 0 0 .304-.187.65.65 0 0 1 .33-.157c.041.016.131-.033.2-.11l.125-.133h-.16a.825.825 0 0 0-.366.14 6.55 6.55 0 0 0-1.037.88c-.046.088-.011.074.146-.049m1.892-1.363a4.1 4.1 0 0 1 .49-.341c.184-.095.19-.11.073-.11a.77.77 0 0 0-.292.082 2 2 0 0 0-.318.23.935.935 0 0 1-.579.33c-.172.008-.16 0-.03.055.189.071.33.019.66-.244Zm.827 1.51c0 .08.119.055.235-.051.161-.145.429-.308.382-.232-.059.095.095.085.176-.011.132-.158-.074-.246-.291-.124a1.83 1.83 0 0 0-.502.418m-.519-.577a.393.393 0 0 0 .22-.102l.151-.121h-.176a.79.79 0 0 0-.39.14c-.337.22-.456.351-.379.4.053.033.052.042 0 .043s-.055.022-.038.05c.041.066-.413.431-.55.44s-.142.074 0 .119a.3.3 0 0 0 .23-.046c.198-.128.704-.628.574-.564-.093.044-.119.042-.119-.017-.01-.091.378-.365.477-.342"/></svg>