<svg xmlns="http://www.w3.org/2000/svg" viewBox="0 0 24 24"><path fill="#44739e" d="M4.505 1.668c-.234.097-.22.044-.879 3.409-.186.912-.385 1.945-.462 2.294q-.197.976-.385 1.953c-.139.723-.352 1.818-.475 2.43s-.337 1.705-.478 2.43-.284 1.46-.321 1.635-.118.583-.179.909-.132.682-.157.794c-.198.93-.198.93-.12 1.084a.55.55 0 0 0 .22.212c.132.061 3.283.704 4.135.845.389.064.363.139-.039.103l-.226-.018.182.061a3.7 3.7 0 0 0 .5.11 19.6 19.6 0 0 1 1.999.386 9.1 9.1 0 0 0 1.001.206c.349.055.891.156 1.202.231s.858.195 1.21.267.74.163.869.199c.209.059.565.132 2.444.511.323.066.711.134.863.155s.51.078.797.126.82.124 1.182.167.791.11.953.145a2.09 2.09 0 0 0 .671.037c.359-.029.374-.035.374-.142a.62.62 0 0 1 .064-.234 9.17 9.17 0 0 0 .33-1.575q.372-2.112.748-4.224c.355-2.061.318-1.921.549-2.128.11-.101.22-.164.264-.149.173.056.721.22.865.256.213.055.487.053.522 0 .015-.026-.044-.044-.147-.044-.306 0-1.302-.318-1.23-.39a.29.29 0 0 1 .15.022c.072.022.265.074.429.118s.427.119.589.166l.295.088.08-.099a.373.373 0 0 0 .06-.44c-.101-.2-.211-.257-.753-.394a3.1 3.1 0 0 1-.549-.173 1.96 1.96 0 0 1-.404-.808c0-.084.103-.735.229-1.447s.269-1.517.316-1.792l.154-.88c.07-.385.231-1.309.275-1.569.051-.3.165-.934.253-1.4.185-.996.187-.99-.931-1.421-.3-.11-.679-.261-.841-.33a2.22 2.22 0 0 0-.942-.137 5.8 5.8 0 0 0-.649 0c0 .009-.041.262-.091.561l-.132.795c-.022.135-.06.342-.086.454-.038.183-.071.365-.099.55s-.08.464-.11.614-.064.317-.088.476q-.042.286-.099.569c-.041.2-.088.465-.11.589l-.11.638q-.063.33-.11.66c-.017.137-.072.412-.11.613-.042.22-.079.439-.11.659a2.4 2.4 0 0 1-.088.423.88.88 0 0 0-.05.26 1.87 1.87 0 0 1-.044.33c-.08.366-.143.693-.182.943a7.5 7.5 0 0 1-.184 1.016 1.02 1.02 0 0 0-.044.276 1.12 1.12 0 0 1-.04.277q-.071.291-.116.587c-.04.249-.102.587-.137.75q-.066.315-.11.635c-.022.188-.079.463-.11.613s-.073.354-.085.454-.057.366-.099.591-.09.511-.11.635c-.022.146-.049.29-.081.433-.04.181-.074.365-.101.55s-.081.474-.11.635-.095.501-.137.751-.095.529-.119.621c-.052.213-.268.446-.414.446-.062 0-.468-.072-.902-.161q-2.188-.446-4.377-.88c-1.972-.393-3.781-.77-4.019-.818q-1.498-.34-3.008-.633c-.99-.198-1.849-.388-1.899-.42-.143-.088-.159-.242-.074-.693.043-.225.11-.563.14-.75s.088-.453.116-.591.08-.385.11-.549.176-.89.319-1.615.394-2.023.564-2.884.385-1.955.477-2.43l.208-1.067q.406-2.008.792-4.02a12 12 0 0 1 .503-2.219.43.43 0 0 1 .235-.117c.207-.036 4.132.055 5.829.136a6.6 6.6 0 0 0 1.341.008c.11-.041.061-.049-.33-.053-.256 0-.66-.022-.88-.046q-1.368-.092-2.738-.11c-1.264-.024-2.52-.057-2.795-.068a2.66 2.66 0 0 0-.599.022m7.442.287c-.055.11-.598 2.954-.598 3.134a.189.189 0 0 0 .083.163c.059.033 1.923.185 2.269.185.119 0 .198-.293.458-1.681.152-.811.292-1.526.313-1.589l.038-.11.99.017c.549.009 1.086.033 1.198.055q.594.157 1.176.355a4.01 4.01 0 0 1 1.1.44c.11.101.13.11.13.044 0-.173-.22-.283-1.256-.616l-1.037-.33-1.121-.034q-.614-.013-1.226-.058c-.063-.011-.647-.033-1.3-.044-1.184-.022-1.188-.022-1.236.077m1.668.06c.561.027.641.039.572.091s-.08.061.014.061c.126 0 .128.064.011.684a19.6 19.6 0 0 1-.489 2.411 3.44 3.44 0 0 1-.951 0c-1.286-.074-1.286-.074-1.286-.227 0-.134.24-1.481.428-2.412l.117-.575a5.92 5.92 0 0 1 1.584-.031m3.332.364a.11.11 0 0 0-.056.1c0 .044-.163.957-.361 2.029-.354 1.913-.605 3.288-2.199 11.995-.44 2.377-.814 4.364-.843 4.417-.044.083-.038.096.035.096a.22.22 0 0 0 .15-.079c.057-.073.055-.074-.02-.016s-.077.055-.036-.047c.025-.061.161-.753.3-1.54s.294-1.634.341-1.885q.516-2.804 1.026-5.609c.033-.189.44-2.385.893-4.883l.83-4.546.271.082c.374.11.429.077.071-.044-.308-.11-.312-.11-.4-.07m-5.037 1.017a.66.66 0 0 1-.048.15c-.077.183-.069.44.011.44a.48.48 0 0 1 .147.03c.081.028.081.026 0-.061a.313.313 0 0 1 .028-.44.31.31 0 0 1 .156-.074c.099 0 .11-.011.049-.044s-.354-.044-.347 0m7.809.078c.364.025.59.168.59.37s-.1.259-.399.165a2.17 2.17 0 0 1-.691-.297c.007-.06.017-.119.029-.179.022-.11.046-.137.102-.11a1.87 1.87 0 0 0 .369.051m-.401.06c.012.083.085.128.373.232a1.11 1.11 0 0 0 .385.099c.016-.016 0-.039-.029-.05s-.047-.035-.035-.055-.095-.07-.238-.11a2 2 0 0 1-.366-.147c-.1-.063-.104-.061-.09.036m1.147-.008c.147.162.058.22-.095.06-.11-.117-.127-.148-.064-.148a.266.266 0 0 1 .159.088m-6.672.11a.452.452 0 0 0-.008.462c.054.074.065.044.086-.254a1.8 1.8 0 0 0 .008-.352c-.011-.007-.049.059-.086.149M12.19 3.64c-.083.11-.096.29-.028.33.026.014.044-.015.044-.064 0-.118.095-.323.149-.323.022 0 .029.036.017.08s-.035.141-.049.22l-.025.136.071-.153a.53.53 0 0 0 .055-.227c-.022-.11-.154-.11-.234 0m8.519.209c0 .092-.11.748-.238 1.462q-.59 3.374-1.199 6.743c-.136.754-.33 1.826-.429 2.388l-.363 2.046-.533 2.936q-.173 1.02-.385 2.032c-.024.066-.029.117 0 .117a.045.045 0 0 0 .044-.046c0-.069.19-.055.88.072.349.063.66.117.693.121.099.007.058.079-.047.079-.056 0-.398-.052-.76-.11a4.3 4.3 0 0 0-.806-.086c-.172.033-.167.053-.081-.403.038-.194.363-2.012.726-4.042l1.177-6.599.618-3.452.351-1.939a14.6 14.6 0 0 0 .229-1.513c-.023-.119-.02-.121.049-.053a.335.335 0 0 1 .068.242m-8.182-.18a.44.44 0 0 0-.047.174.41.41 0 0 1-.071.184c-.066.095-.066.102.022.102.06 0 .094-.03.095-.08 0-.137.093-.424.13-.401a.495.495 0 0 1 0 .253c-.018.131-.011.22.011.185a.63.63 0 0 0 .049-.261c.007-.174-.008-.22-.068-.235a.131.131 0 0 0-.126.074m.369-.027c-.066.085-.143.44-.095.44.022 0 .063-.089.092-.202.093-.369.176-.292.088.082-.028.125-.025.168.014.154.071-.022.121-.453.055-.495s-.099-.044-.154.022m.341.028a.267.267 0 0 0 0 .376.24.24 0 0 0 .036.03l.11.05-.076-.132c-.07-.126-.07-.143 0-.272.086-.151.046-.181-.07-.052m.286.03c-.088.095-.099.137-.063.235a.44.44 0 0 0 .156.191c.11.07.11.07.033-.022a.338.338 0 0 1-.007-.418c.094-.136.014-.126-.119.014m5.838.392a5.4 5.4 0 0 1 .51.187c.277.11.33.153.33.242 0 .22-.187.22-.852-.033-.189-.069-.238-.11-.238-.187 0-.055.015-.079.033-.055a3.18 3.18 0 0 0 .862.278c.026-.026-.201-.132-.587-.273a.83.83 0 0 1-.266-.143c-.066-.079-.033-.082.207-.016m2.911 1.426q-.129.723-.257 1.444c-.094.55-.124.719-.424 2.409q-.251 1.419-.495 2.838c-.013.085-.022.074-.024-.047a13.3 13.3 0 0 1 .242-1.589l.231-1.294.22-1.272.297-1.658c.127-.713.255-1.438.286-1.613s.058-.275.066-.22a9.6 9.6 0 0 1-.141 1m-2.706-.687c.449.15.583.244.539.378s-.211.145-.678-.022c-.403-.145-.44-.165-.44-.277 0-.085.011-.101.04-.057a3.74 3.74 0 0 0 .888.323c.11 0-.084-.11-.385-.207-.33-.11-.451-.18-.451-.249 0-.049.054-.037.487.11m-.424.44c.033.069.149.135.351.203.446.151.502.187.486.33-.022.181-.244.184-.709.007-.33-.128-.374-.154-.374-.261s.009-.11.059-.048a3.23 3.23 0 0 0 .86.311c.11 0-.127-.124-.426-.22-.352-.11-.397-.157-.391-.36 0-.156.05-.143.143.041m-.133.616c.007.055.088.11.235.165l.413.15c.301.11.308.383.01.383a2.22 2.22 0 0 1-.905-.345c0-.08-.022-.083.395.044.195.06.404.121.464.135.22.05-.005-.092-.268-.173a3.3 3.3 0 0 1-.35-.125.33.33 0 0 1-.125-.356c.039-.064.11 0 .131.121m-.11.63a.407.407 0 0 0 .259.181c.56.205.612.237.596.372-.02.176-.193.183-.673.022-.33-.11-.387-.143-.396-.237 0-.061 0-.084.016-.053a.102.102 0 0 0 .084.057 3.1 3.1 0 0 1 .407.11 3 3 0 0 0 .402.11c.116 0-.132-.138-.387-.209-.363-.101-.48-.199-.454-.376.022-.152.085-.143.147.018m-.132.612c.042.11.099.151.409.253.358.121.495.206.495.311s-.101.165-.228.165a2.33 2.33 0 0 1-.77-.256c-.039-.033-.081-.053-.092-.041s-.024-.022-.028-.071.009-.081.048-.052a1.03 1.03 0 0 0 .237.095c.099.028.281.082.401.12.379.116.22-.027-.176-.159-.292-.097-.369-.143-.402-.236s-.014-.264.042-.264c.014 0 .047.06.073.132m-.097.638c0 .117.073.163.44.275s.44.169.415.329-.22.154-.624.017a3.7 3.7 0 0 0-.371-.115c-.019 0-.019.054 0 .124.033.13.085.154.649.352.227.081.312.208.22.319-.077.094-.196.087-.616-.038-.239-.071-.363-.132-.374-.181-.019-.095 0-.094.355.016a2.2 2.2 0 0 0 .385.09c.158 0 .012-.08-.33-.18-.39-.11-.451-.189-.37-.456.029-.099.077-.183.103-.183a3.4 3.4 0 0 1 .39.11c.322.102.44.11.39.031a1.21 1.21 0 0 0-.319-.117c-.391-.11-.516-.203-.49-.381.022-.149.147-.154.147-.008m-.209 1.32c.035.071.155.137.4.22.4.134.459.178.44.33s-.189.159-.651.018c-.255-.077-.385-.14-.385-.184 0-.088.009-.086.432.041a1.57 1.57 0 0 0 .396.088c.075-.044-.022-.097-.33-.176-.37-.096-.536-.231-.462-.374a.187.187 0 0 0 .035-.11c-.007-.01 0-.006.03.014a.56.56 0 0 1 .095.138m-.152.581c0 .119.073.167.385.256a2.8 2.8 0 0 1 .398.143c.205.102.14.33-.095.33a3.15 3.15 0 0 1-.813-.24c-.066-.055-.073-.019-.015.089a1.1 1.1 0 0 1 .064.151c.014.045.16.11.389.177.399.11.473.17.451.33-.011.077-.049.11-.147.121-.235.024-.891-.187-.891-.291 0-.046.099-.033.415.052a1.63 1.63 0 0 0 .44.086c.044-.043-.088-.11-.419-.19-.376-.097-.451-.18-.392-.44a.58.58 0 0 0 .022-.209 1.83 1.83 0 0 1 .418.099 2.34 2.34 0 0 0 .459.11c.05-.051-.056-.11-.341-.185-.419-.11-.512-.186-.451-.351.055-.146.12-.168.12-.042m-.209 1.333c.038.077.161.139.459.239.418.14.504.22.384.365-.08.097-.293.082-.69-.051-.499-.165-.467-.283.036-.134.123.036.294.078.379.092.29.051.071-.098-.267-.18-.363-.088-.474-.184-.43-.361.033-.131.052-.128.13.03m-.06.717a1.14 1.14 0 0 0 .393.156c.352.088.432.147.41.308-.013.088-.046.11-.198.116a1.744 1.744 0 0 1-.827-.248c-.022-.066.23-.033.505.061.206.072.345.077.345.018a1.33 1.33 0 0 0-.511-.184.85.85 0 0 1-.19-.07c-.11-.052-.148-.097-.14-.171.025-.242.025-.242.081-.149a1.16 1.16 0 0 0 .128.165m-.187.55c0 .101.146.176.522.264s.493.252.273.391c-.163.103-1.082-.16-.968-.277a1.21 1.21 0 0 1 .374.066 2.7 2.7 0 0 0 .447.095c.096 0 .097 0 .02-.064a1.63 1.63 0 0 0-.396-.139c-.354-.087-.462-.176-.405-.33.049-.127.132-.132.132-.008m3.706.887c.13.102.058.103-.22 0-.227-.082-.28-.12-.271-.191.007-.05.025-.196.04-.33l.028-.234.184.347a2.28 2.28 0 0 0 .242.399m-3.795-.178c0 .033.11.09.26.13.506.138.578.176.594.298.022.209-.087.244-.46.155-.432-.11-.651-.196-.597-.251.026-.026.171-.009.382.046.368.096.591.117.521.049a2.15 2.15 0 0 0-.418-.141 1.58 1.58 0 0 1-.42-.156.305.305 0 0 1-.018-.207c.026-.138.033-.143.09-.066a.31.31 0 0 1 .062.143m3.156.422a1.51 1.51 0 0 1-.154.61.95.95 0 0 1 .024-.373c.033-.22.062-.466.063-.55 0-.153.007-.154.051-.044a.96.96 0 0 1 .016.363m1.353-.076c.412.11.624.246.624.403 0 .136-.121.145-.515.036a2.44 2.44 0 0 0-.495-.096c-.132.007-.173-.071-.063-.11a4.6 4.6 0 0 1 .953.233c.066.027.08.017.068-.048s-.11-.11-.382-.183a1.54 1.54 0 0 1-.679-.292c-.042-.068.049-.057.489.06m-4.644.22c0 .118.079.165.453.269.411.11.492.18.418.341-.062.138-.139.143-.561.033-.307-.081-.415-.075-.44.026-.016.081.158.176.44.239.412.092.568.257.385.409a1.63 1.63 0 0 1-.858-.127c-.291-.11-.088-.149.33-.057a1.06 1.06 0 0 0 .393.045c.033-.051.011-.061-.462-.18-.357-.09-.412-.117-.398-.191.038-.194.077-.262.149-.263s.064-.009.014-.04-.055-.06-.046-.086.135-.014.33.038c.346.089.587.11.55.046a1.82 1.82 0 0 0-.431-.14c-.357-.088-.407-.11-.434-.22a.22.22 0 0 1 .019-.17c.025-.031.033-.072.014-.088s0-.02.045 0a.129.129 0 0 1 .077.11m2.902 1.929-.317 1.795c-.051.288.033-.2 0 0-.301 1.759-.778 4.414-.825 4.564-.08.26-.18.342-.411.342a23.3 23.3 0 0 1-3.065-.521c-.093-.092.293-.11.866-.051.33.036.361.033.46-.06l.11-.099.022.11c.014.077 0 .11-.035.089a.074.074 0 0 0-.088.027.415.415 0 0 1-.238.049c-.115 0-.2.008-.189.019s.55.097 1.194.191c1.146.165 1.177.167 1.238.083.077-.11.11-.253.238-.997.055-.33.139-.805.187-1.067.311-1.736.385-2.147.567-3.203l.132-.75.136-.794c.134-.792.193-1.052.227-1.017.011.012-.084.59-.207 1.29m-3.117-.614c-.026.101.074.162.378.228.451.099.583.212.449.396-.055.072-.085.073-.393.017-.487-.088-.513-.087-.53.028-.011.088.022.11.25.172.59.163.697.244.55.416-.061.074-.086.073-.737-.013-.211-.026-.22-.022-.203.081s.062.121.393.205c.422.11.477.143.455.291s-.154.174-.55.097c-.297-.057-.363-.058-.394-.007-.064.104 0 .17.22.226.638.165.742.242.57.414-.095.094-.099.094-.465.019-.39-.079-.461-.069-.461.066 0 .096.037.11.439.207.349.082.422.13.422.277s-.151.177-.455.11-.486-.065-.523 0q-.086.137.415.249c.33.075.472.154.472.268s-.131.174-.329.148l-.429-.059c-.236-.03-.239-.029-.239.086s.022.123.366.198c.448.096.52.143.48.305-.027.11-.055.121-.205.121a2.8 2.8 0 0 1-.407-.044c-.27-.052-.372-.027-.372.09 0 .09.016.099.473.201.364.083.44.129.412.262-.038.193-.11.202-.677.077-.499-.11-.469-.11-.492.014-.018.088-.022.085-.027-.022-.007-.163.126-.197.508-.131a3.2 3.2 0 0 0 .422.049c.206 0 .049-.074-.296-.138a1.6 1.6 0 0 1-.42-.128l-.12-.074.081-.168c.045-.093.07-.18.056-.193-.042-.043.292-.027.531.023a1.28 1.28 0 0 0 .33.033c.089-.014.083-.022-.055-.068s-.278-.076-.42-.104c-.295-.059-.431-.154-.352-.251a.207.207 0 0 0 .037-.143c-.008-.046.011-.077.04-.072s.044-.016.033-.049c-.031-.077.068-.077.449 0 .357.072.44.077.44.025a3.26 3.26 0 0 0-.913-.209c-.02.012-.008-.075.029-.195s.066-.219.066-.23.026 0 .057.019.044.017 0-.038c-.091-.116-.013-.121.421-.03a1.16 1.16 0 0 0 .447.045c.022-.022-.062-.062-.203-.094a9 9 0 0 1-.48-.126c-.212-.062-.236-.082-.206-.167a.65.65 0 0 0 .029-.193c0-.066.016-.093.059-.076s.055 0 .035-.049c-.033-.09.014-.09.369-.005.308.075.587.09.476.027a3.6 3.6 0 0 0-.451-.134 3.2 3.2 0 0 1-.404-.119c-.039-.039.086-.39.13-.363.022.012.033 0 .018-.044s-.044-.072-.066-.072a.046.046 0 0 1-.042-.051c0-.033.019-.036.057-.008a2.19 2.19 0 0 0 .86.159c.03-.03-.074-.072-.312-.121-.462-.104-.528-.152-.49-.36.022-.124.046-.154.11-.132s.066.018.011-.05c-.033-.042-.055-.085-.044-.093a1.23 1.23 0 0 1 .29.044c.501.11.613.125.613.077a.75.75 0 0 0-.33-.126c-.352-.085-.579-.182-.579-.244 0-.102.121-.26.182-.239s.057.009.011-.046c-.088-.11-.028-.121.275-.059.44.095.577.11.577.068s-.205-.11-.517-.161a.74.74 0 0 1-.293-.132c-.11-.092-.11-.117-.066-.22.062-.135.198-.121.161.014m-13.594.059a8 8 0 0 0-.22 1.033c0 .022.031.052.069.066s.09-.018.137-.128a1 1 0 0 1 .18-.272c.11-.11.11-.12.041-.229-.083-.126-.06-.25.046-.25a.17.17 0 0 0 .127-.204v-.011a.31.31 0 0 0-.18-.072c-.11-.019-.158 0-.196.066m1.21.226a3.03 3.03 0 0 0-.211.88c0 .066.026.11.066.11.088 0 .11-.052.154-.279.033-.201.151-.323.232-.241.033.033.03.166-.008.419-.055.374-.028.498.088.425a1.01 1.01 0 0 0 .127-.371.726.726 0 0 1 .22-.47c.132-.119.136-.136.066-.187a1.01 1.01 0 0 0-.534-.088.054.054 0 0 0-.012.074c.018.028.009.036-.022.016s-.053-.007-.053.023-.011.044-.026.03a.33.33 0 0 1 .018-.181c.058-.209 0-.311-.099-.163m.91.024a.172.172 0 0 0 .037.24l.029.017c.091.025.088.041-.11.409-.11.212-.209.396-.209.408s.097.05.359.099c.213.04.324-.179.116-.23-.062-.016-.11-.053-.11-.082a2.3 2.3 0 0 1 .205-.402c.11-.192.205-.358.205-.369a1.9 1.9 0 0 0-.44-.12.11.11 0 0 0-.069.03m-1.66.11a4.6 4.6 0 0 0-.121.533c-.066.36-.07.431-.016.464.094.058.121 0 .176-.329.057-.367.117-.536.187-.536.034 0 .041.051.022.148a1.69 1.69 0 0 0-.051.653c.029.156.033.159.117.084.064-.058.086-.138.085-.311a3.4 3.4 0 0 1 .029-.44c.033-.233-.011-.296-.242-.341-.121-.025-.149-.011-.185.078m2.25.392a3.3 3.3 0 0 0-.099.44.86.86 0 0 1-.081.294c-.029.038 0 .019.072-.041a.363.363 0 0 0 .125-.182 2.23 2.23 0 0 1 .089-.359c.11-.344.11-.371.026-.371-.037 0-.093.091-.132.22m3.569.697a.176.176 0 0 0-.007.249.19.19 0 0 0 .051.037 1.053 1.053 0 0 0 .693.073.202.202 0 0 0 .014-.287.2.2 0 0 0-.048-.023 1.21 1.21 0 0 0-.715-.04m.726.169c.093.094-.017.154-.227.121-.255-.037-.425-.11-.389-.171a1.11 1.11 0 0 1 .616.05m6.001 3.753c.426.081.539.137.52.262-.026.169-.136.198-.52.132-.45-.075-.611-.132-.516-.185a1.06 1.06 0 0 1 .406.026c.308.059.509.055.44-.007a3 3 0 0 0-.44-.11 1.25 1.25 0 0 1-.439-.135c-.022-.071.133-.068.549.011m-.148.643c.506.095.558.126.521.308-.053.259-.11.282-.561.22a1.6 1.6 0 0 1-.44-.11c-.03-.033.009-.041.138-.022.589.084.638.085.699.011s.051-.073 0-.074-.048-.009 0-.044.047-.048-.044-.083a2.1 2.1 0 0 0-.339-.073c-.27-.039-.523-.121-.523-.172s.126-.044.55.035m.007.294c.143.028.253.066.239.088a.87.87 0 0 1-.352-.026 7 7 0 0 0-.367-.063c-.021 0-.025-.02-.01-.044s.071-.037.126-.025l.36.071"/></svg>