<svg xmlns="http://www.w3.org/2000/svg" viewBox="0 0 24 24"><path fill="#44739e" d="M9.64 13.839a1.43 1.43 0 0 1 .415.177c.242.148.33.171.454.122s.066-.41-.08-.507c-.066-.044-.147-.038-.374.034a1.24 1.24 0 0 1-.491.034c-.204-.019-.293-.012-.293.022s.05.066.369.118m5.032 1.641a1.28 1.28 0 0 1-.149.21c-.11.119-.17.305-.104.305a.55.55 0 0 0 .393-.338 2.8 2.8 0 0 0 .199-.447l-.148.085a.6.6 0 0 0-.191.185m-5.515-.121c.838.398.941.43.941.294s-.123-.207-.757-.457a3.47 3.47 0 0 1-.642-.298c-.021-.032-.038-.038-.038-.014-.002.146.191.33.496.475M22.89 9.403a1.92 1.92 0 0 0-.668-1.258 4.482 4.482 0 0 0-2.661-.921c-.362-.006-.412.007-1.722.44l-1.459.44a3.6 3.6 0 0 0-.453.065c-.299.057-.355.057-.463 0a5.06 5.06 0 0 1-.629-.67 3.29 3.29 0 0 0-.669-.686 3.16 3.16 0 0 0-1.014-.11 9.8 9.8 0 0 1-.99-.077 2.33 2.33 0 0 0-.858.11l-.087.029.087-.074a1.056 1.056 0 0 1 .77-.194c.302 0 .389-.014.352-.051a1.826 1.826 0 0 0-.812-.045 1.6 1.6 0 0 0-.284.141c-.142.088-.255.11-.861.149a3.5 3.5 0 0 0-.813.11 7.1 7.1 0 0 0-.913.966c-.033.058-.026.076.032.076a1.17 1.17 0 0 0 .344-.284 2.5 2.5 0 0 1 .298-.278c.13 0-.194.507-.4.627a1.87 1.87 0 0 1-.47.044c-.381 0-.414.012-.604.146a.81.81 0 0 1-.28.141 4.4 4.4 0 0 1-.55-.149 12.1 12.1 0 0 0-2.385-.635 5.96 5.96 0 0 0-2.709.783 1.99 1.99 0 0 0-.895 1.27 2.75 2.75 0 0 1-.069.462 1.6 1.6 0 0 0 .071 1.037 1.97 1.97 0 0 0 .713.743c.084.035.673.19 1.309.345l1.35.371a10 10 0 0 0 1.334.452c2.144.609 2.121.604 2.231.476.141-.165.145-.211.011-.124l-.129.082.083-.092a.47.47 0 0 1 .169-.121c.068-.022.074-.035.026-.065a.42.42 0 0 0-.175-.04.88.88 0 0 1-.55-.248l-.092-.115-.031.097a.583.583 0 0 0 .092.459c.09.09.023.084-.137-.014a.45.45 0 0 1-.19-.285 1.06 1.06 0 0 0-.133-.295l-.069-.092-.071.11a.256.256 0 0 0-.031.253.31.31 0 0 1 .017.168c-.047.045-.275-.254-.322-.42-.07-.249-.138-.313-.354-.33a.95.95 0 0 1-.288-.067 2.4 2.4 0 0 0-.212-.096c-.11-.04-.11-.036-.064.022a.183.183 0 0 0 .11.067.46.46 0 0 1 .175.133c.075.079.152.122.191.11s.054-.011.019.03-.029.103.011.22c.031.09.042.164.024.164-.082 0-.258-.19-.321-.344a.68.68 0 0 0-.201-.265c-.073-.052-.132-.121-.132-.153 0-.09-.175-.116-.207-.03a.194.194 0 0 1-.171.137c-.028 0-.123-.1-.211-.22a.77.77 0 0 0-.246-.245c-.048-.013-.076-.049-.064-.079s-.072-.086-.237-.135l-.44-.133c-.103-.034-.372-.093-.588-.132a1.372 1.372 0 0 1-.834-.33 1.16 1.16 0 0 0-.66-.255h-.103l.086.168c.087.171.198.238.482.291a1.9 1.9 0 0 1 .48.15.385.385 0 0 0 .153.029 1.5 1.5 0 0 1 .304.059 2.4 2.4 0 0 0 .391.075.89.89 0 0 1 .322.092.55.55 0 0 0 .17.079c.093.014.124.059.04.059a.075.075 0 0 0-.072.078c0 .059.07.096.301.155a1.05 1.05 0 0 1 .357.143.563.563 0 0 0 .422.179c.105-.016.131.01.235.22l.117.232-.118-.067a.7.7 0 0 1-.176-.129 1.21 1.21 0 0 0-.3-.179 1.93 1.93 0 0 1-.312-.172 1.375 1.375 0 0 0-.568-.164.5.5 0 0 0 .098.134l.098.11-.149-.084a.44.44 0 0 1-.209-.266.42.42 0 0 0-.118-.203 1.18 1.18 0 0 0-.356.06 2.23 2.23 0 0 1-.453.081c-.147 0-.142-.006.087-.087.391-.138.384-.131.24-.196-.262-.115-.428-.059-.524.178-.03.074-.04.062-.065-.073-.04-.22-.11-.29-.298-.322a3.1 3.1 0 0 1-.391-.11 1.46 1.46 0 0 0-.405-.083.33.33 0 0 1-.278-.11 1.286 1.286 0 0 1 .083-1.437 1.14 1.14 0 0 0 .126-.209c.017-.046.051-.066.079-.048s.04.013.023-.015c-.085-.138.623-.567 1.179-.713a1.754 1.754 0 0 1 1.21.065l.763.202.482.134a2.8 2.8 0 0 0 .338.083c.033 0 .052-.08.052-.22 0-.241-.103-.392-.266-.392a1.73 1.73 0 0 1-.33-.07 1.83 1.83 0 0 0-.791-.019l-.684.069c-.11.016-.103.009.044-.047a4.3 4.3 0 0 1 .807-.11 1.77 1.77 0 0 1 .937.056c.22.072.317.129.347.2.025.054.057.098.073.098s.021.044.01.098c-.017.09-.015.09.021.011s.046-.06.091.11c.1.368.159.401.485.282a2.05 2.05 0 0 1 1.152-.154 6.8 6.8 0 0 1 1.106.2 3.6 3.6 0 0 1-1.195-.11c-.567-.098-1.056.195-.77.458.066.06.125.07.284.045s.2-.017.2.033c0 .153.339.287.414.165.017-.029.058-.027.116 0 .098.053.214.041.647-.066l.806-.179a1.32 1.32 0 0 1 .817-.038 1.4 1.4 0 0 1 .295.09 1.87 1.87 0 0 1-.382-.009 2.07 2.07 0 0 0-.904.11 4.95 4.95 0 0 1-.624.14c-.083 0-.098.017-.087.11.023.201.126.191 1.561-.149a1.8 1.8 0 0 1 1.024-.072c.073.042.042.051-.197.052a5.3 5.3 0 0 0-1.067.206 4.43 4.43 0 0 1-1.09.203c-.349 0-.33.007.31.204l.398.121.619-.154.618-.155.32.094.363.092a1.35 1.35 0 0 0 .287-.189l.25-.193-.24-.048c-.253-.051-.381-.03-1.639.275-.405.098-.88.148-.813.086.026-.027 1.466-.37 1.923-.459a.97.97 0 0 1 .567.012 1.06 1.06 0 0 0 .288.052c.059-.059-.174-.151-.696-.279l-.937-.239-.784-.198a5.5 5.5 0 0 1-.577-.158.77.77 0 0 0-.247-.058.187.187 0 0 1-.13-.036c-.043-.07.417.023 1.586.318l.959.242a6.1 6.1 0 0 1 .77.226c.039.032.055.025.055-.023a.127.127 0 0 0-.047-.098.077.077 0 0 1-.023-.091c.015-.035.006-.052-.018-.036s-.043 0-.043-.042a.068.068 0 0 1 .055-.073c.122-.01-.355-.135-.557-.146a1.26 1.26 0 0 1-.37-.082l-.152-.069.173.025c.097.015.162.013.146-.005a5.9 5.9 0 0 0-1.015-.241.42.42 0 0 1-.214-.083.47.47 0 0 0-.229-.092.95.95 0 0 1-.233-.042c-.097-.034-.094-.037.037-.024l.148.013-.104-.078a.44.44 0 0 0-.425-.089.69.69 0 0 1-.275.044H8.42l.169-.054a1.54 1.54 0 0 0 .266-.11.449.449 0 0 1 .497.11c.22.229.275.094.261-.603-.013-.65-.007-.746.066-.838.058-.076.064.011.054.831l-.01.915.196.024a10.5 10.5 0 0 1 1.893.52 4.6 4.6 0 0 1 .046.399l.029.33-.298.242-.492.387a.777.777 0 0 0-.296.414 2.67 2.67 0 0 1-.804.996c-.11.077-.196.149-.187.159s-.048.01-.128 0-.158 0-.175.031a.11.11 0 0 1-.081.048c-.073 0 .455-.348.537-.353.035 0-.012-.022-.11-.044-.157-.038-.192-.027-.44.133a2.64 2.64 0 0 1-.417.227l-.15.051.151.055c.147.054.148.055.029.059a.77.77 0 0 1-.284-.081c-.139-.071-.172-.116-.22-.308-.063-.246-.036-.349.04-.148.067.177.171.278.282.278a2.4 2.4 0 0 0 1.061-.859c.041-.076.035-.094-.041-.11a2.18 2.18 0 0 0-.718.101.8.8 0 0 1-.245.043.581.581 0 0 0-.45.264c-.014.046-.045.085-.067.085s-.035.121-.03.267c.012.31-.062.388-.142.15-.052-.161-.118-.194-.209-.104s-.066.144.073.425a.7.7 0 0 1 .104.367c-.027.144.031.147.163 0a.38.38 0 0 1 .141-.11c.04 0-.092.264-.156.31a.1.1 0 0 0-.037.066.7.7 0 0 1-.04.139c-.072.187-.04.471.133 1.21a4.25 4.25 0 0 0 .393 1.257 2.22 2.22 0 0 1 .155.701 2.13 2.13 0 0 0 .146.675 3.45 3.45 0 0 0 1.21.598 6.16 6.16 0 0 0 4.043-.345c.508-.264.536-.309.572-.956a1.815 1.815 0 0 1 .138-.77l.149-.337c.051-.135.35-1.752.35-1.894a.517.517 0 0 0-.131-.251.54.54 0 0 1-.131-.22c0-.064-.079-.068-.77-.046a7.4 7.4 0 0 1-.88-.006c-.104-.03-.099-.038.153-.24.405-.323.409-.324.709-.142s.711.306.759.231c.018-.028.088.015.18.11.164.174.204.171.204-.017 0-.133.278-.56.364-.559a.77.77 0 0 1 .148.026c.11.031.136.11.021.077-.097-.024-.39.405-.322.473.093.094.255 0 .343-.209.047-.11.103-.196.124-.193.095.015.056-.088-.055-.146a1.38 1.38 0 0 1-.272-.221.576.576 0 0 0-.201-.156c-.079 0-.181.14-.22.294-.016.078-.048.142-.07.142-.073 0-.042-.281.046-.426s.166-.175.26-.087c.032.03-.181-.19-.472-.49-.525-.539-.624-.691-.541-.822a1.5 1.5 0 0 1 .453-.194c.672-.204.66-.197.364-.2a.63.63 0 0 0-.322.051c-.042.038-.05.038-.029 0 .044-.081-.073-.125-.849-.321a3.04 3.04 0 0 0-.998-.161l-.284.02.253-.081c.283-.089.307-.086 1.21.133l.821.199c.348.085.4.07.464-.14.023-.08.012-.098-.057-.098-.047 0-.354-.068-.683-.151a1.67 1.67 0 0 0-.835-.11 1.26 1.26 0 0 1-.312.029c-.083-.017.46-.164.607-.164.052 0 .431.08.841.177 1.011.241 1.469.261 1.392.059-.016-.039-.087-.062-.196-.062a.68.68 0 0 1-.267-.051 4.07 4.07 0 0 0-1.1-.198l-.392-.026.195-.05a1.4 1.4 0 0 1 .501-.011 3.5 3.5 0 0 0 .611.012l.61-.041a3 3 0 0 0 .447-.048c.089-.021.142-.018.142.01 0 .098-.287.163-.675.153s-.39-.008-.265.06a1.52 1.52 0 0 0 .415.11l.394.06c.168.037.238-.035.239-.253v-.181l.152.082c.176.094.277.11.252.027a1.03 1.03 0 0 0-.386-.153 2.33 2.33 0 0 0-1.238.007l-.524.065c-.178 0 .096-.077.577-.156a2.54 2.54 0 0 1 1.419.047c.368.12.386.122.468.047a.693.693 0 0 0 .157-.481c-.027-.07-.081-.061-.55.086-.564.178-.602.125-.049-.065.588-.201.698-.212.704-.073 0 .089.008.09.027.011.031-.133.048-.142.507-.261a2.42 2.42 0 0 1 .968-.087c.803.035.852.095.083.101a2.7 2.7 0 0 0-.951.103c-.165.053-.277.11-.251.11a.069.069 0 0 1 .048.057c0 .024-.038.021-.091-.008-.135-.073-.197-.025-.252.194-.035.139-.068.191-.11.175a.076.076 0 0 0-.089.023c-.042.068.249.058.44-.016a2 2 0 0 1 .362-.088c.273-.037.466-.16.455-.291s.036-.21.065-.085c.048.201.137.209.621.047a2.75 2.75 0 0 0 .473-.179c.02-.045.33.035.603.157.354.157.264.179-.154.037-.321-.11-.37-.11-.496-.062a.8.8 0 0 1-.249.058c-.059 0-.085.009-.054.02s.031.063-.038.187c-.054.096-.118.157-.15.145s-.035-.057.032-.17c.048-.083.075-.15.059-.15a1.54 1.54 0 0 0-.232.11.94.94 0 0 1-.284.11.55.55 0 0 0-.196.061 2.53 2.53 0 0 1-.401.128l-.537.157a1.43 1.43 0 0 1-.285.079c-.044-.015-.268.17-.241.199a1.12 1.12 0 0 1-.44.083c-.026 0-.081.027-.122.072-.071.079-.068.082.091.049a1.43 1.43 0 0 0 .608-.239.078.078 0 0 1 .094-.036 1.08 1.08 0 0 0 .33-.054c.99-.279 1.256-.324 1.411-.24a1.78 1.78 0 0 1 .287.33c.198.269.433.456.495.395.015-.015-.016-.038-.067-.052-.093-.023-.093-.025-.01-.11.102-.11.079-.158-.065-.131-.247.047-.079-.079.466-.353a3.6 3.6 0 0 1 .689-.289c.078 0 .16.058.277.199l.167.2-.126-.016c-.103-.013-.131-.043-.163-.179-.039-.17-.145-.22-.29-.12-.058.037-.056.043.006.043s.094.067.131.183a.289.289 0 0 0 .211.236c.084.03.131.057.11.059s-.075.064-.11.138l-.063.136-.121-.183c-.099-.148-.132-.173-.183-.13s-.05.076.033.22c.129.23.204.288.383.304a.54.54 0 0 1 .22.058c.05.038.056.03.026-.042a1.053 1.053 0 0 1-.081-.55c.026-.026.08.097.147.34s.129.386.176.395.065-.015.039-.174a1.87 1.87 0 0 0-.103-.349.83.83 0 0 1-.071-.252.904.904 0 0 0-.316-.538 4.95 4.95 0 0 0-1.638-.686l-.696-.191c-.077-.078.096-.065.55.04a5.2 5.2 0 0 1 1.244.375 1.05 1.05 0 0 0 .282.11c.009-.01-.05-.069-.13-.13a2.11 2.11 0 0 0-.581-.227 3.1 3.1 0 0 1-.481-.153c-.026-.022-.06-.026-.075-.012s-.009-.034.013-.11c.034-.12.028-.136-.046-.136s-.084.031-.085.12v.12l-.084-.11-.15-.184c-.039-.041-.048-.086-.027-.099a.045.045 0 0 1 .063.013.42.42 0 0 0 .22.041 3.86 3.86 0 0 1 1.246.476 2.9 2.9 0 0 1 .643.646l.067.131-.147-.131a2.2 2.2 0 0 1-.179-.175c-.021-.028-.033-.024-.033.009a.117.117 0 0 0 .054.087c.118.076.22.234.362.585.412.99.358 1.396-.267 2.031-.206.208-.289.274-.22.17a.81.81 0 0 0 .136-.295l.014-.125-.176.089a.524.524 0 0 0-.199.152.35.35 0 0 1-.183.11 1.06 1.06 0 0 0-.402.22c-.014.019-.061 0-.11-.054a.351.351 0 0 0-.479.021c-.12.097-.123.11-.044.133l.195.065.196.059c.048.012-.042.016-.199.006a1.23 1.23 0 0 1-.417-.093c-.202-.116-.347-.057-.464.189a.677.677 0 0 1-.249.292l-.153.088.098-.124c.177-.227.11-.386-.17-.401-.13-.005-.204.014-.242.063-.101.134-.069.174.11.133.357-.082.507-.01.181.087a1.43 1.43 0 0 0-.352.178 1.02 1.02 0 0 1-.297.153.385.385 0 0 0-.182.096 1.66 1.66 0 0 1-.405.275c-.012 0 .027-.071.086-.159.12-.176.134-.275.054-.359-.044-.044-.033-.05.056-.028s.138 0 .251-.127.13-.155.056-.155a.273.273 0 0 0-.168.11.44.44 0 0 1-.242.135c-.142.026-.179.065-.34.347a.87.87 0 0 1-.33.386l-.144.068.11-.161a.42.42 0 0 0 .091-.259c-.012-.064 0-.099.04-.099.066 0 .082-.155.021-.193-.097-.059-.345.11-.499.342a1.47 1.47 0 0 0-.16.281c0 .068-.179.267-.241.267s-.042-.043.028-.207a1.38 1.38 0 0 1 .153-.278c.056-.062.055-.074-.006-.098-.093-.035-.37.237-.495.484a.644.644 0 0 1-.22.251l-.129.067.063-.12c.035-.066.104-.22.154-.344.077-.191.11-.22.186-.203s.092.02-.008-.054-.105-.072-.295.145a.7.7 0 0 1-.33.249l-.306.076-.165.047.143.152c.137.144.098.154-.064.016-.11-.09-.095 0 .015.138a.267.267 0 0 0 .212.116c.067 0 .698-.176 1.403-.391a16.1 16.1 0 0 0 2.02-.675c.145-.065.771-.253 1.395-.419l1.279-.369a2.51 2.51 0 0 0 .743-.713 1.854 1.854 0 0 0 .26-.829 5.5 5.5 0 0 0-.11-.701M1.665 11.418a1.25 1.25 0 0 1 .192.22 1.87 1.87 0 0 1-.236-.22 1.25 1.25 0 0 1-.193-.22 1.8 1.8 0 0 1 .237.22m3.204-3.52a.64.64 0 0 1-.098.234 4 4 0 0 1-.506.086l-.911.162c-.303.069-.46.087-.49.057a.271.271 0 0 1 0-.289c.033-.05.043-.031.043.077 0 .157.035.169.234.079a4.77 4.77 0 0 1 .88-.261l.273-.052c.053-.015.098-.008.098.018s-.064.054-.142.064l-.141.018.156.006c.154.007.455-.071.417-.11a.4.4 0 0 1 .012-.167c.035-.158 0-.193-.086-.088a.167.167 0 0 1-.124.057 1.25 1.25 0 0 0-.485.159c-.047.037-.055.036-.032 0s-.009-.045-.117-.028c-.084.013-.16 0-.177-.022a.087.087 0 0 0-.102-.019c-.058.022-.047.039.056.082l.13.053-.153.037c-.13.035-.158.029-.192-.041s-.081-.079-.206-.071c-.323.019-.211-.043.298-.164a4.3 4.3 0 0 1 .92-.131 2.3 2.3 0 0 0 .424-.033c.013-.013.053-.012.089 0s.047.037.025.052a.7.7 0 0 0-.093.236Zm1.581.923-.44-.119a.407.407 0 0 1-.2-.101c-.028-.074.33 0 .736.152.376.143.317.178-.096.068m-1.256-.899a.34.34 0 0 0 .079.191 15.4 15.4 0 0 0 1.535.488c.44.11.761.238.762.298a.03.03 0 0 1-.026.032c-.094 0-2.349-.747-2.394-.793a1.07 1.07 0 0 1-.082-.475c.013-.022.058-.03.098-.018l.617.178 1.909.611a1.2 1.2 0 0 1-.295-.069 2.9 2.9 0 0 0-.393-.099.56.56 0 0 1-.155-.038 3.5 3.5 0 0 0-.39-.1 7.3 7.3 0 0 1-.72-.208 3.85 3.85 0 0 0-.469-.144c-.092-.011-.099.001-.076.146m2.551 1.033c-.077-.047-.051-.457.028-.457a1 1 0 0 1 .015.242c0 .15-.017.232-.043.215m1.024.356a1 1 0 0 1 .458.027l.196.063h-.414a2.16 2.16 0 0 0-.534.049 1.94 1.94 0 0 1-.392.077 1.46 1.46 0 0 0-.391.088.33.33 0 0 1-.385-.007c-.031-.038-.038-.063-.016-.056a1.31 1.31 0 0 0 .541-.099c0-.025-.133-.038-.316-.031-.31.011-.73-.076-.73-.151 0-.021.042-.023.095-.007a4.3 4.3 0 0 0 .55.053 7.87 7.87 0 0 0 1.338-.006m-.063-1.023a1.56 1.56 0 0 1-.414.026l-.307-.013.151-.074a.569.569 0 0 1 .502-.029c.171.048.171.051.068.09m.787-.499a.704.704 0 0 0-.062.314c.025.093.023.093-.132.02-.088-.043-.144-.096-.127-.123a2.6 2.6 0 0 1 .39-.44.77.77 0 0 1-.069.229m1.626-.598a.424.424 0 0 1-.231.043c-.148 0-.186-.014-.139-.043.09-.057.408-.057.37 0m-.936 1.502a3.83 3.83 0 0 1 .027-1.242c.009 0 .016.286.016.635.003.413-.013.625-.04.607Zm.241-1.65c0 .098-.025.131-.101.141l-.097.014.095-.162.096-.162-.194.031a.73.73 0 0 0-.225.061 7.5 7.5 0 0 0-.08.88 5.4 5.4 0 0 1-.094.893c-.031.029-.036-.131-.016-.502.061-1.198.078-1.345.151-1.365a3.87 3.87 0 0 1 1.008.014.495.495 0 0 1-.212.043c-.139 0-.145.009-.128.133.012.083 0 .125-.027.117s-.053-.08-.061-.157c-.014-.176-.11-.159-.112.019Zm.536 1.702a.9.9 0 0 1-.022-.393l.028-.408c.001-.054.011-.098.023-.098a2.75 2.75 0 0 1 .02.491c0 .374-.009.469-.045.406Zm-.11-1.297-.251.028-.022.632c-.014.375-.037.609-.06.573a4.37 4.37 0 0 1 .075-1.222c.075-.061.598-.125.539-.065a1.01 1.01 0 0 1-.279.052Zm-1.915 4.013c.073 0 .122.044.175.154.1.212.092.22-.04.069a.374.374 0 0 0-.174-.135c-.033 0-.062-.019-.062-.044s.046-.044.101-.044m9.259-2.86c.052-.134.067.037.017.21l-.042.145v-.137a.67.67 0 0 1 .025-.218m-3.491-.976a6.5 6.5 0 0 1 .516.562c-.053.053-.425-.235-.638-.495-.5-.607-.436-.642.122-.068Zm-.985-.66a.234.234 0 0 1 .12.12.245.245 0 0 0 .158.121c.126.024.131.018.067-.1-.031-.058-.031-.085 0-.085s.05.026.062.185a.135.135 0 0 0 .03.077 1.69 1.69 0 0 1 .082 1.025c-.077.049-.086.008-.103-.44-.017-.516-.04-.583-.197-.583a.253.253 0 0 1-.274-.22c-.014-.102-.005-.121.055-.105Zm-2.367 1.026c-.01.102-.018.028-.018-.163s.008-.276.018-.186a2.3 2.3 0 0 1 0 .343Zm.056-.795c-.092-.049-.13-.306-.045-.306.024 0 .044.048.044.11 0 .101.018.11.338.134a5.2 5.2 0 0 0 .743.029c.175-.006.184-.012.118-.078a.149.149 0 0 1-.047-.133c.014-.035.005-.049-.021-.033a2.1 2.1 0 0 1-.469-.007c-.33-.027-.389-.041-.269-.063.23-.044.254-.044.28 0 .016.023.078.024.155 0a6.6 6.6 0 0 1 1.236.03c-.032.01-.042.079-.028.184s0 .178-.033.2-.044.017-.027-.011a.277.277 0 0 0-.04-.18.209.209 0 0 0-.22-.144l-.273-.016c-.11-.006-.123.007-.11.101.018.161.088.206.315.2.126 0 .173.005.12.025a10 10 0 0 1-1.767-.047Zm1.949 1.075c-.008.139-.016.036-.016-.228s.007-.377.015-.252a4.4 4.4 0 0 1 .001.48m-.383-1.154c0 .019-.017.033-.041.033s-.043-.054-.041-.12c0-.11.008-.11.041-.033a.8.8 0 0 1 .041.117Zm-.402 1.25c.025-.088.036-.065.061.126a.97.97 0 0 1 .007.295c-.079.207-.139-.166-.068-.421m-.587-.927c-.162-.008-.03-.015.293-.015s.457.007.295.015-.427.009-.588 0m-.033 3.2a3.5 3.5 0 0 1 .711.06c.284.067.467.143.43.179a1.7 1.7 0 0 1-.385-.073 2.3 2.3 0 0 0-.908-.064c-.357.019-.531.014-.502-.013.069-.069.189-.085.654-.089m-.283.945a.32.32 0 0 1-.069.119c-.038.047-.061.065-.05.041s.03-.078.045-.12c.028-.078.075-.103.075-.04Zm-1.304.291.103.196c.11.202.398.472.343.317a.6.6 0 0 0-.103-.164c-.099-.11-.185-.286-.158-.313s.063.019.11.069c.145.145.301.11.22-.049a.21.21 0 0 1-.02-.152c.021-.054.04-.048.11.033.095.117.22.089.22-.048 0-.097.073-.26.116-.26.014 0 .016.084 0 .186l-.021.187.253-.042a3.6 3.6 0 0 1 1.114.082.143.143 0 0 0 .174-.06c.118-.138.16-.11.129.083s0 .22.193.057l.14-.118-.032.11a.66.66 0 0 1-.11.194.64.64 0 0 0-.11.17c-.065.181.257-.137.33-.331l.074-.191v.173a.373.373 0 0 1-.136.316.506.506 0 0 1-.197.144.64.64 0 0 0-.22.146 1.243 1.243 0 0 1-.66.33 1.76 1.76 0 0 1-1.742-.641.33.33 0 0 1-.14-.277Zm2.986.6c.053.052-.469.464-.703.555a2.65 2.65 0 0 1-1.437.025 1.595 1.595 0 0 1-.692-.48c-.162-.21-.097-.195.191.045a1.49 1.49 0 0 0 1.133.43 1.576 1.576 0 0 0 1.08-.296c.191-.168.397-.304.428-.279m-4.353.167.492-.22c.118-.077.203-.046.475.171a2.05 2.05 0 0 1 .278.247c0 .016-.068.057-.163.09a3.22 3.22 0 0 1-.88.048c-.847-.016-.87-.053-.202-.336m1.1.709a.184.184 0 0 1-.077.142c-.068.042-.077.03-.082-.11s.008-.159.077-.14a.11.11 0 0 1 .083.108Zm-.873 0c0 .11-.014.163-.035.13-.033-.053-.016-.314.02-.314a.53.53 0 0 1 .017.179Zm4.665-.228c.024 0 .043.044.041.098a.58.58 0 0 1-.041.184c-.029.069-.037.047-.041-.098 0-.106.021-.19.042-.19Zm-.138.378a.685.685 0 0 0 .423.018 4.04 4.04 0 0 1 .686-.048c.44 0 .498.009.502.076a2.5 2.5 0 0 1-.123.709c-.019 0-.024.036-.012.081a3.93 3.93 0 0 1-.274 1.177 2.11 2.11 0 0 0-.162.757 1.9 1.9 0 0 1-.084.513c-.033 0-.024-.159.035-.621l.02-.164-.357.131a2.22 2.22 0 0 1-.49.131c-.128 0-.126 0 .061-.099a.398.398 0 0 0 .251-.276.43.43 0 0 1 .165-.236c.059-.032.11-.075.11-.097 0-.057-.154 0-.513.183a1.21 1.21 0 0 1-.315.138c0-.088.14-.178.701-.462.524-.265.635-.339.68-.45l.055-.134-.25.11-.66.295a1.144 1.144 0 0 0-.472.288c-.057.11-.058.11-.029-.025a.42.42 0 0 1 .079-.18 6 6 0 0 1 .618-.302c.634-.284.746-.363.77-.544.01-.068.007-.12-.006-.11l-.871.395a4.6 4.6 0 0 1-.48.198.081.081 0 0 0-.062.055c-.014.034-.023.028-.025-.017 0-.092.098-.157.607-.384.77-.347.865-.4.909-.526l.04-.119-.267.131-1.151.515c-.07.027-.099.022-.099-.017a3.34 3.34 0 0 1 .687-.374c.759-.354.839-.408.839-.556 0-.098-.013-.103-.324-.103a.85.85 0 0 0-.35.043.8.8 0 0 0-.048.2.77.77 0 0 1-.046.202 3.06 3.06 0 0 1-.699.34.144.144 0 0 0-.098.077c-.038.065-.045.066-.046.006 0-.089.092-.166.391-.321s.349-.194.349-.253c0-.09-.308.01-.562.183a.74.74 0 0 1-.493.182h-.231l.166.044c.286.076.306.147.276 1.004l-.046 1.21v.348a1.14 1.14 0 0 1 .047-.175.67.67 0 0 0 .051-.228c.009-.105.168-.097.201.01a.242.242 0 0 1-.152.284.123.123 0 0 0-.087.104.344.344 0 0 1-.11.182.803.803 0 0 0-.234.46c0 .066.01.065.091-.008a.99.99 0 0 1 .273-.15c.117-.044.185-.098.193-.153.035-.23.06-.298.092-.246.021.033.057-.043.093-.192l.059-.246.194.026a3.1 3.1 0 0 0 .319.027c.069 0 .124.019.124.042s-.029.031-.065.017a.86.86 0 0 0-.349.121l-.282.146v.44l-.388.14-.418.14a.28.28 0 0 1-.11-.095.37.37 0 0 0-.29-.11c-.33-.024-1.383-.038-1.447-.019a.33.33 0 0 0-.121.142c-.059.11-.058.126.01.126a.35.35 0 0 0 .178-.098c.097-.09.14-.097.568-.087a1.36 1.36 0 0 1 .561.076.484.484 0 0 0 .22.066.42.42 0 0 1 .187.043c.045.029-.022.042-.225.043s-.298-.018-.309-.052-.137-.057-.338-.065a.73.73 0 0 0-.468.074.69.69 0 0 1-.524.059c-.077-.021-.092-.047-.071-.13.038-.151-.09-.185-.226-.057l-.11.1-.304-.098a.8.8 0 0 1-.304-.138.044.044 0 0 0-.046-.042c-.025 0-.032.023-.016.05s.013.039-.018.02a.42.42 0 0 1-.051-.246v-.22l-.266-.134a.79.79 0 0 0-.33-.11.33.33 0 0 0-.119.158c-.057.134-.057.133-.11-.184l-.071-.527a1.94 1.94 0 0 0-.153-.487 6.05 6.05 0 0 1-.419-1.59.037.037 0 0 0-.025-.057c-.067-.022-.11-.47-.044-.47.028 0 .05.016.05.036a3.08 3.08 0 0 0 .675.033h.676v-.208c0-.27.078-.27.095 0 .013.192.021.205.123.191a1.16 1.16 0 0 0 .239-.069 4.43 4.43 0 0 1 1.512-.187 6.27 6.27 0 0 1 1.996.195Zm1.472-2.2a.44.44 0 0 1 .076.074c.053.059.057.08.016.08a.53.53 0 0 0-.196.102c-.117.086-.152.094-.237.05-.055-.03-.068-.044-.028-.033s.29-.17.37-.282Zm3.069-3.042a8.25 8.25 0 0 1-1.724.492c-.044-.017-.063-.094-.063-.244s-.017-.22-.066-.22-.065.052-.065.212a.44.44 0 0 1-.056.259 1.73 1.73 0 0 1-.404.117c-.72.146-3.397.855-3.562.943s-.034.091.253.014a3.135 3.135 0 0 1 1.67.195 6.7 6.7 0 0 0 .805.18c.137 0 .137 0 .03.047a.73.73 0 0 1-.284.026 12.7 12.7 0 0 1-1.547-.404l-.152-.067.11.086c.161.128.064.17-.13.058a.485.485 0 0 0-.49-.052l-.163.046.22.194a1 1 0 0 0 .271.194 2.75 2.75 0 0 0 .352-.095.91.91 0 0 1 .678-.017c.407.084.688.183.644.229a2.2 2.2 0 0 1-.507-.073 1.46 1.46 0 0 0-.62-.059l-.142.039.158.076a.85.85 0 0 0 .295.075 2.45 2.45 0 0 1 .77.177c.015.022-.049.042-.141.044a2.1 2.1 0 0 0-.275.022q-.11.018-.049-.02c.067-.043.036-.068-.133-.11-.065-.015-.129-.009-.143.014s.028.057.094.074l.122.031-.124.033a.419.419 0 0 1-.412-.146.627.627 0 0 0-.453-.207h-.144l.226.13a.65.65 0 0 1 .246.206l.048.197c.024.105.048.12.189.12a.57.57 0 0 1 .22.04.28.28 0 0 0 .214-.026.653.653 0 0 1 .44-.014c.373.066.57.128.57.177s-.054.05-.392-.025c-.409-.089-.61-.085-.61.013 0 .197.375.635.735.857.249.155.364.125.53-.138s.17-.185.019.11c-.207.412-.463.49-.887.269a1.93 1.93 0 0 0-.364-.153 1.987 1.987 0 0 1-.913-1.204c-.046-.228-.074-.274-.208-.356a3.74 3.74 0 0 1-.449-.376c-.33-.312-.336-.346-.244-.806a.55.55 0 0 1 .151-.33 3.08 3.08 0 0 1 .637-.22l.797-.227.845-.234c.508-.131.605-.144.748-.101a.77.77 0 0 0 .462-.022l.569-.11a5.7 5.7 0 0 0 .686-.175 3 3 0 0 1 .538-.135.31.31 0 0 0 .164-.037 5.5 5.5 0 0 1 .908-.33c.169-.047.271-.057.299-.029s-.014.06-.125.091c-.59.161-.734.213-.724.259.014.064-.2.149-.306.121a.54.54 0 0 0-.22.015l-.41.092c-.232.048-.274.071-.297.167a.57.57 0 0 1-.12.21c-.06.064-.072.098-.034.098.065 0 1.901-.541 2.137-.63.135-.051.155-.078.175-.248.047-.39.157-.406.138-.02-.017.323.092.257-1.01.602Zm.22-.34a.72.72 0 0 1-.33.138c-.011-.01.045-.05.124-.089.147-.083.204-.096.204-.058Zm3.225.747a5.17 5.17 0 0 1-1.297.384c-.055-.022.009-.06.229-.135l.371-.13c.04-.02-.044-.06-.207-.11-.324-.101-.37-.194-.075-.15a1.84 1.84 0 0 1 .353.095.72.72 0 0 0 .391.036c.133-.026.234-.022.234.001Zm-2.441 3.676a.77.77 0 0 1-.196.083c-.024 0 .025-.038.11-.083a.77.77 0 0 1 .196-.084c.022-.009-.026.029-.111.075Zm-9.924 3.72.124.031-.066-.13a.73.73 0 0 0-.138-.187.72.72 0 0 1-.132-.177.66.66 0 0 0-.22-.211l-.159-.094.162.295c.196.355.267.433.429.473m12.844-5.812a4.6 4.6 0 0 1-.48.057c-.238.017-.283.032-.283.098s.039.084.13.095a5.1 5.1 0 0 0 1.199-.266c-.002-.048-.318-.039-.566.016m-11.83 6.793a.187.187 0 0 1-.07-.11.424.424 0 0 0-.133-.171c-.158-.14-.161-.307-.008-.408.096-.063.098-.061.098.11a.345.345 0 0 0 .043.203c.027.017.044-.066.044-.22s-.016-.235-.034-.22-.034-.06-.036-.161l-.037-.904-.037-.724.103-.072.104-.072h-.1a1.03 1.03 0 0 1-.347-.159c-.244-.158-.66-.304-.66-.232s.152.181.484.33a.89.89 0 0 1 .344.22c0 .062-.07.082-.094.025a1.46 1.46 0 0 0-.33-.155c-.399-.155-.536-.262-.536-.416a.283.283 0 0 0-.052-.171 1.2 1.2 0 0 0-.668-.008c-.092.15.051.238 1.093.672.421.176.486.22.532.336l.051.137-.097-.091a5.4 5.4 0 0 0-.793-.381l-.731-.31c-.017-.011-.033 0-.033.028 0 .11.256.264.84.502a5.8 5.8 0 0 1 .696.318c.083.069.059.168-.024.11-.029-.021-.33-.153-.683-.293l-.692-.301c-.051-.039-.055-.028-.03.061.07.242.173.315.81.575a4.5 4.5 0 0 1 .703.33 1.094 1.094 0 0 1 .052.779c-.059.072-.063.073-.041 0 .052-.171-.053-.295-.386-.454-.361-.17-.512-.179-.272-.014a.374.374 0 0 1 .181.249.382.382 0 0 0 .359.275c.075 0 .075 0 0 .045-.055.033-.168.019-.414-.05a3.5 3.5 0 0 1-.42-.137c-.073-.039-.079-.032-.055.059a1.1 1.1 0 0 1 .029.211c0 .193.04.211.383.179.313-.029.317-.028.344.082a1.2 1.2 0 0 0 .125.266.91.91 0 0 1 .11.256c.011.073.084.13.281.22l.265.12-.098-.204a1.06 1.06 0 0 0-.163-.26m11.99-6.347c-.11.201-.11.202-.017.174a.59.59 0 0 0 .348-.37 1.3 1.3 0 0 0 .061-.173l-.143.084a.9.9 0 0 0-.249.285m-.611-1.546c.075 0 .075 0 0-.065-.119-.09-.186-.08-.312.045a.37.37 0 0 1-.196.11c-.162 0-.14.128.084.47.306.464.34.498.479.473.063-.012.231-.035.369-.05.354-.039.305-.127-.08-.144a.77.77 0 0 1-.371-.075 1.83 1.83 0 0 1-.289-.55c-.017-.073.19-.214.316-.214M19.1 11.952a.57.57 0 0 1 .12-.194c.03-.018.034-.033.01-.032a1.4 1.4 0 0 0-.277.261 1.18 1.18 0 0 0-.205.26.535.535 0 0 0 .352-.295m-7.857.791a1.551 1.551 0 0 0 1.533-.125l.245-.163-.079-.136a1.399 1.399 0 0 0-1.32-.391c-.373.062-.777.268-.783.399s.182.309.404.416m5.742-4.582c0-.038-.075 0-.18.085s-.123.205-.016.205c.05.004.196-.218.196-.29m-5.005 5.295c.01.049.061.08.145.087l.49.058c.33.045.371.042.492-.035l.132-.084-.448-.051c-.651-.075-.828-.07-.811.025m1.889-1.555.182.105.369.233c.229.156.362.203.449.154.05-.028-.017-.092-.278-.265-.283-.187-.379-.227-.534-.227Zm7.201-1.88a.175.175 0 0 0 .22.192c.11-.03.119-.052.029-.18s-.219-.126-.249-.012m-9.731 3.577a4.3 4.3 0 0 0 .448-.06c.038-.039-.049-.158-.11-.151l-.246.022-.534.062-.36.049.11.085a.245.245 0 0 0 .186.061c.037-.013.266-.044.506-.068m4.782-5.265a.28.28 0 0 0-.15.016 2.4 2.4 0 0 1-.454.061 6.85 6.85 0 0 0-1.685.421 3.6 3.6 0 0 1-.51.146 2.84 2.84 0 0 0-.825.282.24.24 0 0 0-.037.163l.014.1.086-.098a.417.417 0 0 1 .459-.053c.046.03 0 .042-.164.043-.128 0-.229.02-.229.045 0 .102.162.088.688-.058l2.212-.57a2.66 2.66 0 0 0 .678-.205.385.385 0 0 0 .039-.172c.001-.092-.022-.114-.122-.121m-2.17.735c-.097.096-.441.178-.392.091a.134.134 0 0 1 .11-.051.57.57 0 0 0 .205-.081c.154-.096.195-.078.077.041m.402-.047c-.098 0-.152-.017-.135-.044s.226-.017.279.028c.01.009-.055.016-.144.016m.387-.268c-.125 0-.123-.006.044-.061.233-.076.33-.076.196 0a.53.53 0 0 1-.24.061m1.141-.097a2.18 2.18 0 0 1-.728.168.047.047 0 0 0-.064.021.095.095 0 0 1-.072.045c-.072 0 .151-.22.225-.22.057 0 .057-.006 0-.041-.08-.052-.051-.065.348-.15.33-.073.375-.067.355.043a.286.286 0 0 1-.064.134m-1.875 3.111c.134 0 .14-.006.08-.077-.035-.042-.129-.174-.207-.292-.117-.18-.169-.22-.301-.245l-.16-.022.154.243c.223.349.271.393.434.393m-2.997 2.417c-.053-.031-.053-.026 0 .038a.26.26 0 0 0 .197.069h.136l-.135-.033a.88.88 0 0 1-.198-.074m1.258 2.975a.48.48 0 0 0 .174 0c.042-.011 0-.019-.098-.019s-.124.009-.076.019m-.338-3.492a2.4 2.4 0 0 0-.414.02l-.491.065c-.125.017-.229.048-.229.068a1.98 1.98 0 0 0 .615.316c.093.022.123.006.164-.085a.22.22 0 0 0 .023-.156c-.015-.024.021-.013.081.026.12.078.22.058.365-.071.092-.083.092-.082.071.028a.244.244 0 0 0 .033.177c.06.072.331.089.369.023a1.2 1.2 0 0 1 .241-.158c.119-.065.207-.132.196-.15a1.82 1.82 0 0 0-.446-.06Zm.715.497a.68.68 0 0 1-.22.085l-.173.044.21-.016c.21-.016.337-.079.257-.128a.07.07 0 0 0-.074.015m.639-.044a.937.937 0 0 0 .533-.244.72.72 0 0 1 .337-.13.58.58 0 0 0 .266-.084c.038-.047-.023-.057-.316-.052a3.96 3.96 0 0 1-.566-.031c-.2-.034-.207-.032-.294.11a.67.67 0 0 0-.09.288c-.003.131.009.143.13.143m2.676-4.401c-.017 0 .014.038.069.087a.374.374 0 0 0 .143.087c.023 0-.007-.04-.069-.087a.45.45 0 0 0-.143-.087M2.714 9.333c-.192-.097-.295-.116-.345-.065s-.028.089.145.167a.58.58 0 0 1 .175.099 3.2 3.2 0 0 1-.22.32l-.22.3h-.303c-.265 0-.401.048-.33.117a2.1 2.1 0 0 0 .386.046l.363.022.247-.307c.402-.504.409-.551.102-.699m-.689-.312a1.13 1.13 0 0 0-.179.12c-.11.081-.154.145-.141.199a.378.378 0 0 1-.123.24 1.4 1.4 0 0 0-.288.609c0 .101.079.051.174-.11.059-.102.11-.142.125-.111a.534.534 0 0 0 .427.052.76.76 0 0 0 .23-.233l.136-.198-.089-.088a.294.294 0 0 0-.133-.089c-.062 0 .072-.248.16-.297.059-.033.052-.043-.041-.061-.141-.026-.187 0-.244.152-.026.065-.074.119-.11.119a.55.55 0 0 0-.143.025c-.06.019-.052 0 .03-.076.126-.112.24-.253.209-.253m.016.567c.021 0 .036.024.035.054 0 .076-.12.33-.124.267-.008-.104.053-.318.089-.318Zm.44 1.064c.174-.055.064-.153-.201-.18l-.499-.059c-.389-.05-.574-.052-.574-.007a4.55 4.55 0 0 0 1.274.246m.149-.139a.396.396 0 0 1 .172-.119c.178-.073.229-.177.134-.273-.062-.062-.08-.056-.201.074a.407.407 0 0 0-.13.258c.002.063.013.09.025.06m-1.302.077c-.054 0-.083.031-.083.09a.528.528 0 0 0 .324.346c.06 0 .059-.018-.006-.163-.099-.229-.137-.273-.235-.273m1.778-.716c.067-.051.073-.074.029-.118s-.055-.041-.055.019a.069.069 0 0 1-.064.074c-.037 0-.065.019-.065.044 0 .061.056.053.155-.019m9.237-3.6c.11.031.188.067.175.08-.036.036.11.182.189.182.11 0-.205-.297-.36-.343a1.034 1.034 0 0 0-.559-.046c-.283.046-.52.171-.566.3-.035.099-.033.101.041.037a1.307 1.307 0 0 1 1.08-.21M3.262 8.931l-.233.073.234.054a2.1 2.1 0 0 0 .397.055c.142 0 .162-.014.162-.105 0-.178-.17-.201-.56-.077m.255.491c0-.126-.076-.171-.571-.337-.697-.235-.759-.187-.142.11.677.324.713.335.713.227m1.448 2.464a.605.605 0 0 0 .153.205c.11.044.074-.047-.086-.22l-.166-.175Zm-1.42-2.251c.126-.078.312-.353.237-.353-.018 0-.055.048-.082.11a.372.372 0 0 1-.378.22c-.084-.021-.103-.012-.083.04.034.089.141.083.306-.017m-.371-.814a1.47 1.47 0 0 1 .386-.074h.197l-.131-.058a.96.96 0 0 0-.697.029 2.04 2.04 0 0 1-.393.089c-.129 0-.129.005-.022.039a1.15 1.15 0 0 0 .66-.025m5.635 2.509a1.54 1.54 0 0 0 .237-.094 2.035 2.035 0 0 1 .857-.12l.653-.024.041-.15c.032-.11.099-.184.261-.283.185-.11.203-.136.12-.148a.726.726 0 0 0-.312.098 1 1 0 0 1-.36.11 3.2 3.2 0 0 0-.405.044l-.388.066c-.117.02-.123.015-.064-.044a2.27 2.27 0 0 1 .804-.199 1.13 1.13 0 0 0 .322-.081c.178-.071.184-.08.088-.11a1.455 1.455 0 0 0-.749.08l-.49.126c-.036.017-.064.006-.064-.018a.041.041 0 0 0-.036-.042c-.02 0-.028.055-.018.122.014.102-.027.165-.256.392a1.25 1.25 0 0 0-.241.275m10.639.178c-.068.03-.055.035.058.022a.5.5 0 0 0 .171-.043c.039-.039-.132-.026-.229.021M21.006 9.6c-.033-.044-.057-.052-.06-.021-.021.197-.015.205.137.22s.148.008.064-.056a.95.95 0 0 1-.141-.143m-5.945 1.186a4.3 4.3 0 0 0 .447.48q.513.5.03-.048c-.186-.211-.518-.51-.477-.432m-7.316 1.83c0 .12.153.302.22.261s.048-.133-.065-.254c-.133-.143-.155-.144-.155-.007M6.143 9.418c-.078.022-.142.058-.142.076a1.02 1.02 0 0 0 .471.155c.128.021.138.017.079-.04a.354.354 0 0 0-.209-.066c-.079 0-.125-.015-.101-.032s.086-.149.054-.138Zm3.892 2.084a2.24 2.24 0 0 0-.198.283c0 .04.173.029.26-.018a1.95 1.95 0 0 0 .394-.496c0-.015-.059-.027-.129-.027-.105-.003-.164.047-.327.258m9.706-.018c-.11.121-.125.195-.031.195a.065.065 0 0 1 .067.055c0 .03.035-.014.076-.098.066-.135.103-.159.336-.21l.613-.163.383-.11c.017 0 .059.064.091.141l.06.142.03-.163c.022-.117.053-.164.11-.164s.076-.025.058-.163c-.022-.159-.021-.16.038-.055.11.207.432.11.582-.182a.68.68 0 0 0 .062-.142c0-.044-.195-.013-.44.071-.157.053-.259.11-.275.165-.037.116-.26.235-.567.304a3.27 3.27 0 0 0-1.193.377M5.783 9.261c0-.056-.014-.057-.087-.012s-.137.037-.38-.04L3.83 8.803c-.014 0 .02.047.074.104s.08.117.058.131a.226.226 0 0 0-.066.116c-.024.088-.02.09.058.018.14-.125.66-.056 1.493.2.147.045.336-.017.336-.111"/></svg>