<svg xmlns="http://www.w3.org/2000/svg" viewBox="0 0 24 24"><path fill="#44739e" d="M12.719 11.317a2.53 2.53 0 0 0 .392-.12l.33-.119-.26-.027c-.399-.044-.627-.042-.627 0 .003.099.107.266.165.266m1.43-1.998v.007a4.7 4.7 0 0 0-.559-.066c-.447-.031-.451-.03-.649.099-.31.198-.303.22.061.22.175 0 .44.011.575.025a.517.517 0 0 0 .468-.116c.203-.135.203-.141.104-.169m-1.181.369c-.368-.022-.399-.019-.55.088-.11.074-.163.142-.163.22a.55.55 0 0 1-.026.17c-.018.048-.008.063.033.048s.089.033.132.11c.068.121.093.131.311.131a.46.46 0 0 0 .369-.11.42.42 0 0 0 .132-.152 1.21 1.21 0 0 0-.426-.04c-.341 0-.433-.014-.453-.066-.029-.072 0-.077.491-.06.526.017.55.014.736-.125l.181-.131-.188-.025a5.4 5.4 0 0 0-.579-.058m-1.684-.075h.009c.013-.011-.011-.02-.052-.02a1.07 1.07 0 0 1-.286-.11c-.239-.121-.209-.119-.8-.037-.238.032-.462.064-.498.07s.022.064.132.132l.201.12.637-.067a6.3 6.3 0 0 0 .657-.088m6.031-3.582a2.67 2.67 0 0 0 .71-.341c-.042-.068-.165-.039-.408.095s-.44.289-.302.242Zm-7.05 8.705-.147.079.147.03a2.9 2.9 0 0 1 .33.099.495.495 0 0 0 .206.047c.033-.033-.267-.339-.33-.337a.75.75 0 0 0-.206.082m.885-4.537c-.136.016-.27.037-.403.062-.098.022-.098.022.029.13a.44.44 0 0 0 .337.11c.264 0 .411-.075.451-.227s.064-.131-.414-.075m.319-.343h-.011c-.156-.093-.226-.098-.698-.038a10 10 0 0 0-.475.073c-.157.029-.159.041-.087.071a1.43 1.43 0 0 1 .22.117c.11.077.15.077.562.033.721-.083.746-.097.489-.256m2.399 2.352v-.013c-.038-.012-.045.028-.027.141.024.141.008.176-.165.353a1.733 1.733 0 0 1-.803.446 3.4 3.4 0 0 0-.455.09 3.6 3.6 0 0 1-.431.091c-.042 0-.091.052-.117.125s-.077.127-.119.127c-.063 0-.06-.017.027-.11.116-.124.088-.146-.044-.033-.173.147-.11.192.228.168.077-.006.151-.031.228-.041-.01 0-.025 0-.025-.021a.23.23 0 0 1 .066-.103c.05-.05.052-.071.011-.087s.014-.024.098-.028a3.6 3.6 0 0 0 .433-.063c.324-.066.389-.075.389-.045a1.34 1.34 0 0 1-.582.198v-.007a.495.495 0 0 0-.295.11.11.11 0 0 1-.044.038 6 6 0 0 0 .861-.151 1.194 1.194 0 0 0 .56-.455 1.38 1.38 0 0 1 .192-.259c.083-.063.085-.063.085.012s.009.074.043.019a.426.426 0 0 0-.114-.502m-1.734 1.181a.68.68 0 0 0-.121.118c-.037.046-.055.055-.036.019.054-.11.11-.172.163-.172.032.002.029.014-.006.035m-1.516-4.18h.008c.085-.05.085-.051-.011-.052a.58.58 0 0 1-.237-.088c-.131-.077-.197-.084-.604-.061a1.59 1.59 0 0 1-.736-.065c-.297-.093-.347-.11-.347-.068a3.1 3.1 0 0 0 .378.263l.378.245.262-.028a3.3 3.3 0 0 0 .909-.146m2.445 5.691a1.13 1.13 0 0 1 .377-.423c.077-.033.073-.036-.04-.036a.46.46 0 0 0-.195.041 1.1 1.1 0 0 1-.184.082c-.11.039-.118.064-.118.239 0 .217.083.267.16.097m-3.561.324a.3.3 0 0 0-.042.027l-.136.073.384.089.384.091-.071-.121a.385.385 0 0 0-.519-.159m1.427-4.145-.427.055.308.094c.428.132.466.126.55-.079.064-.17.068-.198.02-.15a2.7 2.7 0 0 1-.451.08m3.054 4.257a.21.21 0 0 1-.054.132c-.028.029.011.022.09-.018a2.12 2.12 0 0 1 .455-.126c.22-.038.285-.064.22-.086s-.125-.046-.187-.07a.452.452 0 0 0-.409.029c-.061.035-.115.099-.115.139m1.386-6.966v-.011a.924.924 0 0 0-.402-.056l-.401-.012-.237.202-.238.209.239-.022a3.41 3.41 0 0 0 1.039-.31m-.541.321a1.284 1.284 0 0 1-.736.11l-.388-.026-.229.157a1 1 0 0 0-.22.172c.008.007.264.034.569.058l.55.045.407-.303a4.4 4.4 0 0 0 .417-.325c.011-.016 0-.022 0-.021h-.012Zm-4.87 3.865c-.018-.172-.029-.196-.052-.11a.495.495 0 0 0 .102.44l.086.11-.055-.11a1.18 1.18 0 0 1-.081-.33m4.912-4.388a1.186 1.186 0 0 0 .829-.059c.508-.368.728-.56.634-.55q-.292.12-.577.261c-.44.206-.573.252-.713.24a.74.74 0 0 0-.274.028c-.099.04-.088.049.11.077Zm-4.182 4.841v.01c-.22-.098-.597-.45-.598-.56a.32.32 0 0 0-.044-.142c-.029-.047-.04-.017-.04.118a.262.262 0 0 0 .13.278c.109.081.127.119.109.22s-.015.121.095.123c.22.007.505.084.303.084-.04 0-.072.018-.072.04 0 .063.077.096.11.047s.11-.06.098-.011c-.007.017.009.041.032.055s.049-.022.057-.077c.005-.077-.03-.119-.18-.185m1.554.535c-.018 0-.034.008-.052.009.016.01.029.008.052-.009m2.932-1.789h.007Zm4.53 1.183c-.124-.027-.226-.035-.226-.017a.88.88 0 0 0 .202.191c.213.165.293.159.268-.022-.014-.083-.057-.11-.244-.152m1.83.325a4.7 4.7 0 0 0 .431.212c.626.28 1.105.294.55.016-.294-.149-1.098-.33-.981-.228m-3.135-.644h.01Zm4.539.604c-.086-.161.044-.132-2.315-.539a7.6 7.6 0 0 1-1.252-.274 4.9 4.9 0 0 0-1.472-.253c-.291.031-.99.143-1.513.246a8.6 8.6 0 0 1-.964.11l-.53.024-.155-.122a1.56 1.56 0 0 0-.361-.198.94.94 0 0 1-.303-.176l-.11-.11.139.071c.227.11.361.088.66-.13l.274-.199.244.054c.189.043.22.062.156.087a1.6 1.6 0 0 0-.294.22c-.145.13-.203.212-.194.275.022.164.164.11.355-.144a.66.66 0 0 1 .283-.253c.11-.016.392.117.392.183a.275.275 0 0 0 .072.12c.065.073.065.079-.025.079a.358.358 0 0 1-.206-.13.374.374 0 0 0-.162-.132c-.029 0-.11.086-.189.19l-.135.187.324-.01q.349-.026.692-.085l.378-.07-.139-.1-.14-.103h.118a.473.473 0 0 1 .237.088c.101.075.158.083.363.06.234-.028.238-.031.16-.11a.46.46 0 0 1-.11-.191l-.026-.11-.136.082a1.02 1.02 0 0 1-.286.11c-.146.03-.141.022.084-.121a2.64 2.64 0 0 0 .391-.298 1.32 1.32 0 0 1 .25-.211l.103-.052-.11.146a.88.88 0 0 0-.14.287l-.031.142.209-.194c.176-.164.22-.183.248-.123s0 .097-.098.189a.484.484 0 0 1-.2.121c-.087 0-.082.059.014.146.175.159.395.068 1.076-.44a3.58 3.58 0 0 0 .605-.531 16.2 16.2 0 0 1 1.706-1.367c.893-.671 1.637-1.253 1.65-1.29a.55.55 0 0 0 .026-.158c0-.077-.729-1.76-.956-2.208-.156-.305 0-.27-2.541-.572a5.26 5.26 0 0 0-1.489-.121c-.04.011-.66.506-1.382 1.1q-.673.561-1.361 1.1a1.68 1.68 0 0 1-.477-.176 5.37 5.37 0 0 0-1.43-.44 2.64 2.64 0 0 1-.476-.124 1.47 1.47 0 0 0-.402-.091 1.203 1.203 0 0 0-.671.099 4.7 4.7 0 0 1-.58.161 5.39 5.39 0 0 0-1.725.674.374.374 0 0 1-.163.08c-.032-.006-.58-.38-1.219-.835-1.505-1.075-1.497-1.071-1.736-1.071-.198 0-3.121.48-3.438.565-.283.077-.394.246-.788 1.21s-.508 1.3-.471 1.422a2.02 2.02 0 0 0 .484.358c.249.153.892.566 1.43.918s1.077.7 1.21.77a2.77 2.77 0 0 1 .483.378 3.83 3.83 0 0 0 1.044.674c.093.022.099.02.044-.029s-.044-.079.102-.231c.094-.093.154-.144.135-.11a1.02 1.02 0 0 0-.066.226c-.029.158-.022.176.104.253a.7.7 0 0 0 .17.082 1 1 0 0 0 .22-.172c.212-.196.32-.213.55-.083l.15.086-.242-.025c-.231-.025-.25-.019-.341.095l-.095.121.144.029a.493.493 0 0 0 .495-.11c.077-.089.099-.099.143-.05s.034.069 0 .088a.11.11 0 0 0-.051.091c0 .046.06.062.23.062a.406.406 0 0 0 .396-.17 1.16 1.16 0 0 1 .297-.227c.129-.053.135-.049.371.213.201.22.256.259.32.22.136-.081.086-.202-.153-.358a2.6 2.6 0 0 0-.293-.173c-.039-.014-.024-.025.041-.027a.94.94 0 0 0 .24-.052c.123-.044.158-.034.39.11a.55.55 0 0 0 .645.087.41.41 0 0 1 .187-.049 2.12 2.12 0 0 1-.558.338 2 2 0 0 0-.289.171c-.119.087-.172.096-.598.083-.703-.017-.855-.026-1.395-.079a2.87 2.87 0 0 1-1.052-.199c-.124-.088-.286-.082-.958.025a2.75 2.75 0 0 0-.701.176 10.34 10.34 0 0 1-1.674.34c-.846.143-1.559.261-1.578.261-.102 0-.227.185-.227.33a4.01 4.01 0 0 0 .488 1.252 9.5 9.5 0 0 0 1.135.515l1.035.421.373-.011c.204 0 .827-.051 1.384-.101s1.293-.099 1.638-.11a15.4 15.4 0 0 0 1.76-.131c.149-.033.117-.083-.061-.095s-.65-.22-.501-.22a1.13 1.13 0 0 1 .318.081.56.56 0 0 0 .305.051c.083-.033.083-.033 0-.11a1.34 1.34 0 0 0-.77-.143c-1.024.11-1.955.209-2.2.251-.291.044-.77.088-1.601.145l-.395.034-.262-.187a16 16 0 0 1-1.43-1.14.55.55 0 0 0-.018-.11c-.01-.037.027-.077.091-.095.24-.074 4.558-.609 4.73-.587.199.026.33.14 1.123.99.391.42.466.521.423.573s-.039.062 0 .062a.096.096 0 0 0 .077-.066c.022-.058.036-.055.116.017.165.148.272.187.388.132s.094-.053-.182-.198a2.46 2.46 0 0 1-.33-.189c-.026-.026.121-.041.398-.041a1.02 1.02 0 0 1 .469.053c.02.033-.065.044-.33.026l-.363-.022.22.099c.387.174.387.174.582-.02.236-.236.235-.377 0-.612l-.181-.176.033-.44c.03-.44.055-.55.099-.418a2.547 2.547 0 0 0 1.287.77c.22.033.283.083.282.225 0 .184-.055.231-.242.209-.226-.024-.363.037-.959.427l-.668.433a.33.33 0 0 0-.189.303 2.03 2.03 0 0 0 .22 1.049c.135.162.19.36.413 1.473.088.44.099.44 1.143.676.5.11 1.007.211 1.126.22a4.43 4.43 0 0 0 1.21-.22c.55-.133 1.025-.264 1.069-.286.099-.052.134-.191.275-1.049a2.39 2.39 0 0 1 .22-.843 2.12 2.12 0 0 0 .194-.99v-.26l-.204-.117c-.11-.064-.381-.227-.594-.364-.738-.466-.77-.483-1.028-.467l-.227.014v-.163c0-.166 0-.168.302-.296.704-.295.967-.47 1.151-.762l.125-.198v1.012l-.172.178c-.22.231-.229.37-.022.576.165.165.324.266.324.209a1.2 1.2 0 0 1 .527-.22c.06.019-.33.248-.44.25-.036 0 0 .03.075.064.127.055.156.055.247 0a.345.345 0 0 0 .13-.15c.033-.11.11-.11.11 0a.133.133 0 0 0 .097.115c.09.03.086.035-.052.072a.84.84 0 0 0-.248.117l-.096.077.101.027a.76.76 0 0 0 .325-.06 1.2 1.2 0 0 1 .343-.082c.068 0 .09.013.054.027-.084.033-.166.07-.247.11a1.22 1.22 0 0 1-.33.092c-.165.011-.202.055-.077.093a11 11 0 0 0 1.604.143 6.2 6.2 0 0 1 .828.036c.947.099 1.897.188 2.31.22l.392.029.99-.394c1.153-.463 1.307-.538 1.373-.66A7.2 7.2 0 0 0 23 13.431a.48.48 0 0 0-.062-.208m-14.14-.343a.33.33 0 0 1 .041.158.88.88 0 0 0 .195.323c.179.21.231.296.17.296a1.23 1.23 0 0 1-.346-.44c-.101-.199-.155-.488-.06-.337M7.64 15.002a1.21 1.21 0 0 1 .346.088 1.32 1.32 0 0 1 .271.131c.067.066-.231 0-.495-.116-.194-.082-.217-.102-.122-.103m-.512.065a1.68 1.68 0 0 1 .389.129l.22.11-.169-.028a1.68 1.68 0 0 1-.389-.128l-.22-.11Zm-.297.149c.103.027.077.033-.13.036a1.32 1.32 0 0 1-.345-.036c-.11-.048.288-.048.475 0m-1.493.074c.369.011.677.029.686.036.058.051-.448.052-.857 0l-.496-.067Zm-1.54.041.626.058a3.7 3.7 0 0 1 .516.071 12.1 12.1 0 0 1-1.468-.06c-.103-.025-.099-.028.044-.055a1.43 1.43 0 0 1 .282-.014m-.893-.145-.143-.031.132-.029a1.97 1.97 0 0 1 .685 0c.12.045-.484.098-.672.06Zm.344-.322c.036.022-.055.047-.238.064a2.64 2.64 0 0 1-.78 0 2.43 2.43 0 0 1 1.022-.064Zm-1.465-.155c-.082-.037-.048-.05.228-.088a2.41 2.41 0 0 1 .865-.022 3.27 3.27 0 0 1-1.093.11m.779-.364c-.017 0-.238.033-.489.07a2.53 2.53 0 0 1-.516.046.29.29 0 0 1-.11-.12c-.049-.093-.048-.096.019-.042s.148.052.528.01a1.31 1.31 0 0 1 .524-.008c.042.026.062.045.044.045Zm-.717-.22c-.409.052-.423.051-.495-.04-.094-.11-.102-.198-.011-.11.05.055.143.066.468.044.56-.032.581.045.038.111Zm7.643.045.01-.01c.176.149.17.242-.011.168a1.35 1.35 0 0 0-.532-.037 1.09 1.09 0 0 1-.503-.037c-.098-.055-.076-.063.315-.124l.42-.067-.204-.22-.204-.22-.406.038c-.378.036-.414.032-.495-.047s-.083-.086.253-.142c.314-.052.453-.118.453-.22 0-.063-.13-.044-.494.071-.323.11-.346.11-.423.044a.49.49 0 0 1-.11-.239c-.032-.194-.058-.22-.303-.253-.176-.027-.181-.026-.143.074s.03.098-.049.055a.161.161 0 0 0-.136-.015c-.032.018-.041 0-.022-.04.042-.11-.069-.209-.266-.236l-.186-.025.013.147c.011.123.034.151.142.174s.088.028-.089.033h-.22l-.04-.203c-.042-.22-.102-.259-.3-.21-.127.032-.159.13-.11.337.035.153.033.158-.077.156-.085 0-.11-.026-.117-.11-.015-.244-.057-.319-.181-.319a.42.42 0 0 0-.205.061c-.074.055-.077.081-.035.237s.044.176-.055.176-.11-.026-.129-.168c-.031-.192-.145-.253-.337-.178a.15.15 0 0 0-.11.171c0 .11-.033.149-.198.244-.272.159-.505.185-.612.07l-.081-.088-.536.193a3.6 3.6 0 0 1-.593.181 1.98 1.98 0 0 1 .5-.249 2.67 2.67 0 0 0 .521-.253 4.38 4.38 0 0 0-1.531.516c-.026.024-.011.097.033.191l.072.153-.124-.092c-.11-.085-.151-.089-.472-.053s-.348.031-.365-.036c-.013-.05 0-.066.042-.051a.62.62 0 0 0 .248-.025 4.47 4.47 0 0 0 .923-.395 3.45 3.45 0 0 0-.982.256c-.272.138-.308.138-.308 0 0-.175-.076-.156 2.2-.518a6.13 6.13 0 0 0 1.118-.236 3.6 3.6 0 0 1 .77-.176 5.4 5.4 0 0 0 .623-.11 1.42 1.42 0 0 1 .608.042c.154.033.426.099.605.148l.928.244c.707.186.74.202.78.352a4.01 4.01 0 0 0 .717.875Zm4.51-2.38c-.145-.078-.147-.081-.038-.084a.242.242 0 0 1 .171.065c.076.106.028.112-.139.023Zm.102-.44a1.65 1.65 0 0 0-.282.211.65.65 0 0 1-.22.148 1.76 1.76 0 0 1-.44-.125 2.05 2.05 0 0 0 .346-.233c.165-.128.308-.22.316-.196s.047.039.088.04c.058 0 .058.009.005.03a3.33 3.33 0 0 0-.519.383c0 .009.035.017.078.017a.88.88 0 0 0 .3-.189c.173-.148.247-.185.33-.169l.11.022Zm.254.297c0-.095.008-.14.019-.099a.46.46 0 0 1 0 .173c-.016.052-.024.018-.024-.075Zm3.426-.695c-.242.167-.481.341-.714.521-.414.33-.604.45-.716.45s-1.689-.602-2.571-.976c-.403-.169-.483-.22-.506-.312-.033-.136-.036-.135 1.43-1.361l1.95-1.633c.5-.419.957-.794 1.014-.835.203-.138.415-.094.976.203 1.168.615 2.298 1.243 2.374 1.32a.167.167 0 0 1 .055.162 2.66 2.66 0 0 1-.515.426c-.266.191-.904.66-1.416 1.041s-1.121.833-1.359.998Zm.229.802a.11.11 0 0 1-.089-.088c-.011-.045-.017-.084-.011-.084a.5.5 0 0 1 .088.086c.062.071.063.085.007.085Zm.185-.44c-.102.102-.147.11-.267.044s-.11-.193.012-.276.133-.086.249.037l.099.104Zm.604-.875v-.02a.365.365 0 0 0-.022.253c.023.17.016.202-.074.263-.134.095-.262.088-.33-.014s-.042-.167.22-.377c.237-.183.283-.213.201-.109Zm.399-.02v-.006c-.159.154-.194.22-.194.343a.47.47 0 0 1-.065.239c-.063.079-.064.077-.029-.025a.7.7 0 0 0 .018-.266c-.017-.139 0-.183.164-.357s.301-.254.301-.161a.97.97 0 0 1-.195.233m1.149-.852a3 3 0 0 0-.33.38 2.15 2.15 0 0 1-.55.55.4.4 0 0 1 0-.151.42.42 0 0 0-.049-.257c-.066-.102-.062-.11.157-.293a1.78 1.78 0 0 1 .53-.372 1.54 1.54 0 0 1-.281.275c-.344.296-.365.33-.279.44.06.077.067.074.159-.047.053-.071.276-.321.497-.558a4.3 4.3 0 0 0 .4-.465 1.32 1.32 0 0 1 .289-.235 1.28 1.28 0 0 0 .281-.24.043.043 0 0 1 .051-.045c.027 0 .04.025.03.054a1 1 0 0 1-.22.206 2.16 2.16 0 0 0-.377.404 2.4 2.4 0 0 1-.3.356Zm1.958-1.678c.149.311.07.465-.423.824l-.172.127.121-.152c.403-.507.456-.591.432-.683s-.034-.087-.11-.035a1.17 1.17 0 0 0-.212.252 2.64 2.64 0 0 1-.33.385 3.6 3.6 0 0 0-.38.426 3.55 3.55 0 0 1-.744.719 9.6 9.6 0 0 1 .964-1.173 6 6 0 0 0 .473-.55 1.32 1.32 0 0 1 .262-.29c.026-.004.08.061.119.15m-.376-.299c-.411.363-.886.603-.886.44 0-.025-.02-.032-.044-.017-.055.033.193.228.33.264a.303.303 0 0 0 .179-.025c.132-.066.117-.033-.036.148l-.132.152-.139-.183c-.134-.176-.281-.273-.98-.648l-.566-.31a18 18 0 0 0-1.615-.83c-.099-.03-.139-.057-.091-.059a.56.56 0 0 0 .196-.066c.148-.086.172-.081.172.033a.198.198 0 0 0 .088.152c.077.047.11.041.227-.049.235-.173.254-.178.22-.055a.59.59 0 0 0 .173.457c.078.063.2.009.401-.182l.136-.129-.051.146a1.3 1.3 0 0 1-.083.198.062.062 0 0 0 .02.085.42.42 0 0 1 .102.121c.083.15.22.129.427-.067.242-.22.242-.22.062.138-.035.075-.029.116.039.206.11.154.246.163.44.03.173-.11.22-.079.11.077-.051.068-.049.09.011.158.042.044.097.11.125.143.11.133.363.058.754-.22a1.54 1.54 0 0 1 .474-.264c.104-.002.098.009-.063.152Zm-.135-.679a3.58 3.58 0 0 1-.93.696c-.165 0-.075-.11.339-.422s.536-.366.591-.278Zm-.297-.574c.03.079.011.097-.647.601a1.63 1.63 0 0 1-.535.322c-.059 0-.102-.022-.095-.045a13.1 13.1 0 0 1 1.21-.949c.025-.005.052.027.067.067Zm-.524-.376c-.077-.031-.074-.036.028-.038a.73.73 0 0 1 .237.042c.096.037.11.054.056.086a.34.34 0 0 1-.196.016.25.25 0 0 0-.238.066c-.22.186-.931.727-1.025.776a.18.18 0 0 1-.167.013c-.057-.033-.009-.091.268-.33.472-.401.679-.53.917-.567.164-.027.188-.041.12-.068Zm-1.042-.134c.167.011.45.035.627.052.276.026.297.033.13.044-.293.02-.295.022-.33.055a.352.352 0 0 1-.298-.081.46.46 0 0 0-.239-.073c-.104-.019-.055-.018.11-.002Zm.11.11a7.5 7.5 0 0 1-.77.624c-.137.071-.231.06-.228-.027a1.826 1.826 0 0 1 .704-.574c.166-.042.293-.051.293-.028Zm-.777-.124c.024.014.042 0 .042-.026s.03-.038.068-.024a.44.44 0 0 0 .118.028c.028 0 .016.022-.028.047a.286.286 0 0 1-.184.02c-.083-.022-.167.022-.393.19-.299.225-.34.242-.445.175-.054-.033-.041-.065.079-.189a.623.623 0 0 1 .423-.198.98.98 0 0 1 .319-.028Zm-4.01 1.669-.016.012c.352-.262.99-.77 1.632-1.306.542-.45.865-.63 1.068-.595.071.012.264.034.423.05.274.027.33.042.22.061a.6.6 0 0 0-.122.05.85.85 0 0 1-.22.061 3.6 3.6 0 0 0-.612.227c-.258.11-.499.22-.534.233a5.6 5.6 0 0 0-.519.363c-.25.187-.509.377-.578.421-.154.098-.124.138.042.052.22-.116.892-.42 1.257-.568a2.85 2.85 0 0 0 .908-.483l.11-.11-.086.19c-.077.175-.11.201-.462.351a2.9 2.9 0 0 0-.422.209.18.18 0 0 1-.11.034.68.68 0 0 0-.22.084c-.085.044-.33.154-.534.239s-.501.22-.648.29c-.425.213-1.023.685-.868.685.015 0 .205-.085.423-.19s.597-.275.842-.379a3.85 3.85 0 0 0 .887-.521 4.35 4.35 0 0 1 .479-.33 18.5 18.5 0 0 1-1.889 1.65c-.92.759-2.228 1.87-2.396 2.026s-.231.37-.124.478c.083.083-.007.059-.147-.039a.92.92 0 0 0-.378-.121l-.253-.032.048.11c.081.19.11.206.432.237a5 5 0 0 1 .593.099c.236.06.264.077.172.102a4.6 4.6 0 0 0-.446.187c-.604.28-.725.213-.938-.537-.168-.589-.196-.816-.121-.914a15.2 15.2 0 0 1 1.192-.979c.33-.245.367-.289.322-.446-.033-.11-.024-.127.059-.128s.148-.028.55-.313a1.06 1.06 0 0 1 .293-.161c.075 0-.165.191-.486.391-.298.184-.458.49-.22.413a.68.68 0 0 0 .186-.124q.582-.542 1.211-1.029m-3.088 1.177a5.7 5.7 0 0 1 .803.03c.061.025.12 0 .208-.068.199-.167.232-.116.047.077-.093.099-.287.274-.43.393s-.352.303-.465.41c-.196.185-.256.19-.163.013a3.2 3.2 0 0 1 .434-.393 2.55 2.55 0 0 0 .39-.347c0-.022-.084-.041-.185-.043q-.385-.016-.77-.036l-.583-.031Zm-.279-1.22.453.018a5.45 5.45 0 0 1 .791.091 1.05 1.05 0 0 1 .314.096.62.62 0 0 1-.227-.03 8.1 8.1 0 0 0-.77-.11Zm1.836.256v.008a.46.46 0 0 1 .151.038c.055.023.062.037.022.037a.52.52 0 0 1-.154-.037c-.05-.033-.058-.051-.019-.051Zm-2.162-.867a1.31 1.31 0 0 1 .605 0c.071.022-.035.035-.301.035s-.374-.018-.304-.04Zm-1.79.807v-.011a1.3 1.3 0 0 0 .239-.088 6.02 6.02 0 0 1 1.399-.286 8.83 8.83 0 0 1 1.788.07 4.8 4.8 0 0 1 .638.141c.179.061.234.066.234.024a.154.154 0 0 0-.077-.104c-.061-.039-.056-.043.033-.02a2.75 2.75 0 0 1 .583.297c.093.088-.399.03-.792-.092a5.35 5.35 0 0 0-1.823-.259 6.62 6.62 0 0 0-2.025.308.89.89 0 0 1-.297.066c-.012-.012.033-.033.1-.05Zm-.464.019a.213.213 0 0 1 .15.097c.066.11.091.259.042.259a.29.29 0 0 1-.099-.084c-.055-.063-.087-.075-.142-.044s-.043.063.08.16a1.914 1.914 0 0 0 .759.44.65.65 0 0 1 .279.093 12.1 12.1 0 0 1 1.341 1.033c.11.205.099.447-.06 1.074-.164.66-.237.782-.459.787a3.74 3.74 0 0 1-.91-.307 4.66 4.66 0 0 1 .901-.234c.143-.022.195-.054.227-.137.059-.156.059-.156-.178-.133a.59.59 0 0 0-.313.11c-.16.146-.22.169-.165.066.094-.175.055-.261-.22-.483q-1.179-.922-2.397-1.782-.33-.228-.647-.484l-.152-.134.171.098c.096.055.289.176.429.269a.64.64 0 0 0 .498.165 4.1 4.1 0 0 0 .492-.052.55.55 0 0 1 .476.068c.124.062.303.16.399.22a.6.6 0 0 0 .347.099c.204-.011.299.036.578.278.115.099.352.289.522.42s.341.264.374.295c.072.067.075.05.022-.09a2.94 2.94 0 0 0-.55-.49c-.737-.55-.843-.621-.99-.622a.89.89 0 0 1-.33-.121 2.66 2.66 0 0 1-.734-.599.33.33 0 0 1 .259-.239ZM6.853 6.481a4.3 4.3 0 0 1 .347.267l.144.126-.143-.077a2.3 2.3 0 0 1-.348-.267l-.202-.187ZM5.028 6.22a2.75 2.75 0 0 0 .412-.069c.36-.08.692-.082.758 0a1.3 1.3 0 0 0 .24.176c.11.064.185.126.171.139-.031.033-.382-.152-.44-.233-.04-.051-.095-.059-.228-.037-.213.048-.22.091-.035.154a7.7 7.7 0 0 1 1.1.44 1.17 1.17 0 0 0 .286.127 1.05 1.05 0 0 1 .292.167 4.7 4.7 0 0 0 .451.282 2.2 2.2 0 0 1 .321.203c.087.075.094.099.043.132s-.047.039-.008.039a1.76 1.76 0 0 1 .527.337 1.45 1.45 0 0 0 .261.189c.083.047.115.073.069.059-.182-.057-.365-.066-.392-.025-.055.077-.264.049-.637-.088-.725-.265-.835-.297-.868-.276A6.4 6.4 0 0 1 6.16 7.1a1.1 1.1 0 0 1 .278.154l.516.33a4.8 4.8 0 0 0 .862.355c.336.11.67.225.74.263.137.07.264.088.262.033a1.52 1.52 0 0 0-.315-.239 11.33 11.33 0 0 0-2.384-.914.076.076 0 0 1-.09-.021.153.153 0 0 0-.12-.052.58.58 0 0 1-.233-.089c-.137-.082-.302-.288-.263-.33a1.07 1.07 0 0 1 .307.131 6.3 6.3 0 0 0 .799.308 7.55 7.55 0 0 1 1.109.414 3.16 3.16 0 0 0 .66.24c.033-.033-.228-.196-.571-.352q-.356-.169-.692-.371a5.59 5.59 0 0 0-1.629-.644.98.98 0 0 1-.325-.036l-.192-.055Zm-.731.122v.007c.179-.029.344-.06.368-.069q.127-.049 0 .033c-.085.063-.07.064.11.066a.77.77 0 0 1 .396.122c.188.11.198.122.119.172-.129.08-.197.066-.453-.11-.199-.132-.261-.154-.398-.132a1.01 1.01 0 0 1-.315-.01c-.144-.023-.133-.029.173-.079m-1.394.978a3.12 3.12 0 0 0 .66.368.81.81 0 0 1 .291.11l.191.11.238-.121c.2-.101.227-.128.163-.161a.92.92 0 0 1-.165-.143c-.078-.081-.11-.094-.18-.059a.34.34 0 0 1-.123.044 5.9 5.9 0 0 1-.604-.371l-.566-.37-.275.027c-.249.024-.266.022-.192-.038a.64.64 0 0 1 .259-.092c.252-.036.534.081 1.044.429.314.22.45.284.522.267a.253.253 0 0 1 .198.055c.241.187.285.192.516.066l.22-.118-.138-.143c-.124-.126-.157-.139-.314-.118s-.209 0-.567-.241c-.33-.23-.407-.263-.519-.237-.187.041-.519.026-.473-.022a1.7 1.7 0 0 1 .315-.073c.159-.027.297-.052.302-.055s0 .012-.012.033.066.047.172.059a1.22 1.22 0 0 1 .521.245c.315.212.493.283.421.168-.017-.029.033-.008.116.046.292.193.33.201.55.122q.5-.178-.066.117c-.141.07-.279.147-.412.231a3.3 3.3 0 0 1-.314.187 3.1 3.1 0 0 0-.33.195c-.253.207-.456.22-.626.023-.066-.075-.11-.088-.239-.069s-.204-.008-.713-.355a4.07 4.07 0 0 1-.577-.44c-.049-.12.189-.016.706.324m.052-.267c0-.03.264.133.317.199.028.033-.032.007-.132-.06a1 1 0 0 1-.185-.139m-.801.197a1.1 1.1 0 0 1 .173.11l.088.072-.088-.043a1.16 1.16 0 0 1-.174-.11l-.086-.071Zm.103 1.047.007.011c.44.264.668.307.857.159a.41.41 0 0 1 .176-.087c.035 0-.017-.058-.11-.13-.127-.091-.212-.123-.28-.11s-.209-.049-.539-.263c-.416-.271-.522-.388-.302-.33a3.1 3.1 0 0 1 .465.259 1.17 1.17 0 0 0 .447.211.54.54 0 0 1 .275.11c.209.132.275.128.51-.025a.253.253 0 0 1 .16-.053c.031.011-.042.074-.16.141-.138.079-.275.16-.41.245s-.262.156-.395.23a.99.99 0 0 0-.308.24c-.11.153-.22.164-.33.037-.082-.09-.082-.091.014-.06a.59.59 0 0 0 .44-.233c.048-.056.033-.061-.11-.038s-.209 0-.568-.227a2.42 2.42 0 0 1-.401-.283c.004-.093.216-.014.563.196Zm-.169-.378a1.34 1.34 0 0 1 .39.234c.036.034-.037 0-.162-.076a1.16 1.16 0 0 1-.228-.158m.55 1.679a3.6 3.6 0 0 0-.431-.417 2.15 2.15 0 0 1-.33-.319c-.187-.22-.356-.293-.356-.148a1.16 1.16 0 0 0 .27.346c.148.149.247.271.22.271a1.45 1.45 0 0 1-.323-.187c-.253-.176-.273-.2-.262-.33.017-.22.143-.565.198-.55.027.01.044.07.036.134s.007.11.033.11a1.96 1.96 0 0 1 .359.314c.173.172.353.343.4.381s.233.231.411.432.379.417.44.483.11.128.085.128a2.86 2.86 0 0 1-.748-.648Zm1.855.894a1.2 1.2 0 0 0-.029.257v.141l-.132-.077a2.53 2.53 0 0 1-.399-.351c-.417-.44-.945-.967-1.142-1.134a.594.594 0 0 1-.176-.21c0-.031.043 0 .092.058a.98.98 0 0 0 .271.208 5.6 5.6 0 0 1 .756.67 3.7 3.7 0 0 0 .614.55.167.167 0 0 0 .044-.126c0-.077-.071-.154-.279-.302a2.23 2.23 0 0 1-.309-.248c-.034-.056.254.11.537.31.168.121.187.151.159.253Zm.486.794a.275.275 0 0 1-.032-.155c0-.118-.039-.174-.22-.324a.92.92 0 0 1-.22-.22c0-.09.142-.033.307.121a.414.414 0 0 1 .182.386c.012.112 0 .191-.015.192Zm.174-.274a.404.404 0 0 0-.047-.242c-.03-.036.065.022.214.137a2 2 0 0 1 .27.226.22.22 0 0 1-.212.187c-.164 0-.239-.101-.223-.308Zm.43.526c-.036.092-.077.129-.149.129-.094 0-.092-.007.042-.128.077-.07.145-.129.148-.13a.66.66 0 0 1-.047.127Zm.49.018c-.069.131-.171.142-.301.037-.086-.071-.087-.082-.024-.174a.193.193 0 0 1 .261-.069.18.18 0 0 1 .042.033c.07.055.072.071.017.173Zm.475.374c-.072.092-.095.098-.195.051-.139-.062-.144-.15-.019-.268.082-.076.11-.079.181-.03a.304.304 0 0 1 .101.101.286.286 0 0 1-.068.146m2.91-.55v-.011c-.189.088-.565.249-.833.358s-.564.238-.66.286c-.306.154-.406.128-1.1-.313l-1.225-.77c-.33-.205-.894-.558-1.264-.796l-.822-.526c-.809-.515-.784-.495-.77-.612.011-.096.204-.22 1.437-.948.783-.461 1.464-.846 1.513-.855l.121-.024a.44.44 0 0 1 .136.035c.089.033.916.619 1.781 1.258l1.54 1.118c.725.527 1.337.99 1.353 1.033.049.132-.089.252-.479.428-.203.1-.532.251-.726.339Zm.33-.018a1.1 1.1 0 0 1 .366-.121 1.8 1.8 0 0 1 .346.187c.263.169.287.195.182.196a.9.9 0 0 1-.354-.155.79.79 0 0 0-.279-.141c-.026.009.076.098.22.198.243.168.256.185.145.185a1.66 1.66 0 0 1-.624-.349Zm-.33 1.256c-.043-.067.052-.049.126.026a.3.3 0 0 1 .069.088c.005.03-.16-.066-.193-.113Zm.212 4.29v-.009c.011-.044 0-.07-.018-.057a.023.023 0 0 1-.039-.017.44.44 0 0 0-.03-.121c-.026-.075-.024-.076.054-.008a.63.63 0 0 0 .25.102.473.473 0 0 1 .425.409.57.57 0 0 1 0 .173.55.55 0 0 1-.071-.141.623.623 0 0 0-.393-.359c-.117-.029-.103 0 .187.34.235.286.315.418.33.539.022.184 0 .176-.103-.015a4.1 4.1 0 0 0-.346-.44c-.178-.22-.259-.343-.244-.395Zm.55 1.154h.01a.975.975 0 0 1-.44-.453c-.11-.249-.066-.283.095-.069a3.5 3.5 0 0 0 .346.388c.254.232.247.309-.012.131Zm.55.095c-.191 0-.347-.04-.347-.088s.323-.044.413.024.077.059-.07.06Zm.7.193h-.009a1.26 1.26 0 0 0-.238-.082c-.137-.034-.174-.066-.185-.152s0-.11.183-.091.198.024.198.131a.31.31 0 0 0 .054.175c.046.042.045.047-.008.016Zm.927.018-.008-.01c-.225.095-.277.058-.277-.189 0-.204-.077-.44-.141-.44a2.44 2.44 0 0 0 .036.681c.029.095-.352-.028-.425-.138-.055-.082-.036-.286.03-.311.044-.018.055-.063.036-.157s-.011-.124.026-.102.042.047.031.063a.11.11 0 0 0 .024.095c.033.047.04.029.029-.067-.015-.126-.011-.13.158-.127.103 0 .179.024.181.054l.011.117c0 .036.021.066.043.066s.028-.048.017-.11a.153.153 0 0 1 .021-.129c.021-.011.033.022.021.088s0 .11.029.11.05-.044.053-.099.011-.077.024-.022a.255.255 0 0 1-.027.163c-.041.077-.033.088.094.099s.143.031.155.155-.002.146-.145.207Zm.134-.579c.022-.056.033-.058.064-.012s.036.044.038 0 .018-.055.039-.055c.044 0 .039.11-.006.158s-.163-.021-.139-.091Zm.426.44h-.005a.77.77 0 0 1-.203.061.21.21 0 0 0-.11.043c-.037.032-.039.029-.008-.008a.37.37 0 0 0 .044-.188c0-.168 0-.169.209-.177.15 0 .173.006.191.101s0 .113-.122.168Zm-.047-.4h-.008c.033.014.028.022-.016.025a.099.099 0 0 1-.093-.078c-.022-.083.062-.102.129-.027.019.019.011.022-.02 0s-.055-.012-.055.011a.085.085 0 0 0 .058.065Zm.156-.022v-.012c0-.188-.065-.199-1.041-.187l-.92.011-.058.14c-.05.121-.049.136.007.11a.121.121 0 0 0 .066-.11c0-.059.03-.082.11-.082s.11.024.11.076.008.062.036.018.044-.033.071.022.037.077.066-.022.034-.1.037-.011v.131a1.62 1.62 0 0 1-.43.039 3.7 3.7 0 0 0-.516.038c-.072.022-.085 0-.11-.22s-.044-.427-.071-.64c-.077-.649-.174-1.854-.149-1.879s1.337-.066 2.461-.066h.907l.012.515q.014.632-.025 1.264c-.044.85-.077.945-.324.975-.199.023-.243.003-.243-.114Zm1.367-.99v-.008a2.09 2.09 0 0 1-.345.538c-.252.306-.37.527-.309.588.039.039.235-.17.42-.44l.174-.261-.031.174a1.003 1.003 0 0 1-.417.61.86.86 0 0 0-.187.144.095.095 0 0 1-.074.044c-.024 0-.022-.027.016-.069.051-.062.048-.067-.028-.047-.047.014-.154.038-.237.055a.65.65 0 0 0-.209.077c-.045.035-.047.023 0-.066.05-.11.186-.164.407-.164.079 0 .098-.026.102-.143a.95.95 0 0 1 .047-.253 3.48 3.48 0 0 1 .55-.699c.11-.066.055-.11-.083-.065a.597.597 0 0 0-.38.338l-.08.151v-.142c0-.186.149-.338.411-.408.141-.038.22-.086.25-.158.066-.177.074-.034-.001.196Zm.11-.448h-.006a.94.94 0 0 1-.231.151 2.64 2.64 0 0 0-.33.195c-.22.157-.22.091-.02-.116a1.11 1.11 0 0 1 .614-.292c.008-.01-.006.018-.037.052Zm-1.358-1.965-.006-.011c.081-.08.27 0 .907.379.858.513.868.539.246.714-.255.074-.33.11-.376.212l-.063.121.376-.101a4.1 4.1 0 0 0 .44-.143c.058-.031.07-.012.075.11.007.185-.099.404-.193.404-.27 0-.751.309-.751.482 0 .047-.016.074-.037.062-.066-.04 0-.259.115-.381a1.01 1.01 0 0 1 .417-.22c.297-.093.414-.171.414-.277s-.711.11-.824.256c-.073.088-.076.076-.081-.358a1.42 1.42 0 0 0-.059-.514c-.044-.052-.036-.059.039-.035a.53.53 0 0 0 .258-.031l.17-.058-.132-.066c-.132-.069-.161-.069-.44 0-.429.11-.524.054-.125-.068l.33-.101-.178-.081c-.161-.071-.187-.072-.278-.012a.75.75 0 0 0-.174.175.361.361 0 0 1-.432.169c-.182-.028-.19-.035-.127-.11a.161.161 0 0 0 .04-.149c-.044-.11-.124-.056-.14.099-.02.202-.11.145-.137-.085l-.022-.191h-.917v.22c0 .189-.011.22-.077.201s-.077-.062-.077-.147-.015-.117-.044-.101a.025.025 0 0 1-.041-.022c0-.094-.081 0-.11.131-.039.172-.11.165-.11-.011s-.048-.251-.245-.321c-.249-.088-.279-.072-.145.072a1.83 1.83 0 0 1 .209.277l.084.146h-.159a3.04 3.04 0 0 1-.487-.066c-.307-.062-.336-.062-.474.009s-.14.088-.062.11a1.16 1.16 0 0 0 .282.044c.165 0 .184.011.124.063s-.131.419-.068.419c.02 0 .033.084.03.185a1.32 1.32 0 0 0 .024.294c.03.11.03.11-.073-.015-.077-.093-.178-.139-.446-.204-.417-.099-.409-.099-.409-.019s.156.179.364.22a.953.953 0 0 1 .566.3.517.517 0 0 1 .055.297c-.014.22-.033.22-.315.009a.97.97 0 0 0-.22-.124.44.44 0 0 1-.169-.11c-.076-.084-.076-.084.125-.024a1.38 1.38 0 0 1 .374.198c.177.14.22.11.117-.073a.927.927 0 0 0-.576-.362c-.276-.064-.348-.154-.38-.478-.014-.156-.011-.203.016-.143s.131.11.467.2l.426.11-.059-.122a.33.33 0 0 0-.242-.169 6 6 0 0 1-.308-.088.92.92 0 0 0-.22-.04c-.11 0-.132-.077-.049-.18a10.95 10.95 0 0 1 1.21-.776.55.55 0 0 1 .467-.05 15.5 15.5 0 0 0 2.28-.059Zm.915-1.622a1.21 1.21 0 0 1-.736.66 3.72 3.72 0 0 1-1.311.244c-.121-.025-.128-.022-.066.044a.46.46 0 0 0 .421.051c.097-.033.1-.028.088.176l-.014.209-.187.011c-.22.018-.295-.033-.353-.25-.039-.137-.075-.172-.238-.235-.202-.077-.22-.132-.076-.296.06-.067.057-.074-.025-.074a.158.158 0 0 1-.119-.044c-.044-.083-.379-.06-.541.027a.272.272 0 0 1-.314.017c-.091-.036-.148-.083-.132-.11s0-.033-.031-.011c-.119.074.225.249.674.34.312.066.432.151.525.369.066.153.045.204-.096.227-.075.011-.088-.015-.11-.202s-.033-.22-.131-.229a3.51 3.51 0 0 1-1.1-.417c-.38-.253-.473-.409-.451-.749.011-.198.04-.294.1-.352a5.17 5.17 0 0 1 1.18-.511 1.87 1.87 0 0 0 .375-.129 1.326 1.326 0 0 1 1.051.016 1.16 1.16 0 0 0 .383.142 4.5 4.5 0 0 1 .66.21c.577.228.689.401.566.849Zm-2.745.629c-.055.055-.37.007-.33-.051a.044.044 0 0 1 .062-.017.052.052 0 0 0 .066-.024c.026-.044.31-.022.36.029.011.011-.007.042-.039.072s-.048.042-.024 0c.023-.077-.038-.082-.104-.016Zm3.563-.178c.009 0 0 .038-.028.084-.048.091-.13.157-.13.11a.46.46 0 0 1 .148-.202Zm-.557-.584-.141.066.121-.11c.132-.12.159-.131.159-.066-.01.017-.072.065-.149.102Zm.04 1.76c-.026-.018-.011-.042.039-.063a2.4 2.4 0 0 1 .836.021 3.11 3.11 0 0 1-.885.04Zm1.441.718h-.164l.151-.066a2.1 2.1 0 0 1 .498-.14c.026 0-.044.044-.149.102a.92.92 0 0 1-.346.102Zm.55.071-.181.024.151-.073c.268-.127.43-.169.43-.11s-.204.129-.412.157Zm1.053-.022c-.275.049-.39.048-.39 0 0-.024.123-.041.292-.038.272.001.275.003.091.036Zm1.43.084a3.1 3.1 0 0 1-.54.032c-.425 0-.427 0-.13-.032.443-.044.787-.044.655-.001Zm.725.123v-.006a1.13 1.13 0 0 1-.259 0c-.078-.009-.025-.018.118-.018s.19.01.126.021Zm.638-.231c-.16.11-.198.116-.479.093-.168-.014-.44-.044-.605-.069q-.55-.072-1.1-.132c-.44-.039-.996-.11-1.234-.139q-.422-.059-.847-.11c-.571-.066-.608-.077-.593-.197a8.9 8.9 0 0 1 1.075-1.288.65.65 0 0 1 .582-.259c.049.008.923.132 1.945.271s2.055.283 2.291.314c.626.081.634.099.248.467a14.1 14.1 0 0 1-1.282 1.061Zm.13.191c-.136 0-.153-.011-.087-.039.11-.049.12-.049.196 0 .032.028.003.038-.125.037Zm.675-.2c-.124.033-.44-.015-.412-.061a.685.685 0 0 1 .44 0c.033.026.025.04-.043.059Zm.366-.229c-.288 0-.506-.042-.475-.091s.209-.049.525-.011c.269.033.238.1-.061.1Zm.783-.241c-.22.047-1-.043-.957-.11s.304-.044.751.022c.333.048.345.054.19.086Zm.639-1.079a2.94 2.94 0 0 1-.237.653c-.022.027-.03.059-.017.071s-.007.046-.041.075-.154.042-.463 0c-.603-.073-.638-.142-.055-.11l.479.026.075-.117c.042-.062.055-.102.029-.085a1.61 1.61 0 0 1-.713-.11.935.935 0 0 1 .374-.028c.309.012.352 0 .407-.075s.049-.09-.125-.11a6.6 6.6 0 0 0-.384-.018c-.11 0-.193-.018-.181-.037.044-.07-.11-.179-.506-.366a3.92 3.92 0 0 0-1.197-.341 1.57 1.57 0 0 0 .321.158c.785.33.823.352.66.33a4.6 4.6 0 0 1-.55-.176c-.45-.168-.498-.176-.569-.088-.039.045-.038.066 0 .085s-.032.014-.14 0a1.76 1.76 0 0 1-.423-.145c-.197-.097-.24-.138-.265-.261-.036-.175-.103-.226-.275-.211-.11.011-.132.033-.165.192-.044.231-.11.255-.544.19l-.741-.11c-.227-.033-.359-.062-.293-.064.11 0 .118-.019.118-.176 0-.129-.018-.175-.066-.175-.121 0-.366.124-.366.185 0 .033-.074.093-.163.135s-.138.053-.11.022c.11-.11.065-.181-.101-.154-.22.034-.278.099-.278.295 0 .138-.019.178-.11.22s-.17.031-.479-.069c-.37-.121-.479-.11-.425.026.018.058.139.097.381.136a3.1 3.1 0 0 0 .386.048c.055-.015.035.066-.03.117a1.11 1.11 0 0 1-.66.033l-.264-.033-.164.176c-.274.289-.274.287.121.33.429.039.458.036.589-.083l.103-.094-.059.099a.73.73 0 0 1-.204.191c-.126.08-.182.088-.538.059a1.53 1.53 0 0 0-.519.019c-.069.025-.134.038-.145.027a2.67 2.67 0 0 1 .33-.423 3.6 3.6 0 0 0 .44-.591.517.517 0 0 1 .179-.227c.121-.051 1.92-.53 2.15-.571a2.85 2.85 0 0 1 .93.036c.22.036.521.084.686.11a1.96 1.96 0 0 1 .454.125 9.72 9.72 0 0 0 2.079.413c.226.034.518.082.648.11s.308.056.39.069c.195.031.276.129.239.298Zm-4.43-.975c-.11 0-.134.018-.16.149-.038.21-.006.266.174.3.203.039.24.011.24-.186s-.074-.263-.254-.263m-9.112-.44a1.6 1.6 0 0 0-.472-.298c-.025 0 .044.059.156.128a1.13 1.13 0 0 1 .23.173.096.096 0 0 0 .071.045c.024.003.031-.018.014-.048m2.957-5.635a3.5 3.5 0 0 1 .33.123l.174.075-.125-.132a.605.605 0 0 0-.253-.161.52.52 0 0 1-.212-.11.53.53 0 0 0-.491-.039c-.137.059-.48.378-.44.413.017.018.138-.048.269-.147.249-.187.588-.284.648-.184.02.032 0 .052-.044.052-.113 0-.038.055.144.11m-1.083.014c.44-.392.701-.464 1.112-.298a.88.88 0 0 1 .322.211c.077.104.087.11.11.033a.35.35 0 0 0-.039-.227c-.056-.117-.132-.175-.358-.277a.847.847 0 0 0-.741-.063.749.749 0 0 0-.529.641c.004.084.011.084.123-.02m.289-.407a.871.871 0 0 1 1.056.085c.056.066.049.066-.11 0l-.262-.11a.88.88 0 0 0-.609.059 2.2 2.2 0 0 1-.248.164c-.244.147-.11-.01.173-.198m6.242 6.374c-.058.014-.077.064-.077.207 0 .11-.021.194-.052.205s.047.032.175.049a.74.74 0 0 0 .269 0c.061-.038.051-.349-.012-.4a.4.4 0 0 0-.303-.061m-2.99-.391c.032.011.117-.037.191-.11a2.6 2.6 0 0 1 .243-.199c.068-.044.076-.061.044-.066a.95.95 0 0 0-.295.177c-.144.11-.216.189-.183.198m-6.186.171a1 1 0 0 0-.181-.187c-.022 0-.096.057-.163.143a.52.52 0 0 0-.11.168 2.5 2.5 0 0 0 .306.031l.29.012Zm1.297-3.434a2.24 2.24 0 0 1-.341-.191c-.274-.177-.293-.18-.783-.123a1.5 1.5 0 0 0-.317.055 4.53 4.53 0 0 0 1.293.286c.123-.005.193-.019.148-.027m5.925 4.109-.173.053.272.092c.295.102.367.071.269-.11-.052-.104-.121-.11-.368-.035m-11.693.071c-.104.039-.143.257-.047.257a1.056 1.056 0 0 0 .425-.262c0-.05-.247-.048-.378.005m3.741-.043c-.018 0-.033.066-.033.149a.4.4 0 0 0 .017.152c.018 0 .359-.118.46-.158.052-.021-.301-.136-.444-.143"/></svg>