<svg xmlns="http://www.w3.org/2000/svg" viewBox="0 0 24 24"><path fill="#44739e" d="m17.43 18.849-.015.133a2.8 2.8 0 0 0-.013.233v.101h.066l.04-.073a.27.27 0 0 0 .044-.127c0-.028.013-.136.024-.24s.017-.187.015-.187-.01.008-.015.018a.8.8 0 0 1-.076.078Zm-.985.007a.26.26 0 0 0-.059-.062.63.63 0 0 1-.082-.083c-.013-.021-.024-.033-.024-.03s.011.11.024.246l.026.238.039.075.04.076h.064v-.11a3.3 3.3 0 0 0-.028-.35m1.171-.884h-.221v.808l.027-.021a.358.358 0 0 0 .141-.22c.017-.105.055-.504.05-.53Zm-1.072.003v1.27c0 1.394 0 1.31.043 1.359s.048.05.349.05a2.9 2.9 0 0 0 .296-.007.165.165 0 0 0 .091-.08 12.5 12.5 0 0 0 .013-1.313v-1.285h-.392c-.214 0-.398.002-.4.006m-.132.749a.3.3 0 0 0 .056.048v-.803h-.209v.027c-.005.026.04.489.055.558a.314.314 0 0 0 .098.17m1.26-.819a.6.6 0 0 0 .012-.133.42.42 0 0 0-.11-.01.2.2 0 0 0 .025.037c.014.019.035.05.047.071a.18.18 0 0 0 .026.035m-1.484-.138v.057c.007.091.007.091.043.033a1 1 0 0 1 .049-.075l.019-.023h-.078Zm-3.043-1.281a.294.294 0 0 1-.294.294.294.294 0 0 1-.293-.294.294.294 0 0 1 .293-.293.294.294 0 0 1 .294.293m4.44 1.419-.009-.016a.7.7 0 0 0-.041-.057.66.66 0 0 0-.431-.22 1.43 1.43 0 0 0-.33 0 .69.69 0 0 0-.375.166.54.54 0 0 0-.099.125s.273.007.644.007Zm.167-.206a.44.44 0 0 0 .015-.097c.01-.085.01-.092 0-.118a.36.36 0 0 0-.045-.062.128.128 0 0 0-.067-.045.47.47 0 0 0-.131-.018s-.006.061-.014.131c-.014.137-.017.182-.008.188a1.54 1.54 0 0 0 .25.021m-1.381-.186a1.3 1.3 0 0 0-.021-.154.44.44 0 0 0-.077.007c-.069.012-.073.015-.103.044a.4.4 0 0 0-.052.063l-.021.032.008.089a.5.5 0 0 0 .018.1c.007.011.016.011.126 0a.5.5 0 0 0 .128-.022c.008-.008.006-.035-.006-.159m1.672 1.041a2.5 2.5 0 0 0 .066-.532 1.24 1.24 0 0 0-.172-.66 1 1 0 0 0-.042-.062l-.013-.015-.051.051-.049.05.016.025a.69.69 0 0 1 .11.291 2.97 2.97 0 0 1-.011.704 3.36 3.36 0 0 1-.452 1.1l-.039.065v.134l.019-.024a3.05 3.05 0 0 0 .618-1.127m-1.973-1.135.022-.032-.035-.04c-.064-.073-.059-.072-.095-.024a1.07 1.07 0 0 0-.182.506 1.4 1.4 0 0 0-.009.252 2.145 2.145 0 0 0 .374 1.164 4.2 4.2 0 0 0 .323.44.25.25 0 0 0 0-.067.187.187 0 0 0-.039-.129 3.33 3.33 0 0 1-.447-1.086 2.95 2.95 0 0 1-.017-.67.74.74 0 0 1 .105-.314m2.373-.472a1.4 1.4 0 0 0-.19.063l-.182.068-.071.076-.071.075.041.054a1.06 1.06 0 0 1 .164.364 1.32 1.32 0 0 1 .041.389 2 2 0 0 1-.045.449 2.97 2.97 0 0 1-.66 1.231l-.071.09v.324l.086-.087a5.87 5.87 0 0 0 .838-1.18 1.36 1.36 0 0 0 .155-.49 4.1 4.1 0 0 0 .044-.6c0-.241-.007-.569-.02-.67a.41.41 0 0 0-.059-.156m-2.031 2.784a4.4 4.4 0 0 1-.386-.55 2.134 2.134 0 0 1-.33-1.1 1.65 1.65 0 0 1 .008-.254 1.155 1.155 0 0 1 .198-.541.44.44 0 0 0 .037-.054.9.9 0 0 0-.066-.075l-.067-.072-.152-.06-.188-.07-.033-.013-.033.065a.31.31 0 0 0-.038.148c-.011.119-.018.53-.013.729a2.82 2.82 0 0 0 .11.781 5.42 5.42 0 0 0 .761 1.196c.067.08.243.27.25.27s0-.267 0-.32a.66.66 0 0 0-.058-.08m1.638-2.714c.014-.007.1-.041.192-.074a1.3 1.3 0 0 0 .167-.069c0-.021-.032-.055-.087-.094l-.06-.043-.026.029a.44.44 0 0 1-.049.04c-.011.007-.134.048-.272.09l-.609.187c-.195.059-.359.11-.364.11s-.059-.016-.121-.035l-.586-.179c-.26-.079-.491-.152-.512-.16a.24.24 0 0 1-.07-.047l-.033-.033-.062.044c-.056.04-.078.066-.08.092a1.4 1.4 0 0 0 .183.076.572.572 0 0 1 .347.238l.122.132c.011.012.014.012.053 0a1.57 1.57 0 0 1 .281-.045c.134-.012.832-.012.96 0a1.43 1.43 0 0 1 .274.044l.041.013s.066-.067.145-.15a1.8 1.8 0 0 1 .166-.166m.54-.19a1.6 1.6 0 0 0-.12-.102 1.3 1.3 0 0 0-.164-.115s-.01.013-.014.029-.007.031.012.044l.099.075c.045.033.105.081.133.11.049.045.051.048.046.072a.067.067 0 0 0 .037.075.061.061 0 0 0 .077-.016.066.066 0 0 0-.028-.103.44.44 0 0 1-.078-.069m-2.999-.156-.009-.031a.08.08 0 0 0-.016-.03s-.042.027-.088.06a1.65 1.65 0 0 0-.236.2.048.048 0 0 1-.029.02c-.023 0-.047.032-.047.063a.063.063 0 1 0 .125 0c0-.031 0-.034.04-.074a2.3 2.3 0 0 1 .232-.184Zm2.748-.186a.14.14 0 0 0-.007.054l.073.053a2.2 2.2 0 0 1 .122.088.95.95 0 0 0 .311.147.275.275 0 0 0 .058-.137c0-.01-.524-.254-.541-.255a.15.15 0 0 0-.016.05m-2.981.187c.053-.039.167-.121.192-.136v-.022c0-.011-.011-.033-.016-.05a.06.06 0 0 0-.012-.029l-.254.115c-.295.135-.287.131-.286.152a.4.4 0 0 0 .062.128.4.4 0 0 0 .129-.049.84.84 0 0 0 .185-.109m3.624-1.228a1.29 1.29 0 0 0-.382-.032.367.367 0 0 0-.173.095.7.7 0 0 1-.12.081l-.056.026v.179l.053.022.097.041a.63.63 0 0 0 .346.028.74.74 0 0 0 .258-.069.322.322 0 0 0 .138-.254c.007-.083-.007-.09-.161-.117m-3.499.412.096-.041.053-.022v-.179l-.058-.03a.7.7 0 0 1-.118-.08.7.7 0 0 0-.094-.067.42.42 0 0 0-.228-.028 2.5 2.5 0 0 0-.355.062c-.032.013-.04.032-.036.09a.322.322 0 0 0 .139.254.79.79 0 0 0 .261.07.63.63 0 0 0 .34-.029m.11.499c-.009.036-.007.044.014.12.051.184.063.22.091.246s-.033.011.678.228l.562.172.402-.123.592-.183c.11-.032.201-.062.212-.068a.168.168 0 0 0 .069-.082c0-.014.022-.074.041-.136.047-.161.042-.197-.043-.31a.84.84 0 0 0-.098-.101c-.063-.054-.095-.101-.095-.142a.228.228 0 0 1 .12-.162.11.11 0 0 0 .035-.036.43.43 0 0 0 0-.154c-.01-.07-.017-.095-.037-.11a2.4 2.4 0 0 0-.22-.121l-.494.143-.49.143-.49-.143-.495-.143-.11.058a.47.47 0 0 0-.117.078.605.605 0 0 0-.022.259.25.25 0 0 0 .049.039.174.174 0 0 1 .093.202.9.9 0 0 1-.1.11.46.46 0 0 0-.147.216m1.54.387a.347.347 0 0 1 .133-.208 1.5 1.5 0 0 1 .526-.22c.178-.044.189-.044.204-.021s0 .029-.053.156a1.4 1.4 0 0 1-.091.179.44.44 0 0 1-.12.11c-.032.017-.44.166-.468.17a.136.136 0 0 1-.136-.097.11.11 0 0 1 .004-.069Zm-1.242-.454c.01-.01.015-.01.077 0a1.82 1.82 0 0 1 .628.23.31.31 0 0 1 .12.136.256.256 0 0 1 .036.156.136.136 0 0 1-.135.097c-.033 0-.447-.158-.475-.175-.09-.053-.128-.104-.202-.272-.06-.133-.066-.156-.05-.172Zm.392-.818.324.095.213.062.119.033.6-.175.3-.088.138-.043-.135-.086a2.5 2.5 0 0 0-.349-.167 1.95 1.95 0 0 0-.337-.086 1.45 1.45 0 0 0-.32-.019 1.96 1.96 0 0 0-.65.19c-.047.024-.11.056-.137.074l-.156.092.142.045c.015.005.126.039.248.073m-.048-.185a1.84 1.84 0 0 1 .617-.179 1.13 1.13 0 0 1 .284.017 1.87 1.87 0 0 1 .32.082 2.8 2.8 0 0 1 .253.11l-.202.059-.569.166-.089-.024-.211-.063-.33-.094-.15-.043Zm-10.7 1.003a.265.265 0 1 0 .264.265.264.264 0 0 0-.264-.265m6.695.015a.265.265 0 1 0 .265.265.265.265 0 0 0-.265-.265m.937-.598a2.73 2.73 0 0 1-.393-.478c0-.032.143-.057.317-.057.349 0 .495-.185.317-.397a.734.734 0 0 0-.763-.146c-.096.081-.15.012-.364-.362a4.1 4.1 0 0 0-.583-.757 19.06 19.06 0 0 0-5.488-.083 2.11 2.11 0 0 0-.874.872c-.191.377-.24.418-.394.33a.746.746 0 0 0-.738.127c-.17.251-.071.413.247.413.17 0 .314.025.314.053a2.53 2.53 0 0 1-.302.428c-.535.66-.541.691-.581 2.599a19.7 19.7 0 0 0 .018 2.007.522.522 0 0 0 .258.317 2.54 2.54 0 0 0 .77.057c.639-.03.822-.171.822-.625 0-.257 0-.258.428-.192a50.6 50.6 0 0 0 5.17 0l.511-.07.028.341c.035.423.278.568.956.568.387 0 .517-.04.697-.22.22-.22.22-.252.22-1.681a16.7 16.7 0 0 0-.102-2.044 1.518 1.518 0 0 0-.491-1m-7.241-1.54c.193-.305.335-.571.556-.622a31.8 31.8 0 0 1 4.853.066 2.77 2.77 0 0 1 .629 1.039 16.7 16.7 0 0 1-3.154.221 17.16 17.16 0 0 1-3.151-.22 2.37 2.37 0 0 1 .267-.484m2.891 3.579H6.743l-.023-.065h4.185l-.02.059Zm2.041.057a.143.143 0 0 1-.12.056h-3.85a.141.141 0 0 1-.118-.056h4.086Zm-2.041-.174H6.701l-.022-.063h4.271l-.022.063Zm0-.12H6.659l-.023-.066h4.357l-.023.066Zm0-.123h-2.2l-.016-.046v-.013h4.433v.013l-.016.046Zm0-.633h1.899l.038.06H6.88l.037-.06Zm-1.856-.057a.146.146 0 0 1 .118-.049h3.481a.15.15 0 0 1 .118.049H6.957Zm1.856.174h1.973l.035.056H6.809l.034-.056Zm0 .11h2.039l.037.059H6.735l.038-.059Zm0 .117h2.117l.033.052H6.666l.034-.052Zm0 .11h2.182l.019.028a.13.13 0 0 1 .01.03H6.601a.1.1 0 0 1 .011-.03l.018-.028Zm-3.343-.342c-.808-.026-.913-.065-.913-.33 0-.399.123-.451.749-.33a3.67 3.67 0 0 1 .776.227l.641.141-.191.201a2.43 2.43 0 0 1-1.067.089Zm.341 2.58c.011 0 .429-.244.749-.432a1.775 1.775 0 0 1 .872-.22l2.757-.018a1.74 1.74 0 0 1 .951.251l.633.42c-1.99.078-3.982.077-5.967.001Zm6.513-2.576a2.46 2.46 0 0 1-1.062-.097l-.19-.201.64-.142a3.65 3.65 0 0 1 .777-.227c.626-.118.749-.066.749.33-.004.275-.111.309-.919.336Zm-7.12-.395a.294.294 0 0 1-.294.294.294.294 0 0 1-.294-.294.294.294 0 0 1 .294-.294.294.294 0 0 1 .294.294M22.079 8.33H23L12.166 3.313 1 8.33h1.164Zm-2.934 1.672h1.667v10.685h-1.667Zm1.983-.363v11.048h.951V8.33H2.164v12.357h.951V9.639Z"/></svg>