<svg xmlns="http://www.w3.org/2000/svg" viewBox="0 0 24 24"><path fill="#44739e" d="M9.23 10.138c-.406.099-.39.154.043.161.131 0 .384.025.562.048a1.4 1.4 0 0 0 .531-.007l.209-.048-.294-.11a1.512 1.512 0 0 0-1.051-.044m-.928 6.128c-.395.194-.448.199-.66.082a11.7 11.7 0 0 0-1.827-.625c-.044.014-.07.043-.058.062s0 .065-.041.101c-.053.052-.054.072-.008.11s1.463.549 1.604.581a.34.34 0 0 1 .095.041c.029.019.07 0 .095-.044.042-.071.045-.07.048.01v.086l.049-.089.057-.099c.005-.007.042 0 .082.016.067.025.066.032 0 .087s-.06.055.073.032a.62.62 0 0 0 .208-.072.069.069 0 0 1 .11.014c.038.04.039.048 0 .027a.062.062 0 0 0-.082.021c-.04.065.087.036.447-.101.149-.057.257-.12.238-.14s0-.025.031-.013a.29.29 0 0 0 .172-.033 37 37 0 0 1 1.441-.569c.226-.08.371-.191.372-.286 0-.042-.019-.066-.042-.05a.048.048 0 0 0-.022.064.046.046 0 0 1-.016.062c-.022.014-.034-.01-.026-.051l.018-.11c.002-.02.03-.032.064-.032a.131.131 0 0 1 .09.174c-.013.019.039.018.11 0 .161-.047.211-.085.11-.085-.04 0-.071-.018-.071-.04 0-.139-.284-.227-.432-.134a2.1 2.1 0 0 0-.174.132 8.36 8.36 0 0 1-1.381.588 6.8 6.8 0 0 0-.674.283m-.998.165c-.1-.063-.146-.074-.146-.036s-.027.02-.064-.029-.063-.066-.065-.043-.029 0-.064-.043-.064-.06-.065-.031-.031.041-.11.012c-.06-.022-.11-.027-.11-.01s-.021 0-.045-.045-.063-.065-.086-.051-.053-.007-.067-.045-.06-.063-.154-.042-.131.012-.151-.063c-.013-.049-.042-.09-.065-.09s-.026.023-.009.051.007.041-.051.016a.5.5 0 0 0-.137-.036c-.059 0-.07-.043-.025-.088s.11-.033.078.015c-.018.03.01.036.08.019a.179.179 0 0 1 .19.055c.045.045.11.074.133.065a1.82 1.82 0 0 1 .636.21.047.047 0 0 0 .063.018.048.048 0 0 1 .065.021.049.049 0 0 0 .067.019c.023-.013.041 0 .041.024s.014.04.032.029c.069-.04.22.054.2.121s-.044.055-.171-.023m1.366-.13c-.062.117-.13.152-.13.067 0-.038.017-.058.038-.045s.05 0 .064-.04.035-.065.048-.065.009.033-.02.083m.611-.288a.185.185 0 0 0 .119-.046.33.33 0 0 1 .172-.091c.009 0-.016.034-.058.08-.1.11-.33.191-.33.118.003-.03.045-.058.097-.061m-.137.075c0 .024-.03.043-.067.043a.346.346 0 0 0-.172.11c-.082.088-.11.098-.11.043s.062-.11.139-.158c.162-.095.205-.095.205-.038Zm2.159-1.234c.15-.04.338-.144.259-.144a.66.66 0 0 0-.22.086c-.113.064-.12.079-.039.058m-1.479-.208c-.231-.101-.464-.172-.464-.14a2.07 2.07 0 0 0 .55.245c.206.047.173.007-.086-.105m3.948-3.455c.489.117.578.11.886-.047.11-.055.11-.056-.08-.086l-.533-.11c-.44-.103-.557-.101-.797.008-.19.086-.26.148-.258.234 0 .023.019.009.044-.033.064-.104.188-.099.738.034m-3.753 3.199a1.47 1.47 0 0 0 .504-.22c0-.044-.11-.013-.318.092-.111.057-.196.119-.186.128m9.068.705a4.18 4.18 0 0 1-.77-.677 2.19 2.19 0 0 0-.615-.568c-.126-.088-.161-.093-.403-.054a1.2 1.2 0 0 0-.316.082.81.81 0 0 1-.278.061.524.524 0 0 0-.33.122l-.11.101.098.055a.275.275 0 0 0 .355-.025 1.54 1.54 0 0 1 .603-.305.473.473 0 0 1 .22.11c.15.123.119.136-.092.036-.137-.064-.153-.064-.219 0a.27.27 0 0 1-.129.071.75.75 0 0 0-.228.159c-.163.148-.17.164-.099.22.122.089.21.067.421-.11a1.2 1.2 0 0 1 .366-.208c.151-.04.179-.034.309.075s.132.117.039.094a.5.5 0 0 1-.149-.061c-.052-.041-.42.134-.559.264a.31.31 0 0 1-.145.086c-.03 0-.041.022-.024.048s-.085-.025-.22-.11a2.95 2.95 0 0 0-.711-.409c-.032 0 .042-.064.163-.143l.22-.143-.266.018a.777.777 0 0 0-.435.132l-.354.232-.188.116-.131-.159a.83.83 0 0 1-.131-.19c0-.018-.04-.054-.09-.081-.071-.038-.11-.031-.177.031s-.086.079.079.22a.86.86 0 0 0 .29.17c.102.019.11.031.054.063a1.02 1.02 0 0 1-.262.063.518.518 0 0 1-.42-.115l-.225-.139-.232.073a5.5 5.5 0 0 0-.515.2l-.282.126.11.087a1.4 1.4 0 0 0 .274.158c.11.049.141.077.093.088a.7.7 0 0 1-.29-.094.957.957 0 0 0-.503-.11c-.295 0-.345-.056-.095-.103a5.9 5.9 0 0 0 .703-.28l.715-.303a1.1 1.1 0 0 0 .32-.193c.22-.189.183-.243-.352-.52a6 6 0 0 1-.577-.33 1.62 1.62 0 0 0-.595-.296.33.33 0 0 1-.164-.064c-.098-.075-.09-.075-.451.009a1.2 1.2 0 0 0-.302.096 6.9 6.9 0 0 1-.972.497 3.56 3.56 0 0 0-.512.268c-.206.141-.22.144-.712.151l-.577.008c-.143 0-.11.11.08.288l.196.18.115-.11a1.3 1.3 0 0 1 .201-.154c.07-.038.029-.048-.22-.051-.56-.009-.502-.079.069-.082.539 0 .544 0 .712.127a11.4 11.4 0 0 0 1.584.77c.282.095.274.178-.012.126a.7.7 0 0 0-.494.07c-.282.11-.44.141-.391.071.013-.022-.02-.049-.074-.057-.081-.015-.063-.033.11-.11a1.11 1.11 0 0 1 .367-.095c.201 0 .16-.029-.391-.264l-.421-.18-.271.11a.739.739 0 0 1-.635.066l-.139-.05.225-.079a2.06 2.06 0 0 0 .33-.149c.101-.067.104-.073.031-.152-.101-.11-.158-.11-.305.036-.287.277-.293.28-.459.211a1.46 1.46 0 0 1-.33-.229.59.59 0 0 0-.462-.189l-.28-.023.134.12c.123.11.126.121.043.121a.45.45 0 0 1-.22-.11.44.44 0 0 0-.27-.11 1.76 1.76 0 0 1-.283-.028l-.143-.026.22.207c.202.189.235.204.384.181s.129-.009-.119.11a3.4 3.4 0 0 1-.639.273c.036-.037-.363-.393-.484-.431a.377.377 0 0 0-.213.021l-.121.05.225.213c.16.15.262.22.351.22.11 0 .11.007.039.039-.173.075-.28.042-.494-.148-.174-.155-.239-.187-.33-.171-.193.035-.22.09-.086.22s.152.314.052.397c-.035.029-.055.067-.045.084s0 .034-.033.037a1.7 1.7 0 0 0-.171.033.284.284 0 0 1-.234-.047c-.11-.075-.119-.074-.184.021a1.59 1.59 0 0 1-.902.707.6.6 0 0 0-.202.064c-.179.11.382 0 .625-.123l.716-.33 1.21-.561a14.2 14.2 0 0 1 1.499-.672c.123-.03.194 0 1.717.705l.852.391a.68.68 0 0 1 .227.13.22.22 0 0 1-.075.093c-.117.099-3.501 1.417-3.64 1.417a22.1 22.1 0 0 1-2.244-.754 1.21 1.21 0 0 0-1.09-.088c-.103.025-.104.023-.027-.041a.66.66 0 0 0 .13-.148 4.84 4.84 0 0 1 .39-.609l.089-.11-.133.093a1.4 1.4 0 0 0-.249.244.54.54 0 0 1-.29.198.356.356 0 0 0-.198.11c-.013.035-.042.052-.064.037-.059-.036.084-.183.266-.276a.96.96 0 0 0 .237-.175c.081-.09.072-.089-.129.021a1.98 1.98 0 0 0-.33.23c-.065.062-.132.099-.148.083s.008-.06.053-.095a18 18 0 0 1 1.604-.888 1.4 1.4 0 0 0 .38-.213c-.057-.09.96-.734 1.16-.734.039 0 .071-.019.071-.042s-.039-.044-.085-.044a.141.141 0 0 1-.11-.043c-.049-.08-.193-.044-.543.131a.99.99 0 0 0-.429.314c-.066.11-.296.256-1.149.722-.951.519-1.073.598-1.128.729a.286.286 0 0 0-.02.241 8.82 8.82 0 0 0 1.586 1.124c.097.029.741.134 1.43.233 1.21.173 1.261.176 1.444.11l.601-.213 1.122-.409a5.8 5.8 0 0 1 .829-.262 5.4 5.4 0 0 0 .785-.238l.706-.238c.021 0 .313.127.648.281a4.43 4.43 0 0 0 .706.28 10.6 10.6 0 0 1 1.117.461c1.379.624 1.244.586 1.827.512a17.5 17.5 0 0 0 1.911-.281 12.1 12.1 0 0 0 1.351-.943.383.383 0 0 0-.046-.453c-.055-.052-.414-.338-.798-.635m-12.148-.26a1.5 1.5 0 0 1-.28.127c-.024 0 .064-.058.194-.127a1.5 1.5 0 0 1 .281-.125c.025.001-.062.057-.195.125M4.718 16.3l.151-.068c.264-.119.59-.183.543-.104a1.254 1.254 0 0 1-.561.174Zm.465.275c-.038-.014.048-.074.211-.146.279-.125.483-.166.397-.079a1.56 1.56 0 0 1-.612.231Zm.895.075a1.4 1.4 0 0 1-.388.125c-.159 0 .372-.247.539-.25.108-.003.082.019-.151.125m.648.129a.71.71 0 0 1-.281.083c-.128 0-.128 0 .043-.08a.86.86 0 0 1 .281-.084c.1-.002.095.005-.043.081m6.795-2.03c-.276-.147-.171-.188.11-.044.171.088.258.174.176.174a1.43 1.43 0 0 1-.286-.13m.244-.901c.035 0-.02.04-.123.088a.51.51 0 0 1-.206.067c-.027-.027.251-.159.329-.155m-1.123-.99c.44 0 .449 0 .187.041a1.32 1.32 0 0 1-.453 0c-.157-.035-.126-.04.266-.039Zm-5.416 4.069a.374.374 0 0 1-.193.038c-.042-.043.099-.105.233-.103s.125.011-.04.072Zm.475.146c-.182 0 .036-.073.385-.125l.583-.087c.286-.043.431-.052.431-.027a8.6 8.6 0 0 1-1.399.246Zm2.217-.561a1.35 1.35 0 0 1-.269.086 9.7 9.7 0 0 1-1.139.159 2.74 2.74 0 0 1 .828-.182 4.4 4.4 0 0 0 .493-.087.16.16 0 0 1 .087-.016c.062.007.062.011 0 .047Zm.522-.211a2.35 2.35 0 0 1-.412.036 1.03 1.03 0 0 0-.347.041.66.66 0 0 1-.235.063l-.197.03.238-.088a2.66 2.66 0 0 1 .95-.128l.11.02Zm.435-.198a1.24 1.24 0 0 1-.411-.067c-.05-.051.38-.017.635.051.094.031.02.036-.224.023Zm.454-.172a1.34 1.34 0 0 1-.43-.058c-.064-.063.191-.053.534.021l.281.062Zm.96-.675c-.024.511-.051.542-.44.511a1.98 1.98 0 0 1-.41-.068c-.097-.039-.088-.044.086-.044a2.3 2.3 0 0 1 .374.033c.168.033.316 0 .316-.075a.605.605 0 0 0-.252-.085c-.162-.033-.251-.072-.251-.11s.025-.052.103-.022c.129.05.4.053.4.006 0-.069-.11-.139-.213-.142a1.23 1.23 0 0 1-.283-.064c-.17-.059-.168-.061.156-.039s.33.018.356-.074a.25.25 0 0 0 .012-.11 1.06 1.06 0 0 0-.242.029 2.5 2.5 0 0 1-.376.044c-.088 0-.138.018-.122.043s.006.043-.019.043a.044.044 0 0 1-.045-.044c0-.059.187-.126.474-.169.431-.059.396-.09.376.342Zm.134.35c-.043.143-.048.089-.056-.623l-.005-.559-.226-.067a.87.87 0 0 1-.28-.128c-.047-.05-.042-.055.03-.026a2.5 2.5 0 0 0 .32.072 1.43 1.43 0 0 1 .272.063 5.9 5.9 0 0 1-.055 1.275Zm.157.149c-.068-.069-.073-.125-.047-.466.032-.407.061-.536.105-.47a.565.565 0 0 0 .248.069 2.1 2.1 0 0 1 .39.093l.165.065-.194-.023c-.636-.075-.671-.077-.619-.022a.122.122 0 0 1 .028.11c-.016.042.016.053.122.04l.382-.04c.22-.02.231-.017.11.035a1.73 1.73 0 0 1-.345.088c-.214.032-.324.086-.324.16 0 .048.243.048.414 0 .101-.03.133-.025.133.019s-.014.049-.033.037a.043.043 0 0 0-.057.02.566.566 0 0 1-.241.069c-.173.024-.22.046-.22.11 0 .096.045.1.41.039a1.32 1.32 0 0 1 .388-.013c.126.03.122.032-.064.06-.65.107-.672.107-.751.026Zm.469.249c-.059-.033 0-.052.244-.087a1.224 1.224 0 0 1 .696.026c.027.026 0 .034-.07.02a2.16 2.16 0 0 0-.453.031.86.86 0 0 1-.417.017Zm.375.187a2.75 2.75 0 0 1 .643-.103.79.79 0 0 1 .271.049c.103.046.048.054-.408.064a2.8 2.8 0 0 1-.502-.003Zm.676.191c-.132-.059.55-.019.702.04.078.031.012.038-.248.022a2.05 2.05 0 0 1-.454-.056Zm.494.212a.3.3 0 0 1 .142-.034c.078 0 .079 0 .01.033-.049.02.099.066.411.131a3.3 3.3 0 0 1 .594.162c.083.048.088.058.022.042l-.346-.069c-.447-.077-.899-.22-.833-.259Zm.833.398a3.9 3.9 0 0 1 .389.062c.458.084.843.185.731.19a5.33 5.33 0 0 1-1.12-.245Zm1.674.168c-.054 0-.097-.018-.097-.043 0-.053.045-.053.129 0 .053.041.046.05-.032.05Zm.586-.085a.385.385 0 0 1-.22-.09l-.102-.089.126.027a.72.72 0 0 1 .22.09c.087.067.087.068-.024.068Zm1.351-.494a1.25 1.25 0 0 1-.276-.089.726.726 0 0 0-.502-.019c-.1.031-.102.035-.021.063a6.6 6.6 0 0 1 .346.155c.232.11.245.124.128.126a.91.91 0 0 1-.342-.11.55.55 0 0 0-.408-.086c-.22.03-.347.11-.176.11a1.25 1.25 0 0 1 .365.131c.251.126.254.129.096.11a1.47 1.47 0 0 1-.388-.134l-.22-.11-.515.176c-.636.22-.77.22-1.071.031-.126-.08-.413-.238-.638-.351l-.928-.487-.85-.45c-.329-.169-.417-.254-.329-.33.028-.023.323-.154.659-.289l1.274-.523a6.05 6.05 0 0 1 .756-.275 1.21 1.21 0 0 1 .367.183l1.43.934 1.155.77c0 .059-.151.181-.22.181-.127 0-.053.074.11.105a.68.68 0 0 1 .248.115l.11.088Zm.049-.33c-.079-.03-.098-.062-.082-.144s-.008-.125-.093-.179a.787.787 0 0 1-.355-.461c-.093-.258-.097-.289-.035-.289a.8.8 0 0 1 .179.292 2.06 2.06 0 0 0 .245.412.407.407 0 0 1 .11.194.099.099 0 0 0 .087.086c.148.024.33.11.33.147s-.202.017-.39-.058Zm.533-.227c-.175-.044-.226-.093-.351-.341-.06-.116-.117-.202-.129-.19a1.02 1.02 0 0 0 .164.52c.083.117.083.12 0 .078-.122-.065-.164-.132-.247-.381-.095-.296-.179-.395-.538-.641-.3-.204-.41-.225-.463-.086-.033.088.017.281.074.281a.6.6 0 0 0 .189-.11c.178-.135.238-.074.075.076-.11.11-.33.196-.287.117.022-.037-.039-.059-.124-.043-.02 0-.024-.013-.01-.035a.049.049 0 0 0-.019-.069.264.264 0 0 1-.044-.173.33.33 0 0 1 .133-.271c.12-.11.126-.129.062-.183s-.095-.047-.23.025a3.2 3.2 0 0 0-.33.201c-.172.122-.204.12-.395-.026-.08-.063-.077-.064.049-.018s.149.037.33-.102c.22-.181.513-.304.582-.248a.8.8 0 0 1 .12.2 1.44 1.44 0 0 0 .471.457 6.3 6.3 0 0 1 .721.644c.291.325.309.35.192.325ZM5.729 14.873a.7.7 0 0 0-.268.11 1.19 1.19 0 0 0-.401.424 1.52 1.52 0 0 0-.177.316.8.8 0 0 0 .228-.085.65.65 0 0 0 .297-.247 3.1 3.1 0 0 1 .246-.35c.173-.211.193-.253.119-.253-.025 0-.033.021-.017.046s.002.045-.027.039m12.656 1.213c0-.052-.028-.084-.075-.082s-.415.126-.83.276a5.9 5.9 0 0 0-.847.356.202.202 0 0 1-.141.066c-.063-.021-.065.062 0 .101a.084.084 0 0 0 .096-.032.9.9 0 0 1 .138-.123c.084-.061.084-.06.009.031s-.057.14.11.148a2.28 2.28 0 0 0 .78-.282c-.016-.016 0-.018.037 0a.91.91 0 0 0 .344-.081c.58-.22.55-.2.462-.247a.161.161 0 0 1-.083-.131m-1.392.55c-.042.011-.076.041-.076.067s-.013.035-.028.018a.067.067 0 0 0-.077 0c-.028.018-.013 0 .033-.044a.253.253 0 0 1 .152-.07c.061.009.061.012-.004.029m.617-.205a.11.11 0 0 1-.097.019c-.018-.012-.035 0-.035.023s-.026.034-.059.021-.1.02-.149.071c-.076.082-.086.084-.076.017s.229-.183.393-.187c.068-.002.074.004.021.036Zm3.712-5.443c0-.085-.164-.261-.196-.21s0 .11.077.11a.078.078 0 0 1 .065.054c.017.049-.051.071-.199.065-.041 0-.045.011-.014.041.054.051.267.005.267-.06M6.029 14.701l-.159.074.11.072.192.128c.099.07.159-.011.16-.22.006-.154-.053-.171-.303-.054m9.744 1.579a9.1 9.1 0 0 1-1.504-.822c-.268-.2-.283-.208-.357-.158a.264.264 0 0 0-.073.11.157.157 0 0 1-.149.08h-.12l.12.043a.34.34 0 0 0 .185.019c.087-.033.13-.025.117.021a.03.03 0 0 0 .031.039c.025 0 .044.033.044.072s.011.06.026.045.066.011.11.056a6.8 6.8 0 0 0 1.08.572c.017-.006.032.008.032.032s.015.04.033.037a.5.5 0 0 1 .161.049.64.64 0 0 0 .227.051c.054 0 .097.018.097.048 0 .063.127.176.22.196a.22.22 0 0 1 .11.075c.077.1.098.074.082-.096a.401.401 0 0 0-.18-.3.88.88 0 0 0-.292-.169m-.969-.305c-.047-.043.062-.007.22.071a.57.57 0 0 1 .172.11 1.78 1.78 0 0 1-.392-.181m.941.469c-.072-.018-.086-.01-.059.037s.019.044-.026 0l-.122-.118c-.034-.03-.043-.055-.013-.055a.102.102 0 0 1 .076.044.141.141 0 0 0 .11.043.14.14 0 0 1 .11.039c.006.017-.026.023-.076.01m-5.879-2.995a.81.81 0 0 0-.233-.124c-.028 0-.1.062-.16.139a.77.77 0 0 0-.1.145l.341-.014.33-.022Zm-2.742.522a.64.64 0 0 1 .335.195c.228.202.313.227.489.148l.11-.047-.199-.184a1.3 1.3 0 0 0-.346-.234l-.151-.047-.177.086c-.165.076-.17.082-.061.083m1.523-.702.16.006a.286.286 0 0 0 .186-.037c.015-.024.021-.04.013-.037a3.3 3.3 0 0 1-.186.037Zm.195-.192c-.11 0-.151.008-.098.018a.58.58 0 0 0 .195 0c.054-.01.01-.018-.097-.018m-4.018-1.923c0-.057-.071-.035-.33.1-.293.154-.475.304-.249.206a2.37 2.37 0 0 0 .579-.306m9.594 3.023a1.07 1.07 0 0 0 .44.259c.026-.009-.046-.078-.158-.153-.205-.137-.282-.168-.282-.106M3.681 11.121a.54.54 0 0 1 .213-.125l.133-.039h-.132a.352.352 0 0 0-.226.083c-.098.091-.372.119-.42.044-.015-.027.043-.044.149-.044s.176-.017.176-.039c0-.044-.181-.041-.308.007-.052.018-.074.051-.055.082s.007.042-.041.023-.071-.011-.071.009c0 .042.21.09.387.09a.297.297 0 0 0 .195-.091m.536.13a.79.79 0 0 1-.273.13c-.074 0 .33-.293.495-.357.119-.047-.318-.01-.463.039s-.288.145-.257.176a.46.46 0 0 0 .193-.071c.245-.124.324-.11.11.021a.5.5 0 0 1-.291.094c-.066-.009-.119 0-.119.025 0 .052-.396.009-.517-.056a.172.172 0 0 1-.088-.134c0-.049-.018-.075-.043-.061-.07.043-.049.188.033.232a2.97 2.97 0 0 0 .902.161 1.62 1.62 0 0 0 .619-.313c.002-.05-.137.003-.301.114m5.85.471a.387.387 0 0 0-.308 0c-.031.018.042.034.167.034s.192-.015.141-.034m1.42.201c-.247.13-.528.012-.473-.197.012-.051.01-.085-.005-.076l-.149.074c-.065.033-.119.076-.119.095s-.028.037-.064.037-.064.016-.064.036q0 .058-.562-.014c-.292-.037-.475.023-.475.156s.125.208.432.22c.22 0 .253.013.151.039a1.95 1.95 0 0 1-.33.039.4.4 0 0 0-.233.053.86.86 0 0 1-.238.144c-.11.054-.196.11-.178.132s.008.022-.02.005a.404.404 0 0 0-.22.041c-.168.067-.184.066-.49-.048a2.26 2.26 0 0 0-.422-.124.23.23 0 0 1-.131-.035c-.013-.016-.047.008-.077.054s-.037.081-.02.078a.4.4 0 0 1 .141.041c.11.046.11.047-.035.049-.09 0-.132.02-.11.05.041.067-.213-.071-.28-.152a.22.22 0 0 0-.147-.067c-.087 0-.088 0 0-.069s.073-.065.008-.044c-.042.013-.076 0-.076-.023s.066-.037.184-.02a2.6 2.6 0 0 0 .27.026h.174c.088 0 .098-.058.011-.068-.016 0-.078-.018-.137-.034a1.8 1.8 0 0 0-.238-.042 3.63 3.63 0 0 1-.823-.248.88.88 0 0 0-.266-.083.12.12 0 0 1-.11-.054c-.014-.041-.039-.036-.101.016s-.098.062-.211.011l-.128-.07.169.028c.121.02.159.014.138-.021a.147.147 0 0 0-.11-.05c-.046 0-.083-.022-.083-.047s-.03-.037-.065-.023-.065.005-.065-.018-.049-.041-.11-.041-.11-.019-.11-.043c0-.075-.299-.048-.481.046a.495.495 0 0 1-.22.071c-.027-.008.057-.067.187-.129s.205-.116.167-.116a.55.55 0 0 0-.194.06 1.32 1.32 0 0 1-.255.09c-.097.02-.079 0 .075-.073a.65.65 0 0 0 .205-.13 1.06 1.06 0 0 0-.431.137c-.035.047-.173.087-.173.05a.86.86 0 0 1 .263-.159c.144-.069.24-.133.213-.142a.81.81 0 0 0-.282.095c-.348.165-.523.187-.22.026.266-.138.375-.22.3-.22a2.13 2.13 0 0 0-.337.174.825.825 0 0 1-.341.143c-.025-.016-.034-.008-.018.016a.345.345 0 0 0 .178.074 1.2 1.2 0 0 1 .271.09.715.715 0 0 0 .284.064c.11 0 .154.015.133.049s-.012.039.017.021a.052.052 0 0 1 .073.015.58.58 0 0 0 .251.072c.124.017.196.04.161.052-.092.031.387.135.518.11.059-.011.084-.008.054.006-.077.037-.067.119.011.088.035-.013.064 0 .064.018s.04.042.089.042.078.017.058.05-.008.041.043.022a.484.484 0 0 1 .264.058 1.1 1.1 0 0 0 .238.085 1.07 1.07 0 0 1 .228.081c.282.124.351.15.386.143.018 0 .033.011.033.033a1.8 1.8 0 0 0 .711.16c.041-.015.054 0 .038.038-.034.088.175.128.33.063a.6.6 0 0 1 .277-.029c.123.02.143.012.121-.044s.091-.186.181-.184c.025 0 .012.021-.03.045-.067.04-.11.256-.053.256a2 2 0 0 0 .242-.11.594.594 0 0 1 .282-.086c.038.014.052.005.033-.024s0-.038.052-.022a.198.198 0 0 0 .146-.019c.052-.037.046-.041-.025-.021s-.091.005-.091-.039.016-.054.034-.042a.396.396 0 0 0 .197-.067.7.7 0 0 1 .229-.085c.036 0 .013.03-.053.066-.17.092-.146.116.031.031.142-.067.145-.074.068-.128a.183.183 0 0 0-.193-.016c-.061.024-.11.03-.11.014s-.026.007-.059.051-.067.064-.088.03-.046-.035-.089 0-.048.068-.038.086-.013.018-.055 0-.063-.012-.045.016-.011.056-.058.068-.086 0-.086-.019c0-.056.179-.206.248-.207.03 0 .054-.02.054-.041s.039-.028.087-.016.086 0 .086-.031.034-.044.087-.031.086.008.086-.01c0-.054.233 0 .281.072.036.049.081.039.26-.054l.808-.404c.11-.047.206-.11.206-.13s-.045.004-.117.038m-1.76.098c-.067.035-.089.033-.089 0s.046-.054.104-.058a.6.6 0 0 1 .09 0 1.1 1.1 0 0 1-.109.058Zm-4.317-.274c-.137.07-.225.092-.253.065s-.011-.042.048-.042a.21.21 0 0 0 .143-.065.242.242 0 0 1 .164-.065c.087 0 .068.019-.106.107Zm.33.281c-.051-.027-.083-.059-.071-.071s.064 0 .11.027a.228.228 0 0 0 .144.031c.029-.011 0-.042-.056-.069-.11-.047-.11-.049.021-.023a.44.44 0 0 1 .166.061c.057.06-.222.098-.325.044Zm.433.065c-.059-.07-.012-.084.08-.026.036.023.042.048.016.064s-.075-.003-.1-.038Zm.301.123c-.198.04-.267.036-.235-.016.015-.025.065-.033.11-.019s.082 0 .082-.02c0-.055.044-.058.122-.008.033.028.009.045-.088.063Zm.199.098c-.051.02-.062.008-.043-.043.031-.079.087-.091.126-.026.015.023.017.043.006.043a.44.44 0 0 0-.098.026Zm.558.137a.068.068 0 0 0-.086.01c-.035.028-.051.022-.051-.022 0-.078.098-.085.141-.01.009.029.007.039-.013.022Zm3.433-.33c.139-.11.163-.11.065 0a.26.26 0 0 1-.125.086c-.035-.007-.008-.046.052-.092Zm-.389.082c-.057 0-.057 0 0-.039a.32.32 0 0 1 .152-.04h.086l-.086.037a.5.5 0 0 1-.161.037Zm.102.263c-.075 0 .192-.156.416-.243l.249-.098a4.5 4.5 0 0 1-.673.336Zm5.371 1.105c-.074-.161-.139-.169-.305-.035a2.3 2.3 0 0 1-.232.169c-.071.04-.037.049.195.049.352.001.411-.033.342-.183m-.568.442.123.167a3.85 3.85 0 0 0 .433-.31l-.33-.009h-.338Zm1.901-.461a.233.233 0 0 0-.383-.061c-.102.083-.103.086-.022.175a.307.307 0 0 0 .246.09c.196 0 .234-.048.159-.204m-9.538-1.041c.054.014.076 0 .063-.031-.021-.056-.147-.074-.147-.022 0 .021.038.046.084.053M2.256 8.965a4.4 4.4 0 0 1-.41.089c-.28.049-.388.098-.388.176 0 .022.031.009.071-.032.11-.11.265-.066 1.392.389l1.063.411a1.43 1.43 0 0 0 .28-.15c.185-.116.22-.149.139-.15a7.4 7.4 0 0 1-.92-.366c-.867-.388-1.019-.433-1.227-.367m12.459 5.985.269-.027a.74.74 0 0 0 .172-.124 1 1 0 0 1 .207-.147c.045-.018.04-.026-.022-.026a2.3 2.3 0 0 0-.44.14c-.446.175-.483.217-.186.184m2.532-2.267a.229.229 0 0 0-.246-.065.594.594 0 0 0-.348.156.23.23 0 0 1-.141.047c-.081 0-.11.031-.116.093 0 .08 0 .079-.041-.009a.244.244 0 0 0-.153-.124.66.66 0 0 1-.226-.135.264.264 0 0 0-.189-.084.14.14 0 0 1-.131-.052c-.049-.061-.047-.064.013-.017s.07.032.079-.11c.02-.281 0-.483-.038-.476a.66.66 0 0 1-.145-.03 1 1 0 0 0-.379.02c-.296.063-.448.021-.513-.14-.028-.07-.04-.076-.041-.026 0 .087-.202.252-.302.252a.64.64 0 0 1-.232-.11c-.181-.123-.22-.069-.055.09a.362.362 0 0 0 .304.11c.138 0 .205.02.22.066s.036.06.126 0a.396.396 0 0 1 .178-.064c.048 0 .021.026-.062.062-.148.064-.195.134-.065.097.042-.012.151-.054.242-.093s.154-.053.133-.02 0 .045.069.025a.198.198 0 0 1 .152.015c.033.028.076.01.132-.055a.8.8 0 0 0 .049-.062.231.231 0 0 1 .131.169c.009.05-.026.082-.11.1l-.181.045a.085.085 0 0 1-.093-.028c-.022-.037-.057-.035-.133 0-.095.05-.097.049-.037-.024s.056-.076-.044-.046-.104.03-.021-.036c.11-.087 0-.093-.147-.01l-.104.059.202.117a.484.484 0 0 0 .271.092c.057-.022.062-.016.02.034s-.029.067.08.091c.073.016.124.044.11.06s.092.098.227.18a1.6 1.6 0 0 1 .33.252c.22.266.318.313.515.238.126-.048.07-.084-.11-.068-.22.021-.281-.031-.294-.234a.77.77 0 0 0-.017-.194c-.031-.052.11-.017.164.041.04.039.041.06 0 .083s.074.062.22.101c.22.056.28.058.297.012a.136.136 0 0 0-.044-.124c-.036-.036-.049-.066-.031-.066.053 0 .152.07.148.102-.013.1 0 .122.05.082a.88.88 0 0 1 .22-.096c.096-.03.151-.071.134-.099s-.009-.034.015-.018a.616.616 0 0 0 .277-.054l.232-.083-.228.025c-.19.025-.238.014-.323-.064m-1.768-.612c-.066.051-.086.051-.11 0a.09.09 0 0 0-.11-.031c-.038.015-.069.01-.069-.009s.058-.047.127-.057.116 0 .101.025 0 .032.04.017c.018-.007.04.013.062.023-.002.004-.013.009-.041.032m.294.716-.161-.055c-.041-.012-.065-.038-.052-.059s0-.039-.024-.039-.035-.021-.019-.047.041-.031.056-.01a1.2 1.2 0 0 0 .156.141c.081.063.097.089.044.068Zm-1.3-.968c.013-.021-.023-.028-.078-.017s-.115 0-.131-.029a.11.11 0 0 0-.081-.045c-.028 0-.013.03.033.065.092.069.222.084.257.026m1.85 1.362a.35.35 0 0 0 .152 0c.041-.011.007-.02-.076-.02s-.118.01-.076.02m4.779-1.89c.201-.042.44-.178.44-.25a.33.33 0 0 0-.065-.116c-.063-.08-.065-.078-.039.032s0 .125-.101.18a.319.319 0 0 1-.422-.093.197.197 0 0 0-.24-.079c-.269.051-.295.099-.136.244s.235.153.563.082m-.367-.104c.161.139.117.139-.086 0-.088-.059-.132-.11-.099-.11a.45.45 0 0 1 .185.114Zm1.278-2.25c.156-.044.17-.055.075-.058a.96.96 0 0 1-.276-.068c-.22-.093-.345-.079-.685.079l-.561.244a2.2 2.2 0 0 0-.291.129c-.019.016.033.092.11.169l.145.14.644-.29Zm-4.246 3.295c-.05.013-.069.045-.054.088s.015.057-.036.014-.11-.039-.245 0-.167.06-.123.087.05.05.007.091-.053.042-.053 0-.053-.051-.119-.051h-.119l.12.062a.96.96 0 0 1 .187.13c.086.086.177.09.11 0-.042-.051-.035-.057.037-.038.05.013.076.044.061.072s-.012.033.008.016c.065-.06.062-.17 0-.145a.1.1 0 0 1-.11-.061c-.06-.11 0-.11.192.023s.284.146.204.051c-.036-.044-.033-.059.015-.059s.057.02.053.045.028.052.072.062.071 0 .046-.037-.012-.047.041-.027.064.011.048-.014.031-.043.11-.043c.104 0 .131-.015.11-.065s0-.065.023-.065 0-.038-.05-.086a.674.674 0 0 0-.535-.05m3.62-2.896a7.9 7.9 0 0 1-.751.33c-.068 0 .24.289.31.289.025 0 .4-.165.834-.367a5.86 5.86 0 0 1 .902-.368c.062 0 .102-.017.089-.039a1.61 1.61 0 0 0-.592-.176 5.17 5.17 0 0 0-.792.331m-.843-1.065a.045.045 0 0 0-.045-.043c-.025 0-.034.02-.018.044s-.031.036-.138.019a5.77 5.77 0 0 0-1.886.44 2.64 2.64 0 0 1-.445.177 1.2 1.2 0 0 1 .276-.176c.357-.195.201-.159-.27.062l-1.139.525c-.152.069-.268.133-.256.144a1.57 1.57 0 0 0 .374-.133 3.96 3.96 0 0 1 .67-.213 3.1 3.1 0 0 0 .42-.11c.058-.024.584-.141 1.172-.26a10.8 10.8 0 0 0 1.21-.288 1.5 1.5 0 0 1 .271-.11c.128-.03.128-.03-.033-.035-.09.002-.163-.019-.163-.043m-1.305 3.609a.69.69 0 0 0 .264.063h.146l-.11-.11a.75.75 0 0 0-.211-.149c-.063-.025-.077-.043-.034-.045a.91.91 0 0 1 .269.11c.232.123.268.09.058-.053-.141-.095-.418-.134-.418-.057 0 .021-.078.052-.173.068s-.173.042-.173.057a.96.96 0 0 1-.279.135c-.153.057-.27.117-.26.134s-.044.045-.12.064c-.109.024-.119.037-.058.052a1.2 1.2 0 0 1 .229.103c.199.11.338.11.154 0a.45.45 0 0 1-.141-.11c0-.014.043 0 .096.043a.39.39 0 0 0 .178.067c.073 0 .075-.01.023-.076s-.053-.071.017-.017.094.039.079-.051c0-.02.014-.022.041-.007s.03.046 0 .089-.037.062.014.062a.118.118 0 0 0 .094-.075c.025-.064.034-.065.069-.011s.04.046.04.01.04-.054.087-.054.087-.019.087-.042.034-.03.076-.015.043 0-.029-.066a.4.4 0 0 0-.143-.093c-.021 0-.027-.018-.014-.04s.074-.021.142.014m.515.468c.03.054.11.01.446-.238l.427-.323c.057-.056-.11.007-.461.175-.402.193-.479.265-.412.386m.423-4.166h.13l-.151-.058c-.247-.096-.43-.072-.896.116a3.6 3.6 0 0 0-.431.191c.006.006.283-.045.616-.11Zm-4.488 3.59a.16.16 0 0 0-.124-.044c-.091 0-.091 0 .014.062s.159.061.11-.018m3.949-2.434c0 .019.049.057.11.085.149.069.135.006-.017-.084s-.177-.091-.177-.028c0 .025.019.034.042.018s.042-.007.042.009m.79 1.969c.168.115.19.067.038-.084-.094-.094-.149-.119-.228-.098-.098.027-.099.03-.017.063a1.2 1.2 0 0 1 .207.119m2.519-2.315a.825.825 0 0 0-.144-.301c-.043-.036-.69-.305-1.438-.599a7.96 7.96 0 0 0-1.557-.53 1.29 1.29 0 0 0-.54.166l-2.878 1.32a1.4 1.4 0 0 1-.237-.307 2.22 2.22 0 0 0-.77-.716 3.1 3.1 0 0 1-.44-.361 3.135 3.135 0 0 0-1.462-.75 5.1 5.1 0 0 0-1.36-.13l-.433.065a3.344 3.344 0 0 0-1.786.834 1.276 1.276 0 0 0-.341.544 2.53 2.53 0 0 0-.172.923c.033.055-.149-.01-.44-.157L6.21 7.732a1.88 1.88 0 0 0-.573-.151c-.11 0-.725.126-1.376.281l-1.885.449a5.17 5.17 0 0 0-.814.24.57.57 0 0 0-.174.22A20.1 20.1 0 0 0 1 11.191c.029.11.298.251.951.481l3.75 1.403a3.94 3.94 0 0 0 1.11.405c.19.023.195.02.292-.153.151-.267.193-.268.175 0-.013.21 0 .236.093.285.17.087.278.067.355-.063.155-.26.227-.305.431-.267a1.6 1.6 0 0 1 .293.083l.11.047-.11-.024-.22-.049c-.095-.021-.13 0-.226.141l-.11.167.22.014c.173.009.243-.006.314-.071a.62.62 0 0 1 .198-.116l.11-.032-.078.118-.078.119.253-.029a.587.587 0 0 0 .426-.196c.189-.179.323-.261.432-.261a1.12 1.12 0 0 1 .323.177c.258.181.364.195.473.064.04-.048 0-.074-.179-.135l-.401-.154-.173-.079h.133a1.45 1.45 0 0 1 .404.11.88.88 0 0 0 .296.086c.036-.037 0-.057-.296-.172-.243-.094-.261-.11-.139-.11a1.47 1.47 0 0 1 .421.11.88.88 0 0 0 .381.087 6 6 0 0 0 .55-.239c.317-.15.407-.207.3-.191a1.44 1.44 0 0 1-.733-.246c0-.046.12-.089.137-.048a1.57 1.57 0 0 0 .649.23c.023-.023-.065-.078-.22-.138-.259-.096-.367-.173-.246-.173a2.1 2.1 0 0 1 .358.11 1.115 1.115 0 0 0 .971-.024c.122-.09.125-.091.125-.006 0 .11.094.158.398.194a.673.673 0 0 0 .453-.063c.277-.127.574-.22.574-.177a1.43 1.43 0 0 1-.345.195 1.25 1.25 0 0 0-.347.201c0 .041.159.139.25.155a2.64 2.64 0 0 1 .335.164 1.29 1.29 0 0 0 .384.155 1.74 1.74 0 0 0 .413-.132c.44-.188.519-.138.098.065a2.2 2.2 0 0 0-.341.182 2.5 2.5 0 0 0 .392-.14c.514-.206.611-.169.142.055a1.62 1.62 0 0 0-.377.22.275.275 0 0 0 .054.11c.049.067.081.054.352-.143a1.67 1.67 0 0 1 .345-.22.376.376 0 0 1 .33.207c.146.22.211.267.398.267s.22-.072.089-.199c-.072-.072-.071-.074.023-.049a.43.43 0 0 0 .281-.078c.251-.144.383-.137.477.025.043.072.094.12.11.11s.032.012.029.054.034.078.169.088.303-.045.825-.284a6.16 6.16 0 0 0 .817-.43 2.53 2.53 0 0 1 .472-.263l1.08-.484 1.446-.653a4.6 4.6 0 0 0 .739-.381 7.79 7.79 0 0 0 .057-2.211m-7.649-.681c.311.145.801.73.741.886a1.29 1.29 0 0 1-.51.264c-.087.028-.093.023-.047-.033a1.88 1.88 0 0 0-.098-.966.343.343 0 0 0-.395-.098c-.072.059-.078-.012-.006-.084s.111-.065.315.031m-.022.131a1.57 1.57 0 0 1 .043.55c0 .623 0 .616-.323.563l-.173-.028h.205c.11 0 .203-.021.2-.038a5.3 5.3 0 0 1 .048-1.047m-.494-.561a.403.403 0 0 1 .206.053c.063.046.045.053-.121.053-.11 0-.174-.006-.147-.015s.028-.03-.011-.054-.018-.034.073-.034Zm-.584 2.142a6.9 6.9 0 0 1-.982.462c-.187.046-.092-.015.385-.249.444-.22.597-.273.597-.213m-.966-2.647c.052-.593.072-.21.047.88a11 11 0 0 1-.071 1.212 17.4 17.4 0 0 1 .021-2.092Zm-.34 1.078a5 5 0 0 1 0 .518c-.008.149-.016.038-.016-.247l.013-.271Zm-.656-.782a4.4 4.4 0 0 1 .049-.605c.012 0 .007.52-.01 1.155a10.7 10.7 0 0 1-.072 1.221 7.92 7.92 0 0 1 .033-1.771m-.297-.119a1.76 1.76 0 0 1 0 .323c-.009.089-.016.017-.016-.161s.007-.255.016-.166Zm-.045 1.381a.47.47 0 0 1 0 .173c-.01.054-.019.02-.02-.075s.015-.144.02-.102Zm-.55-1.693a.363.363 0 0 1 0 .22c-.034.145-.035.143-.038-.065.001-.155.013-.204.038-.164Zm-.054.463a.58.58 0 0 1 0 .194c-.01.053-.018.01-.018-.096s.008-.155.018-.103Zm-.044.712a.47.47 0 0 1 0 .173c-.01.053-.018.02-.02-.076s.009-.143.02-.101Zm-.042.755a1.65 1.65 0 0 1 0 .302c-.009.091-.017.028-.017-.139s.009-.243.017-.167Zm.025.462.463-.054a5.3 5.3 0 0 1 1.43.013c.534.063 1.082.195.941.228a.66.66 0 0 1-.238-.031 8.9 8.9 0 0 0-1.45-.174 6.4 6.4 0 0 0-1.223.131c-.083.032-.104.071-.104.194 0 .194-.065.165-.078-.035-.016-.18.06-.253.259-.277Zm1.467.273a2.5 2.5 0 0 1-.367 0c-.101-.009-.018-.017.183-.017s.285.003.184.012Zm-.626.424a4.3 4.3 0 0 1-.853-.387c0-.031.086 0 .514.198a1.17 1.17 0 0 1 .339.185Zm-2.009-2.522a.432.432 0 0 1 .478-.049c.141.072.33.261.33.33 0 .036-.067 0-.175-.083a.51.51 0 0 0-.399-.142c-.147 0-.226.017-.23.052-.012.11-.019.118-.058.055-.027-.046-.012-.094.054-.163m.807.853c0 .099 0 .1-.04.02a.54.54 0 0 1-.039-.172c0-.071 0-.075.039-.021a.36.36 0 0 1 .04.174Zm-.22.085a1.87 1.87 0 0 1-.029.455l-.044.172.02-.172c.011-.096.024-.3.03-.455l.009-.28Zm-.826-.634a.67.67 0 0 1-.023.245 3.4 3.4 0 0 0-.052.51c0 .392-.071.604-.077.247-.008-.386.096-1.056.152-1.002m-3.917 4.781c-.046.027-.072.017-.091-.035a1.42 1.42 0 0 0-.489-.44c-.036 0-.093.053-.128.118-.054.104-.066.11-.092.042s-.047-.063-.08-.036a2.53 2.53 0 0 1-1.044-.533l-.518-.34c-.22-.12-.008-.075.239.05a18 18 0 0 1 1.071.618c.156.099.269.082.269-.04 0-.063-.1-.119-.44-.248a1.35 1.35 0 0 1-.394-.181 11.2 11.2 0 0 1 1.265.475.37.37 0 0 0 .144.037c.02 0 .026.009.012.03s.023.063.079.092a.56.56 0 0 1 .182.203c.069.128.071.153.015.188m.13-.22c-.076-.142-.054-.19.054-.122a1.46 1.46 0 0 0 .292.119c.177.051.185.06.1.1a.44.44 0 0 1-.446-.093Zm1.117.33c-.053.064-.261.057-.44-.012-.043-.017-.08 0-.098.054-.03.08-.096.143-.153.144-.038 0 .006-.11.095-.249.036-.053.071-.077.08-.054a.036.036 0 0 0 .057.018.81.81 0 0 1 .279 0c.203.035.227.047.18.104Zm.549.235a.225.225 0 0 1-.232 0l-.118-.056.11-.031a.56.56 0 0 1 .339.023c.008.009-.035.041-.097.07Zm2.538-.502a7.35 7.35 0 0 1-1.404.624 3.2 3.2 0 0 1-.642-.193L6.53 12.58l-1.749-.621a11.8 11.8 0 0 0-1.624-.504.65.65 0 0 1-.281-.149c-.094-.101-.096-.116-.035-.22a.495.495 0 0 1 .193-.176 1.1 1.1 0 0 0 .236-.157c.154-.14 2.056-1.401 2.289-1.517a.98.98 0 0 1 .319-.099 5.06 5.06 0 0 1 .863.33l1.063.478.497.228.518.239 1.188.537 1.641.751c.166.08.163.225-.008.329l-1.401.712ZM6.331 9.102a.6.6 0 0 1 .194.056l.39.174a5.4 5.4 0 0 0 1.015.243 9.46 9.46 0 0 1 1.463.319c.051.05-.455.02-.724-.043l-1.36-.279a4.6 4.6 0 0 1-.978-.47m6.379 2.844a3.26 3.26 0 0 1-.05.49 2.09 2.09 0 0 1-.858-.08 1.45 1.45 0 0 0-.402-.044c-.058.02-.057.014.007-.035a.262.262 0 0 1 .236-.025c.089.018.33.048.539.065l.378.03v-.14c0-.136 0-.139-.14-.11a4.07 4.07 0 0 1-.75.1c-.019-.018.148-.066.709-.205.11-.027.195-.077.208-.12a1.05 1.05 0 0 1 .065-.153c.036-.067.03-.074-.042-.051-.454.144-.651.18-.673.125a.495.495 0 0 0-.164-.145c-.17-.104-.11-.11.122-.017a.506.506 0 0 0 .383.02c.282-.064.33-.099.349-.24.012-.11.007-.116-.146-.087l-.579.11-.42.076-.22-.103c-.279-.129-.258-.165.039-.07.22.069.244.068.646-.019.55-.118.785-.124.795-.023a1 1 0 0 1 0 .141c-.009.024-.023.256-.036.504Zm.065-.77a1.4 1.4 0 0 0-.33-.157c-.22-.072-.236-.071-.777.04l-.62.139c-.091.035-.161.019-.44-.11-.315-.14-.29-.179.038-.057l.247.092.393-.086.673-.14c.155-.031.242-.061.194-.07a1.9 1.9 0 0 1-.249-.077c-.225-.087-.372-.079-.99.049l-.626.11a4.32 4.32 0 0 1-.949-.429 2.4 2.4 0 0 1 .44.161l.424.181.562-.116.745-.19a.95.95 0 0 1-.275-.069 1.38 1.38 0 0 0-.797-.016 2.59 2.59 0 0 1-.88-.024 3.23 3.23 0 0 1-1.032-.273c-.476-.2-.77-.356-.685-.356a3.08 3.08 0 0 1 .611.241l.226.103.55-.091.615-.11c.035-.011-.044-.07-.194-.141l-1.251-.572-.648-.292-1.256-.557a1.61 1.61 0 0 0-.958-.2c-.275.042-.198.072.616.237a3.73 3.73 0 0 1 1.128.376 2.2 2.2 0 0 1 .468.263 2.4 2.4 0 0 1-.491-.19 4.87 4.87 0 0 0-1.278-.378 2.54 2.54 0 0 0-1.002-.122.45.45 0 0 1-.225.014.264.264 0 0 0-.164 0c-.11.026-.11.032-.03.037a.5.5 0 0 1 .182.046.8.8 0 0 0 .219.06 1.94 1.94 0 0 1 .363.11 8.1 8.1 0 0 0 .886.22 14.2 14.2 0 0 1 2.65.666c.456.209.44.261-.019.069a13.75 13.75 0 0 0-2.057-.494 4.6 4.6 0 0 1-.562-.131.84.84 0 0 0-.391-.043c-.151.023-.238 0-.523-.126a2.13 2.13 0 0 0-.409-.153.75.75 0 0 1-.22-.073.55.55 0 0 0-.428-.022 1.52 1.52 0 0 1-.4.027.97.97 0 0 0-.34.039l-.22.062h.237a2.56 2.56 0 0 1 1.076.323 2.75 2.75 0 0 0 .55.198 1 1 0 0 0 .321-.11.74.74 0 0 1 .311-.093c.092.016.092.017.008.048a9 9 0 0 0-.383.17 1.14 1.14 0 0 1-.41.123 6.6 6.6 0 0 1-.758-.296c-.673-.295-.77-.313-1.163-.231a.92.92 0 0 1-.33.024c-.045-.014-.095-.008-.11.015s.066.075.179.11.429.162.702.269l.77.297.273.104.238-.134a.88.88 0 0 1 .269-.107 7.2 7.2 0 0 1-1.099.724c-.121.043-.22.011-1.12-.35-1.175-.471-1.21-.482-1.265-.41-.078.094-.101.306-.038.354a4.5 4.5 0 0 0 .489.209l.648.249.485.175c.257.087.275.088.423.016.086-.041.144-.056.131-.035a.817.817 0 0 1-.426.179 5.5 5.5 0 0 1-.801-.277l-.827-.306c-.172-.037-.26.036-.26.22 0 .163 0 .163.77.44a3.74 3.74 0 0 0 .66.189.84.84 0 0 0 .33-.116c.268-.157.198-.06-.1.138-.16.11-.256.146-.292.119a7.4 7.4 0 0 0-.691-.252c-.632-.209-.642-.211-.704-.126a.33.33 0 0 0-.051.195c.011.096.064.125.487.267a5.5 5.5 0 0 0 .541.163.63.63 0 0 0 .23-.11c.22-.153.239-.11.03.094a.95.95 0 0 0-.174.198.98.98 0 0 0 .249.167 10.1 10.1 0 0 1 1.155.77 7.2 7.2 0 0 1-1.38-.761 2.55 2.55 0 0 0-1.099-.526c-.162 0-.093.088.264.342a1.76 1.76 0 0 1 .314.251 1.99 1.99 0 0 1-.66-.345c-.098-.11-.099-.116-.05-.579a6.8 6.8 0 0 1 .11-.707 3.85 3.85 0 0 0 .078-.537c.019-.32.11-.456.294-.456.047 0 .458-.096.913-.213l2.168-.501.496-.11a1.62 1.62 0 0 1 .781.027c.209.06 1.032.402 1.681.696l.94.42.728.319a3 3 0 0 1 .33.186 2.67 2.67 0 0 0 1.093.462 3.93 3.93 0 0 1 1.374.55c.584.289.691.36.66.44-.006.036-.042.025-.116-.03Zm1.21 1.152c-.78.183-1.049.219-1.1.136a.52.52 0 0 1 .021-.227 3.6 3.6 0 0 0 .065-.38l.027-.238a3 3 0 0 0-.024-.33l-.032-.287.144-.11a7.3 7.3 0 0 1 1.244-.61 1.97 1.97 0 0 1 .748-.241 1.155 1.155 0 0 0 .448-.11 1.463 1.463 0 0 1 1.108-.062l.497.1.294-.134c.349-.157.317-.146.317-.119a2.26 2.26 0 0 1-.365.192l-.366.168-.44-.11a1.125 1.125 0 0 0-.955.054c-.373.133-.101.19.639.134l.562-.054.13-.021-.139.064a3.74 3.74 0 0 1-.621.134 1.914 1.914 0 0 1-.88 0l-.396-.074-.321.11c-.31.11-.316.11-.15.11a4.1 4.1 0 0 1 .605.11 4.2 4.2 0 0 0 .54.11 2.22 2.22 0 0 0 .494-.171 2.86 2.86 0 0 1 .398-.159 5.6 5.6 0 0 1-.909.432c-.039 0-.07.014-.07.031s-.046.022-.699-.13c-.42-.098-.646-.11-.77-.042a1.2 1.2 0 0 1-.267.079l-.182.034.22.031a13 13 0 0 1 .681.137l.464.109.22-.085a.94.94 0 0 1 .238-.071 4.7 4.7 0 0 1-.537.286c-.609.302-.689.315-1.202.195a2.53 2.53 0 0 0-.41-.065c-.11 0-.127.017-.127.11 0 .22.449.306.794.156a.58.58 0 0 1 .233-.07c.011.012-.035.043-.103.069-.152.057-.319.208-.319.286s.007.074-.195-.029a.85.85 0 0 0-.314-.086c-.132 0-.144.01-.131.118.014.126-.012.11.704.33l.22.066-.26-.021-.486-.048-.227-.026v.135c0 .158-.015.157.557.066.488-.084.748-.07.378.016Zm2.548-2.621a3.85 3.85 0 0 1 .723-.175 6.64 6.64 0 0 0 1.609-.396c.316-.142.302-.138.302-.11a4.56 4.56 0 0 1-1.3.516c-1.051.244-1.338.279-1.338.163Zm.801 3.662a.077.077 0 0 1-.067-.083c0-.134.336-.226.377-.104.014.055-.204.186-.314.186Zm.63-.276c-.152.031-.17 0-.064-.121.072-.079.317-.11.317-.041s-.113.13-.257.161Zm.188-.396-1.003.44-.339.147a.5.5 0 0 0-.136.087c-.23.181-.497.096-.949-.301a.517.517 0 0 0-.306-.16 1.07 1.07 0 0 1-.38-.155c-.392-.237-.432-.239-.88-.034a1.31 1.31 0 0 1-.44.15c-.07-.043.717-.407.88-.407a1.2 1.2 0 0 1 .473.22 3.4 3.4 0 0 0 .368.22c.058 0-.26-.254-.379-.305-.071-.028-.127-.067-.127-.086a.836.836 0 0 0-.321-.22c-.017 0-.018.02 0 .043s0 .043-.023.043-.04-.028-.025-.064a.092.092 0 0 0-.059-.11c-.12-.064-.165-.05-.068.022.178.135.022.103-.231-.048-.44-.265-.452-.406-.036-.599l.744-.36 1.469-.708 1.965-.942 1.058-.487c.303-.073.29-.083 1.305.933a10.6 10.6 0 0 1 .962 1.036c0 .1-.128.173-.737.423l-1.312.576-1.477.645Zm.723-.123a.461.461 0 0 1-.392.276c-.15 0-.094-.094.122-.205a1.4 1.4 0 0 0 .234-.139c.055-.062.056-.06.032.067Zm1.803-.673c-.625.499-1.077.729-1.079.55a.29.29 0 0 0-.04-.116c-.031-.047-.089-.006-.269.189a3.3 3.3 0 0 0-.283.342c-.067.117-.07.041-.007-.149a.84.84 0 0 1 .205-.288 6.46 6.46 0 0 1 1.279-.66c.096-.032.346-.142.559-.244a2.42 2.42 0 0 1 .462-.188.133.133 0 0 0 .102-.043c.015-.025.036-.043.048-.043s.011.017 0 .038a1.52 1.52 0 0 1-.31.173 4.34 4.34 0 0 0-.672.438Zm2.15-.861c-.021.073-.105.151-.251.231-.272.148-.32.123-.082-.042.194-.134.3-.263.299-.364 0-.04-.012-.049-.032-.02a.58.58 0 0 1-.22.098 2.06 2.06 0 0 0-.496.301 12.4 12.4 0 0 1-1.021.739c-.22.117-.12 0 .22-.256.559-.427.593-.463.55-.602a1.25 1.25 0 0 0-.084-.212c-.068-.127-.018-.115.102.024s.136.129.646-.087c.273-.115.33-.169.33-.322s-.101-.156-.466.009l-.516.22-.174.062-.145-.178-.339-.371c-.106-.108-.135-.145-.062-.082a.46.46 0 0 0 .23.117 11.3 11.3 0 0 0 1.42-.618c.07-.053.069-.33 0-.357a5.3 5.3 0 0 0-.844.347 6.9 6.9 0 0 1-.88.368 3.23 3.23 0 0 1-.815-.763c0-.029-.037-.063-.082-.077a.34.34 0 0 1-.137-.092c-.048-.058-.041-.059.058-.014.123.055.182.038.967-.289a2.1 2.1 0 0 1 .497-.149c.133 0 .137 0 .042-.043a1.3 1.3 0 0 0-.236-.062c-.076-.012-.22-.044-.324-.071-.169-.045-.21-.04-.432.062a3.7 3.7 0 0 1-.917.33c-.098 0-.099 0-.019-.039.175-.076-.057-.045-.464.06l-1.09.241a8.6 8.6 0 0 0-1.026.264.99.99 0 0 1-.44.1.225.225 0 0 0-.162.012 1.17 1.17 0 0 1-.179.094c-.116.049-.121.048-.067-.018a7.15 7.15 0 0 1 1.143-.581 12.87 12.87 0 0 1 2.529-1.035 2.78 2.78 0 0 1 .713.175l1.203.451.806.303a.44.44 0 0 1 .195.115c.072.078.079.177.079 1a10 10 0 0 1-.032 1.019ZM12.21 6.654a5.1 5.1 0 0 1 .637.013 1.76 1.76 0 0 0 .313.017.5.5 0 0 0-.14-.072 2.09 2.09 0 0 0-.983 0c-.148.061-.143.062.173.042m-.734 5.159c.053-.034.05-.041-.022-.038a1.4 1.4 0 0 0-.22.038l-.13.033h.152a.484.484 0 0 0 .22-.033m8.363-.043c.088 0 .03-.078-.13-.176-.075-.046-.11-.084-.083-.084a.6.6 0 0 1 .195.087c.144.088.296.11.353.054a1.7 1.7 0 0 1 .294-.13c.219-.077.244-.094.136-.096a.69.69 0 0 1-.289-.11c-.162-.11-.206-.129-.206-.083a.385.385 0 0 0 .11.11c.152.12.103.144-.074.036-.211-.129-.249-.11-.078.043.093.082.11.11.055.086a.35.35 0 0 1-.122-.089.33.33 0 0 0-.199-.043c-.104 0-.162.018-.146.044s-.024.043-.095.044h-.121l.167.15a.63.63 0 0 0 .233.157m.11-.255c.185.133.12.149-.072.02-.089-.061-.139-.11-.11-.11a.52.52 0 0 1 .18.09Zm-3.797.55c.07-.053.067-.059-.033-.064-.067 0-.11.016-.11.054a.06.06 0 0 1-.061.06.11.11 0 0 0-.086.065c-.022.058-.011.058.093 0a1.9 1.9 0 0 0 .197-.115m6.552-2.184a4.4 4.4 0 0 0-.701.28l-.636.291.127.127.126.126.294-.12.574-.256c.266-.129.28-.144.28-.286 0-.1-.02-.155-.064-.162"/></svg>