<svg xmlns="http://www.w3.org/2000/svg" fill="#44739e" viewBox="0 0 24 24"><path d="m16.936 17.845-.013.121a2.5 2.5 0 0 0-.012.212v.091h.06l.036-.066a.246.246 0 0 0 .04-.115c0-.026.012-.124.022-.219s.016-.17.014-.17-.009.008-.014.017a.7.7 0 0 1-.069.071zm-.895.006a.24.24 0 0 0-.054-.056.57.57 0 0 1-.074-.076c-.012-.019-.022-.03-.022-.027s.01.1.022.224l.023.216.036.068.036.069h.058v-.1a3 3 0 0 0-.025-.318m1.064-.803h-.2v.734l.024-.019a.325.325 0 0 0 .128-.2c.016-.095.05-.458.046-.482zm-.974.002v1.155c0 1.267 0 1.191.039 1.235s.044.046.317.046a2.6 2.6 0 0 0 .269-.007.15.15 0 0 0 .083-.072 11.4 11.4 0 0 0 .012-1.194v-1.168h-.356c-.195 0-.362.002-.364.005m-.12.681a.26.26 0 0 0 .051.044v-.73h-.19v.024c-.005.024.036.445.05.508a.285.285 0 0 0 .089.154m1.145-.744a.56.56 0 0 0 .011-.121.38.38 0 0 0-.1-.009.18.18 0 0 0 .023.033c.013.018.032.046.043.065a.16.16 0 0 0 .023.032m-1.349-.126v.052c.007.083.007.083.039.03a1 1 0 0 1 .045-.068l.017-.021h-.071Zm-2.766-1.164a.267.267 0 0 1-.267.267.267.267 0 0 1-.267-.267.267.267 0 0 1 .267-.267.267.267 0 0 1 .267.267m4.036 1.29-.008-.015a.6.6 0 0 0-.037-.052.6.6 0 0 0-.392-.2 1.3 1.3 0 0 0-.3 0 .626.626 0 0 0-.341.151.49.49 0 0 0-.09.114s.248.006.586.006zm.152-.188a.4.4 0 0 0 .014-.088c.009-.077.009-.083 0-.107a.33.33 0 0 0-.041-.056.116.116 0 0 0-.061-.041.43.43 0 0 0-.119-.017s-.006.056-.013.119c-.013.125-.015.166-.007.171a1.4 1.4 0 0 0 .227.019m-1.255-.169a1.2 1.2 0 0 0-.019-.14.4.4 0 0 0-.07.007c-.063.011-.067.013-.094.04a.36.36 0 0 0-.047.057l-.019.029.007.081a.46.46 0 0 0 .016.091c.007.01.015.01.115 0a.46.46 0 0 0 .116-.02c.007-.007.006-.032-.005-.145m1.52.947a2.27 2.27 0 0 0 .06-.484 1.127 1.127 0 0 0-.157-.6.8.8 0 0 0-.038-.056l-.012-.014-.046.046-.045.046.015.023a.63.63 0 0 1 .1.264 2.7 2.7 0 0 1-.01.64 3.05 3.05 0 0 1-.411 1l-.035.059v.122l.017-.022a2.77 2.77 0 0 0 .562-1.024M15.7 16.545l.02-.029-.032-.037c-.058-.066-.053-.065-.086-.021a.97.97 0 0 0-.166.46 1.26 1.26 0 0 0-.008.229 1.95 1.95 0 0 0 .34 1.058 3.85 3.85 0 0 0 .294.4.23.23 0 0 0 0-.061.17.17 0 0 0-.036-.117 3.03 3.03 0 0 1-.406-.988 2.68 2.68 0 0 1-.015-.609.67.67 0 0 1 .095-.285m2.157-.429a1.25 1.25 0 0 0-.172.057l-.166.062-.064.069-.065.068.037.049a.96.96 0 0 1 .149.331 1.2 1.2 0 0 1 .038.354 1.83 1.83 0 0 1-.041.408 2.7 2.7 0 0 1-.6 1.119l-.065.082v.294l.078-.079a5.34 5.34 0 0 0 .762-1.072 1.24 1.24 0 0 0 .141-.446 3.74 3.74 0 0 0 .04-.545c0-.219-.006-.518-.018-.609a.37.37 0 0 0-.054-.142m-1.846 2.531a4 4 0 0 1-.351-.5 1.94 1.94 0 0 1-.3-1 1.5 1.5 0 0 1 .007-.231 1.05 1.05 0 0 1 .18-.492.4.4 0 0 0 .034-.049.8.8 0 0 0-.06-.068l-.061-.066-.138-.054-.171-.064-.03-.012-.03.059a.28.28 0 0 0-.035.135c-.01.108-.016.482-.011.663a2.56 2.56 0 0 0 .1.71 4.93 4.93 0 0 0 .691 1.087c.061.073.221.245.228.245s0-.242 0-.291a.6.6 0 0 0-.053-.072m1.489-2.468c.013-.006.091-.037.175-.067a1.2 1.2 0 0 0 .151-.063c0-.019-.029-.05-.079-.085l-.054-.039-.024.026a.4.4 0 0 1-.044.037c-.01.006-.122.043-.248.081l-.553.17c-.178.054-.327.1-.331.1s-.054-.014-.11-.031l-.533-.163c-.236-.072-.446-.138-.465-.146a.22.22 0 0 1-.064-.042l-.03-.03-.056.04c-.051.036-.071.06-.073.083a1.3 1.3 0 0 0 .166.069.52.52 0 0 1 .316.217l.111.12c.01.011.012.011.048 0a1.43 1.43 0 0 1 .255-.041c.122-.011.757-.011.873 0a1.3 1.3 0 0 1 .249.04l.037.012s.06-.061.132-.137a1.6 1.6 0 0 1 .151-.151m.491-.172c-.032-.03-.081-.072-.109-.093a1.2 1.2 0 0 0-.149-.105s-.009.012-.013.027-.006.028.011.04l.09.068c.041.03.095.074.121.1.044.041.046.044.042.065a.061.061 0 0 0 .033.069.055.055 0 0 0 .07-.015.06.06 0 0 0-.025-.094.4.4 0 0 1-.071-.062m-2.726-.142-.009-.028a.07.07 0 0 0-.014-.028s-.038.025-.08.055a1.5 1.5 0 0 0-.215.182.044.044 0 0 1-.026.018c-.021 0-.043.029-.043.057a.057.057 0 1 0 .114 0c0-.028 0-.031.036-.067a2.1 2.1 0 0 1 .211-.167zm2.498-.169a.13.13 0 0 0-.007.049l.067.048a2 2 0 0 1 .111.08.86.86 0 0 0 .282.134.25.25 0 0 0 .053-.125c0-.009-.476-.231-.492-.232a.14.14 0 0 0-.014.046m-2.71.17c.048-.036.152-.11.174-.124v-.02c0-.01-.01-.03-.014-.045a.053.053 0 0 0-.011-.027l-.231.105c-.268.123-.261.119-.26.138a.36.36 0 0 0 .056.116.36.36 0 0 0 .118-.044.76.76 0 0 0 .168-.099m3.294-1.117A1.17 1.17 0 0 0 18 14.72a.334.334 0 0 0-.157.087.63.63 0 0 1-.109.073l-.051.024v.163l.048.02.088.037a.574.574 0 0 0 .315.025.67.67 0 0 0 .234-.062.293.293 0 0 0 .126-.231c.006-.076-.007-.082-.147-.107m-3.181.375.088-.037.048-.02v-.163l-.053-.027a.64.64 0 0 1-.107-.073.66.66 0 0 0-.086-.061.384.384 0 0 0-.207-.025 2.3 2.3 0 0 0-.323.056c-.029.012-.036.029-.032.082a.293.293 0 0 0 .126.231.72.72 0 0 0 .237.063.574.574 0 0 0 .309-.026m.1.454c-.008.032-.006.04.013.109.046.167.057.2.083.223s-.03.01.616.208l.511.156.366-.112.538-.166c.1-.029.182-.057.192-.062a.153.153 0 0 0 .063-.075c0-.012.02-.067.037-.123.043-.147.039-.179-.039-.282a.76.76 0 0 0-.089-.092c-.057-.049-.086-.092-.086-.129a.207.207 0 0 1 .109-.147.1.1 0 0 0 .032-.033.39.39 0 0 0 0-.14c-.009-.064-.016-.086-.034-.1a2.2 2.2 0 0 0-.2-.11l-.449.13-.445.13-.446-.13-.45-.13-.1.053a.43.43 0 0 0-.106.071.55.55 0 0 0-.02.235.23.23 0 0 0 .044.036.158.158 0 0 1 .085.183.8.8 0 0 1-.091.1.42.42 0 0 0-.134.197m1.4.351a.315.315 0 0 1 .121-.189 1.36 1.36 0 0 1 .478-.2c.162-.04.172-.04.186-.019s0 .027-.048.142a1.24 1.24 0 0 1-.083.163.4.4 0 0 1-.109.1c-.029.015-.4.151-.426.154a.124.124 0 0 1-.123-.088.1.1 0 0 1 .003-.063zm-1.129-.412c.009-.009.014-.009.07 0a1.65 1.65 0 0 1 .571.209.283.283 0 0 1 .109.123.233.233 0 0 1 .033.142.124.124 0 0 1-.123.088c-.03 0-.406-.143-.432-.159-.081-.048-.116-.094-.183-.247-.055-.121-.06-.142-.046-.156zm.357-.744.294.086.194.057.108.03.545-.159.273-.08.126-.039-.123-.079a2.3 2.3 0 0 0-.317-.151 1.77 1.77 0 0 0-.307-.079 1.32 1.32 0 0 0-.291-.017 1.78 1.78 0 0 0-.591.173c-.042.022-.1.051-.124.067l-.142.084.129.041c.014.004.115.035.226.066m-.044-.168a1.67 1.67 0 0 1 .561-.163 1.03 1.03 0 0 1 .258.016 1.7 1.7 0 0 1 .291.074 2.5 2.5 0 0 1 .23.1l-.184.054-.517.151-.081-.022-.192-.057-.3-.086-.136-.039zm-9.727.912a.241.241 0 1 0 .24.241.24.24 0 0 0-.24-.241m6.086.013a.241.241 0 1 0 .241.241.241.241 0 0 0-.241-.241m.852-.543a2.48 2.48 0 0 1-.357-.435c0-.029.13-.052.288-.052.317 0 .45-.168.288-.361a.667.667 0 0 0-.694-.132c-.087.073-.136.011-.331-.329a3.72 3.72 0 0 0-.53-.689 17.33 17.33 0 0 0-4.989-.075 1.92 1.92 0 0 0-.794.793c-.174.342-.218.38-.358.3a.678.678 0 0 0-.671.115c-.155.228-.065.376.224.376.155 0 .286.022.286.048a2.3 2.3 0 0 1-.275.389c-.486.6-.492.628-.528 2.363a17.9 17.9 0 0 0 .016 1.824.475.475 0 0 0 .235.288 2.31 2.31 0 0 0 .7.052c.581-.027.747-.155.747-.568 0-.234 0-.235.389-.175a46 46 0 0 0 4.7 0l.465-.063.025.31c.032.384.253.516.869.516.352 0 .47-.036.634-.2.2-.2.2-.229.2-1.528a15.2 15.2 0 0 0-.093-1.858 1.38 1.38 0 0 0-.446-.909m-6.583-1.4c.176-.278.305-.519.506-.566a28.9 28.9 0 0 1 4.411.06 2.515 2.515 0 0 1 .572.945 15.2 15.2 0 0 1-2.867.201 15.6 15.6 0 0 1-2.865-.2 2.15 2.15 0 0 1 .243-.44m2.628 3.253H7.221l-.021-.059h3.805l-.019.054zm1.856.052a.13.13 0 0 1-.109.051h-3.5a.128.128 0 0 1-.108-.051h3.715Zm-1.856-.158H7.183l-.02-.057h3.882l-.02.057zm0-.109H7.145l-.021-.06h3.961l-.021.06zm0-.112h-2l-.014-.042v-.012h4.03v.012l-.015.042zm0-.575h1.727l.034.054H7.345l.034-.054zm-1.687-.052a.133.133 0 0 1 .107-.045h3.165a.136.136 0 0 1 .107.045H7.415Zm1.687.158H10.9l.032.051H7.281l.031-.051zm0 .1h1.854l.034.054h-3.78l.034-.054zm0 .106h1.925l.03.048h-3.91l.031-.048zm0 .1h1.984l.017.026a.12.12 0 0 1 .009.027H7.092a.09.09 0 0 1 .01-.027l.016-.026zm-3.039-.311c-.734-.023-.83-.059-.83-.3 0-.362.112-.41.681-.3a3.34 3.34 0 0 1 .706.207l.582.128-.173.183a2.21 2.21 0 0 1-.97.081zm.31 2.346c.01 0 .39-.222.681-.393a1.614 1.614 0 0 1 .793-.2l2.506-.016a1.58 1.58 0 0 1 .865.228l.575.382c-1.809.071-3.62.07-5.424.001zm5.921-2.342a2.24 2.24 0 0 1-.965-.088l-.173-.183.582-.129a3.32 3.32 0 0 1 .706-.206c.569-.108.681-.06.681.3-.004.25-.101.281-.835.305zm-6.473-.359a.267.267 0 0 1-.267.267.267.267 0 0 1-.267-.267.267.267 0 0 1 .267-.267.267.267 0 0 1 .267.267m15.338-7.402H22l-9.849-4.561L2 8.282h1.058zm-2.668 1.52h1.516v9.714h-1.516zm1.803-.33v10.044h.865V8.282H3.058v11.234h.865V9.472Z"/></svg>