<svg xmlns="http://www.w3.org/2000/svg" data-name="Livello 1" viewBox="0 0 24 24"><path fill="#44739e" d="M9.0498 11.1399a7.15 7.15 0 0 0 1.3857-.026c.1993-.0424.42-.3146.5342-.5583.5764-1.2299 1.1209-2.4846 1.7012-3.786l.4231.2265c-.3283.7237-.6386 1.396-.94 2.075-.2895.6526-.5697 1.312-.8821 2.0334.4014.0472.7319.0857 1.0623.1252.3547.0425.5236-.2841.7001-.5902.4656-.807.9217-1.6233 1.3994-2.4181.0837-.1393.2536-.1924.3837-.2853a1.75 1.75 0 0 1-.0373.6215c-.4702.8681-.9706 1.7089-1.5127 2.6486.7585.1397 1.4147.311 1.9456-.547a20.9 20.9 0 0 1 1.3398-1.856c.4028.279.3527.5092.1518.7682-.4292.5534-.8577 1.1078-1.3009 1.6804 1.0463.5531 1.8373-.1307 2.6478-.6944a3.2 3.2 0 0 1 .493-.3467c.095-.0411.2237.0475.3372.0776-.0467.1567-.0583.3826-.1467.4572a4.73 4.73 0 0 0-.836.74 5.9 5.9 0 0 0 1.047-.0179.987.987 0 0 0 .5065-.3908 9 9 0 0 1 2.498-2.5952 2.474 2.474 0 0 1 1.095-.2861c.5245-.0162.6283.2183.4583.8654a18.3 18.3 0 0 1-.3642 1.2127 4.82 4.82 0 0 0 .0293 3.166c.125.373.2385.7539.3378 1.1394.15.582-.0046.8688-.4767.9093a2.749 2.749 0 0 1-2.0933-1.167c-.5559-.578-1.0334-1.28-1.5641-1.9006a.926.926 0 0 0-.531-.3278 5.13 5.13 0 0 0-.9606.0517c.2517.5835.9766.4704 1.0383 1.4503-1.1842-.6162-2.1434-1.845-3.4675-1.2762.473.723.9444 1.4419 1.409 2.1682a1.94 1.94 0 0 1-.161.2556 15.4 15.4 0 0 1-1.3415-1.5798 1.383 1.383 0 0 0-1.5948-.7818 2.4 2.4 0 0 1-.4897.0045c.5344.9472 1.0198 1.8157 1.513 2.6767.1506.263.29.5027-.0977.7458-.3384-.557-.6879-1.1268-1.0321-1.7018-.1287-.215-.2436-.4437-.3675-.6637-.682-1.2107-.7478-1.2419-2.0193-.9137l1.5346 3.4439a2 2 0 0 1 .1794.4228.455.455 0 0 1-.079.335.233.233 0 0 1-.2737-.0297 2 2 0 0 1-.2488-.4679c-.474-1.0584-.961-2.108-1.4087-3.1848-.163-.3924-.34-.5612-.6905-.5134a9.6 9.6 0 0 1-1.1967.0107c.0791.911.129 1.7615.2314 2.6015.1684 1.3836-.2122 2.048-1.2929 2.0532a3.61 3.61 0 0 1-1.4296-.2643 23.49 23.49 0 0 1-5.6339-3.8004c-.4135-.3472-.3415-.7986-.1895-1.2905a6.18 6.18 0 0 1 1.895-2.7922A9.835 9.835 0 0 1 7.192 6.4802a3.9 3.9 0 0 1 .8812-.079c.954.0234 1.4179.7617 1.2753 1.9816-.0999.854-.186 1.7107-.2988 2.757M4.52 10.9697c.3123-.0146.6322-.4733.6176-.8856-.0158-.4448-.3338-.8181-.6744-.7916a.7975.7975 0 0 0-.6165.869c.021.4438.3375.8238.6733.8082" class="cls-1" data-name="Colore riempimento 1"/></svg>