<svg xmlns="http://www.w3.org/2000/svg" data-name="Livello 1" viewBox="0 0 24 24"><path fill="#44739e" d="M12.3691.211a92 92 0 0 0-1.332.0097c-.5695.0081-.8763.2695-.8984.6953-.0272.5238-.006 1.0483-.006 1.6133h4.4337c0-.5821.0244-1.137-.0098-1.6914-.0242-.3912-.3527-.6096-.8555-.6172a92 92 0 0 0-1.332-.0098zm-1.6855 2.7187c.2195.5431-.1512.8184-.6016 1.082a4.82 4.82 0 0 0-.8086.5938c-1.4952 1.3637-2.2192 2.894-1.6543 4.6953.1012.3225.296.4538.7696.4492 2.4398-.0238 4.88-.0115 7.3203-.0117 1.3071-.0001 1.4233-.0807 1.5762-1.0977a1.8 1.8 0 0 0 .0136-.287 5.043 5.043 0 0 0-2.4394-4.1915c-.4719-.3294-1.134-.5774-.8907-1.2324Zm.211 1.4902a.85.85 0 0 1 .121.002 13.1 13.1 0 0 0-1.6543 1.998 10.02 10.02 0 0 0-.6523 2.2852c-.649-1.45.9258-4.2227 2.1855-4.2852m-2.8868 5.6543v8.0176h8.7266v-8.0176zm1.084.838.209.0038a2.14 2.14 0 0 1 .0879.4277c.0058 1.7885.003 3.5768.002 5.3653a.81.81 0 0 1-.0196.2851c-.0234.062-.1156.107-.1777.1602-.0671-.0488-.1747-.0884-.1934-.1465a1.1 1.1 0 0 1-.0195-.334c-.001-1.7565-.0035-3.513.0039-5.2695a2.38 2.38 0 0 1 .1074-.4922m7.377 7.5526c-1.3622.025-2.727.0098-4.0899.0098q-1.8896.0011-3.7793 0c-.9424-.0005-1.1977.155-1.2246.8984a46.3 46.3 0 0 0 0 3.1622c.0185.5508.4515.947 1.129 1.0683.6367.1141 1.3562.2812 1.832-.3086.2057-.2551.4435-.2382.6992-.0234.435.3656 1.7699.656 2.1601.336.6501-.5333.963-.395 1.668-.0118a1.7973 1.7973 0 0 0 2.4844-1.0781 31.4 31.4 0 0 0-.004-3.1582 1.76 1.76 0 0 0-.162-.5078c-.0996-.2806-.3014-.3943-.713-.3868m-7.8536.879c.0775.0952.2155.1875.2207.2851.024.4465.0118.8945.0118 1.3418-.0004.4313.0102.8642-.0098 1.295-.0041.0881-.1247.1733-.1914.2597-.088-.0863-.2501-.1724-.252-.2598a65 65 0 0 1-.002-2.6347c.002-.0964.1455-.1917.2227-.2871" class="cls-1" data-name="Colore riempimento 1"/></svg>