<svg xmlns="http://www.w3.org/2000/svg" data-name="Livello 1" viewBox="0 0 24 24"><path fill="#44739e" d="M9.792 4.892a6.43 6.43 0 0 1-3.2967-3.5245c-.0725-.2119.0087-.281.2772-.3221a3.11 3.11 0 0 1 1.4087.1613 6.8 6.8 0 0 1 .724.268 1.505 1.505 0 0 0 1.3035-.027c.3421-.1612.675-.3351 1.0291-.48A2.18 2.18 0 0 1 12.978.9534a5.254 5.254 0 0 0 3.3781.2649 7.2 7.2 0 0 1 .855-.1408c.5162-.0515.6613.0844.4945.4407a7.39 7.39 0 0 1-2.7814 3.161c-.0749.048-.1366.1075-.2774.2197a2.7 2.7 0 0 1 .3167.1571 18.16 18.16 0 0 1 6.0061 6.1844 8.485 8.485 0 0 1 .9532 3.4359c.0826 1.1052.1425 2.213.1403 3.3196a5.44 5.44 0 0 1-.6562 2.6075c-.7364 1.3644-2.1488 2.0649-4.0417 2.2817a11.5 11.5 0 0 1-1.278.0557c-2.678.0047-5.3562.013-8.034-.0021a6.535 6.535 0 0 1-3.778-1.0255 3.975 3.975 0 0 1-1.5894-2.3964 11.07 11.07 0 0 1-.1694-3.9389 20.1 20.1 0 0 1 .3564-2.6015A10.57 10.57 0 0 1 5.759 8.2236a21.63 21.63 0 0 1 3.9502-3.2613.9.9 0 0 0 .0828-.0703m2.6343 4.9675a13.84 13.84 0 0 0 .4342-4.7993c-.0105-.1613-.1155-.2152-.3247-.2075a4.85 4.85 0 0 1-.8085-.0032 2.098 2.098 0 0 0-1.8909.6698 10.63 10.63 0 0 0-3.3563 6.8686c-.0308.3105-.0042.6241-.0042 1.0045.0337-.1094.0493-.1545.0614-.2a17.07 17.07 0 0 1 1.813-4.4174 10.39 10.39 0 0 1 3.2013-3.51c.0862-.0572.1813-.107.2723-.1601l.1198.0227zm.5242-4.9725c4.0525 3.4599 5.631 7.6371 6.4795 12.0362a3.7 3.7 0 0 0 .01-.5263c-.0652-.8795-.095-1.762-.2142-2.6375a13.19 13.19 0 0 0-2.2694-5.866 11.59 11.59 0 0 0-2.6112-2.6771 1.6 1.6 0 0 0-1.3947-.3293" class="cls-1" data-name="Colore riempimento 1"/></svg>