<svg xmlns="http://www.w3.org/2000/svg" viewBox="0 0 24 24"><path fill="#44739e" d="M9.572 5.082A6.38 6.38 0 0 1 6.3 1.584c-.072-.211.009-.279.275-.32a3.086 3.086 0 0 1 1.398.16 6.8 6.8 0 0 1 .719.266 1.494 1.494 0 0 0 1.293-.027c.34-.16.67-.332 1.022-.476a2.163 2.163 0 0 1 1.727-.014 5.214 5.214 0 0 0 3.352.263 7.2 7.2 0 0 1 .849-.14c.512-.051.656.084.491.437a7.334 7.334 0 0 1-2.761 3.137c-.074.048-.135.107-.275.218a2.7 2.7 0 0 1 .314.156 18.02 18.02 0 0 1 5.961 6.138 8.42 8.42 0 0 1 .946 3.41c.082 1.096.141 2.196.139 3.294a5.4 5.4 0 0 1-.651 2.588c-.731 1.354-2.133 2.049-4.011 2.264a11.4 11.4 0 0 1-1.269.056c-2.657.004-5.315.012-7.973-.003a6.485 6.485 0 0 1-3.749-1.017 3.945 3.945 0 0 1-1.577-2.379 10.99 10.99 0 0 1-.169-3.909 19.95 19.95 0 0 1 .354-2.581 10.49 10.49 0 0 1 2.864-4.717A21.47 21.47 0 0 1 9.49 5.151a.9.9 0 0 0 .082-.069m2.614 4.929a13.74 13.74 0 0 0 .431-4.763c-.01-.16-.114-.213-.322-.205a4.8 4.8 0 0 1-.802-.004 2.082 2.082 0 0 0-1.877.665 10.55 10.55 0 0 0-3.331 6.817c-.03.308-.004.619-.004.996.033-.108.049-.153.061-.198a16.94 16.94 0 0 1 1.799-4.384 10.31 10.31 0 0 1 3.177-3.483c.086-.057.18-.106.27-.159l.119.022Zm.52-4.934c4.022 3.433 5.589 7.579 6.431 11.945a3.7 3.7 0 0 0 .01-.523c-.065-.873-.095-1.748-.213-2.617a13.09 13.09 0 0 0-2.252-5.822 11.5 11.5 0 0 0-2.591-2.657 1.588 1.588 0 0 0-1.385-.326"/></svg>