<svg xmlns="http://www.w3.org/2000/svg" data-name="Livello 1" viewBox="0 0 24 24"><path fill="#44739e" d="M7.0879.1895c-.9665.049-1.3927.4182-1.3945 1.1972-.0046 1.9349-.039 3.8708.0156 5.8047a2.894 2.894 0 0 1-.7969 2.0469c-.5963.6871-1.2053 1.3678-1.791 2.0605a2.11 2.11 0 0 0-.6016 1.3809c.017 3.1376.0234 6.2746-.0039 9.4121-.006.6877.3926 1.1024 1.1367 1.3047a9.14 9.14 0 0 0 2 .3613c1.3762.055 2.76.0357 4.1387.006a7.78 7.78 0 0 0 1.541-.2169c1.1557-.2636 1.5326-.6837 1.5332-1.6387.002-2.9807-.0152-5.9627.0157-8.9433a2.553 2.553 0 0 0-.5938-1.7012 30 30 0 0 0-.6543-.7813c-.4643-.5376-.944-1.0685-1.3984-1.6113a2.182 2.182 0 0 1-.5371-1.4805c.0165-.9934.0058-1.9869.0058-2.9804 0-1.0198.0042-2.039-.002-3.0586C9.6969.6175 9.278.247 8.3672.1914A11.5 11.5 0 0 0 7.088.1894m.9238 9.5078c.1362.0017.2784.1354.5293.4043.5678.6083 1.077 1.2555 1.6934 1.83a2.349 2.349 0 0 1 .8144 2.0137c-.0696 1.0436-.0176 2.092-.0176 3.1387 0 1.2298-.004 2.4597.002 3.6894.0042.8605-.1278.6683-.9023.8711a4.14 4.14 0 0 1-.9766.0528c-.756.0064-1.5134.003-2.2695.002-.1971-.0003-.3951.009-.5898-.0098-1.031-.0999-1.1418-.1995-1.1426-1.0313-.0023-2.4071.0066-4.8136-.0098-7.2207a1.594 1.594 0 0 1 .461-1.1621c.662-.7152 1.275-1.4605 1.914-2.1895.2284-.2606.358-.3904.4941-.3886m-1.7402.3613c-.0922.137-.1756.2778-.2774.4101-.307.3995-.644.7859-.9277 1.1954a3.55 3.55 0 0 0-.7285 2.078c.015 1.1474.0254 2.297-.0215 3.4434-.0487 1.1922-.167 2.3819-.2598 3.6329-.0482-.0848-.0734-.1074-.0742-.1309-.078-2.3418-.1239-4.685-.2441-7.0254a3.502 3.502 0 0 1 1.248-2.7168 4.48 4.48 0 0 1 1.2852-.8867m11.746 3.5a12.1 12.1 0 0 0-1.707.1074c-1.4006.1682-1.9475.937-1.9335 1.8203.0149.9406.0038 1.8816.0039 2.8223 0 .993.0086 1.9876-.004 2.9805-.0094.7549.4808 1.224 1.3165 1.4922a3.47 3.47 0 0 0 .9453.1972c.9507.0247 1.9095.0614 2.8535-.0078 1.519-.1114 2.2108-.7582 2.2168-1.9668.0089-1.803.0125-3.6052-.002-5.4082-.009-1.1003-.6522-1.6885-1.9863-1.9043a12.1 12.1 0 0 0-1.7032-.1328m.793.3613a14 14 0 0 1 1.4903.3516c.251.0822.2639.3168.0137.4375a7.9 7.9 0 0 1-.9356.3144 7.2 7.2 0 0 1-.836-.58c-.0656-.06.0547-.2595.1114-.3887.0242-.0552.1192-.1425.1562-.1348m-1.6347.0137c.153-.0127.3432.2473.461.3398-.173.2526-.3107.4314-.42.6211-.0732.127-.126.1567-.5371.086a5.5 5.5 0 0 1-1.0156-.2325c-.344-.1316-.34-.4058.0215-.5195a6.93 6.93 0 0 1 1.4902-.295m-2.004 1.7344c.0657.0993.1846.1983.1876.2988.0178.6013.0098 1.203.0098 1.8047h-.002c0 .6278.0047 1.2552-.0078 1.8828-.0017.0847-.0936.1678-.1446.252-.0645-.0728-.1819-.1442-.1855-.2188-.0202-.418-.0154-.8354-.0156-1.254-.0006-.8108-.0037-1.6227.0098-2.4335.0018-.1112.0964-.2213.1484-.332z" class="cls-1" data-name="Colore riempimento 1"/></svg>