<svg xmlns="http://www.w3.org/2000/svg" viewBox="0 0 24 24"><path fill="#44739e" d="M9.058 11.366a6.86 6.86 0 0 0 1.33-.025c.191-.04.403-.302.512-.535.553-1.181 1.076-2.385 1.633-3.634l.406.218c-.315.694-.613 1.339-.902 1.991-.278.626-.547 1.259-.847 1.951.385.046.702.082 1.02.12.34.041.502-.272.671-.566.447-.774.885-1.558 1.343-2.32.081-.134.244-.185.368-.274a1.68 1.68 0 0 1-.035.596c-.452.833-.932 1.64-1.452 2.542.728.134 1.358.298 1.867-.525a20 20 0 0 1 1.286-1.781c.386.268.338.489.145.737-.412.531-.823 1.063-1.248 1.613 1.004.53 1.763-.126 2.541-.667a3.07 3.07 0 0 1 .473-.332c.091-.04.215.045.323.074-.044.15-.055.367-.14.439a4.54 4.54 0 0 0-.803.71 5.66 5.66 0 0 0 1.005-.017.947.947 0 0 0 .486-.375 8.64 8.64 0 0 1 2.397-2.491 2.374 2.374 0 0 1 1.051-.274c.503-.016.603.209.44.83a17.6 17.6 0 0 1-.35 1.164 4.625 4.625 0 0 0 .028 3.038c.12.358.229.723.325 1.093.144.559-.005.834-.458.873a2.638 2.638 0 0 1-2.009-1.12c-.533-.555-.991-1.228-1.5-1.824a.89.89 0 0 0-.51-.314 4.9 4.9 0 0 0-.922.049c.242.56.937.452.997 1.392-1.137-.591-2.057-1.77-3.328-1.225.454.694.906 1.384 1.352 2.081a1.86 1.86 0 0 1-.154.245 14.8 14.8 0 0 1-1.288-1.516 1.327 1.327 0 0 0-1.53-.75 2.3 2.3 0 0 1-.47.004c.513.909.979 1.743 1.452 2.569.145.252.278.482-.094.716-.324-.535-.66-1.082-.99-1.633-.124-.207-.234-.426-.353-.637-.654-1.162-.717-1.192-1.937-.877l1.472 3.305a1.92 1.92 0 0 1 .172.405.437.437 0 0 1-.076.322.224.224 0 0 1-.262-.029 1.92 1.92 0 0 1-.239-.449c-.455-1.015-.922-2.023-1.352-3.056-.156-.376-.326-.538-.662-.492a9.2 9.2 0 0 1-1.149.01c.076.874.124 1.69.222 2.496.162 1.328-.203 1.965-1.24 1.97a3.46 3.46 0 0 1-1.372-.253 22.54 22.54 0 0 1-5.406-3.647c-.397-.333-.328-.766-.182-1.238a5.93 5.93 0 0 1 1.818-2.68 9.44 9.44 0 0 1 4.342-2.468 3.74 3.74 0 0 1 .846-.076c.915.022 1.36.731 1.223 1.902-.095.819-.178 1.641-.286 2.645m-4.347-.163c.3-.014.607-.454.593-.85-.015-.427-.321-.785-.647-.76a.765.765 0 0 0-.592.834c.02.426.324.791.646.776"/></svg>