<svg xmlns="http://www.w3.org/2000/svg" viewBox="0 0 24 24"><path fill="#44739e" d="M7.317 1.016c-.901.045-1.298.389-1.299 1.115-.005 1.802-.037 3.605.014 5.406a2.695 2.695 0 0 1-.742 1.907c-.555.64-1.123 1.274-1.668 1.919a1.965 1.965 0 0 0-.56 1.286c.015 2.923.021 5.844-.004 8.767-.006.64.366 1.027 1.059 1.215a8.5 8.5 0 0 0 1.862.336c1.282.052 2.571.034 3.855.006a7.25 7.25 0 0 0 1.436-.202c1.076-.246 1.427-.637 1.428-1.526.001-2.777-.015-5.554.014-8.33a2.378 2.378 0 0 0-.553-1.585 28 28 0 0 0-.609-.727c-.433-.501-.879-.996-1.303-1.501a2.032 2.032 0 0 1-.5-1.379c.015-.925.005-1.851.005-2.776 0-.95.004-1.899-.001-2.849-.004-.684-.395-1.029-1.243-1.08a10.7 10.7 0 0 0-1.191-.002m.86 8.855c.127.002.259.126.493.377.529.566 1.003 1.169 1.577 1.704a2.188 2.188 0 0 1 .759 1.876c-.065.972-.016 1.948-.016 2.923 0 1.146-.004 2.291.001 3.437.004.801-.119.622-.84.811a3.86 3.86 0 0 1-.91.049c-.704.006-1.409.003-2.113.002-.184 0-.368.008-.55-.009-.96-.093-1.063-.186-1.064-.961-.002-2.242.006-4.483-.009-6.725a1.485 1.485 0 0 1 .429-1.082c.617-.667 1.188-1.361 1.783-2.04.213-.242.333-.363.46-.362m-1.621.337c-.086.127-.163.259-.258.382-.286.372-.6.732-.864 1.113a3.306 3.306 0 0 0-.679 1.936c.014 1.068.024 2.139-.02 3.207-.045 1.11-.155 2.218-.242 3.384-.045-.079-.068-.1-.069-.122-.072-2.182-.115-4.364-.227-6.544a3.262 3.262 0 0 1 1.162-2.53 4.17 4.17 0 0 1 1.197-.826m10.941 3.26a11.3 11.3 0 0 0-1.59.1c-1.305.156-1.814.873-1.801 1.695.014.876.003 1.753.003 2.629 0 .925.008 1.851-.003 2.776-.009.703.448 1.14 1.226 1.39a3.23 3.23 0 0 0 .88.184c.886.023 1.779.057 2.658-.008 1.415-.104 2.059-.706 2.065-1.832.008-1.679.012-3.358-.002-5.037-.008-1.025-.607-1.573-1.85-1.774a11.3 11.3 0 0 0-1.586-.123m.738.336a13 13 0 0 1 1.388.328c.234.076.246.295.013.407a7.4 7.4 0 0 1-.871.293 6.7 6.7 0 0 1-.779-.54c-.061-.056.051-.242.104-.362.022-.052.111-.133.145-.126m-1.522.013c.142-.012.319.23.429.317-.161.235-.289.401-.391.578-.068.118-.118.146-.5.08a5.1 5.1 0 0 1-.946-.216c-.321-.123-.317-.378.02-.484a6.46 6.46 0 0 1 1.388-.275m-1.867 1.615c.061.093.172.185.175.279.016.56.009 1.12.009 1.681h-.002c0 .584.004 1.169-.007 1.753-.002.079-.087.157-.135.235-.06-.068-.169-.134-.173-.204-.018-.389-.014-.778-.014-1.168-.001-.755-.004-1.511.009-2.266.002-.104.09-.207.138-.31"/></svg>