<svg xmlns="http://www.w3.org/2000/svg" viewBox="0 0 24 24"><path fill="#44739e" d="m13.391 10.389.356-.046.177.275-.223.252Zm1.768 5.655h-.518V17.3h.52Zm-.192 1.025h-.227v-.798h.231Zm.192-6.093h-.44a.169.169 0 0 1-.177-.159v-.22a.213.213 0 0 1-.115-.11l-.166.085a.189.189 0 0 1-.242-.058l-.132-.207a.148.148 0 0 1 .065-.22l.718-.375a.201.201 0 0 1 .256.063l.122.19a.159.159 0 0 1-.068.23l-.175.091a.176.176 0 0 1 .047.12.199.199 0 0 1-.133.182v.22h.44ZM2.505 19.742h-.046v-.071l.123-.026.123.026v.071h-.046v3.23h-.154Zm-1.338 2.501a4.2 4.2 0 0 1 .138.615v.119l-.302-.013v-1.403c0 .012 0 .026.008.038a6.3 6.3 0 0 0 .156.644M1.15 4.553a.56.56 0 0 0 .024.264c.023.025.04 0 .04-.061a.097.097 0 0 1 .084-.109c.085 0 .227.453.185.591-.012.041.031.11.096.14.183.103.194.31.013.272-.137-.03-.14-.025-.063.1.105.167.103.199-.01.33-.086.096-.083.11.029.199a.33.33 0 0 1 .121.22.24.24 0 0 0 .11.185c.22.132.126 1.021-.11 1.021-.031 0-.054.05-.052.11s.017.079.033.032a.126.126 0 0 1 .11-.079.09.09 0 0 0 .08-.098.154.154 0 0 1 .079-.131.134.134 0 0 0 .051-.157c-.033-.14.09-.168.199-.046s.086.261-.031.22c-.067-.027-.058 0 .03.073a.684.684 0 0 1 .16.726c-.077.123-.076.155.01.319.077.146.082.194.024.234s-.055.066.012.129a.99.99 0 0 1-.066.814c-.099.088-.008.272.135.272a.088.088 0 0 1 .078.095c0 .06-.053.096-.14.096s-.13.027-.11.088a.12.12 0 0 1-.028.131c-.041.027-.038.081.01.168.058.11.053.142-.033.22s-.093.103-.029.22.058.146.008.182a.213.213 0 0 0-.056.172c.005.072-.021.12-.061.11s-.071.009-.071.038c0 .11.075.127.193.04s.141-.079.26.015.135.11.044-.04c-.11-.172-.074-.322.071-.322.11 0 .22.433.144.564a.363.363 0 0 0 .033.22.385.385 0 0 1 .01.303.377.377 0 0 0 .025.319.904.904 0 0 1-.054.725c-.037.025-.031.058.016.091.11.076-.041.251-.22.251-.11 0-.132.026-.11.1a.77.77 0 0 1 .035.204c0 .086.011.083.076-.016.143-.22.25-.079.25.33 0 .372-.147.66-.342.66-.036 0-.009.045.06.099.174.138.158.22-.044.22-.177 0-.213.055-.11.167.04.045.021.119-.06.235a.594.594 0 0 0-.101.52c.014.098-.013.126-.123.126s-.284.1-.284.179c0 .014.064.013.142 0 .192-.041.193.185 0 .401a.33.33 0 0 0-.11.251c.041.123.134.122.134 0a.089.089 0 0 1 .081-.095c.103 0 .283.409.238.539-.02.059 0 .097.05.097a.09.09 0 0 1 .084.094.11.11 0 0 1-.11.096c-.12 0-.153.092-.057.158s.059.22-.075.258c-.11.031-.126.069-.11.232.024.187.019.193-.152.166-.098-.017-.178 0-.178.023s.065.053.144.053c.163 0 .253.175.134.259-.06.042-.05.057.042.058a.188.188 0 0 1 .16.26.141.141 0 0 1-.11.057c-.044 0-.082.057-.082.125a.22.22 0 0 1-.05.157.58.58 0 0 0-.087.258c-.029.172-.066.22-.158.22-.116 0-.116 0-.015.129.139.172.03.325-.144.203s-.251-.096-.145.022c.119.134.11.177-.038.25a1.03 1.03 0 0 0-.36.714c0-.012-.006-.026-.008-.038V4.234a.285.285 0 0 1 .15.319m5.473 15.189h-.045v-.071l.122-.026.123.026v.071h-.046v3.23h-.154Zm-.092.138h-3.79v3.092h3.79Zm-2.596.598h-.981v-.294h.981Zm0 .36h-.981v-.22h.981Zm0 .36h-.981v-.22h.981Zm0 .36h-.981v-.22h.981Zm0 .36h-.981v-.22h.981Zm0 .36h-.981v-.22h.981Zm0 .389h-.981v-.244h.981Zm1.197-2.189h-.981v-.294h.981Zm0 .36h-.981v-.22h.981Zm0 .36h-.981v-.22h.981Zm0 .36h-.981v-.22h.981Zm0 .36h-.981v-.22h.981Zm0 .36h-.981v-.22h.981Zm0 .389h-.981v-.244h.981Zm1.199-2.189H5.35v-.294h.981Zm0 .36H5.35v-.22h.981Zm0 .36H5.35v-.22h.981Zm0 .36H5.35v-.22h.981Zm0 .36H5.35v-.22h.981Zm0 .36H5.35v-.22h.981Zm0 .389H5.35v-.244h.981Zm4.426-2.925h-.046v-.071l.123-.026.123.026v.071h-.046v3.23h-.154Zm-.091.138h-3.79v3.092h3.79Zm-2.598.598h-.981v-.294h.981Zm0 .36h-.981v-.22h.981Zm0 .36h-.981v-.22h.981Zm0 .36h-.981v-.22h.981Zm0 .36h-.981v-.22h.981Zm0 .36h-.981v-.22h.981Zm0 .389h-.981v-.244h.981Zm1.198-2.189h-.98v-.294h.98Zm0 .36h-.98v-.22h.98Zm0 .36h-.98v-.22h.98Zm0 .36h-.98v-.22h.98Zm0 .36h-.98v-.22h.98Zm0 .36h-.98v-.22h.98Zm0 .389h-.98v-.244h.98Zm1.198-2.189H9.48v-.294h.99Zm0 .36H9.48v-.22h.99Zm0 .36H9.48v-.22h.99Zm0 .36H9.48v-.22h.99Zm0 .36H9.48v-.22h.99Zm0 .36H9.48v-.22h.99Zm0 .389H9.48v-.244h.99Zm4.426-2.925h-.046v-.071l.123-.026.123.026v.071h-.046v3.23h-.154Zm-.092.138h-3.79v3.092h3.79Zm-2.597.598h-.981v-.294h.981Zm0 .36h-.981v-.22h.981Zm0 .36h-.981v-.22h.981Zm0 .36h-.981v-.22h.981Zm0 .36h-.981v-.22h.981Zm0 .36h-.981v-.22h.981Zm0 .389h-.981v-.244h.981Zm1.198-2.189h-.981v-.294h.981Zm0 .36h-.981v-.22h.981Zm0 .36h-.981v-.22h.981Zm0 .36h-.981v-.22h.981Zm0 .36h-.981v-.22h.981Zm0 .36h-.981v-.22h.981Zm0 .389h-.981v-.244h.981Zm1.199-2.189h-.981v-.294h.981Zm0 .36h-.981v-.22h.981Zm0 .36h-.981v-.22h.981Zm0 .36h-.981v-.22h.981Zm0 .36h-.981v-.22h.981Zm0 .36h-.981v-.22h.981Zm0 .389h-.981v-.244h.981Zm5.588-2.401h-1.038v2.237h1.038Zm-.237 2h-.542v-1.76h.542Zm-.998-2h-1.026v2.237h1.026Zm-.231 2.001h-.55v-1.76h.55Zm1.453-5.879h-2.261v3.383h2.261Zm-.179.77h-1.943v-.586h1.944Zm.029.22h-.028v-.03h-1.944v.03h-.028a.275.275 0 0 1 0-.163h.028v.03H20v-.03h.026c.013-.001.013.162-.003.162Zm-4.87-.078v5.675h2.318v-7.292h3.167l-.007 7.026v.266H23V1.023l-9.274 7.539h1.43v2.2h.007v.212h-.007v5.068h.007V17.3Zm2.338-4.324V8.599h3.099v.104l.009 4.179v.096l-3.031.006Zm2.845-4.136h-2.588l.018 3.867h2.587Zm-.163.945h-2.261V8.95h2.261Zm-.014.312h-.031v-.042h-2.171v.042h-.031a.47.47 0 0 1 0-.232h.03v.042h2.171v-.042h.03a.47.47 0 0 1 .002.232"/></svg>