<svg xmlns="http://www.w3.org/2000/svg" viewBox="0 0 24 24"><path fill="#44739e" d="M18.998 13.017h-2.475c-.145 0-.209-.045-.209-.19v-2.535c0-.105-.039-.11-.117-.11h-.825c-.083 0-.11 0-.11.11v2.449c0 .815.292 1.079 1.086 1.079h2.663c.098 0 .098-.032.098-.116v-.567c0-.083 0-.12-.11-.12Zm-4.52-2.835h-2.666c-.731 0-1.17.232-1.17.998v1.643c0 .77.44.997 1.178.997h2.658c.11 0 .099-.032.099-.11v-.569c0-.077 0-.11-.099-.11h-2.612c-.117 0-.178-.043-.178-.161v-.498h2.718c.105 0 .099-.033.099-.11v-.561c0-.082 0-.11-.099-.11h-2.718v-.463c0-.116.061-.16.178-.16h2.612c.11 0 .099-.033.099-.115v-.563c0-.074.01-.108-.099-.108m-4.531 0H7.282c-.73 0-1.179.232-1.179.998v1.643c0 .77.452.997 1.179.997h2.665c.104 0 .104-.032.104-.11v-.569c0-.077 0-.11-.104-.11H7.339c-.11 0-.177-.043-.177-.161v-.498h2.713c.11 0 .11-.033.11-.11v-.561c0-.082 0-.11-.11-.11H7.16v-.463c0-.116.061-.16.177-.16h2.608c.103 0 .103-.033.103-.115v-.563c.01-.074.01-.108-.101-.108m-4.631 0H2.185c-.74 0-1.185.232-1.185.998v1.643c0 .77.44.997 1.185.997h3.131c.105 0 .099-.032.099-.11v-2.007c0-.082 0-.11-.099-.11H2.73c-.104 0-.098.028-.098.11v.563c0 .077 0 .11.098.11h1.63v.66H2.229c-.11 0-.175-.042-.175-.16V11.13c0-.115.064-.159.175-.159h3.087c.105 0 .099-.033.099-.116v-.563c0-.076 0-.11-.099-.11m17.608 0h-.954a.372.372 0 0 0-.31.121l-1.32 1.44-1.3-1.44a.385.385 0 0 0-.316-.121h-.953c-.076 0-.11.04-.015.137l2.066 2.272v1.125c0 .104.033.104.116.104h.826c.077 0 .11 0 .11-.104v-1.125l2.073-2.272c.087-.097.059-.137-.023-.137"/></svg>