<svg xmlns="http://www.w3.org/2000/svg" viewBox="0 0 24 24"><path fill="#44739e" d="m3.024 20.77-.603-.274-.475-.577-.476-.574-.236-.803L1 17.743l.083-.699.082-.697.33-.703.33-.702.679-.66.678-.66 1.778-.814 1.778-.809.255-.251.256-.251-.22-.727-.22-.726v-.693h-.261l-.33.267-.33.268.191.305.19.305-.097.252-.097.252-.408-.048-.408-.047-.046-.481-.046-.482h-.22l-.321.371-.326.366h-.22l-.205-.129-.205-.13.092-.369.092-.368.299-.078.298-.078v-.359l-.308.081-.298.079-.214-.214-.211-.217.084-.22.083-.22h.502l.175.175.175.175.094-.093.097-.09-.24-.24-.244-.24v-.239l.239-.196.239-.198.317.398.317.397v-.947l.261-.052.259-.052.116.313.11.312.33-.45.33-.45h.718l.522.538.522.538.299.801.301.801v.284h.267l.397-.672.394-.672.456-.52.457-.52.458-.248.46-.248 1.37.015 1.37.016v-.391l-.143-.093-.147-.091V5.517l-.143-.088-.142-.088-.299.187-.3.188-.259-.259-.26-.259.161-.256.161-.258.355-.049.355-.05.139-.133.138-.134-.342-.364-.343-.365.09-.232.089-.233.228-.088.227-.087.212.176.211.175.045.311.047.31.174.057.174.059.049-.417.047-.421.33-.047.33-.047.091.237.092.239-.24.265-.24.265v.22l.396-.311.397-.312.23.23.231.229-.162.257-.16.256-.318.048-.318.048v.237l.44.089.44.09v.609l-.242.092-.242.093-.276-.173-.277-.173v.461l.517.809.516.807h.294l.308-.604.307-.604.505-.211.505-.21h2.306l.809.33.809.33.213.381.23.39-.093.371-.093.372-.695.684-.695.685-.836.446-.836.44-.592.094-.592.095-.494-.416-.495-.416-.607.679-.608.679-.274.687-.275.687.117.258.118.257.056-.407.055-.408h.758l-.089.44-.088.44h.44v-.296h.74v.6l-.407.159-.408.16.345.132.343.132-.048.33-.047.33-.259-.044-.259-.043v.457h-.577l-.135-.238-.133-.239-.091.239-.091.238h-.635l.095-.559.094-.559-.691-.337-.692-.33.11-.475.11-.474.11-.555.11-.55h-.118l-.369.242-.369.242-.92-.079-.921-.085-.311-.094-.311-.093-.26.259-.261.26.672.342.674.342.232.33.232.33v.485l-.379.557-.377.556.046.241.047.24.44.077.44.077v.737l-.479.009-.474.015-.088.088-.088.088.181.291.183.291-.097.252-.091.252-.33-.047-.33-.048-.047-.407-.048-.407h-.155l-.259.32-.26.322-.245-.094-.246-.094v-.566l.33-.244.33-.244-.322.152-.322.151-.233-.09-.234-.089v-.353L9.8 15.6l.177-.177h.607l-.356-.274-.357-.274.094-.242.092-.241h.417l.183.22.184.22.13-.081.132-.081v-.871h-1.047l-.55-.228-.544-.227-1.487.458-1.487.46-.963.297-.963.297-.604.383-.605.382-.348.508-.349.509v1.826l.242.463.243.464.453.382.455.382.531.094.514.096.366-.096.375-.093.095.246.094.248-.274.2-.275.201h-1.35Z"/></svg>