<svg xmlns="http://www.w3.org/2000/svg" viewBox="0 0 24 24"><path fill="#44739e" d="M9.885 10.88h.25v.082h-.306v-.3h.427l.198-.135h-.667l-.205.138v.433h.61l.188-.128v-.225h-.296Zm1.966-.186-.302-.167H11.3v.571h.245v-.381l.306.19v.191h.246v-.571h-.246Zm-.807-.032.201-.135h-.587l-.214.132v.439h.596l.201-.136h-.551v-.082h.236l.2-.135h-.436v-.083Zm1.368.3v-.082h.235l.202-.135h-.437v-.083h.355l.199-.135h-.586l-.214.132v.439h.597l.201-.136Zm2.351-.3.2-.135h-.604l-.203.138v.215h.548v.082h-.354l-.2.136h.605l.196-.133v-.22h-.548v-.083Zm-.948-.135h.247v.57h-.247Zm-.264.135.201-.135h-.605l-.202.138v.215h.548v.082h-.354l-.2.136h.604l.197-.133v-.22h-.549v-.083Zm8.664.443c-1.54-2.247-5.434-3.719-9.505-3.875-.006-.013-.009-.026-.015-.041-.221-.44 1.005-1.025 1.224-1.37a1.76 1.76 0 0 0 .179-1.595c-.207-.561-1.108-.319-.899.249.325.88-.581 1.178-1.092 1.69a1.239 1.239 0 0 0-.35 1.055c-4.236.057-8.375 1.553-9.972 3.887-1.628 2.382-.458 5.965 1.094 7.577s3.355 2.176 4.299-.134c.826-2.026 4.594-2.112 4.822-2.115s3.997.089 4.823 2.115c.944 2.317 2.75 1.75 4.299.137s2.721-5.197 1.093-7.58m-6.49-1.18 1.75-.779a.347.347 0 1 1 .28.635l-1.754.779a.353.353 0 0 1-.466-.172.34.34 0 0 1 0-.27.356.356 0 0 1 .185-.193Zm-9.9 6.622a3.611 3.611 0 1 1 3.581-3.609 3.604 3.604 0 0 1-3.589 3.609Zm3.783-5.28-.378-.22v-.489l.355-.207h1.742l.316-.453h1.269l.318.453h1.769l.357.208v.484l-.378.22Zm11.374 2.661c-.812.294-2.234.985-2.248.99-.1.043-.416.22-.781.435-.414.236-.929.532-1.306.727a1.705 1.705 0 0 1-.77.168 2.047 2.047 0 0 1-2.071-1.972c-.181-1.857 3.025-3.435 3.161-3.501 2.166-.979 3.762-.93 4.686.125a1.86 1.86 0 0 1 .529 1.733 1.97 1.97 0 0 1-1.2 1.295m-2.789-1.808a.831.831 0 1 0 .825.829.827.827 0 0 0-.825-.829m1.483-1.815a6.57 6.57 0 0 0-2.609.683c-.03.014-3.19 1.571-3.028 3.265a1.824 1.824 0 0 0 1.84 1.76 1.485 1.485 0 0 0 .66-.142c.373-.193.88-.488 1.297-.723.387-.22.693-.398.801-.44.009-.005 1.442-.702 2.265-1a1.726 1.726 0 0 0 1.056-1.13 1.67 1.67 0 0 0-.479-1.521 2.285 2.285 0 0 0-1.803-.752m-3.62 4.886a1.065 1.065 0 1 1 1.057-1.065 1.062 1.062 0 0 1-1.057 1.065m2.137-1.177a1.065 1.065 0 1 1 1.058-1.065 1.062 1.062 0 0 1-1.058 1.065m2.239-.974a1.065 1.065 0 1 1 1.057-1.063 1.062 1.062 0 0 1-1.057 1.063M5.307 14.808v-1.375l-1.352.013a1.956 1.956 0 0 0 1.352 1.362m15.125-3.662a.831.831 0 1 0 .824.831.828.828 0 0 0-.824-.831m-4.376 2.151a.831.831 0 1 0 .825.829.828.828 0 0 0-.825-.829m-.152-2.951 1.747-.78a.12.12 0 0 0 .068-.154.11.11 0 0 0-.11-.063.13.13 0 0 0-.053.011l-1.752.778a.128.128 0 0 0-.068.07.11.11 0 0 0 0 .086.121.121 0 0 0 .168.052m-9.575.715v1.377l1.352-.015a1.96 1.96 0 0 0-1.352-1.362m-.016 1.595a.22.22 0 0 1-.22-.22v-1.423a1.88 1.88 0 0 0-.55 0v1.43a.22.22 0 0 1-.22.22H3.906a1.98 1.98 0 0 0 0 .56h1.416a.22.22 0 0 1 .22.22v1.43a1.96 1.96 0 0 0 .55 0v-1.438a.22.22 0 0 1 .22-.22h1.417a1.98 1.98 0 0 0 0-.56Zm-1.006-1.595a1.959 1.959 0 0 0-1.352 1.361h1.352Zm.51-1.502a3.377 3.377 0 1 0 3.356 3.379 3.371 3.371 0 0 0-3.356-3.379m-2.823 3.599-.531-.22.531-.227Zm2.823-3.597.226.533h-.45Zm0 6.751-.22-.535h.45Zm2.154-3.096-.026.139-.019.096h-.011a2.152 2.152 0 0 1-1.586 1.597v.007l-.093.018-.138.028v-.007a2.2 2.2 0 0 1-.279.02 2.3 2.3 0 0 1-.277-.02v.007l-.139-.028-.091-.018v-.007a2.154 2.154 0 0 1-1.587-1.597h-.013l-.018-.096-.028-.139h.007a1.98 1.98 0 0 1 0-.56h-.007l.028-.139.018-.095h.007a2.153 2.153 0 0 1 1.588-1.597v-.008l.093-.019.14-.026v.007a2.13 2.13 0 0 1 .55 0v-.007l.138.026.095.019v.008a2.153 2.153 0 0 1 1.593 1.597h.007l.018.095.027.139h-.007a1.88 1.88 0 0 1 0 .56Zm.673-.507.53.227-.53.226Zm-2.318 2.099a1.956 1.956 0 0 0 1.353-1.361H6.313Z"/></svg>