<svg xmlns="http://www.w3.org/2000/svg" viewBox="0 0 24 24"><path fill="#44739e" d="M14.632 19.493v-2.42a1.716 1.716 0 0 0-1.713-1.714h-.331l.131-.44a.239.239 0 0 0-.159-.295.24.24 0 0 0-.069-.01h-.931a.189.189 0 0 0-.188.188.2.2 0 0 0 0 .044l.127.535-.365.014a1.675 1.675 0 0 0-1.65 1.699v.027l-.006 2.061a1.855 1.855 0 0 0 1.833 1.838h.102l.27.836a.342.342 0 0 0 .33.237h.413a.34.34 0 0 0 .236-.096l.038-.035a.33.33 0 0 0 .091-.15l.234-.792h.105a1.54 1.54 0 0 0 1.502-1.527m-1.652-4.834a.515.515 0 0 1 .015.342l-.022.075a1.999 1.999 0 0 1 1.943 1.996v2.42a1.813 1.813 0 0 1-1.681 1.81l-.177.598a.3.3 0 0 1-.016.048 3.753 3.753 0 0 0-.062-7.289m0 0v-.002Zm-1.776 6.645a2.146 2.146 0 0 1-2.006-2.117l.006-2.062a1.968 1.968 0 0 1 1.916-2.014h.019l-.048-.198a.46.46 0 0 1 0-.212 3.752 3.752 0 0 0 .338 7.298c-.007-.016-.013-.032-.019-.048ZM17.58 1H6.42a1.137 1.137 0 0 0-1.138 1.137v19.726A1.137 1.137 0 0 0 6.42 23h11.16a1.137 1.137 0 0 0 1.138-1.137V2.137A1.137 1.137 0 0 0 17.58 1m.019 8.861h.493a.246.246 0 0 1 0 .492h-.493a.246.246 0 0 1 0-.492m-4.865 12.437a.62.62 0 0 1-.313.084h-.412a.63.63 0 0 1-.253-.053 4.036 4.036 0 1 1 .978-.031m4.865-11.544h.493a.246.246 0 1 1 0 .493h-.493a.246.246 0 0 1 0-.493m.493 1.386h-.493a.246.246 0 0 1 0-.493h.493a.246.246 0 0 1 0 .493m.246.647a.246.246 0 0 1-.246.246h-.493a.246.246 0 0 1 0-.493h.493a.246.246 0 0 1 .246.247m-.246 1.139h-.493a.246.246 0 0 1 0-.493h.493a.246.246 0 1 1 0 .493"/></svg>