<svg xmlns="http://www.w3.org/2000/svg" viewBox="0 0 24 24"><path fill="#44739e" d="M14.91 14.312v1.515h.236v-1.515h-.118Zm-2.555 0v1.515h.804v-.191h-.591v-.473h.544v-.212h-.544v-.45h.591v-.189h-.402Zm-.71 0v1.053l-.513-.528a7 7 0 0 0-.542-.525 2.7 2.7 0 0 0-.031.757v.758h.213v-.524l.007-.522.504.534a6 6 0 0 0 .538.535c.03 0 .035-.11.035-.77v-.77h-.214Zm-2.318 0v1.515h.804v-.191h-.592v-.473h.547l-.007-.101-.007-.1-.265-.007-.268-.006v-.448h.592v-.189h-.403Zm6.797.625c-.24-.072-.315-.128-.315-.235a.197.197 0 0 1 .165-.201.356.356 0 0 1 .351.116l.056.071.081-.052c.043-.028.08-.059.08-.069a.44.44 0 0 0-.075-.101.55.55 0 0 0-.538-.175.44.44 0 0 0-.312.243c-.122.273.022.502.374.596.281.074.339.119.339.28 0 .132-.083.208-.242.22a.362.362 0 0 1-.373-.175l-.062-.099-.076.047c-.043.025-.076.056-.076.068 0 .099.202.305.344.353a.86.86 0 0 0 .248.019.464.464 0 0 0 .421-.256c.147-.285-.004-.533-.39-.65m-2.034.002c-.227-.068-.315-.135-.315-.244 0-.22.33-.279.512-.087l.073.078.073-.047c.088-.055.09-.058.033-.144a.556.556 0 0 0-.55-.209.42.42 0 0 0-.33.577.502.502 0 0 0 .383.267c.277.074.33.121.33.282a.205.205 0 0 1-.07.158c-.07.066-.084.072-.22.062a.33.33 0 0 1-.325-.189l-.049-.087-.081.049c-.045.026-.083.062-.083.075a.66.66 0 0 0 .242.292.42.42 0 0 0 .276.073.455.455 0 0 0 .285-.047.44.44 0 0 0 .257-.362c.017-.254-.111-.4-.441-.497m-5.71.059v.194h.308v.137c0 .104-.012.149-.041.175a.627.627 0 0 1-.378.132.45.45 0 0 1-.298-.051.535.535 0 0 1-.301-.535.55.55 0 0 1 .968-.367l.076.088.081-.058a.28.28 0 0 0 .082-.068.7.7 0 0 0-.082-.11.833.833 0 0 0-.724-.241.77.77 0 0 0-.629.842.793.793 0 0 0 .44.651.64.64 0 0 0 .348.056.66.66 0 0 0 .371-.064 1.4 1.4 0 0 0 .22-.127l.084-.062v-.586H8.38Zm12.917-5.711c-.461.043-1.388.132-2.058.199s-1.54.151-1.939.192a6.41 6.41 0 0 0-1.898.321 2.35 2.35 0 0 0-.632.693 6.08 6.08 0 0 1-1.1 1.325.5.5 0 0 0-.123.11c.011.012.61-.099.958-.175.374-.085 1.21-.314 1.239-.343.015-.012 0-.021-.03-.021-.086 0-.736-.047-.852-.061l-.102-.015.055-.059c.128-.135.12-.135 1.121-.137h.923l.33-.074a16.5 16.5 0 0 0 1.89-.529c.017-.017-.12-.019-.414-.01-.927.028-2.681.059-2.695.045s.024-.05.071-.092a.42.42 0 0 1 .213-.102c.071-.014.511-.043.98-.063.979-.043 1.784-.093 2.377-.146a3.498 3.498 0 0 0 2.508-.943 2 2 0 0 0 .185-.182c.018-.027-.084-.021-1.007.067m-10.97 2.73a6.08 6.08 0 0 1-1.1-1.32 2.35 2.35 0 0 0-.633-.693 6.2 6.2 0 0 0-1.775-.312c-2.75-.27-4.997-.485-5.099-.485-.02 0-.035.01-.03.02a2.4 2.4 0 0 0 .184.181 3.496 3.496 0 0 0 2.508.944c.591.053 1.399.102 2.378.145.468.021.908.05.98.064a.42.42 0 0 1 .212.101c.047.043.078.086.071.093s-1.72-.015-2.682-.046c-.304-.008-.44-.006-.426.01a16.3 16.3 0 0 0 1.89.529l.33.074h.923c1.001 0 .99 0 1.12.138l.055.059-.102.014c-.115.015-.77.062-.851.062-.033 0-.045.009-.031.021.026.028.866.257 1.24.343.347.076.947.187.958.175a.5.5 0 0 0-.12-.117m3.289-2.224c-.066-.035-.102-.074-.102-.101s.012-.045.131-.033.129.007.129-.031a.063.063 0 0 0-.037-.057.487.487 0 0 0-.296.021c-.137.076-.097.22.085.317.08.043.119.078.119.11 0 .057-.097.076-.204.038-.069-.024-.071-.022-.064.04s.015.065.151.071c.18.01.271-.049.271-.17 0-.086-.031-.122-.183-.205m-.565-.211a.024.024 0 0 0 .009.037c.019 0 .028.093.028.28v.269h.142v-.615h-.08a.138.138 0 0 0-.099.029m-.365.11c0-.045.009-.047.13-.035s.13.006.13-.031a.063.063 0 0 0-.037-.057.63.63 0 0 0-.29.01.154.154 0 0 0-.074.084c-.037.093.016.175.152.251s.16.144.053.156a.34.34 0 0 1-.137-.016c-.068-.024-.072-.022-.064.039s.014.065.152.072c.115 0 .153 0 .205-.043.12-.095.079-.229-.102-.319-.085-.041-.118-.071-.118-.111m-.367.385h-.13v-.189h.119c.089 0 .118-.009.118-.035s-.029-.036-.118-.036h-.119v-.166h.132c.11 0 .131-.006.123-.043s-.039-.039-.226-.047-.22 0-.22.029a.068.068 0 0 0 .023.049.84.84 0 0 1 .024.275v.258h.201c.185 0 .202 0 .202-.048s-.015-.047-.129-.047m-.477-.516c-.05-.007-.052 0-.06.183l-.006.191-.15-.189c-.11-.144-.161-.189-.204-.189a.096.096 0 0 0-.075.028.024.024 0 0 0 .009.038c.019 0 .029.092.029.281 0 .268 0 .27.054.263s.053-.024.064-.17l.012-.165.137.172c.11.13.151.168.19.163s.051-.019.051-.302-.003-.296-.051-.304m-.722.516h-.142l.007-.09c.007-.087.007-.087.121-.095.078 0 .11-.016.11-.042s-.031-.033-.118-.033h-.119v-.166h.144c.123 0 .142 0 .131-.037a.3.3 0 0 1-.014-.047 1.9 1.9 0 0 0-.434.006c-.008.008-.006.027.008.043a1.16 1.16 0 0 1 .028.286l.007.259.208.006c.195.007.206 0 .206-.043s-.011-.047-.143-.047m-.575-.175c.022.01.036.045.036.095 0 .073-.006.08-.072.08a.22.22 0 0 1-.139-.366c.045-.055.066-.062.149-.055a.95.95 0 0 1 .14.028c.033.017.04.008.04-.039 0-.067-.048-.088-.22-.088a.323.323 0 0 0-.19.054.303.303 0 0 0-.11.353.342.342 0 0 0 .467.182c.07-.026.074-.031.074-.166v-.14h-.11c-.098 0-.136.036-.065.062m9.664-1.31c-2.779.125-4.241.187-4.967.203a3.31 3.31 0 0 1-1.64-.283 5.57 5.57 0 0 0-1.555-.36 1.9 1.9 0 0 0-.55.049c-.26.055-.865.233-1.65.483l-.343.11h-.639c-.669 0-1.637-.043-5.074-.199-2.998-.136-2.804-.132-2.78-.092a.935.935 0 0 0 .617.421c.255.05 1.147.135 4.044.393.806.074 1.657.152 1.892.178 1.225.134 1.479.253 1.827.849a6.27 6.27 0 0 0 .802 1.171 5.9 5.9 0 0 0 1.554 1.173l.253.13.253-.13a5.94 5.94 0 0 0 1.554-1.173 6.27 6.27 0 0 0 .802-1.171c.348-.596.602-.715 1.827-.849.235-.026 1.086-.11 1.892-.178 2.897-.258 3.789-.343 4.044-.393a.935.935 0 0 0 .617-.421c.024-.049.218-.053-2.78.089m-6.548 2.406a5.14 5.14 0 0 1-.822.851 5.7 5.7 0 0 1-.81.539 3.36 3.36 0 0 1-1.051-.695 4 4 0 0 1-.98-1.277 4.66 4.66 0 0 1-.33-.919c-.031-.203.115-.33.579-.51a11.55 11.55 0 0 1 1.609-.457 2.39 2.39 0 0 1 .761.11 9.24 9.24 0 0 1 1.385.46c.265.13.33.204.321.379a4.33 4.33 0 0 1-.662 1.519"/></svg>