<svg xmlns="http://www.w3.org/2000/svg" viewBox="0 0 24 24"><path fill="#44739e" d="M22.128 9.475c-1.607-2.627-4.988-6.008-7.615-7.615-1.24-.763-2.102-1.011-2.509-.773-1.418 1.15-2.439 2.955-2.756 4.888 3.093 2.102 6.653 5.662 8.765 8.765 1.923-.327 3.738-1.358 4.888-2.746.248-.417-.01-1.279-.773-2.519m-2.093 1.339c-2.23-1.577-5.275-4.621-6.851-6.852-1.596-2.26-1.111-2.875 1.13-1.318 2.281 1.576 5.444 4.749 7.02 7.03 1.567 2.251.962 2.736-1.299 1.14m-4.997 7c-2.865-2.022-6.792-5.949-8.825-8.824-2.052-2.916-1.427-3.709 1.468-1.696 2.935 2.033 7.01 6.118 9.043 9.053 2.013 2.895 1.229 3.52-1.686 1.467m2.707-1.725c-2.072-3.381-6.425-7.744-9.806-9.806-1.607-.992-2.717-1.319-3.233-1.012-2.221 1.805-3.698 4.819-3.698 7.903 0 3.064 1.398 5.8 3.599 7.605h-.248c-.615 0-1.11.496-1.11 1.11S3.754 23 4.359 23h5.85c.07 0 .139-.01.209-.02.138.01.277.02.426.02 3.044 0 6.108-1.517 7.902-3.689.308-.515-.029-1.626-1.001-3.222"/></svg>