<svg xmlns="http://www.w3.org/2000/svg" fill="#44739e" viewBox="0 0 24 24"><path d="M22.869 21.012c-3.859-2.727-9.135-8.005-11.862-11.87C8.24 5.224 9.082 4.167 12.97 6.865c3.942 2.735 9.425 8.222 12.162 12.17 2.699 3.894 1.649 4.742-2.263 1.977m3.631-2.323c-2.781-4.548-8.645-10.415-13.185-13.195C11.162 4.177 9.67 3.736 8.97 4.15 5.984 6.574 4 10.623 4 14.771c0 4.122 1.885 7.803 4.838 10.228H8.5c-.825 0-1.5.675-1.5 1.5s.675 1.5 1.5 1.5h7.871c.097 0 .19-.01.281-.028.19.008.376.028.567.028 4.09 0 8.208-2.035 10.632-4.955.413-.703-.032-2.199-1.351-4.355"/></svg>