<svg xmlns="http://www.w3.org/2000/svg" viewBox="0 0 24 24"><path fill="#44739e" d="M9.043 11.719v.915c0 2.09-1.069 4.084-3.817 4.084S1 14.647 1 11.995c0-2.681 1.488-4.713 4.246-4.713 1.898 0 3.157.964 3.51 2.538H7.554c-.286-.916-.992-1.498-2.318-1.498-2.137 0-3.082 1.708-3.082 3.673 0 1.937.916 3.673 3.072 3.673 1.889 0 2.643-1.288 2.643-2.766v-.172H5.055v-1.021h3.988Zm6.163 1.612c0-1.259-.659-2.433-2.08-2.433-1.431 0-2.08 1.174-2.08 2.433s.649 2.433 2.08 2.433c1.412 0 2.08-1.164 2.08-2.433m1.087 0c0 1.898-1.164 3.377-3.158 3.377-2.013 0-3.157-1.479-3.157-3.377s1.144-3.377 3.157-3.377c1.994 0 3.158 1.478 3.158 3.377m5.524-1.946c-.229-.077-.496-.124-.801-.163l.009-.009c.63-.344 1.117-.687 1.432-1.021.572-.601.591-1.135.505-1.479s-.353-.801-1.145-1.059c-.439-.143-1.03-.219-1.746-.219h-1.994v1.641h1.994c.163 0 .296 0 .43.009.439.029.496.229.114.468-.105.067-.229.133-.372.21l-2.166 1.173v1.861h1.994c.163 0 .296 0 .43.009.439.029.496.229.114.468-.105.066-.229.133-.372.21l-2.166 1.173v1.86l2.948-1.593c.63-.343 1.117-.687 1.432-1.021.572-.601.591-1.135.505-1.478-.086-.325-.353-.783-1.145-1.04"/></svg>