<svg xmlns="http://www.w3.org/2000/svg" fill="#44739e" viewBox="0 0 24 24"><path d="M12 1.6101C6.2624 1.6101 1.6101 6.2624 1.6101 12S6.2624 22.3899 12 22.3899 22.3899 17.7376 22.3899 12 17.7376 1.6101 12 1.6101m3.873 14.6943c-.9416.8674-2.2264 1.3776-3.7594 1.3776-2.2194 0-4.1397-1.2733-5.0743-3.1286A5.68 5.68 0 0 1 6.434 12a5.68 5.68 0 0 1 .6053-2.5534c.9346-1.8577 2.8549-3.1309 5.0743-3.1309 1.5307 0 2.8155.5636 3.8012 1.4796l-1.628 1.6304c-.5892-.5635-1.3383-.8488-2.1708-.8488-1.4797 0-2.732.9996-3.1796 2.3424-.1137.3409-.1786.705-.1786 1.0807s.065.7398.1786 1.0807c.4476 1.3428 1.7 2.3424 3.1772 2.3424.7654 0 1.4147-.2018 1.9226-.5427.603-.4035 1.002-1.0042 1.1341-1.7162h-3.0567v-2.1985h5.3504c.0672.3733.102.7606.102 1.1619 0 1.7324-.6192 3.1865-1.693 4.1768"/></svg>