<svg xmlns="http://www.w3.org/2000/svg" viewBox="0 0 24 24"><path fill="#44739e" d="M13.362 3.762a1.015 1.015 0 0 0-.983.758 1.015 1.015 0 0 0-.98-.756h-2.13a1.014 1.014 0 0 0 0 2.028h2.133a1.015 1.015 0 0 0 .98-.755 1.013 1.013 0 1 0 .98-1.273ZM9.269 5.541a.77.77 0 0 1 0-1.529h1.797a.836.836 0 0 0 0 1.529Zm2.134-.178a.587.587 0 1 1 .587-.587.587.587 0 0 1-.587.587m1.959.178a.77.77 0 1 1 .77-.77.77.77 0 0 1-.77.77M10.23 4.509a.268.268 0 0 0-.268.266.693.693 0 1 0-.693.694.694.694 0 0 0 .693-.694.267.267 0 1 0 .268-.267Zm-.961.712a.44.44 0 1 1 .44-.44.44.44 0 0 1-.44.44m5.572-.64a.196.196 0 1 0 .196.195.196.196 0 0 0-.196-.195m0 .248a.054.054 0 1 1 .053-.053.054.054 0 0 1-.053.053m.853-.529a.481.481 0 1 0 .48.481.481.481 0 0 0-.48-.481m0 .836a.356.356 0 1 1 .356-.355.356.356 0 0 1-.356.351Zm0-.591a.231.231 0 1 0 .231.231.232.232 0 0 0-.231-.231m1.708-1.117V1.906A.907.907 0 0 0 16.495 1h-8.57a.907.907 0 0 0-.906.906v1.522a.17.17 0 0 0-.03.102v2.49a.176.176 0 0 0 .035.105v1.94h-.462v1.671h.462v.99h-.462v3.034h.462v8.339a.907.907 0 0 0 .901.901h8.57a.907.907 0 0 0 .907-.906V6.124a.165.165 0 0 0 .036-.104V3.53a.165.165 0 0 0-.036-.102M7.019 13.506h-.214v-2.525h.214Zm0-4.018h-.214V8.314h.214Zm6.16 2.684h-.03a.955.955 0 0 1-.756.77.94.94 0 0 1-.181.017.954.954 0 1 1 .685-1.616l-.246.238a.613.613 0 1 0 .146.596h-.586v-.343h.967Zm3.974-6.17a1.68 1.68 0 0 1-.55.072H7.818a1.7 1.7 0 0 1-.55-.072V3.55a1.74 1.74 0 0 1 .55-.072h8.784a1.73 1.73 0 0 1 .55.072Z"/></svg>