<svg xmlns="http://www.w3.org/2000/svg" viewBox="0 0 24 24"><path fill="#44739e" d="M7.912 7.674c-.581 0-.924-.052-1.017-.145l-.436 6.319c.55.332 1.266.592 2.138.799.871.218 2.137.28 3.797.177 1.65-.094 3.373-.457 5.147-1.069l-.82-9.775c-.913.903-2.251 1.754-4.036 2.532-1.588.675-2.957 1.069-4.088 1.162Zm-.094-2.531c-.716.622-1.006 1.037-.871 1.265.093.229.591.291 1.504.198 1.131-.094 2.418-.457 3.84-1.069.975-.426 1.815-.872 2.531-1.359s1.204-.893 1.463-1.225c.26-.321.353-.55.291-.674-.073-.166-.394-.249-.975-.249-1.173 0-2.626.373-4.379 1.12-1.494.654-2.625 1.318-3.404 1.993m9.723-3.259c.073.135.104.281.104.447l1.214 14.91c0 1.795-.633 3.206-1.847 4.223C15.777 22.481 14.106 23 12 23c-2.075 0-3.735-.529-4.981-1.608-1.245-1.038-1.878-2.449-1.878-4.234l.727-10.843q0-.389.342-.872c.228-.332.436-.591.633-.778l.342-.301c1.007-.84 2.221-1.566 3.653-2.168.965-.436 1.919-.758 2.843-.965.913-.208 1.743-.28 2.469-.197.737.083 1.204.363 1.391.85"/></svg>