<svg xmlns="http://www.w3.org/2000/svg" viewBox="0 0 24 24"><path fill="#44739e" d="M12.182 1.006a1.66 1.66 0 0 0-.677.083h-.054v.018h-.034v.016h-.05v.018l-.069.017v.016l-.067.019-.016.034-.068.016-.017.034-.051.017-.051.068h-.034l-.186.202-.287.272v.033h-.017l-.034.051-.44.422-.842.862-.304.288a3.85 3.85 0 0 1-.423.439l-.593.609-.641.626V5.2l-.119.101-.254.271-.135.118-.71.727a4.1 4.1 0 0 0-.457.474l-.372.355q-.399.406-.796.812a4.5 4.5 0 0 0-.506.525l-.44.423-.726.744a4.24 4.24 0 0 0-.474.49l-.119.102-.288.305v.033l-.05.034v.034l-.034.016-.017.068-.034.017-.033.102h-.018v.033h-.017l-.034.102h-.016v.051H1.56v.034h-.017l-.05.22h-.018v.084h-.016v.082h-.018v.151h-.016v9.476a2.24 2.24 0 0 0 .05.643v.068h.018l.033.152h.017l.035.101h.016v.034h.016l.018.068.034.017v.034h.017l.016.05.034.017v.034l.101.084v.034h.018l.034.051h.033l.085.101h.034l.034.052h.034v.016h.033l.017.034h.034v.017h.033v.017h.034v.017h.034v.016l.068.018v.018a4.36 4.36 0 0 0 1.471.101h17.066a1.74 1.74 0 0 0 .457-.033h.085v-.018l.117-.016v-.018h.034v-.016h.051v-.017l.102-.034v-.016h.034v-.018l.101-.034.017-.033h.034l.016-.034.052-.018.067-.084h.034l.017-.033.051-.034v-.035l.101-.084v-.034l.034-.017v-.034l.033-.016.018-.051h.016l.018-.068h.017v-.034h.016l.034-.101h.018v-.051h.016v-.05h.017v-.051h.017v-.068h.017v-.085h.018v-.101h.018V12.39a3.2 3.2 0 0 0-.018-.694v-.139h-.016l-.017-.17h-.017l-.017-.118h-.016v-.042h-.018v-.055h-.016v-.034h-.018v-.051h-.018l-.035-.102h-.016v-.033h-.015l-.033-.102-.034-.017-.018-.068-.033-.016v-.034l-.051-.034v-.033l-.051-.034v-.034l-.305-.288-.033-.051h-.017v-.034l-.559-.541-.641-.659a3.96 3.96 0 0 1-.44-.457l-.541-.525-1.86-1.893-.948-.931v-.034l-.05-.033-.085-.102-1.525-1.505a4.1 4.1 0 0 0-.456-.474l-.137-.152-.71-.694-.815-.845h-.033l-.052-.068h-.025l-.018-.034h-.033l-.017-.033-.051-.018v-.016l-.068-.018v-.016l-.067-.017v-.017h-.051v-.017h-.034v-.017Zm5.314 16.897H6.506v-5.028l4.025-4.008.287-.304h.034l.068-.085.152-.135v-.03l.135-.118.051-.069a2.25 2.25 0 0 0 .288-.252l.263-.274c.044-.044.065-.099.136-.118a1.4 1.4 0 0 0 .237.237c.154.155.312.384.541.457l.22-.018v-.014l.084-.018.034-.05h.039l.016-.033h.018v-.034l.05-.034.017-.085h.009l.016-.22h-.016v-.05h-.018l-.016-.085-.035-.017V7.49l-.846-.829-1.742-1.758-.591-.575-.068-.084c-.065-.066-.246-.2-.27-.288a.95.95 0 0 0 .169-.17l.034-.016.321-.339.558-.54V2.85l.101-.085.203-.219.287-.271.288-.304h.034l.017-.034h.035l.016-.034h.035v-.018l.102-.017a.473.473 0 0 1 .27-.033l.202.067.018.034a4.2 4.2 0 0 1 .625.592l.373.355a4.24 4.24 0 0 0 .474.49l.726.744.457.44a3.6 3.6 0 0 0 .406.423l.558.575.694.677v.034l.135.117.271.288 1.272 1.259a4.24 4.24 0 0 0 .473.49l.744.762.44.422a3.4 3.4 0 0 0 .389.406l.524.541a2.69 2.69 0 0 1 .813 1.032v.068a1.55 1.55 0 0 1 .033.44v3.972h-.017l-5.869-5.886-.998-.981-.457-.474h-.033l-.017-.034-.085-.016v-.02l-.22-.018v.018h-.046v.016l-.085.017-.034.051h-.033l-.017.033h-.017v.04l-.034.011v.034h-.016c-.017.023-.014.03-.018.068-.054.057-.032.251 0 .321h.018v.034a1.43 1.43 0 0 0 .236.236l.085.103.423.405 2.113 2.131.897.879ZM5.653 22.131H2.812l-.204-.068v-.016l-.05-.017-.017-.033h-.034l-.016-.034-.085-.067v-.034l-.034-.017v-.033h-.017l-.033-.103h-.018v-.05h-.017a3 3 0 0 1-.016-.66v-8.593a3.02 3.02 0 0 1 .016-.659v-.101h.017v-.069h.018l.033-.152h.017l.034-.101h.017l.016-.067.034-.018v-.034l.034-.017v-.034l.101-.084a3.85 3.85 0 0 1 .424-.44l.439-.456.593-.576.084-.101.034-.017v-.034l.694-.677.625-.643.321-.306v-.033l.119-.102.254-.271.64-.623.17-.187a4.1 4.1 0 0 0 .456-.472l.389-.373.78-.797.27-.271a.6.6 0 0 0 .119-.118c.019.015 0 0 .017.017a.9.9 0 0 1 .169.169l.355.339v.018l.879.863.287.304h.017l.406.424c.056.054.146.1.169.185a.6.6 0 0 0-.118.119l-.287.287-.153.136-.728.744-1.115 1.099-1.726 1.742-.812.795-.254.271a2.03 2.03 0 0 0-.422.456h-.016v.034H5.67v.067a.76.76 0 0 0-.017.22Zm12.686 0v-8.242h.016l2.571 2.588.795.778v4.313l-.051.169h-.017l-.034.101-.034.018v.034l-.084.067-.017.034h-.032l-.016.034h-.034l-.017.033h-.034v.017a3.08 3.08 0 0 1-.947.051Zm-2.03-6.765a.615.615 0 0 0-.305.05l-.017.034h-.03l-.051.069h-.017v.033l-.034.017v.034h-.016a1.48 1.48 0 0 0-.035.507c0 .508-.067.821.339.947l.22-.016v-.018h.05v-.016h.034l.017-.034h.034l.05-.067h.018v-.035l.033-.017v-.033h.018v-.034h.016a2.77 2.77 0 0 0 .018-.627v-.456h-.018l-.016-.101h-.018v-.034l-.033-.017v-.033l-.068-.051v-.018c-.039-.027-.087-.031-.119-.067h-.07Zm-2.115 0a.615.615 0 0 0-.304.05l-.017.034h-.034l-.05.069h-.018v.033l-.033.017v.034h-.017a1.48 1.48 0 0 0-.034.507c0 .508-.067.821.338.947l.22-.016v-.018h.05v-.016h.035l.017-.034h.033l.052-.067h.016v-.035l.034-.017v-.033h.017v-.034h.016a2.77 2.77 0 0 0 .018-.627v-.456h-.018l-.016-.101h-.017v-.034l-.034-.017v-.033l-.068-.051v-.018c-.038-.027-.086-.031-.118-.067h-.063Zm-2.114 0a.62.62 0 0 0-.305.05l-.016.034h-.034l-.051.069h-.016v.033l-.034.017v.034h-.017a1.45 1.45 0 0 0-.034.507c0 .508-.067.821.339.947l.219-.016v-.018h.051v-.016h.039l.016-.034h.034l.051-.067h.008v-.035l.034-.017v-.033h.017v-.034h.018a2.84 2.84 0 0 0 .016-.627v-.456h-.016l-.018-.101h-.017v-.034l-.034-.017v-.033l-.067-.051v-.018c-.039-.027-.086-.031-.118-.067h-.068Zm-2.114 0a.615.615 0 0 0-.304.05l-.018.034h-.033l-.051.069h-.017v.033l-.034.017v.034h-.016a1.48 1.48 0 0 0-.034.507c0 .508-.067.821.338.947l.22-.016v-.018h.051v-.016h.034l.016-.034h.034l.051-.067h.017v-.035l.033-.017v-.033h.018v-.034h.016a2.77 2.77 0 0 0 .018-.627v-.456h-.018l-.016-.101h-.018v-.034l-.033-.017v-.033l-.068-.051v-.018c-.039-.027-.087-.031-.119-.067h-.067Zm-2.114 0a.615.615 0 0 0-.305.05l-.016.034h-.036l-.051.069h-.015v.033l-.033.017v.034h-.018a1.48 1.48 0 0 0-.034.507c0 .508-.067.821.339.947l.219-.016v-.018h.051v-.016h.034l.018-.034h.033l.05-.067h.018v-.035l.034-.017v-.033h.014v-.034h.017a2.77 2.77 0 0 0 .017-.627v-.456h-.015l-.019-.101H8.14v-.034l-.034-.017v-.033l-.068-.051v-.018c-.039-.027-.086-.031-.118-.067h-.068Zm9.644 3.383v3.382H6.506v-3.382Z"/></svg>