<svg xmlns="http://www.w3.org/2000/svg" viewBox="0 0 24 24"><path fill="#44739e" d="M12 1C5.925 1 1 5.925 1 12s4.925 11 11 11 11-4.925 11-11S18.075 1 12 1m4.1 15.557c-.996.918-2.357 1.459-3.98 1.459-2.349 0-4.383-1.348-5.372-3.313A6.014 6.014 0 0 1 6.107 12a6.014 6.014 0 0 1 .641-2.703c.989-1.967 3.023-3.315 5.372-3.315 1.621 0 2.981.597 4.025 1.566l-1.724 1.727c-.624-.597-1.417-.899-2.298-.899-1.567 0-2.893 1.058-3.366 2.48-.121.361-.19.746-.19 1.144s.069.783.19 1.144c.473 1.422 1.799 2.48 3.363 2.48.811 0 1.498-.214 2.036-.574.638-.428 1.061-1.064 1.2-1.817H12.12v-2.328h5.665c.071.395.108.805.108 1.23 0 1.834-.656 3.374-1.793 4.422"/></svg>