<svg xmlns="http://www.w3.org/2000/svg" viewBox="0 0 24 24"><path fill="#44739e" d="M12.165 2a1.51 1.51 0 0 0-.616.076H11.5v.016h-.031v.015h-.046v.016l-.062.015v.015l-.061.017-.015.031-.062.015-.015.031-.047.015-.046.062h-.031l-.169.184-.261.247v.03h-.016l-.031.047-.4.384L9.441 4l-.277.262a3.5 3.5 0 0 1-.385.4l-.539.554-.584.569v.031l-.108.092-.231.247-.123.107-.646.662a3.7 3.7 0 0 0-.416.431l-.338.323q-.363.369-.724.739a4.1 4.1 0 0 0-.461.477l-.4.385-.661.677a3.86 3.86 0 0 0-.431.446l-.108.093-.262.277v.03l-.046.031v.031l-.031.015-.015.062-.031.015-.03.093h-.017v.03h-.015l-.031.093h-.015v.046H2.5v.031h-.015l-.046.2h-.016v.077h-.015v.074h-.016v.138h-.015v8.622a2.04 2.04 0 0 0 .046.585v.062h.016l.03.138h.016l.031.092h.015v.031h.015l.016.062.031.015v.031h.015l.015.046.031.015v.031l.092.077v.031h.016l.031.046h.03l.077.092h.031l.031.047h.031v.015h.03l.016.031h.031v.015h.03v.016h.031v.015h.031v.015l.061.016v.016a3.97 3.97 0 0 0 1.339.092H20.09a1.58 1.58 0 0 0 .416-.03h.077v-.016l.107-.015v-.016h.031V21.9h.046v-.015l.093-.031v-.015h.031v-.016l.092-.031.015-.03h.031l.015-.031.047-.016.061-.077h.031l.015-.03.047-.031v-.031l.092-.077v-.031l.031-.015v-.031l.03-.015.016-.046h.015l.016-.062h.015v-.031h.015l.031-.092h.016V21.1h.015v-.046h.015v-.046h.016v-.062h.015v-.077h.017v-.092h.016v-8.419a2.9 2.9 0 0 0-.016-.631V11.6h-.015l-.015-.154h-.016l-.015-.108h-.015V11.3h-.016v-.05h-.015v-.031h-.016v-.046h-.017l-.031-.093h-.015v-.03H21.4l-.03-.093-.031-.015-.016-.062-.03-.015v-.031l-.046-.031v-.03l-.047-.031v-.031l-.277-.262-.03-.046h-.016v-.031l-.508-.492-.584-.6a3.6 3.6 0 0 1-.4-.416l-.492-.477L17.2 6.664l-.862-.847v-.031l-.046-.03-.077-.093-1.388-1.369a3.7 3.7 0 0 0-.415-.431l-.124-.139-.646-.631-.742-.769h-.03l-.047-.062H12.8l-.016-.031h-.03l-.016-.03-.046-.016V2.17l-.062-.016v-.015l-.061-.015v-.016h-.046v-.015h-.031v-.016ZM17 17.375H7V12.8l3.663-3.647.261-.277h.031l.062-.077.138-.123v-.027l.123-.108.046-.062a2.05 2.05 0 0 0 .262-.23l.24-.249c.04-.04.059-.09.123-.107a1.26 1.26 0 0 0 .216.215c.14.141.284.35.492.416l.2-.016v-.013l.077-.016.031-.046H13l.015-.03h.016v-.031l.046-.031.015-.077h.008l.015-.2H13.1v-.046h-.016l-.015-.077-.031-.016V7.9l-.77-.754-1.585-1.6-.538-.523-.062-.077c-.059-.06-.224-.182-.246-.262a.86.86 0 0 0 .154-.154l.031-.015.292-.308.508-.492v-.037l.092-.077.185-.2.261-.246.262-.277h.031l.015-.031h.032l.015-.031h.031V2.8l.093-.016a.43.43 0 0 1 .246-.03l.184.061.016.031a3.82 3.82 0 0 1 .569.539l.339.323a3.86 3.86 0 0 0 .431.446l.661.677.416.4a3.3 3.3 0 0 0 .369.385l.508.523.631.616v.031l.123.107.247.262L17.736 8.3a3.86 3.86 0 0 0 .431.446l.677.693.4.384a3.1 3.1 0 0 0 .354.37l.477.492a2.446 2.446 0 0 1 .739.939v.062a1.41 1.41 0 0 1 .03.4V15.7h-.015l-5.34-5.355-.908-.893-.416-.431h-.03l-.016-.031-.077-.015v-.018l-.2-.016v.016H13.8v.015l-.077.015-.031.047h-.03l-.016.03h-.015V9.1l-.031.01v.031h-.015c-.015.021-.012.027-.016.062-.049.052-.029.228 0 .292h.016v.031a1.3 1.3 0 0 0 .215.215l.077.093.385.369 1.923 1.939.816.8zM6.224 21.222H3.639l-.185-.062v-.015l-.046-.015-.015-.03h-.031l-.015-.031-.077-.061v-.031l-.031-.016v-.03h-.016l-.03-.093h-.016v-.046h-.015a2.74 2.74 0 0 1-.015-.6v-7.819a2.75 2.75 0 0 1 .015-.6v-.092h.015v-.062h.016l.03-.139h.016l.031-.092h.015l.015-.061.031-.016v-.031l.031-.015v-.031l.092-.077a3.5 3.5 0 0 1 .385-.4l.4-.415.539-.524.077-.092.031-.015V9.68l.631-.616.569-.585.292-.279v-.03l.108-.093.231-.246.583-.567.154-.17a3.75 3.75 0 0 0 .415-.43l.354-.339.71-.725.246-.247a.55.55 0 0 0 .108-.107c.017.013 0 0 .015.015a.83.83 0 0 1 .154.154l.323.308v.017l.8.785.261.277h.016l.369.385c.051.05.133.091.154.169a.55.55 0 0 0-.108.108l-.261.261-.139.124-.662.677-1.015 1-1.57 1.585-.739.723-.231.247a1.85 1.85 0 0 0-.384.415h-.015v.031H6.24v.061a.69.69 0 0 0-.016.2zm11.543 0v-7.5h.015l2.339 2.355.723.708v3.924l-.046.154h-.015l-.031.092-.031.016v.031l-.077.061-.015.031H20.6l-.015.031h-.031l-.015.03h-.031v.016a2.8 2.8 0 0 1-.862.046zm-1.847-6.156a.56.56 0 0 0-.277.046l-.016.031H15.6l-.047.062h-.015v.03l-.031.016v.031h-.015a1.35 1.35 0 0 0-.031.461c0 .462-.061.747.308.862l.2-.015v-.016h.046v-.015h.031l.015-.031h.031l.046-.061h.016v-.031l.03-.016v-.03h.016v-.031h.015a2.52 2.52 0 0 0 .016-.57v-.415h-.016l-.015-.092h-.016v-.031l-.03-.016v-.03l-.062-.046v-.016c-.035-.025-.079-.029-.108-.061h-.064Zm-1.924 0a.56.56 0 0 0-.277.046l-.015.031h-.031l-.046.062h-.016v.03l-.03.016v.031h-.016a1.35 1.35 0 0 0-.031.461c0 .462-.061.747.308.862l.2-.015v-.016h.046v-.015h.031l.016-.031h.03l.047-.061h.015v-.031l.031-.016v-.03h.015v-.031h.015a2.52 2.52 0 0 0 .016-.57v-.415h-.016l-.015-.092h-.015v-.031l-.031-.016v-.03l-.062-.046v-.016c-.035-.025-.078-.029-.107-.061H14Zm-1.924 0a.564.564 0 0 0-.277.046l-.015.031h-.031l-.046.062h-.015v.03l-.031.016v.031h-.015a1.32 1.32 0 0 0-.031.461c0 .462-.061.747.308.862l.2-.015v-.016h.046v-.015h.035l.015-.031h.031l.046-.061h.008v-.031l.031-.016v-.03h.015v-.031h.016a2.58 2.58 0 0 0 .015-.57v-.415h-.015l-.016-.092h-.015v-.031l-.031-.016v-.03l-.061-.046v-.016c-.036-.025-.079-.029-.108-.061h-.062zm-1.923 0a.56.56 0 0 0-.277.046l-.016.031h-.03l-.047.062h-.015v.03l-.031.016v.031h-.015a1.35 1.35 0 0 0-.031.461c0 .462-.061.747.308.862l.2-.015v-.016h.046v-.015h.031l.015-.031h.031l.046-.061h.016v-.031l.03-.016v-.03h.016v-.031h.015a2.52 2.52 0 0 0 .016-.57v-.415h-.016l-.015-.092h-.016v-.031l-.03-.016v-.03l-.062-.046v-.016c-.036-.025-.079-.029-.108-.061h-.061zm-1.924 0a.56.56 0 0 0-.277.046l-.015.031H7.9l-.046.062H7.84v.03l-.03.016v.031h-.016a1.35 1.35 0 0 0-.031.461c0 .462-.061.747.308.862l.2-.015v-.016h.046v-.015h.031l.016-.031h.03l.046-.061h.016v-.031l.031-.016v-.03H8.5v-.031h.015a2.52 2.52 0 0 0 .016-.57v-.415h-.014l-.017-.092h-.013v-.031l-.031-.016v-.03l-.062-.046v-.016c-.035-.025-.078-.029-.107-.061h-.062ZM17 18.144v3.078H7v-3.078z" class="cls-1" data-name="Colore riempimento 1"/></svg>