<svg xmlns="http://www.w3.org/2000/svg" fill="#44739e" viewBox="0 0 24 24"><path d="M21.625 9.916c-.189 0-.27.109-.33.226l-.952 1.696-1.013-1.724c-.104-.178-.223-.198-.304-.198-.211 0-.381.193-.381.353 0 .076.023.155.066.223l1.259 2.123v1.131c0 .232.142.376.37.376s.37-.144.37-.376v-1.132l.003-.006 1.193-2.065c.049-.084.094-.175.094-.273 0-.179-.185-.354-.375-.354m-3.899.251c-.076-.169-.202-.251-.385-.251s-.314.089-.381.256l-1.412 3.442c-.012.036-.032.09-.032.164 0 .191.165.342.376.342.16 0 .265-.077.331-.241l.239-.607h1.736l.24.617c.084.191.225.23.329.23.216 0 .393-.163.393-.364 0-.059-.018-.123-.034-.164l-1.401-3.425zm-.999 2.436.61-1.544.601 1.544zm-1.993.821H13.62v-3.147c0-.23-.134-.362-.368-.362s-.368.132-.368.362v3.837h1.85c.227 0 .357-.126.357-.345s-.13-.345-.357-.345m-3.641-3.509H8.476v2.934c0 .701.568 1.269 1.269 1.269s1.269-.568 1.269-1.269v-.238h.079c.745 0 1.348-.604 1.348-1.348s-.604-1.348-1.348-1.348m0 1.966h-.809v.968c0 .297-.242.539-.539.539a.54.54 0 0 1-.539-.539v-2.204h1.887c.341 0 .618.277.618.618s-.277.618-.618.618M6.526 9.919c-.689 0-1.25.561-1.25 1.25v1.708c0 .689.561 1.25 1.25 1.25s1.25-.561 1.25-1.25v-1.708c0-.689-.561-1.25-1.25-1.25m.766 1.25v1.708c0 .422-.343.765-.765.765s-.766-.343-.766-.765v-1.708c0-.422.343-.766.766-.766.422 0 .765.344.765.766M3.269 9.864c-.7 0-1.269.569-1.269 1.269v1.734c0 .7.569 1.269 1.269 1.269s1.269-.569 1.269-1.269v-.688c0-.136-.11-.246-.246-.246H3.278v.492h.769v.424c0 .4-.329.763-.718.793a.767.767 0 0 1-.588-.205.78.78 0 0 1-.249-.57v-1.716c0-.4.329-.763.717-.792.22-.016.428.056.588.205.158.147.249.354.249.57v.071c0 .136.11.246.246.246s.246-.11.246-.246v-.071c0-.7-.57-1.269-1.269-1.269z"/></svg>