<svg xmlns="http://www.w3.org/2000/svg" fill="#44739e" viewBox="0 0 24 24"><path d="M20.963 10.852a6.85 6.85 0 0 0-.2-1.125 7.05 7.05 0 0 0-1.451-2.784 7 7 0 0 0-.51-.551 2.837 2.837 0 0 0-.334-2.039 3.015 3.015 0 0 0-1.969.508c-.041-.018-.083-.037-.124-.053a6.7 6.7 0 0 0-.554-.2c-.19-.059-.383-.113-.58-.162s-.4-.086-.6-.118a1.3 1.3 0 0 0-.106-.014 3.665 3.665 0 0 0-1.776-2.084 3.9 3.9 0 0 0-1.748 2.236S11 4.5 11 4.544c-.082.024-.162.046-.243.072-.113.033-.223.076-.337.116s-.223.086-.334.135a7.1 7.1 0 0 0-.657.321c-.208.118-.412.247-.612.385a.5.5 0 0 1-.051-.024 5.073 5.073 0 0 0-3.839.158 5.555 5.555 0 0 0 1 3.772c-.049.135-.092.269-.135.406A9.33 9.33 0 0 0 5.46 11.4c-.011.073-.019.149-.027.226A5.023 5.023 0 0 0 3 14.454a5.36 5.36 0 0 0 3.4 1.915h.005a8.37 8.37 0 0 0 .8 1.177c.126.153.261.3.4.445a4.224 4.224 0 0 0 .08 3 4.88 4.88 0 0 0 3.133-.955c.175.059.348.112.528.158a7.95 7.95 0 0 0 1.633.243c.137.006.273.008.412.008h.197l.086-.005a3.516 3.516 0 0 0 2.27 1.339 3.63 3.63 0 0 0 1.088-2.394v-.098a6.1 6.1 0 0 0 .616-.489 6.44 6.44 0 0 0 1.07-1.253c.027-.041.054-.086.083-.13a2.875 2.875 0 0 0 1.985-.722 3.057 3.057 0 0 0-1.028-1.918l-.014-.011-.013-.012a.2.2 0 0 1-.025-.017c.006-.073.012-.145.017-.22.008-.13.013-.26.013-.391v-.2l-.005-.083-.006-.11c0-.038 0-.071-.008-.1s-.007-.067-.011-.1l-.013-.1-.014-.1c-.019-.132-.047-.266-.075-.4a5.012 5.012 0 0 0-1.578-2.638 4.95 4.95 0 0 0-1.245-.8A4.8 4.8 0 0 0 15.4 9.09a4.9 4.9 0 0 0-.693-.04h-.172l-.084.006-.094.008a3.1 3.1 0 0 0-.35.051 3.88 3.88 0 0 0-2.268 1.323 3.775 3.775 0 0 0-.875 2.189c-.006.092-.007.187-.006.278v.146c0 .045.007.091.011.136a3.1 3.1 0 0 0 .1.547 2.9 2.9 0 0 0 .464.935 2.95 2.95 0 0 0 .694.666 2.8 2.8 0 0 0 1.584.49h.195c.027 0 .053-.006.08-.008h.022l.025-.005.048-.006c.034-.005.061-.012.092-.018s.059-.011.089-.019a1.6 1.6 0 0 0 .169-.049 2.04 2.04 0 0 0 .309-.129 2.6 2.6 0 0 0 .267-.162c.022-.018.046-.034.07-.053a.2.2 0 0 0 .032-.283.2.2 0 0 0-.253-.049c-.021.011-.043.024-.064.033a1.9 1.9 0 0 1-.232.094 2.8 2.8 0 0 1-.255.064l-.135.017h-.31a.3.3 0 0 1-.035 0c-.025 0-.048-.007-.073-.008a2.121 2.121 0 0 1-1.552-1.073 2.05 2.05 0 0 1-.232-.666 2 2 0 0 1-.024-.362c0-.033 0-.065.005-.1V13c0-.018 0-.032.005-.048.006-.065.018-.131.027-.2a2.523 2.523 0 0 1 1.837-2.018 2.47 2.47 0 0 1 .418-.073c.072-.007.143-.008.215-.008h.165l.059.005a3 3 0 0 1 .458.07 3.26 3.26 0 0 1 .873.331 3.2 3.2 0 0 1 1.3 1.353 3.04 3.04 0 0 1 .3.911c.013.08.021.159.027.24v.182a.5.5 0 0 1 0 .057v.111c0 .04 0 .1-.007.144a4.6 4.6 0 0 1-.025.262c-.011.088-.026.172-.04.259s-.035.17-.057.255a3.7 3.7 0 0 1-.162.5 4.22 4.22 0 0 1-.508.921 4.163 4.163 0 0 1-1.623 1.33 4.02 4.02 0 0 1-1.01.308 3.9 3.9 0 0 1-.528.053h-.268c-.095 0-.189-.006-.284-.014a5.27 5.27 0 0 1-1.112-.2 5.49 5.49 0 0 1-2.767-1.852 5.424 5.424 0 0 1-1.177-3.039v-.547a5.5 5.5 0 0 1 .047-.551c.023-.184.054-.372.092-.556s.084-.368.135-.547A7.1 7.1 0 0 1 8.716 9.6 5.71 5.71 0 0 1 9.9 7.89a4.9 4.9 0 0 1 .374-.332 4.6 4.6 0 0 1 .4-.289 4.3 4.3 0 0 1 .427-.25c.071-.04.148-.073.221-.11.038-.017.076-.033.113-.051l.113-.049c.151-.065.308-.118.467-.169.04-.012.08-.023.119-.036s.08-.021.12-.034c.079-.023.162-.041.241-.06.04-.011.083-.019.123-.027l.122-.025c.042-.008.083-.015.124-.024l.061-.011.06-.008.124-.02c.046-.007.093-.011.139-.019l.138-.017.089-.008.059-.006h.064c.046 0 .092-.006.139-.008h.12c.04 0 .079 0 .119-.006h.472a6.2 6.2 0 0 1 .92.1 6.37 6.37 0 0 1 1.666.555 6.58 6.58 0 0 1 1.36.888c.026.02.048.043.073.063s.05.043.072.064a9 9 0 0 1 .275.259c.045.044.089.089.129.132A7.03 7.03 0 0 1 20.1 10c.01.021.022.043.033.065s.021.043.032.066c.021.042.043.084.061.125s.039.084.057.124.035.083.052.123c.067.162.129.315.177.461.083.234.143.445.189.631a.156.156 0 0 0 .164.116.153.153 0 0 0 .14-.149c-.01-.21-.013-.441-.037-.706z"/></svg>