<svg xmlns="http://www.w3.org/2000/svg" fill="#44739e" viewBox="0 0 24 24"><path d="M20.527 12.514c0-3.311-3.777-6-8.458-6.041h-.117c-4.681.041-8.458 2.73-8.458 6.041a4.753 4.753 0 0 0 1.663 3.455l-.012.008c2.465 2.29 6.786 2.888 6.786.441V9.054l-3.482 1.917v2.747a1.764 1.764 0 0 1-1.384 1.94 1.9 1.9 0 0 1-.288.022 2.31 2.31 0 0 1-1.067-.273 2.28 2.28 0 0 1-.542-.4 3.37 3.37 0 0 1-.842-2.488C4.337 9.5 7.78 7.044 12 7.044h.069c4.188.027 7.593 2.47 7.6 5.47A3.377 3.377 0 0 1 18.832 15a2.29 2.29 0 0 1-.527.4 2.25 2.25 0 0 0 .55.578 4.756 4.756 0 0 0 1.672-3.463zM18.305 15.4a2.314 2.314 0 0 1-1.082.281 1.9 1.9 0 0 1-.289-.022 1.763 1.763 0 0 1-1.383-1.938v-2.749l-3.482-1.916v7.362c0 2.447 4.321 1.849 6.786-.441a2.24 2.24 0 0 1-.55-.577M12 5.738c-5.523 0-10 3.034-10 6.776s4.477 6.775 10 6.775 10-3.033 10-6.775-4.477-6.776-10-6.776m0 13.02c-4.892 0-8.857-2.8-8.857-6.244S7.108 6.269 12 6.269s8.857 2.8 8.857 6.245-3.965 6.244-8.857 6.244"/></svg>