<svg xmlns="http://www.w3.org/2000/svg" viewBox="0 0 24 24"><path fill="#44739e" d="M21.38 12.001c0-3.643-4.155-6.6-9.304-6.646h-.129c-5.149.046-9.304 3.003-9.304 6.646a5.228 5.228 0 0 0 1.83 3.8l-.013.009c2.711 2.519 7.464 3.177 7.464.485v-8.1l-3.83 2.108v3.022a1.94 1.94 0 0 1-1.522 2.134 2.1 2.1 0 0 1-.317.024 2.54 2.54 0 0 1-1.174-.3 2.5 2.5 0 0 1-.596-.44 3.707 3.707 0 0 1-.926-2.737C3.571 8.685 7.358 5.984 12 5.984h.076c4.607.029 8.352 2.717 8.36 6.017a3.715 3.715 0 0 1-.921 2.734 2.52 2.52 0 0 1-.58.44 2.48 2.48 0 0 0 .606.636 5.232 5.232 0 0 0 1.839-3.809Zm-2.445 3.174a2.545 2.545 0 0 1-1.19.309 2.1 2.1 0 0 1-.318-.024 1.939 1.939 0 0 1-1.521-2.132v-3.024l-3.83-2.107v8.098c0 2.692 4.753 2.034 7.464-.485a2.46 2.46 0 0 1-.605-.635M12 4.547c-6.075 0-11 3.337-11 7.454s4.925 7.452 11 7.452 11-3.336 11-7.452-4.925-7.454-11-7.454m0 14.322c-5.381 0-9.743-3.08-9.743-6.868S6.619 5.131 12 5.131s9.743 3.08 9.743 6.87-4.362 6.868-9.743 6.868"/></svg>