<svg xmlns="http://www.w3.org/2000/svg" viewBox="0 0 24 24"><path fill="#44739e" d="M5.437 17.08h4.478l-.158-2.727h4.486l-.158 2.727h4.478l.492-8.286H4.945Zm17.189-9.427h-3.438a4.681 4.681 0 0 0-4.663-4.321h-.109a2.438 2.438 0 0 0-4.823 0h-.118a4.681 4.681 0 0 0-4.663 4.321H1.374a.355.355 0 1 0 0 .708h21.252a.355.355 0 1 0 0-.708M10.308 3.307a1.728 1.728 0 0 1 3.384 0ZM5.403 18.09a3.435 3.435 0 0 0 1.561 1.692v1.19a1.064 1.064 0 0 1-1.062 1.063.355.355 0 0 0 0 .708 1.773 1.773 0 0 0 1.771-1.771v-1.028h8.654v1.032a1.773 1.773 0 0 0 1.771 1.772.355.355 0 0 0 0-.71 1.064 1.064 0 0 1-1.062-1.062v-1.2a3.455 3.455 0 0 0 1.552-1.686l.012-.572H5.424Z"/></svg>