<svg xmlns="http://www.w3.org/2000/svg" viewBox="0 0 24 24"><path fill="#44739e" d="M16.347 10.723a.557.557 0 0 1-.556.556.557.557 0 0 1-.557-.556.557.557 0 0 1 .557-.557.557.557 0 0 1 .556.557m-3.777 0a.557.557 0 0 1-.557.556.557.557 0 0 1-.556-.556.557.557 0 0 1 .556-.557.557.557 0 0 1 .557.557m-3.804 0a.557.557 0 0 1-.557.556.557.557 0 0 1-.556-.556.557.557 0 0 1 .556-.557.557.557 0 0 1 .557.557M19.23 4.415a1.21 1.21 0 0 0-1.21-1.21h-3.108a1.76 1.76 0 0 0-1.65-1.155h-2.53a1.76 1.76 0 0 0-1.65 1.155H5.978a1.21 1.21 0 0 0-1.21 1.21v2.892H19.23Zm-4.975-1.21h-4.51a1.054 1.054 0 0 1 .99-.702h2.53a1.054 1.054 0 0 1 .99.702M5.472 13.437H4.77v4.207a1.32 1.32 0 0 0 1.32 1.32h.365v.232a1.416 1.416 0 0 0-1.173 1.367 1.466 1.466 0 0 0 2.929 0 1.416 1.416 0 0 0-1.174-1.367v-.228h10.087v.228a1.416 1.416 0 0 0-1.173 1.367 1.466 1.466 0 0 0 2.928 0 1.416 1.416 0 0 0-1.172-1.367v-.228h.204a1.32 1.32 0 0 0 1.32-1.32v-4.211Zm2.154 7.121a.88.88 0 1 1-.88-.84.862.862 0 0 1 .88.84m10.67 0a.88.88 0 1 1-.88-.84.862.862 0 0 1 .88.84m4.353-12.549H1.351A.351.351 0 0 0 1 8.36v1.414a.352.352 0 0 0 .228.33l2.365.886a.352.352 0 1 0 .246-.66l-2.137-.8v-.819H4.77v4.024h14.46V8.711h3.068v.819l-2.137.802a.352.352 0 1 0 .246.66l2.365-.886a.352.352 0 0 0 .228-.33V8.36a.351.351 0 0 0-.351-.351m-14.44 3.768a1.054 1.054 0 1 1 1.053-1.054 1.055 1.055 0 0 1-1.053 1.054m3.791 0a1.054 1.054 0 1 1 1.053-1.054A1.055 1.055 0 0 1 12 11.777m3.791 0a1.054 1.054 0 1 1 1.049-1.051 1.055 1.055 0 0 1-1.049 1.051"/></svg>