<svg xmlns="http://www.w3.org/2000/svg" fill="#44739e" viewBox="0 0 24 24"><path d="m14.678 10.544-.029-.081-.031-.078-.03-.073-.031-.068-.031-.064-.032-.059-.03-.054-.033-.051-.047-.068-.048-.06-.047-.044-.064-.056-.061-.044-.046-.024-.033-.015-.062-.021-.065-.012h-.127l-.068.011-.07.019-.035.012-.035.015-.035.017-.07.039-.034.022-.067.05-.031.026-.033.03-.031.029-.059.063-.056.066-.053.072-.023.035-.045.074-.039.074-.035.076-.027.073-.022.075-.007.028.022.013.1.065.068.057.091.088.1.082.048.036.119.074.1.045.067.025.023.007.046.013.043.01.042.008.087.006h.041l.062-.005.092-.014.056-.014.059-.021.057-.023.079-.039.079-.049.073-.054.047-.039.087-.083.04-.044.04-.048-.013-.038zm-.624-.184v.053l-.011.031-.008.025-.01.021-.012.022-.013.017-.016.019-.017.017-.02.015-.019.013-.022.011-.022.008-.023.007h-.11l-.011-.005-.023-.008-.021-.011-.021-.013-.018-.015-.017-.023-.016-.019-.013-.021-.012-.022-.011-.021v-.025l-.006-.025v-.103l.006-.024v-.036l.007-.011.012-.022.013-.02.016-.019.017-.017.018-.015.021-.014.01-.005.011-.006.023-.008.023-.007h.098l.023.007.022.008.022.011.019.014.02.015.017.017.02.019.013.02.012.022.01.022.008.025.007.024v.054zm.152-.386v.048l-.005.008v.007l-.006.008-.006.005-.008.007h-.016l-.008.005h-.074l-.008-.005h-.016l-.008-.007-.003-.006h-.006l-.006-.007V9.92l.006-.009.006-.007.006-.006.008-.006h.007l.009-.005h.071l.009.005h.007l.008.006.006.006.006.007v.009l.005.008v.037zm-3.443.978.046-.029.047-.033.045-.034.093-.082.071-.069.043-.037.028-.021.06-.039.057-.033-.018-.069-.011-.035-.024-.074-.015-.036-.018-.038-.045-.079-.044-.073-.024-.027-.054-.076-.086-.1-.062-.061-.031-.029-.065-.051-.034-.024-.034-.023-.07-.039-.036-.017-.034-.015-.035-.012-.071-.019-.032-.006-.066-.008h-.096l-.065.012-.029.009-.048.019-.032.014-.031.018-.062.044-.048.042-.047.048-.064.078-.015.021-.032.047-.064.106-.031.057-.062.133-.03.072-.031.078-.03.083-.029.085-.012.039.043.052.019.021.09.088.047.041.075.057.029.018.026.018.026.015.085.043.057.024.061.02.029.009.031.007.062.012.064.006h.105l.082-.012.041-.007.04-.011.087-.03.043-.017.043-.021.044-.024zm-.116-.59v.053l-.011.029-.008.025-.01.021-.013.022-.013.021-.016.019-.017.017-.019.015-.02.013-.022.011-.022.008-.023.007h-.11l-.011-.005-.023-.008-.021-.011-.019-.013-.02-.015-.017-.017-.015-.019-.014-.021-.012-.022-.011-.021v-.025l-.006-.025v-.107l.006-.024v-.025l.005-.011.006-.011.012-.022.014-.02.015-.019.017-.017.02-.015.019-.014.011-.005.01-.006.023-.008.023-.007h.098l.023.007.022.008.022.011.02.014.019.015.017.017.016.019.013.02.013.022.01.022.008.025.006.024v.054zm.058-.286h-.024l-.008-.005h-.016l-.007-.007-.009-.02h-.006l-.007-.007v-.008l-.005-.01v-.083l.005-.008V9.92l.007-.009.006-.007.006-.006.007-.006h.007l.009-.005h.072l.008.005h.008l.007.006.006.006.006.007.005.009.005.008v.096l-.005.008-.005.007-.006.008-.006.005-.007.007h-.016l-.009.005h-.018zm5.941 4.258-.012-.061-.013-.059-.014-.056-.022-.078-.027-.073-.03-.067-.023-.041-.024-.04-.011-.015-.029-.036-.03-.033-.049-.043-.039-.027-.064-.038-.046-.021-.051-.018-.056-.018-.028-.008-.097-.019-.033-.005-.112-.012-.037-.003-.085-.003h-.134l-.163.008-.083.007-.083.008-.083.01-.167.023-.169.03-.085.017-.085.019-.172.041-.173.047-.189.053-.103.028-.106.025-.522.117-.208.051-.158.045-.103.033-.104.037-.157.063-.049.022-.068.033-.006.016-.015.051-.014.051-.013.053-.012.053-.011.057-.01.056-.009.057-.008.06-.006.061-.005.063-.003.063-.002.065.008.065.008.063.005.063.003.063.002.063.001.061-.001.062-.004.062-.004.061-.006.06-.006.062-.009.06-.008.059-.011.061-.011.06-.012.059-.014.074-.011.074-.009.073-.008.074-.006.074-.005.074-.003.074-.003.074v.222l.003.074.005.148.007.148v.029l-.001.013-.002.014-.002.015-.004.014-.004.013-.005.015-.009.02-.011.022-.013.02-.015.022-.03.042-.03.041-.003-.116-.003-.14-.001-.153-.001-.16v-.162l.002-.154.003-.142.002-.063.004-.057.005-.078.007-.078.01-.08.011-.08.013-.058.011-.059.01-.059.008-.06.009-.06.006-.062.006-.061.004-.063.003-.063.003-.063v-.13l-.001-.066-.002-.066-.003-.067-.004-.067-.004-.053v-.053l.002-.053.002-.052.004-.052.006-.051.007-.05.01-.052.01-.05.012-.05.012-.051.015-.049.014-.05.017-.049.017-.048.018-.048.005-.017.003-.035-.002-.021-.011-.025-.006-.008-.017-.013-.026-.014-.009-.004-.05-.014-.027-.005-.031-.003-.032-.003-.034-.001h-.074l-.037.001-.077.006-.307.03-.066.004-.22.01-.097.002h-.09l-.087-.001-.12-.009-.077-.008-.077-.013-.076-.015-.043-.011-.122-.035-.044-.014-.092-.032-.099-.036-.274-.107-.049-.016-.105-.032-.111-.027-.174-.034-.18-.028-.272-.038-.067-.001-.074.004-.037.004-.084.007-.083.003h-.044l-.044-.004-.071-.01-.063-.017-.025-.009-.072-.03-.101-.038-.049-.015-.096-.025-.021-.003-.089-.008-.061.005-.02.003-.037.01-.04.015-.015.007-.036.022-.033.027-.018.017-.032.035-.034.045-.031.051-.031.06-.045.108-.027.084-.026.093-.013.05-.012.052-.022.114-.029.193-.017.142-.014.152-.012.167-.01.177-.003.094-.006.231.002.065.007.061.011.064.018.063.022.065.011.029.045.093.036.062.041.06.046.06.051.06.055.058.092.087.068.055.072.054.037.026.08.052.04.025.131.073.142.069.047.022.049.02.052.022.105.04.11.038.112.035.179.049.06.014.125.027.13.024.132.022.137.019.128.015.065.009.115.022.06.013.054.014.055.015.057.018.04.014.046.017.041.018.115.058.18.098.103.045.034.011.104.029.145.046.448.16.142.043.101.026.063.013.091.01.028.001h.025l.031-.002.028-.004.027-.006.034-.01.035-.017.024-.018.035-.036.004-.006.027-.05.016-.045.013-.057.006-.043.009-.072.013-.073.008-.032.008-.032.025-.043.037-.021h.016l.068-.018.082-.014.055-.006.063-.004h.121l.086.006.085.015.075.016.284.061.275.05.11.016.164.015.052.003.05.001h.048l.044-.002.043-.005.041-.007.053-.011.045-.017.028-.015.089-.052.128-.069.043-.021.083-.04.078-.034.153-.062.142-.051.322-.111.057-.021.112-.048.107-.056.051-.03.101-.074.05-.042.025-.023.075-.076.076-.089.076-.104.076-.121.054-.089.08-.151.043-.083.082-.145.039-.064.098-.173.026-.053.034-.078.017-.051.013-.055.005-.027.005-.029.003-.03.002-.031.001-.032v-.035l-.003-.074-.004-.04-.027-.223-.019-.138zm-8.567-2.091-.031-.06-.028-.059-.025-.059-.023-.056-.024-.055-.019-.053-.02-.052-.015-.051-.016-.049-.014-.047-.011-.046-.011-.045-.007-.044-.007-.043-.005-.041-.004-.039-.001-.039v-.037l.001-.034.004-.034.004-.033.006-.031.007-.031.01-.028.009-.028.013-.026.013-.024.006-.013.005-.011.004-.009.002-.011.001-.01.002-.008-.002-.01-.001-.006-.002-.009-.003-.007-.003-.006-.005-.006-.005-.004-.006-.004-.006-.004-.006-.003-.008-.001-.007-.002h-.016l-.008.002-.009.002-.008.005-.009.004-.009.005-.008.007-.007.007-.009.008-.008.01-.008.011-.007.012-.007.014-.009.02-.01.021-.007.02-.007.021-.008.02-.006.021-.005.02-.004.022-.005.021-.004.022-.002.02-.003.022-.001.022-.001.022v.044l.001.022.001.023.004.044.007.045.009.047.011.045.013.046.016.048.017.047.019.048.021.048.023.048.026.049.025.049.03.049.029.05.032.049.034.051.034.05.036.051.038.051.039.052.041.052.041.05.043.053-.041-.068-.036-.065-.036-.066-.034-.063zm8.395-.995-.004-.021-.005-.022-.005-.02-.007-.021-.006-.02-.007-.021-.009-.02-.009-.021-.009-.02-.006-.014-.008-.012-.008-.011-.008-.01-.008-.008-.009-.007-.008-.007-.009-.005-.008-.004-.009-.005-.008-.002-.008-.002h-.015l-.008.002-.007.001-.007.003-.006.004-.005.004-.006.004-.004.006-.004.006-.003.007-.003.009-.001.006v.018l.001.01.004.011.003.009.005.011.006.013.014.024.011.026.011.028.008.028.008.031.006.031.005.033.003.034.001.034v.037l-.002.039-.004.039-.004.041-.007.043-.008.044-.01.045-.012.046-.012.047-.016.049-.017.051-.018.052-.021.053-.022.055-.024.056-.026.059-.028.059-.029.06-.032.062-.033.063-.035.066-.038.065-.039.068.043-.053.041-.05.04-.052.039-.052.038-.051.037-.051.034-.05.033-.051.031-.049.031-.05.028-.049.027-.049.024-.049.023-.048.022-.048.02-.048.017-.047.014-.048.014-.046.011-.045.009-.047.006-.045.005-.044.003-.045v-.044l-.001-.022-.003-.022-.001-.022-.004-.02zm5.332-1.676V9.55l-.006-.01-.007-.009-.009-.01-.011-.01-.012-.009-.021-.008-.016-.009-.017-.009-.018-.008-.021-.007-.022-.008-.024-.009-.022-.005-.056-.014-.063-.012-.072-.01-.08-.009-.086-.008-.1-.009h-1.062l-.173.007-.16.006h-.16l-.326.008-.33.007h-.493l-.08.006-.08.007-.163.026h-.61l-.04-.007-.041-.007-.04-.008-.04-.01-.04-.011-.07-.019-.072-.018-.071-.02-.075-.014-.074-.011-.076-.01-.078-.007h-.163l-.044.007-.045.009-.045.011-.046.011-.046.014-.046.011-.045.008-.045.007h-.129l-.02-.006-.021-.006-.021-.009-.022-.015-.02-.013-.019-.012-.027-.02-.028-.021-.057-.034-.062-.04-.068-.039-.072-.04-.077-.039-.08-.039-.087-.039-.346-.31-.076-.083-.075-.082-.08-.089-.038-.038-.039-.04-.039-.037-.04-.038-.04-.035-.04-.036-.041-.033-.04-.033-.041-.032-.042-.031-.042-.03-.042-.028-.042-.028-.044-.026-.043-.023-.045-.023-.044-.021-.045-.018-.045-.018-.046-.015-.047-.017-.046-.011-.046-.004-.047-.007h-.263l-.041-.005h-.08l-.04-.007-.043-.007-.043-.008-.042-.01-.042-.009-.043-.032-.04-.011-.042-.014-.04-.013-.033-.013-.033-.011-.034-.009-.032-.01-.033-.008-.029-.011-.064-.013-.059-.012-.061-.012-.059-.013h-.206l-.027.006h-.028l-.027.01-.022.008-.023.007-.023.007h-.488l-.023-.007-.023-.007-.022-.008-.027-.01h-.028l-.028-.006h-.202l-.06.013-.06.012-.059.012-.065.013-.032.008-.033.008-.033.01-.032.009-.033.011-.033.013-.041.013-.041.014-.038.014-.042.011-.041.009-.043.01-.042.008-.043.007-.04.007h-.081l-.04.005h-.265l-.048.007-.047.008-.048.028-.046.013-.045.015-.045.018-.045.018-.045.021-.044.023-.043.023-.044.026-.042.028-.043.028-.042.03-.036.035-.041.032-.041.033-.041.036-.04.036-.039.035-.041.038-.039.037-.039.04-.044.035-.075.081-.076.082-.075.083-.346.31-.087.044-.08.039-.077.039-.072.04-.068.039-.032.021-.032.022-.058.041-.028.021-.027.02-.019.012-.02.013-.019.009-.021.009L8 9.37l-.021.006H7.85l-.045-.007-.045-.004-.047-.011-.045-.01-.046-.011-.045-.011-.045-.009-.044-.007h-.166l-.078.007-.075.01-.069.012-.078.009-.072.013-.072.018-.069.019-.04.011-.041.01-.04.008-.04.007-.041.014H6l-.162-.013-.08-.007-.084-.01h-.492l-.33-.007-.326-.008h-.161l-.159-.006-.173-.007H2.969l-.094.009-.087.008-.079.009-.072.01-.063.012-.029.007-.029.007-.025-.004-.023.007-.022.008-.021.007-.018.008-.017.009-.016.009-.014.008-.012.009-.011.01-.008.01-.007.015-.007.01v.078l.007.011.007.012.008.012.01.013.011.013.012.013.014.012.014.014.033.027.038.028.043.027.02.014.022.009.021.01.023.008.022.007.022.007.045.011.045.009.043.011.022.006.021.007.02.008.02.008.034.018.034.02.033.02.032.021.03.024.029.024.028.025.027.027.056.059.059.059.058.058.06.057.061.056.062.056.063.055.066.054.023.019.026.016.027.017.027.015.056.03.056.03.028.015.027.017.025.017.026.019.023.021.023.023.01.013.011.012.01.014.012.009.043.069.042.068.044.067.045.067.045.068.046.065.046.065.047.064.042.062.049.061.05.062.05.059.05.057.051.056.052.057.054.053.053.051.054.05.055.048.056.045.057.046.058.041.057.039.06.039.058.034.061.033.061.03.03.015.032.014.032.012.03.012.032.011.032.011.032.01.032.009.033.009.032.008h.372l.033.028.066.012.062.014.055.012.046.014.037.009.036.01.038.007.037.007h.074l.074.006h.292l.041-.006h.248l.048.006.049.008.048.011.048.011.048.013.047.015.047.017.047.016.047.019.046.021.046.02.042.018.041.017.041.015.043.013.085.025.085.025.082.023.082.023.083.021.082.02.165.039.165.035.019.006h.02l.019.006.021.007.038.016.039.017.012.008.042.028.065.04.08.047.043.025.046.025.047.024.046.025.046.022.045.019.043.018.04.014.033.016.034.017.034.016.035.015.071.03.078.043.074.027.077.026.078.025.065.02h.01l.068.021.016.005.082.023.163.045.162.046.082.023.081.024.032.005h.033l.033.008.033.007.034.01.034.009.07.021.071.023.074.025.072.023h.174l.2-.007.178-.01.306-.03.082-.005h.236l.038.007.067.02.034.015.046.028.028.025.023.028.011.018.008.016.043-.007.043-.007.041-.008.04-.008.078-.018.075-.019.072-.022.068-.022.066-.024.064-.023.123-.046.116-.046.053-.02.052-.018.051-.016.05-.017.049-.015.047-.013.094-.025.092-.022.081-.006.162-.037.076-.017.073-.02.034-.009.034-.011.033-.011.035-.014.03-.013.031-.013.029-.015.028-.015.027-.017.025-.019.026-.019.024-.021.56-.291.039-.017.038-.016.019-.007.021-.006h.019l.02-.006.164-.035.166-.039.082-.02.083-.021.081-.023.083-.023.084-.025.086-.025.042-.013.042-.015.041-.017.042-.018.046-.02.046-.021.047-.019.047-.016.046-.017.048-.015.047-.013.049-.011.048-.011.048-.008.049-.006h.248l.041.006h.295l.075-.006h.074l.037-.007.036-.007.038-.01.036-.009.047-.014.055-.012.062-.014.062-.021h.405l.032-.008.033-.009.031-.009.033-.01.032-.011.032-.011.03-.012.032-.012.03-.014.032-.015.061-.03.06-.033.059-.034.06-.039.057-.039.058-.041.057-.046.055-.045.056-.048.053-.05.054-.051.054-.053.051-.057.052-.056.05-.057.05-.059.05-.062.047-.089.047-.062.048-.064.046-.065.045-.065.045-.068.045-.067.044-.067.043-.068.043-.069.008-.013.01-.014.01-.012.011-.013.011-.012.012-.011.023-.021.026-.019.025-.017.027-.017.028-.015.056-.03.056-.03.027-.015.027-.017.025-.016.024-.019.065-.054.064-.055.062-.056.061-.056.06-.057.058-.058.059-.059.056-.059.026-.027.028-.025.03-.024.03-.024.032-.021.033-.02.033-.02.035-.018.019-.008.021-.008.021-.007.022-.006.043-.011.045-.009.045-.011.022-.007.022-.007.022-.008.021-.01.022-.009.021-.014.043-.027.038-.028.032-.027.015-.014.013-.012.013-.013.011-.013.009-.013.009-.012.007-.012.006-.011v-.056zm-18.629.2-.038-.041-.039-.037-.037-.037-.036-.036-.034-.031-.033-.029-.029-.024h.339l.071.007.069.009.072.009.071.011.072.011.073.014.073.015.073.015.074.018.075.017.074.02.093.023.092.022.09.018.091.015.089.015.087.011.088.011.087.009.086.008.085.009.172.013.171.014.085.008.086.008.1.011.1.013.1.012.1.014.1.013.1.016.1.015.1.016.193.034.189.036.182.037.178.037.17.038.162.038.147.047.144.037.132.037.12.034.108.033.093.03h.015l.013.007.014.009.012.013.012.01.012.011.011.012.011.012.011.014.01.015.021.03.019.033.02.036.039.072.019.039.022.037.023.036.029.043.012.018.013.016.015.018.015.015-.005.059v.244l-.013-.023-.011-.021-.026-.048-.024-.07-.015-.048-.012-.051-.038-.143-.03-.084-.009-.019-.01-.018-.02-.031-.013-.014-.014-.013-.014-.01-.014-.009-.015-.007-.018-.006-.17-.04-.339-.084-.168-.044-.5-.128-.168-.041-.17-.038-.254-.054-.091-.016-.172-.03-.088-.014-.088-.012-.177-.022-.089-.01-.09-.008-.09-.007-.27-.016-.173-.013-.342-.034-.169-.02-.167-.024-.168-.026-.167-.027-.185-.033-.271-.042-.171-.022-.162-.014H3.18zm5.606 2.98-.139-.048-.137-.046-.136-.047-.136-.044-.135-.04-.069-.021-.069-.02-.068-.019-.071-.018-.07-.018-.071-.017-.072-.016-.073-.015-.075-.014-.074-.012-.077-.013-.078-.01-.079-.01-.081-.008-.082-.007h-.716l-.069-.007-.07-.008-.069-.013L6 12.252l-.071-.017-.07-.019-.037-.011-.035-.011-.037-.012-.036-.013-.036-.015-.04-.01-.038-.02-.036-.016-.038-.017-.037-.019-.038-.019-.036-.019-.038-.022-.038-.022-.039-.023-.036-.023-.038-.025-.039-.026-.039-.027-.039-.029-.039-.03-.039-.03-.039-.033-.04-.033-.041-.036-.04-.036-.04-.035-.04-.038-.042-.04-.041-.041-.042-.041-.041-.044-.042-.044-.042-.047-.041-.047-.042-.048-.043-.051-.044-.052-.043-.054-.044-.054-.047-.059-.043-.058-.046-.059-.048-.058-.034-.046-.033-.043-.031-.04-.03-.036-.029-.034-.027-.032-.027-.028-.025-.028-.023-.023-.023-.023-.044-.04-.041-.034-.033-.029-.068-.051-.032-.024-.03-.025-.03-.026-.014-.015-.015-.016-.011-.017-.019-.015-.015-.02-.016-.025-.018-.025-.023-.03-.026-.033-.029-.035-.066-.078-.037-.042.151.017.077.011.155.026.157.031.334.082.093.022.09.018.18.03.176.022.086.01.172.016.342.027.271.028.2.025.2.027.2.03.29.051.188.035.361.074.169.038.162.039.3.075.252.071.108.033.092.03.029.013.014.008.013.009.012.011.023.025.033.043.02.032.021.036.062.116.022.04.023.039.026.038.014.02.044.054.017.017.02.018v.068l.005.055.006.056.007.054.009.055.009.055.011.053.012.054.014.053.016.052v.155l.005.03v.032l.005.031.006.03.008.032.007.03.009.031.008.031.01.031.011.03.011.032.012.03.012.031.014.032.013.03.03.028.014.03.017.032.018.03.018.032.018.03.021.031.019.03.022.032.022.031.023.03.025.032.012.015zm2.176-4.308L11 8.412l.04-.026.039-.025.038-.023.039-.022.038-.019.039-.019.037-.017.038-.015.037-.012.037-.012.037-.01.037-.01.036-.006.037-.006h.248l.034.006.036.007.034.008.034.011.034.011.033.012.034.014.033.015.034.015.036-.018.034-.016.034-.015.034-.014.033-.012.033-.011.031-.01.033-.008.031-.007h.032l.03-.006h.232l.026.005h.027l.027.006.027.006.025.009.026.008.026.008.025.011.025.01.05.023.047.025.039.02.039.023.038.024.038.024.037.026.037.026.073.052-.063-.03-.061-.027-.059-.025-.057-.023-.055-.021-.052-.017-.05-.017-.05-.014-.033-.008-.033-.008h-.03l-.032-.006h-.213l-.022.006h-.022l-.022.007-.021.008-.019.01-.02.009-.018.011-.017.013-.017.013-.016.014-.015.015-.016.016-.013.017-.016.023-.012.019-.012.019-.012.022-.01.022-.011.022-.01.025-.008.024-.009.026-.007.026-.007.029-.008.029-.006.029-.006.03v.097l-.007.068-.005.073v.604l.005.1.007.1v.056h-.053l-.006-.005-.005-.007v-.768l-.005-.082v-.118l-.031-.04-.005-.037v-.035l-.01-.028-.008-.034-.007-.033-.009-.033L12 8.609l-.01-.03-.011-.029-.012-.027-.012-.026-.014-.026-.013-.027-.016-.023-.012-.017-.017-.021-.02-.018-.024-.021-.022-.016-.017-.009-.025-.013-.024-.011-.027-.009-.028-.008-.029-.006h-.211l-.04.007-.042.01-.044.011-.045.012-.046.016-.049.018-.05.019-.052.022-.055.025-.056.032-.058.029zm1.587 2.6v-.035l-.006-.018-.007-.017-.01-.017-.023-.013-.012-.016-.011-.014-.012-.013-.014-.013-.013-.012-.016-.012-.016-.011-.017-.01-.018-.009-.02-.01-.02-.007-.021-.007-.023-.007h-.097v-.019h.158l.017.006.017.005.016.007.016.007.016.008.015.008.013.01.013.01.014.009.012.011.011.013.011.012.01.012.01.012.009.014.009.012.007.014.007.015.007.014.006.015v.014l.009.03v.122l-.005.008v.008l-.007.008-.008.009-.01.006-.012.007-.014.007-.016.006h-.074l.01-.007.027-.019.015-.013.016-.011.008-.008.007-.011.006-.011v-.071zm-.944.047v.028l.005.012.006.011.007.011.009.008.015.011.015.013.028.019.009.007h-.073l-.016-.006-.013-.007-.013-.007-.009-.006-.009-.009-.007-.008-.006-.008v-.145l.005-.015.005-.014.006-.015.006-.014.007-.015.008-.014.008-.012.009-.014.009-.012.011-.012.011-.012.011-.013.012-.011.013-.009.013-.01.015-.01.014-.008.015-.008.016-.007.017-.007.017-.005.017-.006h.158-.103l-.022.007-.022.007-.019.007-.02.01-.018.009-.017.01-.017.011-.015.012-.014.012-.013.013-.012.013-.011.014-.012.016-.011.018-.008.017-.008.017-.007.018-.005.017v.065zm.162-.016.04-.019h.064l.023.012.022.018.023.023.026.021.033.018.031.016-.075.014h-.109l-.033-.008-.03-.011-.041-.024-.024-.022zm.25-.479h-.135l-.023.006.018-.014.018-.015.02-.015.01-.008.012-.007.012-.007.013-.007h.015l.016-.005h.177l.015.007.015.005.015.007.013.007.012.008.022.015.018.014.018.014-.06-.009-.056-.006-.054-.006h-.081Zm-.085-.21.012-.011.012-.013.014-.013.014-.013.008-.006h.009l.01-.006h.128l.01.006.011.005.008.006.017.012.015.014.013.012.01.011-.039-.007-.038-.006-.035-.005H12l-.035.007h-.017zm.245.753.028-.02.013-.01.043-.04.022-.011h.067l.02.009.019.01.051.037-.037.03-.027.016-.03.012-.033.008h-.13l-.056-.011zM9.167 9.183l-.027.041-.024.042-.023.043-.022.045-.021.047-.018.043-.018.049L9 9.544l-.015.052.005-.052L9 9.49l.011-.054.014-.05.014-.051.016-.049.018-.048.02-.046.022-.048.023-.044.026-.042.026-.041.03-.04.015-.019.016-.014.033-.037.016-.017.019-.018.018-.016.019-.012.02-.016.02-.015.021-.015.021-.015.022-.019.022-.014.023-.014.023-.012.024-.012.025-.013.051-.023.054-.02.056-.018.062-.018.031-.007.03-.008.065-.012.065-.011.07-.009.072-.006h.074l.055-.01.051-.011.048-.011.044-.012.04-.014.038-.014.034-.015.033-.015.026-.021.028-.016.028-.018.026-.017.05-.035.048-.036-.034.039-.034.037-.033.035-.034.032-.034.03-.033.027-.034.026-.033.022-.034.021-.033.017-.034.016-.033.012-.034.009h-.101l-.067.006-.064.007-.062.008-.06.011-.058.012-.056.014-.051.028-.055.013-.05.02-.049.019-.046.025-.045.023-.043.025-.042.026-.04.027-.039.029-.036.031-.036.032-.033.034-.031.034-.031.037-.03.038zm.111 1.261-.005.022v.028H9.24v-.006l-.008-.014-.007-.019-.02-.021-.005-.027v-.4l.009-.056.01-.055.016-.052.015-.052.017-.048.018-.049.021-.051.022-.047.023-.045.026-.044.023-.043.028-.041.03-.038.042-.042.033-.035.036-.035.031-.03.038-.03.039-.03.04-.027.042-.025.041-.024.044-.022.045-.021.05-.021.047-.016.049-.014.033-.008.033-.007h.034l.033-.005h.241l.037.005.072.008.073.012.074.014.077.015.156.03.079.016.082.016.083.013.085.011h.04l.02.006.02.007.021.007.02.009.02.01.02.011.019.012.021.014.02.013.019.015.02.017.019.018.018.017.02.02.018.019.018.022.019.022.018.022.017.024.018.025.017.024.016.027.017.027.016.027.016.029.016.03.014.03.015.03.015.032.013.033-.018-.011-.019-.012-.017-.013-.018-.015-.035-.023-.034-.032-.033-.033-.033-.033-.031-.033-.031-.032-.029-.027-.009-.014-.018-.011-.014-.011-.014-.009-.014-.008-.013-.007-.012-.006h-.063l-.011.007-.011.01.021.033.02.034.019.033.02.035.017.035.017.035.016.036.014.035.015.036.012.037.011.036.011.037.009.037.007.038.006.037.005.038-.037-.059-.036-.056-.038-.053-.039-.048-.039-.05-.039-.046-.04-.044-.04-.042-.042-.04-.041-.038-.042-.036-.04-.036-.041-.031-.043-.029-.043-.028-.042-.024-.043-.023-.043-.021-.042-.019-.043-.017-.044-.008-.043-.013-.042-.011-.044-.01-.043-.007-.042-.005h-.212l-.042.006-.043.006-.042.009-.043.011-.041.012-.042.015-.04.016-.04.02-.039.02-.039.023-.038.025-.037.026-.035.029-.035.028-.034.033-.033.036-.032.031-.03.038-.03.041-.029.044-.023.047-.025.048-.026.049-.023.051-.026.053-.02.057-.019.057-.017.06-.016.062-.015.064-.013.066-.009.069-.01.071zm1.319.8-.052.016-.052.014-.048.009-.1.013h-.202l-.037-.006-.037-.008-.038-.009-.031-.012-.069-.023-.07-.029-.061-.031-.034-.019-.033-.02-.033-.018-.035-.022-.084-.065-.055-.047-.1-.1-.066-.078-.041-.053-.033-.043.047-.151.031-.089.036-.087.032-.083.034-.08.067-.141.035-.066.07-.116.033-.056.038-.049.057-.068.057-.059.057-.049.02-.017.062-.041.059-.031.042-.019.06-.021.026-.007.082-.015h.126l.08.01.042.008.082.022.046.016.043.018.042.021.082.046.041.027.039.028.077.061.069.062.038.039.1.112.058.079.027.042.049.081.047.087.021.045.018.043.034.089.023.083.012.048.009.045.014.113-.135.07-.034.02-.051.034-.019.015-.037.031-.068.066-.1.091-.051.039-.051.036-.051.033-.051.03-.051.028-.053.026-.051.02zm2.017 1.422-.039-.022-.039-.019-.039-.018-.038-.018-.039-.015-.038-.014-.038-.012-.037-.011-.038-.01-.038-.008-.036-.007-.038-.005h-.217l-.035.005-.036.007-.034.008-.035.01-.034.011-.035.012-.034.015-.034.015-.034.018-.033.018-.033.02-.033.022-.033.024.011-.022.013-.022.012-.021.013-.02.014-.019.014-.018.015-.017.016-.015.017-.015.017-.012.017-.012.019-.011.02-.01.021-.007.02-.007h.022l.041-.007h.038l.041-.013h.354l.041.005h.039l.04.007.039.007.023.006.022.008.021.008.019.01.02.012.017.012.017.014.016.015.015.017.015.016.013.016.014.018.025.037.026.038zm.8-.176-.038-.012-.04-.012-.045-.015-.048-.018-.052-.019-.055-.024-.058-.027-.058-.029-.059-.033-.031-.019-.032-.019-.028-.019-.032-.021-.03-.02-.033-.019-.036-.018-.039-.016-.04-.015-.044-.015-.045-.012-.047-.013-.05-.012-.052-.01-.051-.008-.053-.008-.055-.007h-.394l-.056.005-.055.007-.055.008-.053.011-.051.012-.05.013-.05.016-.047.017-.045.019-.022.011-.02.011-.021.011-.02.011-.019.012-.018.014-.026.017-.028.018-.029.018-.031.016-.031.018-.035.018-.035.018-.038.018-.034.015-.04.017-.086.035-.093.035-.1.035.045-.018.044-.019.042-.02.042-.021.041-.022.039-.022.039-.022.038-.021.073-.046.07-.043.064-.04.061-.037.045-.025.044-.023.045-.022.045-.022.047-.02.046-.02.046-.019.048-.016.047-.015.048-.015.049-.013.048-.011.049-.009.049-.008.05-.006h.252l.05.006.051.008.051.011.053.013.051.017.051.019.053.021.051.024.052.026.053.03.025.017.026.016.052.036.028.019.034.022.039.025.043.024.094.054.1.053.093.049.08.041.06.031.021.008h.011zm1.432-1.685-.043.051-.045.049-.049.049-.051.047-.105.083-.033.023-.09.055-.062.032-.033.015-.065.027-.069.023-.071.018-.07.012h-.036l-.073.006h-.099l-.052-.001-.052-.009-.051-.012-.077-.022-.029-.01-.054-.021-.108-.052-.082-.049-.108-.076-.025-.021-.086-.071-.091-.088-.056-.047-.02-.013-.064-.04-.037-.019-.1-.05.015-.12.009-.046.016-.084.015-.049.034-.089.039-.085.045-.084.051-.085.029-.043.058-.078.063-.075.068-.072.035-.033.037-.033.039-.032.076-.057.042-.027.08-.045.044-.022.044-.018.045-.015.084-.022.08-.013h.17l.083.016.042.013.041.015.063.03.061.036.06.044.079.071.056.061.053.068.02.027.034.05.038.06.034.06.035.065.034.07.033.072.032.078.033.083.031.084.031.091.049.152zm.172-.567v.169l-.018.027v.022l-.008.019-.006.014v.006h-.016v-.012l-.006-.016-.033-.023v-.026l-.009-.071-.01-.069-.012-.063-.014-.064-.016-.062-.017-.06-.018-.057-.021-.057-.022-.053-.023-.051-.025-.049-.026-.048-.027-.045-.028-.044-.031-.041-.032-.04-.032-.037-.033-.036-.035-.027-.035-.031-.036-.029-.036-.026-.038-.025-.039-.023-.039-.02-.039-.02-.038-.02-.041-.015-.042-.012-.042-.011-.042-.009-.044-.006-.042-.006h-.212l-.042.005-.043.007-.043.01-.044.011-.042.013-.043.015-.043.017-.043.019-.043.021-.043.023-.042.024-.043.028-.042.029-.047.031-.042.033-.041.036-.04.038-.042.04-.04.042-.039.044-.04.046-.039.05-.038.052-.038.053-.037.056-.037.059v-.038l.006-.037.007-.038.01-.037.01-.037.011-.036.013-.037.013-.036.015-.035.016-.036.017-.035.018-.035.019-.035.019-.033.021-.034.021-.033-.011-.01-.013-.007h-.056l-.013.006-.013.007-.014.008-.013.009-.015.01-.013.011-.015.014-.03.027-.031.032-.03.033-.033.033-.033.033-.034.032-.034.029-.017.015-.019.013-.018.012-.02.016.013-.033.014-.032.014-.03.016-.03.015-.03.016-.029.016-.027.017-.027.017-.027.017-.024.017-.025.017-.024.018-.022.018-.022.019-.022.019-.019.019-.02.019-.017.018-.018.02-.017.021-.015.019-.013.02-.014.019-.012.021-.011.019-.01.021-.009.019-.007.021-.007.021-.006h.04l.084-.011.083-.013.082-.016.08-.016.156-.03.076-.015.074-.014.073-.012.073-.008.036-.005h.241l.034.005h.033l.033.007.033.008.049.014.047.016.046.018.047.021.044.022.042.024.042.025.041.027.039.03.038.03.036.033.035.035.034.035.031.039.031.038.029.041.027.042.026.044.023.045.022.04.019.048.019.049.017.051.014.052.014.053.017.054.008.056.008.056v.119zm.172-.8-.02-.046-.019-.047-.022-.045-.023-.043-.025-.042-.027-.041-.023-.03L15 9.106l-.03-.037-.032-.034-.034-.034-.034-.032-.037-.031-.033-.029-.04-.027-.041-.026-.043-.025-.045-.023-.048-.022-.048-.019-.05-.02-.053-.016-.055-.015-.056-.014-.057-.012-.06-.011-.062-.008-.064-.007-.066-.006h-.135l-.033-.012-.034-.016-.033-.017-.034-.021-.033-.022-.04-.046-.032-.027-.035-.03-.034-.032-.033-.035-.036-.037-.034-.039.049.036.05.035.025.017.027.018.03.016.03.015.032.015.035.015.038.014.04.014.044.012.047.011.052.011.055.01h.074l.072.006.069.009.066.011.065.012.03.008.031.007.058.018.056.018.054.02.051.023.024.013.023.012.025.012.023.014.022.014.022.014.021.015.02.015.02.015.019.016.02.017.018.016.018.018.017.016.033.037.032.037.015.021.014.019.027.041.026.042.023.044.021.045.02.046.017.048.017.049.015.051.013.05.011.054.01.053.009.055-.013-.05-.017-.05zm5.711.411-.037.042-.035.041-.034.04-.031.037-.027.034-.023.03-.019.028-.015.02-.016.021-.014.018-.016.018-.015.015-.014.015-.03.027-.03.025-.032.023-.067.051-.038.03-.04.033-.021.019-.021.02-.024.024-.024.024-.026.026-.025.029-.028.032-.029.034-.03.037-.031.039-.033.043-.034.047-.042.073-.045.06-.044.058-.043.056-.044.054-.044.054-.044.052-.043.051-.042.049-.043.046-.041.047-.043.045-.041.044-.042.042-.041.042-.041.039-.041.039-.04.037-.04.035-.041.036-.04.033-.039.032-.039.031-.039.03-.04.024-.039.029-.039.026-.038.026-.039.025-.037.023-.038.022-.037.022-.038.021-.037.019-.037.019-.038.018-.036.016-.037.015-.036.015-.037.014-.035.014-.037.012-.035.011-.037.011-.07.019-.036.008-.035.008-.071.013-.069.011-.07.008h-.763l-.078.006-.078.008-.077.008-.075.01-.074.012-.074.013-.071.015-.072.015-.071.016-.069.017-.07.019-.069.019-.069.019-.137.043-.136.043-.136.046-.277.091-.142.047-.144.044-.038.011.026-.03.023-.032.023-.031.022-.032.022-.031.019-.032.02-.031.019-.032.017-.031.017-.032.016-.031.016-.031.015-.031.013-.032.01-.024.012-.032.011-.031.011-.032.009-.031.01-.032.009-.031.007-.03.007-.032.006-.031.006-.032v-.031l.005-.032v-.031l.005-.063v-.062l.016-.053.013-.052.014-.054.011-.054.01-.054.008-.055.006-.056.006-.054.005-.057v-.053l.034-.031.032-.032.045-.054.039-.058.046-.079.042-.078.019-.038.02-.035.036-.035.021-.029.024-.027.024-.023.025-.017.03-.013.093-.03.108-.033.252-.071.142-.037.154-.038.16-.039.171-.038.177-.037.184-.037.187-.035.194-.035.1-.016.2-.03.2-.028.2-.024.1-.011.17-.017.342-.027.173-.016.087-.01.175-.022.18-.03.09-.018.425-.1.08-.016.156-.029.155-.023.132-.015zm.3-.3-.032.028-.034.031-.035.046-.038.037-.039.04-.039.042h-.06l-.161.014-.172.022-.181.035-.277.048-.168.027-.165.025-.168.024-.168.02-.171.018-.171.016-.174.013-.269.016-.09.007-.09.008-.089.01-.178.022-.087.012-.088.014-.173.03-.086.016-.256.054-.168.038-.169.041-.5.128-.168.044-.338.084-.173.04-.026.002-.015.007-.015.009-.013.01-.013.013-.023.03-.01.016-.017.036-.009.021-.021.064-.038.142-.026.1-.016.048-.01.023-.008.023-.032.063-.033.051v-.281l-.005-.059v-.007l.015-.015.013-.016.013-.018.014-.018.024-.036.023-.036.021-.037.021-.039.039-.072.019-.036.02-.033.019-.03.011-.015.01-.014.011-.012.012-.012.019-.013.012-.01.014-.009.013-.009.013-.007h.015l.094-.03.107-.033.12-.034.133-.037.139-.045.154-.039.161-.038.17-.038.177-.037.184-.037.188-.036.193-.034.1-.016.1-.015.1-.016.1-.013.1-.014.1-.012.1-.013.1-.011.085-.008.086-.008.17-.014.171-.013.086-.009.087-.008.086-.009.088-.011.088-.011.089-.015.09-.015.087-.01.092-.022.094-.023.075-.02.074-.019.075-.016.074-.017.075-.013.073-.014.072-.012.071-.011.072-.01.071-.007.071-.007h.342z"/></svg>