<svg xmlns="http://www.w3.org/2000/svg" viewBox="0 0 24 24"><path fill="#44739e" d="m14.954 9.679-.032-.091-.035-.088-.034-.083-.035-.076-.035-.073-.036-.066-.034-.061-.037-.058-.053-.076-.055-.068-.053-.05-.072-.063-.069-.05-.052-.027-.037-.017-.07-.023-.073-.014h-.144l-.076.013-.079.021-.04.013-.039.017-.04.02-.079.044-.038.024-.076.057-.035.029-.037.034-.035.033-.067.071-.063.074-.06.082-.026.039-.05.084-.045.083-.039.086-.03.082-.025.085-.008.032.025.014.112.074.077.064.103.099.113.093.054.041.134.083.113.051.076.028.026.008.052.015.048.011.048.009.098.007h.046l.07-.006.104-.016.063-.015.067-.024.064-.026.089-.044.089-.055.083-.061.053-.044.098-.094.045-.05.045-.054-.014-.043Zm-.704-.207v.059l-.012.035-.009.029-.012.023-.013.025-.015.019-.018.022-.019.019-.023.017-.021.015-.025.012-.025.009-.026.008h-.124l-.012-.006-.026-.009-.024-.012-.024-.015-.02-.017-.019-.026-.018-.021-.015-.024-.013-.025-.013-.023v-.029l-.007-.028v-.116l.007-.027v-.041l.008-.012.014-.025.014-.023.018-.021.019-.019.021-.017.024-.016.011-.006.012-.006.026-.009.026-.008h.111l.026.008.025.009.024.012.022.016.022.017.02.019.022.021.015.023.013.025.012.025.009.028.008.027v.061Zm.172-.436v.054l-.006.009v.008l-.007.009-.007.006-.009.008h-.018l-.009.005h-.083l-.009-.005h-.018l-.009-.008-.004-.007h-.006l-.007-.008v-.132l.007-.01.006-.008.007-.007.009-.007h.008l.01-.005h.08l.011.005h.007l.009.007.007.007.007.008v.01l.006.009v.042Zm-3.887 1.104.052-.033.053-.037.051-.038.105-.093.08-.078.049-.042.031-.023.068-.044.065-.038-.021-.078-.012-.039-.027-.084-.017-.04-.021-.043-.05-.089-.05-.083-.027-.03-.061-.086-.097-.113-.07-.069-.035-.032-.073-.058-.039-.027-.038-.026-.079-.044-.041-.019-.038-.017-.04-.014-.08-.021-.036-.007-.074-.009h-.109l-.073.014-.033.01-.054.021-.036.016-.035.02-.07.05-.054.047-.053.055-.073.088-.017.023-.036.053-.072.12-.035.064-.07.15-.034.082-.035.088-.034.093-.032.096-.014.044.049.059.021.024.102.099.053.046.084.065.033.02.029.02.03.017.096.049.064.027.069.023.033.01.035.008.07.013.072.007h.118l.093-.014.046-.008.045-.012.099-.034.048-.019.049-.024.049-.027Zm-.13-.666v.06l-.013.032-.009.029-.011.023-.015.025-.015.024-.018.021-.019.02-.021.016-.023.015-.025.013-.024.009-.026.008h-.125l-.012-.006-.026-.009-.024-.013-.021-.014-.023-.017-.019-.019-.017-.022-.016-.024-.013-.024-.013-.024v-.028l-.006-.028V9.42l.006-.027v-.029l.006-.012.007-.012.013-.025.016-.023.017-.021.019-.019.023-.017.021-.016.013-.006.011-.007.026-.009.026-.008h.111l.026.008.024.009.025.013.023.016.021.017.019.019.018.021.015.023.015.025.011.024.009.029.007.027v.061Zm.065-.323h-.027l-.009-.006h-.018l-.008-.007-.01-.023h-.007l-.008-.008v-.009l-.006-.011v-.094l.006-.009v-.009l.008-.01.007-.008.007-.007.007-.007h.008l.011-.005h.081l.009.005h.009l.008.007.007.007.006.008.006.01.006.009v.108l-.006.009-.006.008-.006.009-.007.006-.008.008h-.018l-.01.006h-.021Zm6.706 4.806-.014-.069-.014-.066-.016-.063-.025-.088-.031-.083-.033-.076-.026-.046-.027-.045-.013-.017-.033-.04-.033-.038-.056-.048-.044-.031-.072-.043-.052-.023-.058-.021-.063-.02-.031-.009-.11-.021-.037-.006-.126-.014-.042-.003-.096-.003h-.151l-.184.009-.094.008-.094.009-.093.011-.189.026-.191.034-.096.019-.096.021-.194.047-.195.053-.213.059-.117.032-.119.028-.589.132-.235.058-.179.051-.116.037-.117.042-.177.071-.056.025-.076.037-.007.018-.017.057-.016.058-.015.06-.013.06-.013.064-.011.063-.01.065-.009.067-.007.069-.006.071-.003.071-.002.074.009.073.009.071.006.071.003.071.002.072.001.068-.001.07-.004.07-.005.069-.007.068-.006.07-.011.068-.009.066-.012.069-.012.068-.014.066-.016.084-.012.083-.01.083-.009.083-.007.084-.006.083-.003.084-.004.083v.251l.004.084.005.167.008.167v.032l-.001.015-.002.016-.002.017-.005.016-.004.014-.006.017-.01.023-.013.025-.014.022-.017.025-.034.047-.034.047-.003-.131-.004-.158-.001-.173-.001-.18v-.183l.002-.174.004-.16.002-.072.005-.064.005-.088.008-.088.011-.09.013-.091.014-.065.013-.067.011-.066.009-.068.01-.068.007-.07.007-.069.004-.071.004-.071.003-.071v-.147l-.001-.074-.002-.075-.004-.075-.004-.076-.005-.06v-.059l.003-.06.002-.059.004-.059.007-.057.008-.057.011-.058.012-.057.013-.056.014-.058.017-.055.015-.057.02-.055.019-.054.02-.054.006-.019.003-.04-.002-.024-.012-.028-.007-.009-.019-.015-.03-.015-.01-.005-.056-.016-.031-.005-.035-.004-.036-.003-.038-.001h-.084l-.042.001-.087.007-.346.034-.075.004-.248.011-.109.003h-.102l-.098-.002-.136-.01-.086-.009-.087-.014-.086-.017-.049-.013-.137-.039-.05-.016-.104-.036-.112-.041-.309-.121-.055-.018-.119-.036-.125-.03-.196-.039-.204-.031-.307-.043-.075-.001-.084.004-.042.005-.094.008-.094.003h-.05l-.049-.004-.081-.012-.071-.019-.028-.01-.081-.034-.114-.043-.055-.017-.109-.028-.023-.003-.101-.009-.069.005-.022.004-.042.011-.045.017-.017.008-.041.025-.037.03-.02.019-.037.04-.038.051-.035.057-.035.068-.051.122-.03.095-.03.105-.014.056-.014.059-.025.128-.032.218-.019.16-.016.172-.014.189-.011.199-.003.106-.007.261.002.074.008.068.012.073.021.071.024.073.013.033.051.105.04.07.047.068.051.067.058.068.062.065.104.099.077.062.081.061.042.029.09.059.045.028.148.082.16.078.053.025.056.023.058.024.119.046.124.042.127.04.202.055.067.016.141.031.147.027.149.024.155.022.144.017.074.01.129.025.068.015.061.015.062.017.064.021.046.015.052.02.046.02.13.065.203.111.116.051.038.012.118.033.163.052.506.18.16.049.114.029.072.015.102.011.032.001h.028l.035-.002.032-.004.03-.007.039-.011.039-.02.027-.02.04-.041.004-.006.031-.057.018-.051.014-.064.007-.048.01-.082.015-.082.009-.036.009-.036.028-.049.042-.024h.018l.077-.02.092-.016.062-.006.072-.005h.136l.097.007.096.017.085.018.32.069.311.056.124.018.185.017.059.003.056.002h.054l.05-.003.049-.005.046-.008.06-.013.05-.019.032-.017.1-.058.145-.078.048-.024.094-.045.088-.039.173-.07.16-.057.364-.125.064-.024.126-.054.121-.064.058-.033.114-.084.056-.047.028-.026.085-.086.086-.1.086-.118.085-.136.061-.101.091-.17.048-.094.093-.164.044-.072.11-.195.03-.06.038-.088.019-.058.015-.062.006-.03.005-.033.004-.034.002-.035.001-.036v-.039l-.003-.084-.005-.045-.03-.252-.022-.156Zm-9.67-2.36-.035-.068-.032-.066-.028-.067-.026-.063-.027-.062-.021-.06-.023-.059-.017-.057-.018-.056-.016-.053-.012-.052-.013-.05-.007-.05-.008-.049-.006-.046-.004-.044-.002-.044v-.042l.002-.038.004-.038.005-.038.006-.035.008-.035.011-.031.011-.032.014-.029.015-.027.007-.015.005-.012.005-.01.002-.013.001-.011.003-.009-.003-.011-.001-.007-.002-.01-.003-.008-.004-.007-.005-.007-.006-.004-.007-.005-.007-.004-.006-.004-.009-.001-.008-.002h-.018l-.009.002-.011.002-.009.006-.01.004-.01.006-.009.008-.008.008-.01.009-.009.011-.009.013-.008.013-.008.016-.01.023-.011.023-.008.023-.008.024-.009.022-.007.024-.006.022-.004.025-.006.024-.004.025-.003.022-.003.025-.001.025-.001.025v.05l.001.024.001.026.005.05.007.051.011.053.012.051.015.052.018.054.019.053.021.054.024.054.026.054.029.056.029.055.034.055.032.057.036.055.039.058.038.056.041.058.043.057.044.059.046.058.046.057.049.06-.047-.077-.04-.073-.041-.075-.038-.071Zm9.476-1.123-.005-.024-.006-.025-.005-.022-.008-.024-.007-.022-.008-.024-.01-.023-.01-.023-.01-.023-.007-.016-.009-.013-.009-.013-.009-.011-.009-.009-.01-.008-.009-.008-.01-.006-.009-.004-.011-.006-.009-.002-.009-.002h-.017l-.009.002-.008.001-.007.004-.007.004-.006.005-.007.004-.004.007-.005.007-.003.008-.003.01-.002.007v.02l.002.011.004.013.003.01.006.012.007.015.016.027.012.029.012.032.01.031.009.035.006.035.006.038.003.038.001.038v.042l-.002.044-.004.044-.005.046-.008.049-.009.05-.011.05-.014.052-.013.053-.018.056-.019.057-.021.059-.023.06-.025.062-.027.063-.03.067-.031.066-.033.068-.036.07-.037.071-.04.075-.043.073-.044.077.049-.06.046-.057.045-.058.044-.059.043-.057.042-.058.038-.056.037-.058.035-.055.035-.057.032-.055.031-.055.027-.056.026-.054.024-.054.023-.054.019-.053.016-.054.016-.052.012-.051.01-.053.007-.051.006-.05.003-.05v-.05l-.001-.025-.003-.025-.001-.025-.005-.022ZM23 8.582v-.025l-.007-.011-.008-.01-.01-.011-.012-.012-.014-.01-.023-.009-.019-.01-.019-.01-.02-.009-.024-.008-.025-.009-.027-.01-.025-.006-.063-.016-.071-.013-.081-.012-.09-.01-.097-.009-.113-.01h-1.199l-.195.008-.181.007h-.181l-.367.009-.373.008H19.2l-.091.006-.09.008-.184.03h-.689l-.045-.008-.046-.008-.045-.009-.045-.011-.045-.013-.079-.021-.082-.021-.08-.022-.084-.016-.084-.012-.086-.012-.088-.008h-.184l-.049.008-.051.011-.051.012-.052.012-.052.016-.052.013-.051.009-.05.008h-.146l-.023-.007-.023-.007-.024-.01-.025-.017-.022-.015-.022-.013-.03-.023-.032-.024-.064-.038-.07-.045-.077-.044-.081-.045-.087-.044-.09-.044-.099-.044-.39-.35-.086-.094-.085-.093-.09-.1-.043-.043-.044-.045-.044-.042-.045-.043-.045-.039-.045-.041-.047-.037-.045-.037-.046-.036-.047-.035-.048-.034-.047-.032-.048-.031-.049-.03-.049-.026-.051-.026-.049-.023-.051-.021-.051-.02-.052-.017-.053-.019-.052-.013-.052-.004-.053-.008h-.297l-.046-.006h-.09l-.045-.008-.049-.007-.048-.01-.048-.011-.047-.01-.049-.036-.045-.013-.047-.015-.045-.015-.038-.015-.037-.012-.038-.01-.036-.012-.038-.009-.032-.012-.073-.015-.066-.013-.069-.014-.067-.014h-.232l-.031.006h-.031l-.031.012-.025.009-.026.008-.026.007h-.55l-.026-.007-.026-.008-.025-.009-.031-.012h-.031l-.032-.006h-.228l-.068.014-.067.014-.067.013-.073.015-.036.009-.038.009-.037.011-.036.011-.037.012-.037.015-.047.014-.046.016-.043.016-.047.012-.047.01-.048.012-.048.009-.048.008-.045.008h-.092l-.045.005h-.299l-.054.008-.053.009-.054.032-.052.014-.051.017-.051.021-.051.02-.05.024-.05.026-.049.026-.049.029-.048.032-.048.031-.048.034-.04.04-.047.036-.046.037-.046.041-.045.04-.044.04-.047.043-.044.041-.044.046-.049.039-.085.091-.086.093-.084.094-.391.35-.098.049-.09.044-.087.044-.082.045-.076.044-.036.024-.037.025-.065.046-.032.024-.03.023-.022.013-.022.015-.022.01-.023.01-.026.001-.024.007h-.146l-.05-.008-.051-.004-.053-.013-.051-.011-.052-.013-.051-.012-.05-.01-.05-.008h-.187l-.089.008-.084.011-.078.014-.088.01-.081.015-.082.02-.078.021-.045.013-.046.011-.045.009-.045.008-.047.016h-.685l-.182-.015-.091-.008-.095-.011h-.555l-.372-.008-.368-.009h-.182l-.18-.007-.195-.008H1.738l-.106.01-.098.009-.089.011-.082.011-.071.013-.032.008-.033.008-.028-.004-.026.008-.025.009-.024.008-.02.009-.019.01-.018.01-.016.009-.014.01-.012.011-.009.012-.008.017L1 8.562v.088l.008.012.008.014.009.013.011.015.013.015.013.014.016.014.016.016.037.03.043.032.048.03.023.016.025.01.023.012.026.009.025.008.025.007.051.013.051.01.048.012.025.007.024.008.022.009.023.009.038.02.039.023.037.023.036.023.034.027.033.028.031.028.031.03.063.067.066.066.066.066.068.064.069.063.07.064.071.062.074.061.026.021.029.018.031.019.03.017.064.034.063.034.031.017.031.019.028.019.029.022.026.023.026.026.012.015.012.014.011.015.014.011.048.077.048.077.05.076.05.075.051.077.052.074.052.073.053.072.047.07.056.069.056.07.057.067.056.064.058.063.058.065.061.059.06.058.061.056.062.055.063.05.065.052.065.046.064.045.068.044.066.038.068.037.069.034.034.017.036.016.036.013.034.014.036.012.037.013.036.011.036.01.037.01.036.009h.42l.037.032.075.013.07.016.062.014.052.016.041.01.041.011.043.008.042.008h.083l.084.007h.329l.047-.007h.28l.054.007.055.009.054.012.054.012.055.015.053.017.053.019.053.018.053.022.052.023.052.023.047.02.046.02.047.017.048.014.096.028.096.029.093.026.092.026.094.023.092.023.187.044.186.039.021.007h.023l.021.007.024.008.043.018.044.019.014.009.047.032.073.045.091.053.048.028.052.028.053.027.052.029.052.024.051.022.048.02.045.016.038.018.038.019.038.018.04.017.08.034.088.049.084.03.087.029.088.029.073.022h.011l.077.024.018.006.093.026.184.05.182.052.093.026.091.027.037.006h.037l.037.009.037.008.039.011.038.01.079.024.08.026.084.028.081.026h.196l.226-.008.201-.011.345-.034.093-.005h.266l.043.007.076.023.038.017.052.032.032.028.026.031.012.021.009.018.049-.008.048-.008.047-.009.045-.009.088-.02.084-.022.082-.025.076-.025.075-.027.072-.026.139-.052.131-.051.06-.023.058-.02.058-.018.056-.02.056-.017.053-.014.106-.028.104-.025.091-.007.183-.042.086-.019.082-.023.039-.01.038-.012.037-.013.04-.015.034-.015.035-.015.032-.017.032-.017.03-.019.029-.021.029-.022.027-.023.632-.329.044-.019.043-.018.021-.008.024-.007h.022l.022-.007.185-.039.188-.044.092-.023.094-.023.091-.026.094-.026.095-.028.097-.029.047-.014.048-.017.046-.019.047-.021.052-.022.052-.024.053-.021.053-.019.052-.019.054-.017.053-.014.056-.013.054-.012.054-.009.055-.007h.28l.047.007h.333l.084-.007h.084l.042-.008.04-.008.043-.011.041-.01.053-.016.062-.014.07-.015.07-.024h.457l.036-.009.037-.01.035-.01.038-.012.036-.012.036-.013.034-.013.036-.014.034-.015.036-.017.069-.034.067-.037.067-.039.068-.044.064-.044.065-.046.065-.052.062-.051.063-.054.06-.057.061-.057.061-.06.057-.064.059-.063.057-.065.056-.066.056-.07.053-.101.053-.07.055-.072.052-.073.05-.074.051-.077.051-.075.05-.076.048-.077.049-.077.009-.015.011-.016.011-.013.013-.015.012-.014.014-.012.026-.024.029-.021.028-.019.031-.02.031-.017.064-.033.063-.034.03-.017.031-.019.028-.018.027-.022.073-.061.073-.062.07-.063.068-.063.068-.065.066-.065.066-.067.063-.066.03-.031.031-.028.034-.027.034-.027.036-.024.037-.022.038-.023.039-.02.022-.009.023-.009.024-.008.025-.007.048-.012.051-.011.051-.012.025-.008.025-.008.025-.009.023-.011.025-.01.024-.016.048-.031.043-.031.036-.031.017-.016.015-.013.015-.015.012-.014.01-.015.01-.014.008-.013.007-.013v-.063Zm-21.027.226-.043-.046-.044-.042-.042-.042-.04-.04-.039-.035-.037-.033-.033-.027h.383l.08.008.078.01.081.01.08.012.082.013.082.016.082.016.083.017.083.021.085.019.084.023.104.025.104.025.102.021.103.017.1.016.098.013.1.012.098.01.097.009.096.011.194.014.193.016.096.009.097.009.113.013.113.014.113.014.112.016.113.014.113.018.113.017.113.018.218.039.213.04.206.042.2.042.192.043.183.043.166.053.163.041.149.042.135.039.122.037.105.034h.017l.015.008.015.01.014.014.014.012.013.012.012.014.013.013.012.016.012.017.023.034.022.037.022.041.044.081.022.044.025.042.026.04.032.049.014.02.015.018.016.021.017.017-.005.066v.276l-.015-.026-.012-.024-.03-.054-.027-.079-.017-.054-.013-.058-.043-.161-.034-.095-.01-.022-.011-.02-.023-.035-.015-.016-.016-.014-.015-.012-.016-.01-.017-.008-.02-.007-.192-.045-.383-.095-.19-.049-.564-.145-.19-.046-.191-.043-.287-.061-.103-.018-.194-.034-.099-.016-.1-.013-.199-.025-.101-.011-.101-.009-.102-.008-.305-.018-.195-.015-.386-.038-.191-.023-.188-.027-.19-.029-.188-.031-.209-.037-.306-.047-.193-.025-.183-.016h-.085Zm6.328 3.364-.157-.055-.155-.052-.153-.053-.154-.049-.152-.045-.078-.024-.078-.023-.077-.021-.08-.02-.079-.021-.08-.019-.081-.018-.083-.017-.084-.016-.084-.013-.087-.015-.088-.011-.089-.012-.092-.009-.092-.007H5.47l-.078-.008-.079-.009-.078-.015-.076-.033-.08-.019L5 11.567l-.042-.013-.039-.012-.042-.014-.04-.014-.041-.017-.045-.012-.043-.022-.041-.018-.043-.02-.041-.021-.043-.021-.041-.022-.043-.025-.043-.025-.044-.025-.04-.026-.043-.029-.044-.029-.044-.03-.044-.033-.044-.034-.044-.034-.044-.037-.046-.037-.046-.041-.045-.041-.045-.039-.045-.043-.048-.045-.046-.047-.047-.046-.047-.049-.047-.05-.047-.053-.047-.053-.047-.054-.049-.058-.049-.059-.049-.061-.05-.061-.053-.066-.048-.066-.052-.066-.054-.066-.039-.052-.037-.048-.035-.045-.034-.041-.032-.038-.031-.036-.03-.032-.029-.032-.026-.026-.026-.026-.049-.045-.046-.038-.038-.033-.076-.057-.037-.027-.033-.029-.034-.029-.016-.017-.017-.018-.012-.019-.022-.017-.017-.023-.018-.028-.02-.028-.026-.034-.03-.037-.032-.04-.075-.088-.042-.047.171.019.087.012.175.03.177.035.377.092.105.025.102.02.203.034.198.025.097.011.195.018.386.031.305.032.226.028.226.03.226.034.327.058.212.039.408.084.19.043.183.044.339.084.284.08.122.038.104.034.033.014.016.009.014.01.014.013.026.028.037.049.023.036.023.04.07.131.025.045.026.044.03.043.015.023.05.061.019.019.023.02v.077l.005.062.007.063.008.061.01.062.01.062.013.06.013.061.016.06.018.059v.175l.006.034v.036l.005.035.007.034.009.036.008.034.01.035.009.035.012.035.012.033.012.036.014.034.014.035.015.036.015.034.034.032.016.034.019.036.02.034.021.036.02.034.024.035.021.034.025.036.025.035.026.034.028.036.013.017Zm2.456-4.863.046-.036.045-.029.044-.029.043-.026.044-.024.043-.022.044-.021.042-.02.043-.016.041-.014.042-.014.042-.011.042-.011.04-.007.042-.007h.28l.038.007.041.008.038.009.039.012.038.013.037.013.039.016.037.017.038.017.041-.02.038-.018.039-.017.038-.016.037-.014.038-.012.035-.011.037-.009.035-.008h.036l.034-.007h.262l.029.006h.031l.03.006.031.007.028.01.029.009.029.009.029.013.028.011.056.026.053.028.044.023.044.026.043.027.043.027.042.029.042.03.082.058-.071-.033-.069-.031-.066-.028-.065-.026-.062-.024-.059-.019-.056-.019-.056-.016-.038-.009-.037-.009h-.034l-.036-.007h-.24l-.025.007h-.025l-.025.008-.024.009-.021.011-.023.01-.02.013-.019.014-.019.015-.018.016-.017.017-.018.018-.015.019-.018.026-.014.021-.013.022-.014.025-.011.025-.012.024-.012.029-.009.027-.01.029-.008.029-.008.033-.009.033-.006.033-.007.033v.11l-.008.077-.006.082v.682l.006.113.008.113v.063h-.06l-.007-.006-.005-.008v-.867l-.006-.092v-.133l-.035-.045-.006-.042v-.04l-.011-.031-.009-.039-.008-.037-.01-.037-.01-.04-.012-.034-.012-.032-.014-.031-.013-.029-.016-.03-.015-.03-.018-.026-.013-.019-.019-.024-.023-.02-.027-.024-.025-.018-.019-.01-.028-.015-.027-.012-.031-.01-.031-.009-.033-.007h-.238l-.045.008-.048.011-.05.012-.05.014-.052.018-.056.02-.056.022-.059.025-.062.028-.063.036-.065.033Zm1.791 2.935v-.04l-.007-.02-.008-.019-.011-.019-.026-.015-.013-.018-.013-.016-.013-.015-.016-.014-.015-.014-.018-.013-.018-.013-.019-.011-.021-.01-.022-.012-.023-.008-.023-.007-.026-.008h-.11V9.95h.179l.019.007.019.006.018.008.018.007.018.009.017.01.015.011.014.011.016.01.014.013.012.014.013.014.011.013.011.014.01.016.01.013.008.016.008.017.008.016.007.017v.016l.01.033v.138l-.006.009v.009l-.007.009-.01.01-.011.007-.013.008-.016.008-.018.007h-.084l.012-.008.03-.022.017-.014.018-.013.009-.009.008-.012.007-.013v-.08Zm-1.066.053v.031l.006.014.007.012.008.013.01.009.017.012.017.015.031.021.011.008h-.083l-.018-.007-.015-.007-.014-.008-.01-.007-.011-.01-.007-.009-.007-.009v-.164l.005-.017.006-.016.007-.017.007-.015.008-.017.009-.016.009-.014.01-.016.01-.013.012-.014.013-.013.012-.015.014-.012.014-.01.015-.012.017-.011.016-.009.017-.009.018-.008.019-.008.019-.006.019-.006h.179-.117l-.024.008-.025.007-.022.008-.022.012-.021.01-.019.011-.019.013-.017.013-.016.014-.014.014-.014.015-.012.016-.014.018-.012.02-.009.019-.009.02-.008.02-.006.019v.073Zm.183-.018.045-.022h.073l.026.014.025.02.025.026.03.024.037.02.035.018-.085.016h-.123l-.037-.009-.034-.012-.046-.028-.027-.024Zm.283-.541h-.153l-.026.007.02-.016.021-.017.022-.017.012-.009.013-.008.014-.008.014-.008h.017l.018-.005h.2l.017.008.017.005.017.008.015.008.013.009.025.017.02.016.021.016-.068-.01-.063-.007-.061-.007h-.092Zm-.096-.237.013-.012.014-.015.015-.015.016-.014.009-.007h.01l.012-.007h.144l.012.007.012.005.009.007.019.014.017.016.015.013.011.013-.044-.008-.043-.007-.039-.006h-.122l-.04.008h-.019Zm.276.85.032-.023.014-.011.049-.045.025-.012h.075l.023.01.021.011.058.042-.042.034-.03.018-.034.013-.037.009h-.147l-.063-.012ZM8.734 8.143l-.03.046-.028.048-.025.048-.025.051-.024.053-.02.049-.021.055-.015.058-.017.058.005-.058.012-.061.012-.061.016-.057.016-.057.018-.056.02-.054.023-.052.024-.054.026-.05.03-.047.029-.046.034-.045.017-.022.018-.016.037-.041.018-.02.022-.02.02-.018.021-.013.023-.019.023-.016.023-.017.024-.017.025-.022.025-.016.026-.015.026-.014.027-.013.028-.015.057-.026.061-.023.064-.02.07-.02.035-.008.033-.009.074-.014.073-.012.079-.01.081-.007h.084l.062-.011.058-.013.054-.012.049-.014.046-.016.042-.015.039-.017.037-.017.029-.024.032-.018.032-.02.029-.02.056-.039.055-.041-.039.044-.038.042-.037.04-.039.036-.038.034-.037.03-.039.029-.037.025-.038.024-.038.019-.038.018-.037.014-.039.01H9.92l-.075.007-.073.008-.07.009-.067.012-.066.014-.063.015-.057.032-.063.015-.056.022-.055.022-.052.028-.051.026-.049.028-.047.029-.045.031-.044.033-.041.035-.04.036-.038.038-.035.038-.035.042-.033.043Zm.125 1.423-.005.025v.032h-.038v-.007L8.807 9.6l-.008-.021-.022-.024-.006-.03v-.452l.01-.063.012-.062.018-.059.017-.058.019-.055.02-.055.024-.058.025-.053.026-.05.029-.05.026-.049.032-.046.033-.043.048-.047.037-.04.041-.039.035-.034.043-.034.044-.034.045-.03.047-.028.047-.028.049-.024.051-.024.056-.024.053-.018.056-.016.037-.009.037-.008h.039l.037-.005h.272l.042.005.081.009.082.014.084.016.087.017.176.034.089.018.093.018.093.014.096.013h.045l.023.007.023.008.023.007.023.011.022.011.023.012.021.014.024.016.023.014.021.017.023.019.021.021.02.019.023.022.02.022.021.025.021.025.02.024.02.028.02.028.019.027.018.03.019.031.018.03.018.033.019.034.015.034.017.034.017.036.015.037-.02-.012-.022-.014-.019-.015-.02-.017-.04-.026-.038-.036-.038-.037-.037-.037-.035-.037-.035-.037-.032-.03-.011-.016-.02-.012-.016-.013-.016-.01-.015-.009-.015-.008-.014-.007H11.2l-.012.008-.013.012.024.037.023.038.021.038.023.039.019.04.019.039.018.041.016.039.017.041.013.042.013.04.012.042.01.042.008.043.007.041.006.043-.042-.066-.041-.064-.043-.059-.044-.055-.044-.056-.044-.052-.045-.05-.045-.047-.047-.045-.047-.043-.047-.041-.045-.04-.046-.035-.049-.033-.048-.032-.048-.027-.048-.026-.049-.023-.047-.022-.049-.019-.05-.009-.048-.015-.047-.012-.05-.011-.049-.008-.047-.006h-.239l-.048.007-.048.007-.048.01-.048.012-.047.014-.047.017-.045.018-.045.022-.044.023-.044.026-.043.028-.042.029-.039.033-.04.032-.038.037-.038.041-.036.035-.034.043-.033.046-.033.049-.026.053-.028.055-.03.055-.026.058-.029.059-.023.065-.021.064-.019.068-.018.07-.017.072-.015.074-.01.078-.011.081Zm1.489.903-.059.019-.058.015-.054.01-.113.015h-.228l-.042-.007-.042-.009-.043-.01-.035-.013-.078-.026-.079-.033-.068-.035-.039-.021-.037-.023-.037-.02-.04-.025-.095-.074-.062-.053-.113-.113-.074-.088-.046-.059-.038-.049.053-.17.035-.101.041-.098.036-.094.039-.09.075-.159.04-.075.079-.131.037-.063.043-.055.064-.077.064-.066.065-.056.022-.019.07-.046.067-.035.047-.022.068-.023.029-.008.093-.017h.142l.091.011.047.009.092.025.052.018.049.02.047.024.093.052.046.03.044.032.087.069.078.07.043.044.113.126.065.09.031.047.055.091.053.099.024.05.02.049.038.1.026.094.014.054.01.051.016.128-.152.079-.039.022-.057.038-.022.017-.042.035-.076.075-.113.103-.058.044-.057.04-.058.038-.058.033-.057.032-.06.029-.057.023Zm2.277 1.605-.044-.024-.044-.022-.044-.02-.043-.02-.044-.017-.043-.016-.043-.014-.042-.012-.043-.011-.043-.009-.04-.008-.043-.006h-.245l-.04.006-.04.008-.039.009-.039.011-.038.012-.04.014-.038.017-.039.017-.038.02-.037.02-.038.023-.037.025-.037.027.012-.025.015-.025.014-.024.014-.022.016-.022.016-.02.017-.019.018-.017.019-.017.019-.013.019-.014.022-.012.022-.012.024-.008.023-.008h.025l.046-.007h.043l.046-.015h.4l.046.006h.044l.045.007.044.008.026.007.025.009.024.009.021.011.023.014.019.014.019.015.018.017.017.019.017.019.015.018.015.02.029.042.029.043Zm.903-.198-.043-.014-.045-.013-.051-.017-.054-.02-.059-.022-.062-.027-.066-.031-.065-.032-.067-.037-.035-.022-.036-.021-.031-.022-.036-.024-.034-.022-.038-.022-.04-.02-.044-.018-.045-.017-.05-.017-.051-.013-.053-.015-.056-.014-.059-.011-.058-.009-.059-.009-.062-.008h-.445l-.063.006-.062.008-.063.009-.059.012-.058.014-.056.014-.057.018-.053.02-.051.021-.024.013-.023.012-.024.012-.022.013-.022.013-.02.016-.029.019-.032.021-.033.02-.035.018-.035.02-.039.021-.04.02-.043.02-.038.017-.045.019-.097.04-.105.039-.113.04.051-.02.049-.022.048-.022.047-.024.046-.025.044-.025.045-.025.042-.023.083-.052.079-.049.072-.045.069-.042.051-.028.049-.026.051-.025.051-.025.053-.022.052-.023.052-.021.054-.018.053-.017.054-.017.056-.015.054-.012.055-.01.055-.009.057-.007h.284l.057.007.057.009.058.012.06.015.057.019.058.021.06.024.057.027.059.03.06.033.028.02.029.018.059.04.032.022.038.025.044.028.048.027.107.061.112.06.105.055.091.046.067.035.024.009h.013Zm1.616-1.902-.048.058-.051.055-.056.055-.057.053-.119.094-.037.026-.101.062-.07.036-.038.017-.073.03-.078.026-.08.021-.079.013h-.041l-.082.007h-.112l-.059-.001-.058-.01-.058-.014-.087-.025-.032-.011-.061-.024-.122-.058-.093-.056-.122-.085-.028-.024-.097-.08-.103-.1-.063-.053-.023-.014-.072-.045-.042-.022-.112-.056.016-.136.011-.052.018-.095.017-.055.038-.1.044-.096.051-.095.057-.096.033-.049.066-.088.071-.084.076-.081.04-.038.042-.037.044-.036.086-.064.047-.031.09-.051.05-.025.05-.02.05-.017.095-.025.09-.014h.192l.094.018.047.014.047.017.071.034.069.041.067.05.09.08.063.069.06.076.022.031.039.056.042.068.039.068.039.073.039.079.037.081.036.088.037.094.035.095.035.103.056.171Zm.194-.64v.191l-.02.03v.025l-.009.021-.007.016v.007h-.018V9.61l-.007-.018-.037-.026v-.029l-.01-.08-.011-.078-.014-.071-.016-.072-.018-.07-.019-.068-.02-.064-.024-.065-.025-.059-.026-.058-.028-.055L15 8.742l-.031-.05-.031-.05-.035-.046-.037-.045-.036-.042-.037-.041-.039-.03-.04-.035-.041-.033-.04-.029-.043-.029-.044-.026-.044-.022-.044-.023-.043-.022-.046-.017-.048-.014-.047-.012-.048-.01-.049-.007-.048-.007h-.239l-.047.006-.049.008-.048.011-.05.012-.047.015-.049.017-.049.019-.048.022-.049.023-.048.026-.048.027-.048.032-.048.033-.053.035-.047.037-.046.041-.045.043-.048.045-.045.047-.044.05-.045.052-.044.056-.043.059-.043.06-.042.063-.041.066v-.042l.006-.042.008-.043.012-.042.011-.042.012-.04.015-.042.015-.041.016-.039.019-.041.019-.039.02-.04.021-.039.022-.038.024-.038.023-.037-.012-.012-.015-.007h-.063l-.015.006-.014.008-.016.009-.015.01-.017.012-.014.012-.017.016-.034.03-.035.037-.034.037-.037.037-.038.037-.038.036-.038.033-.019.017-.022.015-.02.013-.023.018.015-.037.016-.036.015-.034.019-.034.016-.034.019-.032.018-.031.019-.03.019-.031.019-.027.019-.028.02-.027.02-.025.02-.025.022-.025.021-.021.022-.023.021-.019.02-.02.023-.019.024-.017.021-.015.023-.016.021-.013.024-.013.021-.011.024-.01.021-.008.024-.008.024-.007h.045l.095-.012.093-.015.093-.018.09-.018.176-.034.086-.017.084-.016.082-.013.082-.009.041-.006h.272l.038.006h.038l.037.008.037.009.055.016.054.018.051.02.054.024.049.025.048.027.047.028.046.03.044.034.043.034.041.037.039.04.039.039.035.044.035.043.032.046.031.048.029.05.026.05.025.045.021.055.022.055.019.058.016.058.016.06.019.061.009.063.009.063v.135Zm.194-.903-.022-.052-.022-.053-.025-.051-.025-.048-.029-.048-.03-.046-.026-.034-.035-.043-.034-.042-.036-.038-.038-.038-.039-.036-.042-.035-.037-.033-.045-.031-.046-.029-.049-.028-.051-.026-.054-.025-.054-.021-.056-.023-.06-.018-.062-.017-.064-.016-.064-.013-.068-.013-.07-.009-.072-.008-.074-.006h-.153l-.037-.014-.038-.018-.038-.019-.038-.024-.037-.025-.045-.052-.036-.03-.04-.034-.038-.036-.038-.04-.04-.041-.039-.044.056.04.056.04.028.019.031.02.034.018.034.017.036.017.039.017.043.016.045.016.05.013.053.013.059.012.062.011h.083l.082.007.077.01.075.013.073.013.034.009.035.008.066.02.063.021.061.022.057.026.027.015.026.014.029.013.026.016.024.016.025.015.024.017.022.017.023.017.022.018.022.02.02.018.021.02.019.018.037.042.036.041.017.024.016.022.03.046.03.047.026.05.023.051.023.052.019.054.019.055.017.058.015.056.012.061.012.06.01.062-.015-.056-.019-.057Zm6.447.464-.042.047-.04.047-.038.045-.035.041-.031.039-.026.034-.021.031-.017.023-.018.024-.016.02-.018.02-.017.017-.016.017-.033.031-.034.028-.036.026-.076.057-.043.034-.045.037-.024.022-.024.022-.027.028-.027.027-.029.029-.028.033-.032.036-.033.038-.033.042-.035.044-.038.049-.038.053-.047.082-.051.068-.05.065-.048.063-.05.061-.05.061-.049.059-.049.058-.047.055-.049.052-.046.053-.049.051-.046.049-.047.048-.047.047-.046.044-.046.044-.045.042-.046.039-.046.041-.045.037-.044.036-.044.035-.044.034-.045.027-.044.033-.044.029-.043.03-.044.028-.042.026-.043.025-.042.025-.042.023-.042.022-.042.021-.043.02-.041.019-.041.016-.041.017-.042.016-.039.016-.042.014-.039.012-.042.012-.079.022-.041.009-.039.009-.081.015-.077.012-.079.009h-.862l-.088.007-.088.009-.087.009-.084.011-.084.014-.083.014-.08.017-.082.017-.08.018-.078.019-.079.022-.078.021-.078.022-.154.048-.154.049-.153.052-.313.103-.16.053-.163.049-.043.013.03-.034.026-.036.026-.035.025-.036.024-.035.022-.037.022-.035.022-.036.019-.035.019-.036.018-.035.018-.035.017-.035.015-.036.011-.027.014-.036.012-.035.013-.036.01-.035.011-.036.01-.035.008-.034.008-.036.007-.035.007-.036v-.035l.005-.036v-.035l.006-.072v-.07l.018-.059.015-.059.015-.061.013-.061.011-.061.009-.062.007-.063.007-.061.005-.065v-.059l.039-.035.036-.036.051-.061.044-.066.052-.089.047-.088.021-.043.023-.039.041-.04.023-.033.027-.03.027-.026.029-.019.034-.015.105-.034.121-.037.285-.08.16-.042.174-.043.181-.044.193-.043.199-.042.208-.041.211-.04.219-.039.113-.018.226-.034.225-.032.226-.027.113-.012.192-.02.386-.03.195-.018.098-.011.198-.025.203-.034.102-.02.479-.113.091-.018.176-.033.175-.026.149-.017Zm.338-.339-.036.032-.038.035-.04.052-.043.042-.044.045-.044.047h-.068l-.181.016-.194.025-.205.039-.312.054-.19.031-.186.028-.19.027-.189.023-.193.02-.194.018-.196.015-.304.018-.101.008-.102.009-.1.011-.201.025-.098.013-.1.016-.195.034-.097.018-.289.061-.19.043-.19.046-.565.145-.189.049-.382.095-.195.045-.029.003-.017.008-.017.01-.015.011-.015.015-.026.034-.011.018-.019.04-.01.024-.024.072-.043.16-.029.113-.018.055-.011.025-.01.026-.036.072-.037.057v-.317l-.006-.067v-.008l.017-.016.015-.019.015-.02.016-.02.027-.041.026-.04.023-.042.024-.044.044-.081.021-.041.023-.037.022-.034.012-.017.011-.016.013-.014.013-.013.022-.015.013-.011.016-.01.015-.01.014-.008h.017l.106-.034.121-.037.136-.039.15-.041.157-.051.173-.044.182-.043.192-.043.2-.042.207-.042.213-.04.218-.039.112-.018.113-.017.113-.018.113-.014.113-.016.113-.014.113-.014.113-.013.095-.009.098-.009.191-.016.193-.014.097-.01.099-.01.097-.01.099-.012.099-.012.101-.017.101-.017.099-.012.103-.024.107-.026.084-.023.084-.021.084-.019.084-.019.085-.014.082-.016.081-.014.08-.012.082-.011.08-.008.08-.008h.386Z"/></svg>