<svg xmlns="http://www.w3.org/2000/svg" viewBox="0 0 24 24"><path fill="#44739e" d="M12.316 17.573h-.078c-.687 0-1.381-.023-1.773-.07a14.29 14.29 0 0 1-3.988-1.053 7.533 7.533 0 0 0 4.383 1.883c.252.031.505.062.563.071s.18.009.352.01c.7 0 1.864-.037 2.053-.068a7.74 7.74 0 0 0 3.531-1.409c.11-.079.253-.208.407-.349a14.95 14.95 0 0 1-3.655.911 17.4 17.4 0 0 1-1.795.074m.024-4.041h-.013c-.332 0-.664 0-.997-.014a12.1 12.1 0 0 1-1.941-.2 8.53 8.53 0 0 1-4.526-2.002 2.469 2.469 0 0 1-.861-1.883 1.95 1.95 0 0 1 .056-.467 1.55 1.55 0 0 0-.148.29 3.163 3.163 0 0 0 .062 1.662 3.33 3.33 0 0 1 .201.946c.073.621.078.626.35.857a12.43 12.43 0 0 0 6.104 2.254c.275.029.593.058.706.066.086 0 .232.006.398.006.624 0 1.51-.033 1.825-.07a13.39 13.39 0 0 0 5.775-1.92 2.68 2.68 0 0 0 .618-.503c0-.022.068-.279.132-.606.069-.351.159-.753.196-.886a4.36 4.36 0 0 0 .126-1.108 1.82 1.82 0 0 0-.099-.726 2.64 2.64 0 0 1-.053.81c-.387 1.483-2.303 2.703-5.128 3.262a15.07 15.07 0 0 1-2.642.25h-.145ZM11.029 1.054c-.122.023-.332.056-.517.08a10.36 10.36 0 0 0-3.31 1.033 10.822 10.822 0 0 0-4.956 4.96 10.32 10.32 0 0 0-1.032 3.31c-.026.194-.06.409-.082.527 0 .021-.009.045-.013.059a7.5 7.5 0 0 0-.038.944v.078a7.5 7.5 0 0 0 .038.941c0 .013.008.036.011.056.024.119.058.333.084.529a10.32 10.32 0 0 0 1.032 3.304 10.949 10.949 0 0 0 7.164 5.778 13.6 13.6 0 0 0 1.73.3c.111.011.221.025.319.033.124.009.312.014.514.014a7.6 7.6 0 0 0 .947-.05c.087-.018.34-.057.566-.085a10.37 10.37 0 0 0 3.31-1.034 10.818 10.818 0 0 0 4.958-4.956 10.36 10.36 0 0 0 1.032-3.31c.026-.195.06-.41.084-.528 0-.02.007-.043.011-.057a7.5 7.5 0 0 0 .038-.939v-.081a7.5 7.5 0 0 0-.038-.943c0-.014-.008-.037-.013-.057-.022-.12-.056-.333-.082-.529a10.36 10.36 0 0 0-1.032-3.304 10.828 10.828 0 0 0-4.956-4.956 10.37 10.37 0 0 0-3.31-1.037 10 10 0 0 1-.517-.08l-.069-.014a7.3 7.3 0 0 0-.903-.039 7.3 7.3 0 0 0-.902.039c-.016.005-.044.009-.068.014m8.028 15.378a9.64 9.64 0 0 1-1.287 1.237 8.485 8.485 0 0 1-3.877 1.551c-.251.041-1.452.078-2.209.078h-.158c-.285 0-.508 0-.593-.018l-.554-.068a7.643 7.643 0 0 1-6.093-3.704c-.11-.204-.251-.454-.044-.68a.376.376 0 0 1 .318-.127.4.4 0 0 1 .06 0c.2-.037.403.11.599.262a9.5 9.5 0 0 0 1.319.76 13.4 13.4 0 0 0 3.956 1.067c.332.041.953.062 1.577.064s1.232-.022 1.559-.063a11.88 11.88 0 0 0 5.051-1.685 1.05 1.05 0 0 1 .54-.244.44.44 0 0 1 .093 0 .36.36 0 0 1 .332.124c.174.175.325.326-.589 1.446m2.039-7.843a2.35 2.35 0 0 1 .258 1.248 5.06 5.06 0 0 1-.155 1.329c-.035.129-.117.504-.182.832a4.83 4.83 0 0 1-.21.824 2.89 2.89 0 0 1-.881.795 13.68 13.68 0 0 1-5.252 1.929c-.304.051-.612.096-.923.132-.362.041-1.396.075-2.057.075h-.158c-.199 0-.364 0-.468-.01-.111-.008-.443-.039-.732-.068a13.11 13.11 0 0 1-6.543-2.437c-.468-.402-.531-.603-.621-1.369a2.68 2.68 0 0 0-.15-.744 3.895 3.895 0 0 1-.076-2.209 3.944 3.944 0 0 1 1.543-1.769 2.15 2.15 0 0 1 .802-.426h.037a.35.35 0 0 1 .11 0h.009a.368.368 0 0 1 .361.11c.124.125.291.295-.315 1.285l-.302.495a1.083 1.083 0 0 0-.237.726 1.691 1.691 0 0 0 .63 1.318 7.9 7.9 0 0 0 4.098 1.779 11.2 11.2 0 0 0 1.834.187c.265.013.532.015.797.014a14.3 14.3 0 0 0 2.462-.23c2.47-.493 4.19-1.517 4.491-2.676a1.89 1.89 0 0 0-.041-.929c-.124-.269-.131-.327-.131-.397 0-.209.141-.332.353-.489a.853.853 0 0 1 .455-.209h.04a.8.8 0 0 1 .098.006c.007 0 .013 0 .02-.006a.46.46 0 0 1 .212.012 2.09 2.09 0 0 1 .824.872M17.231 5.05c.129-.185.193-.239.341-.221a.6.6 0 0 1 .072 0 .64.64 0 0 1 .239.021 6.47 6.47 0 0 1 2.284 1.348c.138.168.148.227.068.388a4.364 4.364 0 0 1-1.529 1.265c-.281.172-.614.37-.741.444-.148.082-.205.11-.259.074a.128.128 0 0 1-.108.01c-.065 0-.104-.05-.205-.213a.9.9 0 0 0-.278-.275.642.642 0 0 1-.293-.354c-.101-.214-.138-.257-.289-.339-.094-.051-.171-.111-.171-.145a9.22 9.22 0 0 1 .869-2.003m-5.156.053h.077a1.905 1.905 0 0 1 .754.162 3.38 3.38 0 0 0 1.153.188 4.4 4.4 0 0 1 1.107.12 6.9 6.9 0 0 1 .877.627c0 .008-.041.111-.09.228a8.5 8.5 0 0 0-.358 1.019c0 .063.273.244.51.332.128.05.158.086.264.307a1.074 1.074 0 0 0 .48.524c.193.133.252.255.316.658.018.111.035.199.05.255a14.4 14.4 0 0 1 1.391-.759l.011.01.029-.01c.012 0 .023.021.034.033a.33.33 0 0 1 .083-.033c.092.016.176.327.159.585a1.484 1.484 0 0 1-.554 1.01 3.92 3.92 0 0 1-1.219.833 11.38 11.38 0 0 1-4.105.938c-.285.017-.572.024-.858.024h-.071a12.1 12.1 0 0 1-5.008-.956c-1.035-.489-1.718-1.184-1.785-1.816-.027-.257.052-.443.389-.931a4.13 4.13 0 0 0 .477-.888c.079-.187.139-.228.679-.471a3.9 3.9 0 0 0 1.227-.822 1.522 1.522 0 0 1 .945-.484 3.7 3.7 0 0 1 .599-.056 2.23 2.23 0 0 0 1.355-.393 1.255 1.255 0 0 1 .64-.189 3 3 0 0 1 .442-.045m.004-4.102"/></svg>