<svg xmlns="http://www.w3.org/2000/svg" fill="#44739e" viewBox="0 0 24 24"><path d="m15.939 17.257.058.147.024-.284-.145.02zm-.692.357.294-.016.049-.439-.298.023zm1.498-.417.069.148.03-.284-.141.018zm-.698.353.294-.016.05-.44-.299.023zm-.92-.229.069.148.024-.282-.146.018zm-2.206.495.294-.016.049-.44-.298.024zm-.119-.294.07.147.023-.283-.144.018zm4.062-.031.294-.017.049-.439-.298.024zm-2.401.183.295-.017.049-.439-.297.025zm-.12-.293.07.148.025-.283-.145.018zm-.798.083.07.145.023-.283-.145.018zm-1.389.415.294-.015.049-.44-.298.023zm1.508-.123.294-.016.049-.44-.298.023zm1.649-2.182a.082.082 0 0 0-.066-.033l-.138.011-.063.221a.1.1 0 0 1-.067.053l-1.316.126a.06.06 0 0 1-.026 0c-.007 0-.012-.019 0-.04l.068-.236.008-.005-.227.018a.124.124 0 0 0-.107.087l-.111.535a.127.127 0 0 0 .006.094.052.052 0 0 0 .036.008l1.83-.153c.03 0 .086-.057.1-.11l.1-.492a.089.089 0 0 0-.028-.083zm-2.55-1.151a.1.1 0 0 0-.076-.035h-.008l-.2.013-.056.191a.1.1 0 0 1-.068.051l-1.315.124a.042.042 0 0 1-.027 0c-.009 0-.014-.02-.007-.04l.068-.229-.194.013a.1.1 0 0 0-.09.083l-.077.5a.106.106 0 0 0 .024.082.1.1 0 0 0 .081.032l1.753-.117a.1.1 0 0 0 .091-.076l.115-.5a.1.1 0 0 0-.016-.091zm2.761-.202a.08.08 0 0 0-.064-.028l-.217.017c0 .007.01.012.007.021l-.06.216a.1.1 0 0 1-.068.052l-1.315.126a.045.045 0 0 1-.028 0c-.01 0-.015-.019-.01-.039l.071-.236c0-.014.03-.02.053-.029l-.2.016a.124.124 0 0 0-.109.088l-.111.533a.123.123 0 0 0 .006.094c.007.01.025.01.038.01l1.831-.154c.03 0 .084-.058.1-.113l.1-.491a.086.086 0 0 0-.018-.08zm1.988 2.906.069.141.024-.282-.146.017zm.713-1.78a.068.068 0 0 0-.058-.027l-.2.012-.07.215a.1.1 0 0 1-.072.052l-1.389.1a.05.05 0 0 1-.03 0c-.007 0-.012-.019 0-.04l.073-.224-.155.011a.071.071 0 0 0-.064.053l-.1.374a.069.069 0 0 0 .012.063l.14.183a.074.074 0 0 0 .06.027l.7-.053.627-.031a.06.06 0 0 0 .037-.015l.377-.267a.08.08 0 0 0 .026-.036l.109-.328a.07.07 0 0 0-.026-.066Zm2.265-.702a.179.179 0 0 1-.141-.057.176.176 0 0 1-.04-.148l.02-.1v-.01h-.007l-.711.053-.01.007-.05.171a.175.175 0 0 1-.152.121l-.3.022a.01.01 0 0 0-.01.008l-.171.675a.083.083 0 0 0 .086.1l1.324-.09a.161.161 0 0 0 .146-.124l.154-.619v-.01l-.018-.008Zm1.292-1.082c-.224-.2-2.518-.511-6.667-.284-4.906.269-7.348 1.02-7.592 1.19a2.79 2.79 0 0 0-1.061 3.153c.02.079.121.108.2.1 1.241-.108 13-1.169 14.562-1.306a.4.4 0 0 0 .31-.187c.407-.646.677-2.289.248-2.666M8.561 16.558a.654.654 0 0 1-.459-.173.556.556 0 0 1-.171-.452.815.815 0 0 1 .8-.7.654.654 0 0 1 .5.193.56.56 0 0 1 .15.44.831.831 0 0 1-.82.692m4.19-.615-.062.478a.335.335 0 0 1-.211.231l-.013.006-1.829.141h-.01a.273.273 0 0 1-.235-.307v-.005l.087-.537a.258.258 0 0 1 .236-.221l1.758-.12a.265.265 0 0 1 .213.093.3.3 0 0 1 .074.248zm.2-1.4v.005l-.117.5a.258.258 0 0 1-.236.2l-1.754.117h-.024a.26.26 0 0 1-.26-.259.2.2 0 0 1 0-.043l.077-.5a.261.261 0 0 1 .24-.221l1.794-.118a.26.26 0 0 1 .277.241.25.25 0 0 1-.002.081zm2.2 1.877-1.83.156H13.3a.192.192 0 0 1-.152-.066.26.26 0 0 1-.041-.232l.111-.534a.285.285 0 0 1 .253-.215l1.768-.14a.24.24 0 0 1 .2.086.247.247 0 0 1 .055.215l-.1.492a.306.306 0 0 1-.246.241zm.565-2.079h-.01l-.1.492a.308.308 0 0 1-.242.241l-1.83.151h-.02a.193.193 0 0 1-.152-.064.263.263 0 0 1-.042-.233l.111-.533a.287.287 0 0 1 .253-.217l1.778-.136a.243.243 0 0 1 .261.223.26.26 0 0 1-.01.079zm2.663 1.123-.108.327a.23.23 0 0 1-.081.108l-.374.268a.223.223 0 0 1-.114.039l-.625.032-.7.053h-.017a.211.211 0 0 1-.168-.082l-.138-.181a.214.214 0 0 1-.038-.189l.1-.374a.216.216 0 0 1 .193-.157l1.846-.13a.217.217 0 0 1 .22.283zm2.41-.765-.153.619a.318.318 0 0 1-.292.244l-1.325.091H19a.243.243 0 0 1-.243-.243.24.24 0 0 1 .007-.059l.17-.674a.173.173 0 0 1 .156-.131l.3-.02a.011.011 0 0 0 .01-.009l.052-.166a.168.168 0 0 1 .15-.122l.711-.055a.175.175 0 0 1 .184.209l-.022.1v.017h.01l.126-.008a.171.171 0 0 1 .143.062.167.167 0 0 1 .041.151zm-3.158 2.719.293-.02.05-.441-.298.023zm.616-.353.07.146.024-.283-.146.018zm.12.293.293-.02.04-.442-.298.02zM8.75 15.493h-.014a.547.547 0 0 0-.538.452.29.29 0 0 0 .087.238.414.414 0 0 0 .341.094.55.55 0 0 0 .485-.449.283.283 0 0 0-.078-.228.376.376 0 0 0-.283-.107m11.52 1.741.293-.023.059-.515-.299.024zm-.163-.285.109.202.036-.429-.268.033zM12.553 15.8a.1.1 0 0 0-.076-.04h-.006l-.169.013c0 .006.01.01.007.02l-.061.236a.1.1 0 0 1-.067.056l-1.316.132a.042.042 0 0 1-.027 0c-.008 0-.012-.02-.006-.044l.068-.256a.089.089 0 0 1 .073-.043l-.257.017a.1.1 0 0 0-.088.083l-.08.536a.115.115 0 0 0 .1.131l1.778-.139a.18.18 0 0 0 .107-.107l.062-.477a.14.14 0 0 0-.04-.118Zm-5.74 2.709.249-.027.043-.565-.275.021Zm2.157-.368.293-.016.049-.441-.296.025Zm-.118-.294.068.148.024-.283-.146.018Zm3.185-.262.069.149.024-.284-.145.019zm-5.952-.609-.21-.428L2.4 9.552l.017.5 4.239 8.465.03-.58a.666.666 0 0 1-.307-.156 1.57 1.57 0 0 1-.294-.805m1.356-2.831h-.006c.569-.371 7.974-1.763 14.074-.984l-5.784-7.236c-1.418-.75-10.662-.446-12.868.229-.28.088-.508.663-.508.663A5.37 5.37 0 0 0 2 8.5c1.488 2.89 2.584 5.24 4.07 8.134a3.16 3.16 0 0 1 1.371-2.489m.916-4.719L10.833 7.2a.343.343 0 0 1 .309 0l2.574 1-.149-.2c-.035-.047 0-.085.081-.086l.59-.012a.278.278 0 0 1 .209.078l.577.725 1.153.454c.1.039.156.107.12.151a.122.122 0 0 1-.094.035l-.653.024 1.306 1.645c.046.056.013.105-.071.11l-2.835.161.329-.422.545-.028a.633.633 0 0 0 .381.116c.167-.01.238-.1.156-.212a.574.574 0 0 0-.444-.178c-.131.007-.2.066-.191.144l-.627.032-.3.388-.3-.437.366-.446 1.034-.048a.62.62 0 0 0 .372.113c.163-.008.231-.1.15-.2a.568.568 0 0 0-.431-.171c-.127 0-.2.061-.183.135l-.83.036.325-.392-.223-.3.221-.265a.56.56 0 0 0 .136.013c.158-.005.226-.087.153-.181a.555.555 0 0 0-.412-.157c-.157.005-.228.085-.157.179a.32.32 0 0 0 .085.075l-.154.177-.392-.532c.1-.028.129-.092.074-.166a.548.548 0 0 0-.4-.157c-.157 0-.231.08-.164.173a.493.493 0 0 0 .31.154l.387.528-.4-.16a.11.11 0 0 0-.026-.075.542.542 0 0 0-.415-.163c-.162 0-.238.086-.171.182a.541.541 0 0 0 .42.164.34.34 0 0 0 .114-.022l.6.241.184.25-.295.355-.174-.245c.1-.03.13-.1.074-.181a.552.552 0 0 0-.425-.168c-.164.006-.241.091-.171.191a.508.508 0 0 0 .322.166l.263.371-.285.346-1.244-1.788.239-.243a.53.53 0 0 0 .137.013c.159 0 .235-.081.169-.173a.53.53 0 0 0-.4-.157c-.158 0-.235.08-.172.17a.27.27 0 0 0 .08.071l-.223.219-.5-.2a.1.1 0 0 0-.02-.073.514.514 0 0 0-.4-.161c-.161 0-.244.082-.184.175a.518.518 0 0 0 .409.16.35.35 0 0 0 .116-.02l.563.224.849 1.254-1.032-.416-.239-.352c.1-.031.142-.1.09-.176a.525.525 0 0 0-.416-.166c-.166 0-.252.088-.19.186a.47.47 0 0 0 .315.164l.147.227-.791-.318-.203-.328c.1-.028.147-.094.1-.17a.517.517 0 0 0-.412-.164c-.165 0-.255.085-.2.181a.452.452 0 0 0 .3.16l.236.379.876.354-.364.013a.6.6 0 0 0-.37-.111c-.173 0-.263.093-.2.2a.525.525 0 0 0 .432.174c.138-.005.221-.063.218-.137l.574-.022 1.24.5.671.981-.693-.284-.251-.379c.1-.034.142-.109.086-.193a.548.548 0 0 0-.439-.178c-.171.008-.256.1-.186.206a.506.506 0 0 0 .332.175l.158.247-.991-.4a.116.116 0 0 0-.02-.085.534.534 0 0 0-.442-.179c-.173.007-.264.1-.2.207a.533.533 0 0 0 .441.183.4.4 0 0 0 .128-.027l.994.408-.379.02a.6.6 0 0 0-.386-.117c-.178.008-.269.106-.2.218a.538.538 0 0 0 .454.18c.14-.007.226-.07.218-.151l.592-.03.844.351-3.037.171a.273.273 0 0 1-.238-.1l-1-1.782-.754.024a.311.311 0 0 1-.264-.111.067.067 0 0 1 .014-.08Zm6.829 1.316c.03.044 0 .082-.064.085a.229.229 0 0 1-.181-.072c-.031-.043 0-.081.065-.085a.231.231 0 0 1 .18.072m-.121-.7a.224.224 0 0 1 .174.07c.032.04 0 .076-.061.08a.221.221 0 0 1-.174-.07c-.032-.045-.004-.081.061-.083Zm-.813-1.116a.22.22 0 0 1 .167.065c.029.038 0 .071-.061.073a.22.22 0 0 1-.168-.066c-.029-.044 0-.075.062-.075zm-.852-.291a.216.216 0 0 1-.165-.065c-.028-.037 0-.068.064-.07a.23.23 0 0 1 .165.064c.026.036-.001.07-.064.071m-.314.465a.215.215 0 0 1-.167-.067c-.028-.04 0-.071.067-.073a.223.223 0 0 1 .168.065c.027.041-.006.075-.069.075Zm.345.589h-.006a.221.221 0 0 1-.173-.069c-.028-.04 0-.075.068-.077a.215.215 0 0 1 .171.068c.029.04-.001.075-.061.078Zm-.924-1.373c.027.038 0 .069-.067.07a.21.21 0 0 1-.163-.064c-.026-.037 0-.068.068-.07a.212.212 0 0 1 .161.064zm-1.239.033c.025.037-.007.071-.074.071a.212.212 0 0 1-.163-.065c-.025-.039.01-.071.074-.071a.213.213 0 0 1 .162.065zm.178.7c.026.037-.005.075-.075.075a.22.22 0 0 1-.169-.068c-.025-.04.008-.073.076-.075a.207.207 0 0 1 .167.068zm-1.046-.41c.025.036-.01.069-.078.071a.21.21 0 0 1-.166-.067c-.024-.038.01-.071.079-.073a.2.2 0 0 1 .165.069m.492.985c.026.04-.009.075-.079.078a.216.216 0 0 1-.173-.07c-.025-.042.01-.077.079-.08a.21.21 0 0 1 .173.072m1.578.752a.22.22 0 0 1-.177-.072c-.028-.043 0-.08.074-.083a.213.213 0 0 1 .176.072c.03.043-.004.081-.073.083m-1.065-.121c.027.04-.007.074-.078.08h-.01a.215.215 0 0 1-.177-.072c-.016-.043.02-.081.09-.084a.215.215 0 0 1 .175.076m.594.676c.03.04-.005.08-.078.081v.011a.219.219 0 0 1-.181-.074c-.028-.047.007-.086.08-.089a.218.218 0 0 1 .18.071Zm-1.573 6.798.068.146.023-.284-.145.018zm.925.211.293-.017.049-.439-.297.023zm-1.693-.151.069.146.022-.284-.145.018zm1.572-.143.071.148.024-.283-.145.018zm-1.454.435.294-.016.049-.44-.298.022zm.769-.059.293-.016.049-.439-.297.023z"/></svg>