<svg xmlns="http://www.w3.org/2000/svg" viewBox="0 0 24 24"><path fill="#44739e" d="M17.134 8.01v-.016c0-.012-.008-.033-.01-.04a2 2 0 0 1-.017-.065 14.9 14.9 0 0 0-.782-2.395 7 7 0 0 0-.44-.88 6.7 6.7 0 0 0-1.25-1.546 4.14 4.14 0 0 0-1.509-.99 5.67 5.67 0 0 0-.948-.183c-.151-.017-.251-.028-.307-.028h-.007c-.057 0-.156.011-.307.028a5.6 5.6 0 0 0-.948.183 4.14 4.14 0 0 0-1.51.99 6.73 6.73 0 0 0-1.251 1.547 7.4 7.4 0 0 0-.44.88 14.9 14.9 0 0 0-.782 2.395l-.016.065a.3.3 0 0 0-.01.04v.016c-.018.075-.075.33-.102.47v.008c.42-.067 2.102-.33 2.971-.422a17.6 17.6 0 0 1 2.33-.143h.125a17.6 17.6 0 0 1 2.33.143c.874.091 2.557.355 2.977.422v-.006c-.022-.144-.081-.398-.097-.473m1.129-4.128a7.39 7.39 0 0 0-2.247-1.864 3.3 3.3 0 0 0-.637-.2 1.6 1.6 0 0 0-.422-.037 1.34 1.34 0 0 0-.558.172 1.9 1.9 0 0 0-.44.359 6.8 6.8 0 0 1 .786.642 6.87 6.87 0 0 1 1.282 1.583 7.5 7.5 0 0 1 .44.897 15.2 15.2 0 0 1 .79 2.421l.013.052a.6.6 0 0 1 .013.057v.013c.01.046.029.124.048.209l.021.006a2.2 2.2 0 0 0 .362.101 1.14 1.14 0 0 0 .402 0h.037a1.023 1.023 0 0 0 .499-.213 2.25 2.25 0 0 0 .503-.528 3.3 3.3 0 0 0 .4-.626 8.02 8.02 0 0 0-1.292-3.044m-10.557.655a6.87 6.87 0 0 1 1.281-1.583 5.74 5.74 0 0 1 1.037-.798 1.92 1.92 0 0 0-.416-.33 1.34 1.34 0 0 0-.558-.172 1.54 1.54 0 0 0-.421.037 3.3 3.3 0 0 0-.637.201 7.37 7.37 0 0 0-2.245 1.859 8.03 8.03 0 0 0-1.302 3.035 3.3 3.3 0 0 0 .4.627 2.3 2.3 0 0 0 .503.528 1.007 1.007 0 0 0 .495.212l.036.006a1.13 1.13 0 0 0 .403 0 .8.8 0 0 0 .119-.025c.014-.064.027-.121.036-.157v-.013c0-.024.01-.042.014-.057l.014-.052a15.04 15.04 0 0 1 .79-2.421 7.3 7.3 0 0 1 .451-.897m2.428-2.436a2.64 2.64 0 0 1 .423-.17 5.9 5.9 0 0 1 .978-.188c.162-.019.259-.028.324-.03h.011c.063 0 .161.011.323.03a5.9 5.9 0 0 1 .978.188 2.82 2.82 0 0 1 .684.318 1.97 1.97 0 0 1 .481-.395l.038-.021A3.61 3.61 0 0 0 12.014 1h-.139a4 4 0 0 0-2.159.741 2.06 2.06 0 0 1 .418.36m6.224 19.098-.041-.065s-.147-.241-.351-.583a8.5 8.5 0 0 1-.584-1.321c-.121-.316-.274-.718-.471-1.33a14.6 14.6 0 0 1-.66-2.451c-.099-.691-.298-1.37-.346-2.066a.7.7 0 0 0-.072-.275.83.83 0 0 0-.132-.179v-1.341a.372.372 0 0 0-.33-.363 1.09 1.09 0 0 0 .042-.321V9.329a.412.412 0 0 0-.254-.415 1.5 1.5 0 0 0 .017-.23v-.559l-.164-.012v.571c0 .55-.259.609-.452.609h-.971c-.33 0-.497-.194-.497-.578v-.624l-.164.009v.615a1.13 1.13 0 0 0 .018.21.486.486 0 0 0-.258.466v1.54a.88.88 0 0 0 .052.312.419.419 0 0 0-.284.392v1.23a.415.415 0 0 0-.158.165.35.35 0 0 0-.026.115 1.7 1.7 0 0 0-.02.314 11.6 11.6 0 0 1-.286 1.785c-.092.44-.154.733-.259 1.145a23.9 23.9 0 0 1-.816 2.52 9.46 9.46 0 0 1-.544 1.286c-.029.056-.22.367-.492.812-.073.121-.129.212-.171.279a.55.55 0 0 0-.207.394c0 .73 2.06 1.32 4.599 1.32s4.6-.593 4.6-1.32a.636.636 0 0 0-.318-.481M10.856 9.391a.364.364 0 0 1 .14-.311.58.58 0 0 0 .142.211.654.654 0 0 0 .457.16h.96a.568.568 0 0 0 .44-.175.59.59 0 0 0 .119-.208.285.285 0 0 1 .128.261v1.575a.627.627 0 0 1-.162.482.594.594 0 0 1-.414.126h-1.185c-.418 0-.63-.195-.63-.578Zm2.684 3.502c0 .211-.073.491-.708.491h-1.43c-.353 0-.77-.08-.77-.464v-1.28a.263.263 0 0 1 .197-.251.56.56 0 0 0 .123.126.88.88 0 0 0 .542.156h1.193a.76.76 0 0 0 .525-.169.52.52 0 0 0 .09-.11l.044-.016a.212.212 0 0 1 .202.208Z"/></svg>