<svg xmlns="http://www.w3.org/2000/svg" viewBox="0 0 24 24"><path fill="#44739e" d="M6.059 7.994c.695-.091 1.73-.151 2.415-.191.2-.011.374-.022.487-.029.925-.065 1.892-.11 3.601-.124h.397a12.65 12.65 0 0 1 2.893.348l.029.007a4.04 4.04 0 0 1 1.081.355c.22.11.463.25.66.363a6.9 6.9 0 0 1-.371-.802 7.7 7.7 0 0 0-.346-.756c-.389-.699-.742-1.482-1.151-2.388-.269-.591-.571-1.262-.924-1.997a1.8 1.8 0 0 0-.08-.15 2.183 2.183 0 0 0-.87-.777 9.55 9.55 0 0 0-2.894-.785 15.7 15.7 0 0 0-1.915-.062 17.5 17.5 0 0 0-2.188.244c-.053.01-.131.027-.203.046a1.2 1.2 0 0 0-.213.068.8.8 0 0 0-.154.095.19.19 0 0 0-.057.065l-.009.023c-.022.11-.092 1.932-.154 3.538-.077 1.963-.11 2.727-.125 2.926.016 0 .041 0 .076-.011ZM17.927 9.39l-.127-.275a.67.67 0 0 0-.202-.262c-.196-.116-.454-.263-.689-.384a4 4 0 0 0-1.051-.344l-.029-.007c-.285-.063-.55-.11-.788-.155l1.35 6.008 1.119-2.209a7.6 7.6 0 0 0 .471-1.421l.033-.182a1.43 1.43 0 0 0-.087-.769M13.095 23l3.481-.85-2.739-.31Zm.527-14.644-.664 14.621.784-1.221Zm.22-.549-.039 6.728.063 7.016 2.304-7.218-1.394-6.414c-.356-.056-.663-.09-.934-.112M7.164 21.73h5.724l.594-13.095Zm4.221-11.766a1.88 1.88 0 0 0 1.1.453L13.5 8.314l.024-.527c-.33-.016-.598-.013-.834-.011h-.119c-1.706.012-2.671.058-3.593.123-.11.008-.288.019-.49.03-.682.039-1.714.1-2.405.189H6.07c-.019 0-.039.008-.06.01.115.137.432.176.908.233a9.82 9.82 0 0 1 3.124.826 8.66 8.66 0 0 1 1.343.777m3.657-1.418.091.419.003-.002Z"/></svg>