<svg xmlns="http://www.w3.org/2000/svg" fill="#44739e" viewBox="0 0 24 24"><path d="M6.6 8.36c.632-.082 1.572-.137 2.195-.173.182-.01.34-.02.443-.027.84-.059 1.719-.1 3.273-.112h.361a11.5 11.5 0 0 1 2.629.316l.027.006a3.67 3.67 0 0 1 .982.323c.2.1.421.227.6.33a6.3 6.3 0 0 1-.337-.729 7 7 0 0 0-.315-.687c-.353-.636-.674-1.347-1.046-2.171-.244-.537-.519-1.147-.84-1.815a1.6 1.6 0 0 0-.072-.136 1.984 1.984 0 0 0-.791-.707 8.68 8.68 0 0 0-2.631-.713 14.3 14.3 0 0 0-1.74-.056 15.9 15.9 0 0 0-1.989.221c-.048.009-.119.025-.185.042a1.1 1.1 0 0 0-.193.062.73.73 0 0 0-.14.086.17.17 0 0 0-.052.059l-.008.021c-.02.1-.084 1.756-.14 3.216-.07 1.784-.1 2.479-.114 2.66.015 0 .037 0 .069-.01zm10.787 1.269-.115-.25a.61.61 0 0 0-.184-.238c-.178-.105-.412-.239-.626-.349a3.64 3.64 0 0 0-.955-.313l-.027-.006c-.259-.057-.5-.1-.716-.141l1.227 5.461 1.017-2.008a6.9 6.9 0 0 0 .428-1.291l.03-.166a1.3 1.3 0 0 0-.079-.699M12.995 22l3.164-.773-2.489-.281Zm.479-13.311-.603 13.29.712-1.11zm.2-.499-.035 6.116.057 6.377 2.094-6.561-1.267-5.83c-.323-.051-.602-.082-.849-.102m-6.07 12.656h5.203l.54-11.903zm3.837-10.695a1.71 1.71 0 0 0 1 .412l.922-1.912.022-.479c-.3-.014-.543-.012-.758-.01h-.108c-1.551.011-2.428.053-3.266.112-.1.007-.262.017-.445.027-.62.036-1.558.091-2.186.172H6.61c-.017 0-.036.007-.055.009.105.125.393.16.826.212a8.93 8.93 0 0 1 2.839.751 7.87 7.87 0 0 1 1.221.706m3.324-1.289.083.381.002-.002z"/></svg>