<svg xmlns="http://www.w3.org/2000/svg" fill="#44739e" viewBox="0 0 24 24"><path d="M16.661 8.37v-.014c0-.011-.007-.03-.009-.037a2 2 0 0 1-.015-.059 13.54 13.54 0 0 0-.711-2.176 6.4 6.4 0 0 0-.4-.8 6.09 6.09 0 0 0-1.136-1.405 3.76 3.76 0 0 0-1.371-.9 5.15 5.15 0 0 0-.862-.166c-.137-.015-.228-.025-.279-.025h-.006c-.052 0-.142.01-.279.025a5.1 5.1 0 0 0-.862.166 3.76 3.76 0 0 0-1.372.9 6.12 6.12 0 0 0-1.137 1.406 6.7 6.7 0 0 0-.4.8 13.56 13.56 0 0 0-.71 2.176c-.01.041-.013.052-.015.059a.25.25 0 0 0-.009.037v.014c-.016.068-.068.3-.093.427v.008c.382-.061 1.911-.3 2.7-.384a16 16 0 0 1 2.118-.13h.113a16 16 0 0 1 2.118.13c.794.083 2.324.323 2.705.384V8.8c-.02-.131-.073-.362-.088-.43m1.026-3.751a6.715 6.715 0 0 0-2.042-1.694 3 3 0 0 0-.579-.182 1.44 1.44 0 0 0-.383-.034 1.22 1.22 0 0 0-.507.157 1.72 1.72 0 0 0-.4.326 6.2 6.2 0 0 1 .714.583 6.24 6.24 0 0 1 1.165 1.439 6.8 6.8 0 0 1 .4.815 13.8 13.8 0 0 1 .718 2.2l.012.048a.5.5 0 0 1 .012.051v.012c.009.042.026.113.043.19l.019.006a2 2 0 0 0 .329.091 1.04 1.04 0 0 0 .366 0h.033a.93.93 0 0 0 .454-.193 2.04 2.04 0 0 0 .457-.48 3 3 0 0 0 .363-.569 7.29 7.29 0 0 0-1.174-2.766m-9.594.595a6.24 6.24 0 0 1 1.164-1.439 5.22 5.22 0 0 1 .943-.725 1.74 1.74 0 0 0-.378-.3 1.22 1.22 0 0 0-.507-.156 1.4 1.4 0 0 0-.383.034 3 3 0 0 0-.579.182 6.7 6.7 0 0 0-2.04 1.69A7.3 7.3 0 0 0 5.13 7.258a3 3 0 0 0 .363.57 2.09 2.09 0 0 0 .457.48.915.915 0 0 0 .45.192l.033.006a1.03 1.03 0 0 0 .366 0 .7.7 0 0 0 .108-.023c.013-.058.025-.11.033-.143v-.012c0-.021.009-.038.013-.051l.012-.048a13.67 13.67 0 0 1 .718-2.2 6.6 6.6 0 0 1 .41-.815M10.3 3a2.4 2.4 0 0 1 .384-.154 5.36 5.36 0 0 1 .889-.171c.147-.017.235-.026.294-.027h.01c.058 0 .147.01.294.027a5.36 5.36 0 0 1 .889.171 2.56 2.56 0 0 1 .621.289 1.79 1.79 0 0 1 .437-.359l.035-.019A3.282 3.282 0 0 0 12.008 2h-.126a3.633 3.633 0 0 0-1.962.673A1.87 1.87 0 0 1 10.3 3m5.656 17.356-.037-.059s-.134-.219-.319-.53a7.7 7.7 0 0 1-.531-1.2c-.11-.287-.249-.653-.428-1.209a13.26 13.26 0 0 1-.6-2.227c-.09-.628-.271-1.245-.314-1.878a.64.64 0 0 0-.066-.25.75.75 0 0 0-.12-.162v-1.219a.338.338 0 0 0-.3-.33.99.99 0 0 0 .039-.292V9.569a.374.374 0 0 0-.231-.377 1.34 1.34 0 0 0 .015-.209v-.508l-.149-.011v.519c0 .5-.235.553-.411.553h-.882c-.3 0-.452-.176-.452-.525v-.567l-.149.008v.559a1.03 1.03 0 0 0 .017.191.442.442 0 0 0-.235.423v1.4a.8.8 0 0 0 .047.283.381.381 0 0 0-.258.357v1.117a.377.377 0 0 0-.143.15.32.32 0 0 0-.024.105 1.54 1.54 0 0 0-.018.285 10.55 10.55 0 0 1-.26 1.622c-.084.4-.14.667-.235 1.041a21.7 21.7 0 0 1-.742 2.29 8.6 8.6 0 0 1-.494 1.169c-.027.051-.2.333-.447.738-.067.11-.118.192-.156.253a.5.5 0 0 0-.188.358c0 .664 1.872 1.2 4.18 1.2s4.18-.539 4.18-1.2a.578.578 0 0 0-.289-.437m-5-10.731a.331.331 0 0 1 .127-.282.53.53 0 0 0 .129.191.594.594 0 0 0 .415.146h.873a.516.516 0 0 0 .4-.159.54.54 0 0 0 .108-.189.259.259 0 0 1 .116.237V11a.57.57 0 0 1-.147.438.54.54 0 0 1-.376.115h-1.077c-.38 0-.573-.177-.573-.525zm2.439 3.183c0 .192-.066.446-.643.446h-1.3c-.321 0-.7-.073-.7-.422v-1.163a.239.239 0 0 1 .179-.228.51.51 0 0 0 .112.115.8.8 0 0 0 .493.141h1.084a.69.69 0 0 0 .477-.153.47.47 0 0 0 .082-.1l.04-.015a.193.193 0 0 1 .183.189z"/></svg>