<svg xmlns="http://www.w3.org/2000/svg" fill="#44739e" viewBox="0 0 24 24"><path d="M17.3792 10.7693a1.728 1.728 0 1 0 1.712 1.749 1.726 1.726 0 0 0-1.712-1.749m-.015 3.084a1.357 1.357 0 1 1 1.353-1.36 1.354 1.354 0 0 1-1.353 1.36m-5.378-.633h-.938v1.149h.938a.582.582 0 0 0 0-1.149m0-2.545h-.938v1.134h.938a.573.573 0 0 0 0-1.134m8.052-8.174H4.2332a1.784 1.784 0 0 0-1.789 1.784v15.811a1.783 1.783 0 0 0 1.789 1.783h15.81a1.783 1.783 0 0 0 1.784-1.783V4.2853a1.784 1.784 0 0 0-1.789-1.784m-11.128 13.446h-1.84v-2.629h-1.193v2.629h-1.891v-6.781h1.888v2.531h1.192v-2.531h1.844zm8.454.029a3.456 3.456 0 0 1-3.112-1.941 2.037 2.037 0 0 1-2.033 1.912h-2.931v-6.785h3.145a1.978 1.978 0 0 1 1.815 1.844 3.438 3.438 0 0 1 6.541 1.487 3.468 3.468 0 0 1-3.425 3.483m-4.138-3.483a1.415 1.415 0 0 1 .709.524 2.9 2.9 0 0 1 0-.939 1.445 1.445 0 0 1-.709.415"/></svg>