<svg xmlns="http://www.w3.org/2000/svg" viewBox="0 0 24 24"><path fill="#44739e" d="M17.951 10.387a1.961 1.961 0 1 0 1.944 1.985 1.959 1.959 0 0 0-1.944-1.985m-.017 3.501a1.54 1.54 0 1 1 1.536-1.544 1.537 1.537 0 0 1-1.536 1.544m-6.104-.719h-1.064v1.304h1.064a.661.661 0 0 0 0-1.304m0-2.889h-1.064v1.288h1.064a.65.65 0 0 0 0-1.288m9.139-9.277H3.031A2.025 2.025 0 0 0 1 3.028v17.945a2.024 2.024 0 0 0 2.031 2.024h17.944A2.024 2.024 0 0 0 23 20.973V3.028a2.025 2.025 0 0 0-2.031-2.025M8.339 16.264H6.251V13.28H4.897v2.984H2.75V8.568h2.143v2.872h1.353V8.568h2.093Zm9.595.033a3.923 3.923 0 0 1-3.532-2.203 2.312 2.312 0 0 1-2.307 2.17H8.768V8.563h3.57a2.245 2.245 0 0 1 2.06 2.093 3.902 3.902 0 0 1 7.424 1.688 3.936 3.936 0 0 1-3.888 3.953m-4.696-3.953a1.606 1.606 0 0 1 .804.595 3.29 3.29 0 0 1 0-1.066 1.64 1.64 0 0 1-.804.471"/></svg>