<svg xmlns="http://www.w3.org/2000/svg" viewBox="0 0 24 24"><path fill="#44739e" d="M11.535 20.914v.206l1.011.171.673-.388v-.315l-1.017-.139Zm1.391-18.846v-.596l-.774-.146-.544.009v.597l.526.013ZM9.715 1.021a.22.22 0 0 0-.22.22V22.78a.22.22 0 0 0 .44 0V1.242a.22.22 0 0 0-.22-.221m1.722.514-1.33-.06v.248l1.33.041Zm3.146 18.126v-.115a.037.037 0 0 0-.019-.033.033.033 0 0 0-.019 0 .04.04 0 0 0-.018 0l-1.495.88.289.038 1.243-.731a.037.037 0 0 0 .019-.039m-4.476 2.442v.223l1.677-.99-.286-.049ZM16.826 1h.817v21.206h-.817ZM8.293 20.064a.145.145 0 0 0-.092.034.143.143 0 0 0-.048.11v.076c0 .032.006.036.033.046a1.07 1.07 0 0 0 .234.055l.904.116v-.304l-1.013-.127Zm3.526.443-1.712-.215v.304l1.339.171Zm1.571.495-.018.011 3.325.425v-.315l-3.307-.417ZM18.599 3.86v-.367a.031.031 0 0 0-.026-.03l-.318-.044h-.479v.486l.793-.012a.031.031 0 0 0 .03-.033m-4.426-.431a.026.026 0 0 0-.008.022l.02.451a.031.031 0 0 0 .026.028l.252.023 2.234-.033v-.5h-2.498a.027.027 0 0 0-.026.009m-.112 13.273.02.31a.11.11 0 0 0 .099.099l.243.016a.1.1 0 0 0 .051-.01l2.223-1.003v-.608l-2.572 1.092a.11.11 0 0 0-.064.104m4.391-1.927h-.011a.11.11 0 0 0-.042.009l-.627.266v.58l.841-.38a.11.11 0 0 0 .062-.096v-.258a.11.11 0 0 0-.095-.11Zm-4.382-4.556v.392a.084.084 0 0 0 .055.078l.136.047a.077.077 0 0 0 .047 0l2.389-.606v-.597l-2.564.607a.081.081 0 0 0-.063.079m4.559-1.043-.25-.036h-.03l-.575.135v.582l.866-.22a.082.082 0 0 0 .062-.08v-.299a.082.082 0 0 0-.073-.082M7.894 1.66a.137.137 0 0 0-.032.11l.011.075c0 .032.01.035.039.042a1.05 1.05 0 0 0 .237.015l1.175-.022v-.299l-1.327.024a.137.137 0 0 0-.103.055m5.204.158 3.599-.06v-.313l-3.599.066Zm-2.991.033v.018l.357-.007ZM6.341 15.843a.132.132 0 0 0 .123.141l2.86.206v-.265l-2.842-.205a.133.133 0 0 0-.141.123m7.735.637.428-.182-4.4-.316v.265l3.897.281a.22.22 0 0 1 .075-.048m-6.637-1.014a.128.128 0 0 0-.127.121v.007a.129.129 0 0 0 .121.136l1.892.121v-.265l-1.87-.12Zm7.801.519a.13.13 0 0 0-.072-.027l-5.06-.323v.266l4.638.294Zm.774-.329-5.907-.376v.265l5.365.341Zm-7.587-.483a.128.128 0 0 0-.084.033.124.124 0 0 0-.044.088v.006a.129.129 0 0 0 .119.136l.906.059v-.265l-.888-.057Zm8.152.244-6.472-.413v.233l5.995.382Zm-7.427-.472a.13.13 0 0 0-.085.032.128.128 0 0 0-.042.088v.006a.13.13 0 0 0 .038.1l.262.017v-.233l-.163-.01Zm.955-.007 6.59.419v-.265l-6.59-.419Zm.42-.507a.124.124 0 0 0-.044.088v.011a.127.127 0 0 0 .11.133l6.11.389v-.264l-6.078-.386a.124.124 0 0 0-.098.029m7.245.422v.056l.114-.048Zm-3.83-4.617-3.835-.167v.264l3.835.168Zm-7.988-.216a.132.132 0 0 0 .127.137l3.243.141v-.264l-3.232-.139a.133.133 0 0 0-.138.125m8.149 0 .185-.044-4.18-.119v.175l3.837.166a.21.21 0 0 1 .158-.178M6.994 9.8a.127.127 0 0 0-.04.088l2.37.103v-.162l-2.238-.063a.13.13 0 0 0-.092.034m8.035-.004-4.922-.141v.154l4.343.123Zm-7.055-.073v.025l1.35.039v-.154l-1.218-.034a.128.128 0 0 0-.132.124m.817-.293a.125.125 0 0 0-.04.091v.006a.14.14 0 0 0 .007.047l.566.016v-.183l-.44-.012a.12.12 0 0 0-.093.035m7.09.164-5.774-.164v.182l5.085.145Zm.774-.183-6.548-.186v.162l5.936.169Zm-6.138-.312a.125.125 0 0 0-.04.09l6.22.176v-.132l-6.087-.172a.125.125 0 0 0-.093.038M5.893 3.773a.132.132 0 0 0-.038.095.134.134 0 0 0 .136.129l3.333-.066v-.265l-3.339.066a.132.132 0 0 0-.092.041m8.149-.199-3.935.077v.265l3.946-.078Zm-7.423.484a.13.13 0 0 0 .094.037l2.611-.051V3.97l-2.727.054a.11.11 0 0 0 .022.034m7.437-.151v-.026l-3.949.078v.069l3.96-.078a.14.14 0 0 1-.011-.043M5.44 15.946l.019.28a.172.172 0 0 0 .171.159h.163a.18.18 0 0 0 .053-.008l.99-.322-.38-.028a.17.17 0 0 1-.12-.06.167.167 0 0 1-.042-.127.175.175 0 0 1 .187-.163l.852.062a.17.17 0 0 1-.07-.148v-.007a.173.173 0 0 1 .182-.161l1.12.072h.01l-.164-.011a.172.172 0 0 1-.152-.184v-.008a.169.169 0 0 1 .181-.159l.567.035a.165.165 0 0 1-.023-.098v-.007a.172.172 0 0 1 .182-.16l.16.01v-.303L5.56 15.77a.172.172 0 0 0-.12.176m5-1.423v-.006a.172.172 0 0 1 .059-.118.167.167 0 0 1 .124-.043l.404.025v-.027a.172.172 0 0 0-.11-.127l-.101-.039a.167.167 0 0 0-.11 0l-.596.184v.262l.383.025a.172.172 0 0 1-.053-.136m-.006-5.335a.173.173 0 0 1 .177-.167l.295.009v-.028a.052.052 0 0 0-.051-.05h-.241l-.507.077v.152l.33.009Zm-5.006.599v.364a.052.052 0 0 0 .05.05h.149l.33-.053a.175.175 0 0 1 .134-.296l.817.035a.165.165 0 0 1 .053-.117.17.17 0 0 1 .123-.047l.844.024v-.025a.169.169 0 0 1 .176-.166l.606.016a.22.22 0 0 1-.006-.046V9.52a.173.173 0 0 1 .178-.168l.44.012V9.15l-3.85.587a.049.049 0 0 0-.044.05m3.896-5.593v-.107l-2.38.047Zm-3.657-.093.978.025a.176.176 0 0 1-.098-.097l-.558.011a.176.176 0 0 1-.175-.171.177.177 0 0 1 .171-.179l1.782-.036-2.178-.116h-.26a.031.031 0 0 0-.031.029v.55a.029.029 0 0 0 .011.024.033.033 0 0 0 .024.007l.319-.044Zm5.044.119a.03.03 0 0 0 .009-.021v-.14l-.613.012v.143l.582.015a.03.03 0 0 0 .022-.009M7.202 21.204h.947v-.801a.118.118 0 0 1-.08-.123v-.076a.227.227 0 0 1 .08-.174v-3.883l-.946-.067ZM8.149 1.99h-.022a1.07 1.07 0 0 1-.232-.023.117.117 0 0 1-.11-.11l-.011-.075a.22.22 0 0 1 .05-.178.227.227 0 0 1 .169-.079h.152v-.274h-.946v2.288l.946.05Zm-.947 2.235v5.161l.946-.144V4.249Zm0 6.026v4.922l.946-.291v-4.59Zm7.27-6.169v5.049l.352.01V4.078Zm0 6.748v3.771l.352.022V10.74Zm.117 5.431.068-.028-.185-.012v.032Zm-.117-14.383h.352V3.29h-.352Zm.158 17.932-.158.093v.347a.176.176 0 0 0 .352 0v-3.149l-.297.134a.24.24 0 0 1-.055.016v2.147a.161.161 0 0 1 .156 0 .163.163 0 0 1 .084.144v.115a.166.166 0 0 1-.082.153m-.159-3.933h.353v.005h-.353Z"/></svg>