<svg xmlns="http://www.w3.org/2000/svg" viewBox="0 0 24 24"><path fill="#44739e" d="M18.438 11.28h-.555v.688h.51c.23 0 .489-.142.489-.33a.398.398 0 0 0-.444-.358m-.009 1.243h-.557v.598h.452c.227 0 .439-.115.439-.306a.302.302 0 0 0-.334-.292m.992-3.407H4.579a2.884 2.884 0 0 0 0 5.766h14.846a2.884 2.884 0 0 0 0-5.766ZM7.962 13.67H6.623l-.043-1.134H5.567l-.018 1.114H4.163l-.167-3.251h1.633l-.043 1.47h.99l-.062-1.45h1.595Zm1.66-1.154h-.981l-.021-.605h1.002Zm4.587-1.181h-2.431v.55h1.746l-.021.647h-1.749v.55h2.374l-.022.601h-3.774l-.149-3.252h4.069Zm1.484 1.201h-.961v-.625h.961Zm4.015-.269a.55.55 0 0 1 .485.62c0 .783-.742.828-1.138.828h-2.64l-.147-3.274h3.072a.955.955 0 0 1 1.057.935.83.83 0 0 1-.688.867Zm2.243-2.798a3.552 3.552 0 0 0-2.53-1.045H4.579A3.58 3.58 0 0 0 1 11.999a3.584 3.584 0 0 0 3.578 3.577h14.846a3.579 3.579 0 0 0 2.53-6.107Zm-.265 4.796a3.19 3.19 0 0 1-2.265.938H4.579a3.204 3.204 0 1 1 0-6.406h14.846a3.201 3.201 0 0 1 2.265 5.468Z"/></svg>