<svg xmlns="http://www.w3.org/2000/svg" viewBox="0 0 24 24"><path fill="#44739e" d="M14.929 6.72a1.645 1.645 0 0 1 2.326 2.325 1.63 1.63 0 0 1-1.391.468h-.08a.85.85 0 0 0-.466.068.872.872 0 0 0-.44.479.832.832 0 0 0 .023.639 3.157 3.157 0 0 1-4.18 4.18.803.803 0 0 0-.65-.023.834.834 0 0 0-.477.444.91.91 0 0 0-.079.421v.081a1.642 1.642 0 0 1-2.782 1.43 1.628 1.628 0 0 1-.478-1.162 1.65 1.65 0 0 1 .478-1.163 1.631 1.631 0 0 1 1.392-.466h.025a.9.9 0 0 0 .172.022.76.76 0 0 0 .353-.079.823.823 0 0 0 .433-.468.84.84 0 0 0-.023-.66 3.156 3.156 0 0 1 4.18-4.18.812.812 0 0 0 .65.023.894.894 0 0 0 .479-.433.88.88 0 0 0 .068-.514 1.665 1.665 0 0 1 .467-1.432m-1.63 6.566a1.822 1.822 0 1 0-2.576 0 1.829 1.829 0 0 0 2.576.002ZM12 1A11 11 0 1 1 1 12 11 11 0 0 1 12 1m5.859 8.664a2.49 2.49 0 1 0-3.52-3.52 2.563 2.563 0 0 0-.683 1.265A4.832 4.832 0 0 0 7.43 13.65a2.464 2.464 0 0 0-1.278.683 2.49 2.49 0 1 0 4.207 2.234 4.79 4.79 0 0 0 1.686.308 4.84 4.84 0 0 0 4.549-6.519 2.783 2.783 0 0 0 1.265-.692"/></svg>