<svg xmlns="http://www.w3.org/2000/svg" viewBox="0 0 24 24"><path fill="#44739e" d="M16.026 5.436h-.033v12.923a2.359 2.359 0 0 0 2.33-2.349V7.786a2.326 2.326 0 0 0-2.297-2.35m3.275 5.114v2.808a1.13 1.13 0 0 0 1.123-1.123v-.562a1.123 1.123 0 0 0-1.123-1.123m-6.14 2.19h-2.258a1.131 1.131 0 0 0-1.124 1.123v6.74a2.246 2.246 0 1 0 4.483 0v-6.74a1.111 1.111 0 0 0-1.101-1.123m-9.585-1.064v.562a1.131 1.131 0 0 0 1.123 1.123v-2.808a1.123 1.123 0 0 0-1.123 1.123M1.329 9.978v3.947a1.131 1.131 0 0 0 1.123 1.123V8.871a1.117 1.117 0 0 0-1.123 1.107m4.453-2.195v8.274a2.334 2.334 0 0 0 2.278 2.359V5.462a2.302 2.302 0 0 0-2.278 2.321m15.781 1.082h-.015v6.178a1.13 1.13 0 0 0 1.123-1.123V9.988a1.123 1.123 0 0 0-1.108-1.123m-10.686 2.244h2.246a1.131 1.131 0 0 0 1.123-1.123v-6.74A2.246 2.246 0 0 0 12 1h-.006a2.246 2.246 0 0 0-2.24 2.246v6.74a1.131 1.131 0 0 0 1.123 1.123"/></svg>