<svg xmlns="http://www.w3.org/2000/svg" viewBox="0 0 24 24"><path fill="#44739e" d="M13.156 11.999c-.069.068 0 .128.153.128s.253-.073.171-.132a.517.517 0 0 0-.324.004m.619 0c-.069.068 0 .128.153.128s.239-.06.18-.13a.517.517 0 0 0-.333.002m.618 0c-.066.066.012.126.163.126s.229-.061.171-.129a.506.506 0 0 0-.334.003m.765 2.152a.265.265 0 0 0-.11.346.258.258 0 1 0 .11-.346m.204.306a.111.111 0 0 1-.186-.124.11.11 0 0 1 .193-.022.099.099 0 0 1-.007.146M8.537 6.918v.419c0 .511 0 .511.158.55l.046.009.008 2.249c.008 2.425.007 2.397.099 2.672.235.704.797.857 3.155.857s2.918-.154 3.147-.844c.101-.303.099-.237.11-2.685l.006-2.247.064-.018c.14-.04.141-.045.141-.534a2.3 2.3 0 0 1 .019-.452c.011-.021.165-.262.342-.537l1.32-2.287a1.238 1.238 0 0 0-.311-1.183c-.365-.369-.807-.41-2.548-.24a19.52 19.52 0 0 1-4.581 0 9.05 9.05 0 0 0-1.771-.085 1.136 1.136 0 0 0-1.127 1.03c-.066.486.11.83 1.46 2.921Zm2.606 6.597c-1.804-.038-2.179-.244-2.252-1.237l-.011-.15.053-.011a.073.073 0 0 0-.01-.144h-.041V9.931c0-2.298-.014-2.09.131-1.989.104.075.895.936 1.562 1.703l.273.369a1.36 1.36 0 0 0 .176.804 1.924 1.924 0 0 1 .209.871l.01.279h-.042c-.121 0-.11.088.015.165a1.9 1.9 0 0 1-.032.22c-.059.348-.027.482.154.635.073.06.086.081.095.151a.51.51 0 0 0 .137.317l.072.069Zm-.008-2.789a1.254 1.254 0 0 1-.159-.573c.011-.031.048.01.237.261a1.76 1.76 0 0 1 .318 1.301l-.064.912c-.034.27-.029.257-.086.204-.103-.095-.11-.169-.049-.524a2.496 2.496 0 0 0-.197-1.586Zm3.979-.616-.012 1.859-.047.01c-.091.019-.084.116.012.14l.044.011-.012.171c-.069.972-.44 1.176-2.235 1.21l-.5.011.073-.081a.583.583 0 0 0 .134-.325c.007-.044.018-.081.025-.081a.73.73 0 0 0 .204-.22.614.614 0 0 0 .022-.431c-.045-.259-.045-.26 0-.278.081-.032.075-.11-.012-.136-.141-.036-.051-.665.167-1.168a1.21 1.21 0 0 0 .167-.77c-.018-.061-.031-.044.617-.77l1.251-1.331c.091-.058.103-.043.11.148.002.089-.001 1.004-.008 2.026Zm-2.452 2.155c.064.354.054.483-.043.571-.047.043-.045.049-.077-.179a3.96 3.96 0 0 1 .095-2.027 4.7 4.7 0 0 1 .306-.415l.079-.092v.063a.73.73 0 0 1-.029.189c-.018.068-.089.253-.155.408a2.4 2.4 0 0 0-.176 1.482m2.497-4.508c-.219 0-.238.02-1.036.903l-1.681 2.047a4.72 4.72 0 0 0-.05 1.904c.084.679.015.826-.387.826s-.485-.15-.407-.755a4.3 4.3 0 0 0-.085-2.074 17.8 17.8 0 0 0-1.859-2.199c-.576-.628-.607-.653-.801-.654l-.138-.01-.039-.011v-.41a2.6 2.6 0 0 1 .016-.412c.009 0 .622.641 1.362 1.423l1.94 1.847c.211 0 .125.082 1.735-1.618l1.59-1.649a3.3 3.3 0 0 1 .013.403c-.001.464.009.437-.177.438Zm-4.036 1.205c-.276-1.1-.227-1.467.208-1.577a4.37 4.37 0 0 1 1.255-.017c.513.109.569.447.273 1.618-.11.44-.072.365-.344.653-.508.538-.516.538-.996.041a.99.99 0 0 1-.396-.718M7.102 3.173c.252-.422.691-.544 1.693-.473l.955.086a19.13 19.13 0 0 0 4.508 0c2.089-.201 2.471-.118 2.726.581.183.503.084.77-.8 2.17-.659 1.051-.754 1.186-.794 1.176-.074-.017-.16.066-1.272 1.24L12.98 9.14s.029-.148.069-.322c.325-1.364.103-1.669-1.184-1.627-1.074.035-1.245.38-.88 1.783l.038.167s-.517-.53-1.564-1.637c-.722-.764-.769-.807-.84-.793a19.1 19.1 0 0 1-1.492-2.322 1.174 1.174 0 0 1-.025-1.216m8.942 5.89a.263.263 0 0 0-.063.467.258.258 0 1 0 .063-.467m.06.356a.11.11 0 0 1-.033-.213.11.11 0 0 1 .142.042c.061.083.002.181-.109.171m-8.295-.357a.261.261 0 0 0-.11.422.254.254 0 0 0 .386-.33.272.272 0 0 0-.276-.092m.163.324a.118.118 0 1 1-.015-.165.12.12 0 0 1 .015.165m11.933 12.795c0-.828 0-.817-.102-.833l-.067-.011-.007-.312c-.01-.451-.052-.526-.36-.627-.22-.073-.11-.045-3.222-.759l-3.299-.781-.064-.026v-.316c0-.398.01-.38-.22-.388l-.173-.007v-1.595h.241v.142c0 .281.061.322.486.322.393 0 .471-.036.49-.22.01-.101-.009-.098.288-.06a10.3 10.3 0 0 0 1.517 0 .53.53 0 0 0 .366-.469v-.092h.096c.11.005.11.01.143.131.038.138.048.14.671.14.511 0 .55 0 .614-.035a.649.649 0 0 0 0-1.064 6.1 6.1 0 0 0-1.188-.019.227.227 0 0 0-.11.174c0 .072-.027.085-.208.085-.13 0-.17 0-.188-.028a.5.5 0 0 0-.11-.069l-.083-.042v-.527l.179-.012a.928.928 0 0 0 .786-.418c.045-.066.064-.077.199-.117a3.06 3.06 0 0 0 1.233-.736c.163-.164.164-.164.307-.122.036.01.058.09.073.264.022.245.129.35.245.242a1.935 1.935 0 0 0-.094-1.393 6.3 6.3 0 0 1 0-1.21 5.5 5.5 0 0 0 .102-.833c.052-.737.056-.748.311-.87a.33.33 0 0 0 .153-.119c.039-.059.05-.066.142-.076.274-.032.424-.193.55-.596a1.1 1.1 0 0 0 .042-.733c-.175-.341-1.025-.482-1.87-.307a.713.713 0 0 0-.626.92 1.36 1.36 0 0 1 .062.269c.031.256.077.349.199.403a.133.133 0 0 1 .093.099c.024.082.04.096.206.184.188.099.206.174.132.593-.047.266-.026.258-.732.258h-.487v-.624c-.006-1.176-.018-1.123.923-3.822.777-2.225.798-2.309.679-2.933a2.284 2.284 0 0 0-1.979-1.778 22.7 22.7 0 0 0-4.972-.42 25.1 25.1 0 0 0-3.544.435 2.238 2.238 0 0 0-1.979 2.001c-.049.488-.022.591.759 2.831.896 2.569.887 2.529.88 3.711v.607l-.55-.006c-.689-.006-.64.013-.693-.285-.067-.388-.045-.478.139-.563.132-.06.192-.11.212-.191a.123.123 0 0 1 .064-.074c.137-.063.187-.154.22-.386a1.8 1.8 0 0 1 .055-.31c.213-.63-.397-1.031-1.498-.984-.708.031-1.027.233-1.023.649.007.588.302 1.064.66 1.067.052 0 .068.011.11.079a.56.56 0 0 0 .172.124c.235.121.238.132.288.828l.095.816a2.4 2.4 0 0 1 .033.55 2.267 2.267 0 0 0 .282 1.429 2.84 2.84 0 0 0 1.429 1.001c.162.05.178.06.228.128a.913.913 0 0 0 .779.416l.185.011v.524l-.098.053c-.133.073-.228.056-.228-.038a.268.268 0 0 0-.128-.21.631.631 0 0 0-.57.086c-.024.037-.041.044-.109.044a.197.197 0 0 0-.198.13l-.025.059h-.217c-.382 0-.495.08-.473.337.016.207.097.254.44.262l.266.005.027.069a.186.186 0 0 0 .199.117.11.11 0 0 1 .11.054c.099.133.638.146.638.016 0-.044.047-.01.085.06a.506.506 0 0 0 .242.22 8.3 8.3 0 0 0 1.562.021c.311-.039.295-.041.295.044 0 .193.091.238.485.238.423 0 .477-.035.492-.321l.008-.143h.22v1.599h-.136c-.249 0-.237-.021-.251.399l-.012.322-.11.035c-.17.055-1.201.294-5.308 1.232-1.55.354-1.495.321-1.51.912l-.006.312-.067.011c-.104.017-.103.006-.103.831 0 .907-.034.813.298.813.306 0 .287.026.287-.399v-.317h.22v.323c0 .426-.019.4.291.4.33 0 .293.093.293-.815 0-.826 0-.813-.103-.829-.074-.012-.102-.094-.042-.117s1.671-.21 1.688-.195c.033.035-.018.305-.058.305a.185.185 0 0 0-.13.058c-.007.01-.012.36-.013.778 0 .909-.034.815.296.815.307 0 .287.027.292-.389v-.33h.22v.324c0 .426-.019.4.292.4s.293.098.293-.826v-.769l-.039-.028a.165.165 0 0 0-.075-.026c-.095 0-.071-.11.033-.146.059-.022 2.978-.473 3.061-.473.021 0 .027.11.037.7.008.386.02.714.029.73a2.5 2.5 0 0 1 .015.373c0 .487-.014.466.312.466.308 0 .29.026.29-.399v-.33h.22v.33c0 .418-.022.389.295.389s.288.036.288-.426a1.26 1.26 0 0 1 .025-.408 3.52 3.52 0 0 0 .03-.726c0-.381.014-.696.02-.703s3.022.44 3.09.472.1.141.03.141a.173.173 0 0 0-.088.035l-.045.036v.761c0 .915-.037.818.305.818.317 0 .297.028.297-.399v-.32h.201l.011.08c.007.044.011.194.011.33 0 .33-.015.309.296.309s.289.094.289-.821v-.758l-.045-.036a.18.18 0 0 0-.092-.035c-.044 0-.1-.267-.064-.304.016-.015 1.65.174 1.685.195s.012.11-.031.11a.152.152 0 0 0-.087.042l-.042.043v.744c0 .914-.033.821.299.821s.303.03.303-.392v-.33h.207v.3c0 .44-.011.422.312.422s.303.097.303-.808m-4.054-6.413c.199 0 .299-.061.339-.21l.017-.063h.99l.051.041a.479.479 0 0 1-.007.645c-.044.034-.065.035-.542.035h-.495l-.019-.067c-.039-.148-.136-.207-.329-.208-.055 0-.099-.006-.101-.013a2 2 0 0 0-.014-.086l-.014-.073Zm-8.294.08v.283h-.056c-.047 0-.062-.01-.089-.059-.055-.105-.137-.13-.409-.13-.254 0-.288-.011-.288-.094s.033-.095.299-.095.323-.017.397-.133a.09.09 0 0 1 .09-.055h.056Zm.71-.037a.66.66 0 0 0-.023.132.073.073 0 0 1-.044.068.267.267 0 0 0-.12.164c-.026.118-.014.11-.18.11-.103 0-.157-.006-.166-.022a1.45 1.45 0 0 1 0-.833c.023-.038.317-.03.33.008l.02.082a.28.28 0 0 0 .153.181l.056.021Zm5.144.841-.01.133h-.565v-.292h.174c.22 0 .24-.011.24-.11v-.077h.072a.14.14 0 0 1 .096.025.154.154 0 0 1 .011.11Zm.399-.16c-.249-.029-.234-.021-.234-.121a.154.154 0 0 0-.058-.146l-.058-.059h.053c.03 0 .136.012.236.026.303.043.275.024.275.182s.021.144-.214.117Zm.574-.44v.473h-.22v-.288l.06-.046c.069-.053.087-.11.103-.319.033-.46.061-.379.061.18Zm.458-1.13-.019.21c0 .08-.014.183-.02.228l-.01.082h-.426v-.063l.021-.261.019-.197.189-.029c.274-.041.254-.043.243.033Zm.65.79a.227.227 0 0 1 .099.275.88.88 0 0 0-.02.185c0 .302-.089.352-.64.353h-.392v-.946h.254l.019.075c.069.276.495.303.55.035.01-.075.016-.073.13.024Zm-.55-.11c-.01-.045.034-.71.049-.758a.33.33 0 0 1 .205 0 6 6 0 0 1-.007.865c-.058.075-.218.005-.243-.108Zm1.368-1.381a.8.8 0 0 0-.083.104c-.182.273-.32.339-.755.36-.308.016-.355 0-.446-.102a.303.303 0 0 1-.069-.175.384.384 0 0 1 .245-.366c.307-.155.44-.44.503-1.092.01-.1.025-.87.033-1.712.017-1.781.032-2.004.134-2.125a.31.31 0 0 1 .383-.08.246.246 0 0 1 .153.245l.007 2.253Zm1.384-.784a2.74 2.74 0 0 1-1.042.672c-.151.054-.148.055-.125-.061l.029-.196.01-.105.182-.09a1.823 1.823 0 0 0 1.133-1.421.583.583 0 0 1 .228-.315v.432c-.01.624-.047.717-.411 1.083Zm-1.116-.473v-.612l.236-.012a3.01 3.01 0 0 0 .88-.129c.043-.025.043-.025.031.073-.02.164-.04.209-.12.265a.386.386 0 0 0-.155.307l-.008.102-.152.147a2.55 2.55 0 0 1-.718.477s.007-.281.01-.619Zm1.739.387c0 .03 0 .03-.047 0a.47.47 0 0 0-.124-.056.8.8 0 0 1-.081-.025 1 1 0 0 1 .062-.147 1.3 1.3 0 0 0 .078-.2c.017-.077.037-.071.059.018a3.4 3.4 0 0 1 .058.409Zm-.773-4.054c-.07-.017-.097-.076-.117-.245a2.15 2.15 0 0 0-.071-.32.422.422 0 0 1 .171-.541 2.43 2.43 0 0 1 1.396-.176c.44.077.577.19.562.454-.029.527-.244.851-.561.851a.4.4 0 0 0-.124.03 4.3 4.3 0 0 1-1.131 0 .9.9 0 0 0-.125-.053m-.387 1.498c.83-.011.845-.02.915-.569.055-.425.017-.533-.239-.659l-.11-.055h.439l.461.005c.01 0-.005.013-.034.029-.22.116-.284.251-.317.667l-.045.55-.06.49-.05.261c-.069.44-.415.631-1.234.66l-.297.011v-1.382ZM5.21 9.36a.53.53 0 0 0-.148-.035c-.2-.029-.248-.046-.309-.116a1.26 1.26 0 0 1-.212-.962 1.84 1.84 0 0 1 1.442-.212c.55.077.795.33.672.671a2 2 0 0 0-.07.318c-.037.267-.098.317-.44.355a5.7 5.7 0 0 1-.935-.019m.628 1.968a6.5 6.5 0 0 1-.096-.843c-.047-.668-.092-.795-.323-.916-.088-.046-.086-.046.434-.047h.439l-.11.055c-.263.125-.307.276-.226.769.071.428.1.44.901.453l.571.007v1.391h-.176c-.879 0-1.307-.22-1.373-.694a1.8 1.8 0 0 0-.041-.179Zm1.586 1.64v.617a2.3 2.3 0 0 1-.393-.207 1.656 1.656 0 0 1-.73-.892c-.039-.132-.061-.272-.042-.272s.087.019.177.041a3.96 3.96 0 0 0 .752.089l.227.011Zm-.15 1.12a2.104 2.104 0 0 1-1.338-1.267 5.06 5.06 0 0 1-.064-.867c.008-.02.038 0 .121.079l.11.11.021.151a1.846 1.846 0 0 0 1.138 1.384l.166.079.021.156.03.204c.015.05.009.049-.205-.029m.254-5.18a15.56 15.56 0 0 0-.798-2.574L6.4 5.37a.077.077 0 0 0-.016-.044c-.022-.034-.302-.873-.37-1.134a1.964 1.964 0 0 1 1.411-2.464 20.6 20.6 0 0 1 4.178-.531l1.368.025 3.224.401a2.075 2.075 0 0 1 1.855 1.822c.051.457.018.578-.769 2.823L16.5 8.71c-.016.075-.03.151-.045.226-.008.037-.01.037-.121-.021a.44.44 0 0 0-.615.179c-.09.166-.098.289-.11 1.946l-.11 2.366a.727.727 0 0 1-.363.514.494.494 0 0 0-.261.675c.055.11.072.097-.21.14a19.13 19.13 0 0 1-4.885.061l-.689-.103a.29.29 0 0 1 .038-.105.494.494 0 0 0-.27-.677c-.4-.199-.44-.468-.462-2.803l-.11-2.012a.453.453 0 0 0-.652-.16c-.088.052-.09.052-.103-.033Zm1.245 6.313v-.358l.041-.016a.35.35 0 0 1 .117-.013h.079l.024.244c.039.458.037.55-.02.611-.091.095-.235.056-.232-.062-.003-.033-.003-.219-.006-.412Zm-.256-.531c-.408-.02-.525-.069-.701-.291l-.127-.16c-.127-.157-.14-.382-.128-2.128l.027-2.917c0-.151.308-.241.464-.138.179.119.204.401.206 2.274 0 2.061.086 2.51.514 2.709.197.091.268.194.257.369-.012.238-.117.295-.509.276Zm.946 1.369v.472h-.384c-.617 0-.66-.04-.684-.601 0-.079.031-.189.058-.189a.4.4 0 0 0 .087-.052c.09-.066.095-.065.11.011.056.297.447.238.55-.084.007-.026.031-.03.138-.03h.13Zm-.048-.617h-.22l-.012-.095a2.34 2.34 0 0 1-.021-.481c.009 0 .11.014.22.031l.206.03.02.197.022.259v.064Zm.426 1.089h-.238v-.472c0-.409 0-.473.027-.473s.025.005.025.013c.013.361.062.561.145.616.041.026.043.037.043.172Zm-.008-.488c-.009-.04-.096-1.015-.096-1.066 0-.028.01-.031.082-.021l.33.035a14.3 14.3 0 0 0 1.839.07l1.933-.079.33-.028c.016.016-.1 1.108-.119 1.127s-.066.016-.261-.012a16.05 16.05 0 0 0-3.739 0c-.249.029-.284.027-.296-.031Zm.673.163a.239.239 0 0 0-.095.186l-.012.079-.162.021-.21.021h-.048v-.274l.063-.012a4 4 0 0 1 .433-.056h.076Zm.66.433-.006.142h-.567l-.012-.137-.023-.201c-.018-.1.011-.135.11-.135h.084v.074c0 .11.016.11.229.11h.186Zm-.273-.304v-.1c0-.066.008-.099.022-.1.304-.029 1.912-.033 2.116 0l.081.011v.194Zm1.308.162v1.66h-.396v-1.665Zm-.788 2.068v-.22l.173-.011c.186-.012.967 0 .989.013a.95.95 0 0 1 .015.22v.22h-1.181Zm-6.906 3.408-.011.628v.187h-.207V21.55l.065-.008.11-.009h.05l-.012.44Zm.44.093h-.296v-.534h.292v.266Zm.36.722h-.21v-.187l-.011-.63-.011-.44.083.011.11.012c.03 0 .032.027.032.619Zm1.938-.821-.011.636v.185h-.21v-1.229l.081-.01a.26.26 0 0 0 .092-.021c.051-.044.055.008.044.436Zm.16.099v-.55h.267v.542Zm.637.722h-.205l-.013-.62c-.013-.646-.012-.665.049-.646a.7.7 0 0 0 .101.02l.065.009Zm.935-1.935c-1.065.16-1.108.178-1.108.447v.077H7.23v-.155c0-.261-.116-.228 1.342-.385l1.27-.119c-.018.002-.407.062-.869.133Zm-1.658-.043c-.026-.013-1.705.167-1.928.208-.188.034-.255.11-.255.283v.077h-.66l-.011-.252c-.009-.484-.019-.473.533-.624.021-.007.03 0 .034.04.009.077.01.077 1.676-.269l4.618-.952a.8.8 0 0 1 .121-.006h.077l.012.076c.014.084.07.966.062.971s-4.262.457-4.282.446Zm4.158-.16c.074-.019.078-.015.067.068-.007.042-.016.208-.022.369-.011.267-.014.29-.044.29a1.88 1.88 0 0 1-.004-.729Zm.237 1.188-.018.628-.01.322h-.187v-.369l-.018-.379a2.23 2.23 0 0 1 0-.514.117.117 0 0 1 .073 0 .9.9 0 0 0 .118.01h.056Zm.421-.04v.268h-.275v-.534h.275Zm-.132-.426h-.342v-.11a2.64 2.64 0 0 1 .056-.636 5.4 5.4 0 0 0-.036-1.217c-.009-.121-.054-.206-.123-.232a14.37 14.37 0 0 0-2.598.492l-2.308.467s.014-.011.041-.017l4.266-.984a.9.9 0 0 0 .42-.179c.029-.034.043-.035.62-.035h.591l.039.042c.101.11.156.122 2.869.742l1.934.45c-.006 0-1.056-.212-2.334-.477-2.639-.549-2.574-.533-2.66-.492-.11.049-.103.042-.162.918l-.028.44.039.079c.036.071.04.11.048.42l.007.341Zm.521.541-.012.636v.237h-.094c-.12 0-.11.066-.121-.64l-.012-.614.084-.006.124-.01h.042Zm0-.538a.045.045 0 0 1-.042-.021c-.012-.039-.023-.718-.012-.718a.3.3 0 0 1 .05.011 1.54 1.54 0 0 1 .006.728Zm3.64.605-.01.637v.169h-.19v-1.238h.06c.033 0 .064-.008.069-.018a.066.066 0 0 1 .047-.017c.041 0 .041.001.027.467Zm.44-.191v.274h-.276V21.8c0-.308-.011-.287.15-.287h.126Zm-.465-.414v-.077c0-.269-.042-.287-1.106-.447-1.215-.185-1.216-.185.374-.017l1.283.153c.066.026.081.077.085.29v.098Zm.826.176v1.235h-.19v-.169l-.011-.64c-.012-.459-.011-.47.021-.456a.5.5 0 0 0 .11.022Zm1.937.431-.012.627v.177h-.189V21.55l.065-.008.11-.009h.042Zm.44-.186v.267h-.275v-.533h.275Zm-.464-.42v-.078c0-.169-.073-.252-.253-.282l-1.929-.209c-.017.01-.858-.073-2.158-.21l-2.131-.227.011-.18c.056-.963.04-.886.189-.872.059.005 1.491.297 3.189.647l3.189.58c0-.035.013-.046.034-.04l.199.055c.306.085.318.11.319.528v.288Zm.822 1.41h-.189v-.187l-.013-.628c-.009-.388-.007-.44.016-.44a1.1 1.1 0 0 1 .11.011l.08.011ZM9.28 11.989c-.088.088.074.163.269.123a.074.074 0 0 0 .054-.113.55.55 0 0 0-.323-.01m.619 0c-.088.088.11.172.285.123a.079.079 0 0 0 .038-.113.55.55 0 0 0-.323-.01m-1.293 2.16a.251.251 0 0 0-.137.232.247.247 0 1 0 .493.019.243.243 0 0 0-.356-.251m.22.275a.11.11 0 0 1-.069.062.114.114 0 0 1-.102-.204c.057-.03.06-.031.11-.007a.11.11 0 0 1 .061.149m1.857-2.456a.37.37 0 0 0-.159.021c-.066.066.013.134.154.134s.187-.022.187-.073-.038-.082-.182-.082"/></svg>