<svg xmlns="http://www.w3.org/2000/svg" viewBox="0 0 24 24"><path fill="#44739e" d="M14.177 20.203c0 .13-.054.17-.157.17-.156 0-1.618-.913-1.765-.913H10.94v2.567h1.314v-1.064a.158.158 0 0 1 .166-.172c.175 0 .504.122 1.534.856.231.165.223.293.223.382h1.308v-2.566h-1.308Zm5.748-.847h-2.189a1.1 1.1 0 0 0-1.237 1.114v.622c0 .674.288.948.978 1.062a9.24 9.24 0 0 0 2.714 0c.685-.114.978-.388.978-1.062v-.622a1.1 1.1 0 0 0-1.244-1.114m-.066 1.672a.413.413 0 0 1-.413.411h-1.251a.411.411 0 0 1-.413-.411v-.566a.413.413 0 0 1 .413-.412h1.251a.413.413 0 0 1 .413.412ZM14.07 1.748c-1.344.053-1.13.71-.259 1.001s4.848 1.568 5.156 4.005c.112.903-1.553 1.033-6.967 1.033-5.435 0-7.075-.13-6.967-1.033.308-2.437 4.278-3.708 5.156-4.005s1.08-.948-.258-1.001C8.315 1.683 1 3.323 1 8.821c0 5.475 7.315 7.137 8.931 7.073 1.338-.054 1.129-.712.258-1.003s-4.848-1.568-5.156-4.004C4.921 9.983 6.595 9.842 12 9.853s7.075.13 6.967 1.034c-.305 2.438-4.278 3.715-5.152 4.004s-1.08.949.259 1.003C15.685 15.958 23 14.296 23 8.821c0-5.498-7.315-7.138-8.93-7.073m-2.039 6.338c7.004 0 6.589-.122 7.307-.437.154-.069.252-.085.308-.048s.131.084.261.159.196.168.009.233a64.5 64.5 0 0 1-7.885.298 64.7 64.7 0 0 1-7.887-.298c-.186-.066-.123-.159.009-.233s.206-.122.262-.159.154-.021.307.048c.718.316.304.437 7.309.437m10.397.874a5.598 5.598 0 0 0-1.467-3.233c-.149-.159-.244-.112-.13.083a5.515 5.515 0 0 1 1.016 3.255c-.084 1.754-1.441 5.063-7.433 6.324-.177.038-.598 0-.01-.168s4.546-1.052 6.233-3.911c1.589-2.689-.924-2.388-2.182-2.416-1.14-.026-4.611 0-6.203 0h-.439c-1.589 0-5.064-.026-6.203 0-1.259.028-3.768-.27-2.181 2.416 1.685 2.855 5.643 3.74 6.233 3.911s.169.206-.009.168c-5.989-1.261-7.35-4.57-7.433-6.324A5.517 5.517 0 0 1 3.235 5.81c.113-.195.02-.244-.129-.084A5.606 5.606 0 0 0 1.639 8.96c-.011.164-.133.452-.151.023a5.908 5.908 0 0 1 2.61-4.644A11.64 11.64 0 0 1 9.311 2.18c.538-.093 1.089-.046.07.223-4.141 1.1-5.479 2.868-6.253 4.473s.753 1.604 1.759 1.639c.977.034 4.556.047 7.144.047s6.163-.013 7.142-.047c1.007-.035 2.529-.035 1.757-1.639s-2.112-3.378-6.253-4.473c-1.018-.269-.468-.316.069-.223a11.64 11.64 0 0 1 5.223 2.155A5.907 5.907 0 0 1 22.58 8.98c-.019.432-.141.144-.152-.02M5.91 19.888a.328.328 0 0 1-.327.356h-1.1a.328.328 0 0 1-.326-.356v-.428h-1.19v2.567h1.186v-.505a.328.328 0 0 1 .327-.356h1.1a.328.328 0 0 1 .326.356v.505H7.25V19.46H5.906Zm2.484-.428h1.407v2.566H8.394Z"/></svg>