<svg xmlns="http://www.w3.org/2000/svg" viewBox="0 0 24 24"><path fill="#44739e" d="M21.913 14.095a2.28 2.28 0 0 0-.906.072l-7.942 1.417a6.25 6.25 0 0 1-2.141 0l-7.93-1.417a2.28 2.28 0 0 0-.907-.072.77.77 0 0 0 0 1.484c.257.084.44.123.907.235l7.337 1.803a6.96 6.96 0 0 0 3.332 0l7.344-1.803c.464-.11.649-.151.906-.235a.77.77 0 0 0 0-1.484m1.056-3.576a.77.77 0 0 0-.524-.524 2.6 2.6 0 0 0-.907.011l-8.462.851a10.78 10.78 0 0 1-2.163 0l-8.451-.851a2.6 2.6 0 0 0-.908-.011.77.77 0 0 0 0 1.478 5.1 5.1 0 0 0 .908.185l8.087 1.299a9.27 9.27 0 0 0 2.896 0l8.093-1.299a4.73 4.73 0 0 0 .907-.185.77.77 0 0 0 .524-.954m-3.243 8.221a1.78 1.78 0 0 0-.906.11l-4.969 1.339a7.13 7.13 0 0 1-3.718 0l-4.95-1.342a1.78 1.78 0 0 0-.906-.11.77.77 0 0 0-.55.744.796.796 0 0 0 .55.751 8.7 8.7 0 0 0 .903.347l4.71 1.641a6.416 6.416 0 0 0 4.217 0l4.713-1.641a8.7 8.7 0 0 0 .906-.342.796.796 0 0 0 .55-.75.77.77 0 0 0-.55-.747M6.047 3.459a3.7 3.7 0 0 0 .907.068h10.093a3.7 3.7 0 0 0 .906-.068.77.77 0 0 0 0-1.477 5.36 5.36 0 0 0-.906-.13l-2.53-.285a22.3 22.3 0 0 0-5.053 0l-2.513.285a5.4 5.4 0 0 0-.908.13.77.77 0 0 0-.55.739.762.762 0 0 0 .554.738M3.038 7.66a4.95 4.95 0 0 0 .908.11l7.157.509a13.75 13.75 0 0 0 1.781 0l7.17-.509a4.84 4.84 0 0 0 .908-.11.77.77 0 0 0 0-1.48 3.54 3.54 0 0 0-.908-.067H3.946a3.54 3.54 0 0 0-.908.067.77.77 0 0 0 0 1.48"/></svg>