<svg xmlns="http://www.w3.org/2000/svg" fill="#44739e" viewBox="0 0 24 24"><path d="M16.743 10.59a.834.834 0 0 0-.43.1c-.026.013-.376.177-.406.177-.01 0-.037-.01-.037-.03V9.383c0-.086.034-.3-.106-.3a.73.73 0 0 0-.234.07 3.96 3.96 0 0 1-.836.227c-.09.013-.274.026-.274.146 0 .07.077.09.127.1.357.05.337.117.337.463v2.964a3 3 0 0 1-.014.423.65.65 0 0 0-.013.107c0 .076.03.126.113.126.184 0 .207-.393.347-.393a.8.8 0 0 1 .183.083 1.54 1.54 0 0 0 .83.217 1.693 1.693 0 0 0 1.837-1.577 1.409 1.409 0 0 0-1.424-1.449m.214 2.337a.742.742 0 0 1-.6.463c-.524 0-.487-.45-.487-.837v-1.12a.36.36 0 0 1 .41-.433c.577 0 .837.7.837 1.184a1.69 1.69 0 0 1-.16.743m-4.014-2.337a.834.834 0 0 0-.43.1 4.4 4.4 0 0 1-.4.177c-.013 0-.04-.01-.04-.03V9.383c0-.086.033-.3-.107-.3a.71.71 0 0 0-.233.07 3.97 3.97 0 0 1-.837.227c-.09.013-.273.026-.273.146 0 .07.077.09.127.1.356.05.336.117.336.463v2.964a3 3 0 0 1-.013.423.56.56 0 0 0-.013.107c0 .076.03.126.113.126.187 0 .21-.393.35-.393a.73.73 0 0 1 .183.083 1.55 1.55 0 0 0 .83.217 1.7 1.7 0 0 0 1.837-1.577 1.409 1.409 0 0 0-1.43-1.449m.214 2.337a.738.738 0 0 1-.6.463c-.524 0-.487-.45-.487-.837v-1.12a.474.474 0 0 1 .063-.29.46.46 0 0 1 .347-.143c.577 0 .837.7.837 1.184a1.69 1.69 0 0 1-.16.743m-3.187-1.97a1.93 1.93 0 0 0-1.177-.367A1.682 1.682 0 0 0 7 12.1a1.59 1.59 0 0 0 1.743 1.51 1.683 1.683 0 0 0 1.81-1.557 1.4 1.4 0 0 0-.583-1.096M8.853 13.4c-.633 0-.836-.994-.836-1.464 0-.423.166-1.126.71-1.126a.768.768 0 0 1 .613.473 2.2 2.2 0 0 1 .2.923c-.003.414-.13 1.187-.687 1.194M6.63 9.857c.077-.014.177-.027.177-.127s-.067-.12-.157-.12c-.3 0-.6.027-.907.027-.33 0-.646-.027-.976-.027-.09 0-.154.02-.154.12s.127.113.2.127c.4.07.366.233.366.62v.613c0 .233.007.227-.21.227H3.843c-.22 0-.226 0-.226-.226v-.614c0-.423-.03-.55.4-.62.076-.013.176-.026.176-.126s-.07-.12-.156-.12c-.3 0-.6.026-.907.026-.33 0-.647-.026-.977-.026-.09 0-.153.02-.153.12s.127.113.2.126c.4.07.367.234.367.62v2.243c0 .413.017.52-.4.59-.077.013-.17.047-.17.147s.063.12.153.12c.3 0 .607-.027.91-.027.33 0 .647.027.977.027.083 0 .153-.024.153-.12 0-.117-.12-.134-.2-.147-.4-.063-.373-.217-.373-.59v-.887c0-.26-.02-.233.246-.233H4.99c.17 0 .183-.017.19.153v.97c0 .414.017.52-.4.59-.077.014-.17.047-.17.147s.063.12.153.12c.3 0 .61-.027.914-.027.326 0 .643.027.973.027.083 0 .153-.023.153-.12 0-.117-.12-.133-.2-.147-.4-.066-.373-.216-.37-.59v-2.246c-.003-.424-.033-.55.397-.62m15.207.8c-.184 0-.36.013-.544.013s-.36-.013-.543-.013c-.077 0-.2 0-.2.1 0 .133.146.14.24.146.123.007.286.05.286.2a.72.72 0 0 1-.076.253l-.424.957c-.013.047-.07.2-.133.2s-.113-.166-.133-.2l-.467-.977a.86.86 0 0 1-.1-.277c0-.13.163-.133.247-.153s.163-.043.163-.14-.143-.107-.227-.107c-.246 0-.5.014-.74.014-.276 0-.57-.014-.846-.014-.1 0-.217 0-.217.107s.107.127.183.14c.12.02.177.02.26.12a2.9 2.9 0 0 1 .28.47l.937 1.893a1.06 1.06 0 0 1 .12.347.614.614 0 0 1-.133.3c-.134.157-.287.12-.477.114-.133-.007-.28-.027-.373.1a.59.59 0 0 0-.084.31c0 .333.277.353.557.353.42 0 .393-.1.52-.47l.343-.823.954-2.02a3 3 0 0 1 .3-.55c.11-.133.16-.123.316-.147.087-.013.177-.04.177-.146s-.083-.1-.166-.1"/></svg>