<svg xmlns="http://www.w3.org/2000/svg" viewBox="0 0 24 24"><path fill="#44739e" d="M12.99 13.65a2.739 2.739 0 0 1-2.906-2.142c-.486.419-.396 1.563.497 2.53.011-.151-.214-.62-.152-.716.733.603 1.335.562 2.561.328m4.357 3.785a9.88 9.88 0 0 1-2.85-.04c-.429-.166-.249-.729-.473-1.307-.046-.136-.152-.18-.152 0a5.797 5.797 0 0 1-.715 2.978l-.153.041c0-.525-.184-.731-.49.122a3.85 3.85 0 0 1-1.163 1.782c.22.02.683.051.756.051a9.185 9.185 0 0 0 5.72-2.12c.883-.814.413-1.583-.48-1.507m-5.514-7.111c.796 2.488 1.76 4.219 4.575 2.702-2.465.573-3.353-1.368-4.437-2.595Zm5.572 2.167c-1.817-.564-1.966-3.665-4.218-3.63 1.762.837 1.385 3.739 4.218 3.63m-7.317-6.777c.036.038.143.429.229.311a5.25 5.25 0 0 1 .99-.828 3.674 3.674 0 0 0-1.591.533c.017.048.333-.054.372-.016M11.89 2.96a9.06 9.06 0 0 0-8.955 9.168 8.37 8.37 0 0 0 .375 2.488 3.916 3.916 0 0 1 2.553-1.015 4.312 4.312 0 0 1 4.115 5.589 4.29 4.29 0 0 0-2.024.068 1.64 1.64 0 0 0-.413.611c.257.131.386.22.605.315.022-.176.422-.599.422-.599a5.04 5.04 0 0 1 1.553.024 3.96 3.96 0 0 0 .821-2.53 1.503 1.503 0 0 0-.311-1.043 3.31 3.31 0 0 1-1.12-1.76A5.486 5.486 0 0 0 6.196 13.1c-.99 0-1.157.152-1.157.152a.9.9 0 0 1-.408-.532s-.22.134-.361.687a1.056 1.056 0 0 1-.607-.611.362.362 0 0 1 .135-.466c.201-.12.396-.197.55-.286.44-.257.491-.425.841-.519a8.05 8.05 0 0 1 2.895.032c-.022.098-.262 1.037 1.488 2.013-.952-1.32-1.483-2.09.587-3.467 1.393-.93.191-2.145 2.072-2.906 1.411-.569 1.404-.788.965-1.21-.859-.82-.801-.539.395-1.126l-.007-.079c-1.246.395-1.715.11-1.418.49.75.967.861.927-.18 1.548s-1.165.811-1.397 1.813c-.161.691-1.043 1.204-1.592 1.576a2.66 2.66 0 0 0-.486-1.168l.172-.062a.828.828 0 0 0 .8.3c.36-.12.44-.66.363-.957a1.162 1.162 0 0 0-1.399-.919c-.298.095-.362.322-.161.931l-.069.188c-.253-.535-1.178-1.217-1.028-1.425.631-.891 1.621-.872 1.967-1.233.521-.543-.357-.28.355-.609 2.303-1.064 3.182-.316 4.611-1.113.044 1.47.681 1.269 1.464 2.002l-.061.057c-.297-.08-.887-.11-.636.131.719.695 1.452.468 2.228 1.67l-.065.053c-.321-.22-1.107-.474-.782-.091a4.63 4.63 0 0 1 1.032 1.362c.316.651.757 2.344 2.136 2.595a2.63 2.63 0 0 1-1.568.653c.719 1.189 2.373 1.142 2.874 1.695a15.6 15.6 0 0 0 .311-2.488A9.053 9.053 0 0 0 11.89 2.96M12 1a11 11 0 1 0 11 11A11 11 0 0 0 12 1m0 20.9a9.9 9.9 0 1 1 9.9-9.9 9.9 9.9 0 0 1-9.9 9.9"/></svg>