<svg xmlns="http://www.w3.org/2000/svg" fill="#44739e" viewBox="0 0 24 24"><path d="M18.928 7.954c.064.09.126.182.185.275a6.6 6.6 0 0 0-.423-.676l.015.024.017.028.044.072.01.017.049.084v.006c.017.03.035.061.051.092l.011.02c.018.027.035.055.052.082zm.548 1.087a6.56 6.56 0 0 1 .3.958c.011.052.016.106.027.158A6.665 6.665 0 0 1 7.66 15.042a4.7 4.7 0 0 1-.227-.348 6.5 6.5 0 0 0 .412.667 6.668 6.668 0 1 0 11.268-7.132 6.59 6.59 0 0 1 .652 1.74 6.56 6.56 0 0 0-.289-.928M15.423 17.8a6.67 6.67 0 0 0 4.515-6.313 6.7 6.7 0 0 0-.04-.714 6.5 6.5 0 0 1 .041.714 6.671 6.671 0 0 1-4.516 6.313m4.414-7.418c.02.119.046.237.059.357-.013-.124-.04-.239-.059-.36zM7.608 14.96l.052.082c.08.112.165.22.254.324l.024.027.016.02.055.061c.033.037.067.073.1.109l.06.061a6.6 6.6 0 0 1-.569-.694Zm9.798-3.475v.075c.01.117.016.235.019.354v-.15c0-.22-.011-.438-.032-.652 0 .063.006.126.008.19s.005.121.005.183m-13.316.279v.13c0-.125.011-.248.022-.371l-.023.07c.002.057.001.114.001.171m12.62 2.681c.019-.036.037-.072.055-.108-.021.045-.046.089-.068.134l.012-.023zm.056-.109-.001.001zm-6.736 2.327a5.07 5.07 0 1 0-1.609-1.084 5.03 5.03 0 0 0 1.609 1.084M7.073 12A4.927 4.927 0 1 1 12 16.927 4.927 4.927 0 0 1 7.073 12m13.68-3.7A9.527 9.527 0 1 0 21.5 12a9.45 9.45 0 0 0-.747-3.7M12 21.366A9.366 9.366 0 1 1 21.366 12 9.366 9.366 0 0 1 12 21.366m.726-14.627c.169.023.336.055.5.094s.326.086.485.14q.12.041.237.087a5.3 5.3 0 0 1 .576.271c.063.034.126.07.187.106.091.054.181.111.269.171l.141.1c.086.062.169.127.251.2.038.031.076.062.113.095q.1665.15.321.3l.006.006c.088.091.173.184.254.281.027.032.054.065.08.1a5.326 5.326 0 0 1 .915 4.916l.013-.039a6.63 6.63 0 0 0 .331-2 6.674 6.674 0 0 0-4.69-5.84l-.076-.027-.074-.021h-.006l-.072-.019h-.009l-.069-.018h-.012l-.067-.017h-.014l-.068-.025h-.017l-.062-.014h-.02l-.06-.013h-.022l-.059-.012h-.023l-.057-.011h-.026l-.056-.009-.028-.005-.053-.036h-.03l-.052-.007h-.032l-.051-.012h-.034l-.048-.006H9.999l-.048.006h-.034l-.05.006h-.033l-.051.013h-.031l-.052.012h-.029l-.054.01H9.59l-.056.01h-.025l-.057.011h-.023l-.059.012h-.021l-.061.014h-.019l-.062.015h-.016l-.065.016h-.014l-.067.017h-.011l-.069.019h-.008l-.072.064-.075.022a6.673 6.673 0 0 0-4.688 5.8 7.26 7.26 0 0 1 .9-1.824l.056-.081.01-.015.048-.066.021-.029.037-.051.032-.043.027-.035.044-.058.003-.02.057-.072a7.21 7.21 0 0 1 3.86-2.474c.082-.021.164-.042.247-.06a7.214 7.214 0 0 1 3.255.043zM12 2.768A9.232 9.232 0 1 0 21.232 12 9.243 9.243 0 0 0 12 2.768m.437.205c-.288-.014-.577-.016-.865 0 .29-.016.579-.013.865 0m5.781 15.584c.151-.144.293-.3.434-.449-.141.153-.282.305-.434.449m.575-.6q.274-.312.518-.648-.243.338-.518.65zm1.19-1.722a7.233 7.233 0 0 1-4.248 3.008c-.083.02-.164.042-.248.06a7.6 7.6 0 0 1-.9.136 7.216 7.216 0 0 1-3.981-.79l-.016-.009-.064-.034-.022-.012-.011-.006-.054-.03-.017-.01h-.011l-.015-.009-.048-.027-.014-.008-.015-.009-.021-.012-.041-.024-.013-.008-.014-.009-.034-.02-.03-.018-.011-.007h-.007l-.068-.043-.077-.049-.027-.018-.049-.033-.01-.006-.017-.024-.029-.02-.011-.004-.014-.01-.033-.023-.013-.016-.033-.024-.043-.027-.019-.014-.025-.018-.041-.03L9.591 18l-.043-.033-.042-.032-.046-.035-.038-.03-.057-.046-.027-.024-.082-.069-.026-.021-.056-.049-.031-.028-.033-.033-.013-.012-.032-.03-.022-.019-.012-.011-.015-.015-.032-.03-.016-.015-.013-.013-.019-.018-.031-.03-.017-.007-.012-.012-.025-.025-.029-.029-.01-.009-.04-.04-.023-.025a3 3 0 0 1-.076-.079q-.063-.066-.123-.135-.144-.162-.279-.332c-.075-.1-.148-.193-.219-.292a7.23 7.23 0 0 1-1.172-2.664 7.36 7.36 0 0 1-.152-1.134v-.007c0-.051-.011-.1-.015-.151v-.769l.006-.1v-.099l.007-.065v-.031l.009-.074v-.019l.012-.084A5.32 5.32 0 0 1 7.8 8.758l.071-.09.075-.091.012-.014.033-.038.023-.027.015-.017a5.3 5.3 0 0 1 2.848-1.671 5.5 5.5 0 0 1 .7-.1 6.7 6.7 0 0 0-1.367.189c.111-.032.223-.061.337-.086a5.35 5.35 0 0 1 .7-.1c.117-.01.234-.014.351-.016h-.07a6.669 6.669 0 1 0 0 13.337h.334a6.6 6.6 0 0 0 1.787-.244 7.2 7.2 0 0 0 2.063-.146c.084-.018.165-.04.247-.06a7.24 7.24 0 0 0 2.229-.989 9.032 9.032 0 0 1-13.526-1.316 9.041 9.041 0 0 1 5.426-14.115c.131-.029.262-.053.393-.075l.111-.018h.035l.083-.012.048-.007.115-.015h.602l.057.005h.035l.058.006h.034l.059.006h.033l.059.008h.032l.06.009h.032l.06.01h.031l.06.01h.03l.062.011.029.006.062.012h.027l.063.013.027.006.064.014.026.006.064.015.025.006.064.016.024.006.066.017.023.007.059.074.022.006.066.019.022.006.067.021.02.006.068.021.019.007.068.022.019.006.068.024.018.006.069.025.017.006.069.026.016.006.07.027.015.006.07.028.015.007.07.029.014.006.07.03.014.006.07.031.013.006.07.033.013.005.07.034.012.006.071.035h.011l.07.036.011.006.071.037h.009l.071.039h.01l.071.04h.008l.071.041h.008l.071.042h.008l.07.043h.008l.07.044h.007l.07.045h.007l.07.046h.006l.07.048h.006l.069.048.07.05h.005l.069.051.069.052.068.053h.005l.068.055.068.056.067.057.067.058.068.059.068.061q.17.154.329.32l.063.067.074.08.006.007c.025.026.049.054.073.081l.07.081q.234.276.437.568l.009.013.036.052.016.025.03.044.007.01.023.036.016.024.013.021v.006l.027.043.051.101.007.011.022.036.025.041.018.029.027.047.012.02.029.049.005.009.025.045a7.195 7.195 0 0 1-.581 7.946c.038-.068.072-.138.107-.208l-.042.078-.007.012-.051.091-.012.021-.048.081-.008.013c-.051.066-.1.13-.158.194a7.24 7.24 0 0 1-1.023.988l-.009.007-.064.051-.03.023-.042.031-.045.034-.009.006-.068.05-.036.026-.044.033-.046.031-.04.028-.045.029-.061.04-.056.035-.045.027-.044.027-.047.027-.041.023-.078.044-.042.023-.049.025-.042.022-.057.028-.053.027-.061.029-.041.018-.053.024-.039.017q-.042.019-.084.036l-.034.014-.059.024-.039.015-.06.022-.033.013-.087.03-.035.012-.061.02-.036.012-.073.022-.029.009-.082.023-.035.009-.064.017-.033.009-.091.021-.023.006-.074.016-.028.007-.072.014h-.025l-.094.017h-.025l-.074.011h-.029l-.09.012h-.006l-.1.011h-.025l-.079.008h-.021l-.1.007-.1.005h-.456A5.38 5.38 0 0 1 10.559 17a5.4 5.4 0 0 1-.477-.148c-.1-.036-.2-.073-.29-.113a4 4 0 0 1-.176-.079 6 6 0 0 1-.276-.14 5.2 5.2 0 0 1-.524-.329 5.1 5.1 0 0 1-.646-.548 6.669 6.669 0 0 0 11.068-7.004l-.039-.1v-.006l-.039-.091v-.009l-.039-.088v-.011l-.039-.085-.006-.012c-.013-.028-.026-.056-.04-.083l-.006-.013a3 3 0 0 0-.041-.082l-.007-.013-.041-.081-.008-.014-.043-.051a6.7 6.7 0 0 0-2-2.012 7.262 7.262 0 0 0-4.372-2.9A9.037 9.037 0 0 1 20.741 9.7c.033.128.066.258.094.389a9 9 0 0 1-.851 6.148zM11.891 6.69h-.031c-.089 0-.174.013-.262.017.111-.009.222-.013.332-.015zM7.42 14.674l.013.02c-.014-.024-.03-.045-.043-.069Zm-.048-.074c0 .01.012.019.018.029l-.022-.036Zm3.386-9.5a6.668 6.668 0 0 1 6.642 6.012 6.67 6.67 0 0 0-4.7-6l-.076-.023-.074-.021h-.006l-.072-.019h-.009l-.069-.018h-.012L12.306 5h-.014l-.065-.015h-.017l-.062-.013h-.02l-.06-.013h-.022l-.059-.012h-.023l-.057-.011h-.026l-.056-.009h-.028l-.053-.008-.03-.005-.052-.007h-.032l-.05-.006h-.034l-.046-.042h-.036l-.047-.005h-1.353l-.046.005h-.037l-.048.006h-.034l-.05.006h-.033l-.05.007-.031.005-.056.017H9.65l-.054.01h-.027l-.056.01h-.025l-.057.011h-.023l-.059.012h-.021l-.061.014h-.018L9.186 5H9.17l-.065.016h-.014l-.067.017h-.011l-.069.019h-.008l-.072.021h-.005l-.074.023a6.673 6.673 0 0 0-4.71 6.175v.367l.019-.06v-.1A6.669 6.669 0 0 1 10.758 5.1"/></svg>