<svg xmlns="http://www.w3.org/2000/svg" fill="#44739e" viewBox="0 0 24 24"><path d="M11.971.302a.717.717 0 0 0-.4443.155L.984 8.8189a.72.72 0 0 0-.1387.146c.1106-.1555.0364-.0454-.0481.0147s-.1992.136-.3133.2196a2.1 2.1 0 0 0-.1778.142c-.0637.0574-.1428.0977-.2407.3197-.0489.111-.105.316-.0254.549.0797.2328.2773.384.405.4412.2535.114.3528.0788.4631.0714.3987.0212.7369-.019.9221.0004.077.008.0865.016.0967.0199.0321 3.5784.0045 7.1665.0143 10.7593a.7.7 0 0 0 .0142.14 14 14 0 0 0-.0332.7643c-.0029.1987-.009.43.1374.7207.1464.2905.5648.5514.9082.5588l.0155.0001H17.664l.0214-.0003c1.1472-.0342 2.3893.0838 3.6854-.0698a.7166.7166 0 0 0 .6322-.7115v-1.493a2.7 2.7 0 0 0 0-.5145v-.025c-.0074-2.1321-.0015-4.2683 0-6.4062V12.473l-.002.054c.0587-.7764-.031-1.3894.0534-1.8034.041-.0094.1005-.0125.2154-.0135.2394-.0022.6014.0649 1.0555.008a.7.7 0 0 0 .0719-.0127c.0835-.0193.1965-.0508.329-.1603.1327-.1095.257-.332.2707-.5238.0274-.3834-.1316-.4981-.2017-.5802-.1401-.1642-.237-.2202-.3437-.2974-.1068-.0773-.213-.1496-.292-.207-.079-.0575-.1422-.1328-.075-.0494a.7.7 0 0 0-.0644-.07c-.3516-.3346-.7128-.5533-.9741-.7596-.23-.1815-.3575-.3314-.4339-.4978v-2.758c.0302-.1571.0477-.3165.0227-.493-.0312-.2203-.146-.4777-.3438-.649-.3436-.2979-.7112-.294-1.0355-.2403-.2475-.0277-.5515.0117-.7794.2292-.2941.2808-.2897.5729-.2914.7478-.0017.1748.0177.3049.0258.398s-.0085.1521.0126.0668a.72.72 0 0 0-.007.3125c.0336.1683-.022.4746-.0736.583l-.009-.0043L12.4157.4558A.717.717 0 0 0 11.971.302m-.0496 2.0578c.179-.001.3677.043.537.124 2.0467 1.5524 4.053 3.1908 6.1025 4.7898l-.0369-.0306c.4977.4449 1.033.776 1.4114 1.1154.3744.3358.5746.614.6143 1.0249.007.5624.0032 1.1267.0067 1.6896-.0115.2564-.01.4965.0028.7163.0038.8909.0113 1.7812.0107 2.6732v6.8669c-.0252.1724-.0783.341-.1584.4678-.1356.2148-.2717.3136-.5226.318-5.108.0176-10.2192.0026-15.3324.0076a.7.7 0 0 0-.1147.0093c-.2591.0423-.557-.0313-.7577-.1747-.2008-.1434-.305-.3097-.3033-.5626l.0001-.008c-.0159-3.2704-.0023-6.5447-.0069-9.8222l-.0016.0501c.0466-.6777-.0274-1.3103-.0047-1.8356.022-.5104.111-.8716.3783-1.1827 2.521-2.058 5.1155-4.0495 7.68-6.0933.1265-.0945.3045-.1422.4955-.1432m.0529 3.088a.717.717 0 0 0-.4455.1535L7.5864 8.706a.7.7 0 0 0-.0472.0406c-.3182.2988-1.048.5889-1.5157 1.3886a.717.717 0 0 0-.098.355c-.026 2.8189-.0038 5.6327-.0111 8.4389a.7166.7166 0 0 0 .7164.7184h10.6824a.7166.7166 0 0 0 .7165-.7165v-3.4282l-.0002-.0105c-.0248-1.6826.0534-3.4142-.0416-5.1655a.717.717 0 0 0-.2598-.5143c-.2223-.1831-.4496-.3572-.6733-.5381-.059-.0526-.118-.1085-.1764-.1558-.1249-.1014-.24-.1837-.3585-.2715-.6408-.5119-1.2781-1.0262-1.9213-1.5293a30 30 0 0 0-.6431-.5056c-.5134-.402-1.0294-.8034-1.5367-1.208a.717.717 0 0 0-.4445-.1564m.0155 1.8898c.1212 0 .232.023.325.0598.8582.5636 1.673 1.3109 2.5985 2.007l-.0603-.0507c.2974.2797.5914.4863.8563.6798.1183.0946.2375.1889.3552.2838.2183.1902.368.3647.439.562.0629 1.9353.0093 3.9005.028 5.8854a1 1 0 0 0 .0014.037c.022.3584.0053.7513-.0688.9749-.0689.2077-.078.2482-.2702.2842-2.4683.053-4.9564.0078-7.4575.0234a1 1 0 0 0-.0414.0014c-.3645.0235-.7648.005-.9852-.0711-.211-.0727-.244-.0684-.2743-.2967-.0514-1.5956-.008-3.219-.023-4.8626l-.0022.0626c.0783-.9972-.077-1.7678.1288-2.2637.7944-.7602 1.7892-1.4122 2.7539-2.2065l-.0685.0497c.4367-.2803.76-.6052 1.048-.826.2833-.2173.4908-.3217.7173-.3337M.841 9.2831c.0046 0 .0246.0089.0308.0098a.7.7 0 0 0-.053-.0007c-.0074.0005-.0067-.0101.0222-.0092zm11.131.7894a.717.717 0 0 0-.4299.1432l-1.8238 1.3679a.717.717 0 0 0-.2866.5732v3.1917a.7166.7166 0 0 0 .7293.7164l3.6477-.0652a.7166.7166 0 0 0 .7036-.7163v-3.1266a.717.717 0 0 0-.2866-.5732l-1.8238-1.3679a.717.717 0 0 0-.4299-.1432m-10.677.3102c-.02.0226-.0301.0234-.0295.0228zm10.6787 1.4463c.3531.1659.6688.4339.9767.7821.107.4845.0448 1.1194.0475 1.86-.006-.002-.0216-.0121-.0878.005-.1414.0367-.4425.037-.7478.026l.0195.001c-.4546-.0287-.8553.0219-1.0777-.0076-.1112-.0147-.1558-.041-.1567-.0417 0 0-.002-.0065-.002-.0061-.004-.705-.052-1.3232.0449-1.8102.3459-.3484.682-.6544.9834-.8085m1.0367 2.5695c-.0126.063-.0024.0731-.0067.0722z"/></svg>