<svg xmlns="http://www.w3.org/2000/svg" viewBox="0 0 24 24"><path fill="#44739e" d="M20.03 7.332c.074.104.146.21.214.317a7.6 7.6 0 0 0-.489-.78l.018.028.019.032.051.083.012.02.056.097v.007c.02.034.041.07.059.106l.013.023c.021.031.04.064.06.095Zm.633 1.255a7.6 7.6 0 0 1 .346 1.106c.013.06.019.122.031.182a7.695 7.695 0 0 1-14.018 5.64 5.4 5.4 0 0 1-.263-.402 7.5 7.5 0 0 0 .476.77 7.698 7.698 0 1 0 13.009-8.234 7.6 7.6 0 0 1 .752 2.009 7.6 7.6 0 0 0-.333-1.071m-4.679 10.112a7.7 7.7 0 0 0 5.212-7.288 7.7 7.7 0 0 0-.046-.825 7.5 7.5 0 0 1 .047.825 7.702 7.702 0 0 1-5.213 7.288m5.096-8.564c.023.137.053.274.068.412-.015-.143-.047-.276-.068-.415ZM6.961 15.42l.061.095c.092.129.19.254.293.374l.027.031.019.023.063.071.116.125.069.071a7.6 7.6 0 0 1-.657-.801Zm11.312-4.012v.087c.012.135.019.271.022.409v-.173c0-.254-.013-.506-.037-.753 0 .073.007.145.009.219s.006.14.006.211M2.9 11.731v.15c0-.145.013-.287.025-.429l-.026.081c.002.066.001.132.001.198m14.57 3.095c.021-.042.042-.083.063-.125-.024.052-.053.103-.078.155l.013-.027Zm.064-.126-.001.001Zm-7.776 2.686A5.853 5.853 0 1 0 7.9 16.135a5.81 5.81 0 0 0 1.858 1.251m-3.414-5.383a5.688 5.688 0 1 1 5.688 5.688 5.688 5.688 0 0 1-5.688-5.688m15.793-4.272a10.999 10.999 0 1 0 .862 4.272 10.91 10.91 0 0 0-.862-4.272M12.032 22.816a10.813 10.813 0 1 1 10.813-10.813 10.813 10.813 0 0 1-10.813 10.813m.838-16.887a6.3 6.3 0 0 1 1.137.27q.139.048.274.101a6.1 6.1 0 0 1 .665.313c.073.039.145.081.216.122.105.062.209.128.31.198l.163.115c.099.072.195.147.29.231.044.036.088.071.13.11q.193.173.371.346l.007.007c.101.105.2.212.293.324.031.037.062.075.092.116a6.149 6.149 0 0 1 1.057 5.675l.015-.045a7.65 7.65 0 0 0 .382-2.309 7.705 7.705 0 0 0-5.415-6.742l-.087-.031-.086-.024h-.007l-.083-.022h-.01l-.08-.021h-.014l-.077-.02h-.016l-.079-.029h-.019l-.072-.016h-.023l-.069-.015h-.026l-.068-.014h-.026l-.066-.012h-.03l-.065-.011-.032-.006-.061-.041h-.035l-.06-.008h-.037l-.059-.014h-.039l-.056-.007H9.722l-.056.007h-.039l-.058.007h-.038l-.059.015h-.035l-.06.014h-.034l-.062.011H9.25l-.065.012h-.029l-.066.013h-.026l-.068.013h-.025l-.07.017h-.022l-.072.017h-.018l-.075.018h-.016l-.078.02h-.012l-.08.022h-.009l-.083.074-.087.025a7.704 7.704 0 0 0-5.412 6.696 8.38 8.38 0 0 1 1.039-2.106l.065-.093.011-.017.056-.077.024-.033.043-.059.037-.05.031-.04.05-.067.004-.023.066-.083a8.324 8.324 0 0 1 4.456-2.856c.095-.025.189-.049.285-.07a8.33 8.33 0 0 1 3.758.05Zm-.838-4.584A10.658 10.658 0 1 0 22.69 12.003 10.671 10.671 0 0 0 12.032 1.345m.504.237c-.332-.017-.666-.019-.998 0 .335-.019.668-.015.998 0m6.674 17.991c.175-.166.339-.346.502-.518-.163.176-.326.352-.502.518m.664-.693q.317-.36.598-.748-.28.39-.598.751Zm1.374-1.988a8.35 8.35 0 0 1-4.904 3.473c-.096.023-.189.048-.286.069a8.8 8.8 0 0 1-1.039.157 8.33 8.33 0 0 1-4.596-.912l-.019-.01-.074-.04-.025-.013-.013-.007-.062-.035-.02-.012h-.013l-.017-.01-.055-.031-.016-.009-.018-.011-.024-.014-.047-.027-.015-.009-.016-.011-.04-.023-.034-.021-.013-.008h-.008l-.079-.049-.089-.057-.031-.021-.056-.038-.012-.007-.019-.028-.034-.023-.013-.004-.016-.012-.038-.026-.015-.019-.038-.028-.05-.031-.022-.016-.028-.021-.048-.034-.055-.044-.05-.038-.048-.037-.053-.041-.044-.034-.066-.053-.031-.028-.095-.08-.03-.024-.065-.057-.035-.032-.038-.038-.016-.014-.036-.034-.026-.022-.014-.013-.017-.017-.037-.035-.018-.017-.015-.015-.022-.021-.036-.035-.02-.008-.014-.014-.029-.029-.033-.033-.012-.01-.046-.047-.026-.028a4 4 0 0 1-.088-.092q-.073-.076-.142-.156-.166-.187-.322-.383c-.087-.115-.171-.223-.253-.337a8.35 8.35 0 0 1-1.353-3.075 8.5 8.5 0 0 1-.175-1.31v-.008c0-.059-.013-.115-.018-.174v-.888l.007-.115v-.115l.008-.075v-.035l.011-.086v-.022l.013-.097A6.14 6.14 0 0 1 7.183 8.26l.082-.104.087-.105.014-.016.038-.044.026-.031.018-.02a6.12 6.12 0 0 1 3.287-1.929 6.35 6.35 0 0 1 .809-.115 7.74 7.74 0 0 0-1.579.218c.129-.037.258-.07.389-.099a6.2 6.2 0 0 1 .809-.116c.135-.011.27-.016.405-.018h-.081a7.699 7.699 0 1 0 0 15.397h.386a7.62 7.62 0 0 0 2.063-.282 8.31 8.31 0 0 0 2.381-.168c.097-.021.191-.046.286-.069a8.36 8.36 0 0 0 2.573-1.142 10.427 10.427 0 0 1-15.616-1.52A10.438 10.438 0 0 1 9.825 1.802c.151-.033.302-.061.453-.087l.128-.02h.041l.096-.014.055-.008.133-.018h.695l.066.006h.04l.067.007h.039l.068.007h.038l.069.009h.037l.069.011h.037l.069.011h.036l.069.012h.035l.071.012.034.007.071.014h.032l.072.015.031.007.074.016.03.007.074.018.029.007.074.018.028.007.076.02.026.008.069.085.025.007.076.022.026.007.077.024.023.007.078.024.022.008.079.026.022.007.078.027.021.007.08.029.019.007.08.03.019.007.08.031.018.007.08.032.018.009.081.033.016.007.081.035.016.006.081.036.015.007.08.038.015.006.081.039.014.007.082.041h.013l.081.041.012.007.082.043h.011l.082.045h.011l.082.046h.009l.082.047h.01l.081.049h.01l.081.05h.009l.081.05h.008l.08.052h.009l.08.053h.007l.081.056h.007l.08.055.081.058h.005l.08.059.08.06.078.061h.006l.078.064.079.064.077.066.078.067.078.068.079.07q.196.178.379.37l.073.077.086.093.006.008c.029.03.057.062.085.093l.081.094q.27.318.504.655l.01.015.042.061.019.028.034.051.008.012.027.041.018.028.015.024v.007l.031.05.059.116.008.013.026.042.029.047.02.033.032.055.013.023.034.056.006.011.029.052a8.306 8.306 0 0 1-.671 9.173c.044-.078.083-.159.123-.24l-.048.09-.008.014-.059.105-.014.024-.055.094-.01.015c-.058.076-.115.15-.182.224a8.36 8.36 0 0 1-1.181 1.14l-.01.008-.074.059-.035.027-.048.036-.052.039-.011.007-.078.058-.042.03-.051.038-.053.035-.046.033-.052.033-.07.046-.065.041-.052.031-.051.031-.054.031-.047.027-.09.051-.049.026-.056.029-.049.026-.066.032-.061.031-.07.034-.048.02-.061.028-.045.02q-.048.022-.097.041l-.039.016-.068.028-.045.017-.069.026-.039.015-.1.034-.04.014-.071.023-.041.014-.085.026-.033.01-.095.027-.04.01-.074.02-.038.01-.105.024-.027.007-.085.019-.033.008-.083.016h-.029l-.108.02h-.029l-.085.012h-.034l-.104.014h-.007l-.115.013h-.029l-.091.009h-.024l-.116.008-.115.006h-.527a6.2 6.2 0 0 1-1.322-.176 6.2 6.2 0 0 1-.55-.171c-.116-.041-.231-.084-.335-.13a4.6 4.6 0 0 1-.203-.091 7 7 0 0 1-.319-.162 6 6 0 0 1-.605-.38 5.9 5.9 0 0 1-.746-.632 7.699 7.699 0 0 0 12.778-8.086l-.045-.116V8l-.045-.105v-.01l-.045-.102v-.012l-.045-.098-.007-.014a2 2 0 0 0-.046-.096l-.007-.015a4 4 0 0 0-.047-.095l-.009-.015-.047-.093-.009-.016-.05-.059a7.735 7.735 0 0 0-2.309-2.323 8.384 8.384 0 0 0-5.047-3.348 10.433 10.433 0 0 1 9.493 7.749c.038.147.076.298.109.449a10.39 10.39 0 0 1-.983 7.097ZM11.906 5.873h-.036c-.102 0-.201.015-.302.019.128-.01.256-.015.383-.017ZM6.744 15.09l.015.023c-.016-.028-.034-.052-.049-.08Zm-.055-.085c0 .011.014.022.021.033l-.026-.041Zm3.909-10.968a7.698 7.698 0 0 1 7.668 6.941 7.7 7.7 0 0 0-5.426-6.927l-.088-.027L12.667 4h-.007l-.083-.022h-.011l-.079-.021h-.014l-.088-.035h-.016l-.075-.018h-.02l-.071-.015h-.023l-.07-.015h-.025l-.068-.014h-.027l-.065-.012h-.03l-.065-.011h-.032l-.062-.009-.034-.006-.06-.008h-.037l-.058-.007h-.039l-.053-.048h-.042l-.054-.006H9.797l-.053.006h-.043l-.055.007h-.04l-.057.007h-.038l-.058.008-.036.006-.065.019h-.033l-.062.012h-.032l-.064.011h-.029l-.066.013H9.04l-.069.014h-.024l-.07.016h-.021l-.073.05h-.018l-.075.018h-.016l-.078.02h-.012l-.08.022h-.009l-.083.024h-.006l-.086.026a7.704 7.704 0 0 0-5.437 7.129v.424l.022-.069V11.4a7.699 7.699 0 0 1 7.693-7.363"/></svg>