<svg xmlns="http://www.w3.org/2000/svg" viewBox="0 0 24 24"><path fill="#44739e" d="M18.305 10.199c0 1.69-.053 3.382-.182 5.074a.888.888 0 0 1-.963.962c-1.692.131-3.384.183-5.075.183s-3.385-.052-5.075-.183a.889.889 0 0 1-.963-.962c-.13-1.692-.182-3.384-.182-5.074s.052-3.384.182-5.076a.889.889 0 0 1 .963-.962c1.691-.131 3.383-.183 5.075-.183s3.383.052 5.075.183a.888.888 0 0 1 .963.962c.11 1.692.182 3.384.182 5.076m2.056 0c0-2.057-.078-4.087-.261-6.116a2.059 2.059 0 0 0-1.87-1.87c-2.03-.182-4.086-.26-6.116-.26-2.055 0-4.086.078-6.116.26a2.06 2.06 0 0 0-1.87 1.87c-.189 2.029-.268 4.085-.268 6.116s.103 4.085.26 6.114a2.059 2.059 0 0 0 1.87 1.87c2.029.183 4.085.261 6.116.261 2.056 0 4.085-.104 6.116-.261a2.058 2.058 0 0 0 1.87-1.87c.182-2.029.26-4.059.26-6.114m-7.669-.027V7.621h1.297a1.163 1.163 0 0 1 1.254 1.25 1.176 1.176 0 0 1-1.275 1.275h-1.276Zm-1.379 3.748h1.379v-2.576h1.54a2.323 2.323 0 0 0 2.39-2.447 2.289 2.289 0 0 0-2.394-2.42h-2.915Zm-2.837 0h1.379V6.477H8.467Zm12.525 7.026a1.085 1.085 0 0 0 1.142 1.1 1.19 1.19 0 0 0 .866-.341l-.2-.371a.968.968 0 0 1-.618.268.641.641 0 0 1-.66-.66.626.626 0 0 1 .64-.652.836.836 0 0 1 .55.22l.231-.358a1.072 1.072 0 0 0-.811-.315 1.085 1.085 0 0 0-1.142 1.1m-1.03 1.052h.523v-2.092h-.523Zm0-2.464h.519v-.464h-.519Zm-1.548 1.693a.77.77 0 0 0 .873.792 1 1 0 0 0 .163-.012v-.451a.47.47 0 0 1-.094.009.375.375 0 0 1-.417-.396v-.818h.477v-.418h-.477v-.605h-.512v.605h-.286v.418h.273v.88Zm-2.012.149c0-.294.44-.33.704-.33h.089v.052a.54.54 0 0 1-.473.55c-.22-.008-.32-.141-.32-.278m-.528.022a.66.66 0 0 0 .716.66.682.682 0 0 0 .639-.371h.009a1.3 1.3 0 0 0-.009.149v.175h.482v-1.32a.783.783 0 0 0-.873-.84 1.43 1.43 0 0 0-.828.26l.196.375a1.14 1.14 0 0 1 .58-.2c.23 0 .405.094.405.371v.03h-.069c-.345 0-1.248.043-1.248.711m-3.754.61h.523v-.925a1.1 1.1 0 0 1 .026-.269.55.55 0 0 1 .515-.482c.248 0 .286.193.286.423v1.258h.524v-.925a1.07 1.07 0 0 1 .026-.273.55.55 0 0 1 .508-.477c.243 0 .289.184.289.422v1.253h.52v-1.355c0-.55-.252-.802-.691-.802a.829.829 0 0 0-.72.44h-.01a.582.582 0 0 0-.614-.44.795.795 0 0 0-.686.44h-.009a1.3 1.3 0 0 0 .009-.145v-.239h-.504v2.101Zm-2.157-1.258a.701.701 0 0 1 .716-.634.579.579 0 0 1 .588.634Zm-.303.22a1.049 1.049 0 0 0 1.087 1.087 1.192 1.192 0 0 0 .77-.289l-.128-.213a.96.96 0 0 1-.63.251.782.782 0 0 1-.805-.822h1.594s.007-.094.007-.146a.867.867 0 0 0-.864-.958 1.013 1.013 0 0 0-1.028 1.09m-3.63 1.037h.271v-.98a1.2 1.2 0 0 1 .03-.278.758.758 0 0 1 .682-.609c.391 0 .44.307.44.618v1.255h.281v-.98a.95.95 0 0 1 .039-.302.735.735 0 0 1 .66-.589c.379 0 .452.282.452.618v1.249h.276v-1.32c0-.512-.188-.805-.691-.805a.844.844 0 0 0-.763.519H7.7a.576.576 0 0 0-.643-.519.843.843 0 0 0-.751.523h-.008a1.5 1.5 0 0 0 .008-.166v-.311h-.277v2.083Zm-2.433-1.049a.81.81 0 1 1 1.619 0 .811.811 0 1 1-1.619 0m-.286 0a1.1 1.1 0 0 0 2.2 0 1.1 1.1 0 0 0-2.2 0M1 21.998h.286v-.99a.92.92 0 0 1 .034-.277.785.785 0 0 1 .754-.587c.401 0 .452.289.452.613v1.241h.277v-1.32c0-.511-.184-.805-.695-.805a.898.898 0 0 0-.826.515h-.009a1.5 1.5 0 0 0 .009-.171v-1.27H1Z"/></svg>