<svg xmlns="http://www.w3.org/2000/svg" viewBox="0 0 24 24"><path fill="#44739e" d="M11.973 1.277a.657.657 0 0 0-.407.142L1.902 9.084a.66.66 0 0 0-.127.134c.101-.142.033-.041-.044.014s-.183.124-.288.201a1.9 1.9 0 0 0-.163.13c-.058.053-.13.09-.22.293-.045.102-.096.29-.023.503.073.214.254.352.371.405.232.104.323.072.424.065.366.02.676-.017.846.001.07.007.079.014.088.018.03 3.28.004 6.569.013 9.863a.64.64 0 0 0 .013.128 13 13 0 0 0-.03.701c-.003.182-.008.394.126.66.134.267.518.506.832.513h13.472l.02-.001c1.051-.031 2.19.077 3.378-.064a.657.657 0 0 0 .579-.652v-1.368a2.5 2.5 0 0 0 0-.472v-.023c-.006-1.954-.001-3.913 0-5.872v-1.827l-.001.049c.053-.711-.029-1.273.048-1.653.038-.008.093-.011.198-.012.219-.002.551.059.967.007a.6.6 0 0 0 .066-.011c.077-.018.181-.047.302-.147.122-.101.236-.305.248-.48.025-.352-.121-.457-.185-.532-.128-.151-.217-.202-.315-.273s-.195-.137-.267-.19c-.073-.052-.131-.121-.069-.045a.6.6 0 0 0-.059-.064c-.323-.307-.654-.507-.893-.696-.211-.167-.328-.304-.398-.457V5.402c.028-.144.044-.29.021-.452-.029-.202-.134-.438-.315-.595-.315-.273-.652-.269-.95-.22-.226-.025-.505.011-.714.21-.27.258-.266.525-.267.686-.002.16.016.279.024.364s-.008.14.011.062a.66.66 0 0 0-.006.286c.031.154-.02.435-.068.535l-.008-.004-6.158-4.856a.657.657 0 0 0-.408-.141m-.045 1.887c.164-.001.337.039.492.113 1.876 1.423 3.715 2.925 5.594 4.391l-.034-.028c.457.408.947.711 1.294 1.022.343.308.527.563.563.94.007.515.003 1.033.006 1.549-.01.235-.009.455.003.656.003.817.01 1.633.01 2.451v6.294c-.023.158-.072.313-.146.429-.124.197-.249.288-.479.292-4.682.016-9.367.002-14.054.007a.64.64 0 0 0-.105.008c-.238.039-.511-.029-.695-.16s-.28-.284-.278-.516v-.007c-.015-2.998-.002-5.999-.006-9.004l-.002.046c.043-.621-.025-1.201-.004-1.683.02-.467.102-.798.347-1.084 2.311-1.886 4.689-3.712 7.04-5.585.116-.087.279-.131.454-.131m.048 2.83a.657.657 0 0 0-.408.141L7.954 8.981a.6.6 0 0 0-.043.037c-.292.274-.961.54-1.39 1.273a.657.657 0 0 0-.089.325c-.024 2.584-.004 5.164-.011 7.736a.657.657 0 0 0 .657.659h9.792a.657.657 0 0 0 .657-.657v-3.152c-.023-1.543.049-3.13-.038-4.735a.657.657 0 0 0-.238-.472c-.204-.168-.412-.327-.617-.493-.055-.048-.109-.1-.162-.143-.115-.093-.22-.168-.329-.249-.587-.469-1.171-.94-1.761-1.402a28 28 0 0 0-.59-.463c-.47-.369-.943-.737-1.408-1.107a.657.657 0 0 0-.408-.144m.015 1.733c.111 0 .212.021.297.054.787.517 1.534 1.202 2.382 1.84l-.055-.046c.273.256.542.445.785.623.109.086.218.173.326.26.2.174.337.334.402.515.058 1.774.009 3.576.026 5.395a1 1 0 0 0 .001.034c.02.329.005.689-.063.894-.063.19-.071.227-.248.26-2.262.049-4.543.007-6.836.022a1 1 0 0 0-.038.001c-.334.021-.701.004-.903-.065-.193-.067-.223-.063-.251-.272-.047-1.463-.008-2.951-.021-4.458l-.002.058c.071-.914-.071-1.621.118-2.075.728-.697 1.64-1.295 2.524-2.023l-.063.046c.401-.257.697-.555.961-.758.26-.199.45-.294.658-.305M1.771 9.51c.004 0 .022.008.028.009a.6.6 0 0 0-.049-.001c-.006.001-.006-.009.021-.008m10.203.724a.657.657 0 0 0-.394.131l-1.672 1.254a.657.657 0 0 0-.262.525v2.926a.657.657 0 0 0 .668.657l3.344-.06a.657.657 0 0 0 .645-.657v-2.866a.657.657 0 0 0-.263-.525l-1.672-1.254a.657.657 0 0 0-.394-.131m-9.787.284c-.018.021-.028.021-.027.021Zm9.789 1.326c.323.152.613.397.895.717.098.444.041 1.026.044 1.705-.006-.002-.02-.011-.081.004-.129.034-.405.034-.685.024l.018.001c-.417-.026-.784.02-.988-.007-.102-.014-.143-.038-.144-.038l-.002-.006c-.003-.646-.047-1.213.041-1.659.317-.32.626-.6.902-.741m.95 2.355c-.011.058-.002.067-.006.066Z"/></svg>