<svg xmlns="http://www.w3.org/2000/svg" fill="#44739e" viewBox="0 0 24 24"><path d="M12.092 15.872c.964 0 1.927-.041 2.884-.1a8.23 8.23 0 0 0 2.921-.508 2.513 2.513 0 0 0 1.068-.86 4.24 4.24 0 0 0 .553-1.354 17.36 17.36 0 0 0 .439-3.12 26.1 26.1 0 0 0 .057-3.19 3.87 3.87 0 0 0-.871-2.6 3.94 3.94 0 0 0-2.351-.9 35.5 35.5 0 0 0-4.7-.268 35.5 35.5 0 0 0-4.7.268 3.94 3.94 0 0 0-2.351.9 3.87 3.87 0 0 0-.871 2.6 26.1 26.1 0 0 0 .057 3.19 17.36 17.36 0 0 0 .439 3.12 4.24 4.24 0 0 0 .553 1.35 2.513 2.513 0 0 0 1.068.86 8.23 8.23 0 0 0 2.921.508c.957.063 1.92.099 2.884.104m2.156-.817c-.1.017-.424.017-.785.025-.458.011-.914.013-1.371.012s-.913 0-1.371-.012c-.361-.008-.688-.008-.786-.025s-.2-.023-.168-.131.468-1.524.468-1.524c.288-.941.308-1 1.048-1.148a4.08 4.08 0 0 1 1.618 0c.74.145.76.207 1.048 1.148 0 0 .439 1.415.468 1.524s-.071.114-.169.131m1.967-.681c.169-1.327.3-2.656.4-3.988l.022-.222a53.8 53.8 0 0 0 .317-6.046.159.159 0 0 1 .138-.078c.178.052.362.1.541.17l.078.031h.007a2.7 2.7 0 0 1 .314.151 1.5 1.5 0 0 1 .288.216l.005.006a1.4 1.4 0 0 1 .1.113l.037.046a5.23 5.23 0 0 1 .547 3.015 25.2 25.2 0 0 1-.213 3.732c-.014.1-.028.212-.042.323v.015c-.011.086-.023.174-.035.263-.006.038-.011.076-.017.115s-.012.085-.019.128c-.01.063-.021.126-.032.188-.007.042-.016.084-.024.126s-.014.07-.022.105c-.013.063-.028.125-.044.187-.01.042-.021.083-.032.123s-.023.078-.036.117-.03.092-.046.136-.028.077-.044.114c-.023.058-.048.115-.075.17a2.06 2.06 0 0 1-.338.508c-.21.226-1.792 1.149-1.8.508.002-.055.01-.146.025-.272M6.2 14.141a2.06 2.06 0 0 1-.338-.508 3.6 3.6 0 0 1-.075-.167c-.016-.04-.031-.08-.046-.121s-.03-.086-.044-.131-.025-.079-.036-.119-.021-.077-.031-.115c-.016-.065-.032-.13-.046-.2l-.021-.1c-.008-.042-.017-.085-.025-.127-.011-.063-.021-.126-.031-.189-.007-.042-.013-.084-.019-.125s-.012-.081-.017-.121c-.011-.077-.021-.154-.031-.23l-.009-.068-.039-.3a25.2 25.2 0 0 1-.213-3.732 5.24 5.24 0 0 1 .546-3.015l.035-.043a1.4 1.4 0 0 1 .1-.113l.006-.006a1.5 1.5 0 0 1 .286-.211 2.7 2.7 0 0 1 .317-.153l.081-.031c.178-.066.362-.118.54-.17a.159.159 0 0 1 .138.078 53.8 53.8 0 0 0 .317 6.046l.022.222c.1 1.33.229 2.657.4 3.982.014.133.024.224.03.283-.01.632-1.591-.29-1.797-.516M8.682 3.856a23.6 23.6 0 0 1 3.41-.161 23.6 23.6 0 0 1 3.41.161c.057.023.062.065.035.164-.338 1.23-.728 2.862-1.076 4.1-.278.988-.6 2.262-1.8 2.388-.181.019-.372.034-.565.037s-.385-.018-.565-.037c-1.207-.126-1.526-1.4-1.8-2.388-.348-1.236-.738-2.868-1.076-4.1-.036-.099-.03-.141.027-.164m3.857 13.893.316.039c.111.014.137.107.137.214v1.121l-1.2-1.579a.224.224 0 0 0-.187-.1h-1.6v.307l.3.035c.107.016.146.071.146.219v1.147c0 .136-.037.2-.151.218l-.3.035v.3h1.449v-.3l-.311-.035a.168.168 0 0 1-.138-.185v-1.152l1.206 1.588a.244.244 0 0 0 .187.089h1.138v-1.717c0-.08.021-.191.138-.2l.316-.035v-.307h-1.45zm-4.477-.392c-1.281 0-1.855.5-1.855 1.21 0 .729.574 1.223 1.855 1.223s1.846-.494 1.846-1.223c0-.712-.574-1.21-1.846-1.21m0 2c-.516 0-.809-.191-.809-.787s.293-.778.809-.778.81.191.81.778-.299.788-.815.788zM4.3 17.749l.316.039c.107.014.138.1.138.21v.351h-1.4v-.356c0-.133.053-.2.147-.2l.306-.035v-.307H2v.307l.3.035c.12.014.151.1.147.219v1.147c0 .129-.036.2-.151.218l-.3.035v.3h1.818v-.3l-.314-.04c-.071-.009-.142-.054-.142-.2V18.8h1.4v.348c0 .1-.018.2-.138.213l-.32.039v.311h1.818V19.4l-.32-.036c-.062-.009-.133-.058-.133-.187V18c0-.121.044-.2.137-.21l.316-.035v-.307H4.3Zm12.119-.303h-2.243v.307l.281.029a.17.17 0 0 1 .147.193v1.219a.159.159 0 0 1-.129.178l-.3.039v.3h2.244c1.032 0 1.476-.5 1.476-1.165.005-.597-.444-1.1-1.476-1.1m-.347 1.828h-.578v-1.4h.578c.552 0 .783.13.783.7s-.231.7-.783.7m5.608.089c-.1-.013-.164-.111-.245-.236l-1.018-1.556a.246.246 0 0 0-.2-.125h-1.744v.307l.4.047a.118.118 0 0 1 .079.193l-.765 1.245a.228.228 0 0 1-.165.133l-.306.035v.3h1.449V19.4l-.249-.031c-.1-.014-.169-.076-.1-.183l.107-.173h1.392l.093.142c.1.147 0 .2-.12.214l-.249.031v.307H22V19.4Zm-2.508-.747.436-.7.444.7z"/></svg>