<svg xmlns="http://www.w3.org/2000/svg" viewBox="0 0 24 24"><path fill="#44739e" d="M15.186 17.455a2.53 2.53 0 0 0-.299-.915c-.187-.321-.363-.677-.646-.557-.395.168-.018.557.103.757a1.93 1.93 0 0 1 .292.935c.118 1.696-1.378 1.792-1.133 3.794a2.62 2.62 0 0 0 .53 1.305c.092.135.201.288.427.2.396-.153-.017-.599-.12-.77a1.91 1.91 0 0 1-.285-.935c-.1-1.728 1.382-1.744 1.131-3.814m-4.694-.028c-.039-.289-.485-1.714-.96-1.418-.064.039-.128.022-.15.181-.029.22.152.33.312.617a2.024 2.024 0 0 1 .257.985c.038 1.619-1.411 1.74-1.13 3.74.059.41.514 1.729 1 1.42.434-.276-.423-.648-.457-1.76-.051-1.645 1.41-1.744 1.128-3.765m2.348.008a2.74 2.74 0 0 0-.55-1.279c-.098-.141-.204-.257-.409-.163-.389.181 0 .557.136.779a1.96 1.96 0 0 1 .274.942c.078 1.698-1.381 1.745-1.132 3.778a2.53 2.53 0 0 0 .3.916c.11.204.337.699.668.566.52-.209-.389-.682-.421-1.785-.04-1.653 1.417-1.746 1.134-3.754m1.72-3.874a.298.298 0 1 0 .298.298.298.298 0 0 0-.298-.298m1.546 0a.298.298 0 1 0 .298.298.298.298 0 0 0-.298-.298m1.542 0a.298.298 0 1 0 .298.298.297.297 0 0 0-.298-.298m2.884-.474v-.207H3.465v1.956h17.051l.019-.147Zm-5.972 1.239a.466.466 0 1 1 0-.933.466.466 0 1 1 0 .933m1.546 0a.466.466 0 1 1 0-.933.466.466 0 1 1 0 .933m1.54 0a.466.466 0 0 1 0-.933.466.466 0 1 1 0 .933m1.553 0a.466.466 0 1 1 0-.933.466.466 0 1 1 0 .933m.002-.765a.298.298 0 1 0 .297.298.298.298 0 0 0-.297-.298M14.377 1l-4.743.001-.009 5.924 4.75.002Zm4.952 10.803-4.853-4.385c-.154-.129-.422-.075-.77-.075h-3.36c-.835 0-.609-.15-1.239.44L4.253 12.17a2.64 2.64 0 0 0-.451.447h16.397a9.1 9.1 0 0 0-.87-.814"/></svg>