<svg xmlns="http://www.w3.org/2000/svg" fill="#44739e" viewBox="0 0 24 24"><path d="M14.9 16.959a2.3 2.3 0 0 0-.272-.832c-.17-.292-.33-.615-.587-.506-.359.152-.017.506.093.688a1.755 1.755 0 0 1 .266.85c.107 1.542-1.253 1.629-1.03 3.449a2.38 2.38 0 0 0 .482 1.186c.083.123.182.262.388.182.36-.139-.016-.545-.109-.7a1.737 1.737 0 0 1-.259-.85c-.091-1.571 1.256-1.585 1.028-3.467m-4.267-.026c-.036-.262-.441-1.558-.873-1.289-.058.036-.116.02-.136.165-.027.2.138.3.283.561a1.84 1.84 0 0 1 .234.895c.034 1.472-1.283 1.582-1.027 3.4.053.373.467 1.572.909 1.291.394-.251-.385-.589-.416-1.6-.046-1.495 1.282-1.585 1.026-3.423m2.134.008a2.49 2.49 0 0 0-.5-1.163c-.089-.128-.185-.234-.372-.148-.353.164 0 .506.124.708a1.78 1.78 0 0 1 .249.856c.071 1.544-1.255 1.587-1.029 3.435a2.3 2.3 0 0 0 .273.832c.1.186.306.636.607.515.473-.19-.354-.62-.383-1.623-.036-1.502 1.288-1.587 1.031-3.412m1.564-3.522a.271.271 0 1 0 .271.271.271.271 0 0 0-.271-.271m1.405 0a.271.271 0 1 0 .271.271.271.271 0 0 0-.271-.271m1.402 0a.271.271 0 1 0 .271.271.27.27 0 0 0-.271-.271m2.622-.431V12.8H4.245v1.778h15.5l.017-.134zm-5.429 1.126a.424.424 0 1 1 0-.848.424.424 0 1 1 0 .848m1.405 0a.424.424 0 1 1 0-.848.424.424 0 1 1 0 .848m1.4 0a.424.424 0 0 1 0-.848.424.424 0 1 1 0 .848m1.412 0a.424.424 0 1 1 0-.848.424.424 0 1 1 0 .848m.002-.695a.271.271 0 1 0 .27.271.271.271 0 0 0-.27-.271M14.164 2l-4.311.001-.009 5.385 4.319.002zm4.502 9.821-4.412-3.987c-.14-.117-.383-.068-.7-.068H10.5c-.759 0-.554-.136-1.126.4l-4.413 3.988a2.4 2.4 0 0 0-.41.407h14.906a8.3 8.3 0 0 0-.791-.74"/></svg>