<svg xmlns="http://www.w3.org/2000/svg" fill="#44739e" viewBox="0 0 24 24"><path d="M14.949 8.387a16.96 16.96 0 0 0-2.61.261 2.228 2.228 0 0 0-1.93 1.964 5.3 5.3 0 0 0-.033.777v4.973h1.841v-5.08a1.172 1.172 0 0 1 .327-1 2.99 2.99 0 0 1 1.513-.368c.3-.024.892-.057.892-.057zM3.759 4.828V8.64a12.3 12.3 0 0 1 2.249-.24c1.743.024 2.618.965 2.683 2.192.017.311.008.483.008.818v4.957h-1.84V11.3c0-.622.041-1.391-1.35-1.383a6.83 6.83 0 0 0-1.693.2v6.249h-1.8V4.943zm8.36 15.354A27.05 27.05 0 0 1 2 18.481V17.45a25.8 25.8 0 0 0 9.939 1.75A31.02 31.02 0 0 0 22 17.491v1a31.11 31.11 0 0 1-9.881 1.693M18.2 4.174a2.086 2.086 0 1 0 2.082 2.086A2.09 2.09 0 0 0 18.2 4.174m.982 3.076V4.8l-2.454.891v.606L17.534 6v1.839l1.644-.589ZM18.2 3.814a2.442 2.442 0 1 1-2.441 2.446A2.447 2.447 0 0 1 18.2 3.814"/></svg>