<svg xmlns="http://www.w3.org/2000/svg" viewBox="0 0 24 24"><path fill="#44739e" d="M13.291 11.282v.149c.1-.056.1-.093 0-.149m-.744.198h.099l-.099-.198v.099Zm.992-.099-.05-.149v.149Zm-.05.049-.099-.198.049.198Zm-.446 0 .198-.049-.149-.149-.049.149Zm-.298-.198.149.248h.05v-.248l-.083.083-.016-.083Zm.893.099.099-.149h-.099c-.051.145-.061.214.099.248.152-.032.146-.099.149-.248l-.21.169Zm.049-.297v-.099h-.297v.049Zm-.644-.05-.298-.049c.094.123.158.103.298.049m.347-.103c.202 0 .467-.037.397-.298l-.397.248Zm-.347-.046-.446-.247c.043.267.198.294.446.297Zm.595-.595-.298.546c.242-.094.49-.287.298-.546m-.546.546-.347-.546c-.076.291.085.443.347.546m.1-.05-.05-.694c-.337.11-.127.476 0 .694Zm.099-.694-.05.694c.184-.186.393-.58.05-.694m6.754-7.865a3.93 3.93 0 0 0-1.587-.248c-.923-.091-1.853-.11-2.776-.199-2.314-.22-4.634-.272-6.942-.496a13.06 13.06 0 0 0-3.62-.182 2.66 2.66 0 0 0-1.734 1.27c-.099.198-.22 1.041-.404 1.041-.033.221-.208.374-.242.595a10.5 10.5 0 0 0 .007 1.388c-.013 1.199.049 2.41 0 3.607-.016.417-.189 1.722.38 1.749l-.051.594-.295.551v7.041l.099.149c.313 0 .364.808.454 1.041a2.494 2.494 0 0 0 1.629 1.472 7.05 7.05 0 0 0 2.54-.041v.529h.868v-.648l.212-.022c.499-.048.991-.089 1.493-.126v.474h1.094v-.55l1.094-.072v.399h.975v-.465c.629-.044 1.259-.094 1.889-.154.111-.011.213-.02.32-.028V23h1.004v-2.218c.618-.03 1.236-.052 1.851-.11a4.23 4.23 0 0 0 1.636-.257c1.479-.781 1.24-2.556 1.24-3.958 0-3.481.1-6.941.1-10.415.002-1.396.207-3.086-1.234-3.865m-5.179 10.33-3.733.09h-.039a1.628 1.628 0 0 1-1.626-1.632v-.16a1.627 1.627 0 0 1 1.652-1.628l3.733.072a1.636 1.636 0 0 1 1.601 1.632 1.617 1.617 0 0 1-1.588 1.623Z"/></svg>