<svg xmlns="http://www.w3.org/2000/svg" fill="#44739e" viewBox="0 0 24 24"><path d="M13.17 11.364v.136c.091-.051.091-.085 0-.136m-.675.18h.09l-.09-.18v.09zm.9-.09-.045-.135v.135zm-.045.045-.09-.18.045.18zm-.405 0 .18-.045-.135-.135-.045.135zm-.27-.18.135.225h.045v-.225l-.075.075-.015-.075zm.81.09.09-.135h-.09c-.046.131-.055.194.09.225.138-.029.133-.09.135-.225l-.19.153zm.045-.27v-.09h-.27v.045zm-.585-.045-.27-.045c.085.112.143.094.27.045M13.26 11c.183 0 .424-.033.36-.27l-.36.225zm-.315-.041-.405-.225c.039.243.18.267.405.27zm.54-.54-.27.495c.219-.085.444-.26.27-.495m-.495.495-.315-.495c-.069.264.077.402.315.495m.09-.045-.045-.63c-.306.1-.115.432 0 .63zm.09-.63-.045.63c.167-.169.357-.527.045-.63M19.3 3.1a3.57 3.57 0 0 0-1.44-.225c-.838-.082-1.682-.1-2.52-.18-2.1-.2-4.206-.247-6.3-.451a11.85 11.85 0 0 0-3.286-.165A2.415 2.415 0 0 0 4.18 3.232c-.09.18-.2.945-.367.945-.03.2-.188.339-.219.54a9.5 9.5 0 0 0 .006 1.26c-.012 1.088.045 2.187 0 3.273-.014.379-.171 1.563.345 1.588l-.046.539-.268.5v6.391l.09.135c.284 0 .33.733.412.945a2.264 2.264 0 0 0 1.478 1.336 6.4 6.4 0 0 0 2.306-.037v.48h.788v-.588l.192-.02c.453-.044.9-.081 1.355-.115v.431h.993v-.5l.993-.065v.362h.885v-.422c.571-.04 1.143-.085 1.715-.14.1-.01.193-.018.29-.025V22h.911v-2.013c.561-.027 1.122-.047 1.68-.1a3.84 3.84 0 0 0 1.485-.233c1.343-.709 1.126-2.32 1.126-3.593 0-3.159.09-6.3.09-9.453.002-1.267.188-2.801-1.12-3.508m-4.7 9.376-3.388.082h-.036A1.478 1.478 0 0 1 9.7 11.077v-.146a1.477 1.477 0 0 1 1.5-1.477l3.388.065A1.485 1.485 0 0 1 16.041 11a1.468 1.468 0 0 1-1.441 1.473Z"/></svg>