<svg xmlns="http://www.w3.org/2000/svg" viewBox="0 0 24 24"><path fill="#44739e" d="M13.54 13.917a.087.087 0 0 0 .09 0 33.57 33.57 0 0 0 6.647-4.152 3.273 3.273 0 0 0 1.111-2.207 5.494 5.494 0 0 0-1.78-3.632 50.27 50.27 0 0 0-6.088 9.881s-.03.071.02.11m9.233-4.392s-5.73 3.074-8.694 5.08a.115.115 0 0 0-.041.1s.031.05.071.05c1.058 0 5.081 0 5.18-.009a3.93 3.93 0 0 0 1.158-.27 3.998 3.998 0 0 0 2.176-2.072 4.104 4.104 0 0 0 .15-2.879m-1.797 5.959-6.747-.243v.011a.091.091 0 0 0-.081.048.101.101 0 0 0 .031.09 17.27 17.27 0 0 0 3.543 2.097s1.747.593 3.254-2.003m-8.354-2.126.01.02c.059.03.1-.04.1-.04.648-.938 3.553-5.26 4.152-7.896a4.44 4.44 0 0 0 0-2.145 3.135 3.135 0 0 0-2.226-2.087s-.51-.13-1.058-.21c0 0-1.997 2.576-1.028 12.288a.067.067 0 0 0 .05.07m-1.352 0c.04.05.079.03.079.03a.073.073 0 0 0 .061-.08c.957-9.713-1.025-12.284-1.025-12.284l.011-.009c-.29.029-1.089.209-1.089.209a3.116 3.116 0 0 0-2.206 2.082 4.15 4.15 0 0 0 0 2.146c.6 2.643 3.524 6.998 4.169 7.906m-7.742 1.108a3.91 3.91 0 0 0 1.287.28c.1.019 4.013 0 5.062 0 .039 0 .069-.05.069-.05v.009c.031-.05-.019-.1-.019-.1-2.965-2-8.705-5.069-8.705-5.069a3.992 3.992 0 0 0 2.306 4.93m6.229.789-6.738.229c.731 1.308 1.966 2.316 3.245 2.007a17.03 17.03 0 0 0 3.553-2.097c.05-.05.029-.09.029-.09v.011a.096.096 0 0 0-.089-.06m-6.045-5.49a33.65 33.65 0 0 0 6.668 4.161c.011 0 .061.021.09-.019v.01a.066.066 0 0 0 .02-.08 49.82 49.82 0 0 0-6.104-9.911S2.47 5.742 2.615 7.568a3.22 3.22 0 0 0 1.097 2.197m18.422 9.652h.839v3.534h-.839Zm-3.842 1.843a1.61 1.61 0 0 0 .588 1.387 1.768 1.768 0 0 0 1.188.31h1.358v-.619h-1.318c-.629 0-.908-.23-.908-.868h2.226v-.62h-2.213v.021l-.01-.021h.014a.777.777 0 0 1 .895-.798h1.317v-.62h-1.341c-1.228 0-1.796.583-1.796 1.828m.918-.385v-.021h-.014Zm-2.736 1.257-.858-2.715h-.949l-.748 2.715-.879-2.715h-.868l1.278 3.534h.979l.708-2.636.819 2.636h.978l1.187-3.534h-.828Zm-5.372-2.687h-.854l-1.617 3.536h.853l.34-.839h1.657l.349.839h.898Zm-1.018 2.073.558-1.358.579 1.358Zm-2.471.015c0 .629-.2.889-.853.889s-.854-.27-.854-.889v-2.116h-.811v2.136a1.356 1.356 0 0 0 .22.948 1.781 1.781 0 0 0 1.437.488 1.785 1.785 0 0 0 1.438-.488 1.41 1.41 0 0 0 .229-.948v-2.136h-.806Zm-3.975-.679H1.841v-1.437h-.808v3.534h.808v-1.478h1.797v1.478h.798v-3.534h-.798Z"/></svg>