<svg xmlns="http://www.w3.org/2000/svg" viewBox="0 0 24 24"><path fill="#44739e" d="m19.386 3.721-.994-.827-.068.053.942.826Zm.737.432.33.36h.068l-.527-.635-.281-.165-.409-.36-.038.042.755.716Zm.897.679-1.168-1.277-.105-.059v.022l1.216 1.355Zm-3.029 11.679a.283.283 0 0 0 .282-.286l-.084-6.951a.46.46 0 0 0-.166-.346L12.27 4.153 7.309 8.287c-.28.315-.474.422-.549.611a.52.52 0 0 0-.033.213.908.908 0 0 0 .482.653c.691-.281 4.97-3.704 4.97-3.704l4.519 3.518-.015 5.45-7.366.307a2.64 2.64 0 0 0-.911.134q0 .053.683.1a9.5 9.5 0 0 0-2.371.22c0 .031.12.061.359.09l-.18.196 1.199-.016-.406.119.769.025-.584.201c2.468.129 8.707.113 10.116.107m4.905-6.212a11.225 11.225 0 0 0-1.922-4.995l-.316-.27.481.69-.391-.465-.149-.15-.271-.374-.54-.616.901 1.412-.343-.44-.723-.916-.316-.346-.18.031.946 1.051-.541-.506-.976-.961-.84-.57.044-.091-.104-.149-.796-.361-.826-.255 1.592.706-.15.09.329.271.75.494 1.419 1.43.11.109-.045.11-.461-.569-.932-.872-1.429-.93.202.15a9.9 9.9 0 0 1 .969.721 9.73 9.73 0 0 1 3.474 6.285 9 9 0 0 1 .11 1.429 9.943 9.943 0 0 1-9.87 9.686 9.732 9.732 0 0 1-9.622-9.687 9.523 9.523 0 0 1 5.852-8.744l.769-.471-.149-.11-1.276.451 1.186-.55-1.086.294.686-.263.204-.227-2.602 1.291 2.598-1.441-.856.264.571-.295-.931.295.588-.37a7.6 7.6 0 0 0-1.295.421 7.72 7.72 0 0 0-2.152 1.369c-.11.102-.22.207-.329.314a10.907 10.907 0 0 0 0 15.55 11.198 11.198 0 0 0 15.707 0c.257-.254.5-.519.727-.791a10.7 10.7 0 0 0 2.204-8.129"/></svg>