<svg xmlns="http://www.w3.org/2000/svg" viewBox="0 0 24 24"><path fill="#44739e" d="M3.222 4.525a.185.185 0 0 0 .074.187c.055.046.395 0 .488.119a.75.75 0 0 1 .112.503c.201 4.706 2.456 5.916 3.664 8.447a55.9 55.9 0 0 1 .616 5.75 3.855 3.855 0 0 0 1.549 1.026l.009.837a.45.45 0 0 0-.293.224l.014 1.015a1.246 1.246 0 0 0 1.749.017v-1.093a.277.277 0 0 0-.242-.176l-.01-.733h2.294v.749a.604.604 0 0 0-.305.238l.022.974a1.217 1.217 0 0 0 1.749-.038c.014-.019-.019-1.008-.019-1.008a.283.283 0 0 0-.242-.173l-.009-.88c.693-.066 1.404-1.026 1.495-1.136a22.57 22.57 0 0 1 .44-5.423c.416-1.56 3.321-2.806 3.61-8.368 0-.071-.026-.515.175-.683.146-.12.307-.085.439-.222a.57.57 0 0 0 .069-.197 129.4 129.4 0 0 0-17.448.044m4.42 6.505a.21.21 0 1 1-.417 0V9.916h.417Zm2.146 0a.21.21 0 1 1-.418 0V9.916h.418Zm0-1.424H9.37v-.11c0-.603-.284-.936-.803-.936a.95.95 0 0 0-.925 1.041h-.423V7.334a.21.21 0 1 1 .417 0V8.91l.055-.111a1.048 1.048 0 0 1 .992-.563c.709 0 1.099.453 1.099 1.274Zm3.993 0h.267a1.432 1.432 0 0 1 1.479-1.372A1.294 1.294 0 0 1 16.864 9.7v.024a.182.182 0 0 1-.204.186h-2.192v.009a1.069 1.069 0 0 0 1.186 1.046 1.63 1.63 0 0 0 .642-.11c.044-.014.09-.032.147-.047a.202.202 0 0 1 .17 0 .135.135 0 0 1 .06.097.173.173 0 0 1-.117.189 2.11 2.11 0 0 1-.937.183 1.445 1.445 0 0 1-1.573-1.375h-.265a.155.155 0 1 1 0-.309ZM10.64 8.484a.208.208 0 1 1 .416 0v1.122h-.416Zm2.14 0a.21.21 0 1 1 .418 0v1.122h-.425Zm0 1.533v-.101h.418v1.125a.21.21 0 1 1-.418 0v-.346.015a1.033 1.033 0 0 1-.982.586c-.764 0-1.151-.417-1.151-1.238v-.136h.416v.112c0 .631.28.937.856.937a.901.901 0 0 0 .854-.953Zm3.695-.421a.923.923 0 0 0-.942-1.046 1.042 1.042 0 0 0-1.065 1.045v.013h2.009Zm4.261-6.313a154.4 154.4 0 0 0-17.463.031c-.088 0-.093.897 0 .892a140 140 0 0 1 17.462 0 1.825 1.825 0 0 0 .001-.923m-8.872-.621c2.461 0 4.95.045 7.405.146l.667.026-.526-.41C17.55.973 14.467.991 12.214 1.002h-.268c-3.624-.013-6.09.465-7.342 1.419l-.543.412.681-.026c2.362-.096 4.759-.144 7.122-.145m.082-1.233h.271a14.115 14.115 0 0 1 6.285.917c-2.16-.074-4.343-.113-6.499-.113h-.139c-2.086 0-4.198.039-6.29.11a16.27 16.27 0 0 1 6.372-.914"/></svg>