<svg xmlns="http://www.w3.org/2000/svg" viewBox="0 0 24 24"><path fill="#44739e" d="M19.417 10.018a.193.193 0 1 0 .189.193.19.19 0 0 0-.189-.193m-1.512-.96a.193.193 0 1 0-.189-.193.19.19 0 0 0 .189.193m.755 3.074a3.309 3.309 0 0 0 3.283-3.333 4.24 4.24 0 0 0-.381-1.442.188.188 0 0 0-.242-.11.957.957 0 0 1-.807-.089 1.312 1.312 0 0 0-1.36 0 .939.939 0 0 1-.99 0 1.309 1.309 0 0 0-1.359 0 .966.966 0 0 1-.804.09.188.188 0 0 0-.245.11 4.2 4.2 0 0 0-.378 1.441 3.308 3.308 0 0 0 3.284 3.333m.756-1.345a.576.576 0 1 1 .568-.576.572.572 0 0 1-.568.576M17.905 8.29a.576.576 0 1 1-.568.575.571.571 0 0 1 .568-.575m-.507 2.163 2.269-2.113a.188.188 0 0 1 .268.011.195.195 0 0 1-.011.272l-2.269 2.114a.188.188 0 0 1-.268-.011.195.195 0 0 1 .011-.273m2.623-4.795a.378.378 0 0 0 .33.193.363.363 0 0 0 .188-.05.385.385 0 0 0 .142-.524Q19.961 4 19.186 2.754a.377.377 0 0 0-.524-.122.387.387 0 0 0-.121.531q.765 1.231 1.48 2.495m-1.36 7.242a4.052 4.052 0 0 0 3.945-3.232c.538-1.986-1.721-5.267-1.99-5.757-.557-.917-1.107-1.74-1.482-2.288a.572.572 0 0 0-.805-.143.6.6 0 0 0-.14.143c-1.073 1.559-3.565 5.376-3.565 7.175a4.07 4.07 0 0 0 4.037 4.102m-.162-11.056a.198.198 0 0 1 .278-.047.21.21 0 0 1 .046.047c.822 1.191 3.498 5.216 3.498 6.954a3.66 3.66 0 1 1-7.319 0c0-1.738 2.675-5.763 3.497-6.954M4.725 16.253h7.104v-2.704H4.725Zm4.085-2.031h2.343v1.358H8.81Zm-3.41 0h2.739v1.358H5.4Zm1.706-2.739h.628v.674h-.628Zm15.221 7.277v1.246h-.673V18.76h-.675v1.246h-.673V18.76h-.673v1.246h-.718V18.76h-.674v1.246h-.674V18.76h-.673v1.246h-.673V18.76h-.675v1.246h-.673V18.76H14.2v1.246h-.673v-6.958l.902 1.089 1.43-1.73-7.413-8.949-.783.945H3.379v.815h3.61l-.359.433H3.694v3.541L1.03 12.407l1.43 1.73.602-.726v6.6h-.716V18.76h-.673v1.246H1v.813h.673v1.191h.673v-1.191h.72v1.191h.673v-2.871h2.334v-.812H3.739v-5.689h-.034l4.741-5.72 4.408 5.318v6.092h-2.381v.813h2.381v2.871h.673v-1.193h.673v1.191h.673v-1.191h.673v1.191h.675v-1.191h.673v1.191h.673v-1.191h.673v1.191h.675v-1.191h.718v1.191h.673v-1.191h.673v1.191h.673v-1.191h.675v1.191H23v-3.25ZM4.367 6.178h1.59l-1.59 1.917Zm4.079-.694-5.983 7.22-.481-.58 6.464-7.8 6.465 7.8-.482.58Zm.681 5.999H9.8v.674h-.673Zm-.988 0h.628v.674h-.628Zm-.36 8.486h.674v.673h-.674Zm2.358-2.779H6.755v4.763H1v.673h22v-.673H10.137Zm-.674 4.739H7.429v-4.065h2.034ZM8.454 8.518a1.14 1.14 0 1 0 1.138 1.141 1.14 1.14 0 0 0-1.138-1.141m0 1.685a.55.55 0 1 1 .55-.55.55.55 0 0 1-.55.554Z"/></svg>