<svg xmlns="http://www.w3.org/2000/svg" viewBox="0 0 24 24"><path fill="#44739e" d="M12.052 6.842c-3.489 0-6.316 1.396-6.316 3.118s2.827 3.118 6.316 3.118 6.315-1.396 6.315-3.119-2.828-3.117-6.315-3.117m-.602.695a7.32 7.32 0 0 1 3.695.401c.266.255-1.188 1.076-2.918 1.43-2.472.498-1.296-1.41-.777-1.831M7.203 11.23c-.55-.387-1.609-1.497.155-2.651a5.92 5.92 0 0 1 2.097-.8c.311-.066.532.011.255.245a13.86 13.86 0 0 0-1.92 3.073c-.088.3-.266.377-.587.133m5.081 1.287c-1.043.11-3.362-.233-3.41-.532.046-.722 3.687-1.918 4.343-1.258.277.525-.257 1.76-.933 1.79m5.304-2.097c-.267.61-1.166 1.298-3.051 1.76-.29.066-.389-.11-.201-.277a17.7 17.7 0 0 0 1.998-3.19c.11-.256.321-.155.454-.056a1.526 1.526 0 0 1 .8 1.763m4.572 4.025H23v2.713h-.84Zm-3.67.92v1.714h.947v-.681h1.616v.681h.936v-2.64H19.37a.91.91 0 0 0-.88.926m.936.011a.233.233 0 0 1 .256-.245h1.362v.671h-1.615Zm-1.965-.925h-2.447v2.628h2.64c.373 0 .671-.512.677-.724v-1.21a.853.853 0 0 0-.869-.694m.03 1.733a.318.318 0 0 1-.33.31h-1.291v-1.373h1.271a.311.311 0 0 1 .35.298Zm-3.329-1.733h-2.799v2.633h.926v-1.957h1.266c.288 0 .362.133.362.357v1.596h.841v-2.018a.562.562 0 0 0-.596-.611m-3.821 1.595a.398.398 0 0 1-.351.44h-1.35v-2.035H7.8v2.617h2.799c.212 0 .585-.192.585-.522v-2.095h-.842Zm-4.33-.585-.873-1.01H4.31l1.276 1.531v1.097h.841v-1.022l1.266-1.606h-.819Zm-2.639-.074H1.851v-.936H1v2.617h.84v-1.096h1.533v1.107h.841v-2.628h-.841Z"/></svg>