<svg xmlns="http://www.w3.org/2000/svg" viewBox="0 0 24 24"><path fill="#44739e" d="M20.428 22.152a1.78 1.78 0 1 0-.431.424l.418.424.433-.427Zm-.424.418-.404-.403a1.221 1.221 0 1 1 .418-.408l.401.402Zm-7.168-3.143v2.174l-2.453-2.177h-.098v.001h-.041v3.367h.585l.006-2.165 2.445 2.171.14-.004v-3.368h-.584Zm-5.793-.097a1.78 1.78 0 1 0 1.78 1.78 1.782 1.782 0 0 0-1.78-1.78m0 2.999A1.219 1.219 0 1 1 8.26 21.11a1.22 1.22 0 0 1-1.217 1.219m8.167-2.903h.584v3.366h-.584Zm-11.93 0h.584v3.366H3.28Zm-.128-5.153h3.766v3.766H3.152Zm4.472-4.412h3.767v3.766H7.624Zm-4.472 0h3.766v3.766H3.152Zm8.931-4.439h3.766v3.766h-3.766Zm-4.435 0h3.767v3.766H7.648Zm-4.471 0h3.766v3.766H3.177ZM16.499 1h3.766v3.766h-3.766Zm-4.435 0h3.766v3.766h-3.766ZM7.63 1h3.766v3.766H7.63ZM3.158 1h3.767v3.766H3.158Z"/></svg>