<svg xmlns="http://www.w3.org/2000/svg" viewBox="0 0 24 24"><path fill="#44739e" d="m15.439 12.054.407.016v-.052l-.094-.071v-.017l-.065-5.826h-.159l.036 5.837-.125.073Zm-7.251-.487.407.016v-.054l-.093-.071v-.018l-.065-5.885h-.159l.037 5.896-.127.074Zm.018-5.807-.002-.279h.306l.003.301 6.942.512-.001-.264h.306v.037l.003.25.303.022.755-.742L7.871 5l-.752.679Zm8.774-.312v-.53l-8.976-.583v.514l2.044.137Zm-9.16-.575v-.487l-.752.709v.459l.282-.256Zm12.365 11.096a1.401 1.327 0 0 1-1.401 1.326 1.401 1.327 0 0 1-1.402-1.326 1.401 1.327 0 0 1 1.402-1.327 1.401 1.327 0 0 1 1.401 1.327m-5.945.996a1.329 1.329 0 1 0-1.402-1.327 1.368 1.368 0 0 0 1.402 1.327m-4.506-.244a1.329 1.329 0 1 0-1.401-1.326 1.367 1.367 0 0 0 1.401 1.326m-5.997-1.6a1.367 1.367 0 0 0 1.401 1.32 1.329 1.329 0 1 0 0-2.655 1.368 1.368 0 0 0-1.401 1.335m14.973-1.833-.008.157-.413.03-.118 1.148a1.54 1.54 0 0 1 1.225.018v-1.139l-.488-.052.009-.153Zm-4.521-.317-.008.158-.412.029-.119 1.161a1.525 1.525 0 0 1 1.228.021v-1.154l-.49-.053.009-.152Zm-4.526-.301-.008.156-.413.031-.123 1.195a1.53 1.53 0 0 1 1.231.016v-1.185l-.489-.051.009-.153Zm-4.593-.322-.008.157-.412.03-.13 1.241a1.53 1.53 0 0 1 1.235.015v-1.23l-.489-.052.01-.153Zm-2.54 4.477L23 18.164l-.038-.425-20.376-1.368Zm18.788-3.581 1.203 4.391.425.029-1.262-4.644h-.211Zm.998 4.95-1.067 1.013.006.458.216-.006 1.425-1.416-.368-.036ZM2.448 16.893l.001-.008h-.004l.037-.324-1.436 1.302-.046.376.209.039 1.572-1.363Zm-1.137 1.394 19.852 1.37v-.436L1.685 17.962Zm20.287-5.733-6.18-.428-.053-.002v-.001l-6.696-.464v.001l-.554-.023v-.017l-4.771-.33-.013.372 18.322 1.216Zm-18.925.114h-.321l-1.293 5.084.422-.382Zm.507-.549.076-.426.013-.349-.909.924v.267h.347Zm-.277 4.201.696-4.566-.274-.018c-.032.381-.4 2.611-.729 4.563Zm18.399 1.807-.357-.023.128 1.038.113.007.23-.229Zm-.891-4.399.464 3.796.343.023-.543-3.767Zm.987-.728-.279-.043-.704.692.001.001.281.058.554-.495Zm-17.799-.798 1.404.098.006-.134.352.015-.008.143 4.243.295.007-.131.351.015-.008.14 4.176.291.008-.144.351.015-.009.153 4.171.289.007-.14.352.015-.009.15 1.498.104.254-.251-17.108-1.17Zm16.728 1.444-.005-.008.014-.016-.869-.06.001.164.876.061ZM2.823 12.542l.312.022.022-.143-.155-.011Zm.722.051 1.016.072.015-.145-1.009-.07Zm5.625.248-3.343-.233v.148l3.327.236Zm4.524.317-3.274-.229v.153l3.259.231Zm4.521.316-3.268-.228v.159l3.251.231Zm3.364-.482-.066-.004.025.003v.001ZM3.19 12.208l-.15.131.129.01Z"/></svg>