<svg xmlns="http://www.w3.org/2000/svg" viewBox="0 0 24 24"><path fill="#44739e" d="M16 8.588a.617.617 0 0 0 .245-.524v-.136a.697.697 0 0 0-.123-.408.43.43 0 0 0-.122-.11.3.3 0 0 0-.037-.019V2.198a.64.64 0 0 0 .069-.298.614.614 0 0 0-.55-.616 5.7 5.7 0 0 0-.834-.15 23.5 23.5 0 0 0-2.662-.133 23.5 23.5 0 0 0-2.665.133 5.7 5.7 0 0 0-.836.15.614.614 0 0 0-.55.616.64.64 0 0 0 .07.298v5.199a.39.39 0 0 0-.1.085.715.715 0 0 0-.149.447v.13a.698.698 0 0 0 .123.409.45.45 0 0 0 .123.116v5.043a.4.4 0 0 0-.1.084.715.715 0 0 0-.148.449v.13a.697.697 0 0 0 .123.408.44.44 0 0 0 .083.087v5.102a.4.4 0 0 0-.058.056.715.715 0 0 0-.148.448v.13a.698.698 0 0 0 .123.409.368.368 0 0 0 .274.163c.11.018.229.035.354.052v1.249l.167.067a8.63 8.63 0 0 0 3.331.533 8.89 8.89 0 0 0 3.325-.531l.166-.069V21.14c.121-.015.237-.03.351-.045.22-.009.4-.264.4-.573v-.13a.693.693 0 0 0-.123-.408.43.43 0 0 0-.122-.116.33.33 0 0 0-.08-.037v-4.975a.3.3 0 0 0 .08-.036.617.617 0 0 0 .245-.523v-.13a.698.698 0 0 0-.123-.409.43.43 0 0 0-.122-.11.3.3 0 0 0-.037-.021V8.604Zm-.525-1.246a15.6 15.6 0 0 1-2.677.282h-1.576a16.55 16.55 0 0 1-2.725-.283V2.57a5.9 5.9 0 0 0 .821.146 23.6 23.6 0 0 0 2.668.133 23.6 23.6 0 0 0 2.668-.133 5.9 5.9 0 0 0 .821-.146Zm-6.978 6.225V8.711a20.2 20.2 0 0 0 3.101.246h.392a30.7 30.7 0 0 0 3.485-.245v4.861a15.6 15.6 0 0 1-2.676.283h-1.578a16.54 16.54 0 0 1-2.724-.289m-.043 1.375a20.2 20.2 0 0 0 3.101.245h.392a30.5 30.5 0 0 0 3.485-.245v4.863a15.6 15.6 0 0 1-2.677.282h-1.576a16.7 16.7 0 0 1-2.725-.282Z"/></svg>