<svg xmlns="http://www.w3.org/2000/svg" viewBox="0 0 24 24"><path fill="#44739e" d="M20.881 7.27c0-3.001-1.462-3.87-2.959-4.501l-.227-.098a1.085 1.085 0 0 0-.906-.136 18.26 18.26 0 0 1-4.783.693 12.76 12.76 0 0 1-4.708-.644 1.45 1.45 0 0 0-.55-.122 1.6 1.6 0 0 0-.475.091l-.022.007a3.945 3.945 0 0 0-2.268 1.9 7.194 7.194 0 0 0-.88 3.357v3.316a4.094 4.094 0 0 0 1.306 2.957 8.525 8.525 0 0 0 3.24 1.907 11.63 11.63 0 0 0 3.698.647l1.268.017a11.29 11.29 0 0 0 5.393-1.361 5.155 5.155 0 0 0 2.889-4.567Zm-3.042 7.737a10.956 10.956 0 0 1-5.218 1.312l-1.268-.018a10.248 10.248 0 0 1-6.699-2.455 3.762 3.762 0 0 1-1.21-2.711V7.824c.085-2.501 1.223-4.439 2.907-4.939l.022-.006a.968.968 0 0 1 .801.021 13.04 13.04 0 0 0 4.833.667 18.37 18.37 0 0 0 4.885-.709c.22-.069.293-.041.667.124l.231.099c1.451.613 2.75 1.394 2.75 4.19l.017 3.464a4.897 4.897 0 0 1-2.718 4.274Zm-.648-13.223c0-.41-2.289-.784-5.146-.784s-5.265.366-5.265.777a11.946 11.946 0 0 0 5.219.904 13.9 13.9 0 0 0 5.192-.897m-9.864.729a12.7 12.7 0 0 0 4.679.639 19.47 19.47 0 0 0 4.059-.495c.364-.11.717-.22 1.053-.357v-.354a13.62 13.62 0 0 1-5.233.861 14.08 14.08 0 0 1-5.206-.861V2.3c.062.031.126.061.19.089a1.76 1.76 0 0 1 .458.124m5.293 14.223-1.265-.017a11.73 11.73 0 0 1-3.66-.629v5.468c.053.428.66.77 1.484 1.025a11.96 11.96 0 0 0 2.572.417h.516a10.4 10.4 0 0 0 2.106-.273 3.278 3.278 0 0 0 1.766-1.254.39.39 0 0 0 .089-.253c.016-1.615-.008-4.257-.016-5.06a11.9 11.9 0 0 1-3.592.576m-.621-.94a7.363 7.363 0 0 1-4.307-.98c.092.194.36.587.283.845a11.3 11.3 0 0 0 3.378.563l1.266.018a11.44 11.44 0 0 0 3.41-.537 1.285 1.285 0 0 1 .274-.889 7.506 7.506 0 0 1-4.304.98m.009-12.15a15.43 15.43 0 0 1-3.96-.38c-.171-.051-.343-.11-.516-.17v11.413a9.306 9.306 0 0 0 4.437 1.051 9.67 9.67 0 0 0 4.498-1.051c0-3.74.097-7.732.097-11.472V3.01c-.096.037-.194.072-.292.11a19.52 19.52 0 0 1-4.264.526"/></svg>