<svg xmlns="http://www.w3.org/2000/svg" fill="#44739e" viewBox="0 0 24 24"><path d="M15.2997 8.876a.561.561 0 0 0 .223-.477v-.123a.634.634 0 0 0-.112-.371.39.39 0 0 0-.111-.1.3.3 0 0 0-.034-.018V3.065a.585.585 0 0 0 .063-.271.558.558 0 0 0-.5-.56 5.2 5.2 0 0 0-.759-.137 21.4 21.4 0 0 0-2.42-.121 21.4 21.4 0 0 0-2.424.121 5.2 5.2 0 0 0-.76.137.558.558 0 0 0-.5.56.585.585 0 0 0 .063.271v4.728a.35.35 0 0 0-.091.077.65.65 0 0 0-.135.407v.118a.635.635 0 0 0 .112.372.41.41 0 0 0 .112.105v4.586a.37.37 0 0 0-.091.077.65.65 0 0 0-.135.408v.118a.634.634 0 0 0 .112.371.4.4 0 0 0 .075.079v4.64a.36.36 0 0 0-.052.051.65.65 0 0 0-.135.407v.118a.635.635 0 0 0 .112.372.335.335 0 0 0 .249.149c.1.016.208.031.322.047v1.136l.152.061a7.85 7.85 0 0 0 3.029.484 8.08 8.08 0 0 0 3.024-.483l.151-.062V20.29c.11-.013.215-.027.319-.041.2-.008.364-.24.364-.521v-.118a.63.63 0 0 0-.112-.371.39.39 0 0 0-.111-.105.3.3 0 0 0-.073-.034v-4.524a.28.28 0 0 0 .073-.033.561.561 0 0 0 .223-.476v-.118a.635.635 0 0 0-.112-.372.39.39 0 0 0-.111-.1.3.3 0 0 0-.034-.019V8.89Zm-.478-1.133a14.2 14.2 0 0 1-2.434.256h-1.433a15.05 15.05 0 0 1-2.478-.257V3.403a5.4 5.4 0 0 0 .746.133 21.5 21.5 0 0 0 2.427.121 21.5 21.5 0 0 0 2.426-.121 5.4 5.4 0 0 0 .746-.133zm-6.345 5.661V8.988a18.34 18.34 0 0 0 2.82.223h.356a27.9 27.9 0 0 0 3.169-.222v4.42a14.2 14.2 0 0 1-2.433.257h-1.435a15.04 15.04 0 0 1-2.477-.262m-.039 1.25a18.34 18.34 0 0 0 2.82.223h.356a27.7 27.7 0 0 0 3.169-.223v4.422a14.2 14.2 0 0 1-2.434.257h-1.433a15.16 15.16 0 0 1-2.478-.257z"/></svg>