<svg xmlns="http://www.w3.org/2000/svg" viewBox="0 0 24 24"><path fill="#44739e" d="M9.921 16.687a1.238 1.238 0 0 0 0 2.442 1.238 1.238 0 0 0 0-2.442M20.46 6.604a3.963 3.963 0 0 0-3.651-4.042L6.636 1.759a3.955 3.955 0 0 0-2.922.97 3.956 3.956 0 0 0-1.685 3.219L1.956 17.92a3.963 3.963 0 0 0 3.531 3.962l9.958 1.094a3.94 3.94 0 0 0 2.657-.661 3.9 3.9 0 0 0 .387-.299 3.95 3.95 0 0 0 1.683-3.149ZM9.656 6.086l.526.043V8.93l-.526-.041Zm.263 13.39a1.59 1.59 0 0 1 0-3.155 1.59 1.59 0 0 1 0 3.155m8.472-17.661L8.218 1.013a3.947 3.947 0 0 0-2.719.802A3.946 3.946 0 0 1 7.36 1.51l10.173.802a3.963 3.963 0 0 1 3.65 4.046l-.287 12.262a3.947 3.947 0 0 1-1.555 3.056 3.963 3.963 0 0 0 2.414-3.557l.287-12.257a3.963 3.963 0 0 0-3.651-4.047"/></svg>