<svg xmlns="http://www.w3.org/2000/svg" viewBox="0 0 24 24"><path fill="#44739e" d="M12 2c-.462-.0002-.9248.0536-1.3672.1621-.0508.0125-.0968.0409-.1387.0723-.0416.0313-.0815.0676-.1074.1133a.27.27 0 0 0-.0312.0859 1.8 1.8 0 0 0 0 .3223 3 3 0 0 0 .0312.2226c.0418.2451.0958.4898.1973.7168.1105.2471.2739.4684.4629.6621.1472.151.3138.2886.5078.3711.0655.0279.1346.049.1914.0918.041.031.0696.0758.086.123.0185.0537-.0032.1147.0097.17a.15.15 0 0 0 .0215.0508.12.12 0 0 0 .0274.0273v1.1094c-.396.0056-.8008.0594-1.291.1738-.0023.0007-.0045.0002-.006.002-.0043.0049-.0047.013-.0059.0195-.0218.1218-.0652.2595-.0117.371.0156.0326.0696.0324.086.0645.0921.181.0176.4064.0098.6094-.006.1542-.0222.308-.043.461-.0239.175-.0367.3543-.0938.5214-.1152.3376-.2811.6631-.4941.9493-.2314.311-.5185.5852-.834.8105-.4098.2928-.9091.4357-1.3476.6836-.4474.2529-.9092.4926-1.3067.8184-.3547.2907-.6562.6438-.9453 1-.2052.2528-.4244.5051-.5566.8027-.2937.6611-.5129 1.39-.4942 2.1133.0216.832.2952 1.6677.6934 2.3984.288.5284.7308.9673 1.1855 1.3613.4306.3732.9197.686 1.4356.9278.4885.2289 1.0236.3427 1.545.4824.3264.0875.6576.1602.9902.2207.1248.0227.2542.0203.3769.0527a.6.6 0 0 1 .1133.045c.0403.02.083.0389.1152.0703a.37.37 0 0 1 .0899.1386c.0492.1389-.033.316.0468.4395.0078.012.0237.0166.0371.0215.259.0943.539.1406.8145.1406.276 0 .555-.0461.8145-.1406.0134-.005.0293-.0094.037-.0215.08-.1236-.0022-.3006.047-.4395a.37.37 0 0 1 .0898-.1386c.0322-.0314.075-.0503.1152-.0703a.6.6 0 0 1 .1133-.045c.1227-.0324.252-.03.377-.0527.3325-.0605.6637-.1332.9902-.2207.5213-.1397 1.0564-.2535 1.545-.4824.5158-.2418 1.0049-.5546 1.4355-.9277.4547-.3941.8976-.833 1.1855-1.3614.3982-.7307.6718-1.5665.6934-2.3984.0187-.7232-.2005-1.4522-.4942-2.1133-.1322-.2976-.3514-.55-.5566-.8027-.289-.3562-.5906-.7093-.9453-1-.3975-.3258-.8593-.5655-1.3067-.8184-.4385-.2479-.9378-.3908-1.3476-.6836-.3155-.2253-.6026-.4996-.834-.8105-.213-.2862-.379-.6117-.4942-.9493-.057-.1671-.0699-.3464-.0937-.5214-.0208-.153-.037-.3068-.043-.461-.0078-.203-.0824-.4285.0098-.6094.0164-.0321.0704-.0319.086-.0644.0534-.1116.01-.2493-.0118-.3711-.0012-.0064-.0016-.0146-.0059-.0195-.0015-.0018-.0037-.0013-.0059-.002-.4887-.1-.8929-.1595-1.291-.1719V5.1914a.12.12 0 0 0 .0274-.0273.15.15 0 0 0 .0215-.0508c.0129-.0553-.0088-.1163.0098-.17.0164-.0472.045-.092.086-.123.0568-.0429.1258-.064.1913-.0918.194-.0825.3607-.2202.5079-.371.189-.1938.3524-.415.4628-.6622.1015-.227.1555-.4717.1973-.7168a3 3 0 0 0 .0313-.2226 1.8 1.8 0 0 0 0-.3223.27.27 0 0 0-.0313-.086c-.0259-.0456-.0641-.0821-.1055-.1132-.0421-.0318-.0893-.0598-.1406-.0723A5.83 5.83 0 0 0 12 2"/></svg>