<svg xmlns="http://www.w3.org/2000/svg" viewBox="0 0 24 24"><path fill="#44739e" d="M14.394 6.338c-.727.044-1.486.077-2.267.077v6.922c.781 0 1.54-.033 2.267-.077Zm-2.609.088c-.781 0-1.54-.033-2.267-.077v6.911c.727.055 1.486.077 2.267.088Zm-2.619-.11c-.803-.066-1.563-.154-2.267-.264v6.9c.704.121 1.464.209 2.267.275Zm-2.608-.331c-.87-.154-1.629-.341-2.267-.561v6.879c.616.231 1.386.429 2.267.594V5.996Zm-2.609-.693c-.561-.22-.99-.462-1.276-.726l.033 6.669c.165.33.605.638 1.243.914V5.281Zm16.002.022v6.857c.683-.287 1.145-.606 1.321-.947V4.588c-.286.264-.737.506-1.321.726m-2.949.738c-.704.11-1.464.198-2.267.264v6.911c.803-.066 1.563-.154 2.267-.275V6.041Zm2.608-.606c-.638.209-1.408.396-2.267.55v6.901c.881-.165 1.64-.363 2.267-.583Zm-7.616 8.144c-4.71 0-8.716-.88-9.31-1.981v.408c0 1.408 4.182 2.509 9.31 2.509s9.201-1.09 9.289-2.498v-.419c-.605 1.112-4.578 1.981-9.289 1.981m.606 7.715v-5.646c.495-.066.88-.484.88-1.001-1.078.132-2.102.132-3.059 0v.044c0 .528.429.957.957.957v5.635H4.115V23h15.759v-1.706H12.6Zm8.716-17.983C21.283 2.09 17.079 1 12.006 1c-4.359 0-9.267.913-9.311 2.289l-.022.76c0 .077.022.121.055.176.858 1.056 4.655 1.838 9.266 1.838s8.167-.738 9.201-1.739c.066-.066.088-.154.11-.242l.022-.749h-.011Z"/></svg>