<svg xmlns="http://www.w3.org/2000/svg" viewBox="0 0 24 24"><path fill="#44739e" d="M19.488 10.91a2.091 2.091 0 0 0-1.436-1.569 2.03 2.03 0 0 0-.399-.079 2 2 0 0 0-.203-.01h-.339V6.141a1.53 1.53 0 0 0-.326-.942 1.58 1.58 0 0 0-.366-.338 1.52 1.52 0 0 0-.838-.251h-3.549V3.008h.825A2.007 2.007 0 0 0 14.864 1H8.843a2.008 2.008 0 0 0 2.008 2.008h.767v1.603H9.864l-.024-.024-.024.024H8.434a1.5 1.5 0 0 0-.197.014 1.532 1.532 0 0 0-1.326 1.37l-.017.016.015.015v.688l-.01.011.01.009v2.515H6.55a2.1 2.1 0 0 0-.528.068 2.083 2.083 0 0 0-.929.529 2.076 2.076 0 0 0-.624 1.485v5.077a2.14 2.14 0 0 0 .047.443l.024.094-.026.026.046.047a2.14 2.14 0 0 0 .135.339 2.085 2.085 0 0 0 1.66 1.128c.064 0 .13.009.195.009h.315v2.976a1.6 1.6 0 0 0 .025.278 1.53 1.53 0 0 0 .195.513 1.56 1.56 0 0 0 .333.385 1.526 1.526 0 0 0 .977.354h7.14a1.517 1.517 0 0 0 .774-.211l.007.008.027-.028a1.52 1.52 0 0 0 .518-.535 1.546 1.546 0 0 0 .205-.764v-2.976h.384c.062 0 .123 0 .184-.008a2.08 2.08 0 0 0 .856-.271 2.2 2.2 0 0 0 .389-.291 2.076 2.076 0 0 0 .54-.837 2.05 2.05 0 0 0 .112-.59v-5.162a2.1 2.1 0 0 0-.043-.425m-.637-.737a1.85 1.85 0 0 1 .265.43l-.308.308-.347-.346Zm-2.758-2.024-.382-.393.38-.394.383.394Zm.726-.036.025.025v.677l-.053.055-.353-.367Zm-1.854 8.702.351-.351.296.296-.351.351Zm.728 1.679-.338.355-.344-.355h.688Zm-8.812-4.696.346.347-.396.397-.347-.347Zm-.737.057-.338-.339.396-.397.338.339Zm2.944-3.621.338.339-.352.351-.338-.339Zm-.339-1.11.232-.241.234.241Zm7.966 3.879-.346-.346.375-.375.346.346Zm.714-.034.352.351-.375.375-.351-.351Zm-1.401-.652-.374-.376.374-.374.376.375Zm-5.551-2.115.347.347-.371.371-.348-.346Zm-.322-1.078.265-.275.266.275Zm1.698 1.077.351.35-.349.349-.351-.351Zm-.269-1.077.254-.263.254.263Zm1.65 1.078.362.362-.35.35-.363-.363Zm-.253-1.078.281-.283.28.289Zm1.67 1.065.346.347-.374.374-.347-.346Zm-.261-1.065.277-.286.277.286Zm-.79 2.821-.348.348-.347-.346.349-.349Zm-.006-.687.349-.35.347.347-.35.35Zm-2.771 2.091-.384.384-.362-.363.384-.383Zm-.023-.703.351-.35.362.362-.351.352Zm-.02 2.109-.389.389-.347-.346.389-.39Zm-.007-.687.384-.384.347.348-.383.382Zm.724-.723.351-.351.347.346-.351.351Zm.691-.692.371-.371.348.346-.373.373Zm1.058.316.351.351-.371.371-.351-.351Zm-.687-1.367-.362-.362.348-.349.363.362Zm-.338.338-.372.371-.363-.362.372-.372Zm-1.074-.331-.351-.351.371-.372.351.351Zm-.339.338-.351.351-.352-.351.352-.351Zm-.692.69-.383.384-.356-.344.384-.384Zm-.02 1.426-.389.39-.363-.362.389-.39Zm-.043 1.416-.401.407-.347-.347.402-.401Zm.339.339.351.351-.401.4-.352-.351Zm.338-.339.389-.389.351.351-.389.389Zm.729-.728.384-.384.35.351-.383.383Zm.723-.724.351-.352.352.352-.352.351Zm1.043.339.375.376-.352.35-.374-.375Zm.338-.339.372-.372.375.376-.371.371Zm.02-1.403.349-.349.352.352-.349.349Zm.69-.688.35-.35.35.351-.349.35Zm-.339-1.716-.362-.364.348-.347h.054l.338.338Zm-1.392-.014-.351-.351.347-.346h.006l.348.347Zm-1.38 0-.346-.346.349-.349.346.347Zm-1.398.025-.338-.338.372-.372.339.339Zm0 .677.347.346-.351.351-.346-.346Zm-.344 1.038-.383.383-.347-.347.383-.383Zm-.031 1.419-.389.39-.351-.352.389-.389Zm-.729.73-.402.402-.351-.353.401-.401Zm.338.339.363.363-.401.4-.363-.362Zm.315 1.791-.396.397-.347-.347.397-.396Zm-.045 1.427-.375.375-.352-.351.376-.375Zm-.011-.69.395-.396.351.351-.396.396Zm1.087.294.375.376-.396.396-.376-.376Zm.339-.338.397-.405.375.376-.401.4Zm1.117.313.346.347-.402.401-.346-.346Zm-.376-1.054.389-.39.376.375-.389.389Zm.73-.73.382-.384.376.376-.383.383Zm1.098.331.347.348-.383.383-.347-.347Zm.687.687.351.351-.384.384-.351-.351Zm-.347-1.026.351-.351.347.346-.351.351Zm.691-.691.372-.372.347.347-.373.372Zm0-1.427.349-.348.375.375-.348.349Zm.688-.688.35-.351.376.376-.35.349Zm.35-1.03-.351-.351.367-.38.351.352Zm-.323-1.752.339-.339h.021l.339.339-.348.346Zm.401-.975-.382-.395.356-.368.381.395Zm-.728-.751-.356-.369.355-.368.358.369Zm-.345.356-.356.367-.356-.369.354-.367Zm-1.064-.361-.352-.364.354-.366.353.365Zm-.345.358-.378.39-.356-.365.378-.391Zm-1.077-.331-.369-.381.378-.391.369.381Zm-.346.357-.357.369-.368-.381.356-.369Zm-1.072-.369-.356-.369.356-.369.358.369Zm-.345.357-.39.403-.357-.369.389-.403Zm-1.681 1.754-.348-.347.352-.351.347.347Zm.338 1.015-.383.384-.339-.339.384-.382Zm-.383 1.064.347.346-.39.39-.349-.343Zm-.729.048-.338-.338.389-.389.338.338Zm0 .677.346.347-.401.401-.347-.346Zm-.741.062-.339-.338.402-.402.338.339Zm.686 1.37.352.351-.397.396-.352-.348Zm.691.691.362.363-.396.396-.362-.362Zm.313 1.791-.375.375-.349-.349.374-.375Zm-.545 1.532h.478l.053.054-.408.422-.357-.369.104-.107Zm.878.412.367.381-.407.421-.369-.377Zm.345-.358.053-.054h.688l.025.026-.396.41Zm1.11.33.353.364-.396.41-.353-.365Zm.346-.358.025-.026h.706l-.377.391Zm1.089.319.357.369-.39.403-.357-.369Zm.339-1.948.389-.389.347.346-.39.389Zm.12 1.603h.587l-.345.357-.346-.357Zm.564-.917.39-.389.35.351-.389.39Zm.378 1.262.382.394-.357.369-.382-.394Zm.358-.345h.739l-.369.383Zm.685-.955.382-.383.296.295-.383.383Zm.382-1.063-.351-.351.351-.351.352.351Zm.692-.692-.351-.351.371-.371.351.351Zm-.326-1.748.348-.349.347.346-.349.349Zm.688-.689.35-.351.347.348-.35.35Zm1.037.339.351.351-.35.349-.351-.35Zm.69.691.296.295-.35.351-.295-.296Zm.637.636.346.346-.35.35-.346-.347Zm-.296-.976.375-.375.295.296-.374.374Zm.375-1.055-.351-.351.346-.346.351.35Zm-.342-1.729.351-.35.346.346-.351.351Zm.006.687-.347.347-.346-.347.346-.347Zm-1.033-.338-.376-.375.347-.347.375.376Zm-.715-.715-.351-.351.346-.347.351.351Zm-.186-1.763.25-.259.251.259ZM15.369 7.4l-.356-.369.38-.393.358.369Zm-.702-.726-.352-.365.38-.393.353.364Zm-.346.357-.356.368-.357-.363.356-.368Zm-1.059-.356-.369-.38.356-.368.369.38Zm-.345.358-.356.366-.369-.381.356-.367Zm-1.07-.373-.358-.369.356-.366.356.37Zm-.346.358-.383.39-.352-.372.378-.39Zm-1.081-.339-.352-.364.378-.39.352.364Zm-.345.358-.358.369-.352-.364.357-.369Zm-1.056-.352-.339-.356.357-.369.345.355Zm0 .714.353.365-.391.4-.352-.364Zm-.736.045-.344-.355.389-.404.345.357Zm0 .716.353.364-.396.408-.353-.362Zm-.741.051-.345-.356.396-.41.345.357Zm0 .715.189.196h-.379Zm.513 1.657-.383.384-.347-.347.384-.383Zm-.723.723-.389.391-.347-.348.39-.389Zm-.729.73-.401.402-.347-.348.401-.4Zm-1.088-.285-.297-.298.4-.401.298.297Zm0 .677.347.346-.397.396-.346-.346Zm.289 1.762-.374.374-.339-.338.375-.375Zm-.374 1.054.346.346-.324.325-.347-.346Zm.338-.339.375-.374.346.346-.374.374Zm.347 1.027.352.351-.325.323-.351-.35Zm.338-.339.375-.374.351.352-.375.374Zm1.065.317.363.363-.374.374-.36-.36Zm-.01 1.42.346.346-.325.325-.346-.348Zm-.064 1.629.357.369-.406.416-.274-.283v-.172Zm.703.725.369.382-.403.416-.369-.38Zm.715.739.352.365-.403.416-.353-.365Zm.345-.357.409-.422.352.364-.408.422Zm1.107.3.356.369-.407.422-.358-.369Zm.353-.356.397-.409.357.37-.396.408Zm1.1.317.381.395-.396.41-.382-.395Zm.345-.356.391-.404.381.395-.39.403Zm1.118.348.352.365-.39.403-.352-.365Zm.346-.357.357-.369.352.364-.356.369Zm.702-.727.378-.39.353.364-.377.391Zm1.077.332.357.369-.378.39-.357-.369Zm.703.726.3.311-.378.39-.3-.31Zm0-.715-.357-.369.354-.366.357.368Zm-.105-1.778-.347-.347.351-.351.347.347Zm-.291-1.673.372-.372.295.295-.372.373Zm.372-1.052-.352-.35.35-.349.351.351Zm.688-.009.296.296-.349.349-.296-.296Zm.635.636.348.346-.35.35-.346-.348Zm.687.687.351.351-.348.348-.351-.351Zm.339-.339.35-.349.35.352-.349.349Zm0-1.376.374-.375.347.348-.375.374Zm.079-1.354.347-.346.295.294-.347.348Zm.347-1.027-.352-.351.352-.352.351.352ZM18 9.598a1.78 1.78 0 0 1 .501.249l-.377.377-.375-.374Zm-.591.591.376.376-.352.351-.375-.376Zm-.338-.338-.352.351-.351-.351.338-.339h.031Zm-.226-2.477-.025.026-.381-.395.352-.364.054.055Zm-.248-1.984a1.24 1.24 0 0 1 .226.506l-.03.031-.356-.369Zm-.151.893-.353.365-.357-.369.352-.365Zm-.217-1.228-.141.145-.298-.308a1.27 1.27 0 0 1 .438.162Zm-.839.139.353.364-.353.364-.352-.364Zm-.383-.32-.316.326-.314-.326Zm-1.03.303.369.381-.381.394-.365-.383Zm-.399-.303-.327.339-.329-.339Zm-1.03.327.356.369-.355.368-.359-.369Zm-.376-.327-.326.339-.327-.339Zm-1.024.331.352.364-.355.367-.354-.367Zm-.368-.332-.328.339-.329-.339Zm-1.016.339.339.356-.378.39-.338-.356Zm-1.067-.339h.705l-.362.374-.352-.365Zm-.355.367.353.364-.358.369-.352-.364Zm-.476-.235-.236.243-.047-.049a1.26 1.26 0 0 1 .283-.194m-.237.961.353.365-.39.403-.352-.365ZM7.17 7.007l.081.084-.081.084Zm0 1.533.029.03-.029.032Zm-.095 1.061.298.298-.384.384-.298-.298Zm-.723.724.297.297-.39.39-.297-.298Zm-.616-.616.275.276-.389.389-.339-.338a1.84 1.84 0 0 1 .449-.327Zm-.753.706.299.299-.402.401-.112-.112a1.82 1.82 0 0 1 .212-.582Zm-.249 1.527.146-.146.298.297-.396.397-.048-.049Zm0 1.275.048-.048.347.347-.375.375-.02-.02Zm0 1.373.02-.02.339.339-.324.323-.035-.035Zm.01 2.036a1.7 1.7 0 0 1-.014-.217v-.46l.035-.035.347.346Zm.27.409.438-.439.351.352-.437.438Zm1.053 1.054-.364-.36.438-.438.363.362Zm.779-.779-.362-.362.323-.325.363.364Zm.28 3.428.269-.276.369.381-.38.394-.263-.271Zm.473 1.716a1.275 1.275 0 0 1-.324-.393l.112-.112.352.364Zm.464.237.024-.025.038.04Zm.024-.739-.353-.362.381-.394.352.364Zm.703.725-.358-.369.381-.393.357.369Zm.635.058.091-.094.091.094Zm.091-.807-.357-.369.404-.417.356.37Zm.728.752-.383-.395.404-.417.382.395Zm.636.056.113-.113.113.113Zm.113-.83-.382-.394.408-.422.381.394Zm.698.722-.347-.361.408-.422.352.364Zm.586.113.168-.173.167.173Zm.168-.888-.353-.365.396-.408.353.364Zm.703.726-.358-.369.396-.409.358.369Zm.385-1.135.39-.404.357.369-.391.404Zm.15 1.297.206-.214.208.214Zm.853-.261-.3-.31.39-.403.3.31Zm.09-1.427-.358-.369.358-.369.356.369Zm.703-.013.3.312-.358.369-.3-.312Zm.206 1.701h-.564l.296-.306.295.304Zm.435-.299-.352-.365.352-.374.353.364Zm.834-.97v.113l-.126.131-.352-.364.378-.392.106.113Zm0-1.335-.106.112-.3-.31.355-.366.051.053Zm0-1.336-.051.054-.348-.359h.399Zm-.165-1.692-.347-.347.371-.371.347.346Zm.69.691-.351-.351.371-.372.352.351Zm.412.411-.071-.071.371-.371.256.256a1.8 1.8 0 0 1-.556.18Zm.953-.47-.313-.313.348-.349.278.278a1.87 1.87 0 0 1-.313.382Zm.515-.862-.139-.139.194-.196a1.74 1.74 0 0 1-.055.333Zm.061-1.32-.201-.2.201-.201Zm0-1.429-.174-.173.174-.173Zm0-1.373-.122-.122.122-.122Zm0-1.382-.122-.122.113-.113a1.8 1.8 0 0 1 .01.194Z"/></svg>