<svg xmlns="http://www.w3.org/2000/svg" viewBox="0 0 24 24"><path fill="#44739e" d="M17.573 16.314a.469.469 0 0 0-.469-.468h-1.343a.469.469 0 0 0-.469.468v2.734h2.281Zm-3.854 3.953V23h2.282v-2.733a.471.471 0 0 0-.47-.47h-1.343a.47.47 0 0 0-.469.47m-7.292-2.064v2.733h2.281v-2.733a.469.469 0 0 0-.469-.469H6.896a.469.469 0 0 0-.469.469m8.157-5.628.008 7.099h.562l.014-6.94a1.1 1.1 0 0 0-1.1-1.1h-.77a.288.288 0 0 0-.292.249.277.277 0 0 0 .278.306h.901a.39.39 0 0 1 .399.386M13.1 9.943a.282.282 0 0 0-.075-.22.275.275 0 0 0-.2-.087L9 9.69a1.737 1.737 0 0 0-1.705 1.713l-.049 6.207h.56l.068-6.358a1.026 1.026 0 0 1 1.01-1.011l3.923-.046a.289.289 0 0 0 .293-.252m-.11 2.234a.4.4 0 0 1-.102-.309.414.414 0 0 1 .414-.362h.394V8.472h1.862a.584.584 0 0 1 .585.583v6.666h.55V9.106a1.191 1.191 0 0 0-1.19-1.19h-1.802v-6.6A.311.311 0 0 0 13.389 1h-.46a.311.311 0 0 0-.311.311v8.207h.197a.404.404 0 0 1 .405.44.415.415 0 0 1-.412.366h-.19v3.392a.311.311 0 0 0 .311.311h.46a.311.311 0 0 0 .312-.311v-1.407h-.409a.404.404 0 0 1-.302-.132"/></svg>