<svg xmlns="http://www.w3.org/2000/svg" viewBox="0 0 24 24"><path fill="#44739e" d="M1 5.661v1.98l.022 2.455a3.4 3.4 0 0 0 .077.751h.274q.077-1.603.044-3.21v-.029H22.58q-.036 1.623.044 3.244h.277a3.45 3.45 0 0 0 .076-.752L23 7.488V5.661Zm.528 1.402a.162.162 0 1 1-.034-.321.09.09 0 0 1 .034 0 .162.162 0 0 1 0 .321m-.035-.742a.161.161 0 0 1-.142-.142.162.162 0 0 1 .321 0 .162.162 0 0 1-.179.142m4.29.973H2.058V5.919h3.727Zm-3.345-.211h3.147l-.006-.991H2.447v.157h-.215v.644h.206Zm-.616 1.109H22.14v9.096H1.822Zm20.642 9.371h-.278v.138H1.814v-.138h-.278c-.183 0-.183.77-.011.77h.289v-.132h20.372v.138h.289c.172-.005.172-.776-.011-.776"/></svg>