<svg xmlns="http://www.w3.org/2000/svg" viewBox="0 0 24 24"><path fill="#44739e" d="M1.672 2.802a.162.162 0 1 1-.143-.144.162.162 0 0 1 .143.144m0-.712a.162.162 0 0 1-.321 0 .162.162 0 0 1 .321 0M5.585 3H2.438v-.191h-.206v-.643h.214v-.158h3.133ZM1 1.577v1.982l.023 2.455a3.43 3.43 0 0 0 .076.751h.274q.078-1.601.044-3.209v-.032H22.58q-.036 1.624.044 3.244h.277a3.43 3.43 0 0 0 .076-.751L23 3.404V1.582Zm4.785 1.628H2.058V1.836h3.727ZM22.44 22.423h-.289v-.14H1.779v.14H1.49c-.172 0-.172-.772.011-.772h.278v.139h20.372v-.139h.279c.182 0 .182.772.01.772M1.822 4.109H22.14v17.276H1.822Z"/></svg>