<svg xmlns="http://www.w3.org/2000/svg" fill="#44739e" viewBox="0 0 24 24"><path d="m11.5287 2.0028-2.4.632v18.662l4.275.706 1.754-1.411.048-9.089v-9.173Zm-.014 1.223v-.067l1.519.121v3.116l-1.519-.052zm-1.888-.276h.114l-.006 4.126 3.326.22-.006.1-3.468-.226zm1.888 9.45v-.062l1.519.137v3.177l-1.519-.134zm1.546-1.637-1.593-.142.047-2.771v-.242l1.519.072zm-3.473.924.039-4.079h.114l-.006 4.041v.047l3.3.27v.128l-3.447-.266zm.153.492-.006 4.071 3.3.394.01.105-3.458-.4.04-4.175zm3.293 4.938v2.742l-1.566-.269.047-2.567v-.107zm-3.447 3.886.04-4.221h.114l-.006 4.127 3.313.539.013.127z"/></svg>