<svg xmlns="http://www.w3.org/2000/svg" viewBox="0 0 24 24"><path fill="#44739e" d="M12.229 19.762c.128-.034.171-.047.222-.111v-.465a.76.76 0 0 1-.42.097.692.692 0 0 1-.419-.09v.494a.344.344 0 0 0 .186.09.835.835 0 0 0 .431-.015m-.517-.414a1.12 1.12 0 0 0 .321.034.99.99 0 0 0 .323-.045v.273c-.025.022-.056.031-.152.057a.743.743 0 0 1-.378.017.5.5 0 0 1-.111-.041Zm.84-.328-.047.026h.047Zm-.885.091-.151-.097v.132l.161-.028Zm1.677-1.167.163-13.91-.148-.095c-.072-.008-1.028 0-1.028 0 .056 4.281.028 12.859 0 13.828l-.018.272c-.081.333-.123.233-.168.137-.026-.059-.132-.252-.154-.291a5.42 5.42 0 0 1-.229-2.023C11.73 14.264 11.795 1 11.795 1l-1.143.03.094 15.988s.213 1.751.94 2.074a.4.4 0 0 0 .098.007l1.219-.213a2.195 2.195 0 0 0 .341-.942m-1.199.518a.21.21 0 0 1-.182.163c-.191.021-.365-.281-.454-.436a2.98 2.98 0 0 1-.363-1.38c.06-2.564-.017-15.669-.017-15.669h.399l.018 15.669a2.543 2.543 0 0 0 .599 1.653v.051-.019Zm4.743 1.422-8.175 1.41-1.634-1.053-.108 1.525L8.713 23l8.316-1.525Zm-4.855-.7a.665.665 0 0 0 .376-.087l.099-.053c-.259.031-.565.052-.721.053l-.111.019a.614.614 0 0 0 .357.068m.519-.144v.64l-.021.027a.427.427 0 0 1-.276.148 1.1 1.1 0 0 1-.285.042.73.73 0 0 1-.196-.025.443.443 0 0 1-.232-.119l-.026-.028v-.579l-4.292.75 1.552.989 8.093-1.392-1.75-.977-2.119.37a.7.7 0 0 1-.064.07 1.24 1.24 0 0 1-.384.084"/></svg>