<svg xmlns="http://www.w3.org/2000/svg" fill="#44739e" viewBox="0 0 24 24"><path d="M12.238 19c.115-.031.154-.042.2-.1v-.42a.685.685 0 0 1-.379.088.624.624 0 0 1-.378-.081v.445a.31.31 0 0 0 .168.082.753.753 0 0 0 .389-.014m-.467-.373a1.01 1.01 0 0 0 .29.03.89.89 0 0 0 .291-.04v.246c-.022.02-.05.028-.137.051a.67.67 0 0 1-.341.016.44.44 0 0 1-.1-.037zm.758-.296-.042.023h.042zm-.798.082-.137-.088v.119l.146-.025Zm1.512-1.053.147-12.548-.133-.086c-.065-.007-.927 0-.927 0 .05 3.862.025 11.6 0 12.474l-.017.246c-.073.3-.111.21-.151.123-.024-.053-.119-.227-.139-.262a4.89 4.89 0 0 1-.207-1.825c-.029-1.442.03-13.407.03-13.407l-1.031.027.085 14.423s.192 1.579.848 1.871a.37.37 0 0 0 .088.006l1.1-.192a1.98 1.98 0 0 0 .307-.85m-1.081.467a.189.189 0 0 1-.164.147c-.173.019-.33-.253-.41-.393a2.69 2.69 0 0 1-.327-1.245c.054-2.313-.016-14.135-.016-14.135h.36l.016 14.135a2.294 2.294 0 0 0 .541 1.491v.046-.017zm4.278 1.283-7.374 1.272-1.474-.95-.098 1.376 1.572 1.113 7.502-1.376zm-4.379-.631a.6.6 0 0 0 .339-.079l.089-.048c-.233.028-.509.047-.65.048l-.1.017a.554.554 0 0 0 .322.062m.468-.13v.577l-.019.024a.385.385 0 0 1-.249.134 1 1 0 0 1-.257.038.66.66 0 0 1-.177-.023.4.4 0 0 1-.209-.107l-.024-.025v-.523l-3.871.677 1.4.892 7.3-1.256-1.578-.881-1.912.334a.6.6 0 0 1-.058.063 1.12 1.12 0 0 1-.346.076"/></svg>