<svg xmlns="http://www.w3.org/2000/svg" viewBox="0 0 24 24"><path fill="#44739e" d="M22.996 13.369a.6.6 0 0 0-.008-.09l-.026-.641a.982.982 0 0 0-.481-.739v-.584a.9.9 0 0 0 .013-.151c0-1.687-4.682-3.053-10.459-3.053S1.576 9.477 1.576 11.164v.665a1.064 1.064 0 0 0-.576.808l.033.73c0 1.393 4.917 2.522 10.982 2.522 5.911 0 10.731-1.073 10.975-2.416H23v-.061c-.006-.008-.004-.029-.004-.043m-10.83 2.037c-5.211 0-9.44-.95-9.44-2.121s4.226-2.121 9.44-2.121 9.439.95 9.439 2.121-4.226 2.121-9.439 2.121"/></svg>