<svg xmlns="http://www.w3.org/2000/svg" fill="#44739e" viewBox="0 0 24 24"><path d="M21.921 11.264v-.007c-.008-.051-.016-.1-.025-.151a4.42 4.42 0 0 0-.917-2.081 6.56 6.56 0 0 0-1.94-1.485 11.37 11.37 0 0 0-2.36-.908 17.8 17.8 0 0 0-2.434-.471 19.5 19.5 0 0 0-1.228-.116v.008q-.468-.034-.937-.042t-.938.018v-.008q-.616.022-1.23.085a17.9 17.9 0 0 0-2.446.408 11.3 11.3 0 0 0-2.382.847c-.089.044-.177.09-.264.137-.036.019-.072.04-.107.06-.051.029-.1.057-.154.087s-.089.054-.133.081-.082.049-.122.075-.1.064-.144.1-.071.046-.105.071c-.05.034-.1.071-.147.107l-.095.07c-.048.038-.1.077-.143.117-.03.024-.06.048-.089.073-.047.04-.092.081-.137.123l-.085.079c-.043.041-.085.085-.127.128-.019.02-.04.039-.058.059v.006l-.067.066a4.43 4.43 0 0 0-.969 2.058 6.93 6.93 0 0 0-.07 2.352c.01.075.023.15.035.224v.022c.009.05.019.1.029.15l.024.123.033.143c.01.043.021.086.032.129s.025.09.037.135.027.09.041.134.027.086.042.128.033.093.05.139.03.079.046.119.042.1.063.146.031.071.048.106c.026.054.054.107.082.161.015.028.029.056.045.084.045.081.092.16.143.238a3.93 3.93 0 0 0 .8.889 5.16 5.16 0 0 0 1.082.65 12.445 12.445 0 0 0 5.174 1.006h.367a4.1 4.1 0 0 0 .555.029c.288 0 .577.01.865.017s.6 0 .9 0h1.492a12.35 12.35 0 0 0 5.125-.873 5.2 5.2 0 0 0 1.1-.63 3.93 3.93 0 0 0 .82-.868c.05-.072.1-.146.141-.22l.039-.067c.032-.056.062-.113.092-.17l.035-.067c.037-.076.073-.153.106-.231l.02-.047c.026-.064.052-.129.076-.194l.031-.087c.019-.056.038-.112.055-.168.009-.028.018-.056.026-.084.023-.075.044-.15.063-.226.051-.2.092-.4.125-.6a6.97 6.97 0 0 0 .014-2.186M9.315 9.185V9.2a2.2 2.2 0 0 1-.085-.257c.029.081.07.157.085.242m-1.381.074.016-.009a.032.032 0 0 1 .009.037.2.2 0 0 1-.014.034.46.46 0 0 0-.105.007c.031-.028.06-.047.094-.069M8 10.331a1.48 1.48 0 0 0 .951.262 3.45 3.45 0 0 0 1.095-.339 4.04 4.04 0 0 1 1.261-.271 6.36 6.36 0 0 1 1.321.091c.223.034.445.07.669.093a1.33 1.33 0 0 0 .547-.083 1.83 1.83 0 0 1 .52-.118.336.336 0 0 1 .333.149.3.3 0 0 1 .022.081.335.335 0 0 0-.333-.148 1.76 1.76 0 0 0-.52.118 1.31 1.31 0 0 1-.547.082c-.224-.022-.447-.058-.669-.092a6.36 6.36 0 0 0-1.321-.092 4.01 4.01 0 0 0-1.261.272 3.47 3.47 0 0 1-1.095.339 1.478 1.478 0 0 1-.951-.262.723.723 0 0 1-.29-.427.763.763 0 0 0 .268.345m7.1-.746a1.7 1.7 0 0 1-.116.068l.005-.009.094-.147a1.76 1.76 0 0 0 .175-.318.25.25 0 0 0 .015-.058.135.135 0 0 1 .007.139 1.76 1.76 0 0 1-.175.318Zm-.08.914a1.5 1.5 0 0 0 .416-.2.94.94 0 0 0 .376-.358.485.485 0 0 0 .054-.268.438.438 0 0 1-.032.349.933.933 0 0 1-.376.358 1.52 1.52 0 0 1-.416.205c-.109.028-.248.026-.279-.1a.24.24 0 0 1-.005-.039c.048.08.167.078.262.054zm-.5-1.061a.78.78 0 0 0-.122.317l-.013.009a.577.577 0 0 1 .113-.408.91.91 0 0 0 .169-.455.2.2 0 0 0 0-.034.33.33 0 0 1 .027.115.92.92 0 0 1-.173.456zm1.872.6a.46.46 0 0 0-.083-.2c-.02-.029-.071.01-.057.039a.428.428 0 0 1 0 .394.9.9 0 0 1-.3.294 4.22 4.22 0 0 1-.923.432 8.74 8.74 0 0 1-2.783.509 14.4 14.4 0 0 1-2.612-.194 8.5 8.5 0 0 1-.959-.2 3.05 3.05 0 0 1-.9-.384.806.806 0 0 1-.437-.743.84.84 0 0 1 .228-.408 2 2 0 0 1 .151-.145 1.23 1.23 0 0 0-.135.154.51.51 0 0 0-.1.173v.013a1 1 0 0 0-.019.044.032.032 0 0 0 0 .028.61.61 0 0 0 .07.406.76.76 0 0 0 .2.3 1.69 1.69 0 0 0 .556.333c.213.084.436.153.656.217a1.466 1.466 0 0 0 .707.06 2.9 2.9 0 0 0 .624-.239 2.7 2.7 0 0 1 .312-.124c.121-.037.246-.062.37-.088a6.5 6.5 0 0 1 .771-.112 6.6 6.6 0 0 1 1.527.05c.253.038.5.105.749.166a2.8 2.8 0 0 0 .636.107 1.823 1.823 0 0 0 1.026-.31c.274-.188.592-.555.39-.9a.56.56 0 0 0-.284-.238 1.1 1.1 0 0 0-.094-.1.6.6 0 0 0-.07-.007c-.022-.021-.044-.042-.064-.064-.036-.04.043-.1.08-.084l.136.047a.59.59 0 0 1 .159-.073c.007 0 .013 0 .013.009a.02.02 0 0 1-.014.014.44.44 0 0 0-.124.062 1.53 1.53 0 0 1 .661.4.517.517 0 0 1-.078.727 3 3 0 0 1-.434.307 3.05 3.05 0 0 1-.586.27 3.85 3.85 0 0 0 .542-.28c.219-.131.529-.362.493-.661z"/></svg>