<svg xmlns="http://www.w3.org/2000/svg" viewBox="0 0 24 24"><path fill="#44739e" d="m11.298 1-2.64.695v20.528L13.36 23l1.93-1.552.052-9.998V1.36Zm-.016 1.345v-.073l1.671.133v3.427l-1.671-.057Zm-2.077-.303h.126L9.324 6.58l3.659.242-.007.11-3.815-.248Zm2.077 10.395v-.068l1.671.15v3.495l-1.671-.147Zm1.701-1.801-1.752-.156.051-3.048v-.267l1.671.08Zm-3.82 1.016.042-4.487h.126l-.007 4.446v.051l3.63.297v.141l-3.791-.293Zm.168.542-.007 4.478 3.63.433.011.116-3.804-.44.044-4.593Zm3.622 5.431v3.017l-1.722-.296.051-2.824v-.118ZM9.161 21.9l.044-4.643h.126l-.007 4.54 3.645.592.014.14Z"/></svg>