<svg xmlns="http://www.w3.org/2000/svg" fill="#44739e" viewBox="0 0 24 24"><path d="M9.6483 2.0197 9.656 2l-2.33.614V20.74l4.151.685 3.45.575 1.7-1.388.047-8.941-.0221-9.2781zM9.643 3.188v-.065l1.133.09v3.042l-1.133-.038ZM7.809 2.92h.111l-.007 4.007 2.863.189v.1l-3.006-.2Zm2.966 18.028-3.006-.5.039-4.094h.111l-.007 4.007 2.863.466zm0-1.664-1.179-.2.046-2.493v-.1l1.133.151zm0-3-3.005-.356.038-4.054.112.01-.007 3.953 2.863.343zm0-1.054-1.133-.1v-3.091l1.133.1zm0-3.451-3.005-.236v-.137l.038-3.962h.112l-.007 3.925v.045l2.863.235zm0-1.3L9.6 10.37l.046-2.691v-.235l1.133.053zm2.452-7 1.34.108v3.06L13.228 6.6Zm-.007 8.537 1.344.111v.127l-1.345-.105zm0 .494 1.347.122v3.126L13.2 15.63Zm-.02 4.049 1.37.166.01.1-1.38-.161zm0 .446 1.371.185v2.7l-1.385-.241zm1.055 4.514-.0167-.0053-2.3321-.424-.0092-.1234 2.682.4837.012.125Zm-1.025-10.7V7.846l1.34.064.026 3.033zm1.358-3.189-1.36-.09v-.1l1.366.091z"/></svg>