<svg xmlns="http://www.w3.org/2000/svg" viewBox="0 0 24 24"><path fill="#44739e" d="M1.672 10.05a.162.162 0 1 1-.143-.143.162.162 0 0 1 .143.143m0-.712a.162.162 0 0 1-.321 0 .162.162 0 0 1 .321 0m3.913.911H2.438v-.191h-.206v-.644h.214v-.157h3.133ZM1 8.826v1.981l.023 2.455a3.43 3.43 0 0 0 .076.751h.274q.078-1.601.044-3.209v-.031H22.58q-.036 1.623.044 3.243h.277a3.43 3.43 0 0 0 .076-.75L23 10.653V8.83Zm4.785 1.627H2.058V9.084h3.727Zm16.687 4.721h-.289v-.139H1.812v.139h-.29c-.171 0-.171-.772.011-.772h.279v.14h20.371v-.14h.279c.182 0 .182.772.01.772m-20.65-3.817H22.14v2.78H1.822Z"/></svg>