<svg xmlns="http://www.w3.org/2000/svg" fill="#44739e" viewBox="0 0 24 24"><path d="M18.5513 11.058a1.853 1.853 0 0 0-1.273-1.391 1.8 1.8 0 0 0-.354-.07 1.8 1.8 0 0 0-.18-.009h-.3V6.831a1.356 1.356 0 0 0-.289-.835 1.4 1.4 0 0 0-.325-.3 1.347 1.347 0 0 0-.742-.222h-3.146v-1.42h.731a1.779 1.779 0 0 0 1.779-1.78h-5.337a1.78 1.78 0 0 0 1.78 1.78h.68v1.421h-1.555l-.021-.022-.021.022h-1.225a1.3 1.3 0 0 0-.175.012 1.358 1.358 0 0 0-1.175 1.214l-.015.015.013.013v.61l-.009.009.009.008v2.23h-.318a1.86 1.86 0 0 0-.468.06 1.846 1.846 0 0 0-.824.469 1.84 1.84 0 0 0-.553 1.316v4.5a1.9 1.9 0 0 0 .042.393l.021.083-.023.023.041.042a1.9 1.9 0 0 0 .12.3 1.848 1.848 0 0 0 1.471 1c.057 0 .115.008.173.008h.279v2.638a1.4 1.4 0 0 0 .022.246 1.36 1.36 0 0 0 .173.455 1.38 1.38 0 0 0 .295.341 1.353 1.353 0 0 0 .866.314h6.329a1.345 1.345 0 0 0 .686-.187l.006.007.024-.025a1.35 1.35 0 0 0 .459-.474 1.37 1.37 0 0 0 .182-.677V17.78h.34c.055 0 .109 0 .163-.007a1.84 1.84 0 0 0 .759-.24 1.94 1.94 0 0 0 .345-.258 1.84 1.84 0 0 0 .478-.742 1.82 1.82 0 0 0 .1-.523v-4.575a1.86 1.86 0 0 0-.038-.377m-.565-.653a1.64 1.64 0 0 1 .235.381l-.273.273-.308-.307zm-2.445-1.794-.338-.349.337-.349.339.349zm.644-.032.022.022v.6l-.047.049-.313-.326zm-1.643 7.713.311-.311.262.262-.311.311zm.645 1.488-.3.315-.305-.315h.61zm-7.811-4.162.307.307-.351.352-.308-.307zm-.653.05-.3-.3.351-.352.3.3zm2.609-3.209.3.3-.312.311-.3-.3zm-.3-.984.206-.214.207.214zm7.061 3.438-.307-.307.332-.332.307.307zm.633-.03.312.311-.333.332-.311-.311zm-1.242-.578-.332-.333.332-.332.333.333zm-4.92-1.875.307.308-.329.329-.308-.307zm-.286-.955.235-.244.236.244zm1.505.954.311.311-.309.309-.311-.311zm-.238-.954.225-.233.225.233zm1.462.955.321.321-.31.31-.322-.321zm-.224-.955.249-.251.248.256zm1.48.944.307.307-.332.332-.307-.307zm-.231-.944.245-.254.246.254zm-.7 2.5-.309.309-.307-.307.309-.309zm-.006-.609.31-.31.307.308-.31.31zm-2.456 1.854-.34.34-.321-.322.34-.339zm-.02-.623.311-.311.321.321-.311.312zm-.018 1.869-.345.345-.307-.307.345-.346zm-.006-.609.34-.34.308.308-.34.339zm.642-.641.311-.311.307.307-.311.311zm.612-.613.329-.329.308.307-.33.33zm.938.28.311.311-.329.329-.311-.311zm-.609-1.212-.321-.321.309-.309.321.321zm-.3.3-.329.329-.322-.321.33-.33zm-.952-.294-.311-.311.329-.329.311.311zm-.3.3-.311.311-.312-.311.312-.311zm-.613.612-.34.34-.315-.305.34-.34zm-.018 1.264-.345.345-.322-.321.345-.345zm-.038 1.255-.356.36-.307-.307.356-.356zm.3.3.311.311-.355.355-.312-.311zm.3-.3.345-.345.311.311-.345.345zm.646-.646.34-.34.311.311-.34.34zm.641-.641.311-.312.312.312-.312.311zm.924.3.333.333-.312.311-.332-.333zm.3-.3.33-.33.332.333-.329.329zm.018-1.244.309-.309.312.312-.309.309zm.611-.61.31-.31.311.311-.31.31zm-.3-1.521-.321-.322.308-.308h.048l.3.3zm-1.234-.012-.311-.311.307-.307h.006l.308.308zm-1.223 0-.307-.307.309-.309.307.307zm-1.239.022-.3-.3.33-.329.3.3zm0 .6.307.307-.311.311-.307-.307zm-.305.92-.34.34-.307-.308.339-.339zm-.028 1.258-.345.346-.311-.312.345-.345zm-.646.647-.356.356-.311-.313.355-.355zm.3.3.321.322-.355.355-.322-.321zm.279 1.588-.351.352-.308-.308.352-.351zm-.04 1.265-.332.332-.312-.311.333-.332zm-.01-.612.35-.351.311.311-.351.351zm.964.261.332.333-.351.351-.333-.333zm.3-.3.352-.359.332.333-.355.355zm.99.278.307.307-.356.356-.307-.307zm-.333-.935.345-.345.333.332-.345.345zm.647-.647.339-.34.333.333-.34.34zm.973.294.308.308-.34.34-.307-.308zm.609.609.311.311-.34.34-.311-.311zm-.307-.91.311-.311.307.307-.311.311zm.612-.612.33-.33.307.308-.33.329zm0-1.265.309-.309.333.333-.309.309zm.61-.61.31-.311.333.333-.31.31zm.31-.913-.311-.311.325-.337.311.312zm-.286-1.553.3-.3h.019l.3.3-.308.307zm.355-.864-.338-.35.315-.326.338.35zm-.645-.666-.316-.327.315-.326.317.327zm-.306.316-.315.325-.316-.327.314-.325zm-.943-.32-.312-.323.314-.324.313.323zm-.306.317-.335.346-.315-.324.335-.346zm-.954-.293-.327-.338.335-.346.327.337zm-.307.316-.316.327-.327-.337.316-.327zm-.95-.327-.316-.327.316-.327.317.327zm-.306.317-.346.357-.316-.327.345-.357zm-1.49 1.554-.308-.307.312-.311.307.307zm.3.9-.34.34-.3-.3.34-.339zm-.34.943.308.307-.346.345-.309-.304zm-.646.043-.3-.3.345-.345.3.3zm0 .6.307.307-.356.356-.307-.307zm-.657.055-.3-.3.356-.356.3.3zm.608 1.214.312.311-.352.351-.312-.308zm.613.612.321.322-.351.351-.321-.321zm.277 1.588-.332.332-.31-.309.332-.332zm-.483 1.358h.424l.047.048-.362.374-.316-.327.092-.095zm.778.365.326.338-.361.373-.327-.334zm.306-.317.047-.048h.61l.022.023-.351.363zm.984.292.313.323-.351.363-.313-.323zm.307-.317.022-.023h.626l-.335.346zm.965.283.316.327-.345.357-.317-.327zm.3-1.727.345-.345.308.307-.346.345zm.107 1.421h.52l-.306.316-.306-.316zm.5-.813.345-.345.311.311-.345.346zm.335 1.119.338.349-.316.327-.339-.349zm.317-.306h.655l-.327.339zm.607-.847.339-.339.262.261-.339.34zm.339-.942-.311-.311.311-.311.312.311zm.613-.613-.311-.311.329-.329.311.311zm-.289-1.55.309-.309.307.307-.309.309zm.61-.61.31-.311.308.308-.31.31zm.919.3.311.311-.31.31-.311-.311zm.612.613.262.261-.31.311-.262-.262zm.564.563.307.307-.31.31-.307-.307zm-.262-.865.332-.332.262.262-.332.332zm.332-.935-.311-.311.307-.307.311.311zm-.303-1.532.311-.311.307.307-.311.311zm.006.609-.308.307-.307-.307.307-.308zm-.916-.3-.333-.332.307-.308.333.333zm-.634-.634-.311-.311.307-.307.311.311zm-.165-1.562.222-.23.222.23zm-.423-1.53-.316-.327.337-.349.317.327zm-.623-.644-.312-.323.337-.349.313.323zm-.306.317-.316.326-.316-.322.315-.326zm-.939-.316-.327-.337.316-.326.327.337zm-.306.317-.315.325-.327-.338.315-.325zm-.948-.33-.317-.327.315-.325.316.328zm-.307.317-.339.346-.312-.33.335-.346zm-.958-.3-.312-.323.335-.346.312.323zm-.306.317-.317.327-.312-.323.316-.327zm-.936-.312-.3-.316.316-.327.306.315zm0 .633.313.323-.346.355-.312-.323zm-.652.04-.305-.315.345-.358.306.316zm0 .634.313.323-.351.362-.313-.321zm-.657.046-.306-.316.351-.363.306.316zm0 .633.168.174h-.336zm.455 1.469-.34.34-.307-.307.34-.34zm-.641.641-.345.346-.307-.308.345-.345zm-.646.647-.356.356-.307-.308.355-.355zm-.965-.253-.263-.264.355-.355.264.263zm0 .6.308.307-.352.351-.307-.307zm.257 1.562-.332.332-.3-.3.332-.332zm-.332.934.307.307-.287.288-.308-.307zm.3-.3.332-.332.307.307-.332.332zm.307.91.312.311-.288.287-.311-.311zm.3-.3.332-.332.311.312-.332.332zm.944.281.322.321-.332.332-.319-.319zm-.009 1.258.307.307-.288.288-.307-.308zm-.057 1.444.317.327-.36.369-.243-.251v-.152zm.623.643.327.338-.357.369-.327-.337zm.634.655.312.323-.357.369-.313-.323zm.306-.317.362-.374.312.323-.361.374zm.981.266.316.327-.361.374-.317-.327zm.313-.315.352-.363.316.328-.351.362zm.975.281.338.35-.351.363-.339-.35zm.306-.316.346-.358.338.35-.346.357zm.991.309.312.323-.346.357-.312-.323zm.306-.317.317-.327.312.323-.316.327zm.623-.644.335-.346.313.323-.335.346zm.954.294.317.327-.335.346-.317-.327zm.623.644.266.275-.335.346-.266-.275zm0-.634-.316-.327.314-.325.316.327zm-.093-1.576-.307-.308.311-.311.307.308zm-.258-1.483.33-.33.262.262-.33.33zm.33-.932-.312-.311.31-.309.311.311zm.61-.008.262.262-.309.309-.262-.262zm.563.563.308.307-.31.31-.307-.308zm.609.609.311.311-.309.309-.311-.311zm.3-.3.31-.31.311.312-.31.31zm0-1.22.332-.332.307.308-.332.332zm.07-1.2.308-.307.261.261-.307.308zm.308-.91-.312-.311.312-.312.311.312zm-.717-2.389a1.58 1.58 0 0 1 .444.221l-.334.334-.333-.332zm-.524.524.333.333-.312.311-.332-.333zm-.3-.3-.312.311-.311-.311.3-.3h.027zm-.2-2.195-.022.023-.338-.35.312-.323.048.049zm-.22-1.759a1.1 1.1 0 0 1 .2.449l-.026.027-.316-.327zm-.134.792-.313.323-.316-.327.312-.323zm-.192-1.089-.125.129-.264-.273a1.13 1.13 0 0 1 .388.143zm-.744.123.313.323-.313.323-.312-.323zm-.339-.283-.28.289-.279-.289zm-.913.268.327.338-.338.349-.323-.339zm-.354-.268-.29.3-.291-.3zm-.913.29.316.327-.315.326-.318-.327zm-.333-.29-.289.3-.29-.3zm-.908.293.312.323-.314.325-.314-.325zm-.326-.294-.291.3-.291-.3zm-.9.3.3.316-.335.346-.3-.316zm-.946-.3h.625l-.321.331-.312-.323zm-.315.325.313.323-.317.327-.312-.323zm-.422-.208-.209.215-.042-.043a1.12 1.12 0 0 1 .251-.172m-.21.852.313.323-.346.357-.312-.323zm-.407.922.072.075-.072.074zm0 1.359.026.027-.026.028zm-.084.941.264.264-.34.34-.264-.264zm-.641.641.264.264-.346.345-.263-.264zm-.546-.546.244.245-.345.345-.3-.3a1.63 1.63 0 0 1 .398-.29zm-.667.626.265.265-.356.356-.1-.1a1.61 1.61 0 0 1 .188-.516zm-.221 1.354.13-.13.264.263-.351.352-.043-.043zm0 1.13.043-.043.307.308-.332.332-.018-.018zm0 1.217.018-.018.3.3-.287.287-.031-.031zm.009 1.804a1.5 1.5 0 0 1-.012-.192v-.408l.031-.031.307.307zm.239.363.389-.389.311.312-.388.388zm.934.934-.323-.319.388-.388.322.321zm.69-.69-.321-.321.287-.288.321.322zm.248 3.038.239-.245.327.338-.337.349-.233-.24zm.42 1.521a1.13 1.13 0 0 1-.288-.348l.1-.1.312.323zm.411.21.021-.022.034.035zm.021-.655-.313-.321.338-.349.312.323zm.623.643-.317-.327.338-.349.316.327zm.563.051.081-.083.08.083zm.081-.715-.317-.327.358-.37.316.328zm.645.666-.339-.35.358-.369.338.35zm.564.05.1-.1.1.1zm.1-.736-.339-.349.362-.374.338.349zm.619.64-.308-.32.362-.374.312.323zm.519.1.149-.153.148.153zm.149-.787-.313-.323.351-.362.313.323zm.623.644-.317-.327.351-.363.317.327zm.341-1.006.346-.358.316.327-.346.358zm.133 1.149.183-.189.184.189zm.756-.231-.266-.275.346-.357.266.275zm.08-1.265-.317-.327.317-.327.316.327zm.623-.011.266.276-.317.327-.266-.276zm.183 1.507h-.5l.262-.271.262.27zm.385-.265-.312-.323.312-.332.313.323zm.74-.859v.1l-.112.116-.312-.323.335-.347.094.1zm0-1.184-.094.1-.266-.275.314-.325.046.047zm0-1.184-.046.048-.308-.318h.354zm-.147-1.5-.307-.307.329-.329.307.307zm.612.613-.311-.311.329-.33.312.311zm.365.364-.063-.063.329-.329.227.227a1.6 1.6 0 0 1-.493.16zm.845-.416-.278-.278.309-.309.246.246a1.66 1.66 0 0 1-.277.339zm.456-.764-.123-.124.172-.173a1.54 1.54 0 0 1-.049.295zm.054-1.17-.178-.178.178-.178zm0-1.267-.154-.153.154-.154zm0-1.217-.108-.108.108-.108zm0-1.225-.108-.108.1-.1a1.6 1.6 0 0 1 .009.172z"/></svg>