<svg xmlns="http://www.w3.org/2000/svg" viewBox="0 0 24 24"><path fill="#44739e" d="M11.289 3.94c0-.043-.009-.11-.009-.16a9 9 0 0 1 .11-1.285c.033-.24.063-.448.067-.612a1.65 1.65 0 0 0-.62-.413 1.1 1.1 0 0 0-.24-.028.724.724 0 0 0-.481.169c-.423.348-.615 1.21-.585 2.634Zm3.33 1.652a1.1 1.1 0 0 1 .018-.205c0-.025.008-.055.008-.063a6.48 6.48 0 0 0-.864-3.535A1.958 1.958 0 0 0 12.583 1c-.071.011-.502.078-.933.139-.375.052-.609.081-.757.095.086.043.178.091.229.119a3.176 3.176 0 0 1 1.298 2.178 11.2 11.2 0 0 1 .252 2.359Zm4.145-.387-3.835-1.833a.7.7 0 0 0-.399-.027h-.009q.08.363.132.779h.141c.469 0 .967.141.967.406s-.498.404-.967.404h-.069c.008.128.013.258.018.391a.44.44 0 0 1-.009.076.88.88 0 0 0-.015.198.034.034 0 0 0-.029-.017l.007.097-2.122.325v-.053a11.77 11.77 0 0 0-.22-2.265l-.971.15c0 .07.011.142.011.142v.047l-1.957.339v-.232L6.1 4.651h-.019a2.064 2.064 0 0 0-1.913 2.2l.462 12.12a1.203 1.203 0 0 0 .368.819l2.9 2.774a1.567 1.567 0 0 0 1.507.378l8.561-2.409a1.97 1.97 0 0 0 1.437-1.856l.43-11.36c.023-1.088-.05-1.715-1.069-2.112m-1.231 14.727-.374.11 1.621-1.981-.007.373Zm1.222-1.141a1.289 1.289 0 0 1-.843 1.03Zm-1.978 1.353-.292.081 2.311-2.823-.007.3Zm-.679.191-.354.099 3.066-3.749-.008.368Zm-.732.206-.356.1 3.816-4.665-.009.376Zm-.74.209-.365.102 4.58-5.6-.009.392Zm-.756.212-.282.08 5.267-6.44-.007.318Zm-.679.192-.389.11 6.069-7.422-.009.43Zm-.785.22-.338.096 6.821-8.339-.007.387Zm-.741.209-.346.097 7.582-9.273-.008.403ZM8.96 20.19l.043.039a.098.098 0 0 0 .141-.01l9.849-12.044-.009.402a.095.095 0 0 0-.064.034L8.938 20.727l-.039-1.177.01.011.043.039a.098.098 0 0 0 .141-.01l9.915-12.125-.009.406a.1.1 0 0 0-.028.024L8.95 20.057a.097.097 0 0 0 .01.133m9.902-13.854a.465.465 0 0 1 .162.337.11.11 0 0 0-.035-.05.097.097 0 0 0-.134.016L8.873 18.755l-.008-.245a.1.1 0 0 0 .04-.029l9.943-12.158Zm-.381-.103a.47.47 0 0 1 .184 0L8.853 18.148l-.006-.197 9.571-11.707Zm-9.01 1.594-.905 1.1a1.307 1.307 0 0 1 .905-1.1m-.909 1.458 1.25-1.53.331-.058-1.57 1.907Zm.022.66 1.888-2.311.302-.052-2.183 2.651Zm.02.629 2.494-3.049.428-.074-2.908 3.532Zm.026.78 3.242-3.961.263-.046-3.498 4.245Zm.02.609 3.826-4.68.338-.059-4.155 5.046Zm.023.678 4.476-5.475.331-.059-4.797 5.823Zm.021.661 5.116-6.251.3-.053-5.409 6.565Zm.02.629 5.722-6.994.283-.051-5.996 7.278Zm.02.609 6.306-7.71.357-.063-6.653 8.081Zm.023.678 6.956-8.497.349-.061-7.296 8.852Zm.021.66 7.592-9.284.465-.083-8.044 9.775Zm.027.77 8.337-10.18.304-.054-8.635 10.48Zm.029.908-.01-.298 8.923-10.912.378-.066Zm.054 1.402a.098.098 0 0 0 .141-.011l9.977-12.185a.08.08 0 0 0 .018-.033l-.011.504a.095.095 0 0 0-.093.033L8.9 19.428v.006l-.015-.47Zm.278 3.135c-.125-.09-.194-.354-.208-.784l-.014-.386.008.008a.098.098 0 0 0 .141-.011l9.885-12.073-.007.33-9.946 12.077a.096.096 0 0 0 .01.133l.043.04a.096.096 0 0 0 .139-.011l9.747-11.919-.009.408-9.866 11.976a.099.099 0 0 0 .008.134l.043.039a.098.098 0 0 0 .141-.01l9.668-11.823-.009.393-9.518 11.552a.425.425 0 0 1-.256-.057Zm.782-.039c-.054.015-.11.03-.155.042l9.14-11.165-.011.509-8.691 10.549Zm8.968-10.31-.007.33-8 9.72-.263.075ZM4.43 10.419l-.02-.014a.053.053 0 0 1-.026-.044l-.11-3.47a2.022 2.022 0 0 1 1.661-2.055l3-.513a.246.246 0 0 1 .126 0c.051.021.03.081-.024.09l-3.005.515a1.933 1.933 0 0 0-1.607 1.959l.088 3.485a.054.054 0 0 1-.083.047m.269.205-.023-.015a.055.055 0 0 1-.027-.045l-.11-3.47A2.024 2.024 0 0 1 6.205 5.04l2.998-.513a.235.235 0 0 1 .126 0c.051.021.03.082-.024.092l-3.004.513a1.934 1.934 0 0 0-1.608 1.96l.088 3.483a.054.054 0 0 1-.082.049m.308.255-.024-.014a.059.059 0 0 1-.027-.047L4.85 7.286a2.06 2.06 0 0 1 1.696-2.091l3.053-.522a.23.23 0 0 1 .129 0c.051.02.031.082-.024.091l-3.066.527a1.969 1.969 0 0 0-1.637 1.991l.09 3.548a.055.055 0 0 1-.084.049m.273.208-.024-.016a.052.052 0 0 1-.026-.045l-.112-3.535a2.059 2.059 0 0 1 1.695-2.09l3.053-.524a.253.253 0 0 1 .129 0c.052.021.031.084-.024.093l-3.06.523a1.97 1.97 0 0 0-1.637 1.998l.09 3.547a.056.056 0 0 1-.084.049m.362.22-.021-.011a.057.057 0 0 1-.028-.046l-.11-3.572a2.079 2.079 0 0 1 1.709-2.113l3.086-.529a.26.26 0 0 1 .13 0c.053.022.032.084-.024.093l-3.093.529A1.991 1.991 0 0 0 5.64 7.672l.091 3.59a.056.056 0 0 1-.089.048Zm.276.21-.023-.014a.054.054 0 0 1-.027-.046l-.11-3.572a2.079 2.079 0 0 1 1.71-2.11l3.086-.529a.246.246 0 0 1 .13 0c.053.022.032.083-.024.093l-3.093.529a1.991 1.991 0 0 0-1.65 2.014l.091 3.584a.056.056 0 0 1-.09.054Zm.321.182-.024-.015a.059.059 0 0 1-.027-.046l-.11-3.571a2.079 2.079 0 0 1 1.711-2.111l3.086-.529a.26.26 0 0 1 .13 0c.053.022.031.085-.024.094l-3.093.529a1.991 1.991 0 0 0-1.65 2.013l.091 3.586a.056.056 0 0 1-.09.053Zm.355.21-.023-.015a.057.057 0 0 1-.027-.046l-.11-3.571a2.079 2.079 0 0 1 1.711-2.106l3.087-.534a.25.25 0 0 1 .13 0c.052.022.032.084-.025.094l-3.092.529a1.991 1.991 0 0 0-1.651 2.014l.092 3.584a.056.056 0 0 1-.092.054Zm.373.164-.026-.012a.054.054 0 0 1-.026-.047l-.111-3.571a2.079 2.079 0 0 1 1.714-2.114l3.086-.528a.235.235 0 0 1 .129 0c.053.021.032.084-.024.093l-3.092.529a1.991 1.991 0 0 0-1.651 2.013l.085 3.59a.056.056 0 0 1-.084.05Zm.271-3.422.091 3.586a.055.055 0 0 1-.084.048l-.025-.014a.054.054 0 0 1-.026-.049l-.11-3.571a2.081 2.081 0 0 1 1.71-2.111l3.086-.53a.26.26 0 0 1 .13 0c.052.022.032.085-.025.094l-3.092.529a1.993 1.993 0 0 0-1.655 2.018m1.573 13.905.019.014a1 1 0 0 0 .07.046l-.087.026Zm6.848-18.03c0-.141-.37-.297-.865-.297h-.127l.008.087h.101c.281 0 .582.08.582.229s-.301.229-.582.229h-.061v.048h.076c.498 0 .868-.156.868-.296m-.717.06h.029l-.018-.008.016-.01a.253.253 0 0 0-.136-.037l-.141-.055v.022l.147.058-.11-.01-.034-.012.007.065a.55.55 0 0 0 .091.008.42.42 0 0 0 .149-.021m.361-.041c0-.08-.22-.171-.523-.171h-.094l.009.096a.55.55 0 0 1 .104-.009c.12 0 .24.032.24.11s-.12.11-.24.11a.55.55 0 0 1-.086 0v.044h.064c.306-.01.526-.094.526-.18"/></svg>