<svg xmlns="http://www.w3.org/2000/svg" fill="#44739e" viewBox="0 0 24 24"><path d="M20.074 7.7c0-2.728-1.329-3.518-2.69-4.092l-.206-.089a.986.986 0 0 0-.824-.124 16.6 16.6 0 0 1-4.348.63 11.6 11.6 0 0 1-4.28-.585 1.32 1.32 0 0 0-.5-.111 1.45 1.45 0 0 0-.432.083l-.02.006a3.586 3.586 0 0 0-2.062 1.727 6.54 6.54 0 0 0-.8 3.052v3.015A3.722 3.722 0 0 0 5.1 13.9a7.75 7.75 0 0 0 2.945 1.734 10.57 10.57 0 0 0 3.362.588l1.153.015A10.266 10.266 0 0 0 17.462 15a4.686 4.686 0 0 0 2.627-4.152Zm-2.765 7.034a9.96 9.96 0 0 1-4.744 1.192l-1.153-.016a9.316 9.316 0 0 1-6.09-2.232 3.42 3.42 0 0 1-1.1-2.464v-3.01C4.3 5.93 5.334 4.168 6.865 3.714l.02-.006a.88.88 0 0 1 .728.019 11.85 11.85 0 0 0 4.394.607 16.7 16.7 0 0 0 4.441-.645c.2-.063.266-.037.606.113l.21.09c1.319.557 2.5 1.267 2.5 3.809l.016 3.149a4.452 4.452 0 0 1-2.471 3.885zM16.72 2.713c0-.373-2.081-.713-4.679-.713s-4.786.333-4.786.706A10.86 10.86 0 0 0 12 3.528a12.64 12.64 0 0 0 4.72-.815m-8.968.662a11.55 11.55 0 0 0 4.254.581 17.7 17.7 0 0 0 3.69-.45c.331-.1.652-.2.957-.324V2.86a12.38 12.38 0 0 1-4.757.783 12.8 12.8 0 0 1-4.733-.783v.322c.057.028.115.055.173.081a1.6 1.6 0 0 1 .416.112m4.812 12.93-1.15-.015a10.66 10.66 0 0 1-3.327-.572v4.971c.048.389.6.7 1.349.932a10.87 10.87 0 0 0 2.338.379h.469a9.44 9.44 0 0 0 1.915-.248 2.98 2.98 0 0 0 1.605-1.14.355.355 0 0 0 .081-.23c.015-1.468-.007-3.87-.014-4.6a10.82 10.82 0 0 1-3.266.523M12 15.451a6.694 6.694 0 0 1-3.916-.891c.084.176.327.534.257.768a10.28 10.28 0 0 0 3.071.512l1.151.016a10.4 10.4 0 0 0 3.1-.488 1.168 1.168 0 0 1 .249-.808 6.824 6.824 0 0 1-3.912.891m.008-11.046a14.03 14.03 0 0 1-3.6-.345c-.156-.046-.312-.1-.469-.155v10.376a8.46 8.46 0 0 0 4.033.955 8.79 8.79 0 0 0 4.089-.955c0-3.4.089-7.029.089-10.429v-.025c-.088.034-.177.066-.266.1a17.75 17.75 0 0 1-3.876.478"/></svg>