<svg xmlns="http://www.w3.org/2000/svg" viewBox="0 0 24 24"><path fill="#44739e" d="M17.295 20.603h-.838l-1.062 1.994h.377l.369-.283a5.45 5.45 0 0 0 .898-.86c.108-.131.202-.239.287-.343a4.01 4.01 0 0 0 .809-1.278l.168-1.329h-.569Zm-3.649.243h-1.102l.032 2.092.556-.029.166-.042a1.724 1.724 0 0 0 .848-.549l.502-1.115.231-1.041.266-1.279h-1.187Zm-3.083.119-.143-1.667H9.335l.221 1.55-.889-.039.227 1.098a6.82 6.82 0 0 0 1.19.784l.269.084.588.225-.12-.285Zm-4.409-1.759.891 2.141a5.87 5.87 0 0 0 1.088.931l.066.043-1.331-3.113Zm11.549-1.991h-1.604l-.406 1.288-.419.82h.699l.865-1.201 1.173-.115.468-.962v-1.218h-.776Zm-3.629-1.299v1.361l-2.012-.041v1.062l.112 1.181h1.208l.321-1.129 1.409-.094.156-1.048-.001-1.292Zm-4.361 1.119H8.198l.358 1.106.685 1.119-.007-.052h.813l-.156-.904 1.058-.024v-2.532H9.713Zm-3.081 1.692.386.359-.403-.606h1.004l-.168-.479-.297-.943v-.011l.2-1.234h-.892l-.199 1.175h-.679l.154.344a6 6 0 0 0 .736 1.219 1.3 1.3 0 0 0 .158.176m9.496-7.487.485 2.358.883-.265-.815-2.251.535-.19-1.403-1.64-.837-.07 1.33 2.002Zm-9.834 1.439.599-1.424h.73l.36-.676a4.83 4.83 0 0 1 1.132-1.436l-.378.148a3.65 3.65 0 0 0-1.256.869l-.092.095a4.8 4.8 0 0 0-.774 1.078c-.062.126-.119.239-.17.334a8.1 8.1 0 0 0-.382.827l-.479 1.404h.313Zm2.384-1.518a8.47 8.47 0 0 0-.608 1.569l-.328 1.171h1.009l.345-2.541h1.051l.359-2.185h-.307l-.47.467a5.48 5.48 0 0 0-.992 1.402Zm7.866 2.551-.149-.726-.376.063 1.01 1.295-1.511.216a4.23 4.23 0 0 1 .343 1.651v.664l1.4-.023.045-1.401 1.281.023-.191-1.001-.049-.107c-.076-.168-.164-.359-.25-.518a1.59 1.59 0 0 0-.491-.479l.007.022Zm-2.791 1.754 1.832-.026-.911-2.732h-1.128l.169 1.536-1.989.035v2.596h2.061Zm-3.437-1.328-1.908-.028-.136.485-.315 2.205h1.45v-1.526h1.945l.069-1.348.208-1.315h-.99Zm-1.282-1.545h-.012l-.004.024Zm-2.925 2.924h1.496l.36-1.419.067-.104h-.41l.266-.943-1.078 1.12h-.811l-.12.28a5.855 5.855 0 0 0-.466 2.284v.006h.479Zm6.517-6.34-.582 4.721 1.341-.076-.12-2.634h1.197c-.191-.351-.379-.66-.561-.958l-.095-.157c-.181-.298-.334-.558-.492-.85Zm-1.311-6.142v.538h.222v6.953h.443V3.567h.189v-.542c.879-.133 1.537-.659 1.537-1.287V1H9.747v.738c0 .636.673 1.167 1.568 1.297"/></svg>