<svg xmlns="http://www.w3.org/2000/svg" viewBox="0 0 24 24"><path fill="#44739e" d="M22.913 11.189v-.008c-.009-.056-.018-.11-.028-.166a4.86 4.86 0 0 0-1.008-2.289 7.22 7.22 0 0 0-2.134-1.633 12.5 12.5 0 0 0-2.596-.999 19.6 19.6 0 0 0-2.677-.518 21.5 21.5 0 0 0-1.351-.128v.009q-.515-.037-1.031-.046t-1.032.02v-.009q-.677.024-1.353.093a19.7 19.7 0 0 0-2.69.449 12.43 12.43 0 0 0-2.62.932c-.098.048-.195.099-.29.151-.04.02-.08.044-.118.066-.056.031-.11.062-.17.095s-.097.06-.146.089-.09.054-.134.083-.11.07-.158.11-.079.05-.116.078c-.055.037-.11.078-.162.118l-.104.077c-.053.041-.11.084-.157.128-.033.027-.066.053-.098.081a5 5 0 0 0-.151.135l-.093.087c-.048.045-.094.093-.14.141-.021.022-.044.042-.064.064v.007l-.074.073a4.873 4.873 0 0 0-1.066 2.263 7.62 7.62 0 0 0-.077 2.587c.011.083.026.165.039.247v.024c.01.055.021.11.032.165l.026.135.037.158c.011.047.023.094.035.141s.027.099.04.149.03.099.046.147.029.095.046.141.036.102.055.153.033.087.05.131.047.11.07.161.034.078.052.116c.029.06.06.118.091.177.016.031.032.062.049.093.05.089.101.176.157.261a4.32 4.32 0 0 0 .88.978 5.68 5.68 0 0 0 1.191.715 13.69 13.69 0 0 0 5.691 1.107h.403a4.5 4.5 0 0 0 .611.032c.317 0 .634.011.951.018s.66 0 .99 0h1.641a13.58 13.58 0 0 0 5.638-.96 5.72 5.72 0 0 0 1.209-.693 4.32 4.32 0 0 0 .902-.955c.055-.079.11-.16.156-.242l.042-.073c.036-.062.069-.125.102-.187l.038-.074c.041-.084.08-.168.117-.254l.022-.052c.028-.07.057-.142.083-.213l.034-.096c.021-.061.042-.123.061-.185a5.4 5.4 0 0 0 .098-.341c.056-.22.101-.44.137-.66a7.67 7.67 0 0 0 .016-2.404M9.047 8.902v.017a2.4 2.4 0 0 1-.094-.283c.032.089.077.173.094.266m-1.519.082.017-.01a.035.035 0 0 1 .01.04.2.2 0 0 1-.015.038.5.5 0 0 0-.116.007c.034-.03.066-.051.104-.075m.072 1.179a1.628 1.628 0 0 0 1.046.288 3.8 3.8 0 0 0 1.205-.373 4.44 4.44 0 0 1 1.387-.298 7 7 0 0 1 1.453.1c.245.037.489.077.736.102a1.46 1.46 0 0 0 .601-.091 2.01 2.01 0 0 1 .572-.13.37.37 0 0 1 .367.164.33.33 0 0 1 .024.089.368.368 0 0 0-.366-.163 1.94 1.94 0 0 0-.572.13 1.44 1.44 0 0 1-.602.09c-.246-.024-.492-.063-.736-.101a7 7 0 0 0-1.453-.101 4.41 4.41 0 0 0-1.387.299 3.82 3.82 0 0 1-1.204.373 1.626 1.626 0 0 1-1.046-.288.795.795 0 0 1-.319-.47.84.84 0 0 0 .294.38m7.81-.821a2 2 0 0 1-.128.075l.006-.01.103-.162a1.94 1.94 0 0 0 .193-.349.28.28 0 0 0 .016-.064.148.148 0 0 1 .008.153 1.94 1.94 0 0 1-.193.349Zm-.088 1.005a1.65 1.65 0 0 0 .458-.22 1.034 1.034 0 0 0 .413-.393.533.533 0 0 0 .06-.295.482.482 0 0 1-.036.384 1.026 1.026 0 0 1-.413.394 1.67 1.67 0 0 1-.458.225c-.12.031-.273.029-.307-.11a.26.26 0 0 1-.005-.043c.053.088.183.086.288.06Zm-.55-1.167a.86.86 0 0 0-.134.349l-.014.01a.635.635 0 0 1 .124-.449 1 1 0 0 0 .186-.5.2.2 0 0 0 0-.038.36.36 0 0 1 .029.127 1.01 1.01 0 0 1-.19.501Zm2.059.66a.506.506 0 0 0-.091-.22c-.022-.031-.078.011-.063.043a.471.471 0 0 1 0 .434.99.99 0 0 1-.33.323 4.64 4.64 0 0 1-1.015.475 9.61 9.61 0 0 1-3.061.56 15.84 15.84 0 0 1-2.873-.213 9.4 9.4 0 0 1-1.055-.22 3.36 3.36 0 0 1-.99-.423.887.887 0 0 1-.481-.817.924.924 0 0 1 .251-.449 2.2 2.2 0 0 1 .166-.159 1.35 1.35 0 0 0-.148.169.56.56 0 0 0-.11.191v.014a1 1 0 0 0-.021.048.035.035 0 0 0 0 .031.67.67 0 0 0 .077.447.836.836 0 0 0 .22.33 1.86 1.86 0 0 0 .611.366c.235.092.48.168.722.239a1.61 1.61 0 0 0 .777.066 3.2 3.2 0 0 0 .687-.263 3 3 0 0 1 .343-.137c.133-.04.271-.068.407-.097a7.2 7.2 0 0 1 .848-.123 7.26 7.26 0 0 1 1.68.055c.278.042.55.116.824.183a3.08 3.08 0 0 0 .699.118 2.005 2.005 0 0 0 1.129-.341c.301-.207.651-.611.429-.99a.616.616 0 0 0-.313-.262 1.2 1.2 0 0 0-.103-.11.7.7 0 0 0-.077-.008c-.024-.023-.049-.046-.071-.07-.039-.044.048-.11.088-.093l.15.052a.65.65 0 0 1 .175-.08c.008 0 .014 0 .014.01a.022.022 0 0 1-.015.015.48.48 0 0 0-.137.068 1.683 1.683 0 0 1 .727.44.569.569 0 0 1-.085.8 3.3 3.3 0 0 1-.478.338 3.36 3.36 0 0 1-.644.297 4.24 4.24 0 0 0 .596-.308c.241-.145.582-.399.542-.727Z"/></svg>