<svg xmlns="http://www.w3.org/2000/svg" viewBox="0 0 24 24"><path fill="#44739e" d="M9.446 3.075a7.8 7.8 0 0 1 .41-.875 1.967 1.967 0 0 1 1.202-.846 2.37 2.37 0 0 1 .675-.095 2.53 2.53 0 0 1 .44.038 2.585 2.585 0 0 1 1.21.583 6.45 6.45 0 0 1 1.022 1.386l.163.263c.025.04.091.153.123.208l.417-.142a4.2 4.2 0 0 0-1.715-2.273 3.397 3.397 0 0 0-4.159 1.034 2.64 2.64 0 0 0-.25.903l.424-.082c.005-.021.022-.061.038-.102m2.405-.003a2.6 2.6 0 0 0 .716-.062 2.6 2.6 0 0 0-.716-.063 2.6 2.6 0 0 0-.717.063 2.6 2.6 0 0 0 .717.062m.722-.018a.88.88 0 0 1-.194.037 5.2 5.2 0 0 1-.528.024 5.2 5.2 0 0 1-.529-.024.86.86 0 0 1-.194-.037v.318a2.29 2.29 0 0 0 .723.067 2.3 2.3 0 0 0 .722-.067Zm-6.096.737v14.321a.609.609 0 0 0 .508.601l8.721 1.488a.472.472 0 0 0 .55-.454l.351-15.028a.535.535 0 0 0-.497-.55l-9.323-.666a.282.282 0 0 0-.22.077.286.286 0 0 0-.09.211m10.732-.097h-.007l-2.022-.143.019.059.013.04-.563.192-.019-.03s-.11-.185-.138-.236l-.049-.079-1.827-.129v.008c0 .026-.018.056-.237.081a5.2 5.2 0 0 1-.528.025 5.2 5.2 0 0 1-.529-.025c-.22-.025-.238-.055-.238-.081v-.117l-1.574-.11c-.036.09-.04.094-.052.103h-.007l-.504.098h-.052l-.02-.078h.016v-.015c.005-.037.013-.091.024-.156L7.552 3.01l-.891.266 9.649.723a.594.594 0 0 1 .55.609l-.448 15.175-.069-.015a.557.557 0 0 1-.201.398.563.563 0 0 1-.355.128.55.55 0 0 1-.094-.009l-8.722-1.487a.694.694 0 0 1-.58-.686v-.346h-.025l-.031.678a.645.645 0 0 0 .532.607l2.578.46a.98.98 0 0 1-.251.22l-2.008 1.262-.01.006a.359.359 0 0 0 .145.639l6.734 1.342a1.06 1.06 0 0 0 .203.02 1.03 1.03 0 0 0 .728-.304l1.485-1.395a1.014 1.014 0 0 0 .291-.977l-.017-.073.248-.169a.527.527 0 0 0 .231-.419l.44-15.372a.594.594 0 0 0-.455-.597m-.93 17.402-1.487 1.397a.745.745 0 0 1-.677.208l-6.734-1.338a.078.078 0 0 1-.035-.136l2.003-1.259a1.276 1.276 0 0 0 .406-.408l5.991 1.068a.86.86 0 0 0 .65-.145v.008l.11-.072a.736.736 0 0 1-.227.677"/></svg>