<svg xmlns="http://www.w3.org/2000/svg" viewBox="0 0 24 24"><path fill="#44739e" d="M12 1c-.508 0-1.017.059-1.504.178-.056.014-.106.045-.152.08-.046.034-.09.074-.119.124a.3.3 0 0 0-.034.095 2 2 0 0 0 0 .354 3.3 3.3 0 0 0 .034.245c.046.27.106.539.217.789.122.272.302.515.51.728.162.166.345.318.558.408.072.031.148.054.211.101.045.034.076.084.094.136.021.059-.003.126.011.187a.17.17 0 0 0 .024.056.13.13 0 0 0 .03.03v1.22c-.436.006-.881.065-1.42.191-.003.001-.005 0-.007.002-.005.006-.005.015-.006.022-.024.134-.072.285-.013.408.017.036.076.035.094.071.102.199.02.447.011.67-.007.17-.024.339-.047.507-.026.193-.041.39-.103.574-.127.371-.31.729-.544 1.044-.254.342-.57.644-.917.892-.451.322-1 .479-1.483.751-.492.279-1 .542-1.437.901-.39.319-.722.708-1.04 1.1-.226.278-.467.555-.612.883-.323.727-.564 1.529-.544 2.324.024.916.325 1.835.763 2.639.317.581.804 1.064 1.304 1.497.474.411 1.012.755 1.579 1.021.538.251 1.126.377 1.7.53.359.096.723.176 1.089.243.137.025.28.022.415.058a.66.66 0 0 1 .124.049c.044.022.091.043.127.078a.41.41 0 0 1 .099.152c.054.153-.037.348.051.484.009.013.026.018.041.023.285.104.593.155.896.155.304 0 .61-.051.896-.155.015-.005.032-.01.041-.023.088-.136-.003-.331.051-.484a.41.41 0 0 1 .099-.152c.036-.035.083-.056.127-.078a.66.66 0 0 1 .124-.049c.135-.036.278-.033.415-.058.366-.067.73-.147 1.089-.243.574-.153 1.162-.279 1.7-.53.567-.266 1.105-.61 1.579-1.021.5-.433.987-.916 1.304-1.497.438-.804.739-1.724.763-2.639.02-.795-.221-1.597-.544-2.324-.145-.328-.386-.605-.612-.883-.318-.392-.65-.781-1.04-1.1-.437-.359-.945-.622-1.437-.901-.483-.272-1.032-.429-1.483-.751-.347-.248-.663-.55-.917-.892-.234-.315-.417-.673-.544-1.044-.062-.184-.077-.381-.103-.574-.023-.168-.04-.337-.047-.507-.009-.223-.091-.471.011-.67.018-.036.077-.035.094-.071.059-.123.011-.274-.013-.408-.001-.007-.001-.016-.006-.022-.002-.002-.004-.001-.007-.002-.537-.11-.982-.175-1.42-.189V4.511a.13.13 0 0 0 .03-.03.17.17 0 0 0 .024-.056c.014-.061-.01-.128.011-.187.018-.052.049-.102.094-.136.063-.047.139-.07.211-.101.213-.09.397-.242.559-.408.207-.213.387-.456.509-.728.111-.25.171-.519.217-.789a3.3 3.3 0 0 0 .034-.245 2 2 0 0 0 0-.354.3.3 0 0 0-.034-.095c-.029-.05-.071-.09-.116-.124-.047-.035-.099-.066-.155-.08A6.4 6.4 0 0 0 12 1"/></svg>