<svg xmlns="http://www.w3.org/2000/svg" viewBox="0 0 24 24"><path fill="#44739e" d="M13.223 6.356a1.657 1.657 0 0 0 .429-1.1c0-.052 0-.11-.006-.158a1.655 1.655 0 0 0-.634.178A1.793 1.793 0 0 0 12 6.805a1.1 1.1 0 0 0 .01.149 1.46 1.46 0 0 0 1.213-.598m-3.668 5.586a4 4 0 0 0 .568.681.99.99 0 0 0 .713.317 1.96 1.96 0 0 0 .617-.162 1.91 1.91 0 0 1 .713-.152 1.86 1.86 0 0 1 .694.152 1.7 1.7 0 0 0 .644.155 1.064 1.064 0 0 0 .696-.307 3.9 3.9 0 0 0 .542-.66 4.3 4.3 0 0 0 .423-.76c.049-.115.095-.234.135-.359a1.87 1.87 0 0 1-.541-.357 1.712 1.712 0 0 1 .33-2.75 1.894 1.894 0 0 0-1.486-.783 2.2 2.2 0 0 0-.891.158 3.63 3.63 0 0 1-.66.205 2.42 2.42 0 0 1-.591-.175 2.27 2.27 0 0 0-.746-.175 1.925 1.925 0 0 0-.964.274 2.035 2.035 0 0 0-.713.724A2.585 2.585 0 0 0 8.7 9.331a4.35 4.35 0 0 0 .254 1.417 4.73 4.73 0 0 0 .601 1.194m12.883-9.355H1.561A.561.561 0 0 0 1 3.149v14.155a.562.562 0 0 0 .561.562h8.559l-.124 1.859a.906.906 0 0 1-.288.609l-.87.77a.176.176 0 0 0 .115.309h6.094a.176.176 0 0 0 .11-.31l-.88-.77a.894.894 0 0 1-.296-.624l-.11-1.848h8.561a.563.563 0 0 0 .568-.557V3.149a.562.562 0 0 0-.562-.562M12 2.733a.205.205 0 0 1 .021.409.08.08 0 0 1-.021 0 .07.07 0 0 1-.021 0A.205.205 0 0 1 12 2.733m10.296 12.018H1.704V3.291h20.592Z"/></svg>