<svg xmlns="http://www.w3.org/2000/svg" viewBox="0 0 24 24"><path fill="#44739e" d="m13.886 17.213.004.01h-.004Zl-.291-.867h-.253v1.152h.18v-.869l.301.869h.25v-1.152h-.185Zm2.859-.858h.216v1.153h-.216ZM12 6.492c-4.641 0-8.404 1.897-8.404 4.238 0 1.894 2.467 3.499 5.87 4.04l2.53-6.05 2.53 6.05c3.403-.542 5.87-2.146 5.87-4.041.007-2.34-3.756-4.237-8.396-4.237m3.86 6.364L12 8.371l-3.85 4.472c-1.893-.528-3.142-1.453-3.142-2.59 0-1.804 3.105-3.496 6.98-3.496s7.052 1.692 7.052 3.496c0 1.146-1.264 2.078-3.182 2.603Zm6.924 3.499H23v1.153h-.216Zm-3.242-.005v.168h.252v.985h.215v-.985h.251v-.168ZM1 16.355h.216v1.153H1Zm3.409.86.002.008h-.002Zl-.293-.869h-.252v1.152h.18v-.869l.3.869h.251v-1.152H4.41Zm6.033-.86h.216v1.153h-.216Zm-3.191 1.144h.215v-.522h.37v-.169h-.37v-.293h.396v-.168h-.611Z"/></svg>