<svg xmlns="http://www.w3.org/2000/svg" viewBox="0 0 24 24"><path fill="#44739e" d="M19.227 1H4.773A3.772 3.772 0 0 0 1 4.773v14.454A3.772 3.772 0 0 0 4.773 23H6.28a1.07 1.07 0 0 1 .145-.301c2.572-3.487 7.457-4.114 10.205-3.969a2.01 2.01 0 0 0 1.301-.29c.33-.301.338-.514.403-1.061h1.195a3.164 3.164 0 0 1-.633 2.17c-1.1 1.1-3.213.314-4.741 1.221-.8.475-.833 1.34-1.149 2.23h6.221A3.772 3.772 0 0 0 23 19.227V4.773A3.772 3.772 0 0 0 19.227 1M17.19 18.103h-3.019a.33.33 0 0 1-.323-.318l-.055-3.575a.323.323 0 0 0-.323-.318h-2.86a.322.322 0 0 0-.323.324l.014 3.562a.322.322 0 0 1-.324.325h-2.97a.323.323 0 0 1-.323-.324v-5.82a1.145 1.145 0 0 1 .44-.902l4.173-3.273a1.147 1.147 0 0 1 1.409 0l4.307 3.331a1.146 1.146 0 0 1 .44.895l.056 5.77a.323.323 0 0 1-.319.323m2.213-7.161-.054.064a.535.535 0 0 1-.734.073L12.33 6.19a.537.537 0 0 0-.652 0l-6.351 4.84a.535.535 0 0 1-.653-.846L11.67 4.7a.535.535 0 0 1 .66 0l2.53 1.98v-.402a.475.475 0 0 1 .465-.567h1.65a.474.474 0 0 1 .474.474v2.523l1.87 1.466a.533.533 0 0 1 .084.768"/></svg>