<svg xmlns="http://www.w3.org/2000/svg" viewBox="0 0 24 24"><path fill="#44739e" d="M13.156 19.993a15.96 15.96 0 0 1-5.103-1.113c-1.125-.361-1.632-.425-1.981-1.51a6.32 6.32 0 0 1-.237-2.083 21 21 0 0 1 .228-2.803 12.1 12.1 0 0 1 .311-1.59 16.4 16.4 0 0 1 .57-1.877c.123-.345.284-.674.424-1.014.203-.523.433-1.074.674-1.58a18.73 18.73 0 0 1 1.906-3.324c.236-.33.605-.798.856-1.134.083-.11-.04-.045-.143-.074a6.45 6.45 0 0 0-1.114-.045 4.98 4.98 0 0 0-2.252 1.346 7.13 7.13 0 0 0-1.073 1.131c-.22.266-.414.466-.632.782A18.33 18.33 0 0 0 3.915 8.02a10.95 10.95 0 0 0-.902 2.443 11.44 11.44 0 0 0-.378 1.718 13.15 13.15 0 0 0-.187 2.732 4.996 4.996 0 0 0 .6 2.39 2.584 2.584 0 0 0 1.496 1.073 22.05 22.05 0 0 0 3.504 1.05 23.3 23.3 0 0 0 2.667.44c.455-.008-.007.33.4.37 0 .11 0 .176.152.176.528.069-.247.088-.11.234.022.103.262.085.343.145-.07.055-.365.061-.33.172 0 .07.013.078.191.11.212.04.209.067-.017.11-.205.014-.18.175-.041.2.502.093.069.077-.058.203-.077.08.063.121.214.166.264.061-.278.078-.221.225-.039.14.338.201.531.213.11 0 .11 0 .104.34a4.5 4.5 0 0 0 .008.462c.39-.039.526.183.49-.44.025-.526-.078-.339.243-.427.29-.042.33-.086.298-.255-.016-.02-.03-.026-.136-.055-.168-.047-.154-.041-.138-.06.039-.059.247-.03.266-.121.052-.104 0-.155-.152-.159s-.159-.064-.014-.091.171-.038.194-.092c.042-.101.008-.129-.188-.15-.251 0 .025-.116.088-.123.131-.03.201-.184-.038-.193a.58.58 0 0 1-.161-.038 1.06 1.06 0 0 1 .235-.11c.288-.124-.133-.22-.238-.22-.029-.03.118-.073.2-.086.213-.026.051-.166.244-.196.11 0 .188-.11.156-.168Zm7.492-8.103c-.559.625-.427 2.201-.5 2.874a4.78 4.78 0 0 1-.43 1.381 4.34 4.34 0 0 1-1.084 1.486 6.05 6.05 0 0 1-2.57 1.082 5.577 5.577 0 0 1-4.523-2.057 8.03 8.03 0 0 1-1.15-2.078 8.803 8.803 0 0 1 .122-5.919 3.14 3.14 0 0 1 .317-.582 6.47 6.47 0 0 1 1.225-1.474 6.697 6.697 0 0 1 4.932-1.162c.77-.019 1.1.371.394-.421-.169-.189-.502-.57-.653-.76a64 64 0 0 1-1.133-1.74 6.76 6.76 0 0 1-.606-1.129c-.038-.226-.866-.398-1.321-.383a1.84 1.84 0 0 1 .22 1.651 5.89 5.89 0 0 1-1.98 2.511 9.2 9.2 0 0 0-1.505 1.431 10.73 10.73 0 0 0-.899 1.628 8.836 8.836 0 0 0-.66 4.458 10.23 10.23 0 0 0 .631 2.545c.519 1.23 1.344 2.346 1.805 3.543.41 1.023-.077.843 1.069.969 2.436.282 3.349.278 5.377-.7.343-.198 1.115-.487 1.301-.832.089-.243.196-.523.295-.754 1.031-2.215 1.487-2.993 1.326-5.568m.711.595c-.031-.129-.213-1.635-.322-1.356a1.12 1.12 0 0 0-.199.834 11.9 11.9 0 0 1-.082 2.433 15.3 15.3 0 0 1-1.169 2.947c-.074.145-.144.33-.205.468-.016.063-.136.272-.11.304s0 .032.276-.168l.074-.054c.22-.163.4-.283.551-.39a2.93 2.93 0 0 0 1.163-1.179 8.726 8.726 0 0 0 .023-3.839m-5.08-6.873c-2.005-.009-3.961.466-5.017 2.225a6.23 6.23 0 0 0-1.035 2.751 8.814 8.814 0 0 0 .598 4.435 5.44 5.44 0 0 0 .826 1.385 4.864 4.864 0 0 0 1.896 1.541 4.062 4.062 0 0 0 3.649.253 4.206 4.206 0 0 0 2.65-3.135c.191-.788.089-1.682.266-2.499a2.19 2.19 0 0 1 .268-.66 7.48 7.48 0 0 0 .907-2.224 2.94 2.94 0 0 0-.234-1.541 3.06 3.06 0 0 0-.991-1.366 4.42 4.42 0 0 0-.762-.532 6.884 6.884 0 0 0-3.021-.633M7.627 7.891c-.189.488-.407 1.015-.594 1.496a14.2 14.2 0 0 0-.479 1.727 16.23 16.23 0 0 0-.445 2.694 11.92 11.92 0 0 0 .015 2.855 2.7 2.7 0 0 0 .238.855 1.64 1.64 0 0 0 .556.713 2.83 2.83 0 0 0 .686.276 26.96 26.96 0 0 0 3.702 1.085 10.06 10.06 0 0 0-1.321-2.903 9.2 9.2 0 0 1-.977-2.26c-.166-.684-.297-1.238-.407-1.949a9.02 9.02 0 0 1 .48-3.734 7.26 7.26 0 0 1 .536-1.21 7.76 7.76 0 0 1 .831-1.307 7.15 7.15 0 0 1 1.211-1.101 12.2 12.2 0 0 0 1.38-1.441 2.311 2.311 0 0 0 .608-2.311 1.65 1.65 0 0 0-.151-.25c-.019-.047-.102-.153-.172-.12-1.915.198-2.241.843-3.255 2.311a20.47 20.47 0 0 0-2.442 4.574m8.307-5.239a21.9 21.9 0 0 0 1.519 2.163c.149.186.316.382.482.572.321.365.306.278.921.451.053.013.058 0 .022-.066a14.9 14.9 0 0 0-.77-1.293 8.996 8.996 0 0 0-2.904-3.016 3.63 3.63 0 0 0 .307.537c.15.218.28.429.423.652"/></svg>