<svg xmlns="http://www.w3.org/2000/svg" viewBox="0 0 24 24"><path fill="#44739e" d="M8.864 13.044h-.023a.07.07 0 0 0-.083.055v1.687a.067.067 0 0 0 .054.065h.01a.07.07 0 0 0 .081-.058v-.012l.017-1.678a.069.069 0 0 0-.056-.059m-.388-.066h-.024a.071.071 0 0 0-.083.057v1.685a.068.068 0 0 0 .054.065h.01a.069.069 0 0 0 .087-.049v-.015l.014-1.677a.068.068 0 0 0-.054-.066Zm-.379-.086h-.023a.07.07 0 0 0-.082.052v1.689a.068.068 0 0 0 .053.065h.01a.071.071 0 0 0 .087-.052v-.013l.017-1.673a.069.069 0 0 0-.062-.068m-.377-.084h-.023a.07.07 0 0 0-.083.055v1.686a.068.068 0 0 0 .054.065h.01a.068.068 0 0 0 .086-.047v-.017l.016-1.674a.069.069 0 0 0-.06-.068m-.372-.077h-.023a.07.07 0 0 0-.083.055v1.686a.068.068 0 0 0 .054.065h.01a.069.069 0 0 0 .087-.048v-.016l.017-1.674a.068.068 0 0 0-.062-.068m-.342-.076h-.023a.071.071 0 0 0-.083.056v1.677a.068.068 0 0 0 .054.064h.01a.07.07 0 0 0 .086-.05v-.013l.016-1.666a.069.069 0 0 0-.06-.068m-.345-.059h-.024a.07.07 0 0 0-.082.052v1.679a.065.065 0 0 0 .053.065h.01a.069.069 0 0 0 .084-.05v-.016l.018-1.663a.067.067 0 0 0-.059-.067m-.361-.063h-.02a.07.07 0 0 0-.083.053v1.678a.068.068 0 0 0 .054.065h.009a.069.069 0 0 0 .087-.048v-.016l.013-1.661a.064.064 0 0 0-.06-.071m-.33-.081h-.02a.07.07 0 0 0-.082.052v1.699a.068.068 0 0 0 .053.065h.01a.069.069 0 0 0 .087-.049v-.016l.017-1.68a.069.069 0 0 0-.067-.071Zm-.365-.068h-.027a.07.07 0 0 0-.082.053v1.695a.068.068 0 0 0 .051.071h.01a.069.069 0 0 0 .087-.049v-.016l.017-1.68a.07.07 0 0 0-.059-.074Zm-.357-.08h-.025a.071.071 0 0 0-.084.056v1.692a.069.069 0 0 0 .054.066h.01a.069.069 0 0 0 .087-.048v-.017l.017-1.68a.068.068 0 0 0-.061-.069Zm-.34-.071h-.025a.07.07 0 0 0-.082.055v1.695a.069.069 0 0 0 .053.066h.01A.069.069 0 0 0 4.951 14v-.016l.017-1.68a.067.067 0 0 0-.062-.071Zm-.33-.041h-.022a.065.065 0 0 0-.076.052v1.629a.065.065 0 0 0 .05.062h.009a.065.065 0 0 0 .079-.047v-.015l.012-1.615a.065.065 0 0 0-.053-.066Zm-.337-.061h-.022a.065.065 0 0 0-.076.052v1.627a.066.066 0 0 0 .047.063h.009a.065.065 0 0 0 .079-.048v-.015l.022-1.613a.065.065 0 0 0-.06-.066Zm-.315-.058h-.022a.065.065 0 0 0-.076.052v1.627a.065.065 0 0 0 .046.062h.008a.065.065 0 0 0 .079-.047v-.015l.016-1.613a.065.065 0 0 0-.052-.066Zm-.33-.06h-.022a.065.065 0 0 0-.075.05v1.627a.068.068 0 0 0 .05.064h.009a.065.065 0 0 0 .079-.047v-.016l.014-1.612a.062.062 0 0 0-.054-.066Zm-.339-.078h-.02a.065.065 0 0 0-.075.051v1.627a.065.065 0 0 0 .048.063h.009a.065.065 0 0 0 .079-.047v-.015l.012-1.611a.065.065 0 0 0-.052-.068Zm-.313-.066h-.022a.064.064 0 0 0-.075.049.06.06 0 0 0 0 .013v1.612a.065.065 0 0 0 .049.062h.009a.063.063 0 0 0 .078-.045v-.016l.015-1.613a.066.066 0 0 0-.053-.062Zm-.313-.055h-.019a.065.065 0 0 0-.076.051v1.627a.066.066 0 0 0 .049.063h.009a.065.065 0 0 0 .079-.047v-.016l.014-1.612a.065.065 0 0 0-.055-.066Zm-.33-.051h-.022a.066.066 0 0 0-.074.053v1.626a.064.064 0 0 0 .048.062h.009a.063.063 0 0 0 .078-.045v-.016l.014-1.614a.063.063 0 0 0-.052-.066Zm20.686-2.95a.322.322 0 0 0-.11-.24.33.33 0 0 0-.25-.081L11.086 9.683a5.36 5.36 0 0 1-1.44-.044l-8.25-1.367a.33.33 0 0 0-.374.279.2.2 0 0 0 0 .04L1 14.17a.486.486 0 0 0 .163.365v.351a.261.261 0 0 0 .21.255l.469.092a.26.26 0 0 0 .304-.205.22.22 0 0 0 0-.049v-.156l7.148 1.69a6.2 6.2 0 0 0 .828.135v.195a.26.26 0 0 0 .26.258h.672a.258.258 0 0 0 .26-.257v-.211c.095-.01.191-.023.286-.038l9.95-1.568-.016.183a.26.26 0 0 0 .234.283.33.33 0 0 0 .056 0l.608-.077a.258.258 0 0 0 .227-.243l.018-.33a.483.483 0 0 0 .323-.46Zm-11.478 7.206a5.39 5.39 0 0 1-2.082-.078l-7.844-1.848.013-5.198 7.955 1.32a6 6 0 0 0 1.595.05l11.258-1.162.013 5.2Zm0 0a5.39 5.39 0 0 1-2.082-.078l-7.844-1.848.013-5.198 7.955 1.32a6 6 0 0 0 1.595.05l11.258-1.162.013 5.2ZM6.18 11.611l.189.034v.13l2.285.409v-.123l.242.033v-.516l-2.716-.476Zm.162-.317 2.392.419v.196l-.243-.033v.11l-1.96-.344v-.132l-.189-.034ZM1.594 8.015l8.217 1.294a5.43 5.43 0 0 0 1.388.037L22.45 8.202a.065.065 0 0 0 0-.128l-8.729-1.131a5.43 5.43 0 0 0-1.164-.023l-10.959.969a.065.065 0 0 0 0 .126Zm9.214.83c.453.028.66.122.565.198a1.55 1.55 0 0 1-.677.103 1.58 1.58 0 0 1-.797-.141c-.094-.11.355-.192.909-.16m9.798 2.364-7.581.88a.467.467 0 0 0-.296.365v1.241c0 .144.14.345.296.33l7.657-.99a.247.247 0 0 0 .228-.238v-1.344a.263.263 0 0 0-.277-.25Zm-5.17 2.003a.17.17 0 0 1-.149.169l-1.32.165h-.021a.168.168 0 0 1-.171-.166v-.73a.17.17 0 0 1 .151-.17l1.32-.152a.17.17 0 0 1 .189.152v.733Zm2.115-.274a.163.163 0 0 1-.143.16l-1.262.158h-.02a.163.163 0 0 1-.11-.041.167.167 0 0 1-.055-.122v-.688a.162.162 0 0 1 .144-.161l1.262-.146a.163.163 0 0 1 .18.146v.016Zm.895-.186h-.025a.286.286 0 0 1-.194-.076.35.35 0 0 1-.11-.255.374.374 0 0 1 .32-.386.279.279 0 0 1 .22.077.35.35 0 0 1 .11.263.372.372 0 0 1-.322.377ZM20 12.317l-.677.087v-.32l.683-.081Zm-4.73.148-1.32.152a.041.041 0 0 0-.036.04v.726a.037.037 0 0 0 .037.041h.009l1.32-.165a.042.042 0 0 0 .035-.041v-.713a.052.052 0 0 0-.015-.03.044.044 0 0 0-.032-.01Zm3.197-.33h-.017a.275.275 0 0 0-.23.288.258.258 0 0 0 .077.185.19.19 0 0 0 .147.048.277.277 0 0 0 .23-.279.25.25 0 0 0-.074-.191.19.19 0 0 0-.135-.05Zm-1.077.088-1.262.144a.042.042 0 0 0-.035.039v.697a.05.05 0 0 0 .013.029.04.04 0 0 0 .031.01l1.262-.157a.041.041 0 0 0 .035-.04v-.679a.04.04 0 0 0-.013-.03.04.04 0 0 0-.031-.013"/></svg>