<svg xmlns="http://www.w3.org/2000/svg" fill="#44739e" viewBox="0 0 24 24"><path d="M13.046 19.269a14.5 14.5 0 0 1-4.638-1.012c-1.022-.328-1.483-.386-1.8-1.372a5.74 5.74 0 0 1-.216-1.893 19.1 19.1 0 0 1 .208-2.547A11 11 0 0 1 6.882 11 14.9 14.9 0 0 1 7.4 9.294c.112-.314.258-.613.386-.922.184-.475.393-.976.612-1.435a17.02 17.02 0 0 1 1.732-3.021c.215-.3.55-.725.778-1.031.076-.1-.036-.041-.13-.067a5.86 5.86 0 0 0-1.012-.041A4.527 4.527 0 0 0 7.719 4a6.48 6.48 0 0 0-.975 1.028c-.2.242-.376.424-.574.711a16.66 16.66 0 0 0-1.522 2.649 9.95 9.95 0 0 0-.82 2.22 10.4 10.4 0 0 0-.344 1.561 11.95 11.95 0 0 0-.17 2.483 4.54 4.54 0 0 0 .546 2.172 2.348 2.348 0 0 0 1.359.975 20.04 20.04 0 0 0 3.185.954 21.2 21.2 0 0 0 2.423.4c.414-.007-.006.3.364.336 0 .1 0 .16.138.16.48.063-.225.08-.1.213.02.094.238.077.312.132-.064.05-.332.055-.3.156 0 .064.012.071.173.1.193.036.19.061-.015.1-.186.013-.164.159-.037.182.456.084.062.07-.053.184-.07.073.057.11.194.151.24.056-.252.071-.2.205-.036.127.307.182.482.193.1 0 .1 0 .095.309a4.1 4.1 0 0 0 .007.42c.354-.035.478.166.445-.4.023-.478-.071-.308.221-.388.264-.038.3-.078.271-.232-.015-.018-.027-.023-.124-.05-.152-.042-.14-.037-.125-.054.035-.054.224-.027.242-.11.047-.095 0-.141-.139-.145s-.144-.058-.012-.082.155-.035.176-.084c.038-.092.007-.117-.171-.136-.228 0 .023-.106.08-.112.119-.027.183-.167-.034-.175a.53.53 0 0 1-.147-.035.96.96 0 0 1 .214-.1c.262-.113-.121-.2-.216-.2-.027-.027.107-.066.181-.078.194-.024.047-.151.222-.178.1 0 .171-.1.142-.153zm6.808-7.364c-.508.568-.388 2-.454 2.612a4.34 4.34 0 0 1-.391 1.255 3.94 3.94 0 0 1-.985 1.35 5.5 5.5 0 0 1-2.336.983 5.068 5.068 0 0 1-4.11-1.869 7.3 7.3 0 0 1-1.045-1.888 8 8 0 0 1 .111-5.379 2.85 2.85 0 0 1 .288-.529 5.88 5.88 0 0 1 1.113-1.34 6.086 6.086 0 0 1 4.482-1.056c.7-.017 1 .337.358-.382-.153-.172-.456-.518-.593-.691a58 58 0 0 1-1.03-1.581 6.14 6.14 0 0 1-.551-1.026c-.034-.206-.787-.362-1.2-.348a1.672 1.672 0 0 1 .2 1.5 5.354 5.354 0 0 1-1.8 2.282 8.35 8.35 0 0 0-1.367 1.3 9.75 9.75 0 0 0-.817 1.48 8.03 8.03 0 0 0-.6 4.051 9.3 9.3 0 0 0 .573 2.313c.472 1.118 1.222 2.132 1.641 3.22.372.929-.07.766.971.88 2.214.257 3.044.253 4.887-.636.311-.18 1.013-.442 1.182-.756.081-.221.178-.475.268-.685.937-2.013 1.351-2.72 1.205-5.06m.646.541c-.028-.118-.193-1.486-.292-1.233a1.017 1.017 0 0 0-.181.758 10.8 10.8 0 0 1-.075 2.211 13.9 13.9 0 0 1-1.062 2.678c-.067.132-.131.3-.186.426-.015.057-.124.247-.1.276s0 .029.25-.153l.068-.049c.2-.148.363-.257.5-.354a2.664 2.664 0 0 0 1.057-1.072 7.93 7.93 0 0 0 .021-3.488M15.884 6.2c-1.822-.009-3.6.423-4.56 2.022a5.66 5.66 0 0 0-.94 2.5 8.01 8.01 0 0 0 .543 4.03 4.94 4.94 0 0 0 .751 1.259 4.42 4.42 0 0 0 1.723 1.4 3.691 3.691 0 0 0 3.316.23 3.822 3.822 0 0 0 2.408-2.849c.174-.716.081-1.529.242-2.271a1.99 1.99 0 0 1 .244-.6 6.8 6.8 0 0 0 .824-2.021 2.67 2.67 0 0 0-.213-1.4 2.78 2.78 0 0 0-.9-1.242 4.02 4.02 0 0 0-.693-.483 6.256 6.256 0 0 0-2.745-.575M8.021 8.271c-.172.443-.37.922-.54 1.359a12.9 12.9 0 0 0-.435 1.57 14.75 14.75 0 0 0-.405 2.448 10.83 10.83 0 0 0 .014 2.594 2.45 2.45 0 0 0 .216.777 1.49 1.49 0 0 0 .506.648 2.57 2.57 0 0 0 .623.251 24.5 24.5 0 0 0 3.364.986 9.14 9.14 0 0 0-1.2-2.638 8.36 8.36 0 0 1-.888-2.054c-.151-.621-.27-1.125-.37-1.771a8.2 8.2 0 0 1 .436-3.393 6.6 6.6 0 0 1 .487-1.1 7.05 7.05 0 0 1 .756-1.188 6.5 6.5 0 0 1 1.1-1 11.1 11.1 0 0 0 1.254-1.31 2.1 2.1 0 0 0 .553-2.1 1.5 1.5 0 0 0-.137-.227c-.018-.043-.093-.139-.157-.109-1.74.18-2.036.766-2.958 2.1a18.6 18.6 0 0 0-2.219 4.157M15.57 3.51a19.9 19.9 0 0 0 1.381 1.965c.135.169.287.347.438.52.291.332.278.253.837.41.048.012.052 0 .02-.06a13.5 13.5 0 0 0-.7-1.175 8.175 8.175 0 0 0-2.639-2.741 3.3 3.3 0 0 0 .279.488c.136.198.254.39.384.593"/></svg>