<svg xmlns="http://www.w3.org/2000/svg" viewBox="0 0 24 24"><path fill="#44739e" d="M17.951 1H6.049A5.038 5.038 0 0 0 1 6.049v11.902A5.038 5.038 0 0 0 6.049 23h11.902A5.038 5.038 0 0 0 23 17.951V6.049A5.038 5.038 0 0 0 17.951 1m-2.918 13.692a2.116 2.116 0 0 1-2.117 2.115H6.47a2.116 2.116 0 0 1-2.115-2.115V9.335a2.115 2.115 0 0 1 2.12-2.117h6.441a2.117 2.117 0 0 1 2.117 2.117Zm4.62.814a.848.848 0 0 1-1.393.649l-2.432-2.04a.936.936 0 0 1-.33-.718v-2.772a.939.939 0 0 1 .341-.723L18.266 7.9a.846.846 0 0 1 1.386.654Z"/></svg>