<svg xmlns="http://www.w3.org/2000/svg" fill="#44739e" viewBox="0 0 24 24"><path d="M21.275 6.013a4.77 4.77 0 0 0-2.066-2.792 4.7 4.7 0 0 0-1.156-.521 4.83 4.83 0 0 0-1.32-.2h-9.6a4.87 4.87 0 0 0-.955.107 4.7 4.7 0 0 0-1.789.8 4.748 4.748 0 0 0-1.936 3.475c-.011.11-.01.22-.015.33v9.573a4.9 4.9 0 0 0 .162 1.2 4.765 4.765 0 0 0 2.066 2.791 4.7 4.7 0 0 0 1.044.49 4.8 4.8 0 0 0 1.432.233h9.592a4.84 4.84 0 0 0 .8-.077 4.749 4.749 0 0 0 3.766-3.541 5 5 0 0 0 .137-1.1V7.222a4.93 4.93 0 0 0-.162-1.209m-5.554-.268a2.465 2.465 0 0 1 1.467.349 2.421 2.421 0 0 1 1.156 1.973 2.513 2.513 0 0 1-.272 1.256 2.95 2.95 0 0 0-.622-.066h-2.381a3 3 0 0 0-.4.044 2.8 2.8 0 0 0 .041-.473V6.542a2.7 2.7 0 0 0-.061-.464 2.545 2.545 0 0 1 1.072-.333M14.6 9.613h.006a2.46 2.46 0 0 1 .472-.064h2.37a2.75 2.75 0 0 1 .47.041 2.47 2.47 0 0 1-.25.32c-.105.111-.216.222-.323.328-.058.057-.117.117-.175.175l-.35.35-.793.793a2.74 2.74 0 0 1-.345.289 2.8 2.8 0 0 0-1.492-.428h-.12a2.79 2.79 0 0 0-1.326.407 2 2 0 0 1-.114-.092c0-.042.011-.083.018-.122s.012-.069.02-.1a2.75 2.75 0 0 0 .515-.2A2.78 2.78 0 0 0 14.6 9.621Zm.806 2.4a2.534 2.534 0 0 1-1.956.178 2.4 2.4 0 0 1-.439-.191 2.49 2.49 0 0 1 1.069-.3 2.525 2.525 0 0 1 1.325.313zm-2.64-.837a2.47 2.47 0 0 1 .5-.8 2.574 2.574 0 0 1 1-.662 2.5 2.5 0 0 1-1.21 1.343 2.8 2.8 0 0 1-.291.119zm1.657-4.625V8.83a2.5 2.5 0 0 1-.06.546 2.9 2.9 0 0 0-1.307.8 2.746 2.746 0 0 0-.625 1.092c-.073.013-.14.023-.2.03-.05-.068-.087-.123-.108-.159l-.039-.067c.038-.085.074-.178.107-.277a2.78 2.78 0 0 0 .125-1.063 2.85 2.85 0 0 0-.266-1.005c.025-.047.05-.094.077-.138l.016-.027c.03-.048.061-.1.094-.144a3.05 3.05 0 0 1 .383-.437l.632-.632.1-.1.613-.612a3.7 3.7 0 0 1 .421-.381 3 3 0 0 1 .036.295zM12.457 12.2l-.089.086a2.6 2.6 0 0 0-.161.174l-.073.085h-.311l-.109.006-.073-.085c-.046-.055-.1-.108-.145-.158l-.029-.029-.047-.131v-.04c0-.055.005-.109 0-.162v-.132l.091-.1.054-.062v-.005c.025-.028.051-.06.077-.093l.066-.083.1.006h.328l.081.08.035.04c.038.044.078.087.118.128l.087.087v.271zm-.366 1.836a2.54 2.54 0 0 1-.169 1.026 2.56 2.56 0 0 1-.164-.729 2.47 2.47 0 0 1 .164-1.094 2.47 2.47 0 0 1 .169.792zm-.315-4.045a2.56 2.56 0 0 1 .117-.883 2.512 2.512 0 0 1 .023 1.6 2.4 2.4 0 0 1-.14-.722zM9.515 6.036a2.41 2.41 0 0 1 .538-1.021 2.48 2.48 0 0 1 1.285-.774 2.459 2.459 0 0 1 2.214.565 2.477 2.477 0 0 1 .717 1.128l-.027.019-.036.025a3.66 3.66 0 0 0-.487.433l-.676.677c-.223.222-.445.445-.666.666a3.4 3.4 0 0 0-.417.477c-.038.052-.071.106-.1.158l-.018.028a2.98 2.98 0 0 0-.4-.5l-.792-.791-.352-.352c-.059-.058-.118-.118-.176-.176-.109-.11-.221-.223-.336-.332a3.2 3.2 0 0 0-.262-.213zm-.015.335c.042.034.085.071.13.112.111.105.222.216.328.323l.177.177.352.351.791.792a2.66 2.66 0 0 1 .441.587l.009.015A2.84 2.84 0 0 0 11.489 10a2.76 2.76 0 0 0 .272 1.077 1.6 1.6 0 0 1-.089.153l-.02.031v.006l-.013.019a5 5 0 0 1-.177-.028 2.6 2.6 0 0 0-.209-.531 2.858 2.858 0 0 0-1.716-1.4c0-.017-.007-.036-.01-.054a2.96 2.96 0 0 1-.043-.573V6.84a4 4 0 0 1 .016-.469m1.63 4.8A2.48 2.48 0 0 1 9.624 9.66a2.57 2.57 0 0 1 1.37 1.2 2.5 2.5 0 0 1 .136.311m-1.836-1.6v.006a2.762 2.762 0 0 0 1.92 1.922c.016.086.061.142.067.215-.009.008.017.082.008.09l-.165.036-.044-.027a2.748 2.748 0 0 0-1.639-.391 2.82 2.82 0 0 0-1.3.428l-.047.03h-.006a3.25 3.25 0 0 1-.4-.357l-.672-.672-.673-.673a3.34 3.34 0 0 1-.4-.446l-.03-.043-.013-.024v-.007l-.009-.012-.051-.084h.006a2.44 2.44 0 0 1 .472-.065h2.368a2.75 2.75 0 0 1 .613.07zm1.582 2.451-.014.008a2.44 2.44 0 0 1-1.151.345 2.537 2.537 0 0 1-1.322-.3v-.028a2.544 2.544 0 0 1 1.084-.334 2.47 2.47 0 0 1 1.403.31zm-2.658 0-.069.06-.011-.007-.018-.015.02-.014.053-.036.022-.01v.017zm-2.4-5.055a2.415 2.415 0 0 1 1.974-1.159h.107a2.515 2.515 0 0 1 1.338.383v.013a3.5 3.5 0 0 0-.037.638V8.7a3.5 3.5 0 0 0 .031.553 3 3 0 0 0-.552-.053H6.297a2.7 2.7 0 0 0-.526.072l-.08.028a2.53 2.53 0 0 1-.221-.865 2.465 2.465 0 0 1 .349-1.471Zm-1.91 5.56a2.41 2.41 0 0 1-.034-.972 2.45 2.45 0 0 1 .626-1.239 2.58 2.58 0 0 1 1.048-.679c.022.039.045.078.068.115l.03.046.009.014.014.023.02.028.064-.047-.063.047.025.036a3.6 3.6 0 0 0 .433.486l.672.672.671.671a3.7 3.7 0 0 0 .365.333c-.122.1-.232.211-.342.322l-.672.672-.056.056c-.205.206-.411.411-.615.615a3.3 3.3 0 0 0-.416.477c-.029.04-.055.08-.081.12a2.62 2.62 0 0 1-.959-.513 2.46 2.46 0 0 1-.807-1.283m5.277 5.432a2.53 2.53 0 0 1-1.989.2 2.22 2.22 0 0 1-.526-.244l-.03-.02h-.006a2.45 2.45 0 0 1-.266-.2l-.008-.007a2 2 0 0 1-.239-.237l-.074-.09c-.04-.053-.136-.181-.18-.255a2.45 2.45 0 0 1-.344-1.151 2.55 2.55 0 0 1 .29-1.295h.03l.023.005.037.006.045.007a3.35 3.35 0 0 0 .562.037h2.034a3.4 3.4 0 0 0 .642-.043l.038-.006a2.77 2.77 0 0 0-.047.506v2.289a2.64 2.64 0 0 0 .061.459Zm-.045-3.568a3.23 3.23 0 0 1-.592.038H6.61A3.5 3.5 0 0 1 6 14.4l-.027-.005.014-.02a3.1 3.1 0 0 1 .383-.437l.672-.672.672-.672a3.7 3.7 0 0 1 .384-.353l.025.015.031.019.028.018h.008a2.836 2.836 0 0 0 1.407.375h.123a2.75 2.75 0 0 0 1.285-.385c.033-.019.075-.047.127-.083l.08.064.025.021c-.009.063-.024.155-.039.224a2.7 2.7 0 0 0-.494.191A2.78 2.78 0 0 0 9.3 14.359c-.054.012-.108.024-.16.032m1.96-1.552a2.45 2.45 0 0 1-.485.763 2.624 2.624 0 0 1-.972.653 2.5 2.5 0 0 1 1.2-1.3 2.7 2.7 0 0 1 .257-.116m-1.633 4.615v-2.28a2.53 2.53 0 0 1 .069-.581 2.9 2.9 0 0 0 1.288-.795 2.74 2.74 0 0 0 .613-1.055c.072-.014.14-.024.2-.032l.008.012c.04.055.078.114.113.174a2.786 2.786 0 0 0-.287 1.453 2.86 2.86 0 0 0 .287 1.047c-.019.032-.038.064-.058.1a2.4 2.4 0 0 1-.282.373c-.105.111-.216.221-.323.328-.058.058-.118.117-.176.176l-.35.35-.793.793a2.7 2.7 0 0 1-.273.237 2.6 2.6 0 0 1-.036-.3m4.321 1.528a2.48 2.48 0 0 1-1.285.775 2.51 2.51 0 0 1-.974.032 2.477 2.477 0 0 1-1.959-1.731 3.03 3.03 0 0 0 .4-.337l.777-.777.366-.366c.058-.059.118-.118.176-.176.109-.109.222-.221.332-.336a2.7 2.7 0 0 0 .293-.382l.008.013.008.013.015.024.021.029.034.037a3.53 3.53 0 0 0 .433.487l.672.671.056.056q.308.309.615.615a3.3 3.3 0 0 0 .476.416l.043.03a2.48 2.48 0 0 1-.507.907m.584-1.233v.022a3.34 3.34 0 0 1-.387-.347l-.671-.671-.673-.673a3.35 3.35 0 0 1-.4-.447l-.03-.042-.022-.031c-.011-.016-.03-.043-.044-.066v-.011l-.03-.035-.027-.046a2.81 2.81 0 0 0 .293-1.379 2.75 2.75 0 0 0-.293-1.122l.023-.037c.015-.026.032-.052.049-.078l.062-.066c.047.006.147.016.206.026a2.76 2.76 0 0 0 .874 1.343 2.91 2.91 0 0 0 1.051.566c.006.026.011.053.016.08a2.9 2.9 0 0 1 .038.567v1.862a3.3 3.3 0 0 1-.035.585m-1.615-4.916a2.486 2.486 0 0 1 1.5 1.483 2.58 2.58 0 0 1-.769-.45 2.493 2.493 0 0 1-.731-1.033m1.706 5.116v.006l-.008.031h-.008v-.054h.017l-.005.022zm.027-.129-.049-.008.049.007zm-.72-4.713a2.77 2.77 0 0 0-1.108-.6 2.4 2.4 0 0 1-.038-.239c.038-.031.077-.062.115-.09l.021.014.025.016h.008a2.54 2.54 0 0 0 .566.259 2.7 2.7 0 0 0 .848.134 2.83 2.83 0 0 0 1.37-.351c.035-.019.069-.04.1-.061a2.8 2.8 0 0 1 .238.194c.111.105.221.216.328.323.058.058.118.119.178.177l.352.353.79.79a2.67 2.67 0 0 1 .342.423 3.14 3.14 0 0 1-.591.038h-1.933a3.43 3.43 0 0 1-.611-.033l-.052-.008-.045-.009-.03-.006-.057-.012a2.755 2.755 0 0 0-.816-1.312M18.2 16.6a2.26 2.26 0 0 1-.243.526l-.021.031v.005a2.5 2.5 0 0 1-.2.267l-.007.007a2.03 2.03 0 0 1-.235.239l-.089.071-.008.007c-.057.044-.175.132-.245.173a2.45 2.45 0 0 1-1.152.346 2.52 2.52 0 0 1-1.371-.333v-.03l.008-.034.005-.03.008-.042a3.5 3.5 0 0 0 .038-.637V15.3a3.3 3.3 0 0 0-.035-.581h.018l.045.008a3.35 3.35 0 0 0 .562.038h2.032a3.5 3.5 0 0 0 .642-.042l.1-.02A2.54 2.54 0 0 1 18.2 16.6m1.813-4.306c-.009.065-.032.223-.054.306a2.43 2.43 0 0 1-.581 1.057 2.58 2.58 0 0 1-1.177.721 2.93 2.93 0 0 0-.435-.556l-.79-.791-.353-.353c-.059-.058-.118-.117-.175-.175-.109-.11-.221-.223-.336-.332a3.4 3.4 0 0 0-.18-.152 3.2 3.2 0 0 0 .3-.258l.793-.793.35-.351.177-.176c.109-.109.222-.221.332-.336a2.62 2.62 0 0 0 .315-.417l.017-.027a2.565 2.565 0 0 1 1.551 1.262 2.17 2.17 0 0 1 .2.544l.008.036a2.5 2.5 0 0 1 .047.33v.01a1.97 1.97 0 0 1 0 .335z"/></svg>