<svg xmlns="http://www.w3.org/2000/svg" viewBox="0 0 24 24"><path fill="#44739e" d="M22.812 5.068a5.523 5.523 0 0 0-2.392-3.233 5.44 5.44 0 0 0-1.339-.603A5.6 5.6 0 0 0 17.553 1H6.437a5.64 5.64 0 0 0-1.106.124 5.44 5.44 0 0 0-2.072.926 5.498 5.498 0 0 0-2.242 4.024c-.012.128-.011.255-.017.382v11.085a5.67 5.67 0 0 0 .188 1.39 5.518 5.518 0 0 0 2.392 3.232 5.44 5.44 0 0 0 1.209.567 5.56 5.56 0 0 0 1.658.27h11.107a5.6 5.6 0 0 0 .926-.089 5.499 5.499 0 0 0 4.361-4.1A5.8 5.8 0 0 0 23 17.537V6.468a5.7 5.7 0 0 0-.188-1.4m-6.431-.31a2.854 2.854 0 0 1 1.699.404 2.803 2.803 0 0 1 1.338 2.284 2.91 2.91 0 0 1-.315 1.455 3.4 3.4 0 0 0-.72-.077h-2.757a3.5 3.5 0 0 0-.463.051 3.24 3.24 0 0 0 .047-.547V5.68a3.1 3.1 0 0 0-.07-.537 2.95 2.95 0 0 1 1.241-.385m-1.298 4.479h.007a2.85 2.85 0 0 1 .547-.075h2.744a3.2 3.2 0 0 1 .544.048 2.86 2.86 0 0 1-.289.37c-.122.129-.25.258-.374.38-.068.066-.136.136-.203.203l-.405.405-.919.918a3.2 3.2 0 0 1-.399.335 3.24 3.24 0 0 0-1.728-.496h-.139a3.23 3.23 0 0 0-1.535.472 2.3 2.3 0 0 1-.132-.107c0-.048.013-.096.021-.141s.014-.08.023-.116a3.2 3.2 0 0 0 .596-.231 3.22 3.22 0 0 0 1.641-1.956Zm.933 2.779a2.934 2.934 0 0 1-2.265.206 2.8 2.8 0 0 1-.508-.221 2.88 2.88 0 0 1 1.238-.348 2.924 2.924 0 0 1 1.534.363Zm-3.057-.97a2.86 2.86 0 0 1 .579-.926 2.98 2.98 0 0 1 1.158-.767 2.895 2.895 0 0 1-1.401 1.556 3.2 3.2 0 0 1-.337.137Zm1.919-5.355V8.33a2.9 2.9 0 0 1-.069.632 3.36 3.36 0 0 0-1.514.926 3.18 3.18 0 0 0-.724 1.265c-.084.015-.162.027-.231.035-.058-.079-.101-.143-.125-.184l-.045-.078c.044-.098.085-.206.124-.321a3.22 3.22 0 0 0 .144-1.231 3.3 3.3 0 0 0-.308-1.163c.029-.055.058-.109.089-.16l.019-.031c.035-.056.071-.116.109-.167a3.53 3.53 0 0 1 .443-.506l.732-.732.116-.116.71-.709a4.3 4.3 0 0 1 .487-.441 3.5 3.5 0 0 1 .042.342Zm-2.276 6.541-.104.1a3 3 0 0 0-.186.201l-.084.099h-.361l-.126.007-.084-.099c-.054-.064-.116-.125-.168-.183l-.034-.033-.054-.152v-.046c0-.064.006-.127 0-.188v-.153l.105-.116.063-.071v-.006a3 3 0 0 0 .089-.108l.076-.096.116.007h.38l.094.093.04.046c.044.051.09.101.137.148l.101.101v.314Zm-.424 2.126a2.94 2.94 0 0 1-.196 1.188 2.96 2.96 0 0 1-.19-.844 2.86 2.86 0 0 1 .19-1.267 2.86 2.86 0 0 1 .196.917Zm-.365-4.684a2.96 2.96 0 0 1 .135-1.022 2.91 2.91 0 0 1 .027 1.853 2.78 2.78 0 0 1-.162-.837ZM9.195 5.095a2.79 2.79 0 0 1 .623-1.183 2.87 2.87 0 0 1 1.488-.896 2.847 2.847 0 0 1 2.564.654 2.87 2.87 0 0 1 .83 1.306l-.031.022-.042.029a4.24 4.24 0 0 0-.564.502l-.783.784c-.258.257-.515.515-.771.771a3.94 3.94 0 0 0-.483.552c-.044.06-.082.123-.116.183l-.021.033a3.45 3.45 0 0 0-.463-.579l-.917-.916-.407-.408c-.069-.067-.137-.137-.204-.204-.126-.127-.256-.258-.389-.384a3.7 3.7 0 0 0-.304-.247Zm-.018.387c.049.04.099.083.151.13.129.122.257.25.38.374l.205.205.407.407.916.917a3.08 3.08 0 0 1 .511.679l.01.018a3.29 3.29 0 0 0-.276 1.473 3.2 3.2 0 0 0 .315 1.247 1.9 1.9 0 0 1-.103.177l-.024.036v.007l-.015.022a6 6 0 0 1-.205-.033 3 3 0 0 0-.242-.614A3.31 3.31 0 0 0 9.22 8.905c0-.019-.008-.041-.011-.062a3.43 3.43 0 0 1-.05-.664V6.026a4.6 4.6 0 0 1 .018-.544m1.888 5.559a2.872 2.872 0 0 1-1.744-1.75 2.976 2.976 0 0 1 1.586 1.39 2.9 2.9 0 0 1 .158.36M8.939 9.188v.007a3.198 3.198 0 0 0 2.223 2.225c.019.1.071.165.078.249-.011.01.019.095.009.105l-.191.041-.051-.031a3.182 3.182 0 0 0-1.898-.453 3.265 3.265 0 0 0-1.505.496l-.055.035h-.007a3.76 3.76 0 0 1-.463-.414l-.778-.778-.779-.779a3.87 3.87 0 0 1-.463-.517l-.035-.049-.015-.028v-.008l-.011-.014-.059-.098h.007a2.83 2.83 0 0 1 .547-.075h2.742a3.18 3.18 0 0 1 .71.081Zm1.832 2.838-.016.009a2.825 2.825 0 0 1-1.333.4 2.94 2.94 0 0 1-1.531-.348v-.032a2.946 2.946 0 0 1 1.255-.387 2.86 2.86 0 0 1 1.625.359Zm-3.078 0-.08.07-.013-.009-.02-.017.023-.016.061-.042.026-.011v.019ZM4.914 6.173A2.796 2.796 0 0 1 7.2 4.831h.124a2.91 2.91 0 0 1 1.549.443v.015a4.05 4.05 0 0 0-.043.739v2.151a4.05 4.05 0 0 0 .036.641 3.47 3.47 0 0 0-.639-.062H5.469a3.13 3.13 0 0 0-.61.084l-.092.032a2.93 2.93 0 0 1-.256-1.002 2.854 2.854 0 0 1 .404-1.703Zm-2.212 6.438a2.79 2.79 0 0 1-.039-1.126 2.837 2.837 0 0 1 .725-1.434 2.99 2.99 0 0 1 1.213-.787c.026.045.052.091.079.133l.035.054.01.016.016.027.024.032.074-.054-.073.054.029.042a4.17 4.17 0 0 0 .501.562l.778.779.777.777a4.3 4.3 0 0 0 .423.385c-.141.116-.269.245-.396.373l-.778.778-.065.065c-.238.239-.476.476-.712.712a3.8 3.8 0 0 0-.482.553c-.034.046-.064.092-.094.139a3.03 3.03 0 0 1-1.11-.595 2.85 2.85 0 0 1-.935-1.485m6.111 6.29a2.93 2.93 0 0 1-2.303.231 2.57 2.57 0 0 1-.61-.282l-.034-.023h-.007a2.8 2.8 0 0 1-.308-.232l-.009-.008a2.3 2.3 0 0 1-.277-.274l-.086-.105c-.046-.061-.157-.209-.208-.295a2.84 2.84 0 0 1-.399-1.333 2.953 2.953 0 0 1 .336-1.499h.035l.026.006.043.006.052.009a3.9 3.9 0 0 0 .651.042H8.07a3.94 3.94 0 0 0 .744-.049l.044-.007a3.2 3.2 0 0 0-.055.586v2.65a3.06 3.06 0 0 0 .071.532Zm-.052-4.132a3.74 3.74 0 0 1-.686.044H5.831a4.05 4.05 0 0 1-.706-.033l-.032-.006.017-.023a3.6 3.6 0 0 1 .443-.506l.778-.778.778-.779a4.3 4.3 0 0 1 .445-.408l.029.017.036.022.032.021h.01a3.284 3.284 0 0 0 1.629.434h.142a3.184 3.184 0 0 0 1.488-.446q.057-.033.147-.096l.093.074.029.025c-.011.073-.028.179-.045.259a3.13 3.13 0 0 0-.572.221 3.22 3.22 0 0 0-1.626 1.921c-.063.014-.125.028-.185.037m2.269-1.797a2.84 2.84 0 0 1-.561.884 3.04 3.04 0 0 1-1.126.756 2.895 2.895 0 0 1 1.39-1.506 3.1 3.1 0 0 1 .297-.134m-1.891 5.344v-2.64a2.93 2.93 0 0 1 .08-.673 3.36 3.36 0 0 0 1.492-.92 3.17 3.17 0 0 0 .709-1.222c.084-.016.163-.028.232-.037l.009.014c.047.063.091.132.131.201a3.226 3.226 0 0 0-.332 1.683 3.31 3.31 0 0 0 .332 1.212c-.022.037-.044.074-.067.116a2.8 2.8 0 0 1-.327.432c-.121.128-.25.256-.374.38-.067.067-.136.135-.203.203l-.406.406-.918.918a3.1 3.1 0 0 1-.316.274 3 3 0 0 1-.042-.347m5.004 1.769a2.87 2.87 0 0 1-1.488.898 2.91 2.91 0 0 1-1.128.037 2.868 2.868 0 0 1-2.268-2.005 3.5 3.5 0 0 0 .463-.39l.899-.899.424-.424c.067-.069.137-.137.204-.204.126-.126.257-.256.385-.389a3.13 3.13 0 0 0 .339-.443l.009.016.009.015.018.027.024.034.039.043a4.1 4.1 0 0 0 .502.564l.778.777.065.065q.356.357.712.712a3.8 3.8 0 0 0 .551.481l.05.035a2.87 2.87 0 0 1-.587 1.05m.676-1.427v.025a3.9 3.9 0 0 1-.448-.402l-.777-.777-.779-.779a3.9 3.9 0 0 1-.464-.518l-.034-.048-.026-.036c-.013-.019-.035-.05-.051-.077v-.012l-.034-.041-.032-.053a3.254 3.254 0 0 0 .34-1.597 3.18 3.18 0 0 0-.34-1.299l.027-.043c.017-.03.037-.06.057-.09l.071-.077c.055.007.171.019.239.03a3.196 3.196 0 0 0 1.012 1.556 3.37 3.37 0 0 0 1.217.655c.007.03.013.061.019.093a3.36 3.36 0 0 1 .044.656v2.156a3.8 3.8 0 0 1-.041.678m-1.87-5.693a2.879 2.879 0 0 1 1.737 1.717 2.99 2.99 0 0 1-.891-.521 2.887 2.887 0 0 1-.846-1.196m1.975 5.924v.007l-.009.036h-.009v-.062h.02l-.006.025Zm.032-.149-.057-.009.057.008Zm-.834-5.458a3.21 3.21 0 0 0-1.283-.694 2.8 2.8 0 0 1-.044-.277c.044-.036.089-.072.133-.104l.024.016.029.018h.01a2.94 2.94 0 0 0 .655.3 3.13 3.13 0 0 0 .982.156 3.28 3.28 0 0 0 1.586-.407c.041-.022.08-.046.116-.071a3.2 3.2 0 0 1 .276.225c.128.122.256.25.38.374.067.067.136.138.206.205l.407.409.915.915a3.1 3.1 0 0 1 .396.489 3.64 3.64 0 0 1-.684.044h-2.239a3.97 3.97 0 0 1-.707-.038l-.06-.009-.052-.01-.035-.007-.066-.014a3.19 3.19 0 0 0-.945-1.52m5.13 4.045a2.62 2.62 0 0 1-.282.609l-.024.036v.006a2.9 2.9 0 0 1-.232.309l-.008.008a2.35 2.35 0 0 1-.272.277l-.103.082-.009.008c-.066.051-.203.153-.284.201a2.84 2.84 0 0 1-1.334.4 2.92 2.92 0 0 1-1.587-.385v-.035l.009-.039.006-.035.009-.049a4.05 4.05 0 0 0 .044-.737v-2.161a3.8 3.8 0 0 0-.041-.673h.021l.052.009a3.9 3.9 0 0 0 .651.044h2.353a4.05 4.05 0 0 0 .744-.048l.115-.023a2.94 2.94 0 0 1 .172 2.196m2.099-4.986c-.01.075-.037.258-.062.354a2.814 2.814 0 0 1-.673 1.224 2.99 2.99 0 0 1-1.363.835 3.4 3.4 0 0 0-.504-.644l-.915-.916-.408-.408c-.069-.067-.137-.136-.203-.203-.126-.127-.256-.258-.389-.384a4 4 0 0 0-.209-.176 3.7 3.7 0 0 0 .348-.299l.918-.918.405-.407.205-.204c.127-.126.257-.256.385-.389a3.03 3.03 0 0 0 .365-.483l.019-.031a2.97 2.97 0 0 1 1.796 1.461 2.5 2.5 0 0 1 .232.63l.009.042a2.9 2.9 0 0 1 .054.382v.012a2.3 2.3 0 0 1 0 .388Z"/></svg>