<svg xmlns="http://www.w3.org/2000/svg" viewBox="0 0 24 24"><path fill="#44739e" d="M19.61 12.354v-.084h.11a3.67 3.67 0 0 0 .907-.123 3.67 3.67 0 0 0-.907-.122h-.11v-.084c0-.158-.014-.319-.029-.481l-.007-.087.11-.01a3.65 3.65 0 0 0 .887-.225 3.63 3.63 0 0 0-.915-.017l-.11.014-.012-.084a7.3 7.3 0 0 0-.083-.474l-.016-.083.094-.023a3.66 3.66 0 0 0 .863-.33 3.72 3.72 0 0 0-.911.091l-.103.022-.021-.079a8.3 8.3 0 0 0-.139-.462l-.026-.079.091-.034a3.63 3.63 0 0 0 .818-.427 3.65 3.65 0 0 0-.893.196l-.099.037-.031-.08a9 9 0 0 0-.191-.44l-.037-.077.094-.046a3.66 3.66 0 0 0 .756-.516 3.63 3.63 0 0 0-.866.299l-.094.047-.04-.074a8 8 0 0 0-.241-.417l-.045-.073.089-.057a3.65 3.65 0 0 0 .692-.601 3.67 3.67 0 0 0-.826.397l-.083.056-.053-.067a7.7 7.7 0 0 0-.289-.385l-.052-.067.075-.062a3.74 3.74 0 0 0 .623-.681 3.63 3.63 0 0 0-.77.489l-.08.071-.057-.065c-.11-.12-.22-.238-.33-.35l-.061-.061.073-.076a3.66 3.66 0 0 0 .535-.744 3.7 3.7 0 0 0-.711.576l-.069.075-.068-.053a6.4 6.4 0 0 0-.368-.31l-.064-.054.063-.085a3.66 3.66 0 0 0 .44-.8 3.63 3.63 0 0 0-.639.66l-.063.084-.071-.049a6.8 6.8 0 0 0-.401-.264l-.073-.045.052-.089a3.67 3.67 0 0 0 .35-.849 3.63 3.63 0 0 0-.559.725l-.052.092-.076-.04c-.135-.074-.28-.146-.43-.22l-.076-.034.037-.089a3.63 3.63 0 0 0 .251-.889 3.7 3.7 0 0 0-.471.785l-.037.091-.082-.027c-.149-.059-.3-.11-.453-.165l-.079-.026.026-.086a3.74 3.74 0 0 0 .146-.911 3.63 3.63 0 0 0-.377.834l-.031.098-.08-.021c-.163-.044-.316-.08-.469-.11l-.081-.016.015-.095a3.67 3.67 0 0 0 .039-.922 3.7 3.7 0 0 0-.277.872l-.016.103-.086-.013a7 7 0 0 0-.478-.055l-.086-.007.008-.102a3.66 3.66 0 0 0-.07-.914 3.66 3.66 0 0 0-.173.898v.104h-.086a7 7 0 0 0-.482 0h-.088v-.102a3.7 3.7 0 0 0-.175-.9 3.67 3.67 0 0 0-.068.913l.007.095-.086.015c-.159.013-.32.031-.478.055l-.084.013-.016-.093a3.72 3.72 0 0 0-.279-.88 3.7 3.7 0 0 0 .037.916l.023.099-.088.017c-.154.032-.312.069-.468.11l-.084.023-.026-.097a3.67 3.67 0 0 0-.378-.836 3.65 3.65 0 0 0 .138.898l.031.094-.083.027c-.153.051-.306.11-.452.165l-.078.031-.034-.074-.008-.012a3.7 3.7 0 0 0-.469-.784 3.63 3.63 0 0 0 .247.88l.04.092-.074.032c-.15.069-.294.142-.43.22l-.075.041-.049-.087a3.63 3.63 0 0 0-.563-.724 3.63 3.63 0 0 0 .348.846l.048.089-.069.043c-.135.084-.27.173-.402.265l-.071.05-.057-.083a3.7 3.7 0 0 0-.641-.66 3.7 3.7 0 0 0 .44.801l.057.075-.063.058c-.122.097-.246.201-.368.31l-.063.057-.055-.061.052-.072-.064.06a3.65 3.65 0 0 0-.711-.577 3.65 3.65 0 0 0 .536.744l.071.071-.061.062c-.11.11-.22.229-.33.351l-.057.065-.076-.066a3.6 3.6 0 0 0-.77-.491 3.65 3.65 0 0 0 .617.677l.077.063-.06.073a9 9 0 0 0-.287.386l-.049.071-.084-.057a3.66 3.66 0 0 0-.824-.4 3.6 3.6 0 0 0 .691.601l.085.052-.043.072c-.086.139-.167.279-.241.417l-.043.068-.09-.044a3.63 3.63 0 0 0-.865-.298 3.63 3.63 0 0 0 .757.516l.076.038-.023.083c-.069.147-.134.296-.191.44l-.032.078-.092-.033a3.65 3.65 0 0 0-.895-.197 3.67 3.67 0 0 0 .812.426l.093.031-.027.082a7.7 7.7 0 0 0-.139.462l-.021.08-.095-.014a3.63 3.63 0 0 0-.912-.091 3.65 3.65 0 0 0 .854.33h.017l.079.021-.016.08c-.032.155-.06.316-.083.475l-.012.083-.092-.01a3.7 3.7 0 0 0-.922.014 3.63 3.63 0 0 0 .887.227h.018l.08.012-.006.081c-.015.164-.024.33-.029.482v.085h-.101a3.7 3.7 0 0 0-.908.121 3.67 3.67 0 0 0 .908.122h.1v.084c0 .158.013.319.028.481l.007.086-.099.01a3.6 3.6 0 0 0-.886.226 3.7 3.7 0 0 0 .915.016l.099-.011.012.083c.023.162.051.322.082.475l.018.084-.084.019-.031-.083.019.085a3.63 3.63 0 0 0-.854.33 3.63 3.63 0 0 0 .91-.091l.097-.02.021.079c.041.156.088.313.138.462l.027.082-.092.032a3.63 3.63 0 0 0-.811.424 3.7 3.7 0 0 0 .894-.196l.08-.028.044.073c.056.143.121.292.191.44l.035.075-.083.044a3.7 3.7 0 0 0-.761.518 3.7 3.7 0 0 0 .866-.298l.087-.046.041.076c.075.138.156.278.242.417l.045.072-.072.047-.059-.065.047.072a3.6 3.6 0 0 0-.691.601 3.67 3.67 0 0 0 .825-.397l.085-.053.047.067c.092.131.189.262.289.386l.052.066-.074.063a3.63 3.63 0 0 0-.62.679 3.72 3.72 0 0 0 .77-.49l.077-.066.056.064c.11.12.22.238.33.351l.06.059-.065.082a3.63 3.63 0 0 0-.534.741 3.63 3.63 0 0 0 .712-.576l.069-.074.064.056c.125.11.248.22.369.31l.065.052-.056.078a3.65 3.65 0 0 0-.447.804 3.7 3.7 0 0 0 .639-.66l.051-.07.079.038c.132.093.268.182.402.264l.072.044-.047.084a3.7 3.7 0 0 0-.351.85 3.63 3.63 0 0 0 .559-.725l.042-.072.082.026c.137.075.283.147.431.22l.075.035-.031.076-.007.016a3.63 3.63 0 0 0-.248.88 3.63 3.63 0 0 0 .471-.785l.083.025-.078-.038.033-.079.08.032c.143.057.296.11.453.164l.079.026-.026.091a3.66 3.66 0 0 0-.145.909 3.67 3.67 0 0 0 .376-.834l.024-.083.088.008c.158.043.315.081.468.11l.083.017-.018.1a3.65 3.65 0 0 0-.037.914 3.63 3.63 0 0 0 .277-.871l.015-.094h.086c.157.023.319.042.479.055l.086.008-.007.101a3.63 3.63 0 0 0 .068.914 3.63 3.63 0 0 0 .174-.898l.007-.104h.084c.16.006.321 0 .481 0h.084v.096a3.72 3.72 0 0 0 .175.906 3.6 3.6 0 0 0 .069-.912v-.104l.083-.007c.164-.014.325-.033.478-.056l.084-.012.018.102a3.6 3.6 0 0 0 .277.872 3.7 3.7 0 0 0-.037-.914l-.017-.094.084-.018c.149-.029.308-.068.468-.11l.083-.022.026.092a3.65 3.65 0 0 0 .379.84 3.65 3.65 0 0 0-.144-.903l-.029-.099.079-.026c.155-.051.308-.11.453-.165l.078-.031.04.091a3.7 3.7 0 0 0 .472.788 3.63 3.63 0 0 0-.248-.88l-.039-.095.076-.036c.155-.072.296-.143.43-.22l.072-.04.051.084a3.67 3.67 0 0 0 .562.73 3.65 3.65 0 0 0-.349-.847l-.05-.091.07-.043c.14-.087.275-.176.403-.266l.067-.047.062.079a3.63 3.63 0 0 0 .642.66 3.7 3.7 0 0 0-.44-.801l-.063-.084.066-.052c.126-.099.249-.204.369-.311l.064-.057.071.078a3.65 3.65 0 0 0 .711.577 3.65 3.65 0 0 0-.534-.744l-.075-.075.062-.061c.11-.11.22-.229.33-.351l.055-.063.076.063a3.67 3.67 0 0 0 .78.495 3.65 3.65 0 0 0-.617-.677l-.083-.067.054-.067c.098-.123.195-.253.287-.386l.049-.068.085.056a3.67 3.67 0 0 0 .829.398 3.67 3.67 0 0 0-.691-.601l-.089-.058.045-.071c.085-.138.166-.279.24-.417l.041-.076.094.049a3.66 3.66 0 0 0 .865.298 3.63 3.63 0 0 0-.756-.515l-.096-.046.038-.079c.069-.147.133-.297.19-.44l.032-.08.099.037a3.65 3.65 0 0 0 .893.196 3.67 3.67 0 0 0-.812-.424l-.098-.037.027-.08c.05-.153.097-.308.137-.461l.022-.082.1.024a3.7 3.7 0 0 0 .913.091 3.7 3.7 0 0 0-.854-.33l-.103-.024.017-.083c.032-.153.059-.312.082-.474l.01-.07h.104a3.7 3.7 0 0 0 .92-.014 3.63 3.63 0 0 0-.886-.227l-.11-.014.007-.083c.014-.166.022-.328.027-.483M9.385 6.03l.018-.029.008-.012a2.207 2.207 0 0 1 1.732-.798 6.88 6.88 0 0 1 4.245.947 6.886 6.886 0 0 1 2.992 3.156 2.208 2.208 0 0 1 .202 1.894l-.01.02-.013.023a1.07 1.07 0 0 1-.721.516 3.17 3.17 0 0 1-.826.058l-.192-.006a10 10 0 0 0-.393-.01l-2.704.015c-.164.008-.33.016-.495.016a3.2 3.2 0 0 1-.55-.041 1.377 1.377 0 0 1-.755-.428 4.9 4.9 0 0 1-.55-.88l-.028-.051-1.344-2.28a5 5 0 0 0-.209-.33c-.044-.067-.088-.135-.131-.203a3.05 3.05 0 0 1-.345-.697 1.07 1.07 0 0 1 .069-.88m3.008 6.122a.464.464 0 1 1-.463-.463.464.464 0 0 1 .463.463m-3.2 4.358a2.97 2.97 0 0 1-.409.607 1.064 1.064 0 0 1-.793.379h-.059a2.2 2.2 0 0 1-1.555-1.1 6.88 6.88 0 0 1-1.307-4.157A6.884 6.884 0 0 1 6.313 8.07a2.211 2.211 0 0 1 1.54-1.123l.017.087-.008-.087h.047a1.067 1.067 0 0 1 .801.367 2.9 2.9 0 0 1 .413.594c.049.087.096.176.142.264.063.12.124.233.186.341l1.369 2.34a4.95 4.95 0 0 1 .495.908 1.17 1.17 0 0 1 .072.44 1.2 1.2 0 0 1-.066.432 4.95 4.95 0 0 1-.487.922l-.029.047-1.301 2.31c-.061.11-.119.22-.18.343-.041.078-.086.165-.131.255m9.272-1.588a6.893 6.893 0 0 1-2.945 3.2 7.155 7.155 0 0 1-3.589 1.045 5.7 5.7 0 0 1-.644-.038 2.214 2.214 0 0 1-1.738-.77l-.015-.022-.018-.031a1.065 1.065 0 0 1-.081-.88 2.45 2.45 0 0 1 .22-.51c.076-.138.16-.272.242-.402.071-.11.14-.22.201-.33l1.352-2.344a4.84 4.84 0 0 1 .541-.887 1.18 1.18 0 0 1 .341-.281 1.19 1.19 0 0 1 .407-.158 4.9 4.9 0 0 1 1.041-.04h.055l2.649-.025c.126 0 .256-.009.393-.016l.15-.007a3.32 3.32 0 0 1 .867.044 1.07 1.07 0 0 1 .726.5l.016.03.01.019a2.208 2.208 0 0 1-.181 1.898ZM7.684 12.186a4.231 4.231 0 0 1 1.726-3.41l-.11-.179c-.065-.11-.128-.232-.19-.348-.046-.087-.092-.175-.139-.261l-.075-.129c-.288-.282-.519-.477-.519-.477s.147.343.381.77q-.11.088-.22.182c-.375-.299-.693-.51-.693-.51s.186.324.467.72c-.067.067-.133.136-.197.207-.405-.252-.743-.423-.743-.423s.22.297.544.66c-.061.075-.118.152-.174.23-.429-.201-.782-.33-.782-.33s.251.267.613.585c-.052.082-.101.165-.148.25a10.8 10.8 0 0 0-.809-.236s.278.235.671.508c-.042.088-.081.176-.118.267a10.8 10.8 0 0 0-.826-.14s.301.199.72.424q-.046.138-.086.28c-.464-.04-.832-.041-.832-.041s.321.161.762.33c-.021.095-.038.192-.054.29-.464.014-.827.055-.827.055s.33.123.791.244a5 5 0 0 0-.019.296c-.457.068-.811.151-.811.151s.345.082.81.148c0 .101.007.2.015.299-.44.12-.784.242-.784.242s.35.042.817.054q.02.15.05.297c-.426.17-.746.33-.746.33s.35 0 .813-.04q.037.147.086.29c-.402.22-.699.411-.699.411s.346-.039.799-.133c.036.095.077.188.12.28-.372.262-.644.488-.644.488s.338-.079.77-.22c.049.089.099.178.153.265-.337.302-.581.558-.581.558s.33-.118.742-.312c.058.083.12.166.182.246-.299.338-.509.619-.509.619s.308-.154.698-.395c.068.076.138.151.211.22-.258.371-.434.674-.434.674s.287-.189.646-.472c.077.068.155.134.235.198-.212.397-.35.717-.35.717s.262-.22.585-.542l.059.038c.045-.082.087-.166.13-.25.059-.116.121-.237.185-.349l.11-.186a4.232 4.232 0 0 1-1.772-3.44m10.155.631s-.297-.11-.712-.22h-.098l-.148.008c-.133.007-.271.014-.402.015h-.348a4.229 4.229 0 0 1-5.781 3.497l-.091.16c-.064.11-.137.226-.206.338-.08.127-.164.259-.238.392a2.6 2.6 0 0 0-.167.351c-.033.154-.05.25-.05.25s.204-.273.44-.66c.095.037.192.072.291.104-.064.44-.085.792-.085.792s.172-.296.365-.709c.099.026.199.049.301.07-.012.449.008.797.008.797s.136-.314.279-.748c.101.014.204.026.307.034.041.448.101.793.101.793s.099-.33.19-.778h.308c.093.44.193.778.193.778s.06-.339.1-.796c.102-.009.204-.021.305-.037.143.428.281.75.281.75s.021-.343.007-.803c.1-.022.199-.046.298-.072.193.409.367.715.367.715s-.019-.346-.086-.801c.096-.033.191-.069.286-.11.238.386.449.671.449.671s-.059-.343-.18-.79c.091-.044.182-.09.27-.139.284.357.528.616.528.616s-.101-.33-.273-.77c.086-.052.168-.11.251-.168.324.324.599.55.599.55s-.14-.323-.363-.735c.077-.062.154-.127.228-.194l.22-.208a4.7 4.7 0 0 0 .202-.22c.395.243.72.406.72.406s-.214-.286-.53-.637c.061-.078.119-.159.175-.24.422.196.77.321.77.321s-.246-.262-.601-.575c.05-.084.099-.17.144-.256.44.146.802.232.802.232s-.278-.234-.669-.504c.041-.089.078-.179.11-.271.46.096.827.139.827.139s-.304-.2-.727-.425c.03-.092.056-.186.08-.279.471.041.844.041.844.041s-.33-.165-.777-.339c.018-.095.033-.189.047-.285.466-.008.839-.051.839-.051m-8.03-5.306c.043.068.086.135.13.202.072.11.146.227.213.339l.134.228a4.228 4.228 0 0 1 5.83 3.337h.313c.129 0 .268 0 .4.01l.19.007h.196c.361-.104.621-.198.621-.198s-.372-.044-.861-.054a4.7 4.7 0 0 0-.051-.279c.447-.176.789-.347.789-.347s-.376 0-.863.046a7 7 0 0 0-.084-.268c.425-.229.746-.44.746-.44s-.375.044-.856.147a9 9 0 0 0-.11-.255c.397-.277.694-.526.694-.526s-.369.088-.837.248a4.7 4.7 0 0 0-.142-.24c.365-.323.631-.605.631-.605s-.359.131-.805.344c-.054-.075-.11-.148-.168-.22.325-.363.558-.676.558-.676s-.342.171-.762.44a4.7 4.7 0 0 0-.192-.201c.282-.399.478-.738.478-.738s-.321.21-.709.524a5.5 5.5 0 0 0-.212-.177c.234-.429.389-.79.389-.79s-.294.247-.643.604a4.4 4.4 0 0 0-.23-.151c.182-.454.295-.83.295-.83s-.264.279-.57.674a5.5 5.5 0 0 0-.246-.123c.128-.472.197-.859.197-.859s-.23.308-.487.736a4.4 4.4 0 0 0-.259-.094c.072-.484.095-.88.095-.88s-.192.33-.398.788a4.4 4.4 0 0 0-.268-.064c.015-.489-.007-.88-.007-.88s-.153.353-.303.827a5.5 5.5 0 0 0-.274-.031c-.042-.487-.11-.873-.11-.873s-.11.367-.206.856h-.26c-.095-.48-.206-.855-.206-.855s-.069.377-.11.872c-.093.008-.184.018-.275.031-.153-.462-.304-.821-.304-.821s-.024.38 0 .88c-.091.019-.181.04-.272.064-.202-.44-.396-.779-.396-.779s.022.38.097.867c-.089.029-.177.061-.264.095-.252-.414-.482-.724-.482-.724s.051.292.153.686c.019.04.046.084.073.126M17.999 1H6.001A5.001 5.001 0 0 0 1 6.001v11.998A5.001 5.001 0 0 0 6.001 23h11.998A5.001 5.001 0 0 0 23 17.999V6.001A5.001 5.001 0 0 0 17.999 1m2.852 14.931a9.687 9.687 0 1 1 .77-3.779 9.65 9.65 0 0 1-.77 3.779"/></svg>