<svg xmlns="http://www.w3.org/2000/svg" fill="#44739e" viewBox="0 0 24 24"><path d="M18.9222 12.313v-.077h.1a3.34 3.34 0 0 0 .825-.111 3.34 3.34 0 0 0-.825-.111h-.1v-.077c0-.143-.013-.29-.026-.437l-.007-.079.1-.009a3.32 3.32 0 0 0 .807-.205 3.3 3.3 0 0 0-.832-.015l-.1.013-.011-.077c-.021-.15-.047-.295-.075-.431l-.015-.075.086-.021a3.33 3.33 0 0 0 .784-.3 3.38 3.38 0 0 0-.828.083l-.094.02-.019-.072a7.5 7.5 0 0 0-.126-.42l-.024-.072.083-.031a3.3 3.3 0 0 0 .744-.388 3.32 3.32 0 0 0-.812.178l-.09.034-.028-.073a8 8 0 0 0-.174-.4l-.034-.07.086-.042a3.33 3.33 0 0 0 .687-.469 3.3 3.3 0 0 0-.787.272l-.086.043-.036-.068a7.3 7.3 0 0 0-.219-.379l-.041-.066.081-.052a3.32 3.32 0 0 0 .629-.546 3.34 3.34 0 0 0-.751.361l-.075.051-.049-.061a7 7 0 0 0-.262-.35l-.048-.061.069-.057a3.4 3.4 0 0 0 .566-.619 3.3 3.3 0 0 0-.7.445l-.073.064-.052-.059c-.1-.109-.2-.216-.3-.318l-.055-.055.066-.069a3.33 3.33 0 0 0 .487-.677 3.37 3.37 0 0 0-.647.524l-.062.068-.062-.048a5.8 5.8 0 0 0-.335-.282l-.058-.049.057-.077a3.33 3.33 0 0 0 .4-.728 3.3 3.3 0 0 0-.581.6l-.057.077-.064-.045a6.2 6.2 0 0 0-.365-.24l-.066-.041.047-.081a3.34 3.34 0 0 0 .318-.771 3.3 3.3 0 0 0-.508.659l-.047.083-.069-.036c-.123-.067-.255-.133-.391-.2l-.069-.031.033-.081a3.3 3.3 0 0 0 .228-.808 3.36 3.36 0 0 0-.428.714l-.033.082-.075-.024c-.135-.054-.273-.1-.412-.15l-.072-.024.024-.078a3.4 3.4 0 0 0 .133-.828 3.3 3.3 0 0 0-.343.758l-.028.089-.073-.019c-.148-.04-.287-.073-.426-.1l-.074-.015.014-.086a3.34 3.34 0 0 0 .035-.838 3.37 3.37 0 0 0-.252.793l-.014.093-.078-.012c-.143-.021-.29-.038-.435-.05l-.078-.006.007-.093a3.33 3.33 0 0 0-.063-.831 3.33 3.33 0 0 0-.158.817v.094h-.078a6.4 6.4 0 0 0-.438 0h-.08v-.092a3.35 3.35 0 0 0-.159-.819 3.34 3.34 0 0 0-.062.83l.006.087-.078.013c-.144.012-.291.029-.434.05l-.077.012-.014-.084a3.38 3.38 0 0 0-.254-.8 3.37 3.37 0 0 0 .034.832l.021.09-.08.016c-.14.029-.284.063-.426.1l-.076.021-.024-.088a3.34 3.34 0 0 0-.343-.76 3.32 3.32 0 0 0 .125.816l.028.085-.075.025c-.139.046-.278.1-.411.15l-.071.028-.031-.067-.007-.011a3.36 3.36 0 0 0-.427-.713 3.3 3.3 0 0 0 .225.8l.036.084-.067.029c-.136.063-.267.129-.391.2l-.068.037-.045-.079a3.3 3.3 0 0 0-.511-.658 3.3 3.3 0 0 0 .316.769l.044.081-.063.039c-.123.076-.246.157-.366.241l-.064.045-.052-.075a3.37 3.37 0 0 0-.583-.6 3.36 3.36 0 0 0 .4.728l.052.068-.057.053c-.111.088-.224.183-.335.282l-.057.052-.05-.056.047-.065-.058.054a3.32 3.32 0 0 0-.646-.524 3.32 3.32 0 0 0 .487.676l.065.065-.056.056c-.1.1-.2.208-.3.319l-.052.059-.069-.06a3.27 3.27 0 0 0-.7-.446 3.32 3.32 0 0 0 .561.615l.07.058-.054.066a8 8 0 0 0-.261.351l-.045.064-.076-.051a3.33 3.33 0 0 0-.749-.364 3.28 3.28 0 0 0 .628.546l.077.048-.039.065c-.078.126-.152.254-.219.379l-.039.062-.082-.04a3.3 3.3 0 0 0-.786-.271 3.3 3.3 0 0 0 .688.469l.069.035-.021.075c-.063.134-.122.269-.174.4l-.029.071-.083-.03a3.32 3.32 0 0 0-.814-.179 3.34 3.34 0 0 0 .738.387l.085.028-.025.075a7 7 0 0 0-.126.42l-.019.073-.087-.013a3.3 3.3 0 0 0-.829-.083 3.32 3.32 0 0 0 .777.3h.015l.072.019-.015.073c-.029.141-.054.287-.075.432l-.011.075-.084-.009a3.36 3.36 0 0 0-.838.013 3.3 3.3 0 0 0 .807.206h.016l.073.011-.006.074c-.013.149-.022.3-.026.438v.077h-.092a3.35 3.35 0 0 0-.825.11 3.34 3.34 0 0 0 .825.111h.091v.077c0 .143.012.29.025.437l.007.078-.09.009a3.28 3.28 0 0 0-.806.206 3.35 3.35 0 0 0 .832.014l.09-.01.011.076c.021.147.046.292.075.431l.016.077-.076.017-.029-.075.018.077a3.3 3.3 0 0 0-.777.3 3.3 3.3 0 0 0 .828-.083l.088-.018.019.072c.037.142.08.284.125.42l.025.074-.084.029a3.3 3.3 0 0 0-.737.386 3.35 3.35 0 0 0 .813-.178l.072-.026.04.067c.051.13.11.265.174.4l.032.068-.076.04a3.37 3.37 0 0 0-.691.471 3.35 3.35 0 0 0 .787-.271l.079-.042.037.069c.068.126.142.253.22.379l.041.066-.065.042-.054-.059.043.066a3.28 3.28 0 0 0-.628.546 3.34 3.34 0 0 0 .75-.361l.077-.048.043.061c.083.119.171.238.262.351l.048.06-.068.057a3.3 3.3 0 0 0-.563.617 3.38 3.38 0 0 0 .7-.445l.07-.06.051.058c.1.109.2.216.3.319l.054.054-.059.074a3.3 3.3 0 0 0-.485.674 3.3 3.3 0 0 0 .647-.524l.063-.067.058.051c.113.1.225.2.335.282l.059.047-.051.071a3.32 3.32 0 0 0-.406.731 3.35 3.35 0 0 0 .581-.6l.046-.064.072.035c.12.084.244.165.366.24l.065.04-.043.076a3.35 3.35 0 0 0-.319.773 3.3 3.3 0 0 0 .508-.659l.039-.066.074.024c.125.068.257.134.392.2l.068.032-.028.069-.006.014a3.3 3.3 0 0 0-.226.8 3.3 3.3 0 0 0 .428-.713l.076.023-.071-.035.03-.072.073.029c.13.052.269.1.411.149l.072.024-.023.083a3.33 3.33 0 0 0-.132.826 3.34 3.34 0 0 0 .342-.758l.021-.076.08.008c.144.039.287.073.426.1l.075.015-.016.091a3.32 3.32 0 0 0-.034.831 3.3 3.3 0 0 0 .252-.792l.014-.085h.078c.143.021.29.038.435.05l.079.007-.007.092a3.3 3.3 0 0 0 .062.831 3.3 3.3 0 0 0 .158-.817l.007-.094h.076c.145.005.292 0 .437 0h.077v.087a3.38 3.38 0 0 0 .159.824 3.28 3.28 0 0 0 .062-.829v-.095l.076-.006c.149-.013.295-.03.434-.051l.077-.011.016.093a3.26 3.26 0 0 0 .252.792 3.37 3.37 0 0 0-.034-.831l-.015-.085.076-.016c.136-.027.28-.062.426-.1l.075-.02.024.083a3.32 3.32 0 0 0 .344.764 3.32 3.32 0 0 0-.131-.821l-.026-.09.072-.024c.141-.046.28-.1.412-.15l.071-.028.036.083a3.35 3.35 0 0 0 .429.716 3.3 3.3 0 0 0-.225-.8l-.036-.086.069-.033c.141-.065.269-.13.391-.2l.066-.036.046.076a3.34 3.34 0 0 0 .511.664 3.32 3.32 0 0 0-.317-.77l-.046-.083.064-.039c.127-.079.25-.16.366-.242l.061-.043.056.072a3.3 3.3 0 0 0 .584.6 3.37 3.37 0 0 0-.4-.728l-.057-.076.06-.048c.114-.09.226-.185.335-.282l.058-.052.065.071a3.32 3.32 0 0 0 .646.524 3.32 3.32 0 0 0-.485-.676l-.068-.068.056-.056c.1-.1.2-.208.3-.319l.05-.057.069.057a3.34 3.34 0 0 0 .709.45 3.32 3.32 0 0 0-.561-.615l-.075-.061.049-.061c.089-.112.177-.23.261-.351l.044-.062.078.051a3.34 3.34 0 0 0 .753.362 3.34 3.34 0 0 0-.628-.546l-.081-.053.041-.065c.077-.125.151-.253.218-.379l.038-.069.085.045a3.33 3.33 0 0 0 .786.271 3.3 3.3 0 0 0-.687-.469l-.087-.041.034-.072c.063-.134.121-.27.173-.4l.029-.073.09.034a3.32 3.32 0 0 0 .812.178 3.34 3.34 0 0 0-.738-.386l-.089-.033.024-.073c.046-.139.088-.28.125-.419l.02-.075.091.022a3.35 3.35 0 0 0 .83.083 3.36 3.36 0 0 0-.777-.3l-.093-.022.015-.075c.029-.139.054-.284.075-.431l.009-.064h.094a3.35 3.35 0 0 0 .837-.013 3.3 3.3 0 0 0-.806-.206l-.1-.013.007-.075c.012-.151.02-.298.024-.439m-9.295-5.749.016-.027.007-.011a2.006 2.006 0 0 1 1.575-.725 6.254 6.254 0 0 1 3.859.861 6.26 6.26 0 0 1 2.72 2.869 2.007 2.007 0 0 1 .184 1.722l-.009.018-.012.021a.974.974 0 0 1-.656.469 2.88 2.88 0 0 1-.751.053l-.174-.006a9 9 0 0 0-.357-.009l-2.459.014c-.149.007-.3.014-.45.014a2.9 2.9 0 0 1-.5-.037 1.252 1.252 0 0 1-.686-.389 4.44 4.44 0 0 1-.5-.8l-.025-.046-1.222-2.073c-.058-.1-.122-.2-.19-.3-.04-.061-.08-.123-.119-.185a2.77 2.77 0 0 1-.314-.633.974.974 0 0 1 .063-.8m2.734 5.565a.422.422 0 1 1-.421-.421.422.422 0 0 1 .421.421m-2.909 3.962a2.7 2.7 0 0 1-.372.552.967.967 0 0 1-.721.344h-.053a2 2 0 0 1-1.414-1 6.255 6.255 0 0 1-1.188-3.779 6.258 6.258 0 0 1 1.13-3.79 2.01 2.01 0 0 1 1.4-1.021l.015.079-.007-.079h.043a.97.97 0 0 1 .728.334 2.64 2.64 0 0 1 .376.54c.044.079.087.16.129.24.057.109.112.212.169.31l1.244 2.127a4.5 4.5 0 0 1 .45.826 1.06 1.06 0 0 1 .066.4 1.09 1.09 0 0 1-.06.392 4.5 4.5 0 0 1-.443.839l-.026.042-1.183 2.1c-.056.1-.108.2-.164.312-.037.071-.078.15-.119.232m8.429-1.444a6.266 6.266 0 0 1-2.677 2.909 6.505 6.505 0 0 1-3.263.95 5.2 5.2 0 0 1-.585-.034 2.013 2.013 0 0 1-1.58-.7l-.014-.02-.016-.028a.968.968 0 0 1-.074-.8 2.23 2.23 0 0 1 .2-.464c.069-.125.146-.247.22-.365.065-.1.127-.2.183-.3l1.229-2.131a4.4 4.4 0 0 1 .492-.807 1.07 1.07 0 0 1 .31-.255 1.08 1.08 0 0 1 .37-.144 4.44 4.44 0 0 1 .946-.036h.05l2.408-.023c.115 0 .233-.008.358-.014l.136-.007a3.02 3.02 0 0 1 .788.04.974.974 0 0 1 .66.455l.015.027.009.017a2.007 2.007 0 0 1-.165 1.726zm-9.801-2.487a3.846 3.846 0 0 1 1.569-3.1l-.1-.163c-.059-.1-.116-.211-.172-.316-.042-.079-.084-.159-.127-.237l-.068-.118c-.262-.256-.472-.433-.472-.433s.134.312.347.7q-.1.08-.2.165c-.341-.272-.63-.463-.63-.463s.169.294.424.654c-.061.061-.121.124-.179.188-.368-.229-.675-.384-.675-.384s.2.27.494.6c-.055.068-.107.138-.158.209-.39-.183-.711-.3-.711-.3s.228.243.557.532c-.047.074-.091.15-.134.227a9.8 9.8 0 0 0-.736-.215s.253.214.61.462c-.038.08-.073.16-.107.243a9.8 9.8 0 0 0-.751-.127s.274.181.655.385q-.042.126-.078.255c-.422-.037-.757-.038-.757-.038s.292.147.693.3c-.019.087-.035.175-.049.264-.422.013-.752.05-.752.05s.3.112.719.222c-.008.089-.014.179-.017.269-.416.062-.737.137-.737.137s.313.075.736.135c0 .092.006.182.014.272-.4.109-.713.22-.713.22s.318.038.743.049q.018.136.045.27c-.387.154-.678.3-.678.3s.318 0 .739-.037q.034.134.078.264c-.365.2-.635.374-.635.374s.314-.036.726-.121c.033.086.07.171.109.254-.338.238-.585.444-.585.444s.307-.072.7-.2c.044.081.09.162.139.241-.307.274-.528.507-.528.507s.3-.107.674-.284c.053.076.109.151.166.224-.272.307-.463.563-.463.563s.28-.14.634-.359c.062.069.126.137.192.2-.234.337-.394.612-.394.612s.261-.171.587-.429c.07.062.141.122.214.18-.193.361-.319.652-.319.652s.239-.2.532-.493l.054.035c.041-.075.079-.151.118-.227.054-.106.11-.216.168-.318l.1-.169a3.847 3.847 0 0 1-1.611-3.127m9.232.574s-.27-.1-.647-.2h-.089l-.135.007c-.121.006-.246.013-.365.014h-.317a3.845 3.845 0 0 1-5.255 3.179l-.083.145c-.058.1-.124.206-.187.307-.073.116-.149.236-.216.357a2.36 2.36 0 0 0-.152.319c-.03.14-.046.227-.046.227s.186-.248.4-.6c.087.034.175.066.265.095-.058.4-.077.72-.077.72s.156-.269.331-.645c.09.024.181.045.274.064-.011.408.007.724.007.724s.124-.285.254-.68c.092.013.185.024.279.031.037.408.092.721.092.721s.09-.3.173-.707h.28c.084.4.175.707.175.707s.055-.308.091-.723c.093-.009.185-.02.277-.034.13.389.256.682.256.682s.019-.312.006-.73c.091-.02.181-.042.271-.066.175.372.334.65.334.65s-.018-.314-.079-.728c.088-.03.174-.063.26-.1.217.351.409.61.409.61s-.054-.312-.164-.718c.083-.04.165-.082.245-.126.259.324.48.56.48.56s-.091-.3-.248-.7c.078-.048.153-.1.228-.153.295.294.545.5.545.5s-.127-.294-.33-.668c.07-.057.14-.116.207-.177l.2-.189c.063-.064.125-.131.184-.2.359.221.654.369.654.369s-.194-.26-.481-.579c.055-.071.108-.144.159-.218.383.178.7.292.7.292s-.224-.238-.547-.523c.046-.076.09-.154.131-.233.4.133.729.211.729.211s-.252-.212-.608-.458c.037-.081.071-.163.1-.246.418.087.752.126.752.126s-.276-.182-.661-.386c.027-.084.051-.169.073-.254.428.037.767.037.767.037s-.3-.15-.706-.308c.016-.086.03-.172.042-.259.424-.007.763-.046.763-.046m-7.3-4.824c.039.062.078.123.118.184.066.1.133.206.194.308l.122.207a3.844 3.844 0 0 1 5.3 3.034h.284c.118 0 .244 0 .364.009l.173.006h.178c.328-.094.564-.18.564-.18s-.338-.04-.782-.049a4.3 4.3 0 0 0-.047-.253c.407-.16.718-.316.718-.316s-.342 0-.785.042a6 6 0 0 0-.076-.244c.386-.208.678-.4.678-.4s-.341.04-.778.134c-.032-.078-.067-.156-.1-.232.361-.252.631-.478.631-.478s-.336.08-.761.225a4.3 4.3 0 0 0-.129-.218c.331-.293.573-.55.573-.55s-.326.119-.732.313c-.049-.068-.1-.135-.152-.2.295-.33.507-.615.507-.615s-.311.156-.693.4a4.3 4.3 0 0 0-.174-.182c.256-.363.434-.671.434-.671s-.292.191-.644.476a5 5 0 0 0-.193-.161c.213-.39.354-.718.354-.718s-.268.225-.585.549a4 4 0 0 0-.209-.137c.165-.413.268-.755.268-.755s-.24.254-.518.613a5 5 0 0 0-.224-.112c.117-.429.179-.781.179-.781s-.209.28-.442.669a4 4 0 0 0-.236-.085c.066-.44.087-.8.087-.8s-.175.3-.362.716a4 4 0 0 0-.244-.058c.014-.444-.006-.8-.006-.8s-.139.321-.276.752a5 5 0 0 0-.249-.028c-.038-.443-.1-.794-.1-.794s-.1.334-.187.778h-.236c-.087-.436-.188-.777-.188-.777s-.062.343-.1.793c-.084.007-.167.016-.25.028-.139-.42-.276-.746-.276-.746s-.022.345 0 .8c-.083.017-.165.036-.247.058-.184-.4-.36-.708-.36-.708s.02.345.088.788c-.081.026-.161.055-.24.086-.229-.376-.438-.658-.438-.658s.046.265.139.624c.017.036.042.076.066.114m7.446-5.919H6.5502a4.546 4.546 0 0 0-4.546 4.546v10.908a4.546 4.546 0 0 0 4.546 4.546h10.908a4.546 4.546 0 0 0 4.546-4.546V6.537a4.546 4.546 0 0 0-4.546-4.546m2.592 13.574a8.806 8.806 0 1 1 .7-3.436 8.77 8.77 0 0 1-.7 3.436"/></svg>