<svg xmlns="http://www.w3.org/2000/svg" viewBox="0 0 24 24"><path fill="#44739e" d="M8.065 1.003c-.197-.009-.391-.002-.52.064-.186.094-.343.319-.488.467l-.977.994-3.245 3.297-1.032 1.052c-.202.204-.434.387-.525.671-.161.498-.049 1.171-.049 1.693v6.044c0 .397-.076.88.069 1.255.103.264.312.447.505.642l.888.905 3.245 3.298 1.063 1.08c.155.157.333.405.546.48.151.053.358.018.516.018h7.351c.287 0 .805.101 1.064-.031.185-.094.342-.319.487-.467l.975-.991c1.077-1.095 2.168-2.174 3.245-3.269l1.035-1.052c.198-.202.43-.388.514-.672.153-.521.031-1.156.031-1.694v-3.561c0-.837-.01-1.673 0-2.51.005-.401.099-.838-.052-1.226-.097-.251-.311-.427-.493-.613l-.891-.905c-1.096-1.115-2.207-2.216-3.302-3.329-.369-.375-.749-.737-1.119-1.109-.147-.148-.319-.405-.517-.479-.14-.053-.342-.017-.489-.017H8.606c-.143 0-.344-.026-.541-.035m1.621 2.144c.424-.014.862.023 1.276.023h3.302c.584 0 1.391-.131 1.819.38.415.498.277 1.291.277 1.897 0 1.554.103 3.149-.004 4.699-.036.522-.376.944-.887 1.043-.577.112-1.221.037-1.808.037h-3.417c-.618 0-1.402.118-1.815-.467-.348-.494-.224-1.266-.224-1.839V5.737c0-.556-.074-1.176.047-1.722.115-.515.531-.766 1.015-.833a4.1 4.1 0 0 1 .419-.035m-.275 1.277v4.175h1.349v1.197h3.074V8.599h1.321V4.424Zm.602.585h.718v1.197h-.718Zm1.264 0h.718v1.197h-.718Zm1.292 0h.718v1.197h-.718Zm1.265 0h.716v1.197h-.716Zm-3.189 7.122h.891v3.621h-.747l-.029-.819-.082-1.985Zm2.413 0h.747l.084 2.656.029.673-.029.241-.257.051-.574.029Zm-1.703 5.454a2.74 2.74 0 0 1 .524.058c.178.037.381.099.502.245.133.16.132.381.132.578 0 .388.015.781-.002 1.168-.025.563-.672.55-.802 1.023-.161 0-.399.044-.546-.031-.156-.079-.261-.253-.403-.356-.181-.132-.373-.224-.44-.461-.084-.293-.019-.687-.019-.991 0-.329-.083-.765.204-.996.224-.18.541-.239.85-.237m-1.875.019c.125-.001.229.044.266.168.066.226.01.547.01.782v1.693h-.775v-1.168c-.409.289-.564.355-.949-.029v1.226h-.775v-2.569c.172-.047.336-.11.518-.076.348.063.581.508.718.806.161-.192.261-.429.432-.613.087-.094.348-.219.556-.22m5.501.074c0 .138.097.518-.018.613-.145.119-.511-.02-.597.181-.063.146-.017.391-.017.549v1.226h-.833v-1.868l-.66-.059-.058-.613Zm.228 0h2.154v.642l-.631.059v1.897h-.805v-1.868l-.689-.088Zm-4.133.673v1.341l.632-.029v-1.312Z"/></svg>