<svg xmlns="http://www.w3.org/2000/svg" fill="#44739e" viewBox="0 0 24 24"><path d="M25.5964 18.3263c-1.535-.497-3.792-1.974-6.854-5.037-2.456-2.454-4.383-5.165-5.007-6.83-.135-.36.188-.727.565-.654.387.075.916.237 1.603.557 1.848.86 3.546 1.978 5.667 4.099s3.238 3.818 4.098 5.667c.327.701.49 1.237.562 1.627.068.368-.278.686-.634.571m-3.558 4.184a.499.499 0 0 1-.475.345.52.52 0 0 1-.154-.024c-1.374-.444-3.085-1.557-5.026-3.253-2.297 1.259-6.052 2.749-5.955 3.391.186 1.227-.55 1.906-1.936.52-1.385-1.386-.707-2.121.522-1.935.644.097 2.141-3.707 3.406-5.999-1.509-1.796-2.703-3.601-3.186-4.891a.4995.4995 0 0 1 .292-.644c.256-.1.546.034.643.292.632 1.685 2.598 4.359 4.893 6.654 3.372 3.372 5.48 4.533 6.655 4.914.263.085.406.367.321.63m5.209-6.779c-1.919-4.122-6.838-9.077-10.912-10.992-1.661-.78-2.9-.917-3.652-.532-.093.058-.184.123-.275.183-1.007.665-1.982 1.436-2.887 2.34-5.641 5.63-7.868 12.534-2.304 18.089 5.491 5.483 12.481 3.331 18.12-2.3.892-.889 1.654-1.845 2.312-2.834.041-.061.083-.122.123-.183.413-.76.279-2.044-.525-3.771"/></svg>