<svg xmlns="http://www.w3.org/2000/svg" viewBox="0 0 24 24"><path fill="#44739e" d="M22.542 8.4c-1.16-2.509-4.144-5.535-6.622-6.705-1.012-.475-1.761-.559-2.214-.327-.053.031-.105.074-.169.116-.611.411-1.202.875-1.75 1.423-.179.179-.337.359-.506.538 3.416 1.634 7.465 5.725 9.068 9.162.105.222.189.443.274.654.263-.232.516-.464.769-.717.538-.548 1.002-1.128 1.403-1.729.021-.042.053-.074.074-.116.242-.453.158-1.244-.327-2.299M21.54 9.993c-.928-.306-2.309-1.202-4.165-3.069-1.497-1.497-2.667-3.152-3.047-4.164-.084-.222.116-.443.348-.401s.559.147.97.337c1.118.527 2.151 1.202 3.448 2.499 1.286 1.297 1.961 2.33 2.488 3.458.201.422.295.749.338.992.042.221-.169.411-.38.348M10.754 4.362c-1.318-.622-2.288-.727-2.889-.422-.074.053-.148.106-.222.148-.79.527-1.56 1.139-2.277 1.845-4.46 4.45-6.221 9.911-1.824 14.308 4.344 4.334 9.869 2.636 14.329-1.813.706-.707 1.307-1.466 1.824-2.236.032-.052.063-.095.095-.147.327-.601.221-1.614-.411-2.984-1.508-3.258-5.399-7.181-8.625-8.699m4.513 14.055c-.053.169-.211.274-.38.274-.042 0-.084 0-.116-.021-1.086-.358-2.446-1.234-3.975-2.573-1.814 1.002-4.787 2.172-4.713 2.678.148.971-.432 1.508-1.529.412s-.559-1.677.411-1.529c.506.074 1.698-2.931 2.689-4.745-1.191-1.423-2.14-2.847-2.52-3.869-.074-.201.032-.422.232-.506s.432.031.517.231c.495 1.329 2.056 3.448 3.869 5.262 2.668 2.667 4.334 3.585 5.262 3.88.2.074.316.295.253.506m2.815-3.3c-1.213-.401-3.005-1.561-5.42-3.986-1.94-1.94-3.469-4.091-3.964-5.398-.106-.295.147-.58.453-.527s.728.189 1.265.443c1.466.674 2.805 1.56 4.482 3.236s2.562 3.016 3.236 4.482c.264.548.391.98.443 1.286.053.295-.221.548-.495.464"/></svg>