<svg xmlns="http://www.w3.org/2000/svg" viewBox="0 0 24 24"><path fill="#44739e" d="M22.86 8.486c.688-3.242-1.179-6.659-5.268-6.659h-6.375l-1.056 4.95h4.809c.986 0 1.602.81 1.39 1.779-.21.986-1.161 1.745-2.148 1.745H9.351l6.518 12.047h6.817l-4.405-8.085c1.18-.634 3.859-2.412 4.58-5.777Zm-20.733 8.56L1 22.367h5.813L9.35 10.318c-3.541.124-6.325 2.484-7.223 6.728M5.95 7.094a2.736 2.736 0 0 0 2.747-2.732A2.737 2.737 0 0 0 5.95 1.633a2.737 2.737 0 0 0-2.748 2.731c0 1.497 1.234 2.73 2.748 2.73"/></svg>