<svg xmlns="http://www.w3.org/2000/svg" viewBox="0 0 24 24"><path fill="#44739e" d="M15.584 11.101c-.11-.034-.385-.12-.525-.163a1.65 1.65 0 0 0-.37-.092c-.095 0-.145.052-.179.162a15.78 15.78 0 0 1-1.273 3.081c-.147-.279-.415-.762-.661-1.2-.119-.208-.238-.417-.352-.615-.253-.44-.476-.839-.609-1.055-.195-.317-.325-.402-.58-.402-.526 0-1.306.473-1.306.913a.98.98 0 0 0 .197.526 1.59 1.59 0 0 1 .265.846 1.466 1.466 0 0 1-1.64 1.43 1.576 1.576 0 0 1-1.174-.411 1.532 1.532 0 0 1-.367-1.16v-.95a1.69 1.69 0 0 0 .669.116h.855c.116 0 .155-.046.155-.15v-.916c0-.11-.039-.151-.155-.151h-1.52V9.412a.492.492 0 0 0-.148-.395 1.294 1.294 0 0 0-.81-.201 1.284 1.284 0 0 0-.815.201.492.492 0 0 0-.147.395v3.659a1.6 1.6 0 0 1-.314 1.17 1.1 1.1 0 0 1-.812.313 1.06 1.06 0 0 1-.77-.285 1.126 1.126 0 0 1-.257-.824v-2.384c0-.103-.04-.151-.155-.151H1.16c-.11 0-.151.046-.151.152v2.155a2.236 2.236 0 0 0 .608 1.738 3.15 3.15 0 0 0 2.18.728 3.342 3.342 0 0 0 2.169-.754 3.66 3.66 0 0 0 2.379.753 3.121 3.121 0 0 0 2.829-1.46l.099.153c.2.311.358.55.511.781a1.042 1.042 0 0 0 1.028.527 1.1 1.1 0 0 0 1.075-.537 18.2 18.2 0 0 0 1.76-3.562 1.21 1.21 0 0 0 .094-.325c-.003-.069-.049-.124-.157-.158m7.327 3.831-2.091-2.876a.143.143 0 0 1 0-.184l1.935-2.811a.398.398 0 0 0 .094-.26.525.525 0 0 0-.175-.33.47.47 0 0 0-.354-.157.372.372 0 0 0-.227.092l-2.647 2.034a.149.149 0 0 1-.194 0l-2.65-2.038a.363.363 0 0 0-.226-.092.468.468 0 0 0-.354.157.526.526 0 0 0-.173.33.39.39 0 0 0 .094.26l1.934 2.811a.146.146 0 0 1 0 .183l-2.09 2.876a.385.385 0 0 0-.09.238.476.476 0 0 0 .164.348.495.495 0 0 0 .348.166.382.382 0 0 0 .237-.093l2.813-2.039a.158.158 0 0 1 .187 0l2.81 2.044a.387.387 0 0 0 .237.092.497.497 0 0 0 .35-.166.48.48 0 0 0 .157-.348.377.377 0 0 0-.089-.237m-20.94-4.686a.968.968 0 1 0 0-1.936.968.968 0 1 0 0 1.936"/></svg>