<svg xmlns="http://www.w3.org/2000/svg" fill="#44739e" viewBox="0 0 24 24"><path d="M15.26 11.186c-.1-.031-.35-.109-.478-.148a1.5 1.5 0 0 0-.336-.084c-.086 0-.132.048-.163.148a14.34 14.34 0 0 1-1.157 2.8c-.133-.254-.377-.693-.6-1.091-.109-.189-.217-.379-.32-.559-.23-.4-.433-.762-.554-.959-.177-.288-.295-.365-.527-.365-.478 0-1.187.43-1.187.83a.89.89 0 0 0 .179.478 1.446 1.446 0 0 1 .241.769 1.332 1.332 0 0 1-1.491 1.3 1.432 1.432 0 0 1-1.067-.374 1.392 1.392 0 0 1-.333-1.054v-.864a1.54 1.54 0 0 0 .608.106h.777c.105 0 .141-.042.141-.137v-.832c0-.1-.036-.137-.141-.137H7.47V9.651a.447.447 0 0 0-.134-.359 1.176 1.176 0 0 0-.736-.183 1.167 1.167 0 0 0-.741.183.447.447 0 0 0-.134.359v3.326a1.453 1.453 0 0 1-.285 1.063 1 1 0 0 1-.738.285.964.964 0 0 1-.7-.259 1.023 1.023 0 0 1-.234-.749V11.15c0-.094-.036-.137-.141-.137H2.15c-.1 0-.138.041-.138.138v1.958a2.032 2.032 0 0 0 .553 1.58 2.863 2.863 0 0 0 1.981.662 3.038 3.038 0 0 0 1.972-.686 3.326 3.326 0 0 0 2.162.685 2.837 2.837 0 0 0 2.571-1.327l.09.139c.182.283.326.5.465.71a.947.947 0 0 0 .934.479 1 1 0 0 0 .977-.488 16.53 16.53 0 0 0 1.6-3.238 1.1 1.1 0 0 0 .085-.295c-.002-.063-.044-.113-.142-.144m6.659 3.482-1.9-2.614a.13.13 0 0 1 0-.167l1.758-2.555a.362.362 0 0 0 .086-.236.477.477 0 0 0-.159-.3.426.426 0 0 0-.322-.143.338.338 0 0 0-.206.084l-2.406 1.848a.135.135 0 0 1-.177 0l-2.408-1.852a.33.33 0 0 0-.206-.084.425.425 0 0 0-.321.143.478.478 0 0 0-.158.3.354.354 0 0 0 .086.236l1.758 2.555a.133.133 0 0 1 0 .167l-1.9 2.614a.35.35 0 0 0-.082.216.433.433 0 0 0 .149.316.45.45 0 0 0 .317.151.347.347 0 0 0 .215-.084l2.557-1.854a.144.144 0 0 1 .17 0l2.554 1.858a.352.352 0 0 0 .215.084.452.452 0 0 0 .318-.151.435.435 0 0 0 .143-.316.343.343 0 0 0-.081-.216M2.887 10.409a.88.88 0 1 0 0-1.76.88.88 0 1 0 0 1.76"/></svg>