<svg xmlns="http://www.w3.org/2000/svg" viewBox="0 0 24 24"><path fill="#44739e" d="M5.443 6.117c-1.106 0-2.106.182-2.79.783-.906.815-1.253 2.241-1.516 4.483-.095.783-.127 1.491-.137 2.092 0 1.148.179 2.049.705 2.724.442.569 1.074.901 1.832 1.148 1.379.429 3.39.536 4.801.536 1.063 0 1.863-.161 2.41-.515.495-.321.874-.772 1.148-1.394.126-.268.189-.568.221-.654h-.526l-.147.375c-.443 1.127-1.327 1.674-2.906 1.674-.611 0-1.39.01-2.274-.075-2.442-.236-3.537-.59-4.148-1.363-.621-.804-.747-2.134-.474-4.473.137-1.212.369-3.4 1.348-4.183.537-.429 1.263-.654 2.442-.654.569 0 1.348.043 2.085.118 1.568.161 3.589.397 4.337 1.662.084.151.126.279.126.279h.537c-.042-.107-.074-.214-.137-.332-.4-.805-1.074-1.266-2-1.588-.663-.236-1.484-.397-2.674-.515-.663-.064-1.569-.128-2.263-.128m12.793 3.114c-.673 0-1.093.461-1.135 1.05l-.232 3.234c-.052.803.358 1.263 1.02 1.263s1.061-.482 1.356-.921l1.418-2.195-.126 1.852c-.052.75.336 1.264 1.061 1.264.673 0 1.114-.407 1.157-1.017l.241-3.266c.042-.643-.263-1.264-1.103-1.264-.463 0-.862.193-1.23.76l-1.471 2.26.137-1.756c.042-.664-.358-1.264-1.093-1.264m-13.022 0c-.673 0-1.093.461-1.135 1.05l-.231 3.234c-.053.803.357 1.263 1.009 1.263s1.061-.482 1.366-.921l1.419-2.195-.126 1.852c-.063.75.336 1.264 1.061 1.264.673 0 1.114-.407 1.156-1.017l.231-3.266c.053-.643-.252-1.264-1.093-1.264-.473 0-.851.193-1.229.761l-1.471 2.259.136-1.756c.042-.664-.368-1.264-1.093-1.264m6.968.043c-1.072 0-1.471.439-1.555 1.649l-.137 2.024c-.095 1.349.284 1.778 1.598 1.778h2.228c1.282 0 1.975-.536 1.975-1.499v-.001c0-.749-.557-1.22-1.282-1.327.683-.139 1.272-.589 1.272-1.328 0-.825-.62-1.296-1.776-1.296Zm.599.975h.515c.515 0 .82.225.82.61 0 .407-.315.642-.883.642h-.473s.042-.728.021-1.252m-.094 2.195h.567c.494 0 .841.203.841.621 0 .482-.358.696-.956.696h-.621s.106-.664.169-1.317"/></svg>