<svg xmlns="http://www.w3.org/2000/svg" fill="#44739e" viewBox="0 0 24 24"><path d="m21.941 12.063-.166-.053-.455.018a1.92 1.92 0 0 1-.715-.225l-.531-.372a16.9 16.9 0 0 0-1.891-1.152l-1.211-.6c-1.016-.479-1.849-.851-2.5-1.105l-2.658-1.055a3.73 3.73 0 0 0-1.105-.266l-.981-.017a5.46 5.46 0 0 0-1.512.164l-.426.124c-.2.059-.283.113-.277.154l.047.035.52-.147.165-.018.166.029.159.018a.291.291 0 0 0 .219-.118c.071-.089.213-.124.431-.112l.219.023-.4.124-.319.278a.64.64 0 0 1-.289-.053l-.248-.071-.154.083.136.13a.52.52 0 0 1 .082.3.567.567 0 0 0-.431-.213l-.289.024-.166-.071-.283.248-.018.053.087-.02.171-.1-.171.177-.042.107c-.006.136.036.207.124.212H7.3a.4.4 0 0 1 .491-.425.458.458 0 0 1 .336.16.468.468 0 0 1 .1.348.361.361 0 0 1-.272.349l-.041.024.036.048.124-.018a.969.969 0 0 0 .615-.526l.354-.65.993.373a2.36 2.36 0 0 0 .62-.4 1.9 1.9 0 0 1-.266.449l-.295.248-.9-.343-.154.308.886.336.219.119.207.183.3.011c-.2-.236-.29-.4-.284-.484a.73.73 0 0 1 .172-.3l.319-.42-.178.715A2.5 2.5 0 0 0 11 9.2l.779.142.284.124-.673-.041-1.1.023-.579.142-.237.419.2.39.278.036.266-.319-.13-.213.656-.053 1.134.154h.437l.29-.467-.505-1.055-.042-.177c0-.2.089-.284.266-.278a.3.3 0 0 1 .242.059c-.177 0-.265.059-.265.183a.21.21 0 0 0 .023.1l.576 1.082a2.8 2.8 0 0 0 .739.142 5.2 5.2 0 0 0 .827-.006 1.254 1.254 0 0 1-.55.16l-.715.035-.372-.053-.183.3.8.119a10.8 10.8 0 0 0 1.116-.012l.709-.042c.071.006.2.1.378.29l.816.892a1.51 1.51 0 0 0 .413.337 1.49 1.49 0 0 0 .6.148l1.761.094.909.821.544.042.189-.184-.289-.313-.284-.029a.58.58 0 0 1-.26-.13l-.809-.739-.615-.047a.453.453 0 0 1-.372-.195l-.437-.538-.579-.531a4.12 4.12 0 0 1 1.353 1.016l.609.041a.65.65 0 0 1 .36.189l.715.633a.777.777 0 0 0 .384.082l.189.113.284.325.638-.03c.147-.006.224-.071.236-.2zM9.321 14.42v.768l-.455.089a.869.869 0 0 1-.721-.355 1.5 1.5 0 0 1-.266-.939A1.457 1.457 0 0 1 8.192 13a1.108 1.108 0 0 1 .863-.354 1.268 1.268 0 0 1 .875.348v-.6a3.14 3.14 0 0 0-1-.165 1.852 1.852 0 0 0-1.312.49 1.64 1.64 0 0 0-.514 1.247 1.634 1.634 0 0 0 .49 1.259 1.848 1.848 0 0 0 1.306.46 2.113 2.113 0 0 0 1.105-.265v-1.39h-.856a.655.655 0 0 1 .172.39m-6.559-1.796v2.322a2.26 2.26 0 0 1-.142.886A1.655 1.655 0 0 1 2 16.5h.78a2.317 2.317 0 0 0 .679-1.844v-2.351h-.821a.47.47 0 0 1 .124.319m4 2.582-1.181-2.913h-.438l-1.122 2.824a.98.98 0 0 1-.355.479h.922a.256.256 0 0 1-.13-.2l.041-.16.172-.484h1.17l.2.573a.205.205 0 0 1-.089.272H7.04a.776.776 0 0 1-.278-.391m-1.95-.839.45-1.105.413 1.105zm14.547.922-.685-1.271a.9.9 0 0 0 .626-.85c0-.574-.408-.863-1.229-.863h-1.134a.455.455 0 0 1 .124.319V15.6h.839a.533.533 0 0 1-.124-.378V12.7l.261-.018a.478.478 0 0 1 .514.532.627.627 0 0 1-.662.7l.709 1.471a.328.328 0 0 0 .307.219h.733a.9.9 0 0 1-.279-.315m-5.902-2.984h-.91a.538.538 0 0 1 .213.5v1.666c0 .491-.225.739-.668.739a.646.646 0 0 1-.733-.733v-2.172h-.868a.417.417 0 0 1 .147.354v1.666a1.205 1.205 0 0 0 1.383 1.342 1.2 1.2 0 0 0 .892-.325 1.244 1.244 0 0 0 .325-.922v-1.613a.545.545 0 0 1 .219-.502m2.966 2.901-1.176-2.913H14.8l-1.123 2.824a.98.98 0 0 1-.354.479h.933a.258.258 0 0 1-.13-.2l.036-.16.165-.484H15.5l.207.573a.216.216 0 0 1-.089.272h1.087a.747.747 0 0 1-.282-.391m-1.944-.839.437-1.105.425 1.105z"/></svg>