<svg xmlns="http://www.w3.org/2000/svg" viewBox="0 0 24 24"><path fill="#44739e" d="m22.931 12.216-.183-.058-.5.019a2.11 2.11 0 0 1-.787-.247l-.584-.409a18.6 18.6 0 0 0-2.079-1.267l-1.332-.66c-1.117-.527-2.034-.936-2.75-1.215l-2.923-1.16a4.1 4.1 0 0 0-1.215-.293l-1.079-.019a6 6 0 0 0-1.663.181l-.468.136c-.22.065-.312.124-.305.169l.052.039.572-.162.181-.02.183.032.175.02a.32.32 0 0 0 .24-.13c.078-.098.235-.136.474-.123l.241.025-.44.137-.35.306a.704.704 0 0 1-.318-.059L7.8 7.38l-.169.092.149.142a.57.57 0 0 1 .09.33.624.624 0 0 0-.474-.234l-.318.027-.182-.079-.311.273-.02.059.096-.022.188-.11-.188.194-.047.118c-.006.149.04.228.137.233h.078a.44.44 0 0 1 .54-.467.504.504 0 0 1 .369.176.515.515 0 0 1 .11.382.397.397 0 0 1-.299.384l-.045.027.04.052.136-.019a1.066 1.066 0 0 0 .676-.579l.39-.715 1.092.41a2.6 2.6 0 0 0 .682-.44 2.1 2.1 0 0 1-.293.494l-.324.273-.99-.377-.169.339.974.369.241.131.227.201.33.012c-.22-.259-.319-.44-.312-.532a.8.8 0 0 1 .189-.33l.351-.462-.196.787a2.75 2.75 0 0 0 .35.548l.857.156.312.137-.74-.045-1.21.025-.637.156-.26.461.22.429.305.04.293-.351-.143-.235.721-.058 1.248.17h.48l.319-.514-.555-1.16-.046-.195c0-.22.097-.312.292-.306a.33.33 0 0 1 .266.065c-.194 0-.291.065-.291.201a.23.23 0 0 0 .025.11l.634 1.19a3.08 3.08 0 0 0 .812.157 5.7 5.7 0 0 0 .91-.007 1.38 1.38 0 0 1-.605.176l-.786.038-.409-.058-.202.33.88.131a11.9 11.9 0 0 0 1.227-.013l.78-.047c.078.007.22.11.416.319l.897.981a1.66 1.66 0 0 0 .455.371 1.64 1.64 0 0 0 .659.163l1.937.103 1 .903.598.046.208-.202-.318-.344-.312-.032a.64.64 0 0 1-.286-.143l-.89-.813-.676-.052a.498.498 0 0 1-.409-.214l-.481-.592-.637-.584a4.53 4.53 0 0 1 1.488 1.118l.67.045a.715.715 0 0 1 .396.208l.786.696a.855.855 0 0 0 .423.09l.207.124.313.358.701-.033c.162-.007.247-.078.26-.22Zm-13.88 2.592v.845l-.5.098a.956.956 0 0 1-.793-.391 1.65 1.65 0 0 1-.292-1.032 1.602 1.602 0 0 1 .344-1.082 1.219 1.219 0 0 1 .949-.389 1.395 1.395 0 0 1 .962.383v-.66a3.45 3.45 0 0 0-1.1-.181 2.037 2.037 0 0 0-1.442.538 1.804 1.804 0 0 0-.566 1.372 1.797 1.797 0 0 0 .539 1.384 2.032 2.032 0 0 0 1.436.506 2.324 2.324 0 0 0 1.216-.291v-1.529h-.942a.72.72 0 0 1 .189.429m-7.213-1.975v2.554a2.49 2.49 0 0 1-.156.974 1.82 1.82 0 0 1-.682.735h.858a2.548 2.548 0 0 0 .747-2.028v-2.586h-.903a.517.517 0 0 1 .136.351m4.399 2.84-1.299-3.204h-.481l-1.234 3.106a1.08 1.08 0 0 1-.391.526h1.014a.282.282 0 0 1-.143-.219l.045-.176.19-.533h1.286l.22.63a.225.225 0 0 1-.098.3h1.197a.853.853 0 0 1-.306-.43m-2.144-.923.494-1.215.455 1.215Zm15.998 1.014-.753-1.398a.99.99 0 0 0 .688-.935c0-.631-.449-.949-1.351-.949h-1.248a.5.5 0 0 1 .137.351v3.273h.923a.586.586 0 0 1-.137-.416v-2.773l.287-.02a.526.526 0 0 1 .565.585.69.69 0 0 1-.728.77l.78 1.617a.361.361 0 0 0 .338.241h.806a.99.99 0 0 1-.307-.346M13.6 12.482h-1.001a.592.592 0 0 1 .235.55v1.832c0 .54-.248.813-.735.813a.71.71 0 0 1-.806-.806v-2.389h-.955a.459.459 0 0 1 .162.389v1.833a1.325 1.325 0 0 0 1.521 1.476 1.32 1.32 0 0 0 .981-.358 1.368 1.368 0 0 0 .357-1.014v-1.774a.599.599 0 0 1 .241-.552m3.262 3.191-1.293-3.204h-.492l-1.235 3.106a1.08 1.08 0 0 1-.389.526h1.026a.284.284 0 0 1-.143-.219l.04-.176.181-.533h1.29l.228.63a.238.238 0 0 1-.098.3h1.195a.822.822 0 0 1-.31-.43m-2.138-.923.481-1.215.467 1.215Z"/></svg>