<svg xmlns="http://www.w3.org/2000/svg" viewBox="0 0 24 24"><path fill="#44739e" d="M14.686 9.548a2.552 2.552 0 0 0-2.385 2.81 2.432 2.432 0 0 0 2.54 2.559c1.493.018 2.482-.951 2.482-1.668h-1.65a.834.834 0 0 1-.77.465c-.582 0-.912-.33-.912-1.124h3.353c-.004-2.5-1.243-3.042-2.658-3.042m-.641 2.035c0-.524.213-.951.814-.951a.868.868 0 0 1 .892.951ZM9.326 9.548a2.552 2.552 0 0 0-2.386 2.81 2.432 2.432 0 0 0 2.541 2.559c1.493.018 2.482-.951 2.482-1.668h-1.65a.833.833 0 0 1-.77.465c-.582 0-.911-.33-.911-1.124h3.353c-.004-2.5-1.243-3.042-2.659-3.042m-.64 2.035c0-.524.213-.951.814-.951a.868.868 0 0 1 .891.951Zm-3.868.755a.948.948 0 0 1-1.066.99.965.965 0 0 1-1.007-1.007v-.853H1v.872c0 .891.272 2.482 2.772 2.482s2.849-1.706 2.849-2.52v-4.73H4.818Zm16.049-2.732a1.569 1.569 0 0 0-1.229.478c-.116.141-.263.29-.263-.071v-.272h-1.667v6.687h1.686v-1.841c0-.137.135-.116.233 0a1.77 1.77 0 0 0 1.261.407c1.338 0 2.112-1.163 2.112-2.75 0-2.057-1.298-2.638-2.133-2.638m-.502 4.205c-.815 0-1.028-.523-1.009-1.511s.407-1.401.93-1.401c.854 0 1.009.66 1.009 1.338s-.117 1.574-.93 1.574"/></svg>