<svg xmlns="http://www.w3.org/2000/svg" viewBox="0 0 24 24"><path fill="#44739e" d="M14.603 14.781a.162.162 0 1 0 .162.162.162.162 0 0 0-.162-.162m0-.589a.162.162 0 1 0-.162.161.162.162 0 0 0 .162-.161m-1.28-.12c-.467.313-.982.608-1.114 1.178a11.27 11.27 0 0 0 2.213.982 9.42 9.42 0 0 0-1.099-2.16m4.042 3.934c.397.033.917.041 1.335.032-.269-.126-1.098-.285-1.335-.032m.023-.515a6.6 6.6 0 0 0 1.185-.068c-.319-.11-1.007-.204-1.185.068m-.237-.275c.444.028.765-.416 1.221-.506a1.454 1.454 0 0 0-1.221.506m-4.429-7.822c-.444 0-.069.246.006.34a2.27 2.27 0 0 0 .621.691 2.556 2.556 0 0 0 1.66.008.54.54 0 0 0 .26-.296c-1.007.028-2.2.128-2.547-.743m2.239.296a2.38 2.38 0 0 0-.036-.516 5.01 5.01 0 0 1-2.108-.273c.231.616 1.267.833 2.144.789m.193-.031a1.659 1.659 0 0 0 1.435-1.089 4.15 4.15 0 0 1-1.435.574 2 2 0 0 0 0 .515M7.851 7.106a1.109 1.109 0 0 0 .092 1.072c0-.355-.057-.962.246-.944.212.012.255.466.435.567.2-.959-.999-1.443-1.123-.539.097-.061.175-.24.35-.156m6.207 1.767a3.193 3.193 0 0 0 2.164-.681c-.023-.145.174-.407.12-.625-.019-.075-.191-.183-.294-.297a7.27 7.27 0 0 1-1.232-1.689c-.026-.059-.041-.386-.219-.256a3.21 3.21 0 0 0 1.01 1.985c.215.26.475.407.236.81-.386.147-1.009.567-1.544.475-.285-.049-.227-.372-.324-.547a.641.641 0 0 0 .083.825m-1.788-2.66c-.301.476.59.567.974.454a.69.69 0 0 0 .311-.259c.106-.3-.114-.43-.219-.538a3.38 3.38 0 0 1-.473-.886c-.12.341.205.908.386 1.204-.237.23-.662.04-.979.025m4.701-.127a8.4 8.4 0 0 1-.567-1.11h-.037a2.18 2.18 0 0 0 .247 1.002c-.194.121-.567.045-.794.141-.01.641.997.324 1.151-.033m-5.965-1.147c.243-.542.643-1.066 1.446-.879.154-.253-.121-.439-.326-.47a1.361 1.361 0 0 0-1.196.85c-.055.151-.145.447.076.499m5.022 9.524.152-.262a.776.776 0 0 0-.73-.391.76.76 0 0 0-.227.068c-.014.38-.044.819-.095 1.239a5.8 5.8 0 0 1-.227 1.114 11 11 0 0 0 .824-1.248c.101-.169.202-.344.303-.52m.612 1.15a14.7 14.7 0 0 0 .781-2.413c.017-.088.051-.227.076-.366l-.032-.023-1.301-.967-.065-.049a2.487 2.487 0 0 1 .062 1.891c.05.181.221.249.29.411-.454.818-.962 1.58-1.428 2.382.347-.215.84-.038 1.247-.199.15-.055.258-.395.37-.667M9.236 3.363c.239-.059.441-.597.622-.794a5.5 5.5 0 0 1 .453-.375l-.106.043a3.545 3.545 0 0 0-1.526 1.111l-.034.046a1.02 1.02 0 0 1 .227-.042 1.9 1.9 0 0 0 .364.011M7.554 6.097l.028-.012a1.09 1.09 0 0 1 .391-.097 1.116 1.116 0 0 1 .672.179.908.908 0 0 1 .432.776h.007a.164.164 0 0 0 .175-.191 1.4 1.4 0 0 0-.079-.341 2.4 2.4 0 0 1-.042-.152 8.66 8.66 0 0 1 .122-1.997 1.8 1.8 0 0 0-.03-.358h-.018c-1.384.215-1.677 1.068-1.702 1.683a2.27 2.27 0 0 0 .024.426c.012.033.015.06.02.084M9.86 17.518l-.827-.129-.384-.265h.189c.019-.308.434-.132.47-.357.028-.175-.241-.188-.154-.465.227.082.341.261.579.328.218-.475 0-1.318.028-1.715 0-.075.038-.414.204-.355a.077.077 0 0 1 .04.049l.051.061.303.37v1.662c1.081-.139 2.183-.227 3.35-.261a8.6 8.6 0 0 1-.976-.438c-.197-.114-.819-.34-.875-.53-.091-.298.238-.454.294-.713-.593.323-.709-.31-.848-.758a5.84 5.84 0 0 1-.227-.944 10.26 10.26 0 0 1-1.495-.802 1 1 0 0 1-.114-.125l-.034.016-2.524 1.114s1.029 4.084.641 5.726l-.008.036a6.296 6.296 0 0 0 2.67.974c-.124-.872-.237-1.662-.318-2.475Zm9.396-1.293a.812.812 0 0 0-.409-.415l-.037-.016.021-.034a8.247 8.247 0 0 0 1.105-4.131 8.16 8.16 0 0 0-2.325-5.742 8 8 0 0 0-.208-.204l-.011-.01V5.66a6.01 6.01 0 0 0-.519-2.268 6.02 6.02 0 0 0-1.49-1.648 5.314 5.314 0 0 0-4.484-.44l-.124.046a5.67 5.67 0 0 0-.938.406c-.139.083-.282.161-.421.237-.731.404-1.423.785-1.639 1.645v.017l-.016.007c-.49.22-.754.78-.784 1.667v.016l-.012.01a7.9 7.9 0 0 0-.577.535 8.246 8.246 0 0 0 0 11.476c.148.151.307.301.472.445l.011.01v.015c.01.148.02.296.029.445v.079c.007.114.008.227.009.34a1.62 1.62 0 0 0 .066.584c.064.135.265.209.461.281.078.028.158.058.226.092.135.062.268.128.408.198a3.687 3.687 0 0 0 2.082.568h.029l.009.028c.049.164.097.332.146.5.177.613.361 1.248.578 1.78a9.42 9.42 0 0 0 3.587.171c.271-.033.613-.166.692-.435v-.029a2.64 2.64 0 0 1-.032-.507v-.027h.027l.084-.018c.313-.061.666-.132.727-.437a2.06 2.06 0 0 0-.092-.809 2.13 2.13 0 0 1-.087-.974v-.019l.048-.015c.178-.057.331-.107.305-.36v-.024l.021-.011a2.18 2.18 0 0 1 1.113-.191h.021l.009.019a.86.86 0 0 0 .176.234 3.08 3.08 0 0 0 1.554-.039c.49-.16.759-1.208.636-1.727a8.05 8.05 0 0 0-.447-1.308m-1.85-9.869v-.088l.06.065a7.852 7.852 0 0 1 .908 9.382l-.009.016h-.013a4.24 4.24 0 0 0-1.547.509l-.081.04.032-.084c.369-.971.681-1.958.951-2.881.018-.062.04-.13.064-.202a2.19 2.19 0 0 0 .161-.841c-.027-.214-.295-.442-.531-.643-.076-.066-.148-.128-.207-.185a6 6 0 0 0-.179-.155c-.323-.27-.613-.523-.64-.658s.113-.373.237-.58c.047-.08.093-.155.119-.211a5.45 5.45 0 0 0 .295-.844V8.98a10.48 10.48 0 0 0 .38-2.623ZM8.089 3.534a3.948 3.948 0 0 1 2.397-1.701.171.171 0 0 1 .167.071l.009.012v.014c0 .13-.105.161-.185.186a.45.45 0 0 0-.065.023.9.9 0 0 1-.075.078 2 2 0 0 1-.186.147 1.63 1.63 0 0 0-.267.227 2.15 2.15 0 0 0-.199.3c-.134.227-.273.464-.441.506a.64.64 0 0 1-.236 0 .6.6 0 0 0-.132-.01 1 1 0 0 0-.219.041 2.6 2.6 0 0 0-.172.058 1.85 1.85 0 0 1-.359.101l-.063.006Zm-.406.795a2.172 2.172 0 0 1 1.475-.699h.026l.013.022a1.4 1.4 0 0 1 .071.245 1.8 1.8 0 0 1 .029.366 4.54 4.54 0 0 1-.077.82 3.23 3.23 0 0 0-.039 1.189c.009.041.022.085.036.13v.015a1.3 1.3 0 0 1 .074.332.227.227 0 0 1-.049.171.216.216 0 0 1-.159.059h-.041v-.036a.877.877 0 0 0-.412-.746.978.978 0 0 0-.956-.043 1 1 0 0 0-.097.054l-.05.033-.006-.084a.5.5 0 0 0-.049.029l-.05.03-.009-.113a2.456 2.456 0 0 1 .27-1.773Zm-.622 3.033a1.09 1.09 0 0 1 .376-.76.955.955 0 0 1 .73-.227c.436.048.592.513.681.922.176.008.532 0 .649-.177a2.84 2.84 0 0 0-.114-.601 2.2 2.2 0 0 1-.106-.657 4.65 4.65 0 0 1 .13-.831 2.295 2.295 0 0 0 0-1.475L9.4 3.542l.007-.013a4.765 4.765 0 0 1 2.226-1.879 4.22 4.22 0 0 1 3.47.421 4.16 4.16 0 0 1 1.141 1.157l.152.199.067.087-.104-.032a.752.752 0 0 0-.709.101.41.41 0 0 0-.134.341.707.707 0 0 1 .567-.114 1.24 1.24 0 0 1 .828.603 3.81 3.81 0 0 1 .227 1.436c0 .081.007.164.012.246a6.963 6.963 0 0 1-1.046 4.197l-.123.183a2.25 2.25 0 0 1-.547.64 3.29 3.29 0 0 1-2.669.627 4.538 4.538 0 0 1-2.321-2.002 2.33 2.33 0 0 0 .692 1.134 3.18 3.18 0 0 0 1.04.852l-.02.067c-.351-.082-.801-.086-.921.172l-.01.023H11.2c-.795-.052-1.49-.138-1.853-.658a5.56 5.56 0 0 1-.706-1.641 1.9 1.9 0 0 1-.06-.418.5.5 0 0 1 .169-.248c.114-.114.207-.203.136-.367a.486.486 0 0 0-.3.143.567.567 0 0 1-.316.157.858.858 0 0 1-.68-.267 1.885 1.885 0 0 1-.529-1.327m6.151 5.721a1.48 1.48 0 0 1 .369.128l.02.01-.012.327-.015.01a3.9 3.9 0 0 0-.34.269 3.4 3.4 0 0 1-.55.404l-.079.04c-.066.03-.149.064-.227.096a3.1 3.1 0 0 1-.34.113c-.044.012-.085.021-.122.027a.5.5 0 0 1-.088.007.26.26 0 0 1-.056-.005c-.095-.022-.121-.114-.147-.206a.6.6 0 0 0-.022-.071c-.018-.057-.044-.121-.071-.192a2.61 2.61 0 0 1-.216-.802l-.006-.136c-.016-.404-.006-.801.183-.964a.328.328 0 0 1 .29-.064 4.42 4.42 0 0 1 1.177.43l.068.041c.024.014.046.028.067.042.04.026.078.051.119.074a.73.73 0 0 0 .313.091h.034l-.006.166-.015.011a1.01 1.01 0 0 1-.323.113c-.038.008-.075.016-.114.026.039 0 .074.007.109.014Zm-.031 1.041.123-.08.027-.018.019.024a7.9 7.9 0 0 1 .975 1.859c.043.103.086.207.13.31l.03.07-.073-.022a11.25 11.25 0 0 1-2.22-.986l-.024-.012.007-.026a1.974 1.974 0 0 1 1.006-1.12Zm1.135 1.157a5.75 5.75 0 0 0-.763-1.405l-.02-.024.022-.023c.03-.031.059-.066.087-.1s.048-.056.073-.083l.017-.019.022.009a.362.362 0 0 0 .326-.046.44.44 0 0 1 .24-.067.6.6 0 0 1 .275.136.61.61 0 0 0 .396.157h.039v.039c-.011.18-.018.361-.026.537a6.98 6.98 0 0 1-.216 1.751l-.025.081-.04-.074c-.154-.28-.282-.579-.408-.87Zm-.615-2.495v-.017l.015-.011a.55.55 0 0 1 .289-.104.298.298 0 0 1 .262.15.43.43 0 0 1 .058.211.45.45 0 0 1-.008.088.386.386 0 0 1-.072.162.332.332 0 0 1-.271.123.57.57 0 0 1-.177-.029l-.02-.006v-.022l-.008-.044c0-.028-.011-.053-.016-.077l-.018-.062v-.014l-.013-.05-.005-.03c0-.02-.008-.039-.012-.059a.9.9 0 0 1-.005-.207Zm1.168 3.433a5.8 5.8 0 0 0 .227-1.107c.057-.463.083-.928.096-1.235v-.022l.019-.009a.8.8 0 0 1 .243-.071.811.811 0 0 1 .763.408l.011.017-.011.02-.152.262-.043.074c-.087.15-.174.301-.262.454a11.2 11.2 0 0 1-.826 1.248l-.128.162Zm1.186-2.874a.624.624 0 0 1-.107.277l-.011.013h-.018a5.65 5.65 0 0 1-1.362-.187l-.028-.008.006-.032a.6.6 0 0 0 0-.056.5.5 0 0 0 0-.058v-.227a.4.4 0 0 1 .018-.104v-.012l.009-.005a.34.34 0 0 1 .105-.051.96.96 0 0 1 .214-.038l-.025-.006a.74.74 0 0 0-.316 0l-.042.011v-.043a.45.45 0 0 0-.051-.182 2 2 0 0 1-.031-.079l-.012-.033.033-.012a1.96 1.96 0 0 0 .34-.203c.327-.227.732-.498 1.011-.334.241.139.284.976.285 1.012a1.52 1.52 0 0 1-.022.357Zm-1.313-1.326a4.1 4.1 0 0 0-.34.257c-.081.066-.163.133-.248.195l-.01.007h-.176a1.248 1.248 0 0 1-.879-.299l-.018-.014.006-.023a.058.058 0 0 1 .039-.039v-.042l.047.021a.9.9 0 0 0 .364.073 2.93 2.93 0 0 0 .689-.114c.071-.017.142-.034.211-.048a2.3 2.3 0 0 1 .288-.047l.141-.012Zm-3.671.648h-.037c-.258-.016-.992-.26-1.089-.517a.158.158 0 0 1 .041-.175l.02-.021.025.017a1.5 1.5 0 0 0 .691.148c.133.01.271.019.394.04h.025v.025a.52.52 0 0 1-.033.227.77.77 0 0 0-.041.22Zm-4.344 4.466-.053-.052a7.837 7.837 0 0 1 0-10.904c.088-.09.181-.181.275-.268l.045-.042.014.06a.95.95 0 0 1 .034.371.51.51 0 0 1-.114.187.5.5 0 0 0-.055.081 2.527 2.527 0 0 0 .291 2.19 1.537 1.537 0 0 0 1.021.656h.028v.028a2.19 2.19 0 0 0 .213.794 1.4 1.4 0 0 0 .1.167c.113.184.269.413.177.599a1.93 1.93 0 0 1-.581.394l-.158.089c-.16.097-.308.182-.454.265a11.6 11.6 0 0 0-1.033.649 1.9 1.9 0 0 1-.301.166c-.278.133-.517.248-.46.629a4.4 4.4 0 0 0 .253.828c.05.135.097.262.137.383.054.167.113.332.183.49a5.9 5.9 0 0 1 .248.712 10.1 10.1 0 0 1 .266 1.513l.01.099Zm3.487 2.902a5.21 5.21 0 0 1-2.282-.762c-.132-.071-.27-.144-.405-.212-.074-.038-.149-.075-.226-.113l-.019-.015v-.022a14.555 14.555 0 0 0-1.148-5.693l-.012-.025.023-.018a11.68 11.68 0 0 1 2.722-1.693c.058-.023.154.069.513.493l.113.125a1.4 1.4 0 0 0 .114.12 9.03 9.03 0 0 0 1.327.721l.179.085v.019a5.8 5.8 0 0 0 .227.937c.013.044.026.088.04.132.08.276.173.587.372.669a.454.454 0 0 0 .386-.063l.068-.036-.017.076a.77.77 0 0 1-.159.287c-.095.125-.186.245-.136.408.037.124.396.289.634.399.093.043.172.081.227.114a6 6 0 0 0 .744.34c.079.032.155.062.227.094l.147.064h-.16a33.5 33.5 0 0 0-3.346.259l-.061.008-.227.03h-.022l-.012-.019a1.18 1.18 0 0 1-.102-.646v-.272a4.9 4.9 0 0 1 .027-.534 2.37 2.37 0 0 0 .007-.681c-.007-.018-.014-.026-.019-.027a.059.059 0 0 0-.055 0 .482.482 0 0 0-.102.32 3.5 3.5 0 0 0 .028.524 2.54 2.54 0 0 1-.064 1.209l-.013.028-.028-.009a.98.98 0 0 1-.324-.176 1.18 1.18 0 0 0-.227-.138.227.227 0 0 0 .08.227.227.227 0 0 1 .085.197c-.019.128-.137.151-.242.172-.134.027-.216.052-.227.174a2.04 2.04 0 0 0 .358-.008 1.43 1.43 0 0 1 .648.047l.019.008v.021c.009.114.02.227.032.341.074.765.181 1.522.295 2.323l.027.193Zm4.635 2.333a5.8 5.8 0 0 1-1.68.227 7.2 7.2 0 0 1-2.059-.296l-.017-.006-.007-.017a24.24 24.24 0 0 1-1.042-5.123v-.032l.031-.006a13.15 13.15 0 0 1 4.389-.174l.024.006v.023a11.3 11.3 0 0 1 .097 1.271c.012.331.025.673.063 1.007.048.418.06.866.074 1.298a10.6 10.6 0 0 0 .15 1.779l.006.032Zm.825-1.013v.025l-.023.007-.104.037-.092.032c-.058.019-.105.033-.152.044a1.43 1.43 0 0 1-.333.034h-.037v-.033c-.007-.141-.017-.305-.027-.477-.026-.42-.055-.894-.041-1.227v-.036h.036a.77.77 0 0 0 .233-.041.58.58 0 0 1 .273-.034l.024.006v.025c.01.087.025.183.046.293s.041.199.064.299c.014.067.028.134.043.201a4.5 4.5 0 0 1 .079.522c.006.075.01.145.011.214q0 .055-.004.109Zm0-2.065c-.283.063-.496.095-.794.139l-.057.008v-.038c-.036-.488-.082-1.134-.094-1.773v-.662l.024-.008a1.77 1.77 0 0 1 .593-.073h.078l.007.026a4.1 4.1 0 0 1 .104.514c.049.323.074.674.098 1.012.019.272.04.554.071.818v.032Zm.006-2.891a1.19 1.19 0 0 0-.631.113l-.121.075.071-.122c.21-.365.432-.725.646-1.075.259-.419.526-.854.773-1.296a.62.62 0 0 0-.123-.157.567.567 0 0 1-.161-.244v-.013l.007-.013a2.447 2.447 0 0 0-.062-1.856.414.414 0 0 0-.305-.227.44.44 0 0 0-.227.048l-.121.058.075-.114a.75.75 0 0 1 .141-.144c.036-.03.077-.061.113-.092a1.34 1.34 0 0 0 .296-.275l.022-.033.029.025a6.1 6.1 0 0 1 .517.479c.113.113.227.233.368.358.043.037.097.078.153.121.187.142.398.302.427.513a1.1 1.1 0 0 1-.027.309c-.016.089-.035.18-.052.258a3 3 0 0 0-.023.114 14.4 14.4 0 0 1-.783 2.417l-.058.145c-.1.255-.194.493-.331.547a1.69 1.69 0 0 1-.619.081Zm1.032 2.401v.029l-.029.005a1 1 0 0 0-.185.059.83.83 0 0 1-.322.074h-.059v-.032c-.03-.371-.092-.756-.151-1.134-.052-.328-.101-.638-.131-.941v-.038h.038c.041 0 .085 0 .131-.008a1.11 1.11 0 0 1 .34.007h.015l.008.013a4.254 4.254 0 0 1 .338 1.966Zm2.005.265a2.7 2.7 0 0 1-.611.069 1.21 1.21 0 0 1-.481-.075l-.061-.03.06-.032a1.93 1.93 0 0 1 .584-.163c.1-.018.202-.035.298-.059a2.72 2.72 0 0 0-.9-.026 4.65 4.65 0 0 1-.624.021h-.037v-.031c-.009-.094-.018-.191-.027-.287a8.9 8.9 0 0 0-.242-1.605l-.005-.019.013-.015a2.09 2.09 0 0 1 .837-.413 3.2 3.2 0 0 0 .667-.279c.291-.186.64.081.763.266a5.37 5.37 0 0 1 .388 1.298l.018.083a1.062 1.062 0 0 1-.646 1.297Zm-3.259-1.619a1.24 1.24 0 0 1-.665.184c.014.624.056 1.247.092 1.726.283-.043.477-.072.735-.128-.029-.256-.048-.528-.067-.794-.023-.328-.048-.672-.095-.988"/></svg>