<svg xmlns="http://www.w3.org/2000/svg" viewBox="0 0 24 24"><path fill="#44739e" d="M11.01 15.708a.683.683 0 0 0 .719-.065l1.83-1.375a.686.686 0 0 0 .202-.857.71.71 0 0 0-.202-.243l-1.83-1.375a.69.69 0 0 0-.351-.134.68.68 0 0 0-.368.069.686.686 0 0 0-.381.615v2.75a.683.683 0 0 0 .381.615M12 1a11 11 0 1 0 11 11A11 11 0 0 0 12 1m3.589 4.537.612-.109a.686.686 0 0 1 .514.109.68.68 0 0 1 .186.194.7.7 0 0 1 .097.25l.241 1.362-2.984.532Zm-4.586.811 2.826-.501-1.334 2.331-2.826.494ZM6.17 7.875a.686.686 0 0 1 .564-.777l2.516-.44-1.341 2.324-1.505.268Zm11.33 8.25a1.375 1.375 0 0 1-1.375 1.375h-8.25A1.375 1.375 0 0 1 6.5 16.125V9.938h11Z"/></svg>