<svg xmlns="http://www.w3.org/2000/svg" fill="#44739e" viewBox="0 0 24 24"><path d="M11.1 15.371a.621.621 0 0 0 .654-.059l1.663-1.25a.624.624 0 0 0 .184-.779.645.645 0 0 0-.184-.221l-1.663-1.25a.626.626 0 0 0-.319-.122.616.616 0 0 0-.335.063.624.624 0 0 0-.346.559v2.5a.621.621 0 0 0 .346.559M12 2a10 10 0 1 0 10 10A10 10 0 0 0 12 2m3.263 4.125.556-.1a.624.624 0 0 1 .467.1.62.62 0 0 1 .169.176.64.64 0 0 1 .089.227l.219 1.238-2.713.484Zm-4.169.737 2.569-.456-1.213 2.119-2.569.45ZM6.7 8.25a.624.624 0 0 1 .513-.706l2.287-.4-1.219 2.112-1.368.244Zm10.3 7.5A1.25 1.25 0 0 1 15.75 17h-7.5A1.25 1.25 0 0 1 7 15.75v-5.625h10z"/></svg>