<svg xmlns="http://www.w3.org/2000/svg" viewBox="0 0 24 24"><path fill="#44739e" d="m4.1 10.889 1.616 3.482h.909l-1.953-4.193Zm.477 3.482H5.5l-1.543-3.306-.597.73Zm-2.588 0h.829l.366-2.638 4.562-5.622h-1l-4.339 5.317Zm4.497-8.257h-.909L3.632 8.523l.336-2.409h-.813l-.693 4.947Zm-4.339 0L1 14.375h.821l1.158-8.261Zm12.374 6.627a.508.508 0 0 1-.528-.605l.619-4.229h-.828l-.59 4.273c-.08.967.59 1.55 1.701 1.304l.143-.96a1.06 1.06 0 0 1-.517.217m-.462.964a1.319 1.319 0 0 1-1.052-1.539l.583-4.251h-.799l-.613 4.159c-.219 1.664.932 2.595 2.58 2.386l.104-.77a2.84 2.84 0 0 1-.808.015Zm1.595 1.472 1.052-7.271h-.857l-1.074 7.553a.795.795 0 0 1-.908.649l-.11.821c1.319.116 1.778-.92 1.902-1.752Zm2.016-7.271h-.769l-1.044 7.187c-.121.886-.528 2.177-2.126 2.019l-.103.751a2.613 2.613 0 0 0 2.968-2.341Zm-9.326 4.303.267-1.96c.165-.73.931-.829 1.17-.507l.121-.864a1.8 1.8 0 0 0-.562-.082 1.558 1.558 0 0 0-1.476 1.236l-.305 2.228a1.099 1.099 0 0 0 1.118 1.228 1.42 1.42 0 0 0 .605-.096l.11-.821c-.707.528-1.103-.083-1.048-.362m-.968.055.304-2.221a1.746 1.746 0 0 1 2.247-1.352l.102-.751a2.638 2.638 0 0 0-3.122 2.096l-.301 2.195c-.088.678.195 2.437 2.536 2.17l.11-.807a1.347 1.347 0 0 1-1.876-1.33m3.698-4.354h-.821l-.888 6.465h.8Zm.956 0h-.769l-.91 6.465h.792Zm8.78-.186a2.705 2.705 0 0 0-2.759 2.355l-.305 2.269a1.986 1.986 0 0 0 2.17 2.25 2.661 2.661 0 0 0 2.748-2.363l.297-2.14a1.99 1.99 0 0 0-2.147-2.371Zm1.016 4.668a1.784 1.784 0 0 1-1.852 1.478 1.394 1.394 0 0 1-1.429-1.573c.022-.187.311-2.32.352-2.499a1.785 1.785 0 0 1 1.73-1.327 1.417 1.417 0 0 1 1.522 1.663c-.016.148-.297 2.137-.319 2.258Zm-1.203-3.759a1.649 1.649 0 0 0-1.572 1.201c-.044.173-.337 2.327-.352 2.522a1.23 1.23 0 0 0 1.297 1.349 1.626 1.626 0 0 0 1.67-1.335c.015-.121.304-2.096.319-2.25a1.267 1.267 0 0 0-1.356-1.487Zm-.534 4.265a.569.569 0 0 1-.562-.671l.29-2.096a.889.889 0 0 1 .806-.722.557.557 0 0 1 .568.549.6.6 0 0 1-.007.11l-.287 2.119a.879.879 0 0 1-.804.711Z"/></svg>