<svg xmlns="http://www.w3.org/2000/svg" viewBox="0 0 24 24"><path fill="#44739e" d="M21.861 7.037a11.148 11.148 0 0 0-8.701-6.015h-2.32a12.2 12.2 0 0 0-3.179.837A11.148 11.148 0 0 0 1 10.861v2.32a13.86 13.86 0 0 0 .451 2.106 11.078 11.078 0 0 0 9.002 7.691h3.094a13.38 13.38 0 0 0 2.792-.794A11.148 11.148 0 0 0 23 13.181v-2.32a12.4 12.4 0 0 0-1.139-3.824m-4.62 9.02H15.52a2.445 2.445 0 0 0-2.32-3.158q-2.083-.099-4.168-.043-.054 1.531-.065 3.072a16.7 16.7 0 0 1-1.697.043V7.983a15.1 15.1 0 0 1 1.612.043l.042 3.05a.4.4 0 0 0 .11.065l1.16.021a9.35 9.35 0 0 0 1.246-.064q1.525-1.588 3.137-3.094 1.31-.053 2.622.022-1.709 1.574-3.395 3.179a4.137 4.137 0 0 1 3.439 4.855Z"/></svg>