<svg xmlns="http://www.w3.org/2000/svg" viewBox="0 0 24 24"><path fill="#44739e" d="M13.76 14.034c0 .044.022.066.043.066s.044 0 .044-.022l6.863-4.463a.66.66 0 0 1 .392-.131h1.502a.363.363 0 0 1 .392.33.6.6 0 0 1 0 .058v2.874a.75.75 0 0 1-.392.74l-1.828 1.092a.081.081 0 0 1-.066.022c-.022 0-.043-.022-.043-.088v-3.351c0-.044-.022-.066-.044-.066s-.044 0-.044.022l-5.007 3.266a.67.67 0 0 1-.392.11h-3.311a.363.363 0 0 1-.392-.33.6.6 0 0 1 0-.059V9.963c0-.022-.022-.066-.044-.066s-.044 0-.044.022l-3.308 2.004c-.044.021-.044.043-.044.043 0 .022 0 .022.022.044l2.351 2.351a.165.165 0 0 1 .044.088c0 .022-.044.042-.066.042H8.254a.528.528 0 0 1-.391-.109l-1.437-1.436c-.021-.021-.021-.021-.043-.021s-.022 0-.044.021l-2.395 1.437a.666.666 0 0 1-.392.11H1.397a.363.363 0 0 1-.393-.337.6.6 0 0 1 0-.058v-2.827a.75.75 0 0 1 .392-.74L3.224 9.42a.066.066 0 0 1 .044-.021c.022 0 .044.021.044.087v3.761c0 .044.021.066.043.066a.081.081 0 0 0 .066-.022l6.204-3.746a.698.698 0 0 1 .415-.11h3.353a.364.364 0 0 1 .392.33.6.6 0 0 1 0 .059v4.201Z"/></svg>