<svg xmlns="http://www.w3.org/2000/svg" viewBox="0 0 24 24"><path fill="#44739e" d="m17.292 18.047 1.14.254.519 2.315h.189l.036-.027-.368-2.635-3.136-.135-.416 2.644.197-.008.595-2.261 1.238-.149Zm-1.447-9.274 2.099-.047.008.339-2.1.046Zm-.078-.586 2.073-.046.002.122-2.073.046Zm.022.233 1.95-.044.004.176-1.95.044Zm-.029-.519 1.95-.043.004.176-1.95.043Zm-.004-.193 1.804-.04.003.122-1.804.04ZM1 1v22h22v-2.564l-3.667-.117-.075.303-.093.072h-.278l-.197-.374-2.99-.202-.188.411-.348.017-.043-.465-3.551-.231a2.904 2.904 0 0 0-1.463.291L7.49 21.426l-3.013 1.419H1.155V1.155h21.69V2.64l-10.592.69v2.057l-10.715.494L1.525 8.7l10.746-.23v1.055l10.574-.165v3.35l-1.766-.026a.387.387 0 0 1-.29.131h-1.494v.22l.176.44 3.374.065v.1l-3.33-.055.013.033-.29.164h-.284a1.1 1.1 0 0 1 .075.065l3.816.094v.194l-3.65-.098.028.039a1.57 1.57 0 0 1 .19.401l.012.039 3.42.088v.316l-2.497-.06.01 1.08 2.487.088v.262l-2.497-.081.011 1.218 2.486.102v.283l-2.497-.11v2.119l2.497.172v.429l.155.009V1Zm3.214 7.336-2.378.052.011-2.211 2.367-.11Zm5.39-.116-5.083.11V6.053l5.083-.234Zm2.147-.046v-1.81l-.25-.168.021 1.98h-.093V6.15h-.339v2.038h-.171V6.28h-.176v1.916h-.11V6.177h-.123v2.025h-.11V6.3h-.176v1.907h-.071v-1.76h-.122v1.76h-.117V5.805l2.337-.11.015 2.466Zm9.731-5.135 1.126-.072.012 3.12-1.138.028Zm-2.872.187 2.562-.166v3.063l-2.562.061Zm-3.843.25 1.046-.067v2.843l-1.046.026Zm-2.2 2.058V3.62l1.894-.123V6.28l-.268.007a.09.09 0 0 0-.007-.033l-.206-.486-.007-.023-.146-.918-.09-.779h-.01l-.11.708-.132 1.004a.09.09 0 0 1-.008.028l-.21.468a.11.11 0 0 0-.007.058l-.689.017Zm1.3.77-.33.008.099-.212a.101.101 0 0 1 .189.018Zm1.32 2.871-.742.012V7.398l-.25-.169.019 1.957h-.091V7.183h-.341v2.01h-.172V7.316h-.18v1.883h-.11V7.211h-.122v1.992h-.11v-1.87h-.176v1.87h-.07V7.479h-.123V9.21h-.143V8.154l-.008-1.515 2.622-.062Zm3.115-.05-2.805.045V6.569L18.3 6.5Zm0-2.929-2.178.053v-2.86l2.178-.141Zm2.353 2.891-2.043.033V6.5l2.043-.05Zm1.968-.032-1.658.027v-2.64l1.658-.041ZM3.779 6.28l-1.54.08v1.903l1.54-.055Zm-.799.23a.174.174 0 1 1-.177.174.175.175 0 0 1 .177-.174m0 1.581a.459.459 0 1 1 .466-.459.462.462 0 0 1-.466.459m6.423-2.129-4.69.215v2.021l4.69-.126Zm7.39.123h1.068l.314-.236v-.64l-.414-.428h-.701l-.467.402.049.703Zm2.187-.169 1.829-.067V3.394l-1.829.118Zm.88-2.128a.211.211 0 1 1-.211.211.21.21 0 0 1 .212-.211Zm0 .805a.55.55 0 1 1-.556.55.55.55 0 0 1 .557-.55Zm-5.637 8.757v-.885l-.123.026v.91Zm-1.417.061 1.065.018v-.921h-1.065Zm.297-1.019h.249l.124-.256.483-.883-.174-.065Zm.476 0h.237l.062-.127.483-.883-.173-.065ZM3.294 21.633l.066-.021.06-.02a.319.319 0 0 1 .252-.156h.036c.379.103.457.027.565-.078a.69.69 0 0 1 .364-.212c.019-.009.08-.048.135-.082a4.3 4.3 0 0 1 .923-.477 1.485 1.485 0 0 0 .687-.35.468.468 0 0 1 .33-.152h.009c.065-.009.238-.034.287-.134a.165.165 0 0 0 .016-.087 1.12 1.12 0 0 0-.191-.509l-.036-.063a.96.96 0 0 1-.124-.33 1.83 1.83 0 0 0-.131-.406 3.27 3.27 0 0 0-.33-.607 3.37 3.37 0 0 0-.618-.634 5.06 5.06 0 0 0-1.2-.718 6.88 6.88 0 0 0-1.679-.429 8.6 8.6 0 0 0-1.557-.209v6.127a2.3 2.3 0 0 0 .352.196.693.693 0 0 0 .38 0 2.3 2.3 0 0 1 .55-.04l.227.015c.066 0 .142.013.199.013l-.008-.016a.484.484 0 0 1-.059-.303c.046-.171.264-.242.494-.318m4.029-1.886a.5.5 0 0 0 .049-.076.457.457 0 0 1 .339-.2c.117-.026.19-.047.22-.12s0-.127-.07-.246a1.65 1.65 0 0 1-.212-.505 1.62 1.62 0 0 1-.039-.421 3.96 3.96 0 0 0-.05-.666 1.17 1.17 0 0 0-.093-.354 1.034 1.034 0 0 0-.307-.353c-.042-.035-.081-.067-.118-.102a3.3 3.3 0 0 0-.419-.351c-.097-.072-.198-.147-.344-.275a3.8 3.8 0 0 1-.476-.499 1.58 1.58 0 0 0-.432-.399 2.83 2.83 0 0 0-.638-.294 5.2 5.2 0 0 0-1.226-.271 4.5 4.5 0 0 0-.88-.062c-.836.05-1.331.252-1.472.603v.516h.177a9.1 9.1 0 0 1 1.442.153 8.83 8.83 0 0 1 1.727.452l.059.022a4.44 4.44 0 0 1 1.259.698 2.85 2.85 0 0 1 1.047 1.327c.13.371.22.681.29.932a2.86 2.86 0 0 0 .167.491m-4.834-5.336.131-.01a4.6 4.6 0 0 1 .905.064l-.008.077.008-.077a5.3 5.3 0 0 1 1.261.281 3 3 0 0 1 .669.309 1.75 1.75 0 0 1 .468.431c.064.078.135.164.235.267.022-.005.141-.06.241-.614v-.026l.66-.749.015-.008c.214-.11.33-.227.33-.314s-.09-.146-.165-.193a6.05 6.05 0 0 0-3.782-.236 2.57 2.57 0 0 0-.966.798Zm4.694.107-.599.683a2.8 2.8 0 0 1-.071.301l.244.006h.347l-.139-.116.393-.99a1.7 1.7 0 0 1-.175.116m.157-.833a.57.57 0 0 1 .22.22l.247-.587h-.424a15.8 15.8 0 0 1-1.815-.152 3.916 3.916 0 0 0-2.057.076 4.6 4.6 0 0 0-.358.31 2.2 2.2 0 0 1 .22-.118 6.202 6.202 0 0 1 3.967.251m7.741 3.565a.625.625 0 0 0 .248.535h.267l.009-.052 2.234.097 1.261.024a6.223 6.223 0 0 0 .254-3.144 1.277 1.277 0 0 0-.996-1.083 19.4 19.4 0 0 0-2.503.026c-.051.01-.102.017-.149.025-.33.049-.55.082-.717.634-.044.143.016 1.907.084 2.796.008.062.008.102.008.142m.781-.937c.153-.071.298-.136 1.533-.088a3.3 3.3 0 0 1 .754.075c.489.101.952.252.942.911l-3.706-.069a.703.703 0 0 1 .479-.829Zm3.582 3.654.035-.027-.274-2.024-.017.031-.016.03-.283-.005.11.77.265 1.222Zm-3.572-.161.398-1.56-.159.019-.408 1.548Zm-4.291-.232 1.464-.699.013-4.526 1.809.046v-.039a.44.44 0 0 1 .011-.072 1.56 1.56 0 0 1 .135-.325l.023-.038-3.665-.098h-.15l-.013.996v.077l-.037 2.849-3.086-.245.141-.05v-.014h.011v-.037h-.01l-.036-.723h.01l-.059-1.177h1.595l.029 1.28.046-.008h.025v-.011a5.8 5.8 0 0 0 .309-1.884H9.31a.11.11 0 0 1-.103-.11v-1.06a.095.095 0 0 1 .039-.077.096.096 0 0 1 .085-.015 2.78 2.78 0 0 0 .931.123 3 3 0 0 0 .816-.055v-.052h-.034a4.6 4.6 0 0 1-.704.051h-.055a2.8 2.8 0 0 1-1.061-.133.065.065 0 0 1-.036-.065.062.062 0 0 1 .049-.055 4.6 4.6 0 0 1 1.073-.095 4.07 4.07 0 0 1 1.064.11l.009.014.846-.166v-.752l-9.825-.11v1.661a7.6 7.6 0 0 1 1.045-.99 4.037 4.037 0 0 1 2.139-.087 15.5 15.5 0 0 0 1.797.151h.499l.11.119-.371.886-.469 1.178.22.182.158.13H6.76v-.077.077l-.295-.006v.011l1.491.09.077 1.562-.321.11-.002.074c.007.047.013.091.019.133l.034-.012.071.425.051.649.05.244c.019.033.037.064.054.092a.427.427 0 0 1 .088.36l.033.089-.037.088.403-.22 2.668.22v.013Zm-1.318-5.825a2.78 2.78 0 0 1-.931-.123.096.096 0 0 0-.085.015.095.095 0 0 0-.039.077v1.061a.11.11 0 0 0 .104.11h.951a6.08 6.08 0 0 1-.307 1.898l.678.032a12.76 12.76 0 0 1-.299-1.93h.874v-.077l-1.897-.007a.026.026 0 0 1-.027-.026v-1.061a.02.02 0 0 1 .008-.015h.017a2.83 2.83 0 0 0 .951.127 2.53 2.53 0 0 0 1.032-.116.22.22 0 0 1 0 .044v.066h.077v-.064a.187.187 0 0 0-.02-.101.07.07 0 0 0-.014-.016.055.055 0 0 0-.022-.008.05.05 0 0 0-.031 0h-.017l-.035.015c-.052.017-.101.032-.152.044a3 3 0 0 1-.816.055m-1.023 3.589 1.747.102.009-.346-1.761-.098Zm1.758-.322v-.124l-.266-.008-.01.013a.103.103 0 0 1-.081.038l-.721-.034a.095.095 0 0 1-.074-.042h-.03l-.401.071Zm-1.837.183-.215.008-.472.021h-.014l-.074-1.488h1.123l.024 1.039.001.05.151-.027-.027-1.217H8.219l.091 1.798h.165l.687-.029Zm1.902.323-1.701-.099-.845.036 2.553.169.008-.473h-.006Zm10.041-5.102v-2.348a.314.314 0 0 0-.093-.22.322.322 0 0 0-.22-.092l-4.178.04a.315.315 0 0 0-.31.314v2.304a.315.315 0 0 0 .314.314h4.173a.314.314 0 0 0 .314-.312m-4.49.197a.197.197 0 0 1-.194-.197v-2.304a.198.198 0 0 1 .194-.198l4.174-.044a.195.195 0 0 1 .142.057.198.198 0 0 1 .058.141v2.348a.198.198 0 0 1-.198.197h-4.18Zm1.767.243v.173l.169.44-.074.066a1.35 1.35 0 0 1 .231.082h.494l.136-.077-.194-.484v-.201Zm-5.689-.299-.272-.003.008.779.264.004Zm1.648.024v.788l4.003.076.023-.02-.142-.367v-.25H16.62a.391.391 0 0 1-.34-.199Zm-2.987 1.065 3.833.095a.935.935 0 0 1 .504-.18c.049-.007.098-.015.15-.025h.011l.314-.018-1.98-.033-.2.083v-.028l-1.293-.022v-.058h-.382l-.99.167a.055.055 0 0 1 .022.009.07.07 0 0 1 .011.01m-.604 3.144.33.01v-1.926h-.628a12.9 12.9 0 0 0 .298 1.917Z"/></svg>