<svg xmlns="http://www.w3.org/2000/svg" viewBox="0 0 24 24"><path fill="#44739e" d="M1.001 16.473c.001-.518.005-.933.009-.924s.099.404.213.877.214.877.224.898c.017.038.023.039.219.035l.202-.005.243-.919c.133-.505.241-.942.24-.971l-.003-.052-.164-.005c-.118-.003-.17.001-.183.017-.009.013-.081.289-.158.615-.078.327-.145.599-.15.606-.016.028-.038.011-.055-.043-.01-.03-.069-.307-.131-.613s-.119-.565-.127-.574-.097-.012-.198-.009L1 15.412l.002-.937c.001-.821.004-.924.024-.832.067.306.298.535.608.601.091.019.329.024 1.167.025h1.053v-.782c0-.43.004-.782.009-.782s.384.327.842.726c.459.399.866.743.906.765.119.063.231.073.802.073.595-.001.696-.012.871-.098.055-.027.139-.085.188-.129l.089-.081.074.075c.095.098.244.176.39.207.14.03.83.035.95.007.148-.034.285-.121.611-.386.179-.146.332-.265.339-.265.007-.001.013.15.013.334v.336h1.045c.677 0 1.081-.007 1.147-.019a.783.783 0 0 0 .62-.574c.017-.062.023-.214.024-.529 0-.243.006-.442.013-.442s.384.321.838.713c.674.583.848.725.952.778l.128.064.567.006c.369.003.607-.002.683-.015.156-.026.307-.1.42-.207l.093-.089.076.079c.042.043.117.099.168.125.2.101.172.099 1.343.105l1.078.007v-2.253h1.048v2.251h1.027c.625 0 1.071-.007 1.139-.018.149-.024.307-.099.413-.198.101-.096.198-.279.221-.42.01-.064.016.11.017.55l.002.645h-1.28v2.526l.197.005c.171.004.2.001.219-.025.016-.022.022-.154.022-.531 0-.469.002-.505.033-.543.031-.039.043-.041.339-.049l.307-.008.004-.163c.005-.139.001-.167-.024-.185-.022-.015-.111-.022-.308-.022-.365 0-.352.012-.352-.312 0-.227.001-.233.045-.273.043-.041.051-.042.421-.051l.377-.008v2.226H1l.001-.941Zm2.444.89c.108-.041.219-.147.269-.258.033-.074.035-.112.036-.723v-.646l-.044-.088c-.051-.103-.136-.183-.247-.235-.068-.031-.111-.036-.319-.036-.21 0-.251.005-.32.037-.109.05-.212.147-.259.244-.04.079-.04.086-.04.725 0 .719-.002.704.122.841.062.069.157.129.248.157.023.007.137.013.252.014.17.001.228-.004.302-.032m-.4-.331c-.134-.068-.137-.085-.137-.646 0-.523.002-.536.093-.621.032-.03.069-.043.139-.049.091-.007.096-.006.163.061l.069.069v.527c0 .567-.004.593-.091.65-.075.05-.151.052-.236.01Zm10.124.336c.023-.016.075-.058.115-.095s.08-.065.088-.065c.019 0 .072.058.096.107.018.037.03.039.208.039h.189l.004-.962c.004-.757 0-.964-.017-.975-.035-.022-.347-.017-.37.007-.016.015-.021.197-.021.71 0 .688 0 .691-.039.748-.073.108-.225.153-.315.095-.103-.068-.101-.055-.11-.843l-.008-.722-.174-.005c-.135-.004-.178.001-.194.02s-.019.236-.016.881l.006.857.047.08c.073.124.13.152.314.152.117 0 .166-.007.198-.029Zm3.372.013c.022-.008.073-.043.114-.077s.081-.058.089-.053c.008.004.019.032.025.06l.012.052.192-.004.192-.005v-2.561l-.193-.004-.192-.005-.006.36c-.002.198-.009.365-.015.37s-.07-.021-.143-.059c-.127-.066-.139-.068-.295-.068-.234 0-.337.05-.405.197-.029.064-.031.126-.032.805 0 .79.001.806.091.903.072.079.16.105.35.105.097.001.194-.006.216-.015Zm-.166-.379c-.092-.061-.094-.072-.095-.607-.001-.551.003-.57.109-.62.137-.065.3-.012.361.117.026.053.029.118.024.521l-.005.459-.043.058c-.024.032-.064.068-.09.082-.067.035-.201.03-.261-.01m-11.941.34c.015-.016.021-.2.021-.725v-.704l.042-.056c.048-.062.2-.145.266-.144.05 0 .108.042.136.097.014.026.02.266.02.774 0 .55.005.742.02.758.014.013.083.02.196.02.144 0 .177-.004.186-.027.019-.051.011-1.661-.009-1.734-.026-.092-.126-.19-.223-.216-.138-.037-.274-.012-.457.086-.089.048-.165.087-.17.087-.004 0-.008-.031-.008-.067 0-.083-.011-.088-.206-.088-.084 0-.164.004-.179.01-.025.01-.027.11-.027.953 0 .518.004.954.01.969.008.022.042.027.186.027.113 0 .182-.007.195-.02Zm2.425-.018c.007-.022.028-.123.045-.226.024-.143.042-.199.073-.237l.042-.049h.239c.314 0 .285-.028.379.37l.04.172h.43l-.006-.069c-.004-.058-.446-2.021-.53-2.359l-.027-.107h-.306c-.169 0-.311.006-.316.014-.02.033-.508 2.393-.508 2.458v.071h.215c.208 0 .216-.002.229-.038Zm.247-.925c-.079-.031-.079-.066.002-.518.043-.234.086-.442.098-.463.019-.036.022-.036.042-.009.033.046.197.907.179.941-.031.058-.225.087-.322.049Zm1.597.466.005-.497.042-.044c.034-.036.057-.045.127-.045.052 0 .097.01.115.026.015.015.116.258.223.542l.195.515h.407v-.057c0-.031-.085-.284-.189-.562s-.189-.515-.189-.526c-.001-.011.028-.041.064-.068.097-.073.157-.142.207-.238.042-.08.046-.106.052-.336.005-.225.003-.259-.033-.353-.052-.14-.207-.296-.351-.353-.1-.041-.115-.042-.593-.042h-.49l-.004 1.246c-.003.686-.001 1.256.003 1.268.006.015.064.021.206.021h.198Zm.087-.958c-.079-.039-.094-.106-.087-.395.007-.319.004-.315.249-.315.142 0 .192.006.243.032.122.063.175.164.175.332-.001.133-.043.233-.124.295-.1.076-.348.104-.456.051m2.236 1.43c.054-.015.13-.043.17-.062.107-.055.242-.192.298-.303l.05-.1.005-.736c.006-.817.003-.843-.104-1.001-.073-.109-.208-.217-.333-.267-.098-.039-.117-.041-.582-.041h-.481l-.005 1.246c-.003.686-.001 1.256.004 1.268.013.033.846.03.977-.005Zm-.493-.388-.046-.036v-1.645l.046-.036c.054-.043.215-.049.304-.012.081.034.179.125.223.207.036.067.038.093.043.608.006.632-.001.686-.105.804-.091.103-.179.144-.315.145-.081 0-.116-.009-.15-.036Zm4.096-.283c0-.55.005-.709.024-.753.03-.072.108-.138.209-.176.095-.036.15-.023.204.05.035.047.036.07.046.807.005.418.011.762.012.765s.087.002.189 0l.185-.005.005-.859c.004-.568-.001-.881-.013-.923-.023-.079-.116-.161-.211-.187-.133-.036-.261-.011-.449.086-.094.049-.173.086-.176.082-.004-.003-.012-.036-.02-.073l-.014-.068-.154-.006c-.085-.002-.171 0-.193.005l-.038.01v.959c0 .528.005.964.011.971.007.006.095.011.198.011h.186Zm5.019.508v-.188l-.455-.006c-.323-.003-.46-.011-.475-.025-.015-.016.087-.221.456-.908l.475-.887-.004-.167-.005-.166h-1.375v.343l.413.009c.387.008.455.015.455.05 0 .008-.212.414-.472.902l-.473.887v.344h1.461Zm1.246.162c.276-.072.459-.268.507-.543.013-.073.018-.336.014-.772-.006-.639-.007-.664-.044-.756-.087-.211-.257-.362-.472-.419-.09-.024-.18-.028-.546-.024l-.438.005-.005 1.247c-.003.685-.001 1.255.004 1.267.013.034.846.03.979-.004Zm-.499-.394-.042-.042v-1.619l.042-.042c.036-.036.059-.042.147-.042.057 0 .13.01.161.023.08.034.178.125.222.207.036.068.038.093.044.612.006.636-.001.689-.107.804-.093.102-.18.14-.317.141-.092 0-.114-.006-.15-.042M1.573 13.941c-.055-.021-.115-.063-.158-.11-.132-.143-.123.119-.123-3.411l.001-3.155.04-.087c.056-.12.134-.204.238-.256l.089-.044h1.918l.004.955.005.956 1.072-.931c.59-.511 1.094-.941 1.121-.955.039-.02.158-.025.656-.025.703 0 .722.003.857.138.13.131.135.162.134.849l-.001.586-1.22.979c-.672.539-1.224.985-1.228.991s.546.454 1.222.996l1.228.985v.567c0 .683-.007.724-.147.864-.139.14-.162.143-.862.143-.488 0-.599-.004-.64-.025-.027-.014-.531-.444-1.121-.955l-1.071-.93-.005.955-.004.955-.958-.001c-.913 0-.962-.002-1.047-.034m6.398.001c-.113-.044-.209-.141-.251-.254-.034-.089-.034-.136-.034-2.523V8.734h.942c1.046 0 1.036-.001 1.169.113.038.033.091.104.118.158l.048.098.005 2.046.004 2.045-.44.352c-.242.194-.471.37-.509.391-.068.038-.085.039-.519.038-.4 0-.457-.004-.533-.034Zm2.241-3.515V6.878h.951c1.046 0 1.041-.001 1.169.105.036.029.085.093.111.141l.047.089.004.786c.003.433.01.787.014.787.005 0 .493-.42 1.084-.933.592-.513 1.092-.942 1.112-.953.027-.015.203-.021.657-.022h.621l.105.053c.119.059.195.14.238.255.025.067.03.165.036.664l.006.585-1.234.994c-.679.546-1.231.998-1.226 1.004.004.006.557.452 1.228.991l1.221.979v.576c-.001.407-.007.597-.022.647-.035.119-.123.23-.227.289l-.095.053-.621.005c-.48.004-.633 0-.673-.017-.029-.012-.536-.442-1.127-.955s-1.078-.932-1.083-.932c-.004 0-.011.35-.014.777-.004.75-.006.781-.041.857a.478.478 0 0 1-.259.239c-.089.033-.131.034-1.038.034h-.944Zm6.732 3.519c-.105-.035-.236-.152-.289-.257l-.04-.082-.004-2.587-.004-2.587.957-.777.958-.777 1.925.004c1.804.003 1.928.005 1.98.034a.624.624 0 0 1 .225.217l.046.079.005 3.179c.005 3.595.016 3.298-.133 3.447-.138.139-.123.137-1.19.137h-.925v-2.251h-1.598v2.252l-.915-.001c-.794-.001-.927-.005-.999-.029Zm3.512-4.731v-.773h-1.598v1.547h1.598Zm-1.323 0v-.481h1.048v.963h-1.048ZM6.457 11.241c-.511-.416-.943-.77-.96-.787-.031-.031-.004-.055.928-.817l.96-.786.005.782c.002.431.002 1.138 0 1.573l-.005.79Zm8.877-.025c-.534-.429-.968-.786-.965-.793.008-.019 1.934-1.569 1.949-1.569.007 0 .013.708.013 1.573s-.005 1.572-.013 1.571-.45-.352-.984-.782M7.686 7.852c0-.681.004-.705.136-.838.14-.139.114-.136 1.199-.136h.951v1.564H7.686Zm-3.833-.484v-.782l1.001.001c.831.001.985.005.907.023-.052.011-.123.036-.158.054s-.438.361-.897.76-.838.726-.843.726c-.006 0-.01-.352-.01-.782m8.917.296-.006-.485-.056-.116c-.108-.221-.322-.399-.545-.454-.07-.017.166-.021 1.263-.021 1.218 0 1.34.002 1.255.025-.052.014-.133.051-.181.083s-.449.371-.893.755-.813.699-.819.699c-.008 0-.015-.219-.018-.486m3.87.014c0-.194-.008-.393-.019-.443-.062-.301-.33-.574-.617-.631-.047-.009.411-.015 1.194-.016.699-.001 1.264.004 1.255.012-.078.067-1.795 1.429-1.803 1.429-.005 0-.01-.158-.01-.351M1.001 6.942 1 6.586l.34.001c.324 0 .335.001.249.025-.142.038-.228.09-.34.204a.87.87 0 0 0-.222.392c-.024.087-.025.075-.026-.266m21.981.297c0-.081-.075-.267-.146-.36-.107-.14-.247-.226-.438-.269-.086-.02-.065-.022.253-.023L23 6.585v.353c0 .193-.004.352-.009.352s-.008-.023-.008-.051ZM7.47 6.808c-.077-.079-.27-.181-.386-.204-.051-.009.108-.015.464-.015.351 0 .515.006.466.015-.119.024-.285.11-.377.195-.046.044-.087.079-.091.079-.005 0-.039-.032-.076-.07"/></svg>