<svg xmlns="http://www.w3.org/2000/svg" fill="#44739e" viewBox="0 0 24 24"><path d="M20.473 12.013h-.49v1.936h.481a.974.974 0 0 0 .431-.081.606.606 0 0 0 .263-.237.8.8 0 0 0 .1-.336c.009-.109.015-.229.015-.357a2.45 2.45 0 0 0-.024-.362.76.76 0 0 0-.119-.309.58.58 0 0 0-.272-.2 1.16 1.16 0 0 0-.385-.054m.483.61a2.1 2.1 0 0 1 .021.315c0 .119 0 .23-.014.331a.49.49 0 0 1-.063.209.32.32 0 0 1-.137.121.69.69 0 0 1-.3.049h-.18v-1.335h.189a.9.9 0 0 1 .287.037.29.29 0 0 1 .13.091.44.44 0 0 1 .067.182m1.007-1.337A1.77 1.77 0 0 0 22 10.9v-.187a1.79 1.79 0 0 0-.078-.528 1.23 1.23 0 0 0-.271-.47 1.34 1.34 0 0 0-.478-.323 1.77 1.77 0 0 0-.687-.12h-1.271v5.409h1.2a1.6 1.6 0 0 0 1.2-.406A1.59 1.59 0 0 0 22 13.139v-.287a1.525 1.525 0 0 0-.146-.717.92.92 0 0 0-.25-.294 1.06 1.06 0 0 0 .237-.258.98.98 0 0 0 .122-.297M21.7 10.9a1.5 1.5 0 0 1-.028.316.7.7 0 0 1-.084.206.876.876 0 0 1-.336.293l-.267.145.277.124a.66.66 0 0 1 .329.293 1.23 1.23 0 0 1 .109.575v.287a1.3 1.3 0 0 1-.3.929 1.327 1.327 0 0 1-.987.312h-.9V9.572h.97a1.49 1.49 0 0 1 .572.1 1.045 1.045 0 0 1 .373.25.93.93 0 0 1 .2.355 1.5 1.5 0 0 1 .064.44zm-1.251-.939h-.466v1.706h.5a.74.74 0 0 0 .638-.245 1.04 1.04 0 0 0 .16-.622.92.92 0 0 0-.183-.614.8.8 0 0 0-.649-.225m.425 1.286a.516.516 0 0 1-.395.12h-.2v-1.106h.165a.587.587 0 0 1 .417.119.652.652 0 0 1 .111.42.785.785 0 0 1-.098.447m-3.15 2.064a.4.4 0 0 1-.09.293.357.357 0 0 1-.47 0 .4.4 0 0 1-.088-.293V9.272h-1.069v4.111a1.22 1.22 0 0 0 .112.524 1.38 1.38 0 0 0 .3.423 1.42 1.42 0 0 0 .44.288 1.416 1.416 0 0 0 1.075 0 1.41 1.41 0 0 0 .447-.288 1.35 1.35 0 0 0 .3-.425 1.27 1.27 0 0 0 .107-.522V9.272h-1.064zm.3 0V9.572h.467v3.811a.97.97 0 0 1-.08.4 1.05 1.05 0 0 1-.233.33 1.11 1.11 0 0 1-.355.228 1.11 1.11 0 0 1-1.193-.228 1.03 1.03 0 0 1-.238-.333.92.92 0 0 1-.084-.4V9.572h.467v3.739a.676.676 0 0 0 .182.509.659.659 0 0 0 .885 0 .674.674 0 0 0 .182-.509m-2.677-3.635a1.24 1.24 0 0 0-.5-.318 1.97 1.97 0 0 0-.6-.086h-1.3v5.409h1.069v-1.995h.241a1.61 1.61 0 0 0 .762-.157 1.254 1.254 0 0 0 .477-.443 1.33 1.33 0 0 0 .2-.5 3.5 3.5 0 0 0 .043-.606 2.86 2.86 0 0 0-.081-.768 1.21 1.21 0 0 0-.311-.536m.05 1.858a1.06 1.06 0 0 1-.157.391.944.944 0 0 1-.365.339 1.34 1.34 0 0 1-.621.122h-.542v1.994h-.468V9.572h1a1.65 1.65 0 0 1 .511.072.91.91 0 0 1 .376.241.926.926 0 0 1 .233.407 2.66 2.66 0 0 1 .07.687 3.36 3.36 0 0 1-.034.555zm-.475-1.234a.564.564 0 0 0-.244-.251.87.87 0 0 0-.417-.083h-.549V12h.518a.97.97 0 0 0 .43-.08.57.57 0 0 0 .251-.241.77.77 0 0 0 .09-.327c.008-.108.013-.23.013-.363s0-.237-.009-.349a.89.89 0 0 0-.083-.34m-.22 1.031a.51.51 0 0 1-.055.208.26.26 0 0 1-.121.114.685.685 0 0 1-.3.049h-.217v-1.441h.248a.59.59 0 0 1 .275.047.264.264 0 0 1 .117.119.59.59 0 0 1 .053.225c0 .105.007.217.007.334s.001.239-.009.34zM12.183 9.6a1.39 1.39 0 0 0-.416-.241 1.342 1.342 0 0 0-.924 0 1.29 1.29 0 0 0-.409.241 1.21 1.21 0 0 0-.3.413 1.37 1.37 0 0 0-.112.571v2.824a1.36 1.36 0 0 0 .112.579 1.155 1.155 0 0 0 .3.4 1.2 1.2 0 0 0 .409.248 1.327 1.327 0 0 0 .924 0 1.29 1.29 0 0 0 .416-.248 1.19 1.19 0 0 0 .293-.4 1.35 1.35 0 0 0 .113-.579v-2.82a1.35 1.35 0 0 0-.113-.571 1.245 1.245 0 0 0-.293-.417m-.36 3.808a.507.507 0 0 1-.154.409.573.573 0 0 1-.729 0 .51.51 0 0 1-.153-.409v-2.82a.513.513 0 0 1 .153-.41.573.573 0 0 1 .729 0 .51.51 0 0 1 .154.41zm-3.214-.86h-.015L7.437 9.326h-.736v5.347h.766v-3.214h.015l1.172 3.214h.721V9.326h-.766ZM5.222 9.326h.766v5.347h-.766zm-.556 0H3.9l-1.119 2.441h-.015V9.326H2v5.347h.766v-1.599l.413-.774.871 2.373h.811l-1.239-3.207Z"/></svg>