<svg xmlns="http://www.w3.org/2000/svg" viewBox="0 0 24 24"><path fill="#44739e" d="m13.243 15.025-2.777-2.833L15.491 15l3.399 1.899v-3.454l-7.305-2.743 7.305.685V8.113l-7.305.685 7.235-2.715.075-.028V2.6l-8.429 4.709 4.535-4.628h-3.714L8.563 6.692V2.681H5.548v14.137H8.56v-4.009l1.358 2 .048.07.075.11 1.241 1.827h3.717l-1.76-1.793ZM18.662 15v1.505l-2.672-1.493ZM8.329 16.586h-2.55v-1.527l1.271-.006 1.275-.006Zm6.12 0h-3.043l-1.05-1.549h.694l1.87-.008Zm7.593 3.016.934-1.624h-.815l-.647 1.51v-1.51h-.79v3.355h.791v-1.509l.598 1.509H23ZM19.204 20.9c-.311 0-.464-.55-.464-1.246s.153-1.245.464-1.245c.22 0 .355.293.412.757l.77-.173-.023-.1a1.158 1.158 0 0 0-1.16-.982c-.887 0-1.299.786-1.299 1.744s.412 1.745 1.299 1.745a1.143 1.143 0 0 0 1.169-1.021l.024-.115-.752-.11c-.054.441-.205.748-.44.746m-3.292-.751.119-2.171h-.79v3.355h.646l.984-2.171-.12 2.171h.791v-3.355h-.648Zm-2.363-2.238c-.887 0-1.328.786-1.328 1.744s.44 1.745 1.328 1.745 1.327-.786 1.327-1.745-.441-1.744-1.327-1.744m0 2.991c-.312 0-.494-.55-.494-1.247s.182-1.245.494-1.245.494.55.494 1.245-.183 1.247-.494 1.247m-3.969.431h.791v-2.828h.695v2.828h.791v-3.355H9.58Zm-1.692-3.422c-.886 0-1.327.786-1.327 1.744s.44 1.745 1.327 1.745 1.328-.786 1.328-1.745-.441-1.744-1.328-1.744m0 2.991c-.311 0-.493-.55-.494-1.247s.183-1.245.494-1.245.494.55.494 1.245-.182 1.247-.494 1.247m-2.483-1.63h-.671v-1.294h-.79v3.355h.79v-1.534h.671v1.534h.791v-3.355h-.791Zm-3.706.896.124-2.258H1v3.49h.673l1.022-2.258-.124 2.258h.822v-3.49h-.674Z"/></svg>