<svg xmlns="http://www.w3.org/2000/svg" fill="#44739e" viewBox="0 0 24 24"><path d="M23.0844 8.4709h.3726c.3469 0 .55.1728.55.4434 0 .2557-.1897.4623-.5333.4623h-.1136v.357h-.2762V8.4709Zm.643.4538c0-.132-.0998-.2016-.2437-.2016h-.1236v.4082h.125c.1425 0 .2423-.0745.2423-.2066m-1.646-.2016h-.3709V8.471h1.014v.2522h-.369v1.0105h-.274zm-.8272 1.0105-.1117-.3083h-.4722l-.1083.3083h-.288l.4722-1.2627h.3183l.4792 1.2627Zm-.508-.5348h.3183l-.1589-.44Zm-1.7066-.7279h.7925v.2488h-.5164v.2621h.4722v.2285h-.4722v.276h.5164v.2473h-.7925Zm-1.0774.2522h-.371V8.471h1.014v.2522h-.369v1.0105h-.274zm-1.9931.3794c0-.3828.2825-.6604.652-.6604.3708 0 .6519.2776.6519.6604s-.281.6604-.652.6604c-.3694-.0005-.652-.276-.652-.6604m1.0243 0c0-.2592-.1812-.4062-.3724-.4062-.1931 0-.3724.1475-.3724.4062 0 .2607.1813.4082.3724.4082.1912-.0006.3724-.1495.3724-.4082m-1.7681.1251h-.5164v.506h-.2761V8.4709h.276v.506h.5165v-.506h.274v1.2627h-.274Zm-2.516-.7567h.2627v.848h.0015l.581-.848h.2656v1.2627h-.2622v-.8585h-.0015l-.5824.8585h-.2642V8.4709ZM11.91 9.7336l-.4757-.6008v.6008h-.276V8.4709h.276v.5924l.4722-.5924h.3232l-.5044.6231.5144.64H11.91Zm-1.8198-.643h.4926v.208H10.09Zm-.852.137h-.5165v.506h-.276V8.4709h.276v.506h.5164v-.506h.2741v1.2627h-.274ZM6.722 8.471h.2626v.848h.0015l.581-.848h.2656v1.2627h-.2621v-.8585h-.0015l-.5825.8585h-.2641V8.4709Zm.5635-.1137c-.1777 0-.3252-.0899-.3252-.3049h.1932c0 .1033.0407.159.132.159s.1321-.0562.1321-.159h.1932c.0015.2155-.1455.3049-.3253.3049M5.9534 9.7336l-.1117-.3083h-.4722l-.1082.3083h-.288l.4722-1.2627h.3183l.4791 1.2627Zm-.508-.5348h.3184l-.159-.44Zm-2.0337.3029c.1504 0 .2115-.0948.2115-.3217v-.7096h.867v1.2627H4.214V8.7226h-.3218v.4539c0 .4012-.139.5655-.4806.5655zm-.8412-.274h-.5163v.5059H1.778V8.4709h.276v.506h.5164v-.506h.2741v1.2627h-.274ZM.007 9.1024c0-.3828.2826-.6604.652-.6604.3709 0 .652.2776.652.6604s-.2811.6604-.652.6604c-.3694-.0005-.652-.276-.652-.6604m1.0244 0c0-.2592-.1813-.4062-.3724-.4062-.1932 0-.3724.1475-.3724.4062 0 .2607.1812.4082.3724.4082.1911 0 .3724-.1495.3724-.4082m6.8566 1.66v5.2637a.213.213 0 0 1-.2125.2125H6.303a.213.213 0 0 1-.2125-.2125v-5.2638a.213.213 0 0 1 .2125-.2125h1.3724a.2125.2125 0 0 1 .2125.2125m-2.146 5.2374-1.5988-2.7354 1.5154-2.4663c.0725-.1053-.0025-.2488-.13-.2488l-1.666.003a.159.159 0 0 0-.1315.07L2.5537 12.623h-.6873v-1.8606a.2127.2127 0 0 0-.2124-.2125H.282a.213.213 0 0 0-.2125.2125v5.2638c0 .1172.0953.2126.2125.2126h1.3724a.213.213 0 0 0 .2126-.2126v-1.853h.8361l1.1703 1.9906a.16.16 0 0 0 .1361.0774h1.5974A.1583.1583 0 0 0 5.7419 16zm17.99.2388a.2127.2127 0 0 0 .2125-.2125v-5.2638a.2127.2127 0 0 0-.2126-.2125h-1.3227a.213.213 0 0 0-.2125.2125l.0084 2.6927-2.4012-2.9027h-1.5254a.213.213 0 0 0-.2125.2125v5.2643a.212.212 0 0 0 .212.212h1.3198a.212.212 0 0 0 .212-.212v-2.696l2.377 2.9057zm-6.2161-5.4544v5.2196a.235.235 0 0 1-.2349.2348H8.6725a.235.235 0 0 1-.2349-.2348v-5.2196a.235.235 0 0 1 .2349-.2349h8.609a.235.235 0 0 1 .2343.2349m-1.7866 1.278a.0747.0747 0 0 0-.0898-.073c-.93.1858-4.223.214-5.3274-.0014a.074.074 0 0 0-.0878.0734v2.5825c0 .0457.0402.0805.0858.074.9157-.1355 4.3964-.1132 5.3358.003a.0743.0743 0 0 0 .0834-.074zM7.888 10.7625v5.2638a.213.213 0 0 1-.2125.2125H6.303a.213.213 0 0 1-.2125-.2125v-5.2638a.213.213 0 0 1 .2125-.2125h1.3724a.2125.2125 0 0 1 .2125.2125M5.742 16l-1.5988-2.7354 1.5154-2.4663c.0725-.1053-.0025-.2488-.13-.2488l-1.666.003a.159.159 0 0 0-.1315.07L2.5537 12.623h-.6873v-1.8606a.2127.2127 0 0 0-.2124-.2125H.282a.213.213 0 0 0-.2125.2125v5.2638c0 .1172.0953.2126.2125.2126h1.3724a.213.213 0 0 0 .2126-.2126v-1.853h.8361l1.1703 1.9906a.16.16 0 0 0 .1361.0774h1.5974A.1583.1583 0 0 0 5.7419 16zm17.99.2388a.2127.2127 0 0 0 .2125-.2125v-5.2638a.2127.2127 0 0 0-.2126-.2125h-1.3227a.213.213 0 0 0-.2125.2125l.0084 2.6927-2.4012-2.9027h-1.5254a.213.213 0 0 0-.2125.2125v5.2643a.212.212 0 0 0 .212.212h1.3198a.212.212 0 0 0 .212-.212V13.333l2.377 2.9057zm-6.2161-5.4544v5.2196a.235.235 0 0 1-.2349.2348H8.6725a.235.235 0 0 1-.2349-.2348v-5.2196a.235.235 0 0 1 .2349-.2349h8.609a.235.235 0 0 1 .2343.2349m-1.7866 1.278a.0747.0747 0 0 0-.0898-.073c-.93.1858-4.223.214-5.3274-.0014a.074.074 0 0 0-.0878.0734v2.5825c0 .0457.0402.0805.0858.074.9157-.1355 4.3964-.1132 5.3358.003a.0743.0743 0 0 0 .0834-.074z"/></svg>