<svg xmlns="http://www.w3.org/2000/svg" viewBox="0 0 24 24"><path fill="#44739e" d="M19.359 14.945c.52-.227.793-.512.825-.836 0-.016.009-.031.009-.047l.007-2.843a.32.32 0 0 0 0-.073c0-.14-.113-.386-.486-.595a1.36 1.36 0 0 0-.217-.113h-.007a3.555 3.555 0 0 0-1.474-.252 3.56 3.56 0 0 0-1.48.246l-.299.114-1.988.787-.016-.787-.018-.873-.016-.818-.018-.87v-.267l1.381-.548c.441-.179.49-.404.49-.492V4.977c0-.089-.041-.307-.414-.423a1.93 1.93 0 0 0-.87-.127 3.14 3.14 0 0 0-.869.126L6.833 7.301a.471.471 0 0 0-.35.427v1.674l.018.037a.68.68 0 0 0 .465.412l.023.01a1.247 1.247 0 0 0 .639.113 2.72 2.72 0 0 0 .731-.06l.126-.04v3.735l-.066.026-2.722 1.059-.805.313c-.514.215-.696.54-.696.753v2.793a1.141 1.141 0 0 0 .833.832 2.85 2.85 0 0 0 1.211.19 4.73 4.73 0 0 0 1.757-.252l5.216-2.013 4.251-1.637ZM9.118 13.17V9.848l.032-.012v-.084l.355-.134.784-.3.872-.334 1.708-.655.717-.275v.202l.025-.009.048 2.304.022 1.091-3.176 1.291-1.323.537v-.121l-.061.025Zm-4.512 5.663a.168.168 0 0 1-.007-.16v-.018a.5.5 0 0 1 .031-.035.89.89 0 0 1 .276-.209l.073-.038 3.214-1.277.7-.278 2.255-.892 1.69-.668.506-.199.737-.289c1.265-.497 2.209-.862 2.381-.916.082-.032.17-.064.263-.097.152-.054.32-.106.496-.153a3.128 3.128 0 0 1 2.2.114.687.687 0 0 1 .384.279.113.113 0 0 1 .01.061.2.2 0 0 1 0 .023c0 .007 0 .014-.007.021a.204.204 0 0 1-.033.092 1.62 1.62 0 0 1-.708.387l-2.758 1.092-3.277 1.283c-1.046.41-2.041.794-2.835 1.107l-.805.311c-.439.168-.761.29-.873.329a4.46 4.46 0 0 1-3.452.399 1.04 1.04 0 0 1-.385-.189.3.3 0 0 1-.076-.08M20.884 7.991h-6.503l.02.967a.424.424 0 0 1 .14.313.43.43 0 0 1-.128.305l.009.427.007.367v.181h1.247l.422-.166.356-.141a2.4 2.4 0 0 1 .265-.078 3.78 3.78 0 0 1 .992-.167c.104 0 .19-.024.303-.024s.196.019.3.024a3.74 3.74 0 0 1 1.041.181 2.3 2.3 0 0 1 .22.065 1.68 1.68 0 0 1 .35.187 1.4 1.4 0 0 1 .142.114h.82A1.921 1.921 0 0 1 23 12.258v-2.133a2.124 2.124 0 0 0-2.116-2.134m-4.65 1.701a.426.426 0 1 1 .423-.426.424.424 0 0 1-.427.432Zm2.117 0a.426.426 0 1 1 .422-.426.425.425 0 0 1-.422.432Zm2.114 0a.426.426 0 1 1 .423-.426.424.424 0 0 1-.427.432Zm2.114 3.022a2.02 2.02 0 0 0-2.176-1.588.45.45 0 0 1-.007.143v2.793l1.536-.334a.853.853 0 0 0 .647-1.014m-1.474.164a.422.422 0 0 1-.502-.326.424.424 0 1 1 .502.326m1.471 2.795H18.04l-.304.113-2.12.817a.422.422 0 1 1-.656.347.37.37 0 0 1 .02-.101l-1.624.625a2.095 2.095 0 0 0 1.604.756h7.615a.425.425 0 0 0 .424-.428v-1.703a.425.425 0 0 0-.423-.426m-5.077 1.706a.428.428 0 1 1 .423-.426.424.424 0 0 1-.423.426m2.116 0a.428.428 0 1 1 .423-.426.424.424 0 0 1-.423.426m2.115 0a.428.428 0 1 1 .423-.426.424.424 0 0 1-.423.426M7.464 13.791l.829-.322v-1.173l-4.466-.967a2.026 2.026 0 0 0-2.406 1.566.853.853 0 0 0 .648 1.014l3.269.711.113-.044 1.588-.615a.43.43 0 1 1 .425-.17m-4.061-1.063a.422.422 0 0 1-.502.326.426.426 0 1 1 .502-.326m2.067.453a.423.423 0 1 1-.323-.507.424.424 0 0 1 .318.504Zm-4.046 2.667a.425.425 0 0 0-.424.427v1.701a.425.425 0 0 0 .424.427h2.572V17.29a.43.43 0 0 1 0-.335v-1.112H1.424Zm.846 1.707a.428.428 0 1 1 .423-.426.424.424 0 0 1-.423.426m.846-6.828h5.171v-.584a3.4 3.4 0 0 1-.6.035h-.059a1.68 1.68 0 0 1-.618-.096.7.7 0 0 1-.113-.036.868.868 0 0 1-.576-.515l-.025-.053-.013-.049V8.167H3.116A2.124 2.124 0 0 0 1 10.301v2.133a1.921 1.921 0 0 1 2.116-1.707m2.533-1.706a.426.426 0 1 1-.422.426.425.425 0 0 1 .422-.426m-2.114 0a.426.426 0 1 1-.423.426.424.424 0 0 1 .427-.426Z"/></svg>