<svg xmlns="http://www.w3.org/2000/svg" fill="#44739e" viewBox="0 0 24 24"><path d="M18.5825 14.0516c.459-.2.7-.451.728-.737 0-.014.008-.027.008-.041l.006-2.507a.28.28 0 0 0 0-.065c0-.123-.1-.34-.429-.524a1.2 1.2 0 0 0-.191-.1h-.006a3.135 3.135 0 0 0-1.3-.222 3.14 3.14 0 0 0-1.305.217l-.264.1-1.753.694-.014-.694-.016-.77-.014-.721-.016-.767v-.236l1.218-.483c.389-.158.432-.356.432-.434v-1.5c0-.078-.036-.27-.365-.373a1.7 1.7 0 0 0-.767-.112 2.77 2.77 0 0 0-.766.111l-6.231 2.424a.415.415 0 0 0-.309.376v1.476l.016.033a.6.6 0 0 0 .41.363l.02.009a1.1 1.1 0 0 0 .564.1 2.4 2.4 0 0 0 .644-.053l.111-.035v3.293l-.058.023-2.4.934-.71.276c-.453.19-.614.476-.614.664v2.463a1.006 1.006 0 0 0 .735.734 2.51 2.51 0 0 0 1.068.167 4.17 4.17 0 0 0 1.549-.222l4.6-1.775 3.748-1.444zm-9.03-1.565v-2.929l.028-.011v-.074l.313-.118.691-.265.769-.294 1.506-.578.633-.242v.178l.022-.008.042 2.032.019.962-2.8 1.138-1.167.474v-.107l-.054.022zm-3.979 4.994a.148.148 0 0 1-.006-.141v-.016a.4.4 0 0 1 .027-.031.78.78 0 0 1 .243-.184l.065-.034 2.834-1.126.617-.245 1.989-.787 1.49-.589.446-.175.65-.255c1.116-.438 1.948-.76 2.1-.808.072-.028.15-.056.232-.085.134-.048.282-.094.437-.135a2.758 2.758 0 0 1 1.94.1.606.606 0 0 1 .339.246.1.1 0 0 1 .008.054.14.14 0 0 1 0 .02c0 .007 0 .013-.006.019a.18.18 0 0 1-.029.081 1.43 1.43 0 0 1-.624.341l-2.432.963-2.89 1.132c-.922.361-1.8.7-2.5.976l-.71.274c-.387.148-.671.256-.77.29a3.932 3.932 0 0 1-3.044.352.92.92 0 0 1-.339-.167.26.26 0 0 1-.067-.07m14.354-9.561h-5.734l.017.853a.374.374 0 0 1 .124.276.38.38 0 0 1-.113.269l.008.376.006.324v.16h1.1l.372-.147.314-.124a2.1 2.1 0 0 1 .233-.069 3.33 3.33 0 0 1 .875-.147c.092 0 .168-.021.267-.021s.173.016.265.021a3.3 3.3 0 0 1 .918.159 2 2 0 0 1 .194.058 1.48 1.48 0 0 1 .308.165 1.2 1.2 0 0 1 .126.1h.723a1.694 1.694 0 0 1 1.863 1.51v-1.881a1.873 1.873 0 0 0-1.866-1.882m-4.1 1.5a.376.376 0 1 1 .373-.376.374.374 0 0 1-.377.381zm1.866 0a.376.376 0 1 1 .373-.376.375.375 0 0 1-.373.381zm1.865 0a.376.376 0 1 1 .373-.376.374.374 0 0 1-.377.381zm1.864 2.665a1.781 1.781 0 0 0-1.919-1.4.4.4 0 0 1-.006.126v2.463l1.354-.295a.752.752 0 0 0 .571-.894m-1.3.145a.372.372 0 0 1-.443-.288.374.374 0 1 1 .443.288m1.297 2.464h-4l-.268.1-1.869.72a.372.372 0 1 1-.579.306.33.33 0 0 1 .018-.089l-1.432.551a1.847 1.847 0 0 0 1.414.667h6.715a.375.375 0 0 0 .374-.377v-1.502a.375.375 0 0 0-.373-.376m-4.477 1.505a.377.377 0 1 1 .373-.376.374.374 0 0 1-.373.376m1.866 0a.377.377 0 1 1 .373-.376.374.374 0 0 1-.373.376m1.865 0a.377.377 0 1 1 .373-.376.374.374 0 0 1-.373.376m-12.58-3.164.731-.284v-1.035l-3.938-.852a1.787 1.787 0 0 0-2.122 1.381.752.752 0 0 0 .572.894l2.882.627.1-.039 1.4-.542a.379.379 0 1 1 .375-.15m-3.581-.938a.372.372 0 0 1-.443.288.376.376 0 1 1 .443-.288m1.823.4a.373.373 0 1 1-.285-.447.374.374 0 0 1 .28.444zm-3.568 2.352a.375.375 0 0 0-.374.376v1.5a.375.375 0 0 0 .374.377h2.268v-.982a.378.378 0 0 1 0-.295v-.981h-2.268zm.746 1.505a.377.377 0 1 1 .373-.376.374.374 0 0 1-.373.376m.746-6.021h4.56v-.515a3 3 0 0 1-.529.031h-.052a1.48 1.48 0 0 1-.545-.085.6.6 0 0 1-.1-.032.765.765 0 0 1-.508-.454l-.022-.047-.011-.043v-1.113h-2.793a1.873 1.873 0 0 0-1.866 1.882v1.881a1.694 1.694 0 0 1 1.866-1.505m2.234-1.505a.376.376 0 1 1-.373.376.375.375 0 0 1 .373-.376m-1.865 0a.376.376 0 1 1-.373.376.374.374 0 0 1 .377-.376z"/></svg>