<svg xmlns="http://www.w3.org/2000/svg" viewBox="0 0 24 24"><path fill="#44739e" d="m6.902 16.495.193-.031.99 6.131-.194.031Zm-2.641 6.057.688-6.082.195.022-.688 6.082Zm3.265-2.108-.03-.196H4.73l-.022.196Zm-.983-3.917.427 3.709h.197l-.43-3.732Zm.695 4.336-.046-.407h-.197l.05.429Zm-3.426-.005.724-4.394.193.032-.724 4.394Zm3.009-1.807-1.955-.012-.021.195 1.999.013Zm-2.531.179.335.003.021-.196-.324-.002Zm1.244.02.432.986h.214l-.431-.985Zm-1.049-3.596c-.06.087-.27.459-.194.66h1.98l1.769-.017a.502.502 0 0 0 .1-.458.712.712 0 0 0-.302-.428 1.173 1.173 0 0 0-.695-.22h-.017l-1.721.023a1.155 1.155 0 0 0-.535.137 1.034 1.034 0 0 0-.385.303m-.331.39a1.67 1.67 0 0 1 .213-.472 1.1 1.1 0 0 1 .395-.33 4.7 4.7 0 0 0-.622.055c-.099.024-.22.067-.248.127s0 .11.038.22a4 4 0 0 0 .224.4m8.473.508.194-.031.989 6.13-.194.031ZM9.99 22.597l.685-6.085.195.022-.686 6.085Zm3.262-2.098-.031-.195h-2.765l-.022.195Zm-.288.42-.047-.408h-.197l.05.43Zm-.072-.627-.43-3.732-.194.022.427 3.71Zm-3.354.621.723-4.393.194.032-.724 4.393Zm.478-1.628.334.003.022-.195-.325-.002Zm2.531-.178-1.955-.013-.022.196 1.999.013Zm-1.287.199.432.986h.213l-.431-.985Zm2.301-3.839a1.166 1.166 0 0 0-.694-.22h-.016l-1.72.023a1.166 1.166 0 0 0-.536.136 1.034 1.034 0 0 0-.385.308c-.06.087-.269.458-.193.66h1.98l1.769-.016a.499.499 0 0 0 .1-.456.712.712 0 0 0-.305-.435m-3.468.163a1.1 1.1 0 0 1 .393-.33 5.1 5.1 0 0 0-.621.054c-.098.025-.22.068-.248.129s0 .11.039.22a4 4 0 0 0 .22.402 1.67 1.67 0 0 1 .217-.475m7.418-8.253h2.735v.371h-2.735Zm0-1.961h2.735v.377h-2.735ZM4.52 4.3l-1.081-.143v4.29H4.52Zm-.153 3.875h-.751V4.487l.751.076Zm11.497.269h1.416V4.205h-1.416Zm.23-3.96h.931v3.691h-.931Zm-1.674 3.96h1.377V4.205H14.42Zm.299-3.96h.855v3.691h-.855Zm-7.755 3.96h2.2V4.3h-2.2Zm.313-3.85h1.578v3.581H7.277Zm-2.505 3.85H6.9V4.3H4.772Zm.285-3.85h1.54v3.581h-1.54ZM1.325 1.485h.349v7.203h-.349Zm.413 7.203h.406l.034-6.509-.426-.622Zm.469 0h.915v-4.95l-.881-1.455Zm2.404-4.687L3.234 3.8v4.888h1.377Zm-.026 4.51h-1.21V4.08l1.21.159ZM9.25 4.005H4.675v4.683H9.25Zm-.018 4.503H4.708v-4.27h4.524Zm4.564.17.363-.037V3.938l-.363.233Zm3.611-4.766h-3.15v4.73h3.15Zm-.068 4.596H14.36V4.142h2.979ZM4.3 10.946l.392-.046a.141.141 0 0 0 .101-.067l.191-.33c-.171.031-.346.055-.519.072l-.414.039a3.1 3.1 0 0 1-.315.013h-.259l.207.252a.14.14 0 0 0 .099.051Zm-.394-.447c0-.082-.044-.139-.083-.139s-.083.057-.083.139v.029h.163Zm-.486-.127a.15.15 0 0 0 .22.131.268.268 0 0 1 .065-.183.149.149 0 0 0-.287.057Zm.854.027a.165.165 0 0 0 .026.092l.155-.014.16-.018a.19.19 0 0 0 .011-.06.177.177 0 0 0-.354 0Zm.639.016a.153.153 0 0 0-.152-.136.17.17 0 0 0-.061.013.26.26 0 0 1 .022.11.3.3 0 0 1 0 .047Zm-.753-.055a.098.098 0 0 0-.096.097.094.094 0 0 0 .017.055l.118-.011a.26.26 0 0 1-.021-.102.2.2 0 0 1 0-.037Zm2.71.092v.149a.08.08 0 0 0 0 .027l.059.192a.092.092 0 0 0 .088.065h.33a.092.092 0 0 0 .086-.057l.085-.212a.1.1 0 0 0 .006-.035v-.129a.092.092 0 0 0-.091-.092h-.471a.092.092 0 0 0-.092.092m9.596-.053v.338l.014.034a.037.037 0 0 0 .036.026h.371a.039.039 0 0 0 .037-.026v-.372a.039.039 0 0 0-.039-.039h-.375a.039.039 0 0 0-.044.039m.05-.135h.088v-.368h-.088Zm.261 0h.102v-.423h-.102v.148Zm-.11-.211h.047v.211h-.047Zm-9.992-.127.063.162.144.195a.19.19 0 0 1 .075-.019l.041-.303.148-.204-.05-.067-.012-.044-.129-.052-.162.103.201.045-.11.33Zm.935-.223-.026.41-.08.163a.15.15 0 0 1 .047.025l.086-.181.313-.264-.11-.203Zm-.452.489-.021-.053-.099.125h.074Zm-.39-.341-.045-.103-.045-.011-.079.087Zm.524-.187-.067.091.106.136-.039.05h.024l.219-.348-.28-.148-.141.065.024.091Zm4.494.599h.126v.275h-.126Zm.157-1.103a.81.81 0 0 0-.04-.281.385.385 0 0 0-.082-.163.19.19 0 0 0-.103-.068.173.173 0 0 0-.115.022c-.047.028-.074.08-.092.185a1.7 1.7 0 0 0-.007.358h.064a1.56 1.56 0 0 1 .005-.34c.019-.104.041-.13.062-.142a.11.11 0 0 1 .071-.014.135.135 0 0 1 .067.047.31.31 0 0 1 .069.136.75.75 0 0 1 .037.262 1.1 1.1 0 0 1-.079.33.623.623 0 0 0-.06.32 2.3 2.3 0 0 1 .053.398h.064a2.4 2.4 0 0 0-.055-.412.605.605 0 0 1 .057-.285 1.14 1.14 0 0 0 .084-.353m-.375.726.081.084v-.085l-.081-.079V9.27h-.067v.059l-.02 1.071h-.036v.376h.176l.004-.371h-.057ZM9.633 6.659h3.607v.145H9.633Zm0-.301h3.607v.145H9.633Zm0-.589h3.607v.392H9.633Zm1.798 3.861H9.553V5.631h3.795V9.63h-1.505a.5.5 0 0 0-.02.095h1.62v-4.19H9.457v4.19h1.973Zm-9.649.586.11.609.173-.065v-.598Zm5.832.436-.03.074h3.797v-.39h.038v-.197H7.71l-.024.021-.086.19a.19.19 0 0 1 .03.102v.129a.19.19 0 0 1-.016.071m9.424.074v-.587h-.096v.136a.134.134 0 0 1 .082.124v.33Zm-14.877 0h1.28l-.168-.205h.11a.244.244 0 0 1-.052-.15.248.248 0 0 1 .167-.233H2.161Zm2.486-.514a.25.25 0 0 1 .11-.029.25.25 0 0 1 .246.214l.009.001.155-.031-.208.361h1.845l-.021-.07a.2.2 0 0 1-.009-.056v-.148a.187.187 0 0 1 .055-.133l-.133-.181H4.533a.27.27 0 0 1 .114.072m-.855.056a.14.14 0 0 1 .031 0 .178.178 0 0 1 .158.123.194.194 0 0 1 .179-.123.18.18 0 0 1 .05.006.278.278 0 0 1 .157-.132h-.718a.246.246 0 0 1 .143.126m12.66.007v-.136h-4.575v.061h.094v.402h-.254V10.2h.048v-.061h-.133v.202h.058v.385h4.685v-.33a.134.134 0 0 1 .077-.121M4.713 11.488v-.197l-3.039-.035-.063-.273.196-.086-.113-.63-.07-.262h-.386v1.757l3.092.03h.007V12Zm.137-.364h13.499v.143H4.85Zm8.818 1.48-.023-.022-.14-.082.624.33v-.599h-1.077l-.22-.127h1.291v-.77H9.999v.77h-.127v-.77h-.303v.77h-.128v-.77H6.54v.77H3.98l-.01.006h-.007l.195-.251-2.92-.028h.27v1.376h13.297Zm-4.469-.812h-2.41a.08.08 0 0 1 0-.159h2.41a.08.08 0 1 1 0 .159m7.691-.899h-.372a.135.135 0 0 1-.096-.041l-8.885-.01-.008.021a.186.186 0 0 1-.174.118h-.33a.187.187 0 0 1-.18-.132v-.008H4.903l-.022.038a.232.232 0 0 1-.172.11l-.396.052-.529-.026a.23.23 0 0 1-.168-.085l-.086-.092H2.155l-.461.225.031.131 2.92.033.132-.171h13.53l-.87-.199h-.455a.134.134 0 0 1-.092.036m-6.82.136-.135-.129h3.432l.359.128Zm-8.619 2.295h13.275v.294H1.451Zm4.371.414H1.359v.04h4.272v1.286l.191-.004Zm-.191 5.923h-.777l-.041.366h.985l-.167-.382Zm-1.113 0h-.24l-.06.366h.258Zm1.113-3.206h.191v2.519h-.191Zm-4.272 3.572h2.519l.06-.366H1.359Zm4.91-6.249h6.728v1.328a1.31 1.31 0 0 1 .65.246v-1.614H6.046v1.32h.22Zm5.596 6.249h.729l-.042-.366h-.848Zm-4.464 0-.059-.366H7.17l.043.366Zm2.273-.366H7.681l.059.366h1.873Zm-3.628-3.206h.223v2.523h-.223Zm6.951.721.459 2.851h.194v-3.53l-.653.006Zm-6.728 2.137-.223-.001v.444l.119.271h.71l-.042-.366h-.564Zm5.231.714-.161-.366h-.752l-.042.366Zm1.497-.749v.383h-.108l.043.366h.186Zm-2.748.383h-.237l-.06.366h.256Zm-6.474.987.082-.493H1.359v.493Zm8.146-.493.035.08h.662l-.009-.08Zm-7.806.493h.291l.056-.493h-.265Zm1.739-.493H4.798l-.002.024h1.069Zm.366 0 .011.024h.662l-.002-.024Zm1.007 0 .003.024h.195l-.003-.024Zm-.28.493-.016-.135H4.758l-.015.135ZM1 1v22h22V1Zm21.761 14.588-2.169-.728.042-10.245 2.127-.505Zm0-11.728-2.126.504V3.056l2.121-.688Zm0-1.744-2.259.733-17.8.072.145.238 17.554-.069-.048 11.733h-2.239v.239h2.338l2.31.779v6.921H1.239v-1.98h-.008V14.09h.007v-.31h.121v-.042h-.121v-.12h.213v-.298h-.212v-.12h.27v-1.373h-.271V3.166h.022v-.24h-.022V1.239h21.523ZM9.511 20.648l.081-.494H7.761l.08.494Zm-2.01 0-.022-.135h-.21l.015.135Zm2.349 0h.288l.056-.494h-.263Zm1.706-.494H10.53l-.008.081h1.069Zm1.11.494-.009-.079h-2.174l-.009.079ZM4.88 12.092l.002-.764 1.116.004-.002.763Zm1.244.003.003-.765h.287l-.003.766Zm10.06.009h1.802v-.774h-3.73v.774h1.801Zm-2.406 1.625h.351v1.387h-.351Zm.478-.833.614.324h-.032v.509h-.582v1.387h1.801v-2.885h-1.801Zm3.73 2.22v-2.885h-1.802v2.885h1.451Zm-1.929.128h-2.279v.22a1.05 1.05 0 0 1 .098.116h3.629v-.33h-1.448ZM2.155 8.752h-.239l.006 1.341.091-.018v-.031h.148Z"/></svg>