<svg xmlns="http://www.w3.org/2000/svg" viewBox="0 0 24 24"><path fill="#44739e" d="M11.42 10.455h1.54v-.77h-1.236l-1.031-4.334a.386.386 0 0 0-.375-.297H8.663a.386.386 0 0 0-.375.297L7.255 9.685H6.017v.77ZM8.968 5.823h1.044l.919 3.86H8.048Zm1.68 8.878H8.332a.385.385 0 0 0-.386.385v1.93a.386.386 0 0 0 .386.386h2.316a.385.385 0 0 0 .386-.386v-1.93a.384.384 0 0 0-.386-.385m-.385 1.929H8.718v-1.158h1.54Zm-4.632-1.929h.772v1.929h-.772Zm12.35-2.703h.772v1.93h-.772Zm0-3.472h.772v1.929h-.772Zm4.632-2.703H17.21a.385.385 0 0 0-.385.386v7.334H1.385a.385.385 0 0 0-.385.386v4.631a.385.385 0 0 0 .385.386h21.229A.386.386 0 0 0 23 18.56V6.209a.386.386 0 0 0-.387-.386m-5.789 10.035h-4.632v-1.54h4.632Zm-15.053-1.54h5.018v3.86H1.771Zm5.789 0h3.86v1.54h-.013v.77h.013v1.54H7.56Zm4.632 2.31h4.632v1.54h-4.632Zm10.035 1.54h-4.632v-6.555h4.632Zm-4.632-7.327V6.595h4.632v4.246Z"/></svg>