<svg xmlns="http://www.w3.org/2000/svg" fill="#44739e" viewBox="0 0 24 24"><path d="m11.274 15.054-.547 1.304h1.084zm2.881-.637h-.3v1.6h.3c.635 0 .892-.3.892-.8s-.26-.8-.892-.8m5.858-.931-1-1-.464-.464 1.464-1.464A5 5 0 1 0 13.031 3.4l-.089.09-1.064 1.06V2.022h-9.4v15.05a4.949 4.949 0 0 0 4.948 4.95 5.1 5.1 0 0 0 .567-.032 4.96 4.96 0 0 0 3.8-2.58l.085.085.065.065 1 1a5 5 0 0 0 7.071-7.071zm-13.5 3.792L5.266 16.11v1.168h-.518v-3.294h.518v1.838l1.318-1.84h.571l-1.377 1.929 1.457 1.367zm2.749 0H7.878v-3.294H8.4v2.838h1.06zm2.922 0-.184-.46h-1.479l-.189.46h-.523l1.443-3.362h.03l1.447 3.362zm2.783 0-.562-.8a1.9 1.9 0 0 1-.237.015h-.325v.785h-.518v-3.294h.843a1.231 1.231 0 0 1 1.389 1.047 1.36 1.36 0 0 1 .011.212 1.135 1.135 0 0 1-.659 1.1l.669.935zm3.415 0-.19-.46h-1.473l-.189.46h-.523l1.443-3.362h.028l1.448 3.362zm-.922-2.224-.548 1.304h1.085z"/></svg>