<svg xmlns="http://www.w3.org/2000/svg" viewBox="0 0 24 24"><path fill="#44739e" d="m4.1 22.27.981-.008c.33 0 .55-.116.588-.458l.131-1.047c.045-.361-.131-.459-.457-.457h-.99c-.22 0-.543.025-.596.457l-.131 1.047c-.051.401.188.466.474.466m.343-.66.081-.679a.255.255 0 0 1 .262-.253c.228 0 .204.2.196.253l-.081.679c-.011.097-.034.254-.262.254s-.208-.151-.196-.249Zm-2.445-.362h.007l.491.997h.874l-.638-1.259.86-1.153h-.827l-.702.965h-.008l.114-.965h-.785l-.303 2.42h.793Zm4.76.228h1.251l.09-.719c.046-.367-.158-.458-.474-.458h-.957c-.351 0-.568.101-.612.458l-.131 1.047c-.051.393.175.459.457.458h1.015c.315 0 .526-.104.572-.458l.016-.138H7.19a.244.244 0 0 1-.252.204c-.208 0-.209-.16-.196-.262Zm.065-.55a.254.254 0 0 1 .252-.237c.133 0 .229.069.205.262l-.017.131h-.457ZM1 22.916l10.182-.016.057-.483-10.174.017Zm8.424-.672.793-.007.18-1.481c.048-.381-.154-.466-.433-.466H9.71a.533.533 0 0 0-.401.122.396.396 0 0 0-.131.204h-.007l.033-.302h-.793l-.238 1.929h.793l.155-1.267c.009-.077.037-.294.262-.295s.206.188.196.27Zm1.284-1.929-.238 1.922h.793l.238-1.93Zm11.499-.018-.041.27a.387.387 0 0 0-.433-.286h-.388a.45.45 0 0 0-.434.457l-.131 1.031c-.045.359.143.459.434.458h.246a.585.585 0 0 0 .393-.123.51.51 0 0 0 .147-.213l-.057.515-1.194.009-.057.482 1.417-.006c.235 0 .579-.031.629-.44L23 20.297Zm-.084.623-.081.638c-.007.05-.034.278-.262.278-.187 0-.201-.149-.188-.254l.081-.686a.275.275 0 0 1 .197-.254.33.33 0 0 1 .065 0c.228 0 .197.205.185.278Zm-6.109-.024.016-.148c.043-.345-.13-.458-.433-.457h-1.055a.9.9 0 0 0-.11 0 .46.46 0 0 0-.44.457l-.033.262c-.058.474.228.484.54.491l.66.016-.007.057a.287.287 0 0 1-.295.279.23.23 0 0 1-.148-.041.151.151 0 0 1-.065-.139h-.785l-.016.11c-.055.44.242.467.507.467h.973c.33 0 .55-.127.589-.467l.033-.253c.055-.44-.263-.452-.532-.457l-.671-.009.017-.147a.254.254 0 0 1 .262-.238.21.21 0 0 1 .122.041.174.174 0 0 1 .073.171Zm3.888-.599-.033.279h-.007a.385.385 0 0 0-.426-.295h-.286a.473.473 0 0 0-.55.457l-.124 1.031c-.044.359.136.459.427.458h.261a.578.578 0 0 0 .393-.11c.057-.051.062-.071.139-.22h.004l-.065.523h-1.189l-.048.482h1.412c.235 0 .579-.038.629-.45l.262-2.15Zm-.075.623-.082.646a.271.271 0 0 1-.262.269c-.187 0-.21-.151-.195-.253l.09-.686a.252.252 0 0 1 .253-.254c.227 0 .204.205.196.278m-6.837-.613-.033.279h-.009a.384.384 0 0 0-.425-.295h-.286a.474.474 0 0 0-.55.457l-.124 1.031c-.045.359.143.459.434.458h.254a.578.578 0 0 0 .393-.11c.057-.051.062-.071.138-.22h.009l-.065.523h-1.184l-.057.483H12.9c.235 0 .571-.038.621-.45l.262-2.15Zm-.075.622-.081.645a.27.27 0 0 1-.262.27c-.187 0-.21-.15-.196-.254l.09-.687a.253.253 0 0 1 .253-.253c.228 0 .206.206.196.279m.72 1.97 4.465-.008.057-.483-4.342.009a.896.896 0 0 1-.18.482m4.23-2.617h-.959c-.351 0-.568.11-.613.466l-.131 1.047c-.049.393.176.458.458.458h1.014c.317 0 .529-.103.572-.458l.018-.147h-.794a.253.253 0 0 1-.253.212c-.207 0-.208-.161-.195-.261l.016-.14h1.251l.09-.72c.041-.367-.158-.457-.474-.457m-.345.66-.02.133h-.458l.018-.164a.256.256 0 0 1 .253-.236c.135 0 .231.078.207.269Zm-5.994-.799.033-.319h-.785l-.041.327Zm.491-11.032 3.091.965 1.98-.33c.045-.171.085-.339.124-.503l-2.11-.66Zm0 1.611 3.091.85 1.514-.31q.127-.354.235-.697l-1.749-.481Zm3.091-5.135-3.091.286 3.091 1.202 2.502-.228v-.046c0-.085.01-.166.014-.24Zm-2.383 11.684q.287-.264.55-.538l-1.262.457Zm1.303-1.376a14.2 14.2 0 0 0 .929-1.264l-2.942.941Zm-2.011-3.553 3.091.727.842-.201c.16-.33.304-.66.44-.99l-1.277-.301Zm0 1.611 2.993.598c.285-.44.54-.889.77-1.334l-.67-.131Zm0-6.462 3.091 1.079 2.31-.293q.033-.189.06-.366l-2.369-.829Zm4.693-2.004a21.45 21.45 0 0 0-2.75-1.341l-1.946.11 3.091 1.32Zm-4.695 3.624-3.095-.52-2.13.66c.036.157.074.32.117.485l2.013.342ZM9.03 14.61a14.1 14.1 0 0 0 .955 1.286l2.036-.33Zm2.987-7.119L8.92 7.083l-2.378.833c.017.116.036.237.057.362l2.322.293Zm0 3.231-3.097-.638-1.773.487q.103.33.225.682l1.554.317ZM8.92 13.086l-.706.137a15.2 15.2 0 0 0 .77 1.335l3.025-.604Zm3.095-7.213L8.92 5.587l-2.519.972c0 .088.011.184.02.288l2.499.228Zm-1.273 10.858q.276.278.575.55l.698-.087ZM8.92 5.578l3.091-1.32-1.942-.11c-.426.174-.891.375-1.358.6s-.946.474-1.395.74Zm3.095 6.763-3.095-.76-1.308.31q.194.481.427.969l.885.209Zm-.16 5.921.163.119.165-.121a15.14 15.14 0 0 0 5.249-8.14 26.2 26.2 0 0 0 .77-5.114v-.138l-.104-.085a20.3 20.3 0 0 0-5.995-3.672l-.083-.027-.083.027A21.48 21.48 0 0 0 5.95 4.78l-.11.084v.139a23.83 23.83 0 0 0 .77 5.114 14.604 14.604 0 0 0 5.245 8.145M11.45 1.715a.78.78 0 0 1 .45.123l-.01-.31h.255v.303a.79.79 0 0 1 .426-.111.85.85 0 0 1 .286.058l-.017.212a.53.53 0 0 0-.278-.065.42.42 0 0 0-.426.458.422.422 0 0 0 .434.457.69.69 0 0 0 .278-.049l.008.212a1.24 1.24 0 0 1-.286.041.84.84 0 0 1-.426-.11v.267h-.254l.009-.278a.843.843 0 0 1-.45.11 1.32 1.32 0 0 1-.286-.041l.008-.212a.69.69 0 0 0 .278.049.458.458 0 0 0 .008-.915.53.53 0 0 0-.279.065l-.013-.208a.81.81 0 0 1 .285-.056M6.595 8.277c-.021-.123-.034-.245-.051-.36-.06-.413-.098-.77-.121-1.069-.008-.104-.011-.201-.017-.286-.016-.204-.016-.36-.016-.46a14.3 14.3 0 0 1 2.325-1.355c.467-.22.929-.426 1.354-.601.943-.386 1.707-.641 1.951-.721a22.85 22.85 0 0 1 5.627 2.676c0 .137-.011.377-.038.699v.045c-.026.295-.068.66-.133 1.066h.01c-.017.11-.037.237-.058.36h-.013c-.054.301-.12.625-.199.965l.024.007c-.035.159-.079.325-.122.491h-.026c-.071.265-.149.539-.237.819l.036.01c-.07.22-.149.449-.229.679l-.041.009q-.11.307-.237.62l.038.009q-.197.49-.425.965l-.048.012c-.056.115-.11.232-.173.349l.041.007a14.5 14.5 0 0 1-.777 1.333l-.031-.006-.053.08.051-.016a13.6 13.6 0 0 1-.957 1.283h-.023q-.351.428-.75.839l.022-.008c-.186.188-.376.371-.572.55q-.33.307-.701.599-.369-.288-.707-.591h-.021c-.201-.183-.386-.371-.572-.557h.018c-.271-.272-.524-.55-.761-.835h-.009a13.5 13.5 0 0 1-.957-1.291h.011l-.035-.053h-.009a14.4 14.4 0 0 1-.777-1.334h.013c-.061-.121-.122-.242-.179-.363h-.015q-.22-.475-.417-.965c-.086-.22-.165-.427-.24-.636H7.36a15.4 15.4 0 0 1-.22-.679c-.088-.287-.167-.567-.235-.839h-.001c-.042-.165-.078-.33-.11-.483a17 17 0 0 1-.192-.971Z"/></svg>