<svg xmlns="http://www.w3.org/2000/svg" fill="#44739e" viewBox="0 0 24 24"><path d="M8.066 10.566h-.009l-.1-.021-.1-.014-.136-.007a1.9 1.9 0 0 1-.02.226 2 2 0 0 1-.132.468 2.1 2.1 0 0 1-.125.27.7.7 0 0 0-.113-.159c.029-.06.056-.122.08-.186a1.96 1.96 0 0 0 .118-.432 1.34 1.34 0 0 0 .009-.4 1.83 1.83 0 0 0-.238-.645 2.9 2.9 0 0 0-.149-.232c-.034-.048-.074-.1-.113-.153a3.03 3.03 0 0 0-.407-.433s-.074-.065-.205-.161a6.1 6.1 0 0 0-.861-.534c-.136-.065-.271-.127-.4-.175a3.1 3.1 0 0 0-.332-.1 1.523 1.523 0 0 0-1.216.132 1.36 1.36 0 0 0-.293.253 1.76 1.76 0 0 0-.3.5 1.5 1.5 0 0 0-.053.148c-.022.07-.044.14-.061.21a4.25 4.25 0 0 0-.088.538c-.008.1-.016.2-.016.3v.275a1.5 1.5 0 0 0 .011.176.55.55 0 0 0 .008.091v.031a1.33 1.33 0 0 0 .018.236 1.92 1.92 0 0 0 .169.553c.109-.055.221-.107.333-.151a3.82 3.82 0 0 1 1.4-.275 3.7 3.7 0 0 1 .726.069 4.8 4.8 0 0 1 .5.132c.091.031.178.064.262.1v.192c-.1-.043-.2-.084-.315-.121H5.9v-.123l-.031-.009a1.38 1.38 0 0 0-.4-.053 1.12 1.12 0 0 0-.244.027 3.4 3.4 0 0 0-.486-.035 3.53 3.53 0 0 0-1.338.263c-.113.048-.231.1-.345.157L3 11.515a2.33 2.33 0 0 0-.577.38.98.98 0 0 0-.161.206 1.16 1.16 0 0 0-.175.455 1.03 1.03 0 0 0 .113.6 1.4 1.4 0 0 0 .132.205c.039.053.087.1.131.158s.078.091.119.14a1.62 1.62 0 0 0 .261.262 2.3 2.3 0 0 0 .31.232l.022.017c.088.057.394.245.485.293a3.89 3.89 0 0 0 1.128.372c.2.03.411.061.63.083a4.3 4.3 0 0 0 .521.017 1.438 1.438 0 0 0 1.013-.358.85.85 0 0 0 .127-.172c.056.012.113.026.169.04a.99.99 0 0 1-.173.247 1.38 1.38 0 0 1-.853.391c.029.036.059.072.092.107a2.05 2.05 0 0 0 .905.625.93.93 0 0 0 .267.04.68.68 0 0 0 .249-.044.58.58 0 0 0 .162-.087.82.82 0 0 0 .17-.162 1.16 1.16 0 0 0 .14-.214 5.1 5.1 0 0 0 .324-.879c.017-.066.035-.127.052-.175a.23.23 0 0 1 .018-.052c.026-.083.069-.206.118-.341.105-.293.272-.744.384-1.032.027-.066.053-.131.075-.179a2.19 2.19 0 0 0 .2-.879 1.085 1.085 0 0 0-.249-.694 1.88 1.88 0 0 0-1.063-.551m-.55 2.261v.311c-.057.055-.12.115-.19.18a2.93 2.93 0 0 0 .019-.478 1.5 1.5 0 0 0-.014-.187 2.6 2.6 0 0 0 .122-.281 1.95 1.95 0 0 1 .063.455m-.853-1.671a.719.719 0 0 1 .784.648v.065a2.73 2.73 0 0 1-.608 1.436 7.3 7.3 0 0 0-.513-.043c.433-.813.516-1.067.513-1.259s-.08-.407-.465-.407h-.056v-.4a1.43 1.43 0 0 1 .345-.04m.814 2.288-.01.069c-.013.1-.029.2-.047.307l-.171-.042c.018-.1.033-.193.048-.283 0-.03.007-.06.013-.09h.016zm-1.4-2.655-.433-.433.433-.433.432.433zm-.656.364h.065a1.4 1.4 0 0 1 .341.039v.4h-.06c-.385 0-.464.219-.464.407a3.12 3.12 0 0 0 .516 1.259c-.165.008-.337.022-.512.043a2.725 2.725 0 0 1-.607-1.432.72.72 0 0 1 .721-.716M3.546 12.52a.5.5 0 0 1 .153-.359.777.777 0 0 1 .538-.192 2.5 2.5 0 0 0 .062.336.264.264 0 0 0-.236.258c0 .179.1.332.643.848a4.2 4.2 0 0 0-.437.123c-.609-.52-.723-.761-.723-1.014M7.4 14.393a4.93 4.93 0 0 0-2.693 0l-.136-.451a5.56 5.56 0 0 1 1.478-.209 5.3 5.3 0 0 1 1.487.209zm.46-.919a8.5 8.5 0 0 0-.434-.121c.552-.521.647-.674.638-.848 0-.079-.03-.21-.236-.258a2.1 2.1 0 0 0 .066-.332.773.773 0 0 1 .538.192.482.482 0 0 1 .153.358c-.004.254-.119.494-.726 1.009zm3.258-2.672v4.215h.961v-4.215Zm3.104 1.181h-1.098l-1.045 1.377 1.102 1.657h1.137l-1.194-1.692zm2.151-.109a3.94 3.94 0 0 0-1.439.275V16.2h.966v-1.157a2.8 2.8 0 0 0 .546.048 1.465 1.465 0 0 0 1.615-1.3 1.45 1.45 0 0 0 0-.322c-.005-1.023-.552-1.595-1.688-1.595m-.049 2.5a1.51 1.51 0 0 1-.432-.066v-1.603a1.1 1.1 0 0 1 .473-.092c.418 0 .7.262.7.866-.002.58-.22.9-.741.9zm4.036-2.5a3.94 3.94 0 0 0-1.478.275v2.868h.962v-2.3a1.28 1.28 0 0 1 .495-.1c.519 0 .619.319.619.9v1.495h.962v-1.64c-.003-.908-.305-1.498-1.56-1.498"/></svg>