<svg xmlns="http://www.w3.org/2000/svg" viewBox="0 0 24 24"><path fill="#44739e" d="M11.796 9.037a3.196 3.196 0 0 0-2.947 1.618 8.25 8.25 0 0 0-.681 2.89 1.44 1.44 0 0 0 .199.879 7.22 7.22 0 0 0 3.531.53 11.92 11.92 0 0 0 3.928-.718 10 10 0 0 0-.996-3.518 3.313 3.313 0 0 0-3.034-1.681M21.287 7.6l-.11-.246-.142-.228a11.2 11.2 0 0 0-3.915-3.881 10.554 10.554 0 0 0-5.326-1.366 10.473 10.473 0 0 0-5.327 1.374A11.04 11.04 0 0 0 2.586 7.16l-.154.248-.11.271a15.59 15.59 0 0 0-1.319 5.866 8.347 8.347 0 0 0 1.914 5.531c2.118 2.518 5.812 3.046 8.538 3.046h.129a21.66 21.66 0 0 0 4.3-.458 13.22 13.22 0 0 0 3.869-1.393 6.573 6.573 0 0 0 3.238-6.01A17.05 17.05 0 0 0 21.287 7.6m-1.656 12.461a12.97 12.97 0 0 1-3.797 1.365 21.44 21.44 0 0 1-4.252.454h-.127c-2.706 0-6.302-.522-8.356-2.96a8.108 8.108 0 0 1-1.858-5.375 15.35 15.35 0 0 1 1.301-5.773l.11-.256.143-.234A10.785 10.785 0 0 1 6.59 3.457a10.24 10.24 0 0 1 5.206-1.342 10.324 10.324 0 0 1 5.207 1.335 10.98 10.98 0 0 1 3.829 3.798l.133.213.1.23a16.82 16.82 0 0 1 1.684 6.57 6.339 6.339 0 0 1-3.118 5.8m1.212-12.273-.094-.213-.123-.198a10.72 10.72 0 0 0-3.744-3.716 10.07 10.07 0 0 0-5.086-1.304 10.005 10.005 0 0 0-5.084 1.309A10.554 10.554 0 0 0 3 7.404l-.133.22-.095.237a15.1 15.1 0 0 0-1.285 5.681 7.87 7.87 0 0 0 1.801 5.219c2.03 2.419 5.657 2.89 8.293 2.874a21.18 21.18 0 0 0 4.202-.447 12.74 12.74 0 0 0 3.727-1.338 6.107 6.107 0 0 0 2.996-5.591 16.6 16.6 0 0 0-1.663-6.471m-2.949 9.28c-2.788 1.618-10.052 2.111-12.143-.376q-2.089-2.487 0-7.614a6.707 6.707 0 0 1 6.047-3.502 6.826 6.826 0 0 1 6.098 3.502q2.786 6.372-.002 7.99"/></svg>