<svg xmlns="http://www.w3.org/2000/svg" fill="#44739e" viewBox="0 0 24 24"><path d="M13.093 4.567a.655.655 0 0 0 .043-.5.53.53 0 0 0-.085-.185.87.87 0 0 1 .092.4.73.73 0 0 1-.05.285m-.251.24.118.342.034.088c.1.242.173.447.173.456 0 .005-.007.01-.017.012h-.307l-.006-.016h-.025l.014.04h.357l-.157-.458-.157-.459.081-.077a.3.3 0 0 1-.059.024Zm-.542.875h-.237V5.7h.264v-.027H12.3Zm.3-.646c-.062-.141-.106-.186-.17-.195a.1.1 0 0 0-.086.012.07.07 0 0 0-.018.023v.152c.006-.169.027-.175.1-.164s.132.1.25.441l.053.154c-.027-.087-.062-.2-.1-.314zm-.537.664v-.021h-.015v-.013h-.024a.24.24 0 0 0 0 .033.16.16 0 0 0 .039.001m.615-.47a1.5 1.5 0 0 0 .055.208.9.9 0 0 0 .093.22L12.7 5.3Zm-.625-.438v-.1l.014-.978h.344a1.7 1.7 0 0 1 .35.029c.026 0 .037-.009.026-.016a1.1 1.1 0 0 0-.129-.022 2.6 2.6 0 0 0-.268-.012h-.343v.151l.01.858zm-4.86 1.33a1.1 1.1 0 0 1-.152.038c-.069.013-.1.017-.115 0a.04.04 0 0 1-.017 0v-.014A.46.46 0 0 1 6.86 6c-.006-.032-.01-.062-.013-.09a5 5 0 0 0-.051-.216l-.2.039a.5.5 0 0 0-.19.057l-.006.039c.033-.042.092-.052.21-.075l.173-.033.057.246c.057.24.061.244.209.216a.78.78 0 0 0 .17-.046.1.1 0 0 0 0-.04l-.028.003Zm-.935.24a1.3 1.3 0 0 1-.172.047h-.023l-.042.017c-.04.021-.04.021-.075.006l-.007.028.152-.033a1.05 1.05 0 0 0 .181-.051c.006 0 .012-.019.02-.043l-.028.01Zm.486-2.076c.033.109.086.293.145.5l.078.27c-.093-.365-.182-.7-.212-.773Zm.009-.011v-.009l-.016-.006v.015ZM6.9 6.147c0 .007.009.01.012.006a.7.7 0 0 1-.058-.19L6.847 5.9v.018c.025.104.047.196.053.229m-.258-1.874a.247.247 0 0 0-.173.059c-.048.061-.492 1.928-.486 2.043l.045-.192c.082-.356.164-.718.244-1.074.175-.777.177-.778.308-.814a.48.48 0 0 1 .12-.015.08.08 0 0 1 .027 0v.007h.01v-.011Zm-3.225.979c0 .108-.008.227-.009.355l.006.009c-.005-.132-.003-.254.003-.364m-.012.014a.14.14 0 0 0-.008.049v.246a.17.17 0 0 0 .006.044v-.061c-.003-.114-.003-.204.002-.278m3.273.134a.47.47 0 0 0 0-.2l-.006-.051v-.013L6.6 4.854h-.006l-.009.037.06.246a.58.58 0 0 1 .033.263m-.13-.326c-.016.079-.034.167-.048.242.014-.064.032-.149.045-.225Zm-.074.375-.006.038.008.008h.007l.036-.01a.047.047 0 0 1-.045-.036m.191-.026a.09.09 0 0 1-.023.02l-.036.021h.014a.13.13 0 0 0 .045-.041m-.073.051a.6.6 0 0 0-.067.036.256.256 0 0 0 .128-.047.14.14 0 0 0 .023-.019l-.056.016Zm8.432.411.167.02v-.452c0-.5-.016-.482.346-.421l.067.011v-.012L15.41 5l-.145-.021a.115.115 0 0 0-.043.021c-.055.047-.055.147-.055.389v.502s-.092-.007-.2-.021l-.112-.014zm.153-1.312a.2.2 0 0 0 .031.083l.008.011.044.007c-.074-.046-.07-.141-.07-.4a2.1 2.1 0 0 0-.016-.318v.307c0 .124.001.237.003.31m-.258-.709.039.01a1.04 1.04 0 0 0 .15.03l-.061-.019a.46.46 0 0 0-.128-.021m-.052 1.006.011.981V3.945c-.01.155-.015.512-.011.925m.509-.137.1.016.239.034a.11.11 0 0 0 .021-.029v-.736a1.25 1.25 0 0 0-.023.351v.389l-.248-.019Zm.579-.672a.13.13 0 0 0 .024 0V4.05a.2.2 0 0 0-.024-.019Zm-.21 1.753c0-.067-.006-.162-.006-.3v-.247c0 .035-.006.129-.006.269 0 .207.005.314.012.278M15.749 4l.194.022a.37.37 0 0 0-.081-.033h-.015l-.063-.008a.05.05 0 0 0-.035.019m-.608-.078h.024l-.029-.009ZM11.357 7.2a.8.8 0 0 1-.294-.11.212.212 0 0 1-.084-.1.3.3 0 0 1-.035-.041.229.229 0 0 0 .107.161 1.8 1.8 0 0 0 .872.179 8 8 0 0 1-.32-.04 2 2 0 0 1-.246-.049m1.043 7.7c0-.053 0-.068-.025-.091.013.029.025.059.025.091m-.108-.369a2 2 0 0 0-.058-.112c-.016-.029-.068-.07-.1-.107a.07.07 0 0 0-.045.03.8.8 0 0 0-.1.467.348.348 0 0 1-.059.259 1.23 1.23 0 0 0-.126.312.492.492 0 0 1-.488.293c-.028 0-.091 0-.1-.015s0-.018 0-.031h-.022c-.012.063.015.076.127.076a.511.511 0 0 0 .511-.312 1.2 1.2 0 0 1 .123-.3.37.37 0 0 0 .062-.277c-.032-.131.055-.468.122-.468.032 0 .119.159.187.323v-.047c0-.013-.021-.064-.034-.091m-1.202 1.008c-.015.025-.033.04-.046.036s-.018-.015-.024-.037l-.02.013c.02.061.07.068.111 0 .021-.034.042-.049.059-.049v-.023c-.019-.001-.049.009-.08.06m1.544-8.68a1.51 1.51 0 0 1-.7-.11l-.051-.017c-.358-.128-.533-.129-.643 0l-.03.036a.074.074 0 0 0 0 .036.5.5 0 0 1 .045-.056c.1-.116.269-.113.617.011A1.983 1.983 0 0 0 13 6.834l.039-.012c-.064.011-.144.021-.235.028a1.5 1.5 0 0 1-.17.009m2.14 1.541-.009.022c-.068.167-.065.2.05.367a1.44 1.44 0 0 1 .166.365 1.28 1.28 0 0 0 .2.384 1.48 1.48 0 0 1 .275.774 2 2 0 0 1-.075.4.973.973 0 0 0 .005.648 2.1 2.1 0 0 1 .054.561.43.43 0 0 0 0 .18l.046.042c-.04-.061-.036-.113-.022-.219a2.1 2.1 0 0 0-.055-.569.956.956 0 0 1-.005-.636 1.96 1.96 0 0 0 .076-.409 1.524 1.524 0 0 0-.28-.789 1.24 1.24 0 0 1-.2-.373 1.54 1.54 0 0 0-.169-.372c-.111-.166-.114-.186-.048-.345a1.07 1.07 0 0 0 .055-.24 1 1 0 0 1-.064.209m1.817 4.326-.1.123c-.213.257-.565.3-1.017.115a1.1 1.1 0 0 0-.137-.046c-.06-.016-.078-.012-.089 0s-.016.026.015.115c.019.055.047.123.079.193a.59.59 0 0 1 .066.5 2.16 2.16 0 0 0-.009.9.84.84 0 0 1 .026.281.8.8 0 0 0 .055.315c.043.122.058.174.046.22l.01-.007-.018.035a.16.16 0 0 1-.024.035l-.023.032c-.08.109-.135.135-.15.13s-.006-.006-.008-.014l-.021.01c.018.063.1.018.2-.112.082-.112.083-.133.012-.337a.77.77 0 0 1-.054-.3.88.88 0 0 0-.026-.292 2.15 2.15 0 0 1 .009-.889.613.613 0 0 0-.068-.511.93.93 0 0 1-.1-.282.45.45 0 0 1 .2.052c.463.185.824.143 1.044-.122l.13-.157h-.036l-.016.022zm-4.957 1.644v-.008c0-.071-.039-.089-.061-.093-.1-.02-.3.151-.4.338v.068c.111-.268.426-.5.44-.326l.016.013zm1.881-7.726c.115.009.146 0 .148-.023a.08.08 0 0 1-.02.01.46.46 0 0 1-.128.013m.849 7.046a1.181 1.181 0 0 0-.578.912.74.74 0 0 1-.141.432c-.106.133-.113.141-.563.167s-.458.016-.536-.071l-.019-.024a.3.3 0 0 1-.039-.016.4.4 0 0 0 .041.056c.087.1.125.1.554.079s.465-.032.58-.177a.763.763 0 0 0 .147-.443 1.15 1.15 0 0 1 .567-.9l.276-.2-.019-.015zm.478.11c-.04-.086-.076-.159-.1-.2l-.018-.028a.28.28 0 0 0-.049-.048l-.018-.014.065.1a3.5 3.5 0 0 1 .181.389c.022.055.04.1.054.14a1.65 1.65 0 0 0-.1-.311zm.083 1.059v.011a.24.24 0 0 1 .006.071.16.16 0 0 0 .013-.035.14.14 0 0 0-.019-.047M9.02 16.142a.42.42 0 0 1-.058.157.6.6 0 0 0-.078.144c0 .032-.005.061-.009.088a.82.82 0 0 1 .105-.217.46.46 0 0 0 .065-.177h-.016Zm6.202-.611a.124.124 0 0 0-.084.084c-.012.032-.027.05-.047.053s-.05 0-.108-.049a.6.6 0 0 1-.1-.077.43.43 0 0 1-.087-.107l-.006.017.112.122c.129.139.217.156.257.05a.106.106 0 0 1 .065-.07v-.008zm-7.035 1.122a.04.04 0 0 0-.019 0c-.033 0-.076.038-.128.114-.029.042-.051.064-.065.065s-.011 0-.027-.016a.07.07 0 0 1-.017-.034.1.1 0 0 1-.022-.033v-.01a.123.123 0 0 0 .027.094c.04.041.073.027.128-.053s.111-.122.127-.092l.009-.028ZM10.2 10.09l-.007.045a1.74 1.74 0 0 1-.094.412 1.2 1.2 0 0 0 .053-.114.79.79 0 0 0 .048-.343m4.174-2.807a2.43 2.43 0 0 1 .319.253.84.84 0 0 0-.319-.253m-5.703 9.598-.027.011a.92.92 0 0 1-.443.067c-.015-.007-.02-.027-.019-.053h-.023c0 .042.008.067.032.078a.94.94 0 0 0 .485-.077.236.236 0 0 0 .1-.091.34.34 0 0 1-.1.069zm.69-4.372v-.159a2 2 0 0 1-.054.3l.006-.016zm1.512 2.497a1.44 1.44 0 0 0-.374.519c-.029.063-.059.125-.086.182a.24.24 0 0 1-.021.045c-.042.087-.075.154-.088.176a.9.9 0 0 0-.069.16.538.538 0 0 1-.392.249.35.35 0 0 1-.114.014.13.13 0 0 1 .006-.05h-.023c-.02.089 0 .089.136.061a.555.555 0 0 0 .409-.265.93.93 0 0 1 .067-.155c.023-.04.112-.223.2-.406a1.415 1.415 0 0 1 .368-.51 1.3 1.3 0 0 0 .129-.126l-.069.039a1 1 0 0 1-.079.067m-1.816-.974a1.63 1.63 0 0 1-.04.345l.034-.069zm4.086-7.453-.2-.028c-.172-.023-.217-.006-.237.011l-.011.013.021.011c.016-.026.09-.03.224-.012.158.022.282.038.381.05h-.016a1.4 1.4 0 0 0-.162-.045m-4.354 8.47L8.794 15a1.7 1.7 0 0 0-.02.137 1.3 1.3 0 0 1-.047.265.15.15 0 0 0 .038-.08q.013-.138.024-.273m.811 1.129c-.017.017-.031.023-.043.018a.068.068 0 0 1-.031-.035l-.021.011c.028.054.068.067.111.023a.168.168 0 0 1 .087-.058l.011-.023c-.031-.006-.069.015-.114.064m.629-2.739a.075.075 0 0 0-.036.028l-.043.049c-.026.038-.061.1-.11.181-.092.164-.221.406-.371.7a2.8 2.8 0 0 0-.146.4 1.1 1.1 0 0 1-.034.15.84.84 0 0 1-.086.15 1.5 1.5 0 0 1-.144.232.72.72 0 0 0-.194.41v.231-.068a.757.757 0 0 1 .2-.558 1.74 1.74 0 0 0 .261-.513 2.8 2.8 0 0 1 .152-.424 5.3 5.3 0 0 1 .538-.948c.058 0 .11.07.145.181a.2.2 0 0 0-.022-.071c-.015-.054-.086-.13-.11-.13m.277.866a.1.1 0 0 1-.043-.064.07.07 0 0 1-.025-.006.13.13 0 0 0 .058.09l.029.019.009-.022zm-.064-.326a1.06 1.06 0 0 0-.068-.4c0 .013.007.026.011.039a.41.41 0 0 1 .022.187 1.4 1.4 0 0 1 .011.176 1.7 1.7 0 0 0 .007.177.16.16 0 0 0 .029.047 1.4 1.4 0 0 1-.012-.226m3.714-6.57a2.9 2.9 0 0 0-.751-.082h-.755.158c1.11.035 1.243.048 1.436.143.026.014.051.027.074.041a.5.5 0 0 0-.062-.05.65.65 0 0 0-.1-.052m-3.017-.82c-.092.082-.131.13-.139.184a.66.66 0 0 1 .122-.168zm1.713.117h.013a.2.2 0 0 0-.046-.017.15.15 0 0 0-.037 0l.041.012zm-.888-.443a2.6 2.6 0 0 1 .344-.013l.063-.02h-.047l-.212.019c-.051.002-.1.008-.148.014M16.7 5.14v.487c0 .314-.007.53-.01.533a6.7 6.7 0 0 0 .036-.986c0-.358-.007-.677-.017-.858zm-.2.991-.117-.023zm.018-1.999.082.022.047-.009-.022-.007h-.086zm-.123.978.01.985.002-.107V4.127l-.023-.002Zm1.005.622.011-.5-.022-.052-.012.546a3.2 3.2 0 0 1-.03.527.4.4 0 0 1 0 .042c.036-.015.039-.133.053-.563m.2-.82a4.5 4.5 0 0 0 .227.539V5.4c-.043-.084-.108-.249-.205-.5a1.69 1.69 0 0 0-.291-.575c.009.019.021.044.035.076a2.68 2.68 0 0 1 .234.511m.439 1.618a.14.14 0 0 0 .078.024l-.063-.02Zm-.106-1.513v-.512l.158.043-.014-.007-.113-.052-.03-.008-.024.585v.024c0 .141 0 .244-.008.306v.086c.028-.03.031-.137.031-.465M17.9 6.3l.005-.012c-.022-.045-.045-.1-.07-.153-.014-.013-.019 0-.011.034l.061.131zm.251-1.707h.023v-.006l-.024-.012ZM3.41 5.876a.34.34 0 0 1 0-.051V5.78h-.008v.183h.011V5.94a.3.3 0 0 1-.003-.064m-.023 0v.01c0 .043 0 .068.017.08v-.179c-.013.013-.017.04-.017.089m9.176.801h-.021l.138.05h.007-.006a.235.235 0 0 0-.118-.05m.003.093h.076a.2.2 0 0 1 .018-.023h-.094a.54.54 0 0 1-.238-.042l-.028-.022c0 .019.026.038.065.056l.039.015a.8.8 0 0 0 .152.016Zm-.221-.145a.55.55 0 0 1 .085.015.1.1 0 0 0-.085-.015m.342.094.021.015.025.009h-.015c.009.01.007.017 0 .023h.116l.013-.007-.139-.05ZM8.5 4.852a.23.23 0 0 0-.013.033l.013.5c0 .152.007.262.013.341V5.35c-.004-.279-.008-.505-.013-.498m.252 1a.57.57 0 0 0-.174.031.023.023 0 0 1-.013 0 .05.05 0 0 1-.012-.023H8.53c.013.044.03.05.056.04a.54.54 0 0 1 .166-.029c.029 0 .049 0 .062-.049h-.026a.032.032 0 0 1-.036.03m-.59.07-.023.085-.039-.119a2.06 2.06 0 0 1-.108-.311l-.019-.067c-.035-.1-.063-.186-.086-.25l-.042-.117c-.029-.073-.045-.1-.067-.1v.023a1.78 1.78 0 0 1 .178.463l.186.555.133-.484c-.075.251-.095.309-.113.322m-.462.102a.51.51 0 0 1-.146.023.032.032 0 0 1-.031-.012h-.025a.051.051 0 0 0 .056.03.54.54 0 0 0 .155-.024c.017-.007.029-.024.038-.055L7.718 6a.043.043 0 0 1-.018.024m-.2-.07v-.027c-.012-.127-.013-.368-.013-.849v-.939c-.014.142-.024.512-.024.943 0 .363.006.677.013.846a.4.4 0 0 0 .02.105c-.002-.018.004-.045.004-.079m.761-1.133c.041-.132.1-.328.153-.5.118-.393.124-.4.256-.421a.06.06 0 0 1 .03-.011h-.097c-.059.016-.089.053-.133.175l-.1.344c-.043.152-.082.302-.109.413m-.649-.747a.4.4 0 0 1 .133-.008c0-.013-.011-.022-.029-.026a.5.5 0 0 0-.073 0 .9.9 0 0 1-.14.03s0 .011-.007.025zm1.119-.184a.15.15 0 0 0-.036 0h.028Zm-3.705.875c.015 0 .028-.01.041-.013h.01l-.045.015Zm-.144.051.101-.036Zm.448 1.871.113-.042a2.7 2.7 0 0 0 .29-.118l-.081.031c-.104.042-.218.085-.322.129m-.396.113a.59.59 0 0 1-.023-.181c-.006-.142-.007-.365-.007-.781v-1l.134-.048.12-.04a.152.152 0 0 0-.093.008h-.011l-.174.081V5.9a2.93 2.93 0 0 0 .054.9m.6-.465c.129-.045.232-.079.272-.091v.013c.031-.031.006-.036-.072-.012l-.032.01-.081.027a2.05 2.05 0 0 0-.28.121Zm3.977-1.992v-.266h.158c.153 0 .236.048.262.157v-.036a.34.34 0 0 0-.056-.1.36.36 0 0 0-.2-.047h-.187v.511h.023Zm.175.232H9.7l.018-.006Zm.278-.251a.292.292 0 0 0-.049-.182.4.4 0 0 1 .012.056.276.276 0 0 1-.092.352.255.255 0 0 1-.14.025l-.088.025-.119.034.183-.034c.219-.04.293-.11.293-.276M11.4 5.661a.74.74 0 0 1-.128.041.756.756 0 0 1-.335 0 .3.3 0 0 1-.048-.014l-.019-.006a.03.03 0 0 1-.019-.007.7.7 0 0 1-.062-.027.348.348 0 0 0 .291.086.72.72 0 0 0 .32-.073m.33-.79a2.9 2.9 0 0 0 0-.361zm-.879.8.019.007a.375.375 0 0 1-.116-.1 1.38 1.38 0 0 1-.213-.753A1.66 1.66 0 0 1 10.68 4a.8.8 0 0 1 .046-.07h-.012c-.013 0 .014-.042.06-.1a1.3 1.3 0 0 0-.255.773 1.97 1.97 0 0 0 .126.82.6.6 0 0 0 .086.13.8.8 0 0 0 .12.118m.305-2.008a.32.32 0 0 1 .1.018.369.369 0 0 0-.371.059.116.116 0 0 1-.026.046.51.51 0 0 1 .297-.123m-.382.173.013-.013a.8.8 0 0 1 .1-.083.73.73 0 0 0-.1.08l-.015.016zm1.975.636a.53.53 0 0 1-.131.057h.031a.55.55 0 0 0 .084-.04zm-.422-.505.2.027a.423.423 0 0 1 .271.129l-.019-.03-.024-.037a.51.51 0 0 0-.223-.08l-.117-.016-.095.006v.535l.007.026h.026a1.03 1.03 0 0 1-.03-.292zm.473.151.008.013a.214.214 0 0 1 .047.124.219.219 0 0 1-.119.234l-.041.037a.3.3 0 0 0 .122-.082.275.275 0 0 0 .045-.275.27.27 0 0 0-.077-.1.34.34 0 0 1 .015.049m-.3.448-.079.014h.058a.7.7 0 0 0 .207-.05h-.039a.8.8 0 0 1-.147.036m-1.224.793c.008-.011.017-.023.025-.036v-.006a.35.35 0 0 1-.037.046zm-.32-.052a1.19 1.19 0 0 1-.1-.571c-.012-.377 0-.464.085-.6.124-.2.279-.2.382.016a2.21 2.21 0 0 1 .015 1.1 1.13 1.13 0 0 0 .064-.282v-.2c0-.13 0-.257-.007-.352a.784.784 0 0 0-.116-.347.5.5 0 0 0-.045-.051.28.28 0 0 0-.083-.035.44.44 0 0 0-.112.032l-.045.017a.46.46 0 0 0-.072.092.555.555 0 0 0-.089.292v.352a1.12 1.12 0 0 0 .1.549.5.5 0 0 0 .036.048.22.22 0 0 0 .044.02l.014.005a.35.35 0 0 1-.071-.085m.444-.341v.092a2.73 2.73 0 0 0-.013-.773v.129a2.17 2.17 0 0 1 .013.552m-.32-.992a.25.25 0 0 1 .071.007.1.1 0 0 1 .083.035.36.36 0 0 1 .056.043.24.24 0 0 1 .026.029.225.225 0 0 0-.174-.124.19.19 0 0 0-.062.01m.196 1.385a.156.156 0 0 1-.129.073.13.13 0 0 1-.034 0h-.028a.4.4 0 0 0-.052 0 .176.176 0 0 0 .1.033.248.248 0 0 0 .2-.137l.007-.013a.3.3 0 0 1-.064.044m-1.307-.078v-.039a.42.42 0 0 1-.037.1.232.232 0 0 1-.122.114.16.16 0 0 0 .042-.011.305.305 0 0 0 .117-.164m-.117-.387a.3.3 0 0 0-.046-.022h-.115a.277.277 0 0 1 .248.135.44.44 0 0 0-.071-.1Zm-.341.306c0-.253.013-.293.1-.316a.34.34 0 0 1 .069-.011h-.117c-.067.035-.075.112-.075.322v.255h.023Zm.458.081a.19.19 0 0 1-.03.077.157.157 0 0 1-.084.083.263.263 0 0 1-.148.047.44.44 0 0 0-.134.023l.118-.01h.061a.259.259 0 0 0 .2-.144.347.347 0 0 0 .014-.33.45.45 0 0 1 .003.254m8.878-.464.043.015v1c0 .515 0 .88-.009.98l-.017-.006v.024l.04.013c.007 0 .012-.452.012-1.011V4.816l-.106-.038.039.017Zm-.113 1.971-.028-.012c-.045-.02-.093-.039-.13-.054v.014Zm-.134-.061v-1c0-.522.007-.892.013-.985.027.008.077.024.14.046l.087.031a.4.4 0 0 0-.117-.066l-.064-.021-.047-.015h-.017a3.4 3.4 0 0 0-.013.36l.007.646zM9.522 5.8a1.97 1.97 0 0 0 .462-.09l.021-.01a1.2 1.2 0 0 1-.133.02 2.8 2.8 0 0 1-.352.057l-.32.034V5.78h-.024v.056Zm.578-1.12a.05.05 0 0 0 0 .021l.026.008a.063.063 0 0 1 0-.043l-.013.007Zm-.1-.858a.48.48 0 0 0-.2-.022.7.7 0 0 1 .2.04zm.179.996a.3.3 0 0 1 .044.054c0-.011 0-.031-.015-.058L10.2 4.8l-.028-.028a.086.086 0 0 0-.043-.015.8.8 0 0 0 .05.061m-.979.91.012-.9.012-.993.266-.035h.043l-.333.01-.012 1.013V4.9c-.005.428-.001.7.012.828m.393-1.934a.1.1 0 0 0-.057 0h.028Zm3.047-.722c-.234-.011-.854-.013-1.228 0h-.035q.648-.014 1.263 0M4.038 6.137c0-.2-.01-.372-.012-.511-.007.216-.007.514 0 .832.031.823.1 1.625.2 2.388a20.8 20.8 0 0 0 .49 2.5c.054.2.11.406.17.607.09.275.186.548.29.818a21.6 21.6 0 0 1-1.138-6.634m9.787-.755a.7.7 0 0 1-.109-.287.437.437 0 0 0 .109.287m.333-1.608a.565.565 0 0 1 .354.424l.009.043a.45.45 0 0 0-.07-.213.49.49 0 0 0-.477-.292h-.012a.375.375 0 0 1 .196.038m-.041 1.252a.14.14 0 0 1-.071-.011h-.031c.016.028.046.034.1.034a.14.14 0 0 1 .09.02v-.027a.2.2 0 0 0-.088-.016m.424-.204v.066a1.1 1.1 0 0 1 .006.148c0 .051 0 .1-.007.148 0 .1 0 .159-.006.2a1.6 1.6 0 0 0 .036-.348.4.4 0 0 0-.029-.214m-.613-.798-.043.011a.425.425 0 0 0-.165.27l-.008.03v.127c.033-.211.1-.38.2-.411a.218.218 0 0 1 .178.046l-.016-.015a.216.216 0 0 0-.146-.058m.072.867c0 .092.008.111.019.064v-.17C14 4.8 14 4.835 14 4.891m-.468.609a1.74 1.74 0 0 1-.128-.769 1.193 1.193 0 0 1 .215-.842.476.476 0 0 1 .355-.131.6.6 0 0 1 .18.026s.006-.006 0-.011a.6.6 0 0 0-.206-.036.54.54 0 0 0-.091.007l-.04.008a.561.561 0 0 0-.351.333 1.82 1.82 0 0 0-.09.646c0 .092 0 .176.009.254a1.37 1.37 0 0 0 .082.39c.025.049.046.092.065.125m.692-1.227a.022.022 0 0 1-.012-.018.15.15 0 0 0-.014-.061.14.14 0 0 0-.006.057v.025a.06.06 0 0 0 .02.019l.007-.014Zm-.024.491h.021c.073.008.13.013.175.02h.08l-.029-.009h-.176Zm-.29.695-.035.005a.215.215 0 0 0 .209.036.276.276 0 0 0 .16-.2.4.4 0 0 0-.023.04.2.2 0 0 1-.077.093.185.185 0 0 1-.234.026m-7.288-.314-.036-.151-.018.1c-.019.108-.046.233-.062.293v.014c-.009.027-.008.048 0 .056s.061.006.124-.035c.038-.022.047-.051-.008-.277m5.751 15.835.155-.127.312-.259a16.12 16.12 0 0 0 3.337-3.436 25.7 25.7 0 0 0 1.564-2.6 17.36 17.36 0 0 0 1.827-6.6A23.6 23.6 0 0 0 19.7 5.4a1.119 1.119 0 0 0-.65-1.035l-.3-.142a8.2 8.2 0 0 0-1.271-.476q-.294-.083-.6-.155c-.261-.061-.538-.118-.834-.17-.59-.1-1.332-.2-2.037-.263q-1.241-.095-2.642-.067c-.5.01-.972.029-1.422.059a22.2 22.2 0 0 0-2.868.449c-.6.132-1.263.313-1.754.471l-.281.106c-.147.058-.267.107-.366.151a1.3 1.3 0 0 0-.394.369 1.71 1.71 0 0 0-.234.627v.007c0 .176.006.427.015.8a21.01 21.01 0 0 0 1.393 7.314c.232.53.653 1.421.789 1.665s.351.613.508.869A17.4 17.4 0 0 0 7.8 17.516a16.8 16.8 0 0 0 1.73 1.894 19.5 19.5 0 0 0 2.059 1.676 1.05 1.05 0 0 0 .316.15.48.48 0 0 0 .113-.026 3.8 3.8 0 0 0 .355-.23m6.1-16.317h.027a.4.4 0 0 1 .083.024h.01a1.7 1.7 0 0 1 .175.054l.165.059v1.744c0 .308 0 .309-.019.319l-.01.007h-.011l-.166-.055-.171-.056v-.044l-.035-.015-.051-.01Zm-1.52-.463h.037a1.95 1.95 0 0 1 .3.071l.008.008a.315.315 0 0 1 .1.092 2.66 2.66 0 0 1 .242.523c.072.184.137.352.183.453v-.915h.036a.15.15 0 0 1 .057.011l.084.032.2.053v.013h.01v.676l.005.33a6 6 0 0 1-.019.933v.094l-.04-.013h-.007a.06.06 0 0 1-.033.008.26.26 0 0 1-.117-.048.11.11 0 0 1-.022-.022l-.053-.017-.28-.692c-.08-.2-.155-.38-.208-.509l-.01.442c-.011.453-.014.549-.06.584a.1.1 0 0 1-.089 0 .77.77 0 0 0-.16-.029.043.043 0 0 1-.039-.03c-.045-.009-.079-.016-.088-.016h-.031Zm-.683.576c0-.686 0-.73.024-.731a.6.6 0 0 1 .066.011v-.011l.16.039.108.03h.006l.068.014v.017a1.05 1.05 0 0 1 .029.319c.006.192.01.444.01.709s0 .5-.01.688c-.01.3-.022.307-.033.316a.025.025 0 0 1-.016.006l-.166-.027-.151-.024V6.1a.7.7 0 0 1-.081-.02c-.013-.005-.017-.595-.014-1.303Zm-1.49-.965h.053v-.019l.136.037c.074.01.151.021.178.026l.027.006v.023a.97.97 0 0 1 .04.389v.038c0 .182 0 .273.032.318s.1.054.24.073l.131.019c.013-.011.013-.071.008-.393l-.007-.4h.039a2.4 2.4 0 0 1 .237.038l.106.017v.01h.009v.547l.007.549a5.04 5.04 0 0 1-.016.85.6.6 0 0 1-.006.092l-.049-.006a.09.09 0 0 1-.04.008.38.38 0 0 1-.094-.018h-.016a.13.13 0 0 1-.041-.02 1 1 0 0 0-.109-.015H15.6v-.913l-.071-.012-.043-.008c-.128-.021-.205-.035-.237-.007s-.039.14-.039.353v.538l-.381-.045v-.029l-.053-.008Zm-1.412.378a.66.66 0 0 1 .2-.314l.017-.018a.524.524 0 0 1 .389-.145.511.511 0 0 1 .5.3c.073.144.089.219.059.268v.005c0 .017-.011.025-.033.028a.29.29 0 0 1-.14.024.35.35 0 0 1-.138-.021h-.043l-.007-.051v-.012a.27.27 0 0 0-.022-.053.26.26 0 0 0-.076-.085.2.2 0 0 0-.158-.044c-.06.019-.113.106-.151.245a1.87 1.87 0 0 0-.048.592.85.85 0 0 0 .139.473.26.26 0 0 0 .1.074h.025a.6.6 0 0 0 .087 0 .241.241 0 0 0 .13-.177v-.169c-.01-.03-.034-.036-.089-.036-.074 0-.11-.015-.128-.058h-.013v-.038a.6.6 0 0 1 0-.092V4.7l.164.016h.4v.076c.049.041.052.111.052.248a.87.87 0 0 1-.218.689.59.59 0 0 1-.221.088.75.75 0 0 1-.246.008.44.44 0 0 1-.069-.018.53.53 0 0 1-.244-.132.76.76 0 0 1-.165-.21c-.071-.144-.077-.207-.077-.738a3.4 3.4 0 0 1 .024-.537Zm-1.407-.575.289.008c.463.013.561.022.622.059a.44.44 0 0 1 .12.108.476.476 0 0 1 .167.272.634.634 0 0 1-.145.645l-.114.114.152.444.168.489h-.41l-.153-.441c-.112-.323-.162-.415-.231-.425h-.049a1.07 1.07 0 0 0-.026.389v.452h-.17c-.157 0-.166-.009-.172-.015S12 5.707 12 5.663l-.039-.006ZM10.574 4a.631.631 0 0 1 .536-.38.24.24 0 0 1 .046 0 .42.42 0 0 1 .214.066l.035.018a.72.72 0 0 1 .242.252.6.6 0 0 1 .077.329 2.6 2.6 0 0 1 0 .816c0 .068 0 .116-.006.135a.525.525 0 0 1-.233.38.4.4 0 0 1-.064.061.69.69 0 0 1-.344.08.361.361 0 0 1-.357-.148.46.46 0 0 1-.151-.161c-.055-.1-.063-.149-.072-.55a2.8 2.8 0 0 1-.005-.3c-.002-.398.008-.449.082-.598m-1.439.765c0-.56.009-1.02.011-1.021s.392-.04.594-.055l.2-.015.06.031a.433.433 0 0 1 .209.222.7.7 0 0 1 .037.1.562.562 0 0 1 .018.391.42.42 0 0 1-.111.221.11.11 0 0 0-.016.051.07.07 0 0 0 .017.037.3.3 0 0 1 .075.053.683.683 0 0 1-.05.811.45.45 0 0 1-.073.068.53.53 0 0 1-.115.076 2 2 0 0 1-.47.092l-.373.037v-.08h-.027ZM5.858 6.406v.074l-.039.014a1.1 1.1 0 0 1-.368.173c-.178.066-.354.132-.436.164-.074.04-.125.052-.134.033v-.136c-.014-.123-.015-.372-.015-.893V4.8l.166-.059a1.7 1.7 0 0 1 .168-.055h.008l.032-.012s.009.385.009.857c0 .438 0 .787.009.847l.108-.035c.12-.055.466-.2.481-.2a.5.5 0 0 1 .011.136v.075c0 .027.001.037 0 .052m1.377-.317a.2.2 0 0 1 0 .045.026.026 0 0 1-.008.02.8.8 0 0 1-.182.052c-.168.032-.178.011-.235-.234l-.053-.223-.159.03c-.107.02-.161.031-.189.065a.57.57 0 0 0-.054.245V6.1c-.009.072-.021.141-.033.2-.02.094-.033.1-.042.106a1.1 1.1 0 0 1-.188.054l-.184.04.027-.116c.008-.053.031-.16.081-.382l.24-1.092c.143-.649.147-.663.176-.666s.084-.018.152-.035a.66.66 0 0 1 .127-.027s.007.021.018.057a.063.063 0 0 1 .036.015c.007.007.018.018.1.306.044.163.1.383.16.618.011.043.062.247.112.455l.025.088c.053.182.1.34.1.351s-.008.009-.027.017m.548-.972c0 .02-.005.043-.006.054s0 .042 0 .068v.243c0 .071 0 .143.006.209.013.261 0 .353-.063.376a.53.53 0 0 1-.163.027.076.076 0 0 1-.08-.05h-.023C7.4 6.038 7.4 6.079 7.4 5.4c0-.349 0-.808.008-1.02l.008-.385h.037a1.5 1.5 0 0 0 .178-.029c.1-.019.143-.024.146-.015l.031.091a4.2 4.2 0 0 1 .2.561l.068.221c.026.076.043.123.044.125s.011-.013.018-.035.086-.278.175-.569.165-.532.168-.536.018 0 .035 0a2 2 0 0 0 .3-.029c.036-.007.038 0 .044.034v.014h.006v1.989l-.035.006c-.015.057-.04.076-.088.076a.52.52 0 0 0-.157.028.06.06 0 0 1-.055 0c-.043-.028-.054-.119-.065-.536V5l-.323 1.167-.21-.628c-.058-.174-.119-.354-.15-.422m4.069 10.273a.533.533 0 0 1-.534.33c-.074 0-.118-.005-.14-.033a.09.09 0 0 1-.01-.074h-.009l.008-.083c-.007 0-.021.01-.037.037-.04.065-.082.062-.1.057a.1.1 0 0 1-.062-.09.44.44 0 0 1 0-.143.673.673 0 0 1 .3-.5.278.278 0 0 0 .121-.151c.026-.056.084-.161.127-.234.024-.04.046-.078.06-.106a.16.16 0 0 0 0-.035c0-.043-.017-.046-.024-.048-.074-.014-.287.164-.372.372a.5.5 0 0 1-.032.062.183.183 0 0 1-.075.106 1.35 1.35 0 0 1-.182.188 1.38 1.38 0 0 0-.361.5c-.086.184-.174.367-.2.407a.84.84 0 0 0-.064.151.575.575 0 0 1-.427.281c-.092.018-.134.026-.158 0s-.016-.048-.007-.089c-.035-.006-.056-.016-.056-.028a.42.42 0 0 1 .048-.093v-.007a.28.28 0 0 0-.053.044.083.083 0 0 1-.094.029c-.059-.024-.1-.133-.1-.29v-.019a.546.546 0 0 1 .059-.285 1.33 1.33 0 0 1 .273-.256.37.37 0 0 0 .1-.1.13.13 0 0 1 .108-.082.22.22 0 0 0 .081-.023 1.6 1.6 0 0 0 .274-.283.7.7 0 0 0 .04-.118c.007-.03.018-.066.031-.1v-.025a1.7 1.7 0 0 1 .074-.212l.032-.081a.16.16 0 0 0-.032-.021.165.165 0 0 1-.073-.126c-.029-.024-.029-.024-.029-.307v-.144c-.028-.169-.089-.278-.145-.283a5.5 5.5 0 0 0-.523.935 3 3 0 0 0-.15.419 1.77 1.77 0 0 1-.264.521.74.74 0 0 0-.2.546 1.8 1.8 0 0 1-.022.2v.029h.017a.5.5 0 0 1-.072.2 1 1 0 0 0-.13.3.407.407 0 0 1-.182.292 1.21 1.21 0 0 1-.416.089.22.22 0 0 1-.088-.016c-.041-.018-.05-.06-.046-.107a.032.032 0 0 1-.018-.027.41.41 0 0 1 .045-.132l.006-.013a.055.055 0 0 0 0-.025c-.007 0-.035.016-.088.093-.039.057-.068.082-.1.084a.08.08 0 0 1-.065-.029.187.187 0 0 1-.022-.18.46.46 0 0 1 .049-.2 1.01 1.01 0 0 1 .256-.3.31.31 0 0 0 .051-.1.12.12 0 0 1 .017-.047 1.45 1.45 0 0 1 .344-.486c.026-.03.049-.055.067-.077a.89.89 0 0 0 .075-.33 1.83 1.83 0 0 1 .066-.329.49.49 0 0 1 .082-.215l.021-.034a1.29 1.29 0 0 0 .118-.68 3.2 3.2 0 0 1 .037-.479 1.24 1.24 0 0 1 .128-.455 2.34 2.34 0 0 0 .143-.658 1.44 1.44 0 0 1 .037-.3 1.21 1.21 0 0 1 .154-.5c.034-.068.076-.145.128-.232q.047-.084.1-.162a1.833 1.833 0 0 0 .4-.954c.012-.088.026-.169.042-.245a1.03 1.03 0 0 1 .143-.475 1.92 1.92 0 0 1 .285-.351c.056-.05.649-.389.873-.5a4.1 4.1 0 0 0 .348-.261l.011-.009.08-.077a1.39 1.39 0 0 1 .4-.324.434.434 0 0 1 .271-.055 3.82 3.82 0 0 1 .725.24c.087.039.141.063.184.078l.068.02a.9.9 0 0 0 .126.015.71.71 0 0 1 .263.06.63.63 0 0 0 .351.062.614.614 0 0 0 .188-.211.5.5 0 0 0 .023-.05.54.54 0 0 0 .009-.081.6.6 0 0 0-.009-.123.6.6 0 0 0-.033-.077 1 1 0 0 0-.11-.165.87.87 0 0 0-.169-.109c-.188-.093-.322-.106-1.426-.141-1.228-.039-1.56-.081-1.772-.222a.252.252 0 0 1-.119-.189.3.3 0 0 1 0-.041.213.213 0 0 1 .022-.167 1.084 1.084 0 0 1 .413-.382 1.345 1.345 0 0 1 .617-.137 2.6 2.6 0 0 1 .444-.006 2.2 2.2 0 0 1 .429.047 2.59 2.59 0 0 1 .819.3.05.05 0 0 1 .019.039.05.05 0 0 1 .006.025.044.044 0 0 1-.015.034c-.039.034-.149.026-.739-.054-.149-.021-.188-.008-.2 0a2.3 2.3 0 0 0 .253.078.96.96 0 0 1 .2.065c.021.019.021.02 0 .035h-.008c-.01.025-.054.039-.157.072h-.016a1.994 1.994 0 0 1-1.133-.08c-.336-.12-.5-.125-.592-.018a.6.6 0 0 0-.052.067.558.558 0 0 0 .3.2.25.25 0 0 0 .04.011c.17.023.4.039.69.052.23.008.52.013.88.018.916.01.925.011 1.094.091.016.007.034.017.052.027a.824.824 0 0 1 .441.307.544.544 0 0 1 .161.463 1.45 1.45 0 0 1-.071.446c-.063.152-.061.164.045.323a1.52 1.52 0 0 1 .172.379 1.23 1.23 0 0 0 .19.367 1.54 1.54 0 0 1 .284.8 2 2 0 0 1-.076.415.93.93 0 0 0 .005.625 2.07 2.07 0 0 1 .055.577c-.024.176-.025.186.214.4.1.093.177.157.237.2a.7.7 0 0 0 .081.036 1.09 1.09 0 0 0 .442.055c.182-.007.2-.006.157.059l.068.006-.158.192c-.227.274-.6.318-1.071.128a.9.9 0 0 0-.168-.052 1.6 1.6 0 0 0 .1.251.64.64 0 0 1 .069.526 2.105 2.105 0 0 0-.009.879.9.9 0 0 1 .026.3.75.75 0 0 0 .053.287c.071.2.074.236-.016.359-.037.052-.133.169-.2.147a.056.056 0 0 1-.038-.044c-.025 0-.032-.011-.04-.085a.082.082 0 0 0-.045.054.113.113 0 0 1-.082.082c-.057.011-.126-.029-.214-.124l-.122-.133.019-.054c-.034-.093 0-.2.1-.366l.011-.017a.33.33 0 0 0 0-.119.21.21 0 0 1-.008-.058c-.053-.077-.049-.159.016-.357a.7.7 0 0 0 .049-.21 1.33 1.33 0 0 0-.08-.236 3.3 3.3 0 0 0-.179-.385l-.055-.088-.258.185a1.123 1.123 0 0 0-.558.879.79.79 0 0 1-.151.456c-.123.154-.159.16-.6.185-.419.024-.476.023-.574-.087a.69.69 0 0 1-.132-.261 1 1 0 0 0-.037-.127.064.064 0 0 1-.022-.059 1.33 1.33 0 0 0-.186-.355.363.363 0 0 0-.075.175.63.63 0 0 0-.022.264.4.4 0 0 1-.065.294 1.2 1.2 0 0 0-.116.294M8.55 3.884h-.028l-.012.039a.16.16 0 0 1 .04-.039m5.975.893.016-.001v-.001h-.02zm-3.233.517a1.345 1.345 0 0 0 .085-.55 1.58 1.58 0 0 0-.077-.584c-.046-.093-.1-.146-.163-.149h-.005c-.058 0-.119.048-.173.136-.082.133-.093.216-.081.588a1.17 1.17 0 0 0 .1.559.242.242 0 0 0 .124.11.3.3 0 0 0 .091-.009.277.277 0 0 0 .099-.101m-1.605.16a.233.233 0 0 0 .227-.128A.3.3 0 0 0 9.9 5a.253.253 0 0 0-.2-.1.28.28 0 0 0-.08.011c-.067.018-.083.032-.083.293v.259h.044Zm3.124-1.268a.347.347 0 0 0-.286-.168l-.174-.024v.239a.97.97 0 0 0 .029.286.035.035 0 0 0 .015.008h.116a.475.475 0 0 0 .262-.109l.019-.029a.48.48 0 0 0 .019-.203m-.47 2.499a.52.52 0 0 0 .224.038h.04l-.086-.031a.58.58 0 0 0-.207-.043l-.007.009a.3.3 0 0 0 .036.027M9.545 4.569h.041l.076-.015c.2-.038.256-.09.256-.232 0-.161-.07-.224-.249-.224h-.134v.468zm.604 10.821-.013-.008a.13.13 0 0 0 .028.039c.046.048.125.04.2-.016l-.013.005a.188.188 0 0 1-.202-.02m2.521-8.656-.01.011.058-.001-.01-.01-.028-.01Zm.044.033h-.072v.008a.34.34 0 0 0 .068-.006Zm-.385 5.469a.1.1 0 0 0 .012-.029c-.006.002-.01.012-.012.029M6.767 4.275h-.014l.002.006Zm7.195-.538h-.019a.45.45 0 0 0-.109.013h.027a.55.55 0 0 1 .101-.013M5.025 4.765l-.042.015.043-.015ZM9.224 5.8s.008-.011.012-.025h-.028c.005.025.01.032.016.025m-1.738.259v-.018H7.48q.003.021.006.018m1.075-.183s.008-.006.011-.016h-.018c.002.011.005.016.007.016m-.461.012c.014.029.025.041.031.032v-.013c-.026-.057-.093-.23-.167-.433l-.011-.03.018.066v.014zm4.344 8.523a1.08 1.08 0 0 0-.086-.2l-.029-.042c.02.047.05.11.084.18.01.024.021.043.031.062m1.666-8.963-.039.007a.154.154 0 0 1-.108 0h-.032a.194.194 0 0 0 .179-.007m-2.047.219h-.001v.012h.001zm6.784-.846v.011s.004-.005 0-.011m-6.784.885v-.003zM6.665 5.1l.006.046c.043.183.051.253.007.3h.011l.05-.013-.052-.233Zm.013.3a.08.08 0 0 1-.013.023.07.07 0 0 0 .013-.023m5.942 2.861c.027-.058.135-.07.294 0a.24.24 0 0 0-.056-.084.45.45 0 0 0-.169-.04.14.14 0 0 0-.082.023c-.025.028-.024.051.013.101m6.685-4.548A21.39 21.39 0 0 0 8.986 2.6a17.72 17.72 0 0 0-4.079.941l.049-.017A22.43 22.43 0 0 1 10.4 2.53c.73-.045 1.772-.059 2.347-.032.3.014.826.045.938.056l.221.018c.82.068 1.671.173 2.323.286a12.9 12.9 0 0 1 2.7.725 5.04 5.04 0 0 1 .752.387 1.456 1.456 0 0 1 .568.9c.021.125.025 1.135.006 1.656a20.97 20.97 0 0 1-1.008 5.95 20.7 20.7 0 0 1-.966 2.372 12.3 12.3 0 0 1-.727 1.272 17.23 17.23 0 0 1-4.954 5.315 1.43 1.43 0 0 1-.509.281.91.91 0 0 1-.347.012 1.14 1.14 0 0 1-.256-.1c-.144-.09-1-.741-1.361-1.034a16.12 16.12 0 0 1-3.279-3.5c-.142-.2-.486-.722-.612-.924a11.43 11.43 0 0 1-.923-1.684 18.45 18.45 0 0 1-1.587-5.362 24.6 24.6 0 0 1-.233-3.1 3.53 3.53 0 0 1 .131-1.515 1.313 1.313 0 0 1 .563-.633 1.63 1.63 0 0 0-.26.186 1.443 1.443 0 0 0-.51 1.19h.009c.026 0 .03.027.034.051a1.14 1.14 0 0 1 0 .274c0 .023-.008.052-.031.052a.027.027 0 0 1-.016-.008v.161h.007c.011 0 .026 0 .037.028a.22.22 0 0 1 0 .139c-.009.023-.022.029-.032.029h-.008v.1a20.884 20.884 0 0 0 2.332 9.486 20.3 20.3 0 0 0 2.218 3.122c.193.22.742.784.992 1.019a23.3 23.3 0 0 0 2.26 1.851 1.13 1.13 0 0 0 .559.272 1.01 1.01 0 0 0 .344-.026 1.47 1.47 0 0 0 .529-.3 17.36 17.36 0 0 0 3.965-3.846c.122-.164.212-.291.3-.414s.135-.2.176-.249c0-.007.016-.027.026-.045s.021-.034.027-.034.009-.008.009-.018a.031.031 0 0 1 .018-.026c.01 0 .018-.012.018-.019a.76.76 0 0 1 .066-.108.7.7 0 0 0 .066-.109.025.025 0 0 1 .017-.019c.01 0 .018-.012.018-.019a.45.45 0 0 1 .075-.117.021.021 0 0 0 .009-.017.44.44 0 0 1 .046-.081c.033-.051.066-.1.1-.154s.056-.087.06-.091a.04.04 0 0 0 .012-.018c0-.007.028-.05.056-.1l.066-.109c.008-.014.03-.049.05-.079s.039-.06.042-.067.078-.136.166-.286a7.6 7.6 0 0 0 .416-.809 18.8 18.8 0 0 0 1.287-3.622 21.1 21.1 0 0 0 .543-3.537 23.7 23.7 0 0 0 .053-2.624 1.5 1.5 0 0 0-1.033-1.172M3.437 5.572a1.08 1.08 0 0 0 0-.267c-.011-.074-.02-.014-.02.133s.009.208.02.134m-.003.365a.182.182 0 0 0 0-.122c-.009-.023-.017-.017-.021.01v.115c.008.015.014.015.021-.003m-.028.031c0 .382.013.7.035 1.092a19.71 19.71 0 0 0 1.4 6.579A20.43 20.43 0 0 1 3.644 9a26.4 26.4 0 0 1-.238-3.032m.068-1.242a1.483 1.483 0 0 1 .558-.784 2.66 2.66 0 0 1 .405-.214 2.5 2.5 0 0 1 .263-.111 13.6 13.6 0 0 1 1.33-.461 20.93 20.93 0 0 1 5.854-.731 19.16 19.16 0 0 1 7.18 1.175 2.79 2.79 0 0 1 .859.473 1.91 1.91 0 0 0-.635-.419 11.98 11.98 0 0 0-3.213-.908l-.328-.054c-.154-.027-.516-.074-.932-.121l-.328-.039a6.3 6.3 0 0 0-.333-.03c-.091-.005-.183-.012-.2-.016-.074-.014-1-.067-1.411-.081a24.8 24.8 0 0 0-3.195.123c-.191.021-.285.031-.573.066-.074.009-.147.019-.221.03l-.275.037a3 3 0 0 0-.191.031c-.046.009-.121.023-.167.029-.072.011-.143.022-.215.035l-.215.039c-.157.028-.619.122-.854.175a13.3 13.3 0 0 0-2.215.669 2.22 2.22 0 0 0-.755.6 1.75 1.75 0 0 0-.233.631 1.95 1.95 0 0 0-.026.4l.008-.011a2.52 2.52 0 0 1 .058-.533M3.4 5.61v.182zm6.445-1.092a1.2 1.2 0 0 1-.132.051c.173-.04.228-.1.228-.245a.35.35 0 0 0-.01-.09c.009.117-.024.251-.086.284m1.533.73c.018-.038.024-.052.025-.19a.77.77 0 0 1-.064.248.23.23 0 0 0 .039-.058m.012-.963v-.019a.34.34 0 0 0-.072-.178.36.36 0 0 1 .029.052.6.6 0 0 1 .043.145m-.47-.238c.006 0 .029 0 .074-.017a.25.25 0 0 1 .086-.056.242.242 0 0 0-.16.073m.392 1.26a.27.27 0 0 0 .027-.059.44.44 0 0 1-.034.069Zm1.428-1.292-.01-.01a.23.23 0 0 0 .024.046l.025.019a.23.23 0 0 0-.039-.055m-.051.514h-.001ZM5.2 13.969a.13.13 0 0 0 .016.031l-.03-.069ZM8.67 3.9h-.005c-.011.012 0 .021.028.024l.031-.009c.029-.007.041-.013.037-.017h-.074Zm11.712 1.39c0-.067-.008-.13-.014-.191v.9c0 .182 0 .364-.009.545.024-.529.035-1.005.023-1.254M9.587 3.83c.056 0 .067-.014.029-.029L9.6 3.8h-.076c-.016.021.013.032.063.03m1.237.004a.6.6 0 0 0 .039-.048.76.76 0 0 0-.137.14.6.6 0 0 0 .098-.092M9.715 5.506c-.016.016.013.028.063.026a.2.2 0 0 0 .037 0h.01c.009 0 0-.013-.018-.022a.135.135 0 0 0-.055-.009h-.018a.05.05 0 0 0-.019.005m-3.133-.627-.034.2c.015-.075.029-.141.037-.18Zm-2.943.051a21.05 21.05 0 0 0 .123 3.328 20.39 20.39 0 0 0 1.424 5.677c-.031-.093-.015-.11.036-.022.028.048.041.1.028.111s-.021 0-.034-.021a17.4 17.4 0 0 0 5.611 7.076c.656.5.824.6 1.077.6.2 0 .279-.037.647-.291a18.53 18.53 0 0 0 4.285-4.254 18.016 18.016 0 0 0 3.029-7.61 18.32 18.32 0 0 0 .241-4.837c-.1-.355-.426-.609-1.126-.89a20.05 20.05 0 0 0-7.68-1.161 18.81 18.81 0 0 0-6.473 1.156 2.1 2.1 0 0 0-.865.493.775.775 0 0 0-.323.645m.161-.345c-.032.084-.066.1-.066.03a.106.106 0 0 1 .047-.076c.03-.017.038.003.019.046m2.061 10.723a7.3 7.3 0 0 1-.491-1 3.23 3.23 0 0 1 .266.491 3.8 3.8 0 0 1 .225.509m.241.437c-.013 0-.046-.044-.074-.1s-.041-.1-.028-.1.047.044.075.1.041.1.025.1zm.144.243c-.014 0-.047-.044-.075-.1s-.041-.1-.028-.1.047.044.075.1.041.1.028.1m.143.243c-.013 0-.047-.043-.075-.1s-.04-.1-.027-.1.047.044.075.1.038.1.027.1m.539.839c-.059-.077-.057-.079.018-.018a.3.3 0 0 1 .084.085c0 .04-.039.014-.102-.067m.143.2c-.059-.078-.057-.079.018-.019a.31.31 0 0 1 .084.085c0 .035-.039.01-.102-.071zm.144.194c-.06-.077-.058-.079.018-.018a.29.29 0 0 1 .083.085c0 .035-.039.009-.101-.072zm.168.219-.091-.11.108.093a.54.54 0 0 1 .107.109c0 .034-.038.006-.124-.097zm.191.243-.091-.109.107.092a.5.5 0 0 1 .108.11c.002.033-.039.005-.124-.098Zm.263.316-.115-.142.131.118a.83.83 0 0 1 .131.134c0 .041-.038.01-.147-.115zm.86.911a3.3 3.3 0 0 1-.331-.316 2.46 2.46 0 0 1-.284-.316 3.3 3.3 0 0 1 .332.316 2.5 2.5 0 0 1 .286.311Zm.716.73a3.3 3.3 0 0 1-.331-.316 2.54 2.54 0 0 1-.284-.316 3.4 3.4 0 0 1 .332.316 2.5 2.5 0 0 1 .283.311Zm.387.317c0 .038-.039.007-.147-.118l-.116-.133.131.118a.82.82 0 0 1 .132.133m.185.174c-.06-.077-.058-.079.018-.018a.29.29 0 0 1 .083.085c-.002.042-.041.016-.103-.065zm1.915 1.291c-.092 0-.13-.01-.084-.022a.39.39 0 0 1 .167 0c.044.012.006.022-.083.022m8.06-17.206a.43.43 0 0 1 .1.158c0 .074-.024.049-.112-.115l-.085-.158Zm-4.709-1.578a.1.1 0 0 1 .092 0c.038.015.026.027-.029.029s-.079-.01-.063-.029m-.382-.049a.1.1 0 0 1 .092 0c.038.016.027.027-.029.03s-.078-.014-.063-.03m-.406-.051a.174.174 0 0 1 .119 0c.033.013.006.024-.06.024s-.092-.011-.059-.024m-.574-.049a.265.265 0 0 1 .143 0c.047.012.02.023-.058.024s-.117-.01-.085-.024m-.883-.051a1.3 1.3 0 0 1 .287 0c.085.011.027.02-.131.021s-.227-.01-.156-.021m-2.529 0a1.3 1.3 0 0 1 .286 0c.086.011.027.02-.13.021s-.228-.01-.156-.021m-.714.054a.094.094 0 0 1 .091 0c.038.016.027.027-.028.029s-.079-.013-.063-.029M4.094 4.778c.141-.295.271-.385.93-.643A14.52 14.52 0 0 1 7.9 3.344a23.3 23.3 0 0 1 3.476-.3 24.96 24.96 0 0 1 4.058.225 14.98 14.98 0 0 1 3.317.852c.687.271.812.357.954.655.106.223.108.262.079 1.383a23.8 23.8 0 0 1-.491 4.335 17.92 17.92 0 0 1-1.247 3.788 16.37 16.37 0 0 1-2.027 3.291 18.53 18.53 0 0 1-2.829 2.843 7.6 7.6 0 0 1-1.213.86.13.13 0 0 1-.041.006.854.854 0 0 1-.371-.159 19.7 19.7 0 0 1-2.066-1.682 17.22 17.22 0 0 1-2.95-3.663 16.8 16.8 0 0 1-1.057-2.125 18 18 0 0 1-.6-1.7A18.07 18.07 0 0 1 4.061 7.4c-.018-.295-.03-.63-.036-.946 0-.107-.007-.213-.01-.32C3.986 5.04 3.988 5 4.094 4.778m2.385.622a.11.11 0 0 0 0 .054c.006-.032.015-.079.026-.133-.013.028-.02.056-.026.079m.127.064-.082.023a.19.19 0 0 0 .082-.023m.361-.41c.109.431.223.9.246 1.043l.022-.008c-.015-.087-.058-.276-.1-.46ZM5.946 6.437l.059-.254q.123-.537.244-1.074c.177-.785.179-.791.324-.832a.39.39 0 0 1 .164-.017l-.008-.025a.48.48 0 0 0-.162.02c-.16.044-.163.059-.341.849-.08.356-.162.717-.244 1.073l-.047.2c-.007.052-.001.055.011.06M4.137 4.8a.847.847 0 0 1 .538-.469 1.2 1.2 0 0 1 .157-.081c.124-.052.293-.112.49-.176a16.18 16.18 0 0 1 4.629-.919c.464-.041.936-.068 1.426-.083a17.63 17.63 0 0 0-6.34 1.087c-.656.256-.78.341-.918.631-.084.178-.1.234-.089.838a2.7 2.7 0 0 1 .02-.294.97.97 0 0 1 .087-.534m1.721 1.482v-.027c0-.026-.007-.062-.035-.062s-.235.075-.3.1l-.153.053a.9.9 0 0 1-.1.044v-.01h-.006c-.018-.08-.024-.391-.024-.82v-.6c0-.078 0-.14-.006-.183v-.051c0-.012 0-.031-.018-.037l-.131.06a1.1 1.1 0 0 1 .115-.04c.009 0 .016.383.016.851s.008.851.017.851.141-.044.293-.1l.1-.035c.027-.01.055-.019.081-.027.063-.021.106-.035.111-.035a.316.316 0 0 1 .017.141.152.152 0 0 1-.1.17l.086-.033a.14.14 0 0 0 .039-.088v-.122ZM8.55 3.884h.053a.5.5 0 0 1 .077-.013l.163-.02v1.014a5.75 5.75 0 0 1-.029.962h.024a.64.64 0 0 0 .014-.089c.011-.131.013-.377.013-.869V4.2c0-.192 0-.329-.006-.372l-.183.022a.28.28 0 0 0-.126.034m4.384-.796c.331.014.7.039 1.081.073a18.55 18.55 0 0 1 2.871.433q.315.072.6.155.649.183 1.244.418c.672.266.794.348.929.632.1.215.1.241.074 1.362-.16 6.182-2.25 10.7-6.577 14.221-.274.224-.558.439-.783.6-.081.064-.148.117-.176.136a.77.77 0 0 1-.182.094.45.45 0 0 1-.056.025.12.12 0 0 1-.057 0 .38.38 0 0 1-.082 0 .23.23 0 0 0 .146.021 7.74 7.74 0 0 0 1.205-.856c4.312-3.509 6.426-8.078 6.586-14.239.029-1.122.027-1.154-.077-1.373-.139-.292-.26-.375-.942-.644a17.74 17.74 0 0 0-6.1-1.073h.067c.029.006.131.011.229.015M4.966 6.825c-.076.031-.083-.032-.084-.921V4.839 6.73c.008.075.021.1.041.116a.05.05 0 0 0 .027.008.11.11 0 0 0 .033-.007l.04-.016c.063-.034.181-.088.315-.144Zm2.788-1.656c-.008.107-.008.342 0 .523a1.1 1.1 0 0 1-.01.3h.021s0-.227.006-.506v-.413c-.007-.006-.012.032-.017.096m12.574-.348c0 .017.007.04.01.068.012.067.022.136.03.21v-.317l-.133-.282a1.38 1.38 0 0 0-.312-.435l.026.028a1.49 1.49 0 0 1 .379.728m-14.874 8.63-.026-.061c-.088-.205-.172-.41-.252-.617a17.04 17.04 0 0 0 1.389 3 17.2 17.2 0 0 0 2.946 3.657 21.5 21.5 0 0 0 1.943 1.6c-.074-.055-.162-.123-.266-.205A18.3 18.3 0 0 1 7.8 17.516a16.15 16.15 0 0 1-1.212-1.758 17.06 17.06 0 0 1-1.134-2.307M4.187 3.876a5.1 5.1 0 0 1 .72-.336 6 6 0 0 0-.212.077c-.092.038-.179.075-.258.111a2.2 2.2 0 0 0-.221.129Zm2.105 2.462s.028-.133.059-.292l.049-.217c-.035.042-.043.116-.062.267a1.9 1.9 0 0 1-.046.242m7.04 14.709c-.85.672-1.052.791-1.378.811a.778.778 0 0 1-.505-.109 19.44 19.44 0 0 1-3.889-3.524 16.96 16.96 0 0 1-1.807-2.663l-.026-.045a13.4 13.4 0 0 1-.687-1.408 24 24 0 0 1-.2-.472 16.9 16.9 0 0 0 2.106 3.82A17.8 17.8 0 0 0 9.7 20.434a16.2 16.2 0 0 0 1.685 1.3 1.013 1.013 0 0 0 .966.038 15.5 15.5 0 0 0 1.715-1.3 19.65 19.65 0 0 0 2.534-2.661 22.4 22.4 0 0 0 1.606-2.5 20.25 20.25 0 0 0 2.151-8.765c-.03.627-.079 1.327-.133 1.8a17.834 17.834 0 0 1-6.892 12.701M7.472 5.928c-.012-.13-.013-.378-.013-.85v-.993l.035-.008.109-.024.036-.007a.17.17 0 0 1 .073 0 .117.117 0 0 1 .076.02 4.1 4.1 0 0 1 .193.552l.155.51.064-.2c.034-.107.119-.384.188-.615.033-.111.058-.192.079-.252l.04-.139-.007.011a1.65 1.65 0 0 0-.134.373 69 69 0 0 1-.188.615l-.04.123-.066-.218C8.043 4.735 8 4.6 7.947 4.455l-.141-.414a.28.28 0 0 0-.2-.012l-.166.037v1.012c0 .483 0 .724.013.853a.4.4 0 0 0 .022.113h.009c-.006-.022-.009-.062-.012-.116m5.302-.336.031.1h.007l-.08-.231c.02.06.035.109.042.131m.037-1.406a.218.218 0 0 1-.021.2.27.27 0 0 1-.043.081.14.14 0 0 0 .043-.039.277.277 0 0 0 .06-.178.37.37 0 0 0-.047-.124l-.003-.003a.6.6 0 0 1 .011.063m-.3.343h-.034a.23.23 0 0 1-.082-.006h-.038l.006.01c.034.035.15.025.255-.006h-.107zm2.01-.287c-.006.058-.06.078-.166.078a.3.3 0 0 1-.141-.025c-.009.016-.017.009-.02-.019a.04.04 0 0 1-.006-.021.219.219 0 0 0-.1-.158.31.31 0 0 1 .064.1.11.11 0 0 1 .015.053v.016a.075.075 0 0 0 .05.051h.134a1.1 1.1 0 0 0 .144 0 .1.1 0 0 0 .033-.028.3.3 0 0 0-.007-.047m-.044.539a.127.127 0 0 1 .064.041v-.034l-.016-.011ZM14 4.885v-.164l.227.022a1.9 1.9 0 0 1 .224.029h.073a.88.88 0 0 0-.295-.055l-.088-.009h-.147v.062c0 .033 0 .1-.007.152l-.005.055a.17.17 0 0 0 .01.038h.026a.28.28 0 0 1-.018-.13m.11.563a.17.17 0 0 0 .034-.014.36.36 0 0 0 .092-.26c0-.055-.007-.087-.029-.105v.04a.22.22 0 0 1 .007.065.43.43 0 0 1-.012.1.18.18 0 0 1-.032.11.21.21 0 0 1-.06.064m-2.057-.656c-.006.459-.008.781-.006.874h.015zm1.525.86.017.019c.022.019.044.036.065.051a.8.8 0 0 0 .179.081.67.67 0 0 0 .179.023.7.7 0 0 0 .136-.013h.008a.479.479 0 0 0 .356-.348.32.32 0 0 0 .016-.079.52.52 0 0 1-.172.321.633.633 0 0 1-.767-.068 1.087 1.087 0 0 1-.206-.65 2.5 2.5 0 0 1 .041-.789.8.8 0 0 1 .04-.115.493.493 0 0 1 .351-.333h.013a.58.58 0 0 0-.266.126 1.285 1.285 0 0 0-.211.857 1.388 1.388 0 0 0 .221.917M9.8 3.8a1.34 1.34 0 0 0-.211 0c.082-.008.154-.008.211 0m2.527 1.477v.4h.005v-.645.249zM9.2 5.728v.052h.008c-.003-.013-.008-.03-.008-.052m4.516-.628v-.638a2 2 0 0 0 0 .638m-4.181-.519v-.013h-.024v.043l.155-.03h.02-.1zm-1.222.883-.038.136.153-.527a7 7 0 0 1 .058-.191v-.04Zm2.834-.032a.19.19 0 0 0 .121-.069.3.3 0 0 1-.077.032.12.12 0 0 1-.091.005.28.28 0 0 1-.07-.012.17.17 0 0 0 .083.039Zm-.647-.538a1.354 1.354 0 0 0 .22.708.7.7 0 0 0 .066.039q-.024-.024-.051-.057a.68.68 0 0 1-.093-.158 1.68 1.68 0 0 1-.126-.82 1.46 1.46 0 0 1 .141-.624.68.68 0 0 1 .131-.167.3.3 0 0 1 .095-.081.5.5 0 0 1 .267-.1.587.587 0 0 1 .47.381 1.54 1.54 0 0 1 .1.49v-.229a1.16 1.16 0 0 0-.076-.271.75.75 0 0 0-.278-.328.76.76 0 0 0-.243-.062h-.013a.724.724 0 0 0-.471.353 1.48 1.48 0 0 0-.144.62v.173zm1.521-1.229-.014 1.024C12 4.955 12 5.207 12 5.4v.265h.023c0-.114 0-.51.008-.976l.011-.85v-.151h.371a2 2 0 0 1 .243.013.56.56 0 0 1 .129.022.45.45 0 0 1 .267.16.6.6 0 0 0-.059-.093.967.967 0 0 0-.58-.125zm-.4 1.709a.93.93 0 0 1-.211.28l-.01.007a.7.7 0 0 0 .088-.049 1.2 1.2 0 0 0 .154-.227 1.03 1.03 0 0 0 .085-.288v-.226a1.39 1.39 0 0 1-.106.503m2.4-.589c.023-.021.074-.023.18-.021l-.18-.017Zm3.984 1.725a.84.84 0 0 1-.123-.215.12.12 0 0 1-.037-.056.7.7 0 0 1-.024-.075c-.047-.107-.1-.231-.15-.361l-.261-.663v.1l.023.053v-.037l.219.556a4.7 4.7 0 0 0 .322.7l.068.022zM17.9 5.4c0-.092 0-.2.008-.306v-.62l.024.007v-.006l.03.014.077.021.131.036v.041q.021.012 0 .009l.012.955c.01.778.01.992-.069 1l.033.011a.138.138 0 0 0 .041-.081l.006-.356c0-.22.007-.605.008-.907l-.008-.68-.12-.038L18 4.475l-.113-.031v.573a3.2 3.2 0 0 1-.015.422.6.6 0 0 1-.049-.091V5.4c.048.1.069.091.077 0m-.872-1.152v1.02c0 .4 0 .638.013.787a.69.69 0 0 0 .031.2c.083.019.2.048.255.064.006 0 .01 0 .013-.023-.015.008-.035 0-.063 0a.9.9 0 0 0-.166-.03c-.015 0-.027-.028-.036-.1v-.013c-.016-.135-.021-.4-.021-.885v-1l.011.985.01.9v.016V4.3h.087a.207.207 0 0 1 .136.04c.013 0 .018-.011.012-.021a.227.227 0 0 0-.148-.043h.006a.2.2 0 0 1 .142.042l.018.014a.35.35 0 0 0-.028-.052.27.27 0 0 0-.14-.032ZM16.5 6.131c.081.015.157.027.175.028l-.161-.026Zm1.592-1.583.058.027v-.011Zm.755.273v-.004l-.005-.002Zm.011 2.016V6.83l-.124-.041c.066.027.119.048.124.048m-2.451-2.732v.022l.111.005-.009-.002Zm2.162.623v1.987l.023.008V4.702l.034.011.047.015.026.007.038.014.039.013.044.016-.116-.049c-.037-.016-.073-.03-.105-.042-.027.006-.029.025-.03.041m-3.438-.823h-.023l.028.008zm-.275 1.955V3.822l.108.03a.93.93 0 0 0 .167.03c.014 0 .025.012.034.039 0 .01.006.021.009.034v-.071a.052.052 0 0 0-.043-.026.8.8 0 0 1-.161-.029l-.136-.016v2.044Zm-4.917-.848a.315.315 0 0 1 .032.176v.051a.315.315 0 0 0-.032-.227m5.45-.319-.129-.019a.8.8 0 0 0 .253.056l.2.028v-.785l.068.008h.019a.33.33 0 0 1 .063.01l.115.009v.05c.007.007.007.011 0 .013l.012.95c.013 1.057.019 1.031-.192.975-.072-.019-.083-.085-.083-.474v-.452l-.115-.019v.024l.088.015v.432c0 .32.006.433.06.477l.079.014.112.02.013-.009A.125.125 0 0 0 16 5.939c.005-.145.008-.458.009-.928v-.469L16 3.993h-.018l-.089-.018-.2-.024v.785l-.075-.011h-.009c-.009-.002-.109-.015-.22-.032m-.509-.748a.2.2 0 0 1 .012-.076.06.06 0 0 1 .027-.005l-.039-.011Zm-.97 1.514h.017a.3.3 0 0 1-.1-.076l.013.016a.3.3 0 0 0 .07.06m2.474.649V4.075l.131.032c.039.009.078.021.11.031s.03 0 .022.007l.035.014a.57.57 0 0 1 .019.157v-.17l-.008-.007a.4.4 0 0 0-.066-.025l-.188-.04c-.028-.007-.056-.012-.08-.017V6.1Zm-.645-2.09.01-.018h-.01zm.204.005.011.008v-.006zM13 4.69l-.048.046a.327.327 0 0 0 .143-.169.53.53 0 0 1-.095.123m1.925 10.169a.96.96 0 0 1 .032-.331.54.54 0 0 0 0-.38v.104a.58.58 0 0 1-.029.27 1.14 1.14 0 0 0-.036.3l.007.011zm-2.547-.052c-.015-.047-.034-.1-.055-.149v.056c.007.02.015.04.022.059l.018.017zm3.339-2.444a2.1 2.1 0 0 0-.178-.17 1 1 0 0 1-.056-.048 1.22 1.22 0 0 0 .2.2c.338.3.353.309.673.337l.246.022.007-.01.007-.013-.258-.022a.652.652 0 0 1-.422-.128.75.75 0 0 1-.219-.168m-.431 3.265c0-.056-.029-.081-.061-.074v.024a.017.017 0 0 1 .012 0c.014 0 .024.022.024.051a.12.12 0 0 0 0 .035.08.08 0 0 0 .023-.005.09.09 0 0 1 .002-.031m-.411-.416a1.05 1.05 0 0 0 .059-.271l-.029.059a1.13 1.13 0 0 1-.052.208l-.07.2a.2.2 0 0 0 .014.032zm-5.38.962h.008a.55.55 0 0 1-.039-.222c0-.127.046-.205.221-.379a2.05 2.05 0 0 1 .354-.289.8.8 0 0 0 .359-.488 1.6 1.6 0 0 1 .1-.284c.052-.1.061-.136.023-.166l-.009.023c.018.019.009.045-.034.133a1.6 1.6 0 0 0-.075.185 1 1 0 0 1-.058.2l-.013.022a.77.77 0 0 1-.307.354 2.12 2.12 0 0 0-.359.293c-.178.176-.228.262-.228.393s.029.225.057.225M11.2 15.6c.015-.062 0-.1-.027-.1v.024c.005 0 .015.022 0 .068l-.005.019.023.008zm-1.48.663c.021-.085.013-.128-.019-.126l-.017.03c.013-.008.019-.007.019-.007s.014.017-.006.1l-.009.037h.024zm.705-2.107a.71.71 0 0 1-.021-.284v-.069a.96.96 0 0 0-.034-.162c0 .026 0 .064.005.126a1.24 1.24 0 0 1 .017.212 1.34 1.34 0 0 0 .015.241.1.1 0 0 0 .027.015.6.6 0 0 1-.009-.079m.745.521a.89.89 0 0 1-.153.221c.027-.016.049-.03.068-.044a1.1 1.1 0 0 0 .075-.106.44.44 0 0 0 .011-.073zm-.18.877h.009a.22.22 0 0 1-.008-.061.994.994 0 0 1 .3-.533 1.414 1.414 0 0 0 .319-.6v-.013h-.008a.23.23 0 0 1-.02.043 1.57 1.57 0 0 1-.308.544 1 1 0 0 0-.307.549v.04c0 .013.014.031.023.031M8.518 5.866h.012a.8.8 0 0 1-.018-.136 1.3 1.3 0 0 0 .006.136m4.358 1.268a4.97 4.97 0 0 1 1.5.149.85.85 0 0 0-.1-.059 6.85 6.85 0 0 0-1.4-.113c-.233-.007-.441-.014-.625-.023a4.65 4.65 0 0 1-.69-.052c-.215-.028-.333-.066-.357-.121a.1.1 0 0 1 .021-.09.14.14 0 0 1-.01-.026c-.162.234.163.29 1.661.335m-3.947 7.452a.95.95 0 0 0 .088-.209L9 14.409c-.021.042-.054.1-.081.144l-.011.022a1.23 1.23 0 0 0-.092.227 2.7 2.7 0 0 0-.023.2 1.5 1.5 0 0 1 .136-.416M7.483 4.139v-.037zm.008 1.902.004-.001-.003-.007Zm3.615.547a1.653 1.653 0 0 1 1.218-.36l.075-.007-.028.009a2.8 2.8 0 0 1 .436.057c.437.09.856.252.856.331a.039.039 0 0 0 .018-.028c-.016-.029-.072-.08-.273-.158a3.84 3.84 0 0 0-.6-.171 2.9 2.9 0 0 0-.4-.055h-.444c-.055.006-.109.013-.161.023a1.32 1.32 0 0 0-.72.334.523.523 0 0 0-.171.329.2.2 0 0 0 .026.05.456.456 0 0 1 .168-.354m1.603.012c0 .029.054.065.119.079.381.081.4.082.206.145a.48.48 0 0 0 .142-.043.03.03 0 0 0 0-.014c0-.038-.05-.048-.317-.1l-.029-.006c-.065-.014-.1-.046-.1-.056l-.023-.01zm-3.652 7.432v-.159a2.4 2.4 0 0 1 .159-.911c.037-.107.068-.211.092-.309-.025.073-.07.192-.1.276v.025a2.8 2.8 0 0 0-.123.44c-.007.1-.01.243-.015.464zm.309-1.682v-.069a2.466 2.466 0 0 1 .417-1.181 2.82 2.82 0 0 0 .311-.552 4.8 4.8 0 0 1-.248.414c-.07.106-.13.2-.181.287a2.76 2.76 0 0 0-.282.729c-.006.07-.01.151-.013.252Zm1.802-3.55a4.65 4.65 0 0 0 .7-.48c.412-.354.551-.447.67-.448a3.4 3.4 0 0 1 .561.17 5.78 5.78 0 0 0 1.239.316c.11 0 .233-.2.239-.386a.479.479 0 0 0-.26-.455 1 1 0 0 1 .084.089.425.425 0 0 1 .143.242.35.35 0 0 1 .01.1.3.3 0 0 1-.01.1c-.032.152-.131.283-.206.283a3.9 3.9 0 0 1-.745-.159.46.46 0 0 1-.068-.02 7 7 0 0 1-.418-.136 3.5 3.5 0 0 0-.569-.171c-.125 0-.265.092-.675.445a1.35 1.35 0 0 1-.346.264l-.013.006a3.9 3.9 0 0 1-.351.215 1.494 1.494 0 0 0-.95 1.111c-.005.06-.009.126-.012.2a1.486 1.486 0 0 1 .977-1.286m3.485 4.711.006.005-.004-.006zm-5.584 2.46a1.7 1.7 0 0 1-.024.166l.025-.006v-.116zM12.4 14.9a.2.2 0 0 0 .08.184.69.69 0 0 1-.08-.184m2.271-3.852a.5.5 0 0 0 .062.3.266.266 0 0 0 .354.085.64.64 0 0 0 .094-.105l.053-.073-.03-.038a2.02 2.02 0 0 1-.251-.378 1.1 1.1 0 0 1-.066-.152c0-.03.037-.068.109-.114.162-.1.18-.148.187-.463a1.94 1.94 0 0 0-.009-.3.64.64 0 0 0-.149-.295l-.062-.069-.047.014a.373.373 0 0 0-.174.167.478.478 0 0 0 .015.317.98.98 0 0 1 .036.237 1.17 1.17 0 0 1-.055.352 1.9 1.9 0 0 0-.067.515m-3.243 3.228.071-.047h-.331a2.1 2.1 0 0 0-.413.019.63.63 0 0 1-.14.015h-.057l-.025.063c.06.046.042.092-.011.2a1.6 1.6 0 0 0-.1.279.82.82 0 0 1-.371.5 2.12 2.12 0 0 0-.348.286c-.171.168-.215.243-.214.362a.49.49 0 0 0 .036.211.7.7 0 0 0 .074-.048q.171-.1215.114 0h.014c.032.018.037.067.017.15l-.008.032a.8.8 0 0 0 .088 0 .33.33 0 0 0 .163-.035.59.59 0 0 0 .224-.263.77.77 0 0 1 .114-.17.47.47 0 0 0 .067-.081l.021-.045a.9.9 0 0 0 .03-.1 1.24 1.24 0 0 1 .179-.37.687.687 0 0 1 .3-.29l.026-.014a1.03 1.03 0 0 0 .2-.269.6.6 0 0 1 .029-.061.52.52 0 0 1 .024-.122.9.9 0 0 1 .227-.202m-1.037 1.1-.031.028c.074-.028.082-.019.07.055a.44.44 0 0 1-.025.093.25.25 0 0 1-.184.081.121.121 0 0 1-.118-.029c-.076-.057-.148-.131-.148-.153s.029-.034.073-.057l.073-.037.036.024c-.014-.04.023-.071.115-.094.066-.017.119-.052.119-.079a.048.048 0 0 1 .048-.047c.072.001.056.131-.028.216zm.967.251c.027-.007.014-.01-.052-.011s-.087 0-.083-.023a.14.14 0 0 1 .065-.051.44.44 0 0 0 .072-.041.36.36 0 0 0 .01-.106c0-.115.016-.139.107-.156.062-.012.09-.037.09-.082 0-.021-.013-.033-.053-.051-.066-.03-.088-.066-.058-.093l.12-.106c.087-.076.1-.093.115-.148a1.2 1.2 0 0 0 .048-.294c-.012-.033-.054-.078-.073-.078a.08.08 0 0 1-.032-.017 1.45 1.45 0 0 1-.326.6.99.99 0 0 0-.294.517.2.2 0 0 0 .006.048.6.6 0 0 0 .051-.039.25.25 0 0 1 .083-.055c.014 0 .018 0 .017.035a.05.05 0 0 1 .017 0c.027.012.049.05.03.123l-.005.022a.32.32 0 0 0 .145.006m2.157-8.983c-.049 0-.114-.01-.2-.02a.9.9 0 0 0 .2.02m-3.347-1.871a.106.106 0 0 1 .037.036.424.424 0 0 1 .087.335.6.6 0 0 1-.29.554.28.28 0 0 0 .1-.045.657.657 0 0 0 .209-.508.436.436 0 0 0-.106-.365c-.025-.026-.043-.044-.055-.059a.4.4 0 0 0-.036-.017.194.194 0 0 0 .054.069m-.683-1.017-.307.032-.025 2h.023l.011-.888v-.078L9.2 3.81l.287-.031c.395-.042.625.023.715.2a.557.557 0 0 1-.019.566.56.56 0 0 0-.063.121.2.2 0 0 0 .036-.028c.011-.021.027-.048.047-.081a.65.65 0 0 0 .064-.14.82.82 0 0 0-.018-.391.6.6 0 0 0-.026-.058c-.095-.188-.329-.255-.738-.212m3.168 3.569c-.3-.011-.534-.021-.73-.034.204.02.42.029.73.034M10.456 14.2c0 .014.006.027.009.038.024.003.024.002-.009-.038m-1.684 2.612a.464.464 0 0 0 .1-.281.9.9 0 0 0-.029.1.68.68 0 0 1-.071.181m6.085-8.818a1.5 1.5 0 0 1-.015.2.693.693 0 0 0-.044-.532.73.73 0 0 0-.105-.123l.008.011a.518.518 0 0 1 .156.444m-5.278-2.53h-.068v.031l.178-.015a.43.43 0 0 0 .124-.026 1.2 1.2 0 0 1-.151.011ZM8.176 16.812a.205.205 0 0 0 .01-.128l-.017.038a.37.37 0 0 1-.016.084.5.5 0 0 0-.017.088.1.1 0 0 0 .023.008.42.42 0 0 1 .017-.09m-.049-.512a.66.66 0 0 0 .144-.226 1.37 1.37 0 0 1 .235-.338 1.04 1.04 0 0 0 .221-.335.8.8 0 0 1-.051.062 1.45 1.45 0 0 1-.188.258 2.17 2.17 0 0 0-.223.305.2.2 0 0 0-.006.045c0 .051 0 .058-.051.091l-.011.008a1.3 1.3 0 0 1-.088.115 1.09 1.09 0 0 0-.2.322.4.4 0 0 0-.018.06.19.19 0 0 0 .012.07.845.845 0 0 1 .224-.437m4.178-9.643V6.65h.012l.007-.006a.12.12 0 0 1 .026-.017c-.069 0-.1.016-.046.058a.031.031 0 0 1 .001-.028m.481 8.509.047-.038a.69.69 0 0 0 .192-.234.132.132 0 0 0-.025-.138.24.24 0 0 1-.04-.054c-.024-.048 0-.06.1-.06.087 0 .094 0 .122-.035a1.94 1.94 0 0 0 .16-.357.51.51 0 0 0 .029-.2.51.51 0 0 1 .031-.206.367.367 0 0 0 0-.3.324.324 0 0 0-.15-.151c-.1-.062-.085-.1.049-.153.076-.029.115-.062.115-.1s0-.029-.1-.022-.106.007-.129-.026c-.066-.1-.1-.112-.171-.064a1.05 1.05 0 0 0-.24.44c0 .049.054.1.153.14a1 1 0 0 1 .12.057.186.186 0 0 1 .074.17.4.4 0 0 0 .012.108.43.43 0 0 1 .013.112.28.28 0 0 1-.036.154 1.14 1.14 0 0 1-.238.312c-.043.017-.087-.019-.108-.086a.118.118 0 0 1 .01-.115.6.6 0 0 0 .05-.365 1.2 1.2 0 0 0-.027-.206c-.025-.055-.064-.038-.147.063s-.129.136-.171.136-.055-.041-.048-.139a.98.98 0 0 1 .114-.354 5.3 5.3 0 0 0 .2-.534 1.13 1.13 0 0 0 .005-.419.273.273 0 0 0-.078-.134 2.5 2.5 0 0 1-.325-.462c-.086-.166-.145-.34-.114-.34a1.32 1.32 0 0 1 .2.264c.067.113.1.141.161.133.043-.006.044-.005.051.039a.854.854 0 0 0 .2.41 1.86 1.86 0 0 0 .31.253 1.55 1.55 0 0 0 .311.1 1.2 1.2 0 0 0 .3.025c.2 0 .25-.009.3-.059a.34.34 0 0 1 .093-.049c.039-.014.083-.033.1-.041.042-.022.074-.072.066-.1s-.018-.026-.158-.033a1.17 1.17 0 0 1-.466-.11 2.3 2.3 0 0 0-.166-.075.44.44 0 0 1-.271-.221.065.065 0 0 1 .059-.083.09.09 0 0 0 .04-.019.036.036 0 0 1 .027-.011c.051 0 .054-.015.028-.13-.032-.138-.033-.161 0-.161.049 0 .084.03.151.132a1.6 1.6 0 0 0 .138.174c.06.063.072.071.115.071a.1.1 0 0 0 .056-.012.114.114 0 0 0-.017-.061.26.26 0 0 1-.025-.109.125.125 0 0 1 .037-.1c.035-.04.042-.043.106-.043a.193.193 0 0 1 .179.1c.026.041.033.045.083.045a.156.156 0 0 0 .1-.032c.039-.027.051-.03.075-.019a.2.2 0 0 1 .058.06.5.5 0 0 0 .066.081c.034.032.041.034.1.027a.24.24 0 0 1 .1 0c.054.021.06.05.038.171-.02.1-.02.111 0 .161a.4.4 0 0 0 .056.095c.041.046.041.048.06.2a.78.78 0 0 1-.058.409c-.026.068-.066.177-.09.24a.74.74 0 0 1-.078.158l-.034.041h.006l.028-.02.064.1a.9.9 0 0 1 .116.223c.028.063.058.132.085.2a.638.638 0 0 1 .053.535.82.82 0 0 0-.029.329.754.754 0 0 1-.054.357l-.08.226.1.112a.7.7 0 0 0 .062.061.16.16 0 0 0 .093.03c.03 0 .033-.009.036-.071s.038-.125.079-.119c.02 0 .025.014.031.072a.05.05 0 0 1 .025 0c.03 0 .062.033.062.1v.02a.74.74 0 0 0 .181-.148.2.2 0 0 0 .032-.063l-.042.029a.7.7 0 0 0-.08.068.072.072 0 0 1-.112.007c-.042-.033-.049-.08-.026-.171.027-.107.019-.189-.024-.226-.027-.024-.045-.028-.123-.028a.38.38 0 0 1-.11-.011c-.032-.021.005-.07.082-.11.112-.057.118-.1.022-.148-.064-.033-.08-.054-.08-.109a.159.159 0 0 1 .107-.146.14.14 0 0 0 .108-.146.219.219 0 0 0-.1-.193c-.117-.09-.114-.085-.114-.194 0-.079 0-.1.022-.12s.023-.048.028-.121a.47.47 0 0 1 .032-.152c.04-.083.036-.1-.042-.221a.53.53 0 0 1-.064-.323.83.83 0 0 0-.01-.155.3.3 0 0 1 .019-.187c.034-.014.088.024.126.089s.051.077.06.041.068-.03.206.031a1.1 1.1 0 0 0 .85.068 1.37 1.37 0 0 0 .328-.277l-.232-.021c-.326-.028-.345-.038-.686-.342-.145-.129-.208-.19-.23-.26a.24.24 0 0 1-.029-.032.03.03 0 0 0-.026-.018 1.05 1.05 0 0 1-.286-.135 2.2 2.2 0 0 0-.138-.084 2.46 2.46 0 0 0-.617-.128l-.11-.008-.008-.044a.63.63 0 0 0-.112-.25c-.06-.094-.072-.122-.072-.166a.52.52 0 0 0-.112-.265.76.76 0 0 1-.091-.2 1.9 1.9 0 0 0-.072-.2 1.05 1.05 0 0 1-.095-.344 1.4 1.4 0 0 0-.094-.385 1.9 1.9 0 0 1-.073-.26.757.757 0 0 0-.149-.371.87.87 0 0 1-.1-.171.24.24 0 0 0-.041-.079 1 1 0 0 1-.079-.115c-.025-.043-.059-.1-.074-.119a.17.17 0 0 1-.027-.075c0-.051.029-.067.118-.063.19.007.336.152.527.519a1.1 1.1 0 0 0 .432.523.3.3 0 0 0 .141.043c.071 0 .1-.027.105-.109a.87.87 0 0 0-.072-.341 1 1 0 0 1-.055-.276c-.009-.151-.016-.16-.151-.207-.117-.041-.124-.063-.028-.087a.366.366 0 0 1 .306.078c.072.051.086.056.132.051s.064-.018.12-.071.068-.069.064-.109a.222.222 0 0 1 .069-.163.16.16 0 0 0 .03-.037 1.5 1.5 0 0 0 .059-.406.5.5 0 0 0-.149-.432c-.287-.332-.422-.362-1.809-.4-1.285-.039-1.653-.087-1.712-.224a.174.174 0 0 1 .05-.171.244.244 0 0 1 .133-.133c.106-.041.256-.012.548.107l.042.017a2.3 2.3 0 0 0 .7.11c.058 0 .112 0 .164-.009a.97.97 0 0 0 .189-.038h.017c.045-.015.088-.029.112-.039-.039-.014-.132-.034-.252-.059.021.012.013.026-.021.048l.017.006h-.03a.35.35 0 0 1-.132.018c-.045 0-.063-.005-.056-.023a1.4 1.4 0 0 1-.194-.007l-.05-.016a.27.27 0 0 1-.087-.03c-.021-.013-.082-.053-.062-.094s.168-.024.281.017l.169.061a.2.2 0 0 1 .078-.02c-.052-.019-.1-.052-.1-.09a.06.06 0 0 1 .005-.023c-.016-.01-.025-.018-.025-.025s.021-.018.158-.012a1.9 1.9 0 0 1 .319.041 2.08 2.08 0 0 0 .5.039c0-.015-.052-.064-.252-.141a4 4 0 0 0-.586-.168 2.93 2.93 0 0 0-.494-.059l-.136.044c-.125.041-.227.1-.227.132s-.079.052-.25.042a.543.543 0 0 0-.418.1c-.235.161-.25.343-.039.474.182.113.128.131-.068.023a.375.375 0 0 1-.162-.2.22.22 0 0 1-.004-.092.3.3 0 0 0-.034.165.2.2 0 0 0 .013.054.77.77 0 0 0 .14.105.92.92 0 0 0 .238.1 10 10 0 0 0 1.454.1l.594.021c.276 0 .477.006.509.011a1.1 1.1 0 0 1 .242.071 1 1 0 0 1 .1.044.522.522 0 0 1 .347.516c-.006.2-.138.41-.262.41a5.85 5.85 0 0 1-1.241-.309 3.4 3.4 0 0 0-.553-.168c-.111 0-.252.1-.655.442a4.7 4.7 0 0 1-.708.483 1.477 1.477 0 0 0-.967 1.32 1.9 1.9 0 0 1-.409.974 2.417 2.417 0 0 0-.41 1.169 2.4 2.4 0 0 1-.151.689 2.36 2.36 0 0 0-.157.9 1.293 1.293 0 0 1-.135.723 1.58 1.58 0 0 0-.153.539.844.844 0 0 1-.273.613 1.6 1.6 0 0 0-.23.323.66.66 0 0 1-.15.241.7.7 0 0 0-.213.465c.027.025.058 0 .135-.11l.088-.119.028.027a.09.09 0 0 1 .029.043.3.3 0 0 1-.014.041c.025.021.025.073 0 .158a.42.42 0 0 0-.016.088 2.2 2.2 0 0 0 .232.005.77.77 0 0 0 .23-.019l.022-.01c.068-.031.119-.117.157-.261a1.4 1.4 0 0 1 .061-.178v-.02c.013-.184.048-.258.135-.281a1.7 1.7 0 0 0 .031-.24c0-.063.008-.116.014-.162a1.15 1.15 0 0 1 .009-.189 1.23 1.23 0 0 1 .132-.188c.084-.106.149-.194.2-.265a1.5 1.5 0 0 0 .112-.273l.008-.027c.005-.027.009-.056.013-.084.029-.2.017-.169.232-.526.064-.107.16-.284.214-.394a1.5 1.5 0 0 1 .142-.25l.026-.028c.052-.079.066-.079.078-.079.058 0 .109.052.146.14a.3.3 0 0 1-.011-.081c0-.037.006-.039.057-.043s.088-.025.121-.089a.264.264 0 0 0 .025-.152c0-.034-.011-.044-.064-.073a.2.2 0 0 1-.119-.181 2.44 2.44 0 0 1 .022-.562c.021-.073.031-.074.117-.015a2.1 2.1 0 0 0 .462.2.843.843 0 0 0 .428.01 3 3 0 0 0 .361-.281c.041-.039.107-.094.146-.123s.093-.071.119-.094a.164.164 0 0 1 .074-.04.47.47 0 0 1 .2.081.075.075 0 0 1 .033.073c.035-.016.129.167.129.284 0 .158-.076.229-.291.271a.61.61 0 0 0-.242.1c-.072.063-.078.06-.056-.025a1.12 1.12 0 0 1 .235-.307.84.84 0 0 0 .213-.285v-.011a.55.55 0 0 1-.16.138 1.15 1.15 0 0 0-.354.389 5.3 5.3 0 0 0-.176.532.5.5 0 0 0 .078.214 1.68 1.68 0 0 1 .228.374 1 1 0 0 0 .034.107c.039.1-.007.147-.165.186a1.7 1.7 0 0 1-.178.035l-.068.009.02.03c.016.025.02.027.029.01s.035-.019.147-.019a.48.48 0 0 0 .2-.025l.063-.025.03.037c.011.015.041.048.075.084.011 0 .037 0 .1.107a.3.3 0 0 0 .05.047 2.33 2.33 0 0 0-.166-.383c-.051-.1-.117-.228-.147-.292a1.74 1.74 0 0 0-.151-.248 1.1 1.1 0 0 1-.107-.164.48.48 0 0 1 .022-.249c.046-.132.082-.123.083.021 0 .1.013.135.128.3a1.38 1.38 0 0 1 .207.375 2 2 0 0 0 .176.343c-.021-.049-.032-.08-.027-.08a1.6 1.6 0 0 1 .163.241c.08.133.13.25.111.26s-.072-.069-.132-.182a.53.53 0 0 1 .031.122.116.116 0 0 1-.04.071l-.041.04-.025-.033c-.014-.018-.03-.029-.034-.025a.07.07 0 0 0-.007.025 1.73 1.73 0 0 1 .1.278.68.68 0 0 0 .1.217.9.9 0 0 0 .126.033zM13 13.317c.005-.116.008-.114.037.022.026.115.055.143.141.133.062-.007.1.009.079.037-.08.133-.265-.009-.257-.192m1.9-1.072a.132.132 0 0 0 .116-.061c.013-.033.026-.017.028.036 0 .073-.027.1-.116.1-.066 0-.119-.017-.119-.037s.041-.038.091-.038m-.259-4.033a.593.593 0 0 0-.136-.726l-.1-.116.11.058a.71.71 0 0 1 .3.479.94.94 0 0 1-.069.28c-.038.092-.093.168-.121.168s-.025-.055.016-.143M8.8 16.046l-.043.083a.191.191 0 0 1-.192.092.294.294 0 0 1-.093-.212c.008-.047.02-.05.082-.024a.126.126 0 0 0 .157-.024c.058-.046.077-.051.1-.028s.012.059-.011.113m4.455-4.314a.392.392 0 0 0-.13.656.729.729 0 0 0 .59.295l.264.035h-.287a.91.91 0 0 1-.467-.093c-.5-.267-.489-.971.011-.966h.17zm0-2.635a6.1 6.1 0 0 1 .362 1.018c.08.313.2.713.263.888a2 2 0 0 1 .1.318 1.1 1.1 0 0 1-.138-.182 2.83 2.83 0 0 1-.249-.693 3.9 3.9 0 0 0-.264-.757 3.83 3.83 0 0 1-.4-1c.056-.095.116-.019.322.411Zm-.562-.958a.285.285 0 0 1 .144.023.1.1 0 0 1 .025.017l.036.017c.174.087.245.227.159.314-.03.03-.038.006-.024-.069s-.007-.129-.1-.173l-.011-.005a.46.46 0 0 1 .035.142l.007.089-.036-.008c-.027-.006-.038 0-.044.011-.01.029-.047.022-.081-.015a.9.9 0 0 1-.058-.074c-.015-.022-.053-.07-.084-.107a1 1 0 0 1-.033-.04c-.023.048.013.131.125.224.072.061.117.111.1.112a.7.7 0 0 1-.179-.14c-.191-.174-.148-.32.015-.318Zm-.244 1.92a1 1 0 0 1 .149-.01.36.36 0 0 0 .238-.055c.155-.117.124-.262-.107-.494-.145-.145-.17-.185-.165-.259V9.19l.06.062a.8.8 0 0 1 .1.134 5 5 0 0 0 .365.507.445.445 0 0 1 .144.375.226.226 0 0 1-.134.163c-.033.007-.038 0-.045-.025a.8.8 0 0 1 0-.14l.008-.108-.034-.022c-.03-.02-.061-.023-.279-.023s-.252 0-.293-.023l-.048-.023zm-1.964.764a.112.112 0 0 1 .054-.071c.071-.045.081-.071.073-.193-.009-.147.009-.219.055-.22a.2.2 0 0 1 .055.046.31.31 0 0 1 .072.13c.047.145.067.177.111.177.072 0 .075.007.075.178a.351.351 0 0 0 .135.342c.192.192.192.261 0 .171a.8.8 0 0 0-.137-.049.212.212 0 0 1-.144-.076c-.016-.025-.016-.036 0-.1a.191.191 0 0 0-.032-.192c-.021-.02-.042-.023-.128-.021a.6.6 0 0 0-.156.021.5.5 0 0 1-.055.019.72.72 0 0 1 .018-.162zm-1.4 3.9c.026 0 .048.01.048.022 0 .011-.022.035-.048.051s-.048.007-.048-.021a.05.05 0 0 1 .045-.051Zm-.015.348c-.061.04-.085.04-.122 0s-.03-.04-.03-.133a.7.7 0 0 0-.006-.119.047.047 0 0 1 .006-.034c.01-.015.018-.012.049.021a.094.094 0 0 0 .086.04.1.1 0 0 0 .076-.026c.036-.035.064-.022.063.028a.292.292 0 0 1-.125.224zm1.383-1.937a.129.129 0 0 1 .1.155.136.136 0 0 1-.106.125c-.067.018-.116 0-.32-.116a.174.174 0 0 0-.174-.011.63.63 0 0 0-.09.1.63.63 0 0 1-.179.165.66.66 0 0 0-.244.246c-.054.087-.119.159-.142.16a.2.2 0 0 0-.037.005.116.116 0 0 1-.062-.011c-.05-.022-.068-.082-.062-.209a.36.36 0 0 1 .116-.268l.04-.027.03.036a.087.087 0 0 0 .059.036.413.413 0 0 0 .2-.117c.033-.031.09-.084.128-.117a.271.271 0 0 0 .105-.25c0-.161-.012-.195-.088-.264a.272.272 0 0 1-.106-.22c0-.1.05-.163.139-.163.05 0 .084.034.146.142.1.178.252.247.351.162.047-.041.062-.044.089-.017s.018.051.018.194a1.2 1.2 0 0 0 .011.2c.004.03.025.046.075.065zm1.107-1.281a.283.283 0 0 0-.188.079c-.079.1-.322.066-.51-.065a1.04 1.04 0 0 0-.639-.188.7.7 0 0 0-.257.259c-.2.3-.308.333-.308.076a1.405 1.405 0 0 1 .3-.645l.147-.219.025.146c.031.181.183.217.311.072l.091-.1.074.16c.1.209.25.281.6.282a.75.75 0 0 1 .382.072c.091.068.09.071-.031.072zm.092-.359-.21-.244c-.177-.206-.21-.277-.21-.449 0-.235-.082-.453-.17-.453-.033 0-.074-.092-.092-.207a1 1 0 0 0-.173-.388c-.175-.226-.139-.3.246-.516.328-.184.4-.189.465-.037a.9.9 0 0 0 .234.255c.256.194.259.2.226.534-.043.437.073.581.542.676.119.024.179.076.251.22s.131.475.082.486c-.006 0-.277.03-.6.063zm1 3.235c.025-.073.115-.039.137.052.013.053.015.054.06.054s.07.023.07.089c0 .037 0 .043-.037.05a.22.22 0 0 1-.133-.01.24.24 0 0 1-.07-.028.41.41 0 0 1-.03-.206zm-.11-8.055-.015-.005a.9.9 0 0 0-.1-.029h.011a.36.36 0 0 0 .104.034m-.578-.411q-.075.008-.147.021a1.29 1.29 0 0 0-.678.305l.021-.019a1.485 1.485 0 0 1 .804-.307"/></svg>