<svg xmlns="http://www.w3.org/2000/svg" viewBox="0 0 24 24"><path fill="#44739e" d="M13.362 3.451a.74.74 0 0 0 .049-.564.6.6 0 0 0-.096-.209.98.98 0 0 1 .104.451.82.82 0 0 1-.057.322m-.283.271.133.386.038.1c.113.273.196.505.196.515 0 .006-.008.011-.02.013h-.346l-.007-.018h-.028l.016.046h.403l-.178-.518-.177-.518.092-.087a.34.34 0 0 1-.067.027Zm-.613.988h-.267v.021h.298V4.7h-.031Zm.339-.729c-.07-.159-.119-.21-.192-.22a.113.113 0 0 0-.097.013.08.08 0 0 0-.02.026v.172c.007-.191.03-.198.113-.185s.149.113.282.498l.06.174c-.03-.099-.07-.226-.113-.355Zm-.606.75v-.024h-.017v-.015h-.027a.3.3 0 0 0 0 .038.18.18 0 0 0 .044.001m.694-.531a1.7 1.7 0 0 0 .063.235 1.02 1.02 0 0 0 .105.248l-.143-.404Zm-.705-.495v-.113l.015-1.104h.389a1.92 1.92 0 0 1 .395.033c.029 0 .042-.011.029-.018a1.2 1.2 0 0 0-.145-.025 3 3 0 0 0-.303-.014h-.387v.171l.011.969ZM6.699 5.207a1.24 1.24 0 0 1-.172.043c-.078.015-.113.019-.13 0a.045.045 0 0 1-.019 0v-.016a.52.52 0 0 1-.055-.164c-.007-.037-.012-.07-.015-.102a6 6 0 0 0-.058-.244l-.225.044a.565.565 0 0 0-.215.064l-.007.044c.037-.047.104-.058.237-.084l.196-.038.064.278c.064.271.069.276.236.244a.88.88 0 0 0 .192-.052.11.11 0 0 0 0-.045l-.031.004Zm-1.056.271a1.5 1.5 0 0 1-.194.053h-.026l-.048.02c-.045.023-.045.023-.085.006l-.007.032.171-.037a1.2 1.2 0 0 0 .205-.058c.006 0 .013-.021.022-.048l-.031.011Zm.549-2.344c.037.123.097.331.163.565l.089.304c-.105-.412-.206-.79-.24-.873Zm.01-.013v-.01l-.018-.007v.017Zm.166 2.115c0 .008.01.011.013.006a.8.8 0 0 1-.065-.214l-.008-.071v.02c.028.117.053.221.06.259m-.291-2.117a.28.28 0 0 0-.196.067c-.054.069-.556 2.177-.549 2.307l.051-.217c.093-.402.185-.811.276-1.213.197-.877.2-.878.347-.919a.54.54 0 0 1 .136-.017.09.09 0 0 1 .031 0v.008h.011v-.012ZM2.434 4.225c0 .122-.009.256-.01.401l.007.01a4.6 4.6 0 0 1 .003-.411m-.013.016a.16.16 0 0 0-.009.055v.278a.2.2 0 0 0 .006.049v-.068c-.003-.129-.003-.231.003-.314m3.696.151a.53.53 0 0 0 0-.226l-.007-.058v-.014l-.081-.319h-.007l-.01.042.068.278a.655.655 0 0 1 .037.297m-.147-.368c-.018.089-.038.188-.054.273.016-.072.036-.168.051-.254Zm-.083.423-.007.043.009.009h.008l.041-.011a.053.053 0 0 1-.051-.041m.215-.029a.1.1 0 0 1-.025.023l-.041.023h.016a.15.15 0 0 0 .05-.046m-.082.058a.7.7 0 0 0-.076.04.29.29 0 0 0 .145-.053.16.16 0 0 0 .026-.021l-.063.018Zm9.523.464.189.022v-.51c0-.565-.019-.545.39-.476l.076.013v-.014l-.219-.035-.164-.024a.13.13 0 0 0-.048.024c-.063.053-.063.166-.063.44v.566s-.104-.007-.225-.023l-.127-.016Zm.173-1.482a.226.226 0 0 0 .035.094l.009.012.049.008c-.083-.052-.079-.159-.079-.452a2.4 2.4 0 0 0-.018-.359v.347c0 .14.001.268.004.35m-.292-.801.044.012a1.2 1.2 0 0 0 .17.033l-.069-.021a.52.52 0 0 0-.145-.024m-.058 1.136.012 1.108V2.749c-.011.175-.017.578-.012 1.044m.574-.154.113.018.27.038a.12.12 0 0 0 .024-.033v-.831a1.41 1.41 0 0 0-.026.397v.439l-.28-.022Zm.654-.759a.15.15 0 0 0 .027 0v-.013a.2.2 0 0 0-.027-.021Zm-.237 1.98c0-.076-.007-.183-.007-.339v-.279c0 .039-.006.145-.006.304 0 .233.005.354.013.314m.005-2.049.219.025a.42.42 0 0 0-.092-.038h-.017l-.071-.009a.056.056 0 0 0-.039.022m-.687-.088h.027l-.033-.01Zm-4.274 3.702a.9.9 0 0 1-.332-.124.24.24 0 0 1-.094-.113.34.34 0 0 1-.04-.047.259.259 0 0 0 .121.182 2.03 2.03 0 0 0 .985.202 9 9 0 0 1-.362-.045 2.3 2.3 0 0 1-.278-.055m1.178 8.696c0-.06 0-.077-.028-.103.015.033.028.067.028.103m-.122-.417a2.3 2.3 0 0 0-.065-.126c-.018-.033-.077-.079-.113-.121a.08.08 0 0 0-.051.034.903.903 0 0 0-.113.527.393.393 0 0 1-.066.293 1.4 1.4 0 0 0-.143.352.556.556 0 0 1-.551.331c-.031 0-.103 0-.113-.017s0-.02 0-.035h-.025c-.013.071.017.086.144.086a.577.577 0 0 0 .577-.352 1.36 1.36 0 0 1 .139-.339.418.418 0 0 0 .07-.313c-.036-.148.062-.529.138-.529.036 0 .134.18.211.365v-.053c0-.015-.024-.072-.039-.103M11.1 15.843c-.017.028-.037.045-.052.04s-.02-.017-.027-.041l-.023.014c.023.069.079.077.126 0 .023-.038.047-.055.066-.055v-.026c-.021-.001-.055.01-.09.068m1.744-9.803a1.705 1.705 0 0 1-.791-.125l-.057-.019c-.405-.144-.602-.145-.727 0l-.034.041a.084.084 0 0 0 0 .041.6.6 0 0 1 .051-.064c.113-.131.304-.127.697.013a2.24 2.24 0 0 0 1.274.084l.044-.013c-.072.012-.163.024-.265.032a1.7 1.7 0 0 1-.192.01m2.417 1.74-.011.025c-.076.189-.073.226.057.414a1.63 1.63 0 0 1 .187.413 1.45 1.45 0 0 0 .226.433 1.67 1.67 0 0 1 .311.874 2.26 2.26 0 0 1-.085.452 1.1 1.1 0 0 0 .006.732 2.37 2.37 0 0 1 .061.634.49.49 0 0 0 0 .203l.052.047c-.046-.069-.041-.127-.025-.247a2.37 2.37 0 0 0-.062-.643 1.08 1.08 0 0 1-.006-.718 2.2 2.2 0 0 0 .086-.462 1.72 1.72 0 0 0-.316-.891 1.4 1.4 0 0 1-.226-.421 1.74 1.74 0 0 0-.191-.42c-.125-.188-.129-.21-.054-.39a1.2 1.2 0 0 0 .062-.271 1.13 1.13 0 0 1-.072.236m2.052 4.886-.113.139c-.241.29-.638.338-1.149.13a1.2 1.2 0 0 0-.155-.052c-.067-.018-.088-.014-.1 0s-.018.029.017.129c.021.063.053.139.089.218a.666.666 0 0 1 .075.565 2.44 2.44 0 0 0-.011 1.017.95.95 0 0 1 .03.317.9.9 0 0 0 .062.356c.048.137.065.196.052.248l.011-.008-.02.04a.18.18 0 0 1-.027.039l-.026.036c-.091.124-.153.153-.17.147s-.006-.007-.009-.016l-.023.012c.02.071.113.02.225-.127.093-.126.094-.15.014-.38a.87.87 0 0 1-.061-.339 1 1 0 0 0-.029-.33 2.43 2.43 0 0 1 .01-1.004.692.692 0 0 0-.077-.577 1.05 1.05 0 0 1-.113-.319.51.51 0 0 1 .226.059c.523.209.931.162 1.179-.138l.147-.177h-.041l-.018.025Zm-5.599 1.856v-.009c0-.08-.044-.1-.069-.105-.112-.022-.338.171-.451.382v.077c.125-.303.481-.565.497-.368l.018.014Zm2.125-8.725c.13.01.165 0 .167-.026a.1.1 0 0 1-.023.011.52.52 0 0 1-.144.015m.959 7.957a1.334 1.334 0 0 0-.653 1.03.836.836 0 0 1-.16.488c-.119.151-.127.16-.635.189s-.518.018-.606-.08l-.021-.027a.34.34 0 0 1-.044-.018.45.45 0 0 0 .046.063c.098.113.141.113.626.089s.525-.036.655-.2a.862.862 0 0 0 .166-.5 1.299 1.299 0 0 1 .64-1.017l.312-.225-.022-.017Zm.539.125c-.045-.097-.085-.18-.113-.226l-.02-.032a.32.32 0 0 0-.055-.054l-.021-.016.074.113a4 4 0 0 1 .204.439c.025.063.045.113.061.159a1.86 1.86 0 0 0-.113-.352Zm.094 1.196v.012a.27.27 0 0 1 .007.08.18.18 0 0 0 .015-.039.16.16 0 0 0-.022-.053m-6.669 1.449a.47.47 0 0 1-.065.177.68.68 0 0 0-.088.163c0 .036-.006.069-.011.099a.93.93 0 0 1 .119-.245.52.52 0 0 0 .073-.2h-.018Zm7.005-.69a.14.14 0 0 0-.095.094c-.014.037-.031.057-.053.06s-.057 0-.122-.055a.68.68 0 0 1-.113-.087.49.49 0 0 1-.099-.121l-.006.019.126.138c.146.157.245.176.29.057a.12.12 0 0 1 .074-.079v-.009Zm-7.946 1.267a.045.045 0 0 0-.021 0c-.037 0-.086.043-.145.129-.032.047-.057.072-.073.073s-.012 0-.031-.018a.08.08 0 0 1-.019-.039.11.11 0 0 1-.025-.037v-.011a.14.14 0 0 0 .031.106c.045.046.082.031.144-.06s.126-.138.144-.104l.01-.031Zm2.274-7.412-.008.051a1.97 1.97 0 0 1-.106.465 1.4 1.4 0 0 0 .06-.129.89.89 0 0 0 .054-.387m4.714-3.17a2.74 2.74 0 0 1 .36.285.95.95 0 0 0-.36-.285M8.368 17.358l-.03.013a1.04 1.04 0 0 1-.501.075c-.017-.008-.022-.03-.021-.059H7.79c0 .047.009.075.036.088a1.06 1.06 0 0 0 .548-.087.267.267 0 0 0 .113-.103.38.38 0 0 1-.113.078Zm.779-4.937v-.18a2.26 2.26 0 0 1-.061.339l.007-.018Zm1.708 2.82a1.626 1.626 0 0 0-.423.586c-.032.071-.066.141-.097.205a.27.27 0 0 1-.023.051c-.048.098-.085.174-.1.199a1 1 0 0 0-.078.181.608.608 0 0 1-.442.281.4.4 0 0 1-.129.016.15.15 0 0 1 .007-.057h-.026c-.023.101 0 .101.153.069a.627.627 0 0 0 .462-.299 1.05 1.05 0 0 1 .076-.175c.026-.045.126-.252.226-.459a1.6 1.6 0 0 1 .415-.576 1.5 1.5 0 0 0 .146-.142l-.078.044a1.1 1.1 0 0 1-.089.076m-2.051-1.1a1.84 1.84 0 0 1-.045.389l.038-.078Zm4.615-8.418-.226-.031c-.195-.026-.245-.007-.268.012l-.012.015.023.012c.018-.029.102-.033.253-.013.179.025.319.043.431.056h-.018a1.6 1.6 0 0 0-.183-.051m-4.918 9.566.006-.055a2 2 0 0 0-.023.155 1.47 1.47 0 0 1-.053.299.17.17 0 0 0 .043-.09q.015-.156.027-.309m.916 1.275c-.019.02-.035.026-.048.021a.077.077 0 0 1-.035-.04l-.024.013c.032.061.077.075.125.026a.19.19 0 0 1 .099-.066l.012-.026q-.0525-.0105-.129.072m.711-3.093a.085.085 0 0 0-.041.032l-.049.055c-.029.043-.069.113-.124.204-.104.186-.249.459-.419.791a3.16 3.16 0 0 0-.165.452 1.24 1.24 0 0 1-.038.169.95.95 0 0 1-.097.169 1.7 1.7 0 0 1-.163.262.813.813 0 0 0-.219.464v.26-.076a.855.855 0 0 1 .226-.631 1.97 1.97 0 0 0 .295-.579 3.16 3.16 0 0 1 .171-.479 6 6 0 0 1 .608-1.07c.065 0 .124.079.164.204a.23.23 0 0 0-.025-.08c-.017-.061-.097-.147-.124-.147m.312.978a.113.113 0 0 1-.048-.072.08.08 0 0 1-.028-.007.147.147 0 0 0 .065.102l.033.021.01-.025Zm-.072-.368a1.2 1.2 0 0 0-.077-.452c0 .015.008.029.013.044a.46.46 0 0 1 .025.211 1.6 1.6 0 0 1 .012.199 1.9 1.9 0 0 0 .008.2.18.18 0 0 0 .033.053 1.6 1.6 0 0 1-.014-.255m4.195-7.42a3.28 3.28 0 0 0-.849-.093h-.852.178c1.254.04 1.404.054 1.622.162.029.016.058.03.084.046a.56.56 0 0 0-.07-.056.73.73 0 0 0-.113-.059m-3.408-.926c-.104.092-.148.147-.157.208a.75.75 0 0 1 .138-.19Zm1.935.132h.015a.23.23 0 0 0-.052-.019.17.17 0 0 0-.042 0l.046.013Zm-1.003-.5a2.9 2.9 0 0 1 .389-.015l.071-.023h-.053l-.24.022c-.057.002-.113.009-.167.016m5.349-1.269v.55c0 .355-.008.599-.012.602a7.6 7.6 0 0 0 .041-1.113c0-.405-.008-.765-.019-.969Zm-.226 1.12-.132-.026Zm.02-2.258.093.025.053-.01-.025-.008h-.097Zm-.139 1.104.012 1.113.002-.121V2.954l-.026-.002Zm1.135.703.013-.565-.025-.059-.014.617a3.6 3.6 0 0 1-.034.595.5.5 0 0 1 0 .048c.041-.017.044-.15.06-.636m.226-.926a5.1 5.1 0 0 0 .257.609v-.058c-.049-.095-.122-.281-.232-.565a1.91 1.91 0 0 0-.329-.649c.011.021.024.05.04.086a3.03 3.03 0 0 1 .264.577m.496 1.827a.16.16 0 0 0 .088.027l-.071-.022Zm-.12-1.709v-.578l.179.049-.016-.008-.128-.059-.034-.009-.027.661v.027c0 .159 0 .275-.009.345v.098c.032-.034.035-.155.035-.526m-.037 1.449.006-.013c-.025-.051-.051-.113-.079-.173-.016-.015-.022 0-.013.038l.069.148Zm.283-1.927h.026v-.007l-.027-.014ZM2.426 4.93a.4.4 0 0 1 0-.058v-.051h-.009v.207h.013v-.026a.34.34 0 0 1-.004-.072m-.026 0v.011c0 .048 0 .077.02.09v-.202c-.015.015-.02.045-.02.101m10.364.904h-.024l.156.057h.008-.007a.265.265 0 0 0-.133-.057m.003.105h.086a.2.2 0 0 1 .02-.026h-.106a.61.61 0 0 1-.269-.047l-.032-.025c0 .021.03.043.074.063l.044.017a.9.9 0 0 0 .172.018Zm-.25-.164a.6.6 0 0 1 .096.017.113.113 0 0 0-.096-.017m.387.107.023.017.029.01h-.017c.01.011.007.019 0 .026h.131l.014-.008-.157-.057ZM8.175 3.773a.26.26 0 0 0-.015.037l.015.565c0 .172.008.296.015.385v-.425c-.005-.315-.009-.57-.015-.562m.284 1.129a.64.64 0 0 0-.196.035.026.026 0 0 1-.015 0 .056.056 0 0 1-.013-.026h-.026c.014.05.034.057.063.046a.61.61 0 0 1 .187-.033c.033 0 .056 0 .071-.055H8.5a.036.036 0 0 1-.041.033m-.666.079-.026.096-.044-.134a2.3 2.3 0 0 1-.122-.351l-.021-.076c-.04-.113-.071-.21-.097-.282l-.048-.132c-.033-.083-.051-.113-.076-.113v.026a2 2 0 0 1 .202.523l.21.626.15-.546c-.085.283-.108.349-.128.363m-.522.116a.58.58 0 0 1-.165.026.036.036 0 0 1-.035-.014h-.028a.058.058 0 0 0 .063.034.61.61 0 0 0 .176-.027c.019-.008.032-.027.042-.062l-.032.016a.05.05 0 0 1-.021.027m-.225-.079v-.031c-.014-.143-.015-.415-.015-.959v-1.06c-.016.16-.027.578-.027 1.065 0 .41.006.764.014.955a.45.45 0 0 0 .023.119c-.002-.02.005-.051.005-.089m.859-1.28c.046-.149.113-.37.173-.565.133-.443.14-.451.289-.475a.07.07 0 0 1 .034-.013h-.11c-.066.019-.1.06-.15.198l-.113.389c-.049.171-.093.341-.123.466m-.733-.844a.45.45 0 0 1 .15-.009c0-.014-.012-.024-.033-.029a.6.6 0 0 0-.082 0 1 1 0 0 1-.158.034s0 .012-.008.028Zm1.264-.207a.17.17 0 0 0-.041 0h.032Zm-4.185.988c.017 0 .032-.011.047-.015h.011l-.051.017Zm-.162.057.114-.04Zm.506 2.113.127-.047a3 3 0 0 0 .328-.133l-.092.035c-.117.047-.246.096-.363.145m-.447.128a.67.67 0 0 1-.026-.204c-.007-.161-.008-.413-.008-.882v-1.13l.151-.054.136-.045a.172.172 0 0 0-.106.009h-.012l-.196.091v1.199a3.31 3.31 0 0 0 .061 1.016m.677-.525c.146-.051.262-.089.307-.103v.015c.035-.035.007-.041-.081-.014l-.036.012-.092.03a2.3 2.3 0 0 0-.316.137Zm4.492-2.25v-.3h.178c.173 0 .267.054.296.177v-.041a.38.38 0 0 0-.063-.112.407.407 0 0 0-.226-.054h-.211v.578h.026Zm.197.262h.016l.02-.007Zm.314-.283a.33.33 0 0 0-.055-.206.45.45 0 0 1 .013.063.312.312 0 0 1-.103.398.29.29 0 0 1-.159.028l-.099.028-.134.039.206-.039c.248-.045.331-.124.331-.311m1.622 1.51a.84.84 0 0 1-.145.046.854.854 0 0 1-.378 0 .34.34 0 0 1-.054-.016l-.022-.007a.034.034 0 0 1-.021-.007.8.8 0 0 1-.07-.031.393.393 0 0 0 .329.097.81.81 0 0 0 .361-.082m.373-.892a3.3 3.3 0 0 0 0-.408Zm-.993.903.021.008a.42.42 0 0 1-.131-.113 1.56 1.56 0 0 1-.24-.85 1.875 1.875 0 0 1 .157-.932.9.9 0 0 1 .052-.079h-.014c-.014 0 .016-.048.068-.113a1.468 1.468 0 0 0-.288.873 2.225 2.225 0 0 0 .142.926.68.68 0 0 0 .098.147.9.9 0 0 0 .135.133m.344-2.268a.36.36 0 0 1 .113.021.417.417 0 0 0-.419.066.13.13 0 0 1-.029.052.576.576 0 0 1 .335-.139m-.431.196.015-.015a.9.9 0 0 1 .113-.094.8.8 0 0 0-.113.091l-.017.018Zm2.231.718a.6.6 0 0 1-.148.064h.035a.6.6 0 0 0 .095-.045Zm-.477-.57.226.03a.478.478 0 0 1 .306.146l-.022-.034-.027-.042a.576.576 0 0 0-.251-.09l-.133-.018-.107.006v.605l.008.029h.029a1.16 1.16 0 0 1-.034-.33Zm.534.17.009.015a.242.242 0 0 1 .053.14.247.247 0 0 1-.134.264l-.046.042a.34.34 0 0 0 .137-.093.311.311 0 0 0 .051-.31.305.305 0 0 0-.087-.113.4.4 0 0 1 .017.055m-.339.506-.089.016h.066a.79.79 0 0 0 .233-.057h-.044a.9.9 0 0 1-.166.041m-1.382.896c.009-.013.019-.026.028-.041v-.007a.4.4 0 0 1-.042.052Zm-.361-.059a1.344 1.344 0 0 1-.113-.645c-.014-.426 0-.524.096-.678.14-.225.315-.225.431.019a2.496 2.496 0 0 1 .017 1.242 1.28 1.28 0 0 0 .072-.319V3.68c0-.146 0-.29-.008-.397a.885.885 0 0 0-.131-.392.6.6 0 0 0-.05-.058.32.32 0 0 0-.094-.039.5.5 0 0 0-.127.036l-.05.019a.52.52 0 0 0-.082.104.627.627 0 0 0-.1.33v.397a1.265 1.265 0 0 0 .113.62.6.6 0 0 0 .04.055.25.25 0 0 0 .05.022l.016.006a.4.4 0 0 1-.08-.096m.501-.385v.104a3.08 3.08 0 0 0-.015-.873v.145a2.45 2.45 0 0 1 .015.624m-.361-1.121a.28.28 0 0 1 .08.008.113.113 0 0 1 .094.04.4.4 0 0 1 .063.048.3.3 0 0 1 .029.033.254.254 0 0 0-.196-.14.22.22 0 0 0-.07.011m.221 1.565a.176.176 0 0 1-.146.082.15.15 0 0 1-.038 0h-.032a.5.5 0 0 0-.058 0 .2.2 0 0 0 .113.037.28.28 0 0 0 .225-.154l.008-.015a.34.34 0 0 1-.072.05m-1.476-.088v-.044a.47.47 0 0 1-.042.112.262.262 0 0 1-.138.129.18.18 0 0 0 .048-.012.344.344 0 0 0 .132-.185m-.132-.438a.34.34 0 0 0-.052-.024h-.13a.313.313 0 0 1 .28.152.5.5 0 0 0-.08-.113Zm-.385.346c0-.286.014-.331.113-.357a.4.4 0 0 1 .078-.012h-.133c-.075.039-.084.126-.084.363v.288h.026Zm.517.092a.215.215 0 0 1-.034.087.177.177 0 0 1-.095.093.297.297 0 0 1-.167.053.5.5 0 0 0-.151.026l.133-.011h.069a.293.293 0 0 0 .226-.163.392.392 0 0 0 .016-.372.51.51 0 0 1 .003.287m10.026-.524.049.016v1.13c0 .581 0 .994-.01 1.107l-.019-.007v.027l.045.015c.008 0 .013-.511.013-1.142V3.732l-.119-.043.044.02Zm-.127 2.226-.032-.014c-.051-.023-.105-.044-.147-.061v.016Zm-.151-.069v-1.13c0-.589.007-1.007.014-1.112.031.009.087.027.158.052l.099.035a.45.45 0 0 0-.133-.075l-.072-.023-.053-.017h-.019a3.8 3.8 0 0 0-.015.406l.008.73ZM9.329 4.844a2.23 2.23 0 0 0 .522-.102l.024-.011a1.4 1.4 0 0 1-.151.022 3.2 3.2 0 0 1-.397.065l-.362.038v-.035h-.027v.063Zm.653-1.265a.06.06 0 0 0 0 .024l.029.009a.07.07 0 0 1 0-.049l-.014.008Zm-.113-.969a.54.54 0 0 0-.226-.025.8.8 0 0 1 .226.045Zm.202 1.125a.34.34 0 0 1 .05.061c0-.013 0-.035-.017-.066l-.009-.016-.032-.031a.097.097 0 0 0-.048-.017.9.9 0 0 0 .056.069M8.965 4.762l.014-1.016.014-1.122.3-.039h.049l-.377.011-.013 1.144v.087c-.006.484-.001.791.013.935m.444-2.184a.113.113 0 0 0-.064 0h.032Zm3.441-.815c-.264-.013-.964-.015-1.386 0h-.04q.732-.016 1.426 0M3.136 5.224c0-.226-.012-.42-.014-.577-.008.244-.008.581 0 .94.035.929.113 1.835.226 2.697a23.5 23.5 0 0 0 .553 2.823c.061.226.125.459.192.686.102.31.21.619.328.924a24.4 24.4 0 0 1-1.285-7.493m11.053-.852a.79.79 0 0 1-.123-.325.494.494 0 0 0 .123.325m.376-1.816a.638.638 0 0 1 .4.478l.01.049a.51.51 0 0 0-.079-.241.553.553 0 0 0-.539-.329h-.013a.424.424 0 0 1 .221.043m-.046 1.414a.16.16 0 0 1-.081-.013h-.035c.018.032.052.039.113.039a.158.158 0 0 1 .102.022v-.03a.226.226 0 0 0-.099-.018m.478-.231v.075a1.2 1.2 0 0 1 .007.167c0 .057 0 .113-.008.167 0 .113 0 .18-.006.226a1.8 1.8 0 0 0 .04-.393.45.45 0 0 0-.033-.242m-.692-.901-.048.012a.48.48 0 0 0-.187.305l-.009.034v.144c.037-.239.113-.43.226-.465a.246.246 0 0 1 .201.052l-.018-.017a.244.244 0 0 0-.165-.065m.081.979c0 .104.009.125.022.072v-.192c-.022.017-.022.057-.022.12m-.528.688a1.965 1.965 0 0 1-.145-.869 1.347 1.347 0 0 1 .243-.951.538.538 0 0 1 .401-.147.68.68 0 0 1 .203.029s.007-.007 0-.013a.68.68 0 0 0-.232-.04.6.6 0 0 0-.103.008l-.045.009a.634.634 0 0 0-.397.376 2.06 2.06 0 0 0-.101.729c0 .104 0 .199.01.287a1.55 1.55 0 0 0 .092.441c.029.055.052.104.074.141m.781-1.386a.025.025 0 0 1-.013-.02.17.17 0 0 0-.016-.069.16.16 0 0 0-.007.064v.029a.07.07 0 0 0 .023.021l.008-.016Zm-.027.555h.024c.082.009.147.014.198.022h.09l-.033-.01h-.199Zm-.327.785-.04.005a.243.243 0 0 0 .236.041.312.312 0 0 0 .181-.226.5.5 0 0 0-.026.045.226.226 0 0 1-.087.105.209.209 0 0 1-.264.03m-8.231-.355-.041-.171-.02.113c-.022.122-.052.264-.07.331v.016c-.01.031-.009.054 0 .063s.069.007.14-.039c.043-.025.053-.058-.009-.313m6.495 17.884.175-.144.352-.292a18.2 18.2 0 0 0 3.769-3.881 29 29 0 0 0 1.766-2.936 19.61 19.61 0 0 0 2.064-7.454 26.7 26.7 0 0 0 .149-2.889 1.264 1.264 0 0 0-.734-1.169l-.339-.16a9.26 9.26 0 0 0-1.435-.538q-.333-.094-.678-.175c-.295-.069-.608-.133-.942-.192-.666-.113-1.504-.226-2.301-.297q-1.401-.107-2.983-.076c-.565.012-1.098.033-1.606.067a25.1 25.1 0 0 0-3.239.507c-.678.149-1.427.354-1.981.532l-.318.12c-.166.065-.301.121-.413.17a1.47 1.47 0 0 0-.445.417 1.93 1.93 0 0 0-.264.708v.008c0 .199.007.482.017.904a23.73 23.73 0 0 0 1.573 8.26c.262.598.737 1.605.891 1.88s.396.692.574.982a19.7 19.7 0 0 0 1.183 1.735 19 19 0 0 0 1.954 2.139 22 22 0 0 0 2.326 1.893 1.19 1.19 0 0 0 .356.17.54.54 0 0 0 .128-.03 4.3 4.3 0 0 0 .401-.259M19.438 3.56h.031a.45.45 0 0 1 .093.027h.012a1.9 1.9 0 0 1 .197.061l.187.066v1.97c0 .348 0 .349-.022.36l-.011.008h-.013l-.187-.062-.193-.063v-.05l-.04-.017-.057-.011Zm-1.717-.523h.042a2.2 2.2 0 0 1 .339.08l.009.009a.36.36 0 0 1 .113.104 3 3 0 0 1 .273.59c.082.208.155.398.207.512V3.299h.041a.17.17 0 0 1 .064.012l.095.036.226.06v.015h.011v.763l.006.373a6.8 6.8 0 0 1-.022 1.054v.106l-.045-.015h-.008a.07.07 0 0 1-.037.009.294.294 0 0 1-.132-.054.12.12 0 0 1-.025-.025l-.06-.019-.316-.782c-.09-.225-.175-.429-.235-.574l-.011.499c-.013.511-.016.62-.068.659a.113.113 0 0 1-.101 0 .87.87 0 0 0-.18-.032.049.049 0 0 1-.044-.034c-.051-.011-.09-.018-.1-.018h-.035Zm-.771.65c0-.775 0-.824.027-.825a.7.7 0 0 1 .075.012v-.012l.18.044.122.034h.007l.077.015v.02a1.19 1.19 0 0 1 .033.36c.007.217.011.501.011.801s0 .564-.011.777c-.012.338-.025.346-.038.356a.028.028 0 0 1-.018.007l-.187-.03-.171-.027v-.036a.8.8 0 0 1-.091-.023c-.015-.006-.019-.672-.016-1.472Zm-1.683-1.09h.06v-.021l.154.042c.083.011.17.023.201.029l.03.007v.026a1.095 1.095 0 0 1 .045.439v.043c0 .206 0 .308.037.359s.113.061.271.083l.148.021c.014-.012.014-.08.009-.444l-.008-.451h.044a2.7 2.7 0 0 1 .267.042l.12.02v.011h.01v.618l.008.62a5.7 5.7 0 0 1-.018.96.7.7 0 0 1-.007.104l-.055-.007a.1.1 0 0 1-.045.009.43.43 0 0 1-.106-.02h-.018a.15.15 0 0 1-.047-.023 1.1 1.1 0 0 0-.123-.017h-.051V4.016l-.08-.014-.048-.009c-.145-.023-.232-.039-.268-.008s-.044.158-.044.399v.608l-.43-.051v-.033l-.06-.009Zm-1.594.427a.745.745 0 0 1 .226-.354l.019-.021a.592.592 0 0 1 .439-.163.577.577 0 0 1 .565.338c.082.163.1.248.066.303v.006c0 .019-.012.028-.037.031a.33.33 0 0 1-.158.027.395.395 0 0 1-.156-.023h-.048l-.008-.058v-.013a.3.3 0 0 0-.025-.06.294.294 0 0 0-.086-.096.226.226 0 0 0-.178-.05c-.068.021-.128.12-.171.277a2.11 2.11 0 0 0-.054.668.96.96 0 0 0 .157.534.294.294 0 0 0 .113.084h.028a.7.7 0 0 0 .098 0 .272.272 0 0 0 .147-.2v-.191c-.011-.034-.038-.04-.1-.04-.084 0-.125-.017-.145-.066h-.015v-.043a.7.7 0 0 1 0-.104v-.209l.186.018h.451v.086c.056.047.059.126.059.28a.983.983 0 0 1-.246.779.67.67 0 0 1-.25.099.85.85 0 0 1-.278.009.5.5 0 0 1-.078-.02.6.6 0 0 1-.275-.149.86.86 0 0 1-.186-.238c-.081-.162-.087-.233-.087-.833a3.84 3.84 0 0 1 .027-.607Zm-1.589-.649.326.009c.523.015.634.025.702.067a.5.5 0 0 1 .136.122.538.538 0 0 1 .189.307.716.716 0 0 1-.164.728l-.129.129.172.501.19.553h-.464l-.172-.498c-.127-.365-.183-.469-.261-.48h-.056a1.21 1.21 0 0 0-.029.439v.51h-.192c-.177 0-.187-.01-.194-.017s-.01-.006-.01-.056l-.044-.007Zm-1.567.436a.713.713 0 0 1 .606-.429.27.27 0 0 1 .051 0 .474.474 0 0 1 .242.074l.04.021a.81.81 0 0 1 .273.284.68.68 0 0 1 .087.372 2.94 2.94 0 0 1 0 .921c0 .077 0 .131-.007.153a.593.593 0 0 1-.263.429.45.45 0 0 1-.072.069.78.78 0 0 1-.389.09.408.408 0 0 1-.403-.167.52.52 0 0 1-.17-.182c-.063-.113-.072-.168-.082-.621a3.2 3.2 0 0 1-.005-.339c-.003-.449.009-.507.092-.675m-1.625.864c0-.633.01-1.152.012-1.153s.443-.045.671-.062l.226-.017.068.035a.49.49 0 0 1 .236.25.8.8 0 0 1 .042.113.635.635 0 0 1 .02.442.474.474 0 0 1-.125.25.124.124 0 0 0-.018.057.08.08 0 0 0 .019.042.34.34 0 0 1 .085.06.771.771 0 0 1-.057.916.5.5 0 0 1-.082.076.6.6 0 0 1-.13.086 2.26 2.26 0 0 1-.531.104l-.421.042v-.09h-.031ZM5.191 5.528v.084l-.044.015a1.24 1.24 0 0 1-.416.196c-.201.074-.399.149-.492.185-.084.045-.141.059-.151.037v-.153c-.016-.139-.017-.42-.017-1.009V3.714l.187-.066a1.9 1.9 0 0 1 .19-.062h.009l.036-.014s.01.435.01.968c0 .495 0 .889.01.956l.122-.039c.136-.062.527-.226.544-.226a.56.56 0 0 1 .012.154v.084c0 .031.001.042 0 .059m1.555-.358a.23.23 0 0 1 0 .051.029.029 0 0 1-.009.023.9.9 0 0 1-.205.058c-.19.036-.201.013-.266-.264l-.06-.252-.179.034c-.121.023-.182.035-.214.073a.644.644 0 0 0-.061.277v.013c-.01.081-.023.159-.037.225-.022.107-.037.113-.047.12a1.24 1.24 0 0 1-.213.061l-.207.045.03-.131c.009-.06.035-.18.092-.431l.271-1.233c.161-.733.166-.749.198-.753s.095-.02.172-.039a.75.75 0 0 1 .143-.031s.008.024.021.065a.07.07 0 0 1 .04.017c.008.008.021.02.113.345.05.184.113.433.181.698.012.049.07.279.127.514l.028.099c.06.206.113.384.113.397s-.009.01-.031.019m.619-1.098c0 .023-.006.049-.007.061s0 .048 0 .077v.275c0 .08 0 .161.007.236.015.294 0 .398-.071.424a.6.6 0 0 1-.184.031.086.086 0 0 1-.09-.057h-.026c-.061-.007-.061.04-.061-.727 0-.394 0-.913.009-1.152l.009-.435h.041a1.7 1.7 0 0 0 .201-.033c.113-.021.162-.027.165-.017l.035.103a4.74 4.74 0 0 1 .226.634l.077.249c.029.086.049.139.05.142s.012-.015.02-.04.097-.314.198-.643.186-.6.189-.605.021 0 .04 0a2.26 2.26 0 0 0 .339-.033c.04-.008.043 0 .049.039v.016h.007v2.246l-.039.007c-.017.064-.045.086-.1.086a.59.59 0 0 0-.177.031.068.068 0 0 1-.062 0c-.049-.031-.061-.134-.074-.605V3.94l-.364 1.318-.237-.709c-.066-.197-.135-.4-.17-.477m4.596 11.602a.602.602 0 0 1-.604.373c-.083 0-.133-.006-.158-.037a.102.102 0 0 1-.011-.084h-.01l.009-.094c-.008 0-.024.012-.042.042-.045.074-.092.07-.113.065a.113.113 0 0 1-.07-.102.5.5 0 0 1 0-.161.76.76 0 0 1 .339-.565.314.314 0 0 0 .137-.171c.029-.063.095-.182.143-.264a2 2 0 0 0 .068-.12.18.18 0 0 0 0-.039c0-.049-.019-.052-.027-.054-.084-.016-.324.185-.42.42a.6.6 0 0 1-.037.07.207.207 0 0 1-.084.119 1.53 1.53 0 0 1-.206.213 1.56 1.56 0 0 0-.407.564c-.098.208-.197.415-.226.46a.95.95 0 0 0-.073.171.649.649 0 0 1-.482.317c-.104.02-.151.029-.178 0s-.018-.054-.008-.101c-.04-.006-.063-.018-.063-.031a.47.47 0 0 1 .054-.105v-.008a.32.32 0 0 0-.06.05.094.094 0 0 1-.106.032c-.067-.027-.113-.15-.113-.327v-.022a.617.617 0 0 1 .066-.321 1.5 1.5 0 0 1 .309-.29.42.42 0 0 0 .113-.113.147.147 0 0 1 .122-.092.25.25 0 0 0 .091-.026 1.8 1.8 0 0 0 .31-.32.8.8 0 0 0 .045-.133c.008-.034.02-.075.035-.113v-.028a1.9 1.9 0 0 1 .083-.24l.036-.091a.18.18 0 0 0-.036-.024.186.186 0 0 1-.082-.142c-.033-.027-.033-.027-.033-.347v-.162c-.031-.191-.1-.314-.164-.32a6.2 6.2 0 0 0-.59 1.056 3.4 3.4 0 0 0-.17.473 2 2 0 0 1-.298.589.836.836 0 0 0-.226.616 2 2 0 0 1-.025.226v.033h.02a.565.565 0 0 1-.082.226 1.13 1.13 0 0 0-.147.338.46.46 0 0 1-.205.33 1.37 1.37 0 0 1-.47.101.25.25 0 0 1-.099-.018c-.047-.021-.057-.068-.052-.121a.036.036 0 0 1-.021-.031.46.46 0 0 1 .051-.149l.007-.014a.06.06 0 0 0 0-.029c-.008 0-.039.018-.099.105-.044.065-.077.093-.113.095a.09.09 0 0 1-.074-.033.211.211 0 0 1-.025-.203.52.52 0 0 1 .056-.226 1.14 1.14 0 0 1 .289-.338.35.35 0 0 0 .058-.113.14.14 0 0 1 .019-.054 1.64 1.64 0 0 1 .388-.548c.03-.034.056-.062.076-.087a1 1 0 0 0 .085-.373 2.07 2.07 0 0 1 .074-.372.55.55 0 0 1 .093-.242l.023-.039a1.457 1.457 0 0 0 .134-.768 3.6 3.6 0 0 1 .042-.541 1.4 1.4 0 0 1 .144-.514 2.64 2.64 0 0 0 .162-.743 1.63 1.63 0 0 1 .041-.339 1.37 1.37 0 0 1 .174-.564c.039-.077.086-.164.145-.262q.053-.095.113-.183a2.07 2.07 0 0 0 .452-1.078c.013-.099.029-.19.047-.276a1.16 1.16 0 0 1 .161-.537 2.17 2.17 0 0 1 .322-.396c.064-.057.733-.44.986-.565a4.6 4.6 0 0 0 .393-.295l.013-.01.09-.087a1.57 1.57 0 0 1 .452-.366.49.49 0 0 1 .306-.062 4.3 4.3 0 0 1 .819.271c.098.044.159.071.207.088l.077.023a1 1 0 0 0 .143.017.8.8 0 0 1 .297.068.71.71 0 0 0 .396.07.69.69 0 0 0 .212-.239.6.6 0 0 0 .026-.056.6.6 0 0 0 .01-.092.68.68 0 0 0-.01-.139.7.7 0 0 0-.037-.086 1.13 1.13 0 0 0-.124-.187.98.98 0 0 0-.191-.123c-.212-.105-.364-.12-1.611-.159-1.386-.044-1.761-.092-2.001-.251a.285.285 0 0 1-.134-.213.34.34 0 0 1 0-.047.24.24 0 0 1 .025-.188 1.224 1.224 0 0 1 .466-.432 1.52 1.52 0 0 1 .697-.154 2.94 2.94 0 0 1 .501-.007 2.5 2.5 0 0 1 .485.053 2.93 2.93 0 0 1 .925.339.056.056 0 0 1 .021.044.056.056 0 0 1 .007.028.05.05 0 0 1-.017.038c-.044.039-.168.03-.834-.061-.169-.023-.213-.009-.226 0a2.6 2.6 0 0 0 .285.089 1.1 1.1 0 0 1 .226.073c.024.021.024.023 0 .039h-.009c-.011.029-.061.045-.177.082h-.018a2.25 2.25 0 0 1-1.28-.091c-.379-.135-.564-.141-.668-.02a.7.7 0 0 0-.059.076.63.63 0 0 0 .339.226.3.3 0 0 0 .045.012c.192.026.452.044.779.059.26.009.587.014.994.02 1.035.011 1.045.013 1.236.103.018.008.038.019.058.03a.93.93 0 0 1 .498.347.614.614 0 0 1 .182.523 1.64 1.64 0 0 1-.08.504c-.071.171-.069.185.051.364a1.72 1.72 0 0 1 .194.429 1.39 1.39 0 0 0 .215.414 1.74 1.74 0 0 1 .32.903 2.26 2.26 0 0 1-.085.469 1.05 1.05 0 0 0 .005.706 2.34 2.34 0 0 1 .062.652c-.027.198-.028.21.242.451.113.105.2.178.268.226a.8.8 0 0 0 .091.041 1.23 1.23 0 0 0 .499.062c.206-.008.226-.007.178.067l.076.006-.178.217c-.256.31-.678.359-1.21.145a1 1 0 0 0-.189-.059 1.8 1.8 0 0 0 .113.284.723.723 0 0 1 .078.594 2.38 2.38 0 0 0-.011.992 1.02 1.02 0 0 1 .03.339.85.85 0 0 0 .06.324c.08.226.083.267-.018.406-.042.059-.151.191-.226.166a.063.063 0 0 1-.043-.05c-.028 0-.036-.012-.045-.096a.093.093 0 0 0-.051.061.128.128 0 0 1-.093.093c-.064.012-.142-.033-.242-.14l-.137-.151.021-.061c-.038-.105 0-.225.113-.413l.013-.019a.37.37 0 0 0 0-.134.24.24 0 0 1-.01-.066c-.059-.087-.055-.18.019-.403a.79.79 0 0 0 .055-.237 1.5 1.5 0 0 0-.09-.267 3.7 3.7 0 0 0-.203-.435l-.062-.099-.291.209a1.268 1.268 0 0 0-.63.993.89.89 0 0 1-.171.515c-.139.174-.179.18-.677.209-.474.027-.538.026-.649-.099a.78.78 0 0 1-.149-.294 1.1 1.1 0 0 0-.042-.144.072.072 0 0 1-.024-.067 1.5 1.5 0 0 0-.211-.4.41.41 0 0 0-.084.197.71.71 0 0 0-.025.298.452.452 0 0 1-.073.332 1.36 1.36 0 0 0-.131.332M8.231 2.68H8.2l-.014.044a.18.18 0 0 1 .045-.044m6.748 1.008.018-.001v-.001h-.022Zm-3.651.584a1.52 1.52 0 0 0 .096-.621 1.78 1.78 0 0 0-.087-.659c-.052-.105-.113-.165-.184-.169h-.006c-.065 0-.134.054-.195.154-.093.15-.105.244-.091.664a1.32 1.32 0 0 0 .112.631.273.273 0 0 0 .141.124.34.34 0 0 0 .102-.01.313.313 0 0 0 .112-.114m-1.813.181a.263.263 0 0 0 .257-.145.339.339 0 0 0-.016-.368.286.286 0 0 0-.226-.113.32.32 0 0 0-.09.013c-.076.02-.094.036-.094.331v.292h.05Zm3.529-1.432a.392.392 0 0 0-.323-.19l-.197-.027v.27a1.1 1.1 0 0 0 .033.323.04.04 0 0 0 .017.009h.131a.536.536 0 0 0 .296-.123l.021-.033a.54.54 0 0 0 .022-.229m-.531 2.822a.59.59 0 0 0 .253.043h.045l-.097-.035a.66.66 0 0 0-.234-.048l-.008.01a.34.34 0 0 0 .041.03m-3.158-2.39h.046l.086-.016c.226-.043.289-.102.289-.263 0-.181-.079-.252-.281-.252h-.151v.528Zm.682 12.221-.014-.009a.15.15 0 0 0 .031.044c.052.055.141.046.226-.018l-.015.006a.212.212 0 0 1-.228-.023m2.847-9.775-.011.012.066-.001-.012-.011-.031-.012Zm.05.037h-.081v.009a.4.4 0 0 0 .077-.007Zm-.435 6.176a.11.11 0 0 0 .014-.032c-.007.002-.011.013-.014.032M6.218 3.121h-.016l.002.007Zm8.126-.607h-.022a.5.5 0 0 0-.123.014h.03a.6.6 0 0 1 .115-.014M4.25 3.675l-.047.017.048-.017Zm4.743 1.169s.009-.013.013-.029h-.032c.006.029.012.037.019.029m-1.963.292v-.02h-.007q.003.024.007.02m1.214-.206s.009-.007.012-.019h-.02c.002.013.006.019.008.019m-.521.013c.016.033.028.046.035.036v-.014c-.029-.065-.105-.26-.188-.489l-.013-.034.02.074v.016Zm4.906 9.626a1.22 1.22 0 0 0-.097-.226l-.033-.048c.023.053.057.125.095.204.011.027.024.048.035.07m1.882-10.123-.044.008a.174.174 0 0 1-.122 0h-.037a.219.219 0 0 0 .203-.008m-2.312.247h-.001v.014h.001Zm7.661-.955v.012s.005-.005 0-.012m-7.661 1v-.004Zm-6.097-.685.007.052c.049.207.058.286.008.339h.013l.056-.015-.059-.263Zm.015.339a.09.09 0 0 1-.015.026.08.08 0 0 0 .015-.026m6.711 3.231c.03-.065.152-.079.332 0a.27.27 0 0 0-.063-.095.51.51 0 0 0-.191-.045.16.16 0 0 0-.093.026c-.028.032-.027.058.015.114m7.55-5.136A24.16 24.16 0 0 0 8.724 1.23a20 20 0 0 0-4.607 1.062l.055-.019a25.33 25.33 0 0 1 6.149-1.122c.824-.051 2.001-.067 2.65-.036.339.015.933.05 1.06.063l.249.02c.926.077 1.887.195 2.624.323a14.57 14.57 0 0 1 3.049.819 5.7 5.7 0 0 1 .849.437 1.644 1.644 0 0 1 .642 1.016c.024.142.028 1.282.007 1.871a23.68 23.68 0 0 1-1.139 6.719 23.4 23.4 0 0 1-1.091 2.679 13.9 13.9 0 0 1-.821 1.437 19.46 19.46 0 0 1-5.595 6.002 1.615 1.615 0 0 1-.575.318 1.03 1.03 0 0 1-.391.013 1.3 1.3 0 0 1-.29-.113c-.162-.101-1.129-.836-1.537-1.167a18.2 18.2 0 0 1-3.703-3.953c-.16-.226-.549-.816-.691-1.044a12.9 12.9 0 0 1-1.042-1.902 20.84 20.84 0 0 1-1.793-6.055 27.8 27.8 0 0 1-.263-3.501 3.99 3.99 0 0 1 .148-1.711 1.483 1.483 0 0 1 .636-.715 1.84 1.84 0 0 0-.294.21 1.63 1.63 0 0 0-.576 1.344h.01c.03 0 .034.03.039.057a1.3 1.3 0 0 1 0 .31c0 .026-.009.059-.035.059a.03.03 0 0 1-.018-.009v.181h.008c.012 0 .029 0 .041.032a.248.248 0 0 1 0 .157c-.01.026-.024.033-.036.033h-.009v.113a23.586 23.586 0 0 0 2.634 10.713 22.93 22.93 0 0 0 2.505 3.526c.218.248.838.885 1.12 1.151a26.3 26.3 0 0 0 2.553 2.09 1.276 1.276 0 0 0 .631.307 1.14 1.14 0 0 0 .388-.029 1.66 1.66 0 0 0 .598-.339 19.6 19.6 0 0 0 4.478-4.343c.138-.186.239-.329.339-.468s.152-.226.198-.281c0-.008.019-.031.03-.051s.024-.038.03-.038.01-.009.01-.021a.035.035 0 0 1 .021-.029c.011 0 .02-.014.02-.022a.86.86 0 0 1 .075-.122.8.8 0 0 0 .074-.123.028.028 0 0 1 .019-.021c.012 0 .021-.014.021-.022a.5.5 0 0 1 .084-.132.024.024 0 0 0 .011-.019.5.5 0 0 1 .052-.091c.037-.058.074-.113.112-.174s.064-.099.068-.103a.045.045 0 0 0 .014-.02c0-.008.031-.057.063-.113l.075-.123c.009-.016.033-.056.056-.09s.044-.067.047-.075.089-.154.188-.323a8.6 8.6 0 0 0 .47-.914 21.23 21.23 0 0 0 1.453-4.091 23.83 23.83 0 0 0 .614-3.994 26.8 26.8 0 0 0 .059-2.964 1.694 1.694 0 0 0-1.166-1.323M2.457 4.586a1.22 1.22 0 0 0 0-.301c-.013-.084-.023-.016-.023.15s.01.235.023.151m-.004.412a.206.206 0 0 0 0-.137c-.01-.026-.019-.02-.023.011v.13c.009.017.016.017.023-.004m-.031.035c0 .432.015.791.039 1.234a22.26 22.26 0 0 0 1.582 7.43 23.07 23.07 0 0 1-1.352-5.239 29.8 29.8 0 0 1-.269-3.425m.077-1.402a1.675 1.675 0 0 1 .63-.886 3 3 0 0 1 .457-.241 2.8 2.8 0 0 1 .297-.126 15.4 15.4 0 0 1 1.502-.52 23.64 23.64 0 0 1 6.612-.826 21.64 21.64 0 0 1 8.109 1.327 3.15 3.15 0 0 1 .97.534 2.16 2.16 0 0 0-.717-.473 13.53 13.53 0 0 0-3.629-1.025l-.371-.061c-.173-.031-.582-.084-1.052-.137l-.371-.044a7 7 0 0 0-.376-.034c-.102-.006-.206-.014-.226-.018-.083-.016-1.129-.076-1.593-.092a28 28 0 0 0-3.608.139c-.216.024-.322.035-.648.075-.083.01-.166.021-.249.034l-.311.042a3.4 3.4 0 0 0-.215.035c-.052.01-.137.026-.189.032-.081.013-.162.025-.243.04l-.243.044c-.177.032-.699.138-.964.198a15 15 0 0 0-2.502.755 2.51 2.51 0 0 0-.852.678 1.98 1.98 0 0 0-.264.712 2.2 2.2 0 0 0-.029.452l.009-.012a2.85 2.85 0 0 1 .066-.602m-.084.998v.206Zm7.279-1.233a1.4 1.4 0 0 1-.149.057c.195-.045.257-.112.257-.276a.4.4 0 0 0-.011-.102c.01.132-.027.284-.097.321m1.731.824c.021-.043.027-.058.028-.214a.87.87 0 0 1-.072.28.26.26 0 0 0 .044-.066m.014-1.087v-.022a.384.384 0 0 0-.082-.201.4.4 0 0 1 .033.059.68.68 0 0 1 .049.164m-.531-.269c.007 0 .033 0 .084-.019a.28.28 0 0 1 .097-.064.273.273 0 0 0-.181.083m.443 1.423a.3.3 0 0 0 .03-.067.5.5 0 0 1-.038.078Zm1.612-1.459-.011-.012a.26.26 0 0 0 .027.052l.028.022a.26.26 0 0 0-.044-.062m-.057.58h-.001ZM4.448 14.07a.15.15 0 0 0 .018.035l-.034-.078ZM8.367 2.698h-.006c-.012.013 0 .024.032.027l.035-.01c.033-.008.046-.015.042-.019h-.084Zm13.227 1.57c0-.076-.009-.147-.016-.216v1.016c0 .206 0 .412-.01.616.027-.597.04-1.135.026-1.416M9.403 2.619c.063 0 .075-.016.032-.033l-.018-.001h-.086c-.018.024.015.036.072.034m1.397.004a.7.7 0 0 0 .044-.054.86.86 0 0 0-.155.158.68.68 0 0 0 .111-.104M9.547 4.512c-.018.018.015.031.071.029a.23.23 0 0 0 .042 0h.011c.01 0 0-.015-.02-.025a.15.15 0 0 0-.062-.01h-.02a.06.06 0 0 0-.022.006m-3.538-.708-.039.225c.017-.084.033-.159.042-.203Zm-3.324.057a23.8 23.8 0 0 0 .139 3.759 23.03 23.03 0 0 0 1.608 6.411c-.035-.105-.017-.124.041-.025.031.055.046.113.031.126s-.023 0-.038-.024a19.65 19.65 0 0 0 6.337 7.991c.741.565.931.678 1.216.678.226 0 .315-.042.731-.329a20.93 20.93 0 0 0 4.839-4.804 20.35 20.35 0 0 0 3.421-8.595 20.7 20.7 0 0 0 .272-5.462c-.113-.401-.481-.688-1.271-1.005a22.64 22.64 0 0 0-8.674-1.312 21.24 21.24 0 0 0-7.31 1.306 2.37 2.37 0 0 0-.977.557.875.875 0 0 0-.365.728m.182-.389c-.036.094-.075.112-.075.033a.12.12 0 0 1 .053-.085c.034-.02.043.003.022.052m2.327 12.11a8.24 8.24 0 0 1-.554-1.13 3.65 3.65 0 0 1 .3.555 4.3 4.3 0 0 1 .254.575m.273.493c-.015 0-.052-.049-.084-.113s-.046-.113-.032-.113.054.05.085.113.046.113.028.113Zm.162.275c-.016 0-.053-.05-.084-.113s-.047-.113-.032-.113.053.05.085.113.046.113.031.113m.162.274c-.015 0-.053-.048-.085-.113s-.045-.113-.03-.113.053.05.084.113.043.113.031.113m.609.948c-.067-.087-.065-.089.02-.021a.34.34 0 0 1 .095.096c0 .046-.044.016-.115-.075m.161.226c-.067-.088-.064-.09.02-.022a.35.35 0 0 1 .095.096c0 .04-.044.011-.115-.08Zm.163.219c-.068-.087-.066-.09.02-.021a.33.33 0 0 1 .094.096c0 .04-.044.011-.114-.081Zm.189.247-.102-.124.122.105a.61.61 0 0 1 .12.123c0 .038-.043.007-.14-.11Zm.216.274-.103-.123.121.104a.56.56 0 0 1 .122.125c.002.037-.044.005-.14-.111Zm.297.357-.13-.16.148.133a.94.94 0 0 1 .148.152c0 .046-.043.011-.166-.13Zm.971 1.029a3.7 3.7 0 0 1-.373-.357 2.8 2.8 0 0 1-.321-.357 3.7 3.7 0 0 1 .375.357 2.8 2.8 0 0 1 .323.352Zm.809.825a3.7 3.7 0 0 1-.374-.357 2.87 2.87 0 0 1-.321-.357 3.8 3.8 0 0 1 .375.357 2.8 2.8 0 0 1 .32.351Zm.437.358c0 .043-.044.008-.166-.134l-.131-.15.148.133a.93.93 0 0 1 .149.151m.209.196c-.068-.087-.066-.089.02-.02a.33.33 0 0 1 .094.096c-.002.047-.046.018-.116-.074Zm2.163 1.458c-.104 0-.147-.011-.095-.025a.44.44 0 0 1 .188 0c.05.014.007.025-.093.025m9.102-19.432a.49.49 0 0 1 .113.179c0 .083-.027.055-.126-.13l-.096-.179Zm-5.318-1.782a.113.113 0 0 1 .104 0c.043.017.03.031-.033.033s-.089-.011-.071-.033m-.431-.055a.113.113 0 0 1 .104 0c.043.018.03.03-.033.034s-.088-.016-.071-.034m-.459-.058a.197.197 0 0 1 .135 0c.037.015.006.027-.068.027s-.104-.012-.067-.027m-.648-.055a.3.3 0 0 1 .162 0c.053.013.022.026-.066.027s-.132-.011-.096-.027m-.997-.058a1.47 1.47 0 0 1 .324 0c.096.013.03.023-.148.024s-.256-.011-.176-.024m-2.856 0a1.47 1.47 0 0 1 .323 0c.097.013.03.023-.147.024s-.258-.011-.176-.024m-.807.061a.106.106 0 0 1 .103 0c.043.018.031.031-.032.033s-.089-.015-.071-.033M3.199 3.689c.159-.333.306-.434 1.05-.726a16.4 16.4 0 0 1 3.248-.893 26.3 26.3 0 0 1 3.926-.339 28.2 28.2 0 0 1 4.583.254 16.92 16.92 0 0 1 3.746.962c.776.307.917.404 1.077.74.12.252.122.296.09 1.562a26.9 26.9 0 0 1-.555 4.896 20.24 20.24 0 0 1-1.408 4.278 18.5 18.5 0 0 1-2.289 3.717 20.93 20.93 0 0 1-3.195 3.211 8.6 8.6 0 0 1-1.37.971.15.15 0 0 1-.047.007.964.964 0 0 1-.419-.18 22.25 22.25 0 0 1-2.333-1.9 19.45 19.45 0 0 1-3.332-4.136 19 19 0 0 1-1.193-2.4 20.3 20.3 0 0 1-.678-1.92 20.4 20.4 0 0 1-.938-5.142c-.021-.333-.034-.712-.041-1.069 0-.121-.008-.24-.011-.361-.033-1.236-.031-1.281.089-1.532m2.693.703a.124.124 0 0 0 0 .061c.007-.036.017-.089.03-.15-.015.031-.023.063-.03.089m.144.072-.093.026a.215.215 0 0 0 .093-.026m.408-.463c.123.487.251 1.017.277 1.178l.025-.009c-.017-.098-.065-.312-.113-.519ZM5.29 5.563l.067-.287q.139-.606.276-1.213c.2-.886.202-.893.366-.939a.44.44 0 0 1 .185-.02l-.009-.028a.54.54 0 0 0-.183.023c-.181.05-.184.066-.385.959-.091.402-.183.809-.276 1.211l-.053.226c-.008.059-.001.062.012.068M3.247 3.714a.957.957 0 0 1 .608-.529 1.36 1.36 0 0 1 .177-.092c.14-.059.331-.126.554-.199a18.27 18.27 0 0 1 5.228-1.037c.524-.047 1.057-.077 1.61-.094a19.91 19.91 0 0 0-7.16 1.227c-.741.29-.881.386-1.037.713-.095.201-.113.264-.1.946a3 3 0 0 1 .022-.332 1.095 1.095 0 0 1 .098-.603m1.944 1.674v-.03c0-.03-.008-.07-.039-.07s-.266.084-.339.112l-.173.06a1 1 0 0 1-.113.05v-.011H4.52c-.02-.091-.027-.442-.027-.926v-.678c0-.088 0-.158-.007-.207v-.057c0-.014 0-.035-.02-.042l-.148.068a1.2 1.2 0 0 1 .13-.045c.01 0 .018.432.018.961s.009.961.019.961.159-.05.331-.113l.113-.04c.031-.011.062-.021.092-.03.071-.024.119-.04.125-.04a.36.36 0 0 1 .019.16.172.172 0 0 1-.113.191l.097-.037a.158.158 0 0 0 .044-.099v-.138Zm3.04-2.708h.06a.56.56 0 0 1 .087-.015l.184-.022v1.145a6.5 6.5 0 0 1-.032 1.086h.027a.7.7 0 0 0 .015-.1c.013-.148.015-.426.015-.982v-.755c0-.217 0-.372-.007-.42l-.206.024a.316.316 0 0 0-.143.039m4.952-.899c.373.016.79.044 1.22.082a20.95 20.95 0 0 1 3.243.489q.356.082.677.175.733.207 1.405.472c.759.301.897.393 1.05.714.112.243.112.272.083 1.538-.181 6.982-2.541 12.085-7.428 16.061-.309.253-.63.496-.884.678-.092.072-.167.132-.199.153a.87.87 0 0 1-.205.107.5.5 0 0 1-.064.028.136.136 0 0 1-.064 0 .43.43 0 0 1-.093 0 .26.26 0 0 0 .165.024 8.74 8.74 0 0 0 1.361-.967c4.87-3.963 7.258-9.123 7.438-16.081.033-1.267.031-1.304-.087-1.551-.157-.33-.293-.423-1.064-.727a20.04 20.04 0 0 0-6.889-1.212h.076c.033.007.148.012.259.017m-8.999 4.22c-.086.035-.094-.036-.095-1.04V3.758v2.136c.009.085.024.113.046.131a.056.056 0 0 0 .031.009.12.12 0 0 0 .037-.008l.045-.018c.071-.038.204-.099.356-.163Zm3.148-1.87c-.009.121-.009.386 0 .591a1.24 1.24 0 0 1-.011.339h.024s0-.257.007-.572v-.466c-.008-.007-.014.036-.02.108m14.201-.393c0 .019.008.045.011.077.014.076.025.153.034.237v-.358l-.15-.318a1.56 1.56 0 0 0-.352-.492l.029.032a1.683 1.683 0 0 1 .428.822M4.735 13.485l-.03-.069c-.099-.232-.194-.463-.284-.697a19.24 19.24 0 0 0 1.569 3.388 19.43 19.43 0 0 0 3.327 4.13 24.3 24.3 0 0 0 2.194 1.807c-.084-.062-.183-.139-.3-.231a20.67 20.67 0 0 1-3.827-3.738 18.2 18.2 0 0 1-1.368-1.985 19.3 19.3 0 0 1-1.281-2.605M3.304 2.671a5.76 5.76 0 0 1 .813-.38 7 7 0 0 0-.239.087c-.104.043-.203.085-.292.126a2.5 2.5 0 0 0-.249.145Zm2.377 2.78s.032-.15.067-.329l.055-.246c-.039.048-.048.131-.07.302a2.15 2.15 0 0 1-.052.273m7.951 16.612c-.96.759-1.188.894-1.556.916a.88.88 0 0 1-.571-.123 21.96 21.96 0 0 1-4.392-3.98 19.15 19.15 0 0 1-2.041-3.007l-.029-.051a15.1 15.1 0 0 1-.776-1.59 27 27 0 0 1-.226-.533 19.1 19.1 0 0 0 2.379 4.314 20.1 20.1 0 0 0 3.11 3.362 18.3 18.3 0 0 0 1.903 1.468 1.144 1.144 0 0 0 1.091.043 17.5 17.5 0 0 0 1.937-1.468 22.2 22.2 0 0 0 2.862-3.005 25.3 25.3 0 0 0 1.814-2.824 22.87 22.87 0 0 0 2.429-9.899c-.034.708-.089 1.499-.15 2.033a20.14 20.14 0 0 1-7.784 14.344M7.014 4.988c-.014-.147-.015-.427-.015-.96V2.907l.04-.009.123-.027.04-.008a.19.19 0 0 1 .083 0 .132.132 0 0 1 .086.022 4.6 4.6 0 0 1 .218.624l.175.576.072-.226c.038-.121.134-.434.212-.695.038-.125.066-.217.09-.284l.045-.157-.008.012a1.86 1.86 0 0 0-.151.421 78 78 0 0 1-.213.695l-.045.139-.074-.246c-.033-.103-.082-.256-.142-.419l-.159-.468a.316.316 0 0 0-.226-.013l-.187.041v1.143c0 .546 0 .818.014.964a.45.45 0 0 0 .025.127h.01c-.006-.025-.01-.07-.013-.131m5.988-.379.035.113h.008l-.091-.261c.023.068.04.123.048.148m.042-1.588a.246.246 0 0 1-.024.226.3.3 0 0 1-.049.091.16.16 0 0 0 .049-.044.313.313 0 0 0 .068-.201.42.42 0 0 0-.053-.14l-.004-.003a.7.7 0 0 1 .013.071m-.339.387h-.039a.26.26 0 0 1-.092-.007h-.043l.007.012c.038.039.169.028.288-.007h-.121Zm2.27-.324c-.007.066-.068.088-.188.088a.34.34 0 0 1-.159-.028c-.01.018-.019.01-.022-.021a.045.045 0 0 1-.007-.024.247.247 0 0 0-.113-.179.35.35 0 0 1 .072.113.124.124 0 0 1 .017.06v.018a.085.085 0 0 0 .056.058h.152a1.2 1.2 0 0 0 .162 0 .11.11 0 0 0 .038-.032.34.34 0 0 0-.008-.053m-.05.609a.143.143 0 0 1 .072.046v-.038l-.018-.013Zm-.539.117v-.185l.257.025a2.2 2.2 0 0 1 .253.033h.082a1 1 0 0 0-.333-.062l-.099-.011h-.166v.07c0 .038 0 .113-.008.172l-.006.062a.2.2 0 0 0 .011.043h.03a.316.316 0 0 1-.021-.147m.125.636a.2.2 0 0 0 .038-.016.407.407 0 0 0 .104-.293c0-.062-.008-.099-.033-.119v.045a.25.25 0 0 1 .008.074.5.5 0 0 1-.013.113.203.203 0 0 1-.037.124.24.24 0 0 1-.067.072m-2.323-.741c-.007.519-.009.882-.007.987h.017Zm1.722.972.019.021c.025.021.05.041.073.058a.9.9 0 0 0 .203.091.76.76 0 0 0 .202.026.8.8 0 0 0 .153-.015h.009a.541.541 0 0 0 .402-.393.36.36 0 0 0 .019-.089.587.587 0 0 1-.195.363.715.715 0 0 1-.866-.077 1.228 1.228 0 0 1-.233-.734 2.82 2.82 0 0 1 .047-.891.9.9 0 0 1 .045-.13.557.557 0 0 1 .396-.376h.015a.655.655 0 0 0-.3.142 1.45 1.45 0 0 0-.239.968 1.568 1.568 0 0 0 .25 1.036M9.643 2.585a1.5 1.5 0 0 0-.238 0c.092-.009.174-.009.238 0m2.854 1.668v.452h.006v-.729.282Zm-3.532.509v.059h.009c-.003-.015-.009-.034-.009-.059m5.101-.709v-.72a2.26 2.26 0 0 0 0 .72m-4.722-.586v-.015h-.027v.049l.175-.034h.022-.113Zm-1.38.997-.043.154.173-.595a8 8 0 0 1 .065-.216v-.045Zm3.2-.036a.215.215 0 0 0 .137-.078.34.34 0 0 1-.087.036.136.136 0 0 1-.103.006.32.32 0 0 1-.079-.014.19.19 0 0 0 .094.044Zm-.73-.608a1.53 1.53 0 0 0 .248.8.8.8 0 0 0 .075.044q-.027-.027-.058-.064a.77.77 0 0 1-.105-.179 1.9 1.9 0 0 1-.142-.926 1.65 1.65 0 0 1 .159-.704.77.77 0 0 1 .148-.189.34.34 0 0 1 .107-.092.565.565 0 0 1 .302-.113.663.663 0 0 1 .531.431 1.74 1.74 0 0 1 .112.553v-.258a1.3 1.3 0 0 0-.085-.307.847.847 0 0 0-.314-.37.86.86 0 0 0-.275-.07h-.014a.818.818 0 0 0-.532.399 1.67 1.67 0 0 0-.163.7v.195Zm1.717-1.388-.015 1.157c-.008.3-.008.585-.008.803v.299h.026c0-.129 0-.576.009-1.102l.012-.96v-.171h.419a2.3 2.3 0 0 1 .275.015.63.63 0 0 1 .145.025.508.508 0 0 1 .302.181.7.7 0 0 0-.067-.105 1.092 1.092 0 0 0-.655-.142ZM11.7 4.363a1.05 1.05 0 0 1-.239.316l-.011.008a.8.8 0 0 0 .099-.056 1.36 1.36 0 0 0 .174-.256 1.16 1.16 0 0 0 .096-.325v-.255a1.57 1.57 0 0 1-.119.568m2.71-.666c.026-.023.084-.026.203-.023l-.203-.02Zm4.5 1.949a.95.95 0 0 1-.139-.243.136.136 0 0 1-.042-.064.8.8 0 0 1-.027-.084 10 10 0 0 1-.17-.408l-.294-.749v.113l.026.06v-.042l.247.628a5.3 5.3 0 0 0 .364.791l.076.025Zm-.119-1.254c0-.104 0-.226.009-.346v-.7l.027.008v-.007l.034.016.087.024.148.04v.047q.024.013 0 .01l.013 1.078c.012.879.012 1.121-.077 1.13l.037.012a.156.156 0 0 0 .046-.091l.007-.402c0-.249.008-.684.009-1.025l-.009-.768-.136-.042-.082-.029-.128-.035v.647a3.6 3.6 0 0 1-.017.477.7.7 0 0 1-.055-.103v.059c.054.113.078.103.087 0m-.985-1.301v1.152c0 .452 0 .72.015.889a.78.78 0 0 0 .035.226c.094.021.226.054.288.072.007 0 .011 0 .015-.026-.017.009-.04 0-.072 0a1 1 0 0 0-.187-.034c-.017 0-.031-.032-.041-.113v-.015c-.018-.152-.023-.451-.023-.999V3.114l.012 1.112.011 1.016v.018-2.11h.098a.234.234 0 0 1 .154.045c.015 0 .02-.013.014-.024a.256.256 0 0 0-.168-.048h.007a.226.226 0 0 1 .161.047l.02.016a.4.4 0 0 0-.032-.059.305.305 0 0 0-.158-.036Zm-.596 2.127c.091.016.177.03.197.031l-.181-.029Zm1.798-1.788.065.03v-.012Zm.852.308v-.004l-.005-.003Zm.013 2.277v-.008l-.14-.046c.074.03.134.054.14.054m-2.768-3.086v.025l.125.006-.01-.002Zm2.442.704v2.244l.026.009V3.604l.038.012.053.017.029.008.043.016.044.014.05.018-.131-.055a2 2 0 0 0-.119-.047c-.03.006-.032.028-.033.046m-3.883-.929h-.026l.031.009Zm-.311 2.207V2.61l.122.034a1.05 1.05 0 0 0 .189.034c.016 0 .028.013.038.044 0 .011.007.023.01.038v-.08a.059.059 0 0 0-.048-.03.9.9 0 0 1-.182-.032l-.154-.018v2.308ZM9.8 3.954a.356.356 0 0 1 .036.199v.057a.356.356 0 0 0-.036-.256m6.155-.361-.146-.021a.9.9 0 0 0 .286.063l.226.032V2.78l.077.009h.021a.37.37 0 0 1 .071.012l.13.01v.056q.012.012 0 .015l.014 1.073c.015 1.194.021 1.164-.217 1.101-.081-.021-.094-.096-.094-.535V4.01l-.13-.021v.027l.1.017v.488c0 .361.007.489.068.538l.089.016.126.023.015-.01a.14.14 0 0 0 .054-.087c.006-.164.009-.518.01-1.048v-.53l-.01-.62h-.02l-.101-.02-.226-.028v.887l-.084-.012h-.01c-.011-.003-.124-.017-.249-.037m-.575-.844a.23.23 0 0 1 .014-.086.07.07 0 0 1 .03-.006l-.044-.012Zm-1.095 1.71h.019a.34.34 0 0 1-.113-.086l.015.018a.34.34 0 0 0 .079.068m2.794.733V2.896l.148.036c.044.01.088.023.124.035s.034 0 .025.008l.039.015a.64.64 0 0 1 .022.178v-.192l-.009-.008a.45.45 0 0 0-.075-.028l-.212-.046c-.032-.007-.063-.013-.09-.019v2.308Zm-.729-2.361.012-.02h-.012Zm.231.006.012.009v-.007Zm-3.324.753-.054.052a.37.37 0 0 0 .161-.191.6.6 0 0 1-.107.139m2.174 11.485a1.08 1.08 0 0 1 .036-.374.61.61 0 0 0 0-.429v.117a.655.655 0 0 1-.033.305 1.3 1.3 0 0 0-.04.339l.008.012Zm-2.876-.059a1.8 1.8 0 0 0-.063-.168v.063c.008.023.017.045.025.067l.021.019Zm3.771-2.76a2.4 2.4 0 0 0-.201-.192 1 1 0 0 1-.064-.054 1.38 1.38 0 0 0 .226.225c.382.339.399.349.76.381l.278.025.008-.011.008-.015-.292-.025a.736.736 0 0 1-.476-.144.85.85 0 0 1-.247-.19m-.487 3.687c0-.063-.033-.091-.069-.083v.027a.02.02 0 0 1 .013 0c.016 0 .028.025.028.057a.14.14 0 0 0 0 .04.09.09 0 0 0 .026-.006.1.1 0 0 1 .002-.035m-.464-.47a1.2 1.2 0 0 0 .066-.306l-.032.067a1.3 1.3 0 0 1-.059.235l-.079.226a.23.23 0 0 0 .016.036ZM9.299 16.56h.009a.62.62 0 0 1-.044-.251c0-.143.052-.231.249-.428a2.3 2.3 0 0 1 .4-.326.903.903 0 0 0 .405-.551 1.8 1.8 0 0 1 .113-.321c.059-.113.069-.154.026-.188l-.01.026c.021.022.01.051-.038.15a1.8 1.8 0 0 0-.085.209 1.13 1.13 0 0 1-.065.226l-.015.025a.87.87 0 0 1-.347.4 2.4 2.4 0 0 0-.405.331c-.201.199-.258.296-.258.444s.033.254.065.254m1.925-.648c.017-.07 0-.113-.03-.113v.027c.005 0 .017.025 0 .077l-.006.021.026.009Zm-1.671.748c.023-.096.014-.144-.022-.142l-.019.034c.015-.009.022-.008.022-.008s.015.019-.007.113l-.01.042h.027Zm.796-2.379a.8.8 0 0 1-.024-.321v-.078a1.1 1.1 0 0 0-.038-.183c0 .029 0 .072.005.142a1.4 1.4 0 0 1 .02.24 1.5 1.5 0 0 0 .017.272.11.11 0 0 0 .03.017.7.7 0 0 1-.01-.089m.841.588a1 1 0 0 1-.172.25c.03-.018.055-.034.076-.05a1.2 1.2 0 0 0 .085-.12.5.5 0 0 0 .012-.082Zm-.203.991h.01a.25.25 0 0 1-.009-.069 1.123 1.123 0 0 1 .339-.602 1.6 1.6 0 0 0 .36-.678v-.015h-.009a.26.26 0 0 1-.022.049 1.77 1.77 0 0 1-.348.614 1.13 1.13 0 0 0-.347.62v.046c0 .014.016.035.026.035M8.195 4.918h.014a.9.9 0 0 1-.021-.153 1.5 1.5 0 0 0 .007.153m4.922 1.432a5.61 5.61 0 0 1 1.694.169 1 1 0 0 0-.113-.067 7.74 7.74 0 0 0-1.581-.128c-.263-.008-.498-.015-.706-.026a5.25 5.25 0 0 1-.779-.058c-.243-.032-.376-.075-.403-.137a.113.113 0 0 1 .023-.102.16.16 0 0 1-.011-.029c-.183.264.184.327 1.876.378m-4.458 8.416a1.07 1.07 0 0 0 .1-.236l-.019.036c-.024.048-.061.113-.092.163l-.012.025a1.4 1.4 0 0 0-.104.256 3 3 0 0 0-.026.226 1.7 1.7 0 0 1 .153-.47M7.026 2.968v-.042Zm.009 2.148.005-.001-.004-.008Zm4.083.618a1.867 1.867 0 0 1 1.376-.407l.084-.008-.031.01a3.16 3.16 0 0 1 .492.065c.494.101.967.284.967.374a.044.044 0 0 0 .02-.032c-.018-.033-.081-.09-.308-.179a4.34 4.34 0 0 0-.678-.193 3.3 3.3 0 0 0-.452-.062h-.501c-.062.007-.123.015-.182.026a1.49 1.49 0 0 0-.813.377.59.59 0 0 0-.193.372.23.23 0 0 0 .029.056.515.515 0 0 1 .19-.399m1.81.013c0 .033.061.074.135.089.43.092.452.093.232.164a.54.54 0 0 0 .161-.048.034.034 0 0 0 0-.016c0-.043-.057-.054-.358-.113l-.033-.007c-.073-.016-.113-.052-.113-.063l-.026-.011Zm-4.124 8.394v-.18a2.71 2.71 0 0 1 .18-1.029c.041-.121.076-.238.103-.349-.028.083-.079.217-.113.312v.028a3.16 3.16 0 0 0-.138.497c-.008.113-.012.275-.017.524Zm.349-1.9v-.078a2.785 2.785 0 0 1 .471-1.334 3.2 3.2 0 0 0 .351-.623 5.4 5.4 0 0 1-.28.468c-.079.119-.147.225-.204.324a3.12 3.12 0 0 0-.319.823c-.007.079-.011.17-.015.285Zm2.035-4.009a5.25 5.25 0 0 0 .791-.542c.465-.4.622-.505.756-.506a3.84 3.84 0 0 1 .634.192 6.53 6.53 0 0 0 1.399.357c.124 0 .263-.226.27-.436a.541.541 0 0 0-.294-.514 1.1 1.1 0 0 1 .095.1.48.48 0 0 1 .162.274.4.4 0 0 1 .011.113.34.34 0 0 1-.011.113c-.036.171-.148.319-.233.319a4.4 4.4 0 0 1-.841-.179.5.5 0 0 1-.077-.023 8 8 0 0 1-.472-.154 3.95 3.95 0 0 0-.643-.193c-.141 0-.299.104-.762.503a1.53 1.53 0 0 1-.391.298l-.014.007a4.4 4.4 0 0 1-.397.243 1.687 1.687 0 0 0-1.073 1.254c-.005.068-.01.143-.013.226a1.678 1.678 0 0 1 1.103-1.452m3.936 5.32.007.006-.005-.007Zm-6.307 2.779a2 2 0 0 1-.027.187l.029-.007v-.131Zm3.762-1.21a.226.226 0 0 0 .091.208.78.78 0 0 1-.091-.208m2.565-4.35a.565.565 0 0 0 .07.338.3.3 0 0 0 .4.096.72.72 0 0 0 .106-.118l.06-.083-.034-.042a2.28 2.28 0 0 1-.283-.427 1.24 1.24 0 0 1-.075-.172c0-.034.042-.077.123-.129.183-.113.204-.167.211-.523a2.2 2.2 0 0 0-.01-.339.723.723 0 0 0-.168-.333l-.07-.078-.053.016a.42.42 0 0 0-.197.189.54.54 0 0 0 .017.358 1.1 1.1 0 0 1 .041.267 1.32 1.32 0 0 1-.062.398 2.15 2.15 0 0 0-.076.582m-3.662 3.645.08-.053h-.374a2.37 2.37 0 0 0-.466.022.7.7 0 0 1-.158.017h-.065l-.028.071c.068.052.047.104-.013.226a1.8 1.8 0 0 0-.112.315.926.926 0 0 1-.419.564 2.4 2.4 0 0 0-.393.323c-.194.19-.243.275-.242.409a.55.55 0 0 0 .04.239.8.8 0 0 0 .084-.055q.193-.137.129 0h.016c.036.021.041.076.019.17l-.009.036a.9.9 0 0 0 .099 0 .373.373 0 0 0 .184-.04.666.666 0 0 0 .253-.297.87.87 0 0 1 .129-.192.53.53 0 0 0 .076-.091l.023-.051a1 1 0 0 0 .034-.113 1.4 1.4 0 0 1 .202-.418.776.776 0 0 1 .339-.327l.03-.016a1.16 1.16 0 0 0 .225-.304.7.7 0 0 1 .033-.069.6.6 0 0 1 .027-.138 1.02 1.02 0 0 1 .257-.228m-1.171 1.243-.035.031c.083-.031.092-.021.079.062a.5.5 0 0 1-.029.105.282.282 0 0 1-.207.092.137.137 0 0 1-.134-.033c-.086-.064-.167-.148-.167-.173s.033-.038.083-.064l.082-.042.041.027c-.016-.045.026-.08.13-.106.074-.019.134-.059.134-.089a.054.054 0 0 1 .054-.053c.081.001.063.148-.031.244Zm1.092.283c.03-.008.015-.011-.059-.012s-.098 0-.094-.026a.16.16 0 0 1 .074-.058.5.5 0 0 0 .081-.046.4.4 0 0 0 .011-.12c0-.13.018-.157.121-.176.07-.014.102-.042.102-.093 0-.023-.015-.037-.06-.057-.075-.034-.1-.075-.066-.105l.136-.12c.098-.086.113-.105.13-.167a1.36 1.36 0 0 0 .054-.332c-.014-.038-.061-.088-.083-.088a.09.09 0 0 1-.036-.02 1.64 1.64 0 0 1-.368.678 1.12 1.12 0 0 0-.332.584.23.23 0 0 0 .007.054.7.7 0 0 0 .057-.044.28.28 0 0 1 .094-.062c.016 0 .021 0 .019.04a.06.06 0 0 1 .02 0c.03.013.055.056.034.138l-.006.025a.36.36 0 0 0 .164.007m2.436-10.145c-.056 0-.129-.011-.226-.023a1.02 1.02 0 0 0 .226.023m-3.78-2.113a.12.12 0 0 1 .041.04.48.48 0 0 1 .099.379.678.678 0 0 1-.328.626.32.32 0 0 0 .113-.051.742.742 0 0 0 .236-.574.492.492 0 0 0-.12-.412c-.028-.03-.048-.05-.062-.067a.5.5 0 0 0-.04-.019.22.22 0 0 0 .061.078m-.772-1.149-.346.036-.029 2.259h.026l.013-1.003v-.088l.014-1.143.325-.035c.446-.047.705.026.807.226a.629.629 0 0 1-.021.639.63.63 0 0 0-.072.137.23.23 0 0 0 .041-.032c.013-.023.031-.054.053-.091a.73.73 0 0 0 .072-.158.926.926 0 0 0-.02-.442.7.7 0 0 0-.029-.065c-.108-.213-.372-.288-.834-.24m3.578 4.031c-.339-.012-.603-.024-.824-.038.23.022.474.032.824.038m-2.481 7.764c0 .016.007.031.01.043.027.004.027.003-.01-.043m-1.902 2.95a.524.524 0 0 0 .113-.317 1 1 0 0 0-.033.113.77.77 0 0 1-.08.204m6.872-9.958a1.7 1.7 0 0 1-.017.225.783.783 0 0 0-.049-.6.82.82 0 0 0-.119-.139l.009.012a.585.585 0 0 1 .176.502M9.393 4.464h-.076v.035l.201-.017a.49.49 0 0 0 .14-.029 1.4 1.4 0 0 1-.171.012ZM7.809 17.28a.232.232 0 0 0 .011-.144l-.019.043a.42.42 0 0 1-.018.095.56.56 0 0 0-.019.099.1.1 0 0 0 .026.009.47.47 0 0 1 .019-.102m-.055-.578a.745.745 0 0 0 .162-.255 1.55 1.55 0 0 1 .266-.382 1.18 1.18 0 0 0 .249-.378.9.9 0 0 1-.057.07 1.64 1.64 0 0 1-.213.291 2.45 2.45 0 0 0-.252.345.23.23 0 0 0-.006.05c0 .058 0 .066-.058.103l-.012.009a1.5 1.5 0 0 1-.1.13 1.23 1.23 0 0 0-.226.364.45.45 0 0 0-.02.068.22.22 0 0 0 .014.079.954.954 0 0 1 .253-.494m4.718-10.89v-.008h.014l.008-.007a.14.14 0 0 1 .029-.019c-.078 0-.113.018-.052.065a.035.035 0 0 1 .001-.031m.543 9.609.053-.043a.78.78 0 0 0 .217-.264.149.149 0 0 0-.028-.156.27.27 0 0 1-.045-.061c-.027-.054 0-.067.113-.067.098 0 .106 0 .138-.04a2.2 2.2 0 0 0 .18-.403.58.58 0 0 0 .033-.226.58.58 0 0 1 .035-.233.414.414 0 0 0 0-.338.366.366 0 0 0-.169-.171c-.113-.07-.096-.113.055-.173.086-.033.13-.07.13-.113s0-.032-.113-.025-.12.008-.146-.029c-.074-.113-.113-.126-.193-.072a1.186 1.186 0 0 0-.271.497c0 .055.061.113.173.158a1.1 1.1 0 0 1 .135.064.21.21 0 0 1 .084.192.45.45 0 0 0 .014.122.5.5 0 0 1 .014.127.316.316 0 0 1-.04.174 1.29 1.29 0 0 1-.269.352c-.049.019-.099-.022-.122-.097a.133.133 0 0 1 .011-.13.678.678 0 0 0 .057-.412 1.36 1.36 0 0 0-.031-.233c-.028-.062-.072-.043-.166.071s-.146.154-.193.154-.062-.046-.054-.157a1.11 1.11 0 0 1 .128-.4 6 6 0 0 0 .226-.603 1.28 1.28 0 0 0 .006-.473.31.31 0 0 0-.088-.152 2.82 2.82 0 0 1-.367-.521c-.097-.188-.164-.384-.129-.384a1.5 1.5 0 0 1 .226.298c.076.127.113.159.182.15.048-.007.049-.006.057.044a.964.964 0 0 0 .226.463 2.1 2.1 0 0 0 .35.286 1.75 1.75 0 0 0 .352.113 1.36 1.36 0 0 0 .338.028c.226 0 .283-.01.339-.067a.38.38 0 0 1 .105-.055c.044-.016.094-.037.113-.046.048-.025.084-.082.075-.113s-.021-.03-.179-.037a1.32 1.32 0 0 1-.526-.125 2.6 2.6 0 0 0-.187-.084.497.497 0 0 1-.307-.25.073.073 0 0 1 .067-.094.1.1 0 0 0 .045-.021.04.04 0 0 1 .031-.013c.057 0 .061-.017.031-.146-.036-.156-.037-.182 0-.182.056 0 .095.034.171.149a1.8 1.8 0 0 0 .156.196c.068.071.081.081.13.081a.113.113 0 0 0 .063-.014.13.13 0 0 0-.019-.069.29.29 0 0 1-.029-.123.141.141 0 0 1 .042-.113c.04-.045.048-.049.12-.049a.218.218 0 0 1 .202.113c.029.047.037.051.094.051a.176.176 0 0 0 .113-.036c.044-.03.057-.034.085-.021a.23.23 0 0 1 .065.067.56.56 0 0 0 .075.092c.038.036.046.038.112.03a.27.27 0 0 1 .113 0c.061.024.068.057.043.193-.022.113-.022.126 0 .182a.45.45 0 0 0 .064.108c.046.052.046.054.067.225a.88.88 0 0 1-.065.462c-.03.077-.075.2-.102.271a.84.84 0 0 1-.088.179l-.038.046h.006l.032-.022.072.113a1.02 1.02 0 0 1 .131.251c.032.072.066.149.096.226a.721.721 0 0 1 .06.604.93.93 0 0 0-.033.372.85.85 0 0 1-.06.403l-.091.255.113.127a.8.8 0 0 0 .07.069.18.18 0 0 0 .105.034c.034 0 .037-.01.041-.08s.043-.142.089-.135c.023 0 .028.016.035.081a.056.056 0 0 1 .028 0c.034 0 .07.038.07.113v.023a.84.84 0 0 0 .205-.167.23.23 0 0 0 .036-.071l-.048.032a.8.8 0 0 0-.09.077.081.081 0 0 1-.126.008c-.048-.037-.056-.09-.03-.193.031-.121.022-.213-.027-.255-.03-.027-.051-.032-.139-.032a.43.43 0 0 1-.124-.012c-.036-.024.006-.079.093-.124.126-.065.133-.113.024-.168-.072-.037-.09-.061-.09-.123a.18.18 0 0 1 .121-.165.158.158 0 0 0 .122-.165.247.247 0 0 0-.113-.217c-.132-.102-.129-.096-.129-.22 0-.089 0-.113.025-.135s.026-.054.032-.137a.53.53 0 0 1 .036-.171c.045-.094.04-.113-.048-.25a.6.6 0 0 1-.072-.365.94.94 0 0 0-.011-.175.34.34 0 0 1 .021-.211c.039-.016.1.027.143.1s.057.087.067.047.077-.034.233.035a1.242 1.242 0 0 0 .96.077 1.55 1.55 0 0 0 .37-.313l-.262-.024c-.368-.032-.389-.043-.774-.386-.164-.146-.235-.215-.26-.294a.27.27 0 0 1-.033-.036.034.034 0 0 0-.029-.02 1.19 1.19 0 0 1-.323-.153 2.5 2.5 0 0 0-.156-.095 2.78 2.78 0 0 0-.697-.144l-.124-.009-.009-.05a.71.71 0 0 0-.127-.282c-.067-.106-.081-.138-.081-.188a.587.587 0 0 0-.127-.299.86.86 0 0 1-.102-.226 2.2 2.2 0 0 0-.082-.226 1.19 1.19 0 0 1-.107-.388 1.58 1.58 0 0 0-.106-.435 2.15 2.15 0 0 1-.082-.294.855.855 0 0 0-.169-.419.98.98 0 0 1-.113-.193.27.27 0 0 0-.046-.089 1.1 1.1 0 0 1-.089-.13c-.028-.049-.067-.113-.084-.134a.19.19 0 0 1-.03-.085c0-.058.032-.076.133-.071.215.008.379.171.595.586a1.242 1.242 0 0 0 .488.591.34.34 0 0 0 .159.048c.08 0 .113-.03.119-.123a.98.98 0 0 0-.081-.385 1.13 1.13 0 0 1-.063-.312c-.01-.17-.018-.18-.17-.234-.132-.046-.14-.071-.032-.098a.413.413 0 0 1 .346.088c.081.058.097.064.149.058s.072-.02.135-.08.077-.078.073-.123a.25.25 0 0 1 .078-.184.18.18 0 0 0 .034-.042 1.7 1.7 0 0 0 .066-.459.565.565 0 0 0-.168-.488c-.324-.375-.477-.409-2.043-.451-1.451-.044-1.867-.099-1.934-.253a.197.197 0 0 1 .057-.194.276.276 0 0 1 .15-.15c.12-.046.289-.013.619.121l.047.019a2.6 2.6 0 0 0 .791.125c.065 0 .126 0 .185-.011a1.1 1.1 0 0 0 .214-.043h.019c.051-.016.099-.032.126-.044-.044-.015-.149-.038-.284-.066.023.013.014.029-.024.054l.019.007h-.034a.4.4 0 0 1-.149.02c-.051 0-.071-.006-.063-.026a1.6 1.6 0 0 1-.219-.008l-.057-.018a.3.3 0 0 1-.098-.034c-.024-.014-.092-.06-.07-.106s.19-.027.318.019l.19.069a.23.23 0 0 1 .088-.022c-.058-.022-.112-.059-.112-.102a.07.07 0 0 1 .005-.026c-.018-.011-.028-.02-.028-.028s.024-.021.178-.014a2.15 2.15 0 0 1 .361.046 2.35 2.35 0 0 0 .564.045c0-.017-.058-.073-.284-.16a4.5 4.5 0 0 0-.662-.189 3.3 3.3 0 0 0-.558-.067l-.154.05c-.141.046-.256.113-.256.149s-.089.058-.282.047a.613.613 0 0 0-.472.113c-.266.182-.283.387-.044.535.205.128.144.148-.077.026a.424.424 0 0 1-.183-.226.25.25 0 0 1-.005-.103.34.34 0 0 0-.038.186.23.23 0 0 0 .015.061.87.87 0 0 0 .158.119 1.04 1.04 0 0 0 .268.112 11.3 11.3 0 0 0 1.643.113l.67.024c.312 0 .539.007.575.013a1.24 1.24 0 0 1 .274.08 1.1 1.1 0 0 1 .113.049.59.59 0 0 1 .391.583c-.006.226-.155.463-.295.463a6.6 6.6 0 0 1-1.402-.349 3.84 3.84 0 0 0-.625-.19c-.125 0-.284.113-.739.5a5.3 5.3 0 0 1-.8.545 1.668 1.668 0 0 0-1.092 1.491 2.146 2.146 0 0 1-.462 1.1 2.73 2.73 0 0 0-.463 1.32 2.71 2.71 0 0 1-.17.778 2.67 2.67 0 0 0-.178 1.017 1.46 1.46 0 0 1-.152.816 1.78 1.78 0 0 0-.173.609.953.953 0 0 1-.308.692 1.8 1.8 0 0 0-.26.365.745.745 0 0 1-.17.272.79.79 0 0 0-.24.525c.03.029.065 0 .152-.124l.1-.134.031.03a.1.1 0 0 1 .033.049.34.34 0 0 1-.016.046c.029.024.029.083 0 .179a.47.47 0 0 0-.018.099 2.5 2.5 0 0 0 .262.006.87.87 0 0 0 .26-.022l.025-.011c.077-.035.134-.132.177-.295a1.6 1.6 0 0 1 .069-.201v-.022c.015-.208.054-.292.153-.318a1.9 1.9 0 0 0 .035-.271c0-.071.009-.131.015-.183a1.3 1.3 0 0 1 .011-.213 1.4 1.4 0 0 1 .149-.213c.094-.119.168-.219.225-.299a1.7 1.7 0 0 0 .127-.308l.009-.031c.006-.03.01-.063.015-.095.032-.225.019-.19.262-.594.072-.12.18-.32.241-.445a1.7 1.7 0 0 1 .161-.282l.029-.032c.059-.089.075-.089.088-.089.066 0 .123.059.165.158a.34.34 0 0 1-.012-.091c0-.042.006-.044.064-.049s.099-.028.137-.1a.3.3 0 0 0 .028-.172c0-.038-.012-.05-.072-.082a.226.226 0 0 1-.135-.205 2.76 2.76 0 0 1 .025-.634c.024-.083.035-.084.132-.017a2.37 2.37 0 0 0 .522.225.95.95 0 0 0 .483.012 3.4 3.4 0 0 0 .408-.318c.046-.044.121-.106.165-.139s.105-.08.134-.106a.185.185 0 0 1 .084-.045.53.53 0 0 1 .226.092.085.085 0 0 1 .037.082c.04-.018.146.189.146.321 0 .178-.086.258-.329.306a.69.69 0 0 0-.273.113c-.081.071-.088.068-.063-.028a1.26 1.26 0 0 1 .265-.347.95.95 0 0 0 .241-.322v-.012a.62.62 0 0 1-.181.155 1.3 1.3 0 0 0-.4.44 6 6 0 0 0-.199.601.565.565 0 0 0 .088.241 1.9 1.9 0 0 1 .258.423 1.1 1.1 0 0 0 .038.12c.044.113-.008.167-.186.211a1.9 1.9 0 0 1-.201.039l-.077.01.023.034c.018.028.022.031.032.011s.04-.021.166-.021a.54.54 0 0 0 .226-.028l.071-.029.034.042c.013.017.047.054.085.095.012 0 .042 0 .113.121a.34.34 0 0 0 .056.053 2.63 2.63 0 0 0-.187-.432c-.058-.113-.132-.258-.166-.33a1.97 1.97 0 0 0-.171-.28 1.24 1.24 0 0 1-.12-.186.54.54 0 0 1 .024-.281c.052-.149.093-.139.094.024 0 .113.015.152.145.339a1.56 1.56 0 0 1 .234.423 2.26 2.26 0 0 0 .198.388c-.023-.056-.036-.091-.03-.091a1.8 1.8 0 0 1 .184.272c.09.151.147.283.125.294s-.081-.078-.149-.205a.6.6 0 0 1 .035.137.13.13 0 0 1-.045.081l-.046.045-.029-.038c-.015-.02-.033-.032-.038-.028a.08.08 0 0 0-.008.028 1.95 1.95 0 0 1 .113.314.77.77 0 0 0 .113.245 1 1 0 0 0 .142.038Zm.242-2.088c.006-.131.009-.129.042.025.029.13.062.162.159.15.07-.008.113.01.089.042-.09.15-.299-.01-.29-.217m2.146-1.21a.149.149 0 0 0 .131-.069c.015-.038.029-.02.031.04 0 .083-.03.113-.131.113-.074 0-.134-.019-.134-.042s.046-.042.103-.042m-.293-4.555a.67.67 0 0 0-.153-.82l-.113-.131.124.065a.802.802 0 0 1 .339.541 1.06 1.06 0 0 1-.078.317c-.043.103-.105.189-.137.189s-.028-.062.018-.161m-6.596 8.847-.049.094a.216.216 0 0 1-.217.104.332.332 0 0 1-.105-.24c.009-.053.023-.056.093-.027a.142.142 0 0 0 .177-.027c.066-.052.087-.057.113-.031s.014.066-.012.127m5.031-4.872a.443.443 0 0 0-.147.741.823.823 0 0 0 .667.333l.298.04h-.324a1.03 1.03 0 0 1-.528-.105c-.565-.302-.552-1.097.013-1.091h.192Zm0-2.976a6.9 6.9 0 0 1 .409 1.15c.09.353.226.805.297 1.003a2.26 2.26 0 0 1 .113.359 1.24 1.24 0 0 1-.156-.206 3.2 3.2 0 0 1-.281-.782 4.4 4.4 0 0 0-.298-.855 4.33 4.33 0 0 1-.452-1.13c.063-.107.131-.021.364.465Zm-.635-1.082a.32.32 0 0 1 .163.026.11.11 0 0 1 .028.019l.041.02c.196.098.277.256.179.354-.033.034-.042.007-.027-.078s-.008-.145-.113-.195l-.012-.006a.52.52 0 0 1 .039.161l.008.1-.04-.009c-.031-.007-.043 0-.05.013-.011.032-.053.024-.091-.017a1 1 0 0 1-.066-.084c-.017-.025-.06-.079-.095-.121a1 1 0 0 1-.037-.045c-.026.054.015.148.141.253.081.069.132.125.113.127a.79.79 0 0 1-.202-.159c-.216-.196-.167-.361.017-.359Zm-.275 2.169a1.1 1.1 0 0 1 .168-.012.407.407 0 0 0 .269-.062c.175-.132.14-.296-.121-.558-.164-.163-.192-.209-.186-.292v-.058l.067.07a.9.9 0 0 1 .113.152 5.7 5.7 0 0 0 .413.572.503.503 0 0 1 .162.424.255.255 0 0 1-.151.184c-.037.008-.043 0-.051-.028a.9.9 0 0 1 0-.159l.009-.121-.038-.025c-.034-.023-.069-.026-.315-.026s-.285 0-.331-.026l-.055-.026Zm-2.218.863a.126.126 0 0 1 .061-.081c.08-.05.091-.08.082-.218-.01-.166.01-.247.062-.248a.23.23 0 0 1 .062.052.35.35 0 0 1 .082.147c.053.163.075.2.125.2.081 0 .085.007.085.201a.396.396 0 0 0 .152.386c.217.217.217.295 0 .193a.9.9 0 0 0-.155-.055.24.24 0 0 1-.162-.086c-.018-.028-.018-.041 0-.113a.216.216 0 0 0-.036-.217c-.024-.023-.048-.026-.145-.024a.68.68 0 0 0-.176.024.6.6 0 0 1-.062.021.8.8 0 0 1 .02-.182Zm-1.581 4.404c.029 0 .054.011.054.025 0 .012-.025.039-.054.058s-.055.007-.055-.024a.056.056 0 0 1 .051-.058Zm-.017.393c-.069.045-.096.045-.138 0s-.034-.045-.034-.15a.8.8 0 0 0-.007-.134.053.053 0 0 1 .007-.039c.011-.017.02-.013.055.024a.106.106 0 0 0 .097.045.113.113 0 0 0 .086-.029c.041-.04.073-.025.071.031a.33.33 0 0 1-.141.253Zm1.562-2.187a.146.146 0 0 1 .112.175.154.154 0 0 1-.119.141c-.076.02-.131 0-.362-.131a.197.197 0 0 0-.196-.013.7.7 0 0 0-.102.113.71.71 0 0 1-.202.187.745.745 0 0 0-.276.277c-.06.099-.134.18-.16.181a.23.23 0 0 0-.042.006.13.13 0 0 1-.07-.013c-.056-.025-.076-.092-.07-.236a.407.407 0 0 1 .131-.302l.045-.031.034.041a.098.098 0 0 0 .067.04.466.466 0 0 0 .226-.132c.037-.035.102-.095.144-.132a.306.306 0 0 0 .119-.282c0-.182-.014-.22-.099-.298a.307.307 0 0 1-.12-.249c0-.113.056-.184.157-.184.056 0 .095.039.165.161.113.201.284.278.396.182.053-.046.07-.049.101-.019s.02.058.02.219a1.36 1.36 0 0 0 .012.226c.005.034.029.052.085.074Zm1.25-1.447a.32.32 0 0 0-.213.089c-.089.113-.363.075-.576-.073a1.175 1.175 0 0 0-.721-.213.79.79 0 0 0-.29.293c-.226.339-.348.376-.348.086a1.587 1.587 0 0 1 .339-.729l.166-.247.028.165c.035.204.206.245.351.081l.103-.113.083.181c.113.236.283.317.678.318a.847.847 0 0 1 .431.082c.103.076.102.08-.035.081Zm.104-.406-.238-.275c-.199-.233-.237-.313-.237-.507 0-.266-.092-.512-.192-.512-.037 0-.083-.104-.104-.234a1.13 1.13 0 0 0-.195-.438c-.198-.255-.157-.339.278-.583.37-.207.452-.213.525-.041a1.02 1.02 0 0 0 .264.288c.289.219.293.225.256.603-.049.493.082.656.612.763.134.027.202.086.283.249s.148.536.093.548c-.007 0-.313.034-.678.072Zm1.129 3.654c.028-.083.13-.044.155.059.014.059.017.061.068.061s.079.026.079.1c0 .042 0 .049-.042.057a.25.25 0 0 1-.15-.012.27.27 0 0 1-.079-.031.463.463 0 0 1-.034-.233Zm-.124-9.097-.017-.006a1 1 0 0 0-.113-.033h.012a.4.4 0 0 0 .118.039m-.653-.464q-.085.009-.166.023a1.457 1.457 0 0 0-.766.345l.024-.022a1.677 1.677 0 0 1 .908-.346"/></svg>