<svg xmlns="http://www.w3.org/2000/svg" viewBox="0 0 24 24"><path fill="#44739e" d="M14.347 1.88a8.36 8.36 0 0 0-2.315-.163 8.36 8.36 0 0 0-2.317.163 8.45 8.45 0 0 0 2.317.162 8.45 8.45 0 0 0 2.315-.162M12 1c-.999 0-4.205.065-4.304.847 0-.011-.018-.019-.018-.031v17.916h.032c.05.15.23.289.519.413a3.4 3.4 0 0 0 .341.126 12.32 12.32 0 0 0 3.43.409 12.4 12.4 0 0 0 3.428-.408 3.4 3.4 0 0 0 .341-.126c.289-.125.469-.264.519-.414h.034V1.816c0 .012-.017.02-.018.031C16.205 1.065 12.998 1 12 1m0 .471a12.24 12.24 0 0 1 3.768.41v17.277a3.4 3.4 0 0 0-.341-.127V1.99a15.7 15.7 0 0 1-3.427.3 15.66 15.66 0 0 1-3.428-.3v17.041c-.127.041-.238.083-.341.127V1.88A12.23 12.23 0 0 1 12 1.471M7.678 20.334v1.637C7.678 22.539 9.613 23 12 23s4.322-.461 4.322-1.029v-1.593a9.7 9.7 0 0 1-4.148.82 8.866 8.866 0 0 1-4.496-.864"/></svg>