<svg xmlns="http://www.w3.org/2000/svg" fill="#44739e" viewBox="0 0 24 24"><path d="m21.811 15.243-1.154-.195-11.299 1.933 1.36.174 11.203-1.743zm-5.211.293a.452.452 0 0 0 .068-.357l-1.79-8.094a.518.518 0 0 0-.5-.4.51.51 0 0 0-.144.021L4.073 9.651a.507.507 0 0 0-.352.6l1.639 6.996a.348.348 0 0 0 .395.263l3.35-.565 7.306-1.25a.447.447 0 0 0 .189-.159m-1.55-8.471 1.657 7.682.012.053c.048.208.145.629-.034.848l.052-.008.455-.292a.484.484 0 0 0 .211-.511L15.631 6.81a.415.415 0 0 0-.493-.315l-.591.128.135.041a.539.539 0 0 1 .368.401M3.824 14.244a.52.52 0 0 0 .117-.013l.6-.132-.018-.076-.6.132a.461.461 0 0 1-.55-.352l-.023-.1a.463.463 0 0 1 .352-.551l.586-.129-.018-.076-.584.129a.54.54 0 0 0-.223.107.57.57 0 0 0-.1.1l-.9.212a.5021.5021 0 0 0 .224.979l1.07-.236a.5.5 0 0 0 .067.006m13.452 1.236-.056.036-.088.056 3.3-.564.2-.033.069-3.187h-.018l-3.626.725.505 2.287a.642.642 0 0 1-.286.68m4.608-.268v-2.633a.214.214 0 0 0-.105-.185l-1.024-.61-.055 3.192 1.161.195zM4.552 14.144l-.046.011-1.627.359 1.93.724-.249-1.061Z"/></svg>