<svg xmlns="http://www.w3.org/2000/svg" fill="#44739e" viewBox="0 0 24 24"><path d="M14.2777 2.8a7.6 7.6 0 0 0-2.105-.148 7.6 7.6 0 0 0-2.106.148 7.68 7.68 0 0 0 2.106.147 7.68 7.68 0 0 0 2.105-.147m-2.134-.8c-.908 0-3.823.059-3.913.77 0-.01-.016-.017-.016-.028v16.287h.029c.045.136.209.263.472.376a3.1 3.1 0 0 0 .31.114 11.2 11.2 0 0 0 3.118.372 11.26 11.26 0 0 0 3.116-.371 3.1 3.1 0 0 0 .31-.115c.263-.113.427-.24.472-.376h.031V2.742c0 .011-.015.018-.016.028-.09-.711-3.006-.77-3.913-.77m0 .428a11.13 11.13 0 0 1 3.425.373v15.706a3.1 3.1 0 0 0-.31-.115V2.9a14.26 14.26 0 0 1-3.115.273 14.24 14.24 0 0 1-3.116-.273v15.492c-.116.037-.217.075-.31.115V2.8a11.12 11.12 0 0 1 3.426-.372m-3.929 17.148v1.489c0 .516 1.759.935 3.929.935s3.929-.419 3.929-.935v-1.449a8.82 8.82 0 0 1-3.771.746 8.06 8.06 0 0 1-4.087-.786" class="cls-1" data-name="Colore riempimento 1"/></svg>