<svg xmlns="http://www.w3.org/2000/svg" viewBox="0 0 24 24"><path fill="#44739e" d="m22.878 15.595-1.279-.217-12.524 2.143 1.507.193L23 15.782Zm-5.776.324a.5.5 0 0 0 .076-.395l-1.985-8.972a.574.574 0 0 0-.554-.443.56.56 0 0 0-.159.023L3.217 9.396a.562.562 0 0 0-.39.665l1.817 7.755a.386.386 0 0 0 .437.291l3.714-.626 8.098-1.385a.495.495 0 0 0 .209-.177M15.384 6.53l1.837 8.515.013.058c.053.231.161.698-.038.94l.058-.008.504-.324a.536.536 0 0 0 .234-.567l-1.964-8.897a.46.46 0 0 0-.546-.349l-.655.142.149.045a.597.597 0 0 1 .408.445M2.941 14.487a.58.58 0 0 0 .13-.014l.665-.147-.02-.084-.665.147a.511.511 0 0 1-.61-.391l-.025-.11a.513.513 0 0 1 .39-.611l.649-.143-.02-.084-.647.143a.6.6 0 0 0-.247.118.63.63 0 0 0-.111.111l-.997.235a.557.557 0 0 0 .248 1.085l1.186-.261a.6.6 0 0 0 .074.006m14.91 1.37-.062.04-.097.062 3.658-.625.221-.037.077-3.532h-.02l-4.019.804.559 2.534a.712.712 0 0 1-.317.754m5.108-.297v-2.918a.237.237 0 0 0-.116-.205l-1.135-.676-.061 3.538 1.286.216ZM3.748 14.376l-.051.013-1.803.397 2.139.803-.276-1.176Z"/></svg>