<svg xmlns="http://www.w3.org/2000/svg" viewBox="0 0 24 24"><path fill="#44739e" d="m9.768 10.336-.239.96h.493Zm9.126.053a6.951 6.951 0 0 0-6.239-6.459l.309 3.656h-1.743l.232-3.67a6.903 6.903 0 0 0-4.134 1.797l-.437-.856-.997 2.134h.337a6.91 6.91 0 0 0-1.148 3.247l1.5-.034v1.347l-1.5-.195a6.91 6.91 0 0 0 1.505 3.8v1.772h.661v-1.059a6.903 6.903 0 0 0 4.111 1.857l-.224-3.435h1.834l-.174 3.417a6.948 6.948 0 0 0 6.085-6.179l-1.391.112v-1.376Zm-12.32-.396-1.268.03a6.73 6.73 0 0 1 1.162-3.031h.106Zm0 4.82a6.68 6.68 0 0 1-1.27-3.216l1.27.161Zm.66-7.826h.736l-.561-1.084a6.725 6.725 0 0 1 3.817-1.753l-.224 3.436H7.234Zm2.825 4.461h-.562a3.7 3.7 0 0 0-.112.512c0 .151.121.16.208.169v.096h-.519v-.1c.136-.03.173-.167.247-.464l.561-2.166h.071l.562 2.079c.112.424.152.561.272.551v.1H9.97v-.1c.158-.018.204-.025.204-.154a3.4 3.4 0 0 0-.115-.523M7.417 9.651v-.095h.879v.099c-.176.012-.254.016-.254.365v1.868c0 .19.055.225.225.225.382 0 .524-.328.642-.772h.071l-.102.898h-1.46v-.099c.139-.027.217-.04.217-.282V9.949c-.001-.273-.107-.282-.218-.294Zm-.183 5.923v-1.282h3.678l.21 3.2a6.692 6.692 0 0 1-3.888-1.915Zm5.408-5.923c-.183.038-.197.127-.197.316v2.33h-.073l-1.123-2.144v1.58c0 .285.052.363.238.393v.099h-.575v-.1c.152-.027.225-.055.225-.316V9.94c-.143-.273-.182-.285-.214-.285v-.099h.532l.874 1.691v-1.199c0-.238-.027-.368-.232-.393v-.099h.542Zm.179 1.267c0-.805.362-1.421.898-1.421.225 0 .424.195.489.195s.09-.084.113-.183h.068v.926h-.062c-.089-.343-.3-.808-.589-.808-.368 0-.467.607-.467 1.276a2.87 2.87 0 0 0 .112.867.46.46 0 0 0 .384.345c.199 0 .388-.121.595-.487l.078.099c-.185.328-.381.576-.706.576-.596 0-.913-.647-.913-1.385m5.815.84a6.737 6.737 0 0 1-5.629 5.709l.164-3.175h4.313v-2.441Zm-4.065-2.103v-.099h.884v.099c-.113.009-.239.012-.239.282v1.908c0 .254.1.268.239.282v.098h-.884v-.1c.137-.018.236-.037.236-.282V9.934c-.002-.258-.124-.267-.238-.279Zm1.94 1.796h-.57a3.54 3.54 0 0 0-.112.512c0 .152.123.161.206.17v.092h-.511v-.1c.137-.03.171-.167.248-.464l.562-2.166h.068l.562 2.079c.112.424.155.561.276.551v.1h-.819v-.1c.159-.018.203-.025.203-.154a3.5 3.5 0 0 0-.115-.523Zm.973-1.393v-2.47h-4.308l-.289-3.418a6.746 6.746 0 0 1 5.772 5.987ZM11.98 1.903a8.926 8.926 0 1 0 8.925 8.926 8.945 8.945 0 0 0-8.925-8.926m0 17.64a8.716 8.716 0 1 1 8.714-8.714 8.733 8.733 0 0 1-8.714 8.714M22.53 4.76Q11.976-2.735 1.422 4.71C.713 13.49 4.21 19.658 11.983 23c7.293-2.996 11.514-8.866 10.547-18.24M11.976 20.277a9.45 9.45 0 1 1 9.448-9.448 9.468 9.468 0 0 1-9.444 9.448Zm4.238-9.941-.235.96h.49Z"/></svg>