<svg xmlns="http://www.w3.org/2000/svg" viewBox="0 0 24 24"><path fill="#44739e" d="m9.545 9.741-.469.762h.475Zm-1.067 2.885h-.182l-.178.524h.165a.464.464 0 0 0 .44-.229s.148-.295-.245-.295m3.519-5.207c-5.405 0-9.79 2.049-9.79 4.577s4.381 4.577 9.79 4.577 9.79-2.05 9.79-4.577-4.385-4.577-9.79-4.577m4.237 3.448 1.239-.429h-1.086l.203-.585h1.679l-.21.626-1.908.625Zm-2.276-2.01h.88a.903.903 0 0 1 .948 1.309 1.731 1.731 0 0 1-1.672 1.296h-1.053c.073-.033.126-.203.126-.203s.671-1.811.757-2.054.015-.345.014-.348m-3.52 2.599c.046 0 .099-.145.099-.145l.845-2.316a.172.172 0 0 0-.016-.139h.797l.165 1.343s.421-1.125.446-1.191a.28.28 0 0 0 .006-.152h.741c-.05 0-.088.117-.088.117l-.915 2.48h-.697l-.179-1.394s-.408 1.112-.453 1.23a.193.193 0 0 0 .02.164Zm-2.632-.084s1.43-2.116 1.54-2.281.054-.238.054-.238h.834c-.069.032-.064.178-.064.178l.11 2.29a.18.18 0 0 0 .074.139h-.849a.195.195 0 0 0 .058-.14v-.229h-.851s-.11.184-.145.26a.25.25 0 0 0-.02.11h-.844a.205.205 0 0 0 .101-.089Zm-1.833-.032c.053-.11.81-2.212.81-2.212s.103-.22-.013-.276h.939c-.015 0-.065.025-.14.21-.05.128-.684 1.817-.684 1.817h.683s.157.014.177-.045l-.229.624H5.881s.039-.008.092-.118m.614 1.632-.205.586H4.704l.21-.626 1.907-.625-.082.236-1.239.429Zm2.894.039a.932.932 0 0 1-.845.635l.458.822s.09.167.178.167h-.921a.14.14 0 0 0-.013-.096l-.411-.808-.304.819s0 .086.026.086h-.864a.8.8 0 0 0 .148-.253c.053-.15.729-2.082.729-2.082s.061-.184-.017-.271h1.088s1.063-.03.747.981Zm1.139 1.688a1.013 1.013 0 0 1-.961-1.309 1.58 1.58 0 0 1 1.529-1.43c.66 0 .946.44.946 1.139a1.62 1.62 0 0 1-1.516 1.6Zm2.455-.055h-.705c.046-.025.055-.148.055-.148V12.24c0-.166-.065-.201-.065-.201h.887c-.086.017-.084.235-.084.235l-.012 1.354s.898-1.343.959-1.44a.102.102 0 0 0-.018-.148h1.011c-.087 0-.421.412-.421.412s-1.466 1.966-1.54 2.054a.256.256 0 0 0-.068.134Zm2.884 0h-1.76c.035 0 .158-.245.158-.245s.693-1.87.77-2.09.018-.274.018-.274h1.712l-.229.616a.131.131 0 0 0-.132-.061h-.711l-.166.465h.561c.147 0 .173-.053.175-.059l-.237.66c-.026-.036-.148-.027-.148-.027h-.58l-.157.421h.746c.166 0 .192-.034.192-.034Zm3.017-1.601a.901.901 0 0 1-.834.611l.458.822s.097.167.185.167h-.954a.143.143 0 0 0-.014-.095l-.397-.809-.275.745s-.047.162.019.159h-.897a.67.67 0 0 0 .156-.245c.053-.148.757-2.09.757-2.09s.062-.185-.018-.272h1.079a.701.701 0 0 1 .734 1.008Zm-7.908-.47c-.21-.026-.491.22-.605.721-.053.231-.11.73.215.789.236.044.497-.126.633-.671.206-.823-.168-.83-.243-.839m3.857-2.294c.367-.893-.144-.863-.144-.863h-.198l-.513 1.447h.121c.179-.001.511-.041.734-.584m3.114 2.365H17.8l-.175.518h.167s.322.024.421-.229c.116-.297-.174-.289-.174-.289m-6.042-5.899C6.222 6.745 1.54 9.096 1.54 12s4.682 5.251 10.457 5.251S22.453 14.896 22.453 12s-4.681-5.255-10.456-5.255m0 10.088c-5.549 0-10.047-2.165-10.047-4.84s4.498-4.84 10.047-4.84 10.046 2.166 10.046 4.84-4.498 4.84-10.046 4.84m10.125-7.119a7.44 7.44 0 0 0-2.367-1.841 14.08 14.08 0 0 0-3.489-1.234 19.7 19.7 0 0 0-4.265-.452 19.7 19.7 0 0 0-4.268.452 14.08 14.08 0 0 0-3.488 1.234 7.44 7.44 0 0 0-2.366 1.841A3.608 3.608 0 0 0 1 12a3.608 3.608 0 0 0 .88 2.286 7.44 7.44 0 0 0 2.366 1.841 14.08 14.08 0 0 0 3.487 1.234 19.7 19.7 0 0 0 4.266.453 19.7 19.7 0 0 0 4.265-.453 14.08 14.08 0 0 0 3.489-1.234 7.44 7.44 0 0 0 2.367-1.841A3.608 3.608 0 0 0 23 12a3.608 3.608 0 0 0-.878-2.286m-2.456 6.246a16.85 16.85 0 0 1-7.665 1.664 16.86 16.86 0 0 1-7.667-1.664C2.308 14.897 1.191 13.492 1.191 12s1.117-2.895 3.143-3.96a16.86 16.86 0 0 1 7.667-1.664 16.85 16.85 0 0 1 7.665 1.664c2.027 1.063 3.143 2.468 3.143 3.96s-1.116 2.895-3.143 3.96"/></svg>