<svg xmlns="http://www.w3.org/2000/svg" viewBox="0 0 24 24"><path fill="#44739e" d="m10.213 20.4923.005-1.7565 2.4572-.005 2.4572-.005v-6.1953c0-3.4075-.003-6.1954-.007-6.1954s-.8967.4956-1.9847 1.1014-1.9836 1.096-1.9902 1.0893c-.007-.007-.0121-.8509-.0121-1.8761v-1.864l2.5722-1.517 2.5723-1.5169 1.4062-.0003 1.4062-.0004v16.9747l2.4472.005 2.447.005.005 1.7565.005 1.7566H10.2072Zm-6.9109-1.505C1.5885 18.7255.2688 17.3939.0306 15.686c-.0402-.288-.0402-.7788 0-1.0669.2344-1.6807 1.5362-3.0103 3.2244-3.2931.2967-.0497.9559-.05 1.2282-.0005.4288.078.7058.1669 1.0709.3437 1.933.9363 2.7362 3.2586 1.7932 5.1849-.5072 1.0358-1.4436 1.7924-2.5539 2.0633-.457.1115-1.0395.1388-1.4913.0698z"/></svg>