<svg xmlns="http://www.w3.org/2000/svg" viewBox="0 0 24 24"><path fill="#44739e" d="m10.362 19.785.004-1.61 2.253-.005 2.253-.004v-5.68c0-3.123-.003-5.679-.007-5.679s-.822.454-1.819 1.01-1.819 1.004-1.825.998-.011-.78-.011-1.72V5.387l2.358-1.391 2.358-1.391h2.578v15.561l2.244.004 2.243.005.004 1.61.005 1.61H10.357Zm-6.335-1.38c-1.571-.24-2.781-1.46-2.999-3.026-.037-.264-.037-.714 0-.978.215-1.541 1.408-2.76 2.955-3.019.272-.045.877-.046 1.126 0 .393.071.647.153.982.315 1.772.858 2.508 2.987 1.644 4.753-.465.949-1.323 1.643-2.341 1.891-.419.102-.953.127-1.367.064"/></svg>