<svg xmlns="http://www.w3.org/2000/svg" viewBox="0 0 24 24"><path fill="#44739e" d="m13.948 15.064-.04.032h.049c.032 0 .047-.009.048-.032s-.009-.039-.057 0m-.344-.616a.12.12 0 0 0 .029-.029c0-.014-.013-.005-.036.022s-.02.029.007.007m.01.812a.063.063 0 0 1 .006.054c0 .009.015 0 .046-.022a.4.4 0 0 0 .053-.044.22.22 0 0 0-.059-.011c-.048.001-.056.001-.046.023m.14-.927c.006-.017-.011 0-.034.022-.022.028-.02.03.007.007a.11.11 0 0 0 .027-.029m.252.73-.001.001h.001Zm.582-1.355v.002l.001-.002Zm-1.166 1.758-.064.055h.074c.057 0 .072 0 .058-.019a.066.066 0 0 1 0-.058c.011-.044.009-.044-.068.022m1.588-1.114c-.011 0-.024-.078 0-.103.044-.044 0-.022-.067.038l-.074.065Zm.007-.336c.011 0 0-.008-.009-.016a.084.084 0 0 0-.036-.019c-.009 0 0 .009.007.018a.14.14 0 0 0 .038.017m-.715.273c-.024 0-.019.012.012.026.013.005.021 0 .015-.008a.034.034 0 0 0-.027-.018m-.13.606h.007l.052-.046h-.082c-.085 0-.089 0-.063.029s.021.038.013.046c-.019.033.017.019.073-.029m.542-1.009a2 2 0 0 0 .188.078 1.3 1.3 0 0 0-.151-.082c-.148-.073-.163-.086-.163-.128a.3.3 0 0 0 0-.044l-.076.059c-.073.055-.073.058-.024.047a.495.495 0 0 1 .226.07m-.117.573a.086.086 0 0 1 .007.066c0 .045 0 .046.024.025v-.008a1 1 0 0 0 .08-.065l.052-.04h-.092c-.07 0-.086 0-.071.022m.395.595c0-.014-.015 0-.046.032l-.033.039.041-.037a.3.3 0 0 0 .038-.034m-1.493-.546a.205.205 0 0 1-.202.033c-.033-.014-.033-.014 0 .01a.056.056 0 0 1 .022.064c-.011.044-.005.044.056 0a.131.131 0 0 1 .12-.028c.065.009.069.007.052-.024a.067.067 0 0 1 0-.067c.018-.043.018-.043-.048.012m-.708 2.753a.09.09 0 0 0 .033.027.08.08 0 0 0 .035.011.14.14 0 0 0-.034-.027c-.018-.011-.034-.015-.034-.011m-.187-1.238a.064.064 0 0 1 .009.057c-.007.037 0 .036.051-.007a.44.44 0 0 0 .058-.048.24.24 0 0 0-.067-.011c-.045-.005-.055 0-.051.009m.34 1.318a.09.09 0 0 0 .033.028c.02.009.035.014.035.011a.14.14 0 0 0-.034-.028c-.018-.011-.034-.014-.034-.011m1.093-1.581c-.044 0-.055 0-.05.033a.072.072 0 0 1-.008.054 3.6 3.6 0 0 1-.453.344c-.031.009-.11-.022-.308-.122a2.8 2.8 0 0 1-.278-.149.073.073 0 0 1 0-.053c.008-.024 0-.02-.061.022a.32.32 0 0 0-.078.059.33.33 0 0 0 .066 0c.051 0 .11.021.319.127a1.01 1.01 0 0 1 .265.164c0 .018-.056.079-.189.183-.206.165-.252.183-.341.131-.065-.037-.084-.03-.02.009a.11.11 0 0 1 .054.066c0 .022-.077.096-.22.209-.256.206-.281.22-.345.19-.039-.018-.042-.016-.022.006a.077.077 0 0 1 .013.062c0 .021 0 .029.008.024a.23.23 0 0 1 .178.021l.049.034-.038-.045a.11.11 0 0 1-.028-.082 5.3 5.3 0 0 1 .522-.44h.008c.951-.77 1.783-1.43 1.808-1.457.055-.056 0-.018-.129.087a.73.73 0 0 1-.183.121.077.077 0 0 0-.053.042 1.54 1.54 0 0 1-.22.198c-.17.127-.221.162-.266.162m-1.35-.63c-.023.027-.023.03.006.006a.12.12 0 0 0 .029-.028c0-.014-.013-.006-.035.022m.566.477h-.063c-.059 0-.064 0-.064.046s0 .059.072 0Zm-.446.887c-.025 0-.02.011.011.024.014 0 .021 0 .016-.008a.032.032 0 0 0-.027-.016m-.069-.034c-.024 0-.018.011.011.022s.022 0 .018-.007a.029.029 0 0 0-.029-.015m-.041-.019a.04.04 0 0 0-.028-.017c-.025 0-.02.012.011.025.014 0 .022 0 .017-.008m-.097-.052c-.024 0-.02.011.011.022h.016a.034.034 0 0 0-.027-.017Zm-2.593.623-.079-.037.058.049c.055.044.057.052.039.088s0 .028.073-.033a.9.9 0 0 0 .097-.077.19.19 0 0 0-.054.021c-.052.025-.058.024-.134-.011m-.419-.437-.055.045.059-.037a.22.22 0 0 0 .055-.045c0-.012-.006-.009-.059.037m-.337-.382a.8.8 0 0 0 .132.074.8.8 0 0 0 .138.061.8.8 0 0 0-.138-.077.66.66 0 0 0-.132-.058m-.002-.003.005.003-.004-.003Zm1.494-.63a1.24 1.24 0 0 0-.187-.103 1.3 1.3 0 0 0-.188-.087 1.4 1.4 0 0 0 .188.11 1.9 1.9 0 0 0 .187.08m-1.322 1.124c-.11.077-.154.122-.083.075a.165.165 0 0 1 .099-.022c.046.007.052 0 .043-.024a.07.07 0 0 1 .02-.066c.044-.047.027-.04-.078.037Zm.86-.629c.006-.009-.034-.034-.091-.059s-.094-.038-.075-.027l.093.061c.033.022.066.033.073.025m1.35 1.667-.11.088a.54.54 0 0 1-.143.089 1.9 1.9 0 0 1-.275-.13l-.255-.139h-.014a2.2 2.2 0 0 0 .21.126c.11.064.22.126.235.138.044.043.005.11-.128.214a1.5 1.5 0 0 0-.129.11 1 1 0 0 0 .148-.11c.139-.11.174-.132.253-.122.025 0 .028 0 .021-.036s0-.055.087-.133Zm1.993-4.071h-.059c-.058 0-.064 0-.064.044v.044l.06-.042c.032-.024.062-.046.063-.046m8.839-.33a.72.72 0 0 0-.049-.163q-.227-.099-.459-.181l-1.771-.66q-.33-.131-.66-.255c-.246-.092-.612-.22-.811-.301l-.732-.27-.813-.303-.955-.355-1.241-.464a9 9 0 0 0-.756-.262l-.464.285c-.467.287-.505.309-.493.271a5.5 5.5 0 0 1 .479-.309l.472-.288.01-.429c.008-.233.018-2.245.022-4.469l.015-4.044-.038-.038A.33.33 0 0 0 14.003 1a1.65 1.65 0 0 0-.28.07c-.212.069-1.283.409-3.3 1.047-.562.179-1.49.474-2.064.653-1.65.518-4.194 1.32-5.831 1.839-.55.178-1.004.324-1.011.33s.041.361.11.789l.181 1.254.135.939c.089.596.188 1.284.276 1.891l.137.945c.037.256.1.681.138.938l.361 2.489c.16 1.11.296 2.037.302 2.059s.066.066.248.16a2 2 0 0 0 .265.122 1.3 1.3 0 0 0 .207-.123l.805-.505c.497-.308.626-.382.652-.37s.028.024.025.035-.353.232-.77.493l-.77.475v.786l.868.524c6.9 4.181 8.537 5.163 8.547 5.16s2.068-2.056 4.586-4.567c2.987-2.979 4.586-4.587 4.609-4.634a.84.84 0 0 0 .034-.478m-3.44 2.229v-.007a.31.31 0 0 1 .026.12c0 .06-.01.082-.074.143q-.55.509-1.118 1.011a13.9 13.9 0 0 1-1.133.977.696.696 0 0 1-.44.032c-.116-.028-1.355-.622-1.447-.693a.348.348 0 0 1-.125-.212c0-.11.034-.14 1.187-1.1.625-.526 1.15-.961 1.167-.97a.5.5 0 0 1 .087-.038.66.66 0 0 1 .232-.018l.172.007.44.202c.91.415.975.449 1.026.549Zm-3.991-5.089.187.073a.3.3 0 0 1 .097.044s-.484.33-1.076.717l-1.076.713-.055-.06a.404.404 0 0 0-.233-.13c-.066-.012-.066-.012 1.003-.701l1.067-.689Zm-8.936 5.752c-.024 0-.045-.015-.045-.022s.196-.136.434-.29l.434-.281.085.011a.58.58 0 0 1 .147.042.64.64 0 0 1 .189.181c0 .005-.21.147-.467.32a2.48 2.48 0 0 1-.48.29.583.583 0 0 0-.297-.251m.241.259a1.5 1.5 0 0 1-.194-.11c-.159-.095-.179-.11-.133-.11a.45.45 0 0 1 .14.044c.077.04.203.159.187.176m1-.718a.49.49 0 0 0-.251-.174l-.074-.022.925-.601c.508-.33.929-.595.934-.595s.103.044.22.099a.76.76 0 0 1 .198.11c-.022.022-1.871 1.239-1.887 1.245s-.039-.022-.065-.062m1.792-1.339c-.131-.063-.166-.085-.128-.084a.34.34 0 0 1 .11.022c.064.024.22.13.207.142a.84.84 0 0 1-.189-.08m-.065-.139c-.012 0-.022 0-.022-.014s.57-.386.669-.44a.33.33 0 0 1 .274-.006c.071.022.175.11.175.152a1.68 1.68 0 0 1-.381.282l-.38.251-.063-.066a.63.63 0 0 0-.272-.159m.903-.531-.11-.031.368-.237c.359-.232.368-.235.462-.235a.42.42 0 0 1 .165.033c.076.033.174.135.152.154s-.189.128-.4.267c-.346.227-.386.249-.401.22a.45.45 0 0 0-.236-.171m1.029-.44h.007c-.063-.072-.094-.087-.254-.133-.033-.008.011-.044.269-.212l.313-.201.119.007a.396.396 0 0 1 .196.055c.073.046.123.102.11.11-.088.062-.672.44-.68.44a.6.6 0 0 1-.08-.063Zm.506-.599h-.007c-.032 0-.046-.006-.035-.015s.135-.096.282-.19c.248-.16.274-.172.353-.174a.44.44 0 0 1 .163.035.55.55 0 0 1 .124.079l.047.046-.303.202-.304.201-.047-.057a.462.462 0 0 0-.273-.123Zm.923-.307a.5.5 0 0 0-.256-.123c-.028 0-.049-.005-.048-.014a3.2 3.2 0 0 1 .296-.205c.32-.206.35-.22.502-.176.063.018.181.11.181.149a3.1 3.1 0 0 1-.311.22l-.309.203ZM5.24 15.458a3.4 3.4 0 0 1-.645.434l-.77.48-.124.081-.025-.11c-.12-.532-.507-3.021-1.027-6.614-.38-2.64-.66-4.657-.66-4.665s.22-.077.487-.159l1.027-.33.908-.291.916-.292 1.092-.346 1.668-.529 1.087-.347 1.083-.343 2.769-.88.825-.263c.161-.05.298-.093.319-.093a14.5 14.5 0 0 1 .022 2.28c0 1.256-.013 3.244-.019 4.413l-.011 2.137-.482.293c-.375.229-.488.291-.519.282-.053-.011-7.921 4.815-7.921 4.862m-.558 1.524a7.2 7.2 0 0 1-.77-.44s.33-.22.745-.469l.744-.458.024.058c.015.04.032.059.047.052s1.792-1.108 3.953-2.431l3.928-2.421-.012-.051a.5.5 0 0 0-.013-.082 2.3 2.3 0 0 1 .44-.305c.244-.152.455-.277.463-.277s.155.053.33.11l.309.117-.042.032c-.022.018-.939.609-2.037 1.32-2.207 1.423-2.302 1.489-4.422 2.86-.814.53-1.487.961-1.49.961s-.27.172-.589.38c-.77.516-1.574 1.031-1.603 1.043Zm.096.037c0-.018 1.078-.729 1.1-.73a2.4 2.4 0 0 1 .22.121c.11.067.206.126.206.129s-1.07.717-1.1.724a1.9 1.9 0 0 1-.426-.244m.703.449c-.19-.11-.234-.143-.22-.162s.479-.32 1.037-.688q1.004-.66 2.004-1.32c.541-.362 1.287-.849 1.655-1.092l1.791-1.184c.62-.41 1.656-1.1 2.304-1.527l1.264-.839a1 1 0 0 1 .092-.059s.083.027.176.061l.169.063S5.741 17.612 5.731 17.612s-.11-.066-.25-.144m3.89 1.08a3.8 3.8 0 0 1-.637-.342c-.015-.018-.015-.034 0-.066s.892-.704.99-.756a.31.31 0 0 1 .093-.025 3.85 3.85 0 0 1 .643.33.083.083 0 0 1-.012.061 11.4 11.4 0 0 1-.99.77.28.28 0 0 1-.087.028m.79.459v-.013a.08.08 0 0 1 0-.05 5.8 5.8 0 0 1 .606-.484.176.176 0 0 1 .089 0c.049.019.049.019.02-.024s-.025-.044.011-.093c.023-.029-.098.059-.264.194-.377.306-.498.393-.55.393a3.26 3.26 0 0 1-.584-.31c-.015-.036.018-.094.093-.155.228-.187 1.015-.781 1.081-.816a.185.185 0 0 1 .119-.029c.035.009.039.007.022-.011a.077.077 0 0 1-.022-.044.95.95 0 0 1 .181-.17c.1-.083.18-.149.18-.151h-.077c-.08 0-.089.008-.058.039s0 .058-.19.209c-.213.17-.253.192-.312.177a5.7 5.7 0 0 1-.604-.33.066.066 0 0 1-.016-.094l.008-.008a.6.6 0 0 0-.134.091c-.11.082-.166.11-.205.11a2.83 2.83 0 0 1-.602-.315c-.027-.044 0-.074.169-.202a2.2 2.2 0 0 0 .164-.133.08.08 0 0 0-.025.018.124.124 0 0 1-.077.015c-.045-.009-.051 0-.042.027s-.006.046-.048.077c-.401.298-.451.33-.497.32s-.044 0-.038.026a.08.08 0 0 1-.013.062c-.014.016.031-.011.097-.058.154-.11.185-.125.237-.125a3.33 3.33 0 0 1 .591.304.05.05 0 0 1 0 .06 5 5 0 0 1-.407.322c-.316.238-.397.293-.44.293a1.19 1.19 0 0 1-.33-.158c-.298-.17-.313-.187-.236-.268.036-.041.036-.041-.036 0a.167.167 0 0 1-.11.037 2.5 2.5 0 0 1-.311-.159c-.212-.122-.264-.16-.264-.188s.069-.088.296-.249c.256-.18.304-.209.352-.202s.052 0 .037-.015-.013-.029-.006-.037a3.7 3.7 0 0 1 .527-.364.2.2 0 0 1 .071.02c.038.022.038.022 0-.018s-.034-.037 0-.068a5.3 5.3 0 0 1 .459-.317.135.135 0 0 1 .073 0c.039.015.042.014.027-.015a.046.046 0 0 1 0-.06 2.7 2.7 0 0 1 .474-.319.77.77 0 0 1 .192.077.77.77 0 0 0 .154.066.9.9 0 0 0-.137-.077c-.102-.052-.138-.077-.138-.103s.061-.086.347-.28c.154-.11.173-.11.22-.1s.052.013.035-.007a.054.054 0 0 1-.012-.05 1.9 1.9 0 0 1 .236-.181c.18-.13.235-.159.273-.153s.052 0 .044-.031.034-.064.232-.203.243-.166.303-.162.059 0 .047-.016c-.03-.035 0-.069.207-.213.174-.121.205-.136.254-.129s.055 0 .04-.013a.054.054 0 0 1-.012-.046 1.8 1.8 0 0 1 .22-.171c.179-.122.227-.146.281-.146s.063 0 .051-.019c-.028-.036 0-.066.22-.22s.251-.165.357-.123c.027.011.025.006-.008-.022s-.038-.044-.031-.061a1.65 1.65 0 0 1 .23-.184c.204-.144.22-.157.286-.149s.062 0 .046-.014c-.03-.038 0-.069.207-.22.151-.11.207-.14.242-.135s.042 0 .038-.022.069-.097.337-.273c.127-.083.172-.103.207-.096s.044 0 .039-.022.015-.051.066-.093c.077-.061.959-.679 1.018-.715s.088-.026.331.07c.202.077.231.092.22.123a2.5 2.5 0 0 1-.435.357c-.55.416-.651.482-.701.482-.032 0-.04.008-.036.031s-.053.075-.229.205c-.22.165-.241.176-.305.165-.046 0-.06 0-.048.011.033.034-.007.078-.196.21s-.242.163-.296.132-.073-.019-.033 0c.062.037.031.078-.151.212-.099.073-.18.134-.18.137a.22.22 0 0 0 .052 0 .204.204 0 0 1 .088.014c.035.017.038.017.021 0-.051-.056-.026-.094.149-.22.253-.185.235-.183.504-.055s.293.147.282.198 0 .033.081-.022.098-.058.154-.051.061 0 .046-.011a.052.052 0 0 1-.009-.06c-.02.014-.041.027-.061.043-.11.08-.124.078-.398-.054s-.291-.151-.211-.22a2 2 0 0 1 .179-.14c.119-.08.154-.096.198-.088s.052 0 .052-.042.024-.064.154-.158c.11-.085.168-.11.209-.11s.052 0 .046-.033a.67.67 0 0 1 .302-.22 1.35 1.35 0 0 1 .242.079c.33.133.33.136.241.22-.117.11-.227.18-.271.173s-.044 0-.044.038v.045l.095-.067c.085-.059.11-.066.171-.059s.072.007.046-.022a.062.062 0 0 1-.016-.053 1.02 1.02 0 0 1 .339-.24 4.1 4.1 0 0 1 .568.238.056.056 0 0 1 .022.05c-.013.033.012.026.076-.027l.058-.049-.055.009a1.19 1.19 0 0 1-.361-.121 7 7 0 0 0-.321-.133.5.5 0 0 0-.095.052l-.083.053-.253-.102a1.38 1.38 0 0 1-.273-.129c-.022-.038 0-.061.404-.357.33-.242.338-.246.421-.243a2.18 2.18 0 0 1 .559.183c.597.231.628.247.624.309 0 .044 0 .047.034.022.057-.04.097-.033.34.064.211.083.22.091.22.132s-.11.127-.478.428c-.619.5-.66.536-.715.536a.7.7 0 0 1-.179-.068c-.18-.092-.2-.089-.025 0 .122.064.137.077.137.119s.018.062.037.031.116-.011.337.088c.246.11.289.141.289.188a.56.56 0 0 1-.149.157c-.199.166-.228.185-.287.185-.036 0-.045.007-.039.029.015.044.007.05-.209.22-.144.116-.21.158-.244.158s-.046.007-.039.033-.041.074-.211.22a1.24 1.24 0 0 1-.251.181 3.3 3.3 0 0 1-.596-.303.08.08 0 0 1 .025-.06l.031-.037-.046.031a.165.165 0 0 1-.1.022c-.036 0-.046 0-.034.011a.075.075 0 0 1 .017.044 1.47 1.47 0 0 1-.402.33 2.1 2.1 0 0 1-.296-.115c-.266-.125-.294-.148-.234-.22.017-.019-.017 0-.075.048a1.1 1.1 0 0 0-.11.088.22.22 0 0 0 .044-.019c.056-.027.097-.015.412.139.179.088.206.11.203.14s.042 0 .229-.15c.22-.176.256-.198.337-.189a3.8 3.8 0 0 1 .532.253c.077.068.097.048-1.358 1.272l-1.43 1.202a.231.231 0 0 1-.236.012l-.055-.029.04.047c.029.033.037.051.025.078a1.7 1.7 0 0 1-.213.198c-.19.161-.199.168-.27.161-.047 0-.069 0-.059.011.043.042.015.091-.11.199-.342.287-.33.279-.413.251-.039-.011-.04-.011-.022.022a.097.097 0 0 1 .011.061 2.04 2.04 0 0 1-.229.207c-.2.167-.22.18-.283.176s-.059 0-.044.022a.062.062 0 0 1 .007.055 4.04 4.04 0 0 1-.626.51 4.2 4.2 0 0 1-.69-.38m3.338 2.796-.22.211-1.21-.702c-.661-.386-1.211-.706-1.211-.711a.3.3 0 0 1 .092-.031c.159-.041 1.444 1.918 7.488-3.59-2.127 2.073-4.433 4.317-4.95 4.816Zm5.146-5.016c3.63-3.608 1.897-4.278 1.895-4.278l.733.273c.541.201 1.002.373 1.024.378s.039.017.039.025-1.744 1.705-3.691 3.602m-8.45-.37c-.11-.057-.173-.101-.173-.117 0-.038-.015-.033-.128.051a.37.37 0 0 1-.143.077.36.36 0 0 1-.124-.044.3.3 0 0 0-.085-.033.23.23 0 0 0 .068.044c.08.042.1.075.067.117-.014.015.039-.016.11-.071a.55.55 0 0 1 .187-.097 1.06 1.06 0 0 1 .22.084 1.1 1.1 0 0 0 .172.078 1.3 1.3 0 0 0-.171-.089m.779 1.855a.11.11 0 0 0 .029-.026c0-.015-.014 0-.037.022s-.02.02.008.004m.198-1.996a2 2 0 0 1 .253-.174.22.22 0 0 1 .07.019c.04.013.045.013.028 0-.043-.045-.024-.094.052-.146l.21-.151c.122-.088.144-.1.201-.092s.064.008.046-.026 0-.066.229-.238c.171-.13.191-.14.254-.134.044 0 .055 0 .045-.011-.031-.029-.018-.069.038-.115.092-.077.047-.053-.088.049-.16.118-.197.134-.265.11-.049-.015-.052-.015-.022 0 .05.041.028.077-.131.195-.356.265-.33.252-.46.185-.05-.024-.087-.041-.087-.034a.3.3 0 0 0 .069.043c.11.055.096.083-.142.258s-.265.192-.33.174a5.2 5.2 0 0 1-.562-.296c-.025-.022-.035-.024-.062 0s-.026.024-.008.024a4.4 4.4 0 0 1 .576.294c.049.046.031.066-.209.252s-.249.185-.389.117c-.092-.044-.076-.025.019.028s.072.086-.095.22c-.209.165-.235.185-.16.143a.152.152 0 0 1 .177-.009c.051.025.053.025.017 0-.077-.057-.053-.095.171-.267.165-.125.22-.159.266-.159s.055-.008.052-.039.049-.087.231-.228Zm1.207 1.495a.17.17 0 0 0 .05.036c.028.016.052.022.052.019a.22.22 0 0 0-.052-.036c-.029-.016-.05-.022-.05-.019m-.087-3.081a3.74 3.74 0 0 1 .538.277.09.09 0 0 1-.008.054c-.011.022 0 .016.056-.021.077-.057.117-.066.177-.033.037.02.037.02 0-.015a.069.069 0 0 1-.022-.064c.009-.024 0-.022-.049.006-.093.059-.151.047-.414-.088-.236-.121-.24-.124-.239-.181a.22.22 0 0 0 0-.055l-.045.039c-.027.024-.056.046-.085.068l-.043.03.044-.015a.19.19 0 0 1 .09-.002m.542-.431v-.058l-.069.052-.071.055a.33.33 0 0 0 .066 0c.072.003.074.003.074-.049m-1.989 1.366c.011-.011 0-.024-.039-.036l-.054-.019.038.033c.023.022.044.028.055.022m2.307-1.637-.042.019a.157.157 0 0 1-.081.027c-.037 0-.05.009-.05.032a.184.184 0 0 1-.063.088l-.065.055.06-.042a2.1 2.1 0 0 0 .241-.179m.073-.03c.048-.02.072-.012.311.11q.142.068.277.149c.012.015.011.035-.01.066s-.012.032.07-.028a.208.208 0 0 1 .23-.044c.033.013.033.013.006-.011-.062-.049-.038-.091.121-.211.202-.157.204-.161.152-.15a.165.165 0 0 1-.082-.011c-.035-.018-.038-.018-.019 0 .044.048.017.084-.163.22-.152.117-.197.143-.246.142a.99.99 0 0 1-.301-.126c-.22-.122-.241-.133-.237-.177l.01-.042-.086.059a.9.9 0 0 0-.085.066.14.14 0 0 0 .052-.012m-.013-.438c.011 0 0-.011-.026-.024a.18.18 0 0 0-.06-.024c-.008 0 0 .01.026.024a.2.2 0 0 0 .06.024m-.779.974c-.007.022 0 .019.044-.013.03-.022.052-.042.049-.044a.28.28 0 0 0-.066-.011c-.048-.009-.053-.007-.037.013a.074.074 0 0 1 .01.055m-1.109 1.109a1.4 1.4 0 0 0 .204.093l-.19-.11c-.173-.088-.188-.101-.183-.136v-.031l-.046.038c-.044.033-.044.041-.022.042a1.5 1.5 0 0 1 .237.104m-.163-.189-.001.005.008-.005Zm.574-.396v.001Zm-.342.247a.14.14 0 0 0 .04-.033.12.12 0 0 0-.04-.006c-.022 0-.04.011-.04.033s0 .029.04.007Zm.596-.417h-.007l.04-.03-.059-.008c-.055 0-.059 0-.053.033s.024.046.079.005m-.113.351a2 2 0 0 0 .205.094 1.4 1.4 0 0 0-.172-.092c-.171-.085-.186-.099-.176-.137v-.045a1 1 0 0 0-.13.092h.039a.66.66 0 0 1 .234.088m4.779-1.988a.036.036 0 0 0-.028-.017c-.023 0-.018.012.012.024s.016-.001.016-.007m-1.089-.141a.061.061 0 0 1-.013-.057c.013-.033.008-.03-.062.027l-.059.055h.079c.072.006.078-.005.055-.025m-.312.152.071-.046.074-.057h-.06a.33.33 0 0 1-.099-.011c-.033-.014-.033-.014 0 .009a.067.067 0 0 1 .025.07Zm-1.492-.094c.009 0 0-.009-.009-.018a.14.14 0 0 0-.042-.015s0 .008.007.015a.11.11 0 0 0 .044.018m1.833.633c-.015.032.022.011.138-.077.199-.153.212-.153.487-.011.188.098.206.11.206.153s0 .055.052.021a.087.087 0 0 1 .095-.009c.032.01.061.016.064.01s0-.009-.01-.009c-.04 0-.04-.07 0-.116l.04-.044-.056.046a.21.21 0 0 1-.11.046 1.2 1.2 0 0 1-.272-.11c-.173-.087-.22-.121-.22-.147s.055-.084.206-.204c.047-.037.046-.046 0-.017a.165.165 0 0 1-.089.011c-.053-.009-.055-.008-.039.019a.075.075 0 0 1 .011.058 1.6 1.6 0 0 1-.198.165c-.173.133-.191.143-.252.133s-.061 0-.044.016.007.04-.009.066m-.403.342a1.4 1.4 0 0 0 .139-.115s-.006-.007-.05.03-.058.033-.126.027-.08 0-.056.022.033.05-.012.099c-.018.024.028-.004.105-.063M13.71 13.09l-.001.004.003.001Zm.19.089a.034.034 0 0 0-.027-.017c-.025 0-.02.011.011.024s.021 0 .016-.007m2.49 0a.15.15 0 0 1 .11-.018c.048.008.057 0 .043-.009-.033-.033-.031-.065.034-.119l.046-.05h-.061c-.055 0-.059 0-.052.042s-.01.051-.084.103h.008c-.09.066-.12.101-.044.051m-2.372-4.955v.008l.027-2.573.028-2.558c.013-1.21.013-1.242-.021-1.241s-.249.075-.514.163l-1.647.541-1.727.568-1.198.398c-.35.11-.891.294-1.204.395s-.831.271-1.151.375l-2.405.792-1.809.592c-.143.044-.137.028-.096.286l.206 1.384c.096.638.282 1.891.414 2.787l.456 3.07c.117.796.249 1.672.291 1.95s.078.508.085.513.026 0 .043-.005l5.092-3.078c2.786-1.683 5.076-3.07 5.09-3.081a6.6 6.6 0 0 0 .04-1.286M6.154 6.377l2.252-.813.173 2.46-2.16.977Zm.542 5.362L6.45 9.311l2.149-.99.161 2.293Zm1.958-6.265 1.907-.69.096 2.304-1.837.833Zm.33 5.008-.147-2.278 1.831-.842.09 2.156Zm8.422 4.698a.565.565 0 0 0-.293 0h-.006c-.036.01-.349.264-.937.757q-.456.382-.901.77c-.055.074-.026.16.078.228s1.038.507 1.119.526a.487.487 0 0 0 .282-.025q.891-.759 1.753-1.554c.068-.073.067-.121-.009-.194a2.75 2.75 0 0 0-.541-.275c-.264-.112-.511-.222-.545-.233m5.056-1.866.001.011v.001Zm-6.48.851c-.055-.008-.062 0-.039.017a.042.042 0 0 1 .007.058c-.018.034-.018.034.025.006a.147.147 0 0 1 .086-.022c.033.007.037 0 .031-.024a.094.094 0 0 1 .022-.065c.043-.041.033-.041-.022 0a.116.116 0 0 1-.11.03m-.83-.902-.056.048a.17.17 0 0 0-.046.061c.02-.014.039-.03.06-.043Zm.715.856c-.025 0-.02.011.012.022.013 0 .021 0 .016-.006a.036.036 0 0 0-.022-.016Zm-.335-.259c.049-.061.034-.057-.067.026v-.007c-.118.097-.125.104-.066.084s.068 0 .202.059a1.2 1.2 0 0 0 .158.066.48.48 0 0 0-.11-.066c-.147-.072-.167-.1-.117-.162m-7.21 3.621h.006l-.05.046.049-.04a.18.18 0 0 0 .055-.044c0-.012-.011-.008-.06.038m3.773-1.026v.046l.055-.043c.03-.021.055-.041.055-.048h-.055c-.048 0-.055 0-.055.045m.223-.127a.22.22 0 0 0 .052 0 .21.21 0 0 1 .098.014c.041.022.041.022.009-.014a.085.085 0 0 1-.022-.072.15.15 0 0 0 .006-.038s-.13.099-.143.11m-4.199 1.317a.14.14 0 0 0 .032-.033c0-.015-.014 0-.036.022s-.024.033.004.011m4.047-.721c.011.011.026.017.031.011s0-.014-.022-.02-.024-.009-.009.009m.074.039c.012.012.027.017.031.012s0-.016-.02-.021-.03-.015-.011.009m-.019.728a.3.3 0 0 0 .07.043c.038.018.069.031.069.025a.3.3 0 0 0-.069-.044c-.038-.018-.07-.03-.07-.024m.084-.699v-.001Zm-.615-.177s.015 0 .035-.023a.168.168 0 0 1 .186 0 .14.14 0 0 0 .055.023.15.15 0 0 0-.056-.041c-.036-.019-.044-.035-.037-.068v-.039a1.4 1.4 0 0 0-.183.148m-3.241.585-.052.044.057-.036a.26.26 0 0 0 .055-.045c0-.012-.006-.009-.06.037m3.856-.409c.011.013.025.019.031.013s0-.015-.022-.022-.02-.003-.009.009m-.628-.162h-.075c-.059 0-.067 0-.059.031s0 .048-.03.075 0 .017.059-.03h.006q.052-.036.099-.076m-3.445.723c-.022.028-.022.03.007.007a.11.11 0 0 0 .03-.029c0-.015-.011 0-.033.022Zm3.76-.062c0-.038 0-.04-.016-.03-.041.039-.13.011-.387-.121s-.3-.163-.285-.204-.014-.022-.078.038l-.044.04a.13.13 0 0 1 .057-.011 3.23 3.23 0 0 1 .598.299.1.1 0 0 1-.011.066c-.02.037-.019.039.014.008s.099-.036.244.039.132.069-.013-.025c-.062-.04-.079-.061-.079-.099m-.361.254.039-.033a.25.25 0 0 0 .038-.039c0-.014-.014 0-.045.032Zm.084-.078.041-.033a.25.25 0 0 0 .043-.035c0-.014-.02 0-.051.028Z"/></svg>