<svg xmlns="http://www.w3.org/2000/svg" viewBox="0 0 24 24"><path fill="#44739e" d="M20.943 17.29a.6.6 0 0 1-.08 0h-7.651v.064c0 .038-.049.07-.109.07h-2.212c-.06 0-.109-.032-.109-.07v-.064h-7.65a.6.6 0 0 1-.079 0H1v.437c0 .274.441.494.986.494h20.028c.544 0 .986-.22.986-.494v-.437Zm.644-.717V6.502a.722.722 0 0 0-.723-.723H3.132a.722.722 0 0 0-.722.723v10.071a.722.722 0 0 0 .643.717h17.89a.722.722 0 0 0 .644-.717M11.961 5.931h.01a.12.12 0 0 1 .027 0 .12.12 0 0 1 .029 0 .182.182 0 0 1 .155.181.185.185 0 0 1-.059.136.17.17 0 0 1-.089.045.19.19 0 0 1-.072 0 .174.174 0 0 1-.088-.045.183.183 0 0 1-.059-.136.181.181 0 0 1 .146-.181M3.116 16.622V6.459h17.762v10.163Z"/></svg>