<svg xmlns="http://www.w3.org/2000/svg" viewBox="0 0 24 24"><path fill="#44739e" d="M1 12V7.746h22v8.508H1Zm12.727 3.075c.475-.058.882-.204 1.234-.44.108-.073.344-.267.353-.289.003-.009-.866-1.377-.914-1.438-.001-.002-.049.036-.106.082-.289.241-.658.36-1.038.337-.521-.033-.928-.287-1.135-.708-.11-.224-.129-.32-.129-.645-.001-.25.004-.299.04-.412.105-.337.321-.61.595-.751.243-.125.357-.152.653-.151.215 0 .283.007.404.04.256.069.484.19.689.365l.096.083.416-.777.415-.777-.09-.085c-.17-.159-.524-.364-.8-.463-.16-.058-.414-.122-.632-.16-.248-.043-1.013-.044-1.245 0-.684.127-1.227.405-1.667.852-.471.478-.751 1.079-.842 1.806-.023.187-.023.673 0 .86.064.512.235.982.512 1.401.159.241.514.594.766.762.683.455 1.483.623 2.425.508m-5.594-1.03v-.902H6.517V9.001H4.489v5.947h3.644Zm11.447-2.071V9.001h-2.028v5.947h2.028Z"/></svg>