<svg xmlns="http://www.w3.org/2000/svg" viewBox="0 0 24 24"><path fill="#44739e" d="M19.098 9.726a.502.502 0 0 0-.487.255 13.28 13.28 0 0 0-1.25 3.511.323.323 0 0 0 .337.346c.261 0 .406-.18.535-.398a15.02 15.02 0 0 0 1.153-3.351c.007-.166-.016-.359-.288-.363m.141-2.126a3.101 3.101 0 0 0-2.488 1.1 1.43 1.43 0 0 0-.258-.385 2.68 2.68 0 0 0-2.103-.731 3.428 3.428 0 0 0-2.243.748 2.034 2.034 0 0 0-1.75-.756 3.053 3.053 0 0 0-2.873 1.243 1.09 1.09 0 0 0-.273-.836 1.522 1.522 0 0 0-1.128-.36 1.956 1.956 0 0 0-1.774 1.025c-.606.968-2.077 4.158-2.044 5.704a1.741 1.741 0 0 0 1.885 1.745 2.835 2.835 0 0 0 2.138-.699 2.42 2.42 0 0 0 1.824.723 3.003 3.003 0 0 0 2.217-.815 2.413 2.413 0 0 0 1.961.824 3.538 3.538 0 0 0 2.769-1.361 2.2 2.2 0 0 0 2.239 1.352c2.157 0 3.105-1.483 3.894-3.828a9.02 9.02 0 0 0 .455-2.152A2.2 2.2 0 0 0 19.239 7.6m-12.99 6.483c-.11 1.118-1.131 1.369-2.022 1.348-.645-.016-1.227-.311-1.244-1.062a15.1 15.1 0 0 1 1.942-5.354 1.298 1.298 0 0 1 1.21-.714c.534 0 .667.275.66.605a15.07 15.07 0 0 1-1.445 3.619c-.188.387-.352.727-.463.975 1.118-.193 1.393.211 1.362.583m2.273-1.613c-.074.2-.214.618-.33 1.061a3.65 3.65 0 0 1 1.111-.144c.537.013.88.236.88.68 0 1.074-1.189 1.389-2.012 1.389a1.532 1.532 0 0 1-1.701-1.504 10.9 10.9 0 0 1 1.219-4.09 2.51 2.51 0 0 1 2.74-1.631c.561 0 1.21.24 1.21.77 0 .734-.62 1.013-1.236 1.049a8.5 8.5 0 0 1-.911.012 5.17 5.17 0 0 0-.424.869c1.141-.161 1.625.099 1.43.759-.258.89-1.028.949-1.976.78m5.612-2.78a.815.815 0 0 0-.66.406 11.74 11.74 0 0 0-1.158 3.091c-.076.522.149.63.396.63.397 0 .841-.42.99-1.112 0 0-.755-.017-.55-.687.202-.649.585-.79 1.221-.815 1.253-.052 1.128.873 1.028 1.366a3.278 3.278 0 0 1-3.08 2.887 1.609 1.609 0 0 1-1.79-1.736 8.68 8.68 0 0 1 .713-2.797c.681-1.563 1.385-2.663 3.176-2.663 1.077 0 1.925.386 1.801 1.394a1.21 1.21 0 0 1-1.134 1.227c-.188.015-.959 0-.703-.732.091-.253.128-.459-.25-.459m6.774 1.32a10.86 10.86 0 0 1-1.08 2.893 2.545 2.545 0 0 1-2.473 1.54c-.801-.01-1.704-.305-1.711-1.54a9.24 9.24 0 0 1 .702-2.96c.568-1.487 1.145-2.701 2.97-2.68 2.137.033 1.757 1.931 1.594 2.757ZM23 1H1v22h22Zm-.844 9.979v.009a12.58 12.58 0 0 1-.928 2.878c-.77 1.588-1.802 2.809-3.786 2.809a2.998 2.998 0 0 1-2.443-.99 3.995 3.995 0 0 1-2.668.998 3.117 3.117 0 0 1-1.962-.632 3.817 3.817 0 0 1-2.194.626 3.15 3.15 0 0 1-1.857-.557 3.66 3.66 0 0 1-2.136.531 2.289 2.289 0 0 1-2.431-2.243c-.037-1.739 1.43-4.92 2.118-6.023a2.563 2.563 0 0 1 2.269-1.302c1.048 0 1.43.299 1.615.681a3.96 3.96 0 0 1 2.64-.727 2.71 2.71 0 0 1 1.822.582 4.12 4.12 0 0 1 2.186-.569 3.317 3.317 0 0 1 2.453.809 3.648 3.648 0 0 1 2.396-.796 2.867 2.867 0 0 1 2.484 1.092 3.616 3.616 0 0 1 .422 2.824"/></svg>