<svg xmlns="http://www.w3.org/2000/svg" data-name="Livello 1" viewBox="0 0 24 24"><path fill="#44739e" d="M11.9883 1.1758a.8985.8985 0 0 0-.879.9472c-.0311.809-.032 1.621.002 2.4297a.823.823 0 0 0 .8282.875.8387.8387 0 0 0 .9258-.875c.0331-.4026.0076-.8098.0078-1.2148s.0227-.8097-.006-1.2129a.9123.9123 0 0 0-.8788-.9492M4.5625 3.9609a2.93 2.93 0 0 0-.6504.4434.581.581 0 0 0 .1035.8652c.8186.6616 1.666 1.2934 2.5274 1.9063a.82.82 0 0 0 .6054.0351c.5747-.1741.8033-.7904.3711-1.1738-.7831-.6948-1.65-1.3093-2.4902-1.9473a1.73 1.73 0 0 0-.4668-.1289m14.8047.0352a.85.85 0 0 0-.5684.1934c-.775.5264-1.5067 1.1146-2.2246 1.709a.714.714 0 0 0-.1347 1.08.846.846 0 0 0 1.2265.0625 45.6 45.6 0 0 0 2.1563-1.6484 1.92 1.92 0 0 0 .3672-.5215.85.85 0 0 0-.8223-.875m-7.3867 2.8535a4.667 4.667 0 0 0-4.668 3.7344l-.1426 2.0664a2.5 2.5 0 0 0-.2695-.0195c-1.55-.03-1.7402.1388-1.7402 1.5488v6.08c0 .46-.0303.9307.0097 1.3907.05.56.3395.8187.9395.8887a3.5 3.5 0 0 0 .5605.0117c3.51.01 7.0193.01 10.5293 0a5.9 5.9 0 0 0 .8399-.0508.78.78 0 0 0 .7207-.6895 4.9 4.9 0 0 0 .0507-.7714v-6.5996c0-1.7487-.1015-1.8486-2.0273-1.7989a17.5 17.5 0 0 0-.123-2.0683 4.67 4.67 0 0 0-4.6797-3.7227m-.2637 2.6016a2.055 2.055 0 0 1 2.3125 1.8027c.0326.4598.0117.9212.0156 1.3828l-4.1152-.0058.0156-1.3809a2.055 2.055 0 0 1 1.7715-1.7988m9.5.3554c-.2168.0023-.4338.0098-.6504.0098v.002c-.4641 0-.9291-.0266-1.3906.0058a.9216.9216 0 0 0-.959.7793c-.0227.4364.3774.8162.9863.838.896.0319 1.7956.034 2.6914 0a.869.869 0 0 0 .9004-.8204.9045.9045 0 0 0-.9297-.7988c-.2154-.0149-.4316-.0179-.6484-.0157m-17.7871.002a42 42 0 0 0-1.2129.0117c-.6153.016-1.0211.3508-1.0352.793-.015.4718.413.8103 1.084.836.4034.0153.807.0038 1.211.0038v-.0312c.496 0 .9975.0358 1.4882-.0118a.773.773 0 0 0 .7579-.7558.7514.7514 0 0 0-.627-.7656 1.8 1.8 0 0 0-.455-.0703c-.404-.0034-.807-.0085-1.211-.0098m8.621 6.084a1.24 1.24 0 0 1 .3595.0781 1.165 1.165 0 0 1 .8007 1.1387c-.05.12-.0707.3704-.2207.4804a1.395 1.395 0 0 0-.4394 1.3301.64.64 0 0 1-.0703.42.79.79 0 0 1-.5098.291.774.774 0 0 1-.4902-.3204c-.08-.09-.0608-.2701-.0508-.4101a1.605 1.605 0 0 0-.459-1.3399.934.934 0 0 1 .0898-1.2714 1.241 1.241 0 0 1 .9903-.3965" class="cls-1" data-name="Colore riempimento 1"/></svg>