<svg xmlns="http://www.w3.org/2000/svg" viewBox="0 0 24 24"><path fill="#44739e" d="M11.21 20.901a.44.44 0 0 0-.065-.008v-.01h-.009c-.017 0-.032.008-.049.01h-.007v.008a.6.6 0 0 0-.061.014v-.014a.4.4 0 0 0-.06.012.55.55 0 0 0-.067.041.6.6 0 0 0-.055.036.4.4 0 0 0-.055.051.48.48 0 0 0-.071.11.5.5 0 0 0-.043.158.4.4 0 0 0-.011.052.4.4 0 0 0 .006.055.44.44 0 0 0 .028.136.47.47 0 0 0 .076.11.44.44 0 0 0 .039.048.48.48 0 0 0 .11.072l.016.011a.48.48 0 0 0 .11.029l.039.008a.4.4 0 0 0 .055.011.42.42 0 0 0 .103-.022.44.44 0 0 0 .094-.023.465.465 0 0 0 .213-.2.411.411 0 0 0 .036-.381c0-.012-.011-.023-.016-.036v.027a.5.5 0 0 0-.039-.084v-.006a.477.477 0 0 0-.191-.183h-.012a.44.44 0 0 0-.074-.022c-.014 0-.028-.005-.042-.009Zm.042.633v.048h-.144v-.43h.048v.382Zm-.01-.193h.295v.024a.406.406 0 1 1-.405-.406h.024v.052h-.024a.358.358 0 1 0 .357.383h-.247Zm-.2-.126a.063.063 0 0 1-.126 0 .063.063 0 0 1 .126 0m1.608-4.441.042 2.978.019 1.346c.009 0 .019 0 .028.008a.11.11 0 0 1 .037.011l-.017-1.14Zm-1.989 4.637v.019Zm.026.15a.48.48 0 0 1-.026-.125 5.1 5.1 0 0 0 0 .633c0-.029.013-.217.026-.508m.08.11v.549a3.4 3.4 0 0 0 .036-.498.6.6 0 0 1-.036-.051m.667.06c-.012.01-.026.018-.04.028l.013.622c.012-.009.017-.261.027-.65m-.354-.84.032-1.562.052-2.994a.02.02 0 0 0-.028 0c-.01.011-.042 1.194-.071 2.63l-.042 1.94h.007a.4.4 0 0 1 .05-.014m1.409.472a.167.167 0 0 0 .05.122l-.007-.201c-.015.026-.043.034-.043.079m-.92.211v-.013l-.021.031v.007c.005.199.011.201.021-.025m-.295-4.199a7 7 0 0 0 0-.989c-.029.027-.099 2.737-.129 4.497a.33.33 0 0 1 .065.013Zm.807-4.862c.053-.561.21-9.83.171-9.869-.016-.016-.029.042-.029.129l-.07 3.729Zm-.633-.702c0 .295.008.415.017.268a4.8 4.8 0 0 0 0-.536c-.009-.148-.017-.027-.017.268m-.052 9.168a.6.6 0 0 1 .056.039l.06-4.49c0-.03 0-.055-.008-.077a4 4 0 0 0-.041.499Zm-1.831 1.05a.26.26 0 0 0 .02.048v-.082c-.013-.002-.02.006-.02.034m1.481-10.231c-.009-.159-.016-.018-.016.316s.007.463.016.289.008-.447 0-.605m.447-2.503.016.523V8.771c-.008-.288-.016-.053-.016.524m.064-3.625a1.2 1.2 0 0 0 0-.279c-.011-.071-.019 0-.019.152s.009.211.019.127m-.465 2.489c-.01-.082-.019 0-.017.176s.006.255.017.154a1.65 1.65 0 0 0 0-.33m.792-4.981a1.1 1.1 0 0 0 0-.256c-.011-.071-.02-.013-.02.127s.009.199.02.129m.898-1.56c-.116 0-.163.009-.11.02a.67.67 0 0 0 .21 0c.062-.011.015-.02-.1-.02m-1.179 3.331c.01-.173.01-.457 0-.629s-.015-.032-.015.314ZM14.28 19.21l-.156-3.03-.161-3.262-.403-8.161-.091-2.166-.047-1.099c0-.3-.109-.409-.408-.407a.88.88 0 0 0-.672.286 2.1 2.1 0 0 0-.085.575l-.024.466-.19.023c-.181.024-.184.025-.055.06.291.079.357-.036.357-.625 0-.281.013-.33.11-.386.13-.082.84-.155.733-.075-.061.047-.061.051 0 .034a.099.099 0 0 0 .071-.084c0-.051-.067-.065-.279-.062-.154 0-.243 0-.198-.014s.073-.035.062-.053c-.034-.055.386 0 .431.055a39.2 39.2 0 0 1 .22 3.968l.11 2.33.07 1.445.188 3.868.092 2.102.023.843-.22.117a3.9 3.9 0 0 1-1.789.315c-.959 0-1.79-.22-1.941-.513a9.18 9.18 0 0 1 .061-2.418l.11-2.143.163-3.24.166-3.308.093-1.725.071-1.147.029-.495.219.077c.151.055.22.11.241.182s.009.917-.01 1.91l-.019 4.367a13.4 13.4 0 0 1-.015 1.841c-.02-.467-.028-.031-.027 1.234l-.039 3.225-.041 1.268.17.171a.362.362 0 0 0 .412.149c.365-.036.44-.145.476-.719a13.9 13.9 0 0 0-.029-1.973c-.018 0-.045-.068-.058-.152-.045-.269-.143-4.762-.143-6.512l-.065-4.631c-.027-.512-.046-.609-.12-.659a1.12 1.12 0 0 0-.697-.012c-.33.077-.33.092-.37.962l-.1 1.804-.11 2.214-.404 7.526-.16 3.078-.109 2.074a18.14 18.14 0 0 0-.139 3.293.093.093 0 0 1 .041.027.22.22 0 0 1 .06.145c0 .084 0 .084-.06.007a.31.31 0 0 1-.04-.097v.179c.201.391 1.132.684 2.309.727a3.94 3.94 0 0 0 1.199-.094 2.315 2.315 0 0 0 1.27-.578c.107-.16.115.165-.083-3.107m-3.109-7.33.015-.549v1.071c-.009.303-.015.068-.015-.521Zm.729 2.426c-.034-.021-.145.096-.118.123.011.012-.048.015-.13.007-.127-.012-.133-.009-.039.021.183.057.176.183-.007.155a.036.036 0 0 0-.036.04c0 .026-.043.048-.095.048s-.085-.02-.063-.059.017-.042 0-.024-.071.009-.11-.023c-.065-.05-.067-.048-.014.019s.049.081 0 .101.016.026.11.029c.248 0 .273.095.028.101h-.201l.233.044c.33.062.345.11.033.097-.191-.007-.239 0-.172.032a.73.73 0 0 0 .225.046c.213 0 .121.12-.098.12s-.211.067.027.077c.171.007.17.007-.038.04l-.21.032.198.007c.11 0 .198.03.198.059s-.062.045-.157.033c-.135-.016-.151-.008-.11.057a.166.166 0 0 0 .169.06c.11-.014.11-.011-.016.03a.319.319 0 0 1-.399-.209v-.011a7.95 7.95 0 0 1-.011-1.363.62.62 0 0 1 .082.134.44.44 0 0 0 .603.15.4.4 0 0 0 .057-.04c.082-.054.096-.053.096 0s-.02.077-.035.067m-.578-4.23c-.008.376-.014.056-.014-.713l.017-.684Zm-.037-5.069-.057 3.635c-.008.474-.008-.596 0-2.377l.085-4.045c.007.008-.006 1.262-.028 2.787m-.006 7.768c-.009.277-.015.064-.015-.475l.015-.503Zm.644.55c.039-.129.042-.13.057-.027a.212.212 0 0 1-.033.161.22.22 0 0 0-.05.135 1.73 1.73 0 0 1-.379.601l-.099.016a.167.167 0 0 1-.174-.131c0-.034.013-.037.035-.007.084.11.187.043.391-.274a2.6 2.6 0 0 0 .252-.477Zm-.29-1.024.015-.526V12.8c-.008.29-.012.066-.012-.498Zm.178-2.941c.022.282.031 1.278.02 2.214l-.089 1.987a6.05 6.05 0 0 1-.014-.989l.034-2.377c.006-1.165.013-1.275.049-.835m-.063-4.19-.016 3.137-.054 2.602c-.011-.013 0-1.423.018-3.137Zm-.11-2.004c.01.103.018-.044.017-.33 0-.66 0-.839.041-.802.016.016 0 1.587-.028 3.491l-.088 5.639a13.23 13.23 0 0 1-.087 2.232c-.049.048-.068.047-.11-.01s-.035-1.522.052-6.076l.045-3.518c-.001-1.452.053-1.671.155-.626Zm-.157-1.085a.77.77 0 0 0 .06.253c.018.017 0 .066-.033.11a15.6 15.6 0 0 0-.11 2.729l-.046 2.648.019-2.554.107-3.186Zm-.493-.855a2.9 2.9 0 0 1 .336-.027c.118 0 .139.013.099.061-.056.068-.229.078-.464.027l-.158-.034ZM13.98 21.26a.67.67 0 0 1 0 .21c-.011.057-.02.01-.02-.11s.009-.159.02-.1m-.033.641c-.08.096-.33.226-.363.191-.014-.016 0-.028.033-.028s.047-.028.024-.081c-.039-.092-.157-2.738-.151-3.414a12.6 12.6 0 0 1 .083 1.458l.11 1.932c.015.017.067.011.11-.017.064-.039.077-.128.076-.487 0-.425 0-.427.016-.068a.96.96 0 0 0 .073.404c.037.024.035.053-.011.11m-.409-4.497c0-.244.03.102.061.769l.057 1.678c-.002.256-.03-.09-.062-.77l-.055-1.677Zm.186 3.448c-.039.635-.041.65-.048.233a3.53 3.53 0 0 1 .074-1.003l-.029.77Zm.118-1.947c-.01.11-.017.031-.017-.173s.007-.295.017-.199a2.3 2.3 0 0 1 0 .372m0 1.401a3 3 0 0 1 0 .419c-.008.11-.016.008-.016-.219-.003-.234.005-.322.014-.2Zm.094-1.539a1 1 0 0 1 0 .256c-.01.07-.019.012-.019-.129s.007-.198.017-.127Zm0 1.584a2.1 2.1 0 0 1 0 .349c-.01.097-.019.018-.019-.175s.006-.27.016-.173Zm-.045-.561c-.01.11-.019.032-.019-.174s.008-.294.018-.199a2.3 2.3 0 0 1 0 .373Zm0-1.909a.48.48 0 0 1 0 .186c-.011.058-.02.021-.021-.081s.004-.15.016-.105Zm-.048-.937a.48.48 0 0 1 0 .186c-.011.058-.02.022-.02-.08s.005-.146.016-.106Zm-.045.727a1.4 1.4 0 0 1 0 .303c-.009.084-.018.016-.018-.152s.004-.234.014-.151Zm0 2.122c-.009.11-.017.008-.017-.219s.008-.319.017-.197a3.1 3.1 0 0 1 0 .416m-.039 1.624c.022-.507.037-.474.06.122a.736.736 0 0 1-.034.355c-.031.012-.04-.158-.027-.477Zm-.22-5.242v-.006c-.019-.021.012-.012.07.018.09.047.104.088.096.298l-.008.243-.017-.245c-.01-.135-.037-.244-.06-.244s-.034.025-.023.058.043.488.07 1.013l.074 1.328c.017.244.01.349-.018.303a6.8 6.8 0 0 1-.078-.979l-.066-1.305-.032-.395-.039.691-.072 1.469c-.032.736-.033.749-.041.247a19 19 0 0 1 .136-2.412.069.069 0 0 0 .008-.082m-.133.026-.021.783-.026.769-.008-.676c-.007-.546.019-.956.055-.876m-.154.22c.021.09.073 1.39.11 2.89l.102 2.748c.012.011.013-.574 0-1.305l.012-.606.041 1.34c0 .52 0 .618-.064.618s-.07-.063-.07-.279l-.154-5.034c-.008-.32 0-.468.023-.369Zm-.088.746c.009-.503.011-.511.023-.116l.086 2.742.052 2.346c-.05.053-.183-3.948-.161-4.968Zm-.097-.879v-.007a.143.143 0 0 1 .076.11c.01.084.008.083-.032 0-.027-.059-.035.144-.022.56l.085 5.173c-.008-.052-.036-1.09-.064-2.309l-.078-2.871c-.024-.558-.018-.667.035-.649Zm-.035 2.88.007-.007.045 3.064c-.035-.036-.158-4.719-.155-5.534.003-1.009.041-.164.103 2.484Zm-.159-1.702v-.006l.071 2.99c.036 1.797.034 1.824-.057 1.868-.062.033-.083.021-.1-.682h.064v-.315l.026.589c.024.259.031-.017.018-.794l-.04-3.006.018-.637Zm-.094 3.84v-.047h.072v.047Zm-.157-4.934c.073-.119.11-.022.135.358l.058 2.601.039 1.932a.188.188 0 0 0-.072-.151h-.006v.009c-.011-.013-.03-.006-.043-.013l-.022-.008a.33.33 0 0 0-.055-.014l-.025-1.848-.009-2.86Zm-.021 4.69a.1.1 0 0 1 .021.006.14.14 0 0 0-.023 0Zm0 .126a.079.079 0 0 1 .082.073h.037v.047h-.061v-.066c-.014-.026-.029-.052-.06-.053Zm-.058.316a.168.168 0 0 1-.057-.141.18.18 0 0 1 .047-.134v.048c.013-.022.015-.059.037-.067v.299a.1.1 0 0 1-.022-.012Zm-.053.134c.022.006.037.028.062.028h.009c.017 0 .026-.013.039-.018a.192.192 0 0 0 .11-.05v.057h.007a6.6 6.6 0 0 1-.012.694c-.02.021-.038-.041-.038-.135l-.006-.593a.3.3 0 0 1-.057.027c-.016 0-.022.017-.04.018 0 .11-.008.126-.014 0a.11.11 0 0 1-.056-.026l-.032-.014a4.7 4.7 0 0 1-.028.794 5.7 5.7 0 0 1-.036-.824.3.3 0 0 0 .06.029.17.17 0 0 1 .025.019Zm.174-.171v-.039h.039c-.008.034-.031.03-.042.046Zm-.263-4.519.052 3.009.012 1.15a.28.28 0 0 1 .066-.024l-.027-4.727c.019.022.046 1.393.059 3.046l.007 1.666a.33.33 0 0 1-.053.021.28.28 0 0 0-.066.024c-.019.011-.043.013-.06.024l-.009-1.736.016-2.447Zm-.127-.624v-.006c.028 0 .045 1.127.045 3.061v1.947c0 .008-.009.015-.009.024v.033l-.013 1.045c-.034-.044-.068-6.097-.026-6.097Zm-.258.026c.013.125.034 1.393.047 2.932l.006 2.216h-.05v-.428h-.02l-.007-1.695.02-3.019Zm.052 5.291a5.5 5.5 0 0 1-.026.689 3 3 0 0 1-.036-.689Zm-.174-5.246c.013.08.028 1.319.035 2.877v1.81h-.067Zm.029 5.258a5.7 5.7 0 0 1-.029.696 5.5 5.5 0 0 1-.026-.696Zm-.158-4.109c.006-.682.016.123.023 1.789a29 29 0 0 1-.041 3.078 8.94 8.94 0 0 1-.019-1.782v-.007l.037-3.083Zm-1.027-1.149a5.8 5.8 0 0 1 .023.748c-.008.859-.028.749-.048-.264a2.17 2.17 0 0 1 .025-.484m-.035 2.759-.008-.007-.038 2.097v.07a.5.5 0 0 1 .043-.159l.065-1.987.175-2.887c.013 0 .01.022-.006.049-.033.051-.128 3.021-.163 4.72a.4.4 0 0 1 .055-.051l.034-1.187.099-2.948c.031-.422.034-.361.018.35l-.097 3.749a.55.55 0 0 1 .067-.041l.059-2.333.069-2.249c.024-.075.075-.074.181 0 .08.058.081.191.029 3.016l-.032 1.552h.012a.4.4 0 0 1 .061.019l.008-.504.038-2.997c0-1.031.01-1.109.086-1.1.017 0 .029.016.04.06v.009c0 .013 0 .034.006.051v-.05.124c.021.293.021 1.017.018 2.839v1.745c0 .006.013.008.016.015a.4.4 0 0 1 .022.048l.031-2.659a13.85 13.85 0 0 1 .061-2.198c.039 0 .045.242.023.944l-.031 3.054v2.132l-.143-.011a.314.314 0 0 1-.178-.059 5 5 0 0 1-.014-.565.44.44 0 0 1-.094.023l-.023.517a4.6 4.6 0 0 1-.009-.51.4.4 0 0 1-.071.015l.007.513c.02.038.013.038-.029 0a1.75 1.75 0 0 1-.033-.523l-.04-.008-.035-.007c-.015.54-.026.503-.051.488a2.33 2.33 0 0 1-.019-.51l-.015-.011c-.019-.011-.036-.023-.053-.035l-.032.508a.196.196 0 0 1-.141-.042l-.11-.077.037-1.216.072-2.078c.054-.817.054-.8.033.298Zm-.089.07-.007-.007-.118 2.633c-.033.191-.037.162-.02-.163l.102-2.819.099-2.237c.009.102-.011 1.27-.056 2.59Zm-.134-2.928-.008-.007c.077.014.09.065.1.389a20.6 20.6 0 0 1-.031 1.258l-.037.877.012-1.236-.017-.676c-.018.348-.034.453-.04.281l-.041-.599c-.024-.286-.024-.307.062-.291Zm-.078 1.258.055 1.477c.019.796.016.879-.011.349a12.5 12.5 0 0 1-.044-1.829Zm.041 3.135a8.5 8.5 0 0 1-.031.932l-.045.416.021-.434.03-.932.01-.494Zm-.139-1.217-.085 1.492c-.012-.013.013-.698.045-1.531l-.007-.008.084-1.491c.013.013 0 .701-.037 1.538m-.076-1.146c0-.269.008-.38.018-.245a4.5 4.5 0 0 1 0 .489c0 .147-.01.037-.01-.231Zm.11-1.917a1.76 1.76 0 0 1 0 .323c-.01.097-.019.03-.019-.149 0-.142.01-.188.019-.177Zm-.038.728-.008-.014a3.6 3.6 0 0 1 0 .466c-.009.136-.018.038-.018-.219s.01-.358.026-.237Zm-.126-.962c.041.032.083.049.094.038a1.45 1.45 0 0 1 0 .339l-.022.357-.016-.33a1.08 1.08 0 0 0-.07-.395c-.049-.052-.047-.054.014-.009m.02 2.762a2.36 2.36 0 0 1 .019.458l-.006.454-.041-.349c-.041-.324-.028-.563.028-.563m-.008-1.562c0-.205.008-.294.018-.199a2.3 2.3 0 0 1 0 .377c-.01.106-.018.028-.018-.178m-.075-.431a.48.48 0 0 1 0 .186c-.011.058-.021.022-.021-.08s.01-.146.021-.106m0 1.705c-.01.097-.019.029-.019-.151s.009-.258.019-.175a1.76 1.76 0 0 1 .002.326Zm-.047-1.024a1.54 1.54 0 0 1 0 .303c-.011.082-.018.014-.018-.152s.01-.235.018-.151m0 1.513a2.3 2.3 0 0 1 0 .373c-.009.11-.017.032-.018-.174s.009-.294.018-.194Zm0 1.637a3 3 0 0 1 0 .417c-.009.109-.017.007-.017-.22s.008-.319.017-.197m-.045-2.336a1.2 1.2 0 0 1 0 .28c-.01.084-.018.027-.018-.127s.007-.219.018-.153m0 1.495a2.4 2.4 0 0 1 0 .369c-.01.11-.018.031-.018-.173s.005-.29.015-.196Zm-.018 1.458.029.257.031.256.025-.21.026-.21v.22c0 .121.014.22.037.22a1.45 1.45 0 0 0 .012-.502l-.052-1.106-.021-.606.064.792.067 1.138c.008.683.044.282.11-1.161l.079-1.329c.009.077-.008.746-.038 1.484a4.8 4.8 0 0 0 0 1.404.2.2 0 0 0 .022.03c.095.11.073.11-.11.03a.425.425 0 0 1-.285-.478Zm-.029-2.139a.82.82 0 0 1 0 .233c-.011.071-.02.024-.021-.11s.01-.178.021-.123m0 1.89c-.011.084-.019.016-.019-.152s.008-.234.019-.151a1.6 1.6 0 0 1 .001.303Zm3.812 1.459a4.55 4.55 0 0 1-1.778.347 7.18 7.18 0 0 1-1.672-.261c-.076-.037-.101-.057-.055-.043a17 17 0 0 0 .556.119 5.9 5.9 0 0 0 2.906-.181c.128-.074.152-.063.044.019Zm-1.843.176c.269 0 .379.007.245.016a4.1 4.1 0 0 1-.489 0c-.134-.006-.024-.014.245-.014Zm1.912-.558a4.384 4.384 0 0 1-3.093.33c-.353-.095-.868-.371-.868-.465 0-.054.024-.047.103.027a1.6 1.6 0 0 0 .338.206 3.265 3.265 0 0 0 1.632.279 3.74 3.74 0 0 0 1.115-.11 2.09 2.09 0 0 0 .839-.406c.041-.04.074-.052.074-.028a.44.44 0 0 1-.139.167Zm.324-.058a.37.37 0 0 1-.103.118c-.041.024-.039.012 0-.042s.052-.096.038-.119 0-.04.04-.04.058.022.026.083Z"/></svg>