<svg xmlns="http://www.w3.org/2000/svg" viewBox="0 0 24 24"><path fill="#44739e" d="M11.203 6.081a.423.423 0 0 0 .424-.423v-.025h-.309v.049h.259a.374.374 0 1 1-.367-.399h.021v-.05h-.022a.425.425 0 0 0 0 .848Zm-.159-.519a.065.065 0 1 0-.065-.065.064.064 0 0 0 .064.064m.188-.128h-.05v.447h.149v-.047h-.099Zm-1.694.898c.116.026 1.308.037 2.661.024l2.461-.026.025-.783.025-.787H12.08c-1.445 0-2.654.026-2.687.059a2.82 2.82 0 0 0-.059.757c0 .653.013.704.201.75Zm4.562-1.29c.143 0 .245.038.245.103 0 .228-.11.514-.195.514-.046 0-.057-.085-.023-.19.039-.127.027-.169-.04-.129s-.098.019-.098-.034.069-.099.155-.103c.103 0 .083-.034-.066-.08l-.23-.073Zm-.246.975a.482.482 0 0 1 .344-.08c.274.008.276.012.062.08-.324.097-.47.097-.409 0Zm-1.118-.672a.308.308 0 0 1 .186.056.195.195 0 0 1 .077.158h-.184a.08.08 0 0 0-.084-.073c-.071 0-.11.066-.11.175s.043.178.11.178.091-.033.104-.104h-.11v-.129h.275v.345h-.15v-.053a.181.181 0 0 1-.16.075c-.154 0-.256-.124-.256-.315a.284.284 0 0 1 .253-.312.26.26 0 0 1 .051 0m-.78.015h.175v.447h.261v.15h-.44Zm-.742-.202a.5.5 0 1 1-.501.5.5.5 0 0 1 .501-.5m3.91 1.044a1.163 1.163 0 0 0 .967.08.893.893 0 0 0 .089-1.259.9.9 0 0 0-.134-.126.628.628 0 0 0-.865.096c-.202.201-.23.286-.188.675a1.34 1.34 0 0 0 .131.534m.627-1.051c.063 0 .11.089.11.198a.282.282 0 0 0 .138.253c.115.042.115.091.039.239s-.169.178-.384.158c-.235-.023-.287-.067-.29-.253 0-.256.213-.596.383-.596ZM7.998 6.28c.391.162.88.046.99-.235a1.203 1.203 0 0 0-.053-.998.828.828 0 0 0-1.048-.042c-.365.415-.306 1.1.11 1.275m.035-.68a.298.298 0 0 0 .138-.267c0-.256.12-.273.344-.046.142.143.171.313.11.66 0 .036-.131.067-.275.067-.313 0-.562-.324-.321-.413Zm11.99 7.881V4l-.476-1.21a13.9 13.9 0 0 0-.573-1.32 9.32 9.32 0 0 0-2.497-.11c-2.278 0-2.404-.009-2.577-.179S13.6 1 12.032 1c-1.551 0-1.705.015-1.914.179s-.363.178-2.64.178a8.65 8.65 0 0 0-2.509.11 12.7 12.7 0 0 0-.55 1.421l-.448 1.32v18.714l.201.048c.116.027 3.724.038 8.03.024l7.827-.024ZM17.831 3.44a5.14 5.14 0 0 1-1.251-.11c0-.043.092-.096.201-.11a8.72 8.72 0 0 1 2.073.024c.462.174.205.22-1.02.197Zm1.033.343c.037.057-.271.086-.865.078-.644-.009-.828-.032-.608-.078a3.48 3.48 0 0 1 1.469 0Zm-4.113-1.708a12.14 12.14 0 0 1 2.812 0c.084.054.153.049.191-.014s.184-.072.405-.029c.627.11.072.192-1.65.214-1.598.023-1.861 0-1.76-.171m-.44.244c.09-.091.136-.072.074.031-.116.179.22.378.518.318a9.1 9.1 0 0 1 2.345-.084l.982.071-.617.149a2.365 2.365 0 0 1-1.297.026c-.88-.16-1.015-.16-.954 0 .039.102-.02.11-.281.083-.512-.072-.822-.22-.822-.385a.345.345 0 0 1 .06-.215Zm.344 1.1c-.162 0-.314.05-.344.11s-.046.066-.052-.027a.372.372 0 0 1 .1-.245 1.564 1.564 0 0 1 1.041-.03c.135.084-.271.191-.753.191Zm-.75.141c.092.11-.13.128-1.656.123-1.711 0-2.234-.052-1.901-.167.08-.03.89-.06 1.797-.07 1.339-.013 1.666.009 1.76.11Zm-.901-1.91c.173 0 .242.019.156.042a.75.75 0 0 1-.312 0c-.093-.023-.021-.042.151-.042Zm-1.252 0c.271 0 .381.018.246.039a2.05 2.05 0 0 1-.492 0c-.142-.016-.03-.033.241-.033Zm-1.743 1.015c.042-.319.133-.425.133-.155 0 .352.22.15.289-.267.079-.468.131-.619.213-.619.031 0 .037.157.012.344a.69.69 0 0 0 .055.459c.077.083.074.096-.01.048-.061-.034-.11-.021-.11.031a3.92 3.92 0 0 0 1.386.096 3.93 3.93 0 0 0 1.387-.096c0-.052-.051-.065-.116-.031-.089.051-.089.039 0-.057a.854.854 0 0 0 .116-.467c0-.206.034-.323.089-.289a.646.646 0 0 1 .089.401c0 .432.073.628.23.628.068 0 .124.038.124.085a10 10 0 0 1-1.961.11l-1.96.026Zm-.135.077c0 .11-.136.133-.688.131-.647 0-.68-.012-.471-.131.303-.172 1.153-.172 1.153 0Zm-.181.788a1.364 1.364 0 0 0-.66-.102c-.382 0-.503-.028-.407-.088a1.43 1.43 0 0 1 .556-.088c.344 0 .44.034.525.199s.077.178-.02.084Zm-.053-1.461c.027.043-.275.11-.66.14a15.07 15.07 0 0 1-3.219-.141 24.86 24.86 0 0 1 3.884 0ZM8.125 3.101a.758.758 0 0 1-.711-.08c-.16-.121-.143-.131.231-.13a1.41 1.41 0 0 1 .511.076c.095.057.09.083-.03.13Zm-2.64-.273a2.15 2.15 0 0 0 .582-.11 5.35 5.35 0 0 1 1.47-.162c.155-.007.11.022-.11.094-.189.057-.313.135-.275.172a3.27 3.27 0 0 1-.997.051c-.588-.007-.887-.029-.66-.045Zm-.4.482c.147-.11.414-.161 1.033-.182.459-.016.94-.034 1.064-.044.199-.013.189 0-.091.152a2.975 2.975 0 0 1-1.262.197c-.9.033-.929.027-.746-.122Zm-.77 1.72c.059 0 .102-.076.102-.169a.253.253 0 0 1 .145-.22c.077-.03 1.135-.057 2.347-.062s2.408-.037 2.653-.072l.448-.065-.606-.073c-.33-.038-1.596-.057-2.808-.038-1.707.025-2.213.007-2.242-.081s.294-.115 1.422-.115c.977 0 1.416-.03 1.327-.087a2.84 2.84 0 0 0-.849-.089c-.906 0-1.445-.085-1.282-.197a4.5 4.5 0 0 1 1.1-.049 2.75 2.75 0 0 1 1.298.205c.298.166.528.175 4.874.189 8.217.028 7.469.01 7.47.186 0 .147-.132.154-1.857.11q-1.395-.036-2.794 0l-.939.047.671.064c.367.035 1.516.087 2.549.11a7.07 7.07 0 0 1 2.079.184c.33.212.23.313-.11.11a.762.762 0 0 0-1.04.127 1.199 1.199 0 0 0 .11 1.166.968.968 0 0 0 1.002.023c.241-.127.251-.122.23.068s-.038.2-2.489.269c-2.511.074-12.686.02-12.772-.068a3.64 3.64 0 0 1-.04-1.479Zm15.332 2.052a.344.344 0 0 1-.237.22c-.413.099-7.887.168-11.264.104-3.013-.059-3.581-.09-3.702-.206s-.11-.149-.017-.212c.064-.04 3.526-.074 7.69-.076 7.42 0 7.581 0 7.532.17Zm-.573-1.781c.052 0 .066.067.034.148-.044.11-.021.137.093.093s.149-.01.149.101a.417.417 0 0 1-.697.265.628.628 0 0 1-.02-.66c.115-.121.47-.148.401-.035-.027.046-.011.081.04.081Zm-14.74 2.75c.076.077.398.11 1.01.101l.9-.012-.623-.1a3.76 3.76 0 0 1-.803-.206 51.2 51.2 0 0 1 6.16-.101c3.485 0 6.36-.023 6.388-.051a7.5 7.5 0 0 1 1.177-.047c1.091 0 1.116.009.857.15a4.6 4.6 0 0 1-.627.264c-.356.11-.355.11.291.095l.649-.02v2.813c0 2.25-.023 2.79-.11 2.701a10.67 10.67 0 0 1-.137-2.587 23.3 23.3 0 0 0-.1-2.553c-.097-.096-14.589-.097-14.68 0a24 24 0 0 0-.103 2.5 24.9 24.9 0 0 1-.095 2.497.097.097 0 0 1-.134 0c-.037-.038-.08-1.303-.095-2.811-.023-2.2-.005-2.72.085-2.63Zm15.425 13.271c-.058.616-.081.68-.236.64-.095-.026-.173-.081-.173-.124 0-.126-14.733-.103-14.811.025-.044.07-.101.051-.184-.063a16.17 16.17 0 0 1-.121-3.52c0-3.198.008-3.35.156-3.2s.161.459.202 3.211l.046 3.059.229.063c.303.084 14.335.093 14.461.011a16.4 16.4 0 0 0 .133-3.177c.026-2.735.012-3.097-.11-3.05a102.1 102.1 0 0 1-14.467.029c-.279-.099-.365-.207-.22-.287.036-.019.019-.026-.038-.011-.131.03-.209-.167-.206-.532v-.283l.199.246.2.246 2.191.101c2.144.098 10.388.049 11.751-.069.592-.052.617-.064.738-.356a.95.95 0 0 1 .166-.302 10.2 10.2 0 0 1 .036 1.225c0 .678.03 2.179.063 3.327s.025 2.42-.009 2.799ZM6.667 6.35c.561.063.786-.158.786-.77 0-.369-.038-.47-.229-.624a.592.592 0 0 0-.707-.106c-.28.11-.394.298-.451.729-.075.523.072.715.599.77Zm.362-1.071a.44.44 0 0 1-.168.704c-.344.086-.482-.018-.482-.361 0-.452.374-.649.65-.344Zm10.788.951c.183-.128.202-.205.179-.687a1.96 1.96 0 0 1 .039-.66c.044-.069 0-.101-.11-.092s-.152.055-.125.11 0 .041-.068-.02a.921.921 0 0 0-.844 0c-.266.149-.31.253-.312.72a.77.77 0 0 0 .178.604.958.958 0 0 0 1.061.023Zm-.257-.928c.306.306.18.716-.22.714a.403.403 0 0 1-.449-.348c-.093-.483.324-.708.669-.362M5.148 6.376c.47 0 .694-.245.694-.752 0-.67-.446-.974-1.055-.72a.77.77 0 0 0-.423.908.704.704 0 0 0 .784.563Zm-.287-.763c.099-.03.156-.095.127-.143-.07-.11.137-.364.265-.321a.515.515 0 0 1 .183.276.392.392 0 0 1-.159.53.4.4 0 0 1-.141.044c-.195.03-.459-.11-.459-.258 0-.04.084-.099.184-.13Zm9.46 2.439c1.21-.014.196-.025-2.265-.025s-3.452.011-2.208.025 3.259.013 4.473 0m-4.376 7.071c1.196.014 3.129.014 4.29 0s.186-.027-2.179-.027-3.315.007-2.114.027"/></svg>