<svg xmlns="http://www.w3.org/2000/svg" viewBox="0 0 24 24"><path fill="#44739e" d="M17.307 9.978v-.066h-.06l-.78.042v.131l.014-.014-.013.015.695-.035.014-.015-.014.015a1.018 1.018 0 0 1-.983.958.94.94 0 0 1-.968-.913v-.013a1.016 1.016 0 0 1 .925-1.03h.066v-.008l.013.011V8.93l-.013.015.013-.014h-.067a1.156 1.156 0 0 0-1.041 1.166 1.065 1.065 0 0 0 1.089 1.041 1.15 1.15 0 0 0 1.119-1.156Zm-1.727-.319a.158.158 0 0 0 .161.157h.008a.178.178 0 0 0 .164-.179.159.159 0 0 0-.16-.158h-.014a.175.175 0 0 0-.161.179m.507-.205.025 1.17.393-.015v-.129l-.014.014.014-.014-.262.01-.023-1.042-.143.01Zm.263-4.76c.231.22.269.287.231.463-.034.197-.034.201.069.061.186-.257.197-.378.052-.47s-.195-.31-.066-.31c.073 0 .11.116.077.259-.008.042.01.051.04.02s.1-.018.155.027a.55.55 0 0 0 .37.041c.347-.057.261.023-.102.094l-.28.05.348.011c.378.009.461-.103.229-.299-.095-.077-.13-.079-.155-.008s-.067.074-.192 0a.44.44 0 0 0-.185-.069c-.015.012-.046 0-.069-.023s.022-.043.101-.043a.69.69 0 0 0 .32-.123c.168-.116.17-.127.041-.22a.5.5 0 0 0-.701.083c-.054.101-.117.179-.143.177s-.13 0-.234 0c-.169.019-.165.029.103.274Zm.741-.475c.231 0 .28.019.199.073-.149.095-.618.095-.557 0a.605.605 0 0 1 .358-.074ZM8.856 6.33c-.132-.047-.137-.042-.037.058a1.44 1.44 0 0 0 .879.277h.267l-.22-.096a2.53 2.53 0 0 0-.482-.139 2.75 2.75 0 0 1-.408-.098Zm8.786-1.813c-.012-.148-.09-.197-.153-.092-.019.03.011.096.065.147.079.079.097.063.088-.057ZM9.838 15.144a1.57 1.57 0 0 1-.335-.047c-.093-.024-.167-.024-.167 0 0 .083.407.246.538.22.188-.044.165-.168-.036-.169m3.365-10.631c-.086.062-.066.069.089.035a1.44 1.44 0 0 1 .54.046c.284.076.355.074.445-.017s.042-.116-.426-.126a1.81 1.81 0 0 0-.648.062m.669-.231.259-.02-.297-.047a1.46 1.46 0 0 0-.498 0c-.126.033-.21.021-.23-.033s-.048-.012-.071.076c-.028.11-.011.147.051.124a3.85 3.85 0 0 1 .787-.101Zm-1.137-.173c.021.057 0 .102-.042.102s-.062.046-.041.1a.196.196 0 0 1-.077.194c-.062.052-.095.125-.073.16s0 .066-.05.066-.074.018-.053.039c.081.082.293-.064.399-.266.138-.266.138-.49 0-.49a.068.068 0 0 0-.071.065.063.063 0 0 0 .008.034Zm-2.577 1.464a.432.432 0 0 0-.232.128c-.057.067-.083.084-.054.038s-.026-.082-.197-.08c-.137 0-.237.029-.22.054s-.021.07-.081.093a.166.166 0 0 0-.115.127c0 .046.048.063.115.039.28-.117.355-.117.186-.017-.242.151-.423.148-.506 0-.061-.11-.071-.11-.116 0-.063.162.207.295.501.247.257-.04.94-.643.72-.627Zm-.082.474-.18.197.203-.131c.117-.071.206-.159.206-.196 0-.1-.032-.082-.229.13m2.005-1.719c.071-.04.087-.032.052.026a.206.206 0 0 1-.158.086c-.135 0-.063.197.092.255s.369-.171.336-.337a.648.648 0 0 1 .205-.364c.125-.134.219-.257.196-.276s-.055 0-.082.048-.073.069-.1.055-.186.109-.347.271-.251.268-.194.235Zm5.703.175c.024.157.096.194.191.099.067-.067.131-.048.272.081s.131.096-.048-.127a.93.93 0 0 0-.391-.316c-.11-.016-.139 0-.097.07a.58.58 0 0 1 .073.203Zm-5.173 2.606c.052-.1.115-.232.151-.293s.092-.104.137-.093c.136.031.09-.205-.048-.249a2.36 2.36 0 0 1-.33-.146c-.232-.11-.36-.135-.36-.041 0 .069.191.15.557.232l.219.049-.219.062a.44.44 0 0 1-.359-.03c-.137-.085-.144-.073-.102.227a.76.76 0 0 0 .117.358.66.66 0 0 1 .146.245c.051.135.116.188.189.158.092-.034.087-.063-.044-.169s-.147-.15-.063-.31m.77.455a.131.131 0 0 1-.157.039c-.06-.023-.087-.009-.062.033a.257.257 0 0 0 .194.072c.093 0 .129-.031.096-.086s0-.073.098-.046a.374.374 0 0 0 .254-.023c.069-.046.025-.066-.137-.067a.42.42 0 0 0-.286.078m-.271-.222c-.115 0-.124-.023-.039-.135s.082-.11 0-.038c-.125.116-.251.124-.186.019s.032-.101-.116-.008c-.086.052-.066.084.11.148a.575.575 0 0 0 .295.046c.045-.021.02-.038-.058-.042Zm2.958.249c.082.066.148.141.148.17 0 .057.374.032.595-.04.117-.037.082-.058-.147-.102q-.262-.047-.521-.102c-.21-.045-.214-.041-.075.074m.896-2.487c-.024.042.026.076.116.076s.137-.034.116-.076a.129.129 0 0 0-.232 0m-3.481 7.542c-.028.069-.016.1.027.073s.074 0 .074.066a.21.21 0 0 0 .082.163c.055.035.065 0 .029-.125-.076-.25-.158-.319-.212-.177m2.296-9.32c-.189 0-.267.019-.22.066s.157.046.295 0c.219-.059.219-.061-.074-.066m.117.659c.045 0 .063-.046.041-.101a.2.2 0 0 1 .044-.187c.09-.087.075-.094-.076-.034-.11.051-.124.322-.012.322ZM14.541 5.91a2.38 2.38 0 0 0 .611.631c.069.026.06.074-.043.187-.133.151-.133.154.019.116s.2-.209.09-.383c-.035-.055-.092-.096-.127-.092s-.152-.167-.254-.382c-.152-.319-.232-.397-.396-.417l-.197-.024.154.154a.59.59 0 0 1 .154.209Zm2.451-2.547c0 .061-.033.11-.073.11-.042 0-.075-.05-.075-.11s.033-.11.075-.11c.04 0 .073.051.073.11m.379 2.383a.191.191 0 0 0-.159.026c-.086.056-.075.071.046.071a.475.475 0 0 1 .294.149c.125.14.143.143.27.028a.407.407 0 0 0 .136-.203c0-.04-.041-.023-.092.048-.081.103-.115.109-.232.016s-.131-.104.056-.152c.11-.027.195-.078.195-.11 0-.084 0-.085-.25.046a.477.477 0 0 1-.264.079Zm-4.029.685a.754.754 0 0 0 .379.028c.375-.05.745.142.745.387a.314.314 0 0 1-.143.267c-.115.056-.162.041-.245-.083s-.176-.155-.439-.151c-.315 0-.348-.012-.463-.232l-.117-.237.016.246a.6.6 0 0 0 .129.347 1.66 1.66 0 0 0 1.294.274c.162-.046.283-.044.33 0q.071.066.115-.082c.03-.099.009-.154-.03-.154s-.053-.034-.027-.073a1.495 1.495 0 0 0-.378-.473c-.393-.38-.533-.57-.324-.439.127.081.278.095.278.026s-.255-.147-.44-.15c-.054 0-.079.03-.056.069.054.083-.41.377-.598.378-.11 0-.121.016-.041.066Zm-.474-.386.347.011c.194 0 .347-.023.347-.064s-.008-.069-.017-.063-.17.034-.347.062ZM8.422 4.616c.025-.21.064-.246.303-.289.301-.054.591-.179.386-.168a2.4 2.4 0 0 0-.26.038l-.313.067c-.14.031-.165.08-.155.313.014.271.015.272.039.038Zm6.827 1.254c-.031-.05-.009-.087.053-.087.125 0 .498-.33.498-.439 0-.135-.117-.085-.33.142-.11.116-.24.204-.273.182s-.064.012-.064.073a.213.213 0 0 0 .086.164c.069.023.082.023.035-.035Zm-11.101.319c.081.089.636-.263.682-.431.046-.19-.104-.522-.255-.55a.258.258 0 0 0-.208.07.846.846 0 0 0-.092.439c0 .212-.04.363-.093.383s-.07.057-.045.088Zm-.022-.147-.013-.22a.74.74 0 0 1 .047-.316c.078-.126.012-.116-.099.018-.066.08-.07.165-.015.315Zm-.807 6.159c.213-.075.424-.159.632-.252l.147-.068h-.147a1.54 1.54 0 0 0-.389.088 1.15 1.15 0 0 0-.371.232c-.088.092-.094.11-.022.075a.7.7 0 0 1 .151-.075Zm7.195-8.059a.52.52 0 0 0 .232-.073c.125-.082.05-.084-.22-.009-.099.026-.188.092-.197.143s0 .058.018.016a.19.19 0 0 1 .165-.077M2.277 17.991a1.517 1.517 0 0 0 .11.762c.099.13.11.068.116-.618 0-.628-.016-.761-.11-.761s-.116.122-.116.617m20.716.521c-.012-1.057-.028-1.819-.038-1.691a.622.622 0 0 1-.166.364.487.487 0 0 0-.148.309.54.54 0 0 1-.149.323c-.115.115-.124.148-.038.148s.116.19.116 1.261a6.27 6.27 0 0 0 .088 1.454c.17.37.061.378-2.616.186q-1.633-.116-3.269-.22-1.691-.11-3.381-.231c-1.032-.072-5.103-.338-7.985-.521-.675-.045-1.638-.115-2.141-.151-1.395-.109-1.851-.096-1.904.053a.23.23 0 0 0 .046.232c.098.101.706.151 9.343.77 1.209.085 2.611.185 3.125.219 2.294.173 3.989.297 5.056.371.634.044 1.539.115 2.007.15s.944.071 1.053.072c.28 0 .628-.319.844-.778.175-.393.175-.4.155-2.315Zm-.15.44c-.015.174-.028.023-.028-.347s.014-.509.029-.312a4.7 4.7 0 0 1 0 .671ZM2.279 6.036c-.042-.025-.077-.034-.08-.023l-.03.145a2.8 2.8 0 0 1-.072.278c-.06.185 0 .203.15.052.123-.122.141-.382.032-.452m.117 13.488c1.351.089 4.286.279 5.785.376 2.956.19 3.534.231 5.092.329l2.788.184c3.436.22 5.23.347 6.037.411.295.024.462.011.462-.037s-.05-.077-.115-.077-.11-.026-.11-.055a.63.63 0 0 0-.041-.206c-.041-.13-.115-.154-.549-.167q-2.032-.087-4.067-.242-1.171-.087-2.341-.148c-.798-.042-2.018-.11-2.713-.151l-2.453-.147c-5.056-.304-6.669-.379-7.597-.347a6.66 6.66 0 0 1-1.058-.012c0-.126.142-.242.22-.191.063.039.076.029.038-.031s0-.105.095-.131c.159-.042.193-.205.257-1.224l.027-.418-.371-.044a1.165 1.165 0 0 1-.448-.116c-.096-.096.172-.098 2.368 0 1.516.065 5.196.194 12.75.447 1.289.043 3.143.086 4.124.094 1.736.017 1.783.012 1.783-.132s-.065-.152-.816-.197q-2.061-.072-4.124-.122c-3.277-.081-4.789-.127-11.557-.341-4.526-.139-4.763-.139-4.822.012a14.8 14.8 0 0 0-.035 1.48c0 1.332 0 1.377.135 1.259s.253-.116 1.246-.051ZM4.975 5.313c.019.072.024.043.01-.063a.393.393 0 0 1 .063-.278c.092-.094-.012-.11-.131-.031-.092.074-.128.241-.035.241.043 0 .088.058.104.13ZM8.265 16.7c2.903.081 6.448.179 7.878.22a60.2 60.2 0 0 0 6.502.083c.142-.094.142-.04.085-8.1l-.048-6.502-.446-.011a11.2 11.2 0 0 0-1.226.085c-.429.051-1.164.133-1.634.181s-1.423.155-2.118.232l-2.491.289c-.674.076-1.945.232-2.823.33l-2.569.301c-.532.059-1.183.143-1.449.185s-.967.124-1.559.187q-2.459.203-4.888.649c-.11.095-.136 11.279-.021 11.495.097.18.447.2 6.803.376M1.678 6.308a.87.87 0 0 0 .155-.298c0-.153.329-.252.794-.24.425.012.47 0 .47-.136 0-.096.035-.134.103-.11s.088.1.052.239c-.044.162-.11.209-.348.241-.219.032-.26.058-.161.102a.211.211 0 0 1 .128.164.193.193 0 0 1-.128.154.42.42 0 0 0-.19.146.366.366 0 0 1-.278.098c-.11 0-.22.014-.22.032a.9.9 0 0 1-.049.157c-.046.11-.035.11.151 0 .11-.071.22-.115.24-.091.057.058-.406.56-.564.613-.11.034-.135.11-.126.367s.033.312.128.263a.53.53 0 0 1 .26-.049c.105.009.144-.032.139-.151 0-.09.023-.146.057-.125.09.055.074.283-.027.384a.46.46 0 0 1-.283.089.468.468 0 0 0-.279.086c-.065.065-.087.052-.09-.055 0-.078-.023-.482-.046-.9-.04-.695-.03-.783.11-.982m-.126-.752c0-.143.017-.202.035-.131a.64.64 0 0 1 0 .267c-.018.077-.035.011-.035-.128Zm3.292 3.125a.317.317 0 0 1-.11-.203c0-.09.021-.093.11-.021.11.09.239.572.171.639a.91.91 0 0 1-.36-.151.965.965 0 0 0-.742-.139.769.769 0 0 1-.659-.145 1.4 1.4 0 0 1-.563-.712c-.073-.255.011-.201.153.093a1.028 1.028 0 0 0 .659.564 1.98 1.98 0 0 0 .463-.036.725.725 0 0 1 .611.116.85.85 0 0 1 .33.283c.019.068.035.047.039-.046a.34.34 0 0 0-.103-.255Zm.084-.594a.42.42 0 0 1 .185.149c.071.081.101.149.066.149a.484.484 0 0 1-.196-.148c-.074-.086-.104-.153-.065-.153ZM2.947 10.88c-.2-.024-.401-.044-.602-.058-.146-.012.093-.041.521-.065l.925-.055a.81.81 0 0 1 .294.05c.204.081-.694.18-1.149.128Zm.833.485a4.6 4.6 0 0 1-1.388-.01c-.278-.042-.116-.055.566-.049a2.45 2.45 0 0 1 .811.053Zm.059-1.429c-.142-.041-.059-.057.287-.056.427 0 .45.009.191.059a1.27 1.27 0 0 1-.483 0Zm.32-.376c.053.089.039.09-1.389.116a3.6 3.6 0 0 1-.916-.048c-.021-.033.196-.066.485-.071s.559-.018.601-.028a1.5 1.5 0 0 1 .203-.031c.11-.011.087-.051-.092-.213a3 3 0 0 1-.33-.347c-.103-.143-.103-.144.039-.028a2.75 2.75 0 0 0 .402.25.978.978 0 0 0 .598.089.888.888 0 0 1 .617.11c.259.145.397.338.185.258-.323-.12-.44-.14-.397-.063Zm-2.241.463a.413.413 0 0 0-.192.274c-.023.155-.032.141-.041-.069-.009-.231.009-.261.194-.272s.197 0 .041.072Zm.053-1.429c0-.086.579-.085.626 0 .023.037-.007.085-.07.11-.145.061-.556-.021-.556-.11m1.568-2.208a.6.6 0 0 0-.023.319c.024.045 0 .032-.07-.028-.099-.094-.103-.163-.032-.452s.097-.322.14-.21a.78.78 0 0 1-.016.383Zm-.185.694c-.103.026-.186.09-.186.145a.357.357 0 0 1-.131.203c-.396.339-.659.109-.528-.48.081-.372.22-.498.159-.149l-.035.209.102-.188a.31.31 0 0 1 .128-.123h.016a.279.279 0 0 1 .33.063c.045.044 0 .042-.13 0a.8.8 0 0 0-.2-.059h-.012a2.42 2.42 0 0 0-.038.642.63.63 0 0 0 .16-.228c.079-.153.169-.219.294-.219.251 0 .304.122.079.184ZM1.813 8.364c.24-.148.291-.157.353-.056.025.041-.019.074-.097.074a.33.33 0 0 0-.232.099c-.063.075-.033.142.117.288A1.4 1.4 0 0 0 2.268 9c.078.029.068.041-.038.047a.638.638 0 0 1-.348-.176l-.197-.183.041.44c.028.305.014.44-.044.44s-.084-.186-.084-.54c.012-.51.023-.55.219-.668m.012 7.682c-.067.162-.109.196-.155.125a26.2 26.2 0 0 1-.049-2.662c.008-1.409.024-2.385.04-2.17.017.247.066.409.13.434a.117.117 0 0 1 .063.145c-.026.07.01.11.11.11s.162.039.174.087c.026.085.344-.077.563-.293.074-.07.208-.083.449-.048a2.5 2.5 0 0 1 .37.072 1.2 1.2 0 0 0 .348-.075.74.74 0 0 1 .374-.049c.031.025.035.009.008-.036s.077-.145.232-.232.274-.196.276-.259a.44.44 0 0 1 .1-.232.79.79 0 0 0 .073-.493c-.028-.399.053-.509.127-.169a3.6 3.6 0 0 0 .11.405c.061.163.047.266-.08.525-.209.433-.198.526.085.763a1.22 1.22 0 0 1 .324.44l.081.231.05-.373a1.35 1.35 0 0 0-.027-.578 1.62 1.62 0 0 1-.078-.463c0-.232.014-.255.22-.255.25 0 .301.142.071.201-.131.035-.145.08-.104.342a1.21 1.21 0 0 0 .187.484.676.676 0 0 1 .14.339c0 .116-.041.073-.141-.14l-.142-.297v.38a.9.9 0 0 1-.16.578c-.202.258-.301.251-.2-.013a.79.79 0 0 0 .031-.401c-.079-.321-.249-.309-.593.044-.313.323-.644.502-.644.347a.091.091 0 0 1 .101-.078.97.97 0 0 0 .359-.243 2.9 2.9 0 0 1 .401-.324c.116-.067.077-.081-.211-.069a.75.75 0 0 1-.39-.047c-.07-.117-.341-.071-.842.129a1.163 1.163 0 0 1-.823.128.943.943 0 0 0-.672.077c-.413.173-.386.143-.33.367a.536.536 0 0 0 .591.317c.081-.016.283-.061.447-.098a.79.79 0 0 1 .463.011c.292.131.18.189-.298.152-.5-.037-.472.063.044.155.157.029.266.07.243.093a1.73 1.73 0 0 1-.55-.085 2.8 2.8 0 0 0-.652-.101c-.081.013-.133-.016-.109-.069s-.015-.094-.055-.094c-.11 0-.089.232.039.373a3.52 3.52 0 0 0 .879.37c.417.132.817.272.889.306s.134.035.138-.029.018-.065.04-.012c.064.162 1.462-.22 1.935-.529a1.033 1.033 0 0 1 .741-.086c.03.029-.081.052-.247.052a.618.618 0 0 0-.382.099 1.055 1.055 0 0 1-.382.197c-.162.055-.296.123-.296.153s-.11.075-.232.1-.213.065-.196.086a4.07 4.07 0 0 0 .833-.176 2.6 2.6 0 0 1 .833-.151c.022.034-.044.064-.145.064a.31.31 0 0 0-.239.086c-.077.124.77.026 1.827-.21a3.896 3.896 0 0 1 2.229.015c.275.092.287.103.074.066a9.6 9.6 0 0 0-1.123-.043 3.6 3.6 0 0 0-1.337.165 4.46 4.46 0 0 1-1.528.185 5.4 5.4 0 0 0-1.204.103 4.225 4.225 0 0 1-2.339-.25c-.153-.06-.278-.079-.278-.04s-.161.095-.355.127l-.352.059.296.046.298.049-.316.011-.316.011v.716c0 .511.023.693.085.659a3.57 3.57 0 0 1 .741-.087 4.33 4.33 0 0 1 1.345.123l.856.194c.093.02.168.075.168.116 0 .081-.602.038-.868-.063-.083-.033-.11-.02-.067.043.073.115-.263.038-.641-.151-.538-.272-1.319-.14-1.478.246Zm4.457-5.684a.54.54 0 0 0-.278-.205c-.069 0-.025-.031.098-.06.289-.067.384-.031.44.167a1.9 1.9 0 0 1 .044.403.703.703 0 0 0 .231.483c.181.192.21.207.141.067-.059-.122-.061-.163 0-.127s.082.016.082-.027a.071.071 0 0 1 .064-.079c.034 0 .046.081.028.185-.044.23.141.32.386.188s.5-.033.473.21c-.018.15-.059.191-.172.173a.464.464 0 0 1-.248-.148c-.093-.11-.098-.11-.057.023s.008.149-.318.149c-.232 0-.347-.029-.33-.083.064-.167-.22-.175-.505-.016-.375.213-.515.117-.379-.26a1.47 1.47 0 0 0 .091-.37c0-.07.03-.127.069-.127.064 0 .02.231-.105.532a.147.147 0 0 0 .041.179c.053.033.071.026.046-.018s.034-.145.135-.231c.189-.164.247-.486.105-.573a.99.99 0 0 0-.34-.049c-.25 0-.261-.008-.13-.104a.347.347 0 0 1 .472-.015c.145.156.096-.055-.071-.266Zm1.419-3.057a5.8 5.8 0 0 0 .42-.421.376.376 0 0 1 .456-.143.65.65 0 0 1-.13.203.82.82 0 0 0-.154.26c0 .034.22.053.483.04.538-.028.66.07.186.145a.462.462 0 0 0-.416.271c-.143.278-.088.348.092.117.197-.249.318-.306.44-.209.078.066.127.048.212-.076a.352.352 0 0 0 .077-.255.575.575 0 0 0-.58-.115.423.423 0 0 1-.219.061c-.122 0-.116-.023.056-.17s.207-.163.424-.055a.62.62 0 0 0 .391.065 4 4 0 0 1 .572-.084c.387-.034.399-.03.22.074a.824.824 0 0 1-.484.071c-.163-.02-.262-.009-.22.023a.627.627 0 0 1 .098.348.58.58 0 0 1-.22.54.785.785 0 0 1-.356.243c-.092-.018-.095-.028-.011-.06.168-.066.528-.409.528-.504 0-.047-.148.055-.33.231a6.9 6.9 0 0 1-.687.564 1.468 1.468 0 0 1-1.031.29l-.667.034-.116.255c-.133.285-.199.202-.154-.191.024-.199.093-.293.317-.44a1.182 1.182 0 0 0 .55-.867.644.644 0 0 1 .116-.313c.062-.057.059-.026 0 .104-.096.162-.088.162.146-.051Zm2.893.371c.044.027.076-.048.076-.181a.585.585 0 0 1 .149-.376.556.556 0 0 0 .148-.339.87.87 0 0 1 .078-.33c.063-.115.11-.129.22-.066.089.046.145.05.145 0s-.071-.094-.159-.123-.128-.067-.059-.11.054-.069-.037-.103a.288.288 0 0 0-.247.044c-.079.059-.072.034.021-.074.134-.157.149-.159.277-.043.076.068.109.142.098.163s.1.11.274.194a.88.88 0 0 1 .341.239c.03.098-.251.386-.451.463-.126.048-.123.065.032.262l.165.21-.166-.089c-.153-.081-.163-.077-.093.053.058.11.042.198-.064.372l-.139.23.198-.04a1.7 1.7 0 0 1 .348-.034c.115 0 .124-.009.037-.062-.186-.115-.029-.164.267-.082l.281.078-.274-.227c-.231-.19-.266-.257-.231-.425s.037-.189-.077-.095c-.064.056-.143.079-.172.051-.067-.066.134-.198.266-.174.055.012.142.151.194.289a1.9 1.9 0 0 0 .249.475c.131.174.142.231.072.382l-.084.185-.17-.209c-.092-.115-.171-.161-.172-.115 0 .11.26.394.36.394a.297.297 0 0 0 .157-.116.33.33 0 0 1 .22-.116.35.35 0 0 0 .213-.086c.048-.048.11-.069.13-.046.069.069-.188.282-.339.282a.377.377 0 0 0-.251.163c-.103.144-.133.152-.296.066a.473.473 0 0 1-.215-.22c-.029-.115-.098-.115-.789-.043-.739.081-.76.09-1.032.375-.15.158-.2.231-.11.149s.168-.109.168-.08.07-.023.153-.116l.156-.177-.092.188c-.158.329-.47.671-.609.671-.102 0-.124.034-.089.144.059.186.043.186-.37-.016a.839.839 0 0 0-.77-.066 1.825 1.825 0 0 1-.989.048c-.379-.05-.433-.037-.652.146-.284.24-.308.18-.057-.15a.542.542 0 0 1 .733-.22l.036.004c.528.186.675.128.918-.361.128-.253.184-.22.082.047-.116.291-.027.231.141-.097a.669.669 0 0 1 .413-.378.536.536 0 0 0 .37-.341.91.91 0 0 1 .131-.253 1.56 1.56 0 0 1 .023.391c0 .386-.007.389-.266.439-.212.039-.19.047.125.037.274-.007.407-.046.463-.139s.058-.115-.021-.088-.115-.049-.147-.243c-.055-.34-.051-.81.007-.579a3 3 0 0 0 .11.33.81.81 0 0 1 .067.297c0 .067.007.077.03.023a.115.115 0 0 1 .148-.05c.074.029.093 0 .062-.077a.254.254 0 0 1 .074-.23c.125-.126.133-.22.051-.591-.049-.22-.052-.22-.139-.061a.39.39 0 0 0-.02.347c.054.139.049.19-.019.19a.232.232 0 0 1-.238-.22.255.255 0 0 1 .073-.172c.044-.039.023-.047-.048-.024a.33.33 0 0 1-.257-.065c-.126-.095-.11-.104.165-.11.299 0 .426-.081.667-.411.1-.14.11-.134.034.06-.098.27-.098.698 0 .758Zm1.302-.038c.025.043 0 .057-.062.034a.207.207 0 0 0-.209.098c-.128.179-.336.313-.249.162.188-.33.42-.456.521-.293Zm1.562 2.662c-.049-.048.178-.358.263-.358a.065.065 0 0 1 .07.062v.013c0 .091-.283.347-.33.3Zm.524 1.351c.099 0 .18.032.18.074s-.102.073-.232.073-.207-.03-.181-.073a.306.306 0 0 1 .234-.069Zm-.293.428a.643.643 0 0 0 .324.046 4.62 4.62 0 0 1 1.422-.046.868.868 0 0 0 .55-.024 5.17 5.17 0 0 1 1.369-.286c.265-.021.416-.019.33 0-.285.079-.308.182-.036.173a2.73 2.73 0 0 1 .665.11 3.16 3.16 0 0 0 .549.116c.075 0 .116.034.09.073a.98.98 0 0 1-.756 0c-.057-.057-.179-.046-.427.038a2.2 2.2 0 0 1-.476.115.413.413 0 0 0-.231.094c-.09.078-.091.072 0-.038a.344.344 0 0 1 .241-.131c.115 0 .126-.025.067-.138-.041-.076-.051-.164-.021-.193.089-.093-.586.038-1.099.214a2.2 2.2 0 0 1-.669.138 4.84 4.84 0 0 0-1.409.053.93.93 0 0 1-.37.076c-.177 0-.232-.033-.232-.151 0-.081-.03-.147-.067-.147s-.047.076-.024.168c.04.155.033.16-.095.057-.081-.064-.116-.073-.083-.018.074.123-.14.085-.452-.079a2.37 2.37 0 0 0-1.069-.128 13.5 13.5 0 0 1-1.492-.087c-.55-.073-.66-.11-.66-.22 0-.074-.034-.135-.073-.135s-.075.063-.075.139c0 .185-.192.347-.247.22-.021-.052-.041-.02-.044.073 0 .155.025.168.384.165a15.56 15.56 0 0 1 2.95.069 3.4 3.4 0 0 1-.84.09c-.637.017-.703.03-.544.117a1.64 1.64 0 0 0 .815.038c.594-.051.631-.047.565.077s-.096.116-.21.044-.232-.063-.549.012a1.23 1.23 0 0 1-.49.047 4.3 4.3 0 0 0-.693-.157 2.24 2.24 0 0 1-.75-.231c-.123-.11-.134-.11-.093-.007.058.149-.204.185-1.031.131-.415-.028-.605-.012-.66.055s.011.092.323.094c.55 0 .33.117-.347.184l-.549.05-.405-.416c-.32-.33-.375-.413-.258-.413.231 0 .404.123.571.405.122.208.201.264.381.264.124 0 .219-.025.213-.056a.47.47 0 0 1 .046-.189c.081-.186 0-.244-.148-.099s-.432.174-.388.035.439-.188.872-.127c.485.081.596.034.596-.236a.945.945 0 0 1 .079-.367c.073-.133.066-.138-.062-.058a.389.389 0 0 1-.383 0c-.22-.076-.232-.069-.19.045.087.242.097.385.015.44-.047.027-.061.015-.035-.029s-.021-.094-.101-.115c-.131-.034-.141-.066-.071-.249.109-.278.191-.321.487-.238a.55.55 0 0 0 .396-.01 1.27 1.27 0 0 1 .463-.078.537.537 0 0 1 .509.22c.207.23.619.324 1.365.299a12.67 12.67 0 0 1 2.245.139Zm3.328-5.496a2.17 2.17 0 0 1 .533-.024c.502 0 .539 0 .347-.085s-.197-.081.162-.092a1.55 1.55 0 0 0 .632-.142 1.24 1.24 0 0 1 .521-.138h.26l-.279.069c-.313.077-.819.439-.608.439a1.44 1.44 0 0 0 .421-.152.96.96 0 0 1 .33-.128c.014.014-.074.135-.197.266-.158.168-.19.238-.11.238.064 0 .116-.032.116-.074s.067-.007.148.074a.484.484 0 0 0 .232.149c.047 0 .069.019.046.042a1.52 1.52 0 0 1-.504-.077 2.53 2.53 0 0 0-.66-.098c-.156.019-.093.063.323.22.288.11.45.203.361.205a1.6 1.6 0 0 1-.483-.133 3.32 3.32 0 0 0-1.51-.15c-.094.155-.168.055-.11-.151a.5.5 0 0 0 .032-.244Zm2.565 6.664a.173.173 0 0 1 .075.128c0 .045-.061.026-.135-.042a.473.473 0 0 0-.22-.122.184.184 0 0 1-.134-.086c-.038-.059 0-.072.11-.044.088.023.178.011.199-.021.071-.11.329-.046.329.093a.129.129 0 0 0 .125.133h.018a.25.25 0 0 1 .195.08c.032.052-.025.071-.163.056a.345.345 0 0 1-.286-.191c-.04-.094-.099-.167-.129-.167-.082 0-.068.135.018.189Zm-.371-.456c-.186.115-.21.115-.174.014a.179.179 0 0 1 .146-.115.067.067 0 0 0 .073-.059.06.06 0 0 0-.008-.037c-.023-.058.023-.1.11-.11s.133.026.116.081a.73.73 0 0 1-.258.226Zm-.494.131c-.083-.134-.06-.232.055-.232.029 0 .069.135.092.301a1.005 1.005 0 0 0 .174.447c.115.127.115.143.011.143a.34.34 0 0 1-.22-.148c-.057-.081-.128-.123-.161-.092s-.012-.02.045-.117a.242.242 0 0 0 .01-.3Zm-.474-2.162L18.232 9.1l.526-.038.014 1.26.81-.036v.429Zm.737 1.002a1.484 1.484 0 0 1-.706.011c-.027-.026.128-.048.347-.048s.38.02.36.04Zm-4.078-1.649a1.362 1.362 0 0 1 1.229-1.377 1.256 1.256 0 0 1 1.381 1.116 1.2 1.2 0 0 1 .007.125 1.353 1.353 0 0 1-1.34 1.369 1.257 1.257 0 0 1-1.285-1.229Zm2.218 6.221a.945.945 0 0 0 .386-.11c.22-.129.22-.129.22-.047 0 .038-.06.093-.131.124-.213.09-.759.163-.717.096a.357.357 0 0 1 .24-.061Zm-.22-.796a.44.44 0 0 1 .601-.093c.082.052.032.072-.19.073a.736.736 0 0 0-.398.092c-.081.082-.082.068-.011-.069Zm.464.578c-.417.189-.487.188-.174 0a2.24 2.24 0 0 1 .52-.22c.151-.034.283-.067.294-.071s.018.026.018.067-.075.076-.168.077a1.62 1.62 0 0 0-.489.14Zm-.274-1.232a1.96 1.96 0 0 0-1.222.015c-.397.073-.22-.042.261-.167a1.79 1.79 0 0 1 .638-.063c.142.031.22.018.22-.038s.046-.039.117.032a.55.55 0 0 0 .329.115c.116 0 .22.032.22.069 0 .138-.281.155-.564.036Zm-3.153.87a5.44 5.44 0 0 0 1.188-.07 1.95 1.95 0 0 1 .596-.08c.298 0 .365.018.252.065a2.25 2.25 0 0 1-.521.083 1.41 1.41 0 0 0-.512.11 3.4 3.4 0 0 1-1.178.051c-1.328-.05-1.185-.176.174-.159Zm-1.233.319a3.48 3.48 0 0 0-.961.078 2.21 2.21 0 0 1-.695.068c-.069-.032.117-.101.486-.181a2.484 2.484 0 0 1 1.405.01c.103.046.036.056-.228.025Zm2.43-.746c-.266-.03-.417-.016-.452.041a7.56 7.56 0 0 1-3.008.128l-.44-.047.409.14c.394.135.401.139.149.148a2.08 2.08 0 0 1-.729-.22 2.5 2.5 0 0 0-.604-.224c-.202 0-.448.14-.395.23.023.04-.036.071-.128.071-.168 0-.659-.38-.659-.507 0-.034-.135-.069-.302-.075a1.041 1.041 0 0 0-.81.322c-.09.11-.077.116.117.078.115-.023.172-.023.124 0a.081.081 0 0 0-.056.1l.007.017c.023.037-.142.069-.376.069a1.68 1.68 0 0 0-.55.069 9.86 9.86 0 0 1-2.269.084 2.96 2.96 0 0 1 .909-.117 5.2 5.2 0 0 0 1.374-.196 1.13 1.13 0 0 1 .514-.096c.052.033.066.02.032-.034s-.009-.085.048-.085a.52.52 0 0 0 .247-.116c.137-.11.116-.116-.267-.078-.22.021-.589.069-.813.11a6.23 6.23 0 0 1-1.819-.043c-.61-.061-.602-.116.037-.21a1.93 1.93 0 0 0 .477-.128 4.58 4.58 0 0 1 .989-.109 6.4 6.4 0 0 0 1.151-.126c.275-.087.288-.101.103-.11-.126 0-.188-.038-.158-.087.053-.084.579-.029.778.081.154.085-.212.22-.596.22a.55.55 0 0 0-.33.075.513.513 0 0 1-.32.081 1.32 1.32 0 0 0-.423.073c-.098.045.045.051.408.02a5.08 5.08 0 0 1 2.088.077 4.07 4.07 0 0 0 .89.203 10.3 10.3 0 0 1 1.561.22 2.37 2.37 0 0 0 .521.065c.231 0 .24-.012.092-.071a3.1 3.1 0 0 0-.549-.116c-.364-.048-.374-.055-.206-.145s.259-.066.732.091c.678.22 1.224.299 1.296.183a.506.506 0 0 1 .33-.084 1.36 1.36 0 0 0 .498-.104 4.25 4.25 0 0 1 1.071-.14c.811-.037.838-.035.521.065a2.56 2.56 0 0 1-.521.11c-.169 0-.173.01-.046.084a1.3 1.3 0 0 0 .543.046c.282-.012.368 0 .282.046-.122.058-.354.046-1.447-.069Zm-4.63.245a.62.62 0 0 1-.254 0c-.069-.018-.012-.034.133-.034s.197.016.12.034Zm-.578.496c-.312-.06-.381-.102-.138-.1a.65.65 0 0 1 .289.074c.08.052.035.057-.151.026m-1.365-.434a1.29 1.29 0 0 1 .409-.109c.127 0 .081.034-.146.109-.427.131-.556.131-.264 0Zm-.147.541a4.5 4.5 0 0 1-.707-.056c-.33-.057-.321-.059.151-.059a3.8 3.8 0 0 1 .705.056c.189.048.169.057-.15.058Zm-5.231-1.176a2.78 2.78 0 0 1 .706.116 1.91 1.91 0 0 1-.712.012c-.694-.043-.8-.07-1.099-.273a2.17 2.17 0 0 1-.329-.253 1.74 1.74 0 0 1 .39.165 2.66 2.66 0 0 0 1.041.233m-.637-.737a.159.159 0 0 1 .128.06 3.26 3.26 0 0 0 .85.102 3.74 3.74 0 0 1 .949.128c.115.08.041.08-.379.057q-.445-.035-.892-.043a.88.88 0 0 1-.544-.153c-.11-.081-.146-.147-.098-.147Zm1.222.62a2.52 2.52 0 0 1-.826-.124c0-.046.274-.052.746-.019.632.044.77.034.936-.072a2.137 2.137 0 0 1 1.172-.33 1.12 1.12 0 0 1 .404.03 3.6 3.6 0 0 1-.561.146 3.3 3.3 0 0 0-.787.264c-.235.139-.33.147-1.087.102Zm2.63-.51.408-.048a3.46 3.46 0 0 1 .623-.017c.115.014.259.026.315.026s.102.033.102.075q0 .132-.972.019Zm1.664-.342c0-.041.127-.074.282-.074a.722.722 0 0 1 .538.231l.258.232-.266-.157a1.31 1.31 0 0 0-.54-.155c-.149 0-.271-.031-.271-.077Zm4.439-.603c.103.062.057.078-.22.081a.71.71 0 0 1-.394-.074c-.028-.044.046-.075.177-.075.254 0 .324-.071.231-.231-.047-.075-.197-.109-.494-.104-.409 0-.417 0-.207-.089a1.46 1.46 0 0 1 .464-.097c.194 0 .257.034.316.188a.407.407 0 0 1 .033.255c-.023.046.019.11.092.151Zm.33 1.342c.254-.038.288.019.059.11s-.292.097-.631-.015a5.8 5.8 0 0 1-.602-.231c-.214-.1-.208-.102.185-.064.232.022.462.037.694.042.184 0 .266.029.232.08s0 .085.053.077Zm2.689-.746c.179.04.103.064-.358.11-.434.043-.608.034-.67-.035s-.055-.075 0-.046a.517.517 0 0 0 .298-.021 1.24 1.24 0 0 1 .732 0Zm-.212-.456c.047-.078.139-.062.732.125l.371.116-.452-.035c-.525-.039-.714-.093-.651-.202Zm-.382 1.209c.248-.077.409-.098.409-.052a3.74 3.74 0 0 1-1.136.335c-.192 0-.169-.021.143-.11.201-.052.475-.131.596-.171Zm.197-.347c-.019-.021 0-.039.035-.042s.301-.066.587-.142a1.337 1.337 0 0 1 1.023-.006c.033.029-.148.061-.402.069a6.6 6.6 0 0 0-.832.089 1.14 1.14 0 0 1-.409.042Zm1.104-1.453c-.081-.056-.037-.063.16-.029.161.028.289.014.319-.035s.07-.081.093-.081 0 .05-.052.116a.419.419 0 0 1-.52.034Zm.261-.398a.44.44 0 0 0-.355.065.63.63 0 0 1-.279.115 1.66 1.66 0 0 0-.518.298 1.33 1.33 0 0 1-.59.291c-.162 0-.148-.021.102-.11a2.3 2.3 0 0 0 .332-.143 2.3 2.3 0 0 0-.55-.013 2.275 2.275 0 0 0-1.25.324l-.219.116.178-.195c.099-.11.199-.182.22-.169.095.056.38-.11.38-.214 0-.071.067-.116.18-.116a1.34 1.34 0 0 0 .389-.078c.178-.079.231-.067.33.062.133.166.321.203.398.079a.082.082 0 0 1 .11-.039h.005a.087.087 0 0 0 .117-.039.51.51 0 0 1 .207-.146c.139-.056.128-.063-.061-.046a1.43 1.43 0 0 0-.358.081.44.44 0 0 1-.325-.029c-.278-.124-.989.029-1.041.22s-.278.176-.423-.044c-.067-.101-.154-.185-.191-.185-.087 0-.267.276-.33.521-.048.18-.046.177.14-.038s.188-.21.19-.065a.295.295 0 0 1-.279.31.3.3 0 0 1-.062 0c-.135-.011-.145-.043-.093-.312.103-.561.11-.567.604-.579a.62.62 0 0 1 .22.054 1.67 1.67 0 0 0 .596-.019 4.64 4.64 0 0 1 1.062-.02 1.356 1.356 0 0 0 .816-.058.86.86 0 0 1 .371-.098.73.73 0 0 0 .372-.127c.282-.181.281-.181.196-.024-.15.275-.375.417-.574.368Zm-5.116 2.275a1.6 1.6 0 0 1 .407.057l.186.061h-.184a1.98 1.98 0 0 1-.409-.059l-.22-.057Zm-.41-.281c-.389-.075-.535-.176-.255-.18a.68.68 0 0 1 .371.104c.138.116.129.121-.116.075Zm.514-.644c-.098-.016.084-.035.406-.039.351 0 .561.019.524.057a1.5 1.5 0 0 1-.514.117c-.304.03-.413.023-.341-.028s.07-.073-.073-.098Zm.676.447c-.498 0-.727-.019-.632-.059a2.226 2.226 0 0 1 1.042 0c.308.054.246.064-.41.068Zm.492-1.457c-.116.434-.174.508-.163.191.007-.199.18-.609.232-.555a2.2 2.2 0 0 1-.069.374Zm-.868.227c.154.011.266.046.247.075a.627.627 0 0 1-.33.056c-.182 0-.28-.03-.25-.076s.176-.057.329-.046Zm-.249.279c.296.054.231.183-.103.207-.195.015-.248 0-.176-.049s.087-.089-.019-.193a.41.41 0 0 1-.115-.25c0-.089.03-.069.103.062a.487.487 0 0 0 .314.232Zm-.399.186-.159-.142a.495.495 0 0 1-.159-.204c0-.11.052-.07.188.143Zm-.558-.649a5.6 5.6 0 0 0-1.023-.021c-.306.027-.532.027-.507 0a2.41 2.41 0 0 1 1.176-.17l.613.099c.155.023.266.069.245.102a1.14 1.14 0 0 1-.503 0Zm-.264.519a2 2 0 0 1 .611.102c.116.11-.741.075-.957-.035-.177-.084-.146-.09.347-.058Zm.31.631a1.34 1.34 0 0 1 .447.046 4.95 4.95 0 0 1-1.186.206c-.318.023-.414.012-.329-.043a.92.92 0 0 1 .394-.077c.165 0 .264-.032.239-.075s.139-.057.44-.048Zm-.687.472c.859.046 1.058.162.283.162a1.66 1.66 0 0 1-.892-.144c-.144-.081-.193-.123-.115-.096a5 5 0 0 0 .725.087Zm7.314-.621a1.94 1.94 0 0 0 .852-.059c.248-.13.336-.05.127.117-.155.115-.243.126-.879.065-.907-.085-.974-.163-.102-.11Zm.33-.94c.121.22.128.259.035.181a1.47 1.47 0 0 1-.33-.555c0-.023.115-.042.254-.042a.465.465 0 0 0 .302-.073c.055-.088.187-.1.187-.016 0 .033-.115.116-.26.177s-.261.086-.261.04-.018-.058-.04-.038.033.179.12.337Zm.393.046c-.185.023-.232 0-.232-.088s.064-.115.208-.092a.347.347 0 0 0 .301-.086c.115-.128.212-.155.212-.058 0 .129-.255.301-.491.329Zm-10.252.445c.125-.143.389-.205.904-.22.115 0 .115 0-.021.03-.091.018-.167.063-.167.101s-.116.069-.265.069a1.11 1.11 0 0 0-.429.086c-.159.092-.159.092-.026-.058Zm-.676-.279a2.55 2.55 0 0 1 .868-.184c.13-.006.159.012.102.071-.091.103-1.053.203-.967.11Zm-.347-.432c.04.151-.091.22-.659.347-.117.026-.206.079-.206.11a.082.082 0 0 1-.089.074c-.048 0-.009-.085.087-.186a.594.594 0 0 1 .347-.187c.095 0 .175-.035.175-.076s-.026-.069-.058-.062a.983.983 0 0 1-.463-.194c0-.021.086 0 .191.035.244.093.424.093.368 0s.084-.373.174-.373a.93.93 0 0 1 .254.298c.202.312.192.379-.029.179-.11-.101-.123-.099-.086.037Zm-.19-.962c.161-.231.252-.246.17-.034-.025.067-.077.121-.115.121s-.066.051-.066.11-.035.116-.075.116c-.1 0-.084-.061.09-.306Zm3.973-2.575c-.069-.117.125-.117.239 0s.122.757.014.693a.24.24 0 0 1-.075-.184.245.245 0 0 0-.08-.186c-.041-.026-.055 0-.034.056s-.081.136-.378.22l-.417.11.159-.17a.462.462 0 0 0 .136-.347c-.023-.18.115-.425.243-.425.034 0 .064.048.064.11a.209.209 0 0 0 .085.159c.059.035.072.023.04-.028Zm.476 1.106c2.072-.083 2.075-.083 1.858.014a6.27 6.27 0 0 1-1.226.098c-3.008.046-4.58.046-4.622 0a8.8 8.8 0 0 1 1.328-.042q1.334-.011 2.667-.063Zm-.37.439c.659.039.391.052-1.189.056a12.2 12.2 0 0 1-1.858-.055 20.3 20.3 0 0 1 3.053.008Zm-6.672 2.136c.042-.024.075-.012.075.034s.127.079.281.079c.232 0 .284.028.293.147a.231.231 0 0 1-.06.191c-.039.023-.062 0-.053-.053s-.071-.11-.238-.123c-.463-.044-.555-.241-.298-.66.157-.258.28-.336.152-.096-.149.277-.229.535-.151.485Zm.517.573a.31.31 0 0 0 .116.095l.174-.196c.161-.183.162-.199.036-.231-.08-.02-.092-.035-.025-.035a1.2 1.2 0 0 1 .298.058c.146.046.155.059.041.066a.703.703 0 0 0-.336.173l-.185.166a.267.267 0 0 0 .231-.019 2.8 2.8 0 0 1 .506-.125c.232-.032.174 0-.251.155-.448.16-.557.177-.61.093a.23.23 0 0 0-.11-.11 1 1 0 0 1-.193-.066c-.096-.042-.191 0-.33.133a.387.387 0 0 1-.463.132c-.418-.097-1.382-.529-1.178-.529.023 0 .313.101.653.22s.642.22.672.22a.89.89 0 0 0 .251-.185.463.463 0 0 1 .65-.079.7.7 0 0 1 .056.053Zm.304 2.873a4.34 4.34 0 0 1-1.296-.061 7.54 7.54 0 0 1 2.449-.011c.151.043-.22.066-1.15.07Zm1.409-.22a3.2 3.2 0 0 1-.482-.065l-.298-.061.371-.007a1.21 1.21 0 0 1 .493.067c.082.06.067.074-.079.071Zm.375-.115c-.176-.097-.174-.099.124-.099a.77.77 0 0 1 .484.144l.173.145-.289-.046a1.87 1.87 0 0 1-.481-.147Zm2.418.447c-1.547-.043-2.042-.075-1.746-.11a4.2 4.2 0 0 1 .816-.023 2.25 2.25 0 0 0 .781-.069 1.96 1.96 0 0 1 .628-.074c.144.019.614.063 1.042.099a18.4 18.4 0 0 0 1.84.023 3 3 0 0 1 1.058.034 22.2 22.2 0 0 1-4.421.121Zm5.22.101a3.6 3.6 0 0 1-.556 0c-.155-.016-.029-.031.278-.031s.432.012.278.029Zm.867-.287a1.57 1.57 0 0 1-.513.103c-.42.036-.433.032-.22-.062.247-.11.853-.145.736-.044Zm.174-.321a1.62 1.62 0 0 1 .687-.11l.485.008-.448.057a5.3 5.3 0 0 0-.688.133c-.296.09-.31.053-.037-.095Zm.743.157a.605.605 0 0 1-.26 0c-.071-.018-.011-.034.13-.034s.201.011.13.031Zm1.245.572c-1.868-.037-2.453-.115-1.701-.22a6 6 0 0 0 .694-.146c.463-.135.494-.133.289.023a1.7 1.7 0 0 1-.289.182c-.059.026.242.044.672.042a5.06 5.06 0 0 1 .913.05 1.18 1.18 0 0 0 .448.014 2.17 2.17 0 0 1 .608.023 6.33 6.33 0 0 1-1.632.023Zm1.526-1.242a1.7 1.7 0 0 1-.373.054.86.86 0 0 1 .206-.137c.22-.116.538-.153.538-.058 0 .032-.167.093-.37.134Zm.11.315c-.11.098-.628.176-.628.093s.138-.144.44-.152c.153-.005.228.019.187.057Zm-.141-.738c-.181.067-.579-.009-.613-.116-.028-.079.138-.071.578.023.163.034.167.042.035.091Zm.489 1.296a3.2 3.2 0 0 0-.587-.039c-.392 0-.463-.081-.126-.155.254-.061.33-.056.33.027 0 .042.023.062.055.044a.5.5 0 0 1 .278.069c.156.069.171.088.048.058Zm.252-.594a.608.608 0 0 1 .638-.008c.097.073.03.093-.37.097-.467.007-.48 0-.268-.092Zm2.805.652c.072-.008.131.016.131.053 0 .083-.55.139-.722.073-.124-.046-.016-.069.592-.129Zm-.984-.22c-.163-.063-.145-.069.151-.078a1.97 1.97 0 0 0 .594-.115.575.575 0 0 1 .322-.07c.037.023-.063.093-.219.151a1.158 1.158 0 0 1-.845.11Zm.787-1.099c-.179-.069-.142-.185.049-.148a2.4 2.4 0 0 0 .26.037.089.089 0 0 1 .092.08c0 .079-.219.096-.401.027Zm.04-.695a.374.374 0 0 1-.206-.117c-.143-.144-.034-.142.154 0 .081.059.104.11.052.11Zm-.232 0c0 .039-.075.072-.168.073a2 2 0 0 0-.349.04l-.184.041.184-.115c.207-.133.516-.159.516-.046Zm-.477.98.139.163-.202-.127a.835.835 0 0 0-.346-.124c-.117 0-.149-.048-.142-.205.01-.176.015-.18.043-.037a.18.18 0 0 0 .191.168h.01a.488.488 0 0 1 .305.158Zm-.55.253c.301.036.498.129.498.247 0 .088-.769-.151-.891-.281-.067-.067-.073-.092-.015-.058a1.57 1.57 0 0 0 .407.09Zm-.509-.472c-.147.103-.598.22-.514.133a2.18 2.18 0 0 1 .59-.232c.039 0 .006.041-.076.096Zm-.029-.294a.696.696 0 0 0-.495.22c-.085.116-.11.126-.078.036.06-.184-.07-.162-.209.035-.063.093-.115.129-.115.085 0-.135.347-.37.745-.5.191-.06.603-.049.563.018a.97.97 0 0 1-.41.11Zm-.348 1.792a3.6 3.6 0 0 0 .41-.258.914.914 0 0 1 .816-.085c.065.041-.027.066-.255.07a.794.794 0 0 0-.472.122c-.104.105-.078.117.254.074.357-.041.364-.038.186.069a1.506 1.506 0 0 1-.669.116c-.474 0-.482 0-.273-.11Zm1.771.186a3.2 3.2 0 0 1-.831-.055 7 7 0 0 1 1.62.016 3.55 3.55 0 0 1-.792.034Zm.81-3.808a2.33 2.33 0 0 1 .036-.579c.02 0 .038.91.038 2.021a17.6 17.6 0 0 1-.053 1.967 10 10 0 0 1-.056-1.406c0-1.165-.019-1.348-.11-1.319q-.33.058-.668.086a8 8 0 0 0-.854.134 5.33 5.33 0 0 1-.926.083c-.686.008-1.264.156-1.01.26a.33.33 0 0 0 .283-.033 4.99 4.99 0 0 1 1.77 0 1.73 1.73 0 0 1-.652.077 8.6 8.6 0 0 0-1.114.057.077.077 0 0 1-.05-.011c-.017-.012-.109.059-.219.161-.186.174-.209.175-.665.093a6.5 6.5 0 0 0-.798-.093c-.178 0-.284-.023-.232-.046s.081-.058.062-.087.151-.051.371-.056.402.025.402.056c0 .11.347.067.447-.05.122-.149.035-.232-.115-.117-.061.054-.13.08-.151.059-.154-.155.891-.413 1.705-.42a4.4 4.4 0 0 0 1.003-.13 4.45 4.45 0 0 1 .989-.132l.578-.006Zm-2.222.459a1.12 1.12 0 0 1 .439-.061c.186 0 .301.016.263.029-.197.058-.8.084-.706.025Zm1.567-.354c.206-.009.303.029.389.152.155.22.08.269-.125.079a.86.86 0 0 0-.348-.19c-.147-.028-.127-.039.077-.046Zm.284-1.183c.14 0 .2.015.127.034a.605.605 0 0 1-.259 0c-.082-.023-.021-.039.122-.039Zm.229.463a3.7 3.7 0 0 0-.036.347c-.009.15-.035.179-.104.121a.255.255 0 0 1 .018-.403c.06-.023.116-.075.116-.117 0-.097-.312-.046-.434.07a.36.36 0 0 1-.204.093c-.058 0-.11.029-.11.07a2.84 2.84 0 0 1-.833.672c-.046 0-.039-.048.017-.117s.063-.115.027-.115.03-.088.144-.195c.231-.22.231-.389 0-.472l-.165.142a.71.71 0 0 1-.33.161c-.549.035-.858.018-.835-.047.015-.045.231-.067.521-.054.408.02.494 0 .494-.092 0-.07.064-.117.159-.117h.154a.3.3 0 0 0-.034-.016l-.409-.117a.429.429 0 0 0-.37.046c-.093.058-.169.074-.169.032 0-.069-.159-.115-.733-.22-.177-.029-.22-.061-.148-.11a.304.304 0 0 1 .212-.033c.11.028.22.052.33.074.232.044.653.082 2.006.176.673.055.726.069.701.209Zm-2.163-.781c.146-.094.346-.094.409 0 .028.044-.067.073-.231.073-.22 0-.262-.015-.186-.074Zm1.399-2.189-.636.037a.247.247 0 0 0-.28-.209c-.231.017-.373.22-.371.541s.144.513.386.505a.348.348 0 0 0 .347-.321l-.381.018v-.372l.94-.053v1.05l-.516.014v-.177a.666.666 0 0 1-.539.233.79.79 0 0 1-.837-.741.8.8 0 0 1 0-.137.946.946 0 0 1 .911-.979h.067a1.066 1.066 0 0 1 .644.127.521.521 0 0 1 .262.461ZM21.2 4.503a.275.275 0 0 1-.208.073c-.133 0-.143-.015-.053-.073.14-.099.313-.099.255 0Zm-2.043-1.231c.04.023.059-.021.043-.099-.065-.339 1.451-.66 1.551-.324a2.35 2.35 0 0 1 .057.412.5.5 0 0 0 .133.347c.085.048.047.067-.144.069a.813.813 0 0 0-.447.16c-.101.084-.135.127-.074.094.095-.048.097-.038.015.064a.415.415 0 0 1-.301.116c-.168 0-.197-.037-.191-.2a1.09 1.09 0 0 0-.05-.36c-.11-.297 0-.178.173.18.093.2.177.301.196.241a.78.78 0 0 1 .11-.202c.044-.053.046-.087.011-.074a.059.059 0 0 1-.077-.032v-.012a.264.264 0 0 0-.116-.13c-.067-.039-.042-.055.081-.034.208.029.452-.15.397-.297a.667.667 0 0 0-.285-.219c-.192-.094-.281-.099-.402-.036-.088.047-.14.11-.117.151s-.043.052-.143.035c-.201-.037-.339.099-.191.189.062.04 0 .09-.177.156-.347.128-.347.248.01.197.152-.023.236-.025.185 0a.154.154 0 0 0-.093.131c0 .139-.405.286-.609.22a2.42 2.42 0 0 1-.485-.276c-.206-.146-.365-.209-.463-.18-.129.034-.142.023-.07-.065.159-.192.424-.117.937.247.259.185.44.212.517.081.034-.058.015-.073-.062-.044a.37.37 0 0 1-.281-.072c-.148-.103-.153-.124-.044-.185.069-.037.099-.11.069-.155s-.014-.058.064 0c.098.078.125.074.162-.023.017-.06.07-.097.11-.069Zm.955-.023c.126-.078.313-.078.313 0 0 .035-.094.061-.204.06-.142 0-.18-.023-.117-.065Zm-1.1 1.342c0 .052-.069.012-.146-.09-.191-.243-.191-.371 0-.165a.517.517 0 0 1 .139.251Zm-.867-1.393c.122-.09.937-.159.854-.074a1.9 1.9 0 0 1-.51.104c-.361.04-.439.035-.35-.032ZM5.47 4.447c.179 0 .312 0 .297.022a8.46 8.46 0 0 1-1.39.158 3.7 3.7 0 0 1 1.092-.183Zm-.521.409a1.18 1.18 0 0 0 .446-.103 1.83 1.83 0 0 1 .525-.156 2.57 2.57 0 0 0 .558-.156c.085-.07 2.12-.365 4.124-.599.756-.088 2.036-.241 2.847-.338 1.921-.232 1.868-.232 1.504.083a1.03 1.03 0 0 1-1.157.231c-.377-.135-.898-.162-.898-.046 0 .04.134.073.301.073a1.6 1.6 0 0 1 .601.154.93.93 0 0 0 .665.11 1.56 1.56 0 0 1 .715.066c.536.175.949.176 1.157 0l.17-.144-.141.167c-.15.177-.083.22.11.073a.464.464 0 0 0-.077-.655.4.4 0 0 0-.039-.027c-.087-.033-.089-.014-.014.11a.22.22 0 0 1 .012.275c-.145.232-.896.213-1.188-.025-.123-.101-.126-.11-.012-.075.079.023.129 0 .129-.058a.308.308 0 0 1 .116-.195.29.29 0 0 0 .116-.176c0-.046-.068 0-.147.103s-.146.144-.147.095c0-.192.312-.381.694-.414.602-.054 1.837-.207 2.199-.273a4.55 4.55 0 0 1 .669-.061c.27 0 .299.008.147.057a1.76 1.76 0 0 1-.392.068 2.58 2.58 0 0 0-1.019.419c-.122.11-.769.207-.707.11.02-.036-.012-.099-.067-.147-.15-.123-.22.028-.102.22a.723.723 0 0 0 .611.232c.127-.037.421.066.379.132-.023.035.021.05.097.03.135-.034.62.303.586.411a1.41 1.41 0 0 0 .433.53c.027 0-.035-.116-.142-.254-.133-.174-.166-.264-.102-.285.141-.046-.047-.24-.414-.422-.176-.087-.252-.154-.174-.154a1.086 1.086 0 0 1 .758.571c.1.171.241.316.313.322.439.035.7.015.769-.052s.023-.073-.11-.058a.608.608 0 0 1-.395-.162c-.202-.171-.204-.179-.037-.133.131.035.162.024.115-.045s-.028-.076.029-.039.069.08.048.109c-.051.084.189.194.475.22.082 0 .076.04-.027.154-.22.247-.58.312-1.448.272a2.92 2.92 0 0 0-.858.028c-.077.123.722.297 1.365.297.482 0 .613.021.549.087a1.24 1.24 0 0 1-.502.116c-.347.029-.44.064-.537.231-.22.363-.417.529-.607.53a2.34 2.34 0 0 0-.53.11c-.29.086-.359.086-.479 0a.77.77 0 0 0-.387-.11c-.135 0-.246-.036-.246-.08s.1-.07.277-.043c1.049.152 1.099.153.996.023-.086-.102-.261-.123-1.059-.123a2.7 2.7 0 0 1-.957-.074c0-.069.177-.089 1.003-.104a1.54 1.54 0 0 0 .981-.412.424.424 0 0 1 .221-.081c.121 0 .115-.01-.01-.06-.374-.146-1.204.22-.989.43.058.059.046.082-.047.082-.17 0-.294-.347-.237-.659.043-.232.035-.242-.101-.169-.161.082-.263 0-.268-.219 0-.151-.277-.132-.77.058a4.34 4.34 0 0 1-.705.201 1.21 1.21 0 0 0-.409.129c-.073.058-.084.046-.05-.045a.645.645 0 0 1 .356-.213 2.42 2.42 0 0 0 .56-.261.98.98 0 0 1 .33-.164c.045 0 .007.042-.086.086s-.166.11-.166.15.125-.007.278-.1c.357-.205.389-.237.193-.178a.271.271 0 0 1-.272-.065.41.41 0 0 0-.243-.115c-.069 0-.11.02-.078.047.075.074-.433.394-.71.445a1.39 1.39 0 0 0-.43.176.818.818 0 0 1-.503.117.616.616 0 0 0-.359.046.6.6 0 0 1-.335.064q-.512 0-.615.268c-.042.11-.032.115.079.021.074-.069.099-.074.061-.012s-.02.092.023.092.081-.051.081-.115.071-.11.228-.11c.125 0 .209.029.186.067-.053.087.257.013.404-.096.095-.07.097-.065.016.04s-.078.129 0 .158a.244.244 0 0 0 .208-.06 1.35 1.35 0 0 1 .521-.133c.231-.021.446-.046.485-.054a.92.92 0 0 1 .22 0c.174.018-.268.15-.549.162-.116 0-.142.027-.086.063s.072.123.041.231-.028.143.018.076a.213.213 0 0 1 .134-.098c.038 0 .058-.044.047-.099-.028-.138.381-.22.572-.117a.795.795 0 0 1 .266.321 2.78 2.78 0 0 0 .729.955l.161.084-.147-.177c-.22-.266-.347-.512-.26-.512a.068.068 0 0 1 .073.063c0 .101.607.257.966.247.185 0 .293.01.242.033a.165.165 0 0 0-.092.139c0 .065-.056.087-.151.062s-.232.041-.411.24c-.144.152-.246.293-.231.312s.151-.085.294-.232a1 1 0 0 1 .354-.265c.055 0 0 .102-.121.232-.17.177-.187.22-.069.171s.136-.043.046.07c-.058.07-.083.127-.058.127a2 2 0 0 0 .318-.412 2.86 2.86 0 0 1 .3-.406c.047 0-.019.315-.115.55-.115.289-.115.289.22.482.167.096.283.193.259.22s.008.102.073.174c.11.122.1.125-.191.06-.264-.058-.338-.045-.499.083a.83.83 0 0 1-.454.149c-.305 0-.287-.065.027-.115a.714.714 0 0 0 .324-.147c.095-.093.085-.11-.088-.11a.5.5 0 0 0-.315.11c-.093.092-.197.109-.452.069-.181-.03-.33-.087-.33-.128s.125-.063.347-.033l.347.048-.197-.154c-.116-.088-.204-.197-.204-.243s-.069-.13-.151-.183c-.231-.145-.286.094-.061.279.095.082.134.148.08.149s-.084-.024-.084-.059a1.02 1.02 0 0 0-.485-.11 1.17 1.17 0 0 0-.863.138 1.41 1.41 0 0 1-.763.176 1.4 1.4 0 0 0-.55.076c-.137.071-.166.069-.166-.023a.317.317 0 0 0-.117-.195 1.924 1.924 0 0 1-.385-1.064c0-.243-.13-.393-.612-.682-.33-.205-.371-.286-.061-.126a1.58 1.58 0 0 0 .601.11.888.888 0 0 1 .647.205c.244.184.259.188.181.043-.127-.241-.11-.394.059-.394s.523-.154.523-.232-.013-.086-.509.128c-.348.15-.475.177-.578.115s-.105-.078.095-.08a.49.49 0 0 0 .31-.095c.07-.08-.231-.103-.82-.057-.032 0-.056.057-.056.124 0 .098-.048.117-.231.076-.269-.055-.329-.099-.257-.175.03-.028.116-.012.199.039.125.078.145.069.145-.055 0-.176-.15-.525-.232-.525-.11 0-.132.211-.028.251.166.063.126.155-.079.177a1.86 1.86 0 0 1-.798-.012c-.117-.053-.125-.038-.058.139a.41.41 0 0 1 0 .329c-.039.074-.05.155-.023.181s.006.05-.041.058a.91.91 0 0 0-.309.084 1.87 1.87 0 0 1-.33.082c-.154.023-.13.03.074.021a.56.56 0 0 1 .421.11c.163.162.085.192-.676.255-.522.044-.609.033-.81-.11-.231-.166-.231-.13-.063-.903a.146.146 0 0 1 .127-.115.08.08 0 0 0 .086-.064.1.1 0 0 0 0-.016c-.011-.049.012-.081.046-.07a.051.051 0 0 0 .067-.024.046.046 0 0 0 0-.034c0-.11.186-.192.432-.193s.45-.155.348-.251c-.023-.026-.015-.048.023-.048s.078-.176.089-.39c.014-.282 0-.359-.055-.277s-.076.08-.076.016c0-.174-.136-.092-.214.131-.11.308-.212.278-.173-.046.023-.188 0-.254-.054-.22a.248.248 0 0 0-.084.191.242.242 0 0 1-.072.185.29.29 0 0 0-.077.209 1.005 1.005 0 0 1-.204.433c-.165.22-.231.256-.362.207-.173-.062-.324-.432-.347-.844 0-.15-.042-.259-.08-.243a1.44 1.44 0 0 0-.07.624v.598l-.347.329a1.6 1.6 0 0 0-.347.406 1.45 1.45 0 0 1-.448.347c-.413.254-.518.393-.396.513.027.028.096-.017.153-.098s.136-.131.171-.11.11-.028.166-.11.132-.152.177-.152a.467.467 0 0 0 .22-.159 1.24 1.24 0 0 1 .364-.256c.124-.055.181-.102.13-.103-.133 0-.115-.127.019-.127.18 0 .127.239-.076.347-.135.074-.162.11-.092.161a.308.308 0 0 0 .22.018c.097-.029.116-.008.083.082s-.11.11-.335.072c-.257-.043-.312-.023-.5.179a2.3 2.3 0 0 0-.33.484.912.912 0 0 1-.463.42 1.74 1.74 0 0 0-.707.711 2.28 2.28 0 0 1-.448.55c-.041 0-.018-.086.051-.189.092-.143.104-.212.038-.275s-.085-.063-.085.007c0 .052-.034.074-.074.048a.157.157 0 0 1-.07-.117c0-.069.141-.061.263.016a.195.195 0 0 0 .185-.019c.089-.055.079-.095-.064-.231s-.159-.14-.123-.039c.029.069.016.129-.023.129a.155.155 0 0 1-.116-.11 1.9 1.9 0 0 0-.452-.375c-.243-.168-.402-.329-.381-.384s0-.076-.051-.043-.07.012-.038-.069.017-.126-.018-.126-.11-.127-.157-.281a1.74 1.74 0 0 0-.148-.353 2.35 2.35 0 0 1-.289-1.041c.092-.092.089-.189 0-.189-.042 0-.116.086-.163.186-.099.22-.207.243-.207.046 0-.174-.171-.22-.702-.197-.232.011-.414-.012-.414-.052s-.041-.04-.1.008-.099.055-.099-.033.046-.103.139-.08a.82.82 0 0 0 .347-.023.857.857 0 0 1 .498.045c.33.116.735.073.549-.058-.074-.055-.033-.063.153-.031a.609.609 0 0 0 .52-.137 1.54 1.54 0 0 1 .66-.22Zm10.112.474a.95.95 0 0 1-.354-.097c-.146-.082-.074-.096.536-.1.486 0 .732.023.785.089a.68.68 0 0 1 .11.255c.024.127-.023.184-.22.268a1.43 1.43 0 0 1-.409.101.22.22 0 0 0-.196.115c-.039.101-.056.098-.136-.017-.161-.239-.182-.463-.05-.54.103-.062.093-.075-.063-.078ZM3.835 4.671c.33.01.429.037.4.115-.046.117-.171.14-.171.023 0-.039-.035-.057-.078-.027s-.051.081.009.154.04.104-.186.104c-.162 0-.254-.029-.231-.073s.013-.075-.025-.075-.091-.045-.117-.116c-.033-.095.032-.109.397-.102Zm-2.173.353c.11-.088.117-.087.07.01-.034.068-.016.06.047-.017a.45.45 0 0 1 .378-.115.84.84 0 0 0 .304-.023c.097-.11.412-.042.706.128.402.232.275.321-.158.105-.22-.11-.348-.13-.44-.081a1.15 1.15 0 0 1-.422.07.78.78 0 0 0-.346.054c-.077.075-.272.092-.272.025a.34.34 0 0 1 .128-.163Zm.302 8.825c-.11-.029-.206-.019-.206.026s.11.076.231.076c.275 0 .266-.033-.027-.102Zm8.956-9.263c.231 0 .303.039.406.22a.542.542 0 0 0 .297.251 2.825 2.825 0 0 0 1.539-.25c.026-.04-.036-.037-.147 0a.59.59 0 0 1-.319.031c-.091-.03-.103-.021-.04.023s-.057.066-.315.064a.945.945 0 0 1-.406-.044c0-.028-.075-.032-.167-.01-.136.034-.151.023-.075-.057a.355.355 0 0 0 .094-.168c0-.038-.062.007-.137.1-.11.136-.144.147-.179.058-.034-.069.046-.191.209-.322a.605.605 0 0 0 .245-.384c0-.143.04-.173.22-.173.122 0 .22-.033.22-.073 0-.081-.151-.081-.669 0-.185.029-.26.057-.17.062a.422.422 0 0 1 .32.329c0 .064-.464.199-.686.199-.33 0-.18-.125.22-.185.214-.031.312-.074.255-.11a1.21 1.21 0 0 0-.719.173c-.088.089-.193.064-.134-.029.032-.053.02-.066-.035-.031a.092.092 0 0 0-.046.115c.023.04-.054.049-.185.022s-.232-.014-.232.03c0 .098.262.166.622.167ZM6.304 7.367c.046-.147-.271-.4-.502-.4-.501 0-.706-.086-.831-.347s-.197-.293-.407-.171c-.169.1-.165.238.012.397a1.19 1.19 0 0 1 .232.365 3.12 3.12 0 0 0 .9.961c.03-.01.032.039.007.11s-.019.11.039.069a.21.21 0 0 0 .093-.158c0-.159.419-.543.659-.598a.4.4 0 0 0 .258-.151c.029-.078-.021-.09-.22-.058-.138.023-.243.012-.234-.023Zm2.401-2.782c-.065.11-.02.595.049.55a.36.36 0 0 0 .069-.241.475.475 0 0 1 .101-.29c.07-.069.061-.089-.033-.089a.22.22 0 0 0-.167.07Zm1.233.839a.788.788 0 0 1 .724-.011.392.392 0 0 0 .434-.047c.193-.127.195-.133.048-.188a2.56 2.56 0 0 0-.474-.084c-.179-.014-.33-.067-.34-.11s0-.062.017-.024.138.036.29-.011a.574.574 0 0 1 .44.007c.196.09.247.028.097-.116-.089-.088-.134-.091-.68-.034-.208.021-.299.069-.324.174-.022.079-.063.142-.093.142s-.095.093-.146.205c-.073.157-.072.178 0 .105Zm1.034 2.362c.101.055.139.034.174-.097.07-.258.054-.634-.029-.685-.04-.026-.073.027-.073.11a.79.79 0 0 1-.138.359c-.069.1-.134.202-.197.306s-.039.095.038.023a.179.179 0 0 1 .225-.008ZM4.959 6.153c.052.084.068.073.069-.051a.72.72 0 0 1 .159-.346c.181-.232.44-.392.44-.274 0 .043-.048.078-.11.078-.204 0-.358.347-.316.713a.98.98 0 0 0 .109.419 1.24 1.24 0 0 0 .498.117 1.22 1.22 0 0 0 .763-.134c.55-.267.806-.491.857-.741a.426.426 0 0 1 .231-.313.464.464 0 0 0 .232-.265c.057-.231-.07-1.124-.142-1.01a.192.192 0 0 1-.196.05c-.154-.041-.277.086-.157.162a.846.846 0 0 1 .074.439c0 .286-.036.426-.136.517-.197.177-.37.162-.206-.018a.558.558 0 0 0 .11-.428c-.023-.297-.093-.396-.282-.396-.076 0-.084.018-.025.055a.605.605 0 0 1 .135.317.499.499 0 0 1-.368.602.44.44 0 0 1-.095.013.619.619 0 0 1-.644-.22c-.052-.134.026-.127.186.017.084.076.144.089.177.037s0-.081-.073-.081-.11-.051-.097-.166c.021-.151.063-.165.376-.155a1.09 1.09 0 0 0 .353-.018 1.32 1.32 0 0 0-.538-.254.86.86 0 0 0-.341.231c-.131.128-.259.214-.283.19s.012-.1.079-.168.11-.14.088-.161a3.39 3.39 0 0 0-.887.926.343.343 0 0 0-.037.317m.706-.385c-.044.074.074.185.273.255.073.025.131.013.131-.025s-.067-.073-.148-.073-.149-.034-.149-.074c0-.109.31-.086.463.049.195.174.169.297-.079.382-.189.067-.24.051-.419-.136-.122-.126-.184-.257-.158-.33s.064-.115.088-.115.021.032 0 .067Zm2.281 2.495c-.135-.136-.219-.138-.269 0a.157.157 0 0 0 0 .149.397.397 0 0 0 .44-.048c.03-.052.027-.069 0-.041s-.11 0-.166-.06m-.626.263c.036 0 .11-.099.158-.22s.115-.206.151-.185a.084.084 0 0 0 .11-.038c.031-.051.096-.05.198 0 .203.115.265.028.07-.093a.346.346 0 0 1-.156-.301c0-.22.122-.284.162-.081.012.066.061-.018.11-.187a2.4 2.4 0 0 0 .069-.306c-.007 0-.115.11-.245.243a1.23 1.23 0 0 0-.278.433 1.1 1.1 0 0 1-.231.386c-.18.21-.232.362-.11.362Zm1.1-.407c-.116.052-.186.115-.149.136s.151-.021.253-.099c.208-.168.188-.175-.11-.037m3.099-1.361c.025-.039 0-.115-.065-.165s-.116-.062-.116-.026c.008.126.134.266.181.185"/></svg>