<svg xmlns="http://www.w3.org/2000/svg" fill="#44739e" viewBox="0 0 24 24"><path d="M16.826 10.168v-.06h-.054l-.71.039v.119l.013-.013-.012.014.632-.032.013-.014-.013.014a.926.926 0 0 1-.894.871.855.855 0 0 1-.881-.83v-.012a.924.924 0 0 1 .842-.937h.06V9.32l.012.01v-.115l-.012.014.012-.013h-.061a1.052 1.052 0 0 0-.947 1.061.969.969 0 0 0 .991.947 1.046 1.046 0 0 0 1.018-1.052zm-1.571-.29a.144.144 0 0 0 .147.143h.007a.162.162 0 0 0 .149-.163.145.145 0 0 0-.145-.144H15.4a.159.159 0 0 0-.147.163m.462-.186.022 1.064.358-.013v-.118l-.013.013.013-.013-.238.009-.021-.948-.13.009zm.239-4.331c.21.2.245.261.21.421-.031.18-.031.183.063.056.169-.234.179-.344.047-.428s-.177-.282-.06-.282c.067 0 .1.106.07.236-.007.038.009.046.037.018s.091-.016.141.025a.5.5 0 0 0 .336.037c.316-.052.238.021-.093.085l-.254.046.316.01c.344.008.42-.094.209-.272-.087-.07-.119-.072-.141-.007s-.061.067-.175 0a.4.4 0 0 0-.168-.063c-.014.011-.042 0-.063-.021s.02-.039.092-.039a.63.63 0 0 0 .291-.112c.153-.106.155-.116.037-.2a.455.455 0 0 0-.638.075c-.049.092-.106.163-.13.161s-.118 0-.213 0c-.153.018-.15.027.094.25zm.674-.432c.21 0 .255.017.181.066-.135.087-.562.087-.507 0a.55.55 0 0 1 .326-.067Zm-7.49 1.921c-.12-.042-.125-.038-.034.053a1.31 1.31 0 0 0 .8.252h.243l-.2-.087a2.3 2.3 0 0 0-.439-.127 2.5 2.5 0 0 1-.371-.089ZM17.131 5.2c-.011-.135-.082-.179-.139-.084-.017.028.01.088.059.134.072.072.088.057.08-.052zm-7.1 9.668a1.43 1.43 0 0 1-.305-.042c-.084-.022-.152-.022-.152 0 0 .075.371.223.49.2.171-.04.15-.153-.033-.154M13.093 5.2c-.079.056-.06.063.081.032a1.31 1.31 0 0 1 .491.042c.258.069.323.067.405-.016s.038-.105-.388-.114a1.65 1.65 0 0 0-.589.056m.608-.21.236-.018-.27-.043a1.33 1.33 0 0 0-.453 0c-.115.03-.191.019-.21-.03s-.043-.011-.064.069c-.026.1-.01.134.046.113a3.5 3.5 0 0 1 .716-.092Zm-1.034-.158c.019.052 0 .093-.038.093s-.057.042-.038.091a.178.178 0 0 1-.07.177c-.056.047-.086.113-.066.145s0 .06-.046.06-.067.017-.048.036c.074.074.267-.058.363-.242.126-.242.126-.446 0-.446a.062.062 0 0 0-.064.059.057.057 0 0 0 .007.031Zm-2.345 1.332a.393.393 0 0 0-.211.117c-.052.061-.075.076-.049.034s-.024-.074-.179-.072c-.125 0-.216.026-.2.049s-.019.063-.074.084a.151.151 0 0 0-.105.116c0 .042.044.057.105.035.255-.106.323-.106.169-.015-.22.137-.385.135-.46 0-.056-.1-.065-.1-.106 0-.057.147.189.268.456.225.234-.037.855-.585.655-.571Zm-.074.432-.164.179.185-.119c.106-.065.187-.145.187-.179 0-.091-.029-.074-.208.119m1.824-1.564c.064-.037.079-.029.047.023a.187.187 0 0 1-.144.079c-.122 0-.057.179.084.232s.336-.156.306-.307a.59.59 0 0 1 .186-.331c.114-.122.2-.234.179-.251s-.05 0-.075.043-.066.063-.091.05-.169.1-.316.247-.228.244-.176.214zm5.188.159c.022.143.088.176.174.09.061-.061.119-.044.248.074s.119.087-.044-.116a.847.847 0 0 0-.356-.287c-.1-.015-.126 0-.088.063a.53.53 0 0 1 .066.185Zm-4.706 2.371c.047-.091.105-.211.137-.267s.084-.094.125-.084c.124.028.082-.187-.044-.227a2.15 2.15 0 0 1-.3-.133c-.211-.1-.327-.123-.327-.037 0 .063.173.136.506.211l.2.045-.2.056a.4.4 0 0 1-.326-.027c-.125-.078-.131-.067-.093.206a.69.69 0 0 0 .106.326.6.6 0 0 1 .133.223c.047.123.106.171.172.144.084-.031.079-.058-.04-.154s-.134-.137-.057-.282m.7.414a.119.119 0 0 1-.142.035c-.055-.021-.08-.008-.057.03a.234.234 0 0 0 .177.066c.084 0 .117-.028.087-.078s0-.067.089-.042a.34.34 0 0 0 .231-.021c.063-.042.023-.06-.124-.061a.382.382 0 0 0-.261.071M13 7.774c-.105 0-.113-.021-.036-.123s.075-.1 0-.035c-.113.106-.228.113-.169.018s.029-.092-.105-.008c-.079.048-.06.077.1.135a.523.523 0 0 0 .268.042c.041-.019.018-.035-.053-.038ZM15.691 8c.075.06.135.129.135.155 0 .052.34.029.541-.036.106-.034.075-.053-.134-.093q-.238-.043-.474-.093c-.191-.041-.194-.037-.068.067m.815-2.262c-.022.038.024.069.106.069s.124-.031.105-.069a.117.117 0 0 0-.211 0m-3.167 6.861c-.025.063-.014.091.025.067s.067 0 .067.06a.191.191 0 0 0 .075.148c.05.032.059 0 .026-.114-.069-.227-.144-.29-.193-.161m2.089-8.479c-.172 0-.243.017-.2.06s.143.042.268 0c.2-.054.2-.055-.067-.06m.106.6c.041 0 .058-.042.038-.092a.182.182 0 0 1 .04-.17c.082-.08.068-.086-.069-.031-.1.046-.113.293-.011.293ZM14.31 6.467a2.17 2.17 0 0 0 .556.574c.063.024.054.068-.039.171-.121.137-.121.14.017.105s.182-.19.082-.348c-.032-.05-.084-.088-.116-.084s-.138-.152-.231-.348c-.138-.29-.211-.361-.36-.379l-.179-.022.14.14a.54.54 0 0 1 .14.19zm2.23-2.317c0 .056-.03.1-.067.1-.038 0-.068-.045-.068-.1s.03-.1.068-.1c.037 0 .067.046.067.1m.345 2.168a.174.174 0 0 0-.145.024c-.078.051-.068.064.042.064a.432.432 0 0 1 .267.136c.114.127.13.13.246.025a.37.37 0 0 0 .124-.184c0-.037-.038-.021-.084.043-.074.094-.105.1-.211.015s-.119-.095.051-.138c.1-.025.177-.071.177-.1 0-.077 0-.078-.227.041a.434.434 0 0 1-.24.072zm-3.666.623a.686.686 0 0 0 .345.026c.341-.046.678.129.678.352a.286.286 0 0 1-.13.243c-.105.051-.148.037-.223-.076s-.16-.141-.4-.137c-.286 0-.316-.011-.421-.211l-.106-.216.014.224a.546.546 0 0 0 .118.316 1.51 1.51 0 0 0 1.177.249c.147-.042.257-.04.3 0q.0645.06.105-.075c.027-.09.008-.14-.028-.14s-.048-.031-.024-.066A1.36 1.36 0 0 0 14.28 7c-.358-.346-.485-.519-.295-.4.116.074.253.087.253.024s-.232-.134-.4-.137c-.049 0-.072.028-.051.063.049.076-.373.343-.544.344-.1 0-.11.015-.038.06zm-.431-.351.316.01c.176 0 .315-.021.315-.058s-.007-.063-.015-.057-.155.031-.316.056zm-4.045-1.3c.023-.191.058-.224.276-.263.273-.049.537-.163.351-.153a2.2 2.2 0 0 0-.237.035l-.285.061c-.127.028-.15.073-.141.285.013.246.014.247.036.034Zm6.211 1.141c-.028-.046-.008-.079.048-.079.114 0 .453-.3.453-.4 0-.122-.106-.077-.3.13-.1.105-.218.185-.248.165s-.058.011-.058.067a.194.194 0 0 0 .078.149c.063.021.074.021.032-.032zm-10.1.29c.074.081.579-.239.621-.392.042-.173-.095-.475-.232-.5a.235.235 0 0 0-.189.063.77.77 0 0 0-.084.4c0 .193-.036.33-.085.348s-.063.052-.041.08Zm-.02-.134-.011-.2a.67.67 0 0 1 .042-.287c.071-.115.011-.106-.09.016-.06.073-.063.15-.013.287ZM4.1 12.191c.194-.068.386-.145.575-.229l.134-.062h-.134a1.4 1.4 0 0 0-.354.08 1.05 1.05 0 0 0-.337.211c-.08.084-.086.1-.02.068a.65.65 0 0 1 .137-.068zm6.546-7.332a.476.476 0 0 0 .211-.067c.114-.074.046-.076-.2-.008-.09.024-.171.084-.179.13s0 .053.016.015a.173.173 0 0 1 .15-.07m-7.492 12.6a1.38 1.38 0 0 0 .1.693c.09.118.1.062.106-.562 0-.572-.015-.693-.1-.693s-.106.111-.106.562M22 17.933c-.011-.962-.026-1.655-.035-1.539a.566.566 0 0 1-.151.331.443.443 0 0 0-.135.281.492.492 0 0 1-.135.294c-.105.105-.113.135-.035.135s.106.173.106 1.147a5.7 5.7 0 0 0 .08 1.323c.154.337.055.344-2.38.169q-1.486-.105-2.974-.2-1.539-.1-3.076-.21c-.939-.066-4.643-.308-7.265-.474-.614-.041-1.49-.105-1.948-.137-1.269-.1-1.684-.088-1.732.048a.209.209 0 0 0 .042.211c.089.092.642.137 8.5.7 1.1.078 2.375.169 2.843.2 2.087.157 3.629.27 4.6.337.577.04 1.4.105 1.826.137s.859.064.958.065c.255 0 .571-.29.768-.708.159-.357.159-.364.141-2.106zm-.137.4c-.014.158-.025.021-.025-.316s.012-.463.026-.284a4.3 4.3 0 0 1 0 .611zM3.154 6.582c-.038-.023-.07-.031-.073-.021l-.027.132a2.5 2.5 0 0 1-.066.253c-.054.168 0 .185.137.047.112-.111.128-.347.029-.411m.106 12.271c1.23.081 3.9.254 5.264.342 2.689.173 3.215.211 4.632.3l2.537.167c3.126.2 4.758.316 5.492.374.269.022.421.01.421-.034s-.046-.07-.105-.07-.1-.023-.1-.05a.57.57 0 0 0-.037-.187c-.038-.118-.105-.14-.5-.152q-1.849-.079-3.7-.22-1.065-.079-2.13-.135c-.726-.038-1.836-.1-2.468-.137l-2.232-.134c-4.6-.277-6.067-.345-6.912-.316a6.06 6.06 0 0 1-.962-.011c0-.114.129-.22.2-.173.057.035.069.026.035-.029s0-.095.086-.119c.145-.038.176-.186.234-1.113l.024-.381-.337-.04a1.06 1.06 0 0 1-.408-.105c-.087-.088.157-.089 2.155 0 1.379.059 4.727.176 11.6.406 1.172.04 2.859.079 3.752.086 1.579.015 1.622.011 1.622-.12s-.059-.138-.743-.179q-1.875-.066-3.752-.111c-2.981-.074-4.357-.116-10.514-.311-4.118-.126-4.334-.126-4.387.011a13.5 13.5 0 0 0-.032 1.347c0 1.212 0 1.253.123 1.145s.23-.105 1.133-.046zM5.607 5.924c.017.066.022.039.009-.057a.358.358 0 0 1 .057-.253c.084-.086-.011-.1-.119-.028-.084.067-.116.219-.032.219.039 0 .08.053.095.118zM8.6 16.284c2.641.074 5.866.163 7.167.2a54.8 54.8 0 0 0 5.916.076c.129-.086.129-.037.077-7.37l-.043-5.915-.406-.01a10.2 10.2 0 0 0-1.116.077c-.39.047-1.059.121-1.486.165s-1.295.141-1.927.211l-2.266.263c-.614.069-1.77.211-2.569.3l-2.337.274c-.484.054-1.076.13-1.318.168s-.88.113-1.419.17q-2.237.185-4.447.591c-.1.086-.124 10.261-.019 10.458.088.164.407.182 6.189.342M2.607 6.829a.79.79 0 0 0 .141-.271c0-.139.3-.229.723-.218.386.011.427 0 .427-.124 0-.087.032-.122.094-.1s.08.091.047.218c-.04.147-.1.19-.316.219-.2.029-.237.053-.147.093a.192.192 0 0 1 .117.149.176.176 0 0 1-.117.14.38.38 0 0 0-.173.133.333.333 0 0 1-.253.089c-.1 0-.2.013-.2.029a.8.8 0 0 1-.044.143c-.042.1-.032.1.137 0 .1-.065.2-.105.218-.083.052.053-.369.51-.513.558-.1.031-.123.1-.114.334s.03.284.116.239a.485.485 0 0 1 .237-.045c.095.009.131-.029.126-.137 0-.082.021-.133.052-.114.082.05.067.258-.025.35a.418.418 0 0 1-.257.081.426.426 0 0 0-.254.078c-.059.059-.079.047-.082-.05 0-.071-.021-.439-.042-.819-.036-.632-.027-.712.1-.893m-.114-.685c0-.13.015-.183.032-.119a.585.585 0 0 1 0 .243c-.017.07-.032.01-.032-.116Zm2.995 2.844a.288.288 0 0 1-.1-.185c0-.082.019-.085.1-.019.1.082.217.52.155.581a.83.83 0 0 1-.327-.137.878.878 0 0 0-.675-.127.7.7 0 0 1-.6-.132 1.274 1.274 0 0 1-.512-.647c-.066-.232.01-.183.139.084a.935.935 0 0 0 .6.513 1.8 1.8 0 0 0 .421-.032.66.66 0 0 1 .556.105.775.775 0 0 1 .3.258c.017.061.032.042.036-.042a.308.308 0 0 0-.094-.232Zm.076-.541a.38.38 0 0 1 .169.136c.064.073.091.135.06.135a.44.44 0 0 1-.179-.134c-.067-.079-.094-.14-.059-.14Zm-1.8 2.543c-.182-.022-.365-.04-.548-.053-.133-.011.085-.037.474-.059l.842-.05a.74.74 0 0 1 .267.046c.186.073-.631.163-1.045.116zm.758.441a4.18 4.18 0 0 1-1.263-.009c-.253-.038-.106-.05.515-.044a2.23 2.23 0 0 1 .738.048zm.053-1.3c-.129-.037-.053-.052.261-.051.389 0 .41.008.174.054a1.16 1.16 0 0 1-.439 0zm.291-.342c.049.081.036.082-1.263.106a3.28 3.28 0 0 1-.834-.044c-.019-.03.179-.06.442-.065s.508-.016.546-.025a1.4 1.4 0 0 1 .185-.028c.1-.01.079-.047-.084-.194a2.76 2.76 0 0 1-.3-.316c-.094-.13-.094-.131.036-.025a2.5 2.5 0 0 0 .365.227.89.89 0 0 0 .544.081.808.808 0 0 1 .562.1c.235.132.361.308.168.235-.294-.109-.4-.127-.361-.057Zm-2.038.421a.376.376 0 0 0-.175.25c-.021.141-.029.128-.037-.063-.009-.21.008-.238.176-.248s.179 0 .037.066zm.048-1.3c0-.078.527-.077.569 0 .021.034-.006.078-.063.1-.132.056-.506-.019-.506-.1M4.3 6.9a.544.544 0 0 0-.021.291c.022.041 0 .029-.063-.026-.09-.085-.094-.148-.029-.411s.088-.293.127-.191a.71.71 0 0 1-.015.348Zm-.168.632c-.094.023-.169.082-.169.132a.325.325 0 0 1-.119.184c-.361.309-.6.1-.481-.436.074-.339.2-.453.145-.136l-.032.19.093-.171a.28.28 0 0 1 .116-.112H3.7a.254.254 0 0 1 .3.058c.041.04 0 .038-.118 0a.74.74 0 0 0-.182-.054h-.011a2.2 2.2 0 0 0-.035.584.574.574 0 0 0 .146-.207c.072-.14.154-.2.267-.2.229 0 .277.111.072.168zM2.73 8.7c.218-.135.265-.143.321-.051.023.037-.017.067-.088.067a.3.3 0 0 0-.211.09c-.057.069-.03.13.106.262a1.27 1.27 0 0 0 .286.211c.071.026.062.037-.035.042a.58.58 0 0 1-.316-.16l-.179-.166.037.4c.025.278.013.4-.04.4s-.077-.169-.077-.491c.011-.464.021-.5.2-.608m.011 6.989c-.061.148-.1.179-.141.114a23.8 23.8 0 0 1-.045-2.422c.007-1.282.022-2.17.036-1.974.016.225.06.372.119.395a.106.106 0 0 1 .057.132c-.024.063.009.1.1.1s.147.035.158.079c.024.077.313-.07.513-.267.067-.063.189-.075.408-.043a2.25 2.25 0 0 1 .337.065 1.1 1.1 0 0 0 .316-.068.674.674 0 0 1 .341-.045c.028.023.031.009.007-.032s.07-.132.211-.211.249-.179.251-.236a.4.4 0 0 1 .091-.211.72.72 0 0 0 .066-.449c-.025-.363.049-.463.116-.153a3.3 3.3 0 0 0 .1.368c.056.148.043.242-.073.478-.19.394-.18.478.078.694a1.11 1.11 0 0 1 .294.4l.074.21.046-.339a1.23 1.23 0 0 0-.025-.526 1.47 1.47 0 0 1-.071-.421c0-.211.013-.232.2-.232.228 0 .274.129.065.183-.119.032-.132.073-.095.311a1.1 1.1 0 0 0 .17.44.615.615 0 0 1 .128.309c0 .105-.038.066-.129-.128l-.129-.27v.346a.82.82 0 0 1-.145.526c-.184.234-.274.228-.182-.012a.72.72 0 0 0 .028-.365c-.072-.292-.227-.281-.54.04-.284.294-.586.457-.586.316a.083.083 0 0 1 .092-.071.88.88 0 0 0 .327-.221 2.65 2.65 0 0 1 .365-.295c.105-.061.07-.074-.192-.063a.683.683 0 0 1-.355-.043c-.064-.106-.31-.064-.766.118a1.058 1.058 0 0 1-.749.116.858.858 0 0 0-.611.07c-.376.158-.351.13-.3.334a.488.488 0 0 0 .537.289c.074-.015.258-.056.407-.09a.72.72 0 0 1 .421.01c.266.12.164.172-.271.139-.455-.034-.429.057.04.141.143.026.242.063.221.084a1.57 1.57 0 0 1-.5-.077 2.54 2.54 0 0 0-.593-.092c-.074.012-.121-.014-.1-.063s-.013-.085-.05-.085c-.1 0-.081.211.036.339a3.2 3.2 0 0 0 .8.337c.379.12.743.247.808.278s.122.032.126-.026.016-.059.036-.011c.059.147 1.33-.2 1.761-.481a.94.94 0 0 1 .674-.079c.027.027-.074.048-.225.048a.562.562 0 0 0-.347.09.96.96 0 0 1-.348.179c-.147.05-.269.112-.269.139s-.1.068-.211.091-.194.059-.179.078a3.7 3.7 0 0 0 .758-.16 2.37 2.37 0 0 1 .758-.137c.02.031-.04.058-.132.058a.282.282 0 0 0-.217.078c-.07.113.7.024 1.662-.191a3.545 3.545 0 0 1 2.028.014c.25.084.261.094.067.06a8.7 8.7 0 0 0-1.021-.039 3.28 3.28 0 0 0-1.217.15 4.06 4.06 0 0 1-1.39.168 4.9 4.9 0 0 0-1.095.094 3.844 3.844 0 0 1-2.128-.227c-.14-.055-.253-.072-.253-.037s-.147.087-.323.116l-.321.053.27.042.271.045-.288.01-.287.01v.651c0 .465.021.631.077.6a3.25 3.25 0 0 1 .674-.079 3.94 3.94 0 0 1 1.224.112l.779.176c.084.018.153.068.153.106 0 .073-.548.034-.79-.058-.076-.03-.1-.018-.061.039.066.105-.239.035-.583-.137-.49-.247-1.2-.127-1.345.224zM6.8 10.514a.492.492 0 0 0-.253-.186c-.063 0-.023-.029.089-.055.263-.061.349-.028.4.152a1.74 1.74 0 0 1 .04.367.64.64 0 0 0 .21.439c.165.175.191.188.129.061-.054-.111-.056-.148 0-.116s.074.015.074-.024a.065.065 0 0 1 .058-.072c.031 0 .042.074.026.168-.04.21.128.291.351.171s.455-.03.43.191c-.016.137-.053.174-.156.158a.422.422 0 0 1-.226-.135c-.084-.1-.089-.1-.052.021s.008.136-.289.136c-.211 0-.316-.027-.3-.076.058-.152-.2-.159-.46-.014-.341.193-.468.106-.344-.237a1.34 1.34 0 0 0 .082-.337c0-.063.028-.115.063-.115.058 0 .018.21-.095.484a.134.134 0 0 0 .037.163c.048.03.065.023.042-.017s.031-.132.123-.21c.172-.149.224-.442.095-.521a.9.9 0 0 0-.309-.045c-.228 0-.238-.007-.118-.094a.316.316 0 0 1 .429-.014c.132.142.087-.05-.065-.242zm1.291-2.781a5.3 5.3 0 0 0 .382-.383.342.342 0 0 1 .415-.13.59.59 0 0 1-.119.184.75.75 0 0 0-.14.237c0 .031.2.048.44.036.489-.025.6.064.169.132a.42.42 0 0 0-.379.247c-.13.253-.08.316.084.106.179-.226.289-.278.4-.19.071.06.116.044.193-.069a.32.32 0 0 0 .07-.232.523.523 0 0 0-.527-.105.385.385 0 0 1-.2.056c-.111 0-.105-.021.051-.155s.189-.148.386-.05a.564.564 0 0 0 .356.059 3.64 3.64 0 0 1 .52-.076c.352-.031.363-.027.2.067a.75.75 0 0 1-.44.065c-.148-.018-.238-.008-.2.021a.57.57 0 0 1 .089.316.528.528 0 0 1-.2.492.714.714 0 0 1-.324.221c-.084-.017-.086-.026-.01-.055.153-.06.48-.372.48-.458 0-.043-.134.05-.3.21a6.3 6.3 0 0 1-.625.513 1.336 1.336 0 0 1-.938.264l-.607.031-.105.232c-.121.259-.181.183-.14-.174.021-.181.084-.267.288-.4a1.075 1.075 0 0 0 .5-.789.586.586 0 0 1 .106-.285c.056-.052.054-.024 0 .095-.087.147-.08.147.133-.047Zm2.632.337c.04.025.069-.043.069-.164a.532.532 0 0 1 .135-.342.506.506 0 0 0 .135-.309.79.79 0 0 1 .071-.3c.057-.105.1-.117.2-.06.081.042.132.045.132 0s-.065-.086-.145-.112-.116-.061-.053-.1.049-.063-.034-.094a.262.262 0 0 0-.225.04c-.072.054-.065.031.019-.067.122-.143.136-.145.252-.039.07.062.1.129.09.148s.091.1.249.177a.8.8 0 0 1 .31.217c.027.089-.228.351-.41.421-.115.044-.112.059.029.239l.15.191-.151-.081c-.139-.074-.148-.07-.085.048.053.1.039.18-.058.338l-.126.21.18-.037a1.53 1.53 0 0 1 .316-.031c.105 0 .113-.008.034-.056-.169-.105-.026-.149.243-.075l.256.071-.25-.206c-.21-.173-.242-.234-.21-.387s.034-.172-.07-.086c-.058.051-.13.072-.156.046-.061-.06.122-.18.242-.158.05.011.129.137.176.263a1.73 1.73 0 0 0 .227.432c.119.158.129.21.065.347l-.076.169-.155-.19c-.084-.105-.155-.147-.156-.105 0 .1.236.358.327.358a.27.27 0 0 0 .143-.105.3.3 0 0 1 .2-.106.318.318 0 0 0 .194-.078c.044-.044.1-.063.118-.042.063.063-.171.257-.308.257a.343.343 0 0 0-.229.148c-.093.131-.121.138-.269.06a.43.43 0 0 1-.195-.2c-.027-.105-.09-.105-.718-.039-.673.074-.692.082-.939.341-.137.144-.182.21-.1.136s.153-.1.153-.073.063-.021.139-.106l.142-.161-.084.171c-.144.3-.428.611-.554.611-.093 0-.113.031-.081.131.054.169.039.169-.337-.015a.763.763 0 0 0-.7-.06 1.66 1.66 0 0 1-.9.044c-.345-.046-.394-.034-.593.133-.259.218-.28.163-.052-.137a.493.493 0 0 1 .667-.2L8 9.5c.48.169.614.116.835-.329.116-.23.167-.2.074.043-.105.265-.024.21.129-.088a.609.609 0 0 1 .375-.344.488.488 0 0 0 .337-.31.83.83 0 0 1 .119-.231 1.42 1.42 0 0 1 .021.356c0 .351-.006.354-.242.4-.193.035-.173.042.114.033.249-.006.37-.042.421-.126s.053-.105-.019-.08-.105-.045-.134-.221c-.05-.31-.046-.737.007-.527a2.7 2.7 0 0 0 .1.3.74.74 0 0 1 .061.27c0 .061.006.07.027.021a.105.105 0 0 1 .135-.045c.067.026.084 0 .056-.07a.231.231 0 0 1 .067-.21c.114-.114.121-.2.047-.537-.045-.2-.048-.2-.127-.056a.355.355 0 0 0-.018.316c.049.126.045.173-.017.173a.211.211 0 0 1-.217-.2.232.232 0 0 1 .067-.157c.04-.035.021-.043-.044-.022A.3.3 0 0 1 9.94 7.8c-.114-.086-.1-.094.15-.1.272 0 .388-.074.607-.374.091-.127.1-.122.031.055-.089.245-.089.635 0 .689zm1.184-.034c.023.039 0 .052-.056.031a.188.188 0 0 0-.19.089c-.117.163-.306.285-.227.147.171-.3.382-.415.474-.266zm1.421 2.422c-.044-.044.162-.326.24-.326a.059.059 0 0 1 .063.056v.012c0 .083-.257.316-.3.273zm.477 1.229c.09 0 .164.029.164.067s-.093.067-.211.067-.189-.028-.165-.067a.278.278 0 0 1 .213-.063zm-.267.389a.585.585 0 0 0 .295.042 4.2 4.2 0 0 1 1.294-.042.79.79 0 0 0 .5-.022 4.7 4.7 0 0 1 1.246-.26c.241-.019.378-.017.3 0-.259.072-.28.166-.033.158a2.48 2.48 0 0 1 .605.1 2.87 2.87 0 0 0 .5.105c.068 0 .105.031.082.067a.892.892 0 0 1-.688 0c-.052-.052-.163-.042-.389.034a2 2 0 0 1-.433.105.376.376 0 0 0-.21.085c-.082.071-.083.066 0-.034a.313.313 0 0 1 .219-.119c.105 0 .115-.023.061-.126-.037-.069-.046-.149-.019-.176.081-.084-.533.035-1 .195a2 2 0 0 1-.608.126 4.4 4.4 0 0 0-1.282.048.85.85 0 0 1-.337.069c-.161 0-.211-.03-.211-.137 0-.074-.027-.134-.061-.134s-.043.069-.022.153c.037.141.03.145-.086.052-.074-.059-.106-.067-.076-.017.068.112-.127.078-.411-.072a2.156 2.156 0 0 0-.972-.116 12.3 12.3 0 0 1-1.358-.079c-.5-.067-.6-.1-.6-.2 0-.068-.031-.123-.067-.123s-.068.057-.068.126c0 .169-.175.316-.225.2-.019-.047-.037-.018-.04.067 0 .141.023.153.35.15a14.16 14.16 0 0 1 2.684.063 3.08 3.08 0 0 1-.765.082c-.579.015-.639.027-.495.106a1.494 1.494 0 0 0 .742.035c.54-.047.574-.043.514.07s-.087.105-.191.04-.211-.058-.5.011a1.12 1.12 0 0 1-.445.042 3.9 3.9 0 0 0-.631-.142 2.04 2.04 0 0 1-.682-.211c-.112-.1-.122-.1-.085-.006.053.136-.185.168-.938.119-.377-.025-.55-.011-.6.05s.01.084.294.086c.5 0 .3.106-.316.167l-.5.046-.368-.379c-.291-.3-.341-.376-.235-.376.21 0 .368.112.52.369.111.189.183.24.346.24.113 0 .2-.023.194-.051a.43.43 0 0 1 .042-.172c.074-.169 0-.222-.135-.09s-.393.158-.353.032.4-.171.794-.116c.441.074.542.031.542-.214a.86.86 0 0 1 .072-.334c.066-.121.06-.126-.057-.053a.354.354 0 0 1-.348 0c-.2-.069-.211-.063-.173.041.079.22.088.35.014.4-.043.025-.056.014-.032-.026s-.019-.086-.092-.105c-.119-.031-.128-.06-.065-.226.1-.253.174-.292.443-.217a.5.5 0 0 0 .361-.009 1.16 1.16 0 0 1 .421-.071.489.489 0 0 1 .463.2c.188.21.563.295 1.242.272a11.53 11.53 0 0 1 2.042.127zm3.028-5a1.97 1.97 0 0 1 .485-.022c.457 0 .491 0 .316-.077s-.179-.074.147-.084a1.41 1.41 0 0 0 .575-.129 1.13 1.13 0 0 1 .474-.126h.237l-.254.063c-.285.07-.745.4-.553.4a1.31 1.31 0 0 0 .383-.139.87.87 0 0 1 .3-.116c.013.013-.067.123-.179.242-.144.153-.173.216-.1.216.058 0 .105-.029.105-.067s.061-.006.135.067a.44.44 0 0 0 .211.136c.043 0 .063.017.042.038a1.38 1.38 0 0 1-.459-.07 2.3 2.3 0 0 0-.6-.089c-.142.017-.085.057.294.2.262.1.409.185.328.187a1.46 1.46 0 0 1-.439-.121 3.02 3.02 0 0 0-1.374-.137c-.086.141-.153.05-.1-.137a.456.456 0 0 0 .029-.222zm2.334 6.063a.157.157 0 0 1 .068.116c0 .041-.055.024-.123-.038a.43.43 0 0 0-.2-.111.167.167 0 0 1-.122-.078c-.034-.054 0-.066.1-.04.08.021.162.01.181-.019.065-.1.3-.042.3.084a.117.117 0 0 0 .113.121h.017a.227.227 0 0 1 .177.073c.029.047-.023.065-.148.051a.314.314 0 0 1-.26-.174c-.037-.085-.09-.152-.118-.152-.074 0-.062.123.017.172zm-.338-.415c-.169.105-.191.105-.158.013a.163.163 0 0 1 .133-.105.061.061 0 0 0 .066-.054.054.054 0 0 0-.007-.033c-.021-.053.021-.091.1-.1s.121.023.106.073a.665.665 0 0 1-.235.206zm-.449.119c-.076-.122-.055-.211.05-.211.026 0 .063.123.084.274a.914.914 0 0 0 .158.407c.105.115.105.13.01.13a.31.31 0 0 1-.2-.135c-.052-.074-.117-.112-.147-.084s-.011-.018.041-.106a.22.22 0 0 0 .009-.273zm-.431-1.967-.014-1.506.479-.035.012 1.146.737-.032v.39zm.67.912a1.35 1.35 0 0 1-.642.01c-.025-.024.116-.044.316-.044s.345.018.327.037zm-3.71-1.5a1.239 1.239 0 0 1 1.118-1.253 1.143 1.143 0 0 1 1.257 1.015 1.1 1.1 0 0 1 .006.114 1.231 1.231 0 0 1-1.219 1.245 1.144 1.144 0 0 1-1.169-1.118zm2.018 5.659a.86.86 0 0 0 .351-.1c.2-.117.2-.117.2-.042 0 .034-.054.084-.119.112-.194.082-.69.149-.652.088a.325.325 0 0 1 .218-.056zm-.2-.724a.4.4 0 0 1 .547-.084c.074.047.029.065-.173.066a.67.67 0 0 0-.362.084c-.074.074-.075.062-.01-.063zm.422.526c-.379.172-.443.171-.158 0a2.04 2.04 0 0 1 .473-.2c.137-.031.257-.061.267-.065s.017.024.017.061-.069.069-.153.07a1.47 1.47 0 0 0-.445.128zm-.249-1.121a1.784 1.784 0 0 0-1.112.014c-.361.066-.2-.038.237-.152a1.63 1.63 0 0 1 .581-.057c.129.028.2.016.2-.035s.042-.035.106.029a.5.5 0 0 0 .3.105c.105 0 .2.029.2.063 0 .125-.256.141-.513.032zm-2.869.792a4.95 4.95 0 0 0 1.081-.064 1.77 1.77 0 0 1 .542-.073c.271 0 .332.017.229.059a2.05 2.05 0 0 1-.474.076 1.28 1.28 0 0 0-.465.1 3.09 3.09 0 0 1-1.072.046c-1.208-.045-1.078-.16.158-.144zm-1.122.29a3.17 3.17 0 0 0-.874.071 2.01 2.01 0 0 1-.632.062c-.063-.029.106-.092.442-.165a2.26 2.26 0 0 1 1.278.009c.094.042.033.051-.207.023zm2.211-.679c-.242-.027-.379-.014-.411.038a6.88 6.88 0 0 1-2.737.116l-.4-.043.372.128c.358.122.365.126.136.134a1.89 1.89 0 0 1-.664-.2A2.28 2.28 0 0 0 10.6 15c-.184 0-.408.128-.36.21.021.036-.032.064-.116.064-.153 0-.6-.346-.6-.461 0-.031-.122-.063-.274-.068a.947.947 0 0 0-.737.293c-.082.1-.07.105.106.071.105-.021.157-.021.113 0a.074.074 0 0 0-.051.091l.006.015c.021.034-.129.063-.342.063a1.53 1.53 0 0 0-.5.063 8.97 8.97 0 0 1-2.064.076 2.69 2.69 0 0 1 .827-.106 4.72 4.72 0 0 0 1.25-.179 1.03 1.03 0 0 1 .467-.087c.048.03.06.018.029-.031s-.008-.077.044-.077a.474.474 0 0 0 .225-.106c.124-.1.105-.105-.243-.071-.2.019-.536.063-.74.1a5.67 5.67 0 0 1-1.655-.039c-.555-.055-.547-.105.034-.191a1.76 1.76 0 0 0 .434-.116 4.17 4.17 0 0 1 .9-.1A5.83 5.83 0 0 0 8.4 14.3c.25-.079.262-.092.094-.1-.115 0-.171-.035-.144-.079.048-.077.527-.027.708.073.14.078-.193.2-.543.2a.5.5 0 0 0-.3.069.467.467 0 0 1-.291.073 1.2 1.2 0 0 0-.385.067c-.089.041.041.046.371.018a4.62 4.62 0 0 1 1.9.07 3.7 3.7 0 0 0 .81.185 9.34 9.34 0 0 1 1.42.2 2.16 2.16 0 0 0 .474.059c.21 0 .218-.011.084-.065a2.84 2.84 0 0 0-.5-.105c-.331-.044-.34-.05-.187-.132s.235-.06.666.083c.617.2 1.113.272 1.179.166a.46.46 0 0 1 .3-.076 1.24 1.24 0 0 0 .453-.095 3.87 3.87 0 0 1 .975-.127c.737-.034.762-.032.474.059a2.33 2.33 0 0 1-.474.1c-.154 0-.158.009-.042.076a1.18 1.18 0 0 0 .494.042c.256-.011.335 0 .256.042-.111.053-.322.042-1.316-.063zm-4.212.223a.56.56 0 0 1-.231 0c-.063-.016-.011-.031.121-.031s.179.015.109.031zm-.526.451c-.284-.054-.347-.092-.126-.091a.59.59 0 0 1 .263.068c.073.047.032.052-.137.023m-1.242-.394a1.17 1.17 0 0 1 .372-.1c.116 0 .074.031-.133.1-.388.119-.506.119-.24 0zm-.134.492a4.1 4.1 0 0 1-.643-.051c-.3-.052-.292-.054.137-.054a3.45 3.45 0 0 1 .642.051c.172.044.154.052-.137.053zm-4.759-1.07a2.53 2.53 0 0 1 .642.105 1.74 1.74 0 0 1-.647.011c-.632-.039-.728-.063-1-.248a1.97 1.97 0 0 1-.3-.23 1.58 1.58 0 0 1 .355.15 2.42 2.42 0 0 0 .947.212m-.579-.671a.145.145 0 0 1 .116.055 2.97 2.97 0 0 0 .774.093 3.4 3.4 0 0 1 .863.116c.105.073.037.073-.345.052q-.405-.032-.811-.039A.8.8 0 0 1 3.5 14.2c-.1-.074-.133-.134-.089-.134Zm1.112.564a2.29 2.29 0 0 1-.752-.112c0-.042.249-.048.679-.018.575.04.7.031.851-.065a1.944 1.944 0 0 1 1.067-.3 1.02 1.02 0 0 1 .367.027 3.3 3.3 0 0 1-.51.133 3 3 0 0 0-.716.24c-.214.126-.3.134-.989.093zm2.392-.464.372-.043a3.15 3.15 0 0 1 .566-.016c.105.013.236.024.287.024s.093.03.093.068q0 .12-.885.017zm1.514-.311c0-.037.116-.067.257-.067a.657.657 0 0 1 .489.21l.235.211-.242-.143a1.19 1.19 0 0 0-.491-.141c-.136 0-.247-.028-.247-.07zm4.039-.548c.094.056.052.071-.2.073a.645.645 0 0 1-.359-.067c-.025-.04.042-.068.161-.068.231 0 .295-.065.21-.21-.042-.069-.179-.1-.449-.095-.372 0-.379 0-.188-.081a1.33 1.33 0 0 1 .422-.088c.176 0 .234.031.287.171a.37.37 0 0 1 .03.232c-.021.042.018.1.084.137zm.3 1.221c.231-.035.262.017.054.1s-.266.088-.574-.014a5.3 5.3 0 0 1-.548-.21c-.195-.091-.189-.093.168-.058.211.02.421.033.632.038.167 0 .242.026.211.073s0 .077.048.07zm2.447-.679c.162.036.093.058-.326.1-.395.039-.553.031-.61-.032s-.05-.068 0-.042a.47.47 0 0 0 .271-.019 1.13 1.13 0 0 1 .666 0zm-.193-.415c.042-.071.126-.056.666.114l.337.105-.411-.032c-.478-.035-.65-.084-.592-.183zm-.348 1.1c.226-.07.372-.089.372-.047a3.4 3.4 0 0 1-1.033.304c-.175 0-.154-.019.13-.1.183-.047.432-.119.542-.155zm.179-.316c-.017-.019 0-.035.032-.038s.274-.06.534-.129a1.216 1.216 0 0 1 .931-.006c.03.027-.135.056-.366.063a6 6 0 0 0-.757.081 1.04 1.04 0 0 1-.372.038zm1.005-1.322c-.074-.051-.034-.057.145-.026.147.025.263.013.291-.032s.063-.074.084-.074 0 .046-.047.106a.381.381 0 0 1-.473.031zm.237-.362a.4.4 0 0 0-.323.059.576.576 0 0 1-.254.105 1.51 1.51 0 0 0-.471.271 1.21 1.21 0 0 1-.537.265c-.147 0-.134-.019.093-.1a2.1 2.1 0 0 0 .302-.13 2.1 2.1 0 0 0-.5-.012 2.07 2.07 0 0 0-1.137.295l-.2.105.162-.177c.09-.1.181-.166.2-.154.087.051.346-.1.346-.195 0-.064.061-.105.164-.105a1.22 1.22 0 0 0 .354-.071c.162-.072.21-.061.3.056.121.151.292.185.362.072a.075.075 0 0 1 .1-.035h.005a.079.079 0 0 0 .106-.036.466.466 0 0 1 .189-.133c.126-.051.116-.057-.056-.042a1.3 1.3 0 0 0-.326.074.4.4 0 0 1-.295-.026c-.253-.113-.9.026-.947.2s-.253.16-.385-.04c-.061-.092-.14-.168-.174-.168-.079 0-.243.251-.3.474-.044.163-.042.161.127-.035s.171-.191.173-.059a.268.268 0 0 1-.254.282.26.26 0 0 1-.056 0c-.123-.01-.132-.039-.085-.284.094-.51.1-.516.55-.527a.56.56 0 0 1 .2.049 1.52 1.52 0 0 0 .542-.017 4.22 4.22 0 0 1 .966-.018 1.234 1.234 0 0 0 .743-.053.78.78 0 0 1 .337-.089.663.663 0 0 0 .339-.116c.256-.164.255-.164.178-.021-.137.25-.341.379-.522.334zm-4.654 2.07a1.45 1.45 0 0 1 .37.052l.169.055H11.8a1.8 1.8 0 0 1-.372-.053l-.2-.052zm-.373-.256c-.354-.068-.487-.16-.232-.163a.62.62 0 0 1 .337.094c.126.106.118.11-.105.068zm.467-.586c-.089-.014.077-.031.37-.035.319 0 .51.017.476.052a1.36 1.36 0 0 1-.467.106c-.277.028-.376.021-.31-.025s.063-.067-.067-.089zm.615.407c-.453 0-.661-.017-.575-.054a2.025 2.025 0 0 1 .948 0c.281.05.224.059-.373.062zm.448-1.325c-.106.394-.158.462-.148.173.006-.181.163-.554.211-.505a2 2 0 0 1-.063.341zm-.79.206c.14.01.242.042.225.068a.57.57 0 0 1-.3.051c-.166 0-.255-.027-.228-.069s.16-.052.3-.042zm-.226.254c.269.049.21.166-.094.188-.177.014-.226 0-.16-.044s.079-.081-.017-.176a.372.372 0 0 1-.105-.227c0-.081.027-.063.094.056a.443.443 0 0 0 .285.211zm-.363.169-.145-.129a.45.45 0 0 1-.145-.186c0-.1.048-.063.171.13zm-.508-.59a5.1 5.1 0 0 0-.931-.019c-.278.024-.484.024-.461 0a2.19 2.19 0 0 1 1.07-.155l.558.09c.141.021.242.063.223.093a1.04 1.04 0 0 1-.458 0zm-.24.472a1.82 1.82 0 0 1 .556.093c.105.1-.674.068-.871-.032-.161-.077-.133-.082.316-.053zm.282.574a1.22 1.22 0 0 1 .407.042 4.5 4.5 0 0 1-1.079.187c-.29.021-.377.011-.3-.039a.84.84 0 0 1 .359-.07c.15 0 .24-.029.217-.068s.127-.052.4-.044zm-.625.429c.781.042.962.148.257.148a1.51 1.51 0 0 1-.811-.131c-.131-.074-.176-.112-.105-.088a4.56 4.56 0 0 0 .66.08zm6.654-.565a1.766 1.766 0 0 0 .775-.053c.226-.119.306-.046.116.106-.141.105-.221.115-.8.059-.825-.077-.886-.148-.093-.1zm.3-.855c.11.2.117.236.032.165a1.335 1.335 0 0 1-.3-.505c0-.021.105-.038.231-.038a.423.423 0 0 0 .275-.067c.05-.08.17-.091.17-.014 0 .03-.105.105-.237.161s-.237.078-.237.036-.016-.053-.036-.034.03.162.109.306zm.358.042c-.168.021-.211 0-.211-.08s.058-.105.189-.084a.316.316 0 0 0 .274-.078c.105-.116.193-.141.193-.053 0 .118-.232.274-.447.3zm-9.327.405c.113-.13.354-.187.822-.2.105 0 .105 0-.019.027-.083.016-.152.057-.152.092s-.105.063-.241.063a1.01 1.01 0 0 0-.39.078c-.145.084-.145.084-.024-.053Zm-.615-.254a2.32 2.32 0 0 1 .789-.167c.119-.006.145.011.093.064-.083.094-.958.185-.88.1zm-.316-.393c.036.137-.083.2-.6.316-.106.023-.187.072-.187.1a.075.075 0 0 1-.081.067c-.044 0-.008-.077.079-.169a.54.54 0 0 1 .316-.17c.086 0 .159-.032.159-.069s-.024-.063-.053-.057a.894.894 0 0 1-.421-.176c0-.019.078 0 .174.032.222.084.386.084.335 0s.076-.34.158-.34a.85.85 0 0 1 .231.271c.184.284.175.345-.026.163-.1-.092-.112-.09-.079.034zm-.173-.875c.147-.21.229-.224.155-.031-.023.061-.07.11-.105.11s-.06.046-.06.1-.032.106-.068.106c-.091 0-.077-.056.082-.279zm3.615-2.343c-.063-.106.113-.106.217 0s.111.689.013.631a.217.217 0 0 1-.068-.168.223.223 0 0 0-.073-.169c-.037-.024-.05 0-.031.051s-.074.124-.344.2l-.379.1.144-.155a.42.42 0 0 0 .124-.315c-.021-.164.105-.387.221-.387.031 0 .058.044.058.1a.19.19 0 0 0 .078.145c.053.032.065.021.036-.026zm.433 1.006c1.885-.075 1.888-.075 1.69.013a5.7 5.7 0 0 1-1.115.089c-2.737.042-4.167.042-4.205 0a8 8 0 0 1 1.208-.038q1.214-.01 2.426-.057zm-.337.4c.6.035.356.047-1.082.051a11.1 11.1 0 0 1-1.69-.05 18.5 18.5 0 0 1 2.778.007zm-6.07 1.943c.038-.022.068-.011.068.031s.116.072.256.072c.211 0 .258.025.266.134a.21.21 0 0 1-.054.173c-.036.021-.057 0-.048-.048s-.065-.1-.217-.112c-.421-.04-.505-.219-.271-.6.143-.235.255-.306.138-.088-.135.252-.208.487-.137.442Zm.47.521a.28.28 0 0 0 .106.087l.158-.179c.147-.166.148-.181.033-.21-.073-.018-.084-.032-.023-.032a1.1 1.1 0 0 1 .271.053c.133.042.141.054.038.06a.64.64 0 0 0-.306.158l-.168.151a.243.243 0 0 0 .21-.018 2.53 2.53 0 0 1 .46-.113c.211-.029.158 0-.228.141-.408.145-.507.161-.555.084a.21.21 0 0 0-.1-.1.9.9 0 0 1-.176-.06c-.087-.038-.174 0-.3.121a.352.352 0 0 1-.421.12c-.381-.088-1.258-.481-1.072-.481.021 0 .285.092.594.2s.584.2.611.2a.81.81 0 0 0 .229-.168.421.421 0 0 1 .591-.072.6.6 0 0 1 .051.048ZM5.384 16a3.95 3.95 0 0 1-1.179-.055 6.86 6.86 0 0 1 2.228-.01c.137.039-.2.06-1.046.063zm1.282-.2a2.9 2.9 0 0 1-.439-.059l-.271-.056.338-.006a1.1 1.1 0 0 1 .448.061c.075.055.061.067-.072.065zm.341-.105c-.16-.088-.158-.09.113-.09a.7.7 0 0 1 .44.131l.158.132-.263-.042a1.7 1.7 0 0 1-.438-.133Zm2.2.407c-1.408-.039-1.858-.068-1.589-.1a3.84 3.84 0 0 1 .743-.021 2.05 2.05 0 0 0 .71-.063 1.78 1.78 0 0 1 .572-.067c.131.017.558.057.948.09a16.7 16.7 0 0 0 1.674.021 2.73 2.73 0 0 1 .962.031 20.18 20.18 0 0 1-4.022.11zm4.749.092a3.3 3.3 0 0 1-.506 0c-.141-.015-.026-.028.253-.028s.393.011.253.026zm.789-.261a1.43 1.43 0 0 1-.467.094c-.382.032-.394.029-.2-.057.225-.1.776-.132.67-.04zm.158-.292a1.47 1.47 0 0 1 .625-.1l.441.007-.407.052a4.8 4.8 0 0 0-.626.121c-.269.082-.282.048-.034-.087zm.676.143a.55.55 0 0 1-.236 0c-.065-.017-.01-.031.118-.031s.183.01.118.028zm1.133.52c-1.7-.034-2.232-.105-1.548-.2a5.5 5.5 0 0 0 .632-.133c.421-.123.449-.121.263.021a1.53 1.53 0 0 1-.263.166c-.054.023.22.04.611.038a4.6 4.6 0 0 1 .831.045 1.07 1.07 0 0 0 .407.013 1.97 1.97 0 0 1 .553.021 5.76 5.76 0 0 1-1.484.021zm1.388-1.13a1.54 1.54 0 0 1-.339.049.78.78 0 0 1 .187-.124c.2-.106.49-.14.49-.053 0 .029-.152.084-.337.122zm.1.287c-.1.089-.571.16-.571.084s.125-.131.4-.138c.139-.005.208.017.17.052zm-.128-.672c-.165.061-.527-.008-.558-.105-.025-.072.126-.065.526.021.148.031.152.038.032.082zm.445 1.179a2.9 2.9 0 0 0-.534-.035c-.357 0-.421-.074-.115-.141.231-.056.3-.051.3.024 0 .039.021.057.05.04a.457.457 0 0 1 .253.063c.142.063.156.08.044.053zm.229-.54a.553.553 0 0 1 .581-.007c.088.066.027.084-.337.088-.425.006-.437 0-.244-.084zm2.552.593c.066-.007.119.015.119.048 0 .076-.5.127-.657.067-.112-.042-.014-.063.539-.118zm-.895-.2c-.148-.057-.132-.063.137-.071a1.79 1.79 0 0 0 .541-.105.523.523 0 0 1 .293-.063c.033.021-.058.084-.2.137a1.054 1.054 0 0 1-.768.1zm.716-1c-.163-.063-.129-.168.044-.135a2.2 2.2 0 0 0 .237.034.081.081 0 0 1 .084.073c0 .072-.2.087-.365.024zm.036-.632a.34.34 0 0 1-.187-.107c-.13-.131-.031-.129.14 0 .074.054.095.1.047.1zm-.211 0c0 .035-.068.065-.153.066a1.8 1.8 0 0 0-.317.037l-.168.037.168-.105c.188-.121.469-.144.469-.042zm-.434.891.127.149-.184-.116a.76.76 0 0 0-.315-.113c-.106 0-.135-.043-.129-.186.009-.16.014-.164.039-.034a.164.164 0 0 0 .174.153h.009a.444.444 0 0 1 .277.144zm-.5.231c.274.032.453.117.453.224 0 .08-.7-.137-.811-.255-.061-.061-.066-.084-.013-.053a1.43 1.43 0 0 0 .37.082zm-.463-.43c-.134.094-.544.2-.468.121a1.98 1.98 0 0 1 .537-.211c.035 0 .005.037-.069.087zm-.027-.267a.633.633 0 0 0-.45.2c-.077.105-.1.114-.071.033.055-.168-.064-.148-.19.031-.057.085-.105.118-.105.078 0-.123.316-.337.678-.455.174-.055.549-.045.512.016a.885.885 0 0 1-.373.1zm-.316 1.63a3.3 3.3 0 0 0 .373-.235.832.832 0 0 1 .742-.077c.059.037-.024.06-.232.064a.722.722 0 0 0-.429.111c-.095.095-.071.106.231.067.325-.037.331-.035.169.063a1.37 1.37 0 0 1-.609.105c-.431 0-.438 0-.248-.1zm1.611.169a2.9 2.9 0 0 1-.756-.05 6.38 6.38 0 0 1 1.474.015 3.23 3.23 0 0 1-.721.031zm.737-3.464a2.12 2.12 0 0 1 .033-.527c.018 0 .034.828.034 1.839a16 16 0 0 1-.048 1.789 9.1 9.1 0 0 1-.051-1.279c0-1.06-.017-1.226-.1-1.2q-.3.053-.608.078a7.3 7.3 0 0 0-.777.122 4.85 4.85 0 0 1-.842.076c-.624.007-1.15.142-.919.236a.3.3 0 0 0 .257-.03 4.54 4.54 0 0 1 1.611 0 1.57 1.57 0 0 1-.593.07 7.8 7.8 0 0 0-1.014.052.07.07 0 0 1-.045-.01c-.016-.011-.1.054-.2.147-.169.158-.19.159-.605.084a5.9 5.9 0 0 0-.726-.084c-.162 0-.258-.021-.211-.042s.074-.053.057-.079.137-.047.337-.051.366.022.366.051c0 .1.316.061.407-.046.111-.135.031-.211-.105-.106-.056.049-.118.072-.137.053-.141-.141.81-.375 1.551-.382a4 4 0 0 0 .912-.118 4.05 4.05 0 0 1 .9-.12l.526-.006zm-2.022.417a1.02 1.02 0 0 1 .4-.055c.169 0 .274.014.239.026-.179.053-.728.077-.642.023zm1.426-.322c.187-.008.276.027.354.139.141.2.073.244-.114.071a.78.78 0 0 0-.316-.172c-.134-.026-.116-.036.07-.042zm.258-1.076c.128 0 .182.014.116.031a.55.55 0 0 1-.236 0c-.074-.021-.019-.036.111-.036zm.209.421a3.4 3.4 0 0 0-.033.316c-.008.136-.032.163-.095.11a.232.232 0 0 1 .017-.367c.054-.021.105-.068.105-.106 0-.088-.284-.042-.395.064a.328.328 0 0 1-.185.084c-.053 0-.1.027-.1.064a2.58 2.58 0 0 1-.758.611c-.042 0-.036-.043.015-.106s.058-.105.025-.105.027-.08.131-.177c.21-.2.21-.354 0-.43l-.15.13a.647.647 0 0 1-.3.146c-.5.032-.781.016-.76-.043.014-.041.21-.061.474-.049.371.018.449 0 .449-.084 0-.063.059-.106.145-.106h.14a.3.3 0 0 0-.031-.015l-.372-.106a.39.39 0 0 0-.337.042c-.084.053-.153.067-.153.029 0-.063-.145-.105-.667-.2-.161-.027-.2-.056-.135-.1a.277.277 0 0 1 .193-.03c.1.025.2.047.3.067.211.04.594.075 1.825.16.613.05.661.063.638.19zm-1.968-.71c.133-.086.315-.086.372 0 .025.04-.061.066-.21.066-.2 0-.239-.014-.169-.067zm1.273-1.992-.579.034a.225.225 0 0 0-.255-.19c-.21.015-.339.2-.337.492s.131.467.351.459a.317.317 0 0 0 .316-.292l-.347.017v-.339l.855-.048v.955l-.469.013v-.161a.606.606 0 0 1-.491.212.719.719 0 0 1-.761-.674.74.74 0 0 1 0-.125.861.861 0 0 1 .829-.891h.061a.97.97 0 0 1 .586.116.474.474 0 0 1 .238.419zm-.36-4.5a.25.25 0 0 1-.189.067c-.121 0-.13-.014-.048-.067.127-.09.285-.09.232 0zm-1.858-1.12c.036.021.053-.019.039-.09-.059-.308 1.32-.6 1.411-.295a2.14 2.14 0 0 1 .052.375.456.456 0 0 0 .121.316c.077.044.042.061-.131.063a.74.74 0 0 0-.407.145c-.092.077-.123.116-.067.086.086-.044.088-.035.013.058a.378.378 0 0 1-.274.106c-.152 0-.179-.034-.173-.182a.99.99 0 0 0-.046-.328c-.1-.27 0-.162.158.164.084.182.161.274.178.219a.71.71 0 0 1 .1-.184c.04-.048.042-.079.01-.067a.054.054 0 0 1-.07-.029v-.011a.24.24 0 0 0-.106-.118c-.061-.036-.038-.05.074-.031.189.026.411-.137.361-.27a.607.607 0 0 0-.259-.2c-.175-.085-.256-.09-.366-.032-.08.042-.127.1-.106.137s-.039.047-.13.032c-.183-.034-.309.09-.174.172.056.036 0 .082-.161.142-.316.116-.316.225.009.179.138-.021.215-.023.168 0a.14.14 0 0 0-.084.119c0 .127-.369.26-.554.2a2.2 2.2 0 0 1-.442-.251c-.187-.133-.332-.19-.421-.164-.117.031-.129.021-.064-.059.145-.174.386-.106.853.225.236.168.4.193.47.074.031-.053.014-.067-.056-.04a.336.336 0 0 1-.256-.066c-.134-.094-.139-.113-.04-.168.063-.034.09-.1.063-.141s-.013-.053.058 0c.089.071.114.067.148-.021.015-.055.063-.088.1-.063zm.868-.021c.115-.071.285-.071.285 0 0 .032-.085.056-.185.055-.13 0-.164-.021-.107-.059zm-1 1.221c0 .048-.063.011-.133-.082-.174-.221-.174-.337 0-.15a.47.47 0 0 1 .126.229zM17.589 4c.111-.082.852-.145.777-.067a1.72 1.72 0 0 1-.464.094c-.329.037-.4.032-.319-.029zM6.057 5.136c.163 0 .284 0 .27.02a7.7 7.7 0 0 1-1.264.144 3.36 3.36 0 0 1 .993-.166Zm-.474.372a1.07 1.07 0 0 0 .406-.093 1.66 1.66 0 0 1 .478-.142 2.34 2.34 0 0 0 .507-.142c.078-.064 1.929-.332 3.752-.545.688-.08 1.853-.219 2.59-.308 1.748-.211 1.7-.211 1.369.076a.937.937 0 0 1-1.053.21c-.343-.123-.817-.147-.817-.042 0 .037.122.067.274.067a1.46 1.46 0 0 1 .547.14.847.847 0 0 0 .605.1 1.42 1.42 0 0 1 .65.06c.488.159.864.16 1.053 0l.155-.131-.129.152c-.136.161-.075.2.1.066A.422.422 0 0 0 16 4.38a.4.4 0 0 0-.035-.024c-.079-.03-.081-.013-.013.1a.2.2 0 0 1 .011.25c-.132.211-.815.194-1.081-.023-.112-.092-.114-.1-.011-.068.072.021.118 0 .118-.053a.28.28 0 0 1 .105-.177.263.263 0 0 0 .106-.16c0-.042-.062 0-.134.093s-.133.131-.134.087c0-.175.284-.347.632-.377.547-.049 1.671-.188 2-.248a4.14 4.14 0 0 1 .609-.056c.246 0 .272.008.134.052a1.6 1.6 0 0 1-.357.062 2.35 2.35 0 0 0-.927.381c-.111.1-.7.189-.643.1.018-.032-.011-.09-.061-.133-.137-.112-.2.025-.093.2a.658.658 0 0 0 .556.211c.115-.034.383.06.345.12-.021.032.019.045.088.027.123-.031.564.276.533.374a1.28 1.28 0 0 0 .394.482c.025 0-.032-.105-.129-.231-.121-.158-.151-.24-.093-.259.128-.042-.043-.218-.377-.384-.16-.079-.229-.14-.158-.14a.988.988 0 0 1 .69.519c.091.156.219.288.284.293.4.032.637.014.7-.047s.021-.066-.1-.053a.553.553 0 0 1-.359-.147c-.184-.156-.186-.163-.034-.121.119.032.147.022.105-.041s-.026-.069.026-.036.063.073.044.1c-.047.076.172.176.432.2.074 0 .069.036-.025.14-.2.225-.527.284-1.317.247a2.66 2.66 0 0 0-.781.026c-.07.112.657.27 1.242.27.439 0 .558.019.5.079a1.13 1.13 0 0 1-.457.106c-.316.026-.4.058-.489.21-.2.33-.379.481-.552.482a2.13 2.13 0 0 0-.482.1c-.264.078-.327.078-.436 0a.7.7 0 0 0-.352-.1c-.123 0-.224-.033-.224-.073s.091-.063.252-.039c.955.138 1 .139.906.021-.078-.093-.237-.112-.963-.112a2.46 2.46 0 0 1-.871-.067c0-.063.161-.081.913-.095a1.4 1.4 0 0 0 .892-.375A.386.386 0 0 1 17.13 6c.11 0 .105-.009-.009-.055-.34-.133-1.095.2-.9.391.053.054.042.075-.042.075-.155 0-.268-.316-.216-.6.039-.211.032-.22-.092-.153-.146.074-.239 0-.244-.2 0-.137-.252-.12-.7.053a3.95 3.95 0 0 1-.642.183 1.1 1.1 0 0 0-.372.117c-.066.053-.076.042-.045-.041a.587.587 0 0 1 .324-.193 2.2 2.2 0 0 0 .509-.238.89.89 0 0 1 .3-.149c.041 0 .007.038-.078.078s-.151.1-.151.137.114-.007.253-.091c.325-.187.354-.216.176-.162a.247.247 0 0 1-.248-.059.373.373 0 0 0-.221-.105c-.063 0-.1.018-.071.043.068.067-.394.358-.646.405a1.26 1.26 0 0 0-.391.16.744.744 0 0 1-.458.106.56.56 0 0 0-.326.042.547.547 0 0 1-.305.058q-.466 0-.56.244c-.038.1-.029.105.072.019.068-.063.09-.067.056-.011s-.018.084.021.084.073-.046.073-.105.065-.1.208-.1c.114 0 .19.027.169.061-.048.079.234.012.368-.087.086-.064.088-.059.014.036s-.071.118 0 .144a.222.222 0 0 0 .189-.055 1.23 1.23 0 0 1 .474-.121c.211-.019.406-.041.442-.049a.84.84 0 0 1 .2 0c.158.017-.244.137-.5.148-.105 0-.129.024-.078.057s.066.112.037.21-.025.13.017.069a.194.194 0 0 1 .122-.089c.034 0 .052-.04.042-.09-.025-.125.347-.2.521-.106a.723.723 0 0 1 .242.292 2.53 2.53 0 0 0 .663.869l.147.076-.134-.161c-.2-.242-.316-.466-.237-.466a.062.062 0 0 1 .067.057c0 .092.552.234.879.225.168 0 .266.009.22.03a.15.15 0 0 0-.084.127c0 .059-.051.079-.137.056s-.211.037-.374.218c-.131.139-.224.267-.21.284s.137-.077.267-.211a.91.91 0 0 1 .322-.241c.05 0 0 .093-.11.211-.155.161-.17.2-.063.156s.124-.039.042.063c-.053.064-.075.116-.053.116a1.82 1.82 0 0 0 .29-.375 2.6 2.6 0 0 1 .273-.369c.042 0-.018.286-.105.5-.105.263-.105.263.2.439.152.087.258.175.236.2s.007.093.066.158c.1.111.091.114-.174.055-.24-.053-.307-.041-.454.075a.754.754 0 0 1-.413.136c-.277 0-.261-.059.025-.105a.65.65 0 0 0 .295-.134c.086-.084.077-.1-.08-.1a.456.456 0 0 0-.287.1c-.085.084-.179.1-.411.063-.165-.027-.3-.079-.3-.116s.113-.058.315-.03l.316.043-.179-.14c-.106-.08-.186-.179-.186-.221s-.063-.118-.137-.166c-.21-.132-.26.085-.056.254.087.074.122.134.073.135s-.076-.022-.076-.054a.93.93 0 0 0-.442-.1 1.064 1.064 0 0 0-.785.126 1.283 1.283 0 0 1-.694.16 1.27 1.27 0 0 0-.5.069c-.125.065-.151.063-.151-.021a.288.288 0 0 0-.107-.177 1.75 1.75 0 0 1-.35-.968c0-.221-.118-.358-.557-.621-.3-.186-.337-.26-.055-.114a1.44 1.44 0 0 0 .546.1.808.808 0 0 1 .589.186c.222.168.236.171.165.039-.116-.219-.1-.358.053-.358s.476-.14.476-.211-.012-.078-.463.116c-.316.137-.432.161-.526.105s-.095-.071.087-.073a.445.445 0 0 0 .282-.086c.063-.073-.21-.094-.746-.052-.029 0-.051.052-.051.113 0 .089-.044.106-.21.069-.245-.05-.3-.09-.234-.159.027-.026.105-.011.181.035.114.071.132.063.132-.05 0-.16-.137-.478-.211-.478-.1 0-.12.192-.026.229.151.057.115.141-.072.161a1.69 1.69 0 0 1-.726-.011c-.106-.048-.113-.035-.052.126a.374.374 0 0 1 0 .3c-.036.067-.046.141-.021.164s.005.046-.038.053a.83.83 0 0 0-.281.077 1.7 1.7 0 0 1-.3.074c-.14.021-.118.027.067.019a.51.51 0 0 1 .383.1c.149.148.078.175-.615.232-.475.04-.554.03-.737-.1-.21-.151-.21-.118-.057-.821a.133.133 0 0 1 .116-.105.073.073 0 0 0 .078-.058.1.1 0 0 0 0-.015c-.01-.044.011-.073.042-.063a.046.046 0 0 0 .061-.022.042.042 0 0 0 0-.031c0-.1.169-.175.393-.176s.409-.141.316-.228c-.021-.024-.013-.044.021-.044s.071-.16.081-.355c.013-.256 0-.326-.05-.252s-.069.073-.069.015c0-.158-.124-.084-.195.119-.1.28-.193.253-.157-.042.021-.171 0-.231-.049-.2a.226.226 0 0 0-.077.174.22.22 0 0 1-.065.168.263.263 0 0 0-.07.19.914.914 0 0 1-.186.394c-.15.2-.21.233-.329.189-.158-.057-.295-.393-.316-.768 0-.137-.038-.236-.073-.221a1.31 1.31 0 0 0-.063.567v.544l-.316.3a1.45 1.45 0 0 0-.316.369 1.32 1.32 0 0 1-.407.316c-.376.231-.472.357-.361.467.025.025.088-.016.14-.09s.123-.119.155-.1.1-.025.151-.1.12-.138.161-.138a.425.425 0 0 0 .2-.145 1.13 1.13 0 0 1 .332-.233c.112-.05.164-.092.118-.093-.121 0-.105-.116.017-.116.164 0 .116.218-.069.316-.123.067-.147.1-.084.146a.28.28 0 0 0 .2.017c.089-.027.106-.008.076.074s-.1.1-.305.066c-.234-.039-.284-.021-.455.163a2.1 2.1 0 0 0-.3.44.83.83 0 0 1-.421.382 1.584 1.584 0 0 0-.643.647 2.07 2.07 0 0 1-.408.5c-.037 0-.016-.078.046-.172.084-.13.095-.192.035-.25s-.077-.057-.077.007c0 .047-.031.067-.068.043a.143.143 0 0 1-.063-.106c0-.063.128-.056.239.014a.177.177 0 0 0 .168-.017c.081-.05.072-.086-.058-.21s-.145-.127-.112-.036c.026.063.015.118-.021.118a.141.141 0 0 1-.105-.1 1.73 1.73 0 0 0-.412-.341c-.221-.153-.365-.3-.346-.35s0-.069-.047-.039-.063.011-.034-.063.015-.114-.017-.114-.1-.116-.142-.256a1.58 1.58 0 0 0-.135-.321 2.14 2.14 0 0 1-.263-.947c.084-.084.081-.172 0-.172-.038 0-.106.078-.148.169-.09.2-.189.221-.189.042 0-.158-.155-.2-.638-.179-.211.01-.377-.011-.377-.048s-.037-.036-.091.008-.09.05-.09-.03.042-.094.126-.073a.75.75 0 0 0 .316-.021.78.78 0 0 1 .453.041c.3.105.669.066.5-.053-.068-.05-.03-.057.139-.028a.554.554 0 0 0 .473-.125 1.4 1.4 0 0 1 .6-.2zm9.2.432a.86.86 0 0 1-.322-.089c-.133-.074-.067-.087.488-.091.442 0 .666.021.714.081a.62.62 0 0 1 .1.232c.022.116-.021.168-.2.244a1.3 1.3 0 0 1-.372.092.2.2 0 0 0-.179.105c-.035.092-.051.089-.123-.016-.147-.217-.166-.421-.046-.491.094-.056.085-.068-.057-.071ZM4.57 5.34c.3.009.39.034.364.105-.042.106-.156.127-.156.021 0-.036-.032-.052-.071-.025s-.046.074.008.14.037.095-.169.095c-.147 0-.231-.027-.21-.067s.012-.068-.023-.068-.083-.041-.106-.105c-.03-.087.029-.1.361-.093Zm-1.977.321c.1-.08.106-.079.063.009-.031.062-.014.055.043-.015a.409.409 0 0 1 .344-.105.76.76 0 0 0 .277-.021c.088-.1.374-.038.642.117.366.211.25.292-.144.095-.2-.1-.316-.118-.4-.073a1.05 1.05 0 0 1-.384.063.71.71 0 0 0-.315.049c-.07.069-.247.084-.247.023a.31.31 0 0 1 .116-.148Zm.274 8.029c-.1-.026-.187-.017-.187.024s.1.069.21.069c.25 0 .242-.03-.024-.093zm8.149-8.427c.21 0 .275.035.369.2a.493.493 0 0 0 .27.228 2.57 2.57 0 0 0 1.4-.227c.024-.037-.032-.034-.133 0a.535.535 0 0 1-.291.028c-.082-.027-.093-.019-.036.021s-.052.06-.287.058a.86.86 0 0 1-.369-.04c0-.025-.068-.029-.152-.009-.124.031-.137.021-.068-.052a.323.323 0 0 0 .085-.153c0-.034-.056.007-.124.091-.1.124-.131.134-.163.053-.031-.063.042-.174.19-.293a.55.55 0 0 0 .223-.349c0-.13.036-.158.2-.158.111 0 .2-.03.2-.066 0-.074-.137-.074-.608 0-.169.026-.237.052-.155.056a.384.384 0 0 1 .291.3c0 .058-.422.181-.624.181-.3 0-.164-.114.2-.169.195-.028.284-.067.232-.1a1.1 1.1 0 0 0-.654.158c-.08.081-.176.058-.122-.027.029-.048.018-.06-.032-.028a.084.084 0 0 0-.042.105c.021.036-.049.044-.168.02s-.211-.013-.211.027c0 .089.238.151.566.152zm-4.2 2.53c.042-.134-.247-.364-.457-.364-.456 0-.642-.078-.756-.316s-.179-.266-.37-.155c-.154.091-.15.216.011.361a1.08 1.08 0 0 1 .211.332 2.84 2.84 0 0 0 .819.874c.027-.009.029.036.006.1s-.017.1.036.063a.191.191 0 0 0 .084-.144c0-.144.381-.494.6-.544a.363.363 0 0 0 .234-.137c.027-.071-.019-.082-.2-.053-.125.021-.221.011-.213-.021ZM9 5.262c-.059.1-.018.541.045.5a.328.328 0 0 0 .063-.219.432.432 0 0 1 .092-.264c.063-.063.055-.081-.03-.081a.2.2 0 0 0-.152.064Zm1.122.763a.717.717 0 0 1 .659-.01.357.357 0 0 0 .395-.043c.175-.115.177-.121.043-.171a2.33 2.33 0 0 0-.431-.076c-.163-.013-.3-.061-.309-.1s0-.057.015-.022.126.033.264-.01a.522.522 0 0 1 .4.006c.179.082.225.026.089-.105-.081-.08-.122-.083-.619-.031-.189.019-.272.063-.295.158-.02.072-.057.129-.084.129s-.087.085-.133.187c-.067.143-.066.162 0 .095zm.941 2.149c.092.05.126.031.158-.088.064-.235.049-.577-.026-.623-.037-.024-.067.024-.067.1a.716.716 0 0 1-.125.326c-.063.091-.122.184-.179.279s-.036.086.034.021a.163.163 0 0 1 .205-.008ZM5.592 6.688c.048.077.062.067.063-.046a.655.655 0 0 1 .145-.315c.164-.211.4-.356.4-.249 0 .039-.044.071-.1.071-.186 0-.326.316-.288.649a.89.89 0 0 0 .1.381 1.13 1.13 0 0 0 .453.106 1.11 1.11 0 0 0 .694-.122c.5-.243.733-.446.78-.674a.388.388 0 0 1 .21-.285.422.422 0 0 0 .211-.241c.052-.21-.064-1.022-.129-.919a.175.175 0 0 1-.179.046c-.14-.037-.252.078-.143.147a.77.77 0 0 1 .068.4c0 .26-.033.387-.124.47-.179.161-.337.147-.187-.016a.508.508 0 0 0 .1-.39c-.021-.27-.085-.36-.257-.36-.069 0-.076.016-.023.05a.55.55 0 0 1 .123.288.454.454 0 0 1-.335.548.4.4 0 0 1-.086.012.563.563 0 0 1-.586-.2c-.047-.122.024-.116.169.015.077.069.131.081.161.034s0-.074-.066-.074-.1-.046-.088-.151c.019-.137.057-.15.342-.141a.99.99 0 0 0 .321-.016 1.2 1.2 0 0 0-.49-.231.784.784 0 0 0-.31.21c-.119.116-.235.195-.257.173s.011-.091.072-.153.1-.127.08-.147a3.08 3.08 0 0 0-.807.843.312.312 0 0 0-.034.288m.642-.35c-.04.067.068.168.249.232.066.023.119.012.119-.023s-.061-.066-.135-.066-.135-.031-.135-.067c0-.1.282-.079.421.044.177.158.154.27-.072.348-.172.061-.218.046-.381-.124-.111-.115-.168-.234-.144-.3s.058-.105.08-.105.019.029 0 .061zm2.076 2.27c-.123-.124-.2-.126-.245 0a.143.143 0 0 0 0 .136.361.361 0 0 0 .4-.044c.027-.047.025-.063 0-.037s-.1 0-.151-.055m-.569.239c.032 0 .1-.09.143-.2s.105-.187.138-.168a.076.076 0 0 0 .1-.035c.028-.046.087-.045.18 0 .185.105.241.026.064-.084a.315.315 0 0 1-.142-.274c0-.2.111-.259.147-.074.011.06.056-.016.1-.17a2.2 2.2 0 0 0 .063-.278c-.006 0-.105.1-.223.221a1.12 1.12 0 0 0-.253.394 1 1 0 0 1-.21.351c-.164.191-.211.329-.1.329Zm1-.37c-.105.047-.169.105-.135.124s.137-.019.23-.09c.189-.153.171-.16-.1-.034m2.819-1.238c.023-.036 0-.105-.059-.15s-.105-.057-.105-.024c.007.115.122.242.164.168"/></svg>