<svg xmlns="http://www.w3.org/2000/svg" viewBox="0 0 24 24"><path fill="#44739e" d="M16.478 1.296 15.55 1l-.168.078c-.83.287-6.999 3.972-7.701 10a13.312 13.312 0 0 0 2.472 9.997l-.934.22a.057.057 0 0 0-.01.11l1.882.803a.66.66 0 0 0 .499 0l1.241-.499a.057.057 0 0 0 0-.11l-1.181-.404-.042-.049a12.42 12.42 0 0 1-3.204-9.835c.718-6.194 6.614-9.558 7.901-9.971l.11-.03.049-.012h-.011Zm-5.562 3.866a12.01 12.01 0 0 0-2.189 3.696 10.76 10.76 0 0 0-.55 4.99l-.306.037a11.156 11.156 0 0 1 .66-5.147 11.75 11.75 0 0 1 2.201-3.708 16.69 16.69 0 0 1 4.8-3.862l.44.136a14 14 0 0 0-5.056 3.858m1.973 16.65-1.364.584a.48.48 0 0 1-.395 0l-2.001-.886v.474l2 .97a.459.459 0 0 0 .399 0l1.387-.66v-.532a.058.058 0 0 1-.026.05"/></svg>