<svg xmlns="http://www.w3.org/2000/svg" fill="#44739e" viewBox="0 0 24 24"><path d="M16.056 2.269 15.212 2l-.152.071c-.755.261-6.362 3.61-7 9.089a12.1 12.1 0 0 0 2.247 9.087l-.849.2a.052.052 0 0 0-.009.1l1.71.73a.6.6 0 0 0 .454 0l1.128-.454a.052.052 0 0 0 0-.1l-1.073-.367-.039-.045a11.288 11.288 0 0 1-2.912-8.939c.653-5.63 6.012-8.688 7.182-9.063l.1-.027.044-.011h-.01zM11 5.783a10.92 10.92 0 0 0-1.989 3.359 9.78 9.78 0 0 0-.5 4.536l-.278.034a10.14 10.14 0 0 1 .6-4.679 10.68 10.68 0 0 1 2-3.37 15.17 15.17 0 0 1 4.363-3.51l.4.123A12.725 12.725 0 0 0 11 5.783m1.794 15.134-1.24.531a.436.436 0 0 1-.359 0l-1.819-.806v.431l1.818.882a.417.417 0 0 0 .363 0l1.26-.6v-.484a.053.053 0 0 1-.023.046"/></svg>