<svg xmlns="http://www.w3.org/2000/svg" viewBox="0 0 24 24"><path fill="#44739e" d="m7.782 16.973.42.982.011-12.306-.431.023ZM7.311 3.634l.323-.024v.152l-.323.025Zm.323.084v.044l.285-.016ZM22.07 2.665v.368l-3.92.29-.091-.319-10.14.739-.285-.03L22.07 2.658M7.59 20.098l-.245-.58v.661l.375.029h-.082Zm7.518-.218.314-.031M7.311 3.634l.323-.024Zm10.163-.17 4.557 17.591v-1.382L17.809 3.156ZM1.54 4.704l14.924-1.021.352 1.288-14.07.802-.374.02h-.059l-.286.019Zm6.898 14.283L2.746 5.773l-.433.028 5.851 13.407Zm0 0 12.475.947.078.288-12.833-1.014ZM1 4.732l6.467 14.556.569.049L2.027 5.812l-.491-1.105Zm16.474-1.268L1.293 4.558l.483-.265 16.033-1.137Zm4.252 16.985L17.308 3.636l-.843.049 4.449 16.248.078.287.054.18Zm0 0-.516-.042-13.745-1.113.304.703L21.91 21.24Zm.906 1.422.368-.21-.011-19.364-.362-.185ZM7.311 5.693v10.308l.313.659V5.676ZM22.07 2.528 7.311 3.632v-.41l14.759-1.17Zm-.039 18.958v-1.809l.039-17.625.388-.017-.016 19.48Zm-14.68-1.305.368.03 14.723 1.304v.45L7.347 20.566Z"/></svg>