<svg xmlns="http://www.w3.org/2000/svg" viewBox="0 0 24 24"><path fill="#44739e" d="M18.49 21.804v-.377L4.911 15.098 4.712 3.253l-.239-.103.243 12.144ZM3.876 15.678 19.442 23l.09-16.812L3.65 2.019Zm14.978-8.952-.083 15.381-10.866-5.114v-.01h-.007l-3.365-1.576-.207-12.495Zm-4.081 9.084c1.142 0 2.287-.006 3.42 0-1.115-.028-2.28-.004-3.42 0m-5.982-.143c3.037 0 6.095-.017 9.13-.007a1.05 1.05 0 0 0 .272-.007v-.478c-4.073-.008-8.115.007-12.196.014v.029c.314.145.631.292.945.448.612-.011 1.242.03 1.849.001m-1.526.174c.179.076.335.174.504.264.045.023.09.05.134.07.605.014 1.242-.015 1.856 0 2.803 0 5.615 0 8.42-.008v-.282h.014v-.072c-1.133-.009-2.278 0-3.42 0-2.506 0-5.019.012-7.508.007Zm12.932-8.073v.019-.011Zm.67-6.227v-.01C15.086 1.507 9.304 1.52 3.529 1.48a1.93 1.93 0 0 0-.418.007c.072 4.883.155 9.774.223 14.642l.008.022c.335-.008.705-.007 1.056-.007v-.025c-.209-.095-.439-.223-.653-.309-.052-4.654-.143-9.296-.197-13.953a4.67 4.67 0 0 1 1.437.289c.826.199 1.677.413 2.486.645 4.12 1.046 8.241 2.138 12.358 3.197l-.223 17.008h.022a2.4 2.4 0 0 0 .176-.413c.145-.162.047-.379.08-.573.012-.767.038-1.552.029-2.312.028-.835.032-1.702.036-2.55.03-1.214.051-2.444.051-3.668.018-.579.045-1.181.024-1.761.036-.056.01-.211.007-.282a.75.75 0 0 0 0-.298c.031-.454.021-.955.021-1.42.027-.728.036-1.459.029-2.202.028-.612.024-1.238.03-1.863-1.46-.358-2.916-.76-4.415-1.118-.597-.171-1.247-.321-1.862-.494l-.023.007c-2.772-.715-5.553-1.432-8.324-2.124a.75.75 0 0 0-.224-.064c4.9-.036 9.836.024 14.741 0-.013.447-.033.899-.021 1.349-.049.66-.018 1.387-.052 2.05v.099a1.57 1.57 0 0 0 .282.076l.019-3.594v-.018l.239.006v.032h-.065L20.25 15.8h.054v.193h-.144v-.196l.016-2.929v-.943l.021-4.136a2.05 2.05 0 0 0-.008.496 8.1 8.1 0 0 0-.014 1.014c-.038.671-.036 1.39-.037 2.072a.78.78 0 0 0 0 .262c-.057 1.491-.044 3.018-.074 4.534h.574c.035-.632 0-1.301.044-1.923.046-4.136.147-8.266.206-12.397a1.32 1.32 0 0 0-.021-.306m-.67 5.005c.01.404-.027.822 0 1.222l.009-1.767c0 .191 0 .38-.009.545m.588-5.16h.007a3 3 0 0 0-.191-.326C14.873 1.06 9.157 1 3.431 1a2.46 2.46 0 0 0-.223.343c5.748 0 11.471.054 17.213.043a1.34 1.34 0 0 0 .364 0"/></svg>