<svg xmlns="http://www.w3.org/2000/svg" viewBox="0 0 24 24"><path fill="#44739e" d="m3.932 20.081 15.466.87v-.143l-14.974-.825Zm.026-16.036-.026 16.036.492-.099V4.136Zm0 0L19.41 2.917v.135L4.424 4.136Zm-.374 16.239L3.572 3.885l-.576.043.013 16.326Zm15.815 1.926L2.996 21.154l.013-.9 16.39.995Zm.012-19.479-.012 19.479.864.053-.026-19.585Zm.813-.914L3 3.171v.762l16.414-1.198.828-.053Zm.924 21.095.444-.205.012-21.36-.456-.231ZM2.779 21.296V2.944l-.336.027-.047 18.298Zm17.686 1.686L2.396 21.686v-.417l18.069 1.189Zm.456-21.485L20.934 23l-.469-.018-.047-21.45ZM2.443 2.544 20.921 1v.497L2.443 2.971Z"/></svg>