<svg xmlns="http://www.w3.org/2000/svg" fill="#44739e" viewBox="0 0 24 24"><path d="M17.811 20.613v-.337L5.662 14.613 5.484 4.016l-.214-.092.217 10.865ZM4.736 15.132l13.926 6.551.081-15.041-14.209-3.73Zm13.4-8.009-.074 13.761-9.722-4.575V16.3h-.006l-3.01-1.41-.186-11.179Zm-3.651 8.127c1.022 0 2.046-.005 3.06 0-.998-.025-2.04-.003-3.06 0m-5.352-.128c2.717 0 5.453-.015 8.169-.006a.94.94 0 0 0 .243-.006v-.428c-3.644-.007-7.26.006-10.912.013v.026c.281.129.565.261.846.4.547-.009 1.111.027 1.654.001m-1.365.156c.16.068.3.156.451.236.04.021.08.045.12.063.541.012 1.111-.014 1.66 0 2.508 0 5.024 0 7.533-.007v-.253h.013v-.064c-1.014-.008-2.038 0-3.06 0-2.242 0-4.49.011-6.717.006zm11.57-7.223v.017-.01Zm.599-5.571v-.009c-5.172-.021-10.345-.01-15.512-.046a1.73 1.73 0 0 0-.374.007c.065 4.368.139 8.744.2 13.1l.007.019c.3-.007.631-.006.945-.006v-.022c-.187-.085-.393-.2-.584-.277-.047-4.164-.128-8.317-.177-12.483a4.18 4.18 0 0 1 1.286.258c.739.178 1.5.37 2.224.577 3.686.936 7.373 1.913 11.057 2.861l-.2 15.216h.02a2.14 2.14 0 0 0 .157-.369c.13-.145.042-.339.072-.513.011-.686.034-1.388.026-2.068.025-.747.028-1.523.032-2.282.027-1.086.046-2.186.046-3.281.016-.518.04-1.057.021-1.576.032-.05.009-.189.006-.252a.67.67 0 0 0 0-.267c.028-.406.019-.854.019-1.27.024-.652.032-1.306.026-1.97.025-.548.022-1.108.027-1.667-1.306-.32-2.609-.68-3.95-1-.534-.153-1.116-.288-1.666-.442l-.021.006c-2.48-.64-4.968-1.281-7.447-1.9a.67.67 0 0 0-.2-.058c4.384-.032 8.8.022 13.188 0-.011.4-.029.805-.019 1.207-.043.591-.016 1.241-.046 1.834V5.9a1.4 1.4 0 0 0 .252.068l.017-3.216v-.016l.214.006v.028h-.058l-.14 12.471h.049v.173h-.129v-.175l.014-2.621v-.844l.019-3.7a1.83 1.83 0 0 0-.007.444 7.2 7.2 0 0 0-.013.907c-.034.6-.032 1.244-.033 1.854a.7.7 0 0 0 0 .234c-.051 1.334-.039 2.7-.066 4.057h.513c.032-.566 0-1.164.04-1.721.041-3.7.131-7.395.184-11.091a1.18 1.18 0 0 0-.019-.274m-.599 4.478c.009.361-.024.735 0 1.093l.008-1.581c0 .171 0 .34-.008.488m.526-4.617h.006a2.7 2.7 0 0 0-.171-.291C14.575 2.054 9.461 2 4.338 2a2.2 2.2 0 0 0-.2.307c5.143 0 10.263.048 15.4.038a1.2 1.2 0 0 0 .326 0"/></svg>