<svg xmlns="http://www.w3.org/2000/svg" fill="#44739e" viewBox="0 0 24 24"><path d="m7.408 14.959.343.8.009-10.028-.352.019Zm-.383-10.87.263-.019v.124l-.263.02Zm.263.069v.036l.232-.013ZM19.051 3.3v.3l-3.194.236-.074-.26-8.263.602-.232-.024 11.763-.86M7.252 17.505l-.2-.472v.538l.306.024h-.067Zm6.126-.177.256-.026M7.025 4.089l.263-.019zm8.281-.138 3.713 14.334v-1.126L15.579 3.7ZM2.322 4.961l12.161-.832.287 1.05-11.465.653L3 5.849h-.048l-.233.015ZM7.943 16.6 3.305 5.832l-.353.023L7.72 16.78Zm0 0 10.165.772.064.234-10.457-.826ZM1.882 4.984l5.27 11.861.463.04L2.719 5.864l-.4-.9Zm13.424-1.033-13.185.891.393-.216L15.579 3.7Zm3.465 13.84-3.6-13.7-.687.04 3.625 13.24.064.234.044.146zm0 0-.421-.034-11.2-.907.248.573 11.523 1.013zm.738 1.159.3-.171L19.8 3l-.295-.151ZM7.025 5.767v8.4l.255.537V5.753Zm12.026-2.579-12.026.9v-.334L19.051 2.8Zm-.032 15.448v-1.474L19.051 2.8l.316-.014-.013 15.874ZM7.057 17.573l.3.024 11.997 1.063v.367l-12.3-1.14z"/></svg>