<svg xmlns="http://www.w3.org/2000/svg" viewBox="0 0 24 24"><path fill="#44739e" d="M3.632 12.684c-.527 0-.843.316-.843.842s.316.842.843.842.947-.421.842-.842c0-.421-.316-.842-.842-.842m.105-8c-.526 0-.842.316-.842.842s.316.842.842.842.947-.421.842-.842c0-.421-.316-.842-.842-.842m8.316 0c-.527 0-.842.316-.842.842s.315.842.842.842.947-.421.842-.842c0-.421-.316-.842-.842-.842m4.105 0c-.526 0-.842.316-.842.842s.316.842.842.842.947-.421.842-.842c0-.421-.316-.842-.842-.842m-8.316 0C7.316 4.684 7 5 7 5.526s.316.842.842.842.947-.421.842-.842c0-.421-.316-.842-.842-.842m-4.105 4c-.526 0-.842.316-.842.842s.316.842.842.842.947-.421.842-.842c0-.421-.316-.842-.842-.842m16.631 3.895c-.526 0-.842.316-.842.842s.316.842.842.842.948-.421.843-.842c0-.421-.316-.842-.843-.842m0-7.895c-.526 0-.842.316-.842.842s.316.842.842.842.948-.421.843-.842c0-.421-.316-.842-.843-.842m0 4c-.526 0-.842.316-.842.842s.316.842.842.842.948-.421.843-.842c0-.421-.316-.842-.843-.842M22.053 3H2.263C1.632 3 1 3.632 1 4.368v10.737c0 .737.526 1.263 1.263 1.263h9.053v2.948H9.842c-.421 0-.842.316-.842.842s.316.842.842.842h4.632c.421 0 .842-.316.842-.842s-.316-.842-.842-.842h-1.579v-2.948h8.842c.737 0 1.263-.631 1.263-1.263V4.368C23 4.053 23 3 22.053 3m-.106 12.105c0 .106-.105.211-.21.211h-2.632c-.21 0-.316 0-.421-.105S18.579 15 18.579 15V8.895c0-.632-.211-.948-.421-1.158-.421-.421-.947-.421-1.053-.421H6.684c-.947 0-1.368.842-1.368 1.368V15c0 .211-.211.316-.211.316H2.368c-.105 0-.21-.105-.21-.211V4.368c0-.105.105-.21.21-.21h19.685v10.947Z"/></svg>