<svg xmlns="http://www.w3.org/2000/svg" viewBox="0 0 24 24"><path fill="#44739e" d="M2.001 5.847v.8c.757.384 1.509.786 2.296 1.104L3.78 9.683l2.318.621.508-1.897c1.177.275 2.546.499 4.195.571v1.974h2.398V8.978c1.65-.072 3.018-.296 4.195-.571l.508 1.897 2.319-.621-.518-1.932c.718-.275 1.562-.699 2.297-1.104v-.7s-.889.494-2.498 1.109S15.426 8.29 12 8.29s-5.893-.62-7.501-1.234-2.498-1.209-2.498-1.209m18.532 4.594a.4.4 0 0 0-.106.013l-2.318.623a.4.4 0 0 0-.283.489l.234.873c-.568.678-.813 1.609-.566 2.529.4 1.494 1.936 2.381 3.429 1.98 1.494-.4 2.381-1.935 1.981-3.429-.247-.92-.923-1.605-1.754-1.909l-.234-.872a.4.4 0 0 0-.383-.297m-17.079.002a.4.4 0 0 0-.371.295l-.233.873c-.831.303-1.507.988-1.754 1.908-.4 1.494.487 3.029 1.981 3.429 1.493.399 3.027-.487 3.427-1.98.247-.92.004-1.851-.564-2.529l.234-.873a.4.4 0 0 0-.283-.489l-2.318-.623a.4.4 0 0 0-.119-.011m7.347 1.31a.4.4 0 0 0-.4.4v.905c-.724.508-1.202 1.343-1.202 2.295 0 1.546 1.254 2.801 2.801 2.8 1.547.001 2.801-1.254 2.801-2.8 0-.952-.477-1.787-1.201-2.295v-.905a.4.4 0 0 0-.401-.4Z"/></svg>