<svg xmlns="http://www.w3.org/2000/svg" fill="#44739e" viewBox="0 0 24 24"><path d="M2 5.8466v.8c.7579.3839 1.5092.7863 2.2969 1.1045l-.5176 1.9316 2.3184.621.5078-1.8964c1.1775.275 2.546.499 4.1953.5703v1.9746h2.3984V8.9776c1.6494-.0713 3.0178-.2954 4.1953-.5703l.5078 1.8965 2.3184-.6211-.5175-1.9316c.718-.2753 1.5617-.699 2.2969-1.1045v-.7s-.8894.4945-2.498 1.109-4.0765 1.234-7.502 1.234-5.8933-.6195-7.502-1.234S2 5.8466 2 5.8466m18.533 4.594a.4.4 0 0 0-.1055.0137l-2.3184.623a.4.4 0 0 0-.2832.4883l.2344.873c-.5678.6781-.8128 1.6097-.5664 2.5293.4 1.4941 1.9357 2.381 3.4297 1.9805 1.4941-.4 2.3809-1.9357 1.9805-3.4297-.2464-.9195-.9231-1.6049-1.7539-1.9082l-.2344-.873a.4.4 0 0 0-.3828-.2969m-17.08.002a.4.4 0 0 0-.371.295l-.2325.873c-.8308.3033-1.5075.9886-1.754 1.9082-.4004 1.494.4864 3.0297 1.9806 3.4297 1.4934.3992 3.0277-.4873 3.4277-1.9805.2464-.9196.0034-1.8512-.5645-2.5293l.2344-.8731a.4.4 0 0 0-.2832-.4883l-2.3184-.623a.4.4 0 0 0-.1191-.0118zm7.3477 1.3105a.4.4 0 0 0-.4004.4004v.9043c-.724.508-1.2012 1.3429-1.2012 2.2949-.0004 1.547 1.2538 2.8012 2.8008 2.8008 1.547.0004 2.8012-1.2538 2.8008-2.8008 0-.952-.4772-1.787-1.2012-2.295v-.9042a.4.4 0 0 0-.4004-.4004z"/></svg>