<svg xmlns="http://www.w3.org/2000/svg" fill="#44739e" viewBox="0 0 24 24"><path d="M21 17.25c0-.41-.34-.75-.75-.75h-1.22L21 18.47zM17.25 7.5c3 0 3.75 2.25 3.75 3V6.75C21 4.68 19.32 3 17.25 3H5.5l4.51 4.5zm-.75-3c.41 0 .75.34.75.75s-.34.75-.75.75-.75-.34-.75-.75.34-.75.75-.75m-3.75 0c.41 0 .75.34.75.75s-.34.75-.75.75-.75-.34-.75-.75.34-.75.75-.75M9 6c-.41 0-.75-.34-.75-.75s.34-.75.75-.75.75.34.75.75S9.41 6 9 6m7.23 7.7 2.88-.62c.81-.17 1.32-.97 1.15-1.78-.42-1.94-2.33-3.17-4.26-2.75l-4.06.87 1.57 1.56c.05-.02.1-.06.16-.07.41-.09.8.17.89.57.04.17 0 .33-.07.48zm1.09-3.58c.41-.09.8.17.89.57s-.17.8-.57.89c-.41.09-.8-.17-.89-.57s.17-.8.57-.89m4.66 10.82L2.86 1.87 1.45 3.28 3 4.83v1.92c0 .41.34.75.75.75h1.93l2.7 2.69-3.49.75c-.81.18-1.32.97-1.15 1.78.42 1.94 2.33 3.18 4.26 2.76l4.66-1.01 2.03 2.03H6.75c-3 0-3.75-2.25-3.75-3v3.75C3 19.32 4.68 21 6.75 21h12.46l1.36 1.36zM6.65 13.97c-.41.09-.8-.17-.89-.57-.09-.41.17-.8.57-.89.41-.09.8.17.89.58.09.39-.17.79-.57.88m.85 5.53c-.41 0-.75-.34-.75-.75s.34-.75.75-.75.75.34.75.75-.34.75-.75.75m3.75 0c-.41 0-.75-.34-.75-.75s.34-.75.75-.75.75.34.75.75-.34.75-.75.75m3.75 0c-.41 0-.75-.34-.75-.75s.34-.75.75-.75.75.34.75.75-.34.75-.75.75m-4.69-6.32c-.4.08-.8-.18-.89-.58-.08-.38.14-.74.5-.86l.93.93c-.07.24-.27.45-.54.51"/></svg>