<svg xmlns="http://www.w3.org/2000/svg" fill="#44739e" viewBox="0 0 24 24"><path d="M8.4395 16.668c.54-.116 1.072.227 1.189.767.117.539-.226 1.071-.766 1.188s-1.072-.226-1.189-.766.227-1.072.766-1.189m4.888-1.057c.539-.116 1.071.227 1.188.766.117.54-.226 1.072-.765 1.189-.54.117-1.073-.226-1.19-.766-.116-.539.227-1.071.767-1.189m4.886-1.056c.54-.117 1.073.226 1.189.765.117.54-.226 1.073-.766 1.19-.54.116-1.072-.227-1.188-.767-.117-.54.225-1.072.765-1.188m4.887-1.057c.54-.117 1.072.226 1.19.766.116.54-.227 1.072-.767 1.189-.54.116-1.072-.226-1.188-.766-.118-.54.226-1.073.765-1.189m-12.431 7.141 14.804-3.195c1.08-.233 1.767-1.297 1.533-2.377-.557-2.583-3.103-4.225-5.686-3.668l-14.804 3.195c-1.08.233-1.766 1.297-1.533 2.377.558 2.583 3.103 4.225 5.686 3.668M25 26c-.553 0-1-.447-1-1s.447-1 1-1 1 .447 1 1-.447 1-1 1m-5 0c-.553 0-1-.447-1-1s.447-1 1-1 1 .447 1 1-.447 1-1 1m-5 0c-.553 0-1-.447-1-1s.447-1 1-1 1 .447 1 1-.447 1-1 1m-5 0c-.553 0-1-.447-1-1s.447-1 1-1 1 .447 1 1-.447 1-1 1m17-4H9c-4 0-5-3-5-4v5c0 2.762 2.238 5 5 5h18c.553 0 1-.447 1-1v-4c0-.553-.447-1-1-1M22 8c-.553 0-1-.447-1-1s.447-1 1-1 1 .447 1 1-.447 1-1 1m-5 0c-.553 0-1-.447-1-1s.447-1 1-1 1 .447 1 1-.447 1-1 1m-5 0c-.553 0-1-.447-1-1s.447-1 1-1 1 .447 1 1-.447 1-1 1M7 8c-.553 0-1-.447-1-1s.447-1 1-1 1 .447 1 1-.447 1-1 1m16-4H5c-.553 0-1 .447-1 1v4c0 .553.447 1 1 1h18c4 0 5 3 5 4V9c0-2.762-2.238-5-5-5"/></svg>