<svg xmlns="http://www.w3.org/2000/svg" viewBox="0 0 24 24"><path fill="#44739e" d="M8.801 2.68H4.904a4.043 4.043 0 0 0-3.896 4.174v9.741a.738.738 0 0 0 .834.836h3.062a.738.738 0 0 0 .835-.836V6.576c0-3.062 2.226-3.896 3.062-3.896M3.234 15.762a.738.738 0 0 1-.835-.836.888.888 0 0 1 .835-.834.738.738 0 0 1 .835.834.738.738 0 0 1-.835.836m0-3.618a.739.739 0 0 1-.835-.835.738.738 0 0 1 .835-.835.888.888 0 0 1 .835.835.739.739 0 0 1-.835.835m0-3.897a.738.738 0 0 1-.835-.835.738.738 0 0 1 .835-.835.889.889 0 0 1 .835.835.738.738 0 0 1-.835.835M19.099 2.68h-4.178c.835 0 3.062.834 3.062 3.896v10.019c.278.558.556.836 1.113.836h3.062a.738.738 0 0 0 .834-.836V6.576a4.19 4.19 0 0 0-3.896-3.896m1.392 13.082a.738.738 0 0 1-.835-.836 1.253 1.253 0 0 1 .835-.834.888.888 0 0 1 .835.834.738.738 0 0 1-.835.836m0-3.618a.739.739 0 0 1-.835-.835.888.888 0 0 1 .835-.835.738.738 0 0 1 .835.835.739.739 0 0 1-.835.835m0-3.897a.738.738 0 0 1-.835-.835.836.836 0 1 1 1.67 0 .738.738 0 0 1-.835.835M7.131 6.854h9.462s.557-4.178-4.727-4.178c-4.727 0-4.727 3.618-4.727 4.178m6.679-2.783c.557 0 .835.279.835.557s-.286 1.109-.563 1.109-.836-.278-.836-.557c-.278-.557 0-.835.558-1.113m-3.897 0c.557 0 .835.278.835.556s-.279 1.114-.558 1.114-.829-.274-.829-.55c-.278-.556 0-.834.556-1.112m7.515 13.359a.818.818 0 0 1-.835-.835V8.246H7.131v8.349a1.029 1.029 0 0 1-.557.836h4.177v1.388H8.522a1.196 1.196 0 0 0-1.113 1.113v.278a1.196 1.196 0 0 0 1.113 1.114h6.959a1.196 1.196 0 0 0 1.112-1.114v-.278a1.196 1.196 0 0 0-1.112-1.113h-2.228v-1.388Z"/></svg>