<svg xmlns="http://www.w3.org/2000/svg" viewBox="0 0 24 24"><path fill="#44739e" d="M20.005 6.882c0-.943-.377-1.98-.943-3.017s-1.319-1.885-2.168-2.356c-.848-.566-1.696-.66-2.356-.283l-9.615 5.75c-.659.377-.942 1.131-.942 2.168 0 .943.377 1.979.942 3.016s1.32 1.885 2.168 2.357l.566.282c.094 1.414.377 2.64.565 3.017.283.377.943.848 1.791 1.131-1.696.188-3.487.565-3.487 1.697v.659c0 1.32 3.016 1.697 4.807 1.697s4.807-.377 4.807-1.697v-.659c0-.943-1.508-1.414-3.016-1.603.66-.188.942-.565 1.131-.66s.283-.377.283-.659c-.094-.566-.66-.849-1.131-.943-.849-.283-1.32-.283-1.697-.189-.189-.659-.189-1.791-.189-2.922l7.541-4.43h.094c.566-.66.943-1.319.849-2.356m-3.582-4.619c.66.471 1.32 1.131 1.791 2.074.471.848.848 1.791.848 2.639 0 .66-.094 1.131-.471 1.32-.283.188-.848.094-1.414-.283-.66-.471-1.32-1.131-1.791-2.074-.471-.848-.848-1.791-.848-2.639 0-.471.094-.943.283-1.131l.188-.189c.094-.094.189-.094.377-.094.283 0 .66.189 1.037.377"/></svg>