<svg xmlns="http://www.w3.org/2000/svg" viewBox="0 0 24 24"><path fill="#44739e" d="M17.912 1.224c-.661-.661-3.382.331-4.043.557L7.133 4.219c-.68.236-1.124.916-1.294 1.795-.652.614-.813 1.955-.321 3.325.519 1.455 1.596 2.428 2.522 2.371.038.029.076.038.113.067v4.005s-.17 2.513 2.57 2.976v4.157c.208.047.444.085.709.085.236 0 .453-.028.651-.076v-4.156s1.144-.161 1.144-.397-1.55.104-1.824-1.389c-.142-.794-.132-3.08-.094-5.309 1.823-.624 4.912-1.691 5.196-1.824.406-.198 1.559-1.133 1.927-2.598.179-.859.888-4.818-.52-6.027M9.618 8.215c-.397 0-.718-.406-.718-.907s.33-.907.718-.907.718.406.718.907-.322.907-.718.907m7.293-.416c-.123.595-.293 1.002-.661 1.106-.293.122-.784-.067-1.228-.511-1.512-1.983.056-5.573.359-5.337.51.548.991 1.256 1.247 2.201.264.85.434 1.767.283 2.541"/></svg>