<svg xmlns="http://www.w3.org/2000/svg" viewBox="0 0 24 24"><path fill="#44739e" d="M6.089 10.008a.14.14 0 0 0-.008-.057 1.5 1.5 0 0 0-.219-.211 1.66 1.66 0 0 0-.362-.215 1.53 1.53 0 0 0-1.079-.035 1.58 1.58 0 0 0-.46.25 1.5 1.5 0 0 0-.219.211.14.14 0 0 0-.008.057.3.3 0 0 0 0 .053 2.1 2.1 0 0 0 .195.206.1.1 0 0 0 .067 0 .2.2 0 0 0 .047-.044 1.19 1.19 0 0 1 .476-.315 1.182 1.182 0 0 1 .779 0 1.19 1.19 0 0 1 .476.315.2.2 0 0 0 .047.044.1.1 0 0 0 .065 0 1.9 1.9 0 0 0 .2-.207.3.3 0 0 0 .003-.052m-.619.331a.894.894 0 0 0-.362-.183.93.93 0 0 0-.393 0 .894.894 0 0 0-.362.183.8.8 0 0 0-.119.122.13.13 0 0 0-.008.058v.058a1.9 1.9 0 0 0 .191.2.1.1 0 0 0 .071 0 .15.15 0 0 0 .035-.032.6.6 0 0 1 .052-.052.5.5 0 0 1 .6-.049.55.55 0 0 1 .118.1.15.15 0 0 0 .035.032.1.1 0 0 0 .071 0 1.7 1.7 0 0 0 .194-.2.33.33 0 0 0 0-.108.7.7 0 0 0-.123-.129m-.614 1.417a.405.405 0 0 0 .265-.057.439.439 0 0 0 .207-.394.431.431 0 0 0-.235-.376.35.35 0 0 0-.187-.042.3.3 0 0 0-.089.008.435.435 0 0 0-.325.448.43.43 0 0 0 .118.283.408.408 0 0 0 .246.13M3.439 9.75a.1.1 0 0 0 .071 0 .37.37 0 0 0 .069-.062 1.87 1.87 0 0 1 .474-.356 1.82 1.82 0 0 1 .621-.2 2.14 2.14 0 0 1 .389-.01 1.867 1.867 0 0 1 1.181.564.37.37 0 0 0 .069.062.094.094 0 0 0 .07 0 1.5 1.5 0 0 0 .191-.2.24.24 0 0 0 0-.055.124.124 0 0 0-.008-.056 1.63 1.63 0 0 0-.2-.2 2.223 2.223 0 0 0-1.135-.53 1.7 1.7 0 0 0-.327-.021 1.67 1.67 0 0 0-.326.021 2.223 2.223 0 0 0-1.135.53 1.63 1.63 0 0 0-.2.2.124.124 0 0 0-.008.056.2.2 0 0 0 0 .055 1.63 1.63 0 0 0 .204.202m15.094 4.35c-.006-.017-.015-.034-.02-.052h-.006l-.034-.07v-.01l-.035-.072v-.008l-.036-.074V13.8l-.037-.075-.038-.077-.165-.339a.75.75 0 0 0-.126-.257l-.138-.283c0-.014-.008-.028-.01-.043h-.938l-1.283 2.565h.882c.032-.257.193-.365.241-.6.622.044 1.232-.255 1.4.6h.922a3.4 3.4 0 0 0-.191-.391Zm-.942.269c-.841.211-.593-.818-.28-1.123.376.021.618.799.28 1.119zM12.7 12.721h-.962a14.2 14.2 0 0 0-.921 1.123h-.04a4 4 0 0 0-.041-1.123 3.13 3.13 0 0 0-.881.04v2.525h.922v-1c.909.8.59 1.115 2 1-1.493-1.742-1.577-.822-.077-2.565m9.26.401-.04-.08c-.064-.2-.521-.321-.521-.321h-1.884v2.565h.8v-.6c.66.009 1.515.083 1.643-.441l.04-.12V13.2Zm-1.643.842v-.6c1.358-.212 1.361.793 0 .6m-7.495-1.523h.962v2.845h.841v-2.845h1.002v-.682h-2.805zm-3.688.28a2.82 2.82 0 0 0-.8.04v1.288l-.9-.737c-.008-.01-.019-.02-.027-.03H7.4l-.235-.193a.28.28 0 0 0-.092-.077l-.11-.09c-.182-.258-.622-.23-.955-.2v2.565h.721v-1.36l1.276 1.081a.4.4 0 0 0 .032.027l.04.034a1.383 1.383 0 0 0 1.1.22c-.034-.562.064-2.058-.043-2.568m-6.252-.962H2v3.527h2.124v-.681H2.882Zm2.405.962h-.8v2.565h.842c-.029-.559.065-2.055-.042-2.565" class="cls-1" data-name="Colore riempimento 1"/></svg>