<svg xmlns="http://www.w3.org/2000/svg" fill="#44739e" viewBox="0 0 24 24"><path d="M8.784 2v.42l-1.118.144.083 18.711 1.139.367V22l6.892-.973V2.649Zm2.249 7.985.5-.581c1.12-1.271 1.589-1.918 1.595-2.637 0-.4-.125-.871-.719-.871a1.252 1.252 0 0 0-.825.4l-.164.163-.3-.805.068-.068a1.89 1.89 0 0 1 1.347-.575 1.512 1.512 0 0 1 1.492 1.67c0 1.045-.641 1.862-1.547 2.9l-.139.154h1.8v.887h-3.1zM8.249 20.91 8.17 3l.619-.079.1 18.191zm4.071-2.262a2.416 2.416 0 0 1-1.4-.43l-.081-.064.277-.922.172.129a1.873 1.873 0 0 0 1.021.342.963.963 0 0 0 .717-.26 1.037 1.037 0 0 0 .268-.731 1.026 1.026 0 0 0-1.144-1.032h-.528v-.9h.528a.9.9 0 0 0 .969-.848.675.675 0 0 0-.73-.74 1.527 1.527 0 0 0-.907.356l-.174.145-.272-.892.074-.063a2.3 2.3 0 0 1 1.411-.49 1.488 1.488 0 0 1 1.585 1.557 1.587 1.587 0 0 1-.724 1.371 1.652 1.652 0 0 1 .918 1.552 1.848 1.848 0 0 1-1.98 1.92"/></svg>