<svg xmlns="http://www.w3.org/2000/svg" viewBox="0 0 24 24"><path fill="#44739e" d="M12.11 17.214a9.2 9.2 0 0 1-6.733-3.189l.965 7.017a2.2 2.2 0 0 0 2.165 1.903l6.855.055a2.542 2.542 0 0 0 2.549-2.293l.673-6.835a7.699 7.699 0 0 1-6.474 3.342m6.081.177q-.649.165-1.303.305a1.1 1.1 0 0 1 .034.273 3.071 3.071 0 0 1-1.072 2.61c-.539.344-1.336.44-3.707.471h-.487c-2.607 0-3.071-.249-3.461-.619a3.344 3.344 0 0 1-.928-2.193l-.022-.493-.057-.013-1.1-.233.043-.201q.607.126 1.1.234v-.011l.135.04c.297.064.564.122.811.174a32.1 32.1 0 0 0 3.88.393 26.43 26.43 0 0 0 4.371-.55l.259-.053h.016q.723-.156 1.443-.33Zm-5.824.954h-.76a14.3 14.3 0 0 1-3.421-.389c-.25-.043-.498-.094-.745-.152l.02.432a3.135 3.135 0 0 0 .866 2.054c.373.357.843.589 3.803.559 2.296-.025 3.104-.123 3.6-.44a2.871 2.871 0 0 0 .982-2.435.66.66 0 0 0-.032-.231 26.4 26.4 0 0 1-4.313.602M12 1.001a7.948 7.948 0 0 0-8.043 7.851A7.949 7.949 0 0 0 12 16.704a7.949 7.949 0 0 0 8.043-7.852A7.949 7.949 0 0 0 12 1.001m5.94 10.527a1.353 1.353 0 0 1-.19.849 5.353 5.353 0 0 1-2.089 1.898 7.38 7.38 0 0 1-2.664.88 6.7 6.7 0 0 1-.998.075 6.62 6.62 0 0 1-2.394-.44 8.9 8.9 0 0 1-1.022-.387 5.163 5.163 0 0 1-2.31-1.793 1.54 1.54 0 0 1-.237-1.145 6.609 6.609 0 1 1 11.904.063m-11.6.02-.073-.018c0 2.126 3.675 3.52 5.801 3.52s5.539-1.441 5.539-3.567a22.97 22.97 0 0 1-11.267.065m2.428 10.91v-.001Z"/></svg>