<svg xmlns="http://www.w3.org/2000/svg" viewBox="0 0 24 24"><path fill="#44739e" d="M12.66 10.924v.026a.724.724 0 0 0 .252.582 1 1 0 0 1-.078-.133.605.605 0 0 1-.063-.356l.035-.151.039.162.011.05a.641.641 0 0 0 .55.55.529.529 0 0 0 .44-.177.75.75 0 0 0 .186-.574.08.08 0 0 0-.007-.031h-.018a.22.22 0 0 1-.189-.206.209.209 0 0 1 .157-.212.228.228 0 0 1 .258.161.856.856 0 0 1 0 .641.839.839 0 0 1-.88.544.759.759 0 0 0 .738-.187.976.976 0 0 0 .115-1.265l-.031-.04.094-.04.162-.067h.009a.21.21 0 0 0 .06-.033.15.15 0 0 0-.033 0l-.11.028-.188.048.11-.101.009-.008c-.199.099-.405.199-.612.287a3.7 3.7 0 0 1-.426.153l-.127.038.091-.1c.04-.043.078-.085.11-.129-.037.03-.072.062-.11.093l-.037.033-.044.04a.616.616 0 0 1-.23.156.206.206 0 0 1-.19-.026.254.254 0 0 1-.094-.201.66.66 0 0 1 .012-.156.68.68 0 0 0-.076.229.2.2 0 0 0 .032.169.239.239 0 0 1 .073.203m-1.839.867a.95.95 0 0 1-.22.007.847.847 0 0 1-.707-.614.814.814 0 0 1 .047-.609.194.194 0 0 1 .289-.1.088.088 0 0 1 .049.052.081.081 0 0 1-.023.066.586.586 0 0 0-.117.289.684.684 0 0 0 .22.64.499.499 0 0 0 .463.121.628.628 0 0 0 .422-.387c.016-.038.029-.08.041-.12l.023-.075.065-.19.007.201a.756.756 0 0 1-.148.469.747.747 0 0 0 .249-.676.079.079 0 0 1 .032-.091.176.176 0 0 0 .071-.139.536.536 0 0 0-.078-.31q.007.033.013.069a.33.33 0 0 1-.04.242.21.21 0 0 1-.143.088.264.264 0 0 1-.191-.057 1.3 1.3 0 0 1-.193-.164c-.032-.031-.065-.064-.1-.093l-.021-.018-.022-.019c.037.048.079.097.124.146l.095.105-.128-.048a5.3 5.3 0 0 1-.633-.251l-.273-.132-.101-.049.028.019-.047.032a.057.057 0 0 1-.052.009l-.045-.011c-.038-.011-.076-.021-.11-.03h-.013s0 .006.016.014l.015.006h.012l.075.029a1.5 1.5 0 0 1 .167.074l.043.024-.034.035a.973.973 0 0 0 .095 1.231.736.736 0 0 0 .778.215m1.341 3.199a6.54 6.54 0 0 0 5.404-2.711 1.005 1.005 0 0 0 .119-.866 10.9 10.9 0 0 1-1.385.464.88.88 0 0 1 .11.455.79.79 0 0 1-.118.33.37.37 0 0 1-.138.079.05.05 0 0 1 0 .022v.014l-.007.011a.042.042 0 0 1-.038.023.45.45 0 0 0-.133.027.56.56 0 0 1-.156.028h-.029a.55.55 0 0 1-.144-.013.143.143 0 0 0-.11.011.495.495 0 0 1-.43.015c-.016-.007-.023-.009-.029-.007a.577.577 0 0 1-.48-.061.1.1 0 0 0-.052-.009h-.029a.616.616 0 0 1-.341-.251h.073a.12.12 0 0 1 .122.072l.017.03c.036 0 .071.006.11.01h.006a.074.074 0 0 1 .077.064.14.14 0 0 1 .055.018.502.502 0 0 0 .424.053.11.11 0 0 1 .075.009.433.433 0 0 0 .373-.011.21.21 0 0 1 .16-.016.48.48 0 0 0 .127.011h.029a.5.5 0 0 0 .136-.021.8.8 0 0 1 .091-.023v-.029l.016-.011a.24.24 0 0 1 .077-.039l.02-.031a.533.533 0 0 0 .166-.304.748.748 0 0 0-.157-.517 1.3 1.3 0 0 0-.078-.11l-.039-.053-.028-.039.044-.018c.052-.022.057-.034.043-.093a3.1 3.1 0 0 0-.11-.367l-.016-.042.042-.008c.027-.006.064-.015.072-.028a.165.165 0 0 0-.006-.087v-.011a3.28 3.28 0 0 0-.561-1.282.12.12 0 0 1-.022-.118c.023-.076.043-.154.061-.232a8.74 8.74 0 0 0 .199-1.314 4.36 4.36 0 0 0 0-.758c-.017-.162-.09-.24-.23-.247a1.9 1.9 0 0 0-.325.011 3.16 3.16 0 0 0-1.036.295l-.11.05-.135.063.032-.085a.13.13 0 0 1 .031-.045l.006-.008c-.006-.009-.008-.012-.038.008l-.099.049-.153.098.069-.154.027-.056v-.013l-.031.037a.47.47 0 0 0-.061.084.091.091 0 0 1-.058.055.098.098 0 0 1-.079-.029 1.36 1.36 0 0 0-.264-.157 2.95 2.95 0 0 0-1.159-.253 3.06 3.06 0 0 0-.842.084 1.925 1.925 0 0 0-.776.343.065.065 0 0 1-.054.018.08.08 0 0 1-.051-.039 1.2 1.2 0 0 0-.11-.147l.029.081.064.186-.11-.11a.77.77 0 0 0-.136-.102c-.025-.015-.026-.014-.031-.01l.009.017.009.019.014.035-.034.014a.071.071 0 0 1-.07-.009 3.3 3.3 0 0 0-.382-.157 2.85 2.85 0 0 0-1.088-.186c-.137.006-.21.08-.226.236a3.85 3.85 0 0 0-.013.557 7.8 7.8 0 0 0 .27 1.75.142.142 0 0 1-.026.137 2.64 2.64 0 0 0-.346.597 3.74 3.74 0 0 0-.22.714c-.008.043-.005.059 0 .066s.017.014.053.018a.044.044 0 0 1 .021.008l.032.014-.009.036a2.5 2.5 0 0 0-.11.355c-.015.077-.015.077.043.11l.034.022-.035.047-.022.03a.933.933 0 0 0-.228.637.74.74 0 0 0 .064.22.08.08 0 0 0 .025.028l.09.065c.013 0 .017.016.03.022a.3.3 0 0 1 .042.025c.018.011.036.02.054.029a.8.8 0 0 0 .096.026.486.486 0 0 0 .297.016.1.1 0 0 1 .029 0 .13.13 0 0 1 .06.017.428.428 0 0 0 .38.033.205.205 0 0 1 .133-.007.45.45 0 0 0 .33-.029.55.55 0 0 1 .118-.045.067.067 0 0 1 .068-.068c.041 0 .083-.007.123-.011V12.6l.024-.011.017-.011a.11.11 0 0 1 .074-.029h.11c-.066.049-.16.172-.205.177h-.016v.014a.06.06 0 0 1-.072.056.35.35 0 0 0-.2.045.525.525 0 0 1-.38.033.137.137 0 0 0-.09 0 .48.48 0 0 1-.179.035.54.54 0 0 1-.259-.071c-.018-.01-.026-.011-.036-.008a.634.634 0 0 1-.361 0 .77.77 0 0 0-.159-.033l-.068-.033a.143.143 0 0 1-.07-.054.715.715 0 0 1-.138-.385v-.032a.81.81 0 0 1 .11-.44 11.44 11.44 0 0 1-1.566-.532 1.258 1.258 0 0 0 .157 1.164c.81 1.358 3.373 2.478 5.71 2.505m.098-2.592a.066.066 0 0 1-.029.008h-.174a1.1 1.1 0 0 1-.159-.01l-.061-.009.037-.051c.055-.079.122-.159.203-.159.065 0 .125.048.203.159l.028.04Zm3.849-.468a.588.588 0 0 1 .105.368.398.398 0 0 1-.357.368h-.024a.126.126 0 0 1-.11-.02c-.032-.03-.012-.074 0-.11a.2.2 0 0 0 .013-.033.484.484 0 0 0-.068-.379.65.65 0 0 1 .024.191.416.416 0 0 1-.128.307.34.34 0 0 1-.231.088h-.044a.184.184 0 0 1-.14-.11.723.723 0 0 1-.067-.368v-.082a.61.61 0 0 0-.031.414c.017.062 0 .095-.058.11a.345.345 0 0 1-.308-.048.359.359 0 0 1-.143-.277.63.63 0 0 1 .054-.288.69.69 0 0 0-.117.404v.054l-.048-.019a.273.273 0 0 1-.135-.278.755.755 0 0 1 .207-.462.99.99 0 0 1 .818-.33 1.08 1.08 0 0 1 .788.5m-6.391.583-.055.025v-.063a.594.594 0 0 0-.12-.415.56.56 0 0 1 .039.399.33.33 0 0 1-.324.235h-.022a.157.157 0 0 1-.119-.033.11.11 0 0 1-.013-.127.11.11 0 0 0 .009-.029.65.65 0 0 0-.046-.344.91.91 0 0 1-.037.389.207.207 0 0 1-.21.171h-.035a.357.357 0 0 1-.251-.136.44.44 0 0 1-.079-.33v-.013a1 1 0 0 1 .018-.11.46.46 0 0 0-.064.158.525.525 0 0 0 .031.319l.019.047H8.41a.408.408 0 0 1-.4-.153.51.51 0 0 1 0-.53 1.02 1.02 0 0 1 .498-.453.971.971 0 0 1 1.173.292.673.673 0 0 1 .166.456.242.242 0 0 1-.129.245m.254-.181a.814.814 0 0 0-.172-.571 1.077 1.077 0 0 0-1.285-.39l-.085.034-.092.035v-.06a.23.23 0 0 1 .033-.094l.007-.014a.066.066 0 0 1-.035.005h-.038v-.04a1.3 1.3 0 0 1 .095-.345l-.042.063-.006-.11a.76.76 0 0 1 .088-.292l-.11.155.05-.193a.79.79 0 0 1 .152-.275l.018-.023-.013-.012-.132.123.081-.173a3.2 3.2 0 0 1 .234-.429 1.02 1.02 0 0 1 .278-.263c-.034 0-.068.008-.103.014s-.058.009-.09.013l-.083.009.051-.07a.9.9 0 0 1 .279-.253l-.089.007.11-.078a1.02 1.02 0 0 1 .22-.118c-.046.008-.092.018-.137.03l-.187.051.156-.118a.7.7 0 0 1 .147-.085l-.171.036.144-.104a.68.68 0 0 1 .348-.097c-.041-.022-.083-.044-.126-.064s-.11-.053-.176-.078l-.088-.037-.138-.061.149-.012a1.4 1.4 0 0 1 .167-.007 1.87 1.87 0 0 0-.31-.14l-.168-.057.177-.016a.8.8 0 0 1 .21.01.8.8 0 0 0-.117-.018l-.235-.013.229-.057a.693.693 0 0 1 .424.059 1.5 1.5 0 0 1 .198.117c-.019-.024-.038-.047-.056-.069l-.131-.161.175.098a1.9 1.9 0 0 1 .22.154 1.7 1.7 0 0 0-.361-.367 9 9 0 0 0-1.001-.71H8.63a.14.14 0 0 1-.057-.057l-.025-.054h.059a2.6 2.6 0 0 1 1.013.173 2.12 2.12 0 0 1 .83.527v-.008l.022-.034.018.013a1.4 1.4 0 0 0-.085-.12l-.118-.159.14.07a1.54 1.54 0 0 1 .22.136l-.006-.048h.052a2 2 0 0 0-.11-.126l-.094-.102.145.042c.054.017.11.032.163.054l-.04-.042-.064-.065h.122l-.148-.044.133-.034a.96.96 0 0 1 .277-.024h-.01l-.098-.031.095-.04a.315.315 0 0 1 .203 0l.038.013-.01-.011-.058-.066h.087a.68.68 0 0 1 .173.033l-.018-.011-.082-.054.077-.023c.083-.026.11-.023.24.036l-.008-.022-.01-.033.037-.009a.159.159 0 0 1 .139.033v-.033h.035a.178.178 0 0 1 .164.028.25.25 0 0 1 .092-.04.099.099 0 0 1 .091.018.055.055 0 0 1 .013.034.161.161 0 0 1 .147-.034l.026.003v.046a.288.288 0 0 1 .231-.026l.067.02-.073.06-.022.018a.7.7 0 0 1 .184-.04l.098-.005-.07.07-.016.015a.374.374 0 0 1 .249-.026l.101.029-.097.043-.038.016a1.54 1.54 0 0 1 .276.014l.133.022-.126.051-.025.01h.14l-.069.075a.4.4 0 0 0-.039.043.72.72 0 0 1 .197-.064l.126-.021-.097.087a.74.74 0 0 0-.092.101l.012-.007v.058a.1.1 0 0 1 0 .027 2 2 0 0 1 .235-.145l.159-.08-.116.139a1.4 1.4 0 0 0-.102.134l.021-.017.019.047a2.6 2.6 0 0 1 1.826-.698h.025l.03.072-.055.038-.072.048a7.26 7.26 0 0 0-1.059.778 1.32 1.32 0 0 0-.253.277 1.43 1.43 0 0 1 .22-.151l.163-.086-.119.144-.032.039-.022.026a1.016 1.016 0 0 1 .42-.189.53.53 0 0 1 .192 0l.262.053-.266.022a.63.63 0 0 0-.158.033.86.86 0 0 1 .255-.025l.17.011-.16.062a2.4 2.4 0 0 0-.31.144 1.4 1.4 0 0 1 .15.007l.145.01-.133.062-.124.055c-.085.037-.174.075-.261.124a1.06 1.06 0 0 1 .249.043.4.4 0 0 1 .095.043l.169.11-.193-.05h-.024a.96.96 0 0 1 .181.089l.152.097-.176-.027-.069-.011-.076-.014a1.5 1.5 0 0 1 .22.11l.144.088-.11-.012a.79.79 0 0 1 .28.257l.042.064-.074-.005a.9.9 0 0 1-.096-.013.8.8 0 0 0-.103-.013 1.507 1.507 0 0 1 .502.659l.077.172-.049-.046-.034.038a1.02 1.02 0 0 1 .137.254l.079.242-.142-.205a1.2 1.2 0 0 1 .082.254l.041.192-.11-.161a1.7 1.7 0 0 1 .11.377l.013.09-.092-.069c.008.018.016.037.027.058l.022.045.043.089-.089-.037a1.73 1.73 0 0 0-.348-.11 1.1 1.1 0 0 0-1.166.622.75.75 0 0 0-.071.389.088.088 0 0 1-.016.067.074.074 0 0 1-.056.021h-.318a.1.1 0 0 1-.074-.037 1.05 1.05 0 0 0-.606-.315 1.18 1.18 0 0 1 .45.235.1.1 0 0 1 .042.065l.01.052-.051-.007a.4.4 0 0 0-.095 0 .263.263 0 0 1-.247-.076.3.3 0 0 0-.063-.052.28.28 0 0 1 .05.074l.014.033-.032.017a.067.067 0 0 1-.082-.019v-.006a.77.77 0 0 0-.268-.145h-.007a1.1 1.1 0 0 1 .126.071l.021.015.034.025-.01.028a.059.059 0 0 1-.066.039h-.481a.087.087 0 0 1-.086-.059.53.53 0 0 0-.208-.24.11.11 0 0 1-.055-.11v-.146a.22.22 0 0 1 .165-.233l.016-.006a.22.22 0 0 0 .051-.017.118.118 0 0 0 .07-.093.134.134 0 0 0-.049-.115.275.275 0 0 0-.13-.058.638.638 0 0 0-.395.03.137.137 0 0 0-.089.122.123.123 0 0 0 .098.124h.02a.23.23 0 0 1 .11.052.29.29 0 0 1 .075.207.271.271 0 0 1-.13.295.323.323 0 0 0-.124.177v.007a.066.066 0 0 1-.063.051h-.679l.082-.067a.74.74 0 0 1 .151-.099.75.75 0 0 0-.228.127h-.007a.117.117 0 0 1-.089.031h-.058l.03-.052a.33.33 0 0 1 .031-.045.8.8 0 0 0-.083.07l-.007.007a.074.074 0 0 1-.058.032h-.347l.067-.066a1.15 1.15 0 0 1 .483-.282 1.07 1.07 0 0 0-.579.309.11.11 0 0 1-.08.038h-.316a.06.06 0 0 1-.053-.018.075.075 0 0 1-.022-.047ZM8.795 8.911l.016.03a.242.242 0 0 1 .049.152v.026l-.076.021-.144-.517Zm-.12-.399.065.015c.071.017.14.039.206.061a1.9 1.9 0 0 0 .225.064l.072.014-.053.05a1.5 1.5 0 0 0-.26.318l-.035.059-.029-.063c-.049-.11-.087-.22-.126-.33-.013-.04-.028-.08-.042-.121Zm6.803-.006-.208.593-.04-.059a1.31 1.31 0 0 0-.278-.318l-.06-.046ZM12 16.704a7.948 7.948 0 0 0 8.043-7.852A7.948 7.948 0 0 0 12 1.001a7.948 7.948 0 0 0-8.043 7.851A7.948 7.948 0 0 0 12 16.704m-5.967-5.239a6.609 6.609 0 1 1 11.903.063 1.342 1.342 0 0 1-.189.849 5.33 5.33 0 0 1-2.09 1.898 7.31 7.31 0 0 1-2.663.88 6.7 6.7 0 0 1-.998.075 6.61 6.61 0 0 1-2.393-.44 9.2 9.2 0 0 1-1.024-.387 5.15 5.15 0 0 1-2.31-1.793 1.54 1.54 0 0 1-.236-1.145m6.077 5.749a9.19 9.19 0 0 1-6.731-3.189l.963 7.017a2.2 2.2 0 0 0 2.165 1.903l6.857.055a2.54 2.54 0 0 0 2.547-2.293l.673-6.835a7.699 7.699 0 0 1-6.474 3.342m6.084.177c-.261.068-.721.18-1.305.305a.95.95 0 0 1 .034.273 3.065 3.065 0 0 1-1.078 2.61c-.54.344-1.337.44-3.708.471h-.487c-2.607 0-3.072-.249-3.46-.619a3.346 3.346 0 0 1-.93-2.193l-.022-.493-.056-.013-1.097-.233.043-.201c.403.086.77.163 1.093.234v-.011l.135.04c.297.064.564.122.812.174a31.7 31.7 0 0 0 3.88.393 26.1 26.1 0 0 0 4.371-.55l.259-.053h.015c.481-.102.964-.214 1.443-.33Zm-5.827.954h-.76a14.2 14.2 0 0 1-3.421-.389c-.362-.064-.607-.118-.745-.152l.02.432a3.14 3.14 0 0 0 .865 2.054c.375.357.843.589 3.804.558 2.296-.024 3.104-.122 3.599-.439a2.873 2.873 0 0 0 .983-2.435.67.67 0 0 0-.032-.231 26.7 26.7 0 0 1-4.313.602"/></svg>