<svg xmlns="http://www.w3.org/2000/svg" fill="#44739e" viewBox="0 0 24 24"><path d="M12.1 16.741a8.364 8.364 0 0 1-6.121-2.9l.877 6.38a2 2 0 0 0 1.968 1.73l6.233.05a2.311 2.311 0 0 0 2.317-2.085l.612-6.214a7 7 0 0 1-5.886 3.039m5.529.161q-.59.15-1.185.277a1 1 0 0 1 .031.248A2.792 2.792 0 0 1 15.5 19.8c-.49.313-1.214.4-3.37.428h-.443c-2.37 0-2.792-.226-3.146-.563a3.04 3.04 0 0 1-.844-1.993l-.02-.449-.052-.011-1-.212.039-.183q.552.115 1 .213v-.01l.123.036c.27.058.513.111.737.158a29.2 29.2 0 0 0 3.528.358 24.03 24.03 0 0 0 3.974-.5l.235-.049h.015q.657-.141 1.312-.3zm-5.295.867h-.691a13 13 0 0 1-3.111-.354c-.227-.039-.452-.085-.677-.138l.018.393a2.85 2.85 0 0 0 .788 1.867c.339.325.766.536 3.457.508 2.088-.022 2.822-.111 3.273-.4a2.61 2.61 0 0 0 .893-2.213.6.6 0 0 0-.029-.21 24 24 0 0 1-3.921.547M12 2a7.226 7.226 0 0 0-7.312 7.138A7.227 7.227 0 0 0 12 16.277a7.227 7.227 0 0 0 7.312-7.139A7.227 7.227 0 0 0 12 2m5.4 9.571a1.23 1.23 0 0 1-.172.772 4.867 4.867 0 0 1-1.9 1.726 6.71 6.71 0 0 1-2.422.8 6.1 6.1 0 0 1-.907.068 6.02 6.02 0 0 1-2.176-.4 8.1 8.1 0 0 1-.93-.352 4.694 4.694 0 0 1-2.1-1.63 1.4 1.4 0 0 1-.215-1.041 6.009 6.009 0 1 1 10.822.057m-10.546.018-.066-.016c0 1.933 3.341 3.2 5.274 3.2s5.036-1.31 5.036-3.243a20.884 20.884 0 0 1-10.244.059m2.208 9.919v-.001z"/></svg>