<svg xmlns="http://www.w3.org/2000/svg" viewBox="0 0 24 24"><path fill="#44739e" d="m17.047 12.856.222-.296.089-.121a2.426 2.426 0 0 0-.12-2.647 1.33 1.33 0 0 0-.209-.24.6.6 0 0 0-.053-.048l-.048-.033v-.247h.222c.051 0 .06 0 .087-.034l.527-.639a.6.6 0 0 0 .034-.047.4.4 0 0 0 0-.041v-.192h.057V6.796c0-.132-.046-.285-.181-.285H6.18c-.134 0-.181.153-.181.285v1.708l.037.05.546.593a.44.44 0 0 1 .159.06l.031.016H8.27l-.469.212a1.085 1.085 0 0 0-.463.344c0 .007-.01.009-.016.016l-.596.81-.232.316-.502.682-.455.619-.432.586a2.195 2.195 0 0 0-.23 1.839 2.68 2.68 0 0 0 .35.809c.02.027.042.046.063.071a1.257 1.257 0 0 0 1.012.514.937.937 0 0 0 .786-.431l.061-.083.468-.638.072.193a1.31 1.31 0 0 0 .222.37c.029.039.06.067.09.101a1.67 1.67 0 0 0 .208.206 1.204 1.204 0 0 0 .777.282.933.933 0 0 0 .785-.431l.59-.8.071.193a.74.74 0 0 0 .192.343l.027.027a1.221 1.221 0 0 0 .902.59h.111a.937.937 0 0 0 .786-.432l.499-.676.089.121a1.1 1.1 0 0 1 .062.101.58.58 0 0 0 .145.192l.028.024a1.279 1.279 0 0 0 1.076.59.877.877 0 0 0 .504-.172 1.1 1.1 0 0 0 .282-.259ZM6.852 15.188a.693.693 0 0 1-.542.297h-.028a1.144 1.144 0 0 1-.829-.451 1.42 1.42 0 0 1-.259-.464 1.665 1.665 0 0 1-.041-.938 1.14 1.14 0 0 1 .178-.401.67.67 0 0 1 .125-.111.666.666 0 0 1 .432-.177 1.132 1.132 0 0 1 .848.521 1.665 1.665 0 0 1 .275.676 1.352 1.352 0 0 1-.159 1.048m8.902-5.763-.074.047a1.19 1.19 0 0 0-.367.324l-.496.675-.089-.12a1.3 1.3 0 0 1-.064-.101.57.57 0 0 0-.143-.191l-.029-.026a1.03 1.03 0 0 0-.263-.29l-.049-.034v-.485h1.873ZM6.359 8.017v-.936h11.136v.936Zm3.178 7.171a.691.691 0 0 1-.543.297h-.028a1.144 1.144 0 0 1-.828-.451 1.566 1.566 0 0 1-.318-1.244 1.38 1.38 0 0 1 .118-.392 1.16 1.16 0 0 1 .078-.167.685.685 0 0 1 .555-.284 1.132 1.132 0 0 1 .848.522 1.554 1.554 0 0 1 .118 1.719m.466-5.393-.53.722-.071-.195a1.31 1.31 0 0 0-.222-.368 1.4 1.4 0 0 0-.261-.286l-.049-.033v-.411h2.085l-.47.212a1.05 1.05 0 0 0-.483.359Zm2.221 5.393a.804.804 0 0 1-.614.282.955.955 0 0 1-.732-.444 1.677 1.677 0 0 1-.116-1.797.687.687 0 0 1 .555-.284 1.132 1.132 0 0 1 .848.522 1.614 1.614 0 0 1 .313.937 1.3 1.3 0 0 1-.255.784Zm.533-5.409-.011.017-.589.801-.071-.194a.744.744 0 0 0-.192-.343l-.026-.025a1.04 1.04 0 0 0-.266-.291l-.049-.033v-.487h2.305l-.639.222a.653.653 0 0 0-.462.333m2.091 5.41a.76.76 0 0 1-.202.18.655.655 0 0 1-.342.117h-.027a1.147 1.147 0 0 1-.829-.45 1.681 1.681 0 0 1-.121-1.804.684.684 0 0 1 .555-.284.89.89 0 0 1 .487.172 1.48 1.48 0 0 1 .362.35 1.554 1.554 0 0 1 .117 1.718ZM1.302 11.603h4.411l.54-.733a.321.321 0 0 1 .174-.575.284.284 0 0 1 .188.083l.498-.677a1.4 1.4 0 0 0-.384-.06H1.302a.315.315 0 0 0-.301.327v1.308a.314.314 0 0 0 .301.327m3.619-1.308a.333.333 0 1 1-.302.327.315.315 0 0 1 .302-.327m-1.508 0a.333.333 0 1 1-.302.327.315.315 0 0 1 .302-.327m-1.508 0a.333.333 0 1 1-.301.327.315.315 0 0 1 .301-.327m5.819 5.289c-.016-.022-.024-.038-.039-.057H7.42l-.159.216a1.159 1.159 0 0 1-.965.519 1.512 1.512 0 0 1-1.257-.678c-.012-.018-.015-.039-.027-.057H2.508a1.411 1.411 0 0 1-1.507-1.306v1.634a1.574 1.574 0 0 0 1.507 1.634h5.427a.315.315 0 0 0 .302-.327v-1.111a1.73 1.73 0 0 1-.513-.467M2.81 16.835a.333.333 0 1 1 .301-.333.315.315 0 0 1-.301.333m1.508 0a.333.333 0 1 1 .301-.333.315.315 0 0 1-.301.333m1.506 0a.333.333 0 1 1 .302-.333.315.315 0 0 1-.302.333m1.508 0a.333.333 0 1 1 .302-.333.315.315 0 0 1-.296.333ZM5.2 12.3l-3.44.81a.655.655 0 0 0-.462.777 1.443 1.443 0 0 0 1.71 1.195l1.646-.386a2.419 2.419 0 0 1 .264-2.019Zm-2.733 2.123a.303.303 0 0 1-.359-.251.333.333 0 0 1 .231-.389.303.303 0 0 1 .359.251.326.326 0 0 1-.231.389m1.473-.346a.304.304 0 0 1-.358-.251.333.333 0 0 1 .23-.388.303.303 0 0 1 .359.25.333.333 0 0 1-.231.389m18.787-.821a9.404 9.404 0 0 0-3.97-3.793 1.74 1.74 0 0 0-1.302-.191l-.044.053a.27.27 0 0 1-.175.111 2.2 2.2 0 0 1 .176.222 2.665 2.665 0 0 1 .12 2.91l-.121.164a11.2 11.2 0 0 0 .883.948 6.85 6.85 0 0 0 2.42 1.695.17.17 0 0 1 .118.222.183.183 0 0 1-.173.119.2.2 0 0 1-.057-.008 5.85 5.85 0 0 1-1.828-1.124c-.835.434-2.202.948-2.167 1.169.068.424-.199.658-.703.18s-.258-.732.189-.667c.235.034.778-1.279 1.239-2.07-.048-.055-.092-.111-.138-.166l-1.881 2.554a1.34 1.34 0 0 1-.321.311 4.44 4.44 0 0 0 .444.496c1.999 1.888 4.541 1.149 6.593-.793a6.44 6.44 0 0 0 .84-.978l.046-.063c.153-.262.104-.705-.188-1.301m-.6.896a7.21 7.21 0 0 1-2.494-1.739 8.05 8.05 0 0 1-1.822-2.356.174.174 0 0 1 .205-.222 2.6 2.6 0 0 1 .583.192 6.86 6.86 0 0 1 2.062 1.41 6.54 6.54 0 0 1 1.491 1.956 2.27 2.27 0 0 1 .205.556.178.178 0 0 1-.23.203"/></svg>