<?xml version="1.0" standalone="no"?>
<!DOCTYPE svg PUBLIC "-//W3C//DTD SVG 20010904//EN"
 "http://www.w3.org/TR/2001/REC-SVG-20010904/DTD/svg10.dtd">
<svg version="1.0" xmlns="http://www.w3.org/2000/svg"
 width="1024.000000pt" height="1024.000000pt" viewBox="0 0 1024.000000 1024.000000"
 preserveAspectRatio="xMidYMid meet">

<g transform="translate(0.000000,1024.000000) scale(0.100000,-0.100000)"
fill="#000000" stroke="none">
<path d="M1796 9681 c-3 -4 -36 -11 -73 -14 -74 -6 -123 -16 -253 -54 -396
-113 -754 -399 -968 -772 -88 -154 -139 -293 -183 -498 -32 -147 -32 -455 0
-608 23 -112 52 -216 76 -270 7 -16 16 -41 20 -55 13 -43 94 -199 142 -273
118 -183 289 -362 453 -477 27 -19 50 -41 50 -48 0 -6 -20 -67 -44 -135 -24
-67 -56 -162 -71 -212 -15 -49 -31 -101 -35 -115 -42 -119 -142 -586 -187
-870 -149 -958 -161 -1541 -41 -2025 20 -81 90 -303 107 -340 6 -11 23 -51 40
-90 110 -257 293 -535 508 -770 156 -171 325 -320 568 -503 16 -11 142 -94
235 -154 87 -56 194 -116 303 -172 34 -17 64 -34 65 -38 2 -5 8 -8 13 -8 6 0
58 -23 117 -51 157 -75 222 -103 327 -143 39 -15 84 -33 100 -40 17 -7 66 -26
110 -41 44 -15 89 -31 100 -35 47 -19 146 -51 235 -75 52 -15 118 -33 145 -41
48 -14 105 -27 260 -59 39 -8 81 -17 95 -20 14 -3 68 -13 120 -21 52 -9 104
-18 115 -20 11 -2 81 -11 155 -20 74 -9 146 -18 160 -19 250 -33 836 -33 1140
0 184 20 453 58 550 79 14 3 59 12 100 20 86 18 242 58 435 111 58 16 160 49
200 65 11 4 63 23 115 41 52 18 100 35 105 39 6 4 27 13 48 20 22 7 51 18 65
26 15 8 31 14 35 14 12 0 52 18 224 101 79 38 147 69 152 69 5 0 11 3 13 8 2
4 19 15 38 24 45 23 165 89 210 116 19 12 49 29 65 38 60 34 258 168 380 258
234 173 560 498 691 691 265 387 401 717 478 1160 55 311 49 836 -14 1345 -43
354 -105 728 -158 960 -26 113 -89 352 -101 382 -5 12 -24 70 -41 128 -17 58
-35 114 -40 125 -23 51 -81 207 -78 209 1 1 19 13 38 26 68 46 236 188 290
246 53 56 180 217 180 228 0 3 12 22 26 43 84 123 170 339 215 543 21 92 23
131 23 320 0 232 -15 342 -68 501 -60 183 -132 319 -247 474 -106 141 -198
232 -354 351 -99 74 -123 89 -255 155 -149 73 -193 90 -350 130 -133 35 -422
61 -443 40 -6 -6 -31 -11 -55 -11 -49 0 -279 -46 -296 -59 -6 -4 -24 -11 -41
-15 -49 -12 -294 -129 -305 -146 -3 -4 -16 -13 -30 -20 -130 -67 -349 -292
-485 -497 -26 -40 -51 -73 -55 -73 -3 0 -33 13 -66 29 -32 15 -70 32 -84 36
-14 4 -29 11 -35 15 -5 4 -28 13 -50 20 -22 7 -44 16 -50 20 -5 4 -53 22 -105
39 -52 18 -104 36 -115 41 -38 17 -169 52 -405 109 -76 18 -168 35 -255 47
-16 2 -41 6 -55 9 -98 20 -413 40 -625 40 -198 0 -500 -20 -605 -40 -14 -3
-41 -7 -60 -9 -62 -8 -344 -65 -395 -80 -11 -3 -42 -10 -70 -16 -27 -6 -59
-15 -70 -20 -11 -4 -67 -22 -125 -40 -58 -17 -119 -38 -137 -46 -17 -8 -37
-14 -45 -14 -7 0 -25 -6 -40 -14 -14 -8 -43 -19 -65 -26 -21 -7 -42 -16 -48
-20 -5 -4 -21 -11 -35 -15 -14 -4 -53 -21 -88 -38 -34 -16 -64 -28 -65 -26 -2
2 -25 38 -51 79 -139 214 -302 377 -511 512 -92 59 -119 73 -250 125 -129 51
-243 82 -338 90 -37 3 -70 10 -73 14 -3 5 -59 9 -124 9 -65 0 -121 -4 -124 -9z
m3694 -876 c686 -63 1315 -290 1895 -684 286 -193 579 -457 781 -701 387 -468
624 -915 786 -1485 80 -283 174 -815 228 -1300 50 -443 43 -867 -20 -1177
-102 -498 -343 -914 -745 -1281 -253 -231 -619 -474 -955 -634 -150 -72 -145
-69 -250 -113 -41 -17 -84 -35 -95 -41 -91 -43 -540 -185 -710 -224 -310 -72
-432 -91 -855 -136 -132 -14 -679 -14 -825 0 -291 28 -516 61 -720 106 -66 15
-138 30 -160 35 -174 37 -616 180 -790 255 -16 8 -66 29 -110 48 -506 219
-992 547 -1283 866 -226 248 -339 427 -472 746 -58 141 -121 417 -140 620 -13
133 -13 528 0 696 28 362 119 991 187 1294 119 529 311 983 592 1400 372 551
894 1003 1520 1316 403 201 923 350 1371 393 200 19 568 19 770 1z"/>
<path d="M7135 7261 c-84 -27 -135 -96 -135 -182 0 -77 33 -122 132 -183 44
-27 101 -66 126 -87 26 -22 61 -50 77 -64 87 -71 181 -171 262 -280 29 -38 56
-74 60 -80 25 -32 63 -96 63 -105 0 -5 3 -10 8 -10 11 0 123 -228 137 -280 4
-14 13 -38 21 -55 20 -44 44 -147 60 -255 8 -52 19 -125 24 -163 18 -119 14
-176 -24 -402 -17 -97 -44 -205 -55 -219 -5 -6 -11 -24 -15 -41 -9 -38 -76
-178 -129 -270 -100 -174 -264 -362 -433 -494 -49 -39 -94 -75 -99 -79 -6 -5
-40 -25 -77 -46 -38 -21 -82 -56 -100 -79 -28 -35 -33 -50 -36 -106 -3 -58 0
-71 24 -108 30 -46 107 -93 152 -93 76 0 225 87 422 246 109 88 227 201 260
250 16 23 110 137 135 165 8 9 15 19 15 24 0 4 11 23 25 41 14 18 25 37 25 43
0 6 4 11 8 11 9 0 142 258 142 275 1 6 9 28 20 50 11 22 19 46 20 53 0 7 9 32
19 55 11 23 22 63 26 90 4 26 11 49 15 52 4 3 13 51 19 107 7 57 16 119 22
139 12 48 12 360 -1 446 -24 169 -40 253 -58 323 -30 114 -53 184 -63 195 -5
5 -9 15 -9 22 0 28 -138 313 -152 313 -4 0 -8 5 -8 10 0 15 -114 185 -140 210
-3 3 -14 18 -24 34 -40 63 -266 282 -371 360 -128 95 -151 110 -225 148 -54
27 -117 35 -165 19z"/>
<path d="M3378 6900 c-259 -31 -542 -155 -778 -344 -488 -390 -790 -985 -790
-1556 0 -457 231 -816 629 -976 89 -36 282 -74 377 -74 81 0 261 28 358 56
256 73 529 245 766 483 146 146 232 253 330 412 157 253 254 511 291 779 16
110 4 377 -20 472 -78 308 -238 515 -496 643 -195 97 -426 133 -667 105z"/>
<path d="M6697 6649 c-91 -22 -142 -98 -135 -205 4 -60 7 -67 47 -108 23 -24
63 -54 89 -66 43 -22 74 -41 126 -80 105 -79 226 -226 277 -337 53 -116 57
-127 64 -168 4 -22 11 -44 15 -50 14 -19 21 -99 20 -225 -1 -125 -5 -157 -34
-259 -60 -214 -230 -438 -431 -568 -153 -99 -175 -128 -175 -223 0 -58 15 -93
57 -132 62 -58 149 -73 221 -38 22 11 46 20 52 20 5 0 10 4 10 8 0 5 10 13 23
19 41 19 160 114 240 192 102 99 223 260 260 344 6 15 14 27 18 27 3 0 12 18
19 40 7 22 16 40 21 40 4 0 10 12 14 27 3 15 15 46 26 70 10 23 19 46 19 51 0
5 9 38 20 73 33 109 47 284 34 434 -13 141 -22 204 -34 220 -4 6 -11 28 -15
50 -8 46 -19 73 -88 213 -28 56 -54 102 -59 102 -4 0 -8 5 -8 11 0 9 -31 58
-80 123 -31 42 -202 213 -240 242 -23 16 -60 43 -84 61 -107 79 -209 111 -289
92z"/>
<path d="M6280 6007 c-61 -17 -126 -64 -198 -142 -78 -85 -127 -185 -154 -314
-21 -100 -21 -103 -3 -199 17 -94 33 -140 78 -231 32 -63 139 -175 210 -218
60 -37 65 -38 157 -38 119 0 164 19 269 115 61 56 142 185 156 250 4 19 12 41
19 49 15 19 15 283 0 302 -6 8 -14 30 -18 49 -16 92 -150 277 -242 333 -84 52
-187 69 -274 44z"/>
<path d="M4730 4350 c-203 -18 -297 -45 -367 -105 -58 -49 -83 -106 -83 -186
1 -117 44 -180 254 -367 201 -177 315 -269 374 -300 l53 -27 -3 -205 c-4 -241
-4 -242 -107 -293 -66 -32 -66 -32 -221 -32 -164 1 -229 13 -361 68 -167 69
-318 186 -429 332 -58 76 -84 102 -118 117 -108 48 -212 -30 -212 -159 0 -74
53 -155 190 -293 277 -279 592 -409 987 -410 180 0 392 34 439 71 7 6 32 0 65
-15 161 -72 526 -75 749 -5 213 67 390 163 535 291 86 76 193 195 226 253 90
156 -34 328 -193 266 -14 -5 -60 -52 -100 -103 -156 -195 -349 -326 -578 -389
-71 -20 -109 -24 -225 -24 -165 0 -222 16 -282 77 l-38 39 0 207 0 207 47 24
c93 47 532 434 587 518 40 60 55 115 48 181 -15 146 -137 230 -365 253 -144
14 -741 20 -872 9z"/>
</g>
</svg>
