<svg xmlns="http://www.w3.org/2000/svg" viewBox="0 0 24 24"><path fill="#44739e" d="M5.111 2.567a.5.5 0 0 1-.151.029 2.3 2.3 0 0 0-.525.112c-.82.234-1.562.827-2.006 1.6a3.3 3.3 0 0 0-.379 1.033c-.067.304-.067.943 0 1.26.047.232.108.447.157.559.015.034.033.085.042.114.027.09.195.413.294.566.245.38.599.751.939.989.056.039.104.085.104.099s-.042.139-.092.28a12 12 0 0 0-.219.678c-.087.247-.295 1.215-.388 1.803-.309 1.986-.334 3.194-.085 4.198.042.168.187.628.222.704.012.023.048.106.083.187a5.9 5.9 0 0 0 1.053 1.596c.323.354.673.663 1.177 1.043.033.022.294.194.487.319.181.116.402.24.628.356a.7.7 0 0 1 .135.079c.004.01.017.017.027.017.012 0 .12.047.242.105.326.156.461.214.678.297.081.031.174.068.208.083.035.014.136.054.228.085l.207.072c.097.04.302.106.487.156.108.031.244.068.3.085.1.029.218.056.539.122l.197.041c.029.006.141.027.249.044l.238.041c.022.004.168.023.322.042s.302.037.331.039c.518.069 1.733.069 2.363 0 .382-.041.939-.12 1.14-.164l.208-.041c.178-.037.501-.12.901-.23.12-.033.332-.102.415-.135l.238-.085c.108-.038.207-.072.218-.081a1 1 0 0 1 .099-.041 1 1 0 0 0 .135-.054.3.3 0 0 1 .072-.029c.025 0 .108-.037.465-.209.164-.079.304-.143.315-.143s.023-.007.027-.017a.3.3 0 0 1 .079-.05 10 10 0 0 0 .57-.319c.124-.07.534-.348.787-.535.485-.358 1.161-1.032 1.432-1.432.55-.802.832-1.486.991-2.404.114-.645.102-1.733-.029-2.788a22 22 0 0 0-.327-1.99c-.054-.234-.185-.73-.21-.792-.01-.025-.049-.145-.085-.265s-.072-.236-.082-.259a5 5 0 0 1-.162-.433c.002-.003.039-.027.079-.054.141-.096.489-.39.601-.51.11-.116.373-.45.373-.473 0-.006.025-.045.054-.089.174-.255.352-.703.445-1.125.044-.191.048-.272.048-.664 0-.481-.031-.709-.141-1.038a3.2 3.2 0 0 0-.512-.983 3.4 3.4 0 0 0-.734-.727 2.5 2.5 0 0 0-.528-.321 3 3 0 0 0-.726-.27c-.275-.072-.874-.126-.918-.083-.012.013-.064.023-.114.023-.101 0-.578.095-.613.122a.3.3 0 0 1-.085.031c-.102.025-.61.268-.633.303a.2.2 0 0 1-.062.041c-.269.139-.723.606-1.005 1.031a.8.8 0 0 1-.114.151c-.006 0-.068-.027-.137-.06-.066-.031-.145-.067-.174-.075s-.06-.023-.073-.031c-.01-.008-.058-.027-.103-.041s-.091-.034-.104-.042a2 2 0 0 0-.217-.081 5 5 0 0 1-.239-.085c-.079-.035-.35-.107-.839-.226a6 6 0 0 0-.529-.097 1 1 0 0 1-.114-.019c-.203-.041-.856-.083-1.295-.083-.411 0-1.037.042-1.254.083a1 1 0 0 1-.125.019c-.128.017-.713.135-.818.166l-.146.033a1 1 0 0 0-.145.041 7 7 0 0 1-.259.083 4 4 0 0 0-.284.096.3.3 0 0 1-.093.029.2.2 0 0 0-.083.029 1 1 0 0 1-.135.054 1 1 0 0 0-.099.041c-.01.008-.044.023-.073.031s-.11.044-.182.079a.7.7 0 0 1-.135.054l-.105-.164a3.5 3.5 0 0 0-1.06-1.061 2.3 2.3 0 0 0-.518-.259 2.6 2.6 0 0 0-.7-.187.5.5 0 0 1-.152-.029c-.006-.01-.122-.018-.257-.018s-.251.008-.257.018m7.657 1.816a8.2 8.2 0 0 1 3.928 1.418c.593.4 1.2.947 1.619 1.453.802.97 1.293 1.896 1.629 3.078.166.586.36 1.689.472 2.694.104.919.09 1.797-.041 2.44-.211 1.032-.711 1.894-1.544 2.655a8.7 8.7 0 0 1-1.98 1.314c-.311.149-.3.143-.518.234-.085.036-.174.073-.197.085-.188.09-1.119.384-1.471.465-.643.149-.896.188-1.773.282-.273.029-1.407.029-1.71 0a12 12 0 0 1-1.492-.22l-.332-.073a13 13 0 0 1-1.637-.528c-.033-.017-.137-.06-.228-.1-1.049-.454-2.056-1.133-2.66-1.795-.468-.514-.702-.885-.978-1.546-.12-.292-.251-.864-.29-1.285a13 13 0 0 1 0-1.443c.058-.75.247-2.054.388-2.682.246-1.096.644-2.037 1.227-2.902.771-1.142 1.853-2.079 3.15-2.727a8.6 8.6 0 0 1 2.842-.815 11 11 0 0 1 1.596-.002"/><path fill="#44739e" d="M16.178 7.583a.386.386 0 0 0-.28.377c0 .16.068.253.273.38.092.056.21.137.262.18.053.046.126.104.159.133.181.147.375.354.543.58l.125.166c.051.066.13.199.13.218 0 .01.006.02.017.02.023 0 .255.473.284.581a2.5 2.5 0 0 1 .168.642c.016.108.039.259.049.338.038.247.029.365-.049.833-.036.201-.092.425-.114.454a.3.3 0 0 0-.031.085 4 4 0 0 1-.268.56c-.207.361-.547.75-.897 1.024l-.206.164c-.012.01-.082.051-.159.095a.8.8 0 0 0-.207.164c-.058.072-.069.103-.075.219-.006.121 0 .148.05.224.062.096.221.193.315.193.157 0 .466-.18.874-.51.226-.182.471-.416.539-.518a9 9 0 0 1 .28-.342c.017-.019.031-.039.031-.05 0-.008.023-.047.052-.085s.052-.076.052-.089.008-.023.017-.023c.018 0 .294-.534.294-.57.002-.012.018-.058.041-.103s.04-.096.042-.11c0-.015.018-.067.039-.114a.8.8 0 0 0 .054-.187c.008-.054.023-.101.031-.108s.027-.105.04-.221a3 3 0 0 1 .045-.288c.025-.1.025-.747-.002-.925a6 6 0 0 0-.12-.669c-.062-.237-.11-.382-.131-.405a.1.1 0 0 1-.018-.045c0-.058-.286-.649-.315-.649-.009 0-.017-.01-.017-.021 0-.031-.236-.383-.29-.435l-.05-.07c-.083-.131-.551-.585-.769-.747-.265-.197-.313-.228-.466-.306a.47.47 0 0 0-.342-.04m-7.788.748c-.537.065-1.123.322-1.612.714-1.012.808-1.638 2.041-1.638 3.225 0 .947.479 1.691 1.304 2.023.184.074.585.153.781.153.168 0 .541-.058.742-.116.531-.151 1.097-.508 1.588-1.001.303-.303.481-.525.684-.854a4.1 4.1 0 0 0 .603-1.615 3.8 3.8 0 0 0-.041-.978c-.162-.639-.493-1.068-1.028-1.333a2.46 2.46 0 0 0-1.383-.218"/><path fill="#44739e" d="M15.27 8.852c-.189.045-.295.203-.28.425.008.124.014.139.097.224a.8.8 0 0 0 .185.136c.089.046.153.085.261.166.218.164.468.469.574.699.11.24.118.263.133.348a.4.4 0 0 0 .031.104c.029.039.043.205.041.466-.002.259-.01.325-.07.537-.124.443-.477.908-.893 1.177-.318.205-.363.265-.363.462 0 .12.031.193.118.274a.41.41 0 0 0 .458.079.4.4 0 0 1 .108-.042c.01 0 .021-.008.021-.016 0-.011.02-.027.047-.04.085-.039.332-.236.498-.398.211-.205.462-.539.539-.713.012-.031.029-.056.037-.056.006 0 .025-.037.039-.083s.033-.083.044-.083c.008 0 .021-.024.029-.056a1 1 0 0 1 .054-.145c.02-.047.039-.095.039-.105s.019-.079.042-.152c.068-.226.097-.588.07-.899-.027-.292-.046-.423-.07-.456a.4.4 0 0 1-.032-.104c-.016-.095-.039-.151-.182-.441a1 1 0 0 0-.122-.212q-.015-.002-.017-.023c0-.018-.064-.12-.166-.255a6 6 0 0 0-.497-.501 5 5 0 0 1-.174-.127c-.222-.163-.433-.23-.599-.19"/><path fill="#44739e" d="M14.405 10.182q-.188.053-.41.295a1.3 1.3 0 0 0-.319.651c-.044.207-.044.213-.006.412.035.195.068.29.161.479.067.13.288.363.436.452.124.076.134.079.325.079.247 0 .34-.04.558-.239.126-.116.294-.383.323-.518a.3.3 0 0 1 .039-.102c.031-.039.031-.586 0-.626a.3.3 0 0 1-.037-.101c-.033-.191-.311-.574-.502-.69a.73.73 0 0 0-.568-.092m-3.212 3.435c-.421.037-.616.093-.761.218a.46.46 0 0 0-.172.385c.002.243.091.373.526.761.417.367.653.557.776.622l.109.056-.006.425c-.008.499-.008.501-.222.607-.136.066-.136.066-.458.066-.34-.002-.474-.027-.748-.141a2.17 2.17 0 0 1-.889-.688c-.12-.157-.174-.211-.245-.242-.224-.1-.439.062-.439.329 0 .154.11.321.394.607.574.579 1.227.848 2.046.85.373 0 .812-.07.909-.147.015-.012.067 0 .135.031.334.149 1.09.156 1.553.011a3 3 0 0 0 1.109-.604c.178-.157.4-.404.468-.524.187-.323-.07-.68-.4-.551-.029.01-.124.107-.207.213a2.3 2.3 0 0 1-1.198.806c-.147.042-.226.05-.467.05-.342 0-.46-.033-.584-.159l-.079-.081v-.858l.097-.05c.193-.097 1.103-.9 1.217-1.074a.54.54 0 0 0 .1-.375q-.047-.454-.757-.524a21 21 0 0 0-1.807-.019"/></svg>