<svg xmlns="http://www.w3.org/2000/svg" viewBox="0 0 24 24"><path fill="#44739e" d="M14 9.445a2.23 2.23 0 0 1-4.188-.555l.27-.275h1.015a.915.915 0 0 0 .732.733v.717h.763a.888.888 0 0 0 .515-1.613.889.889 0 0 0-.515-1.616h-.819a.916.916 0 0 0-.646.264L9.771 8.466v-.007a2.229 2.229 0 0 1 4.234-.972h.36a2.559 2.559 0 0 0-4.926.973 2.5 2.5 0 0 0 .02.32l-1.275 1.275h.463l.891-.89a2.56 2.56 0 0 0 4.821.28Zm-2.166-.431a.582.582 0 0 1 0-1.116Zm.33-1.116a.6.6 0 0 1 .143.064h.458a.917.917 0 0 0-.601-.403v-.39h.434a.564.564 0 1 1 0 1.123h-.434Zm0 .722h.434a.564.564 0 1 1 0 1.12h-.434v-.389a.912.912 0 0 0 .601-.397h-.458a.6.6 0 0 1-.143.064Zm-.8-1.282a.592.592 0 0 1 .415-.169h.056v.392a.91.91 0 0 0-.731.731h-.694ZM5.21 12.483h-.654V15.5h2.2l.077-.634H5.21Zm5.566 0-.076.628h.972V15.5h.655v-2.389h.975l-.076-.628Zm5.248 0v1.719a.692.692 0 1 1-1.382 0v-1.699h-.651v1.699a1.343 1.343 0 0 0 2.685 0v-1.72h-.652Zm-7.31-.052a1.558 1.558 0 1 0 1.556 1.557 1.558 1.558 0 0 0-1.556-1.557m0 2.492a.938.938 0 1 1 .937-.937.938.938 0 0 1-.937.937m10.571-1.043a4.5 4.5 0 0 0-.541-.163 2.37 2.37 0 0 1-.472-.149.243.243 0 0 1-.155-.225.289.289 0 0 1 .134-.25.72.72 0 0 1 .414-.095 1.57 1.57 0 0 1 .801.236l.207-.528a1.58 1.58 0 0 0-.463-.197 2.17 2.17 0 0 0-.54-.068 1.625 1.625 0 0 0-.67.124.925.925 0 0 0-.412.339.86.86 0 0 0-.135.474.725.725 0 0 0 .15.48.88.88 0 0 0 .361.262 4.5 4.5 0 0 0 .541.163c.142.034.256.066.339.094a.6.6 0 0 1 .206.113.226.226 0 0 1 .081.178.269.269 0 0 1-.136.234.79.79 0 0 1-.421.088 1.6 1.6 0 0 1-.512-.086 1.55 1.55 0 0 1-.441-.226l-.069-.056-.077.637a1.67 1.67 0 0 0 .432.193 2.28 2.28 0 0 0 .663.097 1.64 1.64 0 0 0 .676-.125.936.936 0 0 0 .415-.338.846.846 0 0 0 .138-.471.71.71 0 0 0-.151-.476.89.89 0 0 0-.363-.259M12 1a11 11 0 1 0 11 11A11 11 0 0 0 12 1m7.959 15.449s-1.991 1.588-7.938 1.588-7.982-1.588-7.982-1.588a2.995 2.995 0 0 1-1.27-2.111 3 3 0 0 1-.021-.353 2.978 2.978 0 0 1 .626-1.833s4.827-5.68 5.985-6.819a3.723 3.723 0 0 1 5.272 0c1.15 1.151 5.99 6.82 5.99 6.82a2.982 2.982 0 0 1 .625 1.832 3.05 3.05 0 0 1-.026.398 2.998 2.998 0 0 1-1.261 2.066"/></svg>