<svg xmlns="http://www.w3.org/2000/svg" viewBox="0 0 24 24"><path fill="#44739e" d="M22.724 12.298a10.165 10.165 0 0 0-4.188-4.219 1.706 1.706 0 0 0-1.403-.204c-.037.023-.07.047-.108.07a7.45 7.45 0 0 0-.949.746 20.05 20.05 0 0 0-.897 5.598.864.864 0 0 1-.216.604l-.342.389h-.027a5.1 5.1 0 0 0 .44.501c2.108 2.105 4.79 1.28 6.956-.882a7.23 7.23 0 0 0 .888-1.087 1 1 0 0 0 .045-.072 1.72 1.72 0 0 0-.199-1.444m-1.999 2.603a.19.19 0 0 1-.182.132.17.17 0 0 1-.058-.009 6.09 6.09 0 0 1-1.929-1.25c-.881.484-2.323 1.056-2.287 1.302.071.472-.216.731-.741.2s-.273-.814.199-.744c.246.038.822-1.422 1.308-2.302a7.4 7.4 0 0 1-1.224-1.876.192.192 0 1 1 .36-.136 8.81 8.81 0 0 0 1.877 2.555 7.23 7.23 0 0 0 2.556 1.886.189.189 0 0 1 .121.242m1.368-1.605a7.59 7.59 0 0 1-2.631-1.934 8.95 8.95 0 0 1-1.923-2.623.19.19 0 0 1 .216-.25 2.6 2.6 0 0 1 .617.211 7.27 7.27 0 0 1 2.178 1.573 7.24 7.24 0 0 1 1.571 2.175 2.6 2.6 0 0 1 .216.624.191.191 0 0 1-.244.224M8.625 7.92l.125.035a12.7 12.7 0 0 0 3.41.386 12.74 12.74 0 0 0 3.41-.385l.152-.084.057-.108c.294-.554 1.08-2.027.095-2.895-.864-.765-2.867-.835-3.739-.824-.817-.011-2.823.059-3.688.825-.982.863-.198 2.341.119 2.943Zm.24-2.712a6.01 6.01 0 0 1 3.325-.673 5.845 5.845 0 0 1 3.264.673c.621.551.119 1.619-.186 2.199a12.58 12.58 0 0 1-3.108.333 12.58 12.58 0 0 1-3.108-.329c-.264-.502-.82-1.639-.187-2.203m5.739 9.717a.648.648 0 0 0 .159-.449 20.25 20.25 0 0 1 .997-5.949 17.8 17.8 0 0 1-3.591.352 17.8 17.8 0 0 1-3.594-.357 20.19 20.19 0 0 1 1.003 5.949.648.648 0 0 0 .163.449l.283.324a18.1 18.1 0 0 0 2.148.122 18.1 18.1 0 0 0 2.152-.122Zm-3.601 4.192-.174.174a4.556 4.556 0 0 0 2.682-.26l-.088-.086a4.62 4.62 0 0 1-2.42.172m.603.774a2.116 2.116 0 0 0 1.039 0c0-.086.173-.259.259-.345h-1.557a1.2 1.2 0 0 1 .259.345m.566-3.877c-.53 0-1.274-.023-1.943-.09l.324 2.015a.594.594 0 0 0 .193.372h2.853a.583.583 0 0 0 .197-.372l.324-2.015c-.677.067-1.418.09-1.948.09m-1.17 2.582-.174.173a5.425 5.425 0 0 0 2.683-.173 8.14 8.14 0 0 1-2.509 0m-.724-3.028h.01a.379.379 0 0 0-.323-.188H3.163a1.71 1.71 0 0 1-1.898-1.511v1.89a1.89 1.89 0 0 0 1.89 1.89h6.802a.378.378 0 0 0 .324-.192l-.311-1.918Zm-6.746 1.326a.379.379 0 1 1 .379-.378.378.378 0 0 1-.379.378m1.892 0a.379.379 0 1 1 .378-.378.379.379 0 0 1-.377.378Zm1.89 0a.379.379 0 1 1 .378-.378.378.378 0 0 1-.381.378Zm1.89 0a.379.379 0 1 1 .378-.378.378.378 0 0 1-.376.378ZM1.378 8.642A.378.378 0 0 0 1 9.02v1.511a.378.378 0 0 0 .378.378h6.801a2.5 2.5 0 0 1 .568.062 20.1 20.1 0 0 0-.598-2.33Zm.756 1.511a.379.379 0 1 1 .377-.379.379.379 0 0 1-.376.38Zm1.89 0a.379.379 0 1 1 .378-.379.379.379 0 0 1-.379.38Zm1.89 0a.379.379 0 1 1 .378-.379.379.379 0 0 1-.377.38Zm1.891 0a.379.379 0 1 1 .378-.379.379.379 0 0 1-.381.38Zm-.189 1.231-5.599 1.207a.756.756 0 0 0-.579.898 1.811 1.811 0 0 0 2.151 1.389l5.564-1.203a20.1 20.1 0 0 0-.216-2.066 1.798 1.798 0 0 0-1.321-.225m-4.715 2.731a.379.379 0 1 1 .289-.449.381.381 0 0 1-.289.449m1.847-.399a.379.379 0 1 1 .29-.451.379.379 0 0 1-.285.451Zm1.847-.401a.378.378 0 1 1 .29-.45.379.379 0 0 1-.285.45Zm1.85-.399a.378.378 0 1 1 .289-.449.38.38 0 0 1-.285.449ZM5.422 5.677"/></svg>