<svg xmlns="http://www.w3.org/2000/svg" fill="#44739e" viewBox="0 0 24 24"><path d="M13.68 15.873a12.32 12.32 0 0 1 .241-2.968c.228-.854 1.818-1.536 1.976-4.58 0-.039-.014-.282.1-.374.081-.066.169-.047.241-.121a.35.35 0 0 0 .038-.108 70.8 70.8 0 0 0-9.55.024.1.1 0 0 0 .041.1c.03.025.216 0 .267.065a.416.416 0 0 1 .061.275c.11 2.576 1.345 3.238 2.006 4.624a31 31 0 0 1 .337 3.147 2.09 2.09 0 0 0 .848.561v.459a.242.242 0 0 0-.16.122l.008.555a.681.681 0 0 0 .957.01v-.6a.152.152 0 0 0-.132-.1l-.006-.4h1.253v.41a.332.332 0 0 0-.167.13l.012.534a.667.667 0 0 0 .941 0l.014-.015c.008-.011-.011-.552-.011-.552a.156.156 0 0 0-.132-.1v-.481c.379-.031.768-.553.817-.617m-4.539-4.567a.115.115 0 0 1-.111.119.114.114 0 0 1-.118-.1.06.06 0 0 1 0-.019V10.7h.229zm1.174 0a.1154.1154 0 0 1-.229.029V10.7h.229zm-.229-.779v-.06c0-.331-.155-.513-.439-.513a.52.52 0 0 0-.509.531v.039h-.232V9.283a.114.114 0 0 1 .1-.124.116.116 0 0 1 .124.1.06.06 0 0 1 0 .019v.863l.03-.061a.57.57 0 0 1 .542-.308c.388 0 .6.248.6.7v.053zm.7-.615a.114.114 0 1 1 .228 0v.615h-.228zm1.4 1.4a.116.116 0 0 1-.109.121.114.114 0 0 1-.12-.1v-.2a.567.567 0 0 1-.537.321c-.418 0-.63-.229-.63-.678V10.7h.228v.062c0 .345.153.513.469.513a.493.493 0 0 0 .467-.518V10.7h.229zm0-1.4v.615h-.233v-.615a.114.114 0 0 1 .11-.12.116.116 0 0 1 .119.1.1.1 0 0 1 0 .019zm.467.812v-.035h-.146a.085.085 0 1 1-.025-.168h.025v.007h.146a.784.784 0 0 1 .81-.751.709.709 0 0 1 .737.678.64.64 0 0 1-.006.124v.013a.1.1 0 0 1-.1.1h-1.217a.584.584 0 0 0 .591.576h.058a.88.88 0 0 0 .351-.061c.024-.008.049-.017.08-.025a.108.108 0 0 1 .093 0 .075.075 0 0 1 .033.053.1.1 0 0 1-.064.1 1.15 1.15 0 0 1-.513.1.79.79 0 0 1-.858-.715zm1.322-.203a.507.507 0 0 0-.433-.568.4.4 0 0 0-.083 0 .569.569 0 0 0-.582.556v.023h1.1zm2.331-2.949a1.01 1.01 0 0 0 0-.506 84.4 84.4 0 0 0-9.558.017c-.048 0-.05.491 0 .489a76.6 76.6 0 0 1 9.558 0m-4.855-.846c1.347 0 2.709.025 4.053.08l.365.015-.288-.221c-1.018-.794-2.7-.785-3.938-.778H11.5c-1.983-.007-3.333.254-4.018.776l-.3.226.372-.015c1.292-.056 2.604-.082 3.897-.083m.045-.675h.148a7.72 7.72 0 0 1 3.44.5 106 106 0 0 0-3.557-.061h-.076c-1.142 0-2.3.021-3.442.06a8.89 8.89 0 0 1 3.491-.499Zm2.895 8.891c.257.039.859-1.486 1.366-2.4-.252-.3-.483-.6-.68-.889a8.2 8.2 0 0 1-.5.654 2.38 2.38 0 0 0-.483.742 12.1 12.1 0 0 0-.219 2.139c.012-.2.225-.288.516-.246m7.315-2.336a10.634 10.634 0 0 0-4.38-4.406 2.99 2.99 0 0 0-.892-.284.6.6 0 0 1-.044.106l-.012.021-.017.017a.45.45 0 0 1-.206.117.15.15 0 0 0-.05.02s-.029.037-.026.208v.025a6.23 6.23 0 0 1-.77 2.848 11.93 11.93 0 0 0 1.508 1.822 7.52 7.52 0 0 0 2.669 1.97.2.2 0 0 1-.062.391.2.2 0 0 1-.061-.008 6.38 6.38 0 0 1-2.016-1.306c-.921.5-2.427 1.1-2.39 1.36.075.493-.219.764-.775.209a.908.908 0 0 1-.3-.5c0 .246-.025.492-.015.737v.074l-.061.073c-.042.054-.085.1-.127.152 2.2 2.19 5 1.327 7.26-.929a7.6 7.6 0 0 0 .928-1.136c.017-.025.033-.05.048-.076a1.8 1.8 0 0 0-.209-1.505m-.66 1.042a7.89 7.89 0 0 1-2.749-2.02 9.35 9.35 0 0 1-2.01-2.74.2.2 0 0 1 .123-.255.2.2 0 0 1 .105-.007 2.76 2.76 0 0 1 .641.224 7.58 7.58 0 0 1 2.275 1.644 7.58 7.58 0 0 1 1.642 2.273 2.78 2.78 0 0 1 .225.652.2.2 0 0 1-.159.234.2.2 0 0 1-.1-.005zM9.281 16.184l-.047-.047V16.1a.347.347 0 0 1-.044-.648c-.018-.244-.04-.487-.064-.731H3.751a1.58 1.58 0 0 1-1.745-1.394v1.739a1.746 1.746 0 0 0 1.745 1.745h6.281a.4.4 0 0 0 .048 0v-.064a2.32 2.32 0 0 1-.799-.563M4.1 16.113a.349.349 0 1 1 .349-.349.349.349 0 0 1-.349.349m1.745 0a.349.349 0 1 1 .349-.349.349.349 0 0 1-.349.349m1.745 0a.349.349 0 1 1 .349-.349.349.349 0 0 1-.349.349m-5.24-3.152a1.671 1.671 0 0 0 1.984 1.282l4.607-1c-.014-.094-.026-.189-.041-.282a5.3 5.3 0 0 0-.33-.574.342.342 0 0 1-.166-.226v-.021l-.188-.264c-.18-.25-.361-.5-.53-.783l-4.8 1.044a.7.7 0 0 0-.536.824m4.616-.841a.348.348 0 1 1-.267.414.348.348 0 0 1 .267-.414m-1.7.367A.349.349 0 1 1 5 12.9a.349.349 0 0 1 .267-.416Zm-1.706.369a.35.35 0 1 1-.268.416.351.351 0 0 1 .263-.416Zm-1.205-2.327h5.027A5.73 5.73 0 0 1 6.9 8.437H2.355a.348.348 0 0 0-.349.348v1.395a.349.349 0 0 0 .349.349m4.188-1.392a.349.349 0 1 1-.349.349.348.348 0 0 1 .349-.349m-1.745 0a.349.349 0 1 1-.349.349.348.348 0 0 1 .351-.349Zm-1.745 0a.349.349 0 1 1-.349.349.348.348 0 0 1 .348-.348Z"/></svg>