<svg xmlns="http://www.w3.org/2000/svg" viewBox="0 0 24 24"><path fill="#44739e" d="M13.849 16.441a13.56 13.56 0 0 1 .265-3.267c.251-.94 2.001-1.69 2.175-5.041 0-.043-.015-.31.11-.411.089-.073.186-.052.265-.133a.39.39 0 0 0 .042-.119 77.9 77.9 0 0 0-10.511.026.11.11 0 0 0 .045.11c.033.028.238 0 .294.072a.458.458 0 0 1 .067.302c.121 2.836 1.481 3.564 2.208 5.09a34.1 34.1 0 0 1 .371 3.464 2.3 2.3 0 0 0 .933.617v.505a.266.266 0 0 0-.176.134l.009.611a.75.75 0 0 0 1.053.011v-.66a.167.167 0 0 0-.145-.11l-.006-.44h1.379v.451a.365.365 0 0 0-.184.143l.013.588a.734.734 0 0 0 1.036 0l.015-.017c.009-.012-.012-.607-.012-.607a.172.172 0 0 0-.145-.11v-.53c.417-.034.845-.609.899-.679m-4.996-5.027a.127.127 0 0 1-.122.131.125.125 0 0 1-.13-.11.07.07 0 0 1 0-.021v-.667h.252Zm1.292 0a.127.127 0 0 1-.252.032v-.699h.252Zm-.252-.857v-.066c0-.364-.17-.565-.483-.565a.572.572 0 0 0-.56.585v.043h-.256V9.188a.125.125 0 0 1 .111-.137.128.128 0 0 1 .136.11.07.07 0 0 1 0 .021v.95l.033-.067a.627.627 0 0 1 .597-.339c.427 0 .66.273.66.77v.059Zm.771-.677a.125.125 0 1 1 .251 0v.677h-.251Zm1.541 1.541a.128.128 0 0 1-.12.133.125.125 0 0 1-.132-.11v-.22a.624.624 0 0 1-.591.353c-.461 0-.694-.252-.694-.746v-.084h.251v.069c0 .379.168.564.516.564a.543.543 0 0 0 .514-.57v-.063h.252Zm0-1.541v.677h-.257V9.88a.125.125 0 0 1 .121-.132.128.128 0 0 1 .131.11.1.1 0 0 1 0 .021Zm.514.894v-.039h-.161a.094.094 0 1 1-.028-.185h.028v.008h.161a.863.863 0 0 1 .891-.827.78.78 0 0 1 .811.747.7.7 0 0 1-.006.136v.015a.11.11 0 0 1-.11.11h-1.34a.643.643 0 0 0 .651.634h.063a.97.97 0 0 0 .387-.068c.026-.008.054-.018.088-.027a.119.119 0 0 1 .102 0 .083.083 0 0 1 .037.058.11.11 0 0 1-.071.11 1.266 1.266 0 0 1-.565.11.87.87 0 0 1-.944-.787Zm1.455-.224a.558.558 0 0 0-.477-.625.44.44 0 0 0-.091 0 .626.626 0 0 0-.641.612v.025h1.211Zm2.565-3.245a1.11 1.11 0 0 0 0-.557 92.9 92.9 0 0 0-10.52.018c-.053 0-.055.541 0 .539a84.3 84.3 0 0 1 10.52 0m-5.343-.932c1.482 0 2.981.028 4.461.088l.401.017-.317-.243c-1.12-.874-2.971-.864-4.334-.857h-.157c-2.183-.007-3.669.28-4.423.855l-.33.248.409-.016c1.422-.062 2.866-.09 4.29-.092m.049-.743h.163a8.5 8.5 0 0 1 3.786.551 117 117 0 0 0-3.915-.067h-.083c-1.257 0-2.532.023-3.789.066a9.785 9.785 0 0 1 3.843-.55Zm3.187 9.786c.282.043.945-1.635 1.503-2.641-.277-.33-.532-.661-.748-.979a9 9 0 0 1-.551.72 2.62 2.62 0 0 0-.531.817 13.3 13.3 0 0 0-.241 2.354c.013-.22.247-.317.568-.271m8.051-2.571a11.704 11.704 0 0 0-4.821-4.849 3.29 3.29 0 0 0-.982-.313.66.66 0 0 1-.048.117l-.013.023-.019.019a.495.495 0 0 1-.227.128.17.17 0 0 0-.055.022s-.032.041-.029.229v.028a6.86 6.86 0 0 1-.847 3.135 13.13 13.13 0 0 0 1.66 2.005 8.28 8.28 0 0 0 2.937 2.168.22.22 0 0 1-.068.431.22.22 0 0 1-.067-.009 7.02 7.02 0 0 1-2.219-1.438c-1.014.551-2.671 1.211-2.63 1.497.082.543-.242.841-.853.23a1 1 0 0 1-.331-.55c0 .271-.027.541-.016.811v.082l-.067.08c-.047.059-.094.11-.14.167 2.421 2.411 5.503 1.461 7.991-1.022a8.37 8.37 0 0 0 1.021-1.251c.019-.027.036-.055.053-.083a1.981 1.981 0 0 0-.23-1.657m-.727 1.147a8.68 8.68 0 0 1-3.025-2.223 10.29 10.29 0 0 1-2.213-3.016.22.22 0 0 1 .136-.281.22.22 0 0 1 .115-.007 3.04 3.04 0 0 1 .706.246 8.34 8.34 0 0 1 2.504 1.81 8.34 8.34 0 0 1 1.807 2.501 3.06 3.06 0 0 1 .248.718.22.22 0 0 1-.175.258.22.22 0 0 1-.11-.006ZM9.007 16.783l-.052-.051v-.041a.382.382 0 0 1-.048-.713c-.02-.269-.044-.536-.07-.805H2.921A1.739 1.739 0 0 1 1 13.639v1.914a1.922 1.922 0 0 0 1.921 1.92h6.913a.4.4 0 0 0 .053 0v-.07a2.55 2.55 0 0 1-.88-.62m-5.702-.078a.384.384 0 1 1 .384-.384.384.384 0 0 1-.384.384m1.92 0a.384.384 0 1 1 .385-.384.384.384 0 0 1-.385.384m1.921 0a.384.384 0 1 1 .384-.384.384.384 0 0 1-.384.384m-5.767-3.469a1.839 1.839 0 0 0 2.183 1.411l5.071-1.101c-.015-.103-.029-.208-.045-.31a5.8 5.8 0 0 0-.363-.632.376.376 0 0 1-.183-.249v-.023l-.207-.29c-.198-.275-.397-.551-.583-.862l-5.283 1.149a.77.77 0 0 0-.59.907m5.08-.926a.383.383 0 1 1-.294.456.383.383 0 0 1 .294-.456m-1.871.404a.384.384 0 1 1-.293.455.384.384 0 0 1 .294-.458Zm-1.878.406a.385.385 0 1 1-.295.458.386.386 0 0 1 .29-.458Zm-1.326-2.561h5.533a6.31 6.31 0 0 1-.53-2.302H1.384A.383.383 0 0 0 1 8.64v1.535a.384.384 0 0 0 .384.384m4.61-1.532a.384.384 0 1 1-.384.384.383.383 0 0 1 .384-.384m-1.921 0a.384.384 0 1 1-.384.384.383.383 0 0 1 .386-.384Zm-1.921 0a.384.384 0 1 1-.384.384.383.383 0 0 1 .383-.383Z"/></svg>