<svg xmlns="http://www.w3.org/2000/svg" fill="#44739e" viewBox="0 0 24 24"><path d="M21.906 12.1668a9.415 9.415 0 0 0-3.879-3.908 1.58 1.58 0 0 0-1.3-.189c-.034.021-.065.043-.1.065a6.9 6.9 0 0 0-.879.691 18.57 18.57 0 0 0-.831 5.185.8.8 0 0 1-.2.559l-.317.361h-.025a4.7 4.7 0 0 0 .408.464c1.952 1.95 4.437 1.185 6.443-.817a6.7 6.7 0 0 0 .822-1.007 1 1 0 0 0 .042-.067 1.593 1.593 0 0 0-.184-1.337m-1.852 2.411a.176.176 0 0 1-.168.122.16.16 0 0 1-.054-.008 5.64 5.64 0 0 1-1.787-1.158c-.816.448-2.152.978-2.118 1.206.066.437-.2.677-.687.185s-.252-.754.185-.689c.228.035.761-1.317 1.211-2.132a6.86 6.86 0 0 1-1.133-1.738.178.178 0 1 1 .333-.126 8.16 8.16 0 0 0 1.739 2.367 6.7 6.7 0 0 0 2.367 1.747.175.175 0 0 1 .112.224m1.267-1.487a7.03 7.03 0 0 1-2.437-1.791 8.29 8.29 0 0 1-1.781-2.43.176.176 0 0 1 .2-.231 2.4 2.4 0 0 1 .572.195 6.73 6.73 0 0 1 2.017 1.457 6.71 6.71 0 0 1 1.455 2.015 2.42 2.42 0 0 1 .2.578.177.177 0 0 1-.226.207M8.846 8.111l.116.033a11.77 11.77 0 0 0 3.159.357 11.8 11.8 0 0 0 3.158-.356l.141-.078.053-.1c.272-.513 1-1.878.088-2.682-.8-.708-2.656-.773-3.463-.763-.757-.01-2.615.055-3.416.764-.91.8-.184 2.169.11 2.726zm.223-2.512a5.567 5.567 0 0 1 3.08-.623 5.414 5.414 0 0 1 3.023.623c.575.511.11 1.5-.172 2.037a11.65 11.65 0 0 1-2.879.309 11.65 11.65 0 0 1-2.879-.305c-.245-.465-.76-1.518-.173-2.041m5.316 9.001a.6.6 0 0 0 .147-.416 18.76 18.76 0 0 1 .923-5.51A16.5 16.5 0 0 1 12.129 9 16.5 16.5 0 0 1 8.8 8.669a18.7 18.7 0 0 1 .929 5.51.6.6 0 0 0 .151.416l.262.3a16.8 16.8 0 0 0 1.99.113 16.8 16.8 0 0 0 1.993-.113zm-3.336 3.883-.161.161a4.22 4.22 0 0 0 2.484-.241l-.081-.08a4.28 4.28 0 0 1-2.242.16m.559.717a1.96 1.96 0 0 0 .962 0c0-.08.16-.24.24-.32h-1.442a1.11 1.11 0 0 1 .24.32m.524-3.591c-.491 0-1.18-.022-1.8-.084l.3 1.867a.55.55 0 0 0 .179.344h2.643a.54.54 0 0 0 .182-.344l.3-1.867c-.627.062-1.313.084-1.804.084M11.048 18l-.161.16a5.025 5.025 0 0 0 2.485-.16 7.54 7.54 0 0 1-2.324 0m-.6708-2.8046h.01a.351.351 0 0 0-.3-.174h-6.3a1.584 1.584 0 0 1-1.758-1.4v1.751a1.751 1.751 0 0 0 1.751 1.751h6.3a.35.35 0 0 0 .3-.178l-.288-1.777zm-6.248 1.228a.351.351 0 1 1 .351-.35.35.35 0 0 1-.351.35m1.752 0a.351.351 0 1 1 .35-.35.351.351 0 0 1-.349.35zm1.751 0a.351.351 0 1 1 .35-.35.35.35 0 0 1-.353.35zm1.751 0a.351.351 0 1 1 .35-.35.35.35 0 0 1-.349.35zM2.1337 8.78a.35.35 0 0 0-.35.35v1.4a.35.35 0 0 0 .35.35h6.3a2.33 2.33 0 0 1 .526.057 18.6 18.6 0 0 0-.554-2.158zm.7 1.4a.351.351 0 1 1 .35-.351.351.351 0 0 1-.349.352zm1.751 0a.351.351 0 1 1 .35-.351.351.351 0 0 1-.351.352zm1.751 0a.351.351 0 1 1 .35-.351.351.351 0 0 1-.349.352zm1.751 0a.351.351 0 1 1 .35-.351.351.351 0 0 1-.353.352zm-.1752 1.14-5.186 1.118a.7.7 0 0 0-.536.832 1.677 1.677 0 0 0 1.992 1.286l5.154-1.114a18.6 18.6 0 0 0-.2-1.914 1.665 1.665 0 0 0-1.224-.208m-4.367 2.53a.351.351 0 1 1 .268-.416.353.353 0 0 1-.268.416m1.711-.37a.351.351 0 1 1 .268-.418.351.351 0 0 1-.264.418zm1.711-.371a.35.35 0 1 1 .268-.417.351.351 0 0 1-.264.417zm1.713-.37a.35.35 0 1 1 .268-.416.352.352 0 0 1-.264.416zM5.88 6.034"/></svg>