<svg xmlns="http://www.w3.org/2000/svg" viewBox="0 0 24 24"><path fill="#44739e" d="M22.62 10.672a.378.378 0 0 0-.379.38v1.896a.379.379 0 0 0 .759 0v-1.896a.379.379 0 0 0-.38-.38M17.9 9.204a.381.381 0 0 0-.38.38v4.836a.381.381 0 1 0 .76 0V9.58a.381.381 0 0 0-.38-.376m2.36-3.284a.381.381 0 0 0-.38.38v11.4a.381.381 0 0 0 .76 0V6.3a.381.381 0 0 0-.38-.38m-4.72.338a.381.381 0 0 0-.38.38v10.725a.379.379 0 1 0 .759 0V6.638a.379.379 0 0 0-.379-.38m-4.72 1.539a.381.381 0 0 0-.38.379v7.648a.379.379 0 0 0 .759 0V8.176a.379.379 0 0 0-.379-.379M8.46 9.336a.378.378 0 0 0-.379.379v4.57a.379.379 0 1 0 .759 0v-4.57a.379.379 0 0 0-.38-.379m4.72-5.517a.378.378 0 0 0-.379.38v15.602a.379.379 0 0 0 .759 0V4.199a.379.379 0 0 0-.38-.38M6.1 4.907a.381.381 0 0 0-.38.38V18.71a.381.381 0 0 0 .76 0V5.29a.381.381 0 0 0-.38-.383m-2.36 2.89a.381.381 0 0 0-.381.379v7.648a.381.381 0 0 0 .761 0V8.176a.381.381 0 0 0-.38-.379m-2.361 2.89a.381.381 0 0 0-.379.379v1.87a.379.379 0 1 0 .759 0v-1.87a.379.379 0 0 0-.38-.379"/></svg>