<svg xmlns="http://www.w3.org/2000/svg" viewBox="0 0 24 24"><path fill="#44739e" d="M17.692 4.493h-.896V2.968h.896Zm-.449 7.179a2.992 2.992 0 1 0-2.992-2.992 2.992 2.992 0 0 0 2.992 2.996Zm-4.393.915.633.633 1.082-1.081-.634-.633Zm9.011-7.688-.634-.635-1.081 1.083.633.633Zm-.634 8.32.635-.633-1.082-1.082-.634.634Zm-4.431 1.068h.896v-1.526h-.896ZM1 21.032h22v-1.008H1ZM21.47 8.236v.896H23v-.896Zm-8.472 0h-1.529v.896h1.529Zm6.047 7.41H4.821l-3.317 3.417h20.544Zm-4.48-10.297-1.082-1.081-.633.633 1.081 1.083Z"/></svg>