<svg xmlns="http://www.w3.org/2000/svg" fill="#44739e" viewBox="0 0 24 24"><path d="m7.506 19.967-.093-.253-.545-1.463H6.51l.05.143-.528 1.32-.055.138-.066.165a.337.337 0 0 1-.3.22v.1h.814v-.1L6.3 20.22c-.088-.016-.187-.038-.187-.148a1.12 1.12 0 0 1 .087-.352l.093-.248h.655l.088.242.05.143a.8.8 0 0 1 .065.248c0 .115-.137.121-.308.126v.1h1v-.1c-.132-.005-.187-.016-.231-.055a.61.61 0 0 1-.106-.209m-1.155-.638.28-.72.259.72zm5.577.88h-.352c-.187 0-.2 0-.2-.187v-.3h-.005v-.347h.456c.226 0 .259.011.27.264h.11v-.632H12.1c-.027.247-.071.247-.237.247h-.489v-.8h.5c.22 0 .292.022.347.33h.1l-.022-.462h-1.608v.094c.264-.006.324.033.324.258v1.3c0 .181-.022.264-.324.253v.1h1.694l.05-.506h-.11c-.088.355-.193.388-.397.388m2.877-.341-.066-.143a1.8 1.8 0 0 0-.1-.192 1.05 1.05 0 0 0-.105-.116c.033-.016.077-.027.121-.049a.5.5 0 0 0 .314-.484c0-.589-.748-.589-.908-.589a7.2 7.2 0 0 0-.825.05v.1c.3.017.33.017.33.226v1.309c0 .181-.022.264-.33.253v.1h1.051v-.1h-.149c-.187 0-.214-.05-.214-.314v-.44h.28c.022.039.083.138.138.242s.121.22.148.259a.77.77 0 0 0 .726.4v-.105c-.174-.033-.257-.093-.411-.407m-.4-.561a.65.65 0 0 1-.286.055h-.2v-.94c.044 0 .121-.011.192-.011a.452.452 0 0 1 .484.489.412.412 0 0 1-.195.407Zm-4.732.105a1.12 1.12 0 0 0-.253-.2l-.291-.192a1.54 1.54 0 0 1-.182-.138.283.283 0 0 1-.11-.231.3.3 0 0 1 .308-.28c.226 0 .385.159.484.418h.11L9.69 18.3h-.1c-.028.033-.044.044-.055.044A1.1 1.1 0 0 1 9.4 18.3a.84.84 0 0 0-.3-.049.547.547 0 0 0-.555.522c0 .182.077.369.489.622a1.63 1.63 0 0 1 .435.324.353.353 0 0 1-.3.572.575.575 0 0 1-.517-.445H8.54l.061.522h.1c0-.033.011-.044.049-.044a.11.11 0 0 1 .055.011c.121.033.193.055.248.066a1.2 1.2 0 0 0 .154.011.6.6 0 0 0 .632-.583.6.6 0 0 0-.011-.1.676.676 0 0 0-.155-.317m11.969.522V18.82c0-.336 0-.385.347-.4v-.105h-1.04v.105c.3.022.346.055.346.3v1.018a1.19 1.19 0 0 1-.049.423c-.028.05-.033.055-.281.072v.1H22v-.1c-.292-.013-.358-.051-.358-.299m-4.07.033-.093-.253-.545-1.463h-.358l.05.143-.523 1.32-.055.138a1.3 1.3 0 0 1-.066.165.342.342 0 0 1-.3.22v.1h.818v-.1l-.132-.011c-.082-.016-.187-.038-.187-.148a1.01 1.01 0 0 1 .094-.352l.088-.248h.66l.082.242.05.143a.66.66 0 0 1 .066.248c0 .115-.132.121-.308.126v.1h.99v-.1c-.126-.005-.187-.016-.225-.055a.61.61 0 0 1-.106-.215m-1.144-.638.28-.72.259.72zm3.619-1.072c-.022.055-.038.066-.187.066h-1.375a.12.12 0 0 1-.115-.066h-.083l-.044.533h.1c.039-.115.055-.181.072-.225a.144.144 0 0 1 .06-.083.415.415 0 0 1 .22-.033h.336v1.529c0 .121-.011.182-.055.209a.32.32 0 0 1-.11.033c-.05 0-.116.006-.215.011v.1h1.117v-.1a1.7 1.7 0 0 1-.2-.011.25.25 0 0 1-.11-.033c-.049-.033-.06-.093-.06-.231v-1.507h.374c.17 0 .236.006.308.341h.1l-.049-.533ZM4.64 19.9l-.011-.181-.066-1c-.011-.154 0-.226.028-.259a.2.2 0 0 1 .082-.033 1.7 1.7 0 0 1 .176 0v-.105h-.671l-.61 1.4-.05.105-.044-.105-.6-1.4h-.687v.105c.264.016.3.016.286.209l-.088 1.083-.011.132c-.027.352-.027.369-.374.385v.1h.8v-.1c-.11 0-.286 0-.286-.126a.86.86 0 0 1 .006-.138l.022-.247.093-1.095.468 1.1.264.622h.1l.269-.622.484-1.1.066 1.1.011.2c0 .027.011.121.011.148a.122.122 0 0 1-.088.127 1.2 1.2 0 0 1-.242.033v.1h.985v-.1c-.301.01-.306-.073-.323-.338m6.099-5.103h2.523v.623h-2.523zm.311.872h1.915v1.292H11.05Zm4.672-2.601h-.9c0 .53.342.779.9.654zm-2.834 1.464a1.584 1.584 0 0 1 .42-1.059 1.98 1.98 0 0 1 .623-.327c.233-.047.233-.093.233-.093H9.789c0 .015 0 .046.233.093a1.466 1.466 0 0 1 .654.327 1.582 1.582 0 0 1 .421 1.059zm-5.061-3.208h8.315v.311H7.827Zm1.354 1.744h-.9v.654c.558.125.9-.122.9-.654m5.619-1.977h.95a14.35 14.35 0 0 1 .467-3.208A11.07 11.07 0 0 1 17.5 5.422a2.16 2.16 0 0 0-1.339.452A3.79 3.79 0 0 0 15.037 7c.031.031.218-.14.576-.265a1.2 1.2 0 0 1 .545-.109 9.7 9.7 0 0 0-.95 2.18 14.5 14.5 0 0 0-.408 2.285m-6.553 0h.934a14.6 14.6 0 0 0-.4-2.29 9.76 9.76 0 0 0-.95-2.18 1.176 1.176 0 0 1 .545.109c.373.125.56.3.591.265a3.79 3.79 0 0 0-1.125-1.121A2.138 2.138 0 0 0 6.5 5.422a11.07 11.07 0 0 1 1.28 2.461 15.44 15.44 0 0 1 .467 3.208m1.931 0h1.043l.094-.156A6.72 6.72 0 0 0 12 9.269a5.96 5.96 0 0 0 .67 1.666l.093.156h1.043a8.9 8.9 0 0 1-1.23-2.554 11.61 11.61 0 0 1-.28-3.27s.265.109.592.264c.2.094.607.3.654.218a11.7 11.7 0 0 1-1.028-1.308A16.1 16.1 0 0 1 12 2.651c-.093.015-.171 1.074-.529 1.79a8.84 8.84 0 0 1-1.028 1.308c.047.078.451-.124.654-.218.327-.14.592-.264.592-.264a10.99 10.99 0 0 1-.281 3.27 9.07 9.07 0 0 1-1.23 2.554m-2.336 1.401h8.315v.311H7.842Zm.405-.592h7.521v.311H8.247Z"/></svg>