<svg xmlns="http://www.w3.org/2000/svg" viewBox="0 0 24 24"><path fill="#44739e" d="M23 9.144h-1.877a13.3 13.3 0 0 1-1.533 1.936 12.27 12.27 0 0 1-1.534-1.936h-1.897a18.9 18.9 0 0 0 2.24 2.816 24.3 24.3 0 0 0-2.24 2.896h1.897a12.54 12.54 0 0 1 1.534-1.997 12.87 12.87 0 0 1 1.496 2.001H23a23.05 23.05 0 0 0-2.23-2.9A21.9 21.9 0 0 0 23 9.144m-8.613.753a2.429 2.429 0 0 0-1.954-.907A2.945 2.945 0 0 0 9.573 12a2.946 2.946 0 0 0 2.86 3.011 2.432 2.432 0 0 0 1.954-.905v.752h1.496V9.144h-1.496Zm-1.716 3.792a1.686 1.686 0 1 1 1.686-1.687 1.684 1.684 0 0 1-1.686 1.687M7.802 8.99a3.328 3.328 0 0 0-2.01.856 1.356 1.356 0 0 0-1.32-.856 3.313 3.313 0 0 0-1.991.866v-.712H1v5.72h1.572v-3.558c.686-.542 1.001-.714 1.258-.714.305 0 .505.191.505.667v3.601h1.572V11.3c.685-.534.99-.706 1.257-.706.305 0 .505.191.505.667v3.601h1.572v-4.155c0-1.287-.733-1.717-1.439-1.717m4.869 1.707a1.306 1.306 0 1 0 1.296 1.305 1.299 1.299 0 0 0-1.296-1.305"/></svg>