<svg xmlns="http://www.w3.org/2000/svg" fill="#44739e" viewBox="0 0 24 24"><path d="M22 9.54h-1.706A12.1 12.1 0 0 1 18.9 11.3a11.15 11.15 0 0 1-1.395-1.76h-1.724a17.16 17.16 0 0 0 2.036 2.56 22.1 22.1 0 0 0-2.036 2.633h1.724a11.4 11.4 0 0 1 1.395-1.815 11.7 11.7 0 0 1 1.36 1.819H22a20.95 20.95 0 0 0-2.027-2.637A19.9 19.9 0 0 0 22 9.54m-7.83.685a2.208 2.208 0 0 0-1.776-.825 2.677 2.677 0 0 0-2.6 2.737 2.678 2.678 0 0 0 2.6 2.737 2.211 2.211 0 0 0 1.776-.823v.684h1.36V9.54h-1.36zm-1.56 3.447a1.533 1.533 0 1 1 1.533-1.533 1.531 1.531 0 0 1-1.533 1.533M8.184 9.4a3.025 3.025 0 0 0-1.828.779 1.233 1.233 0 0 0-1.2-.779 3.012 3.012 0 0 0-1.81.788V9.54H2v5.2h1.429v-3.234c.624-.493.91-.649 1.144-.649.277 0 .459.173.459.606v3.274h1.429V11.5c.623-.485.9-.641 1.143-.641.277 0 .459.173.459.606v3.274h1.429v-3.778c0-1.17-.667-1.561-1.308-1.561m4.426 1.552a1.187 1.187 0 1 0 1.178 1.187 1.181 1.181 0 0 0-1.178-1.187"/></svg>