<svg xmlns="http://www.w3.org/2000/svg" fill="#44739e" viewBox="0 0 24 24"><path d="M19.261 9.794a1.6 1.6 0 0 0-.325-.261l-2.564-2.767a1.257 1.257 0 0 0-1.772-.113 1.2 1.2 0 0 0-.114.113l-2.713 2.925-.313-.339a1.9 1.9 0 0 0-.36-.312L9 6.766a1.26 1.26 0 0 0-1.778-.113 1.3 1.3 0 0 0-.113.113l-5.1 5.51 2.6 2.8 3.06-3.315 2.549 2.754a1.566 1.566 0 0 0 2.211.127 1.4 1.4 0 0 0 .127-.127l2.58-2.785 3.878 4.023 3-3.105zM12.113 14.1a.955.955 0 0 1-1.348.093.9.9 0 0 1-.094-.093l-2.55-2.754 1.455-1.57a.986.986 0 0 1 .723-.328.793.793 0 0 1 .714.32l1.8 1.949a1.63 1.63 0 0 0 1.028.514zm3.607-2.379 1.58-1.633a1.137 1.137 0 0 1 1.6-.058c.02.019.039.038.057.058l2.468 2.56-2.407 2.5zm-6.759 4.947h-.348a.1.1 0 0 0-.1.048.134.134 0 0 0 .015.135l.6.832-.771 1.068h.4a.422.422 0 0 0 .293-.151l.659-.91ZM9.8 17.82l-.287.393.394.539h.356a.106.106 0 0 0 .1-.048.134.134 0 0 0-.015-.135zm-2.238-.981v.072a.99.99 0 0 0-.284-.207.93.93 0 0 0-.415-.1.972.972 0 0 0-.72.324 1.167 1.167 0 0 0 0 1.556.98.98 0 0 0 .72.323.94.94 0 0 0 .415-.1.99.99 0 0 0 .284-.207v.244h.306a.173.173 0 0 0 .175-.171v-1.905h-.302a.172.172 0 0 0-.175.169zm-.614 1.492a.622.622 0 1 1 .621-.623.622.622 0 0 1-.617.623zm7.353-1.723a1.1 1.1 0 1 0 .778.323 1.1 1.1 0 0 0-.774-.323zm0 1.723a.622.622 0 1 1 .621-.623.622.622 0 0 1-.617.623zm6.084-1.722a1.058 1.058 0 0 0-.762.322 1.121 1.121 0 0 0 0 1.557 1.15 1.15 0 0 0 1.627-.027 1.03 1.03 0 0 0 .115-.14l-.265-.151a.272.272 0 0 0-.269.051.68.68 0 0 1-.442.133.625.625 0 0 1-.571-.428h1.625v-.021a1.107 1.107 0 0 0-.3-.973 1.055 1.055 0 0 0-.754-.323zm-.577.9a.6.6 0 0 1 1.153 0zm-15.194-.9a.792.792 0 0 0-.627.309.7.7 0 0 0-1.126-.04v-.209h-.302a.174.174 0 0 0-.175.171v1.913h.306a.174.174 0 0 0 .175-.171v-1.106a.4.4 0 0 1 .792-.019v1.3h.3a.173.173 0 0 0 .175-.171v-1.11a.4.4 0 0 1 .792-.013v1.292h.306a.174.174 0 0 0 .175-.171V17.4a.791.791 0 0 0-.792-.792zm7.665-.582v.885A1.01 1.01 0 0 0 12 16.7a.94.94 0 0 0-.414-.1.972.972 0 0 0-.72.324 1.165 1.165 0 0 0 0 1.556.976.976 0 0 0 .72.323.93.93 0 0 0 .414-.1 1.01 1.01 0 0 0 .285-.207v.244h.3a.173.173 0 0 0 .175-.171v-2.714h-.306a.172.172 0 0 0-.171.171zm-.615 2.3a.622.622 0 1 1 .621-.623.622.622 0 0 1-.617.627zm-1.224-1.663h-.4a.426.426 0 0 0-.284.151l-.245.339.291.4.642-.888zm7.636-.06a.79.79 0 0 0-.626.309.7.7 0 0 0-.964-.192.71.71 0 0 0-.163.152v-.209h-.306a.173.173 0 0 0-.174.17v1.913h.3a.173.173 0 0 0 .175-.171v-1.1a.4.4 0 0 1 .792-.019v1.3h.306a.172.172 0 0 0 .174-.17v-1.111a.4.4 0 0 1 .793-.013v1.292h.3a.173.173 0 0 0 .175-.171V17.4a.791.791 0 0 0-.792-.792z"/></svg>