<svg xmlns="http://www.w3.org/2000/svg" viewBox="0 0 24 24"><path fill="#44739e" d="M19.972 8.941a1.76 1.76 0 0 0-.357-.287l-2.82-3.043a1.382 1.382 0 0 0-1.948-.124 1.3 1.3 0 0 0-.126.124l-2.983 3.217-.344-.373a2.1 2.1 0 0 0-.396-.343l-2.31-2.501a1.386 1.386 0 0 0-1.955-.124 1.4 1.4 0 0 0-.124.124L1 11.671l2.859 3.079 3.365-3.646 2.804 3.029a1.722 1.722 0 0 0 2.431.14 1.5 1.5 0 0 0 .14-.14l2.837-3.063 4.265 4.425L23 12.08Zm-7.86 4.736a1.05 1.05 0 0 1-1.483.102 1 1 0 0 1-.103-.102l-2.804-3.029 1.6-1.727a1.084 1.084 0 0 1 .795-.36.872.872 0 0 1 .785.352l1.979 2.143a1.793 1.793 0 0 0 1.131.565Zm3.966-2.617 1.738-1.795a1.25 1.25 0 0 1 1.759-.064c.022.021.043.042.063.064l2.714 2.815-2.647 2.749Zm-7.433 5.441h-.382a.11.11 0 0 0-.11.053.147.147 0 0 0 .016.148l.66.915-.848 1.175h.44a.464.464 0 0 0 .322-.167l.725-1Zm.923 1.267-.316.432.434.593h.391a.117.117 0 0 0 .11-.053.147.147 0 0 0-.016-.149Zm-2.461-1.079v.079a1.09 1.09 0 0 0-.313-.228 1.02 1.02 0 0 0-.456-.11 1.07 1.07 0 0 0-.792.357 1.283 1.283 0 0 0 0 1.711 1.078 1.078 0 0 0 .792.355 1.034 1.034 0 0 0 .456-.11 1.09 1.09 0 0 0 .313-.228v.269h.336a.19.19 0 0 0 .193-.188v-2.095h-.332a.189.189 0 0 0-.193.186Zm-.675 1.641a.684.684 0 1 1 .682-.685.684.684 0 0 1-.678.685Zm8.086-1.895a1.21 1.21 0 1 0 .855.355 1.21 1.21 0 0 0-.851-.355Zm0 1.895a.684.684 0 1 1 .683-.685.684.684 0 0 1-.679.685Zm6.691-1.894a1.164 1.164 0 0 0-.838.354 1.233 1.233 0 0 0 0 1.712 1.265 1.265 0 0 0 1.789-.029 1.13 1.13 0 0 0 .126-.154l-.291-.166a.299.299 0 0 0-.296.056.748.748 0 0 1-.486.146.687.687 0 0 1-.628-.471h1.787v-.023a1.217 1.217 0 0 0-.33-1.07 1.16 1.16 0 0 0-.829-.355Zm-.635.99a.66.66 0 0 1 1.268 0Zm-16.709-.99a.871.871 0 0 0-.69.34.77.77 0 0 0-1.238-.044v-.23h-.332a.191.191 0 0 0-.193.188v2.104h.337a.191.191 0 0 0 .192-.188v-1.217a.44.44 0 0 1 .871-.021v1.43h.33a.19.19 0 0 0 .193-.188v-1.221a.44.44 0 0 1 .871-.014v1.421h.336a.191.191 0 0 0 .193-.188v-1.302a.87.87 0 0 0-.871-.871Zm8.429-.64v.973a1.11 1.11 0 0 0-.307-.233 1.034 1.034 0 0 0-.455-.11 1.07 1.07 0 0 0-.792.356 1.281 1.281 0 0 0 0 1.712 1.073 1.073 0 0 0 .792.355 1.02 1.02 0 0 0 .455-.11 1.11 1.11 0 0 0 .314-.228v.268h.33a.19.19 0 0 0 .192-.188v-2.984h-.336a.189.189 0 0 0-.188.188Zm-.676 2.529a.684.684 0 1 1 .683-.685.684.684 0 0 1-.679.69Zm-1.346-1.829h-.44a.468.468 0 0 0-.312.166l-.27.373.32.44.706-.976Zm8.397-.066a.869.869 0 0 0-.688.34.77.77 0 0 0-1.06-.211.78.78 0 0 0-.18.167v-.23h-.336a.19.19 0 0 0-.191.187v2.104h.33a.19.19 0 0 0 .192-.188v-1.21a.44.44 0 0 1 .871-.021v1.43h.336a.189.189 0 0 0 .192-.187v-1.222a.44.44 0 0 1 .872-.014v1.421h.33a.19.19 0 0 0 .192-.188v-1.302a.87.87 0 0 0-.871-.871Z"/></svg>