<svg xmlns="http://www.w3.org/2000/svg" viewBox="0 0 24 24"><path fill="#44739e" d="M22.467 14.87a22.58 22.58 0 0 0-7.975-9.813 7.67 7.67 0 0 0-2.489-1.245 7.67 7.67 0 0 0-2.488 1.245 22.59 22.59 0 0 0-7.977 9.813 7.53 7.53 0 0 0-.537 1.952.47.47 0 0 0 .029.198.45.45 0 0 0 .11.198 7.98 7.98 0 0 0 1.725 1.019 22.42 22.42 0 0 0 9.138 1.951 22.42 22.42 0 0 0 9.132-1.951 7.98 7.98 0 0 0 1.725-1.019.44.44 0 0 0 .11-.198.47.47 0 0 0 .029-.198 7.5 7.5 0 0 0-.532-1.952M3.122 17.671a5.34 5.34 0 0 1-1.3-.793.57.57 0 0 1-.085-.14.31.31 0 0 1-.028-.171 5.28 5.28 0 0 1 .423-1.441 21.99 21.99 0 0 1 6.331-8.504c.2-.164.402-.33.608-.483l.309-.233c.157-.116.315-.229.473-.34l.01-.007.018-.012.024-.016.032-.022.04-.026.046-.029.053-.034.057-.037.095-.06a8.4 8.4 0 0 1 1.304-.694l.042-.016a1.9 1.9 0 0 1 .268-.078.83.83 0 0 1 .161-.016.7.7 0 0 1 .094.006 1.3 1.3 0 0 1 .14.029c.025.006.05.013.075.022l.08.025c.054.019.11.04.167.064q.043.016.086.036l.044.02c.102.046.208.098.312.152.151.078.299.162.44.243l.052.03.147.089.11.067.13.081.024.016.08.051.046.03.038.025.085.058c.144.101.288.203.43.309l.093.068c.117.087.234.176.35.265l.134.11c.1.081.201.161.3.242q.848.691 1.626 1.464a21.9 21.9 0 0 1 4.788 7.107 5.28 5.28 0 0 1 .424 1.441.32.32 0 0 1-.027.171.6.6 0 0 1-.086.141 5.34 5.34 0 0 1-1.301.792 22.19 22.19 0 0 1-8.881 1.865h-.44a22.22 22.22 0 0 1-8.441-1.867m10.945 1.301v-4.894l-2.064 1.245-2.065-1.245v4.894a16.8 16.8 0 0 0 2.065.11 16.8 16.8 0 0 0 2.064-.11M2.245 16.426v.11c.029.028.057.085.085.11a4.84 4.84 0 0 0 .99.594c.537.227 1.075.454 1.612.652l.11-6.987a20.86 20.86 0 0 0-2.485 4.396 4.13 4.13 0 0 0-.312 1.125m13.661-3.45v5.741c.453-.085.88-.17 1.301-.283-.028-2.489-.084-6.194-.084-6.194ZM14.803 6.64a9.9 9.9 0 0 0-.933-.679 5.92 5.92 0 0 0-1.867-.933 5.91 5.91 0 0 0-1.87.933 9.9 9.9 0 0 0-.933.679l2.803 1.669Zm-2.805 3.846L9.933 9.213v2.717l2.065 1.244 2.066-1.244V9.213Zm-5.199 7.948c.425.11.849.198 1.301.283v-5.741l-1.211-.736s-.057 3.705-.09 6.194m13.887-1.188a4.84 4.84 0 0 0 .99-.594c.029-.028.057-.085.085-.11v-.11a4.13 4.13 0 0 0-.311-1.131 20.86 20.86 0 0 0-2.489-4.385l.085 6.987c.565-.204 1.099-.431 1.64-.657m-4.78-9.701v3.281l2.038-1.216a23.1 23.1 0 0 0-2.038-2.065m-7.806 0A23.4 23.4 0 0 0 6.062 9.61l2.037 1.216Zm3.903 7.241 2.518-1.527v5.967l.058-.005c.291-.03.583-.083.88-.137v-6.391l2.121-1.273.11 7.185c.312-.085.622-.171.906-.256l-.11-8.541-2.962 1.767-.07.043V6.777l-3.451 2.07-3.45-2.065v4.841L5.526 9.808l-.11 8.541c.283.085.594.171.906.256l.11-7.185 2.121 1.273v6.391c.31.056.619.11.93.141v-5.966ZM9.486 8.422l2.517 1.5 2.518-1.5v3.762l-2.518 1.527-2.517-1.527Z"/></svg>