<svg xmlns="http://www.w3.org/2000/svg" fill="#44739e" viewBox="0 0 24 24"><path d="m20.41 7.1-.069-.082-.172.171.043-.369-.2.221A9.13 9.13 0 0 1 16.5 9.2a7.418 7.418 0 0 0-4.5 3.713 7.613 7.613 0 0 0-4.567-3.59A8.955 8.955 0 0 1 3.888 7.2L3.7 7.017l-.067.083a7.834 7.834 0 0 0-1.623 5.157c0 5.369 3.364 8.091 10 8.091s10-2.722 10-8.091a7.775 7.775 0 0 0-1.6-5.157m-.787 1.642-.326.246-.215.14-.456.25-.48.218-.255.1c-.283.114-.567.221-.854.329-.241.09-.483.182-.726.278l-.543.221-.559.257-.268.145-.534.323-.459.314a3.045 3.045 0 0 1 .933-1.243l.231-.126.79-.372c.347-.152.7-.3 1.049-.441l.322-.133.553-.255.561-.279.557-.335.537-.391.26-.217zm-6.242 2.747.359-.341a2.9 2.9 0 0 0-.286.838l-.335.326-.012.014a2.21 2.21 0 0 1 .274-.837m-8.689-3.13.536.345.558.3.833.377c.23.1.462.188.7.281s.45.179.671.27l.518.222c.3.367.625.771.915 1.194l-.623-.326-.855-.389c-.282-.113-.566-.223-.848-.333s-.538-.21-.807-.317l-.53-.218-.492-.241-.468-.26-.218-.142-.4-.29-.035-.044-.132-.452-.044-.228c-.018-.128-.038-.255-.057-.382l.241.219zm7.23 6.07.089.176.087-.177c1.3-2.643 3.2-3.355 5.047-4.044a9.1 9.1 0 0 0 2.786-1.414l-.019.126.012.027a7.9 7.9 0 0 1 .654 3.136c.061 3.127-1.375 6.905-8.556 7.144-4.4-.034-7.077-1.388-8.179-4.139l-.011-.03-.027-.017A4.25 4.25 0 0 1 2.4 13.11l-.011-.026-.021-.825.011-.613.043-.577.077-.545.109-.513.13-.491.153-.454.184-.425.206-.4.229-.37.065-.094a2.6 2.6 0 0 0 .368 1.313A10.17 10.17 0 0 0 6.9 10.605c1.9.728 3.85 1.481 5.022 3.824m3.4-2.321 3.749-1.334.525-1.4a16.05 16.05 0 0 1-3.717 1.76 6.62 6.62 0 0 0-3.956 3.836l-.011.711a6.25 6.25 0 0 1 3.41-3.573m-6.822.12a6.04 6.04 0 0 1 3.41 3.454v-.711a6.745 6.745 0 0 0-4.11-3.759 15.36 15.36 0 0 1-3.6-1.706l.525 1.443zM5.282 8.127a.46.46 0 0 0 .181.039.41.41 0 0 0 .144-.026l.031-.011.017-.029c1.1-1.706 3.113-2.5 6.323-2.5h.078c3.1 0 5.06.77 6.18 2.417l.058.086 1.666-1.266.175-.13-.074-.08c-1.619-1.762-4.339-2.655-8.083-2.655-3.844 0-6.609.942-8.217 2.8L3.7 6.84l.176.16a6.5 6.5 0 0 0 1.406 1.127m8.729-3.719.823.1.826.163.8.205.78.27.379.163.363.17.7.432.324.238.312.258.279.259-.551.325a9.607 9.607 0 0 0-6.9-2.273h-.173c-3.2-.018-5.35.7-7.206 2.424l-.566-.346.422-.407.314-.259.32-.236.346-.216.354-.194.37-.173.377-.162.779-.271.8-.206.822-.163.414-.054 1.24-.109.815-.033 1.186.011Zm5.311 7.918c0 5.411-3.6 6.5-7.377 6.493-3.793.011-7.378-1.082-7.378-6.493a9.8 9.8 0 0 1 .066-1.18l-.82-1.629a9.52 9.52 0 0 0-.437 2.809A6.073 6.073 0 0 0 4.5 16.043c.819.327.994.754 1.53 1.082l.186.207.251.208.262.2.271.172.285.163.295.143.295.131.306.109.317.1.317.088.328.076.339.066.338.055.339.043.35.033.35.022.349.022.361.011h.732l.361-.011.35-.022.35-.022.349-.033.339-.043.339-.055.339-.066.328-.076.317-.088.317-.1.31-.109.3-.131.295-.143.284-.163.273-.175.263-.2.251-.208.23-.229.218-.241.208-.262.2-.284a4.733 4.733 0 0 0 1.748-3.979 7.19 7.19 0 0 0-.47-2.74l-.59 1.2a9.45 9.45 0 0 1 .112 1.532"/></svg>