<svg xmlns="http://www.w3.org/2000/svg" viewBox="0 0 24 24"><path fill="#44739e" d="m21.229 6.44-.075-.091-.189.188.047-.405-.22.243a10.03 10.03 0 0 1-3.859 2.372 8.152 8.152 0 0 0-4.945 4.08 8.366 8.366 0 0 0-5.019-3.945 9.84 9.84 0 0 1-3.896-2.333l-.206-.201-.074.092a8.61 8.61 0 0 0-1.783 5.667c0 5.9 3.696 8.891 10.989 8.891s10.989-2.991 10.989-8.891a8.544 8.544 0 0 0-1.759-5.667m-.864 1.804-.359.27-.236.154-.501.275-.528.239-.28.11c-.311.126-.623.243-.938.362-.265.099-.531.2-.798.305l-.597.243-.614.283-.294.159-.587.355-.505.345a3.346 3.346 0 0 1 1.026-1.366l.253-.138.869-.409c.381-.167.769-.33 1.152-.485l.354-.146.608-.28.616-.307.612-.368.591-.43.285-.238Zm-6.86 3.019.395-.375a3.19 3.19 0 0 0-.315.921l-.368.358-.013.015a2.43 2.43 0 0 1 .301-.919m-9.548-3.44.589.379.613.33.915.414c.253.11.508.207.77.309s.494.197.737.297l.569.244c.33.403.687.847 1.006 1.312l-.685-.359-.939-.427c-.31-.124-.622-.245-.932-.366s-.591-.231-.887-.348l-.582-.24-.541-.265-.514-.285-.24-.156-.44-.319-.038-.048-.145-.497-.048-.251c-.02-.14-.042-.28-.063-.42l.265.241Zm7.945 6.67.098.194.095-.195c1.429-2.904 3.517-3.687 5.546-4.444a10 10 0 0 0 3.062-1.553l-.021.138.013.03a8.68 8.68 0 0 1 .719 3.446c.067 3.436-1.511 7.588-9.402 7.85-4.835-.037-7.777-1.525-8.988-4.548l-.012-.033-.03-.019a4.67 4.67 0 0 1-1.544-2.315l-.012-.029-.023-.906.012-.674.047-.634.085-.599.12-.564.143-.539.168-.499.202-.467.226-.44.252-.406.071-.103a2.857 2.857 0 0 0 .405 1.442 11.18 11.18 0 0 0 3.249 1.665c2.088.8 4.231 1.628 5.519 4.202m3.736-2.55 4.12-1.466.577-1.539a17.64 17.64 0 0 1-4.085 1.935 7.275 7.275 0 0 0-4.347 4.215l-.012.781a6.868 6.868 0 0 1 3.747-3.926m-7.496.132a6.637 6.637 0 0 1 3.747 3.795v-.781a7.412 7.412 0 0 0-4.517-4.131 16.88 16.88 0 0 1-3.956-1.874l.577 1.585ZM4.605 7.568a.505.505 0 0 0 .199.043.45.45 0 0 0 .158-.029l.034-.012.019-.032c1.209-1.874 3.421-2.747 6.948-2.747h.086c3.407 0 5.561.846 6.791 2.656l.064.095 1.831-1.391.192-.143-.081-.088c-1.779-1.936-4.768-2.918-8.883-2.918-4.224 0-7.262 1.035-9.029 3.077l-.067.075.193.176a7.14 7.14 0 0 0 1.545 1.238m9.593-4.087.904.11.908.179.879.226.857.296.416.179.399.187.77.475.356.262.342.283.307.285-.605.357a10.557 10.557 0 0 0-7.583-2.498h-.19c-3.516-.02-5.879.769-7.919 2.664l-.622-.38.464-.448.345-.284.352-.26.38-.237.389-.213.407-.19.414-.178.856-.298.879-.227.903-.179.455-.059 1.363-.12.896-.036 1.303.012Zm5.836 8.701c0 5.947-3.956 7.143-8.107 7.136-4.168.012-8.107-1.189-8.107-7.136a10.8 10.8 0 0 1 .072-1.296l-.901-1.79a10.46 10.46 0 0 0-.48 3.086 6.674 6.674 0 0 0 1.235 4.085c.9.359 1.092.829 1.681 1.189l.205.228.275.228.288.22.298.189.313.179.325.157.324.144.336.12.348.11.349.096.36.084.373.072.371.061.373.047.384.036.385.025.383.024.397.012h.804l.397-.012.385-.024.384-.025.384-.036.372-.047.373-.061.372-.072.361-.084.348-.096.349-.11.34-.12.33-.144.324-.157.312-.179.3-.192.289-.22.276-.229.253-.251.239-.265.229-.288.22-.312a5.201 5.201 0 0 0 1.921-4.373 7.9 7.9 0 0 0-.517-3.011l-.648 1.319a10.4 10.4 0 0 1 .123 1.683"/></svg>