<svg xmlns="http://www.w3.org/2000/svg" viewBox="0 0 24 24"><path fill="#44739e" d="M13.461 15.657a1.603 1.603 0 0 0-1.597.039.8.8 0 0 0-.317.694h-.817v-1.236H9.353v2.038l2.451.022v-.278a1.14 1.14 0 0 0 .619.292 1.56 1.56 0 0 0 .258.021 2.36 2.36 0 0 0 .785-.149v.115h1.216v-1.671h-1.221Zm-.286 1.06a.333.333 0 0 1-.368-.307.225.225 0 0 1 .06-.182.413.413 0 0 1 .308-.123.333.333 0 0 1 .368.307.347.347 0 0 1-.363.3Zm6.155-.997a2.17 2.17 0 0 0-1.07-.258 2.29 2.29 0 0 0-.844.154 1.31 1.31 0 0 0-.512.34v-.494h-.022a1.456 1.456 0 0 0-.882.245v-.163h-1.218v1.669H16v-.591c.088-.152.317-.211.738-.191a.799.799 0 0 0 .399.538 1.905 1.905 0 0 0 .895.265h.207a2.35 2.35 0 0 0 .982-.195 1.007 1.007 0 0 0 .457-.372l.017-.033h-.455a1.085 1.085 0 0 1-1.147-.082h1.649v-.015a.63.63 0 0 0 .043-.192.765.765 0 0 0-.455-.625m-1.253.4c.014-.148.17-.206.305-.209.163 0 .347.066.367.209Zm4.784-.363a1.646 1.646 0 0 0-1.736-.097v-.134h-1.221v1.688h1.197v-.916a.53.53 0 0 1 .39-.125.397.397 0 0 1 .286.122v.919h1.216v-1.009a.539.539 0 0 0-.132-.448m-16.098.223a.639.639 0 0 0 .013.754 1.292 1.292 0 0 0 .835.463 2.5 2.5 0 0 0 .469.042 4.26 4.26 0 0 0 1.116-.166h.016v-.558l-.026.006c-.786.168-1.274.056-1.371-.079a.069.069 0 0 1 0-.082c.082-.137.549-.231 1.379-.125h.024v-.618h-.016c-1.382-.35-2.165-.039-2.439.363m-2.28-.222v-.604H2.661L1 17.193h1.495l.771-.81v.81H4.47l.77-.81v.81h1.298v-2.039H5.067Zm.855-4.626.548-.143a32 32 0 0 1 3.275-.664 16.3 16.3 0 0 1 2.257-.174c2.513.006 3.773.85 3.34 2.547a5.9 5.9 0 0 1-.811 1.678c-.107.16-.231.323-.347.492l.02-.013-.116.153.086-.053-.04.053a39 39 0 0 0 5.232-3.765c6.494-5.703-1.878-5.954-12.013-.876q-.731.365-1.474.769l.091-.023Z"/></svg>