<svg xmlns="http://www.w3.org/2000/svg" fill="#44739e" viewBox="0 0 24 24"><path d="M20.583 8.969A1.417 1.417 0 1 0 22 10.386a1.417 1.417 0 0 0-1.417-1.417m0 2.579a1.162 1.162 0 1 1 1.162-1.162 1.162 1.162 0 0 1-1.162 1.162m-.711-1.191.387-.141v.874l.781-.28V9.646l-1.168.421zM8.066 11.839a2.115 2.115 0 0 0-1.6.717 1.074 1.074 0 0 0-1.1-.717 2.677 2.677 0 0 0-1.62.815v-.378a.333.333 0 0 0-.367-.365H2v.655h.582a.259.259 0 0 1 .29.289V14.5c0 .039.008.058.033.066a.064.064 0 0 0 .071-.024c.439-.459.751-.793 1.092-1.127.436-.427.8-.777 1.246-.777a.558.558 0 0 1 .6.638v.775c0 .039.009.058.034.067a.066.066 0 0 0 .071-.024c.2-.227.6-.647.887-.912a1.6 1.6 0 0 1 1.019-.544.508.508 0 0 1 .535.32.95.95 0 0 1 .05.359v.794h.871v-.844a1.53 1.53 0 0 0-.182-.783 1.271 1.271 0 0 0-1.133-.645m6.076-2.19h-1.376v.651h.562a.259.259 0 0 1 .289.29v1.859a1.993 1.993 0 0 0-1.469-.614 2.1 2.1 0 0 0-2.107 2.028 2.056 2.056 0 0 0 .308 1.164h.973a2.01 2.01 0 0 1-.407-1.164 1.228 1.228 0 0 1 1.229-1.229 1.88 1.88 0 0 1 1.165.54c.328.259.851.688 1.1.908a.071.071 0 0 0 .071.024c.025-.008.034-.028.034-.066v-4.03a.333.333 0 0 0-.372-.361m2.69 3.005v-.378a.333.333 0 0 0-.367-.365h-1.376v.655h.582a.258.258 0 0 1 .289.289v1.651c0 .038.009.058.034.066a.065.065 0 0 0 .071-.024c.2-.2.651-.693.947-.982a2.585 2.585 0 0 1 1.672-.928v-.8a1.954 1.954 0 0 0-1.142.273 3.4 3.4 0 0 0-.71.543"/></svg>