<svg xmlns="http://www.w3.org/2000/svg" viewBox="0 0 24 24"><path fill="#44739e" d="M21.441 8.668A1.559 1.559 0 1 0 23 10.227a1.559 1.559 0 0 0-1.559-1.559m0 2.837a1.278 1.278 0 1 1 1.278-1.278 1.278 1.278 0 0 1-1.278 1.278m-.782-1.31.426-.155v.961l.859-.308v-1.28l-1.285.463Zm-12.986 1.63a2.327 2.327 0 0 0-1.76.789 1.181 1.181 0 0 0-1.21-.789 2.945 2.945 0 0 0-1.782.897v-.416a.366.366 0 0 0-.404-.402H1v.721h.64a.285.285 0 0 1 .319.318v1.809c0 .043.009.064.036.073a.07.07 0 0 0 .079-.027c.482-.504.826-.872 1.201-1.239.479-.47.88-.855 1.37-.855a.614.614 0 0 1 .66.702v.852c0 .043.01.064.038.074a.073.073 0 0 0 .078-.026c.22-.25.66-.712.976-1.004a1.76 1.76 0 0 1 1.12-.598.559.559 0 0 1 .589.352 1.05 1.05 0 0 1 .055.395v.873h.958v-.928a1.683 1.683 0 0 0-.2-.861 1.398 1.398 0 0 0-1.246-.71m6.683-2.409h-1.513v.716h.618a.285.285 0 0 1 .318.319v2.045a2.192 2.192 0 0 0-1.616-.675 2.31 2.31 0 0 0-2.318 2.231 2.26 2.26 0 0 0 .339 1.28h1.07a2.21 2.21 0 0 1-.447-1.28 1.351 1.351 0 0 1 1.351-1.352 2.068 2.068 0 0 1 1.282.594c.361.285.936.756 1.21.998a.078.078 0 0 0 .078.027c.028-.009.037-.031.037-.073V9.813a.366.366 0 0 0-.409-.397m2.959 3.306v-.416a.366.366 0 0 0-.403-.402h-1.514v.721h.64a.284.284 0 0 1 .318.318v1.816c0 .042.01.064.037.072a.072.072 0 0 0 .078-.026c.22-.22.717-.762 1.042-1.08a2.844 2.844 0 0 1 1.839-1.021v-.88a2.15 2.15 0 0 0-1.256.3 3.74 3.74 0 0 0-.781.598"/></svg>