<svg xmlns="http://www.w3.org/2000/svg" fill="#44739e" viewBox="0 0 24 24"><path d="M7.505 13.288c.018.015 2.885-2.849 2.885-2.881S5.343 5.333 4.081 4.1c-.462-.45-.862-.82-.885-.82a.67.67 0 0 0-.214.18 3.57 3.57 0 0 0-.752 1.3c-.059.169-.1.308-.1.308a1.1 1.1 0 0 1-.026.148A4.18 4.18 0 0 0 2.07 6.9c.213 1.016.527 1.46 2.313 3.264.59.598 3.017 3.021 3.122 3.124m6.895-1.629a.48.48 0 0 1 .2.128 2.094 2.094 0 0 0 3-.136c.391-.338.589-.531 2.5-2.435L22 7.32l-.477-.482c-.26-.267-.48-.48-.486-.474s-.758.752-1.67 1.661l-1.659 1.656-.474-.468c-.263-.258-.476-.48-.476-.489s.743-.767 1.655-1.679l1.653-1.659-.466-.477c-.258-.263-.477-.476-.486-.476s-.764.746-1.676 1.655l-1.664 1.659-.485-.48-.486-.48 1.658-1.658c.913-.913 1.659-1.668 1.659-1.677s-.575-.6-.865-.879l-.1-.095-.965.983c-1.961 2.005-2.832 2.909-3.326 3.46-.095.106-.184.2-.193.207s-.092.1-.183.21a1.814 1.814 0 0 0-.228 1.777 4 4 0 0 0 .4.738c.012.009.074.074.14.142l.118.124-4.969 4.973-4.97 4.97.723.729.72.731 3.554-3.554 3.551-3.551 3.531 3.53c1.942 1.94 3.545 3.534 3.56 3.54s1.4-1.36 1.421-1.416c.006-.015-1.581-1.62-3.527-3.566l-3.537-3.539.548-.542c.741-.735.777-.765.877-.765"/></svg>