<svg xmlns="http://www.w3.org/2000/svg" viewBox="0 0 24 24"><path fill="#44739e" d="M10.856 5.522a.717.717 0 0 0-.724-.796h-.221l-.194 1.677h.426c.506 0 .713-.444.713-.881m2.586-.723h-.008l-.373 1.117h.494ZM20.074 1H3.926A2.939 2.939 0 0 0 1 3.926v16.148A2.939 2.939 0 0 0 3.926 23h16.148A2.939 2.939 0 0 0 23 20.074V3.926A2.939 2.939 0 0 0 20.074 1m-3.755 3.305h1.339l-.051.421h-.884l-.072.593h.774l-.051.422H16.6l-.081.664h1.114l-.051.422h-1.568Zm-1.946 1.869a1.048 1.048 0 0 0 .608.259.278.278 0 0 0 .309-.277c0-.418-.789-.466-.789-1.128a.735.735 0 0 1 .753-.76 1.067 1.067 0 0 1 .61.2l-.065.443a.966.966 0 0 0-.531-.221.281.281 0 0 0-.302.276c0 .364.79.411.79 1.117a.711.711 0 0 1-.725.774 1.12 1.12 0 0 1-.727-.24Zm-.622-1.906.379 2.554h-.471l-.065-.553h-.664l-.207.553h-.502l1.048-2.554Zm-1.912.037h.454l-.302 2.517h-.454Zm-2.323 0h.712a1.093 1.093 0 0 1 1.106 1.225c0 .75-.442 1.292-1.011 1.292H9.217Zm-1.804 0H9.05l-.051.421h-.884l-.073.593h.774l-.051.422h-.774l-.08.664h1.112l-.051.422H7.405ZM4.258 6.822l.698-2.517h.499L5.8 5.891l.721-1.586h.483l.102 2.517h-.442l-.066-1.703h-.005L5.8 6.822h-.215l-.378-1.75H5.2l-.484 1.75Zm2.485 1.732v2.018H4.726V8.554Zm12.361 12.118h-2.017v-4.29a2.018 2.018 0 0 0-2.017-2.017c-.442 0-1.908.177-2.15 2.381a4.594 4.594 0 0 1-1.786 3.407 4.147 4.147 0 0 1-2.371.774 4.037 4.037 0 0 1-4.035-4.035v-4.291h2.015v4.289a2.018 2.018 0 0 0 2.018 2.017c.442 0 1.907-.176 2.151-2.381a4.585 4.585 0 0 1 1.786-3.407 4.177 4.177 0 0 1 2.37-.774 4.037 4.037 0 0 1 4.036 4.035Zm.59-15.946h-.698l-.251 2.101h-.454l.251-2.101h-.68l.051-.421h1.829Z"/></svg>