<svg xmlns="http://www.w3.org/2000/svg" viewBox="0 0 24 24"><path fill="#44739e" d="M17.574 8.115a7.54 7.54 0 0 1-.371 1.3c.482.094.425.748.975.628l.627-.697c.229-.471-.415-.582-.186-1.092a.518.518 0 0 0-.487-.209 3.05 3.05 0 0 0-.558.07m-4.716 1.208h.604l.999-1.464a2.144 2.144 0 0 1 .836-.626V7a.722.722 0 0 0-.77-.44c-.34.316-.603-.041-.975-.023a.62.62 0 0 0-.163.046c-.773.311-.455 1.819-.531 2.74m-5.295 0-.074-.302a3.22 3.22 0 0 0-.99-.097 1.659 1.659 0 0 0-1.394.77c-.093.228.138.36.33.348a2.916 2.916 0 0 1 2.128-.719m-1.255-2.09c.068.187-.119.267-.093.44 0 .282.313.219.488.329.536 0 1.261.585 1.556-.139.175-.161.541-.07.581-.33-.294-.33 0-.939-.371-1.21-.35.403-.596-.22-1-.07-.341.306-.61-.019-.975-.023a.66.66 0 0 0-.163.023.449.449 0 0 0-.278.302.73.73 0 0 0 .255.678m7.479 2.113 1.859-.023c.079 0 .84.01 1.069.023.549-.497.321-1.367.603-1.998.134-.589.66-.829.929-1.416-.19-.101-.479-.461-.697-.396-.071.022-.136.092-.186.233a2.624 2.624 0 0 1-1.37 1.416c-1.1.243-1.536 1.422-2.207 2.161m-5.876 0h1.463l.094-.511a1.715 1.715 0 0 1 .44-.627 1.71 1.71 0 0 0-.813-.232 1.28 1.28 0 0 0-.836.209 1.19 1.19 0 0 0-.348 1.161m1.951-1.51c.014-.007.071 0 .255.163.303-.11.495-.287.814-.209.013-.121 0-.534 0-.534a2.14 2.14 0 0 0-.604-.094 2.034 2.034 0 0 0-1.255.489 2.39 2.39 0 0 1 .744.162c.017.024.042.019.046.023m.14.698a1.42 1.42 0 0 0-.257.812h1.232V8.185a1.42 1.42 0 0 0-.975.349m-3.456 1.653c-.028.366 0 .804 0 1.266 0 .487.009 1.001.009 1.477 0 .568 0 1.084-.011 1.443 0 .316-.008.511 0 .514a1 1 0 0 0 .629.806l.859-.02h7.933l.858.02a1 1 0 0 0 .629-.806v-.514c0-.359-.012-.879-.012-1.443 0-.476.009-.99.01-1.477 0-.462.032-.9 0-1.266a.936.936 0 0 0-.672-.576h-4.277l-.006-5.287c-.068-.227-.296-.284-.498-.352-.202.068-.43.125-.497.352l-.006 5.287H7.216a.938.938 0 0 0-.67.576m2.897 11.272a.44.44 0 0 1 .316.128l.101.11a.352.352 0 0 0 .234.085.358.358 0 0 0 .361-.355.557.557 0 0 0-.264-.422 1.188 1.188 0 0 0-.743-.264 1.129 1.129 0 1 0-.005 2.258 1.21 1.21 0 0 0 .77-.285.55.55 0 0 0 .238-.396.364.364 0 0 0-.36-.346.37.37 0 0 0-.254.102l-.077.076a.454.454 0 0 1-.325.141.417.417 0 1 1 0-.833Zm-3.69 0a.396.396 0 0 0 .279-.076.33.33 0 0 0 .118-.259.32.32 0 0 0-.254-.31.95.95 0 0 0-.276-.015h-.44a.65.65 0 0 0-.316.037.31.31 0 0 0-.172.172.54.54 0 0 0-.036.275v1.166a.77.77 0 0 0 .016.213.33.33 0 0 0 .208.26.75.75 0 0 0 .279.025h.564a.423.423 0 0 0 .306-.072.34.34 0 0 0 .116-.258.323.323 0 0 0-.116-.25.42.42 0 0 0-.306-.081h-.33v-.167h.26a.33.33 0 0 0 .228-.056.258.258 0 0 0-.198-.458h-.296v-.146Zm2.089.66a.754.754 0 0 0 .239-.55.777.777 0 0 0-.584-.742 1.4 1.4 0 0 0-.357-.028h-.414a.354.354 0 0 0-.22.093.365.365 0 0 0-.122.314v1.327a.445.445 0 0 0 .087.299.385.385 0 0 0 .289.134.353.353 0 0 0 .356-.362v-.289l.305.482a.342.342 0 0 0 .3.169.355.355 0 0 0 .366-.351.42.42 0 0 0-.071-.229Zm-.645-.432h-.082v-.228h.076c.11 0 .174.035.174.11s-.059.121-.168.118m14.877.753-.702-1.444a.373.373 0 0 0-.339-.22.366.366 0 0 0-.33.214l-.692 1.429a.44.44 0 0 0-.051.188.358.358 0 0 0 .366.356c.177 0 .283-.09.377-.3h.675c.103.22.207.3.376.3a.363.363 0 0 0 .366-.356.35.35 0 0 0-.046-.167m-1.154-.29.11-.254.11.254Zm-1.54-1.373a.371.371 0 0 0-.299.158.41.41 0 0 0-.067.279v.402l-.58-.697a.338.338 0 0 0-.274-.142.36.36 0 0 0-.381.382v1.361a.418.418 0 0 0 .077.3.386.386 0 0 0 .295.143.372.372 0 0 0 .279-.133.385.385 0 0 0 .081-.283v-.448l.58.717a.364.364 0 0 0 .574.014.45.45 0 0 0 .081-.33v-1.306a.4.4 0 0 0-.086-.285.374.374 0 0 0-.28-.132m-7.566-1.304a9.237 9.237 0 1 0-9.223-9.244 9.255 9.255 0 0 0 9.223 9.244m0-17.813a8.583 8.583 0 1 1-8.577 8.577 8.577 8.577 0 0 1 8.577-8.58ZM7.586 8.814l.139-.33a5.47 5.47 0 0 1-1.719-.55.836.836 0 0 1 .047-.603 1.194 1.194 0 0 0-.88-.256.605.605 0 0 0-.279.11c-.026.525-.721.312-.88.77-.202.497.492.411.464.814a.503.503 0 0 0 .604.33 3.642 3.642 0 0 1 2.504-.285m8.815 11.928a1.129 1.129 0 1 0 1.17 1.128 1.138 1.138 0 0 0-1.17-1.128m.006 1.555a.433.433 0 0 1-.44-.427.44.44 0 0 1 .879 0 .44.44 0 0 1-.439.427m-4.321-1.301a.383.383 0 0 0-.345-.22.369.369 0 0 0-.336.214l-.691 1.429a.44.44 0 0 0-.046.188.354.354 0 0 0 .361.356c.177 0 .283-.09.376-.3h.681c.103.22.202.3.371.3a.363.363 0 0 0 .366-.356.35.35 0 0 0-.041-.167Zm-.457 1.154.11-.254.11.254Zm3.039-1.083a1.158 1.158 0 0 0-.801-.268h-.524a.351.351 0 0 0-.33.235.73.73 0 0 0-.015.249v1.177a.95.95 0 0 0 .01.234.308.308 0 0 0 .153.192.5.5 0 0 0 .31.056h.31a2.27 2.27 0 0 0 .376-.025 1.1 1.1 0 0 0 .518-.259 1.057 1.057 0 0 0-.01-1.591Zm-.539 1.149c-.085.058-.148.062-.401.066v-.823h.061a.66.66 0 0 1 .284.041.412.412 0 0 1 .235.371.432.432 0 0 1-.179.345m-9.886-1.103a.374.374 0 0 0-.11-.239.385.385 0 0 0-.25-.097.373.373 0 0 0-.329.194l-.367.756-.329-.711a.405.405 0 0 0-.367-.239.364.364 0 0 0-.36.33l-.25 1.378a.9.9 0 0 0 0 .091.362.362 0 0 0 .366.387.368.368 0 0 0 .365-.33l.062-.34.142.386a.38.38 0 0 0 .376.29.391.391 0 0 0 .371-.295l.148-.381.081.401a.349.349 0 0 0 .361.275.352.352 0 0 0 .361-.347.63.63 0 0 0-.016-.122Z"/></svg>