<svg xmlns="http://www.w3.org/2000/svg" fill="#44739e" viewBox="0 0 24 24"><path d="m7.312 14.683-1.443-2.61H5.02v4.289h.692v-3.287l1.266 2.276h.649l1.266-2.276v3.287h.692v-4.289h-.83zm8.401 1.117a2.23 2.23 0 0 1-.426.04c-.386 0-.542-.174-.542-.665v-1.441h.968v-.567h-.968v-.938h-.668v.938h-.638v.567h.638v1.516q0 1.184 1.081 1.183a1.97 1.97 0 0 0 .555-.077zm3.48.562v-3.195h-.655v.41a1.221 1.221 0 0 0-1.02-.487 1.524 1.524 0 0 0-1.487 1.673 1.518 1.518 0 0 0 1.45 1.676 1.235 1.235 0 0 0 1.057-.524v.447zm-.668-1.118a.94.94 0 0 1-.9.588c-.573 0-.91-.425-.91-1.069a.936.936 0 0 1 .938-1.066.9.9 0 0 1 .873.588zm-6.759-2.154a1.557 1.557 0 0 0-1.566 1.682 1.565 1.565 0 0 0 1.617 1.666 1.91 1.91 0 0 0 1.346-.5l-.368-.45a1.268 1.268 0 0 1-.953.371.926.926 0 0 1-.956-.843h2.35v-.19c.001-1.036-.549-1.736-1.47-1.736m-.879 1.419a.889.889 0 0 1 .867-.837.805.805 0 0 1 .818.837zm2.94.183v-.708h-.424Zm-5.184-.653L7.775 15.6h-.46a2.04 2.04 0 0 1-1.353.875v.136H4.77v-.591c-.023-.026-.048-.045-.07-.073s-.066-.072-.094-.118a3.31 3.31 0 0 1-.384-1.691c0-.05 0-.1.006-.149a9.6 9.6 0 0 1 1.289-4.755c.026-.042.049-.088.076-.129A2.762 2.762 0 0 1 7.761 7.6c.053 0 .1.008.15.011A3.1 3.1 0 0 1 9.973 8.8a11.8 11.8 0 0 1 .927 1.169l.093.133.093.133c.26.375.539.8.831 1.275l.09.146c.029.049.059.1.089.147.021.035.042.067.063.1l1 1.679c.008.012.019.021.026.033v-.7h.637v-.938h.922l-.465-.776c-.331-.551-.645-1.046-.948-1.5l-.09-.137-.093-.133c-.27-.395-.531-.759-.784-1.084a2.2 2.2 0 0 0-.1-.123c-.036-.041-.065-.079-.1-.12a10.68 10.68 0 0 0-1.523-1.581 4.34 4.34 0 0 0-2.695-1.064c-.05 0-.1-.012-.15-.012A4.989 4.989 0 0 0 3.769 8.02c-.027.041-.045.091-.071.133a11.35 11.35 0 0 0-1.609 5.759c0 .049-.01.1-.01.149a8.3 8.3 0 0 0 .043.847 5.16 5.16 0 0 0 .658 2.124c.026.044.056.083.084.124a3.209 3.209 0 0 0 2.886 1.469c1.235 0 2.173-.554 3.271-2.012h-.378ZM15 13.984v1.186c0 .415.1.415.291.415a2.07 2.07 0 0 0 .386-.036l.229-.038a2.32 2.32 0 0 1-.119-.748 2.26 2.26 0 0 1 .132-.779zm6.912-.104A11.023 11.023 0 0 0 20.2 7.869a4.8 4.8 0 0 0-3.9-2.423 3.886 3.886 0 0 0-2.524 1.082A10.32 10.32 0 0 0 12.362 8.1c.033.041.94 1.284.971 1.329.029-.043.058-.092.087-.134.927-1.378 1.751-2.151 2.776-2.151A3.09 3.09 0 0 1 18.669 8.8a10.04 10.04 0 0 1 1.353 5.143c0 .049.008.1.008.149a2.872 2.872 0 0 1-.587 2.022v.5h-1.156v-.134a1.56 1.56 0 0 1-.806.209 1.63 1.63 0 0 1-1.518-1.016v.873l-.182.051a2.24 2.24 0 0 1-.618.085 8.5 8.5 0 0 0 .816.937 3.33 3.33 0 0 0 2.382 1h.149a2.976 2.976 0 0 0 2.7-1.5 6.02 6.02 0 0 0 .712-3.1c-.001-.038-.009-.09-.01-.139M11.3 12.9c.172-.3.6-1.063.619-1.1-.031-.052-.988-1.526-1.018-1.568 0 0-.475.752-1.068 1.674v3.524c.049-.078.1-.163.154-.25a2.3 2.3 0 0 1-.038-.408A1.834 1.834 0 0 1 11.3 12.9m3.7.017h.322c-.1-.167-.211-.347-.322-.531Z"/></svg>