<svg xmlns="http://www.w3.org/2000/svg" fill="#44739e" viewBox="0 0 24 24"><path d="m18.903 12.456-.745-2.362h-1.335l1.414 3.637h1.298l1.4-3.637h-1.338zm-5.672-1.46h1.14v2.735h1.224v-2.734h1.113v-.903h-3.477Zm8.039-2.159H2.73a.729.729 0 0 0-.73.729v4.868a.729.729 0 0 0 .73.729h18.54a.729.729 0 0 0 .73-.729V9.566a.729.729 0 0 0-.73-.729m-14.58 5.5v-.258c.076-.007.168-.018.278-.034a1.03 1.03 0 0 0 .224-.049.36.36 0 0 0 .177-.136.417.417 0 0 0 .053-.218v-3.518L5.8 14.261h-.416c-.02-.073-.069-.217-.147-.434s-.143-.391-.192-.522l-1.19-3.234v2.862a2.66 2.66 0 0 0 .055.625.567.567 0 0 0 .177.313.87.87 0 0 0 .295.129 2.14 2.14 0 0 0 .3.073v.258H2.65v-.258c.056-.007.146-.022.271-.045a.76.76 0 0 0 .308-.121.483.483 0 0 0 .18-.313 3.33 3.33 0 0 0 .046-.629v-2.327a1 1 0 0 0-.053-.353.5.5 0 0 0-.16-.224.67.67 0 0 0-.272-.133 2.2 2.2 0 0 0-.282-.039V9.63h2.178l1.155 3.1.985-2.517a3.1 3.1 0 0 0 .1-.33 1.8 1.8 0 0 0 .05-.251h2.082v.258a2.1 2.1 0 0 0-.222.027 1.6 1.6 0 0 0-.223.053.264.264 0 0 0-.171.136.5.5 0 0 0-.041.205v3.332a.45.45 0 0 0 .041.2.342.342 0 0 0 .171.141.97.97 0 0 0 .218.056c.1.018.179.03.233.037v.258zm5.333-.437a1.7 1.7 0 0 1-.373.286 2.04 2.04 0 0 1-.449.19 1.93 1.93 0 0 1-.523.064 2.33 2.33 0 0 1-.848-.14 1.65 1.65 0 0 1-.588-.375 1.5 1.5 0 0 1-.347-.555 2.04 2.04 0 0 1-.114-.7 1.71 1.71 0 0 1 .124-.649 1.76 1.76 0 0 1 .353-.553 1.69 1.69 0 0 1 .569-.381 1.95 1.95 0 0 1 .769-.146 2.2 2.2 0 0 1 .763.113 1.34 1.34 0 0 1 .494.312 1.126 1.126 0 0 1 .275.445 1.65 1.65 0 0 1 .087.539v.216H9.97a1.72 1.72 0 0 0 .262 1.034 1.1 1.1 0 0 0 1.4.185 1.61 1.61 0 0 0 .426-.429l.25.183a1.96 1.96 0 0 1-.285.361m9.335.19a.486.486 0 0 1-.486.486h-7.733a.487.487 0 0 1-.487-.486v-4.2a.486.486 0 0 1 .487-.486h7.733a.485.485 0 0 1 .486.486ZM11.02 11.867a1.35 1.35 0 0 0-.07-.341.516.516 0 0 0-.155-.236.39.39 0 0 0-.249-.08.463.463 0 0 0-.41.259 1.76 1.76 0 0 0-.166.82l1.071-.013c0-.133-.007-.269-.021-.409"/></svg>