<svg xmlns="http://www.w3.org/2000/svg" fill="#44739e" viewBox="0 0 24 24"><path d="M17.291 2.55a3.24 3.24 0 0 0-1.364-.366C14.677 2.073 13.309 1.992 12 2a32.7 32.7 0 0 0-4.11.253c-1.73.177-2.47.908-2.47 3.075v13.047c1.357 1.023 4.452 1.38 6.735 1.369 2.416-.009 5.291-.45 6.424-1.409V5.332c.001-1.832-.439-2.253-1.288-2.782m-4.215 15.467a1.011 1.011 0 1 1-2.021 0v-6.352a1.011 1.011 0 0 1 2.021 0zm-1.012 1.877c-2.348 0-5.24-.352-6.643-1.332a2.58 2.58 0 0 0 .4 1.508 4.852 4.852 0 0 0 3.574 1.779A18.3 18.3 0 0 0 12 22c.839-.01 1.914-.056 2.779-.148 2.426-.372 3.692-1.238 3.794-3.318-1.293.986-4.21 1.352-6.417 1.361zm.002-9.059a.832.832 0 0 0-.831.83v6.352a.831.831 0 1 0 1.661 0v-6.352a.831.831 0 0 0-.83-.83m.071 6.809v.326h-.132v-.326zm-.28-.255v-.149h.428v.149zm.134-.357v-4.355h.15v4.355zm.15-4.685v.153h-.15v-.151h-.134V12.2h.134v-.152h.15v.152h.144v.15zm-.075-.532a.365.365 0 0 1-.348-.258h.128a.244.244 0 0 0 .44 0h.128a.364.364 0 0 1-.348.258m0-.728a.363.363 0 0 1 .347.257h-.128a.244.244 0 0 0-.44 0h-.128a.364.364 0 0 1 .349-.257m0 7.378a.364.364 0 0 1-.145-.7v.138a.244.244 0 1 0 .388.2.245.245 0 0 0-.088-.188v-.14a.363.363 0 0 1-.155.692z"/></svg>