<svg xmlns="http://www.w3.org/2000/svg" viewBox="0 0 24 24"><path fill="#44739e" d="M17.821 1.606a3.56 3.56 0 0 0-1.5-.403c-1.375-.122-2.88-.211-4.319-.202a36 36 0 0 0-4.521.278c-1.903.195-2.717.999-2.717 3.382v14.35c1.493 1.125 4.897 1.518 7.408 1.506 2.657-.01 5.82-.495 7.066-1.55V4.665c.001-2.015-.483-2.478-1.417-3.059m-4.636 17.011a1.112 1.112 0 1 1-2.223 0v-6.986a1.112 1.112 0 0 1 2.223 0Zm-1.113 2.065c-2.582 0-5.763-.387-7.306-1.465a2.84 2.84 0 0 0 .439 1.658 5.337 5.337 0 0 0 3.931 1.957 20.1 20.1 0 0 0 2.866.166c.922-.011 2.105-.061 3.056-.163 2.668-.409 4.061-1.361 4.173-3.649-1.422 1.084-4.63 1.487-7.058 1.497Zm.002-9.964a.915.915 0 0 0-.914.913v6.986a.914.914 0 1 0 1.827 0v-6.986a.914.914 0 0 0-.913-.913m.078 7.489v.359h-.145v-.359Zm-.308-.28v-.164h.471v.164Zm.148-.393v-4.79h.165v4.79Zm.165-5.153v.168h-.165v-.166h-.148v-.164h.148v-.167h.165v.167h.158v.165Zm-.083-.585a.401.401 0 0 1-.383-.284h.141a.268.268 0 0 0 .484 0h.141a.4.4 0 0 1-.383.284m0-.801a.399.399 0 0 1 .382.283h-.141a.268.268 0 0 0-.484 0h-.141a.4.4 0 0 1 .384-.283m0 8.115a.4.4 0 0 1-.159-.77v.152a.268.268 0 1 0 .426.22.269.269 0 0 0-.096-.207v-.154a.399.399 0 0 1-.171.761Z"/></svg>