<svg xmlns="http://www.w3.org/2000/svg" viewBox="0 0 24 24"><path fill="#44739e" d="m22.086 19.877-2.079-.04c.011.071.016.129.013.169-.008.073-.103.193-.242.325l1.205 1.583c.106.14.073.339-.072.437l-.149.1a.304.304 0 0 1-.425-.087l-1.062-1.641c-.239.155-.481.273-.634.277l-.607 1.792a.304.304 0 0 1-.402.186l-.166-.068a.304.304 0 0 1-.166-.402l.77-1.807a5.1 5.1 0 0 1-.339-.301c-1.668.933-3.643 1.412-5.731 1.412-2.117 0-4.091-.473-5.75-1.393a5.2 5.2 0 0 1-.29.257l.782 1.833a.304.304 0 0 1-.166.401l-.166.068a.304.304 0 0 1-.403-.186L5.4 20.998c-.142.019-.394-.096-.645-.256l-1.05 1.622a.304.304 0 0 1-.426.087l-.148-.1a.304.304 0 0 1-.072-.437l1.189-1.56c-.153-.141-.259-.27-.266-.348a.73.73 0 0 1 .012-.168l-2.039.039a.304.304 0 0 1-.309-.304v-.18c0-.174.146-.313.321-.303l2.18.126c.032-.11.063-.211.088-.29-1.795-1.752-2.895-4.279-2.895-7.52C1.34 5.658 6.113 1 12.001 1 17.888 1 22.66 5.659 22.66 11.406c0 3.22-1.114 5.736-2.904 7.487.025.082.061.198.098.324l2.221-.128c.174-.009.322.129.322.304v.18a.304.304 0 0 1-.311.304m-3.411-1.64c1.668-1.507 2.766-3.771 2.766-6.831 0-5.046-4.198-9.188-9.441-9.188-5.241 0-9.441 4.142-9.441 9.188 0 3.071 1.075 5.332 2.725 6.834 1.665 1.518 4.019 2.354 6.716 2.354 2.631 0 4.989-.834 6.675-2.357m-2.817 1.2c.346-.34.523-1.047.583-1.345a.097.097 0 0 0-.112-.116l-2.331.376a.101.101 0 0 0-.082.08l-.27 1.309a.098.098 0 0 0 .086.119c.371.034 1.592.105 2.126-.422Zm-7.715 0c-.346-.34-.523-1.047-.584-1.345a.097.097 0 0 1 .113-.116l2.331.376a.101.101 0 0 1 .082.08l.27 1.309a.098.098 0 0 1-.087.119c-.37.034-1.591.105-2.126-.422ZM12 17.65c7.31 0 8.427-2.618 8.427-6.6 0-3.98-3.773-7.918-8.427-7.918-4.653 0-8.426 3.938-8.426 7.919S4.691 17.65 12 17.65m6.461-2.318c.97-.937 1.255-2.321 1.255-4.281 0-3.569-3.435-7.208-7.716-7.208s-7.715 3.639-7.715 7.208c0 1.96.285 3.344 1.255 4.281.986.953 2.851 1.607 6.46 1.607 3.61 0 5.475-.655 6.461-1.607"/></svg>