<svg xmlns="http://www.w3.org/2000/svg" viewBox="0 0 24 24"><path fill="#44739e" d="M23 9.405h-6.93a4.822 4.822 0 0 0-8.131 0H1l.691.691h5.884a4.84 4.84 0 0 0-.265.804H2.495l.682.682h4.021c-.014.139-.02.279-.022.418s.008.258.02.386H3.981l.682.682h2.64a4.87 4.87 0 0 0 .254.805h-2.09l.691.69h1.76a4.813 4.813 0 0 0 8.16 0h1.76l.691-.69h-2.09a4.87 4.87 0 0 0 .254-.805h2.64l.682-.682h-3.211q.017-.193.02-.386c0-.139-.009-.279-.022-.418h4.021l.682-.682H16.69a4.84 4.84 0 0 0-.265-.804h5.884ZM12 16.17A4.17 4.17 0 0 1 7.83 12 4.169 4.169 0 0 1 12 7.831a4.17 4.17 0 1 1 0 8.339m1.881-3.807-.983-1.443h-.472v2.161h.45v-1.41l.969 1.41h.487V10.92h-.451Zm.95-1.443h.486v2.162h-.486Zm-4.986 1.474-.436-1.474h-.726v2.161h.45V11.38l.477 1.701h.466l.477-1.701v1.701h.451V10.92h-.728Zm1.629-1.474h.485v2.162h-.485Z"/></svg>