<svg xmlns="http://www.w3.org/2000/svg" viewBox="0 0 24 24"><path fill="#44739e" d="M19.567 9.731a.569.569 0 0 1-.569.568.569.569 0 0 1-.568-.568.569.569 0 0 1 .568-.569.569.569 0 0 1 .569.569M4.143 23h15.906v-2.808H4.143Zm13.956-2.302a.899.899 0 1 1-.898.898.899.899 0 0 1 .898-.898m-2.443 0a.899.899 0 1 1-.898.898.898.898 0 0 1 .898-.898m-2.396 0a.899.899 0 1 1-.899.898.898.898 0 0 1 .899-.898m-2.519 0a.899.899 0 1 1-.899.898.899.899 0 0 1 .899-.898m-2.444 0a.899.899 0 1 1-.898.898.899.899 0 0 1 .898-.898m-2.397 0a.899.899 0 1 1-.898.898.899.899 0 0 1 .898-.898M21.042 1H2.958a1.76 1.76 0 0 0-1.76 1.76v18.084a1.76 1.76 0 0 0 1.76 1.76h.844v-2.75h16.589v2.75h.651a1.76 1.76 0 0 0 1.76-1.76V2.76A1.76 1.76 0 0 0 21.042 1m-2.044 9.629a.899.899 0 0 1-.899-.898.88.88 0 0 1 .369-.701V7.545h.231v1.348a.88.88 0 0 1 .299-.061.86.86 0 0 1 .254.052V7.545h.228v1.448a.88.88 0 0 1 .415.738.899.899 0 0 1-.897.898"/></svg>