<svg xmlns="http://www.w3.org/2000/svg" fill="#44739e" viewBox="0 0 24 24"><path d="M21.933 11.515c-.022-.022-.145-.1-.784-.1h-.036c-.523 0-.707.058-.768.109a.555.555 0 0 0-.227.485c0 .238.145.335.5.335h.654c.154 0 .254.063.254.161 0 .114-.089.248-.341.248h-.433c-.3 0-.342-.116-.342-.185h-.45a.62.62 0 0 0-.016.124.316.316 0 0 0 .089.239 1.71 1.71 0 0 0 .823.116c.25 0 .77 0 .913-.145a.846.846 0 0 0 .193-.518.278.278 0 0 0-.079-.22c-.041-.04-.191-.109-.735-.109-.507 0-.6-.039-.6-.151 0-.132.147-.191.476-.191s.44.008.5.071a.135.135 0 0 1 .039.073h.447c0-.042.007-.1.007-.134v-.013a.235.235 0 0 0-.084-.195m-3.026.972a.662.662 0 0 1-.465.169.68.68 0 0 1-.384-.118c-.1-.1.037-.763.116-1.1H17.7c-.07.32-.224 1.052-.224 1.177a.369.369 0 0 0 .336.407 1.3 1.3 0 0 0 .3.028 1.06 1.06 0 0 0 .256-.028.96.96 0 0 0 .53-.332l.126-.157-.093.487h.45l.309-1.579h-.47a3.46 3.46 0 0 1-.313 1.046m-1.885-.987c-.047-.04-.186-.088-.584-.088-.45 0-.609.1-.731.261l-.132.18.215-1.108h-.481l-.449 2.266h.49l.07-.361.065.15c.058.137.142.241.624.241s.6-.025.735-.166a2.33 2.33 0 0 0 .294-.954.452.452 0 0 0-.116-.42zm-.385.757v.008c-.051.179-.074.261-.148.314a1.48 1.48 0 0 1-.465.083c-.1 0-.416-.006-.5-.088-.014-.014-.056-.056-.026-.269.018-.127.076-.38.168-.431a1.09 1.09 0 0 1 .468-.073c.279 0 .414.015.47.071a.394.394 0 0 1 .033.389zm-2.537-.448-.064-.152c-.075-.18-.216-.241-.557-.241-.582 0-.675.092-.843.26a2.15 2.15 0 0 0-.25.886v.038a.413.413 0 0 0 .091.323c.116.117.208.126.671.126.427 0 .582-.136.661-.238l.129-.166-.072.374h.5l.443-2.27H14.3Zm-.062.287-.04.2c-.043.163-.066.242-.138.293a1.47 1.47 0 0 1-.468.083c-.1 0-.416-.007-.5-.089-.014-.014-.056-.056-.026-.269.018-.127.076-.38.168-.431a1.12 1.12 0 0 1 .468-.073c.279 0 .413.016.472.071a.263.263 0 0 1 .063.209zm-2.121-.561a1.445 1.445 0 0 0-.769-.119 1.42 1.42 0 0 0-1.034.26 2.15 2.15 0 0 0-.25.886v.038a.412.412 0 0 0 .09.323c.117.117.431.126.9.126a1.59 1.59 0 0 0 .907-.2c.145-.1.26-.657.287-.922a.458.458 0 0 0-.126-.388zm-.392.726v.008c-.05.179-.073.261-.147.314a1.48 1.48 0 0 1-.465.083c-.1 0-.416-.006-.5-.088-.014-.014-.057-.056-.026-.269.018-.127.076-.38.168-.431a1.08 1.08 0 0 1 .467-.073c.28 0 .415.015.471.071s.093.168.032.385m-3.924-.035-.509-1.481H6.083l-.456 2.27h.585l.356-1.812.643 1.812h.465l1.361-1.834-.359 1.834h.568l.462-2.27H8.706Zm-1.868-.248-.02.012.017.004Zm-.021.105-.023-.007.018.035Zm-.129.641.027-.132.029-.144.013-.067-.216-.099Zm1.294-2.079v-.11l-.119.11zm-1.073.982.002-.009.022-.113-.19.177.152.011zm1.83.386.211-.282a.8.8 0 0 0-.289.056zm.093 1.103h-.418A.8.8 0 0 0 8.5 12.072Zm-1.104-2.471.193-.179-.263-.017.074-.071.318.029v.238h.215l.127.355a.8.8 0 1 0-.955-.358Zm.708.484.182.531.04-.015a2.1 2.1 0 0 0-.145-.547.7.7 0 0 1-.077.031m-.735.453-.11.562-.013.066.385.112-.027-.078Zm.144 2.027a2.28 2.28 0 0 0 .426-.447.92.92 0 0 1-.213-.448l.05.015-.017-.047-.036.02a.9.9 0 0 1-.033-.173V12.5l-.028-.078-.434-.122-.012.066-.148.753h-.582l.265.8.128-.242.037.11-.162.283-.3-.13-.037-.109.247.117-.276-.824h-.11l.016-.08.026-.132-.2-.593-.125.231-.034-.1.156-.279.293.127.011.022.01.03.023-.114L5.566 12l.186-.113.023-.111-.27-.027-.005-.326.083-.077v.272l.283-.263.023-.113.12-.6h.18a.923.923 0 0 1-.011-.767 2.4 2.4 0 0 0-.635-.164.936.936 0 0 1-.581.672l-.037-.129a.8.8 0 1 0-.293.056.6.6 0 0 0 .076 0l.038.131a1.1 1.1 0 0 1-.114.007.93.93 0 0 1-.721-.342 2.32 2.32 0 0 0-.475.43.92.92 0 0 1 .315.837l-.13-.04a.7.7 0 0 0 0-.09.794.794 0 1 0-.061.308l.128.039a.935.935 0 0 1-.745.577 2.13 2.13 0 0 0 .163.6.927.927 0 0 1 1.024.133l-.095.094a.806.806 0 1 0 .148.168l.1-.1a.928.928 0 0 1 .094.9 2.42 2.42 0 0 0 .716.156.934.934 0 0 1 .537-.769l.043.128a.8.8 0 1 0 .349-.081.86.86 0 0 0-.136.012l-.043-.128a.9.9 0 0 1 .179-.018.931.931 0 0 1 .718.347M4.6 9.737l-.128.249-.036-.118.164-.294.293.162.034.117-.242-.141.526 1.817.134-.255.037.128-.168.294-.3-.159-.037-.127.248.144zm-1.543 1.589.131.241-.113-.035-.156-.3.294-.158.113.035-.245.128 1.777.544-.137-.247.121.037.153.3-.294.162L4.579 12l.252-.128Zm1.958 1.191v-.268L3.77 13.472l.276.007-.085.085-.327-.021-.015-.327.084-.082v.275l1.241-1.227-.265-.006.075-.076.326.015.009.326Z"/></svg>