<svg xmlns="http://www.w3.org/2000/svg" viewBox="0 0 24 24"><path fill="#44739e" d="M22.907 11.628c-.024-.024-.16-.11-.863-.11h-.04c-.575 0-.778.064-.845.12a.611.611 0 0 0-.25.534c0 .262.16.369.55.369h.72c.17 0 .28.069.28.177 0 .125-.098.273-.375.273h-.477c-.33 0-.377-.128-.377-.204h-.495a.7.7 0 0 0-.018.137.348.348 0 0 0 .098.263 1.88 1.88 0 0 0 .906.127c.276 0 .848 0 1.005-.159a.93.93 0 0 0 .213-.57.306.306 0 0 0-.087-.243c-.045-.044-.21-.12-.809-.12-.558 0-.661-.043-.661-.166 0-.145.162-.21.524-.21s.485.009.551.078a.15.15 0 0 1 .043.08h.492c0-.046.008-.11.008-.147v-.014a.259.259 0 0 0-.093-.215m-3.331 1.07a.73.73 0 0 1-.512.186.75.75 0 0 1-.423-.13c-.11-.11.041-.84.128-1.211h-.522c-.077.352-.246 1.158-.246 1.296a.406.406 0 0 0 .369.448 1.43 1.43 0 0 0 .331.031 1.17 1.17 0 0 0 .282-.031 1.057 1.057 0 0 0 .583-.366l.139-.172-.103.536h.496l.34-1.739h-.518a3.81 3.81 0 0 1-.344 1.152m-2.075-1.087c-.052-.044-.205-.096-.643-.096-.496 0-.671.11-.805.287l-.145.198.237-1.22h-.53l-.494 2.495h.539l.077-.398.072.165c.064.151.156.266.687.266s.66-.028.809-.183a2.565 2.565 0 0 0 .323-1.05.498.498 0 0 0-.127-.463Zm-.424.834v.009c-.056.197-.082.287-.163.345a1.63 1.63 0 0 1-.512.092c-.11 0-.458-.007-.55-.097-.016-.016-.062-.062-.029-.296.02-.14.084-.419.185-.475a1.2 1.2 0 0 1 .515-.08c.307 0 .456.016.518.078a.434.434 0 0 1 .036.428Zm-2.793-.493-.07-.168c-.083-.198-.238-.265-.614-.265-.64 0-.743.101-.928.286a2.37 2.37 0 0 0-.275.975v.042a.455.455 0 0 0 .1.356c.128.129.229.139.739.139.47 0 .641-.15.728-.262l.142-.183-.08.412h.551l.488-2.499h-.561Zm-.068.316-.044.22c-.048.179-.073.266-.152.322a1.62 1.62 0 0 1-.515.092c-.11 0-.458-.008-.551-.098-.015-.016-.061-.062-.028-.297.019-.139.083-.418.185-.474a1.23 1.23 0 0 1 .515-.08c.307 0 .454.017.519.078a.29.29 0 0 1 .07.23Zm-2.335-.618a1.59 1.59 0 0 0-.847-.131 1.563 1.563 0 0 0-1.138.286 2.37 2.37 0 0 0-.275.975v.042a.454.454 0 0 0 .099.356c.129.129.474.139.991.139a1.75 1.75 0 0 0 .998-.221c.16-.11.286-.723.316-1.015a.504.504 0 0 0-.139-.427Zm-.432.799v.009c-.055.197-.08.287-.161.346a1.63 1.63 0 0 1-.512.091c-.11 0-.458-.007-.551-.097-.015-.015-.063-.062-.028-.296.019-.14.083-.418.185-.474a1.19 1.19 0 0 1 .514-.081c.308 0 .457.017.518.078s.103.185.035.424m-4.319-.038-.561-1.631h-1.11l-.502 2.499h.644l.391-1.995.708 1.995h.512L8.71 11.26l-.395 2.019h.626l.508-2.499H8.346Zm-2.057-.273-.022.013.019.004Zm-.023.115-.025-.008.02.039Zm-.142.706.03-.145.032-.159.014-.074-.238-.109Zm1.425-2.289v-.121l-.131.121Zm-1.182 1.081.003-.01.024-.124-.209.195.167.012Zm2.015.425.232-.31a.88.88 0 0 0-.318.061Zm.102 1.214h-.46a.881.881 0 0 0 1.311-1.149Zm-1.215-2.72.212-.197-.289-.019.081-.078.35.032v.262h.237l.14.391a.881.881 0 1 0-1.051-.394Zm.779.533.201.585.044-.017a2.3 2.3 0 0 0-.16-.602.8.8 0 0 1-.085.034m-.809.499-.121.618-.014.073.424.123-.03-.086Zm.159 2.231a2.5 2.5 0 0 0 .469-.492 1.013 1.013 0 0 1-.235-.493l.055.016-.018-.051-.04.022a1 1 0 0 1-.036-.191v-.032l-.031-.086-.478-.134-.013.073-.163.829h-.641l.292.88.141-.266.041.121-.179.312-.33-.144-.041-.12.272.129-.304-.907h-.121l.018-.088.029-.145-.221-.653-.137.254-.038-.11.172-.307.323.14.012.024.011.033.025-.125-.127-.26.205-.125.025-.122-.297-.029-.005-.359.091-.085v.299l.312-.289.025-.125.132-.66h.198a1.016 1.016 0 0 1-.012-.844 2.64 2.64 0 0 0-.699-.181 1.03 1.03 0 0 1-.639.74l-.041-.142a.881.881 0 1 0-.323.061.7.7 0 0 0 .084 0l.042.145a1.2 1.2 0 0 1-.126.007 1.024 1.024 0 0 1-.793-.376 2.55 2.55 0 0 0-.523.473 1.013 1.013 0 0 1 .346.922l-.143-.044a.8.8 0 0 0 0-.1.874.874 0 1 0-.067.34l.141.042a1.029 1.029 0 0 1-.82.636 2.35 2.35 0 0 0 .179.66 1.02 1.02 0 0 1 1.128.147l-.105.103a.887.887 0 1 0 .163.185l.11-.11a1.022 1.022 0 0 1 .104.991 2.66 2.66 0 0 0 .788.171 1.028 1.028 0 0 1 .591-.846l.047.141a.881.881 0 1 0 .384-.089.95.95 0 0 0-.149.013l-.048-.141a1 1 0 0 1 .197-.02 1.025 1.025 0 0 1 .791.382M3.826 9.671l-.141.274-.04-.13.181-.324.323.178.037.129-.266-.155.579 2 .147-.28.041.141-.185.323-.33-.175-.041-.14.273.159ZM2.127 11.42l.145.265-.125-.038-.172-.331.324-.174.125.039-.27.141 1.956.599-.151-.272.133.041.169.33-.324.178-.134-.036.277-.141Zm2.156 1.311v-.295l-1.371 1.346.304.008-.093.094-.36-.024-.017-.36.093-.09v.303l1.366-1.351-.292-.006.083-.084.358.016.01.359Z"/></svg>