<svg xmlns="http://www.w3.org/2000/svg" viewBox="0 0 24 24"><path fill="#44739e" d="M20.368 14.23c-.032.032.065.189.22.349s.3.265.329.233-.064-.19-.214-.35-.303-.264-.335-.232m.454-.527c-.597.11-.687-.095-.233-.529.312-.301.322-.337.136-.478a.68.68 0 0 0-.358-.165c-.161-.006-.252.131-.252.402 0 .549-.293.637-.538.154-.257-.506-.246-.5-.511-.26-.323.293-.299.371.203.636.241.127.369.233.285.235s-.122.055-.085.115-.129.127-.372.147c-.367.029-.434.074-.4.269.09.515.267.55.679.157a1.26 1.26 0 0 0 .39-.597c0-.142.068-.205.195-.181.279.055.33.33.079.402-.169.044-.22.186-.245.647-.029.589-.03.589.291.509.44-.11.448-.129.23-.584q-.349-.73.384-.353c.432.22.583.151.583-.283 0-.317-.014-.325-.461-.243m-1.277.761a1.72 1.72 0 0 0-.246.44c0 .175.208.083.265-.116.032-.11.096-.309.142-.44.017-.049.018-.073 0-.072s-.075.064-.161.188m.916-.932c0 .084.077.068.403-.08.163-.075.298-.182.298-.237 0-.014-.01-.022-.028-.025a.715.715 0 0 0-.322.11 1.06 1.06 0 0 0-.351.232m2.47-1.047a5.6 5.6 0 0 1-.139-1.08 3.15 3.15 0 0 0-.091-.769c-.151-.381-3.615-1.681-5.504-2.066a15.2 15.2 0 0 0-2.616-.233 13.7 13.7 0 0 0-2.537.165 13.85 13.85 0 0 0-3.657 1.3 7.64 7.64 0 0 1-3.093.918c-3.318.407-4.385 1.038-4.288 2.541.052.804.246 1.053 1.067 1.368a6.7 6.7 0 0 0 .677.236c.168.013.193-.199.078-.654a1.971 1.971 0 0 1 2.35-2.377 2 2 0 0 1 1.503 2.141l-.039.604h11.39l.021-.779a1.748 1.748 0 0 1 .894-1.701 1.956 1.956 0 0 1 1.995 0 2.265 2.265 0 0 1 .924 1.261 1.8 1.8 0 0 0 .118.516l.115.308.33-.239a1.251 1.251 0 0 0 .502-1.46m-6.378 1.09a64.3 64.3 0 0 1-6.943.125c.22-.058 2.01-.132 3.968-.164.503-.007.96-.012 1.359-.014 1.199-.007 1.866.012 1.619.053Zm-3.052-2.786c-1.723.06-3.316.128-3.54.152a5.04 5.04 0 0 1-1.87-.147c0-.301 2.029-1.453 3.326-1.891a7.75 7.75 0 0 1 3.097-.266 10.12 10.12 0 0 1 3.384.309c1.519.413 2.472.787 2.419.949-.156.512-1.671.711-6.814.894Zm6.846.141c-2.178.065-1.725-.082.642-.21.506-.026.88-.037 1.108-.03s.33.027.292.066a10.34 10.34 0 0 1-2.038.174Zm-1.425 2.613a.66.66 0 0 0-.232-.022c-.056.007-.089.029-.089.064 0 .066.166.118.369.118.424 0 .408-.05-.048-.16m1.021-1.538a1.83 1.83 0 0 0-.677.158 1.726 1.726 0 0 0-1.083 1.941 1.827 1.827 0 0 0 1.179 1.409 1.25 1.25 0 0 0 1.344-.088 1.732 1.732 0 0 0 1.048-1.569 1.782 1.782 0 0 0-1.811-1.851m.617 3.17a1.482 1.482 0 0 1-1.849-2.14 1.463 1.463 0 0 1 1.209-.711 1.415 1.415 0 0 1 1.028.398 1.473 1.473 0 0 1-.388 2.453m-3.251-6.154a14.84 14.84 0 0 0-2.837-.283 10.36 10.36 0 0 0-2.529.214 13.24 13.24 0 0 0-3.148 1.464l-.291.246h.275a1.203 1.203 0 0 0 .621-.288c.44-.366.616-.366.989 0l.296.296 3.579-.125c1.968-.069 3.93-.176 4.359-.238.93-.133 1.459-.317 1.31-.453a10.17 10.17 0 0 0-2.624-.833M4.312 14.053c-.145 0-.652.377-.652.485 0 .063.088.061.214-.007.237-.127.559-.478.438-.478m-.454-.767c.494.267.515.234.102-.154a.5.5 0 0 0-.303-.174.064.064 0 0 0-.05.031c-.037.066.075.199.251.297m1.275-.832c-.028-.027-.05-.042-.071-.041-.061 0-.1.148-.16.532l-.074.467.189-.44c.105-.246.161-.478.116-.518m.842.832c.057-.043-.345-.634-.431-.631a2.42 2.42 0 0 0-.652 1.107c0 .128-.084.234-.18.234-.219 0-.302-.39-.096-.47.11-.04.14-.219.11-.582s-.087-.508-.237-.524a.726.726 0 0 0-.374.121c-.219.119-.219.132.051.497.393.528.297.693-.283.488-.486-.171-.537-.125-.461.412.038.265.083.276.459.121.519-.22.647-.06.348.425-.21.34-.227.428-.092.514.378.238.557.121.595-.39l.039-.495.149.499c.082.275.199.469.26.431s.036-.22-.072-.424c-.235-.455-.145-.549.159-.162.284.361.39.37.588.052.178-.284.134-.348-.367-.534l-.372-.137.496-.009c.273 0 .497-.061.497-.123s-.229-.089-.55-.054l-.55.06.468-.198c.25-.11.476-.212.498-.228m-1.389-1.3a1.7 1.7 0 0 0-.69.165 1.81 1.81 0 1 0 2.624 1.903 2.14 2.14 0 0 0-.781-1.79 1.922 1.922 0 0 0-1.153-.278m1.109 2.875a1.477 1.477 0 0 1-2.397-1.514 1.399 1.399 0 0 1 1.43-1.044 1.046 1.046 0 0 1 .976.39 1.387 1.387 0 0 1-.009 2.168m14.188-2.056c0-.233-.032-.356-.085-.337a.08.08 0 0 0-.024.016.596.596 0 0 0-.044.432c.088.449.153.4.153-.111"/></svg>