<svg xmlns="http://www.w3.org/2000/svg" viewBox="0 0 24 24"><path fill="#44739e" d="M21.815 3.835a15.6 15.6 0 0 0-7.678-1.289c-.836.174-1.129.719-1.327 2.472l-.129 1.14h-1.389l-.124-.964c-.232-1.83-.418-2.277-1.042-2.536a10.06 10.06 0 0 0-5.111.253c-2.278.616-3.928 1.304-4.002 1.67-.106.518.432.507 1.821-.042A15.2 15.2 0 0 1 8.2 3.334c1.204-.018 1.478.034 1.687.32a4.77 4.77 0 0 1 .372 2.49 3.53 3.53 0 0 1-1.568.198 7.97 7.97 0 0 0-1.923.182 4.18 4.18 0 0 0-1.865 2.068c-.39.767-.489.852-.803.684a1.519 1.519 0 0 0-1.505.258c-.348.511-.146.843.501.843.347 0 .643.049.643.108a4.98 4.98 0 0 1-.619.872c-1.088 1.346-1.102 1.409-1.183 5.302a40 40 0 0 0 .037 4.091 1.065 1.065 0 0 0 .527.646 5.16 5.16 0 0 0 1.577.116c1.302-.061 1.675-.348 1.675-1.274 0-.526 0-.527.872-.393a103.6 103.6 0 0 0 10.543 0l1.042-.14.058.695c.072.861.566 1.158 1.948 1.158.789 0 1.056-.082 1.422-.448.441-.441.45-.512.45-3.426a34.6 34.6 0 0 0-.208-4.169 3.107 3.107 0 0 0-1.009-2.053 5.64 5.64 0 0 1-.801-.975c0-.066.292-.116.647-.116.711 0 1.009-.377.645-.81a1.495 1.495 0 0 0-1.555-.295c-.196.162-.362 0-.799-.765a7.87 7.87 0 0 0-1.134-1.519c-.545-.515-.694-.557-2.359-.643l-1.778-.089.024-.96c.043-1.652.139-1.827 1.08-1.968a14.03 14.03 0 0 1 5.729 1.03 8.78 8.78 0 0 0 2.263.607c.422-.26.031-.693-1.018-1.124M5.045 13.84c-1.647-.053-1.862-.132-1.862-.683 0-.81.25-.919 1.527-.676a7.4 7.4 0 0 1 1.583.463l.448.245-.423.341a1.833 1.833 0 0 1-1.273.31m1.075 5.057a7.2 7.2 0 0 1 .765-1.004 3.37 3.37 0 0 1 1.422-1.103 24.1 24.1 0 0 1 4.099-.137l3.44.059 1.042 1.049a4.16 4.16 0 0 1 .952 1.146 90 90 0 0 1-11.72-.01m1.469-5.28a45.5 45.5 0 0 1 8.703 0c.284.168 0 .232-1.515.342a4.493 4.493 0 0 0-2.308.48c-.529.416-.463.417-.978-.008-.317-.264-.865-.374-2.385-.478-1.654-.114-1.901-.168-1.517-.336m12.987-1.179a1.042 1.042 0 0 1 .231.695c0 .44-.088.519-.689.618-1.375.232-2.798 0-2.798-.456-.003-.471 2.824-1.213 3.256-.857m-3.664-5.016a5.29 5.29 0 0 1 1.505 1.884c0 .086-2.894.156-6.424.156s-6.425-.067-6.425-.148a4.93 4.93 0 0 1 .536-.991c.395-.624.695-.881 1.147-.988a62 62 0 0 1 9.661.087"/></svg>