<svg xmlns="http://www.w3.org/2000/svg" fill="#44739e" viewBox="0 0 24 24"><path d="M19.615 13.987c-.029.029.059.172.2.317s.273.241.3.212-.059-.173-.195-.318-.276-.24-.305-.211m.413-.479c-.543.1-.625-.087-.212-.482.284-.273.293-.306.124-.434a.62.62 0 0 0-.326-.15c-.146-.006-.229.119-.229.365 0 .5-.266.58-.489.14-.234-.46-.224-.454-.465-.236-.294.266-.272.337.185.578.219.116.335.212.259.214s-.111.05-.077.105-.118.115-.339.133c-.333.027-.394.068-.363.245.081.468.242.5.617.143a1.147 1.147 0 0 0 .355-.543c0-.129.062-.187.177-.165.254.05.3.3.072.366-.154.04-.2.169-.223.588-.026.536-.027.536.265.463.4-.1.407-.117.209-.531q-.317-.664.349-.321c.393.2.53.137.53-.257 0-.289-.012-.296-.419-.221m-1.161.692a1.56 1.56 0 0 0-.224.4c0 .159.189.075.241-.106.029-.1.087-.281.129-.4.016-.044.017-.066 0-.065s-.068.058-.146.171m.833-.848c0 .076.07.062.366-.073.149-.068.271-.165.271-.215 0-.013-.009-.02-.025-.023a.65.65 0 0 0-.293.1.96.96 0 0 0-.319.211m2.246-.952a5.1 5.1 0 0 1-.126-.982 2.86 2.86 0 0 0-.083-.7c-.137-.346-3.288-1.529-5.006-1.879a13.8 13.8 0 0 0-2.379-.212 12.46 12.46 0 0 0-2.307.15A12.6 12.6 0 0 0 8.719 9.96a6.95 6.95 0 0 1-2.813.835c-3.018.37-3.988.944-3.9 2.311.047.731.224.957.97 1.244a6.1 6.1 0 0 0 .616.214c.153.012.176-.181.071-.594A1.793 1.793 0 0 1 5.8 11.808a1.819 1.819 0 0 1 1.367 1.947l-.035.549h10.359l.019-.708a1.59 1.59 0 0 1 .813-1.547 1.779 1.779 0 0 1 1.814 0 2.06 2.06 0 0 1 .841 1.147 1.64 1.64 0 0 0 .107.469l.105.28.3-.217a1.138 1.138 0 0 0 .456-1.328m-5.8.991a58.5 58.5 0 0 1-6.315.114c.2-.053 1.828-.12 3.609-.149.457-.007.873-.011 1.236-.013 1.09-.006 1.697.011 1.472.048zm-2.776-2.534c-1.567.055-3.016.117-3.22.139a4.58 4.58 0 0 1-1.7-.134c0-.274 1.845-1.322 3.025-1.72a7.05 7.05 0 0 1 2.816-.242 9.2 9.2 0 0 1 3.078.281c1.381.376 2.248.716 2.2.863-.142.466-1.52.647-6.197.813zm6.226.129c-1.981.059-1.569-.075.584-.191.46-.024.8-.034 1.008-.028s.3.025.265.06a9.4 9.4 0 0 1-1.853.159ZM18.3 13.362a.6.6 0 0 0-.211-.02c-.051.006-.081.026-.081.058 0 .06.151.108.336.108.385 0 .371-.046-.044-.146m.929-1.399a1.66 1.66 0 0 0-.616.144 1.57 1.57 0 0 0-.985 1.765 1.662 1.662 0 0 0 1.072 1.282 1.137 1.137 0 0 0 1.223-.08 1.575 1.575 0 0 0 .953-1.427 1.621 1.621 0 0 0-1.647-1.684m.561 2.883a1.348 1.348 0 0 1-1.682-1.946 1.331 1.331 0 0 1 1.1-.647 1.287 1.287 0 0 1 .935.362 1.34 1.34 0 0 1-.353 2.231m-2.957-5.597a13.5 13.5 0 0 0-2.58-.257 9.42 9.42 0 0 0-2.3.195 12.04 12.04 0 0 0-2.863 1.331l-.265.224h.25a1.094 1.094 0 0 0 .565-.262c.4-.333.56-.333.9 0l.269.269 3.255-.114c1.79-.062 3.574-.16 3.964-.216.846-.121 1.327-.288 1.192-.412a9.25 9.25 0 0 0-2.387-.758m-11.82 4.577c-.132 0-.593.343-.593.441 0 .057.08.055.194-.006.216-.116.509-.435.399-.435m-.413-.698c.449.243.468.213.093-.14a.455.455 0 0 0-.276-.158.058.058 0 0 0-.045.028c-.034.06.068.181.228.27m1.159-.756c-.025-.025-.045-.039-.064-.038-.056 0-.091.135-.146.484l-.067.425.172-.4c.095-.224.146-.435.105-.471m.766.756c.052-.039-.314-.576-.392-.574a2.2 2.2 0 0 0-.593 1.007c0 .117-.076.213-.163.213-.2 0-.275-.355-.088-.427.1-.037.128-.2.1-.53s-.079-.462-.215-.476a.66.66 0 0 0-.34.11c-.2.108-.2.12.046.452.357.48.27.63-.257.444-.442-.156-.489-.114-.42.374.035.241.076.251.418.11.472-.2.588-.054.316.387-.191.309-.206.389-.083.467.343.217.506.11.541-.354l.035-.451.136.454c.074.25.181.427.236.392s.033-.2-.065-.385c-.214-.414-.132-.5.144-.148.259.329.355.337.535.048.162-.259.122-.317-.334-.486l-.338-.125.451-.008c.248 0 .452-.055.452-.112s-.208-.081-.5-.049l-.5.055.425-.18c.228-.1.433-.193.453-.208m-1.263-1.182a1.55 1.55 0 0 0-.628.15 1.646 1.646 0 1 0 2.387 1.731 1.946 1.946 0 0 0-.71-1.628 1.748 1.748 0 0 0-1.049-.253m1.009 2.615a1.343 1.343 0 0 1-2.18-1.377 1.272 1.272 0 0 1 1.3-.95.951.951 0 0 1 .888.355 1.261 1.261 0 0 1-.008 1.972m12.903-1.87c0-.212-.029-.324-.077-.307a.07.07 0 0 0-.022.015.542.542 0 0 0-.04.393c.08.408.139.364.139-.101"/></svg>