<svg xmlns="http://www.w3.org/2000/svg" viewBox="0 0 24 24"><path fill="#44739e" d="M22.787 16.139c-.209-.055-.22-.166-.242-4.955l-.028-4.901h-5.855v4.004l-.262.066a2.566 2.566 0 0 0-1.245 1.439c-.453 1.142-.738 1.623-1.061 1.79-.535.277-.738.22-.816-.239a2.31 2.31 0 0 0-.69-1.582 2.18 2.18 0 0 1-.432-.507c0-.047.171-.086.38-.086.414 0 .589-.22.377-.477a.873.873 0 0 0-.913-.173c-.11.095-.212 0-.468-.446a4.62 4.62 0 0 0-.66-.889c-.319-.302-.407-.33-1.38-.376l-1.04-.054.015-.561c.025-.967.081-1.069.631-1.152a8.195 8.195 0 0 1 3.351.603 5.17 5.17 0 0 0 1.32.355c.246-.153.017-.406-.596-.66a9.14 9.14 0 0 0-4.489-.753c-.489.102-.66.421-.776 1.446l-.075.667h-.812l-.072-.562c-.137-1.072-.245-1.334-.609-1.484a5.88 5.88 0 0 0-2.989.153 5.2 5.2 0 0 0-2.343.976c-.062.303.251.296 1.064-.025a8.91 8.91 0 0 1 3.14-.709c.704-.01.863.021.99.188a2.794 2.794 0 0 1 .22 1.456 2.09 2.09 0 0 1-.918.116 4.7 4.7 0 0 0-1.125.11 2.453 2.453 0 0 0-1.091 1.21c-.228.448-.285.498-.47.399a.891.891 0 0 0-.88.152c-.2.299-.085.493.294.493.207 0 .376.028.376.062a2.9 2.9 0 0 1-.362.511c-.637.787-.644.824-.693 3.101a23.4 23.4 0 0 0 .025 2.394.623.623 0 0 0 .308.378 3 3 0 0 0 .922.07c.763-.035.981-.201.981-.745 0-.308 0-.308.51-.23a60.4 60.4 0 0 0 6.167 0l.611-.081.033.407c.042.504.33.677 1.14.679.462 0 .618-.048.831-.262.255-.254.264-.315.264-1.76v-1.496l.349-.066c.826-.156 1.245-.66 1.806-2.156.228-.606.748-1.238 1.021-1.238.128 0 .153.428.153 2.64 0 2.573 0 2.64-.231 2.827a.387.387 0 0 0-.16.475l.073.286H23v-.385c0-.296-.051-.4-.213-.443M3.986 9.965c.231-.364.406-.515.671-.578a36.3 36.3 0 0 1 5.651.052 3.09 3.09 0 0 1 .88 1.1c0 .051-1.692.091-3.759.091s-3.756-.037-3.756-.085a2.9 2.9 0 0 1 .313-.58m5.072 3.3a2.62 2.62 0 0 0-1.349.281c-.309.243-.275.244-.572 0-.186-.156-.506-.22-1.396-.28-.967-.066-1.111-.098-.887-.196a26.6 26.6 0 0 1 5.091 0c.166.091-.002.128-.887.192Zm-5.692-.069c-.964-.031-1.089-.077-1.089-.4 0-.473.145-.537.893-.394a4.32 4.32 0 0 1 .926.268l.262.142-.247.2a1.067 1.067 0 0 1-.745.18Zm.629 2.959a4.25 4.25 0 0 1 .447-.587 1.965 1.965 0 0 1 .832-.644 14.14 14.14 0 0 1 2.397-.089l2.013.035.613.614a2.42 2.42 0 0 1 .557.67 52.4 52.4 0 0 1-6.859.001m8.188-3.01c-.806.133-1.638 0-1.638-.266s1.65-.71 1.906-.501a.605.605 0 0 1 .134.406c0 .252-.052.297-.402.356Zm9.421-3.26h-3.927l.008-2.26h3.919Z"/></svg>