<svg xmlns="http://www.w3.org/2000/svg" viewBox="0 0 24 24"><path fill="#44739e" d="M12.279 21.272h2.733v-.362h3.808v.367h1.916a.905.905 0 0 0 .904-.905V11.91h-9.361Zm-9.895-.905a.906.906 0 0 0 .905.905h1.87v-.362H8.97v.367h2.776V11.91H2.384ZM20.737 2.158h-8.458v9.362h2.822v-.367h3.809v.367h2.731V3.064a.904.904 0 0 0-.904-.906m-18.353.906v8.456h2.865v-.367h3.81v.367h2.687V2.158H3.289a.905.905 0 0 0-.905.906M21.937 1H2.063A1.061 1.061 0 0 0 1 2.063v19.874A1.061 1.061 0 0 0 2.063 23h19.874A1.061 1.061 0 0 0 23 21.937V2.063A1.061 1.061 0 0 0 21.937 1m.254 20.207a.983.983 0 0 1-.984.984H2.793a.983.983 0 0 1-.984-.984V2.793a.983.983 0 0 1 .99-.984h18.408a.983.983 0 0 1 .984.99Z"/></svg>