<svg xmlns="http://www.w3.org/2000/svg" viewBox="0 0 24 24"><path fill="#44739e" d="M20.815 1H3.185a1.98 1.98 0 0 0-1.973 1.989v18.022A1.98 1.98 0 0 0 3.185 23h17.63a1.98 1.98 0 0 0 1.973-1.989V2.989A1.98 1.98 0 0 0 20.815 1m1.004 20.011a1.008 1.008 0 0 1-1.004 1.011H3.185a1.008 1.008 0 0 1-1.004-1.011V2.989a1.008 1.008 0 0 1 1.004-1.011h17.63a1.008 1.008 0 0 1 1.004 1.011ZM10.607 2.28H3.816a1.393 1.393 0 0 0-1.393 1.393v16.61a1.393 1.393 0 0 0 1.393 1.397h6.791A1.393 1.393 0 0 0 12 20.283V3.673a1.393 1.393 0 0 0-1.393-1.393M8.418 19.946H6.005a.225.225 0 0 1 0-.45h2.413a.225.225 0 0 1 0 .45M20.225 2.334h-6.309a1.351 1.351 0 0 0-1.351 1.351v16.694a1.351 1.351 0 0 0 1.351 1.351h6.309a1.351 1.351 0 0 0 1.352-1.351V3.685a1.351 1.351 0 0 0-1.352-1.351m-1.973 2.828h1.832l-1.109-.788.008-.21 1.1-.785h-1.831V3.09h2.394v.28l-1.301.891 1.301.889v.284h-2.394Zm2.42 1.806a1.197 1.197 0 1 1-1.192-1.196 1.198 1.198 0 0 1 1.191 1.195Zm-2.394 12.98h-2.414a.225.225 0 1 1 0-.45h2.413a.225.225 0 1 1 0 .45Zm2.157-7.161A.953.953 0 0 0 19.416 12c-.43-.014-1.167 0-1.113-.833h.278c.063.61.633.506.925.54a1.221 1.221 0 0 1 1.183 1.075Zm-.942-1.887a1.2 1.2 0 0 1-.165 0V8.859a.86.86 0 0 0-.33 1.547v.384a1.194 1.194 0 1 1 .499.11Zm-.013-4.794a.861.861 0 1 0 .861.862.862.862 0 0 0-.861-.862m.151 2.749v1.698a.86.86 0 0 0 0-1.698"/></svg>