<svg xmlns="http://www.w3.org/2000/svg" fill="#44739e" viewBox="0 0 24 24"><path d="M16.543 13.525a15 15 0 0 0-1.22-2.49c-.242-.437-.253-.463-.409-.729a2.57 2.57 0 0 0-.276-.383c-.6-.782-1.167-.25-.8.493l.617 1.1a16.66 16.66 0 0 1 1.137 2.284 4.68 4.68 0 0 1 .174 1.989 2.94 2.94 0 0 1-.644 1.507 6.04 6.04 0 0 1-1.685 1.277c-1 .5-.366 1.233.338.93a8.1 8.1 0 0 0 2.167-1.651 4.98 4.98 0 0 0 .8-1.906 5.67 5.67 0 0 0-.199-2.421M13.01 3.292 12 2l-1.01 1.292C9.522 5.17 4.734 11.549 4.734 14.81a6.915 6.915 0 0 0 .53 2.711 6.77 6.77 0 0 0 1.277 2.049 7.217 7.217 0 0 0 4.67 2.388 6.4 6.4 0 0 0 .738.042h.071a7.312 7.312 0 0 0 5.467-2.451 7.175 7.175 0 0 0 1.779-4.731c0-3.269-4.788-9.648-6.256-11.526M16.521 18.7a6.02 6.02 0 0 1-4.5 2.013 5.3 5.3 0 0 1-.665-.033A5.97 5.97 0 0 1 7.5 18.718a5.54 5.54 0 0 1-1.044-1.671 5.69 5.69 0 0 1-.438-2.229C6.017 12.275 9.946 6.71 12 4.082c2.055 2.628 5.984 8.193 5.984 10.736a5.9 5.9 0 0 1-1.463 3.882"/></svg>