<svg xmlns="http://www.w3.org/2000/svg" fill="#44739e" viewBox="0 0 24 24"><path d="m21.493 12.614-.371.979-.381-.979h-1.7v.491h.446v1.411h.533v-1.411h.686l-.27.108.55 1.3h.264l.75-1.785v-.114zm-2.756 1.348a.278.278 0 1 0 0 .554.274.274 0 0 0 .291-.275.279.279 0 0 0-.291-.279M6.56 13.185a19.9 19.9 0 0 1 .24-2.008c.074-.419.222-1.119.3-1.512a.372.372 0 0 0-.044-.285.89.89 0 0 0-.27-.18h-.009a.468.468 0 0 0-.4.017 1.67 1.67 0 0 0-.536.475 6.62 6.62 0 0 0-.884 1.787c.072-.379.331-1.485.374-1.77 0-.033.04-.128.015-.181a.63.63 0 0 0-.271-.228L5 9.271a.408.408 0 0 0-.359.033 1.64 1.64 0 0 0-.53.492 7.87 7.87 0 0 0-.87 1.991c.022-.138.124-.794.136-.864.063-.373.309-1.776.359-2.123.005-.033.026-.132.006-.164a.346.346 0 0 0-.235-.1.94.94 0 0 0-.382.024h-.013l-.012.01a3.32 3.32 0 0 0-.668.813c-.216.366-.3.521-.408.72-.069.132.048.49.188.268a7.8 7.8 0 0 1 .679-.924c-.114.748-.432 3.188-.479 3.5-.024.161-.146.891.148.857a.08.08 0 0 0 .024 0c.1-.024.455-.171.487-.308a8.85 8.85 0 0 1 1.481-3.4c-.113.6-.284 1.723-.309 1.946-.04.356-.14 1.079.1 1.068h.028c.095-.021.46-.156.493-.292a7.19 7.19 0 0 1 1.421-2.827c-.044.236-.061.314-.107.549a22.5 22.5 0 0 0-.438 2.86 1.018 1.018 0 0 0 .713 1.083c.093.027.435 0 .367-.108a2.04 2.04 0 0 1-.26-1.194Zm1.54-.608a1.394 1.394 0 0 0 .856-.624 2.66 2.66 0 0 0 .439-1.063c.019-.087.033-.167.044-.241a1.03 1.03 0 0 0 .436-.369c-.093.55-.141.923-.158 1.159a1.61 1.61 0 0 0 .091.769.561.561 0 0 0 .456.348.788.788 0 0 0 .676-.3 1 1 0 0 0 .094-.1.719.719 0 0 0 .844.386 1.4 1.4 0 0 0 .861-.618 2.67 2.67 0 0 0 .449-1.059c.018-.085.033-.163.045-.236a1.094 1.094 0 0 0 .478-.353 10.8 10.8 0 0 0-.2 1.078 1.634 1.634 0 0 0 .071.775.6.6 0 0 0 .45.38.761.761 0 0 0 .689-.255c.036-.033.072-.069.109-.109a.718.718 0 0 0 .865.44 1.4 1.4 0 0 0 .864-.611 2.65 2.65 0 0 0 .453-1.05c.019-.083.033-.158.045-.229a.832.832 0 0 0 .464-.512c.046-.124.015-.441-.056-.281a.81.81 0 0 1-.532.526.8.8 0 0 0 .16-.127 1.02 1.02 0 0 0-.08-.432.427.427 0 0 0-.513-.259c0-.183-.085-.295-.383-.241a1.17 1.17 0 0 0-.493.207 2.13 2.13 0 0 0-.623.829 3.43 3.43 0 0 0-.252.914 2.08 2.08 0 0 0 0 .528.9.9 0 0 1-.081.074.494.494 0 0 1-.312.137c-.2-.03-.171-.383-.164-.52a7.3 7.3 0 0 1 .154-.915c.035-.189.159-.794.357-1.552a7.56 7.56 0 0 1 1.985.146 3.94 3.94 0 0 1 .58.175c.519.219.5.924.443 1.341a9.7 9.7 0 0 1-.479 1.732.392.392 0 0 0 .072.276 1.15 1.15 0 0 0 .266.215.471.471 0 0 0 .391.071 5.65 5.65 0 0 0 1.784-1.827 3.45 3.45 0 0 0 .5-1.231c0-.21-.806-.152-.827.165a3.16 3.16 0 0 1-.712 1.632 2.81 2.81 0 0 1-.783.708 9.17 9.17 0 0 0 .533-2.305 1.63 1.63 0 0 0-.168-.947c-.3-.446-1.187-.66-2.331-.656a9.9 9.9 0 0 0-1.133.069c.071-.3.118-.484.125-.521.014-.07-.105-.1-.34-.092s-.4.043-.444.209c-.048.2-.088.349-.131.527-.109.022-.214.045-.313.069a3.65 3.65 0 0 0-.614.189c-.155.055-.265.439-.127.389a5.4 5.4 0 0 1 .908-.236l.058-.01c-.015.071-.029.132-.036.165-.159.7-.52.963-.812 1.018a.84.84 0 0 0 .168-.132 1.04 1.04 0 0 0-.086-.41.428.428 0 0 0-.51-.252c0-.183-.086-.3-.384-.241a1.16 1.16 0 0 0-.492.21 2.135 2.135 0 0 0-.62.837 3.46 3.46 0 0 0-.248.921 2.07 2.07 0 0 0 .018.6l-.06.061a.515.515 0 0 1-.307.158c-.2-.015-.179-.37-.176-.507a7.4 7.4 0 0 1 .13-.911c.068-.445.475-2.484.5-2.606.012-.071-.107-.092-.34-.068s-.4.073-.434.242c-.109.51-.174.906-.248 1.292a1.147 1.147 0 0 1-.68.837.8.8 0 0 0 .137-.112 1.04 1.04 0 0 0-.085-.426.43.43 0 0 0-.513-.248c0-.183-.088-.295-.386-.238a1.16 1.16 0 0 0-.49.214 2.144 2.144 0 0 0-.613.841 3.52 3.52 0 0 0-.24.924 1.88 1.88 0 0 0 .086.821.721.721 0 0 0 .873.436zm7.436-1.7a1.73 1.73 0 0 1 .351-.665.59.59 0 0 1 .4-.207c-.051.078-.014.127.066.143a.243.243 0 0 1 .191.222c-.123-.078-.265.371-.1.4a1.15 1.15 0 0 0 .5-.038 1.08 1.08 0 0 1-.429.117 2.28 2.28 0 0 1-.336.889c-.215.308-.447.437-.59.331-.22-.162-.245-.608-.057-1.189zm-3.836-.054a1.76 1.76 0 0 1 .348-.671.584.584 0 0 1 .4-.209c-.05.078-.013.128.066.144a.232.232 0 0 1 .186.193c-.108-.036-.231.389-.076.411a1.2 1.2 0 0 0 .447-.022.98.98 0 0 1-.387.1 2.31 2.31 0 0 1-.336.915c-.213.31-.445.441-.588.335-.216-.162-.244-.611-.06-1.196m-3.793.044a1.75 1.75 0 0 1 .342-.673.583.583 0 0 1 .4-.213c-.05.078-.012.128.067.143a.234.234 0 0 1 .188.2c-.1-.007-.27.382-.078.411a1.1 1.1 0 0 0 .483-.036.984.984 0 0 1-.418.116 2.32 2.32 0 0 1-.327.912c-.211.313-.442.445-.585.34-.222-.161-.253-.61-.073-1.2zm9.835 2.645c-1.242-.724-4.639-.851-7.969-.563a28.1 28.1 0 0 0-2.971.416c.052 0 .391-.044.549-.069-.141.038-.543.115-.56.119.008 0 .329-.046.518-.069-.22.049-.525.113-.526.114 0 0 .293-.04.5-.061-.192.041-.5.118-.5.118s.285-.04.5-.062c-.187.038-.48.12-.48.121 0 0 .308-.045.492-.069-.189.045-.466.12-.466.122v.008a25.4 25.4 0 0 1 3.137-.342c4.714-.206 7.241.5 7.862 1.181.152-.194.4-.7-.078-.982zm-12.118.2v-.007a3.7 3.7 0 0 0-.466.09c.152-.055.458-.136.458-.137v-.007s-.3.051-.469.1c.176-.061.454-.132.454-.134v-.005c-.8.18-1.509.373-2.108.571-.289.1-.009.222.249.153.628-.169 1.251-.318 1.865-.448a4.2 4.2 0 0 0-.517.094c.128-.047.512-.141.53-.143v-.007a4.3 4.3 0 0 0-.491.089c.21-.074.5-.142.5-.144v-.008a4.6 4.6 0 0 0-.475.089c.169-.064.472-.138.472-.141Z"/></svg>