<svg xmlns="http://www.w3.org/2000/svg" viewBox="0 0 24 24"><path fill="#44739e" d="M10.881 22.943c-2.544-.28-4.772-1.323-6.562-3.072-.654-.638-.973-1.023-1.501-1.808-.584-.869-1.08-1.925-1.384-2.948-.322-1.082-.432-1.886-.434-3.161-.001-.759.017-1.037.098-1.548.188-1.187.476-2.14.935-3.091.762-1.582 1.566-2.608 2.947-3.764.753-.631 1.179-.919 1.941-1.313.699-.361 1.31-.607 1.996-.805 2.663-.765 5.532-.509 7.993.713 2.883 1.431 4.998 4.066 5.785 7.206.235.938.307 1.568.305 2.666-.002 1.063-.068 1.655-.278 2.507-.71 2.872-2.423 5.256-4.898 6.815-.517.325-1.467.784-2.102 1.015-1.486.541-3.284.759-4.841.588m1.724-3.696c.129-.034.426-.15.658-.258s.473-.197.534-.197c.062 0 .215.049.342.109.248.118.356.102.445-.064.034-.065.017-.126-.084-.289-.071-.114-.208-.42-.304-.68-.312-.84-.754-1.637-1.073-1.936l-.137-.129-.791-.013c-.977-.017-1.088.008-1.38.307-.251.259-.463.655-.836 1.562-.148.358-.334.751-.415.874-.141.213-.144.227-.082.348.082.158.189.162.442.014.161-.094.225-.108.39-.086.109.015.271.076.361.135.18.119.523.263.762.319.251.06.914.05 1.168-.016m3.69-.267c.279-.172.43-.429.486-.829.053-.373.052-.371.487-1.013.927-1.366 1.125-2.286 1.068-4.969-.017-.797.01-.96.166-1.01.048-.015.108-.064.132-.109.034-.065.017-.111-.087-.229-.071-.081-.129-.158-.129-.172s.169-.103.375-.2c.206-.096.389-.198.406-.225.045-.072-.03-.189-.175-.275-.144-.085-.218-.223-.218-.408 0-.194.072-.296.275-.385.1-.044.219-.121.264-.171.081-.09.081-.093-.039-.314-.1-.186-.115-.253-.089-.395.066-.367.25-.544.463-.447.166.076.201.187.266.838.035.344.085.706.111.806.065.243.296.67.389.72.191.102.37-.33.469-1.136.039-.309.034-.497-.022-.987-.039-.334-.097-.659-.131-.723-.08-.155-.26-.277-.463-.314-.09-.016-.543-.145-1.006-.285-1.001-.304-1.159-.317-1.476-.12-.28.174-.516.182-.783.027-.729-.421-2.696-1.42-2.905-1.474-.29-.075-.621-.084-.837-.022-.284.082-.883.173-1.313.199-.382.024-.482.014-.883-.09-.381-.099-.52-.115-.883-.102l-.431.016-1.462.77c-1.696.895-1.754.913-2.132.67-.305-.195-.611-.19-1.191.023-.703.257-1.047.363-1.183.363-.247 0-.424.11-.518.322-.226.509-.305 1.698-.152 2.292.149.58.36.751.562.454.18-.265.277-.636.323-1.24.024-.308.063-.628.088-.712.053-.183.191-.342.297-.342.117 0 .294.216.35.427.047.174.042.208-.068.425l-.12.235.177.156c.307.271.342.458.158.866-.061.136-.104.284-.096.328.011.056.144.129.456.251.242.095.441.185.441.2s-.043.039-.097.053-.153.07-.221.126l-.125.1.133.183c.276.38.305.59.245 1.774-.051 1.013.07 2.019.342 2.843.215.653.465 1.114.901 1.663.261.329.238.369.356-.622.113-.95.114-3.366.002-4.105-.123-.816-.173-1.246-.147-1.272.013-.013.118.043.233.126.325.233.63.336 1.049.354.309.014.342.009.215-.03-.545-.166-.755-.311-.803-.554-.04-.199-.178-.249-.448-.162-.117.037-.213.05-.213.027 0-.074.209-.454.329-.596.152-.18.342-.258.627-.258.28.001.543.117 1.018.45.411.287.75.433 1.168.502.789.13 1.492-.249 1.661-.895.03-.114.064-.179.076-.143.122.37.197.512.353.668.545.544 1.646.477 2.499-.153.321-.236.731-.431.969-.459.25-.029.538.091.712.297.113.135.321.515.321.587 0 .022-.099.01-.22-.025-.242-.071-.426-.029-.426.097 0 .116-.119.305-.245.388-.067.044-.247.123-.401.175-.259.088-.268.095-.124.099.396.008.923-.173 1.248-.43.231-.183.242-.13.132.64-.153 1.066-.188 1.541-.188 2.524 0 .817.068 1.874.166 2.602.05.366-.033.138-.242-.672-.456-1.762-1.016-3.106-1.618-3.887-.244-.317-.686-.733-.928-.874-.297-.173-.654-.282-1.09-.332-.633-.073-.667-.082-.82-.217-.135-.118-.149-.121-.173-.047-.04.126-.219.184-.756.247-.807.096-1.18.262-1.707.762-.526.498-.949 1.189-1.374 2.246-.439 1.091-.983 3.112-.89 3.304.025.052.057.197.072.324s.057.306.094.398c.084.21.385.48.61.547.374.112 1.124.01 1.219-.166.018-.035.143-.344.277-.687.472-1.205 1.005-2.172 1.365-2.475.208-.176.547-.319.754-.32.125 0 .21-.027.269-.086.082-.082.086-.144.086-1.163 0-.934-.009-1.091-.072-1.186-.061-.094-.063-.116-.01-.149.077-.049.216-.05.291-.002.048.031.046.06-.011.169-.057.111-.068.306-.068 1.181 0 .77.014 1.067.053 1.121.034.045.16.09.334.118.335.053.568.158.812.366.476.407.981 1.385 1.38 2.673.101.326.16.453.232.491.451.243 1.052.266 1.397.053Zm-4.962-5.305c-.09-.094-.178-.136-.33-.156-.217-.029-.246-.103-.04-.103q.233 0 .286-.328c.016-.097.045-.203.066-.236.057-.091.18.006.243.193.047.139.042.178-.037.33-.061.117-.082.215-.065.301.014.07.02.127.013.127s-.068-.058-.136-.128m1.193-.062c0-.082-.031-.193-.069-.247-.087-.124-.088-.262-.002-.428.102-.196.202-.147.27.135.07.289.088.309.319.344.196.029.186.036-.157.107-.058.012-.162.07-.233.129l-.128.108Zm7.118-5.163c-.02-.244-.047-.365-.079-.354-.091.03-.101.26-.02.426.043.088.079.203.079.255s.011.083.025.069.012-.192-.005-.396"/></svg>