<svg xmlns="http://www.w3.org/2000/svg" viewBox="0 0 24 24"><path fill="#44739e" d="M12 1a11 11 0 1 0 11 11A11 11 0 0 0 12 1M6.41 5.923a8.22 8.22 0 0 1 5.243-2.165V3.75h.694v.008a8.22 8.22 0 0 1 5.241 2.17l.232.232q-.116-.116-.232-.223l-5.241 5.233V3.759c-.115 0-.231-.008-.347-.008s-.232 0-.347.008v7.411L6.415 5.928q-.115.11-.231.222ZM5.923 17.59a8.22 8.22 0 0 1-2.165-5.243H3.75v-.694h.008a8.22 8.22 0 0 1 2.17-5.238l.232-.231q-.116.116-.223.231l5.233 5.238H3.759c0 .115-.008.231-.008.347s0 .232.008.347h7.411l-5.242 5.238q.11.115.222.231Zm11.667.487a8.22 8.22 0 0 1-5.243 2.165v.008h-.694v-.008a8.22 8.22 0 0 1-5.241-2.17l-.232-.232q.116.116.232.223l5.241-5.233v7.411c.115 0 .231.008.347.008s.232 0 .347-.008V12.83l5.241 5.242q.116-.109.232-.222Zm2.663-5.733h-.008a8.22 8.22 0 0 1-2.17 5.241l-.231.231q.116-.116.222-.231l-5.236-5.238h7.411c0-.115.008-.231.008-.347s0-.232-.008-.347H12.83l5.242-5.241q-.109-.116-.222-.232l.231.232a8.22 8.22 0 0 1 2.161 5.241h.008v.694Z"/></svg>