<svg xmlns="http://www.w3.org/2000/svg" fill="#44739e" viewBox="0 0 24 24"><path d="M12.0157-.0043c-6.633 0-12 5.367-12 12s5.367 12 12 12 12-5.367 12-12-5.367-12-12-12m-8.9243 9.588c.7236 0 1.3565.3616 1.7183.9345.3618-.5427 1.0255-.9345 1.719-.9345 1.1456 0 2.0798.9347 2.0798 2.0804v2.7136h-.693v-2.6835c0-.7538-.603-1.3568-1.3869-1.3568-.7537 0-1.3572.603-1.3873 1.3568v2.6534h-.6631v-2.6534c0-.7538-.6029-1.3868-1.3868-1.3868-.7537 0-1.3566.603-1.3868 1.3567v2.6529H1.011v-2.6529c0-1.1457.9348-2.0804 2.0805-2.0804m8.9243.03a2.432 2.432 0 0 1 2.442 2.442 2.4323 2.4323 0 0 1-2.442 2.4427 2.4323 2.4323 0 0 1-2.442-2.4427 2.432 2.432 0 0 1 2.442-2.442m5.4571 0h.0606v.7237h-.0606c-.7538 0-1.3568.603-1.3568 1.3568v2.6534h-.7237v-2.6534c0-1.1457.9348-2.0504 2.0805-2.0805m3.1057 0a2.432 2.432 0 0 1 2.442 2.442v.1508h-4.161c.0604.9045.8145 1.5982 1.719 1.5982.6633 0 1.2662-.3917 1.5375-.9646l.633.3315c-.3919.784-1.2358 1.3268-2.1705 1.3268a2.4323 2.4323 0 0 1-2.442-2.4427 2.432 2.432 0 0 1 2.442-2.442m0 .7237c-.7839 0-1.417.5126-1.6583 1.206h3.2865c-.211-.6934-.8744-1.206-1.6282-1.206"/></svg>