<svg xmlns="http://www.w3.org/2000/svg" viewBox="0 0 24 24"><path fill="#44739e" d="M12 1C5.92 1 1 5.92 1 12s4.92 11 11 11 11-4.92 11-11S18.08 1 12 1M3.819 9.789c.664 0 1.244.331 1.575.857.332-.498.941-.857 1.576-.857 1.05 0 1.907.857 1.907 1.907v2.487h-.636v-2.459c0-.691-.552-1.244-1.271-1.244-.691 0-1.244.553-1.272 1.244v2.432h-.607v-2.432c0-.691-.553-1.272-1.272-1.272-.69 0-1.243.553-1.271 1.244v2.432h-.636v-2.432c0-1.05.857-1.907 1.907-1.907M12 9.816a2.229 2.229 0 0 1 2.239 2.239A2.23 2.23 0 0 1 12 14.294a2.23 2.23 0 0 1-2.238-2.239A2.229 2.229 0 0 1 12 9.816m5.002 0h.056v.664h-.056c-.691 0-1.243.553-1.243 1.244v2.432h-.664v-2.432c0-1.051.857-1.88 1.907-1.908m2.847 0a2.229 2.229 0 0 1 2.239 2.239v.138h-3.814c.055.829.746 1.465 1.575 1.465.608 0 1.161-.359 1.41-.884l.58.304c-.359.719-1.133 1.216-1.99 1.216a2.23 2.23 0 0 1-2.238-2.239 2.229 2.229 0 0 1 2.238-2.239m0 .664c-.718 0-1.299.47-1.52 1.105h3.013c-.194-.635-.802-1.105-1.493-1.105"/></svg>