<svg xmlns="http://www.w3.org/2000/svg" viewBox="0 0 24 24"><path fill="#44739e" d="M19.683 2.832c-.113 0-.217 0-.349.189-.774.84-1.538 1.699-2.303 2.501a.359.359 0 0 0 0 .311 7.92 7.92 0 0 1 1.888 3.284 9.03 9.03 0 0 1 .349 2.397 8.54 8.54 0 0 1-.472 3.473c-.16.405-.321.811-.51 1.264l-.943-.943a9.75 9.75 0 0 0 .745-4.577c-.424-1.501-.84-3.039-2.076-4.077l-2.595 2.68a3.152 3.152 0 0 1 1.133 2.133 3.142 3.142 0 0 1-1.227 3.01.717.717 0 0 0-.463.727v.868a3.605 3.605 0 0 0 2.624-2.614 4.84 4.84 0 0 0-.406-4.011l.793-.811a2.83 2.83 0 0 1 .283.491 8.38 8.38 0 0 1 .66 2.208 6.247 6.247 0 0 1-.641 3.435c-.114.245-.302.443-.434.679a.396.396 0 0 0 0 .293c.377.443.726.792 1.141 1.245s.944.878 1.359 1.331c.189.198.302.104.416-.057a9.8 9.8 0 0 0 .726-1.132 13.9 13.9 0 0 0 .717-1.954 11.9 11.9 0 0 0 .463-3.246 6.16 6.16 0 0 0-.189-1.604c-.16-.566-.151-1.18-.33-1.727a9.58 9.58 0 0 0-1.114-2.406c-.292-.387-.264-.463.066-.802l.623-.576c.406.755.849 1.434 1.198 2.237a8.75 8.75 0 0 1 .623 1.887 14.16 14.16 0 0 1 .321 3.671 10.38 10.38 0 0 1-.67 3.501c-.198.49-.377.943-.604 1.443a13.06 13.06 0 0 1-.943 1.652c-.199.236-.199.273 0 .472s.386.387.594.575a.208.208 0 0 0 .198 0 1.5 1.5 0 0 0 .302-.339c.387-.699.821-1.388 1.17-2.133a11.76 11.76 0 0 0 .689-2.01 11.5 11.5 0 0 0 .491-2.982 17.27 17.27 0 0 0-.179-3.275 14.74 14.74 0 0 0-2.765-6.407.65.65 0 0 0-.359-.274m-15.325.057a.444.444 0 0 0-.34.245c-.113.18-.254.331-.368.51a23 23 0 0 0-1.349 2.208 13.1 13.1 0 0 0-.783 2.265 11.08 11.08 0 0 0-.491 2.878 14.34 14.34 0 0 0 .179 3.303 11.87 11.87 0 0 0 .623 2.406c.245.51.368 1.095.642 1.604a22 22 0 0 0 1.198 1.888c0 .075.198.075.198.075a5.3 5.3 0 0 0 .585-.613.491.491 0 0 0 .095-.406c-.236-.415-.519-.802-.765-1.217a11.44 11.44 0 0 1-1.217-3.086 11.48 11.48 0 0 1-.283-3.586 11.5 11.5 0 0 1 .519-3.142 17.1 17.1 0 0 1 .944-2.341c.188-.387.424-.736.651-1.104.217.198.406.349.575.519.34.331.368.482.057.868a7.97 7.97 0 0 0-1.01 2.246 8.68 8.68 0 0 0-.509 2.114 9.24 9.24 0 0 0 .094 3.18 15.57 15.57 0 0 0 .68 2.482 14.6 14.6 0 0 0 .943 1.784 1.56 1.56 0 0 0 .255.358.245.245 0 0 0 .255 0c.491-.462 1.047-1 1.434-1.396s.746-.802 1.114-1.227a.415.415 0 0 0 0-.302 3.397 3.397 0 0 1-.793-1.595 5.737 5.737 0 0 1-.208-3.086 6.93 6.93 0 0 1 .944-2.161l.755.802a10.95 10.95 0 0 0-.519 1.605 9.5 9.5 0 0 0-.066 1.377 4.07 4.07 0 0 0 .359 1.52 1.42 1.42 0 0 0 .226.5 3.775 3.775 0 0 0 2.038 1.661c.198.047.255 0 .302-.104a2.27 2.27 0 0 1-.066-.67.679.679 0 0 0-.387-.727 2.746 2.746 0 0 1-1.245-2.349 3.048 3.048 0 0 1 .943-2.614.34.34 0 0 0 0-.302 8.2 8.2 0 0 0-.632-.623L8.586 7.164c-.491-.529-.614-.557-1.01 0A6.36 6.36 0 0 0 6.34 9.712a11.9 11.9 0 0 0-.349 2.217 7.55 7.55 0 0 0 .283 1.821c.151.557.302 1.076.462 1.595l-.944.944c-.254-.689-.537-1.283-.707-1.887a9.63 9.63 0 0 1-.274-1.888 9.5 9.5 0 0 1 .528-3.878 8.43 8.43 0 0 1 1.68-2.756.321.321 0 0 0 0-.292c-.415-.453-.887-.944-1.255-1.321s-.717-.784-1.066-1.189a.415.415 0 0 0-.34-.189m7.785 7.455a1.434 1.434 0 0 0-1.472 1.123 1.765 1.765 0 0 0 .387 1.698 1.444 1.444 0 0 1 .434.557 4.15 4.15 0 0 1 .151 1.019c.076 1.359.142 2.728.208 4.086a18.2 18.2 0 0 1 .056 2.076.76.76 0 0 0 .161.265l.075-.104c0-.481.095-.944.095-1.453.075-1.529.132-3.048.217-4.587 0-.434.085-.877.141-1.321a.444.444 0 0 1 .113-.217c.17-.17.35-.33.51-.519a2.18 2.18 0 0 0 .076-1.83 1.557 1.557 0 0 0-1.152-.793"/></svg>