<svg xmlns="http://www.w3.org/2000/svg" fill="#44739e" viewBox="0 0 24 24"><path d="M12.65 9.47V3.93c0-1.01-.82-1.84-1.82-1.84H3.57c-1 0-1.82.83-1.82 1.84v7.37c0 1.01.82 1.84 1.82 1.84h5.61c.57-1.67 1.84-3.02 3.47-3.67M7.2 2.85c.33 0 .61.28.61.62s-.27.61-.61.61-.6-.27-.6-.61.27-.62.6-.62m0 6.61c-1 0-1.82-.83-1.82-1.84S6.2 5.77 7.2 5.77s1.82.83 1.82 1.85S8.2 9.46 7.2 9.46m7.75 13.95c-.27 0-.5-.22-.5-.5l-.01-1.34c0-.28.22-.5.5-.5.27 0 .5.22.5.5l.01 1.34c0 .27-.23.49-.5.5M14.9 9.18c-.28 0-.5-.22-.5-.5l-.01-1.41c0-.28.22-.5.5-.5s.5.22.5.5l.01 1.41c0 .28-.23.5-.5.5M9.41 21.14c-.13 0-.25-.05-.35-.14-.2-.19-.2-.51 0-.71l.94-.96c.19-.2.51-.2.71 0 .2.19.2.51 0 .71l-.94.95c-.1.1-.23.15-.36.15m10.02-10.1c-.13 0-.25-.05-.35-.15-.2-.19-.2-.51 0-.71l.99-1c.19-.2.51-.2.71 0 .2.19.2.51 0 .71l-.99 1c-.1.11-.23.15-.36.15M7.1 15.62c-.27 0-.5-.22-.5-.5s.22-.5.5-.5l1.34-.01c.27 0 .5.22.5.5s-.22.5-.5.5zm14.23-.05c-.28 0-.5-.22-.5-.5s.22-.5.5-.5l1.41-.01c.28 0 .5.22.5.5s-.22.5-.5.5zm-.87 5.53c-.13 0-.25-.05-.35-.14l-1-.99c-.2-.19-.2-.51 0-.71.19-.2.51-.2.71 0l1 .99c.2.19.2.51 0 .71-.1.09-.23.14-.36.14m-5.55-11.08c-2.79 0-5.05 2.27-5.05 5.05s2.27 5.05 5.05 5.05 5.05-2.27 5.05-5.05-2.26-5.05-5.05-5.05m-4.05 5.06c0-2.06 1.56-3.75 3.55-4v8c-2-.25-3.55-1.94-3.55-4"/></svg>