<svg xmlns="http://www.w3.org/2000/svg" viewBox="0 0 24 24"><path fill="#44739e" d="M6.909 9.56c-1.084 0-1.973-.9-1.973-1.995s.889-2.006 1.973-2.006 1.974.9 1.974 2.006S7.994 9.56 6.909 9.56m0-7.167c.358 0 .662.304.662.673s-.293.661-.662.661-.65-.293-.65-.661.293-.673.65-.673m3.936-.824H2.973C1.889 1.569 1 2.469 1 3.564v7.991c0 1.096.889 1.996 1.973 1.996h7.872c1.085 0 1.974-.9 1.974-1.996V3.564c0-1.095-.889-1.995-1.974-1.995m6.506 13.64V8.324c0-.303-.239-.542-.542-.542s-.542.239-.542.542v6.885c-1.258.261-2.201 1.377-2.201 2.711 0 1.529 1.236 2.765 2.764 2.765s2.765-1.236 2.765-2.765c0-1.344-.965-2.472-2.244-2.711m-.521 4.392c-.932 0-1.68-.759-1.68-1.681s.759-1.68 1.68-1.68 1.681.759 1.681 1.68-.748 1.681-1.681 1.681m5.595-12.296c.304 0 .542-.238.542-.542s-.238-.542-.542-.542H19.78v-.51h.965c.303 0 .542-.238.542-.542s-.239-.542-.542-.542h-.965v-.499h2.678c.303 0 .542-.238.542-.542s-.239-.542-.542-.542h-2.884c-.423-1.106-1.497-1.898-2.744-1.898-1.626 0-2.949 1.323-2.949 2.95v9.91c-1.258.922-1.984 2.331-1.984 3.914 0 2.722 2.212 4.934 4.933 4.934s4.934-2.212 4.934-4.934c0-1.594-.727-3.003-1.984-3.925v-.314h2.645c.304 0 .542-.239.542-.543s-.238-.542-.542-.542H19.78v-.509h.954c.303 0 .542-.239.542-.542s-.239-.543-.542-.543h-.954v-.509h2.645c.304 0 .542-.239.542-.542s-.238-.542-.542-.542H19.78v-.51h.965c.303 0 .542-.239.542-.542s-.239-.542-.542-.542h-.965v-.51ZM20.68 17.92c0 2.125-1.724 3.849-3.85 3.849s-3.849-1.724-3.849-3.849c0-1.312.629-2.472 1.735-3.188l.033-.032c.032-.022.054-.054.086-.076a.33.33 0 0 0 .055-.076c.021-.032.032-.065.043-.098s.022-.075.022-.108c0-.022.011-.032.011-.054V4.096c0-1.03.834-1.865 1.864-1.865s1.865.835 1.865 1.865v10.17c0 .022.011.033.011.054 0 .044.011.076.022.109s.022.065.043.087c.022.032.033.054.055.086s.043.054.075.076c.011.011.022.033.044.044 1.095.704 1.735 1.864 1.735 3.198"/></svg>