<svg xmlns="http://www.w3.org/2000/svg" viewBox="0 0 24 24"><path fill="#44739e" d="m10.449 12.567-.26-.26c-.603-.614-.603-1.603 0-2.206.593-.593 1.54-.593 2.154-.042V2.982c0-1.051-.853-1.914-1.894-1.914H2.894C1.853 1.068 1 1.931 1 2.982v7.67c0 1.051.853 1.915 1.894 1.915ZM6.672 1.859c.343 0 .635.291.635.645s-.281.635-.635.635-.625-.281-.625-.635.281-.645.625-.645m0 6.878c-1.041 0-1.894-.863-1.894-1.914s.853-1.926 1.894-1.926 1.894.864 1.894 1.926-.854 1.914-1.894 1.914m15.808 6.578h-1.364c-.093-1.062-.499-2.019-1.134-2.8l.947-.947c.208-.208.208-.531 0-.739s-.531-.208-.739 0l-.936.937c-.781-.656-1.738-1.072-2.81-1.187v-1.29c0-.291-.229-.52-.521-.52s-.52.229-.52.52v1.301c-1.072.104-2.04.52-2.831 1.165l-.905-.915c-.208-.208-.531-.208-.739 0s-.208.53 0 .739l.926.926c-.645.791-1.051 1.758-1.155 2.82H9.377c-.291 0-.52.229-.52.52s.229.521.52.521h1.333c.114 1.051.53 2.008 1.186 2.789l-.957.957c-.209.208-.209.531 0 .739.104.104.239.156.364.156s.27-.052.364-.156l.968-.968c.78.625 1.727 1.03 2.778 1.135v1.394c0 .291.229.52.521.52s.52-.229.52-.52v-1.394c1.041-.105 1.988-.521 2.758-1.145l.989.988c.104.104.239.157.364.157s.27-.053.364-.157c.208-.208.208-.53 0-.738l-.989-.989a5.22 5.22 0 0 0 1.166-2.758h1.374c.291 0 .52-.229.52-.52s-.229-.541-.52-.541m-7.067-3.684v5.817l-.02 2.508c-2.082-.26-3.705-2.019-3.705-4.163 0-2.154 1.634-3.913 3.725-4.162"/></svg>