<svg xmlns="http://www.w3.org/2000/svg" fill="#44739e" viewBox="0 0 24 24"><path d="M7.2 9.46c-1 0-1.82-.83-1.82-1.84S6.2 5.77 7.2 5.77s1.82.83 1.82 1.85S8.2 9.46 7.2 9.46m0-6.61c.33 0 .61.28.61.62s-.27.61-.61.61-.6-.27-.6-.61.27-.62.6-.62m3.63-.76H3.57c-1 0-1.82.83-1.82 1.84v7.37c0 1.01.82 1.84 1.82 1.84h7.26c1 0 1.82-.83 1.82-1.84V3.93c0-1.01-.82-1.84-1.82-1.84m6 12.58V8.32c0-.28-.22-.5-.5-.5s-.5.22-.5.5v6.35c-1.16.24-2.03 1.27-2.03 2.5 0 1.41 1.14 2.55 2.55 2.55s2.55-1.14 2.55-2.55c0-1.24-.89-2.28-2.07-2.5m-.48 4.05c-.86 0-1.55-.7-1.55-1.55s.7-1.55 1.55-1.55 1.55.7 1.55 1.55-.69 1.55-1.55 1.55m5.16-11.34c.28 0 .5-.22.5-.5s-.22-.5-.5-.5h-2.44v-.47h.89c.28 0 .5-.22.5-.5s-.22-.5-.5-.5h-.89v-.46h2.47c.28 0 .5-.22.5-.5s-.22-.5-.5-.5h-2.66c-.39-1.02-1.38-1.75-2.53-1.75-1.5 0-2.72 1.22-2.72 2.72v9.14c-1.16.85-1.83 2.15-1.83 3.61 0 2.51 2.04 4.55 4.55 4.55s4.55-2.04 4.55-4.55c0-1.47-.67-2.77-1.83-3.62v-.29h2.44c.28 0 .5-.22.5-.5s-.22-.5-.5-.5h-2.44v-.47h.88c.28 0 .5-.22.5-.5s-.22-.5-.5-.5h-.88v-.47h2.44c.28 0 .5-.22.5-.5s-.22-.5-.5-.5h-2.44v-.47h.89c.28 0 .5-.22.5-.5s-.22-.5-.5-.5h-.89v-.47zm-1.61 9.79c0 1.96-1.59 3.55-3.55 3.55s-3.55-1.59-3.55-3.55c0-1.21.58-2.28 1.6-2.94l.03-.03c.03-.02.05-.05.08-.07.02-.02.04-.05.05-.07.02-.03.03-.06.04-.09s.02-.07.02-.1c0-.02.01-.03.01-.05v-9.4c0-.95.77-1.72 1.72-1.72s1.72.77 1.72 1.72v9.38c0 .02.01.03.01.05 0 .04.01.07.02.1s.02.06.04.08c.02.03.03.05.05.08s.04.05.07.07c.01.01.02.03.04.04 1.01.65 1.6 1.72 1.6 2.95"/></svg>