<svg xmlns="http://www.w3.org/2000/svg" viewBox="0 0 24 24"><path fill="#44739e" d="M12.159 8.642V2.971c0-1.034-.84-1.884-1.864-1.884H2.863C1.839 1.087 1 1.937 1 2.971v7.545c0 1.034.839 1.883 1.863 1.883h5.743c.584-1.709 1.884-3.091 3.553-3.757m-5.58-6.777c.338 0 .625.287.625.635s-.277.624-.625.624-.614-.276-.614-.624.277-.635.614-.635m0 6.767c-1.023 0-1.863-.85-1.863-1.884s.84-1.894 1.863-1.894 1.864.85 1.864 1.894-.84 1.884-1.864 1.884m7.934 14.281c-.276 0-.512-.225-.512-.512l-.01-1.372c0-.286.225-.512.512-.512.276 0 .512.226.512.512l.01 1.372c0 .277-.235.502-.512.512m-.051-14.568c-.287 0-.512-.225-.512-.512l-.01-1.443c0-.287.225-.512.512-.512s.512.225.512.512l.01 1.443c0 .287-.236.512-.512.512m-5.62 12.244c-.133 0-.256-.051-.359-.143-.204-.195-.204-.522 0-.727l.963-.983c.194-.205.522-.205.727 0 .204.195.204.522 0 .727l-.963.973a.52.52 0 0 1-.368.153M19.1 10.249c-.134 0-.256-.051-.359-.153-.204-.195-.204-.522 0-.727l1.014-1.024c.194-.204.522-.204.727 0 .204.195.204.522 0 .727l-1.014 1.024c-.102.112-.235.153-.368.153M6.477 14.938c-.276 0-.512-.225-.512-.512s.225-.512.512-.512l1.372-.01c.276 0 .512.225.512.512s-.226.512-.512.512Zm14.568-.051c-.287 0-.512-.225-.512-.512s.225-.512.512-.512l1.443-.01c.287 0 .512.225.512.512s-.225.512-.512.512Zm-.891 5.661c-.133 0-.256-.051-.358-.143l-1.024-1.014c-.205-.194-.205-.522 0-.727.194-.204.522-.204.727 0l1.024 1.014c.204.194.204.522 0 .727a.558.558 0 0 1-.369.143M14.472 9.205c-2.856 0-5.17 2.324-5.17 5.17s2.324 5.17 5.17 5.17 5.17-2.324 5.17-5.17-2.313-5.17-5.17-5.17m-4.146 5.18c0-2.109 1.597-3.839 3.634-4.095v8.19c-2.047-.256-3.634-1.986-3.634-4.095"/></svg>