<svg xmlns="http://www.w3.org/2000/svg" viewBox="0 0 24 24"><path fill="#44739e" d="M18.856 12.377c.222-.406 0-.734-.486-.734a1.565 1.565 0 0 0-1.271.734l-.868 1.636c-.222.406 0 .734.487.734a1.565 1.565 0 0 0 1.27-.734v-.01l.859-1.607Zm-.748.111-.757 1.423a.356.356 0 0 1-.281.184c-.101 0-.139-.082-.086-.184l.758-1.423a.354.354 0 0 1 .28-.184c.1 0 .139.082.086.184M15.68 13.94l.816-1.54h.42l.353-.665h-.416l.324-.608h-.401a.598.598 0 0 0-.469.304l-1.375 2.588c-.212.406.014.734.497.734a1.05 1.05 0 0 0 .29-.049l.332-.617a.514.514 0 0 1-.25.043c-.107-.016-.174-.088-.121-.19m6.754-2.297a1.388 1.388 0 0 0-1.371.887l-.265.498-.88 1.651h.411a.601.601 0 0 0 .469-.304l.332-.619c.053.01.111.015.169.02a1.591 1.591 0 0 0 1.294-.744l.014-.029.232-.434.02-.034c.26-.492.184-.892-.425-.892m-.261.839-.207.392a.486.486 0 0 1-.377.246h-.121l.304-.575.035-.063a.357.357 0 0 1 .279-.183c.102 0 .141.082.087.183m-2.148 1.514.478-.898h-.869l-.28.525h.174l-.097.18c-.106.221-.232.284-.333.284s-.14-.083-.086-.183l.062-.117.7-1.312a.357.357 0 0 1 .28-.183c.102 0 .139.082.087.183l-.208.391h.695l.256-.484v-.018c.222-.406 0-.734-.487-.734a1.562 1.562 0 0 0-1.269.734l-.754 1.419-.111.221c-.222.406 0 .734.488.734a1.565 1.565 0 0 0 1.269-.734Zm-4.485-1.619c.222-.406 0-.734-.488-.734a1.563 1.563 0 0 0-1.269.734l-.874 1.636c-.221.406 0 .734.488.734a1.565 1.565 0 0 0 1.27-.734v-.01l.859-1.607Zm-.719.111-.763 1.423a.356.356 0 0 1-.279.184c-.102 0-.141-.082-.088-.184l.763-1.423a.356.356 0 0 1 .28-.184c.101 0 .14.082.087.184m-1.811-.821h-1.085a1.302 1.302 0 0 0-1.372.855l-1.154 2.162h.411a.612.612 0 0 0 .473-.309l.632-1.192.352-.665a.374.374 0 0 1 .289-.185c.092 0 .131.067.096.159a.038.038 0 0 0-.009.025l-.352.665-.797 1.501h.41a.48.48 0 0 0 .222-.063.62.62 0 0 0 .256-.246l.633-1.192.332-.638.015-.028a.373.373 0 0 1 .28-.185c.101 0 .14.083.087.185l-.353.665-.796 1.501h.41a.612.612 0 0 0 .474-.309l.989-1.859c.32-.61-.027-.847-.443-.847m-6.275 6.749h2.408a1.14 1.14 0 0 0 .887-.58l1.362-2.539H8.398Zm6.888-7.367a1.545 1.545 0 0 0 1.208-.787l1.413-2.708h1.52a.819.819 0 0 0 .642-.416l.826-1.539h-1.549a.819.819 0 0 0-.642.415l-.814 1.52h-2.922a1.545 1.545 0 0 0-1.207.787l-1.421 2.723H6.426l2.882-5.46H5.001a2.186 2.186 0 0 0-1.708 1.115L1 11.044h5.421l-2.273 4.253h4.257l2.276-4.248Z"/></svg>