<svg xmlns="http://www.w3.org/2000/svg" fill="#44739e" viewBox="0 0 24 24"><path d="M18.185 12.34c.2-.366 0-.662-.439-.662a1.412 1.412 0 0 0-1.146.662l-.783 1.476c-.2.366 0 .662.439.662a1.412 1.412 0 0 0 1.146-.662v-.009l.775-1.45zm-.675.1-.683 1.284a.321.321 0 0 1-.253.166c-.091 0-.126-.074-.078-.166l.684-1.284a.319.319 0 0 1 .252-.166c.091 0 .126.074.078.166m-2.19 1.31.736-1.389h.379l.318-.6h-.375l.292-.548h-.361a.539.539 0 0 0-.423.274l-1.241 2.334c-.191.366.013.662.449.662a.95.95 0 0 0 .261-.044l.3-.557a.464.464 0 0 1-.226.039c-.096-.014-.157-.079-.109-.171m6.092-2.072a1.252 1.252 0 0 0-1.237.8l-.239.449-.793 1.489h.37a.542.542 0 0 0 .423-.274l.3-.558c.048.009.1.013.152.018a1.435 1.435 0 0 0 1.167-.671l.013-.026.209-.392.018-.03c.235-.444.166-.805-.383-.805m-.235.757-.187.353a.438.438 0 0 1-.34.222h-.109l.274-.518.031-.057a.322.322 0 0 1 .252-.165c.092 0 .127.074.079.165M19.239 13.8l.431-.81h-.784l-.252.474h.157l-.088.162c-.095.2-.209.256-.3.256s-.126-.074-.078-.165l.056-.105.632-1.184a.322.322 0 0 1 .252-.165c.092 0 .126.074.079.165l-.188.353h.627l.231-.436v-.017c.2-.366 0-.662-.439-.662a1.409 1.409 0 0 0-1.145.662l-.68 1.28-.1.2c-.2.366 0 .662.44.662a1.412 1.412 0 0 0 1.145-.662zm-4.045-1.46c.2-.366 0-.662-.44-.662a1.41 1.41 0 0 0-1.145.662l-.788 1.476c-.2.366 0 .662.44.662a1.412 1.412 0 0 0 1.145-.662v-.009l.775-1.45zm-.649.1-.688 1.284a.321.321 0 0 1-.252.166c-.092 0-.127-.074-.079-.166l.688-1.284a.321.321 0 0 1 .253-.166c.091 0 .126.074.078.166m-1.633-.74h-.979a1.174 1.174 0 0 0-1.237.771l-1.041 1.95h.37a.552.552 0 0 0 .427-.279l.57-1.075.318-.6a.337.337 0 0 1 .26-.167c.083 0 .118.061.087.144a.034.034 0 0 0-.008.022l-.318.6-.719 1.354h.37a.43.43 0 0 0 .2-.057.56.56 0 0 0 .231-.222l.571-1.075.3-.575.013-.026a.336.336 0 0 1 .253-.166c.091 0 .126.074.078.166l-.318.6-.718 1.354h.37a.552.552 0 0 0 .427-.279l.892-1.676c.289-.551-.024-.764-.399-.764m-5.66 6.087h2.172a1.028 1.028 0 0 0 .8-.523l1.228-2.29h-2.7zm6.213-6.645a1.394 1.394 0 0 0 1.089-.71l1.275-2.442H17.2a.739.739 0 0 0 .579-.375l.745-1.389h-1.397a.739.739 0 0 0-.579.375l-.735 1.371h-2.635a1.394 1.394 0 0 0-1.089.71l-1.282 2.456H6.973l2.6-4.925H5.688a1.972 1.972 0 0 0-1.541 1.006l-2.068 3.919h4.89l-2.051 3.836h3.84l2.053-3.832z"/></svg>