<svg xmlns="http://www.w3.org/2000/svg" viewBox="0 0 24 24"><path fill="#44739e" d="M8.156 22.987c-.217-.058-.14-.23.103-.231.242-.001.309-.034.46-.226.086-.11.08-.136-.049-.227-.169-.118-.497-1.075-.497-1.448 0-.193.027-.239.138-.239.087 0 .138.046.138.124 0 .175.185.864.314 1.172.101.239.117.249.202.133.078-.106.218-.611.353-1.273.039-.194.305-.219.305-.028 0 .495-.564 1.973-.811 2.125-.16.099-.499.159-.656.118m3.275-.7c-.075-.075-.19-.37-.259-.661-.068-.288-.134-.514-.147-.501s-.07.206-.127.431c-.175.688-.232.787-.452.787-.181 0-.207-.035-.333-.443-.075-.243-.158-.632-.184-.863-.045-.397-.039-.421.098-.421.153 0 .175.054.25.622.051.388.175.782.229.728.023-.023.105-.296.183-.609.106-.423.174-.573.267-.591.205-.038.305.108.43.63.066.274.143.541.17.593.054.102.26-.671.293-1.096.013-.173.055-.248.15-.266.122-.023.128.009.088.448-.062.684-.195 1.132-.37 1.248-.134.089-.165.085-.286-.036m3.306.05c-.802-.173-.669-1.717.15-1.741.139-.003.331.035.427.086.198.106.386.458.386.722 0 .179-.001.179-.587.179-.541 0-.587.011-.587.138 0 .076.066.205.147.286.129.128.198.141.553.104.396-.041.455-.019.352.135-.068.103-.548.155-.841.091m.639-1.151c-.079-.224-.175-.293-.405-.293-.238 0-.445.146-.445.315 0 .076.106.099.447.099.396 0 .442-.014.403-.121m2.174 1.173c-.103-.014-.266-.118-.363-.233-.225-.268-.246-.874-.042-1.209.383-.628 1.318-.304 1.318.456v.21h-.587c-.521 0-.587.014-.587.125 0 .069.067.197.148.285.134.144.191.156.553.118.333-.035.404-.024.404.063 0 .057-.039.116-.087.131-.163.05-.57.079-.757.054m.636-1.113c0-.154-.262-.371-.449-.371s-.449.217-.449.371c0 .033.202.061.449.061s.449-.028.449-.061m-13.881.976c.001-.246.357-1.441.538-1.804.225-.451.366-.561.539-.419.178.147.483.861.649 1.522.08.319.162.635.182.701.027.092-.005.121-.131.121-.145 0-.177-.048-.251-.38l-.085-.38H4.742l-.085.38c-.067.3-.114.38-.219.38-.08 0-.133-.048-.133-.121m1.312-1.017c0-.208-.347-.89-.417-.82-.068.067-.342.765-.342.869 0 .029.171.053.38.053.288 0 .379-.024.379-.102m.928 1.047c-.019-.05-.026-.43-.015-.846l.02-.755.241-.015c1.088-.065 1.105-.05 1.105.989 0 .672-.009.718-.138.718s-.138-.046-.138-.692c0-.664-.007-.695-.166-.768q-.166-.075-.362-.01l-.197.065-.02.703c-.018.649-.03.702-.157.702-.076 0-.154-.041-.173-.091m5.978-1.118c0-1.162.006-1.208.138-1.208.122 0 .139.046.139.372v.373l.248-.056c.294-.066.623.03.72.211.037.07.068.44.068.822 0 .649-.01.695-.139.695-.128 0-.138-.046-.138-.651 0-.82-.102-.959-.604-.825-.149.04-.155.074-.155.759 0 .671-.009.717-.139.717-.132 0-.138-.046-.138-1.209m3.522.352v-.857l.294.002c.161.001.34-.009.397-.024.217-.053.092.174-.138.251l-.242.081-.02.702c-.018.645-.03.702-.155.702-.128 0-.136-.051-.136-.857m2.625-1.176c0-.173-.031-.246-.104-.246-.057 0-.104-.031-.104-.069s.109-.069.242-.069.242.031.242.069-.031.069-.069.069-.069.091-.069.203-.031.222-.069.246c-.041.025-.069-.057-.069-.203m.345-.073c0-.361.154-.432.261-.121l.066.19.09-.192c.05-.105.124-.181.164-.167.102.033.137.462.045.554-.052.053-.074.015-.076-.13l-.003-.203-.109.201-.11.202-.092-.167-.093-.167-.003.155c-.001.085-.033.155-.071.155s-.069-.139-.069-.31M4.4 18.787c-.069-.179.018-3.02.099-3.22.088-.219.253-.293.437-.194.076.041.294.41.489.828.193.416.373.755.4.755s.208-.34.404-.757c.371-.79.528-.96.769-.831.211.113.238.333.241 1.968l.002 1.52h-.346l-.019-1.38c-.01-.758-.044-1.404-.075-1.435-.031-.032-.207.273-.392.676-.51 1.114-.662 1.115-1.175.001-.184-.401-.359-.728-.388-.728s-.063.644-.073 1.433c-.019 1.427-.019 1.433-.174 1.455-.096.013-.173-.022-.199-.091m4.084.01c-.262-.12-.415-.292-.55-.615-.132-.316-.138-.95-.011-1.245.306-.715 1.237-.933 1.785-.418.289.272.399.568.397 1.074-.001.487-.173.872-.496 1.112-.236.175-.838.224-1.125.092m.984-.48c.415-.381.334-1.367-.131-1.607-.371-.192-.857-.062-1.008.27-.288.631-.072 1.392.431 1.516.224.055.541-.025.708-.179m1.863.498c-.185-.108-.435-.655-.704-1.545-.291-.959-.294-1.004-.078-1.004.145 0 .184.06.311.48.214.702.562 1.592.625 1.592.069 0 .447-1.004.604-1.606.113-.434.135-.466.313-.466.105 0 .191.024.191.055s-.078.323-.173.651c-.316 1.089-.722 1.927-.928 1.916-.022-.001-.094-.034-.161-.073m1.814-1.232v-1.317h.348l-.018 1.295c-.019 1.283-.02 1.295-.175 1.317l-.155.022Zm1.519 1.152c-.441-.3-.518-.475-.518-1.179 0-.553.021-.663.161-.86.208-.291.506-.442.875-.442.614 0 .992.377 1.053 1.051l.037.411h-1.83l.047.19c.07.287.231.499.438.579.187.073.841.046 1.067-.045.096-.038.121-.012.121.129 0 .145-.046.189-.259.248-.449.125-.938.091-1.192-.082m1.243-1.436c0-.166-.206-.544-.335-.613-.076-.041-.26-.075-.407-.075-.305 0-.589.243-.666.57l-.044.19h.726c.453 0 .726-.027.726-.072m1.105 1.501c-.172-.059-.248-.13-.265-.248-.02-.143-.002-.159.138-.118.089.026.32.065.513.087.451.052.667-.052.637-.308-.017-.145-.139-.262-.569-.544-.567-.372-.725-.556-.725-.851-.001-.356.313-.562.863-.567.504-.005.79.119.79.341 0 .138-.025.162-.121.12-.559-.241-1.122-.174-1.122.134 0 .136.101.233.519.493.285.178.58.402.656.498.149.189.178.502.066.712-.168.313-.838.435-1.38.251m-3.909-3.117c-.076-.196.006-.349.198-.371.175-.021.189-.004.189.224 0 .218-.02.246-.174.246-.097 0-.192-.044-.213-.099m-8.288-3.002c-.118-.072-.25-.232-.293-.355-.12-.345-.093-1.857.06-3.365.545-5.343.965-7.265 1.676-7.66.085-.047.286-.086.447-.088.538-.004.86.449 1.536 2.159.162.41.303.736.314.725s.193-.326.405-.701c.707-1.249 1.401-2.065 1.956-2.299.783-.33 1.602.178 2.504 1.552.191.292.448.724.571.961s.24.432.259.431c.019 0 .142-.287.273-.638.365-.979.732-1.665 1.04-1.943.229-.207.327-.249.581-.249.9 0 1.287 1.13 1.83 5.352.428 3.329.525 5.286.289 5.806-.143.314-.445.488-.726.417-.5-.125-.828-.699-2.099-3.668-.974-2.276-.991-2.313-1.044-2.313-.023 0-.115.194-.206.431-.193.507-.927 1.998-1.131 2.297-.997 1.464-2.232 1.493-3.274.079-.298-.405-.966-1.715-1.228-2.409-.068-.179-.147-.312-.176-.294-.051.032-.588 1.231-1.173 2.624-.847 2.011-1.343 2.94-1.681 3.146-.274.168-.438.168-.71.002M6.529 8.6c.266-.627.684-1.583.928-2.126.512-1.14.517-.931-.05-2.432-.433-1.147-.673-1.672-.745-1.628-.143.089-.436 1.518-.695 3.399-.239 1.728-.487 4.107-.482 4.617l.005.484.277-.587c.153-.323.496-1.1.762-1.727m10.805 1.502c-.048-.838-.303-3.067-.535-4.679-.228-1.587-.553-3.038-.68-3.038-.075 0-.468.882-.896 2.01l-.357.94.452 1.017c.248.56.451 1.029.451 1.044s.299.702.665 1.53c.365.827.707 1.605.76 1.729.053.123.116.224.141.224.024 0 .024-.349-.001-.777m-5.437-.737c.466-.504 1.061-1.698 1.668-3.341l.224-.609-.236-.492c-.326-.683-1.129-2.028-1.426-2.39-.246-.3-.598-.562-.758-.562-.13-.001-.561.405-.856.805-.282.381-1.169 1.93-1.386 2.419l-.129.29.284.781c.463 1.276 1.13 2.573 1.545 3.001.464.479.699.5 1.07.098"/></svg>