<svg xmlns="http://www.w3.org/2000/svg" viewBox="0 0 24 24"><path fill="#44739e" d="M14.8152 16.0966c-.0323.0214-.0352.0513-.0243.2162.0221.344.0924.694.2121 1.058.0805.2474.1288.3067.2555.3148.1216.0084.204-.0644.2705-.2354.0553-.1448.2011-.704.2423-.9322.004-.02.0102-.0372.0142-.0372.003 0 .017.0483.029.1076.0472.2222.1538.6366.1991.7744.0523.1639.1016.2484.1659.2916.0373.025.0523.0283.1197.0283.0694 0 .0814-.003.1196-.03.0584-.0393.0926-.1036.1479-.2716.1277-.3892.2152-.8528.2152-1.1435 0-.1498.001-.1488-.1247-.1488-.1227 0-.1227-.001-.1297.1609-.0149.3027-.0895.6919-.2001 1.0429-.0232.0734-.0452.1337-.0493.1337-.016 0-.0894-.2554-.185-.6366-.1136-.4546-.1378-.5139-.2183-.5561-.0352-.0178-.1418-.0178-.178.001-.0372.0192-.0764.0654-.1006.1206-.0112.025-.0632.2182-.1155.4294-.0935.3792-.17.6417-.186.6417-.0113 0-.0967-.2756-.1358-.4425-.0664-.2776-.1036-.52-.1137-.7291-.0069-.167-.0058-.166-.1277-.166-.0503 0-.0965.004-.1026.0084zm-1.588.012c-.016.017-.017.0323-.0112.1136.0142.2072.0885.5582.178.8367.0563.179.1528.4234.19.4807.0342.0543.0976.0986.168.1177.0272.0072.0503.0142.0523.016.004.004-.0553.1126-.1026.187-.0985.154-.192.1921-.4113.169-.0654-.0072-.1256-.0102-.1337-.0058-.02.0072-.0214.1539-.0019.181.028.0382.3258.0442.4566.0102.0875-.0233.174-.0725.2342-.1348.0906-.0925.2435-.369.3601-.6486.1398-.334.2675-.7985.3027-1.0962.0243-.2122.0243-.2032.002-.2253-.0182-.0181-.0335-.021-.1117-.021-.1097 0-.1308.014-.1308.0824 0 .2192-.1488.7945-.2996 1.1596l-.0503.1206-.0443.003c-.029.002-.0492-.002-.0563-.0112-.0192-.0221-.0965-.2243-.156-.4043-.0984-.2989-.1649-.5845-.1879-.8048-.016-.1438-.017-.1458-.1358-.1458-.0794 0-.0945.003-.1106.02zm-7.4852-.004-.022.0148v.7623c0 .5783.0029.7643.0122.7734.0077.0084.0473.012.1096.012.0905 0 .0996-.002.1137-.0222s.016-.1096.016-.7693c0-.875.014-.7874-.1238-.7874-.0593 0-.0895.005-.1056.016zm-1.6522.003-.0233.0177.028.1197c.1247.532.374 1.2018.4999 1.3456.0533.0604.0854.0765.1548.0765.0684 0 .1026-.016.1499-.0725.1287-.1498.4002-.877.5098-1.3647l.0243-.1036-.0243-.0189c-.034-.0283-.191-.0283-.2162 0-.0094.0102-.0352.0885-.0573.173-.0513.2011-.1981.6376-.2937.876-.0413.1025-.0795.195-.0844.2041-.0076.013-.029-.0301-.0915-.188-.1328-.331-.2343-.6336-.3087-.9162-.0193-.0714-.0423-.1388-.0514-.1489-.025-.0283-.182-.0283-.2162 0zm17.585-.029c-.2242.0351-.3972.178-.4867.4032-.1015.2545-.0875.6517.0323.879.0473.0905.165.2041.2585.2494.1106.0542.178.0684.3368.0744.153.0058.3128-.0149.4496-.0573.0946-.029.0986-.0341.0986-.1408 0-.1076-.007-.1126-.1036-.0815-.163.0543-.3792.0754-.5139.0523-.149-.0261-.2525-.0925-.3108-.2002-.03-.0563-.0674-.188-.0674-.2403v-.033h.5169c.6165 0 .5692.0102.5692-.1257 0-.1187-.017-.2273-.0513-.3319-.0422-.1247-.0804-.189-.169-.2775-.0804-.0805-.174-.1348-.2755-.159-.0674-.0159-.2122-.022-.2836-.0112zm.183.2312c.1892.0312.2948.1509.34.3842l.013.0684h-.8438l.0058-.0483c.0181-.1277.0905-.2746.162-.3288.0653-.0493.1186-.0674.2503-.0845.0058 0 .0382.004.0724.0091zm-1.0277-.2333c-.0604.0058-.1428.0341-.2233.0775l-.0835.0442V16.16c0-.0593-.0214-.0714-.1227-.0714-.0703 0-.0885.003-.1015.0182-.016.017-.0171.0854-.0171.7703 0 .4988.003.7583.0102.7713.0101.017.0221.0193.1096.0193.0825 0 .1016-.003.1146-.0182.015-.017.0171-.0754.0171-.6335v-.6145l.0734-.0352a.75.75 0 0 1 .2665-.0724c.1217-.0091.1127-.001.1127-.1096 0-.1217-.003-.1238-.156-.1076zm-1.6393.001c-.1458.0243-.2534.0775-.3499.175-.0534.0543-.0774.0895-.1167.171-.0269.0563-.0563.1337-.0653.172-.0413.1709-.0402.4223.003.5913.0623.2423.2272.4143.4586.4766.0814.0222.2997.029.4112.015.1299-.0171.3088-.0655.325-.0875.0075-.0113.013-.0493.013-.1056 0-.0714-.003-.0885-.016-.0936-.0087-.003-.0644.0072-.1237.0243-.1317.0372-.2193.0503-.343.0503-.2886 0-.4404-.1096-.4967-.359-.0087-.0402-.016-.0835-.016-.0976v-.0261h.517c.5148 0 .5159 0 .544-.0221l.0272-.0215-.005-.1317c-.0077-.2092-.0595-.369-.159-.5018-.0745-.0996-.2082-.186-.3329-.2172-.0643-.015-.2132-.0222-.2746-.012zm.2314.2444c.0864.021.181.0996.2252.187.02.0393.0533.152.0654.2203l.0058.033h-.8458l.007-.0382c.0243-.1438.0684-.2454.1367-.3128.0946-.0955.2474-.1297.4054-.0895zm-7.0538-.2424c-.0835.0113-.191.0433-.2644.0805-.0323.016-.0604.029-.0634.029s-.0048-.0148-.0048-.033c0-.0543-.0232-.0674-.1216-.0674-.0604 0-.0915.004-.1076.016l-.0222.0149v.7583c0 .6758.002.7592.016.7733.0221.0232.1971.0232.2193 0 .0141-.0141.016-.0844.016-.6315 0-.4818.003-.6195.013-.6266.021-.017.1598-.0704.2283-.0895.0371-.0102.1025-.017.1508-.017.1548-.001.2363.0452.2836.1609l.0232.0583.003.5632c.0019.5008.005.5641.0192.5802.013.015.0334.0182.1137.0182.0613 0 .1006-.004.1087-.012.0087-.009.012-.1489.012-.5682 0-.4616-.003-.5702-.015-.6346-.0582-.2886-.2674-.4174-.6074-.3731zm-4.08-.001c-.1438.0203-.2403.0644-.3087.1408-.0925.1026-.1107.2645-.0453.4013.0124.025.0564.0804.0975.1216.0614.0604.1137.0976.2625.185.2343.1399.322.1972.355.2374.0836.0986.0383.2414-.0905.2857-.0673.0232-.187.0312-.2704.017-.0383-.0058-.1339-.0323-.2132-.0583-.1761-.0573-.177-.0573-.181.0503-.004.1006.01.1166.1417.1629.2384.0844.521.0875.691.0069.0703-.033.1458-.1036.177-.165.0371-.0734.0512-.174.0362-.2615-.0283-.1639-.1086-.2433-.4515-.4485-.1328-.0794-.2585-.162-.2786-.182-.0895-.0915-.0744-.2062.0323-.2555.0411-.0192.0653-.022.188-.022.1569 0 .2182.014.3701.0834.1036.0462.1115.0422.1156-.0614.0019-.0442-.002-.0865-.0077-.0985-.016-.029-.182-.1066-.2665-.1247-.0884-.019-.2724-.0272-.3528-.015zm-1.4521.0051c-.1409.0283-.2364.0805-.329.18-.1458.1549-.2151.3953-.201.6889.0159.3198.1336.542.3449.6517.1278.0663.183.0774.3862.0784.183 0 .2474-.009.4103-.0573.0946-.0283.1046-.0412.1005-.1438-.0036-.1036-.0101-.1066-.1256-.0734-.1479.0442-.2032.0523-.345.0533-.1981 0-.2937-.0283-.3862-.1157-.0754-.0714-.1227-.18-.1398-.3188l-.005-.0422.5279-.003.528-.003.02-.025c.0192-.0233.0202-.0342.014-.1379-.014-.2584-.0824-.4344-.2211-.5712-.0775-.0764-.16-.1236-.2625-.1508-.0804-.021-.2363-.0261-.3168-.0102zm.2162.2273c.1699.0312.2745.1448.3208.348.0087.0402.016.0794.016.0874 0 .0142-.0472.016-.4173.016h-.4173v-.0232c0-.013.0087-.0583.0192-.0996.0482-.187.1428-.2916.2946-.3248.0795-.017.1106-.0178.184-.004zm-3.9251-.2312c-.2665.0412-.4697.2334-.546.517-.0172.0623-.0232.1186-.0262.2513-.0057.2233.012.3239.0885.4767.1187.2394.3238.363.6024.363.339 0 .5813-.192.6708-.531.0232-.0864.0261-.1166.0261-.2684 0-.184-.0102-.2565-.0584-.3822-.0774-.2082-.2494-.365-.4485-.4123-.0845-.0192-.2293-.0261-.3087-.0141m.2725.2605c.1257.0392.2132.1337.2645.2866.0363.1076.0452.3007.02.4284-.0412.2062-.1358.3228-.3007.3731-.0895.0262-.2232.0222-.3108-.012-.1186-.0442-.2121-.1649-.2564-.3318-.0243-.0906-.0243-.3208.001-.4124.0493-.182.1438-.2906.2927-.3379.0653-.02.2132-.017.2896.0058zm19.5673-.5732v.2514h.0905l.0019-.193.003-.1931.034.0895c.0182.0502.0514.1368.0735.194l.0402.1037.0363-.003.0363-.003.0714-.186.0704-.1862.003.1881.0019.189h.0904v-.5028h-.0693c-.0463 0-.0705.004-.0745.012a8 8 0 0 1-.0623.1639 4 4 0 0 1-.0644.1589c-.004.004-.0362-.0694-.0725-.164l-.064-.171h-.1459zm-.513-.2112v.0402h.1609v.4224h.0905v-.4224h.1609v-.0804h-.4123Zm-5.328-.0283c-.017.017-.017 2.1109 0 2.128.0077.0084.0473.012.1086.012.0815 0 .1006-.003.1137-.0178.0149-.017.017-.0765.017-.6527v-.6337l.0886-.026c.179-.0544.377-.0624.4606-.019.0573.029.1066.0906.1307.16.0181.0542.0192.0975.0243.6144.004.4797.0069.5571.02.5652.0075.005.0563.0102.1075.0102.0705 0 .0956-.004.1076-.016.0142-.0142.016-.0785.016-.5571 0-.6065-.003-.6447-.0654-.7714-.0945-.193-.2785-.2725-.5621-.2454-.1007.0102-.2595.0433-.3098.0654-.017.0084-.0181-.0102-.0181-.2937 0-.2614-.0019-.3047-.016-.3177-.02-.0204-.204-.0233-.2232-.004zm-6.596.0019c-.0937.0301-.145.0955-.2656.3369-.166.3349-.2776.6818-.4516 1.407-.1006.4193-.1036.3941.0493.3941.0845 0 .1006-.003.1156-.0192.0112-.012.0473-.1418.0976-.349.0443-.181.0825-.3328.0855-.3368.003-.0051.2042-.0091.4465-.0091h.4415l.0102.0371c.0058.0214.0422.172.0814.335.0392.1629.0784.3066.0865.3187.013.021.0221.0233.1146.0233.1076 0 .1308-.0102.1308-.0544 0-.0563-.1901-.8176-.2675-1.074-.1227-.4042-.3038-.8125-.4143-.9352-.0675-.0744-.171-.1036-.2605-.0744m.1768.4536c.0856.171.1348.2956.2132.532.0323.0985.0594.181.0594.183s-.167.004-.3721.004c-.2153 0-.3721-.004-.3721-.009 0-.0182.0935-.2998.1368-.4104.0653-.171.1005-.2484.1678-.3731l.0613-.1147.0182.0244c.0102.013.0492.0865.0875.1639zM.6615 15.5372c-.0584.0312-.1046.1056-.1197.1921-.015.0885-.0382.36-.0513.5904-.0049.1075-.01.4505-.01.7613 0 .6556-.015.5863.1287.5863.0724 0 .0925-.003.1046-.0182.0142-.0149.0172-.1006.0212-.6858.0058-.712.022-1.067.0473-1.0389.0038.004.0945.189.2.4103.2042.4264.2435.4968.2957.528.0433.0272.1217.0272.166 0 .0704-.0433.0855-.0714.369-.6718.0715-.1498.1328-.2735.1368-.2735.003 0 .0088.0392.0131.0874.0201.2605.0261.4667.0322 1.0238.0057.541.0076.6145.022.6255.01.0084.0493.013.1076.013.0765 0 .0956-.003.1086-.018.015-.0171.0172-.0664.0172-.5009 0-.8035-.0351-1.3717-.0926-1.5034-.0602-.1428-.2232-.168-.3318-.0524-.0141.015-.1227.2294-.2404.4757-.1166.2466-.2162.4507-.2192.4548s-.1005-.1921-.2173-.4355c-.1155-.2444-.2211-.4586-.2342-.4767-.0292-.0452-.0986-.0845-.159-.0915-.0391-.0047-.0582-.001-.0944.0181zm5.0645-.0203c-.013.017-.016.0513-.016.1489 0 .172-.0009.171.1349.171.0663 0 .1065-.004.1146-.012.0076-.0084.0123-.0573.0123-.1549 0-.18.0036-.175-.1308-.175-.0915 0-.1006.002-.1146.0221zm5.5754-9.7419c-.1448.0312-.2554.0785-.3982.171-.1499.0975-.2726.2082-.4395.3972-.3168.361-.6245.8357-.9876 1.5256-.0442.0845-.0834.1539-.0865.1539-.0029 0-.0432-.1056-.0895-.2343-.187-.526-.3258-.868-.4635-1.1435-.2163-.4334-.4114-.6527-.6478-.727-.0975-.0303-.2443-.0293-.3368.002-.2393.0824-.4173.2996-.5582.6848-.2211.5994-.4062 1.6201-.6235 3.4343-.202 1.6775-.2856 2.6922-.2735 3.3117.0047.2987.0189.4224.0634.5793.0793.2836.2635.4314.5188.4163.0675-.004.0916-.0112.166-.0483.0734-.0361.1046-.0603.184-.1398.2133-.2152.4133-.5792.8267-1.5095.1538-.346.8327-1.9308.8327-1.944 0-.01-.2977-.8648-.348-1.0016l-.017-.0442-.0141.0272c-.0273.0513-.3047.6919-.6135 1.414-.4233.9915-.6677 1.5457-.7974 1.8102l-.0413.0854.005-.0955a15 15 0 0 0 .016-.2766c.0363-.6315.1399-1.6291.2977-2.8862.1589-1.2652.2997-2.0898.4415-2.5856.0423-.1478.1106-.343.1247-.359.0102-.01.0986.1518.171.3117.1508.334.2695.6497.6416 1.7077.4586 1.3063.6889 1.8836.9846 2.4689.2584.5139.4676.8246.728 1.086.1831.1831.356.2988.5481.3682.2334.0834.4556.0844.689.0058.5862-.1991 1.086-.9132 1.6814-2.4036.1599-.4012.2927-.7592.5712-1.5457.3862-1.0891.5561-1.5205.72-1.8343.0364-.0694.0765-.1408.0896-.16l.0243-.0351.016.0392c.1397.3279.2806.9433.4113 1.7961.1408.9132.343 2.6308.4184 3.538.0243.2926.0502.707.0492.7844v.0553l-.0312-.0604c-.0996-.1909-.33-.7148-.8046-1.825-.368-.8599-.6286-1.4583-.6417-1.4713-.004-.005-.012.004-.0177.0201-.2434.6798-.354.9936-.354 1.0057 0 .0141.4133.9855.714 1.6774.2564.5893.4877 1.0882.5993 1.2943.1479.2736.2565.4315.3761.5521.0694.0694.1026.0946.175.1308.1394.0672.2805.0661.4103.0019.356-.177.4173-.6809.2796-2.2859-.0695-.7975-.2213-2.125-.3531-3.0773-.2092-1.5124-.4304-2.3773-.703-2.7444-.1076-.1458-.2544-.2504-.3972-.2836-.0744-.0171-.2132-.0141-.2826.006-.371.1067-.6557.5532-1.083 1.6996-.0574.1549-.1107.2987-.1167.3188-.0066.0212-.016.0382-.0193.0382-.004 0-.0312-.0462-.0613-.1036-.5089-.9614-.9413-1.5608-1.3446-1.8635-.1176-.0885-.3087-.186-.4213-.2162-.1036-.0272-.3128-.0352-.4074-.0142Zm.2887.7694c.3076.1357.8125.877 1.4069 2.0666l.186.3721-.1458.3932c-.2705.7322-.4445 1.1545-.6496 1.5679-.2847.5742-.5572.9503-.7674 1.058-.0724.0371-.181.0432-.2604.0149-.338-.1197-.7613-.7864-1.22-1.9228a25 25 0 0 1-.3408-.898l-.0573-.158.1468-.2997c.5692-1.1585 1.076-1.9379 1.3958-2.149.1157-.0765.2052-.0896.3058-.0453z"/></svg>