<svg xmlns="http://www.w3.org/2000/svg" viewBox="0 0 24 24"><path fill="#44739e" d="M11.585.0312c-.342.0873-.6032.2191-.9405.478-.3538.2727-.6436.5818-1.0378 1.1103-.748 1.0092-1.4748 2.336-2.3321 4.2645-.1045.2362-.1972.43-.2043.43-.007 0-.1021-.2952-.2113-.655-.4418-1.4701-.7695-2.426-1.0949-3.1962C5.2535 1.2512 4.7928.6384 4.2347.4304c-.2303-.0846-.577-.0815-.7956.0067-.5652.2305-.9855.8377-1.318 1.9144-.5225 1.6754-.9595 4.5287-1.4725 9.6-.4773 4.6889-.6744 7.5253-.646 9.257.012.8348.0452 1.1806.1497 1.6191.1876.7928.6222 1.206 1.2254 1.1638.1591-.0134.2161-.0302.3919-.1349.1734-.1013.247-.1687.4346-.3907.5035-.6016.976-1.6192 1.9521-4.2195.3634-.967 1.9664-5.3973 1.9664-5.4339 0-.0268-.703-2.4175-.8217-2.7998l-.0403-.1238-.0332.0758c-.0641.1433-.7196 1.934-1.4487 3.9524-.9998 2.7718-1.577 4.3207-1.8833 5.06l-.0974.239.0119-.2672c.01-.1463.026-.4947.038-.773.0855-1.7654.3301-4.554.703-8.0679.3752-3.5364.7077-5.8415 1.0426-7.2274.0997-.4132.2612-.9585.2944-1.0035.0239-.0269.2328.4244.4038.8714.3562.9333.6364 1.816 1.5151 4.7733 1.083 3.6516 1.6268 5.2652 2.325 6.9013.6104 1.4364 1.1044 2.305 1.7195 3.036.4322.5116.8407.8349 1.2943 1.0288.551.2332 1.0758.2362 1.6268.0168 1.3845-.5566 2.5649-2.5525 3.9708-6.7185.3776-1.1217.691-2.1224 1.349-4.3207.9119-3.0444 1.3132-4.2504 1.7003-5.1275.0857-.194.1806-.3935.2115-.447l.057-.0983.038.1098c.33.9164.6626 2.6368.9713 5.0206.3325 2.5525.8098 7.3539.988 9.8895.057.818.1187 1.9762.1164 2.1927v.1547l-.0737-.1688c-.235-.5341-.779-1.9987-1.8999-5.1022-.8692-2.4035-1.4843-4.076-1.5151-4.1126-.0114-.0135-.0287.0134-.0428.0563-.5748 1.9003-.836 2.7774-.836 2.8111 0 .0396.976 2.755 1.6861 4.689.6057 1.6473 1.1519 3.0416 1.4155 3.6179.3491.7646.6056 1.206.8882 1.5433.1638.194.2424.2644.4132.3654.376.2124.7037.159.969.0067.8407-.4947.9856-1.903.6602-6.3896-.1638-2.2292-.5225-5.9399-.8336-8.602-.494-4.228-1.0164-6.6455-1.66-7.6715-.2543-.4076-.6009-.7-.9381-.7928-.1758-.048-.5035-.0392-.6673.0168-.8764.298-1.5485 1.5461-2.5578 4.7508-.1354.4329-.2612.8349-.2755.8911-.0167.059-.038.107-.045.107-.01 0-.0737-.1291-.145-.2895-1.2016-2.6874-2.2228-4.3629-3.1752-5.209-.2778-.2473-.729-.52-.995-.6044-.2446-.0758-.7386-.0983-.9619-.0396zm.6816 2.1505c.7267.3795 1.9189 2.4513 3.3224 5.7768l.4394 1.0402-.3444 1.0991c-.6388 2.0465-1.0497 3.2272-1.5342 4.3825-.672 1.6052-1.3156 2.6565-1.812 2.9573-.171.104-.4275.1208-.615.0423-.798-.3345-1.7979-2.1983-2.8808-5.3748-.2422-.7084-.5439-1.6445-.8051-2.5104l-.1353-.4413.3467-.8377c1.3442-3.2384 2.5411-5.417 3.2963-6.0074.2731-.2137.4845-.2503.722-.1265Z"/></svg>