<svg xmlns="http://www.w3.org/2000/svg" viewBox="0 0 24 24"><path fill="#44739e" d="M14.688 15.912c-.031.02-.034.049-.023.206.021.329.088.663.202 1.01.077.237.123.293.244.301.117.008.195-.062.259-.225.052-.138.192-.672.231-.89.004-.019.01-.035.014-.035.002 0 .016.046.027.102.045.212.147.608.19.74.05.156.097.237.159.278.035.024.05.027.114.027.066 0 .078-.003.114-.028.056-.038.089-.099.142-.26.121-.371.205-.814.205-1.092 0-.143.001-.142-.119-.142-.117 0-.117-.001-.124.154-.014.289-.085.661-.191.996-.022.07-.043.127-.047.127-.015 0-.085-.243-.177-.607-.108-.435-.131-.491-.208-.531-.034-.017-.136-.017-.17 0-.036.019-.073.063-.096.116-.011.023-.06.208-.11.41-.09.362-.163.612-.178.612-.011 0-.092-.263-.13-.422q-.0945-.3975-.108-.696c-.007-.16-.006-.159-.122-.159-.048 0-.092.004-.098.008m-1.516.011c-.015.016-.016.031-.011.109.014.197.085.533.17.799.054.17.146.404.181.459.033.051.094.094.161.112a.7.7 0 0 1 .05.015c.004.004-.053.108-.098.179-.094.147-.183.183-.393.161-.062-.007-.12-.01-.128-.005-.019.006-.02.147-.001.172.026.037.311.043.436.01.083-.022.166-.069.223-.129.087-.088.233-.352.344-.619.134-.319.256-.762.289-1.047.023-.202.023-.194.002-.215-.017-.017-.032-.02-.107-.02-.104 0-.124.014-.124.079 0 .209-.143.759-.287 1.107l-.048.115-.042.003c-.028.002-.047-.002-.054-.01-.018-.022-.092-.215-.149-.387-.094-.285-.157-.558-.179-.768-.015-.137-.016-.139-.13-.139-.076 0-.09.003-.105.019m-7.148-.004-.021.014v.728c0 .553.003.73.012.739.007.008.045.011.105.011.086 0 .095-.002.108-.021s.016-.105.016-.734c0-.836.013-.752-.119-.752-.056 0-.085.004-.1.015Zm-1.577.003-.022.017.026.114c.119.508.357 1.148.478 1.285.051.058.081.073.147.073s.098-.015.144-.069c.122-.143.382-.837.486-1.303l.024-.099-.024-.018c-.032-.027-.182-.027-.206 0-.009.01-.034.085-.055.165-.049.192-.189.609-.28.837-.04.098-.076.186-.081.195-.007.012-.028-.029-.087-.18-.127-.316-.224-.605-.295-.875-.018-.068-.04-.132-.049-.142-.024-.027-.174-.027-.206 0m16.791-.027c-.214.033-.379.169-.465.385-.097.243-.083.622.031.839.045.086.158.195.247.238.106.052.17.065.322.071.146.006.298-.014.429-.055.09-.027.094-.032.094-.134 0-.103-.007-.108-.099-.078-.155.052-.362.072-.491.05-.142-.025-.241-.088-.296-.191-.029-.054-.065-.18-.065-.23v-.031h.494c.589 0 .543.01.543-.12a1 1 0 0 0-.049-.317c-.04-.119-.076-.181-.161-.265-.077-.077-.166-.129-.263-.152-.064-.015-.203-.021-.271-.011Zm.175.22c.18.03.281.144.324.367l.013.065h-.806l.006-.046c.017-.122.086-.262.154-.314.063-.047.114-.064.239-.08.006 0 .037.003.07.008m-.981-.222c-.058.005-.137.032-.214.074l-.079.042v-.037c0-.056-.021-.068-.118-.068-.067 0-.084.003-.097.017-.015.017-.016.082-.016.736 0 .476.003.724.01.736.01.017.021.019.105.019.078 0 .097-.003.109-.017.014-.017.016-.072.016-.605v-.587l.07-.034a.72.72 0 0 1 .255-.069c.116-.009.107-.001.107-.105 0-.116-.002-.118-.148-.102m-1.566 0c-.139.024-.242.074-.334.168-.051.051-.074.085-.111.163-.026.054-.054.128-.063.164-.039.163-.038.403.003.565.06.231.217.395.438.455.078.021.286.027.393.014.124-.016.295-.062.31-.083.007-.011.012-.048.012-.101 0-.068-.002-.085-.015-.09-.008-.003-.061.007-.118.024-.126.035-.209.048-.327.048-.276 0-.421-.105-.475-.343-.008-.039-.015-.08-.015-.093v-.025h.494c.491 0 .492 0 .519-.021l.026-.021-.005-.126c-.007-.199-.057-.352-.152-.479-.071-.095-.198-.177-.317-.207-.062-.015-.204-.021-.263-.012m.221.234c.083.02.173.095.215.178.019.038.051.146.063.211l.005.031h-.807l.006-.036c.023-.138.066-.235.131-.299.09-.091.236-.124.387-.085m-6.735-.232c-.08.011-.183.042-.253.077-.031.016-.057.028-.06.028s-.005-.014-.005-.032c0-.051-.022-.064-.116-.064-.058 0-.087.004-.103.015l-.021.015v.724c0 .645.002.725.015.738.021.022.189.022.21 0 .013-.013.015-.081.015-.603 0-.46.003-.592.012-.598.021-.017.153-.068.218-.086a.7.7 0 0 1 .144-.016c.148-.001.226.043.271.154l.022.055.003.538c.002.478.005.539.019.554.012.014.032.017.108.017.059 0 .096-.003.104-.011.008-.009.011-.142.011-.543 0-.44-.002-.544-.014-.605-.055-.276-.255-.399-.58-.357m-3.896-.001c-.137.02-.23.062-.295.135-.088.098-.106.252-.043.383.012.024.054.077.093.116.059.058.109.093.251.177.223.133.307.188.339.226.079.095.036.231-.087.273-.064.022-.178.03-.258.017-.037-.006-.128-.031-.204-.056-.168-.055-.169-.055-.172.048-.004.096.009.111.135.155.228.081.497.084.66.007.067-.031.139-.099.169-.158.035-.07.049-.166.034-.249-.027-.157-.103-.233-.431-.428-.127-.076-.247-.155-.266-.174-.085-.088-.071-.197.031-.244.039-.019.062-.021.179-.021.15 0 .209.013.354.079.099.045.106.041.11-.058.002-.042-.002-.083-.007-.094-.015-.028-.174-.102-.255-.119-.084-.019-.26-.026-.336-.015Zm-1.387.005c-.134.027-.225.077-.314.172-.139.148-.205.378-.192.658.015.305.128.517.33.622.122.064.174.074.368.075.175 0 .237-.008.392-.055.09-.027.1-.039.096-.137-.003-.099-.01-.102-.12-.07-.141.042-.194.05-.329.051-.189 0-.281-.027-.369-.111-.072-.068-.117-.171-.134-.304l-.004-.04.504-.003.504-.003.019-.024c.018-.022.019-.033.013-.132-.013-.246-.078-.414-.211-.545-.074-.073-.152-.118-.25-.144-.077-.02-.226-.025-.303-.01m.207.217c.162.03.262.139.306.333.008.038.015.075.015.083 0 .014-.045.015-.398.015H6.8v-.022c0-.012.009-.055.019-.095.046-.178.136-.278.281-.31.076-.016.106-.017.176-.004m-3.748-.22c-.255.039-.449.222-.522.493-.016.06-.022.113-.025.24-.005.213.012.309.085.455.113.229.309.347.575.347.324 0 .555-.183.641-.507.022-.083.025-.111.025-.256 0-.176-.01-.245-.056-.365-.074-.199-.238-.349-.428-.394-.081-.018-.219-.025-.295-.013m.26.248c.12.038.204.128.253.274.034.103.043.287.019.409-.04.197-.13.308-.287.356-.086.025-.214.021-.297-.011-.113-.042-.203-.158-.245-.317-.023-.087-.023-.306.001-.394.047-.174.137-.277.279-.322.063-.02.204-.017.277.005m18.684-.547v.24h.087l.001-.184.003-.185.033.086c.017.048.049.13.07.185l.038.099.035-.003.035-.003.068-.177.067-.178.003.18.002.18H23v-.48h-.066c-.044 0-.067.004-.071.011a8 8 0 0 1-.06.157 4 4 0 0 1-.061.152c-.004.003-.035-.067-.07-.157l-.061-.163h-.139Zm-.49-.202v.039h.154v.403h.086v-.403h.154v-.077h-.394Zm-5.087-.027c-.016.017-.016 2.016 0 2.032.007.008.045.012.103.012.078 0 .097-.003.109-.017.014-.017.016-.073.016-.624v-.605l.085-.024c.171-.052.36-.06.44-.019.054.028.101.087.125.153.017.052.018.093.023.587.004.458.006.532.019.54.007.004.054.009.102.009.068 0 .092-.004.103-.015.014-.014.015-.075.015-.532 0-.579-.002-.616-.062-.737-.09-.184-.266-.26-.537-.234-.096.01-.247.041-.296.063-.016.008-.017-.01-.017-.281 0-.249-.002-.291-.015-.303-.019-.02-.195-.022-.213-.004Zm-6.298.002c-.09.029-.139.091-.254.322-.159.32-.265.651-.431 1.343-.096.401-.099.377.047.377.08 0 .096-.003.11-.019.011-.011.045-.135.093-.333.043-.173.079-.318.082-.322s.195-.008.426-.008h.422l.01.035c.005.021.04.164.077.32.038.156.075.293.083.304.012.02.021.023.109.023.103 0 .125-.01.125-.052 0-.054-.181-.781-.255-1.026-.117-.386-.29-.776-.396-.893-.064-.071-.163-.099-.248-.071m.168.433c.082.164.129.282.204.508.031.094.057.173.057.175s-.16.004-.356.004c-.205 0-.355-.004-.355-.009 0-.017.089-.286.131-.392.062-.163.096-.237.16-.356l.058-.109.018.023c.01.012.047.082.083.156m-9.592-.425c-.056.029-.1.1-.114.183-.014.084-.037.344-.049.564-.005.102-.01.43-.01.727 0 .626-.014.559.123.559.069 0 .089-.002.1-.017.014-.014.017-.096.02-.655.006-.68.021-1.019.046-.992.003.004.09.181.191.392.195.407.232.474.282.504.041.026.116.026.158 0 .068-.041.082-.068.353-.641.068-.143.127-.261.13-.261s.009.037.013.083c.019.249.025.446.031.978.005.516.007.586.021.597.009.008.047.012.102.012.073 0 .092-.003.104-.017.014-.016.017-.063.017-.478 0-.767-.034-1.31-.089-1.436-.057-.136-.213-.16-.317-.05-.013.015-.117.219-.229.454-.112.236-.207.431-.21.435s-.096-.184-.207-.416c-.11-.233-.211-.438-.224-.455-.028-.043-.094-.081-.152-.088-.037-.004-.055-.001-.09.018m4.836-.02c-.012.016-.015.049-.015.142 0 .165-.001.164.129.164.063 0 .101-.004.109-.012.007-.008.012-.055.012-.148 0-.172.003-.167-.125-.167-.087 0-.096.002-.109.021Zm5.324-9.302c-.138.03-.244.075-.38.163-.143.093-.261.199-.42.38-.302.344-.596.798-.943 1.456-.042.081-.08.147-.083.147-.002 0-.041-.101-.085-.223-.179-.503-.311-.829-.443-1.092-.206-.414-.392-.624-.618-.695-.093-.029-.233-.028-.322.002-.228.079-.398.286-.533.654-.211.573-.388 1.547-.595 3.28-.193 1.601-.273 2.57-.261 3.162.004.285.018.403.06.553.076.271.252.412.496.397.064-.003.087-.01.158-.046.07-.034.1-.057.176-.133.203-.206.394-.553.789-1.442.147-.33.795-1.843.795-1.856 0-.009-.284-.826-.332-.956l-.016-.042-.014.026c-.026.049-.291.66-.585 1.35-.405.946-.638 1.476-.762 1.728l-.039.082.004-.091a14 14 0 0 0 .016-.265c.034-.603.133-1.555.284-2.755.152-1.209.286-1.996.422-2.469.04-.141.105-.328.119-.343.009-.01.094.145.163.297.144.319.257.621.613 1.631.437 1.247.657 1.799.94 2.358.246.49.446.787.695 1.037.175.174.34.285.523.351.223.08.435.081.658.006.56-.19 1.037-.872 1.606-2.295.152-.384.279-.725.545-1.476.369-1.04.531-1.452.688-1.752.034-.066.073-.134.085-.153l.023-.033.016.037c.133.313.268.901.392 1.715.135.872.328 2.512.4 3.379.023.279.048.675.047.749v.052l-.03-.057c-.095-.183-.315-.683-.768-1.743-.352-.821-.601-1.392-.613-1.405-.004-.005-.011.004-.017.019-.232.649-.338.949-.338.961 0 .013.395.941.682 1.601.245.563.466 1.039.572 1.236.141.262.245.412.359.527.066.067.098.091.167.125.133.064.268.063.392.002.34-.169.399-.65.267-2.183-.066-.761-.211-2.029-.337-2.938-.2-1.444-.411-2.27-.671-2.621-.103-.139-.243-.239-.38-.27-.071-.017-.203-.014-.269.005-.355.102-.627.529-1.035 1.623-.054.148-.105.286-.111.305-.006.02-.015.036-.018.036-.004 0-.03-.044-.059-.099-.486-.918-.899-1.49-1.284-1.779-.112-.085-.295-.178-.402-.207-.099-.026-.299-.033-.389-.013m.276.735c.293.129.775.837 1.343 1.973l.178.355-.14.376c-.258.699-.424 1.102-.62 1.497-.272.548-.532.907-.733 1.01-.069.036-.173.041-.248.014-.323-.114-.727-.751-1.165-1.836a24 24 0 0 1-.326-.857l-.054-.151.14-.286c.543-1.106 1.027-1.851 1.333-2.052.11-.073.196-.086.292-.043"/></svg>