<svg xmlns="http://www.w3.org/2000/svg" viewBox="0 0 24 24"><path fill="#44739e" d="M11.62 1.029c-.314.08-.553.2-.863.438-.324.25-.589.533-.951 1.018-.685.925-1.352 2.141-2.138 3.909-.095.216-.18.394-.187.394-.006 0-.093-.271-.194-.601-.405-1.347-.705-2.223-1.003-2.929-.468-1.111-.891-1.673-1.402-1.863-.211-.078-.529-.075-.729.006-.519.211-.904.768-1.209 1.755-.479 1.535-.879 4.151-1.349 8.8-.438 4.298-.619 6.898-.593 8.485.011.765.042 1.082.138 1.484.172.727.57 1.106 1.123 1.067.146-.012.198-.028.359-.124.159-.092.227-.154.399-.358.461-.551.894-1.484 1.789-3.868.333-.886 1.803-4.947 1.803-4.981 0-.024-.645-2.216-.754-2.566l-.037-.114-.03.07c-.059.131-.66 1.773-1.328 3.623-.917 2.541-1.446 3.961-1.726 4.638l-.09.219.011-.245c.009-.134.024-.453.035-.708.078-1.618.303-4.175.644-7.396.344-3.241.649-5.354.956-6.625.092-.379.24-.878.27-.92.022-.024.213.389.37.799.327.856.584 1.665 1.389 4.376.993 3.347 1.491 4.826 2.131 6.326.56 1.316 1.013 2.113 1.576 2.783.397.469.771.765 1.187.943.505.214.986.216 1.491.015 1.269-.51 2.351-2.34 3.64-6.158.346-1.029.633-1.946 1.237-3.961.836-2.791 1.203-3.896 1.558-4.7.079-.178.166-.361.194-.41l.052-.09.035.101c.303.84.608 2.417.891 4.602.304 2.34.742 6.741.905 9.065.052.75.109 1.812.107 2.01v.142l-.068-.155c-.215-.489-.714-1.832-1.741-4.677-.797-2.203-1.361-3.736-1.389-3.77-.011-.012-.026.013-.039.052-.527 1.742-.767 2.546-.767 2.577 0 .036.895 2.525 1.546 4.298.555 1.51 1.056 2.788 1.297 3.316.32.701.556 1.106.815 1.415.15.178.222.242.378.335.345.195.645.146.889.006.77-.453.903-1.744.605-5.857-.15-2.043-.479-5.445-.764-7.885-.453-3.876-.932-6.092-1.522-7.032-.233-.374-.551-.642-.86-.727-.161-.044-.461-.036-.612.015-.803.274-1.419 1.418-2.344 4.355-.124.397-.24.766-.253.817-.015.054-.035.098-.041.098-.009 0-.068-.118-.133-.265-1.101-2.464-2.037-4-2.91-4.775-.255-.227-.669-.477-.913-.554-.224-.07-.677-.09-.881-.036ZM12.244 3c.667.348 1.759 2.247 3.046 5.295l.403.954-.316 1.007c-.586 1.876-.962 2.959-1.406 4.018-.616 1.471-1.206 2.435-1.661 2.71-.157.096-.392.111-.564.039-.732-.306-1.648-2.015-2.641-4.927-.222-.649-.498-1.507-.738-2.301l-.124-.404.318-.768c1.232-2.969 2.329-4.966 3.022-5.507.25-.196.444-.229.661-.116"/></svg>