<svg xmlns="http://www.w3.org/2000/svg" viewBox="0 0 24 24"><path fill="#44739e" d="M11.418 14.406c-.072.137.06.09.06.09s.036-.024.036-.019c.03-.09-.096-.071-.096-.071M2.862 11.17c-.084-.019-.235.102-.235.11-.023.151-.312.336-.305.336-.139.084-.007.054 0 .06.095 0 .293-.228.288-.22.083-.089.12-.078.12-.078s.054-.048.06-.042c.042-.03.096-.054.09-.042.24-.106-.018-.124-.018-.124m8.412 3.361c.018-.125-.234-.078-.234-.077-.06 0-.06.035-.06.035s-.271.091-.271.097c-.059.024-.071.047-.071.047a.264.264 0 0 1-.12.061l-.055.048a.33.33 0 0 0-.054.018 2.1 2.1 0 0 1-.318.198.3.3 0 0 1-.042.031c-.162.047-.145.078-.138.078a.47.47 0 0 1-.151.083c-.078.012-.096.031-.096.031s-.156.101-.161.101a.5.5 0 0 0-.143.108c-.09.054-.072.066-.072.066l.013.072.047-.018a.692.692 0 0 0 .595-.156c.095-.048.054-.072.06-.072a.132.132 0 0 0 .072-.072c.084.006.234-.096.24-.091.103-.095.186-.173.186-.168a.54.54 0 0 1 .259-.11.358.358 0 0 0 .198-.12c.072-.078.078-.048.09-.042.048-.06.084-.03.084-.03.189-.082.142-.118.142-.118m-7.145-3.956a1.07 1.07 0 0 0-.282.276c0 .007-.156.18.03.11-.006-.007.018-.019.096-.024.006-.007.037.012.11-.09 0-.007.09-.151.09-.151s.191-.241-.044-.121m-.787-.12-.017-.054a.22.22 0 0 0-.054-.03.071.071 0 0 0-.11 0 .385.385 0 0 1-.21.083l-.066.031a.4.4 0 0 0-.036.071.31.31 0 0 1-.09.103s-.03.078-.036.072a.53.53 0 0 0-.072.101l-.025.049s-.012.048-.024.042a.22.22 0 0 0-.071.119s.012.031-.127.151a1.4 1.4 0 0 0-.102.11l-.066.073-.071.083-.062.089a1.9 1.9 0 0 0-.163.22c-.005 0-.036.036-.036.036l-.042.066-.024.048-.042.042s.024.018.12-.03a.2.2 0 0 0 .036-.012.272.272 0 0 0 .073-.15c0 .006.042-.048.042-.048l.054-.024s.288-.289.348-.372a.079.079 0 0 0 .047-.073.068.068 0 0 1 .049-.095c.006-.007.258-.121.258-.121a.66.66 0 0 0 .51-.391.3.3 0 0 0 .009-.189m6.184 3.629.066-.067c.06-.036.042-.054.042-.054-.03-.024-.048-.084-.054-.084a.165.165 0 0 0 0-.072s-.042.006-.036 0c-.013-.06-.091.006-.091.006-.191.066-.066.096-.071.102.054.048.024.06.018.06a.066.066 0 0 0 .042.078c.066.06.084.031.084.031m3.543.568s-.016-.064-.052-.071c-.017 0-.035 0-.054.026a.46.46 0 0 1-.154.11c-.033.008-.052.022-.056.041s.01.044.043.07h.019a.205.205 0 0 0 .1.017h.011c.014 0 .039 0 .082-.05a.146.146 0 0 0 .062-.142Zm-3.387-.953c.072.03.061.066.061.066l.035-.042c.031-.054.048-.03.054-.03.11 0 .126-.043.126-.043.097-.005.073-.095.073-.083 0-.085-.085-.061-.097-.066a.4.4 0 0 0-.134-.019c-.139-.024-.151.054-.151.054-.042.031-.017.09-.017.09-.022.092.058.061.05.073m-2.973.288a.22.22 0 0 0-.023-.054.33.33 0 0 0-.066-.048c-.074-.062-.092-.03-.092-.025a.47.47 0 0 0-.125-.029c-.048-.018-.036.048-.024.048.042-.006.024.047.012.035-.005.049-.029.073-.036.066-.09.007 0 .121 0 .121.03.03.03.048.03.048l.036.018.048.035a.173.173 0 0 0 .179 0l.037.007.024-.066.03-.036v-.06c.001-.078-.03-.053-.03-.06m.102-.613a.093.093 0 0 0 .036-.072.33.33 0 0 1 .049-.11c.054-.059-.21-.205-.21-.205-.102-.125-.11.055-.11.055l-.031.078-.024.037-.02.144c-.039.11 0 .103.006.097.012.059 0 .094 0 .094a.101.101 0 0 0 .15.078c0-.042.06-.047.06-.047 0-.067.024-.073.036-.078.029-.065.058-.071.058-.071m16.162-4.273a.277.277 0 0 0-.146-.204.377.377 0 0 0-.33.044l-.078.024a4.95 4.95 0 0 1-1.244.295h-.057a7 7 0 0 1-1.593-.294l-.04-.011a2.001 2.001 0 0 0-1.773.093 1.511 1.511 0 0 0-.536 1.252 1.15 1.15 0 0 1-.65-.136c-.029-.022-.091-.06-.274-.171-.228-.136-.539-.323-.734-.461l-.032-.023a3.49 3.49 0 0 0-1.034-.508 4.63 4.63 0 0 0-2.098-.132c-.031 0-.081.01-.192.027-.199.032-.533.086-.832.117a.9.9 0 0 0-.131.008 8.8 8.8 0 0 1-1.254.04.4.4 0 0 0-.066 0 1.1 1.1 0 0 1-.626-.129l-.027-.029c-.026-.028-.038-.045-.037-.054s.01-.019.047-.039l.011-.006.029-.011a.198.198 0 0 0 .063-.13c0-.058-.03-.157-.252-.168a1.1 1.1 0 0 0-.517.079.05.05 0 0 1-.026-.024.15.15 0 0 1 .022-.11 1.3 1.3 0 0 0 .176-.19c.062-.086.11-.21.068-.283-.068-.119-.275-.167-.63-.145a5.83 5.83 0 0 0-1.459.364.275.275 0 0 1-.131.022.169.169 0 0 0-.023-.166c-.087-.11-.309-.11-.697-.01l-.065.016c-.066.026-.189.077-.44.181h-.012v-.004a.2.2 0 0 0 0-.029.27.27 0 0 0-.11-.177.24.24 0 0 0-.178-.033 3.35 3.35 0 0 0-.743.336c-.11.066-.201.125-.256.162l-.05.034v-.007l-.056.049a.019.019 0 0 1-.016.006c-.051-.011-.129-.131-.158-.193a.323.323 0 0 0-.353-.24c-.477.211-.429.864-.414 1a.18.18 0 0 1 0 .045 3.5 3.5 0 0 0-.464.291 1.014 1.014 0 0 0-.457.59v.032a.96.96 0 0 1-.129.424c-.087.122-.852 1.306-.858 1.319a.445.445 0 0 0-.031.55.7.7 0 0 1 .093.282v.018a.419.419 0 0 0 .238.265.43.43 0 0 0 .175.046.8.8 0 0 1 .22.05h.017a1.48 1.48 0 0 0 .388-.097.367.367 0 0 0 .227-.252v-.009a2.35 2.35 0 0 1 .66-.832l.067-.045c.11-.068.33-.204.519-.314a3.24 3.24 0 0 0 .907-.725l.075.035a3.93 3.93 0 0 1 .757.412 1.765 1.765 0 0 1 .775.918l.013.062a2.17 2.17 0 0 1-.06.482c-.059.312-.152.777-.177.835a.935.935 0 0 0-.063.455v.016a2.19 2.19 0 0 0 .198.586c.01.026.06.123.255.116h.029a.48.48 0 0 0 .136-.024c.045-.011.538-.098.673-.11h.011a2.64 2.64 0 0 1 .998.046l.043.027c.062.035.193.11.22.22a.371.371 0 0 0 .319.213c.02.008.096.035.219.073a.046.046 0 0 1 .028.017s0 .016-.013.037l-.016.015a.83.83 0 0 1-.602.239.176.176 0 0 0-.159.095c-.12.11-.315.32-.294.486a.187.187 0 0 0 .103.145 1.54 1.54 0 0 0 .294.015c.304 0 .75-.016.857-.032a.064.064 0 0 0 .049-.029h.01v-.025a.09.09 0 0 1 .083-.04h.25a.322.322 0 0 0 .27-.066l.013-.01a.498.498 0 0 1 .48-.123 1.01 1.01 0 0 1 .421.206.605.605 0 0 0 .245.072c.011 0 .16.015.256.026a.103.103 0 0 0 .098-.038l.024-.027a6.7 6.7 0 0 0 .44-.55.148.148 0 0 0 .075-.097c0-.034 0-.096-.11-.129a2.77 2.77 0 0 0-.643-.146 1.7 1.7 0 0 1 .574-.267h.026a.173.173 0 0 1 .097.019l.027.007.059.015a4.55 4.55 0 0 0 .833.156.47.47 0 0 0 .292.028.267.267 0 0 0 .196-.197 2.56 2.56 0 0 1 .342-.619.4.4 0 0 0 .028-.033 1.99 1.99 0 0 1 .793-.66 3.45 3.45 0 0 0 .633-.28 4.75 4.75 0 0 0 1.283-1.54.605.605 0 0 1 .596-.355l.969-.012a.647.647 0 0 0 .715-.309c.098-.213.323-.565.55-.531a4.54 4.54 0 0 1 .841.201 5.1 5.1 0 0 0 .838.088 2.213 2.213 0 0 0 1.394-.338 1.313 1.313 0 0 0 .716-1.446m-.722 1.381a2.236 2.236 0 0 1-1.353.329 5 5 0 0 1-.824-.086 4.54 4.54 0 0 0-.857-.204c-.141-.021-.286.066-.431.26a1.9 1.9 0 0 0-.183.31.579.579 0 0 1-.645.272l-.974.013a.674.674 0 0 0-.66.394 4.68 4.68 0 0 1-1.261 1.522 3.4 3.4 0 0 1-.616.272 2.05 2.05 0 0 0-.823.684l-.024.028a2.6 2.6 0 0 0-.354.643.203.203 0 0 1-.148.149.41.41 0 0 1-.248-.028h-.013a4.37 4.37 0 0 1-.826-.154l-.059-.015-.025-.006a.24.24 0 0 0-.127-.023.033.033 0 0 1-.016 0 1.8 1.8 0 0 0-.614.282l-.03.017a.057.057 0 0 0-.027.054.053.053 0 0 0 .037.043h.009a2.66 2.66 0 0 1 .677.144q.068.022.063.056a.09.09 0 0 1-.048.052h-.008l-.006.009a5.3 5.3 0 0 1-.44.55l-.026.03c0 .006-.021.009-.034.007l-.259-.025a.55.55 0 0 1-.219-.062 1.056 1.056 0 0 0-.447-.22.559.559 0 0 0-.543.132l-.01.008a.258.258 0 0 1-.22.054h-.286a.148.148 0 0 0-.149.093 9.7 9.7 0 0 1-1.114.024.123.123 0 0 1-.067-.092c-.012-.099.091-.261.277-.431.053-.075.088-.07.1-.069h.014a.89.89 0 0 0 .65-.261l.012-.012a.11.11 0 0 0 .022-.101.11.11 0 0 0-.071-.058c-.133-.039-.208-.068-.22-.072a.31.31 0 0 1-.25-.154.488.488 0 0 0-.254-.262l-.043-.029a2.1 2.1 0 0 0-.757-.075h.01l-.084.008c-.088.005-.16.013-.203.018h-.013c-.134.013-.641.1-.688.11a.42.42 0 0 1-.118.021h-.028c-.162.006-.188-.07-.189-.073A2.09 2.09 0 0 1 6 13.99v-.015a.86.86 0 0 1 .06-.416c.035-.089.179-.841.181-.848a2.22 2.22 0 0 0 .06-.499l-.02-.081c-.155-.743-1.429-1.334-1.575-1.38a.7.7 0 0 0-.11-.047h-.018l-.022.024a3.08 3.08 0 0 1-.894.718c-.187.11-.411.246-.521.315l-.068.046a2.45 2.45 0 0 0-.683.866v.016a.299.299 0 0 1-.189.205 1.65 1.65 0 0 1-.344.093h-.008a.85.85 0 0 0-.239-.053.58.58 0 0 1-.143-.033.363.363 0 0 1-.206-.22l-.006-.014a.81.81 0 0 0-.103-.31.387.387 0 0 1 .032-.469c.006-.011.78-1.21.857-1.32a.95.95 0 0 0 .136-.47v-.014c.06-.394.811-.788.897-.832h.011v-.011a.17.17 0 0 0 .005-.09c-.014-.121-.061-.734.371-.93a.255.255 0 0 1 .276.196s.099.209.204.232a.07.07 0 0 0 .02 0v.03l.057-.054a1.1 1.1 0 0 1 .097-.07c.054-.036.142-.094.253-.159a3.27 3.27 0 0 1 .727-.33.176.176 0 0 1 .125.024.203.203 0 0 1 .077.136v.014-.008c0 .035 0 .053.02.064s.047.012.087 0h-.002c.336-.141.449-.188.485-.196l.064-.02c.312-.076.502-.075.563 0a.11.11 0 0 1 .01.11v.016a.08.08 0 0 0 .035.062c.052.03.158 0 .19-.016a5.88 5.88 0 0 1 1.438-.367c.402-.025.53.047.567.109.021.037-.009.132-.065.209a1.2 1.2 0 0 1-.167.181h-.007v.006a.211.211 0 0 0-.035.183.124.124 0 0 0 .078.066h.023a1.034 1.034 0 0 1 .489-.08h.008c.09 0 .194.024.192.099a.131.131 0 0 1-.06.096l-.046.019v.007a.102.102 0 0 0-.043.062c-.007.045.031.087.054.11l.013.017a1.155 1.155 0 0 0 .672.145.24.24 0 0 1 .054 0 9 9 0 0 0 1.267-.04 1 1 0 0 1 .121-.009h.006c.303-.03.638-.084.839-.117.099-.016.159-.026.186-.027a4.117 4.117 0 0 1 3.084.627l.033.023c.196.141.509.33.737.465.184.11.247.149.269.167.429.17.66.174.734.127l.014-.01v-.018a1.461 1.461 0 0 1 .507-1.22 1.947 1.947 0 0 1 1.715-.084l.041.012a7.08 7.08 0 0 0 1.61.297.3.3 0 0 1 .049 0 5 5 0 0 0 1.271-.298c.037-.012.063-.021.078-.024a.318.318 0 0 1 .276-.043.21.21 0 0 1 .11.155 1.245 1.245 0 0 1-.61 1.385m-20.5 1.564a.07.07 0 0 0 0 .103c0 .102.084-.054.084-.054.066-.108-.084-.049-.084-.049m21.015-3.049a.292.292 0 0 0-.246.045l-.089.029a4.84 4.84 0 0 1-1.287.299h-.049a7.13 7.13 0 0 1-1.616-.298.26.26 0 0 1-.042-.012 1.907 1.907 0 0 0-1.679.078 1.435 1.435 0 0 0-.491 1.209.048.048 0 0 1-.042.046c-.056.033-.212.07-.763-.132a2.9 2.9 0 0 1-.277-.174c-.22-.156-.543-.33-.741-.467l-.019-.014a4.057 4.057 0 0 0-3.066-.629l-.189.028c-.202.032-.542.087-.845.118 0 0-.078 0-.126.007a9 9 0 0 1-1.273.041h-.053a1.163 1.163 0 0 1-.7-.158l-.02-.025a.179.179 0 0 1-.064-.144.167.167 0 0 1 .102-.11l.013-.006c.013-.016.034-.045.027-.067s-.023-.046-.157-.051l-.035-.015a1.17 1.17 0 0 0-.44.081l-.045.007a.192.192 0 0 1-.11-.09c-.047-.062.052-.231.052-.231.046-.037.24-.243.22-.314 0 0 0-.036-.013-.048s-.135-.095-.517-.071a6.1 6.1 0 0 0-1.423.363.36.36 0 0 1-.135.033.122.122 0 0 1-.142-.118v-.018a.078.078 0 0 0 0-.078c-.026-.031-.137-.09-.591.028-.035.011-.31.125-.479.195-.077.033-.117.012-.136-.012a.11.11 0 0 1-.022-.078.183.183 0 0 0-.064-.13.134.134 0 0 0-.095-.018 3.9 3.9 0 0 0-1.058.549.132.132 0 0 1-.158.014.6.6 0 0 1-.182-.233c-.059-.183-.18-.183-.231-.183-.391.177-.36.725-.341.887a.176.176 0 0 1-.021.133l-.011.009c-.009 0-.824.416-.88.805a.97.97 0 0 1-.138.501c-.028.039-.752 1.139-.844 1.287a.2.2 0 0 1-.014.03.367.367 0 0 0-.039.42.75.75 0 0 1 .116.329l.006.016a.33.33 0 0 0 .19.201h.011a1.1 1.1 0 0 0 .118.024.9.9 0 0 1 .25.057 1.43 1.43 0 0 0 .317-.081.269.269 0 0 0 .169-.177 1.92 1.92 0 0 1 .2-.364 2.01 2.01 0 0 1 .502-.541 6.8 6.8 0 0 1 .591-.363 3.13 3.13 0 0 0 .88-.707l.01-.012c.05-.063.247.046.37.11.295.143 1.265.66 1.407 1.32a1.45 1.45 0 0 1-.044.59c0 .032-.145.762-.183.854a.85.85 0 0 0-.056.39v.013a1.91 1.91 0 0 0 .191.567s.028.054.149.051a.14.14 0 0 1 .031 0 .37.37 0 0 0 .11-.018 2.3 2.3 0 0 1 .303-.057c.071-.012.31-.052.398-.059a2.67 2.67 0 0 1 1.061.057l.023.008v.008l.021.012a.517.517 0 0 1 .272.288.285.285 0 0 0 .22.132h.008c.072.027.145.051.22.072a.148.148 0 0 1 .098.082.153.153 0 0 1-.03.141l-.017.025a.924.924 0 0 1-.666.269.044.044 0 0 1-.021 0c-.019 0-.043.014-.071.055l-.006.008c-.13.12-.277.296-.264.398a.078.078 0 0 0 .045.061c.077.005.828.009 1.067-.022a.206.206 0 0 1 .181-.099h.269c.088.036.197-.054.199-.056a.596.596 0 0 1 .58-.137 1.045 1.045 0 0 1 .455.22.41.41 0 0 0 .19.055l.254.023.02-.006a6.4 6.4 0 0 0 .457-.568l.01-.019h.013c.01 0 .026-.029-.01-.039a2.58 2.58 0 0 0-.677-.146s-.103-.023-.11-.063.036-.077.08-.11l.033-.019a2.05 2.05 0 0 1 .634-.286h.023a.264.264 0 0 1 .143.024c.015 0 .038.009.081.02a4.37 4.37 0 0 0 .824.154l.022.007a.407.407 0 0 0 .22.024.211.211 0 0 0 .127-.127 2.64 2.64 0 0 1 .36-.652l.027-.033a2.09 2.09 0 0 1 .847-.696 3.74 3.74 0 0 0 .602-.267 4.68 4.68 0 0 0 1.247-1.504.718.718 0 0 1 .693-.416l.982-.011a.534.534 0 0 0 .618-.279c.016-.043.245-.622.638-.563a5.8 5.8 0 0 1 .858.205 3.03 3.03 0 0 0 2.147-.236s.005 0 0 0a1.218 1.218 0 0 0 .637-1.329.178.178 0 0 0-.086-.126m-17.577-.33a3.8 3.8 0 0 1 1.082-.473c.11-.019.12-.007.12 0 .085.059-.078.149-.09.144a2.4 2.4 0 0 0-.373.239c-.132.097.031.078.031.078s.337.019.33.024a1.43 1.43 0 0 0 .414-.15c1.424-.672 1.803-.474 1.796-.469.085.025-.036.079-.036.079a1.1 1.1 0 0 1-.204.174.48.48 0 0 1-.211.091c-.078.017-.071.024-.071.024s-.03.066-.03.054c0 .053-.073.047-.073.041a1.23 1.23 0 0 0-.456.078c-.11.084 0 .054 0 .061a.356.356 0 0 1 .21.005.055.055 0 0 1 .042.091c-.054.078.03.059.024.066.078.017.102.053.096.048a.082.082 0 0 1-.072.132 3.5 3.5 0 0 1-.366-.061 10.1 10.1 0 0 0-1.441-.156 3.74 3.74 0 0 0-.673.037c-.102.012-.096 0-.102 0-.11-.103.06-.162.053-.157m2.969-.095s-.012.155-.11.161c0 0-.168-.024-.101-.156a.374.374 0 0 1 .137-.095s.12-.103.096.059c.007-.001-.023.032-.023.032Zm-3.97.227a3.26 3.26 0 0 1 .805-.549c.187-.078.126.047.126.047s-.283.33-.276.336c-.066.078-.138.061-.126.054a.53.53 0 0 0-.174.055c-.121.042-.253.101-.259.101-.157.016-.092-.045-.097-.045Zm-.144.342c.175-.083.066.024.066.031-.048.035-.036.072-.036.072-.181.029-.031-.104-.031-.104Zm-.75-.515c0-.007.047-.085.071-.073.007 0-.029-.132.078-.162 0 0 .078-.096.103.036a2.4 2.4 0 0 0 .119.265c.007.012-.029.024.037.071a.11.11 0 0 1 .042.163c.006 0-.084.174-.06.27l.22-.048s.12-.036.036.083a.245.245 0 0 1-.198.091.15.15 0 0 0-.09.036s-.09.03-.09-.066a.74.74 0 0 1 .03-.342c-.012 0 .042-.019 0-.073.006 0-.096-.173-.127-.144.012.012-.066.061-.041.11.006 0 .084.049-.025.054a.259.259 0 0 1-.106-.272Zm-.95 1.53s0-.11.071-.132c0 0 .035.032.019-.072a.378.378 0 0 1 .12-.198 4.6 4.6 0 0 1 .576-.361s.096-.048.132-.03l.037-.045-.049-.085.012-.187s.048-.096.072.012a.36.36 0 0 1 0 .252s-.036 0-.041.067c0-.012.024.036-.042.078a1.87 1.87 0 0 0-.534.317.44.44 0 0 1-.121.066.253.253 0 0 0-.11.163.2.2 0 0 1-.037.018l.018.036a.102.102 0 0 1 .012.126.9.9 0 0 1-.162.283c-.012.006-.084.011-.042-.11-.004.012.069-.198.069-.198m-.961 1.699s.03-.042.024-.048a8.6 8.6 0 0 0 .486-.77l.071-.084a.33.33 0 0 1 .043-.06c.03-.06.054.019.054.024a.163.163 0 0 1-.024.12c-.018.031-.144.199-.144.199a.55.55 0 0 1-.06.071 1.54 1.54 0 0 1-.22.354l-.074.1c-.078.066-.078.11-.078.11l-.066.103-.042-.042Zm6.773 2.498c-.03.031-.156-.012-.156-.012s-.101.007-.101-.006a1.92 1.92 0 0 0-.625.006c-.151.024-.433.043-.433.043a1.7 1.7 0 0 0-.179.03c-.019.041-.22.029-.22.029-.132 0-.162-.137-.167-.144-.007-.137-.061-.156-.061-.161a.69.69 0 0 1-.078-.283c0-.11.036-.11.036-.11a.47.47 0 0 0 .048-.126 1.37 1.37 0 0 0 .078-.379.8.8 0 0 0 .018-.095c.061-.271.103-.564.103-.571.047-.11.149.12.149.12a.92.92 0 0 0 .259.277c.072.054.078.059.078.059a.55.55 0 0 1 .066.061c.084.078.017.149.006.149a.034.034 0 0 0-.018.049.4.4 0 0 1-.03.048c-.007.047-.036.047-.042.054a.036.036 0 0 0-.025.044c-.03.046-.042.082-.047.082a.4.4 0 0 1-.03.043.9.9 0 0 1-.024.119.314.314 0 0 0 .156.307.131.131 0 0 0 .144.012h.54s.041.005.041.012c.054.035.138-.055.138-.048.06-.054.11-.043.102-.037a.11.11 0 0 1 .132.073c.061.035.11.198.121.21.023.012.078.078.066.071.04.062-.033.062-.045.074m-.497-.612c-.047.067-.33.068-.33.068l-.307-.023a.134.134 0 0 1-.087-.056.13.13 0 0 1 0-.095v-.019.015a.763.763 0 0 1 .228-.34c.068-.056.117-.018.121-.013.06.06.152.156.232.239s.125.131.146.15c.021.051.006.073 0 .08Zm3.584 1.617c0-.007.054 0 .054 0l.061.012s.048.054-.012.085l-.066-.012s-.127-.027-.037-.081Zm-.227.318c-.036.072.054.078.054.078h.288l.005-.042.049-.03a.144.144 0 0 1 .078-.102c.054-.054-.03-.11-.066-.102l-.042-.054s.066-.036.066-.03a.29.29 0 0 1 .156.066.066.066 0 0 1 .024.103c-.012.053-.06.053-.066.059-.036.048-.031.066-.031.066l-.041.012-.012.048a.6.6 0 0 1-.157.139s-.036.035-.036.03c-.066-.042-.149.024-.149.017a.404.404 0 0 1-.307-.066l-.072-.078-.053-.017-.043-.037a.9.9 0 0 0-.078-.036s-.036-.006-.036 0a.5.5 0 0 0-.204-.042c-.085-.012-.019-.078-.019-.078.073-.024.043-.042.036-.042a.35.35 0 0 1 .127-.11h.048a.23.23 0 0 1 .084-.066s.066-.036.06-.024c.054-.017.06-.048.066-.042.03-.053.072-.03.072-.03l.097.013a.043.043 0 0 1 .036.059c0 .037-.067.018-.067.018l-.06.012-.041.024-.061.073c-.054.06.006.054.006.054.11.041.162.09.156.095.031.043.121-.047.121-.042.071-.048.017.103.012.108Zm2.749-1.813a1.43 1.43 0 0 0-.571.697 1.4 1.4 0 0 1-.186.354.385.385 0 0 1-.156 0 1.6 1.6 0 0 1-.366-.049s-.295-.066-.451-.083c0-.007-.288 0-.12-.072a5.5 5.5 0 0 1 .576-.042.318.318 0 0 0 .265-.132 3.02 3.02 0 0 1 .931-.739s.291-.104.079.07Zm8.81-3.921a1.987 1.987 0 0 1-1.561.732 8.93 8.93 0 0 1-1.886-.349c-.432-.083-.649.469-.649.457a.804.804 0 0 1-.769.432 3.87 3.87 0 0 0-1.129.06c-.337.073-.841 1.057-.853 1.057a2.206 2.206 0 0 1-.919.88c-.282.144-1.063.45-1.063.45a.31.31 0 0 1-.11.049 4.34 4.34 0 0 0-.997.793l-.03.035-.132.012-.066.03-.055-.006a1.3 1.3 0 0 0-.149.006c-.078.012-.306.042-.306.042l-.493.103-.06.029a1.51 1.51 0 0 1-.481.259.63.63 0 0 0-.21.149s-.11.085-.11.09c-.084.079-.079.03-.079.03l-.12.078-.012.043c-.09.11-.149.11-.156.101a1.027 1.027 0 0 0-.45.259c-.041.072-.096.067-.096.067s-.33 0-.33.011a1.3 1.3 0 0 0-.33.102c-.078.036-.11.036-.11.03-.054 0-.12 0-.132-.011-.078-.043-.324.017-.324.017s-.204 0-.22-.006c-.085 0 .012-.138.012-.138l.035-.012.031-.036a.7.7 0 0 1 .09-.102l.042-.042a.29.29 0 0 1 .156-.036c.12 0 .078.048.078.053-.012.043-.132.043-.132.037a.103.103 0 0 0-.102.096c-.036.06.024.048.024.048h.22c.12-.006.144.018.144.018.137.037.168-.029.174-.029.054-.078.084-.078.084-.073.11-.054-.012-.048-.012-.054-.043 0-.048-.012-.054-.018-.036-.042-.042-.012-.048-.012-.025-.008-.038-.018-.043-.028a.2.2 0 0 1-.017.022s-.068.042-.085 0c-.012.006-.054-.036.054-.066 0 0 .039 0 .05.018a.13.13 0 0 1 .059-.048 1.32 1.32 0 0 0 .265-.228 1.484 1.484 0 0 1 .605-.354c.073-.066.181-.144.181-.144l.12-.043.072-.054.09-.035a.23.23 0 0 1 .11-.073c.084-.054.12-.066.12-.06a1.3 1.3 0 0 0 .168-.102c.186-.067.427-.18.427-.18a.66.66 0 0 1 .089-.043.63.63 0 0 0 .211-.179.74.74 0 0 1 .288-.192c.072-.007.066-.042.072-.042a.146.146 0 0 1 .09-.127l.012-.041.066-.061.031-.048.149-.22.019-.054a.68.68 0 0 1 .023-.168.53.53 0 0 0 .078-.235l.019-.065c.017-.084-.012-.103-.012-.103l.005-.054s-.005-.053-.005-.066a.26.26 0 0 0 .054-.156.61.61 0 0 0 .012-.348l-.012-.078c.024-.096 0-.12 0-.127.005-.047-.252-.066-.252-.066l-.049-.005s-.06.029-.066.029c-.144.049-.084.229-.084.241 0 .072-.048.06-.054.06-.054.006-.042.03-.054.024a.165.165 0 0 1-.071.029 1.06 1.06 0 0 0-.151.037l-.061.024-.047.005a.25.25 0 0 1-.06.019.407.407 0 0 0-.22.049s-.061.017-.066.017a.303.303 0 0 0-.168.018 8.1 8.1 0 0 1-.793.22 1.9 1.9 0 0 1-.385.059c-.162.024-.11-.005-.12-.012a.4.4 0 0 0-.312 0c-.078.042-.163.11-.163.11-.047.017-.054-.018-.059-.018-.054-.048 0-.096 0-.11.029-.071-.024-.071-.024-.071a.36.36 0 0 0-.091-.019c-.024.012-.053.007-.066.012-.09 0-.029.054-.036.049.019.11-.024.083-.017.071-.037 0-.025.078-.025.078 0 .078-.024.156-.036.156-.042.043-.012.085-.012.078-.042.091.085.11.085.121a.11.11 0 0 1 .066.11c.053.192.156.45.161.462a.91.91 0 0 1 .121.432s.023.085.035.09a1.05 1.05 0 0 1 .29.265c.125.103-.049.048-.055.048a.095.095 0 0 1-.078-.042s-.096-.073-.11-.078c-.025-.037-.054-.049-.06-.042a.46.46 0 0 0-.175-.09l-.059-.061a.176.176 0 0 1-.055-.12 1.7 1.7 0 0 0-.096-.439s.018-.037-.054-.127a1 1 0 0 1-.041-.11.66.66 0 0 0-.066-.132.3.3 0 0 0-.037-.059.22.22 0 0 1-.09-.133.7.7 0 0 0-.029-.078c-.007.006-.055-.03-.013-.096.013 0 .03.018.03-.132 0-.005-.036-.09.15-.22 0 0 .15-.071.11-.185 0 .006-.09-.228.138-.24a.35.35 0 0 1 .162.042.7.7 0 0 0 .241.083 1.35 1.35 0 0 0 .45.043c-.006-.007 0-.031.12-.024a2.75 2.75 0 0 0 .727-.073.345.345 0 0 1 .15-.035.616.616 0 0 1 .306-.048.253.253 0 0 0 .15-.061c-.006 0 0-.048.12-.078a.209.209 0 0 0 .15-.12c.006-.006.24-.294.474-.282a.754.754 0 0 1 .373.084.19.19 0 0 0 .205-.048c0 .012.371-.336.312-.036 0-.012-.073.084-.144.409 0-.012-.007 0-.007 0a2.72 2.72 0 0 0-.11.879 1.8 1.8 0 0 0 .03.247.256.256 0 0 1-.048.252c-.11.096-.212.196-.313.3 0 0-.288.336-.383.463-.007.005-.121.11.09.192a1 1 0 0 0 .293.018.62.62 0 0 1 .175-.013s.22-.005.252-.109c0 .005.048-.049.11-.097 0-.006.288-.325.318-.391a.195.195 0 0 0 .06-.102s-.048-.125.18-.264a3.4 3.4 0 0 0 .367-.192c0-.006.149-.11.149-.11a1 1 0 0 1 .318-.22c0-.012.09-.06.132-.126 0 .012.102-.192.192-.091.012 0 .024.055-.024.151.007 0-.078.11.048.036a.8.8 0 0 0 .096-.041l.066-.049a.38.38 0 0 1 .139-.156c0-.007.071-.073.137-.163a.97.97 0 0 0 .168-.269s.168-.829.709-.829c0 0 .325.012.408-.121 0 0 .012-.11.408-.132 0-.012.673-.012 1.249.012a.457.457 0 0 0 .481-.276c.012-.012.192-.732.636-.66a.89.89 0 0 1 .337.073 5.11 5.11 0 0 0 1.729.264 1.69 1.69 0 0 0 1.262-.54c.457-.685-.11-.385-.096-.397a4.33 4.33 0 0 1-1.716.048 16 16 0 0 1-1.778-.372 3 3 0 0 0-.177-.018.77.77 0 0 0-.688.261 2.42 2.42 0 0 0-.336 1.054c-.012.012-.048.373-.649.252a4.72 4.72 0 0 1-1.885-.937 4.14 4.14 0 0 0-1.298-.564 1.13 1.13 0 0 0-.564 0 2.364 2.364 0 0 0-1.117.534c.005 0-.096.013-.11.066 0 0-.067-.015-.09.018 0 .007-.012.043-.168 0a3.26 3.26 0 0 0-.66-.054 8.7 8.7 0 0 1-1.124.048c.007 0-.594-.036-.75-.053a.567.567 0 0 0-.385.036c.006.005-.126.102-.21.059a.165.165 0 0 1-.078-.11c0-.011-.066-.125-.439-.101-.013 0-.132-.012-.132-.012s-.055.012-.156-.085a1.43 1.43 0 0 0-.781-.293c0 .005-.721-.132-1.117-.156l-.281-.012a.78.78 0 0 1-.269-.054.66.66 0 0 0-.337.006.65.65 0 0 1-.18.036l-.072.012a.264.264 0 0 1-.174.036.115.115 0 0 0-.11.078c0 .011-.031.035.012.125a1.58 1.58 0 0 1 .12.571.44.44 0 0 1 .054.042s.11.066.126.133c0 .005.018.042.126.078a.227.227 0 0 1 .109.089c0 .007.03.072.192.151 0 0 .848.504.901.564 0 0 .181.121.367.253.012-.007.053.065.066.191a.363.363 0 0 0 .024.211c0-.007.095.372.132.203 0-.012-.061-.264.095-.342l.043-.029a.14.14 0 0 1 .054-.049c.012-.012.078-.036.03-.138a.166.166 0 0 0-.127-.096.388.388 0 0 1-.22-.138.8.8 0 0 0-.102-.072s-.288-.241-.293-.241a14.3 14.3 0 0 1-1.32-.852c-.336-.253-.012-.097-.012-.097s.348.158.372.181a5 5 0 0 1 .841.3 5.6 5.6 0 0 1 .961.637c.18.219.203.144.203.156a.11.11 0 0 1 .145.121.302.302 0 0 0 .11.239l-.204.252s-.072 0-.084-.012c-.072-.168-.192.145-.204.145a.387.387 0 0 0-.061.33c.037.205-.156-.047-.168-.047.241.6.324.371.312.371.133-.11.469.313.481.325a7.6 7.6 0 0 1 .733.871c.089.156.252.475.252.48.03.127.06.097.06.097s.096.083.096.089c.186.066.15.078.168.085a.317.317 0 0 0 .21.102c.151-.036.163 0 .163.017a.202.202 0 0 0 .125.11c.073.06.013.054.013.054l.144.162c.048.072-.013.09-.025.085a.147.147 0 0 0-.095.071c-.049.054-.073.019-.073.019l-.11-.066s-.036-.043-.043-.049a.254.254 0 0 0-.239-.102c-.157 0-.174-.054-.193-.066-.066-.071-.059-.071-.071-.071a1.32 1.32 0 0 1-.229-.253.39.39 0 0 1-.074-.247.65.65 0 0 1-.15-.18s-.096-.048-.103-.054c-.083-.029-.095-.144-.095-.144l-.036-.036a2.8 2.8 0 0 0-.631-.684c-.084-.085-.138-.085-.138-.085l-.11-.024s-.102-.066-.11-.066c-.11-.066-.156-.12-.149-.12a1.66 1.66 0 0 1-.385-.534s-.018-.054-.018-.061a.17.17 0 0 1-.048-.137.682.682 0 0 0 0-.433 3.48 3.48 0 0 0-.607-.456c-.319-.235-1.1-.66-1.1-.66l-.035-.024a.7.7 0 0 0 0-.157c-.024-.219-.066-.024-.066-.024a1.1 1.1 0 0 1-.348.589.61.61 0 0 1-.271.21 2.42 2.42 0 0 1-.491.277 6 6 0 0 0-.541.359c-.162.175-.367.391-.367.385a.66.66 0 0 0-.162.15.12.12 0 0 1-.03.06.77.77 0 0 1-.06.192c.006.204-.084.186-.084.186s-.151.037-.156.037c-.073.017-.061-.013-.073-.013-.035-.102-.12.018-.125.025a.95.95 0 0 1-.139-.019.39.39 0 0 0-.144.019.103.103 0 0 1-.09-.103.22.22 0 0 0-.012-.126c-.048-.084-.012-.11-.012-.11a.075.075 0 0 0 .012-.085c-.071-.149-.096-.095-.096-.083 0 .071-.066.005-.072.005-.132-.078.054-.149.054-.149a.44.44 0 0 1 .265-.073c-.019-.059.083-.102.083-.11-.036-.06.198-.33.198-.33.043-.047.061-.089.055-.095a.31.31 0 0 1 .096-.138 1.7 1.7 0 0 0 .11-.18c.078-.097.371-.607.371-.602.049-.053-.017-.119-.023-.125-.079-.15.036-.15.03-.15.096 0 .072-.12.072-.12.109-.24.289-.21.282-.205.151.054.11 0 .11 0 .163.007.187.007.187.019.09.11.137.042.137.035.055-.035.11.067.11.067s0 .035.066.066a.1.1 0 0 1 .084.059 1.1 1.1 0 0 1 .12.061s.102-.007.102.036a.2.2 0 0 1 .139.03c.005 0-.007.03.071.024a.55.55 0 0 1 .187-.048s.21-.144.234-.235a1.19 1.19 0 0 0-.006-.45 1.44 1.44 0 0 0-.181-.426.5.5 0 0 0 .011-.094l.036-.025a.203.203 0 0 0 .102-.059s0-.019.055-.024c0-.007.549-.007.549-.007l.097-.012a.73.73 0 0 0 .228-.017c.006 0 .029-.037.18-.03 0 0 .42.012.55.024a9 9 0 0 1 1.795.312.6.6 0 0 1 .11.03h.132s-.036-.024.061-.024c-.007 0 .137.012.054-.09.005.006-.144-.084-.11-.15-.007 0 0-.06 0-.06l.041-.037a1.1 1.1 0 0 0 .157-.078s.024-.059.102-.041a1.8 1.8 0 0 1 .54-.132c.006 0 .126-.042.072.078a.187.187 0 0 0-.036.09s-.024.036-.096.059a1.35 1.35 0 0 0-.306.085c.005 0-.037-.024-.054.024-.006 0-.127.047-.11.11a.4.4 0 0 0 .017.048l.006.054s.019.11.11.103a7.8 7.8 0 0 0 1.02.15 11.8 11.8 0 0 0 1.574-.019 9.8 9.8 0 0 0 1.333-.197 5.23 5.23 0 0 1 1.19-.123 3.98 3.98 0 0 1 1.513.561 5.28 5.28 0 0 0 1.585.77c0-.012.408.096.408.096s.384.096.349-.228c0 .01-.018-.748.318-1.032a1.176 1.176 0 0 1 .788-.273s.311.012.311.02c.649.168 1.261.276 1.298.288a3.37 3.37 0 0 0 2.041-.073c.408-.203.421-.012.421-.012a1.036 1.036 0 0 1-.114.664ZM9.453 14.204c-.071.012-.083-.013-.083-.013-.024-.036-.049-.066-.049-.066-.095-.084-.047-.15-.053-.15a.253.253 0 0 0-.025-.162c-.047-.072.012-.091.007-.09a.322.322 0 0 0 .294-.246.201.201 0 0 1 .24-.11h.295a.68.68 0 0 1 .203.005c.11.024-.024.174-.024.187a.42.42 0 0 1-.239.22c-.097.019-.11.024-.11.024a.62.62 0 0 0-.186.21c-.073.139-.11.11-.097.11-.071 0-.09.024-.09.031-.088.026-.083.05-.083.05m.133.083h.017c.043-.024.119-.06.119-.06l.023-.011a.6.6 0 0 0 .178-.206l.013-.021c.046-.091.211-.133.211-.133a.687.687 0 0 0 .288-.314c.081-.098.11-.175.083-.227a.122.122 0 0 0-.11-.056l-.761-.007c-.097 0-.193.074-.285.231l-.005.01c-.047.084-.098.063-.099.063-.08-.035-.11-.288-.098-.457 0 0-.024-.079.027-.11a.22.22 0 0 1 .117-.026h.008l.244-.015c.139-.01.209-.014.243-.021a5.32 5.32 0 0 0 1.296-.305c.22-.074.401-.145.518-.191s.182-.074.209-.089a.092.092 0 0 1 .075 0 .28.28 0 0 1 .102.167 1.457 1.457 0 0 1-.55 1.301 1.1 1.1 0 0 1-.603.11.726.726 0 0 0-.424.103c-.131.087-.33.199-.458.274-.103.058-.139.08-.153.091-.066.031-.139-.024-.178-.054a.3.3 0 0 0-.03-.019c-.023-.009-.023-.025-.017-.025Zm.88.139a1.3 1.3 0 0 0-.373.192s-.083.066-.089.066c-.102.042-.133-.078-.133-.078-.042-.078 0-.078 0-.078s.085-.054.09-.054a.65.65 0 0 0 .199-.133 1.1 1.1 0 0 1 .12-.096l.11-.041.132-.03a.241.241 0 0 1 .21-.09c.102.005.096-.019.096-.012a1 1 0 0 1 .181-.002c.09.025.139.019.132.025.193.024.007.102.007.102l-.361.126s-.132.06-.138.06c-.072.043-.06.018-.06.018a.9.9 0 0 0-.13.025Z"/></svg>