<svg xmlns="http://www.w3.org/2000/svg" fill="#44739e" viewBox="0 0 24 24"><path d="M17.734 2H6.267a1.093 1.093 0 0 0-1.093 1.093v17.814A1.093 1.093 0 0 0 6.267 22h11.467a1.092 1.092 0 0 0 1.092-1.093V3.093A1.092 1.092 0 0 0 17.734 2m-3.754 8.637a.145.145 0 0 1 .116-.058.141.141 0 0 1 .115.058.22.22 0 0 1 .048.144.23.23 0 0 1-.048.146.14.14 0 0 1-.115.06.145.145 0 0 1-.116-.06.224.224 0 0 1-.049-.146.217.217 0 0 1 .049-.144m-.143 2.425a.224.224 0 0 1-.049.146.145.145 0 0 1-.117.06.143.143 0 0 1-.115-.06.25.25 0 0 1 0-.292.143.143 0 0 1 .115-.06.145.145 0 0 1 .117.06.224.224 0 0 1 .049.146m-.052-1.23a.143.143 0 0 1-.117.061.14.14 0 0 1-.115-.061.224.224 0 0 1-.047-.145.22.22 0 0 1 .047-.144.142.142 0 0 1 .115-.058.146.146 0 0 1 .117.058.22.22 0 0 1 .048.144.224.224 0 0 1-.048.145m-.285-1.516a.23.23 0 0 1 .049-.146.148.148 0 0 1 .117-.06.14.14 0 0 1 .115.06.228.228 0 0 1 .047.146.216.216 0 0 1-.047.143.139.139 0 0 1-.115.059.147.147 0 0 1-.117-.059.218.218 0 0 1-.049-.143m-3.711.315a.142.142 0 0 1 .232 0 .25.25 0 0 1 0 .292.142.142 0 0 1-.232 0 .242.242 0 0 1 0-.292m.235 2.122a.142.142 0 0 1-.115.058.146.146 0 0 1-.117-.058.215.215 0 0 1-.049-.144.224.224 0 0 1 .049-.146.145.145 0 0 1 .117-.06.141.141 0 0 1 .115.06.234.234 0 0 1 .047.146.224.224 0 0 1-.045.144zm.19-4.491 1.677-1.379a.164.164 0 0 1 .207 0l1.67 1.355a.164.164 0 1 1-.206.254L12.1 7.3a.162.162 0 0 0-.207 0l-1.465 1.218A.164.164 0 0 1 10.2 8.5a.163.163 0 0 1 .016-.238zm2.923 3.283a.148.148 0 0 1 .117-.06.141.141 0 0 1 .115.06.234.234 0 0 1 .047.146.226.226 0 0 1-.047.144.142.142 0 0 1-.115.058.149.149 0 0 1-.117-.058.222.222 0 0 1-.049-.144.23.23 0 0 1 .051-.146zm-.052-1.229a.224.224 0 0 1 .049-.146.146.146 0 0 1 .117-.06.145.145 0 0 1 .116.06.242.242 0 0 1 0 .292.145.145 0 0 1-.116.06.146.146 0 0 1-.117-.06.224.224 0 0 1-.047-.146zm.054 2.6a.142.142 0 0 1 .115-.058.149.149 0 0 1 .117.058.22.22 0 0 1 .048.144.23.23 0 0 1-.048.146.148.148 0 0 1-.117.06.141.141 0 0 1-.115-.06.228.228 0 0 1-.047-.146.22.22 0 0 1 .049-.142zm-.2-1.071a.147.147 0 0 1-.117.058.145.145 0 0 1-.116-.058.215.215 0 0 1-.049-.144.224.224 0 0 1 .049-.146.145.145 0 0 1 .116-.06.146.146 0 0 1 .117.06.23.23 0 0 1 .049.146.22.22 0 0 1-.05.146zm.049 1.227a.23.23 0 0 1-.048.146.14.14 0 0 1-.115.06.145.145 0 0 1-.116-.06.224.224 0 0 1-.049-.146.214.214 0 0 1 .049-.143.146.146 0 0 1 .116-.059.142.142 0 0 1 .115.059.22.22 0 0 1 .047.145zm-.331-2.746a.228.228 0 0 1 .047-.146.14.14 0 0 1 .115-.06.148.148 0 0 1 .117.06.242.242 0 0 1 0 .292.148.148 0 0 1-.117.06.14.14 0 0 1-.115-.06.228.228 0 0 1-.048-.144zm-.144 1.974a.146.146 0 0 1-.117.058.142.142 0 0 1-.115-.058.224.224 0 0 1-.047-.144.234.234 0 0 1 .047-.146.141.141 0 0 1 .115-.06.145.145 0 0 1 .117.06.23.23 0 0 1 .049.146.22.22 0 0 1-.049.144m.049.313a.22.22 0 0 1-.048.144.141.141 0 0 1-.115.058.149.149 0 0 1-.117-.058.22.22 0 0 1-.048-.144.23.23 0 0 1 .048-.146.148.148 0 0 1 .117-.06.14.14 0 0 1 .115.06.23.23 0 0 1 .048.142zm-.051-1.686a.14.14 0 0 1-.115.06.148.148 0 0 1-.117-.06.242.242 0 0 1 0-.292.148.148 0 0 1 .117-.06.14.14 0 0 1 .115.06.25.25 0 0 1 0 .292m-.229 2a.148.148 0 0 1 .117-.06.145.145 0 0 1 .117.06.242.242 0 0 1 0 .292.145.145 0 0 1-.117.06.148.148 0 0 1-.117-.06.246.246 0 0 1 0-.292m-.558-.618a.145.145 0 0 1-.116.06.14.14 0 0 1-.115-.06.23.23 0 0 1-.048-.146.224.224 0 0 1 .048-.145.139.139 0 0 1 .115-.061.143.143 0 0 1 .116.061.22.22 0 0 1 .049.145.224.224 0 0 1-.049.137zm.049.311a.234.234 0 0 1-.047.146.14.14 0 0 1-.115.06.148.148 0 0 1-.117-.06.242.242 0 0 1 0-.292.148.148 0 0 1 .117-.06.14.14 0 0 1 .115.06.234.234 0 0 1 .047.139zm-.049-1.229a.145.145 0 0 1-.116.06.146.146 0 0 1-.117-.06.224.224 0 0 1-.049-.146.217.217 0 0 1 .049-.144.147.147 0 0 1 .117-.058.145.145 0 0 1 .116.058.217.217 0 0 1 .049.144.224.224 0 0 1-.049.139zm-.282-.6a.217.217 0 0 1 .049-.144.147.147 0 0 1 .117-.058.142.142 0 0 1 .115.058.226.226 0 0 1 .047.144.234.234 0 0 1-.047.146.141.141 0 0 1-.115.06.146.146 0 0 1-.117-.06.224.224 0 0 1-.049-.156zm-.378.762a.143.143 0 0 1 .115-.058.146.146 0 0 1 .117.058.215.215 0 0 1 .049.144.22.22 0 0 1-.049.145.143.143 0 0 1-.117.061.141.141 0 0 1-.115-.061.23.23 0 0 1-.047-.145.224.224 0 0 1 .047-.154zm-.05-1.227a.224.224 0 0 1 .049-.146.142.142 0 0 1 .232 0 .234.234 0 0 1 .047.146.222.222 0 0 1-.047.143.144.144 0 0 1-.232 0 .212.212 0 0 1-.049-.153zm.053 2.6a.143.143 0 0 1 .115-.06.148.148 0 0 1 .118.06.246.246 0 0 1 0 .292.148.148 0 0 1-.118.06.143.143 0 0 1-.115-.06.255.255 0 0 1 0-.292m-.416-1.371a.145.145 0 0 1 .116-.06.14.14 0 0 1 .115.06.23.23 0 0 1 .048.146.22.22 0 0 1-.048.144.141.141 0 0 1-.115.058.145.145 0 0 1-.116-.058.217.217 0 0 1-.049-.144.224.224 0 0 1 .049-.156zm-.051-1.239a.23.23 0 0 1 .048-.146.144.144 0 0 1 .234 0 .242.242 0 0 1 0 .292.144.144 0 0 1-.234 0 .23.23 0 0 1-.048-.146m.053 2.6a.143.143 0 0 1 .115-.058.146.146 0 0 1 .117.058.217.217 0 0 1 .049.144.224.224 0 0 1-.049.146.145.145 0 0 1-.117.06.143.143 0 0 1-.115-.06.234.234 0 0 1-.047-.146.226.226 0 0 1 .046-.142zm-.157-2.59a.224.224 0 0 1-.049.146.145.145 0 0 1-.117.06.141.141 0 0 1-.115-.06.25.25 0 0 1 0-.292.141.141 0 0 1 .115-.06.145.145 0 0 1 .117.06.224.224 0 0 1 .053.148zm-.279 1.229a.143.143 0 0 1 .233 0 .224.224 0 0 1 .049.146.215.215 0 0 1-.049.144.146.146 0 0 1-.233 0 .215.215 0 0 1-.049-.144.224.224 0 0 1 .048-.144zm0 1.374a.148.148 0 0 1 .117-.059.143.143 0 0 1 .115.059.224.224 0 0 1 .047.143.234.234 0 0 1-.047.146.141.141 0 0 1-.115.06.146.146 0 0 1-.117-.06.23.23 0 0 1-.049-.146.22.22 0 0 1 .051-.141zm1.419 6.593a.227.227 0 1 1 .227-.227.227.227 0 0 1-.225.229zm.876 0a.227.227 0 1 1 .228-.227.227.227 0 0 1-.226.229zm1.314-4.386-1.676 1.379a.164.164 0 0 1-.207 0l-1.671-1.354a.164.164 0 0 1 .207-.254l1.466 1.193a.163.163 0 0 0 .207 0l1.465-1.213a.162.162 0 0 1 .227.018.164.164 0 0 1-.016.233zm.152-4.044a.146.146 0 0 1 .233 0 .217.217 0 0 1 .049.144.224.224 0 0 1-.049.146.143.143 0 0 1-.233 0 .224.224 0 0 1-.049-.146.217.217 0 0 1 .051-.142zm.236 2.122a.143.143 0 0 1-.233 0 .224.224 0 0 1-.049-.146.217.217 0 0 1 .049-.144.146.146 0 0 1 .233 0 .217.217 0 0 1 .049.144.224.224 0 0 1-.047.148z"/></svg>