<svg xmlns="http://www.w3.org/2000/svg" fill="#44739e" viewBox="0 0 24 24"><path d="M10.554 14.775a.268.268 0 0 0 .382.214l1.938-.932.023.634a.147.147 0 0 0 .1.134.159.159 0 0 0 .145-.018.2.2 0 0 0 .087-.164v-.1a.093.093 0 0 1 .059-.087.066.066 0 0 0 .042-.061v-.183l-.005-.01h-.01a.047.047 0 0 1-.056-.045l-.014-1.263a.052.052 0 0 1 .029-.048.083.083 0 0 0 .047-.078l-.006-.124a.058.058 0 0 0-.052-.056l-.039-.006a.19.19 0 0 0-.1.016l-.137.062a.176.176 0 0 0-.1.163l.011.7a.237.237 0 0 1-.138.218l-1.838.843-.066-.56a.074.074 0 0 0-.054-.062l-.041-.01a.32.32 0 0 0-.081-.011.33.33 0 0 0-.147.035.073.073 0 0 0-.04.072zm-.504-.824a.147.147 0 0 0 .1.134.161.161 0 0 0 .146-.018.2.2 0 0 0 .086-.164v-.1a.092.092 0 0 1 .059-.086.067.067 0 0 0 .042-.062v-.193h-.011a.048.048 0 0 1-.038-.009.046.046 0 0 1-.017-.035l-.015-1.263a.052.052 0 0 1 .03-.049.079.079 0 0 0 .046-.077l-.005-.125a.06.06 0 0 0-.052-.056l-.039-.005a.186.186 0 0 0-.1.015l-.137.062a.177.177 0 0 0-.1.163l.011.7A.237.237 0 0 1 9.9 13l-1.838.843L8 13.281a.069.069 0 0 0-.054-.061l-.046-.011a.33.33 0 0 0-.228.025.07.07 0 0 0-.039.071l.071.73a.267.267 0 0 0 .382.215l1.938-.933zm.786-6.499a.074.074 0 0 0-.054-.062l-.041-.011a.33.33 0 0 0-.082-.01.324.324 0 0 0-.146.035.073.073 0 0 0-.04.072l.071.729a.267.267 0 0 0 .382.215l1.938-.933.022.635a.147.147 0 0 0 .1.133.157.157 0 0 0 .145-.018.2.2 0 0 0 .086-.164v-.1a.093.093 0 0 1 .06-.087.066.066 0 0 0 .042-.062v-.183l-.005-.01h-.01a.046.046 0 0 1-.056-.044l-.018-1.265a.052.052 0 0 1 .03-.048.084.084 0 0 0 .047-.078l-.007-.124a.06.06 0 0 0-.052-.057h-.039a.2.2 0 0 0-.1.015l-.136.063a.176.176 0 0 0-.1.163l.01.7a.235.235 0 0 1-.137.219l-1.846.836Zm-3.004.22a.264.264 0 0 0 .247.008l1.939-.933.022.635a.147.147 0 0 0 .1.133.159.159 0 0 0 .145-.017.2.2 0 0 0 .087-.164v-.1a.092.092 0 0 1 .059-.087.065.065 0 0 0 .042-.062v-.194h-.01a.044.044 0 0 1-.038-.009.043.043 0 0 1-.017-.035l-.015-1.263a.052.052 0 0 1 .029-.048.081.081 0 0 0 .047-.078l-.006-.124a.06.06 0 0 0-.052-.057l-.038-.005a.194.194 0 0 0-.1.016l-.137.062a.176.176 0 0 0-.1.163l.011.7a.238.238 0 0 1-.138.218l-1.838.842-.066-.559a.074.074 0 0 0-.054-.062l-.041-.011a.37.37 0 0 0-.081-.01.33.33 0 0 0-.147.035.072.072 0 0 0-.039.072l.071.729a.261.261 0 0 0 .118.205m2.051-1.265A.212.212 0 0 0 10 6.263l-.055-.015a.069.069 0 0 1-.052-.066V5.92a.069.069 0 0 1 .088-.066h.02v-.348a.2.2 0 0 1 .117-.185l.082-.037V5.18a.069.069 0 0 1 .088-.066l.209.06a.068.068 0 0 1 .05.066v.26a.069.069 0 0 1-.086.067l-.031-.008a.028.028 0 0 0-.016.026l.014 1.225.1.029a.071.071 0 0 1 .05.066v.257a.068.068 0 0 1-.086.066L10.4 7.2a.08.08 0 0 0-.007.031v.1a.224.224 0 0 1-.1.184.185.185 0 0 1-.1.031.069.069 0 0 1 .042.063v.256a.069.069 0 0 1-.086.067l-.21-.055a.069.069 0 0 1-.052-.066v-.259a.069.069 0 0 1 .088-.066l.106.03a.171.171 0 0 1-.072-.133l-.02-.6-.6.29.04 6.112.46-.211a.211.211 0 0 0 .123-.175l-.071-.019a.069.069 0 0 1-.052-.066v-.262a.069.069 0 0 1 .088-.066l.03.008v-.315a.2.2 0 0 1 .117-.186l.09-.04v-.09a.068.068 0 0 1 .086-.063l.21.06a.068.068 0 0 1 .05.066v.256a.069.069 0 0 1-.086.067l-.051-.013a.03.03 0 0 0-.005.016l.014 1.188.078.022a.07.07 0 0 1 .05.067v.256a.068.068 0 0 1-.086.066l-.035-.009a.07.07 0 0 0-.037.061v.1a.221.221 0 0 1-.1.184.175.175 0 0 1-.068.028.05.05 0 0 1 0 .022v.256a.069.069 0 0 1-.086.067l-.21-.055a.07.07 0 0 1-.052-.067v-.261a.07.07 0 0 1 .088-.067l.066.019a.17.17 0 0 1-.021-.077l-.021-.6-.569.273.03 4.474a.118.118 0 0 0 .087.114l2.15.58 2.582.727a.156.156 0 0 0 .167-.056l.173-.231a.286.286 0 0 0 .057-.172L14.7 3.715a.063.063 0 0 0-.039-.059l-.073-.04a.11.11 0 0 0-.069-.011l-.067.012a.45.45 0 0 1-.19 0L9.573 2.483a.045.045 0 0 1-.036-.041.047.047 0 0 1 .014-.042l-.078-.02a.08.08 0 0 0-.022 0 .087.087 0 0 0-.088.089l.027 4.164Zm.01 2.828a.069.069 0 0 1 .088-.066l.21.06a.071.071 0 0 1 .05.066v.257a.068.068 0 0 1-.086.066l-.21-.054a.071.071 0 0 1-.052-.064Zm.348 1.925a.068.068 0 0 1-.086.066l-.21-.054a.07.07 0 0 1-.052-.067v-.262a.07.07 0 0 1 .088-.066l.21.06a.071.071 0 0 1 .05.067zm.3-.739a.068.068 0 0 1-.086.066l-.21-.054a.069.069 0 0 1-.051-.067V10.1a.07.07 0 0 1 .088-.066l.209.06a.07.07 0 0 1 .05.067zm0-1.661a.069.069 0 0 1-.086.067l-.21-.055a.068.068 0 0 1-.051-.066v-.262a.069.069 0 0 1 .088-.066l.209.06a.068.068 0 0 1 .05.066zm-.03 5.192a.347.347 0 0 1 .245-.027l.041.011a.1.1 0 0 1 .072.082l.029.244a.071.071 0 0 1 .039.062v.218l.921-.422-.2-.053a.068.068 0 0 1-.051-.067v-.262a.069.069 0 0 1 .088-.066l.209.06a.068.068 0 0 1 .05.066v.256a.08.08 0 0 1 0 .023l.37-.169a.067.067 0 0 1 .083-.043h.007l.33-.151a.211.211 0 0 0 .12-.156l-.1-.026a.068.068 0 0 1-.052-.066v-.262a.069.069 0 0 1 .088-.066l.063.018-.005-.338a.2.2 0 0 1 .117-.185l.056-.026v-.1a.07.07 0 0 1 .088-.066l.21.06a.071.071 0 0 1 .05.066v.257a.069.069 0 0 1-.087.066l-.022-.006.014 1.207.045.013a.069.069 0 0 1 .05.066v.256a.07.07 0 0 1-.087.067l-.019-.005a.067.067 0 0 0-.019.047v.1a.222.222 0 0 1-.1.184.187.187 0 0 1-.1.032.07.07 0 0 1 .006.03v.256a.068.068 0 0 1-.086.066l-.209-.054a.069.069 0 0 1-.052-.067v-.261a.07.07 0 0 1 .088-.067l.117.034a.176.176 0 0 1-.04-.1l-.021-.6-.188.091v.062a.07.07 0 0 1-.087.067l-.118-.031-.823.4v.068a.068.068 0 0 1-.086.066l-.125-.032-.477.229a.29.29 0 0 1-.127.03.294.294 0 0 1-.149-.038.291.291 0 0 1-.147-.226l-.071-.729a.1.1 0 0 1 .053-.093zm.632-1.637-.209-.055a.068.068 0 0 1-.052-.066v-.262a.069.069 0 0 1 .088-.066l.21.06a.068.068 0 0 1 .049.066v.256a.069.069 0 0 1-.085.067zm.086 1.28v.256a.069.069 0 0 1-.086.067l-.209-.055a.069.069 0 0 1-.052-.067v-.261a.07.07 0 0 1 .088-.067l.21.06a.07.07 0 0 1 .05.072zm-.313-3a.07.07 0 0 1-.052-.067v-.261a.07.07 0 0 1 .088-.067l.21.06a.071.071 0 0 1 .05.067v.256a.068.068 0 0 1-.086.066zm.3-1.673a.069.069 0 0 1-.086.067l-.21-.055a.068.068 0 0 1-.052-.066v-.257a.069.069 0 0 1 .088-.066l.21.06a.069.069 0 0 1 .05.066zm-.325.49a.069.069 0 0 1 .05.066v.256a.069.069 0 0 1-.086.067l-.21-.055a.068.068 0 0 1-.052-.066v-.257a.069.069 0 0 1 .088-.066zm-.21 1.548.21.06a.071.071 0 0 1 .05.066v.256a.068.068 0 0 1-.086.067l-.21-.054a.071.071 0 0 1-.052-.067v-.262a.069.069 0 0 1 .085-.061zm0 1.61.21.061a.069.069 0 0 1 .05.066v.256a.069.069 0 0 1-.086.067l-.21-.055a.07.07 0 0 1-.052-.067v-.261a.07.07 0 0 1 .085-.062zm1.017-.5.209.06a.07.07 0 0 1 .05.067v.256a.068.068 0 0 1-.086.066l-.21-.054a.07.07 0 0 1-.051-.067v-.262a.07.07 0 0 1 .09-.066Zm-.057-1.27a.068.068 0 0 1-.052-.066v-.262a.069.069 0 0 1 .088-.066l.209.06a.068.068 0 0 1 .05.066v.256a.069.069 0 0 1-.086.067Zm.295-1.672a.069.069 0 0 1-.086.067l-.209-.055a.069.069 0 0 1-.052-.067v-.257a.07.07 0 0 1 .088-.067l.209.06a.07.07 0 0 1 .05.067zm-.3.518v.256a.069.069 0 0 1-.086.067l-.21-.055a.068.068 0 0 1-.052-.066V9.59a.069.069 0 0 1 .088-.066l.21.06a.069.069 0 0 1 .049.066zm-.26 1.482.21.06a.071.071 0 0 1 .05.066v.257a.068.068 0 0 1-.086.066l-.21-.054a.071.071 0 0 1-.052-.067V11.2a.069.069 0 0 1 .087-.068zm0 1.61.21.061a.069.069 0 0 1 .05.066v.256a.069.069 0 0 1-.086.067l-.21-.055a.07.07 0 0 1-.052-.067v-.261a.07.07 0 0 1 .087-.063zm1.028-.479.21.06a.07.07 0 0 1 .05.066v.256a.07.07 0 0 1-.087.067l-.209-.055a.067.067 0 0 1-.052-.066v-.262a.069.069 0 0 1 .084-.062ZM12.349 11a.07.07 0 0 1-.052-.067v-.261a.07.07 0 0 1 .088-.067l.21.061a.069.069 0 0 1 .05.066v.256a.069.069 0 0 1-.086.067zm.3-1.672a.068.068 0 0 1-.086.066l-.21-.054a.071.071 0 0 1-.053-.07v-.262a.069.069 0 0 1 .088-.066L12.6 9a.071.071 0 0 1 .05.066zm-.3-.9a.068.068 0 0 1-.086.066l-.209-.054A.069.069 0 0 1 12 8.373v-.262a.069.069 0 0 1 .088-.066l.209.06a.069.069 0 0 1 .05.066zm-.259 1.3.209.061a.068.068 0 0 1 .05.066v.256a.069.069 0 0 1-.086.067l-.209-.055a.069.069 0 0 1-.054-.067V9.8a.07.07 0 0 1 .084-.072zm0 1.609.209.06a.068.068 0 0 1 .05.066v.256a.069.069 0 0 1-.086.067l-.209-.055a.069.069 0 0 1-.054-.067V11.4a.069.069 0 0 1 .084-.063zm0 1.61.209.06a.069.069 0 0 1 .05.066v.256a.069.069 0 0 1-.086.067l-.209-.055a.067.067 0 0 1-.054-.066v-.262a.069.069 0 0 1 .084-.066zm1.255 3.653a.069.069 0 0 1 .088-.066l.21.06a.068.068 0 0 1 .05.066v.256a.069.069 0 0 1-.086.067l-.21-.055a.068.068 0 0 1-.052-.066zm-.07-.5-.21-.054a.069.069 0 0 1-.051-.067v-.262a.069.069 0 0 1 .087-.066l.21.06a.07.07 0 0 1 .05.067v.256a.068.068 0 0 1-.086.066m.332-.727-.21-.054a.071.071 0 0 1-.052-.067v-.262a.069.069 0 0 1 .088-.066l.21.06a.069.069 0 0 1 .05.066v.257a.068.068 0 0 1-.086.066m0-1.623-.207-.05a.07.07 0 0 1-.052-.067v-.261a.07.07 0 0 1 .088-.067l.21.06a.07.07 0 0 1 .05.067v.256a.068.068 0 0 1-.089.062m0-1.61-.21-.054a.071.071 0 0 1-.052-.067v-.262a.069.069 0 0 1 .088-.066l.21.06a.069.069 0 0 1 .05.066v.256a.069.069 0 0 1-.086.067m-.337-.9-.21-.055a.068.068 0 0 1-.051-.066v-.262a.068.068 0 0 1 .087-.066l.21.06a.068.068 0 0 1 .05.066v.256a.069.069 0 0 1-.086.064zm.337-.7-.21-.055a.069.069 0 0 1-.052-.066v-.262a.069.069 0 0 1 .088-.066l.21.06a.068.068 0 0 1 .05.066v.256a.069.069 0 0 1-.086.059zm0-1.683-.21-.055a.07.07 0 0 1-.052-.067v-.269a.07.07 0 0 1 .088-.067l.21.061a.068.068 0 0 1 .05.066v.256a.069.069 0 0 1-.086.067zm-.251.4v.253a.068.068 0 0 1-.086.066l-.21-.054a.069.069 0 0 1-.051-.067v-.261a.069.069 0 0 1 .087-.067l.21.06a.07.07 0 0 1 .05.067zm-.3-.634a.069.069 0 0 1-.086.067l-.209-.055a.068.068 0 0 1-.052-.066V8.3a.069.069 0 0 1 .088-.066l.21.06a.068.068 0 0 1 .049.066zm-.259 1.3.21.06a.07.07 0 0 1 .049.066v.251a.068.068 0 0 1-.086.066l-.209-.054a.069.069 0 0 1-.052-.067v-.258a.069.069 0 0 1 .091-.066Zm0 1.608.21.06a.07.07 0 0 1 .049.067v.256a.068.068 0 0 1-.086.066l-.209-.054a.069.069 0 0 1-.052-.067V11.6a.07.07 0 0 1 .091-.071Zm-.493 4a.069.069 0 0 1 .088-.066l.21.06a.071.071 0 0 1 .05.066v.257a.068.068 0 0 1-.086.066l-.21-.054a.071.071 0 0 1-.052-.067Zm-.045-.513-.209-.055A.068.068 0 0 1 12 14.9v-.262a.069.069 0 0 1 .088-.066l.209.06a.068.068 0 0 1 .05.066v.256a.069.069 0 0 1-.09.065zm-.316.381v.256a.068.068 0 0 1-.086.066l-.21-.054a.069.069 0 0 1-.051-.067v-.26a.07.07 0 0 1 .088-.067l.209.06a.07.07 0 0 1 .048.067Zm-.723-.205v.256a.07.07 0 0 1-.087.067l-.209-.055a.067.067 0 0 1-.052-.066v-.262a.069.069 0 0 1 .088-.066l.21.06a.069.069 0 0 1 .048.072Zm-1.02-.226a.069.069 0 0 1 .088-.066l.209.06a.068.068 0 0 1 .05.066v.256a.069.069 0 0 1-.086.067l-.21-.055a.068.068 0 0 1-.051-.066Zm-.307.721a.07.07 0 0 1 .088-.066l.21.06a.071.071 0 0 1 .05.067v.256a.068.068 0 0 1-.086.066l-.21-.054a.071.071 0 0 1-.052-.067Zm.358 1.885a.068.068 0 0 1-.086.066l-.21-.054a.07.07 0 0 1-.051-.067v-.262a.07.07 0 0 1 .088-.066l.209.06a.07.07 0 0 1 .05.067zm.322-.688a.068.068 0 0 1-.086.066l-.21-.054a.07.07 0 0 1-.052-.067v-.261a.07.07 0 0 1 .088-.067l.21.06a.071.071 0 0 1 .05.067zm.017-1.009a.069.069 0 0 1 .088-.066l.21.06a.071.071 0 0 1 .05.066v.256a.069.069 0 0 1-.086.067l-.21-.054a.071.071 0 0 1-.052-.067Zm.358 1.884a.069.069 0 0 1-.086.067l-.21-.054a.07.07 0 0 1-.051-.067v-.262a.069.069 0 0 1 .088-.066l.209.06a.069.069 0 0 1 .05.066zm.295-.708a.069.069 0 0 1-.086.067l-.21-.055A.069.069 0 0 1 10.9 17v-.261a.07.07 0 0 1 .088-.067l.209.061a.068.068 0 0 1 .05.066zm.044-1.009a.069.069 0 0 1 .088-.066l.21.06a.071.071 0 0 1 .05.066v.256a.069.069 0 0 1-.086.067l-.21-.054a.071.071 0 0 1-.052-.067zm.358 1.884a.068.068 0 0 1-.086.067l-.21-.054a.07.07 0 0 1-.051-.067v-.262a.069.069 0 0 1 .088-.066l.209.06a.069.069 0 0 1 .05.066zm.322-.671a.069.069 0 0 1-.086.067l-.21-.055a.068.068 0 0 1-.052-.066v-.262a.069.069 0 0 1 .088-.066l.21.06a.069.069 0 0 1 .05.066zM12 16.249a.07.07 0 0 1 .088-.067l.209.061a.068.068 0 0 1 .05.066v.256a.069.069 0 0 1-.086.067l-.209-.055A.069.069 0 0 1 12 16.51Zm.358 1.884a.069.069 0 0 1-.086.067l-.21-.055a.07.07 0 0 1-.052-.067v-.261a.07.07 0 0 1 .088-.067l.21.061a.069.069 0 0 1 .05.066zm.321-.683a.069.069 0 0 1-.086.067l-.21-.055a.069.069 0 0 1-.051-.067v-.261a.069.069 0 0 1 .088-.066l.209.06a.068.068 0 0 1 .05.066zm.032-1.009a.07.07 0 0 1 .088-.066l.21.06a.07.07 0 0 1 .049.066v.257a.068.068 0 0 1-.086.066l-.209-.054a.069.069 0 0 1-.052-.067zm.358 1.885a.068.068 0 0 1-.086.066l-.21-.054a.07.07 0 0 1-.051-.067v-.262a.069.069 0 0 1 .087-.066l.21.06a.07.07 0 0 1 .05.067zm.231-.626-.209-.055a.068.068 0 0 1-.052-.066v-.262a.069.069 0 0 1 .088-.066l.21.06a.068.068 0 0 1 .049.066v.256a.069.069 0 0 1-.086.067m.4.785a.069.069 0 0 1-.086.067l-.209-.055a.067.067 0 0 1-.052-.066v-.262a.069.069 0 0 1 .088-.066l.209.06a.068.068 0 0 1 .05.066zM13.693 7.15a.069.069 0 0 1-.086.067l-.21-.055a.07.07 0 0 1-.052-.067v-.261a.07.07 0 0 1 .088-.067l.21.061a.068.068 0 0 1 .05.066zm-.277-2.045.209.06a.07.07 0 0 1 .05.067v.256a.068.068 0 0 1-.086.066l-.21-.054a.07.07 0 0 1-.051-.067v-.262a.07.07 0 0 1 .088-.066m-.395-.838a.069.069 0 0 1 .088-.066l.21.06a.071.071 0 0 1 .05.066v.257a.068.068 0 0 1-.086.066l-.21-.054a.071.071 0 0 1-.052-.067Zm-.332.743a.07.07 0 0 1 .088-.067l.21.061a.069.069 0 0 1 .05.066v.256a.069.069 0 0 1-.086.067l-.21-.055a.07.07 0 0 1-.052-.067Zm-.379-.928a.069.069 0 0 1 .088-.066l.21.06a.069.069 0 0 1 .05.066V4.4a.07.07 0 0 1-.087.067l-.209-.055a.067.067 0 0 1-.052-.066Zm-.01 1.924v-.262a.069.069 0 0 1 .088-.066l.21.06a.071.071 0 0 1 .05.066v.257a.068.068 0 0 1-.086.066l-.21-.054a.071.071 0 0 1-.052-.067m.046.533V6.8a.068.068 0 0 1-.086.066l-.209-.054A.069.069 0 0 1 12 6.741v-.262a.069.069 0 0 1 .088-.066l.209.06a.069.069 0 0 1 .046.066zm-.365-1.722a.069.069 0 0 1 .088-.066l.21.06a.069.069 0 0 1 .05.066v.256a.07.07 0 0 1-.087.067l-.209-.055a.068.068 0 0 1-.052-.066Zm.751 2.33a.212.212 0 0 0 .112-.125L12.759 7a.068.068 0 0 1-.052-.066v-.262a.069.069 0 0 1 .088-.066l.053.015-.006-.37a.2.2 0 0 1 .118-.185l.049-.023V5.93a.069.069 0 0 1 .087-.067l.21.06a.07.07 0 0 1 .05.067v.256a.068.068 0 0 1-.086.066h-.013a.05.05 0 0 0 0 .012l.014 1.245.068.02a.068.068 0 0 1 .049.066v.256a.069.069 0 0 1-.086.067l-.06-.016v.114a.225.225 0 0 1-.1.185.183.183 0 0 1-.167.02.169.169 0 0 1-.112-.155l-.021-.6-.166.08v.118a.068.068 0 0 1-.086.066l-.193-.05-.761.367v.117a.069.069 0 0 1-.086.067l-.193-.05-.42.2a.288.288 0 0 1-.269-.009.287.287 0 0 1-.147-.226l-.071-.729a.1.1 0 0 1 .053-.1.35.35 0 0 1 .245-.026l.041.01a.1.1 0 0 1 .072.083l.033.287a.068.068 0 0 1 .045.064v.168l.858-.393-.125-.033a.069.069 0 0 1-.052-.066v-.257a.069.069 0 0 1 .088-.066l.21.06a.069.069 0 0 1 .05.066V7.5ZM10.888 6.1a.069.069 0 0 1 .05.066v.256a.069.069 0 0 1-.086.067l-.21-.055a.07.07 0 0 1-.052-.067v-.259a.07.07 0 0 1 .088-.067Zm-.023-.493v-.26a.069.069 0 0 1 .088-.066l.21.06a.069.069 0 0 1 .05.066v.256a.069.069 0 0 1-.086.067l-.21-.055a.068.068 0 0 1-.052-.066Zm.77.726v.256a.069.069 0 0 1-.086.067l-.21-.055a.07.07 0 0 1-.052-.067v-.259a.069.069 0 0 1 .088-.066l.21.06a.069.069 0 0 1 .05.066zm-.046-.522v-.259a.07.07 0 0 1 .088-.067l.209.06a.07.07 0 0 1 .05.067v.256a.069.069 0 0 1-.086.067l-.209-.055a.069.069 0 0 1-.052-.067Zm.011-1.922a.07.07 0 0 1 .088-.066l.209.06a.069.069 0 0 1 .05.066v.257a.068.068 0 0 1-.086.066l-.21-.054a.07.07 0 0 1-.051-.067Zm-.332.724a.07.07 0 0 1 .088-.067l.209.06a.07.07 0 0 1 .05.067v.256a.068.068 0 0 1-.084.071l-.21-.054a.069.069 0 0 1-.051-.067Zm-.027 2.713a.068.068 0 0 1-.086.066l-.21-.054a.07.07 0 0 1-.051-.067v-.262a.069.069 0 0 1 .088-.066l.209.06a.069.069 0 0 1 .05.066zm-.365-3.641a.069.069 0 0 1 .088-.066l.21.06a.069.069 0 0 1 .05.066V4a.07.07 0 0 1-.087.067l-.209-.055a.068.068 0 0 1-.052-.066Zm-.3.76a.07.07 0 0 1 .088-.066l.209.06a.07.07 0 0 1 .05.067v.256a.068.068 0 0 1-.086.066l-.21-.054a.069.069 0 0 1-.051-.067Zm-.365-.927a.069.069 0 0 1 .088-.066l.209.06a.068.068 0 0 1 .05.066v.256a.069.069 0 0 1-.086.067l-.21-.055a.068.068 0 0 1-.051-.066Zm-.332.74a.069.069 0 0 1 .088-.066l.209.06a.068.068 0 0 1 .05.066v.256a.069.069 0 0 1-.086.067l-.21-.055a.069.069 0 0 1-.051-.067Zm.363-2.165h.018l4.734 1.088a.079.079 0 0 1 .045.124l-.127.173a.257.257 0 0 0-.05.153l.006 15.382a.093.093 0 0 0 .069.09l.144.038a.022.022 0 0 0 .027-.021l.061-15.9a.075.075 0 0 0-.058-.075L10.286 2a.05.05 0 0 0-.027 0l-.23.084a.04.04 0 0 0-.021.018l-.061.114.263-.116a.07.07 0 0 1 .032-.007m4.032 1.471a.42.42 0 0 0 .169 0l.068-.013a.157.157 0 0 1 .1.016l.072.04a.11.11 0 0 1 .069.1l-.021 15.317.088-.05-.006-15.341a.305.305 0 0 1 .06-.182L15 3.278a.03.03 0 0 0 0-.029.03.03 0 0 0-.01-.013l-4.751-1.094h-.009l-.33.15-.314.145L13.8 3.449ZM9.531 18.515h-.009Zm5.424.645-.03-.008a.14.14 0 0 1-.058-.032l-.173.1a.34.34 0 0 1-.03.049l-.174.231a.208.208 0 0 1-.218.074l-2.582-.727-2.148-.58v.255c.1.029.727.206 4.613 1.325a.262.262 0 0 0 .205-.025l.55-.315a.088.088 0 0 0 .045-.077Zm-.727.74a.31.31 0 0 1-.086-.012c-.712-.205-4.069-1.172-4.565-1.312h-.01a.061.061 0 0 0-.024.048v.332c.1.029.728.207 4.613 1.325a.262.262 0 0 0 .205-.025l.55-.315a.088.088 0 0 0 .045-.077v-.334a.1.1 0 0 1-.021.015l-.55.315a.307.307 0 0 1-.157.04m-4.696-.94h-.01zm6.622.452a7.9 7.9 0 0 0-1-.5v.206a.069.069 0 0 1-.07.07h-.018L15 19.173v.253a.13.13 0 0 1-.012.056.047.047 0 0 1 .012.032v.357a.136.136 0 0 1-.069.119l-.55.315a.307.307 0 0 1-.156.042.31.31 0 0 1-.086-.012c-2.086-.6-4.533-1.3-4.624-1.329h-.004L9.5 19c-.009-.01-.015-.015-.009-.369a.112.112 0 0 1 .026-.068h-.006l-.011-.009c-.005-.006-.009-.01-.011-.073A1.728 1.728 0 0 0 8.252 20.6c.115.666 2.926 1.4 4.555 1.4.777 0 3.121-.748 3.478-1.544a.964.964 0 0 0-.131-1.044m-4.97 1.4-.184.161a.2.2 0 0 1-.194.041l-.885-.276a.091.091 0 0 1-.035-.153l.152-.141a.238.238 0 0 1 .232-.054l.884.262a.091.091 0 0 1 .03.156zm4.251-.08a.043.043 0 0 1-.023.038l-.318.161a.042.042 0 0 1-.062-.038v-.083a.043.043 0 0 1 .022-.038l.318-.173a.043.043 0 0 1 .063.038zm-.705-1.643a.4.4 0 0 1-.01.057l.116-.064a.17.17 0 0 1-.015-.045z"/></svg>