<svg xmlns="http://www.w3.org/2000/svg" viewBox="0 0 24 24"><path fill="#44739e" d="M3.362 19.627a.375.375 0 0 0 .322.203h2.741a.396.396 0 0 0 .362-.288l.146-.43H3.067Zm17.626-6.425h-4.025l-2.013 3.486 2.013 3.486h4.025L23 16.688Zm-2.923.28c.102.099.279.292.35.365s1.008 1.65 1.144 1.56a13.4 13.4 0 0 0-.675-1.606c-.046-.11-.088-.22-.128-.319h.119c.054.15.105.289.132.35a8.76 8.76 0 0 1 .712 1.904c-.131.07-1.025-1.382-1.188-1.625a4.4 4.4 0 0 0-.522-.614l-.014-.015Zm-.164 0c.039.052.075.101.104.138.11.137.322.386.354.44s.178.22.268.357 1.038 1.766 1.161 1.925.378.67.497.83.435.542.53.491-.077-.291-.067-.393l.009-.102a.473.473 0 0 1-.162-.182.75.75 0 0 0-.061-.171c-.042-.081-.134-.236-.22-.406s-.173-.564-.262-.742-.162-.386-.197-.451-.542-1.152-.822-1.74h.064c.136.285.854 1.727.901 1.815a5 5 0 0 1 .33.783 1.88 1.88 0 0 0 .211.609 2.6 2.6 0 0 1 .278.539c-.016.008.133.236.135.371s.011.184-.069.198-.141.071-.504-.358a5.72 5.72 0 0 1-.649-1.023c-.097-.162-1.149-1.956-1.217-2.071s-.363-.421-.429-.511c-.036-.048-.147-.201-.254-.352Zm-.143 0c0 .02 0 .034-.007.04s-.039-.01-.07-.04Zm-.345 0a3.6 3.6 0 0 1 .289.497c.032.103.146.226.116.243s-.124-.133-.15-.198a2.3 2.3 0 0 0-.096-.208c-.027-.049-.164-.258-.22-.33Zm-.697.707 2.544 4.741s-.277-.454-.343-.576-.363-.632-.482-.853-.279-.494-.393-.704-.77-1.478-.869-1.666-.245-.431-.323-.576c-.044-.08-.103-.202-.161-.319Zm-.682 1.181c.082.153.181.345.206.391.04.07 1.011 1.742.977 1.765s-.27-.41-.3-.467-.667-1.21-.706-1.279-.155-.25-.212-.349Zm-.065.11c.034.05.056.087.049.094s-.036-.014-.071-.055Zm-.172 2.113c-.058-.123-.275-.561-.483-.979l.047-.08c.288.607.659 1.386.705 1.468.074.129.359.616.463.859Zm1.327 2.299-.381-.659-.011-.024c-.098-.206-.405-.88-.496-1.08-.074-.165-.582-1.24-.805-1.716l.058-.101c.265.61.973 2.167 1.135 2.506.137.28.389.785.533 1.074Zm.838 0-.007-.01c-.097-.152-.277-.398-.33-.481s-.306-.446-.371-.411.17.59.22.689c.016.034.051.116.093.213H17.5c-.044-.11-.11-.245-.179-.389-.099-.198-.22-.55-.126-.601s.322.279.398.387.29.388.374.498c.021.029.046.065.072.11Zm.207 0-.02-.034c-.08-.14-.458-.683-.515-.806a8.3 8.3 0 0 0-.565-.794c-.071-.079-.253-.381-.374-.316s.07.573.147.77.317.807.38.923c.021.039.069.138.126.257h-.05c-.02-.039-.037-.074-.051-.102-.082-.164-.397-.865-.468-1.025s-.283-.854-.15-.926c.086-.045.302.072.754.745.293.44.641.972.855 1.309Zm.153 0c-.095-.164-.211-.359-.257-.439-.065-.121-.389-.644-.53-.846s-.523-.808-.61-.887-.358-.404-.455-.513c-.063-.071-.479-.763-.798-1.21l.086-.148.046.067c.163.243 1.001 1.603 1.122 1.733a11 11 0 0 1 .66.925c.136.22.493.798.588.952l.228.368Zm.119 0-.017-.026c-.093-.149-.377-.631-.482-.79s-.427-.711-.543-.88-.357-.52-.48-.688-.912-1.485-.944-1.54c-.02-.039-.09-.122-.16-.213l.022-.038c.089.145.44.703.699 1.108-.189-.314-.582-1.038-.608-1.077a.9.9 0 0 1-.052-.099l.022-.038a.3.3 0 0 0 .033.047 12.8 12.8 0 0 1 .705 1.309s-.012-.008-.025-.026c.105.163.184.285.205.315.077.11.454.66.55.812s.626.941.684 1.061c.041.085.297.493.473.77Zm.151 0c-.095-.136-.21-.317-.237-.367-.046-.086-.407-.677-.504-.813s-.385-.565-.44-.673-.274-.367-.22-.399c.04-.021.22.232.33.402s.315.559.382.66.469.755.51.82c.026.041.147.231.231.373Zm.141 0c-.053-.076-.11-.155-.136-.211a4 4 0 0 0-.227-.4 1.38 1.38 0 0 1-.23-.278l-.252-.47c-.068-.127-.2-.3-.258-.41l-.236-.44c-.053-.1-.206-.33-.273-.451s-.794-1.441-.831-1.512a2.9 2.9 0 0 1-.169-.314.66.66 0 0 0-.041-.119l.035-.061c.036.07.068.131.087.164.052.089.696 1.32.754 1.43s.282.526.387.692.354.55.402.642.287.453.342.55a3.15 3.15 0 0 0 .27.432 3.2 3.2 0 0 1 .277.44c.032.059.11.182.186.304Zm.135 0a8.8 8.8 0 0 0-.44-.778 6.2 6.2 0 0 1-.415-.614c-.05-.084-.339-.586-.426-.723a5.9 5.9 0 0 1-.385-.66c-.043-.124-.173-.277-.143-.293s.142.166.174.244.088.19.12.249.22.351.266.425.231.373.297.484.265.413.33.516.22.33.252.376.193.391.254.515.154.178.18.239l.012.024Zm.162 0a1 1 0 0 1-.027-.058 2.5 2.5 0 0 0-.228-.348 3.85 3.85 0 0 1-.256-.458c-.039-.086-.22-.358-.265-.432l-.266-.495c-.045-.083-.32-.593-.363-.676s-.162-.21-.228-.309-.153-.171-.232-.299-.709-1.174-.77-1.245a3.6 3.6 0 0 1-.198-.309.7.7 0 0 1-.05-.093l.035-.06a1.73 1.73 0 0 0 .188.286 1.6 1.6 0 0 0-.168-.32l.022-.038c.025.043.044.076.051.09.034.075.836 1.451.87 1.526a4.1 4.1 0 0 0 .342.511 1.65 1.65 0 0 1 .247.391 5.8 5.8 0 0 0 .318.562c.055.085.248.44.271.505s.241.347.264.419a3.7 3.7 0 0 0 .207.386 4.4 4.4 0 0 1 .265.397.4.4 0 0 0 .027.067Zm.145 0c-.052-.094-.11-.197-.16-.279-.072-.11-.249-.415-.293-.492s-.177-.306-.253-.41-.231-.44-.289-.539-.196-.351-.288-.523a4.8 4.8 0 0 0-.299-.504c-.087-.123-.25-.342-.306-.429s-.798-1.416-.854-1.489c-.038-.05-.11-.162-.17-.253l.024-.04c.069.093.178.231.194.269s.173.249.234.357.695 1.266.763 1.343a1.47 1.47 0 0 1 .203.264c.053.097.201.344.266.465s.239.493.298.587.175.305.229.392.152.254.213.366.22.375.276.483.153.24.22.373c.01.02.022.04.035.062Zm.085 0a1.1 1.1 0 0 1-.054-.098c-.076-.153-.233-.426-.314-.586s-.269-.451-.324-.55-.191-.316-.255-.43-.196-.379-.272-.521-.237-.407-.31-.542-.132-.22-.22-.362-.867-1.525-.88-1.52.122.233.11.238a4.4 4.4 0 0 1-.283-.411 2.3 2.3 0 0 0-.151-.22l.07-.124c.1.152.233.35.291.441.077.126.834 1.447.933 1.616s.287.44.347.577.265.511.318.617.171.278.275.464.315.612.408.743.26.474.33.595l.047.077Zm.252 0a.68.68 0 0 0-.079-.136c-.06-.07-.22-.309-.282-.409s-.188-.288-.252-.411-.186-.35-.22-.414-.09-.168-.133-.248-.142-.22-.229-.358-.241-.373-.293-.473-.175-.308-.22-.381-.257-.414-.317-.519-.709-1.276-.757-1.353-.148-.282-.18-.337a7 7 0 0 0-.118-.181l.042-.072a1.32 1.32 0 0 1 .158.227c.039.082.143.234.188.314s.77 1.43.887 1.601.33.526.428.67.251.451.314.559.212.351.291.488.34.557.465.77.249.391.311.507c.02.038.054.094.095.158Zm.148 0c-.075-.128-.139-.236-.161-.278-.065-.122-.414-.725-.475-.824s-.398-.667-.509-.864-.355-.573-.418-.69-.369-.581-.454-.718-.744-1.343-.801-1.487a3.8 3.8 0 0 0-.33-.494l.031-.054a3.1 3.1 0 0 1 .246.302c.102.161.236.448.308.581s.827 1.505.909 1.632.307.472.432.698.36.599.413.715.404.591.464.703.283.519.36.66c.015.029.037.07.065.117Zm.135 0-3.07-5.719.035-.061c.042.072.08.141.11.204.092.172.187.394.288.581s.791 1.447.88 1.623.257.517.348.684.344.624.44.794.264.48.33.6.248.422.314.543.289.581.381.753Zm.12 0c-.079-.16-.17-.392-.211-.491s-.238-.472-.317-.602-.129-.212-.258-.388a5.3 5.3 0 0 1-.335-.584c-.062-.121-.213-.501-.264-.579a4 4 0 0 1-.234-.351 1.87 1.87 0 0 0-.157-.307c-.089-.142-.776-1.435-.83-1.548s-.143-.266-.205-.385c-.052-.101-.257-.466-.317-.593l.012-.02a5.2 5.2 0 0 1 .304.492c.093.173.819 1.553.907 1.718s.284.348.367.502.606 1.265.684 1.41.33.478.385.584.343.612.39.726a4.3 4.3 0 0 0 .269.416Zm.446 0a1.8 1.8 0 0 1-.111-.192c-.057-.116-.317-.452-.345-.506a1.03 1.03 0 0 0-.11-.21c-.11-.169-.214-.339-.292-.494a2.2 2.2 0 0 0-.36-.528 4.8 4.8 0 0 0 .406.707c.082.128.378.646.446.764.045.078.191.31.275.459h-.044c-.072-.117-.164-.286-.227-.386-.11-.169-.44-.788-.597-.99s-.426-.77-.55-.99-.373-.721-.417-.822-.22-.258-.33-.454-.78-1.46-.851-1.595-.245-.419-.315-.523l-.094-.14.03-.052c.058.11.31.471.381.581a3.56 3.56 0 0 1 .255.471c.058.144.903 1.556.975 1.676s.273.464.345.597.41.683.458.756.171.246.259.41a4 4 0 0 0 .228.364 2.3 2.3 0 0 1 .189.348c.056.129.353.55.47.747Zm.155 0-.005-.009c-.079-.13-.184-.29-.272-.44s-.145-.19-.184-.279-.199-.354-.255-.44-.136-.208-.195-.316-.194-.33-.249-.403-.187-.273-.281-.428-.265-.428-.348-.584a5 5 0 0 0-.273-.472 2.05 2.05 0 0 1-.207-.306c-.048-.099-.692-1.255-.737-1.333s-.22-.409-.322-.55c-.077-.11-.207-.311-.297-.45l.063-.11c.049.088.137.236.172.289s.22.34.267.427.164.269.207.345.692 1.293.731 1.36.256.398.32.526.202.306.298.484.368.535.497.765.276.398.375.581.227.468.358.668.287.44.413.673Zm.191 0c-.03-.062-.06-.12-.077-.149-.043-.067-.143-.272-.194-.366s-.119-.251-.191-.363-.157-.273-.181-.318-.145-.205-.184-.277-.149-.267-.206-.368-.213-.321-.274-.434-.207-.344-.288-.494-.269-.415-.318-.521a1.98 1.98 0 0 0-.236-.372 4.5 4.5 0 0 0 .272.517c.063.11.262.452.34.574s.22.361.197.374-.185-.244-.232-.343-.195-.321-.251-.427-.164-.275-.269-.44-.88-1.533-.957-1.659-.285-.421-.366-.56-.244-.363-.291-.475a.5.5 0 0 1-.023-.051l.041-.072c.064.11.14.234.181.31.06.11.11.179.183.298s.306.48.315.473-.122-.232-.11-.238a4.2 4.2 0 0 1 .284.413c.089.144.734 1.297.823 1.43s.275.446.348.561.235.382.301.499.272.419.33.528.294.489.385.645.237.448.303.565.199.362.254.469c.025.049.085.159.149.279Zm.123-.007a1.2 1.2 0 0 0-.062-.136c-.044-.077-.136-.277-.182-.366s-.189-.34-.212-.389-.137-.24-.17-.297-.134-.228-.188-.322-.128-.181-.184-.29-.152-.277-.22-.392a2.75 2.75 0 0 1-.191-.321 2 2 0 0 0-.15-.233 2.4 2.4 0 0 0-.155-.273 1.6 1.6 0 0 1-.187-.263c-.063-.116-.22-.306-.261-.379s-.791-1.349-.815-1.4-.171-.25-.232-.358a1.6 1.6 0 0 0-.197-.286 1.05 1.05 0 0 1-.177-.213c-.038-.072-.142-.244-.201-.35l.033-.057a3.5 3.5 0 0 0 .249.413c.076.102.22.28.264.35s.252.397.308.472.737 1.32.816 1.411.264.38.313.454.195.256.249.344.172.315.245.421.209.298.284.421.248.421.29.5.237.464.284.558.305.55.392.742c.025.055.053.12.083.187Zm.079-.136a8 8 0 0 0-.11-.235 3.3 3.3 0 0 1-.3-.56 3.12 3.12 0 0 1 .353.611c.021.043.049.094.079.149Zm.233-.404a2.4 2.4 0 0 0-.098-.147c-.11-.15-.275-.452-.362-.578a2.6 2.6 0 0 0-.267-.366 1.12 1.12 0 0 1-.19-.235 3.4 3.4 0 0 0-.22-.341 2 2 0 0 0 .274.478 4.1 4.1 0 0 1 .286.398c.043.075.156.274.22.369s.22.369.302.481v.009l-.037.065a2.2 2.2 0 0 1-.094-.152c-.048-.091-.281-.44-.341-.55a4.5 4.5 0 0 0-.363-.559 3.5 3.5 0 0 0 .253.472c.067.124.243.454.305.55.036.061.12.196.192.317l-.048.085a3.3 3.3 0 0 0-.154-.306c-.066-.105-.152-.249-.268-.447s-.192-.383-.269-.501-.19-.312-.256-.417-.22-.349-.341-.576-.315-.525-.377-.638-.281-.486-.346-.588-.77-1.45-.826-1.54-.165-.33-.211-.425-.233-.434-.322-.571l-.084-.15h.058l.009.017c.045.083.175.267.231.37s.22.366.253.44a3.2 3.2 0 0 1 .168.313c.019.065.566 1.114.634 1.217a4.1 4.1 0 0 1 .213.385c.042.091.232.363.298.485s.128.274.175.338.11.07.045-.043-.139-.22-.231-.396-.323-.618-.399-.746-.816-1.522-.855-1.592a4.7 4.7 0 0 1-.374-.642c.036-.022.23.33.256.382s.11.175.149.242.182.291.228.377.636 1.226.704 1.349.261.491.308.556.288.449.33.539.233.394.311.505.301.47.341.516.301.374.359.465.243.37.33.485c.036.051.093.138.148.227Zm.083-.143c-.032-.043-.06-.082-.075-.11-.053-.079-.352-.488-.381-.53a5 5 0 0 0-.3-.427 2.97 2.97 0 0 1-.293-.413c-.034-.067-.343-.516-.374-.574s-.193-.33-.234-.399-.184-.314-.25-.425-.199-.317-.177-.33.127.181.167.256.263.432.307.513.22.33.28.433.33.532.393.63.279.382.34.466.294.406.338.475c.033.052.172.214.294.369Zm.083-.144c-.053-.076-.391-.502-.462-.569a3.3 3.3 0 0 1-.278-.417c-.047-.077-.342-.44-.418-.541s-.417-.669-.457-.731-.498-.82-.536-.892-.861-1.43-.841-1.458.09.084.17.171 1.18 2.057 1.236 2.15.354.575.433.712.36.42.416.506a3.1 3.1 0 0 0 .284.404c.084.088.308.33.508.569Zm.065-.458c-.017.068-.419-.309-.44-.33-.167-.167-.33-.341-.482-.519a6.9 6.9 0 0 1-.433-.622c-.061-.11-.452-.722-.506-.825s-.33-.498-.413-.637-.631-1.224-.691-1.289-.198-.288-.168-.305.137.165.171.22.083.181.154.288.798 1.344.861 1.461.292.508.401.66.36.601.445.717a4.5 4.5 0 0 0 .43.52c.16.154.359.407.489.338s.064-.357-.018-.728a2.37 2.37 0 0 0-.172-.629c-.067-.101-.162-.147-.243-.284s-.284-.638-.358-.788-.415-.689-.33-.735.26.485.357.667a6.8 6.8 0 0 1 .32.608.82.82 0 0 0 .171.33 1.06 1.06 0 0 1 .177.22 4.7 4.7 0 0 1 .144.61c.048.236.267.777.242.831a1.3 1.3 0 0 0-.108.221m.391-.33c-.11-.198-.209-.387-.199-.37s.086.248.155.44l-.036.062a3.4 3.4 0 0 1-.129-.358 4.6 4.6 0 0 1-.207-.599 4.4 4.4 0 0 1 .373.605c.022.033.05.081.086.141Zm.069-.12c-.105-.198-.464-.854-.517-.964s-.133-.294-.194-.397-.131-.146-.172-.22-.246-.55-.347-.717-.387-.703-.43-.783-.807-1.487-.85-1.575v-.007h.069c.02.041.035.072.045.087.045.078.748 1.41.827 1.54s.426.77.507.946a4.1 4.1 0 0 0 .355.66c.153.207.428.813.516.963.041.069.137.226.239.392Zm.21-.364c-.093-.171-.22-.388-.33-.59-.122-.227-.227-.566-.365-.824s-.304-.55-.424-.777-.242-.582-.303-.71c-.054-.11-.55-1.083-.725-1.403h.069l.035.069c.104.203.828 1.672.934 1.883s.349.71.427.868.33.63.421.833c.058.121.177.354.298.585Zm.102-.177a10 10 0 0 0-.124-.239c-.056-.11-.195-.499-.273-.644s-.66-1.172-.738-1.32-.035-.22-.124-.387c-.067-.125-.55-1.029-.82-1.532h.11a1 1 0 0 1 .03.049c.064.11.74 1.375.809 1.527a3.4 3.4 0 0 0 .162.355 3.5 3.5 0 0 1 .169.386c.037.086.206.399.272.518a5.2 5.2 0 0 1 .302.603c.076.203.118.291.181.429.021.044.055.11.094.184Zm.119-.205v-.022h.01Zm.068-.119q-.023-.042-.046-.082c-.129-.22-.386-.648-.543-.941s-.349-.686-.472-.925c-.11-.213-.797-1.501-.982-1.855h.126c.22.411.862 1.591.975 1.793.129.233.352.611.509.904s.368.741.483.972l.013.026Zm.197-.341a4.7 4.7 0 0 0-.178-.26 5.3 5.3 0 0 1-.33-.584c-.063-.12-.23-.435-.28-.513a3.7 3.7 0 0 1-.229-.354 3.4 3.4 0 0 0-.206-.33c-.077-.124-.602-1.094-.77-1.42h.11l.696 1.292c.088.165.172.164.253.317s.62 1.203.698 1.349c.053.1.19.29.288.433Zm.074-.249c-.116-.192-.373-.66-.461-.812s-.37-.629-.486-.835c-.094-.164-.634-1.093-.908-1.566h.062c.22.403.517.925.562 1.001s.124.184.213.314l.404.7c.074.138.149.283.22.415s.151.246.234.369l.235.407-.038.067Zm-7.534-4.686h4.023l2.012-3.485-2.012-3.486h-3.995l-2.01-3.488H9.062L7.05 5.029H3.039L1.026 8.514 3.039 12h-.027L1 15.486l2.012 3.485h4.016l2.011 3.479h4.024l2.013-3.486-2.012-3.485Zm-1.852 2.65a2.4 2.4 0 0 0-.098-.147c-.11-.15-.275-.452-.362-.578a2.7 2.7 0 0 0-.267-.367 1.1 1.1 0 0 1-.191-.234 3.4 3.4 0 0 0-.22-.341 2 2 0 0 0 .274.478 4.3 4.3 0 0 1 .286.398c.043.075.156.274.22.369s.22.369.304.481l.005.009-.037.065c-.041-.062-.075-.116-.094-.152-.049-.091-.281-.44-.341-.55a4.35 4.35 0 0 0-.364-.559 3.7 3.7 0 0 0 .253.472c.067.124.244.454.305.55.037.061.121.196.194.317l-.049.085a3.2 3.2 0 0 0-.154-.306c-.066-.11-.152-.249-.268-.447s-.192-.383-.27-.501-.189-.312-.255-.417-.22-.349-.341-.576-.315-.525-.378-.638-.28-.486-.345-.588-.77-1.45-.826-1.54-.165-.33-.211-.424-.233-.44-.322-.571l-.11-.158h.058l.009.018c.044.082.175.266.23.369s.22.367.254.44a3.2 3.2 0 0 1 .168.314c.019.065.566 1.113.634 1.215a4 4 0 0 1 .212.386c.043.092.233.363.299.485s.128.274.175.338.11.071.044-.043-.138-.22-.23-.396-.323-.618-.4-.746-.801-1.521-.839-1.589a4.5 4.5 0 0 1-.374-.642c.035-.022.229.33.255.381s.11.175.148.242.183.292.229.378.635 1.226.704 1.348.261.492.308.557.288.449.33.539.232.394.311.505.301.469.341.516.301.374.359.465.243.369.33.485c.036.051.093.137.148.227Zm-1.602-.679c.081.128.377.646.44.763.046.078.193.311.276.46h-.045c-.07-.119-.163-.286-.226-.386-.11-.169-.44-.789-.598-.99s-.425-.77-.55-.99-.373-.722-.417-.823-.22-.257-.33-.453-.779-1.461-.85-1.595-.244-.419-.315-.523l-.094-.14.029-.052c.06.11.312.471.382.581a3.56 3.56 0 0 1 .255.471c.057.144.902 1.556.975 1.676s.274.463.345.596.411.683.458.757.171.244.259.409a3.7 3.7 0 0 0 .228.364 2.2 2.2 0 0 1 .188.349c.056.129.354.55.471.747h-.056a1.8 1.8 0 0 1-.117-.192c-.057-.116-.316-.453-.345-.506a1.1 1.1 0 0 0-.11-.211c-.11-.169-.213-.338-.293-.493a2.13 2.13 0 0 0-.359-.528 4.95 4.95 0 0 0 .399.709m-.275 1.227a1.1 1.1 0 0 1-.054-.1c-.076-.152-.233-.425-.314-.585s-.269-.451-.324-.55-.191-.317-.255-.43-.196-.379-.273-.521-.236-.407-.309-.543-.132-.22-.22-.361-.867-1.526-.874-1.52.122.233.11.238a4.5 4.5 0 0 1-.283-.411 2.2 2.2 0 0 0-.153-.22l.071-.124c.101.152.234.35.291.44.078.126.835 1.448.934 1.617s.287.44.346.577.265.511.318.617.172.278.275.464.315.612.407.743.262.474.33.595l.049.077Zm.035.55 2.111 3.932s-.278-.454-.343-.576-.363-.632-.482-.854-.279-.494-.393-.704-.77-1.477-.87-1.665c-.022-.042-.047-.087-.072-.134Zm-.233 2.062c-.03-.057-.666-1.21-.705-1.279s-.183-.292-.229-.378-.086-.202-.142-.302a3 3 0 0 1-.057-.103h.044c.045.084.085.157.11.195.065.11.267.5.306.569s1.011 1.742.976 1.766-.278-.406-.308-.464Zm.609.99c.11.171.315.559.382.66s.469.755.511.819a3.85 3.85 0 0 1 .306.534 3.34 3.34 0 0 1-.369-.529c-.046-.085-.407-.678-.504-.812s-.385-.565-.44-.673-.274-.367-.213-.399c.026-.029.211.228.322.4Zm-1.511-2.468c-.02.023-.09-.085-.169-.172-.034-.039-.147-.22-.264-.408h.054c.051.085.09.148.1.166a3.6 3.6 0 0 1 .279.414m-.202-1.135-.008-.011c-.097-.151-.277-.397-.33-.48s-.307-.44-.372-.412.171.591.22.69c.017.034.052.116.094.214H9.58c-.045-.11-.11-.246-.179-.39-.099-.198-.22-.55-.126-.6s.321.278.398.386.29.388.374.498c.021.028.046.065.072.11Zm-.33-.84a8.3 8.3 0 0 0-.566-.794c-.07-.079-.253-.381-.374-.317s.071.574.148.77.316.806.379.923c.021.038.068.137.126.257h-.049c-.02-.039-.036-.076-.05-.103-.083-.163-.398-.865-.469-1.024s-.283-.854-.15-.926c.086-.045.303.072.755.744.293.44.64.973.855 1.309h-.073l-.02-.034c-.077-.139-.454-.682-.511-.805Zm-.891.18-.011-.023c-.098-.206-.406-.88-.497-1.08-.073-.165-.581-1.24-.806-1.716l.06-.101c.265.61.972 2.167 1.135 2.506.135.28.387.785.531 1.074h-.031Zm.071 1.753c.094.167.191.357.138.386s-.124-.134-.189-.297Zm-1.12.845-.035.061a3.4 3.4 0 0 1-.133-.358 4.6 4.6 0 0 1-.207-.599 4.4 4.4 0 0 1 .373.605c.022.032.051.082.086.141l-.043.074c-.11-.198-.209-.387-.199-.37s.091.252.159.446Zm-.79-.078c-.167-.168-.33-.342-.482-.52a7.4 7.4 0 0 1-.433-.621c-.06-.11-.452-.723-.507-.825s-.324-.499-.412-.637-.624-1.224-.69-1.289-.199-.289-.167-.305.136.164.17.22.084.18.154.288.799 1.344.862 1.462.291.507.4.66.361.602.445.717a4.55 4.55 0 0 0 .431.521c.158.152.358.407.488.337s.065-.356-.019-.727a2.32 2.32 0 0 0-.17-.629c-.067-.101-.163-.147-.243-.285s-.284-.637-.359-.788-.415-.689-.33-.734.261.485.358.666a6.8 6.8 0 0 1 .32.609.82.82 0 0 0 .17.33 1.03 1.03 0 0 1 .177.22 4.7 4.7 0 0 1 .144.609c.049.236.268.777.242.832a1.3 1.3 0 0 0-.104.228c-.019.062-.419-.315-.443-.34Zm.434.696-.056.095c-.052-.077-.391-.502-.462-.569a3.3 3.3 0 0 1-.277-.416c-.049-.077-.344-.44-.42-.541s-.415-.669-.455-.731-.498-.82-.537-.892-.86-1.436-.84-1.458.09.084.169.17 1.181 2.058 1.237 2.149.353.577.433.714.36.419.416.506a2.97 2.97 0 0 0 .284.404c.084.087.309.326.509.569Zm-2.478-5.164c-.047-.11-.088-.22-.128-.319h.119c.054.15.11.29.132.35a8.73 8.73 0 0 1 .711 1.901c-.13.07-1.025-1.382-1.188-1.625a4.55 4.55 0 0 0-.521-.615l-.014-.014h.07c.101.098.278.293.35.365s1.008 1.65 1.144 1.56a13.3 13.3 0 0 0-.675-1.603m-.888-.88c-.047-.09-.099-.186-.118-.22-.033-.054-.155-.22-.233-.365s-.11-.209-.152-.307-.11-.142-.182-.275-.11-.229-.164-.323-.191-.276-.268-.42-.133-.302-.201-.424-.234-.33-.198-.367.11.11.171.22.254.478.322.599.182.33.213.393a3.4 3.4 0 0 0 .254.44 1.43 1.43 0 0 1 .154.286c.038.076.192.309.236.39s.154.249.225.37ZM2.87 9.811c.046.094.177.33.249.463s.253.408.3.495.192.372.22.408.231.362.291.473c.011.02.023.044.037.071h-.072l-.013-.025c-.033-.062-.276-.49-.33-.607s-.184-.281-.245-.397-.22-.421-.279-.519-.385-.651-.402-.695-.052-.151-.033-.153a4.6 4.6 0 0 1 .277.486m1.08 2.468c.039.053.075.102.104.138.11.137.322.387.354.447s.177.219.268.356 1.037 1.767 1.161 1.924.378.67.497.83.44.544.53.492-.077-.29-.067-.393l.009-.103a.46.46 0 0 1-.162-.182.77.77 0 0 0-.062-.171c-.041-.08-.134-.236-.22-.405s-.172-.565-.261-.742-.162-.385-.197-.45-.543-1.153-.822-1.741h.064c.135.285.853 1.727.901 1.815a4.95 4.95 0 0 1 .33.784 1.88 1.88 0 0 0 .211.608 2.6 2.6 0 0 1 .277.539c-.015.008.133.236.135.372s.011.183-.069.198-.142.07-.505-.359a5.8 5.8 0 0 1-.648-1.023c-.096-.163-1.148-1.956-1.216-2.071s-.363-.42-.429-.511c-.036-.048-.148-.201-.254-.352Zm.78-2.003c.069.12.26.519.314.629s.253.606.36.816h-.041c-.073-.142-.293-.654-.383-.821s-.33-.666-.367-.736-.303-.62-.329-.673-.017-.143.007-.139a1.22 1.22 0 0 1 .178.33c.103.216.193.474.262.594Zm-.056-.282c.018-.009.462.829.503.905s.104.227.171.352l.252.47h-.079a.66.66 0 0 1-.058-.11c-.037-.083-.22-.44-.268-.55s-.181-.367-.322-.633a1.6 1.6 0 0 1-.198-.434Zm-.11.171c.09.153.242.525.33.69s.245.519.312.645a2.3 2.3 0 0 1 .092.22h-.05a1.12 1.12 0 0 0-.103-.237c-.06-.081-.404-.866-.452-.921s-.389-.815-.44-.914-.25-.55-.351-.733-.282-.482-.251-.505a2.77 2.77 0 0 1 .375.61c.089.183.099.22.153.32s.294.672.384.825Zm2.803 5.819c-.054-.11-.133-.295-.194-.398s-.131-.145-.173-.22-.245-.55-.346-.717-.387-.704-.43-.783-.808-1.488-.85-1.576v-.006h.07c.02.041.035.071.045.087.045.078.748 1.409.827 1.54s.426.77.507.946a4 4 0 0 0 .355.66c.153.207.428.811.516.962l.238.393-.045.079c-.11-.201-.47-.857-.521-.967Zm-1.559-4.263c-.076-.164-.135-.33-.195-.423-.073-.121-.246-.44-.316-.575s-.316-.614-.383-.739-.284-.536-.348-.692-.282-.558-.339-.648S3.2 6.699 3.243 6.673s.692 1.29.785 1.464.284.583.386.77.311.66.416.826.47.867.55 1.032c.058.12.33.642.492.96Zm1.956 4.272c-.122-.227-.227-.565-.365-.823s-.304-.55-.424-.777-.242-.582-.303-.71c-.054-.11-.55-1.083-.725-1.404h.069l.035.07c.103.203.827 1.672.934 1.883s.349.709.427.868.33.629.421.831c.057.121.177.356.298.587l-.038.066c-.094-.171-.221-.389-.329-.591m.307.174c-.056-.11-.196-.499-.273-.644s-.66-1.171-.738-1.32-.036-.22-.124-.386c-.067-.125-.55-1.029-.82-1.532h.11l.03.047c.064.11.739 1.375.808 1.529a3.4 3.4 0 0 0 .163.354 3.5 3.5 0 0 1 .168.386c.037.086.207.4.273.519a5.3 5.3 0 0 1 .302.601c.076.205.117.292.181.429.021.044.055.11.094.186l-.044.076c-.062-.113-.109-.207-.13-.245m-1.43-4.446h-.122a4.52 4.52 0 0 1-.451-1.412c.091-.049.607.701.947 1.217l-.046.08c-.22-.345-.499-.77-.561-.734s.092.475.238.849Zm.362-.339c-.059-.09-.33-.5-.405-.612s-.33-.422-.428-.575-.272-.395-.33-.48-.307-.446-.372-.411.17.589.22.69.258.599.32.751.295.66.397.89l.04.086h-.041a3 3 0 0 0-.063-.131c-.032-.061-.285-.633-.33-.727s-.198-.453-.241-.55-.121-.293-.22-.491-.22-.55-.127-.601.322.279.399.386.289.389.374.5.22.356.313.475.272.376.406.56c.042.058.11.161.169.274l-.027.049c-.023-.04-.039-.068-.049-.083Zm-.11-.405c-.072-.097-.44-.666-.524-.805s-.459-.683-.515-.807a8.6 8.6 0 0 0-.564-.794c-.071-.079-.254-.38-.374-.315s.07.574.147.77.317.806.38.922.374.787.44.908c.056.098.309.615.426.865h-.055c-.053-.117-.105-.22-.165-.347-.083-.172-.231-.513-.29-.594s-.252-.513-.33-.676-.397-.866-.468-1.026-.285-.853-.151-.928c.085-.046.303.071.754.744s1.034 1.585 1.058 1.63.204.299.476.784l-.025.045c-.1-.176-.192-.338-.219-.376Zm1.356 6.428 2.125 3.96s-.278-.455-.343-.577-.363-.631-.482-.853-.279-.494-.392-.704-.77-1.479-.871-1.666l-.062-.11Zm.064-1.225h.01l-.01.017c-.003-.007-.003-.017 0-.017m.246 1.382c-.067-.119-.141-.191-.204-.299l-.011-.019.058-.1c.256.479.713 1.335.797 1.491.11.21.524 1.123.505 1.133s-1.079-2.088-1.145-2.206m-.177-1.48-.046-.081c-.129-.22-.386-.649-.543-.942s-.349-.686-.472-.924c-.11-.22-.797-1.501-.983-1.856h.127c.22.412.862 1.592.974 1.792.13.235.352.613.51.906s.368.741.483.972l.013.025Zm.019-.601a5.3 5.3 0 0 1-.33-.584c-.063-.12-.23-.44-.282-.513a3.6 3.6 0 0 1-.227-.353 3.4 3.4 0 0 0-.206-.33c-.077-.124-.602-1.093-.77-1.419h.11l.684 1.29c.088.165.172.164.253.317s.619 1.203.697 1.348c.053.1.191.291.289.433l-.04.07c-.046-.07-.099-.145-.178-.259m-.209-.8c-.088-.152-.37-.631-.487-.836-.093-.163-.633-1.093-.907-1.566h.062c.22.404.517.925.561 1.001s.125.185.22.315l.403.7c.073.138.149.282.22.414a4.2 4.2 0 0 0 .235.369l.234.408-.038.066-.036-.061c-.122-.191-.379-.657-.467-.81m-.053-1.361c.076.13.361.616.464.859l-.731-1.267c-.059-.123-.275-.561-.483-.979l.046-.08c.287.602.657 1.381.704 1.467m-1.022-3.062c-.079-.126-.394-.77-.464-.826a6 6 0 0 1-.416-.622c-.049-.084-.339-.586-.427-.723a6.2 6.2 0 0 1-.385-.66c-.042-.124-.172-.277-.142-.293s.141.166.174.244.087.19.12.25.22.35.265.424.231.373.297.484.266.414.33.516.22.33.253.376.194.391.254.515.154.178.181.239.155.287.207.385c.019.037.058.101.102.172l-.017.029c-.13-.207-.281-.434-.332-.515Zm3.023 4.51c-.065-.121-.391-.644-.531-.846s-.523-.808-.61-.887-.357-.404-.454-.513c-.064-.071-.481-.763-.799-1.209l.086-.148.046.067c.163.243 1.001 1.603 1.122 1.733a11.2 11.2 0 0 1 .66.925c.137.22.493.798.588.952.04.064.131.211.228.368h-.078c-.096-.169-.213-.363-.258-.447Zm-.123-.373c-.105-.159-.427-.712-.545-.88s-.356-.521-.478-.689-.912-1.485-.944-1.54c-.021-.038-.09-.122-.161-.212l.022-.039c.089.145.44.703.7 1.108-.189-.314-.583-1.038-.608-1.077a1 1 0 0 1-.052-.099l.022-.037a.26.26 0 0 0 .032.046 12.2 12.2 0 0 1 .705 1.309s-.011-.008-.024-.025c.11.162.182.284.204.314.076.11.455.66.55.812s.627.942.686 1.061c.04.085.297.493.471.77h-.082l-.017-.026c-.093-.161-.377-.642-.478-.801Zm-1.924-3.507c-.011.013-.038-.014-.072-.055l.019-.043c.037.054.059.091.053.098m-.02-.145.035-.061c.083.153.182.345.207.391.04.07 1.011 1.742.977 1.765s-.271-.41-.3-.467-.667-1.21-.707-1.28-.155-.249-.212-.348m2.356 4.096c-.046-.086-.407-.677-.504-.813s-.385-.565-.44-.673-.275-.367-.22-.399c.04-.021.22.232.33.402s.315.559.382.66.469.755.511.82c.026.041.147.231.229.373h-.055c-.092-.139-.202-.32-.233-.37m.242.156a4 4 0 0 0-.226-.4 1.34 1.34 0 0 1-.23-.278c-.078-.145-.184-.344-.252-.47s-.2-.3-.259-.41l-.236-.44c-.053-.101-.207-.33-.273-.451s-.793-1.441-.832-1.512a3.1 3.1 0 0 1-.168-.314.66.66 0 0 0-.041-.119l.036-.061c.036.07.068.131.087.164.051.089.696 1.32.753 1.43s.282.526.387.692.354.55.403.642.287.453.342.55a3.15 3.15 0 0 0 .269.432 3.3 3.3 0 0 1 .278.44c.03.059.11.182.186.304h-.087a1.4 1.4 0 0 1-.137-.199m-.165-.567a6.2 6.2 0 0 1-.416-.614c-.049-.084-.338-.586-.425-.723a5.8 5.8 0 0 1-.385-.66c-.043-.123-.173-.276-.143-.292s.142.166.174.243.088.191.119.25.22.351.267.424.231.374.296.485.266.413.33.516.22.33.253.376.193.391.254.515.154.178.18.239l.011.024h-.081a8.8 8.8 0 0 0-.434-.783m.342.371a4.1 4.1 0 0 1-.255-.457c-.038-.086-.22-.358-.265-.432l-.265-.495c-.045-.083-.321-.593-.363-.676s-.163-.21-.229-.309-.153-.172-.232-.299-.708-1.174-.77-1.245a3.6 3.6 0 0 1-.198-.309.7.7 0 0 1-.049-.093l.035-.06a1.73 1.73 0 0 0 .188.286 1.67 1.67 0 0 0-.168-.32l.02-.038c.027.043.046.076.052.09.034.075.836 1.451.87 1.526a3.96 3.96 0 0 0 .342.51 1.68 1.68 0 0 1 .248.392 5.5 5.5 0 0 0 .317.562c.056.085.248.44.271.505s.241.347.264.419a3.7 3.7 0 0 0 .207.386 4.4 4.4 0 0 1 .264.397.7.7 0 0 0 .029.067h-.057a1 1 0 0 1-.028-.058 2.4 2.4 0 0 0-.228-.349m.241.128c-.071-.11-.248-.415-.292-.492s-.179-.307-.253-.41-.231-.44-.29-.539-.195-.351-.288-.524a4.8 4.8 0 0 0-.298-.503c-.088-.124-.251-.342-.307-.429s-.798-1.416-.855-1.491c-.037-.05-.11-.163-.169-.253l.024-.041c.07.094.178.231.195.27s.173.249.232.356.696 1.266.77 1.343a1.54 1.54 0 0 1 .204.264c.051.097.199.345.264.466s.24.493.299.587.175.305.229.392.152.254.213.366.22.375.276.483.153.24.22.373c.01.02.022.039.035.061h-.047c-.055-.094-.109-.198-.162-.279m.137-.266c-.063-.099-.188-.288-.252-.412s-.186-.349-.22-.413-.09-.168-.133-.248-.142-.22-.229-.358-.241-.373-.294-.473-.175-.308-.22-.381-.256-.415-.317-.519-.705-1.278-.749-1.354-.148-.282-.18-.337a7 7 0 0 0-.118-.181l.042-.072a1.32 1.32 0 0 1 .158.227c.039.082.143.234.188.313s.77 1.43.887 1.602.33.526.428.67.251.451.313.559.213.351.292.488.34.557.465.77.249.391.31.507c.021.038.055.094.096.157h-.11a.66.66 0 0 0-.078-.136c-.055-.07-.217-.309-.275-.409Zm.347.267c-.066-.122-.413-.725-.475-.824s-.397-.667-.508-.864-.355-.573-.418-.69-.37-.581-.454-.718-.744-1.343-.798-1.482a3.63 3.63 0 0 0-.33-.494l.03-.056a3.1 3.1 0 0 1 .246.303c.101.16.235.447.307.58s.827 1.505.91 1.633.306.472.432.697.36.6.413.715.403.591.464.703.282.519.358.66c.016.03.039.07.065.118h-.08c-.076-.129-.14-.239-.162-.281M8.748 8.524a.9.9 0 0 0-.058-.07 3.04 3.04 0 0 1-.294-.414c-.034-.067-.342-.516-.374-.574s-.192-.33-.233-.4-.189-.313-.251-.423-.198-.318-.176-.33.126.181.166.256.264.433.308.514.22.324.28.432.33.532.393.631c.03.045.094.133.159.22l.085.148Zm.016 1.023.026-.046 2.55 4.74s-.278-.455-.343-.577-.363-.631-.482-.853-.279-.493-.393-.703-.77-1.479-.87-1.667-.245-.43-.323-.575c-.049-.08-.108-.202-.165-.319m.035-.062.035-.06c.041.071.08.141.11.203.094.173.188.395.289.582s.791 1.447.88 1.623.259.517.348.684.344.624.44.794.264.48.33.6.249.421.315.543.289.581.38.753h-.059Zm2.981 5.23c-.045-.11-.239-.472-.318-.602s-.129-.212-.257-.388a5.3 5.3 0 0 1-.33-.584c-.063-.121-.213-.501-.264-.579a3.7 3.7 0 0 1-.234-.351 1.87 1.87 0 0 0-.157-.307c-.09-.142-.776-1.436-.83-1.549s-.143-.265-.206-.385c-.051-.1-.256-.465-.316-.594l.011-.018a5 5 0 0 1 .305.491c.093.174.819 1.554.907 1.719s.284.348.367.501.606 1.266.684 1.41.33.479.385.585.343.612.39.726a4.3 4.3 0 0 0 .269.416h-.197c-.079-.16-.171-.392-.209-.491m.533.046c-.088-.146-.144-.189-.182-.278s-.2-.355-.256-.44-.136-.208-.194-.317-.195-.33-.25-.403-.187-.273-.281-.428-.264-.428-.348-.584a5.2 5.2 0 0 0-.273-.472 2.2 2.2 0 0 1-.208-.305c-.047-.099-.69-1.256-.736-1.334s-.22-.409-.322-.55c-.077-.11-.207-.311-.297-.45l.064-.11c.048.088.136.236.172.29s.22.34.267.427.163.268.207.344.69 1.293.729 1.361.257.398.321.525.203.306.298.484.369.535.497.77.277.399.374.582.228.468.359.668.287.44.414.673h-.076l-.006-.01c-.08-.137-.185-.297-.274-.443Zm.198-.07c-.05-.096-.118-.251-.191-.363s-.156-.273-.18-.318-.146-.205-.184-.278-.15-.266-.207-.367-.213-.321-.275-.434-.207-.344-.288-.495-.267-.415-.317-.52a2.04 2.04 0 0 0-.235-.373 4.6 4.6 0 0 0 .27.517c.064.11.262.453.34.575s.22.36.198.374-.186-.245-.232-.344-.195-.32-.252-.426-.163-.275-.267-.446-.88-1.532-.957-1.659-.286-.421-.369-.554-.244-.363-.29-.475l-.024-.051.042-.072c.065.11.14.234.181.31.06.11.11.179.184.298s.306.48.314.473-.123-.232-.11-.238a4.6 4.6 0 0 1 .284.413c.089.144.734 1.297.823 1.43s.275.446.349.561.234.382.3.499.273.419.325.528.294.489.385.645.236.448.303.565.198.362.254.469c.024.049.085.159.149.279h-.053c-.03-.062-.059-.121-.077-.149-.044-.075-.143-.28-.194-.374Zm.15.006c-.045-.089-.189-.34-.211-.389s-.138-.24-.171-.297-.134-.228-.188-.324-.127-.179-.183-.288-.152-.277-.22-.393a2.75 2.75 0 0 1-.192-.32 2.1 2.1 0 0 0-.149-.234 2.5 2.5 0 0 0-.156-.272 1.52 1.52 0 0 1-.187-.263c-.062-.116-.22-.306-.26-.379s-.792-1.349-.815-1.4-.173-.25-.239-.358a1.6 1.6 0 0 0-.197-.286 1.05 1.05 0 0 1-.177-.213c-.039-.072-.142-.244-.202-.35l.033-.057a3.36 3.36 0 0 0 .249.413c.076.1.22.28.264.35s.252.397.308.472.737 1.32.814 1.411.265.38.315.454.195.256.248.344.173.314.246.421.208.298.284.421.248.421.29.5.236.464.284.558.304.55.391.742c.026.055.054.12.084.187l-.029.049a1.2 1.2 0 0 0-.061-.136c-.035-.073-.128-.274-.174-.363Zm-1.026-3.979a13.4 13.4 0 0 0-.676-1.606c-.046-.11-.088-.22-.127-.319h.119c.053.15.11.29.132.35a8.76 8.76 0 0 1 .711 1.904c-.131.071-1.025-1.381-1.188-1.624a4.47 4.47 0 0 0-.521-.614l-.014-.016h.07c.101.098.278.293.35.366s1.006 1.649 1.143 1.559Zm-.944-2.479c-.095-.136-.21-.317-.238-.367-.045-.086-.407-.678-.502-.813s-.385-.566-.44-.673-.274-.368-.22-.4c.04-.021.22.232.33.403s.313.559.381.66.469.754.511.82c.025.04.147.23.23.372Zm-.16-.779a6 6 0 0 1-.416-.614c-.05-.083-.338-.586-.426-.722a6.2 6.2 0 0 1-.385-.66c-.042-.125-.173-.277-.143-.293s.142.165.174.243.088.191.12.25.22.351.266.425.231.372.297.484.266.413.33.515.22.33.253.377.192.39.254.514.154.179.179.239l.012.024h-.081c-.105-.195-.37-.727-.434-.782m-.808.288c-.055-.083-.307-.446-.372-.411s.17.59.22.69c.016.033.051.11.093.212h-.06c-.045-.11-.11-.245-.179-.389-.1-.198-.22-.55-.127-.601s.323.278.4.386.288.389.373.5a1.1 1.1 0 0 1 .071.104h-.081l-.007-.011c-.098-.152-.277-.397-.331-.479m.11 1.044c.005.02 0 .035-.008.041s-.038-.01-.069-.041Zm.143 0c.038.053.075.102.103.139.11.137.323.386.355.44s.177.22.268.357 1.037 1.766 1.16 1.925.379.669.498.83.433.542.53.491-.077-.291-.067-.393l.009-.102a.473.473 0 0 1-.162-.182.75.75 0 0 0-.062-.171c-.042-.081-.134-.236-.22-.406s-.174-.566-.262-.742-.161-.386-.196-.451c-.027-.048-.543-1.153-.822-1.74h.064c.134.285.853 1.727.901 1.815a5 5 0 0 1 .33.783 1.88 1.88 0 0 0 .213.614 2.6 2.6 0 0 1 .277.539c-.015.009.132.237.134.372s.012.184-.068.198-.142.07-.505-.359a5.64 5.64 0 0 1-.648-1.023c-.096-.161-1.148-1.956-1.216-2.071s-.363-.42-.429-.511c-.037-.048-.148-.201-.254-.352Zm.293-.549-.021-.035c-.08-.139-.458-.683-.514-.806a8.8 8.8 0 0 0-.565-.793c-.072-.079-.255-.381-.376-.316s.072.575.148.77.318.807.38.923c.02.039.069.138.126.258h-.051l-.049-.103c-.084-.164-.398-.865-.469-1.025s-.288-.859-.149-.931c.084-.046.301.072.753.744.294.44.64.972.856 1.309Zm-.781.549a3.6 3.6 0 0 1 .289.498c.031.103.145.226.115.243s-.124-.133-.149-.198a2.3 2.3 0 0 0-.097-.208c-.026-.05-.164-.259-.22-.33Zm3.383 6.035a3.3 3.3 0 0 1-.3-.56 3.15 3.15 0 0 1 .353.611c.021.043.049.094.079.149l-.02.035c-.043-.093-.083-.181-.112-.235m.428-.312a1.3 1.3 0 0 1-.076-.11c-.052-.079-.351-.488-.379-.53a5.2 5.2 0 0 0-.301-.427 2.86 2.86 0 0 1-.292-.413c-.035-.067-.343-.516-.375-.575s-.193-.33-.234-.398-.183-.314-.25-.425-.198-.317-.176-.33.126.181.167.256.263.432.307.513.22.325.279.433.33.532.394.63.278.382.34.466.294.406.338.475c.033.052.17.214.293.369Zm.083-.144c-.052-.077-.392-.502-.462-.569a3.4 3.4 0 0 1-.278-.417c-.048-.077-.343-.44-.419-.541s-.416-.669-.455-.731-.498-.82-.537-.892-.86-1.43-.84-1.458.09.084.168.171 1.181 2.057 1.237 2.15.354.575.434.713.36.419.416.506a2.97 2.97 0 0 0 .283.403c.084.088.308.33.509.569Zm.066-.459c-.019.068-.42-.309-.44-.33-.168-.167-.33-.341-.483-.519a7.3 7.3 0 0 1-.433-.622c-.06-.11-.452-.723-.507-.825s-.324-.498-.412-.637-.631-1.224-.691-1.289-.199-.288-.167-.305.136.165.169.22.085.181.155.287.799 1.345.862 1.462.291.507.4.66.361.601.44.716a4.5 4.5 0 0 0 .43.521c.158.154.359.407.488.337s.065-.356-.018-.727a2.37 2.37 0 0 0-.171-.629c-.067-.101-.163-.147-.243-.285s-.284-.637-.358-.787-.415-.689-.33-.735.26.485.357.667a6.8 6.8 0 0 1 .32.608.814.814 0 0 0 .171.33 1.03 1.03 0 0 1 .177.22 4.7 4.7 0 0 1 .144.61c.048.236.267.777.242.831a1.3 1.3 0 0 0-.102.221m.39-.33c-.11-.198-.209-.387-.199-.37s.087.248.155.44l-.035.062a3.2 3.2 0 0 1-.13-.358 4.6 4.6 0 0 1-.207-.599 4.4 4.4 0 0 1 .373.605c.021.033.051.081.086.141Zm.069-.12c-.11-.198-.465-.854-.518-.964s-.132-.294-.192-.397-.131-.146-.174-.225-.244-.55-.347-.717-.386-.703-.429-.784-.807-1.487-.85-1.575v-.006h.071c.019.04.035.071.045.087.045.078.748 1.41.827 1.54s.426.77.507.946a4 4 0 0 0 .354.66c.153.206.428.812.516.962l.239.393Zm.21-.363c-.094-.17-.22-.388-.33-.59-.122-.227-.226-.566-.365-.823s-.303-.55-.423-.778-.242-.582-.304-.71c-.054-.11-.55-1.083-.725-1.403h.07l.035.069c.102.204.827 1.672.934 1.883s.348.71.426.868.33.63.422.833c.057.121.177.354.298.585Zm.103-.177-.125-.239c-.056-.11-.195-.499-.272-.644s-.66-1.172-.738-1.32-.037-.22-.125-.386l-.819-1.533h.103a.6.6 0 0 1 .031.049c.064.11.739 1.375.808 1.528a3.4 3.4 0 0 0 .163.354 3.5 3.5 0 0 1 .169.386c.036.086.206.399.272.518a5.4 5.4 0 0 1 .302.603c.076.203.117.291.181.428.021.045.055.11.094.186Zm.117-.205v-.022h.01Zm.07-.118-.046-.083c-.129-.22-.387-.648-.544-.94s-.349-.688-.472-.926c-.11-.213-.796-1.501-.982-1.855h.126c.22.411.863 1.591.975 1.793.13.233.352.611.509.904s.369.741.483.972l.013.026Zm.197-.341a4.7 4.7 0 0 0-.179-.261 5.2 5.2 0 0 1-.33-.584c-.062-.12-.229-.435-.281-.513a3.7 3.7 0 0 1-.228-.354 3.6 3.6 0 0 0-.206-.33c-.078-.123-.601-1.092-.77-1.419h.11l.697 1.292c.088.165.17.164.253.317s.619 1.204.696 1.349c.054.1.191.29.289.433Zm.11-.19-.036-.06c-.11-.192-.372-.66-.46-.812s-.371-.63-.488-.835c-.092-.164-.632-1.093-.906-1.566h.056c.22.403.516.925.561 1.001s.125.185.22.314l.404.7c.072.139.148.283.22.415s.149.246.233.369l.232.405Zm-1.705-3.971a5 5 0 0 0-.11-.235 3.3 3.3 0 0 1-.302-.56 3.12 3.12 0 0 1 .353.61c.022.043.05.095.08.15Zm.26-2.2a2.37 2.37 0 0 0-.169-.637c-.067-.1-.162-.146-.242-.283s-.285-.638-.359-.789-.414-.689-.33-.735.26.485.358.667.251.431.32.608a.8.8 0 0 0 .169.33 1.02 1.02 0 0 1 .177.22 4.7 4.7 0 0 1 .146.61c.048.236.267.777.241.832a1.4 1.4 0 0 0-.11.229c-.018.069-.42-.309-.44-.33-.168-.167-.33-.341-.483-.519a6.8 6.8 0 0 1-.433-.622c-.061-.11-.452-.722-.507-.825s-.33-.498-.412-.637-.632-1.224-.692-1.288-.198-.288-.166-.306.135.165.169.22.084.181.154.288.799 1.344.861 1.461.292.508.401.66.362.601.44.717a4.5 4.5 0 0 0 .43.52c.159.154.36.407.488.338s.071-.366-.012-.735Zm.55.8-.036.061a3.4 3.4 0 0 1-.133-.369 4.5 4.5 0 0 1-.206-.6 4.3 4.3 0 0 1 .372.606c.022.032.052.082.086.14l-.042.074-.2-.37c.015.028.09.252.159.451Zm-3.235-3.73c.078.087 1.182 2.057 1.237 2.149s.354.576.434.713.36.419.416.506a2.9 2.9 0 0 0 .284.404c.083.088.307.33.507.569l-.055.096c-.053-.077-.392-.502-.462-.569a3.6 3.6 0 0 1-.278-.417c-.048-.077-.343-.44-.418-.542s-.417-.668-.457-.73-.497-.819-.537-.892-.859-1.43-.839-1.459.09.085.168.172M13.477 8.7l-.1-.174c.037.054.07.113.1.174m-2.07-4.097c.041.075.264.432.308.513s.22.325.278.432.33.532.394.631.28.381.34.466.295.405.338.474c.033.052.171.214.293.369l-.034.06c-.032-.043-.06-.081-.076-.11-.052-.079-.35-.487-.38-.529a4.8 4.8 0 0 0-.299-.427 3.04 3.04 0 0 1-.294-.413c-.034-.067-.343-.516-.374-.574s-.194-.33-.233-.4-.185-.313-.251-.424-.199-.317-.177-.33.126.186.167.262m2.545 4.679c.015-.009.057.039.097.11s.175.402.22.488.173.363.206.432.165.373.21.465c.015.032.035.071.057.11l-.225-.391-.01-.021c-.041-.088-.17-.358-.194-.413s-.188-.363-.22-.43a2.1 2.1 0 0 1-.141-.35m.977 1.931c-.091-.219-.226-.5-.28-.606-.086-.17-.28-.585-.315-.649s-.22-.499-.253-.561-.231-.314-.319-.451l-.33-.519.051-.087c.197.339.396.68.421.717.05.076.146.237.178.283s.185.368.211.42.11.25.141.304.134.273.166.355.173.356.209.44.22.43.245.504a1 1 0 0 1 .037.131Zm.364.516-.055-.158c-.018-.053-.183-.41-.202-.448s-.19-.378-.21-.433-.138-.26-.175-.33a2.75 2.75 0 0 1-.22-.457 2.35 2.35 0 0 1 .271.44c.071.135.403.802.491.965a3.7 3.7 0 0 1 .17.419Zm.496 0c-.03-.054-.056-.099-.066-.123-.033-.08-.272-.482-.36-.672a7 7 0 0 0-.382-.63c-.066-.11-.233-.44-.297-.55a2.5 2.5 0 0 1-.175-.407c-.049-.145-.099-.068-.11-.037s.314.56.391.702.243.44.302.55.164.289.254.474.269.474.347.66l.017.037h-.05c-.087-.149-.172-.301-.207-.372-.063-.13-.282-.55-.351-.65s-.347-.66-.41-.764a6.2 6.2 0 0 0-.36-.6 6.4 6.4 0 0 0 .379.747c.074.133.305.583.412.77s.286.563.375.747c.016.034.038.076.063.122h-.07c-.066-.123-.201-.403-.243-.481s-.252-.488-.302-.576-.213-.433-.294-.584-.22-.424-.265-.515a3.5 3.5 0 0 0-.209-.347c-.035-.05-.37-.611-.62-1.017l.027-.046a7.3 7.3 0 0 0 .492.853 7.7 7.7 0 0 0-.473-.886l.028-.05c.22.405.456.823.471.815a9.6 9.6 0 0 0-.448-.855l.022-.038c.22.409.451.866.469.914.028.08.163.019.282.149a3.4 3.4 0 0 1 .28.613c.066.122.102.154.157.257a2.4 2.4 0 0 1 .238.424 7.2 7.2 0 0 0 .381.666c.073.147.294.55.355.698Zm.134 0-.014-.024c-.033-.063-.276-.49-.33-.606s-.182-.283-.245-.398-.22-.421-.278-.518-.385-.653-.402-.697-.051-.15-.034-.152a4.4 4.4 0 0 1 .281.486c.046.094.178.33.248.463s.254.408.301.495.193.372.22.409.232.361.291.472l.036.07Zm.15 0c-.047-.089-.099-.186-.117-.22-.033-.052-.156-.22-.234-.365s-.11-.209-.151-.306-.11-.143-.183-.275-.11-.228-.164-.324-.189-.276-.266-.42-.134-.302-.202-.424-.235-.33-.197-.366.104.11.17.22.253.478.321.599.183.33.22.393a3.4 3.4 0 0 0 .254.44 1.46 1.46 0 0 1 .153.285c.038.076.192.31.236.392.035.064.154.248.225.368Zm.159 0c-.025-.044-.05-.085-.074-.123-.071-.11-.249-.415-.293-.492s-.178-.306-.253-.41-.231-.44-.289-.539-.196-.351-.288-.523a4.8 4.8 0 0 0-.298-.504c-.088-.123-.251-.343-.307-.429-.035-.055-.34-.596-.575-1.012l.042-.074c.154.279.66 1.202.724 1.271a1.47 1.47 0 0 1 .204.264c.051.096.2.344.264.465s.241.493.299.587.175.305.229.392.153.254.213.366.22.375.276.483c.044.082.11.178.171.278Zm.088 0c-.082-.157-.214-.386-.285-.528-.081-.159-.269-.452-.324-.55s-.191-.316-.255-.43-.196-.379-.272-.521-.237-.407-.31-.541-.132-.22-.22-.363c-.062-.103-.479-.839-.715-1.248l.041-.07c.25.432.696 1.21.77 1.337.099.17.287.44.346.578s.266.511.318.617.172.278.275.464.315.612.408.743c.077.11.206.363.29.516Zm.241 0c-.069-.087-.208-.297-.267-.389s-.188-.288-.252-.411-.185-.35-.22-.415l-.133-.247c-.043-.08-.142-.22-.228-.358s-.241-.373-.294-.473-.175-.308-.22-.381-.256-.414-.317-.519c-.045-.077-.411-.742-.615-1.112l.06-.103c.22.396.69 1.276.783 1.413.116.172.33.526.428.67s.25.451.313.559.212.351.292.488.34.55.465.77.249.391.31.506Zm.151 0a4 4 0 0 1-.07-.122c-.065-.122-.414-.725-.475-.824s-.397-.667-.508-.864-.356-.573-.418-.69-.37-.581-.455-.718c-.066-.11-.472-.848-.682-1.249l.048-.08c.035.069.066.132.09.177.072.133.827 1.505.909 1.632s.307.472.433.698.361.599.412.715.404.591.465.703.248.456.338.622Zm-2.349-5.98v-.021h.01Zm.067.951c.256.48.713 1.334.797 1.492.11.21.524 1.123.505 1.133s-1.079-2.09-1.145-2.207-.141-.191-.204-.299l-.011-.019Zm1.97 4.22s-.278-.454-.343-.577-.363-.631-.482-.853-.275-.493-.385-.704-.77-1.479-.87-1.666l-.063-.11.027-.045Zm.601.809a4.7 4.7 0 0 1-.203-.515 1.98 1.98 0 0 0-.287-.539c-.048-.092-.297-.543-.375-.701s-.356-.819-.464-1.068-.99-1.905-1.094-2.109a4 4 0 0 1-.092-.2l.04-.069a4.6 4.6 0 0 0 .213.44c.057.082.933 1.725.99 1.898s.403.93.469 1.065.269.514.344.654.263.4.363.586a3.8 3.8 0 0 1 .201.561Zm.271 0a1.28 1.28 0 0 0-.102-.236c-.059-.081-.404-.866-.452-.921s-.39-.815-.44-.914-.25-.55-.351-.734-.282-.481-.251-.504a2.75 2.75 0 0 1 .375.61c.089.183.1.22.153.32s.296.671.386.824.242.526.33.69.246.52.313.644a1.9 1.9 0 0 1 .091.22Zm.11 0c-.072-.14-.292-.653-.382-.82s-.331-.66-.367-.736-.303-.619-.33-.673-.017-.143.007-.139a1.22 1.22 0 0 1 .178.33c.1.214.19.472.26.592s.259.519.313.629.253.606.361.815Zm.159 0a1 1 0 0 1-.059-.11c-.035-.083-.22-.44-.266-.55s-.182-.366-.322-.631a1.6 1.6 0 0 1-.199-.44c.017-.009.463.829.504.905s.103.228.17.352l.253.47Zm.287 0c-.075-.163-.136-.33-.194-.422-.075-.121-.247-.44-.318-.574s-.315-.615-.382-.74-.283-.536-.347-.691-.284-.558-.34-.648-1.033-1.946-.984-1.973a16.5 16.5 0 0 1 .793 1.469c.093.174.284.583.387.77s.309.66.415.827.469.867.55 1.032c.059.119.33.641.492.959Zm1.16-.11c-.22-.345-.498-.77-.56-.732s.095.473.238.847h-.128a4.51 4.51 0 0 1-.451-1.411c.093-.049.608.7.948 1.216Zm.085-.146c-.02-.034-.035-.061-.045-.077-.058-.091-.33-.5-.405-.612s-.33-.423-.427-.575-.277-.398-.33-.48-.307-.447-.372-.412.171.591.22.69.259.6.321.752.294.66.397.889l.039.086h-.042a3 3 0 0 0-.063-.131c-.032-.061-.284-.633-.33-.726s-.198-.453-.241-.557a8.3 8.3 0 0 0-.22-.49c-.098-.198-.22-.55-.126-.601s.322.278.399.386.289.39.374.5.22.356.312.475.273.376.406.56c.043.058.104.16.17.275Zm.059-.102c-.099-.181-.19-.341-.22-.381-.071-.097-.44-.66-.523-.805s-.458-.683-.515-.806a8.4 8.4 0 0 0-.565-.794c-.071-.079-.253-.381-.374-.316s.07.574.147.77.317.806.38.922.374.787.439.907c.057.098.31.615.427.865h-.055c-.054-.117-.11-.22-.166-.347-.081-.171-.231-.511-.289-.594s-.251-.512-.33-.676-.397-.866-.469-1.026-.282-.853-.149-.925c.086-.046.302.072.754.744s1.033 1.585 1.057 1.63.205.299.478.784Zm.34-.59c-.132-.207-.285-.434-.33-.515-.078-.125-.392-.77-.464-.825a6.2 6.2 0 0 1-.416-.614c-.049-.084-.339-.587-.425-.723a5.8 5.8 0 0 1-.385-.66c-.043-.123-.173-.277-.143-.293s.141.165.173.243.088.191.12.25.22.352.267.425.23.373.297.484.265.413.329.516.22.33.252.376.194.39.255.516.154.178.18.237.156.287.207.386c.02.037.058.1.102.172Zm1.216-2.401.086.148v.009a.7.7 0 0 0-.059-.07 3 3 0 0 1-.292-.414c-.034-.067-.344-.516-.375-.574s-.193-.33-.234-.399-.183-.314-.249-.424-.199-.318-.177-.33.126.182.167.258.263.431.307.512.22.325.279.434.33.53.394.629c.033.042.096.129.16.217ZM18.93 5.317l1.445 2.503c-.11-.158-.397-.641-.433-.699s-.498-.819-.537-.892c-.022-.04-.307-.516-.539-.913Zm-.282 0c.172.33.405.77.448.839a3.9 3.9 0 0 1 .212.385c.043.092.234.363.3.486s.127.273.174.338.11.07.044-.043-.138-.22-.229-.396-.324-.62-.401-.746c-.039-.067-.258-.475-.464-.863h.062c.193.372.466.897.511.977.068.122.261.492.308.557s.288.45.33.539.232.395.311.506.301.468.341.515c.018.02.077.093.143.178l-.027.046a.7.7 0 0 0-.053-.058 1.14 1.14 0 0 1-.19-.234 3.3 3.3 0 0 0-.22-.341 2.02 2.02 0 0 0 .274.477c.054.067.11.138.156.204l-.03.052a.88.88 0 0 0-.143-.196.87.87 0 0 0 .118.238l-.035.063a2 2 0 0 0-.072-.127c-.078-.119-.19-.31-.256-.416s-.22-.349-.341-.575-.315-.526-.378-.638-.28-.486-.345-.588c-.044-.072-.401-.745-.632-1.179Zm-.381 0c.212.373.639 1.146.698 1.21.078.091.265.38.315.454s.194.256.248.344.173.316.246.422.208.299.283.421.249.421.291.5c.024.045.097.187.163.319l-.038.065-.021-.036c-.033-.058-.134-.228-.188-.324s-.127-.18-.183-.289a9 9 0 0 0-.22-.392 2.75 2.75 0 0 1-.192-.32 2.1 2.1 0 0 0-.149-.234 2.4 2.4 0 0 0-.155-.273 1.46 1.46 0 0 1-.187-.262c-.063-.116-.22-.307-.261-.379s-.508-.868-.717-1.23Zm-.105 0c.173.299.698 1.235.778 1.351s.275.448.349.561.234.382.3.5.273.419.324.528.295.488.385.644c.037.064.083.149.129.237l-.026.044c-.04-.072-.074-.138-.088-.164-.024-.045-.145-.205-.184-.277s-.15-.261-.209-.371-.213-.322-.274-.44-.206-.33-.287-.485-.267-.415-.317-.519a2.06 2.06 0 0 0-.235-.374 4.5 4.5 0 0 0 .272.518c.062.11.26.452.338.573s.22.361.198.374-.184-.244-.232-.343-.194-.32-.251-.426-.163-.276-.268-.447c-.086-.139-.623-1.081-.856-1.484Zm-.226 0c.187.35.611 1.147.643 1.201s.256.398.32.526.203.305.298.484.369.534.498.77.276.398.375.582c.068.128.15.304.239.467l-.044.075c-.062-.117-.172-.297-.22-.366-.056-.087-.135-.209-.193-.316s-.195-.33-.25-.404-.187-.273-.281-.427-.264-.429-.348-.585a5.4 5.4 0 0 0-.273-.472 2.1 2.1 0 0 1-.208-.306c-.039-.082-.502-.916-.674-1.223Zm-.194 0c.061.148.903 1.557.975 1.676s.274.463.345.597.41.683.458.757.171.244.259.409a4 4 0 0 0 .228.364 2.24 2.24 0 0 1 .189.349l.018.037-.034.06a.4.4 0 0 1-.032-.05 1.03 1.03 0 0 0-.11-.21c-.11-.169-.214-.339-.292-.494a2.16 2.16 0 0 0-.361-.527 4.95 4.95 0 0 0 .407.707c.062.097.248.42.363.621l-.02.035c-.148-.254-.374-.66-.491-.81-.152-.204-.425-.77-.55-.99s-.373-.722-.417-.823-.22-.258-.33-.452c-.085-.141-.448-.83-.673-1.259Zm-.147 0c.249.475.604 1.148.66 1.259.088.165.283.349.366.503s.606 1.265.684 1.41.33.478.385.583.295.527.373.688l-.059.102-.055-.139c-.045-.11-.239-.471-.318-.601a4.5 4.5 0 0 0-.258-.389 5.3 5.3 0 0 1-.33-.584c-.061-.12-.212-.501-.264-.579a3.6 3.6 0 0 1-.233-.349 1.87 1.87 0 0 0-.157-.307c-.089-.143-.777-1.437-.831-1.549l-.024-.047Zm-.131 0c.192.354.748 1.368.831 1.525.095.176.259.516.349.683s.344.624.44.794.264.481.33.6.249.422.315.55c.04.076.146.288.241.477l-.035.06-2.52-4.689Zm-.066 0 2.111 3.933s-.279-.454-.344-.576-.363-.633-.481-.854-.28-.494-.393-.704-.77-1.478-.87-1.665c-.022-.043-.048-.087-.073-.134Zm-.24 0c.073.138.144.286.19.372.072.133.826 1.505.909 1.632s.307.473.432.697.36.601.413.715.403.592.464.704.242.44.33.614l-.043.075c-.052-.088-.092-.158-.11-.188-.066-.123-.414-.726-.475-.824s-.397-.669-.508-.866-.356-.573-.418-.69-.37-.581-.455-.717-.743-1.344-.801-1.488a.3.3 0 0 0-.017-.036Zm-.174 0c.034.054.068.11.089.145.045.078.77 1.43.887 1.601s.33.526.428.671.251.45.313.559.213.351.292.487.34.557.465.77.249.39.31.506c.016.028.038.065.065.11l-.053.092a1 1 0 0 0-.099-.179c-.059-.07-.22-.309-.281-.408s-.188-.288-.252-.411-.186-.35-.22-.415-.09-.167-.133-.247-.142-.22-.229-.358-.241-.374-.294-.473a9 9 0 0 0-.22-.38c-.045-.072-.256-.415-.317-.52s-.708-1.279-.752-1.357c-.023-.042-.065-.121-.103-.194Zm-.193 0c.055.084.104.16.135.209.077.126.834 1.447.933 1.616s.287.44.346.578.265.511.318.616.172.278.275.465.315.611.408.742.261.474.336.595l.158.258-.032.054-.011-.019a2.75 2.75 0 0 1-.202-.314c-.076-.154-.234-.426-.315-.585s-.268-.452-.323-.55-.192-.316-.255-.43-.196-.38-.273-.522-.237-.406-.309-.541-.132-.22-.22-.362-.866-1.526-.875-1.519.122.232.11.236a4.2 4.2 0 0 1-.283-.411l-.072-.11Zm-.208 0a2.1 2.1 0 0 1 .147.206c.023.053.173.25.233.358s.695 1.266.764 1.343a1.56 1.56 0 0 1 .203.263c.052.097.2.345.264.465s.241.493.299.588.175.305.229.391.153.254.213.366.22.375.277.483.152.24.22.374c.055.103.154.242.212.33l-.033.057a7 7 0 0 0-.138-.236c-.07-.11-.143-.262-.214-.37s-.249-.415-.293-.491-.178-.307-.253-.411-.231-.44-.289-.54-.196-.351-.288-.523a4.8 4.8 0 0 0-.298-.503c-.088-.123-.251-.343-.307-.43s-.799-1.415-.855-1.49c-.034-.046-.096-.145-.154-.231Zm-.22 0a4.5 4.5 0 0 0 .26.401 2.3 2.3 0 0 0-.22-.401h.045c.04.065.069.11.077.134.035.074.836 1.45.871 1.525a3.96 3.96 0 0 0 .342.512 1.64 1.64 0 0 1 .247.391 5.4 5.4 0 0 0 .318.561c.055.085.248.44.271.505s.241.347.264.42a3.9 3.9 0 0 0 .206.387 4.2 4.2 0 0 1 .264.397 2.7 2.7 0 0 0 .22.408.7.7 0 0 1 .039.061l-.036.064a3 3 0 0 0-.054-.098c-.034-.051-.209-.37-.23-.428a2.4 2.4 0 0 0-.229-.347 4.2 4.2 0 0 1-.255-.458c-.039-.087-.22-.357-.265-.433s-.22-.411-.265-.494-.32-.594-.363-.677-.163-.21-.229-.308-.153-.171-.232-.3-.709-1.173-.77-1.245-.147-.23-.198-.308-.094-.203-.132-.269Zm-.118 0c.067.124.168.33.209.396.052.091.696 1.321.753 1.43s.282.527.388.692.354.55.402.643.287.453.342.55a3.14 3.14 0 0 0 .27.43 3.26 3.26 0 0 1 .277.44c.063.118.305.485.372.597.034.058.118.188.198.316l-.055.094c-.046-.098-.201-.393-.255-.476s-.23-.313-.297-.44a4 4 0 0 0-.227-.399 1.35 1.35 0 0 1-.23-.279l-.252-.47c-.068-.127-.2-.3-.258-.409l-.236-.44c-.054-.1-.206-.33-.274-.45s-.793-1.442-.831-1.513a3.1 3.1 0 0 1-.168-.314.59.59 0 0 0-.091-.204 2.4 2.4 0 0 1-.122-.208Zm2.732 5.06a3.3 3.3 0 0 1-.377-.53c-.046-.084-.407-.677-.504-.813s-.385-.564-.44-.672-.275-.367-.22-.4c.04-.021.22.232.33.402s.315.56.382.66.47.754.51.82a3.85 3.85 0 0 1 .316.532Zm-2.898-5.06c.045.084.085.158.11.195.064.105.266.5.305.57s1.01 1.742.976 1.76-.27-.41-.3-.466-.667-1.21-.706-1.281-.182-.29-.228-.377-.086-.201-.143-.302c-.014-.024-.034-.061-.057-.103Zm-.188 0c.051.084.09.149.1.167a3.6 3.6 0 0 1 .279.413c-.02.022-.09-.085-.168-.171-.035-.039-.147-.22-.265-.409Zm-.269 0c.164.25.402.605.449.687s.44.697.717 1.135c-.189-.313-.583-1.037-.608-1.077s-.085-.18-.155-.287-.229-.284-.281-.382l-.042-.076h.074c.087.129.206.297.256.373a3 3 0 0 0 .15.282 12.5 12.5 0 0 1 .706 1.31s-.012-.008-.025-.026c.11.164.184.285.205.314.077.11.454.66.55.812s.627.942.685 1.062.55.894.629 1.018.263.429.367.623v.006l-.042.072a3.4 3.4 0 0 0-.244-.459c-.1-.126-.247-.365-.34-.515s-.378-.631-.482-.79-.427-.712-.55-.881-.356-.521-.479-.689-.912-1.485-.944-1.54-.177-.22-.267-.356c-.067-.097-.274-.404-.42-.609Zm-.184.358c.13-.07.455.319.618.563s1.001 1.602 1.122 1.732a11.2 11.2 0 0 1 .66.925c.136.22.493.798.587.952s.478.77.567.901c.068.1.142.264.245.461l-.041.072c-.064-.119-.128-.244-.177-.33-.085-.146-.262-.392-.34-.55s-.293-.511-.358-.633-.391-.643-.531-.846-.523-.807-.61-.886-.358-.404-.454-.513-1.024-1.662-1.163-1.573c-.057.037-.091.066.137.601s1.001 2.236 1.173 2.592.532 1.075.62 1.252.466.901.574 1.126c.024.051.06.126.102.211h-.076a7 7 0 0 0-.084-.161 105 105 0 0 1-.466-.905c-.091-.181-.464-.927-.562-1.132s-.406-.875-.496-1.079-.849-1.805-.909-1.935-.276-.775-.142-.845Zm-.382-.055a1 1 0 0 0 .052.139c.071.146.127.322.156.375s.972 2.061 1.049 2.2a9.9 9.9 0 0 1 .474.88c.093.232.496 1.021.541 1.127s.449.862.531 1.047c.025.06.09.193.168.348h-.087c-.11-.22-.241-.506-.279-.586-.052-.11-.277-.526-.338-.654s-.403-.798-.47-.923-.402-.873-.468-.983-.275-.526-.33-.645-.88-1.79-.928-1.87c-.022-.041-.09-.184-.15-.33Zm-.139.24c.094.166.192.356.138.386s-.123-.134-.188-.298Zm-.104.181c.065.119.121.22.136.252.035.066.798 1.47.85 1.575s.148.33.212.474.289.541.381.721.33.65.384.752.172.292.241.44.264.478.363.677c.056.11.26.488.416.797h-.083c-.09-.172-.176-.343-.206-.397-.073-.125-.191-.44-.254-.537s-.295-.522-.372-.66-.433-.823-.495-.922-.286-.578-.342-.691-.85-1.659-.895-1.737-.22-.417-.282-.526a6 6 0 0 1-.089-.157Zm-1.904-4.214c.22.404.517.924.562 1s.124.185.213.315l.405.699c.073.139.147.283.22.415a4.1 4.1 0 0 0 .233.37l.236.407-.039.067-.036-.061c-.11-.191-.372-.66-.461-.811a80 80 0 0 1-.486-.836c-.094-.163-.634-1.093-.907-1.565Zm-.173 0c.273.507.638 1.185.695 1.293.089.164.172.162.254.316s.618 1.203.697 1.348c.053.1.19.29.288.433l-.042.072a4.7 4.7 0 0 0-.178-.261 5.3 5.3 0 0 1-.33-.584c-.062-.12-.229-.44-.281-.513a3.9 3.9 0 0 1-.229-.354 3.4 3.4 0 0 0-.204-.33c-.078-.123-.603-1.092-.77-1.419Zm-.22 0c.225.41.862 1.591.975 1.792.129.233.352.612.509.904s.369.742.484.973l.012.025-.062.11-.046-.083c-.13-.22-.387-.647-.543-.94s-.35-.686-.472-.925c-.11-.214-.798-1.502-.984-1.855Zm-.244 0c.01.014.02.031.029.047.064.11.741 1.375.809 1.528a3.4 3.4 0 0 0 .164.355 4 4 0 0 1 .168.386c.036.085.206.399.272.518a5.1 5.1 0 0 1 .301.603 4.5 4.5 0 0 0 .183.429c.02.044.054.11.093.184l-.044.076c-.056-.11-.11-.201-.125-.238-.056-.11-.195-.5-.273-.644s-.66-1.173-.738-1.32-.035-.22-.123-.387c-.068-.126-.55-1.03-.82-1.531Zm-.204 0 .035.069c.103.203.827 1.671.933 1.883s.349.71.428.867.325.631.42.833c.058.121.179.354.298.585l-.038.066c-.094-.17-.22-.388-.33-.589-.122-.228-.227-.567-.365-.824s-.304-.55-.424-.777-.241-.583-.303-.71c-.053-.11-.55-1.083-.725-1.403Zm-.576 0c.02.04.035.071.044.086.046.079.748 1.41.828 1.54s.426.77.507.945a4 4 0 0 0 .353.66c.153.207.428.813.517.962.041.07.137.227.239.394l-.048.086c-.11-.199-.465-.855-.517-.965s-.134-.295-.193-.397-.131-.146-.174-.225-.244-.55-.346-.717-.387-.703-.43-.784-.808-1.486-.85-1.575v-.005Zm-1.32 0c.102.098.278.292.35.364s1.007 1.65 1.145 1.56a13.5 13.5 0 0 0-.677-1.606c-.046-.11-.088-.214-.126-.318h.117c.054.15.11.289.132.349a8.77 8.77 0 0 1 .706 1.904c-.132.07-1.027-1.382-1.188-1.625a4.46 4.46 0 0 0-.523-.614l-.014-.014Zm-.164 0 .103.138c.11.136.324.387.356.445s.177.22.267.357 1.037 1.766 1.162 1.925.378.669.496.83.434.542.53.491-.076-.291-.067-.393l.009-.102a.46.46 0 0 1-.161-.182.8.8 0 0 0-.062-.171c-.041-.081-.134-.236-.22-.406s-.173-.565-.261-.742-.163-.386-.197-.451-.543-1.153-.823-1.739h.065c.134.284.852 1.726.9 1.814a5.1 5.1 0 0 1 .33.783 1.85 1.85 0 0 0 .211.61 2.53 2.53 0 0 1 .276.539c-.014.007.133.235.135.37s.011.185-.069.198-.141.072-.504-.358a5.68 5.68 0 0 1-.648-1.022c-.097-.163-1.149-1.956-1.218-2.073s-.363-.42-.429-.51l-.254-.351Zm-.142 0c0 .019 0 .033-.009.04s-.037-.01-.068-.04Zm-.207 0 .009.017c.045.082.176.266.231.369s.22.367.253.44a2.9 2.9 0 0 1 .168.315c.02.064.566 1.112.634 1.215a3.9 3.9 0 0 1 .213.385c.043.092.234.363.3.485s.127.274.174.339.11.071.044-.044-.138-.22-.229-.396-.325-.618-.401-.746-.815-1.522-.855-1.591a4.6 4.6 0 0 1-.372-.643c.034-.022.228.336.254.382s.11.175.149.243.182.291.228.376.636 1.227.704 1.349.261.492.308.557.289.449.33.539.233.394.312.506.3.468.34.514.301.374.359.466.243.369.33.485c.037.05.093.138.149.227l-.046.079c-.036-.058-.07-.11-.098-.146-.11-.151-.274-.453-.362-.579a2.64 2.64 0 0 0-.266-.367 1.06 1.06 0 0 1-.19-.234 3.9 3.9 0 0 0-.22-.341 2 2 0 0 0 .274.472 4 4 0 0 1 .286.397c.043.075.157.274.22.37s.22.368.302.481l.007.008-.039.066a2.6 2.6 0 0 1-.093-.153c-.048-.091-.281-.44-.341-.55a4.4 4.4 0 0 0-.363-.558 3.7 3.7 0 0 0 .253.471c.067.125.244.455.305.55.036.062.121.196.192.317l-.048.085a3.3 3.3 0 0 0-.154-.306c-.065-.104-.151-.249-.268-.446s-.191-.383-.269-.502-.19-.311-.256-.417-.22-.349-.341-.574-.314-.527-.378-.639-.28-.487-.344-.588-.77-1.451-.826-1.54-.166-.33-.212-.424-.234-.435-.323-.571l-.103-.158Zm-.139 0a3.5 3.5 0 0 1 .28.493c.032.103.146.227.117.243s-.125-.133-.15-.198a2.3 2.3 0 0 0-.098-.208c-.026-.049-.163-.258-.22-.33Zm-.33.079a3.5 3.5 0 0 0 .249.415c.077.1.22.278.265.349s.251.397.307.472.738 1.32.815 1.411.265.379.314.453.196.256.25.344.171.315.245.422.208.299.283.421.248.42.291.501.235.463.283.556.306.55.391.743c.027.055.055.12.084.188l-.028.048a2 2 0 0 0-.061-.136c-.044-.077-.138-.277-.183-.367s-.189-.339-.211-.389-.139-.239-.172-.296-.134-.229-.188-.323-.127-.181-.183-.29a8 8 0 0 0-.22-.392 2.64 2.64 0 0 1-.191-.319 2.1 2.1 0 0 0-.149-.235 2.6 2.6 0 0 0-.156-.272 1.65 1.65 0 0 1-.187-.263c-.062-.116-.22-.307-.261-.379s-.791-1.349-.814-1.401-.173-.25-.233-.358a1.54 1.54 0 0 0-.197-.286 1.05 1.05 0 0 1-.176-.213c-.039-.071-.143-.243-.203-.35Zm-.06.103c.064.11.141.234.182.311.059.11.11.179.182.297s.306.48.315.473-.122-.232-.11-.237a4 4 0 0 1 .284.412c.089.144.733 1.297.822 1.43s.275.446.35.561.233.382.299.499.274.419.33.528.294.489.384.645.238.448.304.565.199.362.254.47l.149.278h-.049c-.031-.062-.059-.121-.078-.149-.042-.067-.143-.272-.194-.367s-.117-.25-.191-.363-.155-.272-.18-.317-.144-.205-.184-.278-.149-.266-.206-.366-.213-.322-.275-.44-.207-.343-.288-.494-.267-.415-.318-.52a2 2 0 0 0-.235-.373 4.8 4.8 0 0 0 .271.517c.063.11.262.452.34.574a1.4 1.4 0 0 1 .198.374c-.025.013-.186-.244-.233-.343s-.193-.32-.251-.427-.164-.275-.268-.445-.88-1.533-.957-1.659-.284-.422-.366-.56-.245-.363-.292-.474c0-.015-.014-.032-.023-.052Zm-.065.11c.049.088.137.235.173.289s.22.341.266.427.164.268.207.345.692 1.293.73 1.36.258.398.322.527.201.304.298.483.368.534.496.77.276.397.375.58.226.468.358.668.286.44.413.673h-.076v-.01c-.079-.129-.184-.289-.272-.44s-.162-.191-.201-.276a5 5 0 0 0-.255-.44c-.056-.087-.137-.208-.194-.315s-.194-.33-.251-.404-.187-.273-.28-.428-.265-.428-.349-.584a5 5 0 0 0-.273-.472 2.1 2.1 0 0 1-.206-.306c-.049-.098-.691-1.255-.737-1.333s-.22-.409-.322-.55c-.078-.11-.207-.311-.298-.451Zm-.097.168c.06.11.311.471.381.581a3.4 3.4 0 0 1 .255.471c.059.144.903 1.557.975 1.676s.275.463.346.596.411.684.457.757.171.245.261.409a4 4 0 0 0 .226.365 2 2 0 0 1 .189.349c.056.128.353.55.471.746h-.057a1.9 1.9 0 0 1-.117-.193c-.069-.114-.328-.444-.355-.503a1.06 1.06 0 0 0-.11-.211c-.11-.169-.22-.338-.293-.493a2.17 2.17 0 0 0-.359-.528 4.73 4.73 0 0 0 .406.707c.082.129.377.646.44.763.045.078.192.31.275.46h-.044c-.072-.118-.164-.286-.227-.385-.11-.169-.44-.789-.597-.99s-.426-.77-.55-.99-.373-.722-.416-.823-.22-.257-.33-.453-.78-1.461-.851-1.595-.245-.419-.315-.524l-.094-.139Zm-.058.101a5 5 0 0 1 .304.492c.093.174.819 1.553.907 1.718s.284.349.367.503.607 1.265.684 1.41.33.477.386.583.343.613.389.727a4.5 4.5 0 0 0 .269.416h-.191c-.078-.16-.169-.393-.21-.492s-.238-.472-.318-.6-.128-.214-.256-.39a5.2 5.2 0 0 1-.33-.584c-.063-.12-.213-.5-.265-.578a3.6 3.6 0 0 1-.232-.351 2.05 2.05 0 0 0-.157-.307c-.091-.142-.777-1.43-.832-1.549s-.143-.264-.205-.385c-.05-.1-.257-.465-.315-.593Zm-.038.067c.04.072.079.141.11.204.093.174.188.395.288.582s.791 1.446.88 1.622.257.517.347.684.345.624.44.795.264.479.33.599.25.423.315.55.29.58.381.751h-.073L8.824 2.518Zm-.044.076 2.531 4.739s-.278-.455-.343-.578-.364-.631-.482-.852-.28-.494-.392-.704-.77-1.478-.87-1.667-.245-.43-.323-.575c-.043-.08-.103-.202-.16-.319Zm-.172.296a3 3 0 0 1 .248.303c.1.16.235.447.306.581s.827 1.504.91 1.632.306.472.431.697.361.601.413.715.404.592.464.704.284.518.36.66l.065.117h-.081c-.077-.129-.139-.237-.162-.278-.065-.123-.413-.725-.476-.823s-.397-.669-.507-.866-.356-.573-.419-.69-.368-.58-.454-.718-.743-1.343-.801-1.487a3.7 3.7 0 0 0-.33-.494Zm-.067.117a1.32 1.32 0 0 1 .158.226c.04.083.143.235.19.314s.77 1.43.886 1.601.33.526.427.67.251.451.315.56.212.35.29.487.34.557.465.77.249.39.312.506c.019.038.055.094.094.158h-.103a.68.68 0 0 0-.078-.137c-.06-.07-.22-.309-.282-.408s-.189-.289-.253-.412-.186-.35-.22-.414-.09-.168-.132-.247-.143-.22-.23-.358-.24-.374-.294-.474-.174-.308-.22-.381-.256-.414-.316-.519-.705-1.278-.748-1.354-.164-.278-.196-.332c-.016-.026-.065-.1-.118-.182Zm-.109.161c.1.153.233.35.292.44.077.127.834 1.448.932 1.617s.289.44.347.577.265.511.319.617.171.278.274.464.315.612.408.743.261.474.33.595l.047.077h-.08a1.5 1.5 0 0 1-.054-.099c-.075-.153-.233-.425-.314-.584s-.269-.453-.324-.55-.19-.317-.254-.431-.197-.379-.273-.521-.238-.407-.31-.541-.131-.22-.22-.362-.867-1.526-.88-1.52.122.233.11.237a4.1 4.1 0 0 1-.284-.411 2.5 2.5 0 0 0-.152-.22Zm-.099.173c.069.095.178.231.196.27s.171.248.232.357.696 1.265.763 1.342a1.5 1.5 0 0 1 .205.264c.052.097.199.344.264.465s.24.493.298.588.176.304.229.391.154.254.213.367.22.375.276.483.153.239.22.372l.036.062h-.047c-.054-.095-.11-.198-.16-.279-.072-.11-.25-.415-.294-.491s-.177-.307-.252-.411-.232-.44-.29-.539-.196-.351-.287-.524a5.3 5.3 0 0 0-.293-.503c-.089-.123-.252-.343-.308-.43s-.792-1.415-.85-1.489c-.039-.051-.11-.164-.17-.254Zm-.103.178a1.73 1.73 0 0 0 .188.286 1.54 1.54 0 0 0-.164-.322l.022-.037a.8.8 0 0 1 .046.092c.034.075.837 1.451.87 1.526a4.2 4.2 0 0 0 .343.511 1.68 1.68 0 0 1 .248.391 5.5 5.5 0 0 0 .317.562c.055.084.248.44.271.505s.24.346.263.419a4 4 0 0 0 .218.386c.033.056.246.33.264.397a.44.44 0 0 0 .029.067h-.059a.6.6 0 0 1-.026-.058 2.4 2.4 0 0 0-.229-.348 3.7 3.7 0 0 1-.255-.459c-.04-.085-.226-.356-.266-.432l-.265-.494c-.044-.083-.32-.594-.362-.676s-.163-.21-.229-.309-.153-.172-.233-.3-.708-1.173-.77-1.245-.147-.23-.198-.309a.6.6 0 0 1-.049-.092Zm-.067.118c.035.069.067.131.086.164.051.089.697 1.32.753 1.43s.283.526.387.692.355.55.403.642.288.452.342.55a3.15 3.15 0 0 0 .278.438 3.1 3.1 0 0 1 .277.44c.032.058.11.181.187.304h-.087a2.3 2.3 0 0 1-.136-.212 3.9 3.9 0 0 0-.228-.399 1.4 1.4 0 0 1-.23-.279l-.252-.47c-.068-.127-.199-.3-.258-.41l-.235-.44c-.054-.1-.207-.33-.274-.45s-.793-1.442-.831-1.513a3.1 3.1 0 0 1-.173-.311 1 1 0 0 0-.04-.119Zm-.082.141c.082.153.181.344.207.39.038.071 1.01 1.744.976 1.76s-.266-.405-.296-.465-.667-1.21-.706-1.276-.156-.249-.212-.349Zm-.065.11c.033.049.055.087.05.094s-.038-.014-.072-.056Zm-.133.23c.09.144.44.701.701 1.106-.189-.313-.583-1.037-.61-1.077a1.1 1.1 0 0 1-.051-.099l.022-.037a.22.22 0 0 0 .033.046 12.8 12.8 0 0 1 .705 1.309s-.011-.008-.024-.025c.11.163.182.285.203.314.077.11.454.66.55.812s.627.942.684 1.062c.041.084.297.493.473.77h-.082l-.016-.027c-.093-.149-.377-.63-.481-.789s-.427-.712-.55-.88-.348-.521-.469-.689-.913-1.485-.944-1.54a2.5 2.5 0 0 0-.161-.212Zm-.075.135.048.067c.161.243 1 1.603 1.121 1.733a11 11 0 0 1 .66.925c.137.22.492.798.588.952l.228.368h-.077c-.094-.165-.21-.36-.255-.44-.065-.121-.391-.644-.532-.846s-.522-.808-.61-.887-.358-.404-.455-.512c-.063-.072-.479-.764-.798-1.21Zm-.268.464c.266.611.972 2.167 1.136 2.506.136.28.387.785.532 1.075h-.032l-.381-.66-.012-.019c-.097-.206-.405-.88-.496-1.08-.073-.165-.581-1.239-.805-1.715Zm-.128.22c.287.607.66 1.386.704 1.468.076.129.361.616.463.859L7.896 5.94c-.058-.123-.274-.561-.482-.979Zm-.557.428 1.444 2.509c-.11-.158-.397-.64-.433-.697s-.498-.82-.536-.892c-.023-.042-.308-.517-.54-.913Zm-.282 0c.172.33.404.77.447.838a3.9 3.9 0 0 1 .213.385c.043.092.233.363.299.485s.128.274.175.339.11.071.044-.044-.138-.22-.23-.396-.323-.618-.4-.746c-.04-.066-.259-.474-.464-.861h.061c.194.372.466.897.511.977.069.122.26.492.309.556s.288.45.33.539.232.395.311.506.3.469.341.515c.018.02.076.094.142.177l-.026.048a1 1 0 0 0-.053-.06 1.06 1.06 0 0 1-.191-.234 3.6 3.6 0 0 0-.22-.341 1.98 1.98 0 0 0 .274.478c.054.068.11.139.155.205l-.029.052a.86.86 0 0 0-.143-.197.91.91 0 0 0 .119.239l-.037.062a1.3 1.3 0 0 0-.06-.124c-.077-.119-.19-.311-.257-.417s-.22-.349-.34-.574-.314-.527-.378-.639-.279-.486-.344-.588c-.045-.071-.402-.744-.633-1.178Zm-.382 0c.213.373.638 1.144.699 1.21.078.09.265.38.314.453s.195.257.249.345.172.314.245.421.208.299.284.421.248.42.291.501c.024.044.095.186.162.318l-.037.064-.021-.024c-.033-.057-.134-.227-.188-.323s-.128-.181-.185-.289a9 9 0 0 0-.22-.393 2.5 2.5 0 0 1-.191-.319 2.1 2.1 0 0 0-.151-.234 2.4 2.4 0 0 0-.156-.273 1.7 1.7 0 0 1-.187-.262c-.062-.117-.22-.307-.261-.38s-.505-.867-.716-1.229Zm-.104 0c.173.298.697 1.234.776 1.351s.277.446.35.561.233.382.301.499.272.419.324.528.295.489.385.645c.036.064.081.148.128.235l-.029.052c-.041-.073-.074-.138-.088-.164-.022-.045-.142-.199-.18-.277s-.15-.266-.207-.362-.214-.322-.275-.44-.207-.343-.288-.494-.268-.415-.317-.52a2.15 2.15 0 0 0-.236-.373 4.5 4.5 0 0 0 .271.517c.063.11.262.452.34.574a1.4 1.4 0 0 1 .198.374c-.025.013-.186-.244-.232-.343s-.195-.32-.252-.427-.164-.275-.269-.445c-.084-.14-.622-1.082-.854-1.484Zm-.228 0c.188.35.613 1.146.644 1.2s.257.398.321.527.202.305.298.483.368.535.497.77.275.397.374.581c.069.129.152.304.24.467l-.043.074c-.063-.11-.173-.296-.22-.365-.056-.087-.135-.208-.194-.316s-.194-.33-.249-.404-.188-.272-.282-.427-.265-.428-.349-.585a5.3 5.3 0 0 0-.271-.472 2.1 2.1 0 0 1-.208-.305c-.041-.083-.503-.917-.674-1.223Zm-.192 0c.06.147.902 1.557.974 1.675s.274.463.346.597.41.684.457.756.171.246.26.41a3.6 3.6 0 0 0 .228.365 2.1 2.1 0 0 1 .188.348l.018.037-.036.066a.4.4 0 0 1-.032-.049 1.2 1.2 0 0 0-.11-.21c-.11-.169-.213-.339-.292-.494a2.17 2.17 0 0 0-.36-.528 4.84 4.84 0 0 0 .407.708c.061.098.247.42.363.62l-.021.036c-.147-.254-.374-.66-.491-.811-.151-.204-.425-.77-.55-.99s-.373-.722-.417-.823-.22-.258-.33-.453c-.085-.14-.447-.829-.673-1.258Zm-.148 0c.25.474.604 1.146.66 1.258.088.165.284.349.365.503s.608 1.265.686 1.41.33.478.385.583.295.527.372.688l-.059.102c-.023-.056-.042-.11-.056-.138-.045-.11-.239-.472-.318-.601a4.3 4.3 0 0 0-.256-.389 5.2 5.2 0 0 1-.33-.585c-.063-.119-.212-.5-.264-.578a3.6 3.6 0 0 1-.233-.351 2.05 2.05 0 0 0-.158-.307c-.09-.142-.776-1.43-.831-1.549l-.02-.039Zm-.131 0c.192.352.748 1.367.832 1.524.095.176.257.517.348.684s.344.623.44.794.264.48.33.599.249.423.314.545c.042.076.146.288.242.477l-.035.06-2.519-4.676Zm-.066 0 2.11 3.939s-.277-.455-.342-.577-.363-.632-.483-.853-.278-.494-.391-.704-.77-1.478-.871-1.666a6 6 0 0 0-.072-.132Zm-.239 0c.071.138.143.286.189.372.071.133.827 1.504.909 1.631s.306.472.432.698.36.6.412.715.405.591.464.704.243.44.33.612l-.043.075a9 9 0 0 1-.11-.188c-.066-.122-.413-.725-.476-.823s-.397-.669-.507-.865-.355-.574-.418-.69-.363-.574-.449-.713-.743-1.342-.802-1.486l-.016-.035Zm-.175 0c.035.054.069.11.09.144.045.078.77 1.43.886 1.602s.33.526.427.67.252.451.315.56.212.349.29.487.341.556.467.77.247.389.31.506c.014.027.037.065.064.11l-.052.091a1 1 0 0 0-.099-.178c-.059-.07-.22-.309-.282-.408s-.189-.289-.252-.412-.185-.35-.22-.414-.092-.163-.135-.24-.143-.22-.229-.358-.241-.374-.293-.474-.176-.308-.22-.379-.257-.416-.318-.52-.704-1.279-.748-1.355c-.024-.041-.066-.121-.104-.193Zm-.194 0c.056.083.11.16.135.208.077.126.835 1.448.934 1.617s.287.44.346.576.265.512.319.617.171.279.275.465.314.611.407.742.261.474.335.595c.033.052.094.15.16.258l-.032.055-.011-.019a2.9 2.9 0 0 1-.204-.316c-.075-.153-.232-.424-.313-.584s-.27-.452-.324-.55-.191-.317-.255-.43-.197-.379-.273-.521-.237-.407-.309-.542-.132-.22-.22-.361-.867-1.526-.88-1.521.123.234.11.238a4.1 4.1 0 0 1-.284-.411c-.024-.04-.048-.077-.071-.11Zm-.207 0a2.2 2.2 0 0 1 .148.206c.023.053.171.248.232.357s.696 1.265.77 1.342a1.54 1.54 0 0 1 .203.264c.052.097.199.345.264.466s.241.492.299.587.175.305.229.392.153.254.214.366.22.375.276.483.152.24.22.373c.055.103.154.243.212.33l-.033.057a6 6 0 0 0-.137-.237c-.072-.11-.145-.261-.22-.37s-.249-.415-.294-.491-.173-.298-.248-.397-.232-.44-.289-.539-.197-.351-.288-.524a5.1 5.1 0 0 0-.298-.502c-.085-.129-.252-.349-.305-.436s-.798-1.416-.854-1.489c-.035-.048-.096-.146-.154-.231Zm-.22 0a4.3 4.3 0 0 0 .26.4 2.2 2.2 0 0 0-.22-.4h.044c.039.064.069.11.078.133.033.075.836 1.451.869 1.526a4.2 4.2 0 0 0 .343.511 1.65 1.65 0 0 1 .248.391 5.5 5.5 0 0 0 .316.562c.057.085.249.44.272.505s.24.346.264.419a3.7 3.7 0 0 0 .207.386 4.5 4.5 0 0 1 .264.397 2.7 2.7 0 0 0 .225.409c.011.016.025.037.039.061l-.036.064c-.029-.053-.049-.088-.054-.097-.035-.052-.209-.371-.23-.428a2.4 2.4 0 0 0-.229-.341 3.7 3.7 0 0 1-.255-.459c-.039-.085-.226-.356-.265-.432l-.267-.494c-.044-.084-.32-.594-.361-.676s-.163-.211-.229-.31-.153-.171-.232-.299-.709-1.173-.77-1.245-.146-.23-.198-.309-.093-.201-.131-.267Zm-.117 0c.067.123.168.33.209.396.05.089.696 1.32.752 1.43s.283.526.387.692.355.55.403.642.288.452.343.55a3.05 3.05 0 0 0 .269.432 3.15 3.15 0 0 1 .277.44c.063.116.305.484.371.597.036.058.118.188.199.316l-.055.094c-.047-.099-.202-.394-.256-.476s-.229-.315-.296-.44a3.6 3.6 0 0 0-.227-.399 1.43 1.43 0 0 1-.23-.28l-.252-.47c-.067-.126-.199-.3-.258-.41l-.236-.44c-.054-.1-.207-.33-.274-.45s-.792-1.442-.831-1.512a3.1 3.1 0 0 1-.168-.315.57.57 0 0 0-.09-.203 2.4 2.4 0 0 1-.122-.208Zm2.731 5.06a3.45 3.45 0 0 1-.37-.529c-.046-.086-.407-.678-.504-.813s-.385-.565-.44-.673-.273-.368-.22-.399c.041-.021.22.232.33.402s.315.559.382.66.469.755.511.821a3.7 3.7 0 0 1 .308.537Zm-2.898-5.06c.046.084.085.157.11.195.065.104.268.499.306.57s1.011 1.742.976 1.76-.27-.411-.3-.467-.667-1.21-.705-1.28-.183-.292-.229-.378-.086-.201-.143-.301l-.056-.103Zm-.188 0c.052.084.091.149.099.165a3.7 3.7 0 0 1 .281.415c-.02.022-.09-.085-.17-.172-.034-.038-.147-.22-.265-.408Zm-.268 0c.164.25.4.605.449.686s.44.697.717 1.136c-.189-.314-.583-1.038-.609-1.077s-.084-.181-.154-.288-.229-.284-.282-.381a1.4 1.4 0 0 0-.043-.076h.077c.087.129.206.297.255.373a3 3 0 0 0 .151.282 12.5 12.5 0 0 1 .701 1.313s-.007 0-.025-.023c.105.163.183.285.204.314.077.11.454.66.55.812s.627.942.685 1.062.55.894.629 1.017.263.43.367.624v.007l-.041.071a3.5 3.5 0 0 0-.244-.46c-.1-.126-.247-.364-.34-.513s-.377-.632-.482-.791-.427-.712-.55-.88-.356-.521-.478-.689-.912-1.485-.944-1.54-.177-.22-.269-.355c-.066-.099-.272-.405-.419-.61Zm-.185.358c.131-.071.456.319.618.562s.998 1.609 1.119 1.739a11.2 11.2 0 0 1 .66.925c.136.22.493.798.587.952s.477.77.567.901c.068.099.142.263.245.461l-.041.071c-.064-.118-.128-.242-.178-.33-.083-.146-.26-.392-.339-.55s-.293-.512-.358-.633-.391-.643-.531-.846-.523-.807-.611-.886-.357-.404-.454-.513-1.02-1.662-1.159-1.574c-.057.036-.092.066.137.599S4.674 8.775 4.85 9.131s.532 1.076.62 1.253.465.901.573 1.127l.103.21H6.06c-.036-.072-.066-.13-.083-.161-.081-.152-.376-.725-.466-.905s-.465-.927-.562-1.132-.406-.88-.496-1.08-.846-1.806-.904-1.935-.274-.771-.142-.842Zm-.378-.06a.9.9 0 0 0 .051.138c.072.147.128.322.157.376s.971 2.061 1.049 2.2a9.9 9.9 0 0 1 .473.88c.094.233.497 1.021.542 1.128s.449.862.529 1.048c.026.058.092.192.17.347H5.91c-.11-.22-.24-.506-.278-.587-.053-.11-.276-.525-.338-.652s-.402-.799-.469-.923-.402-.868-.468-.979-.275-.525-.33-.644-.88-1.792-.926-1.87c-.022-.041-.09-.184-.151-.33Zm-.139.24c.094.166.192.356.138.386s-.124-.135-.188-.298Zm-.104.18.136.253c.035.066.798 1.469.849 1.576s.149.33.211.474.291.539.382.72.33.65.385.753.171.291.241.44.263.476.363.675c.056.11.26.489.416.799h-.087c-.09-.173-.175-.344-.207-.398-.071-.126-.19-.44-.254-.536s-.295-.523-.371-.66-.432-.825-.495-.923-.286-.578-.342-.691-.849-1.659-.895-1.738-.215-.416-.282-.525a6 6 0 0 1-.089-.157Zm-.284.492a4.8 4.8 0 0 0 .212.44c.057.083.934 1.727.99 1.9s.403.929.469 1.065.269.513.344.653.263.4.362.586a3.7 3.7 0 0 1 .201.561h-.11a5.2 5.2 0 0 1-.203-.517 2.05 2.05 0 0 0-.286-.539c-.049-.09-.298-.542-.376-.699s-.356-.819-.465-1.068-.99-1.906-1.092-2.109c-.029-.055-.059-.126-.092-.201Zm-.1.173c.257.479.714 1.334.798 1.491.11.21.524 1.123.505 1.133s-1.079-2.09-1.145-2.207-.141-.191-.204-.298l-.011-.019Zm-.151.26 2.125 3.96s-.278-.454-.343-.576-.363-.631-.482-.854-.279-.493-.392-.704-.77-1.478-.871-1.666c-.019-.036-.04-.075-.062-.11Zm-.126.22c.034.07.066.132.09.178.071.133.827 1.504.909 1.632s.306.472.432.696.36.601.412.715.405.592.464.704.25.457.339.623h-.09c-.032-.056-.057-.099-.069-.122-.066-.122-.414-.726-.477-.824s-.397-.668-.507-.865-.355-.574-.418-.691-.369-.573-.453-.709c-.066-.11-.473-.848-.682-1.248Zm-.081.139c.22.396.691 1.276.783 1.412.117.172.336.527.427.671s.252.45.315.559.212.351.29.488.341.556.467.77.247.389.31.506h-.106c-.068-.087-.208-.297-.266-.39s-.188-.288-.252-.411-.186-.35-.22-.415a26 26 0 0 0-.132-.246c-.043-.08-.143-.22-.229-.359s-.241-.374-.293-.473-.176-.308-.22-.381-.257-.414-.318-.519c-.045-.078-.411-.742-.614-1.112Zm-.089.154c.25.431.696 1.21.77 1.338.098.169.287.44.347.577s.264.512.318.617.171.279.275.465.314.61.407.741c.077.11.206.364.29.517h-.073c-.081-.157-.213-.387-.285-.528-.081-.16-.268-.452-.323-.55s-.191-.316-.255-.43-.197-.38-.273-.522-.238-.406-.309-.541-.132-.22-.22-.362c-.062-.102-.479-.838-.714-1.247Zm-.086.147c.155.28.66 1.204.725 1.272a1.54 1.54 0 0 1 .204.264c.051.096.199.344.264.465s.241.493.299.588.175.304.229.39.153.254.213.367.22.375.276.483c.044.082.11.179.17.279h-.044c-.025-.044-.05-.086-.074-.123-.072-.11-.249-.416-.293-.492s-.178-.307-.253-.41-.232-.44-.289-.54-.197-.35-.288-.523a4.8 4.8 0 0 0-.298-.504c-.089-.123-.251-.343-.308-.43-.035-.054-.339-.595-.576-1.011Zm-.315.545a7.5 7.5 0 0 0 .491.854 7.5 7.5 0 0 0-.472-.887l.029-.05a9.5 9.5 0 0 0 .471.814c.016-.007-.228-.454-.449-.853l.023-.04c.22.411.451.867.468.916.028.079.164.017.281.148a3.4 3.4 0 0 1 .282.614c.066.122.101.154.156.256a2.3 2.3 0 0 1 .238.425 7.3 7.3 0 0 0 .381.665c.074.148.294.55.356.698v.006h-.05a1.2 1.2 0 0 1-.066-.123c-.034-.08-.274-.483-.361-.673a7 7 0 0 0-.381-.629c-.067-.11-.235-.44-.297-.55a2.4 2.4 0 0 1-.175-.407c-.05-.147-.099-.069-.11-.037s.314.559.39.701.244.44.303.55.165.289.255.475.268.474.346.655l.018.037h-.052c-.087-.148-.172-.3-.206-.372-.063-.129-.283-.55-.351-.65s-.347-.66-.411-.77a5.9 5.9 0 0 0-.36-.599 6.7 6.7 0 0 0 .379.747c.074.132.306.583.413.77s.286.563.375.745c.016.036.038.077.062.124h-.069c-.066-.125-.201-.403-.243-.481s-.253-.488-.303-.576-.213-.433-.294-.585-.22-.423-.264-.514a3.5 3.5 0 0 0-.211-.347c-.034-.05-.368-.611-.619-1.017Zm2.251 4.125c0 .02 0 .034-.007.041s-.039-.01-.07-.041Zm-.056.497c.031.104.145.227.116.242s-.125-.132-.15-.197a2.3 2.3 0 0 0-.097-.208c-.026-.049-.164-.258-.22-.33h.058a3.5 3.5 0 0 1 .291.498Zm-.413-1.056h-.074a5 5 0 0 0-.054-.158c-.019-.053-.184-.411-.202-.448s-.192-.379-.212-.434-.136-.259-.173-.33a2.64 2.64 0 0 1-.22-.457 2.42 2.42 0 0 1 .27.44c.072.133.404.801.492.964a4.1 4.1 0 0 1 .173.428ZM1.35 8.514l.098.177Zm1.139 1.98-.01-.022c-.041-.087-.17-.357-.193-.412s-.186-.37-.221-.436a2.16 2.16 0 0 1-.141-.352c.015-.008.057.041.097.11s.176.404.22.489.172.363.205.431.165.375.209.466c.016.032.037.071.059.11Zm.413.715c-.093-.22-.227-.499-.281-.606-.087-.169-.28-.584-.314-.648s-.22-.499-.253-.561-.231-.314-.319-.451l-.33-.519.05-.087c.197.338.396.679.422.717.049.075.145.236.178.283s.185.366.211.42.11.25.141.304.134.272.166.354.172.356.209.44.22.43.244.504a1.2 1.2 0 0 1 .038.131Zm-.137 1.781 2.545 4.74s-.279-.454-.343-.576-.363-.632-.482-.854-.28-.494-.393-.704-.77-1.477-.87-1.666-.245-.43-.322-.576c-.044-.08-.104-.201-.161-.318Zm-.682 1.18c.083.154.182.346.207.392.04.069 1.011 1.742.977 1.76s-.271-.409-.3-.466-.667-1.21-.706-1.28-.156-.249-.213-.348Zm-.064.11c.034.05.056.087.049.094s-.037-.014-.071-.055Zm-.172 2.113c-.058-.124-.275-.562-.483-.98l.046-.079c.287.607.66 1.386.704 1.468.076.128.361.616.464.858Zm1.327 2.298-.381-.66-.011-.024c-.098-.206-.406-.874-.496-1.079-.074-.166-.582-1.24-.806-1.716l.059-.101c.265.61.972 2.167 1.135 2.506.135.28.387.785.533 1.073Zm.838 0-.007-.01c-.098-.152-.277-.397-.33-.48s-.307-.446-.372-.412.171.591.22.69c.017.034.052.11.094.212h-.063c-.044-.104-.11-.244-.179-.389-.099-.197-.22-.55-.126-.6s.322.279.399.385.289.39.374.5c.021.027.045.064.071.104Zm.207 0-.02-.034c-.081-.14-.458-.683-.515-.806a8.1 8.1 0 0 0-.565-.793c-.071-.079-.253-.382-.374-.317s.07.574.147.77.317.806.379.923c.021.038.069.137.127.256h-.051c-.019-.039-.036-.075-.05-.102-.083-.164-.397-.866-.469-1.025s-.283-.854-.149-.925c.085-.046.302.072.754.743.293.44.64.974.855 1.309Zm.151 0c-.093-.164-.21-.358-.255-.44-.065-.121-.389-.644-.53-.847s-.524-.806-.611-.886-.357-.403-.454-.512c-.064-.071-.481-.763-.798-1.21l.085-.148.047.068c.162.243 1.001 1.602 1.122 1.731a11.2 11.2 0 0 1 .66.926c.136.22.492.799.587.952l.229.367Zm.12 0-.016-.025c-.094-.15-.378-.631-.482-.79s-.427-.711-.55-.88-.356-.52-.479-.688-.911-1.485-.943-1.54a2.5 2.5 0 0 0-.161-.213l.022-.038c.089.145.44.703.7 1.106-.19-.313-.583-1.037-.609-1.075a1 1 0 0 1-.051-.099l.022-.038a.26.26 0 0 0 .032.046 12.4 12.4 0 0 1 .706 1.309s-.012-.007-.026-.025c.11.163.184.284.205.315.077.11.454.66.55.811s.627.941.685 1.062c.041.084.297.493.473.77Zm.152 0c-.096-.136-.211-.317-.238-.367-.046-.085-.407-.678-.503-.812s-.385-.565-.44-.673-.274-.368-.22-.399c.039-.022.22.231.33.402s.314.559.381.66.47.755.511.82c.026.04.147.23.231.372Zm.141 0a2.5 2.5 0 0 1-.137-.211 4 4 0 0 0-.226-.399 1.35 1.35 0 0 1-.23-.28l-.252-.468c-.068-.128-.2-.301-.258-.411l-.236-.439c-.054-.102-.207-.331-.274-.451s-.793-1.443-.83-1.512a3.1 3.1 0 0 1-.17-.315.66.66 0 0 0-.04-.118l.035-.061c.036.068.068.131.087.164.051.089.696 1.32.753 1.43s.283.527.387.692.355.55.403.642.287.454.342.55a3.14 3.14 0 0 0 .273.436 3.2 3.2 0 0 1 .277.44c.032.059.11.183.186.304Zm.135 0a8.9 8.9 0 0 0-.44-.777 6.2 6.2 0 0 1-.416-.615c-.049-.083-.338-.587-.425-.722a5.8 5.8 0 0 1-.385-.66c-.043-.123-.173-.276-.143-.293s.142.165.173.244.088.19.12.25.22.351.267.424.231.374.297.485.265.412.33.516.22.33.251.376.194.389.255.515.154.178.18.239l.011.023Zm.162 0a1 1 0 0 1-.028-.058 2.53 2.53 0 0 0-.227-.348 4 4 0 0 1-.257-.457c-.038-.087-.22-.358-.265-.434l-.265-.493c-.045-.084-.32-.595-.363-.676s-.163-.21-.229-.309-.153-.172-.232-.299-.708-1.174-.77-1.245-.146-.23-.198-.31a.8.8 0 0 1-.049-.092l.035-.06a1.7 1.7 0 0 0 .189.29 1.7 1.7 0 0 0-.168-.32l.022-.038c.025.044.044.077.05.091.035.074.836 1.452.871 1.525a3.96 3.96 0 0 0 .342.512 1.64 1.64 0 0 1 .247.391 5.4 5.4 0 0 0 .318.561c.055.085.248.44.271.506s.241.347.264.42a3.7 3.7 0 0 0 .206.386 4.4 4.4 0 0 1 .266.397.4.4 0 0 0 .027.066Zm.145 0c-.053-.094-.11-.198-.161-.278-.071-.11-.248-.415-.292-.492s-.178-.307-.253-.41-.231-.44-.289-.54-.196-.35-.289-.523a4.8 4.8 0 0 0-.298-.503c-.088-.124-.251-.344-.307-.431s-.798-1.414-.854-1.489c-.038-.051-.11-.163-.17-.253l.024-.042c.07.095.179.232.195.27s.173.249.233.357.696 1.266.764 1.343a1.54 1.54 0 0 1 .203.264c.052.096.2.345.264.466s.241.492.299.587.175.305.229.391.153.254.214.367.22.374.276.482.153.241.22.374c.01.018.022.039.035.06Zm.085 0a1.1 1.1 0 0 1-.054-.098c-.076-.154-.233-.425-.315-.585s-.268-.452-.323-.55-.192-.316-.255-.43-.196-.378-.272-.52-.238-.407-.31-.542-.132-.221-.22-.362-.867-1.526-.88-1.52.122.233.11.238a4.4 4.4 0 0 1-.283-.412 2.6 2.6 0 0 0-.152-.22l.071-.123c.1.152.233.35.291.44.077.126.834 1.448.933 1.616s.287.44.346.578.266.511.318.617.172.278.275.464.315.611.408.742.261.475.336.596l.047.076Zm.251 0a.63.63 0 0 0-.079-.135c-.059-.072-.22-.309-.281-.409s-.188-.288-.252-.412-.186-.349-.22-.414-.09-.167-.133-.247-.142-.22-.229-.358-.241-.374-.294-.473-.175-.308-.22-.381-.256-.415-.316-.519-.706-1.278-.75-1.354-.148-.282-.18-.337a7 7 0 0 0-.118-.181l.042-.072a1.3 1.3 0 0 1 .159.227c.038.081.143.234.188.312s.77 1.43.886 1.602.336.527.428.671.251.45.314.559.212.35.291.488.34.55.465.77.249.389.311.506c.021.037.055.095.095.157Zm.149 0c-.076-.127-.14-.235-.162-.277-.066-.122-.413-.725-.475-.824s-.397-.668-.508-.864-.355-.575-.418-.691-.37-.58-.454-.717-.744-1.345-.801-1.489a3.85 3.85 0 0 0-.33-.494l.031-.052a3.2 3.2 0 0 1 .246.301c.101.161.236.449.307.582s.827 1.505.91 1.632.307.472.432.697.36.6.413.715.403.591.464.704.282.519.358.66c.017.028.039.069.066.116Zm.134 0-3.07-5.72.035-.061c.041.071.081.14.11.203.093.174.187.395.289.583s.791 1.447.88 1.623.258.516.348.684.345.624.44.793.264.481.33.599.249.423.315.545.289.581.381.751Zm.12 0c-.079-.159-.17-.391-.21-.49s-.239-.472-.318-.602a4.5 4.5 0 0 0-.257-.388 5.3 5.3 0 0 1-.336-.586c-.061-.119-.212-.499-.264-.578a3.6 3.6 0 0 1-.233-.35 1.87 1.87 0 0 0-.157-.307c-.089-.142-.777-1.436-.831-1.549s-.143-.265-.204-.386c-.052-.1-.258-.464-.317-.593l.012-.019a5.2 5.2 0 0 1 .304.492c.093.174.819 1.554.907 1.719s.284.348.367.501.606 1.266.684 1.41.33.479.385.583.343.614.39.728a4.2 4.2 0 0 0 .269.415Zm.447 0a1.8 1.8 0 0 1-.117-.191c-.057-.117-.317-.453-.345-.506a1.02 1.02 0 0 0-.11-.211c-.11-.17-.214-.338-.292-.494a2.16 2.16 0 0 0-.36-.527 4.95 4.95 0 0 0 .407.707c.081.128.377.646.44.764.046.078.192.309.276.458h-.044c-.072-.117-.164-.285-.227-.385-.11-.169-.445-.788-.598-.99s-.425-.77-.55-.99-.373-.721-.417-.821-.22-.258-.33-.454-.779-1.462-.851-1.595-.244-.419-.314-.523l-.095-.141.03-.051c.059.11.311.471.382.581a3.5 3.5 0 0 1 .255.47c.058.144.903 1.558.974 1.676s.274.464.346.598.41.683.458.756.171.245.259.41a3.9 3.9 0 0 0 .228.364 2.2 2.2 0 0 1 .188.348c.057.129.354.55.471.746Zm.155 0v-.009c-.079-.129-.184-.289-.273-.44s-.144-.189-.182-.279a5 5 0 0 0-.257-.44c-.056-.087-.135-.209-.193-.317s-.195-.33-.25-.403-.187-.273-.282-.427-.264-.428-.347-.584a5.2 5.2 0 0 0-.273-.472 2.2 2.2 0 0 1-.209-.302c-.047-.099-.691-1.255-.736-1.333s-.22-.41-.322-.55c-.077-.11-.207-.311-.297-.451l.064-.11c.048.087.136.236.171.29s.22.339.267.425.163.27.207.346.691 1.293.731 1.36.256.397.32.526.202.305.298.484.368.534.497.765.276.397.375.582.227.467.358.667.287.44.413.672Zm.19 0a2 2 0 0 0-.077-.148c-.043-.068-.143-.273-.193-.368s-.119-.25-.192-.363-.156-.271-.18-.318-.145-.204-.184-.276-.149-.266-.207-.367-.213-.322-.275-.44-.206-.342-.288-.494-.267-.415-.317-.519a2.06 2.06 0 0 0-.235-.374 4.4 4.4 0 0 0 .272.518c.062.11.26.452.338.573s.22.361.198.375-.184-.244-.232-.344-.194-.32-.25-.426-.164-.275-.269-.446-.88-1.533-.957-1.658-.285-.421-.367-.561-.244-.362-.291-.474l-.024-.051.042-.072c.065.11.141.234.181.31.061.11.11.179.184.297s.306.48.315.474-.123-.232-.11-.238a4.4 4.4 0 0 1 .284.413c.089.143.733 1.297.822 1.43s.275.448.349.561.234.382.3.5.273.419.325.528.295.488.385.645.237.448.303.565.198.362.255.469c.024.048.084.159.148.278Zm.123-.006a1.1 1.1 0 0 0-.061-.136c-.044-.077-.137-.278-.183-.367s-.189-.339-.211-.389-.137-.239-.17-.296-.135-.228-.189-.324-.127-.179-.183-.288a9 9 0 0 0-.22-.393 2.75 2.75 0 0 1-.192-.32 2.1 2.1 0 0 0-.149-.234 2.3 2.3 0 0 0-.155-.272 1.52 1.52 0 0 1-.187-.263c-.063-.116-.22-.306-.261-.379s-.792-1.349-.815-1.402-.172-.248-.232-.356a1.54 1.54 0 0 0-.197-.286 1.08 1.08 0 0 1-.177-.213c-.039-.072-.142-.245-.202-.351l.033-.057a3.36 3.36 0 0 0 .25.413c.076.1.22.278.264.35s.252.397.308.472.737 1.32.814 1.411.265.38.315.453.194.257.248.345.173.314.246.421.208.298.283.421.249.421.291.5.236.464.284.557.304.55.391.743c.026.055.054.12.084.187Zm.08-.137a8 8 0 0 0-.11-.234 3.3 3.3 0 0 1-.301-.56 3.17 3.17 0 0 1 .353.609c.021.043.05.095.08.151Zm.233-.403a2.4 2.4 0 0 0-.098-.147c-.11-.15-.275-.452-.362-.578a2.7 2.7 0 0 0-.267-.367 1.1 1.1 0 0 1-.191-.234 3.4 3.4 0 0 0-.22-.341 2.02 2.02 0 0 0 .274.478 4 4 0 0 1 .286.398c.043.073.157.274.22.369s.22.368.304.481v.009l-.037.065a2 2 0 0 1-.094-.153c-.049-.09-.282-.44-.341-.55a4.35 4.35 0 0 0-.364-.559 3.74 3.74 0 0 0 .253.471c.067.125.244.454.305.556.037.061.121.196.193.317l-.048.084c-.072-.15-.11-.233-.154-.306-.066-.103-.152-.247-.269-.44s-.191-.383-.268-.502-.19-.311-.256-.416-.22-.349-.341-.576-.315-.526-.377-.638-.27-.486-.332-.596-.77-1.451-.826-1.54-.165-.33-.211-.423-.233-.44-.322-.571l-.11-.159h.058l.009.018c.044.082.175.266.23.369s.22.366.254.44a3.1 3.1 0 0 1 .168.315c.019.065.566 1.113.634 1.216a4 4 0 0 1 .213.386c.042.091.232.362.298.485s.128.273.175.337.11.071.044-.042-.138-.22-.23-.396-.323-.619-.4-.746-.815-1.523-.854-1.592a4.7 4.7 0 0 1-.374-.642c.035-.022.23.33.255.381s.11.175.149.242.183.292.229.378.636 1.226.704 1.347.26.492.308.557.288.45.33.54.232.394.311.505.3.469.341.515.3.375.359.466.243.368.33.484c.036.051.093.139.148.228ZM7.274 18a3 3 0 0 1-.076-.104c-.051-.079-.35-.487-.379-.53a4.7 4.7 0 0 0-.3-.427 3.1 3.1 0 0 1-.293-.413c-.034-.067-.343-.515-.375-.575s-.193-.33-.233-.399-.184-.313-.25-.424-.199-.318-.177-.33.126.181.167.257.263.431.307.512.22.325.279.434.33.531.394.629.279.383.34.466.294.406.338.476c.033.051.17.212.294.368Zm.075.967.098.179Zm1.14 1.98-.01-.022c-.041-.088-.171-.357-.194-.413s-.188-.362-.22-.43a2.15 2.15 0 0 1-.141-.351c.016-.008.058.039.098.11s.175.404.22.488.173.363.206.431.165.376.209.467c.017.032.036.071.058.11Zm.412.715c-.092-.22-.226-.499-.28-.606-.086-.169-.281-.585-.315-.649s-.22-.499-.253-.561-.231-.314-.319-.451l-.33-.519.051-.087c.197.339.396.68.421.717.05.076.145.237.178.283s.185.368.211.421.11.249.141.303.134.274.166.355.172.356.209.44.22.431.245.504a1.2 1.2 0 0 1 .037.132Zm.364.516-.055-.158c-.018-.052-.183-.409-.202-.448s-.19-.378-.21-.433-.138-.26-.175-.33a2.64 2.64 0 0 1-.22-.457 2.34 2.34 0 0 1 .271.44c.071.133.403.801.491.964a4.1 4.1 0 0 1 .169.419Zm.496 0a1.3 1.3 0 0 1-.066-.122c-.034-.081-.273-.483-.36-.673a7 7 0 0 0-.382-.629c-.067-.11-.234-.446-.297-.55a2.5 2.5 0 0 1-.175-.407c-.049-.145-.099-.067-.11-.035s.315.558.392.7.243.44.301.55.165.288.255.474.269.475.347.66l.017.037h-.051c-.087-.148-.173-.299-.207-.372-.063-.13-.282-.55-.351-.649s-.347-.66-.41-.77a6 6 0 0 0-.361-.601 6.7 6.7 0 0 0 .379.748c.075.132.306.582.413.77s.286.564.375.746c.016.035.038.077.063.122h-.07c-.066-.123-.201-.402-.243-.479s-.253-.489-.302-.578-.218-.437-.295-.588-.22-.424-.264-.515a3.5 3.5 0 0 0-.21-.347c-.034-.049-.369-.611-.619-1.016l.026-.046a7.7 7.7 0 0 0 .492.853 7.3 7.3 0 0 0-.472-.886l.024-.051c.22.406.455.823.471.815a9.4 9.4 0 0 0-.449-.853l.023-.04c.22.409.451.867.468.914.028.08.164.019.281.15a3.4 3.4 0 0 1 .282.612c.066.122.102.154.156.257a2.4 2.4 0 0 1 .242.421 7.2 7.2 0 0 0 .382.665c.073.148.293.55.355.699v.005Zm.134 0-.014-.023c-.033-.062-.276-.49-.33-.607s-.183-.283-.245-.398-.22-.42-.278-.518-.385-.653-.403-.697-.052-.149-.033-.152a4.6 4.6 0 0 1 .281.486c.046.094.177.33.248.464s.253.407.301.495.192.372.22.408.231.361.291.473c.011.02.023.044.036.069Zm.15 0c-.047-.089-.099-.186-.117-.22-.033-.052-.156-.22-.234-.365s-.11-.209-.151-.306-.11-.143-.183-.275-.11-.228-.164-.324-.189-.276-.267-.42-.133-.302-.201-.423-.235-.33-.198-.367.104.104.17.22.254.478.322.6.183.33.214.392a3.6 3.6 0 0 0 .254.44 1.43 1.43 0 0 1 .154.286c.037.075.191.309.235.39s.154.249.226.369Zm.159 0a2.2 2.2 0 0 0-.074-.123c-.072-.11-.249-.415-.293-.49s-.178-.307-.253-.412-.232-.44-.289-.539-.197-.351-.288-.523a4.8 4.8 0 0 0-.298-.503c-.089-.123-.251-.343-.308-.43-.035-.055-.339-.596-.576-1.011l.043-.075c.155.279.66 1.202.725 1.272a1.5 1.5 0 0 1 .204.263c.051.096.199.344.264.465s.241.493.299.587.175.305.229.392.153.254.213.366.22.375.276.483c.044.083.11.178.17.278Zm.088 0c-.082-.157-.214-.386-.285-.527-.081-.159-.269-.452-.324-.55s-.191-.315-.255-.43-.196-.379-.273-.521-.237-.407-.309-.541-.132-.22-.22-.362c-.061-.104-.478-.84-.714-1.249l.041-.07c.25.432.696 1.21.77 1.339.098.168.287.44.347.576s.264.512.317.617.172.278.275.464.315.612.407.743c.077.11.207.364.291.516Zm.241 0c-.069-.087-.208-.297-.267-.388s-.188-.288-.252-.411-.185-.351-.219-.415-.09-.168-.132-.248-.143-.22-.229-.357-.241-.374-.294-.474-.176-.308-.22-.38-.256-.415-.318-.52c-.045-.077-.41-.743-.614-1.112l.052-.109c.22.396.691 1.277.783 1.414.117.171.33.525.427.669s.252.451.315.56.212.35.29.488.341.556.466.77.248.389.311.506h-.103Zm.151 0a3 3 0 0 1-.07-.122c-.066-.122-.414-.725-.476-.823s-.397-.668-.507-.865-.356-.573-.418-.69-.37-.581-.455-.718c-.066-.11-.473-.848-.682-1.248l.048-.081c.035.069.066.132.09.177.071.134.827 1.505.909 1.632s.306.472.433.698.359.599.412.715.404.592.464.704.249.455.338.621Zm.292 0a5 5 0 0 1-.204-.516 2.02 2.02 0 0 0-.286-.539c-.048-.091-.297-.542-.376-.7s-.355-.819-.464-1.067-.99-1.907-1.092-2.109a4 4 0 0 1-.093-.201l.04-.07a4.6 4.6 0 0 0 .213.44c.056.083.933 1.727.99 1.899s.403.929.469 1.066.269.513.344.653.263.401.363.586a3.85 3.85 0 0 1 .2.561Zm.272 0a1.28 1.28 0 0 0-.103-.236c-.06-.082-.403-.866-.453-.92s-.388-.815-.44-.915-.25-.55-.351-.734-.281-.48-.251-.505a2.83 2.83 0 0 1 .375.611c.09.183.101.22.153.32s.296.672.386.825.242.525.33.69.246.519.313.643c.024.046.057.131.091.22Zm.11 0c-.073-.14-.294-.653-.383-.82s-.33-.66-.367-.736-.303-.619-.33-.672-.016-.143.008-.14a1.22 1.22 0 0 1 .178.33c.1.213.191.472.26.592s.26.519.313.629.253.606.361.815Zm.158 0a.66.66 0 0 1-.058-.11c-.036-.083-.22-.44-.268-.55s-.181-.365-.322-.631a1.64 1.64 0 0 1-.198-.44c.018-.01.462.829.503.905s.104.227.171.351l.252.47Zm.165 0c-.091-.172-.176-.342-.208-.397-.071-.125-.19-.44-.254-.537s-.295-.521-.371-.66-.432-.825-.495-.924-.286-.577-.342-.689-.849-1.66-.895-1.738-.22-.417-.282-.526c-.017-.029-.049-.086-.089-.156l.035-.062c.065.119.12.22.137.252.035.066.797 1.47.849 1.575s.148.33.212.475.29.539.382.721.33.649.384.751.171.293.241.44.263.476.363.676c.056.11.259.489.416.797Zm.122 0c-.076-.162-.135-.33-.194-.422-.074-.121-.247-.44-.317-.574s-.316-.615-.383-.739-.283-.536-.348-.692-.283-.558-.339-.648-1.033-1.946-.984-1.973.692 1.292.785 1.465.284.583.387.769.31.661.415.828.47.867.55 1.032c.059.118.33.641.492.959Zm.102 0c-.11-.22-.239-.506-.278-.586-.053-.11-.276-.526-.338-.653s-.402-.798-.469-.923-.402-.867-.468-.978-.275-.525-.33-.645-.88-1.791-.926-1.87c-.022-.04-.09-.185-.151-.33l.085-.134a.9.9 0 0 0 .052.139c.071.146.127.322.156.375s.971 2.061 1.049 2.2a9.6 9.6 0 0 1 .473.88c.094.233.497 1.021.543 1.128s.448.861.529 1.048c.026.058.091.191.169.346Zm1.059-.11c-.22-.346-.499-.77-.561-.733s.094.474.238.847h-.127a4.51 4.51 0 0 1-.451-1.411c.091-.049.607.701.947 1.217Zm.084-.147c-.02-.034-.035-.062-.045-.077-.058-.09-.33-.501-.405-.612s-.33-.423-.428-.575-.277-.397-.33-.481-.306-.445-.371-.411.169.591.22.69.258.6.32.752.295.66.397.889l.039.086h-.041c-.029-.062-.053-.11-.064-.131-.032-.061-.285-.633-.33-.726s-.197-.452-.24-.556-.122-.294-.22-.492-.22-.55-.125-.6.321.279.398.386.288.389.374.499.22.357.312.477.272.375.406.56c.042.057.11.16.17.273Zm.06-.102c-.1-.18-.191-.341-.22-.38-.072-.098-.44-.665-.524-.805s-.459-.684-.515-.807a8.1 8.1 0 0 0-.565-.794c-.072-.079-.254-.381-.374-.316s.07.574.147.77.317.806.38.923.374.786.44.906c.056.098.309.615.426.865h-.055c-.053-.117-.11-.22-.165-.347-.083-.171-.232-.511-.29-.594s-.252-.513-.33-.676-.397-.866-.468-1.026-.284-.853-.15-.925c.085-.045.303.073.754.744s1.034 1.585 1.058 1.631.204.298.476.784Zm.049-.086c-.065-.118-.129-.243-.177-.33-.085-.144-.262-.391-.34-.55s-.293-.511-.358-.632-.391-.644-.532-.847-.522-.806-.61-.886-.357-.403-.455-.512-1.016-1.666-1.155-1.578c-.057.036-.092.065.137.599s1.002 2.237 1.174 2.593.532 1.075.62 1.252.465.902.573 1.126c.024.051.061.126.102.21h-.077a6 6 0 0 0-.082-.16c-.081-.151-.376-.724-.466-.906s-.465-.925-.563-1.132-.405-.88-.496-1.079-.85-1.805-.908-1.935-.274-.77-.142-.841.455.319.618.562 1.001 1.602 1.122 1.731a11.2 11.2 0 0 1 .66.927c.136.22.493.798.587.951s.477.77.567.901c.068.1.142.264.245.461Zm.067-.118a3.4 3.4 0 0 0-.244-.459c-.1-.126-.246-.365-.34-.514s-.377-.632-.482-.79-.426-.712-.544-.88-.356-.521-.479-.689-.912-1.485-.943-1.54-.178-.22-.269-.356c-.066-.098-.273-.404-.419-.61h.087c.164.25.4.606.449.688s.44.696.717 1.134c-.189-.314-.583-1.037-.609-1.076s-.084-.181-.154-.288-.229-.284-.282-.381a2 2 0 0 0-.043-.077h.076c.087.13.206.298.255.374a3 3 0 0 0 .151.282 12.4 12.4 0 0 1 .705 1.309s-.011-.008-.024-.025c.104.162.182.283.203.314.077.11.455.66.55.812s.627.941.686 1.062.55.894.629 1.017.263.43.366.623v.007Zm.141-.243c-.047-.099-.201-.394-.256-.477s-.229-.314-.296-.44a3.7 3.7 0 0 0-.228-.401 1.43 1.43 0 0 1-.23-.279l-.252-.469c-.067-.127-.199-.3-.257-.41l-.237-.44c-.053-.101-.206-.33-.273-.451s-.792-1.442-.831-1.513a3.2 3.2 0 0 1-.168-.313.57.57 0 0 0-.09-.204 2.6 2.6 0 0 1-.123-.209h.085c.067.124.168.33.209.397.051.09.696 1.32.754 1.43s.281.527.386.692.355.55.402.643.289.453.344.55a3.14 3.14 0 0 0 .269.43 3.15 3.15 0 0 1 .276.44c.064.118.306.485.373.597.034.059.117.188.198.316Zm.083-.142c-.134-.207-.285-.44-.33-.515-.08-.126-.393-.77-.465-.826a5.9 5.9 0 0 1-.415-.615c-.05-.082-.339-.586-.427-.721a6.2 6.2 0 0 1-.385-.66c-.042-.123-.173-.276-.142-.293s.141.165.174.243.087.19.12.251.22.351.265.423.231.375.297.486.266.412.33.515.22.331.253.377.193.389.254.514.154.179.18.239.155.286.207.385c.02.038.058.101.102.173Zm.055-.096a3 3 0 0 0-.054-.097c-.035-.052-.209-.371-.23-.428a2.4 2.4 0 0 0-.229-.359 3.85 3.85 0 0 1-.255-.458c-.039-.086-.226-.357-.265-.433s-.22-.41-.265-.494-.322-.594-.363-.675-.163-.21-.229-.309-.153-.172-.232-.3-.709-1.173-.77-1.245-.145-.23-.197-.309-.094-.202-.132-.268h.045a4.2 4.2 0 0 0 .26.4 2.28 2.28 0 0 0-.22-.4h.044c.039.065.069.11.078.133.033.075.836 1.452.87 1.526a3.96 3.96 0 0 0 .342.511 1.64 1.64 0 0 1 .247.392 5.4 5.4 0 0 0 .317.561c.056.084.249.44.272.506s.24.346.264.419a3.7 3.7 0 0 0 .207.386 4.4 4.4 0 0 1 .264.397 2.64 2.64 0 0 0 .225.408c.011.017.024.037.039.062Zm.08-.139a5.5 5.5 0 0 0-.138-.236c-.07-.11-.143-.263-.22-.37s-.248-.415-.292-.492-.178-.307-.253-.41-.232-.44-.289-.54-.197-.35-.289-.523a5.1 5.1 0 0 0-.298-.504c-.089-.123-.251-.343-.308-.43s-.797-1.415-.853-1.489c-.035-.046-.096-.145-.154-.231h.056a2.3 2.3 0 0 1 .147.205c.023.053.172.25.232.358s.697 1.266.77 1.343a1.54 1.54 0 0 1 .204.264c.051.096.199.344.264.465s.241.493.299.588.175.304.229.39.153.254.213.368.22.374.276.481.153.241.22.374c.055.104.154.242.212.33Zm.053-.092-.011-.018a3 3 0 0 1-.204-.316c-.075-.154-.232-.426-.313-.585s-.269-.452-.324-.55-.191-.316-.255-.43-.196-.379-.273-.522-.237-.406-.309-.541-.132-.22-.22-.362-.867-1.526-.88-1.519.123.232.11.238a4.2 4.2 0 0 1-.282-.413l-.073-.11h.147c.055.084.11.161.134.209.077.126.835 1.448.934 1.616s.287.44.347.578.264.511.318.617.171.278.275.464.314.61.407.741.262.475.33.596c.033.052.093.15.159.258Zm.11-.194a.95.95 0 0 0-.099-.177c-.06-.072-.22-.309-.282-.41s-.188-.288-.252-.411-.186-.35-.22-.415a26 26 0 0 0-.132-.246c-.043-.079-.143-.22-.229-.359s-.24-.374-.293-.473-.176-.308-.22-.38-.257-.415-.318-.519-.704-1.279-.748-1.355c-.023-.041-.065-.122-.104-.194h.104c.035.055.069.11.09.144.045.079.77 1.43.887 1.601s.33.527.426.671.252.45.315.559.212.351.29.489.341.55.467.77.247.389.31.506c.015.027.037.066.065.11Zm.076-.131a8 8 0 0 1-.11-.188c-.066-.122-.414-.725-.477-.824s-.397-.668-.507-.865-.355-.574-.418-.691-.369-.579-.454-.717-.744-1.344-.802-1.488l-.017-.035h.085c.072.137.144.286.189.372.073.134.828 1.504.91 1.632s.306.472.431.696.361.601.413.715.405.592.464.704.243.44.33.614Zm.071-.124-2.512-4.684h.048c.192.353.748 1.367.832 1.524.094.176.258.516.347.685s.345.623.44.793.264.48.33.599.249.423.315.545c.041.076.145.289.241.477Zm.08-.14-.056-.138c-.045-.11-.238-.472-.316-.601a4.5 4.5 0 0 0-.258-.389 5.3 5.3 0 0 1-.33-.585c-.063-.12-.212-.499-.264-.578a3.6 3.6 0 0 1-.233-.35 2.05 2.05 0 0 0-.157-.307c-.091-.142-.777-1.437-.832-1.549l-.023-.047h.061c.25.474.604 1.147.66 1.259.088.164.284.349.366.502s.607 1.266.685 1.41.33.478.385.583.295.527.372.689Zm.172-.296a.4.4 0 0 1-.032-.048 1.18 1.18 0 0 0-.11-.212c-.11-.169-.213-.338-.292-.494a2.12 2.12 0 0 0-.36-.526 4.95 4.95 0 0 0 .407.707c.061.097.247.42.363.62l-.021.037c-.147-.256-.374-.66-.491-.812-.151-.204-.425-.77-.55-.99s-.373-.722-.417-.822-.22-.257-.33-.453c-.085-.141-.447-.83-.673-1.259h.081c.06.148.902 1.557.974 1.676s.274.464.346.597.41.683.457.757.172.244.26.409a3.7 3.7 0 0 0 .227.364 2.2 2.2 0 0 1 .189.349l.018.037Zm.086-.15c-.063-.116-.173-.297-.22-.365-.056-.087-.135-.209-.194-.317s-.194-.33-.249-.403-.187-.273-.282-.427-.264-.429-.349-.584a5 5 0 0 0-.272-.472 2.2 2.2 0 0 1-.207-.306c-.041-.084-.503-.917-.675-1.224h.11c.188.35.613 1.147.644 1.201s.257.397.321.526.202.304.298.484.369.533.497.77.275.397.374.582c.07.128.152.303.24.466Zm.135-.234c-.041-.071-.074-.136-.088-.163-.024-.046-.145-.205-.184-.277s-.149-.266-.206-.367-.214-.323-.275-.44-.207-.342-.289-.494-.267-.415-.316-.519a2.12 2.12 0 0 0-.236-.374 4.5 4.5 0 0 0 .271.518c.062.11.262.452.34.573s.22.361.198.375-.186-.245-.232-.344-.195-.321-.252-.426-.164-.275-.268-.447c-.085-.139-.623-1.08-.855-1.484h.154c.172.298.697 1.235.776 1.351s.276.448.35.561.233.382.3.501.273.419.325.527.295.488.385.645c.036.063.081.149.127.236Zm.073-.125-.021-.037c-.033-.057-.134-.227-.188-.323s-.128-.179-.184-.288a9 9 0 0 0-.22-.393 2.5 2.5 0 0 1-.191-.32 2.1 2.1 0 0 0-.15-.234 2.3 2.3 0 0 0-.156-.272 1.6 1.6 0 0 1-.186-.263c-.063-.117-.22-.307-.262-.379s-.507-.868-.717-1.23h.068c.212.373.638 1.145.699 1.215.078.089.265.38.314.453s.195.257.249.345.171.314.245.421.208.298.284.421.247.42.29.5c.025.045.096.187.163.319Zm.243-.422a1 1 0 0 0-.053-.058 1.1 1.1 0 0 1-.19-.234 3.4 3.4 0 0 0-.22-.341 1.98 1.98 0 0 0 .274.477c.054.067.11.14.155.205l-.03.051a.84.84 0 0 0-.143-.195.92.92 0 0 0 .119.238l-.036.062a1.3 1.3 0 0 0-.072-.125c-.077-.12-.189-.312-.256-.417s-.22-.35-.34-.576-.315-.525-.379-.638-.279-.486-.344-.588c-.045-.071-.401-.744-.632-1.178h.073c.172.33.405.77.447.838a3.7 3.7 0 0 1 .213.386c.043.091.234.362.3.485s.127.273.174.338.11.07.044-.043-.138-.22-.229-.396-.324-.618-.401-.746c-.039-.066-.258-.475-.464-.862h.078c.194.371.465.896.512.976.068.123.259.492.308.557s.288.45.33.54.232.394.311.505.3.47.341.515c.017.021.076.093.142.178Zm-.021-.259.086.148-.006.009a1 1 0 0 0-.058-.07 3.1 3.1 0 0 1-.294-.413c-.034-.067-.342-.516-.374-.575s-.192-.33-.233-.398-.184-.314-.251-.425-.198-.318-.176-.33.127.18.167.256.263.432.307.513.22.33.28.433.33.532.392.63c.038.038.102.125.166.214Zm-.32-.55c-.11-.159-.397-.642-.434-.698s-.498-.82-.536-.892c-.022-.042-.308-.517-.54-.914h.064Z"/></svg>