<svg xmlns="http://www.w3.org/2000/svg" viewBox="0 0 24 24"><path fill="#44739e" d="M18.193 6.012h.262V9.91h-.198a.383.383 0 0 0-.382.352l-.117 1.43h-.008l-.66.902h3.3l-.747-.902h-.009l-.154-1.435a.384.384 0 0 0-.382-.344h-.116V6.006c1.39-.022 2.698-.1 4.018-.237l-.013-.131c-1.32.136-2.619.214-4.003.236V3.97h-.529v1.91c-.813 0-1.658-.011-2.556-.045v-.041a.123.123 0 0 0-.12-.123h-.137a.1.1 0 0 1-.036-.007l-.207-.07a.2.2 0 0 0-.034-.007l-1.116-.055a.12.12 0 0 0-.055.01l-.135.057a.11.11 0 0 1-.046.01l-.266.008a.121.121 0 0 0-.118.101 66.6 66.6 0 0 1-6.748-.791V1.622h-.402v3.235c-1.099-.197-2.152-.418-3.139-.66v-.211a.019.019 0 0 0-.02-.016H1.001l.44.236.008.008.136.33.062.55a.019.019 0 0 0 .014.02h.121v1.98h-.066a.126.126 0 0 0-.127.117l-.038.472-.22.3H2.43l-.248-.3-.057-.479a.128.128 0 0 0-.127-.11H1.96v-1.98h.103a.019.019 0 0 0 .018-.012l.193-.452.178-.24a.021.021 0 0 1 .017-.009l.505.021.252.061a.018.018 0 0 0 .018 0l.087-.093a.022.022 0 0 0 0-.013V4.33c.99.244 2.041.465 3.14.66v1.147H6.33a.291.291 0 0 0-.29.267L5.95 7.49l-.501.684H7.95l-.57-.684-.115-1.1a.291.291 0 0 0-.291-.261h-.093V5.061a66.9 66.9 0 0 0 6.746.789v.086a.123.123 0 0 0 .104.122l.338.055a.12.12 0 0 1 .034.011l.191.092a.124.124 0 0 1 .055.054l.136.268.009.023.076.274a.123.123 0 0 0 .121.09h.016v1.622h-.067a.128.128 0 0 0-.126.118l-.039.475-.22.299h1.1l-.253-.299-.05-.48a.128.128 0 0 0-.127-.11h-.038V6.921h.033a.124.124 0 0 0 .117-.094l.062-.267.006-.02.11-.273a.128.128 0 0 1 .091-.074l.287-.056h.018l.169-.006a.123.123 0 0 0 .119-.124v-.04c.801.03 1.563.045 2.294.045m-3.079 5.915v-.88l-.087-.379a.301.301 0 0 1-.22.122l-.006.733.069.076v.452Zm-.312.159.046-.023v-.446l-.046-.053Zm.448-.203-.448.236v.321a.486.486 0 0 0 .448-.557m-.448.576v.23l.291-.013.26-.055.232-.419-.322-.145a.465.465 0 0 1-.461.402m.465-.585v.166l.33.149s.057-.101.064-.11l-.299-.253Zm.079-.354.031.299s.282.244.289.247 0-.201 0-.201Zm-.213-.425v.821l.196-.097Zm.108-.425h-.196l.308 1.149Zm.42 1.041a1.5 1.5 0 0 1-.147-.23 2.62 2.62 0 0 1-.238-.811l.069.832.33.342a1 1 0 0 0-.014-.133m-1.092-1.041-.087.38v.88l.246.125v-.452l.069-.076-.006-.733a.301.301 0 0 1-.222-.124m.179.956v.437l.046.023v-.522l-.046.053Zm.046.814v-.323l-.447-.236a.486.486 0 0 0 .447.559m-.461-.383-.322.145.232.419.26.055.291.013v-.23a.466.466 0 0 1-.461-.402m-.003-.183-.091-.043-.298.253c.006 0 .062.11.062.11l.33-.15Zm-.079-.354-.33.345a1.8 1.8 0 0 0 .006.201c.007 0 .289-.247.289-.247Zm.212-.425-.196.724.196.097Zm-.108-.425-.112 1.149.309-1.149Zm-.42 1.041a1 1 0 0 0-.01.133l.33-.342.07-.832a2.68 2.68 0 0 1-.238.811 1.54 1.54 0 0 1-.152.23m1.436-1.531h-1.142l.05.463h1.049ZM14.177 10h1.251v.152h-1.251Zm.043-.186h1.163v.16H14.22Zm.023-.343h1.107v.308h-1.107Zm-12.052.998v-.88l-.09-.377a.3.3 0 0 1-.22.123l-.007.731.069.077v.451Zm-.313.159.047-.024v-.444l-.047-.054Zm.449-.202-.449.235v.323a.486.486 0 0 0 .449-.558M1.881 11v.231l.291-.013.26-.055.232-.418-.323-.146a.462.462 0 0 1-.46.401m.463-.585v.167l.33.15s.057-.101.063-.11l-.307-.25Zm.079-.352.031.298s.281.244.289.246 0-.201 0-.201Zm-.214-.426v.822l.196-.098Zm.108-.425h-.196l.308 1.149Zm.42 1.041a1.5 1.5 0 0 1-.147-.23 2.63 2.63 0 0 1-.238-.811l.07.832.33.342a1 1 0 0 0-.015-.133M1.645 9.212l-.087.38v.88l.247.126v-.451l.069-.077v-.732a.301.301 0 0 1-.229-.126m.179.955v.437l.047.024v-.522l-.047.054Zm.047.817v-.323l-.448-.235a.485.485 0 0 0 .448.558m-.461-.385-.323.146.233.418.259.055.292.013V11a.464.464 0 0 1-.461-.401m-.004-.184-.091-.043-.298.254c.007 0 .063.11.063.11l.33-.149Zm-.075-.352-.33.343a1.8 1.8 0 0 0 .006.201c.007 0 .288-.246.288-.246Zm.209-.426-.196.724.196.098Zm-.108-.425-.112 1.149.309-1.149Zm-.42 1.041a1 1 0 0 0-.011.133l.33-.342.069-.832a2.7 2.7 0 0 1-.238.811 1.54 1.54 0 0 1-.15.23m1.435-1.531H1.305l.051.462h1.048Zm-1.193-.18h1.25v.151h-1.25Zm.042-.185h1.163v.159H1.296Zm.024-.344h1.106v.308H1.32Zm6.091 5.848v-2.004l-.199-.869a.686.686 0 0 1-.502.281l-.013 1.673.158.174-.008 1.032Zm-.714.364.105-.054v-1.017l-.105-.122Zm1.023-.465-1.023.539v.738A1.11 1.11 0 0 0 7.72 13.76m-1.023 1.32v.526l.66-.029.593-.125.531-.958-.737-.33a1.06 1.06 0 0 1-1.047.916m1.062-1.341-.009.381.753.342s.131-.231.146-.242l-.682-.58Zm.18-.807.073.682s.643.558.66.564a4.2 4.2 0 0 0 .014-.459Zm-.486-.973v1.879l.449-.224Zm.246-.971h-.448l.705 2.626Zm.962 2.38a3.4 3.4 0 0 1-.339-.527 6.1 6.1 0 0 1-.543-1.853l.159 1.903.745.781a2.3 2.3 0 0 0-.022-.304m-2.497-2.38-.199.869v2.004l.563.287-.007-1.032.158-.174-.015-1.673a.686.686 0 0 1-.5-.281m.409 2.185v.998l.106.054v-1.193l-.106.122Zm.106 1.866v-.738l-1.024-.539a1.111 1.111 0 0 0 1.024 1.277m-1.053-.881-.738.33.532.958.593.126.66.028v-.52a1.06 1.06 0 0 1-1.047-.922m-.006-.419-.207-.099-.682.58c.014.011.145.242.145.242l.753-.342Zm-.184-.807-.746.787a4.2 4.2 0 0 0 .014.459c.016-.006.66-.564.66-.564Zm.487-.973-.449 1.655.449.224Zm-.246-.971-.257 2.626.705-2.626Zm-.963 2.38a2.3 2.3 0 0 0-.021.304l.745-.781.159-1.903a6.06 6.06 0 0 1-.55 1.853 3.4 3.4 0 0 1-.333.527m3.282-3.501H5.387l.115 1.058h2.396Zm-2.728-.41h2.859v.347H5.268Zm.097-.424h2.658v.363H5.365Zm.055-.786h2.53v.705H5.42Zm14.26 11.839v-2.64l-.262-1.144a.904.904 0 0 1-.659.368l-.019 2.2.208.231-.01 1.359Zm-.939.478.138-.071v-1.34l-.138-.16Zm1.348-.609-1.348.709v.972a1.463 1.463 0 0 0 1.348-1.681m-1.348 1.73v.693l.88-.037.781-.166.699-1.261-.971-.44a1.396 1.396 0 0 1-1.389 1.211m1.399-1.765-.012.502.99.45s.172-.303.19-.318l-.897-.763Zm.237-1.058.095.897s.848.736.869.744a5.5 5.5 0 0 0 .019-.605Zm-.641-1.282v2.475l.591-.296Zm.325-1.278h-.591l.929 3.457Zm1.266 3.134a4.54 4.54 0 0 1-.44-.693 8 8 0 0 1-.716-2.441l.209 2.505.981 1.028a3 3 0 0 0-.034-.399m-3.288-3.134-.262 1.144v2.64l.742.377-.01-1.358.208-.231-.019-2.2a.904.904 0 0 1-.659-.372m.539 2.876v1.315l.139.071v-1.571l-.139.16Zm.139 2.458v-.972l-1.349-.709a1.462 1.462 0 0 0 1.349 1.681m-1.386-1.16-.973.44.702 1.259.781.166.88.037v-.693a1.395 1.395 0 0 1-1.39-1.209m-.012-.556-.274-.129-.899.763c.02.015.191.318.191.318l.99-.45Zm-.239-1.058-.982 1.036a5.5 5.5 0 0 0 .018.605c.021-.008.869-.744.869-.744Zm.641-1.282-.59 2.179.59.296Zm-.324-1.278-.338 3.457.928-3.457Zm-1.266 3.134a3 3 0 0 0-.029.399l.98-1.028.21-2.505a8.03 8.03 0 0 1-.716 2.441 4.54 4.54 0 0 1-.445.693m4.321-4.61h-3.436l.15 1.392h3.158Zm-3.593-.541h3.765v.457h-3.765Zm.129-.557h3.5v.479h-3.5Zm.071-1.036h3.332v.928h-3.332Z"/></svg>