<svg xmlns="http://www.w3.org/2000/svg" viewBox="0 0 24 24"><path fill="#44739e" d="m15.018 7.871-.226 9.667 7.977-1.218L23 6.957Zm-3.974 5.155a2.9 2.9 0 0 0 .33-.309c.038-.044.139-.148.22-.229.173-.168.22-.22.22-.232a.018.018 0 0 0-.017-.007 1.3 1.3 0 0 0-.152.053l-.08.032a1.18 1.18 0 0 0-.318.181l-.09.071-.12.095c-.062.05-.22.185-.283.239-.092.082-.142.123-.199.17a1.24 1.24 0 0 0-.377.389.43.43 0 0 0 .021.231c.014.02.052 0 .094-.036a1 1 0 0 0 .068-.086 1 1 0 0 1 .086-.103 2.1 2.1 0 0 1 .248-.192 1.1 1.1 0 0 0 .097-.071 1.3 1.3 0 0 1 .116-.093Zm-2.373 2.695.059.01.063.01.062.01.063.008.063.01.064.01.102.015c.043.007.092.014.11.015l.099.01.237.022c.034 0 .071.005.081.008a.2.2 0 0 0 .037 0 .92.92 0 0 1 .205.047.634.634 0 0 1 .206.209c.17.244.252.314.389.33.085.011.11 0 .055-.033a.77.77 0 0 1-.22-.22 1.78 1.78 0 0 0-.271-.371.55.55 0 0 0-.154-.093 1.5 1.5 0 0 0-.229-.038l-.075-.002-.175-.02c-.032 0-.11-.012-.155-.016a8 8 0 0 1-.457-.072l-.11-.021c-.165-.032-.36-.077-.429-.1s-.063-.022-.069-.064-.009-.037-.017-.037-.079.07-.11.122a.16.16 0 0 0 0 .11 2.3 2.3 0 0 0 .576.141m-.485-.448a.246.246 0 0 0-.11-.04 3 3 0 0 0-.355-.017c-.061 0-.212 0-.255-.007l-.099-.005-.141-.008h-.11a9.6 9.6 0 0 1-.608-.051l-.076-.017a1.6 1.6 0 0 1-.429-.099c0-.013-.027 0-.053.023a.083.083 0 0 0-.033.057c0 .028 0 .034.008.052s.023.023.068.04a2.75 2.75 0 0 0 .386.077l.066.008.073.008.099.011.204.017.085.005c.035 0 .084 0 .11.007h.118c.041 0 .104.005.144.005h.43a.6.6 0 0 1 .159.023.9.9 0 0 1 .074.045.24.24 0 0 0 .061.032c.009 0 .036-.024.11-.098.056-.029.075-.052.074-.068m.198-.714.168-.022.158-.021.173-.023c.169-.023.286-.043.33-.054.103-.028.253-.128.251-.168s-.069-.124-.25-.33a1.03 1.03 0 0 0-.147-.15 1.1 1.1 0 0 0-.136 0 1.43 1.43 0 0 1-.37-.016l-.1-.014-.099-.019a.8.8 0 0 0-.083-.014l-.144-.019a.8.8 0 0 0-.201 0 3.6 3.6 0 0 0-.492.276c-.079.052-.274.171-.367.226-.076.044-.12.068-.31.167l-.12.064-.063.035c-.171.091-.22.124-.22.152 0 0 .006.009.016.011h.195a.88.88 0 0 1 .186.011.14.14 0 0 0 .04 0h.017s-.017.037-.041.037a.297.297 0 0 0-.169.068.16.16 0 0 0-.046.08c0 .019.037.043.098.063a.63.63 0 0 0 .3.022 4 4 0 0 0 .403-.047c.185-.028.268-.038.363-.044s.253-.023.399-.043l.389-.054.156-.022a.63.63 0 0 0 .192-.043c.009-.015-.014-.019-.124-.017-.079 0-.172.006-.319.019-.484.044-1.036.074-1.144.062l-.07-.007-.086-.007-.177-.021a.14.14 0 0 1-.061-.009 4.2 4.2 0 0 1 .522-.035c.379-.022.556-.039.983-.094m.047-.891.074.013.062.011.07.013a.94.94 0 0 0 .195.017.43.43 0 0 0 .158-.039.1.1 0 0 0 .04-.061c0-.03-.11-.079-.257-.117a1 1 0 0 0-.191-.03.8.8 0 0 0-.079 0 .55.55 0 0 0-.129.043l-.059.027a.74.74 0 0 0-.136.07c-.013.016 0 .025.04.028.096.01.137.014.152.018Zm.737-.575a1.76 1.76 0 0 0 .296-.008c.024-.011.047-.031.042-.037a2.7 2.7 0 0 0-.394-.11.4.4 0 0 0-.082.014l-.11.028a.9.9 0 0 0-.22.079c-.087.043-.172.119-.151.134s.041 0 .11-.029a.48.48 0 0 1 .151-.038.286.286 0 0 1 .104.079v.017a1.36 1.36 0 0 1-.268.005 1.6 1.6 0 0 0-.321.022.264.264 0 0 0-.122.075c-.043.055-.024.063.154.057h.195c.115 0 .18 0 .22.008l.101.006c.036 0 .077.006.089.008l.096.013a.76.76 0 0 1 .427.147.8.8 0 0 0 .088.057.07.07 0 0 0 .036-.007c.047-.021.05-.09 0-.143a.56.56 0 0 0-.166-.117c-.047-.024-.051-.027-.041-.033a1.4 1.4 0 0 0 .21-.175 1.3 1.3 0 0 1 .099-.093c.01 0 .042.029.098.087.028.029.067.065.087.082.038.028.04.029.063.025s.044-.023.052-.063 0-.077-.055-.147-.048-.074-.25-.214c-.047-.032-.042-.037.055-.042s.116-.011.115-.024a.22.22 0 0 0-.088-.059.94.94 0 0 0-.147-.03l-.061-.01c-.02 0-.059-.009-.083-.011a.44.44 0 0 1-.066-.012l-.041-.012a.194.194 0 0 0-.144.042.63.63 0 0 1-.139.06.95.95 0 0 0-.231.131.066.066 0 0 0-.019.032c0 .014 0 .016.012.014a.66.66 0 0 0 .121-.034l.06-.017c.024-.006.075-.02.132-.037.012 0 .044-.012.068-.019.074-.025.09-.023.141.007l.048.029.073.049a.6.6 0 0 1 .166.144.042.042 0 0 1-.021.016.8.8 0 0 0-.08.052c-.034.024-.081.056-.11.07a1.4 1.4 0 0 0-.154.11c-.021.022-.036.021-.088 0a2 2 0 0 1-.227-.147.011.011 0 0 1 0-.013.55.55 0 0 1 .17-.018m1.091-.671a.055.055 0 0 0-.02-.025c-.04-.027-.056-.029-.181-.029s-.166 0-.228-.041a.22.22 0 0 0-.103-.028.13.13 0 0 0-.057.029.264.264 0 0 1-.118.054.88.88 0 0 0-.172.065c-.138.068-.196.11-.189.133s.022.017.088-.01a.7.7 0 0 1 .09-.03l.072-.019a1.9 1.9 0 0 1 .191-.033l.066-.012.038.012a1.4 1.4 0 0 1 .136.091c.093.068.143.11.144.129a.33.33 0 0 1-.048.056.385.385 0 0 0-.093.13c0 .018.017.034.039.029a.7.7 0 0 0 .142-.172c0-.009.007-.009.018 0a.53.53 0 0 1 .124.121c.05.06.095.098.117.097a.063.063 0 0 0 .028-.021c.015-.02.015-.025.01-.064a.28.28 0 0 0-.014-.063 1.1 1.1 0 0 0-.089-.137.14.14 0 0 1-.022-.033.22.22 0 0 1 .039-.043c.021-.02.065-.067.099-.103.087-.093.092-.097.11-.099s.033.016.134.117c.032.031.067.064.08.074.051.035.098.027.116-.021a.055.055 0 0 0 0-.051.396.396 0 0 0-.11-.136 1 1 0 0 1-.056-.053l.021-.011a.22.22 0 0 0 .039-.024l.068-.054a2 2 0 0 0 .22-.22c.029-.047 0-.078-.047-.05-.025.018-.144.11-.178.135-.073.059-.204.16-.21.16a2.5 2.5 0 0 1-.227-.125c-.13-.084-.144-.101-.11-.13a.9.9 0 0 0 .065-.077l.06-.074c.058-.067.061-.074.044-.088a.31.31 0 0 0-.14.015c-.053.018-.074.039-.11.121a.44.44 0 0 1-.041.071.24.24 0 0 1-.055.019l-.239.067a.4.4 0 0 0-.079.031c-.06.035-.13.116-.095.11s.145-.026.249-.051.104-.022.163.016c.02.012.068.036.11.053a1.54 1.54 0 0 1 .256.135c.025.019.021.029-.016.049a.9.9 0 0 0-.11.095c-.05.046-.091.082-.095.083a.58.58 0 0 1-.11-.089c-.016-.018-.022-.027-.016-.032a.44.44 0 0 1 .086-.016c.088-.007.117-.016.116-.033m-.383-.578c-.006.026-.006.03 0 .042a.05.05 0 0 0 .062 0 .5.5 0 0 0 .054-.042.85.85 0 0 1 .245-.148.22.22 0 0 1 .11-.012.2.2 0 0 0 .042.011.3.3 0 0 1 .062.018l.029.013.045.017.053.022a.6.6 0 0 1 .054.023l.077.031.101.04c.022.01.063.026.09.036a1.76 1.76 0 0 1 .259.117.7.7 0 0 0 .079.041.098.098 0 0 0 .119-.03c.009-.017.009-.02 0-.043-.027-.06-.066-.084-.295-.193a2.4 2.4 0 0 0-.356-.146.82.82 0 0 0-.401-.067.8.8 0 0 1-.11 0 .77.77 0 0 1 .119-.084.46.46 0 0 1 .16-.066.3.3 0 0 1 .079.023.7.7 0 0 0 .065.023h.017c.016 0 .084.027.122.037s.105.03.258.083a.66.66 0 0 0 .232.062.136.136 0 0 0 .12-.094c0-.016 0-.019-.023-.034a.95.95 0 0 0-.197-.068c-.11-.031-.122-.034-.261-.079l-.097-.03c-.072-.02-.083-.023-.083-.03s.057-.036.22-.089c.102-.033.164-.052.234-.073a1.87 1.87 0 0 0 .421-.171c.043-.027.052-.038.051-.062s-.011-.031-.035-.045a.143.143 0 0 0-.083-.007.8.8 0 0 0-.092.037 1 1 0 0 1-.22.069 1.7 1.7 0 0 0-.193.06l-.239.09-.153.062a.33.33 0 0 1-.27.029l-.074-.019a2.1 2.1 0 0 1-.286-.101c-.042-.023-.06-.024-.074 0s.01.093.061.127a1.13 1.13 0 0 0 .209.092c.065.025.085.034.085.041a.33.33 0 0 1-.062.055c-.061.045-.099.086-.098.11a.15.15 0 0 0 .026.04.09.09 0 0 1 .024.039.33.33 0 0 1-.068.05c-.133.067-.197.132-.214.193m1.36-2.313a1.35 1.35 0 0 0-.233-.052c-.052-.006-.072-.007-.174-.015a.8.8 0 0 0-.267.022c-.034.01-.076.045-.07.057s.016.009.073 0c.093-.007.275-.009.364 0a1.7 1.7 0 0 1 .172.014l.095.012a1.2 1.2 0 0 1 .138.019h.011s-.02-.02-.048-.03Zm.627.317a.43.43 0 0 0-.173.011.73.73 0 0 0-.169.079.77.77 0 0 0-.157.159 1.155 1.155 0 0 0-.158.449l-.012.062c0 .022-.012.066-.016.099s-.012.07-.015.085a.8.8 0 0 0-.011.121c0 .018.025.033.051.031.059 0 .067-.016.094-.157 0-.023.011-.05.013-.061l.012-.051c.013-.055.023-.099.027-.124a.715.715 0 0 1 .261-.511.4.4 0 0 1 .047-.028l.037-.016a1 1 0 0 1 .126-.047.055.055 0 0 0 .042-.035c.015-.033.015-.061.001-.066m.861 2.572c.037-.019.034-.03-.01-.054a.74.74 0 0 0-.25-.073 1.46 1.46 0 0 0-.297.028c-.029.007-.08.017-.11.024a.45.45 0 0 0-.185.069l-.098.053c-.11.056-.186.119-.184.147s.024.025.125-.006l.053-.017c.06-.017.11-.033.148-.047a.62.62 0 0 1 .145-.041c.028 0 .029 0 .251.164a1.2 1.2 0 0 1 .22.179.077.077 0 0 1-.02.037 1.5 1.5 0 0 0-.069.09c-.07.1-.104.138-.122.141s-.026 0-.065-.036l-.089-.074c-.078-.062-.078-.074 0-.065a.53.53 0 0 0 .22 0c.019-.008.024-.014.014-.025a1.54 1.54 0 0 0-.242-.121.63.63 0 0 0-.163-.03l-.092-.009a.4.4 0 0 1-.089-.022.194.194 0 0 0-.088-.015.36.36 0 0 0-.142.045l-.153.082c-.073.039-.117.082-.099.095a.56.56 0 0 0 .182-.031c.027-.008.069-.02.094-.025.043-.01.046-.01.073 0a3.1 3.1 0 0 1 .353.242c.11.087.131.103.131.11s-.059.066-.131.138c-.127.127-.193.184-.22.186a.63.63 0 0 1-.176-.125.73.73 0 0 1 .125-.017 1.4 1.4 0 0 0 .139-.017c.022-.008.057-.034.056-.042s-.048-.027-.088-.034c-.02 0-.096-.006-.17-.006-.153 0-.161 0-.243-.046s-.13-.079-.122-.087a1.76 1.76 0 0 1 .33-.049c.131-.012.16-.017.159-.023s-.02-.018-.044-.03l-.093-.048a.165.165 0 0 0-.138-.021l-.23.038a.52.52 0 0 0-.33.131.09.09 0 0 0-.027.034.032.032 0 0 0 .038.021.33.33 0 0 1 .09-.013.11.11 0 0 1 .041.03.7.7 0 0 0 .048.046l.053.044c.017.013.069.055.116.09a.4.4 0 0 1 .082.072c0 .008-.022.007-.152-.01l-.15-.02-.09-.01-.122-.012-.122-.012c-.189-.02-.22-.019-.245.005a.12.12 0 0 0-.044.067c0 .014.012.025.035.036a2.5 2.5 0 0 0 .347.05l.095.012.069.008c.082.01.241.034.298.046l.083.014a1.7 1.7 0 0 1 .33.088.67.67 0 0 1 .213.11c.04.029.049.032.072.03s.071-.019.078-.037a.12.12 0 0 0-.021-.09 1.13 1.13 0 0 0-.187-.145.13.13 0 0 1-.033-.023s.01-.01.022-.015a1.5 1.5 0 0 0 .282-.301.03.03 0 0 1 .021-.017.77.77 0 0 1 .167.125c.057.052.087.07.117.069s.046-.014.041-.073-.013-.077-.099-.165a.44.44 0 0 1-.057-.066.1.1 0 0 1 .022-.032.2.2 0 0 0 .031-.036l.048-.069a.4.4 0 0 0 .071-.138c0-.007 0-.012.008-.012a.6.6 0 0 1 .139.135c.058.072.08.089.11.087s.04-.014.056-.042a.29.29 0 0 0-.013-.147.33.33 0 0 0-.09-.13c-.052-.051-.065-.066-.066-.079a.26.26 0 0 1 .047-.057 1.26 1.26 0 0 0 .195-.267.17.17 0 0 1 .016-.026c.01-.005.055.033.12.101.101.11.124.118.172.089.029-.018.034-.03.032-.084a.11.11 0 0 0-.023-.077.48.48 0 0 0-.098-.11.4.4 0 0 1-.048-.051s.006-.008.015-.011a2.3 2.3 0 0 0 .225-.228c.016-.023.009-.033-.019-.032s-.03.009-.072.048-.079.066-.11.093-.068.054-.075.061-.032.017-.043 0-.008-.016 0-.031a.073.073 0 0 0 .029-.054c0-.025-.012-.026-.153-.015a.366.366 0 0 1-.209-.014c-.043-.012-.068-.029-.07-.046s.008-.021.044-.048.053-.042.11-.172a.66.66 0 0 1 .079-.135c.015-.017.008-.021-.04-.025a.9.9 0 0 0-.11 0c-.077 0-.091.011-.12.047a.5.5 0 0 0-.057.11.3.3 0 0 1-.014.04.6.6 0 0 0-.014.062l-.007.05-.032.012-.086.03c-.031.011-.073.027-.095.037a.3.3 0 0 1-.045.02.15.15 0 0 0-.037.016l-.036.016a1.3 1.3 0 0 0-.157.1c-.048.039-.066.061-.068.086v.018h.035a.26.26 0 0 0 .067-.013c.054-.019.152-.057.185-.073a.33.33 0 0 1 .049-.019l.022-.01a.3.3 0 0 1 .041-.018.6.6 0 0 0 .057-.021.04.04 0 0 1 .051.008.5.5 0 0 0 .121.063 2.1 2.1 0 0 1 .356.162c.007.008.006.01-.007.019a1.54 1.54 0 0 0-.166.165c-.019.023-.045.061-.06.083a.13.13 0 0 1-.035.044.74.74 0 0 1-.17-.089c-.11-.072-.136-.096-.11-.11.005 0 .078-.009.16-.015.149-.003.162-.005.187-.017m1.605-2.724a.66.66 0 0 0-.337.382 1.25 1.25 0 0 0-.062.288c0 .014-.008.055-.011.089s-.008.078-.01.098a1.45 1.45 0 0 0-.008.292.058.058 0 0 0 .027.047c.012.008.019.018.015.021a.4.4 0 0 1-.067.018l-.11.024-.083.02-.091.02-.096.021a.4.4 0 0 0-.049.011l-.052.012a7 7 0 0 0-.292.069l-.074.019-.065.019-.054.019-.066.02a.21.21 0 0 1-.11.007l-.102-.026-.087-.022-.131-.033h-.019a1.3 1.3 0 0 1-.15-.051.77.77 0 0 1-.154-.08c-.067-.042-.081-.043-.085 0a.169.169 0 0 0 .057.146.49.49 0 0 0 .22.116l.073.023.077.024a1.3 1.3 0 0 1 .185.07c.007.009-.008.021-.055.045a1.54 1.54 0 0 0-.358.232.242.242 0 0 0-.058.159c0 .038 0 .046.011.048s.077-.026.148-.093a.9.9 0 0 1 .128-.089s.036-.02.075-.044c.094-.058.171-.102.208-.119l.029-.014.087.024c.046.014.1.028.118.032s.047.011.066.017l.087.026.159.044a1.65 1.65 0 0 0 .22.056c.05.01.096.021.104.023s.122.026.212.043a.26.26 0 0 0 .145-.019c.049-.025.059-.036.054-.061s-.007-.024-.031-.036a1.03 1.03 0 0 0-.2-.061 8 8 0 0 1-.2-.054l-.089-.025-.12-.035-.078-.022-.046-.013-.133-.035c-.062-.016-.12-.033-.129-.036-.027-.013-.02-.016.099-.054.058-.019.152-.044.232-.063l.077-.018.152-.033c.086-.016.259-.054.303-.065l.081-.018a1 1 0 0 0 .077-.02l.097-.026a.56.56 0 0 0 .283-.136c.037-.039.03-.068-.016-.085a.176.176 0 0 0-.141.018.83.83 0 0 1-.199.056s0-.011.012-.022a.08.08 0 0 0 .014-.028.2.2 0 0 1 0-.03.9.9 0 0 0 .011-.09c0-.04.008-.086.01-.105s0-.049 0-.069a2.04 2.04 0 0 1 .043-.373.51.51 0 0 1 .253-.356.5.5 0 0 1 .281-.042.9.9 0 0 1 .133.025v-.117a.94.94 0 0 0-.167-.03.61.61 0 0 0-.278.025m-1.703-.363c.026-.008.074-.021.11-.028l.097-.023a5.3 5.3 0 0 1 .55-.036 2.67 2.67 0 0 1 .54.083h.019a1.17 1.17 0 0 1 .252.1.05.05 0 0 0 .022.01c.019 0 0-.019-.045-.052a.48.48 0 0 0-.151-.069 2 2 0 0 0-.11-.037l-.152-.039a.6.6 0 0 0-.061-.014.08.08 0 0 1-.021 0 3.3 3.3 0 0 0-.398-.059l-.096-.008a1.76 1.76 0 0 0-.473.048.11.11 0 0 1-.031.007.275.275 0 0 0-.102.056.1.1 0 0 0-.039.072c0 .01 0 .011.026.007s.039-.01.063-.018m1.404 3.609c-.032-.012-.046-.014-.045-.006a4.1 4.1 0 0 0 .41.27l.054.028c.024.011.057.028.074.038s.029.016.032.008-.042-.054-.181-.142a3.2 3.2 0 0 0-.344-.196m.604-.573-.184-.038c-.067-.015-.11-.018-.11-.009a1.07 1.07 0 0 0 .171.061l.151.047.055.018v-.058Zm-1.376-.494a.68.68 0 0 1 .22.093l.059.036a1.1 1.1 0 0 0 .127.066.101.101 0 0 0 .09-.009.092.092 0 0 0-.013-.102.66.66 0 0 0-.2-.131 1.12 1.12 0 0 0-.236-.085l-.094-.025-.056-.017-.054-.014c-.07-.018-.203.037-.2.083 0 .018.032.044.062.052a2.4 2.4 0 0 0 .295.053m.808.436c0-.019-.007-.02-.046-.011l-.065.014a.53.53 0 0 0-.193.087 1.26 1.26 0 0 0-.301.342c-.095.14-.238.33-.33.429l-.051.06c-.007 0-.182.205-.22.25-.062.074-.155.196-.183.238-.067.102-.077.13-.071.208s.007.071.05.11a1.09 1.09 0 0 0 .403.141l.162.039c.007 0 .036.01.063.017l.093.021c.038.01.237.051.289.061l.059.009a.76.76 0 0 0 .603-.11.87.87 0 0 0 .301-.309.138.138 0 0 0 .016-.101.14.14 0 0 0-.023-.089.57.57 0 0 0-.099-.11l-.075-.062-.1-.082c-.023-.019-.187-.142-.364-.273s-.33-.246-.33-.253-.019-.033-.007-.066c.032-.099.11-.177.17-.171a.62.62 0 0 1 .183.077c.119.062.201.11.363.204.101.058.247.147.26.158l.079.053.012-.55a13.5 13.5 0 0 0-.59-.289c-.042-.021-.053-.029-.058-.042m-2.417 1.545c-.037.02-.048.036-.046.065s.011.05.079.103a.385.385 0 0 0 .182.083.207.207 0 0 0 .133 0c.044-.019.024-.026-.076-.031a.297.297 0 0 1-.181-.045.122.122 0 0 1-.057-.147.08.08 0 0 0 0-.035c-.001-.009-.006-.007-.034.007m-1.163-.007.089.016.086.016.067.012.056.011.056.01.056.009.059.01.06.01a1.23 1.23 0 0 0 .256.017.36.36 0 0 0 .169-.039c.036-.027.049-.039.049-.046s-.071-.043-.235-.093a1.82 1.82 0 0 0-.416-.097.9.9 0 0 0-.128 0 .245.245 0 0 0-.132.022c-.067.031-.16.103-.159.124s.007.01.018.012Zm3.729 1.038a1 1 0 0 1-.074.043c-.001 0-.038.022-.082.049-.119.072-.211.124-.346.191-.158.079-.263.129-.316.149l-.069.028a1.1 1.1 0 0 1-.169.056c-.029 0-.066-.019-.162-.087a4.6 4.6 0 0 0-.427-.283.796.796 0 0 0-.33-.124.56.56 0 0 0-.178 0c-.06.006-.135.014-.166.021-.276.049-.47.079-.641.098s-.751.067-.956.078a4.95 4.95 0 0 1-.67.014c-.099-.005-.123-.008-.128-.017s.031-.009.136-.017c.075 0 .178-.013.226-.02s.211-.024.361-.038.316-.032.367-.04l.198-.023c.355-.042.448-.054.624-.078l.152-.024.132-.023.136-.023a2.1 2.1 0 0 1 .395-.038 1.5 1.5 0 0 1 .33.059l.04.012c.045.012.089.026.16.049s.092.03.153.049a1.3 1.3 0 0 0 .145.037.506.506 0 0 0 .456-.077.74.74 0 0 0 .22-.237c0-.012-.047-.035-.1-.051l-.074-.022-.076-.023-.068-.02a11 11 0 0 0-.236-.064l-.077-.023-.091-.022c-.041-.01-.087-.02-.1-.024l-.069-.017-.186-.043-.087-.019-.096-.022a4.3 4.3 0 0 0-.431-.08.887.887 0 0 1-.454-.149l-.072-.046-.13.008a1.6 1.6 0 0 1-.461-.029l-.099-.019-.086-.017-.117-.023-.11-.021a2.3 2.3 0 0 0-.236-.028l-.076-.007a.77.77 0 0 0-.198.136 8.1 8.1 0 0 1-.722.517c-.031.018-.069.041-.085.052l-.038.026-.064.037c-.071.042-.08.047-.192.11a1.045 1.045 0 0 0-.349.241c-.02.031-.018.041.016.066a1.14 1.14 0 0 0 .471.169l.061.011a.4.4 0 0 0 .049.007l.095.01a2.86 2.86 0 0 0 .631-.008c.228-.022.44-.047.66-.077l.182-.024.183-.024c.05-.008.126-.018.169-.022l.195-.028.178-.025.116-.019c.163-.029.29-.049.428-.068a.594.594 0 0 1 .287 0 2.86 2.86 0 0 1 .531.297l.177.11c.039.024.043.029.033.035a1.5 1.5 0 0 1-.208.069l-.138.037-.097.026-.071.017-.1.02c-.033.007-.078.016-.1.019l-.081.017c-.077.018-.118.025-.206.04l-.13.023-.1.015c-.062.007-.143.018-.312.043s-.589.067-.964.099c-.11.009-.213.02-.22.022s-.022.023.006.065a.22.22 0 0 0 .171.11 1.5 1.5 0 0 0 .397-.007 12.1 12.1 0 0 0 1.296-.148c.11-.018.123-.021.193-.035l.104-.02c.051-.01.123-.027.238-.053s.15-.037.354-.097c.062-.017.206-.063.237-.074l.199-.063.051-.017c.038-.012.167-.058.186-.066l.072-.028a3.96 3.96 0 0 0 .544-.261c.087-.054.147-.095.318-.22l.007-.364c-.1.062-.248.153-.249.153s-.051.037-.196.126m.286.426a.25.25 0 0 0-.039.022 3.7 3.7 0 0 1-.33.185l-.149.073-.038.016c-.11.053-.421.17-.585.22l-.144.046c-.102.032-.164.051-.225.066s-.121.031-.174.043l-.087.02-.087.019-.087.019-.103.021-.132.026c-.118.024-.258.048-.344.06-.311.045-.374.053-.649.082-.086.009-.3.026-.479.037-.229.014-.33.022-.33.026s.075.066.125.083a2.07 2.07 0 0 0 .485.037 6.4 6.4 0 0 0 .669-.022 7.4 7.4 0 0 0 .793-.085c.167-.025.206-.032.43-.078.07-.014.191-.042.268-.06l.183-.043c.094-.022.248-.062.286-.075l.042-.011.042-.011.062-.019.057-.017.055-.018a2.78 2.78 0 0 0 .586-.251l.049-.038.009-.456a.37.37 0 0 0-.094.047.55.55 0 0 1-.065.036m7.31-8.413L8.678 6.441l-6.168.493 12.411.754Zm-7.924 9.503-.067.022c-.016 0-.078.023-.139.038l-.132.038-.147.038-.148.038a4.6 4.6 0 0 1-.551.103 1.17 1.17 0 0 0-.229.045c-.086.024-.11.032-.193.048l-.11.02c-.042.009-.101.019-.23.039-.035 0-.071.011-.081.013l-.097.016-.158.02c-.043 0-.138.018-.212.026s-.167.023-.208.032c-.096.021-.137.028-.22.041l-.11.019c-.026 0-.103.017-.171.026l-.198.027c-.349.05-1.228.116-1.54.11-.074 0-.105 0-.25-.009a1.51 1.51 0 0 1-.51-.098c-.086-.037-.13-.079-.134-.131s.025-.092.11-.178a1.56 1.56 0 0 1 .322-.24.42.42 0 0 0 .074-.051c0-.007-.036-.019-.096-.032s-.094-.022-.139-.035l-.038-.011-.074-.032-.073-.032-.098.025c-.173.026-.387.056-.615.085-.161.02-.753.059-.872.058s-.238-.007-.273-.011a1.18 1.18 0 0 1-.291-.063l-3.85.382 12.463.77.028-1.152-.649-.036Zm-8.007-.194a1.2 1.2 0 0 1 .339-.291c.061-.038.06-.04-.033-.064a.53.53 0 0 1-.241-.11.242.242 0 0 1-.082-.146 1.72 1.72 0 0 1-.013-.466.18.18 0 0 1 .085-.11c.053-.033.058-.039.077-.089a.69.69 0 0 1 .316-.377c.02-.014.128-.072.24-.129.264-.135.308-.158.441-.233l.055-.03.042-.025.044-.025s.22-.127.357-.214c.305-.188.399-.26.452-.353l.034-.058c0-.008.019-.035.031-.061a.415.415 0 0 1 .197-.169 1.7 1.7 0 0 0 .174-.118l.103-5.646-7.26-.44L1 16.7l.953-.09 3.921-.389Zm4.887-2.822c.02 0 .11-.061.098-.069s-.06 0-.098.022-.03.049 0 .047m-.348-1.404c-.053.031-.119.103-.103.11a1.65 1.65 0 0 0 .348 0c.042-.009.075-.024.075-.035a.7.7 0 0 0-.162-.083c-.081-.029-.093-.029-.158.008M8.687 7.501l-.097 5.483.022-.019c.05-.042.11-.091.172-.143.012-.01.062-.047.11-.082a1.26 1.26 0 0 0 .22-.202.55.55 0 0 1 .11-.089 2.1 2.1 0 0 0 .259-.187.77.77 0 0 0 .133-.14 1.3 1.3 0 0 1 .083-.101.22.22 0 0 0 .079-.135.447.447 0 0 1 .127-.206c.095-.11.11-.137.1-.229a.169.169 0 0 0-.069-.145.33.33 0 0 1-.092-.135.156.156 0 0 1 0-.102.242.242 0 0 0 0-.159c-.016-.054-.033-.103-.049-.164l-.025-.081a1.76 1.76 0 0 1-.096-.44.33.33 0 0 1 .029-.207.22.22 0 0 1 .148-.115c.03 0 .029.012 0 .026a.22.22 0 0 0-.098.093.32.32 0 0 0-.027.144 2.9 2.9 0 0 0 .067.33c0 .013.014.046.022.073s.016.059.021.071.013.043.021.068.016.055.02.066.014.037.02.059a.57.57 0 0 0 .11.22.044.044 0 0 0 .071-.019.25.25 0 0 0-.01-.055 2 2 0 0 1-.02-.08l-.018-.066c-.005-.017-.015-.055-.022-.081a1 1 0 0 0-.022-.072l-.021-.068a1 1 0 0 0-.02-.065 1.08 1.08 0 0 1-.054-.401.17.17 0 0 1 .06-.094c.02-.013.028-.014.077-.015a.9.9 0 0 1 .12.007.6.6 0 0 0 .096 0c.026 0 .031 0 .032-.016a.023.023 0 0 0-.012-.021c-.017-.011-.015-.018.006-.02s.032-.025.05-.203c0-.02 0-.065.01-.098a.83.83 0 0 1 .027-.174.277.277 0 0 1 .164-.122l.045-.012a1.5 1.5 0 0 1 .281-.025 1.7 1.7 0 0 1 .203.013 1.1 1.1 0 0 1 .129.018 2.2 2.2 0 0 1 .28.071 1.43 1.43 0 0 1 .373.201.64.64 0 0 1 .138.151.15.15 0 0 1-.027.044.23.23 0 0 0-.056.11l-.018.066a1.4 1.4 0 0 0 .025.363 2.75 2.75 0 0 0 .118.371.7.7 0 0 1 .045.135c0 .028.024.048.072.068s.063.017.075 0a.19.19 0 0 0 0-.103 2.8 2.8 0 0 0-.058-.192 1.63 1.63 0 0 1-.092-.33.85.85 0 0 1-.017-.262.286.286 0 0 1 .065-.14c.018-.016.024-.017.076-.02a.6.6 0 0 1 .09 0c.11.01.158.007.171-.013s0-.022-.024-.036c-.095-.053-.12-.069-.12-.077s.017-.014.06 0a.12.12 0 0 0 .045 0c.026-.009.032-.055.028-.264a1.2 1.2 0 0 1 0-.159.277.277 0 0 1 .117-.193.63.63 0 0 1 .285-.11 3.6 3.6 0 0 1 .4-.022 3.1 3.1 0 0 1 .4.047l.059.011c.049.009.24.054.293.07a.95.95 0 0 1 .337.159.393.393 0 0 1 .171.243.09.09 0 0 0 .007.028.96.96 0 0 0 .168.037.77.77 0 0 1 .13.025l.041-1.791Zm.926 6.62c.011-.007 0-.027-.07-.102a3.2 3.2 0 0 0-.241-.24.6.6 0 0 1-.072-.076.204.204 0 0 1 .006-.161.04.04 0 0 0 0-.022.021.021 0 0 0-.013-.012c-.018 0-.066.046-.083.081a.131.131 0 0 0 .016.134 3.4 3.4 0 0 0 .402.389.056.056 0 0 0 .055.009m5.021 1.95.001-.008-.011.007Z"/></svg>