<svg xmlns="http://www.w3.org/2000/svg" viewBox="0 0 24 24"><path fill="#44739e" d="M12.574 9.607v.01l.017-.002.022.01v-.013l8.685-1.472.017-.002v-.28l-8.719 1.436L1.084 3.815l-.028-.013v.315l.281.135-.322.069.003.011L1 4.322l.218 10.167v.011l.399.2v-.012h.267l-.199-9.354.404-.724 8.084 3.852v4.548l.464.27.258-.081V8.807Zm-.501-.042v11.63l.501.249v.011l.017-.004.022.011v-.015l.319-.062-.075-10.809.981-.565 8.028-1.337.174.239-.134 10.291v.013l.587.24v.029l.023-.019.015.005v-.018l.224-.187.166-11.129v-.022L12.596 9.811Zm9.717-1.799-.135.303L23 7.84v-.258Zm-.106-.019 1.292-.181L10.34 2.54l-.004-.002-1.006.125 12.349 5.082Zm-9.135 1.455 8.749-1.404-12.167-5.06-.004-.001-8.119.985 11.535 5.476Z"/></svg>