<svg xmlns="http://www.w3.org/2000/svg" fill="#44739e" viewBox="0 0 24 24"><path d="M4.146 12.632a.24.24 0 0 0 .093.063l.029.012-.187.166L5.11 14.12l.307-.027.007.007 4.419 5.092 1.585-1.262-4.536-5.093.057-.373-1.091-1.174-.136.121-.005-.036v-.018a.26.26 0 0 0-.06-.114l-.871-.943a.251.251 0 0 0-.354-.014l-1.139 1.05a.25.25 0 0 0-.015.354Zm-.774-1.209 1.139-1.05a.132.132 0 0 1 .1-.035.133.133 0 0 1 .093.043l.867.941a.13.13 0 0 1 .035.1.133.133 0 0 1-.025.073.1.1 0 0 1-.018.019L4.42 12.56a.133.133 0 0 1-.188-.008l-.867-.941a.13.13 0 0 1-.032-.061.127.127 0 0 1 .039-.127m15.815-1.359a.248.248 0 0 0-.174.081l-.867.941a.246.246 0 0 0-.06.115v.053l-.135-.121-1.101 1.174.057.374-.006.006-4.53 5.086 1.585 1.263 4.426-5.1.307.027 1.029-1.246-.187-.167.03-.011a.25.25 0 0 0 .092-.064l.868-.941a.251.251 0 0 0-.014-.354l-1.14-1.05a.25.25 0 0 0-.18-.066m1.283 1.3a.2.2 0 0 1 0 .034.13.13 0 0 1-.032.061l-.868.942a.134.134 0 0 1-.1.043.136.136 0 0 1-.09-.035l-1.139-1.05a.13.13 0 0 1-.043-.093.136.136 0 0 1 .019-.074.12.12 0 0 1 .016-.021l.868-.942a.133.133 0 0 1 .188-.008l1.139 1.05a.135.135 0 0 1 .042.088zm-8.156 6.414.014-.015.865-.971 1.992-4.26.3-.058.648-1.48-.225-.109.025-.02a.24.24 0 0 0 .072-.086l.577-1.143a.25.25 0 0 0 .014-.191.246.246 0 0 0-.125-.145l-1.383-.7a.252.252 0 0 0-.337.111l-.576 1.143a.25.25 0 0 0-.027.126v.054l-.163-.079-.728 1.428.157.343v.009L10.8 17.161l.689.774-.3.239 1.139.475.294-.629zm1.968-7.869.577-1.143a.136.136 0 0 1 .053-.056.13.13 0 0 1 .024-.011.134.134 0 0 1 .1.008l1.383.7a.136.136 0 0 1 .067.078.2.2 0 0 1 .006.034.13.13 0 0 1-.014.067l-.578 1.14a.13.13 0 0 1-.077.067.15.15 0 0 1-.042.007.13.13 0 0 1-.06-.015l-1.383-.7a.134.134 0 0 1-.066-.078.13.13 0 0 1 .01-.098m-1.618 8.148-.014-.012-.253.541.265-.01zm-1.893-9.693a.244.244 0 0 0-.079.174l-.043 1.28a.26.26 0 0 0 .029.126l.009.015.02.031h-.182l-.061 1.6.287.247-.087 5.178.1.116 1.915-3.96.005-1.346.251-.18-.034-1.615-.251-.005.015-.028a.24.24 0 0 0 .029-.108l.043-1.28a.25.25 0 0 0-.067-.179.254.254 0 0 0-.175-.08l-1.544-.05a.25.25 0 0 0-.18.064m1.817.144a.11.11 0 0 1 .02.028.144.144 0 0 1 .016.067l-.043 1.28a.134.134 0 0 1-.133.129h-.005L10.9 9.959a.132.132 0 0 1-.093-.042.134.134 0 0 1-.036-.1l.043-1.28a.14.14 0 0 1 .043-.093.132.132 0 0 1 .095-.035l1.548.052a.13.13 0 0 1 .088.047m-1.95 10.101-.001.045 1.462-.057-.949-.396zM6.591 8.767a.25.25 0 0 0-.014.191l.4 1.215a.255.255 0 0 0 .071.108l.014.012.029.022-.171.06.5 1.522.354.132v.008l1.008 2.87 1.838 2.063.045-2.67-1.076-2.954.173-.256-.593-1.5-.236.083v-.031a.25.25 0 0 0-.011-.112l-.4-1.215a.25.25 0 0 0-.316-.159l-1.47.489a.247.247 0 0 0-.145.122m1.652-.5a.13.13 0 0 1 .1.007.1.1 0 0 1 .029.02.12.12 0 0 1 .038.057l.4 1.215a.135.135 0 0 1-.084.169l-1.47.488a.12.12 0 0 1-.042.007.14.14 0 0 1-.06-.014.13.13 0 0 1-.054-.056.3.3 0 0 1-.011-.024l-.4-1.215a.134.134 0 0 1 .008-.1.132.132 0 0 1 .077-.066zm8.04.892.209.106a.291.291 0 0 1 .128.389l-.577 1.146a.27.27 0 0 1-.059.079l.2.1-.671 1.534-.3.058-.841 1.8.647.379 1.395-1.567.409-.795-.013-.087.129-.139 1.651-3.218.369-.082.7-1.44-.159-.083.031-.018.016-.009a.26.26 0 0 0 .085-.1l.568-1.146a.25.25 0 0 0 .013-.191.252.252 0 0 0-.127-.145L18.7 5.045a.252.252 0 0 0-.336.114l-.566 1.148a.24.24 0 0 0-.025.11v.032l-.223-.115-.792 1.408.136.277-.005.009Zm1.615-2.8.567-1.148a.133.133 0 0 1 .045-.052.2.2 0 0 1 .031-.015.13.13 0 0 1 .1.007l1.389.685a.13.13 0 0 1 .067.076.134.134 0 0 1-.006.1l-.567 1.148a.13.13 0 0 1-.076.068.16.16 0 0 1-.043.007.14.14 0 0 1-.045-.008l-.014-.006-1.389-.685a.13.13 0 0 1-.067-.077.134.134 0 0 1 .01-.1Zm-9.432-.484a.255.255 0 0 0 .054.118l.012.013.025.026-.178.034.265 1.58.331.183v.009l.425 2.224.406 1.038-.165.244.014.071 1.017 2.782.039-2.34-.286-.246.063-1.659h.149a.29.29 0 0 1-.027-.133l.043-1.28a.285.285 0 0 1 .092-.2.288.288 0 0 1 .207-.078h.087l-.17-.835.21-.227-.362-1.575-.246.047.009-.031a.25.25 0 0 0 .007-.112l-.218-1.262a.25.25 0 0 0-.1-.162.244.244 0 0 0-.187-.042l-1.527.263a.25.25 0 0 0-.162.1.244.244 0 0 0-.042.187Zm-.079-1.381a.13.13 0 0 1 .086-.054L10 4.176a.13.13 0 0 1 .1.023.15.15 0 0 1 .026.024.135.135 0 0 1 .028.062l.218 1.262v.013a.136.136 0 0 1-.111.141l-1.526.263h-.023a.136.136 0 0 1-.077-.025.13.13 0 0 1-.051-.073v-.013l-.22-1.26a.13.13 0 0 1 .023-.099M4.3 7.214a.25.25 0 0 0 .085.1l.015.009.032.018-.162.083.7 1.44.368.082v.008l2.542 4.933.839.943-.973-2.771-.355-.131-.516-1.578.141-.049a.28.28 0 0 1-.072-.116L6.54 8.97a.284.284 0 0 1 .016-.221.288.288 0 0 1 .167-.149l.533-.177-.216-.404.136-.277-.793-1.408-.223.115v-.032a.244.244 0 0 0-.026-.11l-.566-1.148a.246.246 0 0 0-.144-.126.25.25 0 0 0-.191.012l-1.39.685a.253.253 0 0 0-.114.336Zm-.468-1.3a.13.13 0 0 1 .068-.078l1.39-.685a.127.127 0 0 1 .1-.007.2.2 0 0 1 .032.015.133.133 0 0 1 .045.052l.566 1.148a.134.134 0 0 1-.06.179l-1.39.685a.13.13 0 0 1-.058.014.16.16 0 0 1-.043-.007.136.136 0 0 1-.082-.068l-.565-1.148a.134.134 0 0 1-.007-.102Zm8.748 2.409a.294.294 0 0 1 .12.077.284.284 0 0 1 .078.207l-.043 1.28a.29.29 0 0 1-.02.1h.226l.035 1.674-.251.18-.005 1.244.657-1.359-.156-.344.205-.4.551-1.082.135.065a.28.28 0 0 1 .031-.132l.227-.45.415-2.183.331-.183.265-1.581L15.2 5.4l.025-.026.012-.014a.24.24 0 0 0 .054-.117l.218-1.262a.25.25 0 0 0-.043-.187.244.244 0 0 0-.162-.1l-1.523-.264a.253.253 0 0 0-.29.2l-.217 1.27a.25.25 0 0 0 .006.112l.009.03-.246-.046-.361 1.575.209.227v.01zm.809-3.406.218-1.262a.135.135 0 0 1 .029-.063.11.11 0 0 1 .025-.023.132.132 0 0 1 .1-.023l1.526.263a.132.132 0 0 1 .086.055.13.13 0 0 1 .023.1l-.218 1.262a.13.13 0 0 1-.054.086.13.13 0 0 1-.056.023h-.043L13.5 5.07a.133.133 0 0 1-.109-.153Zm8.577 9.717-.774-1.341a.25.25 0 0 0-.152-.117.254.254 0 0 0-.191.025l-1.108.64a.24.24 0 0 0-.082.077l-.018.026-.122-.219-1.441.731-.041.306h-.009l-.591.319-3.476 4-1.258-1v.525l-.289.011.564 1.162 5.963-3.31.352.137 1.384-.807-.088-.159h.036a.25.25 0 0 0 .143-.033l1.109-.64a.25.25 0 0 0 .116-.152.246.246 0 0 0-.027-.181m-.088.16a.133.133 0 0 1-.062.081l-1.109.64a.13.13 0 0 1-.066.018.1.1 0 0 1-.035 0 .133.133 0 0 1-.066-.04l-.015-.022-.774-1.341a.133.133 0 0 1 .048-.182l1.109-.64a.128.128 0 0 1 .1-.013.13.13 0 0 1 .081.062l.775 1.341a.137.137 0 0 1 .014.096m-11.278 3.9v-.053l-.76.605-.012-.014-2.612-3.01-1.251-.673-.041-.306-1.441-.73-.122.219-.018-.027a.24.24 0 0 0-.082-.076l-1.108-.641a.251.251 0 0 0-.343.092l-.774 1.342a.243.243 0 0 0-.025.19.25.25 0 0 0 .116.152l1.109.64a.25.25 0 0 0 .143.033h.036l-.088.159 1.384.807.352-.137h.008l5.955 3.305.885-1.823-.184-.1zm-6.351-3.782-.774 1.342a.136.136 0 0 1-.081.062.14.14 0 0 1-.035 0 .13.13 0 0 1-.066-.018l-1.109-.64a.13.13 0 0 1-.062-.081.137.137 0 0 1 .013-.1l.775-1.341a.13.13 0 0 1 .081-.062.137.137 0 0 1 .1.013l1.109.64a.134.134 0 0 1 .049.185m9.035 1.778 1.707-1.917-.636-.373zm3.234-3.631.347-.391-.033-.221z"/></svg>