<svg xmlns="http://www.w3.org/2000/svg" viewBox="0 0 24 24"><path fill="#44739e" d="M11.949 16.95v.088a.023.023 0 0 0 .024.024h.247a.024.024 0 0 0 .024-.024v-.088a.22.22 0 0 1 .054-.124.269.269 0 0 0-.202-.448.269.269 0 0 0-.205.447.23.23 0 0 1 .058.125m.06.184h.173a.043.043 0 0 1 .042.043v.05a.043.043 0 0 1-.042.043h-.173a.043.043 0 0 1-.043-.043v-.05a.043.043 0 0 1 .043-.043m-.693-7.136v3.307a.764.764 0 0 0 1.528 0V9.998a.764.764 0 1 0-1.528 0m.99 3.112h-.427a.086.086 0 0 1-.085-.085.085.085 0 0 1 .085-.083h.432a.084.084 0 0 1 .085.083.085.085 0 0 1-.085.085Zm-.448-3.003H12v-.132a.085.085 0 1 1 .168 0v.132h.132a.085.085 0 1 1 0 .168h-.132v.132a.085.085 0 1 1-.168 0v-.132h-.132a.085.085 0 0 1 0-.168Zm3.037-4.502h-5.63a.507.507 0 0 0-.506.506V8.28h6.642V6.111a.507.507 0 0 0-.506-.506m-2.853.73a.048.048 0 0 1 .048-.048h.011a.048.048 0 0 1 .049.048v.141a.048.048 0 0 1-.049.048h-.011a.048.048 0 0 1-.048-.048Zm-.55.808h-.13a.055.055 0 1 1 0-.11h.13a.055.055 0 0 1 0 .11m.205-.52a.052.052 0 0 1-.075 0l-.093-.091a.054.054 0 0 1 0-.076.053.053 0 0 1 .077 0l.091.091a.052.052 0 0 1 0 .076m.66.66a.183.183 0 0 0-.042.096v.083a.085.085 0 0 1-.044.075.11.11 0 0 1 .027.072v.051a.11.11 0 0 1-.11.11h-.175a.11.11 0 0 1-.11-.11v-.045a.11.11 0 0 1 .028-.071.085.085 0 0 1-.044-.075v-.084a.18.18 0 0 0-.043-.095.337.337 0 0 1 .486-.46.337.337 0 0 1 .02.453Zm.129-.66a.054.054 0 0 1 0-.076l.091-.091a.053.053 0 0 1 .077 0 .054.054 0 0 1 0 .076l-.092.091a.052.052 0 0 1-.08 0Zm.317.52h-.131a.055.055 0 1 1 0-.11h.131a.055.055 0 0 1 0 .11m-.795.429h.175a.044.044 0 0 1 .044.044v.051a.044.044 0 0 1-.044.044h-.175a.044.044 0 0 1-.044-.044v-.051a.044.044 0 0 1 .044-.044m.088-.778a.275.275 0 0 0-.275.274.28.28 0 0 0 .067.18.233.233 0 0 1 .059.131v.09a.024.024 0 0 0 .024.024h.249a.024.024 0 0 0 .024-.024V7.38a.24.24 0 0 1 .055-.127.274.274 0 0 0-.205-.454Zm.049 2.313a.894.894 0 0 1 .828.891v3.307a.895.895 0 0 1-.828.891v.697h3.256V8.41h-3.256Zm2.213 2.336a.208.208 0 1 1-.206.208.208.208 0 0 1 .206-.208m-.622 0a.208.208 0 1 1-.207.208.208.208 0 0 1 .207-.208m-4.977 6.446a.507.507 0 0 0 .506.506h5.63a.507.507 0 0 0 .506-.506v-2.41H8.759Zm3.337-1.581a.33.33 0 0 1 .253.542h-.006a.176.176 0 0 0-.042.093v.083a.084.084 0 0 1-.044.074.11.11 0 0 1 .029.071v.051a.11.11 0 0 1-.11.103h-.173a.103.103 0 0 1-.103-.103v-.051a.103.103 0 0 1 .027-.071.084.084 0 0 1-.044-.074v-.076a.17.17 0 0 0-.041-.094.33.33 0 0 1 .249-.55Zm-.081-2.108a.895.895 0 0 1-.829-.891V9.998a.894.894 0 0 1 .829-.891V8.41H8.759v6.483h3.256Zm-1.925-2.338a.208.208 0 1 1 .207-.206.208.208 0 0 1-.207.202ZM18.369 1H5.631a.467.467 0 0 0-.467.467v21.065a.467.467 0 0 0 .467.468h12.738a.467.467 0 0 0 .467-.468V1.467A.467.467 0 0 0 18.369 1m-2.801 17.534a.341.341 0 0 1-.341.342h-6.38a.342.342 0 0 1-.342-.342V5.62a.341.341 0 0 1 .342-.341h6.38a.341.341 0 0 1 .341.341Z"/></svg>