<svg xmlns="http://www.w3.org/2000/svg" fill="#44739e" viewBox="0 0 24 24"><path d="M14.759 15.442v-.008s-.009-.1-.795-.19c-.417-.048-.943-.081-1.515-.1v.483h-.079V4.844a2.61 2.61 0 0 0-.744-.01v10.791h-.079v-.485c-.58 0-1.114.029-1.537.07-.609.059-.753.132-.788.162h-.006v.025l.009.073.66 5.93.04.154c.528.493 3.367.718 4.179-.057l.057-.515.59-5.465zM11.088 4.689v.065c0 .031.186.059.461.073v-.063l.055-.007a2.65 2.65 0 0 1 .814.015h.033v.048c.255-.015.425-.041.425-.071v-.06a2.47 2.47 0 0 0-.894-.083 2.47 2.47 0 0 0-.894.083m-4.714-.044c0-.262 3.019-.635 5.637-.589 1.944.034 5.8.288 5.8.55s-2.212.6-5.361.626v.456c3.155-.047 5.8-.553 5.8-.8a.07.07 0 0 0-.01-.036l-.383-1.457c-.179-.681-.879-.979-1.75-1.154a2.2 2.2 0 0 0-.227-.033l-1.346-.138Q13.826 2 13.114 2h-2.135c-3.176 0-3.724.374-3.724.374a1.809 1.809 0 0 0-1.245 1.12l-.26 1.365a.1.1 0 0 0 0 .026c0 .251 2.636.759 5.8.8v-.454c-3.082-.031-5.176-.338-5.176-.586"/></svg>