<svg xmlns="http://www.w3.org/2000/svg" viewBox="0 0 24 24"><path fill="#44739e" d="M9.337 17.729v3.024l2.619 1.511 2.619-1.511v-3.024l-2.619-1.513Zm2.838-4.768v3.024l2.619 1.513 2.619-1.513v-3.024l-2.619-1.511Zm-.35 0L9.206 11.45l-2.619 1.511v3.024l2.619 1.513 2.619-1.513Zm3.144-4.821v3.024l2.618 1.513 2.619-1.513V8.14l-2.619-1.511Zm-5.938 0L6.413 6.629 3.794 8.14v3.024l2.619 1.513 2.618-1.513Zm11.35-6.404-2.619 1.511v3.024l2.619 1.513L23 6.271V3.247Zm-2.968 4.535V3.247l-2.619-1.511-2.619 1.511v3.024l2.619 1.513Zm-5.588 0V3.247L9.206 1.736 6.587 3.247v3.024l2.619 1.513ZM6.238 3.247 3.619 1.736 1 3.247v3.024l2.619 1.513 2.619-1.513Z"/></svg>