<svg xmlns="http://www.w3.org/2000/svg" viewBox="0 0 24 24"><path fill="#44739e" d="m17.32 18.729.036-.064-.003-.007 4.356-2.963-.225-.388-4.356 2.963-.026-.046-.01-.016h-.527l-.003.006-3.934-2.678-.223.389 3.932 2.677-.026.046-.01.017.043.075.026.046-3.965 2.699.224.389 4.043-2.751h.42l.003-.006 4.33 2.947.224-.388Zm-6.002-4.026-3.84-2.614.026-.046.011-.017-.002-.003-.026-.045 3.824-2.39-.223-.389-3.825 2.391-.012-.021h-.528l-.002.005-4.164-2.833-.225.388 4.165 2.834-.027.046-.01.017.002.003.026.046-4.182 2.613.223.388 4.182-2.614.012.021h.528l.003-.006 3.84 2.614Zm.927-12.26.386-.67-.386-.67h-.773l-.386.67.386.67Zm9.596 19.114-.388.67.388.67h.773l.386-.67-.386-.67Zm.773-5.847.386-.67-.386-.67h-.773l-.388.67.388.67Zm-11.142 5.71-.386.67.386.67h.773l.386-.67-.386-.67Zm1.159-6.102-.386-.669h-.773l-.386.669.386.669h.773Zm-11.245-.669L1 15.318l.386.669h.773l.388-.669-.388-.669Zm.773-5.434.388-.669-.388-.67h-.773L1 8.546l.386.669ZM17.04 6.172h.774l.386-.669-.386-.67h-.774l-.387.67Zm-4.795 3.479.386-.669-.386-.669h-.773l-.386.669.386.669Zm4.426-4.392.224-.388-4.256-2.896-.224.388Zm-4.042 3.506 4.251-2.657-.224-.387-4.251 2.656Zm-.994-6.216h.448v5.644h-.448Zm0 7.209h.448v4.784h-.448Zm10.368 6.058h.448v5.634h-.448Zm-10.368.278h.448v5.221h-.448ZM1.55 9.321h.448v5.221H1.55Z"/></svg>