<svg xmlns="http://www.w3.org/2000/svg" viewBox="0 0 24 24"><path fill="#44739e" d="m14.847 1-5.715 9.898.427.738v.001l-.42.726h.001-.84l-5.715 9.899.427.738h11.416l.427-.738-.001-.001h.853l5.708-9.887-.427-.739h-.012l.426-.737L15.687 1Zm.051.841h.738l5.021 8.696-.375.649h-10.03l-.374-.649Zm.029.436-4.637 8.031.346.599h9.262l.347-.599-4.637-8.031ZM10.262 12.1h10.041l.375.649-5.015 8.686h-.75l-5.02-8.696Zm9.636.242-9.272.001-.341.59 4.636 8.03h.692l4.631-8.021Zm-11.547.862h.738L14.11 21.9l-.375.649H3.705L3.33 21.9Zm.028.437-4.636 8.03.346.599h9.262l.347-.599-4.637-8.03Z"/></svg>