<svg xmlns="http://www.w3.org/2000/svg" viewBox="0 0 24 24"><path fill="#44739e" d="M10.459 7.091H8.99l.734 1.22Zm-1.751.002-.734 1.221h1.469Zm11.524 11.676.735-1.221h-1.468Zm-1.75.002h1.469l-.735-1.22ZM3.033 17.525l.735 1.221.733-1.221Zm1.016 1.223h1.469l-.734-1.221ZM14.877 7.114h-1.469l.734 1.221Zm1.016 1.224-.734-1.22-.735 1.22ZM3.768 15.211l.733-1.221H3.033ZM1 13.99l.735 1.221.733-1.221Zm20.532 0 .733 1.221L23 13.99Zm-.565 0h-1.468l.733 1.221Zm-2.485 1.224h1.469l-.735-1.221Zm2.033 0h1.469l-.735-1.221ZM2.751 14.04l-.735 1.221h1.469Zm2.033 0-.735 1.221h1.469Zm6.423-.065.734 1.22.734-1.22Zm2.383 1.271-.735-1.221-.735 1.221Zm-3.276 0h1.468l-.735-1.221Zm.893-1.485h1.468l-.734-1.22Zm8.97 1.648-.005.008v-.008h-1.993l-2.03-3.373.99-1.644 2.011 3.348 2.126-3.536h.009v-.015h-.009l-1.1-1.821 2.054-3.399h-4.274l1.1 1.835-1.03 1.714h-3.931l-.013.023-.014-.023h-.006l-2.125-3.532-2.125 3.532H5.794l-.99-1.65L5.95 4.969H1.674l2.057 3.419-1.124 1.87h-.02l.01.017-.01.015h.02l2.116 3.52 2.057-3.419.99 1.64-2.077 3.448H3.655l2.137 3.552 2.127-3.538h1.845l2.126 3.538 2.114-3.52.022.035.033-.056h2.016l2.091 3.467 2.136-3.551ZM18.614 5.341h2.956l-1.478 2.458Zm.536 2.03 1.478 2.457h-2.955Zm1.478 3.19-1.478 2.458-1.477-2.458ZM17.61 8.89l-1.478 2.457-1.481-2.457Zm-2.102 2.871H12.55l1.478-2.458Zm-2.09-2.871-1.478 2.457-1.48-2.457Zm-1.481-3.184 1.479 2.458H10.46ZM9.889 9.303l1.477 2.458H8.411Zm-7.557-3.96H5.29L3.81 7.799Zm2.391 7.748L3.245 10.63h2.957ZM3.245 9.918l1.478-2.457 1.479 2.457ZM6.312 8.89h2.957L7.79 11.347Zm-.52 9.418-1.479-2.457H7.27Zm.55-3.19 1.478-2.454 1.478 2.457Zm2.07-2.75h2.955L9.89 14.825Zm3.48 5.94-1.478-2.457h2.957Zm2.075-2.829H9.946l-.007-.013 2.005-3.333h.027l2.009 3.33Zm.061-.651L12.55 12.37h2.957Zm.588.293 1.478-2.457 1.479 2.457Zm3.544 3.118-1.478-2.458h2.956Z"/></svg>