<svg xmlns="http://www.w3.org/2000/svg" fill="#44739e" viewBox="0 0 24 24"><path d="M4.7 16.123v.382h1.391v-.137a1.415 1.415 0 0 1 1.283.007v.13h1.388V16.3a1.34 1.34 0 0 0 1.243.033v.176h1.389v-.169a1.4 1.4 0 0 1 1.256.057v.108h1.389v-.246a1.382 1.382 0 0 0 1.229.112v.134h1.389v-.132a1.41 1.41 0 0 1 1.247-.019v.151h1.389V16.2c.389.05.96-.6.976-1.034h.49v-1.391h-.222a1.463 1.463 0 0 1 .051-1.282h.171V11.1h-.212a1.329 1.329 0 0 0-.023-1.243h.235V8.473H20a1.334 1.334 0 0 1-.707-.6v-.536H17.9v.27a1.228 1.228 0 0 0-1.282-.047v-.223h-1.385v.193a1.4 1.4 0 0 1-1.242.015v-.208H12.6v.219a1.285 1.285 0 0 0-1.257-.014v-.205H9.956v.151a1.412 1.412 0 0 1-1.228-.03v-.121H7.339v.194a1.328 1.328 0 0 0-1.248.023v-.217H4.7v.8h1.391v-.143a1.41 1.41 0 0 1 1.248-.009v.156h1.389V7.9a1.363 1.363 0 0 0 1.228.055v.19h1.389v-.159A1.407 1.407 0 0 1 12.6 8v.142h1.389V7.99a1.293 1.293 0 0 0 1.242-.014v.165h1.389V8a1.411 1.411 0 0 1 1.282.03v.108h1.055a1.34 1.34 0 0 0 1 .749v.971h.128a1.406 1.406 0 0 1 .009 1.243h-.137v1.389h.2a1.3 1.3 0 0 0-.069 1.282h-.134v1.168a1.454 1.454 0 0 1-.662.832V15.7H17.9v.2a1.34 1.34 0 0 0-1.247.039V15.7h-1.385v.2a1.434 1.434 0 0 1-1.229-.068V15.7H12.65v.286c-.189-.281-.861-.288-1.256-.1V15.7h-1.389v.171a1.414 1.414 0 0 1-1.243-.015V15.7H7.374v.234a1.278 1.278 0 0 0-1.283-.007V15.7H4.76a1.34 1.34 0 0 1-.715-.649v-1.075h-.2a1.354 1.354 0 0 0-.05-1.243h.247v-1.389H3.91a1.313 1.313 0 0 0-.034-1.282h.169V8.673h-.8v1.389h.2a1.417 1.417 0 0 1 .016 1.282h-.22v1.389h.12a1.413 1.413 0 0 1 .026 1.243h-.146v1.388h.5a1.324 1.324 0 0 0 .959.759m.732-8.165H5V7.52h.438zm2.637 0h-.436V7.52h.439zm2.617 0h-.438V7.52h.438zm2.646 0H12.9V7.52h.439zm2.631 0h-.438V7.52h.438zm2.671 0H18.2V7.52h.438zm1.5 1.248v-.355l.068-.084h.37v.439zm0 2.631V11.4h.438v.439zm0 2.232h.438v.439h-.438Zm-1.574 1.815H19v.438h-.44zm-2.636 0h.438v.438h-.438zm-2.618 0h.439v.438h-.439zm-2.645 0h.439v.438h-.438zm-2.632 0h.439v.438h-.439Zm-2.671 0H5.8v.438h-.442ZM3.424 9.768v-.439h.438v.439zm0 2.671V12h.438v.439zm0 2.192h.438v.439h-.438ZM2 6.149v11.7h20v-11.7Zm19.543 11.245H2.457V6.606h19.086z"/></svg>