<svg xmlns="http://www.w3.org/2000/svg" fill="#44739e" viewBox="0 0 24 24"><path d="M14.031 12.856a.133.133 0 0 0 .069-.056.14.14 0 0 0 .024-.087.088.088 0 0 0-.035-.063.075.075 0 0 0-.043-.013h-.029a.13.13 0 0 0-.071.055.123.123 0 0 0-.024.087.082.082 0 0 0 .035.064.084.084 0 0 0 .074.013m-1.079-1.111a.082.082 0 0 0 .07-.011.108.108 0 0 0 .012-.151.128.128 0 0 0-.1-.059.09.09 0 0 0-.044.012.108.108 0 0 0-.011.151.135.135 0 0 0 .073.058m-.58 1.74a.04.04 0 0 0 .008.024l.06.24.1.046.124.857.039.412.006.015a2.8 2.8 0 0 0 .759.084 2.77 2.77 0 0 0 .757-.084v-.005l.059-1.26.111-.062.078-.266v-.012c0-.006 0-.023-.048-.044l-.053-.025.055-.019a.86.86 0 0 0 .521-.411 1.3 1.3 0 0 0-.1-.883 1.266 1.266 0 0 0-1.01.159 1.33 1.33 0 0 0-.2.869c.018.014.1.063.216.136l.019.012-.037.068c-.106-.007-.218-.01-.334-.012h-.025l.081-1.2v-.011l-.1-.182.019-.011c.12-.072.2-.122.216-.136a1.33 1.33 0 0 0-.2-.869 1.262 1.262 0 0 0-1.01-.159 1.3 1.3 0 0 0-.1.882.982.982 0 0 0 .747.473 2.9 2.9 0 0 0 .26-.143l.022-.013.087.165a.076.076 0 0 1 .008.036l-.067 1.169h-.022c-.117 0-.232 0-.342.008h-.015l-.027-.05.019-.012a2.3 2.3 0 0 0 .216-.136 1.32 1.32 0 0 0-.2-.868 1.266 1.266 0 0 0-1.01-.16 1.3 1.3 0 0 0-.1.883.826.826 0 0 0 .462.389l.054.022-.054.022c-.049.03-.049.053-.049.062m.468-2.433a.169.169 0 0 1 .185.276.125.125 0 0 1-.07.021.12.12 0 0 1-.042-.007.178.178 0 0 1-.1-.074.154.154 0 0 1 .027-.216m.208.722a.125.125 0 0 1-.07.021.172.172 0 0 1-.139-.081.155.155 0 0 1 .024-.216.134.134 0 0 1 .112-.014.186.186 0 0 1 .1.074.154.154 0 0 1-.027.216m.371-.225a.13.13 0 0 1-.069.02.168.168 0 0 1-.14-.08.142.142 0 1 1 .209.06m.881.9a.19.19 0 0 1 .1-.074.126.126 0 0 1 .167.114.177.177 0 0 1-.032.118.173.173 0 0 1-.1.074.12.12 0 0 1-.042.007.125.125 0 0 1-.07-.021.129.129 0 0 1-.055-.1.182.182 0 0 1 .028-.118zm-.023.446a.142.142 0 1 1 .256.123.16.16 0 0 1-.023.034.171.171 0 0 1-.139.08.125.125 0 0 1-.07-.021.155.155 0 0 1-.024-.211Zm-.371-.225a.178.178 0 0 1 .1-.074.134.134 0 0 1 .112.014.155.155 0 0 1 .024.216.171.171 0 0 1-.14.081.12.12 0 0 1-.069-.021.154.154 0 0 1-.027-.216m-1.09-.044a.155.155 0 0 1 .209.059.184.184 0 0 1 .032.118.13.13 0 0 1-.056.1.12.12 0 0 1-.069.021.174.174 0 0 1-.14-.08.19.19 0 0 1-.032-.118.13.13 0 0 1 .056-.1m-.394-.221a.168.168 0 0 1 .185.275.125.125 0 0 1-.07.021.171.171 0 0 1-.139-.08.155.155 0 0 1 .024-.216m0 .662a.155.155 0 0 1 .024-.216.127.127 0 0 1 .112-.014.178.178 0 0 1 .1.074.155.155 0 0 1-.024.216.13.13 0 0 1-.07.02.15.15 0 0 1-.042-.006.183.183 0 0 1-.1-.074m.113.355h.013a1.5 1.5 0 0 0 .174.044 1.25 1.25 0 0 0 .173-.092h.005l.111-.008h.015l.066.122a.023.023 0 0 0 .015.012.021.021 0 0 0 .019 0 .024.024 0 0 0 .009-.032l-.056-.1h.038c.1 0 .2-.006.3-.006h.026l-.007.116v.011h.011a.013.013 0 0 0 .011-.014l.008-.116h.03c.1 0 .206 0 .3.009h.037l-.045.083a.024.024 0 0 0 .008.033.03.03 0 0 0 .019 0 .02.02 0 0 0 .015-.012l.055-.1h.015a1.5 1.5 0 0 1 .17.015h.005a1.1 1.1 0 0 0 .125.065c.035-.007.072-.016.111-.026h.012a.29.29 0 0 1 .113.042l-.04.049a2.61 2.61 0 0 1-.979.153 2.4 2.4 0 0 1-.981-.153l-.026-.038v-.015a.27.27 0 0 1 .123-.042zm9.083 5.346-2.4-.358h-.006v.307a.037.037 0 0 0 .031.036l2.4.358a.137.137 0 0 0 .089-.016l.2-.115a.072.072 0 0 0 .036-.062v-.238l-.2.071a.306.306 0 0 1-.15.017m-5.012 2.105 2.447.406v-2.912L16.606 18c.01.022 0 2.873 0 2.873m2.557-2.154v-.3a.055.055 0 0 1 .016-.039l-.08-.013v2.912l.284-.161v-2.294l-.149-.022a.084.084 0 0 1-.071-.083m.221-6.37V9.433l-2.536-.318V3.253l-4.925-.532-.34.1 4.994.531.031 5.793v.068l.018-.007c.219.033 2.527.334 2.527.334v2.887l2.614.36.037 5.9.2-.077v-5.916ZM6.805 10.722l4.687.667.001-5.579-4.641-.511-.022 2.584-4.513-.571-.225.092 4.736.618Zm4.723.793-2.344-.327v2.777l2.344.299zM6.752 13.63l2.344.292v-2.726l-2.31-.322Zm-4.756-.696 4.557.655.064-5.481-4.616-.585Zm14.643 4.967 5.023.756v-5.779l-5.023-.701Zm.008-8.591v2.728l2.411.336V9.636ZM12.6 13.087a.109.109 0 0 0 .011-.15.132.132 0 0 0-.072-.055h-.028a.083.083 0 0 0-.044.012.11.11 0 0 0-.011.151.137.137 0 0 0 .072.055.084.084 0 0 0 .072-.013m1.823-.453a.13.13 0 0 0 .071-.055.134.134 0 0 0 .024-.087.08.08 0 0 0-.035-.063.075.075 0 0 0-.043-.013.14.14 0 0 0-.029 0 .138.138 0 0 0-.071.055.128.128 0 0 0-.024.087.082.082 0 0 0 .035.064.084.084 0 0 0 .072.012M16.505 9.3l-4.889-.588v5.548l.968.15-.083-.579-.1-.045-.063-.252a.084.084 0 0 1-.015-.049.091.091 0 0 1 .046-.077.848.848 0 0 1-.439-.393 1.324 1.324 0 0 1 .107-.939 1.272 1.272 0 0 1 1.077.163 1.356 1.356 0 0 1 .206.918c0 .01-.005.019-.186.129h.266l.065-1.125v-.011l-.064-.121c-.242.142-.258.139-.268.137a1.028 1.028 0 0 1-.784-.5 1.322 1.322 0 0 1 .107-.938 1.272 1.272 0 0 1 1.077.162 1.36 1.36 0 0 1 .206.919c0 .01 0 .019-.216.147l.074.142a.065.065 0 0 1 .007.036l-.078 1.151a2.7 2.7 0 0 1 .3.011c-.211-.127-.213-.136-.216-.147a1.36 1.36 0 0 1 .206-.919 1.272 1.272 0 0 1 1.077-.162A1.315 1.315 0 0 1 15 13a.885.885 0 0 1-.5.419.1.1 0 0 1 .025.032h.023l-.1.338-.106.058-.038.831v.071l1.975.3-1.125.461-4.77-.679 1.229-.5.989.153-.011-.074-.976-.151H11.6l-1.491.608 5.039.717h.01l.257-.1 1.128.14v-.6zm-.034 6.247-.844-.1.844-.31zm-2-2.522a.107.107 0 0 0-.011-.15.076.076 0 0 0-.044-.013.13.13 0 0 0-.1.059.109.109 0 0 0 .012.151.107.107 0 0 0 .143-.047m-1.142-1.706a.083.083 0 0 0-.044.012.122.122 0 0 0 0 .174.124.124 0 0 0 .13.026.11.11 0 0 0 .011-.151.123.123 0 0 0-.097-.061m-.354 1.543a.085.085 0 0 0 .035-.063.134.134 0 0 0-.024-.087.108.108 0 0 0-.144-.047.084.084 0 0 0-.034.063.132.132 0 0 0 .023.088.108.108 0 0 0 .144.046m-.049-1.562a.083.083 0 0 0 .07-.011.109.109 0 0 0 .012-.151.125.125 0 0 0-.1-.059.083.083 0 0 0-.044.012.108.108 0 0 0-.011.151.128.128 0 0 0 .073.058m-.346 1.341a.108.108 0 0 0 .012-.15.129.129 0 0 0-.1-.06.076.076 0 0 0-.044.013.122.122 0 0 0 .132.2zm-.976-4.1 4.89.585V3.445l-4.89-.538v2.652l-4.498-.484-.26.089 4.758.55z"/></svg>