<svg xmlns="http://www.w3.org/2000/svg" fill="#44739e" viewBox="0 0 24 24"><path d="m6.671 14.135.752.215.411-.066.791-1.207-.2-.475-.814-.202-.447.73c-.036.059-.069.119-.1.181zm-.449-1.257c-.019.03-.036.06-.052.091l-.458.893.833.238.46-.911a1 1 0 0 1 .062-.108l.458-.7-.835-.237Zm-.941-.264c-.019.03-.036.06-.052.091l-.458.894.833.238.459-.912a1.2 1.2 0 0 1 .063-.108l.457-.7-.834-.237Zm-1.064-.383a.64.64 0 0 0-.092.16l-.353.914.9.264.48-.936c.01-.02.022-.04.034-.059l.479-.72-.965-.219Zm-.233.222a1.3 1.3 0 0 1 .149-.263l.456-.615-.689-.133-.377.115-.743 1.212.145.334.705.2zm-.949.852c.026.044.2.36.2.36l4.33 1.213-.148-.4zm4.524 1.136.114.437.316-.033-.141-.468zm13.557-5.099c-.64-1.005-2.105-2.628-5.453-4.653l-.013-.008a17.25 17.25 0 0 0-6.261-2.624 2.688 2.688 0 0 0-2.214.443A2.925 2.925 0 0 0 6.4 3.59a.47.47 0 0 1 .254.012.9.9 0 0 0 .123.023 3.4 3.4 0 0 1 .644.135 1.85 1.85 0 0 1 .555-.06h.007c3.2.363 7.813 3.265 10.789 5.64l.007.006a10.63 10.63 0 0 1 1.705 2.154l.006.012a.673.673 0 0 1-.041.734.39.39 0 0 1-.4.1l-.038-.013-.018-.036c-.527-1.1-1.953-2.895-5.749-5.191l-.015-.006a17.25 17.25 0 0 0-6.261-2.624 2.688 2.688 0 0 0-2.214.447 2.94 2.94 0 0 0-.775 1.085.475.475 0 0 1 .255.013.9.9 0 0 0 .122.023A3.4 3.4 0 0 1 6 6.179a1.82 1.82 0 0 1 .555-.062h.007c3.2.363 7.813 3.265 10.79 5.639l.007.006a10.7 10.7 0 0 1 1.7 2.159l.006.012a.675.675 0 0 1-.042.735.39.39 0 0 1-.4.1l-.038-.013-.018-.036c-.526-1.1-1.951-2.895-5.749-5.192l-.015-.008a17.24 17.24 0 0 0-6.26-2.624 2.684 2.684 0 0 0-2.214.447 2.92 2.92 0 0 0-.777 1.088.48.48 0 0 1 .256.011.8.8 0 0 0 .122.023 3.35 3.35 0 0 1 .644.136 1.86 1.86 0 0 1 .556-.063h.01c3.206.365 7.816 3.266 10.79 5.639l.007.006a10.66 10.66 0 0 1 1.705 2.159l.006.012a.674.674 0 0 1-.041.735.4.4 0 0 1-.453.09l-.032-.014-.015-.032c-.521-1.105-1.944-2.907-5.761-5.215l-.015-.009a17.27 17.27 0 0 0-6.26-2.624 2.688 2.688 0 0 0-2.214.447 3.027 3.027 0 0 0-.881 1.369 3.884 3.884 0 0 1 1.877-.173 17.4 17.4 0 0 1 6.478 2.682l.013.008a27.05 27.05 0 0 1 3.292 2.307c.283.212.557.426.817.634l.007.006a10.65 10.65 0 0 1 1.705 2.158v.011a1.2 1.2 0 0 1 .071.2c.041.077.078.155.113.234a.4.4 0 0 1-.453.091l-.032-.015-.015-.031a11.28 11.28 0 0 0-3.883-3.99l-.215.342-3-1.84.086-.133-.185-.449-.738 1.133.15.509.283-.437 2.956 1.933-.385.612q.753.534 1.465 1.116c.282.213.557.426.817.634l.007.006a10.72 10.72 0 0 1 1.705 2.159v.011a1.3 1.3 0 0 1 .071.2 3.37 3.37 0 0 1 .339.984c.064-.1.133-.221.212-.354a6.74 6.74 0 0 0 .608-1.26l.007-.018.012-.014c.141-.156.276-.318.407-.485l.007.039c.042-.067.085-.141.132-.22.033-.044.067-.088.1-.133l-.013-.012a6.8 6.8 0 0 0 .6-1.25l.006-.018.012-.013a9.7 9.7 0 0 0 .852-1.1 6.74 6.74 0 0 0 .6-1.254c0-.017 0-.047.006-.084v-.035l.023-.025a8.5 8.5 0 0 0 .792-1.02 6.75 6.75 0 0 0 .6-1.257v-.116l.024-.027a8.4 8.4 0 0 0 .792-1.019 6.76 6.76 0 0 0 .6-1.26 2.786 2.786 0 0 0-.585-1.725M7.83 3.138a.632.632 0 0 1-.337.309.23.23 0 0 1-.057.007.19.19 0 0 1-.1-.026c-.138-.084-.131-.319.018-.573a.645.645 0 0 1 .34-.309.19.19 0 0 1 .152.019c.154.093.11.359-.016.573m1.119.021a.636.636 0 0 1-.337.308.2.2 0 0 1-.057.008.18.18 0 0 1-.1-.027c-.138-.083-.131-.319.018-.572a.64.64 0 0 1 .339-.308.194.194 0 0 1 .152.018c.157.093.111.359-.015.573m1.121.2a.635.635 0 0 1-.337.309.25.25 0 0 1-.057.007.187.187 0 0 1-.1-.026c-.138-.084-.131-.319.018-.573a.645.645 0 0 1 .339-.308.2.2 0 0 1 .153.018c.157.096.114.362-.016.576Zm1.094.379a.612.612 0 0 1-.337.3.25.25 0 0 1-.065.009.213.213 0 0 1-.111-.031c-.149-.09-.151-.336 0-.586a.618.618 0 0 1 .338-.3.223.223 0 0 1 .175.022c.143.091.144.348 0 .589zm1.216.491a.653.653 0 0 1-.367.317.3.3 0 0 1-.075.01.236.236 0 0 1-.126-.034c-.166-.1-.173-.377-.017-.644a.655.655 0 0 1 .368-.317.26.26 0 0 1 .2.024c.167.103.174.38.017.647zm1.378.6a.668.668 0 0 1-.377.322.32.32 0 0 1-.08.01.26.26 0 0 1-.134-.036c-.171-.1-.182-.4-.024-.665a.664.664 0 0 1 .376-.321.277.277 0 0 1 .215.026l.08.048-.011.019a.568.568 0 0 1-.045.603zm1.4.781a.665.665 0 0 1-.376.321.32.32 0 0 1-.08.01.256.256 0 0 1-.134-.036c-.172-.1-.183-.4-.025-.665a.67.67 0 0 1 .377-.321.274.274 0 0 1 .214.026c.171.11.181.402.023.671zM6.41 5.557a.636.636 0 0 1-.337.308.25.25 0 0 1-.057.008.187.187 0 0 1-.1-.027c-.139-.083-.131-.319.018-.573a.635.635 0 0 1 .339-.307.194.194 0 0 1 .152.018c.157.093.11.359-.015.573m1.118.02a.637.637 0 0 1-.337.31.25.25 0 0 1-.057.007.18.18 0 0 1-.1-.027c-.138-.083-.131-.319.019-.573a.64.64 0 0 1 .338-.308.2.2 0 0 1 .156.014c.136.087.128.328-.019.577m1.121.2a.63.63 0 0 1-.337.308.2.2 0 0 1-.057.008.18.18 0 0 1-.1-.027c-.138-.083-.13-.319.019-.572a.64.64 0 0 1 .338-.308.24.24 0 0 1 .057-.008l.016-.027.085.049c.154.1.106.365-.021.581Zm1.094.379a.612.612 0 0 1-.337.3.25.25 0 0 1-.065.009.213.213 0 0 1-.111-.031c-.149-.09-.151-.336 0-.586a.618.618 0 0 1 .338-.3.227.227 0 0 1 .175.022c.143.092.144.344 0 .59zm1.217.49a.66.66 0 0 1-.368.318.32.32 0 0 1-.075.01.24.24 0 0 1-.126-.035c-.166-.1-.173-.377-.016-.644a.657.657 0 0 1 .367-.317.258.258 0 0 1 .2.025c.168.104.174.38.018.647zm1.377.6a.67.67 0 0 1-.376.322.33.33 0 0 1-.081.01.26.26 0 0 1-.134-.036c-.171-.1-.182-.4-.024-.665a.668.668 0 0 1 .377-.322.274.274 0 0 1 .214.026c.172.112.187.404.024.673zm1.4.781a.665.665 0 0 1-.376.321.32.32 0 0 1-.08.01.256.256 0 0 1-.134-.036c-.172-.1-.183-.4-.025-.665a.67.67 0 0 1 .377-.321.274.274 0 0 1 .214.026c.171.112.181.404.023.673zm-8.748-.051a.636.636 0 0 1-.337.308.2.2 0 0 1-.057.008.18.18 0 0 1-.1-.027c-.139-.083-.131-.319.018-.572a.64.64 0 0 1 .339-.308.194.194 0 0 1 .152.018c.157.097.11.359-.015.573M6.107 8a.628.628 0 0 1-.337.309.23.23 0 0 1-.057.007.19.19 0 0 1-.1-.026c-.138-.084-.13-.319.019-.573a.64.64 0 0 1 .338-.308.193.193 0 0 1 .153.019c.157.089.11.354-.016.572m1.121.2a.632.632 0 0 1-.337.309.23.23 0 0 1-.057.007.18.18 0 0 1-.1-.027c-.138-.083-.13-.319.019-.572a.64.64 0 0 1 .338-.308.2.2 0 0 1 .153.018c.156.093.11.359-.016.573m1.094.378a.616.616 0 0 1-.336.3.3.3 0 0 1-.065.008.21.21 0 0 1-.111-.03c-.149-.09-.151-.337 0-.587a.612.612 0 0 1 .338-.3.225.225 0 0 1 .176.021c.141.091.143.343-.002.588m1.217.491a.66.66 0 0 1-.368.318.34.34 0 0 1-.071.013.24.24 0 0 1-.126-.035c-.166-.1-.173-.377-.016-.644a.657.657 0 0 1 .363-.321.258.258 0 0 1 .2.025c.168.101.179.375.018.644m1.377.6a.665.665 0 0 1-.376.321.32.32 0 0 1-.08.011.257.257 0 0 1-.134-.037c-.172-.1-.183-.4-.025-.664a.668.668 0 0 1 .377-.322.274.274 0 0 1 .214.026c.172.108.182.396.024.669zm1.4.78a.667.667 0 0 1-.376.321.33.33 0 0 1-.08.011.25.25 0 0 1-.135-.037c-.171-.1-.182-.395-.024-.664a.666.666 0 0 1 .376-.322.277.277 0 0 1 .215.026c.171.108.182.4.024.669zm-8.8-.087a.64.64 0 0 1-.337.309.3.3 0 0 1-.057.007.18.18 0 0 1-.1-.027c-.139-.083-.131-.319.018-.572a.632.632 0 0 1 .339-.309.194.194 0 0 1 .152.018c.156.098.109.363-.016.578zm1.117.02a.632.632 0 0 1-.333.318.23.23 0 0 1-.057.007.18.18 0 0 1-.1-.027c-.138-.083-.13-.319.019-.572A.64.64 0 0 1 4.5 9.8a.2.2 0 0 1 .153.018c.152.088.105.354-.021.568zm1.121.2a.63.63 0 0 1-.337.308.24.24 0 0 1-.056.008.19.19 0 0 1-.1-.027c-.138-.083-.13-.319.019-.573A.638.638 0 0 1 5.62 10a.2.2 0 0 1 .152.019c.154.091.107.356-.019.571zm1.094.378a.613.613 0 0 1-.336.3.25.25 0 0 1-.065.009.213.213 0 0 1-.111-.031c-.149-.09-.151-.336 0-.586a.61.61 0 0 1 .338-.3.223.223 0 0 1 .175.021c.144.099.145.345-.002.595zm1.22.487a.66.66 0 0 1-.368.318.33.33 0 0 1-.075.009.24.24 0 0 1-.127-.034c-.166-.1-.173-.377-.016-.644a.656.656 0 0 1 .368-.317.26.26 0 0 1 .2.024c.166.109.173.386.017.652zm1.376.607a.67.67 0 0 1-.376.322.32.32 0 0 1-.079.011.26.26 0 0 1-.135-.037c-.175-.106-.185-.391-.025-.664a.67.67 0 0 1 .376-.322.277.277 0 0 1 .215.027c.17.109.18.403.023.671zm1.4.781a.67.67 0 0 1-.376.322.4.4 0 0 1-.08.01.25.25 0 0 1-.135-.037c-.171-.1-.181-.395-.023-.664a.667.667 0 0 1 .376-.322.28.28 0 0 1 .213.026c.17.113.181.405.023.673zM12.3 16.7a.66.66 0 0 1-.376.321.32.32 0 0 1-.08.011.257.257 0 0 1-.139-.032c-.172-.1-.183-.395-.025-.664a.668.668 0 0 1 .377-.322.274.274 0 0 1 .214.026c.171.102.182.393.029.66m1.107.89a.668.668 0 0 1-.376.321.33.33 0 0 1-.08.01.26.26 0 0 1-.135-.036c-.171-.1-.182-.4-.024-.664a.67.67 0 0 1 .377-.323.274.274 0 0 1 .214.026c.167.106.177.398.017.668zm.645 1.259a.32.32 0 0 1-.08.01.26.26 0 0 1-.135-.036c-.171-.1-.182-.4-.024-.665a.67.67 0 0 1 .377-.321.274.274 0 0 1 .214.026c.172.1.182.4.024.664a.666.666 0 0 1-.381.324zm.77.916a.26.26 0 0 1-.067.009.21.21 0 0 1-.11-.03c-.154-.092-.148-.368.013-.642a.708.708 0 0 1 .377-.339.228.228 0 0 1 .172.019c.151.1.146.371-.013.642a.693.693 0 0 1-.377.343zm1.034.729a.69.69 0 0 1-.378.334.28.28 0 0 1-.069.009.223.223 0 0 1-.117-.032c-.159-.1-.157-.374 0-.648a.69.69 0 0 1 .378-.334.24.24 0 0 1 .186.023c.157.098.156.376-.005.654zm-3.6-6.8a.663.663 0 0 1-.376.322.32.32 0 0 1-.08.01.256.256 0 0 1-.134-.036c-.171-.1-.182-.4-.024-.664a.666.666 0 0 1 .367-.326.276.276 0 0 1 .213.025c.172.108.183.4.025.668zm1.3.916a.663.663 0 0 1-.376.322.32.32 0 0 1-.08.01.25.25 0 0 1-.134-.037c-.172-.1-.182-.395-.025-.664a.666.666 0 0 1 .377-.321.274.274 0 0 1 .214.026c.168.103.174.395.016.663zm1.107.89a.665.665 0 0 1-.376.321.32.32 0 0 1-.08.011.257.257 0 0 1-.134-.037c-.172-.1-.183-.4-.025-.664a.668.668 0 0 1 .377-.322.277.277 0 0 1 .215.026c.16.102.174.395.015.665zm.645 1.259a.32.32 0 0 1-.08.01.256.256 0 0 1-.134-.036c-.172-.1-.183-.4-.025-.665a.67.67 0 0 1 .377-.321.274.274 0 0 1 .214.026c.172.1.182.4.024.665a.665.665 0 0 1-.384.32zm.77.917a.3.3 0 0 1-.067.008.21.21 0 0 1-.11-.03c-.153-.092-.148-.368.013-.642a.708.708 0 0 1 .377-.339.23.23 0 0 1 .173.019c.151.1.146.371-.013.642a.7.7 0 0 1-.381.341Zm1.022.724a.687.687 0 0 1-.377.334.3.3 0 0 1-.07.009.22.22 0 0 1-.116-.031c-.159-.1-.158-.375 0-.648a.688.688 0 0 1 .378-.334.236.236 0 0 1 .186.022c.165.099.164.378-.001.648m-3.382-7.1a.67.67 0 0 1-.376.322.33.33 0 0 1-.081.01.25.25 0 0 1-.134-.037c-.172-.1-.182-.4-.024-.664a.66.66 0 0 1 .376-.321.27.27 0 0 1 .214.026c.176.106.187.398.029.664zm1.3.916a.664.664 0 0 1-.375.322.33.33 0 0 1-.08.011.263.263 0 0 1-.135-.037c-.174-.105-.184-.391-.024-.664a.67.67 0 0 1 .377-.323.305.305 0 0 1 .123-.007l.011-.019.082.049c.174.107.184.4.024.671zm1.105.887a.672.672 0 0 1-.376.323.37.37 0 0 1-.08.01.25.25 0 0 1-.134-.037c-.175-.1-.185-.391-.025-.664a.67.67 0 0 1 .376-.322.277.277 0 0 1 .215.026c.174.107.185.399.027.667zm.645 1.261a.32.32 0 0 1-.08.01.26.26 0 0 1-.135-.036c-.174-.106-.185-.391-.024-.665a.666.666 0 0 1 .376-.322.277.277 0 0 1 .215.027c.171.1.182.395.024.664a.666.666 0 0 1-.373.325zm.77.916a.26.26 0 0 1-.067.008.22.22 0 0 1-.11-.029c-.153-.093-.148-.369.013-.642a.706.706 0 0 1 .377-.34.228.228 0 0 1 .177.022c.153.093.148.369-.013.642a.7.7 0 0 1-.374.342zm1.041.732a.7.7 0 0 1-.378.334.3.3 0 0 1-.07.009.23.23 0 0 1-.116-.031c-.16-.1-.159-.376 0-.649a.69.69 0 0 1 .378-.334.24.24 0 0 1 .186.023c.164.099.163.377.003.651zm-3.44-7.13a.668.668 0 0 1-.376.321.33.33 0 0 1-.08.011.26.26 0 0 1-.135-.037c-.171-.1-.182-.4-.024-.664a.666.666 0 0 1 .376-.322.277.277 0 0 1 .215.026c.174.107.185.399.027.668zm1.3.915a.664.664 0 0 1-.375.322.33.33 0 0 1-.08.011.263.263 0 0 1-.135-.037c-.174-.105-.184-.391-.024-.664a.67.67 0 0 1 .375-.319.277.277 0 0 1 .215.026c.175.104.185.395.027.664Zm1.105.887a.675.675 0 0 1-.376.323.37.37 0 0 1-.08.01.257.257 0 0 1-.134-.037c-.175-.105-.185-.391-.025-.664a.67.67 0 0 1 .379-.316.277.277 0 0 1 .215.026c.177.103.184.388.024.661zm.645 1.261a.32.32 0 0 1-.08.01.26.26 0 0 1-.135-.036c-.174-.106-.185-.392-.024-.665a.666.666 0 0 1 .376-.322.273.273 0 0 1 .215.027l.08.048-.011.019a.556.556 0 0 1-.045.6.666.666 0 0 1-.373.322zm.769.916a.26.26 0 0 1-.066.009.21.21 0 0 1-.111-.03c-.155-.094-.15-.364.013-.642a.7.7 0 0 1 .378-.339.23.23 0 0 1 .176.021c.154.093.148.37-.012.643a.7.7 0 0 1-.375.341zM20 13.6a.687.687 0 0 1-.378.335.28.28 0 0 1-.069.009.223.223 0 0 1-.117-.032c-.159-.1-.158-.375 0-.648a.685.685 0 0 1 .378-.334.24.24 0 0 1 .187.022c.163.093.162.371-.001.648m-3.439-7.13a.668.668 0 0 1-.376.321.32.32 0 0 1-.08.011.26.26 0 0 1-.135-.037c-.171-.1-.182-.4-.024-.664a.666.666 0 0 1 .376-.322.277.277 0 0 1 .215.026c.173.1.184.395.026.661zm1.3.915a.664.664 0 0 1-.375.322.32.32 0 0 1-.08.011.263.263 0 0 1-.135-.037c-.174-.106-.184-.391-.024-.665a.67.67 0 0 1 .376-.321.277.277 0 0 1 .215.026c.176.101.186.387.025.66zm1.105.887a.67.67 0 0 1-.377.323.32.32 0 0 1-.079.01.26.26 0 0 1-.135-.036c-.171-.1-.182-.4-.024-.665a.67.67 0 0 1 .376-.322.277.277 0 0 1 .215.026c.176.101.186.392.026.66zm.645 1.261a.32.32 0 0 1-.08.01.25.25 0 0 1-.131-.043c-.174-.105-.185-.391-.024-.664a.666.666 0 0 1 .376-.322.273.273 0 0 1 .215.027c.171.1.182.4.024.664a.666.666 0 0 1-.378.324zm.769.916a.26.26 0 0 1-.066.009.21.21 0 0 1-.111-.03c-.153-.093-.147-.369.013-.642a.712.712 0 0 1 .378-.339.23.23 0 0 1 .176.021c.154.093.148.369-.012.643a.69.69 0 0 1-.376.334zm1.041.732a.687.687 0 0 1-.378.335.28.28 0 0 1-.069.009.223.223 0 0 1-.117-.032c-.159-.1-.158-.375 0-.648a.685.685 0 0 1 .378-.334.24.24 0 0 1 .187.022c.163.092.162.367.001.644z"/></svg>