<svg xmlns="http://www.w3.org/2000/svg" viewBox="0 0 24 24"><path fill="#44739e" d="M11.319 23h1.724l.491-.682H10.66ZM9.58 18.498v2.832a.797.797 0 0 0 .796.796h3.384a.916.916 0 0 0 .916-.916v-2.751a23.4 23.4 0 0 1-2.61.157 23.8 23.8 0 0 1-2.486-.118m5.884-12.184a.375.375 0 0 0 .55-.131l.01-.017.014-.03.75-1.794a.372.372 0 0 0-.031-.347l-.694-1.075a.4.4 0 0 0-.046-.058l-.254-.26a.374.374 0 0 0-.269-.11h-1.106a.375.375 0 0 0-.376.381l.034 2.237a.377.377 0 0 0 .155.3Zm-3.187 4.254 2.663.093-.299-1.332a.798.798 0 0 0-.321-.476l-1.893-1.31a1.034 1.034 0 0 0-.845-.008l-.018.008-1.886 1.31a.795.795 0 0 0-.322.476l-.305 1.332 2.659-.093q.283-.01.567 0M9.778 2.322a.372.372 0 0 1 .37.377l-.032 2.053a.374.374 0 0 0 .05.19l1.192 2.072a.371.371 0 0 0 .344.185l.268-.017a.3.3 0 0 1 .047 0l.274.018a.37.37 0 0 0 .343-.186l1.192-2.072a.374.374 0 0 0 .049-.19l-.031-2.053a.37.37 0 0 1 .37-.377h1.276l-1.111-1.136a.366.366 0 0 0-.238-.11h-.057a28.8 28.8 0 0 0-4.181 0H9.85a.372.372 0 0 0-.237.11L8.501 2.322Zm4.099 2.864L12.77 7.118a.411.411 0 0 0 .122.543l.881.614.457.317a.411.411 0 0 0 .599-.147l.742-1.414a.411.411 0 0 0-.124-.526l-1.394-.999a.411.411 0 0 1-.172-.33Zm3.38 3.1.837-1.263a.231.231 0 0 0 .028-.197l-.37-1.17a.22.22 0 0 0-.023-.053l-.533-.857a.231.231 0 0 0-.409.032l-.55 1.303a.23.23 0 0 0-.008.156l.612 1.988a.231.231 0 0 0 .416.061m-1.616 2.438 1.228-1.852-.781-2.471-.044.085-.126.24-.041.089-.004-.003-.789 1.501-.355.678.015.065.369 1.615Zm2.603-3.627-1.193 1.8-.791 1.193-.43.648.431.032 2.022-2.941a.22.22 0 0 0 .039-.163Zm-2.522-4.775.142.145.021.022.289.296v.007l.874 1.352.843 1.414.38 1.195V5.417a.44.44 0 0 0-.065-.23l-1.539-2.541a.594.594 0 0 0-.2-.203l-1.606-1.007.15.154Zm1.542 8.534a.193.193 0 0 0 .188-.11l.681-1.361a.52.52 0 0 0 .053-.194l.068-.941-1.8 2.531ZM9.626 2.489H8.488a.352.352 0 0 0-.253.11l-.263.267a.36.36 0 0 0-.044.055l-.701 1.085a.353.353 0 0 0-.029.33l.755 1.804.014.028.022.04a.353.353 0 0 0 .519.124L9.8 5.403a.356.356 0 0 0 .147-.282l.034-2.274a.353.353 0 0 0-.355-.358m-1.08 4.016a.413.413 0 0 0-.125.526l.743 1.414a.413.413 0 0 0 .599.147l.058-.04 1.282-.891a.409.409 0 0 0 .123-.543l-1.112-1.932v-.008a.411.411 0 0 1-.171.33ZM6.742 4.832l-.475.77a.33.33 0 0 0-.03.065l-.36 1.134a.286.286 0 0 0 .034.242l.762 1.149a.283.283 0 0 0 .507-.072l.572-1.864a.277.277 0 0 0-.01-.193l-.498-1.19a.284.284 0 0 0-.502-.041M8.3 10.647a.15.15 0 0 0 .142.067l.33-.032a.155.155 0 0 0 .134-.118l.344-1.508v-.01a.152.152 0 0 0-.015-.11l-.33-.627-.787-1.497-.041-.089a.153.153 0 0 0-.281.026l-.651 2.058a.157.157 0 0 0 .018.131Zm-.569.123.43-.032-2.125-3.207-.287-.434-.07.5a.424.424 0 0 0 .072.299ZM6.094 5.563v-.008l.845-1.362a.036.036 0 0 0 0-.032.035.035 0 0 1 0-.033l.864-1.336v-.007l.452-.463.502-.512.157-.162a.035.035 0 0 0-.044-.054l-1.378.859a.506.506 0 0 0-.171.174L5.786 5.176a.473.473 0 0 0-.07.249v1.32Zm-.356 2.694.065.897a.74.74 0 0 0 .077.277l.648 1.297a.234.234 0 0 0 .227.128l.783-.068Zm1.531 2.884-.297.007 2.734 6.976.11.008a31.74 31.74 0 0 0 4.808-.008l2.547-6.98a68.65 68.65 0 0 0-9.902-.003"/></svg>