<svg xmlns="http://www.w3.org/2000/svg" viewBox="0 0 24 24"><path fill="#44739e" d="M14.026 12.423h.253v.585h-.253Zm.981-2.682-.191-.019-.016.21.191.018ZM7.279 8.527l.031.207.189-.034-.031-.207Zm1.163-.21.03.207.19-.033-.032-.208ZM13.9 9.635l-.191-.018-.017.209.191.018Zm-.494 2.6h-1.618v3.805h1.618Zm-.242 3.545h-1.133v-1.25h1.133Zm0-1.521h-1.133v-1.76h1.133Zm-.379-4.73-.19-.017-.016.209.19.017Zm8.033.763-.191-.019-.016.21.19.018ZM17.4 9.967l-.19-.017-.017.209.19.017Zm1.189.113-.19-.018-.017.209.19.018Zm-2.379-.225-.192-.019-.016.209.191.019Zm2.684 2.524h.334v.673h-.334Zm-7.218-2.954-.192-.019-.016.209.191.019Zm7.95.753-.19-.017-.016.209.19.017Zm2.381.226-.191-.018-.016.209.19.019Zm-20.44 3.332h4.871v.567H1.567Zm1.9-4.125-.03-.207-.19.034.031.207Zm-1.1.198-.03-.207-.19.034.031.207Zm-.8 5.884h4.871v.567H1.567Zm3.004-6.281-.031-.207-.189.034.03.207ZM23 8.318v-.403h-5.015l-.626.463v.238l-.04.029.04.01v.155l.172-.11.044.01v.042h.122v-.02l.057.013v.7l-5.06-.484.297-1.634-.059-.4L5.374 8.3v.158l-4.362.832L1 9.821l.043-.008v7.26h6.38l.062-.075 3.508.017v.056h11.966v-6.58H23V9.95h-.051V8.318Zm-5.06.117.072-.052v.074h.122v-.134h-.039l.011-.008h.124v.075h.124v-.075h.975v.077h.122v-.077h1.019v.076h.122v-.075h1.015v.074h.123v-.074h1.012v.074h.016v.245h-3.192v.863h3.201v.427l-4.827-.463v-.88l-.064-.015h.122v-.132Zm4.798.355v.55h-1.355v-.55Zm-1.498 0v.55h-1.532v-.55Zm-3.37-.31v.083h-.028V8.53h-.034ZM6.438 16.871v-.526H1.567v.526H1.22V10.02l.11-.019-.031-.212-.079.011v-.021l4.688-.859-.147-.133 1.179-.21.017 8.294Zm1.032-.15-.011.013-.029-5.643.04.022Zm3.52.197-3.434-.009.091-.11v-.029l.25-.242v.006h3.093Zm-3.343-.262v-5.441h.181l.009 5.258Zm1.18-.473v-3.468h.377v3.465Zm.529 0v-3.468h.38v3.465Zm.539 0v-3.468h.376v3.465Zm.727.22V12.37H8.48v4.037h-.518l-.009-5.192 3.01.008.032 5.186Zm12.154.462H11.178l-.034-5.846h-.051v-.085l-3.74.012.027 5.886-.029.037-.205-.012-.018-8.312 2.386-.421.031.208.189-.032-.031-.209 1.014-.18.031.204.189-.035-.03-.204.409-.071.041 1.035-1.447-.11-.014.519 12.884 1.223Zm-12.15-7.54-.19-.018-.017.209.191.018Zm-4.959-.11-.03-.208-.19.034.032.208Zm.661-.517.032.208.188-.034-.03-.208ZM1.567 15.04h4.871v.568H1.567Zm0-2.608h4.871V13H1.567Zm5.033-.246h.253v.584H6.6Zm-5.033 2.202h4.871v.568H1.567Zm0-1.305h4.871v.568H1.567Zm16.691-.848h-1.617v3.805h1.617Zm-.242 3.545h-1.133v-1.25h1.133Zm0-1.521h-1.133v-1.76h1.133Z"/></svg>