<svg xmlns="http://www.w3.org/2000/svg" viewBox="0 0 24 24"><path fill="#44739e" d="M12.836 18.614A11.366 11.366 0 0 0 14.816 12a11.366 11.366 0 0 0-1.981-6.614 7.24 7.24 0 0 0-2.19-2.046 5.283 5.283 0 0 0-5.474 0 7.24 7.24 0 0 0-2.188 2.046A11.366 11.366 0 0 0 1.002 12a11.366 11.366 0 0 0 1.981 6.614 7.24 7.24 0 0 0 2.19 2.046 5.283 5.283 0 0 0 5.474 0 7.24 7.24 0 0 0 2.189-2.046m-4.927 1.981a5.311 5.311 0 0 1-4.252-2.467A10.525 10.525 0 0 1 1.835 12a10.525 10.525 0 0 1 1.822-6.126 5.311 5.311 0 0 1 4.252-2.466 5.311 5.311 0 0 1 4.253 2.466A10.525 10.525 0 0 1 13.989 12a10.525 10.525 0 0 1-1.823 6.126 5.311 5.311 0 0 1-4.257 2.466Zm0-16.739c-3.165 0-5.732 3.677-5.732 8.216s2.567 8.217 5.732 8.217c2.698 0 4.961-2.672 5.57-6.274.016-.089.03-.178.043-.268l.013-.095c.008-.062.11-1.107.11-1.584-.003-4.535-2.569-8.212-5.736-8.212m8.204 6.654h-.751a.13.13 0 0 1-.126-.071l-.58-1.123A12.88 12.88 0 0 1 14.935 12a13 13 0 0 1-.146 1.952.22.22 0 0 0 .04-.013l.474-.973a.13.13 0 0 1 .101-.071l1.267-.461c.308-.134.263-.591.229-.782-.094-.524-.45-1.122-.787-1.142m6.433-3.56a1.64 1.64 0 0 0-1.039-.589.28.28 0 0 0-.191.058.19.19 0 0 0-.053.084v.015l-.012.01-4.14 3.653a.818.818 0 0 0-.173 1.001 1.47 1.47 0 0 0 2.27.381l3.763-3.384.017-.039a1.357 1.357 0 0 0-.442-1.19m-9.176-.967a10.7 10.7 0 0 1 1.12 2.65l.951 1.761h.676a.863.863 0 0 1 .599.462.933.933 0 0 1 .312-.761l.514-.454-2.044-3.588c-.396-.66-.794-.898-1.18-.708l-.622.307a.693.693 0 0 0-.326.331m7.785 11.96c.564-.366.735-.672.55-.99l-2.861-5.021a1.585 1.585 0 0 1-.626.129 1.65 1.65 0 0 1-.266-.022 1.583 1.583 0 0 1-.976-.572q.021.083.036.165c.083.463-.026.796-.3.913l-.092.033 2.964 5.475c.152.282.299.441 1.025.201Zm-4.645-5.324-1.082.394h-.008l-.01.006-.479.982c-.017.035-.079.059-.161.077a11.9 11.9 0 0 1-.476 1.925l2.703-2.484Z"/></svg>