<svg xmlns="http://www.w3.org/2000/svg" viewBox="0 0 24 24"><path fill="#44739e" d="M3.359 12.697a.264.264 0 0 0 .102.069l.032.013-.206.183 1.132 1.372.338-.03.008.008 4.861 5.601 1.744-1.388-4.99-5.603.062-.41-1.2-1.292-.149.133-.006-.039v-.02a.286.286 0 0 0-.066-.125l-.958-1.038a.276.276 0 0 0-.39-.015L2.42 11.271a.275.275 0 0 0-.016.389Zm-.852-1.33 1.253-1.156a.145.145 0 0 1 .11-.038.146.146 0 0 1 .103.047l.953 1.036a.143.143 0 0 1 .039.11.146.146 0 0 1-.028.08.1.1 0 0 1-.019.021l-1.258 1.15a.146.146 0 0 1-.207-.008L2.5 11.573a.143.143 0 0 1-.036-.067.14.14 0 0 1 .043-.139m17.399-1.495a.273.273 0 0 0-.192.089l-.953 1.035a.27.27 0 0 0-.066.126v.059l-.149-.133-1.211 1.291.062.412-.006.006-4.984 5.595 1.744 1.39 4.869-5.611.338.03 1.132-1.371-.206-.184.033-.012a.275.275 0 0 0 .101-.07l.955-1.035a.276.276 0 0 0-.015-.39l-1.254-1.155a.275.275 0 0 0-.198-.072m1.411 1.43a.2.2 0 0 1 0 .037.143.143 0 0 1-.035.067l-.955 1.037a.147.147 0 0 1-.11.047.15.15 0 0 1-.099-.039l-1.253-1.155a.143.143 0 0 1-.047-.102.15.15 0 0 1 .021-.082.13.13 0 0 1 .017-.023l.955-1.036a.146.146 0 0 1 .207-.009l1.253 1.155a.15.15 0 0 1 .046.097Zm-8.972 7.056.015-.017.952-1.068 2.191-4.686.33-.064.713-1.628-.248-.12.028-.022a.264.264 0 0 0 .079-.095l.635-1.257a.275.275 0 0 0 .015-.21.27.27 0 0 0-.137-.16l-1.522-.77a.277.277 0 0 0-.37.122l-.634 1.258a.275.275 0 0 0-.03.138v.06l-.179-.087-.801 1.571.173.377v.01l-2.876 5.969.758.852-.33.263 1.253.522.323-.692Zm2.165-8.657.634-1.257a.15.15 0 0 1 .059-.062.14.14 0 0 1 .026-.012.147.147 0 0 1 .11.009l1.522.77a.15.15 0 0 1 .073.086.2.2 0 0 1 .007.037.143.143 0 0 1-.015.074L16.29 10.6a.143.143 0 0 1-.085.074.17.17 0 0 1-.046.007.14.14 0 0 1-.066-.016l-1.522-.77a.147.147 0 0 1-.072-.086.143.143 0 0 1 .011-.108m-1.78 8.964-.016-.013-.278.595.291-.011ZM10.647 8.001a.268.268 0 0 0-.087.192l-.047 1.408a.286.286 0 0 0 .032.139l.01.016.022.034h-.201l-.067 1.76.316.272-.096 5.697.11.127 2.107-4.356.006-1.481.276-.198-.038-1.777-.276-.005.017-.031a.264.264 0 0 0 .032-.119l.047-1.408a.275.275 0 0 0-.074-.197.28.28 0 0 0-.192-.088l-1.699-.055a.275.275 0 0 0-.198.07m1.999.159a.12.12 0 0 1 .022.031.16.16 0 0 1 .018.073l-.048 1.408a.147.147 0 0 1-.146.142h-.005l-1.698-.058a.145.145 0 0 1-.102-.046.147.147 0 0 1-.04-.11l.047-1.408a.154.154 0 0 1 .048-.103.145.145 0 0 1 .104-.038l1.703.057a.143.143 0 0 1 .097.052m-2.145 11.112-.001.05 1.608-.063-1.044-.436ZM6.049 8.445a.275.275 0 0 0-.016.21l.44 1.336a.28.28 0 0 0 .078.119l.016.013.032.025-.188.066.55 1.674.389.145v.009l1.109 3.157 2.022 2.27.049-2.937-1.183-3.25.19-.282-.652-1.65-.26.091v-.034a.275.275 0 0 0-.012-.123l-.44-1.337a.275.275 0 0 0-.348-.174l-1.617.537a.272.272 0 0 0-.159.135m1.817-.55a.143.143 0 0 1 .11.007.11.11 0 0 1 .032.022.13.13 0 0 1 .042.063l.44 1.337a.149.149 0 0 1-.093.186l-1.617.536a.13.13 0 0 1-.046.008.154.154 0 0 1-.066-.015.143.143 0 0 1-.059-.062.3.3 0 0 1-.013-.026l-.44-1.337a.147.147 0 0 1 .009-.11.145.145 0 0 1 .085-.073Zm8.845.981.23.117a.32.32 0 0 1 .141.428l-.635 1.26a.3.3 0 0 1-.065.087l.22.11-.738 1.688-.33.064-.925 1.98.711.417 1.535-1.724.45-.875-.014-.095.142-.153 1.816-3.541.406-.09.77-1.584-.175-.091.034-.02.018-.01a.286.286 0 0 0 .093-.11l.625-1.261a.275.275 0 0 0 .014-.21.277.277 0 0 0-.139-.159L19.37 4.35a.277.277 0 0 0-.37.125l-.622 1.263a.264.264 0 0 0-.028.121v.036l-.245-.127-.871 1.549.149.305-.005.01Zm1.777-3.08.623-1.263a.146.146 0 0 1 .05-.058.2.2 0 0 1 .034-.016.143.143 0 0 1 .11.008l1.528.753a.143.143 0 0 1 .074.084.147.147 0 0 1-.007.11l-.624 1.263a.143.143 0 0 1-.083.075.18.18 0 0 1-.047.007.15.15 0 0 1-.05-.009l-.015-.006-1.528-.754a.143.143 0 0 1-.074-.084.147.147 0 0 1 .011-.11ZM8.111 5.263a.28.28 0 0 0 .06.13l.013.014.027.029-.195.037.291 1.738.364.202v.01l.468 2.446.446 1.142-.181.269.015.078 1.119 3.06.043-2.574-.315-.271.07-1.825h.164a.32.32 0 0 1-.03-.146l.047-1.408a.314.314 0 0 1 .101-.22.317.317 0 0 1 .228-.086h.096l-.187-.919.231-.249-.398-1.733-.271.052.01-.034a.275.275 0 0 0 .008-.124l-.24-1.388a.275.275 0 0 0-.11-.178.268.268 0 0 0-.206-.046l-1.68.289a.275.275 0 0 0-.178.11.268.268 0 0 0-.046.206Zm-.087-1.519a.143.143 0 0 1 .095-.06l1.68-.29a.143.143 0 0 1 .11.025.17.17 0 0 1 .029.027.15.15 0 0 1 .03.068l.24 1.388v.015a.15.15 0 0 1-.122.155l-1.679.289h-.025a.15.15 0 0 1-.085-.027.143.143 0 0 1-.056-.081v-.014l-.242-1.386a.143.143 0 0 1 .025-.109M3.528 6.736a.275.275 0 0 0 .094.11l.016.01.035.02-.178.091.77 1.584.405.091v.008l2.797 5.427.923 1.038-1.071-3.049-.39-.144-.568-1.736.155-.054a.31.31 0 0 1-.079-.127l-.445-1.337a.312.312 0 0 1 .018-.243.317.317 0 0 1 .184-.164l.586-.195-.237-.444.149-.305-.872-1.549-.246.127v-.036a.27.27 0 0 0-.028-.121l-.623-1.263a.27.27 0 0 0-.158-.138.275.275 0 0 0-.21.013l-1.53.754a.278.278 0 0 0-.125.369Zm-.515-1.43a.143.143 0 0 1 .075-.086l1.529-.753a.14.14 0 0 1 .11-.008.2.2 0 0 1 .036.016.146.146 0 0 1 .049.058l.623 1.263a.147.147 0 0 1-.066.197l-1.529.753a.14.14 0 0 1-.064.016.18.18 0 0 1-.048-.008.15.15 0 0 1-.09-.075l-.621-1.263a.147.147 0 0 1-.008-.112Zm9.624 2.65a.32.32 0 0 1 .132.085.312.312 0 0 1 .086.228l-.047 1.408a.32.32 0 0 1-.022.11h.248l.039 1.841-.276.198-.006 1.369.723-1.495-.172-.378.226-.441.606-1.19.149.072a.31.31 0 0 1 .034-.146l.249-.495.457-2.401.364-.202.292-1.739-.199-.039.027-.029.013-.015a.264.264 0 0 0 .06-.129l.239-1.389a.275.275 0 0 0-.047-.205.268.268 0 0 0-.178-.11l-1.676-.291a.278.278 0 0 0-.319.22l-.238 1.398a.275.275 0 0 0 .006.123l.01.033-.27-.051-.398 1.733.23.25v.011Zm.89-3.747.24-1.388a.15.15 0 0 1 .032-.069.12.12 0 0 1 .027-.026.145.145 0 0 1 .11-.025l1.679.289a.145.145 0 0 1 .095.061.143.143 0 0 1 .025.11l-.24 1.388a.143.143 0 0 1-.059.095.14.14 0 0 1-.062.025h-.047l-1.678-.291a.146.146 0 0 1-.12-.169Zm9.436 10.69-.852-1.475a.275.275 0 0 0-.167-.129.28.28 0 0 0-.21.028l-1.219.704a.264.264 0 0 0-.09.084l-.02.029-.134-.241-1.585.804-.045.337h-.01l-.65.351-3.825 4.4-1.383-1.1v.578l-.318.012.62 1.278 6.56-3.641.387.151 1.523-.888-.097-.175h.04a.275.275 0 0 0 .157-.036l1.22-.705a.275.275 0 0 0 .128-.167.27.27 0 0 0-.03-.199m-.097.176a.146.146 0 0 1-.068.089l-1.22.704a.143.143 0 0 1-.073.02.11.11 0 0 1-.038 0 .146.146 0 0 1-.073-.044l-.016-.024-.852-1.475a.146.146 0 0 1 .053-.201l1.22-.704a.14.14 0 0 1 .11-.014.143.143 0 0 1 .089.068l.853 1.476a.15.15 0 0 1 .015.105m-12.407 4.291v-.059l-.836.666-.013-.016-2.874-3.311-1.376-.74-.045-.337-1.585-.803-.135.241-.02-.03a.264.264 0 0 0-.09-.083l-1.219-.706a.276.276 0 0 0-.377.102l-.851 1.476a.267.267 0 0 0-.028.209.275.275 0 0 0 .128.167l1.22.704a.275.275 0 0 0 .157.037h.04l-.097.175 1.522.887.388-.15h.008l6.552 3.636.973-2.006-.202-.11Zm-6.987-4.161-.851 1.476a.15.15 0 0 1-.09.069.15.15 0 0 1-.038 0 .143.143 0 0 1-.073-.02l-1.22-.704a.143.143 0 0 1-.068-.089.15.15 0 0 1 .014-.11l.853-1.476a.143.143 0 0 1 .089-.068.15.15 0 0 1 .11.014l1.22.704a.147.147 0 0 1 .054.204m9.94 1.956 1.878-2.109-.7-.41Zm3.558-3.995.381-.43-.036-.243Z"/></svg>