<svg xmlns="http://www.w3.org/2000/svg" viewBox="0 0 24 24"><path fill="#44739e" d="M12.277 7.171c8.288-.03 9.886-.353 10.723 1.162L20.87 3.64a2.449 2.449 0 0 0-2.231-1.441H6.793a2.45 2.45 0 0 0-1.969.99L1 8.349c1.43-1.54 1.63-1.144 11.277-1.178m7.832 2.203h-1.522a.88.88 0 0 0-.88.88v9.35a.88.88 0 0 0 .88.88h1.522a.88.88 0 0 0 .88-.88v-9.35a.88.88 0 0 0-.88-.88m-.761 3.102a.92.92 0 1 1 .92-.919.92.92 0 0 1-.92.919m-3.433-3.102h-1.523a.88.88 0 0 0-.885.88v9.35a.88.88 0 0 0 .885.88h1.523a.886.886 0 0 0 .885-.88v-9.35a.886.886 0 0 0-.885-.88m-.761 3.102a.92.92 0 1 1 .916-.916.92.92 0 0 1-.916.916m-3.433-3.102h-1.523a.88.88 0 0 0-.88.88v9.35a.88.88 0 0 0 .88.88h1.523a.886.886 0 0 0 .88-.88v-9.35a.886.886 0 0 0-.88-.88m-.762 3.102a.92.92 0 1 1 .92-.919.92.92 0 0 1-.92.919m9.97-4.569H3.071A2.024 2.024 0 0 0 1.048 9.93v9.848a2.023 2.023 0 0 0 2.023 2.023h17.858a2.023 2.023 0 0 0 2.023-2.023V9.93a2.024 2.024 0 0 0-2.023-2.023M3.651 12.186a1.173 1.173 0 1 1 1.173-1.176 1.174 1.174 0 0 1-1.173 1.176m18.228 7.381a1.3 1.3 0 0 1-1.299 1.301H9.62a1.301 1.301 0 0 1-1.302-1.301v-9.416A1.302 1.302 0 0 1 9.62 8.849h10.96a1.301 1.301 0 0 1 1.301 1.302Z"/></svg>