<svg xmlns="http://www.w3.org/2000/svg" viewBox="0 0 24 24"><path fill="#44739e" d="M15.877 7.243a.156.156 0 0 0-.051.214l2.31 3.341a.165.165 0 0 0 .22.047.156.156 0 0 0 .05-.22l-2.31-3.341a.165.165 0 0 0-.219-.041m2.561 2.426V7.373a.161.161 0 1 0-.321 0v2.296a.161.161 0 1 0 .321 0m-2.635 1.045a.161.161 0 0 0 .32 0V8.418a.161.161 0 0 0-.32 0Zm-.788-3.333a.156.156 0 0 0-.143-.169.1.1 0 0 0-.026 0h-1.695a.157.157 0 0 0-.027.314.1.1 0 0 0 .027 0h1.695a.156.156 0 0 0 .169-.145m-2.32-.165a.157.157 0 0 0-.16.152v3.346a.161.161 0 0 0 .321 0V7.373a.156.156 0 0 0-.161-.157m2.156 3.655a.157.157 0 0 0 .027-.314H13.14a.157.157 0 0 0-.027.314.1.1 0 0 0 .027 0Zm-1.7-2.109a.156.156 0 0 0 0 .312h1.379a.156.156 0 0 0 0-.312Zm-2.233-1.544a.9.9 0 0 0-.146 0h-.77a.157.157 0 0 0-.026.313.1.1 0 0 0 .026 0h.776a.687.687 0 0 1 .739.631.77.77 0 0 1 0 .131.638.638 0 0 1-.565.702.7.7 0 0 1-.11 0h-.822a.157.157 0 0 0-.026.314h.85a.949.949 0 0 0 .99-.908.9.9 0 0 0 0-.11.998.998 0 0 0-.916-1.073m-1.622.155v3.341a.161.161 0 0 0 .321 0V7.373a.161.161 0 0 0-.321 0M5.094 9.044a1.783 1.783 0 0 0 1.736 1.827 1.829 1.829 0 0 0 0-3.655 1.783 1.783 0 0 0-1.736 1.828m3.139 0a1.465 1.465 0 0 1-1.412 1.513 1.517 1.517 0 0 1 0-3.027 1.465 1.465 0 0 1 1.412 1.514M19.055 4.75H4.948A3.948 3.948 0 0 0 1 8.701v6.6a3.948 3.948 0 0 0 3.948 3.948h6.086a.42.42 0 0 0 .043-.839.3.3 0 0 0-.043 0H4.948a3.109 3.109 0 0 1-3.109-3.109v-6.6A3.109 3.109 0 0 1 4.945 5.59h14.107a3.109 3.109 0 0 1 3.109 3.111v6.6a3.109 3.109 0 0 1-3.109 3.109H13.53a.42.42 0 0 0 0 .839h5.522A3.948 3.948 0 0 0 23 15.301v-6.6a3.948 3.948 0 0 0-3.945-3.951"/></svg>