<svg xmlns="http://www.w3.org/2000/svg" viewBox="0 0 24 24"><path fill="#44739e" d="M10.704 13.239a1.438 1.438 0 0 0-1.401 1.474 1.438 1.438 0 0 0 1.401 1.475 1.476 1.476 0 0 0 0-2.949m-.007 2.696a1.224 1.224 0 0 1 0-2.443 1.224 1.224 0 0 1 0 2.443m7.63.166v-2.78a.129.129 0 0 0-.133-.124.129.129 0 0 0-.129.129v2.78a.133.133 0 1 0 .267 0Zm1.495-.886a1.1 1.1 0 0 1-.22.421.997.997 0 0 1-.45.295 1 1 0 0 1-.262.048h-.348a.131.131 0 0 0 .024.261h.338a1.2 1.2 0 0 0 .33-.062 1.243 1.243 0 0 0 .574-.377 1.39 1.39 0 0 0 .266-.522 2.1 2.1 0 0 0 .067-.55v-.008a2 2 0 0 0-.067-.538 1.35 1.35 0 0 0-.249-.5 1.22 1.22 0 0 0-.396-.322 1.62 1.62 0 0 0-.48-.152 1.5 1.5 0 0 0-.205-.016l.011.007h-.179a.131.131 0 0 0 .024.261h.15c.059 0 .11.009.169.018a1.29 1.29 0 0 1 .396.122.97.97 0 0 1 .311.252 1.12 1.12 0 0 1 .2.403 1.87 1.87 0 0 1 .058.473v.008a1.7 1.7 0 0 1-.062.478m-3.958-.464h1.172a.131.131 0 0 0-.024-.26h-1.153a.129.129 0 0 0-.128.13.13.13 0 0 0 .133.13m-.248 1.359v-2.782a.131.131 0 0 0-.135-.128.13.13 0 0 0-.128.131v2.779a.134.134 0 0 0 .267 0Zm1.664-2.91h-1.44a.131.131 0 0 0 .024.261h1.416a.131.131 0 0 0 0-.261m-1.558 2.914a.13.13 0 0 0 .133.127h1.43a.1.1 0 0 0 .025 0 .131.131 0 0 0-.025-.261H15.85a.129.129 0 0 0-.128.13Zm-2.52-1.944a.134.134 0 0 0-.182-.04h-.007a.125.125 0 0 0-.033.174.97.97 0 0 0 .12.156 1.36 1.36 0 0 0 .527.312 2.48 2.48 0 0 1 .573.227.57.57 0 0 1 .091.079.136.136 0 0 0 .187.009.128.128 0 0 0 .007-.18.95.95 0 0 0-.129-.11 2.56 2.56 0 0 0-.636-.266 1.08 1.08 0 0 1-.426-.247v-.007a.7.7 0 0 1-.092-.107m.483 2.066a1.34 1.34 0 0 0 .392-.057.91.91 0 0 0 .356-.199.77.77 0 0 0 .249-.556l.017.009v-.013a.136.136 0 0 0-.271 0v.009a.517.517 0 0 1-.164.369.67.67 0 0 1-.259.143 1 1 0 0 1-.307.044 1.06 1.06 0 0 1-.355-.058.8.8 0 0 1-.294-.177.56.56 0 0 1-.168-.396v-.016a.141.141 0 0 0-.134-.14.134.134 0 0 0-.142.127v.025a.803.803 0 0 0 .244.577.99.99 0 0 0 .396.24 1.43 1.43 0 0 0 .44.069m.914-2.267a.79.79 0 0 0-.324-.582 1.012 1.012 0 0 0-.596-.182h-.009a1.05 1.05 0 0 0-.325.048.78.78 0 0 0-.302.187.67.67 0 0 0-.192.429.137.137 0 0 0 .12.132.136.136 0 0 0 .152-.119.404.404 0 0 1 .12-.26.54.54 0 0 1 .2-.117.74.74 0 0 1 .24-.039h.009a.77.77 0 0 1 .44.13h-.023a.524.524 0 0 1 .22.387.135.135 0 1 0 .27-.014M7.131 13.2a.13.13 0 0 0-.128.131v2.779a.133.133 0 1 0 .266 0v-2.783a.13.13 0 0 0-.138-.127m.445 2.78a.13.13 0 0 0-.13.13.13.13 0 0 0 .133.126H8.92a.1.1 0 0 0 .024 0 .131.131 0 0 0-.024-.26ZM4.29 14.201a1.236 1.236 0 0 1 .463-.574 1.1 1.1 0 0 1 1.156 0 .137.137 0 0 0 .187-.038.131.131 0 0 0-.041-.181 1.363 1.363 0 0 0-1.45 0 1.455 1.455 0 0 0-.565.687 1.65 1.65 0 0 0-.124.638v.056a1.6 1.6 0 0 0 .177.682 1.42 1.42 0 0 0 .512.55 1.405 1.405 0 0 0 .72.213h.026a1.43 1.43 0 0 0 .99-.4.129.129 0 0 0 0-.182.135.135 0 0 0-.192 0 1.166 1.166 0 0 1-.801.33h-.016a1.15 1.15 0 0 1-.582-.173 1.225 1.225 0 0 1-.419-.453 1.35 1.35 0 0 1-.151-.573v-.043a1.4 1.4 0 0 1 .11-.539M19.055 4.75H4.948A3.948 3.948 0 0 0 1 8.701v6.6a3.948 3.948 0 0 0 3.948 3.948h6.086a.42.42 0 0 0 .043-.839.3.3 0 0 0-.043 0H4.948a3.109 3.109 0 0 1-3.109-3.109v-6.6A3.109 3.109 0 0 1 4.945 5.59h14.107a3.109 3.109 0 0 1 3.109 3.111v6.6a3.109 3.109 0 0 1-3.109 3.109H13.53a.42.42 0 0 0 0 .839h5.522A3.948 3.948 0 0 0 23 15.301v-6.6a3.948 3.948 0 0 0-3.945-3.951"/></svg>