<svg xmlns="http://www.w3.org/2000/svg" viewBox="0 0 24 24"><path fill="#44739e" d="M15.483 15.012c-1.833-2.213-2.147-2.462-2.488-2.042a14.43 14.43 0 0 0-.118 3.365l.04 3.195h.916l.039-2.2a12 12 0 0 1 .132-2.187c.052 0 .917 1.002 1.924 2.239 1.703 2.069 1.86 2.226 2.227 2.187l.392-.039.041-3.195c.025-3.301 0-3.549-.511-3.549s-.643.458-.603 2.462a10.24 10.24 0 0 1-.052 1.938 22.7 22.7 0 0 1-1.939-2.174m-9.69 3.653a3.023 3.023 0 0 0 2.422.931 2.84 2.84 0 0 0 1.638-.367 3.389 3.389 0 0 0-1.376-6.391 4.17 4.17 0 0 0-1.388.144 3.481 3.481 0 0 0-1.296 5.683m3.34-4.582a2.172 2.172 0 0 1 1.243 1.492 2.24 2.24 0 0 1-2.292 2.947 2.167 2.167 0 0 1-2.043-2.279 2.18 2.18 0 0 1 3.092-2.16m4.897-8.63 2.173-.027c1.913-.039 2.201-.066 2.332-.275a.374.374 0 0 0 0-.459c-.131-.196-.433-.222-2.75-.261a8.64 8.64 0 0 0-2.776.131 12.32 12.32 0 0 0-.157 3.274v3.117l.34.13a26.24 26.24 0 0 0 5.173 0 .55.55 0 0 0 0-.916 11.52 11.52 0 0 0-2.292-.132H14.03V8.333h1.846a11.17 11.17 0 0 0 2.096-.131.547.547 0 0 0 0-.916 11.17 11.17 0 0 0-2.096-.131H14.03Zm-7.739 5.591a10.02 10.02 0 0 0 .17-2.304L6.5 6.605 8.399 8.87c2.737 3.287 2.749 3.274 2.749-1.048a28.6 28.6 0 0 0-.104-3.234.547.547 0 0 0-.773-.118c-.209.157-.248.433-.301 2.292L9.905 8.87 8.072 6.644c-1.546-1.873-1.893-2.227-2.188-2.24a.557.557 0 0 0-.497.249 20.04 20.04 0 0 0-.131 3.196c0 2.672.026 2.947.235 3.142.289.262.603.289.8.053m6.168 10.778H3.161V2.178h17.678v8.552c0 6.482.039 8.59.157 8.708a.614.614 0 0 0 .891-.091c.079-.171.131-3.235.131-9.037 0-8.617 0-8.787-.261-9.048S21.324 1 12 1s-9.494 0-9.757.262-.261.431-.261 10.738 0 10.477.261 10.738.433.262 9.705.262c5.854 0 9.52-.052 9.664-.13a.565.565 0 0 0 .275-.799c-.13-.236-.393-.249-9.428-.249"/></svg>