<svg xmlns="http://www.w3.org/2000/svg" fill="#44739e" viewBox="0 0 24 24"><path d="M10.822 13.125a1.307 1.307 0 0 0-1.274 1.34 1.307 1.307 0 0 0 1.274 1.341 1.342 1.342 0 0 0 0-2.681m-.007 2.451a1.113 1.113 0 0 1 0-2.221 1.113 1.113 0 0 1 0 2.221m6.937.151V13.2a.117.117 0 0 0-.121-.113.117.117 0 0 0-.117.117v2.527a.121.121 0 1 0 .242 0zm1.359-.806a1 1 0 0 1-.2.383.906.906 0 0 1-.409.268.92.92 0 0 1-.238.044h-.317a.119.119 0 0 0 .022.237h.307a1.1 1.1 0 0 0 .3-.056 1.13 1.13 0 0 0 .522-.343 1.26 1.26 0 0 0 .242-.474 1.9 1.9 0 0 0 .061-.5v-.008a1.83 1.83 0 0 0-.061-.489 1.23 1.23 0 0 0-.226-.454 1.11 1.11 0 0 0-.36-.293 1.47 1.47 0 0 0-.437-.138 1.4 1.4 0 0 0-.186-.015l.01.007h-.163a.119.119 0 0 0 .022.237h.136c.054 0 .1.008.154.016a1.17 1.17 0 0 1 .36.111.885.885 0 0 1 .283.229 1.02 1.02 0 0 1 .182.367 1.7 1.7 0 0 1 .052.43v.007a1.55 1.55 0 0 1-.056.434m-3.598-.421h1.065a.119.119 0 0 0-.022-.237h-1.048a.117.117 0 0 0-.116.118.118.118 0 0 0 .121.119m-.226 1.235v-2.529a.119.119 0 0 0-.122-.116.118.118 0 0 0-.117.119v2.526a.122.122 0 0 0 .243 0zM16.8 13.09h-1.309a.119.119 0 0 0 .022.237H16.8a.119.119 0 0 0 0-.237m-1.416 2.649a.118.118 0 0 0 .121.115h1.3a.08.08 0 0 0 .022 0 .119.119 0 0 0-.022-.237H15.5a.117.117 0 0 0-.116.118zm-2.291-1.768a.122.122 0 0 0-.166-.036h-.006a.114.114 0 0 0-.03.158.88.88 0 0 0 .109.142 1.236 1.236 0 0 0 .479.284 2.25 2.25 0 0 1 .521.206.52.52 0 0 1 .083.072.124.124 0 0 0 .17.008.116.116 0 0 0 .006-.164.86.86 0 0 0-.117-.1 2.33 2.33 0 0 0-.578-.241.98.98 0 0 1-.388-.225v-.006a.63.63 0 0 1-.083-.098m.439 1.879a1.22 1.22 0 0 0 .356-.052.83.83 0 0 0 .324-.181.7.7 0 0 0 .226-.506l.016.009v-.012a.124.124 0 0 0-.247 0v.008a.47.47 0 0 1-.149.335.61.61 0 0 1-.235.13.91.91 0 0 1-.279.04.96.96 0 0 1-.323-.052.73.73 0 0 1-.267-.161.51.51 0 0 1-.153-.36v-.015a.128.128 0 0 0-.122-.127.122.122 0 0 0-.129.115v.023a.73.73 0 0 0 .222.525.9.9 0 0 0 .36.218 1.3 1.3 0 0 0 .4.063m.831-2.061a.718.718 0 0 0-.295-.529.92.92 0 0 0-.542-.166h-.008a.95.95 0 0 0-.295.044.71.71 0 0 0-.275.17.61.61 0 0 0-.174.39.125.125 0 0 0 .109.12.124.124 0 0 0 .138-.108.367.367 0 0 1 .109-.237.49.49 0 0 1 .182-.106.67.67 0 0 1 .218-.036h.008a.7.7 0 0 1 .4.119h-.021a.476.476 0 0 1 .2.351.1231.1231 0 1 0 .246-.012m-6.789-.699a.118.118 0 0 0-.117.119v2.526a.121.121 0 1 0 .242 0v-2.53a.118.118 0 0 0-.125-.115m.404 2.527a.118.118 0 0 0-.118.118.118.118 0 0 0 .121.115H9.2a.08.08 0 0 0 .022 0 .119.119 0 0 0-.022-.237ZM4.991 14a1.124 1.124 0 0 1 .421-.522 1 1 0 0 1 1.051 0 .125.125 0 0 0 .17-.035.119.119 0 0 0-.038-.164 1.239 1.239 0 0 0-1.318 0 1.323 1.323 0 0 0-.513.624 1.5 1.5 0 0 0-.113.58v.051a1.456 1.456 0 0 0 .161.62 1.29 1.29 0 0 0 .465.5 1.277 1.277 0 0 0 .655.194h.023a1.3 1.3 0 0 0 .9-.364.117.117 0 0 0 0-.165.123.123 0 0 0-.174 0 1.06 1.06 0 0 1-.728.3h-.015a1.044 1.044 0 0 1-.529-.158 1.114 1.114 0 0 1-.381-.411 1.23 1.23 0 0 1-.137-.521v-.039a1.27 1.27 0 0 1 .1-.49m13.423-8.592H5.589A3.589 3.589 0 0 0 2 9v6a3.589 3.589 0 0 0 3.589 3.589h5.533a.382.382 0 0 0 .039-.763.25.25 0 0 0-.039 0H5.589A2.826 2.826 0 0 1 2.763 15V9a2.826 2.826 0 0 1 2.823-2.829h12.825A2.826 2.826 0 0 1 21.237 9v6a2.826 2.826 0 0 1-2.826 2.826h-5.02a.382.382 0 0 0 0 .763h5.02A3.589 3.589 0 0 0 22 15V9a3.589 3.589 0 0 0-3.586-3.592"/></svg>