<svg xmlns="http://www.w3.org/2000/svg" fill="#44739e" viewBox="0 0 24 24"><path d="M15.1757 14.6826c-1.647-1.988-1.929-2.212-2.235-1.835a12.96 12.96 0 0 0-.106 3.023l.036 2.871h.823l.035-1.977a10.77 10.77 0 0 1 .118-1.964c.047 0 .824.9 1.729 2.011 1.53 1.859 1.671 2 2 1.965l.353-.035.036-2.871c.023-2.965 0-3.188-.459-3.188s-.577.412-.541 2.212a9.2 9.2 0 0 1-.047 1.741 20.4 20.4 0 0 1-1.742-1.953m-8.705 3.282a2.716 2.716 0 0 0 2.176.836 2.55 2.55 0 0 0 1.471-.33 3.045 3.045 0 0 0-1.236-5.741 3.75 3.75 0 0 0-1.247.129 3.127 3.127 0 0 0-1.164 5.106m3-4.117a1.951 1.951 0 0 1 1.117 1.341 2.012 2.012 0 0 1-2.059 2.647 1.947 1.947 0 0 1-1.835-2.047 1.958 1.958 0 0 1 2.777-1.941m4.4-7.753 1.952-.024c1.718-.035 1.977-.059 2.095-.247a.336.336 0 0 0 0-.412c-.118-.176-.389-.2-2.471-.235a7.76 7.76 0 0 0-2.494.118 11.07 11.07 0 0 0-.141 2.941v2.8l.306.117a23.57 23.57 0 0 0 4.647 0 .494.494 0 0 0 0-.823 10.35 10.35 0 0 0-2.059-.118h-1.835v-1.529h1.658a10.03 10.03 0 0 0 1.883-.118.491.491 0 0 0 0-.823 10.03 10.03 0 0 0-1.883-.118h-1.658zm-6.953 5.023a9 9 0 0 0 .153-2.07l.035-1.918 1.706 2.035c2.459 2.953 2.47 2.941 2.47-.941a25.7 25.7 0 0 0-.094-2.906.491.491 0 0 0-.694-.106c-.188.141-.223.389-.271 2.059l-.058 1.894-1.647-2c-1.389-1.682-1.7-2-1.965-2.012a.5.5 0 0 0-.447.224 18 18 0 0 0-.118 2.871c0 2.4.024 2.647.212 2.823.259.235.541.259.718.047m5.541 9.683h-8.353V3.1526h15.882v7.683c0 5.823.035 7.717.141 7.823a.552.552 0 0 0 .8-.082c.071-.153.118-2.906.118-8.118 0-7.741 0-7.894-.235-8.129s-.389-.235-8.765-.235-8.529 0-8.765.235-.235.388-.235 9.647 0 9.412.235 9.647.389.235 8.718.235c5.259 0 8.553-.047 8.682-.117a.508.508 0 0 0 .247-.718c-.117-.212-.353-.223-8.47-.223"/></svg>