<svg xmlns="http://www.w3.org/2000/svg" viewBox="0 0 24 24"><path fill="#44739e" d="m7.657 15.221-.026-.642-1.352-.135-.222.097 1.371.12.025.663Zm-2.076-.832-1.351-.136-.223.098 1.372.118.024.664.205-.104Zm14.294-6.153-3.032-.187-.072.081 3.039.194ZM18.803 9.69l-3.237-.207-.06.068 3.234.226Zm.61-.827L16.29 8.67l-.074.082 3.132.2Zm-.462.627-3.214-.198-.061.067 3.22.205Zm1.075-1.459-3.003-.185-.069.077 3.014.186Zm-.924 1.255-3.186-.196-.068.077 3.195.197Zm.616-.836-3.058-.196-.08.089 3.076.19Zm-.532.721.068-.094-3.148-.2-.079.088 3.159.195Zm.378-.512-3.095-.19-.068.077 3.104.191Zm.661 5.86 2.574-4.694L23 7.653a.363.363 0 0 0-.339-.37L6.882 6.212a.715.715 0 0 0-.418.1l-5.107 3.08c-.081.049-.347.23-.343.491l.034 2.581Zm-5.781-3.639a.75.75 0 0 0-.2.4l.032 1.598-10.49-1.137-.099-1.525v-.039a.267.267 0 0 1 .156-.288l.83-.419 10.267.807ZM1.561 9.724l5.106-3.075a.323.323 0 0 1 .188-.039l10.67.725-.35.392 2.985.184.279-.378 2.164.146-.12 2.05-2.397 4.435-2.46-.271.053-2.486a.42.42 0 0 1 .081-.238l.929-1.261-3.252-.228-.233.263-10.56-.869h-.056l-.937.478-.011-.002a.648.648 0 0 0-.349.635l.129 1.914 10.901 1.148v.276L1.44 12.11l-.03-2.231a.357.357 0 0 1 .151-.155m3.894 5.456.11.012a.042.042 0 0 0 .035-.011.043.043 0 0 0 .013-.034v-.044Zm-1.228-.993 1.358.136v-.041a.044.044 0 0 0-.039-.043L3.97 14.09a.044.044 0 0 0-.03.012.044.044 0 0 0-.013.033l.008.17.285-.124Zm2.053.191 1.36.136v-.039a.046.046 0 0 0-.042-.045l-1.61-.151a.044.044 0 0 0-.031.013.048.048 0 0 0-.015.037l.009.19.33-.142Zm8.727 1.768.375.043a.198.198 0 0 0 .157-.049.202.202 0 0 0 .071-.147l.019-.572a.205.205 0 0 0-.056-.148l-.431-.456a.18.18 0 0 0-.13-.055.176.176 0 0 0-.121.047.203.203 0 0 0-.065.15v.983a.205.205 0 0 0 .181.204m-.676 1.092 3.107.389.052-3.245-3.19-.338Zm1.882-2.098a.306.306 0 0 1 .096-.22.277.277 0 0 1 .39.012l.431.456a.306.306 0 0 1 .084.22l-.02.572a.3.3 0 0 1-.11.22.308.308 0 0 1-.198.074h-.035l-.375-.044a.302.302 0 0 1-.269-.301Zm-1.485-.181a.305.305 0 0 1 .095-.22.277.277 0 0 1 .39.012l.431.455a.308.308 0 0 1 .084.22l-.02.572a.3.3 0 0 1-.11.22.308.308 0 0 1-.198.074h-.035l-.375-.043a.302.302 0 0 1-.268-.301ZM1 12.618l.031.371a.77.77 0 0 0 .058.237l.998 2.327a.453.453 0 0 0 .365.274l11.781 1.411-.033-3.203Zm4.662 2.64a.137.137 0 0 1-.096.039h-.015l-1.557-.172a.14.14 0 0 1-.11-.076l1.462.163-.024-.682-1.572-.137.093-.04-.009-.208a.141.141 0 0 1 .042-.11.137.137 0 0 1 .11-.039l1.571.146a.142.142 0 0 1 .129.137l.026.866a.14.14 0 0 1-.05.108Zm2.052.227a.147.147 0 0 1-.098.037H7.6l-1.595-.183a.143.143 0 0 1-.122-.11l1.512.168-.024-.676-1.564-.143.04-.016-.011-.229a.148.148 0 0 1 .044-.11.146.146 0 0 1 .11-.04l1.61.149a.145.145 0 0 1 .131.141l.026.894a.147.147 0 0 1-.047.112Zm9.874-1.087-.051 3.235 1.281.154a.455.455 0 0 0 .457-.243l3.484-6.77a.63.63 0 0 0 .068-.281V9.96l-2.53 4.73ZM7.448 15.4l.163.019a.048.048 0 0 0 .036-.012.05.05 0 0 0 .016-.037v-.077Zm9.044.927.375.043a.206.206 0 0 0 .229-.196l.019-.572a.205.205 0 0 0-.056-.147l-.431-.457a.18.18 0 0 0-.13-.055.176.176 0 0 0-.121.048.203.203 0 0 0-.065.149v.984a.206.206 0 0 0 .18.203"/></svg>