<svg xmlns="http://www.w3.org/2000/svg" viewBox="0 0 24 24"><path fill="#44739e" d="M17.972 2.359H6.029A5.035 5.035 0 0 0 1 7.387v9.226a5.035 5.035 0 0 0 5.029 5.028h11.943A5.034 5.034 0 0 0 23 16.613V7.387a5.034 5.034 0 0 0-5.028-5.028m3.929 14.254a3.934 3.934 0 0 1-3.929 3.928H6.029a3.934 3.934 0 0 1-3.93-3.928V7.387a3.933 3.933 0 0 1 3.93-3.928h11.943a3.933 3.933 0 0 1 3.929 3.928Zm-7.278 1.445h.73v.73h-.73Zm.604 1.191h.73v.73h-.73Zm-2.399-1.191h.728v.73h-.728Zm2.399-1.19h.73v.727h-.73Zm-1.795 2.381h.728v.73h-.728Zm0-2.381h.728v.727h-.728Zm7.183 0h.729v.727h-.729Zm-1.796 0h.728v.727h-.728Zm1.192 1.19h.73v.73h-.73Zm-3.59 0h.728v.73h-.728Zm-4.785-1.19h.727v.727h-.727Zm5.387 2.381h.728v.73h-.728Zm1.796 0h.728v.73h-.728Zm-1.796-2.381h.728v.727h-.728Zm1.193 1.19h.728v.73h-.728ZM4.578 19.249h.728v.73h-.728Zm1.068-1.191h.727v.73h-.727Zm.602 1.191h.728v.73h-.728Zm0-2.381h.728v.727h-.728Zm-2.401 1.19h.731v.73h-.731Zm.605-1.19h.73v.727h-.73Zm-1.796 0h.727v.727h-.727Zm7.183 2.381h.73v.73h-.73Zm1.797 0h.727v.73h-.727Zm-1.797-2.381h.73v.727h-.73Zm1.194 1.19h.728v.73h-.728Zm-2.99 1.191h.728v.73h-.728Zm1.193-1.191h.73v.73h-.73Zm-1.795 0h.727v.73h-.727Zm.602-1.19h.728v.727h-.728Z"/></svg>