<svg xmlns="http://www.w3.org/2000/svg" viewBox="0 0 24 24"><path fill="#44739e" d="M10.383 22.914c-4.357-.661-7.936-3.865-9.027-8.082-.463-1.791-.475-3.779-.032-5.551.78-3.118 2.901-5.725 5.847-7.182C8.7 1.342 10.211.999 12.003 1c1.09.001 1.872.097 2.823.345 3.807.997 6.843 4.034 7.825 7.83.251.973.349 1.763.349 2.829 0 .546-.038 1.199-.09 1.556-.709 4.866-4.51 8.672-9.348 9.361-.764.108-2.441.105-3.179-.007M7.87 12.721c.577-.273.568-1.166-.014-1.442-.384-.182-.851-.033-1.039.332-.363.702.344 1.447 1.053 1.11m3.02-.022c.394-.241.528-.719.303-1.087-.175-.287-.442-.431-.744-.4-.821.084-1.025 1.128-.294 1.501.26.133.502.128.735-.014m3.073-.042c.495-.362.435-1.084-.112-1.363-.259-.132-.501-.128-.734.014-.546.333-.546 1.051 0 1.394.23.144.616.124.846-.045m2.987.019c.435-.285.437-1.059.003-1.343-.222-.145-.562-.168-.803-.054-.577.274-.591 1.153-.023 1.443.224.115.611.093.823-.046"/></svg>