<svg xmlns="http://www.w3.org/2000/svg" viewBox="0 0 24 24"><path fill="#44739e" d="M10.2359 23.906c-4.7534-.7205-8.6575-4.2157-9.8475-8.8163-.5055-1.9544-.518-4.123-.0349-6.0556.8505-3.402 3.1651-6.2453 6.3782-7.8352C8.3998.3735 10.0487-.0015 12.0037 0c1.1887.0009 2.042.1053 3.0787.3766 4.1541 1.0871 7.4654 4.4003 8.5366 8.5415.2746 1.0614.381 1.9233.381 3.0858 0 .5959-.041 1.308-.0978 1.698-.7734 5.3082-4.9207 9.4608-10.1985 10.2115-.8336.1186-2.6626.1147-3.4678-.0074M7.4946 12.787c.629-.2987.6196-1.272-.015-1.5733-.4187-.1988-.9283-.0361-1.134.362-.396.7661.375 1.5789 1.149 1.2113m3.2943-.0245c.4304-.2626.576-.7839.3312-1.1857-.191-.3135-.4824-.47-.8125-.4363-.895.0913-1.1175 1.2303-.3198 1.6374.2834.1446.5472.1395.801-.0153zm3.353-.0453c.5391-.3953.4745-1.1827-.1222-1.4872-.2835-.1447-.5472-.1396-.8011.0152-.5959.3635-.5959 1.1466 0 1.5208.2505.1574.6723.135.9233-.049zm3.258.0206c.4744-.311.4763-1.1554.0031-1.4656-.2414-.1583-.6128-.1831-.8752-.0585-.6296.299-.645 1.258-.0252 1.5744.244.1246.6666.1009.8971-.0503z"/></svg>