<svg xmlns="http://www.w3.org/2000/svg" viewBox="0 0 24 24"><path fill="#44739e" d="M5 16.502h14a2.005 2.005 0 0 0 2-2v-6a2.005 2.005 0 0 0-2-2H5a2.005 2.005 0 0 0-2 2v6a2.005 2.005 0 0 0 2 2m2.001 2.999v-1H5a3.85 3.85 0 0 1-2.825-1.174A3.85 3.85 0 0 1 1 14.502v-6a3.85 3.85 0 0 1 1.175-2.825A3.85 3.85 0 0 1 5 4.499h14a3.85 3.85 0 0 1 2.825 1.175A3.85 3.85 0 0 1 23 8.502v6a4.01 4.01 0 0 1-4 3.999h-2.001v1Zm3.499-6.999a.984.984 0 1 0-.712-.288.965.965 0 0 0 .712.288m-3 0a.982.982 0 1 0-.713-.288.965.965 0 0 0 .713.288m6 0a.982.982 0 1 0-.712-.288.964.964 0 0 0 .712.288m3 0a.982.982 0 1 0-.713-.288.968.968 0 0 0 .713.288"/></svg>