<svg xmlns="http://www.w3.org/2000/svg" fill="#44739e" viewBox="0 0 24 24"><path d="m19.843 13.663-.512.064.001.235-.414.047.01.869 1.316-.181.021-.854-.413.057zm-1.617.175-.554.07.002.253-.447.07.009.875 1.455-.202.002-.869-.458.059zm-1.692.251-.553.069.001.254-.447.05.009.894 1.455-.202.002-.868-.458.058zm-1.751.215-.562.071.001.257-.455.051.01.909 1.479-.205.001-.883-.465.06zm-1.767.247-.563.071.002.257-.455.051.01.909 1.478-.205.002-.883-.465.06zm-1.764.255-.562.071.001.258-.454.051.009.908 1.479-.205.001-.882-.465.059zm-1.763.247-.563.071.001.257-.454.051.01.909 1.478-.205.002-.882-.465.059zm-1.827.25-.562.071.001.257-.454.051.01.909 1.478-.205.002-.882-.466.059zM21.6 12.206l-3.921-3.085a.38.38 0 0 0-.28-.078L2.336 10.805a.381.381 0 0 0-.336.378v2.046a.38.38 0 0 0 .057.2l2.494 4.024a.381.381 0 0 0 .377.176l16.746-2.408a.381.381 0 0 0 .326-.377V13.03a1.05 1.05 0 0 0-.4-.824M5.391 16.733v-.218l.455-.065.01.214zm14.973-1.948a.149.149 0 0 1-.128.141L6.512 16.847a.093.093 0 0 1-.1-.092v-1.328a.164.164 0 0 1 .142-.163l13.729-1.9a.125.125 0 0 1 .142.13zm1.212-2.163-16.67 2.325h-.014A.111.111 0 0 1 4.8 14.9l-2.452-3.84a.115.115 0 0 1-.007-.111.109.109 0 0 1 .088-.065L17.5 9.177a.11.11 0 0 1 .08.023l4.049 3.218a.115.115 0 0 1 .039.12.112.112 0 0 1-.092.084M2.474 11.01l2.427 3.8L21.51 12.5l-4-3.183zm5.755.7-.835-.378.356.44-.286.036-.57-.708.284-.035.827.372-.352-.431.281-.035.578.7zm.618-.079-.582-.7.682-.084.129.153-.4.05.1.117.39-.049.127.152-.39.05.1.12.405-.051.131.155zM10 11.484l-.461-.542-.27.033-.129-.153.82-.1.131.152-.268.033.463.542zm1.252-.137a1.019 1.019 0 0 1-.874-.288c-.2-.231-.1-.4.231-.442a1.036 1.036 0 0 1 .647.132l-.2.1a.55.55 0 0 0-.326-.079c-.125.016-.2.1-.071.247a.564.564 0 0 0 .46.181c.136-.018.157-.08.109-.148l-.22.028-.12-.138.538-.068c.233.266.154.433-.177.475zm.757-.119-.607-.685.659-.082.135.15-.391.048.1.114.377-.047.133.149-.377.047.1.118.392-.05.137.153zm1.588-.2-.178-.119-.358.045.053.135-.278.036-.256-.725.308-.038.984.631zm.973-.125-.487-.23h-.021l.242.261-.266.034-.623-.675.4-.049a.64.64 0 0 1 .562.161c.112.119.049.19-.047.215l.567.238zm-1.338-.123-.339-.228.106.257zm.638-.394-.07.008.156.168.07-.009c.115-.014.147-.046.092-.105a.26.26 0 0 0-.248-.062"/></svg>