<svg xmlns="http://www.w3.org/2000/svg" viewBox="0 0 24 24"><path fill="#44739e" d="m20.627 12.359-.563.071.001.258-.455.052.011.956 1.447-.199.024-.94-.455.063Zm-1.778.193-.61.077.002.278-.491.077.01.962 1.6-.222.002-.956-.503.065Zm-1.862.276-.608.076.001.279-.492.055.01.983 1.601-.222.002-.955-.504.064Zm-1.926.236-.618.078.001.283-.5.056.011 1 1.627-.225.001-.972-.512.066Zm-1.943.272-.62.078.003.283-.501.056.011 1 1.626-.226.002-.971-.511.066Zm-1.941.28-.618.079.001.283-.499.056.01.999 1.627-.225.001-.97-.512.064Zm-1.939.272-.619.078.001.283-.5.056.011 1 1.626-.226.002-.97-.511.065Zm-2.01.275-.618.078.001.283-.499.056.011 1 1.626-.226.002-.97-.513.065Zm15.332-3.407-4.313-3.393a.418.418 0 0 0-.308-.086L1.37 9.215a.419.419 0 0 0-.37.416v2.251a.42.42 0 0 0 .063.22l2.743 4.426a.419.419 0 0 0 .415.194l18.42-2.649a.419.419 0 0 0 .359-.415v-1.995a1.155 1.155 0 0 0-.44-.907m-17.83 4.98v-.24l.501-.071.011.235Zm16.47-2.143a.164.164 0 0 1-.14.155L5.963 15.862a.102.102 0 0 1-.11-.102V14.3a.18.18 0 0 1 .156-.18l15.102-2.09a.138.138 0 0 1 .156.143Zm1.334-2.379L4.197 13.772h-.016a.122.122 0 0 1-.101-.052L1.383 9.496a.127.127 0 0 1-.008-.122.12.12 0 0 1 .097-.072L18.05 7.425a.12.12 0 0 1 .088.025l4.454 3.54a.127.127 0 0 1 .043.132.123.123 0 0 1-.101.092M1.521 9.441l2.67 4.18 18.27-2.541-4.4-3.501Zm6.331.77-.919-.416.392.484-.315.04-.627-.779.313-.039.909.41-.387-.475.309-.038.636.77Zm.68-.087-.641-.77.751-.092.142.168-.44.055.11.129.429-.054.139.167-.429.055.11.132.446-.056.144.17ZM9.8 9.962l-.507-.596-.297.036-.142-.168.902-.11.144.167-.295.037.51.596Zm1.377-.15a1.121 1.121 0 0 1-.961-.317c-.22-.254-.11-.44.254-.486a1.14 1.14 0 0 1 .712.145l-.22.11a.605.605 0 0 0-.359-.087c-.137.017-.22.11-.078.272a.62.62 0 0 0 .506.199c.15-.02.173-.088.12-.163l-.242.031-.132-.152.592-.075c.256.293.169.476-.195.523Zm.833-.131-.668-.754.725-.09.149.165-.43.053.11.125.414-.052.147.164-.415.052.11.13.431-.055.151.168Zm1.747-.22-.196-.131-.394.049.058.149-.305.039-.282-.797.339-.042 1.082.694Zm1.07-.138-.536-.253h-.023l.266.287-.292.038-.685-.743.44-.054a.704.704 0 0 1 .618.177c.123.131.054.209-.052.237l.624.262Zm-1.472-.135-.373-.251.117.283Zm.702-.434-.077.009.172.185.077-.01c.126-.015.161-.05.101-.115a.286.286 0 0 0-.273-.069"/></svg>