<svg xmlns="http://www.w3.org/2000/svg" viewBox="0 0 24 24"><path fill="#44739e" d="m20.337 15.591-.558 2.421a1.76 1.76 0 0 1-.595 1.357c-.43.33-1.692.081-1.692.081l-2.926-.531-5.331-.962c-.097-.028-4.375-.781-4.375-.781a11.8 11.8 0 0 0 .11 1.803c.14.028.228.309.483.484 1.618 1.107 8.568 2.335 12.666 1.953a5.94 5.94 0 0 0 2.213-.707 1.63 1.63 0 0 0 .521-.39c.402-.501.16-1.164-.141-2.561a19.4 19.4 0 0 1-.375-2.167m-5.879-3.466c-.11-.014-.166.078-.179.172a.172.172 0 0 0 .124.211c.086.011.162-.061.177-.172.011-.085-.016-.196-.122-.211m4.242-.427-6.42-.85a.642.642 0 0 0-.702.461l-1.227 4.307a.641.641 0 0 0 .515.809l6.346 1.029a.64.64 0 0 0 .719-.456l1.298-4.485a.642.642 0 0 0-.529-.815m-6.185.608-.09-.012.084-.614-.209-.028.009-.076.511.07-.01.076-.211-.029Zm.694-.161a.244.244 0 0 1-.282.229.237.237 0 0 1-.203-.286.244.244 0 0 1 .282-.23.238.238 0 0 1 .206.287Zm.913.014a.37.37 0 0 1-.135.254.43.43 0 0 1-.318.057 1.3 1.3 0 0 1-.16-.03l.092-.678a1.4 1.4 0 0 1 .191.012.398.398 0 0 1 .268.124.317.317 0 0 1 .062.261m.55.186a.244.244 0 0 1-.282.229.238.238 0 0 1-.203-.286.244.244 0 0 1 .282-.23.237.237 0 0 1 .203.287m-1.681-.42c-.11-.015-.166.078-.179.171s.036.199.124.212.162-.061.178-.172c.014-.085-.012-.196-.123-.211m.796-.08a.47.47 0 0 0-.11-.005l-.075.543a.5.5 0 0 0 .089.018.267.267 0 0 0 .33-.252.246.246 0 0 0-.234-.304m1.602-2.328c-.11-.015-.165.077-.179.171a.169.169 0 0 0 .125.21c.086.012.16-.059.176-.171.011-.084-.016-.196-.122-.21m1.123.156c-.094-.012-.16.061-.175.171s.024.19.121.203a.135.135 0 0 0 .146-.089.14.14 0 0 0 .01-.039l.012-.086a.2.2 0 0 0 0-.038.135.135 0 0 0-.114-.122m4.267-4.358-6.732-.745a.507.507 0 0 0-.544.367l-1.355 4.771a.507.507 0 0 0 .42.641l6.667.888a.508.508 0 0 0 .55-.362l1.422-4.915a.507.507 0 0 0-.428-.645m-1.271 1.022.134-.056a.136.136 0 0 1 .171.063.118.118 0 0 1-.065.159l-.134.056a.14.14 0 0 1-.066.009.132.132 0 0 1-.11-.071.118.118 0 0 1 .07-.16m-.482-.455.087-.11a.135.135 0 0 1 .18-.025.118.118 0 0 1 .03.17l-.086.11a.132.132 0 0 1-.119.048.127.127 0 0 1-.062-.022.119.119 0 0 1-.03-.171m-.644-.309a.13.13 0 0 1 .259.026l-.015.139a.13.13 0 0 1-.258-.028Zm-.665.008a.14.14 0 0 1 .099 0 .132.132 0 0 1 .072.065l.061.127a.11.11 0 0 1 0 .093.12.12 0 0 1-.067.066.14.14 0 0 1-.066.01.132.132 0 0 1-.11-.072l-.062-.127a.118.118 0 0 1 .078-.162Zm-.633.48a.134.134 0 0 1 .18-.026l.12.082a.12.12 0 0 1 .053.079.11.11 0 0 1-.023.091.135.135 0 0 1-.118.048.13.13 0 0 1-.061-.023l-.12-.082a.117.117 0 0 1-.029-.172Zm-3.08.726a1.08 1.08 0 0 1-.387-.153l.08-.099a.96.96 0 0 0 .33.137c.267.054.374-.046.389-.134.028-.148-.154-.25-.355-.291l-.116-.024.021-.11.117.024c.152.031.354.016.379-.11.018-.084-.046-.175-.237-.214a.77.77 0 0 0-.323.007l-.034-.11a1 1 0 0 1 .421 0c.303.062.415.212.389.341-.022.11-.135.182-.33.189.185.065.319.194.289.341-.045.173-.266.281-.636.206Zm.831 2.492a.33.33 0 0 0-.135-.047.259.259 0 0 0-.308.247.253.253 0 0 0 .227.314.39.39 0 0 0 .149-.009l.009.072a.44.44 0 0 1-.187.008.33.33 0 0 1-.293-.395.345.345 0 0 1 .41-.312.385.385 0 0 1 .159.053Zm.137.627-.089-.012.099-.726.09.012Zm.077-3.85a.254.254 0 0 1 .33-.191.3.3 0 0 1 .115.056l-.037.063a.21.21 0 0 0-.096-.049.189.189 0 0 0-.096.364.275.275 0 0 0 .11 0v.069a.315.315 0 0 1-.146-.008.238.238 0 0 1-.182-.309Zm.556 3.685a.243.243 0 0 1-.281.229.237.237 0 0 1-.203-.287.243.243 0 0 1 .281-.229.237.237 0 0 1 .201.283Zm.512.189a2 2 0 0 0-.014.135l-.08-.011.006-.081a.188.188 0 0 1-.176.069c-.077-.011-.164-.066-.141-.239l.04-.29.09.012-.042.273c-.013.094.007.162.089.173a.134.134 0 0 0 .13-.066.13.13 0 0 0 .014-.045l.041-.304.09.013Zm.563.214-.081-.011.008-.086a.186.186 0 0 1-.182.073.227.227 0 0 1-.177-.28.239.239 0 0 1 .258-.235.167.167 0 0 1 .139.095l.04-.296.09.012-.082.599a1.2 1.2 0 0 0-.015.124Zm.429-.086a.77.77 0 0 1-.211.287.245.245 0 0 1-.119.043l-.012-.079a.23.23 0 0 0 .085-.033.264.264 0 0 0 .089-.089.05.05 0 0 0 .01-.021.07.07 0 0 0 0-.025l-.121-.48.098.013.068.307c.007.034.014.075.018.11.013-.029.028-.065.046-.099l.137-.276.096.013Zm2.043-1.628a.4.4 0 0 1-.44.34h-.009l-2.622-.273a.518.518 0 1 1 .065-1.033.982.982 0 0 1 1.081-.738 1.012 1.012 0 0 1 .864.673h.095a.688.688 0 0 1 .628.607.396.396 0 0 1 .338.424m-.175-.744-.037.027-.019-.041a.633.633 0 0 0-.515-.362.66.66 0 0 0-.11 0h-.03l-.009-.029a.926.926 0 0 0-.778-.646l-.047-.006.017-.041a1.009 1.009 0 0 1 1.275-.517.98.98 0 0 1 .55.494.87.87 0 0 1 .027.713.924.924 0 0 1-.324.408m.683.131a.128.128 0 0 1-.083.048.11.11 0 0 1-.034 0 .14.14 0 0 1-.063-.022l-.121-.082a.119.119 0 0 1-.031-.17.138.138 0 0 1 .182-.026l.12.082a.12.12 0 0 1 .052.08.116.116 0 0 1-.022.091Zm.147-.607-.148-.016a.121.121 0 1 1 .025-.241l.148.016a.121.121 0 1 1-.025.241M5.731 12.846c.083.014.165-.083.191-.233.02-.11 0-.26-.1-.279s-.172.11-.193.231c-.027.145.015.265.102.281m.375-7.934a.035.035 0 0 0-.034.035.035.035 0 0 0 .028.04h.027a.59.59 0 0 1 .44.118.04.04 0 0 0 .022.011.033.033 0 0 0 .038-.03.04.04 0 0 0-.016-.041.674.674 0 0 0-.505-.133m.223-.174a.74.74 0 0 0-.22 0 .045.045 0 0 0-.041.041.044.044 0 0 0 .037.05.1.1 0 0 0 .026 0 .682.682 0 0 1 .506.138.05.05 0 0 0 .025.014.043.043 0 0 0 .059-.044.048.048 0 0 0-.018-.049.745.745 0 0 0-.374-.15m-.224-.09a.08.08 0 0 0 .028 0 .87.87 0 0 1 .599.152.05.05 0 0 0 .026.013.053.053 0 0 0 .058-.045.054.054 0 0 0-.02-.055.982.982 0 0 0-.689-.172.055.055 0 0 0-.045.049.051.051 0 0 0 .043.058m1.943 8.486c-.014.078.017.121.062.13a.131.131 0 0 0 .136-.092.13.13 0 0 0 .012-.037l.019-.11c-.094-.024-.207-.02-.229.109m1.249-.187c-.09-.016-.164.084-.189.231s.006.252.1.268c.058.011.121-.033.153-.121a.33.33 0 0 0 .013-.05l.02-.11a.3.3 0 0 0 0-.052.15.15 0 0 0-.097-.166m-2.869 1.185c-.103-.018-.17.11-.192.231-.026.145.015.265.101.279s.165-.082.191-.231c.02-.112.004-.262-.1-.279m5.683-9.761-5.97-.63a.486.486 0 0 0-.518.345L2.542 14.468a.486.486 0 0 0 .387.618l6.05 1.016a.487.487 0 0 0 .55-.35l2.993-10.767a.487.487 0 0 0-.411-.614m-6.236.373a.542.542 0 1 1 .457.635.55.55 0 0 1-.461-.635Zm-.034 7.501c.138.024.208.178.172.38-.043.245-.184.331-.301.31s-.208-.172-.172-.381.165-.336.301-.309m-1.827.288a.28.28 0 0 0 .148-.013v.097a.33.33 0 0 1-.185.013c-.189-.033-.304-.22-.251-.524s.228-.459.44-.422a.286.286 0 0 1 .152.068l-.037.093a.256.256 0 0 0-.129-.061c-.157-.028-.286.092-.33.33s.026.39.19.419Zm.673.021a5 5 0 0 0-.028.18l-.078-.013.014-.11a.183.183 0 0 1-.18.095c-.076-.013-.156-.086-.11-.319l.058-.389.087.016-.064.366c-.022.126-.009.22.071.229a.139.139 0 0 0 .134-.089.2.2 0 0 0 .019-.061l.071-.404.088.015Zm.453-.3a.162.162 0 0 0-.093-.055.081.081 0 0 0-.095.076c-.01.055.014.084.071.128a.207.207 0 0 1 .092.22.178.178 0 0 1-.22.166.22.22 0 0 1-.128-.068l.037-.088a.196.196 0 0 0 .11.068.089.089 0 0 0 .11-.082c.011-.057-.008-.093-.068-.137a.208.208 0 0 1-.094-.21.178.178 0 0 1 .2-.165.195.195 0 0 1 .11.062Zm.282.611a.17.17 0 0 1-.081 0 .11.11 0 0 1-.086-.067.32.32 0 0 1 0-.178l.064-.361-.075-.013.017-.091.074.013.028-.159.084-.011-.033.19.125.022-.015.091-.123-.024-.063.357c-.014.082 0 .131.043.14a.17.17 0 0 0 .053 0Zm.116 1.714-.087-.015.159-.915.087.015Zm.383-.017a.205.205 0 0 0 .11-.013v.09a.257.257 0 0 1-.144.014c-.145-.025-.22-.177-.182-.38s.163-.33.32-.305a.227.227 0 0 1 .116.055l-.036.089a.156.156 0 0 0-.096-.049c-.11-.019-.189.082-.213.22s.028.262.123.279Zm.7-.139c-.043.244-.185.33-.302.309s-.208-.171-.17-.38.166-.33.3-.311.205.18.169.378Zm.043-1.933c-.05-.009-.097.035-.123.091a.33.33 0 0 0-.017.059l-.072.409-.085-.015.069-.396c.019-.11 0-.189-.068-.2s-.11.043-.13.102a.26.26 0 0 0-.018.057l-.069.399-.09-.015.084-.482c.012-.069.021-.125.028-.18l.076.013-.014.11a.171.171 0 0 1 .172-.095.155.155 0 0 1 .11.156.26.26 0 0 1 .07-.076.14.14 0 0 1 .11-.028c.063.012.148.086.11.314l-.057.386-.085-.015.066-.374c.022-.125.002-.208-.07-.22Zm.488 1.965-.069.395-.088-.015.067-.382c.019-.11 0-.2-.077-.22a.141.141 0 0 0-.139.102.3.3 0 0 0-.016.055l-.07.398-.088-.015.085-.483c.012-.068.021-.124.028-.179l.078.013-.015.11a.18.18 0 0 1 .182-.097c.066.019.159.091.12.318Zm.479-1.92a.226.226 0 0 1-.15.183.232.232 0 0 1 .098.255.308.308 0 0 1-.089.175.283.283 0 0 1-.248.045.9.9 0 0 1-.132-.034l.159-.906a.62.62 0 0 1 .161.008.22.22 0 0 1 .201.272Zm.178.33a.33.33 0 0 0-.015.055l-.061.352-.087-.014.08-.455c.013-.079.024-.146.032-.207l.077.013-.02.13c.038-.085.1-.132.16-.121a.08.08 0 0 1 .024.007l-.02.111a.17.17 0 0 0-.029-.009c-.061-.007-.116.05-.143.138Zm.567.102-.042.247a1 1 0 0 0-.02.161l-.081-.015.008-.084a.157.157 0 0 1-.278-.143c.028-.161.147-.23.33-.196v-.013c.01-.055.015-.155-.083-.173a.198.198 0 0 0-.134.027l-.006-.082a.25.25 0 0 1 .169-.032c.146.026.158.171.132.303Zm.551.11-.07.394-.088-.015.067-.381c.019-.11 0-.2-.077-.22a.143.143 0 0 0-.139.103.22.22 0 0 0-.016.055l-.069.398-.088-.015.085-.483c.012-.069.02-.125.027-.18l.077.015-.014.11a.183.183 0 0 1 .181-.097c.066.014.161.087.118.313Zm.519.322c-.011.058-.021.125-.027.171l-.078-.014.016-.115a.184.184 0 0 1-.187.101c-.117-.021-.183-.172-.148-.373.038-.22.161-.338.279-.317a.16.16 0 0 1 .127.127l.069-.395.088.015Zm-.649-2.658-2.929-.355.88-3.094 2.847.299Zm-1.38 1.615a.33.33 0 0 0-.078 0l-.052.297.078.013a.143.143 0 0 0 .173-.129.134.134 0 0 0-.121-.181m-.074.394-.072-.012-.062.351a.3.3 0 0 0 .072.017.162.162 0 0 0 .203-.148.163.163 0 0 0-.141-.208m15.248-8.562L5.392 2.515a.453.453 0 0 0-.479.319L1.02 15.479a.455.455 0 0 0 .352.581l16.9 3.143a.847.847 0 0 0 .973-.613l3.74-13.834a.455.455 0 0 0-.394-.568m-.55.972-3.612 13.032a.184.184 0 0 1-.209.132l-16.209-2.83a.184.184 0 0 1-.145-.234L5.393 3.355a.186.186 0 0 1 .196-.131l16.289 1.702a.185.185 0 0 1 .159.232Z"/></svg>