<svg xmlns="http://www.w3.org/2000/svg" viewBox="0 0 24 24"><path fill="#44739e" d="M11.781 1.024c-1.798.922-3.586 1.855-5.393 2.768-1.519.773-3.029 1.556-4.557 2.32a1.183 1.183 0 0 0-.828 1.21q.056 4.752 0 9.41a1.193 1.193 0 0 0 .837 1.203c3.112 1.519 6.215 3.094 9.317 4.659.224.112.421.252.635.382h.392c.885-.475 1.732-.95 2.664-1.407 2.422-1.23 4.845-2.459 7.295-3.661a1.23 1.23 0 0 0 .849-1.287c0-2.991-.056-5.991 0-8.982a1.603 1.603 0 0 0-1.091-1.685c-3.084-1.444-6.121-3.058-9.177-4.595a5.4 5.4 0 0 1-.549-.335ZM6.797 6.438a2.795 2.795 0 0 1 2.386.931c1.863 1.911 3.652 3.792 5.534 5.684a.48.48 0 0 0 .149.083c0-1.705-.009-3.409.009-5.077a1.34 1.34 0 0 1 .149-.624.252.252 0 0 1 .131-.131l.121-.056.085-.066c.196-.158.334-.251.521-.409a1.5 1.5 0 0 1 1.463-.224 1.137 1.137 0 0 1 .875.932 4.16 4.16 0 0 1 0 .68c0 2.506-.093 5.022 0 7.529.037 1.006-.539 1.472-1.369 1.863a.932.932 0 0 1-.644 0 6.96 6.96 0 0 1-2.393-1.594c-.792-.969-1.772-1.769-2.657-2.701-.428-.428-.799-.923-1.228-1.361-.308-.298-.644-.568-.979-.848a.13.13 0 0 0-.206.057v4.78a2.68 2.68 0 0 1-.176.688v.047l-.195.215-.402.242a2.646 2.646 0 0 1-1.314.428c-.755-.084-1.201-1.23-1.201-1.398V7.723c0-.746.521-1.211 1.341-1.285"/></svg>