<svg xmlns="http://www.w3.org/2000/svg" viewBox="0 0 24 24"><path fill="#44739e" d="M12.004 1 9.658 2.349v-.004l-1.22.709-2.346 1.349v.039l-1.182.683 1.178-.683.004-.039-1.22.709-2.334 1.349V6.5l1.18.681L4.91 6.5l-1.19.683-.002-.002-.002.002L2.534 6.5v-.039l-.077.039v11l.077.039 2.299 1.336 1.254.715v-.07l.005-.003v-.002l.825-.485a8.47 8.47 0 0 1-1.062-.903c-.189-.193-.383-.396-.565-.614l-.38.223-1.431-.825v-1.65l-.945-.537v-.013l.945.55 1.431-.812 1.416.81.823-.47.002.002.002-.002v-1.517l-1.061-.602v-.004l1.061.606v-2.591l-1.061.614v-.004l1.061-.614V9.211l.039-.025-.002-.002-.003.002-1.097-.625-.003-.003V7.183l.003-.002-.196-.101A7.98 7.98 0 0 0 4.7 9.117a7.8 7.8 0 0 0-.486 1.886A7.7 7.7 0 0 0 4.15 12c0 .313.021.632.064.941.013.198.052.391.09.589l-.76.447a6.46 6.46 0 0 1-.185-1.1A5.94 5.94 0 0 1 3.307 12c0-.3.026-.615.052-.915a8.93 8.93 0 0 1 .602-2.381l-.25-.142-1.177.682v1.368H2.53V9.246l.004-.002v-.007l1.182-.683v.004l.249.142a8.72 8.72 0 0 1 1.194-2.058c.224-.275.46-.525.697-.774a8.4 8.4 0 0 1 1.1-.928c.471-.339.977-.625 1.503-.861V3.071l.005-.002v-.002l1.194-.683v.004l.958.55 1.414-.825V1.026Zm-3.54 2.069v1.008l-.005.002v.002a9.13 9.13 0 0 1 2.149-.64l.004-.503-.958-.55ZM6.09 7.181 7.282 6.5v-.756a6 6 0 0 0-.821.717 7 7 0 0 0-.567.615Zm1.1 2.002 1.269-.732V7.183h.005v1.272l2.294-1.323-1.1-.632 1.104.627 1.242-.704.026.013v-.005l1.246.722 2.32 1.336V7.183h.005v1.311l1.233.722.009-.005h-.009l1.141-.651-.002-.002v-1.37l.002-.003-.002-.002.146-.077a6.05 6.05 0 0 0-.563-.64 8.9 8.9 0 0 0-.774-.666v-.009a7.3 7.3 0 0 0-1.744-1.023l-.007.005a3.74 3.74 0 0 0-.535-.198v-.876a8.5 8.5 0 0 1 1.105.408v-.002l-.005-.003V3.069l-1.19-.681-2.372-1.362v1.087l1.427.825v1.65L12.03 5.4l-1.416-.81-.956.535.954-.537.002.002.003-.002v-.301a7.66 7.66 0 0 0-1.603.473 7.4 7.4 0 0 0-1.728.979V6.5l-1.194.683v1.375Zm8.406-6.114.005.002v1.034c.522.236 1.019.527 1.482.861.379.272.735.576 1.061.902.249.258.486.525.71.804a8.98 8.98 0 0 1 1.194 2.054c.301.761.511 1.559.589 2.398a6.05 6.05 0 0 1 .051.876c0 .288-.012.563-.038.838a8.77 8.77 0 0 1-.512 2.2l.013-.026.434.249v1.65l-1.418.825v.003l.004.002v1.085l.035.019-.005.002.005.002 2.333-1.349.004-.039V9.242l-1.194-.684v-.004l1.194.683V6.5l-2.376-1.375-1.194-.683-2.376-1.375Zm3.606 15.778-.031-.019-1.194.692-.004-.003v.003l-.868-.499c-.472.338-.977.634-1.504.875v.986l.038.021-.004.002.005.003 2.333-1.35v-.004Zm-3.567 2.058-.034-.023-1.195.679v.051Zm-1.229.656-1.181-.679-1.195.679v-.005l-1.177-.679v.005l-1.195.679v-.005l1.195-.679 1.181.679 1.191-.674.002-.002-.002-.003v-.288a9.82 9.82 0 0 1-2.372.013v.005a8.46 8.46 0 0 1-2.389-.684 8.25 8.25 0 0 1-1.547-.889l-.825.483v.076l-.004-.003v.007l2.311 1.323 1.259.735v-.009l2.295 1.324.077-.039v.005l-.077.038.051.026.065-.039 2.333-1.349v-.051Zm-1.179-.681 1.179.676 1.195-.679-.005-.979.005-.003v-.002a8.87 8.87 0 0 1-2.372.696v.288Zm4.746-1.363v-.002l1.194-.692v-1.085l-1.426-.822-.959.55-1.181-.697v-.004l-1.195.696.005 1.367-1.182.692-1.195-.692v-.003l-.004-.002-1.182.692v.002l.005.003v.232a8.6 8.6 0 0 0 1.151.077c.408.004.817-.025 1.221-.09a7.88 7.88 0 0 0 1.852-.525 7.37 7.37 0 0 0 1.705-1.009v.008c.159-.102.288-.224.434-.339l.761.434c-.275.25-.568.49-.868.713Zm-7.12.235c-.002-.001-.003 0-.005 0v-.235l-1.19-.689v-.009l1.195.692 1.177-.687v-1.259l-.026.012-1.285-.734-.004.002.005.002-1.062.614v.005l-1.194-.697-1.182.697v-.005l1.182-.696v.005l1.194.691v-.004l1.057-.612-2.251-1.296-1.313-.758-.823.47-.002-.002-.002.002v1.65l-.301.168a4.4 4.4 0 0 0 .434.46q.381.399.825.722v.004c.516.392 1.078.718 1.68.967a7.6 7.6 0 0 0 1.891.524Zm1.181-.926 1.191.689 1.181-.692v-1.362l-1.087-.64-1.285.748Zm2.372-1.365 1.195-.7 1.181.696v.009l.954-.555v-1.65l1.431-.812.245.144c.184-.52.307-1.061.374-1.609l-.619.365.615-.365c.043-.327.064-.653.064-.984 0-.344-.026-.692-.064-1.036l-.613-.35h-.002l-1.19.677-.002-.002-.002.002v.002l.004.002v1.375l-1.13.645v1.474l-1.246.722v-.005l-2.282 1.311Zm3.567-6.168-1.126-.651v2.664l1.126-.64Zm.002-.004 1.188-.677.004.002V9.242l-1.19-.679-1.134.648h.004v1.427Zm.002-2.726v-.005l-.002.002Zm0-.005 1.19.677v-.002l.14-.073.002.004-.137.075v1.373l-.003.002.617.351a8 8 0 0 0-.473-1.809l-.006.002a7.34 7.34 0 0 0-1.193-2.048l-.139.075.002.003Zm1.195.681v-.002l-.005-.002v.007Zm.24 5.354c-.003.01-.005.019-.008.028l.013-.026ZM12.034 2.818l-.812.472v.941l.812.473.812-.473V3.29ZM16.778 6.5h.004l.774.445Zm2.389 0 1.182.679v.004Zm-7.158 2.673-.052.026.077.038v1.375l1.193.677 1.179-.677v-.051l-2.32-1.35Zm2.397 1.388.005.002v-.002Zm.005.002v.049l-.003.002-1.179.677-.002-.002-.003.002-1.194-.679V9.237l-.081-.038-2.295 1.323v.002l.004-.002v.09l1.195.679v1.375l.683.397.494.286 1.195-.683 1.181.683v.09l.052-.025v-2.828Zm-.005 2.786-1.181-.679-1.195.679v.003l.004.002v1.362l-.118.077.084.048.12-.078 2.282-1.323Zm-2.376.003-.494-.288-.685-.396-.003-.002v-1.375l-1.194-.679v-.088l-.112.062v2.699l.116.064-.116-.06v.129l.116.064 2.256 1.311-.004-.004.12-.078Zm-7.12 1.789-.812.473v.945l.812.469.812-.473v-.941Zm14.261 0-.825.473v.941l.825.473.813-.473v-.941Z"/></svg>