<svg xmlns="http://www.w3.org/2000/svg" data-name="Livello 1" viewBox="0 0 24 24"><path fill="#44739e" d="M11.789.2598C9.859 1.2498 7.94 2.2505 6 3.2305c-1.63.83-3.2506 1.6702-4.8906 2.4902a1.27 1.27 0 0 0-.8887 1.2988q.06 5.0998 0 10.0996a1.28 1.28 0 0 0 .8984 1.291c3.34 1.63 6.67 3.32 10 5 .24.12.4517.2702.6817.4102h.4199c.95-.51 1.8594-1.0198 2.8594-1.5098 2.6-1.32 5.2-2.6396 7.83-3.9296A1.32 1.32 0 0 0 23.8204 17c0-3.21-.06-6.4306 0-9.6406a1.72 1.72 0 0 0-1.17-1.8086c-3.31-1.55-6.5695-3.2817-9.8495-4.9317a5.8 5.8 0 0 1-.5899-.3593zM6.4396 6.0703a3 3 0 0 1 2.5605 1c2 2.05 3.9195 4.0696 5.9395 6.0996a.51.51 0 0 0 .1601.0899c0-1.83-.0102-3.6593.0098-5.4493a1.44 1.44 0 0 1 .1601-.6699A.27.27 0 0 1 15.4102 7l.1289-.0605.0918-.0704c.21-.17.3586-.2694.5586-.4394a1.61 1.61 0 0 1 1.5703-.2402 1.22 1.22 0 0 1 .9394 1 4.46 4.46 0 0 1 0 .7304c0 2.69-.1 5.3901 0 8.0801.04 1.08-.5787 1.58-1.4687 2a1 1 0 0 1-.6914 0 7.47 7.47 0 0 1-2.5684-1.711c-.85-1.04-1.9016-1.8984-2.8516-2.8984-.46-.46-.8583-.991-1.3183-1.461-.33-.32-.6908-.61-1.0508-.91a.14.14 0 0 0-.2207.0605v5.1308a2.88 2.88 0 0 1-.1895.7383V17l-.209.2305-.4316.2597a2.84 2.84 0 0 1-1.4101.459c-.81-.09-1.2891-1.32-1.2891-1.5v-9c0-.8.5595-1.2989 1.4395-1.3789" class="cls-1" data-name="Colore riempimento 1"/></svg>