<svg xmlns="http://www.w3.org/2000/svg" viewBox="0 0 24 24"><path fill="#44739e" d="m21.49 3.079-18.472.164L1 9.393h21.881Zm.04 3.222.102 1.364-.942-.205c.11-.16.683-1.27.84-1.159m-5.528.365c-5.309 0-3.52-2.42.6-1.341-.049.503-1.59 1.309-.6 1.341M11.543 5.6c-.16-.456 1.441-1.287 1.493-.526-.636.377-.86 1.378-1.493.526m-.047.403-3.817-.646c.696-1.604 3.165-.833 4.29-.77-.357.77-1.365.867-.473 1.416m-4.359.743c-.255-.029-.319-.26-.573-.289.926-1.398 2.429-.961.573.289m4.635-.44c-.149.424-1.842 1.126-.571 1.313a13.34 13.34 0 0 1-4.009-.569c.998-1.733 3.239-1.025 4.58-.745Zm-.652 1.108c.755-1.573 2.362-.961.818.197-.401-.044-.415-.163-.818-.197m1.597-.212c.611-1.32 3.042.007 3.881-.028-.433 1.54-3.257.699-4.47.637.17-.431.368-.347.589-.609m3.3-.844c.55-.55.892-1.18 1.8-.741-.133.337-.786.88-.887 1.144-.263-.151-.829-.203-.908-.403Zm1.87-2.291c.912 0 2.249.339 3.037.253a12.5 12.5 0 0 0-.944 1.371c-1.265-.181-3.975 0-2.089-1.624Zm3.227 2.029c-.135 2.186-2.735 1.011-3.985.869.408-1.76 2.822-.972 3.988-.869Zm-.719-.513c.103-.464.648-.838.833-1.164l.197 1.464Zm.845-1.898c-.235.968-2.926.069-3.63-.025a14.03 14.03 0 0 1 3.63.025m-3.649.285c-.349.728-.873 1.332-1.565.748.426-.559.857-1.165 1.565-.748m-.99-.288c-.212.352-.99.798-.892 1.247-5.469-.356-2.42-1.54.889-1.247Zm-3.785-.152c-.648 1.21-2.819.297-3.731.081ZM7.24 4.64c.199-.44.576-.461.846-.804 1.425-.189-.32 1.312-.846.804m-3.63-.914 4.033-.086c-.214.47-1.79 1.041-.524 1.291-.839-.136-4.172.064-3.511-1.21Zm-.465.937c.646-.116.2.312-.026.581-.435.278-.07-.298.026-.581m.698.232c5.472.46 1.257.671 2.93 1.921-1.24-.235-2.826-.351-4.03-.646.251-.498.775-.804 1.1-1.275M2.718 6.5c.258-.043.348.084.478.189-.295.083-.483.453-.735.491a1.97 1.97 0 0 0 .257-.68m-.323.97c1.486-1.313 2.961-.275 4.466-.322-1.23 1.722-3.119.782-4.66.712.119-.125.096-.279.194-.393Zm-.522 1.355.262-.675c5.161.297 4.511.854-.262.675m4.058-.593c.701-.33.931-1.14 1.72-.797-.341.702-1.342 1.449-1.72.797m4.592.59H6.679c.908-1.797 3.431-.99 4.792-.807-.059.245-.82.552-.948.807m.428 0c1.232-1.329 4.18-.541 5.339 0Zm5.051-.515c.391-.66 1.253-1.562 1.837-.727-.625.716-.799 1.462-1.837.727m1.248.513c.763-2.2 2.979-.88 4.486-.736.886 1.464-4.104.456-4.486.736M1 10.088v8.767h22v-8.767Zm11.317 2.63h-.757v-1.632h.752ZM1.942 20.921h2.472l.539-.824 14.293-.032.249.856h2.464L23 19.272H1Z"/></svg>