<svg xmlns="http://www.w3.org/2000/svg" viewBox="0 0 24 24"><path fill="#44739e" d="M16.919 10.186a.289.289 0 0 0-.191.192.5.5 0 0 0-.016.155v3.915h1.07v-4.277h-.708a.5.5 0 0 0-.155.015m3.796-.126A2.257 2.257 0 1 0 23 12.316a2.273 2.273 0 0 0-2.285-2.256m1.185 2.257a1.182 1.182 0 1 1-1.183-1.183 1.184 1.184 0 0 1 1.183 1.183M5.149 8.169A4.117 4.117 0 0 0 1 12.253v.065h1.574c.366 0 .484-.029.596-.149.11-.124.098-.229.211-.521a1.861 1.861 0 0 1 3.472 0c.11.293.097.397.211.521s.23.149.595.149h1.576a4.117 4.117 0 0 0-4.086-4.149m9.918 2.017a.285.285 0 0 0-.192.192.5.5 0 0 0-.015.155v2.266l-2.118-2.42a.594.594 0 0 0-.206-.173.605.605 0 0 0-.267-.042h-.779v4.277h.71a.52.52 0 0 0 .154-.015.29.29 0 0 0 .193-.193.52.52 0 0 0 .015-.154v-2.266l2.116 2.42a.62.62 0 0 0 .207.173.605.605 0 0 0 .266.042h.78v-4.277h-.709a.5.5 0 0 0-.155.015m-8.523 2.133H3.691c-.45 0-.424-.011-.741.306l-1.522 1.521a4.114 4.114 0 0 0 1.54 1.685l1.755-1.752c.16-.159.23-.22.316-.247a.214.214 0 0 1 .154 0c.087.025.157.088.317.247l1.752 1.752a4.12 4.12 0 0 0 1.54-1.685l-1.517-1.521c-.318-.318-.291-.306-.741-.306"/></svg>