<svg xmlns="http://www.w3.org/2000/svg" viewBox="0 0 24 24"><path fill="#44739e" d="M22.916 10.327c-.031-.396-.084-.455-.313-.532a7.6 7.6 0 0 0-1.143-.253 9.712 9.712 0 0 0-9.426-6.903 9.715 9.715 0 0 0-9.407 6.84c-.351.062-.687.13-1.018.206s-.41.209-.456.418a1.4 1.4 0 0 0-.022.117 10.25 10.25 0 0 0-.09 2.552c.019.256.043.513.07.77.034.33 0 .753.351.812q.571.093 1.193.171H2.63a9.714 9.714 0 0 0 9.404 6.836 9.72 9.72 0 0 0 9.393-6.79h-.013c.399-.045.761-.093 1.079-.146a.427.427 0 0 0 .387-.387c.051-.5.083-.913.102-1.273a16.4 16.4 0 0 0-.066-2.438M12.034 4.961a7.338 7.338 0 0 1 6.778 4.283l.03.014c-2.259-.174-4.965-.254-6.883-.254-2.979 0-5.06.05-6.665.164a7.38 7.38 0 0 1 6.74-4.207m5.28 8.361h-.603a.073.073 0 0 1-.074-.043c0-.011-.075-.194-.183-.44h-1.422c-.11.257-.194.44-.194.44a.078.078 0 0 1-.075.043h-.581c-.086 0-.118 0-.064-.11.29-.624.936-2.076.936-2.076.128-.27.063-.248.44-.248a1.54 1.54 0 0 1 .236-.011 1.17 1.17 0 0 1 .237.011c.398.011.33-.031.516.377.096.225.796 1.731.904 1.99.033.067.011.059-.075.059Zm-4.227-.894c-.205-.011-.807-.064-1.216-.11-.527-.053-.644-.279-.677-.473a1.5 1.5 0 0 1-.011-.225 1.8 1.8 0 0 1 .011-.237c.076-.344.33-.506.785-.506h1.754c.063 0 .085.011.085.065v.399c0 .052-.022.074-.085.063h-1.724c-.075 0-.11.033-.118.11v.097c0 .054.021.097.11.11.204.021.838.075 1.075.097.431.043.742.118.828.527 0 .032.011.14.011.258a1.1 1.1 0 0 1-.021.258c-.076.387-.366.463-.818.463h-1.809c-.065 0-.076-.011-.076-.076v-.387c0-.064.011-.075.076-.075h1.829c.074 0 .096-.022.11-.076v-.161a.138.138 0 0 0-.121-.128Zm-3.109 0c-.203-.011-.806-.064-1.21-.11-.527-.053-.66-.279-.678-.473a1.65 1.65 0 0 1-.009-.225 2 2 0 0 1 .009-.237c.076-.344.33-.506.786-.506h1.753c.065 0 .086.011.086.065v.399c0 .052-.021.074-.086.063H8.9c-.075 0-.11.033-.118.11v.097c0 .054.032.097.11.11.205.021.839.075 1.076.097.43.043.742.118.827.527 0 .032.011.14.011.258a1.1 1.1 0 0 1-.02.258c-.076.387-.367.463-.818.463H8.159c-.065 0-.076-.011-.076-.076v-.387c0-.064.011-.075.076-.075h1.828c.076 0 .097-.022.11-.076v-.161c-.013-.052-.024-.117-.121-.128Zm-2.409-1.505v2.302c0 .054-.011.075-.075.075h-.562c-.065 0-.075-.011-.075-.075v-2.31c0-.043.01-.064.053-.064h.592c.054 0 .065.021.065.064Zm-2.465 2.179c-.27-.419-1.076-1.657-1.076-1.657v1.796c0 .065-.011.076-.075.076h-.485c-.064 0-.075-.011-.075-.076v-2.293c0-.054.011-.076.075-.076h.56c.419 0 .473-.011.624.205.119.193 1.1 1.699 1.1 1.699v-1.828c0-.054.011-.076.076-.076h.484c.064 0 .075.022.075.076v2.29c0 .065-.011.076-.075.076h-.66c-.386 0-.419 0-.548-.212m6.93 5.945a7.376 7.376 0 0 1-6.768-4.269l-.02-.015c2.058.133 4.381.177 6.86.182 2.323.006 4.688-.047 6.688-.16v.014a7.378 7.378 0 0 1-6.76 4.243Zm8.709-5.806c0 .065-.011.076-.075.076h-.66c-.387 0-.419 0-.55-.22-.269-.419-1.076-1.656-1.076-1.656v1.796c0 .065-.011.076-.076.076h-.474c-.063 0-.074-.011-.074-.076v-2.289c0-.054.011-.076.074-.076h.56c.419 0 .473-.011.624.205.129.193 1.1 1.699 1.1 1.699v-1.828c0-.054.011-.076.076-.076h.484c.064 0 .075.022.075.076Zm-4.926-1.82c-.011-.011-.043-.011-.065-.011s-.064 0-.075.011a.066.066 0 0 0-.065.032c0 .011-.182.43-.365.86h.979c-.15-.365-.312-.732-.355-.849a.056.056 0 0 0-.054-.043"/></svg>