<svg xmlns="http://www.w3.org/2000/svg" fill="#44739e" viewBox="0 0 24 24"><path d="M21.921 10.478c-.028-.36-.076-.414-.284-.484a6.9 6.9 0 0 0-1.039-.23 8.829 8.829 0 0 0-8.569-6.275 8.832 8.832 0 0 0-8.552 6.218c-.319.056-.624.118-.925.187s-.373.19-.415.38a1.3 1.3 0 0 0-.02.106 9.32 9.32 0 0 0-.081 2.32c.017.233.039.467.063.7.031.3 0 .685.319.738q.519.085 1.085.156H3.48a8.831 8.831 0 0 0 8.549 6.214 8.836 8.836 0 0 0 8.539-6.172h-.012c.363-.041.692-.085.981-.133a.388.388 0 0 0 .352-.352c.046-.454.075-.83.092-1.157a14.9 14.9 0 0 0-.06-2.216M12.029 5.6a6.671 6.671 0 0 1 6.162 3.893l.027.013c-2.054-.158-4.514-.231-6.257-.231-2.708 0-4.6.045-6.059.149A6.709 6.709 0 0 1 12.029 5.6m4.8 7.6h-.548a.066.066 0 0 1-.068-.039c0-.01-.068-.176-.166-.4h-1.293c-.1.234-.176.4-.176.4a.071.071 0 0 1-.068.039h-.528c-.079 0-.108 0-.059-.1.264-.567.851-1.887.851-1.887.117-.245.058-.225.4-.225a1.4 1.4 0 0 1 .215-.01 1.06 1.06 0 0 1 .215.01c.362.01.3-.029.469.342.088.205.724 1.574.822 1.809.03.061.01.054-.068.054zm-3.843-.812c-.186-.01-.733-.059-1.105-.1-.479-.049-.586-.254-.616-.43a1.35 1.35 0 0 1-.01-.205 1.6 1.6 0 0 1 .01-.215c.069-.313.3-.46.714-.46h1.594c.058 0 .078.01.078.059v.362c0 .048-.02.068-.078.058h-1.567c-.068 0-.1.03-.107.1v.088c0 .049.019.088.1.1.185.019.762.068.977.088.392.039.675.107.753.479 0 .029.01.127.01.235a1 1 0 0 1-.019.234c-.069.352-.333.421-.744.421h-1.644c-.059 0-.069-.01-.069-.069v-.352c0-.058.01-.068.069-.068h1.662c.068 0 .088-.02.1-.069v-.146a.125.125 0 0 0-.11-.117zm-2.826 0c-.185-.01-.733-.059-1.1-.1-.479-.049-.6-.254-.616-.43a1.5 1.5 0 0 1-.009-.205 1.8 1.8 0 0 1 .009-.215c.069-.313.3-.46.714-.46h1.594c.059 0 .078.01.078.059v.362c0 .048-.019.068-.078.058H9.18c-.068 0-.1.03-.107.1v.088c0 .049.029.088.1.1.186.019.762.068.978.088.391.039.674.107.752.479 0 .029.01.127.01.235a1 1 0 0 1-.019.234c-.069.352-.333.421-.743.421H8.506c-.059 0-.069-.01-.069-.069v-.352c0-.058.01-.068.069-.068h1.662c.069 0 .088-.02.1-.069v-.146c-.012-.048-.022-.107-.11-.117Zm-2.19-1.369v2.093c0 .049-.01.068-.068.068h-.511c-.059 0-.068-.01-.068-.068v-2.1c0-.039.009-.058.048-.058h.538c.049 0 .059.019.059.058zM5.729 13c-.245-.381-.978-1.506-.978-1.506v1.633c0 .059-.01.069-.068.069h-.441c-.058 0-.068-.01-.068-.069v-2.085c0-.049.01-.069.068-.069h.509c.381 0 .43-.01.567.186.108.176 1 1.545 1 1.545v-1.662c0-.049.01-.069.069-.069h.44c.058 0 .068.02.068.069v2.082c0 .059-.01.069-.068.069h-.6c-.351 0-.381 0-.498-.193m6.3 5.405a6.705 6.705 0 0 1-6.153-3.881l-.018-.014c1.871.121 3.983.161 6.236.166 2.112.005 4.262-.043 6.08-.146v.013a6.707 6.707 0 0 1-6.145 3.857Zm7.917-5.278c0 .059-.01.069-.068.069h-.6c-.352 0-.381 0-.5-.2-.245-.381-.978-1.506-.978-1.506v1.633c0 .059-.01.069-.069.069H17.3c-.058 0-.068-.01-.068-.069v-2.081c0-.049.01-.069.068-.069h.509c.381 0 .43-.01.567.186.117.176 1 1.545 1 1.545v-1.662c0-.049.01-.069.069-.069h.44c.058 0 .068.02.068.069zm-4.478-1.655c-.01-.01-.039-.01-.059-.01s-.058 0-.068.01a.06.06 0 0 0-.059.029c0 .01-.166.391-.332.782h.89c-.137-.332-.284-.665-.323-.772a.051.051 0 0 0-.049-.039"/></svg>