<svg xmlns="http://www.w3.org/2000/svg" viewBox="0 0 24 24"><path fill="#44739e" d="M3.726 1c-.046.037-.103.019-.177.038v.027h-.083v.018h-.063v.02l-.195.045v.018h-.036v.02l-.113.027v.018l-.13.047v.018h-.045v.018l-.121.047-.027.047-.083.018v.018l-.065.028-.018.038h-.047v.027l-.065.02-.019.045h-.047l-.045.065h-.038l-.083.101h-.045l-.195.222-.13.101v.047l-.101.083-.027.066-.038.027v.038l-.046.027-.019.065h-.027v.038l-.037.027v.036l-.047.02-.018.092-.047.018-.045.13h-.02v.045h-.018l-.045.13h-.02v.066h-.018l-.027.083h-.02l-.045.193a5.06 5.06 0 0 0-.166 1.749V19.05c-.027.409.001.82.083 1.222v.112h.018l.027.148h.02v.063h.018v.065h.027v.065h.018v.066h.02v.047h.027l.018.11h.02l.045.13h.018v.036h.02l.045.13.047.018.018.092h.019l.028.065.037.019.027.083.065.047v.047l.065.036v.047l.101.083v.045l.13.112.195.213h.045l.084.111h.038l.045.065h.047l.038.065h.045l.018.036h.047l.018.047.092.018.02.047h.045v.018h.038v.018h.045v.029h.038v.018h.045v.018h.047v.027c.037.009.084.029.13.038v.027c.167.056.342.111.508.166h.112v.029h.101v.018h.131v.018h.175c.205.034.413.044.62.029h14.581c.179.015.359.005.536-.029.102 0 .204-.008.306-.018v-.018c.064-.009.139-.019.213-.029.166-.055.341-.11.508-.166v-.027c.046-.009.093-.029.13-.038v-.027h.047v-.018h.036v-.018h.047v-.029h.045v-.018h.038v-.018h.045c.009-.019.02-.029.02-.047l.092-.018.036-.065.094-.018.036-.065h.047l.036-.065h.048l.083-.111h.045l.112-.13.213-.195v-.045l.101-.083c.01-.019.018-.047.027-.065l.038-.018v-.047l.046-.018a.7.7 0 0 1 .019-.065h.028v-.047l.037-.018v-.046c.019-.009.027-.01.046-.019.009-.028.008-.056.018-.093.018 0 .028-.008.047-.018.009-.046.027-.084.036-.13h.029v-.036h.018c.018-.046.028-.093.047-.13h.018v-.065h.018c.009-.037.018-.065.027-.092h.02a.56.56 0 0 0 .018-.13h.027v-.065h.02v-.064h.018c.009-.046.018-.102.027-.148h.018v-.112h.02v-.101h.027v-.13h.018v-.176a3.75 3.75 0 0 0 .018-.795V4.813a4.22 4.22 0 0 0-.036-.925v-.131c-.065-.212-.12-.415-.175-.628h-.02l-.027-.083h-.018V2.98h-.018c-.019-.046-.029-.093-.047-.13h-.018v-.045h-.029c-.009-.046-.027-.084-.036-.13-.019-.009-.029-.009-.047-.018-.01-.028-.009-.055-.018-.092-.019 0-.029-.011-.047-.02v-.036l-.036-.027v-.038h-.028l-.019-.065-.046-.027v-.038l-.038-.027-.027-.065-.101-.084v-.046l-.13-.102-.195-.222h-.045l-.083-.101h-.047l-.037-.065h-.047l-.018-.046-.065-.019V1.51h-.047l-.018-.038-.065-.028v-.018l-.083-.018-.027-.047-.13-.047v-.018h-.036v-.018l-.13-.047v-.018l-.111-.027v-.02h-.038v-.018l-.13-.027v-.018h-.063v-.02h-.065v-.018h-.083v-.027h-.094V1.02h-.083V1Zm10.929 6.308c.644-.002 1.289-.003 1.932.011.666.019.998.556 1.035 1.527.019.435.019.87 0 1.296-.046.906-.361 1.416-.981 1.435-1.323.037-2.645-.001-3.968.018-.444.009-.685-.371-.916-.806-.204-.38-.425-.564-.638-.564-.222.009-.361.268-.546.564-.231.37-.685.868-1.147 1.507 1.124.378 2.262 1.038 3.09 1.888 0 0 .971 1.324 2.081 1.334.463.009.953.184 1.175-.759a.788.788 0 0 1 .851-.62c1.286.028 2.572-.01 3.858.027.611.018.962.536 1.008 1.397.019.49.019.981-.009 1.462-.037.851-.388 1.378-1.008 1.397-1.286.027-2.572.009-3.858.009-.564 0-.945-.389-1.037-1.175-.056-.463-.213-.509-.463-.453l-1.1-.14a5.71 5.71 0 0 1-2.165-1.839 3.137 3.137 0 0 0-2.998-1.361c-.241.009-.305.175-.342.481-.111.888-.509 1.239-1.12 1.239-1.249-.018-2.497.019-3.746-.018-.685-.018-1.037-.517-1.055-1.489-.047-1.906-.13-2.933 1.767-2.775.897.074 1.813.009 2.72.018.444 0 .906-.102 1.248.518.111.163.325.217.501.129.379-.38.712-.861 1.073-1.305a7.4 7.4 0 0 1 .822-.997c.25-.204.621-.121.824-.353a5.1 5.1 0 0 0 .398-1.082.778.778 0 0 1 .777-.519c.648.005 1.293.001 1.937-.002m-.676 1.014c-.225.001-.451.003-.677.006-.851.009-.963.214-.917 1.407.028.611.213.861.629.851.528-.018 1.056-.009 1.583-.009.491 0 .981.009 1.471 0 .768-.018.861-.139.851-1.156-.009-.99-.074-1.084-.907-1.093-.68-.007-1.355-.009-2.033-.006m-7.372 3.576c-.353-.001-.707.011-1.059.011-.528 0-1.054-.019-1.581.009-.583.028-.676.185-.676 1.101 0 .934.092 1.138.638 1.156 1.091.019 2.184.019 3.276 0 .49-.018.601-.231.62-1.026.018-.953-.085-1.203-.584-1.231a10 10 0 0 0-.634-.02m11.921 3.253c-.619 0-1.238.005-1.858.014-.083 0-.168.177-.242.279a1.942 1.942 0 0 0 0 1.693c.083.101.159.285.242.285 1.24.019 2.479.019 3.71 0 .065 0 .129-.212.184-.314 0-.546.009-1.092.009-1.628-.065-.111-.128-.315-.193-.315-.615-.009-1.234-.014-1.852-.014"/></svg>