<svg xmlns="http://www.w3.org/2000/svg" fill="#44739e" viewBox="0 0 24 24"><path d="M11.976 2.024a10 10 0 1 0 10 10 10.011 10.011 0 0 0-10-10M5.395 5.689a1.742 1.742 0 0 0 1.343.522 1.946 1.946 0 0 0 1.4-.473.817.817 0 0 0 .238-.614 1.118 1.118 0 0 0-.958-1.025 9.105 9.105 0 0 1 9.058-.026l.008.007c.085.049.17.1.254.151L4.725 17.581a9.113 9.113 0 0 1 .67-11.892m6.581 15.477c-.228 0-.454-.012-.678-.028v-4.732a4.628 4.628 0 0 0 3.361 1.239 4.967 4.967 0 0 0 5.293-5.175 4.8 4.8 0 0 0-1.885-3.937l-1.453 1.535a3.443 3.443 0 0 1 .963 2.479 3.117 3.117 0 0 1-3.268 3.446 3.242 3.242 0 0 1-2.389-.969l-2.973 3.145v2.479a9.16 9.16 0 0 1-1.848-.9L19.338 6.613a9.135 9.135 0 0 1-7.362 14.553M8.947 10.985v1.378l4.076-4.487a4.447 4.447 0 0 0-1.933 1.29l-.081-1.389H8.845l.009.17c.049.933.093 1.867.093 3.038m-3.445 5.17 2.588-2.849V7.808H5.502z"/></svg>