<svg xmlns="http://www.w3.org/2000/svg" viewBox="0 0 24 24"><path fill="#44739e" d="M22.023 8.726a1.256 1.256 0 0 0-1.116.77l-1.169 2.254-.566-2.222a.939.939 0 0 0-.969-.804 1.1 1.1 0 0 0-1.052.716l-1.221 2.31-.409-2.195a1.014 1.014 0 0 0-2.011.15 1.4 1.4 0 0 0 .022.253l.055.338h-.023A3.189 3.189 0 0 0 10.63 8.6a3.271 3.271 0 0 0-2.946 1.696h-.023l.075-.476a2 2 0 0 0 .022-.233.826.826 0 0 0-.91-.874.99.99 0 0 0-1 .88l-.428 2.152-1.588-2.45a1.024 1.024 0 0 0-.919-.571.925.925 0 0 0-.965.791l-.913 4.399a2.3 2.3 0 0 0-.031.353.861.861 0 0 0 .912.937 1.043 1.043 0 0 0 1.031-.862l.44-2.116 1.466 2.349a1.1 1.1 0 0 0 .964.631.959.959 0 0 0 1-.831l.33-1.57h.023a3.203 3.203 0 0 0 3.336 2.592 3.501 3.501 0 0 0 3.463-2.594h.022l.314 1.495a.99.99 0 0 0 1.007.906 1.181 1.181 0 0 0 1.074-.704l1.393-2.328.578 2.147c.172.632.513.88 1.019.88a1.192 1.192 0 0 0 1.05-.704l2.413-4.312A1.2 1.2 0 0 0 23 9.621a.908.908 0 0 0-.977-.895m-11.436 4.812a1.532 1.532 0 0 1-1.533-1.54 1.506 1.506 0 0 1 1.533-1.54 1.54 1.54 0 1 1 0 3.08"/></svg>