<svg xmlns="http://www.w3.org/2000/svg" fill="#44739e" viewBox="0 0 24 24"><path d="M21.112 9.025a1.142 1.142 0 0 0-1.015.7l-1.063 2.049-.515-2.02a.854.854 0 0 0-.881-.731 1 1 0 0 0-.956.651l-1.11 2.1-.372-1.995a.922.922 0 0 0-1.829.136 1.25 1.25 0 0 0 .02.23l.05.307h-.021a2.9 2.9 0 0 0-2.667-1.542 2.974 2.974 0 0 0-2.679 1.542h-.021l.068-.432a1.8 1.8 0 0 0 .02-.212.751.751 0 0 0-.827-.795.9.9 0 0 0-.909.8l-.389 1.957-1.444-2.228a.931.931 0 0 0-.836-.519.841.841 0 0 0-.877.719l-.83 4a2.1 2.1 0 0 0-.029.321.783.783 0 0 0 .83.852.948.948 0 0 0 .937-.784l.4-1.924L5.5 14.343a1 1 0 0 0 .877.574.872.872 0 0 0 .909-.756l.3-1.427h.021a2.912 2.912 0 0 0 3.033 2.356 3.183 3.183 0 0 0 3.149-2.358h.02l.285 1.359a.9.9 0 0 0 .916.824 1.074 1.074 0 0 0 .976-.64l1.267-2.117.525 1.952c.157.575.467.8.927.8a1.084 1.084 0 0 0 .955-.64l2.194-3.92A1.09 1.09 0 0 0 22 9.839a.826.826 0 0 0-.888-.814M10.714 13.4A1.393 1.393 0 0 1 9.32 12a1.369 1.369 0 0 1 1.394-1.4 1.4 1.4 0 1 1 0 2.8"/></svg>