<svg xmlns="http://www.w3.org/2000/svg" fill="#44739e" viewBox="0 0 24 24"><path d="m12.974 5.382-.674-.673a.45.45 0 0 0-.191-.113.5.5 0 0 0-.128-.019.43.43 0 0 0-.169.035.46.46 0 0 0-.15.1l-.673.673a.443.443 0 0 0-.124.4.41.41 0 0 0 .066.161.4.4 0 0 0 .058.071l.673.674a.48.48 0 0 0 .19.113.47.47 0 0 0 .214.011.436.436 0 0 0 .233-.124l.675-.674a.445.445 0 0 0 .124-.4.41.41 0 0 0-.066-.161.5.5 0 0 0-.058-.074m8.579 5.532-8.467-8.449a1.545 1.545 0 0 0-2.172 0l-8.467 8.451a1.54 1.54 0 0 0 0 2.17l8.467 8.449a1.546 1.546 0 0 0 2.172 0l8.467-8.451a1.54 1.54 0 0 0 0-2.17M8.175 12.1a.438.438 0 0 1-.22.269.4.4 0 0 1-.165.049.437.437 0 0 1-.361-.129l-1.022-1.025-.338-.337a.48.48 0 0 0-.232-.124.4.4 0 0 0-.128-.006.47.47 0 0 0-.167.05.45.45 0 0 0-.109.08l-.674.674a.443.443 0 0 0-.115.444.48.48 0 0 0 .115.191l.336.336 1.019 1.021a.434.434 0 0 1 .128.272.4.4 0 0 1-.016.171.44.44 0 0 1-.219.269.4.4 0 0 1-.166.049.442.442 0 0 1-.36-.128l-1.023-1.018-.405-.4-.011-.01a1.244 1.244 0 0 1-.36-.876v-.059a1.17 1.17 0 0 1 .033-.235 1.29 1.29 0 0 1 .169-.385 1.25 1.25 0 0 1 .157-.192l.832-.831a1.228 1.228 0 0 1 .872-.359 1.27 1.27 0 0 1 .68.2 1.2 1.2 0 0 1 .192.157l.012.011.405.4 1.023 1.021a.434.434 0 0 1 .128.272.41.41 0 0 1-.01.178m2.782-3.257a.95.95 0 0 1-.022.177 1.3 1.3 0 0 1-.117.338 1.2 1.2 0 0 1-.219.3l-.832.829a1.15 1.15 0 0 1-.2.161c-.024.015-.048.03-.073.044l.435.441a.445.445 0 0 1 .131.315.56.56 0 0 1-.017.128.44.44 0 0 1-.221.268.42.42 0 0 1-.165.05.445.445 0 0 1-.361-.131l-1.278-1.278-.15-.15-.682-.68a1.237 1.237 0 0 1-.36-.874.6.6 0 0 1 0-.059 1.1 1.1 0 0 1 .032-.235A1.35 1.35 0 0 1 7 8.156a1.25 1.25 0 0 1 .19-.244l.832-.831a1.215 1.215 0 0 1 .878-.358 1.3 1.3 0 0 1 .522.112 1.25 1.25 0 0 1 .354.244l.832.829a1.232 1.232 0 0 1 .347.7l.006.059a1.2 1.2 0 0 1 .007.119zm2.818-2.358a1.1 1.1 0 0 1-.086.093l-.832.831a1.23 1.23 0 0 1-.935.357 1.17 1.17 0 0 1-.293-.049 1.246 1.246 0 0 1-.521-.308l-.831-.831a1.237 1.237 0 0 1-.36-.874v-.059a1.07 1.07 0 0 1 .035-.245 1.16 1.16 0 0 1 .134-.334 1.38 1.38 0 0 1 .191-.246l.831-.829a1.238 1.238 0 0 1 .874-.361v.01a1.28 1.28 0 0 1 .521.113 1.26 1.26 0 0 1 .354.247l.832.83a1.242 1.242 0 0 1 .086 1.651zM9.879 8.471 9.206 7.8a.48.48 0 0 0-.192-.112.5.5 0 0 0-.128-.019h.005a.444.444 0 0 0-.319.132l-.672.668a.445.445 0 0 0 0 .63l.6.6.071.072a.445.445 0 0 0 .19.113.5.5 0 0 0 .128.019.447.447 0 0 0 .311-.129l.677-.674A.446.446 0 0 0 10 8.7a.41.41 0 0 0-.066-.161.5.5 0 0 0-.055-.068"/></svg>