<svg xmlns="http://www.w3.org/2000/svg" viewBox="0 0 24 24"><path fill="#44739e" d="m13.071 4.721-.741-.741a.495.495 0 0 0-.21-.124.55.55 0 0 0-.141-.021.47.47 0 0 0-.186.039.51.51 0 0 0-.165.11l-.74.74a.487.487 0 0 0-.136.44.45.45 0 0 0 .072.177.44.44 0 0 0 .064.078l.74.741a.53.53 0 0 0 .209.125.52.52 0 0 0 .236.012.48.48 0 0 0 .256-.137l.742-.741a.489.489 0 0 0 .137-.44.45.45 0 0 0-.073-.177.55.55 0 0 0-.064-.081m9.437 6.085-9.313-9.294a1.699 1.699 0 0 0-2.39 0l-9.313 9.296a1.694 1.694 0 0 0 0 2.387l9.313 9.294a1.701 1.701 0 0 0 2.39 0l9.313-9.296a1.694 1.694 0 0 0 0-2.387M7.793 12.11a.482.482 0 0 1-.242.296.44.44 0 0 1-.182.054.481.481 0 0 1-.397-.142l-1.124-1.127-.372-.371a.53.53 0 0 0-.255-.136.44.44 0 0 0-.141-.007.52.52 0 0 0-.184.055.5.5 0 0 0-.12.088l-.741.741a.487.487 0 0 0-.126.489.53.53 0 0 0 .126.21l.37.369 1.12 1.124a.477.477 0 0 1 .141.299.44.44 0 0 1-.017.188.484.484 0 0 1-.241.296.44.44 0 0 1-.183.054.486.486 0 0 1-.396-.141l-1.125-1.12-.446-.44-.012-.011a1.368 1.368 0 0 1-.396-.964v-.064a1.3 1.3 0 0 1 .037-.259 1.42 1.42 0 0 1 .186-.423 1.4 1.4 0 0 1 .172-.212l.915-.914a1.35 1.35 0 0 1 .96-.395 1.397 1.397 0 0 1 .748.22 1.32 1.32 0 0 1 .211.173l.013.012.445.44 1.126 1.123a.477.477 0 0 1 .141.299.45.45 0 0 1-.011.196m3.06-3.582a1.05 1.05 0 0 1-.024.194 1.43 1.43 0 0 1-.129.372 1.32 1.32 0 0 1-.241.33l-.915.912a1.26 1.26 0 0 1-.22.177c-.027.017-.053.033-.081.048l.479.486a.49.49 0 0 1 .144.346.62.62 0 0 1-.019.141.484.484 0 0 1-.243.295.46.46 0 0 1-.181.055.489.489 0 0 1-.397-.144L7.62 10.334l-.165-.165-.75-.748a1.36 1.36 0 0 1-.396-.962.7.7 0 0 1 0-.065 1.2 1.2 0 0 1 .035-.258 1.5 1.5 0 0 1 .156-.364 1.38 1.38 0 0 1 .209-.269l.915-.914a1.336 1.336 0 0 1 .966-.393 1.43 1.43 0 0 1 .574.123 1.38 1.38 0 0 1 .39.268l.915.912a1.355 1.355 0 0 1 .382.77l.006.065a1.3 1.3 0 0 1 .008.131Zm3.099-2.594a1.2 1.2 0 0 1-.094.102l-.915.914a1.353 1.353 0 0 1-1.029.393 1.3 1.3 0 0 1-.322-.054 1.37 1.37 0 0 1-.573-.339l-.914-.914a1.36 1.36 0 0 1-.396-.961V5.01a1.18 1.18 0 0 1 .038-.27 1.28 1.28 0 0 1 .148-.367 1.52 1.52 0 0 1 .21-.271l.914-.912a1.362 1.362 0 0 1 .961-.397v.011a1.41 1.41 0 0 1 .573.125 1.39 1.39 0 0 1 .39.271l.915.913a1.366 1.366 0 0 1 .094 1.816ZM9.667 8.118l-.74-.738a.53.53 0 0 0-.212-.123.55.55 0 0 0-.14-.021h.005a.488.488 0 0 0-.351.145l-.739.735a.489.489 0 0 0 0 .693l.66.66.078.079a.49.49 0 0 0 .209.125.55.55 0 0 0 .141.021.492.492 0 0 0 .342-.142l.745-.742a.491.491 0 0 0 .135-.44.45.45 0 0 0-.073-.177.55.55 0 0 0-.06-.075"/></svg>