<svg xmlns="http://www.w3.org/2000/svg" viewBox="0 0 24 24"><path fill="#44739e" d="M1 15.921v-7.7h2.53v7.7Zm5.963-6.475 1.453 6.475H5.652l-1.735-7.7h1.551a1.46 1.46 0 0 1 .97.353 1.53 1.53 0 0 1 .526.872Zm1.833 6.475v-7.7h2.53v7.7Zm4.435-4.771a1.529 1.529 0 0 1-1.54-1.517V9.61a1.48 1.48 0 0 1 .206-.77 1.54 1.54 0 0 1 2.656 0 1.474 1.474 0 0 1 .206.77 1.496 1.496 0 0 1-.206.77 1.54 1.54 0 0 1-.55.559 1.49 1.49 0 0 1-.77.207Zm1.918 4.771v-7.7h2.53v7.7Zm5.726-3.492c.006.008.06.096.163.265s.233.386.396.652q.516.838 1.024 1.68c.158.263.34.562.542.895h-2.775q-.261-.423-.473-.77c-.141-.228-.291-.474-.449-.737s-.317-.521-.472-.77a31 31 0 0 1-.402-.66 9.5 9.5 0 0 0-.233-.38 1.12 1.12 0 0 1-.183-.542 1.045 1.045 0 0 1 .172-.52c.043-.073.123-.201.239-.385s.251-.403.407-.66.312-.511.472-.77l.449-.744.473-.77H23l-2.147 3.503a.693.693 0 0 0-.11.347.66.66 0 0 0 .132.366"/></svg>