<svg xmlns="http://www.w3.org/2000/svg" fill="#44739e" viewBox="0 0 24 24"><path d="M21.758 15.594a1.707 1.707 0 0 0-.69-.706 2.345 2.345 0 0 0-2.119.008 1.8 1.8 0 0 0-.709.725 2.286 2.286 0 0 0-.253 1.106 2.386 2.386 0 0 0 .237 1.1 1.637 1.637 0 0 0 .682.706 2.115 2.115 0 0 0 1.028.241 2.19 2.19 0 0 0 1.076-.257 1.807 1.807 0 0 0 .728-.732 2.294 2.294 0 0 0 .262-1.12 2.26 2.26 0 0 0-.242-1.071m-.737 1.9a1.052 1.052 0 0 1-.424.487 1.21 1.21 0 0 1-.624.16 1.039 1.039 0 0 1-1.012-.654 1.97 1.97 0 0 1-.148-.81 1.84 1.84 0 0 1 .148-.788 1.03 1.03 0 0 1 .417-.467 1.25 1.25 0 0 1 .642-.155 1.21 1.21 0 0 1 .511.1.93.93 0 0 1 .358.284 1.27 1.27 0 0 1 .214.448 2.2 2.2 0 0 1 .07.581 1.95 1.95 0 0 1-.152.82zm-10.49.714a.357.357 0 0 1-.3-.125.677.677 0 0 1-.086-.413l.016-1.605a1.86 1.86 0 0 0-.062-.5 1.22 1.22 0 0 0-.187-.4 1.07 1.07 0 0 0-.323-.288 1.65 1.65 0 0 0-.472-.179 2.7 2.7 0 0 0-.617-.058 3.8 3.8 0 0 0-.491.031 3.4 3.4 0 0 0-.456.089 3.9 3.9 0 0 0-.409.136l-.094.663a4.6 4.6 0 0 1 .71-.195 2.9 2.9 0 0 1 .322-.043c.107-.008.212-.012.316-.012a1.74 1.74 0 0 1 .471.055.666.666 0 0 1 .3.164.62.62 0 0 1 .157.277 1.48 1.48 0 0 1 .046.393v.2l-.911.062a2.4 2.4 0 0 0-.9.2 1.287 1.287 0 0 0-.534.432 1.007 1.007 0 0 0-.175.572 1.13 1.13 0 0 0 .136.549 1.025 1.025 0 0 0 .413.41 1.4 1.4 0 0 0 .689.156 1.83 1.83 0 0 0 .659-.11 1.52 1.52 0 0 0 .491-.311 2 2 0 0 0 .153-.164.72.72 0 0 0 .084.23.636.636 0 0 0 .3.265 1.15 1.15 0 0 0 .443.082h.137a.8.8 0 0 0 .128-.02l.113-.027a.7.7 0 0 0 .09-.027l.086-.522a.7.7 0 0 1-.133.031 1 1 0 0 1-.11.002m-1.168-.474a1 1 0 0 1-.129.123 1.5 1.5 0 0 1-.273.172 1.2 1.2 0 0 1-.3.1 1.75 1.75 0 0 1-.331.031.87.87 0 0 1-.37-.07.517.517 0 0 1-.23-.2.58.58 0 0 1-.078-.307.512.512 0 0 1 .429-.562 2.43 2.43 0 0 1 .607-.062h.683Zm2.525-11.412a1.05 1.05 0 0 0-.148-.554 1.105 1.105 0 0 0-1.909 0 1.064 1.064 0 0 0-.148.553v.016a1.1 1.1 0 0 0 1.107 1.091 1.066 1.066 0 0 0 .553-.147 1.107 1.107 0 0 0 .545-.959m2.328 8.506-.023-.009a2.65 2.65 0 0 0-.989-.179 1.9 1.9 0 0 0-1.691 1 2.722 2.722 0 0 0-.066 2.225 1.54 1.54 0 0 0 .592.674 1.727 1.727 0 0 0 .923.237 2.077 2.077 0 0 0 1.13-.319c.058-.036.117-.077.175-.119l.1.36h.646v-5.874l-.795.109zm0 3a2.56 2.56 0 0 1-.417.2 1.61 1.61 0 0 1-.557.113 1.26 1.26 0 0 1-.638-.152.98.98 0 0 1-.4-.467 1.96 1.96 0 0 1-.141-.791 1.844 1.844 0 0 1 .156-.806 1.1 1.1 0 0 1 .448-.491 1.39 1.39 0 0 1 .7-.168 2.36 2.36 0 0 1 .736.113c.038.012.08.029.12.043zm2.692-4.813a.51.51 0 0 0-.269-.074.526.526 0 0 0-.273.074.57.57 0 0 0-.2.2.506.506 0 0 0-.074.268.523.523 0 0 0 .074.273.53.53 0 0 0 .2.2.544.544 0 0 0 .273.07.53.53 0 0 0 .269-.07.51.51 0 0 0 .191-.2.54.54 0 0 0 .07-.273.524.524 0 0 0-.07-.268.56.56 0 0 0-.191-.2m.903-7.691h-1.995l-.339.553q-.152.249-.323.534c-.208.345-.418.687-.631 1.029-.084.132-.141.224-.172.276a.747.747 0 0 0-.124.374.8.8 0 0 0 .132.39c.031.047.087.138.167.273s.177.292.289.471.225.365.339.554.221.366.323.53.215.346.339.549h1.995q-.219-.358-.39-.643-.364-.606-.736-1.208a46 46 0 0 1-.285-.467c-.073-.121-.112-.186-.116-.191a.474.474 0 0 1-.093-.258.493.493 0 0 1 .078-.249Zm-5.642-.001h1.816v5.534h-1.816zm-4.566 0h1.816v5.534H7.603ZM2 5.323h1.816v5.534H2Zm5.33 5.534L6.286 6.2a1.1 1.1 0 0 0-.377-.627 1.05 1.05 0 0 0-.7-.254H4.1l1.246 5.534zm8.896 7.841h.795v-4.051l-.795.117zM4.713 16.417a2 2 0 0 0 .306-.072 1.49 1.49 0 0 0 .549-.307 1.44 1.44 0 0 0 .367-.514 1.8 1.8 0 0 0 .132-.713 1.94 1.94 0 0 0-.175-.826 1.31 1.31 0 0 0-.577-.6 2.23 2.23 0 0 0-1.079-.222H2V18.7h.81v-2.121H4L5.381 18.7h.951l-1.293-1.918Zm-.742-.508H2.81v-2.064h1.255a1.76 1.76 0 0 1 .662.1.75.75 0 0 1 .382.327 1.14 1.14 0 0 1 .124.565 1.127 1.127 0 0 1-.152.619.846.846 0 0 1-.436.343 1.93 1.93 0 0 1-.674.11"/></svg>