<svg xmlns="http://www.w3.org/2000/svg" viewBox="0 0 24 24"><path fill="#44739e" d="M22.733 15.954a1.88 1.88 0 0 0-.759-.777 2.579 2.579 0 0 0-2.331.009 1.98 1.98 0 0 0-.78.797 2.515 2.515 0 0 0-.278 1.217 2.625 2.625 0 0 0 .261 1.21 1.8 1.8 0 0 0 .75.776 2.326 2.326 0 0 0 1.131.265 2.41 2.41 0 0 0 1.183-.282 1.99 1.99 0 0 0 .801-.805 2.52 2.52 0 0 0 .288-1.232 2.486 2.486 0 0 0-.266-1.178m-.811 2.089a1.157 1.157 0 0 1-.466.536 1.33 1.33 0 0 1-.686.176 1.143 1.143 0 0 1-1.113-.719 2.17 2.17 0 0 1-.163-.891 2.02 2.02 0 0 1 .163-.867 1.133 1.133 0 0 1 .458-.514 1.375 1.375 0 0 1 .706-.17 1.33 1.33 0 0 1 .562.11 1.02 1.02 0 0 1 .394.312 1.4 1.4 0 0 1 .236.493 2.42 2.42 0 0 1 .077.639 2.145 2.145 0 0 1-.168.902Zm-11.538.786a.393.393 0 0 1-.33-.138.745.745 0 0 1-.095-.454l.018-1.765a2.05 2.05 0 0 0-.068-.55 1.34 1.34 0 0 0-.206-.44 1.18 1.18 0 0 0-.355-.317 1.82 1.82 0 0 0-.52-.197 2.97 2.97 0 0 0-.678-.064 4.2 4.2 0 0 0-.54.034 3.7 3.7 0 0 0-.502.098 4.3 4.3 0 0 0-.45.15l-.103.729a5.06 5.06 0 0 1 .781-.214 3.2 3.2 0 0 1 .354-.048c.118-.009.233-.013.348-.013a1.9 1.9 0 0 1 .518.061.733.733 0 0 1 .33.18.68.68 0 0 1 .172.305 1.63 1.63 0 0 1 .051.432v.22l-1.002.068a2.64 2.64 0 0 0-.99.22 1.416 1.416 0 0 0-.587.475 1.11 1.11 0 0 0-.193.629 1.24 1.24 0 0 0 .15.604 1.127 1.127 0 0 0 .454.451 1.54 1.54 0 0 0 .758.172 2.01 2.01 0 0 0 .725-.121 1.67 1.67 0 0 0 .54-.342 2.2 2.2 0 0 0 .168-.181.79.79 0 0 0 .092.253.7.7 0 0 0 .33.292 1.26 1.26 0 0 0 .488.09h.15a.9.9 0 0 0 .141-.022l.124-.03a.8.8 0 0 0 .099-.029l.095-.574a.77.77 0 0 1-.146.034 1.1 1.1 0 0 1-.121.002m-1.285-.522a1.1 1.1 0 0 1-.142.136 1.65 1.65 0 0 1-.3.189 1.32 1.32 0 0 1-.33.11 1.93 1.93 0 0 1-.364.034.96.96 0 0 1-.407-.077.57.57 0 0 1-.253-.22.64.64 0 0 1-.086-.338.563.563 0 0 1 .472-.618 2.67 2.67 0 0 1 .668-.068h.751Zm2.777-12.552a1.155 1.155 0 0 0-.162-.61 1.215 1.215 0 0 0-2.1 0 1.17 1.17 0 0 0-.163.609v.017a1.21 1.21 0 0 0 1.218 1.2 1.173 1.173 0 0 0 .608-.161 1.218 1.218 0 0 0 .599-1.055m2.561 9.356-.025-.01a2.92 2.92 0 0 0-1.088-.197 2.09 2.09 0 0 0-1.86 1.1 2.994 2.994 0 0 0-.073 2.448 1.694 1.694 0 0 0 .652.741 1.9 1.9 0 0 0 1.015.261 2.285 2.285 0 0 0 1.243-.351c.064-.04.128-.085.192-.131l.11.396h.711v-6.461l-.875.12Zm0 3.3a2.8 2.8 0 0 1-.459.22 1.77 1.77 0 0 1-.612.124 1.386 1.386 0 0 1-.702-.167 1.078 1.078 0 0 1-.44-.514 2.16 2.16 0 0 1-.155-.87 2.03 2.03 0 0 1 .172-.886 1.21 1.21 0 0 1 .492-.54 1.53 1.53 0 0 1 .77-.185 2.6 2.6 0 0 1 .81.124c.042.013.088.032.132.047Zm2.961-5.294a.56.56 0 0 0-.296-.082.58.58 0 0 0-.3.082.63.63 0 0 0-.22.22.557.557 0 0 0-.081.295.575.575 0 0 0 .081.3.583.583 0 0 0 .22.22.6.6 0 0 0 .3.077.583.583 0 0 0 .296-.077.56.56 0 0 0 .21-.22.594.594 0 0 0 .077-.3.576.576 0 0 0-.077-.295.616.616 0 0 0-.21-.22m.994-8.46h-2.195l-.373.608q-.167.274-.355.588c-.229.379-.46.755-.694 1.131-.093.146-.155.247-.189.304a.82.82 0 0 0-.137.411.88.88 0 0 0 .145.429c.035.052.096.152.184.301s.195.321.318.518.248.401.373.609.243.403.355.583.237.381.373.604h2.195q-.241-.394-.429-.707-.401-.667-.81-1.329a51 51 0 0 1-.314-.514c-.08-.133-.123-.204-.127-.21a.52.52 0 0 1-.102-.284.54.54 0 0 1 .085-.273Zm-6.206-.001h1.997v6.087h-1.997Zm-5.023 0h1.998v6.087H7.163ZM1 4.656h1.998v6.087H1Zm5.863 6.087L5.714 5.62a1.21 1.21 0 0 0-.414-.689 1.155 1.155 0 0 0-.77-.28H3.31l1.37 6.088Zm9.785 8.625h.875v-4.456l-.875.129ZM3.984 16.859a2.2 2.2 0 0 0 .337-.079 1.64 1.64 0 0 0 .604-.338 1.58 1.58 0 0 0 .403-.565 1.98 1.98 0 0 0 .146-.785 2.13 2.13 0 0 0-.193-.908 1.44 1.44 0 0 0-.635-.66 2.45 2.45 0 0 0-1.186-.244H1v6.09h.891v-2.333H3.2l1.519 2.333h1.046l-1.422-2.11Zm-.816-.559H1.891v-2.27h1.38a1.94 1.94 0 0 1 .729.11.825.825 0 0 1 .42.359 1.254 1.254 0 0 1 .136.622 1.24 1.24 0 0 1-.167.681.93.93 0 0 1-.48.377 2.12 2.12 0 0 1-.741.121"/></svg>