<svg xmlns="http://www.w3.org/2000/svg" viewBox="0 0 24 24"><path fill="#44739e" d="m5.037 15.375-.136-.039-.034.12.499.121.019-.132-.19-.039.022-.093a.54.54 0 0 1-.153-.039Zm.238-.591a.157.157 0 1 0 .188.155.173.173 0 0 0-.188-.155m0-.224a.424.424 0 0 0-.458.379.376.376 0 0 0 .25.33l.03-.09.147.028-.024.1a.4.4 0 0 0 .055 0 .385.385 0 1 0 0-.757Zm0 .649a.276.276 0 1 1 .33-.27.303.303 0 0 1-.33.27m6.296.8-.279-.296a.153.153 0 0 0-.18-.029l-.335.173a.139.139 0 0 0-.077.137l.085.691a.151.151 0 0 0 .259.076l.53-.566a.132.132 0 0 0-.003-.186m3.348 1.425a.266.266 0 0 0-.266.168c-.062.12-.04.209.065.234a.31.31 0 0 0 .122 0l.025-.073a.26.26 0 0 1-.093 0c-.048-.013-.077-.049-.045-.11l.205.049a.3.3 0 0 0 .024-.041c.065-.128.045-.208-.037-.227m-.031.172-.124-.029c.022-.038.068-.084.11-.073s.035.063.014.102m-.197-.409-.11.208a.066.066 0 0 0-.06-.064c-.074-.018-.176.039-.244.17s-.047.21.03.228a.151.151 0 0 0 .129-.039l-.024.055.081.02c.013-.029.035-.072.055-.11l.233-.446Zm-.172.33-.036.07c-.032.062-.078.075-.11.069s-.044-.063-.008-.132.087-.116.133-.11.051.044.021.1Zm-.339-.27a.253.253 0 0 0-.268.163c-.066.126-.038.22.055.237s.189-.019.266-.165c.066-.117.043-.211-.053-.235m-.041.221c-.036.068-.089.119-.132.11s-.038-.073 0-.141.084-.121.135-.11.028.075-.003.135Zm-.245-.444-.157.186c-.05.061-.097.121-.14.177.021-.063.039-.129.058-.197l.053-.211-.11-.028-.31.524.083.02.116-.202c.037-.065.082-.142.119-.21a4 4 0 0 0-.062.207l-.058.22.069.017.171-.201c.046-.057.101-.123.147-.183-.029.054-.07.14-.105.21l-.1.209.087.021.251-.538Zm-.672.003-.148.192-.052.068c.007-.022.015-.051.022-.075l.054-.213-.099-.024-.07.381v.018a.2.2 0 0 1-.083.061.23.23 0 0 1-.062.016l-.024.092a.25.25 0 0 0 .118-.033.98.98 0 0 0 .229-.21l.22-.248Zm-.464.322a.9.9 0 0 1 .043-.093l.074-.141c.044-.083.055-.167-.052-.192a.27.27 0 0 0-.135 0l-.018.07a.2.2 0 0 1 .098-.006c.05.012.046.044.027.082a.22.22 0 0 0-.263.1c-.033.062-.021.125.041.14a.146.146 0 0 0 .117-.025l-.015.042Zm-.116-.102c-.024 0-.035-.026-.016-.062a.11.11 0 0 1 .137-.045l-.029.055a.088.088 0 0 1-.096.052Zm-.085-.378-.118.157a4 4 0 0 0-.085.122c.016-.043.029-.085.042-.133l.051-.174-.073-.016-.126.161c-.029.036-.061.077-.088.115.015-.042.03-.085.045-.128l.059-.175-.095-.023-.11.409.083.019.11-.138a1.2 1.2 0 0 0 .086-.116c-.018.049-.031.087-.042.127l-.042.155.083.02.301-.361Zm-.583-.304-.413.499.092.022.11-.132.128.029-.04.149.096.023.145-.563Zm-.06.338-.101-.024.092-.11c.023-.03.053-.072.077-.103l-.035.11Zm1.763-.259a.15.15 0 0 0 .129-.038l-.024.056.08.019c.013-.029.034-.072.055-.11l.233-.446-.091-.022-.11.208a.068.068 0 0 0-.059-.065c-.074-.018-.177.039-.245.169s-.046.211.032.229m.063-.208c.035-.067.086-.115.133-.11.03.008.046.043.017.098l-.038.072a.103.103 0 0 1-.11.068c-.037-.005-.04-.057-.002-.128m-.369.135a.31.31 0 0 0 .122 0l.025-.074a.24.24 0 0 1-.093 0c-.049-.011-.077-.047-.045-.11l.205.048a.3.3 0 0 0 .024-.038c.065-.125.045-.204-.037-.22a.265.265 0 0 0-.266.168c-.062.111-.04.2.065.226m.158-.33c.045.011.033.062.012.103l-.124-.03c.022-.039.068-.086.112-.076Zm-.858.156.089.021.122-.231a.101.101 0 0 1 .095-.065c.035.008.03.048.006.093l-.119.228.089.021.122-.233c.029-.054.068-.07.094-.063s.031.048 0 .103l-.11.22.089.021.122-.233c.058-.11.037-.169-.022-.184a.154.154 0 0 0-.135.04.069.069 0 0 0-.054-.086.154.154 0 0 0-.129.036l.023-.052-.078-.019c-.017.034-.034.071-.057.116Zm-.146-.037.103-.199c.035-.065.083-.089.124-.079l.023.008.05-.097-.019-.008a.145.145 0 0 0-.125.055l.032-.068-.078-.019-.061.121-.138.264Zm-.331-.236.126.031-.039.147.095.023.146-.562-.11-.028-.412.499.092.022Zm.145-.189c.023-.03.054-.071.077-.103l-.035.11-.035.128-.101-.023Zm-3.366-.279a.385.385 0 0 0-.19.008l-.011.098a.26.26 0 0 1 .137-.01c.072.015.073.059.054.11a.276.276 0 0 0-.35.143.132.132 0 0 0 .087.193.187.187 0 0 0 .158-.038l-.013.058.119.026a1.1 1.1 0 0 1 .042-.128l.076-.196c.045-.115.045-.23-.109-.264m-.066.378a.11.11 0 0 1-.119.073c-.033-.007-.054-.036-.034-.087.029-.077.11-.079.182-.063Zm-.268-.304a.13.13 0 0 1 .033.01l.052-.136a.08.08 0 0 0-.029-.008.173.173 0 0 0-.163.077l.031-.094-.11-.025c-.017.048-.036.102-.061.168l-.144.368.133.028.11-.276c.026-.092.085-.125.148-.112m-.406.117a.6.6 0 0 0 .026-.057c.068-.172.025-.281-.095-.308a.32.32 0 0 0-.339.237c-.065.166-.019.288.135.321a.4.4 0 0 0 .173 0l.019-.101a.37.37 0 0 1-.13 0 .11.11 0 0 1-.086-.157Zm-.11-.268c.065.014.058.087.036.142l-.178-.038c.019-.057.073-.12.137-.107Zm-.427-.202a.205.205 0 0 0-.182.057.11.11 0 0 0-.09-.117.197.197 0 0 0-.174.052l.015-.073-.11-.024c-.017.047-.036.099-.06.162l-.148.373.129.027.125-.318a.123.123 0 0 1 .122-.091c.052.012.051.067.025.13l-.124.316.129.028.127-.324c.03-.075.083-.097.119-.089s.053.067.022.144l-.119.301.13.029.128-.325c.06-.158.02-.24-.064-.258m-.848-.185a.37.37 0 0 0-.19.007l-.012.097a.26.26 0 0 1 .137-.01c.072.016.072.06.051.11a.278.278 0 0 0-.349.146.131.131 0 0 0 .085.193.194.194 0 0 0 .158-.037l-.015.057.119.027a1 1 0 0 1 .043-.129l.077-.196c.05-.117.05-.231-.104-.265m-.076.376a.11.11 0 0 1-.12.075c-.033-.008-.053-.036-.033-.087.03-.078.11-.08.183-.064Zm-.287-.547a.22.22 0 0 1 .1.049l.071-.11a.26.26 0 0 0-.129-.06.44.44 0 0 0-.49.316c-.087.22-.035.394.171.44a.37.37 0 0 0 .162 0l.027-.118a.32.32 0 0 1-.119 0c-.124-.027-.168-.133-.101-.3s.198-.241.308-.217m11.079 7.257 4.968-18.31a.363.363 0 0 0-.294-.455L6.495 1h-.029a.188.188 0 0 0-.181.135L1.144 18.509a.363.363 0 0 0 .211.44l1.466.599a.33.33 0 0 0 .056.017l14.102 3.236c.229.058.517-.269.585-.513m-2.016.101a.44.44 0 0 1-.11-.013L1.631 19.048a.452.452 0 0 1-.33-.569L6.473 1.386a.234.234 0 0 1 .259-.166L20.7 3.374a.45.45 0 0 1 .312.201.454.454 0 0 1 .055.365l-5.085 18.119a.451.451 0 0 1-.434.33M22.494 3.56a.44.44 0 0 1 .065.078.454.454 0 0 1 .057.363l-4.968 18.31c-.072.257-.348.583-.614.583a.3.3 0 0 1-.076-.009l-5.747-1.32 5.748 1.43a.822.822 0 0 0 .869-.565l5.008-18.208c.102-.354-.018-.581-.342-.662M7.832 7.943c-.1.293-.082.541.104.573.165.029.33-.165.417-.417.083-.234.055-.44-.118-.474a.416.416 0 0 0-.403.318M20.434 3.6 7.062 1.454a.402.402 0 0 0-.448.282L1.679 18.295a.402.402 0 0 0 .29.504L15.3 22.042a.401.401 0 0 0 .481-.28l4.976-17.656a.402.402 0 0 0-.323-.506m-12.343.434.032-.165a.102.102 0 0 1 .095-.083.064.064 0 0 1 .06.083l-.032.165a.1.1 0 0 1-.095.081.065.065 0 0 1-.06-.081m.03.248a.468.468 0 0 1 .451.604.758.758 0 0 1-.69.603.471.471 0 0 1-.451-.603.748.748 0 0 1 .69-.604m.75-.056-.134.116a.076.076 0 0 1-.11 0 .089.089 0 0 1 .024-.116l.135-.117a.1.1 0 0 1 .058-.028.065.065 0 0 1 .054.026.09.09 0 0 1-.027.119m.11.577a.063.063 0 0 1 .06.084.102.102 0 0 1-.096.08h-.159a.063.063 0 0 1-.059-.083.102.102 0 0 1 .096-.081Zm.099 1.795-.12.345a1.3 1.3 0 0 0-.163-.019.917.917 0 0 0-.779.55.55.55 0 0 1 .441-.134c.292.051.426.354.27.803a.907.907 0 0 1-.908.692c-.44-.073-.519-.52-.318-1.07.193-.515.685-1.322 1.574-1.167Zm.495-1.746a.21.21 0 0 0-.124.037l.01-.11a.278.278 0 0 1 .18-.042c.116.019.132.127.087.247a.8.8 0 0 1-.28.322l-.07.053.204.031-.046.122-.35-.054.035-.088.097-.078a.87.87 0 0 0 .296-.312c.025-.067.02-.128-.039-.128m.414.065a.202.202 0 0 0-.122.037l.009-.11a.273.273 0 0 1 .178-.042c.118.019.136.127.092.247a.79.79 0 0 1-.277.322l-.069.053.206.031-.045.12-.35-.054.033-.088.096-.078a.87.87 0 0 0 .293-.312c.022-.065.017-.122-.044-.132Zm.734 1.971c.441.077.454.63.257 1.254-.236.743-.613 1.127-1.022 1.059-.454-.077-.467-.632-.257-1.259.228-.689.599-1.134 1.022-1.06Zm-.413-1.761.038-.11a.305.305 0 0 1 .12-.158.17.17 0 0 1 .11-.03l.078.012a.11.11 0 0 1 .082.061.211.211 0 0 1 0 .176l-.038.11a.29.29 0 0 1-.119.158.167.167 0 0 1-.115.031l-.079-.012a.11.11 0 0 1-.083-.062.209.209 0 0 1 .006-.176m.95 0a.154.154 0 0 0-.081-.039c-.093-.014-.198.059-.261.24s-.023.269.081.285a.23.23 0 0 0 .101-.007l-.024.117a.27.27 0 0 1-.137.009c-.174-.025-.22-.193-.137-.414.09-.262.263-.374.412-.351a.176.176 0 0 1 .11.046Zm.896 2.003c.448.077.469.63.284 1.254-.22.743-.591 1.127-1.003 1.059-.457-.076-.482-.632-.284-1.259.214-.683.576-1.131 1.003-1.054m-1.281 3.073a.11.11 0 0 1 .033.136.155.155 0 0 1-.176.104.13.13 0 0 1-.08-.042l.046-.073a.117.117 0 0 0 .065.039.051.051 0 0 0 .06-.033c.009-.024 0-.039-.025-.064a.11.11 0 0 1-.037-.129.155.155 0 0 1 .166-.11.125.125 0 0 1 .072.035l-.046.071a.1.1 0 0 0-.052-.03.047.047 0 0 0-.054.031c-.009.027-.001.04.028.065m-.298-.134c-.023 0-.063.013-.087.074l-.091.236-.086-.014.11-.278c.019-.047.032-.085.044-.12l.074.013-.017.054a.141.141 0 0 1 .117-.046c.058.01.085.068.042.179l-.095.244-.086-.014.091-.232c.018-.049.02-.09-.016-.096m-1.306.065a.133.133 0 0 1-.117.048c-.072-.012-.091-.103-.044-.22s.144-.2.213-.189a.066.066 0 0 1 .059.061l.085-.221.084.015-.181.461c-.016.041-.032.085-.042.11l-.075-.012.018-.057Zm-.304-.33c-.023 0-.064.013-.088.074l-.093.236-.085-.014.11-.279c.019-.046.032-.084.045-.119l.074.013-.018.054a.141.141 0 0 1 .117-.047c.058.01.083.069.039.18l-.095.244-.086-.014.092-.232c.021-.054.024-.096-.012-.102Zm-.405.229a.127.127 0 0 1-.11.035c-.059-.01-.075-.072-.049-.136a.198.198 0 0 1 .241-.128c.015-.04.016-.072-.03-.079a.16.16 0 0 0-.09.013l.011-.072a.226.226 0 0 1 .124-.014c.1.017.096.1.06.187l-.058.146a.9.9 0 0 0-.032.095l-.077-.012.011-.043Zm-.397-.193a.23.23 0 0 1-.086.11.242.242 0 0 1-.179.026.7.7 0 0 1-.092-.024l.22-.541a.5.5 0 0 1 .116.008.144.144 0 0 1 .11.055.119.119 0 0 1 0 .11.175.175 0 0 1-.118.11.11.11 0 0 1 .029.141Zm.11-.11c.02-.049.034-.089.047-.124l.073.012-.024.069a.127.127 0 0 1 .11-.065h.018l-.04.1-.021-.005c-.039-.007-.081.021-.11.089l-.082.218-.084-.014Zm1.476-.046.085.014-.22.55-.085-.014Zm-.273-2.349c.13.022.182.151.127.315a.302.302 0 0 1-.315.238c-.139-.023-.179-.163-.127-.315a.309.309 0 0 1 .315-.238m-.254 1.444a.304.304 0 0 1-.321.238c-.141-.023-.182-.163-.13-.314a.315.315 0 0 1 .321-.238c.132.018.185.15.13.314m-1.62.788c-.025 0-.06.016-.083.071l-.097.242-.083-.015.094-.235c.02-.047.023-.087-.01-.092s-.062.018-.084.072l-.097.24-.083-.014.11-.279c.019-.046.033-.084.046-.12l.073.013-.018.053a.138.138 0 0 1 .111-.046.067.067 0 0 1 .055.081.143.143 0 0 1 .121-.051c.056.01.079.066.033.182l-.098.242-.084-.015.091-.225c.033-.058.036-.097.003-.104m-.837.117a.09.09 0 0 0 .029 0l-.032.081a.15.15 0 0 1-.061 0c-.091-.015-.052-.11-.034-.159l.075-.184-.038-.007.032-.078.041.008.03-.074.092-.017-.041.11.07.012-.032.078-.07-.012-.071.174c-.019.042-.015.064.01.068m-.207-.21a.11.11 0 0 1 .03.135.157.157 0 0 1-.177.105.125.125 0 0 1-.079-.042l.047-.074a.11.11 0 0 0 .064.04.052.052 0 0 0 .06-.033c.01-.025 0-.039-.023-.064a.11.11 0 0 1-.034-.13.16.16 0 0 1 .168-.11.118.118 0 0 1 .071.035l-.046.072a.095.095 0 0 0-.052-.031.048.048 0 0 0-.055.032c-.009.03-.002.043.026.065m.323.1c.054-.133.149-.198.236-.184s.11.11.062.229c-.061.152-.163.198-.234.186s-.117-.098-.064-.228Zm.841-3.676.031-.165a.11.11 0 0 1 .093-.083.064.064 0 0 1 .059.083l-.032.165a.101.101 0 0 1-.093.081.063.063 0 0 1-.058-.077Zm.852-.236a.074.074 0 0 1-.11 0l-.087-.117a.075.075 0 0 1-.011-.058.102.102 0 0 1 .098-.085.059.059 0 0 1 .05.024l.086.117a.091.091 0 0 1-.026.119m-1.1-1.581a.059.059 0 0 1 .052.026l.089.116a.09.09 0 0 1-.022.117.076.076 0 0 1-.11 0l-.089-.117a.074.074 0 0 1-.013-.059.102.102 0 0 1 .093-.083m-.09 1.348a.09.09 0 0 1-.025.11l-.13.117a.074.074 0 0 1-.111 0 .09.09 0 0 1 .026-.111l.131-.117a.086.086 0 0 1 .055-.026.059.059 0 0 1 .054.027m-.423-.55a.099.099 0 0 1 .094-.08h.158a.064.064 0 0 1 .061.084.1.1 0 0 1-.094.08h-.158a.064.064 0 0 1-.061-.079Zm-.006 1.799-.398.146.041-.33.557-.201.304.054-.836 2.246-.36-.059.7-1.854Zm-.793 2.906c.028.005.064-.02.083-.065l.1-.246.085.015-.11.276-.048.122-.074-.012.018-.054a.138.138 0 0 1-.117.045c-.06-.01-.081-.066-.033-.186l.098-.237.085.014-.096.218c-.024.064-.026.103.009.11m-.415-.273c.081-.192.22-.273.33-.253a.14.14 0 0 1 .082.036l-.052.084a.11.11 0 0 0-.057-.034c-.073-.013-.156.04-.211.173s-.028.2.051.214a.19.19 0 0 0 .078 0l-.023.088a.24.24 0 0 1-.11 0c-.122-.021-.155-.145-.088-.309Zm3.881 6.024-.453 1.489a.5.5 0 0 1-.59.342l-4.326-.99a.5.5 0 0 1-.367-.634l.448-1.457a.501.501 0 0 1 .585-.341l4.331.953a.501.501 0 0 1 .372.637Zm.22-5.259c-.031.078-.012.128.037.137a.12.12 0 0 0 .057 0l-.022.082a.19.19 0 0 1-.084 0c-.095-.016-.126-.102-.076-.228a.245.245 0 0 1 .251-.183.136.136 0 0 1 .06.026l-.045.079a.08.08 0 0 0-.045-.022c-.056-.011-.108.037-.136.108Zm.181.033c.053-.135.148-.199.235-.185s.11.11.066.23c-.059.152-.16.197-.231.185s-.123-.102-.072-.231Zm5.773 6.574-.454 1.485a.5.5 0 0 1-.59.342l-4.326-.991a.501.501 0 0 1-.366-.635l.446-1.456a.502.502 0 0 1 .587-.342l4.33.954a.5.5 0 0 1 .371.642Zm.947-1.967c-.078.007-.156.01-.236.01a4.651 4.651 0 0 1-3.631-2.299 5.612 5.612 0 0 1 .053-5.27 6.8 6.8 0 0 1 .5-.912 7.28 7.28 0 0 0-2.805-2.5 14.64 14.64 0 0 0-2.502-.971l.019-.085a14.75 14.75 0 0 1 2.523.979 7.39 7.39 0 0 1 2.816 2.504 7.296 7.296 0 0 1 2.641-2.333l.041.077a7.186 7.186 0 0 0-2.624 2.332c.184.258.373.542.567.855l-.074.047a16.5 16.5 0 0 0-.542-.826 6.5 6.5 0 0 0-.477.872 5.532 5.532 0 0 0-.058 5.19 4.447 4.447 0 0 0 3.783 2.248 2.86 2.86 0 0 0 .518-.093l.023.084a2.83 2.83 0 0 1-.537.09Zm.77-1.21a3.56 3.56 0 0 1-1.06.169c-2.099 0-3.464-2.036-3.038-4.53s2.513-4.53 4.646-4.53a2.934 2.934 0 0 1 1.728.539ZM8.026 9.715l-.032-.006-.068.173a.13.13 0 0 0 .032.008.11.11 0 0 0 .121-.074.066.066 0 0 0-.053-.101m.136-.142c.022-.054 0-.077-.041-.084a.13.13 0 0 0-.04 0l-.055.143.031.006a.098.098 0 0 0 .105-.065m.433.359.023-.058a.1.1 0 0 0-.122.055c-.015.039 0 .059.019.062a.081.081 0 0 0 .08-.059M6.98 9.73c.04.007.085-.049.11-.12s.035-.132-.009-.138-.091.057-.11.118-.032.134.009.14m3.45-4.473.08.013a.088.088 0 0 0 .057-.017.14.14 0 0 0 .06-.078l.038-.11a.11.11 0 0 0 0-.088.056.056 0 0 0-.041-.031l-.079-.012a.08.08 0 0 0-.057.016.145.145 0 0 0-.059.078l-.039.11a.099.099 0 0 0 0 .087.054.054 0 0 0 .04.032m1.118 3.838c.176.03.351-.241.51-.77.153-.509.164-.822-.013-.853s-.349.228-.513.764-.156.831.016.859m-1.419 1.164c.041.008.086-.048.11-.118s.032-.132-.011-.14-.091.058-.11.119-.03.133.011.139m-.055-1.411c.174.028.355-.241.524-.771.163-.508.182-.822 0-.853s-.352.228-.528.763-.165.832.004.861m-.768 1.176.029-.074c.022-.057 0-.091-.023-.096s-.087.046-.111.111-.023.124.017.13.063-.009.088-.071"/></svg>