<svg xmlns="http://www.w3.org/2000/svg" viewBox="0 0 24 24"><path fill="#44739e" d="M16.723 7.892a5.026 5.026 0 0 1-6.301 3.421 5.1 5.1 0 0 1-3.307-3.292 2.477 2.477 0 0 0-.861 1.844v12.113a1.011 1.011 0 0 0 1 1.022h9.492a1.011 1.011 0 0 0 1-1.022V9.865a2.479 2.479 0 0 0-1.023-1.973m-9.466-.189a4.832 4.832 0 0 0 6.038 3.324 4.906 4.906 0 0 0 3.283-3.43v-.199a5.18 5.18 0 0 0 .138-1.174 4.851 4.851 0 1 0-9.684-.547c-.009.159-.01.318 0 .477a4.93 4.93 0 0 0 .172 1.313 1.16 1.16 0 0 0 .053.236m4.607-4.769a3.242 3.242 0 0 1 3.207 3.218 3 3 0 0 1-.109.858 1.26 1.26 0 0 1-.058.199 3.174 3.174 0 0 1-4.05 2.054 3.228 3.228 0 0 1-2.012-2.054 1.5 1.5 0 0 0 0-.199 3.42 3.42 0 0 1-.16-.858 3.23 3.23 0 0 1 3.182-3.218M9.323 7.277a2.749 2.749 0 0 0 3.595 1.587 2.802 2.802 0 0 0 1.553-1.587l.068-.199a2.98 2.98 0 0 0 .127-.905 2.776 2.776 0 1 0-5.55 0 2.63 2.63 0 0 0 .137.858.69.69 0 0 0 .07.246"/></svg>