<svg xmlns="http://www.w3.org/2000/svg" fill="#44739e" viewBox="0 0 24 24"><path d="M16.2449 8.251a4.592 4.592 0 0 1-5.757 3.126 4.66 4.66 0 0 1-3.021-3.008 2.263 2.263 0 0 0-.787 1.685v11.067a.924.924 0 0 0 .914.934h8.672a.924.924 0 0 0 .914-.934V10.054a2.265 2.265 0 0 0-.935-1.803m-8.649-.173a4.415 4.415 0 0 0 5.517 3.037 4.483 4.483 0 0 0 3-3.134V7.8a4.73 4.73 0 0 0 .126-1.073 4.432 4.432 0 1 0-8.848-.5c-.008.145-.009.291 0 .436a4.5 4.5 0 0 0 .157 1.2 1.06 1.06 0 0 0 .048.215m4.21-4.357a2.962 2.962 0 0 1 2.93 2.94 2.74 2.74 0 0 1-.1.784 1.15 1.15 0 0 1-.053.182 2.9 2.9 0 0 1-3.7 1.877 2.949 2.949 0 0 1-1.838-1.877 1.4 1.4 0 0 0 0-.182 3.12 3.12 0 0 1-.147-.784 2.951 2.951 0 0 1 2.908-2.94m-2.322 3.968a2.512 2.512 0 0 0 3.285 1.45 2.56 2.56 0 0 0 1.419-1.45l.062-.182a2.72 2.72 0 0 0 .116-.827 2.536 2.536 0 1 0-5.071 0 2.4 2.4 0 0 0 .125.784.63.63 0 0 0 .064.225"/></svg>