<svg xmlns="http://www.w3.org/2000/svg" viewBox="0 0 24 24"><path fill="#44739e" d="M20.986 5.823h-1.495v-.79c0-.574-.057-.668-.509-.866h-2.408a.527.527 0 0 0-.442.612v1.044H8.087v-.846a.734.734 0 0 0-.451-.847H5.208a.743.743 0 0 0-.489.856v.837H1.445a.687.687 0 0 0-.433.772.94.94 0 0 1 0 .235 1.26 1.26 0 0 1 0 .376.743.743 0 0 0 .433.781H22.36c.461-.075.621-.273.621-.781v-.639a.536.536 0 0 0-.188-.565.837.837 0 0 0-.433-.179ZM2.188 8.646v10.481a.762.762 0 0 0 .49.743h18.403c.47-.122.592-.254.677-.781V8.646Zm3.914 2.06h.546a.245.245 0 0 1 .273.283v.94h.677c.348 0 .424.057.424.414v.508c0 .311-.123.405-.424.358h-.705v1.082a.188.188 0 0 1-.207.151h-.32c-.584.131-.668 0-.668-.65v-.536a.866.866 0 0 0-.555-.075H4.87a.207.207 0 0 1-.226-.198 2.35 2.35 0 0 1 0-.941c.132-.207.32-.131.489-.131h.565v-.781c.009-.367.084-.452.404-.452Zm10.444 1.195h2.568l.17.057.112.131a2.004 2.004 0 0 1 0 .885.254.254 0 0 1-.263.235h-2.559a.32.32 0 0 1-.339-.358 2.01 2.01 0 0 1 0-.63c.066-.301.019-.348.311-.348Z"/></svg>