<svg xmlns="http://www.w3.org/2000/svg" fill="#44739e" viewBox="0 0 24 24"><path d="M15.164 2.039 8.3595 3.3438l.002.002 4.4628 3.6914-3.3222 9.2734 3.494-9.3378-4.0136-3.1739 4.1895 3.0567 1.9453-4.6992-1.8867 4.75.0683.0234 1.8516-4.8535-1.6895 4.7793 1.705 1.2654V2.039Zm.209.0235-.0117 9.8047.3692.0098v.9355h-.3711l-.0098 8.4727.5879-.0508.041-18.9844ZM8.3477 3.4102l-.5293 14.8886 1.2304-1.8379.2461-.0859.1055-.1465 3.336-9.1484Zm4.953 3.5195-3.701 9.5508 5.5448 4.8105.0137-8.4765h-.459s-.0073-.8949-.0039-.9395h-.0039l.004-.0156v.0156l.4628-.0078h.002l.006-3.5879zm-3.9335 9.5976-.2246.0586 5.5078 4.6035.4101.1016zm-.2676.1387-2.9414 4.2344 8.4004.3164zm.0996 1.713h1.7012v2.2987l-1.7402-.043.0039-.2714a.8.8 0 0 0 .1113.0098 2.35 2.35 0 0 0 1.414-.5508c-.045-.057-.2634-.1901-.3164-.2441a1.52 1.52 0 0 1-1.0996.6171.57.57 0 0 1-.0996-.0098v-.1914a.66.66 0 0 0 .125.0176c.483.008.957-.7012.957-.7012a1.314 1.314 0 0 0-1.0097-.6367h-.0469Zm-.0117.2968v.1621a1.026 1.026 0 0 0-.7266.4864s.1631.7594.7051.8554v.1797c-.748-.103-.9785-1.0703-.9785-1.0703a1.84 1.84 0 0 1 1-.6133m.004.162a.4.4 0 0 1 .0429 0c.44-.016.7226.4825.7226.4825s-.3202.546-.6582.541a.34.34 0 0 1-.125-.0273v.1562c-.408-.1-.5078-.6406-.5078-.6406a.864.864 0 0 1 .5156-.3125v.1738c-.17-.027-.3085.172-.3085.172s.068.3381.2968.4433l.0117-.6094c.17.027.1989.1218.2989.3398l.2363-.2402a.592.592 0 0 0-.4473-.2812.6.6 0 0 0-.078 0zm-.0216.9884v.0059l.004.002v-.006q-.002-.0008-.004-.002m6.838-.1211.0194 1.3633.422-.2461zm.4609 1.25-.422.2441v.6387l.422-.2461zm-10.3106.08v.498l8.4004.3458v-.5293zm8.5371.3028.0117.5449.4453.0078-.0117-.4785zm1.2461.0137-.6094.0527-.0078.4746.6172-.0273z"/></svg>