<svg xmlns="http://www.w3.org/2000/svg" viewBox="0 0 24 24"><path fill="#44739e" d="M14.672 7.829a1.735 1.735 0 0 0 0-3.467 1.735 1.735 0 0 0 0 3.467m0-3.249a1.519 1.519 0 0 1 .33 2.994c1.556-1.379-1.908-2.006-.933-.167-.11-.783 1.089-.203.405.193a1.518 1.518 0 0 1 .199-3.016Zm-5.408-.22a1.735 1.735 0 0 0 0 3.468 1.735 1.735 0 0 0 0-3.468m.121 3.249c-.44-.394.429-.849.497-.262.788-1.814-2.475-1.091-.996.22a1.517 1.517 0 1 1 .499.042m13.48 1.074.025-.008Za2.94 2.94 0 0 0-.349-.721 2.99 2.99 0 0 0-.728-.751 3.1 3.1 0 0 0-1.417-.559 2.23 2.23 0 0 0-.88.02c-2.143.192-2.338 4.147-4.523 3.356.245-.833.978-1.47 1.181-2.347h.007a2.123 2.123 0 0 0-1.454-3.702 5.06 5.06 0 0 0-5.495 0 2.119 2.119 0 0 0-1.453 3.608c.22.914.944 1.615 1.231 2.478-2.588.644-2.898-5.535-6.77-2.851a2.99 2.99 0 0 0-.728.751 2.94 2.94 0 0 0-.348.722A2.5 2.5 0 0 0 1 9.358v.131a2.45 2.45 0 0 0 .045.421 1.68 1.68 0 0 0 .184.626 1.56 1.56 0 0 0 .353.397c.19.169.268.21.32.166s.021-.098-.022-.181l-.007-.015a1.55 1.55 0 0 1-.135-.583 1.63 1.63 0 0 1 .069-.583 2.34 2.34 0 0 1 .195-.55c1.779-2.358 2.464.68 3.244 1.98a1.771 1.771 0 0 0 .786 2.988c-1.944.595-1.03 3.648.937 2.75a2.86 2.86 0 0 0-.762 1.76l-.027.007h.027c-.289 2.677 4.367 2.53 4.09.833-1.76 1.43-3.701-.596-1.423-1.72a4.07 4.07 0 0 0 6.249 0c2.118 1.073.324 3.06-1.396 1.752-.075-.097-.211-.202-.22-.043 1.5 3.225 6.12-.078 3.51-2.589 1.966.893 2.891-2.165.944-2.761a1.765 1.765 0 0 0 .77-2.991 15.4 15.4 0 0 0 .763-1.645l.061-.138c.072-.167.121-.277.197-.454.061-.148.093-.17.11-.178a.946.946 0 0 1 1.009-.346 1.73 1.73 0 0 1 .698.375 1.848 1.848 0 0 1 .569.99 2.42 2.42 0 0 1 .089.502 2.1 2.1 0 0 1 0 .285 1.18 1.18 0 0 1-.11.354v.016a.36.36 0 0 0-.045.121.066.066 0 0 0 .023.061c.051.044.128 0 .32-.166a1.56 1.56 0 0 0 .353-.397 1.68 1.68 0 0 0 .184-.626A2.6 2.6 0 0 0 23 9.489a2.37 2.37 0 0 0-.135-.806m-7.987.849a.252.252 0 0 1 0-.504.252.252 0 0 1 0 .504m-.502-.99c.152-.871 1.21.184.337.336a.337.337 0 0 1-.337-.339Zm-2.365-5.113c.651.11-.134.903-.251.253a.253.253 0 0 1 .251-.253m0 .895a.252.252 0 0 1 0 .504.252.252 0 0 1 0-.504m-3.08 5.125c-.233-.22.117-.58.343-.354s-.12.576-.349.357Zm-.077-.912c.152-.87 1.21.185.337.337a.337.337 0 0 1-.337-.337m5.546 9.46a3.692 3.692 0 0 1-6.03-2.252 2.05 2.05 0 0 1 .299-.11 3.3 3.3 0 0 0 4.95 2.502 3.277 3.277 0 0 1-4.16-2.669 5.14 5.14 0 0 1 1.472-.005.082.082 0 0 0 .056 0 .24.24 0 0 0 .07-.053l-.006-.011v-.06a7.8 7.8 0 0 0-1.629-.781 4.6 4.6 0 0 1 .081-.716c.761-.453 2.298-2.137.344-1.031a5.8 5.8 0 0 1 .349-.616 3.88 3.88 0 0 0-.828.729 1.76 1.76 0 0 1-.26.021 3.687 3.687 0 0 1 5.764 0c-.632.046-1.193-.427-1.74-.55a3.27 3.27 0 0 0 2.52 1.88 5.214 5.214 0 0 0-2.833 1.276c.064-.031.178-.061.242-.084a4.987 4.987 0 0 1 2.566.314 3.65 3.65 0 0 1-1.228 2.22Zm-2.5-7.881c.947-1.417 1.41 1.21-.12.975a.068.068 0 0 1-.052-.027c-.627-.33-.891-1.513.121-1.31.254.053-.04.209.048.364Zm10.947-.229a1.61 1.61 0 0 1-.17.589 1.47 1.47 0 0 1-.33.37l-.035.03-.082.071.04-.102a1.9 1.9 0 0 0 .102-.519 1.2 1.2 0 0 0 0-.22v-.008a1.67 1.67 0 0 0 .049-.431 1.79 1.79 0 0 0-.157-.654 1.83 1.83 0 0 0-.305-.507 1.903 1.903 0 0 0-.855-.55 2.02 2.02 0 0 0-.77-.122 2.09 2.09 0 0 0-1.005.323c-1.289 1.311-2.185 3.492-4.33 3.463-.63-.095-.933-.73-1.21-1.229-.272.74.508 1.366 1.21 1.255 1.43.55 4.09-2.065 4.18.862a1.8 1.8 0 0 1-1.479 1.627c1.938.44 1.391 3.527-.681 2.662-.581-.146.28.524.293.758 1.57 2.335-2.231 4.51-3.607 2.161.725.66 2.434.973 2.917-.078a2.016 2.016 0 0 0-1.045-2.42l-.008-.029a3.49 3.49 0 0 0 .501-1.171c2.429 1.469 2.942-.538.11-.595a8.84 8.84 0 0 0-3.042-.082 7.98 7.98 0 0 1 4.031-1.084v-.11a4.6 4.6 0 0 1-3.849-1.578 2.838 2.838 0 0 0 2.038.44c.937-.142 2.884-.11 3.086-1.357-.304-.47-.834-.313-1.159-.029a4.103 4.103 0 0 1-1.846 1.292 4.39 4.39 0 0 0-1.239-1.193 4.1 4.1 0 0 0-1.811-.632 4.72 4.72 0 0 0 .952-2.27 8.73 8.73 0 0 1-2.781 0 5.005 5.005 0 0 0 .985 2.274 4.44 4.44 0 0 0-3.03 1.828 4.16 4.16 0 0 1-1.87-1.304c-.285-.341-1.254-.429-1.137.239.523 1.002 2.116.976 3.058 1.114a2.955 2.955 0 0 0 2.118-.44 4.566 4.566 0 0 1-3.843 1.586v.11a8.05 8.05 0 0 1 4.042 1.087 10.35 10.35 0 0 0-3.055.099c-2.902.056-2.352 2.096.11.577a3.43 3.43 0 0 0 .507 1.195 2.13 2.13 0 0 0-.966 1.014 1.312 1.312 0 0 0 .246 1.881 2.234 2.234 0 0 0 2.127-.081 2.2 2.2 0 0 0 .44-.283c-1.967 2.772-5.61-.674-3.128-2.918a1.395 1.395 0 1 1-1.368-2.429c.129-.087.762-.198.33-.31a1.617 1.617 0 0 1-1.305-1.863c.427-2.567 2.831.153 4.165-.562.686.096 1.408-.56 1.136-1.252-.249.495-.55 1.089-1.143 1.22-3.058.392-3.928-5.823-7.024-3.099a2.06 2.06 0 0 0-.463 1.159 2.67 2.67 0 0 0 .11.71l.008.037a1.67 1.67 0 0 0 .096.451l.04.103-.083-.072-.003-.043a1.47 1.47 0 0 1-.33-.369 1.61 1.61 0 0 1-.171-.59 2.6 2.6 0 0 1-.044-.4 2.27 2.27 0 0 1 .131-.77A2.74 2.74 0 0 1 2.277 7.3c3.791-3.057 4.874 5.516 7.328 2.189.11-.939 1.376-1.063 1.454-1.922-5.854 2.705-4.263-6.761.632-2.319.55.33.951-.344 1.392-.573 4.812-2.907 4.767 5.701-.143 2.89.016.781 1.13.88 1.334 1.622 1.622 3.333 3.085-1.561 4.73-2.2a1.98 1.98 0 0 1 .507-.213 2.12 2.12 0 0 1 .84-.017 2.96 2.96 0 0 1 1.367.539 2.88 2.88 0 0 1 .701.723 2.75 2.75 0 0 1 .33.695 2.27 2.27 0 0 1 .131.77 2.5 2.5 0 0 1-.034.401ZM8.753 14.143c-.012.045-.034.137-.044.183a1.43 1.43 0 0 0-.263-.045l.015-.056a1.24 1.24 0 0 0 .292-.082m1.743 5.253a.124.124 0 0 1 .048.078 5.56 5.56 0 0 0 2.916.056.133.133 0 0 1 .059-.141v-.008a.172.172 0 0 1 .183.069c.259-.11.918-.451.521-.775a4.105 4.105 0 0 1-4.467-.011c-.381.356.257.683.571.75a.121.121 0 0 1 .169-.018m3.615.035a3 3 0 0 1-.253.136 3.5 3.5 0 0 0 .484.203.252.252 0 0 0-.231-.339m-4.469.245a.275.275 0 0 0 .016.11 2.84 2.84 0 0 0 .521-.237c-.196-.093-.526-.232-.537.127m3.888.025a4.63 4.63 0 0 1-3.038-.043 2.4 2.4 0 0 1-.344.491 5.205 5.205 0 0 0 3.693-.016 2.97 2.97 0 0 1-.311-.432"/></svg>