<svg xmlns="http://www.w3.org/2000/svg" fill="#44739e" viewBox="0 0 24 24"><path d="M21.4911 8.7414H2.5581a.533.533 0 0 0-.533.533v5.683a.534.534 0 0 0 .533.534h18.933a.534.534 0 0 0 .534-.534v-5.683a.534.534 0 0 0-.534-.533m.034 5.78a.534.534 0 0 1-.534.534H3.0041a.534.534 0 0 1-.533-.534v-4.79a.534.534 0 0 1 .533-.534h17.987a.534.534 0 0 1 .534.534zm-1.49-4.966h-1.011a.692.692 0 0 0 .468.18.893.893 0 0 0 .543-.18m-.444 3.801c-.438 0-.748.385-.748.924a.92.92 0 0 0 .092.4h1.39a.34.34 0 0 0 .043-.175c.002-.652-.24-1.149-.777-1.149m1.364-3.801h-.177a2.286 2.286 0 0 1-.625 1.441 1.9 1.9 0 0 1-1.1.509 2.4 2.4 0 0 1-.474.029v-.42a2.17 2.17 0 0 0 .415-.018 1.434 1.434 0 0 0 .795-.368 1.67 1.67 0 0 0 .5-1.011h-.019a1.118 1.118 0 0 1-.895.409 1.053 1.053 0 0 1-.959-.571h-.239a.262.262 0 0 0-.262.262v4.6a.262.262 0 0 0 .262.262h.22a1.308 1.308 0 0 1 1.235-1.712c.777 0 1.256.631 1.256 1.6 0 .039-.008.071-.01.11h.077a.262.262 0 0 0 .262-.262v-4.598a.262.262 0 0 0-.262-.262m-3.785 0h-2.778a.262.262 0 0 0-.262.262v4.6a.262.262 0 0 0 .262.262h2.778a.262.262 0 0 0 .262-.262v-4.6a.262.262 0 0 0-.262-.262m-.137.975-1.654 3.46h-.531l1.647-3.361v-.012h-1.858v-.426h2.4zm-3.663-.975h-2.78a.262.262 0 0 0-.262.262v4.6a.262.262 0 0 0 .262.262h2.78a.262.262 0 0 0 .262-.262v-4.6a.262.262 0 0 0-.262-.262m-1.662 4.5a1.937 1.937 0 0 1-.987-.257l.14-.4a1.735 1.735 0 0 0 .841.239c.661 0 .866-.421.86-.736-.006-.533-.486-.76-.982-.76h-.286v-.384h.286c.374 0 .847-.193.847-.642 0-.3-.192-.574-.666-.574a1.4 1.4 0 0 0-.76.252l-.131-.374a1.807 1.807 0 0 1 .994-.292c.748 0 1.086.444 1.086.9a.943.943 0 0 1-.7.9v.011a.989.989 0 0 1 .847.976c-.006.608-.479 1.14-1.391 1.14zm-2.125-4.5h-2.778a.262.262 0 0 0-.262.262v4.6a.262.262 0 0 0 .262.262h2.778a.262.262 0 0 0 .262-.262v-4.6a.262.262 0 0 0-.262-.262m-1.065 4.435h-.5v-3.323h-.008l-.661.357-.1-.392.83-.444h.438zm-2.721-4.435h-2.777a.262.262 0 0 0-.262.262v4.6a.262.262 0 0 0 .262.262h2.777a.262.262 0 0 0 .262-.262v-4.6a.262.262 0 0 0-.262-.262m-.176 4.435h-2.425v-.316l.4-.392c.97-.923 1.409-1.414 1.414-1.987a.677.677 0 0 0-.754-.742 1.3 1.3 0 0 0-.806.321l-.164-.362a1.667 1.667 0 0 1 1.078-.385 1.069 1.069 0 0 1 1.164 1.1c0 .7-.509 1.268-1.31 2.04l-.3.28v.02h1.703z"/></svg>