<svg xmlns="http://www.w3.org/2000/svg" viewBox="0 0 24 24"><path fill="#44739e" d="M13.57 19.454v.316h.156v-.346Zm-.118.316v-.294l-.168.03v.264Zm.765 2.076a.392.337 90 0 1-.337.392.392.337 90 0 1-.337-.392.392.337 90 0 1 .337-.391.392.337 90 0 1 .337.391m-2.866-1.789h.156v.587h-.156Zm-.286 0h.168v.587h-.168Zm6.183-.333a.44.44 0 0 0-.11-.317l-.06-.028h-.015c-.069 0-.131.075-.162.182l.347.19Zm.857 1.831c.11 0 .196-.16.196-.348s-.09-.346-.196-.346-.195.158-.195.346.089.348.195.348m-.296-.725h-.098v-.012a.366.366 0 0 0-.155.338c0 .189.09.348.196.348a.158.158 0 0 0 .123-.08.6.6 0 0 1-.037-.22.58.58 0 0 1 .062-.273.253.253 0 0 0-.091-.101m-3.929.548a.396.396 0 0 1 .32.17.325.325 0 0 0-.639 0 .396.396 0 0 1 .319-.17m-.614-2.741v.148l.767-.215.226-.05.003-.006-.938.031Zm1.067-1.271.137.041.084.046-.191-.51-1.612-.44-.019-.167 1.563.429-.425-1.124-1.21.138-.133-1.118.405-.069.246-.084.025-.132-1.549-.411-.399.044-.165.032v.062l.026.103.841.302.134 1.337-.762.086-.047.007.842.231.017.166-1.025-.28v.227a.157.157 0 0 0 .11.151l.951.286.038.369.101.033.012.411.367.11Zm-.793-.24-.7.096-.037-.318Zm-8.504-5.822 1.94-.056-.235-.562-1.841.062Zm1.444-.514.16.375-1.311.038-.093-.371Zm-1.253 6.565v-.126l-.118-.142v.268Zm3.53.554v-.29l-.253.022v.302Zm-2.495.312v-.36l-.24.033v.355Zm-.88-1.045.385.523-.056-2.316V13.89l-.655-.637-.002 3.475.312.426.016.019Zm-.231-4.032.667.507 3.053-.13-.865-.481Zm3.772 1.88V13.8l-3.055.132v1.284Zm-.575 2.474.07-.007.505-.048V15.18l-3.053.193.044 2.361.417-.04.088-.012v.003ZM6.142 7.05H1.976l.065 3.695 4.102-.633Zm-.211 2.947-3.686.568-.058-3.324 3.74-.007ZM1 1.117v21.766h22V1.117ZM22.727 22.61H1.273V1.39h21.45Zm-6.368-3.348.118.064h.494l-.072-.034Zm2.408.27a.743.743 0 0 0-.689-.517h-.829l.034.297v.168h-.005a.62.62 0 0 1 .048.249v.066l.121.067a.56.56 0 0 0 .029-.178.402.402 0 0 0-.129-.33h.733a.429.429 0 0 1 .398.299l1.03 2.934c0 .009 0 .018.006.026h.314a.5.5 0 0 0-.028-.144Zm-13.085.114a.48.48 0 0 1 .433-.296h5.211l1.117-.33H6.115a.792.792 0 0 0-.715.483l-1.283 2.926a.5.5 0 0 0-.041.181h.312a.18.18 0 0 1 .011-.038ZM18.767 9.14a3.5 3.5 0 0 0-.48-.189.54.54 0 0 0-.16-.018V6.962L14.2 7.05v3.07l2.185.351a3.42 3.42 0 0 0-1.352.66c-.049.04-.095.08-.139.123h-4.379v-1.137h3.555V7.05H6.244v3.07h3.478v1.13H7.145l.063.15-2.293.066-.054-.219h-.937l-.802.504v.162h11.261c-.021.039-.041.078-.06.118h-11.2v.236h.77v5.94l-.354.683h.708l.634-1.416-.361-.02-.05-5.196 9.754-.007a7.26 7.26 0 0 0-.181 3.223c0 .017.015.143.049.33l.627 1.663h-.11v.177l-.095.016-.021.805-.104.006-.037.145-.294.065-2.81.786-.036.429h.169l-.029-.152 2.769-.519.306.115-.572 1.35v.449l.213.029.037-.271v-.008l.62-1.484.423-.079 2.553 1.21.082.175h.22l-.032-.43-2.121-1.164 1.079.059.237.116-.044-.361-2.119-.323-.023-.132h-.089l-.025-.798-.097-.032v-.118a2.4 2.4 0 0 0 .225.268 1.29 1.29 0 0 0 .373.27v.007l.373.527.696.11-.415-.521v-.035a4.1 4.1 0 0 0 .797-.212 2.74 2.74 0 0 0 1.1-.514c.342-.353.275-.826.174-1.54a9.35 9.35 0 0 1-.122-1.766 6.42 6.42 0 0 1 .52-2.298c.045-.11.085-.213.117-.304a.09.09 0 0 0 .019.021c.064.052.153-.03.33-.037a.492.492 0 0 1 .392.126c-.01.05-.618-.134-.746.076-.033.054-.034.138 0 .164s.144-.056.291-.101c.239-.073.503.018.506.076 0 .087-.586.057-.746.392-.053.11-.058.254-.013.279s.129-.083.253-.191a1.157 1.157 0 0 1 .632-.33c.038.054-.726.523-.632.77a.207.207 0 0 0 .19.11.292.292 0 0 0 .194-.121c-.057.093-.11.206-.068.273.03.05.084.029.139.089.086.092.04.22.058.28a.713.713 0 0 1-.521.133 3.6 3.6 0 0 0-.481-.189c-.16-.036-.212-.016-.241.012a.183.183 0 0 0 0 .241c.064.051.153-.03.33-.039a.502.502 0 0 1 .393.127c-.011.05-.619-.134-.747.075-.033.055-.034.139 0 .165s.144-.056.292-.101c.238-.073.502.019.506.076 0 .087-.586.056-.747.392-.053.11-.059.255-.012.278s.128-.081.253-.189a1.15 1.15 0 0 1 .632-.33c.038.054-.727.522-.632.77a.14.14 0 0 0 .024.041v2.102a3.96 3.96 0 0 1 .044.58.294.294 0 0 0 .241.281 7.23 7.23 0 0 0 1.958.073.339.339 0 0 0 .3-.33v-2.75a.351.351 0 0 0-.353-.352l-.163.025a1.326 1.326 0 0 0 .5-.784.41.41 0 0 0 .28.11c.184-.016.3-.244.342-.22s-.115.22-.064.43c.048.192.253.33.317.291s-.024-.196.076-.303c.055-.061.11-.04.139-.09.04-.067-.011-.18-.067-.272a.292.292 0 0 0 .193.121.207.207 0 0 0 .19-.11c.094-.25-.669-.719-.632-.77a1.157 1.157 0 0 1 .632.33c.124.11.207.213.253.19s.04-.169-.013-.278c-.16-.33-.75-.306-.746-.393 0-.057.267-.149.506-.076.147.045.242.139.291.101s.033-.11 0-.164c-.128-.21-.736-.026-.746-.076a.492.492 0 0 1 .392-.126c.176.008.265.089.33.037a.18.18 0 0 0 0-.239c-.029-.029-.081-.049-.24-.014a3.34 3.34 0 0 0-.481.191.785.785 0 0 1-.556-.152 4 4 0 0 0-.152-.077c.167-.234.287-.531.187-.685-.174-.268-.937.009-.975-.127-.021-.08.22-.262.483-.3a.451.451 0 0 0 .342.174.32.32 0 0 0 .165-.072.9.9 0 0 0 .122.061.46.46 0 0 0-.009.226c.048.193.253.33.317.291s-.024-.196.076-.304c.055-.061.11-.039.139-.088.04-.067-.011-.182-.067-.274a.29.29 0 0 0 .193.122.208.208 0 0 0 .191-.11c.093-.248-.67-.718-.633-.77a1.173 1.173 0 0 1 .633.33c.123.11.206.214.253.189s.039-.169-.014-.278c-.16-.33-.75-.306-.745-.393 0-.057.266-.148.506-.076.146.046.242.14.29.102s.033-.11 0-.164c-.128-.21-.736-.027-.746-.076a.492.492 0 0 1 .387-.122c.176.007.265.089.33.037a.18.18 0 0 0 0-.24c-.028-.028-.08-.047-.239-.013a3.6 3.6 0 0 0-.481.19.78.78 0 0 1-.557-.151 6 6 0 0 0-.519-.242.33.33 0 0 0-.024-.251c-.174-.267-.937.01-.974-.127-.024-.084.249-.285.531-.305a.73.73 0 0 1 .127 0c.299.028.44.21.506.163.05-.034.055-.192-.025-.278-.239-.248-1.21.163-1.67.405a.78.78 0 0 1-.559.152m-12.296.734v-2.64h7.354v2.64ZM7.6 11.662l.292-.278h3.51l.266.278Zm5.162 0c-.057.126-.402.144-.494 0a.226.226 0 0 1-.012-.2.21.21 0 0 1 .049-.069.044.044 0 0 1 .018-.009l.052-.007.102.11.044-.023-.084-.091.068-.01h.008a.29.29 0 0 1 .173.085c.048.045.104.145.073.214Zm6.6.967.008-.012Zm2.549.901-.011-.012Zm0-2.609-.011-.012Zm-3.784-1.705a1.2 1.2 0 0 1 .249-.053.495.495 0 0 1 .391.127c-.009.041-.423-.076-.64 0Zm0 .297a1.06 1.06 0 0 1 .185-.084c.24-.073.504.019.506.076 0 .078-.481.062-.691.308Zm-3.72.468V7.239l3.51-.079v3.269a2.2 2.2 0 0 0-.256-.049 3 3 0 0 0-.392-.025 3.7 3.7 0 0 0-.384.021Zm-.079 5.33-.02-.238h.081a.5.5 0 0 0 .083-.01.75.75 0 0 1 .261-.006l.06.011.014.189c0 .014.011.122.035.283l-.483.026c-.022-.147-.03-.241-.031-.255m.445 1.632a3 3 0 0 1-.069-.147l.468-.091q.0345.0705.072.141Zm1.268-.264-.607.127c-.028-.044-.056-.09-.081-.138l.088-.016.607-.119 1.411-.277a1 1 0 0 1-.037.136Zm.962.203c-.094.055-.206.11-.346.171a1.41 1.41 0 0 1-.58.175h-.043a.65.65 0 0 1-.229-.059l.23-.055Zm-2.006-1.354-.006-.039.11.01h.28Zm2.114.423a.96.96 0 0 0 .036-.359.75.75 0 0 1-.11.339l-.44-.119a.67.67 0 0 0 .296-.22.66.66 0 0 0 .102-.349l.05-.016.067-.023.056-.022c.055-.021.103-.04.149-.06l.098-.042.011.11.016.153a4.8 4.8 0 0 1 .04.707Zm.271-1.811-.053.016a4 4 0 0 1-.174.053l-.105.03-.026.007-.076.019a4.35 4.35 0 0 1 .157-.762c.068-.242.11-.402.034-.559a.479.479 0 0 0-.364-.246.8.8 0 0 0-.124-.009 1.03 1.03 0 0 0-.556.178 1.16 1.16 0 0 0-.234.204 2.013 2.013 0 0 0-.389 1.23v.193h-.147v-.079a3.52 3.52 0 0 1 .175-1.444 1.5 1.5 0 0 1 .25-.415 1.21 1.21 0 0 1 1.058-.425.69.69 0 0 1 .297.119.56.56 0 0 1 .181.209.55.55 0 0 1 .059.254c.065-.22.084-.33.02-.44a.48.48 0 0 0-.26-.203.9.9 0 0 0-.154-.041h-.023a1.1 1.1 0 0 0-.153-.011 1.2 1.2 0 0 0-.167.011 1.418 1.418 0 0 0-1.1.777 3.31 3.31 0 0 0-.235 1.615v.08h-.354v-.074a4.264 4.264 0 0 1 .359-2.182 2.2 2.2 0 0 1 .141-.22q.045-.06.093-.117l.015-.016a1.826 1.826 0 0 1 .704-.487 1.52 1.52 0 0 1 .786-.098.864.864 0 0 1 .66.44 1.184 1.184 0 0 1-.035.921 5.53 5.53 0 0 0-.252 1.422Zm.349 3.002a2.11 2.11 0 0 1-.935.519 2.62 2.62 0 0 1-.77.208h-.066a1.034 1.034 0 0 1-.455-.102 1.13 1.13 0 0 1-.312-.22 1.2 1.2 0 0 1-.082-.087 3 3 0 0 1-.085-.103l.402-.096.095-.022a.75.75 0 0 0 .185.14.627.627 0 0 0 .323.066 1.95 1.95 0 0 0 .615-.181 1.74 1.74 0 0 0 .731-.412.8.8 0 0 0 .046-.065l.473-.11v-.387l-.352.074v-.128l.363-.071-.37-.1c-.01-.144-.028-.302-.048-.479-.029-.243-.065-.55-.079-.888v-.029a.253.253 0 0 1 .064-.11.264.264 0 0 1 .301-.082l.063.019v.056a10.1 10.1 0 0 0 .09 1.024c.092.676.153 1.154-.197 1.566m.488-4.819a5.8 5.8 0 0 0-.356 1.578v.044l-.04.02a2.9 2.9 0 0 1-.3.126l-.11.041v-.118a6.24 6.24 0 0 1 .35-1.747c.127-.388.198-.601.078-.806a.844.844 0 0 0-.619-.357 1.65 1.65 0 0 0-.26-.02 2.156 2.156 0 0 0-.967.236 2.11 2.11 0 0 0-.527.38 1.9 1.9 0 0 0-.186.213 2.2 2.2 0 0 0-.081.118 2.1 2.1 0 0 0-.125.22 4.54 4.54 0 0 0-.326 2.169v.085h-.085a5 5 0 0 1-.336-.026l-.067-.006v-.067a5.005 5.005 0 0 1 .291-2.15c.032-.075.067-.148.11-.22.021-.039.043-.079.066-.117a2.46 2.46 0 0 1 .432-.535q.074-.069.156-.132a2.807 2.807 0 0 1 2.006-.573 1.277 1.277 0 0 1 .953.527c.214.344.094.684-.057 1.117m1.591 2.763h-.165v-.116a.46.46 0 0 0 .165-.081Zm.205-.534a.18.18 0 0 0 0-.042.354.354 0 0 0-.203-.232 1.9 1.9 0 0 1-.165-.1.151.151 0 0 1-.075-.123.207.207 0 0 1 .075-.134.47.47 0 0 1 .165-.099.315.315 0 0 1 .228-.008c.238.101.132.601.263.706-.094.01-.19.023-.293.032Zm-.33-1.847c.022-.014.066.044.131.103a.43.43 0 0 0 .157.102 1.65 1.65 0 0 0 .121.182c-.096.037-.189.075-.278.11l-.127.059a.41.41 0 0 0 .059-.13c.042-.205-.113-.398-.073-.426Zm1.115.648a.3.3 0 0 0 0 .075c-.28-.087-.803.081-.834-.031-.013-.048.071-.135.198-.205.118.129.241.21.318.186s.095-.147.11-.287h.032a.83.83 0 0 1 .292.085.275.275 0 0 0-.116.177m-.022-.693c.174-.075.462.095.468.24 0 .057-.04.1-.098.14a.25.25 0 0 0-.039-.059c-.087-.09-.27-.093-.49-.049a.33.33 0 0 1 .159-.272m-.088-.378c-.101 0-.241-.026-.377-.032-.13-.085-.287-.141-.284-.251a.2.2 0 0 1 .007-.032.77.77 0 0 1 .147-.029.73.73 0 0 1 .128 0 .85.85 0 0 1 .348.11c.013.076.02.159.031.231Zm-.192-.523a.242.242 0 0 1 .123.139 3.3 3.3 0 0 0-.392-.11.34.34 0 0 1 .269-.031ZM20.8 9.54c.033.036.05.067.043.091s-.049.039-.11.04a1.4 1.4 0 0 0 .067-.131m-1.157-.095V9.34h.165v.118c.026-.014.057-.032.092-.049l.021.007a.297.297 0 0 1 .151.231.286.286 0 0 0-.203.11.32.32 0 0 0-.025.242.3.3 0 0 0-.036-.037 1 1 0 0 0-.165-.11c-.101-.059-.193-.11-.189-.195s.083-.162.187-.212Zm0 1.079a.58.58 0 0 0 .165-.148.407.407 0 0 0 .089-.213c.134.316.44.653.592.607.175-.055.038-.614.291-.721.174-.074.462.094.468.239.007.177-.407.215-.44.457a.32.32 0 0 0 .039.187 5.8 5.8 0 0 0-.94.395l-.097.051a1.4 1.4 0 0 1-.165.076.49.49 0 0 1-.295.025 3.34 3.34 0 0 0-.48-.191.46.46 0 0 0-.188-.014.527.527 0 0 0-.074-.44 1.007 1.007 0 0 0-.477-.337v-.344c.047-.034.11-.101.185-.168a1.157 1.157 0 0 1 .633-.33c.037.054-.726.522-.633.77a.206.206 0 0 0 .19.11.292.292 0 0 0 .194-.121c-.056.092-.11.205-.067.273.03.049.084.028.139.089.101.11.017.27.075.303s.27-.099.317-.291c.052-.21-.103-.404-.062-.43s.157.2.341.22a.355.355 0 0 0 .198-.054Zm-.848-.248-.008.014Zm.707-4.705h-.385l-.374-.688c.233-.377.31-.836.144-.975-.21-.177-.833.139-1.153.595-.225.321-.398.849-.212 1.013s.722-.063 1.027-.382a.9.9 0 0 0 .06-.066l.469.503h-2.154l-.358-.641-.048-.612a1.278 1.278 0 1 0-.854-.009l-.085.562-.514.7h-1.613v-1.4h-.95v1.4h-1.073v.683h8.073ZM16.44 3.344h-.633l-.091.614a.936.936 0 1 1 .77 0Zm-7.74.438H6.236l.235-.362V2.5l-.33-.506h-.77l-.421.55v.902l.323.337h-.818V1.557h-.557v2.225h-.185V1.716h-.245v2.066h-.244V2.07h-.312v1.712H2.76V1.885h-.295v1.897h-.152V1.674h-.227v2.108H1.88V2.32h-.426v1.462h-.181V4.93H8.7Zm-.391.759H1.454v-.37h6.855Z"/></svg>