<svg xmlns="http://www.w3.org/2000/svg" viewBox="0 0 24 24"><path fill="#44739e" d="M18.347 7.394c-2.361-1.563-4.164-4.975-9.02-4.975C3.87 2.419 1 7.406 1 11.651c0 6.198 5.247 9.93 11.66 9.93 5.857 0 10.34-4.243 10.34-7.672 0-3.22-2.026-4.769-4.653-6.515M9.966 15.93A2.478 2.478 0 0 1 7.5 13.29a2.478 2.478 0 0 1 2.466-2.64 2.475 2.475 0 0 1 2.461 2.64 2.475 2.475 0 0 1-2.461 2.64m3.122-6.82a.88.88 0 1 1 .88.887.88.88 0 0 1-.88-.886Zm.895 6.82c-.497 0-.902-1.182-.902-2.64s.405-2.64.902-2.64.901 1.183.901 2.64-.404 2.644-.904 2.644Zm-4.017-4.032c-.679 0-1.055.677-1.055 1.383s.376 1.405 1.055 1.405 1.053-.697 1.053-1.405-.374-1.383-1.053-1.383"/></svg>