<svg xmlns="http://www.w3.org/2000/svg" fill="#44739e" viewBox="0 0 24 24"><path d="M20.6982 9.692c-1.8152 0-3.2937 1.462-3.2937 3.2854 0 1.8152 1.4785 3.2772 3.2937 3.2772 1.8234 0 3.3018-1.462 3.3018-3.2772 0-1.8234-1.4784-3.2854-3.3018-3.2854m-.0082 5.191c-1.0103 0-1.8399-.8953-1.8399-1.9056 0-1.0185.8296-1.9137 1.8399-1.9137 1.0184 0 1.848.8952 1.848 1.9137 0 1.0103-.8296 1.9056-1.848 1.9056m-8.4764-5.076h-1.6017l-1.8973 2.6365V7.8522H7.2608v8.2874h1.4538v-2.6365l2.0452 2.6365h1.7166l-2.5216-3.2033Zm5.6344 0h-1.6016l-1.8973 2.6365V7.8522h-1.4538v8.2874h1.4538v-2.6365l2.0452 2.6365h1.7166l-2.5216-3.2033ZM3.2936 9.1992c.3943 0 .7228-.3286.7228-.731 0-.3943-.3285-.7228-.7228-.7228-.4024 0-.731.3285-.731.7228 0 .4024.3286.731.731.731m1.8892 0c.3942 0 .7227-.3286.7227-.731 0-.3943-.3285-.7228-.7227-.7228-.4025 0-.731.3285-.731.7228 0 .4024.3285.731.731.731m-3.7783 0c.3943 0 .7228-.3286.7228-.731 0-.3943-.3285-.7228-.7228-.7228-.4024 0-.731.3285-.731.7228 0 .4024.3286.731.731.731m1.8891.4928C1.4784 9.692 0 11.154 0 12.9774c0 1.8152 1.4784 3.2772 3.2936 3.2772 1.8234 0 3.3019-1.462 3.3019-3.2772 0-1.8234-1.4785-3.2854-3.3019-3.2854m0 5.191c-1.0102 0-1.8398-.8953-1.8398-1.9056 0-1.0185.8296-1.9137 1.8398-1.9137 1.0185 0 1.848.8952 1.848 1.9137 0 1.0103-.8295 1.9056-1.848 1.9056"/></svg>