<svg xmlns="http://www.w3.org/2000/svg" viewBox="0 0 24 24"><path fill="#44739e" d="M19.973 9.884c-1.664 0-3.019 1.34-3.019 3.012 0 1.664 1.355 3.004 3.019 3.004 1.672 0 3.027-1.34 3.027-3.004 0-1.672-1.355-3.012-3.027-3.012m-.007 4.759c-.926 0-1.687-.821-1.687-1.747 0-.934.761-1.754 1.687-1.754.933 0 1.694.82 1.694 1.754 0 .926-.761 1.747-1.694 1.747m-7.77-4.653h-1.468l-1.74 2.417V8.198H7.656v7.597h1.332v-2.417l1.875 2.417h1.574l-2.312-2.937Zm5.165 0h-1.468l-1.74 2.417V8.198h-1.332v7.597h1.332v-2.417l1.875 2.417h1.574l-2.312-2.937ZM4.019 9.433c.362 0 .663-.302.663-.67 0-.362-.301-.663-.663-.663-.369 0-.67.301-.67.663 0 .368.301.67.67.67m1.732 0c.361 0 .662-.302.662-.67 0-.362-.301-.663-.662-.663-.369 0-.67.301-.67.663 0 .368.301.67.67.67m-3.464 0c.362 0 .663-.302.663-.67 0-.362-.301-.663-.663-.663-.368 0-.67.301-.67.663 0 .368.302.67.67.67m1.732.451C2.355 9.884 1 11.224 1 12.896 1 14.56 2.355 15.9 4.019 15.9c1.672 0 3.027-1.34 3.027-3.004 0-1.672-1.355-3.012-3.027-3.012m0 4.759c-.926 0-1.686-.821-1.686-1.747 0-.934.76-1.754 1.686-1.754.934 0 1.694.82 1.694 1.754 0 .926-.76 1.747-1.694 1.747"/></svg>