<svg xmlns="http://www.w3.org/2000/svg" viewBox="0 0 24 24"><path fill="#44739e" d="M5.6512 15.5998c-.0294-.4443-.2569-6.6877-.2441-6.7005.017-.017 1.6468-.2205 1.6602-.2073.006.005.0214.5478.0352 1.2053s.033 1.2032.0424 1.2127c.009.009.941-.3384 2.0701-.773s2.062-.79 2.073-.7898c.02.0005.4664 1.2182.4509 1.2301-.005.003-.785.2873-1.7344.6306s-1.726.6322-1.726.642c0 .0187.0503.0424 2.3907 1.1252.8097.3745 1.472.6916 1.472.7045-.0003.0465-.6284 1.362-.6484 1.358-.0163-.003-3.272-1.5056-4.0929-1.8886-.1086-.0507-.2026-.087-.2089-.0807-.006.006-.0008.5004.0121 1.098s.0218 1.0891.0196 1.0921c-.003.005-1.5347.3586-1.5512.3586-.003 0-.0124-.0978-.0203-.2172m-3.5399-.264c-1.055-.2002-1.881-1.128-2.0773-2.3332-.0453-.2782-.0453-.8008 0-1.0608.1733-.9928.7476-1.8022 1.5514-2.1862.3682-.176.5655-.2198.9863-.2193.362.0005.4879.0212.7814.129.7168.2633 1.3122.9183 1.5892 1.7484.2063.6184.2012 1.3975-.0136 2.0549-.1335.4086-.4118.8623-.7129 1.1622-.3256.3242-.6778.5345-1.104.659-.2662.0778-.7227.0988-1.0005.046m12.4258-1.2817c-.958-.1048-1.763-.636-2.1577-1.424-.2426-.4844-.2835-1.1567-.1031-1.6966.3368-1.0082 1.2698-1.7481 2.4484-1.9419.356-.0585.8957-.0333 1.2529.0587.7878.2028 1.4387.7167 1.7437 1.3767.1545.3346.186.4942.1846.9398-.001.4783-.0363.6343-.2318 1.034-.3443.7042-.967 1.2299-1.7782 1.501-.421.1407-.9365.1985-1.3588.1523m6.059-.7982c-1.3166-.1649-2.2953-1.1128-2.3647-2.2901-.0666-1.1311.7472-2.207 1.9771-2.6139.155-.0513.3864-.1106.5142-.132.2942-.049.8023-.0493 1.0771-.0008 1.1134.1965 1.9611.9577 2.1642 1.943.0463.2246.0483.6385.004.868-.0964.502-.3358.9338-.74 1.3347-.5655.5609-1.3204.8769-2.1587.9037-.1635.005-.3766-.0004-.4734-.0126z"/></svg>