<svg xmlns="http://www.w3.org/2000/svg" viewBox="0 0 24 24"><path fill="#44739e" d="M6.18 15.3c-.027-.407-.235-6.131-.224-6.142.016-.016 1.51-.202 1.522-.19.006.004.02.502.033 1.105s.03 1.102.038 1.111c.009.008.863-.31 1.898-.708s1.89-.725 1.9-.724c.019 0 .428 1.116.414 1.127-.005.003-.72.264-1.59.578s-1.582.58-1.582.589c0 .017.046.039 2.191 1.031.742.343 1.349.634 1.349.646 0 .043-.576 1.248-.594 1.245-.015-.003-2.999-1.38-3.752-1.731-.099-.047-.185-.08-.191-.074-.006.005-.001.458.011 1.006s.02.998.018 1.001c-.003.005-1.407.329-1.422.329-.003 0-.012-.09-.019-.199m-3.245-.242c-.967-.184-1.724-1.034-1.904-2.139-.041-.255-.041-.734 0-.972.159-.91.685-1.652 1.422-2.004.338-.162.519-.202.904-.201.332 0 .448.019.717.118.657.241 1.203.842 1.456 1.603.19.566.185 1.281-.012 1.883-.122.375-.378.791-.654 1.066-.298.297-.621.49-1.012.604-.244.071-.662.09-.917.042m11.391-1.175c-.879-.096-1.616-.583-1.978-1.305-.223-.444-.26-1.061-.095-1.556.309-.924 1.164-1.602 2.245-1.78.326-.053.821-.03 1.148.054.722.186 1.319.657 1.599 1.262.141.307.17.453.169.862-.001.438-.034.581-.213.947-.315.646-.886 1.128-1.63 1.376-.386.129-.858.182-1.245.14m5.554-.732c-1.207-.151-2.104-1.02-2.168-2.099-.061-1.037.685-2.023 1.812-2.396.143-.047.355-.101.472-.121.269-.045.735-.045.987-.001 1.021.18 1.798.878 1.984 1.781.042.206.044.586.004.796-.089.46-.308.856-.679 1.223-.518.515-1.21.804-1.978.829-.15.004-.346-.001-.434-.012"/></svg>