<svg xmlns="http://www.w3.org/2000/svg" fill="#44739e" viewBox="0 0 24 24"><path d="m3.126 9.7097-.6915-.4863a2.3 2.3 0 0 0-.0935.14l.6949.4886a1.4 1.4 0 0 1 .0901-.1423m-.147.2575-.7874-.3195a2.3 2.3 0 0 0-.076.1963l.7928.3216a1.44 1.44 0 0 1 .0705-.1984m-.0911.2822-.8455-.1345a2.2 2.2 0 0 0-.0355.2503l.851.1354a1.45 1.45 0 0 1 .03-.2512m-.0312.2986.0002-.0034L2 10.6047q.0038.1487.0273.2938l.8587-.0603a1.45 1.45 0 0 1-.0293-.2902zm3.7183 0c0 1.2134-1.0246 2.298-2.2883 2.298-.7178 0-1.358-.35-1.7776-.8747l.3536-.3312-.4203.2437a2.4 2.4 0 0 1-.2002-.3285l.5825-.3377-.6474.1988a2.3 2.3 0 0 1-.1097-.325l.8188-.2513c.1343.653.7102 1.144 1.4003 1.144.7897 0 1.43-.643 1.43-1.436 0-.7932-.6403-1.4362-1.43-1.4362a1.423 1.423 0 0 0-1.0533.465l-.5662-.6314c.4142-.4236.9869-.6955 1.6195-.6955 1.2637 0 2.2883 1.0847 2.2883 2.298m5.349.3207v1.8588a.031.031 0 0 1-.031.0311h-.668a.031.031 0 0 1-.031-.031v-1.8044c0-.5103-.212-.769-.6299-.769-.4489 0-.7277.3072-.7277.8019v1.7714a.031.031 0 0 1-.031.0311h-.668a.031.031 0 0 1-.031-.031v-1.8044c0-.5103-.2156-.769-.6408-.769-.4454 0-.7223.3072-.7223.8019v1.7714a.031.031 0 0 1-.031.0311h-.668a.031.031 0 0 1-.031-.031V9.6103a.031.031 0 0 1 .031-.0311h.3492c.0154 0 .0296.009.0363.023l.2318.4888c.0496-.1182.2965-.5992 1.0323-.5992.4776 0 .8233.208 1.0013.6018.2085-.3883.5992-.6018 1.1027-.6018.7368 0 1.1261.4761 1.1261 1.3768m1.1679.9461c-.0009-.366.3229-.4744.6675-.4692h.6794v.368c-.0383.101-.2601.5764-.819.5764-.2994.004-.5366-.1613-.528-.4752m.7303-2.3502c-.594 0-1.2028.2953-1.33.917-.0043.017.0091.0334.0245.0369l.5885.1197a.031.031 0 0 0 .0354-.0209c.1083-.3188.2984-.4537.6492-.4583.6683-.0001.6462.6078.649.7736h-.7402c-.2747 0-.5143.0409-.7121.1216-.5883.2269-.7797.861-.4982 1.4027.0983.1826.361.4892 1.016.4892.4922 0 .834-.1932 1.0164-.5742.0346.0858.1518.3786.1858.4635a.038.038 0 0 0 .0346.0232h.36a.031.031 0 0 0 .031-.0311v-1.8949c.0005-.0291.1232-1.368-1.3098-1.368zm4.1342 1.2927v.8527c-.2055.3866-.5052.5496-.8304.5496-.471 0-.885-.4166-.885-.9906s.3596-.9906.885-.9906c.4915 0 .7559.3356.8304.5789m.1194-.6873c-.0774-.1447-.3688-.5781-1.0756-.5781-.8478 0-1.4632.7053-1.4632 1.677 0 .9875.5994 1.6771 1.4577 1.6771.7817 0 1.1054-.4894 1.169-.6012l.1966.4905c.007.014.0193.0234.0347.0234h.38a.031.031 0 0 0 .031-.0311v-4.11a.031.031 0 0 0-.031-.0312h-.668a.031.031 0 0 0-.031.0312zm1.881 1.7448c-.0008-.366.323-.4744.6677-.4692h.6793v.368c-.0383.101-.2601.5764-.819.5764-.2994.004-.5366-.1613-.528-.4752m.7304-2.3502c-.594 0-1.2027.2953-1.33.917-.004.017.0092.0334.0245.0369l.5887.1197a.031.031 0 0 0 .0353-.0209c.1083-.3188.2984-.4537.6491-.4583.6685-.0001.6463.6078.649.7736h-.7402c-.2747 0-.5142.0409-.712.1216-.5885.2269-.7798.861-.4983 1.4027.0983.1826.361.4892 1.016.4892.4923 0 .834-.1932 1.0165-.5742l.1858.4635a.038.038 0 0 0 .0345.0232h.3602a.031.031 0 0 0 .031-.0311v-1.8949c.0003-.0291.123-1.368-1.31-1.368zm-6.3172 4.679h.316l-.4166 1.1494c-.119.331-.3114.4718-.6044.4558v-.276c.158.0037.245-.0603.2999-.2165l-.4693-1.1126h.3228l.2976.7724zm-1.545.899c.1568 0 .3182-.1084.3182-.3243 0-.1916-.1379-.3241-.3182-.3241-.1817 0-.316.1324-.316.3241 0 .1572.1003.3242.316.3242m.4486-.7542c.11.1174.1649.2599.1649.43s-.055.315-.1648.4321c-.1077.1173-.2405.1747-.3937.1747-.1603 0-.284-.0551-.371-.1678v.1356h-.2953v-1.6207h.2953v.607c.087-.1127.2107-.1678.371-.1678.1532 0 .286.0596.3936.177m5.188.9402c0 .0343.03.0644.0643.0644h.2012v-1.7538l-.2654.133zm1.6182-1.178c-.2141 0-.4366.112-.548.2752v.9028c0 .0343.03.0644.0643.0644h.2012v-.8598c.0642-.0816.167-.1332.2825-.1332.184 0 .3168.1462.3168.3396v.6534h.261v-.6618c0-.3312-.2483-.5806-.5778-.5806m-4.3405.8384v-.5675h.3425v-.2364h-.3425v-.3654l-.2656.1332v1.092c0 .2234.1328.3481.3682.3481h.3424v-.2278h-.2739c-.1284 0-.1711-.0473-.1711-.1762m1.1899-.8253c-.2269 0-.4665.1203-.5864.2965v1.324a.066.066 0 0 0 .0643.0646h.2012v-1.2812c.0642-.0946.1839-.1547.3167-.1547.2053 0 .3553.1547.3553.3739 0 .215-.15.3784-.3553.3784h-.1883v.2278h.1925c.3553 0 .6164-.2536.6164-.6062 0-.3567-.2653-.6231-.6164-.6231m2.333 1.2293V14.085h-.2655v1.1435c0 .0343.03.0644.0643.0644zm2.7352 0-.5607-.6362.5008-.5717h-.3127l-.4493.5331v-1.079l-.2654.1331v1.5519c0 .0386.03.0688.0643.0688h.2012v-.6019l.4964.6019zm-4.1308-.4728h.3596v-.2666h-.488zm1.2628-1.3069c-.0985 0-.1798.0775-.1798.1762a.16.16 0 0 0 .047.1161h.2655c.03-.03.047-.0688.047-.1161 0-.0988-.0812-.1762-.1798-.1762z"/></svg>