<svg xmlns="http://www.w3.org/2000/svg" viewBox="0 0 24 24"><path fill="#44739e" d="M5.25 10.581a10.62 10.62 0 0 0 .6-3.311H5.8a11.94 11.94 0 0 0-2.017 2.719A7.68 7.68 0 0 0 4.1 7.82a8.3 8.3 0 0 0-1.475 2.008A5.45 5.45 0 0 0 2.9 8.12a6.37 6.37 0 0 0-1.35 2.055 5.39 5.39 0 0 0-.55 2.4 5.06 5.06 0 0 0 1.032-1.374 8.98 8.98 0 0 0-.482 2.524A9 9 0 0 0 2.947 11.9a10.71 10.71 0 0 0-.597 3.425 11.9 11.9 0 0 0 1.989-2.66 14.38 14.38 0 0 0-.889 4.76 15.72 15.72 0 0 0 3.401-5 15.68 15.68 0 0 0 1.35-5.85l-.051.049a15.26 15.26 0 0 0-2.9 3.957m8.389-1.433a3.239 3.239 0 0 0-2.903 1.777L12.241 12a1.441 1.441 0 0 1 1.398-1.048 1.459 1.459 0 1 1 0 2.917 1.44 1.44 0 0 1-1.383-1.018l-1.504 1.064a3.257 3.257 0 1 0 2.887-4.767m7.492.152v3.328L19.216 9.3h-1.808v6.214h1.869v-3.327l1.915 3.327H23V9.3Zm-12.886.942v4.346l3.053-2.158Z"/></svg>