<svg xmlns="http://www.w3.org/2000/svg" fill="#44739e" viewBox="0 0 24 24"><path d="M5.864 10.71a9.65 9.65 0 0 0 .545-3.01h-.045a10.85 10.85 0 0 0-1.834 2.472A6.98 6.98 0 0 0 4.818 8.2a7.55 7.55 0 0 0-1.341 1.825 4.95 4.95 0 0 0 .25-1.552A5.79 5.79 0 0 0 2.5 10.341a4.9 4.9 0 0 0-.5 2.182 4.6 4.6 0 0 0 .938-1.249 8.16 8.16 0 0 0-.438 2.294 8.18 8.18 0 0 0 1.27-1.659 9.74 9.74 0 0 0-.543 3.114 10.82 10.82 0 0 0 1.808-2.418 13.07 13.07 0 0 0-.808 4.327 14.29 14.29 0 0 0 3.092-4.546 14.25 14.25 0 0 0 1.227-5.318l-.046.045a13.87 13.87 0 0 0-2.636 3.597m7.626-1.303a2.945 2.945 0 0 0-2.639 1.616l1.368.977a1.31 1.31 0 0 1 1.271-.953 1.326 1.326 0 1 1 0 2.652 1.309 1.309 0 0 1-1.257-.925l-1.368.967a2.961 2.961 0 1 0 2.625-4.334m6.811.138v3.026L18.56 9.545h-1.644v5.65h1.699V12.17l1.741 3.025H22v-5.65Zm-11.715.857v3.951l2.776-1.962z"/></svg>