<svg xmlns="http://www.w3.org/2000/svg" viewBox="0 0 24 24"><path fill="#44739e" d="M2.5248 15.6277c-.279-.02-.6461-.0928-.9067-.1798-.705-.2354-1.1948-.7061-1.4212-1.3658-.2582-.7523-.263-1.841-.0112-2.5645.155-.4459.3642-.7772.7032-1.1142.6643-.6605 1.4232-.94 2.4716-.9101.561.016.9603.0998 1.3419.2815.2791.133.4436.2481.6523.4567.4144.414.642.9144.7335 1.6133.0375.286.0374.8692-.0002 1.134-.0972.684-.373 1.2548-.8296 1.7172-.5567.5637-1.2204.866-2.0502.934-.2583.021-.3618.0208-.6834-.002zm.772-1.886c.286-.0902.4688-.334.564-.7518.0435-.1911.0419-.7467-.003-.9536-.0666-.308-.1665-.4933-.3221-.5973-.1158-.0774-.193-.1002-.3859-.1138-.425-.03-.7581.2463-.8803.7304-.0263.104-.0329.2096-.0318.5035.003.754.136 1.063.5087 1.1812.1612.0511.3909.0516.5502.001zm12.0941 1.8879c-.5193-.0404-.9442-.145-1.3099-.3223-.5-.2424-.819-.5465-1.053-1.0039-.2327-.4545-.3363-.9651-.3364-1.6584-.0001-.6682.099-1.1604.3328-1.65.3207-.6722.8347-1.1371 1.5049-1.3613.4662-.156 1.1607-.2044 1.6887-.1179.7994.131 1.377.5514 1.7306 1.2598.13.2603.218.554.275.9174.054.344.0386 1.2766-.025 1.5004-.009.0315-.1053.0334-1.6796.0334h-1.6703l.013.081c.0476.3006.2972.5294.6835.627.2031.0513.7403.07 1.0498.0368.3727-.0401.8023-.1481 1.1347-.2852.0758-.0312.1378-.0523.1378-.0468 0 .0223.1723 1.489.1805 1.5366.008.0474.0005.0545-.1001.0923-.3383.127-.9905.2709-1.5015.331-.3231.0382-.784.0513-1.0554.0302zm.7896-3.9145c-.0346-.3598-.1395-.5462-.3636-.6463-.0741-.0331-.1295-.0423-.248-.0414-.4069.003-.6706.2713-.7234.7353l-.0103.0906h1.3586zm-9.5674.844V9.6216H8.597l-.0001.1287c0 .133-.0303.505-.0493.6057-.0103.0545-.007.0526.0704-.0382.3045-.3578.7466-.6423 1.1682-.7518.247-.0642.4565-.0838.7755-.0726.44.0154.7337.1024.999.2959.1944.1417.4069.4651.5072.7719.1055.3225.1022.2436.1098 2.6798l.007 2.2556h-2.1566l-.005-1.97-.005-1.97-.0477-.0926c-.0616-.1196-.1414-.1639-.2953-.1639-.332 0-.6938.3817-.853.8998-.043.1395-.043.1431-.0488 1.7183l-.006 1.5785H6.613zm14.478.7325c-.5235-.0952-.9915-.3472-1.361-.7327-.3408-.3555-.5468-.7466-.6535-1.2404-.049-.2268-.0489-.745.0002-.972.2142-.992.9594-1.7392 1.9436-1.9486.2533-.054.7257-.0582.9578-.009.7739.165 1.3961.6307 1.7418 1.3037.3053.5943.363 1.2654.163 1.8983-.1586.5021-.5234.9989-.9462 1.2886-.2247.1539-.549.3018-.8091.3689-.1989.0513-.2645.059-.5501.0653-.2365.005-.3682-.0009-.4864-.0224zm.6772-.334c.8287-.1015 1.5267-.6797 1.7823-1.4762.0794-.2475.1036-.447.091-.7513-.0127-.308-.0659-.527-.193-.7955-.111-.2342-.2165-.3852-.4075-.5833-.2696-.2797-.6003-.4748-.9878-.5826-.1766-.0492-.2139-.0527-.5425-.052-.3916.001-.4954.0202-.8136.1499-.5827.2376-1.0585.7715-1.2345 1.3853-.2985 1.0414.2423 2.149 1.2511 2.5624.3493.1431.6845.1887 1.0545.1433m-.9251-1.4571c0-.5264-.007-.9252-.017-.9252-.009 0-.1917.0632-.4053.1403l-.3884.1404-.005-.2956c-.003-.1626-.002-.2992.003-.3037.004-.004.5218-.192 1.1498-.4169s1.1868-.4258 1.242-.4464l.1-.0376v2.4886l-.825.2909c-.4537.16-.8314.2907-.8393.2905-.008-.0001-.0143-.4165-.0143-.9254z"/></svg>