<svg xmlns="http://www.w3.org/2000/svg" viewBox="0 0 24 24"><path fill="#44739e" d="M3.314 15.325c-.255-.018-.592-.085-.831-.164-.646-.216-1.095-.648-1.303-1.252-.236-.69-.241-1.688-.01-2.351.142-.409.334-.713.645-1.022.609-.605 1.304-.861 2.265-.834.515.015.881.092 1.231.258.255.122.406.228.597.419.38.379.589.838.673 1.479.034.262.034.797 0 1.039-.089.627-.342 1.15-.761 1.574-.51.517-1.119.794-1.879.857-.237.019-.332.019-.627-.002Zm.708-1.728c.262-.083.43-.307.517-.69.04-.175.038-.684-.003-.874-.061-.282-.152-.452-.295-.547-.106-.071-.177-.092-.354-.105-.389-.027-.695.226-.807.67-.024.095-.03.192-.029.462.003.691.125.974.467 1.082.147.047.358.048.504.001Zm11.086 1.73c-.476-.037-.865-.133-1.2-.295-.459-.222-.751-.501-.966-.921-.213-.416-.308-.884-.308-1.52 0-.612.091-1.063.305-1.512.294-.616.765-1.043 1.38-1.248.427-.143 1.063-.187 1.547-.108.733.12 1.263.505 1.587 1.155.119.238.2.507.252.841.049.315.035 1.17-.023 1.375-.008.029-.096.031-1.54.031h-1.531l.012.074c.044.275.273.485.627.575.186.047.678.064.962.033.342-.036.736-.135 1.04-.261.07-.029.127-.048.127-.043 0 .02.157 1.365.165 1.409.007.043 0 .049-.092.084-.31.117-.908.248-1.376.304-.296.035-.719.047-.968.027m.724-3.588c-.032-.33-.128-.501-.333-.593-.068-.03-.119-.038-.228-.038-.373.003-.614.249-.663.674l-.009.084h1.245Zm-8.77.774V9.82h1.819l-.001.118c0 .122-.027.463-.045.555-.009.05-.006.048.065-.035.279-.328.684-.589 1.071-.689.226-.059.418-.077.711-.067.403.014.672.094.915.272.179.129.373.426.465.707.097.296.094.223.101 2.457l.006 2.067h-1.977l-.004-1.806-.005-1.805-.043-.085c-.057-.11-.13-.151-.271-.151-.304 0-.636.35-.782.825-.039.128-.039.131-.045 1.575l-.005 1.447H7.062Zm13.271.671c-.479-.087-.908-.318-1.247-.672-.312-.326-.501-.684-.599-1.137-.045-.208-.045-.683 0-.891.196-.909.88-1.594 1.782-1.786.232-.049.665-.053.878-.008.709.151 1.279.578 1.596 1.195.28.545.333 1.16.15 1.74-.146.46-.48.916-.868 1.181-.206.141-.503.277-.741.338-.183.047-.243.054-.505.06-.216.005-.337-.001-.445-.02Zm.621-.306c.76-.093 1.4-.623 1.634-1.353.073-.227.095-.41.083-.689-.011-.282-.06-.483-.176-.729-.102-.215-.199-.353-.374-.535-.247-.256-.55-.435-.905-.534-.162-.045-.197-.048-.498-.048-.359.001-.454.019-.746.138-.534.218-.97.707-1.131 1.27-.274.954.222 1.97 1.147 2.348.32.132.627.173.966.132m-.848-1.336c0-.482-.006-.848-.015-.848s-.176.058-.372.129l-.356.128-.004-.271c-.003-.149-.002-.274.002-.278s.479-.176 1.054-.382 1.088-.39 1.139-.409l.091-.035v2.281l-.756.267c-.416.147-.762.267-.769.266-.008 0-.013-.381-.013-.848Z"/></svg>