<svg xmlns="http://www.w3.org/2000/svg" viewBox="0 0 24 24"><path fill="#44739e" d="M7.04 17.205a1.004 1.004 0 0 0 1.004-1.004 1.004 1.004 0 1 0-1.004 1.004m0-1.528a.524.524 0 0 1 .525.524.525.525 0 1 1-.525-.524m0-6.874a1.004 1.004 0 0 0 1-1.004 1.004 1.004 0 1 0-1.004 1.004Zm0-1.529a.526.526 0 0 1 .525.525.525.525 0 1 1-.525-.529Zm0 5.73a1.004 1.004 0 0 0 1-1.004 1.004 1.004 0 1 0-1.004 1.004Zm0-1.529a.526.526 0 0 1 .525.525.525.525 0 1 1-.525-.525m-3.499 8.176h16.918V4.349H3.541Zm1.63-13.283a.268.268 0 0 1 .278-.259H18.55a.268.268 0 0 1 .279.259v2.86a.27.27 0 0 1-.279.257H5.449a.268.268 0 0 1-.278-.257Zm0 4.201a.267.267 0 0 1 .278-.257H18.55a.267.267 0 0 1 .279.257v2.86a.27.27 0 0 1-.279.257H5.449a.268.268 0 0 1-.278-.257Zm0 4.201a.268.268 0 0 1 .278-.258H18.55a.268.268 0 0 1 .279.258v2.86a.27.27 0 0 1-.279.257H5.449a.267.267 0 0 1-.278-.257ZM1 1v22h22V1Zm20.282 18.743a.732.732 0 0 1-.732.73H3.45a.732.732 0 0 1-.732-.73V4.257a.732.732 0 0 1 .732-.727h17.1a.732.732 0 0 1 .732.73Z"/></svg>