<svg xmlns="http://www.w3.org/2000/svg" viewBox="0 0 24 24"><path fill="#44739e" d="M3.785 1s-.303.014-.626.114c-.175.055-.344.144-.478.222-.135.078-.257.162-.249.157-.032.02-.056.04-.087.066a4 4 0 0 0-.114.1c-.086.078-.184.172-.266.265-.174.198-.316.468-.45.755-.089.189-.126.414-.152.602a5 5 0 0 0-.035.341v.004l-.003.175.003.004v1.663L5.32 7.61l-2.386-.002v2.128h1.683v.722l.998.526H1.404v1.995h4.2l-.987.526v.76H2.934v2.128l2.384-.002-3.992 2.143V23h18.886s.303-.014.627-.114c.175-.055.342-.144.476-.222.135-.078.254-.159.251-.157.032-.02.056-.04.087-.066a5 5 0 0 0 .114-.102c.086-.077.186-.17.268-.264.174-.197.312-.466.447-.753.088-.188.125-.416.151-.603.026-.189.035-.342.035-.342v-.007l.007-.171-.005-.006v-1.661l-3.992-2.142 2.384.003v-2.129h-1.677v-.759l-.99-.526h4.201v-1.995h-4.201l.99-.526v-.723h1.679V7.607l-2.383.002 3.99-2.141V1H3.788Zm.018.482H22.19V5.18l-4.695 2.519.101.391 2.988-.001v1.166h-1.199v-.818l-1.534.818h-2.96V7.991l6.173-3.311V2.646H3.855a.33.33 0 0 0-.056.004.7.7 0 0 0-.109.022c-.088.025-.203.074-.326.168-.134.101-.224.225-.288.332-.064.106-.1.192-.118.258-.023.083-.021.152-.022.207-.002.062-.002.116-.002.116v.927l6.173 3.313v1.262H6.152l-1.535-.818v.818H3.415V8.09l2.99.002.096-.393L1.808 5.18V3.661l.002-.015v-.007c0-.001.007-.126.029-.294.023-.166.07-.374.111-.461.128-.272.265-.515.375-.64.061-.07.15-.158.227-.227.037-.034.074-.064.103-.089a2 2 0 0 0 .039-.033c.035-.023.112-.075.229-.142.117-.068.266-.144.378-.179.251-.078.519-.093.502-.092m.05 1.644h16.731v1.266l-1.124.602v-.7H4.541v.703l-1.126-.605v-.64s-.001-.049 0-.102c.001-.022.004-.051.006-.074.001-.01.001-.017.002-.024-.002.006.004-.011.014-.035a1 1 0 0 1 .05-.096c.043-.071.106-.152.168-.199.074-.056.133-.079.168-.089a.3.3 0 0 1 .03-.007m3.344 3.296h9.604l-2.39 1.283v2.03h2.539l-2.463 1.316v1.862L17 14.264h-2.591v2.031l2.392 1.285H7.197l2.392-1.283v-2.031H6.998l2.517-1.353v-1.862l-2.46-1.314h2.534v-2.03Zm7.692 8.323h3.006l1.49.801v-.801h1.197v1.165h-2.988l-.101.391 4.695 2.519v1.536a4 4 0 0 1-.03.299c-.022.166-.07.376-.11.463-.128.272-.265.515-.375.64-.061.07-.153.158-.229.227a4 4 0 0 1-.1.087c-.012.01-.024.021-.033.028-.003.003-.007.004-.009.005-.036.024-.113.077-.229.144-.118.069-.265.143-.377.177-.125.04-.254.063-.348.076s-.141.016-.153.017H1.806v-2.053h.002V18.82l4.693-2.517-.098-.393-2.99.002v-1.165h1.204v.799l1.485-.799h3.005v1.26l-6.175 3.315v2.034h17.207s.076 0 .166-.026c.09-.025.205-.077.327-.17.133-.101.225-.226.29-.334.063-.105.099-.188.118-.254.023-.084.02-.154.022-.209.002-.063 0-.116 0-.116v-.927l-6.173-3.312Zm-10.351 4.26v.703h14.919v-.703l1.125.603v.642s0 .045-.001.098c-.001.024-.004.054-.006.078q-.001.014-.002.024c.001-.005-.002.01-.013.033a1 1 0 0 1-.051.098c-.043.071-.107.15-.168.197-.074.056-.129.078-.166.089-.041.011-.024.007-.024.007H3.414v-1.266Z"/></svg>