<svg xmlns="http://www.w3.org/2000/svg" viewBox="0 0 24 24"><path fill="#44739e" d="m11.616 14.04-.042-.044.057-.037.007-.005.051-.034.013-.009.046-.032.018-.013.04-.031.022-.016.037-.029.027-.021.03-.025.034-.029.023-.02.056-.05a2.804 2.804 0 0 0 .738-1.032 2.4 2.4 0 0 0 .101-.287c.026-.078.049-.158.07-.238v-.017h-.008l.011-.043v-.015l.011-.044.008-.044a3.96 3.96 0 0 0 .057-.668 3.5 3.5 0 0 0-.043-.55 3.167 3.167 0 0 0-.73-1.575 2.6 2.6 0 0 0-.22-.227l-.024-.024a3.5 3.5 0 0 0-1.013-.626 3 3 0 0 0-.144-.054 4.06 4.06 0 0 0-1.301-.209 3.82 3.82 0 0 0-1.371.23 3.2 3.2 0 0 0-1.099.66 3.12 3.12 0 0 0-.737 1.031 3.89 3.89 0 0 0-.27 1.344v.011a1.707 1.707 0 0 1-.426 1.198 1.43 1.43 0 0 1-.299.256l-.018.011a1.727 1.727 0 0 1-.873.199 1.573 1.573 0 0 1-1.202-.465 1.4 1.4 0 0 1-.127-.159l-1.778.49a2.93 2.93 0 0 0 .44.638 2.5 2.5 0 0 0 .204.207 3.48 3.48 0 0 0 1.1.66 4.1 4.1 0 0 0 .953.219 4.01 4.01 0 0 0 1.191-.053 3.68 3.68 0 0 0 .856-.265c.148-.069.25-.127.274-.141a3.52 3.52 0 0 0 .595-.44 3.365 3.365 0 0 0 .969-2.102v-.014a4.5 4.5 0 0 1 .032-.453c.009-.07.019-.139.031-.207a1.584 1.584 0 0 1 .291-.682 1.45 1.45 0 0 1 .661-.47 1.72 1.72 0 0 1 .624-.1 1.68 1.68 0 0 1 1.196.465 1.71 1.71 0 0 1 .428 1.202 2.3 2.3 0 0 1-.063.563v.011l-.027.066-.007.016-.026.06a2.17 2.17 0 0 1-.293.496 1.558 1.558 0 0 1-1.202.465 1.57 1.57 0 0 1-1.205-.47 1.52 1.52 0 0 1-.362-.66v-.017a3.615 3.615 0 0 1-.9 1.854 3.29 3.29 0 0 0 1.1.66l.086.028.027.009.06.019.032.009.056.016.033.009.056.014.032.013.057.015.031.006.059.014h.029l.064.012h.024l.069.011h.02l.078.011h.011a4 4 0 0 0 .651.033c.019.019.037.039.057.058a7 7 0 0 0 2.03 1.43l1.1-1.152a3.415 3.415 0 0 1-1.254-.821m-8.762-2.91a1.667 1.667 0 0 1 .425-1.072 1.624 1.624 0 0 1 1.31-.463 1.517 1.517 0 0 1 1.191.579 1.85 1.85 0 0 1 .232.449l.013.04a3.19 3.19 0 0 1 .905-1.789 3.675 3.675 0 0 0-2.451-.886 3.69 3.69 0 0 0-2.465.894 3.331 3.331 0 0 0-.7 3.805l1.76-.488a1.94 1.94 0 0 1-.22-1.069m4.151 2.53-.026.024c.013.014.027.028.041.04l.025-.022.019-.019a.3.3 0 0 1-.044-.04Zm14.829-4.897a3.667 3.667 0 0 0-1.87-.633 3.78 3.78 0 0 0-2.609.911l-.048.043a.44.44 0 0 0-.047-.043 3.31 3.31 0 0 0-1.123-.673 4.18 4.18 0 0 0-2.759 0 3.33 3.33 0 0 0-1.071.627 3.11 3.11 0 0 1 .594.895c.034.078.066.158.093.239a3.37 3.37 0 0 1 .184 1.135 3.6 3.6 0 0 1-.098.854 2.97 2.97 0 0 1-.177.52 3.13 3.13 0 0 1-.751 1.051l-.053.047c.05.054.102.11.156.156a3.31 3.31 0 0 0 1.123.673 4.18 4.18 0 0 0 2.759 0 3.85 3.85 0 0 0 .751-.375 3.8 3.8 0 0 1-.555-.614 4.18 4.18 0 0 1-.418-.747 2 2 0 0 1-.055-.138 1.53 1.53 0 0 1-1.1.388 1.588 1.588 0 0 1-1.159-.447 1.42 1.42 0 0 1-.311-.527h3.087a3.1 3.1 0 0 0 .232.755 3.23 3.23 0 0 0 .867 1.139 3.35 3.35 0 0 0 1.003.566 4.18 4.18 0 0 0 2.758 0 3.3 3.3 0 0 0 .822-.424 3.4 3.4 0 0 1-.281-.228 3.56 3.56 0 0 1-.751-1.051c-.019-.041-.036-.083-.036-.083-.012-.03-.024-.059-.03-.083a1.524 1.524 0 0 1-1.1.383 1.586 1.586 0 0 1-1.158-.447 1.41 1.41 0 0 1-.312-.527h4.503a3.293 3.293 0 0 0-1.06-3.342m-8.529 2.04a1.43 1.43 0 0 1 .306-.501 1.496 1.496 0 0 1 1.158-.447 1.573 1.573 0 0 1 1.158.447 1.375 1.375 0 0 1 .305.501Zm5.1 0a1.4 1.4 0 0 1 .305-.501 1.725 1.725 0 0 1 2.316 0 1.39 1.39 0 0 1 .305.501Z"/></svg>