<svg xmlns="http://www.w3.org/2000/svg" viewBox="0 0 24 24"><path fill="#44739e" d="m19.703 13.288.11-7.417a2.76 2.76 0 0 0-2.189-2.742l-9.788-2.07a2.761 2.761 0 0 0-3.329 2.7v11.364a2.76 2.76 0 0 0 3.285 2.709l9.678-1.877a2.76 2.76 0 0 0 2.233-2.667m-3.849.722-2.034.22-1.736-7.809-1.044-.053-.028 8.071-1.627.168.013-8.329-2.161-.11V4.28l6.133.46 1.482 7.001 1.62-6.762 1.68.13Zm-4.218 6.181c0-.463-.369-.748-1.026-.748a1.232 1.232 0 0 0-1.074.493l.449.255a.753.753 0 0 1 .615-.29c.256 0 .395.11.395.29v.14c-1.07.121-1.588.42-1.588.984a.699.699 0 0 0 .749.733 1.496 1.496 0 0 0 .834-.251l.058.22h.588Zm-.66 1.137a.924.924 0 0 1-.615.265.304.304 0 0 1-.299-.33c0-.298.294-.458.914-.534Zm2.659-1.888a1.408 1.408 0 0 0-.865.347l-.061-.299-.55.076v2.451h.66v-1.808a.976.976 0 0 1 .619-.28c.241 0 .322.139.322.449v1.639h.659v-1.76a.714.714 0 0 0-.784-.815m2.98.337c-.05-.123-.24-.337-.726-.336-.537 0-1.013.472-1.013 1.32s.463 1.259 1.049 1.259a.66.66 0 0 0 .651-.367l.01.01v.293c0 .394-.165.558-.509.558-.371 0-.448-.123-.474-.247l-.66.105c.092.433.55.63 1.046.628 1.201-.008 1.234-.701 1.234-1.122v-2.391h-.561Zm-.57 1.699c-.486 0-.509-.512-.509-.823 0-.569.266-.742.505-.742.357 0 .55.321.55.714 0 .335-.042.846-.546.851m3.918-.754c0-.819-.434-1.282-1.16-1.282s-1.176.477-1.176 1.32a1.144 1.144 0 0 0 1.186 1.306 1.21 1.21 0 0 0 1.118-.55l-.486-.269a.643.643 0 0 1-.571.323c-.392 0-.589-.241-.594-.719h1.677c0-.042.006-.086.006-.129m-1.673-.298c.026-.342.213-.537.513-.537a.481.481 0 0 1 .507.537ZM5.746 18.609a1.65 1.65 0 0 0-1.7 1.815 1.65 1.65 0 0 0 1.7 1.815 1.65 1.65 0 0 0 1.702-1.815 1.65 1.65 0 0 0-1.702-1.815m0 2.86c-.675 0-.799-.608-.799-1.049s.124-1.048.799-1.048.801.608.801 1.048-.125 1.053-.801 1.053Zm2.7-1.676v-.297h-.631v2.52h.67v-1.677c.101-.22.417-.268.705-.268h.032v-.622a.55.55 0 0 0-.085 0 .99.99 0 0 0-.691.344"/></svg>