<svg xmlns="http://www.w3.org/2000/svg" fill="#44739e" viewBox="0 0 24 24"><path d="m18.962 18.419-.7-15.534c-.951.717-5.728.742-6.327.742S6.583 3.6 5.611 2.892l-.567 15.474a51.4 51.4 0 0 0 7.157.506 51.4 51.4 0 0 0 6.761-.453m-6.762.842h-.035a51.9 51.9 0 0 1-7.131-.506A3.161 3.161 0 0 0 8.193 22h7.621a3.157 3.157 0 0 0 3.152-3.192 51.7 51.7 0 0 1-6.766.453m-6.542 1.088.733-.889h.55l-.759 1.066Zm1.48.839-.524-.288.733-1.44H7.9Zm.877-.234.733-1.44H9.3l-.759 1.728Zm1.807.437L9.3 21.1l.733-1.44h.55zm1.519 0-.524-.289.733-1.44h.55zm1.44 0-.524-.289.733-1.44h.55zm1.571 0-.524-.289.733-1.44h.55zm1.527 0-.524-.289.733-1.44h.55zm1.377-.2-.523-.288.733-1.44h.55zm.83-18.573C17.72 2.353 15.474 2 12 2s-5.72.353-6.086.618c.365.265 2.612.618 6.086.618s5.721-.353 6.086-.618" class="cls-1" data-name="Colore riempimento 2"/></svg>