<svg xmlns="http://www.w3.org/2000/svg" viewBox="0 0 24 24"><path fill="#44739e" d="m19.659 19.061-.77-17.088c-1.046.789-6.301.817-6.96.817s-5.887-.03-6.956-.809l-.624 17.022a56.5 56.5 0 0 0 7.873.556 56.5 56.5 0 0 0 7.437-.498m-7.438.926h-.039a57.1 57.1 0 0 1-7.844-.556A3.477 3.477 0 0 0 7.813 23h8.383a3.473 3.473 0 0 0 3.467-3.511 56.9 56.9 0 0 1-7.442.498m-7.197 1.197.807-.978h.605l-.835 1.173Zm1.628.923-.576-.317.806-1.584h.609Zm.965-.258.806-1.584h.608l-.835 1.901Zm1.988.481-.574-.32.806-1.584h.605Zm1.671 0-.577-.318.807-1.584h.605Zm1.584 0-.577-.318.807-1.584h.605Zm1.728 0-.577-.318.807-1.584h.605Zm1.679 0-.576-.318.806-1.584h.605Zm1.515-.22-.575-.317.806-1.584h.605Zm.913-20.43c-.402-.292-2.873-.68-6.694-.68s-6.292.388-6.695.68c.401.291 2.873.68 6.695.68s6.293-.389 6.694-.68"/></svg>