<svg xmlns="http://www.w3.org/2000/svg" viewBox="0 0 24 24"><path fill="#44739e" d="M19.333 7.418h-3.666c-.507 0-.917-.409-.917-.916s.41-.917.917-.917h3.666c.507 0 .917.41.917.917s-.41.916-.917.916m0 4.584h-3.666c-.507 0-.917-.41-.917-.917s.41-.917.917-.917h3.666c.507 0 .917.41.917.917s-.41.917-.917.917m0 4.583h-3.666c-.507 0-.917-.41-.917-.917s.41-.916.917-.916h3.666c.507 0 .917.41.917.916s-.41.917-.917.917m-6.416 0c0 .507-.41.917-.917.917s-.917-.41-.917-.917V6.502c0-.507.41-.917.917-.917s.917.41.917.917ZM8.333 7.418H4.667c-.507 0-.917-.409-.917-.916s.41-.917.917-.917h3.666c.507 0 .917.41.917.917s-.41.916-.917.916m0 4.584H4.667c-.507 0-.917-.41-.917-.917s.41-.917.917-.917h3.666c.507 0 .917.41.917.917s-.41.917-.917.917m0 4.583H4.667c-.507 0-.917-.41-.917-.917s.41-.916.917-.916h3.666c.507 0 .917.41.917.916s-.41.917-.917.917M22.08 2.831h-8.247c-.936 0-1.833.917-1.833.917s-.936-.917-1.833-.917H1.918c-.507 0-.918.412-.918.919v14.665c0 .509.412.92.92.92h6.424c1.805 0 1.811 1.833 2.739 1.833h1.834c.916 0 .941-1.833 2.755-1.833h6.407c.508 0 .921-.412.921-.921V3.752c0-.509-.412-.921-.92-.921"/></svg>