<svg xmlns="http://www.w3.org/2000/svg" fill="#44739e" viewBox="0 0 24 24"><path d="M24 11.004h-4c-.553 0-1-.447-1-1s.447-1 1-1h4c.553 0 1 .447 1 1s-.447 1-1 1m0 5h-4c-.553 0-1-.447-1-1s.447-1 1-1h4c.553 0 1 .447 1 1s-.447 1-1 1m0 5h-4c-.553 0-1-.447-1-1s.447-1 1-1h4c.553 0 1 .447 1 1s-.447 1-1 1m-7 0c0 .553-.447 1-1 1s-1-.447-1-1v-11c0-.553.447-1 1-1s1 .447 1 1zm-5-10H8c-.553 0-1-.447-1-1s.447-1 1-1h4c.553 0 1 .447 1 1s-.447 1-1 1m0 5H8c-.553 0-1-.447-1-1s.447-1 1-1h4c.553 0 1 .447 1 1s-.447 1-1 1m0 5H8c-.553 0-1-.447-1-1s.447-1 1-1h4c.553 0 1 .447 1 1s-.447 1-1 1M26.996 6H18c-1.021 0-2 1-2 1s-1.021-1-2-1H5.002C4.448 6 4 6.449 4 7.002V23c0 .555.449 1.004 1.004 1.004h7.008c1.969 0 1.975 2 2.988 2h2c1 0 1.027-2 3.006-2h6.989c.555 0 1.005-.45 1.005-1.005V7.004C28 6.449 27.551 6 26.996 6"/></svg>