<svg xmlns="http://www.w3.org/2000/svg" viewBox="0 0 24 24"><path fill="#44739e" d="m21.84 17.556.015.027c.012.017.014.01.021-.017l.014-.052.008-.023v-.011c0-.008 0-.01-.007-.01a.2.2 0 0 0-.05.017l-.021.011c-.011 0-.015.012-.012.017h.005Zm.053-.175-.024.006-.026.007-.034.016a.41.41 0 0 1 .143-.033.36.36 0 0 0-.059.004m-2.498-.573.252-.016.279-.019.093-.005h-.02l-.373.026-.18.012c-.198.013-.373.024-.431.031l.167-.012Zm3.551.975c-.014 0-.026-.01-.026-.012s-.008-.02-.012-.03c-.027-.056-.071-.156-.071-.161s0-.008.011-.012a.058.058 0 0 0 .029-.046.55.55 0 0 0 0-.083l-.005-.055v-.099l-.016-.019c-.012-.011-.011-.029-.016-.044v-.034c.005 0 .006-.007 0-.008h-.014c0-.008-.006-.014-.012-.013s.01 0 .011 0v-.01s-.006-.012 0-.018v-.008s-.012-.007-.022 0l-.006.005h-.009a.024.024 0 0 0-.007.025v.03a.05.05 0 0 0 .016.018l.018.009v.011h-.008a.027.027 0 0 1-.021 0c-.018 0-.023.006-.02.011a.026.026 0 0 0 .018.008l.022.008c.012.006.027.008.024 0h.006a.019.019 0 0 1 .014.011v.083l.007.128c0 .009 0 .015-.006.014v.033l-.015.008a.13.13 0 0 1-.035.012h-.033v-.079a1.2 1.2 0 0 0-.012-.189s-.012 0-.03-.008h-.058l-.01.022c0 .012-.022.055-.037.099l-.035.101a.26.26 0 0 0-.022.063.157.157 0 0 1-.047.071c-.019.019-.025.008-.033.011a.24.24 0 0 0 .062-.077.13.13 0 0 1 .012-.036c.007-.017.03-.079.052-.139s.043-.109.047-.119a.14.14 0 0 0 .012-.037.5.5 0 0 1 .033-.095.033.033 0 0 0 0-.018v-.022h.04a.3.3 0 0 0 .053-.009h.007l-.061-.055-.029-.021-.027-.021-.032-.022-.047-.03-.022-.012-.025-.01h-.007l-.01.01c-.008.006-.011.006-.052 0a.063.063 0 0 1-.056-.025h.008l-.028-.016a.44.44 0 0 0-.037-.05l-.036-.044a2.2 2.2 0 0 0-.096-.11c-.016-.017-.007-.019-.014-.03l.01.013.037.043v.007l.022.027.012.012.019.022.007.008.013.018.03.036.042.023-.22-.253h.003c0-.011-.017-.024-.017-.034 0-.029-.006-.04-.036-.036h-.022s0-.014.032-.03a.2.2 0 0 0 .032-.017l.006-.009h-.008a.2.2 0 0 0 .02-.013v-.007a.25.25 0 0 0-.057-.008h-.068.008a.33.33 0 0 1 .057.008v.007l-.011.007-.064-.009h-.043a6 6 0 0 0-.2-.025l-.109-.011h-.071a.015.015 0 0 0 0 .015v.023a.08.08 0 0 0 .021.02c.029.015.089.042.211.096l-.02.01-.027-.012-.019-.009c-.122-.055-.183-.081-.211-.096l-.019-.011-.005-.007v-.03c-.01 0-.007-.009-.007-.011a.1.1 0 0 0-.017 0h-.016a.1.1 0 0 0-.017 0h-.059.06a.2.2 0 0 1 .03 0l.015.03.009.018a.63.63 0 0 0 .184.095c.044.019.085.046.128.066h.006a5 5 0 0 1 .504.264l.008.007h-.037a.077.077 0 0 0-.044.011h-.017a.019.019 0 0 0-.019 0 .6.6 0 0 1-.089 0 2.2 2.2 0 0 0-.268 0c0 .006-.028 0-.03 0a.077.077 0 0 0-.057-.013h-.032l-.031-.024c-.016-.012-.069-.055-.116-.093-.11-.092-.237-.189-.33-.26-.039-.029-.073-.056-.098-.071l-.021-.013a.14.14 0 0 0-.04-.019h-.017l.028.01h.009l.015.008c.022.012.02.018.041.029l.011.009-.011-.008c-.021-.011-.019-.017-.041-.029l-.013-.008h-.009l-.027-.009h-.009a.4.4 0 0 0-.11-.01c-.041 0-.01 0-.197-.008-.018 0-.073 0-.164-.006h-.258a6.1 6.1 0 0 0-.676.039 1 1 0 0 0-.11.012 1.5 1.5 0 0 0-.208.05l.013-.006-.038.012h-.016l-.063.023c-.015.006-.067.026-.138.058h-.014l-.054.033-.028.015-.026.014h-.021l-.045.027-.026.014-.036.021s-.013.008-.028.016h-.013c-.037.022-.095.056-.165.1l-.042.027c-.057.036-.12.08-.13.089s-.144.065-.133.047a2.2 2.2 0 0 1 .23-.161l-.277.172-.045.012a.033.033 0 0 0-.016 0h-.007.011l.045-.012.276-.172.017-.01.11-.07.204-.117.086-.046.075-.037.046-.025.033-.014.018-.01h.011l.025-.01h.007-.009l-.027.011-.026.013-.026.011-.029.014-.149.068-.11.06-.109.057-.034.022-.083.049-.028.016h-.008l-.368.202h-.029a.1.1 0 0 1-.071.031c-.11.009-1.074.268-1.266.321h.019c.032 0 .203-.015.262-.023l.126-.009a.32.32 0 0 0 .1-.014.055.055 0 0 1 .023-.008h.005a.1.1 0 0 1-.022.013h-.013a.31.31 0 0 1-.1.015l-.075.005a.02.02 0 0 1 .015 0h-.017l-.015.009-.012.011h-.006l-.027.024c-.01.008-.018.018-.027.025s0-.005 0-.017v-.012a.35.35 0 0 0 .057-.05h-.011l-.072.007v.048a.044.044 0 0 1 0 .023.036.036 0 0 0 .007.024l.009-.008v.039a.2.2 0 0 0-.027.026h.016s-.013.021-.037.033a1.7 1.7 0 0 1-.189.048c-.048.01-.065.013-.067.025a.13.13 0 0 0 .011.035c.008.018.021.055.032.089.017.055.034.1.066.182.015.04.027.052.032.031l.007-.035a.9.9 0 0 1 .054-.166l.006-.025c0-.026.026-.039.073-.043.02 0 .081-.01.11-.014 0 0 .014-.011.023-.022a.514.514 0 0 1 .6-.194.58.58 0 0 0-.584.204.057.057 0 0 1-.056.026c-.1.009-.131.015-.131.03a.4.4 0 0 1-.018.051 1.8 1.8 0 0 0-.056.186c0 .023-.01.031-.026.031a.02.02 0 0 1-.019-.007.25.25 0 0 1-.026-.058.8.8 0 0 0-.028-.067.2.2 0 0 1-.011-.029.44.44 0 0 0-.021-.06 2 2 0 0 1-.036-.101.25.25 0 0 0-.022-.056c-.006 0-.01.012-.015.053s-.009.052-.014.052v-.069.011-.006c0-.026.009-.042.025-.046l.013-.006h.013a.6.6 0 0 0 .152-.033.3.3 0 0 1 .066-.019c.053-.011.057-.013.057-.018 0-.008-.021-.009-.057 0-.074.008-.082.011-.091.02a.04.04 0 0 1-.044.008.066.066 0 0 0-.032 0h-.044v-.066h.005a.07.07 0 0 0-.006-.02v-.017h.055a.3.3 0 0 0 .039 0 .033.033 0 0 0 .02.005.022.022 0 0 1 .014 0 .08.08 0 0 0 .02 0h.021v.008c.011.012.024 0 .039-.027l.008-.019-.123.012h.013c.027 0 .056-.008.081-.01h.029-.005a.55.55 0 0 0-.126.015h-.044l.013-.011c.194-.054 1.158-.312 1.265-.32a.11.11 0 0 0 .064-.027 2.3 2.3 0 0 0-.45.033c-.158.022-.237.034-.293.045a2.4 2.4 0 0 0-.35.104 1.25 1.25 0 0 0-.283.165c-.022.017-.035.029-.033.035s.006 0 .009 0v.109l-.021.017c-.014.009-.022.016-.019.019s-.03.018-.037.036a.9.9 0 0 0-.014.212.077.077 0 0 0 .031.032.28.28 0 0 1 0 .059c0-.009 0-.013.008-.009v.009l.018.015a.027.027 0 0 1 0 .019.06.06 0 0 0 0 .019.17.17 0 0 1 0 .033.2.2 0 0 0 0 .043.043.043 0 0 1-.014.049c-.014.01-.021.013-.025.009s0-.013 0-.032a.044.044 0 0 0 0-.024h-.018v.017c-.025.11-.024.151 0 .166a.63.63 0 0 0 .291.063c.075 0 .08 0 .08.018a.037.037 0 0 0 .038.036h.009a.9.9 0 0 0 .093-.015c.012 0 .012 0 .027.024a.5.5 0 0 0 .33.182h-.35v.064h.595v-.055h-.038a.785.785 0 0 0 .363-.143l.03-.023h.157l.037-.02a.28.28 0 0 0 .066-.046l.03-.028h2.825v.019c0 .013.011.014.016.02a.031.031 0 0 1-.013-.028c0-.019 0-.023.006-.024s.006 0 .01 0 0 .008.007.022v.016-.016h.011v.015l.008.007.009.008a.34.34 0 0 0 .11.063.12.12 0 0 1 .036.024.65.65 0 0 0 .22.11h-.186v.068h.555v-.043a.583.583 0 0 0 .366-.385c0-.024.01-.025.026 0s.026.031.08.021.105-.017.165-.023c.11-.012.122-.022.158-.11.01-.026.052-.131.064-.166.052-.063.044-.083-.02-.101m-.864-1.24a.9.9 0 0 0-.144.061.14.14 0 0 0-.026.013.14.14 0 0 1 .026-.013.9.9 0 0 1 .142-.061.044.044 0 0 0 .017-.009l.039-.018-.013.009a.09.09 0 0 1-.041.018m.254.269.043.034Zm-5.575.96s0-.013-.007-.055c0-.016 0-.024.012-.018h.013a.11.11 0 0 1 0 .042c-.003.038-.008.038-.018.031m.293.412c-.061-.005-.071-.009-.045-.011a.33.33 0 0 1 .103 0c.002.012-.014.016-.058.011m5.507-1.133a.88.88 0 0 0 .201-.006l-.018-.013.02.015a.82.82 0 0 1-.201.008Zm-.249.243h.008a1.1 1.1 0 0 1 .149.085h.01a.014.014 0 0 0 .018 0v-.019l.008-.012.009-.014a.1.1 0 0 1 .022-.016c.021-.012.029-.017.031-.024v-.012l.01-.011a.08.08 0 0 0 .021-.02c0-.007.011-.013.012-.012a.044.044 0 0 0 .02-.013l.01-.015.011-.02.011-.025c0-.016.016-.044.024-.063a.15.15 0 0 1-.007.024c-.007.019-.02.048-.024.063l-.011.025-.01.02-.011.016c0 .006-.017.015-.02.013s-.006 0-.012.012a.08.08 0 0 1-.021.02l-.011.011v.017c0 .007-.009.012-.03.024s-.022.014-.022.017l-.01.014-.007.012v.019s-.01.006-.018 0h-.011l-.058-.037c-.022-.013-.03-.024-.047-.034a.6.6 0 0 1-.056-.04Zm-.602-.025h-.006l.011-.013.013-.014v.025h.005l-.012.012Zm0 .021-.009.026.008-.026Zm-.02-.22c-.282.012-.988.052-1.37.078a1.4 1.4 0 0 1-.226.009 1.3 1.3 0 0 0 .22-.009c.386-.026 1.085-.066 1.371-.078Zm0 .21-.006.014v-.011Zm-.345.391h.007a.2.2 0 0 0 .021-.032.75.75 0 0 1 .22-.219.28.28 0 0 0 .076-.066l.01-.012v.03l-.006.008a.29.29 0 0 1-.076.066.725.725 0 0 0-.22.22c-.013.019-.018.028-.023.028v-.006Zm-2.347.344.494-.02.22-.009c.265-.011.313-.013.319-.016a.022.022 0 0 1 .017 0 .9.9 0 0 0 .11 0l.195-.009.176-.007.185-.007.362-.015a1.1 1.1 0 0 0 .11-.007h.013-.07l-.427.019c-.057 0-.155 0-.22.008l-.258.01-.209.01-.171.008c-.056 0-.137 0-.179.006l-.169.008-.183.007-.22.009-.457.019h-.11.118Zm-.189-.737a1 1 0 0 1 .11-.011h.076s-.02 0-.095.01l-.076.005Zm1.429-.11.229-.014c.369-.025.716-.044.945-.055l.151-.008a.07.07 0 0 1-.024.008l-.126.008h-.01l-.146.008a1 1 0 0 0-.206.008l-.24.016a1.1 1.1 0 0 0-.118.009h-.135l-.226.014-.21.015a.18.18 0 0 1-.05.01h-.056l-.133.008c-.213.012-.37.022-.416.027a.44.44 0 0 1-.092 0l.066-.006.124-.009c.033 0 .084-.007.11-.008l.149-.011.147-.012a.8.8 0 0 0 .084-.007Zm-.168-.01v-.024.011Zm1.33-.009a.055.055 0 0 1-.024 0 .4.4 0 0 1-.097.006v-.009l.007-.007h.057a.24.24 0 0 1 .056 0Zm-.136-.011v.016a.012.012 0 0 1 0-.018Zm-1.181.511-.01.009-.01.009-.01-.012v-.088a.8.8 0 0 1 .007-.083v-.063s0 .041.006.091.007.102.009.118v.029Zm1.081-.422a.06.06 0 0 1-.019 0h-.072a.55.55 0 0 1-.095-.007.14.14 0 0 0-.052 0 1.1 1.1 0 0 1-.146 0h-.003a.21.21 0 0 1-.063 0H20.7a.2.2 0 0 1-.036-.007s-.009 0-.006-.007 0-.019 0-.019h.049a.15.15 0 0 0 .064 0 .02.02 0 0 1 .012 0 .8.8 0 0 0 .145 0 .2.2 0 0 1 .056 0 .4.4 0 0 0 .093.007h.074a.024.024 0 0 0 .017 0 .2.2 0 0 1 .039 0 .08.08 0 0 0 .031 0 .09.09 0 0 1 .048 0 .1.1 0 0 0 .036.007.066.066 0 0 1 .032 0h.017a.35.35 0 0 0 .067.011.2.2 0 0 1 .041.012.07.07 0 0 1 .026.016h.015l.011.007h.022l.012.008h.01c.009 0 .016 0 .048-.011s.042-.013.041-.01a.13.13 0 0 1-.036.023l-.026.015h-.027a.1.1 0 0 1-.015.016l-.011-.007h-.037l-.008-.006a.07.07 0 0 0-.023-.016.18.18 0 0 0-.041-.012.33.33 0 0 1-.067-.011l-.011-.007a.066.066 0 0 0-.033-.005.14.14 0 0 1-.036 0 .073.073 0 0 0-.049 0 .07.07 0 0 1-.029 0 .11.11 0 0 0-.048.001Zm.318.196c-.011.008-.012 0 0 0a1.07 1.07 0 0 1 .15-.102.22.22 0 0 0 .036-.022c.021-.009.023-.007.015.008s-.023.019-.07.042a1.2 1.2 0 0 0-.128.072Zm-.145.168a.44.44 0 0 1 .046-.069l.016-.022v-.009l.008-.008a.07.07 0 0 1 .021 0 .1.1 0 0 1 .024 0l.007.009-.008.009a.06.06 0 0 0-.02 0c-.015 0-.022 0-.026.006s-.052.07-.073.098a.033.033 0 0 1 .008-.016Zm.117-.084-.015.014-.007-.007h.011Zm.422-.264a.84.84 0 0 1 .148 0c.071.007.11.016.11.024a.3.3 0 0 0-.041 0 .2.2 0 0 1-.058 0 1.02 1.02 0 0 0-.282.028c-.032.009-.037.009-.037 0s.077-.045.16-.052m.071-.179h-.127Zm-.128.035a.12.12 0 0 0 .042 0h.102a.11.11 0 0 1 .037 0v.007c0 .007.008 0 .013 0s.056-.009.07 0-.015.029-.026.029c-.007 0-.018.009-.013.012s0 .031-.01.031h-.011.007-.009s-.01.005-.033.005-.049 0-.041.009h.009a.05.05 0 0 1 .026 0c.046 0 .062.013.019.013h-.024a.044.044 0 0 1-.024 0h-.031a.026.026 0 0 1-.015 0 .022.022 0 0 0-.014-.005.016.016 0 0 1-.017-.029q0-.009-.021-.009a.042.042 0 0 1-.039-.026h-.008v-.01a.02.02 0 0 1 .014-.027Zm-.041-.177h-.273.151a.5.5 0 0 1 .082 0 .2.2 0 0 1 .031.009c.009 0 .015.008.015.015s0 0-.01.008a.11.11 0 0 1-.036.011.2.2 0 0 0-.033.006.55.55 0 0 1-.094.016h-.027l-.125.01a.05.05 0 0 0-.026 0 .4.4 0 0 1-.057 0h-.089a.3.3 0 0 1-.044 0 .08.08 0 0 0-.023 0h-.082a.3.3 0 0 0-.076 0c-.008 0-.077 0-.284.006h-.148c-.08 0-.26.007-.439 0-.083 0-.08 0-.08-.032 0-.015-.008-.024.02-.029s.146-.011.44-.025l.159-.007h.024l.211-.008h.021c.266-.01.363-.014.33-.015l-.245.007.329-.011h.015c.13 0 .237-.007.285-.007h.072Zm-.502-.424.027.018c.243.186.338.261.439.351.016.015.027.025.026.031s-.011-.016-.026-.03c-.101-.091-.194-.166-.439-.351Zl-.017-.015Zm-1.57-.051.064-.006h.028-.017c.063-.007.137-.013.22-.018h.056l-.155.01c-.078 0-.151.011-.211.017Zm-.132.028h.008a.07.07 0 0 1-.019 0Zm-.968.459-.009.006Zm-.095.094v-.008c0-.009.012-.008.017-.014a.2.2 0 0 0-.02.022.9.9 0 0 1 .085-.066h-.02a.88.88 0 0 1 .163-.127.8.8 0 0 0 .057-.036l.032-.02.019-.012c.018-.012.042-.025.063-.037l.017-.01.036-.02.026-.016.037-.02.029-.017.026-.013.028-.014c.016-.009.029-.015.053-.026s.041-.018.064-.028.068-.029.102-.042l.065-.023.038-.011.041-.01-.03.009a2.2 2.2 0 0 0-.305.122 3.7 3.7 0 0 0-.306.17l-.019.012-.031.02-.058.036-.012.011a.22.22 0 0 1 .045-.028.2.2 0 0 1 .056-.021c.02 0 .026 0 .026-.009v-.012c0-.012.023-.028.129-.085a.4.4 0 0 1 .074-.037.33.33 0 0 1-.046.032.26.26 0 0 0-.046.031s.087-.041.203-.101a1.57 1.57 0 0 1 .735-.189h.226l-.015.1-.045.406h.06l.023-.192.013-.097.028-.236h.023v.013l-.05.53h.067l.03-.507s.029 0 .042-.006h.356c.147 0 .297 0 .345.006a.8.8 0 0 1 .086.008h.025a.2.2 0 0 1 .024.015.9.9 0 0 1 .12.096l.163.15.021.011h.057a.24.24 0 0 0 .056 0 1 1 0 0 1 .207.166l.006.008a1.3 1.3 0 0 1-.201.013c-.22.007-.748.026-.879.032l-.21.009-.235.011-.148.007h-.077a.4.4 0 0 1 .072.006v.009a.12.12 0 0 1-.019.048.84.84 0 0 0-.181 0c-.049 0-.154.008-.208 0a.04.04 0 0 0-.016 0 .08.08 0 0 1-.032 0h-.17a1 1 0 0 0-.11 0 .4.4 0 0 1-.063 0 .55.55 0 0 0-.082.007.1.1 0 0 1-.029 0 .3.3 0 0 0-.044 0 .176.176 0 0 1-.097 0c-.051-.012-.063-.017-.056-.023h.027-.032a.4.4 0 0 1-.089 0 .015.015 0 0 0-.016 0 .2.2 0 0 1-.043.006c-.012 0-.009.006-.019.008a.08.08 0 0 0 .018.012.19.19 0 0 1 .057.047.44.44 0 0 0 .068.062.5.5 0 0 1-.069-.057.18.18 0 0 0-.056-.048c-.012-.006-.018-.01-.019-.013-.024 0-.05.01-.052.021s0 .017.018.03c.014.014.022.026.021.032s0 0-.02 0a.5.5 0 0 1-.07-.056h-.008a.2.2 0 0 0 .007-.024.58.58 0 0 0-.152 0 .055.055 0 0 1-.027 0c-.006 0 0-.014.003-.023Zm.066.051a.33.33 0 0 1-.056.015c-.009 0-.007-.011 0-.015s.064-.006.059 0Zm-.066 0a.033.033 0 0 0-.012.015Zm-.22.011a.22.22 0 0 1 .066-.01h.12c0 .008-.015.029-.03.033l-.023.008a.44.44 0 0 1-.075.014c-.02 0-.028 0-.028.01s0 0-.022 0a.055.055 0 0 0-.03.011.26.26 0 0 1-.063.027.1.1 0 0 0-.024.013l-.023.014-.04.022a.2.2 0 0 1-.031.016.09.09 0 0 0-.025.014.055.055 0 0 1-.024.015.08.08 0 0 0-.022.017c-.013.013-.016.016-.025.013s-.021-.007.02-.034l.056-.039.078-.055.09-.063a.2.2 0 0 1 .061-.032Zm.146.649v.009a.1.1 0 0 1 0 .017l-.007-.021Zm-.01-.422-.006.017a.03.03 0 0 1-.025.016.44.44 0 0 0-.085.035h-.015a.047.047 0 0 0-.022.013l-.02.017-.01.011-.014.011-.008.009h-.023l-.008-.009q-.028-.027-.026-.03l.014.009a.15.15 0 0 0 .026.016h.023l.009-.009.013-.011.01-.011.021-.019a.055.055 0 0 1 .022-.011h.014a.35.35 0 0 1 .087-.035.035.035 0 0 0 .03-.024Zm-.704-.117a.1.1 0 0 0 .025-.009l.085-.024a1.03 1.03 0 0 0 .162-.05h.01a.7.7 0 0 1 .116-.019h.107l-.01.007s-.033.024-.063.044-.13.086-.209.142l-.018.013-.047-.01a1.4 1.4 0 0 0-.153-.021c-.045 0-.051 0-.051-.014a.02.02 0 0 0-.007-.012c-.005-.025.014-.04.059-.053Zm-.59.302a.3.3 0 0 1 .026-.025l.028-.02c.022-.019.057-.044.077-.058l.019-.015a.2.2 0 0 1 .034-.006h.012l-.008.007a.17.17 0 0 1-.028.021c-.02.015-.056.04-.077.059-.043.035-.056.04-.074.04Zm.52.021.069.006a.49.49 0 0 1 .199.05c.027.012.034.011.035.009s0 .01-.035 0a.53.53 0 0 0-.2-.051.5.5 0 0 1-.07 0h-.012Zm-.033.439a.05.05 0 0 0 .017.016l.01.008v.016h-.009a.06.06 0 0 0-.011-.017l-.056-.058a.44.44 0 0 1-.044-.049l-.024-.028s0-.005-.012-.01l-.009-.01c-.012-.012-.023-.025-.035-.039a.3.3 0 0 0-.031-.034.014.014 0 0 1 0 .013.26.26 0 0 1 .029.032l.016.016.02.003h-.01a.11.11 0 0 1-.044.007.22.22 0 0 0-.052.007h.015-.023a.14.14 0 0 1 .029 0 .4.4 0 0 0 .054 0 .4.4 0 0 0 .051-.007l-.007.007c-.006.006-.01 0 0 0s.023.006.068.056l.019.02v.008l.024.027h.009v.011l-.022.006a.33.33 0 0 1-.057.017v-.024.033a.6.6 0 0 0 .057-.02l.022-.008c.009 0 0-.007 0-.013l.007.014v.01c0 .007-.019.012-.086.031l-.054.037c-.028.009-.038.008-.045 0l-.024.009a.44.44 0 0 1-.079.024v-.009s.012-.007.04-.016.037-.012.04-.018-.009-.018-.034-.036l-.037-.027a.09.09 0 0 0-.025-.015.28.28 0 0 0 .045.041c.03.023.043.032.043.039s-.013.009-.04.017l-.025.01c.014 0 .008-.015.029-.021s.025-.006.021-.012a.1.1 0 0 0-.02-.015l-.042-.032-.027-.021h-.007v-.017c0-.004.015.008.017 0-.007.007-.011.009-.009 0l.007-.005v-.025a.14.14 0 0 1 .011-.031l.006-.011v-.01a.19.19 0 0 0-.027.084.11.11 0 0 1 .006-.066c.015-.031.021-.033.118-.041.028 0 .032 0 .016-.021l-.008-.01-.009-.01-.017-.024-.006-.012v-.024c0-.007.018-.009.068.048.083.098.115.132.125.132a.03.03 0 0 1 .022.009v.006a.037.037 0 0 0 .012.022Zm-.283.139c-.01.006-.025 0-.023 0h.025Zm-.036-.119v.021a.027.027 0 0 1 0-.019Zm.103-.292a.36.36 0 0 0-.088.11.39.39 0 0 1 .093-.121.022.022 0 0 0 .009-.013s.008.003-.007.014Zm-.124.148a.3.3 0 0 1-.01.032.1.1 0 0 1-.02.037c-.013.016-.016.028-.006.037v.019a.1.1 0 0 0 0 .031v.014a.066.066 0 0 1 0-.035v-.021h-.006c-.009-.008-.006-.019.007-.036a.1.1 0 0 0 .021-.037.11.11 0 0 1 .009-.032.07.07 0 0 0 0-.022.062.062 0 0 1 .023-.047c.007 0 .008-.007.008-.02a.06.06 0 0 1 0-.019l.007-.013a.17.17 0 0 1 .044-.067.154.154 0 0 0-.037.057.02.02 0 0 1-.007.014.033.033 0 0 0 0 .018c0 .014 0 .017-.009.021a.059.059 0 0 0-.023.046.1.1 0 0 1 .006.013Zm.737.357c-.033-.013-.052-.018-.052-.007a.4.4 0 0 0 .019.072c0 .006-.008.011-.007.017a.3.3 0 0 0-.014-.048.3.3 0 0 1-.015-.06c0-.011.015 0 .047.006a.12.12 0 0 0 .043.011h.011c-.003-.005-.006.006-.025-.001Zm-.068.012v.011-.008l-.006-.022v-.014.011Zm.143-.122a.033.033 0 0 0-.012.02.1.1 0 0 1-.009.027c-.009.018-.009.018 0 .026s0 .008 0 .01l-.012-.007-.021-.008-.093-.031a.4.4 0 0 0 .062.022c.053.016.066.022.062.029h.005-.017.008-.01a.03.03 0 0 0-.017 0 .15.15 0 0 1-.045-.011c-.032-.011-.045-.013-.049-.006v-.009c0-.007.017 0 .05.006a.2.2 0 0 0 .044.011.025.025 0 0 1 .018 0h.009c0-.007-.009-.013-.062-.029l-.047-.017a.3.3 0 0 0-.052-.021.8.8 0 0 1-.069-.025l-.022-.008h-.021a.035.035 0 0 0-.03 0 .055.055 0 0 0-.007.03v.061-.061c0-.006.008 0 .01 0a.036.036 0 0 1 .025-.006c.012 0 0-.009.015 0l.069.028c.043.016.058.022.058.032a.3.3 0 0 0 .014.049l.016.055v.015l.009.01a.076.076 0 0 1-.042.081c-.028.02-.037.017-.109-.028l-.03-.017c.008 0 .011-.007.035.01s.031.016.038.017l-.022-.011c-.014-.01-.023-.017-.019-.016h.011l.013.011.019.011.011.006s0-.01-.02-.018l-.057-.034a.22.22 0 0 0-.038-.02c-.006 0-.011 0-.013-.012v.018c0 .016 0 .055.006.086 0 .058 0 .066.017.062v-.033h.03s0 .006-.021.014-.03.025-.023.032a.5.5 0 0 0 .09-.025c.022-.009.033-.01.034-.007s-.013.014-.044.029a.356.356 0 0 1-.186.016h-.034c-.011 0-.021 0-.032-.008h-.016.022c-.011 0-.024 0-.035-.01a.44.44 0 0 1-.075-.054l-.031-.019a.8.8 0 0 1-.05-.043.1.1 0 0 0-.029-.024l.007.011.018.021c-.008-.01-.023-.011-.031-.021a.36.36 0 0 1-.071-.138c-.005-.023 0-.025.008-.015a.1.1 0 0 1 .016.032l.008.015h.024c0-.005.012-.011.051-.026l.08-.045c.008-.006.01-.011-.005-.011s-.011 0-.015-.02a.04.04 0 0 0 0-.019.9.9 0 0 0-.1.033c-.037.015-.05.016-.056 0l.01-.006v.011a.13.13 0 0 0 .03-.008c.065-.025.125-.047.164-.058l.078-.024.037-.012a.09.09 0 0 1-.031.015l-.073.023c-.006 0-.007.006 0 .008s0 .012 0 .032-.008.019.008.015l.09-.04c.007 0 .007 0 0-.009-.008-.009-.007-.019 0-.022s.011 0 .016.006v.009h.026v.029a.06.06 0 0 0 0 .027h.006c-.003 0 0-.025.008-.026s.014 0 .008-.016.018-.019.046-.013.032 0 .029 0h-.009l-.011-.008v-.023h-.01l-.012-.01v-.007h-.008a.024.024 0 0 1-.014-.009s0-.009.016-.009h.015-.006a.024.024 0 0 1 0-.018c0-.007.018-.006.022 0s.011.006.016 0 0-.009 0-.013c-.007-.006 0-.009.009 0s.014 0 .04-.036l.042-.059c.056-.076.077-.11.072-.127-.01-.012-.039-.027-.045-.023a1.4 1.4 0 0 0-.109.186c-.049.1-.063.118-.084.11l-.012-.007-.007.008c0 .007-.012.007-.016 0v-.012c0-.008 0-.01.008-.011s.011 0 0-.016l-.014-.016-.009-.01-.014-.017a.22.22 0 0 0-.027-.041c-.016-.021-.037-.049-.047-.066s-.031-.043-.044-.06-.03-.046-.018-.053.011 0 .017 0h.02c.008 0 .015.008.028.028a.1.1 0 0 0 .026.031l.018-.058.013-.038.01-.015a.44.44 0 0 0-.154.032c-.02.012-.032.014-.033.009s0-.01.011-.019a.03.03 0 0 0-.021.008l-.006.009s0-.01.013-.018.017-.009.02-.008v.007l-.01.018s.013 0 .033-.009a.44.44 0 0 1 .154-.032l.007-.012a.22.22 0 0 1 .067 0c.02 0 .039-.015.06-.012a.48.48 0 0 1 .159.055l.026.018c.016.013.027.027.041.04-.012-.012-.022-.025-.035-.036a.15.15 0 0 1-.027-.018.5.5 0 0 0-.159-.056c-.021 0-.039.013-.06.013a.2.2 0 0 1 .035 0l.036.007a.25.25 0 0 1 .045.016.3.3 0 0 1 .054.019h.007a.22.22 0 0 1-.03.049l-.04.064a.11.11 0 0 1-.016.028s.009 0 .021-.027.023-.038.039-.063a.19.19 0 0 0 .029-.05h.011a.03.03 0 0 0 .014.011.37.37 0 0 1 .065.043v.013a.03.03 0 0 0-.007.014.14.14 0 0 1-.023.04.13.13 0 0 0-.021.033l.021.007a.6.6 0 0 1 .054 0c.036 0 .052 0 .058.011a.08.08 0 0 1 .012.025c.016.037 0 .045 0 .064v.022l-.029.021-.051.043-.01.01-.006.008-.009.009h-.048l.047.01c.006 0 .008 0 .006.006a.22.22 0 0 1-.052-.009.8.8 0 0 1-.101-.027.15.15 0 0 1 .029 0l.066.014a.6.6 0 0 0-.066-.015c-.027-.007-.024-.012-.034-.018l-.018-.01h-.01a.15.15 0 0 1 .025-.046.3.3 0 0 0 .025-.044l-.014.017a.28.28 0 0 0-.051.083.018.018 0 0 0 .011.017 2 2 0 0 0 .21.05.33.33 0 0 1 .056.015.046.046 0 0 0 .03 0h.011c0-.006.011 0 .013 0v.009s.009-.038.006-.033Zm-.226.016.063.022Zm.058.033a.25.25 0 0 0-.037-.018h-.022l-.027-.011h-.007l-.02-.009c-.006 0 0 0 0 0l.013.007h.007l.027.011.022.009c.041-.012.046-.006.05.001Zm-.162.146a.019.019 0 0 1 .021 0v.008c.002-.021-.009-.02-.014-.018Zm.007.069-.007-.033a.14.14 0 0 1 0-.037.13.13 0 0 0 0 .036Zm0-.032h.013a.1.1 0 0 0 0 .036c0-.013-.01-.026-.013-.039Zm.01-.025h-.007Zm-.076-.269c-.016 0-.018 0-.016-.009 0-.006 0-.014.013-.014a.03.03 0 0 0 .015 0h.016v.015a.024.024 0 0 1-.022.014.041.041 0 0 1-.042 0h.016s0 .007.018.008 0 0 .009 0Zm.043.013c0-.007 0-.011.008-.011v.008c.007-.008.001-.004-.002-.007Zm.23-.427a.12.12 0 0 0 .034.024.13.13 0 0 1-.028-.032Zm-.032.168c-.012.016-.019.025-.018.029v-.007Zm.11.263c.007 0 .011 0 .014-.01s0-.013.008-.008v.012a.07.07 0 0 0 .011.026.014.014 0 0 1-.013-.006s-.015-.009-.041-.015-.046-.01-.045-.017.014-.02.044-.045a.15.15 0 0 0 .035-.037v.021a.28.28 0 0 0-.065.06.3.3 0 0 0 .056.009Zm.013.01h-.008Zm-.079-.027v-.016.02Zm-.207-.022h-.005v-.008Zm.323-.158-.01-.009-.013-.016-.01-.015a.33.33 0 0 0-.037-.056c-.01-.012-.022-.022-.033-.033a.4.4 0 0 1 .029.031.23.23 0 0 1 .038.055l.011.015.013.015.01.01a.11.11 0 0 1 .016.049.11.11 0 0 0-.01-.056Zm-.065-.185s-.017-.012-.017-.015l.022.005Zm.01.008v.007Zm.073.227a.28.28 0 0 0 .018.058.22.22 0 0 1-.017-.052Zm.034.254c-.009 0 0 0-.009-.007a.12.12 0 0 1-.02-.061.11.11 0 0 0 .018.056l.01.008a.22.22 0 0 0 .024-.066c.011.001-.01.06-.019.06Zm.041-.157c0 .033-.009.047-.015.042l-.006-.013v-.015h-.02c-.008-.009-.011.028 0 .051-.009-.021 0-.062 0-.055h.02l.006.015v.012c.007.007.012-.008.015-.042a.1.1 0 0 0 0-.03.1.1 0 0 1 .005.025Zm-.176-.477a.593.593 0 0 1 .254.339.597.597 0 0 0-.245-.349Zm.258.167a.7.7 0 0 1-.061-.065.71.71 0 0 0-.196-.15c-.014-.008-.024-.022-.038-.029l-.007-.007h-.015a.721.721 0 0 0-.637.052l-.036.007a1 1 0 0 0-.07.039h-.01v-.01a.52.52 0 0 1 .145-.13.52.52 0 0 0-.135.122l-.007.009h.01a1 1 0 0 1 .07-.038l.028-.015a.74.74 0 0 1 .3-.098c-.033 0-.065-.017-.098-.012-.11.014-.12.012-.067-.013a.68.68 0 0 1 .196-.057.88.88 0 0 1 .187.008.44.44 0 0 1 .084.018l.033.009a.71.71 0 0 1 .2.126.1.1 0 0 0 .019.021.66.66 0 0 1 .084.1.044.044 0 0 1-.018-.01.66.66 0 0 0-.093-.064l-.065-.036a1.1 1.1 0 0 0-.098-.037c.014.006.024.02.038.028a.69.69 0 0 1 .195.151c.022.024.05.055.062.064l.056.056.016.017v.008a.05.05 0 0 1 0 .022l-.015-.014-.017-.015c.003-.026-.024-.056-.036-.067Zm.032.359a.17.17 0 0 1-.008-.051c0-.015 0-.028-.007-.042 0 .015.01.029.011.045a.13.13 0 0 0 0 .043Zm.082.177h.009c-.07 0-.09 0-.09-.006s0-.008.047-.009a.2.2 0 0 0 .04 0c.005-.007.069 0 .069.007s-.005-.004-.071-.002Zm.085-.168a.055.055 0 0 0-.028 0 .44.44 0 0 1-.076 0c-.04 0-.056 0-.062-.009h.061c.057 0 .071 0 .074-.018a.26.26 0 0 0 0-.042c0-.055-.008-.155-.007-.172a.9.9 0 0 1 .01.11c.007.11.011.127.031.128Zm-.008-.749v-.103l.007-.025v.117a.08.08 0 0 0 .03-.007c.079-.021.095-.027.11-.043l.014-.011c.015 0 .063-.047.085-.077a.275.275 0 0 1-.093.088.06.06 0 0 0-.016.011c-.014.016-.029.022-.11.043a.08.08 0 0 1-.027-.003Zm2.571.945h.007-.012.219a.015.015 0 0 1 .017 0 1.65 1.65 0 0 1-.227-.01Zm.302-.233a.47.47 0 0 0-.008.11h.007c0 .069.008.063-.077.063-.11 0-.162-.006-.116-.013s.028-.009-.007-.009-.05 0-.048.011-.015.012-.036.015a.044.044 0 0 1-.019 0h-.35c-.517.006-.969.011-1.945.019a1.36 1.36 0 0 1-.251 0c-.01-.012 0-.012.307-.014h2.07c.169 0 .185 0 .186-.014a.11.11 0 0 1 .045-.05c.032-.027.062-.056.091-.085l.057-.056h.005l.012-.01a.21.21 0 0 1 .078 0s.008-.02.004.023Zm.196-.187a.25.25 0 0 0-.038.11.08.08 0 0 1-.012.021.075.075 0 0 0-.013.074v.009c.007.006.012 0 .022-.013s.012-.014.014-.011a.08.08 0 0 1-.011.055c-.013.031-.026.041-.033.028a.044.044 0 0 1 0-.019v-.01a.06.06 0 0 1 0-.017v-.015a.11.11 0 0 1-.007-.042.49.49 0 0 1 .032-.192.66.66 0 0 1 .046-.09l.012-.021a.66.66 0 0 1 .117-.118l.027-.017a.5.5 0 0 1 .096-.044l.022-.008a.4.4 0 0 1 .118-.023.44.44 0 0 1 .078 0h.097c.024.007.036.028.056.037a.37.37 0 0 0-.074-.027l-.035-.009a.84.84 0 0 0-.127-.006l-.039.006a.21.21 0 0 0-.069.016l-.02.006a.55.55 0 0 0-.094.045l-.015.009a.55.55 0 0 0-.09.079l-.01.012a.13.13 0 0 0-.027.039l-.016.023a.04.04 0 0 0-.008.019v.007a.4.4 0 0 0 .029-.033.3.3 0 0 1 .044-.045.8.8 0 0 0 .054-.044.15.15 0 0 1 .045-.033.055.055 0 0 0 .023-.009.55.55 0 0 1 .069-.028c-.012 0-.027 0-.039.009-.034.014-.057.018-.057.012a.1.1 0 0 1 .039-.027h.011a.09.09 0 0 1 .045-.019h.01a.19.19 0 0 1 .085-.029h.043a.6.6 0 0 1 .1 0h.026v.009h-.076c-.014 0-.028.009-.043.009h.033a.303.303 0 0 1 .175.038c.017.016.018.016.028.009a.04.04 0 0 1 .019 0h.006a.46.46 0 0 1 .134.085l.015.02.023.038c.009.012.009.016 0 .016s-.011.007 0 .017.008.026 0 .026a.026.026 0 0 1-.016-.01v-.008l-.009-.015a.013.013 0 0 1-.005-.018h.005l.007-.007v-.009c-.007-.007-.008-.007-.008 0s-.012.013-.03 0-.031-.032-.047-.032-.019 0-.035-.015l-.038-.026-.031-.022a.07.07 0 0 0-.026-.013.09.09 0 0 1-.028 0 .9.9 0 0 0-.091 0h.007l.008.016a.3.3 0 0 0 .016.044.26.26 0 0 0 .024.059c.006.008.013 0 .029-.031.038-.061.04-.064.065-.048l.008.006c.009.01 0 .026-.044.092l-.06.09c.011-.017.024-.035.03-.048s.032-.051.045-.07a.11.11 0 0 0 .024-.041l-.006-.008c-.01 0-.01 0-.015.006s0 .01-.008.009-.015.009-.038.047-.028.046-.066-.058a.07.07 0 0 0-.012-.025.22.22 0 0 0 .019.055l.024.063a.055.055 0 0 0 .011.02v.009a.4.4 0 0 1-.05.09l-.043.068h-.009c-.02 0-.018.006-.068-.078-.042-.071-.042-.087-.042-.098v-.008s.012-.033.037-.11a.07.07 0 0 0 0-.028s-.008.011-.014.023l-.006.017a.44.44 0 0 1-.027.075c-.006 0-.011 0-.034-.034a.17.17 0 0 0-.033-.041c-.006 0-.011-.01-.011-.013a.018.018 0 0 0-.021 0v.006c0 .008 0 .019.026.043s.049.07.126.184a.4.4 0 0 0 .052.067h-.008s-.037-.055-.077-.11c-.056-.082-.097-.143-.118-.166l-.014-.013-.017.011-.021.013c-.014 0 0 .033.051.092l.023.029.023.027.031.039.024.03.007.008.013.015.009.013h.033c.004 0 0 .016-.009.017s-.008 0 0 .016a.02.02 0 0 1 0 .029 1.4 1.4 0 0 0-.124-.161 2 2 0 0 1-.067-.083c-.028-.038-.033-.041-.045-.029v.013l.01.014a.3.3 0 0 0 .031.041c.018.021.028.032.027.038s-.021.009-.068.01-.057 0-.061.008a1.3 1.3 0 0 0 .147-.008c.008 0 .019.007.076.075s.058.074.046.082h.016l.006.007h-.011c-.009 0-.035.011-.052.016s-.031 0-.053.009l.041-.012.031-.011-.038.011-.082.022c-.031.01-.04.012-.041.009s-.019-.015-.027-.022l.008.011c0 .007-.017.012-.056.022a.08.08 0 0 0-.02.01c.012-.007 0-.016.023-.021s.038-.01.03-.02a.22.22 0 0 0-.034-.026.33.33 0 0 1-.056-.047c-.016-.018-.011-.034 0-.08s.013-.044.033-.047a.55.55 0 0 1 .095-.009c.032 0 .035 0 .014-.025l-.01-.012-.025-.019c-.016-.02-.022-.03-.022-.035s.02-.031.026-.031a.05.05 0 0 0 .017-.013.18.18 0 0 1 .031-.025l.021-.017a.44.44 0 0 0-.074.037.9.9 0 0 0-.083.09c0 .007-.012.015-.016.01s-.026.007-.026.025a.07.07 0 0 1-.013.024Zm.159-.237a.24.24 0 0 1-.037.029c-.009 0 0-.01.008-.018a.046.046 0 0 1 .025-.015v.008Zm-.046.035-.008.007h-.007v-.009Zm.747.161v.007a.009.009 0 0 1 0 .012s-.009 0-.013-.008v-.011c.002-.016.009-.016.017-.01Zm-.313-.036v-.007Zm-.086.174.013-.021c.009-.011.021-.031.033-.049v.007Zm.022.025s0 .008-.009.009h-.005v-.025h.011Zm-.013.45c0 .026 0 .037.011.038h-.076v-.1a.06.06 0 0 0 .031.005h.03v.022a.13.13 0 0 0 .008.025Zm0-.239v.055Zm-.067.177V18.3v.017c0 .01.008 0 .016 0h.011l-.015.007c-.015.006-.005-.006-.005-.003Zm.027-.298a.04.04 0 0 0-.017 0 .012.012 0 0 1-.014 0 .019.019 0 0 1-.007-.024h.008a.11.11 0 0 1 .057 0 .021.021 0 0 1 0 .02c.003-.009-.01-.004-.02-.009Zm-.035-.058h.016-.007Zm-.072-.221v.026l-.009-.01c-.008-.007-.01-.013-.009-.015h.009v-.011h.007Zm-.035-.051h-.014c0 .008-.04-.041-.041-.054s.008 0 .011 0a.016.016 0 0 0 .013.011.019.019 0 0 1 .013.013l.011.016Zm.07.208s0 .01-.007.01l.008-.008Zm0 .133a.013.013 0 0 1-.011.012h-.009v-.03h.014Zm-.146 0 .029-.006h-.012a.09.09 0 0 1-.028 0h-.011.011l.028-.011-.02.008-.01.007Zm-.163.163c0-.016 0-.02.071-.049s.086-.036.056-.033h-.022l-.008-.012a.07.07 0 0 1-.007-.021s0-.007-.009-.007a.4.4 0 0 0-.05.015c-.047.016-.057.018-.065.008s.016-.009.016-.015.007.011.039 0a.7.7 0 0 1 .123-.037c.051-.011.086-.022.115-.031l-.045.015c-.008 0-.006.011-.006.023s0 .018-.012.025-.026.017-.019.017h.025l.06-.026c.061-.026.085-.033.094-.022a.036.036 0 0 1 0 .018v.218-.037a.1.1 0 0 1 0-.02v.018-.036h.007v-.141c-.008 0-.023 0-.11.038a7 7 0 0 1-.22.087.012.012 0 0 0-.008.011.013.013 0 0 0 0 .012h.013a.02.02 0 0 1 .013 0 .22.22 0 0 0 .045-.014c.025-.01.021 0 .029 0-.076.03-.1.037-.109.028Zm.145.193a.25.25 0 0 1-.032-.028c-.005-.006-.007-.011 0-.008s.021.006.016 0l-.009-.009-.012-.012v-.033a.6.6 0 0 1 .014-.06.15.15 0 0 0 .011-.054s.016-.006.016 0a.04.04 0 0 1 0 .018v.02a.26.26 0 0 0 .018-.064c0-.015 0-.018.032-.03l.082-.038c.037-.017.052-.024.062-.022s.009 0 .009.009v-.018.23a.15.15 0 0 1 0 .045v.079h.006-.027a.24.24 0 0 1-.048 0 .22.22 0 0 0-.048 0h-.008l.013.008a.44.44 0 0 1-.088-.046Zm.095.044h.007a.4.4 0 0 0 .134 0h.02a.35.35 0 0 0 .084 0h.02l.041-.014a.38.38 0 0 0 .179-.121.423.423 0 0 1-.479.122Zm.219-.094a.2.2 0 0 1 0-.038c0-.013.007-.015.017-.009a.55.55 0 0 1 .083.055.025.025 0 0 0 .017.008h.037a.2.2 0 0 1-.035.02l-.016.01a.33.33 0 0 1-.051.018c-.01 0-.008.007-.013.01l-.039.007h.007v-.027a.23.23 0 0 1 .004-.067Zm0-.052h.006Zm.28-.007a.11.11 0 0 0-.029.028c-.021.02-.049.024-.073.04.025-.02.043-.037.043-.043s-.018 0-.056.026-.041.023-.065.006a.2.2 0 0 0-.034-.02.29.29 0 0 1-.069-.05l-.003-.021v.04a.26.26 0 0 0 .005.051.18.18 0 0 1 0 .072.165.165 0 0 0-.005-.066.24.24 0 0 1 0-.056 1.4 1.4 0 0 0-.013-.152v-.028a.07.07 0 0 1 0-.038c0-.006.008-.009.019-.006h.008a.1.1 0 0 0 0 .015c0-.01 0-.011.009-.015h.014v-.009a.012.012 0 0 0-.013.007h-.008c-.015-.007-.014 0-.019 0s-.014.021-.017.019 0-.009 0-.014a.2.2 0 0 0 0 .05v.065c0-.035-.006-.07-.013-.11v-.014c0-.008.009-.024.03-.023s.018 0 .018 0v-.007h.011v-.001a.1.1 0 0 0 .026.012c.012.007.018.011.018.014h-.037a.3.3 0 0 1 .068.02c.035.014.066.024.068.024a.048.048 0 0 1 .034.025c0 .02.009.023.017.016s.008 0 .047.009a.33.33 0 0 0 .054.015h.008l.009-.005a.12.12 0 0 1 0 .034h.007a.4.4 0 0 1-.054.076Zm0-.127h.017a.014.014 0 0 1-.013 0Zm.051.012.009-.012v-.003Zm-.035-.078a9 9 0 0 0-.226-.061c-.067-.016-.098-.026-.11-.038s0-.021.017-.039.023-.029.019-.035 0-.009.009-.006a.64.64 0 0 0 .155-.184.22.22 0 0 1 .026-.036c.009-.008.014 0 .023 0l.007.007c.011.013 0 .031-.033.075-.014.018-.021.027-.018.031s.021 0 .054 0a.3.3 0 0 1 .062 0h.011a.014.014 0 0 1 .011 0 .25.25 0 0 1 .036.088v.016l-.016.016a.55.55 0 0 1-.057.047c-.023.019-.035.03-.032.035s.013 0 .031.01a.14.14 0 0 1 .072.031.021.021 0 0 1 0 .022c.006.015 0 .016-.032.006Zm.081-.127a.1.1 0 0 1-.018-.04.3.3 0 0 0-.011-.045l-.008-.029v.012s0 .013.008.023a.11.11 0 0 0 .018.04l.011.011.01.011a.03.03 0 0 1 .01.021c.018.004.002-.003-.011-.018Zm.02-.329-.009-.011-.01-.033a.616.616 0 0 0-1.062.287h.005c0 .028-.011.038-.025.04h-.045a.17.17 0 0 0-.044.011c-.012.008-.044.011-.046 0v-.007h.012s.009.008.023 0a.55.55 0 0 1 .084-.021c.016 0 .018-.007.026-.042a.66.66 0 0 1 .235-.366c.017-.012.033-.027.04-.033s.012-.011.016-.01a.18.18 0 0 0 .051-.018.63.63 0 0 1 .744.142l.031.036s-.013.014-.017.009Zm.015-.11h-.01a.12.12 0 0 1-.028-.019.7.7 0 0 0-.16-.101.725.725 0 0 0-.561-.017.13.13 0 0 1-.028.011v-.024a.13.13 0 0 0 .026-.009.722.722 0 0 1 .724.119.14.14 0 0 0 .024.018h.024l.02.01h.026v.015c0 .014 0 .018-.026.008l-.023-.011Zm-4.827-.179a.725.725 0 0 1 .329.043.81.81 0 0 0-.329-.043m.28.661-.005-.001Zm.043.505h.559v.06h-.559Zm.652-.008h.56v.067h-.56Zm.686.005h.559v.06h-.559Zm.653-.003h.559v.061h-.559Zm-10.213-1.54v1.342h.533v-1.342Zm.413 1.208H9.86v-1.062h.286Zm.833-5.758-.012-2.327H9.624l.011 2.327Zm-.09-1.571h-.025v-.026H9.737v.026h-.015a.33.33 0 0 1 0-.14h.015v.025h1.129v-.025h.023a.33.33 0 0 1 0 .14m-1.175-.69h1.175v.502H9.711Zm-7.879 8.442h1.969v-1.86H1.835Zm1.355-1.676h.51v.176h-.51Zm0 .259h.51v.134h-.51Zm0 .22h.51v.131h-.51Zm0 .219h.51v.134h-.51Zm0 .22h.51v.134h-.51Zm0 .22h.51v.132h-.51Zm0 .22h.51v.147h-.51Zm-.622-1.358h.509v.176h-.509Zm0 .259h.509v.134h-.509Zm0 .22h.509v.131h-.509Zm0 .219h.509v.134h-.509Zm0 .22h.509v.134h-.509Zm0 .22h.509v.132h-.509Zm0 .22h.509v.147h-.509Zm-.629-1.358h.511v.176h-.511Zm0 .259h.511v.134h-.511Zm0 .22h.511v.131h-.511Zm0 .219h.511v.134h-.511Zm0 .22h.511v.134h-.511Zm0 .22h.511v.132h-.511Zm0 .22h.511v.147h-.511Zm12.528-1.494h.472v-.793h-.47Zm.422-.712v.616h-.381v-.616Zm-6.613-4.798h-.22v-.132a.12.12 0 0 0 .069-.109.11.11 0 0 0-.025-.071l.091-.056.01-.006a.11.11 0 0 0 .025-.132l-.063-.11a.097.097 0 0 0-.132-.034l-.374.22-.012.007a.098.098 0 0 0-.013.119l.069.124a.091.091 0 0 0 .124.033l.086-.053a.124.124 0 0 0 .061.067v.132a.093.093 0 0 0 .092.097h.22v-.013Zm-4.449 5.336v.044h.024v1.942h.08l.002-1.942h.022v-.044l-.064-.017Zm12.649 1.893v.002h.022v.064h.081v-.064h.023l-.063-.002Zm-8.354-1.893v.044h.026v1.942h.078l-.001-1.942h.026v-.044l-.065-.017Zm12.787 1.899h-.239v.067h.559v-.01h.239v-.06h-.559Zm-4.215-4.082h-.271v-3.051h.225a.093.093 0 0 0 .093-.095v-.13a.132.132 0 0 0 .06-.064l.086.052a.091.091 0 0 0 .124-.032l.069-.126a.098.098 0 0 0-.033-.131l-.373-.22a.094.094 0 0 0-.131.032l-.064.11a.102.102 0 0 0 .035.137l.091.057a.115.115 0 0 0-.025.071.12.12 0 0 0 .069.11v.128h-.225V9.921h.741l-4.81-4.528L7.54 9.927h.742v4.503h-.267v.754h.267l-.007.005v3.414h1.208v-4.384h1.648v4.388h1.231v-.01h1.219v-4.41h1.648v4.41h1.203v-3.406h.265Zm-8.509.608h-.11v-.481h.111Zm2.925-2.461H9.49V9.948h1.618Zm4.098-.012-.038.007h-1.574V9.943h1.612Zm-7.663-1.57-.185.026.161.291.118-.152Zm7.533-.946h-1.343l-.01 2.327h1.339Zm-.093.757h-.016v-.025h-1.128v.024h-.015a.33.33 0 0 1 0-.135h.015v.026h1.128v-.025h.016a.34.34 0 0 1 0 .135m.007-.187h-1.174v-.498h1.174Zm5.917 7.887h.559l-.559-.006Zm-6.914-3.09h.268v.336h-.268Zm-3.106-.79H9.71v2.041h1.179Zm-1.105.11h1.007v.353H9.78Zm1.028.489h-.021v-.014H9.78v.017h-.013a.187.187 0 0 1 0-.099h.014v.019h1.013v-.019h.013a.24.24 0 0 1 0 .099Zm-4.836 1.388v.044h.023v1.942h.08l.002-1.942h.023v-.044l-.064-.017Zm8.007-.492h.28v.503h-.28Zm-.087.66h.47v-.797h-.47Zm.036-.713h.381v.614h-.381Zm-3.569 2.242h.54v-1.342h-.54Zm.136-1.202h.28v1.063h-.28Zm3.395 1.18h.47v-1.34h-.47Zm.043-1.264h.369v1.186h-.369Zm-.041-1.146h.47v-.604h-.47Zm.049-.515h.37v.449h-.37Zm-9.962 3.236h1.969v-1.86H3.983Zm1.353-1.676h.515v.176h-.515Zm0 .259h.515v.134h-.515Zm0 .22h.515v.131h-.515Zm0 .219h.515v.134h-.515Zm0 .22h.515v.134h-.515Zm0 .22h.515v.132h-.515Zm0 .22h.515v.147h-.515Zm-.62-1.358h.509v.176h-.509Zm0 .259h.509v.134h-.509Zm0 .22h.509v.131h-.509Zm0 .219h.509v.134h-.509Zm0 .22h.509v.134h-.509Zm0 .22h.509v.132h-.509Zm0 .22h.509v.147h-.509Zm-.622-1.358h.509v.176h-.509Zm0 .259h.509v.134h-.509Zm0 .22h.509v.131h-.509Zm0 .219h.509v.134h-.509Zm0 .22h.509v.134h-.509Zm0 .22h.509v.132h-.509Zm0 .22h.509v.147h-.509Zm10.451-1.21h.291v1.083h-.291Zm-.079 1.215h.47v-1.338h-.469Zm.045-1.259h.369v1.186h-.365Zm.044-.9h.28v.501h-.28Zm.262-1.312-.308.262.006.014h.419a.45.45 0 0 0-.037-.152.66.66 0 0 0-.08-.124m-.807.001a.64.64 0 0 0-.078.124.45.45 0 0 0-.036.152h.412v-.014Zm.358.25v-.473a.45.45 0 0 0-.275.138Zm.096-.015.277-.335a.48.48 0 0 0-.277-.138Zm.094.358h.27v.336h-.27Zm-.581 1.648h.291v1.083h-.291Zm.489-1.185h.47v-.604h-.469Zm.045-.514h.368v.447h-.364Zm2.551-4.195.117.154.161-.291-.185-.028Zm-15.374 5.45v.044h.023v1.942h.081v-1.942h.023v-.044l-.063-.017Zm21.159 1.888v.003h.023v.063h.082l.001-.063h.022l-.064-.003Zm-6.237.011.56-.009.001.067-.56.009ZM1.726 15.567a.053.053 0 0 0-.045-.054c-.026 0-.036-.022-.026-.057.023-.079-.069-.33-.123-.33a.055.055 0 0 0-.043.057c0 .073-.048.074-.068 0a.212.212 0 0 1 .056-.151c.1-.132.1-.267 0-.244-.041.011-.074.011-.074 0 0-.05.091-.11.147-.115s.073-.018.062-.076a.4.4 0 0 1 .053-.314c.043-.07.054-.11.031-.14-.053-.069-.048-.1.058-.1s.11-.052.023-.135c-.032-.032-.051-.059-.032-.059.101 0 .177-.173.177-.397 0-.246-.055-.33-.13-.198-.039.06-.039.061-.039.01a.46.46 0 0 0-.017-.123c-.011-.046 0-.06.056-.06.091 0 .169-.11.11-.151-.025-.022-.027-.041-.009-.056a.61.61 0 0 0 .029-.439.27.27 0 0 1-.012-.193.275.275 0 0 0 0-.182.246.246 0 0 1-.018-.132c.036-.075-.019-.336-.076-.336-.074 0-.084.103-.036.194s.039.081-.022.024-.075-.061-.135-.008-.1.041-.1-.023a.026.026 0 0 1 .037-.023c.021 0 .032-.025.032-.067a.143.143 0 0 1 .029-.11c.031-.022.034-.042 0-.11s-.03-.085.015-.131.036-.08.018-.134-.023-.084 0-.1a.077.077 0 0 0 .015-.079c-.011-.036.011-.054.056-.054s.073-.021.073-.058a.051.051 0 0 0-.041-.056.11.11 0 0 1-.046-.019.103.103 0 0 1-.022-.145.672.672 0 0 0 .034-.489c-.035-.038-.037-.049-.008-.078s.033-.043-.011-.142-.045-.108-.005-.184a.459.459 0 0 0-.088-.44c-.045-.044-.051-.06-.014-.044.06.024.072-.06.015-.133s-.121-.056-.104.028a.087.087 0 0 1-.026.095.097.097 0 0 0-.041.078.052.052 0 0 1-.042.06.065.065 0 0 0-.056.047c-.009.029-.018.017-.018-.019s.011-.064.028-.064c.122 0 .168-.537.056-.616a.145.145 0 0 1-.056-.11.207.207 0 0 0-.064-.131c-.058-.053-.06-.062-.017-.12.055-.08.055-.099 0-.2-.038-.075-.037-.078.035-.061.094.025.087-.1-.007-.162a.094.094 0 0 1-.051-.076c.022-.084-.051-.358-.095-.358a.056.056 0 0 0-.042.068c0 .035-.011.05-.022.035a.37.37 0 0 1-.014-.158A.181.181 0 0 0 1 7.322v10.446a.1.1 0 0 1 0 .015v-.01.822l.157.008v-.073a3.1 3.1 0 0 0-.071-.37 6 6 0 0 1-.083-.372.653.653 0 0 1 .184-.423c.077-.041.075-.081.018-.153s-.013-.084.077-.011.147-.019.075-.121c-.053-.078-.038-.077.01-.077s.067-.031.081-.134a.42.42 0 0 1 .045-.157.15.15 0 0 0 .028-.093c0-.043.018-.077.043-.077a.069.069 0 0 0 .056-.033.1.1 0 0 0 .006-.035.11.11 0 0 0-.089-.124c-.048 0-.054-.008-.022-.033a.097.097 0 0 0 .027-.07.092.092 0 0 0-.097-.087c-.041 0-.075-.017-.075-.03s.042-.026.095-.015c.087.012.084 0 .078-.1s0-.121.056-.139a.11.11 0 0 0 .038-.023.094.094 0 0 0 0-.132c-.048-.041-.033-.095.03-.095a.063.063 0 0 0 .059-.059m20.491 2.94h.559v.067h-.559Zm-16.087.1h1.965v-1.86H6.13Zm1.353-1.676h.507l.008.176h-.515Zm0 .259h.507l.008.134h-.515Zm0 .22h.507l.008.131h-.515Zm0 .219h.507l.008.134h-.515Zm0 .22h.507l.008.134h-.515Zm0 .22h.507l.008.132h-.515Zm0 .22h.507l.008.147h-.515Zm-.619-1.358h.509v.176h-.509Zm0 .259h.509v.134h-.509Zm0 .22h.509v.131h-.509Zm0 .219h.509v.134h-.509Zm0 .22h.509v.134h-.509Zm0 .22h.509v.132h-.509Zm0 .22h.509v.147h-.509Zm-.624-1.358h.512v.176H6.24Zm0 .259h.512v.134H6.24Zm0 .22h.512v.131H6.24Zm0 .219h.512v.134H6.24Zm0 .22h.512v.134H6.24Zm0 .22h.512v.132H6.24Zm0 .22h.512v.147H6.24Zm15.387-.389.012.011a.7.7 0 0 0-.051-.049.18.18 0 0 0 .039.038m.348-.475a.4.4 0 0 1 .053 0 .2.2 0 0 0-.053 0m-.246.476s-.01.011 0 .015.009 0 .009-.009Zm.158.013v-.001l-.002.001Zm-.107-.431a.55.55 0 0 1 .11-.041.03.03 0 0 0 .014 0h.017a.2.2 0 0 1 .052 0 .5.5 0 0 0-.078 0 .42.42 0 0 0-.115.041m.777-.808-.004-.002.004.006Zm-.659-.297v-.009s-.004.005 0 .009m.375 1.333c-.054 0-.063 0-.062-.012a.08.08 0 0 1 .02-.033c.024-.036.032-.048.032-.055v-.01a.013.013 0 0 0 0-.021.08.08 0 0 0-.03.036.44.44 0 0 1-.064.102 1.1 1.1 0 0 0-.069.094c-.021.032-.044.062-.051.072a.08.08 0 0 0-.014.023.011.011 0 0 0 .007.012c.011.007.015.007.015 0v-.036l.031-.038a1 1 0 0 0 .052-.069c.032-.048.038-.055.048-.051a.48.48 0 0 0 .148 0c-.002-.014-.009-.014-.063-.014m-.071.007c-.011 0-.013 0-.009-.009h.008l.008.007Zm.53-.708h-.013s0 .007.013.007.012 0 .013-.007 0-.007-.012-.007Zm-.778.913s0 .007.02.009a.024.024 0 0 0 .023-.007.058.058 0 0 0-.043-.002m.789-.963a.044.044 0 0 0-.021 0v.007h.013c.012 0 .019-.006.019-.016s.001.009-.011.009m-.335-.321.013.022h.006Zm.017-.106-.022-.031.007.009Zm.003.124h-.001l.005.006Zm-.053 1.338v-.007c0-.01-.012-.016-.047-.026s-.044-.011-.043-.016a.3.3 0 0 1 .044-.049.22.22 0 0 0 .044-.049c0-.009-.01 0-.031.018l-.051.048a.2.2 0 0 0-.033.038.021.021 0 0 1-.019.014h-.01a.18.18 0 0 0 .048.016c.024.007.056.018.073.023s.044.012.047 0c0-.005-.007-.008-.014-.005s-.008 0-.008-.005m-.037-.117.006-.009h.007l-.008.007-.01.007Zm-.061.079h-.008v-.017.011Z"/></svg>