<svg xmlns="http://www.w3.org/2000/svg" fill="#44739e" viewBox="0 0 24 24"><path d="m20.967 17.059.014.025c.011.015.013.009.019-.016l.013-.047.007-.021v-.01c0-.007 0-.009-.006-.009a.18.18 0 0 0-.046.015l-.019.01c-.01 0-.014.011-.011.016h.005zm.048-.159-.021.005-.024.007-.031.014a.37.37 0 0 1 .13-.03.33.33 0 0 0-.054.004m-2.273-.522.229-.014.254-.017.085-.005h-.018l-.34.024-.164.011c-.18.011-.339.021-.392.028l.152-.011zm3.232.888c-.013 0-.024-.009-.024-.011s-.007-.018-.011-.027c-.024-.051-.064-.142-.064-.147s0-.007.01-.011a.053.053 0 0 0 .026-.042.5.5 0 0 0 0-.075l-.005-.05v-.09l-.014-.018c-.011-.01-.01-.026-.015-.04v-.031c.005 0 .006-.006 0-.007h-.012c0-.007-.006-.013-.011-.012s.009 0 .01 0v-.009s-.006-.011 0-.016v-.008s-.011-.006-.02 0l-.006.005h-.008a.022.022 0 0 0-.006.023v.027a.043.043 0 0 0 .014.016l.017.009v.01h-.008a.025.025 0 0 1-.019 0c-.016 0-.021.005-.018.01a.024.024 0 0 0 .016.007l.02.007c.011.006.025.007.022 0h.006a.017.017 0 0 1 .012.01v.076l.007.116c0 .008 0 .014-.006.013v.03l-.013.007a.12.12 0 0 1-.032.011h-.03v-.072a1.1 1.1 0 0 0-.011-.172s-.011 0-.027-.007h-.053l-.009.02c0 .011-.02.05-.034.09l-.032.092a.24.24 0 0 0-.02.057.143.143 0 0 1-.043.065c-.017.017-.022.007-.03.01a.215.215 0 0 0 .057-.07.12.12 0 0 1 .011-.033c.006-.015.027-.072.047-.126s.039-.1.043-.109a.13.13 0 0 0 .011-.033.45.45 0 0 1 .03-.087.03.03 0 0 0 0-.016v-.02h.036a.27.27 0 0 0 .048-.008h.007l-.056-.05-.026-.02-.025-.019-.029-.02-.043-.027-.02-.011-.022-.009h-.007l-.009.009c-.007.006-.01.006-.047 0a.057.057 0 0 1-.051-.023h.007l-.025-.014a.4.4 0 0 0-.034-.046l-.033-.04a2 2 0 0 0-.087-.1c-.015-.015-.007-.017-.013-.027l.009.012.034.039v.006l.02.025.011.011.017.02.006.007.012.016.028.033.038.021-.2-.23h.002c0-.01-.015-.022-.015-.031 0-.027-.006-.037-.033-.033h-.02s0-.013.029-.027a.16.16 0 0 0 .029-.016l.006-.008h-.008a.2.2 0 0 0 .019-.012v-.006a.23.23 0 0 0-.052-.007h-.062.007a.3.3 0 0 1 .052.007v.006l-.01.007-.058-.009h-.039a5 5 0 0 0-.182-.022l-.1-.01h-.064a.014.014 0 0 0 0 .013v.021a.07.07 0 0 0 .019.018c.026.014.081.039.192.088l-.018.009-.025-.011-.017-.008c-.111-.05-.167-.074-.192-.088l-.017-.01-.005-.006v-.027c-.009 0-.006-.008-.006-.01a.1.1 0 0 0-.016 0H20.7a.1.1 0 0 0-.016 0h-.054.055a.2.2 0 0 1 .027 0l.014.027.008.016a.57.57 0 0 0 .168.087c.04.017.077.042.116.06h.006a4.5 4.5 0 0 1 .458.24l.008.007h-.034a.07.07 0 0 0-.04.01H21.4a.017.017 0 0 0-.017 0 .55.55 0 0 1-.081 0 2 2 0 0 0-.244 0c0 .005-.025 0-.027 0a.07.07 0 0 0-.052-.012h-.029l-.028-.022c-.015-.011-.063-.05-.106-.085-.1-.083-.216-.172-.3-.236-.036-.027-.067-.051-.089-.065l-.02-.012a.13.13 0 0 0-.036-.017h-.015l.025.009h.008l.014.007c.02.011.018.017.037.027l.01.008-.01-.007c-.019-.01-.017-.016-.037-.027l-.012-.007h-.008l-.025-.008h-.008a.35.35 0 0 0-.1-.009c-.037 0-.009 0-.179-.008-.017 0-.067 0-.15-.005h-.234c-.206 0-.412.013-.616.035a.9.9 0 0 0-.1.011 1.4 1.4 0 0 0-.189.046l.012-.006-.035.011h-.014l-.058.021c-.013.006-.061.024-.125.053h-.013l-.049.03-.026.014-.023.012h-.019l-.041.025-.024.013-.033.019s-.012.007-.025.014h-.012c-.034.02-.087.051-.15.091l-.039.025c-.051.033-.109.073-.118.081s-.131.059-.121.043a2 2 0 0 1 .209-.147l-.252.157-.041.011a.03.03 0 0 0-.014 0h-.007.01l.041-.011.252-.157.015-.009.1-.064.186-.106.078-.042.068-.034.042-.022.03-.013.017-.009h.01l.022-.009h.007-.008l-.025.01-.024.012-.023.01-.027.012-.135.062-.1.055-.1.052-.031.02-.075.044-.026.015h-.007l-.335.184H17.7a.092.092 0 0 1-.065.028c-.1.008-.977.244-1.152.292h.017c.029 0 .185-.014.239-.021l.114-.008a.29.29 0 0 0 .091-.013.05.05 0 0 1 .021-.007h.005a.08.08 0 0 1-.02.012h-.012a.28.28 0 0 1-.091.013l-.068.005a.018.018 0 0 1 .013 0h-.015l-.014.008-.011.01h-.005l-.025.022c-.009.007-.016.016-.024.023s0-.005 0-.016v-.011a.32.32 0 0 0 .052-.045h-.01l-.066.006v.044a.04.04 0 0 1 0 .021.033.033 0 0 0 .006.022l.009-.008v.036a.2.2 0 0 0-.025.024h.015s-.012.019-.034.03a1.5 1.5 0 0 1-.172.043c-.044.009-.059.012-.061.023a.12.12 0 0 0 .01.032c.007.016.019.05.029.081.016.05.031.091.06.166.014.036.025.047.029.028l.007-.032a.8.8 0 0 1 .049-.151l.005-.023c0-.024.024-.035.067-.039.018 0 .073-.009.1-.013 0 0 .013-.01.021-.02a.468.468 0 0 1 .546-.176.528.528 0 0 0-.532.185.052.052 0 0 1-.051.024c-.091.008-.119.014-.119.027a.4.4 0 0 1-.016.047 1.6 1.6 0 0 0-.051.169c0 .021-.009.028-.024.028a.018.018 0 0 1-.017-.006.23.23 0 0 1-.024-.053c-.01-.027-.022-.054-.025-.061a.2.2 0 0 1-.01-.026.4.4 0 0 0-.019-.055 1.6 1.6 0 0 1-.033-.092.23.23 0 0 0-.02-.051c-.006 0-.009.011-.014.048s-.008.048-.013.048v-.063.01-.006c0-.023.009-.038.023-.041l.012-.006h.012a.55.55 0 0 0 .138-.03.26.26 0 0 1 .06-.017c.048-.01.052-.012.052-.017 0-.007-.019-.008-.052 0-.067.008-.074.01-.083.019a.036.036 0 0 1-.04.007.06.06 0 0 0-.029 0h-.04v-.06h.005a.06.06 0 0 0-.006-.018v-.016h.05a.3.3 0 0 0 .036 0 .03.03 0 0 0 .018.005.02.02 0 0 1 .013 0 .07.07 0 0 0 .018 0h.019v.007c.01.011.022 0 .036-.025l.007-.017-.112.011h.012c.024 0 .051-.007.073-.009h.027-.005a.5.5 0 0 0-.114.014h-.04l.011-.01c.177-.05 1.054-.284 1.152-.292a.1.1 0 0 0 .058-.024 2.1 2.1 0 0 0-.41.03c-.143.02-.215.031-.266.041a2.2 2.2 0 0 0-.319.094 1.14 1.14 0 0 0-.257.151c-.02.015-.032.026-.03.031s.005 0 .008 0v.1l-.019.015c-.013.008-.02.015-.018.017s-.027.017-.033.033a.83.83 0 0 0-.013.193.07.07 0 0 0 .028.029.25.25 0 0 1 0 .054c0-.008 0-.012.007-.008v.008l.017.014a.025.025 0 0 1 0 .017.05.05 0 0 0 0 .017.15.15 0 0 1 0 .03.18.18 0 0 0 0 .039.039.039 0 0 1-.013.045c-.013.009-.019.012-.023.008s0-.012 0-.029a.04.04 0 0 0 0-.022h-.016v.016c-.023.1-.022.137 0 .151a.575.575 0 0 0 .265.057c.068 0 .073 0 .073.016a.034.034 0 0 0 .034.033h.008a.8.8 0 0 0 .085-.013c.011 0 .011 0 .025.021a.454.454 0 0 0 .3.166h-.319v.058h.542v-.05h-.035a.714.714 0 0 0 .331-.13l.027-.021h.143l.034-.018a.25.25 0 0 0 .06-.042l.027-.025h2.571v.017c0 .012.01.013.015.018a.028.028 0 0 1-.012-.025c0-.018 0-.021.005-.022s.006 0 .009 0 0 .007.007.02v.014-.014h.01v.013l.007.007.008.007a.31.31 0 0 0 .1.057.11.11 0 0 1 .033.022.59.59 0 0 0 .2.1h-.169V18h.505v-.039a.531.531 0 0 0 .333-.35c0-.022.009-.023.024 0s.024.028.073.019.095-.016.15-.021c.1-.011.111-.02.144-.1.009-.024.047-.119.058-.151.047-.058.04-.076-.018-.092m-.787-1.129a.8.8 0 0 0-.131.056.13.13 0 0 0-.023.012.13.13 0 0 1 .023-.012.8.8 0 0 1 .13-.056.04.04 0 0 0 .015-.008l.036-.016-.012.008a.08.08 0 0 1-.038.016m.232.245.039.031zm-5.074.874s0-.012-.007-.05c0-.015 0-.022.011-.017h.012a.1.1 0 0 1 0 .039c-.003.034-.007.034-.016.028m.266.375c-.055-.005-.064-.008-.041-.01a.3.3 0 0 1 .094 0c.002.011-.013.014-.053.01m5.012-1.031a.8.8 0 0 0 .183-.006l-.016-.012.018.014a.75.75 0 0 1-.183.007zm-.226.221h.007a1 1 0 0 1 .136.077h.009a.013.013 0 0 0 .016 0v-.017l.007-.011.009-.013a.1.1 0 0 1 .02-.014c.019-.011.026-.016.028-.022v-.011l.009-.01a.07.07 0 0 0 .019-.018c0-.007.01-.012.011-.011a.04.04 0 0 0 .018-.012l.009-.014.01-.018.01-.023c0-.014.015-.04.022-.057a.14.14 0 0 1-.006.022c-.007.017-.018.043-.022.057l-.01.023-.009.018-.01.015c0 .005-.016.013-.018.011s-.006 0-.011.011a.07.07 0 0 1-.019.019l-.01.01v.015c0 .006-.009.011-.028.022s-.02.013-.02.015l-.009.013-.006.011v.017s-.009.006-.017 0h-.01l-.052-.033c-.02-.012-.028-.022-.043-.031a.5.5 0 0 1-.051-.037zm-.548-.023h-.006l.01-.012.012-.013v.023h.005l-.011.011zm0 .019-.008.024.007-.024zm-.018-.2c-.257.011-.9.047-1.247.071a1.3 1.3 0 0 1-.206.008 1.2 1.2 0 0 0 .2-.008c.352-.024.988-.06 1.248-.071zm0 .191-.006.013v-.01zm-.314.356h.006a.2.2 0 0 0 .019-.029.68.68 0 0 1 .2-.2.25.25 0 0 0 .07-.06l.009-.011v.028l-.006.007a.26.26 0 0 1-.069.06.66.66 0 0 0-.2.2c-.012.018-.017.026-.021.026v-.006zm-2.136.313.449-.018.2-.008c.242-.01.285-.012.291-.015a.02.02 0 0 1 .015 0 .8.8 0 0 0 .1 0l.178-.008.16-.007.168-.006.33-.014a1 1 0 0 0 .1-.006h.012-.064l-.389.017c-.051 0-.141 0-.2.008l-.235.009-.19.009-.155.007c-.051 0-.125 0-.163.006l-.154.007-.167.006-.2.008-.416.018h-.1.107zm-.172-.671a.9.9 0 0 1 .1-.01h.069s-.018 0-.087.009l-.069.005zm1.3-.1.209-.013c.335-.022.651-.04.86-.05l.137-.007a.06.06 0 0 1-.022.007l-.114.008h-.01l-.132.007a.9.9 0 0 0-.188.007l-.218.015a1 1 0 0 0-.108.008H19.8l-.205.013-.191.013a.16.16 0 0 1-.046.009h-.051l-.121.008c-.194.011-.337.02-.379.024a.4.4 0 0 1-.083 0l.06-.005.113-.008c.03 0 .076-.007.1-.008l.135-.01.134-.011a.7.7 0 0 0 .077-.006zm-.153-.009v-.022.01zm1.211-.008a.05.05 0 0 1-.022 0 .37.37 0 0 1-.088.005v-.008l.006-.006h.052a.22.22 0 0 1 .051 0zm-.124-.01v.014a.011.011 0 0 1 0-.016zm-1.075.465-.009.008-.009.008-.009-.011v-.08a.7.7 0 0 1 .006-.075v-.058s0 .038.006.083.006.093.008.108v.026zm.984-.384a.05.05 0 0 1-.017 0h-.066a.5.5 0 0 1-.086-.007.13.13 0 0 0-.048 0 1 1 0 0 1-.133 0H20a.19.19 0 0 1-.058 0h-.012a.2.2 0 0 1-.033-.006s-.008 0-.006-.006 0-.018 0-.018h.045a.14.14 0 0 0 .058 0 .017.017 0 0 1 .011 0 .73.73 0 0 0 .132 0 .18.18 0 0 1 .051 0 .35.35 0 0 0 .085.007h.067a.022.022 0 0 0 .016 0 .2.2 0 0 1 .035 0 .07.07 0 0 0 .028 0 .083.083 0 0 1 .044 0 .09.09 0 0 0 .033.006.06.06 0 0 1 .029 0h.015a.32.32 0 0 0 .061.01.17.17 0 0 1 .038.011.065.065 0 0 1 .023.015h.014l.01.006h.02l.011.007h.009c.008 0 .015 0 .044-.01s.038-.012.037-.009a.12.12 0 0 1-.033.021l-.023.014h-.025a.1.1 0 0 1-.014.014l-.01-.006h-.033l-.008-.006a.06.06 0 0 0-.021-.014.16.16 0 0 0-.037-.011.3.3 0 0 1-.061-.01l-.01-.006a.06.06 0 0 0-.03-.005.13.13 0 0 1-.033 0 .066.066 0 0 0-.044 0 .06.06 0 0 1-.027 0 .1.1 0 0 0-.043.001zm.289.178c-.01.007-.011 0 0 0a.97.97 0 0 1 .137-.093.2.2 0 0 0 .033-.02c.019-.008.021-.006.013.008s-.021.017-.063.038a1.1 1.1 0 0 0-.117.065zm-.132.153a.4.4 0 0 1 .042-.063l.015-.02V17l.007-.007a.06.06 0 0 1 .019 0 .08.08 0 0 1 .022 0l.006.008-.007.008a.05.05 0 0 0-.018 0c-.014 0-.02 0-.024.006s-.047.063-.066.089a.03.03 0 0 1 .007-.015zm.107-.076-.014.012-.006-.006h.01zm.384-.241a.76.76 0 0 1 .135 0c.064.007.1.015.1.022a.24.24 0 0 0-.038 0 .18.18 0 0 1-.052 0 .93.93 0 0 0-.257.026c-.029.008-.034.008-.034 0s.07-.041.146-.048m.065-.163h-.116zm-.117.032a.11.11 0 0 0 .038 0h.093a.1.1 0 0 1 .034 0v.007c0 .006.007 0 .012 0s.051-.009.063 0-.013.026-.023.026c-.007 0-.017.008-.012.011s0 .028-.009.028h-.01.006-.008s-.009.005-.03.005-.045 0-.037.008h.008a.045.045 0 0 1 .023 0c.042 0 .057.012.018.012h-.022a.04.04 0 0 1-.022 0h-.028a.024.024 0 0 1-.014 0 .02.02 0 0 0-.013-.005.015.015 0 0 1-.015-.026c0-.006-.006-.008-.019-.008a.038.038 0 0 1-.036-.024h-.007v-.009a.018.018 0 0 1 .013-.025zm-.037-.161h-.249.138a.46.46 0 0 1 .074 0 .16.16 0 0 1 .029.008c.008 0 .013.008.013.014s0 0-.009.007a.1.1 0 0 1-.033.01.16.16 0 0 0-.03.006.5.5 0 0 1-.085.014h-.025l-.114.009a.045.045 0 0 0-.023 0 .4.4 0 0 1-.052 0h-.081a.3.3 0 0 1-.04 0 .07.07 0 0 0-.021 0h-.075a.27.27 0 0 0-.069 0c-.007 0-.07 0-.258.006h-.135c-.073 0-.237.006-.4 0-.075 0-.072 0-.072-.029 0-.014-.008-.022.018-.027s.133-.01.4-.022l.145-.007h.022l.192-.007h.019c.242-.009.33-.013.3-.014l-.223.007.3-.01h.013c.119 0 .216-.007.26-.007h.065zm-.457-.386.024.017c.222.169.308.237.4.319.015.014.025.023.024.028s-.01-.014-.024-.027c-.092-.083-.177-.151-.4-.319zl-.016-.013Zm-1.429-.046.058-.006h.026-.016c.058-.006.125-.011.2-.016h.051l-.141.009c-.071 0-.137.01-.192.016zm-.12.025h.007a.06.06 0 0 1-.017 0zm-.881.418-.008.006zm-.087.086v-.008c0-.008.011-.007.016-.012a.16.16 0 0 0-.018.02.8.8 0 0 1 .077-.06h-.018a.8.8 0 0 1 .148-.116.7.7 0 0 0 .052-.033l.029-.018.017-.011c.017-.011.039-.023.058-.034l.015-.009.033-.018.024-.014.033-.019.027-.015.023-.012.026-.013c.014-.008.026-.013.048-.023s.037-.017.058-.026.062-.026.093-.038l.059-.021.035-.01.037-.009-.027.008a2 2 0 0 0-.278.111c-.089.044-.2.106-.278.155l-.017.011-.029.018-.052.033-.011.01a.2.2 0 0 1 .041-.026.18.18 0 0 1 .051-.019c.018 0 .023 0 .023-.008v-.011c0-.011.021-.025.118-.077a.35.35 0 0 1 .067-.034.3.3 0 0 1-.042.029.24.24 0 0 0-.042.028s.079-.037.185-.092a1.43 1.43 0 0 1 .669-.172h.206l-.014.091-.041.37h.055l.021-.175.011-.088.026-.215h.021v.012l-.046.482h.061l.028-.461s.026 0 .038-.006h.324c.134 0 .27 0 .314.006a.7.7 0 0 1 .078.007h.023a.2.2 0 0 1 .022.014.83.83 0 0 1 .109.087l.148.137.019.01h.052a.22.22 0 0 0 .051 0 .9.9 0 0 1 .189.151l.005.007a1.16 1.16 0 0 1-.183.012c-.2.006-.681.024-.8.029l-.191.008-.214.01-.135.007h-.07a.37.37 0 0 1 .066.005v.008a.11.11 0 0 1-.017.044.76.76 0 0 0-.165 0c-.045 0-.14.007-.189 0a.04.04 0 0 0-.015 0 .07.07 0 0 1-.029 0h-.155a.9.9 0 0 0-.1 0 .36.36 0 0 1-.057 0 .5.5 0 0 0-.075.006.1.1 0 0 1-.026 0 .26.26 0 0 0-.04 0 .16.16 0 0 1-.089 0c-.046-.011-.057-.015-.051-.021h.025-.029a.37.37 0 0 1-.081 0 .014.014 0 0 0-.015 0 .18.18 0 0 1-.039.006c-.011 0-.008.005-.017.007a.07.07 0 0 0 .016.011.17.17 0 0 1 .052.043.4.4 0 0 0 .062.056.45.45 0 0 1-.063-.052.16.16 0 0 0-.051-.043c-.011-.006-.016-.009-.017-.012-.022 0-.046.009-.047.019s0 .015.016.027c.013.013.02.024.019.029s0 0-.018 0a.46.46 0 0 1-.064-.051h-.007a.2.2 0 0 0 .006-.021.53.53 0 0 0-.138 0 .05.05 0 0 1-.025 0c-.005 0 0-.013.003-.021zm.06.046a.3.3 0 0 1-.051.014c-.008 0-.006-.01 0-.014s.059-.005.054 0zm-.06 0a.03.03 0 0 0-.011.014zm-.2.01a.2.2 0 0 1 .06-.009h.109c0 .007-.013.026-.027.03l-.021.007a.4.4 0 0 1-.068.013c-.018 0-.026 0-.026.009s0 0-.02 0a.05.05 0 0 0-.027.01.24.24 0 0 1-.057.025.1.1 0 0 0-.022.012l-.021.012-.036.02a.16.16 0 0 1-.029.015.08.08 0 0 0-.022.013.05.05 0 0 1-.022.013.07.07 0 0 0-.02.016c-.012.012-.015.014-.023.012s-.019-.007.018-.031l.051-.036.071-.05.082-.057a.18.18 0 0 1 .056-.029zm.133.591v.008a.1.1 0 0 1 0 .015l-.006-.019Zm-.009-.384-.006.015a.027.027 0 0 1-.022.015.4.4 0 0 0-.078.032h-.013a.043.043 0 0 0-.02.011l-.019.016-.009.01-.012.01-.008.008h-.021l-.007-.008q-.025-.025-.024-.027l.013.008a.14.14 0 0 0 .024.014h.021l.008-.008.012-.01.009-.01.019-.017a.05.05 0 0 1 .02-.01h.013a.32.32 0 0 1 .079-.032.032.032 0 0 0 .027-.022zm-.641-.107a.1.1 0 0 0 .023-.008l.077-.022a.94.94 0 0 0 .148-.045h.009a.64.64 0 0 1 .105-.018h.098l-.009.007s-.03.022-.058.04-.118.078-.19.129l-.016.012-.043-.009a1.3 1.3 0 0 0-.139-.019c-.041 0-.047 0-.047-.013a.017.017 0 0 0-.006-.011c-.005-.023.013-.036.054-.048zm-.537.275a.3.3 0 0 1 .024-.023l.025-.018c.02-.017.052-.04.07-.053l.018-.013a.16.16 0 0 1 .031-.006h.011l-.008.007a.15.15 0 0 1-.025.019c-.018.013-.051.036-.07.053-.039.032-.051.037-.068.037zm.473.019.063.006a.45.45 0 0 1 .181.045c.025.011.031.01.032.008s0 .009-.032 0a.48.48 0 0 0-.182-.046.44.44 0 0 1-.063 0h-.011zm-.03.4a.043.043 0 0 0 .016.014l.009.008v.014h-.008a.05.05 0 0 0-.01-.015l-.051-.053a.4.4 0 0 1-.04-.045l-.022-.025s0-.005-.011-.009l-.008-.009c-.011-.011-.021-.023-.032-.036a.3.3 0 0 0-.028-.031.013.013 0 0 1 0 .012.24.24 0 0 1 .026.029l.015.015.018.002h-.009a.1.1 0 0 1-.04.007.2.2 0 0 0-.048.006h.014-.021a.13.13 0 0 1 .027 0 .4.4 0 0 0 .049 0 .4.4 0 0 0 .046-.006l-.006.006c-.006.006-.009 0 0 0s.021.006.062.051l.017.018v.008l.022.024h.008v.01l-.02.006a.3.3 0 0 1-.052.015v-.022.03a.5.5 0 0 0 .052-.018l.02-.007c.008 0 0-.007 0-.012l.006.013v.009c0 .006-.017.011-.078.028L17 17.5c-.026.008-.035.007-.041 0l-.022.008a.4.4 0 0 1-.072.022v-.008s.011-.007.037-.015.033-.011.036-.016-.008-.017-.031-.033l-.034-.025a.08.08 0 0 0-.022-.013.25.25 0 0 0 .041.037c.027.021.039.029.039.035s-.012.009-.037.016l-.022.009c.012 0 .007-.014.026-.019s.023-.006.019-.011a.08.08 0 0 0-.018-.014l-.038-.029-.025-.019h-.006v-.015c0-.004.013.007.015 0-.006.006-.01.008-.008 0l.006-.005v-.023a.13.13 0 0 1 .01-.028l.006-.01v-.009a.17.17 0 0 0-.025.076.1.1 0 0 1 .006-.06c.013-.028.019-.03.107-.037.026 0 .029 0 .015-.019l-.008-.009-.008-.009-.015-.022-.006-.011v-.022c0-.006.017-.008.062.044.076.089.105.12.114.12a.026.026 0 0 1 .02.008v.006a.034.034 0 0 0 .011.02zm-.257.126c-.009.006-.023 0-.021 0h.023zm-.033-.108v.019a.025.025 0 0 1 0-.017zm.094-.266a.33.33 0 0 0-.08.1.35.35 0 0 1 .084-.11.02.02 0 0 0 .009-.012s.007.003-.007.013zm-.113.135a.3.3 0 0 1-.009.029.09.09 0 0 1-.018.034c-.012.014-.015.025-.006.033v.018a.09.09 0 0 0 0 .028v.013a.06.06 0 0 1 0-.032v-.019h-.005c-.008-.008-.006-.018.006-.033a.09.09 0 0 0 .019-.034.1.1 0 0 1 .008-.029.06.06 0 0 0 0-.02.056.056 0 0 1 .021-.043c.007 0 .008-.006.008-.018a.05.05 0 0 1 0-.017l.006-.012a.154.154 0 0 1 .04-.061.14.14 0 0 0-.034.052.018.018 0 0 1-.006.013.03.03 0 0 0 0 .016c0 .013 0 .015-.008.019a.054.054 0 0 0-.021.042.1.1 0 0 1 .005.012zm.671.325c-.03-.012-.048-.017-.048-.007a.36.36 0 0 0 .018.066c0 .005-.008.01-.007.015a.3.3 0 0 0-.012-.043.26.26 0 0 1-.014-.055c0-.01.014 0 .043.006a.11.11 0 0 0 .039.01h.01c-.003-.005-.006.005-.023-.001zm-.062.011v.01-.008l-.006-.02v-.012.01zm.13-.111a.03.03 0 0 0-.011.018.1.1 0 0 1-.008.024c-.008.017-.008.017 0 .024s0 .007 0 .009l-.011-.006-.019-.007-.085-.029a.35.35 0 0 0 .057.02c.048.015.06.02.056.027h.005-.016.007-.009a.026.026 0 0 0-.015 0 .14.14 0 0 1-.041-.01c-.029-.01-.041-.012-.045-.006v-.008c0-.006.016 0 .046.006a.18.18 0 0 0 .04.01.023.023 0 0 1 .016 0h.008c0-.007-.008-.012-.056-.027l-.043-.015a.27.27 0 0 0-.047-.019c-.025-.008-.052-.019-.063-.023l-.02-.007h-.019a.032.032 0 0 0-.027 0 .05.05 0 0 0-.007.027v.055-.055c0-.006.008 0 .009 0a.033.033 0 0 1 .023-.006c.011 0 0-.008.014 0l.063.026c.039.014.052.02.052.029a.25.25 0 0 0 .013.045l.015.05v.013l.008.009a.069.069 0 0 1-.038.074c-.026.018-.034.016-.1-.025l-.027-.016c.007 0 .01-.006.032.009s.028.015.035.016l-.02-.01c-.013-.009-.021-.016-.018-.015h.01l.012.01.017.01.01.006s0-.009-.018-.017l-.052-.031a.2.2 0 0 0-.034-.018c-.006 0-.01 0-.012-.011v.017c0 .014 0 .05.005.078 0 .053 0 .06.016.056v-.03h.027s0 .006-.019.013-.027.023-.021.029a.45.45 0 0 0 .082-.023c.02-.008.03-.009.031-.006s-.012.013-.04.026a.324.324 0 0 1-.169.015h-.031c-.01 0-.019 0-.029-.007h-.015.02c-.01 0-.022 0-.032-.009a.4.4 0 0 1-.068-.05l-.028-.017a.7.7 0 0 1-.046-.039.09.09 0 0 0-.026-.022l.006.01.017.019c-.008-.009-.021-.01-.029-.019a.33.33 0 0 1-.064-.125c-.005-.021 0-.023.007-.014a.09.09 0 0 1 .015.029l.007.014h.022c0-.005.011-.01.046-.024l.073-.041c.007-.005.009-.01-.005-.01s-.01 0-.013-.018a.035.035 0 0 0 0-.017.8.8 0 0 0-.091.03c-.034.013-.046.014-.051 0l.009-.006v.01a.12.12 0 0 0 .027-.007c.059-.023.114-.043.149-.053l.071-.022.034-.011a.08.08 0 0 1-.028.014l-.067.021c-.005 0-.006.005 0 .007s0 .011 0 .029-.007.018.008.014l.082-.036c.006 0 .006 0 0-.009-.008-.008-.007-.017 0-.02s.01 0 .014.006v.008h.024v.026a.054.054 0 0 0 0 .025h.005c-.002 0 0-.023.008-.024s.012 0 .007-.014.016-.018.042-.012.029 0 .026 0h-.008l-.01-.007v-.021h-.009l-.011-.009v-.007h-.007a.022.022 0 0 1-.013-.008s0-.008.014-.008h.014-.005a.022.022 0 0 1 0-.017c0-.006.016-.005.02 0s.01.006.014 0 0-.008 0-.011c-.006-.006 0-.009.008 0s.013 0 .037-.033l.038-.054c.051-.069.07-.1.066-.115-.01-.011-.036-.025-.041-.021a1.3 1.3 0 0 0-.1.169c-.044.091-.057.107-.076.1l-.011-.006-.006.007c0 .006-.011.006-.015 0v-.011c0-.007 0-.009.007-.01s.01 0 0-.015l-.012-.014-.009-.009-.012-.016a.2.2 0 0 0-.025-.037c-.014-.019-.034-.045-.043-.06s-.028-.039-.04-.055-.027-.042-.016-.048.01 0 .015 0h.019c.007 0 .013.007.025.026a.09.09 0 0 0 .024.028l.016-.053.012-.035.009-.013a.4.4 0 0 0-.14.029c-.018.011-.029.013-.03.008s0-.009.01-.017a.026.026 0 0 0-.019.007l-.006.008s0-.009.012-.016.016-.008.018-.007v.006l-.009.016s.012 0 .03-.008a.4.4 0 0 1 .14-.029l.007-.011a.2.2 0 0 1 .061 0c.018 0 .035-.014.054-.011a.44.44 0 0 1 .145.05l.024.017c.014.011.024.024.037.036-.011-.011-.02-.023-.032-.033a.14.14 0 0 1-.024-.016.46.46 0 0 0-.145-.051c-.019 0-.036.012-.055.012a.17.17 0 0 1 .032 0l.033.006a.23.23 0 0 1 .041.015.26.26 0 0 1 .049.017h.006a.2.2 0 0 1-.027.045l-.036.058a.1.1 0 0 1-.015.025s.008 0 .019-.024.021-.035.036-.058a.17.17 0 0 0 .026-.045h.01a.026.026 0 0 0 .013.01.34.34 0 0 1 .059.039v.012a.03.03 0 0 0-.006.013.13.13 0 0 1-.021.036.12.12 0 0 0-.019.03l.019.006a.5.5 0 0 1 .049 0c.033 0 .047 0 .053.01a.07.07 0 0 1 .011.023c.014.034 0 .041 0 .058v.02l-.027.02-.046.039-.009.009-.006.007-.008.008h-.044l.043.009c.006 0 .007 0 .006.006a.2.2 0 0 1-.048-.008.7.7 0 0 1-.092-.025.14.14 0 0 1 .027 0l.06.013a.5.5 0 0 0-.06-.014c-.025-.006-.022-.011-.031-.016l-.017-.009h-.009a.14.14 0 0 1 .023-.042.3.3 0 0 0 .023-.04l-.013.015a.25.25 0 0 0-.046.076.016.016 0 0 0 .01.015 1.8 1.8 0 0 0 .191.046.3.3 0 0 1 .051.013.042.042 0 0 0 .027 0h.01c0-.005.01 0 .012 0v.009s.008-.035.005-.03zm-.206.014.058.02zm.053.03a.23.23 0 0 0-.034-.016h-.02l-.024-.01h-.007l-.018-.008c-.005 0 0 0 0 0l.012.006h.006l.025.01.02.008c.037-.011.042-.005.046.001zm-.147.133a.017.017 0 0 1 .019 0v.007c.002-.019-.008-.018-.013-.016zm.006.063-.006-.03a.13.13 0 0 1 0-.034.12.12 0 0 0 0 .033zm0-.029h.012a.09.09 0 0 0 0 .033c0-.012-.009-.024-.012-.036zm.009-.023h-.006zm-.069-.245c-.015 0-.016 0-.015-.008 0-.005 0-.013.012-.013a.03.03 0 0 0 .014 0h.014v.014a.022.022 0 0 1-.02.013.037.037 0 0 1-.038 0h.015s0 .006.016.007 0 0 .008 0zm.039.012c0-.006 0-.01.007-.01v.007c.007-.007.001-.003-.001-.006zm.209-.389a.11.11 0 0 0 .031.022.12.12 0 0 1-.025-.029Zm-.029.153c-.011.015-.017.023-.016.027v-.007zm.1.24c.007 0 .01 0 .013-.009s0-.012.007-.008v.011a.06.06 0 0 0 .01.024.013.013 0 0 1-.011-.006s-.014-.008-.038-.013-.042-.009-.041-.016.013-.018.04-.041a.14.14 0 0 0 .032-.033v.019a.25.25 0 0 0-.059.054.26.26 0 0 0 .051.009zm.012.009h-.007zm-.072-.025v-.014.018zm-.188-.02h-.005v-.007zm.294-.144-.009-.008-.012-.014-.009-.014a.3.3 0 0 0-.034-.051c-.009-.011-.02-.02-.03-.03a.4.4 0 0 1 .027.028.21.21 0 0 1 .034.05l.01.014.012.014.009.009a.1.1 0 0 1 .015.044.1.1 0 0 0-.009-.051zm-.059-.168s-.016-.011-.016-.014l.02.005zm.009.007v.007zm.066.207a.25.25 0 0 0 .017.053.2.2 0 0 1-.016-.048zm.031.231c-.008 0 0 0-.008-.006a.11.11 0 0 1-.018-.056.1.1 0 0 0 .016.051l.009.007a.2.2 0 0 0 .022-.06c.01.001-.009.055-.017.055zm.038-.143c0 .03-.009.043-.014.038l-.006-.011v-.014h-.018c-.007-.008-.01.025 0 .046-.008-.019 0-.056 0-.05h.018l.006.014v.011c.006.006.011-.007.014-.038a.09.09 0 0 0 0-.028.1.1 0 0 1 .004.023zm-.161-.434a.54.54 0 0 1 .232.309.543.543 0 0 0-.223-.318zm.235.152a.6.6 0 0 1-.055-.059.65.65 0 0 0-.179-.137c-.012-.007-.022-.02-.034-.026l-.007-.006h-.013a.656.656 0 0 0-.58.047l-.033.006a.8.8 0 0 0-.064.036h-.009v-.009a.47.47 0 0 1 .132-.119.47.47 0 0 0-.123.111l-.006.009h.009a.8.8 0 0 1 .064-.035l.025-.014a.67.67 0 0 1 .273-.089c-.03 0-.059-.015-.089-.011-.1.013-.109.011-.061-.012a.62.62 0 0 1 .179-.051.8.8 0 0 1 .17.007.4.4 0 0 1 .076.016l.03.008a.65.65 0 0 1 .182.115.1.1 0 0 0 .018.019.6.6 0 0 1 .076.091.04.04 0 0 1-.016-.009.6.6 0 0 0-.085-.058l-.059-.033a1 1 0 0 0-.089-.034c.012.006.022.019.034.026a.63.63 0 0 1 .178.137c.02.022.045.05.056.059l.051.051.015.015v.007a.045.045 0 0 1 0 .02l-.014-.012-.015-.014c.002-.024-.022-.051-.033-.061Zm.029.327a.15.15 0 0 1-.007-.047c0-.013 0-.025-.006-.038 0 .014.009.027.01.041a.12.12 0 0 0 0 .039zm.075.161h.008c-.064 0-.082 0-.082-.006s0-.007.043-.008a.2.2 0 0 0 .036 0c.005-.006.063 0 .063.007s-.004-.004-.064-.002zm.077-.153a.05.05 0 0 0-.025 0 .4.4 0 0 1-.069 0c-.037 0-.051 0-.057-.008h.056c.052 0 .064 0 .067-.017a.24.24 0 0 0 0-.038c0-.05-.007-.141-.006-.156a.8.8 0 0 1 .009.1c.006.1.01.115.028.116zm-.007-.682v-.093l.006-.023v.106a.07.07 0 0 0 .028-.006c.072-.019.086-.025.1-.039l.013-.01c.013 0 .057-.043.077-.07a.25.25 0 0 1-.085.08.05.05 0 0 0-.014.01c-.013.014-.027.02-.1.039a.07.07 0 0 1-.025-.003Zm2.34.86h.006-.011.2a.014.014 0 0 1 .015 0 1.5 1.5 0 0 1-.206-.009zm.275-.212a.43.43 0 0 0-.007.1h.006c0 .063.007.058-.07.058-.1 0-.148-.006-.106-.012s.026-.008-.006-.008-.046 0-.044.01-.013.011-.033.013a.04.04 0 0 1-.017 0h-.318c-.471.006-.882.01-1.771.018a1.24 1.24 0 0 1-.228 0c-.009-.011 0-.011.279-.013h1.884c.154 0 .169 0 .17-.013a.1.1 0 0 1 .041-.045c.029-.025.056-.051.082-.078l.052-.051h.005l.011-.009a.19.19 0 0 1 .071 0s.007-.018.003.021zm.178-.17a.23.23 0 0 0-.034.1.07.07 0 0 1-.011.019.068.068 0 0 0-.012.068v.008c.006.005.011 0 .02-.012s.011-.013.013-.01a.074.074 0 0 1-.01.05c-.012.028-.024.037-.03.026a.04.04 0 0 1 0-.018v-.009a.05.05 0 0 1 0-.015v-.014a.1.1 0 0 1-.007-.038.45.45 0 0 1 .029-.175.6.6 0 0 1 .042-.082l.011-.019a.6.6 0 0 1 .107-.107l.024-.016a.47.47 0 0 1 .088-.04l.02-.007a.36.36 0 0 1 .107-.021.4.4 0 0 1 .071 0h.088c.022.006.033.025.051.034a.34.34 0 0 0-.067-.025l-.032-.008a.76.76 0 0 0-.116-.006l-.035.006a.19.19 0 0 0-.063.014l-.018.006a.5.5 0 0 0-.086.041l-.013.008a.5.5 0 0 0-.082.072l-.009.011a.12.12 0 0 0-.025.035l-.014.021a.037.037 0 0 0-.008.018v.006a.4.4 0 0 0 .027-.03.26.26 0 0 1 .04-.041.7.7 0 0 0 .049-.04.14.14 0 0 1 .041-.03.05.05 0 0 0 .021-.008.5.5 0 0 1 .063-.026c-.011 0-.025 0-.036.008-.031.013-.052.017-.052.011a.09.09 0 0 1 .036-.024h.01a.08.08 0 0 1 .041-.018h.009a.17.17 0 0 1 .077-.026h.039a.56.56 0 0 1 .091 0h.024v.008h-.069c-.013 0-.026.008-.039.008h.03a.276.276 0 0 1 .159.035c.015.015.016.015.025.008a.035.035 0 0 1 .018 0h.005a.42.42 0 0 1 .122.078l.014.018.021.034c.008.011.008.015 0 .015s-.01.006 0 .015.007.024 0 .024a.024.024 0 0 1-.015-.009v-.007l-.008-.014a.012.012 0 0 1-.005-.016h.005l.006-.007v-.008c-.006-.006-.007-.006-.007 0s-.011.012-.027 0-.028-.029-.043-.029-.017 0-.032-.014l-.034-.023-.029-.02a.06.06 0 0 0-.023-.012.08.08 0 0 1-.026 0 .8.8 0 0 0-.083 0h.007l.007.014a.3.3 0 0 0 .015.04.24.24 0 0 0 .021.054c.006.007.012 0 .027-.028.034-.056.036-.058.059-.044l.007.006c.008.009 0 .023-.04.083l-.054.082c.01-.015.021-.032.027-.043s.029-.047.041-.064a.1.1 0 0 0 .022-.037l-.006-.008c-.009 0-.009 0-.013.006s0 .009-.008.008-.013.008-.034.043-.026.042-.06-.053a.06.06 0 0 0-.011-.023.2.2 0 0 0 .017.05l.022.058a.05.05 0 0 0 .01.018v.008a.37.37 0 0 1-.046.082l-.039.062H21.1c-.018 0-.016.005-.062-.071-.038-.065-.038-.079-.038-.089v-.008s.011-.03.034-.1a.06.06 0 0 0 0-.025s-.008.01-.013.021l-.006.015a.4.4 0 0 1-.024.068c-.006 0-.01 0-.031-.031a.15.15 0 0 0-.03-.037c-.006 0-.01-.009-.01-.012a.016.016 0 0 0-.019 0v.006c0 .007 0 .017.023.039s.045.064.115.167a.35.35 0 0 0 .047.061h-.007s-.034-.05-.07-.1c-.051-.074-.088-.13-.107-.151l-.013-.012-.016.01-.019.012c-.012 0 0 .03.047.084l.021.026.021.025.028.035.022.028.006.007.012.014.008.011h.03c.004 0 0 .015-.008.016s-.007 0 0 .014a.018.018 0 0 1 0 .027 1.25 1.25 0 0 0-.113-.147 2 2 0 0 1-.061-.075c-.025-.035-.03-.038-.041-.027v.012l.009.013a.26.26 0 0 0 .028.037c.017.019.026.029.025.035s-.019.008-.062.009-.052 0-.055.007a1.2 1.2 0 0 0 .133-.007c.008 0 .018.006.07.068s.052.068.041.075h.015l.005.006h-.01c-.008 0-.031.01-.047.015s-.028 0-.048.008l.037-.011.028-.01-.034.01-.075.02c-.028.009-.036.011-.037.008s-.017-.013-.025-.02l.008.01c0 .007-.016.011-.051.02a.07.07 0 0 0-.019.009c.011-.006 0-.014.021-.019s.035-.009.028-.018a.2.2 0 0 0-.031-.024.3.3 0 0 1-.051-.042c-.015-.017-.01-.031 0-.073s.012-.04.03-.043a.5.5 0 0 1 .086-.008c.029 0 .032 0 .013-.023l-.009-.011-.023-.017c-.014-.018-.02-.027-.02-.032s.018-.028.024-.028a.044.044 0 0 0 .015-.012.16.16 0 0 1 .028-.023l.02-.015a.4.4 0 0 0-.068.033.8.8 0 0 0-.075.082c0 .007-.011.014-.015.009s-.024.007-.024.023a.06.06 0 0 1-.011.022Zm.145-.216a.22.22 0 0 1-.034.027c-.008 0 0-.009.008-.017a.042.042 0 0 1 .022-.013v.007zm-.042.032-.007.007h-.007v-.009zm.68.147v.006a.008.008 0 0 1 0 .011s-.008 0-.012-.007v-.01c.002-.015.008-.015.016-.009zm-.285-.033v-.006zm-.078.158.012-.019c.008-.01.019-.028.03-.044v.006zm.02.023s0 .007-.008.008h-.005V17.4h.01zm-.012.41c0 .023 0 .033.01.034h-.069v-.091a.056.056 0 0 0 .028.005h.027v.02a.12.12 0 0 0 .008.023zm0-.218v.05zm-.061.161v-.031.016c0 .009.007 0 .015 0h.01l-.014.006c-.014.006-.005-.005-.005-.003zm.025-.271a.04.04 0 0 0-.016 0 .011.011 0 0 1-.013 0 .017.017 0 0 1-.006-.022h.007a.1.1 0 0 1 .052 0 .019.019 0 0 1 0 .018c.003-.008-.009-.003-.018-.008Zm-.032-.053h.014-.006zm-.066-.201v.024l-.008-.009c-.007-.007-.009-.012-.008-.014h.008v-.01h.006zm-.032-.046h-.012c0 .007-.037-.038-.038-.049s.008 0 .01 0a.015.015 0 0 0 .012.01.017.017 0 0 1 .012.011l.01.015zm.064.189s0 .009-.006.009l.007-.007zm0 .121a.012.012 0 0 1-.01.011h-.008v-.027h.013zm-.133 0 .027-.005h-.011a.08.08 0 0 1-.026 0h-.01.01l.026-.01-.019.007-.009.006zm-.148.148c0-.014 0-.018.064-.044s.079-.033.051-.03h-.02l-.007-.011a.06.06 0 0 1-.006-.019s0-.007-.008-.007a.35.35 0 0 0-.046.014c-.043.015-.052.016-.059.007s.014-.008.014-.013.007.01.036 0a.63.63 0 0 1 .112-.034c.046-.01.078-.02.105-.028l-.041.013c-.008 0-.006.01-.006.021s0 .017-.011.023-.023.016-.017.016h.023l.054-.024c.056-.024.078-.03.086-.02a.033.033 0 0 1 0 .016v.199-.034a.1.1 0 0 1 0-.018v.016-.033h.006v-.128c-.007 0-.021 0-.1.035-.038.016-.187.075-.2.079a.011.011 0 0 0-.007.01.012.012 0 0 0 0 .011h.011a.017.017 0 0 1 .012 0 .2.2 0 0 0 .041-.013c.023-.009.019 0 .027 0-.07.027-.091.034-.1.026zm.132.176a.23.23 0 0 1-.029-.025c-.005-.006-.007-.01 0-.008s.019.006.014 0l-.008-.008-.011-.011v-.03a.5.5 0 0 1 .013-.054.14.14 0 0 0 .01-.05s.014-.005.014 0a.04.04 0 0 1 0 .017v.018a.24.24 0 0 0 .017-.058c0-.014 0-.017.029-.028l.075-.034c.033-.016.047-.022.056-.02s.008 0 .008.008v-.016.209a.14.14 0 0 1 0 .041v.072h.006-.025a.22.22 0 0 1-.044 0 .2.2 0 0 0-.043 0h-.008l.012.007a.4.4 0 0 1-.08-.042zm.086.04h.007a.36.36 0 0 0 .122 0h.018a.32.32 0 0 0 .076 0h.018l.038-.013a.346.346 0 0 0 .163-.11.385.385 0 0 1-.436.111zm.2-.085a.2.2 0 0 1 0-.035c0-.012.006-.014.015-.008a.5.5 0 0 1 .076.05.023.023 0 0 0 .015.007h.034a.2.2 0 0 1-.032.018l-.015.009a.3.3 0 0 1-.046.017c-.009 0-.007.006-.012.009l-.035.006h.006v-.024a.21.21 0 0 1 .004-.061zm0-.048h.005zm.254-.006a.1.1 0 0 0-.026.025c-.019.019-.045.022-.066.037.022-.018.039-.034.039-.039s-.017 0-.051.023-.038.021-.059.006a.2.2 0 0 0-.031-.018.26.26 0 0 1-.063-.046l-.003-.019v.036a.24.24 0 0 0 .005.047.16.16 0 0 1 0 .065.15.15 0 0 0-.005-.06.22.22 0 0 1 0-.051 1.3 1.3 0 0 0-.012-.138v-.026a.065.065 0 0 1 0-.034c0-.006.008-.008.018-.006h.007a.07.07 0 0 0 0 .014c0-.009 0-.01.008-.014h.013v-.008a.011.011 0 0 0-.012.007h-.007c-.014-.007-.013 0-.018 0s-.012.019-.015.017 0-.008 0-.013a.18.18 0 0 0 0 .046v.059c0-.032-.006-.064-.012-.1v-.013c0-.007.008-.022.027-.021s.017 0 .017 0v-.006h.01V17.5a.1.1 0 0 0 .023.011c.011.006.017.01.017.012h-.034a.26.26 0 0 1 .062.019c.032.012.06.021.062.021a.044.044 0 0 1 .031.023c0 .018.008.021.015.015s.008 0 .043.008a.3.3 0 0 0 .049.014h.008l.008-.005a.11.11 0 0 1 0 .031h.006a.37.37 0 0 1-.049.069zm0-.116h.016a.013.013 0 0 1-.012 0zm.047.011.008-.011v-.002zm-.032-.071a8 8 0 0 0-.206-.055c-.061-.015-.089-.024-.1-.035s0-.019.016-.035.021-.027.017-.032 0-.008.008-.006a.58.58 0 0 0 .141-.167.2.2 0 0 1 .024-.033c.008-.007.013 0 .021 0l.006.006c.01.012 0 .029-.03.069-.013.016-.019.024-.016.028s.019 0 .049 0a.27.27 0 0 1 .056 0h.01a.013.013 0 0 1 .01 0 .23.23 0 0 1 .033.08v.015l-.014.014a.5.5 0 0 1-.052.043c-.021.017-.032.027-.029.032s.011 0 .028.009a.127.127 0 0 1 .065.028.019.019 0 0 1 0 .02c.006.014 0 .015-.029.006zm.074-.115a.09.09 0 0 1-.017-.037.3.3 0 0 0-.01-.041l-.007-.026v.011s0 .012.007.021a.1.1 0 0 0 .017.036l.01.01.009.01a.028.028 0 0 1 .009.019c.016.004.002-.002-.01-.016zm.018-.3-.008-.01-.009-.03a.561.561 0 0 0-.967.261h.005c0 .026-.01.035-.023.037h-.041a.15.15 0 0 0-.04.01c-.011.007-.04.01-.042 0v-.007h.011s.008.008.021 0a.5.5 0 0 1 .076-.019c.015 0 .017-.006.024-.038a.6.6 0 0 1 .214-.333c.015-.011.03-.025.036-.03s.011-.01.015-.009a.16.16 0 0 0 .046-.017.573.573 0 0 1 .677.13l.029.032s-.012.013-.016.009zm.014-.1h-.01a.11.11 0 0 1-.025-.017.63.63 0 0 0-.146-.092.66.66 0 0 0-.51-.016.12.12 0 0 1-.026.01v-.021a.12.12 0 0 0 .024-.009.657.657 0 0 1 .659.109.13.13 0 0 0 .022.016h.022l.018.009h.023v.014c0 .013 0 .016-.023.007l-.021-.01zm-4.394-.163a.66.66 0 0 1 .3.039.74.74 0 0 0-.3-.039m.255.602-.004-.001zm.039.459h.509v.055h-.509zm.594-.007h.509v.061h-.509zm.624.005h.509v.054h-.509zm.594-.003h.509v.055h-.509Zm-9.295-1.402v1.222h.485v-1.222zm.376 1.1h-.26v-.967h.26zm.758-5.241-.011-2.118H9.849l.01 2.118zM11 10.96h-.022v-.023H9.952v.023h-.014a.3.3 0 0 1 0-.127h.014v.023h1.027v-.023H11a.3.3 0 0 1 0 .127m-1.069-.628H11v.457H9.928ZM2.76 18.016h1.792v-1.693H2.76Zm1.233-1.526h.464v.161h-.464Zm0 .236h.464v.122h-.464Zm0 .2h.464v.12h-.464Zm0 .2h.464v.122h-.464Zm0 .2h.464v.122h-.464Zm0 .2h.464v.12h-.464Zm0 .2h.464v.134h-.464Zm-.566-1.236h.463v.161h-.463Zm0 .236h.463v.122h-.463Zm0 .2h.463v.12h-.463Zm0 .2h.463v.122h-.463Zm0 .2h.463v.122h-.463Zm0 .2h.463v.12h-.463Zm0 .2h.463v.134h-.463Zm-.572-1.236h.465v.161h-.465Zm0 .236h.465v.122h-.465Zm0 .2h.465v.12h-.465Zm0 .2h.465v.122h-.465Zm0 .2h.465v.122h-.465Zm0 .2h.465v.12h-.465Zm0 .2h.465v.134h-.465Zm11.402-1.359h.429v-.722h-.427zm.384-.648v.56h-.347v-.56zm-6.019-4.367h-.2v-.12a.109.109 0 0 0 .063-.1.1.1 0 0 0-.023-.064l.083-.051.009-.006a.1.1 0 0 0 .023-.12l-.058-.1a.088.088 0 0 0-.12-.031l-.34.2-.011.007a.089.089 0 0 0-.012.108l.063.113a.083.083 0 0 0 .113.03l.078-.048a.113.113 0 0 0 .055.061v.12a.085.085 0 0 0 .084.088h.2v-.012zm-4.049 4.856v.04h.022v1.768h.073l.001-1.768h.02v-.04l-.058-.015Zm11.512 1.723v.002h.02v.058h.074v-.058h.021l-.057-.002Zm-7.603-1.723v.04h.024v1.768h.071l-.001-1.768h.023v-.04l-.059-.015Zm11.638 1.729h-.218v.061h.509v-.01h.218v-.054h-.509Zm-3.836-3.716h-.247v-2.776h.205a.085.085 0 0 0 .084-.087v-.118a.12.12 0 0 0 .055-.058l.078.047a.083.083 0 0 0 .113-.029l.063-.115a.089.089 0 0 0-.03-.119l-.34-.2a.086.086 0 0 0-.119.029l-.058.1a.093.093 0 0 0 .032.125l.083.051a.105.105 0 0 0-.023.065.109.109 0 0 0 .063.1v.117h-.205V10.11h.674l-4.377-4.121-4.383 4.127h.676v4.098h-.243v.686h.243l-.007.005v3.107h1.1v-3.99h1.5v3.994h1.12v-.009h1.109v-4.014h1.5v4.014h1.095v-3.1h.241zm-7.745.554h-.1v-.438h.101Zm2.662-2.24H9.727v-2.4H11.2Zm3.73-.011-.034.006h-1.433v-2.4h1.467zm-6.974-1.429-.169.024.147.265.107-.139zm6.856-.861h-1.222l-.01 2.118H14.8Zm-.085.689h-.014V10.9h-1.027v.022h-.014a.3.3 0 0 1 0-.123h.014v.024h1.027V10.8h.014a.31.31 0 0 1 0 .123m.007-.17h-1.069V10.3h1.069zm5.385 7.178h.509l-.509-.005Zm-6.293-2.812h.244v.306h-.244ZM11 14.4H9.927v1.857H11Zm-1.005.1h.916v.321h-.92zm.935.445h-.019v-.013h-.92v.016h-.012a.17.17 0 0 1 0-.09h.013v.017h.922v-.017h.012a.22.22 0 0 1 0 .09zm-4.401 1.263v.04h.021v1.768h.073l.001-1.768h.021v-.04l-.058-.015Zm7.287-.448h.255v.458h-.255zm-.079.601h.428v-.725h-.428zm.033-.649h.347v.559h-.347Zm-3.248 2.041h.491v-1.222h-.491zm.123-1.094h.255v.967h-.255zm3.09 1.074h.428v-1.22h-.428zm.039-1.151h.336v1.08h-.336zm-.037-1.043h.428v-.549h-.428zm.045-.468h.336v.408h-.336Zm-9.067 2.945h1.792v-1.693H4.715Zm1.231-1.526h.469v.161h-.469Zm0 .236h.469v.122h-.469Zm0 .2h.469v.12h-.469Zm0 .2h.469v.122h-.469Zm0 .2h.469v.122h-.469Zm0 .2h.469v.12h-.469Zm0 .2h.469v.134h-.469Zm-.564-1.236h.463v.161h-.463Zm0 .236h.463v.122h-.463Zm0 .2h.463v.12h-.463Zm0 .2h.463v.122h-.463Zm0 .2h.463v.122h-.463Zm0 .2h.463v.12h-.463Zm0 .2h.463v.134h-.463Zm-.566-1.236h.463v.161h-.463Zm0 .236h.463v.122h-.463Zm0 .2h.463v.12h-.463Zm0 .2h.463v.122h-.463Zm0 .2h.463v.122h-.463Zm0 .2h.463v.12h-.463Zm0 .2h.463v.134h-.463Zm9.512-1.101h.265v.986h-.265zm-.072 1.106h.428v-1.218h-.427zm.041-1.146h.336v1.079H14.3Zm.04-.819h.255v.456h-.255zm.238-1.194-.28.238.005.013h.382a.41.41 0 0 0-.034-.138.6.6 0 0 0-.073-.113m-.734.001a.58.58 0 0 0-.071.113.41.41 0 0 0-.033.138h.375v-.013zm.326.227v-.43a.41.41 0 0 0-.251.125zm.087-.013.252-.305a.437.437 0 0 0-.252-.126zm.086.325h.245v.306h-.245Zm-.529 1.5h.265v.986h-.265zm.445-1.078h.428v-.55h-.427zm.041-.468h.335v.407H14.3Zm2.322-3.818.106.14.147-.265-.169-.025zm-13.993 4.96v.04h.021v1.768h.074v-1.768h.021v-.04l-.058-.015Zm19.258 1.719v.002h.021v.058h.074l.001-.058H22l-.058-.002zm-5.677.0093.5098-.0082.001.061-.51.0082zM2.661 15.249a.048.048 0 0 0-.041-.049c-.024 0-.033-.02-.024-.052.021-.072-.063-.3-.112-.3a.05.05 0 0 0-.039.051c0 .067-.044.068-.062 0a.193.193 0 0 1 .051-.137c.091-.12.091-.243 0-.222-.037.01-.067.01-.067 0 0-.046.083-.1.134-.105s.066-.016.056-.069a.365.365 0 0 1 .048-.286c.039-.063.049-.1.028-.127-.048-.063-.043-.091.053-.091s.1-.047.021-.123c-.029-.029-.046-.054-.029-.054.092 0 .161-.157.161-.361 0-.224-.05-.3-.118-.18-.036.054-.036.055-.036.009a.42.42 0 0 0-.015-.112c-.01-.042 0-.055.051-.055.083 0 .154-.1.1-.137-.023-.02-.025-.037-.008-.051a.555.555 0 0 0 .026-.4.246.246 0 0 1-.011-.175.25.25 0 0 0 0-.166.224.224 0 0 1-.016-.12c.033-.068-.017-.306-.069-.306-.068 0-.077.094-.033.177s.035.073-.02.022-.068-.056-.123-.008-.091.038-.091-.021a.024.024 0 0 1 .034-.021c.019 0 .029-.022.029-.061a.13.13 0 0 1 .026-.1c.028-.02.031-.038 0-.1s-.027-.077.014-.119.033-.073.016-.122-.021-.076 0-.091a.07.07 0 0 0 .014-.072c-.01-.033.01-.049.051-.049s.066-.019.066-.053a.046.046 0 0 0-.037-.051.1.1 0 0 1-.042-.017.094.094 0 0 1-.02-.132.612.612 0 0 0 .031-.445c-.032-.035-.034-.045-.007-.071s.03-.039-.01-.129-.041-.099-.005-.168a.418.418 0 0 0-.08-.4c-.041-.04-.046-.055-.013-.04.055.022.066-.055.014-.121s-.11-.051-.095.025a.079.079 0 0 1-.023.087.088.088 0 0 0-.038.071.047.047 0 0 1-.038.054.059.059 0 0 0-.051.043c-.008.026-.016.015-.016-.017s.01-.059.025-.059c.111 0 .153-.488.051-.56a.132.132 0 0 1-.051-.1.188.188 0 0 0-.058-.12c-.053-.048-.055-.056-.015-.109.05-.073.05-.09 0-.182-.035-.068-.034-.071.031-.055.086.022.08-.091-.006-.148a.086.086 0 0 1-.046-.069c.02-.076-.047-.326-.087-.326a.051.051 0 0 0-.038.062c0 .032-.01.046-.02.032a.34.34 0 0 1-.013-.144A.165.165 0 0 0 2 7.745v9.507a.07.07 0 0 1 0 .014v-.009.748l.143.007v-.066a2.8 2.8 0 0 0-.065-.337 5.6 5.6 0 0 1-.075-.339.594.594 0 0 1 .167-.385c.07-.037.068-.073.017-.139s-.012-.076.07-.01.133-.017.068-.11c-.048-.071-.035-.07.009-.07s.061-.028.074-.122a.38.38 0 0 1 .041-.143.137.137 0 0 0 .025-.085c0-.039.017-.07.039-.07a.063.063 0 0 0 .051-.03.09.09 0 0 0 .006-.032.1.1 0 0 0-.081-.112c-.044 0-.049-.008-.02-.03a.088.088 0 0 0 .024-.064.084.084 0 0 0-.088-.079c-.037 0-.068-.016-.068-.028s.038-.023.086-.013c.079.011.077 0 .071-.091s0-.11.051-.127a.1.1 0 0 0 .035-.021.086.086 0 0 0 0-.12c-.044-.037-.03-.086.027-.086a.057.057 0 0 0 .054-.054m18.649 2.676h.509v.061h-.509zm-14.641.091h1.788v-1.693H6.669ZM7.9 16.49h.462l.007.161H7.9Zm0 .236h.462l.007.122H7.9Zm0 .2h.462l.007.12H7.9Zm0 .2h.462l.007.122H7.9Zm0 .2h.462l.007.122H7.9Zm0 .2h.462l.007.12H7.9Zm0 .2h.462l.007.134H7.9Zm-.563-1.236H7.8v.161h-.463Zm0 .236H7.8v.122h-.463Zm0 .2H7.8v.12h-.463Zm0 .2H7.8v.122h-.463Zm0 .2H7.8v.122h-.463Zm0 .2H7.8v.12h-.463Zm0 .2H7.8v.134h-.463Zm-.568-1.236h.466v.161h-.466Zm0 .236h.466v.122h-.466Zm0 .2h.466v.12h-.466Zm0 .2h.466v.122h-.466Zm0 .2h.466v.122h-.466Zm0 .2h.466v.12h-.466Zm0 .2h.466v.134h-.466Zm14.004-.354.011.01a.6.6 0 0 0-.046-.044.16.16 0 0 0 .035.034m.317-.432a.4.4 0 0 1 .048 0 .17.17 0 0 0-.048 0m-.224.433s-.009.01 0 .014.008 0 .008-.008zm.144.012v-.001l-.002.001zm-.097-.392a.5.5 0 0 1 .1-.038.03.03 0 0 0 .012 0h.016a.18.18 0 0 1 .047 0 .43.43 0 0 0-.071 0 .38.38 0 0 0-.104.038m.707-.736-.004-.001.004.005zm-.6-.27v-.008s-.004.004 0 .008m.341 1.213c-.049 0-.057 0-.056-.011a.075.075 0 0 1 .018-.03c.022-.032.029-.043.029-.05V17.1a.012.012 0 0 0 0-.019.073.073 0 0 0-.027.033.4.4 0 0 1-.058.093 1 1 0 0 0-.063.085c-.019.029-.04.057-.047.066a.07.07 0 0 0-.012.021.01.01 0 0 0 .006.011c.01.006.014.006.014 0v-.033l.028-.035a1 1 0 0 0 .047-.063c.029-.043.035-.05.044-.046a.44.44 0 0 0 .135 0c-.002-.013-.009-.013-.058-.013m-.064.007c-.01 0-.012 0-.009-.009h.008l.007.007zm.482-.645h-.012s0 .007.012.007.011 0 .012-.007 0-.006-.011-.006zm-.708.831s0 .007.018.008a.022.022 0 0 0 .021-.006.053.053 0 0 0-.039-.002m.718-.876a.04.04 0 0 0-.019 0v.006h.012c.011 0 .017-.005.017-.014s.001.008-.01.008m-.305-.292.012.02h.005zm.016-.097-.02-.028.006.008zm.002.113h-.001l.005.005zm-.048 1.218v-.007c0-.009-.011-.014-.043-.023s-.04-.01-.039-.015a.28.28 0 0 1 .04-.044.2.2 0 0 0 .04-.045c0-.008-.009 0-.028.016l-.046.044a.17.17 0 0 0-.03.035.019.019 0 0 1-.018.012h-.009a.16.16 0 0 0 .044.015c.022.006.051.016.066.021s.04.011.043 0c0-.005-.006-.007-.013-.005s-.007 0-.007-.004m-.034-.107.006-.008h.006l-.007.006-.009.007zm-.055.072h-.007v-.015.01z"/></svg>