<svg xmlns="http://www.w3.org/2000/svg" fill="#44739e" viewBox="0 0 24 24"><path d="M12 2a10 10 0 1 0 10 10A10 10 0 0 0 12 2m1.25 17.188a5.9 5.9 0 0 1-2.622-.611 6.162 6.162 0 0 0 7.949-7.949 5.937 5.937 0 0 1-5.327 8.56m-.163-12.182c.047 0 .094.006.141.009l.152.011.141.016.149.019c.046.006.092.014.138.022s.1.016.148.026l.135.028.145.034.133.035.142.04.13.041.139.047.128.047c.045.017.091.035.136.054s.083.034.124.053l.133.059.122.059.128.066c.04.021.08.042.119.064l.125.072.115.07c.041.025.081.051.122.078l.11.074c.04.027.079.055.118.084s.072.052.107.079l.114.089.1.084.11.1c.033.029.066.058.1.089s.07.066.105.1l.094.093.1.1.09.1c.032.036.064.073.095.11l.085.1c.03.037.06.076.09.115s.054.069.08.1.056.079.084.119.051.072.075.108.053.082.079.123.048.075.07.112l.074.128c.021.038.043.076.064.115l.068.132c.019.039.04.078.058.117s.042.092.062.138.036.078.053.118.037.1.056.143.032.08.046.12.034.1.05.147.028.081.04.122.029.1.044.153.023.08.033.121.025.1.037.158.019.081.027.121.02.111.03.166c.007.04.015.079.021.119.008.058.015.117.022.175 0 .038.01.076.014.114.007.066.011.134.015.2 0 .03.006.061.007.092.005.1.008.2.008.3a5.834 5.834 0 0 1-5.834 5.834c-.1 0-.2 0-.3-.008l-.1-.007c-.065-.005-.13-.009-.194-.015-.04 0-.079-.01-.118-.015-.057-.007-.114-.013-.171-.021l-.124-.022a4 4 0 0 1-.16-.029c-.053-.011-.084-.019-.126-.028s-.1-.023-.154-.036-.083-.023-.125-.034l-.149-.043-.125-.041c-.048-.016-.1-.031-.143-.049l-.124-.047-.139-.055c-.041-.017-.082-.036-.122-.054s-.09-.039-.134-.06l-.12-.06-.13-.067-.117-.065c-.042-.024-.084-.048-.125-.073a8 8 0 0 1-.114-.071c-.038-.024-.081-.051-.121-.077l-.111-.077-.117-.083-.106-.082a5 5 0 0 1-.113-.088c-.037-.03-.069-.057-.1-.087s-.072-.061-.107-.093-.067-.061-.1-.092l-.1-.1-.1-.1a2.4 2.4 0 0 0-.1-.1l-.091-.1a5 5 0 0 1-.092-.107 7 7 0 0 1-.173-.216 8 8 0 0 1-.082-.11l-.081-.115c-.026-.037-.051-.075-.077-.113l-.076-.119-.071-.117a8 8 0 0 1-.136-.244 4 4 0 0 1-.064-.127c-.021-.043-.041-.082-.06-.124s-.04-.086-.059-.13l-.054-.127c-.018-.044-.035-.088-.053-.133s-.032-.087-.047-.13-.032-.091-.047-.137a4 4 0 0 1-.041-.133c-.013-.045-.027-.093-.04-.139s-.024-.09-.035-.135a4 4 0 0 1-.033-.143c-.01-.048-.02-.092-.029-.138s-.018-.1-.026-.145a3 3 0 0 1-.022-.14l-.019-.147c-.006-.047-.011-.1-.016-.143s-.008-.1-.011-.149-.007-.1-.009-.144v-.251a5.83 5.83 0 0 1 .257-1.717 2.917 2.917 0 1 0 3.859-3.859A5.83 5.83 0 0 1 12.833 7c.085 0 .167 0 .254.006M4.5 12a.834.834 0 0 1-1.667 0A9.167 9.167 0 0 1 12 2.833.834.834 0 0 1 12 4.5 7.5 7.5 0 0 0 4.5 12"/></svg>