<svg xmlns="http://www.w3.org/2000/svg" viewBox="0 0 24 24"><path fill="#44739e" d="M12 1a11 11 0 1 0 11 11A11 11 0 0 0 12 1m1.375 18.907a6.49 6.49 0 0 1-2.884-.672 6.778 6.778 0 0 0 8.744-8.744 6.531 6.531 0 0 1-5.86 9.416m-.179-13.4c.051 0 .103.006.155.009l.167.013.155.017.164.021c.051.007.101.015.152.024s.11.018.163.029l.148.031.16.037.146.039.156.044.143.045.153.051.141.052c.049.019.1.039.149.059s.092.038.137.059l.146.065.134.065.141.072c.044.023.088.046.131.071l.137.079.127.077c.045.027.089.056.134.086l.121.081c.044.03.087.06.13.092s.079.058.118.087l.125.098.11.093.121.11c.036.031.073.063.11.097s.077.073.116.11l.103.103.11.11.099.11c.035.039.07.08.105.121l.093.11c.033.04.066.083.099.126s.059.076.088.11.062.087.092.131.056.079.083.119.058.09.087.135.053.083.077.123l.081.141c.023.042.047.084.071.127l.074.145c.021.043.044.086.064.129s.046.101.068.151.04.086.059.13.04.11.061.158.036.088.051.132.037.11.055.161.031.089.044.134.032.11.048.169.026.088.037.133.027.11.04.174.021.089.03.133.022.122.033.182c.008.044.017.087.023.131.009.064.017.129.024.193 0 .042.011.083.016.125.007.073.012.148.016.22 0 .033.007.067.008.101.005.11.009.22.009.33a6.417 6.417 0 0 1-6.418 6.418c-.11 0-.22 0-.33-.009l-.11-.008c-.071-.005-.143-.01-.213-.016-.044 0-.087-.011-.13-.017a6 6 0 0 1-.188-.023l-.136-.024a4 4 0 0 1-.176-.032c-.059-.012-.093-.021-.139-.031s-.11-.025-.169-.039-.092-.026-.138-.038l-.164-.047-.137-.045c-.053-.018-.11-.034-.158-.054l-.136-.052-.153-.06c-.045-.019-.09-.04-.134-.06s-.099-.043-.147-.066l-.132-.066-.143-.073-.129-.072a6 6 0 0 1-.138-.08 9 9 0 0 1-.125-.078c-.042-.027-.089-.056-.133-.085l-.122-.085-.129-.091-.117-.09a6 6 0 0 1-.124-.097c-.041-.033-.076-.063-.11-.096s-.079-.067-.118-.102-.073-.067-.11-.101l-.11-.11-.11-.11a2.6 2.6 0 0 0-.11-.11l-.1-.11a6 6 0 0 1-.101-.118 8 8 0 0 1-.19-.237 9 9 0 0 1-.09-.121l-.089-.127a5 5 0 0 1-.085-.124l-.084-.131-.078-.129a9 9 0 0 1-.149-.268 4 4 0 0 1-.071-.14c-.023-.047-.045-.09-.066-.136s-.044-.095-.065-.143l-.059-.14c-.02-.048-.039-.097-.058-.146s-.036-.096-.052-.143-.035-.1-.052-.151a4 4 0 0 1-.045-.146c-.014-.05-.03-.103-.044-.153s-.026-.099-.038-.149a4 4 0 0 1-.037-.157c-.011-.053-.022-.101-.032-.152s-.019-.11-.028-.159a3 3 0 0 1-.024-.154l-.021-.162c-.007-.052-.012-.11-.018-.157s-.009-.11-.012-.164-.008-.11-.01-.159v-.276a6.41 6.41 0 0 1 .283-1.888 3.209 3.209 0 1 0 4.245-4.245 6.41 6.41 0 0 1 1.888-.283c.094 0 .184 0 .28.007M3.75 12a.917.917 0 0 1-1.834 0A10.084 10.084 0 0 1 12 1.916a.917.917 0 0 1 0 1.834A8.25 8.25 0 0 0 3.75 12"/></svg>