<svg xmlns="http://www.w3.org/2000/svg" fill="#44739e" viewBox="0 0 24 24"><path d="M7.2851 18.028h7.167v-.184h-1.634zm4.123-5.428.379.184.06-.38h.406v.233l1.016-.012.147-.221v-1.52h-.885a.62.62 0 0 1 .068.287.475.475 0 0 1-.412.52.475.475 0 0 1-.412-.52.61.61 0 0 1 .069-.287h-.485v1.357l.049.111zm3.591 2.465h-1.093a.2045.2045 0 0 0 0 .409h1.093a.2045.2045 0 1 0 0-.409m-5.982-6.213a.129.129 0 0 0-.152.1.124.124 0 0 0 .075.158.143.143 0 0 0 .159-.11.113.113 0 0 0-.082-.148m-2.749.789h3.2a.151.151 0 0 0 .15-.133l.106-.831a.153.153 0 0 0-.036-.12.155.155 0 0 0-.114-.051h-3.135a.152.152 0 0 0-.148.121l-.171.831a.15.15 0 0 0 .031.127.151.151 0 0 0 .117.056m1.886-.287h-1.855l.159-.685h1.812zm.939-.764a.344.344 0 0 1 .244.443.443.443 0 0 1-.48.337.385.385 0 0 1-.232-.487.4.4 0 0 1 .468-.293m5.27-.724a.767.767 0 0 1 .458-.114.745.745 0 0 1 .408.128l.051-1.094.245-.009V6.04l-.339-.279h-.882l-.033.736.179.234v.016zm-1.841-.114a.746.746 0 0 1 .409.128l.051-1.094.244-.009V6.04l-.338-.279h-.883l-.033.736.18.234v.016l-.086 1.119a.764.764 0 0 1 .456-.114m-2.902.114a.762.762 0 0 1 .457-.114.74.74 0 0 1 .408.128l.052-1.094.244-.009V6.04l-.339-.279h-.882l-.033.739.18.234zm-2.199-.024a.764.764 0 0 1 .457-.114.746.746 0 0 1 .409.128l.051-1.094.244-.009v-.737l-.338-.28h-.883l-.033.737.18.234zm2.148.551a.265.265 0 0 1 .13.034l5.48.023c.2 0 .407 0 .61-.013l2.259-.025a.481.481 0 0 0 .487-.5V5.491a.254.254 0 0 0-.11-.208v-.412a5.1 5.1 0 0 0-.1-1.373 7 7 0 0 1-.061-.217 1.87 1.87 0 0 0-.786-1.25L17.4331 2l-9.983.1h-.051l-.042.026a2.113 2.113 0 0 0-.935 1.669c-.031.494-.049.878-.054 1.167l-.052.024a.6.6 0 0 0-.348.54v2.886h.367a.25.25 0 0 1 .1-.021zm-1.7-5.611h.28a.757.757 0 0 0-.279-.305l1.834-.018c-.405.141-.735 1.191-.773 2.458h-1.471a6.58 6.58 0 0 1 .41-2.135zm7.11 2.135a7.48 7.48 0 0 1 .351-2.135h.092a7.94 7.94 0 0 0-.331 2.135zm-4.982 0a6.58 6.58 0 0 1 .41-2.135h.1a7.52 7.52 0 0 0-.352 2.135zm-.591 0h-.107a4.018 4.018 0 0 1 .647-2.431.34.34 0 0 0-.065-.028h.31c-.407.118-.746 1.176-.784 2.459Zm-2.947 3.275V5.568h.417a4.574 4.574 0 0 0 .479 2.021l.066-.856-.179-.233.038-.849h.2c0-.028 0-.057-.007-.085h1.461a3.805 3.805 0 0 0 .606 2.185l.043-.57a5.9 5.9 0 0 1-.277-1.616h.1c.009.186.025.365.046.538l.019-.424h.545c0-.039-.007-.077-.009-.115h.154c0 .038 0 .076.008.115h.265c0-.039-.005-.077-.007-.116h.21q.008.137.018.273l.2.167v.859h-.059c.035.171.074.341.118.508h.209a10.47 10.47 0 0 1-.235-1.81h.132a11.54 11.54 0 0 0 .211 1.81h.19a5.44 5.44 0 0 1-.352-1.81h.1c.061 1.223.4 2.208.8 2.3l.031-.409a5.2 5.2 0 0 1-.39-1.9h.1a5.72 5.72 0 0 0 .3 1.668l.036-.468-.179-.233.038-.848h.565c0-.04-.006-.08-.008-.12h.265c0 .041 0 .081.008.121h.164l.048.039c0-.053-.007-.107-.01-.16h.255c.005.128.013.255.023.382l.096.068v.633c.036.249.081.5.134.736h.186a11.6 11.6 0 0 1-.211-1.815h.218a3.59 3.59 0 0 0 .647 2.23l.062-.811c-.031-.109-.06-.225-.085-.348l-.077-.1.012-.277a7.6 7.6 0 0 1-.064-.694h.1c0 .042.005.083.007.124h.759c0-.042-.006-.083-.008-.125h.111c0 .041 0 .083.008.125h.105l.15.124c-.006-.083-.011-.166-.016-.25h.169c.007.133.016.267.028.4l.062.05v.859h-.018v.353c-.028-.116-.054-.233-.078-.35h-.153l-.011.242c.023.087.047.173.073.259h-.085l-.019.409a1.16 1.16 0 0 0 .273-.4v.817zm11.452-4.8c.02.072.04.148.063.225a4.87 4.87 0 0 1 .086 1.253v.052h-.133c-.04-1.364-.42-2.474-.866-2.474s-.827 1.11-.867 2.474h-.1a7.6 7.6 0 0 1 .084-.947 11.1 11.1 0 0 1 .17-1.188h-.2a11.8 11.8 0 0 0-.22 2.135h-.176a11.8 11.8 0 0 1 .22-2.135h-.173a9.1 9.1 0 0 0-.286 2.135h-.169a9 9 0 0 1 .292-2.135h-.12c-.124-.216-.265-.339-.414-.339-.446 0-.826 1.11-.867 2.474h-.1a4.26 4.26 0 0 1 .6-2.377.347.347 0 0 0-.226-.1c-.446 0-.827 1.11-.867 2.474h-.22a11.7 11.7 0 0 1 .219-2.135h-.186a10.67 10.67 0 0 0-.256 2.133h-.256a8.9 8.9 0 0 1 .292-2.135h-.173a7.98 7.98 0 0 0-.331 2.135h-.266a7.55 7.55 0 0 1 .351-2.135h.183c-.124-.216-.266-.339-.415-.339-.445 0-.826 1.11-.866 2.474h-.1a4.146 4.146 0 0 1 .621-2.4.325.325 0 0 0-.192-.069c-.445 0-.826 1.11-.866 2.474h-.1a5.15 5.15 0 0 1 .436-2.135h-.268a11.7 11.7 0 0 0-.219 2.135h-.133a10.53 10.53 0 0 1 .244-2.135h-.209a9 9 0 0 0-.292 2.135h-.211a7.94 7.94 0 0 1 .331-2.135h-.065a.643.643 0 0 0-.341-.329l6.977-.067a1.51 1.51 0 0 1 .58.996zm-11.12.431a1.751 1.751 0 0 1 .713-1.337h.095c-.383.2-.691 1.218-.727 2.437h-.133c.005-.282.023-.645.052-1.105zm6.252 3.477.021.074h-.025v.1c.016-.031.032-.064.048-.1h.154q-.066-.249-.117-.5h-.057zm-2.464.392a1.46 1.46 0 0 0 .192-.323h-.018q-.075-.248-.132-.5zm-.959-.935-.062-.081c.016.073.033.144.052.212zm9.051 1.769-3.012.088h-5.829a.25.25 0 0 1 0 .077l-.106.831a.265.265 0 0 1-.262.232h-3.2a.265.265 0 0 1-.259-.318l.169-.822h-.652a.248.248 0 0 0-.247.248V21.6a.267.267 0 0 0 .262.267l9.164.133a6.8 6.8 0 0 0 1.464-.138l2.415-.5a.436.436 0 0 0 .347-.427V8.773a.247.247 0 0 0-.254-.247m-3.672 7.089h-.22v5.261l-8.936-.151V10.431l8.936.11v4.382h.22a.346.346 0 0 1 0 .692m-7.944 2.596h7.209c.1048 0 .189.0843.189.189v.368a.1886.1886 0 0 1-.189.189h-7.209a.1886.1886 0 0 1-.189-.189V18.4c0-.1047.0843-.189.189-.189"/></svg>