<svg xmlns="http://www.w3.org/2000/svg" viewBox="0 0 24 24"><path fill="#44739e" d="M10.342 15.725c-.03-.01-.102-.01-.183.081a.146.146 0 0 0-.145-.122c-.04-.011-.091 0-.162.071l.01-.071-.143-.021-.062.517.153.021.031-.297c.021-.102.071-.122.11-.122.061.01.072.06.061.133l-.04.307.154.01.04-.287c.01-.103.062-.123.103-.123.071.01.071.082.061.134l-.031.307.153.009.031-.306a.178.178 0 0 0-.141-.241m-2.609-.624-.419.614.163.05.082-.122.246.061.015.146.175.041-.093-.747Zm-.11.44.151-.241.021.287Zm.816-1.852a.232.232 0 0 0-.235-.236.235.235 0 1 0 0 .471.232.232 0 0 0 .235-.235m.522 1.708-.151-.031-.031.154-.092-.021-.021.102.092.021-.05.266c-.021.103.01.153.11.174a.47.47 0 0 0 .123.01l.02-.102c-.01 0-.031.011-.051 0-.061-.01-.052-.051-.042-.082l.042-.235.11.02.01-.101-.102-.021Zm.409.204a.254.254 0 0 0-.317.226.245.245 0 0 0 .226.317.255.255 0 0 0 .33-.22.265.265 0 0 0-.239-.323m.071.297c-.01.062-.04.164-.143.154s-.102-.133-.092-.194c.031-.164.11-.154.154-.154s.11.036.081.194m8.198-2.209a.235.235 0 1 0-.236.235.232.232 0 0 0 .236-.235m-9.221 2.057c-.01.029-.04.131-.133.11-.05-.01-.071-.052-.05-.143l.06-.298-.143-.03-.071.317a.166.166 0 0 0 .11.235.202.202 0 0 0 .194-.041l-.015.064.153.041.11-.502-.153-.041Zm-3.304-1.249a.235.235 0 0 1-.235.235.235.235 0 0 1-.236-.235.235.235 0 0 1 .236-.235.235.235 0 0 1 .235.235m12.627.378a.231.231 0 0 0-.235.228v.008a.235.235 0 1 0 .235-.236m-8.003-.951a.235.235 0 1 0-.235-.236.232.232 0 0 0 .235.236m-3.069-.471a.235.235 0 0 0 0 .471.235.235 0 0 0 0-.471m-1.525 0a.235.235 0 1 0 .225.235.232.232 0 0 0-.225-.235m1.126 1.422h-.008a.232.232 0 0 0-.227.236v.007a.231.231 0 0 0 .235.228h.01a.232.232 0 0 0 .228-.235v-.008a.232.232 0 0 0-.238-.228m5.863.747.01.706.154-.009-.011-.707Zm1.341-.061-.133.491-.205-.47-.225.019.04.697.174-.01-.04-.502h.011l.203.491.113-.01.143-.512.041.502.164-.011-.051-.705Zm-.44-1.873a.231.231 0 1 0-.226.236.23.23 0 0 0 .226-.236m-.635 2.129.031.511.153-.009-.031-.513Zm3.09.02c0 .051-.041.071-.081.082a.13.13 0 0 1-.154-.102l.389-.083-.011-.019a.251.251 0 0 0-.307-.236.27.27 0 0 0-.235.33.255.255 0 0 0 .33.22c.092-.021.22-.061.225-.22l-.154.031Zm-.245-.11c-.01-.123.081-.143.091-.143.042-.011.11-.011.133.102l-.22.041Zm.726-.381a.201.201 0 0 0-.153.122l-.01-.06-.144.031.123.5.143-.041-.061-.276c-.01-.021-.041-.133.061-.164.082-.019.102.062.11.11l.072.288.154-.041-.082-.307c-.039-.183-.142-.183-.213-.162m-1.893.327a.248.248 0 0 0-.236.308.252.252 0 0 0 .308.235.262.262 0 0 0 .246-.307.256.256 0 0 0-.318-.236m.061.44c-.11.01-.133-.093-.143-.154-.021-.164.062-.185.103-.185s.123-.01.133.154c.01.063.02.175-.093.185m-2.261-.307-.01.513h.154l.01-.513Zm-1.002-.051a.251.251 0 0 0-.297.257.254.254 0 0 0 .256.296.266.266 0 0 0 .307-.256.262.262 0 0 0-.266-.297m.102.286c0 .062-.021.175-.133.164s-.11-.11-.11-.183c.01-.164.102-.164.133-.164s.12.02.11.183m.583-.255a.23.23 0 0 0-.164.062l.01-.247-.153-.009-.031.706.143.01v-.061a.228.228 0 0 0 .164.091c.123 0 .236-.071.245-.266a.238.238 0 0 0-.214-.286m-.072.44c-.061 0-.11-.051-.11-.174 0-.04.02-.174.132-.163.083 0 .11.081.11.173-.009.118-.06.174-.132.164m.389-.614h.154v.124h-.154Zm4.953-.051-.062-.22c-.009-.062-.061-.185-.276-.123-.051.02-.225.071-.183.245l.142-.041c-.02-.071.041-.092.061-.102a.072.072 0 0 1 .102.041v.009c.011.052-.029.052-.133.103-.081.042-.162.092-.132.204.01.042.051.144.205.093a.211.211 0 0 0 .153-.11l.031.04.154-.04-.011-.01c-.02-.007-.041-.038-.051-.089m-.245.092c-.031.01-.083.01-.093-.031-.011-.061.041-.081.072-.102a.24.24 0 0 0 .081-.051l.01.03c.031.102-.035.144-.07.154m-5.311-1.729a.235.235 0 0 0 0-.471.235.235 0 0 0 0 .471m1.278 1.811-.01-.123-.154.01.011.113Zm1.781-1.811a.235.235 0 1 0-.225-.235.232.232 0 0 0 .225.235m.317-3.776a.23.23 0 0 0-.235.225v.008a.232.232 0 0 0 .235.228.231.231 0 1 0 0-.461m1.218-1.558a.235.235 0 1 0 0-.471.235.235 0 0 0 0 .471m-2.712 2.018a.231.231 0 1 0 0-.46.23.23 0 0 0-.235.225v.008a.232.232 0 0 0 .235.227m1.432-2.261a.239.239 0 0 0 .237-.236.245.245 0 0 0-.237-.235.238.238 0 0 0-.234.235v.008a.231.231 0 0 0 .234.228m1.32 2.026v.008a.232.232 0 0 0 .236.227.231.231 0 1 0 0-.46.23.23 0 0 0-.236.225m-2.609-2.169a.232.232 0 0 0 .235-.236.23.23 0 1 0-.459 0 .229.229 0 0 0 .224.236m-3.13 1.944a.23.23 0 0 0-.236.225v.008a.232.232 0 0 0 .236.227.231.231 0 0 0 0-.46m1.852-1.975h.008a.232.232 0 0 0 .227-.235V7.93a.232.232 0 0 0-.235-.228.235.235 0 0 0 0 .471m5.136.747a.237.237 0 0 0 .225-.235.23.23 0 0 0-.225-.236h-.007a.233.233 0 0 0-.229.236.238.238 0 0 0 .236.235m2.406 1.034a.239.239 0 0 0 .234-.235.231.231 0 0 0-.234-.236.239.239 0 0 0-.237.236.246.246 0 0 0 .237.235m-.431.655a.231.231 0 1 0 0-.461.23.23 0 0 0-.235.225v.008a.232.232 0 0 0 .235.228m-1.493 0a.231.231 0 1 0 0-.461.23.23 0 0 0-.236.225v.008a.231.231 0 0 0 .236.228m.797-1.259a.239.239 0 0 0 .236-.235.244.244 0 0 0-.236-.236.238.238 0 0 0-.235.236v.006a.233.233 0 0 0 .235.229m-6.774 1.259a.231.231 0 1 0-.235-.236v.008a.232.232 0 0 0 .235.228m7.47 3.653a.235.235 0 0 0 0 .47.235.235 0 0 0 0-.47m-4.369 1.148.051.235a.248.248 0 0 0-.164-.041.254.254 0 0 0-.195.317.246.246 0 0 0 .287.221.184.184 0 0 0 .133-.103l.01.062.154-.031-.123-.695Zm0 .634c-.071.011-.123-.051-.144-.153-.02-.083 0-.174.083-.195s.133.041.152.154c.021.12-.029.182-.091.191Zm-9.834-4.351H3.343v.542h1.586a.272.272 0 0 0 0-.542M12 7.088C6.403 7.088 1.839 9.298 1.839 12S6.403 16.912 12 16.912 22.161 14.702 22.161 12 17.597 7.088 12 7.088m8.626 2.947a.431.431 0 0 1-.287.737H8.777a.283.283 0 0 1-.133-.522 7.436 7.436 0 0 0 3.233-2.722c.696-.038 6.273.103 8.749 2.507m-.911 1.341v1.1a.377.377 0 0 1-.613.286l-1.301-.951a.139.139 0 0 0-.22.102v.932h-.316V11.76a.38.38 0 0 1 .623-.287l1.29.942a.129.129 0 0 0 .22-.103v-.93Zm-5.729 1.166v.297h-.331v-.798c0-.573.83-.686 1.269-.686.42 0 1.248.11 1.248.686v.798h-.317v-.297Zm-3.086-.021h1.351v-.245h-.962v-.317h1.28v.88H10.9a.735.735 0 1 1 0-1.463h1.669v.317H10.9a.419.419 0 1 0 0 .828m-4.07.021v.297h-.325v-.798c0-.573.829-.686 1.259-.686s1.258.11 1.258.686v.798h-.33v-.297Zm4.308-5.004a5.654 5.654 0 0 1-3.681 2.487l1.515-2.271a21.5 21.5 0 0 1 2.158-.216Zm-8.409 3.214c.716-1.147 2.517-2.149 4.779-2.702l-1.73 2.692Zm.287.624h1.913a.594.594 0 0 1 0 1.187H3.343v.276h-.33Zm17.6 2.589c-1.585 1.503-4.921 2.506-8.615 2.506-3.725 0-7.081-1.013-8.657-2.53a.433.433 0 0 1 .318-.716h16.667a.425.425 0 0 1 .286.74Zm.492-1.126h-.317v-1.463h.317Zm-5.24 1.085a.235.235 0 1 0 0-.471.235.235 0 1 0 0 .471m3.305-.236a.238.238 0 0 0-.235-.235.235.235 0 1 0 0 .471.238.238 0 0 0 .235-.236M7.764 11.67c-.236 0-.942.052-.942.369v.184h1.87v-.184c.002-.315-.724-.369-.928-.369M12 6.218c-6.058 0-11 2.6-11 5.782s4.942 5.782 11 5.782 11-2.6 11-5.782-4.942-5.782-11-5.782m0 11.134c-5.843 0-10.601-2.405-10.601-5.352S6.157 6.658 12 6.658c5.83 0 10.591 2.395 10.591 5.342S17.83 17.352 12 17.352m-.911-8.013a.237.237 0 0 0 .226-.235.23.23 0 0 0-.226-.236h-.007a.232.232 0 0 0-.228.236.238.238 0 0 0 .235.235m3.837 2.331c-.234 0-.94.052-.94.369v.184h1.869v-.184c.003-.315-.724-.369-.929-.369"/></svg>