<svg xmlns="http://www.w3.org/2000/svg" viewBox="0 0 24 24"><path fill="#44739e" d="M6.273 12.867c0-.255-.008-.469-.01-.725a1.54 1.54 0 0 0-.05-.386.614.614 0 0 0-.305-.395 1 1 0 0 0-.288-.11 2.44 2.44 0 0 0-.978-.018 1.18 1.18 0 0 0-.265.077.706.706 0 0 0-.417.456.56.56 0 0 0-.022.242.12.12 0 0 0 .012.043l.79.02a.36.36 0 0 1 .021-.141.24.24 0 0 1 .148-.148.46.46 0 0 1 .316-.006.22.22 0 0 1 .143.144.141.141 0 0 1-.021.127.185.185 0 0 1-.09.07.7.7 0 0 1-.067.022 3.1 3.1 0 0 1-.316.068c-.088.015-.164.029-.252.047a2.8 2.8 0 0 0-.33.088.71.71 0 0 0-.271.157.575.575 0 0 0-.187.356.69.69 0 0 0 .011.273.652.652 0 0 0 .465.496 1.14 1.14 0 0 0 .775-.04.744.744 0 0 0 .308-.22c.017.058.033.11.053.161a.23.23 0 0 0 .047.081h.869a.374.374 0 0 1-.06-.185c-.022-.196-.022-.36-.029-.554m-.88-.077a.38.38 0 0 1-.061.167.33.33 0 0 1-.156.134.55.55 0 0 1-.187.049.42.42 0 0 1-.161-.014.22.22 0 0 1-.11-.066.206.206 0 0 1-.052-.099.157.157 0 0 1 .054-.155.31.31 0 0 1 .099-.059c.091-.033.17-.058.263-.085a2 2 0 0 0 .318-.113.88.88 0 0 1 0 .241Zm6.145.077c0-.255-.008-.469-.01-.725a1.47 1.47 0 0 0-.051-.386.612.612 0 0 0-.303-.395 1.01 1.01 0 0 0-.29-.11 2.43 2.43 0 0 0-.974-.022 1.18 1.18 0 0 0-.265.077.701.701 0 0 0-.417.457.55.55 0 0 0-.023.242.12.12 0 0 0 .013.043l.789.02a.34.34 0 0 1 .022-.141.234.234 0 0 1 .148-.149.455.455 0 0 1 .315-.005.22.22 0 0 1 .143.144.144.144 0 0 1-.02.126.185.185 0 0 1-.09.071.8.8 0 0 1-.068.022 3.1 3.1 0 0 1-.315.068 7 7 0 0 0-.252.046 2.6 2.6 0 0 0-.33.088.69.69 0 0 0-.272.158.576.576 0 0 0-.188.356.74.74 0 0 0 .011.273.653.653 0 0 0 .467.496 1.14 1.14 0 0 0 .775-.04.733.733 0 0 0 .307-.22c.018.057.033.11.053.161a.23.23 0 0 0 .047.081h.87a.385.385 0 0 1-.061-.186 7 7 0 0 1-.031-.55m-.88-.077a.396.396 0 0 1-.062.167.34.34 0 0 1-.156.134.56.56 0 0 1-.187.049.42.42 0 0 1-.162-.014.235.235 0 0 1-.11-.066.203.203 0 0 1-.05-.099.155.155 0 0 1 .053-.155.32.32 0 0 1 .099-.059c.091-.033.17-.058.264-.085a2.04 2.04 0 0 0 .314-.116.9.9 0 0 1-.001.244Zm5.019-1.578a1.7 1.7 0 0 0-.531 0 1.21 1.21 0 0 0-.684.339 1.116 1.116 0 0 0-.352.731 1.35 1.35 0 0 0 .046.505 1.16 1.16 0 0 0 .43.636 1.1 1.1 0 0 0 .463.22 1.73 1.73 0 0 0 .726 0 1.11 1.11 0 0 0 .463-.22 1.153 1.153 0 0 0 .429-.636 1.33 1.33 0 0 0 .046-.505 1.11 1.11 0 0 0-.352-.731 1.21 1.21 0 0 0-.684-.339m.063 1.667a.353.353 0 0 1-.468.177.335.335 0 0 1-.177-.177.81.81 0 0 1-.066-.226 1.28 1.28 0 0 1 .01-.471.605.605 0 0 1 .092-.227.341.341 0 0 1 .473-.099.33.33 0 0 1 .099.099.605.605 0 0 1 .093.227 1.31 1.31 0 0 1 .01.471.81.81 0 0 1-.066.226m-11.956-1.9a1.111 1.111 0 0 0-.971-.66H1v3.283h.997V12.59h.601a1.94 1.94 0 0 0 .44-.048 1.064 1.064 0 0 0 .845-.94 1.12 1.12 0 0 0-.099-.623m-.88.558a.297.297 0 0 1-.059.143.32.32 0 0 1-.25.135c-.074 0-.136.006-.211.006h-.387v-.714h.583a.33.33 0 0 1 .33.301.52.52 0 0 1-.003.129Zm10.934.824a.99.99 0 0 0-.388-.211l-.094-.026a4 4 0 0 0-.531-.11 1.5 1.5 0 0 1-.143-.028.33.33 0 0 1-.064-.022.103.103 0 0 1-.052-.138v-.008a.206.206 0 0 1 .127-.1.448.448 0 0 1 .284.006.213.213 0 0 1 .146.214h.828a.83.83 0 0 0-.05-.283.51.51 0 0 0-.17-.234.81.81 0 0 0-.22-.127 1.2 1.2 0 0 0-.24-.067 2.46 2.46 0 0 0-.589-.033 1.9 1.9 0 0 0-.33.049 1.01 1.01 0 0 0-.408.197.653.653 0 0 0-.22.311.54.54 0 0 0-.033.171.66.66 0 0 0 .048.286.62.62 0 0 0 .361.361 1.4 1.4 0 0 0 .254.076c.182.037.33.067.516.098a1.2 1.2 0 0 1 .188.046.154.154 0 0 1 .102.116.17.17 0 0 1-.047.16.268.268 0 0 1-.156.081.447.447 0 0 1-.234-.022.33.33 0 0 1-.101-.058.253.253 0 0 1-.081-.123.37.37 0 0 1-.018-.125h-.864v.05a.6.6 0 0 0 .041.22.71.71 0 0 0 .191.285.9.9 0 0 0 .39.22 2.06 2.06 0 0 0 .93.059 1.28 1.28 0 0 0 .417-.136.8.8 0 0 0 .161-.11.716.716 0 0 0 .226-.781.565.565 0 0 0-.177-.264m-5.444-1.145a.95.95 0 0 0-.693.052 1.43 1.43 0 0 0-.364.236l-.02-.248h-.846v2.345h.902v-1.307a.374.374 0 0 1 .055-.202.35.35 0 0 1 .44-.146.254.254 0 0 1 .151.167.43.43 0 0 1 .02.127v1.361h.93v-1.514a1.13 1.13 0 0 0-.055-.359.756.756 0 0 0-.52-.512m10.372 0a.948.948 0 0 0-.692.052 1.43 1.43 0 0 0-.365.236l-.019-.248h-.85v2.345h.902v-1.307a.385.385 0 0 1 .055-.202.352.352 0 0 1 .44-.146.26.26 0 0 1 .15.167.42.42 0 0 1 .019.127v1.361h.932v-1.514a1.1 1.1 0 0 0-.056-.359.756.756 0 0 0-.516-.512m.76.041h.877v2.345h-.877Zm0-.938h.877v.619h-.877Zm2.627 2.315a1.2 1.2 0 0 1-.017.142.357.357 0 0 1-.088.18.27.27 0 0 1-.169.092.33.33 0 0 1-.291-.093.473.473 0 0 1-.139-.232 1.08 1.08 0 0 1 .01-.643.37.37 0 0 1 .165-.213.33.33 0 0 1 .376.018.393.393 0 0 1 .156.26h.802a.71.71 0 0 0-.084-.382.91.91 0 0 0-.201-.264 1.02 1.02 0 0 0-.461-.253 1.54 1.54 0 0 0-.739-.018 1.158 1.158 0 0 0-.903.852 1.276 1.276 0 0 0-.029.569 1.1 1.1 0 0 0 .139.388 1.25 1.25 0 0 0 .354.397 1.144 1.144 0 0 0 .602.235 1.54 1.54 0 0 0 .491-.024 1.146 1.146 0 0 0 .631-.348.85.85 0 0 0 .239-.66Z"/></svg>