<svg xmlns="http://www.w3.org/2000/svg" fill="#44739e" viewBox="0 0 24 24"><path d="M6.794 12.789c0-.232-.008-.427-.009-.659a1.4 1.4 0 0 0-.046-.351.558.558 0 0 0-.277-.359.91.91 0 0 0-.262-.1 2.22 2.22 0 0 0-.889-.017 1.07 1.07 0 0 0-.241.07.642.642 0 0 0-.379.415.51.51 0 0 0-.02.22.11.11 0 0 0 .011.039l.718.018a.33.33 0 0 1 .019-.128.218.218 0 0 1 .135-.135.417.417 0 0 1 .287-.005.2.2 0 0 1 .13.131.128.128 0 0 1-.019.115.168.168 0 0 1-.082.064.6.6 0 0 1-.061.02 2.8 2.8 0 0 1-.287.062c-.08.013-.149.026-.229.042a2.5 2.5 0 0 0-.3.08.646.646 0 0 0-.247.143.523.523 0 0 0-.17.324.63.63 0 0 0 .01.248.593.593 0 0 0 .423.451 1.036 1.036 0 0 0 .705-.036.676.676 0 0 0 .28-.2c.015.052.03.1.048.146a.21.21 0 0 0 .043.074h.79a.34.34 0 0 1-.055-.169c-.02-.178-.02-.327-.026-.503m-.8-.07a.346.346 0 0 1-.056.152.3.3 0 0 1-.142.121.5.5 0 0 1-.17.045.38.38 0 0 1-.146-.013.2.2 0 0 1-.1-.06.187.187 0 0 1-.047-.09.143.143 0 0 1 .049-.141.28.28 0 0 1 .09-.053c.083-.03.154-.053.239-.078A1.8 1.8 0 0 0 6 12.5a.8.8 0 0 1 0 .219Zm5.586.07c0-.232-.007-.427-.009-.659a1.34 1.34 0 0 0-.046-.351.556.556 0 0 0-.276-.359.92.92 0 0 0-.263-.1 2.21 2.21 0 0 0-.886-.02 1.07 1.07 0 0 0-.241.07.637.637 0 0 0-.379.415.5.5 0 0 0-.021.22.11.11 0 0 0 .012.039l.717.018a.31.31 0 0 1 .02-.128.213.213 0 0 1 .135-.135.414.414 0 0 1 .286-.005.2.2 0 0 1 .13.131.131.131 0 0 1-.018.115.168.168 0 0 1-.082.064.7.7 0 0 1-.062.02 2.8 2.8 0 0 1-.286.062 6 6 0 0 0-.229.042 2.4 2.4 0 0 0-.3.08.63.63 0 0 0-.247.143.524.524 0 0 0-.171.324.67.67 0 0 0 .01.248.594.594 0 0 0 .424.451 1.037 1.037 0 0 0 .705-.036.666.666 0 0 0 .279-.2c.016.052.03.1.048.146a.21.21 0 0 0 .043.074h.791a.35.35 0 0 1-.056-.169 6.4 6.4 0 0 1-.028-.5m-.8-.07a.36.36 0 0 1-.056.152.31.31 0 0 1-.142.121.51.51 0 0 1-.17.045.38.38 0 0 1-.147-.013.214.214 0 0 1-.1-.06.185.185 0 0 1-.046-.09.141.141 0 0 1 .048-.141.29.29 0 0 1 .09-.053c.083-.03.155-.053.24-.078a1.85 1.85 0 0 0 .286-.105.83.83 0 0 1-.001.222zm4.563-1.435a1.54 1.54 0 0 0-.483 0 1.1 1.1 0 0 0-.622.308 1.015 1.015 0 0 0-.32.665 1.23 1.23 0 0 0 .042.459 1.055 1.055 0 0 0 .391.578 1 1 0 0 0 .421.2 1.57 1.57 0 0 0 .66 0 1.01 1.01 0 0 0 .421-.2 1.048 1.048 0 0 0 .39-.578 1.21 1.21 0 0 0 .042-.459 1.01 1.01 0 0 0-.32-.665 1.1 1.1 0 0 0-.622-.308M15.4 12.8a.321.321 0 0 1-.425.161.305.305 0 0 1-.161-.161.74.74 0 0 1-.06-.206 1.16 1.16 0 0 1 .009-.428.55.55 0 0 1 .084-.206.31.31 0 0 1 .43-.09.3.3 0 0 1 .09.09.55.55 0 0 1 .084.206 1.19 1.19 0 0 1 .009.428.74.74 0 0 1-.06.206M4.531 11.072a1.01 1.01 0 0 0-.883-.6H2v2.985h.906v-.92h.547a1.76 1.76 0 0 0 .4-.044.967.967 0 0 0 .768-.854 1.017 1.017 0 0 0-.09-.567m-.8.508a.27.27 0 0 1-.054.13.291.291 0 0 1-.227.122c-.067 0-.124.006-.192.006h-.352v-.649h.53a.3.3 0 0 1 .3.273.47.47 0 0 1-.002.118zm9.94.749a.9.9 0 0 0-.353-.192l-.085-.024a3.6 3.6 0 0 0-.483-.1 1.4 1.4 0 0 1-.13-.025.3.3 0 0 1-.058-.02.094.094 0 0 1-.047-.126v-.007a.187.187 0 0 1 .115-.091.407.407 0 0 1 .258.006.194.194 0 0 1 .133.194h.753a.75.75 0 0 0-.046-.257.463.463 0 0 0-.154-.213.74.74 0 0 0-.2-.115 1.1 1.1 0 0 0-.218-.061 2.24 2.24 0 0 0-.536-.03 1.75 1.75 0 0 0-.3.044.92.92 0 0 0-.371.179.594.594 0 0 0-.2.283.49.49 0 0 0-.03.156.6.6 0 0 0 .044.26.564.564 0 0 0 .328.328 1.25 1.25 0 0 0 .231.069c.165.034.3.061.469.089a1.1 1.1 0 0 1 .171.042.14.14 0 0 1 .093.105.155.155 0 0 1-.043.146.244.244 0 0 1-.142.073.406.406 0 0 1-.213-.02.3.3 0 0 1-.091-.052.23.23 0 0 1-.074-.112.34.34 0 0 1-.016-.114h-.786v.046a.55.55 0 0 0 .037.2.645.645 0 0 0 .174.259.82.82 0 0 0 .355.2 1.874 1.874 0 0 0 .845.053 1.16 1.16 0 0 0 .379-.123.74.74 0 0 0 .147-.1.651.651 0 0 0 .205-.71.514.514 0 0 0-.161-.24m-4.949-1.041a.864.864 0 0 0-.63.047 1.3 1.3 0 0 0-.331.215l-.018-.226h-.769v2.132h.82v-1.188a.34.34 0 0 1 .05-.184.318.318 0 0 1 .4-.133.231.231 0 0 1 .137.152.39.39 0 0 1 .018.116v1.237h.846V12.08a1.03 1.03 0 0 0-.05-.327.687.687 0 0 0-.473-.465m9.429 0a.862.862 0 0 0-.629.047 1.3 1.3 0 0 0-.332.215l-.017-.226H16.4v2.132h.82v-1.188a.35.35 0 0 1 .05-.184.32.32 0 0 1 .4-.133.236.236 0 0 1 .137.152.38.38 0 0 1 .017.116v1.237h.847V12.08a1 1 0 0 0-.051-.327.687.687 0 0 0-.469-.465m.691.037h.797v2.132h-.797zm0-.853h.797v.563h-.797zm2.388 2.105a1.1 1.1 0 0 1-.015.129.325.325 0 0 1-.08.164.246.246 0 0 1-.154.083.3.3 0 0 1-.264-.084.43.43 0 0 1-.127-.211.98.98 0 0 1 .009-.585.337.337 0 0 1 .15-.193.3.3 0 0 1 .342.016.357.357 0 0 1 .142.236h.729a.645.645 0 0 0-.076-.347.83.83 0 0 0-.183-.24.926.926 0 0 0-.419-.23 1.4 1.4 0 0 0-.672-.016 1.053 1.053 0 0 0-.821.774 1.16 1.16 0 0 0-.026.518 1 1 0 0 0 .126.352 1.14 1.14 0 0 0 .322.361 1.04 1.04 0 0 0 .547.214 1.4 1.4 0 0 0 .447-.022 1.042 1.042 0 0 0 .573-.316.772.772 0 0 0 .218-.6z"/></svg>