<svg xmlns="http://www.w3.org/2000/svg" viewBox="0 0 24 24"><path fill="#44739e" d="M13.884 10.732h1.834v2.538h-1.834Zm3.649-5.417.081.127v.109h2.546a2.04 2.04 0 0 0-.204-.846 4.3 4.3 0 0 0-.598-.828l-1.934 1.322Zm-3.649 1.926h1.834v1.481h-1.834Zm2.445 2.961h-3.055v3.491h3.055Zm-.407 3.174H13.68V10.52h2.242Zm2.241-10.265a3.54 3.54 0 0 0-1.019-.211v2.115l1.935-1.481a3.57 3.57 0 0 0-.916-.423m-1.834 3.601h-3.055V9.25h3.055Zm-.407 2.221H13.68V7.029h2.242Zm4.583-2.221h-3.056V9.25h3.056Zm-.407 2.221h-2.24V7.029h2.241Zm-6.112 6.453h1.834v5.183h-1.834ZM10.624 1v21.154H1.152V23h21.696V1Zm5.908 20.309H13.07v-6.558h3.462Zm0-7.404H13.07V9.991h3.462Zm0-4.448H13.07V6.5h3.462Zm-.41-3.697H13.07c0-2.433 2.546-3.279 3.768-3.279a3.52 3.52 0 0 1 3.769 3.279h-3.056a.752.752 0 0 0-.713-.634.69.69 0 0 0-.716.634m4.584 15.549h-3.46v-6.558h3.463Zm0-7.404h-3.46V9.991h3.463Zm0-4.448h-3.46V6.5h3.463Zm-4.377 5.506h-2.953v6.134h2.953Zm-.305 5.817H13.68v-5.606h2.344Zm2.037-13.539h1.833v1.481h-1.833Zm-1.529-2.222V2.904a3.27 3.27 0 0 0-1.935.634Zm-2.831-.434a1.89 1.89 0 0 0-.223.964h2.555V5.44l.051-.108.102-.109-1.908-1.353a3.02 3.02 0 0 0-.577.715m5.683-.729h-.04l.013.019Zm1.019 11.107h-2.954v6.134h2.954Zm-.305 5.817h-2.343v-5.606h2.343Zm.407-10.578h-3.056v3.491h3.056Zm-.407 3.174h-2.24V10.52h2.241Zm-2.037-2.644h1.833v2.538h-1.833Zm-3.81-6.876.027.014a.2.2 0 0 1 .015-.018Zm3.81 11.53h1.833v5.183h-1.833Zm-11.885 2.87a4.252 4.252 0 1 0-4.279-4.252 4.262 4.262 0 0 0 4.279 4.252m0-5.831a.942.942 0 0 1 .408 1.795v1.446H5.77V14.22a.942.942 0 0 1 .406-1.795M4.207 9.338V8.337a1.97 1.97 0 0 1 3.939 0v1h.013a5 5 0 0 1 .801.425V8.337a2.785 2.785 0 0 0-5.568 0v1.429a5 5 0 0 1 .797-.425Z"/></svg>