<svg xmlns="http://www.w3.org/2000/svg" viewBox="0 0 24 24"><path fill="#44739e" d="M6.387 18.401a4.233 4.233 0 1 0-4.23-4.233 4.228 4.228 0 0 0 4.23 4.233m0-5.804a.938.938 0 0 1 .403 1.786v1.439h-.804v-1.439a.937.937 0 0 1 .401-1.786M4.44 9.524v-.995a1.948 1.948 0 0 1 3.894 0v.995l.013.005a5.04 5.04 0 0 1 .793.424V8.529a2.753 2.753 0 0 0-5.505 0v1.423a4.93 4.93 0 0 1 .791-.424ZM22.724 1l-12.045.031v21.165H1.276V23h21.448Zm-11.385.506h10.527v21.401H11.339Zm0 0v21.401h10.527V1.506ZM15.11 4.01h2.986v14.925H15.11Zm.291.296v14.307h2.423V4.301Zm.443.498h1.507v13.338h-1.507Z"/></svg>