<svg xmlns="http://www.w3.org/2000/svg" fill="#44739e" viewBox="0 0 24 24"><path d="m22.7267 2.1681-12.006.0018.0275 20.0275H1.3966v.7598h21.3301Zm-9.6289 1.9297h7.4492v9.1992h-7.4492zm.2188.1797v8.8203h7V4.2775Zm.3007.3008h6.3809v8.1386h-6.3809zm-.5195 9.6093h3.42v6.0801h-3.42zm4.0703 0h3.379v6.0801h-3.379Zm-3.791.2403v5.6289h2.9004v-5.629zm4 0v5.6289h2.9004v-5.629zm-3.7598.209h2.3399v5.1796h-2.3399zm4.0801 0h2.3008v5.1796h-2.2715Zm-3.8183.207v4.7793h1.789v-4.7793zm4.0488.0039v4.7793h1.8203v-4.7793z"/></svg>