<svg xmlns="http://www.w3.org/2000/svg" viewBox="0 0 24 24"><path fill="#44739e" d="m23 1.279-12.355.03v.869h.049l-.049 19.759.049-19.759H1v20.543h22Zm-10.733.965H21.9v19.641l-9.633-.032ZM2.6 3.269h7.683v9.488H2.6Zm.227.186v9.097h7.22V3.455Zm.309.31h6.581v8.394H3.136ZM2.6 13.676h3.527v6.271H2.6Zm4.198 0h3.485v6.271H6.798Zm-3.91.248v5.805h2.991v-5.805Zm4.125 0v5.805h2.992v-5.805Zm-3.877.215h2.413v5.343H3.136Zm4.208 0h2.373v5.343H7.376Zm-3.888.218v4.929h1.845v-4.929Zm4.125 0v4.929h1.878v-4.929Z"/></svg>