<svg xmlns="http://www.w3.org/2000/svg" viewBox="0 0 24 24"><path fill="#44739e" d="M10.638 1.287v.939h.008l-.008 19.664.008-19.664L1 2.21l.058 19.68v.823H23V1.287Zm1.34 1.03h9.684V21.89h-9.684Zm-6.079.515c1.237 0 3.71.618 3.813 3.193h-3.09c-.103-.515-.414-.722-.723-.722-.412 0-.72.413-.72.722h-3.09c0-2.369 2.574-3.193 3.81-3.193m-.307.308c-.722 0-1.292.246-1.91.658L5.592 5.2Zm.617 0V5.2l1.958-1.442c-.309-.207-.618-.308-.928-.411s-.721-.207-1.03-.207m-2.885.927s-.264.23-.481.578c-.204.327-.306.667-.306.976l2.54-.008.034-.099.062-.078.125-.121Zm5.151 0L6.517 5.303l.105.104.07.099.032.107H9.3c0-.309-.127-.69-.302-.952-.267-.403-.523-.594-.523-.594M2.089 6.745h3.503v2.886H2.089Zm4.223 0h3.503v2.886H6.312Zm-4.018.208v2.471h3.09V6.953Zm4.223 0v2.471h3.091V6.953Zm-3.811.308h2.266v1.855H2.706Zm4.224 0h2.267v1.855H6.93Zm.207.195v1.442h1.855V7.456Zm-4.226.008v1.442h1.856V7.464Zm-.822 2.682h3.503v3.811H2.089Zm4.223 0h3.503v3.811H6.312Zm-4.018.205v3.401h3.09v-3.401Zm4.223 0v3.401h3.091v-3.401Zm-3.811.31h2.266v2.781H2.706Zm4.224 0h2.267v2.781H6.93Zm-4.019.103v2.472h1.856v-2.472Zm4.226 0v2.472H8.99v-2.472Zm-5.048 4.018h3.503v6.386H2.089Zm4.223 0h3.503v6.386H6.312Zm-3.94.157v5.975h2.886v-5.975Zm4.234.042v5.976h2.885v-5.976Zm-4.002.213h2.368v5.459H2.604Zm4.263 0h2.37v5.459h-2.37Zm-3.988.197v5.049h1.856v-5.049Zm4.258.008v5.049H8.99v-5.049Z"/></svg>