<svg xmlns="http://www.w3.org/2000/svg" fill="#44739e" viewBox="0 0 24 24"><path d="M22.6992 2.1406 10.711 2.136l.0097 20.034H1.369v.7598h21.3301Zm-9.6289 2h3.42l.0096 2.7937-3.4247.0097zm4.0703 0h3.379l.0145 2.7889h-3.3935zm-3.8613.1895v2.4394h3V4.3301Zm4.0508 0v2.4394h3V4.3301Zm-3.6504.3398h2.2012v1.7403h-2.2012zm4.0508 0h2.209v1.7403h-2.209zm-3.8301.1602v1.3906h1.7598V4.8301zm4.0488 0v1.4004h1.7617V4.83Zm-4.8789 3.0195h3.42v5.4395h-3.42zm4.0703 0h3.379v5.4395h-3.379Zm-3.8613.2598v4.961h3v-4.961Zm4.0508 0v4.961h3v-4.961Zm-3.6504.4707h2.2012v4.0293h-2.2012zm4.0508 0h2.209v4.0293h-2.209zm-3.8301.2597v3.541h1.7598v-3.541Zm4.0605 0v3.541h1.7598v-3.541Zm-4.8906 5.42h3.42v6.08h-3.42zm4.0703 0h3.379v6.08h-3.379zm-3.791.2304v5.629H16.25v-5.629zm4 0v5.629H20.25v-5.629zm-3.7598.209h2.3399v5.1817h-2.3399zm4.0801 0h2.3008v5.1817h-2.2715zm-3.7695.211v4.7793h1.789v-4.7793zm4 0v4.7793h1.8203v-4.7793z"/></svg>