<svg xmlns="http://www.w3.org/2000/svg" viewBox="0 0 24 24"><path fill="#44739e" d="M10.606 1.258v20.657H1v.827h22V1.258Zm1.446 20.657V2.394h9.709v19.625Zm6.094-14.563h1.859v1.446h-1.859Zm-4.235 0h1.859v1.446h-1.859Zm4.235 3.409h1.859v2.478h-1.859Zm-4.235 0h1.859v2.478h-1.859Zm6.713-1.446h-3.098V6.836h3.098Zm-2.685-.31h2.272V7.146h-2.272Zm-1.549.31h-3.099V6.836h3.099Zm-2.686-.31h2.273V7.146h-2.273Zm6.92 4.648h-3.098v-3.409h3.098Zm-2.685-.31h2.272v-2.789h-2.272Zm-1.549.31h-3.099v-3.409h3.099Zm-2.686-.31h2.273v-2.789h-2.273Zm4.442 1.962h1.859v5.061h-1.859Zm2.375 5.578h-2.995v-5.991h2.995Zm-2.685-.31h2.375v-5.474h-2.375Zm-3.822-5.268h1.859v5.061h-1.859Zm2.376 5.578h-2.996v-5.991h2.996Zm-2.686-.31h2.376v-5.474h-2.376Zm3.512-17.456a3.67 3.67 0 0 1 1.033.207 3.67 3.67 0 0 1 .929.413l-1.962 1.446Zm-.62 2.066-1.962-1.446a3.4 3.4 0 0 1 1.962-.62Zm2.892-1.136-1.993 1.312.113.113.083.124V5.7h2.582a1.94 1.94 0 0 0-.206-.827 4.3 4.3 0 0 0-.62-.826m-5.164 0 1.962 1.343-.103.103-.052.103V5.7h-2.592a1.787 1.787 0 0 1 .227-.94 2.98 2.98 0 0 1 .599-.713m-2.272-1.653v19.521l9.709.104V2.394Zm4.544 18.695h-3.511v-6.404h3.511Zm0-7.23h-3.511v-3.821h3.511Zm0-4.338h-3.511V6.629h3.511Zm-.413-3.615h-3.098c0-2.375 2.582-3.202 3.821-3.202s3.718.62 3.822 3.202h-3.099a.754.754 0 0 0-.723-.62.692.692 0 0 0-.723.62m4.648 15.183h-3.512v-6.404h3.512Zm0-7.23h-3.512v-3.821h3.512Zm0-4.338h-3.512V6.629h3.512Z"/></svg>