<svg xmlns="http://www.w3.org/2000/svg" viewBox="0 0 24 24"><path fill="#44739e" d="m23 1.282-12.362-.006.007 1.025V21.94 2.301L1.03 2.273 1 21.94v.784h22ZM12.068 2.406h9.633l.056 19.511-9.689.023ZM2.6 3.252h3.527l.007 2.916-3.527.007Zm4.198 0h3.485v2.902l-3.478.007Zm-3.981.195v2.516h3.094V3.447Zm4.176 0v2.516h3.094V3.447Zm-3.765.351h2.27v1.794h-2.27Zm4.178 0h2.279v1.794H7.406Zm-3.95.165v1.434h1.815V3.963Zm4.178 0v1.444h1.815V3.963ZM2.6 7.077h3.527v5.61H2.6Zm4.198 0h3.485v5.61H6.798Zm-3.981.268v5.117h3.094V7.345Zm4.176 0v5.117h3.094V7.345Zm-3.765.486h2.27v4.155h-2.27Zm4.178 0h2.278v4.155H7.406Zm-3.95.267v3.651h1.815V8.098Zm4.188 0v3.651h1.815V8.098ZM2.6 13.679h3.527v6.271H2.6Zm4.198 0h3.485v6.271H6.798Zm-3.91.247v5.806h2.991v-5.806Zm4.125 0v5.806h2.992v-5.806Zm-3.877.216h2.413v5.342H3.135Zm4.208 0h2.373v5.342H7.376Zm-3.888.218v4.929h1.845v-4.93Zm4.125 0v4.929h1.878v-4.93Z"/></svg>