<svg xmlns="http://www.w3.org/2000/svg" fill="#44739e" viewBox="0 0 24 24"><path d="M22.6992 2.1406 10.7207 2.17v20V3.1582H1.3691v19.7715h21.3301ZM12.0996 3.2305h9.3399v19l-9.3399-.0606zM5.0511 4.437h3.1457v4.2306H5.0365Zm.1598.1724v3.9101H8V4.6094Zm.1094.1406h2.5488v3.5996H5.3203Zm-.2838 5.2496 3.1846-.0048-.0098 4.3356-3.1894.0146zm.1744.2113v3.9082H8V10.211zm.1094.129h2.5488v3.5996H5.3203ZM5.0413 15.9l3.17.0146-.0097 4.3065-3.17.0097zm.1696.2308v3.9082H8v-3.9082zm.1094.1289h2.5488v3.5996H5.3203Z"/></svg>