<svg xmlns="http://www.w3.org/2000/svg" viewBox="0 0 24 24"><path fill="#44739e" d="M17.642 15.201h1.717v4.698h-1.717ZM16.608 2.45h-3.256v3.291h3.256Zm-.292 3.037h-2.661V2.706h2.658Zm.292.497h-3.256v3.334h3.256Zm-.292 3.079h-2.661V6.238h2.658Zm.603 11.461h3.161v-5.916h-3.163Zm.403-5.641h2.361v5.291h-2.361Zm-3.874 5.641h3.229v-5.916h-3.231Zm.411-5.641h2.407v5.291h-2.41ZM20.108 2.45h-3.261v3.291h3.261Zm-.302 3.037h-2.662V2.706h2.658Zm.302.497h-3.261v3.334h3.261Zm-.302 3.079h-2.662V6.238h2.658Zm-2.939 3.746h3.261V9.508h-3.261Zm.302-3.036h2.658v2.783h-2.658Zm-3.02 5.428h1.815v4.698h-1.815Zm-.775-2.392h3.262V9.508h-3.262Zm.303-3.036h2.656v2.783h-2.656Zm-2.999-8.741v21.163H1.264V23h21.472V1Zm2.485 19.798v-6.603h7.188v6.603Zm7.188-7.873h-7.188V2.292h7.188Zm-13.97 5.356a4.233 4.233 0 1 0-4.233-4.234 4.231 4.231 0 0 0 4.233 4.234m0-5.804a.938.938 0 0 1 .404 1.785v1.439h-.806v-1.439a.938.938 0 0 1 .402-1.786ZM4.432 9.436V8.44a1.95 1.95 0 0 1 3.899 0v.996l.013.005a5.04 5.04 0 0 1 .793.424V8.44a2.755 2.755 0 0 0-5.511 0v1.424a5.04 5.04 0 0 1 .793-.429Z"/></svg>