<svg xmlns="http://www.w3.org/2000/svg" viewBox="0 0 24 24"><path fill="#44739e" d="M15.731 19.383h2.828v-4.136h-2.828Zm.108-4h2.584v3.81h-2.582Zm-.127-2.24h2.828V9.008h-2.826Zm.108-4h2.585v3.81h-2.58Zm-5.158-7.664v20.718H1.19V23h21.62V1l-12.144.031Zm4.864 18.127.01-4.584 3.214.016-.003 4.556Zm.025-16.714h3.188v4.474h-3.203Zm-.015 5.891h3.229l-.01 4.588-3.233.016Zm.189-1.579h2.828V3.062h-2.828Zm.108-3.989h2.585V7.02h-2.583ZM6.197 18.231a4.233 4.233 0 1 0-4.265-4.234 4.245 4.245 0 0 0 4.265 4.234m0-5.805a.936.936 0 0 1 .407 1.786v1.44h-.811v-1.44a.936.936 0 0 1 .404-1.786M4.234 9.353v-.996a1.964 1.964 0 0 1 3.927 0v.996l.013.006a4.97 4.97 0 0 1 .799.422V8.357a2.776 2.776 0 0 0-5.551 0V9.78a4.97 4.97 0 0 1 .795-.423Z"/></svg>