<svg xmlns="http://www.w3.org/2000/svg" viewBox="0 0 24 24"><path fill="#44739e" d="m23 1.281-12.365-.004.01 20.663H1v.783h22Zm-9.931 2.063h3.527l.01 2.882-3.532.01Zm4.198 0h3.485l.015 2.877h-3.5Zm-3.983.196v2.516h3.095V3.54Zm4.178 0v2.516h3.095V3.54Zm-3.765.35h2.271v1.795h-2.271Zm4.178 0h2.279v1.795h-2.279Zm-3.95.165V5.49h1.815V4.055Zm4.176 0V5.5h1.817V4.055ZM13.069 7.17h3.527v5.61h-3.527Zm4.198 0h3.485v5.61h-3.485Zm-3.983.268v5.116h3.095V7.438Zm4.178 0v5.116h3.095V7.438Zm-3.765.485h2.271v4.156h-2.271Zm4.178 0h2.279v4.156h-2.279Zm-3.95.268v3.652h1.815V8.191Zm4.188 0v3.652h1.815V8.191Zm-5.044 5.59h3.527v6.271h-3.527Zm4.198 0h3.485v6.271h-3.485Zm-3.91.238v5.806h2.991v-5.806Zm4.125 0v5.806h2.992v-5.806Zm-3.877.215h2.413v5.345h-2.413Zm4.208 0h2.373v5.345h-2.343Zm-3.888.218v4.929h1.845v-4.929Zm4.126 0v4.929h1.877v-4.929Z"/></svg>