<svg xmlns="http://www.w3.org/2000/svg" viewBox="0 0 24 24"><path fill="#44739e" d="M9.854 11.938c-.142.14-.429.638-.539.695-.247.119-.355.409-.429.523-.052.085-.119.224-.237.394-.103.148-.224.37-.264.447s-.058.154.021.154.018.131-.079.273a5.7 5.7 0 0 0-.233.592 2.35 2.35 0 0 0-.063.362c-.018.054-.279.61-.347.733a.53.53 0 0 0-.047.151c-.024.054 0 .07.047.031a5.5 5.5 0 0 1 .415-.524.358.358 0 0 0 .172-.313c.013-.183.131-.232.224-.336a1.68 1.68 0 0 0 .278-.396c.062-.154.14-.037.282-.266s.46-.796.533-.906.019-.268.01-.399a1.77 1.77 0 0 1 .046-.42 3.6 3.6 0 0 1 .159-.432 1.19 1.19 0 0 0 .122-.351.038.038 0 0 0-.071-.012m-2.146 1.174a5.46 5.46 0 0 0-.89.851 3.7 3.7 0 0 0-.24.302s-.148.244-.224.347-.276.393-.364.519a3 3 0 0 1-.26.415c-.075.095-.153.224-.301.41-.199.254-.347.463-.314.491a7.05 7.05 0 0 0 .624-.717c.129-.158.27-.32.39-.475.058-.075.193-.2.236-.264a1.2 1.2 0 0 1 .193-.224c.173-.142.272-.152.328-.232.026-.041.371-.56.496-.769s.39-.597.326-.654m-4.93 1.716-.418-.343.203-.499-.46.291-.427-.341.135.526-.452.277.531.036.132.523.209-.509Zm-1.216-1.499.304-.457.524.144-.342-.417.294-.452-.509.199-.352-.416.03.54-.494.187.515.134Zm-.071-2.014.384-.395.49.241-.258-.472.374-.389-.536.099-.266-.478-.072.537-.524.091.479.23Zm13.328 4.627c-.065-.266.185-.077.026-.505a1.57 1.57 0 0 0-.292-.472 2.74 2.74 0 0 1-.224-.568c-.066-.148-.032-.156-.166-.511-.1-.261.181-.174.023-.575-.102-.26-.62-1.204-.68-1.301-.029-.054-.129-.216-.253-.409s-.213-.38-.268-.466c-.112-.172-.305-.551-.417-.708s-.249-.506-.306-.448.167.573.258.905a.609.609 0 0 1-.03.56c-.054.094-.054.155 0 .322.05.149.237 1.024.292 1.206a.88.88 0 0 0 .143.261.419.419 0 0 0 .346.306c.223.069.244.371.387.641.134.252.261.479.378.755s.725 1.768.828 1.995c.036.083.324.083.292 0a6.8 6.8 0 0 1-.337-.988m-11.69-.198-.396.373-.482-.252.232.489-.389.36.526-.068.231.487.109-.538.54-.065-.473-.259Zm14.505.016a4.9 4.9 0 0 0-.377-.637 5.2 5.2 0 0 0-.346-.546c-.13-.146-.027-.186-.16-.314-.081-.075-.336-.298-.387-.345s-.258-.229-.375-.336-.396-.293-.387-.417a.713.713 0 0 0-.151-.448 4.9 4.9 0 0 0-.497-.566 6.4 6.4 0 0 1-.553-.576c-.177-.212-.311-.405-.353-.377-.059.038.207.41.234.455a4.9 4.9 0 0 1 .366.717c.033.141.609 1.11.732 1.411.071.176.464.411.63.685.153.254.194.204.257.206.144 0 .465.349.529.448s.578.61.711.736c.058.055.468.717.521.672s-.157-.37-.189-.441a2.6 2.6 0 0 1-.205-.327m4.682-1.916-.43.343-.457-.299.2.503-.422.338.546-.032.206.505.136-.524.531-.026-.446-.288Zm.179-2.013-.358.421-.506-.207.29.452-.346.416.528-.136.298.457.034-.54.515-.128-.493-.194Zm-4.303 3.092c-.031-.057-.285-.42-.375-.537-.159-.205-.013-.279-.097-.405a5.3 5.3 0 0 0-.475-.544c-.122-.121-.258-.239-.373-.343-.188-.166-.329-.291-.353-.27s.077.165.126.223.121.166.223.284c.16.191.012.335.165.487.026.026.447.499.553.587.154.139.705.792.744.828.065.061.179.192.197.169.019-.023-.036-.095-.066-.149s-.234-.269-.269-.33m-6.18-12.07a9.12 9.12 0 0 0-9.116 9.12 9.556 9.556 0 0 0 1.007 4.185c1.174-1.095 4.253-4.57 4.606-4.974.537-.614.769-.224 1.058-.567a1.18 1.18 0 0 1 .312-.298 3.1 3.1 0 0 0 .3-.269c.064-.049.206-.238.316-.336s.331-.237.553-.425.598-.632 1.007-.632a.895.895 0 0 1 .736.372c.035.038.335.303.385.354a1.204 1.204 0 0 0 .55.314c.172 0 .301.189.394.284.207.188 1.061 1.086 1.343 1.276.125.087.243.072.336.144a.85.85 0 0 0 .198.133.525.525 0 0 1 .447.235 1.3 1.3 0 0 0 .126.08 2.48 2.48 0 0 1 .393.448c.096.161 2.259 3.034 3.033 4.063a9.116 9.116 0 0 0-7.984-13.507m9.748 12.926-.487.254-.395-.381.099.528-.473.254.541.071.102.538.238-.489.525.077-.385-.366ZM14.259 2.567l.51-.182.323.435-.014-.549.515-.186-.52-.156-.01-.532-.302.438-.516-.156.328.441ZM1.807 9.32l.45-.31.438.326-.166-.515.447-.308-.549-.007-.17-.518-.174.517-.531-.013.428.315Zm17.177-4.001.526.124.036.538.285-.465.533.121-.35-.413.282-.448-.491.2-.351-.41.036.548Zm-.85-1.188.14.52.195-.509.543.015-.423-.338.193-.495-.446.292-.419-.338.137.531-.458.297Zm2.476 2.866-.065.533.372-.401.498.22-.268-.473.364-.385-.521.105-.266-.473-.068.544-.534.104Zm1.735 3.364-.068-.534-.27.477-.535-.106.371.394-.259.469.491-.234.379.392-.067-.539.482-.222Zm-1.384-1.944.439.311-.166.515.437-.326.451.313-.172-.515.43-.312-.53.006-.172-.512-.171.519Zm-4.425-5.321.236.482.091-.535.539-.086-.479-.253.092-.521-.379.372-.479-.25.236.494-.39.38ZM5.42 4.199l.188.513.142-.521.539-.019-.454-.301.141-.528-.424.335-.441-.297.182.499-.421.334ZM4.067 5.588l.282.467.039-.534.527-.125-.503-.209.036-.542-.352.411-.489-.211.276.453-.351.41Zm8.357-3.284.466-.276.4.358-.118-.531.466-.279-.54-.057L12.99 1l-.214.487-.536-.052.406.367ZM2.499 7.432l.502-.223.364.408-.061-.536.492-.218-.534-.109-.067-.543-.271.471-.518-.113.357.394Zm4.516-4.345.084.538.242-.483.534.085-.391-.383.239-.491-.485.248-.373-.375.088.523L6.475 3Zm3.558-.693.404-.357.463.279-.219-.504.404-.364-.539.05-.203-.49-.12.518-.536.053.468.282Zm-1.8.45.326-.43.51.185-.31-.45.327-.435-.521.149-.294-.439-.015.532-.518.15.513.191ZM7.766 18.681c0-.784-.878-1.519-2.371-1.588-1.353-.069-3.645.639-3.645 2.502a1.292 1.292 0 0 0 1.417 1.231c.583 0 1.11-.375 1.11-.747s-.224-.375-.284-.375c-.165 0-.311.224-.205.503.065.173-.102.53-.634.53-.383 0-.912-.303-.912-1.141a2.873 2.873 0 0 1 3.153-2.374 1.548 1.548 0 0 1 1.717 1.455 1.578 1.578 0 0 1-1.508 1.466 5.11 5.11 0 0 1 .808-1.925c.053-.059-.013-.111-.099-.059-1.884 1.199-1.638 4.716-3.773 4.716-.209 0-1.007-.048-1.007-.665 0 0-.036-.147.152-.263a.307.307 0 0 0 .149-.269.329.329 0 0 0-.328-.335c-.18 0-.268.156-.329.335-.048.149-.07 1.311 1.363 1.322a3.125 3.125 0 0 0 2.998-2.677s2.227-.239 2.228-1.642m14.759.867h.385l.073-.156h-.392l.374-.835h-.518l-.384.835h-.27l-.074.156h.268c-.144.346-.252.559-.413.91-.185.404-.549.626-.628.577-.051-.031-.044-.105-.017-.182.143-.316.309-.672.448-.997a.429.429 0 0 0 .027-.404.302.302 0 0 0-.326-.112 1.48 1.48 0 0 0-.652.359l.124-.299h-.522c-.142.299-.244.528-.38.837a2.585 2.585 0 0 1-.727.807c-.043.018-.112.028-.13-.022a.358.358 0 0 1 .059-.26c.165-.373.394-.883.595-1.362h-.506c-.156.355-.313.651-.472 1.007-.141.286-.423.625-.595.655-.06.01-.117 0-.117-.053a.403.403 0 0 1 .049-.197l.626-1.432c-.141 0-.379.009-.5 0-.019.059-.058.144-.089.224-.112.189-.392.447-.605.287a.73.73 0 0 0-.036-.202.474.474 0 0 0-.278-.336 1.078 1.078 0 0 0-1.095.392 1.567 1.567 0 0 0-.472.904 2.08 2.08 0 0 1-.401.432c-.029.016-.098.047-.137.016a.132.132 0 0 1 0-.12c.153-.32.421-.942.56-1.26.112-.232-.028-.472-.375-.387a1.6 1.6 0 0 0-.573.322.305.305 0 0 0-.203-.328c-.258-.059-.607.224-.742.344l-.02-.009.14-.296h-.502c-.135.305-.25.572-.377.843a1.835 1.835 0 0 1-.66.744.162.162 0 0 1-.163.014c-.028-.02-.063-.048-.02-.135.229-.508.412-.91.652-1.455a1.261 1.261 0 0 0-1.162.045 2 2 0 0 0-.448.32 1.9 1.9 0 0 1-.206.146c-.076.057-.132.029-.152-.023a.46.46 0 0 1 .048-.2c.048-.112.134-.193.143-.304s-.163-.127-.239-.091a4.2 4.2 0 0 0-.508.395c-.011.009-.011 0 0-.016l.133-.288h-.486l-.347.764a1.874 1.874 0 0 1-.722.837.125.125 0 0 1-.112 0c-.046-.031-.028-.112-.01-.163.223-.509.395-.896.633-1.433a1.299 1.299 0 0 0-1.153.056 2.272 2.272 0 0 0-1.065 1.174.806.806 0 0 0-.02.581.298.298 0 0 0 .359.178 1.394 1.394 0 0 0 .689-.441h.023a.82.82 0 0 0 0 .271.237.237 0 0 0 .172.161c.261.051.584-.224.855-.46.009-.01.019 0 .009.008l-.191.424h.519l.442-1a1.09 1.09 0 0 1 .296-.43c.022-.012.051-.012.042 0a.305.305 0 0 0 .049.188.284.284 0 0 0 .17.112.504.504 0 0 0 .246-.031 2.7 2.7 0 0 0-.237.448.654.654 0 0 0-.027.586.336.336 0 0 0 .363.185 1.555 1.555 0 0 0 .701-.448c.011-.011.021-.011.021 0a.63.63 0 0 0-.01.268.224.224 0 0 0 .182.162c.26.05.615-.248.895-.479 0-.008.009 0 .009.01-.057.112-.152.336-.201.448h.507l.388-.85a2.83 2.83 0 0 1 .224-.44 1.025 1.025 0 0 1 .317-.347c.053-.032.136-.072.181-.047a.12.12 0 0 1 .019.132c-.231.518-.448 1.028-.683 1.552h.52c.155-.372.336-.754.501-1.119a2.35 2.35 0 0 1 .153-.272.86.86 0 0 1 .395-.336c.058-.028.141.016.112.076-.184.431-.336.784-.518 1.171a.448.448 0 0 0-.019.425.23.23 0 0 0 .135.112c.383.054.664-.262.911-.512a.576.576 0 0 0 .194.425.718.718 0 0 0 .748.016 1.761 1.761 0 0 0 .921-1.257c0-.009 0-.009.011-.009a.627.627 0 0 0 .381-.028c-.159.382-.303.701-.353.814-.183.423.078.627.369.539a1.645 1.645 0 0 0 .63-.455c.011-.005.015-.005.015 0a.414.414 0 0 0 .026.366.224.224 0 0 0 .27.112 1.95 1.95 0 0 0 .746-.519c0-.01.009-.01.009 0-.067.155-.152.348-.212.491h.511c.112-.234.229-.474.335-.713a2.227 2.227 0 0 1 .689-.968.169.169 0 0 1 .19-.031.098.098 0 0 1 .02.096c-.172.415-.336.77-.517 1.163a.6.6 0 0 0-.029.318c.029.135.191.181.318.163a1.936 1.936 0 0 0 .736-.448.91.91 0 0 0 0 .348.6.6 0 0 0 .078.171.439.439 0 0 0 .336.184 1.363 1.363 0 0 0 1.065-.797c.013-.021-.144-.041-.154-.012a1.397 1.397 0 0 1-.671.625.173.173 0 0 1-.232-.075.98.98 0 0 1 .112-.56c.198-.431.383-.826.603-1.29m-14.404.813c-.156.299-.424.643-.617.643-.087 0-.165-.067-.133-.231a2.52 2.52 0 0 1 .529-.948.985.985 0 0 1 .615-.405c.017 0 .036 0 .026.023-.186.409-.268.592-.42.915Zm3.436 0c-.148.299-.424.643-.613.643-.094 0-.165-.067-.133-.231a2.495 2.495 0 0 1 .526-.948.996.996 0 0 1 .613-.405c.021 0 .039 0 .032.023-.193.409-.27.592-.425.915Zm4.958.139c-.232.43-.498.903-.713.795-.2-.098-.026-.635.202-1.068s.511-.855.73-.766c.194.063.01.602-.219 1.036Z"/></svg>