<svg xmlns="http://www.w3.org/2000/svg" viewBox="0 0 24 24"><path fill="#44739e" d="M8.359 8.602c-.15.73.746.33.793.201a1.42 1.42 0 0 0-.343-.92c-.291-.356-.402.495-.45.719M5.37 7.551c-.11.196-.256.41.158 1.052.099.15.647-.15.66-.427a.836.836 0 0 0-.244-.643c-.197-.158-.465-.181-.574.018m17.445-.268a1.855 1.855 0 0 0-.864-1.022 1.88 1.88 0 0 0-2.091.367 14.5 14.5 0 0 0-1.452 2.153 2.53 2.53 0 0 1-.291.428l-1.181.006s-.122-.716-.323-1.501a1.19 1.19 0 0 0-.387-.071.422.422 0 0 0-.457.416c-.07.626-.179.756.236.918.356.138.7.345.604.587a.35.35 0 0 1-.086.123 1.474 1.474 0 0 1-.776.344c-.146.052-.361.199-.32.865a3.1 3.1 0 0 0 .036.349.532.532 0 0 0 .324.457c.147.099.397.169.38.406a.4.4 0 0 1-.006.051 9.47 9.47 0 0 0 .793-2.86 10.7 10.7 0 0 1 1.186.57c.203.154.42-.01.485 1.088s.069 2.161.457 2.452a1.345 1.345 0 0 0 1.952-.363 8.2 8.2 0 0 0 1.159-1.788 13.4 13.4 0 0 0 .626-1.513 4.23 4.23 0 0 0-.004-2.462m-2.476 5.837a.415.415 0 0 1-.577.19c-.305-.146-.53-.34-.276-.788a.55.55 0 0 1 .99.083.66.66 0 0 1-.137.515m1.73-5.044a11.44 11.44 0 0 1-.77 1.946 12.65 12.65 0 0 1-.897 1.732c-.454.614-.44-.594-.44-.594s.045-1.914.094-2.269a6.16 6.16 0 0 1 .579-1.9c.258-.283.519-.35 1.087-.132s.373.828.347 1.217m-6.298-2.319c.012.012.028.022.039.034Zm-.362 7.498c-.134.012-.502-.369-.558-.895-.038-.358.136-4.202.11-4.443a1.26 1.26 0 0 1 .162-.566 1.09 1.09 0 0 1 .405-.491 1.53 1.53 0 0 1 .757-.206 4.2 4.2 0 0 0-.198-.454l-.005-.009.006.012a3.8 3.8 0 0 1-.63-.016l-.063-.009h-.008l-.07-.013h-.025l-.032-.007a.9.9 0 0 1-.241-.087c-.138-.077-.193-.136-.201-.186-.018-.072.068-.124.148-.18.134-.092.41-.027.804.055a8.63 8.63 0 0 0-5.561-1.989 10.9 10.9 0 0 0-2.894.347 4.906 4.906 0 0 0-2.842 1.76 4.218 4.218 0 0 0-.576 3.674 10.07 10.07 0 0 0 1.775 3.242c.498.689 1.25 1.253.723 1.87s-.996 1.06-.996 1.06l1.821-.781a10.04 10.04 0 0 0 1.408 1.108 4.345 4.345 0 0 0 1.952.537 6.407 6.407 0 0 0 4.013-2.192 12.2 12.2 0 0 0 .969-1.218c-.067.095-.062.069-.153.077m-9.46-3.721s.116.806.254 1.52c.209 1.083.432 2.838-.294 1.566a24.64 24.64 0 0 1-1.815-4.485 1.037 1.037 0 0 1 0-.676c.037-.084 1.042-1.514 2.379-.964a1.862 1.862 0 0 1 .821 1.077 1.273 1.273 0 0 1-.42 1.375 8.5 8.5 0 0 1-.925.587m3.7 3.376a14.1 14.1 0 0 1-.4-1.795c-.079-.412-.029-1.362-.561-1.257-.274.054-.423.631-.604 1.54s-.241 1.107-.271 1.452-.076.736-.346.651-.279-1.041-.234-2.09c.042-1.022.093-1.081.283-2.692s.594-1.849.704-1.986c.514-.63 1.367-.063 1.638 1.585a36.6 36.6 0 0 1 .482 4.234c-.022.474-.181 1.565-.691.358m1.895-5.55c.022.811-.02 2.458.01 3.461a19.54 19.54 0 0 1-.074 3.274c-.137.39-.381.353-.519-.279a11.8 11.8 0 0 1-.136-1.374c-.032-.744-.166-4.008-.33-4.997-.134-.828-.343-1.179-.803-1.305a4.15 4.15 0 0 0-.823-.138.387.387 0 0 1-.369-.557c.077-.191.465-.347.897-.405a10.84 10.84 0 0 1 3.267.092c.676.129.66.386.499.55-.22.22-.719.085-1.091.313s-.546.672-.528 1.365m3.137-.212c-.027.502-.291 4.773-.306 5.171s-.096 1.665-.151 1.918-.177.811-.551.381a4.58 4.58 0 0 1-.19-1.596c-.009-.371.19-1.601.139-1.922-.093-.57-.386-.189-.493.172a9.35 9.35 0 0 0-.177 1.304 7 7 0 0 1-.283 1.693c-.426.891-.52-.066-.505-.519s.085-2.026.085-2.56.071-1.971.006-3.054a3.97 3.97 0 0 1 .15-1.675.515.515 0 0 1 .415-.35c.55-.018.197 1.835.181 2.737-.014.932-.069 1.143.316 1.171s.391-.505.351-1.039a10.8 10.8 0 0 1 .151-2.079c.082-.372.22-.681.601-.559s.274.55.261.806m-9.723 8.588v-.01c.01-.012 0-.014 0-.034v-.026a.018.018 0 0 1-.017-.018c0-.02.012-.028.008-.041s-.018 0-.022-.018-.019-.022-.019-.022h-.014a.06.06 0 0 0-.043-.017l-.025-.018c-.017-.046-.019-.101-.03-.099s0 .022-.009.043-.016.01-.016.01c-.034-.082-.064-.073-.074-.087s-.015-.005-.034-.022-.033 0-.007.018.026.049.034.061 0 .02-.018.012 0-.027-.022-.053-.08-.091-.084-.071.017.028.036.079 0 .05 0 .053-.014-.005-.04-.039-.039-.038-.039-.038c-.01-.02-.028-.027-.046-.043s-.026-.032-.036-.022 0 .03.028.057a.11.11 0 0 1 .034.055c.013.028.008.033-.009.036s-.055-.045-.072-.065-.038-.033-.055-.05-.022 0-.012.022a.6.6 0 0 0 .057.085c.02.025 0 .035-.018.033a.066.066 0 0 1-.033-.015c-.039-.022-.045-.022-.061-.033s-.04-.035-.046-.03-.015.012.007.047 0 .034 0 .034c-.035-.012-.07.006-.063.034a.15.15 0 0 0 .028.051v.018c0 .017.014.027.014.027s.01.045.038.046c.047 0 .006.01.045.02a.4.4 0 0 0 .096.012c0 .01-.006.018-.006.018a.924.924 0 0 0-.316.26c-.006.008-.017.038-.025.048-.027.034-.052.067-.079.11-.012.017-.033.043-.043.059a1.8 1.8 0 0 0-.094.16c-.008.014-.019.046-.027.059a1.5 1.5 0 0 1-.11.15.61.61 0 0 1-.246.148.9.9 0 0 1-.126.041c-.071.014-.13.032-.192.049a2 2 0 0 0-.22.077c-.064.027-.159.085-.248.125a.2.2 0 0 0-.016-.04l-.01-.022-.012-.015s0-.012-.01-.02-.014-.014-.022-.024a.15.15 0 0 0-.092-.062l-.022-.008s-.012-.005-.014-.005a.3.3 0 0 1-.038-.024.35.35 0 0 1-.1-.076.66.66 0 0 0-.207-.33c-.006 0-.024 0-.031-.01s-.022-.033-.033-.038h-.022v-.006l-.022-.03-.013.012a.55.55 0 0 0-.161-.057l-.085.007c-.033 0-.065.005-.095.01s-.045.012-.067.019a.62.62 0 0 0-.187.092.73.73 0 0 0-.149.154.99.99 0 0 0-.184.39.4.4 0 0 0-.04.127.715.715 0 0 0-.038.43.367.367 0 0 0 .13.199v-.015l-.055-.12a.77.77 0 0 1-.018-.159.58.58 0 0 1 .024-.185.077.077 0 0 1 .018-.036c.013.024.043.069.043.069-.007-.034-.028-.11-.028-.11a.53.53 0 0 1 .11-.169l-.012-.01a.044.044 0 0 0 .022 0c.028-.033.05-.055.05-.055a.042.042 0 0 0 .017.022l.006-.014h.007l.013-.016a.02.02 0 0 1 .014 0h.013a.066.066 0 0 0-.035.035l.008.017.029.025a.36.36 0 0 0-.051.105.2.2 0 0 1-.008.04.21.21 0 0 0-.012.11.1.1 0 0 0 .022.045s.012-.05.02-.074a.7.7 0 0 1 .024-.058.09.09 0 0 1 .025-.04v-.005a.24.24 0 0 0 0 .097c.018.03.022.05.028.05a.12.12 0 0 0 .017-.028.04.04 0 0 1 .008.016v.017c-.04.022-.04.03-.04.03h.012c.034 0 0 .01 0 .01-.022.007-.018.014-.018.014h.014v.008h.012l-.022.015c0 .047.031.046.073.033s.077-.023.077-.023v.008l.119-.027a.052.052 0 0 1 .047.015c-.01.007-.007.022-.007.022a.031.031 0 0 0-.02.027s-.009 0 0 .03a.22.22 0 0 0 .036.062c.024 0 .033.017.024.043s.008.049.049.057.045.025.045.025a.05.05 0 0 1 .006.05c-.024.029.027.057.027.057a.045.045 0 0 1 .008.055l-.008-.01v.012l-.002-.002v.014l-.017-.006a.12.12 0 0 0 .029.034v.012h.006v.01a.013.013 0 0 1 0 .017.025.025 0 0 1 .005.038.19.19 0 0 1 .05.042v.013h.026l.02.015.015-.01.01.012v.031a.017.017 0 0 1 0 .018c.025.006.012.034.012.034a.2.2 0 0 1 .013.037l.033.019.022.01h.009l-.007.032.013-.012.024.029a.31.31 0 0 0 .087.11c.022.016.007.028.007.028a.18.18 0 0 1 .049.043v.012h.028l.018.014.016-.01.015.018h.014v.012l.031.033h.018l-.008.015h.023v.016l.028-.008.01.015.024.018.022.01h.01l.02.025.012-.013.025.031.014.012-.014.01c.007.005.057.033.057.033v.019l.012.009v.028l.03-.006a.056.056 0 0 1 .046.016c-.013.089.009.079.009.079l.022-.01c.033 0 .041-.019.041-.019 0 .018.034.025.036.038s-.019.024-.019.024l.019.007h.01v.012l.02-.008c.01.053.024.041.024.041s.025-.01.031-.02.027.022.027.022l.006.022a.33.33 0 0 0-.013.12.3.3 0 0 0 .059.11.55.55 0 0 0 .034.146 2.8 2.8 0 0 1 .11.314c.012.039.03.091.03.091s-.007.015 0 .018.005.01.005.01v.019c0 .008 0 .052-.015.052a.022.022 0 0 0-.018.022c-.025.013-.02.018-.02.022s-.017.015-.017.015v.008l-.018.018a.4.4 0 0 1-.029.027l-.014.007-.012.01-.01.005h-.026a.087.087 0 0 0-.067.055c-.012.028 0 .058.015.03a.046.046 0 0 1 .038-.024s0 .024.034.027a.07.07 0 0 0 .059-.017l.002.004.018-.006a.33.33 0 0 1 .037-.036c.016-.01.018-.006.018-.006a.09.09 0 0 1 0 .039.18.18 0 0 1-.04.045.24.24 0 0 0-.061.028.2.2 0 0 0-.026.024v.006a.176.176 0 0 0-.067.082c0 .03.02.01.033 0l.025-.024h.007c.007.014.052.019.073 0a.057.057 0 0 1 .049-.022.061.061 0 0 0 .044-.045.092.092 0 0 1 .073-.045.07.07 0 0 1 .043.012.095.095 0 0 0-.071.072c0 .025.008.035.016.018a.066.066 0 0 1 .034-.03h.005c0 .022.038.031.063.022a.06.06 0 0 0 .04-.029l.006.005a.2.2 0 0 1 0 .031.12.12 0 0 1-.024.03c-.022.01-.022.017-.022.017-.043 0-.046.012-.05.018l-.009.008a.15.15 0 0 0-.071.053c-.012.016-.027.055-.012.046l.052-.037c.013-.01.008.007.022.015a.13.13 0 0 0 .063 0 .03.03 0 0 1 .017-.015.076.076 0 0 0 .062-.022h.027l.022-.015c.045-.012.033-.028.033-.028h.147l.062.016h.072a.3.3 0 0 0 .082 0 .079.079 0 0 1 .075 0c.019.01.077.01.083 0a.044.044 0 0 1 .017-.02c.03 0 .047.035.074.033s0-.033-.037-.062a.18.18 0 0 0-.082-.033c.016-.005.006 0 .05 0s.037-.025.037-.025c.018-.015.045-.012.077 0s.03 0-.008-.037a.11.11 0 0 0-.096-.016l-.01-.006h-.033l-.015-.006a.35.35 0 0 1-.149.012.097.097 0 0 0-.063-.005l-.03-.018a.024.024 0 0 0 .026-.014.054.054 0 0 0 .057 0s0 .008.039.008a.047.047 0 0 0 .046-.038.09.09 0 0 1 .039 0c.055.027.035 0 .035 0a.092.092 0 0 0-.11-.037c-.03-.018-.033-.006-.033-.006a.154.154 0 0 0-.077.008.6.6 0 0 0-.099 0 .33.33 0 0 1-.092-.007 2.1 2.1 0 0 1-.069-.248c-.012-.033-.055-.239-.055-.239l-.02-.13c.015-.014.015-.024.017-.074s.031-.055.043-.122.105-.154.129-.187a1.1 1.1 0 0 0 .065-.11c.015.022.025.012.04 0s.009-.045.015-.054a.1.1 0 0 0 .007-.03v-.038a.37.37 0 0 1 .025-.067l.006-.019v-.013l.025-.046a.57.57 0 0 1 .104-.098l-.024.031a.44.44 0 0 1 .058-.028l.016-.013-.007.02c.06-.067.073-.045.073-.045v-.024c0-.014.015.008.015.008a.4.4 0 0 0 .042-.045v.026h.01a.046.046 0 0 1 .017-.03.08.08 0 0 1 0 .037l.01-.017a.12.12 0 0 0 .019-.033h.026s.025-.033.02-.055a.085.085 0 0 1 .012-.048.036.036 0 0 0 .018.028v-.04h.01a.33.33 0 0 1 0-.082c.052-.05.196-.166.196-.166.039-.03.07-.074.124-.122s.098-.077.098-.077v-.012l.013-.006a.88.88 0 0 0 .11-.204c.02-.061.052-.171.052-.171v-.012c.024 0 0-.034.017-.045s.012-.05.012-.05a.135.135 0 0 0 .018-.067.19.19 0 0 0 .012-.065 1.4 1.4 0 0 1 .028-.156.96.96 0 0 0-.058-.347 1.5 1.5 0 0 0-.116-.22c-.018-.029 0-.037 0-.037l.064-.015.102-.032a.17.17 0 0 0 .034-.033c.01-.016.018-.018.018-.018a.032.032 0 0 0 .03-.035.143.143 0 0 0 .025-.11s.015-.025-.007-.102-.055-.082-.055-.082l-.008-.019a.022.022 0 0 0-.018-.014.047.047 0 0 1 .022-.022.014.014 0 0 1 .017 0 .3.3 0 0 0 .045 0 .09.09 0 0 0 .04-.006s.019.019.008-.013a.13.13 0 0 0-.054-.072.096.096 0 0 0-.059-.023m-1.599 3.93c-.012-.043-.024-.052-.045-.122s-.091-.358-.091-.358l.012-.01a.5.5 0 0 0 .051.094 2.4 2.4 0 0 1 .081.298l.029.138a.1.1 0 0 0-.037-.04"/></svg>