<svg xmlns="http://www.w3.org/2000/svg" fill="#44739e" viewBox="0 0 24 24"><path d="M8.691 8.915c-.136.664.678.3.721.183a1.29 1.29 0 0 0-.312-.836c-.264-.324-.365.45-.409.653M5.974 7.96c-.1.178-.233.373.144.956.09.137.588-.136.6-.388a.76.76 0 0 0-.222-.584c-.179-.144-.423-.165-.522.016m15.858-.244a1.686 1.686 0 0 0-.786-.929 1.709 1.709 0 0 0-1.9.334 13.2 13.2 0 0 0-1.32 1.957 2.3 2.3 0 0 1-.265.389l-1.073.006s-.111-.651-.294-1.365a1.08 1.08 0 0 0-.352-.064.384.384 0 0 0-.415.378c-.064.569-.163.687.214.834.324.126.637.314.549.534a.32.32 0 0 1-.078.112 1.34 1.34 0 0 1-.705.312c-.133.048-.328.181-.291.787a2.8 2.8 0 0 0 .033.317.484.484 0 0 0 .294.415c.134.09.361.154.346.369a.4.4 0 0 1-.006.047 8.61 8.61 0 0 0 .721-2.6 9.7 9.7 0 0 1 1.078.518c.185.14.382-.009.441.989s.063 1.964.415 2.229a1.223 1.223 0 0 0 1.775-.33 7.44 7.44 0 0 0 1.053-1.625 12.2 12.2 0 0 0 .569-1.376 3.845 3.845 0 0 0-.003-2.238m-2.251 5.306a.377.377 0 0 1-.524.173c-.278-.133-.482-.309-.251-.716a.5.5 0 0 1 .9.075.6.6 0 0 1-.125.468m1.573-4.585a10.4 10.4 0 0 1-.7 1.769 11.5 11.5 0 0 1-.816 1.575c-.412.558-.4-.54-.4-.54s.041-1.74.086-2.063a5.6 5.6 0 0 1 .526-1.727c.235-.257.472-.318.988-.12s.339.753.316 1.106m-5.725-2.108c.011.011.025.02.035.031zm-.329 6.816c-.122.011-.457-.335-.508-.814-.034-.325.124-3.819.1-4.038a1.145 1.145 0 0 1 .148-.515.99.99 0 0 1 .368-.446 1.39 1.39 0 0 1 .688-.187 3.8 3.8 0 0 0-.18-.413l-.005-.008.006.011a3.43 3.43 0 0 1-.573-.015l-.057-.008h-.007l-.064-.012h-.023l-.029-.006a.82.82 0 0 1-.219-.079c-.125-.07-.175-.124-.183-.169-.016-.066.062-.113.135-.164.122-.084.373-.025.731.05a7.845 7.845 0 0 0-5.055-1.808 9.92 9.92 0 0 0-2.631.315 4.46 4.46 0 0 0-2.583 1.6 3.834 3.834 0 0 0-.524 3.34 9.15 9.15 0 0 0 1.614 2.947c.452.626 1.136 1.139.657 1.7S6 15.389 6 15.389l1.656-.71a9.13 9.13 0 0 0 1.28 1.008 3.95 3.95 0 0 0 1.774.488 5.824 5.824 0 0 0 3.648-1.993 11.05 11.05 0 0 0 .881-1.107c-.061.086-.057.063-.139.07M6.5 9.763s.106.732.231 1.381c.19.985.393 2.58-.267 1.424a22.4 22.4 0 0 1-1.65-4.077.943.943 0 0 1 0-.615C4.848 7.8 5.761 6.5 6.977 7a1.693 1.693 0 0 1 .746.979 1.157 1.157 0 0 1-.382 1.25 7.7 7.7 0 0 1-.841.534m3.364 3.068A12.8 12.8 0 0 1 9.5 11.2c-.072-.375-.026-1.238-.51-1.143-.249.049-.384.574-.549 1.4s-.219 1.006-.246 1.32-.069.669-.315.592-.253-.947-.212-1.9c.038-.929.084-.983.257-2.447s.54-1.681.64-1.806c.467-.572 1.242-.057 1.489 1.441a33.3 33.3 0 0 1 .438 3.849c-.02.431-.165 1.423-.628.325m1.722-5.045c.02.738-.018 2.235.009 3.146a17.76 17.76 0 0 1-.067 2.977c-.124.354-.346.32-.472-.254a10.7 10.7 0 0 1-.123-1.249c-.029-.676-.151-3.643-.3-4.542-.122-.753-.312-1.072-.73-1.187a3.77 3.77 0 0 0-.748-.125.352.352 0 0 1-.336-.506c.07-.174.423-.316.816-.369a9.85 9.85 0 0 1 2.969.084c.615.117.6.351.454.5-.2.2-.654.077-.992.285s-.496.61-.48 1.24m2.852-.192c-.025.456-.265 4.338-.278 4.7s-.088 1.514-.138 1.744-.16.737-.5.346a4.16 4.16 0 0 1-.173-1.451c-.008-.337.173-1.455.126-1.747-.084-.518-.351-.172-.448.156a8.5 8.5 0 0 0-.161 1.186 6.35 6.35 0 0 1-.257 1.539c-.387.81-.473-.06-.459-.472s.077-1.842.077-2.327.065-1.792.006-2.776a3.605 3.605 0 0 1 .136-1.523.468.468 0 0 1 .377-.318c.5-.016.179 1.668.165 2.488-.013.847-.063 1.039.287 1.064s.355-.459.319-.944a9.8 9.8 0 0 1 .137-1.89c.075-.338.2-.619.547-.508s.249.5.237.733M5.6 15.4v-.009c.009-.011 0-.013 0-.031v-.023a.016.016 0 0 1-.016-.017c0-.018.011-.025.007-.037s-.016 0-.02-.016-.017-.02-.017-.02h-.013a.055.055 0 0 0-.039-.016l-.022-.016c-.016-.042-.018-.092-.028-.09s0 .02-.008.039-.014.009-.014.009c-.031-.075-.059-.066-.068-.079s-.013-.005-.031-.02-.03 0-.006.016.024.045.031.056 0 .018-.016.011 0-.025-.02-.049-.073-.082-.077-.064.016.025.033.072 0 .045 0 .048-.013-.005-.036-.036-.036-.034-.036-.034c-.009-.018-.025-.025-.042-.039s-.023-.029-.032-.02 0 .027.025.052a.1.1 0 0 1 .031.05c.012.025.007.03-.008.032s-.05-.041-.066-.059-.034-.03-.05-.045-.02 0-.011.02a.55.55 0 0 0 .052.077c.018.023 0 .032-.016.03a.06.06 0 0 1-.03-.014c-.036-.02-.041-.02-.056-.03s-.036-.031-.041-.027-.014.011.006.043 0 .031 0 .031c-.032-.011-.064.005-.057.031a.14.14 0 0 0 .025.046v.016c0 .016.013.025.013.025s.009.041.034.042c.043 0 .006.009.041.018a.36.36 0 0 0 .088.011c0 .009-.006.016-.006.016a.84.84 0 0 0-.287.237c-.006.007-.016.034-.023.043-.024.031-.047.061-.072.1-.011.016-.03.039-.039.054a1.6 1.6 0 0 0-.085.145c-.007.013-.017.042-.025.054a1.4 1.4 0 0 1-.1.136.556.556 0 0 1-.223.135.8.8 0 0 1-.115.037c-.064.013-.118.029-.174.045a1.8 1.8 0 0 0-.2.07c-.059.024-.145.077-.226.113a.17.17 0 0 0-.014-.036l-.009-.02-.011-.014s0-.011-.009-.018-.013-.013-.02-.022a.136.136 0 0 0-.084-.056l-.02-.007s-.011-.005-.013-.005a.3.3 0 0 1-.034-.022.32.32 0 0 1-.091-.069.6.6 0 0 0-.188-.3c-.006 0-.022 0-.029-.009s-.02-.03-.03-.034h-.02v-.006l-.02-.027-.011.011a.5.5 0 0 0-.147-.052l-.077.006c-.03 0-.059.005-.086.009s-.041.011-.061.018a.56.56 0 0 0-.17.083.66.66 0 0 0-.136.14.9.9 0 0 0-.167.355.36.36 0 0 0-.036.115.65.65 0 0 0-.035.391.334.334 0 0 0 .118.181v-.014l-.05-.109a.7.7 0 0 1-.016-.144.53.53 0 0 1 .022-.168.07.07 0 0 1 .016-.033c.012.022.039.063.039.063-.006-.031-.025-.1-.025-.1a.48.48 0 0 1 .1-.154l-.011-.009a.04.04 0 0 0 .02 0c.025-.03.045-.05.045-.05a.038.038 0 0 0 .016.02l.005-.013h.007l.011-.014a.017.017 0 0 1 .013 0h.012a.06.06 0 0 0-.032.031l.007.016.027.023a.33.33 0 0 0-.047.095.17.17 0 0 1-.007.036.19.19 0 0 0-.011.1.09.09 0 0 0 .02.041s.011-.045.018-.067a.6.6 0 0 1 .022-.053.084.084 0 0 1 .023-.036v-.005a.22.22 0 0 0 0 .089c.016.027.02.045.025.045a.11.11 0 0 0 .016-.025.04.04 0 0 1 .007.014v.016c-.036.02-.036.027-.036.027h.011c.031 0 0 .009 0 .009-.02.006-.017.013-.017.013h.013v.007h.011l-.02.014c0 .042.028.041.066.03s.07-.021.07-.021v.007l.108-.025a.047.047 0 0 1 .043.014c-.009.006-.006.02-.006.02a.028.028 0 0 0-.018.025s-.009 0 0 .027a.2.2 0 0 0 .032.056c.022 0 .03.016.022.039s.007.045.045.052.041.023.041.023a.045.045 0 0 1 .005.045c-.022.027.025.052.025.052a.041.041 0 0 1 .007.05l-.007-.009v.011L2.8 17.24v.013l-.016-.006a.11.11 0 0 0 .027.031v.011h.005v.009a.012.012 0 0 1 0 .016.023.023 0 0 1 .005.034.17.17 0 0 1 .045.038v.012h.024l.018.014.014-.009.009.011v.028a.015.015 0 0 1 0 .016c.022.006.011.031.011.031a.2.2 0 0 1 .011.034l.03.017.02.009h.009l-.007.029.012-.011.022.027a.28.28 0 0 0 .079.1c.02.014.006.025.006.025a.16.16 0 0 1 .045.039v.011h.025l.017.013.014-.009.014.016h.013v.011l.028.03h.016l-.007.014h.021v.014l.025-.007.009.014.022.016.02.009h.009l.018.023.011-.012.023.028.013.011-.013.009c.006.005.052.03.052.03v.017l.011.009v.025l.027-.005a.051.051 0 0 1 .042.014c-.012.081.008.072.008.072l.02-.009c.03 0 .037-.017.037-.017 0 .016.031.022.033.034s-.017.022-.017.022l.017.006h.009v.011l.018-.007c.009.048.022.037.022.037s.023-.009.028-.018.025.02.025.02l.005.02a.3.3 0 0 0-.012.109.27.27 0 0 0 .054.1.5.5 0 0 0 .031.133 2.5 2.5 0 0 1 .1.285c.011.036.027.083.027.083s-.006.014 0 .016.005.009.005.009v.018c0 .007 0 .047-.014.047a.02.02 0 0 0-.016.02c-.023.012-.018.016-.018.02s-.016.014-.016.014v.007l-.016.016a.4.4 0 0 1-.027.025l-.012.006-.011.009-.009.005h-.024a.079.079 0 0 0-.061.05c-.011.025 0 .052.014.027a.042.042 0 0 1 .034-.022s0 .022.031.025a.064.064 0 0 0 .054-.016l.002.004.016-.006a.3.3 0 0 1 .034-.032c.014-.009.016-.006.016-.006a.08.08 0 0 1 0 .036.16.16 0 0 1-.036.041.22.22 0 0 0-.056.025.17.17 0 0 0-.023.022v.005a.16.16 0 0 0-.061.075c0 .027.018.009.03 0l.022-.022h.007c.006.013.047.017.066 0a.052.052 0 0 1 .045-.02.055.055 0 0 0 .04-.041.084.084 0 0 1 .066-.041.063.063 0 0 1 .039.011.086.086 0 0 0-.064.066c0 .022.007.031.014.016a.06.06 0 0 1 .031-.027h.005c0 .02.034.028.057.02a.055.055 0 0 0 .036-.027l.006.005a.2.2 0 0 1 0 .028.11.11 0 0 1-.022.027c-.02.009-.02.016-.02.016-.039 0-.042.011-.046.016l-.008.007a.135.135 0 0 0-.064.049c-.011.014-.025.05-.011.041l.047-.033c.012-.009.007.006.02.013a.12.12 0 0 0 .057 0 .026.026 0 0 1 .016-.013.069.069 0 0 0 .056-.02h.025l.02-.014c.041-.011.03-.025.03-.025h.133l.057.014h.065a.26.26 0 0 0 .075 0 .072.072 0 0 1 .068 0c.017.009.07.009.075 0a.04.04 0 0 1 .016-.018c.027 0 .042.032.067.03s0-.03-.034-.056a.164.164 0 0 0-.074-.03c.014-.005.005 0 .045 0s.034-.023.034-.023c.016-.014.041-.011.07 0s.027 0-.007-.034a.1.1 0 0 0-.088-.014l-.009-.006h-.03l-.013-.005a.32.32 0 0 1-.136.011.088.088 0 0 0-.057-.005l-.027-.016a.022.022 0 0 0 .023-.013.049.049 0 0 0 .052 0s0 .007.036.007a.043.043 0 0 0 .041-.034.08.08 0 0 1 .036 0c.05.024.032 0 .032 0a.084.084 0 0 0-.1-.034c-.028-.016-.03-.005-.03-.005a.14.14 0 0 0-.07.007.54.54 0 0 0-.09 0 .3.3 0 0 1-.084-.006 1.9 1.9 0 0 1-.063-.226c-.011-.03-.05-.217-.05-.217l-.018-.118c.014-.013.014-.022.016-.067s.028-.05.039-.111.095-.14.117-.17a1 1 0 0 0 .059-.1c.014.02.023.011.036 0s.009-.041.014-.049a.09.09 0 0 0 .006-.028v-.034a.34.34 0 0 1 .023-.061l.006-.017v-.012l.022-.042a.52.52 0 0 1 .095-.089l-.022.028a.4.4 0 0 1 .053-.025l.014-.012-.006.018c.054-.061.066-.041.066-.041v-.022c0-.012.014.008.014.008a.35.35 0 0 0 .038-.041v.023h.009a.042.042 0 0 1 .016-.027.07.07 0 0 1 0 .034l.009-.016a.11.11 0 0 0 .017-.03H4.9s.022-.03.018-.05a.077.077 0 0 1 .011-.043.033.033 0 0 0 .016.025v-.036h.009a.3.3 0 0 1 0-.075c.047-.045.178-.151.178-.151.036-.027.064-.067.113-.111s.089-.07.089-.07v-.011l.012-.005a.8.8 0 0 0 .1-.185c.018-.056.047-.156.047-.156v-.011c.022 0 0-.031.016-.041s.011-.045.011-.045a.123.123 0 0 0 .016-.061.17.17 0 0 0 .011-.059 1.3 1.3 0 0 1 .025-.142.87.87 0 0 0-.052-.315 1.36 1.36 0 0 0-.106-.2c-.016-.027 0-.034 0-.034l.058-.014.093-.029a.15.15 0 0 0 .031-.03c.009-.014.016-.016.016-.016a.029.029 0 0 0 .028-.032.13.13 0 0 0 .022-.1s.014-.023-.006-.093-.05-.074-.05-.074l-.007-.017a.02.02 0 0 0-.017-.013.043.043 0 0 1 .02-.02.013.013 0 0 1 .016 0 .26.26 0 0 0 .041 0 .08.08 0 0 0 .036-.006s.017.018.007-.011a.117.117 0 0 0-.049-.066.087.087 0 0 0-.053-.021m-1.454 3.573c-.011-.039-.022-.048-.041-.111s-.083-.326-.083-.326l.011-.009a.45.45 0 0 0 .047.086 2.2 2.2 0 0 1 .073.271l.027.125a.09.09 0 0 0-.034-.036"/></svg>