<svg xmlns="http://www.w3.org/2000/svg" viewBox="0 0 24 24"><path fill="#44739e" d="m19.331 21.306 2.421.572h.021a.1.1 0 0 0 .06-.021.095.095 0 0 0 .036-.075V2.124a.097.097 0 0 0-.117-.093l-2.421.572a.097.097 0 0 0-.073.093v18.516a.098.098 0 0 0 .073.094m.118-18.512v-.022l2.231-.527v.045l-2.214.523v.022l2.214-.523v9.515h.096a.017.017 0 0 1 .016.018.017.017 0 0 1-.016.016h-.89v.229h.902v.012a.017.017 0 0 1-.017.018h-.091v.042h-.815a.018.018 0 0 1-.018-.018v.022a.018.018 0 0 0 .018.018h.815v9.474l-2.227-.527Zm3.264-1.726a.018.018 0 0 0-.018-.016h-.135l-3.454.806v-.35a.017.017 0 0 0-.016-.016H4.576a.018.018 0 0 0-.018.016v.351l-3.32-.763a.018.018 0 0 1 .012.015v21.772a.018.018 0 0 1-.018.018l3.321-.802v.521a.018.018 0 0 0 .018.018H19.09a.018.018 0 0 0 .016-.018v-.525l3.454.806h.135a.018.018 0 0 0 .018-.018v-.012l.098.032V1.048l-.098.033Zm-18.15 20.35-2.825.653V1.838l2.825.695Zm14.029.53H5.077V2.042h13.511v19.91Zm3.431.166-2.913-.696V2.533l2.913-.695Zm.66-20.518v21.27h-.098V1.086h.098v.494Zm.175-.512v21.868H23V1.084Zm-21.726.114v21.71h.097V1.166l-.097-.032Zm-.044-.044v21.754h.009V1.128h-.009ZM1 1.286v21.622h.054V1.172H1Zm.981 20.572h.022l2.331-.572a.096.096 0 0 0 .074-.092V2.674a.096.096 0 0 0-.075-.093l-2.331-.528a.095.095 0 0 0-.116.093v19.617a.096.096 0 0 0 .095.095m0-10.019a.018.018 0 0 1-.017-.016.018.018 0 0 1 .017-.018h.096V2.266l2.139.484v18.37l-2.139.526v-9.537h-.096a.018.018 0 0 1-.017-.018.018.018 0 0 1 .017-.016h.951v-.23Z"/></svg>