<svg xmlns="http://www.w3.org/2000/svg" viewBox="0 0 24 24"><path fill="#44739e" d="m18.153 21.214-.008-.02V2.652a.102.102 0 0 0 0-.095.095.095 0 0 0-.086-.05h-5.097a.11.11 0 0 0-.11.11V21.22a.1.1 0 0 0 .009.042.099.099 0 0 0 .095.075h5.088a.1.1 0 0 0 .1-.1Zm-.22-.064-4.859-.016v-10.12h.803v-.245h-.803V2.718l4.859.016Zm1.075-19.567h-6.909v20.708h6.909Zm-.68 20.029H12.55V2.262h5.783Zm-13.335.679h6.958V1.583H4.993Zm.679-20.029h5.784v19.35H5.672Zm13.891 20.051V1H4.437v22h15.126Zm-.455.078H4.893V1.483h14.215Zm-7.964-1.169-.008-.019V2.656a.11.11 0 0 0 0-.096.097.097 0 0 0-.085-.05H5.959a.11.11 0 0 0-.105.11v18.604a.1.1 0 0 0 .009.041.099.099 0 0 0 .096.076h5.087a.1.1 0 0 0 .1-.1Zm-.22-10.523v.1h-.8v.245h.8v10.12l-4.864-.022V2.722l4.859.016Z"/></svg>