<svg xmlns="http://www.w3.org/2000/svg" viewBox="0 0 24 24"><path fill="#44739e" d="M19.987 20.269a1.4 1.4 0 0 0-.66-.165 1.342 1.342 0 0 0-.99.429 1.32 1.32 0 0 0-.429.957 1.29 1.29 0 0 0 0 .429 1.419 1.419 0 0 0 2.618.352 2.1 2.1 0 0 0 .121-.264 1.1 1.1 0 0 0 .055-.451 1.1 1.1 0 0 0-.055-.451 1.474 1.474 0 0 0-.66-.836m-1.023-4.885a1.419 1.419 0 0 0 1.705-.946 1 1 0 0 0 .066-.462 1.43 1.43 0 0 0-.77-1.287 1.32 1.32 0 0 0-.649-.165 1.463 1.463 0 0 0-1.452 1.452 1.452 1.452 0 0 0 1.1 1.408m.44-6.766a1.397 1.397 0 0 0-1.342.792 1.43 1.43 0 0 0 .275 1.672 1.3 1.3 0 0 0 .638.386 1.408 1.408 0 0 0 1.21-.243 1.55 1.55 0 0 0 .506-.715 1.33 1.33 0 0 0 .055-.451 1.1 1.1 0 0 0-.055-.451 1.419 1.419 0 0 0-1.287-.99m.275-3.762a1.53 1.53 0 0 0-.77 0 1.441 1.441 0 0 0-.935.935 1.65 1.65 0 0 0 0 .77 1.441 1.441 0 0 0 1.166 1.1 1.496 1.496 0 0 0 .924-.165 1.562 1.562 0 0 0 .671-1.232 1.62 1.62 0 0 0-.165-.649 1.518 1.518 0 0 0-.891-.759m-.638-.991a1.419 1.419 0 0 0 1.661-1.012 1.463 1.463 0 0 0-.748-1.705 1.254 1.254 0 0 0-.704-.143 1.31 1.31 0 0 0-.935.429 1.33 1.33 0 0 0-.396.957 1.01 1.01 0 0 0 0 .418 1.452 1.452 0 0 0 1.122 1.056m.671 12.542a1.419 1.419 0 0 0-1.771 1.1 1.76 1.76 0 0 0 0 .759 1.452 1.452 0 0 0 1.012.958.385.385 0 0 0 .154 0 1.64 1.64 0 0 0 .561 0 1.518 1.518 0 0 0 .902-.749 1.66 1.66 0 0 0 .165-.649 1.63 1.63 0 0 0-.165-.66 1.474 1.474 0 0 0-.858-.759M9.106 2.307c-5.435 0-5.864 5.875-5.864 5.875v13.455H5.97v-7.503l1.013.979 4.532-1.661a5.644 5.644 0 0 0 3.433-5.028 5.963 5.963 0 0 0-5.842-6.117m1.232 8.802-4.335 1.683V7.808a3.069 3.069 0 0 1 2.982-2.761 3.135 3.135 0 0 1 3.146 3.223 3.025 3.025 0 0 1-1.793 2.839"/></svg>