<svg xmlns="http://www.w3.org/2000/svg" viewBox="0 0 24 24"><path fill="#44739e" d="m12.28 11.704.202-.35v-1.016l-.788 1.366Zm.191-.353-.198.342h-.562l.76-1.32Zm-.967.25v-.02l.769-1.337h-.379l-.387.671v-.022.708Zm.011-.684.382-.659h.36l-.742 1.285Zm.966-.579h.001v1.037-1.059l-.001.001Zm-.205-.095h.012v.001h-.012Zm-.397-.002v-.001l.011.006-.001.001Zm-.572.001v1.476a.189.189 0 0 0 .189.189h.99a.189.189 0 0 0 .189-.189v-1.482a.189.189 0 0 0-.189-.189h-.99a.189.189 0 0 0-.189.195m.186.675.011-.017v-.658h.375l.006-.01h.409l-.006.01h.194v.073l.01-.019v1.059l-.01.019-.196.34h-.612l.807-1.398v-.074h-.193l-.784 1.357v.103-.102l-.011.018Zm.386-.673h-.375v.649Zm-.253 1.956a.278.278 0 1 0 .278.278.276.276 0 0 0-.278-.278m0 .358a.079.079 0 0 1-.067-.036.07.07 0 0 1-.015-.045.081.081 0 1 1 .162 0 .081.081 0 0 1-.079.081Zm.081-.08h-.162a.077.077 0 0 0 .015.044.078.078 0 0 0 .066.036.081.081 0 0 0 .081-.08m.661-.278a.278.278 0 1 0 .277.278.277.277 0 0 0-.277-.278m.081.278a.081.081 0 0 1-.162 0 .081.081 0 0 1 .162 0m-.081.08a.082.082 0 0 0 .081-.08h-.162a.081.081 0 0 0 .081.08m2.888-7.826-.324-.99-.01-.026a.21.21 0 0 0-.118-.11.206.206 0 0 0-.157.009l-2.041.969.012.009a.902.902 0 0 1 .276.647.96.96 0 0 1-.01.163v.015l2.22-.417a.207.207 0 0 0 .14-.096l.01-.017a.205.205 0 0 0 .002-.156m-.028.164a.198.198 0 0 1-.134.092l-2.205.415a.77.77 0 0 0 .015-.161.897.897 0 0 0-.28-.654l2.027-.961a.195.195 0 0 1 .261.092l.01.024.324.99a.196.196 0 0 1-.02.161Zm-4.104.507a.9.9 0 0 1-.015-.158.902.902 0 0 1 .279-.646l.012-.011-2.047-.972a.212.212 0 0 0-.171 0 .203.203 0 0 0-.11.125l-.325.99-.006.026a.205.205 0 0 0 .165.24l2.218.417Zm-2.219-.415a.196.196 0 0 1-.158-.227l.007-.026.324-.99a.191.191 0 0 1 .11-.119c.016-.007.032 0 .049 0a.15.15 0 0 0-.044.008.185.185 0 0 0-.102.11l-.325.99-.005.023a.185.185 0 0 0 .147.22l2.189.409a.95.95 0 0 1-.012-.147.918.918 0 0 1 .273-.649l-2.012-.956a.17.17 0 0 0-.048-.009c.018 0 .037-.008.053 0l2.026.961a.9.9 0 0 0-.281.652.9.9 0 0 0 .012.165Zm2.67-.536a.89.89 0 0 1 .847 0l.013.007.29-2.24v-.026a.207.207 0 0 0-.206-.207h-1.073a.206.206 0 0 0-.177.232l.295 2.241Zm-.121-2.453h1.071a.196.196 0 0 1 .196.196v.024l-.288 2.225a.907.907 0 0 0-.856 0l-.295-2.231a.195.195 0 0 1 .172-.214m1.265 3.24a.719.719 0 0 0-.715-.716.72.72 0 0 0 0 1.441.72.72 0 0 0 .715-.725m-.715.714a.71.71 0 1 1 .71-.712.709.709 0 0 1-.71.712m1.337 2.252c-.01 0-.017-.011-.027-.013.01.002.016.012.027.013m-.529-2.59-.006.014a.897.897 0 0 1-.685.499h-.016l1.082 1.979.015.023a.198.198 0 0 0 .11.058.19.19 0 0 1-.098-.06l-.015-.022-1.073-1.968a.907.907 0 0 0 .693-.504l1.54 1.63a.195.195 0 0 1-.008.277l-.019.015-.845.615a.196.196 0 0 1-.142.034c.01 0 .016.015.027.015a.21.21 0 0 0 .121-.04l.846-.615.02-.016a.21.21 0 0 0 .065-.144.212.212 0 0 0-.057-.149Zm-1.618.014-.007-.014-1.551 1.641-.016.017a.21.21 0 0 0-.038.154.202.202 0 0 0 .083.135l.845.615.022.014a.21.21 0 0 0 .099.025.22.22 0 0 0 .059-.009.205.205 0 0 0 .123-.099l1.081-1.979h-.015a.894.894 0 0 1-.685-.5m-.391 2.477a.196.196 0 0 1-.265.078l-.022-.013-.845-.615a.196.196 0 0 1-.043-.273l.016-.019 1.539-1.63a.903.903 0 0 0 .693.504Zm3.537-.573a.18.18 0 0 0 .058-.13.184.184 0 0 0-.05-.131l-1.53-1.619a.913.913 0 0 1-.679.493l1.067 1.956.013.02a.184.184 0 0 0 .258.04l.845-.613Zm.572-3.788-.01-.023a.184.184 0 0 0-.246-.086l-2.013.954a.91.91 0 0 1 .272.651.85.85 0 0 1-.012.148l2.19-.412a.19.19 0 0 0 .117-.073l.008-.014a.185.185 0 0 0 .017-.151Zm-3.731 1.908-1.53 1.62-.014.017a.186.186 0 0 0 .04.26l.846.613.02.014a.184.184 0 0 0 .141.014.178.178 0 0 0 .11-.088l1.067-1.956a.917.917 0 0 1-.68-.494m.823-1.33a.91.91 0 0 1 .419.102l.282-2.212v-.02a.185.185 0 0 0-.185-.185h-1.066a.185.185 0 0 0-.157.208l.286 2.208a.91.91 0 0 1 .421-.101m.488.42a.693.693 0 0 0-.494-.205.699.699 0 0 0-.493 1.195.693.693 0 0 0 .493.204.699.699 0 0 0 .494-1.194m3.188 1.554c.014-.048.037-.093.049-.143-.012.05-.035.095-.049.143m.155-.878a3.83 3.83 0 0 0-.227-1.491 3.85 3.85 0 0 1 .227 1.491m0 0v.021Zm-.003.021a3.8 3.8 0 0 1-.103.714 3.74 3.74 0 0 0 .103-.714m-.543-2.183a3.8 3.8 0 0 1 .306.642 3.85 3.85 0 0 0-.306-.642m-.087-.116c.027.039.062.074.087.116-.025-.042-.059-.077-.087-.116m.393.758c0 .01.01.019.013.029-.003-.01-.009-.019-.013-.029m-4.11 5.545a4 4 0 0 1-.367-.061v3.91a.55.55 0 0 0 .549.55h.66a.55.55 0 0 0 .55-.55v-3.91c-.121.025-.243.045-.367.061a4.33 4.33 0 0 1-1.025 0m1.391-.058v3.907a.55.55 0 0 1-.55.55h-.66a.55.55 0 0 1-.55-.55V9.386c.11.024.22.043.366.06a4.22 4.22 0 0 0 1.027 0c.13-.016.253-.035.367-.06m2.672 12.287h-2.994v-5.48a.15.15 0 0 0-.15-.149h-.01v-1.907a.846.846 0 0 0 .783-.845v-3.98a4.239 4.239 0 1 0-5.249-2.895 4.3 4.3 0 0 0 .265.668 3.96 3.96 0 0 1-.404-2.122 4.2 4.2 0 0 0 .146 1.453 4.25 4.25 0 0 0 .267.684l-.008-.015c.018.037.036.073.056.11l-.007-.013a4.2 4.2 0 0 0 .37.601v.007a4.26 4.26 0 0 0 .832.831h.007a4.2 4.2 0 0 0 .6.371l-.015-.007.11.057-.017-.009a4.3 4.3 0 0 0 .685.268v3.985a.847.847 0 0 0 .781.841v1.922h-.014a.144.144 0 0 0-.144.144v5.487H8.449a.685.685 0 0 0-.683.682v.149a.489.489 0 0 0 .488.489h7.489a.487.487 0 0 0 .486-.486v-.147a.683.683 0 0 0-.681-.683h-3.001v-5.491a.144.144 0 0 0-.144-.144h-.015v-1.917a.847.847 0 0 0 .781-.84V9.307a4.2 4.2 0 0 0 1.308-.66 4.2 4.2 0 0 1-1.307.66v3.983a.846.846 0 0 1-.784.842v1.912h.013a.147.147 0 0 1 .146.147v5.489h2.998a.687.687 0 0 1 .685.687v.147a.492.492 0 0 1-.485.486H8.254a.492.492 0 0 1-.49-.489v-.149a.687.687 0 0 1 .685-.685h3.005v-5.483a.147.147 0 0 1 .146-.146h.012v-1.913a.848.848 0 0 1-.784-.842V9.309a4.2 4.2 0 0 1-.666-.26 4.2 4.2 0 0 0 .66.263v3.981a.85.85 0 0 0 .784.845v1.907h-.01a.15.15 0 0 0-.15.149v5.479H8.449a.692.692 0 0 0-.688.687v.148a.495.495 0 0 0 .493.492h7.489a.493.493 0 0 0 .492-.492v-.147a.69.69 0 0 0-.687-.688m-.316-13.7a4.29 4.29 0 0 0 .802-1.453 4.26 4.26 0 0 1-.802 1.453m.817-1.521a4.3 4.3 0 0 0 .156-.732 4.2 4.2 0 0 1-.156.732m.16-.927a4.21 4.21 0 0 0-.145-1.457 4.21 4.21 0 0 0-.651-1.305 4.18 4.18 0 0 1 .653 1.301 4.19 4.19 0 0 1 .143 1.461m-.906-2.93a4.1 4.1 0 0 0-.516-.53 4.07 4.07 0 0 1 .516.53m-.571-.586a4.3 4.3 0 0 0-1.452-.802 4.27 4.27 0 0 1 1.45.802Zm-1.531-.819a4.2 4.2 0 0 0-.722-.154 4.3 4.3 0 0 1 .72.154Zm-.016.391a4 4 0 0 1 .399.166 3.85 3.85 0 0 0-.5-.19c.032.01.067.013.1.024Zm-2.36-.407a4.18 4.18 0 0 1 1.452-.142 4.028 4.028 0 0 0-2.755.795 4.18 4.18 0 0 1 1.302-.653Zm1.996.32c-.09-.02-.179-.044-.27-.057.09.013.179.037.269.057Zm-.685-.089h-.271c.045 0 .089-.011.135-.011s.089.009.135.011Zm-.686.032c-.092.013-.181.037-.271.057.089-.02.178-.044.275-.057Zm-.535.117a4 4 0 0 0-.502.19 4 4 0 0 1 .4-.166c.034-.007.068-.011.102-.024m-1.563.384a4.2 4.2 0 0 0-.531.517 4.2 4.2 0 0 1 .531-.517m-.586.572a4.3 4.3 0 0 0-.802 1.452 4.27 4.27 0 0 1 .802-1.452m-.973 2.253a4.3 4.3 0 0 1 .154-.719 4.2 4.2 0 0 0-.154.719m4.308 11.286h-.207v-1.87h.202Zm.781-2.756a.555.555 0 0 1-.55.55h-.66a.555.555 0 0 1-.55-.55V9.379c.11.024.22.044.366.061a4.33 4.33 0 0 0 1.027 0c.128-.016.251-.036.367-.061Zm-.416-4.236a3.83 3.83 0 0 1-.934 0 3.849 3.849 0 0 1-3.377-3.818 3.801 3.801 0 0 1 2.149-3.446 3.8 3.8 0 0 0-.581.351 3.843 3.843 0 1 0 5.37 5.374 3.8 3.8 0 0 0 .588-1.221 3.793 3.793 0 0 1-3.215 2.75 3.841 3.841 0 0 1-2.743-6.901 3.96 3.96 0 0 1 .591-.357c.017-.009.037-.014.055-.023a3.85 3.85 0 0 1 .549-.209c.083-.024.167-.041.249-.06s.194-.046.293-.06.183-.015.277-.022a3.9 3.9 0 0 1 .532 0c.092.007.185.009.276.022s.195.038.293.06.166.036.247.06a3.8 3.8 0 0 1 .55.21c.018.008.035.013.053.022a3.74 3.74 0 0 1 1.519 1.352 3.8 3.8 0 0 0-.926-.997 3.85 3.85 0 0 0-.581-.351 3.77 3.77 0 0 1 1.603 1.481 3.849 3.849 0 0 1-2.837 5.783m2.715-1.034a4.15 4.15 0 0 1-.535.522 4.15 4.15 0 0 0 .535-.522m-6.562-.232a4 4 0 0 0 .831.831 4.2 4.2 0 0 1-.831-.831m-.006-.009a4.15 4.15 0 0 1-.364-.586 4.23 4.23 0 0 0 .364.586m1.431 1.21a4.4 4.4 0 0 1-.584-.363 4.3 4.3 0 0 0 .584.363m2.053 5.194h-.196v1.861h.196Zm0 1.858h-.191v-1.856h.191Z"/></svg>