<svg xmlns="http://www.w3.org/2000/svg" viewBox="0 0 24 24"><path fill="#44739e" d="M18.906 2.79c0-.256-1.791-1.534-6.395-1.79a39.04 39.04 0 0 0-7.673.77h-.255v1.276l2.557 9.975a5.31 5.31 0 0 0 2.558 1.539 11.675 11.675 0 0 1-.511 5.115q-1.534.383-1.534 1.535c0 1.279 2.045 1.79 4.091 1.79s4.092-.511 4.092-1.79c0-.77-.77-1.279-1.534-1.535a11.675 11.675 0 0 1-.512-5.115c2.557-.512 2.814-.512 2.814-.77s1.79-6.394 2.813-9.975ZM8.678 4.325l.511 5.115-1.79-1.023-1.023-4.859Zm-.512 7.417-.511-2.046 1.534.77.255 2.045Zm2.557 1.279-.255-2.557 5.115-.512-.511 2.557Zm5.115-4.093-5.37.512-.514-5.115 7.161-.512Z"/></svg>