<svg xmlns="http://www.w3.org/2000/svg" fill="#44739e" viewBox="0 0 24 24"><path d="M10.82 8c-.04-1.31-1.52-3.44-1.94-4.03l-.05-2.33c-.01-.27-.23-.49-.5-.49H6.16c-.27 0-.49.22-.5.49l-.05 2.32c-.42.59-1.9 2.73-1.94 4.04l-.44 13.13c-.01.22.13.42.34.49.02.01.16.05.38.11 0 .07 0 .14.03.2.11.25.67 1.09 3.27 1.09s3.16-.83 3.27-1.09c.03-.06.03-.13.03-.2.22-.06.36-.1.38-.11.21-.07.35-.27.34-.49zm8.75.77c-.03-.83-.97-2.19-1.23-2.56l-.04-1.48c-.01-.17-.15-.31-.32-.31H16.6c-.17 0-.31.14-.32.31l-.02 1.47c-.04.06-.1.15-.17.25.24.54.42 1.1.44 1.59l.35 10.26c.14.01.27.02.43.02 1.65 0 2.01-.53 2.08-.69.02-.04.02-.08.02-.13.14-.04.23-.06.24-.07.13-.04.22-.17.22-.31zm-4.05-.69c-.04-1.06-1.22-2.77-1.57-3.25l-.04-1.88c0-.22-.18-.39-.4-.39h-1.74c-.22 0-.4.18-.4.39l-.04 1.88c-.08.12-.22.31-.38.55.48.9.85 1.82.87 2.59l.42 12.2c.13.01.26.02.4.02 2.09 0 2.55-.67 2.63-.88.02-.05.03-.11.03-.16.18-.05.29-.08.3-.09.17-.06.28-.22.28-.4z"/></svg>