<svg xmlns="http://www.w3.org/2000/svg" viewBox="0 0 24 24"><path fill="#44739e" d="M13.273 7.891c-.04-1.318-1.529-3.461-1.952-4.054l-.05-2.344c-.01-.272-.231-.493-.503-.493H8.585c-.272 0-.493.221-.503.493l-.05 2.334c-.423.593-1.911 2.746-1.952 4.064l-.442 13.208c-.01.221.13.422.342.493.02.01.161.05.382.11 0 .071 0 .141.03.202.111.251.674 1.096 3.29 1.096s3.178-.835 3.289-1.096c.03-.061.03-.131.03-.202.221-.06.362-.1.382-.11.212-.071.353-.272.342-.493Zm4.728.08c-.041-1.066-1.228-2.786-1.58-3.269l-.04-1.891c0-.222-.181-.393-.402-.393h-1.751c-.221 0-.402.181-.402.393l-.04 1.891c-.081.121-.222.312-.382.553.482.905.855 1.831.875 2.606l.422 12.272c.131.01.262.02.403.02 2.102 0 2.565-.674 2.645-.885.02-.05.03-.111.03-.161.181-.05.292-.08.302-.091.171-.06.282-.221.282-.402Z"/></svg>