<svg xmlns="http://www.w3.org/2000/svg" viewBox="0 0 24 24"><path fill="#44739e" d="M11.266 7.891c-.04-1.318-1.529-3.461-1.952-4.054l-.05-2.344C9.254 1.221 9.033 1 8.761 1H6.578c-.271 0-.493.221-.503.493l-.05 2.334c-.423.593-1.911 2.746-1.952 4.064l-.442 13.208c-.01.221.131.422.342.493.02.01.161.05.382.11 0 .071 0 .141.03.202.111.251.674 1.096 3.29 1.096s3.178-.835 3.289-1.096c.03-.061.03-.131.03-.202.222-.06.362-.1.383-.11.211-.071.352-.272.342-.493Zm8.802.774c-.03-.835-.976-2.203-1.237-2.575l-.041-1.489c-.01-.171-.151-.312-.322-.312H17.08c-.171 0-.312.141-.322.312l-.02 1.479c-.04.06-.1.151-.171.252.242.543.423 1.106.443 1.599l.352 10.321c.141.01.272.02.432.02 1.66 0 2.022-.533 2.093-.694.02-.04.02-.081.02-.131.141-.04.231-.06.241-.07.131-.04.222-.171.222-.312Zm-4.074-.694c-.04-1.066-1.227-2.786-1.579-3.269l-.041-1.891c0-.222-.181-.393-.402-.393h-1.75c-.222 0-.403.181-.403.393l-.04 1.891c-.081.121-.221.312-.382.553.483.905.855 1.831.875 2.606l.422 12.272c.131.01.262.02.403.02 2.102 0 2.565-.674 2.645-.885.02-.05.031-.111.031-.161.181-.05.291-.08.301-.091.171-.06.282-.221.282-.402Z"/></svg>