<svg xmlns="http://www.w3.org/2000/svg" viewBox="0 0 24 24"><path fill="#44739e" d="M23 20.032c-.267-1.605-2.139-2.139-4.547-2.675a9.64 9.64 0 0 1-2.943-.535 3.991 3.991 0 0 1-2.941-3.74V6.653c0-.536.267-1.338 1.605-2.408.534-.534 1.605-1.069 1.336-1.87s-1.336-1.069-3.477-1.069c-2.139 0-3.21.267-3.477 1.069s.803 1.338 1.338 1.87c1.337 1.07 1.605 1.87 1.605 2.408v6.419a3.989 3.989 0 0 1-2.943 3.74c-.802.268-1.87.535-2.941.802-2.141.536-4.28 1.071-4.547 2.408a.585.585 0 0 0 .267.802c.802 1.338 4.011 1.87 9.362 1.87h1.87c6.151 0 9.629-.535 10.431-1.87v-.792m-10.699 1.605h-1.87c-7.488 0-8.291-1.07-8.558-1.338h19.791c0 .535-1.337 1.605-9.36 1.338"/></svg>