<svg xmlns="http://www.w3.org/2000/svg" fill="#44739e" viewBox="0 0 24 24"><path d="M22 19.3c-.243-1.459-1.945-1.945-4.134-2.432a8.76 8.76 0 0 1-2.675-.486 3.628 3.628 0 0 1-2.674-3.4V7.137c0-.487.243-1.216 1.459-2.189.486-.486 1.459-.972 1.215-1.7s-1.215-.972-3.161-.972c-1.945 0-2.918.243-3.161.972s.73 1.216 1.216 1.7c1.216.973 1.459 1.7 1.459 2.189v5.836a3.626 3.626 0 0 1-2.675 3.4c-.729.243-1.7.486-2.674.729-1.946.487-3.891.973-4.134 2.189a.532.532 0 0 0 .243.729c.729 1.216 3.647 1.7 8.511 1.7h1.7c5.592 0 8.754-.486 9.483-1.7v-.72m-9.726 1.459h-1.7c-6.808 0-7.538-.973-7.781-1.216h17.993c0 .486-1.216 1.459-8.51 1.216"/></svg>