<svg xmlns="http://www.w3.org/2000/svg" viewBox="0 0 24 24"><path fill="#44739e" d="M22.875 15.734c-.22-.408-.417-.44-1.172-.186a3.52 3.52 0 0 1-1.616.142 11.215 11.215 0 0 1-7.735-3.249 13.77 13.77 0 0 1-3.104-5.073 4.536 4.536 0 0 0-1.256-1.982 2.774 2.774 0 0 0-1.332-.587c-.134 0-.11.072.142.441a3.586 3.586 0 0 1 .586 2.664c-.026.71-.045 2.104-.045 3.108a8.48 8.48 0 0 0 .231 2.672 15 15 0 0 0 .507 1.51 2.004 2.004 0 0 0 .947 1.146 10.38 10.38 0 0 0 4.76 1.917 15.62 15.62 0 0 0 8.302-1.393c.91-.435 1.052-.64.785-1.13m-8.96 5.899a2.7 2.7 0 0 1-1.128-.373 11.465 11.465 0 0 1-6.349-9.626 18.5 18.5 0 0 1 .058-2.354 8.63 8.63 0 0 0 0-2.793 2.89 2.89 0 0 0-1.084-1.474c-.48-.31-.48-.258.036-1.643a6.08 6.08 0 0 0 .364-1.321.572.572 0 0 0-.288-.626 1.833 1.833 0 0 0-1.872-.284c-.187.151-.213.266-.275 1.403-.039.672-.074 1.436-.074 1.685-.009.426-.026.471-.275.568a3.18 3.18 0 0 0-1.181 1.306C.914 7.948.728 11.58 1.429 14.368a12.2 12.2 0 0 0 1.51 3.393 12.77 12.77 0 0 0 7.611 4.799 19.9 19.9 0 0 0 3.365.44c.498 0 .604-.035.791-.22a.577.577 0 0 0 .017-.881 1.185 1.185 0 0 0-.808-.266m-2.823-.321a7.6 7.6 0 0 1-.791-.266 9.836 9.836 0 0 1-6.165-7.051 13.6 13.6 0 0 1-.417-3.743 6.924 6.924 0 0 1 .881-4.04c.204-.249.364-.365.258-.195-.018.035-.111.44-.188.896a16.35 16.35 0 0 0 .498 7.797 11.292 11.292 0 0 0 5.284 6.198 4.56 4.56 0 0 1 .64.404"/></svg>