<svg xmlns="http://www.w3.org/2000/svg" fill="#44739e" viewBox="0 0 24 24"><path d="m15.129 5.8.328-3.317a.343.343 0 0 0-.194-.343l-.2-.1a.49.49 0 0 0-.208-.04h-.309a.385.385 0 0 0-.153.032l-.242.1a.344.344 0 0 0-.205.339l.246 3.329Zm-.933.103h.928v.265h-.928Zm1.111 2.028.1-.577a.138.138 0 0 0-.031-.112.136.136 0 0 0-.105-.049h-.4a.144.144 0 0 0-.14.171l.107.56a.178.178 0 0 0 .175.145h.13a.169.169 0 0 0 .164-.138m-.293.038a.078.078 0 0 1-.075-.062l-.108-.56a.046.046 0 0 1 .009-.035.041.041 0 0 1 .033-.015h.4a.037.037 0 0 1 .028.013.036.036 0 0 1 .008.029l-.1.577a.064.064 0 0 1-.063.054Zm.75-.369a.912.912 0 1 0-1.813 0 .912.912 0 1 0 1.813 0m-1.308 0a.6.6 0 1 1 .6.659.632.632 0 0 1-.6-.659m.402 1.164a.93.93 0 0 1-.2-.021l-.287.04.122.883a.084.084 0 0 0 .094.071l.328-.045a.071.071 0 0 0 .06-.079l-.118-.849ZM12.05 9.9a.489.489 0 0 0 .489.487h3.4a.4.4 0 0 0 .4-.4l-.065-6.24c0-.372-.131-.6-.337-.6l-.42-.013H15.5l-.27 2.717v.414h-1.136v-.411l-.2-2.746-2.274-.041a2.256 2.256 0 0 1 .4 1.307zm1.961-3.6a1.06 1.06 0 0 1 .17.014l-.007.153a.85.85 0 0 0-.161-.016 1.159 1.159 0 0 0-1.035 1.25 1.159 1.159 0 0 0 1.035 1.251.87.87 0 0 0 .325-.064l-.022-.155.054-.007a1.183 1.183 0 0 1-.652-.413h-.229l-.022-.03a1.1 1.1 0 0 1-.239-.582.747.747 0 0 1 .238-.516.97.97 0 0 0-.042.284v.033a.49.49 0 0 0-.044.2.9.9 0 0 0 .184.46h.05a1.16 1.16 0 0 1-.138-.414.51.51 0 0 0 .157.014 1.012 1.012 0 0 0 .567.744 1.2 1.2 0 0 1-.4-.907 1.24 1.24 0 0 1 .124-.543 2.04 2.04 0 0 1 .327-.4.827.827 0 0 1 .491-.212h.014a.9.9 0 0 1 .1-.006 1.114 1.114 0 0 1 1.06 1.162 1.119 1.119 0 0 1-1.007 1.158l.117.844A.122.122 0 0 1 15 9.7a.123.123 0 0 1-.08.047l-.328.045h-.019a.135.135 0 0 1-.133-.116l-.086-.624a1 1 0 0 1-.346.061 1.31 1.31 0 0 1-1.188-1.4 1.31 1.31 0 0 1 1.191-1.408zm-.438 11.268c0 .03.025.049.04.047l.881-.016c.015 0 .034-.017.039-.045l.378-2.1a.07.07 0 0 0-.011-.054.033.033 0 0 0-.025-.014H13.3a.034.034 0 0 0-.024.013.073.073 0 0 0-.015.058zm.482-.187a.1.1 0 1 1 .1-.1.1.1 0 0 1-.1.1m.478-1.194-.037.032-.017-.021.016-.1-.006-.021.026-.154.037-.032.026.033zm-.118-.273-.026-.033.038-.033h.09l.026.033-.038.033zm.222-.338-.043.261-.039.033-.026-.033.026-.152.015-.022.017-.1.024-.022zm-.315-.077h.254l.026.033-.037.033h-.254l-.026-.033zm-.06.349h.09l.027.033-.038.033h-.09l-.026-.033Zm-.062.352h.254l.026.033-.037.033h-.255l-.026-.033zm-.332.328a.121.121 0 0 1 .121-.121h.126a.121.121 0 0 1 .121.121v.346a.121.121 0 0 1-.121.12h-.126a.121.121 0 0 1-.121-.12zm-3.082 4.181a24.3 24.3 0 0 1 3.462-.285 28.4 28.4 0 0 1 3.2.047V3.119a.059.059 0 0 0-.057-.059l-1.31-.032c.147.058.333.228.339.716l.065 6.241a.55.55 0 0 1-.549.554h-3.4A.643.643 0 0 1 11.9 9.9l-.026-5.526a2.05 2.05 0 0 0-.474-1.336l-.114-.13-1.832-.045a1.68 1.68 0 0 1 1.364 1.714l-.1 16.075a.058.058 0 0 0 .023.047.052.052 0 0 0 .045.01m2.219-5.544a.388.388 0 0 1 .293-.136h1.574a.388.388 0 0 1 .3.141.424.424 0 0 1 .091.35l-.379 2.1a.4.4 0 0 1-.381.337l-.882.017h-.007a.4.4 0 0 1-.391-.351l-.314-2.113a.426.426 0 0 1 .096-.345m-1.38 5.884a6.12 6.12 0 0 0 2.092.235l5.395-.323-1.748-.3-.671-.006c-.884-.01-1.72-.019-2.552.007l-.412.012a27.1 27.1 0 0 0-2.8.179zm2.058.335a6.14 6.14 0 0 1-2.117-.246l-.809-.242v.577l1.3.374A3.95 3.95 0 0 0 13.14 22h.27l2.059-.074q1.153-.042 2.3-.148l1.168-.108.1-.111h.3l.1-.185v-.33zm-3.048-.521-1.982-.043-.8-.025c-.135-.038-.278-.079-.424-.123-1.275-.384-2.856-.968-2.856-.968-.073.108.171.423.39.55a8.122 8.122 0 0 0 5.673 1.191v-.582zm-5.929-1.276 3.1 1.052L7.719 2.9H6.707a4.75 4.75 0 0 0-2.063.525.144.144 0 0 0-.055.1L4.638 19.5a.1.1 0 0 0 .068.087m5.778 1.137.105-16.149a1.553 1.553 0 0 0-1.472-1.554L7.871 2.9l.087 17.743Zm8.38-17.259a.159.159 0 0 0-.136-.156l-1.052-.146V20.5l1.188-.107zm0 17.401v-.32l-1.188.107-.026.002.026.005zm-2.17-.266.584.006a30.2 30.2 0 0 0-3.026-.029c-.531.015-1.24.047-1.888.094.449-.024.9-.038 1.363-.052l.412-.012c.834-.027 1.67-.018 2.555-.007"/></svg>