<svg xmlns="http://www.w3.org/2000/svg" fill="#44739e" viewBox="0 0 24 24"><path d="m20.023 20.135 1.512-.447.29-.641-1.693.532zm-9.559.265-.016.081a.529.529 0 0 0 .5.635l3.513.084c.632.024-.147-.227.287-.687zM2.2 19.271a2.2 2.2 0 0 0 1.505 1.009l2.094.346a.528.528 0 0 0 .615-.521v-.083ZM2.1 8.176a45.3 45.3 0 0 0 8.842.816 28.3 28.3 0 0 0 4.206-.272A17.24 17.24 0 0 0 21.3 6.713l.183-.1c.161-.084.3-.156.423-.217l.031-.015.063-2.74c-.023-.063-.11-.22-1.526-.431-.873-.129-2.068-.241-3.365-.315a42.6 42.6 0 0 0-7.78.156A25.15 25.15 0 0 0 2 5.431l.06 2.735Zm19.73-1.862-.015.008c-.114.056-.238.121-.381.2a18.04 18.04 0 0 1-6.344 2.029 34.9 34.9 0 0 1-4.651.274 40.94 40.94 0 0 1-8.249-.738l-.02-.009-.051-2.34.041.02c.894.434 4.6.6 8.616.382 2.445-.132 8.418-.612 11.063-2.217l.044-.026ZM2.088 5.533a25.8 25.8 0 0 1 7.257-2.372 42.55 42.55 0 0 1 7.725-.156c3.146.177 4.711.53 4.818.725l.012.023-.022.014c-2.565 1.638-8.622 2.127-11.108 2.261-1.2.064-2.33.093-3.358.093-2.928 0-5.011-.232-5.312-.534l-.035-.035Zm8.679.439c2.116-.114 6.826-.485 9.751-1.605-.9-.1-2.162-.146-3.579-.178l-.149-.43-.049-.144v-.009a.8.8 0 0 0-.936-.47.744.744 0 0 0-.484.47l-.048.369-.024.18c-1.071-.021-2.176-.045-3.236-.09a11.57 11.57 0 0 0-4.577.681L3.775 5.817c-.035.013-.108.04-.2.078a47.3 47.3 0 0 0 7.192.077m6.306-2.366h-.001l.004.009zm.044.117a.8.8 0 0 0-.041-.108l.05.144c-.003-.012-.005-.024-.009-.036M5.074 6.93c.987.083 3.239.337 4.4.357 5.481.1 6.806-.366 9.713-1.47 1.538-.583 2.714-1.146 2.174-1.306a3.5 3.5 0 0 0-.4-.083C18.032 5.676 12.98 6.077 10.779 6.2a44.27 44.27 0 0 1-7.574-.13c-.447.243-.786.582.5.688Zm9.036-.85c.451 0 .817.121.817.27s-.366.269-.817.269-.817-.121-.817-.269.366-.27.817-.27m-11.705.5.032 1.329.326.131-.038-1.251Zm.439.228.024 1.25a53.3 53.3 0 0 0 9.859.574l.082-1.194a44.03 44.03 0 0 1-9.965-.63m2.723 2.04c-.295-.033-3.08-.4-3.529-.532l.07 10.4a.476.476 0 0 0 .381.469c8.2 1.649 14.959 1.5 19.2-.234a.421.421 0 0 0 .26-.389l.022-11.982C18.958 8.394 14.11 9.792 5.567 8.848m1.248 1.681a.454.454 0 0 1 .5-.452.454.454 0 0 1 .408.452v4.562a.453.453 0 0 1-.543.444.452.452 0 0 1-.364-.444Zm.453 8.518a.7.7 0 0 1 0-1.371.7.7 0 0 1 0 1.371M12.93 8.615a20.93 20.93 0 0 0 8.729-2.326l.041-1.406a21.28 21.28 0 0 1-8.683 2.5z"/></svg>