<svg xmlns="http://www.w3.org/2000/svg" viewBox="0 0 24 24"><path fill="#44739e" d="m20.825 20.955 1.664-.492.319-.705-1.863.585Zm-10.515.292-.017.089a.582.582 0 0 0 .55.698l3.864.093c.695.026-.162-.25.316-.756Zm-9.09-1.242a2.42 2.42 0 0 0 1.656 1.11l2.303.38a.581.581 0 0 0 .676-.573v-.091ZM1.11 7.8a49.83 49.83 0 0 0 9.726.898 31.1 31.1 0 0 0 4.627-.299 18.96 18.96 0 0 0 6.767-2.208l.201-.11c.177-.093.33-.172.466-.239l.034-.016L23 2.812c-.025-.07-.121-.242-1.679-.474-.96-.142-2.274-.266-3.701-.347a46.86 46.86 0 0 0-8.558.172A27.67 27.67 0 0 0 1 4.781l.066 3.008Zm21.703-2.048-.016.009c-.126.061-.262.133-.42.22a19.84 19.84 0 0 1-6.978 2.232 38.4 38.4 0 0 1-5.116.301 45.03 45.03 0 0 1-9.074-.812l-.022-.01-.056-2.574.045.022c.983.478 5.06.66 9.478.421 2.689-.146 9.259-.674 12.169-2.439l.048-.029ZM1.097 4.893A28.38 28.38 0 0 1 9.08 2.284a46.8 46.8 0 0 1 8.497-.172c3.461.195 5.182.583 5.3.798l.013.025-.024.015c-2.822 1.802-9.484 2.34-12.219 2.487-1.32.071-2.563.103-3.694.103-3.221 0-5.512-.256-5.843-.588l-.038-.038Zm9.547.483c2.327-.126 7.508-.534 10.726-1.766-.99-.11-2.378-.16-3.937-.196l-.164-.473-.054-.158v-.01a.88.88 0 0 0-1.029-.517.818.818 0 0 0-.533.517l-.053.406-.026.198c-1.178-.023-2.394-.049-3.56-.099a12.73 12.73 0 0 0-5.034.749L2.953 5.205c-.039.015-.119.044-.22.086a52 52 0 0 0 7.911.085m6.936-2.603h-.001l.005.01Zm.049.129a.9.9 0 0 0-.045-.119l.055.158c-.004-.013-.006-.026-.01-.039M4.381 6.43c1.086.091 3.563.37 4.84.392 6.03.11 7.487-.402 10.685-1.617 1.692-.641 2.985-1.26 2.391-1.436a3.9 3.9 0 0 0-.44-.092c-3.222 1.373-8.779 1.814-11.2 1.95a48.7 48.7 0 0 1-8.331-.143c-.492.267-.865.64.55.756Zm9.94-.935c.496 0 .899.133.899.297s-.403.295-.899.295-.899-.133-.899-.295.403-.297.899-.297m-12.875.55.035 1.461.358.145-.041-1.377Zm.482.25.027 1.375a58.63 58.63 0 0 0 10.845.632l.09-1.314a48.43 48.43 0 0 1-10.962-.693m2.996 2.244c-.325-.036-3.388-.44-3.882-.585l.077 11.44a.524.524 0 0 0 .419.516c9.02 1.814 16.455 1.65 21.12-.257a.463.463 0 0 0 .286-.428l.024-13.18C19.654 8.04 14.321 9.578 4.924 8.539m1.373 1.849a.499.499 0 0 1 .55-.497.499.499 0 0 1 .448.497v5.019a.498.498 0 0 1-.597.488.497.497 0 0 1-.4-.488Zm.498 9.37a.77.77 0 0 1 0-1.508.77.77 0 0 1 0 1.508m6.228-11.475a23.02 23.02 0 0 0 9.602-2.559l.045-1.546a23.41 23.41 0 0 1-9.551 2.75Z"/></svg>