<svg xmlns="http://www.w3.org/2000/svg" fill="#44739e" viewBox="0 0 24 24"><path d="M16.588 6.156 6.689 5.9l2.316 9.485a4.247 4.247 0 0 0 3.954 2.973l6.749-.155a1.773 1.773 0 0 0 1.56-.746 2.045 2.045 0 0 0-.091-1.955zM3.958 20.249 3.939 3.7a.686.686 0 0 1 .2-.479.04.04 0 0 1 .015-.009l.182-.063h-.543a.317.317 0 0 0-.317.317v16.828a.47.47 0 0 0 .28.43l.4.177a.036.036 0 0 0 .04-.059.847.847 0 0 1-.238-.593m8.929-1.302c-.1 0-.2 0-.292-.012l-3.93.164h-.117A2.719 2.719 0 0 1 5.833 16.4L5.775 5.043l11.4.388v.59l1.536 3.128V4.39a.718.718 0 0 0-.689-.718L4.985 3.154a.717.717 0 0 0-.746.717v16.4a.717.717 0 0 0 .751.717l13.039-.617a.718.718 0 0 0 .684-.717v-.837l-5.74.132zm3.701-12.791L6.689 5.9l2.316 9.485a4.247 4.247 0 0 0 3.954 2.973l6.749-.155a1.773 1.773 0 0 0 1.56-.746 2.045 2.045 0 0 0-.091-1.955z"/></svg>