<svg xmlns="http://www.w3.org/2000/svg" viewBox="0 0 24 24"><path fill="#44739e" d="M4.434 4.393v-.478c.181-.024.356-.047.53-.068q.297-.034.594-.064c.128-.013.16.018.165.152v.161c0 .119-.03.153-.15.168-.272.033-.544.061-.816.093Zm12.944-.264v.291c0 .097-.043.147-.151.139-.359-.023-.719-.05-1.077-.078-.097-.008-.144-.049-.148-.14a9.8 9.8 0 0 1 0-.63c0-.096.05-.135.149-.127.36.026.718.054 1.078.086.113.01.145.051.15.168.002.101 0 .197-.001.291m3.785-1.537c.012.502.032.982.036 1.462 0 .767.016 1.534 0 2.3a24.04 24.04 0 0 1-.802 5.887 15.17 15.17 0 0 1-3.947 6.794 15.74 15.74 0 0 1-4.301 3.045.288.288 0 0 1-.285 0 15.43 15.43 0 0 1-7.143-6.958 16.02 16.02 0 0 1-1.33-3.758 23.4 23.4 0 0 1-.464-2.972 37.3 37.3 0 0 1-.123-4.028c.006-.535.023-1.069.036-1.603 0-.053.006-.106.01-.171a55.11 55.11 0 0 1 18.313.002m-8.158 16.605c.113-.207.225-.383.316-.562a1.45 1.45 0 0 1 .366-.45c.87-.717 1.738-1.438 2.611-2.151a.652.652 0 0 0 .243-.367 11.25 11.25 0 0 0 .301-1.964 9.7 9.7 0 0 0-.035-1.617.68.68 0 0 0-.123-.327 15.6 15.6 0 0 0-1.533-1.867.407.407 0 0 0-.247-.13c.006.051.009.093.018.133.101.476.205.949.303 1.425a.538.538 0 0 0 .161.29 6.2 6.2 0 0 1 .748.872.916.916 0 0 1 .17.482 15.4 15.4 0 0 1-.052 2.505.562.562 0 0 1-.218.394c-.787.675-1.575 1.35-2.353 2.032a1.88 1.88 0 0 0-.505.603c0 .008-.018.011-.029.017a1.72 1.72 0 0 1-.101-1.137c.134-.444.248-.893.371-1.341.017-.06.03-.122.045-.183l-.033-.013c-.023.045-.048.09-.068.137-.155.355-.313.71-.461 1.069-.107.26-.2.524-.302.787a.513.513 0 0 0 .007.407c.113.262.216.529.324.794.019.042.042.084.076.162m-2.414-8.955h-.056c.007.125.01.254.022.38.016.172.039.337.058.514a.522.522 0 0 1-.08.355c-.081.128-.153.261-.236.387a27.8 27.8 0 0 1-1.989 2.633.77.77 0 0 0-.201.431c-.03.3-.064.601-.099.9a.55.55 0 0 0 .088.371c.103.157.202.318.315.47a24.7 24.7 0 0 0 1.933 2.304 2.215 2.215 0 0 0 .744.562c.095.04.184.093.276.136a.9.9 0 0 0 .094.031l.021-.031a1.2 1.2 0 0 0-.174-.157 2.54 2.54 0 0 1-.598-.514 26.2 26.2 0 0 1-1.847-2.335c-.121-.172-.225-.354-.338-.531a.524.524 0 0 1-.082-.338c.024-.215.045-.429.072-.643a.48.48 0 0 1 .164-.289c.194-.18.386-.362.571-.55a2.256 2.256 0 0 0 .764-1.086c.268-.571.512-1.153.767-1.73a.46.46 0 0 0 .052-.298c-.079-.33-.161-.654-.241-.978Zm1.092-3.569v.046c.084 0 .169.011.253.007.49-.017.981-.035 1.471-.057a1.046 1.046 0 0 1 .504.09c.244.112.489.225.737.33a1.1 1.1 0 0 0 .308.083c.204.023.411.021.613.047a.98.98 0 0 1 .353.1c.433.243.858.497 1.285.752a.51.51 0 0 0 .33.086c-.313-.301-.605-.579-.899-.857a.34.34 0 0 0-.067-.045c-.681-.385-1.364-.765-2.076-1.091a1.29 1.29 0 0 0-.484-.112c-.329-.013-.657-.032-.986-.043a24.6 24.6 0 0 0-2.765.062.365.365 0 0 0-.337.211 1.5 1.5 0 0 1-.399.462 8.4 8.4 0 0 1-.955.72.33.33 0 0 0-.173.199c.156-.087.291-.164.428-.237.574-.311 1.149-.619 1.723-.929a1.035 1.035 0 0 1 .477-.132c.27 0 .539-.032.809-.037.674-.009 1.359-.011 2.038-.014a.538.538 0 0 1 .322.101c-.833.064-1.674.134-2.51.253Zm-5.744 3.519a.675.675 0 0 1-.176.464c-.112.113-.218.24-.322.364-.075.087-.08.127-.013.214.132.171.27.338.412.501a.68.68 0 0 0 .153.094c.044-.198.085-.37.121-.544a.225.225 0 0 1 .2-.198c.314-.057.625-.125.937-.185.188-.037.377-.07.586-.107-.049-.061-.081-.103-.112-.141-.113-.112-.232-.225-.338-.349a.577.577 0 0 0-.48-.219 3 3 0 0 1-.349-.029l-.011-.031a1.4 1.4 0 0 1 .122-.089.7.7 0 0 1 .105-.04l1.63-.618a.7.7 0 0 0 .374-.344.082.082 0 0 0-.058.019 1.3 1.3 0 0 1-.675.296c-.08.015-.157.038-.236.057a.424.424 0 0 1-.283-.015.304.304 0 0 0-.171-.012c-.113.019-.231.053-.347.079-.031.007-.065.008-.125.014a.714.714 0 0 1 .282-.205c.112-.039.224-.088.337-.125a.172.172 0 0 0 .139-.171c.006-.102.034-.203.045-.305a.231.231 0 0 1 .103-.173c.135-.1.266-.202.398-.306a.178.178 0 0 0 .094-.136c-.2.119-.376.234-.562.337a2.14 2.14 0 0 0-.798.716 1 1 0 0 1-.225.224c-.389.301-.788.593-1.171.9a2.5 2.5 0 0 0-.304.291c-.112.124-.083.266.07.369.075-.054.154-.112.232-.167a.776.776 0 0 0 .298-.311c.017-.054.076-.083.118-.119m8.375-1.895a1.27 1.27 0 0 0 .585-.011c.142-.051.295-.066.44-.112a.455.455 0 0 1 .45.094c.322.263.646.524.975.778a1.8 1.8 0 0 0 .33.197c.215.101.435.19.655.282a.337.337 0 0 1 .215.263c.007.043.022.084.029.126.064.45.125.9.192 1.35a1.254 1.254 0 0 1-.134.787c-.164.316-.325.633-.493.947a.484.484 0 0 1-.151.185.526.526 0 0 0-.276.534 1.9 1.9 0 0 1-.012.262.405.405 0 0 0 .127-.119 12.1 12.1 0 0 0 1.144-1.934.56.56 0 0 0 .054-.184 8.83 8.83 0 0 0-.091-2.403.382.382 0 0 0-.166-.265 14.73 14.73 0 0 0-2.204-1.295.525.525 0 0 0-.465-.016c-.361.157-.725.309-1.086.466a1.1 1.1 0 0 0-.118.068M12.29 19.844a.93.93 0 0 0-.084-.476c-.073-.149-.135-.306-.196-.462-.189-.487-.379-.975-.562-1.462a.83.83 0 0 1-.051-.347c.031-.329.066-.657.127-.98.165-.863.345-1.724.517-2.586a1.34 1.34 0 0 0-.08-.562.5.5 0 0 0-.072.131c-.1.262-.204.523-.299.787-.296.817-.575 1.639-.795 2.48a.956.956 0 0 0 .051.658 29.9 29.9 0 0 0 1.381 2.728c.023.031.046.061.067.091ZM7.903 8.555l.013.038c.112 0 .233.008.348 0a3.54 3.54 0 0 0 .788-.078c.329-.101.659-.2.986-.309a.337.337 0 0 0 .175-.128c.178-.289.344-.585.513-.879a.25.25 0 0 0 .012-.065 1.63 1.63 0 0 0-.684.048c-.37.147-.736.307-1.098.472a.79.79 0 0 0-.234.19 3.8 3.8 0 0 0-.296.363.7.7 0 0 1-.366.276 1.2 1.2 0 0 0-.157.072m.03 2.506-.007.034c.047.019.094.041.143.057.258.095.518.186.776.282a.278.278 0 0 1 .164.425 5.66 5.66 0 0 1-.627.941.44.44 0 0 1-.177.133c-.232.085-.47.156-.705.237a.187.187 0 0 1-.206-.045c-.077-.07-.154-.135-.233-.201-.027-.023-.057-.04-.1-.07a1.113 1.113 0 0 0 .043.572 3.8 3.8 0 0 1 .17.539c.041.151.07.305.112.456.028.106.059.132.162.113a3.15 3.15 0 0 0 .464-.135.87.87 0 0 0 .21-.163.186.186 0 0 0-.12-.014c-.127.029-.252.061-.379.085s-.132 0-.155-.106c-.031-.16-.058-.318-.085-.478s-.017-.155.131-.206c.326-.112.653-.225.98-.337a.337.337 0 0 0 .204-.146c.24-.423.481-.845.717-1.269a.19.19 0 0 0 .022-.137.418.418 0 0 0-.284-.305c-.338-.081-.675-.169-1.021-.25a1.13 1.13 0 0 0-.199-.012m5.368-.662c-.009-.054-.012-.085-.019-.112q-.099-.474-.2-.948a.345.345 0 0 1 .058-.338 1.6 1.6 0 0 0 .144-.213c.263-.428.26-.303.142-.856a.23.23 0 0 0-.017-.062.146.146 0 0 0-.048-.063.594.594 0 0 0-.425-.113c-.442.095-.888.177-1.331.267a.385.385 0 0 0-.319.37c.094.018.19.029.283.054a.59.59 0 0 0 .392-.041c.273-.112.553-.211.826-.325a.36.36 0 0 1 .296.008.313.313 0 0 1 .13.443c-.12.167-.242.33-.37.491a.217.217 0 0 0-.042.225c.103.322.202.647.3.972a.388.388 0 0 0 .2.241m-5.13-5.933-1.447.101v-.348l1.283-.101v-.214l-1.281.092v-.317l1.442-.113c0-.044.009-.075.009-.107a1.1 1.1 0 0 0-.01-.112l-1.675.124v1.332l1.687-.128Zm4.506-.113h-1.153c-.119 0-.163-.048-.165-.169v-.502c0-.198.026-.225.225-.225h1.245V3.24c-.035 0-.061-.009-.088-.009h-1.165a.95.95 0 0 0-.176.02.282.282 0 0 0-.264.283c-.012.253-.011.507 0 .76a.258.258 0 0 0 .246.259 1.5 1.5 0 0 0 .209.017h1.181c.047 0 .093-.006.151-.011.007-.266.012-.52 0-.778h-.921v.215h.675Zm1.055-.877 1.462.053v-.213c-.562-.027-1.125-.06-1.696-.061v1.328l1.705.065-.009-.218-1.456-.06v-.334h.653c.215 0 .425.039.636.019v-.211l-1.293-.053Zm3.874.675v-.337a.327.327 0 0 0-.255-.332.68.68 0 0 0-.158-.032c-.327-.027-.655-.05-.983-.074a1.05 1.05 0 0 0-.177 0c-.171.017-.26.095-.267.267-.009.247-.009.496 0 .742a.285.285 0 0 0 .255.291 1.7 1.7 0 0 0 .225.033c.236.019.473.038.71.054a3.4 3.4 0 0 0 .387.01.25.25 0 0 0 .262-.269c.008-.115.003-.233.003-.352Zm-13.183.467c.307-.036.59-.067.874-.101a4 4 0 0 0 .398-.06.291.291 0 0 0 .246-.247 1.9 1.9 0 0 0 0-.418.24.24 0 0 0-.225-.218.72.72 0 0 0-.174-.008c-.262.026-.524.053-.787.084-.186.021-.371.047-.563.071v1.334l.225-.027Zm4.561-1.31-.243.012v.932c0 .275.096.366.372.376h.033c.345-.014.69-.022 1.036-.042.279-.017.366-.118.369-.401v-.794c0-.042-.006-.083-.009-.131h-.225c0 .06-.008.113-.009.166v.777c0 .132-.027.163-.16.17q-.509.027-1.019.041c-.12 0-.149-.031-.152-.156s0-.27 0-.405Zm10.824.408-1.769-.197v.225l.769.087v1.108l.243.033V3.855l.757.08ZM8.675 12.1l-.035-.036-1.068.882.014.03c.191-.067.383-.132.574-.202a.18.18 0 0 0 .074-.06c.151-.203.297-.409.443-.614Zm-2.087-.449a.572.572 0 0 0-.424.285l.317.367a1.1 1.1 0 0 0 .03-.113c.027-.171.051-.34.079-.541Zm1.414-2.878-.014.304c.322-.034.373-.092.288-.316ZM2.068 1.864a58.6 58.6 0 0 1 8.872-.855 57.97 57.97 0 0 1 10.99.854c0 .04.013.072.014.103.044 1.263.081 2.525.061 3.789a31 31 0 0 1-.288 3.884 19.26 19.26 0 0 1-1.309 4.86 16.227 16.227 0 0 1-6.195 7.315 16.4 16.4 0 0 1-2.098 1.158.243.243 0 0 1-.225 0 16.28 16.28 0 0 1-8.92-10.2 19.95 19.95 0 0 1-.69-3.192 32.5 32.5 0 0 1-.286-4.889c.009-.891.039-1.78.061-2.671.003-.049.009-.098.013-.156m.407.412v.201c-.011.437-.022.873-.036 1.311a39.7 39.7 0 0 0 .097 4.434 24 24 0 0 0 .43 2.961 16.42 16.42 0 0 0 1.536 4.334 15.867 15.867 0 0 0 7.369 6.981.29.29 0 0 0 .273-.007 15.7 15.7 0 0 0 2.26-1.291 15.63 15.63 0 0 0 5.426-6.348 18.22 18.22 0 0 0 1.469-5.148 27.2 27.2 0 0 0 .274-3.728c0-1.012-.017-2.024-.029-3.044 0-.215-.017-.43-.026-.657a55.34 55.34 0 0 0-19.043 0Z"/></svg>