<svg xmlns="http://www.w3.org/2000/svg" viewBox="0 0 24 24"><path fill="#44739e" d="M3.853 1c-.107.095-.275.035-.429.087v.041l-.257.044v.043h-.086v.042h-.129V1.3l-.172.044v.043h-.085l-.043.085-.172.043-.085.129h-.087l-.085.128h-.085l-.043.087-.3.257v.085l-.129.087v.085l-.128.087-.044.171-.085.042v.087h-.043l-.043.172h-.044v.128h-.041v.085h-.044v.13h-.043v.129h-.042v.213h-.043v.215h-.044v16.307h.044l.043.429h.042l.043.259h.044l.041.213h.044l.043.172h.043v.087l.085.041.044.172.128.087v.085l.129.087v.085l.085.043.215.257h.085l.128.172.13.043.042.085.172.044.043.086h.085v.042l.172.043v.044l.215.043v.042h.129v.043l.342.044v.041h.215v.044h14.493a8.15 8.15 0 0 0 1.758-.044h.257v-.041l.343-.044V22.8h.129v-.044l.215-.041v-.044l.172-.043v-.042h.085l.043-.086.172-.044.042-.085.128-.043.087-.129h.085l.043-.085.3-.258v-.085l.129-.087v-.085l.128-.087.044-.17.085-.043v-.087h.043l.043-.172h.042l.043-.213h.044v-.129h.042l.043-.343h.043v-.257h.044V3.876h-.044v-.259h-.043l-.043-.342h-.042v-.13h-.044l-.043-.214h-.042l-.043-.171h-.043v-.087l-.085-.042-.044-.172-.085-.043v-.085l-.172-.13v-.085l-.086-.044-.257-.3h-.085l-.129-.172h-.086l-.042-.085-.172-.043-.043-.085h-.085v-.043l-.172-.044v-.043l-.215-.042v-.043h-.129v-.044l-.343-.043v-.042h-.214V1Zm15.401 2.599c.322-.001.897.013.897.013l.96.018-1.123 2.338a2.3 2.3 0 0 0-.532.036 1.006 1.006 0 0 0-.776.577 10.6 10.6 0 0 0-.647 2.155h.45l.85.001.141.109.111.325.02.075.184.768-.423.453-.217.249a.773.773 0 0 1-.711.25c-.259-.025-.523.007-.783-.013-.168-.013-.229.074-.268.224-.089.35-.186.699-.275 1.049-.316 1.242-.625 2.485-.949 3.724a5.54 5.54 0 0 1-.48 1.53.313.313 0 0 1-.305.194c-.468-.004-.934.004-1.402.007h-.59c-.222.019-.227-.111-.179-.295.156-.592.307-1.184.46-1.778l.231-.793.199-.856.226-.988.376-1.439a.05.05 0 0 0 .01-.026l.019-.139.143-.381h-.895l-.103-.154.15-.57.15-.586.127-.436c.026-.098.051-.197.079-.295.039-.132.107-.225.25-.209.217.004.435.022.651.005a.277.277 0 0 0 .201-.154c.083-.253.129-.521.204-.777.167-.572.317-1.151.525-1.704a5.6 5.6 0 0 1 .613-1.208l.005-.006c.093-.101.254-.29.292-.334l.018-.019.126-.117.183-.147.146-.124.017-.011a.54.54 0 0 1 .137-.074 5.9 5.9 0 0 1 1.293-.444Zm-8.172 4.692c.245.027.492.055.738.083a2.505 2.505 0 0 1 1.369.901l.02.03a3.37 3.37 0 0 1 .521 1.23 4.2 4.2 0 0 1 .109.972 5.16 5.16 0 0 1-.18 1.182 7.14 7.14 0 0 1-1.501 3.082 4.65 4.65 0 0 1-2.745 1.834 4.3 4.3 0 0 1-.487.082l-.228.03-.034.002c-.346-.05-.916-.13-1.04-.153a1.806 1.806 0 0 1-.789-.389l-.332-.395-.015-.023a.096.096 0 0 0-.056-.049.113.113 0 0 0-.139.076l-.002.004-.002.005c-.05.196-.262 1.076-.262 1.076l-2.918 1.867c.029-.393.551-2.795.65-3.178.364-1.411.741-2.817 1.109-4.227.164-.632.318-1.268.477-1.901l.392-1.499c.069-.186.021-.479.335-.442.637.005 1.275.005 1.912.015.098.001.267-.089.228.211l-.078.169a.13.13 0 0 0-.027.059l-.049.274a.12.12 0 0 0 .136.099h.005a.125.125 0 0 0 .051-.027l.282-.224a3.89 3.89 0 0 1 2.55-.776m-1.052 2.42-.534.012a2.2 2.2 0 0 0-.289.04 2.607 2.607 0 0 0-1.76 1.552 3.286 3.286 0 0 0-.338 2.127l.021.119.046.118.278.459.074.089.049.043.644.263c.259.008.519.021.778.016a1.775 1.775 0 0 0 1.063-.441 3.53 3.53 0 0 0 1.292-2.41 3.33 3.33 0 0 0 .003-.625 2.43 2.43 0 0 0-.188-.691 2 2 0 0 0-.242-.301 1.85 1.85 0 0 0-.377-.298l-.217-.051Z"/></svg>