<svg xmlns="http://www.w3.org/2000/svg" fill="#44739e" viewBox="0 0 24 24"><path d="m7.679 17.2-2.82-.179a.727.727 0 0 0 .506.266l2.208.178a16.5 16.5 0 0 0 2.071.035l1.473-.068a.824.824 0 0 0 .614-.321l-1.981.106c-.382.017-1.69.006-2.071-.017m6.509-6.094.29-.29-.351-.218a.374.374 0 0 1-.212.308.354.354 0 0 1 .273.2m-.454-.65-.015.117.079-.009.112-.256-.008-.082-.074.021zm.32-.094a.56.56 0 0 0-.083-.225l.021.213-.144.331-.185.02a.222.222 0 0 0 .2.094c.137-.02.223-.214.191-.433m-.16.746.236.269.04.3a.54.54 0 0 0 .035-.295c-.033-.218-.171-.379-.31-.359a.194.194 0 0 0-.127.085zm-.07.123.024.118.15.175.078.038-.016-.124-.183-.208ZM13.744 10c-.138.02-.225.214-.193.432a.57.57 0 0 0 .077.217l.032-.257.117-.26.159-.045a.22.22 0 0 0-.192-.087m-.017-.116a.233.233 0 0 1 .134.022l.147-.2a.85.85 0 0 0-.6-.279l.278.47a.2.2 0 0 1 .041-.013m-.36 2.152a.237.237 0 0 1-.146-.029l-.145.222a.852.852 0 0 0 .633.293l-.271-.51a.22.22 0 0 1-.071.024m-.303-2.054a.16.16 0 0 1 .037 0l.136-.53a.85.85 0 0 0-.49.432l.186.169a.237.237 0 0 1 .131-.071m.965 1.956a.23.23 0 0 1-.079 0l-.115.569a.82.82 0 0 0 .5-.409l-.212-.193a.22.22 0 0 1-.094.033m-.329-.478c.032.218.171.379.31.358a.2.2 0 0 0 .137-.1l-.18-.088-.187-.218-.049-.241a.536.536 0 0 0-.031.289m.358-1.34.093-.241-.078-.092-.129.177a.52.52 0 0 1 .114.156m.133 1.714.176.16.043-.114-.144-.206a.48.48 0 0 1-.075.16m-.061-1.483a.73.73 0 0 1 .008.13l.37.23a2.16 2.16 0 0 0-.293-.749l-.109.281a.8.8 0 0 1 .024.108m-1.132-.03.024.118.15.175.079.038-.016-.124-.183-.209zm-.034 1.248a.75.75 0 0 1-.008-.162l-.379-.236a2.19 2.19 0 0 0 .291.791 1.7 1.7 0 0 1 .146-.208.77.77 0 0 1-.05-.185m.188.254a.223.223 0 0 0 .2.093c.139-.02.226-.214.193-.433a.55.55 0 0 0-.1-.249l.023.24-.144.33zm-.278-1.694-.174-.157c-.013.028-.026.058-.037.088l.161.189a.52.52 0 0 1 .05-.12m1.407 1.246a.8.8 0 0 1 .006.175l.175.252a2.13 2.13 0 0 0 .077-.895l-.3.3a.76.76 0 0 1 .042.168m-1.427-.67a.72.72 0 0 1-.041-.16.77.77 0 0 1-.006-.178l-.177-.207a2.13 2.13 0 0 0-.075.843zm.614-.256c.039.264-.056.5-.215.554.167.006.327.205.366.469a.6.6 0 0 1-.114.488l.257.485.11-.542a.6.6 0 0 1-.246-.432c-.039-.264.056-.5.214-.554-.167-.006-.326-.205-.365-.469a.574.574 0 0 1 .137-.51l-.288-.487-.14.547a.568.568 0 0 1 .284.451m-.123.329a.514.514 0 0 0 .047-.318c-.033-.218-.171-.379-.31-.359a.2.2 0 0 0-.138.1h.124l.236.269zm-.279 1.076c-.054.07-.107.143-.13.182a1.2 1.2 0 0 0 .082.1l.123-.189a.52.52 0 0 1-.075-.093m-.094-.561a.364.364 0 0 1 .206-.279.358.358 0 0 1-.276-.205l-.272.271Zm.068.265a.59.59 0 0 0 .065.2l.029-.234.117-.261.172-.049a.217.217 0 0 0-.19-.085c-.139.016-.225.21-.193.429m-.151-1.024c.032.218.171.379.31.359a.194.194 0 0 0 .126-.084l-.182-.088-.186-.218-.047-.231a.56.56 0 0 0-.021.262m.487.815-.074.021-.094.209-.015.117.08-.008.111-.256zm.154 2.551c1.023-.151 1.682-1.452 1.469-2.9a3.777 3.777 0 0 0-1.694-2.81.261.261 0 0 1-.206-.121L13.054 8a1.207 1.207 0 0 0-.852-.426.33.33 0 0 0-.1.011h-.016a.106.106 0 0 0-.076.05c-.012.029-.023.122.144.339l.006.009.04.117a.4.4 0 0 1-.069.384l-.005.007h-.007a3.166 3.166 0 0 0-.765 2.9c.225 1.527 1.201 2.651 2.176 2.509m-.32-4.725.11-.016a1.044 1.044 0 0 1 .852.419 2.365 2.365 0 0 1 .51 1.155l.012.077a2.373 2.373 0 0 1-.151 1.277 1.02 1.02 0 0 1-.751.659.9.9 0 0 1-.113.008c-.6 0-1.176-.7-1.313-1.627-.141-.958.234-1.818.844-1.953Zm-5.98-.569c-1.271 0-2.306 1.52-2.306 3.389s1.035 3.388 2.306 3.388S9.536 13.863 9.536 12 8.5 8.606 7.23 8.606m3.07 2.874a4.69 4.69 0 0 0-1.805-3.244 2.12 2.12 0 0 0-1.114-.319 2.25 2.25 0 0 0-.648.1l-1.788.5a3.713 3.713 0 0 0-2.567 4.247 5.13 5.13 0 0 0 1.591 3.265 2.32 2.32 0 0 0 1.848.345l1.671-.3a3.006 3.006 0 0 0 1.958-1.121 4.42 4.42 0 0 0 .854-3.473m-1.271 3.051A2.214 2.214 0 0 1 7.23 15.6a2.215 2.215 0 0 1-1.8-1.072A4.5 4.5 0 0 1 4.7 12a4.5 4.5 0 0 1 .727-2.537 2.218 2.218 0 0 1 1.8-1.072 2.216 2.216 0 0 1 1.8 1.072A4.5 4.5 0 0 1 9.756 12a4.5 4.5 0 0 1-.727 2.531m1.44 2.421 1-.047.416-.02c.109-.044.215-.092.319-.143a5.28 5.28 0 0 0 2.3-2.23 5.54 5.54 0 0 0 .707-2.076c-.021.077-.045.153-.072.227a5.77 5.77 0 0 0 .078-1.073 3.7 3.7 0 0 0-.04-.6q-.01-.07-.024-.141a5.035 5.035 0 0 0-.867-2.16l.013.016-.026-.034a5.107 5.107 0 0 0-2.8-1.9 7.4 7.4 0 0 0-1.464-.259 3.84 3.84 0 0 0-1.175.093l-.024.006q-.494.115-.976.267l-3.058.964a3.37 3.37 0 0 0-1.149.628c-3.231 3.416-.892 7.6.6 8.185a1.56 1.56 0 0 0 .595.147l3.434.152q1.104.046 2.213-.002m.822-7.318a2.185 2.185 0 0 1 .74-1.249.258.258 0 0 0 .039-.244l-.031-.089c-.153-.2-.2-.355-.154-.47a.239.239 0 0 1 .181-.13 1.2 1.2 0 0 1 1.092.459l.008.009.048.08a.128.128 0 0 0 .105.058h.022a2.443 2.443 0 0 1 1.144 1.112 5.15 5.15 0 0 1 .65 1.808 3.363 3.363 0 0 1-.3 2.062 1.8 1.8 0 0 1-1.28 1 1.3 1.3 0 0 1-.187.013c-.984 0-1.923-1.13-2.145-2.636a4.63 4.63 0 0 1 .068-1.783M5.842 16.5a3.1 3.1 0 0 1-.585.059 2.316 2.316 0 0 1-1.368-.427 5.263 5.263 0 0 1-1.647-3.357 4.193 4.193 0 0 1 .5-2.736 3.572 3.572 0 0 1 2.166-1.66l1.787-.5a2.26 2.26 0 0 1 1.872.237 4.818 4.818 0 0 1 1.872 3.338 4.564 4.564 0 0 1-.888 3.578A3.152 3.152 0 0 1 7.5 16.209Zm8.722.624-2.82-.178a.727.727 0 0 0 .506.266l2.208.177a16.4 16.4 0 0 0 2.07.035L18 17.356a.821.821 0 0 0 .614-.321l-1.981.107c-.38.015-1.688.004-2.069-.018m6.509-6.095.29-.29-.351-.218a.376.376 0 0 1-.212.308.355.355 0 0 1 .273.2m-.454-.65-.015.118.079-.009.112-.256-.008-.083-.074.021zm.32-.093a.57.57 0 0 0-.083-.226l.021.214-.145.33-.184.021a.22.22 0 0 0 .2.093c.136-.018.223-.218.191-.432m-.161.746.236.269.041.3a.53.53 0 0 0 .034-.295c-.032-.218-.171-.379-.309-.358a.194.194 0 0 0-.128.084zm-.069.122.023.118.15.175.079.039-.016-.125-.183-.208zm-.08-1.227c-.139.021-.225.215-.193.433a.565.565 0 0 0 .077.216l.031-.256.118-.261.159-.045a.22.22 0 0 0-.192-.087m-.018-.12a.237.237 0 0 1 .135.023l.147-.2a.85.85 0 0 0-.6-.279l.278.471a.3.3 0 0 1 .04-.015m-.359 2.152a.233.233 0 0 1-.147-.029l-.144.223a.854.854 0 0 0 .632.292l-.27-.51a.2.2 0 0 1-.071.024M19.949 9.9a.23.23 0 0 1 .037 0l.135-.53a.855.855 0 0 0-.489.432l.186.169a.237.237 0 0 1 .131-.071m.965 1.962a.21.21 0 0 1-.079 0l-.115.569a.82.82 0 0 0 .5-.409l-.212-.193a.22.22 0 0 1-.094.033m-.327-.479c.032.218.171.379.309.359a.2.2 0 0 0 .138-.1l-.181-.088-.186-.218-.049-.24a.533.533 0 0 0-.031.287m.356-1.34.093-.241-.079-.092-.128.177a.56.56 0 0 1 .114.156m.132 1.714.176.16.043-.114-.143-.206a.46.46 0 0 1-.076.16m-.06-1.482a.8.8 0 0 1 .008.13l.37.229a2.16 2.16 0 0 0-.293-.748l-.109.281a.9.9 0 0 1 .024.108m-.879.3-.017-.124-.182-.208-.054.001.024.118.15.175zm-.288.917a.8.8 0 0 1-.007-.162l-.379-.236a2.21 2.21 0 0 0 .29.791 1.9 1.9 0 0 1 .147-.208.8.8 0 0 1-.051-.185m.189.254a.22.22 0 0 0 .2.093c.139-.02.225-.214.193-.432a.54.54 0 0 0-.1-.25l.024.24-.144.33zm-.278-1.694-.172-.152c-.013.029-.026.058-.037.088l.161.189a.52.52 0 0 1 .048-.125m1.407 1.248a.9.9 0 0 1 .006.176l.175.252a2.15 2.15 0 0 0 .077-.9l-.3.3a.78.78 0 0 1 .042.172m-1.466-.831a.78.78 0 0 1-.006-.179l-.177-.206a2.13 2.13 0 0 0-.075.843l.3-.3a.75.75 0 0 1-.042-.158m.653-.097c.038.264-.056.5-.215.555.167.005.326.2.365.469a.594.594 0 0 1-.114.487l.258.486.109-.542a.6.6 0 0 1-.245-.433c-.039-.264.056-.5.214-.554-.167 0-.326-.205-.365-.469a.572.572 0 0 1 .136-.509l-.287-.488-.14.547a.571.571 0 0 1 .284.451m-.077.011c-.032-.218-.171-.379-.309-.358a.2.2 0 0 0-.138.1h.124l.236.269.041.31a.513.513 0 0 0 .046-.321m-.325 1.395c-.054.069-.107.143-.131.181a1.1 1.1 0 0 0 .083.1l.123-.189a.5.5 0 0 1-.075-.092m-.164-1.046-.272.268.342.213a.358.358 0 0 1 .206-.279.362.362 0 0 1-.276-.202m.138.749a.57.57 0 0 0 .065.2l.029-.234.117-.261.172-.049a.219.219 0 0 0-.19-.085c-.139.017-.226.211-.193.429m.103-.837-.187-.218-.041-.226a.555.555 0 0 0-.021.261c.032.218.171.379.309.359a.2.2 0 0 0 .127-.083zm.233.628-.074.021-.094.209-.015.118.079-.009.112-.256zm-.071-3.158a.269.269 0 0 1-.207-.121l-.045-.07a1.2 1.2 0 0 0-.852-.426.36.36 0 0 0-.1.011h-.016a.1.1 0 0 0-.076.05c-.013.03-.024.122.143.34l.007.008.039.109a.4.4 0 0 1-.069.385v.006h-.007a3.165 3.165 0 0 0-.765 2.9c.225 1.525 1.2 2.65 2.176 2.506 1.023-.151 1.682-1.452 1.468-2.9a3.773 3.773 0 0 0-1.696-2.798m1.377 2.541.008.046v.031a2.38 2.38 0 0 1-.151 1.277 1.023 1.023 0 0 1-.752.659.7.7 0 0 1-.112.008c-.6 0-1.177-.7-1.314-1.627-.14-.956.236-1.817.845-1.951a.34.34 0 0 1 .083-.015h.026a1.041 1.041 0 0 1 .853.418 2.374 2.374 0 0 1 .514 1.154m-7.487 4.651h.035c1.271 0 2.305-1.521 2.305-3.389 0-1.778-.936-3.24-2.122-3.378a4.91 4.91 0 0 1 .995 2.3 5.716 5.716 0 0 1-.578 3.5 5.5 5.5 0 0 1-.635.967m-.97.913L14.372 16a3.013 3.013 0 0 0 1.959-1.122 4.43 4.43 0 0 0 .857-3.471A4.684 4.684 0 0 0 15.38 8.16a2.113 2.113 0 0 0-1.114-.32 2.28 2.28 0 0 0-.567.074l.088.079q.166.151.315.317h.013a2.212 2.212 0 0 1 1.8 1.072 4.49 4.49 0 0 1 .727 2.536 4.49 4.49 0 0 1-.727 2.536 2.213 2.213 0 0 1-1.8 1.073 1.9 1.9 0 0 1-.215-.013 5.18 5.18 0 0 1-.79.705m8.653-3.23a1.854 1.854 0 0 1-1.32 1.024 1.4 1.4 0 0 1-.2.014 1.863 1.863 0 0 1-1.4-.774 3.95 3.95 0 0 1-.8-1.909 4.69 4.69 0 0 1 .075-1.8 2.242 2.242 0 0 1 .753-1.275.2.2 0 0 0 .027-.186L18.874 8c-.162-.216-.212-.386-.154-.518a.283.283 0 0 1 .219-.162 1.255 1.255 0 0 1 1.144.475l.014.017.048.074a.07.07 0 0 0 .06.033h.02l.019.006a2 2 0 0 1 .833.647 5.581 5.581 0 0 0-4.191-2.082 3.8 3.8 0 0 0-1.158.091l-.028.009c-.326.076-.653.166-.972.266L13 7.4a4.9 4.9 0 0 1 .523.362l.046-.013A2.314 2.314 0 0 1 15.48 8a4.875 4.875 0 0 1 1.9 3.375v.007a4.612 4.612 0 0 1-.9 3.62 3.212 3.212 0 0 1-2.087 1.19l-1.656.294-.04.007q-.195.114-.4.211l2.842.125c.735.032 1.479.031 2.213 0l1.4-.067A5.449 5.449 0 0 0 22 12.386a2.82 2.82 0 0 1-.237.603"/></svg>