<svg xmlns="http://www.w3.org/2000/svg" viewBox="0 0 24 24"><path fill="#44739e" d="M0 12.6754v-2.4015h.8818v.3969l.094-.0822c.2009-.1757.495-.3173.759-.3653.1787-.0325.4652-.022.648.0235.1655.0413.4735.194.6047.2996.2206.1776.4447.5135.5451.8167.0754.2279.0937.3913.0838.7517-.008.284-.0154.3477-.0593.4935-.116.3849-.3337.7044-.6346.931-.1791.135-.3059.2014-.521.2728-.1476.0489-.1812.0529-.4503.0527-.263-.0002-.3068-.005-.4577-.0514-.1864-.0572-.3388-.14-.5132-.2787l-.1173-.0933v1.6355H0Zm2.0537.384c.2232-.0581.391-.1801.5225-.3799.1287-.1955.166-.315.1765-.567.0151-.3578-.0633-.585-.2827-.82-.232-.2483-.513-.3332-.8596-.2597-.1877.0398-.3261.1137-.4551.243a1.05 1.05 0 0 0-.2623.4415c-.0408.139-.0408.5202 0 .6592.0954.3247.3263.5708.6358.6779.1196.0414.376.0438.525.005m6.926.806c-.3524-.0789-.6132-.217-.8622-.4568-.3094-.298-.4827-.6114-.558-1.009-.0305-.1612-.013-.6738.0281-.8218.0448-.1616.1411-.3765.227-.5066.0899-.1362.3551-.4162.4967-.5242.4192-.32.9769-.423 1.5297-.2828.649.1647 1.1458.6608 1.3247 1.323.0368.1362.0429.2034.042.4597-.0008.2625-.007.3231-.05.4835-.1705.6373-.6363 1.1105-1.2798 1.3002-.1446.0426-.212.0508-.469.0566-.2227.005-.3335-.0005-.4292-.022zm.6363-.8248c.4326-.111.7069-.4576.7338-.927.0314-.5486-.2742-.974-.7761-1.0804-.1604-.034-.2262-.0339-.3897.0008-.1931.041-.3211.111-.46.2515-.217.2198-.313.4904-.2937.8281.017.2952.1222.526.3237.7103.2298.21.5625.2936.862.2167m3.3233.8058c-.3354-.074-.6323-.2272-.873-.45-.2342-.2169-.4098-.511-.492-.8242-.0506-.1922-.0694-.6152-.0372-.835.1034-.707.5868-1.26 1.2903-1.4761.154-.0473.1884-.0507.5213-.0513.3307-.0007.3696.003.5385.0498.2978.0827.5303.2128.7434.4163.3948.3769.6134.9386.5724 1.4706l-.012.1536h-2.8134l.009.083c.0164.1455.1144.3225.2554.461.2044.2007.4154.2815.7354.2815.3016 0 .5258-.074.7618-.2514l.1149-.0864.2788.1334c.1533.0733.315.1492.3594.1685.0728.032.0785.039.0595.0745-.0431.0805-.2907.3215-.4157.4046-.146.097-.3728.1947-.5906.2544-.1952.0535-.8059.0675-1.0066.0231zm1.3655-2.3108c-.1154-.2763-.3705-.483-.6887-.558-.3404-.0803-.7405.0215-.9572.2435-.0805.0825-.2576.3408-.2576.3757 0 .005.4349.009.9664.009h.9665zm3.5502 1.2383c-.0112-1.274-.0225-1.3667-.1943-1.5924-.0968-.127-.4012-.2064-.6048-.1576-.1369.0328-.3045.1616-.3972.305-.1628.252-.1859.4542-.186 1.6326l-.0003.8395h-.863v-3.527h.8805l.005.1878.005.1877.139-.1046c.4842-.3644 1.0029-.4395 1.465-.212.2184.1075.3784.2678.4846.4852.1488.3045.142.2267.1489 1.6932l.006 1.3086h-.88zM4.0712 11.362V8.923h.8631v.8443c0 .544.007.8442.0186.8442.0102 0 .0682-.0377.1287-.0838.4572-.3477.9985-.4207 1.4637-.1975.2872.1378.499.4007.5972.741.0291.101.0331.248.0386 1.4212l.006 1.3086h-.8804l-.009-1.0272c-.0105-1.2611-.023-1.3733-.176-1.5739-.0635-.0833-.2343-.1686-.3717-.1858-.3263-.0408-.6595.2157-.7718.594-.0455.1532-.0624.5222-.063 1.372l-.0003.8209h-.8443Zm15.1216.6754v-1.7636h.8818v3.5271h-.8818zm1.1427 1.7307c.01-.018.3056-.4296.6568-.9146s.6347-.8929.6298-.9064-.256-.3681-.5583-.788a366 366 0 0 1-.5924-.8243l-.0429-.061h1.0135l.3435.4777c.1889.2627.3519.4753.3622.4724s.1734-.2178.3623-.4777l.3436-.4724h.4983c.3962 0 .4944.005.4794.0235-.1374.171-1.168 1.637-1.1618 1.6529.005.0119.2932.4138.6412.8931.3481.4794.6456.891.6611.9146L24 13.801h-1.0098l-.4182-.5722c-.23-.3147-.4211-.5722-.4246-.5722-.003 0-.1948.2574-.4251.572l-.4189.5722h-.4931c-.4641.0002-.492-.002-.4749-.0326z"/></svg>