<svg xmlns="http://www.w3.org/2000/svg" viewBox="0 0 24 24"><path fill="#44739e" d="M22.245 16.627h-.284c-1.605-1.039-4.909-1.889-9.442-1.889v-4.343c1.7-.189 3.116-1.511 3.116-3.116 0-.944-.472-1.794-1.227-2.361 1.416-.188 2.644-.755 2.644-1.605 0-1.416-3.116-1.794-4.91-1.794s-4.91.378-4.91 1.794c0 1.322 2.644 1.794 4.438 1.794v4.438c-1.7.189-3.022 1.511-3.022 3.116 0 .85.472 1.7 1.133 2.266-3.493.189-6.326.85-7.648 1.888H1.85c-.472 0-.85.378-.85.85 0 .378.283.661.661.756 1.511 1.321 5.665 4.06 10.386 4.06 4.249 0 8.781-2.927 10.292-4.06.378-.095.661-.378.661-.756 0-.755-.378-1.038-.755-1.038m-9.726-7.271V5.107c1.228.189 2.172 1.039 2.172 2.172s-.944 1.888-2.172 2.077m-3.116 3.116c0-1.039.945-1.888 2.078-2.172v4.249c-1.133-.094-2.078-1.038-2.078-2.077m2.55 3.116s.094 0 0 0h.094c3.211 0 5.76.472 7.459 1.039H4.116c1.699-.567 4.343-1.039 7.837-1.039m.094 5.76c-3.682 0-6.987-1.794-8.781-3.116h17.468c-1.983 1.322-5.476 3.116-8.687 3.116"/></svg>