<svg xmlns="http://www.w3.org/2000/svg" viewBox="0 0 24 24"><path fill="#44739e" d="M16.167 12.009c-.606-.364-1.456-1.092-1.941-2.063-.607-.849-1.092-2.062-1.456-3.033-.607-1.82-1.335-3.276-2.306-4.368S8.159.967 6.218 1.089c-2.427.121-3.762 1.213-4.49 2.426S1 5.942 1 5.942v15.774c0 .364.121.607.364.85 0 .242.364.364.728.364h19.293c.364 0 .607-.122.849-.364s.486-.486.486-.85c.242-1.334.485-3.519 0-5.46s-1.456-3.519-3.762-3.64c-.606 0-1.092-.122-1.577-.243-.364-.121-.85-.243-1.214-.364m-7.523 5.218v3.397h1.214v-3.397h.971v3.397h1.213v-3.397h.971v3.397h1.334v-3.397h1.942v3.397h1.213v-3.397h.971v3.397h1.213v-3.397h1.699v4.489H1.971v-4.368h1.213v3.398h1.214v-3.398h.97v3.398h1.214v-3.398"/></svg>