<svg xmlns="http://www.w3.org/2000/svg" viewBox="0 0 24 24"><path fill="#44739e" d="M18.151 1H5.849A4.848 4.848 0 0 0 1 5.849v12.302A4.848 4.848 0 0 0 5.849 23h12.302A4.848 4.848 0 0 0 23 18.151V5.849A4.848 4.848 0 0 0 18.151 1M9.715 19.37c-.057.293.119.72-.197.899a7.1 7.1 0 0 1-1.058.029c-.293-.033-.638.086-.89-.11-.762-1.173-1.46-2.383-2.19-3.568-.011.914-.016 1.829-.029 2.744-.048.295.081.66-.151.896a9.4 9.4 0 0 1-1.161.047c-.302-.023-.679.079-.905-.181 0-2.192-.007-4.383.009-6.574.069-.293-.143-.731.184-.905a6.7 6.7 0 0 1 1.14-.041c.277.03.622-.076.836.149.72 1.24 1.457 2.471 2.166 3.719.011-.984.014-1.966.031-2.949.065-.283-.118-.697.174-.88a8.54 8.54 0 0 1 1.442-.041c.33-.094.705.151.586.518q.042 3.121.013 6.248m.22-12.203a2.898 2.898 0 0 1-.968 2.247 4.746 4.746 0 0 1-2.97.921c-.183.069-.594-.132-.626.117-.093.294.11.71-.189.91a8.8 8.8 0 0 1-1.225.05c-.272-.027-.611.057-.814-.173 0-2.2-.009-4.41.009-6.616.063-.282-.11-.69.173-.874.675-.047 1.351-.045 2.028-.045a7.71 7.71 0 0 1 2.156.181 3.09 3.09 0 0 1 2.089 1.489A3.494 3.494 0 0 1 9.93 7.16Zm3.019 13.081-.03.015-.032.01a13.9 13.9 0 0 1-1.63.023c-.415.08-.415-.405-.407-.687-.031-1.62-.035-3.24 0-4.859.014-.261-.066-.726.322-.717.543.016 1.087-.024 1.629.015.361.021.22.489.27.728.033 1.54.014 3.072 0 4.606-.051.281.08.62-.128.86Zm-1.084-9.364a1.093 1.093 0 0 1 1.043.521 1.121 1.121 0 0 1-.44 1.615.95.95 0 0 1-.317.1 1.123 1.123 0 0 1-1.307-1.029 1.111 1.111 0 0 1 1.016-1.213Zm1.21-1.825a2.33 2.33 0 0 1-.098.851l-.046.034a6.2 6.2 0 0 1-.982.038c-.28-.009-.559.008-.837 0s-.236-.341-.26-.542c-.033-1.662-.038-3.324 0-4.986.03-.244-.076-.628.22-.735.55 0 1.1-.02 1.65 0 .41-.061.34.424.355.684.018 1.547.018 3.098-.006 4.65Zm1.552-3.799a4.05 4.05 0 0 1 3.382-1.688 4.1 4.1 0 0 1 1.884.379c.276.176.712.243.804.602a4.15 4.15 0 0 1-.524.971c-.199.205-.308.626-.643.606a2.85 2.85 0 0 0-1.379-.401 1.87 1.87 0 0 0-1.738 1.031 1.896 1.896 0 0 0 .396 2.146 2.117 2.117 0 0 0 2.271.298c.271-.074.472-.342.77-.324a3.72 3.72 0 0 1 .66.856c.127.26.386.492.356.801a4.2 4.2 0 0 1-1.98.969 4.63 4.63 0 0 1-2.907-.427 3.697 3.697 0 0 1-1.927-2.619 4.323 4.323 0 0 1 .571-3.205Zm6.214 14.166a4.103 4.103 0 0 1-2.063.969c-.12.018-.242.027-.363.032a4.29 4.29 0 0 1-2.97-.814 3.85 3.85 0 0 1-1.47-3.155 3.93 3.93 0 0 1 1.058-2.834 4.438 4.438 0 0 1 4.957-.763c.248.152.566.247.717.514a5.03 5.03 0 0 1-.88 1.478c-.212.339-.55-.012-.81-.093a2.277 2.277 0 0 0-2.076.211 1.893 1.893 0 0 0-.291 2.647 2.061 2.061 0 0 0 2.267.511c.33-.063.573-.38.921-.382a3.66 3.66 0 0 1 .703.912c.091.249.412.48.296.762ZM7.276 6.099a3.377 3.377 0 0 0-1.896-.305c0 .33 0 .66-.007.996A11.8 11.8 0 0 0 5.4 8.186l.036.008a4.94 4.94 0 0 0 1.394-.096 1.079 1.079 0 0 0 .856-1.03 1.085 1.085 0 0 0-.41-.969"/></svg>