<svg xmlns="http://www.w3.org/2000/svg" fill="#44739e" viewBox="0 0 24 24"><path d="M17.311 2.263a6.53 6.53 0 0 0-2.463.548 5.893 5.893 0 0 1-3.01.547 8.01 8.01 0 0 1-2.463-.547 7.98 7.98 0 0 0-2.463-.548c-2.736 0-4.925 1.642-4.925 3.558v11.493c0 2.19 2.189 3.558 4.925 3.558A5.33 5.33 0 0 0 9.1 20.6h.273c.548-.821 1.642-.821 2.463-.821a8.43 8.43 0 0 1 2.737.274h.273a6.02 6.02 0 0 0 2.19.274c2.736 0 4.925-1.642 4.925-3.558V5.821c.276-1.916-1.913-3.558-4.65-3.558m0 15.872a5.345 5.345 0 0 1-2.189-.273h-.274a5.51 5.51 0 0 0-3.01-.821 8.09 8.09 0 0 0-2.736.547h-.274a5.06 5.06 0 0 1-1.916.547 5.24 5.24 0 0 1-4.1-1.642 5.24 5.24 0 0 1 4.1-1.642 7.98 7.98 0 0 1 2.463.548h.274a8.11 8.11 0 0 0 2.736.547 9.75 9.75 0 0 0 2.737-.547h.278a6.43 6.43 0 0 1 2.189-.548 5.242 5.242 0 0 1 4.105 1.642 7.057 7.057 0 0 1-4.383 1.642"/></svg>