<svg xmlns="http://www.w3.org/2000/svg" viewBox="0 0 24 24"><path fill="#44739e" d="M16.46 2.882q0-.014 0 0c-.01-.096-.039-.173-.077-.251-.01-.019-.02-.029-.029-.048-.058-.067-.116-.116-.203-.154l-.01-.01-3.977-1.39q-.159-.058-.318 0l-4.007 1.4-.009.009q-.116.044-.203.145c-.01.019-.019.029-.029.048a.427.427 0 0 0-.077.242v18.158c0 .202.125.386.318.453l4.007 1.487c.057.019.115.029.164.029q.087 0 .173-.029l3.978-1.487c.193-.067.318-.251.318-.453V2.882Zm-5.3 1.69v9.653l-2.674-.994V3.577Zm4.335 8.659-2.655.994V4.572l2.655-.995Z"/></svg>