<svg xmlns="http://www.w3.org/2000/svg" viewBox="0 0 24 24"><path fill="#44739e" d="M15.265 9.92V2.458c0-.088-.029-.166-.078-.243-.009-.02-.019-.029-.029-.049-.058-.068-.116-.117-.204-.155l-.01-.01-2.779-.972q-.16-.058-.32 0l-2.789.972-.01.01c-.088.029-.156.087-.204.155-.02.01-.02.029-.039.049a.6.6 0 0 0-.078.233v7.463l.01 11.563c0 .204.126.389.321.457l2.789 1.04c.058.019.116.029.165.029q.087 0 .175-.029l2.779-1.04c.194-.068.311-.253.311-.457Zm-.972-.34-1.564.583V3.75l1.564-.583Zm-3.022-5.83v6.413L9.697 9.58V3.167Z"/></svg>