<svg xmlns="http://www.w3.org/2000/svg" fill="#44739e" viewBox="0 0 24 24"><path d="M13.3571 5.819h3.149v-2.7h-3.149zm.787-1.919h1.574v1.132h-1.574zm-6.116 1.919h5.164v-2.7h-5.164Zm.782-1.919h3.589v1.132h-3.589Zm1.041 13.669a.9.9 0 1 0-.9-.9.9.9 0 0 0 .9.9m.155-1.494h.077c.01 0 .021.007.032.01s.048.018.074.029a.5.5 0 0 1 .074.045.36.36 0 0 1 .071.059c.022.023.044.046.065.071s.034.055.049.083a.35.35 0 0 1 .035.086.32.32 0 0 1 .021.083c0 .028 0 .054.006.077a.22.22 0 0 1-.005.064.4.4 0 0 1-.009.049 1 1 0 0 1-.012.041s-.007-.015-.017-.04-.012-.027-.017-.043a.3.3 0 0 0-.023-.055c-.009-.019-.019-.039-.028-.061s-.024-.042-.035-.065a.6.6 0 0 0-.039-.066c-.016-.021-.03-.044-.044-.066l-.05-.061a.4.4 0 0 0-.052-.057c-.018-.017-.033-.039-.051-.053a.5.5 0 0 1-.048-.044.27.27 0 0 0-.047-.038l-.038-.03c-.021-.017-.032-.028-.032-.028a.4.4 0 0 1 .043.01m2.245 4.411 3.57-1.841a.804.804 0 1 0-.884-1.343l-3.1 2.55a.3794.3794 0 1 0 .417.634zm2.977-2.737a.269.269 0 1 1-.077.373.268.268 0 0 1 .077-.373m-9.282.896 3.57 1.841a.3794.3794 0 0 0 .417-.634L6.8281 17.3a.8036.8036 0 1 0-.883 1.343zm.217-.819a.269.269 0 1 1 .077.373.269.269 0 0 1-.077-.373M20.2371 22l-2.774-15.383V2H6.5871v4.792L3.6191 22ZM6.8361 9.626l.481.663a.48.48 0 0 0 .672.107.481.481 0 0 0 .106-.672l-.947-1.3a.43.43 0 0 0-.064-.071l.22-1.125h7.232l.673.048c1.447.036 1.477.325 1.708.949l2.247 12.991h-.536c-2.388-13.542-1.862-12.828-2.851-13.259a23.55 23.55 0 0 0-4.483-.3h-3.566c.085.066.05.289.05.289.033.01 7.964-.015 8.047.654.077.623 1.563 9.843 2.011 12.618H4.5741Zm.538-6.839h9.3v3.649h-9.3Z"/></svg>