<svg xmlns="http://www.w3.org/2000/svg" viewBox="0 0 24 24"><path fill="#44739e" d="m16.569 15.656-.022-.016a.09.09 0 0 0-.027.008l-.073.032-.013-.079a14 14 0 0 1-.124-1.981 12.8 12.8 0 0 0-.157-2.151c-.156-.834-.55-2.375-1.17-4.58a5.74 5.74 0 0 1-.029-3.022 2.9 2.9 0 0 1 .265-.71.44.44 0 0 1 .051-.06c.039-.044.11-.11.091-.158-.006-.023-.037-.048-.082-.07a1.265 1.265 0 0 0-.848-.011c-.51.191-.809 1.06-.866 2.513a17.6 17.6 0 0 0 .102 2.502v.012c0 .609.477 1.3 1.493 2.173l.012.009.006.014a9.46 9.46 0 0 1 .43 1.501 16.56 16.56 0 0 1 .33 4.07v.085l-.086-.031-.059-.022h-.011a8.7 8.7 0 0 0-1.332.357.117.117 0 0 0 .011.08c.016.036.038.056.052.058.584.088 1.117.163 1.588.23.611.086 1.139.161 1.546.23.11.019.184-.126.198-.195l.007-.021-.167-.097c-.973-.571-.973-.571-1.116-.67m.806-2.701-.018-.015v-.023c-.078-.368-.12-.718-.159-1.057a5.83 5.83 0 0 0-.611-2.265 2.68 2.68 0 0 0-.98-1.072l-.046-.033c.294 1.09.504 1.931.636 2.543a9.74 9.74 0 0 1 .61 1.878l.025.11-.11-.044-.032-.013h-.006a5 5 0 0 0-.258.059c0 .186.009.371.012.55l.524.084c.53.083.99.156 1.341.22.085.015.146-.11.161-.187v-.022l-.141-.092c-.793-.508-.841-.539-.948-.621m-1.79.487.175.029a9 9 0 0 0-.023-.246 2 2 0 0 0-.201.084.135.135 0 0 0 .014.088.085.085 0 0 0 .035.045m-5.373-6.724a3.83 3.83 0 0 0-.845-.094 1.782 1.782 0 0 0-1.21.321 23.235 23.235 0 0 0-3.961 10.751c-.061.802.561 1.407 1.851 1.797l.062.02c.258.081 2.851.495 4.019-.618l.054-.05a1.03 1.03 0 0 0 .386-.56c.146-.912.39-1.992.625-3.038.066-.292.128-.568.187-.838a17.2 17.2 0 0 1 .522-1.91c.165-.51.369-1.144.707-2.443a2.12 2.12 0 0 0 .02-.952 3.197 3.197 0 0 0-2.417-2.386m3.33 1.175c-.018-.151-.499-4.232.668-5.054a.56.56 0 0 0-.156-.082 7.8 7.8 0 0 0-.934-.143c-.051-.059-.048-.124-.057-.234a2.046 2.046 0 0 0-.424-1.147.997.997 0 0 0-.973-.176 1.21 1.21 0 0 0-.675.757c-.071.23-.061.475-.22.54-.033.013-.054.011-.203 0-.263-.02-.394-.03-.44-.027a.66.66 0 0 0-.382.166h-.068a.53.53 0 0 1-.145.133c-.019.014-.039.027-.047.036a6.255 6.255 0 0 0-1.16 3.61c.007.099.014.192.022.28l-.016.122a3.31 3.31 0 0 1 1.909-.077 3.46 3.46 0 0 1 1.621.899 3.014 3.014 0 0 1 .88 1.586 2.37 2.37 0 0 1 .024.777c.257-.319.401-.718.787-1.359l.135.017a1.56 1.56 0 0 1-.147-.623Zm-1.029-4.188c-.096.353.031.688-.064 1.041-.101.376-.423.77-.524 1.148a.199.199 0 0 1-.22.145l-2.59-.373a.198.198 0 0 1-.14-.091.205.205 0 0 1-.021-.166c.122-.376.053-.788.174-1.164.1-.308.392-.58.491-.888a.201.201 0 0 1 .209-.136l2.521.246a.189.189 0 0 1 .138.082.2.2 0 0 1 .027.156Zm8.312.424-5.391-1.038a.8.8 0 0 1-.074.09.33.33 0 0 0-.037.045 2.8 2.8 0 0 0-.25.674 5.59 5.59 0 0 0 .029 2.957q.22.781.399 1.443c.056.041.11.082.17.121a3.66 3.66 0 0 1 .511.411l3.961.498a1.659 1.659 0 0 0 1.86-1.43l.25-1.912a1.659 1.659 0 0 0-1.428-1.859M4.558 14.749q.079-.33.17-.66c-.16-.095-.195-.119-.271-.172l-.022-.015-.069-.022.033-.065c.295-.587.739-1.462 1.192-2.352A19.3 19.3 0 0 1 8.053 6.87a.57.57 0 0 1 .187-.151 10 10 0 0 1-.038-.44 5.765 5.765 0 0 1 .424-2.284 4.82 4.82 0 0 1 .771-1.43.5.5 0 0 1 .062-.048c.048-.034.127-.09.123-.133a.154.154 0 0 0-.064-.088 1.27 1.27 0 0 0-.823-.198c-.539.073-1.023.854-1.4 2.258a17.4 17.4 0 0 0-.455 2.472 1.95 1.95 0 0 0 0 .533v.024l-.009.015-.283.487c-.468.804-.951 1.634-1.267 2.27a20 20 0 0 0-.822 2.001c-.212.578-.432 1.175-.703 1.76l-.024.052-.055-.02h-.009a8.44 8.44 0 0 0-1.332.357.128.128 0 0 0 .012.08c.015.035.037.056.052.058.583.087 1.115.162 1.586.229Zm2.053-7.212.103-.179a2.15 2.15 0 0 1 0-.55c0-.038.338-3.3 1.334-4.45l-4.317-.33a1.66 1.66 0 0 0-1.808 1.5L1.741 5.45a1.66 1.66 0 0 0 1.495 1.808Zm4.172 10.199c-.037.195-.071.386-.099.569a1.133 1.133 0 0 1-.424.63l-.054.051a3.77 3.77 0 0 1-2.397.79c-.097 0-.192.005-.285.005a6.25 6.25 0 0 1-1.463-.15l-.062-.018a4.32 4.32 0 0 1-1.158-.515 1.517 1.517 0 0 1-.78-1.412v-.038a2.233 2.233 0 0 0-1.32 1.99C2.752 21.495 4.775 23 7.271 23s4.517-1.505 4.517-3.362a2.207 2.207 0 0 0-1.005-1.902m-5.549-5.292c-.267.524-.51 1.005-.698 1.379.063.043.1.068.22.144.144-.502.302-1.011.478-1.523m11.078-.775a10.6 10.6 0 0 1 .11 1.235c.117-.028.206-.048.24-.056a10.1 10.1 0 0 0-.35-1.179"/></svg>