<svg xmlns="http://www.w3.org/2000/svg" viewBox="0 0 24 24"><path fill="#44739e" d="M11.65 11.516v.982h1.678a1.753 1.753 0 1 1-.419-1.706l.705-.679a2.732 2.732 0 1 0 .72 2.369h.086v-.966Zm.021-5.97a6.456 6.456 0 1 0 6.45 6.456 6.463 6.463 0 0 0-6.45-6.456m0 11.436a4.982 4.982 0 1 1 4.977-4.98 4.988 4.988 0 0 1-4.977 4.982Zm6.628-5.842a3.2 3.2 0 0 0-.122.862 3.15 3.15 0 0 0 .121.862c.296-.04.493-.128.493-.209v-1.308c0-.08-.193-.169-.492-.207m-2.686-4.871a5.3 5.3 0 0 1-.245-.684 23 23 0 0 1-.44-3.917 7.126 7.126 0 0 0-3.257-.663h-.024a7.08 7.08 0 0 0-3.242.647 23 23 0 0 1-.44 3.918 5.4 5.4 0 0 1-.254.707 6.949 6.949 0 0 1 7.904-.008ZM7.719 17.734a5.3 5.3 0 0 1 .244.684 22.95 22.95 0 0 1 .44 3.917 7.126 7.126 0 0 0 3.266.66h.025a7.09 7.09 0 0 0 3.242-.647 23 23 0 0 1 .439-3.917 5.5 5.5 0 0 1 .254-.707 6.945 6.945 0 0 1-7.903.007Z"/></svg>