<svg xmlns="http://www.w3.org/2000/svg" fill="#44739e" viewBox="0 0 24 24"><path d="M23.7967 9.42H16.449v1.9919s-.0224.7691.9288.7691h4.4914a1.26 1.26 90 0 1 .5123.1042c.2508.1118.5327.3395.5327.7987 0 .4121-.1997.6461-.3973.7771a1 1 90 0 1-.5495.1597H16.449v.5591h6.1533S24 14.5231 24 13.0867c0-.7304-.4265-1.0922-.8102-1.2695a1.88 1.88 90 0 0-.7907-.1713h-4.4514a.45.45 90 0 1-.2133-.0507c-.095-.0515-.1996-.1538-.1996-.355V9.9715h6.2619ZM7.2008 14.0187v.5591h3.1188a1.546 1.546 90 0 0 1.0183-.3686 1.289 1.289 90 0 0 .4544-1.0127v-2.3764a.859.859 90 0 1 .3195-.6789.8.8 90 0 1 .5036-.1697h2.719V9.42h-3.2382s-1.3976.0224-1.3976 1.5007v2.2191a.963.963 90 0 1-.1414.5155.75.75 90 0 1-.6669.3646ZM0 9.42v.5515h5.5587a1.05 1.05 90 0 1 .4481.0962c.2204.1034.468.3163.468.748 0 .4193-.2476.6289-.468.7327a1.07 1.07 90 0 1-.4552.0975H1.4288a1.57 1.57 90 0 0-.7044.1597c-.343.1721-.7244.5775-.7244 1.246v1.5222h1.0698v-1.5155a.79.79 90 0 1 .0523-.2875c.0883-.2264.3115-.5898.8335-.5898h4.157a1.5 1.5 90 0 0 .4137-.0555c.3818-.1086 1.0183-.4225 1.0183-1.3098 0-1.3789-1.3725-1.3957-1.3725-1.3957Z"/></svg>