<svg xmlns="http://www.w3.org/2000/svg" fill="#44739e" viewBox="0 0 24 24"><path d="M1.8013 18.8556c-1.8879-.5398-2.2085-1.654-1.3456-2.296.798-.5953 2.1548-1.0397 2.1548-1.0397l5.6032-2.0015v2.2804l-4.0323 1.4496c-.7131.2599-.8223.6203-.2426.8101s1.6271.136 2.3393-.1204l1.9339-.7053v2.0404c-.1222.0225-.2599.0442-.3856.065a12.63 12.63 90 0 1-6.0251-.4826m11.8215.2374 6.2877-2.244c.7139-.26.8231-.6187.2434-.8084s-1.6271-.1361-2.3393.1213L13.6245 17.64v-2.3558l.2426-.0823a14.36 14.36 90 0 1 2.9121-.6178c1.7025-.188 3.7872.026 5.423.6464 1.8446.5839 2.0525 1.4443 1.5838 2.0369s-1.6176 1.0146-1.6176 1.0146l-8.5439 3.075Zm.7356-14.6053c3.3106 1.1428 4.4326 2.5654 4.4326 5.7712 0 3.1235-1.9182 4.3079-4.3546 3.1252v-5.825c0-.6827-.1248-1.3117-.7625-1.4902-.4886-.1577-.7919.2989-.7919.9816v14.5777l-3.9093-1.2477V3c1.6627.3102 4.0843 1.0397 5.3857 1.4842Z"/></svg>