<svg xmlns="http://www.w3.org/2000/svg" viewBox="0 0 24 24"><path fill="#44739e" d="m9.258 18.746.284-.568c.378-.85.567-1.796.567-2.458L10.1 3.667c0-1.135-.369-1.371-.747-1.466L5.76 1.067c-.283-.095-.945-.189-1.701.473q-.709.567-1.135 1.701c-.283.757-.472 1.418-.472 2.08v12.101c0 .946.472 1.229.756 1.418-.946.378-1.607.946-1.607 1.513v.567c0 1.135 2.174 2.08 4.727 2.08 2.647 0 4.727-.945 4.727-2.08v-.567c0-.662-.662-1.229-1.797-1.607M6.895 6.928c0-1.04-.151-2.552 1.172-3.687 1.201-1.059 1.135.671 1.135.671s-.038 9.634-.038 10.674c0 1.702 0 3.214-1.229 4.538-.946 1.134-1.04-.284-1.04-.284Zm13.708 11.818.284-.568c.378-.85.567-1.796.567-2.458l-.01-12.053c0-1.135-.368-1.371-.746-1.466l-3.593-1.134c-.283-.095-.945-.189-1.702.473q-.709.567-1.134 1.701c-.284.757-.473 1.418-.473 2.08v12.101c0 .946.473 1.229.757 1.418-.946.378-1.608.946-1.608 1.513v.567c0 1.135 2.175 2.08 4.727 2.08 2.647 0 4.727-.945 4.727-2.08v-.567c0-.662-.661-1.229-1.796-1.607M18.24 6.928c0-1.04-.152-2.552 1.172-3.687 1.201-1.059 1.134.671 1.134.671s-.037 9.634-.037 10.674c0 1.702 0 3.214-1.229 4.538-.946 1.134-1.04-.284-1.04-.284Z"/></svg>