<svg xmlns="http://www.w3.org/2000/svg" fill="#44739e" viewBox="0 0 24 24"><path d="M20.249 17.239a3.926 3.926 0 0 1-3.567-.223c-.669-.223-12.931-5.127-12.931-5.127s-1.115-.446.223-.892c1.56-.669 2.675 0 4.013.446.892.223 11.816 4.682 11.816 4.682s1.784.445.446 1.114m1.115-.446a1.8 1.8 0 0 0-1.115-1.337L7.318 10.328a5.59 5.59 0 0 0-2.229-.446 3.8 3.8 0 0 0-1.561.223 1.613 1.613 0 0 0-.892 1.338v3.567c0 .223.223.669.892 1.115l13.377 5.35a4.2 4.2 0 0 0 1.783.446 2.4 2.4 0 0 0 1.784-.446 1.043 1.043 0 0 0 .892-1.114zm-1.115-7.58a3.926 3.926 0 0 1-3.567-.223c-.669-.223-12.931-5.128-12.931-5.128s-1.115-.446.223-.891c1.56-.669 2.675 0 4.013.445C8.879 3.862 19.8 8.1 19.8 8.1s1.784.669.446 1.115m1.115-.446c0-.446-.223-.892-1.115-1.337L7.318 2.3a6.21 6.21 0 0 0-2.229-.223 3.8 3.8 0 0 0-1.561.223 1.138 1.138 0 0 0-.892 1.114v3.57c0 .223.223.668.892 1.114l13.377 5.351a4.345 4.345 0 0 0 1.783.223 4.35 4.35 0 0 0 1.784-.223c.892-.446.892-.892.892-1.115z"/></svg>