<svg xmlns="http://www.w3.org/2000/svg" fill="#44739e" viewBox="0 0 24 24"><path d="M6.326 9.33H0v.7374h5.9845c.3803.0155.7839.2251.7839.7762s-.3958.7607-.7684.7762H1.1798c-.0466 0-.2872.0077-.5433.1319-.3726.1863-.5822.5434-.5822.9936v1.8007h1.0091v-1.8007c0-.2717.163-.4347.4424-.4425h4.502c.5821-.0077 1.4515-.4036 1.4515-1.4592-.0156-1.1022-.59-1.5058-1.1333-1.5136m4.7193.3571c-.2406.2716-.2406.6131-.2329.7063v3.1746c0 .2329-.0931.3183-.1242.3493-.1552.1475-.4191.1553-.4967.1553h-2.903v.5433h3.392c.163 0 .5744-.031.8693-.3027.1397-.1242.3027-.3648.3027-.7529v-3.229c0-.0388 0-.1941.0932-.3027.1086-.1164.2949-.1397.4424-.1397h3.1514v-.5434h-3.6482c-.3648.0233-.652.132-.846.3416m12.4812 2.2432.0544-.0466c.2716-.2639.4113-.6132.4113-1.0401 0-1.1022-.5821-1.5058-1.1255-1.5136h-6.3492v.7374h6.0077c.3804.0155.784.2251.784.7762s-.3959.7607-.7685.7762h-6.0232v.5433h6.0077c.3105 0 .6831.1785.6831 1.0479 0 .5511-.3959.7607-.7685.7762h-5.9146v.683h6.0233C23.1307 14.6625 24 14.2666 24 13.211c0-.5356-.1397-.9625-.4114-1.2264z"/></svg>