<svg xmlns="http://www.w3.org/2000/svg" viewBox="0 0 24 24"><path fill="#44739e" d="m8.932 18.746.284-.568c.378-.85.567-1.796.567-2.458L9.774 3.667c0-1.135-.369-1.371-.747-1.466L5.434 1.067c-.283-.095-.945-.189-1.701.473q-.71.567-1.135 1.701c-.284.757-.473 1.418-.473 2.08v12.101c0 .946.473 1.229.757 1.418-.946.378-1.607.946-1.607 1.513v.567c0 1.135 2.174 2.08 4.726 2.08 2.648 0 4.727-.945 4.727-2.08v-.567c0-.662-.661-1.229-1.796-1.607M6.569 6.928c0-1.04-.152-2.552 1.172-3.687 1.201-1.059 1.134.671 1.134.671s-.037 9.634-.037 10.674c0 1.702 0 3.214-1.229 4.538-.946 1.134-1.04-.284-1.04-.284Zm6.703 13.425v.567c0 1.135 2.079 2.08 4.727 2.08 2.552 0 4.726-.945 4.726-2.08v-.567c0-.567-.661-1.135-1.607-1.513.284-.189.757-.472.757-1.418V5.321c0-.662-.189-1.323-.473-2.08s-.662-1.323-1.135-1.701c-.756-.662-1.418-.568-1.701-.473l-3.593 1.134c-.378.095-.747.331-.747 1.466l-.009 12.053c0 .662.189 1.608.567 2.458l.284.568c-1.135.378-1.796.945-1.796 1.607m4.159-1.513s-.094 1.418-1.04.284c-1.229-1.324-1.229-2.836-1.229-4.538 0-1.04-.037-10.674-.037-10.674s-.067-1.739 1.134-.671c1.324 1.135 1.172 2.647 1.172 3.687Z"/></svg>