<svg xmlns="http://www.w3.org/2000/svg" fill="#44739e" viewBox="0 0 24 24"><path d="m20.737 11.326-13.7-7.6a4.507 4.507 0 0 0-2.36-.666 2.983 2.983 0 0 0-1.653.331 2.557 2.557 0 0 0-.945 1.984v5.29a2.6 2.6 0 0 0 .945 1.653l14.17 7.934a3.485 3.485 0 0 0 1.889.662 2.027 2.027 0 0 0 1.89-.662 1.514 1.514 0 0 0 .945-1.652v-5.291a2.624 2.624 0 0 0-1.181-1.983m-.032 1.995a3.141 3.141 0 0 1-3.778-.331c-.709-.331-13.7-7.6-13.7-7.6s-1.181-.661.236-1.323c1.653-.992 2.834 0 4.251.662.945.33 12.517 6.943 12.517 6.943s1.892.657.474 1.649"/></svg>