<svg xmlns="http://www.w3.org/2000/svg" fill="#44739e" viewBox="0 0 24 24"><path d="M0 14.5615h1.0494a.042.042 0 0 0 .0263-.0397v-1.5207c0-.4868.2749-.8234.6755-.8234h4.3225c.9744 0 1.4468-.601 1.4468-1.3884 0-.7055-.3866-1.2576-1.1792-1.3583H-.0194c-.0019.004-.005.0071-.005.0121v.4748q0 .036.0359.0361h5.6974c.4843 0 .7115.3486.7115.8353 0 .4869-.2272.8355-.7115.8355H1.2012c-.6995 0-1.2256.5951-1.2256 1.3763v1.5206c0 .0197.0084.0347.0244.0398m12.2792-1.3861v-2.386c0-.4868.2271-.8354.7117-.8354h2.9888c.0183 0 .0359-.0181.0359-.0361v-.4748a.03.03 0 0 0-.0028-.0121h-3.6544c-.7921.1007-1.1791.6528-1.1791 1.3584v2.386c0 .4867-.2335.8354-.7116.8354H7.3113c-.0179 0-.0359.012-.0359.036v.4749c0 .0196.0121.0347.0263.0397h3.5836c.934-.0245 1.3939-.6208 1.3939-1.386m3.7189.8355h5.7393c.0176 0 .0295.012.0295.024v.4868c0 .0241.0183.0361.0359.0361h1.0346c.0183 0 .0357-.012.0357-.0361v-.4748c0-.0181.0183-.036.0359-.036h1.0281c.024 0 .0359-.0181.0359-.036v-.4809c0-.0181-.0119-.0361-.0359-.0361H22.909c-.0176 0-.0359-.018-.0359-.036V9.954c0-.283-.1052-.4632-.282-.523h-.2993c-.0933.024-.1947.0669-.3034.1323l-6.1816 3.8165c-.2391.1502-.3229.3184-.2631.4446.0478.1083.1849.1865.4544.1865m.8965-.6371 4.7887-2.963c.0301-.0241.09-.018.09.0481v2.963c0 .0181-.0183.036-.0359.036h-4.8131c-.0415 0-.0599-.0119-.0655-.024-.0064-.024.0055-.0421.0358-.0601"/></svg>