<svg xmlns="http://www.w3.org/2000/svg" viewBox="0 0 24 24"><path fill="#44739e" d="M13.978 1c-.386 0-.868.096-1.158.289h-.096l-.097.097h-.096c-.386.193-1.062.579-1.255.675-.289.193-.965.772-.965 2.22V8.14C8.575 8.526 7.32 10.07 7.32 12s1.255 3.474 2.991 3.86v4.342s-.096 1.158 1.062 1.833l1.158.579c.289.193.675.29.965.386h.482c1.447 0 2.702-1.158 2.702-2.509V3.509C16.68 2.158 15.425 1 13.978 1m1.737 19.684c0 .869-.772 1.544-1.737 1.544h-.289c-.193 0-.483-.096-.676-.289-.096-.097-.193-.097-.289-.193l-.097-.097-.193-.193s0-.096-.096-.096c0-.097-.097-.193-.097-.29V3.026c0-.096.097-.193.097-.193s0-.096.096-.096c0-.097.097-.097.193-.193 0 0 0-.097.097-.097.096-.096.193-.193.289-.193 0 0 .097 0 .097-.096.193-.097.482-.193.772-.193.964 0 1.736.675 1.736 1.544v17.175Z"/></svg>