<svg xmlns="http://www.w3.org/2000/svg" viewBox="0 0 24 24"><path fill="#44739e" d="M21.67 11.256 6.493 2.837a4.993 4.993 0 0 0-2.615-.738 3.305 3.305 0 0 0-1.831.366A2.833 2.833 0 0 0 1 4.663v5.861a2.88 2.88 0 0 0 1.047 1.831l15.698 8.79a3.86 3.86 0 0 0 2.093.733 2.246 2.246 0 0 0 2.094-.733 1.677 1.677 0 0 0 1.046-1.83v-5.862a2.907 2.907 0 0 0-1.308-2.197m-.035 2.21a3.48 3.48 0 0 1-4.186-.366c-.785-.367-15.177-8.42-15.177-8.42s-1.309-.732.261-1.466c1.832-1.099 3.14 0 4.71.734 1.047.365 13.867 7.691 13.867 7.691s2.096.728.525 1.827"/></svg>