<svg xmlns="http://www.w3.org/2000/svg" viewBox="0 0 24 24"><path fill="#44739e" d="M22.814 9.635h-6.736v1.826s-.02.705.852.705h4.117a1.155 1.155 0 0 1 .469.096c.23.102.489.311.489.732 0 .377-.183.592-.365.712a.917.917 0 0 1-.503.146h-5.059v.513h5.641S23 14.313 23 12.996c0-.669-.391-1.001-.743-1.163a1.72 1.72 0 0 0-.724-.158h-4.081a.41.41 0 0 1-.195-.046c-.088-.047-.183-.141-.183-.325v-1.163h5.74ZM7.601 13.851v.512h2.859a1.417 1.417 0 0 0 .933-.338 1.182 1.182 0 0 0 .417-.928v-2.178a.787.787 0 0 1 .292-.623.733.733 0 0 1 .462-.155h2.493v-.506h-2.969s-1.281.021-1.281 1.376v2.034a.883.883 0 0 1-.13.472.688.688 0 0 1-.611.335ZM1 9.635v.506h5.095a.96.96 0 0 1 .411.088c.202.095.429.29.429.685 0 .385-.227.577-.429.672a.98.98 0 0 1-.417.089H2.31a1.44 1.44 0 0 0-.646.147C1.35 11.98 1 12.351 1 12.964v1.395h.981V12.97a.72.72 0 0 1 .048-.263c.081-.208.285-.541.764-.541h3.81a1.38 1.38 0 0 0 .379-.051c.35-.099.934-.387.934-1.201 0-1.264-1.258-1.279-1.258-1.279Z"/></svg>