<svg xmlns="http://www.w3.org/2000/svg" fill="#44739e" viewBox="0 0 24 24"><path d="m17.855 17.325-9.193-3.646a3.99 3.99 0 0 0-1.585-.317 2.69 2.69 0 0 0-1.109.159 1.145 1.145 0 0 0-.634.951v2.536c0 .158.158.475.634.792l9.51 3.8a2.98 2.98 0 0 0 1.268.317 1.708 1.708 0 0 0 1.268-.317.742.742 0 0 0 .634-.792v-2.532a1.277 1.277 0 0 0-.793-.951m0 1.268a2.793 2.793 0 0 1-2.536-.159c-.475-.158-9.193-3.645-9.193-3.645s-.792-.317.159-.634c1.109-.476 1.9 0 2.853.317.634.158 8.4 3.328 8.4 3.328s1.268.317.317.793M5.946 12.064l9.51 3.8a2.98 2.98 0 0 0 1.268.317 1.708 1.708 0 0 0 1.268-.317.742.742 0 0 0 .634-.792V12.54a1.277 1.277 0 0 0-.793-.951L8.64 7.943a3.99 3.99 0 0 0-1.585-.317 2.69 2.69 0 0 0-1.109.159 1.145 1.145 0 0 0-.634.951v2.536c0 .158.158.475.634.792m.317-3.645c1.109-.476 1.9 0 2.853.317.634.158 8.4 3.328 8.4 3.328s1.268.317.317.793A2.793 2.793 0 0 1 15.3 12.7c-.478-.16-9.2-3.647-9.2-3.647s-.788-.317.163-.634m-.317-2.061 9.51 3.8a3.08 3.08 0 0 0 1.268.159 3.08 3.08 0 0 0 1.268-.159c.634-.317.634-.634.634-.792V6.834c0-.317-.159-.634-.793-.951L8.64 2.237a4.43 4.43 0 0 0-1.585-.158 2.7 2.7 0 0 0-1.109.158.809.809 0 0 0-.634.793v2.536c0 .158.158.475.634.792m.317-3.645c1.109-.476 1.9 0 2.853.317.634.317 8.4 3.328 8.4 3.328s1.268.476.317.793a2.793 2.793 0 0 1-2.533-.159c-.478-.158-9.2-3.645-9.2-3.645s-.788-.317.163-.634"/></svg>