<svg xmlns="http://www.w3.org/2000/svg" fill="#44739e" viewBox="0 0 24 24"><path d="M14.649 13.134a1.317 1.317 0 0 1-2.311-.729h4.23a1.18 1.18 0 0 0 .04-.365 2.928 2.928 0 1 0-.243 1.094zm-.933-2.8a1.337 1.337 0 0 1 1.352 1.068h-2.676a1.3 1.3 0 0 1 1.324-1.065zm7.622 3.366a12.04 12.04 0 0 1-.987-1.419l-.959 1.432.324.446a1.388 1.388 0 0 0 1.189.73 1.438 1.438 0 0 0 .987-.608 6.4 6.4 0 0 1-.554-.581M22 9.215h-1.919l-.689 1.014.946 1.432zm-3.914.015h-2.257l1.854 2.741-1.855 2.729h2.258l1.842-2.729zm-.216 5.07h-1.277l1.58-2.324-1.581-2.341h1.278l1.569 2.336zm-7.708-2.436-.013-4.473H8.568v5.838a1.78 1.78 0 0 0 .418 1.189 1.284 1.284 0 0 0 .919.473 1.208 1.208 0 0 0 .987-.73.6.6 0 0 0-.041-.054 3.49 3.49 0 0 1-.689-2.243M5.284 9.04a2 2 0 0 0-1.743.77v-.6H2v7.33a.48.48 0 0 0 .108.027 1.3 1.3 0 0 0 1.095-.2 1.29 1.29 0 0 0 .446-1.081v-1.057a2.077 2.077 0 0 0 1.648.676 2.72 2.72 0 0 0 2.676-2.865 2.74 2.74 0 0 0-2.689-3m-.3 4.473a1.54 1.54 0 0 1-1.527-1.554 1.6 1.6 0 0 1 1.527-1.514 1.5 1.5 0 0 1 1.528 1.527 1.521 1.521 0 0 1-1.526 1.541z"/></svg>