<svg xmlns="http://www.w3.org/2000/svg" viewBox="0 0 24 24"><path fill="#44739e" d="M22.725 11.72h-2.066a.274.274 0 0 0-.22.11l-5.767 7.949H13.11l5.533-7.626a.274.274 0 0 0 0-.323L12.79 3.771a.274.274 0 0 0-.22-.11h-2.243a.275.275 0 0 0-.275.275.278.278 0 0 0 .055.165l5.73 7.897-5.651 7.787H8.625l5.533-7.625a.277.277 0 0 0 0-.323l-5.85-8.066a.274.274 0 0 0-.22-.11H5.84a.274.274 0 0 0-.22.44l5.533 7.626H1.275a.275.275 0 0 0 0 .55h10.419a.274.274 0 0 0 .22-.44L6.383 4.208h1.562l5.651 7.79-5.733 7.897a.275.275 0 0 0 .22.44h2.241a.274.274 0 0 0 .22-.11l5.856-8.068a.274.274 0 0 0 0-.324l-5.533-7.625h1.562l5.648 7.79-5.732 7.901a.274.274 0 0 0 .22.44h2.241a.274.274 0 0 0 .22-.11L20.8 12.27h1.925a.275.275 0 0 0 0-.55"/></svg>