<svg xmlns="http://www.w3.org/2000/svg" viewBox="0 0 24 24"><path fill="#44739e" d="M14.914 13.246a1.449 1.449 0 0 1-2.542-.802h4.653a1.3 1.3 0 0 0 .044-.401 3.221 3.221 0 1 0-.268 1.203Zm-1.026-3.08a1.471 1.471 0 0 1 1.487 1.175h-2.944a1.43 1.43 0 0 1 1.457-1.172Zm8.384 3.703a13.24 13.24 0 0 1-1.086-1.561l-1.055 1.575.357.491a1.527 1.527 0 0 0 1.308.803 1.582 1.582 0 0 0 1.085-.669 7 7 0 0 1-.609-.639M23 8.935h-2.111l-.758 1.116 1.041 1.575Zm-4.305.017h-2.483l2.039 3.015-2.04 3.002h2.484l2.026-3.002Zm-.238 5.577h-1.405l1.738-2.557-1.739-2.575h1.406l1.726 2.57Zm-8.479-2.68-.014-4.92H8.225v6.422a1.958 1.958 0 0 0 .46 1.308 1.412 1.412 0 0 0 1.01.52 1.329 1.329 0 0 0 1.086-.803.7.7 0 0 0-.045-.06 3.84 3.84 0 0 1-.758-2.467M4.612 8.743a2.2 2.2 0 0 0-1.917.847v-.66H1v8.063a.53.53 0 0 0 .119.029 1.43 1.43 0 0 0 1.204-.22 1.419 1.419 0 0 0 .491-1.189v-1.162a2.285 2.285 0 0 0 1.813.743 2.992 2.992 0 0 0 2.943-3.151 3.014 3.014 0 0 0-2.958-3.3m-.33 4.92a1.694 1.694 0 0 1-1.679-1.709 1.76 1.76 0 0 1 1.679-1.666 1.65 1.65 0 0 1 1.681 1.68 1.673 1.673 0 0 1-1.678 1.695Z"/></svg>