<svg xmlns="http://www.w3.org/2000/svg" viewBox="0 0 24 24"><path fill="#44739e" d="M22.114 3.307c-.293 0-.293-.293-.587-.293l-7.037-1.76a4.077 4.077 0 0 0-2.64 0c-1.173.586-6.744 2.347-6.744 2.347a3.735 3.735 0 0 0-1.755 1.172h-.592l-.295.294-.294.293v2.053l.294.293.293.293h.294V12.1h-.292l-1.466.586c-.293 0-.293.294-.293.588v.879l.293.294.293.292 1.467.294v4.101a2.65 2.65 0 0 0 .298 1.475 1.773 1.773 0 0 0 1.76.879c1.759.294 7.331 1.467 7.331 1.467h.587a2.65 2.65 0 0 0 1.466-.293c2.345-.88 4.398-1.466 6.745-2.346 0 0 1.759-.587 1.759-3.52V5.653a3.325 3.325 0 0 0-.885-2.346m0 13.783c0 2.053-1.173 2.346-1.173 2.346s-3.812 1.466-6.745 2.346c-.879.294-1.467.294-1.467 0a1.043 1.043 0 0 1-.586-.88V8.293c0-.88.294-1.759 1.174-1.759l7.624-2.347h.293c.88 0 .88.88.88 1.466Zm-1.752-3.519-1.173.586c-.292 0-.292.294-.292.587v1.463c-.294 0 0 .293.292.293h.294l1.173-.586c.293 0 .293-.294.293-.586v-1.171c.293-.292 0-.586-.587-.586m-4.992 1.466-1.174.587c-.293 0-.293.293-.293.586v1.467c-.294 0 0 .293.293.293h.294l1.172-.587c.294 0 .294-.293.294-.587v-1.172c.293-.293 0-.587-.586-.587m1.171-7.624c-.294 0-.294.293-.294.586v2.346a.632.632 0 0 0 .587.587h.294l.88-.294c.292 0 .292-.293.292-.586V8.004c-.292-.292-.586-.586-.88-.586Z"/></svg>