<svg xmlns="http://www.w3.org/2000/svg" viewBox="0 0 24 24"><path fill="#44739e" d="M18.702 18.965c1.142-.286 1.994-.571 1.994-.571a1.571 1.571 0 0 0 .858-1.428v-1.714a6.31 6.31 0 0 1-2.852 3.713m1.142-5.141-1.995-.858v1.14a3.848 3.848 0 0 1-1.427 2.574c.286 0 .286.286.286.572l-.286.571 1.143.571c2.285-.857 2.857-3.427 3.141-4.856Zm-7.712 3.428a4.056 4.056 0 0 1-.572-1.715v4.571a.997.997 0 0 0 .286.572h.857a9.86 9.86 0 0 0 3.427-.858 5.553 5.553 0 0 1-3.998-2.57m2.285-5.713a1.252 1.252 0 0 0 .286.857c.285 0 .571 0 .857-.572s0-1.143-.572-1.143a1.057 1.057 0 0 0-.571.858m-2.571-1.714v3.427a7.047 7.047 0 0 1 4-5.43l-3.143.857c-.571.003-.857.575-.857 1.146m-1.142 0a2.173 2.173 0 0 1 1.714-2.286l7.14-1.713-5.997-2.285h-1.143L4.42 5.254s-.858.286-.858.857v.57l-.571 1.144v1.714l-.571.286v.571l.571.285v1.43l.571.856v3.714a.56.56 0 0 0 .572.572c.571.285 4.284 1.995 6.57 2.856Zm7.141 0 1.995.856.572-.285a6.26 6.26 0 0 1-.858-1.428 4.056 4.056 0 0 0-1.714-.572Zm3.142-3.144-3.999.856a3.223 3.223 0 0 1 3.142.857 2.407 2.407 0 0 1 1.143 2V6.681c0-.284-.286-.284-.286 0m1.301-1.441a1.44 1.44 0 0 0-.776-.406l-7.333-2.818a2.161 2.161 0 0 0-2.008-.032c-1.121.28-7.913 1.697-8.029 1.723a2.51 2.51 0 0 0-2.005 2.404v.186l-.526 1.049-.039 1.358L1 8.99v2.153l.285.286v1.095l.572.857v3.299a2.363 2.363 0 0 0 1.434 2.118c.365.122 2.063.845 3.704 1.545 4.058 1.728 4.515 1.905 4.714 1.905h.572l.64-.007c1.099-.183 3.841-1.029 5.845-1.648.966-.299 1.966-.607 2.083-.629l.191-.047a3.152 3.152 0 0 0 1.949-2.951V6.969a1.984 1.984 0 0 0-.701-1.729m-.157 11.727a2.314 2.314 0 0 1-1.421 2.161c-.222.043-.717.193-2.201.652-1.98.61-4.691 1.448-5.663 1.615l-1.074.008c-.287-.07-2.692-1.095-4.447-1.843-1.809-.775-3.372-1.44-3.715-1.551a1.527 1.527 0 0 1-.907-1.33v-3.555l-.572-.857v-1.19l-.284-.286V9.517l.57-.288V7.64l.527-1.053.045-.476c0-.277 0-1.122 1.374-1.583.281-.057 6.878-1.433 8.102-1.749a1.441 1.441 0 0 1 1.37.016l7.425 2.857.153.029a.614.614 0 0 1 .271.161 1.176 1.176 0 0 1 .443 1.127Z"/></svg>