<svg xmlns="http://www.w3.org/2000/svg" viewBox="0 0 24 24"><path fill="#44739e" d="M21.621 9.095A1.379 1.379 0 1 0 23 10.474a1.379 1.379 0 0 0-1.379-1.379m.533 1.968a.052.052 0 0 1-.049.033h-.185a.053.053 0 0 1-.049-.033l-.329-.817a.052.052 0 0 1-.038.017h-.241v.781a.052.052 0 0 1-.052.052h-.167a.052.052 0 0 1-.051-.052v-.781h-.246a.052.052 0 0 1-.052-.052v-.152a.052.052 0 0 1 .052-.052h.969a.051.051 0 0 1 .047.033l.255.618.255-.618a.052.052 0 0 1 .048-.033h.186a.052.052 0 0 1 .048.071Zm-4.239-.773a2.298 2.298 0 0 0-2.291 2.303 2.294 2.294 0 0 0 4.587 0 2.302 2.302 0 0 0-2.296-2.303m0 3.687a1.389 1.389 0 0 1 0-2.779 1.411 1.411 0 0 1 1.389 1.396 1.389 1.389 0 0 1-1.389 1.383m-2.59-3.69h-2.81a.169.169 0 0 0-.169.17v.528a.169.169 0 0 0 .169.169h.937v3.56a.174.174 0 0 0 .169.169h.599a.174.174 0 0 0 .169-.169v-3.56h.936a.17.17 0 0 0 .17-.169v-.528a.17.17 0 0 0-.17-.17m-3.843 0h-.61a.169.169 0 0 0-.169.17v2.572a.889.889 0 1 1-1.777-.007v-2.565a.17.17 0 0 0-.169-.17h-.612a.174.174 0 0 0-.169.17v2.611a1.838 1.838 0 0 0 3.675 0v-2.611a.174.174 0 0 0-.169-.17m-4.191 3.73H5.698v-3.56a.174.174 0 0 0-.169-.17h-.592a.17.17 0 0 0-.169.17v4.257a.17.17 0 0 0 .169.169h2.354a.17.17 0 0 0 .169-.169v-.528a.17.17 0 0 0-.169-.169m-4.611-3.73H1.169a.17.17 0 0 0-.169.17v4.257a.17.17 0 0 0 .169.169h.592a.174.174 0 0 0 .169-.169v-1.465h.757a1.481 1.481 0 1 0-.007-2.962m-.051 2.085h-.703v-1.199h.695a.596.596 0 0 1 .615.579.619.619 0 0 1-.607.62"/></svg>