<svg xmlns="http://www.w3.org/2000/svg" fill="#44739e" viewBox="0 0 24 24"><path d="M21.0234 18.7242v-.441h-2.88v1.34l.018.153a.553.553 0 0 0 .133.356.68.68 0 0 0 .464.173h1.594c.082.01.123.074.123.2v.725a.264.264 0 0 1-.034.153.2.2 0 0 1-.1.066h-2.198v.434h2.263a.76.76 0 0 0 .275-.045.477.477 0 0 0 .3-.3.61.61 0 0 0 .036-.208l.006-.142v-.783a.553.553 0 0 0-.138-.376.644.644 0 0 0-.47-.178h-1.575a.21.21 0 0 1-.107-.048.222.222 0 0 1-.036-.149v-.93zm-3.769-.096a.55.55 0 0 0-.11-.171.51.51 0 0 0-.184-.12.89.89 0 0 0-.28-.054h-2.257v.441h2.194a.16.16 0 0 1 .1.07.41.41 0 0 1 .049.162v.7a.23.23 0 0 1-.031.139.177.177 0 0 1-.1.052h-1.6a.627.627 0 0 0-.46.175.577.577 0 0 0-.142.371l-.017.149v1.341h2.889v-.439h-2.334v-.935a.274.274 0 0 1 .031-.148.16.16 0 0 1 .114-.056h1.587a1 1 0 0 0 .287-.06.46.46 0 0 0 .179-.114.43.43 0 0 0 .094-.161 1.15 1.15 0 0 0 .044-.194l.011-.153v-.664l-.011-.126a.85.85 0 0 0-.053-.205m-6.025-.168a.56.56 0 0 0-.193-.12.92.92 0 0 0-.294-.057h-4.182a.88.88 0 0 0-.29.057.59.59 0 0 0-.192.12.45.45 0 0 0-.11.166.69.69 0 0 0-.042.193l-.011.168v2.896h.58v-2.941a.27.27 0 0 1 .034-.154.168.168 0 0 1 .1-.064h1.727v3.159h.59v-3.159h1.724a.178.178 0 0 1 .108.064.258.258 0 0 1 .037.154v2.941h.579v-3.056a.85.85 0 0 0-.053-.2.49.49 0 0 0-.112-.167m-6.251-.177h-1.663a.8.8 0 0 0-.273.056.53.53 0 0 0-.185.12.48.48 0 0 0-.106.169.66.66 0 0 0-.044.2l-.011.162v2.893h.554v-1.581h1.72a.79.79 0 0 0 .279-.046.57.57 0 0 0 .2-.119.444.444 0 0 0 .111-.169.57.57 0 0 0 .034-.2v-.949a.578.578 0 0 0-.15-.364.658.658 0 0 0-.466-.172m.065 1.376a.25.25 0 0 1-.033.151.135.135 0 0 1-.094.046h-1.666v-.909a.277.277 0 0 1 .033-.154.16.16 0 0 1 .1-.064h1.526a.16.16 0 0 1 .1.064.277.277 0 0 1 .033.154zm5.3196-6.8382h.005v.006h-.005zm-.0254 2.1099.001-.005.0068.0014-.001.0049zm.1984-1.3469a.125.125 0 0 0 .042-.03c.012-.012.015-.028-.007-.044a.5.5 0 0 0-.168.057c0 .031.02.036.036.034a.64.64 0 0 0 .097-.017m-.151-3.174.008.008.009-.008-.005-.011zm-.1152 4.9173.0013-.0059.0068.0015-.0013.006zm.6042-2.0743a.1.1 0 0 0 .012-.091.053.053 0 0 0-.061-.007.1.1 0 0 0-.041.032.045.045 0 0 0 .008.063.063.063 0 0 0 .082.003m-.574-3.211a.082.082 0 0 0 .063-.042v-.072c-.063-.028-.063-.028-.107-.014a.088.088 0 0 0-.017.11.076.076 0 0 0 .061.018m.114 6.413.015.013c0-.009.008-.015.006-.019s-.009-.007-.014-.01-.008.016-.007.016m-.158-2.1a.12.12 0 0 0 .079-.1.079.079 0 0 0-.082.076.1.1 0 0 0 .003.024m.0144 1.0383.008-.0138.019.011-.008.014zm.4216-3.9723h.026l.006-.053h-.033a.039.039 0 0 0 .001.053m-.313-3.3736.005-.005.0035.0036-.005.005zm.326 1.1236.005.003-.001-.006Zm-.005.366a.077.077 0 0 0-.1.041.107.107 0 0 0 .023.124c.05.012.067.012.09 0a.117.117 0 0 0 .044-.065.08.08 0 0 0-.053-.1zm-.073 3.724c-.033.012-.033.012-.032.041.04-.002.042-.009.032-.041m-.0366-4.2316.001-.0049.0059.0012-.001.0049zm.1656 5.0926a.3.3 0 0 1 .008-.039.16.16 0 0 1 .006-.043c-.034-.043-.057 0-.084 0a.47.47 0 0 0-.092 0c-.051 0-.083.05-.127.063l-.033.068a.41.41 0 0 1 0 .178c.023.035.048.008.074.015l.025.033v.064c.037.009.042-.035.069-.038h.066l.052.047.03-.021.007-.073.048-.042v-.066c.02-.038.054-.042.084-.051l.011-.017a.1.1 0 0 0 0-.024.064.064 0 0 0-.061-.027.1.1 0 0 1-.083-.027m-.012-4.711.032.009a.2.2 0 0 0 .032-.006.072.072 0 0 0 .062-.081v-.019a.4.4 0 0 0-.021-.046.117.117 0 0 0-.1-.007.072.072 0 0 0-.044.05.2.2 0 0 0 .039.1m-.037 5.861.033.015.01-.021c-.015-.023-.027-.026-.04-.011Zm-.018 1.421c-.009 0-.015-.008-.019-.006s-.007.009-.011.015.012.008.016.007.008-.009.014-.016m.143-.854c.009.009.018.008.026-.008-.01-.013-.019-.015-.027 0zm-.159.944.013.045.035-.023c-.007-.027-.019-.035-.04-.029zm-.27-3.437.01.006.004-.01-.009-.006zm-.4134 2.3093.0048-.0036.0036.0048-.0048.0036zM9.838 13.574c.027 0 .027 0 .044-.019-.023-.023-.027-.025-.041-.017s-.017.017-.003.036m.091-1.543.01.007.003-.011-.005-.003zm.001-.706a.011.011 0 0 0-.008.014l.015.012.007-.018a.011.011 0 0 0-.014-.008m-.187.123a.168.168 0 0 0-.057.094l.016.079a.23.23 0 0 0 .049.031.5.5 0 0 0 .1.025.056.056 0 0 0 .059-.03l.013-.088a.25.25 0 0 0-.1-.113zm-.032 1.27c-.045.035-.046.039-.032.084.033 0 .045 0 .053-.023a.045.045 0 0 0-.021-.061m.549-4.712.003.004v-.007Zm-.4062 8.6518.004-.003.003.004-.004.003zm-.1174-2.1613.0018-.0036.0062.0032-.0018.0036zm.0636.2225c.013.03.033.035.072.023l-.047-.04zm-.1185-1.6565.001-.005.005.001-.0011.005zm.5125 3.2505a.049.049 0 0 0-.035.057.165.165 0 0 0 .034.1l.039.011.038-.047a.22.22 0 0 0-.009-.078.056.056 0 0 0-.067-.043m-.045-3.104-.012.017c.008.025.02.037.043.029 0-.037-.007-.049-.031-.046m.0469.6824.0032-.0024.0042.0056-.0032.0024zm.0031-1.7404.003.005.001-.009zm.085-3.795a.23.23 0 0 1 .072.051l.059.008.09-.052a.13.13 0 0 0 .012-.091.14.14 0 0 0-.1-.093.131.131 0 0 1-.112-.016.223.223 0 0 0-.062.154c.012.012.024.033.041.039M9.929 14.6a.039.039 0 0 0 .048.027.158.158 0 0 0 .113-.094c.014-.03.007-.049-.023-.078a.245.245 0 0 0-.138.145m-.001.932v.007c.009.023.013.053.048.063a.051.051 0 0 0 .039-.048.048.048 0 0 0-.028-.05.044.044 0 0 0-.059.028m.088.779.011.002.003-.011-.011-.002zm.116-3.192c-.014 0-.024.01-.021.028.032.024.032.024.06-.013a.13.13 0 0 0-.039-.015m-.1472-.173.005-.005.0035.0035-.005.005zm.0249-1.2959.0043-.0026.0026.0043-.0043.0026zm1.5033-1.1331v-.014l-.005.012v.012zm.617 4.883.026.032c.008-.046 0-.049-.026-.032m.065-2.143h.011v.012h-.011zm.061 2.035h.006v.01h-.006zm-.616.837a.055.055 0 0 0 .061.017l.007-.011c-.015-.028-.031-.031-.049-.028s-.021.006-.019.022m.672.155c.014-.044.007-.053-.038-.051-.018.04-.008.05.038.051m-.8717-8.0119.005-.0062.0047.0037-.005.0063zm.5377 2.6709c.006.025.017.03.034.022.011-.028.01-.03-.01-.04zm-.098 5.166h.02V16.1a.04.04 0 0 0-.016 0zm-.104-.794c-.035.039-.082.065-.073.128a.176.176 0 0 0 .1.1l.085-.007.059-.091a.27.27 0 0 0-.084-.13zm.832-1.6921.001-.005.005.001-.001.005zm-.0742 1.3067.001-.0049.0069.0014-.001.005zM9.781 14.736c-.026-.008-.046-.017-.068-.022a.1.1 0 0 0-.1.043.228.228 0 0 0 .052.278c.029.022.059.04.088.059a.079.079 0 0 0 .071-.025l.029-.146-.008-.112Zm2.751.064c.033.01.033.01.052-.022l-.018-.018c-.026-.005-.035.009-.034.04m-.014-6.231a.067.067 0 0 0 .079.041c.03-.03.03-.03.021-.075-.062-.027-.074-.021-.1.034m-.192 4.9599.004-.003.003.004-.004.003zm-.111-1.7569a.073.073 0 0 0-.058 0 .45.45 0 0 0-.079.186c.032.128.089.169.239.178a.26.26 0 0 0 .087-.122.144.144 0 0 0 0-.125.23.23 0 0 1-.021-.051.41.41 0 0 0-.168-.066m.146-.406.005-.003-.004-.004zm.084-2.583h.011v.013h-.011zm.045 7.381a.1.1 0 0 0-.022.01v.054c.052 0 .054 0 .07-.038a.038.038 0 0 0-.047-.026zm-1.575-4.846c.021-.02.023-.033.006-.051l-.03.007zm.692-3.052a.35.35 0 0 0-.1.027.065.065 0 0 0-.051.062.53.53 0 0 0 .01.138.186.186 0 0 0 .263.025.3.3 0 0 0 .025-.025v-.067a.153.153 0 0 0-.146-.16zm-.165 5.011v-.018l-.012.014zm.004-.019h-.001v.001zm.027.77.005-.004-.008-.001zm-.634-1.838a.188.188 0 0 0-.125.081.16.16 0 0 0 .049.145h.047v.014c.006 0 .012-.008.014-.012s.022.006.033 0a.15.15 0 0 0 .049-.188zm.725.945a.55.55 0 0 1-.115.053.12.12 0 0 0-.04.023.09.09 0 0 0-.018.03l.054.017.061-.025c.029-.011.059-.021.087-.033a.052.052 0 0 0 .036-.045c-.006 0-.012-.015-.021-.02a.039.039 0 0 0-.044 0m-.579 2.63.018.009.007-.009-.01-.013Zm.364.518c.034.019.034.019.052-.027-.016 0-.028-.008-.039 0s-.018.011-.013.027m-.051-.165.005-.0011.0017.0068-.005.0012zm-.181-.0506.0032-.0095.0057.002-.0032.0094zm.2298-3.2858.009-.008.008.009-.009.008zm.4453-.5947.001-.0059.0059.001-.001.006zm-.0397.53.0013-.007.0049.001-.0013.0069zM11.8 10.987c-.011.01-.013.022 0 .037s.042 0 .055-.031a.034.034 0 0 0-.055-.006m.011-.777a.094.094 0 0 0 .035-.05l-.035-.123c-.033-.009-.059-.044-.1-.036-.009.024-.016.048-.026.07a.116.116 0 0 0 .016.127.071.071 0 0 0 .1.022zm.074 3.419c.026.007.038 0 .041-.023-.034-.016-.034-.016-.041.023m4.8882.085.001-.0059.0059.001-.001.006zm.1458 1.877c.012.013.022.029.043.027s.019-.016.006-.032h-.018Zm-.789.352a.193.193 0 0 0 .161.11.174.174 0 0 0 .06-.138c-.018-.031-.027-.068-.068-.083a.152.152 0 0 0-.153.111m.875-2.807a.063.063 0 0 0 .033-.047.1.1 0 0 0-.083-.115h-.018a.4.4 0 0 0-.048.007.137.137 0 0 0 .008.161.15.15 0 0 0 .108-.006m-.105 1.173a.063.063 0 0 0-.02.064c.012.019.025.027.044.016.005-.059.005-.059-.024-.08m-.197 2.274.01.013.006-.009-.007-.009zm-.487-1.928a.15.15 0 0 0-.011-.027.06.06 0 0 0-.02-.016.03.03 0 0 0-.019 0 .037.037 0 0 0-.039.043c.038.039.047.045.089 0m.614-1.889-.03.034c.048 0 .049-.006.03-.034m.047 4.106s.011.008.015.007.007-.009.013-.015l-.019-.009zm-.077-1.454.01.044a.055.055 0 0 0 .06.007c.012-.037.009-.049-.015-.062s-.042-.007-.055.011m.082.157.036.016c-.008-.011-.009-.036-.036-.016m.148-.0128.001-.0059.006.001-.001.006zm-.812-3.5352a.031.031 0 0 0 .045 0 .07.07 0 0 0 0-.021l-.021-.013c-.019 0-.031.007-.024.034m.027 2.934c.012.03.026.059.039.09a.44.44 0 0 0 .111.043.1.1 0 0 0 .115-.03c.023-.023.047-.045.071-.067a.36.36 0 0 1 .017-.072c0-.011.017-.017.028-.026a.176.176 0 0 1 .038.106.24.24 0 0 1-.032.024c-.016.012-.034.021-.049.034a.071.071 0 0 0-.021.074l.03.054c-.009.011-.017.019-.023.028a.06.06 0 0 0 0 .076.06.06 0 0 0 .015.011h.05c.021.034-.015.058-.006.089a.028.028 0 0 0 .034.02h.006l.024-.051a.06.06 0 0 1 .019-.007l.118-.009a.13.13 0 0 1 .085.01.036.036 0 0 0 .043 0c.019-.02.009-.048.015-.075a.24.24 0 0 0 .039-.131.16.16 0 0 0-.025-.131l-.025-.031.025-.058a.062.062 0 0 0-.048-.042.14.14 0 0 1-.03-.015c.007-.019.012-.034.018-.048a.067.067 0 0 0-.014-.081c-.016-.017-.033-.031-.05-.048l-.018-.076h.04c.037 0 .046-.017.034-.063l-.06-.017c-.03 0-.05.018-.076 0a.74.74 0 0 1 .057-.151l-.035-.018c-.021.018-.039.034-.058.048a.037.037 0 0 1-.052 0v-.055l-.045-.012-.025-.045c-.036.007-.011.038-.035.06l-.029.016c0-.017-.008-.036-.033-.034-.029.027-.058.054-.086.083a.071.071 0 0 0-.017.092c.017.046.032.093.05.146a.9.9 0 0 1 .149.141l-.01.045c-.01-.005-.018-.007-.021-.011a.35.35 0 0 1-.066-.1c0-.01-.015-.017-.022-.025l-.049.006-.035-.018-.112.033a.24.24 0 0 0-.061.088.146.146 0 0 0-.002.13m-.069-3.686a.054.054 0 0 0-.043-.057c-.006.011-.017.02-.018.031a.061.061 0 0 0 .031.067c.026-.016.031-.024.03-.041m-.008.68a.083.083 0 0 0 .072-.006l.017-.044c-.019-.039-.041-.065-.083-.051-.038.055-.038.055-.006.101m.323 1.294h.061l.072-.006a.076.076 0 0 0 .058-.04A.2.2 0 0 0 16.7 13l-.042-.063-.09-.021-.084.02-.09.091a.6.6 0 0 1 .013.069.2.2 0 0 0 .084.153m-3.9316-5.325.001-.0059.0059.001-.001.0059zm3.9296 4.358s-.008-.01-.014-.011a.012.012 0 0 0-.015.008v.007c0 .007.008.012.018.024a.1.1 0 0 0 .011-.028m-.356 2.073-.021-.013c-.045.03-.046.035-.024.07.027-.005.044-.018.045-.057m.679-1.855c.017-.016.027-.036.009-.057s-.031-.013-.048.008c.007.041.007.041.039.049m-.213-.568h-.014v.019l.014-.009zm.126 2.368a.12.12 0 0 0 .01-.024s-.009-.01-.014-.01a.016.016 0 0 0-.016.014v.008s.011.002.02.012m.063-.164.047-.048-.013-.022-.071.027c-.002.035-.002.035.037.043m.469.722h.006v.006h-.006zm.952 1.513a.092.092 0 0 0 0-.115.108.108 0 0 0-.075-.007.047.047 0 0 0-.041.045.5.5 0 0 0 0 .057c.034.054.074.039.116.02m.24.244-.022.04c.041 0 .047 0 .044-.027zm-2.13-7.49-.003.001.003.003zm1.686 5.995c-.024 0-.046 0-.054.04.049.003.049 0 .054-.04m-1.837 1.27a.051.051 0 0 0-.015.066.04.04 0 0 0 .048.029l.015-.007a.13.13 0 0 0 .024-.023.14.14 0 0 0-.012-.04c-.016-.028-.04-.037-.06-.025M5.8058 11.4057l.0035-.0035.0035.0036-.0035.0035zM4.688 11.055l-.01-.006-.008.009.014.008Zm12.538 4.211c-.025 0-.046 0-.056.031.029.026.04.029.056.016s.011-.02 0-.047m.09-1.655a.069.069 0 0 0-.09-.009.086.086 0 0 0 .08.027zm-.01.313s-.011-.009-.015-.008a.019.019 0 0 0-.009.014.1.1 0 0 0 .02.015zm-1.172 2.649h.008v.006h-.008zm-.199-1.899v.006a.21.21 0 0 0 .142-.007c.006 0 .008-.012.017-.026a.47.47 0 0 0-.158.015zm1.552-.021c-.011-.029-.029-.042-.053-.035a.043.043 0 0 0-.033.05c.036.032.059.032.086-.015m.113-.141a.028.028 0 0 0 .046 0c.017-.017 0-.034-.024-.034s-.022.003-.022.034m.244 2.244a.061.061 0 0 0-.062-.038q-.039 0-.078.006c-.009 0-.018 0-.015.02a.8.8 0 0 0 .094.039.046.046 0 0 0 .061-.027m-.56-1.962a.041.041 0 0 0 .048.009.06.06 0 0 0 .031-.039.039.039 0 0 0-.011-.045.055.055 0 0 0-.068.025.042.042 0 0 0 0 .05m.345-.888c-.021 0-.033 0-.034.033.017.012.031.019.045-.008zm.0718.5275.0012-.0059.0049.001-.0012.006zM6.507 15.746a.1.1 0 0 0 .038-.12.083.083 0 0 0-.09-.013.4.4 0 0 0-.037.057.051.051 0 0 0 .023.065.08.08 0 0 0 .066.011m2.01-3.4084.002-.0046.0092.004-.002.0046zm.093 4.1834.01.011.011-.013-.007-.008Zm.701-5.021c.013-.01.014-.023 0-.047a.088.088 0 0 0-.067.059.073.073 0 0 0 .067-.012m-.225-1.109c-.017.012-.033.023-.048.035a.109.109 0 0 0-.025.152v.005c.009.013.022.023.03.036a.2.2 0 0 0 .132.083c.022-.03.046-.059.068-.094-.007-.056.042-.1.029-.162a.084.084 0 0 0-.069-.01zm-.551 1.187a.043.043 0 0 0-.054.029.031.031 0 0 0 .012.037.042.042 0 0 0 .059 0 .064.064 0 0 0-.017-.066m-.447 3.352a.06.06 0 0 0-.011-.015l-.015.013a.05.05 0 0 0 .018.01zm.022.325c-.017 0-.028.013-.018.036a.046.046 0 0 0 .048 0 .017.017 0 0 0 .017-.024.053.053 0 0 0-.047-.012m.0292.5832.0043-.0026.003.0052-.0042.0026zm.232-2.9087.0032-.0038.0076.0065-.0033.0038zm-.1185.591.001-.0059.006.001-.0011.006zm1.1464-.1608.001-.005.0069.0015-.001.0049zm.1079 1.1843v-.004l-.004.002zm.058-1.379-.011-.002-.003.011.011.002zm-.021 2.464a.13.13 0 0 0-.021.026c.008.009.013.02.02.021a.36.36 0 0 0 .138.011.029.029 0 0 0 .031-.029.127.127 0 0 0-.09-.038.117.117 0 0 0-.078.009m.141-.247-.021-.023a.145.145 0 0 0-.089.064l.017.028c.034-.02.078-.02.093-.069m-.16-2.785h.005l-.002-.004Zm-.253.549-.067-.081a.11.11 0 0 0-.1 0 .218.218 0 0 0-.105.094.33.33 0 0 0 .066.114.089.089 0 0 0 .094.039.149.149 0 0 0 .112-.166m.084 1.527-.017.009-.026.012c-.012-.022-.022-.043-.034-.061a.039.039 0 0 0-.055-.013.04.04 0 0 0-.013.013c-.011.016-.017.036-.028.053a.1.1 0 0 0 0 .109.26.26 0 0 0 .04.048h.047a.313.313 0 0 0 .133.111c.046 0 .052-.041.07-.07v-.07a.139.139 0 0 0-.117-.141m.201-.811a.065.065 0 0 0-.018-.09.08.08 0 0 0-.025-.01.048.048 0 0 0-.048.019.076.076 0 0 0 .008.07.051.051 0 0 0 .067.024.07.07 0 0 0 .016-.013m-.1407 1.5769.0008-.008.005.0005-.0008.008zm6.5267-3.9579s-.009-.007-.015-.01-.008.011-.007.016.009.007.016.013zm-7.837 4.9a.4.4 0 0 0-.041.04.116.116 0 0 0 .07.11l.039-.011a.09.09 0 0 0 .026-.02.08.08 0 0 0 .023-.031.086.086 0 0 0-.029-.091.069.069 0 0 0-.088.003m1.313-4.167L9.4 12.2l-.006.009.01.014ZM5.809 16.3a.051.051 0 0 0 .038.059.04.04 0 0 0 .032-.041.036.036 0 0 0-.009-.024c-.014-.023-.032-.021-.061.006m.521-.519a.024.024 0 0 0-.03.019v.006c0 .015-.007.032.012.041.031-.021.031-.021.018-.066m3.426-.097.029-.006-.007-.033c-.038.01-.043.021-.022.039m-3.256.193v-.006a.021.021 0 0 0 .01-.014l-.01-.011-.011.01a.106.106 0 0 0-.06-.08.046.046 0 0 0-.053.016.28.28 0 0 0-.037.071.081.081 0 0 0 .022.082.5.5 0 0 0 .063.055.052.052 0 0 0 .054-.031.17.17 0 0 0 .022-.092m-1.265.6522.0057-.0057.0043.0042-.0057.0057zm10.661-1.8512-.004.003.004.006zM5.19 15.717a.011.011 0 0 0 .013.011h.006l.008-.017c-.008 0-.014-.007-.019-.006a.016.016 0 0 0-.008.012m.2496.899.0036-.006.0051.003-.0035.006zm.022-.2238.004-.003.003.004-.004.003zm2.4794-.1712.011.012.009-.011-.013-.01Zm-1.485.016.03.033a.41.41 0 0 0 .1-.134c-.048.011-.069.06-.109.081a.07.07 0 0 0-.021.02m.955-.182a.16.16 0 0 0 0 .031l.034-.006c0-.026 0-.037-.021-.037a.04.04 0 0 0-.013.012m.378.787.01.007.008-.008-.006-.011Zm.126-2.942c-.019-.037-.024-.042-.04-.045a.038.038 0 0 0-.042.024.035.035 0 0 0 .023.043.043.043 0 0 0 .059-.022m-.078 2.61a.1.1 0 0 0-.14 0l-.041.032c-.021.056-.041.108 0 .16l.052.038c.015.034.025.076.086.073l.113-.119a.064.064 0 0 0 .013-.058l-.02-.081c-.025-.014-.044-.03-.063-.045m-.5547.3067.0057-.002.0025.0077-.0057.0019zm-.3193-.1497c0 .007.011.007.016.012l.009.011c.007 0 .012.012.02.015a.047.047 0 0 0 .062-.023.059.059 0 0 0 0-.052.082.082 0 0 0-.08-.006.047.047 0 0 0-.027.043m-.083-.106a.06.06 0 0 0 .019 0v-.01l-.008-.008a.05.05 0 0 1-.011.018m.272-.261h.028v-.033c0-.009-.019-.013-.029-.019-.012.022-.012.022.001.052m-.26-.245a.028.028 0 0 0 .039.006l.006-.006a.028.028 0 0 0 .006-.036.027.027 0 0 0-.032-.019.04.04 0 0 0-.019.055m-.108-.255c-.03.065-.028.078.017.112a.058.058 0 0 0 .048-.1.069.069 0 0 0-.065-.012m.36.734h.008v.006h-.008zm-.268.211.01.005.003-.01-.01-.005Zm2.68-6.09a.335.335 0 0 0 .1.124.33.33 0 0 1 .075.059c.029.031.057.064.086.1.045.018.078-.023.123-.024a.144.144 0 0 0 .148.058.089.089 0 0 0 .042-.085.15.15 0 0 0-.053-.108h-.1c-.04-.017-.024-.059-.047-.087s-.052 0-.081-.014l-.006-.018a.116.116 0 0 0-.067-.117.9.9 0 0 0-.1-.045l-.016-.007v-.051c-.04-.011-.04-.011-.059.022l.032.054-.047.052zm.3155-.6259.0024-.0044.0087.0048-.0024.0044zM10.041 8.2a.1.1 0 0 0 .126-.063v-.014c0-.022.006-.045.007-.067-.017-.057-.068-.063-.1-.1l-.121.1c.006.02.01.04.017.059a.118.118 0 0 0 .071.085m.639.043a.2.2 0 0 0-.032-.013.2.2 0 0 0-.034 0c-.029.02-.052.037-.056.071.011.036.026.071.068.073s.064-.023.075-.064a.14.14 0 0 0-.008-.032c-.003-.011-.009-.023-.013-.035m-.511 1.532a.114.114 0 0 0 .073-.024.068.068 0 0 0 0-.095v-.005a.08.08 0 0 0-.055-.03l-.059.025a.1.1 0 0 0 .041.129m-1.567.1511.0026-.0043.0051.0031-.0025.0043zm.117 1.5779-.015-.008-.006.01.013.011ZM9.2 9.986l-.045.026-.034.08a.133.133 0 0 0 .149.1l.06.079c.038.011.068.041.11.03l.021-.023h.042l.032-.041.02-.088c-.022-.018 0-.046-.012-.065s-.03-.013-.081-.007a.29.29 0 0 1-.044-.083l.012-.064c-.02-.008-.038-.017-.056-.023a.081.081 0 0 0-.1.027.23.23 0 0 1-.074.052m-.662 1.789a.06.06 0 0 0 .045.046.17.17 0 0 1 .056.007.134.134 0 0 0 0-.084.073.073 0 0 0-.059-.03.045.045 0 0 0-.045.045zm.299-1.226a.037.037 0 0 0-.032-.031.05.05 0 0 0-.043.042c0 .027.019.042.044.043a.048.048 0 0 0 .031-.054m-.232.538-.009-.007-.007.007.009.007Zm.672-2.152V8.93a.13.13 0 0 0 .023-.05.43.43 0 0 0 0-.072l-.03-.053a.24.24 0 0 0-.007-.145.34.34 0 0 0-.149.008.53.53 0 0 0-.039.136 1.3 1.3 0 0 1-.056.132.14.14 0 0 0 .109.1.113.113 0 0 0 .149-.051m-.139.578c-.02.023-.02.023 0 .046a.023.023 0 0 0 0-.046m-.2598 3.656.0043-.0043.0056.0057-.0043.0042zm-.0306-1.418.004-.003.0042.0056-.004.003zM9 9.805S8.99 9.8 8.986 9.8l-.011.016.017.007S9 9.809 9 9.805m2.1701-.5958.006-.0036.0026.0043-.006.0036zM11.2 8.072a.7.7 0 0 0 .128.032l.007-.014a.14.14 0 0 0-.032-.022c-.035-.013-.065-.042-.105-.041l-.012.007a.025.025 0 0 0 0 .034zM8.5245 9.9008l.001-.005.0068.0014-.001.005ZM12.377 8.223h.107c.008-.018.015-.034.023-.05s.018-.03.026-.043c-.012-.1-.015-.1-.054-.143l-.111-.008-.053.042a.4.4 0 0 1-.011.059.115.115 0 0 0 .073.143m-.128-.445-.047.011a.1.1 0 0 0-.01.083.073.073 0 0 0 .063.034.066.066 0 0 0 .054-.045.058.058 0 0 0-.06-.083m-1.324.17-.009-.007-.007.008.009.007zm-.217.552-.023.078.011.063c.066.055.082.055.168 0a.3.3 0 0 1 .012-.043.3.3 0 0 1 .026-.044.45.45 0 0 0-.08-.083.28.28 0 0 0-.107.015zm.179.688.019.065a.3.3 0 0 0 .041.019.085.085 0 0 0 .113-.041.062.062 0 0 0 0-.081.1.1 0 0 0-.119-.04c-.017.025-.051.038-.054.078m.002-.253h.055a.084.084 0 0 0 .084-.086V8.82c0-.02.033-.025.017-.052h-.051a.1.1 0 1 0-.105.167m.26.4236.001-.005.0069.0014-.001.005zm-.0027-1.6157.0036-.0093.0047.0018-.0036.0094zm-.1273 6.0231a.071.071 0 0 0 .035.094.08.08 0 0 0 .022.006.091.091 0 0 0 .08-.011.112.112 0 0 0-.023-.111.133.133 0 0 0-.1 0zm.072-5.482h-.011l-.006.01.014.008zM11 13.223l-.013.052a.086.086 0 0 0 .038.053.054.054 0 0 0 .072-.008.061.061 0 0 0 .015-.073.093.093 0 0 0-.053-.04.047.047 0 0 0-.059.016M5.905 16.13a.1.1 0 0 0-.006-.095.063.063 0 0 0-.061-.035l-.044.026a.069.069 0 0 0-.023.094c.028.047.067.057.1.034zm2.544-5.442.085-.007a.035.035 0 0 0 0-.047l-.005-.016.045-.032-.06-.066c-.041 0-.081-.017-.119.016l-.018.057.022.074zM6.344 15.1a.17.17 0 0 1 .066.043.081.081 0 0 0 .064.024c.028-.012.057-.027.061-.065s-.036-.049-.052-.073a.079.079 0 0 0-.027-.075l-.056-.016-.038.023h-.043l-.057.047a.1.1 0 0 0 .01.034.13.13 0 0 0 .072.058m-.1016 1.0919.004-.0029.0041.0057-.004.0029zm-.0004-.2379-.024-.034c-.018.012-.025.023-.014.04h.011zm.7839-2.3323.0012-.0049.0048.0012-.0012.005zM6.186 16.49v-.006a.06.06 0 0 0-.017-.009c0 .007-.011.013-.006.017a.017.017 0 0 0 .014.009.011.011 0 0 0 .009-.011m.33-1.715c-.017-.029-.021-.033-.037-.032a.029.029 0 0 0-.029.029.032.032 0 0 0 .029.031.036.036 0 0 0 .037-.028m.609.016.059.007v-.04c-.038-.008-.038-.008-.054.01Zm-.461.293a.425.425 0 0 1-.085.173.8.8 0 0 0-.038.076l-.027.028a.21.21 0 0 0 0 .1.059.059 0 0 0 .058.049.055.055 0 0 0 .05-.046v-.009a.19.19 0 0 1 .05-.12c.01-.044.017-.08.028-.114a.152.152 0 0 1 .056-.086c.056-.039.054-.042.1-.039a.085.085 0 0 0-.033.091c.029.031.029.032.049.034A.185.185 0 0 0 7 15.212h.025l.067.048.03.046a.21.21 0 0 0 .129.011.093.093 0 0 0 .065-.027.13.13 0 0 1 .055-.035.37.37 0 0 0 .13-.077c.053-.043.057-.081.024-.152a.125.125 0 0 0-.109-.019c-.024.013-.043.045-.088.031L7.288 15a.076.076 0 0 0-.1-.01.43.43 0 0 0 .013-.08.108.108 0 0 0-.052-.1c-.008.015-.018.025-.019.037a.5.5 0 0 0 0 .054.2.2 0 0 1-.007.023l-.052.017-.035-.012-.027-.011c-.009-.02-.015-.035-.023-.049a.061.061 0 0 0-.079-.035l-.016.009a.5.5 0 0 0-.035.028l-.068-.01-.063.048a.223.223 0 0 1-.041.117.1.1 0 0 0-.02.058m.311.047a.106.106 0 0 1-.059-.024.107.107 0 0 0 .059.024m-.357-1.101.079-.049a.139.139 0 0 0-.222-.159.12.12 0 0 0 0 .037c.008.033.019.066.03.1a.15.15 0 0 0 .113.071m-1.085.798a.084.084 0 0 0 .058-.094.18.18 0 0 0-.023-.082.226.226 0 0 0-.148-.031c-.034.034-.08.055-.086.119l.037.047a.128.128 0 0 0 .162.041m1.6028-.1058.0023-.0045.008.004-.0022.0045zm-2.0568.8408a.42.42 0 0 0 .138.042l.1-.049a.52.52 0 0 0 .049-.122.06.06 0 0 0 0-.026 1.1 1.1 0 0 0-.013-.12l-.085-.069-.056-.019a.093.093 0 0 0-.083 0 .209.209 0 0 0-.107.176.06.06 0 0 0 0 .027c.011.042.022.083.035.125a.2.2 0 0 0 .022.035m-1.9986 2.1072a.526.526 0 0 0 .271.074h16.929a.536.536 0 0 0 .465-.8l-8.3-14.634a.535.535 0 0 0-.926-.008l-5.29 8.971h-.006v.01l-3.333 5.655a.534.534 0 0 0 .19.732m1.427-1.657 2.608-4.425.406-.689.025-.041h.035a.082.082 0 0 0 .022-.09l2.026-3.442v.014c.008.009.022 0 .032.012a.14.14 0 0 0 .1.038.43.43 0 0 0 .057.056.054.054 0 0 0 .072 0 .079.079 0 0 0 .013-.088.053.053 0 0 0-.058-.035.36.36 0 0 0-.056.017l.01-.057a.107.107 0 0 0-.1-.078l1.806-3.063a.535.535 0 0 1 .926.008l3.392 5.988-.1.011a.54.54 0 0 0-.054.145.32.32 0 0 0 .167.114c.014-.011.023-.022.034-.029s.028-.012.042-.019l.028-.017.282.5v-.005l.912 1.608a.055.055 0 0 0-.059.016c-.015.021-.011.041.015.071a.11.11 0 0 0 .08-.023l.192.339a.03.03 0 0 0-.023.007c.011.008.016.014.021.015a.06.06 0 0 0 .013 0l1.787 3.152a.534.534 0 0 1-.2.727.523.523 0 0 1-.259.069h-2.567l.006-.007c-.02-.033-.02-.036-.038-.036s-.022.007-.034.011c0 .022.022.026.037.032h-8.961a.18.18 0 0 0 .087-.047c-.048-.032-.086-.066-.137-.051l-.01.011a.053.053 0 0 0 0 .069.055.055 0 0 0 .06.018h-2.176a.535.535 0 0 1-.535-.536.53.53 0 0 1 .074-.27m1.0145-1.6177.004-.003.0036.0048-.004.003zM4.772 16.382l-.004.003.004.006Zm7.797-8.187v-.009l-.005.003zm-6.933 7.531-.008-.006-.003.009.01.002zm.521 1.056a.067.067 0 0 0-.08.021.1.1 0 0 0-.008.108l.067-.01a.1.1 0 0 0 .021-.119m-.372-1.45a.3.3 0 0 0 .045.018.04.04 0 0 0 .052-.025.11.11 0 0 0 .006-.036l-.026-.032.03-.039a.065.065 0 0 0-.03-.061.047.047 0 0 0-.067.011.045.045 0 0 0-.007.042c0 .014.013.028.019.041-.015.025-.051.04-.022.081m-.129-.538-.005.003.003.005zm.6114-.4105.0026-.0065.0047.002-.0026.0064zM7.826 10.855a.17.17 0 0 0-.061-.072c-.025-.016-.045 0-.055.034a.166.166 0 0 0 .105.064zm.251.255a.213.213 0 0 0 .057-.123c-.006-.039-.034-.057-.053-.081l-.072-.006a.18.18 0 0 0-.072.076l.039.139a.16.16 0 0 0 .101-.005m-.327-.047a.018.018 0 0 0-.008.015.011.011 0 0 0 .013.011h.007l.007-.018c-.008-.005-.013-.01-.019-.008m.377-.617c-.012-.075-.023-.092-.1-.149l-.038.041a.1.1 0 0 0-.015.022.078.078 0 0 0-.008.065.094.094 0 0 0 .1.065.053.053 0 0 0 .061-.044m-.453 2.581h.005v.005h-.005zm.115-1.393c-.023.013-.026.027-.016.045.027-.004.027-.004.016-.045m.597-.688a.24.24 0 0 1 .032.024l.071-.02a.163.163 0 0 0 .052-.107.34.34 0 0 0-.035-.049.086.086 0 0 0-.122-.007.07.07 0 0 0-.015.018.4.4 0 0 0-.034.094.17.17 0 0 0 .01.039.2.2 0 0 1 .041.008m-.09.062-.003.004.005.001zm-.1882-.7813.001-.0049.0068.0013-.001.005zm.0542.6153a.053.053 0 0 0 .07.026l.009-.005c0-.059-.014-.067-.066-.061zm-.08-.142.024.005.014-.033.08-.034a.1.1 0 0 0 0-.117l-.044-.027a.083.083 0 0 0-.069.031.8.8 0 0 0-.005.175m-.532 4.994.015-.051-.065-.093a.1.1 0 0 1-.02-.09.064.064 0 0 1 .008-.036c-.065-.045-.123-.091-.2-.06-.033.048 0 .109-.036.154l-.048.033.007.026c.02.01.031 0 .043-.012a.048.048 0 0 1 .064-.01.4.4 0 0 1 .059.135.07.07 0 0 0 .014.03.18.18 0 0 1 .03.069.28.28 0 0 0 .03.068c.009.016.021.03.03.043a.37.37 0 0 0 .032.2l.043.036c-.006.01-.008.02-.014.025a.088.088 0 0 0-.031.051.092.092 0 0 0 .045.123.08.08 0 0 0 .036.009.3.3 0 0 0 .06 0 .4.4 0 0 0 .021-.044c.006-.017.01-.035.014-.049-.009-.032-.016-.061-.026-.089s-.023-.054-.035-.082l.017-.063-.015-.078-.063-.074.017-.071Zm.194-2.134a.133.133 0 0 1 .064.034l.012.005.058.009.052-.015.1-.091a.082.082 0 0 0 .027-.086.25.25 0 0 1-.008-.06.083.083 0 0 1 .043-.089.3.3 0 0 0 .046-.026.13.13 0 0 0 .022-.025l-.027-.035.024-.054a.105.105 0 0 0-.109-.017l-.061-.01a.34.34 0 0 1-.052.022.35.35 0 0 1-.055.008.3.3 0 0 1 0 .042.1.1 0 0 1-.011.029c-.016 0-.033.006-.051.007a.134.134 0 0 0-.12.08c-.008.015-.019.03-.03.047v.032c0 .027-.025.05-.014.079s.025.048.035.073a.072.072 0 0 0 .055.041m-.368.145a.1.1 0 0 0 .036-.071c-.022-.106-.068-.117-.148-.115-.019.034-.049.065-.044.106l.066.092zm-.262-1.95-.021.038c.027.012.039.008.045-.015zm-.145.914a.45.45 0 0 0 .146.016l.074-.066a.33.33 0 0 0 .009-.206c-.015-.026-.033-.058-.053-.088s-.038-.036-.08-.022a.07.07 0 0 0 .006.058h-.046c-.029.016-.053.028-.075.042a.06.06 0 0 0-.028.027.42.42 0 0 0-.035.144.067.067 0 0 0 .027.06zm.3594-.5306.0051-.003.0026.0042-.0051.0031zM7.287 14.455a.1.1 0 0 0 .078.073.107.107 0 0 0 .062-.1.094.094 0 0 0-.046-.054c-.039.013-.081.015-.094.081m.344-2.152-.01-.007-.002.011.01.001zm-.4982 2.3209.0037-.0093.0046.0019-.0037.0093zm.2112-2.1119.011-.013-.008-.008-.013.01Zm.223.045-.006-.008-.011.01.009.006zm-.033.401-.007-.002.003.005ZM5.992 15.74c.024.01.041.023.065.014-.02-.024-.02-.024-.065-.014m8.036-4.748c-.032.006-.042.012-.043.03s.01.03.048.037c.017-.027.017-.048-.005-.067m.11 5.608c-.034-.067.006-.129 0-.189-.031-.057-.094-.053-.136-.09l-.157.077a.36.36 0 0 1-.032.108c-.049 0-.071.058-.117.068l-.028.059.037.1.069.064a.148.148 0 0 0 .108-.064c.009-.034-.017-.075.031-.095l.041.028-.022.052.058.133c.053 0 .1.038.154.014l.078-.091c.014-.062-.037-.1-.047-.141zm.118-1.161a.16.16 0 0 0-.033.08l.054.071c.043.024.078 0 .117 0a.1.1 0 0 0 .018-.106.1.1 0 0 0-.08-.078zm-.073-.348c-.022.014-.022.025-.01.038s.029 0 .034-.02zm.017.62a.06.06 0 0 0 0 .019.048.048 0 0 0 .058.036.056.056 0 0 0 .026-.017.27.27 0 0 0 .031-.044c-.028-.036-.028-.036-.061-.05a.075.075 0 0 0-.054.056m-.576-5.433.0052-.003.0031.0051-.0052.0031zm.076.49v.017h.015v-.017zm.056 2.82c.047.006.047.006.065-.035l.008-.009.031.016.027-.049c.019 0 .036.021.06.005l.02-.047a.1.1 0 0 0 .054-.081c.015-.025.042-.035.043-.068l-.026-.049-.007-.06-.037-.035.029-.135-.039-.013a.077.077 0 0 1-.1.036l-.09-.051-.028-.1a.148.148 0 0 0-.113-.038l-.069.043a.167.167 0 0 0-.023.109l-.04.033c0 .037.035.055.05.088l-.069.106.059.036.029.073a.126.126 0 0 0 .022.126l.072-.012zm-.0392-1.8286.0067-.0087.0047.0037-.0068.0087zm.1952-2.5704.035-.034c-.047 0-.047 0-.035.034m-.0102.4164.004-.001.0016.0069-.0039.001zm.6542 5.3216.009.014c.021 0 .027-.01.022-.027s-.021-.014-.031 0 0 .009 0 .013m.086-3.807a.07.07 0 0 0-.029 0l-.007.015c.005.005.014.011.019.01s.009-.013.017-.025m.226.58-.036.031c-.093-.048-.109-.047-.2.016a.077.077 0 0 0 .008.089c.013.019.024.038.039.062a.8.8 0 0 1 .087.016.061.061 0 0 0 .075-.043v-.005c.01-.027.016-.056.024-.084.018-.012.052 0 .052-.044-.008-.013-.017-.038-.049-.038m-.19-.045c-.023-.015-.04-.007-.065.009.024.018.042.026.067.014zm-.378 3.4v-.041c-.024-.019-.044-.024-.064-.006a.08.08 0 0 0-.012.02l.03.044zm.2348-3.2885.0042-.0056.004.003-.0042.0056zm-.062 4.4456.004-.001.0018.0068-.004.001zm.3152-5.0501-.009.006.006.01.009-.006zm-.351.576.001-.005-.005.001zm.01-1.444h.011l.006-.011h-.016zm-.003.406-.036.045c0 .055.037.062.076.066l.049-.036a.058.058 0 0 0-.011-.06.073.073 0 0 0-.078-.015m.0157-.348.0019-.0046.0065.0026-.002.0046zm-1.5037.886c0 .006.011.01.019.018l.006-.022a.04.04 0 0 0-.018-.011zm-.006-.155.013.007v-.016l-.007-.006zm.0737-.8182.0056-.0042.0036.0048-.0056.0042zm.0663 3.4902h.048l-.006-.039c-.032.005-.032.005-.042.039m.022-1.511.004.001-.001-.004zm-.429.087.005-.004-.008-.001zm.398.586a.138.138 0 0 0-.1.01.055.055 0 0 0-.036.068v.006l.048.042.077.009a.1.1 0 0 0 .045-.086zm-.275 1.997h.034v-.037c-.023-.009-.035 0-.039.016a.037.037 0 0 0 .005.021m.399-2.259a.07.07 0 0 0 .021 0l.006-.01s-.01-.008-.015-.007zm-.281 2.259a.083.083 0 0 0 .05.052.063.063 0 0 0 .062-.056.081.081 0 0 0-.043-.084c-.051.007-.06.019-.069.088m.132-1.491a.045.045 0 0 0-.044.034c.044-.002.044-.002.044-.034m.218-2.988a.037.037 0 0 0 .024-.043.034.034 0 0 0-.036-.025.051.051 0 0 0-.045.033c.02.033.033.041.057.035m.0906-.4877.0049-.001.0013.007-.005.0009zm-.1245.0115.0057-.004.003.004-.0058.0041zm.2499 3.6942c.021.006.034 0 .038-.029-.03-.026-.038-.028-.051-.015a.031.031 0 0 0 .013.044m-.073-3.1885.0012-.006.0059.0013-.0012.0059zm-.032.9895.004-.003-.003-.005Zm-.046 3.086.019.008.007-.009-.011-.013zm-.275-4.1982.0018-.0068.0048.0012-.0017.0068zm.2058 4.232.004-.003.0042.0055-.004.003zm.0862-3.0188c-.019 0-.029 0-.026.022.026.006.026.006.031-.018zm.215-.686a.27.27 0 0 0-.027-.16.24.24 0 0 0-.087-.1c-.032-.022-.067-.037-.1-.056-.061 0-.073.013-.09.067a.29.29 0 0 0-.011.172c-.005.047-.01.086-.015.124 0 .013-.006.026-.01.039a.147.147 0 0 1-.076.086c-.018.086.011.123.1.122a.2.2 0 0 0 .024-.035.7.7 0 0 0 .034-.081.086.086 0 0 1 .057-.057.175.175 0 0 0 .2-.082.25.25 0 0 1 .001-.039m-.517.417c.061.064.1.068.184.02v-.084a.1.1 0 0 0-.121-.022c-.036.017-.067.035-.063.086m2.059-.4051.002-.0057.0056.0019-.0019.0057zM13.627 8c.043.007.052 0 .051-.051-.035-.01-.036-.009-.051.051m.054.398h.005v.005h-.005zm-.1584-.638.001-.005.0049.001-.001.005zm-.3067.7682.0051-.0032.0042.0068-.005.0031zm1.5291.2178-.016-.015-.022.04h.015a.021.021 0 0 0 .023-.025m.16.99.018-.071c-.029-.021-.047 0-.065.013a.04.04 0 0 0-.018.052v.006a.047.047 0 0 0 .065 0m-.936-.07.031.077.087.093h.076l.042.016a.336.336 0 0 1-.025.169l.015.035a.33.33 0 0 1 .054-.025.14.14 0 0 1 .046-.005.09.09 0 0 1 .008.028.05.05 0 0 1-.013.023.044.044 0 0 1-.05.007c-.016-.008-.03-.019-.045-.028l-.089.01-.053.055c.008.055-.015.108.013.162l.068.056.089.011a.053.053 0 0 0 .062-.04.255.255 0 0 1 .078-.1.2.2 0 0 0 .145.009l.08.136.063.009.017.043.039-.041.052.021a.056.056 0 0 0 .071-.017l.06-.073.009-.019v-.052l.026-.043-.051-.076c-.036-.05-.088-.035-.13-.059l-.07-.111c-.021-.017-.051 0-.086-.011l-.054-.049.016-.056a.19.19 0 0 1-.124-.084c-.034-.01-.044.024-.069.028-.042 0-.067-.028-.1-.048l-.012-.071H14.2l-.033-.03c-.051 0-.1-.042-.155-.015zm-.075-1.661-.019.019v.007a.445.445 0 0 0 .172.1 1.4 1.4 0 0 0-.153-.126M14.9 9.021c-.009.01-.017.015-.019.022a.024.024 0 0 0 0 .021c.025-.009.031-.016.019-.043m-.385-.166c-.009 0-.016-.008-.02-.007s-.006.01-.009.015.011.009.016.008.007-.008.013-.016m-1.708 1.885-.018-.03c-.053.012-.055.014-.046.056a.062.062 0 0 0 .064-.026m-.0165.7845.004-.0091.0046.002-.004.0091zm2.2305 4.6865.026-.047h-.036Zm-2.132-2.371a.111.111 0 0 0 .145-.031.084.084 0 0 0-.034-.089c-.054 0-.055 0-.092.048-.006-.07-.052-.09-.113-.1a.175.175 0 0 0-.082.034.18.18 0 0 0 0 .107.079.079 0 0 0 .094.059.5.5 0 0 0 .082-.028m-.0141-3.946.004-.003.003.004-.004.003zm.0381-.315a.183.183 0 0 0-.015-.141h-.025a.274.274 0 0 0 .026.135zm.095-1.039-.009-.005-.007.01.01.005zm.048.651.061.017.016.073a.2.2 0 0 0 .107.044c0 .009.008.013.008.017a.84.84 0 0 0 .064.15c0 .013.022.022.034.033l.065-.024.026.036.048.012a.143.143 0 0 0 .1 0 .13.13 0 0 1 .04 0l.055.028c.032-.017.013-.05.03-.069s.073-.031.093-.068l.1.01c-.006-.03-.03-.031-.045-.042a.071.071 0 0 1-.032-.053l.057-.164-.054-.136h-.042l-.03-.045v-.061l-.039-.049c-.007-.045.018-.091-.019-.127-.045-.012-.062.029-.091.042l-.02.052a.072.072 0 0 1-.1-.031V8.83a.15.15 0 0 0-.05-.055.2.2 0 0 1-.03-.027c-.044-.041-.067-.043-.125 0l-.015.074a.045.045 0 0 1-.058-.022.27.27 0 0 1-.03-.037.57.57 0 0 0-.108-.1c-.035.016-.044.031-.031.055a.2.2 0 0 0 .028.038l.059.076a.089.089 0 0 1-.026.074.106.106 0 0 0-.038.1.07.07 0 0 1 0 .021.035.035 0 0 1-.031.037c-.038 0-.063-.048-.106-.03l-.006.022A.5.5 0 0 1 13 9.11a.6.6 0 0 1 .056.081m.142-.907-.009-.007-.006.015h.011zm-.4678 4.775.003-.0086.0113.004-.003.0085zm2.5475-1.3069.0048-.0036.0036.0048-.0048.0036zm.3783 3.2329.022.017c.024-.006.037-.015.031-.04s-.022-.019-.034-.009a.09.09 0 0 0-.019.032m-.1-.285c.019.017.032 0 .039 0-.014-.008-.028-.016-.039 0m-.056-2.52c.016.009.027.024.041 0s-.007-.025-.031-.025zm.111-.232-.043-.107c-.079-.04-.137-.008-.189.1l.037.056h-.028a.4.4 0 0 0-.066-.01c-.039 0-.056.018-.057.058s0 .068 0 .1c.034.03.05.077.1.079l.091-.078.022-.091a.176.176 0 0 0 .094-.045c.016-.02.038-.03.039-.062m-.338.938c-.034.008-.046.037-.062.077.05-.008.066-.016.077-.041a.026.026 0 0 0-.01-.034zm.1909 1.8148.004-.003.0043.0055-.004.003zm-.1519-1.4638a.12.12 0 0 0 0 .038c.069-.02.08-.046.044-.1-.033.032-.039.039-.044.062m.064 1.705.003-.003-.004-.001zm.033 1.389.014.01c.006 0 .01-.01.019-.02-.012 0-.019-.007-.023 0a.02.02 0 0 0-.01.01m.04-3.08a.07.07 0 0 0-.02 0l.008.039h.034c0-.023 0-.036-.022-.039m-.1468-2.382.0012-.006.005.001-.0013.006zm-.0812-.135v-.008a.075.075 0 0 0 .007-.071l-.066-.042c-.051.014-.064.055-.088.1.025.016.043.03.062.041a.059.059 0 0 0 .085-.02m-.047.973a.25.25 0 0 0 .151-.017l.14.073c.06-.032.126 0 .191-.006a.33.33 0 0 0 .055-.062.185.185 0 0 1 .089-.095.139.139 0 0 1 .021-.117l.059-.017v-.036c-.019-.023-.039-.016-.059-.014a.04.04 0 0 1-.045-.029.47.47 0 0 1 .045-.13l-.02-.015-.032.019-.069-.04a.3.3 0 0 0 0-.041c0-.016-.011-.024-.03-.023s-.051.059-.1.035l-.046-.059-.042.033-.052-.028a.35.35 0 0 0-.116.086l-.073-.018a.091.091 0 0 0-.029.1.156.156 0 0 1 0 .1c-.03.034-.054.06-.077.088a.1.1 0 0 1-.08.04h-.037l-.065.069a.15.15 0 0 0 0 .03.6.6 0 0 0 .009.065.152.152 0 0 0 .212.009m.16-1.407c-.047 0-.055.006-.052.043.039.004.041.003.052-.043m-2.665.524a.032.032 0 0 1 .024.009.079.079 0 0 0 0-.081.048.048 0 0 0-.056.034.4.4 0 0 0 .032.038m3.1374.067.0044-.0025.0034.006-.0044.0026zm-.1254 3.787a.029.029 0 0 0-.034.023c.025.024.052.011.077.009a.2.2 0 0 0 .107-.025c-.008-.009-.011-.015-.016-.018-.047-.026-.088.016-.134.011m-.766 1.653s.011.009.015.008.008-.009.013-.016-.015-.008-.019-.007-.006.01-.009.015m.826-4.155-.006.009.009.007.008-.007zm.087 1.986-.019-.007a.018.018 0 0 0-.008.015.017.017 0 0 0 .014.009c.005 0 .007-.009.013-.017m.0012-2.008.0012-.0049.0039.001-.0012.0048zM8.985 13.843c-.006 0-.015 0-.015.012m.491 1.9c-.023-.02-.023-.02-.057 0m7.515-.164h-.001m.418-2.106c.01-.025.022-.022.037-.014m-.103 3.117c-.015.013-.015.013-.034 0m-1.035-5.628v.009m-2.253.676c0 .029 0 .029-.03.026m.11-2.508c-.01.022-.023.025-.039.016m-.177.342-.012.014v.02m.273 1.145c-.026.016-.026.016-.008.039m-.409-.339c-.034-.006-.034-.006-.029-.037m-.014.555c-.021-.008-.024-.018-.011-.036m2.017 3.818c-.008-.013-.012 0-.024 0m-.318-.325c-.016.023-.016.023-.038.007M4.6 12.016c.013-.017.021-.005.033 0m.523 4.484c.018.019.018.019 0 .037m3.051-3.332a.049.049 0 0 0 .062-.009m-.482-.389c0 .026 0 .026-.025.023m3.315 1.107c-.01.017-.021.008-.033 0m-1.075-1.328.01-.041m-.112 1.451c-.029-.012-.029-.012-.041.013m.737 1.388c-.017.009-.029.014-.04 0m2.975-.123-.034.006m1.199-5.584c.023-.021.023-.021.037 0m-2.429 6.241c-.007.021-.016.026-.031.018m-5.263-.844a.107.107 0 0 1-.057-.021.106.106 0 0 0 .057.021m7.313-5.057a.05.05 0 0 0 .013-.023.09.09 0 0 0-.008-.028.14.14 0 0 0-.046.005.33.33 0 0 0-.054.025c.015.009.029.02.045.028a.044.044 0 0 0 .05-.007m3.2964 11.5412h.337v.265h-.337zM12.032 6.4l.012.015.008-.019-.008-.007a.03.03 0 0 0-.012.011m.516-.053.004-.003.003.004-.004.003zm-.398.838a.035.035 0 0 0 .008-.048c-.03 0-.032 0-.039.013s-.033.052-.048.078v.012h.012a.6.6 0 0 0 .067-.055m-.398.318.01.005.002-.01-.009-.005zM11.748 6a.1.1 0 0 0-.063.073c0 .057.01.112.08.125.049-.007.073-.045.1-.084a.3.3 0 0 0 0-.041.062.062 0 0 0-.056-.065.4.4 0 0 0-.061-.008m-.254.268c-.01.034-.009.035.035.03zm.517 1.173-.055-.067-.078.017-.016.032c.015.071.015.071.06.1.069-.007.078-.015.089-.082m-.597-.668c0 .014 0 .027.018.033a.182.182 0 0 0 .1-.127l-.022-.019a.52.52 0 0 0-.087.095.06.06 0 0 0-.009.018m.403-.36a.6.6 0 0 0-.043.062.128.128 0 0 0 .126.125.12.12 0 0 0 .027 0 .16.16 0 0 0 .049-.107.157.157 0 0 0-.09-.1.055.055 0 0 0-.069.02M4.2202 4.3017l.0051-.0032.0042.0068-.005.0032zm10.2965.1127.0061-.008.004.0031-.006.008zm-.3067.0286h.005v.006h-.005ZM9.975 7.562c-.011.007-.012.017 0 .028s.02-.009.017-.022zm-.0802-.583.0043-.0026.0035.006-.0042.0025zm.9052.283-.015-.016a.12.12 0 0 0-.027.017.34.34 0 0 0-.053.1c.079-.049.082-.052.095-.101m-.135.1375.01-.0138.0057.004-.01.0139zm-.439-.7315a.26.26 0 0 1 .069.1.092.092 0 0 0 .07.028.1.1 0 0 1 .068.022.138.138 0 0 0 .151.009l.072-.028.038-.066-.026-.033a.2.2 0 0 1-.012-.033c-.042-.041-.092-.029-.124-.036a.37.37 0 0 1-.145-.115.4.4 0 0 0-.157.017l-.035.082a.14.14 0 0 0 .011.028.11.11 0 0 0 .02.025m-.102.578A.036.036 0 0 0 10.1 7.2h-.006l-.03.022c.026.046.026.046.06.024m2.413-.239A.013.013 0 0 0 12.524 7l-.017.014c.015.006.021.011.026.01a.024.024 0 0 0 .004-.017m-1.287-.534c-.007 0-.013.01-.018.015.012.024.027.024.048.01-.012-.028-.013-.03-.03-.025m.114-1.22a.33.33 0 0 1 .024.059.3.3 0 0 0 .1.157.13.13 0 0 1 .087 0 .15.15 0 0 0 .052.006h.057a.35.35 0 0 0 .138-.114.052.052 0 0 1 .026-.02.315.315 0 0 0 .135-.133l.075-.042.028.027c.034.007.049-.012.054-.047l-.046-.06c.018-.028.022-.032.034-.032a.13.13 0 0 1 .04 0 .088.088 0 0 0 .075-.017.29.29 0 0 0 .056-.1l-.014-.05-.055-.061-.053-.026c-.024-.049.015-.076.023-.109a.193.193 0 0 0-.028-.105l.023-.143a.1.1 0 0 0-.083-.05l-.061.047A.8.8 0 0 0 12 4.364a.4.4 0 0 1-.081-.11.065.065 0 0 0-.045-.039.146.146 0 0 0-.11.014c-.007.018-.013.038-.02.056l-.014.017-.054-.009-.08.044.009.084-.043.047a.35.35 0 0 0 .009.157l-.019.043.008.161-.02.042-.1.023-.057.071a.119.119 0 0 0-.017.123.213.213 0 0 1 .008.12.3.3 0 0 1-.01.045m.688-.3-.005-.036h.005zm-.561.91.013-.019a.192.192 0 0 0-.031-.147.157.157 0 0 0-.22.032.12.12 0 0 0-.016.027v.077l.026.06a.162.162 0 0 0 .228-.03m-.73-.063a.13.13 0 0 0 .009-.039.13.13 0 0 0-.034-.01.027.027 0 0 0-.026.025.027.027 0 0 0 .016.033.024.024 0 0 0 .035-.009m1.6751 1.708.0056-.0022.0018.0046-.0056.0022zm-.0647-.2668.0047-.0038.0037.0047-.0047.0038zM11.171 6.822a.018.018 0 0 0-.015-.008.016.016 0 0 0-.008.014l.016.012zm-.3198-.2027.0054-.0072.004.003-.0054.0072zM12.631 5.056A.043.043 0 0 0 12.654 5c-.064-.054-.074-.056-.132-.018a.14.14 0 0 0 0 .086l.043.023c.021-.014.044-.024.066-.035m1.017 2.235a.1.1 0 0 0-.107-.023l-.019.043c.021.033.038.06.076.062.031-.018.058-.038.05-.082m-.177-.394-.011-.002-.003.011.011.002Zm-.4597-.7019.004-.0031.0037.0046-.0039.0032zm.1077.0129.008.072a.1.1 0 0 0 .026 0 .036.036 0 0 0 .016-.011c.016-.025.007-.046-.015-.066h-.032a.157.157 0 0 1 .053-.085c0-.032 0-.052-.04-.056-.007.011-.018.02-.021.032a.9.9 0 0 0-.021.1.13.13 0 0 0 0 .039l.02-.017zM9.638 7.469l-.004.009m3.232-1.454c-.021-.027-.021-.027 0-.044m.234.251c-.025.021-.025.021-.017.045m.829 1.202c.024-.006.024-.006.021-.03m-1.564-2.212a.06.06 0 0 0 .009.037m-.331-.323.005.002-.005-.042-.005.004Z"/></svg>