<svg xmlns="http://www.w3.org/2000/svg" viewBox="0 0 24 24"><path fill="#44739e" d="M18.746 13.372a3.343 3.343 0 1 0 3.343 3.337 3.345 3.345 0 0 0-3.343-3.337m0 5.22a1.878 1.878 0 1 1 1.88-1.883 1.879 1.879 0 0 1-1.88 1.883M5.254 4.869a3.343 3.343 0 1 0 3.343 3.343 3.347 3.347 0 0 0-3.343-3.343m0 5.219A1.877 1.877 0 1 1 7.13 8.212a1.879 1.879 0 0 1-1.876 1.876m0 3.284a3.343 3.343 0 1 0 3.343 3.337 3.347 3.347 0 0 0-3.343-3.337m0 5.22a1.878 1.878 0 1 1 1.876-1.883 1.879 1.879 0 0 1-1.876 1.883m13.217-7.365a3.343 3.343 0 1 0-3.338-3.343 3.346 3.346 0 0 0 3.338 3.343m0-5.219a1.877 1.877 0 1 1-1.88 1.876 1.879 1.879 0 0 1 1.88-1.876m-6.47 10.308a3.342 3.342 0 1 0 3.342 3.341 3.345 3.345 0 0 0-3.342-3.341m0 5.22a1.878 1.878 0 1 1 1.877-1.879 1.88 1.88 0 0 1-1.877 1.879m-.139-13.85a3.343 3.343 0 1 0-3.343-3.343 3.346 3.346 0 0 0 3.343 3.343m0-5.22a1.877 1.877 0 1 1-1.878 1.877 1.88 1.88 0 0 1 1.878-1.871Zm.132 12.884a3.35 3.35 0 1 0-3.355-3.349 3.353 3.353 0 0 0 3.355 3.349m0-5.233a1.884 1.884 0 1 1-1.888 1.884 1.886 1.886 0 0 1 1.888-1.884"/></svg>