<svg xmlns="http://www.w3.org/2000/svg" viewBox="0 0 24 24"><path fill="#44739e" d="M18.651 13.883A39.82 39.82 0 0 0 11.99 1a39.95 39.95 0 0 0-6.637 12.837 6.788 6.788 0 0 0 .105 4.274l.016.044a7.71 7.71 0 0 0 1.23 2.201 6.794 6.794 0 0 0 4.536 2.603 6.3 6.3 0 0 0 .799.04 6.769 6.769 0 0 0 5.287-2.66l.024.024a8.36 8.36 0 0 0 1.231-2.326 6.794 6.794 0 0 0 .07-4.154m-5.265-4.679a.463.463 0 1 1-.464-.464.463.463 0 0 1 .464.464m1.769 5.146a.463.463 0 0 1-.453-.361.44.44 0 0 1-.016-.123.463.463 0 0 1 .915-.103.46.46 0 0 1 .017.124.462.462 0 0 1-.463.463m.463 2.273a.487.487 0 1 1-.017-.123.46.46 0 0 1 .017.123m-.842-1.456a.464.464 0 1 1-.463-.463.463.463 0 0 1 .463.463m-3.703-.11a.463.463 0 1 1-.926 0v-.021a.463.463 0 1 1 .926 0ZM8.04 13.674a.464.464 0 1 1 .462-.462.464.464 0 0 1-.462.462m.431 2.105a.464.464 0 1 1-.463-.464.464.464 0 0 1 .461.464Zm.469-1.823a.463.463 0 1 1-.46.466.462.462 0 0 1 .457-.466Zm.033-1.642a.464.464 0 1 1 .463-.463.464.464 0 0 1-.466.463Zm.682.502a.463.463 0 1 1-.464.463.463.463 0 0 1 .462-.463Zm0 3.038h.054a.464.464 0 1 1 0 .927h-.056a.464.464 0 1 1 0-.927Zm1.014-5.831a.464.464 0 1 1 .463-.465.464.464 0 0 1-.465.464Zm.587 1.747a.463.463 0 1 1-.464-.463.462.462 0 0 1 .461.465Zm-.185 1.96a.463.463 0 0 1 .908-.126.44.44 0 0 1 .024.143.463.463 0 0 1-.91.126.47.47 0 0 1-.024-.14Zm.468-3.244a.463.463 0 1 1 .464.463.462.462 0 0 1-.466-.461ZM12 15.284a.464.464 0 1 1-.463.464.464.464 0 0 1 .463-.464m.052-2.607a.46.46 0 0 1-.052-.212.464.464 0 0 1 .881-.201.46.46 0 0 1 .051.212.464.464 0 0 1-.88.201m.88 1.313a.46.46 0 0 1 .198.044.463.463 0 0 1-.157.9.473.473 0 1 1-.041-.944m.463 1.988a.463.463 0 1 1-.463.463.463.463 0 0 1 .454-.463Zm.822 1.525a.464.464 0 1 1-.463.464.464.464 0 0 1 .463-.464m-.368-3.862a.464.464 0 1 1 .464-.464.464.464 0 0 1-.464.466Zm-.463-1.988a.464.464 0 1 1 .463-.463.463.463 0 0 1-.463.465Zm-.273-4.752a.463.463 0 1 1-.463-.463.462.462 0 0 1 .463.466Zm-.927-2.451a.463.463 0 1 1-.464.463.463.463 0 0 1 .464-.461Zm0 3.725a.464.464 0 1 1-.464-.464.464.464 0 0 1 .464.467Zm-.933-2.365a.463.463 0 1 1-.463.471.463.463 0 0 1 .463-.469Zm-1.05 1.297a.464.464 0 1 1-.464.463.464.464 0 0 1 .464-.461Zm0 3.725a.463.463 0 1 1-.464-.463.462.462 0 0 1 .464.466ZM9.126 8.221a.463.463 0 1 1-.407.513.463.463 0 0 1 .407-.513m-.771 1.457a.463.463 0 1 1-.407.514.463.463 0 0 1 .409-.514Zm-.893 1.411a.463.463 0 1 1-.407.514.463.463 0 0 1 .407-.514m-.475 2.956a.463.463 0 1 1-.463.463.463.463 0 0 1 .463-.463m-.496 3.031a.464.464 0 1 1 .464.464.464.464 0 0 1-.464-.464m1.233 2.362a.463.463 0 1 1 .463-.463.463.463 0 0 1-.463.463m.587-1.76a.463.463 0 1 1 .464.464.464.464 0 0 1-.464-.465Zm1.03 2.64a.462.462 0 0 1-.451-.361.46.46 0 0 1-.017-.123.464.464 0 0 1 .916-.102.5.5 0 0 1 .017.123.464.464 0 0 1-.465.459Zm.806-1.534a.463.463 0 1 1 .463-.464.463.463 0 0 1-.463.459Zm.463-1.738a.464.464 0 1 1 .463.464.463.463 0 0 1-.463-.468Zm.731 4.045a.463.463 0 0 1-.452-.361.46.46 0 0 1-.016-.123.463.463 0 0 1 .915-.103.44.44 0 0 1 .017.123.463.463 0 0 1-.465.459Zm.196-1.593a.463.463 0 0 1-.452-.361.46.46 0 0 1-.016-.124.463.463 0 0 1 .915-.102.46.46 0 0 1 .016.123.463.463 0 0 1-.463.459Zm.922-1.294a.463.463 0 0 1-.02-.927.36.36 0 0 1 .061 0 .463.463 0 0 1 .019.927.6.6 0 0 1-.06-.005Zm4.611-2.021-.007.041a6.198 6.198 0 0 1-2.016 3.606 9.9 9.9 0 0 1-1.459 1.065c-.831.399-1.54-.576-.44-1.23a7.2 7.2 0 0 0 1.98-1.686 4.143 4.143 0 0 0 .799-1.997 6.94 6.94 0 0 0-.208-2.627 23.3 23.3 0 0 0-1.333-3.019l-.728-1.461c-.431-.982.233-1.685.943-.647a2.9 2.9 0 0 1 .319.503c.184.351.201.392.488.966a20.76 20.76 0 0 1 1.433 3.295 8.17 8.17 0 0 1 .229 3.191"/></svg>