<svg xmlns="http://www.w3.org/2000/svg" viewBox="0 0 24 24"><path fill="#44739e" d="M7.878 17.586h1.407v-1.693H7.878Zm1.015 1.182h.393v-.946H7.878q0 .946 1.015.946m-1.015-4.057v.945h1.407v-.945h-.394Zm1.676 3.111h1.985v.945H9.554Zm-4.395 0h1.986v.945H5.159Zm-.666.946h.393v-.946H3.484q0 .946 1.009.946m-1.009-1.182h1.407v-1.693H3.484Zm1.675-.846v.472h1.986v-.945H5.159Zm-1.675-1.084h1.407v-.945h-.398q-1.009 0-1.009.945m1.675-.945h1.986v.945H5.159ZM15.002 1a63.97 63.97 0 0 0-6.49 10.111 6.002 6.002 0 1 0 2.713 10.468 7.59 7.59 0 0 0 2.955.953 6.7 6.7 0 0 0 .851.042 7.604 7.604 0 0 0 7.625-7.581v-.069c0-3.3-5.027-10.514-7.654-13.924M7.353 22.15a5.151 5.151 0 1 1 5.151-5.152 5.151 5.151 0 0 1-5.151 5.152m11.129-10.196-3.787 8.316.954-7.005c.062-.454-.22-.869-.579-.849l-2.481.134c-.426.023-.72-.55-.531-1.043l2.612-6.763.133 5.577a.648.648 0 0 0 .587.703l2.574-.157c.447-.025.747.596.517 1.087Z"/></svg>