<svg xmlns="http://www.w3.org/2000/svg" viewBox="0 0 24 24"><path fill="#44739e" d="M17.511 5.794a3.74 3.74 0 0 1-1.14-.267c-.152-.055-.323-.117-.557-.189a13 13 0 0 0-1.337-.361l-1.735.077-.013.008a4.51 4.51 0 0 1-1.438.55 8.1 8.1 0 0 1-3.74-.01 5.6 5.6 0 0 1-.811-.274l-1.364.061-.039.026a1.05 1.05 0 0 1-.33.146v15.29a.855.855 0 0 0 .842.864h12.125a.729.729 0 0 0 .717-.738V5.722a4.55 4.55 0 0 1-1.18.072M5.832 9.402a.33.33 0 0 1 .33-.33h1.25a.33.33 0 0 1 .33.33.33.33 0 0 1-.33.33H6.159a.33.33 0 0 1-.33-.33Zm2.75 11.145h-2.42a.322.322 0 0 1 0-.643h2.42a.322.322 0 1 1 0 .643m-2.75-2.505a.33.33 0 0 1 .33-.33h1.25a.33.33 0 1 1 0 .66H6.159a.33.33 0 0 1-.327-.33m2.75-1.769h-2.42a.321.321 0 0 1 0-.643h2.42a.321.321 0 1 1 0 .643m-2.75-2.606a.33.33 0 0 1 .33-.33h1.25a.33.33 0 1 1 0 .66H6.159a.33.33 0 0 1-.327-.33m2.75-1.685h-2.42a.322.322 0 0 1 0-.644h2.42a.322.322 0 1 1 0 .644m0-4.539h-2.42a.322.322 0 0 1 0-.643h2.42a.322.322 0 1 1 0 .643m6.038 6.99a.236.236 0 0 1-.11.196.48.48 0 0 1-.531 0 .236.236 0 0 1-.11-.196V11.82h-.749a.44.44 0 0 0-.268.08.233.233 0 0 0-.11.196v2.337a.236.236 0 0 1-.11.196.44.44 0 0 1-.266.081.433.433 0 0 1-.265-.081.233.233 0 0 1-.11-.196v-2.337a.234.234 0 0 0-.11-.196.44.44 0 0 0-.267-.08h-.752v2.613a.24.24 0 0 1-.11.198.404.404 0 0 1-.266.079c-.254-.008-.38-.082-.38-.22v-2.809a.351.351 0 0 1 .163-.291.652.652 0 0 1 .398-.12h.937a1.34 1.34 0 0 1 .751.21 2.12 2.12 0 0 1 .752-.21h.937a.652.652 0 0 1 .398.12.351.351 0 0 1 .163.291Zm3.43-5.647v.006a.407.407 0 0 1-.577 0l-.645-.642v11.11l.639-.639a.407.407 0 0 1 .576 0 .407.407 0 0 1 0 .576l-1.259 1.261a.473.473 0 0 1-.669 0l-1.255-1.262a.408.408 0 0 1 0-.575.407.407 0 0 1 .576 0l.627.627V8.083l-.707.709a.408.408 0 0 1-.577 0 .407.407 0 0 1 0-.577l1.319-1.32a.473.473 0 0 1 .675 0l1.27 1.32a.406.406 0 0 1 .007.571m2.682-7.785H19.18V4.38a1 1 0 0 0-.252.049 2.71 2.71 0 0 1-1.067.156 1.87 1.87 0 0 1-.59-.149c-.166-.06-.374-.132-.66-.22a8.9 8.9 0 0 0-3.52-.524 2.944 2.944 0 0 0-1.296.41 2.77 2.77 0 0 1-.914.338 6.116 6.116 0 0 1-2.798.008 4.04 4.04 0 0 1-.737-.264 2.76 2.76 0 0 0-1.228-.294h-.014a3.33 3.33 0 0 0-1.43.33V1.425a.425.425 0 0 0-.427-.424h-.979a.426.426 0 1 0 0 .85h.129a.425.425 0 0 1 .426.424v19.319A1.406 1.406 0 0 0 5.229 23h13.395a1.406 1.406 0 0 0 1.406-1.406V2.275a.425.425 0 0 1 .424-.424h.278a.426.426 0 1 0 0-.85m-1.51 19.965a1.261 1.261 0 0 1-1.248 1.27H5.853a1.386 1.386 0 0 1-1.372-1.396V5.07l.259-.009a.575.575 0 0 0 .304-.092c.037-.025.076-.049.11-.073l.058-.037 1.626-.072.057.024a5.2 5.2 0 0 0 .789.272 7.59 7.59 0 0 0 3.49 0 4.03 4.03 0 0 0 1.291-.488l.071-.039.055-.031 1.925-.086h.03a13.6 13.6 0 0 1 1.424.381c.246.077.423.14.581.198a3.23 3.23 0 0 0 .996.236 4.09 4.09 0 0 0 1.341-.132l.33-.089Z"/></svg>