<svg xmlns="http://www.w3.org/2000/svg" fill="#44739e" viewBox="0 0 24 24"><path d="M18.045 13.71A36.19 36.19 0 0 0 11.991 2a36.31 36.31 0 0 0-6.033 11.668 6.17 6.17 0 0 0 .095 3.885l.015.04a7.01 7.01 0 0 0 1.118 2 6.175 6.175 0 0 0 4.123 2.366 5.7 5.7 0 0 0 .726.037 6.153 6.153 0 0 0 4.806-2.418l.021.022a7.6 7.6 0 0 0 1.119-2.115 6.175 6.175 0 0 0 .064-3.775m-4.786-4.253a.421.421 0 1 1-.421-.422.421.421 0 0 1 .421.422m1.608 4.677a.421.421 0 0 1-.411-.328.4.4 0 0 1-.015-.112.421.421 0 0 1 .832-.093.42.42 0 0 1 .015.112.42.42 0 0 1-.421.421m.421 2.066a.443.443 0 1 1-.015-.112.42.42 0 0 1 .015.112m-.765-1.323a.422.422 0 1 1-.421-.421.421.421 0 0 1 .421.421m-3.366-.1a.421.421 0 1 1-.842 0v-.019a.421.421 0 1 1 .842 0zM8.4 13.52a.422.422 0 1 1 .42-.42.422.422 0 0 1-.42.42m.392 1.913a.422.422 0 1 1-.421-.422.422.422 0 0 1 .419.422Zm.426-1.657a.421.421 0 1 1-.418.424.42.42 0 0 1 .416-.424Zm.03-1.492a.422.422 0 1 1 .421-.421.422.422 0 0 1-.423.421zm.62.456a.421.421 0 1 1-.422.421.421.421 0 0 1 .42-.421zm0 2.761h.049a.422.422 0 1 1 0 .843h-.051a.422.422 0 1 1 0-.843zm.922-5.3a.422.422 0 1 1 .421-.422.422.422 0 0 1-.423.421Zm.533 1.588a.421.421 0 1 1-.421-.421.42.42 0 0 1 .419.423zm-.168 1.782a.421.421 0 0 1 .826-.115.4.4 0 0 1 .021.13.421.421 0 0 1-.827.115.43.43 0 0 1-.022-.128zm.426-2.949a.421.421 0 1 1 .421.421.42.42 0 0 1-.423-.419zM12 14.983a.422.422 0 1 1-.421.422.422.422 0 0 1 .421-.422m.047-2.369a.42.42 0 0 1-.047-.193.422.422 0 0 1 .8-.183.42.42 0 0 1 .047.193.422.422 0 0 1-.8.183m.8 1.193a.416.416 0 0 1 .18.04.421.421 0 0 1-.143.818.43.43 0 1 1-.037-.858m.421 1.807a.421.421 0 1 1-.421.421.421.421 0 0 1 .412-.421zM14.015 17a.422.422 0 1 1-.421.422.422.422 0 0 1 .421-.422m-.335-3.51a.422.422 0 1 1 .422-.422.422.422 0 0 1-.422.424zm-.421-1.807a.422.422 0 1 1 .421-.421.421.421 0 0 1-.421.423zm-.248-4.319a.421.421 0 1 1-.421-.421.42.42 0 0 1 .421.423Zm-.842-2.228a.421.421 0 1 1-.422.421.421.421 0 0 1 .422-.419zm0 3.386a.422.422 0 1 1-.422-.422.422.422 0 0 1 .422.424Zm-.848-2.15a.421.421 0 1 1-.421.428.421.421 0 0 1 .421-.426Zm-.955 1.179a.422.422 0 1 1-.421.421.422.422 0 0 1 .421-.419Zm0 3.386a.421.421 0 1 1-.421-.421.42.42 0 0 1 .421.423zm-.979-2.374a.421.421 0 1 1-.37.467.421.421 0 0 1 .37-.467m-.7 1.325a.421.421 0 1 1-.37.467.421.421 0 0 1 .371-.467Zm-.812 1.282a.421.421 0 1 1-.37.467.421.421 0 0 1 .37-.467m-.432 2.687a.421.421 0 1 1-.421.421.421.421 0 0 1 .421-.421m-.451 2.755a.422.422 0 1 1 .422.422.422.422 0 0 1-.422-.422m1.121 2.147a.421.421 0 1 1 .421-.421.421.421 0 0 1-.421.421m.534-1.6a.421.421 0 1 1 .421.422.422.422 0 0 1-.421-.423zm.936 2.4a.42.42 0 0 1-.41-.328.42.42 0 0 1-.016-.112.422.422 0 0 1 .833-.093.45.45 0 0 1 .015.112.422.422 0 0 1-.422.417zm.732-1.395a.421.421 0 1 1 .421-.421.421.421 0 0 1-.421.417zm.421-1.579a.422.422 0 1 1 .421.421.421.421 0 0 1-.421-.425zm.665 3.676a.421.421 0 0 1-.411-.328.42.42 0 0 1-.015-.112.421.421 0 0 1 .832-.093.4.4 0 0 1 .015.112.421.421 0 0 1-.422.417zm.178-1.448a.421.421 0 0 1-.411-.328.42.42 0 0 1-.015-.112.421.421 0 0 1 .832-.093.42.42 0 0 1 .015.112.421.421 0 0 1-.421.417Zm.838-1.176a.4211.4211 0 0 1-.018-.842.33.33 0 0 1 .055 0 .421.421 0 0 1 .017.842.5.5 0 0 1-.054-.004zm4.191-1.837-.006.038a5.634 5.634 0 0 1-1.833 3.277 9 9 0 0 1-1.326.968c-.755.363-1.4-.523-.4-1.118a6.54 6.54 0 0 0 1.8-1.532 3.766 3.766 0 0 0 .726-1.815 6.31 6.31 0 0 0-.189-2.388 21.16 21.16 0 0 0-1.212-2.744l-.661-1.328c-.392-.893.211-1.532.857-.588a2.65 2.65 0 0 1 .29.457c.167.319.182.356.443.878A18.87 18.87 0 0 1 16.4 12.9a7.43 7.43 0 0 1 .208 2.9"/></svg>