<svg xmlns="http://www.w3.org/2000/svg" viewBox="0 0 24 24"><path fill="#44739e" d="m5.131 6.819-.007.011c.086.071.284.062.44-.12a.228.228 0 0 0 .11.135.33.33 0 0 0 .282.015c.087-.042.11-.22-.052-.408A7.44 7.44 0 0 1 9.615 5.44a1.97 1.97 0 0 1 1.063.389c0-.299-.42-.55-.787-.597a.868.868 0 0 1 .842-.418 1.03 1.03 0 0 0-.164-.092.72.72 0 0 0-.239-.059.594.594 0 0 0-.292.059.957.957 0 0 0-.424.479l-.77.01a1.2 1.2 0 0 1 .167-.492 1.01 1.01 0 0 1 .56-.406.75.75 0 0 0-.946.405 1.34 1.34 0 0 0-.119.51l-.836.195a.968.968 0 0 1 .21-.704 1.87 1.87 0 0 1 .268-.245.66.66 0 0 0-.668.245 1.133 1.133 0 0 0-.139.812l-.921.302a1.134 1.134 0 0 1 .448-1.086.85.85 0 0 0-.167.027.926.926 0 0 0-.561 1.134.5.5 0 0 0 .017.099l-.095.053-.33.19c-.089-.238-.164-.282-.317-.256a.187.187 0 0 0-.161.125.37.37 0 0 0 .11.282.44.44 0 0 0-.226.12.22.22 0 0 0-.026.277.13.13 0 0 0 .019.021m.013-.457-.02-.057-.027-.089.018.146ZM6.66 5.18a.72.72 0 0 0-.055.183 1.32 1.32 0 0 1 .15-.22 2.53 2.53 0 0 1 .33-.299v-.037l-.01-.012h-.023a1.32 1.32 0 0 0-.358.33.3.3 0 0 0-.034.055M5.118 7.076a.55.55 0 0 0 .104.011.343.343 0 0 0 .296-.11.28.28 0 0 0 .053.054.356.356 0 0 0 .293.062.316.316 0 0 0 .319-.313.3.3 0 0 0 0-.045.5.5 0 0 1-.037.095.3.3 0 0 1-.256.174.415.415 0 0 1-.286-.034.29.29 0 0 1-.084-.078.394.394 0 0 1-.347.103l-.05-.007a.26.26 0 0 1-.202-.175.33.33 0 0 1-.024-.059.55.55 0 0 0 .021.145v.01a.239.239 0 0 0 .2.167M6.603 5.36l.002-.004-.001.001Zm0 0a.7.7 0 0 0-.071.236.8.8 0 0 1 .071-.236m-.612.59c-.009-.084-.023-.169-.035-.254a1.16 1.16 0 0 0 .02.254Zm5.812 3.226.001.001Zm2.713 2.293.012-.259V7.593H9.442h.005l.011 3.233v.172h.014v.423a2.553 2.553 0 0 0 2.688 2.412l.074-.006a2.388 2.388 0 0 0 2.298-2.358Zm-.55-3.719h.253v.11h-.075v.55h-.11v-.55h-.07Zm-.619-.011h.258a.231.231 0 0 1 .207.161.33.33 0 0 1 0 .184.176.176 0 0 1-.141.119l.126.182-.096.063-.143-.212h-.092v.17h-.119Zm-.565.481.206-.563.044.12.084.22.146.394-.11.039-.035-.119h-.263l-.028.083-.013.036-.017-.009-.086-.02Zm-.647-.188a.36.36 0 0 1 .048-.154.22.22 0 0 1 .138-.12.22.22 0 0 1 .213.059l-.079.08a.18.18 0 0 0-.041-.029.087.087 0 0 0-.074 0 .19.19 0 0 0-.055.054.29.29 0 0 0-.037.11.66.66 0 0 0 0 .161.26.26 0 0 0 .017.081h.009a.264.264 0 0 0 .079.099.044.044 0 0 0 .023.007.09.09 0 0 0 .048-.006.143.143 0 0 0 .059-.063.2.2 0 0 0 .007-.038.9.9 0 0 0 .01-.11h-.092v-.11h.202v.195a.264.264 0 0 1-.044.127.22.22 0 0 1-.124.105.275.275 0 0 1-.119 0 .22.22 0 0 1-.062-.024.21.21 0 0 1-.047-.046.3.3 0 0 1-.033-.057.55.55 0 0 1-.051-.319Zm-.394-.282h.255v.11h-.076v.55h-.11v-.55h-.071Zm-.44 0h.255v.11h-.077v.55h-.11v-.55h-.071Zm-.611.075h.11v.478a.14.14 0 0 0 .184.074.143.143 0 0 0 .074-.074v-.478h.11v.478a.245.245 0 0 1-.478 0Zm-.418-.079h.255v.11h-.075v.55h-.11l-.007-.55h-.071Zm-.22.504a.103.103 0 0 0-.073-.067.44.44 0 0 1-.132-.022.169.169 0 0 1-.131-.131.22.22 0 0 1 0-.141.198.198 0 0 1 .152-.12.33.33 0 0 1 .131 0 .176.176 0 0 1 .118.078l-.088.066a.23.23 0 0 0-.061-.036.12.12 0 0 0-.092 0 .23.23 0 0 0-.059.044.092.092 0 0 0 0 .073c.012.024.018.045.054.056s.086.012.128.024a.22.22 0 0 1 .165.152.184.184 0 0 1 0 .119.211.211 0 0 1-.163.139.45.45 0 0 1-.144 0 .245.245 0 0 1-.157-.102l.102-.051a.16.16 0 0 0 .062.047.24.24 0 0 0 .12 0 .095.095 0 0 0 .076-.11Zm4.095 2.842h-.11a2 2 0 0 0-.186-.074.103.103 0 0 0-.077 0 .31.31 0 0 0-.11.088c-.018.015-.019.026-.013.038a.39.39 0 0 1 0 .201.47.47 0 0 1-.054.131 1.7 1.7 0 0 0-.208.323.363.363 0 0 0 0 .205.8.8 0 0 0 .119.179 1.1 1.1 0 0 1 .09.118c.012.023.017.052 0 .065a.069.069 0 0 0-.042.055c0 .072-.021.072-.043.087a.96.96 0 0 0-.179.21.44.44 0 0 0-.041.076.16.16 0 0 1-.087.11 1.4 1.4 0 0 0-.283.173c-.027.03-.015.082 0 .12a.052.052 0 0 1 0 .047c-.028.063-.143.036-.188.076a.089.089 0 0 1-.081 0c-.031-.01-.03-.062 0-.094a1.5 1.5 0 0 1 .12-.156.26.26 0 0 1 .078-.125c.084-.084.161-.156.239-.239a1.14 1.14 0 0 0 .172-.377c.017-.063-.021-.073-.04-.096a.55.55 0 0 1-.341-.228.045.045 0 0 0-.064 0 .33.33 0 0 1-.061.063c0 .083.022.166.022.25a.3.3 0 0 1-.055.059 3.6 3.6 0 0 1-.401.238c-.029.014-.055.031-.084.047q-.125.072-.251.152c-.035.031-.071.054-.049.12.014.038.008.047 0 .059l-.187.055c-.056.009-.065-.039-.056-.059a1.2 1.2 0 0 0 .11-.151.35.35 0 0 1 .135-.14c.11-.064.203-.13.308-.2l.01-.006a.31.31 0 0 0 .088-.089 1.1 1.1 0 0 1 .127-.152.08.08 0 0 0 .046-.086.165.165 0 0 0-.033-.09.63.63 0 0 1-.141-.199.24.24 0 0 1 0-.162c.031-.089 0-.081-.036-.099h-.06a4.5 4.5 0 0 1-.487-.007l-.15-.049a.64.64 0 0 1-.22-.145c-.029-.036-.054-.039-.101 0a.44.44 0 0 1-.179.098.31.31 0 0 1-.155 0 .52.52 0 0 0-.147-.031c-.053-.012-.09-.033-.136-.043s-.11-.007-.167-.012c-.025.021-.012.059-.045.09l-.019.022v.206a1.9 1.9 0 0 0 .041.286v.08a.033.033 0 0 0 .029.023c.024.009.044.019.048.04s.038.024.071 0h.082c.027.011.044.036.019.077l-.126.145c-.024.021-.039.023-.067 0-.051-.069-.079-.148-.153-.172a.13.13 0 0 1-.073-.095 3.4 3.4 0 0 1-.015-.382 1.43 1.43 0 0 0-.024-.306c-.024-.077-.012-.152.057-.176a.31.31 0 0 0 .096 0 2.4 2.4 0 0 0 .358-.084c.01 0 .011-.015.01-.027a.07.07 0 0 0-.012-.024.23.23 0 0 0-.048-.084l-.064-.008c-.096-.012-.11-.066-.135-.126-.016-.024-.013-.098-.032-.13l-.171-.239a.048.048 0 0 0-.069-.005l-.007.005a1.03 1.03 0 0 0-.163.22.6.6 0 0 0-.059.119c-.012.023 0 .066-.018.083a.29.29 0 0 1-.101.134l-.012.035v.016a.146.146 0 0 0 0 .081.2.2 0 0 1 .039.03.055.055 0 0 1-.012.066.52.52 0 0 0-.165.08c-.008.014-.053.009-.066 0a.128.128 0 0 1 0-.11.44.44 0 0 1 .062-.103l.035-.044h.008c-.009-.08.035-.096.044-.145l.06-.183a2.4 2.4 0 0 1 .143-.22c.02-.019.022-.073.047-.085l.059-.073a.23.23 0 0 1 .096-.11c.043-.025.08-.039.122-.009a.63.63 0 0 1 .095.166c.007.036.045.06.069.083a.7.7 0 0 1 .076.044.068.068 0 0 0 .092 0c.027-.048.043-.11.066-.161a.788.788 0 0 1 .33-.44.084.084 0 0 0 .042-.046.22.22 0 0 0 .012-.045.24.24 0 0 1 .053-.125c.02-.023.02-.043 0-.061a.14.14 0 0 0-.051-.016.3.3 0 0 1-.067-.015c-.007-.014-.047-.013-.071-.016-.066.076-.101.055-.152.099a.041.041 0 0 1-.042 0 .14.14 0 0 1-.043-.024.026.026 0 0 1 0-.025v-.011a.23.23 0 0 1 .056-.042.025.025 0 0 0 0-.03.11.11 0 0 0-.069 0 .12.12 0 0 1-.042.024h-.05a.21.21 0 0 1-.064-.041l-.014-.015.009-.014a1.06 1.06 0 0 1 .156-.103.33.33 0 0 1 .044-.069c.075-.052.159-.091.238-.144h.181a.041.041 0 0 0 .011-.038l-.061-.057-.085-.084c-.018-.024-.012-.039 0-.048h.037a.33.33 0 0 1 .11.039h.119a.48.48 0 0 0 .137-.08h.01a.35.35 0 0 1 .09-.052.314.314 0 0 0 .166-.102l.01-.01a.396.396 0 0 1 .211-.143h.075a.013.013 0 0 1 .007.024h-.012a.22.22 0 0 0-.128.143.12.12 0 0 0 0 .069.17.17 0 0 0 .031.042.23.23 0 0 0 .065.037h.126a1 1 0 0 1 .239-.07h.147a.234.234 0 0 1 .12.044c.024.013 0 .028-.012.04h-.119a.304.304 0 0 0-.12.087.059.059 0 0 0 0 .077.12.12 0 0 1 .047.05c.012.027.019.053.029.081a.7.7 0 0 1 .12.093.66.66 0 0 1 .141.11.146.146 0 0 1 .032.091c-.011.015-.023.016-.037 0a.37.37 0 0 0-.141-.081.073.073 0 0 0-.067 0l-.04.033a.021.021 0 0 0 0 .03v.006a.33.33 0 0 1 .138.082.65.65 0 0 1 .075.171.041.041 0 0 1 .013.037c-.022.023-.03.023-.047.012a.45.45 0 0 0-.184-.132h-.065c-.03.01-.045.015-.018.057a.363.363 0 0 1 .11.152l.01.045v.143c-.008.016-.015.015-.024 0a.297.297 0 0 0-.129-.11.264.264 0 0 0-.143 0 .33.33 0 0 0-.148.147c-.03.072-.073.302-.011.376a.355.355 0 0 0 .238.164 4.1 4.1 0 0 0 .589-.012h.286a.623.623 0 0 1 .376.239.036.036 0 0 0 .046 0 .495.495 0 0 0 .11-.167.16.16 0 0 0 0-.101 1 1 0 0 1-.026-.074 1.76 1.76 0 0 0-.26-.391.45.45 0 0 1-.087-.176.275.275 0 0 1 0-.118.25.25 0 0 1 .049-.099c.022-.016.032-.017.038 0s0 .071.009.094a1 1 0 0 0 .067.12.034.034 0 0 0 .048 0 2.4 2.4 0 0 0 .055-.239c0-.037.043-.071.074-.096a.73.73 0 0 1 .232-.11c.035-.018.043-.036.064-.087.012-.025.047-.027.054-.01a.206.206 0 0 1-.042.146.7.7 0 0 1-.087.076.25.25 0 0 0-.054.086.42.42 0 0 1-.099.138.085.085 0 0 0 0 .096.37.37 0 0 0 .047.078.047.047 0 0 0 .067 0 .257.257 0 0 0 .11-.22.022.022 0 0 1 .03-.006l.007.006a.179.179 0 0 1 .02.188.65.65 0 0 1-.132.142c-.011.011-.009.023 0 .04a.29.29 0 0 1 .065.088c.012.033.064.034.12.01a.09.09 0 0 0 .035-.033c.017-.028.035-.03.043.01v.059a.246.246 0 0 1-.239.129.075.075 0 0 0 0 .095.15.15 0 0 0 .044.042.095.095 0 0 0 .099 0 .41.41 0 0 0 .12-.126.007.007 0 1 1 .012 0 .143.143 0 0 1 0 .12.41.41 0 0 1-.132.165c-.03.02-.014.055 0 .071a.2.2 0 0 0 .057.048h.154a.21.21 0 0 1-.127.099M5.489 8.94l.009.014c.168.31.676.11.618-.152a.19.19 0 0 1-.036.079.36.36 0 0 1-.501.075.39.39 0 0 1-.089-.091.356.356 0 0 1-.37.095.418.418 0 0 1-.191-.239.366.366 0 0 0 .046.179.3.3 0 0 0 .145.128.347.347 0 0 0 .369-.088m8.219-.893a.18.18 0 0 0 0-.103.171.171 0 0 0-.155-.092h-.099v.278h.1a.188.188 0 0 0 .154-.083m-.677.092-.057-.149-.085.227h.172Zm-1.227 1.038h-.017l-.024-.015-.032-.012h-.024a.18.18 0 0 0-.049 0 .11.11 0 0 0-.017.028.043.043 0 0 0 0 .049l.009.012a.24.24 0 0 1 .074.092l.009.017.027.075v.007a1.6 1.6 0 0 1 .051.44.95.95 0 0 0 0 .194.09.09 0 0 0 .009.029.085.085 0 0 0 .098 0 .174.174 0 0 0 .065-.11v-.04a1.63 1.63 0 0 0 .019-.44v-.022a.44.44 0 0 0-.198-.304m-5.803.59a1.3 1.3 0 0 0 .045.143l.011.029.024-.009a2.02 2.02 0 0 1-.116-.46 1.54 1.54 0 0 0 .036.297m.784-2.827a.825.825 0 0 0-.248.364.7.7 0 0 0-.045.239 1.21 1.21 0 0 1 .31-.56.034.034 0 0 0-.012-.052Zm.64.199h-.006a.9.9 0 0 0-.042.21.98.98 0 0 1 .169-.345c-.033.053-.102.076-.121.135M5.109 8.166a.34.34 0 0 0 .015.138v.009l.009.014.009.024.04-.016a.44.44 0 0 1-.055-.12ZM16.2 14.155a.6.6 0 0 0-.052.05l-.007.009a.79.79 0 0 0-.176.298h.029a1.21 1.21 0 0 1 .532-.489c0-.021.009-.05-.018-.064a1.3 1.3 0 0 0-.182.11 1.1 1.1 0 0 0-.11.079ZM7.847 6.666c-.128.059-.189.189-.268.301a.97.97 0 0 1 .277-.238.043.043 0 0 0 0-.061Zm.152-1.889-.043.055-.024.033-.041.063a.75.75 0 0 0-.09.316.99.99 0 0 1 .342-.526 2.1 2.1 0 0 1 .212-.16V4.51l-.02-.014a1.18 1.18 0 0 0-.281.22.55.55 0 0 0-.055.061m2.169.304a.44.44 0 0 0-.039.052v.023h.046a.484.484 0 0 1 .272-.14 2.02 2.02 0 0 1 .424-.009L10.888 5l.014-.013V4.94a.03.03 0 0 0-.016-.021h-.014a.855.855 0 0 0-.704.162m-1.067-.278a.75.75 0 0 0-.11.282l.01.01a.803.803 0 0 1 .239-.367h.012a1.36 1.36 0 0 1 .465-.259l.012-.027v-.053l-.029-.01a1.2 1.2 0 0 0-.543.343.66.66 0 0 0-.056.081m-.179 1.87a.64.64 0 0 0-.348.136.57.57 0 0 0-.2.283l-.02.038.018-.02a.55.55 0 0 0-.025.11.695.695 0 0 1 .621-.477.096.096 0 0 0 .064-.058v-.052h-.019c-.03.01-.017.042-.091.04m1.698-.688a1.88 1.88 0 0 0-1.113-.413 3.6 3.6 0 0 0-.753.028 8.4 8.4 0 0 0-2.626.88l.012.02.021.031v.012a8.55 8.55 0 0 1 2.587-.854 3.96 3.96 0 0 1 .685-.033 1.997 1.997 0 0 1 1.21.426.087.087 0 0 0 .12.024l.013-.01a.164.164 0 0 0 .043-.153.22.22 0 0 1-.047.07c-.042.037-.084.03-.152-.028m-.634.971c-.146.06-.47.11-.573.27h.045c0-.017 0-.022.013-.031.259-.165.566-.174.588-.239.01-.033 0-.042-.013-.047-.005.02-.035.031-.06.047m3.781 11.39v.012l-.019.03-.014.021v.011a.4.4 0 0 1-.03.03.4.4 0 0 1-.035.028h-.006l-.036.023h-.009a.24.24 0 0 1-.087.023h-.044a.18.18 0 0 1-.04-.009h-.015l-.036-.014-.015-.007a.56.56 0 0 1-.194-.172.63.63 0 0 1-.174.22.25.25 0 0 1-.095.04.2.2 0 0 1-.05 0 .22.22 0 0 1-.053 0 .416.416 0 0 1-.281-.25.36.36 0 0 0 .33.337c.146.011.274-.144.33-.268a.44.44 0 0 0 .33.22.309.309 0 0 0 .278-.309v-.008a.08.08 0 0 1-.012.032Zm3.531-3.885c-.025.011-.064.023-.11.039a.96.96 0 0 0-.375.235l-.009.007.041.038c.299-.256.478-.198.511-.301l-.024-.046a.077.077 0 0 1-.034.028m-1.137-2.479a1.2 1.2 0 0 0-.093.11 1.2 1.2 0 0 0-.126.199l-.032.062c-.01.021-.011.034 0 .046l.013.015a1.7 1.7 0 0 1 .084-.159 1.004 1.004 0 0 1 .44-.376.065.065 0 0 0-.012-.074.96.96 0 0 0-.274.177m.957 3.725a.07.07 0 0 1-.056.032h-.011a.055.055 0 0 1-.025-.013.18.18 0 0 1-.041-.044 1.8 1.8 0 0 0-.082-.098 1.574 1.574 0 0 0-1.459-.478c-.161.023-.321.054-.479.092-.066.017-.135.034-.207.054a4.62 4.62 0 0 0-.88.33 2.2 2.2 0 0 0-.138.08l-.015.011.032.058a3.63 3.63 0 0 1 .572-.267c1.302-.456 2.059-.44 2.661.289.04.041.072.095.132.012a.282.282 0 0 0 .047-.187.4.4 0 0 0 0-.053l-.03.149a.11.11 0 0 1-.021.033m-1 1.057-.028.015-.023.016a.97.97 0 0 0-.24.22 1 1 0 0 0-.071.12c0 .015 0 .028.021.028a.95.95 0 0 1 .453-.379.036.036 0 0 0 .032-.014l-.01-.068a.7.7 0 0 0-.134.062m2.948-3.353a8.2 8.2 0 0 0 .285-2.269l.11-8.886a9 9 0 0 0-.346-.141 15.36 15.36 0 0 0-2.6-.716 22.99 22.99 0 0 0-8.532 0A15.47 15.47 0 0 0 4.702 2.43l-.274.12.119 8.656c-.044 3.513 2.88 7.393 6.327 8.966a5.5 5.5 0 0 0 1.085.33.4.4 0 0 0 .125.008 4.03 4.03 0 0 0 1.018-.384l.238-.11a10.89 10.89 0 0 0 5.726-6.605m.019-2.251h-4.156l-.027-1.927h4.189Zm.047-8.707v.298Zm0 4.73-7.005-.013V5.4l7.003.018ZM4.782 2.827a4.88 4.88 0 0 1 1.1-.454c.281-.087.598-.174.939-.259a24.3 24.3 0 0 1 2.602-.485c.25-.035.55-.071.873-.099l.238-.02c.486-.039.975-.063 1.457-.067h.484a23.43 23.43 0 0 1 6.624 1.087l.014 1.181.011.695v.316h-.017a15.43 15.43 0 0 0-3.104-.888 20.9 20.9 0 0 0-4.235-.389 15.7 15.7 0 0 0-1.86.12 19.7 19.7 0 0 0-4.674 1.153l-.11.048-.178.077-.137.056-.016-.498Zm.18 8.306v.008l-.154-6.124.044-.021.27-.12c.132-.054.263-.11.398-.159a14.9 14.9 0 0 1 1.43-.463 20.46 20.46 0 0 1 3.995-.653l.291-.014h.523v3.599c-.852 0-1.661.015-2.346.045l-.213.013c.086-.228.374-.299.588-.385-.368-.227-.759-.064-.954.477-.212 0-.423.011-.633.026h-.06a.979.979 0 0 1 .597-.77l.04-.014H8.75c-.478-.091-.836.294-.88.807l-.66.16a1.24 1.24 0 0 1 .408-.862c-.429-.068-.687.44-.641.962l-.585.243a.919.919 0 0 1 .202-.922c-.192 0-.63.23-.509 1.041l-.463.231c-.037-.155-.092-.239-.164-.272-.167-.065-.382.139-.087.422a.605.605 0 0 0-.239.119.185.185 0 0 0-.043.259.18.18 0 0 0 .043.043l.023.015a.337.337 0 0 0 .386-.144c.058.148.096.239.261.231s.282-.135.047-.44a8 8 0 0 1 2.165-.798 3.87 3.87 0 0 1 1.081-.041v.197a2.07 2.07 0 0 0-1.17-.019 7.96 7.96 0 0 0-1.87.7l.014.036.017.032a7.04 7.04 0 0 1 1.772-.67 2.206 2.206 0 0 1 1.23 0v.836a.675.675 0 0 0-.33.421l-.716.085a1.203 1.203 0 0 1 .55-.923c-.283-.055-.804.232-.796.997l-.577.178a.686.686 0 0 1 .022-.597 1.3 1.3 0 0 1 .097-.156c.054-.078.11-.147.156-.209h-.036c-.267.024-.598.247-.512.861a1.5 1.5 0 0 0 .035.197l-.192.092-.314.134a1.11 1.11 0 0 1 .099-.955c-.43-.012-.597.468-.337 1.089l-.33.232c-.12-.238-.267-.302-.374-.262-.131.048-.205.25.052.462-.282.085-.358.238-.269.405.058.12.23.14.485-.134.11.131.176.21.349.173.132-.03.263-.164-.03-.44.143-.096.279-.183.415-.263.083-.052.167-.098.25-.141a4.4 4.4 0 0 1 2.31-.529v.157a4.518 4.518 0 0 0-2.684.726l-.029.019-.11.063.01.034a.76.76 0 0 1 .118.231.9.9 0 0 0-.088-.204c.247-.129.513-.271.798-.399a5.24 5.24 0 0 1 .792-.288c.068-.018.136-.032.206-.046a4.4 4.4 0 0 1 .637-.064 2.26 2.26 0 0 1 .344.026v1.43h-3.96v-.011Zm.244 2.254h4.706a3.09 3.09 0 0 0 1.947.825v.969H5.956a8.34 8.34 0 0 1-.755-1.794Zm6.657 6.805a7.56 7.56 0 0 1-2.488-1.218 9.75 9.75 0 0 1-1.711-1.5h4.198ZM9.27 11.55c0-.042-.006-.082-.008-.123v-4.01h2.498v-.008h2.936v4.07h-.009a2.593 2.593 0 0 1-2.464 2.53A2.716 2.716 0 0 1 9.27 11.55m2.993 8.568v.009h-.028v-5.841l.12-.016.066-.008a3.63 3.63 0 0 0 .608-.137c.072-.024.146-.05.22-.08a2.5 2.5 0 0 0 .645-.387l.07-.021c.477-.151.969-.306 1.442-.411a3.54 3.54 0 0 1 .9-.1 2.486 2.486 0 0 1 1.21.359 5.4 5.4 0 0 1 .44.33l.054.045c.047.041.103.063.12-.03l.011-.134-.023.101a.056.056 0 0 1-.078.007v-.007a1.7 1.7 0 0 1-.153-.118 2.75 2.75 0 0 0-.29-.22l-.051-.029-.028-.019a2.37 2.37 0 0 0-.596-.268l-.084-.022h-.008a3.953 3.953 0 0 0-2.008.158c-.12.033-.239.068-.349.104s-.238.072-.346.11l-.082.026-.081.031.008-.007a2.7 2.7 0 0 0 .355-.372c-.026.031-.047.066-.074.097l.126-.042a4.97 4.97 0 0 1 2.333-.299 2.17 2.17 0 0 1 1.232.645.64.64 0 0 0-.372-.66.05.05 0 0 1 0-.046.99.99 0 0 1 .622-.382.542.542 0 0 0-.502-.12.81.81 0 0 0-.466.421h-.029l-.503-.203a.075.075 0 0 1 0-.068 1.019 1.019 0 0 1 .64-.571.58.58 0 0 0-.66-.006 1.28 1.28 0 0 0-.418.643 5 5 0 0 1-.53-.027.954.954 0 0 1 .478-.733v-.018a.746.746 0 0 0-.688.175 1.172 1.172 0 0 0-.286.693l-.55.135-.094.024a3.7 3.7 0 0 1-.234.309 2.57 2.57 0 0 0 .27-.431 3.31 3.31 0 0 0 .314-1.225h4.136a10.45 10.45 0 0 1-6.809 8.636m5.382 2.201h-1.614v-.465l-.219.001V23h.219v-.462h1.614V23h.219v-1.146h-.219Zm2.713-.244v-.219h-2.156v1.131h2.156v-.219h-1.937v-.245h1.937v-.219h-1.937v-.229Zm-3.482-9.6v.007l.021.016h.01a.92.92 0 0 1 .611-.418.058.058 0 0 0 0-.076.91.91 0 0 0-.297.098.946.946 0 0 0-.345.373m1.563.075a.03.03 0 0 1-.01.018c-.015.018-.05.016-.079.024a.94.94 0 0 0-.269.07h-.01a.67.67 0 0 0-.22.139.4.4 0 0 0-.038.045.041.041 0 0 0 .023.028h.015a1.026 1.026 0 0 1 .55-.22.12.12 0 0 0 .053-.05v-.054Zm-2.497 5.17-.022.023c-.041.028-.063-.01-.094-.026a1.22 1.22 0 0 0-.596-.316l-.06-.011h-.127a1.5 1.5 0 0 0-.188 0h-.009l-.083.009h-.011l-.077.012h-.022l-.072.016-.026.008-.067.019-.03.009-.064.02-.032.011-.062.025-.028.012a.55.55 0 0 0-.067.028l-.021.009-.074.036h-.018a2.7 2.7 0 0 0-.458.291l-.024.021.047.039a1.69 1.69 0 0 1 2.166-.171c.044.031.083.079.12.012a.305.305 0 0 0 .064-.227v-.007l-.07.149Zm-2.487 4.29v.77c0 .093.016.201.172.201h1.844v-.213h-1.719c-.056 0-.079-.022-.079-.1v-.494c0-.05.017-.11.095-.11h1.707v-.197h-1.841a.144.144 0 0 0-.179.143m-.342-5.809a.351.351 0 0 0 .66-.102.41.41 0 0 1-.117.138.365.365 0 0 1-.267.079.33.33 0 0 1-.084-.021.414.414 0 0 1-.191-.166h-.012a.66.66 0 0 1-.148.08.35.35 0 0 1-.168.025.31.31 0 0 1-.119-.045l-.025-.018-.009-.008a.68.68 0 0 1-.179-.295c.006.32.325.622.659.333m-.461-.696a.51.51 0 0 1-.119-.239.385.385 0 0 0 .08.263Zm.201-.946a.281.281 0 0 0 .395.04.286.286 0 0 0 .11-.232v-.006a.31.31 0 0 1-.131.171l-.024.011a.2.2 0 0 1-.05.02.343.343 0 0 1-.287-.084h-.006a.31.31 0 0 1-.081.06.207.207 0 0 1-.257-.035.33.33 0 0 1-.084-.156c-.01.292.24.402.415.211m1.328.122h.005a1.11 1.11 0 0 1 .286-.604.055.055 0 0 0-.012-.056 1.5 1.5 0 0 0-.11.14l-.02.029a.91.91 0 0 0-.14.373.6.6 0 0 0-.009.118m-1.575-.223a.11.11 0 0 0 .102.025.305.305 0 0 0 .12-.143c0-.008.007-.009.017 0a.317.317 0 0 0 .173.14c.079.025.188 0 .167-.137a.53.53 0 0 0-.088-.191l-.035.012c-.177.048-.354.09-.533.126a.22.22 0 0 0 .078.167Zm1.192 1.58c0 .03-.02.033-.024.057a.28.28 0 0 0 .024-.057m-1.161 1.991.044-.047a.338.338 0 0 1-.157-.205.262.262 0 0 0 .11.25Zm1.042-1.308c.012-.021 0-.039-.024-.048v.006a.44.44 0 0 0-.072.129l-.007.02a.2.2 0 0 1-.009.036.15.15 0 0 1-.009.051v.015a.6.6 0 0 0 0 .063.453.453 0 0 1 .121-.271Zm-8.402-6.426a.29.29 0 0 0 .045.084l.033-.016a.73.73 0 0 1-.099-.201.42.42 0 0 0 .021.133m9.035 6.367-.012.035a.58.58 0 0 0-.017.174.86.86 0 0 1 .32-.508.077.077 0 0 0 0-.073 1.03 1.03 0 0 0-.231.263.6.6 0 0 0-.045.083Zm-.817.048a.526.526 0 0 0-.177.721.55.55 0 0 0 .096.115l-.33.283a.484.484 0 0 0-.239-.244.154.154 0 0 0-.198.172.5.5 0 0 0 .24.239c-.12.09-.165.12-.206.239a.162.162 0 0 0 .22.194.65.65 0 0 0 .253-.302.572.572 0 0 0 .288.239.143.143 0 0 0 .17-.11.14.14 0 0 0 0-.074.65.65 0 0 0-.274-.239 2.69 2.69 0 0 1 1.338-.678 1.595 1.595 0 0 1 1.199.309c.045-.166-.127-.297-.314-.394a1.107 1.107 0 0 1 .479-.534c-.317-.178-.598.128-.705.418a1.32 1.32 0 0 0-.44-.099.827.827 0 0 1 .519-.66c-.493-.095-.747.378-.816.688l-.44.099a.734.734 0 0 1 .276-.82c-.397.055-.645.39-.49.934l-.388.198a.729.729 0 0 1-.061-.694m1.561.151h.034a.8.8 0 0 1 .53-.395.066.066 0 0 0 0-.079.62.62 0 0 0-.167.044.7.7 0 0 0-.267.22 1.8 1.8 0 0 0-.132.19Zm.071-2.416a.21.21 0 0 1-.007.063v.067a1.26 1.26 0 0 1 .518-.77.04.04 0 0 0-.022-.053 1.164 1.164 0 0 0-.489.693m-1.365.681-.533.282c-.073-.22-.191-.33-.281-.358-.19-.029-.292.152-.269.167-.015.127.093.22.191.299-.11.082-.22.22-.22.297a.202.202 0 0 0 .158.238.2.2 0 0 0 .08 0 .57.57 0 0 0 .239-.238c.045.137.11.29.272.309a.213.213 0 0 0 .22-.21.468.468 0 0 0-.184-.267 4.72 4.72 0 0 1 1.966-.66 1.736 1.736 0 0 1 1.592.522 1.008 1.008 0 0 0-.426-.734.99.99 0 0 1 .523-.399c-.26-.206-.574-.063-.78.322l-.528-.043a.814.814 0 0 1 .522-.728c-.543-.281-.782.403-.856.758l-.51.093a1.047 1.047 0 0 1 .409-1.015c-.434.029-.724.343-.737 1.075l-.55.165a1.011 1.011 0 0 1 .136-.918.728.728 0 0 0-.489.907.7.7 0 0 0 .055.136M10.375 2.24l.032.027a.213.213 0 0 0-.039-.174h-.016l-.836.103v.143l.805-.096Zm8.405 1.539q-.69-.2-1.383-.385v-.259l1.375.418v-.338l-1.357-.41v-.251l1.357.403v-.315l-1.693-.454v1.43l1.701.507ZM17.494 2.67v.073l1.349.411.009-.057c-.03-.013-.064-.031-.088-.039-.418-.146-.842-.276-1.27-.388m-.01.659 1.373.389v-.036q-.68-.237-1.373-.43Zm-4.427 19.172a.167.167 0 0 0-.159-.179.06.06 0 0 0-.02 0h-1.562a.07.07 0 0 1-.073-.067v-.083a.074.074 0 0 1 .066-.084.04.04 0 0 1 .017 0h1.721v-.22h-1.826c-.096 0-.192.05-.192.15v.358a.157.157 0 0 0 .137.173.1.1 0 0 0 .026 0h1.491c.044 0 .155-.011.155.056v.096c0 .044-.016.078-.094.078h-1.715v.22h1.843a.176.176 0 0 0 .186-.165.2.2 0 0 0 0-.024Zm-2.363.014v-.471c0-.134-.056-.213-.166-.213h-1.99v1.126h.22v-.268h1.579l.119.257h.258l-.131-.252a.165.165 0 0 0 .111-.179m-.213-.157c0 .067-.028.101-.101.101H8.762v-.416h1.618c.067 0 .101.035.101.09Zm.007-19.356a.84.84 0 0 0-.11-.187c-.034-.053-.067-.07-.11-.064l-.66.061c-.046-.008-.085.032-.079.059v.11a1.23 1.23 0 0 1 .33-.048c.279-.023.33-.031.448-.036a.627.627 0 0 1 .21.303l.007.024a.8.8 0 0 1 .028.093 4.8 4.8 0 0 1 .507-.052v-.018h-.009l-.044-.12a4 4 0 0 0-.455.047.8.8 0 0 0-.063-.172m2.248.057c-.286.013-.575.02-.861.028l-.44.016c-.1 0-.197.009-.296.011v.119l1.582-.033a.202.202 0 0 0 .204-.177V2.88c-.025.091-.068.174-.189.179m2.727-.116c.289.059.55.101.859.151v-.138c-.287-.053-.573-.101-.861-.152Zm-2.084.316 1.552.153v-.137h-.034l-1.582-.163a.226.226 0 0 1-.2-.22v.142a.249.249 0 0 0 .264.225m1.483-.071v-.256l-1.227-.11a.195.195 0 0 1-.142-.086v-.702a.35.35 0 0 1 .092-.084c.393.018.859.076 1.289.139V1.83l-1.408-.135c-.092.007-.22.028-.249.141l-.012 1.087a.152.152 0 0 0 .12.121Zm-1.285-1.149v.131l.017-.012v-.007c.448.037.918.086 1.304.152h.042l.006-.007V2.16a12.4 12.4 0 0 0-1.337-.158.06.06 0 0 0-.032.037m1.804 1.219v-.534l1.028.184.008.55.3.053V2.097l-.304-.076.01.601-1.031-.17-.009-.575-.272-.048.007 1.396Zm-5.924-.039-.012-.385h.012a.169.169 0 0 1 .157-.084l.696-.067a.275.275 0 0 1 .136.09 1.47 1.47 0 0 1 .169.316l.33-.033a3.4 3.4 0 0 0-.213-.415.36.36 0 0 0-.061-.083c.048-.042.095-.086.139-.132l.02-.046-.02-.513a.22.22 0 0 0-.147-.162h-.101l-1.406.155.037 1.4a1.9 1.9 0 0 0 .264-.041M9.55 2.1c.012-.007.754-.091.754-.091h.097a.2.2 0 0 1 .076.072.363.363 0 0 1 .02.208c-.033.061-.047.11-.129.139l-.786.091-.086.012a.08.08 0 0 1-.044-.056v-.316A.132.132 0 0 1 9.55 2.1m1.805.381 1.128.012a.194.194 0 0 1 .096.135.143.143 0 0 1-.059.131l-1.299.039-.008.239 1.54-.044a.132.132 0 0 0 .09-.083l.008-.61c-.017-.047-.044-.064-.12-.08l-1.131.024a.168.168 0 0 1-.099-.22l.008-.019a.25.25 0 0 1 .09-.091l1.255.012v-.234l-1.48-.011a.22.22 0 0 0-.163.11c-.009.185-.017.358-.01.55a.22.22 0 0 0 .152.148Zm-.05.19 1.175-.021v-.076a.052.052 0 0 1-.022-.024l-1.1-.01a.29.29 0 0 1-.24-.22v.134a.288.288 0 0 0 .187.217m7.557 1.704v-.147l-1.87-.561v.14c.359.1.732.22 1.083.32.293.087.57.173.787.248m-7.26-2.284a.1.1 0 0 0 .016.021l1.131-.012a.6.6 0 0 1 .104.04l.081-.013V1.99h-.008l-.056.011-1.229-.02a.087.087 0 0 0-.039.11m4.727 1.568a3.2 3.2 0 0 1 .47.084V3.6c-.016 0-.468-.083-.468-.083Zm-4.711-1.547h-.008Zm3.848 1.238a2.53 2.53 0 0 0-.428-.063v.144a2.7 2.7 0 0 1 .419.055Zm-8.304.244H7.15a.144.144 0 0 0 .119.037l.176-.037c.469-.098 1.1-.22 1.227-.265a.262.262 0 0 0 .175-.239l-.029-.968a.205.205 0 0 0-.171-.146h-.102l-1.273.257a.339.339 0 0 0-.21.24l.056 1.057a.103.103 0 0 0 .044.064m.359-1.139.785-.15h.12a.184.184 0 0 1 .089.125l.007.52a.153.153 0 0 1-.122.178h-.007l-.836.172h-.092a.132.132 0 0 1-.077-.11l-.013-.597c.033-.095.083-.107.141-.138Zm-1.102.533V3c0-.018.012-.035.012-.052s-.011-.048-.01-.073h-.01V2.84l-.965.304v.138l.946-.294Zm1.3 5.615c.015-.026.015-.041 0-.057h-.015a.81.81 0 0 0-.233.302.92.92 0 0 1 .248-.245m-.997-5.206-.63.195-.623.193v.135l1.065-.33.22-.069a.211.211 0 0 0 .156-.184l.009-.118c-.015.106-.12.144-.197.178m1.512 5.591a.55.55 0 0 0-.027.11h.013a1.57 1.57 0 0 1 .575-.679c.011-.007.009-.022.007-.048s0-.014 0-.015H8.79a1.362 1.362 0 0 0-.556.632m-3.11-4.454a3.1 3.1 0 0 1 .33-.101v-.152a5.4 5.4 0 0 0-.514.182l.01.131c.062-.019.122-.04.174-.06m0-.218.261-.083-.01-.492.489-.155.88-.277a.153.153 0 0 0 .099-.11l-.011-.695a.134.134 0 0 0-.085-.093.36.36 0 0 0-.119-.021 3.14 3.14 0 0 0-.573.157c-.348.11-.777.238-1.075.336l.018 1.471Zm.248-1.21a.116.116 0 0 1 .07-.053l.965-.305c.083-.012.11.087.11.16a.308.308 0 0 1-.06.231l-.99.321c-.036 0-.08.012-.092-.032ZM7.315 9.2a.92.92 0 0 1 .138-.33c-.034.059-.101.092-.121.158a.54.54 0 0 0-.017.172m-.108-5.365a4.3 4.3 0 0 0 .681-.12c.118-.022.238-.051.358-.076l.207-.044c.08-.017.161-.036.239-.061.139-.052.186-.118.227-.292V3.11a.377.377 0 0 1-.217.281l-.945.198-.514.11a.199.199 0 0 1-.194-.11l-.012-.022v.025c.015.121.1.238.17.243m-2.009 7.11a.283.283 0 0 0 .317.145h.012a.55.55 0 0 0 .184-.072.44.44 0 0 0 .079-.058.373.373 0 0 0 .357.13l.06-.016a.272.272 0 0 0 .193-.199.419.419 0 0 1-.584.032l-.023-.022c-.197.118-.506.278-.636-.12a.43.43 0 0 0 .041.18m2.939 10.882H6.213a.11.11 0 0 0-.11.11v.897a.11.11 0 0 0 .11.11h1.923a.11.11 0 0 0 .105-.11v-.896a.11.11 0 0 0-.104-.111m-.192.906h-1.54a.078.078 0 0 1-.084-.07v-.569a.078.078 0 0 1 .084-.07h1.54a.078.078 0 0 1 .083.07v.569a.078.078 0 0 1-.083.07m1.594-19.3-.011-.155a2.4 2.4 0 0 0-.384.077.48.48 0 0 0 .009.119 1.57 1.57 0 0 1 .386-.041m-3.13 7.432s-.007.005-.009.01h.009Zm1.57-8.267.311-.058h.01a.28.28 0 0 1 .096 0l.024.064v-.126a.25.25 0 0 0-.029-.092h-.057l-.761.136a.194.194 0 0 0-.11.076l-.007.141a.21.21 0 0 1 .088-.058c-.002-.007.229-.048.435-.083m-1.541 8.237c0 .008-.012.008-.014.015Zm-.833 10.998H3.642v1.126h.22v-.263h1.781a.179.179 0 0 0 .162-.191v-.506c0-.162-.131-.166-.2-.166m-.028.514c0 .078-.028.11-.091.11H3.862v-.422h1.609c.079 0 .11.04.11.084ZM6.779 8.909c.009-.023.011-.028-.016-.055a.525.525 0 0 0-.191.252.715.715 0 0 0-.047.296.728.728 0 0 1 .254-.493m-.355 1.892a.23.23 0 0 0-.015-.09.293.293 0 0 1 0 .154c0-.007.013-.007.015-.015a.25.25 0 0 0 0-.049"/></svg>