<svg xmlns="http://www.w3.org/2000/svg" fill="#44739e" viewBox="0 0 24 24"><path d="m5.754 7.29-.006.01c.078.065.258.056.4-.109a.207.207 0 0 0 .1.123.3.3 0 0 0 .256.013c.079-.038.1-.2-.047-.371a6.763 6.763 0 0 1 3.373-.92 1.79 1.79 0 0 1 .967.354c0-.272-.382-.5-.716-.543a.789.789 0 0 1 .766-.38.94.94 0 0 0-.149-.083.65.65 0 0 0-.218-.054.54.54 0 0 0-.265.054.87.87 0 0 0-.386.435l-.7.009a1.09 1.09 0 0 1 .152-.447.917.917 0 0 1 .509-.369.682.682 0 0 0-.86.368 1.22 1.22 0 0 0-.108.464l-.76.177a.88.88 0 0 1 .191-.64 1.7 1.7 0 0 1 .244-.223.6.6 0 0 0-.608.223 1.03 1.03 0 0 0-.126.738l-.837.275a1.031 1.031 0 0 1 .407-.988.77.77 0 0 0-.152.025.842.842 0 0 0-.51 1.031.46.46 0 0 0 .016.09L6.6 6.6l-.3.173c-.081-.217-.149-.257-.288-.233a.17.17 0 0 0-.146.114.335.335 0 0 0 .1.256.4.4 0 0 0-.206.109.2.2 0 0 0-.023.252.12.12 0 0 0 .017.019m.012-.415-.018-.052-.025-.081.016.133ZM7.144 5.8a.65.65 0 0 0-.05.166 1.2 1.2 0 0 1 .136-.2 2.3 2.3 0 0 1 .3-.271v-.034l-.009-.011H7.5a1.2 1.2 0 0 0-.325.3.27.27 0 0 0-.031.05M5.742 7.524a.5.5 0 0 0 .095.01.312.312 0 0 0 .269-.1.25.25 0 0 0 .048.049.324.324 0 0 0 .266.056.287.287 0 0 0 .29-.284.3.3 0 0 0 0-.041.45.45 0 0 1-.033.086.273.273 0 0 1-.233.158.377.377 0 0 1-.26-.031.26.26 0 0 1-.076-.071.358.358 0 0 1-.316.094l-.045-.006a.236.236 0 0 1-.184-.159.3.3 0 0 1-.022-.054.5.5 0 0 0 .019.132v.009a.217.217 0 0 0 .182.152m1.35-1.56.002-.004-.001.001Zm0 0a.64.64 0 0 0-.064.214.73.73 0 0 1 .064-.214m-.556.536c-.008-.076-.021-.154-.032-.231a1.05 1.05 0 0 0 .018.231Zm5.283 2.933.001.001zm2.467 2.084.011-.235V7.994H9.673h.005l.01 2.939v.156H9.7v.385a2.321 2.321 0 0 0 2.444 2.192l.067-.005a2.171 2.171 0 0 0 2.089-2.144Zm-.5-3.381h.23v.1h-.068v.5h-.1v-.5h-.064zm-.563-.01h.235a.21.21 0 0 1 .188.147.3.3 0 0 1 0 .167.16.16 0 0 1-.128.108l.114.166-.087.057-.13-.193h-.084v.155h-.108zm-.514.438.188-.512.04.109.076.2.133.358-.1.036-.032-.109h-.239l-.026.076-.011.033-.016-.009-.078-.018Zm-.588-.171a.33.33 0 0 1 .044-.14.2.2 0 0 1 .125-.109.2.2 0 0 1 .194.053l-.072.073a.16.16 0 0 0-.037-.026.079.079 0 0 0-.067 0 .17.17 0 0 0-.05.049.26.26 0 0 0-.034.1.6.6 0 0 0 0 .146.24.24 0 0 0 .015.074h.009a.24.24 0 0 0 .071.09.04.04 0 0 0 .021.006.083.083 0 0 0 .044-.005.13.13 0 0 0 .054-.058.2.2 0 0 0 .006-.034.8.8 0 0 0 .009-.1h-.084v-.1h.184v.177a.24.24 0 0 1-.04.116.2.2 0 0 1-.113.095.25.25 0 0 1-.108 0 .2.2 0 0 1-.056-.022.19.19 0 0 1-.043-.042.26.26 0 0 1-.03-.051.5.5 0 0 1-.046-.29Zm-.358-.257h.232v.1h-.069v.5h-.1v-.5h-.065zm-.4 0h.232v.1h-.07v.5h-.1v-.5h-.065Zm-.555.069h.1v.434a.127.127 0 0 0 .167.067.13.13 0 0 0 .067-.067v-.434h.1v.434a.223.223 0 0 1-.434 0zm-.38-.072h.231v.1h-.068v.5h-.1l-.006-.5h-.065Zm-.2.458a.094.094 0 0 0-.067-.061.4.4 0 0 1-.12-.02.154.154 0 0 1-.119-.119.2.2 0 0 1 0-.128.18.18 0 0 1 .138-.109.3.3 0 0 1 .119 0 .16.16 0 0 1 .108.071l-.08.06a.21.21 0 0 0-.056-.033.11.11 0 0 0-.083 0 .21.21 0 0 0-.054.04.084.084 0 0 0 0 .066c.011.022.016.041.049.051s.078.011.116.022a.2.2 0 0 1 .15.138.167.167 0 0 1 0 .108.192.192 0 0 1-.148.127.41.41 0 0 1-.131 0 .223.223 0 0 1-.142-.093L10 8.665a.146.146 0 0 0 .057.042.22.22 0 0 0 .109 0 .086.086 0 0 0 .069-.1zm3.722 2.584h-.1a1.8 1.8 0 0 0-.169-.068.094.094 0 0 0-.07 0 .28.28 0 0 0-.1.08c-.016.014-.017.024-.012.035a.355.355 0 0 1 0 .183.43.43 0 0 1-.049.119 1.54 1.54 0 0 0-.189.293.33.33 0 0 0 0 .187.73.73 0 0 0 .108.162 1 1 0 0 1 .082.108c.011.021.016.047 0 .059a.063.063 0 0 0-.038.05c0 .065-.019.065-.039.079a.87.87 0 0 0-.163.191.4.4 0 0 0-.037.069.145.145 0 0 1-.079.1 1.27 1.27 0 0 0-.257.157c-.025.027-.014.075 0 .109a.047.047 0 0 1 0 .043c-.026.057-.13.033-.171.069a.081.081 0 0 1-.074 0c-.028-.009-.027-.056 0-.085a1.4 1.4 0 0 1 .109-.142.235.235 0 0 1 .071-.114c.076-.076.146-.142.217-.217a1.04 1.04 0 0 0 .157-.343c.015-.057-.019-.066-.037-.087a.5.5 0 0 1-.31-.207.041.041 0 0 0-.058 0 .3.3 0 0 1-.055.057c0 .075.02.151.02.227a.26.26 0 0 1-.05.054 3.3 3.3 0 0 1-.365.216c-.026.013-.05.028-.076.043q-.114.065-.228.138c-.032.028-.065.049-.045.109.013.035.007.043 0 .054l-.17.05c-.051.008-.059-.036-.051-.054a1.1 1.1 0 0 0 .1-.137.32.32 0 0 1 .123-.127c.1-.059.184-.119.28-.182l.009-.006a.28.28 0 0 0 .08-.081 1 1 0 0 1 .115-.138.073.073 0 0 0 .042-.078.15.15 0 0 0-.03-.082.57.57 0 0 1-.128-.181.218.218 0 0 1 0-.147c.028-.081 0-.074-.033-.09h-.054a4.1 4.1 0 0 1-.443-.006l-.136-.045a.58.58 0 0 1-.2-.132c-.027-.032-.049-.035-.092 0a.4.4 0 0 1-.163.089.28.28 0 0 1-.141 0 .47.47 0 0 0-.133-.028c-.049-.011-.082-.03-.124-.039s-.1-.006-.152-.011c-.023.019-.011.054-.041.082l-.017.02v.187a1.7 1.7 0 0 0 .037.26v.073a.03.03 0 0 0 .027.021c.021.008.04.017.043.036s.035.022.065 0h.074c.025.01.04.033.018.07l-.115.132c-.022.019-.035.021-.061 0-.046-.063-.072-.134-.139-.156a.118.118 0 0 1-.066-.087 3.1 3.1 0 0 1-.014-.347 1.3 1.3 0 0 0-.022-.278c-.022-.07-.011-.138.052-.16a.28.28 0 0 0 .087 0 2.2 2.2 0 0 0 .326-.076c.009 0 .01-.014.009-.025a.06.06 0 0 0-.011-.022.21.21 0 0 0-.044-.076l-.058-.007c-.087-.011-.1-.06-.123-.115-.014-.022-.011-.089-.029-.118l-.155-.217a.044.044 0 0 0-.063-.005l-.006.005a.94.94 0 0 0-.148.2.55.55 0 0 0-.054.108c-.011.021 0 .06-.016.075a.265.265 0 0 1-.092.122l-.011.032v.014a.133.133 0 0 0 0 .074.18.18 0 0 1 .035.027.05.05 0 0 1-.011.06.47.47 0 0 0-.15.073c-.007.013-.048.008-.06 0a.116.116 0 0 1 0-.1.4.4 0 0 1 .057-.094l.032-.04h.007c-.008-.072.032-.087.04-.131l.054-.167a2.2 2.2 0 0 1 .13-.2c.019-.017.02-.066.043-.077l.054-.066a.21.21 0 0 1 .087-.1c.039-.023.073-.036.111-.009a.57.57 0 0 1 .086.151c.007.033.041.055.063.076a.6.6 0 0 1 .069.04.062.062 0 0 0 .084 0c.024-.044.039-.1.06-.147a.716.716 0 0 1 .3-.4.076.076 0 0 0 .038-.041.2.2 0 0 0 .011-.041.216.216 0 0 1 .048-.114c.018-.021.018-.039 0-.055a.13.13 0 0 0-.046-.015.26.26 0 0 1-.061-.014c-.007-.012-.043-.011-.065-.014-.06.069-.092.05-.138.09a.037.037 0 0 1-.038 0 .13.13 0 0 1-.039-.022.024.024 0 0 1 0-.023v-.01a.21.21 0 0 1 .051-.038.023.023 0 0 0 0-.027.1.1 0 0 0-.063 0 .11.11 0 0 1-.038.022H10.8a.19.19 0 0 1-.058-.038l-.013-.013.009-.013a.96.96 0 0 1 .141-.094.3.3 0 0 1 .04-.062c.069-.048.145-.083.217-.131h.164a.037.037 0 0 0 .01-.035l-.055-.052-.077-.076c-.017-.022-.011-.035 0-.044h.033a.3.3 0 0 1 .1.036h.108a.44.44 0 0 0 .125-.073h.009a.32.32 0 0 1 .082-.047.285.285 0 0 0 .151-.093l.009-.009a.36.36 0 0 1 .192-.13h.068a.012.012 0 0 1 .006.022h-.011a.2.2 0 0 0-.116.13.11.11 0 0 0 0 .063.15.15 0 0 0 .028.038.21.21 0 0 0 .059.033h.115a.9.9 0 0 1 .217-.063h.134a.213.213 0 0 1 .109.04c.022.012 0 .025-.011.036h-.108a.276.276 0 0 0-.109.079.054.054 0 0 0 0 .07.11.11 0 0 1 .042.046c.011.024.018.048.027.073a.64.64 0 0 1 .109.085.6.6 0 0 1 .128.1.133.133 0 0 1 .029.083c-.01.013-.021.014-.034 0a.34.34 0 0 0-.128-.074.066.066 0 0 0-.061 0l-.036.03a.019.019 0 0 0 0 .027v.006a.3.3 0 0 1 .125.074.59.59 0 0 1 .069.156.037.037 0 0 1 .011.033c-.02.021-.027.021-.042.011a.41.41 0 0 0-.168-.12h-.059c-.027.009-.041.014-.016.052a.33.33 0 0 1 .1.138l.009.041v.13c-.007.015-.014.014-.022 0a.27.27 0 0 0-.117-.1.24.24 0 0 0-.13 0 .3.3 0 0 0-.135.134c-.027.065-.066.274-.01.342a.323.323 0 0 0 .217.149 3.7 3.7 0 0 0 .535-.011h.26a.566.566 0 0 1 .342.217.033.033 0 0 0 .042 0 .45.45 0 0 0 .1-.152.145.145 0 0 0 0-.092 1 1 0 0 1-.024-.067 1.6 1.6 0 0 0-.236-.355.41.41 0 0 1-.079-.16.25.25 0 0 1 0-.108.23.23 0 0 1 .044-.09c.02-.014.029-.015.035 0s0 .065.008.086a.9.9 0 0 0 .061.109.031.031 0 0 0 .044 0 2.2 2.2 0 0 0 .05-.217c0-.034.039-.065.067-.088a.66.66 0 0 1 .211-.1c.032-.016.039-.032.058-.079.011-.022.043-.024.049-.009a.187.187 0 0 1-.038.133.65.65 0 0 1-.079.069.23.23 0 0 0-.049.078.38.38 0 0 1-.09.126.077.077 0 0 0 0 .087.34.34 0 0 0 .042.071.043.043 0 0 0 .061 0 .234.234 0 0 0 .1-.2.02.02 0 0 1 .028-.006l.006.006a.163.163 0 0 1 .018.171.59.59 0 0 1-.12.129c-.01.01-.008.021 0 .036a.26.26 0 0 1 .059.08c.011.03.058.031.109.009a.084.084 0 0 0 .032-.03c.016-.025.032-.027.039.009v.054a.224.224 0 0 1-.217.117.068.068 0 0 0 0 .087.14.14 0 0 0 .04.038.086.086 0 0 0 .09 0 .37.37 0 0 0 .109-.115.006.006 0 1 1 .011 0 .13.13 0 0 1 0 .109.373.373 0 0 1-.12.15c-.027.019-.013.05 0 .065a.18.18 0 0 0 .052.044h.14a.19.19 0 0 1-.116.09M6.079 9.218l.009.013c.152.282.614.1.561-.138a.174.174 0 0 1-.032.072.327.327 0 0 1-.456.068.35.35 0 0 1-.081-.083.324.324 0 0 1-.336.086.38.38 0 0 1-.174-.217.333.333 0 0 0 .042.163.272.272 0 0 0 .132.116.315.315 0 0 0 .335-.08m7.472-.812a.164.164 0 0 0 0-.093.155.155 0 0 0-.141-.084h-.09v.253h.091a.171.171 0 0 0 .14-.076m-.615.084-.052-.135-.077.206h.156zm-1.116.944h-.015l-.022-.014-.029-.011h-.022a.16.16 0 0 0-.044 0 .1.1 0 0 0-.016.026.039.039 0 0 0 0 .044l.008.011a.22.22 0 0 1 .068.084l.008.015.024.068v.007a1.45 1.45 0 0 1 .047.4.86.86 0 0 0 0 .176.08.08 0 0 0 .008.026.077.077 0 0 0 .089 0 .158.158 0 0 0 .059-.1v-.036a1.48 1.48 0 0 0 .017-.4v-.02a.4.4 0 0 0-.18-.276m-5.275.536a1.2 1.2 0 0 0 .041.13l.01.026.022-.008a1.84 1.84 0 0 1-.106-.418 1.4 1.4 0 0 0 .033.27m.713-2.57a.75.75 0 0 0-.226.331.64.64 0 0 0-.041.217 1.1 1.1 0 0 1 .282-.509.031.031 0 0 0-.011-.047Zm.581.181h-.005a.83.83 0 0 0-.038.191.89.89 0 0 1 .153-.314c-.03.048-.092.069-.11.123m-2.105.934a.31.31 0 0 0 .014.125v.008l.008.013.008.022.036-.015a.4.4 0 0 1-.05-.109Zm10.083 5.444a.5.5 0 0 0-.048.046l-.006.008a.72.72 0 0 0-.16.271h.026a1.1 1.1 0 0 1 .484-.445c0-.019.008-.045-.016-.058a1.2 1.2 0 0 0-.166.1 1 1 0 0 0-.1.072zM8.223 7.151c-.116.054-.172.172-.244.274a.88.88 0 0 1 .252-.217.039.039 0 0 0 0-.055zm.138-1.717-.039.05-.022.03-.037.057a.68.68 0 0 0-.082.287.9.9 0 0 1 .311-.478 1.9 1.9 0 0 1 .193-.145v-.044l-.018-.013a1.07 1.07 0 0 0-.256.2.5.5 0 0 0-.05.056m1.972.276a.4.4 0 0 0-.035.047v.021h.041a.44.44 0 0 1 .248-.127 1.84 1.84 0 0 1 .385-.008l.016-.007.012-.011v-.043a.027.027 0 0 0-.014-.019h-.013a.777.777 0 0 0-.64.147m-.97-.253a.68.68 0 0 0-.1.257l.009.009a.73.73 0 0 1 .217-.334H9.5a1.24 1.24 0 0 1 .423-.235l.011-.025v-.048l-.026-.009a1.09 1.09 0 0 0-.494.312.6.6 0 0 0-.051.073m-.163 1.7a.58.58 0 0 0-.316.124.52.52 0 0 0-.182.257l-.018.035.016-.018a.5.5 0 0 0-.022.1.632.632 0 0 1 .564-.434.087.087 0 0 0 .058-.053v-.047h-.017c-.027.009-.015.038-.083.036m1.544-.625a1.708 1.708 0 0 0-1.012-.376 3.26 3.26 0 0 0-.684.026 7.63 7.63 0 0 0-2.388.8L6.671 7l.019.028v.011a7.77 7.77 0 0 1 2.352-.776 3.6 3.6 0 0 1 .623-.03 1.815 1.815 0 0 1 1.1.387.079.079 0 0 0 .109.022l.012-.009a.149.149 0 0 0 .039-.139.2.2 0 0 1-.043.063c-.038.034-.076.028-.138-.025m-.576.883c-.133.054-.428.1-.521.245h.041c0-.015 0-.02.011-.028.236-.15.515-.158.535-.217.009-.03 0-.039-.012-.043-.004.018-.032.028-.054.043m3.437 10.354v.011l-.017.027-.013.019v.01a.4.4 0 0 1-.027.028.4.4 0 0 1-.032.025h-.006l-.032.021h-.009a.22.22 0 0 1-.079.021h-.04a.16.16 0 0 1-.036-.008H13.3l-.032-.013-.014-.006a.51.51 0 0 1-.176-.157.57.57 0 0 1-.159.2.23.23 0 0 1-.086.037.17.17 0 0 1-.045 0 .2.2 0 0 1-.049 0 .378.378 0 0 1-.255-.228.327.327 0 0 0 .3.307c.133.01.249-.131.3-.244a.4.4 0 0 0 .3.2.281.281 0 0 0 .253-.281v-.007a.07.07 0 0 1-.011.029zm3.21-3.532c-.023.01-.058.021-.1.036a.87.87 0 0 0-.341.213l-.008.007.037.034c.272-.232.435-.18.465-.273l-.022-.042a.07.07 0 0 1-.031.025m-1.034-2.253a1.1 1.1 0 0 0-.084.1 1.1 1.1 0 0 0-.115.181l-.029.056c-.009.019-.01.031 0 .042l.012.013a1.5 1.5 0 0 1 .076-.144.913.913 0 0 1 .4-.342.059.059 0 0 0-.011-.067.87.87 0 0 0-.249.161m.87 3.386a.064.064 0 0 1-.051.029h-.01a.05.05 0 0 1-.022-.012.16.16 0 0 1-.038-.04 1.6 1.6 0 0 0-.074-.089 1.431 1.431 0 0 0-1.327-.434c-.146.021-.291.049-.435.083-.06.016-.123.031-.188.049a4.2 4.2 0 0 0-.8.3 2 2 0 0 0-.126.073l-.013.01.029.053a3.3 3.3 0 0 1 .52-.243c1.183-.414 1.872-.4 2.419.263.036.037.065.086.12.011a.256.256 0 0 0 .043-.17.4.4 0 0 0 0-.048l-.028.135a.1.1 0 0 1-.019.03m-.909.961-.025.014-.021.014a.88.88 0 0 0-.218.2.9.9 0 0 0-.065.109c0 .014 0 .026.019.026a.863.863 0 0 1 .412-.345.033.033 0 0 0 .029-.013l-.009-.061a.63.63 0 0 0-.122.056m2.68-3.048a7.45 7.45 0 0 0 .259-2.063l.1-8.078a8 8 0 0 0-.314-.128 13.96 13.96 0 0 0-2.364-.651 20.9 20.9 0 0 0-7.756 0 14.06 14.06 0 0 0-2.983.937l-.249.109.108 7.869c-.04 3.194 2.618 6.721 5.752 8.151a5 5 0 0 0 .986.3.36.36 0 0 0 .114.007 3.66 3.66 0 0 0 .925-.349l.217-.1a9.9 9.9 0 0 0 5.205-6.004m.017-2.047h-3.778l-.024-1.751h3.808zm.043-7.915v.271zm0 4.3-6.368-.012V6l6.366.016ZM5.437 3.661a4.44 4.44 0 0 1 1-.413c.255-.079.543-.158.853-.235a22.1 22.1 0 0 1 2.366-.441c.227-.032.5-.065.793-.09l.217-.018c.442-.036.886-.058 1.324-.061h.44a21.3 21.3 0 0 1 6.022.988l.013 1.074.01.631v.288h-.016a14.03 14.03 0 0 0-2.821-.808 19 19 0 0 0-3.85-.353 14.3 14.3 0 0 0-1.691.109A17.9 17.9 0 0 0 5.848 5.38l-.1.044-.162.07-.125.051-.014-.453Zm.163 7.551v.007l-.14-5.567.04-.019.246-.109c.12-.049.239-.1.362-.145a13.5 13.5 0 0 1 1.3-.421 18.6 18.6 0 0 1 3.631-.593l.265-.013h.475v3.272c-.774 0-1.51.013-2.132.041l-.194.011c.078-.207.34-.271.535-.35-.335-.206-.69-.058-.868.434-.192 0-.384.01-.575.024H8.49a.89.89 0 0 1 .543-.7l.036-.013h-.025c-.435-.083-.76.267-.8.734l-.6.145a1.128 1.128 0 0 1 .371-.784c-.39-.061-.625.4-.583.875l-.532.221a.835.835 0 0 1 .184-.838c-.175 0-.573.209-.463.946l-.421.21c-.033-.141-.083-.217-.149-.247-.152-.059-.347.126-.079.383a.55.55 0 0 0-.217.109.168.168 0 0 0-.039.235.16.16 0 0 0 .039.039l.021.014a.306.306 0 0 0 .351-.131c.052.134.087.217.237.21s.256-.123.043-.4a7.27 7.27 0 0 1 1.968-.726 3.52 3.52 0 0 1 .983-.037v.179a1.88 1.88 0 0 0-1.064-.017 7.24 7.24 0 0 0-1.7.636l.013.033.015.029a6.4 6.4 0 0 1 1.611-.609 2.005 2.005 0 0 1 1.118 0v.76a.614.614 0 0 0-.3.383L8.4 9.5a1.094 1.094 0 0 1 .5-.839c-.257-.05-.731.211-.723.906l-.525.162a.624.624 0 0 1 .02-.543 1.15 1.15 0 0 1 .088-.141c.049-.071.1-.134.142-.19h-.033c-.242.021-.543.224-.465.782a1.4 1.4 0 0 0 .032.179l-.175.084-.285.122a1.009 1.009 0 0 1 .09-.868c-.391-.011-.543.425-.307.99l-.3.211c-.109-.217-.242-.275-.34-.239-.119.044-.186.228.048.42-.257.078-.326.217-.245.369.053.109.209.127.441-.122.1.119.16.191.317.157.12-.027.239-.149-.027-.4.13-.087.254-.166.377-.239.076-.047.152-.089.228-.128a4 4 0 0 1 2.1-.481v.143a4.107 4.107 0 0 0-2.44.66l-.027.017-.1.057.009.031a.69.69 0 0 1 .108.21.82.82 0 0 0-.08-.185c.224-.118.466-.247.725-.363a4.76 4.76 0 0 1 .72-.262c.062-.016.124-.029.187-.042a4 4 0 0 1 .579-.058 2.05 2.05 0 0 1 .313.024v1.3h-3.6v-.01zm.222 2.049H10.1a2.81 2.81 0 0 0 1.77.75v.881H6.504a7.58 7.58 0 0 1-.686-1.631Zm6.052 6.186a6.87 6.87 0 0 1-2.262-1.107 8.86 8.86 0 0 1-1.555-1.364h3.816zm-2.357-7.856c0-.038-.006-.075-.008-.112V7.834h2.271v-.008h2.669v3.7h-.008a2.357 2.357 0 0 1-2.24 2.3 2.469 2.469 0 0 1-2.684-2.235m2.721 7.789v.008h-.026v-5.31l.109-.014.06-.008a3.3 3.3 0 0 0 .553-.124c.065-.022.133-.046.2-.073a2.28 2.28 0 0 0 .586-.352l.064-.019c.434-.137.881-.278 1.311-.373a3.22 3.22 0 0 1 .818-.091 2.26 2.26 0 0 1 1.1.326 4.9 4.9 0 0 1 .4.3l.049.041c.043.037.094.057.109-.027l.01-.122-.021.092a.051.051 0 0 1-.071.006v-.006a1.5 1.5 0 0 1-.139-.108 2.5 2.5 0 0 0-.263-.2l-.047-.026-.025-.017a2.15 2.15 0 0 0-.542-.244l-.076-.02h-.008a3.594 3.594 0 0 0-1.825.144c-.109.03-.217.062-.317.094s-.217.066-.315.1l-.074.024-.074.028.007-.006a2.46 2.46 0 0 0 .323-.338c-.024.028-.043.06-.067.088l.114-.038a4.52 4.52 0 0 1 2.121-.272 1.973 1.973 0 0 1 1.12.586.582.582 0 0 0-.338-.6.045.045 0 0 1 0-.042.9.9 0 0 1 .565-.347.493.493 0 0 0-.456-.109.737.737 0 0 0-.424.383h-.026l-.457-.185a.068.068 0 0 1 0-.062.926.926 0 0 1 .582-.519.527.527 0 0 0-.6-.005 1.164 1.164 0 0 0-.38.584 4.6 4.6 0 0 1-.482-.024.867.867 0 0 1 .434-.667v-.016a.678.678 0 0 0-.625.159 1.065 1.065 0 0 0-.26.63l-.5.123-.086.022a3.4 3.4 0 0 1-.212.281 2.34 2.34 0 0 0 .245-.392 3.01 3.01 0 0 0 .286-1.114h3.76a9.5 9.5 0 0 1-6.19 7.851m4.892 2.001h-1.467v-.423l-.199.001V22h.199v-.42h1.467V22h.199v-1.042h-.199Zm2.467-.222v-.199h-1.96v1.028h1.96v-.199h-1.761v-.223h1.761v-.199h-1.761v-.208zm-3.166-8.727v.006l.019.015h.009a.837.837 0 0 1 .556-.38.053.053 0 0 0 0-.069.83.83 0 0 0-.27.089.86.86 0 0 0-.314.339m1.421.068a.026.026 0 0 1-.009.016c-.014.017-.045.015-.072.022a.85.85 0 0 0-.244.064h-.009a.61.61 0 0 0-.2.126.34.34 0 0 0-.035.041.037.037 0 0 0 .021.026h.014a.933.933 0 0 1 .5-.2.11.11 0 0 0 .048-.046V12.5Zm-2.27 4.7-.02.021c-.037.025-.057-.009-.085-.024a1.11 1.11 0 0 0-.542-.287l-.055-.01h-.115a1.4 1.4 0 0 0-.171 0h-.008l-.076.008h-.01l-.07.011h-.02l-.065.015-.024.007-.061.017-.027.008-.058.019-.029.01-.057.022-.025.011a.5.5 0 0 0-.061.026l-.019.008-.067.033H13.9a2.44 2.44 0 0 0-.416.264l-.022.019.043.036a1.536 1.536 0 0 1 1.969-.156c.04.028.075.072.109.011a.277.277 0 0 0 .058-.206v-.007l-.063.136zm-2.261 3.9v.7c0 .085.015.183.157.183h1.676v-.194h-1.563c-.051 0-.072-.02-.072-.091v-.449c0-.045.016-.1.087-.1h1.552v-.179h-1.674a.131.131 0 0 0-.163.13m-.311-5.281a.319.319 0 0 0 .6-.093.37.37 0 0 1-.106.126.332.332 0 0 1-.243.072.3.3 0 0 1-.076-.019.376.376 0 0 1-.174-.151H13a.6.6 0 0 1-.134.072.32.32 0 0 1-.153.023.28.28 0 0 1-.108-.041l-.023-.016-.008-.007a.62.62 0 0 1-.163-.269c.006.291.296.566.599.303m-.419-.633a.464.464 0 0 1-.108-.217.35.35 0 0 0 .073.239zm.183-.86a.255.255 0 0 0 .359.037.26.26 0 0 0 .1-.211v-.006a.282.282 0 0 1-.119.156l-.022.01a.18.18 0 0 1-.045.018.312.312 0 0 1-.261-.076h-.006a.28.28 0 0 1-.073.054.188.188 0 0 1-.234-.032.3.3 0 0 1-.076-.141c-.009.265.218.365.377.191m1.207.111h.005a1.01 1.01 0 0 1 .26-.549.05.05 0 0 0-.011-.051 1.4 1.4 0 0 0-.1.128l-.018.026a.83.83 0 0 0-.128.339.55.55 0 0 0-.008.107m-1.432-.202a.1.1 0 0 0 .093.022.277.277 0 0 0 .109-.13c0-.007.007-.008.016 0a.288.288 0 0 0 .157.128c.072.022.171 0 .152-.125a.48.48 0 0 0-.08-.174l-.032.011c-.161.044-.322.082-.485.115a.2.2 0 0 0 .071.152zm1.084 1.436c0 .027-.018.03-.022.052a.25.25 0 0 0 .022-.052m-1.055 1.81.04-.043a.307.307 0 0 1-.143-.186.238.238 0 0 0 .1.227zm.947-1.189c.011-.019 0-.036-.022-.044v.006a.4.4 0 0 0-.065.117l-.007.018a.2.2 0 0 1-.008.033.14.14 0 0 1-.008.046v.014a.5.5 0 0 0 0 .057.412.412 0 0 1 .11-.246zM5.887 10.45a.26.26 0 0 0 .041.076l.03-.014a.66.66 0 0 1-.09-.183.38.38 0 0 0 .019.121m8.213 5.788-.011.032a.53.53 0 0 0-.015.158.782.782 0 0 1 .291-.462.07.07 0 0 0 0-.066.94.94 0 0 0-.21.239.56.56 0 0 0-.041.076zm-.742.044a.478.478 0 0 0-.161.655.5.5 0 0 0 .087.105l-.3.257a.44.44 0 0 0-.217-.222.14.14 0 0 0-.18.157.455.455 0 0 0 .218.217c-.109.082-.15.109-.187.217a.147.147 0 0 0 .2.177.59.59 0 0 0 .23-.275.52.52 0 0 0 .261.217.13.13 0 0 0 .155-.1.127.127 0 0 0 0-.067.59.59 0 0 0-.249-.217 2.446 2.446 0 0 1 1.216-.617 1.45 1.45 0 0 1 1.09.281c.041-.151-.115-.27-.285-.358a1.006 1.006 0 0 1 .435-.485c-.288-.162-.543.116-.641.38a1.2 1.2 0 0 0-.4-.09.752.752 0 0 1 .472-.6c-.448-.087-.679.343-.742.625l-.4.09a.667.667 0 0 1 .251-.745c-.361.05-.586.354-.445.849l-.353.18a.663.663 0 0 1-.055-.631m1.419.137h.031a.727.727 0 0 1 .481-.359.06.06 0 0 0 0-.072.56.56 0 0 0-.151.04.636.636 0 0 0-.243.2 1.6 1.6 0 0 0-.12.173zm.064-2.196a.19.19 0 0 1-.006.057v.061a1.146 1.146 0 0 1 .471-.7.036.036 0 0 0-.02-.048 1.058 1.058 0 0 0-.445.63m-1.241.619-.484.256c-.067-.2-.174-.3-.256-.325-.172-.027-.265.138-.244.152-.014.115.084.2.173.271-.1.075-.2.2-.2.27a.184.184 0 0 0 .144.217.18.18 0 0 0 .073 0 .52.52 0 0 0 .217-.217c.041.125.1.264.247.281a.194.194 0 0 0 .2-.191.425.425 0 0 0-.167-.242 4.294 4.294 0 0 1 1.787-.6 1.578 1.578 0 0 1 1.448.474.916.916 0 0 0-.388-.667.9.9 0 0 1 .476-.363c-.237-.187-.522-.057-.709.293l-.48-.039a.74.74 0 0 1 .474-.662c-.493-.255-.711.366-.778.689l-.464.085a.952.952 0 0 1 .372-.923c-.394.026-.658.312-.67.977l-.5.15a.919.919 0 0 1 .124-.834.662.662 0 0 0-.445.824.64.64 0 0 0 .05.124M10.521 3.127l.029.025a.194.194 0 0 0-.035-.158H10.5l-.76.093v.13l.732-.087Zm7.641 1.399q-.627-.181-1.257-.35v-.235l1.25.38v-.307l-1.234-.373v-.228l1.234.366v-.286l-1.539-.413v1.3l1.546.461zm-1.169-1.008v.067l1.226.373.009-.052c-.028-.011-.059-.028-.08-.035-.38-.133-.766-.251-1.155-.353m-.009.599 1.248.354v-.033q-.618-.215-1.248-.391Zm-4.025 17.429a.152.152 0 0 0-.144-.162.05.05 0 0 0-.018 0h-1.42a.064.064 0 0 1-.067-.061v-.076a.067.067 0 0 1 .06-.076.04.04 0 0 1 .016 0h1.564v-.2h-1.66c-.087 0-.174.045-.174.136v.326a.143.143 0 0 0 .124.157.1.1 0 0 0 .024 0h1.355c.04 0 .141-.01.141.051v.087c0 .04-.014.071-.085.071h-1.559v.2h1.675a.16.16 0 0 0 .169-.15.2.2 0 0 0 0-.022zm-2.148.013v-.428c0-.122-.051-.194-.151-.194H8.851v1.024h.2v-.244h1.436l.108.234h.234l-.119-.229a.15.15 0 0 0 .101-.163m-.193-.143c0 .061-.026.092-.092.092H9.055v-.378h1.471c.061 0 .092.032.092.082zm.006-17.596a.76.76 0 0 0-.1-.17c-.031-.048-.061-.064-.1-.058l-.6.055c-.042-.007-.077.029-.072.054v.1a1.12 1.12 0 0 1 .3-.044c.254-.021.3-.028.407-.032A.57.57 0 0 1 10.65 4l.007.022a.7.7 0 0 1 .025.084 4.4 4.4 0 0 1 .461-.047v-.016h-.008l-.04-.109a3.6 3.6 0 0 0-.414.042.73.73 0 0 0-.057-.156m2.044.052c-.26.012-.523.018-.783.025l-.4.015c-.091 0-.179.008-.269.01v.108L12.654 4a.184.184 0 0 0 .185-.161v-.13c-.022.083-.061.158-.171.163m2.479-.106c.262.054.5.092.781.138v-.126c-.261-.048-.521-.092-.783-.138Zm-1.895.288 1.411.139v-.125h-.031l-1.438-.148a.205.205 0 0 1-.182-.2v.129a.226.226 0 0 0 .24.205m1.348-.065v-.233l-1.115-.1a.177.177 0 0 1-.129-.078V2.94a.32.32 0 0 1 .083-.076c.358.016.781.069 1.172.126v-.235l-1.28-.123c-.083.006-.2.025-.226.128l-.011.988a.138.138 0 0 0 .109.11zm-1.168-1.044v.119l.016-.011v-.007c.407.034.834.079 1.185.139h.038l.006-.007v-.123a11.3 11.3 0 0 0-1.216-.144.054.054 0 0 0-.029.034m1.64 1.108v-.486l.935.168.007.5.273.048V2.997l-.277-.069.009.547-.937-.155-.008-.523-.247-.043.006 1.269Zm-5.385-.036-.011-.35h.011a.154.154 0 0 1 .142-.076l.633-.061a.25.25 0 0 1 .124.082 1.34 1.34 0 0 1 .153.287l.3-.03a3.1 3.1 0 0 0-.193-.377.33.33 0 0 0-.056-.076c.044-.038.087-.078.127-.12l.018-.041-.018-.467a.2.2 0 0 0-.134-.147h-.092l-1.278.141.034 1.273a1.7 1.7 0 0 0 .24-.038M9.771 3c.011-.006.686-.083.686-.083h.088a.18.18 0 0 1 .069.066.33.33 0 0 1 .018.189c-.03.055-.043.1-.117.126l-.715.083-.078.011a.073.073 0 0 1-.04-.051v-.287A.12.12 0 0 1 9.771 3m1.641.346 1.026.011a.176.176 0 0 1 .087.123.13.13 0 0 1-.054.119l-1.181.036-.007.217 1.4-.04a.12.12 0 0 0 .082-.076l.007-.554c-.015-.043-.04-.058-.109-.073l-1.028.022a.153.153 0 0 1-.09-.2l.007-.017a.225.225 0 0 1 .082-.083l1.141.011v-.213l-1.346-.01a.2.2 0 0 0-.148.1c-.008.168-.015.326-.009.5a.2.2 0 0 0 .138.135zm-.045.173 1.068-.019v-.069a.047.047 0 0 1-.02-.022l-1-.009a.264.264 0 0 1-.218-.2v.122a.262.262 0 0 0 .17.197m6.87 1.549v-.133l-1.7-.51v.127c.326.091.665.2.984.291.267.079.518.157.716.225m-6.6-2.076a.1.1 0 0 0 .014.019L12.679 3a.55.55 0 0 1 .095.036l.074-.011V2.9h-.008l-.051.01-1.117-.018a.079.079 0 0 0-.035.1m4.297 1.425a2.94 2.94 0 0 1 .427.077v-.13c-.014 0-.425-.076-.425-.076zm-4.283-1.406h-.007zm3.498 1.125a2.3 2.3 0 0 0-.389-.057v.131a2.45 2.45 0 0 1 .381.05zM7.6 4.358h-.011a.131.131 0 0 0 .109.034l.16-.034c.426-.089 1-.2 1.115-.241a.238.238 0 0 0 .159-.217l-.026-.88a.186.186 0 0 0-.156-.133h-.092L7.7 3.121a.308.308 0 0 0-.191.218l.051.961a.094.094 0 0 0 .04.058m.327-1.035.713-.137h.109a.167.167 0 0 1 .081.114l.007.473a.139.139 0 0 1-.111.162h-.007l-.76.156h-.083a.12.12 0 0 1-.07-.1l-.012-.543c.03-.086.075-.097.128-.125Zm-1.002.484v.011c0-.016.011-.032.011-.047s-.01-.044-.009-.066h-.009v-.032l-.878.276v.126l.86-.268Zm1.182 5.105c.013-.024.013-.037 0-.052h-.014a.735.735 0 0 0-.212.275.84.84 0 0 1 .226-.223M7.2 4.179l-.572.177-.567.176v.123l.968-.3.2-.063a.192.192 0 0 0 .142-.167l.008-.108c-.013.097-.109.131-.179.162m1.375 5.083a.5.5 0 0 0-.025.1h.012a1.426 1.426 0 0 1 .523-.617c.01-.007.008-.02.006-.044s0-.013 0-.014H9.08a1.238 1.238 0 0 0-.505.575M5.748 5.213a2.8 2.8 0 0 1 .3-.092v-.138a4.9 4.9 0 0 0-.468.165l.009.119c.057-.017.111-.036.159-.054m0-.198.237-.076-.009-.447.444-.141.8-.252a.139.139 0 0 0 .09-.1l-.01-.632a.122.122 0 0 0-.077-.084.33.33 0 0 0-.108-.019 2.85 2.85 0 0 0-.521.142c-.316.1-.706.217-.977.306l.016 1.337zm.225-1.1a.105.105 0 0 1 .064-.049l.877-.277c.075-.011.1.079.1.146a.28.28 0 0 1-.055.21l-.9.291c-.032 0-.072.011-.083-.029zm1.766 5.54a.84.84 0 0 1 .126-.3c-.031.053-.092.083-.11.143a.49.49 0 0 0-.016.157m-.098-4.878a3.9 3.9 0 0 0 .619-.109c.108-.02.217-.046.326-.069l.188-.04c.073-.015.146-.033.217-.055.127-.048.169-.108.207-.266v-.12A.343.343 0 0 1 9 4.174l-.859.18-.467.1a.181.181 0 0 1-.176-.1l-.011-.02v.022c.013.11.091.217.154.221m-1.826 6.464a.257.257 0 0 0 .288.132h.011a.5.5 0 0 0 .167-.066.4.4 0 0 0 .072-.052.339.339 0 0 0 .325.118l.054-.015a.247.247 0 0 0 .176-.181.381.381 0 0 1-.531.029l-.021-.02c-.179.108-.46.253-.578-.109a.39.39 0 0 0 .037.164m2.672 9.893H6.738a.1.1 0 0 0-.1.1v.815a.1.1 0 0 0 .1.1h1.748a.1.1 0 0 0 .095-.1v-.814a.1.1 0 0 0-.094-.101m-.175.823h-1.4a.071.071 0 0 1-.076-.063v-.518a.071.071 0 0 1 .076-.063h1.4a.071.071 0 0 1 .076.063v.518a.071.071 0 0 1-.076.063M9.761 4.212l-.01-.141a2.2 2.2 0 0 0-.349.07.44.44 0 0 0 .008.108 1.43 1.43 0 0 1 .351-.037m-2.845 6.756s-.007.005-.008.009h.008Zm1.427-7.515.283-.053h.009a.25.25 0 0 1 .087 0l.022.058v-.114a.23.23 0 0 0-.026-.084h-.052l-.692.124a.176.176 0 0 0-.1.069l-.006.128a.19.19 0 0 1 .08-.053c-.002-.006.208-.043.395-.075m-1.401 7.488c0 .007-.011.007-.013.014zm-.757 9.998H4.4v1.024h.2v-.239h1.619a.163.163 0 0 0 .148-.174v-.46c0-.147-.119-.151-.182-.151m-.026.467c0 .071-.025.1-.082.1H4.6v-.383h1.463c.072 0 .1.036.1.076zM7.252 9.19c.008-.021.01-.025-.014-.05a.477.477 0 0 0-.174.229.65.65 0 0 0-.043.269.662.662 0 0 1 .231-.448m-.323 1.72a.21.21 0 0 0-.013-.082.266.266 0 0 1 0 .14c0-.006.012-.006.013-.013a.23.23 0 0 0 0-.045"/></svg>