<svg xmlns="http://www.w3.org/2000/svg" viewBox="0 0 24 24"><path fill="#44739e" d="M12.462 1v.939l-.009-.015-5.598 3.233H4.132v.688h4.913v3.336h1.78V5.845h1.637v9.554a2.15 2.15 0 0 1 .689.083V5.845h.487v9.725a2.2 2.2 0 0 1 .688.495V5.846h5.542v-.687h-1.161L13.151 1.95V1Zm0 1.714v2.443H8.231Zm.689.029 4.18 2.414h-4.18ZM9.38 5.845h1.109v1.547H9.38ZM5.039 8.348v1.788h1.78V8.349Zm2.007 0v1.788h1.785V8.349Zm-2.007 1.991v1.788h1.78v-1.788Zm2.007 0v1.788h1.785v-1.788Zm1.999 0v1.788h1.78v-1.788Zm-4.047 2.057a3.392 3.392 0 0 0 .939 4.439 2.95 2.95 0 0 1 .664-.102c.091 0 .151.009.244.017a2.441 2.441 0 0 1 2.443-1.826 2.53 2.53 0 0 1 1.763.612 3.28 3.28 0 0 0 .277-1.444 3.34 3.34 0 0 0-.45-1.695Zm4.427 2.896a2.352 2.352 0 0 0-2.285 1.807.82.82 0 0 0-.252-.009 2.347 2.347 0 0 0-2.353 2.341 2.352 2.352 0 0 0 2.361 2.343 2.44 2.44 0 0 0 .477-.051 2.348 2.348 0 0 0 4.007.286 2.343 2.343 0 0 0 3.372-3.2 2.344 2.344 0 0 0-3.544-2.697 2.361 2.361 0 0 0-1.789-.823Z"/></svg>