<svg xmlns="http://www.w3.org/2000/svg" fill="#44739e" viewBox="0 0 24 24"><path d="M12.384 12.218a1.62 1.62 0 0 0-.553-.192l-.19-.043c-.234-.053-.419-.094-.419-.245 0-.132.127-.217.322-.217a2.85 2.85 0 0 1 .964.19.035.035 0 0 0 .046-.03v-.542a.091.091 0 0 0-.065-.086 3.2 3.2 0 0 0-.85-.151 1.48 1.48 0 0 0-.882.238.777.777 0 0 0-.326.651c0 .61.5.725.973.837.073.017.061.015.089.02.216.048.439.1.439.275a.186.186 0 0 1-.06.138.44.44 0 0 1-.331.086 4.76 4.76 0 0 1-1.042-.2h-.011a.033.033 0 0 0-.034.032v.544a.092.092 0 0 0 .061.086 3.58 3.58 0 0 0 .967.165c.818 0 1.238-.321 1.238-.9a.722.722 0 0 0-.336-.656m2.244.848a1.84 1.84 0 0 1-.323.071c-.247 0-.394-.115-.394-.505v-1.015a.027.027 0 0 1 .026-.027h.663a.027.027 0 0 0 .027-.027v-.523a.088.088 0 0 0-.087-.086h-.605a.027.027 0 0 1-.026-.027v-.719c0-.022-.01-.029-.033-.029a2.3 2.3 0 0 0-.6.408.617.617 0 0 0-.158.411v1.766c0 .766.443 1.005.919 1.005a1.25 1.25 0 0 0 .567-.1.084.084 0 0 0 .045-.076v-.5a.027.027 0 0 0-.021-.027M10.2 7.907a4.4 4.4 0 0 0-.259-.087c-.1-.032-.2-.055-.286-.075h-.01a.21.21 0 0 0-.062-.009.184.184 0 0 0-.172.116 4.3 4.3 0 0 0-.233.65.078.078 0 0 0 .008.07.077.077 0 0 0 .064.025h.26a.083.083 0 0 0 .09-.059 2.3 2.3 0 0 1 .127-.348s0-.009.021-.009a.07.07 0 0 1 .019 0l.132.044a.058.058 0 0 1 .03.03.092.092 0 0 1 0 .067s-.267.747-.346 1a.1.1 0 0 0 0 .09.088.088 0 0 0 .075.031h.322a.1.1 0 0 0 .1-.064c.011-.032.028-.078.048-.133l.007-.021c.1-.27.244-.679.275-.795.061-.2.075-.416-.21-.523m9.5.252a23.62 23.62 0 0 0-4.445-3.207C12.675 3.53 8.8 2 6.377 2a3.25 3.25 0 0 0-1.572.326c-.93.513-1.7 1.875-2.234 3.941a24.02 24.02 0 0 0-.687 5.721 23.87 23.87 0 0 0 .683 5.793c.42 1.613 1.13 3.258 2.238 3.869a3.44 3.44 0 0 0 1.659.35c2.5 0 6.3-1.6 8.79-2.977a24.26 24.26 0 0 0 4.409-3.136c1.512-1.386 2.451-2.743 2.453-3.9-.002-1.228-1.175-2.67-2.416-3.828m-4.835 10.2c-3.93 2.167-8.1 3.413-9.637 2.569-1.691-.933-2.537-5.389-2.538-8.94 0-3.522.9-8.035 2.538-8.939 1.437-.793 5.8.454 9.637 2.569 3.325 1.833 6.445 4.709 6.448 6.37-.005 1.741-3.073 4.512-6.45 6.37zM8.735 10.9A1.323 1.323 0 0 0 7.3 12.339a1.333 1.333 0 0 0 1.437 1.436 1.333 1.333 0 0 0 1.436-1.436A1.323 1.323 0 0 0 8.735 10.9m0 2.19c-.356 0-.622-.271-.622-.753 0-.525.266-.755.622-.755s.622.23.622.755c0 .484-.268.755-.622.755zm8.058-2.176a1.62 1.62 0 0 0-.545.111 1.38 1.38 0 0 0-.293.167l-.023.017a.022.022 0 0 1-.013 0 .023.023 0 0 1-.023-.023v-.208a.018.018 0 0 0-.017-.017H15.2a.079.079 0 0 0-.079.079v2.66a.018.018 0 0 0 .017.017h.736a.018.018 0 0 0 .026-.017v-1.876a.05.05 0 0 1 .02-.036c.035-.021.132-.081.257-.153a.754.754 0 0 1 .355-.11c.292 0 .417.156.417.523V13.7a.016.016 0 0 0 .016.016h.735a.016.016 0 0 0 .017-.017v-1.787c-.005-.653-.323-.998-.924-.998m1.533-1.301c-.02 0-.023 0-.023.019V13.7a.016.016 0 0 0 .016.016h.734a.017.017 0 0 0 .017-.016v-3.278a.605.605 0 0 0-.155-.405 2.34 2.34 0 0 0-.589-.404M7.4 9.838v.3c0 .093.039.138.122.138h2.429c.082 0 .121-.045.121-.138v-.3a.154.154 0 0 0-.153-.152H7.554a.154.154 0 0 0-.154.152m1.168-.399H8.9a.091.091 0 0 0 .09-.09v-.005c0-.01.007-.581.02-1.567v-.019a.12.12 0 0 0-.031-.085.08.08 0 0 0-.061-.024c-.063 0-.125-.006-.185-.006h-.187a.084.084 0 0 0-.06.025.132.132 0 0 0-.032.084c0 .128.011.8.016 1.227 0 .207.005.357.005.361a.094.094 0 0 0 .093.099M8.671 7.4a.1.1 0 0 0 .063.025A.1.1 0 0 0 8.8 7.4a1.78 1.78 0 0 0 .3-.313.077.077 0 0 0 0-.107 1.74 1.74 0 0 0-.323-.318.075.075 0 0 0-.045-.016.08.08 0 0 0-.043.014 1.76 1.76 0 0 0-.328.322.075.075 0 0 0 0 .1 1.75 1.75 0 0 0 .31.318m-3.233 3.555H4.39a.088.088 0 0 0-.089.088v3.215a.618.618 0 0 0 .158.411 2.3 2.3 0 0 0 .6.407c.024 0 .033-.007.033-.028v-1.3a.027.027 0 0 1 .027-.027h.306C6.4 13.725 7 13.171 7 12.371a1.39 1.39 0 0 0-1.562-1.416m0 2.05h-.324a.027.027 0 0 1-.027-.027V11.7a.027.027 0 0 1 .027-.028h.308c.581 0 .8.319.8.659 0 .193-.093.674-.785.674zm1.946-3.63a.1.1 0 0 0 .1.063h.322a.084.084 0 0 0 .074-.03.1.1 0 0 0 .006-.09c-.079-.244-.344-.988-.347-.995a.092.092 0 0 1 0-.067.05.05 0 0 1 .031-.029l.132-.044h.018c.013 0 .019.005.021.009a2.3 2.3 0 0 1 .127.348.08.08 0 0 0 .088.057h.261A.067.067 0 0 0 8.3 8.5a4.4 4.4 0 0 0-.233-.651.187.187 0 0 0-.172-.116.22.22 0 0 0-.057.007h-.014c-.086.02-.183.043-.285.074-.079.025-.166.054-.259.088-.289.107-.274.323-.221.52.03.112.166.495.282.815.015.063.031.106.043.138"/></svg>