<svg xmlns="http://www.w3.org/2000/svg" viewBox="0 0 24 24"><path fill="#44739e" d="M12.418 12.237a1.76 1.76 0 0 0-.602-.209l-.206-.046c-.255-.058-.456-.102-.456-.267 0-.143.138-.236.35-.236a3.1 3.1 0 0 1 1.049.207.038.038 0 0 0 .05-.033v-.589a.099.099 0 0 0-.071-.094 3.48 3.48 0 0 0-.924-.164 1.61 1.61 0 0 0-.959.259.845.845 0 0 0-.355.708c0 .663.544.788 1.058.91.079.019.066.016.097.022.235.052.477.109.477.299a.202.202 0 0 1-.065.15.478.478 0 0 1-.36.093 5.18 5.18 0 0 1-1.133-.217h-.012a.036.036 0 0 0-.037.035v.591a.1.1 0 0 0 .066.094 3.9 3.9 0 0 0 1.052.179c.889 0 1.346-.349 1.346-.978a.785.785 0 0 0-.365-.714m2.44.922a2 2 0 0 1-.351.078c-.269 0-.429-.125-.429-.55v-1.103a.029.029 0 0 1 .028-.03h.721a.029.029 0 0 0 .03-.029v-.569a.096.096 0 0 0-.095-.093h-.658a.029.029 0 0 1-.028-.03v-.781c0-.024-.011-.032-.036-.032a2.5 2.5 0 0 0-.652.444.67.67 0 0 0-.172.447v1.92c0 .833.482 1.093.999 1.093a1.36 1.36 0 0 0 .617-.109.091.091 0 0 0 .049-.083v-.543a.029.029 0 0 0-.023-.03M10.043 7.55a5 5 0 0 0-.282-.095c-.108-.035-.217-.06-.311-.082h-.011a.23.23 0 0 0-.067-.009.2.2 0 0 0-.187.126 4.7 4.7 0 0 0-.253.707.085.085 0 0 0 .008.076.084.084 0 0 0 .07.027h.283a.09.09 0 0 0 .097-.064 2.5 2.5 0 0 1 .139-.379s0-.009.022-.009a.08.08 0 0 1 .021 0l.144.047a.063.063 0 0 1 .032.033.1.1 0 0 1 0 .073s-.29.812-.376 1.087a.109.109 0 0 0 0 .098.096.096 0 0 0 .082.034h.35a.109.109 0 0 0 .108-.07c.012-.035.031-.085.053-.144l.007-.023c.109-.294.266-.739.299-.865.067-.217.082-.452-.228-.568m10.33.274a25.68 25.68 0 0 0-4.833-3.488C12.734 2.79 8.521 1.127 5.886 1.127a3.534 3.534 0 0 0-1.709.354c-1.012.558-1.849 2.039-2.43 4.285A26.12 26.12 0 0 0 1 11.987a25.96 25.96 0 0 0 .743 6.299c.457 1.754 1.229 3.543 2.434 4.207a3.74 3.74 0 0 0 1.803.381c2.719 0 6.851-1.74 9.558-3.237a26.38 26.38 0 0 0 4.795-3.41c1.644-1.507 2.665-2.983 2.667-4.241-.002-1.335-1.278-2.903-2.627-4.162m-5.258 11.091c-4.273 2.356-8.807 3.711-10.478 2.793-1.839-1.014-2.759-5.86-2.76-9.721 0-3.83.978-8.737 2.76-9.72 1.562-.862 6.306.494 10.478 2.794 3.616 1.993 7.009 5.12 7.012 6.926-.006 1.893-3.342 4.906-7.014 6.927ZM8.45 10.804a1.439 1.439 0 0 0-1.56 1.565 1.449 1.449 0 0 0 1.562 1.561 1.449 1.449 0 0 0 1.562-1.561 1.439 1.439 0 0 0-1.564-1.565m0 2.381c-.387 0-.676-.294-.676-.818 0-.571.289-.821.676-.821s.676.25.676.821c0 .526-.291.821-.676.821Zm8.762-2.366a1.76 1.76 0 0 0-.593.121 1.5 1.5 0 0 0-.318.182l-.025.018a.024.024 0 0 1-.014 0 .025.025 0 0 1-.025-.025v-.226a.02.02 0 0 0-.019-.019h-.738a.086.086 0 0 0-.086.086v2.893a.02.02 0 0 0 .018.018h.801a.02.02 0 0 0 .028-.018v-2.04a.054.054 0 0 1 .022-.039c.038-.023.143-.088.279-.167a.82.82 0 0 1 .386-.119c.318 0 .454.169.454.568v1.797a.017.017 0 0 0 .017.017h.799a.017.017 0 0 0 .019-.018v-1.943c-.006-.711-.352-1.086-1.005-1.086m1.667-1.414c-.022 0-.025 0-.025.02v4.424a.017.017 0 0 0 .017.017h.798a.018.018 0 0 0 .019-.017v-3.565a.658.658 0 0 0-.169-.44 2.54 2.54 0 0 0-.64-.439m-11.881.244v.327c0 .101.043.15.133.15h2.641c.089 0 .132-.049.132-.15v-.327a.167.167 0 0 0-.167-.165H7.166a.167.167 0 0 0-.168.165m1.27-.434h.361a.099.099 0 0 0 .098-.097v-.006c0-.011.008-.632.022-1.704v-.02a.13.13 0 0 0-.034-.093.087.087 0 0 0-.066-.026c-.069 0-.136-.006-.201-.006h-.204a.09.09 0 0 0-.065.027.144.144 0 0 0-.035.091c0 .139.012.87.018 1.334 0 .225.005.388.005.393a.102.102 0 0 0 .101.107m.112-2.217a.11.11 0 0 0 .069.028.11.11 0 0 0 .072-.028 1.94 1.94 0 0 0 .326-.34.084.084 0 0 0 0-.116 1.9 1.9 0 0 0-.351-.346.082.082 0 0 0-.049-.018.087.087 0 0 0-.047.016 1.9 1.9 0 0 0-.357.35.082.082 0 0 0 0 .109 1.9 1.9 0 0 0 .337.345m-3.515 3.866h-1.14a.096.096 0 0 0-.096.096v3.495a.672.672 0 0 0 .171.447 2.5 2.5 0 0 0 .653.443c.026 0 .036-.008.036-.03v-1.414a.029.029 0 0 1 .029-.029h.333c1.06.004 1.712-.598 1.712-1.468a1.511 1.511 0 0 0-1.698-1.54m0 2.229h-.352a.029.029 0 0 1-.03-.029v-1.39a.029.029 0 0 1 .03-.03h.334c.632 0 .87.346.87.716 0 .21-.101.733-.853.733Zm2.116-3.947a.109.109 0 0 0 .109.068h.35a.091.091 0 0 0 .08-.032.109.109 0 0 0 .007-.098c-.086-.265-.374-1.074-.378-1.082a.1.1 0 0 1 0-.073.054.054 0 0 1 .034-.031l.144-.048h.019c.014 0 .021.005.023.01a2.5 2.5 0 0 1 .138.378.087.087 0 0 0 .096.062h.284a.073.073 0 0 0 .09-.106 4.8 4.8 0 0 0-.253-.707.203.203 0 0 0-.187-.127.24.24 0 0 0-.062.008h-.016c-.093.022-.199.047-.31.08-.085.028-.18.059-.281.096-.314.117-.298.351-.241.566.033.121.181.538.307.886.016.068.034.115.047.15"/></svg>