<svg xmlns="http://www.w3.org/2000/svg" viewBox="0 0 24 24"><path fill="#44739e" d="M20.182 5.404a4.05 4.05 0 0 0 .625.05 1.12 1.12 0 0 0 .342-.03.474.474 0 0 0 .404-.306.605.605 0 0 0 .015-.276.4.4 0 0 0-.243-.334.88.88 0 0 0-.281-.064.791.791 0 0 0-.833.499 1.44 1.44 0 0 0-.102.367c-.006.088-.006.088.073.094m-1.074-.4a1.808 1.808 0 0 1 1.633-1.359 2.38 2.38 0 0 1 1.057.102c.655.224 1.009.932.794 1.59a.986.986 0 0 1-.489.588 1.99 1.99 0 0 1-.66.211 3.53 3.53 0 0 1-1.207-.016 1.2 1.2 0 0 0-.146-.023.88.88 0 0 0 .716.954 2.58 2.58 0 0 0 .995 0c.154-.033.302-.065.456-.102.154-.036.218.012.218.17v.392a.242.242 0 0 1-.18.26 3.1 3.1 0 0 1-.626.17 3.25 3.25 0 0 1-1.214-.01 1.663 1.663 0 0 1-1.36-1.272 2.935 2.935 0 0 1 .016-1.656Zm.317 6.367a2.59 2.59 0 0 1 1.012.039 1.936 1.936 0 0 1 1.41 1.635v.011h-.014v.1a.078.078 0 0 0 .024.08v-.021l.007.01v.61l-.012.021v-.01c-.03.02-.02.047-.02.08V14c-.048.9-.747 1.63-1.644 1.717a2.63 2.63 0 0 1-.998-.052 1.694 1.694 0 0 1-1.246-1.114 2.825 2.825 0 0 1 0-2.005c.219-.65.8-1.11 1.482-1.175ZM12 3.946c0-.043.006-.086.016-.127a.156.156 0 0 1 .147-.102h.67a.19.19 0 0 1 .184.147c.028.075.044.147.07.223.053 0 .086-.036.122-.057a2.74 2.74 0 0 1 .946-.398 1.96 1.96 0 0 1 .795 0c.25.054.47.202.615.413a.25.25 0 0 0 .03.038v.014c.132-.079.271-.164.415-.237a2.38 2.38 0 0 1 1.203-.266 1.061 1.061 0 0 1 1.095 1.027v2.964c0 .238-.03.27-.27.27h-.647a.9.9 0 0 1-.126 0 .147.147 0 0 1-.128-.122 1 1 0 0 1-.01-.175V5.101a.94.94 0 0 0-.033-.293.4.4 0 0 0-.36-.294 1.86 1.86 0 0 0-.912.176.087.087 0 0 0-.063.096v2.788a.77.77 0 0 1-.01.155c0 .07-.058.127-.128.127h-.81c-.197 0-.24-.047-.24-.243V5.1a1.24 1.24 0 0 0-.026-.276.4.4 0 0 0-.371-.318 1.874 1.874 0 0 0-.928.18.085.085 0 0 0-.059.103v2.833c0 .195-.044.236-.239.236h-.704c-.188 0-.235-.053-.235-.232Zm2.71 9.92a.18.18 0 0 0-.074-.011 2 2 0 0 0 .057.324c.08.337.358.59.7.636a2.66 2.66 0 0 0 1.088-.037c.117-.026.229-.053.345-.085.154-.037.223.023.223.17v.385a.235.235 0 0 1-.19.271 3.36 3.36 0 0 1-1.141.217 2.9 2.9 0 0 1-.796-.079 1.63 1.63 0 0 1-1.215-1.136 2.946 2.946 0 0 1-.02-1.776 1.848 1.848 0 0 1 1.838-1.363c.268-.012.535.023.792.101.44.123.775.48.868.928a1.47 1.47 0 0 1 0 .587.983.983 0 0 1-.535.704 2.17 2.17 0 0 1-.891.23 4.15 4.15 0 0 1-1.055-.067Zm-3.133-2.202c.027-.037.012-.075.012-.112V9.847c0-.202.037-.238.238-.238h.734c.161.006.207.044.207.208v5.586c0 .147-.049.201-.196.201h-.69a.19.19 0 0 1-.186-.146.82.82 0 0 0-.057-.185c-.048.008-.069.045-.107.067a1.714 1.714 0 0 1-1.615.276A1.526 1.526 0 0 1 9 14.804a2.495 2.495 0 0 1-.266-1.13 3 3 0 0 1 .187-1.225 1.66 1.66 0 0 1 .826-.945c.552-.263 1.2-.22 1.713.111a.294.294 0 0 0 .117.059Zm-.797-3.817h-.733a.32.32 0 0 1-.075 0 .147.147 0 0 1-.147-.137V3.893c0-.127.054-.176.18-.18a19.5 19.5 0 0 1 .828 0c.122 0 .159.037.17.158v3.67a1 1 0 0 1-.01.176.134.134 0 0 1-.128.12.46.46 0 0 1-.089 0Zm-1.045-5.45a.616.616 0 0 1 .642-.586h.064a.65.65 0 0 1 .248.036.6.6 0 0 1 .411.67.587.587 0 0 1-.506.534.96.96 0 0 1-.355 0 .587.587 0 0 1-.504-.66Zm-3.092 5.2V3.983c0-.244.026-.27.27-.27h.51a.211.211 0 0 1 .238.179c.037.132.07.264.1.408a.16.16 0 0 0 .091-.065 3.5 3.5 0 0 1 .303-.27 1.41 1.41 0 0 1 .964-.293c.138 0 .186.048.197.18.01.18 0 .367 0 .546a1 1 0 0 1-.012.22.147.147 0 0 1-.147.146 1.8 1.8 0 0 1-.22 0 2.52 2.52 0 0 0-1.027.147c-.074.026-.074.079-.074.138v2.678a.13.13 0 0 1-.128.122 1 1 0 0 1-.132 0v.01h-.69a.8.8 0 0 1-.117 0 .147.147 0 0 1-.126-.132Zm.904 3.228a.6.6 0 0 1-.192 0 1 1 0 0 1-.176-.02.6.6 0 0 1-.466-.7.587.587 0 0 1 .567-.536.47.47 0 0 1 .111 0 .64.64 0 0 1 .313.054c.208.078.35.272.361.494a.624.624 0 0 1-.518.716Zm.44.855v3.764a.147.147 0 0 1-.133.159h-.88a.147.147 0 0 1-.162-.128v-.026a.57.57 0 0 1 0-.1v-3.67c0-.164.045-.21.21-.21h.751c.164.007.211.054.211.218Zm-1.711.047-.317.844-1.067 2.774c-.01.032-.027.063-.037.095a.261.261 0 0 1-.265.175h-.702a.294.294 0 0 1-.318-.218c-.133-.349-.27-.704-.403-1.055-.318-.832-.641-1.666-.96-2.504a.93.93 0 0 1-.069-.207c-.016-.105.021-.158.128-.158h.901c.128 0 .185.085.218.196.058.201.117.408.18.61.217.733.43 1.479.646 2.217h.01l.096-.308.733-2.46.031-.095a.214.214 0 0 1 .213-.147h.812c.2-.003.243.054.176.245ZM1.786 3.82a.377.377 0 0 1 .318-.107h.488a.21.21 0 0 1 .234.18c.01.053.02.106.037.16a.022.022 0 0 0 .02.015.43.43 0 0 0 .11-.08 1.87 1.87 0 0 1 1.586-.354c.48.115.874.454 1.061.91a2.45 2.45 0 0 1 .205.798h-.008c.051.444.011.893-.118 1.321a1.94 1.94 0 0 1-.55.88c-.34.306-.795.448-1.248.388A1.776 1.776 0 0 1 3 7.564c-.039.033-.022.074-.022.113v1.506c0 .329 0 .329-.334.329h-.572a.294.294 0 0 1-.294-.126Zm19.37 15.225a.59.59 0 0 1-.176.2 11.64 11.64 0 0 1-1.962 1.247 15.5 15.5 0 0 1-4.152 1.406 18.2 18.2 0 0 1-2.51.27v.022h-.649v-.018c-.293-.014-.578-.026-.868-.047a15.35 15.35 0 0 1-2.296-.352 15.56 15.56 0 0 1-6.885-3.59c-.185-.164-.36-.333-.54-.503a.405.405 0 0 1-.101-.146.195.195 0 0 1 .098-.256.2.2 0 0 1 .147 0 1.2 1.2 0 0 1 .138.069 20.57 20.57 0 0 0 6.164 2.546 22.1 22.1 0 0 0 2.212.398 20.44 20.44 0 0 0 3.213.146 17 17 0 0 0 1.724-.146 20.9 20.9 0 0 0 3.935-.896 18.6 18.6 0 0 0 1.973-.776.44.44 0 0 1 .318-.043.33.33 0 0 1 .24.398.6.6 0 0 1-.022.066Zm1.028 1.488a3.55 3.55 0 0 1-.615.757.43.43 0 0 1-.17.107.123.123 0 0 1-.169-.124.6.6 0 0 1 .038-.162c.185-.496.366-.99.51-1.504a5.35 5.35 0 0 0 .18-.859 1.65 1.65 0 0 0 0-.318.412.412 0 0 0-.294-.388 2.07 2.07 0 0 0-.509-.095 8.36 8.36 0 0 0-1.459.064l-.641.08c-.07 0-.132 0-.17-.065a.18.18 0 0 1 .014-.19.55.55 0 0 1 .162-.148 3.67 3.67 0 0 1 1.299-.562 6.4 6.4 0 0 1 1.097-.121c.346.001.691.042 1.028.121a1.5 1.5 0 0 1 .276.102c.121.05.206.162.219.293a2.16 2.16 0 0 1 .014.455 5.856 5.856 0 0 1-.806 2.55Zm-2.55-5.72a1 1 0 0 0 .301.01.691.691 0 0 0 .505-.293 1.01 1.01 0 0 0 .147-.308l-.009.014a1.92 1.92 0 0 0 .074-.678 2.5 2.5 0 0 0 0-.293 1.64 1.64 0 0 0-.147-.6.685.685 0 0 0-.483-.376.91.91 0 0 0-.302-.01.694.694 0 0 0-.542.328 1.16 1.16 0 0 0-.147.35 2.89 2.89 0 0 0-.042.933 1.49 1.49 0 0 0 .147.525c.09.207.276.355.497.397Zm-3.523-1.96a.473.473 0 0 0-.394-.64c-.026 0-.047-.01-.073-.01a.797.797 0 0 0-.775.302 1.32 1.32 0 0 0-.211.578c-.015.047.01.069.058.073a4.7 4.7 0 0 0 .642.053c.11.006.22-.003.328-.026a.465.465 0 0 0 .425-.33m-5.981-.255a1.17 1.17 0 0 0-.106.26 2.68 2.68 0 0 0-.065.997 1.48 1.48 0 0 0 .147.536.734.734 0 0 0 .568.391 1.306 1.306 0 0 0 .832-.158.147.147 0 0 0 .086-.147v-.966h.007c0-.323-.01-.641 0-.968a.147.147 0 0 0-.096-.156 1.614 1.614 0 0 0-.817-.147.678.678 0 0 0-.556.358M3.855 7.051a.747.747 0 0 0 .488-.188.807.807 0 0 0 .243-.425 2.65 2.65 0 0 0 .065-1.002 1.5 1.5 0 0 0-.135-.54.653.653 0 0 0-.505-.382 1.44 1.44 0 0 0-.912.137.16.16 0 0 0-.105.164v1.917a.147.147 0 0 0 .09.147 1.47 1.47 0 0 0 .771.17"/></svg>