<svg xmlns="http://www.w3.org/2000/svg" viewBox="0 0 24 24"><path fill="#44739e" d="M5.136 1A4.134 4.134 0 0 0 1 5.136v13.728A4.134 4.134 0 0 0 5.136 23h13.728A4.134 4.134 0 0 0 23 18.864V5.136A4.134 4.134 0 0 0 18.864 1Zm5.649 3.355v.003h.047a.48.48 0 0 1 .184.026.453.453 0 0 1 .31.506.436.436 0 0 1-.379.396.73.73 0 0 1-.266 0 .441.441 0 0 1-.378-.49.462.462 0 0 1 .482-.44ZM6.121 5.688a1.158 1.158 0 0 1 1.111.72c.083.189.134.39.151.597h-.006c.038.332.009.67-.088.99a1.463 1.463 0 0 1-.413.662 1.167 1.167 0 0 1-.935.291 1.33 1.33 0 0 1-.692-.273c-.028.024-.014.053-.014.083v1.13c0 .246 0 .248-.252.248h-.429a.22.22 0 0 1-.22-.097l.005-4.175a.282.282 0 0 1 .238-.079h.368a.154.154 0 0 1 .173.132c.007.041.017.083.029.123.001.007.008.011.014.011a.32.32 0 0 0 .084-.06c.252-.198.561-.304.874-.303Zm7.795.005c.1 0 .2.01.299.029a.75.75 0 0 1 .481.34v.011c.1-.06.206-.124.314-.179.278-.143.589-.213.902-.199.44-.014.806.331.819.77v2.222c0 .178-.023.204-.202.204h-.485a.7.7 0 0 1-.095 0 .11.11 0 0 1-.095-.092.74.74 0 0 1-.008-.132V6.828a.72.72 0 0 0-.024-.221.301.301 0 0 0-.27-.221 1.4 1.4 0 0 0-.684.132.064.064 0 0 0-.049.071v2.092c0 .04 0 .078-.006.117 0 .052-.044.095-.097.095h-.608c-.148 0-.179-.036-.179-.183V6.827a.92.92 0 0 0-.019-.207.302.302 0 0 0-.28-.24 1.41 1.41 0 0 0-.693.138.064.064 0 0 0-.045.074V8.72c0 .145-.034.176-.181.176h-.526c-.141 0-.178-.043-.178-.176l-.005-2.759c0-.033.006-.066.013-.097a.114.114 0 0 1 .107-.077h.506c.066 0 .121.048.136.111.022.055.033.11.052.168.041 0 .065-.027.093-.043.215-.143.456-.245.709-.298.099-.021.198-.03.298-.03Zm4.84.025a1.78 1.78 0 0 1 .594.09.949.949 0 0 1 .593 1.195.737.737 0 0 1-.365.438c-.154.082-.321.137-.495.161-.3.049-.605.044-.904-.013a1 1 0 0 0-.111-.019.665.665 0 0 0 .539.72c.246.048.499.048.745 0 .116-.024.226-.051.341-.077.116-.029.164.009.164.126v.294a.183.183 0 0 1-.135.196 2.3 2.3 0 0 1-.469.126c-.301.055-.611.052-.91-.007a1.248 1.248 0 0 1-1.021-.955c-.115-.405-.11-.836.013-1.24h-.002c.143-.569.638-.982 1.224-1.023.066-.008.133-.011.2-.011Zm-8.915.036c.103 0 .137.033.146.133.008.137 0 .276 0 .411a.76.76 0 0 1-.009.165.108.108 0 0 1-.11.107q-.082.005-.165 0a1.89 1.89 0 0 0-.771.113c-.055.019-.054.058-.054.103v2.009a.099.099 0 0 1-.097.092.8.8 0 0 1-.099 0v.007h-.517a.55.55 0 0 1-.088 0 .108.108 0 0 1-.092-.099V5.986c0-.182.017-.201.199-.201h.383a.158.158 0 0 1 .18.132c.028.099.053.2.075.308a.12.12 0 0 0 .066-.049c.073-.072.149-.139.229-.203a1.056 1.056 0 0 1 .724-.219m.664.031q.31-.007.621 0c.091 0 .117.026.126.118v2.752c.001.044 0 .088-.007.133a.099.099 0 0 1-.093.09.35.35 0 0 1-.069 0l.004.007h-.552a.22.22 0 0 1-.055 0 .107.107 0 0 1-.108-.104V5.92c0-.095.039-.129.132-.133v-.002Zm8.179.546a.594.594 0 0 0-.524.375 1.1 1.1 0 0 0-.076.277c-.004.066-.005.067.055.071.154.024.31.036.468.035a.84.84 0 0 0 .255-.022.356.356 0 0 0 .303-.229.45.45 0 0 0 .012-.207.302.302 0 0 0-.182-.251.66.66 0 0 0-.212-.047.55.55 0 0 0-.099-.002m-12.852.036a1.08 1.08 0 0 0-.509.121.121.121 0 0 0-.077.124v1.437a.11.11 0 0 0 .066.11 1.1 1.1 0 0 0 .578.126v.003a.56.56 0 0 0 .365-.142.605.605 0 0 0 .182-.318c.065-.246.082-.503.05-.755a1.12 1.12 0 0 0-.101-.404.489.489 0 0 0-.378-.286 1.1 1.1 0 0 0-.176-.016m2.629 3.809a.33.33 0 0 1 .082 0 .484.484 0 0 1 .236.041.417.417 0 0 1 .269.372.464.464 0 0 1-.386.534v-.003a.46.46 0 0 1-.147 0 .77.77 0 0 1-.132-.014.451.451 0 0 1-.347-.527.44.44 0 0 1 .425-.402Zm3.41.033h.552c.121.004.154.03.154.154v4.189c0 .11-.035.151-.145.151h-.52a.142.142 0 0 1-.14-.11.6.6 0 0 0-.04-.138c-.037.008-.053.033-.082.05a1.289 1.289 0 0 1-1.212.206 1.14 1.14 0 0 1-.685-.608 1.87 1.87 0 0 1-.2-.848 2.25 2.25 0 0 1 .137-.917c.108-.308.33-.563.622-.71a1.315 1.315 0 0 1 1.282.084c.025.022.057.035.09.044v-.008c.02-.027.009-.057.009-.086v-1.278c0-.151.027-.176.178-.176Zm6.08 1.295a1.452 1.452 0 0 1 1.435 1.28v.009h-.011v.073a.064.064 0 0 0 .02.062v-.017l.005.009v.457l-.009.016v-.009c-.024.015-.018.037-.018.061v.056a1.366 1.366 0 0 1-1.233 1.287 1.97 1.97 0 0 1-.748-.04 1.268 1.268 0 0 1-.935-.834 2.123 2.123 0 0 1 0-1.506c.165-.486.602-.831 1.113-.88.127-.022.253-.028.381-.024m-3.304.033c.2-.01.4.015.594.074.33.092.578.362.65.696.029.146.029.297 0 .443a.737.737 0 0 1-.402.528c-.209.105-.438.162-.671.17-.262.017-.525 0-.783-.05h-.004a.13.13 0 0 0-.052-.005c.008.081.022.162.043.242a.627.627 0 0 0 .526.477c.271.046.55.036.817-.03.087-.02.168-.038.255-.062.116-.028.167.018.167.128v.288a.174.174 0 0 1-.142.202 2.53 2.53 0 0 1-.857.164 2.17 2.17 0 0 1-.594-.061 1.223 1.223 0 0 1-.911-.85 2.203 2.203 0 0 1-.018-1.331 1.39 1.39 0 0 1 1.382-1.023m-6.38.064h.562c.123.004.159.042.159.165l.002-.007v2.826a.109.109 0 0 1-.099.118h-.662a.111.111 0 0 1-.121-.097v-.019a.44.44 0 0 1 0-.076v-2.752c0-.123.035-.158.158-.158Zm-3.57.004h.678c.094 0 .138.063.163.145.044.152.09.308.137.458.163.551.322 1.111.484 1.663h.008l.071-.231.55-1.845.022-.07a.163.163 0 0 1 .161-.112h.607c.152-.002.184.041.134.182l-.004-.002-.242.633-.799 2.081c-.007.024-.018.047-.025.071a.198.198 0 0 1-.2.132h-.525a.221.221 0 0 1-.239-.165c-.099-.26-.203-.528-.302-.789-.24-.624-.482-1.252-.721-1.881a.68.68 0 0 1-.051-.152c-.012-.08.015-.118.094-.118Zm9.952.537a.597.597 0 0 0-.499.234.99.99 0 0 0-.157.434c-.011.036.008.053.044.056.159.024.318.038.479.04a.9.9 0 0 0 .247-.018.352.352 0 0 0 .319-.248.356.356 0 0 0-.296-.481c-.02 0-.033-.006-.054-.006a.7.7 0 0 0-.083-.011m-3.478.034a1.2 1.2 0 0 0-.157.002.511.511 0 0 0-.419.269.88.88 0 0 0-.077.195 2.01 2.01 0 0 0-.05.751c.011.138.048.275.11.399.084.163.242.274.425.294a.98.98 0 0 0 .625-.118.114.114 0 0 0 .065-.111v-.723h.007c0-.242-.009-.484 0-.728a.11.11 0 0 0-.074-.116 1.21 1.21 0 0 0-.455-.114m6.733.029a.66.66 0 0 0-.114.003.52.52 0 0 0-.407.247.87.87 0 0 0-.111.26 2.18 2.18 0 0 0-.033.704c.013.136.052.271.112.394.068.155.209.266.374.297a.75.75 0 0 0 .228.009.515.515 0 0 0 .376-.222.76.76 0 0 0 .111-.231l-.005.011c.048-.165.067-.336.055-.509a1.9 1.9 0 0 0 0-.219 1.23 1.23 0 0 0-.111-.451.515.515 0 0 0-.363-.281.66.66 0 0 0-.112-.012m1.19 3.548c.259.002.517.031.77.09.07.019.14.045.206.077a.268.268 0 0 1 .165.223c.015.112.019.225.011.338a4.396 4.396 0 0 1-.604 1.912l-.005.005a2.66 2.66 0 0 1-.46.572.33.33 0 0 1-.128.077.092.092 0 0 1-.127-.093.44.44 0 0 1 .028-.121c.139-.373.275-.742.383-1.128q.093-.318.135-.645a1.2 1.2 0 0 0 0-.239.308.308 0 0 0-.22-.29 1.54 1.54 0 0 0-.382-.071c-.365-.016-.732 0-1.095.048l-.481.059c-.053 0-.099 0-.128-.047a.137.137 0 0 1 .011-.143.41.41 0 0 1 .122-.11c.295-.203.625-.348.974-.424.272-.055.549-.083.825-.09m-15.202.196c.019 0 .036.003.054.011a.9.9 0 0 1 .102.051 15.42 15.42 0 0 0 4.625 1.91 15.32 15.32 0 0 0 4.069.408 15.68 15.68 0 0 0 4.246-.781c.502-.167.997-.362 1.479-.583a.327.327 0 0 1 .239-.033c.13.034.21.168.178.3a.4.4 0 0 1-.016.051v.002a.436.436 0 0 1-.131.15 8.74 8.74 0 0 1-1.474.935 11.62 11.62 0 0 1-3.113 1.055c-.622.11-1.252.178-1.884.202v.017h-.485v-.013c-.22-.011-.434-.022-.651-.037a11.55 11.55 0 0 1-1.723-.261 11.66 11.66 0 0 1-5.163-2.695 17 17 0 0 1-.407-.376.31.31 0 0 1-.074-.11.147.147 0 0 1 .073-.192.15.15 0 0 1 .055-.011Z"/></svg>