<svg xmlns="http://www.w3.org/2000/svg" viewBox="0 0 24 24"><path fill="#44739e" d="M12 1a11 11 0 1 0 11 11A11 11 0 0 0 12 1m0 20.587a2.895 2.895 0 0 1-3.126-2.578h6.252A2.895 2.895 0 0 1 12 21.587m5.175-3.432H6.83v-1.871h10.343Zm-.041-2.839H6.86l-.102-.116a7.5 7.5 0 0 1-1.55-2.64c0-.023 1.284.263 2.2.464 0 0 .47.108 1.158.231a4.296 4.296 0 0 1-1.055-2.76c0-2.2 1.69-4.132 1.08-5.689.594.049 1.23 1.254 1.274 3.137a6.735 6.735 0 0 0 .895-3.442c0-1.012.667-2.187 1.333-2.226-.594.979.154 1.818.818 3.901.25.783.218 2.099.411 2.934.064-1.737.362-4.265 1.463-5.138a3.792 3.792 0 0 0 .452 3.138 5.943 5.943 0 0 1 .988 3.403 4.27 4.27 0 0 1-1.018 2.75c.726-.135 1.228-.258 1.228-.258l2.36-.463a6.69 6.69 0 0 1-1.662 2.774Z"/></svg>