<svg xmlns="http://www.w3.org/2000/svg" viewBox="0 0 24 24"><path fill="#44739e" d="M5.517 1.789c-.999.555-.999.643-.064 1.787 5.184 6.317 6.42 7.809 6.515 7.809.127.017 7.307-8.572 7.386-8.832.032-.07-.19-.313-.475-.538-.381-.313-.792-.434-1.57-.469-1.457-.104-1.965.243-3.772 2.464-.824 1.006-1.522 1.839-1.522 1.839-.015 0-.696-.815-1.505-1.804s-1.743-1.98-2.06-2.17c-.73-.452-2.22-.486-2.934-.087ZM2.189 4.34C1.413 4.669 1 4.982 1 5.224c0 .122 1.22 1.684 2.695 3.472 1.49 1.786 2.694 3.279 2.694 3.313 0 .035-1.22 1.527-2.695 3.315-1.489 1.804-2.678 3.383-2.662 3.522.079.469 1.379 1.059 2.329 1.059 1.539-.018 1.887-.313 5.136-4.217 1.632-1.961 2.964-3.627 2.964-3.679 0-.069-1.315-1.7-2.933-3.643C6.42 5.85 5.391 4.722 4.899 4.479c-.745-.4-1.949-.469-2.71-.139m16.928.121c-.46.261-1.617 1.51-3.615 3.904-1.616 1.944-2.932 3.575-2.932 3.644 0 .07 1.332 1.718 2.965 3.679 3.248 3.904 3.598 4.199 5.135 4.217.951 0 2.25-.59 2.33-1.059.015-.157-1.173-1.718-2.663-3.505-1.474-1.786-2.695-3.297-2.695-3.332 0-.034 1.221-1.544 2.695-3.332C21.827 6.892 23.015 5.329 23 5.19c-.08-.451-1.252-.971-2.267-1.041-.729-.035-1.109.035-1.616.313ZM8.291 16.991c-1.965 2.377-3.582 4.389-3.614 4.475-.031.07.19.313.476.539.38.312.792.434 1.569.469 1.443.103 1.981-.261 3.804-2.517.792-.971 1.474-1.786 1.489-1.786s.698.815 1.507 1.804c1.854 2.256 2.345 2.585 3.787 2.499.778-.035 1.189-.157 1.57-.469.285-.226.507-.469.475-.538-.079-.261-7.26-8.85-7.386-8.832-.063 0-1.712 1.961-3.677 4.356"/></svg>