<svg xmlns="http://www.w3.org/2000/svg" viewBox="0 0 24 24"><path fill="#44739e" d="M5.14 7.987v-.16H3.985v.16h1.148Zm15.928-.16h1.155v.161h-1.155Zm1.91 3.155v-2.85h-.499v2.85h.201Zm-.298 6.902h-2.27v.182H23v-.182ZM8.858 19.482l-.092.093v2.83l.08.14h8.898l.082-.141v-2.789l-.13-.13Zm.948 2.64a.22.22 0 1 1 .205-.22.204.204 0 0 1-.205.225Zm.234-2.166h5.06v1.381h-5.06Zm.31 2.166a.66.66 0 0 1-.014-.102c-.007-.044-.023-.063-.07-.063h-.093v.165h-.098V21.7h.227a.117.117 0 0 1 .124.116.103.103 0 0 1-.067.11c.045.012.058.055.06.099a.22.22 0 0 0 .019.099Zm.249 0h-.093V21.7h.093Zm.454 0h-.065l-.009-.048a.144.144 0 0 1-.11.058.22.22 0 0 1 0-.44.168.168 0 0 1 .177.148h-.089a.084.084 0 0 0-.088-.07c-.083 0-.11.07-.11.144s.031.141.11.141a.09.09 0 0 0 .1-.092h-.093v-.068h.177Zm.167 0h-.1V21.7h.092Zm.44 0h-.1l-.175-.282v.282h-.089V21.7h.092l.176.283V21.7h.088Zm.352 0-.032-.094h-.157l-.033.094h-.094l.159-.422h.095l.158.422Zm.43 0h-.297V21.7h.093v.344h.202Zm.451-.203h-.131v.203h-.123v-.566h.254a.182.182 0 1 1 0 .363m.635.203a.77.77 0 0 1-.019-.136c-.009-.059-.033-.085-.094-.085h-.125v.22h-.124v-.566h.305a.155.155 0 0 1 .165.156.138.138 0 0 1-.089.142c.061.017.078.075.082.133a.275.275 0 0 0 .024.133Zm.681-.22a.21.21 0 0 1-.241.226c-.153 0-.241-.072-.241-.226v-.352h.124v.352c0 .061.017.122.117.122s.118-.039.118-.122v-.352h.123Zm.312.226c-.125 0-.243-.061-.241-.2h.121c0 .075.058.103.125.103.043 0 .11-.012.11-.069s-.086-.07-.169-.094-.168-.057-.168-.161.11-.171.211-.171c.119 0 .227.052.227.183h-.12c0-.068-.052-.086-.11-.086-.04 0-.085.017-.085.064s.027.051.169.086c.041.01.167.037.167.164-.003.105-.083.183-.237.183Zm.669-.006-.043-.126h-.211l-.044.126h-.125l.213-.566h.128l.211.566Zm-.29-3.206H8.047l-.55.95v1.383l.343.344h.706v-2.104l.22-.22h9.02l.257.258v2.068h.457l.343-.343v-1.386l-.55-.95Zm6.684-17.117h.166v5.882h-.166Zm.951.148h-.166v6.04h.166Zm-.951 6.579h.166v9.213h-.166Zm.785 2.601h.166v6.612h-.166Zm-.036-.145v-2.85h-1.288v2.85h.394V8.38h.457v2.602h.327ZM6.296 17.536h13.697v.235H6.296Zm1.911-9.269H20.9v.166H8.207Zm.639 2.61c0-.421-.567-.763-1.265-.763s-1.265.342-1.265.763v.77h1.265a1.85 1.85 0 0 0 .749-.149l.038-.018.034.024a.33.33 0 0 0 .178.048c.126 0 .22-.06.22-.11 0-.03-.032-.063-.081-.085l-.092-.041.073-.084a.542.542 0 0 0 .146-.355m-1.265.536c-.473 0-.856-.24-.856-.536s.383-.535.856-.535.856.241.856.535-.383.536-.856.536m.639-.536a.639.4 0 0 1-.639.401.639.4 0 0 1-.639-.401.639.4 0 0 1 .639-.4.639.4 0 0 1 .639.4m.626-.424c0-.421-.567-.77-1.265-.77s-1.265.343-1.265.77v.025a1.606 1.606 0 0 1 1.265-.51 1.606 1.606 0 0 1 1.265.51ZM5.34 6.749v2.729h-.311v1.674H6.17v-.699c0-.502.634-.91 1.411-.91a2.1 2.1 0 0 1 .481.055V7.92l-.204-.203h-.3v-.968Zm2.719 4.985a2.2 2.2 0 0 1-.478.053H6.17v-.489h-.615v.805h2.504Zm13.38-10.08h.457v.527h.327v-.38h.457v.38h.226v-.726h-2.354v.726h.887ZM8.993 10.612H20.9v.166H8.993ZM4.77 7.681h.424V6.604h.849V3.777l.427-.426h13.101l.66.66v4.11h.673v-.134h.022v-.306h.518V2.327h-1.032v-.836H5.801v.836H4.77Zm6.394-5.816h.249l.412 1.1h-.252l-.083-.246h-.414l-.087.246h-.245Zm-1.377.739h.233c0 .147.11.204.245.204.085 0 .215-.024.215-.138s-.167-.137-.33-.182-.33-.11-.33-.315c0-.228.22-.33.413-.33.23 0 .44.101.44.357h-.235c-.007-.132-.1-.168-.22-.168-.077 0-.167.033-.167.126s.053.098.33.167c.081.019.33.073.33.322 0 .203-.158.354-.46.354-.244 0-.475-.121-.471-.392ZM8.7 1.865h.244v.688c0 .121.031.239.227.239.174 0 .23-.074.23-.239v-.688h.242v.688a.413.413 0 0 1-.472.44c-.298 0-.471-.142-.471-.44Zm-1.112 0h.596a.304.304 0 0 1 .324.305.271.271 0 0 1-.175.277c.118.033.153.145.16.259a.605.605 0 0 0 .046.261h-.238a1.43 1.43 0 0 1-.041-.261c-.017-.11-.062-.167-.184-.167h-.241v.432h-.243Zm-1.033 0h.498a.355.355 0 1 1 0 .709h-.25v.397h-.244Zm15.341.462h.327v5.355h-.327Zm-10.609-.189h-.003l-.144.406h.286Zm-3.018.074c0-.11-.057-.153-.167-.153h-.267v.307h.267c.11 0 .167-.044.167-.154M22.45 18.211h-2.187v-.472h1.176v-6.612H20.9v-.203h-.673v7.333H6.043v-6.009H5.41v-.95h-.526V9.332h.31v-1.2h-.061v.394H4.77v9.213h1.269v.472H3.823v.036h-.369v1.345h.369v.528H7.28v-.308l.64-1.109h10.502l.639 1.109v.31h3.389v-.53h.369V18.25h-.369ZM20.9 9.959V8.578h-.673v.721H8.207v.076h12.02v.508H8.68a1.1 1.1 0 0 1 .085.076h11.462v.503h.673Zm.996 1.168h.327v6.612h-.327ZM3.221 8.168h.427v2.777h-.427Zm3.866 4.141.062-.061.072-.071-.267-.002.073.073Zm3.182 9.46h-.102v.118h.102c.041 0 .063-.018.063-.06s-.022-.058-.063-.058m1.625.03-.055.155h.109Zm1.525-.15h-.136v.159h.136c.056 0 .085-.024.085-.081s-.029-.078-.085-.078m1.626.043-.073.206h.146l-.071-.206Zm-2.194-.043h-.096v.169h.096c.058 0 .11-.012.11-.085s-.052-.084-.11-.084m-3.046.115c-.083 0-.11.071-.11.144s.031.141.11.141.11-.07.11-.141-.027-.144-.11-.144m-3.911-3.88H3.302v.182h2.592ZM4.458 8.526h.166v9.213h-.166Zm-.784 2.637h.166v6.576h-.166Zm.784-9.364h.166v5.882h-.166ZM3.84 7.681V1.947h-.166V7.95h.166ZM2.454 8.829h-.838l-.125.216-.423-.001v1.652h1.424v-.413l.401-.695Zm2.533-.449v-.248H3.865v2.85h.196V8.655l.16-.275h.549ZM1 8.699v.271l.449.002.125-.215h.922l.481.831-.413.714v.361h.439V8.132H1.568Zm2.529-6.898h.456v.38h.328v-.527h.457v.527h.886v-.726H3.302v.726h.227Zm.456.526h.328v5.355h-.328Zm3.22-.108c0-.139-.102-.165-.213-.165h-.189v.33h.189c.111.001.213-.023.213-.165m-2.997 8.908h-.223v6.612h.328V8.526h-.009l-.096.168Z"/></svg>