<svg xmlns="http://www.w3.org/2000/svg" viewBox="0 0 24 24"><path fill="#44739e" d="M5.349 16.969h.357l.087-.087h-.529Zm-.085 1.954h.529l-.087-.087h-.357Zm.547-2.021-.034.034-.051.051v1.831l.051.051.034.035Zm-.567 2.002.034-.035.053-.051v-1.831l-.053-.051-.034-.034Zm-.375-2.022h.347v2.041h-.347Zm.489.114h.34v1.814h-.34ZM5.793 3.67h-.529l.085.087h.357Zm-.087 1.954h-.357l-.085.087h.529Zm.105-1.935-.085.086v1.831l.012.012.073.073Zm-.567 2.002.073-.073.014-.012V3.775l-.087-.086Zm.114-1.908h.34v1.814h-.34Zm-.489-.113h.347v2.041h-.347Zm14.494 16.837V2.079l-.648.648v5.756h-3.644v.447h3.644v10.929Zm-.043 1.331.03-.03.439.44-.029.03Zm-14.479.011-.389.389-.009.01.014.015.016.014.01-.008.554.553h4.22v-.943H4.871l.027-.027.014-.014-.03-.029-.013.013Zm4.546-1.271h5.806v.047H9.387Zm3.603 1.202c-.013 0-.023.008-.023.018a.021.021 0 0 0 .023.018.021.021 0 0 0 .022-.018.02.02 0 0 0-.022-.018m-.053.097h.036v.087h.037v-.116h-.073Zm-.758-.708.06-.062v-.054h-.038v.044l-.04.043h-.013l-.04-.043v-.044h-.038v.054l.06.062Zm-.172.176h.281v.03h-.281Zm.249-.105c0-.014-.012-.027-.029-.044l-.027.02c.025.023.023.026 0 .046a.026.026 0 0 0-.009.02c0 .016.017.033.031.045l.026-.02c-.022-.017-.026-.027-.006-.047a.026.026 0 0 0 .014-.02m-.08 0c0-.014-.012-.027-.03-.044l-.026.02c.025.023.023.026.005.046a.026.026 0 0 0-.008.02c0 .016.016.033.03.045l.026-.02c-.023-.017-.026-.027-.007-.047a.024.024 0 0 0 .01-.02m-.923-.103v.155l.175-.076Zm.786.144a.068.068 0 0 0 .03.045l.026-.02c-.022-.018-.025-.027-.006-.047a.03.03 0 0 0 .01-.02c0-.014-.013-.028-.03-.044l-.026.02c.025.023.023.026 0 .046a.026.026 0 0 0-.004.02m-.57.057c.137-.11.039-.299-.155-.299a.201.201 0 0 0-.22.175c0 .155.236.234.375.124m-.031-.22a.121.121 0 0 1 0 .198c-.11.088-.3.025-.3-.099s.189-.189.3-.102Zm1.596.139a.049.049 0 0 0 0-.082c-.045-.036-.123-.01-.123.041s.079.077.123.041m-.103-.041a.048.048 0 0 1 .052-.042.043.043 0 1 1 0 .084.048.048 0 0 1-.052-.042m.052-.154a.177.177 0 0 0-.193.154.128.128 0 0 0 .027.078v-.078a.151.151 0 0 1 .166-.132c.148 0 .22.143.118.225a.194.194 0 0 1-.256-.019v.033a.213.213 0 0 0 .138.047.158.158 0 1 0 0-.308m-.693.77c0-.009 0-.014.017-.04l-.047-.037c-.032.011-.039.016-.051.013s-.011-.011-.023-.037h-.067c-.011.026-.012.033-.023.037s-.019 0-.05-.013L12 21.79c.015.025.021.031.016.04s-.013.009-.046.018v.052c.033.009.042.01.046.019s0 .014-.016.039l.048.038c.031-.011.038-.017.05-.014s.011.011.023.038h.067c.012-.027.012-.033.024-.038s.018 0 .05.014l.047-.038c-.015-.025-.021-.03-.016-.039s.013-.01.046-.019v-.054c-.035-.004-.044-.005-.049-.014m.016.055a.062.062 0 0 0-.044.026.04.04 0 0 0 .007.044l-.016.013a.075.075 0 0 0-.056 0 .052.052 0 0 0-.033.036h-.023a.054.054 0 0 0-.034-.036.07.07 0 0 0-.055 0l-.017-.013a.04.04 0 0 0 .008-.044.062.062 0 0 0-.043-.026v-.019a.062.062 0 0 0 .045-.026.04.04 0 0 0-.008-.044l.017-.014a.07.07 0 0 0 .055 0 .054.054 0 0 0 .034-.035h.023a.052.052 0 0 0 .033.035.075.075 0 0 0 .056 0l.017.014a.04.04 0 0 0-.008.044.062.062 0 0 0 .044.026Zm-.153-.07a.062.062 0 1 0 0 .12.062.062 0 1 0 0-.12m0 .096a.036.036 0 1 1 .044-.036.042.042 0 0 1-.044.036m-.635-.046h-.173v-.011a.013.013 0 0 0-.014-.012.014.014 0 0 0-.015.012v.011h-.207c-.009 0-.015.005-.015.011a.014.014 0 0 0 .015.012h.175v.012c0 .007.006.011.015.011s.015 0 .015-.011v-.011h.172a.012.012 0 1 0 0-.023Zm-.044 0h-.036a.012.012 0 1 0 0 .023h.036-.121v-.029a.013.013 0 0 0-.014-.012.014.014 0 0 0-.016.012v.149h-.122.037c.008 0 .015 0 .015-.011a.014.014 0 0 0-.015-.012h-.037.121v.028a.014.014 0 0 0 .016.013.013.013 0 0 0 .014-.013v-.028h.098Zm-.16.076v-.065h-.084a.074.074 0 0 0 .084.065m0-.13v.065h.081a.075.075 0 0 0-.081-.065m3.907-1.16v2.071h.112l.098-.111v-1.899l-.121-.136h-.089Zm-.027 2.098H9.419l-.058-.114v-2.036l-.077.087v2.159l.079.153h5.989l.08-.155.003-.195-.09.101Zm-.579-.761a.33.33 0 1 0-.325-.33.33.33 0 0 0 .325.33m0-.55a.22.22 0 1 1-.22.22.22.22 0 0 1 .22-.216Zm-5.227 1.19.048.094h5.754v-2.071H9.387Zm5.113-1.61a.036.036 0 0 1 .035.029h.025a.022.022 0 0 0 .013 0l.045-.049a.044.044 0 0 1 .027-.011h.035a.021.021 0 0 1 .02-.014.022.022 0 0 1 0 .043.022.022 0 0 1-.021-.015h-.049l-.043.044h.22v-.016l.043.024-.043.025v-.018h-.168l.042.045a.022.022 0 0 0 .013 0h.035v-.014h.043v.042h-.043v-.005h-.034a.04.04 0 0 1-.026-.012l-.045-.047h-.093a.036.036 0 0 1-.034.029.036.036 0 0 1 0-.072Zm.11.297a.352.352 0 1 1-.352.352.353.353 0 0 1 .356-.355Zm-.507.965h.34l.059.062v.168l.149.158h.212l.15-.158v-.226l-.15-.159h-.76v-.041h.776l.173.184v.258l-.172.184h-.241l-.172-.184v-.167l-.037-.039h-.323Zm.191-.059h-.009l-.01-.018h-.008v.018h-.009v-.047h.028a.012.012 0 0 1 .007.012.012.012 0 0 1-.009.013Zm-.033.007h.28l.034.033v.013h-.013l-.031-.031h-.27a.01.01 0 0 1-.009-.009.01.01 0 0 1 .012-.006Zm.07-.034v.007h-.022v.014h.023v.006h-.023v-.047h.031v.007h-.031v.013Zm.03.008h-.007c-.008 0-.012-.007-.012-.014s.006-.014.017-.014.016 0 .016.013h-.009s0-.006-.007-.006-.008 0-.008.006 0 0 .006.007h.007q.013 0 .013.013 0 .015-.018.015a.016.016 0 0 1-.019-.015h.009a.01.01 0 0 0 .01.009c.006 0 .009 0 .009-.008s.002-.009-.004-.01Zm.054-.008v.007h-.018v.014h.022v.006h-.031v-.047h.031v.007h-.022v.013Zm.007-.013v-.007h.039v.007h-.016v.04h-.008v-.04Zm.22.155a.027.027 0 1 1 .039-.039l.07.071.071-.071a.027.027 0 1 1 .038.039l-.07.07.07.071a.027.027 0 1 1-.038.038l-.071-.071-.07.071a.027.027 0 1 1-.039-.038l.071-.071Zm-4.29-1.65h3.535v1.872h-3.526Zm3.927 1.49h-.009v.017h.008c.006 0 .01 0 .01-.009a.008.008 0 0 0-.009-.008m5.495-20.414-.315.316v19.751l.315.315.492-.491V2.256Zm-.509.18v-.021l.411-.412L19.165 1H5.006l-.554.554.389.39Zm.029 19.935h-3.817v.943h3.718l.512-.511-.413-.412Zm-11.093-2.09h7.358v.084H8.202Zm8.503-.749a.013.013 0 0 0 0-.012l-.425-.55c-.009-.011-.013-.011-.015-.011l-8.758-.044a.013.013 0 0 0-.013.005l-.481.599a.014.014 0 0 0 .011.023h9.665a.012.012 0 0 0 .016-.01m-3.218-8.298h.689v.693h-.689Zm-1.53.232h.758v.462h-.758Zm.933.304h.04v-.69h-.192v.339h.022v.351Zm.553 0v-.582h.022v-.108h-.191v.69h.039Zm-1.569-6.832v.189l-.123.127h-.008a.084.084 0 0 0 0 .167h.01l.181.2h.2v.023a1.52 1.52 0 0 0 .161.567l.044.11V7.49h.173V5.143l.149-.157v-.407h-.019v-.11a.023.023 0 0 0-.023-.022h-.281a.022.022 0 0 0-.023.022v.271h-.278v-.297Zm3.153.656-.11-.117h-2.209v.02l-.15.156V7.49h2.469Zm-2.232 2.294a.09.09 0 0 1-.088-.092.09.09 0 0 1 .088-.091.09.09 0 0 1 .089.091.091.091 0 0 1-.089.092m0-2.09a.09.09 0 0 1-.088-.092.09.09 0 0 1 .088-.091.09.09 0 0 1 .089.091.091.091 0 0 1-.089.098Zm2.023 2.09a.09.09 0 0 1-.088-.092.089.089 0 1 1 .177 0 .091.091 0 0 1-.089.092m0-2.09a.09.09 0 0 1-.088-.092.089.089 0 1 1 .177 0 .091.091 0 0 1-.089.098ZM12.2 9.347h.314v.435H12.2Zm-.273.652h.229v-.868h-.229Zm.273-2.137h.314v.436H12.2Zm-.044.483v-.699h-.229v.868h.229Zm.967 2.955h.167v.136h-.167Zm-.211 0h.167v.136h-.167Zm-1.493-6.206V7.38l.11.11h.77V5.84l-.042-.102a1.61 1.61 0 0 1-.162-.562h-.176l-.174-.191h-.22Zm2.373 3.203a.521.521 0 1 0 .502.522.511.511 0 0 0-.502-.522m.011 1.088h-.011a.55.55 0 0 1-.119-.014h-.013a.3.3 0 0 1-.047-.014h-.017l-.044-.021h-.01a1.3 1.3 0 0 1-.167.13l-.037.027-.065.043c-.085.057-.2.134-.2.191 0 0 0 .025.035.048.279.183.446.277.623.046a.448.448 0 0 0 .077-.38Zm-.465-.255-.008-.012a.6.6 0 0 1-.024-.044l-.008-.016c-.007-.015-.012-.031-.018-.047v-.014a.6.6 0 0 1-.016-.061 1.3 1.3 0 0 1-.2-.053l-.046-.014-.074-.025a.81.81 0 0 0-.22-.055.077.077 0 0 0-.049.013s-.018.017-.014.059c.039.339.075.533.354.533a.41.41 0 0 0 .33-.177l.029-.031a.6.6 0 0 1-.036-.056m-.061-.495v-.007a.4.4 0 0 1 .02-.051l.008-.016c.006-.014.014-.026.021-.039l.011-.019.033-.045v-.007a1.3 1.3 0 0 1-.082-.192l-.02-.05-.026-.076c-.033-.097-.079-.233-.133-.245h-.008a.07.07 0 0 0-.045.025c-.234.242-.359.391-.183.622a.405.405 0 0 0 .345.165h.04a.44.44 0 0 1 .019-.065m.263-.321.014-.007.037-.016.022-.009.037-.012.022-.006a.3.3 0 0 1 .048-.007h.081a1.4 1.4 0 0 1 .091-.186l.026-.049c.011-.021.026-.044.04-.069.052-.089.123-.211.099-.262 0 0-.01-.022-.051-.027a2.4 2.4 0 0 0-.243-.018.291.291 0 0 0-.337.261.451.451 0 0 0 .092.378Zm.71-.365a.433.433 0 0 0-.22.31l-.014.041.014.007a.3.3 0 0 1 .036.02l.023.014.026.019.025.019.02.018.04.043.019.022.007.009a1.25 1.25 0 0 1 .197-.042l.053-.01c.022 0 .049-.007.076-.011.099-.014.235-.033.259-.084 0 0 .009-.023-.013-.06-.181-.289-.294-.444-.548-.315m.08.776v.169a.3.3 0 0 1-.008.046v.009a1.4 1.4 0 0 1 .16.135l.036.034c.018.015.036.034.056.054.074.071.174.17.227.156 0 0 .023-.007.036-.047.103-.33.15-.517-.11-.64a.407.407 0 0 0-.374.015l-.037.014v.015Zm-.105.437-.025.029-.021.024-.02.018-.032.029-.036.029-.02.012a.3.3 0 0 1-.036.021h-.009a1.54 1.54 0 0 1 0 .22v.045c0 .024 0 .05-.005.08-.008.103-.018.246.026.281 0 0 .019.014.057 0 .31-.123.482-.206.412-.491a.431.431 0 0 0-.247-.293l-.035-.021Zm.802-1.627h-2.469v2.567h2.469Zm-.209.134a.091.091 0 1 1-.088.092.09.09 0 0 1 .088-.092m-2.023 0a.091.091 0 1 1-.088.092.09.09 0 0 1 .088-.092m0 2.268a.09.09 0 0 1-.088-.092.089.089 0 1 1 .177 0 .091.091 0 0 1-.089.092m2.023 0a.09.09 0 0 1-.088-.092.089.089 0 1 1 .177 0 .091.091 0 0 1-.089.092m-1.026.163a1.283 1.283 0 1 1 1.233-1.281 1.259 1.259 0 0 1-1.233 1.281m0-2.517a1.236 1.236 0 1 0 1.188 1.236 1.21 1.21 0 0 0-1.188-1.236m1.057.759c-.034.075-.172.095-.294.11l-.073.011-.054.01a1.7 1.7 0 0 0-.178.037.55.55 0 0 1 .055.115l.036-.013a.44.44 0 0 1 .407-.014c.307.146.225.401.132.696a.1.1 0 0 1-.067.077h-.021c-.074 0-.165-.09-.247-.171l-.055-.052-.037-.033a1.8 1.8 0 0 0-.143-.125.53.53 0 0 1-.052.117l.033.021a.471.471 0 0 1 .268.32c.083.34-.159.44-.44.55a.14.14 0 0 1-.05.01.08.08 0 0 1-.049-.017c-.064-.048-.053-.193-.044-.321v-.123a1.9 1.9 0 0 0 0-.199.53.53 0 0 1-.14.035v.04a.486.486 0 0 1-.086.413.33.33 0 0 1-.262.154.865.865 0 0 1-.403-.19.103.103 0 0 1-.056-.086c0-.082.117-.16.22-.23l.062-.043.038-.027a1.9 1.9 0 0 0 .153-.11.52.52 0 0 1-.097-.08l-.028.028a.452.452 0 0 1-.363.192c-.33 0-.364-.267-.399-.575a.11.11 0 0 1 .03-.099c.061-.051.193-.006.31.034l.071.025.047.013c.082.025.146.044.18.05v-.068a.6.6 0 0 1 .005-.071h-.038a.452.452 0 0 1-.369-.181c-.209-.275-.025-.463.187-.682a.098.098 0 0 1 .094-.037c.077.019.123.155.165.275.009.026.018.052.026.074l.019.05a1.8 1.8 0 0 0 .073.175.53.53 0 0 1 .098-.08l-.02-.032a.492.492 0 0 1-.099-.414c.073-.341.33-.312.628-.278a.097.097 0 0 1 .086.052c.035.074-.038.198-.102.307l-.038.067-.027.048c-.039.076-.071.134-.084.167a.55.55 0 0 1 .122.029l.012-.038a.471.471 0 0 1 .246-.337c.301-.155.434.059.603.33a.11.11 0 0 1 .009.095m-2.123 2.222h.047v-.416h-.259v-.32H12.2v.215h-.092v.884h.618ZM12.2 9.301h.314v-.956H12.2v.215h-.092v.525h.092Zm.314-1.485v-.282h-.173v.001h-.233V7.6h.092v.216Zm.303 2.333h.22v.417h-.22Zm2.21.548v-.548h-1.844v.416h.315v.132h.723Zm-5.77 12.152H5.025l-.568-.567-.106-.107.326-.326V8.93h7.28v-.37h-.15v-.077h-7.13V2.061l-.389-.388-.555.555v19.455l.555.555.058-.057.684.685h4.233l-.006-.012Z"/></svg>