<svg xmlns="http://www.w3.org/2000/svg" viewBox="0 0 24 24"><path fill="#44739e" d="m19.089 22.346.196-.196v-5.252l-.196-.194h-.073l.124.11v5.272l-.102.102h-.75l.092-.068h.63l.061-.06v-5.22l-.08-.069h-2.883l-.045.042v5.223l.074.074h1.998l.06.072h-2.09l-.11-.116v-5.28l.087-.081h-.036l-.196.194v5.252l.196.196Zm-2.81-2.326v-2.8h2.593v2.796Zm-.266 2.397-.166-.166-.072-.072v-1.017l-.191-.19h-.422a.34.34 0 1 1-.44.194.337.337 0 0 1 .195-.194h-1.229l-.411-.714h-.582l-.196.34H5.872l-.197-.34H5.11l-.3.517v1.203l.828.828a.31.31 0 0 1-.018-.11.34.34 0 1 1 .491.304h7.31a.34.34 0 1 1 .456-.151.33.33 0 0 1-.151.151h1.944l.104-.11v-.064h.076l3.274-.239.235-.234v-.164l-.235.236Zm-5.638-1.255h.092v.339h.202v.077h-.294Zm-.273 0h.095l.154.416h-.093l-.032-.093h-.155l-.033.093h-.093Zm-.531 0h.09l.174.279v-.279h.086v.416h-.09l-.174-.279v.279h-.086Zm-.159 0h.091v.416h-.091Zm-.434.123a.28.28 0 0 1 .04-.069.21.21 0 0 1 .065-.047.25.25 0 0 1 .072-.017h.026a.2.2 0 0 1 .05.01.18.18 0 0 1 .054.027.15.15 0 0 1 .04.047.17.17 0 0 1 .02.062h-.088a.077.077 0 0 0-.032-.051.084.084 0 0 0-.056-.018.11.11 0 0 0-.053.012.11.11 0 0 0-.034.032.18.18 0 0 0-.02.046.22.22 0 0 0-.007.053.2.2 0 0 0 .007.051.17.17 0 0 0 .02.045.1.1 0 0 0 .034.03.119.119 0 0 0 .123-.011.088.088 0 0 0 .029-.065h-.092v-.072h.174v.22h-.058l-.009-.044a.135.135 0 0 1-.054.045.17.17 0 0 1-.06.012.23.23 0 0 1-.086-.016.19.19 0 0 1-.064-.047.176.176 0 0 1-.04-.069.22.22 0 0 1-.014-.083.21.21 0 0 1 .014-.078Zm-.153-.123h.095v.416h-.095Zm-1.388.487a.34.34 0 1 1 .339-.341.34.34 0 0 1-.339.341m.542-.364a.28.28 0 0 1 .04-.069.21.21 0 0 1 .065-.047.25.25 0 0 1 .073-.017h.027a.26.26 0 0 1 .073.017.21.21 0 0 1 .063.047.176.176 0 0 1 .04.069.23.23 0 0 1 .014.087.22.22 0 0 1-.014.084.176.176 0 0 1-.04.069.18.18 0 0 1-.06.045.23.23 0 0 1-.086.017.22.22 0 0 1-.086-.017.19.19 0 0 1-.064-.046.176.176 0 0 1-.04-.069.22.22 0 0 1-.014-.084.23.23 0 0 1 .014-.083Zm.494.737a.18.18 0 0 1-.038.066.19.19 0 0 1-.069.046.26.26 0 0 1-.102.018h-.148v.231h-.142v-.644h.286a.26.26 0 0 1 .101.018.19.19 0 0 1 .069.046.18.18 0 0 1 .039.066.25.25 0 0 1 .013.076.3.3 0 0 1-.009.077m.039-.44h-.091v-.416h.22a.17.17 0 0 1 .051.009.12.12 0 0 1 .039.025.09.09 0 0 1 .023.037.1.1 0 0 1 .009.044.12.12 0 0 1-.016.064.094.094 0 0 1-.047.04.06.06 0 0 1 .028.015.06.06 0 0 1 .018.023.07.07 0 0 1 .01.028v.11a.08.08 0 0 0 .01.021h-.078l-.007-.022v-.077a.08.08 0 0 0-.019-.048.07.07 0 0 0-.05-.016h-.1Zm.44.805a.2.2 0 0 1-.008-.034l-.006-.038v-.085a.132.132 0 0 0-.031-.075.11.11 0 0 0-.077-.023h-.152v.252h-.142v-.643h.347a.19.19 0 0 1 .078.014.165.165 0 0 1 .059.037.14.14 0 0 1 .039.057.165.165 0 0 1 .013.069.2.2 0 0 1-.024.099.143.143 0 0 1-.079.062.11.11 0 0 1 .044.023.15.15 0 0 1 .029.036.22.22 0 0 1 .015.044l.007.048v.078a.13.13 0 0 0 .007.041.08.08 0 0 0 .015.034Zm.752-.244a.239.239 0 0 1-.072.195.293.293 0 0 1-.202.064.3.3 0 0 1-.202-.062.249.249 0 0 1-.07-.196v-.399h.139v.399a.4.4 0 0 0 0 .052.1.1 0 0 0 .021.045.084.084 0 0 0 .039.032.165.165 0 0 0 .069.011.136.136 0 0 0 .11-.033.157.157 0 0 0 .029-.11v-.399h.14Zm.532.2a.23.23 0 0 1-.085.043.37.37 0 0 1-.11.017.42.42 0 0 1-.11-.015.24.24 0 0 1-.086-.04.2.2 0 0 1-.061-.072.2.2 0 0 1-.022-.102h.128a.11.11 0 0 0 .01.054.12.12 0 0 0 .032.037.12.12 0 0 0 .045.02.2.2 0 0 0 .054.008h.041a.15.15 0 0 0 .04-.012.077.077 0 0 0 .031-.026.053.053 0 0 0 .013-.039.052.052 0 0 0-.016-.043.13.13 0 0 0-.044-.028.36.36 0 0 0-.062-.018l-.069-.018a.55.55 0 0 1-.07-.022.28.28 0 0 1-.061-.034.165.165 0 0 1-.044-.051.18.18 0 0 1-.016-.076.18.18 0 0 1 .026-.085.21.21 0 0 1 .055-.062.3.3 0 0 1 .078-.035.3.3 0 0 1 .083-.014.4.4 0 0 1 .096.011.23.23 0 0 1 .083.036.176.176 0 0 1 .056.065.187.187 0 0 1 .022.094h-.137a.09.09 0 0 0-.013-.047.066.066 0 0 0-.027-.03.1.1 0 0 0-.035-.019.18.18 0 0 0-.048 0 .2.2 0 0 0-.034 0 .09.09 0 0 0-.032.013.09.09 0 0 0-.022.022.06.06 0 0 0-.009.034.08.08 0 0 0 .007.031.06.06 0 0 0 .029.021.3.3 0 0 0 .059.019l.098.027.031.007.04.014a.26.26 0 0 1 .042.022.3.3 0 0 1 .039.033.25.25 0 0 1 .029.047.21.21 0 0 1 .009.064.185.185 0 0 1-.067.147Zm.541.044-.05-.144h-.239l-.051.144h-.143l.244-.643h.142l.241.643Zm1.686.016h-.229v-.88l-.273.88h-.195l-.272-.868v.868h-.229v-1.241h.344l.26.85.245-.85h.345Zm.459 0h-.244v-1.241h.244Zm1.153 0h-.245l-.462-.829v.829h-.228v-1.241h.243l.464.829v-.829h.229Zm.459 0h-.244v-1.241h.24Zm5.321-18.55h.42v15.906h-.42Zm-.498 15.906h.427V3.853h-.427ZM17.603 1.526V1h-1.337v.524h.121v.818h-.121v.528h1.337v-.528h-.115v-.816Zm2.744 2.327h.427v15.906h-.427Zm-2.42-.99v-.592h.11v-.673h-.11V1h-.249v.596h-.11v.672h.11v.602Zm1.122 0v-.521h-.086v-.816h.086V1h-1.054v.524h.11v.818h-.11v.528Zm-1.371.073h-1.623v.844h4.92v-.842h-3.3ZM3.451 19.943v.243h11.46v-.243Zm4.879-9.058a3.38 3.38 0 0 0 .797.88.184.184 0 0 0 .125.04v-.146a.44.44 0 0 1-.101-.057 3.09 3.09 0 0 1-.7-.793 1.525 1.525 0 0 1-.236-.928 2.152 2.152 0 0 1 .595-1.393l.012-.015.064-.079-.11-.094-.04.047-.036.047a2.29 2.29 0 0 0-.623 1.481 1.67 1.67 0 0 0 .253 1.01m10.141.529h.315v5.218h-.315Zm-1.053 0h.314v5.218h-.314Zm-1.112 0h.314v5.218h-.315Zm1.084-7.561h.315v4.391h-.315Zm1.084 0h.314v4.391h-.314Zm-2.165 0h.311v4.391h-.315Zm2.831 7.131h1.381l.036-.037h-1.455Zm-.036-2.435h1.453l-.036-.036h-1.383ZM8.137 11.973h.282v.177h-.284Zm0-.35h.282v.277h-.284ZM9.69 12h.141v.11H9.69Zm.212 0h.141v.11h-.141Zm-.468-.071h.866v-.13h-.87Zm0-.508v.236h.868v-.236h-.871Zm.938.161h.066v.295h-.066Zm-1.011 0h-.033v.295h.032Zm6.875-3.346v-.035l-.355-.355-.099.099.373.373Zm0-.336-.205-.205-.1.1.187.186.118.117Zm-6.448.06h.141v.77h-.143Zm.212 0h.14v.77h-.142Zm-.736 1.001v2.14h.272V9.967a5.7 5.7 0 0 0-.132-.618 3.5 3.5 0 0 0-.142-.387Zm.426 2.141h.55V8.798h-.635v2.304Zm-.905-1.947h.277v1.589h-.277Zm.409-.355h-.531v2.174c.03.043.063.086.1.131h.44Zm-.061 2.015h-.42V9.082h.42Zm-.619-.051.069.11v-.258h-.155a1.3 1.3 0 0 0 .086.148m-.242.161a1.6 1.6 0 0 1-.161-.313h-3.46v.314h3.621Zm1.696.253h-.207v.177h.207Zm.68-.567h5.342v.314h-5.342ZM8.311 8.798h-3.66v.315H8.15a2.3 2.3 0 0 1 .161-.315m.276.11a2 2 0 0 0-.11.201h.11Zm2.061-.11h5.342v.315h-5.342Zm8.158 1.151a.125.125 0 1 0-.127-.126.124.124 0 0 0 .127.126m-1.33-.125a.11.11 0 1 0 .11-.11.103.103 0 0 0-.11.097.026.026 0 0 0 0 .013m-.022-1.225a.127.127 0 1 0 .125-.126.127.127 0 0 0-.125.126m-1.1 1.1a.125.125 0 1 0 .124.126.124.124 0 0 0-.124-.126m1.225 1.225a.125.125 0 1 0 .125.127.125.125 0 0 0-.125-.127m-.058-2.606L16.07 9.764v.124l1.448 1.452h.123l1.446-1.446v-.13l-1.442-1.446Zm-1.163 1.702a.197.197 0 1 1 .196-.198.197.197 0 0 1-.196.198m1.226 1.225a.197.197 0 1 1 .195-.198.197.197 0 0 1-.195.201Zm1.225-1.613a.197.197 0 1 1-.197.197.197.197 0 0 1 .197-.197m-.938.197a.288.288 0 1 1-.289-.289.288.288 0 0 1 .288.286Zm-.092-1.226a.197.197 0 1 1-.196-.197.196.196 0 0 1 .195.195Zm-1.709-.092V9.66l1.344-1.344h-1.148Zm.538-.117a.197.197 0 1 1-.196.198.196.196 0 0 1 .196-.196Zm1.169-.078h-.035l1.345 1.344V8.511l-.196-.195Zm.925.078a.197.197 0 1 1-.196.198.196.196 0 0 1 .196-.196Zm-2.632 2.75.195.195h1.159L16.07 9.987Zm.538-.204a.197.197 0 1 1-.196.198.197.197 0 0 1 .197-.197Zm2.287.399.196-.195V9.987l-1.359 1.353Zm-.196.001a.197.197 0 1 1 .196-.198.196.196 0 0 1-.196.196ZM3.64 9.558a.309.309 0 1 0 .309.309.31.31 0 0 0-.309-.309m0 .505a.196.196 0 1 1 .196-.196.196.196 0 0 1-.196.196m.943-1.32H3.025v2.255h1.554Zm-.943 1.505a.381.381 0 1 1 .381-.381.381.381 0 0 1-.381.381m.639.405a.196.196 0 1 1 .196-.196.196.196 0 0 1-.196.196m0-1.21a.196.196 0 1 1 .193-.193.196.196 0 0 1-.196.196ZM10.605 21.9l-.085.237h.168Zm-.405-.481-.051-.153-.055.153Zm-1.367.433h-.155v.18h.155a.11.11 0 0 0 .073-.021.084.084 0 0 0 .024-.07.079.079 0 0 0-.024-.068.11.11 0 0 0-.073-.024Zm-.522.017a.1.1 0 0 0-.04-.014.3.3 0 0 0-.046 0h-.11v.192h.156a.1.1 0 0 0 .04-.014.063.063 0 0 0 .027-.029.1.1 0 0 0 .011-.05.096.096 0 0 0-.011-.054.066.066 0 0 0-.027-.033Zm.348-.531a.068.068 0 0 0 0-.089.07.07 0 0 0-.047-.013h-.1v.114h.1a.066.066 0 0 0 .047-.014Zm-.576.132a.1.1 0 0 0 .034.031.121.121 0 0 0 .11 0 .1.1 0 0 0 .035-.031.1.1 0 0 0 .019-.045.13.13 0 0 0 .006-.051.15.15 0 0 0-.006-.054.1.1 0 0 0-.021-.047.1.1 0 0 0-.033-.033.121.121 0 0 0-.11 0 .11.11 0 0 0-.034.032.17.17 0 0 0-.02.045.22.22 0 0 0-.007.054.2.2 0 0 0 .007.051.17.17 0 0 0 .02.046ZM9.36 11.353h.33v-.181h-.871a3.3 3.3 0 0 0 .384.367l.015.01h.032v-.04h.11Zm-.58.198a3.2 3.2 0 0 1-.462-.55h-.352v.55Zm.44-3.876V8.7l.01.023h.031v.055a4.4 4.4 0 0 1 .211.55c.023.08.043.164.061.25v-.852h.181v-.564h-.22v-.487Zm.983.487v.564h.11v2.448h-.278v.173h.33v.16h.138v.183h.033V8.358l-.186-.196Zm5.661 4.828a1.85 1.85 0 0 0 .37.855v-1.016c-.044-.41-.085-.952-.117-1.54L16 11.172v-.18h-.282v.093c.04.745.091 1.434.146 1.905m.827 1.37a4.84 4.84 0 0 0 .654.517v-.469a4.2 4.2 0 0 1-.654-.606Zm2.593 1.191a5 5 0 0 1-.244-.145l-.184-.11v.434l.209.11.22.119Zm-3.567-5.984c0 .33-.011.66-.009.972H16V9.184h-.278c-.002.124-.004.252-.005.383m2.09 5.574c.22.119.417.232.596.33v-.44q-.251-.142-.596-.33Zm-8.652-6.91V7.6h.34a2.1 2.1 0 0 0 .085-.22c.065-.22.129-.518.196-.837a11 11 0 0 1 .429-1.62 2.53 2.53 0 0 1 2.287-1.56 2.37 2.37 0 0 1 .912.165 3.278 3.278 0 0 1 1.765 1.971v.008a8.8 8.8 0 0 1 .36 1.621c.021.146.045.286.068.421a7.04 7.04 0 0 1 .128 1.185h.276V8.48l.096-.097v-.022l-.415-.416.2-.2.121-.121-.022-.127c-.023-.139-.047-.282-.068-.43a9.35 9.35 0 0 0-.378-1.698l-.015-.018a3.652 3.652 0 0 0-1.98-2.191 2.75 2.75 0 0 0-1.057-.19 2.914 2.914 0 0 0-2.647 1.809 11.1 11.1 0 0 0-.44 1.68c-.065.308-.126.599-.189.808a2.77 2.77 0 0 1-.482.898l.294.251c.026-.034.076-.097.136-.185m11.149 1.911a.196.196 0 1 0 .196.196.196.196 0 0 0-.196-.196m-.641-.77a.381.381 0 1 0 .38.381.381.381 0 0 0-.38-.385Zm0 .69a.309.309 0 1 1 .309-.309.31.31 0 0 1-.308.312Zm0-.505a.196.196 0 1 0 .195.196.196.196 0 0 0-.195-.2Zm.641-.618a.196.196 0 1 0 .196.196.196.196 0 0 0-.196-.196m.468 11.086v-.19h-1.416v.19Z"/></svg>