<svg xmlns="http://www.w3.org/2000/svg" viewBox="0 0 24 24"><path fill="#44739e" d="M22.725 18.167h-2.43v.622h2.668v-.622Zm-16.795.622v-.622H3.296v.622h.237Zm11.071 1.109a.333.333 0 0 1-.334.333.333.333 0 0 1-.333-.333.333.333 0 0 1 .333-.333.333.333 0 0 1 .334.333M8.776 8.799a.091.091 0 1 0-.091.09.091.091 0 0 0 .091-.09M6.793 7.014a.091.091 0 1 0 .09-.092.09.09 0 0 0-.09.092m1.983 0a.091.091 0 1 0-.091.09.091.091 0 0 0 .091-.09M6.974 8.799a.091.091 0 0 1-.091.091.091.091 0 0 1-.092-.091.091.091 0 0 1 .092-.091.091.091 0 0 1 .091.091m-1.208-.124h.023v2.001h-.023Zm.141 3.305h1.001v.317H5.907Zm.983-.31h.053v.193H6.89Zm.478 0h.053v.473h-.053Zm-.776-2.75V6.94l.135-.134V6.5H6.58l-.013.141H6.17V6.39h-.068v.139l-.132.132h-.02a.033.033 0 1 0 0 .065h.025l.162.17h.201v.059a1.21 1.21 0 0 0 .14.471l.04.092V8.92Zm.828-2.187v-.355a.052.052 0 0 0-.052-.053h-.405a.052.052 0 0 0-.053.053v.415h.51Zm-.71 2.184h.001l-.001-.001Zm1.66-.72-.11.173h.146v-.231a.26.26 0 0 1-.036.058m.08-.422-.033-.104a.4.4 0 0 1-.013-.052s0 .023-.014.051l-.033.11Zm-1.322-.106a.054.054 0 0 0-.061-.061h-.048v.123h.046a.056.056 0 0 0 .063-.062M6.71 7.13v1.551a.209.209 0 0 1 .382.118.21.21 0 0 1-.042.121h1.463a.208.208 0 0 1 .318-.266V7.16a.208.208 0 1 1-.276-.311h-1.54a.208.208 0 0 1-.13.37.21.21 0 0 1-.175-.089m1.263 1.447-.153-.233-.055.064v.169h-.118v-.55h.119v.247l.202-.247H8.1l-.199.233.208.322Zm.609-.119h-.066v.119h-.11v-.119H8.15v-.08l.23-.338h.136v.33h.066Zm-.006-.55h-.081l-.026-.077h-.132l-.026.08h-.073l.124-.358h.087Zm-.504.007c-.09 0-.14-.043-.143-.11h.079a.061.061 0 0 0 .066.053c.042 0 .062-.02.062-.048s-.014-.037-.051-.045l-.054-.01a.101.101 0 0 1-.092-.101c0-.064.049-.11.135-.11s.129.047.131.102h-.078a.05.05 0 0 0-.054-.046c-.033 0-.054.018-.054.043s.013.038.047.044l.054.01c.064.012.095.046.095.099 0 .08-.052.122-.143.122Zm-.273-.157v-.209h.076v.234c0 .09-.058.132-.146.132s-.145-.042-.145-.132v-.23h.077v.209a.13.13 0 0 0 .013.072.081.081 0 0 0 .11 0 .13.13 0 0 0 .015-.072Zm-.33-.195a.095.095 0 0 1 .06.092.101.101 0 0 1-.07.098l.081.154h-.085l-.067-.137h-.055v.137h-.077v-.354h.139a.19.19 0 0 1 .073.013Zm-.529-.01h.125c.077 0 .137.033.137.11s-.063.12-.143.12h-.04v.123H6.94Zm0 .469h.173l.1.299a.6.6 0 0 1 .023.081s.008-.035.023-.081l.099-.299h.173v.55h-.114v-.43s-.014.052-.037.118l-.103.317h-.088l-.104-.317a1.3 1.3 0 0 1-.033-.117v.434H6.94Zm.508-.36a.055.055 0 0 0-.061-.056h-.054v.11h.052a.055.055 0 0 0 .063-.054m-.295 4.79.097-.097h-.192ZM6.4 8.92V7.552l-.034-.079a1.5 1.5 0 0 1-.148-.459h-.136l-.154-.163h-.161l-.07.07v1.636h.21v.363Zm.622.321a1.16 1.16 0 0 1 .339-.211H6.71v.66a1.14 1.14 0 0 1 .22-.356.147.147 0 0 0 .092-.093m-.139.027a.079.079 0 1 1 .079-.08.078.078 0 0 1-.079.08m.148 1.687a.15.15 0 0 0-.128-.129 1.17 1.17 0 0 1-.193-.322v.651h.651a1.13 1.13 0 0 1-.33-.2m-.069.019a.079.079 0 1 1-.079-.074.079.079 0 0 1 .079.074M8.831 9.03h-.65a1.142 1.142 0 0 1 .65.651Zm-.146.233a.079.079 0 1 1 .079-.079.078.078 0 0 1-.079.084Zm.146 1.241a1.144 1.144 0 0 1-.651.651h.651Zm-.146.55a.079.079 0 1 1 .079-.079.078.078 0 0 1-.079.078ZM6.83 9.721a1 1 0 0 0-.072.35.087.087 0 0 1 .072-.022Zm.967-.091h-.01a.47.47 0 0 1 .158.032c.046-.129.062-.247.227-.33a.268.268 0 0 1 .255-.017 1.01 1.01 0 0 0-.401-.206c.045.063-.067.22-.119.309a1 1 0 0 0-.11.212m1.034 2.033v-.39H7.227v-.06h-.129v.06h-.156v.279h.119v.709h-.035v.094h.318v-.094H7.25v-.709h.288v.111Zm-.837-.575c-.07-.034-.039-.22-.034-.33a.97.97 0 0 0 0-.236h.006a.48.48 0 0 1-.178.041h.011a.44.44 0 0 1-.066.394.276.276 0 0 1-.22.125 1.03 1.03 0 0 0 .262.035 1 1 0 0 0 .219-.029m-.639-.443a1 1 0 0 0 .188-.143.46.46 0 0 1-.126-.101v.006c-.098.097-.164.196-.347.197a.37.37 0 0 1-.137-.022v.098a1 1 0 0 0 .17.186c-.005-.076.167-.161.252-.221m1.327-.098c-.07.032-.197-.11-.277-.182a1 1 0 0 0-.185-.148v-.008a.45.45 0 0 1-.065.144c.118.072.229.11.275.29a.276.276 0 0 1-.035.253 1.03 1.03 0 0 0 .287-.349m-1.37-.527a.451.451 0 0 1-.37-.153v.21c.05.014.1.033.14.044a1.06 1.06 0 0 0 .23.057v.006a.44.44 0 0 1-.008-.085.44.44 0 0 1 .008-.083Zm.266-.925a1.02 1.02 0 0 0-.414.182c.077 0 .126.19.165.289a.96.96 0 0 0 .097.22v.006a.46.46 0 0 1 .119-.102.44.44 0 0 1-.11-.383.27.27 0 0 1 .143-.212m1.211 1.019v-.019A1.01 1.01 0 0 0 8.7 9.67c-.021.075-.211.084-.316.102a1.05 1.05 0 0 0-.232.05l-.005-.007a.48.48 0 0 1 .072.141.44.44 0 0 1 .398-.032.273.273 0 0 1 .172.19m5.934 10.338h.081v.193h.08v-.256h-.161Zm.123-.214a.045.045 0 0 0-.05.039.052.052 0 1 0 .05-.039m-.026-.169a.44.44 0 0 0-.487.387c0 .344.526.518.831.274s.088-.661-.344-.661m.275.607c-.244.194-.66.056-.66-.22s.421-.414.66-.22a.268.268 0 0 1 0 .44m-2.435-1.405h.623v.068h-.623Zm.382-.388.132-.137v-.121h-.083v.098l-.09.094h-.029l-.089-.094v-.098h-.081v.121l.131.137Zm-2.054-.073v.343l.387-.166Zm1.741.32c0 .038.037.073.068.099l.055-.043c-.049-.037-.055-.06-.012-.11a.066.066 0 0 0 .021-.045c0-.031-.028-.061-.065-.097l-.059.044c.056.052.051.058.011.103a.066.066 0 0 0-.019.049m.306-.09c0-.031-.028-.062-.065-.097l-.059.044c.056.052.05.057.011.102a.066.066 0 0 0-.019.044c0 .038.035.073.068.099l.055-.042c-.049-.038-.055-.061-.012-.11a.066.066 0 0 0 .021-.04m.054-.056c.056.052.051.057.011.102a.066.066 0 0 0-.019.044c0 .038.036.073.069.099l.055-.043c-.05-.037-.055-.06-.014-.11a.063.063 0 0 0 .022-.045c0-.031-.028-.061-.066-.097Zm-1.624.276c.306-.244.088-.66-.344-.66a.446.446 0 0 0-.486.387c0 .339.525.513.83.273m-.068-.494a.268.268 0 0 1 0 .44c-.245.195-.66.056-.66-.22s.415-.418.66-.223Zm2.987.22v.377a.034.034 0 0 0 .036.03.034.034 0 0 0 .037-.03v-.18a.514.514 0 0 0 .679.053c.277-.22.079-.602-.311-.602a.405.405 0 0 0-.441.352m.576-.11a.133.133 0 0 1 0 .22c-.121.096-.33.028-.33-.11s.209-.203.33-.108Zm-.135-.287a.459.459 0 0 0-.501.397.323.323 0 0 0 .05.172v-.173a.414.414 0 0 1 .451-.361.44.44 0 0 1 .433.266.309.309 0 0 1-.115.352.525.525 0 0 1-.675-.034v.052a.57.57 0 0 0 .357.118.407.407 0 1 0 0-.793Zm-1.537 1.763c-.011-.02 0-.031.036-.087l-.11-.084c-.069.026-.084.037-.11.029s-.026-.024-.051-.082h-.15c-.025.058-.027.074-.052.082s-.04 0-.11-.029l-.11.084c.033.055.047.067.037.087s-.03.021-.104.042v.119c.074.021.094.022.104.042s0 .032-.037.088l.11.083c.069-.026.084-.037.11-.028s.026.023.052.081h.15c.025-.057.027-.074.051-.082s.041 0 .11.029l.11-.084c-.033-.055-.046-.068-.036-.087s.03-.021.104-.042v-.119c-.072-.021-.094-.022-.104-.042m.035.122a.14.14 0 0 0-.099.06.089.089 0 0 0 .017.097l-.036.029a.17.17 0 0 0-.123-.013.117.117 0 0 0-.074.078h-.052a.119.119 0 0 0-.075-.078.168.168 0 0 0-.122.013l-.037-.029a.089.089 0 0 0 .017-.097.14.14 0 0 0-.099-.06v-.041a.132.132 0 0 0 .099-.06.09.09 0 0 0-.017-.097l.037-.029a.165.165 0 0 0 .122.013.11.11 0 0 0 .075-.078h.052a.11.11 0 0 0 .074.078.165.165 0 0 0 .128-.01l.036.03c-.018.03-.036.059-.016.096a.132.132 0 0 0 .099.06Zm-.341-.153a.135.135 0 1 0 .166.132.153.153 0 0 0-.166-.132m0 .212a.081.081 0 1 1 .099-.08.09.09 0 0 1-.099.08m-1.407-.103h-.033v-.006h-.374v-.026a.029.029 0 0 0-.031-.025c-.019 0-.033.011-.033.025v.026h-.262v.006h-.032c-.019 0-.033.011-.033.026a.03.03 0 0 0 .033.026h.033v.007h.234v.025a.03.03 0 0 0 .033.026.03.03 0 0 0 .032-.026v-.025h.314v-.007h.033a.03.03 0 0 0 .033-.026c.086-.015.072-.026.053-.026m-.177.052h.082v.043h-.151v-.064a.03.03 0 0 0-.032-.026.03.03 0 0 0-.033.026v.064h-.378v-.037h.081a.026.026 0 1 0 0-.053h-.081v-.075h.018-.004.135v.065c0 .014.015.025.033.025a.029.029 0 0 0 .032-.025v-.065h.161v.04h-.082a.026.026 0 1 0 0 .052Zm-.278-.17v.144h-.18a.165.165 0 0 0 .18.144.147.147 0 1 0 0-.288m0 0a.166.166 0 0 0-.18.144h.18ZM1.609 9.735l-.055.097h.155a.594.594 0 0 1 .3-.097Zm1.161.604a.601.601 0 0 1-.21.459v.137h.065l.25-.44v-.383l-.282-.379h-.398a.605.605 0 0 1 .575.606m17.993-7.388V2.2h-.268v.751Zm-.435 15.956h-.151v-.287l-.148.149v1.047l.299.3ZM3.533 2.951V2.2h-.237v.751h.213ZM22.63 2.2h.239v.751h-.239ZM3.178 8.857h.239v2.869h-.239Zm14.476 9.449v3.256H8.862l-.104-.199v-2.96l-.038.044v3.211l.103.2h8.966l.105-.202v-3.169l-.162-.181ZM23 8.799h-.356v.058h-.484v-.058h-.357v.058h-.794v.517h.794v2.41h.357v-.058h.484v.058H23ZM3.96 11.784h.355v-2.41h.841v-.517h-.841v-.058H3.96v.058h-.426v2.869h.426Zm16.486 8.442h.28v-.822h-.28Zm2.09-.822v.822h.309v-.822h-.288Zm.08.881h.229v.468h-.229Zm0-1.378h.229v.439h-.229Zm-2.17 1.494-.03-.03v.382h.23v-.468h-.2Zm0-1.494h.2v.439h-.2Zm2.111.439v-.439h-1.853v.439h.051v-.074h1.751v.074Zm-.051 1.014h-1.751v-.074h-.051v.527h-.344v-.499l-.447-.449V18.86h-1.469l-.123-.214h-.309v2.886h.495l.119-.12h3.659l.22-.22v-.406h.055v-.498h-.051Zm-1.721-.075v.044h1.691v-1.027h-1.691v.044ZM5.58 18.907h.229v.439H5.58Zm0 1.378h.229v.468H5.58Zm-2.199-1.378h.229v.439h-.229Zm0 1.378h.229v.468h-.229Zm.369-.983h1.692v1.027H3.75Zm5.126-1.195h11.075v.068H8.876Zm-.013 0H6.294v.07h2.508Zm.958 1.703a.33.33 0 0 1 .052.014l.104.033v-.094l-.103.033a.4.4 0 0 1-.053.014m.051 1.269a.054.054 0 0 0-.062.062v.047h.124v-.046a.056.056 0 0 0-.062-.063m-.007-.32a.055.055 0 0 0-.056.062v.055h.11v-.054c.003-.033-.009-.063-.054-.063m6.935.359.124-.122v-.174l-.124-.123h-.173l-.122.123v.174l.122.122Zm-6.969-2.581a.25.25 0 0 1 .037.02l.11.075v-.096h-.149Zm-1.978.322h-1.54v1.005l-.447.449v.499h-.344v-.556h.318v-.88h-.318v-.469H3.67v.463h-.318v.88h.318v.527h.049v.406l.22.22h3.729l.12.12H8.6v-2.878h-.624Zm-2.383.517v.984H3.72v-1.087h1.75Zm16.024-16.77h.252V8.49h-.252Zm.744.434v5.729h.329v-5.7h-.054V3.04Zm-.744 6.422h.252v8.587h-.252Zm-.485.03h.427v2.234h-.427Zm1.229 2.322h.329v6.234h-.329ZM8.876 21.335l.057.11h8.603v-3.197h-8.66Zm1.238-.07h-.359v-.124c0-.078.033-.136.115-.136s.12.062.12.143v.04h.124Zm0-.312h-.359v-.14a.19.19 0 0 1 .013-.072.094.094 0 0 1 .093-.06.1.1 0 0 1 .097.07l.154-.081v.083l-.136.068v.055h.136Zm-.126-.33h-.233v-.076h.209a.12.12 0 0 0 .073-.014.066.066 0 0 0 .023-.055.068.068 0 0 0-.023-.059.13.13 0 0 0-.073-.012h-.209v-.076h.233c.09 0 .133.059.133.147s-.042.146-.133.146Zm6.679-1.21a.485.485 0 1 1-.485.485.486.486 0 0 1 .485-.485m-.714 1.368h.394l.069.069v.182l.174.174h.25l.175-.174v-.246l-.175-.175h-.88v-.044h.902l.2.2v.284l-.2.2h-.284l-.199-.2v-.183l-.042-.043h-.376Zm.511.231V20.8c.048-.048.098-.097.146-.146h.208l.146.146v.208l-.146.146h-.208Zm-6.168-2.589h5.294v2.817h-5.294Zm-.53.042h.213v-.042h.057v.042h.077v.072h-.077v.164h-.051l-.22-.148Zm-.011.485h.155l-.155-.13v-.086l.149.129.209-.134v.088l-.15.098.042.036h.11v.076h-.36Zm0 .419.192-.064A.33.33 0 0 1 10 19.29a.4.4 0 0 1-.053-.015l-.192-.064V19.1h.358v.076h-.28s.033.008.076.022l.204.067v.058l-.204.067a1 1 0 0 1-.076.022h.28v.068h-.358Zm0 .39.358-.126v.08l-.08.027v.131l.08.026v.074l-.358-.126Zm.098.245v.078a.05.05 0 0 0-.048.054c0 .033.018.054.043.054s.039-.014.045-.048l.01-.055c.011-.064.045-.094.099-.094.076 0 .119.052.119.144s-.043.139-.11.143v-.081a.059.059 0 0 0 .054-.064c0-.043-.022-.063-.049-.063s-.038.014-.046.052l-.009.052a.1.1 0 0 1-.102.093c-.062 0-.11-.049-.11-.134s.051-.129.104-.131m10.098-1.521v-.235h-2.113l.173.194v.041Zm-13.657-.235v.235h2.308v-.081l.137-.154Zm-.246.659h-.15v1.209l.299-.3v-1.047l-.149-.15ZM4.419 9.462h.252v8.587h-.252Zm-.768 8.587h.276v-6.235h-.329v6.235Zm17.358-9.496h1.169v.187h-1.169Zm-17.032 0h1.179v.187H3.977Zm16.914.41H8.949v.252h11.942ZM5.402 2.2h.269v.751h-.269Zm-.673 7.292h.427v2.234h-.427Zm-.282-6.857h.193v5.8h-.193Zm-.588 5.8h.038V3.069h-.27V8.74h.232Zm.9-5.454h.525V2.17h-.321v.436h-.204Zm16.677-.375h-.235V2.17h-.321v.811h.556Zm-17.268 0h.162v.376h-.162Zm17.637 0h.192v.376h-.192ZM2.1 10.204a.128.128 0 1 0 .128.126.127.127 0 0 0-.128-.126m.401.849h-.059v-.311l.023-.019a.487.487 0 0 0-.3-.871h-.128a.48.48 0 0 0-.277.087l-.015.011h-.396l.034-.059h-.302v1.406l.133.133h1.472l-.185-.139Zm-1.13.251a.165.165 0 1 1 .164-.165.165.165 0 0 1-.164.165m.723-.55a.403.403 0 1 1 .403-.402.4.4 0 0 1-.397.398Zm19.711-8.207h.25v.404h.458V2.2H21.26v.347h.176ZM4.11 2.951v-.404h.22v-.03h.429v.03h.145V2.2H3.651v.751h.364ZM1 9.431v.399l.416.002.117-.202.008-.013h1.111l.341.458v.454l-.3.524H2.56v.207l.5.402V8.857H1.574Zm7.949 1.87h11.942v.252H8.949Zm0-.684v.075h11.126v.55h.816V9.273h-.816v.762H8.949v.075h11.126v.507Zm2.322-7.722h-.004l-.143.404h.285Zm-7.286 8.949v6.205h.374v-6.205h-.102Zm.03-8.775h.315v5.366h-.315Zm17.79 0h.374v5.366h-.374ZM7.201 2.98c0-.141-.102-.165-.213-.165h-.189v.33h.189c.111-.003.213-.028.213-.165m1.059-.015c0-.11-.057-.153-.167-.153h-.264v.31h.265c.11 0 .166-.046.166-.157m-3.501.104v5.366h.514v.18h-.059v3.229h-.485v6.206h1.32v.404l.103.103v-6.142h-.363v-.305h-.23v-.059h.23v-.184h.984v-.31h.057v-.28h-.238v-.33h-.258v.173H6.09v-.782h.244v.185h.258v-.858h-.258v.184H6.09v-.777h.244v.185h.258V9.03h-.685v1.76h-.258V8.615h-.07V6.873l.14-.14h.082a.15.15 0 0 1-.006-.039.152.152 0 0 1 .124-.149l.065-.065v-.208h.167V4.574l.362-.361h13.2l.361.361v4.331h.816v-.47h.55V3.069h-1.058v-.927H5.787v.927Zm6.388-.44h.249l.412 1.1h-.248l-.082-.246h-.413l-.087.246h-.245Zm-1.006.621c-.164-.041-.33-.111-.33-.314 0-.227.213-.33.412-.33.23 0 .44.1.44.355h-.234c-.008-.132-.101-.167-.22-.167-.077 0-.167.033-.167.126s.053.096.33.166c.081.018.33.072.33.321 0 .202-.158.353-.459.353-.244 0-.474-.12-.469-.392h.235c0 .147.11.204.243.204.085 0 .215-.024.215-.138s-.165-.146-.326-.19ZM8.7 2.624h.242v.686c0 .12.031.239.227.239.172 0 .228-.074.228-.239v-.686h.242v.686a.41.41 0 0 1-.47.44c-.302 0-.469-.141-.469-.44Zm-1.11 0h.594a.303.303 0 0 1 .322.303.268.268 0 0 1-.177.273c.119.033.153.145.161.257a.57.57 0 0 0 .046.262h-.242a1.32 1.32 0 0 1-.04-.264c-.016-.116-.061-.167-.183-.167h-.242v.431h-.242Zm-1.03 0h.49a.354.354 0 1 1 0 .706h-.251v.396h-.242Zm14.876 9.22h-.545v-.232h-.816v6.944l.102-.102v-.405h1.259Zm.427 0h-.058v6.205h.373v-6.205Z"/></svg>