<svg xmlns="http://www.w3.org/2000/svg" viewBox="0 0 24 24"><path fill="#44739e" d="M12.916 22.45c.148-.123.043-.33-.167-.33a.22.22 0 0 0-.237.196c.001.174.255.262.404.134m-1.219-.734h.302v.034h-.302Zm.069-.325v.06l.064.069h.053l.065-.069v-.06h-.041v.049l-.043.048h-.014l-.043-.048v-.049Zm.087.158-.028.023c.026.025.024.029 0 .052a.03.03 0 0 0-.009.022c0 .019.017.036.033.049l.027-.02c-.023-.02-.026-.031-.005-.053a.033.033 0 0 0 .011-.023c-.001-.017-.016-.029-.029-.05m.082 0-.029.023c.027.026.025.029 0 .052a.03.03 0 0 0-.009.022c0 .019.018.036.033.049l.033-.015c-.023-.02-.026-.031 0-.053a.035.035 0 0 0 .01-.023c-.01-.022-.02-.034-.038-.055m-.171.146.028-.02c-.025-.02-.028-.031-.007-.053a.033.033 0 0 0 .011-.023c0-.017-.014-.031-.032-.05l-.029.023c.027.026.025.029 0 .052a.033.033 0 0 0-.007.022.077.077 0 0 0 .036.049m-.815-.321a.22.22 0 0 0-.237.197c0 .174.256.261.404.139s.043-.336-.167-.336m1.802.051a.166.166 0 0 0-.18.148v.16a.014.014 0 0 0 .016.012.013.013 0 0 0 .014-.012v-.04a.235.235 0 0 0 .15.053.176.176 0 1 0-.209-.173.145.145 0 0 0 .029.087v-.09a.166.166 0 0 1 .18-.147c.159 0 .24.159.126.253a.19.19 0 0 1-.086.039.19.19 0 0 0 .086-.039c.112-.091.032-.251-.126-.251m-1.096.915c.036.011.045.011.051.021s0 .016-.018.044l.051.043c.034-.013.042-.019.054-.015s.013.013.025.041h.073c.013-.028.013-.036.025-.041s.02 0 .054.015l.05-.043c-.015-.028-.022-.034-.017-.044s.015-.01.05-.021v-.061c-.036-.009-.045-.011-.05-.02s0-.016.017-.044l-.05-.042c-.034.013-.042.017-.054.014s-.012-.012-.025-.042h-.073c-.012.03-.013.038-.025.042s-.02 0-.054-.014l-.051.042c.017.028.022.034.018.044s-.015.011-.051.02Zm-.706.172a.015.015 0 0 0 .016-.014v-.012h.185a.015.015 0 0 0 .017-.013.015.015 0 0 0-.017-.013h-.187v-.013a.015.015 0 0 0-.016-.014.014.014 0 0 0-.016.014v.013h-.195a.015.015 0 0 0-.017.013.015.015 0 0 0 .017.013h.187v.012a.015.015 0 0 0 .026.014m3.084.342H9.922l-.022-.047v.062l.037.077h4.116l.039-.078v-1.516l-.059-.068Zm-4.062-1.518v1.377l.018.034h3.938v-1.411h-.861v1.335h-2.46v-1.335Zm8.294.929-.089-.094v.709l.089-.095Zm1.573-.067v.654l.02.018v-.689Zm-1.536.625-.124.133a.025.025 0 0 0 .023.018h1.632a.025.025 0 0 0 .025-.027v-.005l-.057-.052Zm-.101-.746a.024.024 0 0 0-.023.017l.028.03.096.104 1.499-.068.057-.051v-.007a.025.025 0 0 0-.025-.025Zm.117.204v.489l1.466.066v-.621Zm-12.548.504.089.095v-.709l-.089.094Zm-1.535.105-.059.052v.005a.026.026 0 0 0 .027.027h1.63a.026.026 0 0 0 .024-.018l-.124-.133Zm1.622-.796a.025.025 0 0 0-.024-.017h-1.63a.025.025 0 0 0-.027.025v.007l.059.051 1.498.068Zm-.14.676v-.489l-1.466-.066v.621Zm6.46-2.443v-.072h.055v-.103h5.545v-.131H6.198v.131h5.573v.105h.055v.07H4.153v1.717a.077.077 0 0 1 .053-.021h1.627a.077.077 0 0 1 .061.031l.018-.019v.892h3.895l-.015-.029v-1.604l.179-.211v.145h3.96v-.054h.153l.119.139v.024l.023.025v1.535l-.016.03h3.913v-.892l.017.019a.08.08 0 0 1 .061-.031h1.632a.077.077 0 0 1 .052.021v-1.717ZM5.892 23h.006l-.004-.003Zm8.277 0h3.954v-.073h-3.917Zm-8.257-.073V23h3.933l-.038-.073ZM18.137 23h.006l-.002-.003Zm.438-15.4v.205h.235v-.26h-.181Zm.235-.574v-.26h-.235v.205l.054.055Zm-.235.833h.235v.438h-.235Zm0-1.353h.235v.206h-.235ZM6.294 3.098a3.436 3.436 0 0 0 .863-1.528 3.74 3.74 0 0 1 .17-.57h-.126a3.74 3.74 0 0 0-.158.55 3.34 3.34 0 0 1-.839 1.475 1.83 1.83 0 0 0-.576 1.05l.117-.007a1.787 1.787 0 0 1 .549-.97m5.408 3.355h.118a17.55 17.55 0 0 0-.936-4.774A11 11 0 0 0 10.623 1h-.127c.095.22.188.462.277.717a17.4 17.4 0 0 1 .929 4.736m.403 0h.134a21.23 21.23 0 0 0-1.127-5.315c-.018-.047-.035-.093-.052-.138h-.144l.069.184a21.12 21.12 0 0 1 1.12 5.269m-5.247-.242a14.86 14.86 0 0 1 .822-4.84c.047-.127.095-.251.145-.37H7.68c-.043.11-.085.214-.126.324a14.98 14.98 0 0 0-.83 4.887ZM5.795 4.123h-.106l-.108.005-.023.46h.297Zm1.292 3.906h.56l.018-.02v-.293l-.018-.019h-.56v.093h.16l.051.051v.054l-.051.05h-.16Zm0-1.129h.56l.018-.019v-.294l-.018-.019h-.56v.094h.16l.051.05v.054l-.051.051h-.16Zm-1.256.772h.22a.117.117 0 0 1-.047-.094.118.118 0 0 1 .236 0 .117.117 0 0 1-.046.094h.485a.12.12 0 0 1-.046-.094.119.119 0 0 1 .236 0 .12.12 0 0 1-.046.094h.212v-.781h-.191a.12.12 0 0 1 .023.07.119.119 0 0 1-.237 0 .11.11 0 0 1 .025-.07h-.44a.12.12 0 0 1 .023.07.118.118 0 0 1-.236 0 .12.12 0 0 1 .021-.07h-.192Zm0 .375a.06.06 0 0 0 .06.06h1.081a.06.06 0 0 0 .061-.06v-.322H5.831Zm.386-1.782h-.33a.06.06 0 0 0-.061.06v.513h.162a.119.119 0 1 1 .102 0h.679a.119.119 0 1 1 .102 0h.158v-.513a.06.06 0 0 0-.061-.06Zm-.983.95h.543v-.136h-.543Zm0 .138h.543v.136h-.543Zm1.853 0h11.679v.136H7.087Zm0-.274v.136h11.679v-.136h-.159Zm11.245.191h-.037v.01a.021.021 0 0 0 .042 0Zm-.789 0h-.036v.01a.02.02 0 0 0 .02.02.02.02 0 0 0 .021-.02Zm-.788 0h-.037v.01a.02.02 0 0 0 .021.02.021.021 0 0 0 .021-.02Zm-.788 0h-.036v.01a.02.02 0 0 0 .02.02.02.02 0 0 0 .021-.02Zm-.789 0h-.036v.01a.02.02 0 0 0 .021.02.021.021 0 0 0 .021-.02Zm-.787 0h-.036v.01a.021.021 0 0 0 .02.02.02.02 0 0 0 .021-.02Zm-.789 0h-.036v.01a.02.02 0 0 0 .021.02.021.021 0 0 0 .021-.02Zm-.787 0h-.037v.01a.021.021 0 0 0 .021.02.02.02 0 0 0 .021-.02Zm-.789 0h-.036v.01a.02.02 0 0 0 .02.02.021.021 0 0 0 .021-.02Zm-.788 0h-.036v.01a.021.021 0 0 0 .021.02.02.02 0 0 0 .021-.02Zm-.788 0h-.037v.01a.02.02 0 0 0 .021.02.021.021 0 0 0 .021-.02Zm-.788 0h-.036v.01a.021.021 0 0 0 .021.02.02.02 0 0 0 .02-.02Zm-.789 0h-.036v.01a.02.02 0 0 0 .021.02.021.021 0 0 0 .021-.02Zm-.787 0h-.037v.01a.021.021 0 0 0 .021.02.02.02 0 0 0 .021-.02Zm-.789 0h-.036v.01a.02.02 0 0 0 .021.02.021.021 0 0 0 .02-.02Zm-2.063.273h.543v.019h-.543Zm0-.517h.543v-.04h-.543Zm5.87.274v-.03h-.55v.031Zm-.791 0v-.03h-.55v.031Zm1.579 0v-.03h-.55v.031Zm-2.364 0v-.03h-.55v.031Zm9.029.243H7.087v.019h11.45ZM12.68 7.3v-.03h-.55v.031Zm-4.729 0v-.03h-.55v.031Zm.788 0v-.03h-.55v.031Zm-1.652-.03v.031h.076V7.27Zm11.434-.284H7.087v.04h11.466l-.032-.032Zm-1.112.314v-.03h-.55v.031Zm-.788 0v-.03h-.55v.031Zm1.576 0v-.03h-.55v.031Zm-2.364 0v-.03h-.55v.031Zm-1.576 0v-.03h-.55v.031Zm.786 0v-.03h-.55v.031Zm-1.575 0v-.03h-.55v.031Zm5.298 0v-.03h-.33v.031ZM5.234 7.269h.543V7.3h-.543Zm1.92-1.091h.082l.019-.02v-.073h-.101Zm.101-1.248-.019-.018h-.082v.092h.101Zm-.101.128h.101v.975h-.101ZM7 6.085h.101v.093H7Zm0-1.173h.101v.092H7Zm0 .146h.101v.975H7Zm-.374 1.12h.045v-.093h-.045Zm.108-1.266h-.11v.092h.1Zm-.108 1.119h.045a.098.098 0 0 1-.009-.139h-.023v-.085a.1.1 0 0 1 .008-.04l.008-.014h-.016v-.085h.025a.098.098 0 0 1 0-.13h-.025V5.4l.028-.016h-.028V5.3h.065l-.065-.022v-.075l.071-.023h-.071v-.087h.079v-.035h-.092Zm-.409.18v-1.57h-.66v1.57h.334Zm.202-1.848.005.003.003-.003Zm-.022 1.318h.075v.037h-.075Zm0-.26h.075v.037h-.075Zm-.126-.735a.12.12 0 0 1 .068-.022.117.117 0 0 1 .092.045.118.118 0 0 1 .093-.045.115.115 0 0 1 .049.011v-.034h-.302Zm0 1.525h.302v-1.32a.115.115 0 0 1-.048.011.118.118 0 0 1-.093-.045.117.117 0 0 1-.092.045.12.12 0 0 1-.068-.022Zm.073-.843h.182v.142h-.182Zm0 .259h.182v.144h-.182ZM5.19 7.615h.235v.191H5.19Zm0 .244h.235v.438H5.19Zm0-1.353h.235v.206H5.19Zm0 .26h.235v.166H5.19Zm1.251 1.517h-.022l.011.011Zm.018-.122h.094v.068h-.094Zm-.149 0h.095v.068H6.31Zm-.533-.114v-.26h-.22v.281l.242.157h.043l.043-.064a.11.11 0 0 1-.102-.1v-.013Zm0-1.209v-.513a.103.103 0 0 1 .018-.06h-.238v.667h.22Zm0 .887v-.11h-.22v.118h.22Zm12.426.783-.036-.038h-.116l-.037.038v11.671h.189Zm-12.225 0-.036-.038h-.117l-.037.038v11.671h.19Zm14.4.793h-.489v.016h.473Zm-.489 1.114v.016h.489l-.016-.016Zm.804-1.112h-.242l-.067.067h-.495v.991h.495l.069.07h.24l.071-.072v-.985Zm-.925-.054h.068v-.052h-.824v.052h.003Zm.135-2.761a.025.025 0 0 0-.014-.023V9.25a.025.025 0 0 0 .014-.023Zm-.891-.025h.823v.019h-.823Zm-.053 2.786V6.463h-.068l-.029.027v.589h-.043v.413h.043v.859h-.043v.826l.072.072Zm.431-.725-.245.142v.284l.245.142.247-.142v-.284Zm-.299.457v-.346l.299-.173.3.173v.346l-.283.163h.429V6.535h-.824v2.609h.363Zm-.202.322h-.02l-.103-.104v-.771h-.053V20.18h.176Zm.879 0h-.753v.104h.753Zm-.477.157h.201v10.719h-.201Zm.545-.09v-.067h-.014V20.18h.018v-9.696h-.004v-.123Zm-.893-.067h.019V20.18h-.019Zm.602.157h.223v10.719h-.223Zm-.53 0h.224v10.719h-.224Zm-15.393.971h.489v-.016h-.473Zm.016-1.114h.473v-.016h-.489Zm-.089-.014h-.242l-.071.071v.985l.071.072h.24l.069-.07h.495V9.37h-.495Zm.615-2.84h.823v.019h-.823Zm-.067 2.761a.025.025 0 0 0 .014.023V6.465a.025.025 0 0 0-.014.023Zm1.084-.047v-.826h-.043v-.859h.043v-.413h-.043V6.49l-.029-.027h-.068v2.786h.068Zm-.949.072h.756v-.052h-.824v.052h.014Zm.378-.725-.247.142v.284l.247.142.245-.142v-.284Zm-.3.457v-.346l.3-.173.299.173v.346l-.284.163h.363V6.535h-.824v2.609h.429Zm1.722.249H17.96v.02H6.032Zm12.734-.879H6.449l-.019.019-.019-.019H5.234v.019h13.532ZM5.234 8.7h.501v.2h-.501Zm0 .53h.501v.02h-.501Zm13.023 0h.402v.02h-.402ZM6.032 8.7H17.96v.2H6.032Zm12.225 0h.402v.2h-.402Zm.402-.276h-.463l.061.062v.16h.402Zm-.402.53h.402v.222h-.402Zm-.297-.468.062-.062H5.97l.062.062v.16H17.96Zm-12.726.468h.501v.222h-.501Zm.501-.468.062-.062h-.563v.222h.501Zm.297.468H17.96v.222H6.032Zm-.901.349H5.11V20.18h.177V9.303h-.106v-.05Zm-.37.104h.224v-.104h-.753v.104h.477Zm-.253.053h.201v10.719h-.201Zm-.33 0v-.157h-.014v1.181h-.005v9.696h.019Zm.583 0h.224v10.719h-.224Zm-.529 0h.223v10.719h-.223Zm.806-.157h.019V20.18h-.019Zm7.262 3.27h-.007a.11.11 0 0 1-.075-.189h-.432a.11.11 0 0 1-.075.189h-.015v.55h.609Zm-.07 6.925v.165h.002Zm-.459 0v.165h.002Zm.406.477v-.125h.055l-.002-.135v.076h-.457l-.002-.076v.136h.055v.124Zm.053-.883v.164h.002Zm-.459 0v.164h.002Zm.459.218v.075h-.457l-.002-.075v.135h.055v.124h.351v-.125h.055Zm0-.624v.164h.002Zm-.459 0v.164h.002Zm.459.218v.076h-.457l-.002-.076v.134h.055v.125h.351v-.125h.055Zm0-.624v.164h.002Zm-.459 0v.164h.002Zm.459.218v.076h-.457l-.002-.076v.134h.055v.124h.351v-.124h.055Zm0-.625v.165h.002Zm-.459 0v.165h.002Zm.459.219v.076h-.457l-.002-.076v.134h.055v.124h.351v-.125h.055Zm0-.625v.165h.002Zm-.459 0v.165h.002Zm.459.218v.076h-.457l-.002-.076v.135h.055v.124h.351v-.125h.055Zm0-.624v.165h.002Zm-.459 0v.165h.002Zm.459.218v.076h-.457l-.002-.076v.135h.055v.125h.351v-.126h.055Zm0-.624v.164h.002Zm-.459 0v.164h.002Zm.459.218v.076h-.457l-.002-.076v.134h.055v.126h.351v-.126h.055Zm0-.624v.164h.002Zm-.459 0v.164h.002Zm.459.218v.076h-.457l-.002-.076v.134h.055v.125h.351v-.125h.055Zm0-.625v.165h.002Zm-.459 0v.165h.002Zm.459.219v.076h-.457l-.002-.076v.134h.055v.125h.351v-.125h.055Zm0-.625v.165h.002Zm-.459 0v.165h.002Zm.459.218v.076h-.457l-.002-.076v.136h.055v.124h.351v-.126h.055Zm0-.623v.165h.002Zm-.459 0v.165h.002Zm.459.217v.076h-.457l-.002-.076v.136h.055v.124h.351v-.125h.055Zm0-.623v.164h.002Zm-.459 0v.164h.002Zm.459.217v.076h-.457l-.002-.076v.135h.055v.125h.351v-.125h.055Zm0-.623v.164h.002Zm-.459 0v.164h.002Zm.459.218v.075h-.457l-.002-.075v.134h.055v.124h.351v-.124h.055Zm0-.625v.165h.002Zm-.459 0v.165h.002Zm.459.219v.076h-.457l-.002-.076v.134h.055v.124h.351v-.124h.055Zm0-.813v.076h-.457l-.002-.076v.135h.055v.124h.351v-.125h.055Zm-.459.188v.165h.002Zm.459.218v.076h-.457l-.002-.076v.135h.055v.124h.351v-.125h.055Zm-.179-7.118H7.087v.008h.582l.05.051v.338l-.029.029h10.831v-.426h-6.468Zm-4.807.228-.02-.018h-.137v.047h.137l.02-.02Zm0 1.129-.02-.019h-.137v.048h.137l.02-.02Zm-1.741-.13v-.118h-.024v.682h.88l-.016-.014h-.086v-.122h-.308l-.079.117h-.087l-.28-.181v-.31Zm-.024-1.227h.024v.426h-.024Zm13.042 1.109H7.087v.028h.586l.051.051v.337l-.051.051H7.08a.11.11 0 0 1-.11.079h-.364v.122h-.089l-.014.014h12.018Z"/></svg>