<svg xmlns="http://www.w3.org/2000/svg" fill="#44739e" viewBox="0 0 24 24"><path d="M12 2.621A9.379 9.379 0 1 0 21.379 12 9.389 9.389 0 0 0 12 2.621m-.85 15.508h-.994v-2.807a6.7 6.7 0 0 1 .066-1.018h-.078a2.344 2.344 0 0 1-2.071 1 2.394 2.394 0 0 1-1.981-.892 3.89 3.89 0 0 1-.712-2.49 3.944 3.944 0 0 1 .72-2.514 2.412 2.412 0 0 1 2-.9 2.389 2.389 0 0 1 2.071 1.018h.054l.144-.9h.784zm6.75-3.717a2.422 2.422 0 0 1-2 .892 2.91 2.91 0 0 1-1.174-.233 2.224 2.224 0 0 1-.885-.731h-.072l-.21.844h-.712V5.871h.994v2.262q0 .761-.048 1.365h.048a2.359 2.359 0 0 1 2.059-.982 2.428 2.428 0 0 1 2 .884 3.852 3.852 0 0 1 .718 2.5 3.9 3.9 0 0 1-.718 2.512m3.314-6.305A10.034 10.034 0 1 0 22 12a9.98 9.98 0 0 0-.786-3.893m-.128 7.732a9.867 9.867 0 0 1-18.172 0A9.861 9.861 0 0 1 18.973 5.027a9.873 9.873 0 0 1 2.113 10.812M8.211 9.336a1.528 1.528 0 0 0-1.341.683 3.38 3.38 0 0 0-.461 1.915 3.3 3.3 0 0 0 .455 1.892 1.563 1.563 0 0 0 1.359.646 1.808 1.808 0 0 0 1.449-.533 2.885 2.885 0 0 0 .484-1.795v-.222a3.282 3.282 0 0 0-.466-1.981 1.753 1.753 0 0 0-1.479-.605m7.542.012a1.73 1.73 0 0 0-1.466.587 3.27 3.27 0 0 0-.449 1.963 3.3 3.3 0 0 0 .46 1.981 1.76 1.76 0 0 0 1.479.593 1.536 1.536 0 0 0 1.365-.664 3.45 3.45 0 0 0 .448-1.922 3.3 3.3 0 0 0-.448-1.909 1.593 1.593 0 0 0-1.389-.629"/></svg>