<svg xmlns="http://www.w3.org/2000/svg" viewBox="0 0 24 24"><path fill="#44739e" d="M12.038 1.72a10.281 10.281 0 1 0 10.281 10.281A10.292 10.292 0 0 0 12.038 1.72m-.932 16.999h-1.089v-3.077a7.34 7.34 0 0 1 .072-1.116h-.085a2.569 2.569 0 0 1-2.271 1.096 2.624 2.624 0 0 1-2.171-.977 4.264 4.264 0 0 1-.78-2.73 4.323 4.323 0 0 1 .789-2.756 2.644 2.644 0 0 1 2.192-.986 2.619 2.619 0 0 1 2.27 1.116h.059l.158-.987h.86Zm7.399-4.074a2.655 2.655 0 0 1-2.192.977 3.19 3.19 0 0 1-1.287-.255 2.44 2.44 0 0 1-.97-.801h-.079l-.23.925h-.781V5.282h1.09v2.48q0 .834-.053 1.496h.053a2.586 2.586 0 0 1 2.257-1.076 2.661 2.661 0 0 1 2.192.969 4.222 4.222 0 0 1 .787 2.74 4.275 4.275 0 0 1-.787 2.754m3.633-6.912a10.999 10.999 0 1 0 .861 4.268 10.94 10.94 0 0 0-.861-4.268m-.14 8.476a10.816 10.816 0 0 1-19.92 0A10.809 10.809 0 0 1 19.681 4.357a10.822 10.822 0 0 1 2.317 11.852M7.885 9.081a1.675 1.675 0 0 0-1.47.748 3.705 3.705 0 0 0-.505 2.099 3.617 3.617 0 0 0 .498 2.074 1.713 1.713 0 0 0 1.49.708 1.982 1.982 0 0 0 1.588-.584 3.162 3.162 0 0 0 .531-1.967v-.244a3.598 3.598 0 0 0-.511-2.171 1.922 1.922 0 0 0-1.621-.663m8.267.013a1.896 1.896 0 0 0-1.607.643 3.584 3.584 0 0 0-.492 2.152 3.617 3.617 0 0 0 .504 2.171 1.929 1.929 0 0 0 1.621.65 1.684 1.684 0 0 0 1.496-.728 3.78 3.78 0 0 0 .491-2.106 3.617 3.617 0 0 0-.491-2.093 1.746 1.746 0 0 0-1.522-.689"/></svg>