<svg xmlns="http://www.w3.org/2000/svg" viewBox="0 0 24 24"><path fill="#44739e" d="M18.09 19.593a1.953 1.953 0 0 0-1.149 1.213c-.475 1.554 1.477 2.767 2.965 1.838.419-.254.419-.475 0-.729-.276-.164-.309-.164-.518.023a.938.938 0 1 1 0-1.412c.209.188.23.188.508-.088.344-.345.275-.485-.345-.761a1.967 1.967 0 0 0-1.461-.084m-2.347 1.642V23h.882v-3.532h-.882Zm-2.062-1.609a.919.919 0 0 0-.585.882c0 .485.132.64.849.959.53.243.706.365.674.507-.045.254-.552.321-.993.133-.309-.121-.353-.115-.54.132s-.188.276-.023.408a2.39 2.39 0 0 0 1.445.298c.474-.089 1.015-.607 1.015-.971a1.409 1.409 0 0 0-.993-1.068c-.563-.189-.728-.365-.496-.552a.804.804 0 0 1 .595-.067c.376.056.453.034.607-.209s.165-.275-.044-.386a2.163 2.163 0 0 0-1.511-.066m-4.334.97c0 1.754.42 2.349 1.655 2.349s1.653-.595 1.653-2.349v-1.128h-.859l-.045 1.092c-.032 1.213-.198 1.554-.749 1.554-.607 0-.717-.199-.75-1.477l-.044-1.169h-.861Zm-4.84-.937c-.705.375-.837.673-.871 2.084L3.593 23h.904v-1.081c0-1.264.132-1.565.705-1.565.617 0 .727.242.727 1.521V23h.883v-1.135c0-1.29.115-1.511.749-1.511.551 0 .689.308.689 1.565V23h.878v-1.135c0-1.258-.154-1.71-.689-2.107a1.58 1.58 0 0 0-1.698.023l-.365.253-.33-.23a1.494 1.494 0 0 0-1.539-.145m8.832-18.601A13.349 13.349 0 0 0 3.658 8.06a7.16 7.16 0 0 0-.849 3.473 5.234 5.234 0 0 0 1.731 4.136 6.013 6.013 0 0 0 4.807 1.685 6.805 6.805 0 0 0 3.332-.881l.629-.331.782.562a7.8 7.8 0 0 0 1.07.684 1.096 1.096 0 0 0 1.321-1.522 4.53 4.53 0 0 0-.817-.738 4 4 0 0 1-.689-.575 5.6 5.6 0 0 1 .386-.689 3.817 3.817 0 0 0 .617-2.679 2.94 2.94 0 0 0-5.028-1.609 2.779 2.779 0 0 0-.86 2.25 4.01 4.01 0 0 0 .971 2.261 2.68 2.68 0 0 1 .386.54 3.33 3.33 0 0 1-.794.331 4.71 4.71 0 0 1-3.422-.085 3.924 3.924 0 0 1-1.918-1.831 4.93 4.93 0 0 1-.091-2.953 9.984 9.984 0 0 1 2.78-4.157c3.998-3.43 9.064-3.716 10.575-.595a3.59 3.59 0 0 1 .344 1.763 4.42 4.42 0 0 1-.264 2.095 7.33 7.33 0 0 1-.948 1.908c-.689 1.025-.783 1.433-.459 1.919a1.058 1.058 0 0 0 1.201.374c.761-.209 1.985-2.183 2.492-4.013a7.916 7.916 0 0 0-.051-4.161 6.7 6.7 0 0 0-.629-1.412 6.496 6.496 0 0 0-3.676-2.581 10.26 10.26 0 0 0-3.248-.171m.199 10.034c.33.33.287.86-.115 1.467a1.69 1.69 0 0 1-.431.518c-.199 0-.69-.827-.739-1.257a.722.722 0 0 1 .187-.707.784.784 0 0 1 1.098-.021"/></svg>