<svg xmlns="http://www.w3.org/2000/svg" viewBox="0 0 24 24"><path fill="#44739e" d="M23 8.287c0 4.827-4.926 14.136-11 14.136S1 13.114 1 8.287s4.926-6.71 11-6.71 11 1.882 11 6.71m-12.53.782.454-.317.593-.418a.965.965 0 0 0 .338-1.402.946.946 0 0 0-1.418-.158l-.592.424 1.076 1.54L9.183 7.65l-.418.296.428 1.98-.698-.262a.647.647 0 0 0-.406-.972.845.845 0 0 0-.625.19l-.735.516 1.091 1.554.433-.296-.33-.473.194-.132.642.252.491-.347.406-.296-.1-.372.593-.424Zm.234-1.921a.493.493 0 0 1 .804.374.468.468 0 0 1-.249.414l-.174.122-.55-.785Zm-2.75 2.473-.297.202-.263-.377.295-.194c.142-.098.278-.102.364.024s.049.252-.098.352Zm1.482-.759-.133-.564.484.32Zm3.107-2.397a.99.99 0 1 0-.178-.564.99.99 0 0 0 .178.564m.54-1.011a.495.495 0 0 1 .279-.086.487.487 0 0 1 .415.229.484.484 0 0 1 .102.296.488.488 0 0 1-.204.395.495.495 0 0 1-.696-.139.486.486 0 0 1 .11-.695Zm-1.65.616 1.092 1.56.432-.303-1.091-1.56Zm-.99 11.858h3.947V7.023l-3.941 2.764Z"/></svg>