<svg xmlns="http://www.w3.org/2000/svg" viewBox="0 0 24 24"><path fill="#44739e" d="m1.496 11.861 2.167-.043a.492.492 0 0 0 .42-.254.49.49 0 0 0-.441-.725l-1.661.033A10.013 10.013 0 0 1 6.41 2.829l3.085 5.097a4.095 4.095 0 0 0-1.556 2.821l-2.634.053a.489.489 0 0 0 .019.979l3.095-.062a.5.5 0 0 0 .117-.019l.033-.011a.4.4 0 0 0 .076-.034.3.3 0 0 0 .03-.018.47.47 0 0 0 .086-.068l.006-.008a.5.5 0 0 0 .062-.085l.009-.011.008-.02a.44.44 0 0 0 .028-.074c0-.012.008-.023.011-.036a.53.53 0 0 0 .012-.11 3.171 3.171 0 0 1 1.505-2.729.42.42 0 0 0 .072-.058.3.3 0 0 0 .03-.023.45.45 0 0 0 .074-.102.44.44 0 0 0 .046-.116c0-.017 0-.034.006-.051a.55.55 0 0 0 .009-.074c0-.015-.005-.03-.006-.045a.55.55 0 0 0-.012-.082c0-.011-.01-.021-.014-.032a.44.44 0 0 0-.038-.088l-3.58-5.926a.5.5 0 0 0-.06-.081.5.5 0 0 0-.068-.059c-.012-.009-.026-.014-.038-.022a.4.4 0 0 0-.043-.025.4.4 0 0 0-.073-.026l-.015-.005a.485.485 0 0 0-.372.056 11.025 11.025 0 0 0-5.318 9.651.49.49 0 0 0 .499.48Zm15.325-9.906-1.083 1.873a.49.49 0 0 0 .849.489l.83-1.437a10.011 10.011 0 0 1 4.591 7.95h-5.949a4.093 4.093 0 0 0-1.611-2.791l1.322-2.282a.49.49 0 0 0-.848-.49l-1.559 2.681a.52.52 0 0 0-.045.11l-.007.033a.44.44 0 0 0-.011.084v.035a.5.5 0 0 0 .014.11v.01a.5.5 0 0 0 .041.097v.013l.014.018a.44.44 0 0 0 .049.063.3.3 0 0 0 .024.026.5.5 0 0 0 .088.068 3.17 3.17 0 0 1 1.559 2.7.5.5 0 0 0 .012.091.3.3 0 0 0 0 .037.47.47 0 0 0 .049.116.5.5 0 0 0 .076.101c.012.011.027.019.041.03a.44.44 0 0 0 .058.047c.013.007.029.011.042.017a.4.4 0 0 0 .076.032h.035a.55.55 0 0 0 .094.012h6.921a.42.42 0 0 0 .099-.01h.007a.4.4 0 0 0 .085-.026c.014 0 .026-.014.039-.021a.4.4 0 0 0 .045-.024.4.4 0 0 0 .058-.049l.013-.011A.485.485 0 0 0 23 11.32a11.023 11.023 0 0 0-5.509-9.542.491.491 0 0 0-.669.179Zm-6.767 9.364a1.928 1.928 0 1 0 1.928-1.927 1.93 1.93 0 0 0-1.928 1.927m1.928-1.12a1.122 1.122 0 1 1-1.121 1.121 1.123 1.123 0 0 1 1.121-1.121m5.69 9.994-1.084-1.873a.489.489 0 0 0-.424-.246.485.485 0 0 0-.245.066.49.49 0 0 0-.18.669l.832 1.439a10.018 10.018 0 0 1-9.178 0l2.975-5.156a4.09 4.09 0 0 0 3.222 0l1.322 2.282a.49.49 0 0 0 .848-.49l-1.548-2.68a.46.46 0 0 0-.072-.094l-.025-.023a.8.8 0 0 0-.067-.051l-.03-.018a.5.5 0 0 0-.102-.041h-.009a.5.5 0 0 0-.105-.015h-.036a.4.4 0 0 0-.078.011l-.036.008a.44.44 0 0 0-.103.043h-.007a3.171 3.171 0 0 1-3.115 0 .5.5 0 0 0-.085-.035c-.012 0-.023-.011-.034-.015a.5.5 0 0 0-.126-.015.47.47 0 0 0-.124.015.4.4 0 0 0-.048.02.55.55 0 0 0-.069.028c-.012.007-.023.019-.037.027a.44.44 0 0 0-.065.05.3.3 0 0 0-.022.027.55.55 0 0 0-.058.075l-3.46 5.991a.42.42 0 0 0-.046.096v.006a.6.6 0 0 0-.02.088v.094a.7.7 0 0 0 .012.076v.016a.49.49 0 0 0 .229.294 11.028 11.028 0 0 0 11.017 0 .49.49 0 0 0 .179-.669Z"/></svg>