<svg xmlns="http://www.w3.org/2000/svg" fill="#44739e" viewBox="0 0 24 24"><path d="M18.021 11.8052a.926.926 0 0 0-.8-.364 1.272 1.272 0 0 0-1.28 1.346 1.272 1.272 0 0 0 1.28 1.347.907.907 0 0 0 .764-.325v.289h1.035v-.689h-.284v-1.244h.284v-.682h-1zm-.662 1.636a.654.654 0 1 1 .627-.654.619.619 0 0 1-.627.654m-2.946-2.04h.316v2.008h-.325v.689h1.391v-.689h-.329v-2.692h-1.053zm-.657-.498a1.405 1.405 0 0 0-.858-.186h-1.453v.693h.331v1.986h-.329v.7h1.469v-.693h-.311v-.391h.235a1.366 1.366 0 0 0 1-.272 1.145 1.145 0 0 0 .377-.884 1.1 1.1 0 0 0-.461-.953m-.991 1.373h-.151v-.8h.217c.365 0 .542.106.542.391.003.303-.197.409-.608.409m-5.826 1.16a.487.487 0 0 0 .52-.511.52.52 0 0 0-1.04 0 .488.488 0 0 0 .52.511m-2.43-1.631c0-.364-.32-.417-.605-.417H3.82v.831h.084c.285 0 .605-.054.605-.414m-2.533 4.839h8.523v-8.522H1.976Zm7.527-2.581h-.8v-2.271h.8zm-.4-3.595a.453.453 0 1 1-.453.453.458.458 0 0 1 .453-.453m-2.373 1.248a.93.93 0 0 1 .7.3v-.222h.8v2.269h-.8v-.254h-.006a.788.788 0 0 1-.685.329 1.213 1.213 0 0 1-.009-2.422m-3.776-.99h1.3c.658 0 1.16.315 1.16 1.026a.9.9 0 0 1-.733.942l1.045 1.369H4.647l-.818-1.28H3.82v1.28h-.866zm18.036 1.444-.343 1.022-.333-1.022h.205v-.685H19.31v.685h.227l.728 1.942-.049.124h-.244v.689h1.218v-.689h-.232l.791-2.066h.227v-.685h-1.191v.685z"/></svg>