<svg xmlns="http://www.w3.org/2000/svg" viewBox="0 0 24 24"><path fill="#44739e" d="M11.703 11.994a3 3 0 0 1-.072-.119c.023.035.047.074.072.119m-.487-1.117c.013.047.028.093.043.139a1.3 1.3 0 0 0-.043-.139m.212.588c.018.042.037.082.056.124-.019-.046-.042-.082-.056-.124m.063.138c.019.041.041.083.062.125-.021-.042-.043-.084-.062-.125m.063.125.009.017Zm-.292-.712v.017Zm.163.439v.01Zm-.062-.149.006.017Zm6.238-10.193L1.16 17.548a.54.54 0 0 0 0 .76l4.528 4.535a.54.54 0 0 0 .763 0l7.533-7.535-.512-.516a.34.34 0 0 1-.034-.043.24.24 0 0 1-.038-.113v-.006a.23.23 0 0 1 0-.062.247.247 0 0 1 .128-.174.252.252 0 0 1 .216-.01.3.3 0 0 1 .037.019.34.34 0 0 1 .043.035l.515.514 8.501-8.5a.54.54 0 0 0 0-.761l-4.529-4.536a.54.54 0 0 0-.71-.042m1.458 4.367a.131.131 0 0 1 .025-.225c.084-.052.146.015.217.086l.437.437c.176-.16.353-.351.522-.52.086-.087.164-.2.258-.171a.132.132 0 0 1 .064.225l-.744.744a.121.121 0 0 1-.199 0Zm-1.055.999a.133.133 0 0 1 .067-.199c.089-.038.137.029.208.101l.431.43c.226-.209.433-.438.65-.648a.127.127 0 0 1 .211.014c.065.088.008.144-.071.226l-.641.641c-.074.074-.133.141-.219.074Zm-.309.365a.134.134 0 1 1 .188-.189l.581.581a.126.126 0 0 1 0 .202c-.072.062-.133.037-.202-.032Zm-1.141.955a.14.14 0 0 1 .186-.085 1.9 1.9 0 0 1 .199.187 2.5 2.5 0 0 0 .113-.254l.216-.502c.035-.081.064-.197.169-.196a.131.131 0 0 1 .112.203c-.038.084-.071.163-.107.247-.06.138-.162.441-.194.503l.729-.338a.133.133 0 0 1 .177.13c-.008.099-.113.129-.195.17l-.477.226a2.4 2.4 0 0 0-.238.118c.055.055.16.142.167.205a.146.146 0 0 1-.141.155c-.073 0-.143-.096-.203-.157l-.411-.41c-.075-.076-.138-.12-.102-.202m-.09.369c.016.08-.051.129-.122.199-.145.147-.478.464-.577.581l.106.106c.096-.075.451-.451.587-.583.058-.058.113-.139.191-.12a2.37 2.37 0 0 1 .39.366c.058.078.016.129-.054.197l-.586.586c-.048.048-.138.158-.196.174a.138.138 0 0 1-.168-.104c-.017-.084.05-.132.113-.198l.585-.584-.113-.113-.597.597c-.063.063-.113.13-.19.104a2.7 2.7 0 0 1-.388-.374c-.045-.072 0-.127.067-.193l.587-.586c.05-.051.132-.151.194-.168a.14.14 0 0 1 .171.113m-1.253-.574a3.14 3.14 0 0 0-1.91.421 3.898 3.898 0 0 0-1.62 2.101l-.085.316V10.2c.006-.075.01-.151.017-.225a3.84 3.84 0 0 1 .187-.92c.027-.077.053-.15.086-.225.017-.04.031-.074.05-.113.008-.019.057-.1.057-.1a4.32 4.32 0 0 1 .956-.82 2.784 2.784 0 0 1 1.94-.411 2.57 2.57 0 0 1 .963.36 2.54 2.54 0 0 0-.641-.152m.85 2.39a.133.133 0 0 1-.237-.122.135.135 0 1 1 .243.118Zm-1.918.205.763-.76a.133.133 0 0 1 .211.101c.006.091-.119.182-.192.255l-.508.509.406.406c.087-.087.528-.507.564-.571l-.104-.1c-.091.07-.192.197-.282.277a.134.134 0 0 1-.234-.093c0-.086.162-.21.233-.282s.195-.209.283-.28c.083.071.178.176.257.256s.199.164.177.252c-.014.061-.626.651-.751.777-.105.105-.148.135-.26.024l-.507-.508c-.101-.105-.163-.15-.05-.263ZM9.929 9.33a.344.344 0 1 1 .075.48.345.345 0 0 1-.072-.484Zm-8.19 9.352-.475-.483a.389.389 0 0 1 0-.549l6.601-6.598-1.409 2.915Zm12.032-3.376L6.63 22.45l-.405-.405 7.145-7.144Zm-3.046-3.511a.564.564 0 0 1-.776.112.552.552 0 0 1-.106-.779.552.552 0 1 1 .882.662Zm.981.203.028.066v.026l.014.036a3.37 3.37 0 0 0 .651 1.04 2.143 2.143 0 0 1-.946-1.128 3.37 3.37 0 0 1-.24-.936l-.022-.269.02.048-.023-.088a.79.79 0 0 0-.081-.315 2.61 2.61 0 0 1-.292-.936 2.82 2.82 0 0 1 0-.623 2.3 2.3 0 0 1 .152-.62 2.67 2.67 0 0 0-.007.747 2.93 2.93 0 0 0 .192.744 3.9 3.9 0 0 1 .329-1.095 3.009 3.009 0 0 1 1.878-1.726 2.61 2.61 0 0 1 1.085-.091c-.113.016-.213.024-.339.051a3.152 3.152 0 0 0-2.133 1.692l.018-.016s-.05.08-.058.101c-.019.041-.032.075-.049.112-.033.079-.059.152-.086.226a3.84 3.84 0 0 0-.187.92c-.007.077-.012.153-.017.225v.231c0 .064-.023.108.034.174a3.05 3.05 0 0 0 .508.493 3.48 3.48 0 0 0 .698.416 3.98 3.98 0 0 0 1.389.349 2.97 2.97 0 0 0 1.397-.274 3.35 3.35 0 0 0 .696-.438 3.8 3.8 0 0 0 .351-.327c.098-.104.254-.311.283-.338a1.42 1.42 0 0 1-.141.346 2.724 2.724 0 0 1-.929.916 3.475 3.475 0 0 1-1.384.499 3.34 3.34 0 0 1-2.77-.971l.006.039a2.82 2.82 0 0 0 .235.538 3.23 3.23 0 0 0 1.29 1.241l.283.135a1.3 1.3 0 0 1-.471-.089 2.696 2.696 0 0 1-1.365-1.135ZM22.45 6.626l-8.111 8.112-.405-.405 8.112-8.112Zm-10.966 4.963.007.014Z"/></svg>