<svg xmlns="http://www.w3.org/2000/svg" fill="#44739e" viewBox="0 0 24 24"><path d="M11.632 11.9c-.022-.035-.044-.07-.064-.106.02.031.042.066.064.106m-.432-.99c.012.041.025.082.038.123-.01-.041-.023-.082-.038-.123m.188.521c.016.037.033.073.05.11-.017-.041-.038-.073-.05-.11m.056.122c.017.037.036.074.055.111-.019-.037-.038-.074-.055-.111m.056.111.008.015zm-.259-.631v.015zm.144.389v.009zm-.055-.132.006.015zm5.53-9.035L2.286 16.823a.479.479 0 0 0 0 .674L6.3 21.516a.479.479 0 0 0 .676 0l6.678-6.679-.454-.457a.3.3 0 0 1-.03-.038.21.21 0 0 1-.034-.1v-.006a.2.2 0 0 1 0-.055.219.219 0 0 1 .113-.154.223.223 0 0 1 .192-.009.3.3 0 0 1 .033.017.3.3 0 0 1 .038.031l.456.456 7.536-7.535a.479.479 0 0 0 0-.674l-4.015-4.021a.479.479 0 0 0-.629-.037m1.292 3.871a.116.116 0 0 1 .022-.2c.075-.046.13.014.193.077l.387.387c.156-.142.313-.311.463-.461.076-.077.145-.177.228-.152a.117.117 0 0 1 .057.2l-.659.659a.107.107 0 0 1-.177 0zm-.935.885a.118.118 0 0 1 .059-.176c.079-.034.122.026.185.089l.382.382c.2-.186.384-.389.576-.575a.113.113 0 0 1 .187.013c.058.078.007.127-.063.2l-.568.568c-.066.066-.118.125-.194.066Zm-.274.324a.119.119 0 1 1 .167-.168l.515.515a.112.112 0 0 1 0 .179c-.064.055-.118.033-.179-.028Zm-1.011.846a.124.124 0 0 1 .165-.075 1.7 1.7 0 0 1 .176.166 2.2 2.2 0 0 0 .1-.225l.192-.445c.031-.072.056-.175.149-.174a.116.116 0 0 1 .1.18c-.034.074-.063.144-.095.219-.053.122-.144.391-.172.446l.646-.3a.118.118 0 0 1 .157.115c-.007.088-.1.115-.173.151l-.423.2a2.1 2.1 0 0 0-.211.105c.049.049.142.126.148.182a.129.129 0 0 1-.125.137c-.064 0-.126-.085-.18-.139l-.364-.364c-.066-.067-.122-.106-.09-.179m-.08.327c.014.071-.045.115-.108.177-.129.13-.424.411-.512.515l.094.094c.085-.067.4-.4.521-.517.051-.051.1-.123.169-.106a2.1 2.1 0 0 1 .346.324c.051.069.014.114-.048.175l-.52.519c-.042.043-.122.14-.173.154a.122.122 0 0 1-.149-.092c-.015-.074.044-.117.1-.175l.518-.518-.1-.1-.529.529c-.056.056-.1.115-.168.092a2.4 2.4 0 0 1-.344-.331c-.04-.064 0-.113.059-.171l.52-.52c.045-.045.117-.134.172-.149a.124.124 0 0 1 .152.1M14.741 8a2.782 2.782 0 0 0-1.693.373 3.455 3.455 0 0 0-1.436 1.862l-.075.28v-.205c.005-.067.009-.134.015-.2a3.4 3.4 0 0 1 .166-.815c.024-.069.047-.133.076-.2.015-.035.027-.065.044-.1.007-.017.051-.089.051-.089a3.83 3.83 0 0 1 .847-.726 2.468 2.468 0 0 1 1.72-.365 2.275 2.275 0 0 1 .853.319A2.25 2.25 0 0 0 14.741 8m.754 2.118a.118.118 0 0 1-.21-.108.1196.1196 0 1 1 .215.105zm-1.7.182.676-.674a.118.118 0 0 1 .187.09c.005.08-.106.161-.17.226l-.451.451.36.36c.077-.077.468-.45.5-.506l-.092-.089c-.081.062-.17.175-.25.246a.119.119 0 0 1-.207-.083c0-.076.143-.186.206-.25s.173-.185.251-.248c.074.063.158.156.228.227s.176.145.157.223c-.013.054-.555.577-.666.689-.093.093-.131.12-.23.021l-.45-.45c-.089-.093-.144-.133-.044-.233Zm-3.736-.762a.305.305 0 1 1 .067.426.306.306 0 0 1-.064-.429ZM2.8 17.828l-.421-.428a.345.345 0 0 1 0-.487l5.851-5.848-1.249 2.584Zm10.665-2.992-6.33 6.332-.359-.359 6.333-6.332zm-2.7-3.113a.5.5 0 0 1-.688.1.489.489 0 0 1-.094-.691.489.489 0 1 1 .782.587zm.869.18.025.059v.023l.013.032a2.99 2.99 0 0 0 .577.922 1.9 1.9 0 0 1-.839-1 2.99 2.99 0 0 1-.213-.83l-.019-.238.018.042-.021-.078a.7.7 0 0 0-.072-.279 2.31 2.31 0 0 1-.258-.83 2.5 2.5 0 0 1 0-.552 2.04 2.04 0 0 1 .134-.549 2.37 2.37 0 0 0-.006.662 2.6 2.6 0 0 0 .17.659 3.46 3.46 0 0 1 .292-.97 2.667 2.667 0 0 1 1.665-1.53 2.31 2.31 0 0 1 .961-.081c-.1.014-.188.021-.3.045a2.794 2.794 0 0 0-1.891 1.5l.016-.014s-.044.071-.051.089c-.017.037-.029.067-.044.1-.029.07-.052.134-.076.2a3.4 3.4 0 0 0-.166.815c-.006.069-.01.136-.015.2v.205c0 .056-.02.095.03.154a2.7 2.7 0 0 0 .451.437 3.08 3.08 0 0 0 .618.369 3.53 3.53 0 0 0 1.232.309 2.634 2.634 0 0 0 1.238-.243 2.97 2.97 0 0 0 .617-.388 3.4 3.4 0 0 0 .311-.29c.087-.092.225-.276.251-.3a1.26 1.26 0 0 1-.125.307 2.415 2.415 0 0 1-.824.812 3.08 3.08 0 0 1-1.226.442 2.961 2.961 0 0 1-2.456-.86l.006.034a2.5 2.5 0 0 0 .208.477 2.863 2.863 0 0 0 1.143 1.1l.251.12a1.15 1.15 0 0 1-.417-.079 2.39 2.39 0 0 1-1.21-1.006Zm9.524-4.761-7.19 7.19-.359-.359 7.191-7.19zm-9.72 4.399.006.012z"/></svg>