<svg xmlns="http://www.w3.org/2000/svg" viewBox="0 0 24 24"><path fill="#44739e" d="m10.637 9.485-.013-.011v-.018l-.04-.033-.014-.026-.043-.024-.008-.005-.033-.015-.022-.011-.016-.011-.044-.022-.033-.015-.061-.024h-.007l-.018-.009-.054-.022h-.006l-.031-.014-.032-.015-.058-.022h-.008l-.025-.008-.019-.006-.037-.012-.027-.011-.033-.011-.022-.006h-.017l-.015-.009h-.224l-.03-.007-.037-.007h-.053l-.04-.008h-.168l-.033.011H9.31l-.013.011-.011.011-.018.03-.011.03v.061l.012.028.018.03.027.028.033.027.018.01.044.028.051.026.059.022.038.015.068.022.074.02.053.011.083.02.088.015.066.009.096.011.099.009.075.007h.334l.025-.011.018-.016V9.56l-.006-.013Zm.433-.312h.06l.11-.007h.006l.11-.015.039-.006.07-.01.08-.018h.022l.103-.032.016-.006.07-.022.038-.019h.007l.028-.011.06-.036.046-.036.014-.018.02-.022.017-.034.006-.041v-.035l-.011-.026v-.012l-.028-.038-.038-.034-.023-.016-.027-.019-.049-.026-.014-.007h-.008l-.064-.025-.066-.025-.025-.009-.079-.04-.045-.011-.039-.011-.06-.011-.029-.007-.07-.011h-.116l-.061-.007h-.655l-.033.006h-.036l-.027.005h-.069l-.035.008h-.036l-.038.009H10.2l-.028.008-.036.011-.042.014h-.013l-.03.013-.025.011-.018.009-.032.016-.011.007-.021.013-.011.007-.01.006-.025.02-.008.009-.021.022-.008.012-.022.019-.009.02-.006.013v.068l.012.038.022.033.03.029v.006l.046.033.011.006.044.027.016.007.016.009.009.006.028.011.078.03.087.028.037.009.057.018.082.016h.019l.11.017h.113l.077.006h.28Zm2.274.37-.016-.033-.067-.04-.04-.011-.041-.017-.099-.027h-.007l-.11-.017h-.006l-.128-.025h-.141l-.088-.006-.051-.007-.11-.009h-.047l-.151-.013h-.856l-.047.007-.036.005h-.033l-.093.02-.044.013H11.1l-.061.022-.043.023v.006l-.016.019v.024l.014.022.044.028.044.022h.005l.073.028.084.026.092.023.044.011.102.022.11.017.058.009.117.014.121.011h.066l.127.007h.326l.127-.007h.068l.123-.011.063-.009.118-.015.11-.02.11-.024.048-.01.07-.022.011-.006.034-.013.016-.006.04-.03v-.007.006Zm1.056 2.802 8.58-3.08-12.784-3.374L1 8.238l12.288 4.118a1.705 1.705 0 0 0 1.112-.011m-1.452-2.503-.064.009-.044.005-.125.011h-.116l-.127.008H12l-.124-.007h-.118l-.121-.011h-.044l-.115-.014h-.028l-.059-.009h-.016l-.11-.017-.035-.017-.102-.022h-.008a9 9 0 0 1-.689-.101h-.139l-.11-.005h-.052l-.078-.007-.11-.009h-.048L9.8 9.634h-.022l-.066-.011H9.69l-.088-.013-.032-.024-.084-.006-.055-.011-.027-.014-.075-.022L9.3 9.52l-.07-.022-.037-.011-.019-.01-.064-.027-.022-.008-.049-.027-.009-.011-.044-.026-.018-.011-.018-.007-.03-.025-.01-.011-.015-.026-.009-.011-.019-.029V9.25l-.011-.029V9.13l.011-.028v-.006l.008-.011a.6.6 0 0 1-.042-.042l-.056-.013H8.76l-.068-.022-.027-.009-.061-.024h-.006l-.04-.022-.016-.007-.051-.026-.022-.011-.043-.025h-.008l-.022-.015-.038-.037-.011-.01-.024-.012-.008-.011-.018-.028V8.76l-.011-.031v-.096l.014-.027V8.59l.018-.028.008-.005h-.042a1.08 1.08 0 0 1-.279 0c-.101.012-.185.022-.255.023a1 1 0 0 1-.241-.019c-.081 0-.154.007-.22.008a.85.85 0 0 1-.263-.03h-.121a.69.69 0 0 1-.267-.044H6.51a.56.56 0 0 1-.23-.059 1 1 0 0 1-.125-.011c-.11-.014-.176-.042-.19-.075a.374.374 0 0 1-.22-.063c-.033-.033 0-.073.103-.099l.028-.008.037-.008c-.008-.022.011-.044.051-.064a1.1 1.1 0 0 1 .155-.055l.045-.011c0-.022.038-.044.093-.062l.036-.011.063-.016c.007-.024.046-.047.11-.063l.041-.011.151-.027a.23.23 0 0 1 .1-.052.55.55 0 0 0 .072-.015c.055-.008.11-.015.178-.022a.33.33 0 0 1 .078-.033.66.66 0 0 1 .103-.022 1 1 0 0 0 .143-.019.44.44 0 0 1 .066-.024.9.9 0 0 1 .17-.026c.061 0 .134-.007.22-.007l.022-.006a.96.96 0 0 1 .23-.026 6.2 6.2 0 0 1 .794.039c-.087-.039-.164-.12-.134-.209.007-.022.043-.043.099-.059l.025-.006a.1.1 0 0 1 .024-.06.2.2 0 0 1 .092-.046 1 1 0 0 1 .084-.016.26.26 0 0 1 .048-.039.36.36 0 0 1 .068-.026.9.9 0 0 1 .11-.018.5.5 0 0 1 .077-.046l.053-.019a.96.96 0 0 1 .168-.025c.031-.014.062-.026.094-.038l.031-.01a.92.92 0 0 1 .22-.027l.053-.015.034-.009a.94.94 0 0 1 .207-.022l.039-.011c.058-.015.117-.027.178-.037a1.2 1.2 0 0 1 .209-.011l.022-.009.022-.007a1.02 1.02 0 0 1 .322-.022.44.44 0 0 1 .21.057.605.605 0 0 1 .244.051.2.2 0 0 1 .039.033.297.297 0 0 1 .17.062.2.2 0 0 1 .017.033c.088.015.143.04.15.069a.17.17 0 0 1 0 .033c.07.015.11.041.11.067a.12.12 0 0 1-.022.057c.051.018.077.041.071.064s-.025.04-.064.066c.042.023.048.05.016.074a.3.3 0 0 1-.058.035h.688l.11.008h.044l.099.011h.016l.065.006h.03l.097.015h.035l.054.007.09.017.038.007.084.021h.016l.05.014h.018l.11.009h.66l.104.008h.04l.101.01h.022l.05.007h.017l.099.013.041.004.092.017h.018l.044.009h.011l.088.019.033.008.082.022.025.008.033.011h.014l.07.024.027.011.065.026.022.011.046.067.02.013.015.008.043.031.014.011.031.032.009.011.022.033.005.01a2.5 2.5 0 0 1 .267.121l.029.009.094.027.028.009.087.03.026.01.077.033.019.011.064.033h.01l.014.01.011.006.051.036.015.011.048.043.008.011.027.04v.011l.013.04v.064l-.014.044V8.7l-.029.041-.009.011-.041.038-.014.011-.044.032a.58.58 0 0 1-.21.293l.013.042v.064l-.017.04v.011l-.028.039-.011.011-.04.039-.015.018-.055.04-.017.011-.066.035-.022.011-.077.032-.027.011-.091.029-.027.01-.028.009-.099.028-.033.008-.11.022-.037.008-.11.021h-.085l-.125.013h-.042l-.127.011h-.044l-.13.009h-.353a10.7 10.7 0 0 1-1.166.11Zm1.032-.625h.009l.11-.026.101-.033.053-.022.031-.011.071-.038.055-.025.01-.01.033-.032.029-.04.006-.025v-.023l-.008-.044-.026-.044-.012-.011-.011-.007-.033-.028-.022-.011-.044-.031-.099-.039h-.011L14.21 8.7l-.095-.025-.051-.011-.096-.022-.065-.009-.11-.013h-.105l-.091-.008h-.202l-.11.006h-.093l-.092.003-.075.009-.075.011-.09.016h-.011l-.033.006-.066.006-.073.017h-.017l-.057.018h-.015l-.032.011h-.018l-.04.015-.029.014-.016.007h-.011l-.021.011-.015.008-.013.006-.011.008h-.011l-.008.006-.009.006-.009.005h-.006l-.008.006h-.008l-.006.007-.008.006h-.006l-.008.008v.005l-.008.007-.006.013-.007.017-.008.017v.053l.022.029v.061l.006.013.018.015.015.015.014.014.057.036.015.006.066.026.025.011h.031l.083.027.028.008.102.022.063.009h.039l.03.018.094.011.067.007.121.005h.268l.103-.006h.163l.064-.017.088-.011.056-.011Zm-4.684-.324.011-.012.02-.025V8.85l.013-.013.011-.011.011-.011.011-.012.016-.025.005-.011v-.021l.01-.022v-.013l.015-.011.007-.011v-.021l.006-.011v-.221l.038-.017-.007-.011v-.011l-.011-.022-.022-.019h-.006l-.011-.011h-.064l-.044.008-.057.011-.077.017-.074.022-.039.011-.065.022-.06.022-.054.022-.017.009-.044.025-.039.026-.032.027-.025.023-.022.028-.011.028-.005.029.005.025v.008l.011.03.018.028.025.028.034.026.022.017.044.026.049.024.041.017.061.022.069.022.047.015h.057l.033-.009.011-.005.028-.018.011-.011.025-.014Zm5.095.7h.049l.128-.007.127-.012.122-.016.04-.006.11-.02.11-.022.099-.028.022-.008.088-.029.077-.033.066-.033.055-.039.044-.038.033-.04.014-.039v-.044l-.011-.044-.017-.03-.007-.011-.011-.011-.028-.014h-.013l-.026-.009-.049-.008h-.246l-.05.008h-.011l-.098.015h-.016l-.09.015-.052.012-.063.015h-.011l-.081.019-.033.008-.041.013-.033.007-.069.018-.022.007-.063.022-.055.018-.027.012-.022.007h-.013l-.033.011-.041.019-.039.015-.036.018-.027.011h-.011l-.029.038-.037.02-.037.022-.015.011-.017.013-.039.028-.017.028-.005.009-.007.02v.019l.017.015.019.011.044.011.053.007h.213ZM9.126 8.236c.125-.069.121-.134 0-.196-.677-.011-1.804.073-2.271.121a20.1 20.1 0 0 1 2.255-.203c.132-.096-.007-.165-.244-.198a4.84 4.84 0 0 0-.825-.057c.061.017.066.038.066.04-.031 0-.33-.011-.478 0 .154.022.089.049.089.049a3.3 3.3 0 0 0-.401.008c.103 0 .124.026.128.036h-.022a3.3 3.3 0 0 0-.44.029c.168 0 .172.019.168.027H7.14a3.4 3.4 0 0 0-.449.055c.164-.012.206 0 .22.011l-.022.009a3.2 3.2 0 0 0-.385.066.33.33 0 0 1 .187.011l-.022.011a1.9 1.9 0 0 0-.414.091h.185a2.75 2.75 0 0 1-.361.103 3.1 3.1 0 0 1 .402.035 1.07 1.07 0 0 1-.175.042 3.1 3.1 0 0 0 .427 0l.042.008a.48.48 0 0 1-.184.046c.196.01.487 0 .487 0s.017.02-.137.049c.194 0 .403-.014.474-.019h.022c-.006.009-.036.033-.143.048a5 5 0 0 0 .535-.04h.022c0 .006-.007.027-.11.051a4.2 4.2 0 0 0 .47-.062h.023c.008 0 .022.022-.06.051a2.8 2.8 0 0 0 .416-.08l.053-.008c.02.006.039.02-.022.055a1.7 1.7 0 0 0 .506-.187Zm4.282-.399h.009l.008.007.023.013h.011l.023.009.036.015h.006l.025.01.031.011.03.011.031.008.033.009.033.008.033.01.033.009.039.01.045.009.053.011.046.01h.011l.077.018.058.011h.017l.03.007.081.015.055.009h.023l.039.007.11.018.094.011h.011l.097.014.089.009h.077l.068.006h.14l.018-.009v-.007.022l-.006-.022v-.011l-.02-.032-.031-.032-.024-.029-.02-.011-.053-.03-.057-.031-.07-.024-.033-.011-.082-.022-.085-.02-.044-.009-.093-.016-.099-.014h-.049l-.101-.011-.11-.007h-.425l-.102.007-.088.007h-.038l-.002.01-.014.009Zm-.33.11-.12-.011h-.49l-.086.005h-.044l-.11.01h-.048l-.116.017h-.033l-.124.025-.022.005-.088.026h-.022l-.062.022-.035.011-.026.016-.014.011-.019.013h-.005l-.025.028-.01.014v.078l.013.017.011.013.007.007v.007l.011.014.011.008.014.012.015.009.016.009.017.01.018.009.019.009.017.006.022.011.022.01.028.009.017.006h.011l.022.007h.01l.027.008h.011l.03.007.052.028.053.011h.008l.046.008.028.006.088.016h.018l.086.008.066.006h.053l.15.011h.518l.127-.011h.039l.15-.008h.033l.134-.026h.017l.039-.011.084-.019.03-.008.069-.027.047-.025.013-.006h.011l.02-.017.03-.022.02-.027.005-.013v-.037l-.018-.038-.011-.011-.014-.015-.011-.011-.05-.033-.038-.018-.03-.015-.081-.03-.075-.022-.019-.009-.11-.025h-.011l-.11-.022h-.047l-.11-.018-.116-.011Zm1.898.265h-.155l-.058.008-.069.013-.025.009-.035.008-.05.022-.053.027-.018.015-.017.017-.022.024-.008.01-.008.021-.005.024v.102l.008.011v.009l.006.013.007.013.011.016.014.016.008.008.01.011.013.014.007.009.024.028.022.019.022.017.043.027.017.009.033.021.018.01.077.033.075.032.082.024h.018l.068.017.073.017.082.01h.172l.054-.005.037-.006h.037l.044-.011h.017l.079-.026.077-.033.066-.036.055-.037.042-.038.028-.04.015-.04v-.039l-.012-.053-.027-.037-.025-.033-.051-.036-.015-.008-.064-.036-.075-.033-.084-.03-.095-.027-.033-.011-.11-.022-.11-.022-.042-.006-.116-.017h-.029Zm-3.438-.513-.084.017-.08.018-.075.021h-.017l-.066.022-.059.022-.052.025h.023l.022.005h.762l.119-.007h.154l.137-.005h.133l.131-.006h.12l.088-.006h.022l.102-.006h.031l.054-.005h.074l.055-.006h.011l.033-.011h.019l-.007-.007-.061-.02-.05-.013-.087-.027-.091-.016-.059-.011-.096-.013-.066-.008-.099-.013-.104-.007h-.5l-.099.007-.097.008-.097.011-.045.007ZM9.219 7.66a1.3 1.3 0 0 0 .7.068c.059-.22.44-.483.675-.602-.162.121-.434.421-.387.607a2.15 2.15 0 0 0 .671 0 3.4 3.4 0 0 0 .618-.133.45.45 0 0 1-.18 0l.024-.011a1.1 1.1 0 0 0 .271-.11.52.52 0 0 1-.17.015c.042-.02.187-.092.197-.125a.44.44 0 0 1-.168.029c.026-.019.11-.085.119-.14a.42.42 0 0 1-.154.036v-.005a.158.158 0 0 0 .049-.123.34.34 0 0 1-.154.033.154.154 0 0 0-.005-.125.35.35 0 0 1-.149.047l-.025-.011c.014-.027.037-.081-.012-.11a.62.62 0 0 1-.132.044c-.066-.033-.117-.066-.126-.105a2.9 2.9 0 0 1-.33.089V6.98a.88.88 0 0 0-.306.104h-.03c-.033 0-.086-.017-.036-.049a.88.88 0 0 0-.219.099h-.026c-.027 0-.081-.016-.038-.057a.385.385 0 0 0-.191.11H9.69c-.026-.011-.11-.011-.091-.055a.16.16 0 0 0-.103.11h-.011c-.037 0-.136-.008-.125-.033a.076.076 0 0 0-.034.103v.007a.28.28 0 0 1-.168-.025c-.035.042 0 .123 0 .132a.55.55 0 0 1-.128-.002c-.042.117.165.22.189.228Zm2.157.402.018-.017v-.027l-.011-.023v-.008h-.007l-.007-.011-.029-.024h-.009l-.038-.011-.063-.011h-.011l-.044-.007h-.486l-.066.006-.094.008-.091.011-.055.009-.085.013-.081.015-.077.019-.033.009-.07.018-.064.022-.059.022-.053.025-.047.025-.037.025-.044.028-.026.028-.017.029-.011.029v.026l.008.022.007.011.006.008.029.014h.008l.022.01.022.006.019.009.042.011h.022l.023.011h.497l.044-.005.047-.007h.05l.049-.008.049-.007.044-.009h.014l.055-.011.019-.008.026-.006h.011l.055-.016.053-.017.051-.011.019-.007h.007l.059-.02.061-.022.037-.016.022-.011.011-.007.063-.043.038-.017.019-.011.044-.028.017-.017.014-.011Zm9.13 5.472.477-.18-.015.56.64-.271.02-.52.462-.186.048-1.293-1.579.624Zm-2.77.8 1.515-.606v.185l-1.515.619v.603l1.789-.727.02-1.015-1.808.725Zm0-1.751L19.19 12v.185l-1.452.594v.636l1.827-.72.025-1.025-1.851.704Zm-2.901 2.937 1.565-.626v.193l-1.568.64v.624l1.852-.753.02-1.05-1.87.75Zm0-1.813 1.502-.601v.192l-1.502.614v.66l1.892-.745.024-1.063-1.916.73Zm-7.948-.057-.739-.307a.047.047 0 0 0-.048 0 .051.051 0 0 0-.022.044l.006.182a.08.08 0 0 0 0 .022l.158.297a.06.06 0 0 0 .03.028l.399.153a.052.052 0 0 0 .052-.007l.16-.124a.048.048 0 0 0 .019-.035l.015-.201a.058.058 0 0 0-.033-.052Zm7.462-.88a1.408 1.408 0 0 1-.934.009L1 8.524l.22 4.438 11.99 5.037a1.397 1.397 0 0 0 1.122-.015l8.417-3.784L23 9.628Zm-11.081-.065a.23.23 0 0 1-.163.051.29.29 0 0 1-.099-.022l-.733-.294a.312.312 0 0 1-.198-.264l-.01-.145a.238.238 0 0 1 .09-.206.268.268 0 0 1 .258-.03l.695.266a.347.347 0 0 1 .22.257l.026.146a.245.245 0 0 1-.086.241m1.903.463a.157.157 0 0 1-.065.11l-.159.121a.168.168 0 0 1-.116.036.22.22 0 0 1-.057-.012l-.395-.156a.173.173 0 0 1-.095-.084l-.157-.295a.19.19 0 0 1-.022-.077l-.005-.179a.166.166 0 0 1 .068-.141.162.162 0 0 1 .156-.017l.748.306a.182.182 0 0 1 .11.181Zm1.862.757a.162.162 0 0 1-.062.11l-.161.123a.162.162 0 0 1-.173.029l-.394-.154a.187.187 0 0 1-.096-.086l-.156-.297a.154.154 0 0 1-.02-.077l-.008-.178a.166.166 0 0 1 .068-.141.162.162 0 0 1 .157-.016l.752.302a.183.183 0 0 1 .11.182Zm1.848.77a.53.53 0 0 1-.272.413.36.36 0 0 1-.152.033.42.42 0 0 1-.22-.062 1.022 1.022 0 0 1-.417-.879.639.639 0 0 1 .245-.55.375.375 0 0 1 .367-.011 1.008 1.008 0 0 1 .44 1.041Zm8.075 1.018a.12.12 0 0 1-.075.11l-2.116.889a.12.12 0 0 1-.159-.065.11.11 0 0 1-.01-.045v-3.217a.124.124 0 0 1 .08-.11l2.19-.804a.121.121 0 0 1 .165.118Zm2.831-1.194a.118.118 0 0 1-.073.11l-2.043.858a.118.118 0 0 1-.156-.065.13.13 0 0 1-.008-.045V12.27a.12.12 0 0 1 .078-.11l2.115-.778a.118.118 0 0 1 .151.07.1.1 0 0 1 .007.04Zm2.523-1.091a.186.186 0 0 1-.11.158l-1.678.708a.183.183 0 0 1-.255-.174l.062-2.294a.186.186 0 0 1 .117-.166l1.747-.684a.185.185 0 0 1 .238.104.19.19 0 0 1 .012.078Zm-13.949.385a.24.24 0 0 0-.099-.025.17.17 0 0 0-.092.026.475.475 0 0 0-.16.395.857.857 0 0 0 .325.706.208.208 0 0 0 .198.02.358.358 0 0 0 .167-.277.843.843 0 0 0-.339-.847Zm-5.146-1.362-.743-.293v-.099l.728.297v-.026a.212.212 0 0 0-.129-.154l-.693-.273a.153.153 0 0 0-.148.016.117.117 0 0 0-.044.101l.011.144a.186.186 0 0 0 .121.156l.733.289a.131.131 0 0 0 .136-.014.124.124 0 0 0 .039-.121Zm1.809.44-.74-.307a.054.054 0 0 0-.049 0 .048.048 0 0 0-.021.043v.182a.1.1 0 0 0 .007.024l.157.297a.06.06 0 0 0 .03.027l.399.153a.051.051 0 0 0 .053-.006l.158-.125a.045.045 0 0 0 .02-.035l.032-.198a.058.058 0 0 0-.031-.05Z"/></svg>