<svg xmlns="http://www.w3.org/2000/svg" fill="#44739e" viewBox="0 0 24 24"><path d="M20.682 8.861A1.319 1.319 0 1 0 22 10.18a1.322 1.322 0 0 0-1.318-1.319m0 2.444a1.125 1.125 0 1 1 1.125-1.125 1.127 1.127 0 0 1-1.125 1.125m-.802-1.106.44-.159v.994l.893-.318V9.393l-1.333.478ZM2 15.081h.9v-2.5a12.78 12.78 0 0 1 3.848-.516v-.884C3.352 11.2 2 12 2 12Zm13.815-3.921a11.8 11.8 0 0 0-1.468.106V9.393h-.889v5.572a25.4 25.4 0 0 0 2.622.174c2.2 0 2.772-.459 2.772-.459a3.13 3.13 0 0 0 .207-1.516c0-1.188-.212-1.454-.212-1.454a6.77 6.77 0 0 0-3.032-.55m2.308 2.882a7.84 7.84 0 0 1-2.028.208c-.493.005-1.072-.034-1.748-.092v-2a8.62 8.62 0 0 1 3.761.2 6.9 6.9 0 0 1 .063.84c0 .333-.029.651-.048.844M9.682 11.16a11.9 11.9 0 0 0-1.468.106V9.393h-.883v5.572a25.4 25.4 0 0 0 2.617.174c2.207 0 2.771-.459 2.771-.459a3.114 3.114 0 0 0 .208-1.516c0-1.188-.212-1.454-.212-1.454a6.75 6.75 0 0 0-3.033-.55m2.308 2.882a7.76 7.76 0 0 1-2.028.208c-.487.005-1.067-.034-1.748-.092v-2a8.62 8.62 0 0 1 3.762.2 6.9 6.9 0 0 1 .063.84 7.3 7.3 0 0 1-.049.844"/></svg>