<svg xmlns="http://www.w3.org/2000/svg" fill="#44739e" viewBox="0 0 24 24"><path d="M16.0192 21.0007c3.432 0 6.7-.616 9.204-1.734 1.202-.537 2.103-1.132 2.786-1.737.073 1.436-1.132 2.877-3.603 3.952-4.657 2.025-12.116 2.025-16.778 0-2.477-1.076-3.684-2.52-3.613-3.957.686.607 1.589 1.203 2.797 1.742 2.505 1.118 5.775 1.734 9.207 1.734m-8.3948-2.5602c-4.718-2.109-4.87-5.59-.22-7.777 4.714-2.218 12.462-2.218 17.182 0 4.654 2.187 4.512 5.668-.203 7.777-4.65 2.081-12.103 2.081-16.759 0m1.929-6.684c-3.487.994-3.374 2.576.165 3.535 3.492.945 9.081.945 12.569 0 3.537-.959 3.644-2.541.153-3.535-3.541-1.008-9.351-1.008-12.887 0"/></svg>