<svg xmlns="http://www.w3.org/2000/svg" fill="#44739e" viewBox="0 0 24 24"><path d="M11.962 7.931A19.445 19.445 0 0 0 4.4 9.384a6.33 6.33 0 0 0-2.325 1.453c0-1.162.872-2.325 2.906-3.2a18.49 18.49 0 0 1 13.662 0c2.035.872 2.907 2.035 2.907 3.2a3.712 3.712 0 0 0-2.035-1.453 19.44 19.44 0 0 0-7.557-1.453m6.976 2.034c3.778 1.744 4.069 4.651.29 6.4a19.257 19.257 0 0 1-13.952 0c-4.069-1.744-4.069-4.651-.291-6.395a19.26 19.26 0 0 1 13.953 0m-1.744 5.523c2.906-.872 2.616-2.035 0-2.907a20.1 20.1 0 0 0-10.174 0c-2.907.872-2.907 2.035 0 2.907a20.1 20.1 0 0 0 10.174 0"/></svg>