<svg xmlns="http://www.w3.org/2000/svg" viewBox="0 0 24 24"><path fill="#44739e" d="M11.962 7.487a21.56 21.56 0 0 0-8.384 1.611A7.02 7.02 0 0 0 1 10.709c0-1.288.967-2.577 3.222-3.548a20.5 20.5 0 0 1 15.148 0c2.256.967 3.223 2.257 3.223 3.548a4.116 4.116 0 0 0-2.256-1.611 21.55 21.55 0 0 0-8.379-1.611m7.735 2.256c4.188 1.933 4.511 5.156.321 7.096a21.35 21.35 0 0 1-15.469 0C.033 14.905.033 11.682 4.222 9.748a21.355 21.355 0 0 1 15.471 0m-1.934 6.124c3.222-.967 2.9-2.256 0-3.223a22.286 22.286 0 0 0-11.281 0c-3.223.967-3.223 2.256 0 3.223a22.286 22.286 0 0 0 11.281 0"/></svg>