<svg xmlns="http://www.w3.org/2000/svg" viewBox="0 0 24 24"><path fill="#44739e" d="M22.989 9.012a.761.761 0 0 0-.791-.619.206.206 0 0 0-.127.03c-.024.037.048.079.079.103.486.293.102 1.131-.371 1.871-.699.96-1.046 1.392-1.046 1.392-.084.11-.151.073-.151-.098V9.39h-.792v3.228a.357.357 0 0 0 .33.309h.268a.511.511 0 0 0 .455-.236L22.722 9.9a1.101 1.101 0 0 0 .267-.888M7.138 14.473c.079.084.074.22.165.285a.387.387 0 0 0 .309-.097c.05-.043-.024-.097-.029-.145-.049-.073-.019-.221-.14-.226a2.5 2.5 0 0 1-.371.024l-.036.024c-.025.068.078.068.102.135m-5.885.412a.286.286 0 0 0-.146.159c-.018.121.006.237-.091.33-.005.024-.03.049-.005.073a1.5 1.5 0 0 0 .273.073c.048-.153.079-.317.134-.45v-.036a.306.306 0 0 0-.165-.149m.268-.017a.187.187 0 0 0 .14.005.826.826 0 0 0 .261-.316.24.24 0 0 0-.091-.103.087.087 0 0 0-.085.007 2 2 0 0 1-.268.188c-.036.024-.024.085-.029.127s.048.068.072.092m7.257-.689a1.74 1.74 0 0 1-.274-.536.7.7 0 0 0-.2-.054c-.037.012-.085 0-.104.048l.304.608a.337.337 0 0 1 .031.177.83.83 0 0 1-.213.346c-.018.012-.043.024-.061-.006a1.35 1.35 0 0 0 .091-.426l-.297-.54c-.038-.074-.098-.14-.092-.226a.098.098 0 0 1 .067-.078c.134-.043.292-.037.389-.14a1.51 1.51 0 0 0 .195-.65.081.081 0 0 1 .061-.049c.024-.006.048.024.06.037a1.007 1.007 0 0 1-.171.747c0 .024-.017.06.013.079a.55.55 0 0 0 .426-.067 2.2 2.2 0 0 0 .449-.061.044.044 0 0 1 .03.037.726.726 0 0 0-.176.371c-.115.121-.286.22-.292.4.018.085.091.007.146.012.024 0 .036.025.036.049l-.11.171c-.06.103.012.22.012.315a.21.21 0 0 0 .202.116 1.62 1.62 0 0 0 .486-.128 1.075 1.075 0 0 1 .571-.036.8.8 0 0 0 .456-.255.27.27 0 0 1 .189.103 1.002 1.002 0 0 0 .791.316l.024-.012a.044.044 0 0 0-.012-.067l-.183-.091a.7.7 0 0 1-.33-.33 1.5 1.5 0 0 0-.188-.388 1.8 1.8 0 0 1-.116-.177c.006 0 .018-.018.024-.018a.812.812 0 0 1 .413.449.66.66 0 0 0 .638.33l.025-.019c.012-.012.006-.036 0-.048l-.131-.052a1.66 1.66 0 0 1-.468-.596c-.049-.073-.14-.121-.189-.195a5.22 5.22 0 0 1-.353-1.431 1.54 1.54 0 0 0-.133-.383 7.9 7.9 0 0 0-.748-.966l-.073-.073-.918-.761a1.84 1.84 0 0 0-.371-.192.947.947 0 0 0-.644.024 5.3 5.3 0 0 1-.583.33 3.05 3.05 0 0 0-.906.395c-.153.134-.281.331-.505.304a.97.97 0 0 0-.669.237 1.277 1.277 0 0 1-.551.377c-.194.078-.431.042-.626.11a2.64 2.64 0 0 0-.828.518 1.65 1.65 0 0 1-.856.316.573.573 0 0 1-.5-.377.627.627 0 0 1 .195-.65c.195-.238.511-.377.669-.651a.512.512 0 0 0-.036-.511 1.437 1.437 0 0 0-.77-.286 2.27 2.27 0 0 1-.457-.261.413.413 0 0 0-.067.292.714.714 0 0 0 .45.55c.133.061.292.018.431.049.037.018.08.054.08.097a.143.143 0 0 1-.049.103 4.36 4.36 0 0 0-.626.584.848.848 0 0 0-.11.838.903.903 0 0 0 .73.542 1.62 1.62 0 0 0 .619-.067c.024 0 .037.03.049.043a4.5 4.5 0 0 0 .03.498 3 3 0 0 0 .137.407.184.184 0 0 1-.037.147 1.6 1.6 0 0 1-.353.195l-.303.017-.061.031a1.87 1.87 0 0 0-.189.413 1.035 1.035 0 0 1-.408.317.91.91 0 0 1-.164.207.297.297 0 0 1-.176.066.866.866 0 0 0-.152.45c.17.018.346.11.517.018.146-.066.176-.244.279-.346.085-.091.214-.025.316-.007.153.007.262-.103.39-.152.091-.055.164-.158.255-.22a1.06 1.06 0 0 1 .614-.006.7.7 0 0 0 .432-.042 1.34 1.34 0 0 1 .364-.202.587.587 0 0 0 .231-.31c.037-.102.14-.188.134-.304-.03-.024-.067-.084-.11-.078-.06.078-.103.164-.165.243-.279.383-.498.42-1.07.42a1.321 1.321 0 0 0-1.094.44.05.05 0 0 1-.061-.012.248.248 0 0 1 .049-.159 1.238 1.238 0 0 1 1.089-.462 1.65 1.65 0 0 0 .649-.158.998.998 0 0 0 .469-.506c.049-.243.067-.51.133-.74.007-.025.067-.043.086-.031s.073.024.073.055a1.376 1.376 0 0 0-.024.754c.188.243.528.11.783.097a4.84 4.84 0 0 1 .73.012c.121-.006.214.024.31-.049a.25.25 0 0 0 .03-.145c0-.067-.066-.11 0-.17a.081.081 0 0 1 .091.012.98.98 0 0 0 .111.286 1.39 1.39 0 0 0 .474.37.628.628 0 0 1 .31.469c0 .103-.091.17-.17.22a.764.764 0 0 1-.432.103c-.207-.098-.262-.317-.395-.474a.33.33 0 0 0-.279-.086 1.83 1.83 0 0 0-.331.049.102.102 0 0 0-.029.091c.072.127.145.249.22.377.091.054.213-.031.293.066a1.12 1.12 0 0 0 .205.298.361.361 0 0 0 .371.068 4.7 4.7 0 0 0 .84-.331h.09c.11-.012.231-.005.305-.084a2.3 2.3 0 0 0 .22-.371.373.373 0 0 0 .007-.317m1.431-1.384.03-.067.036-.073.006-.006a.18.18 0 0 0 .03-.061l.012-.024.019-.054a.11.11 0 0 1 .152-.061.35.35 0 0 1 .11.115l.019.031.024.036.048.054a.61.61 0 0 1 .189.407.9.9 0 0 0-.026.116l-.012.03-.012.037a.08.08 0 0 1-.054.054.051.051 0 0 1-.043-.005.048.048 0 0 1-.019-.043v-.037l-.012-.121a.39.39 0 0 0-.048-.134l-.054-.061-.061-.067a.167.167 0 0 0-.127-.066.24.24 0 0 0-.098.066l-.042.05-.036.048c-.012.024-.043.006-.043.006h-.006v-.006a.24.24 0 0 1-.012-.067.23.23 0 0 1 .031-.097Zm-.122 1.44a.375.375 0 0 1 .261-.243h.03l.03.006a.059.059 0 0 1 .043.049c0 .017.005.036.005.06a.23.23 0 0 1-.066.159.66.66 0 0 1-.249.029l-.019-.005-.018-.012c-.011-.007-.028-.024-.016-.043Zm-1.471-3.271h.007a.103.103 0 0 1 .11-.019.47.47 0 0 1 .14.177.89.89 0 0 1 .06.322 1 1 0 0 1-.036.267h-.001v.007a.035.035 0 0 1-.049 0h-.006v-.007a2.53 2.53 0 0 0-.128-.468l-.036-.06-.012-.019-.03-.045a.15.15 0 0 1-.019-.155m8.233 2.652a5 5 0 0 0 .137-.516 1.54 1.54 0 0 0-.331-1.174 4.41 4.41 0 0 1-.703 1.493 1.09 1.09 0 0 1-.379.314 1.18 1.18 0 0 0-.34.265l-.011.015-.015-.008c-.045-.023-.052-.025-.11 0l-.027.013v-.029a.31.31 0 0 1 .042-.164c.043-.091.063-.144-.012-.178l-.019-.01.009-.018a3.03 3.03 0 0 1 .479-.676 2.85 2.85 0 0 0 .489-.699v.005c-.029.044-.057.089-.089.132l-.072.097.034-.115c.033-.11.074-.227.11-.331a3.9 3.9 0 0 0 .143-.454h-.005c-.01.015-.02.037-.032.06l-.018.038a4.77 4.77 0 0 1-1.525 2.013c-.427.35-.44.456-.425.485s.098.047.284 0h.005a1.3 1.3 0 0 0 .173-.089l.03-.017.117-.068-.091.101a5.588 5.588 0 0 1-3.986 1.509 3.153 3.153 0 0 1-1.945-.754l-.024.036a4.4 4.4 0 0 0 .953.671l.098.06-.11-.02a.76.76 0 0 1-.257-.11c-.037-.022-.075-.045-.11-.065a2.512 2.512 0 0 0 1.478.568 4.315 4.315 0 0 0 1.956-.054 4.3 4.3 0 0 1 .611-.116l.061-.006-.053.053h-.006a5.76 5.76 0 0 1-1.943.346 2.1 2.1 0 0 1-.584-.072 2.33 2.33 0 0 0-.498-.079l.626.237.049.02-.048.021a.5.5 0 0 1-.277-.021 3.5 3.5 0 0 0 .75.198 6.398 6.398 0 0 0 4.31-1.541l.05-.033v.045h.061v.008c.058-.068.11-.14.166-.211a2 2 0 0 1 .413-.441l.046-.033-.012.057a4.81 4.81 0 0 1-2.908 2.155l.128-.028-.042.021a4.704 4.704 0 0 0 3.182-2.854Zm-1.829 1.898c-.213.134-.431.263-.653.383a6.9 6.9 0 0 1-.755.349 5 5 0 0 1-1.014.275v.043l.049-.012c.077-.018.168-.037.274-.057a4.3 4.3 0 0 0 1.287-.403 5.35 5.35 0 0 0 .812-.578m-.355-2.292.011.061.054-.032c.039-.023.039-.023.063-.007l.033.022.025-.032a.93.93 0 0 1 .27-.205 1.11 1.11 0 0 0 .266-.196c.02-.025.04-.05.059-.075.026-.044.055-.089.081-.127a3.2 3.2 0 0 0 .252-.592l.065-.249-.138.209-.016.025-.01.017a.78.78 0 0 1-.317.171.037.037 0 0 1-.043-.034l-.021-.084-.054.067c-.048.057-.097.116-.147.171a2.42 2.42 0 0 0-.406.568l-.018.037.038.019c.029.015.033.027 0 .11a.267.267 0 0 0-.047.156m-3.911 1.714h.01l.054.028.44.166v.011c.01.091.159.153.44.185a4.03 4.03 0 0 0 .746 0c.163-.05.324-.11.479-.167a3.74 3.74 0 0 1-1.211.08c-.263-.029-.34-.077-.361-.098l.098-.033-.115-.043-.472-.175.006-.018c.007-.033 0-.072-.136-.159l-.08.052a.9.9 0 0 1 .11.079h-.036v.052h.028l-.015.031Zm4.686-3.561-.029.072a3.62 3.62 0 0 1-1.15 1.472c-.374.303-.394.407-.364.467s.11.074.258.045a4.54 4.54 0 0 1-1.997.952.33.33 0 0 1 .066.039.3.3 0 0 1 .02.03 4.344 4.344 0 0 0 2.15-1.132l-.059-.062a.77.77 0 0 1-.151.083c-.171.041-.205.012-.205.012s-.018-.072.34-.363a3.683 3.683 0 0 0 1.197-1.558 4 4 0 0 1 .414.089l.012.005h.012c.052.014.104.032.153.051a.36.36 0 0 1 .03-.052l.011-.014.015.009.02.007.023.01.016.008v.016c0 .019-.009.038-.013.055a4.3 4.3 0 0 1-.136.423c-.023.062-.045.124-.067.188a1.5 1.5 0 0 1 .102-.151l.07-.088-.032.111a2.42 2.42 0 0 1-.55.88 3.06 3.06 0 0 0-.465.646c.092.056.05.15.014.227a.4.4 0 0 0-.038.11.11.11 0 0 1 .11 0 1.24 1.24 0 0 1 .34-.262 1.04 1.04 0 0 0 .365-.302 4.38 4.38 0 0 0 .696-1.472l.012-.047.01-.038.028.03a1.53 1.53 0 0 1 .377 1.109v-.126c0-.041.012-.099.017-.151a1.44 1.44 0 0 0-.277-.704 1.33 1.33 0 0 0-.527-.445 2.2 2.2 0 0 0-.264-.097l-.018-.008h-.015a4.4 4.4 0 0 0-.46-.098h-.028l-.018.045Zm-5.28 4.656h.085v-.016h.021a2.04 2.04 0 0 1 .512.068l.045.011a2.7 2.7 0 0 0 .44.073h.132c.309-.02.524-.035.699-.052a3.85 3.85 0 0 0 .778-.156l.21-.063-.123.024a3.3 3.3 0 0 0-.22.052 2.9 2.9 0 0 1-.613.116 5 5 0 0 1-.511.007c-.154-.005-.33-.018-.537-.036a11 11 0 0 1-.311-.032 3.3 3.3 0 0 1-.22-.032 2.9 2.9 0 0 1-.441-.05l-.024.083.032.012a.44.44 0 0 1 .056.023c.078.028.149.049.22.067-.122-.047-.125-.048-.133-.053Zm4.305-6.817c.039.026.039.026.26.081l.019.006.015-.04-.025-.013a.77.77 0 0 0-.162-.063l-.098-.019-.066-.011.047.049Zm-5.16.769c.081.062.163.127.26.204l.04.034.025-.012a7.78 7.78 0 0 1 1.809-.591 8.6 8.6 0 0 1 2.1-.221c-.192-.017-.477-.014-1.28 0a7.54 7.54 0 0 0-2.004.419c-.359.136-.376.135-.44.129l-.063-.006.045-.034a7.8 7.8 0 0 1 1.552-.634 5.3 5.3 0 0 0-1.201.385 5.7 5.7 0 0 1-.793.312Zm7.654.586-.072-.2a4.9 4.9 0 0 0-.514-.979l-.025-.038c-.059-.083-.06-.083-.131-.174l-.013-.012a3.92 3.92 0 0 0-.687-.684v-.007a3.794 3.794 0 0 0-1.786-.817l-.007.038-.04-.006-.196-.025h-.008a6.6 6.6 0 0 0-.628-.042h-.042v-.048a4.3 4.3 0 0 1 .449 0l-.093-.011-.143-.017.142-.026a2.55 2.55 0 0 1 .694.076 4.7 4.7 0 0 0-.881-.154H12.8l-.18-.007a5.26 5.26 0 0 0-1.602.292l-.029.009v-.008a6.9 6.9 0 0 0-.82.318.13.13 0 0 1-.035.014h-.017l-.038.02-.042.021a.044.044 0 0 1-.023.009l-.024.013-.024.013-.062.038-.062.036a.9.9 0 0 0-.082.054l-.067.048-.051.039c-.039.03-.079.06-.11.088a5.78 5.78 0 0 1 2.317-.725l.074-.009-.058.047a.87.87 0 0 1-.374.144h-.008a6.34 6.34 0 0 0-2.234.811l-.005.01a.08.08 0 0 1-.024.026l-.091.09-.015-.013-.006.006c-.038.038-.07.076-.135.152-.028.033-.06.072-.101.12l-.027.039a4 4 0 0 0-.308.43l-.033.058a1.21 1.21 0 0 1 .599.221c.066.042.126.085.187.132l.043-.04c.06-.056.124-.11.187-.161a2.75 2.75 0 0 0 .285-.267c-.11-.027-.129-.021-.357.033l-.06.014.038-.048c.595-.755 2.719-1.168 4.546-.881a3.339 3.339 0 0 1 2.854 1.808l.058.154-.095-.135a3.77 3.77 0 0 0-1.517-1.22c-.229-.096-.24-.104-.293-.157l-.021-.022.027-.013a2.98 2.98 0 0 0-.812-.202c.905.255 2.179.88 2.143 1.227v.027l-.025-.008a1.5 1.5 0 0 1-.137-.057 1.05 1.05 0 0 1 .372.462v.016l-.016.009-.02.011-.023.013h-.02a.8.8 0 0 1-.101-.07v.015l-.037-.039a4.14 4.14 0 0 0-.905-.616 4.5 4.5 0 0 0-.819-.23 4.13 4.13 0 0 1 .965.356 3.82 3.82 0 0 1 1.028.922v.007a2.59 2.59 0 0 1 .513 1.789l.015-.077a3.63 3.63 0 0 0 .051-.972 5.06 5.06 0 0 0-.198-1.058m-1.4-1.407a4.4 4.4 0 0 0-.75-.304 3.03 3.03 0 0 0 .562.238c.064.022.127.042.188.066m-5.109-.231a2.74 2.74 0 0 0-.8.417 6.4 6.4 0 0 1 .8-.417m.945-.224.066-.026-.115.016.035.013ZM9.65 10.259l.024-.023-.026.012h-.007Zm7.309 3.161-.028.074-.041.136-.017.052-.024.061q-.079.198-.172.383a3.9 3.9 0 0 0 .172-.382l.042.015.023-.058.022.008.043-.13a4.95 4.95 0 0 0 .166-.753v-.022c.015-.122.023-.211.028-.291l-.013.09a5 5 0 0 1-.201.817m-3.806-2.203a.93.93 0 0 0 .252-.076l.02-.008h-.01v-.087a.9.9 0 0 0-.215.032h-.007l-.032.015a.55.55 0 0 0-.07.036l-.118.08h.153Zm.495-1.07c-.178.041-.367.085-.555.141s-.381.11-.564.174h-.009c-.206.065-.4.133-.58.202s-.374.145-.567.226c-.175.075-.362.156-.55.243a5 5 0 0 0-.147.068l.057.069c.043-.02.085-.04.126-.058.185-.086.371-.168.545-.243.192-.08.384-.155.565-.22s.371-.135.575-.2h.009c.183-.06.371-.12.562-.174s.374-.099.55-.139.357-.08.519-.11l.206-.031-.011.011.135-.022a.66.66 0 0 1 .11-.012h.062l-.12.06h.258c-.048.012-.09.024-.129.035l-.064.013c-.047.009-.095.019-.135.023h-.007a.062.062 0 0 0-.055.019.063.063 0 0 0-.011.057v.016c-.142.023-.289.053-.433.092a1.2 1.2 0 0 1-.303.062l.014-.018.043-.057-.07-.012c-.144-.025-1.049.268-1.119.46l-.02.058h.028a.088.088 0 0 0 .05.034.62.62 0 0 0 .182.013h.421a1.3 1.3 0 0 0 .25-.013c.055-.013.11-.032.163-.049l.077-.025.03-.009a.063.063 0 0 0 .022.038.15.15 0 0 0 .12.015.1.1 0 0 0 .033-.005.1.1 0 0 1-.017.021v.008c-.006.007-.009.008-.032.021l-.02.009v.021a.047.047 0 0 0 .011.042c.021.024.06.033.231.023h.027a.28.28 0 0 0 .062-.021.13.13 0 0 1 .035-.016h.07l.031-.007.035-.01.026-.007h.092a.24.24 0 0 0 .074-.015.17.17 0 0 1 .048-.01h.067l.11-.019a.9.9 0 0 1 .11-.021h.018a.48.48 0 0 1 .12 0h.066a.4.4 0 0 1 .091.014h.016a2.1 2.1 0 0 1-.245.122.31.31 0 0 1-.154.033.31.31 0 0 0-.11.014l-.028.009-.026.008h-.069a.26.26 0 0 0-.072 0h-.05a.3.3 0 0 0-.075.008l-.024.011-.01.005H14.3a.25.25 0 0 0-.074.008h-.005a.286.286 0 0 1-.133.02h-.029l-.018.01-.047.017-.051.019c-.027.011-.052.023-.078.035a1.1 1.1 0 0 1-.132.055.09.09 0 0 1-.028 0h-.013l-.137.035h-.014a.1.1 0 0 1-.028.007l-.029.007a.33.33 0 0 0-.054.023.22.22 0 0 1-.042.018.18.18 0 0 0-.059.029.44.44 0 0 1-.072.02l-.073.018a.13.13 0 0 0-.056.033l-.012.009h-.01a.095.095 0 0 0-.042.015l-.052.026-.047.025-.023.009-.022.009h-.01l-.019.011a.24.24 0 0 0-.055.038l-.005.006a.187.187 0 0 0-.02.104v.008l-.075.024a5.47 5.47 0 0 0-.925.403c-.186.097-.379.196-.575.279l-.019.011.017.091.044-.026c.198-.084.391-.183.579-.279.146-.074.295-.151.44-.22l-.384.241c.11-.058.23-.116.347-.17-.177.11-.352.22-.523.33l-.475.296.011.048c.184-.11.367-.227.551-.341.309-.195.629-.397.95-.583l.092-.053a.36.36 0 0 0 .124 0 .2.2 0 0 0 .029 0h.026l.03-.005.032.017a.44.44 0 0 0 .11-.036l.014-.007a.06.06 0 0 0 .027-.014c.198-.044.393-.11.581-.167a3.96 3.96 0 0 1 .954-.221h.007a4.8 4.8 0 0 1 .638.026v-.012l.012-.032h.008l.016-.038a4.84 4.84 0 0 0-.683-.03h-.006a4 4 0 0 0-.979.227c-.189.061-.387.125-.584.168h-.012l-.01.008-.022.009a.37.37 0 0 1-.091.032l-.03.006h-.044l.074-.043-.172.051h-.017v-.029c0-.007.021-.012.031-.019l.021-.011.02-.008.022-.008h.006l.053-.029.056-.021h.011a.12.12 0 0 0 .044-.017l.021-.016a.05.05 0 0 1 .02-.013l.071-.019a.4.4 0 0 0 .093-.026h.007l.007-.006a.1.1 0 0 1 .032-.014.4.4 0 0 0 .054-.023.3.3 0 0 1 .039-.019h.02a.18.18 0 0 0 .053-.016l.13-.034a.15.15 0 0 0 .048-.007 1 1 0 0 0 .143-.06c.025-.011.049-.023.074-.033l.048-.017.052-.021h.011a.36.36 0 0 0 .169-.028.2.2 0 0 1 .044 0h.035a.17.17 0 0 0 .037-.014h.006a.15.15 0 0 1 .049-.006h.053l.021-.006a.2.2 0 0 1 .044 0h.097l.029-.009.032-.009a.22.22 0 0 1 .079-.01.39.39 0 0 0 .191-.04 2.1 2.1 0 0 0 .258-.128c.044-.022.095-.057.086-.102 0-.016-.016-.042-.064-.047a.6.6 0 0 1-.063-.013.44.44 0 0 0-.11-.017h-.06a.6.6 0 0 0-.141 0h-.015a.9.9 0 0 0-.121.023l-.099.016h-.056a.24.24 0 0 0-.074.014.17.17 0 0 1-.048.01h-.108l-.034.009-.035.01h-.079a.19.19 0 0 0-.075.022.3.3 0 0 1-.04.014h-.117a.11.11 0 0 0 .022-.039v-.021c0-.024 0-.064-.025-.083a.16.16 0 0 0 .093-.06.061.061 0 0 0 0-.061.058.058 0 0 0-.052-.026.11.11 0 0 0-.034.009h-.008l-.058.018a1.5 1.5 0 0 0-.152.047l-.083.027-.079.027c-.052.016-.105.034-.153.045a1.2 1.2 0 0 1-.231.012h-.429a.47.47 0 0 1-.14-.008v-.011a.77.77 0 0 1 .169-.11v.074a.07.07 0 0 0 .055-.019l-.052-.052a3.6 3.6 0 0 1 .744-.263l-.008.01-.049.065h.124l-.121.041h.268a.1.1 0 0 0 .029 0h.045l.065-.022v.012h.181a.4.4 0 0 0 .087 0h.021a.055.055 0 0 0 .031-.018h.008a.22.22 0 0 0 .041-.009l.055-.017.058-.019.348-.115-.366.031-.089.009c.22-.043.428-.068.603-.087l.244-.025-.238-.059a.3.3 0 0 0-.077-.014h.021a.24.24 0 0 0 .077-.028.24.24 0 0 0 .048-.032l.012-.009a.056.056 0 0 0 .037-.053.052.052 0 0 0-.016-.036.083.083 0 0 0-.064-.013h-.07a.047.047 0 0 0-.017-.031c-.022-.022-.061-.025-.117-.023a.55.55 0 0 0-.11-.007l.11-.11-.239.119-.018.008h-.032a.2.2 0 0 1-.028 0h-.007l-.244.037c-.158.006-.325.041-.518.087m-.818.565-.007-.006h.007Zm-1.983.812h-.009l.037.051a.052.052 0 0 0-.015-.038Zm.928.854.14-.087-.098.05c-.187.097-.381.196-.579.279l-.045.027c.008.043.016.084.025.126l.046-.028-.008-.041ZM9.2 13.622l-.463.085c.024.072.043.236.171.286.06-.11.133-.129.176-.183a.495.495 0 0 1 .116-.188m3.593-2.851-.006.005.006.006Zm7.703-1.776v-.639h-3.727v.639h1.435v3.933h.858V8.995h1.215ZM16.31 14.57a5.55 5.55 0 0 1-.696.77l.06-.043a4.3 4.3 0 0 0 .636-.727m-4.557-6.795a5.86 5.86 0 0 0-2.069.629 9.14 9.14 0 0 1 1.783-.542h.009a1.38 1.38 0 0 0 .277-.087"/></svg>