<svg xmlns="http://www.w3.org/2000/svg" viewBox="0 0 24 24"><path fill="#44739e" d="M17.019 12a5.018 5.018 0 0 1-5.018 5.018A5.018 5.018 0 0 1 6.983 12a5.018 5.018 0 0 1 5.018-5.018A5.018 5.018 0 0 1 17.019 12m5.911-.293a12.43 12.43 0 0 0-5.363-4.798 12.22 12.22 0 0 0-4.674-1.256c-.357-.018-.72-.023-1.078-.022a12.923 12.923 0 0 0-10.723 6.007.733.733 0 0 0 0 .711 12.879 12.879 0 0 0 9.713 5.969 11.8 11.8 0 0 0 1.683.036 12.799 12.799 0 0 0 10.394-6.024.573.573 0 0 0 .048-.623m-4.596 2.346a7.08 7.08 0 0 1-6.325 3.63 8.2 8.2 0 0 1-2.361-.42c-2.557-.9-4.503-3.356-4.531-5.068a5.206 5.206 0 0 1 1.36-3.247 6.875 6.875 0 0 1 5.366-2.517 7.444 7.444 0 0 1 5.628 2.37 4.84 4.84 0 0 1 1.472 3.154 4.72 4.72 0 0 1-.609 2.098"/></svg>