<svg xmlns="http://www.w3.org/2000/svg" viewBox="0 0 24 24"><path fill="#44739e" d="M5.168 19.518a12.4 12.4 0 0 0-1.636.101v.232a.623.623 0 0 1-.208.45.71.71 0 0 1-.478.183h-.011a.672.672 0 0 1-.67-.551c-.394.145-.608.305-.608.443 0 .339 1.405.844 3.611.844s3.614-.505 3.614-.852-1.407-.85-3.614-.85m-3.553 1.268c.017.42.047.975.064 1.029.284.621 1.508 1.08 3.109 1.171 1.555.085 3.357-.208 3.888-1.057a9.6 9.6 0 0 0 .048-1.003c-1.574.967-6.101.967-7.109-.14M21.213 5.489a4.465 4.465 0 0 0-2.824-1.558l-.013-1.773a.51.51 0 0 0 .232-.243.495.495 0 0 0-.167-.614c-.116-.08-.168-.088-.54-.138a19 19 0 0 0-.863-.093 21 21 0 0 0-2.901-.037 16.08 16.08 0 0 0-3.723.634 10.32 10.32 0 0 0-3.661 1.91c-4.335 3.614-4.4 8.627-4.492 15.571l-.006.517a.513.513 0 0 0 .505.507h.008a.522.522 0 0 0 .356-.141.51.51 0 0 0 .158-.359l.006-.512c.087-6.673.15-11.495 4.118-14.803a11.72 11.72 0 0 1 6.737-2.307 19.67 19.67 0 0 1 3.408.094l.012 1.777a4.41 4.41 0 0 0-2.911 1.524 4.64 4.64 0 0 0-1.321 3.343 1.141 1.141 0 0 0 1.03 1.004c.719.031 2.348.021 3.956.007h.168c1.212-.01 2.358-.02 2.885 0h.037a1.044 1.044 0 0 0 1.023-.867 4.525 4.525 0 0 0-1.217-3.443"/></svg>