<svg xmlns="http://www.w3.org/2000/svg" fill="#44739e" viewBox="0 0 24 24"><path d="M19.105 11.841q-2.41-4.506-4.818-9.012a.29.29 0 0 0-.277-.168h-1.19a.325.325 0 0 0-.31.193q-2.4 4.485-4.8 8.967a.353.353 0 0 0 0 .363L9.223 15c1.073 2 1.58 2.948 1.6 2.978l.136.229.3-.57c.153-.286.3-.567.456-.844a.378.378 0 0 0 0-.4q-.584-1.086-1.165-2.173t-1.163-2.172c-.022-.041-.024-.052 0-.1l1.726-3.223c.862-1.608 1.718-3.209 2.144-4l.143-.267c.418.779 1.761 3.285 2.874 5.363l1.141 2.129c.025.049.023.06 0 .1-1.608 3-4.814 9-4.85 9.07l-.115.22h1.6a.3.3 0 0 0 .235-.165l4.824-9.013a.307.307 0 0 0-.004-.321m-5.1 9.193h-1.056c.595-1.115 3.305-6.187 4.732-8.849a.373.373 0 0 0 0-.383l-1.14-2.129c-1.8-3.367-2.988-5.577-3.01-5.613l-.131-.221-.127.228c0 .009-.107.2-.276.515-.426.793-1.283 2.393-2.144 4l-1.728 3.224a.371.371 0 0 0 0 .384q.584 1.086 1.165 2.173t1.165 2.174c.028.053.026.067 0 .111-.155.279-.3.561-.458.848l-.048.089c-.255-.474-.845-1.575-1.462-2.726l-1.51-2.818c-.022-.04-.02-.045 0-.079q2.4-4.48 4.8-8.967c.014-.028.021-.034.048-.036.4.007.793 0 1.2.011 1.605 3 3.212 6.009 4.822 9.045zm2.282-9.217-1.033-1.928C14.015 7.578 13.2 6.06 13.18 6.022l-.135-.232-.31.579c-.151.284-.3.562-.453.838a.382.382 0 0 0 0 .4q.572 1.063 1.141 2.128.593 1.11 1.189 2.22c.022.04.024.05 0 .1l-1.5 2.8c-1.013 1.891-2.138 3.993-2.513 4.69-.379-.706-1.519-2.835-2.546-4.751l-1.47-2.742c-.026-.048-.024-.06 0-.1 1.045-1.95 3.128-5.847 4.2-7.847l.772-1.442H9.954a.3.3 0 0 0-.234.166l-4.828 9.015a.309.309 0 0 0 0 .315q2.412 4.5 4.819 9.013a.277.277 0 0 0 .281.168c.393 0 .787-.008 1.182 0h.01a.322.322 0 0 0 .308-.2q2.4-4.486 4.8-8.967a.351.351 0 0 0-.005-.356m-5.058 9.189c-.014.027-.021.033-.047.034-.4-.007-.794 0-1.2-.009-1.605-3-3.211-6.01-4.821-9.046L9.99 2.966h1.059l-.535 1c-1.07 2-3.154 5.9-4.2 7.847a.375.375 0 0 0 0 .384l1.468 2.741c1.655 3.089 2.661 4.967 2.681 5l.128.216.13-.215c.019-.032.8-1.483 2.649-4.942l1.5-2.8a.37.37 0 0 0 0-.385q-.6-1.109-1.189-2.218-.569-1.065-1.141-2.129c-.028-.053-.026-.068 0-.111.154-.277.3-.557.455-.843l.051-.094c.32.6 1.171 2.183 1.938 3.616l1.034 1.928c.023.041.02.047 0 .078q-2.393 4.48-4.789 8.967"/></svg>