<svg xmlns="http://www.w3.org/2000/svg" viewBox="0 0 24 24"><path fill="#44739e" d="M20.367 11.812q-2.838-5.307-5.674-10.614A.342.342 0 0 0 14.366 1h-1.401a.383.383 0 0 0-.365.228Q9.773 6.51 6.947 11.788a.416.416 0 0 0 0 .428l1.782 3.316c1.264 2.355 1.861 3.472 1.884 3.507l.16.27.354-.671c.18-.337.353-.668.537-.994a.445.445 0 0 0 0-.471q-.688-1.279-1.372-2.56t-1.37-2.558c-.026-.048-.028-.061 0-.117l2.033-3.796c1.015-1.894 2.023-3.779 2.525-4.711l.168-.314c.492.917 2.074 3.868 3.385 6.316l1.344 2.507c.029.058.027.071 0 .118-1.894 3.533-5.67 10.599-5.712 10.681l-.136.26h1.885a.353.353 0 0 0 .276-.195l5.682-10.614a.362.362 0 0 0-.005-.378m-6.006 10.826h-1.244c.701-1.313 3.892-7.286 5.573-10.421a.439.439 0 0 0 0-.451l-1.343-2.508c-2.12-3.965-3.519-6.568-3.545-6.61l-.154-.26-.149.268c0 .011-.126.236-.326.607-.501.934-1.511 2.818-2.525 4.711L8.613 11.77a.437.437 0 0 0 0 .453q.688 1.279 1.372 2.559t1.372 2.56c.033.063.031.079 0 .131-.182.328-.353.661-.539.999l-.056.104c-.301-.558-.996-1.855-1.722-3.21l-1.779-3.319c-.025-.047-.023-.053 0-.093q2.827-5.276 5.653-10.56c.017-.033.025-.04.057-.043.471.009.934 0 1.413.013 1.89 3.533 3.783 7.077 5.679 10.653Zm2.687-10.855-1.216-2.27c-1.46-2.722-2.419-4.51-2.443-4.554l-.159-.274-.365.682c-.178.335-.353.662-.534.987a.45.45 0 0 0 0 .471q.674 1.252 1.344 2.506.699 1.308 1.4 2.615c.026.047.029.059 0 .118l-1.766 3.297c-1.193 2.227-2.518 4.703-2.96 5.524-.446-.832-1.789-3.339-2.998-5.596L5.62 12.06c-.031-.056-.029-.071 0-.118 1.23-2.296 3.684-6.886 4.946-9.241l.909-1.698H9.59a.353.353 0 0 0-.276.195L3.628 11.815a.364.364 0 0 0 0 .371q2.841 5.3 5.676 10.615a.326.326 0 0 0 .33.198c.463 0 .927-.01 1.393 0h.011a.379.379 0 0 0 .363-.236q2.827-5.283 5.653-10.56a.413.413 0 0 0-.006-.42m-5.957 10.822c-.016.032-.024.039-.055.04-.471-.008-.935 0-1.413-.01-1.89-3.533-3.782-7.078-5.678-10.654L9.632 1.36h1.247l-.63 1.177c-1.26 2.356-3.714 6.949-4.946 9.242a.442.442 0 0 0 0 .452l1.729 3.228c1.949 3.638 3.134 5.85 3.157 5.888l.151.255.153-.253c.022-.038.942-1.747 3.12-5.821l1.766-3.297a.436.436 0 0 0 0-.454q-.706-1.306-1.4-2.612-.67-1.254-1.344-2.507c-.033-.062-.03-.08 0-.131.182-.326.354-.656.536-.992l.06-.111c.377.706 1.379 2.571 2.283 4.258l1.217 2.271c.027.048.024.055 0 .092q-2.818 5.276-5.64 10.56"/></svg>