<svg xmlns="http://www.w3.org/2000/svg" viewBox="0 0 24 24"><path fill="#44739e" d="M12.079 14.602a1.487 1.487 0 1 0 1.594 1.483 1.543 1.543 0 0 0-1.594-1.483m0 2.268a.787.787 0 1 1 .845-.785.816.816 0 0 1-.845.785m7.696-15.252a3.35 3.35 0 0 0-.519-.573.186.186 0 0 0-.122-.045H4.845a.184.184 0 0 0-.138.06 4.7 4.7 0 0 0-.375.485 1.12 1.12 0 0 0-.193.583c-.033.776-.111 2.833-.043 3.402a.173.173 0 0 0 .177.145h15.368a.173.173 0 0 0 .179-.16l.111-3.408a.782.782 0 0 0-.156-.489m-3.411 7.053-.044.032H7.681l-.068-.055a7.839 7.839 0 1 0 8.751.02Zm-8.589 5.053c.213-5.911 8.398-5.434 8.611-.057v1.764a4.281 4.281 0 0 0-4.307-3.401 4.281 4.281 0 0 0-4.303 3.402Zm4.305 4.715a2.45 2.45 0 0 1-2.531-2.354 2.45 2.45 0 0 1 2.533-2.355 2.449 2.449 0 0 1 2.533 2.355 2.449 2.449 0 0 1-2.536 2.354Zm1.753.849a.477.477 0 0 1-.621-.182.414.414 0 0 1 .195-.577.478.478 0 0 1 .621.182.413.413 0 0 1-.196.577Zm-1.29-.065a.47.47 0 1 1-.469-.435.454.454 0 0 1 .469.435m-1.774-.21a.479.479 0 0 1-.631.147.409.409 0 0 1-.159-.585.48.48 0 0 1 .632-.149.411.411 0 0 1 .158.591Zm-1.648-2.928a.47.47 0 1 1-.469-.436.454.454 0 0 1 .473.436Zm-.324-1.755a.48.48 0 0 1 .632-.147.413.413 0 0 1 .158.587.481.481 0 0 1-.631.147.41.41 0 0 1-.154-.588Zm.123 2.866a.477.477 0 0 1 .621.182.413.413 0 0 1-.196.577.476.476 0 0 1-.62-.182.414.414 0 0 1 .2-.577Zm1.386-4.19a.478.478 0 0 1 .622.182.413.413 0 0 1-.196.577.478.478 0 0 1-.621-.182.414.414 0 0 1 .2-.577Zm1.299-.06a.47.47 0 1 1 .469.436.454.454 0 0 1-.464-.436Zm1.775.342a.481.481 0 0 1 .634-.149.413.413 0 0 1 .159.587.479.479 0 0 1-.631.148.41.41 0 0 1-.159-.586Zm1.417 1.064a.479.479 0 0 1 .621.181.413.413 0 0 1-.195.577.477.477 0 0 1-.621-.182.414.414 0 0 1 .199-.576Zm-.248 3.174a.481.481 0 0 1 .632-.149.411.411 0 0 1 .158.587.479.479 0 0 1-.631.147.41.41 0 0 1-.155-.585Zm.465-1.442a.47.47 0 1 1 .469.436.454.454 0 0 1-.465-.435Zm1.368 2.248c0 4.728-8.063 5.119-8.612.055v-1.649a4.281 4.281 0 0 0 4.305 3.402 4.281 4.281 0 0 0 4.307-3.402ZM4.635 5.977l3.15 2.469h8.43l3.106-2.468Z"/></svg>