<svg xmlns="http://www.w3.org/2000/svg" viewBox="0 0 24 24"><path fill="#44739e" d="M4.174 10.888h.001l.012-.007Zm-1.176 2.487a7.174 7.174 0 0 0 3.547 5.474c2.466 1.362 4.503.424 4.292-2.188l-.881-.059c-3.091-4.813-4.721-5.809-5.896-5.573a2.319 2.319 0 0 0-1.062 2.346m1.809.152a1.305 1.305 0 0 1 1.131-.359 3.313 3.313 0 0 1 2.503 2.531 1.667 1.667 0 0 1-.38 1.65 1.27 1.27 0 0 1-.866.311 1.95 1.95 0 0 1-.621-.11 3.507 3.507 0 0 1-2.129-2.594 1.626 1.626 0 0 1 .362-1.429m1.907 3.613a1.051 1.051 0 0 0 1.069-.115 1.268 1.268 0 0 0 .248-1.241 2.903 2.903 0 0 0-2.141-2.195 1.2 1.2 0 0 0-.154-.01.836.836 0 0 0-.62.244 1.235 1.235 0 0 0-.247 1.06 3.049 3.049 0 0 0 1.845 2.257m-.456-2.67a1.332 1.332 0 0 1 .873 1.088c.105.579-.183.911-.598.738a1.477 1.477 0 0 1-.748-1.118c-.061-.445.138-.76.468-.708Zm9.17-6.131a5.406 5.406 0 0 0-4.922-2.091L4.624 9.417c2.21 0 6.706 2.971 7.13 7.042l-.561.246c.236 5.118-7.859 3.81-8.669-3.709a3.615 3.615 0 0 1 .914-2.164l.084-.015c4.198-.63 6.17 5.264 6.713 5.502l.627.036a.8.8 0 0 0 .283-.126c.478-.53-2.799-6.249-6.713-6.469a3.35 3.35 0 0 0-2.328.723 3.74 3.74 0 0 0-1.101 2.809c0 .072.44.169.44.169a8 8 0 0 0 .532-.221c-.425 1.882 2.655 6.304 4.952 6.803a4.072 4.072 0 0 0 4.629-1.32l4.67-4.202a5.559 5.559 0 0 0-.798-6.182M13.26 5.05l-1.973.868a5.805 5.805 0 0 1 4.657 2.152 6.177 6.177 0 0 1 1.203 4.742 2.77 2.77 0 0 1-.491 1.197l1.754-1.954a4.985 4.985 0 0 0-.715-5.152A4.752 4.752 0 0 0 13.26 5.05m3.396 8.959-.027.029a.25.25 0 0 0 .027-.029M20.035 3.72a3.344 3.344 0 0 0-3.334 1.854 2.806 2.806 0 0 1 1.1.88c2.571-2.33 5.048 2.799 1.721 3.728-.024.007-.298.03-.298.03a3.353 3.353 0 0 1-.383 1.658 8.8 8.8 0 0 0 1.273 0c1.686-.15 2.949-2.034 2.878-4.214a3.777 3.777 0 0 0-2.957-3.936m-.823 6.285s1.664-.371 1.56-1.632a2.407 2.407 0 0 0-1.111-2.133s-.893-.365-1.274.264l-.368.16a5.16 5.16 0 0 1 1.117 2.608Z"/></svg>