<svg xmlns="http://www.w3.org/2000/svg" viewBox="0 0 24 24"><path fill="#44739e" d="M9.151 17.741c.599.04.896-.475.66-1.119a1.677 1.677 0 0 0-1.357-1.103c-.526-.015-.822.424-.66 1.011a1.698 1.698 0 0 0 1.357 1.211m-2.799-1.365a4.18 4.18 0 0 0 3.371 2.969c1.483.099 2.221-1.161 1.65-2.734a4.142 4.142 0 0 0-3.377-2.706c-1.301-.036-2.035 1.04-1.644 2.471m1.76-1.802a3.214 3.214 0 0 1 2.64 2.042c.446 1.187-.129 2.138-1.286 2.063a3.228 3.228 0 0 1-2.634-2.242c-.309-1.079.264-1.891 1.279-1.863Zm6.948 4.346.312-.219.826-.624.406-.343.405-.467.358-.639.187-.36.141-.389.203-1.248.125-.467.078-.156.046-.367-1.775-.085.013.759.016.488.179.185.07.797-.07.671-.226.841-.297.578-.498.437ZM3.567 12.822l.343.608c.104-.016.21-.033.32-.048.33 3.919 2.788 7.824 7.872 7.71a7.347 7.347 0 0 0 7.566-7.759c.178.021.351.043.523.066l.25-.592c-1.857-.796-14.878-.78-16.874.015m15.749.472a7.338 7.338 0 0 1-7.143 7.539c-2.64.109-6.954-1.122-7.506-7.511.602-.075 1.272-.141 1.991-.196a1.32 1.32 0 0 0-.798.542l-.607.027c.164 3.332 1.353 5.291 3.861 6.16a6.28 6.28 0 0 0 3.172.298c2.614-.248 3.503-2.947 3.68-3.68a1.6 1.6 0 0 0-.093-1.202c-.086-.13-.142-.144-.235-.265-.369-.484.18-1.126.141-1.363-.092 0-.592-.11-5.53-.16-.057 0-1.369-.396-1.912-.458a76.1 76.1 0 0 1 10.979.269m-11.468.071a5.059 5.059 0 0 1 4.153 3.182c.703 1.849-.204 3.332-2.03 3.215a4.51 4.51 0 0 1-1.584-.529 4.07 4.07 0 0 1-.641-.412 5.01 5.01 0 0 1-1.854-2.904c-.297-1.534.449-2.598 1.956-2.552m-6.83-8.908a25.6 25.6 0 0 0 .116 3.569c.33 2.029.602 4.342 1.607 4.172 4.163-.701 13.644-.951 18.526.11C22.819 12.645 23 4.313 23 4.313c-3.029-1.971-19.123-1.829-21.982.144"/></svg>