<svg xmlns="http://www.w3.org/2000/svg" fill="#44739e" viewBox="0 0 24 24"><path d="M10.818 17.161a.651.651 0 0 0 0-1.283.651.651 0 0 0 0 1.283m0-1.068a.443.443 0 0 1 0 .854.443.443 0 0 1 0-.854M8.6 17.12a.651.651 0 0 0 0-1.283.651.651 0 0 0 0 1.283m0-1.068a.442.442 0 0 1 0 .853.442.442 0 0 1 0-.853m1.948-1.686c.121 0 .219-.136.219-.3s-.1-.3-.219-.3-.219.136-.219.3.098.3.219.3m-1.325.015c.121 0 .219-.136.219-.3s-.1-.3-.219-.3-.219.136-.219.3.096.3.219.3M6.5 11.3c.05 1.188.115 2.662.168 3.825.066-.807.153-1.751.262-2.6a.62.62 0 0 1 .185-.387 3.176 3.176 0 0 1 1.776-.478h.094c2.36.03 3.62.08 4.221.834a2.958 2.958 0 0 1 .36 2.449 13 13 0 0 0-.117 2.086c.075 2.074.809 3.263 2.013 3.263a1.082 1.082 0 0 0 .84-.394c.714-.793 1.006-2.718.822-5.421a8.3 8.3 0 0 1 .244-2.371 7.8 7.8 0 0 0 .141-.774c-4.875-.18-9.245-.192-11.009-.032m2.546 3.441h1.679a.618.618 0 0 0 .609-.628v-.032a.616.616 0 0 0-.61-.623h-.007l-1.68.026a.629.629 0 0 0 .01 1.257zm1.5-1.106c.22 0 .348.164.351.427s-.09.432-.35.432c-.154 0-.352-.056-.352-.453a.367.367 0 0 1 .352-.406zm-1.326 0c.273 0 .374.229.362.5a.367.367 0 0 1-.36.387c-.24 0-.375-.2-.372-.454a.438.438 0 0 1 .371-.433zm-1.895 2.132v1.55a.526.526 0 0 0 .5.534l4.088.1a.526.526 0 0 0 .529-.521v-.017l-.011-1.642a.525.525 0 0 0-.515-.531l-4.078-.007a.526.526 0 0 0-.513.534m3.493-.125a.889.889 0 0 1 0 1.756.889.889 0 0 1 0-1.756M8.6 15.6a.889.889 0 0 1 0 1.755.889.889 0 0 1 0-1.755m6.858 4.983c-1.373 0-2.206-1.288-2.287-3.535a13.3 13.3 0 0 1 .12-2.131c.114-.975.189-1.619-.3-2.235s-1.627-.694-3.569-.725l-.443-.006c-1.738-.022-1.777.586-1.777.592v.019c-.128.984-.224 2.108-.294 2.991-.021.27-.039.518-.055.732s-.031.406-.042.547a5.337 5.337 0 0 0 5.279 5.176 5.212 5.212 0 0 0 3.6-1.443 1.34 1.34 0 0 1-.229.019zm-5.522-.215c-1.665 0-3.015-1.658-3.015-3.7s1.35-3.7 3.015-3.7 3.016 1.658 3.016 3.7-1.352 3.7-3.016 3.7m8.599-9.443-.271-5.758a43.25 43.25 0 0 0-12.7-.079l-.1 5.837a121.8 121.8 0 0 1 13.071 0M18.228 4.6s.015-.8-.013-.875a2.38 2.38 0 0 0-1.57-1.214 7 7 0 0 0-.218-.069 16.86 16.86 0 0 0-4.776-.422c-2.439.06-5.358.115-5.961 1.44a5.26 5.26 0 0 0-.13 1c4.683-.833 10.304-.56 12.668.14m-7.501 13.645-1.668-.026a.655.655 0 0 0-.032 1.307l1.666.062a.64.64 0 0 0 .655-.626v-.051a.644.644 0 0 0-.621-.666m-1.509 1.183A.526.526 0 1 1 9.7 18.9a.5.5 0 0 1-.482.528m1.691-.393a.43.43 0 0 1-.014.073.466.466 0 0 1-.915-.074.5.5 0 0 1-.018-.1.5.5 0 0 1 .014-.076l.005-.028a.466.466 0 0 1 .927-.007v.009a.6.6 0 0 1 .019.1.57.57 0 0 1-.018.103"/></svg>