<svg xmlns="http://www.w3.org/2000/svg" fill="#44739e" viewBox="0 0 24 24"><path d="M12.0016.2918c-2.0947-.0142-4.19 1.7473-4.19 4.5468v14.475c0 5.8775 8.3767 5.784 8.3767.1721V4.5263c0-2.557-2.092-4.2202-4.1867-4.2345m.035 1.0865c1.6948-.0013 3.0691 1.3816 3.0684 3.0875-.001 1.7046-1.3749 3.0856-3.0684 3.0843-1.6922-.0004-3.0641-1.3809-3.0651-3.0843-.0008-1.7046 1.3716-3.087 3.0651-3.0875m0 .2294c-.1343 0-.2684.0096-.4014.0287a2.8 2.8 0 0 0-.3983.086 2.8 2.8 0 0 0-.3792.1434 2.8 2.8 0 0 0-.3536.1944 2.84 2.84 0 0 0-.325.2453 2.85 2.85 0 0 0-.2868.29 2.86 2.86 0 0 0-.4365.6818 2.9 2.9 0 0 0-.1402.3824 2.88 2.88 0 0 0-.1147.8061 2.88 2.88 0 0 0 .1147.8061c.0378.1296.0846.2563.1402.3792a2.9 2.9 0 0 0 .1943.36q.1097.1712.2422.325a2.85 2.85 0 0 0 .2868.29c.1024.0884.211.1693.325.2421a2.8 2.8 0 0 0 .3536.1976 2.8 2.8 0 0 0 .3792.1402c.1305.0393.2636.0691.3983.0892.133.019.2671.0287.4014.0287a2.8 2.8 0 0 0 .4047-.0287 2.8 2.8 0 0 0 .395-.0892 2.8 2.8 0 0 0 .3824-.1402 2.8 2.8 0 0 0 .3537-.1976 2.84 2.84 0 0 0 .325-.2421 2.85 2.85 0 0 0 .2868-.29 2.9 2.9 0 0 0 .2421-.325 2.9 2.9 0 0 0 .1944-.36 2.87 2.87 0 0 0 .2549-1.1853v-.1053l-.0032-.0032v-.0319a3 3 0 0 0-.0096-.1402 3 3 0 0 0-.016-.1401 3 3 0 0 0-.0254-.137 3 3 0 0 0-.0287-.137 3 3 0 0 0-.0382-.1339 3 3 0 0 0-.0447-.1338 3 3 0 0 0-.0477-.1306 3 3 0 0 0-.0574-.1307 3 3 0 0 0-.0637-.1242 3 3 0 0 0-.067-.1211 3 3 0 0 0-.0764-.118 2.84 2.84 0 0 0-.2549-.3313 3 3 0 0 0-.0988-.102 3 3 0 0 0-.0987-.0987 3 3 0 0 0-.1052-.0892 3 3 0 0 0-.1115-.086 3 3 0 0 0-.1147-.0829 3 3 0 0 0-.1147-.0733 3 3 0 0 0-.1243-.07 2.8 2.8 0 0 0-.2517-.121 3 3 0 0 0-.1274-.048 3 3 0 0 0-.1339-.0446 2.8 2.8 0 0 0-.2708-.07 3 3 0 0 0-.137-.0224 3 3 0 0 0-.137-.019 3 3 0 0 0-.1402-.0096 3 3 0 0 0-.1402-.0032zm0 1.523a1.3 1.3 0 0 1 .067.0033q.0319.0008.0637.0031.032.0041.0637.0096.032.004.0637.0096.0337.007.067.0159a1.3 1.3 0 0 1 .0605.016q.0321.0103.0637.0222.029.0106.0573.0223.0306.012.0606.0255.0291.0153.0573.0319.0307.015.0606.0319.0258.0169.051.035.0275.0184.0541.0382.026.0186.051.0383a1.3 1.3 0 0 1 .051.0414q.0229.0234.0446.0478.0245.0232.0478.0478.0213.0234.0414.0478.0213.0265.0414.0541a1.3 1.3 0 0 1 .0701.1083q.0166.0269.0319.0542.0166.03.0318.0606.0135.03.0255.0605a1.3 1.3 0 0 1 .0223.0606q.012.0315.0223.0637.0085.03.016.0605.0071.0318.0127.0637.007.0318.0128.0638.0039.0333.0064.0669.0039.0318.0064.0637v.1467l-.0032.0096v.0319l-.0032.0096v.0191l-.0032.0096v.0223l-.0032.0096a1.3 1.3 0 0 1-.0383.1848 1.34 1.34 0 0 1-.0669.1784 1.3 1.3 0 0 1-.0924.1657 1.33 1.33 0 0 1-.2453.29 1.3 1.3 0 0 1-.153.1114 1.3 1.3 0 0 1-.1625.0924 1.3 1.3 0 0 1-.1816.067 1.3 1.3 0 0 1-.1816.0414 1.3 1.3 0 0 1-.1912.0127 1.3 1.3 0 0 1-.188-.0127 1.3 1.3 0 0 1-.1848-.0415 1.3 1.3 0 0 1-.1784-.0669 1.3 1.3 0 0 1-.1625-.0924 1.3 1.3 0 0 1-.153-.1115 1.33 1.33 0 0 1-.2453-.29 1.3 1.3 0 0 1-.0924-.1656 1.34 1.34 0 0 1-.0669-.1784 1.34 1.34 0 0 1-.0382-.1848 1.34 1.34 0 0 1-.0128-.1912 1.3 1.3 0 0 1 .0128-.1912 1.3 1.3 0 0 1 .0382-.1848 1.3 1.3 0 0 1 .067-.1784 1.3 1.3 0 0 1 .0923-.1657 1.33 1.33 0 0 1 .2454-.29 1.325 1.325 0 0 1 .4938-.2708 1.3 1.3 0 0 1 .1848-.0414 1.3 1.3 0 0 1 .188-.0128zm0 .5003a.8.8 0 0 0-.1147.0064.8.8 0 0 0-.1179.0255.8.8 0 0 0-.1115.0414.83.83 0 0 0-.1975.1306.8.8 0 0 0-.0829.0829.8.8 0 0 0-.0732.0956.8.8 0 0 0-.0574.1051.84.84 0 0 0-.0382.1115.85.85 0 0 0-.0255.118.9.9 0 0 0-.0096.1178.8.8 0 0 0 .0096.1179.85.85 0 0 0 .0255.1179.8.8 0 0 0 .0382.1115.8.8 0 0 0 .0574.1051.8.8 0 0 0 .0732.0956.8.8 0 0 0 .0829.0829.83.83 0 0 0 .1975.1306.8.8 0 0 0 .1115.0414.8.8 0 0 0 .118.0255.8.8 0 0 0 .1146.0064.8.8 0 0 0 .118-.0064.8.8 0 0 0 .1178-.0255.8.8 0 0 0 .1115-.0414.83.83 0 0 0 .1976-.1306.8.8 0 0 0 .0828-.0829.8.8 0 0 0 .0733-.0956.8.8 0 0 0 .0574-.1051.84.84 0 0 0 .0382-.1115.85.85 0 0 0 .0255-.118l.0032-.0031V4.555l.0032-.0032v-.0351l.0032-.0032v-.0893a1 1 0 0 0-.0032-.0414 1 1 0 0 0-.0064-.0415.7.7 0 0 0-.016-.0796 1 1 0 0 0-.0096-.0382 1 1 0 0 0-.0128-.0383 1 1 0 0 0-.0159-.0382 1 1 0 0 0-.016-.0382 1 1 0 0 0-.019-.0383 1 1 0 0 0-.0192-.035.8.8 0 0 0-.0446-.067 1 1 0 0 0-.0254-.0318 1 1 0 0 0-.0255-.0319 1 1 0 0 0-.0319-.0286 1 1 0 0 0-.0287-.0287 1 1 0 0 0-.0287-.0287 1 1 0 0 0-.0318-.0255 1 1 0 0 0-.035-.0223 1 1 0 0 0-.0351-.0223 1 1 0 0 0-.035-.0191 1 1 0 0 0-.0351-.0191 1 1 0 0 0-.0382-.016 1 1 0 0 0-.0383-.0159 1 1 0 0 0-.0382-.0127 1 1 0 0 0-.0383-.0096 1 1 0 0 0-.0414-.0096 1 1 0 0 0-.0382-.0063 1 1 0 0 0-.0414-.0064 1 1 0 0 0-.0415-.0032 1 1 0 0 0-.0414 0zm2.479.685a.15.15 0 0 1 .0222 0 .147.147 0 0 1 .086.0287.15.15 0 0 1 .0351.035.1467.1467 0 1 1-.2676.083.1466.1466 0 0 1 .1242-.1467m-4.9802.0064a.13.13 0 0 1 .0192 0 .134.134 0 0 1 .0732.0223.2.2 0 0 1 .016.0128.1.1 0 0 1 .0127.0127.13.13 0 0 1 .0128.016.134.134 0 0 1 .019.07.1338.1338 0 0 1-.2676 0 .134.134 0 0 1 .1147-.1338m2.5012 3.8299a.3.3 0 0 1 .016 0 .3.3 0 0 1 .0159 0l.0128.0032a.3.3 0 0 1 .0286.0064.3.3 0 0 1 .0287.0063l.0127.0064.0128.0064.0127.0063a.3.3 0 0 1 .016.0064l.0096.0096.0127.0063a.2.2 0 0 1 .0128.0096q.0048.0046.0096.0096a.2.2 0 0 1 .0127.0095l.0096.0128.0096.0095.0096.0128a.2.2 0 0 1 .0064.0127l.0096.0128a.2.2 0 0 1 .0064.0127.2.2 0 0 1 .0064.0128.2.2 0 0 1 .0064.0127l.0032.0127a.3.3 0 0 1 .0064.016.3.3 0 0 1 .0064.0287.3.3 0 0 1 .0064.0286v.0574h-.0032v.0128a.3.3 0 0 1-.0096.0414.3.3 0 0 1-.0127.0415.3.3 0 0 1-.0223.0382.3.3 0 0 1-.0255.035.3.3 0 0 1-.0287.0287.3.3 0 0 1-.035.0255.3.3 0 0 1-.0383.0223.3.3 0 0 1-.0382.0127.3.3 0 0 1-.0415.0096.285.285 0 0 1-.1275-.0096.3.3 0 0 1-.0381-.0127.3.3 0 0 1-.0383-.0223.3.3 0 0 1-.035-.0255.3.3 0 0 1-.0287-.0287.3.3 0 0 1-.0255-.035.3.3 0 0 1-.0223-.0382.3.3 0 0 1-.0127-.0415.3.3 0 0 1-.0096-.0414.29.29 0 0 1 .0096-.1274.3.3 0 0 1 .0127-.0383.3.3 0 0 1 .0223-.0382.3.3 0 0 1 .0255-.035.3.3 0 0 1 .0287-.0287.3.3 0 0 1 .035-.0255.3.3 0 0 1 .0383-.0223.3.3 0 0 1 .0382-.0128.3.3 0 0 1 .0414-.0095.3.3 0 0 1 .0414-.0032zm.2645 3.1544c.0466-.0003.0914.028.1051.0732.006.0935.0032.2091.0032.2996v1.2521h-.2166v-1.2521c0-.0908-.0004-.1937.0032-.2932a.1095.1095 0 0 1 .1051-.0796m.392.0414c.1247-.005.1636.191.0286.223-.1383.0328-.1922-.1858-.0542-.2198a.12.12 0 0 1 .0255-.0032zm1.5867.0096c.052-.001.1045.0354.1115.0956.009.0772 0 .158 0 .2358v.4683c.1902-.1165.3281-.3187.5193-.4333.0918-.055.2058.0418.1498.1402-.0275.0483-.0858.0854-.1275.121-.0887.0761-.1762.1528-.2644.2295-.0315.0273-.0645.052-.0956.0796-.0113.01-.0324.027-.0287.0447.0044.0203.0333.0379.0478.051l.1274.1146q.1501.1335.2996.2677c.057.051.1209.0996.1688.1593h-.2135c-.0323 0-.0715.0064-.102-.0064-.0542-.0227-.103-.0854-.1465-.1243-.1098-.0982-.2184-.2056-.3345-.2963v.427h-.2167v-1.3988c0-.0443-.0072-.0968.0223-.1338a.107.107 0 0 1 .0828-.0414zm-4.8814.3473c.0544-.0023.1088.0166.1243.0796.0318.1294-.1118.1282-.1912.1657a.398.398 0 0 0-.1848.1785c-.05.0973-.0414.2095-.0414.3154v.4875h-.2199v-.4748c0-.1816.0015-.3514.1116-.5066a.604.604 0 0 1 .3505-.2358c.0171-.0042.0328-.0087.051-.0096zm.7615.0318a.58.58 0 0 1 .376.1211c.193.1477.239.3571.239.5863h-.6373c-.0716 0-.1846.0223-.239-.035-.0562-.0595-.0282-.1655.0542-.1817.0613-.0119.1321-.0032.1944-.0032h.3855c-.0102-.0496-.0378-.092-.07-.1306-.2215-.2648-.6923-.1035-.6692.2549a.39.39 0 0 0 .1785.3059c.0628.0401.1447.0634.2198.0573a.374.374 0 0 0 .2103-.0828c.0313-.0258.0619-.073.0988-.0892.06-.0267.1703-.0064.2357-.0064-.0204.0722-.0624.1382-.1115.1943-.3093.3543-.923.2174-1.0355-.2453a.61.61 0 0 1-.0127-.2103c.0358-.3132.3003-.5248.583-.5353m2.5395 0c.1387.002.1083.1815.1083.274v.9209h-.223v-.9208c0-.0946-.0284-.276.1147-.274m.752.0032c.1802-.0148.3664.0626.4715.239.077.1295.0701.2659.0701.411v.5417h-.2167v-.5257c0-.0958.0126-.2015-.0318-.29-.1056-.2102-.4072-.2102-.513 0-.0438.087-.0287.1893-.0287.2836v.5321h-.2198v-.5353c0-.1171-.0102-.2364.035-.3473.0768-.1881.253-.2942.4333-.309m-1.9883.0032c.3124-.0083.6149.2353.615.5831 0 .0683-.0064.1325-.0287.1976a.6.6 0 0 1-.1466.2326.59.59 0 0 1-.2804.153c-.0911.0211-.1874.0127-.2804.0127h-.446c0-.2215-.0242-.4593.0064-.6787.0115-.0828.044-.1625.0892-.2326a.58.58 0 0 1 .1657-.1689.58.58 0 0 1 .3058-.0988m.0287.1944c-.022-.0001-.047-.0007-.0701.0032a.37.37 0 0 0-.137.051.41.41 0 0 0-.1179.1115c-.0362.0512-.0615.1068-.0701.1689-.0207.1477-.0064.3065-.0064.4556.1555 0 .339.0264.4907-.0096a.396.396 0 0 0 .188-.1051c.2505-.2505.0535-.6732-.2772-.6755m-.0032.121c.127.0019.2546.0801.2772.2327a.29.29 0 0 1-.0096.1242.28.28 0 0 1-.067.1147.267.267 0 0 1-.1274.0733c-.1108.027-.2372.0067-.3504.0064 0-.1049-.015-.218 0-.3218.0224-.1552.1502-.2312.2772-.2294zm.548 4.7794q.067 0 .1339.0032a2.6 2.6 0 0 1 .1338.0096q.0655.0081.1306.0192a2.8 2.8 0 0 1 .2613.051q.0642.0175.1274.0382.066.019.1307.0414.061.0209.121.0446a3 3 0 0 1 .1211.0574q.0597.0288.118.0605.0613.032.121.067.055.0337.1083.07.0568.0384.1115.0797.0537.04.1052.0828.0519.0402.102.0829.0473.0466.0923.0955a3 3 0 0 1 .0956.0988 3 3 0 0 1 .086.0988q.0429.0531.083.1083a3 3 0 0 1 .0764.1084q.038.0564.0733.1147a3 3 0 0 1 .0637.1147q.0317.0581.0605.1179.0287.063.0542.1274.0255.0616.0478.1243a3 3 0 0 1 .0414.1274q.019.0633.035.1275.016.065.0287.1306.0143.065.0255.1306.0097.0684.016.137.0062.0669.0095.1339v.1056l.0032.0032v.0384a2.75 2.75 0 0 1-.0286.3887 2.75 2.75 0 0 1-.0829.3823 2.75 2.75 0 0 1-.1338.3633 2.74 2.74 0 0 1-.1848.344 2.7 2.7 0 0 1-.2326.3091q-.127.1502-.274.2804a2.7 2.7 0 0 1-.3123.2294 2.7 2.7 0 0 1-.3377.1912 2.7 2.7 0 0 1-.3664.1338 2.7 2.7 0 0 1-.7647.1116 2.7 2.7 0 0 1-.3856-.0287 2.7 2.7 0 0 1-.3791-.0829 2.7 2.7 0 0 1-.3632-.1338 2.7 2.7 0 0 1-.3378-.1912 2.8 2.8 0 0 1-.3123-.2301 2.7 2.7 0 0 1-.274-.2804 2.7 2.7 0 0 1-.2326-.309 2.74 2.74 0 0 1-.1848-.3442 2.75 2.75 0 0 1-.1338-.3632 2.75 2.75 0 0 1-.0829-.3824 2.75 2.75 0 0 1-.0286-.3887 2.75 2.75 0 0 1 .1115-.771 2.75 2.75 0 0 1 .1338-.3665 2.74 2.74 0 0 1 .1848-.341 2.7 2.7 0 0 1 .2326-.3122 2.7 2.7 0 0 1 .274-.2772 2.7 2.7 0 0 1 .3123-.2357 2.7 2.7 0 0 1 .3377-.1848 2.7 2.7 0 0 1 .3632-.137 2.7 2.7 0 0 1 .3792-.0829 2.7 2.7 0 0 1 .3855-.0287zm0 .4493v.0128a2.24 2.24 0 0 0-.3186.0223 2.25 2.25 0 0 0-.3186.0701 2.25 2.25 0 0 0-.2995.1147 2.25 2.25 0 0 0-.2836.153 2.3 2.3 0 0 0-.258.1943 2.3 2.3 0 0 0-.2263.2326 2.3 2.3 0 0 0-.1944.258 2.28 2.28 0 0 0-.2644.5864 2.3 2.3 0 0 0-.0701.3186 2.3 2.3 0 0 0-.0223.325 2.3 2.3 0 0 0 .0223.325q.0238.1602.07.3154c.03.1034.0673.2046.1116.3027q.0662.149.153.2868c.0585.0905.1235.1768.1943.258q.105.1228.2262.2295.1222.1065.2581.1943a2.25 2.25 0 0 0 .2836.1562 2.25 2.25 0 0 0 .2995.1115c.1044.031.2109.0545.3186.07q.1585.0225.3186.0224a2.25 2.25 0 0 0 .3218-.0223 2.26 2.26 0 0 0 .3155-.0701 2.25 2.25 0 0 0 .3027-.1115 2.25 2.25 0 0 0 .2835-.1562 2.26 2.26 0 0 0 .2581-.1943 2.3 2.3 0 0 0 .2263-.2294 2.3 2.3 0 0 0 .1943-.2581 2.3 2.3 0 0 0 .153-.2868 2.3 2.3 0 0 0 .1115-.3027 2.3 2.3 0 0 0 .07-.3154 2.3 2.3 0 0 0 .0224-.325v-.0896l-.0032-.0032v-.032a2 2 0 0 0-.0064-.1115 2.4 2.4 0 0 0-.0128-.1116 2 2 0 0 0-.0223-.1083 2 2 0 0 0-.0223-.1115 2 2 0 0 0-.0318-.1051 2 2 0 0 0-.035-.1084 2 2 0 0 0-.0383-.102 2.3 2.3 0 0 0-.0446-.105 2 2 0 0 0-.051-.0989 2 2 0 0 0-.0542-.0955 2 2 0 0 0-.0605-.0924 2 2 0 0 0-.0637-.0924 2 2 0 0 0-.067-.0893 2 2 0 0 0-.07-.0828 2 2 0 0 0-.0797-.0828 2 2 0 0 0-.0797-.0765 2 2 0 0 0-.0828-.0733 2 2 0 0 0-.0892-.0669 2 2 0 0 0-.0892-.067 2 2 0 0 0-.0924-.0573 2 2 0 0 0-.0988-.0573 2 2 0 0 0-.0988-.0478 2 2 0 0 0-.102-.0478 2 2 0 0 0-.1019-.0382 2 2 0 0 0-.1051-.035 2 2 0 0 0-.1084-.032 2 2 0 0 0-.1083-.0222 2 2 0 0 0-.1083-.0191 2 2 0 0 0-.1084-.016 2 2 0 0 0-.1115-.0064 2.3 2.3 0 0 0-.1115-.0032z"/></svg>