<svg xmlns="http://www.w3.org/2000/svg" viewBox="0 0 24 24"><path fill="#44739e" d="M9.17 9.711a6.089 6.089 0 0 0-4.663-3.665 3.617 3.617 0 0 0-2.643.997 3.533 3.533 0 0 0-.86 2.493l1.388 7.237a6.349 6.349 0 0 0 4.592 3.863c1.903.372 3.619-1.021 3.619-3.711 0 0-1.103-6.445-1.433-7.214m-6.356-1.99a2.984 2.984 0 0 1 1.299-.557h.06c.774-.067 1.982.21 2.111.809a.592.592 0 0 1-.176.558c-.325.261-.747-.232-1.531-.21-.895.021-1.3.68-1.763.418a.627.627 0 0 1-.318-.513.666.666 0 0 1 .318-.505m3.721 10.895a1.494 1.494 0 0 1-1.195-1.204c-.135-.653.208-1.156.769-1.114a1.503 1.503 0 0 1 1.196 1.273c.1.617-.244 1.078-.77 1.04Zm.621-4.188a1.897 1.897 0 0 1-1.426.613c-.053 0-.108 0-.162-.005a3.639 3.639 0 0 1-2.984-2.908 2.552 2.552 0 0 1 .463-2.248 1.912 1.912 0 0 1 1.638-.628 3.68 3.68 0 0 1 2.989 3.066 2.498 2.498 0 0 1-.518 2.11m-2.531-4.394h-.126a1.101 1.101 0 0 0-.857.369 1.788 1.788 0 0 0-.289 1.565 2.863 2.863 0 0 0 2.277 2.28 1.128 1.128 0 0 0 .951-.353 1.724 1.724 0 0 0 .321-1.452 2.891 2.891 0 0 0-2.277-2.409m.709 3.266a1.496 1.496 0 0 1-1.194-1.204c-.137-.655.207-1.157.767-1.114a1.503 1.503 0 0 1 1.197 1.272c.105.622-.242 1.084-.77 1.046m12.67-6.986a5.744 5.744 0 0 1 4.973 6.204 4.552 4.552 0 0 1-6.5 4.108s.979-1.017.887-1.81c-.014-.126 2.23-.876 1.571-3.129-.557-1.904-1.207-2.066-1.734-2.378-.232-.139-.55-.013-.765-.153l-.65-2.342c.464-.572 1.901-.536 2.218-.5M7.876 3.847 3.811 5.722h.009c4.956-1.184 6.658 4.344 6.788 4.986L11.489 15c.557 3.34-.371 3.989-.371 3.989L9.73 20.064a59.4 59.4 0 0 0 5.961-3.139 4.577 4.577 0 0 0 1.09-4.129l-1.186-4.755c-.809-3.247-2.396-4.9-5.588-4.724a5.84 5.84 0 0 0-2.131.53"/></svg>