<svg xmlns="http://www.w3.org/2000/svg" fill="#44739e" viewBox="0 0 24 24"><path d="m6.837 14.473-.4-1.086a1.4 1.4 0 0 0-.8-.833l-.313-.089h-.015L3.9 12.216a.383.383 0 0 0-.4.507l.993 2.841a1.411 1.411 0 0 0 1 .905l1.466.359a.547.547 0 0 0 .646-.714l-.6-1.7zm-.413 1.11a.476.476 0 0 1-.356.169.6.6 0 0 1-.074 0c-.5-.038-1.148-.668-1.5-1.464a1.44 1.44 0 0 1-.1-1.311.46.46 0 0 1 .354-.2c.5-.042 1.188.578 1.579 1.414.273.596.314 1.13.097 1.392M4.78 13.012h-.012a.189.189 0 0 0-.148.087 1.285 1.285 0 0 0 .121 1.1c.337.755.933 1.29 1.278 1.316a.2.2 0 0 0 .189-.07c.13-.157.139-.577-.133-1.161-.361-.775-.967-1.284-1.295-1.272m.859 1.836c-.185-.023-.43-.3-.552-.609s-.085-.555.083-.563.436.254.574.59.091.605-.105.582m7.989-5.461A1.921 1.921 0 0 0 12.052 8l-2.964-.128-6.073 3.341 2.371.33a2.369 2.369 0 0 1 1.914 1.58l1.289 3.765a.53.53 0 0 1 0 .3c-.057.093-.2.176-.188.2a31.1 31.1 0 0 1-3.774-.921 3.3 3.3 0 0 1-.585-1.328L3.366 13.1a2.85 2.85 0 0 1-.205-.909.593.593 0 0 1 .075-.311q.012-.019.024-.036c.763.087 1.832.314 2.238.381 1.017.168 1.471 2.036 1.471 2.036.328-.127.242-.138.286-.187l-.4-1.1a2.408 2.408 0 0 0-1.279-1.186s-1.564-.283-3.152-.454a.475.475 0 0 0-.412.563l.4 1.489h.185l.432-.16c.232.713.9 2.429 1.2 3.214a.862.862 0 0 0 .579.519 15.1 15.1 0 0 0 3.623.681s.18-.056.2-.18a.41.41 0 0 0 .114-.075l.332-.192 4.972-2.91a1.2 1.2 0 0 0 .46-1.469zm2.472-1.28a2.068 2.068 0 0 0-1.964-1.555l-1.857-.036a2.13 2.13 0 0 0-.979.219l-1.634.834c-.017.009.052.044.072.044l2.274.057a2.245 2.245 0 0 1 2.017 1.677L14.892 13a1.037 1.037 0 0 1-.142.736c0 .007.914-.586.921-.58l1.061-.746a.679.679 0 0 0 .285-.735zm2.915 2.366c-.038 0 .173.548.515.457a1.314 1.314 0 0 0 .913-1.154 1.763 1.763 0 0 0-.888-1.932s-.34-.111-.631.368l-2.324.231h-.061a16.75 16.75 0 0 1 .523 2.24v.018l1.7-.2zm.724-4.13a2.034 2.034 0 0 0-1.553.549 2.95 2.95 0 0 0-.8 1.274l1.425-.072c.071-.136.186-.408.379-.475a.825.825 0 0 1 1.053.386 1.83 1.83 0 0 1 .217.334 2.472 2.472 0 0 1-.1 2.428.958.958 0 0 1-.679.474.68.68 0 0 1-.344-.061 1.1 1.1 0 0 1-.235-.12.814.814 0 0 1-.273-.3l-.02-.038-1.328.158a3.01 3.01 0 0 0 .718 1.059 2.1 2.1 0 0 0 1.425.585c.056 0 .113 0 .17-.007 1.286-.115 2.254-1.507 2.2-3.17a2.881 2.881 0 0 0-2.255-3.004m-3.387 1.995c-.027-.062 0 .026 0 .025z"/></svg>