<svg xmlns="http://www.w3.org/2000/svg" viewBox="0 0 24 24"><path fill="#44739e" d="M10.701 17.672a.716.716 0 0 0 0-1.411.716.716 0 0 0 0 1.411m0-1.174a.487.487 0 0 1 0 .939.487.487 0 0 1 0-.939m-2.438 1.129a.716.716 0 0 0 0-1.411.716.716 0 0 0 0 1.411m0-1.174a.486.486 0 0 1 0 .937.486.486 0 0 1 0-.937m2.141-1.854c.133 0 .241-.149.241-.329s-.11-.33-.241-.33-.24.149-.24.33.107.329.24.329m-1.456.017c.133 0 .241-.15.241-.33s-.11-.33-.241-.33-.241.15-.241.33.106.33.241.33m-2.993-3.387c.054 1.306.126 2.926.184 4.205.073-.887.168-1.925.288-2.858a.682.682 0 0 1 .204-.426 3.49 3.49 0 0 1 1.952-.525h.103c2.595.033 3.98.088 4.64.916a3.252 3.252 0 0 1 .396 2.693 14.3 14.3 0 0 0-.129 2.293c.083 2.28.89 3.587 2.213 3.587a1.189 1.189 0 0 0 .924-.433c.785-.872 1.106-2.988.903-5.96a9.12 9.12 0 0 1 .268-2.606 8.6 8.6 0 0 0 .155-.851c-5.359-.198-10.162-.211-12.101-.035m2.798 3.783h1.846a.679.679 0 0 0 .669-.691v-.035a.677.677 0 0 0-.67-.685h-.008l-1.847.029a.691.691 0 0 0 .011 1.382Zm1.649-1.216c.242 0 .383.18.386.469s-.099.475-.385.475c-.169 0-.387-.062-.387-.498a.403.403 0 0 1 .387-.446Zm-1.457 0c.3 0 .411.251.397.549a.403.403 0 0 1-.395.426c-.264 0-.412-.22-.409-.499a.481.481 0 0 1 .408-.476Zm-2.084 2.343v1.704a.578.578 0 0 0 .55.587l4.494.11a.578.578 0 0 0 .581-.573v-.018l-.012-1.805a.577.577 0 0 0-.566-.584l-4.483-.008a.578.578 0 0 0-.564.587m3.84-.137a.977.977 0 0 1 0 1.93.977.977 0 0 1 0-1.93m-2.438-.046a.977.977 0 0 1 0 1.929.977.977 0 0 1 0-1.929m7.539 5.478c-1.509 0-2.425-1.416-2.514-3.886a14.6 14.6 0 0 1 .132-2.343c.125-1.072.207-1.78-.33-2.457s-1.789-.763-3.923-.797l-.487-.006c-1.911-.025-1.954.644-1.954.65v.021c-.141 1.082-.246 2.317-.323 3.288-.023.297-.043.57-.06.805s-.035.446-.047.601A5.867 5.867 0 0 0 12.099 23a5.73 5.73 0 0 0 3.958-1.586 1.5 1.5 0 0 1-.252.021Zm-6.07-.237c-1.831 0-3.315-1.822-3.315-4.067s1.484-4.068 3.315-4.068 3.315 1.823 3.315 4.068-1.486 4.067-3.315 4.067m9.452-10.38-.298-6.33A47.54 47.54 0 0 0 4.926 4.4l-.11 6.417a133.9 133.9 0 0 1 14.368 0m-.337-6.953s.016-.88-.014-.962a2.616 2.616 0 0 0-1.726-1.335 8 8 0 0 0-.24-.076 18.53 18.53 0 0 0-5.25-.463c-2.681.066-5.89.126-6.553 1.583a5.8 5.8 0 0 0-.143 1.099c5.148-.916 11.327-.616 13.926.154m-8.246 14.999-1.833-.028a.72.72 0 0 0-.036 1.437l1.832.068a.704.704 0 0 0 .72-.688v-.056a.708.708 0 0 0-.683-.733m-1.659 1.301a.578.578 0 1 1 .53-.581.55.55 0 0 1-.53.581m1.859-.432a.5.5 0 0 1-.015.08.512.512 0 0 1-1.006-.081.55.55 0 0 1-.02-.11.55.55 0 0 1 .016-.084l.005-.031a.512.512 0 0 1 1.019-.007v.01a.66.66 0 0 1 .021.11.63.63 0 0 1-.02.113"/></svg>