<svg xmlns="http://www.w3.org/2000/svg" fill="#44739e" viewBox="0 0 24 24"><path d="M9.409 17.22c.544.037.814-.432.6-1.017A1.525 1.525 0 0 0 8.775 15.2c-.478-.014-.747.386-.6.919a1.544 1.544 0 0 0 1.234 1.101m-2.545-1.241a3.8 3.8 0 0 0 3.065 2.7c1.348.09 2.019-1.056 1.5-2.486a3.766 3.766 0 0 0-3.07-2.46c-1.183-.033-1.851.945-1.495 2.246m1.6-1.638a2.922 2.922 0 0 1 2.4 1.856c.406 1.08-.117 1.944-1.169 1.876A2.935 2.935 0 0 1 7.3 16.035c-.281-.981.24-1.72 1.163-1.694zm6.317 3.951.284-.199.751-.567.369-.312.368-.425.326-.581.17-.327.128-.354.184-1.134.114-.425.071-.142.042-.333-1.614-.078.012.69.014.444.163.168.064.725-.064.61-.205.765-.27.525-.453.397zM4.332 12.748l.312.553c.094-.015.191-.03.291-.044.3 3.563 2.534 7.114 7.157 7.01a6.68 6.68 0 0 0 6.879-7.054c.161.019.319.039.475.06l.227-.539c-1.688-.723-13.526-.709-15.341.014m14.319.429a6.672 6.672 0 0 1-6.495 6.854c-2.4.1-6.322-1.02-6.824-6.828.547-.069 1.156-.129 1.81-.179a1.2 1.2 0 0 0-.725.493l-.552.025c.149 3.029 1.23 4.81 3.51 5.6a5.71 5.71 0 0 0 2.884.271c2.377-.225 3.185-2.679 3.346-3.346a1.454 1.454 0 0 0-.085-1.092c-.078-.119-.129-.131-.213-.241-.336-.44.163-1.024.128-1.24-.084 0-.538-.1-5.028-.145-.052 0-1.245-.36-1.738-.416a69.2 69.2 0 0 1 9.982.244m-10.427.065A4.6 4.6 0 0 1 12 16.135c.639 1.681-.186 3.029-1.846 2.923a4.1 4.1 0 0 1-1.44-.481 3.7 3.7 0 0 1-.583-.375 4.554 4.554 0 0 1-1.685-2.64c-.27-1.395.408-2.362 1.778-2.32m-6.21-8.099a23.3 23.3 0 0 0 .106 3.245c.3 1.844.547 3.947 1.461 3.793 3.785-.638 12.405-.865 16.843.1C21.835 12.587 22 5.012 22 5.012 19.246 3.22 4.614 3.349 2.014 5.143"/></svg>