<svg xmlns="http://www.w3.org/2000/svg" fill="#44739e" viewBox="0 0 24 24"><path d="M17.571 16.885a1.225 1.225 0 0 0-.956-.411 1.5 1.5 0 0 0-.777.208 1.587 1.587 0 0 0-.663.956 1.5 1.5 0 0 0-.039.354 1.194 1.194 0 0 0 .707 1.152 1.47 1.47 0 0 0 .56.1 1.312 1.312 0 0 0 1.117-.5c.046-.061.088-.122.129-.188l-.606-.3a1.07 1.07 0 0 1-.13.184.676.676 0 0 1-.488.2.537.537 0 0 1-.536-.636h1.905c0-.113.019-.227.019-.345a1.44 1.44 0 0 0-.051-.4.98.98 0 0 0-.191-.374M16 17.516a.89.89 0 0 1 .237-.35.567.567 0 0 1 .384-.147.49.49 0 0 1 .281.076.48.48 0 0 1 .188.223.73.73 0 0 1 .025.2zm-8.736.924a.67.67 0 0 1-.223.151.68.68 0 0 1-.266.052.511.511 0 0 1-.531-.4.5.5 0 0 1 0-.238h1.898c0-.113.022-.227.022-.345a1.44 1.44 0 0 0-.052-.4 1.03 1.03 0 0 0-.19-.374 1.225 1.225 0 0 0-.956-.411 1.505 1.505 0 0 0-.78.208 1.585 1.585 0 0 0-.66.956 1.4 1.4 0 0 0-.042.354 1.194 1.194 0 0 0 .707 1.152 1.48 1.48 0 0 0 .562.1 1.32 1.32 0 0 0 1.13-.5c.044-.061.085-.122.127-.188l-.616-.3a1.13 1.13 0 0 1-.13.183m-.679-1.274a.577.577 0 0 1 .386-.147.49.49 0 0 1 .281.076.48.48 0 0 1 .188.223.77.77 0 0 1 .025.2H6.347a.885.885 0 0 1 .238-.352m13.504-.34a.93.93 0 0 0-.168-.181.984.984 0 0 0-.565-.171 1.283 1.283 0 0 0-1.093.641 1.98 1.98 0 0 0-.293 1.021 1.081 1.081 0 0 0 .369.9.84.84 0 0 0 .562.2 1.03 1.03 0 0 0 .575-.166l.122-.086-.037.181h.79l.8-3.559h-.785zm-.4 1.526a.6.6 0 0 1-.217.215.6.6 0 0 1-.294.08.36.36 0 0 1-.2-.037.356.356 0 0 1-.146-.134.587.587 0 0 1-.088-.349 1.16 1.16 0 0 1 .415-.939.485.485 0 0 1 .274-.095.415.415 0 0 1 .267.073.426.426 0 0 1 .161.225.6.6 0 0 1 .032.227 1.53 1.53 0 0 1-.207.734zm-5.609-2.751-1.105 2.34-.061-2.342h-1.318l-.799 3.569h.833l.612-2.799.1 2.799h.748l1.335-2.76-.638 2.76h.828l.805-3.567zm-3.692 2.168a.89.89 0 0 0-.361-.175c-.108-.039-.213-.069-.325-.1-.228-.059-.409-.132-.409-.245s.115-.2.333-.2a.755.755 0 0 1 .489.166 1.1 1.1 0 0 1 .144.184l.587-.284a1.6 1.6 0 0 0-.146-.215 1.3 1.3 0 0 0-1.071-.418 1.155 1.155 0 0 0-1.041.449.687.687 0 0 0-.118.374.67.67 0 0 0 .1.343c.159.244.379.327.892.489.184.056.294.085.355.171a.17.17 0 0 1 .029.09.2.2 0 0 1-.029.1.258.258 0 0 1-.142.095.92.92 0 0 1-.244.042.725.725 0 0 1-.316-.058.73.73 0 0 1-.261-.186.97.97 0 0 1-.1-.152l-.652.325a1.07 1.07 0 0 0 .161.245 1.419 1.419 0 0 0 1.107.457 1.473 1.473 0 0 0 1.02-.34.84.84 0 0 0 .276-.592.72.72 0 0 0-.034-.244.9.9 0 0 0-.244-.321m-4.95-.534a1.23 1.23 0 0 0 .139-.6.95.95 0 0 0-.089-.47.964.964 0 0 0-.3-.369 1.13 1.13 0 0 0-.565-.19H2.825l-.81 3.562H2.9l.294-1.274h.621l.464 1.274h.978l-.577-1.4a1.76 1.76 0 0 0 .514-.244 1 1 0 0 0 .244-.289m-.821-.272a.48.48 0 0 1-.138.161.485.485 0 0 1-.2.084 1.4 1.4 0 0 1-.193.022h-.741l.223-.978h.611c.252 0 .357.041.45.159h-.01a.37.37 0 0 1 .086.247.607.607 0 0 1-.088.305m7.305-8.508a.257.257 0 1 0 .244-.269.257.257 0 0 0-.244.269m-.455-.781a.281.281 0 0 0 .189.252.28.28 0 0 0 .164.008.285.285 0 0 0 .187-.4.285.285 0 0 0-.271-.162.29.29 0 0 0-.108.027.3.3 0 0 0-.089.066.28.28 0 0 0-.056.1.27.27 0 0 0-.016.109m-.251-.474a.315.315 0 1 0-.33-.3.315.315 0 0 0 .33.3m-.698-.711a.352.352 0 1 0-.368-.335.353.353 0 0 0 .368.335m-.902-.579a.391.391 0 1 0-.409-.372.391.391 0 0 0 .409.372M8.5 5.6a.432.432 0 1 0-.453-.411.433.433 0 0 0 .453.411m-1.26.136a.482.482 0 1 0-.5-.458.48.48 0 0 0 .5.458m-1.268.558a.536.536 0 1 0-.56-.51.536.536 0 0 0 .56.51m-1.183.947a.594.594 0 1 0-.622-.565.594.594 0 0 0 .622.565M3.725 8.513a.66.66 0 1 0-.69-.628.658.658 0 0 0 .69.628m-.966 1.568a.743.743 0 1 0-.744-.743.743.743 0 0 0 .744.743m9.505-.86a.245.245 0 1 0 .244-.245.245.245 0 0 0-.244.245m.384.599a.27.27 0 0 0-.052.087.27.27 0 0 0-.015.1.267.267 0 0 0 .084.178.27.27 0 0 0 .086.052.28.28 0 0 0 .1.015.256.256 0 0 0 .16-.447.257.257 0 0 0-.185-.067.235.235 0 0 0-.1.024.25.25 0 0 0-.078.058m.34.916a.287.287 0 0 0 .024.163.28.28 0 0 0 .11.122.28.28 0 0 0 .159.041.283.283 0 0 0 .2-.093.282.282 0 0 0 .018-.36.286.286 0 0 0-.132-.1.284.284 0 0 0-.377.225zm.545.956a.316.316 0 0 0 .3.181.33.33 0 0 0 .12-.029.34.34 0 0 0 .1-.073.32.32 0 0 0 .064-.106.317.317 0 0 0-.043-.294.333.333 0 0 0-.147-.11.32.32 0 0 0-.183-.009.317.317 0 0 0-.236.259.32.32 0 0 0 .025.181m1 .96a.352.352 0 1 0-.368-.334.352.352 0 0 0 .368.334m.683.601a.391.391 0 0 0 .592-.353.385.385 0 0 0-.075-.214.39.39 0 0 0-.182-.136.383.383 0 0 0-.227-.012.4.4 0 0 0-.2.116.39.39 0 0 0-.1.206.385.385 0 0 0 .033.224.4.4 0 0 0 .159.169m1.098.385a.443.443 0 0 0 .41.021.42.42 0 0 0 .136-.1.44.44 0 0 0 .088-.145.446.446 0 0 0-.06-.407.437.437 0 0 0-.456-.164.435.435 0 0 0-.325.359.434.434 0 0 0 .207.437zm1.967-.476a.482.482 0 1 0-.458.5.481.481 0 0 0 .458-.5m.526-.025a.535.535 0 0 0 .706-.777.54.54 0 0 0-.249-.186.539.539 0 0 0-.578.144.54.54 0 0 0-.133.281.533.533 0 0 0 .254.538m1.144-.837a.594.594 0 1 0 .508-1.067.6.6 0 0 0-.64.159.595.595 0 0 0 .132.908m1.342-2.375a.66.66 0 1 0 .691.628.661.661 0 0 0-.691-.628"/></svg>