<svg xmlns="http://www.w3.org/2000/svg" viewBox="0 0 24 24"><path fill="#44739e" d="M3.378 4.628v1.188c0 1.455.394 2.381 1.213 2.805a4 4 0 0 0 3.093-.167l.541-.333.652.349a3.175 3.175 0 0 0 1.622.334 2.713 2.713 0 0 0 2.502-1.258l.379-.561v1.711a6.84 6.84 0 0 0 .107 1.699 8.9 8.9 0 0 0 1.121-1l1.001-1.002.466.243a2.833 2.833 0 0 0 3.079-.606 3.735 3.735 0 0 0 .758-3.214 3.35 3.35 0 0 0-2.82-2.306 2.97 2.97 0 0 0-1.032.289c-.439.227-.56.242-.56.076s-.259-.212-1.062-.212h-1.062v1.746l-.333-.485a3.586 3.586 0 0 0-2.168-1.335 2.843 2.843 0 0 0-2.678 1.002l-.727.742v-1.67H5.664l-.042-.829L5.576 1l-1.82 1.814-1.818 1.814Zm12.933-.03a1.048 1.048 0 0 1 1.165.455.997.997 0 0 1-.077 1.471 1.018 1.018 0 0 1-1.501.06 1.164 1.164 0 0 1 .413-1.982Zm-6.636.258a1.096 1.096 0 0 1 1.895.834.941.941 0 0 1-.394.894 1.467 1.467 0 0 1-.743.319 1.186 1.186 0 0 1-.763-2.042Zm-4.023-.228h1.747l-.046.971c-.046.909-.077.985-.501 1.164a.916.916 0 0 1-.815.016c-.349-.168-.379-.259-.379-1.165Zm15.829 10.953a2.949 2.949 0 0 0-.758-4.018 2.95 2.95 0 1 0-3.376 4.836 2.532 2.532 0 0 0 1.562.466 2.644 2.644 0 0 0 2.572-1.284m-4.533-1.319a2.364 2.364 0 0 1 1.137-2.23 2.096 2.096 0 1 1-1.137 2.23m-6.14 3.714h.985c.956 0 .986-.015.986-.378s0-.38-1.442-.38h-1.44l.03 2.835.045 2.855 1.41.047 1.397.045v-.93h-1.971v-1.668h.985c.956 0 .986-.015.986-.379s-.03-.379-.986-.379h-.985ZM6.41 11.911h1.138c1.106 0 1.136-.015 1.136-.378v-.385H5.501v5.589l.954.061c.516.015 1.229.015 1.593-.016.56-.045.652-.09.606-.378s-.152-.319-1.137-.364l-1.107-.046v-1.657h1.138c1.106 0 1.136-.015 1.136-.379s-.03-.379-1.136-.379H6.41Zm2.366 5.534c-.758-.318-2.775-.303-2.852.015-.03.138-.423-.272-1-1.091-1.107-1.513-1.213-1.729-.879-1.729a1.44 1.44 0 0 0 .699-.424 1.76 1.76 0 0 0-.305-2.835 4.13 4.13 0 0 0-1.668-.233H1.558v5.61h.38c.363 0 .378-.03.378-1.136a2.63 2.63 0 0 1 .117-1.138c.06.015.88 1.077 1.819 2.365l1.714 2.366-.046 1.228-.046 1.229-1.662-2.226c-1.546-2.077-1.699-2.228-2.158-2.228h-.5v2.729c0 1.501-.016 2.775-.031 2.835s.137.136.38.168c.409.045.409.045.409-.85v-.909l1.047-.016 1.061-.015.699.91c.582.743.788.91 1.137.91h.44l.046-1.319.048-1.315.909 1.274c.788 1.106.985 1.288 1.41 1.335.274.03.485 0 .485-.062a8.3 8.3 0 0 0-.682-1.061c-.758-1.048-.788-1.122-.455-1.122.41 0 1.137-.804 1.228-1.365a1.73 1.73 0 0 0-.909-1.9m-5.989-4.033a2.364 2.364 0 0 1-.466-1.076c0-.41.03-.425.758-.425.895 0 1.364.364 1.364 1.032a.95.95 0 0 1-.788 1.015c-.353.091-.475.015-.868-.546m.302 6.986h-.773v-2.043l.304.379c.167.213.5.667.758 1.016l.466.652Zm4.852-.304c-.393 0-1.227-1.152-1.227-1.698 0-.394.03-.425.667-.425.849 0 1.455.44 1.455 1.077a1.094 1.094 0 0 1-.895 1.05Zm8.492-2.876-.046 1.926-.045 1.941-1.153-1.896c-1.048-1.714-1.198-1.895-1.637-1.941l-.466-.045v5.792l.41-.045.394-.047-.015-2.047c-.016-1.257.015-1.986.105-1.894s.652 1 1.259 2.047c.956 1.607 1.183 1.894 1.531 1.941l.41.045v-5.777h-.743Zm-6.383-.455h.758v-4.837l.575-.045c.455-.031.576-.106.606-.394.046-.334.016-.334-1.47-.334H8.988v.38c0 .333.06.378.531.378h.531Zm3.032-2.426a10.25 10.25 0 0 1 .909 1.214c.758 1.091.88 1.212 1.334 1.212.561 0 .582.015-.302-1.152-.652-.88-.683-.971-.289-.971s1.048-.637 1.164-1.136a2.152 2.152 0 0 0-.466-1.881c-.349-.364-.514-.394-1.818-.44l-1.441-.06v2.794a27.7 27.7 0 0 0 .076 2.881.77.77 0 0 0 .466 0c.379-.076.379-.091.334-1.258a4.3 4.3 0 0 1 .033-1.203m.667-2.426c.864 0 1.349.38 1.349 1.062a1.071 1.071 0 0 1-.955 1.061c-.379 0-1.061-1.061-1.061-1.638 0-.47.015-.485.667-.485m6.868 8.097c-1.82-2.624-1.895-2.714-2.445-2.76l-.546-.045.03 2.85.046 2.85h.378c.349 0 .38-.06.425-.879l.045-.879.94.046.941.045.591.864c.5.728.683.88 1.031.88.233 0 .425-.062.425-.122s-.844-1.347-1.861-2.85m-1.364.394h-.713v-2.035l.466.758a8.2 8.2 0 0 0 .712 1c.217.262.187.277-.465.277"/></svg>