<svg xmlns="http://www.w3.org/2000/svg" viewBox="0 0 24 24"><path fill="#44739e" d="M6.034 9.795h-.033c-.033-.286.485-.385.639-.583.319-.485-.429-.76-.782-.485-.132.066 0 .154.11.154a.535.535 0 0 1 .496 0c.187.165.121.231-.187.397s-.496.33-.397.649a3.93 3.93 0 0 0 .804 0 .08.08 0 0 0 .026-.026.077.077 0 0 0-.026-.11Zm14.358 1.96c-.121-.011-.121.176 0 .176a.088.088 0 1 0 0-.176M9.712 9.046l.319-.242c.056-.12-.12-.213-.12-.213s-.8-.086-.822.09.594.122.706.122l-.387.231c-.231.243.343.144.42.243.374.308-.343.473-.53.407s-.396.022-.187.121c.766.265 1.701-.444.601-.759m11.021 3.204a1.1 1.1 0 0 0 .088-.605l-.429-.188-.43.188a1.1 1.1 0 0 0 .088.605.597.597 0 0 1 .683 0m-.341-.627a.22.22 0 0 1 0 .429c-.275.011-.275-.429 0-.429m-10.912.176c.055-.121.54-.419.419-.474s-.165 0-.286.1c-.595.374-.892 1.222 0 1.233s.693-1.09-.133-.859m.133.66c-.485.033-.485-.495 0-.495.506-.044.484.462 0 .495m-3.017 2.323c.55-.209.187-.55-.253-.594s-.804.374-.243.594h-.039c-.616.211-.275.706.287.761s.842-.539.248-.761m-.253-.44c.308-.011.374.231 0 .341-.364-.099-.309-.33 0-.341m-.021.55c.178.044.342.11.395.268-.106.455-1.358.031-.395-.27Zm-.144-3.104v-.242h-.045c.1-.011.573.011.716-.011.297-.276-.572-.188-.682-.188-.287-.033-.22.309-.232.463s.055.154.176.154c.936-.033.672.55-.165.55-.121.066-.044.144.11.144 1.002.066 1.223-.958.122-.87m3.073 2.523c-.462.374.11.848.573.716H9.79c-.077.11-.529.319-.408.385a.252.252 0 0 0 .231.025l.099-.025c.957-.661.529-1.554-.461-1.101m.412.517c-.484.044-.411-.467-.065-.495.484-.043.547.449.062.493Zm10.729-2.277a.583.583 0 0 0 .275-.198.583.583 0 0 0-.55 0 .57.57 0 0 0 .275.198M12.48 7.432c0 .11.259.117.248.007v-.98a.65.65 0 0 0-1.204-.21 7.5 7.5 0 0 0-.012 1.161c0 .11.247.117.236.007v-.958a.363.363 0 0 1 .725-.007ZM9.315 18.196h.22l.854-1.108-.336.007-.616.873-.077-.233h-.279l.124.274ZM2.72 8.65c-.099.044-.364.22-.452.275s.011.144.088.144a1.6 1.6 0 0 0 .375-.21v.969c-.022.088.209.099.209.088V8.782c0-.044.066-.132 0-.132a.495.495 0 0 0-.22 0m.693-.947a1.31 1.31 0 1 0 0-2.62 1.31 1.31 0 0 0 0 2.62m.022-2.302a.99.99 0 0 1-.022 1.971.99.99 0 0 1 .022-1.971m3.37 12.487a1.32 1.32 0 0 0-.132-.87c-.207-.295-.914-.154-.914.276 0 0-.088.748.132.869.254.176.94.154.914-.275m-.735-.749c.076-.104.293-.066.416 0s.066.639.066.749a.186.186 0 0 1-.066.154c-.132.088-.457.077-.482-.154 0 0-.108-.691.066-.749m5.973-3.629.024-2.818V7.954l-3.533-.008-3.535.033H1.487v2.719l.026 2.807h.122-.122l-.026 2.775v1.54a1.307 1.307 0 0 0 .297.837 1.235 1.235 0 0 0 .969.451h5.781l3.564.021-.03-2.895Zm-6.658-2.499h2.807v2.2H5.385Zm2.807 2.774v2.2H5.385v-2.2Zm.65 2.147v-2.2h2.851v2.2Zm.011-2.719v-2.2h2.851v2.2Zm.055-4.922h2.851v2.2H8.908Zm-3.52-.011h2.86v2.2h-2.86Zm-3.567.033h2.848v2.2H1.817Zm2.848 2.698v2.2H1.817v-2.2Zm0 2.774v2.2H1.817v-2.2Zm.055 4.988h-1.98a1.067 1.067 0 0 1-.717-.364c-.363-.418-.154-1.354-.209-1.838h2.906Zm3.52.022h-2.86v-2.2h2.86Zm.276-2.521v-.033h.011v.033Zm3.19 2.521H8.864v-2.2h2.851Zm5.687-7.304a2.2 2.2 0 1 0-.033 4.4h.033a2.2 2.2 0 1 0 0-4.4m-14.416.88a.75.75 0 0 0 0 .232.189.189 0 0 0 .198 0v-.243h.187a.086.086 0 0 0 .055-.051.088.088 0 0 0-.052-.11h-.187a1.65 1.65 0 0 0 0-.231.165.165 0 0 0-.198 0v.231h-.443a8.8 8.8 0 0 0 .485-.77c-.033-.134-.198-.11-.253 0a7.7 7.7 0 0 0-.496.792c-.053.238.454.15.704.15m10.936-.011a.65.65 0 0 0 .319.243.667.667 0 0 0 .309-.243l.055-.088c.011-.242-.738-.242-.738 0Zm.319-.359a.187.187 0 1 0 0-.374.187.187 0 1 0 0 .374M3.182 14.43l-.022.077a2.09 2.09 0 0 0-.584.871c-.033.154.22.165.22.154v-.154c-.044-.352.473-.66.583-.816s.011-.341-.143-.308-1.233-.11-.925.176a7.7 7.7 0 0 0 .871 0m-.771 3.821.306-.326.3.326h.275l-.458-.479.447-.489h-.286l-.286.33.047.075-.334-.372h-.286l.441.46-.496.475Zm17.981-5.979c.01 0 .019.008.03.009s.023-.01.036-.009ZM14.06 7.318c.055.363-.176.705-.572.572a.31.31 0 0 1-.143-.099c-.055-.099-.21 0-.143.099a.594.594 0 0 0 1.1-.363v-1.1a.668.668 0 0 0-1.223-.22c-.085.033-.119.467-.086.698a.647.647 0 0 0 1.067.413m.008-.922v.493a.44.44 0 0 1-.858 0v-.464a.44.44 0 0 1 .858-.029m-3.18 1.055c0 .11.266.099.255-.012V5.997c0-.121-.261-.11-.261 0Zm-.873-.039v-.964c-.055-.33.22-.473.465-.25.056.065.18-.054.173-.139a.097.097 0 0 0 0-.066.528.528 0 0 0-.88.45v.969c.005.11.248.11.242 0m.996-2.077c-.176.035-.22.279 0 .309a.155.155 0 0 0 0-.309m9.116 2.368a1.32 1.32 0 1 0 0-2.64 1.32 1.32 0 0 0 0 2.64m0-2.31h.033a.99.99 0 1 1-.033 0m2.467-.772c-.276-.309-1.024-.309-1.167-.309-.727 0-9.451-.018-9.451-.018l-9.394-.031a2.62 2.62 0 0 0-1.183.534 1.97 1.97 0 0 0-.398 1.255V18.24a1.817 1.817 0 0 0 .407 1.1 1.412 1.412 0 0 0 .925.309c8.17.088 12.772.088 15.414.088 3.833-.121 5.253.484 5.253-1.828V5.986c.001-.925-.131-1.057-.406-1.365m.132 13.32a1.51 1.51 0 0 1-.275 1.1 1.22 1.22 0 0 1-.738.319c-.716.088-1.156.132-19.434 0a1.1 1.1 0 0 1-.726-.242 1.58 1.58 0 0 1-.32-.937V6.074a1.72 1.72 0 0 1 .32-1.1 2.33 2.33 0 0 1 .96-.46l7.465.018h11.063c1.013.077 1.685.097 1.685 1.408 0 2.93-.055 10.44 0 12.001M20.141 5.876l-.011.011s.001-.009.011-.011m0 .914c.086.01.102-.168 0-.181-.086.013-.088.17 0 .181m-.08-.518c0 .176 0 .231.088.275s.078-.297.1-.396.031-.249-.119-.263c-.148.07-.069.215-.069.384m-.715.584a.089.089 0 0 0 .046.11h1.519c.165-.099-.055-.265-.198-.606s-.297-.572-.352-.693-.099-.254-.242-.265l.01-.022c-.143.121-.077.132-.44.793-.145.286-.266.506-.343.683m.792-1.355.199.375.506.98h-1.398Zm-.011 1.101s0 .006.006.007v-.007Zm-16.758-.22h-.044c-.121 0-.407.198-.22.308.154-.066.253-.264.484 0 0 .066.158-.044.147-.044a.33.33 0 0 0-.367-.264m-.044-.33c-.143 0-.649.264-.396.396.176-.099.231-.253.528-.209s.312.258.398.198c.202-.145-.321-.429-.486-.385Zm-.528.154a.75.75 0 0 1 .594-.297 1.086 1.086 0 0 1 .629.297.065.065 0 0 0 .069-.062.08.08 0 0 0 0-.026.815.815 0 0 0-.727-.396h-.033c-.165 0-.77.264-.594.484a.065.065 0 0 0 .062 0m.583.473h-.055c-.176.067-.132.408.066.375s.209-.452-.011-.375m3.491 1.024a1.32 1.32 0 1 0 0-2.64 1.32 1.32 0 0 0 0 2.64m0-2.31h.033a.99.99 0 1 1-.033 0m.341.472h-.143l-.009-.213-.413.008-.018.205h-.143v1.211h.726Zm10.13 2.774c-6.606.25-6.518 9.866 0 10.13 6.573-.168 6.529-9.965 0-10.13m.518 8.17a1.276 1.276 0 0 1-.146.786l-.284-.412.254-.373h-.183l-.152.242-.156-.242h-.187l.282.412-.293.425h.176l.207-.289.189.289h.12a.6.6 0 0 1-.373.264c-.484-.099-.55-.66-.55-1.1l.347-.153c.08.009.153.029.236.032a2 2 0 0 1-.21-.043l.177-.078.22.094a1.5 1.5 0 0 1-.184.027c.069 0 .126-.018.192-.022Zm-.458-.583a2.53 2.53 0 0 1-1.889-.745 4.02 4.02 0 0 1-.651-2.111 2.539 2.539 0 0 1 4.898-.683l.009.022a2.8 2.8 0 0 1 .11.559 3.23 3.23 0 0 1-.079 1.32 2.414 2.414 0 0 1-2.398 1.638m.099-5.511c-.053 0-.099-.016-.154-.017s-.071.008-.11.008V9.19h.264Zm-2.708.908a.999.999 0 0 1-.55 1.1c-.484-.099-.55-.66-.55-1.1l.55-.243Zm-.021 3.43c.04.08.078.16.124.237l-1.259.748-.11-.275Zm5.074-3.485.55-.243.55.243c.044.429-.066.99-.55 1.1-.489-.11-.555-.667-.555-1.1Zm.074 3.503 1.313.714-.143.242-1.287-.717c.04-.077.073-.159.111-.239Z"/></svg>