<svg xmlns="http://www.w3.org/2000/svg" viewBox="0 0 24 24"><path fill="#44739e" d="M7.787 1a.668.668 0 0 0-.668.67v20.659a.657.657 0 0 0 .668.67h8.393a.668.668 0 0 0 .701-.67V1.671A.68.68 0 0 0 16.213 1Zm0 .25h8.415a.43.43 0 0 1 .432.42v20.659a.43.43 0 0 1-.421.42H7.787a.419.419 0 0 1-.418-.42V1.67a.419.419 0 0 1 .418-.42m1.54 2.299-.169.181v8.066h.372c.105-1.549 1.296-2.325 2.487-2.325s2.382.776 2.486 2.325h.385V3.73l-.17-.181Zm2.639.94a1.869 1.869 0 0 1 1.836 1.847 1.846 1.846 0 0 1-1.836 1.823 1.835 1.835 0 0 1 0-3.67m0 .25v.022a1.586 1.586 0 1 0 1.575 1.575 1.62 1.62 0 0 0-1.575-1.597m.009.737a.85.85 0 0 1 .84.86.85.85 0 0 1-.849.839.85.85 0 0 1-.113-1.693.85.85 0 0 1 .122-.006m-.009.566a.283.283 0 0 0 0 .566.283.283 0 0 0 0-.566m.051 3.723c-1.303.036-2.167.949-2.197 2.252.18 2.607 4.133 3.129 4.411-.022-.071-1.392-.936-2.166-2.214-2.23m.044.434A1.744 1.744 0 0 1 13.767 12a1.744 1.744 0 0 1-1.744 1.688 1.744 1.744 0 0 1-.212-3.476 1.74 1.74 0 0 1 .25-.013m-.038.34a1.405 1.405 0 0 0 0 2.808 1.405 1.405 0 0 0 0-2.808m2.469 1.664c-.168 1.694-1.188 2.275-2.48 2.277-1.284-.016-2.356-.989-2.493-2.266h-.361v7.94l.169.182h5.391l.17-.182v-7.951Z"/></svg>