<svg xmlns="http://www.w3.org/2000/svg" viewBox="0 0 24 24"><path fill="#44739e" d="m8.502 8.649.028-3.757-1.786.002-.006 3.764Zm.239-.004.009-3.753h.246l-.009 3.753Zm4.963 6.62a1.725 1.725 0 1 0-2.943 1.22 1.725 1.725 0 0 0 2.943-1.22m.863 0a2.587 2.587 0 1 0-4.417 1.829 2.586 2.586 0 0 0 4.417-1.829m-2.587-2.19h.035a2.166 2.166 0 1 1-1.555 3.714 2.18 2.18 0 0 1 1.52-3.714m5.28-4.045H6.73v13.86l.064.057.084.053h1.704l6.899-.009h1.681l.06-.069.041-.096c.017-4.574-.005-9.256-.003-13.796m-1.788 13.332-6.896-.007c-.076-4.023-.039-8.052-.046-12.076l6.942.049Zm-.5-13.71h.284l-.034-3.76h-.25ZM8.53 4.513v-.001h8.623l.107-.003L17.265 1l-1.836.002H8.53l-1.794.008.001 3.511Zm.898 2.189a3.073 3.073 0 0 0 .542 1.595h3.966a3.223 3.223 0 0 0 .561-1.595 2.598 2.598 0 0 0-.561-1.552H9.97a2.585 2.585 0 0 0-.542 1.552m2.552-1.293a1.294 1.294 0 1 1-.915 2.208 1.295 1.295 0 0 1 .915-2.208m.005 2.006a.734.734 0 0 0 .733-.733.734.734 0 0 0-.734-.733.734.734 0 0 0-.732.735.733.733 0 0 0 .733.731m3.494 1.237 1.781.004.001-3.766-1.796-.006Z"/></svg>