<svg xmlns="http://www.w3.org/2000/svg" fill="#44739e" viewBox="0 0 24 24"><path d="M12.1992 2.7793c-3.06-.01-3.0301.1215-3.4101.2715L4.8594 4.7109c-1.12.4.831.35 2.621.42 4.26.16 4.139-.0013 4.879-.2813l3.6797-1.67c.3-.28.4301-.4003-3.8399-.4003m4.3516.3008v.0605l-.0508.0586-.42.2305-.4003.2012-2.4492 1.1289-.6797.33-.5313.1993-.3886.0703-.3809.0605-.3203.0196-.2793.0214-.2813.0098H9.0293l-3.4688-.1016-.8203-.0683-.2109-.0703-.0898-.0703-.0293-.0997-.0293-.1406-.0508.1992v.1407l.2695 1.6894.0313.0899.1894.1718.2402.0293.3301.0098 4.9102.1895h.4297l.4804-.0391.4082-.0703.5118-.0899.3886-.0898 1.42 9.9004-.2286.0586-.2304.0507-.1914.0391-.1797.041-.2188.039-.2304.0313-.2207-.0098h-.6192l-.17-.0117-.1698-.0098-.3711-.039-4.3496-.3594-.0899-.0117-.1504-.0293-.1601-.0606-.0899-.039-1.4492-9.5293-.0898-.0606-.0996-.1113 1.5293 9.6308.0507.3204.0586.0605.1309.08.1504.0587.4101.0508 4.6582.459h1.1817l.2187-.0391.2207-.0293.2598-.0508.2793-.0703.25-.0606.371-.1386.5997-.3203.8105-.4609.9102-.5684.92-.5703.209-.1308.2304-.1602.0605-.0488.0196-.0606zm1.6094 2.3105q.05.0158.0996.0332l-.039-.0234zm.0996.0332a3.86 3.86 0 0 1 2.0195 3.2364 3.76 3.76 0 0 1-2.1191 3.7402l.3906-.0996c1.5426-.678 2.3831-2.359 2-4a3.22 3.22 0 0 0-2.291-2.877m-.8907-.0058A2.36 2.36 0 0 0 17 5.4297l1 6.83c2-.84 2.2502-3.9506 1.4102-5.4706a2.36 2.36 0 0 0-2.041-1.3711m-11.92 2.2129 1.3906 8.7793 4.5606.33-1.3203-8.871-4.5508-.2383Zm2.2934 1.3278c1.179-.0345 1.6846.6642 1.937 1.728.15 1.2-.1833 1.9952-1.1092 2.1993-.6767.0402-1.644-.7486-1.8594-1.903-.15-1.09.3253-1.8202 1.0316-2.0243m.0801.4078c-.5454.141-.833.7532-.723 1.5632.142.7639.6341 1.3877 1.3905 1.5098.6347-.1021.9286-.7999.8086-1.6799-.2038-.8508-.6648-1.4202-1.476-1.393m.271 1.1042c.0055-.0004.01 0 .0157 0 .2459-.0232.3816.1681.42.4153.0826.236-.0274.49-.2403.5144-.2367.0243-.427-.2278-.4395-.4707 0-.2422.0758-.4464.2442-.459m9.8262 5.1895-3.3691 2.039-.5117.1914-.7696.17-.6191.0585h-.8399l-5.041-.539 1.2012 1.1797.1992.1406 7.5196.5293h.3808l.1797-.039.1094-.1016.1015-.1797zM8.51 19.3204a3.94 3.94 0 0 0 3.7695 2.4004 4.23 4.23 0 0 0 3.211-1.8809z"/></svg>