<svg xmlns="http://www.w3.org/2000/svg" fill="#44739e" viewBox="0 0 24 24"><path d="m7.7541 1-.2832.0547-.2383.127-.3066.2714-.2578.2598.4863-.2149.2246-.1015.3418-.08h7.5742l.4122.0155.121.0313.1348.123 5.0508 5.6953.2148.2832.0782.2168v.2032l-.0098 7.8672v.3203l-.0684.2363-.1816.3398-5.4805 5.5606-.3633.293-.2597.0664-.3497.0351-7.0546-.4863-.2149-.0469-.3398-.1797.1348.2168.4297.373L14.8987 23h.2832l.3632-.1484.293-.2246.6563-.6114 4.2011-4.293.6563-.6894.2715-.3848.1367-.3632V7.8047l-.1016-.418-.0566-.1484-.2383-.3399-2.6719-3-1.9023-2.1406-.4863-.496c-.1802-.1323-.225-.258-.5215-.2618H8.0588ZM7.305 2.004c-.4283-.0004-.7246.4394-.7246.4394L2.5901 7.1816c-.3772.4476-.3496.8047-.3496.8047l.0664 7.0293c.004.4363.2949.7364.2949.7364l4.1094 5.1757c.3557.448.625.4532.625.4532l6.1914.5664s.5168.0162.8047-.2832l4.5742-4.7559s.3206-.228.3281-.7812l.1016-7.5313c.0072-.535-.3301-.8457-.3301-.8457l-4.6738-5.3574c-.1864-.2137-.4743-.3846-.7579-.3848Zm1.2188 6.0273c.4318.1006.4318.7138 0 .8144h-.0235a.374.374 0 0 1-.3164-.418c-.0207-.2047.1345-.3839.3399-.3964m-1.711 1.3593a1.33 1.33 0 0 1 .4649.1133c.13.063.2452.1506.3398.2598a.283.283 0 0 1 .0567.1699c0 .1585-.2134.3167-.338.1582a.625.625 0 0 0-.5117-.2148.634.634 0 0 0-.4863.2363 1.464 1.464 0 0 0-.295.8633l-.0683 2.5918a.204.204 0 0 1-.0664.1816c-.1358.1359-.3183.0206-.3183-.1719l.0683-2.6015a1.97 1.97 0 0 1 .3164-1.1328.996.996 0 0 1 .838-.4532m4.0664.1133c.1604.0095.318.0512.463.123.4957.3094.7791.8684.7362 1.4512l-.0683 2.6485a.205.205 0 0 1-.0664.1816c-.1246.1359-.3184.0226-.3184-.17l.0684-2.6718a1.131 1.131 0 0 0-.5215-1.0078c-.5661-.3057-1.2559.1797-1.2559.961l-.0683 2.6503a.24.24 0 0 1-.0664.1817c-.1359.1358-.3301.0225-.3301-.17l.0684-2.6718a1.84 1.84 0 0 1 .125-.5996 1.199 1.199 0 0 1 1.0742-.9043 1.2 1.2 0 0 1 .1601-.002m-2.4101.002a.1.1 0 0 1 .0156 0c.1007.004.1973.1001.1973.248l-.0801 3.8945a.226.226 0 0 1-.0684.17c-.133.1374-.3623.018-.3261-.17l.078-3.9062a.263.263 0 0 1 .0704-.1817c.034-.034.0733-.0519.1133-.0546m5.7793.127c.1874.0043.3764.048.5488.1308.4975.3081.7856.8652.748 1.4492l-.08 2.9433c.052.774-.5294 1.4456-1.3028 1.506a1.267 1.267 0 0 1-1.1328-.6095.27.27 0 0 1 0-.1386c-.0113-.1584.1475-.2718.295-.213a.27.27 0 0 1 .0683.09.646.646 0 0 0 .3164.2616c.122.0526.2521.0825.3848.0899.536-.0535.9386-.5145.918-1.0528v-.5547a1.131 1.131 0 0 1-.8946.4063c-.7747-.0888-1.3323-.7875-1.246-1.5625v-1.2793a2.08 2.08 0 0 1 .1152-.5996c.1418-.5558.6995-.8805 1.2617-.8672m-.1075.4218c-.4567.0132-.873.4522-.873 1.045l-.0117-.0333v1.2676c-.0874.5535.3046 1.0688.8613 1.1328.5388-.048.9425-.5125.916-1.0527v-1.2559c.0218-.4027-.1706-.7886-.5078-1.0098a.745.745 0 0 0-.3848-.0937"/></svg>