<svg xmlns="http://www.w3.org/2000/svg" viewBox="0 0 24 24"><path fill="#44739e" d="M9.584 11.849c2.821-.158 2.724-.255 3.199-.486l2.323-1.338c.181-.207.255-.291-2.555-.024-2.03.183-1.994.267-2.237.389l-2.498 1.349c-.701.341.576.183 1.768.11m-.961-3.636a2.06 2.06 0 0 1-1.118.389v.584c.407-.168 2.694-1.284 2.38-2.611l.708-.211v-.863l.061-.145.061-.207.146-.231.56-.804-1.954.633.303.596.122.414v.425l-.039.227c0-.206-.638-.625-1.383-.847a2.542 2.542 0 0 0-1.691.11c.025.061.17.098.17.22.686.133 1.975-.56 2.874.517l.021.006v.011l.007.007-.016.086c0 .022-.007.041-.009.062v.017c-.608.584-2.031.45-2.396.584l.111.307c0 .22 1.107.06 1.69-.304a2.49 2.49 0 0 0 .566-.421c0 .023 0 .046-.009.069-.44 1.1-1.711.853-2.245 1.137v.33c0 .22 1.014-.062 1.651-.44a1.83 1.83 0 0 1-.571.353m1.196-1.807a3.545 3.545 0 0 0-2.631-.127l.086.084.084.136c0 .072.366.084 1.472-.11l.996.127c0-.03.013-.06.011-.092-.005-.007-.012-.011-.018-.018M4.955 3.664C4.202 3.334 1 4.325 1 4.325c.021.17.044.341.061.56a4.46 4.46 0 0 0 .161.897 7.03 7.03 0 0 0 1.212 2.614 4.08 4.08 0 0 0 2.212 1.422 6.16 6.16 0 0 0 .961.292h.524l.643-.352.414-.28a7.09 7.09 0 0 0-.352-3.284 5.84 5.84 0 0 0-1.881-2.53M6.35 9.69c-2.263-.497-2.496-.729-3.301-1.688a7.92 7.92 0 0 1-1.676-3.741c1.994-.064 6.443 2.56 4.977 5.429m7.454 12.824a2.812 2.812 0 0 0 1.995-1.447l-4.647.11a2.629 2.629 0 0 0 2.652 1.337m7.297-19.286-1.022-.22c1.034.522 2.14 2.735 1.581 6.299-.474 3.003-3.369 5.047-4.67 5.047-.304.012.888.206 1.423.194 1.848.025 4.098-2.87 4.281-4.086.449-2.042.73-6.141-1.593-7.234m-5.619 6.749-.268.17-.255.158-1.54.9-.426.267-.34.158-.243.073-.255.074-.39.06h-.183l-.887.085-2.299.146h-.758v.097l.279 1.095 1.651 6.213.097.207h3.574l.771-.012.17-.01h.16l.137-.048.34-.123.231-.11.378-.255.51-.353 1.217-.973.133-.122-1.804-7.764Zm-5.411 8.831L8.648 13.36h-.083l2.563-.1 1.374 5.548Zm-.074-4.441c-1.192.474-.45 2.65.791 2.541.607-.17.79-.693.607-1.386s-.619-1.253-1.398-1.155m.718 2.25a1.218 1.218 0 0 1-1.022-.9c-.121-.536.024-.961.378-1.083.534-.072.912.44 1.045 1.009s.012.876-.401.978Zm4.001 3.259-.498.158-.402.085-.559.048-3.357-.036.864.705.145.073 4.999-.121.243-.024.122-.037.06-.073.061-.121.742-2.372-2.092 1.556Zm-4.369-4.524c-.134.012-.171.146-.146.33.048.4.608.364.45-.074a.31.31 0 0 0-.304-.256M6.398 4.978c.036.061.195.098.195.22a12.4 12.4 0 0 0 1.666-.11 2.127 2.127 0 0 1 1.605.754c.072-.183-.693-.73-1.569-.973a3.05 3.05 0 0 0-1.897.109m13.279-1.033.132.353.097.341v.194l.231-.21.207-.45.062-.158v-.4l-.293-.377-.634-.839.028.33-.071.317-.154.269.133.22Zm-.133-.827.085-.331.413.511.28.364v.22l-.024.119-.05.146-.123.298-.11.158-.103-.377-.141-.358-.252-.409-.059-.093Zm-2.578 10.519c1.483-1.01.961-3.271-1.217-3.441l.074.255a1.87 1.87 0 0 1 1.143 3.186m-6.045-7.978v-.048l-.042.259c-.355 2.16 2.67 3.411 4.518 3.79a3.908 3.908 0 0 0 2.663-.449 3.869 3.869 0 0 0-.17-6.75s-2.676-1.362-5.995 1.703a4.15 4.15 0 0 0-.88 1.21Zm.474-.426c.597-.9.816-.9 1.217-1.057a8.98 8.98 0 0 1 2.627 0 5.79 5.79 0 0 1 2.784.912 2.36 2.36 0 0 1 1.217 2.03 3.149 3.149 0 0 1-3.332 2.311 6.954 6.954 0 0 1-3.851-1.642c-.316-.376-.875-.96-.912-1.447v-.377l.053-.304c.052-.121.149-.303.197-.426m7.699-2.14a1.071 1.071 0 0 0-1.083-1.617 1.21 1.21 0 0 0-.778.474l1.058.487Zm-3.198 7.735.693 2.773a1.605 1.605 0 0 0-.693-2.773m4.243-5.679c-.048.17 0 .121 0 .45v1.082a5.3 5.3 0 0 1-.072.559 4.4 4.4 0 0 1-.147.45 3.16 3.16 0 0 1-.449.706 4.1 4.1 0 0 1-.341.45 3.8 3.8 0 0 1-.534.462 3.58 3.58 0 0 1-.828.462 2.3 2.3 0 0 1-.559.182 2.75 2.75 0 0 1-.572 0 5.94 5.94 0 0 0-.948 0 3.05 3.05 0 0 1 1.43.463 2.21 2.21 0 0 1 .524.413 2.05 2.05 0 0 1 .34.754 1.716 1.716 0 0 1 .06.79 1.65 1.65 0 0 1-.231.645 2.74 2.74 0 0 1-.498.681 3.5 3.5 0 0 1-.44.365 5.55 5.55 0 0 0 1.277-.462 6.712 6.712 0 0 0 3.071-4.561 8.03 8.03 0 0 0 .073-2.784 7.74 7.74 0 0 0-.815-2.554 1.13 1.13 0 0 1 .073.559 1.3 1.3 0 0 1-.169.498c-.123.219-.195.219-.245.39M13.293 9.69h1.289a11.8 11.8 0 0 1-1.362-.551v.231ZM5.85 4.042a17.7 17.7 0 0 0 1.824-.11 2.432 2.432 0 0 1 1.776.753c.073-.194-.77-.753-1.726-.984a3.895 3.895 0 0 0-2.091.121c.035.049.217.087.217.22m2.238.207a3.24 3.24 0 0 0-1.909.121c.036.049.195.086.195.22a14.5 14.5 0 0 0 1.666-.11 2.187 2.187 0 0 1 1.617.741c.06-.182-.681-.741-1.569-.972"/></svg>