<svg xmlns="http://www.w3.org/2000/svg" fill="#44739e" viewBox="0 0 24 24"><path d="M12.3152 1.0047c0 .0002-.011 0-.016 0-.048 0-.2828.021-.5235.037a2.5 2.5 0 0 0-.494.066 10.45 10.45 0 0 0-.092 1.6834 54.6 54.6 0 0 1-.4198 6.5247 5.95 5.95 0 0 1-.5762 1.7304 5.76 5.76 0 0 1-1.4295 1.4451c-.477.3194-1.7094 1.0984-2.7518 1.746-2.2421 1.394-3.0063 2.244-3.359 3.7144a1.6 1.6 0 0 0-.047.8106c.033.1884.081.4952.1093.6815a3.112 3.112 0 0 0 1.3085 2.2166 8.33 8.33 0 0 0 3.9703 1.1483 36.02 36.02 0 0 0 9.546-.285c2.5216-.518 3.57-1.5133 3.8473-3.65a3.327 3.327 0 0 0-.5938-2.4472l-.01-.01a11.03 11.03 0 0 0-3.0114-2.406l-1.1601-.6914a8.12 8.12 0 0 1-2.785-2.1443c-.4977-.765-.7938-2.1312-.9978-4.5952-.095-1.15-.2851-4.4593-.2851-4.976 0-.3976-.08-.6069-.2324-.6036zm-.2695.2813h.25l.029.914a71.5 71.5 0 0 0 .449 7.5676c.033.2395.059.4703.059.5135a1.063 1.063 0 0 0 .1583.5157c.011.016.01.05 0 .09-.051.1586.111.3993.3594.5468.1116.066.2068.1393.2285.1738v.01a3.47 3.47 0 0 0 .949.8378c.1427.07.2504.1508.2578.1816 0 .01-.01.014-.01.02.01.01.019.012.033.012a.74.74 0 0 1 .246.1563 3.94 3.94 0 0 0 .8848.5995 4.3 4.3 0 0 1 .498.254 1.7 1.7 0 0 0 .332.1718 3.7 3.7 0 0 1 .4746.2811 1.9 1.9 0 0 0 .4433.254c.0009-.0002 0 0 .01 0 .027-.0002.08.024.1329.061a.43.43 0 0 0 .1972.082c.1023 0 .7066.4057.742.4882a3.61 3.61 0 0 1-1.0506-.5703c0-.01-.011-.011-.016-.014-.0008-.0004-.01 0-.01 0h-.01c-.036.011-.063.095-.029.1504 0 0 0 .011.01.014-.011 0-.031-.019-.059-.043a3.06 3.06 0 0 0-.8456-.3144c0 .044.1492.168.1973.168a2.73 2.73 0 0 1 .4023.1875 2.3 2.3 0 0 0 .412.1797 2.27 2.27 0 0 1 .3614.1328l.4569.2011c.1497.065.3322.154.8867.4433.2013.1031.4604.2937.6249.4453-.01 0-.016-.01-.023-.012a2.64 2.64 0 0 1-.3418-.2109.506.506 0 0 0-.2636-.1 1.11 1.11 0 0 1-.3828-.121l-.2422-.125-.1.1112c-.072.075-.1026.132-.094.1602.0007.0006.01 0 .01 0q.0255.015.09 0h.01a.597.597 0 0 1 .3242.08 1.24 1.24 0 0 0 .2344.1035.44.44 0 0 1 .123.051c.029.016.049.024.059.025 0-.01 0-.014-.01-.025-.0006 0 0 0 0-.01.028 0 .1318.045.2617.1112a.75.75 0 0 0 .3438.1192l.01-.01c.0009-.0007 0 0 0 0v.018c-.01.017 0 .035 0 .045a.43.43 0 0 1 .1289.078c.036.029.061.046.07.051 0-.01-.017-.028-.041-.059 0 0-.01-.01-.012-.014 0 .0005 0 0 .01 0 0 .0002 0-.0002.01 0 .0008.0001 0 0 .01 0 .028.012.095.08.1543.1602.041.055.065.1.068.1172 0-.0008-.01 0-.01 0a.46.46 0 0 0-.1484-.057.596.596 0 0 1-.291-.084.19.19 0 0 0-.1054-.027 2.02 2.02 0 0 1-.3965-.1563 2.55 2.55 0 0 0-.6933-.2012 1.139 1.139 0 0 1-.8886-.4823c-.067-.09-.1237-.1594-.1425-.1699a1.085 1.085 0 0 0 .2812.4785 1.15 1.15 0 0 1 .3243.129 1.25 1.25 0 0 0 .3573.1385 3.03 3.03 0 0 1 .8573.422 2.17 2.17 0 0 1-.4764-.07 2.9 2.9 0 0 0-.5547-.082c-.013 0-.024.01-.029.012.018.065.363.2125.5742.2245a.48.48 0 0 1 .2403.055.222.222 0 0 0 .1463.041c.173 0 .2852.051.2852.1308 0 .1264-.1021.1358-.4901.045-.025-.01-.049-.013-.07-.018-.01 0-.012-.01-.02-.014a.287.287 0 0 0-.2656-.035c-.048 0-.075.023-.1152.058a.3.3 0 0 1 .062-.031.3.3 0 0 0-.049.037.54.54 0 0 1-.168.123.5.5 0 0 0 .068-.053.4.4 0 0 1-.1268.062.059.059 0 0 0-.061.047c.01 0 .026-.01.045-.018h.053a.9.9 0 0 0 .1894-.055.52.52 0 0 1-.1.072c-.012 0-.021.01-.029.012a.53.53 0 0 0 .072-.057.82.82 0 0 1-.1934.062v-.01c-.024 0-.04.0003-.049 0-.017.021-.074.037-.1406.037a.375.375 0 0 0-.2382.1015.285.285 0 0 1-.1602.1036.0776.0776 0 0 0-.068.08c0 .022-.01.04-.017.049-.01-.0002-.013 0-.019-.01a.11.11 0 0 0-.041-.016.47.47 0 0 0 .1582.1113c.069.034.1084.053.123.055 0-.01-.017-.024-.037-.047-.018-.02-.029-.037-.031-.047.02-.01.077 0 .1876.018a.57.57 0 0 1 .2675.096c.01.013.018.025.024.029v-.024c0-.04-.06-.099-.1288-.1446-.057-.037-.09-.071-.1-.094-.0008 0 0-.01 0-.01s-.0001 0 0-.01c.0003-.0009 0 0 0-.01.0007-.0007.01 0 .01 0 .031-.019.1149-.019.248.01a.963.963 0 0 0 .5742-.022.495.495 0 0 1 .2793.066 1.18 1.18 0 0 0 .3143.1035c.05 0 .09.027.09.061a.317.317 0 0 0 .088.1543c.029.032.044.063.045.08a.206.206 0 0 1-.125-.096 1.134 1.134 0 0 0-.6601-.1738 1.53 1.53 0 0 0-.539.1211.9.9 0 0 0-.1114.2558c-.068.2284-.021.3144.252.4863.063.039.105.054.125.051.0008-.0003.01 0 .01 0 .0003-.0007-.0002-.01 0-.01.0002-.03-.051-.099-.1504-.1836-.193-.163-.2034-.3499-.022-.4686.1819-.1187.32-.139.3633-.062.01.013.013.024.014.029 0 0-.01 0-.012-.01-.064-.011-.3728.2004-.381.2635.011.1731.5897.4028.8535.334.052-.013.089-.012.1075 0 .0008.0005 0 0 0 0 .0002.0008 0 .01 0 .01v.01c-.01.027-.051.067-.131.1035a.22.22 0 0 0-.1.072c.038 0 .073-.01.1095-.01a1 1 0 0 0 .092-.037c.078-.038.1219-.07.1348-.094v-.021c0-.01-.01-.013-.016-.019a.16.16 0 0 1-.029-.023c.01-.0006.028 0 .057.014a.214.214 0 0 0 .1758-.033c.021-.017.04-.028.049-.031 0 0 0 .01-.01.016a.06.06 0 0 0 .021.078l.014.01a.0776.0776 0 0 0 .1036-.045.121.121 0 0 1 .1-.074c.011 0 .022 0 .029-.01.028-.021.024-.089-.01-.2578a.684.684 0 0 1 .01-.3905c.097-.2107.063-.2929-.2227-.58a1.21 1.21 0 0 1-.2812-.3594c0-.022-.0003-.039 0-.047.01.01.019.023.035.049.01.013.018.025.025.031h.01c.01-.014.011-.047 0-.096-.0001 0 0 0 0-.01.043 0 .1775.087.244.1718.031.038.049.061.053.068-.01 0-.036-.028-.088-.072-.053-.046-.097-.066-.123-.059 0 .0004 0 0-.01 0 0 .0006 0 0-.01 0 0 0-.01.01-.01.012a.09.09 0 0 0-.016.035c0 .0002.01-.0007.012 0a1.74 1.74 0 0 1 .5703.3651.555.555 0 0 1 .037.3535c-.022.244-.011.2847.1113.3945a.278.278 0 0 0 .2324.096c.035-.01.058-.012.07-.01 0 .016-.01.047-.025.098-.073.1952-.048.3457.059.3457a.0865.0865 0 0 0 .092-.086c0-.026.01-.046.014-.055 0 .0008 0 0 0 0 .062.066-.058.267-.215.3184a25.6 25.6 0 0 1-5.1361.5194l-2.406.1113c-1.1976.055-1.2541.055-1.3905-.041-.078-.055-.1682-.1106-.1992-.1328-.04-.01-.159.073-.2753.1797l-.2227.207-.7206-.027c-2.1236-.078-6.2026-.3712-6.5131-.4688a9.3 9.3 0 0 0-.7441-.1542 2.56 2.56 0 0 1-.58-.1406c-.065-.064-.082-.4229-.027-.5l.01-.01c0-.0006 0 0 .01 0 .011-.0004.022 0 .027-.01 0-.01 0-.019-.01-.031a1.13 1.13 0 0 1 .1388-.537.26.26 0 0 0 .041-.1485 4.76 4.76 0 0 1 .9453-1.568c.083-.071.1734-.1334.2577-.2033v-.01a.136.136 0 0 1 .074-.051 10.5 10.5 0 0 1 1.4413-1.0057c.2129-.1109.5106-.2836.658-.3789a1.65 1.65 0 0 1 .332-.1777.051.051 0 0 0 .051-.051v-.01c.0003-.0009-.0001 0 0-.01.012-.02.045-.032.084-.025.1066.018.2956-.096.6582-.3906a4.54 4.54 0 0 1 .7753-.5429 6.1 6.1 0 0 0 .826-.5312c.087-.095.255-.2316.293-.2442 0 0 0 .01-.01.016-.031.041-.048.07-.051.082.017-.01.062-.043.1212-.1094.026-.03.042-.054.047-.066 0 0-.01 0-.012.01a.074.074 0 0 1-.039.014c-.0002-.0007 0 0 0-.01-.0007-.01 0-.015.01-.027a.572.572 0 0 1 .371-.2089c.082-.014.1042.018.123.1855a1.2 1.2 0 0 0 .094.3495c.031.058.046.1123.043.1348 0 0 0-.0002-.01 0 .018.027.123.088.168.088h.01c-.0004-.015-.018-.043-.047-.076a.378.378 0 0 1-.086-.3946c-.01-.02-.027-.035-.033-.055.01 0 .028.022.037.027a.533.533 0 0 0 .084-.2734 1.13 1.13 0 0 1 .09-.3457.7.7 0 0 0 .074-.2793 3.9 3.9 0 0 1 .1505-.6327c.083-.2739.1669-.5634.1835-.6444.018-.071.033-.1175.043-.1348.015.037-.01.3046-.059.7616a2.77 2.77 0 0 0-.016 1.0292 2.23 2.23 0 0 1 .066.3984c0 .1075.3666.481.455.4628.011-.01.023-.01.031-.01v.018a.084.084 0 0 1-.037.074h-.01c.01.0001.017-.0009.029 0a.0754.0754 0 0 1 .084.047c.012.033.037.045.059.027.0005-.0009 0 0 0-.01.01-.03-.015-.095-.059-.1582a.7.7 0 0 1-.1-.25c-.012-.104-.0003-.1103.1738-.094a.36.36 0 0 1 .2324.098 1.21 1.21 0 0 0 .5332.2696c.026 0 .046-.01.057-.016.0002-.0009-.0001 0 0-.01 0-.035-.052-.087-.1426-.121a.93.93 0 0 1-.2792-.209.444.444 0 0 0-.2617-.1504.998.998 0 0 1-.5742-.4238 2.77 2.77 0 0 1 0-1.3807c.094-.7075.1526-1.2612.1992-1.8534.018-.2383.041-.4619.051-.494.0003 0 0 0 0-.01.021-.029.118-.044.2637-.029l.1328.012c.0007 0 0-.01 0-.014h.01l-.1192-.057c-.203-.096-.2393-.1532-.2304-.3672.02-.5289.068-1.1905.094-1.2869.019-.073.044-1.1095.055-2.3182s.032-2.2672.045-2.359c.02-.1199.056-.166.125-.166a.143.143 0 0 1 .121.064c0 .01.01.018.014.021 0-.01.01-.021.01-.041 0-.072.052-.09.2539-.09zm6.5716 15.8695c.0008 0 0 0 0 0s-.01 0-.01.01c0 .0005 0 0 0 0zm.2793-.203a.3.3 0 0 0-.043.033.5.5 0 0 1-.037.037.4.4 0 0 0 .049-.043c.012-.011.022-.019.031-.027M11.8894 2.153c0 .021.0008.092.012.2227.013.1507.026.2941.029.3085.01-.01.029-.057.049-.123a.41.41 0 0 0-.031-.3105c-.025-.054-.043-.092-.053-.1036zm.01.6034c-.01 0-.02.01-.031.022-.012.025 0 .09.022.1542a4.9 4.9 0 0 1 .012.961c-.02.4568-.028.9238-.02 1.037.018.2217.018.2953 0 1.5993a5.64 5.64 0 0 0 .029.9472c.01.016.016.03.018.037-.01 0-.021-.01-.037-.018-.018-.011-.032-.018-.039-.019 0 .01.013.021.031.043a.414.414 0 0 1-.016.3614.08.08 0 0 1-.018.016h-.01c-.0001 0 0 .01 0 .01-.052.064-.027.193.082.295.084.083.1485.12.1797.1151 0-.0003.01 0 .01 0 .01-.023 0-.072-.039-.1444a.356.356 0 0 1-.045-.2442c.047-.1109.065-3.472.025-4.398-.025-.5569-.068-.8075-.1387-.7968zm-.076 5.9115c-.0004.0008 0 0 0 .01-.01.023 0 .07.02.1347.049.1325.1754.278.2305.2891 0 .0001 0 0 .01 0h.01c0-.01.01-.013.01-.023 0-.1092-.1908-.3993-.256-.4083-.0008.0002 0-.0002 0 0zm-.3417.465c.01.01.039.026.086.053a1.35 1.35 0 0 0 .2577.1112c.048.015.078.022.09.02 0-.01-.019-.029-.043-.055a.57.57 0 0 0-.2577-.1092c-.078-.012-.1228-.02-.1367-.018zm.25.7146.012.1114a1.1 1.1 0 0 0 .1.2811l.084.166-.2206-.066-.2227-.066.3339.334c.1872.1885.3069.2857.3516.291 0 0 0 .0002.01 0 0-.019-.01-.062-.041-.125a1.62 1.62 0 0 1-.088-.41c-.029-.2463-.058-.312-.1797-.3985zm.2284 1.1328h-.014c0 .0005 0 0-.01 0-.0008.0007-.01 0-.01 0 0 .01-.01.018-.01.031a.097.097 0 0 0 .045.072.78.78 0 0 1 .1113.2655.51.51 0 0 0 .1367.2637.315.315 0 0 1 .127.1328c.019.036.03.061.031.074 0 .001.0002 0 0 0-.01 0-.028-.01-.051-.016-.174-.067-.2917-.079-.3261-.06 0 .0007 0 0 0 0 0 .028.066.078.203.1406.111.051.207.1227.207.1582.013.036.1182.097.2325.1386a1.47 1.47 0 0 1 .369.1836c.056.044.089.074.098.09-.01.01-.035.01-.072.01a.94.94 0 0 1-.3201-.1113c-.099-.05-.1515-.075-.172-.076 0 .011.011.029.025.055a1.042 1.042 0 0 0 .576.4785 1.05 1.05 0 0 1 .3029.1348c.019.017.028.032.027.043l-.01.01c-.049.035-.2832.0005-.5586-.092A3.14 3.14 0 0 0 11.73 12.76a.39.39 0 0 1-.1778.041c-.1197 0-.2734.1231-.2734.2207 0 .001-.0001.01 0 .01.019 0 .058-.025.1055-.066v.012c.099-.093.17-.1107.4882-.1.203.01.3247.026.3496.053-.0008 0 0 .01 0 .01s-.0001 0 0 .01c.0003.001 0 0 0 .01.016.021.069.032.1387.033a2.35 2.35 0 0 1 .3164.033c.6786.1296.9359.2013.998.2811a1.42 1.42 0 0 0 .5546.3047c-.01-.031-.087-.1143-.1934-.2148l-.213-.1934.2013.025c.083.011.128.013.1426.01-.01-.01-.022-.018-.045-.031a1.88 1.88 0 0 1-.494-.5312 5.36 5.36 0 0 0-.6094-.6483 6.36 6.36 0 0 1-.75-.8242c-.093-.1579-.2431-.2888-.3085-.287zm-2.121 1.2068c0 .0003 0 0-.01 0-.023.01-.046.046-.062.092-.079.211-.1016.312-.084.3418.024-.01.059-.048.074-.092a4 4 0 0 1 .082-.205c.023-.053.028-.1084.01-.1348-.0006-.0009 0-.01 0-.01-.0008-.0007 0 0-.01 0 0-.0006 0 0-.01 0 0-.0008-.01 0-.01 0h-.01c0 .0002 0-.0003 0 0zm.4395.074c.01.01.024.033.031.051a1.4 1.4 0 0 0 .2989.465c.1122.1413.2757.2886.3202.3065.0008.0003.01 0 .01 0-.0007-.01 0-.013-.012-.025-.01-.01-.01-.02-.012-.025.01-.0008.021 0 .041.01.052.02.065.057.047.09-.01.01-.01.02-.012.025.0009-.0003 0 0 .01 0 0 0 0-.01.01-.01a.0854.0854 0 0 1 .1035.012c.013.011.026.019.035.022.0008.0001.01 0 .01 0 0-.01.01-.02.01-.037 0-.053-.02-.078-.043-.078-.062 0-.2106-.1589-.211-.2148.0002-.0009-.0001 0 0-.01-.01 0-.032 0-.062.014-.03.01-.055.013-.068.01.0004 0 0 0 0-.01a.985.985 0 0 0-.248-.3222 1.23 1.23 0 0 0-.2324-.1992.13.13 0 0 0-.037-.023zm.418.1035a1.9 1.9 0 0 0 .578.4864c0-.022-.018-.065-.057-.1094-.1022-.1257-.4656-.3752-.5213-.3672zm5.0697.7227a.93.93 0 0 1 .2032.1327.6.6 0 0 1 .059.051.94.94 0 0 0-.1446-.092c.016.023.078.076.1446.125-.036-.03-.065-.058-.07-.07a.94.94 0 0 1 .1426.09c.033.033.062.064.068.076a1.01 1.01 0 0 1-.2676-.1738c-.072-.054-.1442-.1108-.1562-.1308zm-3.3902.1933c.01.013.038.036.082.064a2.87 2.87 0 0 0 .9472.2832.5.5 0 0 1 .2734.1446c.027.033.05.053.061.059-.0007 0 0-.01-.01-.018v-.01c.02.01.068.044.1309.1a2.07 2.07 0 0 0 .4023.2772c.1009.049.1756.1046.1855.133a1 1 0 0 0-.092.084c-.01.01-.015.015-.019.018-.0005-.01 0-.019.01-.037.017-.049-.026-.081-.2305-.092a.91.91 0 0 1-.3652-.092.644.644 0 0 0-.3026-.074.633.633 0 0 1-.3321-.1.92.92 0 0 0-.293-.1329h-.041c.037.063.5503.3344.8498.4355a1.156 1.156 0 0 1 .6034.3261 2.7 2.7 0 0 0 .2207.2481.5.5 0 0 1 .1484.2557c0 .032.01.058.021.07.0008.0001.01 0 .01 0h.01c.0009-.0005 0 .0006 0 0 .102-.063.051-.275-.09-.3827-.048-.036-.079-.062-.09-.076.01-.0009.025 0 .047.01.029.01.048.012.055.012-.01-.01-.03-.018-.064-.037-.1275-.067-.1485-.1225-.066-.1758a.0654.0654 0 0 0 .02-.088c-.01-.01-.011-.02-.012-.025.01 0 .016.01.027.014.011.01.023.01.031.01.0008-.0002.01.0002.01 0 .01-.01.01-.019.01-.033v-.012c.0007.0001.01-.0002.01 0 .016 0 .04.028.068.064a.51.51 0 0 0 .2225.1465c.046.014.077.022.092.021-.0001-.0008 0 0 0-.01-.01-.013-.022-.035-.049-.066-.086-.1015-.1316-.1676-.1348-.1934.017.0003.051.016.1035.049l.1504.09-.1504-.16a.59.59 0 0 0-.2147-.1662 1.1 1.1 0 0 1-.2891-.158 7.5 7.5 0 0 0-.5293-.3106 1.01 1.01 0 0 1-.3143-.211c-.02-.052-.1032-.067-.3106-.055a1.895 1.895 0 0 1-.828-.1524c-.01 0-.02-.01-.025-.01zm-2.0076.01v.01c.029.042.043.087.035.1074 0 0-.0002 0 0 .01.01.029.061.089.1289.1543.08.076.1349.1165.1582.125.0008.0001 0 0 0 0-.0001-.0009 0 0 0-.01-.01-.033-.069-.1175-.1777-.2402-.077-.092-.1403-.154-.1563-.164zm1.4802.01c-.01.0007-.013 0-.017.01 0 .039.098.112.2226.1563a2.25 2.25 0 0 1 .371.1972.756.756 0 0 0 .3984.1211 1.2 1.2 0 0 1 .3926.094c.173.089.3454.1042.3887.033.01-.01.01-.021.01-.029-.01-.051-.12-.08-.25-.08a2.85 2.85 0 0 1-.912-.2559c-.204-.1403-.505-.2656-.5938-.2558zm-1.1052.051c-.01.0005-.017 0-.022 0 .011.012.042.029.094.057a.87.87 0 0 0 .3594.072h.2207l-.2578-.072a2.2 2.2 0 0 0-.3671-.076c-.01 0-.018-.0005-.025 0zm-2.3983.1836c-.022 0-.053.018-.082.039l-.1953.1367a.87.87 0 0 0-.1913.2012l-.082.1231.1484-.1094c.2633-.191.4244-.3334.4355-.377-.0008-.0002-.01 0-.01 0 0-.0009-.011 0-.018 0zm7.1497.018c.01.01.04.028.088.057v.014a.635.635 0 0 0 .285.076c.053 0 .087-.01.1017-.016.0008-.0004 0 0 0 0-.01-.01-.026-.016-.053-.027a1.8 1.8 0 0 0-.2831-.076c-.079-.014-.1245-.023-.1387-.022zm-6.679.01c-.019 0-.067.037-.1308.1015-.111.111-.136.2051-.053.2051a.0554.0554 0 0 0 .053-.061.316.316 0 0 1 .084-.1543c.035-.039.051-.068.055-.082zm3.0387.053c-.056 0-.1.01-.1151.019a2.2 2.2 0 0 0 .5956.1973c-.0006 0 0-.01 0-.01-.046-.065-.3563-.208-.4766-.209zm-2.7985 0c0 .01-.01.026-.01.053a.345.345 0 0 0 .121.2051 2.08 2.08 0 0 0 .6368.4804c-.016-.074-.3767-.4335-.4453-.4335-.073 0-.2441-.168-.2773-.2578-.01-.019-.015-.033-.02-.039zm1.0253.076a2.59 2.59 0 0 0 .6973.4648c-.01-.027-.077-.093-.166-.162a2.8 2.8 0 0 1-.2227-.1738c-.043-.051-.2502-.1328-.3007-.127zm5.1538.033c0 .0004-.01 0-.012 0a1.68 1.68 0 0 0 .5819.2227c.078.022.138.026.1602.019a.142.142 0 0 0-.1035-.045.62.62 0 0 1-.2227-.07c-.1356-.068-.341-.1299-.4022-.123zm-3.9.033c-.01 0-.017.01-.022.012-.0008 0 0 0 0 .01a1.06 1.06 0 0 0 .2559.1543c.1164.059.1965.089.2225.082-.0003 0 0 0 0 0-.036-.1076-.3574-.2633-.457-.246zm-.092.2832c-.01 0-.019.01-.025.012-.0005.0008 0 0 0 .01v.018c.016.039.1509.1062.3203.1582a3.26 3.26 0 0 1 .5488.2226.47.47 0 0 0 .326.092c.02-.01.034-.019.041-.027-.011-.029-.088-.07-.2538-.1485l-.01.01a1.84 1.84 0 0 0-.3906-.1485.62.62 0 0 1-.2167-.072c-.1662-.085-.2778-.1235-.332-.1152zm3.7652.012c0 .0003-.01 0-.01 0 0 .01.011.018.024.031a1.126 1.126 0 0 0 .5019.1797c.019 0 .035 0 .045-.01 0-.0004.01 0 .01 0-.0001-.0007 0-.01 0-.01-.027-.038-.1704-.1035-.3574-.1504-.1178-.031-.1826-.047-.209-.045zm-2.8454.029c-.035 0-.064.012-.076.024 0 .001-.0002 0 0 .01.0002.001 0 0 0 .01.0005.001 0 0 0 .01.018.024.072.041.1328.041a2.95 2.95 0 0 1 .5195.1113c.2395.065.3885.089.4258.078-.019-.021-.096-.06-.2402-.1152-.2678-.104-.6096-.1685-.7636-.1563zm-2.1482.039c-.01.017-.01.059 0 .1231a.364.364 0 0 0 .098.1855c.027.022.046.037.057.039 0-.021-.016-.076-.053-.1797-.034-.098-.071-.1545-.094-.166zm-1.3085.01c-.01 0-.014 0-.019.01-.01.01-.016.022-.016.043 0 .055.094.1251.1952.1407.01.001.013.0001.018 0 .0009 0 .01.0002.01 0v-.01c0-.014-.02-.04-.051-.074-.057-.067-.1102-.1015-.1426-.1015zm7.4446.1015h-.023c.01.01.025.017.053.029a.54.54 0 0 0 .1797.045c.01 0 .018-.0008.023 0-.01-.01-.025-.017-.053-.029a.6.6 0 0 0-.1797-.045m-.9628.2032c.0009.01.01.014.012.023.048.078.3858.165.455.1211 0-.0008 0 0 0 0-.0006-.0009 0 0 0-.01-.018-.019-.071-.04-.1424-.053a1.84 1.84 0 0 1-.2696-.068c-.02-.01-.035-.01-.045-.01zm-7.9621.01c-.029.01-.1108.059-.2481.1485a1.22 1.22 0 0 0-.2772.2324.144.144 0 0 1-.1.078 1.9 1.9 0 0 0-.5508.2772c-.0006 0 0 0 0 .01-.001 0 0 0-.01.01-.014.01-.037.01-.057 0-.07-.042-.3046.1183-.3046.207 0 .089-.1873.164-.2871.133h-.02s0 .01.01.014c.0007.0007 0 .01 0 .01.0004.0008 0 0 0 .01.0002.001 0 0 0 .01.0005.026-.028.062-.072.094-.06.045-.093.081-.1.1015-.0002.001 0 0 0 .01.0007.0004.01 0 .01 0 .031.01.1223-.016.2539-.082l.012-.01a.72.72 0 0 1 .334-.1015c.039.01.1883-.067.328-.1758a1.14 1.14 0 0 1 .332-.203 1.183 1.183 0 0 0 .5546-.2793c.1442-.1254.1778-.1725.1446-.2657a.16.16 0 0 1 .012-.1699c.023-.024.037-.043.039-.051 0 .0002 0-.0005-.01 0zm5.6908.029c0 .0003 0 0-.01 0-.01.01-.016.023-.023.045-.017.039-.023.076-.02.088a3.16 3.16 0 0 0 .6758.3613c.09.029.1403.046.1523.055h-.096a.51.51 0 0 0-.211.027c0 .0006 0 0-.01 0-.035.012-.1086-.018-.168-.07a.424.424 0 0 0-.1854-.1036 1.59 1.59 0 0 1-.5487-.248c-.03-.026-.058-.043-.074-.045h-.01a2.21 2.21 0 0 0 .746.6015c.1708.089.3668.2003.4433.248.1688.1166.5395.2382.5995.209-.014-.032-.083-.068-.1562-.078-.069-.01-.1135-.024-.129-.041-.0002-.0008 0 0 0-.01 0-.0008-.0001 0 0-.01.0005-.0008 0-.01 0-.01.017-.026.08-.054.1837-.072.327-.06.5034-.3325.2539-.41a.99.99 0 0 1-.295-.2403l-.1835-.205-.3691.035c-.3327.031-.3817.024-.4726-.068-.051-.052-.082-.075-.1016-.072zm-3.8277.09c0 .0001 0 0-.01 0-.0008.0007 0 0 0 0zc-.062.063.2004.2798.4355.3574.306.102.7192.1232.748.039-.019-.031-.1242-.058-.3085-.078a1.58 1.58 0 0 1-.4335-.094c-.2901-.1684-.3921-.2187-.4297-.2148zm1.8748.082c0 .01.018.026.041.049a3.22 3.22 0 0 0 .99.332 3.4 3.4 0 0 0-.9138-.371c-.059-.014-.096-.022-.1114-.019zm2.5642.049c.089 0 .198.022.2773.059.077.034.1213.072.1308.096.0003.001 0 0 0 .01-.01-.024-.052-.059-.129-.094-.1418-.066-.3815-.075-.4295-.027-.0005.001 0 0 0 0 .0002-.001 0 0 0-.01.0004 0 0 0 0-.01.0007-.0009 0 0 0-.01.022-.02.081-.029.1504-.027zm2.0233.254c-.063 0-.1084.015-.1211.039v.014c.0003.0007 0 0 0 .01.014.023.061.039.1172.039a1.45 1.45 0 0 1 .3417.078 1.24 1.24 0 0 0 .3536.074c.023 0 .04-.0009.049 0-.013-.018-.084-.053-.2227-.1134-.194-.081-.3973-.1268-.5233-.1269zm-6.226.07s0 .01.01.01a.486.486 0 0 0 .207.088c.055.011.089.014.1016.012 0 0-.012-.011-.025-.019-.095-.059-.2434-.1049-.2852-.098zm4.5308.039a2.06 2.06 0 0 1 .2988.029c.083.013.1495.041.1719.066.0008 0 0 0 0 .01.0009 0 0 .01 0 .01a.085.085 0 0 1-.033.045.085.085 0 0 0 .02-.035l.012-.01c-.0003-.001 0 0 0-.01-.019-.023-.085-.055-.172-.072a2.06 2.06 0 0 0-.2987-.021c-.024 0-.042.001-.051 0 .0006-.0005.01 0 .01 0 .01 0 .025-.01.049-.01zm-.1485.1c.063 0 .1239.022.1348.055.0005.0008 0 .01 0 .01.017.021.061.025.1054.01.023-.01.04-.018.049-.025-.01.01-.025.014-.049.023-.051.016-.096.011-.1152-.01-.0004-.001.0003 0 0 0-.025-.059-.211-.069-.2733-.019.024-.031.089-.045.1522-.043zm-6.1595.01a1.15 1.15 0 0 0 .162.166c.068.068.1085.1091.1232.1191 0-.012-.024-.046-.055-.098v-.01c-.061-.092-.1861-.1914-.2266-.1914zm3.4235 0c-.041-.0007-.073.01-.088.019-.065.074-.033.125.061.125h-.012a2 2 0 0 1 .3614.086c.2284.072.2846.075.3378.018.017-.018.031-.033.035-.041-.01 0-.027 0-.055.014-.034.012-.067.014-.082.01v-.01c-.014-.077-.3694-.1928-.545-.1954zm1.5214.064c-.028 0-.049 0-.061.01 0 .0007 0 0-.01.01-.01.013-.01.035 0 .068.017.067.069.1.16.1.111 0 .2287.012.3418.027l.205.027-.1796-.098a1.4 1.4 0 0 0-.3651-.127c-.042-.01-.075-.012-.1-.014zm6.0599.166a.16.16 0 0 0-.061.016c-.03.01-.05.023-.059.033v.01c0 .01.011.012.02.018.021.013.039.02.049.02.0006 0 0 0 0-.01.012.0004.033.011.055.029.035.03.094.031.166-.025.032-.024.052-.043.059-.053-.01.0004-.017 0-.031.01a.142.142 0 0 1-.129-.014.164.164 0 0 0-.084-.016zm-3.5954.021a.22.22 0 0 0-.096.076.204.204 0 0 1-.1328.078.53.53 0 0 0-.3515.1835c-.01.017-.01.032 0 .041.0006 0 0 0 0 .01.0008.0008 0 0 .01 0 .058.033.2789-.066.4238-.207.08-.079.1406-.1494.1503-.1719zm-6.0795.012c-.1296 0-.1978.011-.2518.055-.03.027-.051.047-.057.059.014.01.055.012.1289.018.094 0 .385.018.6445.033l-.01-.01a1.3 1.3 0 0 0 .6015-.039c.033-.018.057-.033.064-.043-.027-.012-.116-.017-.2968-.022a11 11 0 0 1-.668-.039c-.058-.01-.109-.01-.1523-.012zm1.9023.047c.01.019.037.054.082.1a.945.945 0 0 0 .541.2597c.055.01.087.017.1.014 0-.012-.03-.035-.07-.072a2.21 2.21 0 0 0-.6386-.3008h-.014zm1.6287.055v.053c.019.1318.084.1804.246.1815a1.66 1.66 0 0 1 .4062.1113 1.47 1.47 0 0 0 .6562.09.99.99 0 0 0 .3808-.053c.01-.016.038-.027.072-.027.042 0 .078-.021.078-.051-.029-.027-.1977-.05-.4218-.051a4.06 4.06 0 0 1-.6562-.053 6.4 6.4 0 0 0-.4628-.082.555.555 0 0 1-.2734-.088c0-.01-.01-.013-.014-.016zm-3.8863.1191c0 .0003 0 0-.01 0-.0007.01 0 .019.01.033.031.089.3845.1893.5742.166.037 0 .064-.01.074-.014-.017-.011-.07-.028-.166-.057-.1275-.037-.2936-.085-.369-.1113-.052-.015-.086-.022-.1035-.019zm-4.0426.043a.13.13 0 0 0-.074.051v.012c-.025.032-.043.069-.041.09.0007.0001.01 0 .01 0 .019 0 .049-.028.076-.059.031-.037.05-.077.045-.1zm5.1889.088h-.01l-.1172.033a1.44 1.44 0 0 0-.2324.1015l-.1328.078.1855-.033a.555.555 0 0 0 .2539-.1114c.03-.029.051-.055.057-.066zm-2.4783.043c0 .0001 0 0-.01 0 0 .024.053.08.1367.1465a1.03 1.03 0 0 0 .3399.1874c.055.011.095.034.1093.055.0006.001 0 0 0 .01.0003.001-.0001 0 0 .01 0 0 .0002 0 0 .01-.0003.001 0 0 0 .01s-.01.015-.01.02c.01 0 .015 0 .025-.01.017-.01.034-.013.045-.01v.024c.0004.0008 0 .01 0 .01.015.017.051.026.092.021.045-.01.092.01.1074.025.0003.0008 0 .01 0 .01-.029.025-.1963.046-.4686.049a1.1 1.1 0 0 1-.7207-.127 1.25 1.25 0 0 1-.2695-.1816c-.01-.01-.013-.015-.018-.018 0 .01-.01.019-.01.037a.476.476 0 0 0 .1523.2226c.1664.1597.1627.2295-.014.2383-.027 0-.049 0-.057.01.01.01.041.018.098.031.045.012.074.024.084.031-.017.01-.08.012-.1875.012a.45.45 0 0 0-.125.1015 1.087 1.087 0 0 1-.582.2071c-.045 0-.083.024-.09.051 0 .001.0002 0 0 .01 0 .028-.034.051-.078.051a.073.073 0 0 0-.078.068c-.019.041-.1776.1431-.371.2304a3.3 3.3 0 0 0-.4588.2461c-.042.035-.098.053-.129.045 0-.0004 0 0-.01 0-.0008-.0005 0 0 0 0a.0676.0676 0 0 0-.088.029.06.06 0 0 0-.014.029c.01 0 .019-.01.033-.016.017-.01.03-.017.037-.018-.0007.01 0 .015-.012.027a.155.155 0 0 1-.121.059c-.022 0-.04 0-.049.01q.0013 0 0 0c.0008 0 0 0 0 .01.024.067-.2388.2738-.3202.2421-.02-.01-.035-.011-.043-.012 0 .01.017.026.037.051.022.028.035.054.035.068a.72.72 0 0 0-.2011.2285c-.2473.3693-.332.3032-.332-.248a.89.89 0 0 0-.059-.3769c-.064-.064-.029-.257.033-.291.012-.01.026-.01.039 0 0 0 .01 0 .01.01-.0005-.017-.017-.055-.051-.1074-.075-.1165-.081-.155-.027-.1895a.123.123 0 0 1 .1094-.016c.0007.0003.01 0 .01 0 .01-.011.012-.031.012-.055 0-.048-.032-.08-.125-.062-.111.022-.123.012-.1-.1347.01-.057.015-.095.012-.1094-.01 0-.015.013-.027.029a.354.354 0 0 0-.057.168.165.165 0 0 1-.066.1268 1.195 1.195 0 0 0-.2988.6211.503.503 0 0 0 .07.2441.75.75 0 0 1 .1016.207h.016c.01.031.013.055.018.066.0005 0 0 .01 0 .01.01-.01.017-.033.033-.07a.286.286 0 0 0-.045-.25c-.1031-.1796-.11-.3656-.016-.4433.094-.078.1367-.023.1367.127a.9.9 0 0 0 .066.2734.94.94 0 0 1 .037.4433.645.645 0 0 0 0 .2851c.018 0 .2393.044.4922.098a7.2 7.2 0 0 0 .949.1211c.202.01.3373.013.3555.01 0 0-.011 0-.021-.01-.1098-.016-.1707-.037-.1856-.068-.0004-.0009 0 0 0-.01-.01-.029.022-.066.078-.1192.029-.029.051-.048.062-.053-.001 0 0 .011-.01.019-.012.022-.02.037-.021.045.01 0 .023-.016.047-.035.063-.051.111-.043.2286.017a.487.487 0 0 0 .2675.057c.059-.011.1004 0 .1133.016-.01.014-.031.028-.074.037-.044.011-.061.043-.039.078a14 14 0 0 0 2.3298.1601c-.0002-.0007 0-.01 0-.01-.024-.039-.1682-.065-.537-.1054a2.404 2.404 0 0 1-1.0195-.2832c-.088-.062-.1393-.1113-.1484-.1347.012-.001.033 0 .064.016.021.01.04.01.049.01-.001 0 0-.01-.01-.016a.102.102 0 0 0-.094-.045.9.9 0 0 1-.6913-.4043c.05-.024.2602.029.3554.098a.36.36 0 0 0 .1757.051 1.16 1.16 0 0 1 .5547.3457.998.998 0 0 0 .742.2324 1.76 1.76 0 0 1 .5703.1113c.3116.1216.736.1883.7872.1308-.0003 0 0 0 0 0a.803.803 0 0 0-.588-.199c-.068.015-.1281.01-.1503-.01v-.016c-.0008 0 0-.01 0-.01l-.01.01c-.027.01-.1138-.01-.1993-.047a1.36 1.36 0 0 0-.414-.074 1.495 1.495 0 0 1-.9764-.4747c-.1307-.1206-.2574-.2103-.293-.2129h-.01c-.01-.01-.012-.026-.012-.053a.083.083 0 0 0-.078-.088c-.037 0-.069-.016-.076-.035 0-.065.2555-.2903.3164-.287.01-.011.017-.039.017-.078s.01-.072.023-.084c.0008-.0004.01 0 .01 0h.01c.0009.0003 0 0 0 0 .013.01.026.01.035.01v-.018c0-.1043.394-.3196.537-.293.048.01.086.01.1035 0-.0006-.0009 0 0 0-.01-.017-.069.2269-.3006.3204-.3006.039 0 .07-.022.07-.051.0005-.0007 0-.01 0-.01.048-.039.3609-.024.4374.027.0009.0006 0 0 .01 0 .031.012.093-.01.1426-.045.035-.026.059-.046.066-.055-.01 0-.037 0-.082.016-.142.035-.154-.059-.025-.205.027-.031.044-.057.047-.068 0 0-.01 0-.012.01a.0654.0654 0 0 1-.092-.024c-.01-.01-.01-.021-.01-.029.01 0 .013-.01.023-.01s.018 0 .024-.01c.01-.012 0-.029-.01-.049 0 0 0-.011-.01-.014.012.01.037.031.068.066.1298.1474.1678.1448.3164-.014.051-.055.075-.095.076-.1153-.0008-.0003-.01 0-.01 0-.03 0-.096.024-.1836.082-.056.037-.1061.053-.1347.045 0-.0008-.01 0-.01-.01-.001-.0006-.01 0-.01 0-.0007-.0009 0 0 0 0-.04-.062.0008-.087.2148-.1309.087-.018.1389-.043.1543-.064.0004-.0008 0 0 0-.01 0-.0008.0002 0 0-.01-.0005-.0008 0-.01 0-.01-.018-.021-.073-.04-.164-.055-.2507-.04-.4428.059-.4063.209.012.048.01.084-.01.1015-.0008.0007-.01 0-.01 0-.001.0005 0 0-.01 0 0 .0003 0 0-.01 0 0 .0004-.01 0-.01 0a2.01 2.01 0 0 1-.6641-.3319.23.23 0 0 0-.1425-.082zm-2.4567.01c-.01.01-.018.031-.018.053 0 .01 0 .021-.01.027-.0006 0 0 0 0 .01l-.01-.01c-.029 0-.105.058-.1817.1367-.071.074-.1273.1401-.1386.164-.01.02-.047.075-.1016.1348-.057.062-.096.1277-.094.1582.0002 0 0 0 0 .01 0 0 .01 0 .01.01.0009.0002.01 0 .01 0 .02 0 .043-.018.061-.045a.0765.0765 0 0 1 .096-.037h.012c.028.017.063-.0003.08-.047 0-.04.033-.066.055-.066.1043.026.4183-.1656.5468-.332.053-.069.083-.1228.086-.1464q.0001 0 0 0c0 .0004-.01 0-.012 0-.048.018-.08.049-.08.074 0 .011-.01.024-.012.031l-.01.01h-.019c-.065-.01-.1205 0-.1445.021-.001 0 0 0-.01.01-.0007 0 0 0 0 .01v.045c-.01 0-.017.0002-.027 0-.0008-.0003-.01 0-.01 0-.021-.016-.032-.065-.025-.117.01-.053 0-.1003-.01-.1153zm7.0558.01c0 .0002 0 0-.01 0-.001.0004-.01 0-.01 0v.012c.022.041.188.1.2344.084-.01-.021-.055-.05-.1113-.076-.046-.023-.091-.036-.1153-.031zm.4903.086c-.01 0-.021.01-.025.01.01 0 .019.012.037.018a3.66 3.66 0 0 1 .6757.4393.92.92 0 0 0 .7479.031c.1-.093.077-.2442-.035-.2442a.56.56 0 0 1-.1797-.029.08.08 0 0 0-.076.01c.017.022.077.047.1485.047.1109 0 .156.024.156.084s-.042.078-.2947.051a.94.94 0 0 1-.377-.1113 2.83 2.83 0 0 0-.7772-.3339zm-.8066.1034c-.01.0008-.019 0-.023.01.01.018.059.053.1523.1094a2.17 2.17 0 0 0 .5312.1992 1.5 1.5 0 0 1 .3926.1368c.024.021.044.033.057.035v-.018c0-.122-.2016-.2524-.4434-.289a1.54 1.54 0 0 1-.3905-.1094.73.73 0 0 0-.2578-.072c-.012 0-.023-.0008-.031 0zm2.6248.1074c-.027 0-.085.025-.1661.07-.041.025-.071.044-.082.055a.05.05 0 0 0 0 .01h.061a.286.286 0 0 0 .164-.074c.022-.022.034-.04.037-.051a.1.1 0 0 0-.01 0zm-3.0681.2032c.0006.016.02.047.062.092a1.674 1.674 0 0 0 .6504.416c.056.01.093.01.1073 0-.0002-.0007 0 0 0-.01-.017-.03-.1-.085-.2401-.1562a.97.97 0 0 1-.254-.1679.11.11 0 0 0-.029-.024c-.018 0-.057-.031-.1-.072-.074-.069-.1368-.104-.162-.1035zm7.4368.023.08.1992a.444.444 0 0 1 .051.2266l-.01.01c-.001.0004-.01 0-.01 0-.0003 0 0-.01 0-.01-.0006-.0002-.01.0001-.01 0-.018 0-.051.01-.09.029a.194.194 0 0 0-.1015.1444c0 .022 0 .039.01.047 0 0 .01-.01.014-.012a.65.65 0 0 1 .1777-.123c.1752-.091.1789-.1644.014-.3496zm-.2051.019c-.0006 0 0 0 0 .01-.01.021-.011.066-.01.1387 0 .1031.011.2364.016.293l.01.1015.045-.1016c.066-.154.059-.3678-.014-.4277-.01-.01-.014-.011-.019-.014h-.012zm-4.0308.014-.2696.098c-.102.038-.162.066-.1757.082.01 0 .018.01.033.01.1039 0 .3852-.114.4199-.17.0004-.0009 0 0 0-.01s.0007-.011 0-.014c0-.0002 0 0-.01 0zm-9.179.01a1.93 1.93 0 0 0-.3084.125 1.44 1.44 0 0 1-.332.125c-.093 0-.273.1853-.3262.334-.012.029-.021.051-.023.062-.0002.0008 0 0 0 0 .012-.01.033-.025.066-.055a.234.234 0 0 1 .207-.055c.087.023.1162.0004.1406-.094a.37.37 0 0 1 .2227-.207c.162-.072.3325-.1818.3593-.2247.0004-.0008 0-.01 0-.01a.1.1 0 0 0-.01 0zm7.2378.2226.076.1582c.1032.2151.27.2812.6015.2402l.2734-.033-.375-.064c-.2771-.051-.4013-.098-.4745-.1914zm.5467.018h-.01c-.001.0002-.01 0-.01 0 .0002.001 0 0 0 0 .03.049.2649.1364.3203.1211.0008-.0003.01 0 .01 0-.017-.016-.081-.051-.1621-.088-.062-.028-.1151-.045-.1426-.045zm-2.902.1602c.01.01.03.026.066.053.089.064.368.1328.4277.1151a.1.1 0 0 1 .01 0 1.24 1.24 0 0 0-.4024-.1483c-.049-.011-.083-.019-.098-.019zm-1.3026 0v.024a.1974.1974 0 0 0 .2324.1522c.034-.013.056-.026.062-.037-.0008-.0009 0 0-.01 0-.017-.012-.054-.024-.1112-.033a.253.253 0 0 1-.1406-.068c-.01-.01-.016-.018-.021-.021zm10.5966.1601c.02.014.034.025.039.031 0 0-.014.0008-.027 0h-.01a.284.284 0 0 0-.166.01.286.286 0 0 1 .162-.049zm.025.043c.016 0 .031 0 .045.014a.2.2 0 0 1 .021.019.28.28 0 0 0-.066-.033m.3124.057c.01.01.024.017.043.029l.018.012c.01.01.02.019.047.037-.036 0-.061 0-.07.01l.01.01c-.021-.013-.041-.028-.047-.035l-.018-.012c-.032-.02-.053-.035-.061-.045.0008-.0004 0 0 .01 0 .012 0 .034 0 .066-.01zm-.373.01a.25.25 0 0 1 .064 0 .84.84 0 0 0-.207.059.25.25 0 0 1 .074-.045.2.2 0 0 0-.016.012.8.8 0 0 1 .084-.029zm.5058.041c.015-.0006.034 0 .059 0a.72.72 0 0 1 .1485.08.7.7 0 0 0-.07-.014h-.024a.7.7 0 0 0-.1113-.025c0 .0002-.01 0-.014 0a.11.11 0 0 1-.023-.025h.027zm-.8436.057a.5.5 0 0 1-.057.031.18.18 0 0 0-.039.02h-.065c.01-.01.025-.014.055-.025h.063a.25.25 0 0 1 .039-.019zm.914.043c.084.055.1438.097.1933.1347a.294.294 0 0 1 .084.1387.5.5 0 0 0-.027-.021.3.3 0 0 1 .027.029.3.3 0 0 1 0 .023c.011.058.02.096.027.1094 0 0 .01-.013.01-.023a.3.3 0 0 1 .01.037.4.4 0 0 0 .012.049c0 .01-.01.017-.012.021-.01-.013-.014-.041-.023-.09a.14.14 0 0 0-.01-.027.43.43 0 0 1-.031.072c-.0006.001 0 0 0 0-.01-.013-.014-.049-.025-.1074a.286.286 0 0 0-.088-.1719 3.8 3.8 0 0 0-.2383-.166l.016.01c.012 0 .038 0 .078-.01zm.2714 0a1 1 0 0 1 .029.018v.01c-.01-.01-.019-.015-.029-.023zm-10.9442 0a1.14 1.14 0 0 0 .5899.1367c.014 0 .026-.011.031-.016-.019-.013-.077-.026-.1816-.041a4 4 0 0 1-.3633-.066c-.035-.01-.061-.012-.072-.01zm-.7031.062c.01.01.027.027.057.049a.536.536 0 0 0 .2832.072c.063 0 .1043 0 .121-.01.001-.0004 0 0 0 0-.01-.01-.023-.013-.043-.022a2.1 2.1 0 0 0-.2831-.072c-.078-.014-.1208-.022-.1348-.018zm8.8566.037c-.07 0-.15.031-.207.074a.674.674 0 0 1-.332.08c-.101 0-.1557.01-.17.014.01.01.033.018.074.033a.555.555 0 0 0 .332 0c.111-.029.271-.067.3497-.082.057-.012.101-.035.1133-.057.0004-.0009 0 0 0-.01.0002-.0009-.0001 0 0-.01-.0002-.0009 0 0 0-.01-.023-.037-.086-.054-.1563-.049zm-12.8874 0c-.029 0-.082.028-.1582.07a1.4 1.4 0 0 1-.2226.1.132.132 0 0 0-.088.1172c.0004.022 0 .041.01.051.01 0 .021-.011.035-.025a.222.222 0 0 1 .1327-.061.49.49 0 0 0 .209-.1348c.057-.052.088-.09.092-.1093 0-.0006-.01-.001-.016 0zm7.6418 0a.65.65 0 0 0-.168.029c-.082.033-.031.1191.072.1191a.57.57 0 0 1 .2285.1114c.069.047.1104.07.1309.07.0006-.0009 0 0 0-.01v-.037c0-.026-.01-.048-.019-.057-.0008.0002-.01 0-.01 0 0 .0007 0 0 0 0a.059.059 0 0 1-.082-.023c-.018-.029-.0008-.065.047-.082.048-.017.068-.053.053-.078a.65.65 0 0 0-.254-.041zm8.0793.029c.01.0001.016 0 .029.01.021.019.034.035.039.045 0 .0005-.01.0002-.01 0-.031-.026-.051-.045-.059-.055zm.658.033c.01.0004.021 0 .033.01 0 .011-.01.028-.01.051 0 .074.059.215.1173.3125a.78.78 0 0 0 .1132.1796h-.01c-.017 0-.042-.03-.066-.066h-.01c-.065-.026-.2011-.3016-.2011-.4199.0003-.024 0-.043.01-.055.0009-.0002.01.0002.01 0s0 0 .01 0zm-3.3784.088c.0002.001 0 0 0 .01.01.023.046.066.098.1152.073.064.1486.1028.1757.1.0003-.0008-.0001 0 0-.01 0-.001.0002 0 0-.01-.013-.061-.1992-.2129-.2733-.2109zm3.527.012c.0005 0-.0006 0 0 0-.0006-.0002 0 .0002 0 0 .0004 0 0 0 0 0m-10.7295.016c0 .0002 0 0-.01 0v.02a.87.87 0 0 0 .2227.1523c.103.058.2794.1562.3926.2305a.81.81 0 0 0 .3885.123h.1778l-.2051-.061a1.8 1.8 0 0 1-.4433-.2227c-.191-.1342-.4611-.2575-.5254-.25zm10.7783.047c0-.0002.01.001.016 0a.16.16 0 0 1 .012.033.2.2 0 0 1 0 .016.16.16 0 0 1 0 .055.207.207 0 0 0 .033.1601.0665.0665 0 0 1 .035.068.79.79 0 0 1-.1172-.2285 1 1 0 0 1-.012-.055c0-.023.01-.04.012-.049h.014zm-.8163 0s-.0001 0 0 .01c.0002.001 0 0 0 .01v.012l-.01-.014c.0009 0 0-.01 0-.01zm-11.4696.1211c-.021 0-.038 0-.051.01-.031.011-.055.02-.062.027.021.011.095.022.2422.039a1.54 1.54 0 0 1 .244.043c.022.01.045 0 .057 0 0-.0008 0 0 0 0-.0002-.001 0 0 0-.01-.037-.053-.3028-.1152-.4373-.1055zm2.4509.061a.635.635 0 0 0 .2656.1211 1.53 1.53 0 0 1 .3106.123l.01.012a.133.133 0 0 0 .1249.012c.019-.01.036-.013.045-.012 0 .01 0 .015-.01.025-.012.019-.016.035-.014.045h.014a.64.64 0 0 1 .1445.035c.024.01.044.017.053.018-.01-.012-.027-.036-.066-.078a2.27 2.27 0 0 0-.8983-.3222zm8.0442 0 .1914.012.064.023-.1211-.01.066.022.244.016a.7.7 0 0 1 .1075.012.7.7 0 0 1 .08.041.3.3 0 0 1 .033.039.6.6 0 0 0-.062-.012.66.66 0 0 0-.215-.041l-.244-.014-.068-.025.1212.01zm-12.3758 0c-.032 0-.058.01-.07.019-.0005.001 0 0 0 .01a.05.05 0 0 0 0 .01c.0009 0 0 .01.01.012a.236.236 0 0 0 .166.057.92.92 0 0 1 .332.1015c.076.038.1345.057.1562.053-.0004 0-.001-.01 0-.01h.01a.57.57 0 0 0-.2071-.1523c-.122-.061-.2915-.094-.3886-.09zm7.4817.047c0 .012.017.038.041.064.059.072.279.1428.3418.1152.0009-.0005 0 0 .01 0a1.04 1.04 0 0 0-.3848-.1835zm6.7318.072c.014.021.028.04.041.053a.07.07 0 0 1-.01.012.8.8 0 0 1-.037-.062zm-14.905.01c.05-.01.141.044.1447.1a1.2 1.2 0 0 0 .021.1524c0 .023 0 .044-.012.057.01-.012.01-.031.01-.053a1.2 1.2 0 0 1-.022-.1524c0-.057-.099-.1115-.1484-.1h.01zm-.033.019c-.0006 0 0 0 0 0s-.01.01-.01.014c0-.01.01-.012.01-.018zm13.4442 0 .1249.01h.027c.1272.044.2146.073.2695.084v.01c-.031.011-.139-.019-.3476-.092zm-.9082.061c-.027 0-.089.019-.1933.055a3.4 3.4 0 0 0-.2675.1035.37.37 0 0 1-.2227.023c-.066-.016-.1223-.01-.1445.02 0 0-.01.01-.01.014.0002.0006 0 .01 0 .01.01.01.021.018.039.019.1178.01.1743.017.1914.043.013.023-.0007.062-.027.1308h.01c-.05.1308.081.2284.293.2207a.66.66 0 0 1 .3339.078c.055.039.09.057.1093.059 0 0 0 .0002.01 0v-.037c0-.03.011-.059.024-.07.074.012.1235.01.1406 0-.012-.013-.044-.028-.1-.041-.3736-.089-.4802-.276-.2772-.4922.042-.044.067-.077.072-.094 0-.0003 0 0-.01 0zm.4942 0c.013 0 .041.01.086.021a.5.5 0 0 1 .051.014c.01.01.021.019.053.039h.01l.025.014a.7.7 0 0 1-.051-.035c.0009 0 0 0 0 0a.5.5 0 0 1 .082.045c.01 0 .011.012.014.016 0 .0006 0 0-.01 0a.6.6 0 0 0-.066-.023c-.042-.011-.07-.017-.082-.018.01.01.024.019.053.037l-.027-.014c-.032-.019-.05-.032-.057-.039 0 0 0-.0003.01 0l-.025-.014v-.01c-.038-.022-.062-.038-.07-.045zm1.6209.043c0 .0003 0 0 0 0v.031a.2.2 0 0 0 .078.1094c.059.05.065.082.019.1367-.029.035-.043.062-.043.078.023 0 .069-.02.1269-.07.1453-.1276.1413-.1847-.019-.2578-.096-.043-.1396-.062-.1601-.057zm-15.1958.018c-.0007 0 0 .01 0 .014a1.63 1.63 0 0 0 .3769.5762.945.945 0 0 0 .5605.3143c.076-.0009.1257-.013.1426-.029-.0001.001.0002 0 0 .01a.1.1 0 0 0 0 .01c-.0007.0007 0 0-.01 0-.022.015-.07.022-.1465.022a.945.945 0 0 1-.5683-.3144 1.63 1.63 0 0 1-.3652-.576c0-.01.0005-.014 0-.018zm1.248.014h-.018c.01.064.2233.197.3925.2363.054.012.09.019.1055.018 0-.0002 0 .0003 0 0-.01-.01-.019-.025-.041-.047-.082-.084-.356-.2075-.4393-.2089zm-1.9002.014h.014l.072.057zm14.5005.041a.5.5 0 0 1 .064.029v.01a.6.6 0 0 0-.064-.037zm-10.091.01v.01c0 .02.033.058.096.1113a1.406 1.406 0 0 0 .9004.3418c.011 0 .021-.01.025-.014-.019-.021-.091-.05-.2266-.096a2.55 2.55 0 0 1-.4921-.2227c-.1456-.091-.254-.131-.2891-.121zm10.0422.018a.4.4 0 0 1 .059.014.3.3 0 0 1 .051.021.36.36 0 0 1-.1113-.033zm-14.0182.074a.5.5 0 0 1 .1093.086.2.2 0 0 1 .027.049c-.017 0-.059-.011-.131-.035h.01l-.018-.01a1 1 0 0 1-.088-.033 1 1 0 0 0 .094.033h-.01c.079.026.122.039.1368.035 0-.01-.014-.026-.031-.049a.5.5 0 0 0-.098-.08zm6.9993.029c-.056 0-.093 0-.1055.01h.014a.41.41 0 0 0 .1797 0h.016c-.013 0-.049-.01-.1055-.01zm-1.1034.094.1718.076c.1265.054.1648.097.1426.1621a.2.2 0 0 0-.014.051c.01-.01.021-.022.045-.051.064-.079.083-.08.2402.066.1574.1464.5544.2884.6132.2208-.015-.04-.1412-.1147-.4864-.295a1.73 1.73 0 0 0-.5663-.2089zm-6.3314.1035c.097.097.1605.1702.1659.1953-.015 0-.042-.013-.074-.037.028.02.053.03.066.027-.0002-.0009.0002 0 0-.01-.011-.029-.068-.095-.1562-.1797zm3.4996.037c0 .0001 0 0-.01 0h-.012c.0002.0008 0 .01 0 .01.032.05.2778.1531.3262.1367-.013-.019-.075-.057-.1543-.094-.064-.034-.124-.053-.1504-.051zm-4.064.098c.01.054.079.1577.166.2246h-.01c.032.026.055.045.064.051 0 0 .01.01.01.012-.01 0-.03-.023-.064-.053-.093-.075-.1667-.1865-.168-.2383zm.074 0a.058.058 0 0 1 .012.035.35.35 0 0 0 .027.076.35.35 0 0 1-.035-.09.06.06 0 0 0 0-.023zm13.436 0a.32.32 0 0 0-.125.025 4.65 4.65 0 0 1-.99.1114 1.34 1.34 0 0 0-.3515.055c.054.055.6482.076 1.0663.025v-.01a3.9 3.9 0 0 1 .6093-.035c.037.01.065.01.078.01 0-.0003 0 0 0 0 0-.01-.015-.026-.035-.049a.318.318 0 0 0-.258-.1368zm2.3183.053a.08.08 0 0 0-.039.014l-.01.01a1.8 1.8 0 0 1-.2578.027c-.038 0-.073.012-.1094.012-.037 0-.081.012-.1211.01a1.47 1.47 0 0 0-.5546.078.82.82 0 0 1-.3105.082.86.86 0 0 0-.2597.049c-.014.01-.025.011-.029.016.037.013.2855-.011.9276-.084.5858-.066.7972-.1004.8358-.1484.0007 0 0 0 0-.01.0004-.0009 0 0 0-.01v-.01c-.0005-.01 0-.014-.01-.022a.079.079 0 0 0-.072-.035zm-9.1163.01a.7.7 0 0 0-.1543.023.92.92 0 0 0 .2695.08c.1486.031.3258.07.3945.088.041.01.069.013.084.01.0008-.0004.01 0 .01 0v-.01c-.001-.01 0-.012-.01-.019a.222.222 0 0 0-.1621-.059c-.053 0-.1044-.018-.1211-.039-.0005-.0008 0 0 0-.01-.0001-.0009 0 0 0 0-.026-.022-.117-.039-.2246-.039a.7.7 0 0 0-.078 0zm10.1533.1211c0-.0003 0 .0001 0 0 .0002.0008 0 0 0 .01 0 .011-.01.031-.016.059a.11.11 0 0 1-.055.049l.051-.01c.042-.024.069-.037.082-.039.0009 0 0 0 0 0-.0002.01 0 .017-.01.029a.34.34 0 0 0-.047.023 13.86 13.86 0 0 1-2.4705.3866c-.9692.074-2.978.166-4.8941.2071v-.01c-.2938 0-.5863.032-.8768.059h-.373a10.4 10.4 0 0 1 .949-.061c-.3414 0-.6826.01-1.0252 0a10 10 0 0 1 1.2089-.076c1.9162-.048 3.925-.1336 4.892-.209a13.76 13.76 0 0 0 2.4686-.3866c.045-.027.072-.043.086-.047zm-10.9814.043c-.023 0-.039.01-.049.019a1.13 1.13 0 0 1-.291.033c-.1346 0-.2477.027-.2675.049a2.4 2.4 0 0 0 .6307.035c.3335-.01.4919-.01.5274-.021.0008-.0004 0 0 0 0-.018-.01-.074-.023-.1543-.043-.1913-.052-.3241-.076-.3946-.068zm-7.4777.094c.068 0 .372.063 1.1522.248a7.76 7.76 0 0 0 1.363.1777c.4437.024.9026.068 1.0313.096.316.067 1.699.1471 3.5134.207.8095.027 1.5104.064 1.5525.082.026.011.057.01.074 0 .0005-.0009 0 0 0-.01v-.016c0-.1243.1688-.253.334-.252a.29.29 0 0 1 .2479.09c0 .01.011.015.016.019a.25.25 0 0 0-.1621-.027c-.1641 0-.332.1277-.332.252v.014c-.0003 0 0 0 0 .01-.0005.0008 0 0 0 .01-.017.013-.047.013-.076 0-.042-.02-.7431-.055-1.5526-.084-1.8142-.06-3.1964-.1417-3.5036-.2072a10.5 10.5 0 0 0-1.0311-.094 7.84 7.84 0 0 1-1.3612-.1778c-.8127-.1923-1.1107-.2562-1.162-.246-.0008.0002 0 0 0 0l.014.014a.18.18 0 0 1 .066.1465 4.38 4.38 0 0 0 .4706 1.4531.11.11 0 0 0 .049.041c-.026.015-.047 0-.086-.049l-.01-.012c-.02 0-.041-.013-.082-.066a4.41 4.41 0 0 1-.4687-1.453.175.175 0 0 0-.066-.1503c-.01 0-.011-.01-.014-.012 0-.0008.01 0 .012 0zm18.4415.082a.039.039 0 0 0-.017.055c.04.093-.035.2652-.1.2715h-.014c0-.0005 0 0-.01 0l-.012-.01c-.011-.01-.022-.011-.027-.012 0 .01 0 .014.012.025a.13.13 0 0 1 0 .123.67.67 0 0 0-.053.2207 1.87 1.87 0 0 1-.1192.5663c-.094.2396-.1525.2904-.2656.2305-.094-.051-.1247-.012-.1014.1231-.01.021-.048.049-.1.062-.031.01-.053.022-.062.033 0 .0008-.0001.01 0 .01 0 0 .01.01.014.012 0 0 .01 0 .01.01.01.032-.052.099-.172.1874a.68.68 0 0 1-.4296.1602 2 2 0 0 0-.414.057 3.3 3.3 0 0 1-.3613.066c-.084.011-.3758.055-.6464.1a3.43 3.43 0 0 1-.7303.051.77.77 0 0 0-.5137.1016 2.16 2.16 0 0 1-.4433.168l-.017.01.1112-.025a3.1 3.1 0 0 0 .3594-.1113 8.1 8.1 0 0 1 1.0565-.1543c.4679-.044.9979-.096 1.1698-.1152.1492-.016.235-.015.2597-.01-.016.013-.062.03-.1366.051.1174-.011.1877-.01.2108 0a1.2 1.2 0 0 0-.2226.01c-.172.019-.702.072-1.1698.1172a7.8 7.8 0 0 0-1.0566.1542 3.5 3.5 0 0 1-.3593.1114l-.1114.023c-.067.017-.1256.043-.1444.064a.1.1 0 0 0 0 .01c0 .0008-.0002.01 0 .01.014.013.045.018.082.01a5 5 0 0 1 .2442-.059 3.2 3.2 0 0 0 .3613-.1114 7.8 7.8 0 0 1 1.0566-.1542l.9823-.096a1.45 1.45 0 0 0-.4004.125.414.414 0 0 1-.2051.072h-.066c-.0008.0003 0 0 0 0 .01.01.026.026.057.051.02.016.035.03.041.039-.016.01-.071.011-.1718.014-.089 0-.2695.01-.4492.022h-.2637a.375.375 0 0 0-.1757.033l-.1542.012.3104-.068.1875-.037-.1641.012-.332.025a.15.15 0 0 0-.019.033c-.028.087-.066.099-.3788.09a.756.756 0 0 0-.4004.053.8.8 0 0 0 .098.01c.1013-.0008.1734.01.1934.018-.0008.0005 0 0 0 0-.01 0-.016.01-.019.012-.0004.0008.0004 0 0 0a1 1 0 0 1-.084-.01h-.014c-.011.012-.018.025-.019.033.02.016.083.025.203.027a.8.8 0 0 1 .078 0c.012-.013.018-.03.035-.039-.0008-.0005 0 0 0 0a1.6 1.6 0 0 0 .096-.027c.2773-.082.3547-.088.451-.035.018.01.032.02.037.027.0006.001 0 0 0 .01-.0002.0008 0 0 0 0 .013 0 .028.01.041.016.01.01.013.01.018.012-.089-.039-.1755-.029-.4295.047-.077.024-.14.037-.1954.049-.017.01-.022.022-.033.033a1.07 1.07 0 0 1-.207.01.96.96 0 0 0-.6112-.062h-.01s.01 0 .012.01c-.01.01-.023.013-.043.019h.012c.059 0 .096.01.1113.014-.01 0-.014.01-.023.014l-.125.033a1.7 1.7 0 0 1-.295.025 2.4 2.4 0 0 0-.541.062c-.1108.033-.2223.062-.2323.066a2.2 2.2 0 0 0-.2051.1113c-.1708.094-.3323.1003-3.0192.1191h-.4003c.8993 0 1.2698.016.824.016-.4457 0-1.1748.01-1.6227 0-.2662 0-.2362-.01.016-.01-1.6135.01-1.6892-.01-1.8866-.098a1.25 1.25 0 0 0-.3632-.1114.2.2 0 0 1-.1485-.049.093.093 0 0 0-.1113-.019c-.041.017-.076 0-.076-.033-.0001-.001 0 0 0-.01-.0004-.0009 0 0 0-.01l-.01-.01c-.025-.016-.084-.02-.1797 0a1.57 1.57 0 0 1-.498-.012 2.2 2.2 0 0 0-.2246-.031 2.98 2.98 0 0 1 .998.033c.032.016.059.023.078.018 0-.0008.01 0 .01-.01.012-.01.023-.023.031-.045.026-.07.083-.092.1367-.07a.153.153 0 0 0-.068-.045.4.4 0 0 0 .01-.072.4.4 0 0 0 0-.057.4.4 0 0 0-.01-.066c-.06.04-.1973.038-.508 0a21 21 0 0 0-.8845-.09 3.4 3.4 0 0 1-.664-.1113.85.85 0 0 0-.793.1015c0 .0001-.01 0-.01 0 0 .0003 0 0-.01 0a.08.08 0 0 0 .016-.035c.0002 0 0 0 0-.01 0 0 .0003 0 0-.01-.0002 0 0 0 0-.01-.0004-.0009 0 0 0-.01-.01-.01-.029-.015-.055-.019-.011.029-.043.062-.1171.1-.056.03-.078.049-.082.064.0002 0 0 .01 0 .01h-.014c-.014-.01-.027-.014-.033-.019-.0008-.0008 0 0 0-.01.0002-.0009 0 0 0-.01.01-.015.04-.035.094-.062a.24.24 0 0 0 .027-.019.41.41 0 0 1-.1621.059c-.012 0-.023-.011-.029-.016l-.01-.01c.0002-.0009 0 0 0-.01.0005-.0009 0 0 0-.01.012-.014.041-.032.088-.057.074-.039.1105-.072.1172-.1l-.055-.01a.155.155 0 0 0-.074-.022c-.02 0-.036 0-.045-.01 0 0 .01-.01.018-.014-.047 0-.077 0-.09-.012 0 0 0-.01.01-.01.1663.022.4216.048.6113.057.2117.011.5255.044.6952.074.422.071.601.087.6386.061-.01-.014-.041-.033-.08-.051-.039.025-.2126.01-.6307-.062a7.4 7.4 0 0 0-.6952-.072 8.3 8.3 0 0 1-.674-.064c-.2154-.035-.388-.024-.4256.012a.1.1 0 0 0 0 .01v.01c.0004.001 0 0 0 .01h-.029c-.012-.01-.02-.017-.023-.023.0004 0 0 0 0-.01l.01-.01a.37.37 0 0 1-.068-.012c-.01-.01-.021-.015-.025-.021-.0006 0 0 0 0-.01-.0003-.0009 0 0 0-.01v-.01c.0007-.0008 0-.01 0-.01.042-.035.2192-.044.4336-.01.1585.024.4639.051.6757.062.2107.011.5256.045.6952.074.4298.072.5968.086.6309.057l.016.01a15 15 0 0 1 .5352.041 1.3 1.3 0 0 0 .1836 0c.078 0 .123-.017.1367-.031-.01-.015-.041-.03-.09-.045-.012.015-.046.028-.123.031a1.3 1.3 0 0 1-.1836 0c-.028 0-.1842-.018-.3594-.031a1.25 1.25 0 0 0-.2304-.01c-.012-.01-.024-.01-.029-.014h.045a.4.4 0 0 0-.061-.033c-.044-.014-.074-.025-.084-.031.022 0 .095-.0008.2304.01.1752.013.3335.028.3613.031a1.3 1.3 0 0 0 .1836 0c.083 0 .1105-.016.125-.031a1.05 1.05 0 0 0-.1778-.037l-.463-.062a.444.444 0 0 0-.3084.047c-.1.066-.1731.066-.5546 0a15 15 0 0 0-.7207-.094c-.81-.071-.9733-.093-1.0038-.1289a.067.067 0 0 0-.07-.023c.0005-.0008 0 0 0-.01.0002-.0009-.0002 0 0 0 0-.012 0-.024-.01-.031-.014-.01-.036 0-.066 0 0 .013-.01.025-.016.031-.01-.0003-.014 0-.021-.01 0 0-.01-.01-.012-.01.001 0 0 .011 0 .016-.01 0-.021 0-.029-.01-.001-.0003 0 0-.01 0-.0008-.0005-.01 0-.01 0-.01-.011-.011-.021-.014-.027a.13.13 0 0 1-.062-.037c.011 0 .015.0008.033-.01 0 0-.011 0-.016-.01.01.01.017.01.023.01 0-.0007.011-.01.014-.01 0 0 .01-.012.01-.018a.4.4 0 0 0-.049.012h-.018s-.01-.012-.01-.016c-.0008-.0004 0 0-.01 0 0-.0005 0 0-.01 0h-.017c.0004 0 0 .01 0 .01v.032c-.012 0-.024.01-.031 0 0-.01 0-.019.01-.033v-.023c-.036.013-.063.017-.076.014-.0002-.0009 0 0 0-.01.0004-.01 0-.017.01-.029v-.024c-.042 0-.068-.034-.1016-.055a.22.22 0 0 1-.059-.088l-.023-.129a.7.7 0 0 0-.047.047v.019a.274.274 0 0 0 .1113.1367c-.024-.012-.052-.017-.07-.037a.304.304 0 0 1-.1562-.1836v-.018l-.025.027a.15.15 0 0 1-.051.049 4.37 4.37 0 0 1-.4433-1.414.18.18 0 0 0-.066-.1484c-.01 0-.011-.01-.014-.012-.0005-.0007 0 0 0 0 .051-.011.3474.055 1.16.2481a7.84 7.84 0 0 0 1.3652.1757c.4436.022.9002.068 1.031.094.3029.067 1.685.1471 3.5036.207.1036 0 .2059.01.3047.01-.1128.01-.2601.017-.459.033a5.1 5.1 0 0 1-.701.012c-.1327-.015-.2337.0002-.2676.027 0 .001-.01 0-.01.01.051.027.3618.045 1.0604.045.668 0 .9278-.01.9706-.027-.012-.01-.042-.021-.082-.035a1.5 1.5 0 0 0-.127-.041c.4785.021.8247.044.8555.057.027.012.061.01.078-.01.0006-.0009 0 0 0-.01.0005-.0009 0 0 0-.01.0008 0 0-.01 0-.012 0-.1243.1675-.253.3339-.252a.275.275 0 0 1 .1386.023c.016.017.039.026.051.047a.3.3 0 0 0 0-.051c0-.07.035-.1172.084-.1172.024 0 .044.01.053.014-.0007 0 0 .01 0 .01.01.01.024.016.047.025-.01.019-.014.043-.014.07a.26.26 0 0 1 0 .049s.01 0 .01.01c.021.037.038.064.047.072v-.08c0-.044.013-.078.035-.096.031.01.065.018.1015.025.024.024.1422.064.2909.094a10.13 10.13 0 0 0 1.9393-.016c2.0182-.1 3.8168-.2232 3.859-.2676a1.61 1.61 0 0 0-.4902 0c-.102.01-.2026.01-.3047.016-.7141.055-1.8853.1273-3.1462.1894a10.13 10.13 0 0 1-1.9411.016 2 2 0 0 1-.164-.041 10.13 10.13 0 0 0 1.9314-.017c1.2597-.061 2.4328-.132 3.148-.1875a50.4 50.4 0 0 1-3.568.123c1.8686-.049 3.7945-.1319 4.7359-.205a13.76 13.76 0 0 0 2.3416-.3633zM4.0618 21.015a.13.13 0 0 0 .041 0 .03.03 0 0 1-.01 0 .06.06 0 0 0-.027-.014c.0002.0008 0 0 0 .01zm4.4449 1.0643a.2.2 0 0 1 .01.012c.01.015.016.025.021.031.0009 0 0-.01 0-.012a.14.14 0 0 0-.047-.031zm.047.031a.21.21 0 0 1 .037.049c.01.015.019.028.025.033.01-.015.01-.057.01-.1289 0-.078-.01-.1259-.023-.1445-.001-.0009 0 0 0 0-.01-.0004-.022.01-.037.019h-.012a.5.5 0 0 1 .01.064c0 .061 0 .099-.01.1192zm4.1715-3.1032a.256.256 0 0 0-.1543.053c-.0004 0 0 0 0 0 .0006.0008 0 .01 0 .01.02.016.074.025.1504.025.076 0 .1309-.011.1502-.027.0008-.0007 0-.01 0-.01-.0003-.0009 0 0 0-.01a.256.256 0 0 0-.1542-.053zm-1.537.016c-.089 0-.2241.012-.4452.037-.126.014-.1934.025-.213.035.01.01.035.018.074.029.166.051.7145 0 .7618-.055q0-.0014 0 0c-.037-.025-.079-.037-.168-.037zm-1.3085.074a1.6 1.6 0 0 0-.1913.019c-.015 0-.029.01-.035.012.023.01.1288.018.3143.019.2147 0 .3399 0 .3692-.012-.018-.01-.1072-.023-.2676-.037a1.6 1.6 0 0 0-.1933 0zm.4765.1328c-.065.0006-.1058 0-.1171.01.01 0 .013 0 .025.01a.54.54 0 0 0 .207 0c.01 0 .013-.01.016-.01-.015-.01-.062-.01-.131-.01m2.0799.3086c0-.0003.01 0 .01 0 .024 0 .044.01.053.016q-.0495-.018-.072-.033c0-.0006.01 0 .01 0zm-8.7472.053c-.056 0-.098.01-.1113.012h.017a.41.41 0 0 0 .1797 0c.01-.0007.012 0 .016 0-.013-.01-.05-.012-.1055-.012zm8.2258.018a.22.22 0 0 0-.1075.064c-.092.1-.051.2616.074.2616a.1774.1774 0 0 0 .1758-.1718.15.15 0 0 0 0-.051c-.03-.076-.085-.1119-.1445-.1035zm-3.6891.1836a1.17 1.17 0 0 0-.3028.035c.03.017.159.032.334.033.1698 0 .2707-.01.2989-.016-.01 0-.016-.01-.029-.014a1.17 1.17 0 0 0-.3027-.043zm-1.3885.039c.01.012.02.034.047.068a.88.88 0 0 0 .1269.1386c.063.047.3068.046.3594.012-.0002-.0007 0-.01 0-.01.015 0 .043 0 .08.01.032.01.058.01.07.01-.0003-.0008 0 0 0-.01 0 0-.01-.01-.01-.012a.665.665 0 0 0-.2832-.076 1.42 1.42 0 0 1-.332-.066c-.036-.015-.06-.025-.07-.025zm7.7746.2323a1.1 1.1 0 0 0-.1367.016c-.037.013-.061.021-.07.027.01.01.032.016.068.029a2.3 2.3 0 0 0 .4609.062c.1757.013.2678.019.2949.012-.011-.011-.045-.027-.094-.051v.01a1.14 1.14 0 0 0-.5292-.1035zm-9.1905.027a.56.56 0 0 0-.1367.021.57.57 0 0 0 .205.041c.094.01.1797 0 .2032-.014-.023-.016-.1057-.029-.2012-.029a.6.6 0 0 0-.068 0zm3.0016 0c-.093 0-.1791.019-.2031.041.0005.0008 0 0 0 .01.022.021.09.035.1699.035a.313.313 0 0 0 .2109-.051c.0005-.0009 0 0 0 0-.0005-.0008 0-.01 0-.01-.019-.017-.08-.027-.1738-.027zm-2.1795.1172c-.062 0-.107 0-.121.01 0 0 .013 0 .025.01a.54.54 0 0 0 .207 0c.01 0 .012 0 .016-.01-.012-.01-.058-.01-.127-.01m12.868.08c-.1803-.01-.2905 0-.3243.023l-.01.01c.047.057.4235.1047.5742.068.048-.012.079-.027.09-.039-.029-.027-.1468-.05-.332-.061zm-.5547 0c-.1046 0-.2507.01-.412.041-.1311.026-.2031.052-.2188.068.033.016.1596.023.369.016.2714-.01.4002-.033.4219-.07.0002-.0007 0-.01 0-.01-.0002 0 0-.01 0-.01-.0005 0 0 0 0-.01-.019-.024-.077-.037-.1621-.039zm-14.0396.019c-.021 0-.037 0-.045.01 0 0 .011.01.02.012a.76.76 0 0 0 .2559.051.86.86 0 0 1 .3026.082c.092.048.1634.074.1856.074-.01-.01-.023-.02-.053-.039-.073-.047.1872-.042 1.8006.025.2482.013.3802.012.4102 0-.01-.01-.026-.012-.051-.019a11.1 11.1 0 0 0-1.1347-.1 233 233 0 0 1-1.3884-.078c-.1475-.011-.2494-.013-.3047-.01zm6.6458.127s0 .01-.01.01l-.027.1953c-.022.1785-.042.2653-.072.2871-.0008.0003 0 0-.01 0-.017 0-.038-.011-.064-.033a.222.222 0 0 1-.078-.1464.36.36 0 0 0-.051-.162c-.017-.026-.03-.042-.041-.049-.001-.0005-.01 0-.01 0-.001 0 0-.0002-.01 0-.001.0002-.01 0-.01 0-.01.01-.021.023-.035.043a.368.368 0 0 0 .041.4275c.2473.222.5606.0006.494-.3475-.021-.113-.074-.2212-.1073-.2383zm3.1735.012a2.1 2.1 0 0 0-.4511.049c.036.028.2413.042.5489.039.2567 0 .3895-.01.4198-.017-.01-.01-.034-.013-.074-.021a2.1 2.1 0 0 0-.4492-.049zm-4.6401.049c-.014 0-.031.012-.051.031a.724.724 0 0 0 .039.5546c.029.011.053.013.068 0 .034-.024.037-.1158.022-.33-.011-.1559-.03-.2382-.061-.2578-.0008-.0003 0 .0001-.01 0-.001 0 0 0 0 0zm-.5781.01a.266.266 0 0 0-.2207.1328c-.078.122-.08.1558-.014.3476.048.1364.1114.2224.1758.2324h.01c.029.01.051.01.062.01h.01c0-.01-.014-.026-.031-.047-.047-.056-.075-.3948-.045-.447a1.17 1.17 0 0 1 .098.1795.604.604 0 0 0 .1817.2305c.029.015.053.024.066.025 0 0 0 .0001.01 0 .0004-.0008 0 0 0-.01 0-.014 0-.039-.01-.076a7 7 0 0 1-.049-.2714c-.042-.2562-.064-.2832-.2226-.2832a.3.3 0 0 0-.033 0zm3.2262 0c-.032.014-.053.1091-.045.2832l.016.3026.1855.016c.1997.017.3257-.077.2558-.1894-.032-.052-.066-.055-.1464-.012-.099.052-.1116.039-.1504-.158-.031-.1574-.073-.2374-.1054-.2443zm.9492.01a.28.28 0 0 0-.1875.096c-.1387.111-.1054.1926.123.2968l.162.074-.2128-.016c-.102-.01-.1617 0-.1836.016-.0007 0 0 0 0 .01v.029-.012c.069.1663.5332.1105.5332-.062 0-.089-.1558-.1835-.3066-.1835-.048 0-.091-.016-.1055-.037-.0004-.0008 0 0 0-.01-.0001-.0009 0 0 0 0 .0008-.0008 0 0 .01 0 .031-.021.1253-.038.2344-.039.1109 0 .1714 0 .1914-.014a.37.37 0 0 0-.051-.047.28.28 0 0 0-.2031-.064zm-3.0896.012a.58.58 0 0 0-.1426.019l-.1465.033.1348.1114a.386.386 0 0 1 .1328.2323.42.42 0 0 0 .074.2226c.022.029.041.05.053.057.011-.016.012-.069.012-.17a.4.4 0 0 1 .1445-.3475l.1387-.1289h-.1348a.92.92 0 0 1-.207-.022.6.6 0 0 0-.072 0zm1.3495.023c-.022.001-.042.01-.055.014 0 .0007 0 0-.01 0-.001.0008-.01 0-.01 0-.0006.001 0 0 0 .01a.05.05 0 0 0 0 .01c.0006 0 0 .01.01.016a.132.132 0 0 0 .1016.051h.012c0 .0008.01 0 .01 0 .017.024-.01.094-.076.2343a1 1 0 0 0-.1113.2578.45.45 0 0 0 .1817-.043.444.444 0 0 1 .3163 0c.069.024.1195.033.1425.024 0-.0005.01 0 .01 0 .0004-.0008 0 0 0-.01.0005 0 0-.01 0-.01a1.42 1.42 0 0 0-.2441-.4706c-.053-.059-.1976-.095-.2851-.092zm-3.5153.012-.3593.01.3065.043c.1952.029.3253.027.3575-.01-.026-.018-.1276-.027-.3047-.024zm10.3623.045c-.092-.0002-.1927.012-.2812.041h-.012c-.029.01-.05.018-.059.023.015.01.068.01.1602 0a1.26 1.26 0 0 1 .3456.033c.055.016.095.019.1132.01.0003-.0007 0-.01 0-.01 0-.064-.1253-.1012-.2792-.1015zm1.4627.1093c-.094 0-.1681.014-.1875.031.0005.0008 0 .01 0 .01.027.02.106.027.1894.014.099-.017.16-.032.1778-.043-.02-.01-.081-.012-.1817-.012zm-15.2328 0a.4.4 0 0 0-.133.023c-.02.021-.032.039-.033.053.0003.0007 0 .01 0 .01.022.024.1006.033.256.039a1.17 1.17 0 0 1 .322.051 1.17 1.17 0 0 0 .3732.019c.388-.02.5382.019.496.129-.01.017-.011.032-.012.041v.01q.018-.0014.066-.027c.1165-.062.118-.064.3809-.064.094 0 .1797-.016.2032-.035v-.01c-.0002-.001 0 0 0-.01-.024-.052-.2062-.09-.5956-.119-.8873-.067-1.0844-.086-1.252-.1114a.4.4 0 0 0-.09-.01zm13.7857.098c-.013 0-.117.015-.2324.025a8.5 8.5 0 0 0-.8495.1485 1.2 1.2 0 0 0-.1543.062c-.01 0-.021.01-.025.014.104.056.99.033 1.1874-.049.129-.054.2029-.077.2225-.074-.01.01-.023.024-.051.043-.015.01-.028.02-.033.025.011.0007.037 0 .08-.016.1258-.035.199-.066.2168-.092.0002-.0008-.0001 0 0-.01-.0001-.0008 0 0 0-.01-.0006-.0008 0 0 0-.01-.018-.018-.064-.037-.1367-.057a1.17 1.17 0 0 0-.2285-.043zm-3.5251.049a.09.09 0 0 0-.08.076.08.08 0 0 0 0 .023c0 .029.01.052.017.064 0 0 .01.01.012.01.016.01.041 0 .074 0 .055-.014.1015-.058.1015-.098s-.044-.072-.1015-.072a.1.1 0 0 0-.023 0zm-.4217.01c-.028 0-.062.012-.1036.029a.111.111 0 0 0-.064.1016c0 .111.2214.067.248-.047.012-.06-.018-.089-.08-.084zm-.5176 0h-.033c-.098.01-.1328.043-.1328.1113 0 .122.2219.096.244-.031.01-.026 0-.048-.01-.061-.0006 0-.01 0-.01-.01 0-.0009 0 0-.01 0-.013-.01-.033-.012-.061-.012zm-7.019.029a.5.5 0 0 0-.1287.012c-.01 0-.012.01-.016.01.022.018.1324.038.326.057a2.6 2.6 0 0 1 .4864.078c.099.047.5006.1048.5546.084a1.724 1.724 0 0 0-.7831-.207.78.78 0 0 1-.3125-.014.5.5 0 0 0-.127-.02zm-2.8063.1133h-.01a.03.03 0 0 0 .01 0m11.9149.029a1.9 1.9 0 0 0-.2324.02v.012c0 .0007-.01 0-.01 0 .025.013.1437.02.3184.02a1.3 1.3 0 0 0 .3828-.024 1.94 1.94 0 0 0-.461-.041zm-11.204.3828a.9.9 0 0 1 .2519.018h.023a2.7 2.7 0 0 0-.3573.016v-.01a.22.22 0 0 1-.047-.01.9.9 0 0 1 .125-.018zm7.134.096c-2.8154 0-2.8607 0-2.9938.1094a.3327.3327 0 0 0-.066.4667l.02.024c.215.2151.3437.2285 2.2654.2285 1.0135 0 2.2474-.015 2.7419-.033.845-.033.9066-.043 1.0175-.1543a.356.356 0 0 0 .023-.5019l-.023-.022-.125-.1172zm-3.7144.3847a.15.15 0 0 0-.035.053c-.015.039-.034.057-.064.053.01-.01.01-.016.014-.027.018-.049.05-.075.086-.078zm.127.072s.01.01.01.012a.1.1 0 0 0-.027 0 .1.1 0 0 1 .018-.016zm9.3545 0a1 1 0 0 1 .039 0 1.95 1.95 0 0 1-.3437.08v-.01c-.024.01-.05 0-.074 0 .02-.01.038-.01.062-.016a1 1 0 0 1 .035-.014h.035a2 2 0 0 0 .244-.045zm-10.8485.01a.184.184 0 0 0 .1288.025c.028 0 .054.01.082.01-.05.01-.097.0007-.1465.014a.186.186 0 0 1-.1288-.039 3 3 0 0 1 .068-.012zm.535.016a3.02 3.02 0 0 1 .7969.064c.024.013.042.02.059.021-.022.039-.054.041-.1114.01a3 3 0 0 0-1.1932-.018c-.025 0-.053-.0007-.074-.019.04-.01.081 0 .1209-.01-.021-.0004-.039-.01-.059-.01v-.01a.18.18 0 0 0 .062 0v.012h.023a3 3 0 0 1 .373-.045zm-.373.045h-.018c.01-.0006.011 0 .018 0m4.5758.545h.033c.5769.0005.9349.011.9628.018h-.1875v-.01c-.2107 0-.4845.01-.7616.01h-.082c-.2828 0-.5644.0007-.7773-.01-.4435-.01-.081-.016.8105-.016z"/></svg>