<svg xmlns="http://www.w3.org/2000/svg" fill="#44739e" viewBox="0 0 24 24"><path d="M18.715 2.533A2.872 2.872 0 0 0 16.822 2a8.94 8.94 0 0 0-2.908.525 1.1 1.1 0 0 0-.416.266Q11.8 4.39 10.24 6.13l-.08.088a.078.078 0 0 0 .075.127l.116-.025a50.4 50.4 0 0 1 5.008-.81.385.385 0 0 1 .428.39 46.1 46.1 0 0 0 .178 4.9l.01.105a.077.077 0 0 0 .058.067h.018a.077.077 0 0 0 .065-.033l.06-.086a46.4 46.4 0 0 1 3.012-3.842.624.624 0 0 0 .174-.346c.335-2.147-.183-3.734-.646-4.136ZM15.051 7.14v-.1A.079.079 0 0 0 15 6.966a.076.076 0 0 0-.085.022l-.066.077a48.55 48.55 0 0 0-7.08 10.808l-.043.091a.074.074 0 0 0 .013.086.072.072 0 0 0 .055.024.07.07 0 0 0 .031-.005l.093-.039a46.4 46.4 0 0 1 4.832-1.7.368.368 0 0 0 .224-.185c.708-1.379 2.351-4.049 2.351-4.049a.243.243 0 0 0 .032-.15s-.288-3.193-.306-4.809zM10.8 17.691l-.132.044a33 33 0 0 0-3.256 1.244.264.264 0 0 0-.1.108l-.077.177v.008c-.128.29-.3.725-.378.9l-.059.139a.061.061 0 0 0 .014.065.057.057 0 0 0 .065.01l.137-.065c.311-.148.7-.372 1.117-.568l.014-.007c.784-.372 1.669-.791 2.2-1.046a.35.35 0 0 0 .129-.131l.4-.8a.06.06 0 0 0-.008-.064.059.059 0 0 0-.063-.016ZM7.609 16.45c.055-.109.315-.607.373-.718l.011-.019a49.4 49.4 0 0 1 6.273-9.158l.067-.077a.077.077 0 0 0 .01-.087.079.079 0 0 0-.079-.04l-.1.014c-1.6.219-3.208.524-4.8.9a.634.634 0 0 0-.282.171 53.9 53.9 0 0 0-3.35 4.464.67.67 0 0 0-.058.263 35.3 35.3 0 0 0 .64 3.475c-.94 2.7-1.779 6.263-1.779 6.263a.076.076 0 0 0 .012.067.078.078 0 0 0 .061.032h.535a.079.079 0 0 0 .075-.051l.037-.1c.545-1.489 1.169-2.959 1.856-4.391.161-.334.5-1.008.5-1.008z"/></svg>