<svg xmlns="http://www.w3.org/2000/svg" fill="#44739e" viewBox="0 0 24 24"><path d="M12 2C7.3419 2 3.4397 5.1891 2.3281 9.5h6.7324C9.3398 8.1339 10.5541 7.0996 12 7.0996S14.6601 8.1339 14.9395 9.5h6.7324C20.5603 5.1891 16.6581 2 12 2m0 6.0996c-1.1105 0-2 .8895-2 2s.8895 2 2 2 2-.8895 2-2-.8895-2-2-2M2.125 10.5C2.051 10.9907 2 11.4886 2 12a10 10 0 0 0 .1621 1.7402l2.5352-.4512c.4643 2.1646 1.7512 4.026 3.5527 5.1387 2.3205 1.4291 5.1795 1.4291 7.5 0 1.802-1.1132 3.089-2.9753 3.5527-5.1406l2.543.4531A10 10 0 0 0 22 12c0-.5113-.051-1.0093-.125-1.5h-6.916c-.1986 1.4615-1.445 2.5996-2.959 2.5996S9.2396 11.9616 9.041 10.5zm17.846 4.4297c-1.2275 3.3433-4.4092 5.5668-7.9707 5.5703-3.561-.0032-6.7425-2.2259-7.9707-5.5684l-1.4941.2676C3.9068 19.2604 7.7139 21.9959 12.0003 22c4.2862-.0052 8.0925-2.7415 9.4629-6.8027z"/></svg>