<svg xmlns="http://www.w3.org/2000/svg" viewBox="0 0 24 24"><path fill="#44739e" d="M12.296 9.534s1.111.232 1.418.313c.717.187 1.472.334 1.578.379.191.081.952.611.952.611s.865.609.81.655c-.148.124-1.133.425-1.278.387-.324-.087-2.279-.546-2.45-.587-.171-.04-.839-.227-1.209-.35-.371-.122-1.295-.439-1.295-.439s-.016.016.082-.065c.097-.082 1.103-.867 1.103-.867s.061-.098.289-.037m8.245 5.16a1.278 1.278 0 0 1-1.278 1.278 1.278 1.278 0 0 1-1.278-1.278 1.278 1.278 0 0 1 1.278-1.278 1.278 1.278 0 0 1 1.278 1.278M6.91 14.41a1.602 1.527 0 0 1-1.602 1.528 1.602 1.527 0 0 1-1.602-1.528 1.602 1.527 0 0 1 1.602-1.527A1.602 1.527 0 0 1 6.91 14.41M1.112 7.347c-.038-.003-.079.01-.098.045-.016.032-.019.085-.004.117.004.006.007.009.01.016a2 2 0 0 0 .063.104c.054.083.105.168.158.25.061.099.124.194.184.289l.152.228c.127.179.741.091 1.601.131.184.353.904 1.116.904 1.116s-.51 0-1.324.412c-.814.411.029.95.029.95l.009 1.402v.522h.63l.025.01c-.347.393-.557.898-.557 1.45 0 1.251 1.07 2.264 2.397 2.264 1.304 0 2.36-.979 2.397-2.2.246-.015.525-.023.529-.023.342-.009.69.013 1.032.016.076 0 .152.003.221.029.295.11.437.49.735.617.168.073.358.073.541.073.539-.003 1.115.022 1.628-.184a5.9 5.9 0 0 0 .541-.247c.092-.047.184-.095.273-.149.098-.057.164-.126.281-.126.048 0 .092-.003.14-.003.145-.003.291-.004.437-.007l1.228-.019a134 134 0 0 0 1.14-.016c.133-.003.266-.003.399-.006h.266l.113.009a1.86 1.86 0 0 0-.025.286c0 1.07.922 1.937 2.055 1.937 1.04 0 1.899-.73 2.034-1.677.079.032.158.061.236.091.127.051.257.098.384.149 0 0 .291.142.433.089.143-.054.358-.691.358-.691.032-.088.044-.183.067-.275.003-.013.006-.029.012-.038.019-.028.083-.038.111-.07.032-.035.054-.076.073-.12.032-.073.057-.152.063-.234.01-.086.007-.178.007-.266-.004-.073.003-.149-.032-.212-.06-.111-.168-.105-.272-.105H22.6c-.009 0-.041.006-.047-.003-.006-.003-.006-.01-.009-.016-.026-.063-.308-.181-.377-.215-.092-.048-.079-.035-.098-.041a1 1 0 0 1-.086-.035 35 35 0 0 1-.62-.263.06.06 0 0 1-.026-.013c-.006-.006-.012-.019-.019-.028-.054-.105-.098-.206-.171-.295a1.06 1.06 0 0 0-.215-.196.76.76 0 0 0-.26-.114c-.079-.019-.161-.035-.24-.054-.152-.035-.304-.066-.456-.101-.165-.035-.326-.073-.491-.108-.133-.028-.263-.057-.396-.085-.057-.013-.117-.032-.174-.035-.031-.003-.196.009-.345-.003-.146-.016-.218-.041-.218-.041s-.384-.181-.501-.232c-.522-.228-.652-.424-1.108-.769-.218-.165-.465-.358-.959-.617-2.068-1.093-3.445-1.115-3.442-1.134.006-.032.003-.082-.019-.107-.003-.007-.013-.013-.019-.016-.111-.07-.221-.14-.335-.2-.035-.019-.365-.199-.358-.069.009.196-.013.256-.013.256l-1.279-.006s-.124-.007-.149-.023c-.142-.095.117-.623.209-.797s-.057-.19-.057-.19-1.732.104-1.909.104-.193.07-.193.07-.029.32-.01.421c.019.098.19.095.311.136.082.029.053.152 0 .2a.1.1 0 0 1-.016.009c-.092.051-.197.073-.301.076a6.2 6.2 0 0 0-.481.029c-.2.018-.399.05-.592.101-.13.035-.26.079-.38.139-.073.038-.149.082-.213.139-.019.019-.037.035-.056.057-.02.019-.035.057-.054.073-.003.003-.01.003-.013.007a4.4 4.4 0 0 1-.472.205c-.155.057-.332.073-.494.073a1.66 1.66 0 0 1-.253-.019c-.076-.009-.161-.022-.231-.054-.076-.034-.139-.092-.206-.145s-.136-.105-.206-.159c-.142-.114-.297-.224-.427-.357-.053-.054-.112-.143-.169-.235.041.007.08.009.121.016.086.013.168.029.254.041.076.013.149.022.225.035.057.01.11.019.164.025.035.007.073.013.111.016.025.003.054.007.079.01.013.003.025.006.038.003.01-.003.022-.006.032-.013a2.6 2.6 0 0 0 .133-.069c.06-.035.123-.07.18-.108.022-.016.045-.032.064-.051.009-.009.019-.015.025-.028s.003-.032 0-.044-.01-.026-.019-.032l-.029-.01c-.034-.009-.069-.015-.104-.025l-.07-.019a.9.9 0 0 0-.085-.022c-.032-.01-.067-.016-.098-.025l-.111-.029c-.041-.013-.083-.022-.124-.032-.044-.009-.088-.022-.133-.031-.047-.013-.095-.022-.142-.035l-.152-.038c-.054-.013-.105-.025-.158-.038-.057-.013-.111-.028-.165-.041-.057-.013-.111-.029-.168-.041s-.114-.029-.171-.042c-.057-.015-.117-.028-.174-.044s-.117-.028-.174-.044c-.06-.016-.117-.029-.177-.045-.057-.015-.118-.028-.175-.044-.06-.016-.117-.028-.174-.044-.057-.013-.114-.029-.171-.041-.053-.013-.111-.029-.164-.041a3 3 0 0 0-.162-.041c-.054-.013-.104-.026-.155-.039a2.4 2.4 0 0 1-.146-.034c-.047-.013-.092-.023-.139-.035-.041-.01-.085-.023-.127-.032a5 5 0 0 1-.117-.029c-.035-.009-.069-.015-.104-.025-.032-.006-.06-.016-.092-.022a3 3 0 0 1-.079-.019c-.022-.006-.041-.01-.064-.016a.26.26 0 0 0-.047-.012c-.01-.004-.019-.004-.028-.007-.004 0-.007-.003-.01-.003a.24.24 0 0 0-.063-.009Z"/></svg>