<svg xmlns="http://www.w3.org/2000/svg" viewBox="0 0 24 24"><path fill="#44739e" d="M8.216 1.969c-3.118 0-5.627 2.509-5.627 5.627v2.891H1v3.263h1.589v2.652c0 3.118 2.509 5.629 5.627 5.629h8.806c3.118 0 5.627-2.511 5.627-5.629v-2.609h.141a.209.209 0 0 0 .21-.21v-2.844c0-.117-.093-.208-.21-.208h-.141V7.596c0-3.118-2.509-5.627-5.627-5.627ZM4.319 9.456l1.066.002c1.138.002 1.072 0 1.263.033.308.052.644.189.885.363.13.094.29.249.377.361.205.266.312.552.323.865.008.235-.037.444-.145.663-.137.279-.341.507-.63.698l-.094.063.599.83c.328.457.645.897.704.979l.108.151H7.262l-.6-.836-.601-.833H5.65v1.669H4.319v-2.503Zm1.331.829v1.682l.26-.002c.232-.003.269-.005.32-.016.346-.077.6-.34.659-.679.014-.075.014-.215 0-.29a.842.842 0 0 0-.563-.655c-.111-.038-.156-.04-.431-.04Zm4.692.181c.173.003.259.014.408.047.605.135 1.121.542 1.391 1.097.314.643.268 1.41-.123 2.006-.34.518-.892.852-1.511.919-.09.009-.267.012-.355.006-.828-.058-1.537-.601-1.801-1.38-.066-.194-.099-.384-.106-.598-.028-.897.527-1.701 1.381-1.993.238-.081.439-.11.716-.104m2.272.074h1.336v1.544l.769-.769.769-.767h2.737v1.071c0 1.069.003 1.27.021 1.403.04.284.141.428.324.475.089.023.237.017.347-.012.18-.047.337-.168.452-.353l.031-.053v-2.531h1.33v3.916h-.28l-.301-.261-.302-.261-.051.053c-.254.26-.621.458-.981.524-.146.027-.261.032-.441.022-.634-.037-1.096-.307-1.322-.773-.067-.138-.11-.274-.138-.444-.014-.084-.013-.085-.015-1.34-.001-.691-.006-1.257-.008-1.257s-.384.38-.85.845l-.845.848 1.022 1.022 1.022 1.022h-1.677l-.807-.796-.802-.799-.002.799-.004.796h-1.334V12.5ZM1.4 10.843h.781v.166c0 .178-.001.169-.006.198a.35.35 0 0 1-.057.138.33.33 0 0 1-.057.059c-.041.032-.084.049-.133.051a.21.21 0 0 1-.104-.024c-.044-.021-.078-.053-.108-.098l-.012-.016-.127.096c-.072.052-.14.099-.153.108l-.024.018v-.237l.13-.093.129-.094v-.065H1.4v-.103Zm.389.207.002.044c0 .036 0 .039.002.047.012.054.053.094.105.104a.16.16 0 0 0 .044 0 .132.132 0 0 0 .102-.089c.005-.017.007-.025.007-.068v-.038H1.92Zm8.504.375c-.306 0-.568.347-.641.846-.016.107-.016.363 0 .467.044.293.15.53.302.682.092.093.19.145.29.155a.42.42 0 0 0 .147-.007.45.45 0 0 0 .094-.036c.237-.121.41-.438.459-.838a2 2 0 0 0 .01-.194c0-.192-.022-.336-.076-.5-.116-.354-.341-.575-.585-.575m-8.599.03a.318.318 0 0 1 .312.215c.013.037.017.071.016.114 0 .027-.001.038-.006.061a.326.326 0 0 1-.171.22.319.319 0 0 1-.313-.02.325.325 0 0 1-.144-.237.4.4 0 0 1 0-.055.317.317 0 0 1 .214-.281.3.3 0 0 1 .092-.017m.01.217c-.014 0-.027.003-.035.004-.046.007-.082.022-.106.045a.08.08 0 0 0-.024.047c0 .009-.002.013 0 .022a.1.1 0 0 0 .006.016c.019.037.068.063.13.07a.3.3 0 0 0 .031.002c.03 0 .051-.001.077-.009.055-.019.092-.057.092-.095 0-.047-.056-.086-.133-.098a.3.3 0 0 0-.038-.002Zm-.304.465h.61v.21h-.239l.118.118.121.12v.427h-.166c-.167 0-.199.001-.22.004-.044.006-.067.023-.075.051a.13.13 0 0 0 .002.055c.008.028.026.053.055.071l.01.004h.394v.208H1.4v-.045l.039-.046.042-.049-.008-.007a.3.3 0 0 1-.082-.153c-.005-.023-.004-.041-.002-.069.005-.099.047-.171.119-.206a.23.23 0 0 1 .069-.022c.013-.002.014-.001.21-.002.108 0 .196.001.196 0s-.061-.062-.133-.135l-.132-.129-.159.158-.159.159v-.261l.124-.125.125-.126H1.4v-.106Z"/></svg>