<svg xmlns="http://www.w3.org/2000/svg" viewBox="0 0 24 24"><path fill="#44739e" d="M10.252 21.034a.522.522 0 0 0 .382-.158.612.612 0 0 0 .16-.478.667.667 0 0 0-.16-.49.52.52 0 0 0-.382-.148.532.532 0 0 0-.394.148.66.66 0 0 0-.159.49.625.625 0 0 0 .159.478.535.535 0 0 0 .394.158m-3.817.063a.734.734 0 0 0 .734.733h9.662a.735.735 0 0 0 .744-.733v-2.146H6.435Zm8.73-1.617h1.455v.403a.783.783 0 0 0-.52-.11h-.415v.456h.744l-.043.277h-.702v.5h.467c.235 0 .44-.01.545-.15l-.064.448h-1.467a.557.557 0 0 0 .135-.394v-1.022a.574.574 0 0 0-.135-.408m-.929-.043a1.11 1.11 0 0 1 .541.11v.394a.693.693 0 0 0-.55-.193.647.647 0 0 0 0 1.287.836.836 0 0 0 .616-.202l-.064.416a1.325 1.325 0 0 1-.541.094.958.958 0 0 1-.693-1.668 1.02 1.02 0 0 1 .691-.235Zm-2.358.043a.132.132 0 0 0-.064.085c-.01.052.033.117.076.18l.36.53.363-.52a.35.35 0 0 0 .062-.169c.012-.042-.011-.074-.052-.11h.66a1.38 1.38 0 0 0-.33.361l-.543.77v.303a.533.533 0 0 0 .138.393h-.66a.533.533 0 0 0 .137-.393v-.298l-.597-.838a.67.67 0 0 0-.286-.287Zm-2.254.159a.953.953 0 0 1 1.573.756.968.968 0 0 1-1.573.743.923.923 0 0 1-.33-.743.976.976 0 0 1 .33-.752Zm-2.391-.159h.925a1.66 1.66 0 0 1 .51.042.494.494 0 0 1 .298.5.466.466 0 0 1-.425.458c.127.053.202.19.288.361a1.12 1.12 0 0 0 .33.467l-.543-.011c-.115-.169-.19-.393-.286-.55a.313.313 0 0 0-.297-.17h-.28v.33a.572.572 0 0 0 .139.403h-.66a.572.572 0 0 0 .138-.403v-1.022a.52.52 0 0 0-.137-.405m1.328.555c0-.19-.148-.255-.382-.255h-.426v.511h.426c.234 0 .382-.075.382-.256M16.831 1H7.17a1.901 1.901 0 0 0-1.903 1.902v18.195A1.901 1.901 0 0 0 7.17 23h9.661a1.901 1.901 0 0 0 1.902-1.903V2.902A1.901 1.901 0 0 0 16.831 1m1.264 20.097a1.257 1.257 0 0 1-1.264 1.253H7.17a1.256 1.256 0 0 1-1.255-1.253V2.902a1.24 1.24 0 0 1 .152-.597c.019-.036.04-.071.062-.104s.048-.065.073-.097a1.1 1.1 0 0 1 .081-.089 1.25 1.25 0 0 1 .186-.153 1.2 1.2 0 0 1 .213-.11c.038-.016.075-.029.11-.042a1.26 1.26 0 0 1 .372-.057h9.662a1.258 1.258 0 0 1 1.264 1.254Zm-.522-15.528H6.435v12.862h11.138Zm-5.716 12.074H9.371a1.264 1.264 0 0 0 .648-1.264v-3.931a9.9 9.9 0 0 0 1.19-.192v.596c.172-.012.34-.012.501-.033.11.213.212.44.306.66-.265.022-.531.032-.807.042v2.86a1.279 1.279 0 0 0 .648 1.262m.46-1.298a1.589 1.589 0 0 0 .359-1.414 6.34 6.34 0 0 0-1.244-2.996 9.57 9.57 0 0 1-2.381.288v2.86a1.268 1.268 0 0 0 .648 1.263H7.213a1.251 1.251 0 0 0 .648-1.266V7.71a1.266 1.266 0 0 0-.648-1.264h3.577a3.96 3.96 0 0 1 2.243.522 2.478 2.478 0 0 1 1.083 2.05 2.853 2.853 0 0 1-1.708 2.542c-.041.021-.073.033-.115.053a8.45 8.45 0 0 1 1.635 3.656 1.824 1.824 0 0 0 .585 1.074Zm2.476 1.291a1.54 1.54 0 0 0 .36-1.403 6.413 6.413 0 0 0-1.349-3.08 8 8 0 0 0-.22.062c-.095-.22-.212-.457-.33-.68a2.302 2.302 0 0 0 1.816-2.21 1.817 1.817 0 0 0-.67-1.489 2.77 2.77 0 0 0-.265-.999 3.05 3.05 0 0 1 1.063.414 2.493 2.493 0 0 1 1.083 2.051 2.827 2.827 0 0 1-1.626 2.497 8.39 8.39 0 0 1 1.754 3.764 1.95 1.95 0 0 0 .585 1.072ZM10.39 2.934a.564.564 0 0 0-.404.159.693.693 0 0 0-.169.511.66.66 0 0 0 .169.51.568.568 0 0 0 .404.16.56.56 0 0 0 .402-.16.66.66 0 0 0 .181-.51.69.69 0 0 0-.183-.514.55.55 0 0 0-.4-.156m6.441-.766H7.169a.736.736 0 0 0-.734.734v2.147h11.14V2.902a.736.736 0 0 0-.744-.734M8.679 4.561c-.127-.182-.202-.415-.308-.584a.298.298 0 0 0-.298-.171h-.297v.34c0 .161.052.363.147.415h-.7c.095-.054.148-.254.148-.415V3.074a.55.55 0 0 0-.148-.424H8.2a1.46 1.46 0 0 1 .531.053.503.503 0 0 1 .308.51.481.481 0 0 1-.44.489.77.77 0 0 1 .308.382 1.1 1.1 0 0 0 .34.479Zm2.371-.172a.964.964 0 0 1-.66.22.99.99 0 0 1-.66-.22.975.975 0 0 1-.341-.785 1.002 1.002 0 0 1 .341-.788 1.129 1.129 0 0 1 1.32 0 1 1 0 0 1 .34.788.976.976 0 0 1-.34.785m2.04.172h-1.43a.53.53 0 0 0 .15-.415V3.071a.57.57 0 0 0-.15-.424h.691a.616.616 0 0 0-.138.424v1.181h.372a.716.716 0 0 0 .573-.181Zm1.723.011h-1.424a.56.56 0 0 0 .151-.426V3.071a.57.57 0 0 0-.15-.424h.691a.565.565 0 0 0-.149.424v1.181h.378a.678.678 0 0 0 .573-.181Zm1.127.02a1.71 1.71 0 0 1-.713-.138v-.458a.64.64 0 0 0 .203.171 1.045 1.045 0 0 0 .509.133c.265 0 .425-.118.425-.288 0-.203-.203-.234-.511-.275-.392-.053-.605-.234-.605-.55s.308-.563.744-.563a1.41 1.41 0 0 1 .627.127v.415a.495.495 0 0 0-.233-.171 1.26 1.26 0 0 0-.393-.063c-.212 0-.34.084-.34.191 0 .18.171.201.542.276s.595.234.586.563c-.01.374-.308.63-.841.63M8.223 2.956h-.446v.541h.446c.243 0 .403-.074.403-.266s-.16-.275-.403-.275m3.952 4.534a2.48 2.48 0 0 0-1.436-.393H9.051v4.463c3.104-.053 3.859-1.445 3.858-2.539a1.807 1.807 0 0 0-.734-1.531m-.966.914v2.518a5 5 0 0 1-1.189.308V9.004a1.25 1.25 0 0 0-.648-1.265h2.681a1.364 1.364 0 0 1 .498.67Z"/></svg>