<svg xmlns="http://www.w3.org/2000/svg" viewBox="0 0 24 24"><path fill="#44739e" d="M12.144 9.93a1.779 1.779 0 1 0 1.779 1.778 1.781 1.781 0 0 0-1.779-1.778M21.79 1H2.21A1.21 1.21 0 0 0 1 2.21v19.58A1.21 1.21 0 0 0 2.21 23h19.58A1.21 1.21 0 0 0 23 21.79V2.21A1.21 1.21 0 0 0 21.79 1m-9.864 3.032a.256.256 0 0 1 .44 0l1.773 2.86-.38.235-1.397-2.244a.256.256 0 0 0-.44 0l-1.388 2.246-.381-.235Zm.44 15.91a.256.256 0 0 1-.44 0l-1.773-2.86.381-.237 1.392 2.247a.256.256 0 0 0 .44 0l1.394-2.252.381.236Zm-.22-6.006a2.227 2.227 0 1 1 2.228-2.228 2.231 2.231 0 0 1-2.23 2.228Z"/></svg>