<svg xmlns="http://www.w3.org/2000/svg" fill="#44739e" viewBox="0 0 24 24"><path d="m15.013 3.945.237.237.242-.188A2.087 2.087 0 0 1 17.4 3.5a2.29 2.29 0 0 1 1 1.172l.059.17h.706l-.032-.142a2.885 2.885 0 0 0-1.382-1.8 1.89 1.89 0 0 0-1.257-.135 3.3 3.3 0 0 0-.917.349 4.9 4.9 0 0 0-.806.573 1.9 1.9 0 0 0 .242.258m-9.475.899.058-.17A2.3 2.3 0 0 1 6.6 3.5a2.053 2.053 0 0 1 1.9.5l.242.183.237-.237a1.83 1.83 0 0 0 .241-.264 5.1 5.1 0 0 0-.894-.626 2.95 2.95 0 0 0-1.718-.313A2.8 2.8 0 0 0 4.863 4.7l-.032.148h.707Zm15.407 2.483a3.75 3.75 0 0 0-.067-.537 1.755 1.755 0 0 0-2.125-1.548 3.338 3.338 0 0 0-1.937 1.078l-.439.425.264.233.264.233.376-.372a2.566 2.566 0 0 1 1.705-.908.961.961 0 0 1 .908.309 1.46 1.46 0 0 1 .306 1.065 5.825 5.825 0 0 1-.657 2.214c-.161.416-.313.85-.345.962a3.74 3.74 0 0 0 .161 1.588 4.6 4.6 0 0 1 .134 1.968 4.2 4.2 0 0 1-1.1 1.745 2.573 2.573 0 0 0-.85 1.816 2.162 2.162 0 0 1-.805 1.7 4.46 4.46 0 0 1-1.016.783.69.69 0 0 1 .09-.237 22.7 22.7 0 0 0 1.163-3.024 5.2 5.2 0 0 1 1.4-2.224c.349-.375.389-.478.242-.626-.184-.183-.34-.089-.828.483a1.9 1.9 0 0 1-.282.3c-.036-.036.765-3.606 1.092-4.849.17-.662.192-.8.152-.9a.341.341 0 0 0-.447-.174c-.148.062-.166.1-.43.984-.094.308-.273.85-.4 1.208-.456 1.275-.438 1.23-.469 1.113a2.1 2.1 0 0 1-.036-.384 8.3 8.3 0 0 0-.2-1.436c-.049-.152-.067-.166-.228-.166-.264 0-.282.058-.188.725a12 12 0 0 1 .076 2.442 3.274 3.274 0 0 1-.425 1.387c-.416.958-1.02 2.259-1.337 2.872l-.206.4v-.949a3.146 3.146 0 0 1 .505-2.116 4.94 4.94 0 0 0 .631-3.22 3.278 3.278 0 0 1 .139-2.224 6.15 6.15 0 0 0 .554-2.474 2.95 2.95 0 0 0-.317-1.471 3.02 3.02 0 0 0-.837-.949l-.456-.4-.28-.598A2.308 2.308 0 0 0 12.848 2.1a4.64 4.64 0 0 0-1.369-.076 2.278 2.278 0 0 0-1.342.689 3.29 3.29 0 0 0-.537.864l-.286.595-.456.4a3.02 3.02 0 0 0-.837.949 2.95 2.95 0 0 0-.321 1.47 6.37 6.37 0 0 0 .589 2.559 3.215 3.215 0 0 1 .111 2.139 4.944 4.944 0 0 0 .63 3.22 3.152 3.152 0 0 1 .506 2.116v.949l-.206-.4c-.322-.626-.971-2.017-1.36-2.921a3.23 3.23 0 0 1-.4-1.342 11.88 11.88 0 0 1 .076-2.438c.089-.653.076-.716-.175-.738-.121-.009-.17.009-.206.071a5.78 5.78 0 0 0-.205 1.2c-.014.2-.036.47-.054.6l-.022.246-.13-.336c-.219-.568-.608-1.7-.756-2.192-.237-.783-.26-.836-.4-.894a.341.341 0 0 0-.455.17c-.04.1-.018.242.152.9.327 1.243 1.127 4.813 1.092 4.849a1.84 1.84 0 0 1-.282-.3c-.488-.572-.644-.666-.828-.483-.148.148-.107.255.192.573a9 9 0 0 1 .98 1.216 3.19 3.19 0 0 1 .479 1.1 22.16 22.16 0 0 0 1.154 2.989.66.66 0 0 1 .089.237 4.48 4.48 0 0 1-1.015-.781 2.288 2.288 0 0 1-.823-1.8c-.1-.836-.21-1.029-1.083-2.013a4.08 4.08 0 0 1-.845-1.454 4.52 4.52 0 0 1 .13-1.968 3.76 3.76 0 0 0 .165-1.584c-.032-.112-.184-.546-.345-.962a5.825 5.825 0 0 1-.657-2.214A1.46 1.46 0 0 1 4.1 6.24a.961.961 0 0 1 .908-.309 2.566 2.566 0 0 1 1.705.908l.375.372.264-.233.264-.228-.326-.331a3.208 3.208 0 0 0-2.429-1.19 1.33 1.33 0 0 0-.725.125 1.886 1.886 0 0 0-.85.859 3.1 3.1 0 0 0-.183.671 1.74 1.74 0 0 0-.018.743 16.15 16.15 0 0 0 .747 2.25 4.5 4.5 0 0 1 .282.917 6.1 6.1 0 0 1-.17 1.163 4.566 4.566 0 0 0-.137 2.143 5.215 5.215 0 0 0 1.449 2.353 2.03 2.03 0 0 1 .524 1.387 2.373 2.373 0 0 0 .492 1.4 6.33 6.33 0 0 0 2.187 1.767 6.8 6.8 0 0 1 .873.559 2.9 2.9 0 0 0 .452.313l.223.121h3.982l.223-.121a2.8 2.8 0 0 0 .457-.317 4.05 4.05 0 0 1 .581-.394 7.4 7.4 0 0 0 2.031-1.414 2.674 2.674 0 0 0 .935-1.914 2.033 2.033 0 0 1 .523-1.383 5.263 5.263 0 0 0 1.454-2.357 4.635 4.635 0 0 0-.143-2.147 10 10 0 0 1-.179-1.083 6.44 6.44 0 0 1 .582-1.78 6.84 6.84 0 0 0 .492-1.763m-7.207 10.021a7.25 7.25 0 0 1-.121 1.776 3.8 3.8 0 0 1-.17.492c-.08.143-.085.1-.277-2.582-.188-2.621-.192-2.737-.121-2.952a6.19 6.19 0 0 1 1.016-1.772c.2-.232.219-.4.071-.505a.37.37 0 0 0-.174-.072 3.525 3.525 0 0 0-.94 1.159l-.107.2-.031-.264c-.014-.148-.041-.546-.058-.89l-.032-.627.188-.425a10.06 10.06 0 0 1 1.078-1.855c.26-.344.354-.5.354-.6 0-.143-.1-.228-.264-.228a4.46 4.46 0 0 0-1.172 1.535c-.184.317-.264.416-.278.358a6.2 6.2 0 0 1-.053-.663 1.97 1.97 0 0 1 .111-1.033 7.35 7.35 0 0 1 1.1-2.134c.291-.376.255-.644-.076-.609-.125.014-.184.072-.448.439a8.1 8.1 0 0 0-.541.881 2.58 2.58 0 0 1-.268.461c-.023 0-.036-.067-.036-.148 0-.416-.148-2.487-.188-2.59a.331.331 0 0 0-.434-.17.34.34 0 0 0-.174.17c-.041.1-.193 2.174-.188 2.59 0 .081-.014.148-.031.148a2.12 2.12 0 0 1-.273-.461 8.1 8.1 0 0 0-.541-.877c-.264-.367-.322-.425-.447-.439-.331-.035-.367.228-.076.6a7.45 7.45 0 0 1 1.1 2.139 1.96 1.96 0 0 1 .112 1.028 6.2 6.2 0 0 1-.053.663c-.014.058-.094-.041-.278-.358A4.46 4.46 0 0 0 9.846 8.2c-.3 0-.353.26-.116.555a10 10 0 0 1 1.275 2.107l.2.447-.032.627c-.018.344-.044.742-.058.89l-.031.264-.108-.2a3.51 3.51 0 0 0-.939-1.159.3.3 0 0 0-.273.255.7.7 0 0 0 .175.322 6.1 6.1 0 0 1 1.033 1.843 21.8 21.8 0 0 1-.148 2.9c-.188 2.657-.192 2.7-.273 2.559a4.1 4.1 0 0 1-.17-.492 7.7 7.7 0 0 1-.12-1.776c-.036-1.633-.032-1.6-.474-2.488a7.38 7.38 0 0 1-.645-1.615 2.973 2.973 0 0 1-.022-1.588 3.643 3.643 0 0 0-.094-2.116 91 91 0 0 0-.34-.966 3.264 3.264 0 0 1 .085-2.917 4.77 4.77 0 0 1 .561-.552 2.58 2.58 0 0 0 .877-1.168 5.2 5.2 0 0 1 .4-.707 1.61 1.61 0 0 1 .752-.456 3.36 3.36 0 0 1 1.252 0 1.584 1.584 0 0 1 .77.461 5.2 5.2 0 0 1 .4.707 2.546 2.546 0 0 0 .877 1.153 5 5 0 0 1 .568.568 3.267 3.267 0 0 1 .085 2.917c-.1.273-.251.707-.345.966a3.56 3.56 0 0 0-.107 1.991 4.454 4.454 0 0 1-.649 3.328c-.443.891-.438.855-.474 2.488"/></svg>