<svg xmlns="http://www.w3.org/2000/svg" viewBox="0 0 24 24"><path fill="#44739e" d="M18.875 3.75c.759 0 1.375.616 1.375 1.375S19.634 6.5 18.875 6.5H5.125c-.759 0-1.375-.616-1.375-1.375S4.366 3.75 5.125 3.75h5.296c-.158-.27-.254-.581-.254-.917C10.167 1.821 10.988 1 12 1s1.833.821 1.833 1.833c0 .336-.096.647-.254.917Zm2.292 4.583c1.012 0 1.833.822 1.833 1.834S22.179 12 21.167 12h-.917v9.056c0 1.074-.871 1.944-1.944 1.944H5.694c-1.073 0-1.944-.87-1.944-1.944V12h-.917C1.821 12 1 11.179 1 10.167s.821-1.834 1.833-1.834Z"/></svg>