<svg xmlns="http://www.w3.org/2000/svg" viewBox="0 0 24 24"><path fill="#44739e" d="m8.599 17.5.482-1.437c.912.331 1.882.52 2.894.52 1.196 0 2.34-.252 3.389-.708l.546 1.625Zm13.484-9.167c.507 0 .917.41.917.917s-.41.917-.917.917h-1.547c-.702 1.971-1.954 3.638-3.55 4.779l1.476 4.392c.99.024 1.788.831 1.788 1.829 0 1.012-.822 1.833-1.833 1.833-1.014 0-1.834-.821-1.834-1.833 0-.334.096-.643.251-.912l-.309-.922H7.983l-1.021 3.042c-.129.383-.487.625-.87.625a.9.9 0 0 1-.292-.049c-.48-.161-.737-.68-.577-1.159l2.198-6.544c-1.812-1.138-3.238-2.925-4.006-5.081H1.917c-.507 0-.917-.41-.917-.917s.41-.917.917-.917h1.024c-.045-.268-.086-.539-.11-.815-.05-.542.369-1.018.916-1.018h16.456c.547 0 .966.476.917 1.018-.025.276-.065.547-.11.815ZM8.996 4.59c-.068-.045-.663-.46-.663-1.094 0-.276.115-.679.663-1.044.186-.126.254-.229.254-.281 0-.097-.151-.26-.254-.331-.211-.141-.269-.427-.128-.636A.456.456 0 0 1 9.25 1a.46.46 0 0 1 .254.077c.068.045.662.46.662 1.094 0 .274-.114.679-.662 1.044-.187.123-.254.229-.254.279-.002.097.148.26.256.335.209.139.265.424.125.633a.4584.4584 0 0 1-.635.128m2.75 0c-.068-.045-.663-.46-.663-1.094 0-.275.115-.679.663-1.044.186-.125.254-.229.254-.28 0-.097-.151-.26-.254-.332-.211-.141-.269-.426-.128-.636A.456.456 0 0 1 12 1a.46.46 0 0 1 .254.077c.068.045.662.46.662 1.094 0 .275-.114.679-.662 1.044-.187.124-.254.229-.254.28-.002.096.148.26.256.334.209.14.265.424.125.633a.4584.4584 0 0 1-.635.128m2.75 0c-.068-.045-.663-.46-.663-1.094 0-.276.115-.679.663-1.044.186-.126.254-.229.254-.281 0-.097-.151-.26-.254-.331-.211-.141-.269-.427-.128-.636A.456.456 0 0 1 14.75 1a.46.46 0 0 1 .254.077c.068.045.662.46.662 1.094 0 .274-.114.679-.662 1.044-.187.123-.254.229-.254.279-.002.097.148.26.256.335.209.139.265.424.125.633a.4584.4584 0 0 1-.635.128"/></svg>