<svg xmlns="http://www.w3.org/2000/svg" fill="#44739e" viewBox="0 0 24 24"><path d="m12.29 22 .526-1.568c.995.361 2.053.568 3.157.568 1.305 0 2.552-.275 3.697-.773L20.265 22zM27 12c.553 0 1 .447 1 1s-.447 1-1 1h-1.688c-.766 2.15-2.132 3.969-3.873 5.214l1.61 4.791C24.13 24.031 25 24.912 25 26c0 1.104-.897 2-2 2-1.106 0-2-.896-2-2 0-.364.104-.701.274-.995L20.936 24h-9.318l-1.114 3.318c-.141.418-.531.682-.949.682-.106 0-.213-.018-.319-.053-.523-.176-.804-.742-.629-1.265l2.398-7.139C9.028 18.302 7.472 16.352 6.634 14H5c-.553 0-1-.447-1-1s.447-1 1-1h1.117c-.049-.293-.093-.588-.12-.889-.054-.592.403-1.111 1-1.111h17.952c.596 0 1.054.519 1 1.111-.027.301-.071.596-.12.889zM12.7226 7.916c-.074-.049-.723-.502-.723-1.193 0-.301.125-.741.723-1.139.203-.137.277-.25.277-.307 0-.105-.164-.283-.277-.361-.23-.154-.293-.465-.139-.693a.497.497 0 0 1 .416-.223.5.5 0 0 1 .278.084c.074.049.722.502.722 1.193 0 .299-.125.741-.722 1.139-.205.135-.278.25-.278.305-.002.105.162.283.28.365.228.152.289.463.136.691-.154.231-.466.291-.693.139m3 0c-.074-.049-.723-.502-.723-1.193 0-.3.125-.741.723-1.139.203-.136.277-.25.277-.306 0-.105-.164-.283-.277-.362-.23-.153-.293-.464-.139-.693a.497.497 0 0 1 .416-.223.5.5 0 0 1 .278.084c.074.049.722.502.722 1.193 0 .3-.125.741-.722 1.139-.205.136-.278.25-.278.306-.002.105.162.283.28.364.228.153.289.463.136.691-.154.231-.466.291-.693.139m3 0c-.074-.049-.723-.502-.723-1.193 0-.301.125-.741.723-1.139.203-.137.277-.25.277-.307 0-.105-.164-.283-.277-.361-.23-.154-.293-.465-.139-.693a.497.497 0 0 1 .416-.223.5.5 0 0 1 .278.084c.074.049.722.502.722 1.193 0 .299-.125.741-.722 1.139-.205.135-.278.25-.278.305-.002.105.162.283.28.365.228.152.289.463.136.691-.154.231-.466.291-.693.139"/></svg>