<svg xmlns="http://www.w3.org/2000/svg" fill="#44739e" viewBox="0 0 24 24"><path d="M27.781 5.738c.293.293.292.801-.003 1.223l-4.5039 6.449c-.401.575-1.162.741-1.562.342l-.9389-.94-1.078 1.078-1.565-1.564 1.078-1.078-.939-.94c-.4-.4-.234-1.161.341-1.562l6.4489-4.504c.422-.294.931-.295 1.224-.002zM11.5442 17.3474l3.1289 3.13-7.1998 7.2001c-.43.43-1.134.43-1.565 0l-1.564-1.565c-.431-.43-.431-1.134 0-1.565zm16.1118 7.33c.431.431.431 1.136 0 1.565l-1.413 1.4141c-.215.215-.499.323-.782.323-.284 0-.568-.108-.784-.323l-13.4955-13.497c-1.608.633-3.492.441-4.9269-.574-1.83-1.2931-2.543-3.4201-2.15-5.3681.082-.402.593-.543.883-.252l2.039 2.039c.41.41 1.08.41 1.489 0l1.4899-1.489c.41-.409.41-1.079 0-1.489l-2.036-2.036c-.294-.294-.145-.807.262-.888 1.666-.332 3.461.143 4.752 1.435 1.5259 1.526 1.9109 3.752 1.1729 5.641z"/></svg>