<svg xmlns="http://www.w3.org/2000/svg" fill="#44739e" viewBox="0 0 24 24"><path d="m16.561 10.3684 8.753 12.063c.496.681.025 1.656-.8 1.656H7.477c-.827 0-1.297-.975-.801-1.657l8.763-12.063c.281-.386.841-.386 1.122.001M16 22.0784c1.657 0 3-1.343 3-3s-1.343-3-3-3-3 1.343-3 3 1.343 3 3 3m15.794 2.3721c.501.667.031 1.628-.797 1.628h-.043c-.313 0-.609-.149-.799-.403l-1.225-1.645h.017l-2.28-3.036-9.207-12.262-.999-1.33c-.23-.306-.691-.306-.922 0l-.999 1.33-9.207 12.262-2.28 3.036h.017l-1.225 1.645c-.19.254-.486.403-.799.403h-.043c-.828 0-1.298-.961-.797-1.628l1.249-1.664 2.28-3.036 9.208-12.262 1.459-1.943.898-1.196c.35-.466 1.05-.466 1.4 0l.898 1.196 1.459 1.943 2.939 3.914v-2.293c0-.569.448-1.031 1.001-1.031h2.002c.553 0 1.001.462 1.001 1.031v7.625l2.265 3.016 2.28 3.036z"/></svg>