<svg xmlns="http://www.w3.org/2000/svg" viewBox="0 0 24 24"><path fill="#44739e" d="M22.799 2.593c.269.269.268.734-.003 1.121l-4.128 5.912c-.368.527-1.065.679-1.432.313l-.861-.861-.988.988-1.434-1.434.988-.988-.861-.862c-.367-.366-.214-1.064.313-1.432l5.911-4.128c.387-.27.854-.271 1.122-.002ZM7.916 13.235l2.868 2.869-6.6 6.6c-.394.394-1.04.394-1.435 0L1.316 21.27c-.395-.394-.395-1.04 0-1.435Zm14.769 6.719c.395.395.395 1.042 0 1.435l-1.296 1.296c-.197.197-.457.296-.716.296-.261 0-.521-.099-.719-.296L7.583 10.313c-1.474.58-3.201.404-4.516-.526C1.389 8.601.736 6.652 1.096 4.866c.075-.369.544-.498.809-.231l1.869 1.869c.376.376.99.376 1.365 0l1.366-1.365c.376-.375.376-.989 0-1.365L4.639 1.908c-.27-.27-.133-.74.24-.814 1.527-.304 3.173.131 4.356 1.315 1.399 1.399 1.752 3.44 1.075 5.171Z"/></svg>