<svg xmlns="http://www.w3.org/2000/svg" viewBox="0 0 24 24"><path fill="#44739e" d="M18.286 9.076c-.468.272-.786.773-.786 1.353 0 .579.318 1.08.786 1.352v3.381c-.066-.004-.128-.019-.194-.019h-2.949v-3.362c.467-.272.786-.773.786-1.352 0-.58-.319-1.081-.786-1.353V5.714h3.143ZM5.714 15.162v-3.381c.468-.272.786-.773.786-1.352 0-.58-.318-1.081-.786-1.353V5.714h3.143v3.362c-.467.272-.786.773-.786 1.353 0 .579.319 1.08.786 1.352v3.362H5.908c-.066 0-.129.015-.194.019m7.857-6.086c-.467.272-.785.773-.785 1.353 0 .579.318 1.08.785 1.352v3.362h-3.142v-3.362c.467-.272.785-.773.785-1.352 0-.58-.318-1.081-.785-1.353V5.714h3.142Zm8.643-4.933H1.786c-.432 0-.786.353-.786.786 0 .431.354.785.786.785h2.357v3.362c-.468.272-.786.773-.786 1.353 0 .579.318 1.08.786 1.352v3.876c-.941.591-1.572 1.629-1.572 2.822 0 .761.617 1.378 1.379 1.378h16.1c.762 0 1.379-.617 1.379-1.378 0-1.193-.631-2.231-1.572-2.822v-3.876c.468-.272.786-.773.786-1.352 0-.58-.318-1.081-.786-1.353V5.714h2.357c.432 0 .786-.354.786-.785 0-.433-.354-.786-.786-.786"/></svg>