<svg xmlns="http://www.w3.org/2000/svg" viewBox="0 0 24 24"><path fill="#44739e" d="M12.709 11.08c-.898 0-1.629-.732-1.629-1.631v-.204h3.257v.204c0 .899-.73 1.631-1.628 1.631m8.703 5.964c.342-.373.923-.395 1.295-.049.371.343.393.925.048 1.296C19.989 21.284 16.07 23 12.004 23s-7.985-1.716-10.751-4.709c-.345-.371-.323-.953.048-1.296a.913.913 0 0 1 1.295.049c.083.091.178.17.264.257l2.654-7.3c-3.146.929-5.862-2.62-3.788-4.743 1.191-1.22-.023-2.436-.62-3.017-.176-.172-.104-.474.13-.552C8-.547 10.375 3.169 10.712 5.565c.136.969-.303 2.245-.541 2.81l-.779 1.977c.404 1.467 1.734 2.554 3.325 2.554 1.843 0 3.341-1.455 3.441-3.275.377.179.717.423 1.019.707 1.123.047 2.259-.347 3.12-1.21a4.15 4.15 0 0 0 1.135-2.109c.138-.682 1.129-.724 1.354-.067.615 1.801-.254 3.199-.63 3.69a2.5 2.5 0 0 1-.285.311c-.967.892-2.247 1.232-3.465 1.052.039.062.08.121.112.188l2.457 5.275v.001c.145-.142.297-.276.437-.425m-9.408 4.12c2.14 0 4.23-.553 6.086-1.556a1.81 1.81 0 0 1-.437-.589l-1.993-4.278H7.691l-1.6 4.403c-.059.159-.142.3-.237.432 1.872 1.026 3.986 1.588 6.15 1.588M4.673 6.483c.507 0 .917-.412.917-.918s-.41-.917-.917-.917-.916.41-.916.917.41.918.916.918"/></svg>