<svg xmlns="http://www.w3.org/2000/svg" viewBox="0 0 24 24"><path fill="#44739e" d="M16.583 20.708c-1.012 0-1.833-1.025-1.833-2.291s.821-2.292 1.833-2.292 1.834 1.026 1.834 2.292-.822 2.291-1.834 2.291M12 11.083c-1.519 0-2.75-1.025-2.75-2.291S10.481 6.5 12 6.5s2.75 1.026 2.75 2.292-1.231 2.291-2.75 2.291m-4.583 9.625c-1.012 0-1.834-1.025-1.834-2.291s.822-2.292 1.834-2.292 1.833 1.026 1.833 2.292-.821 2.291-1.833 2.291M12 7.417c.507 0 .917.409.917.916s-.41.917-.917.917-.917-.41-.917-.917.41-.916.917-.916M20.25 12c-.395 0-.768.086-1.107.236-.589-.737-1.388-1.372-2.341-1.866.698-.972 1.114-2.16 1.114-3.447 0-.023-.003-.046-.003-.069 1.335-.287 2.337-1.472 2.337-2.893C20.25 2.325 18.925 1 17.289 1c-.841 0-1.598.355-2.137.918C14.237 1.34 13.157 1 11.994 1c-1.159 0-2.237.338-3.15.914C8.305 1.353 7.551 1 6.711 1 5.075 1 3.75 2.325 3.75 3.961c0 1.416.996 2.597 2.325 2.889 0 .024-.004.049-.004.073 0 1.289.417 2.479 1.117 3.453-.947.493-1.744 1.126-2.331 1.861A2.71 2.71 0 0 0 3.75 12C2.231 12 1 13.231 1 14.75s1.231 2.75 2.75 2.75c.026 0 .05-.007.074-.007-.048.298-.074.606-.074.924C3.75 20.949 5.392 23 7.417 23c1.238 0 2.327-.772 2.992-1.946.515.072 1.046.113 1.591.113s1.076-.041 1.591-.113C14.256 22.228 15.345 23 16.583 23c2.025 0 3.667-2.051 3.667-4.583 0-.318-.026-.626-.074-.924.024 0 .048.007.074.007 1.519 0 2.75-1.231 2.75-2.75S21.769 12 20.25 12"/></svg>