<svg xmlns="http://www.w3.org/2000/svg" viewBox="0 0 24 24"><path fill="#44739e" d="M19.546 16.003 17.568 7.22c-.311-1.382-1.636-2.259-3.015-2.052l-.537-.806a1.375 1.375 0 0 0-1.144-.612H12c-.38 0-.688.307-.688.688v1.375H9.937V1.688C9.937 1.307 9.63 1 9.25 1s-.688.307-.688.688V9.25h-2.75V7.875c0-.38-.307-.687-.687-.687s-.688.307-.688.687v2.063c0 .379.308.687.688.687h3.437v10.313h-2.75c-.759 0-1.375.615-1.375 1.375 0 .379.308.687.688.687h8.25c.38 0 .687-.308.687-.687 0-.76-.615-1.375-1.375-1.375h-2.75V7.188h1.375v11c0 .379.308.687.688.687h.92c1.424 0 2.49-1.302 2.211-2.696L14.295 12l.761-3.42 1.807 8.028c.083.37.451.603.822.519l1.341-.302c.37-.083.603-.451.52-.822"/></svg>