<svg xmlns="http://www.w3.org/2000/svg" fill="#44739e" viewBox="0 0 24 24"><path d="M21 25.5c-1.104 0-2-1.119-2-2.5s.896-2.5 2-2.5 2 1.119 2 2.5-.896 2.5-2 2.5M16 15c-1.657 0-3-1.119-3-2.5s1.343-2.5 3-2.5 3 1.119 3 2.5-1.343 2.5-3 2.5m-5 10.5c-1.104 0-2-1.119-2-2.5s.896-2.5 2-2.5 2 1.119 2 2.5-.896 2.5-2 2.5M16 11c.553 0 1 .447 1 1s-.447 1-1 1-1-.447-1-1 .447-1 1-1m9 5c-.431 0-.838.094-1.208.258-.642-.804-1.514-1.497-2.553-2.036.761-1.06 1.215-2.357 1.215-3.761 0-.025-.004-.05-.004-.075C23.907 10.073 25 8.78 25 7.23 25 5.446 23.554 4 21.77 4c-.918 0-1.743.387-2.331 1.002C18.44 4.371 17.262 4 15.993 4c-1.264 0-2.44.369-3.436.997C11.969 4.385 11.146 4 10.23 4 8.446 4 7 5.446 7 7.23c0 1.545 1.087 2.833 2.536 3.152 0 .026-.004.053-.004.079 0 1.407.455 2.705 1.219 3.767-1.034.538-1.903 1.229-2.543 2.03C7.838 16.094 7.431 16 7 16c-1.657 0-3 1.343-3 3s1.343 3 3 3c.028 0 .054-.008.081-.008C7.028 22.317 7 22.654 7 23c0 2.762 1.791 5 4 5 1.351 0 2.539-.842 3.264-2.123.562.079 1.141.123 1.736.123s1.174-.044 1.736-.123C18.461 27.158 19.649 28 21 28c2.209 0 4-2.238 4-5 0-.346-.028-.683-.081-1.008.027 0 .053.008.081.008 1.657 0 3-1.343 3-3s-1.343-3-3-3"/></svg>