<svg xmlns="http://www.w3.org/2000/svg" fill="#44739e" viewBox="0 0 24 24"><path d="M25.427 17.648c.35.165.573.517.573.903v5.414c0 .551-.447.998-1 .998h-1v1.525c0 .824-.675 1.498-1.5 1.498h-1c-.825 0-1.5-.674-1.5-1.498v-1.525h-8v1.498c0 .823-.675 1.497-1.5 1.497h-1c-.825 0-1.5-.674-1.5-1.497v-1.498H7c-.553 0-1-.447-1-.998v-5.414c0-.386.223-.738.573-.903l1.003-.473a.993.993 0 0 0 .541-.653l1.498-5.788c.114-.44.513-.748.969-.748h10.832c.456 0 .855.308.969.748l1.498 5.788a.993.993 0 0 0 .541.653zM22.5 22c.828 0 1.5-.671 1.5-1.498s-.672-1.497-1.5-1.497-1.5.67-1.5 1.497S21.672 22 22.5 22M18 22c.55 0 1-.449 1-.998 0-.55-.45-.999-1-.999h-4c-.55 0-1 .449-1 .999 0 .549.45.998 1 .998zm-8.5-3c-.828 0-1.5.671-1.5 1.498s.672 1.497 1.5 1.497 1.5-.67 1.5-1.497S10.328 19 9.5 19m.537-3.268c-.182.635.323 1.26 1.018 1.26h9.89c.695 0 1.2-.625 1.018-1.26l-.859-2.996c-.125-.434-.541-.736-1.017-.736h-8.174c-.476 0-.892.302-1.017.736zM31 4c.553 0 1 .447 1 1v22c0 .553-.447 1-1 1s-1-.447-1-1V9c0-.553-.447-1-1-1H3c-.553 0-1 .447-1 1v18c0 .553-.447 1-1 1s-1-.447-1-1V5c0-.553.447-1 1-1z"/></svg>