<svg xmlns="http://www.w3.org/2000/svg" viewBox="0 0 24 24"><path fill="#44739e" d="M19.615 3.538c.468 0 .847.379.847.847V12c0 .468-.379.846-.847.846H4.385c-.468 0-.847-.378-.847-.846V4.385c0-.468.379-.847.847-.847h6.769V1.846c0-.468.378-.846.846-.846s.846.378.846.846v1.692Zm-3.304 12.693 3.191 5.498c.234.405.096.922-.308 1.157a.84.84 0 0 1-.424.114.849.849 0 0 1-.733-.421l-3.683-6.348h-1.508v5.881c0 .467-.378.846-.846.846a.8463.8463 0 0 1-.846-.846v-5.881H9.646l-3.682 6.348A.849.849 0 0 1 5.23 23a.84.84 0 0 1-.424-.114.8463.8463 0 0 1-.307-1.157l3.191-5.498H6.077c-.467 0-.846-.378-.846-.846s.379-.847.846-.847h11.846c.468 0 .846.379.846.847s-.378.846-.846.846Z"/></svg>