<svg xmlns="http://www.w3.org/2000/svg" viewBox="0 0 24 24"><path fill="#44739e" d="M7.188 14.063c-.381 0-.688-.308-.688-.688s.307-.687.688-.687h2.614c-1.552-1.028-2.614-3.103-2.614-5.5C7.188 3.77 9.342 1 12 1s4.812 2.77 4.812 6.188c0 2.397-1.062 4.472-2.614 5.5h2.614c.381 0 .688.307.688.687s-.307.688-.688.688Zm9.762 1.375c.303 0 .55.239.55.534v.151c0 2.259-1.444 3.998-3.482 4.779-.291.112-.484.385-.484.691v.661c0 .413-.343.746-.767.746h-1.534c-.424 0-.768-.333-.768-.746v-.672c0-.306-.192-.576-.483-.691-2.059-.815-3.484-2.647-3.482-4.924 0-.293.249-.53.55-.53Z"/></svg>