<svg xmlns="http://www.w3.org/2000/svg" viewBox="0 0 24 24"><path fill="#44739e" d="M20.643 10.377a.7855.7855 0 0 1-.786-.786c0-.435.351-.786.786-.786s.786.351.786.786c0 .434-.352.786-.786.786M18.286 8.02a.7855.7855 0 0 1-.786-.786c0-.435.351-.786.786-.786s.785.351.785.786c0 .434-.351.786-.785.786m0 4.766A.7855.7855 0 0 1 17.5 12c0-.434.351-.786.786-.786s.785.352.785.786-.351.786-.785.786m-2.357-2.409a.7855.7855 0 0 1-.786-.786c0-.435.351-.786.786-.786s.785.351.785.786c0 .434-.351.786-.785.786m-8.672 0h-.786v.785c0 .433-.354.786-.786.786s-.786-.353-.786-.786v-.785h-.785c-.432 0-.786-.354-.786-.786s.354-.786.786-.786h.785V8.02c0-.433.354-.786.786-.786s.786.353.786.786v.785h.786c.432 0 .785.354.785.786s-.353.786-.785.786m11.309-5.448H6.167C3.507 4.929 1 7.048 1 9.591v6.648c0 1.646 1.622 2.832 3.097 2.832 1.184 0 2.299-.752 2.734-1.793l1.493-3.71h7.352l1.996 3.71c.592 1.041 1.34 1.714 2.514 1.714 1.631 0 2.814-1.107 2.814-2.753V9.591c0-2.543-1.931-4.662-4.434-4.662"/></svg>