<svg xmlns="http://www.w3.org/2000/svg" viewBox="0 0 24 24"><path fill="#44739e" d="M17.5 6.5c.432 0 .786.354.786.786v9.428c0 .432-.354.786-.786.786h-3.143c-.432 0-.786-.354-.786-.786v-2.357h-3.142v2.357c0 .432-.354.786-.786.786H6.5c-.432 0-.786-.354-.786-.786V7.286c0-.432.354-.786.786-.786h3.143c.432 0 .786.354.786.786v2.357h3.142V7.286c0-.432.354-.786.786-.786ZM2.571 8.857c0-.434.352-.786.786-.786h.786v7.858h-.786a.786.786 0 0 1-.786-.786v-1.572C1.704 13.571 1 12.867 1 12s.704-1.571 1.571-1.571Zm18.858 1.572c.867 0 1.571.704 1.571 1.571s-.704 1.571-1.571 1.571v1.572c0 .434-.352.786-.786.786h-.786V8.071h.786c.434 0 .786.352.786.786Z"/></svg>