<svg xmlns="http://www.w3.org/2000/svg" viewBox="0 0 24 24"><path fill="#44739e" d="M18.286 13.571c2.603 0 4.714.54 4.714 3.143 0 .435-.351.786-.786.786h-.785v.786c0 .867-.704 1.571-1.572 1.571s-1.571-.704-1.571-1.571V17.5H5.714v.786c0 .867-.704 1.571-1.571 1.571s-1.572-.704-1.572-1.571V17.5h-.785A.785.785 0 0 1 1 16.714c0-.041.011-.081.013-.122-.002-.022-.013-.039-.013-.06v-5.391c0-.824.674-1.498 1.498-1.498h.147c.824 0 1.498.674 1.498 1.498v2.43Zm-15.641-5.5h-.147c-.469 0-1.099.153-1.498.343.625-2.419 2.987-4.271 6.663-4.271 3.521 0 5.728 1.663 6.694 3.928h4.203c1.584 0 2.869 1.285 2.869 2.869v.343a.717.717 0 0 1-.718.717H5.714v-.859c0-1.692-1.377-3.07-3.069-3.07"/></svg>