<svg xmlns="http://www.w3.org/2000/svg" viewBox="0 0 24 24"><path fill="#44739e" d="M19.347 12.688h-.472V4.534C18.875 2.585 17.29 1 15.341 1c-1.678 0-3.08 1.178-3.439 2.75H10.63c-.762 0-1.38.617-1.38 1.38 0 .377.307.683.683.683h4.822c.377 0 .682-.306.682-.683.001-.763-.617-1.38-1.379-1.38h-.723c.315-.803 1.093-1.375 2.006-1.375 1.19 0 2.159.969 2.159 2.159v8.154H4.654c-.499 0-.904.404-.904.903s.405.904.904.904h.471v1.532c0 1.936 1.123 3.605 2.75 4.405v1.193c0 .759.616 1.375 1.375 1.375.76 0 1.375-.616 1.375-1.375v-.687h3.34c.033 0 .065-.005.098-.005v.692c0 .759.615 1.375 1.375 1.375.759 0 1.375-.616 1.375-1.375v-1.603c1.247-.891 2.062-2.346 2.062-3.995v-1.532h.472c.499 0 .903-.405.903-.904s-.404-.904-.903-.904"/></svg>