<svg xmlns="http://www.w3.org/2000/svg" fill="#44739e" viewBox="0 0 24 24"><path d="M26 16H6c-2.209 0-4 1.791-4 4v2c0 .553.447 1 1 1h1v1c0 1.104.896 2 2 2s2-.896 2-2v-1h16v1c0 1.104.896 2 2 2s2-.896 2-2v-1h1c.553 0 1-.447 1-1v-2c0-2.209-1.791-4-4-4M9 10h5c.553 0 1 .447 1 1s-.447 1-1 1H9c-.553 0-1-.447-1-1s.447-1 1-1m9 0h5c.553 0 1 .447 1 1s-.447 1-1 1h-5c-.553 0-1-.447-1-1s.447-1 1-1M7.009 14h17.982c.558 0 1.009-.451 1.009-1.009V8c0-1.104-.896-2-2-2H8c-1.104 0-2 .896-2 2v4.991C6 13.549 6.451 14 7.009 14"/></svg>