<svg xmlns="http://www.w3.org/2000/svg" fill="#44739e" viewBox="0 0 24 24"><path d="M27.976 21.823 25.099 9.047c-.452-2.01-2.38-3.286-4.385-2.985l-.781-1.172A2 2 0 0 0 18.269 4H17c-.552 0-1 .447-1 1v2h-2V1c0-.553-.447-1-1-1-.552 0-1 .447-1 1v11H8v-2c0-.553-.447-1-1-1-.552 0-1 .447-1 1v3c0 .552.448 1 1 1h5v15H8c-1.104 0-2 .895-2 2 0 .552.448 1 1 1h12c.553 0 1-.448 1-1 0-1.105-.895-2-2-2h-4V9h2v16c0 .552.448 1 1 1h1.339c2.07 0 3.621-1.894 3.216-3.922L20.339 16l1.106-4.974 2.629 11.676c.121.539.656.877 1.195.756l1.951-.44c.538-.121.877-.656.756-1.195"/></svg>