<svg xmlns="http://www.w3.org/2000/svg" fill="#44739e" viewBox="0 0 24 24"><path d="M11 10.0003c3.866 0 7 3.134 7 7 0 3.547-2.641 6.471-6.063 6.93v3.07c0 .553-.447 1-.999 1-.553 0-1-.447-1-1v-3.089C6.577 23.3973 4 20.5043 4 17.0003c0-3.866 3.134-7 7-7m17 9.3457c0 3.246-2.368 3.608-5 3.648V27c0 .553-.447 1-1 1s-1-.447-1-1v-4.008c-.515-.009-1.021-.027-1.5-.08-.72-.079-1.074-.884-.719-1.514A8.91 8.91 0 0 0 19.937 17c0-2.16-.77-4.139-2.044-5.692-.11-.134-.146-.314-.089-.478C19.075 7.17 20.764 4 22 4c2.25 0 6 10.503 6 15.346"/></svg>