<svg xmlns="http://www.w3.org/2000/svg" fill="#44739e" viewBox="0 0 24 24"><path d="M25 6c-.553 0-1-.447-1-1s.447-1 1-1 1 .447 1 1-.447 1-1 1m-9 20c-4.418 0-8-3.582-8-8s3.582-8 8-8 8 3.582 8 8-3.582 8-8 8M6 5c0-.553.447-1 1-1h4c.553 0 1 .447 1 1s-.447 1-1 1H7c-.553 0-1-.447-1-1m15-1c.553 0 1 .447 1 1s-.447 1-1 1-1-.447-1-1 .447-1 1-1m1 12.0283c-.983.152-1.721.975-1.721 1.972s.738 1.819 1.721 1.971c-.842 2.341-3.132 4.029-5.825 4.029-3.405 0-6.175-2.692-6.175-6 0-3.309 2.77-6 6.175-6 2.693 0 4.983 1.687 5.825 4.028M27 2H5c-.553 0-1 .447-1 1v26c0 .553.447 1 1 1h22c.553 0 1-.447 1-1V3c0-.553-.447-1-1-1"/></svg>