<svg xmlns="http://www.w3.org/2000/svg" viewBox="0 0 24 24"><path fill="#44739e" d="M19.333 15.667c-1.012 0-1.833-.822-1.833-1.834S18.321 12 19.333 12s1.834.821 1.834 1.833-.822 1.834-1.834 1.834M17.289 9.25H6.711c-.743 0-1.283-.689-1.087-1.389l.918-3.299c.133-.479.58-.812 1.087-.812h8.742c.508 0 .954.333 1.087.812l.918 3.299c.196.7-.344 1.389-1.087 1.389m-1.622 5.128c0 .708-.588 1.289-1.305 1.289H9.638c-.717 0-1.305-.581-1.305-1.289v-.172c0-.709.588-1.289 1.305-1.289h4.724c.717 0 1.305.58 1.305 1.289Zm-11 1.289c-1.012 0-1.834-.822-1.834-1.834S3.655 12 4.667 12s1.833.821 1.833 1.833-.821 1.834-1.833 1.834m17.703-5.209-1.104-.527c-.296-.141-.513-.408-.595-.728l-1.648-6.452c-.126-.491-.563-.834-1.066-.834H6.043c-.503 0-.94.343-1.066.834L3.329 9.203c-.082.32-.3.587-.595.728l-1.103.527c-.385.184-.631.576-.631 1.007v5.839c0 .614.492 1.113 1.1 1.113h1.65v1.993c0 .921.753 1.673 1.674 1.673H6.66c.921 0 1.673-.752 1.673-1.673v-1.993h7.334v1.993c0 .921.752 1.673 1.673 1.673h1.236c.921 0 1.674-.752 1.674-1.673v-1.993h1.65c.608 0 1.1-.499 1.1-1.113v-5.839c0-.431-.246-.823-.63-1.007"/></svg>