<svg xmlns="http://www.w3.org/2000/svg" viewBox="0 0 24 24"><path fill="#44739e" d="m12.386 8.789 6.017 8.293c.341.468.018 1.139-.55 1.139H6.14c-.568 0-.891-.671-.55-1.14l6.024-8.293a.4737.4737 0 0 1 .772.001M12 16.839c1.139 0 2.063-.923 2.063-2.062s-.924-2.063-2.063-2.063-2.063.924-2.063 2.063.924 2.062 2.063 2.062m10.858 1.631c.345.459.022 1.12-.548 1.12h-.029a.685.685 0 0 1-.549-.278l-.843-1.13h.012l-1.567-2.088-6.33-8.43-.687-.914c-.158-.211-.475-.211-.634 0l-.687.914-6.33 8.43-1.567 2.088h.012l-.843 1.13a.685.685 0 0 1-.549.278H1.69c-.57 0-.893-.661-.548-1.12L2 17.326l1.568-2.087 6.33-8.43 1.003-1.336.618-.822c.24-.321.722-.321.962 0l.618.822 1.003 1.336 2.02 2.691V7.923c0-.391.308-.709.688-.709h1.377c.38 0 .688.318.688.709v5.242l1.557 2.074L22 17.326Z"/></svg>