<svg xmlns="http://www.w3.org/2000/svg" fill="#44739e" viewBox="0 0 24 24"><path d="M24 9h-4c-.553 0-1-.447-1-1s.447-1 1-1h4c.553 0 1 .447 1 1s-.447 1-1 1m0 6h-4c-.553 0-1-.447-1-1s.447-1 1-1h4c.553 0 1 .447 1 1s-.447 1-1 1m0 6h-4c-.553 0-1-.447-1-1s.447-1 1-1h4c.553 0 1 .447 1 1s-.447 1-1 1m-7 2c0 .553-.447 1-1 1s-1-.447-1-1V5c0-.553.447-1 1-1s1 .447 1 1zm-5-8h-2c-.553 0-1-.447-1-1s.447-1 1-1h2c.553 0 1 .447 1 1s-.447 1-1 1M26 1H6c-.553 0-1 .447-1 1v24c0 .553.447 1 1 1h1v1c0 .553.447 1 1 1s1-.447 1-1v-1h14v1c0 .553.447 1 1 1s1-.447 1-1v-1h1c.553 0 1-.447 1-1V2c0-.553-.447-1-1-1"/></svg>