<svg xmlns="http://www.w3.org/2000/svg" viewBox="0 0 24 24"><path fill="#44739e" d="M20.25 17.5c1.519 0 2.75 1.231 2.75 2.75S21.769 23 20.25 23s-2.75-1.231-2.75-2.75 1.231-2.75 2.75-2.75m1.235-1.643c-.396-.112-.805-.191-1.235-.191-2.527 0-4.584 2.056-4.584 4.584-2.168.477-4.699.066-6.715-.959a1.367 1.367 0 0 0-1.586.252l-3.2 3.188c-.358.359-.94.359-1.298 0l-1.599-1.593c-.357-.358-.357-.938 0-1.294l3.201-3.191c.411-.41.53-1.04.264-1.554-2.1-4.078-1.098-9.335 3.017-12.283 3.418-2.45 7.891-2.417 11.28.073 4.29 3.151 5.093 8.837 2.455 12.968"/></svg>