<svg xmlns="http://www.w3.org/2000/svg" viewBox="0 0 24 24"><path fill="#44739e" d="M18.286 7.286h-3.143c-.435 0-.786-.351-.786-.786s.351-.786.786-.786h3.143c.434 0 .785.352.785.786s-.351.786-.785.786m0 4.714h-3.143c-.435 0-.786-.351-.786-.786s.351-.785.786-.785h3.143c.434 0 .785.351.785.785s-.351.786-.785.786m0 4.714h-3.143c-.435 0-.786-.351-.786-.785s.351-.786.786-.786h3.143c.434 0 .785.351.785.786s-.351.785-.785.785m-5.5 1.572c0 .434-.352.785-.786.785s-.786-.351-.786-.785V4.143c0-.435.352-.786.786-.786s.786.351.786.786ZM8.857 12H7.286c-.435 0-.786-.351-.786-.786s.351-.785.786-.785h1.571c.435 0 .786.351.786.785S9.292 12 8.857 12m11-11H4.143c-.435 0-.786.351-.786.786v18.857c0 .434.351.786.786.786h.786v.785c0 .435.351.786.785.786s.786-.351.786-.786v-.785h11v.785c0 .435.351.786.786.786s.785-.351.785-.786v-.785h.786c.435 0 .786-.352.786-.786V1.786c0-.435-.351-.786-.786-.786"/></svg>