<svg xmlns="http://www.w3.org/2000/svg" viewBox="0 0 24 24"><path fill="#44739e" d="M19.333 12H4.667C2.642 12 1 13.642 1 15.667V17.5c0 .507.41.917.917.917h.916v.916c0 1.012.822 1.834 1.834 1.834S6.5 20.345 6.5 19.333v-.916h11v.916c0 1.012.821 1.834 1.833 1.834s1.834-.822 1.834-1.834v-.916h.916c.507 0 .917-.41.917-.917v-1.833C23 13.642 21.358 12 19.333 12M8.435 6.5h7.129c.564 0 1.019.41 1.019.917s-.455.916-1.019.916H8.435c-.563 0-1.018-.409-1.018-.916S7.872 6.5 8.435 6.5m-2.852 3.667h12.834c.506 0 .916-.41.916-.917v-5.5c0-.507-.41-.917-.916-.917H5.583c-.507 0-.916.41-.916.917v5.5c0 .507.409.917.916.917"/></svg>