<svg xmlns="http://www.w3.org/2000/svg" fill="#44739e" viewBox="0 0 24 24"><path d="M26.5 14h-1c-.825 0-1.5.675-1.5 1.5v3.105c0 .44-.358.798-.798.798h-.007C22.284 17.963 20.688 17 18.857 17H17v-3h3.091C21.697 14 23 12.697 23 11.09l-1.273-9.844C21.623.531 21.01 0 20.287 0h-8.574c-.723 0-1.336.531-1.44 1.246L9 11.09C9 12.697 10.303 14 11.909 14H15v3h-1.857c-1.651 0-3.103.791-4.044 2h-.301c-.44 0-.798-.358-.798-.798v-2.903c0-.937-.766-1.702-1.701-1.702h-.598c-.935 0-1.701.765-1.701 1.702C4 16.234 4.766 17 5.701 17H6v1.202c0 1.323.926 2.429 2.162 2.719-.097.393-.162.799-.162 1.222 0 .473.384.857.857.857h6.016l-4.352 5.077C10.354 28.032 10.182 28 10 28c-1.104 0-2 .896-2 2s.896 2 2 2 2-.896 2-2c0-.29-.064-.564-.176-.812L15 25.482v2.795c-.596.347-1 .985-1 1.723 0 1.104.896 2 2 2s2-.896 2-2c0-.738-.404-1.376-1-1.723v-2.795l3.176 3.706A1.97 1.97 0 0 0 20 30c0 1.104.896 2 2 2s2-.896 2-2-.896-2-2-2c-.182 0-.354.032-.521.077L17.127 23h6.016c.473 0 .857-.384.857-.857 0-.289-.039-.568-.085-.843C25.111 20.982 26 19.9 26 18.605V17h.5c.825 0 1.5-.675 1.5-1.5s-.675-1.5-1.5-1.5"/></svg>