<svg xmlns="http://www.w3.org/2000/svg" fill="#44739e" viewBox="0 0 24 24"><path d="M27.5706 8.5645c.383.273.546.787.341 1.211-.325.671-1.019 1.195-1.821 1.195-.522 0-.998-.221-1.356-.56-.37-.351-.955-.351-1.325 0-.359.339-.834.56-1.356.56-.521 0-.997-.221-1.354-.56-.37-.351-.956-.351-1.326 0-.359.339-.834.56-1.356.56-.372 0-.718-.116-1.017-.304v7.304c0 .553-.448 1-1 1-.553 0-1-.447-1-1v-7.303c-.299.187-.646.303-1.019.303-.52 0-.996-.221-1.354-.56-.37-.351-.956-.351-1.327 0-.357.339-.833.56-1.355.56-.521 0-.996-.221-1.354-.56-.371-.351-.957-.351-1.327 0-.357.339-.833.56-1.354.56-.803 0-1.496-.524-1.821-1.195-.206-.424-.042-.938.34-1.211l10.964-8.359a.998.998 0 0 1 1.213 0zm-4.5703 11.4063c1.104 0 2 .896 2 2s-.896 2-2 2h-4.419l5.194 6.368c.349.428.285 1.058-.143 1.407a.992.992 0 0 1-.631.225c-.29 0-.578-.126-.776-.368l-6.225-7.632-6.225 7.632c-.35.427-.979.492-1.407.143s-.492-.979-.143-1.407l5.194-6.368h-4.419c-1.104 0-2-.896-2-2s.896-2 2-2z"/></svg>