<svg xmlns="http://www.w3.org/2000/svg" viewBox="0 0 24 24"><path fill="#44739e" d="m9.971 20.896 1.331-4.175 2.866-.42 1.792 4.647c-1.957.298-4.052.286-5.989-.052M7.265 11.14c.629-.093 1.614-.239 2.735-.405l.789 3.294-2.709.404Zm8.188 2.194-2.844.424-.787-3.289c.988-.143 1.98-.286 2.848-.405Zm6.51 6.404c-.251-.44-.812-.593-1.25-.343-.854.486-1.845.875-2.936 1.171l-1.75-4.537 5.14-.753c-.215-1.5-1.603-2.544-3.103-2.333l-.789.119-.778-3.241c.18-.022.337-.041.464-.055.518.011.938.433.938.953 0 .506.41.916.916.916.507 0 .917-.41.917-.916 0-1.538-1.251-2.79-2.79-2.79-.017 0-.03.009-.047.01-.016 0-.03-.006-.046-.005-1.593.162-8.078 1.128-10.029 1.419L5.107 2.446A1.903 1.903 0 0 0 3.26 1H1.917l4.072 16.5 3.296-.482-1.104 3.459c-.964-.285-1.841-.644-2.61-1.082-.439-.25-1-.097-1.25.343-.251.44-.097 1 .343 1.251 1.116.635 2.411 1.132 3.845 1.478 1.471.354 3.029.533 4.633.533s3.163-.179 4.633-.533c1.435-.345 2.728-.843 3.845-1.478.44-.251.594-.811.343-1.251"/></svg>