<svg xmlns="http://www.w3.org/2000/svg" viewBox="0 0 24 24"><path fill="#44739e" d="M18.346 1c.931 0 1.692.762 1.692 1.692v18.616c0 .93-.761 1.692-1.692 1.692s-1.692-.762-1.692-1.692v-9.096c-1.355-.973-2.539-2.973-2.539-5.288 0-3.185 2.239-5.775 4.082-5.909.05-.004.098-.015.149-.015M9.885 13.515v7.793c0 .934-.759 1.692-1.693 1.692S6.5 22.242 6.5 21.308v-7.793c0-.429-.163-.843-.458-1.157l-.249-.267a6.766 6.766 0 0 1-1.831-4.629V1.846c0-.465.38-.846.846-.846s.846.381.846.846v4.231c0 .465.381.846.846.846s.846-.381.846-.846V1.846c0-.465.381-.846.846-.846s.846.381.846.846v4.231c0 .465.381.846.847.846s.846-.381.846-.846V1.846c0-.465.381-.846.846-.846s.846.381.846.846v5.616c0 1.719-.654 3.375-1.831 4.629l-.25.267c-.294.314-.457.727-.457 1.157"/></svg>