<svg xmlns="http://www.w3.org/2000/svg" fill="#44739e" viewBox="0 0 24 24"><path d="M16.7733 14.9969c-.9797 0-1.7774-.7986-1.7774-1.78v-.222h3.5537v.222c0 .9814-.7967 1.78-1.7763 1.78m9.494 6.5057c.373-.4067 1.0067-.4307 1.4126-.054.4048.3748.4288 1.0095.053 1.4143C24.7149 26.128 20.4395 28 16.0042 28s-8.7108-1.872-11.7287-5.1371c-.3759-.4048-.3519-1.0395.053-1.4142a.9964.9964 0 0 1 1.4125.054c.091.0989.1939.1848.2879.2798l2.8959-7.9636C5.492 14.8323 2.529 10.9615 4.7923 8.6448c1.2985-1.3303-.026-2.6575-.6767-3.2912-.192-.1879-.114-.5167.142-.6016 7.3792-2.4397 9.9692 1.614 10.3371 4.2276.148 1.0574-.3309 2.4496-.5898 3.0653l-.8497 2.1578c.4399 1.6001 1.8913 2.7854 3.6267 2.7854 2.0113 0 3.6446-1.587 3.7546-3.573.4109.196.7817.4618 1.1106.7716 1.2255.052 2.465-.3788 3.4037-1.3193a4.53 4.53 0 0 0 1.2386-2.3017c.151-.7436 1.2315-.7895 1.4774-.073.6708 1.965-.2779 3.4901-.6877 4.0258-.095.123-.197.2349-.3109.3398-1.0546.9725-2.451 1.3433-3.7796 1.1474.042.067.087.132.122.2049l2.68 5.7548v.001c.158-.155.3248-.3009.4768-.4638m-10.2631 4.4945c2.3351 0 4.6143-.6036 6.6395-1.697a1.97 1.97 0 0 1-.4768-.6427L19.9927 18.99H11.299l-1.7453 4.8033c-.064.174-.155.3279-.258.4718 2.0413 1.1184 4.3474 1.732 6.7086 1.732m-7.997-16.016c.5527 0 .9996-.4488.9996-1.0015S8.56 7.9792 8.0072 7.9792s-.9996.4477-.9996 1.0004.4468 1.0015.9996 1.0015"/></svg>