<svg xmlns="http://www.w3.org/2000/svg" fill="#44739e" viewBox="0 0 24 24"><path d="M26.686 17H26V5.141C26 2.306 23.695 0 20.86 0c-2.441 0-4.481 1.714-5.002 4h-1.851C12.899 4 12 4.898 12 6.007c0 .548.446.993.994.993h7.013c.548 0 .993-.445.993-.993C21 4.898 20.102 4 18.994 4h-1.052c.458-1.168 1.59-2 2.918-2C22.591 2 24 3.409 24 5.141V17H5.315C4.589 17 4 17.589 4 18.314c0 .726.589 1.315 1.315 1.315H6v2.228c0 2.816 1.633 5.244 4 6.407V30c0 1.104.896 2 2 2 1.105 0 2-.896 2-2v-1h4.858c.048 0 .095-.006.142-.007V30c0 1.104.896 2 2 2 1.105 0 2-.896 2-2v-2.331c1.814-1.296 3-3.413 3-5.812v-2.228h.686c.726 0 1.314-.589 1.314-1.315 0-.725-.588-1.314-1.314-1.314"/></svg>