<svg xmlns="http://www.w3.org/2000/svg" fill="#44739e" viewBox="0 0 24 24"><path d="M10.194 10.769a.26.26 0 0 1-.084-.04 1 1 0 0 0-.182-.082 1.322 1.322 0 0 0-1.029.11 1.67 1.67 0 0 0-.543.6.19.19 0 0 1-.035.087 1.534 1.534 0 0 0 0 1.127.19.19 0 0 1 .035.078 1.49 1.49 0 0 0 .445.531 1.3 1.3 0 0 0 1.325.084 1.84 1.84 0 0 0 .59-.612.65.65 0 0 1 .044-.121 1.578 1.578 0 0 0-.132-1.326 2.4 2.4 0 0 0-.434-.436m3.778 0a.24.24 0 0 1-.086-.04 1.15 1.15 0 0 0-.182-.083 1.89 1.89 0 0 0-.593-.052 1.28 1.28 0 0 0-.616.3 1.39 1.39 0 0 0-.363.465.5.5 0 0 1-.047.121 1.72 1.72 0 0 0 0 1.069.42.42 0 0 1 .047.122.112.112 0 0 0 .029.064.74.74 0 0 1 .074.1 1.291 1.291 0 0 0 2.115.04c.019-.03.052-.078.073-.105a1.554 1.554 0 0 0 .053-1.421 1.86 1.86 0 0 0-.504-.58M17.639 2H6.361A4.36 4.36 0 0 0 2 6.361v11.278A4.36 4.36 0 0 0 6.361 22h11.278A4.36 4.36 0 0 0 22 17.639V6.361A4.36 4.36 0 0 0 17.639 2M7.454 10.585a.941.941 0 0 0-1 .692 4.13 4.13 0 0 0-.054 1.245c0 1.226 0 1.229-.156 1.258-.081.016-.095.01-.155-.062l-.067-.08v-1.051c0-1.295.02-1.44.243-1.806a1.19 1.19 0 0 1 .433-.389.09.09 0 0 0 .055-.034.37.37 0 0 1 .147-.058.53.53 0 0 0 .147-.047.4.4 0 0 1 .143-.032c.436-.039.648.022.648.187-.001.133-.072.166-.384.177m3.787 1.471a2.7 2.7 0 0 1-.112.6.134.134 0 0 0-.036.067 1.659 1.659 0 0 1-2.966.288 2.1 2.1 0 0 0-.105-.163.207.207 0 0 1-.044-.1.3.3 0 0 0-.038-.108 2.018 2.018 0 0 1 .077-1.48 1.8 1.8 0 0 0 .1-.161 1.858 1.858 0 0 1 1.174-.788 1.7 1.7 0 0 1 1.309.389 2.17 2.17 0 0 1 .4.481.13.13 0 0 0 .031.063 2.25 2.25 0 0 1 .21.912m3.76.185a.92.92 0 0 0-.038.2 1.44 1.44 0 0 1-.171.442 1.724 1.724 0 0 1-1.7.889 1.99 1.99 0 0 1-.77-.313 2.3 2.3 0 0 1-.427-.47 1 1 0 0 0-.091-.142 2.69 2.69 0 0 1-.21-.87 2.47 2.47 0 0 1 .134-.64 2.26 2.26 0 0 1 .188-.356.14.14 0 0 0 .032-.059 1.5 1.5 0 0 1 .2-.216 1.653 1.653 0 0 1 .9-.479 1.733 1.733 0 0 1 1.624.689l.1.161A1.91 1.91 0 0 1 15 12.241Zm3.2 1.48c-.085.085-.142.087-.235.009l-.072-.061-.006-1.149a9.6 9.6 0 0 0-.035-1.2c-.015-.026-.056-.108-.092-.183a1.1 1.1 0 0 0-1.71-.231c-.285.285-.306.4-.306 1.68 0 1.1-.005 1.155-.125 1.185a.2.2 0 0 1-.213-.088 14.7 14.7 0 0 1 .006-2.375 1.422 1.422 0 0 1 1.187-1.09 2.4 2.4 0 0 1 .625.043.63.63 0 0 0 .145.046.233.233 0 0 1 .115.05.1.1 0 0 0 .06.035 1.4 1.4 0 0 1 .352.281 1.54 1.54 0 0 1 .345.769c.01.052.02.57.02 1.152v1.058z"/></svg>