<svg xmlns="http://www.w3.org/2000/svg" fill="#44739e" viewBox="0 0 24 24"><path d="M10.049 6.711a.432.432 0 1 0-.432-.432.433.433 0 0 0 .432.432m-4.127.284a.432.432 0 0 1-.432.432.432.432 0 0 1-.432-.432.432.432 0 0 1 .432-.432.432.432 0 0 1 .432.432M2.935 11.2a.432.432 0 1 0-.432-.432.433.433 0 0 0 .432.432m.973 3.562a.432.432 0 1 0 .432.432.432.432 0 0 0-.432-.432M7.6 17.355a.432.432 0 1 0 .433.432.433.433 0 0 0-.433-.432m4.429-.85a.432.432 0 1 0 .432.432.433.433 0 0 0-.432-.432m2.38-3.666a.433.433 0 1 0 .432.432.433.433 0 0 0-.432-.432M13.73 9.3a.432.432 0 1 0-.432-.432.433.433 0 0 0 .432.432m-6.459.112a.432.432 0 1 0-.023-.61.433.433 0 0 0 .023.61m-.479-1.221a.432.432 0 1 0-.024-.611.432.432 0 0 0 .024.611M6.3 6.88a.432.432 0 0 0 .61-.024.432.432 0 1 0-.61.024m4.624 10.211a.433.433 0 1 0 .3.127.432.432 0 0 0-.3-.127m-.124-.501a.432.432 0 1 0-.611 0 .432.432 0 0 0 .611 0m-.445-1.329a.432.432 0 1 0-.611 0 .433.433 0 0 0 .611 0M3.592 13.84a.433.433 0 1 0 0 .611.433.433 0 0 0 0-.611m1.239.179a.432.432 0 1 0-.612 0 .433.433 0 0 0 .612 0m1.329-.442a.432.432 0 1 0-.611 0 .432.432 0 0 0 .611 0m5.521-3.161a.432.432 0 1 0 .305.126.43.43 0 0 0-.305-.126m1.239.432a.432.432 0 1 0-.306-.126.43.43 0 0 0 .306.126m1.023-.569a.432.432 0 1 0 0-.611.433.433 0 0 0 0 .611m-2.3 3.421a.433.433 0 1 0-.432-.433.433.433 0 0 0 .432.433m1.613.142a.432.432 0 1 0-.432.432.432.432 0 0 0 .432-.432m.821.195a.433.433 0 1 0 .432.433.433.433 0 0 0-.432-.433M3.389 10.1a.432.432 0 1 0-.432-.432.433.433 0 0 0 .432.432m.749.142a.432.432 0 1 0 .432-.432.432.432 0 0 0-.432.432m1.685.196a.432.432 0 1 0 .432.432.432.432 0 0 0-.432-.432m1.744 5.016a.432.432 0 1 0-.432-.432.433.433 0 0 0 .432.432M7 15.771a.433.433 0 1 0 .432.433.433.433 0 0 0-.432-.433m-.631 1.253a.433.433 0 1 0 .432.432.433.433 0 0 0-.432-.432m4.879-9.794a.432.432 0 1 0-.433-.432.432.432 0 0 0 .433.432m-.571.318a.432.432 0 1 0 .432.432.432.432 0 0 0-.432-.432m-.628 2.117a.433.433 0 1 0-.432-.433.433.433 0 0 0 .432.433M4.912 8.134a.432.432 0 1 0-.612 0 .433.433 0 0 0 .612 0m.324.325a.432.432 0 1 0 .611 0 .433.433 0 0 0-.611 0m.936.941a.432.432 0 1 0 .611 0 .432.432 0 0 0-.611 0m1.547.93a.433.433 0 1 0 0 .612.435.435 0 0 0 0-.612m2.744 3.408a.432.432 0 1 0-.611 0 .432.432 0 0 0 .611 0m.937.935a.431.431 0 0 0 0-.611.433.433 0 0 0-.738.306.427.427 0 0 0 .127.3.432.432 0 0 0 .611.005m.324.936a.432.432 0 1 0 0-.611.432.432 0 0 0 0 .611m1.547.325a.4324.4324 0 1 0-.612.611.4324.4324 0 0 0 .612-.611m-.255-7.622a.432.432 0 1 0 0-.864.432.432 0 1 0 0 .864m-1.241.809a.431.431 0 1 0-.127-.3.43.43 0 0 0 .127.3m-.936.936a.433.433 0 1 0-.126-.3.43.43 0 0 0 .126.3m-.939.325a.432.432 0 0 0 .3.737.432.432 0 1 0 0-.864.427.427 0 0 0-.3.127m-2.741 2.796a.432.432 0 1 0 .611 0 .432.432 0 0 0-.611 0m-.63.809a.43.43 0 0 0-.306.127.432.432 0 1 0 .611 0 .427.427 0 0 0-.305-.127M5.9 15.049a.433.433 0 1 0 0 .612.434.434 0 0 0 0-.612m-1.243.809a.427.427 0 0 0-.3.127.431.431 0 1 0 .3-.127m2.157-3.366a.432.432 0 1 0-.433-.432.433.433 0 0 0 .433.432m-.892-.432a.432.432 0 0 1-.432.432.432.432 0 0 1-.432-.432.432.432 0 0 1 .432-.432.432.432 0 0 1 .432.432m-1.755.432a.432.432 0 1 0-.432-.432.433.433 0 0 0 .432.432m-.891-.432a.432.432 0 1 0-.432.432.432.432 0 0 0 .432-.432m10.866 0a.432.432 0 1 0 .432-.432.433.433 0 0 0-.432.432m-.459 0a.432.432 0 0 1-.432.432.432.432 0 0 1-.432-.432.432.432 0 0 1 .432-.432.432.432 0 0 1 .432.432m-2.183 0a.432.432 0 1 0 .432-.432.432.432 0 0 0-.432.432m-.9-.432a.432.432 0 1 0 .433.432.432.432 0 0 0-.433-.432m-1.391-1.379a.433.433 0 1 0-.433.432.433.433 0 0 0 .433-.432m-.433-.891a.433.433 0 1 0-.432-.432.433.433 0 0 0 .432.432m0-1.323a.433.433 0 1 0-.432-.435.433.433 0 0 0 .432.435m0-1.324a.432.432 0 1 0-.432-.432.433.433 0 0 0 .432.432m0 10.697a.433.433 0 1 0 .433.432.433.433 0 0 0-.433-.432m0-1.323a.432.432 0 1 0 .433.432.433.433 0 0 0-.433-.432m0-1.323a.432.432 0 1 0 .433.432.432.432 0 0 0-.433-.432m0-1.324a.433.433 0 1 0 .433.433.433.433 0 0 0-.433-.433M9.7 12.06a.92.92 0 1 0-.92.919.921.921 0 0 0 .92-.919m5.853 0a6.777 6.777 0 1 0-6.777 6.776 6.784 6.784 0 0 0 6.777-6.776m-1.476 3.016a.607.607 0 1 1 .606-.606.607.607 0 0 1-.606.606m-7.12-.228a.606.606 0 1 1 .131-.2.605.605 0 1 1-.127.37.59.59 0 0 1 .046-.231.7.7 0 0 1-.05.061m-.143-3.394a.606.606 0 1 1-.607.606.606.606 0 0 1 .607-.606m-.991.022a.606.606 0 1 1 .606-.606.607.607 0 0 1-.606.606m1.59-.234a.606.606 0 1 1 .429-.177.607.607 0 0 1-.429.177m-.507-1.113a.606.606 0 1 1 0-.857.6.6 0 0 1 0 .857m-.936-.936a.606.606 0 1 1 0-.857.6.6 0 0 1 0 .857m-.794 1.049a.606.606 0 1 1-.606-.606.606.606 0 0 1 .606.606m-1.009 1.212a.606.606 0 1 1-.606.606.606.606 0 0 1 .606-.606M4.1 13.285a.606.606 0 1 1 0 .857.6.6 0 0 1 0-.857m.788-1.225a.606.606 0 1 1 .606.606.606.606 0 0 1-.61-.606zm.542.783a.606.606 0 1 1 0 .857.607.607 0 0 1-.004-.857zm2.467 1.069a.606.606 0 1 1 0-.857.6.6 0 0 1-.004.857zm-.21-1.852a1.094 1.094 0 1 1 1.093 1.093 1.095 1.095 0 0 1-1.097-1.093Zm.487-1.811a.606.606 0 1 1 .606.606.607.607 0 0 1-.61-.606Zm2.546-.926a.607.607 0 1 1-.177.429.6.6 0 0 1 .173-.429Zm-.039-.737a.606.606 0 1 1 .606-.606.607.607 0 0 1-.61.606zm1.857 3.474a.606.606 0 1 1-.606-.606.607.607 0 0 1 .602.606zm-.043-2.073a.606.606 0 1 1 0 .858.607.607 0 0 1-.004-.858zm-.382 1.29a.606.606 0 1 1 0-.858.6.6 0 0 1-.004.858zm-1.471-1.018a.6.6 0 1 1-.429-.178.6.6 0 0 1 .425.178zM9.729 13a.606.606 0 1 1 0 .857.605.605 0 0 1 0-.857m.875-.338a.606.606 0 1 1 .607-.606.607.607 0 0 1-.611.61zm1.039 0a.607.607 0 1 1-.606.606.607.607 0 0 1 .606-.603zm.815 2.21a.606.606 0 1 1-.857 0 .607.607 0 0 1 .857.003zm-.24-1.033a.606.606 0 1 1 .606.606.607.607 0 0 1-.606-.603zm1.033-1.176a.606.606 0 1 1 .606-.606.607.607 0 0 1-.606.609zm1.158 1.212a.607.607 0 1 1 .606-.607.607.607 0 0 1-.606.61zm.771-1.818a.606.606 0 1 1-.606-.606.606.606 0 0 1 .606.609zm-.5-1.658a.606.606 0 1 1 0-.857.6.6 0 0 1-.002.858zm-.342-1.535a.606.606 0 1 1-.606-.606.607.607 0 0 1 .604.609zm-1.75-1.412a.606.606 0 0 1 1.034.428.606.606 0 0 1-1.212 0 .6.6 0 0 1 .178-.428m-.079.935a.607.607 0 1 1-.428-.177.6.6 0 0 1 .428.177m-1.261-2.2a.606.606 0 1 1-.607.606.607.607 0 0 1 .607-.601zm-1.2-.519a.606.606 0 1 1-.606.606.607.607 0 0 1 .607-.601Zm0 2.953a.607.607 0 1 1-.606.606.607.607 0 0 1 .607-.601ZM8.776 5.673a.606.606 0 1 1-.606.606.606.606 0 0 1 .606-.606m0 1.327a.607.607 0 1 1-.606.6.606.606 0 0 1 .606-.6m0 1.323a.607.607 0 1 1-.606.607.606.606 0 0 1 .606-.611ZM8.01 9.507a.608.608 0 0 1-.857.033.606.606 0 1 1 .857-.033m-.48-1.221a.608.608 0 0 1-.857.033.606.606 0 1 1 .857-.033m-2.04-1.9a.607.607 0 0 1 .5.269.6.6 0 0 1-.008-.072.606.606 0 1 1 .629.582h-.02a.6.6 0 0 1-.411-.162.6.6 0 0 1-.092-.103.6.6 0 0 1 .012.1.606.606 0 1 1-.606-.606ZM4.177 7.4a.607.607 0 1 1 0 .857.608.608 0 0 1 0-.857m-1.242 2.762a.6.6 0 0 1 .113.011.606.606 0 1 1 .341.105.6.6 0 0 1-.113-.011.606.606 0 1 1-.341-.1zm-.7 1.9a.606.606 0 1 1 .606.606.606.606 0 0 1-.603-.608Zm.62 2.514a.605.605 0 0 1 0-.857.6.6 0 0 1 .857 0 .607.607 0 0 1-.429 1.035.6.6 0 0 1-.425-.18zM3.908 15.8a.606.606 0 1 1 .606-.606.607.607 0 0 1-.606.606m1.178.919a.607.607 0 1 1 0-.857.6.6 0 0 1 0 .857m.078-.935a.608.608 0 1 1 .429.177.608.608 0 0 1-.429-.177m1.205 2.279a.607.607 0 1 1 .606-.607.607.607 0 0 1-.606.607M6.39 16.2a.607.607 0 1 1 .61.61.607.607 0 0 1-.61-.61m2.386 2.243a.609.609 0 0 1-.593-.481.606.606 0 1 1 .014-.3.606.606 0 1 1 .579.786zm0-1.324a.606.606 0 1 1 .606-.606.607.607 0 0 1-.606.61zm0-1.323a.606.606 0 1 1 .606-.606.607.607 0 0 1-.606.61Zm0-1.323a.607.607 0 1 1 .606-.606.607.607 0 0 1-.606.61zm.845.049a.607.607 0 0 1 .857 0 .6.6 0 0 1 .049.056.59.59 0 0 1-.04-.214.608.608 0 1 1 .178.428.44.44 0 0 1-.049-.056.606.606 0 1 1-.995-.214m.442 1.33a.607.607 0 1 1 0 .857.607.607 0 0 1 0-.853zm1.289 2.1a.606.606 0 1 1 0-.857.6.6 0 0 1 0 .857m1.613-1.107a.608.608 0 0 1-.371-.127.61.61 0 0 1 .041.219.606.606 0 1 1-.606-.606.6.6 0 0 1 .371.128.607.607 0 1 1 .565.386M16.5 6.592a.433.433 0 1 0-.432-.432.433.433 0 0 0 .432.432m-2.448 10.644a.432.432 0 1 0 .432.432.431.431 0 0 0-.432-.432m4.425-.85a.432.432 0 1 0 .432.432.432.432 0 0 0-.432-.432m2.379-3.679a.432.432 0 1 0 .433.432.432.432 0 0 0-.433-.432m-.679-3.527a.432.432 0 1 0-.432-.432.432.432 0 0 0 .432.432m-6.844-3.054a.432.432 0 0 0-.611.024.41.41 0 0 0-.084.134 6.9 6.9 0 0 1 .662.5.55.55 0 0 0 .057-.051.434.434 0 0 0-.024-.607m4.038 10.846a.432.432 0 1 0 .3.126.43.43 0 0 0-.3-.126m-.127-.501a.432.432 0 1 0-.611 0 .432.432 0 0 0 .611 0m-.444-1.33a.432.432 0 1 0-.611 0 .432.432 0 0 0 .611 0m1.328-4.841a.432.432 0 1 0 .306.126.433.433 0 0 0-.306-.126m1.239.429a.427.427 0 0 0 .3-.127.431.431 0 1 0-.3.127m1.024-.559a.432.432 0 1 0 0-.611.432.432 0 0 0 0 .611m-2.301 3.414a.432.432 0 1 0-.432-.432.433.433 0 0 0 .432.432m1.61.139a.433.433 0 1 0-.432.432.433.433 0 0 0 .432-.432m.824.195a.432.432 0 1 0 .432.432.433.433 0 0 0-.432-.432m-7.278 3.459q-.242.2-.5.386a.44.44 0 0 0 .072.006.432.432 0 0 0 .428-.392M17.7 7.111a.432.432 0 1 0-.432-.432.433.433 0 0 0 .432.432m-.576.317a.432.432 0 1 0 .432.432.433.433 0 0 0-.432-.432M16.5 9.545a.432.432 0 1 0-.432-.432.433.433 0 0 0 .432.432m.411 4.073a.432.432 0 1 0-.611 0 .433.433 0 0 0 .611 0m.935.936a.432.432 0 1 0-.611 0 .429.429 0 0 0 .611 0m.325.936a.432.432 0 1 0 .611-.611.432.432 0 0 0-.611.611m1.241.198a.432.432 0 1 0 .306.126.43.43 0 0 0-.306-.126m.052-7.495a.432.432 0 1 0 0-.864.432.432 0 0 0-.433.432.434.434 0 0 0 .433.432M18.222 9a.433.433 0 1 0-.122-.3.43.43 0 0 0 .122.3m-.935.938a.431.431 0 1 0-.127-.306.43.43 0 0 0 .127.306m-.325.935a.431.431 0 0 0 0-.611.433.433 0 0 0-.738.306.432.432 0 0 0 .738.3zm3.627 1.067a.433.433 0 1 0 .433-.432.433.433 0 0 0-.433.432m-.459 0a.432.432 0 0 1-.432.432.432.432 0 0 1-.432-.432.432.432 0 0 1 .432-.432.432.432 0 0 1 .432.432m-2.187 0a.432.432 0 1 0 .432-.432.433.433 0 0 0-.432.432m-1.323 0a.432.432 0 1 0 .432-.432.432.432 0 0 0-.432.432m-1.303-2.232a6.8 6.8 0 0 1 .216.722.431.431 0 0 0-.216-.722m.339-.902a.432.432 0 0 0-.831-.166q.162.285.3.586a.433.433 0 0 0 .534-.42zm-.432-1.755a.432.432 0 1 0 .432.432.433.433 0 0 0-.432-.432m0-1.324a.433.433 0 1 0 .432.433.433.433 0 0 0-.432-.433m0 11.562a.432.432 0 1 0 .432.432.433.433 0 0 0-.432-.432m0-1.323a.432.432 0 1 0 .432.432.432.432 0 0 0-.432-.432m0-.459a.433.433 0 0 0 0-.865 6.9 6.9 0 0 1-.334.712.431.431 0 0 0 .334.153m.432-1.756a.427.427 0 0 0-.08-.249q-.069.325-.168.639a.432.432 0 0 0 .248-.39m.487-1.811a.919.919 0 0 0-.478-.806 7.1 7.1 0 0 1 .062.926c0 .225-.012.449-.033.669a.919.919 0 0 0 .449-.789m-.919-6.776a6.744 6.744 0 0 0-3.151.778q.213.115.417.245a.62.62 0 0 1 .1-.156.608.608 0 0 1 .861-.031.606.606 0 0 1 .033.857.5.5 0 0 1-.052.049c.1.089.194.18.287.275a.6.6 0 0 1 .405.446 7 7 0 0 1 .6.84.606.606 0 1 1 .5.947H15.2l.046.114a.6.6 0 0 1 .329 1.1c.021.1.04.2.057.306a1.093 1.093 0 0 1 .037 2.01q-.022.178-.054.354a.605.605 0 0 1-.277 1.055c-.015.042-.03.085-.046.127a.606.606 0 1 1-.488 1.04 7 7 0 0 1-1.393 1.72.6.6 0 0 1 .009.1.6.6 0 0 1-.861.549 6.5 6.5 0 0 1-.265.165 6.776 6.776 0 1 0 2.93-12.89m0 13.163a.607.607 0 0 1-.593-.48.606.606 0 1 1 .014-.3.606.606 0 1 1 .579.785zm0-1.323a.606.606 0 1 1 .606-.606.607.607 0 0 1-.606.602Zm6.4-5.064a.607.607 0 1 1-.606-.606.607.607 0 0 1 .61.606zm-.5-1.657a.606.606 0 1 1 0-.857.6.6 0 0 1 .001.857zM17.164 9.2a.606.606 0 0 1 1.034.428.606.606 0 0 1-1.212 0 .6.6 0 0 1 .178-.428m-.04-.738a.606.606 0 1 1 .606-.606.606.606 0 0 1-.606.61zm1.857 3.474a.606.606 0 1 1-.606-.606.607.607 0 0 1 .606.61zm-.043-2.072a.606.606 0 1 1 .857.857.6.6 0 0 1-.857 0 .607.607 0 0 1 0-.853zm-.381 1.289a.606.606 0 1 1 0-.857.606.606 0 0 1 0 .861zm-.9.783a.606.606 0 1 1-.606-.606.607.607 0 0 1 .607.61zm.432.606a.606.606 0 1 1-.606.606.607.607 0 0 1 .607-.602zm.815 2.21a.606.606 0 1 1-.857 0 .607.607 0 0 1 .858.004zm-.24-1.033a.607.607 0 1 1 .607.606.607.607 0 0 1-.606-.602zm1.036-1.172a.607.607 0 1 1 .607-.607.607.607 0 0 1-.607.607m1.085-3.8a.606.606 0 1 1-.606-.606.607.607 0 0 1 .604.607Zm-1.75-1.415a.6.6 0 1 1-.178.429.6.6 0 0 1 .178-.429m-.079.936a.6.6 0 1 1-.428-.178.6.6 0 0 1 .428.178M17.7 6.073a.606.606 0 1 1-.606.606.607.607 0 0 1 .606-.606m-1.2-.52a.607.607 0 1 1-.606.607.607.607 0 0 1 .606-.607m-1.276 2.536a.606.606 0 1 1 .606-.606.607.607 0 0 1-.606.606m0-1.323a.607.607 0 1 1 .606-.606.607.607 0 0 1-.606.606m.667 2.347a.606.606 0 1 1 .606.606.607.607 0 0 1-.606-.606M16.228 11a.6.6 0 1 1 .428.178.6.6 0 0 1-.428-.178m-.052 1.888a.607.607 0 1 1 0 .857.608.608 0 0 1 0-.861zm-.108 1.523a.607.607 0 0 1 .857 0 .6.6 0 0 1 .049.056.62.62 0 0 1-.039-.215.6.6 0 1 1 .177.429.6.6 0 0 1-.049-.056.606.606 0 1 1-.995-.214m.442 1.33a.606.606 0 1 1 0 .857.605.605 0 0 1 0-.861zm1.289 2.1a.606.606 0 1 1 0-.858.6.6 0 0 1 .001.85zm2.042-1.285a.6.6 0 0 1-.8.05.6.6 0 0 1 .042.22.608.608 0 1 1-.235-.478.606.606 0 1 1 .993.208m.683-1.592a.606.606 0 1 1 .606-.606.607.607 0 0 1-.606.598zm.332-1.2a.606.606 0 1 1 .607-.606.607.607 0 0 1-.607.6z"/></svg>