<svg xmlns="http://www.w3.org/2000/svg" viewBox="0 0 24 24"><path fill="#44739e" d="M13.657 6.714a1.3 1.3 0 0 0-.572.147 2.41 2.41 0 0 1-.744.259v.226c.428-.018.832-.317 1.232-.32.456 0 .519.458.514.6a1.13 1.13 0 0 1-.11.49c-.019-.11-.093-.46-.22-.521a1.062 1.062 0 0 0-.687-.022 2.73 2.73 0 0 0-.726-.122v-.105h-.039l-.03-.22.069-.008v-.12l-.154-.064v1.232h-.368V6.934l-.154.064v.122l.069.009-.03.22h-.039v.104a2.73 2.73 0 0 0-.726.122 1.062 1.062 0 0 0-.687.022c-.122.061-.204.407-.22.522a1.144 1.144 0 0 1-.11-.492c0-.141.058-.602.514-.598.401 0 .804.301 1.232.32V7.12a2.44 2.44 0 0 1-.743-.259 1.28 1.28 0 0 0-.572-.147c-.22 0-.735.128-.706.88a1.54 1.54 0 0 0 .231.795l.272-.082-.036.103h.427a.121.121 0 0 1 .11 0h.076a.479.479 0 0 1 .117-.592.528.528 0 0 1 .206.593h.049a.177.177 0 0 1 .134-.064.096.096 0 0 1 .081.064h.261v-.038a.3.3 0 0 0 .026.032h.231a.44.44 0 0 0-.077-.094.44.44 0 0 0-.063-.053h.622a.44.44 0 0 0-.063.053.44.44 0 0 0-.077.094h.231a.3.3 0 0 0 .027-.032v.032h.259a.097.097 0 0 1 .082-.064.177.177 0 0 1 .133.064h.05a.525.525 0 0 1 .206-.593.481.481 0 0 1 .117.593h.077a.119.119 0 0 1 .11 0h.427l-.035-.104.272.083a1.54 1.54 0 0 0 .23-.794c.028-.747-.482-.874-.706-.876m.083 3.264h-3.489a.223.223 0 1 0 0 .446h3.489a.223.223 0 1 0 0-.446m-2.961-.217c0 .076.123.139.274.139s.273-.063.273-.139-.122-.139-.273-.139-.274.062-.274.139m-.593.126h.31v-.254h-.31l-.108.126Zm1.466-.254h.687v.254h-.687Zm1.843 0v.254h.31l.109-.128-.109-.126Zm-.828.128c0 .076.121.139.272.139s.273-.063.273-.139-.122-.139-.273-.139-.272.062-.272.139M11.01 9.07c-.018-.03-.041-.028-.057 0a.638.638 0 0 1-.471.274.447.447 0 0 1-.323-.121l.033.318h3.619l.033-.318a.447.447 0 0 1-.324.121.642.642 0 0 1-.471-.274c-.016-.027-.039-.028-.057 0a.573.573 0 0 1-.537.294.506.506 0 0 1-.455-.245.502.502 0 0 1-.453.245.575.575 0 0 1-.537-.294m.59-.663.026.026c.086.083.185.121.22.088s.014-.065-.015-.115H11.6Zm1.622.116a.43.43 0 0 1 .13-.116h-.075a1.1 1.1 0 0 1-.055.116m.245-.117a.266.266 0 0 1-.08.376c-.035-.081-.076-.089-.11-.081s-.068.028-.088.11l-.254-.02a.123.123 0 0 0-.094-.127.14.14 0 0 0-.143.079.514.514 0 0 1 0-.33h-.259v.55c-.123-.212-.299-.236-.316-.058a.363.363 0 0 0 .357.33.479.479 0 0 0 .432-.276l.254.02a.411.411 0 0 0 .505.22c.11-.039.182-.096.157-.164s-.129-.015-.203.013c0 0 .11-.352.157-.503.013.042.076.192.157.146.044-.026.016-.129-.035-.279h-.428Zm-1.294 0c-.03.05-.038.094-.016.115s.134-.005.22-.088l.027-.026h-.231Zm-.774.001h-.087a.5.5 0 0 1-.005.33.14.14 0 0 0-.143-.079.125.125 0 0 0-.094.126l-.254.02c-.019-.077-.049-.097-.087-.11s-.078 0-.11.082a.266.266 0 0 1-.08-.376h-.431c-.051.149-.078.252-.034.277.08.047.143-.103.156-.144.052.15.157.502.157.502-.074-.029-.173-.092-.203-.013s.05.125.157.164a.411.411 0 0 0 .505-.22l.254-.02a.477.477 0 0 0 .432.277c.181 0 .371-.173.357-.33-.017-.178-.192-.153-.316.058v-.55h-.174Zm-.302 0h-.049q-.007.047-.019.102a.4.4 0 0 1 .068-.102m-.317.116a1.2 1.2 0 0 1-.055-.117h-.076a.42.42 0 0 1 .131.117m2.193-.014q-.0105-.054-.018-.102h-.051a.36.36 0 0 1 .069.102m-1.049-2.291a.382.382 0 0 0-.295.298h.295Zm.076.76a.382.382 0 0 0 .373-.307h-.745a.381.381 0 0 0 .372.307m-.592.04a.171.171 0 1 0-.168-.17.169.169 0 0 0 .168.17m-.393-.172a.169.169 0 1 0-.168-.169.168.168 0 0 0 .168.169m.985.18a.116.116 0 0 0-.11.116.11.11 0 0 0 .11.115.117.117 0 0 0 .115-.116.11.11 0 0 0-.115-.115m0 .291a.117.117 0 0 0-.11.116.11.11 0 0 0 .11.11.117.117 0 0 0 0-.232Zm0 .291a.116.116 0 0 0 0 .231.116.116 0 0 0 0-.231m0 .291a.11.11 0 0 0-.11.115.11.11 0 0 0 .11.11.116.116 0 0 0 0-.231Zm-1.388-1.198a.171.171 0 1 0-.169-.17.168.168 0 0 0 .169.17m3.374-.185a.169.169 0 0 1-.17.169.169.169 0 0 1-.169-.169.169.169 0 0 1 .169-.169.169.169 0 0 1 .17.169m.324.504a.168.168 0 1 0 .167-.171.168.168 0 0 0-.167.171m-.105-.166a.171.171 0 1 0-.168-.17.169.169 0 0 0 .168.17m-.814-.153a.171.171 0 1 0-.168-.17.168.168 0 0 0 .168.17m-.401.145a.169.169 0 1 0-.167-.169.168.168 0 0 0 .167.169m-1.1-.886a.124.124 0 0 1-.028.167.44.44 0 0 1-.047.041h.371a.4.4 0 0 1-.044-.039.124.124 0 0 1-.028-.166c.027-.027.099 0 .164.069a.44.44 0 0 1 .042.049v-.458a.4.4 0 0 1-.04.046c-.064.065-.137.096-.163.069s0-.101.068-.166c.016-.015.031-.03.046-.042h-.451a.4.4 0 0 1 .045.04c.064.065.095.14.068.166s-.099 0-.164-.069a.6.6 0 0 1-.04-.049v.458a.4.4 0 0 1 .038-.045c.066-.066.139-.097.163-.071m.706 1.058a.171.171 0 0 0 0-.34.172.172 0 0 0-.169.17.169.169 0 0 0 .169.17m-.521-.801v.299h.299a.384.384 0 0 0-.299-.299m-2.549.972a.171.171 0 1 0-.166-.169.168.168 0 0 0 .166.169m.09.669a.168.168 0 1 0-.33 0 .168.168 0 1 0 .33 0m-.057.238a.171.171 0 1 0 .168.169.168.168 0 0 0-.168-.169m-.133-.493a.169.169 0 1 0-.167-.17.167.167 0 0 0 .167.17m.669 1.43c.044-.016.06-.089.034-.165s-.081-.126-.127-.11-.059.088-.034.165.082.123.127.11m.092-2.347a.171.171 0 1 0-.168-.17.171.171 0 0 0 .168.17m4.257 1.41a.171.171 0 1 0 .167.169.168.168 0 0 0-.167-.169m-.444.66c-.045-.016-.101.034-.127.11s-.01.149.034.165.102-.035.127-.11.01-.151-.034-.165m-1.872-.095a.127.127 0 1 0-.128.128.127.127 0 0 0 .128-.128m2.449-1.397a.168.168 0 0 0-.168.169.168.168 0 1 0 .168-.169M9.8 6.854a.171.171 0 1 0-.167-.17.167.167 0 0 0 .167.17m4.754.835a.171.171 0 1 0 .169.169.168.168 0 0 0-.169-.169m-4.547 7.027a.652.652 0 0 0 .464.195.66.66 0 0 0 .66-.66v-.66h-.66a.66.66 0 0 0-.464.195.669.669 0 0 0 0 .939Zm10.448-2.195a.08.08 0 1 0 .08.08.08.08 0 0 0-.08-.08m-2.242 1.256a.667.667 0 0 0 0 .939.65.65 0 0 0 .464.195.66.66 0 0 0 .66-.66v-.66h-.66a.65.65 0 0 0-.464.186m-12.514-.25a.675.675 0 0 0-.484.203.694.694 0 0 0 0 .978.67.67 0 0 0 .484.203.694.694 0 0 0 .484-1.181.676.676 0 0 0-.484-.203m10.122-2.092V4.582H8.19v6.853H1v5.453h7.19v2.53h7.631v-2.53H23v-5.453Zm.55.959h.22l-1.025 2.238-1.025-2.238h.22l.804 1.76Zm-8.03-7.66h7.329v6.701H8.341Zm6.102 7.66-.518 2.945h-.205l.519-2.945Zm-1.972 0v2.942h-.201v-2.943Zm-.278 0v2.942h-.202v-2.943Zm-1.722.909a.947.947 0 0 0-.66 1.613.928.928 0 0 0 1.32 0 .95.95 0 0 0 .196-.293v.713h-.2v-.152a1.125 1.125 0 0 1-1.461-.124 1.152 1.152 0 0 1 .805-1.957h1.136v2.236h-.201v-2.037Zm.859.078v.867a.864.864 0 0 1-.859.867.845.845 0 0 1-.606-.254.871.871 0 0 1 0-1.226.845.845 0 0 1 .606-.254Zm-3.94-.269h.2v1.129a.487.487 0 0 0 .141.342.47.47 0 0 0 .338.141.508.508 0 0 0 .478-.511v-1.1h.201v1.1a.707.707 0 0 1-.679.715.67.67 0 0 1-.48-.202.682.682 0 0 1-.199-.485Zm-3.446 2.217-1.022-1.456h.53a.509.509 0 0 0 .47-.524.5.5 0 0 0-.143-.344.44.44 0 0 0-.33-.131h-.537v2.46H2.71v-2.671h.742a.647.647 0 0 1 .47.19.718.718 0 0 1-.47 1.216H3.31l.88 1.256Zm.341 0-.826-1.179a.695.695 0 0 0 .495-.211.873.873 0 0 0 .246-.593.79.79 0 0 0-.22-.544.718.718 0 0 0-.524-.213h-.822v2.741H2.43v-2.944h1.02a.913.913 0 0 1 .66.273.983.983 0 0 1 .283.687 1.07 1.07 0 0 1-.305.737.92.92 0 0 1-.296.202l.731 1.044Zm2.237-.278a1.156 1.156 0 0 1-1.65 0 1.179 1.179 0 0 1 .824-2.008 1.147 1.147 0 0 1 .823.345 1.185 1.185 0 0 1 0 1.663Zm.59-1.941h.2v1.13a.763.763 0 0 0 .22.54.746.746 0 0 0 .534.22.733.733 0 0 0 .522-.22.85.85 0 0 0 .158-.23v.614a.684.684 0 0 1-.68.687.67.67 0 0 1-.479-.202.68.68 0 0 1-.178-.315h.213a.474.474 0 0 0 .447.313.481.481 0 0 0 .478-.483v-.096a.896.896 0 0 1-.478.138.943.943 0 0 1-.677-.283.968.968 0 0 1-.28-.684Zm.957 3.023a.96.96 0 0 1-.942-.798h.205a.76.76 0 0 0 .202.37.749.749 0 0 0 1.069 0 .76.76 0 0 0 .22-.54V13.11h.207v2.055a.968.968 0 0 1-.281.684.948.948 0 0 1-.68.284m7.601 3.139H8.341v-2.384h7.329Zm1.259-3.933-.383-2.174-.978 2.138-.977-2.136-.384 2.173h-.204l.502-2.844 1.063 2.323 1.064-2.323.502 2.844Zm.283 0-.518-2.945h.203l.519 2.945Zm2.323-1.092a.864.864 0 0 1-.858.867.845.845 0 0 1-.607-.255.873.873 0 0 1 0-1.225.845.845 0 0 1 .607-.254h.858Zm.277 1.088h-.2v-2.033h-.935a.946.946 0 0 0-.66 1.612.927.927 0 0 0 1.32 0 .95.95 0 0 0 .197-.292v.713h-.201v-.152a1.125 1.125 0 0 1-1.461-.124 1.152 1.152 0 0 1 .805-1.956h1.133Zm.603 0h-.201v-2.227h.201Zm.278 0h-.201v-2.227h.198Zm-.238-2.472a.262.262 0 0 1 0-.523.262.262 0 0 1 0 .523m.871 2.472h-.196v-2.942h.2Zm.278 0h-.201v-2.942h.201ZM5.699 13.247a.974.974 0 0 0-.681 1.66.956.956 0 0 0 1.362 0 .98.98 0 0 0 0-1.375.95.95 0 0 0-.681-.285m0 1.87a.873.873 0 0 1-.627-.262.9.9 0 0 1 0-1.265.88.88 0 0 1 1.253 0 .896.896 0 0 1-.626 1.527"/></svg>