<svg xmlns="http://www.w3.org/2000/svg" viewBox="0 0 24 24"><path fill="#44739e" d="M1 10.124h7.161v3.752H1Zm4.198 3.102h1.899l-1.199-.855.054-.005a.72.72 0 0 0 .521-.216.8.8 0 0 0 .231-.553c0-.151-.027-.274-.075-.382a.78.78 0 0 0-.193-.258.74.74 0 0 0-.27-.151.95.95 0 0 0-.3-.048h-3.78l-.005 2.457h1.811v-.807h.371Zm-.477-1.892c.08 0 .145.027.192.086a.312.312 0 0 1 .071.182.264.264 0 0 1-.07.188.26.26 0 0 1-.172.092h-.85v-.548Zm3.699-1.21h7.161v3.752H8.419Zm5.843 1.225v-.58H9.607v.58h1.372v1.877h1.935v-1.877Zm1.576-1.225H23v3.752h-7.161Zm5.887 3.102v-.565h-2.661v-1.892h-2.07v2.457Z"/></svg>