<svg xmlns="http://www.w3.org/2000/svg" fill="#44739e" viewBox="0 0 24 24"><path d="M12 1.961a10 10 0 1 0 10 10 10 10 0 0 0-10-10m2.042 4.878L11 7.835l2.062-1.429Zm-.617-.851-.412-.488-.052-.05-.061-.078.986.463-.15.462-.017.054-.031-.051-.207-.247Zm.821 1.06.377 1.66-3.785-.539zm-.355-.574L14 6.141l.135.459Zm-.417-1.221.612.4-1.3-.492zm-.909-.021.772 1.029-1.462-.661Zm-.9.533.788.354-1.153.038Zm-.514.655 1.165-.039-1.326.539Zm-.248.793 1.318-.528L10.59 7.81ZM8.13 18.533l2.07-9.618 1.164 7.219zm3.486-2.484L10.485 9.09l3.025 6.992zm-1.144-7.666 4.183.594-.969 6.844zm3.674 6.05.737-5.23.484.613zm.279-7.733-.217-.809 1.568.438Z"/></svg>