<svg xmlns="http://www.w3.org/2000/svg" viewBox="0 0 24 24"><path fill="#44739e" d="M12 1a11 11 0 1 0 11 11A11 11 0 0 0 12 1m2.246 5.366L10.9 7.461l2.268-1.571Zm-.678-.936-.454-.537-.057-.055-.067-.086 1.085.509-.165.509-.019.059-.034-.056-.228-.272Zm.903 1.166.414 1.826-4.163-.593Zm-.391-.632.12-.366.148.505Zm-.459-1.343.674.44-1.43-.541Zm-1-.023.85 1.132-1.608-.727Zm-.99.586.867.39-1.268.042Zm-.565.721 1.282-.043-1.459.593Zm-.273.872 1.45-.581-1.794 1.238Zm-3.05 12.452 2.277-10.58 1.28 7.941Zm3.835-2.732-1.245-7.655 3.328 7.691Zm-1.259-8.433 4.602.654-1.066 7.528Zm4.042 6.655.81-5.753.533.674Zm.307-8.506-.239-.89 1.725.482Z"/></svg>