<svg xmlns="http://www.w3.org/2000/svg" viewBox="0 0 24 24"><path fill="#44739e" d="M11.557 18.603h1.067v1.067h-1.067Zm6.779-2.259h1.067v3.327h-1.067Zm4.63-4.994a.317.317 0 0 0-.291-.192h-3.419v-9.84A.318.318 0 0 0 18.939 1H5.063a.318.318 0 0 0-.318.318v9.839H1.326a.318.318 0 0 0-.23.536l2.475 2.599H2.454a.859.859 0 0 0-.859.859v3.452a.856.856 0 0 0 .185.534.86.86 0 0 0-.185.533v1.203a.859.859 0 0 0 .859.858h5.713a.853.853 0 0 0 .533-.185.85.85 0 0 0 .534.185h1.423l1.111 1.17a.314.314 0 0 0 .169.092A.28.28 0 0 0 12 23a.33.33 0 0 0 .09-.013.32.32 0 0 0 .14-.086l1.111-1.17h1.604a.853.853 0 0 0 .533-.185.85.85 0 0 0 .533.185h5.713a.859.859 0 0 0 .859-.858v-5.722a.859.859 0 0 0-.859-.859h-1.295l2.476-2.599a.318.318 0 0 0 .061-.343M5.379 1.634h13.242v.234L14.59 14.292h-.479L17.94 2.358H6.111l3.825 11.934h-.5L5.379 1.788Zm2.788 14.709H4.778v1.067h3.389v3.462H2.454v-1.205h3.39V18.6h-3.39v-3.449h5.713Zm.533-1.865a.853.853 0 0 0-.533-.186H4.445l-2.379-2.501h3a.317.317 0 0 0 .317-.317V2.778L9.118 14.3a.844.844 0 0 0-.418.178m3.325 7.719-.018.019-.007.006-.467-.491h.935Zm2.922-1.324H9.234v-3.462h3.39v-1.067h-3.39v-1.193h5.713Zm.208-6.555a.92.92 0 0 0-.208-.025h-.036l.244-.75Zm6.571.834v5.722h-5.712v-7.985h2.32v2.26Zm-2.17-.86h-.359v-1.403a.859.859 0 0 0-.859-.859h-2.322a.85.85 0 0 0-.401.099l3.009-9.275v8.618a.317.317 0 0 0 .317.317h3Z"/></svg>