<svg xmlns="http://www.w3.org/2000/svg" viewBox="0 0 24 24"><path fill="#44739e" d="M10.451 11.308c-.175.452-.35.903-.533 1.376h1.159l-.559-1.382Zm10.899-1.063a12.4 12.4 0 0 0-1.197-.363q-2.422-.584-4.849-1.139a12 12 0 0 0-2.951-.367c-.608.014-1.217.024-1.819.095-.988.117-1.991.23-2.966.44-1.287.28-2.554.659-3.831.988-.274.072-.549.14-.865.22.027-.146.041-.242.063-.33a9.25 9.25 0 0 1 1.779-3.607 9.39 9.39 0 0 1 8.992-3.322 9.194 9.194 0 0 1 6.974 5.807c.087.21.11.505.271.605s.454.04.689.042h1.014c-.022-.103-.031-.163-.047-.22A11.042 11.042 0 0 0 12.332 1.03a10.54 10.54 0 0 0-2.579.24 10.5 10.5 0 0 0-5.514 2.979 10.669 10.669 0 0 0-3.217 8.348 4.03 4.03 0 0 0 .453 1.678 1.746 1.746 0 0 0 1.647 1.011q6.106.013 12.211.037c1.689.005 3.378 0 5.067 0h.304a3.1 3.1 0 0 1-.11.312c-.202.4-.387.809-.619 1.192a9.301 9.301 0 0 1-9.606 4.356 9.196 9.196 0 0 1-6.552-4.671c-.155-.27-.324-.447-.659-.393a1.03 1.03 0 0 1-.182-.015H1.774c.069.162.102.247.138.329a10.93 10.93 0 0 0 2.878 3.874 10.394 10.394 0 0 0 6.636 2.646 11.24 11.24 0 0 0 2.902-.197 10.918 10.918 0 0 0 7.628-6.137 10.7 10.7 0 0 0 1.004-3.946 2.065 2.065 0 0 0-1.61-2.428M7.137 14.268a2.684 2.684 0 0 1-1.304.433 5.78 5.78 0 0 1-2.057-.137 1.688 1.688 0 0 1-1.165-1.403c.352-.015.681-.033 1.008-.045.068 0 .137.022.203.017a.534.534 0 0 1 .588.31 1.09 1.09 0 0 0 1.254.338c.171-.041.313-.086.342-.299.018-.143-.007-.249-.143-.292-.432-.134-.862-.277-1.303-.38a3.64 3.64 0 0 1-1.233-.439.946.946 0 0 1-.048-1.631 2.79 2.79 0 0 1 1.545-.476c.204-.013.413.012.616-.007a2.59 2.59 0 0 1 1.49.41 1.64 1.64 0 0 1 .649.995h-.573a5.7 5.7 0 0 0-.615 0 .601.601 0 0 1-.689-.341.44.44 0 0 0-.249-.162 2.5 2.5 0 0 0-.356-.07c-.413-.08-.526 0-.632.46.372.087.745.172 1.118.261s.756.167 1.125.28a1.349 1.349 0 0 1 .944.792 1.186 1.186 0 0 1-.515 1.386m6.004.406h-1.073c-.358 0-.369-.025-.481-.357-.122-.364-.122-.366-.509-.368-.45 0-.898.005-1.347 0a.279.279 0 0 0-.3.22c-.196.517-.199.516-.753.516H7.459c.055-.135.089-.233.134-.33q.931-1.902 1.861-3.807a.28.28 0 0 1 .282-.181c.509 0 1.02-.01 1.528 0a.33.33 0 0 1 .249.14c.667 1.331 1.324 2.666 1.977 4.002a1.3 1.3 0 0 1 .047.172Zm2.316-2.151v1.917c0 .178-.051.24-.232.237-.433-.011-.867-.009-1.3 0-.165 0-.233-.053-.233-.22v-3.878c0-.167.062-.228.23-.225q.65.013 1.301 0c.176 0 .237.051.234.233-.006.643 0 1.289 0 1.936m5.898.623a2.12 2.12 0 0 1-1.569 1.449 4.464 4.464 0 0 1-2.426-.05 2.157 2.157 0 0 1 .22-4.186 4.174 4.174 0 0 1 2.314.084 2.184 2.184 0 0 1 1.318 1.126c.041.087.065.181.11.32-.535 0-1.02.007-1.505-.005a.35.35 0 0 1-.219-.143 1.242 1.242 0 0 0-1.243-.439 1.02 1.02 0 0 0-.8.753 1.653 1.653 0 0 0 .062 1.05 1.098 1.098 0 0 0 1.419.513 1.073 1.073 0 0 0 .62-.54.33.33 0 0 1 .227-.162c.439-.014.879 0 1.318 0 .186-.006.212.076.154.23"/></svg>