<svg xmlns="http://www.w3.org/2000/svg" fill="#44739e" viewBox="0 0 24 24"><path d="M17.451 10.892a.762.762 0 0 0-.572.353v.007L16.866 11a.057.057 0 0 0-.059-.059h-.444a.055.055 0 0 0-.046.059v2.025a.055.055 0 0 0 .046.059h.457l.007-.02a.056.056 0 0 0 .056-.064v-1.291c0-.307.222-.392.444-.392a1.03 1.03 0 0 1 .206.019.54.54 0 0 0 .16.04.068.068 0 0 0 .065-.066v-.3c0-.046-.032-.085-.1-.1a.84.84 0 0 0-.207-.018m-2.103.047A.053.053 0 0 0 15.3 11v1.4c0 .311-.1.477-.392.477a.345.345 0 0 1-.385-.364V11a.058.058 0 0 0-.059-.059H14a.053.053 0 0 0-.046.059v1.4c0 .54.473.736.948.738s.96-.2.96-.795V11a.058.058 0 0 0-.059-.058zm-.438 2.199h-.006zm-4.702-1.73c0-.156.157-.228.353-.228a1.09 1.09 0 0 1 .594.183.27.27 0 0 0 .092.039c.045 0 .072-.02.072-.086v-.159a.119.119 0 0 0-.072-.124 1.6 1.6 0 0 0-.608-.123c-.451 0-.849.212-.849.678 0 .762 1.2.605 1.2 1.017 0 .176-.157.268-.373.268a1.046 1.046 0 0 1-.607-.221.14.14 0 0 0-.092-.039c-.045 0-.078.02-.078.087v.188a.122.122 0 0 0 .068.123 1.65 1.65 0 0 0 .654.139l.016-.01c.438 0 .856-.2.856-.771.002-.758-1.226-.582-1.226-.961m9.421-.463a.063.063 0 0 0-.065.052l-.5 1.373-.526-1.37a.065.065 0 0 0-.072-.052h-.523a.042.042 0 0 0-.046.046.3.3 0 0 0 .027.078l.869 2.013a.414.414 0 0 1-.471.4 1.22 1.22 0 0 1-.255-.033.6.6 0 0 0-.146-.026.067.067 0 0 0-.063.065v.275a.1.1 0 0 0 .1.1.75.75 0 0 0 .2.02.932.932 0 0 0 .836-.572l.876-2.26c.007-.027.02-.04.02-.059a.044.044 0 0 0-.04-.046zm1.149.478c0-.157.157-.229.353-.229a1.1 1.1 0 0 1 .593.183.2.2 0 0 0 .089.039c.05 0 .079-.019.079-.085v-.163a.12.12 0 0 0-.072-.124 1.52 1.52 0 0 0-.608-.124c-.451 0-.849.209-.849.673 0 .758 1.208.6 1.208 1.012 0 .177-.162.268-.372.268a1.032 1.032 0 0 1-.607-.222.153.153 0 0 0-.092-.039c-.047 0-.076.019-.076.087v.187a.117.117 0 0 0 .07.121 1.62 1.62 0 0 0 .653.14v.02A.753.753 0 0 0 22 12.39c0-.758-1.222-.59-1.222-.967m-.278-1.247c-.059-.076-.268-.076-.379-.033s.046.233.085.37-.186.412-.075.379a.525.525 0 0 0 .369-.716m-7.588.744a.942.942 0 0 0-.627.244v-.953a.057.057 0 0 0-.059-.058h-.464a.057.057 0 0 0-.046.058v2.468a.259.259 0 0 0 .085.222 1.25 1.25 0 0 0 .765.249h.013a1.15 1.15 0 0 0 1.143-1.228c0-.571-.313-1.002-.81-1.002m-.307 1.98a.44.44 0 0 1-.261-.052.132.132 0 0 1-.066-.124l-.006.006v-1.294a.62.62 0 0 1 .373-.15c.436 0 .481.568.481.764 0 .536-.216.85-.521.85m-7.344-2.01a1.86 1.86 0 0 0-.751.148.128.128 0 0 0-.072.116v.214a.09.09 0 0 0 .078.1c.052 0 .1-.053.124-.072l.079-.053a.947.947 0 0 1 .5-.147c.294 0 .336.191.336.425 0 .111-.038.139-.455.192-.254.034-.834.148-.834.671a.671.671 0 0 0 .748.659h.013a.83.83 0 0 0 .556-.229l.013.124a.054.054 0 0 0 .046.056h.437a.053.053 0 0 0 .059-.056v-1.492c.005-.389-.197-.656-.877-.656m.32 1.734a.406.406 0 0 1-.385.231.335.335 0 0 1-.353-.364c0-.259.2-.5.732-.5h.006zm-3.067-1.83c0-.222.21-.366.478-.366a1 1 0 0 1 .614.222c.053.04.087.066.129.066s.066-.034.066-.076v-.278a.077.077 0 0 0-.053-.086 2.28 2.28 0 0 0-.766-.124.872.872 0 0 0-.982.839c0 .967 1.5.766 1.494 1.422a.5.5 0 0 1-.562.453 1.2 1.2 0 0 1-.68-.242c-.061-.044-.09-.067-.133-.067-.081 0-.1.043-.1.087v.24a.1.1 0 0 0 .057.1 1.85 1.85 0 0 0 .789.176v-.012c.608 0 1.163-.313 1.163-.98.003-.884-1.514-.825-1.514-1.374m6.305.1a1.407 1.407 0 0 0-.692.216V11a.058.058 0 0 0-.06-.059h-.458a.058.058 0 0 0-.062.059v2.038a.056.056 0 0 0 .045.059h.458a.054.054 0 0 0 .058-.059v-1.645a1.04 1.04 0 0 1 .451-.147c.314 0 .34.192.34.355v1.438c0 .034.02.058.046.058h.482a.055.055 0 0 0 .059-.059v-1.484a.6.6 0 0 0-.667-.66m-1.776 2.187c-.006 0-.006.012-.013.012zm-.47-2.143a.058.058 0 0 0-.046.062v2.025a.058.058 0 0 0 .053.059h.463c.023-.007.046-.018.046-.045V11a.058.058 0 0 0-.059-.059Zm.238-.809a.273.273 0 0 0-.311.271.284.284 0 0 0 .312.288v.005a.282.282 0 1 0 0-.562z"/></svg>