<svg xmlns="http://www.w3.org/2000/svg" viewBox="0 0 24 24"><path fill="#44739e" d="M17.996 10.781a.838.838 0 0 0-.63.388v.008l-.014-.277a.063.063 0 0 0-.065-.065h-.488a.06.06 0 0 0-.051.065v2.227a.06.06 0 0 0 .051.065h.502l.008-.022a.062.062 0 0 0 .062-.07v-1.42c0-.338.244-.432.488-.432a1.13 1.13 0 0 1 .227.021.6.6 0 0 0 .176.044.075.075 0 0 0 .071-.072v-.33c0-.051-.035-.094-.11-.11a.92.92 0 0 0-.227-.02m-2.314.052a.058.058 0 0 0-.052.067v1.54c0 .342-.11.524-.432.524a.379.379 0 0 1-.423-.4V10.9a.064.064 0 0 0-.065-.065h-.51a.058.058 0 0 0-.051.065v1.54c0 .594.52.809 1.043.812s1.056-.22 1.056-.875V10.9a.064.064 0 0 0-.065-.064Zm-.481 2.419h-.007Zm-5.172-1.903c0-.172.172-.251.388-.251a1.2 1.2 0 0 1 .653.201.3.3 0 0 0 .101.043c.05 0 .08-.022.08-.095v-.175a.131.131 0 0 0-.08-.136 1.76 1.76 0 0 0-.668-.135c-.496 0-.934.233-.934.746 0 .838 1.32.665 1.32 1.118 0 .194-.173.295-.411.295a1.15 1.15 0 0 1-.667-.243.154.154 0 0 0-.101-.043c-.05 0-.086.022-.086.096v.207a.134.134 0 0 0 .075.135 1.815 1.815 0 0 0 .719.153l.018-.011c.481 0 .941-.22.941-.848.002-.834-1.348-.641-1.348-1.057m10.362-.51a.069.069 0 0 0-.071.057l-.55 1.511-.579-1.507a.071.071 0 0 0-.079-.057h-.575a.046.046 0 0 0-.051.05.33.33 0 0 0 .03.086l.956 2.214a.455.455 0 0 1-.518.44 1.34 1.34 0 0 1-.281-.036.66.66 0 0 0-.16-.029.074.074 0 0 0-.07.072v.302a.11.11 0 0 0 .11.11.83.83 0 0 0 .22.022 1.025 1.025 0 0 0 .92-.629l.963-2.486c.008-.03.022-.044.022-.065a.048.048 0 0 0-.044-.05Zm1.264.526c0-.173.173-.252.388-.252a1.21 1.21 0 0 1 .653.201.22.22 0 0 0 .098.043c.055 0 .087-.021.087-.093v-.179a.132.132 0 0 0-.08-.137 1.67 1.67 0 0 0-.668-.136c-.497 0-.934.23-.934.74 0 .834 1.328.66 1.328 1.113 0 .195-.178.295-.409.295a1.135 1.135 0 0 1-.667-.244.168.168 0 0 0-.102-.043c-.051 0-.083.021-.083.096v.205a.129.129 0 0 0 .077.133 1.78 1.78 0 0 0 .718.154v.022a.828.828 0 0 0 .938-.854c0-.834-1.344-.649-1.344-1.064m-.306-1.372c-.065-.083-.294-.083-.417-.036s.051.256.094.407-.205.453-.083.417a.577.577 0 0 0 .406-.788m-8.346.819a1.036 1.036 0 0 0-.69.268v-1.048a.063.063 0 0 0-.065-.064h-.51a.063.063 0 0 0-.051.064v2.715a.285.285 0 0 0 .094.244 1.375 1.375 0 0 0 .841.274h.015a1.265 1.265 0 0 0 1.257-1.351c0-.628-.344-1.102-.891-1.102m-.338 2.178a.484.484 0 0 1-.287-.057.145.145 0 0 1-.073-.137l-.006.007v-1.424a.682.682 0 0 1 .41-.165c.48 0 .529.625.529.841 0 .589-.237.935-.573.935m-8.078-2.211a2.05 2.05 0 0 0-.826.163.141.141 0 0 0-.079.127v.236a.099.099 0 0 0 .086.11c.057 0 .11-.059.136-.08l.087-.058a1.04 1.04 0 0 1 .55-.162c.323 0 .369.21.369.468 0 .122-.041.153-.5.211-.279.037-.917.163-.917.738a.738.738 0 0 0 .822.725h.015a.913.913 0 0 0 .611-.252l.014.137a.059.059 0 0 0 .051.061h.481a.058.058 0 0 0 .065-.061V11.5c.005-.428-.217-.721-.965-.721m.352 1.907a.447.447 0 0 1-.424.254.368.368 0 0 1-.388-.4c0-.285.22-.55.805-.55h.007Zm-3.374-2.013c0-.244.231-.402.526-.402a1.1 1.1 0 0 1 .676.244c.058.044.095.072.141.072s.073-.037.073-.083v-.306a.085.085 0 0 0-.058-.095 2.51 2.51 0 0 0-.843-.136.959.959 0 0 0-1.08.923c0 1.064 1.65.842 1.643 1.564a.55.55 0 0 1-.618.498 1.32 1.32 0 0 1-.748-.266c-.067-.048-.099-.074-.146-.074-.089 0-.11.048-.11.096v.264a.11.11 0 0 0 .063.11 2.035 2.035 0 0 0 .867.194v-.013c.669 0 1.28-.345 1.28-1.078.003-.973-1.666-.908-1.666-1.512m6.936.11a1.55 1.55 0 0 0-.762.238V10.9a.064.064 0 0 0-.066-.065H7.17a.064.064 0 0 0-.068.065v2.242a.062.062 0 0 0 .049.064h.504a.059.059 0 0 0 .064-.064v-1.81a1.144 1.144 0 0 1 .496-.162c.345 0 .374.212.374.391v1.582c0 .037.022.063.05.063h.53a.06.06 0 0 0 .065-.064v-1.633a.66.66 0 0 0-.733-.726m-1.954 2.406c-.006 0-.006.013-.014.013Zm-.517-2.357a.064.064 0 0 0-.05.068v2.227a.064.064 0 0 0 .058.065h.509c.025-.008.051-.02.051-.049V10.9a.064.064 0 0 0-.065-.065Zm.262-.89a.3.3 0 0 0-.342.298.312.312 0 0 0 .343.317v.005a.31.31 0 1 0 0-.618Z"/></svg>