<svg xmlns="http://www.w3.org/2000/svg" viewBox="0 0 24 24"><path fill="#44739e" d="M2.638 9.627c0-.582.465-1.001 1.257-1.001.947 0 1.413.66 1.677 2.118l.202.024.574-1.98a5.79 5.79 0 0 0-2.336-.482 2.608 2.608 0 0 0-2.919 2.508c0 2.483 3.998 2.321 3.998 3.96 0 .543-.497.97-1.273.97-.738 0-1.685-.318-2.15-2.42l-.203-.031L1 15.542a6.31 6.31 0 0 0 2.663.512 2.726 2.726 0 0 0 3.035-2.491c0-2.679-4.06-2.122-4.06-3.936m16.448 5.317c-.264 0-.512-.241-.512-.698v-2.895h1.125v-.33h-1.141V8.812h-.155a4.383 4.383 0 0 1-2.321 2.352v.187h.528v3.399A1.195 1.195 0 0 0 17.875 16a2.257 2.257 0 0 0 1.894-1.305l-.132-.084a.646.646 0 0 1-.551.333m2.625-1.523a1.287 1.287 0 0 0-1.274 1.288 1.281 1.281 0 1 0 1.274-1.288m-6.522 1.632V7.958l-.084-.03-2.438.604v.117c.287-.008.559.117.559.691v5.713c0 .458-.249.645-.473.675v.102h2.97v-.099a.61.61 0 0 1-.534-.678m-3.065.238a.277.277 0 0 1-.28-.295v-2.474c0-.99-.761-1.684-2.282-1.684-1.452 0-2.111.497-2.111 1.133a.715.715 0 0 0 .753.73.88.88 0 0 0 .822-.543c.233-.52-.023-1.056.45-1.056.264 0 .388.155.388.698v1.118c-2.126.528-2.701 1.226-2.701 1.98a1.14 1.14 0 0 0 1.226 1.125 2.266 2.266 0 0 0 1.577-.652.99.99 0 0 0 1.071.644 1.771 1.771 0 0 0 1.584-.88l-.117-.085a.506.506 0 0 1-.38.241m-2.577-.083c-.343 0-.653-.249-.653-.8s.264-.922.978-1.171v1.358a2.05 2.05 0 0 0 .04.458.632.632 0 0 1-.365.155"/></svg>