<svg xmlns="http://www.w3.org/2000/svg" fill="#44739e" viewBox="0 0 24 24"><path d="M3.513 9.8989c0-.529.423-.91 1.143-.91.861 0 1.285.6 1.525 1.926l.183.021.522-1.8a5.265 5.265 0 0 0-2.124-.438 2.371 2.371 0 0 0-2.653 2.28c0 2.258 3.634 2.11 3.634 3.6 0 .494-.452.882-1.157.882-.671 0-1.532-.289-1.955-2.2l-.184-.028-.423 2.045a5.74 5.74 0 0 0 2.421.465 2.478 2.478 0 0 0 2.759-2.265c0-2.435-3.691-1.929-3.691-3.578m14.954 4.834c-.24 0-.466-.219-.466-.635v-2.632h1.023v-.3h-1.037v-2.008h-.141a3.985 3.985 0 0 1-2.11 2.138v.17h.48v3.091a1.086 1.086 0 0 0 1.15 1.136 2.052 2.052 0 0 0 1.722-1.186l-.12-.077a.587.587 0 0 1-.501.303m2.386-1.385a1.17 1.17 0 0 0-1.158 1.171 1.165 1.165 0 1 0 1.158-1.171m-5.929 1.484v-6.45l-.077-.028-2.216.55v.106c.261-.007.508.106.508.628v5.194c0 .416-.226.586-.43.614v.092h2.7v-.09a.555.555 0 0 1-.485-.616m-2.787.216a.252.252 0 0 1-.254-.268v-2.249c0-.9-.692-1.531-2.075-1.531-1.32 0-1.919.452-1.919 1.03a.65.65 0 0 0 .684.664.8.8 0 0 0 .748-.494c.212-.473-.021-.96.409-.96.24 0 .353.141.353.635v1.016c-1.933.48-2.456 1.115-2.456 1.8a1.036 1.036 0 0 0 1.115 1.023 2.06 2.06 0 0 0 1.433-.593.9.9 0 0 0 .974.586 1.61 1.61 0 0 0 1.44-.8l-.106-.078a.46.46 0 0 1-.346.219m-2.343-.075c-.311 0-.593-.226-.593-.727s.24-.839.889-1.065v1.235a1.86 1.86 0 0 0 .036.416.575.575 0 0 1-.332.141"/></svg>