<svg xmlns="http://www.w3.org/2000/svg" viewBox="0 0 24 24"><path fill="#44739e" d="m2.458 14.972 3.808-13.1.729-.184a14.03 14.03 0 0 1 2.618-.226 7.69 7.69 0 0 1 4.671 1.745 8.83 8.83 0 0 0 1.468 1.283 12.38 12.38 0 0 0 2.515 1.407 6.85 6.85 0 0 0 2.115.154c.472 0 .945-.093 1.622-.165l-3.685 12.658c-1.52.77-3.019.709-5.39-.215l-.062.831 1.273 1.335h8.388a.544.544 0 0 1 .472.523.554.554 0 0 1-.452.555c-2.895 0-5.667.051-8.541.051-1.386 1.252-1.879 1.232-3.573-.144H1.513a.513.513 0 0 1 0-1.026h8.48l1.56-1.335v-1.704A11.77 11.77 0 0 0 9.5 15.998a11.95 11.95 0 0 0-2.628-1.026q-.739-.082-1.601-.093a18.2 18.2 0 0 0-1.941.103Zm7.863 0 1.448-4.918a5.975 5.975 0 0 0-6.057-1.765l-1.581 5.502a10.636 10.636 0 0 1 6.139 1.201Zm.883.575c1.879 1.262 3.491 2.956 6.078 2.155l1.406-4.886a9.24 9.24 0 0 1-5.985-2.053Zm7.772-3.676 1.334-4.794c-2.433.277-4.106-.944-5.851-2.207L12.96 9.716a7.853 7.853 0 0 0 5.964 2.176ZM6 7.313a7.186 7.186 0 0 1 6.159 1.653l1.448-4.753a6.899 6.899 0 0 0-6.304-1.396Z"/></svg>