<svg xmlns="http://www.w3.org/2000/svg" viewBox="0 0 24 24"><path fill="#44739e" d="M13.92 2 5.029 4.7561l-.0096.269s.2554.0308.3229.052c.077.024.1645.0795.2364.1287.0597.0696.1019.2611.1019.3383v13.152c0 .0608-.0017.1225-.0193.1807a.39.39 0 0 1-.0903.1557.443.443 0 0 1-.1922.1191.44.44 0 0 1-.1941.0135v.0942L13.8489 22l5.1317-.027-.0038-.2075a13 13 0 0 1-.3633-.148c-.1946-.0832-.388-.1734-.5535-.3056-.117-.0934-.217-.2097-.2748-.3478s-.0673-.2924-.0673-.4421V3.8528c0-.2439.0788-.7245.2153-.888.1588-.1901.2442-.3033.4036-.4228.2128-.1595.4213-.2272.6227-.2556V2Zm.3594 1.0744c.1365-.0054.2468.0465.3998.1095.2292.0944.2708.2916.271.4229.008 5.5133.023 16.5404.023 16.5404.0006.3498-.3044.776-.8014.6304l-7.3554-2.1545c-.1222-.0358-.2728-.1272-.2729-.2844L6.5397 5.5979c0-.1952.1541-.3078.323-.3575 0 0 4.8458-1.4277 7.2688-2.141a.6.6 0 0 1 .148-.025z"/></svg>