<svg xmlns="http://www.w3.org/2000/svg" viewBox="0 0 24 24"><path fill="#44739e" d="M11.458 22.875c-.026-.068-.524-1.338-1.107-2.821l-1.058-2.703H7.898l-.192.468c-.106.285-.47 1.303-.809 2.261-.604 1.705-.623 1.742-.896 1.742-.154 0-.28-.037-.28-.083s.347-1.051.772-2.233l.763-2.155-.633-.044c-.353-.027-.654-.093-.67-.147s.146-.207.361-.339c.236-.146.468-.401.586-.645.189-.39.195-.614.193-7.07-.002-6.332-.011-6.689-.188-7.078-.125-.275-.317-.484-.586-.638-.22-.125-.386-.336-.368-.39h5.292c.052.052-.086.205-.337.373-.812.542-.768.097-.768 7.739 0 7.636-.043 7.198.762 7.735.23.153.393.32.362.37s-.341.09-.688.09c-.348 0-.633-.001-.633.044 0 .06 1.544 4.073 2.131 5.526.034.083-.051.123-.258.123-.17 0-.33-.056-.356-.125m6.149-4.709c-.046-.121-.294-.817-.552-1.546s-.507-1.367-.552-1.418c-.052-.057-.243-.015-.501.111-.377.184-.439.269-.652.878-.607 1.742-.587 1.705-.911 1.705-.197 0-.283-.041-.253-.122.025-.068.19-.511.368-.984.178-.474.302-.883.275-.909s-.582.174-1.235.444c-1.155.478-1.685.585-1.981.397-.08-.05-.124-.108-.098-.128s1.251-.546 2.723-1.168l2.677-1.129.022-5.165.022-5.166-2.699-1.143c-1.484-.629-2.72-1.163-2.745-1.187-.089-.083.245-.226.533-.227.222-.001 5.752 2.246 5.928 2.409.02.018-.236.098-.37.219 0 0-.156.186-.156.298v9.654c0 .107.085.232.21.323.188.138.488.094.373.142l-.506.21c-.485.202-.502.221-.404.47.055.143.339.933.628 1.756l.528 1.497h-.294c-.215 0-.317-.059-.378-.221m-7.031-2.341c-.036-.113-.028-.242.018-.286.046-.045.967-.434 2.047-.866s2.194-.883 2.478-1.003l.515-.216V4.668l-.613-.258c-.338-.141-1.475-.602-2.527-1.022-1.137-.455-1.924-.823-1.939-.907-.08-.462.112-.416 2.734.652 1.425.58 2.668 1.121 2.762 1.201.159.136.172.484.171 4.72-.001 2.515-.034 4.623-.074 4.684-.059.091-5.301 2.293-5.459 2.293-.026 0-.077-.092-.113-.206"/></svg>