<svg xmlns="http://www.w3.org/2000/svg" viewBox="0 0 24 24"><path fill="#44739e" d="M11.5087 21.857c-.0238-.062-.4752-1.213-1.0029-2.5575L9.5463 16.85H8.2817l-.174.4237c-.0956.259-.4255 1.1813-.733 2.0498-.5471 1.5455-.5643 1.579-.8123 1.579-.1394 0-.2534-.034-.2534-.0755 0-.0416.3147-.9523.6993-2.0238L7.7 16.85l-.5736-.0396c-.3195-.0245-.593-.0845-.6076-.1334s.1328-.1874.3276-.3076c.2142-.1323.4242-.3632.5312-.5841.1713-.3538.1768-.557.1749-6.4087-.002-5.7385-.0104-6.062-.1704-6.4145-.1135-.2498-.287-.4388-.5311-.5782-.1994-.1139-.3496-.305-.3337-.3539h4.7968c.0471.0471-.078.1862-.3054.3379-.7362.4912-.6963.0885-.6963 7.0145 0 6.9207-.039 6.524.6903 7.0104.2086.1391.3564.29.3284.3353s-.3087.0823-.6239.0823c-.3151 0-.573-.0008-.573.0396 0 .054 1.3988 3.6912 1.9312 5.0088.0302.0749-.0463.1112-.2342.1112-.1536 0-.2987-.0508-.3225-.113m5.5734-4.2681c-.0415-.1101-.2668-.7406-.5006-1.4011s-.459-1.239-.5005-1.2854c-.0465-.0521-.2201-.0137-.4535.1004-.342.1672-.3985.2434-.591.7961-.55 1.5783-.5323 1.5453-.826 1.5453-.1785 0-.2562-.0377-.2293-.1112.0224-.0612.1725-.4624.3335-.8918.161-.4293.2734-.7999.2497-.8236s-.5274.1575-1.1195.4025c-1.0472.4334-1.5275.5297-1.7958.36-.072-.0454-.112-.098-.089-.1167s1.1339-.4948 2.4684-1.0578l2.4265-1.0238.0198-4.6815.02-4.6816-2.4464-1.0364c-1.3455-.5701-2.4652-1.0541-2.4883-1.0757-.0808-.0755.2224-.2047.4835-.206.2008-.001 5.2135 2.036 5.3732 2.1834.018.0165-.2146.0894-.3357.1985 0 0-.1416.1684-.1416.27v8.7502c0 .0967.0776.2105.1901.2928.1705.1247.4425.0855.3385.1287l-.4587.1906c-.4396.1827-.4548.2003-.3665.4258.0506.1293.3072.8456.57 1.5918l.478 1.3566h-.2667c-.1949 0-.287-.0539-.3421-.2002zm-6.3725-2.1218c-.0326-.1027-.0253-.2197.0162-.2598.0416-.0402.8762-.3934 1.8548-.7849s1.9893-.8003 2.2462-.9085l.467-.1965V5.3548l-.556-.2337c-.3058-.1285-1.3365-.5457-2.2905-.927-1.0303-.412-1.7435-.7455-1.7568-.8216-.0729-.4187.1017-.377 2.4781.5907 1.2912.5258 2.4177 1.0157 2.5033 1.0886.1441.1229.1556.439.1543 4.2777-.0007 2.2798-.0308 4.1904-.0667 4.2458-.0534.0824-4.8046 2.0787-4.9474 2.0787-.0237 0-.0698-.0841-.1025-.1869"/></svg>