<svg xmlns="http://www.w3.org/2000/svg" fill="#44739e" viewBox="0 0 24 24"><path d="M20.989 11.814v.417h.293v.414a.47.47 0 0 1-.008.108.308.308 0 0 1-.584 0 .74.74 0 0 1-.007-.108v-1.307a.63.63 0 0 1 .017-.138.3.3 0 0 1 .571 0 .75.75 0 0 1 .008.11v.159h.72v-.094a1.6 1.6 0 0 0 0-.189c-.054-.537-.5-.706-1-.706s-.941.171-1 .706c0 .048-.014.136-.014.189v1.2a1.8 1.8 0 0 0 .011.188c.047.522.5.707 1.005.707s.958-.185 1-.707c.009-.1.01-.136.011-.188v-.766Zm-4.965-1.255H15.3v2.116a.46.46 0 0 1-.007.108.284.284 0 0 1-.547 0 .46.46 0 0 1-.007-.108v-2.116h-.723v2.05c0 .053 0 .161.006.189.05.534.471.708 1 .708s.948-.174 1-.708a1.5 1.5 0 0 0 .006-.189zm-6.644 0-.361 2.235-.361-2.235H7.492l-.062 2.86h.715l.019-2.647.492 2.647h.725l.492-2.647.019 2.647h.717l-.064-2.86zm-4.319 0-.53 2.86H5.3l.4-2.647.389 2.647h.767l-.527-2.86zm13.49 2.3-.674-2.3h-1.061v2.83h.7l-.04-2.376.723 2.376h1.017v-2.83h-.706ZM12.058 11.3a.39.39 0 0 1 0-.148.234.234 0 0 1 .259-.192.242.242 0 0 1 .262.258v.182h.705v-.2c0-.616-.552-.712-.952-.712-.5 0-.915.166-.99.629a.945.945 0 0 0 .007.381c.122.578 1.128.746 1.274 1.111a.39.39 0 0 1 .006.21c-.022.095-.086.191-.276.191a.254.254 0 0 1-.285-.257v-.274h-.759v.218c0 .632.495.823 1.028.823.511 0 .933-.175 1-.648a1.37 1.37 0 0 0-.005-.463c-.118-.593-1.19-.772-1.272-1.1m-9.3-.009a.35.35 0 0 1 0-.151.236.236 0 0 1 .262-.192.244.244 0 0 1 .265.259v.177H4v-.2c0-.621-.561-.721-.965-.721-.508 0-.923.169-1 .636a.98.98 0 0 0 .006.385c.123.585 1.139.754 1.287 1.124a.364.364 0 0 1 .006.211.248.248 0 0 1-.279.193.255.255 0 0 1-.286-.26v-.276H2v.215c0 .639.5.832 1.039.832.517 0 .941-.176 1.01-.655a1.39 1.39 0 0 0 0-.468c-.12-.6-1.2-.778-1.286-1.112"/></svg>