<svg xmlns="http://www.w3.org/2000/svg" viewBox="0 0 24 24"><path fill="#44739e" d="M21.5 14.966a12.1 12.1 0 0 0 .36-2.939L21.859 12l.001-.029C21.86 5.921 17.601 1 12.365 1a8.3 8.3 0 0 0-1.349.111c-4.976.552-8.874 5.237-8.874 10.916a11.287 11.287 0 0 0 4.702 9.347l.481 1.562 4.809.064.007-.004a8.9 8.9 0 0 0 1.623-.174 10.087 10.087 0 0 0 7.7-7.717q.018-.066.034-.132Zm-1.86-2.939a9.325 9.325 0 0 1-3.758 7.707h-2.675l-.131.082a6.83 6.83 0 0 1-3.289.727C6.72 19.4 4.49 16.015 4.49 12.027c0-4.923 3.398-8.928 7.575-8.928s7.575 4.005 7.575 8.928"/></svg>