<svg xmlns="http://www.w3.org/2000/svg" fill="#44739e" viewBox="0 0 24 24"><path d="M21.253 14.9976a11.8 11.8 0 0 0 .3505-2.8628l-.0003-.027.0003-.0282c0-5.8925-4.1487-10.6864-9.2483-10.6864a8.06 8.06 0 0 0-1.3146.1085c-4.8466.5374-8.6441 5.101-8.6441 10.6331a10.994 10.994 0 0 0 4.58 9.1042l.469 1.5219 4.684.0621.0067-.0036a8.67 8.67 0 0 0 1.5816-.1696 9.826 9.826 0 0 0 7.5005-7.517q.0168-.064.033-.1283Zm-1.812-2.8628a9.083 9.083 0 0 1-3.6602 7.5072h-2.6056l-.1278.0797a6.65 6.65 0 0 1-3.2037.7075c-2.9875-1.1128-5.1595-4.41-5.1595-8.2944 0-4.7954 3.3099-8.6968 7.3784-8.6968s7.3783 3.9014 7.3783 8.6968"/></svg>