<svg xmlns="http://www.w3.org/2000/svg" viewBox="0 0 24 24"><path fill="#44739e" d="M11.398 1.006c-.267.009-.537.026-.807.055-9.251.997-5.958 15.237-5.473 16.626-3.634-7.722-1.497-12.562.108-14.201.045-.046-.004-.124-.046-.087-3.626 2.94-3.95 6.263-3.95 6.263-.627 3.623 2.894 7.181 3.892 8.035-2.72-1.833-3.521-3.149-4.017-4.965-.015-.055-.108-.073-.104 0 .075.975.17 2.282.922 3.826.689.892 2.58 1.143 3.199 1.142h.002l-.002-.006c.809-2.978 2.451-8.176 5.036-11.677 2.501-3.243 4.427-4.262 4.953-4.496.044-.021.022-.07-.028-.104-.117-.075-1.814-.47-3.685-.411M5.123 17.701c.656 1.109 2.686 4.167 6.395 5.224 1.266.254 5.149-.018 7.884-2.76.05-.048.006-.16-.097-.09-1.806 1.232-7.461 2.458-14.182-2.374l-.002.002c-.966.409-2.035.256-2.503.04-.059-.028-.114-.018-.082.04.686 1.159 1.069 1.558 1.934 2.333.047.049.095.037.073-.059-.009-.042-.173-1.23.578-2.351-.097.754-.189 2.846.634 3.402.97.662 1.968 1.296 3.743 1.676.07.017.133-.065.065-.101-2.902-1.417-3.585-3.184-4.44-4.979ZM17.144 2.282c-.207.024-.423.197-.931.506C10.142 6.83 5.637 16.615 5.123 17.697c0 0 10.147-2.191 16.367-8.515.972-.995 1.043-.779.587-1.883-.219-.547-.794-1.662-1.788-2.783-.782-.875-1.805-1.56-2.26-1.842-.477-.29-.676-.416-.885-.392M5.123 17.697c1.25.715 14.772 6.475 17.378-2.498.61-2.093.528-4.285.429-4.55-.02-.056-.067-.031-.07-.012-.321.473-1.675 2.218-5.298 4.12-3.888 1.935-9.375 2.663-12.438 2.94Z"/></svg>