<svg xmlns="http://www.w3.org/2000/svg" viewBox="0 0 24 24"><path fill="#44739e" d="M11.428 22.983c-2.079-.242-3.355-1.507-3.663-3.631-.088-.594-.033-.858.22-.99l.11-.055h3.168l3.257-.033c.253-.044.363-.242.715-1.309 1.342-4.093 1.926-5.633 2.696-7.129q1.705-3.356 3.52-3.356c1.574 0 2.201 1.727.671 1.903-1.496.165-2.519 1.387-3.586 4.28-.066.165-.484 1.364-.924 2.674-1.761 5.149-2.179 6.073-3.136 6.821l-.198.154c-.308.407-1.881.77-2.85.66m-8.086-.594c-.385-.066-.77-.396-.902-.781-.022-.077-.11-.561-.176-1.089l-.528-4.027-.011-.077h2.123l.022.407.044.88c0 .275.033.781.055 1.133 0 .363.033.749.033.881l.066 1.1.033.88.033.616v.11h-.33c-.176 0-.385-.022-.462-.033m2.167-.033-.033-.605-.066-1.474-.11-2.091-.055-1.474-.022-.286h2.465v.319c0 .176 0 .407.022.506l.011.176-.176.088c-.958.462-.969 2.201-.033 3.961l.154.297.022.33.011.319H5.498Zm3.499-5.501v-.429h2.53l-.022.165-.033.429-.011.264H9.008Zm3.851.22.033-.429.022-.22h1.936l-.11.418-.11.44h-1.793ZM1.813 15.315c-.264-.088-.341-.22-.429-.77l-.088-.562c-.044-.275.066-.517.286-.638.077-.033.979-.033 6.711-.033h6.634l.121.066q.352.198.264.605c-.242 1.189-.264 1.255-.572 1.332-.198.055-12.762.044-12.927 0m-.638-3.059c-.011-.033-.143-1.1-.165-1.386-.088-.902.429-1.276 1.76-1.276h.737l.022.33.088 2.013.022.352H2.407c-.946 0-1.221 0-1.232-.033m3.817-.264-.044-1.144-.044-1.056-.022-.198H6.28l1.375.011.011 1.342v1.342H5.025Zm4.016-1.045V9.594h1.43c.781 0 1.431.011 1.431.022.011.011 0 .286-.022.616l-.066 1.32-.033.737h-2.74Zm4.093 1.331v-.308l.066-1.177.055-1.034v-.154h.671c1.452-.022 1.87.396 1.683 1.65l-.11.77-.033.253ZM6.61 7.657c-.485-.176-.991-1.364-.991-2.354 0-.627.044-.858.363-1.816.253-.77.33-1.078.396-1.606.132-.935 1.057-1.21 1.343-.374.11.308-.088 1.276-.429 2.223-.506 1.386-.506 1.848.022 2.805.385.704-.022 1.364-.682 1.122Zm3.443-.011c-.22-.088-.308-.198-.55-.682-.594-1.133-.605-1.903-.099-3.411a7.7 7.7 0 0 0 .407-1.606q.11-1.056.825-.88c.704.154.726.847.066 2.751-.429 1.254-.418 1.782.055 2.695.407.77 0 1.408-.704 1.133"/></svg>