<svg xmlns="http://www.w3.org/2000/svg" fill="#44739e" viewBox="0 0 24 24"><path d="M-90.24 1.89c-5.56 0-10.09 4.53-10.09 10.09s4.53 10.09 10.09 10.09 10.09-4.53 10.09-10.09-4.53-10.09-10.09-10.09m5.74 15.51h-11.31c-.33 0-.6-.27-.6-.6s.27-.6.6-.6h11.31c.33 0 .6.27.6.6s-.27.6-.6.6m0-2.4h-11.31c-.33 0-.6-.27-.6-.6s.27-.6.6-.6h11.31c.33 0 .6.27.6.6s-.27.6-.6.6m0-2.4h-11.31c-.33 0-.6-.27-.6-.6s.27-.6.6-.6h11.31c.33 0 .6.27.6.6s-.27.6-.6.6m0-2.4h-11.31c-.33 0-.6-.27-.6-.6s.27-.6.6-.6h11.31c.33 0 .6.27.6.6s-.27.6-.6.6m0-2.4h-11.31c-.33 0-.6-.27-.6-.6s.27-.6.6-.6h11.31c.33 0 .6.27.6.6s-.27.6-.6.6m105.69 7.96c-.15-.15-.38-.19-.57-.09-1.05.52-2.16.78-3.3.78-4.14 0-7.5-3.37-7.5-7.5 0-2.38 1.1-4.57 3.03-6.01.17-.12.19-.34.13-.54s-.29-.35-.49-.36c-.05 0-.11-.01-.16-.01-5.5 0-9.98 4.48-9.98 9.98s4.48 9.98 9.98 9.98c3.79 0 7.31-2.21 8.97-5.64.08-.21.04-.44-.11-.59M17.9 5.1l.92-1.76c.02-.04.02-.09-.01-.13s-.08-.06-.12-.05l-1.96.34-1.39-1.42c-.03-.03-.08-.05-.13-.03-.05.01-.08.05-.08.1l-.28 1.96-1.78.88c-.04.02-.07.06-.07.11s.03.09.07.11l1.78.88.29 1.96c.01.05.04.09.08.1.01 0 .03.01.04.01.03 0 .07-.01.09-.04l1.38-1.42 1.96.33c.05.01.09-.01.12-.05s.03-.09.01-.13zm3.2 4.52.56-1.06c.02-.04.02-.09-.01-.13s-.07-.06-.12-.05l-1.18.2-.83-.85c-.03-.03-.08-.05-.13-.03-.05.01-.08.05-.08.1l-.17 1.18-1.07.53c-.04.02-.07.06-.07.11s.03.09.07.11l1.07.53.17 1.18c.01.05.04.09.08.1.01 0 .03.01.04.01.03 0 .07-.01.09-.04l.83-.86 1.18.2c.05.01.09-.01.12-.05s.03-.09.01-.13zm-4.66 2.77.56-1.06c.02-.04.02-.09-.01-.13s-.07-.06-.12-.05l-1.18.2-.83-.85c-.03-.03-.08-.05-.13-.03-.05.01-.08.05-.08.1l-.17 1.18-1.07.53c-.04.02-.07.06-.07.11s.03.09.07.11l1.07.53.17 1.18c.01.05.04.09.08.1.01 0 .03.01.04.01.03 0 .07-.01.09-.04l.83-.86 1.18.2c.05.01.09-.01.12-.05s.03-.09.01-.13z"/></svg>