<svg xmlns="http://www.w3.org/2000/svg" fill="#44739e" viewBox="0 0 24 24"><path d="M16.013 19.333v-6.666c1.838 0 3.333 1.495 3.333 3.333s-1.495 3.333-3.333 3.333m0-8.333c2.762 0 5 2.238 5 5s-2.238 5-5 5-5-2.238-5-5c0-1.579.747-2.971 1.891-3.887.855-.686 1.927-1.113 3.109-1.113m0 12c.55 0 1 .45 1 1v3.013c0 .549-.45 1-1 1s-1-.451-1-1V24c0-.55.45-1 1-1m0-14c-.55 0-1-.45-1-1V5c0-.55.45-1 1-1s1 .45 1 1v3c0 .55-.45 1-1 1m-7 7c0 .55-.45 1-1 1H5c-.549 0-1-.45-1-1s.451-1 1-1h3.013c.55 0 1 .45 1 1m18-1c.55 0 1 .45 1 1s-.45 1-1 1h-3c-.55 0-1-.45-1-1s.45-1 1-1zM9.6829 20.916c.389-.389 1.025-.389 1.414 0s.389 1.025 0 1.414l-2.13 2.13c-.389.39-1.025.39-1.415 0-.389-.389-.389-1.024 0-1.414zm12.6289-9.8711c-.389.389-1.025.389-1.414 0s-.389-1.025 0-1.414l2.121-2.121c.389-.39 1.025-.39 1.414 0 .389.389.389 1.024 0 1.414zm-12.6435.0596-2.131-2.131c-.389-.389-.389-1.024 0-1.414.389-.389 1.026-.389 1.414 0l2.131 2.131c.389.389.389 1.025 0 1.414s-1.025.389-1.414 0m12.6992 9.8008 2.121 2.121c.389.389.389 1.025 0 1.414s-1.025.389-1.414 0l-2.121-2.121c-.39-.39-.39-1.025 0-1.414.389-.39 1.025-.39 1.414 0"/></svg>