<svg xmlns="http://www.w3.org/2000/svg" viewBox="0 0 24 24"><path fill="#44739e" d="M12.006 15.048V8.94c1.684 0 3.054 1.37 3.054 3.054s-1.37 3.054-3.054 3.054m0-7.635c2.53 0 4.581 2.051 4.581 4.581s-2.051 4.581-4.581 4.581-4.581-2.05-4.581-4.581c0-1.447.684-2.722 1.733-3.561.783-.629 1.765-1.02 2.848-1.02m0 10.994c.504 0 .916.413.916.916v2.761c0 .503-.412.916-.916.916s-.916-.413-.916-.916v-2.761c0-.503.412-.916.916-.916m0-12.826c-.504 0-.916-.412-.916-.916V1.916c0-.504.412-.916.916-.916s.916.412.916.916v2.749c0 .504-.412.916-.916.916m-6.413 6.413c0 .504-.413.916-.916.916H1.916c-.503 0-.916-.412-.916-.916s.413-.916.916-.916h2.761c.503 0 .916.412.916.916m16.491-.916c.504 0 .916.412.916.916s-.412.916-.916.916h-2.749c-.504 0-.916-.412-.916-.916s.412-.916.916-.916Zm-15.877 5.42c.356-.356.939-.356 1.295 0s.356.939 0 1.295l-1.951 1.952c-.357.357-.94.357-1.297 0-.356-.357-.356-.938 0-1.296Zm11.57-9.044c-.357.357-.939.357-1.296 0s-.356-.939 0-1.295l1.943-1.943c.357-.358.94-.358 1.296 0 .356.356.356.938 0 1.295Zm-11.584.055L4.241 5.557c-.357-.357-.357-.939 0-1.296.356-.356.94-.356 1.295 0l1.953 1.952c.356.357.356.94 0 1.296s-.939.356-1.296 0m11.635 8.979 1.943 1.943c.356.357.356.939 0 1.296s-.939.356-1.296 0l-1.943-1.943c-.357-.358-.357-.939 0-1.296s.939-.357 1.296 0"/></svg>