<svg xmlns="http://www.w3.org/2000/svg" viewBox="0 0 24 24"><path fill="#44739e" d="M2.819 10.181C1.817 10.181 1 10.997 1 12s.817 1.819 1.819 1.819 1.82-.816 1.82-1.819-.817-1.819-1.82-1.819m1.035 2.796H1.815c-.059 0-.108-.048-.108-.108s.049-.108.108-.108h2.039c.06 0 .109.049.109.108s-.049.108-.109.108m0-.432H1.815c-.059 0-.108-.049-.108-.109s.049-.108.108-.108h2.039c.06 0 .109.049.109.108s-.049.109-.109.109m0-.433H1.815c-.059 0-.108-.049-.108-.108s.049-.109.108-.109h2.039a.1084.1084 0 1 1 0 .217m0-.433H1.815c-.059 0-.108-.049-.108-.108s.049-.108.108-.108h2.039c.06 0 .109.048.109.108s-.049.108-.109.108m0-.433H1.815c-.059 0-.108-.048-.108-.108s.049-.108.108-.108h2.039c.06 0 .109.049.109.108s-.049.108-.109.108m19.059 1.436a.088.088 0 0 0-.103-.017c-.189.094-.39.141-.595.141-.747 0-1.353-.608-1.353-1.352 0-.43.199-.824.547-1.084.031-.022.034-.061.023-.097s-.052-.064-.088-.065c-.009 0-.02-.002-.029-.002-.992 0-1.8.808-1.8 1.799s.808 1.8 1.8 1.8c.684 0 1.318-.398 1.618-1.017.014-.038.007-.079-.02-.106m-.594-1.923.166-.317c.004-.007.004-.016-.001-.023s-.015-.011-.022-.009l-.354.061-.25-.256a.023.023 0 0 0-.024-.006c-.009.002-.014.009-.014.018l-.051.354-.32.159c-.008.003-.013.01-.013.019s.005.017.013.02l.32.159.053.353c.002.009.007.017.014.018.002 0 .006.002.007.002.006 0 .013-.002.017-.007l.248-.256.354.059c.009.002.016-.001.022-.009s.005-.016.001-.023Zm.578.815.1-.191c.004-.007.004-.016-.001-.023s-.013-.011-.022-.009l-.213.036-.149-.153a.023.023 0 0 0-.024-.006c-.009.002-.014.009-.014.018l-.031.213-.193.096c-.007.003-.012.01-.012.019s.005.017.012.02l.193.096.031.213c.002.009.007.016.014.018.002 0 .006.001.007.001.006 0 .013-.001.017-.007l.149-.155.213.036c.009.002.016-.002.022-.009s.005-.016.001-.023Zm-.841.5.101-.191c.004-.007.004-.016-.002-.024s-.012-.01-.021-.009l-.213.036-.15-.153c-.005-.005-.014-.009-.023-.005a.018.018 0 0 0-.015.018l-.03.213-.193.095c-.007.004-.013.011-.013.02s.006.016.013.02l.193.095.03.213c.002.009.008.016.015.018.002 0 .005.002.007.002.005 0 .013-.002.016-.007l.15-.155.213.036c.009.002.016-.002.021-.009s.006-.017.002-.024Z"/></svg>