<svg xmlns="http://www.w3.org/2000/svg" fill="#44739e" viewBox="0 0 24 24"><path d="M16.0039 19.3409v-6.667c1.838 0 3.334 1.495 3.334 3.333s-1.496 3.334-3.334 3.334m0-8.334c2.762.001 5 2.239 5 5 0 2.762-2.238 5-5 5s-5-2.238-5-5c0-1.035.315-1.997.854-2.795.899-1.33 2.42-2.205 4.146-2.205m0-2.0069c-.55 0-1-.449-1-1 0-.55.45-1 1-1 .551 0 1 .45 1 1 0 .551-.449 1-1 1M24 15.0137c.55 0 1 .45 1 1s-.45 1-1 1-1-.45-1-1 .45-1 1-1m-8 8c.55 0 1 .45 1 1s-.45 1-1 1-1-.45-1-1 .45-1 1-1m-8-8c.55 0 1 .45 1 1s-.45 1-1 1-1-.45-1-1 .45-1 1-1m2-6c.55 0 1 .45 1 1s-.45 1-1 1-1-.45-1-1 .45-1 1-1m12 2c-.55 0-1-.45-1-1s.45-1 1-1 1 .45 1 1-.45 1-1 1m0 10c.55 0 1 .45 1 1s-.45 1-1 1-1-.45-1-1 .45-1 1-1m-12 0c.55 0 1 .45 1 1s-.45 1-1 1-1-.45-1-1 .45-1 1-1"/></svg>