<svg xmlns="http://www.w3.org/2000/svg" viewBox="0 0 24 24"><path fill="#44739e" d="M14.61 8.835a.516.516 0 0 0-.276.569c.068.183.304.22.527.092a.517.517 0 0 0 .277-.567c-.07-.183-.306-.229-.528-.094m-.243 1.082h.737v2.348h-.737Zm1.153 4.115a.413.413 0 0 1 .407-.455.605.605 0 0 1 .366.135v-.282a.87.87 0 0 0-.385-.091.692.692 0 0 0 .019 1.382 1.07 1.07 0 0 0 .395-.077v-.258a.84.84 0 0 1-.352.088.414.414 0 0 1-.45-.442m-.938.035c0-.493-.226-.731-.578-.731a.616.616 0 0 0-.62.674.66.66 0 0 0 .642.709.88.88 0 0 0 .533-.157v-.252a.847.847 0 0 1-.467.161.416.416 0 0 1-.44-.401h.935Zm-.572-.505a.306.306 0 0 1 .31.33h-.67a.347.347 0 0 1 .36-.33m5.429-3.688a1.186 1.186 0 0 0-1.237 1.229 1.21 1.21 0 0 0 1.361 1.205A1.696 1.696 0 0 0 20.611 12v-.462a1.388 1.388 0 0 1-.871.33.682.682 0 0 1-.77-.651h1.684a1.189 1.189 0 0 0-1.215-1.343m-.457.954a.498.498 0 0 1 .508-.514.506.506 0 0 1 .511.514Zm-.061 2.842h-.005v-.308h-.262v1.332h.262V14a.373.373 0 0 1 .322-.412.43.43 0 0 1 .246.133l.139-.231a.46.46 0 0 0-.317-.154c-.124 0-.251.094-.385.334m1.398-.308h.263v1.332h-.263Zm-3.164-1.097h.736V8.796h-.736v1.224a1.375 1.375 0 0 0-.613-.147 1.124 1.124 0 0 0-1.137 1.21 1.13 1.13 0 0 0 1.1 1.221.974.974 0 0 0 .654-.234Zm-.44-.448c-.347 0-.567-.286-.567-.714 0-.468.22-.739.591-.739a.81.81 0 0 1 .415.138v1.122a.624.624 0 0 1-.438.193Zm3.689 1.032a.187.187 0 0 0-.1.203c.024.063.11.079.188.033a.183.183 0 0 0 .098-.203c-.024-.065-.108-.079-.186-.033m1.135 1.183a.411.411 0 0 1 .405-.455.608.608 0 0 1 .369.135v-.282a.88.88 0 0 0-.386-.091.692.692 0 0 0 .017 1.382 1.09 1.09 0 0 0 .398-.077v-.258a.85.85 0 0 1-.353.088.414.414 0 0 1-.45-.442m-4.048.249v-.683h.421v-.236h-.421v-.276l-.493.483v.029h.231v.703a.392.392 0 0 0 .43.418.77.77 0 0 0 .321-.089v-.245a.57.57 0 0 1-.3.098.184.184 0 0 1-.189-.202m-3.451-2.743a1.386 1.386 0 0 1-.869.33.682.682 0 0 1-.77-.651h1.685a1.228 1.228 0 1 0-2.45-.11 1.21 1.21 0 0 0 1.354 1.201A1.692 1.692 0 0 0 14.04 12Zm-1.118-1.224a.505.505 0 0 1 .509.514h-1.019a.498.498 0 0 1 .51-.514M1.889 9.673c0-.172.2-.284.512-.284a2.69 2.69 0 0 1 1.1.31v-.677a2.84 2.84 0 0 0-1.181-.269c-.806 0-1.32.397-1.32.996 0 1.243 1.771 1.035 1.771 1.604 0 .203-.179.319-.513.319a2.01 2.01 0 0 1-1.187-.442v.748a2.343 2.343 0 0 0 1.253.33c.777 0 1.336-.387 1.336-1.053 0-1.206-1.771-1.059-1.771-1.582m5.292 2.94a2.86 2.86 0 0 0-.33.379h.44l-.101.289h-.522a2.4 2.4 0 0 0-.133.273h.618l-.099.29h-.607a1.167 1.167 0 0 0 .22 1.116c.508.508 1.581.33 2.382-.44a2.8 2.8 0 0 0 .361-.425h-.557l.085-.289h.66a2.5 2.5 0 0 0 .127-.274h-.721l.08-.289h.725a1.127 1.127 0 0 0-.236-1.06c-.514-.513-1.59-.338-2.392.43m2.09.377h-.428c-.046 0-.066.008-.085.03a.05.05 0 0 0-.013.033l-.235.892a.922.922 0 0 1-.941.626h-.697l.121-.459h.447a.139.139 0 0 0 .11-.051.11.11 0 0 0 .028-.054l.186-.779a.88.88 0 0 1 .886-.66h.714Zm-4.653-1.899a.66.66 0 0 1 .727-.676 1.33 1.33 0 0 1 .605.155v-.55a2.46 2.46 0 0 0-.789-.152 1.23 1.23 0 0 0-1.326 1.224 1.21 1.21 0 0 0 1.357 1.21 2.29 2.29 0 0 0 .794-.157v-.531a1.82 1.82 0 0 1-.66.163.66.66 0 0 1-.708-.686m2.406-.321c.172-.25.32-.356.492-.356.23 0 .382.164.382.515v.825a2.2 2.2 0 0 1 .738-.235v-.749a.824.824 0 0 0-.86-.896.904.904 0 0 0-.743.392h-.009v-1.47h-.737v3.462h.737Zm15.488-.899c-.284 0-.53.229-.747.719h-.011v-.68h-.734v2.348h.738v-1.014c.163-.43.33-.685.606-.685a.86.86 0 0 1 .44.174l.196-.647a.8.8 0 0 0-.488-.215m-10.064 2.802h.263v2.022h-.263Zm-1.108-.413v-1.488a.821.821 0 0 0-.856-.899.952.952 0 0 0-.764.38v-.336h-.737v1.596a1.16 1.16 0 0 1 .737.336v-1.1c.194-.291.33-.388.515-.388.209 0 .367.137.367.47v1.43Zm-.449 1.544h.827v-.262h-.827v-.608h.857v-.261h-1.144v2.02h1.169v-.261h-.882Z"/></svg>