<svg xmlns="http://www.w3.org/2000/svg" fill="#44739e" viewBox="0 0 24 24"><path d="m19.175 1-.7573.7045a.277.277 0 0 1-.3919-.014L.5655 17.9751l1.9551 2.0973a.5732.5732 0 1 1 .7817.8385L5.2493 23 22.734 6.6969a.23.23 0 0 1-.073-.051.277.277 0 0 1 .01-.3939l.7635-.7106-.6477-.6923-.668.6233a.2062.2062 0 0 1-.3086.01.205.205 0 0 1 .029-.3066l.6578-.6151zm.063.199h.022l.079.085v.022l-.3898.3634a.02.02 0 0 1-.01 0 .02.02 0 0 1-.01 0l-.063-.095a.017.017 0 0 1 0-.01zm.1076.1583h.022l.077.083v.022l-.3736.3512c-.001.0004 0 0-.01 0-.0007-.0003-.01 0-.01 0l-.063-.1015zm.1381.1198h.024l.075.083v.022l-.3876.3634-.061-.095a.02.02 0 0 1 0-.01zm.13.1421h.024l.077.085a.02.02 0 0 1 0 .01.02.02 0 0 1 0 .01l-.3878.3614a.02.02 0 0 1-.01 0 .02.02 0 0 1-.01 0l-.059-.1036a.02.02 0 0 1 0-.01.02.02 0 0 1 0-.01zm.1258.1401h.024l.079.083v.024l-.3755.3431a.02.02 0 0 1-.01 0 .02.02 0 0 1-.01 0l-.059-.089a.017.017 0 0 1 0-.01zm.1523.134a.02.02 0 0 1 .01 0l.079.081v.022l-.3898.3634-.079-.083a.02.02 0 0 1 0-.01.02.02 0 0 1 0-.01l.3756-.3431zm.1259.1401h.024l.079.083v.024l-.39.3634a.02.02 0 0 1-.01 0 .02.02 0 0 1-.01 0l-.071-.1015a.017.017 0 0 1 0-.01zm.1137.136h.022l.079.081v.026l-.3898.3635a.02.02 0 0 1-.01 0l-.061-.096a.02.02 0 0 1 0-.01.02.02 0 0 1 0-.01l.3736-.3431zm.1299.1442h.024l.079.085v.01l-.01.012-.3878.3634a.02.02 0 0 1-.01 0 .02.02 0 0 1-.01 0l-.059-.1a.02.02 0 0 1 0-.01.02.02 0 0 1 0-.01.02.02 0 0 1 0-.01zm.136.134h.022l.085.085v.01l-.01.012-.3897.3634-.01-.012-.077-.085a.02.02 0 0 1 0-.01.02.02 0 0 1 0-.01zm.1219.138h.022l.079.083v.024l-.3898.3614c-.0008.0004 0 0 0 0-.0007-.0002-.01 0-.01 0l-.061-.095a.02.02 0 0 1 0-.01.02.02 0 0 1 0-.01.02.02 0 0 1 0-.01zm.1279.1381h.026l.077.085a.02.02 0 0 1 0 .01.02.02 0 0 1 0 .01l-.3877.3614a.02.02 0 0 1-.01 0 .02.02 0 0 1-.01 0 .02.02 0 0 1-.01 0l-.061-.095a.02.02 0 0 1 0-.01.02.02 0 0 1 0-.01zm.142.1441h.022l.087.087v.024l-.3897.3634-.085-.093a.02.02 0 0 1 0-.01.02.02 0 0 1 0-.01zm.124.134a.02.02 0 0 1 .01 0 .02.02 0 0 1 .01 0l.079.083v.022l-.3898.3634a.02.02 0 0 1-.01 0 .02.02 0 0 1-.01 0l-.063-.098a.02.02 0 0 1 0-.01.02.02 0 0 1 0-.01.02.02 0 0 1 0-.01l.3756-.3431zm.1258.1442h.012l.01.01.079.089v.022l-.39.3634a.02.02 0 0 1-.01 0 .02.02 0 0 1-.01 0 .02.02 0 0 1-.01 0l-.061-.1117a.017.017 0 0 1 0-.01zm.138.134h.012l.012.01.079.077v.022l-.3897.3634-.075-.081zm.126.1441h.024l.079.081v.024l-.3898.3634a.02.02 0 0 1-.01 0 .02.02 0 0 1-.01 0 .02.02 0 0 1-.01 0l-.061-.1035a.02.02 0 0 1 0-.01zm.1299.1442h.012l.075.083v.026l-.3756.3431-.057-.087a.02.02 0 0 1-.01 0 .02.02 0 0 1-.01 0h.01a.02.02 0 0 1 0-.01.02.02 0 0 1 0-.01l.3756-.3451zm.136.1401h.024l.079.083a.02.02 0 0 1 0 .01.02.02 0 0 1 0 .01.02.02 0 0 1 0 .01l-.3898.3614a.02.02 0 0 1-.01 0 .02.02 0 0 1-.01 0 .02.02 0 0 1-.01 0l-.059-.1035a.02.02 0 0 1 0-.01zm.13.136h.026l.079.087v.022l-.3898.3696a.02.02 0 0 1-.01 0 .02.02 0 0 1-.01 0l-.063-.1097a.02.02 0 0 1 0-.01.02.02 0 0 1 0-.01zm.1259.1198a.02.02 0 0 1 .01 0 .02.02 0 0 1 .01 0l.077.083v.022l-.3898.3634a.02.02 0 0 1-.01 0 .02.02 0 0 1-.01 0l-.063-.093a.02.02 0 0 1 0-.01l.3736-.3492zm.1197.1462h.022l.089.085v.022l-.3898.3634-.01-.012-.079-.091zm.132.1421h.022l.081.083v.024l-.3898.3634a.02.02 0 0 1-.01 0 .02.02 0 0 1-.01 0 .02.02 0 0 1-.01 0l-.061-.1015a.017.017 0 0 1 0-.01zm.1218.1462h.022l.083.089v.014l-.01.01-.3736.3431a.02.02 0 0 1-.01 0 .02.02 0 0 1-.01 0 .02.02 0 0 1-.01 0l-.069-.1-.01-.01zm-3.279.067 1.9472.8202-.2071.2071-.4406-.1949-.2578-.1157-.6274-.2619.2173.6435.1827-.1725.2619.1055-.3553.331.1543.4588-.2152.199-.1523-.4568-.1848.1705-.087-.2659.1848-.1726zm3.8576.5563h.022l.079.083v.012l-.01.01-.3756.3432-.077-.083-.016-.018zm.136.1299h.024l.091.079v.022l-.3897.3634a.02.02 0 0 1-.01 0 .02.02 0 0 1-.01 0l-.073-.095a.02.02 0 0 1 0-.01.02.02 0 0 1 0-.01zm.1422.1381h.024l.077.081v.022l-.3878.3614c-.0008-.0007 0 0 0 0l-.063-.095a.02.02 0 0 1 0-.01.02.02 0 0 1 0-.01.02.02 0 0 1 0-.01zm.1259.138h.024l.081.081v.022l-.3898.3634c-.0007.0005 0 0 0 0l-.063-.098a.02.02 0 0 1 0-.01.02.02 0 0 1 0-.01.02.02 0 0 1 0-.01zm-5.3965.601a.878.878 0 0 1 .6375.3025.864.864 0 0 1 .2294.7918h.01a.97.97 0 0 1-.3674.5725l-.2762.2558-1.066-1.1389-.1542.1421-.069-.2518.2822-.2639.061-.057a1.044 1.044 0 0 1 .5969-.3471.9.9 0 0 1 .1198-.01zm0 .2822a.7.7 0 0 0-.085 0 .756.756 0 0 0-.4406.2294l-.091.085.8872.9522.093-.083a.718.718 0 0 0 .2619-.4244.627.627 0 0 0-.1726-.5502.65.65 0 0 0-.4527-.2111zm-1.7826 1.0821.7776.8365a.6725.6725 0 0 1-.9847.9156l-.7796-.8344.201-.1848.7268.7797a.573.573 0 0 0 .2558.1888.4056.4056 0 0 0 .4974-.4649.534.534 0 0 0-.1705-.268l-.7268-.7797zM14.3512 9.113l.205.2213a.665.665 0 0 0-.471.1807.6404.6404 0 0 0-.016.9156l.012.012a.6324.6324 0 0 0 .8934.028.665.665 0 0 0 .209-.4588l.2153.2294a.905.905 0 0 1-.26.4121.89.89 0 0 1-1.2587-.043.9073.9073 0 0 1 .055-1.2831.79.79 0 0 1 .4162-.2152zm-1.61 1.3075.1847.1969-.54.5015.2862.3065.538-.5014.1828.1949-.538.5035.3898.4162.538-.5035.1888.203-.7573.7045-1.2303-1.3176zm-1.4293 1.5348a.505.505 0 0 1 .3573.1645.4915.4915 0 0 1 .039.6416l.9319.2009-.2315.2335-.8994-.2091-.061.057.5218.5603-.2071.1929-1.2263-1.3136.2842-.2721a.71.71 0 0 1 .4914-.2558zm-.016.2883c-.081 0-.1692.047-.2781.1462l-.1076.1.3674.3939.1137-.1158c.181-.1546.2047-.2977.083-.4283-.058-.062-.1157-.094-.1787-.095zm-1.4943.9197 1.2324 1.3157-.2213.205-1.2303-1.3136zm-.6801.6579.091.2578-.534.4994.2944.3168.3857-.3614.091.2558-.3086.2863.5888.6293-.199.1868-.5888-.6314-.1401.1279-.083-.2497.061-.057-.473-.5055zm-2.3856 1.945a.095.095 0 0 1 .1015.063l.065.1787.205.077v-.1015a.03.03 0 0 1 0-.01.03.03 0 0 1 0-.01.03.03 0 0 1 0-.01.03.03 0 0 1 .01 0 .03.03 0 0 1 .01 0l.6498.1157.2213.8588-.3167-.134-.089.3858-.199-.3005-.5198.6233.1462-.4203a.21.21 0 0 1 .071-.1137s.4046-.3394.471-.3898c.01 0 .011-.01.014-.014.0003-.0008 0-.01 0-.01v-.01c-.01-.045-.112-.094-.1828-.1056a1.5 1.5 0 0 0-.1908-.014c-.01 0-.017.0005-.022 0l-.3898.735a.071.071 0 0 1-.051.036l-.4588.073-.8974 1.1288a2 2 0 0 1-.9907.67l-.4508.134a.41.41 0 0 0-.1563.1015l-.3736.3655h-.014v-.012l.2904-.3979a.392.392 0 0 1 .207-.1462l.3716-.1137a2 2 0 0 0 1.1004-.8142l.3005-.4588c.016-.024.025-.066.012-.085-.011-.01-.029-.01-.059.01a6.5 6.5 0 0 1-.8771.1766 3.01 3.01 0 0 0 .9684-.6943 2.68 2.68 0 0 1 .8487-.6497l-.053-.1624.1827-.1868-1.4963.3431a.047.047 0 0 0-.041.051v.01l.142.4142a1.45 1.45 0 0 0-.4973.1807c-.1581.1203-.4832.4588-.4832.4588l.6436-.1563-1.74 1.4699 1.066-1.9714a.18.18 0 0 0-.1564-.091H3.046l.9157-.5644a.383.383 0 0 1 .2416-.055l.5725.1969.012-.1035a.063.063 0 0 0-.016-.051l-.2538-.2801zm1.8212 1.1024a.52.52 0 0 1 .1319.018c.037.011.074.023.1097.038l-.081.045a.423.423 0 0 0-.2802.2152.1.1 0 0 0-.01.031l.022-.012a.412.412 0 0 1 .479-.016c.06.034.1154.07.1727.1137a.487.487 0 0 0 .4487.079.8.8 0 0 0 .1157-.059h.018a.06.06 0 0 1-.01.014h-.01a.5.5 0 0 1-.041.055.501.501 0 0 1-.5441.1421 1.3 1.3 0 0 1-.13-.051c0 .046.012.092.014.1381a.305.305 0 0 1-.053.203.07.07 0 0 1-.02.014v-.02a.245.245 0 0 0-.079-.1969.344.344 0 0 0-.3452-.1137.8.8 0 0 0-.1137.034s-.01 0-.012.01c0 0 .01.01.012.01a.24.24 0 0 1 .099.091.356.356 0 0 1 .045.1746c0 .01-.01.019-.01.028l-.022-.016a.21.21 0 0 0-.1705-.057 6 6 0 0 0-.327.057 1.8 1.8 0 0 1-.672.026.86.86 0 0 1-.2862-.097.08.08 0 0 1-.016-.02c0-.0005.01 0 .01 0a.606.606 0 0 0 .3086-.033.71.71 0 0 0 .3289-.2599c.062-.086.1149-.1804.1665-.272l.03-.033a.3.3 0 0 1 .012.047.64.64 0 0 1-.049.2578l-.031.071a.06.06 0 0 0 0 .02h.02a.64.64 0 0 0 .095-.095c.057-.089.1068-.1833.1584-.2761a.64.64 0 0 1 .1847-.2213.52.52 0 0 1 .3107-.1035zm-.605 1.0821.03.1685a1.8 1.8 0 0 1-.2517.5807 5.2 5.2 0 0 1-.5198.4304.76.76 0 0 0 .047-.3208.605.605 0 0 0-.1482-.27 2.29 2.29 0 0 0-1.3867.4446c-.4582.4205-.7512.7289-.7512.7289s.2002-.5286.3675-.9319a2.6 2.6 0 0 1 .6964-.8101 1.65 1.65 0 0 0 .089.2294c.061.036 1.2467.1532 1.4598-.039a.41.41 0 0 0 .1015-.1604l.097.1888z"/></svg>