<svg xmlns="http://www.w3.org/2000/svg" viewBox="0 0 24 24"><path fill="#44739e" d="m20.8 15.544.563.844H23v-.367h-1.466v-.733H23v-.367h-1.834v-.733H23v-1.467h-1.834v-.733H23v-.367h-1.834v-.733H23v-.367h-1.834v-.733H23v-.367h-1.834v-.733H23v-.367h-2.2Zm1.067-11.609H2.133A1.134 1.134 0 0 0 1 5.064v13.868a1.134 1.134 0 0 0 1.133 1.133h19.734A1.134 1.134 0 0 0 23 18.932v-1.797h-2.029l-.905-1.355V7.598H23v-2.53a1.134 1.134 0 0 0-1.133-1.133m-.701 13.934a.367.367 0 1 1-.366.366.367.367 0 0 1 .366-.37Zm-18.332.729a.367.367 0 1 1 .366-.363.368.368 0 0 1-.366.363m0-12.467a.366.366 0 1 1 .366-.366.367.367 0 0 1-.366.37Zm10.242 10.34a16.7 16.7 0 0 1-2.506 1.214c-.125-.563-.314-1.128-.44-1.691a12.85 12.85 0 0 0 3.286-1.879 6.22 6.22 0 0 0 2.694-3.85 3.23 3.23 0 0 0-.064-1.1c-.508-1.747-2.867-3.547-7.294-.594-.462.269-1.221.813-1.221 1.345a.339.339 0 0 0 .22.314c.684.299 2.199-1.235 3.699-1.746a1.817 1.817 0 0 1 2.568 1.065 1.8 1.8 0 0 1-.061.814 4.65 4.65 0 0 1-1.975 2.036 12.91 12.91 0 0 1-3.664 1.656c-1.308.358-2.976.163-3.664-1.003a2.75 2.75 0 0 1-.406-1.471 4.65 4.65 0 0 1 .406-1.722 7.26 7.26 0 0 1 1.879-2.376 13 13 0 0 1 2.442-1.692l-.03.032a3.45 3.45 0 0 1 .468-.25c.064.158.157.314.22.469a10.2 10.2 0 0 0-1.002.563c-4.606 2.797-3.9 5.977-1.911 6.262 1.356.254 3.021-.618 4.195-1.32.89-.556 1.692-1.088 1.692-1.722 0-.404-.465-.596-.846-.532-1.225.307-2.865 2.002-4.226 2.002a.947.947 0 0 1-1.003-1.032 3.45 3.45 0 0 1 1.973-2.342 9.295 9.295 0 0 1 5.134-1.723c4.324.15 6.913 5.547-.563 10.271Zm8.09-10.34a.366.366 0 1 1 .368-.366.366.366 0 0 1-.368.37Z"/></svg>