<svg xmlns="http://www.w3.org/2000/svg" viewBox="0 0 24 24"><path fill="#44739e" d="M5.038 19.015q-1.498-.125-2.996-.247a.44.44 0 0 1-.25-.07.263.263 0 0 1-.059-.251c.021-.11.147-.151.247-.146 1.227-.007 2.453 0 3.679-.006v-.576c-1.21-.006-2.413 0-3.619 0a1.45 1.45 0 0 0-.684.11.624.624 0 0 0-.35.589 1.5 1.5 0 0 0 .047.528.608.608 0 0 0 .359.344 3.16 3.16 0 0 0 .81.122c.88.074 1.752.145 2.628.22a.33.33 0 0 1 .269.11.32.32 0 0 1-.031.33.33.33 0 0 1-.241.066H1.141a5.5 5.5 0 0 0 0 .572c1.32.009 2.632 0 3.948 0a.825.825 0 0 0 .574-.188.87.87 0 0 0 .227-.636.844.844 0 0 0-.192-.637 1.072 1.072 0 0 0-.66-.234m6.416-.706a.52.52 0 0 0 .148-.01v-.576l-.055-.007H6.918v1.938a1.124 1.124 0 0 0 .185.704.99.99 0 0 0 .74.36h2.38c.461 0 .923.008 1.381-.008v-.568H8.233a.486.486 0 0 1-.44-.172 1.034 1.034 0 0 1-.071-.494h3.495a1.5 1.5 0 0 0 .232-.01v-.563c-.33-.02-.659 0-.989-.009H7.72v-.588c1.247.004 2.491.001 3.734.003m6.664-7.883Q11.846 9.259 5.574 8.093v1.54q3.74.643 7.479 1.277c.62.102 1.237.22 1.857.311.006.056-.047.091-.08.129a1.15 1.15 0 0 1-.843.253c-1.378-.014-2.75-.014-4.133-.035-1.43-.032-2.853-.083-4.276-.173.041.8.072 1.603.132 2.403a1.26 1.26 0 0 0 .088.434.5.5 0 0 0 .29.196 3.17 3.17 0 0 0 .66.08 72.8 72.8 0 0 0 8.295.134 14.6 14.6 0 0 0 1.925-.162 1.6 1.6 0 0 0 1.1-.679 2.62 2.62 0 0 0 .278-1.239c.025-.687.039-1.373.062-2.059l-.011-.024a2.3 2.3 0 0 0-.279-.053m4.876 7.289h-4.547v.588h1.454c.133 0 .266.007.399-.009.047.068.01.158.019.236 0 .735-.009 1.469.008 2.2h.794v-2.432h1.876c.004-.187.004-.385-.003-.583m-9.883.306a1.133 1.133 0 0 0-.278.818c.005.634 0 1.268.005 1.902h.798c.01-.296-.015-.595.012-.89 1.007.011 2.016-.009 3.022.01v.88h.797v-3.024h-3.51a1.19 1.19 0 0 0-.846.304m3.554.285v.95h-3.033v-.276a1.02 1.02 0 0 1 .075-.449.465.465 0 0 1 .429-.22c.845-.004 1.687.001 2.529-.005M8.986 6.516a.88.88 0 0 1 .632-.321c.964-.047 1.929-.037 2.893-.041 1.862 0 3.721.083 5.58.18a2.1 2.1 0 0 0 .313.006c-.054-.723-.07-1.449-.128-2.172a1.2 1.2 0 0 0-.092-.44.564.564 0 0 0-.36-.208 6.3 6.3 0 0 0-.76-.073c-2.41-.154-4.827-.239-7.24-.154-.778.027-1.56.056-2.329.127a2.235 2.235 0 0 0-1.385.514 1.463 1.463 0 0 0-.386.76 6.7 6.7 0 0 0-.098 1.21c-.011.509-.032 1.017-.038 1.525 2.921.498 5.838 1.009 8.757 1.511 1.357.232 2.713.475 4.069.7V8.266c-2.419-.451-4.831-.893-7.245-1.345-.727-.136-1.454-.276-2.183-.405"/></svg>