<svg xmlns="http://www.w3.org/2000/svg" viewBox="0 0 24 24"><path fill="#44739e" d="M15.337 5.836c.566.544 1.133 1.092 1.337 1.304s.77.693 1.222 1.094a7 7 0 0 0-.57-.771 15.5 15.5 0 0 1 2.785.065.914.914 0 1 0 .264-1.807 16.3 16.3 0 0 0-2.351-.103 24.1 24.1 0 0 0-2.705.206c.057.033.11.065.164.098q-.075-.052-.146-.086m7.587 4.12a1.966 1.966 0 0 0-.699-1.084 2.37 2.37 0 0 0-1.121-.44 6.92 6.92 0 0 0-2.57.243c-.274.066-.558.142-.849.227-.421-.424-2.167-2.158-3.609-3.608a7.2 7.2 0 0 0-.784-.201c.551.551 2.173 2.085 2.552 2.479.25.257 1.056 1.007 1.508 1.431-.229.07-.464.144-.702.22-.11-.116-.22-.22-.247-.264-.064-.086-2.384-2.414-3.916-3.979a7.7 7.7 0 0 0-.524-.021c-.079 0-.159.007-.238.012.467.427.897.816 1.071.997.33.347 1.645 1.541 2.064 1.982.259.265 1.008.99 1.431 1.395q-.301.103-.608.213c-.075-.078-.135-.143-.16-.175-.07-.094-2.824-2.857-4.308-4.381a6.8 6.8 0 0 0-.695.11c.639.594 1.354 1.228 1.592 1.477.331.347 1.651 1.464 2.075 1.9.249.254.815.793 1.211 1.171-.214.078-.43.159-.648.241-.489-.503-3.406-3.386-4.665-4.678q-.286.08-.563.183c.695.66 1.61 1.466 1.886 1.753.33.347 1.658 1.464 2.075 1.9.234.241.649.609 1.009.939q-.384.146-.77.298c-.764-.799-3.59-3.695-4.574-4.744a6.6 6.6 0 0 0-.628.312c.703.691 1.807 1.61 2.12 1.937.33.347 1.689 1.541 2.108 1.973.264.27.386.305.729.618l-.672.265c-.684-.702-3.742-3.767-4.549-4.63q-.264.162-.512.349c.701.694 1.573 1.45 1.892 1.783s1.827 1.541 2.245 1.973c.278.283.288.268.668.625l-.581.233-.046.017a3.6 3.6 0 0 1-.314-.29c-.078-.11-2.971-3.032-4.072-4.189q-.248.201-.477.423a.415.415 0 0 0 .145.347c.685.637 1.67 1.451 1.99 1.783s1.827 1.541 2.245 1.972c.039.041.072.075.103.111l-.502.2c-.529-.538-3.493-3.419-4.201-4.183a6.8 6.8 0 0 0-.449.525c.677.637 1.816 1.651 2.157 2.008s1.137.965 1.56 1.405l.44.441-.489.193c-.25-.274-2.955-2.983-3.786-3.88a7 7 0 0 0-.408.63c.614.529 1.953 1.783 2.311 2.153.298.31.475.455.709.699.093.097.338.33.567.566l.052.053-.291.11c-.288-.288-.705-.703-.757-.771-.086-.11-1.981-1.958-2.651-2.701-.035.062-.069.125-.101.187v-.007c-.55.269-1.079.55-1.561.838a8.53 8.53 0 0 0-2.541 2.106 2.672 2.672 0 0 0-.356 2.805 2.284 2.284 0 0 0 2.091 1.052 8.97 8.97 0 0 0 2.367-.375 7 7 0 0 0 1.065 1.527 18.6 18.6 0 0 1-2.853.174.913.913 0 1 0-.081 1.824 24.5 24.5 0 0 0 4.947-.469 7.01 7.01 0 0 0 2.181.688C9.752 17.82 7.77 15.938 6.791 14.9l.199-.065c1.115 1.112 3.098 3.059 4.22 4.156a7.2 7.2 0 0 0 .753.05c.168 0 .337-.011.505-.025-.981-.951-3.37-3.275-4.556-4.494l.192-.069c.238.255.515.551.814.824 1.333 1.197 3.104 2.96 3.853 3.712a6.8 6.8 0 0 0 .929-.176c-.551-.511-3.166-2.953-4.882-4.623l.313-.116c1.58 1.494 4.359 4.215 4.826 4.673q.323-.096.632-.22c-.44-.416-3.1-2.959-4.851-4.686l.346-.134c1.749 1.702 4.37 4.359 4.733 4.724a7 7 0 0 0 .758-.396c-.461-.416-3.185-2.871-4.942-4.543l.366-.145c1.779 1.718 4.333 4.241 4.704 4.609a7 7 0 0 0 .588-.412c-.408-.386-3.015-2.871-4.623-4.465l.31-.124c.975.968 2.211 2.268 3.149 3.251.646.676 1.101 1.139 1.237 1.28a7 7 0 0 0 .599-.535c-.33-.313-2.752-2.615-4.388-4.236l.072-.028.356-.142c.932.923 2.048 2.078 2.92 2.991.517.543.991.973 1.243 1.195.155-.172.302-.35.44-.536-.177-.153-2.607-2.268-4.228-3.8l.678-.267c.792.82 1.58 1.789 2.353 2.503.622.574 1.154 1.11 1.365 1.328q.152-.227.287-.462c-.79-.757-2.45-2.356-3.613-3.522l.489-.189c.786.817 1.568 1.778 2.336 2.487a9.7 9.7 0 0 1 .922.99 18.4 18.4 0 0 0 2.441-1.272 5.91 5.91 0 0 0 1.877-1.724 3.005 3.005 0 0 0 .411-2.311m-6.053 1.123c.629.66 1.156 1.278 1.838 1.907.062.057.123.11.185.173-.029.173-.064.341-.11.504.014-.058.027-.11.039-.173-.732-.649-1.689-1.491-2.531-2.21q.3-.103.583-.201Zm-11.763.811c.186.089.894.786 1.403 1.175l-.299.097c-.326-.392-1.095-1.193-1.104-1.272m2.112.932c-.074-.156-1.488-1.625-2.083-2.299l-.026-.029.026-.11c.496.441 1.932 1.946 2.409 2.326Zm.575-1.164a5.1 5.1 0 0 1 .66.613.8.8 0 0 0 .062.076l-.304.11c-.043-.023-.073-.051-.074-.09 0-.089-2.144-2.092-2.777-2.797.013-.039.028-.076.041-.11.57.505 1.977 1.869 2.392 2.202Zm-4.44 2.11c-.477 0-.497-.081-.497-.082-.136-.257-.13-.404.211-.864a7.01 7.01 0 0 1 1.897-1.555 6.74 6.74 0 0 0 .119 2.227 7.54 7.54 0 0 1-1.73.274m11.988-2.092-.039-.033.53-.197c.731.724 1.469 1.453 2.179 2.107.22.207.44.418.632.617a10 10 0 0 1-.117.331c-.825-.748-2.158-1.951-3.185-2.821Zm3.434 2.048-.007.027Zm2.201-2.447a4.37 4.37 0 0 1-1.321 1.171q-.322.205-.709.413c.018-.149.031-.297.04-.447-.538-.47-1.14-.991-1.704-1.476.195-.064.387-.126.573-.183.383.399.742.771 1.142 1.165 0-.202-.012-.404-.031-.605a2.35 2.35 0 0 0-.631-.701q.33-.092.625-.165a5.84 5.84 0 0 1 1.883-.211.66.66 0 0 1 .279.086c.018.014.009-.012.026.056a.999.999 0 0 1-.173.9Z"/></svg>