<svg xmlns="http://www.w3.org/2000/svg" viewBox="0 0 24 24"><path fill="#44739e" d="M4.73 17.582h-.054l-.039-4.249h.015v-.282h-.017l-.05-5.077L4.183 8v.329h-.096v-.362l-.402.025v.348h-.098v-.377l-.402.026v.362h-.098v-.39l-.4.026v.376H2.59v-.404L2.187 8v.391H2.09v-.419l-.402.026v.405h-.097V7.97l-.4.025v.419L1 8.42v.284l.199.003.043 4.358h-.167v.282h.172l.042 4.183h-.136l-.008.284h.146v.4h.396v-.399h.103v.392h.397v-.39h.102v.384h.397v-.383h.101v.375h.396v-.376h.102v.37h.398v-.368h.102v.36h.396v-.36h.101v.352h.398v-.351h.042Zm-3.531-8.92h-.151v-.201h.153l.4-.012h.097l.402-.013h.097l.402-.01h.096l.402-.011h.098l.401-.011h.098l.4-.011h.097l.36-.01v.2l-.359.01h-.098l-.4.011h-.097l-.402.012h-.098l-.403.011h-.095l-.402.011h-.098l-.401.011h-.097Zm2.537 4.392h-.1l-.041-4.421h.096Zm-.499 0h-.099l-.043-4.406h.098Zm-.499 0h-.1l-.041-4.392h.096Zm-.499 0H2.14l-.042-4.381h.098Zm-.499 0h-.102L1.6 8.691h.097Zm2.495-.009h-.1l-.042-4.426h.097Zm-2.99.253v-.201h3.371v.199H1.638Zm3.034 4.27h-.101l-.041-4.237h.1Zm-.498-.007h-.102l-.04-4.229h.1Zm-.496-.003h-.11l-.039-4.219h.099Zm-.498-.007h-.103l-.04-4.209h.101Zm-.499-.008h-.103l-.042-4.202h.1Zm-.501-.009h-.104l-.045-4.191h.11Zm2.497.284h-.101l-.396-.007h-.105l-.397-.011h-.602l-.396-.007h-.1l-.396-.006h-.106l-.396-.008h-.11l.007-.2h.101l.397.007h.102l.397.007h.102l.397.006h.101l.398.009h.603l.397.005h.101l.398.007v.202Zm6.817.412h.043v.379l.401.034v-.382l.103.01v.391l.404.036v-.394l.11.009v.402l.412.037v-.405l.11.009v.415l.418.037v-.417l.11.008v.427l.425.038v-.43l.109.01v.439l.432.039v-.439l.11.008v.453l.439.04v-.457l.161.013-.012-.323-.15-.011-.021-4.743h.191l-.006-.323h-.186l-.02-4.942h.21v-.32h-.211v-.475h-.439v.487h-.11v-.456h-.439v.467h-.104v-.439h-.43v.448h-.103v-.398h-.428v.426h-.102v-.39h-.415v.409h-.1v-.376h-.41v.389h-.098v-.361h-.404l.021 5.445h-.021v.304h.017l.016 4.568h-.053Zm3.134-10.061h-.11l-.439.011h-.11l-.428.011h-.103l-.424.01h-.102l-.415.01h-.1l-.41.008h-.097l-.363.009v-.22l.363-.009h.096l.41-.01h.1l.416-.012h.102l.423-.011h.103l.429-.011h.11l.439-.012h.11l.439-.014h.168v.229h-.167Zm-2.22.099h.1l.018 4.817h-.102Zm.515-.012h.103l.019 4.842h-.104Zm.526-.013h.103l.02 4.866h-.11Zm.532-.012h.11l.02 4.891h-.11Zm.541-.013h.109l.021 4.916h-.11Zm-2.62.063h.096l.02 4.793h-.101Zm2.745 5.123h-.11l-.439-.011h-.11l-.426-.012h-.11l-.42-.011h-.11l-.415-.011h-.102l-.407-.012h-.101l-.381-.008v-.22l.383.01h.101l.407.01h.102l.415.011h.103l.422.008h.11l.427.011h.11l.439.011h.11l.439.01v.23Zm-2.733-.031h.101l.017 4.593-.103-.008Zm.507.014h.102l.02 4.619-.11-.008Zm.517.014h.11l.019 4.644-.11-.009Zm.525.017h.11l.019 4.669-.11-.008Zm.532.014h.109l.021 4.696-.11-.01Zm.542.015h.11l.022 4.722-.11-.008Zm-3.008 4.744v-.22l.4.033.103.008.404.032.11.008.412.031.11.01.418.032.11.009.426.034.11.008.431.035.11.007.439.034.11.008.008.23-.118-.009-.439-.036-.11-.009-.431-.036-.11-.008-.426-.035-.11-.009-.418-.035-.11-.009-.412-.033-.11-.01-.404-.033-.103-.007ZM7.926 5.459l5.49 1.734L23 8.084l-5.248-1.537ZM14.89 7.6l8.016.676.053-.109-8.071-.701ZM7.738 5.459l5.54 1.76.118.033v.129l-.607.028-5.013-1.615.05-.154Zm-.345.063L2.597 7.871l-.072.03.733-.03 4.135-2.019-.065-.157Zm.22.949h-.031l-.234-.498-1.428.708 3.584-.209-1.729-.563Zm-1.867.304-1.047.523 6.265-.384L9.78 6.54Zm-1.272.638-.921.463 8.956-.467-1.358-.418Zm18.034.998h-.196l-1.188-.103-.219-.022-1.384-.117-1.354-.075-1.381-.117-.398-.039-1.427-.121v3.78l1.427.021.369-.021 1.422.021 1.387.023 1.409.03h1.378V12l-7.521-.13v.566l7.528.092v.203l-7.533-.063v.508l7.534.027v.22h-7.527l.006.506 7.544-.032v.139l-7.556.15.015.508 7.548-.185v.188l-7.565.219.019.508 7.552-.251v.194l-7.577.284.023.509 7.559-.32v.25l-7.566.323.026.509 7.546-.358v.173l-7.594.483.035.509 7.566-.519v.178l-7.585.549.04.508 7.662-.594.089-.023Zm-6.313 2.998-1.043-.015V8.037l1.043.089Zm.758-.015.02-3.193.999.085.013 3.123Zm2.803.045-.041-3.045.996.083.065 2.983Zm1.62.023-.055-2.928.932.081.059 2.847ZM7.409 5.727l.193.564.136-.623-.163-.652Z"/></svg>