<svg xmlns="http://www.w3.org/2000/svg" fill="#44739e" viewBox="0 0 24 24"><path d="m13.865 11.719.537.033v-.494l-.547-.045zm0-.714.537.033v-.493l-.547-.045Zm0-.718.537.034v-.493l-.547-.045Zm0-.754.537.033v-.494l-.547-.045Zm0-.713.537.033v-.494l-.547-.043Zm-.571 9.338.451-.053v-6.073l-.028-3.807-.46-.042ZM12.6 8.152l.068 9.956.546.049-.08-10.032zm8.807.743h-.18L20.15 8.8l-.2-.02-1.256-.105-1.23-.067L16.2 8.5l-.358-.036-1.3-.108v3.4l1.3.019.336-.019 1.292.019 1.26.021 1.278.027h1.253v.292l-7.561-.086v.473l7.572.091v.182l-7.572-.062v.46l7.575.029v.2h-7.576v.461l7.579-.033v.123l-7.578.149v.461l7.58-.183v.168l-7.582.217v.46l7.584-.25v.174l-7.585.284v.526l7.587-.384v.224l-7.588.381v.458l7.591-.413v.157l-7.591.48v.536l7.593-.59v.16l-7.593.671v.466l-.451.054 8.147-.77.082-.023zm-1.029 2.743L20.329 9l.847.074.051 2.561zm-1.471-.021-.039-2.739.906.076.06 2.683zm-2.547-.04.018-2.877.907.076.014 2.81zm-.688.013-.947-.013V8.562l.947.079zM5.025 8l-.837.416L12.32 8l-1.235-.38Zm1.155-.578-.95.47 5.691-.345-1.076-.332Zm1.7-.274h-.032L7.631 6.7l-1.3.637 3.255-.188-1.562-.503Zm-.2-.853L3.319 8.413l-.064.026.664-.026 3.758-1.821-.059-.142Zm.313-.054 5.037 1.584.107.031v.115L12.582 8 8.024 6.544 8.07 6.4Zm5.261 1.823 8.518.713.049-.1-8.512-.73zM8.161 6.241 13.146 7.8l8.706.8-4.768-1.38Zm.114 11.034v-.178l.428.044.11.013.439.046.112.011.449.047.115.012.458.049.119.013.468.05.122.011.48.051.125.014.491.052.122.012.01.2-.133-.022-.491-.054-.125-.013-.479-.052-.122-.013-.468-.052-.119-.012-.458-.051-.116-.012-.448-.049-.112-.011-.439-.048-.11-.013Zm3.272-3.888.123.006.027 4.025-.125-.014zm-.6-.026.12.006.03 3.988-.122-.014zm-.591-.025.116.006.035 3.951-.119-.012zm-.578-.025.115.006.037 3.916-.12-.013Zm-.563-.022h.111l.04 3.881-.113-.012Zm-.552-.023h.108l.044 3.846-.11-.011zm3.01.086h-.122l-.484-.021-.121-.005-.474-.019-.116-.005-.464-.02-.114-.005-.453-.018-.11-.005-.444-.019h-.108l-.41-.016-.005-.182.413.016h.108l.443.017h.111l.453.017.115.005.463.017h.116l.475.019h.12l.485.017.122.006.5.018v.2zM8.612 8.94h.107l.045 4.074h-.108Zm2.907-.073h.121l.028 4.254h-.123Zm-.609.014h.118l.033 4.216h-.12zm-.6.016h.116l.035 4.18h-.116Zm-.581.015h.113l.039 4.144h-.114Zm-.567.014h.109l.043 4.109-.111-.005Zm2.472-.1h-.12l-.492.013h-.117l-.48.012h-.115l-.468.012h-.113l-.458.013h-.109l-.444.024h-.106l-.393.011v-.184l.391-.011h.107l.448-.016h.109l.458-.013h.113l.469-.014h.114l.48-.014h.118l.492-.014h.12l.5-.016.191-.005v.2l-.19.006zm-3.41 8.485.046.005v.314l.428.05v-.317l.111.012v.325l.437.051v-.327l.113.012v.336l.448.052v-.34l.115.014v.346l.457.055v-.35l.119.012v.358l.467.055v-.362l.122.014v.369l.479.056v-.372l.125.012v.383l.49.058v-.386l.181.02-.014-.275-.169-.017-.021-4.057.216.01-.007-.279-.21-.008-.024-4.285.239-.006v-.287l-.241.008v-.417l-.5.007v.425h-.12v-.4l-.493.006v.407H10.9v-.379l-.481.006v.387l-.114.005v-.362l-.47.006v.369h-.113v-.342h-.458v.352h-.11v-.326h-.449v.334h-.107v-.309l-.439.006.056 4.617H8.2l.009.256h.017l.046 3.813-.057-.006Zm-.667-.145-.112-.018-.433-.064-.11-.016-.42-.068-.107-.016-.415-.062-.1-.015-.406-.062-.1-.014-.4-.061-.1-.014-.398-.056-.1-.016v-.16l.095.012.391.057.1.016.4.057.1.016.406.059.106.016.416.06.106.017.425.061.11.016.433.063.113.017.443.062v.174zm-2.62-.589-.1-.015-.09-3.474.1.007zm.5.073-.1-.015-.083-3.518.1.006zm.512.073L5.85 16.7l-.076-3.561h.1zm.523.076-.107-.014-.065-3.612.107.006Zm.534.079-.11-.016L6.84 13.2l.109.006Zm.546.08-.113-.017-.055-3.7h.112Zm-3.199-3.931-.006-.167.4.02.1.006.406.021.1.006.414.022h.1l.424.023.107.006.432.023.11.006.443.023h.111l.43.024v.18l-.424-.015-.109-.005-.442-.025-.11-.007-.432-.023-.107-.008-.423-.025-.1-.005-.415-.024-.1-.005-.406-.023-.1-.006ZM7.5 12.99l-.111-.007-.06-4 .11-.005zm-2.653-.14h-.1l-.1-3.74h.1zm.508.027-.1-.005-.09-3.79.1-.005zm.518.027-.1-.005-.089-3.842h.1zm.531.028-.104-.005-.08-3.895.107-.005Zm.542.028-.109-.005-.069-3.948L6.877 9Zm-2.7-3.87-.153.01-.006-.172.151-.009.4-.02.1-.006.414-.02.1-.007.423-.022h.1l.432-.023.106-.005.442-.023.109-.006.451-.023h.112l.412-.022v.186l-.413.02-.111.005-.451.022-.109.005-.441.022h-.106l-.432.021h-.1l-.422.02-.1.005-.413.02-.1.005zm3.819 7.936L8 17.017l-.047-3.75h.019v-.254h-.021l-.058-4.647-.463.034v.309l-.111.006v-.333l-.452.039v.318l-.108.006-.007-.342-.442.037.007.328h-.106l-.007-.351-.434.037.008.337h-.1l-.008-.36-.424.036.009.346-.1.006-.009-.369-.415.05.01.355-.1.006-.01-.379-.405.036.01.364-.189.009.009.244.187-.009.1 3.7-.163-.009v.236l.169.01.1 3.439-.131-.019v.227l.141.022.009.323.389.062-.008-.326.1.015.008.32.4.062-.008-.323.1.016.007.317.406.063-.007-.319.1.016.008.313.414.065-.006-.316.107.017.007.31.423.065v-.313l.11.017v.307l.433.066v-.308l.112.017v.3l.442.069v-.3l.049.006zM7.677 6.452l.182.491.131-.543-.157-.562Z"/></svg>