<svg xmlns="http://www.w3.org/2000/svg" fill="#44739e" viewBox="0 0 24 24"><path d="M5.216 17.282h-.049l-.036-3.869h.014v-.257h-.016l-.045-4.623-.366.023v.3H4.63v-.33l-.366.023v.317h-.089v-.343l-.366.023v.33H3.72v-.355l-.365.023v.343h-.088v-.368l-.367.037v.356h-.088v-.381l-.366.023v.369h-.089v-.394l-.364.023v.381l-.174.006v.258L2 9.2l.039 3.969h-.152v.257h.157l.038 3.809h-.124l-.007.259h.133v.364h.361v-.363h.093v.357H2.9v-.356h.093v.35h.361v-.349h.092v.342h.361v-.343H3.9v.337h.362v-.335h.093v.328h.361v-.328h.092v.321h.362v-.32h.039ZM2 9.159h-.137v-.183h.139l.364-.011h.089l.366-.012h.088l.366-.009h.088l.366-.01h.089l.365-.01h.089l.365-.01h.088l.328-.009v.182l-.327.009h-.089l-.365.01h-.088l-.366.011h-.089l-.367.01h-.087l-.366.01H2.82l-.365.01h-.089Zm2.311 4H4.22l-.038-4.026h.088Zm-.455 0h-.09l-.039-4.013h.089zm-.454 0h-.091l-.038-4h.088zm-.455 0h-.09l-.038-3.99h.089zm-.454 0H2.4l-.035-3.973h.089Zm2.272-.008h-.091L4.636 9.12h.088zm-2.723.23v-.183h3.07v.181H2.4Zm2.763 3.889h-.092l-.037-3.859h.091Zm-.453-.007h-.093l-.037-3.851h.091Zm-.452-.002h-.1l-.036-3.843h.09zm-.454-.007h-.093l-.037-3.833h.092Zm-.454-.007h-.094L2.86 13.42h.091Zm-.456-.008h-.095L2.4 13.422h.1Zm2.274.258h-.092l-.361-.006h-.096l-.361-.01h-.548l-.361-.006H2.9l-.361-.006h-.096l-.361-.007h-.1l.006-.182h.092l.362.006h.093l.361.006h.093l.362.006h.092l.362.008h.549l.362.005h.092l.362.006v.184zm6.208.376h.039v.345l.365.031v-.348l.094.009v.356l.368.033v-.359l.1.008v.366l.375.034v-.369l.1.008v.378l.381.034v-.38l.1.007v.389l.387.035v-.392l.1.009v.4l.393.036v-.4l.1.007v.413l.4.036v-.416l.147.012-.011-.294-.137-.01-.019-4.32h.174l-.006-.294h-.169l-.018-4.5h.191v-.292h-.192v-.432h-.4v.443h-.1v-.415h-.4v.425h-.095v-.4h-.391v.408H12.8v-.362h-.39V8.5h-.093v-.355h-.378v.372h-.091v-.342h-.373v.354h-.089V8.2h-.368l.019 4.959h-.019v.277h.015l.015 4.16H11Zm2.854-9.163h-.1l-.4.01h-.1l-.39.01h-.094l-.386.009h-.093l-.378.009h-.091l-.373.008h-.089l-.33.008v-.2l.33-.009h.088l.373-.009h.091l.379-.011h.093l.385-.01h.094l.391-.01h.1l.4-.011h.1l.4-.012h.153V8.7h-.152Zm-2.022.09h.091l.017 4.387h-.093zm.469-.011h.094l.017 4.41h-.094zm.479-.011h.094l.018 4.431h-.1zm.485-.011h.1l.018 4.454h-.1zm.492-.012h.1l.019 4.477h-.1zm-2.386.057h.088l.018 4.365h-.092zm2.5 4.666h-.1l-.4-.01h-.1l-.388-.011h-.1l-.383-.01h-.1l-.378-.01h-.093l-.37-.011h-.092l-.347-.008v-.2l.349.009h.092l.37.009h.093l.378.01h.094l.384.008h.1l.389.01h.1l.4.01h.1l.4.009v.209zm-2.489-.029h.092l.016 4.183-.094-.007zm.462.013h.093l.018 4.207-.1-.008zm.471.013h.1l.017 4.229-.1-.008zm.478.015h.1l.017 4.252-.1-.007zm.484.013h.1l.019 4.277-.1-.009zm.494.014h.1l.02 4.3-.1-.007zm-2.739 4.32v-.2l.364.03.094.007.368.029.1.007.375.029.1.009.381.029.1.008.388.031.1.007.393.032.1.007.4.031.1.007.007.209-.107-.008-.4-.033-.1-.008-.393-.033-.1-.007-.388-.032-.1-.008-.381-.032-.1-.008-.375-.03-.1-.009-.368-.03-.094-.007zM8.126 6.242l5 1.579 8.728.812-4.779-1.4zm6.342 1.95 7.3.616.049-.1-7.35-.638zm-6.513-1.95L13 7.845l.108.03v.118l-.553.025L7.99 6.547l.045-.14Zm-.314.058L3.273 8.439l-.065.027.667-.027L7.641 6.6l-.059-.143Zm.2.864h-.028L7.6 6.71l-1.3.645 3.263-.19-1.574-.513Zm-1.7.277-.953.476 5.705-.35-1.078-.34Zm-1.158.581-.839.421 8.156-.425-1.237-.381Zm16.423.909h-.179l-1.081-.094-.2-.02-1.26-.107-1.233-.068-1.258-.107-.362-.035-1.3-.11v3.442l1.3.019.336-.019 1.295.019 1.263.021 1.283.027h1.255v.3l-6.849-.118v.515l6.855.084v.185l-6.86-.058v.463l6.861.025v.2h-6.855l.006.461 6.87-.029v.126l-6.881.137.014.462 6.873-.168v.171l-6.889.2.017.462 6.878-.228v.176l-6.9.259.021.463 6.883-.291v.228l-6.89.294.024.463 6.872-.326v.158l-6.916.44.032.463 6.89-.472v.162l-6.907.5.036.462 6.978-.541.081-.021zm-5.749 2.73-.95-.014V8.59l.95.081zm.69-.014.018-2.908.91.078.012 2.844zm2.553.041-.038-2.773.907.076.06 2.716zm1.475.021-.05-2.666.849.073.053 2.593zM7.656 6.486 7.831 7l.124-.567-.148-.594Z"/></svg>