<svg xmlns="http://www.w3.org/2000/svg" viewBox="0 0 24 24"><path fill="#44739e" d="m13.551 11.669.636.039v-.584l-.647-.053Zm0-.844.636.039v-.583l-.647-.054Zm0-.85.636.041v-.584l-.647-.053Zm0-.892.636.039v-.584l-.647-.053Zm0-.843.636.039v-.584l-.647-.051Zm-.675 11.047.534-.063V12.04l-.034-4.504-.544-.05ZM12.055 7.45l.08 11.777.646.058-.094-11.867Zm10.419.879h-.213l-1.274-.113-.237-.023-1.486-.125-1.455-.079-1.495-.128-.424-.042-1.538-.128v4.022l1.538.023.398-.023 1.528.023 1.491.024 1.512.032h1.482v.346l-8.945-.102v.56l8.958.107v.216l-8.958-.074v.544l8.961.035v.236h-8.962v.546l8.966-.039v.145l-8.965.176v.546l8.967-.217v.199l-8.969.257v.544l8.972-.296v.206l-8.973.336v.622l8.975-.454v.265l-8.976.451v.541l8.98-.488v.186l-8.98.567v.635l8.982-.698v.189l-8.982.794v.551l-.534.064 9.638-.911.097-.027Zm-1.218 3.245-.058-3.121 1.002.087.061 3.03Zm-1.74-.025-.046-3.241 1.072.09.071 3.174Zm-3.013-.048.021-3.403 1.073.09.017 3.324Zm-.814.016-1.12-.016V7.935l1.12.093ZM3.094 7.27l-.99.492 9.62-.492-1.461-.45Zm1.366-.684-1.124.556 6.733-.408-1.273-.393Zm2.011-.324h-.038l-.256-.53-1.538.754 3.85-.223-1.847-.595Zm-.236-1.009L1.076 7.758 1 7.789l.786-.031 4.445-2.154-.07-.168Zm.37-.064 5.959 1.874.126.036v.137l-.656.034-5.392-1.723.054-.17Zm6.224 2.157 10.076.843.058-.118-10.069-.864ZM6.804 5.189l5.897 1.844L23 7.98l-5.64-1.633Zm.135 13.053v-.211l.506.053.13.015.519.054.133.013.531.056.136.014.542.058.141.015.553.06.145.013.567.06.148.017.581.061.144.014.012.237-.157-.026-.581-.064-.148-.015-.566-.062-.145-.015-.553-.062-.141-.014-.542-.06-.137-.015-.53-.058-.133-.013-.519-.056-.13-.016Zm3.87-4.599.146.007.032 4.761-.148-.016Zm-.709-.031.141.007.036 4.718-.144-.017Zm-.7-.03.138.007.041 4.674-.141-.014Zm-.683-.029.136.007.043 4.632-.142-.015Zm-.666-.026h.131l.047 4.591-.133-.014Zm-.653-.028h.127l.052 4.55-.13-.013Zm3.56.102h-.144l-.573-.025-.143-.006-.56-.022-.138-.006-.549-.024-.134-.006-.536-.021-.13-.006-.526-.022h-.127l-.485-.019-.006-.215.488.018h.128l.524.021h.131l.536.02.136.006.548.02h.137l.562.022h.142l.574.02.144.007.592.022v.236ZM7.337 8.382h.127l.053 4.819h-.128Zm3.439-.087h.143l.033 5.033h-.145Zm-.72.017h.139l.039 4.988h-.142Zm-.71.019h.137l.042 4.945h-.138Zm-.687.018h.133l.046 4.902h-.134Zm-.671.016h.129l.051 4.861-.132-.006Zm2.924-.118h-.142l-.582.015h-.138l-.568.015h-.136l-.554.014h-.133l-.542.015h-.129l-.525.029h-.126l-.465.013V8.13l.463-.013h.126l.53-.019h.129l.542-.015h.134l.555-.017h.135l.567-.017h.14l.582-.016h.142l.591-.019.226-.006v.237l-.224.007ZM6.878 18.285l.055.006v.371l.506.059v-.375l.131.014v.385l.517.06v-.387l.134.014v.398l.53.061v-.402l.136.017v.409l.541.065v-.414l.14.014v.424l.553.065v-.428l.144.016v.437l.567.066v-.44l.148.014v.453l.579.069v-.457l.214.024-.016-.325-.2-.021-.025-4.799.256.012-.009-.33-.248-.01-.028-5.069.282-.007v-.339l-.285.009v-.493l-.591.008v.503h-.142v-.473l-.583.007v.481h-.14v-.448l-.569.007v.458L9.34 8v-.429l-.556.008v.436H8.65v-.404h-.541v.416h-.131v-.386h-.531v.395h-.126v-.365l-.52.007.067 5.462H6.85l.011.303h.02l.054 4.51-.067-.007Zm-.789-.172-.132-.021-.513-.076-.13-.019-.497-.08-.126-.019-.491-.074-.118-.017-.481-.074-.118-.016-.473-.072-.118-.017-.471-.066-.119-.019v-.189l.113.014.462.067.119.019.473.068.118.019.48.069.126.019.492.071.125.02.503.072.13.019.513.075.133.02.524.073v.206Zm-3.099-.697-.119-.017-.106-4.11.118.008Zm.591.087-.118-.018-.098-4.162.118.007Zm.606.086-.117-.027-.09-4.213h.118Zm.619.09-.127-.017-.077-4.273.127.008Zm.631.093-.13-.019-.066-4.332.129.007Zm.646.095-.133-.02-.065-4.377h.132Zm-3.784-4.65-.007-.198.473.024.118.007.481.025.118.007.49.026h.118l.502.027.126.007.511.027.13.007.524.028h.132l.508.028v.213l-.501-.018-.129-.006-.523-.029-.13-.008-.511-.028-.127-.009-.5-.03-.119-.006-.49-.028-.119-.006-.48-.027-.118-.007Zm3.723-.044-.132-.008-.071-4.732.131-.006Zm-3.139-.166h-.118l-.118-4.424h.118Zm.601.032-.118-.006L3.26 8.55l.118-.006Zm.613.032-.118-.006-.106-4.545h.119Zm.628.033-.123-.006-.094-4.607.126-.006Zm.641.033-.129-.005-.081-4.671.129-.008ZM2.172 8.559l-.181.012-.007-.203.179-.011.473-.024.118-.007.49-.023.118-.009.501-.026h.118l.511-.027.126-.006.522-.027.129-.007.534-.027h.132l.488-.026v.22l-.489.023-.131.006-.534.026-.129.006-.521.026h-.126l-.511.025h-.118l-.499.024-.119.006-.488.023-.118.006Zm4.518 9.388-.077-.01-.055-4.436h.022V13.2h-.025l-.068-5.497-.548.04v.366l-.131.007v-.394l-.535.046v.376l-.128.007-.008-.404-.523.043.008.388h-.125l-.008-.415-.514.044.01.399h-.119l-.009-.426-.502.042.011.41-.118.007-.011-.437-.491.059.012.42-.118.007-.012-.448-.479.043.012.43-.224.011.011.289.221-.011.118 4.377-.193-.011v.279l.2.012.118 4.069-.154-.023v.269l.166.026.011.382.46.073-.009-.386.118.018.009.379.474.073-.01-.382.118.019.009.375.48.074-.008-.377.118.019.01.37.489.077-.007-.374.127.02.008.367.5.077v-.37l.131.02v.363l.512.078v-.364l.132.02v.355l.523.081v-.354l.058.007ZM6.231 5.439l.215.58.155-.642-.185-.665Z"/></svg>