<svg xmlns="http://www.w3.org/2000/svg" viewBox="0 0 24 24"><desc>Shelly Streamline Icon: https://streamlinehq.com</desc><path fill="#44739e" d="M12 1C5.9253 1 1 5.9253 1 12a11 11 0 0 0 .0303.8067c.9808-.4061 2.287-.6224 3.9618-.6224h5.2818c-.153.5591-.5023.9964-1.0468 1.3163-.4877.2823-1.045.4244-1.6711.4244h-.8498c-.8158 0-1.5244.1412-2.1266.4244-.7874.3694-1.1789.9167-1.1789 1.64 0 .8185.5409 1.4611 1.6262 1.925a6.8 6.8 0 0 0 2.6831.5325c1.2082 0 2.2147-.2658 3.0223-.7947.9386-.6087 1.407-1.4814 1.407-2.619 0-.7828-.2979-1.9066-.8946-3.3696-.5959-1.464-.8938-2.6006-.8938-3.4128 0-2.5575 2.113-3.8802 6.3397-3.9636.5876-.0092 1.2256-.0046 1.7563-.0037.5436 0 1.0487.0458 1.5217.1347A11 11 0 0 0 12 1m4.3615 5.2168q-1.6582 0-1.6582 1.3805c0 .4711.3263 1.5262.978 3.1634.6509 1.638.9754 2.9205.9754 3.8481q.0002 2.9782-3.3065 4.4688c-1.6445.7306-3.5676 1.0972-5.7722 1.0972-1.1623 0-2.2385-.1045-3.2478-.2896A11 11 0 0 0 12 23c6.0748 0 11-4.9252 11-11a11 11 0 0 0-.716-3.9013 3.12 3.12 0 0 1-.7626.7058h-4.0067l1.3062-2.5923a275 275 0 0 0-2.4594.0046"/></svg>