<svg xmlns="http://www.w3.org/2000/svg" viewBox="0 0 24 24"><path fill="#44739e" d="M3.689 19.757c-.023 0-.045.015-.045.033a.275.275 0 0 0 .045.105c.036.055.046.05.046-.037 0-.055-.019-.101-.046-.101m.543-.456c-.028 0-.028.027.01.068s.068.06.077.051c.023-.032-.036-.119-.087-.119m-2.781-.032c-.174.261-.174.261.036.11.119-.082.137-.119.087-.156s-.073-.032-.123.046m1.708-.036c-.037.15-.009.174.095.095a.12.12 0 0 0 .055-.137c-.04-.109-.118-.086-.15.042m.21-.215c0 .054.155.192.22.192.087 0 .063-.083-.047-.155s-.173-.092-.173-.037m-1.133-.393c.023.146.128.16.128.018 0-.077-.022-.118-.073-.118s-.064.032-.055.1m1.521-.425-.045.11a.466.466 0 0 1-.27.183c-.241.087-.32.064-.37-.11-.018-.045-.045-.087-.068-.087s-.019.055.008.119a.176.176 0 0 1 0 .201.235.235 0 0 0-.027.16c.027.064.037.064.087-.009s.059-.069.11.023c.078.146.142.123.142-.055 0-.142.013-.155.22-.21.26-.073.279-.087.241-.22Zm-1.621.083a.33.33 0 0 0 .045.15c.036.055.046.041.046-.055 0-.068-.018-.136-.046-.15s-.045.01-.045.055m1.01-.087a.06.06 0 0 0 0-.119c-.028-.009-.051.019-.051.06s.023.068.051.059m-.439-.401c-.019-.074-.051-.138-.078-.138s-.032.051-.013.123c.04.183.15.33.237.33.064 0 .064-.013-.019-.091a.49.49 0 0 1-.127-.224m.982 0c.023 0 .064-.042.091-.092.051-.091.027-.11-.077-.059-.069.027-.078.151-.014.151m-.585-1.343c.023-.119-.022-.161-.077-.074a.14.14 0 0 0 .013.119c.036.064.046.055.064-.045m1.174-.854c-.059.05-.091.11-.072.123s.077-.009.131-.064c.128-.128.083-.174-.059-.059m18.304-9.407-.119-.179h-.814l-.044-.205a6.4 6.4 0 0 1 .051-1.301l.096-1.1-.123-.127a.44.44 0 0 1-.125-.248 4.2 4.2 0 0 1 .22-.793c.032-.087-.242-.083-.398 0-.174.1-.26.091-.164-.019.064-.068.073-.132.05-.291-.037-.234.027-.312.156-.197a.209.209 0 0 0 .297.013c.077-.054.077-.081.032-.228s-.07-.169-.248-.169-.182.009-.11.059.05.068-.128.151c-.128.059-.206.078-.22.046s-.068 0-.138.055c-.1.096-.118.1-.155.032a.096.096 0 0 0-.123-.042c-.064.023-.078.064-.055.161.014.072 0 .132-.017.132s-.047-.068-.055-.151c-.015-.132-.028-.146-.142-.132-.083.009-.119 0-.101-.033s0-.049-.041-.049-.073.013-.073.036-.082.032-.183.032a1 1 0 0 1-.183-.009 1.2 1.2 0 0 1 .151-.091l.146-.078-.136-.032-.138-.028.151-.036c.178-.041.192-.11.019-.11-.151 0-.238.074-.238.206s-.11.22-.33.31a.55.55 0 0 0-.22.165c-.055.11-.22.127-.255.027a.118.118 0 0 0-.091-.069c-.038 0-.065-.045-.06-.11s.009-.078.027-.032c.055.136.243.191.243.068a.066.066 0 0 0-.065-.068c-.036 0-.073-.046-.081-.11-.019-.136-.142-.127-.174.014a.25.25 0 0 1-.128.16.22.22 0 0 0-.118.11c-.01.036-.019-.041-.023-.174 0-.191.008-.237.072-.237a.85.85 0 0 0 .229-.055c.164-.06.205-.173.064-.173-.055 0-.096-.042-.11-.11s-.06-.11-.11-.11a.135.135 0 0 0-.082.22c.037.037.037.065 0 .11s-.059 0-.081-.142-.046-.191-.11-.174a.102.102 0 0 1-.123-.045c-.032-.055-.046-.055-.097 0a.122.122 0 0 1-.123.041c-.1-.036-.388.027-.356.087.018.027 0 .037-.069.014s-.095-.01-.095.045.036.074.174.06c.104-.009.163-.037.159-.073-.014-.064.059-.074.1-.009a.17.17 0 0 0 .123.045c.065 0 .083.023.065.074s0 .068.087.054c.064-.013.11-.018.11-.009a1.1 1.1 0 0 1-.146.151c-.132.127-.155.133-.205.068s-.065-.064-.156.023c-.119.11-.128.11-.22.055-.041-.028-.051-.083-.032-.16.023-.096.009-.124-.082-.146-.073-.018-.11-.05-.087-.091.036-.097-.064-.078-.132.022-.06.082-.074.082-.699 0a24.85 24.85 0 0 0-3.724-.091 7.466 7.466 0 0 0-5.744 3.666 3.03 3.03 0 0 0-.574 1.26v.21l-.308-.028c-.827-.068-1.621-.11-1.662-.091a.132.132 0 0 0-.041.096.063.063 0 0 1-.064.064.196.196 0 0 0-.119.069c-.092.11.022.205.251.205h.197l.022 1.082a5.51 5.51 0 0 0 .33 2.206 7.206 7.206 0 0 0 2.969 3.494 2.55 2.55 0 0 0 1.05.479 44.3 44.3 0 0 1 4.294 1.356c.937.379 1.512.74 1.649 1.046.073.146.068.15-.059.265a3 3 0 0 1-.91.47 12.32 12.32 0 0 1-2.987 0 23.42 23.42 0 0 1-4.901-1.671 3.67 3.67 0 0 0-.731-.275c-.151 0-.151.014.041.566.142.43.137.55-.037.699l-.136.119.136.096c.078.05.138.11.138.142s-.06.21-.128.411c-.096.283-.137.361-.201.351-.046-.009-.078.014-.078.055s-.045.073-.1.087c-.092.013-.087.023.04.055s.147.059.142.132a.7.7 0 0 0 .051.228c.064.155.045.178-.133.178-.073 0-.123.019-.11.041a.128.128 0 0 0 .091.036.067.067 0 0 1 .064.07.081.081 0 0 0 .087.068c.136 0 .278.22.278.415v.17l-.146-.069c-.196-.096-.315-.201-.283-.251s-.174-.22-.293-.22a.44.44 0 0 1-.237-.138.407.407 0 0 0-.238-.137c-.091 0-.078.027.124.206.127.11.22.228.22.26s.164.183.379.33c.252.174.366.279.315.288s-.063.032-.018.083c.069.081.023.081-.11 0a1.16 1.16 0 0 0-.33-.092l-.222-.022.205.11c.55.288.558.293.471.343s-.074.06-.023.141.045.11 0 .165c-.087.11-.178.073-.371-.119a.88.88 0 0 0-.219-.182c-.019 0-.069-.046-.11-.1s-.087-.083-.11-.065.082.142.228.269a1.32 1.32 0 0 1 .26.288c0 .032.042.064.091.078a.122.122 0 0 1 .092.119 1.58 1.58 0 0 0 .379.475 2.52 2.52 0 0 0 .879.635 17.45 17.45 0 0 0 4.549 1.353l1.074.229h3.886l.653-.292q4.918-2.213 5.197-5.037c.032-.288.032-.288-.086-.288a.21.21 0 0 1-.142-.036 1.28 1.28 0 0 1 .118-.352 1.166 1.166 0 0 0 .11-.77 7.76 7.76 0 0 0-.329-1.716 8.06 8.06 0 0 0-.923-1.781 10.82 10.82 0 0 0-3.001-2.658 4.49 4.49 0 0 0-1.809-.744 18.03 18.03 0 0 1-3.765-1.12c-1.255-.607-1.068-1.082.59-1.497l.644-.16.566.11a23.75 23.75 0 0 1 3.467.894 15.6 15.6 0 0 1 2.029.932c.201.124.493.187.493.101s.275-2.083.288-2.09.33.013.721.051.956.081 1.257.096l.558.031.031-.146a.387.387 0 0 0-.083-.337M9.308 17.566c0 .023-.055.046-.119.046s-.11.018-.087.045.009.046-.014.046c-.064 0-.151-.118-.11-.15.042-.051.33-.038.33.013m0 2.283c0 .082-.015.086-.092.046a.342.342 0 0 1-.156-.342c.042-.11.101-.083.178.068a.63.63 0 0 1 .07.228m-2.006 1.142a.051.051 0 0 1-.051-.046c0-.028.01-.045.019-.045s.036.017.051.045.004.046-.019.046m-.269-.511c-.078-.065.013-.174.146-.17.05 0 .068.014.041.028-.096.036-.069.091.054.123.064.019.11.051.11.078.005.054-.26.009-.351-.059m.388-.22a.213.213 0 0 0-.132-.05c-.051 0-.083-.032-.083-.091 0-.082 0-.087.206-.01.11.042.206.091.206.11 0 .073-.142.1-.197.045Zm1.242.36c-.078 0-.087.015-.046.065.059.073-.009.146-.086.096a.186.186 0 0 1-.014-.22c.046-.049.242-.036.242.014 0 .028-.045.05-.096.05Zm.046-2.639a.121.121 0 0 1-.027-.123c.045-.11.077-.087.077.051 0 .1-.013.118-.05.081Zm.342 2.932c-.169-.077-.296-.251-.187-.251a.264.264 0 0 0 .147-.091c.11-.119.118-.11.068.023s.055.265.237.242c.1-.019.128 0 .119.051-.019.113-.197.122-.384.035Zm.577-1.963c-.023.013-.047-.014-.047-.064s.024-.096.047-.096.045.027.045.063a.119.119 0 0 1-.045.106Zm.269 1.1c-.074.086-.133.077-.133-.019 0-.119.051-.155.123-.096.046.051.046.079.01.125Zm.511.42c-.05.081-.305-.151-.347-.325-.032-.118-.028-.123.091-.078.064.023.161.069.21.092a.23.23 0 0 1 .046.321Zm7.579-18.44a.049.049 0 0 1-.047-.045.046.046 0 0 1 .047-.047.043.043 0 0 1 .045.047.045.045 0 0 1-.045.055Zm1.616-.092c-.064 0-.1-.018-.087-.046s.078-.045.142-.045.101.019.087.045a.198.198 0 0 1-.142.056Zm.636.051c-.074.091-.339.11-.307.022a.151.151 0 0 0-.045-.132.198.198 0 0 1-.068-.132q0-.069.026 0c.018.046.069.06.129.06a.12.12 0 0 1 .127.091c.019.069.046.082.11.059s.075-.013.028.041Zm.227.33c0-.059.033-.087.129-.091s.136 0 .123.068c-.023.119-.242.142-.252.032Zm.352.1a.098.098 0 0 1-.045-.073.045.045 0 0 1 .045-.041c.028 0 .046.032.046.073s-.018.06-.046.05Zm.229-.44c0-.119.013-.132.064-.091a.152.152 0 0 1 .041.142c-.037.152-.105.115-.105-.041Zm-.946-.077a.12.12 0 0 0-.127-.091c-.06 0-.119-.026-.129-.059s-.026-.041-.026 0a.198.198 0 0 0 .068.132.151.151 0 0 1 .045.131c-.032.093.233.07.307-.022.045-.055.04-.063-.028-.037s-.091.015-.11-.054m-.443-.045c-.064 0-.128.019-.142.045s.023.046.087.046a.198.198 0 0 0 .142-.046c.014-.026-.023-.045-.087-.045m-1.718.141a.049.049 0 0 0 .047.045.045.045 0 0 0 .045-.045.043.043 0 0 0-.045-.046.046.046 0 0 0-.047.046m-7.788 18.079c-.119-.045-.123-.04-.091.078.042.174.297.406.347.325a.23.23 0 0 0-.046-.311c-.049-.028-.146-.069-.21-.092M20.595 2.236c-.096 0-.133.032-.129.092.01.11.229.087.252-.023.013-.064-.014-.078-.123-.069m.178.119a.098.098 0 0 0 .045.073c.028.014.046 0 .046-.041s-.018-.074-.046-.074a.045.045 0 0 0-.045.042m.379-.315a.152.152 0 0 0-.041-.142c-.051-.041-.064-.028-.064.091 0 .156.068.193.105.051M8.682 17.867a.121.121 0 0 0 .027.123c.037.037.05.019.05-.072 0-.138-.032-.161-.077-.051m-1.431 3.078a.051.051 0 0 0 .051.046c.023 0 .032-.023.019-.046s-.038-.045-.051-.045-.019.017-.019.045m.023-.484c-.123-.032-.15-.087-.054-.123.027-.014.009-.028-.041-.028-.133 0-.22.11-.146.17s.356.11.356.059c0-.027-.051-.059-.115-.078m1.786-.908a.342.342 0 0 0 .156.342c.077.04.092.036.092-.046a.63.63 0 0 0-.07-.228c-.077-.151-.136-.174-.178-.068m.028-1.85c.023 0 .027-.023.014-.046s.023-.045.087-.045.119-.023.119-.046c0-.051-.288-.064-.33-.013-.041.032.046.15.11.15m-.568 2.863a.186.186 0 0 0 .015.219c.077.05.145-.023.085-.095-.04-.051-.032-.065.047-.065.05 0 .095-.022.095-.045-.003-.051-.199-.064-.242-.014m1.061-1.671c0 .05.024.077.047.064a.119.119 0 0 0 .045-.097c0-.036-.019-.064-.045-.064s-.047.042-.047.097m-.265 1.95c-.182.023-.296-.091-.237-.242s.041-.142-.068-.023a.264.264 0 0 1-.147.091c-.109 0 .018.174.187.251.187.087.365.078.384-.027.009-.055-.019-.069-.119-.05m-2.11-.722c0 .06.032.092.083.092a.213.213 0 0 1 .132.049c.055.055.197.028.197-.04 0-.019-.092-.069-.206-.11-.201-.077-.206-.073-.206.009m2.558-.082c0 .096.059.104.133.019.036-.046.036-.074-.01-.11-.072-.064-.123-.029-.123.091"/></svg>