<svg xmlns="http://www.w3.org/2000/svg" fill="#44739e" viewBox="0 0 24 24"><path d="M25.512 22.4448c-.775 2.226-2.367 3.686-3.555 3.261-1.187-.424-1.521-2.573-.745-4.797.776-2.226 2.367-3.686 3.555-3.262 1.187.425 1.521 2.572.745 4.798m.748-6.362L15 12.2608v-1.885c2.255-.064 4.45-.342 6.162-.835 1.62-.469 2.538-1.05 2.776-1.65.044-.1.062-.206.062-.312v-.764a.79.79 0 0 0-.062-.312c-.244-.625-1.238-1.226-2.956-1.701-3.882-1.069-10.094-1.069-13.969 0-1.719.475-2.706 1.076-2.95 1.701a.79.79 0 0 0-.063.312v.764c0 .106.019.212.063.312.237.6 1.156 1.181 2.781 1.65 1.712.493 3.903.77 6.156.834v1.906c-1.188.605-2.508 2.142-3.272 4.055-1.115 2.79-.928 5.482.42 6.013l11.914 5.544c1.774.622 4.153-1.517 5.313-4.779 1.159-3.262.66-6.409-1.115-7.031"/></svg>