<svg xmlns="http://www.w3.org/2000/svg" viewBox="0 0 24 24"><path fill="#44739e" d="M20.719 17.907c-.71 2.041-2.17 3.379-3.258 2.99-1.089-.389-1.395-2.359-.683-4.398.711-2.04 2.169-3.378 3.258-2.99 1.088.39 1.395 2.358.683 4.398m.686-5.831L11.083 8.572V6.844c2.067-.058 4.079-.313 5.649-.765 1.485-.43 2.326-.963 2.544-1.513.041-.091.057-.188.057-.286v-.7a.72.72 0 0 0-.057-.286c-.223-.573-1.134-1.124-2.709-1.559-3.559-.98-9.253-.98-12.805 0-1.576.435-2.48.986-2.704 1.559A.72.72 0 0 0 1 3.58v.7c0 .098.018.195.058.286.217.55 1.06 1.083 2.549 1.513 1.569.452 3.578.706 5.643.764v1.748c-1.089.554-2.299 1.963-2.999 3.717-1.022 2.557-.851 5.025.385 5.511l10.921 5.082c1.626.571 3.807-1.39 4.87-4.38 1.062-2.99.605-5.875-1.022-6.445"/></svg>