<svg xmlns="http://www.w3.org/2000/svg" viewBox="0 0 24 24"><path fill="#44739e" d="M12.417 13.988a1.089 1.089 0 1 0 1.089-1.089 1.09 1.09 0 0 0-1.089 1.089m2.002 0a.913.913 0 1 1-.913-.913.914.914 0 0 1 .909.913Zm-1.41-1.559a1.614 1.614 0 0 0 .234 3.211 1.7 1.7 0 0 0 .235-.017 1.615 1.615 0 1 0-.469-3.19Zm.234 2.97a1.372 1.372 0 0 1-.199-2.729 1.3 1.3 0 0 1 .199-.014 1.372 1.372 0 0 1 .199 2.729 1.3 1.3 0 0 1-.199.013Zm4.966 1.138a3.76 3.76 0 0 0-1.676-.807c-.057-.011-.086.011-.086.07v.033a.366.366 0 0 1-.316.344h-.418a.55.55 0 0 1-.537-.757c1.511-5.39-.178-8.723-2.31-10.588-.579-.506-.631-.535-1.21-.513a7.6 7.6 0 0 0-1.439.183c-.088.022-.162.092-.046.189a10.07 10.07 0 0 1 3.256 4.983c.024.086-.026.079-.092.083a1.1 1.1 0 0 1-1.034-.589 15.1 15.1 0 0 0-4.2-3.547c-.119-.071-.139-.071-.229-.018A6.64 6.64 0 0 0 6.478 6.72c-.08.086-.06.126.028.172a13.98 13.98 0 0 1 4.241 3.645c.095.119.102.174.049.207a1.299 1.299 0 0 1-1.32-.161A17.03 17.03 0 0 0 5.395 8.7c-.123-.035-.145-.028-.196.077a8.34 8.34 0 0 0-.699 2.026c-.013.088-.022.095.059.11 3.177.645 4.919 2.387 5.117 4.717a.679.679 0 0 1-.88.649c-.493-.156-.972-.33-1.467-.489a.46.46 0 0 0-.163-.024H5.12c-.09 0-.145.057-.055.172a13.86 13.86 0 0 1 1.179 1.632.156.156 0 0 0 .154.088h.757a.5.5 0 0 0 .273-.075c.273-.16.55-.31.818-.47a.49.49 0 0 1 .262-.082h7.618a.371.371 0 0 1 .321.343v.055c0 .06.029.082.086.071a3.87 3.87 0 0 0 1.676-.852q.066-.054 0-.111m-3.67-1.546a1.606 1.606 0 0 1-1.061.632 1.7 1.7 0 0 1-.235.017 1.615 1.615 0 1 1 1.296-.649m4.425 1.305-.03-.031h-.01a4.72 4.72 0 0 0-2.469-1.21.316.316 0 0 0-.36.26.22.22 0 0 0 0 .051v.33c0 .052-.041.11-.077.11h-.22a.139.139 0 0 1-.118-.058.41.41 0 0 1-.041-.323 14.96 14.96 0 0 0 .679-4.046 8.93 8.93 0 0 0-.45-3.08l-.023-.063a8.25 8.25 0 0 0-2.7-4.034.79.79 0 0 0-.499-.22 7.4 7.4 0 0 0-.55-.02 8.18 8.18 0 0 0-2.336.341c-.191.058-.25.161-.265.237a.355.355 0 0 0 .147.33 11.07 11.07 0 0 1 2.291 2.56 1.373 1.373 0 0 1-.798-.44 13.1 13.1 0 0 0-2.64-1.925.486.486 0 0 0-.489-.027 7.39 7.39 0 0 0-2.067 1.735.274.274 0 0 0-.077.232.307.307 0 0 0 .176.21 14.96 14.96 0 0 1 2.767 1.946 1.166 1.166 0 0 1-.818-.204 11.55 11.55 0 0 0-2.53-.956.427.427 0 0 0-.489.18 7.67 7.67 0 0 0-.894 2.629.417.417 0 0 0 .351.477c1.07.187 4.327.758 4.828 4.218a.279.279 0 0 1-.103.266.306.306 0 0 1-.321.008l-.718-.336-.717-.337a.48.48 0 0 0-.206-.054H4.924a.429.429 0 0 0-.41.24.44.44 0 0 0 .091.47 13.97 13.97 0 0 1 1.457 2.001.255.255 0 0 0 .24.136h.99a.44.44 0 0 0 .233-.064l.464-.273.467-.273a.22.22 0 0 1 .119-.019h7.441c.013 0 .082 0 .082.066v.365a.316.316 0 0 0 .316.315.3.3 0 0 0 .049 0 4.71 4.71 0 0 0 2.488-1.222.35.35 0 0 0 .017-.494Zm-.154.35a4.51 4.51 0 0 1-2.381 1.171.119.119 0 0 1-.097-.028.11.11 0 0 1-.041-.088v-.365a.266.266 0 0 0-.279-.264H8.561a.374.374 0 0 0-.211.047l-.466.272-.466.274a.23.23 0 0 1-.131.036h-.99a.063.063 0 0 1-.069-.04 14.13 14.13 0 0 0-1.474-2.031.244.244 0 0 1-.059-.259.239.239 0 0 1 .229-.123h2.258a.3.3 0 0 1 .121.035l.718.337.718.337a.499.499 0 0 0 .522-.03.473.473 0 0 0 .181-.453 4.593 4.593 0 0 0-2.077-3.342 7.81 7.81 0 0 0-2.912-1.043.22.22 0 0 1-.19-.252 7.48 7.48 0 0 1 .87-2.559.234.234 0 0 1 .268-.088 11.33 11.33 0 0 1 2.491.94c.55.286.902.324 1.142.122l.087-.073-.085-.074a15.1 15.1 0 0 0-2.905-2.063c-.051-.028-.071-.055-.075-.072s.019-.052.032-.067a7.23 7.23 0 0 1 2.025-1.682.28.28 0 0 1 .294.029 12.9 12.9 0 0 1 2.598 1.895 1.43 1.43 0 0 0 1.119.491l.152-.015-.077-.133A10.98 10.98 0 0 0 9.78 4.73a.185.185 0 0 1-.083-.143c.007-.035.054-.066.129-.09a8.02 8.02 0 0 1 2.279-.329c.178 0 .33 0 .531.019a.585.585 0 0 1 .382.164 7.98 7.98 0 0 1 2.64 3.952l.024.07a8.65 8.65 0 0 1 .44 3.022 14.8 14.8 0 0 1-.672 3.993.605.605 0 0 0 .073.493.337.337 0 0 0 .272.137h.22a.304.304 0 0 0 .275-.31v-.353a.119.119 0 0 1 .135-.099 4.516 4.516 0 0 1 2.389 1.17l.019.016a.157.157 0 0 1 .031.098.15.15 0 0 1-.05.106Zm-.301-11.159A9.209 9.209 0 1 0 21.206 12a9.15 9.15 0 0 0-2.697-6.513m-6.514 15.435a8.923 8.923 0 1 1 6.311-2.614 8.865 8.865 0 0 1-6.311 2.614m7.737-16.713a10.905 10.905 0 0 0-7.737-3.188h-.041A10.98 10.98 0 0 0 4.255 19.79a10.897 10.897 0 0 0 7.732 3.19h.041a10.981 10.981 0 0 0 7.699-18.771Zm-7.737 17.458A9.671 9.671 0 0 1 5.157 5.159a9.671 9.671 0 0 1 13.676 13.676 9.6 9.6 0 0 1-6.838 2.832m7.751-17.476a10.999 10.999 0 1 0-7.751 18.808h.041a10.999 10.999 0 0 0 7.71-18.808M11.995 22.98a10.981 10.981 0 0 1-7.79-18.718 10.91 10.91 0 0 1 7.752-3.241h.038a10.98 10.98 0 0 1 .034 21.959Z"/></svg>