<svg xmlns="http://www.w3.org/2000/svg" viewBox="0 0 24 24"><path fill="#44739e" d="M9.564 12.68c-.041-.157-.127-.254-.417-.463-.11-.078-.231-.17-.271-.205a.9.9 0 0 0-.082-.063.21.21 0 0 0-.005.068 2.1 2.1 0 0 0 .2.931.605.605 0 0 0 .201.21c.238.112.456-.169.374-.478m3.756-1.803a.418.418 0 0 0-.185.22 1.87 1.87 0 0 0-.155.803 2.21 2.21 0 0 0 .163 1.014c.092.189.234.275.366.22a.616.616 0 0 0 .249-.346 2.603 2.603 0 0 0 .037-1.458c-.097-.388-.272-.553-.475-.453m-10.45.957a2.28 2.28 0 0 0-.652-.171c-.194-.036-.375-.075-.401-.087-.171-.074-.124-.22.084-.266a3.4 3.4 0 0 1 .627 0 .98.98 0 0 0 .33 0 .362.362 0 0 0 .277-.357.66.66 0 0 0-.01-.241 3.4 3.4 0 0 0-.514-.058 6.2 6.2 0 0 0-.687 0 .906.906 0 0 0-.907.66.751.751 0 0 0 .55.888c.049.015.243.058.434.094s.365.072.389.079c.199.053.249.205.094.29-.09.048-.198.055-.55.034a2.3 2.3 0 0 0-.612 0 .353.353 0 0 0-.231.252.94.94 0 0 0-.008.346.29.29 0 0 0 .099.024 7.04 7.04 0 0 0 1.26.027c.528-.071.819-.33.852-.77a.736.736 0 0 0-.424-.744m19.739 1.325h-.39v-.88h.561l-.002-.273-.004-.272-.277-.003-.278-.002v-.803h.748v-.517h-1.342v3.267H23v-.517ZM7.958 10.672a.614.614 0 0 0-.358.292c-.019.037-.139.313-.266.615s-.237.55-.241.565.045.11-.474-.74c-.238-.387-.44-.71-.446-.718a1.045 1.045 0 0 0-.44-.045.792.792 0 0 0-.44.199c-.104.089-1.005 1.078-1.001 1.1s.167.274.366.587c.404.638.452.701.589.77a.71.71 0 0 0 .394.07 1.03 1.03 0 0 0 .33-.057c.013 0 .024-.014.024-.019s-.19-.298-.425-.649-.421-.643-.419-.654.138-.152.299-.324c.24-.254.297-.308.308-.296s.99 1.54.99 1.551-.134.293-.297.638-.299.633-.3.639.143.064.26.077a.515.515 0 0 0 .539-.22c.021-.032.368-.794.77-1.695.564-1.259.73-1.639.719-1.65a1 1 0 0 0-.103-.033.88.88 0 0 0-.378-.003m12.602-.263-.006.03c0 .017-.064.377-.134.8s-.13.779-.135.79-.063-.33-.133-.786-.128-.813-.131-.821a1.87 1.87 0 0 0-.405-.013h-.4v3.267h.44V12.48c0-.66 0-1.191.008-1.187s.096.54.206 1.193l.2 1.184h.166c.15 0 .166 0 .17-.016s.091-.534.197-1.162l.197-1.139v2.323h.544V10.42h-.392Zm-4.221.005-.101.792c-.137 1.082-.138 1.09-.142 1.078s-.058-.412-.125-.902-.123-.909-.128-.932l-.006-.041h-.269a.89.89 0 0 0-.274.013c0 .008-.065.428-.137.933s-.135.93-.14.946l-.006.027-.009-.033c0-.018-.052-.429-.104-.913s-.098-.901-.101-.927l-.006-.046h-.536v.028c0 .025.406 3.08.424 3.197l.007.042h.526s.287-2.012.292-2.043l.008-.038.009.038c0 .021.069.484.142 1.029s.134.996.137 1.003.069.014.273.014h.269l.005-.036c0-.019.083-.638.175-1.374l.169-1.34h.501v2.75h.594v-2.75h.539v2.75h.616v-3.267h-1.3ZM3.923 9.727a.44.44 0 0 0-.317.177c-.076.115-.076.005-.076 1.82v1.631l.092.007a1.36 1.36 0 0 0 .407-.038.3.3 0 0 0 .129-.074c.101-.094.092.074.095-1.83a13.1 13.1 0 0 0-.016-1.688 1.4 1.4 0 0 0-.314-.005m8.817 3.639a2.25 2.25 0 0 1-.33-1.237 2.262 2.262 0 0 1 .464-1.65.704.704 0 0 1 .301-.176c.025 0 .046-.01.046-.014a.9.9 0 0 0-.085-.096 2.522 2.522 0 0 0-1.43-.714 3.3 3.3 0 0 0-.669-.011 2.59 2.59 0 0 0-1.377.602 1.05 1.05 0 0 0-.22.22c0 .006.02.013.045.018a.78.78 0 0 1 .267.138 1.03 1.03 0 0 1 .267.755l.007.135h-.533v-.075a.95.95 0 0 0-.039-.263.288.288 0 0 0-.134-.165.33.33 0 0 0-.193 0 .374.374 0 0 0-.153.381c.039.211.142.33.508.596a1.485 1.485 0 0 1 .539.565.924.924 0 0 1 .11.451.72.72 0 0 1-.018.258.792.792 0 0 1-.593.613.136.136 0 0 0-.062.015 1.87 1.87 0 0 0 .286.277 2.556 2.556 0 0 0 3.179 0 2.3 2.3 0 0 0 .28-.259.19.19 0 0 0-.064-.032.87.87 0 0 1-.399-.332m-.585-1.329v1.672h-.583v-1.452h-.633v1.446h-.572v-3.344h.572v1.353h.638v-1.353h.583Z"/></svg>