<svg xmlns="http://www.w3.org/2000/svg" fill="#44739e" viewBox="0 0 24 24"><path d="M21.7897 8.5447h-.0109a2.0784 2.0758 0 0 0-.7888-.1832 1.4464 1.4446 0 0 0-1.1565.4363 2.1287 2.126 0 0 0-.4082.6558s-.5778 1.3678-.634 1.4978l.008-.0128-.6074 1.418-.771-1.2496.0305.0295-1.689-2.711v-.0069a3.6481 3.6435 0 0 0-.8055-.1201 2.245 2.2422 0 0 0-1.8438.8508l-2.3585 2.5741 1.895 2.9808a1.6762 1.674 0 0 0 1.5648.8193 2.8012 2.7976 0 0 0 1.0846-.2029l-2.2865-3.4327.6685-.707.0365-.0355.913-.969 2.6523 4.1634-1.6062 3.3994a2.3072 2.3043 0 0 0 .9052.1969h.06a1.3005 1.2989 0 0 0 1.3253-.8941l3.093-6.8814a1 1 0 0 0 .0335-.0531l.696-1.5638zm-8.1511 2.4884a1.053 1.0517 0 0 1-.5916.3043l-1.893.2649c-.0237 0-.0474.0059-.071.0079l2.169-2.3703a2.0942 2.0916 0 0 1 1.7236-.8045 3.378 3.3737 0 0 1 .7138.0985l1.3962 2.2491a.8124.8114 0 0 0-.1765 0l-1.1832.1645a.4664.4658 0 0 1-.4604-.1232l-.5798-.906Zm7.3445-1.0074a.5344.5337 0 0 1-.3618.254l-1.3873.197h-.0079a1 1 0 0 0-.075.0178l.0987-.2383.3194-.7553a1.3607 1.359 0 0 1 1.3715-1.0035h.0543a1.9532 1.9508 0 0 1 .6123.1202zm-12.932 2.579a1.9434 1.941 0 0 0-1.0343-1.1324L7 11.4663l-.0601-.0285a3.5712 3.5667 0 0 0-.8559-.262l-1.4-.2599a1.9572 1.9547 0 0 1-.5128-.1418.3264.326 0 0 1-.2208-.2954c0-.258.2958-.4362 1.0086-.4362.7129 0 1.3232.0718 1.7215.0718.5206 0 1.057-.2186 1.057-1.2368a2.0163 2.0138 0 0 0-.0414-.3939h-.006a19.4366 19.412 0 0 0-2.308-.1595 8.9123 8.901 0 0 0-1.0137.0374c-1.5233.1723-2.2983 1.0832-2.2983 2.1783a2.0844 2.0817 0 0 0 1.8734 1.9812l1.479.2895c.5403.1064.8153.2265.8153.521 0 .2245-.207.4579-.905.4579-.6272 0-1.479-.0985-2.0135-.0985s-1.0668.2235-1.0668 1.2437a2.3663 2.3634 0 0 0 .0464.4077 18.5798 18.5563 0 0 0 3.5268.1083c1.5638-.1733 2.317-1.0172 2.317-2.189a2.0893 2.0867 0 0 0-.1124-.6894ZM4.674 11.044l1.401.261a2.4718 2.4687 0 0 1 1.615.8774 1.5283 1.5263 0 0 0-.563-.0207l-1.5775.2216a5.063 5.0566 0 0 1-2.387-.33h-.006a1.4839 1.482 0 0 1-.1547-.0984l-.0375-.0266h-.007a1.7511 1.7489 0 0 1-.7157-1.3934c0-1.1039.8311-1.8828 2.1691-2.0334a14.6014 14.583 0 0 1 3.1818.0984 1.7688 1.7666 0 0 1 .0197.2669c0 .9847-.5206 1.093-.912 1.093-.1657 0-.3708-.0137-.6084-.0285-.3283-.0207-.699-.0443-1.1132-.0443-.9534 0-1.1536.316-1.1536.581-.003.4293.5532.5248.849.576m5.5648-5.1649H10.16c-1.1743.0207-1.3853.6588-1.3853 1.2752v.0148l-.0129 4.4421v.902-.0167 2.9838a2.9658 2.962 0 0 0 .4388.0315c1.2167 0 1.4701-.3614 1.4701-.9848v-3.0142l.0079-.0325v-5.555a2.1218 2.1191 0 0 0-.286-.0393 2.7 2.7 0 0 0-.1537-.0069zM8.9256 7.1532c0-.5672.1597-1.1432 1.3084-1.1432a2.1692 2.1664 0 0 1 .3136.0226v5.416a.357.3565 0 0 1-.3274.2817l-.9939.1408a.6764.6755 0 0 0-.3086.1113z"/></svg>