<svg xmlns="http://www.w3.org/2000/svg" fill="#44739e" viewBox="0 0 24 24"><path d="M12.16 10.524c-.562 0-.667.114-1.127 1.218-.365.879-.362.873-.425.8-.044-.053-.872-1.382-1.132-1.817a.374.374 0 0 0-.251-.214 1.384 1.384 0 0 0-.7.014 1.6 1.6 0 0 0-.3.136 16.7 16.7 0 0 0-1.5 1.6c-.031.068-.023.121.037.239.112.217.927 1.487 1.026 1.6a1.04 1.04 0 0 0 .723.274.97.97 0 0 0 .561-.116 17 17 0 0 0-1.045-1.634.4.4 0 0 1-.091-.176 4.3 4.3 0 0 1 .815-.873 21.1 21.1 0 0 1 1.352 2.164 7.2 7.2 0 0 1-.388.909c-.211.449-.385.839-.385.867 0 .119.444.2.713.135.3-.075.391-.205.784-1.083.422-.945 1.273-2.831 1.412-3.129.315-.679.349-.779.283-.846-.043-.05-.143-.068-.362-.068m-4.481 2.075a4.1 4.1 0 0 1-.432.031c-.156 0-.215 0-.264-.043a.3.3 0 0 1-.054-.057.45.45 0 0 1-.072-.121c-.009-.028-.006-.047.014-.047a.165.165 0 0 1 .069.061.1.1 0 0 0 .039.027c.046.03.131.038.345.033a1.5 1.5 0 0 1 .442.039l.113.048zm2.686-.1c-.007.006-.182.021-.388.033-.356.02-.38.016-.474-.071a.31.31 0 0 1-.1-.132c0-.03.01-.04.028-.035a.17.17 0 0 1 .071.053c.045.043.152.058.44.058a1.02 1.02 0 0 1 .407.041c.021.02.026.043.02.05zm1.337-.283c.007.005.008.029 0 .063a.239.239 0 0 1-.129.164.43.43 0 0 1-.083.019.5.5 0 0 1-.046.01h-.207c-.245 0-.323-.012-.31-.048s.132-.055.354-.068c.268-.015.346-.033.375-.087.021-.037.046-.068.055-.068zM6.1806 9.1772a.572.572 0 0 0-.432.309 11.96 11.96 0 0 0-.06 2.451 19 19 0 0 0 .042 2.359 1.09 1.09 0 0 0 .666-.017c.349-.119.331.036.331-2.667a13.63 13.63 0 0 0-.054-2.407.622.622 0 0 0-.493-.028m.341 3.41c-.077.076-.7.085-.672.009.01-.031.143-.062.35-.083a1.6 1.6 0 0 0 .283-.043.071.071 0 0 0 .057-.069v-.009c0-.022 0-.034.007-.029a.19.19 0 0 1 .014.058.21.21 0 0 1-.044.166zM3.862 11.988a4.3 4.3 0 0 1-.589-.138c-.158-.068-.166-.183-.021-.277.092-.06.19-.068.8-.059.81.011.9-.013 1.029-.277a.766.766 0 0 0 .031-.6 6.66 6.66 0 0 0-1.3-.119 4.3 4.3 0 0 0-.5.039 1.4 1.4 0 0 0-1.112.7.9.9 0 0 0-.1.49.672.672 0 0 0 .11.475c.25.394.508.53 1.283.675.3.055.594.119.657.141a.2.2 0 0 1 .142.244v.018c-.044.136-.241.164-.976.138-.62-.023-.7-.018-.823.045-.247.129-.409.643-.252.8a3.54 3.54 0 0 0 1.335.121 2.03 2.03 0 0 0 1.311-.257 1.113 1.113 0 0 0 .382-1.433c-.169-.385-.524-.568-1.407-.726m1.229.825a1.66 1.66 0 0 0-.349-.054 1.63 1.63 0 0 0-.356.021 5.5 5.5 0 0 1-.89-.017 2.09 2.09 0 0 1-.753-.193c-.007-.01 0-.014.022-.013a.28.28 0 0 1 .077.019 10.3 10.3 0 0 0 1.2.059l1.073.017.057.111.055.1v.006zm14.302-2.1035a2.263 2.263 0 0 0-1.33-.44 2.34 2.34 0 0 0-.478.049 2.2 2.2 0 0 0-1.506 1.183 2.076 2.076 0 0 0 .4 2.454 2.184 2.184 0 0 0 2.526.447c.33-.164.394-.211.394-.291a1.76 1.76 0 0 0-.283-.426 3.8 3.8 0 0 1-.308-.42c-.014-.037-.011-.058.006-.065.047-.02.212.078.479.287a1.84 1.84 0 0 0 .449.29c.055 0 .118-.07.212-.229a2.127 2.127 0 0 0-.563-2.838zm-1.394 1.578c-1.572.052-2.075.05-1.927-.017a.9.9 0 0 1 .1-.033 37 37 0 0 1 3.923-.086c.004.061-.17.072-2.096.136m4.0835-.5524v-2.41a.6.6 0 0 0-.577-.56h-6.888a.532.532 0 0 0-.54.524l.021 6.257a.532.532 0 0 0 .54.523h6.9a.531.531 0 0 0 .54-.524v-3.653l-.157.132c-.114.106-.14.112-.514.125-.317.01-.391 0-.377-.038s.108-.055.293-.061a.882.882 0 0 0 .759-.315m-7.143.607a.13.13 0 0 1-.067.015h-.016c-.06 0-.243.011-.406.025a1.7 1.7 0 0 1-.228.009c-.049 0-.072-.012-.072-.029 0-.039.042-.068.125-.088a1.8 1.8 0 0 1 .333-.029h.058c.177 0 .257.006.283.028a.032.032 0 0 1 .013.027.044.044 0 0 1-.023.041zm5.616 2.359a2.08 2.08 0 0 1 .277.418c-.033.1-.16.052-.442-.162a2.14 2.14 0 0 0-.474-.324h-.022c-.076-.009-.136.035-.27.121a3.35 3.35 0 0 1-1.054.429 3.71 3.71 0 0 1-1.4-.079 2.891 2.891 0 0 1-1.9-1.934 3.005 3.005 0 0 1 0-1.507 2.877 2.877 0 0 1 2.046-1.977 3.464 3.464 0 0 1 1.613.058 2.909 2.909 0 0 1 1.873 1.958 3.13 3.13 0 0 1 0 1.409 3.16 3.16 0 0 1-.467.969.29.29 0 0 0-.072.153v.007a1.88 1.88 0 0 0 .292.46zM7.44 12.531c-.214 0-.3 0-.345-.033a.1.1 0 0 1-.027-.023.165.165 0 0 0-.068-.061c-.02 0-.023.019-.014.047a.45.45 0 0 0 .072.121.3.3 0 0 0 .054.057c.049.038.108.043.264.043a4.1 4.1 0 0 0 .432-.031L8 12.62l-.121-.05a1.5 1.5 0 0 0-.439-.039"/></svg>