<svg xmlns="http://www.w3.org/2000/svg" viewBox="0 0 24 24"><path fill="#44739e" d="M22.646 9.339H9.876a.355.355 0 0 0-.354.355v4.612a.355.355 0 0 0 .354.355h12.77a.355.355 0 0 0 .354-.355V9.693a.356.356 0 0 0-.354-.354m-9.775 4.233a1.401 1.401 0 0 1-1.413-1.515 1.44 1.44 0 0 1 1.461-1.567 1.396 1.396 0 0 1 1.42 1.517 1.44 1.44 0 0 1-1.473 1.565Zm4.663-.066h-.537v-1.7c0-.474-.177-.871-.682-.871a.761.761 0 0 0-.719.549.75.75 0 0 0-.037.25v1.773h-.537v-2.151c0-.305 0-.555-.023-.799h.475l.031.488h.011a1.085 1.085 0 0 1 .974-.555c.409 0 1.044.244 1.044 1.256Zm3.246-1.377h-2.078a.947.947 0 0 0 1.013 1.024A1.92 1.92 0 0 0 20.53 13l.091.384a2.38 2.38 0 0 1-.98.183 1.368 1.368 0 0 1-1.449-1.486 1.428 1.428 0 0 1 1.381-1.591 1.249 1.249 0 0 1 1.219 1.39 2.2 2.2 0 0 1-.017.249Zm-7.878-1.237c-.633 0-.908.585-.908 1.146 0 .645.373 1.133.896 1.133s.896-.481.896-1.145c0-.5-.25-1.134-.884-1.134m6.63.008a.889.889 0 0 0-.823.872h1.566a.769.769 0 0 0-.743-.872m-16.97.935-.549-.102c-.177-.031-.288-.071-.288-.173s.11-.172.394-.172c.159 0 .307.008.432.016.093 0 .174.01.241.01.204 0 .412-.085.412-.482a.75.75 0 0 0-.013-.156 6.04 6.04 0 0 0-1.297-.044.872.872 0 0 0-.894.846.812.812 0 0 0 .735.769l.575.109c.213.045.32.089.32.205 0 .084-.085.176-.355.176-.129 0-.281-.009-.427-.018s-.262-.017-.361-.017c-.204 0-.417.089-.417.487a1 1 0 0 0 .019.16 7.2 7.2 0 0 0 1.376.044c.607-.067.904-.399.904-.854-.005-.392-.249-.711-.807-.804m5.202-.682-.482 1.133-.943-1.538a1.5 1.5 0 0 0-.319-.043.868.868 0 0 0-.712.329l-.922 1.001.739 1.16a.651.651 0 0 0 .608.319 1.09 1.09 0 0 0 .425-.08l-.891-1.325.629-.669 1.036 1.622-.628 1.327a.89.89 0 0 0 .353.076.512.512 0 0 0 .541-.35l1.485-3.316a.82.82 0 0 0-.311-.071.591.591 0 0 0-.608.425m-4.162-.89v3.241a1.14 1.14 0 0 0 .173.013c.478 0 .576-.141.576-.385V9.775a.84.84 0 0 0-.181-.017c-.484 0-.568.257-.568.505"/></svg>