<svg xmlns="http://www.w3.org/2000/svg" viewBox="0 0 24 24"><path fill="#44739e" d="m18.86 14.081-.623-.171c-.487-.14-.565-.302-.565-.468 0-.244.201-.433.755-.433a6.6 6.6 0 0 1 1.024.151c.176 0 .268-.151.213-.453a3.93 3.93 0 0 0-1.25-.214c-.925 0-1.333.454-1.333.976 0 .414.261.756.937.933l.604.164c.529.152.616.317.616.511 0 .275-.22.482-.811.482a6.6 6.6 0 0 1-1.127-.177c-.177 0-.27.159-.226.454a4.03 4.03 0 0 0 1.34.231c1.007 0 1.421-.48 1.421-1.017 0-.45-.281-.775-.975-.969m-2.847-1.347-.672 2.651-.792-2.597c-.061-.207-.182-.255-.408-.255a.77.77 0 0 0-.367.086l-.852 2.773-.702-2.658c-.043-.159-.128-.208-.293-.208a.92.92 0 0 0-.371.087l.975 3.376a1.7 1.7 0 0 0 .36.049.375.375 0 0 0 .414-.25l.816-2.59.872 2.791a1.63 1.63 0 0 0 .349.049c.22 0 .372-.049.425-.25l.916-3.175a.98.98 0 0 0-.379-.092.266.266 0 0 0-.291.213m-6.338-.237a1.793 1.793 0 0 0 .098 3.583 3.31 3.31 0 0 0 1.279-.287c.032-.316-.079-.453-.243-.453a.65.65 0 0 0-.198.049l-.076.024a2.22 2.22 0 0 1-.738.128 1.119 1.119 0 0 1-1.216-1.012v-.031h2.668a1.3 1.3 0 0 0 .014-.346 1.556 1.556 0 0 0-1.453-1.65 1 1 0 0 0-.135-.005m-1.1 1.547a1.111 1.111 0 0 1 1.115-1.047 1.005 1.005 0 0 1 1.013 1v.047Zm-2.6-1.547a1.441 1.441 0 0 0-1.139.55v-.293c0-.14-.079-.225-.316-.225a1.43 1.43 0 0 0-.276.029v3.463a1.17 1.17 0 0 0 .276.03c.237 0 .316-.09.316-.226v-2.201a1.235 1.235 0 0 1 1.001-.597c.51 0 .846.33.846 1.017v1.98a1.2 1.2 0 0 0 .274.031c.238 0 .316-.091.316-.225v-1.864c-.003-1.025-.59-1.469-1.298-1.469m9.461-3.648h-.063a.757.757 0 0 0-.757.759.6.6 0 0 0 0 .062.76.76 0 1 0 1.513 0 .762.762 0 0 0-.693-.821m-2.642.003h-.058a.793.793 0 0 0-.696.421v.801a.781.781 0 0 0 .696.421.761.761 0 0 0 .76-.763v-.059a.761.761 0 0 0-.697-.821Zm9.888-1.565H8.855a.316.316 0 0 0-.314.311v4.084a.315.315 0 0 0 .312.316h13.833a.316.316 0 0 0 .314-.313V7.598a.321.321 0 0 0-.318-.311m-12.386 3.537a2.7 2.7 0 0 1-.864-.151c-.028-.193.031-.294.145-.294a4.3 4.3 0 0 0 .728.11c.381 0 .522-.133.522-.309 0-.125-.055-.236-.397-.33l-.393-.11c-.44-.11-.607-.33-.607-.602 0-.33.264-.628.862-.628a2.54 2.54 0 0 1 .805.138c.036.188-.023.29-.138.29a4.3 4.3 0 0 0-.66-.098c-.354 0-.484.121-.484.279 0 .11.052.212.367.302l.401.11c.448.124.629.33.629.628 0 .354-.267.665-.916.665m3.583-1.153a1.081 1.081 0 0 1-1.003 1.153h-.065a.947.947 0 0 1-.77-.381v.934c0 .086-.051.144-.2.144a.63.63 0 0 1-.181-.02V8.56a.84.84 0 0 1 .181-.02c.149 0 .2.054.2.145v.211a.935.935 0 0 1 .77-.38 1.082 1.082 0 0 1 1.07 1.1c0 .014-.001.035-.002.055m1.551 1.155h-.059a1.155 1.155 0 1 1 1.146-1.165v.009a1.123 1.123 0 0 1-1.087 1.156m2.698-1.916a.794.794 0 0 0-.753.493v1.253c0 .094-.051.144-.205.144a.7.7 0 0 1-.177-.019V8.56a.96.96 0 0 1 .177-.02c.153 0 .205.054.205.145v.309a.94.94 0 0 1 .958-.44 1.1 1.1 0 0 1 .019.171c0 .152-.063.185-.224.185m1.242 1.915a.641.641 0 0 1-.702-.575.52.52 0 0 1 0-.116V8.223c0-.098.055-.16.205-.16a1 1 0 0 1 .177.023v.483h.87a1.2 1.2 0 0 1 .016.152c0 .134-.055.181-.137.181h-.738v1.21c0 .259.122.385.365.385a2.75 2.75 0 0 0 .452-.098c.11 0 .163.092.139.277a1.46 1.46 0 0 1-.647.149m1.808 0h-.005a2.65 2.65 0 0 1-.864-.151c-.027-.193.031-.294.146-.294a4.3 4.3 0 0 0 .726.11c.38 0 .522-.133.522-.309 0-.125-.055-.236-.397-.33l-.393-.11c-.44-.11-.605-.33-.605-.602 0-.33.263-.628.86-.628a2.53 2.53 0 0 1 .805.138c.036.188-.024.29-.138.29a4.3 4.3 0 0 0-.66-.098c-.353 0-.483.121-.483.279 0 .11.052.212.366.302l.401.11c.446.124.628.33.628.628.007.353-.261.66-.909.66ZM1.651 9.858l.512.098c.187.036.282.078.282.179 0 .078-.072.159-.312.159-.22 0-.511-.033-.698-.033s-.371.081-.371.434a.77.77 0 0 0 .016.141 6.6 6.6 0 0 0 1.222.037c.538-.058.803-.352.803-.757 0-.348-.22-.634-.717-.726l-.487-.09c-.156-.027-.254-.063-.254-.152s.103-.152.352-.152.459.026.596.026c.179 0 .366-.076.366-.429a.62.62 0 0 0-.014-.136 5.52 5.52 0 0 0-1.152-.037c-.527.058-.795.374-.795.751a.723.723 0 0 0 .651.687m2.331.693v-2.97a.77.77 0 0 0-.159-.017c-.427 0-.502.228-.502.447v2.875a1.2 1.2 0 0 0 .152.011c.424-.005.509-.131.509-.346m1.229.347a.99.99 0 0 0 .377-.071L4.797 9.64l.56-.593.923 1.439-.561 1.175a.77.77 0 0 0 .314.067.453.453 0 0 0 .48-.309l1.319-2.941a.74.74 0 0 0-.274-.063.525.525 0 0 0-.543.378l-.428 1.005-.839-1.359a1.23 1.23 0 0 0-.284-.04.77.77 0 0 0-.634.299l-.816.89.66 1.031a.584.584 0 0 0 .537.279m17.694 5.5a.22.22 0 0 1-.22.22H1.314a.22.22 0 0 1-.22-.22v-3.883a.308.308 0 0 1-.094-.22v4.103a.315.315 0 0 0 .314.315h21.372a.315.315 0 0 0 .314-.315v-4.107a.315.315 0 0 1-.095.22Z"/></svg>