<svg xmlns="http://www.w3.org/2000/svg" fill="#44739e" viewBox="0 0 24 24"><path d="M19.3 13.8172c-.112 0-.156.047-.156.124v1.456a.489.489 0 0 0 .537.528 1.14 1.14 0 0 0 .489-.115c.018-.142-.025-.211-.106-.212s-.177.077-.348.077c-.189 0-.279-.1-.279-.294v-.923H20c.062 0 .106-.036.106-.137a.85.85 0 0 0-.006-.111h-.663v-.369a.56.56 0 0 0-.137-.024m-1.944.358a.65.65 0 0 0-.134.015v1.7a.58.58 0 0 0 .134.015c.116 0 .156-.04.156-.109v-1.086a.606.606 0 0 1 .494-.294c.249 0 .416.162.416.5v.97a.58.58 0 0 0 .134.015c.116 0 .156-.04.156-.109v-.916a.633.633 0 0 0-.638-.724.711.711 0 0 0-.562.271v-.145c0-.059-.04-.103-.156-.103m-.497.808a.768.768 0 0 0-.784-.819.8823.8823 0 0 0 .047 1.764 1.59 1.59 0 0 0 .631-.141c.014-.156-.04-.224-.12-.224a.5.5 0 0 0-.134.036 1.08 1.08 0 0 1-.366.065.554.554 0 0 1-.6-.514h1.316c.005-.061.009-.123.01-.167m-1.328-.061a.551.551 0 0 1 .543-.518.5.5 0 0 1 .5.518zm-1.069.869.686-1.564a.45.45 0 0 0-.189-.047.146.146 0 0 0-.16.1l-.294.72-.246.6-.247-.6-.294-.72a.149.149 0 0 0-.163-.1.44.44 0 0 0-.193.047l.725 1.658a.86.86 0 0 0 .179.026c.116-.001.152-.026.196-.12m-1.197-.808a.767.767 0 0 0-.783-.819.8823.8823 0 0 0 .047 1.764 1.59 1.59 0 0 0 .631-.141c.014-.156-.04-.224-.12-.224a.5.5 0 0 0-.134.036 1.08 1.08 0 0 1-.367.065.554.554 0 0 1-.6-.514h1.32a1 1 0 0 0 .006-.167m-1.328-.061a.557.557 0 0 1 .544-.518.5.5 0 0 1 .5.518zm-2.678-.747a.64.64 0 0 0-.134.015v1.7a.58.58 0 0 0 .134.02c.116 0 .156-.04.156-.109v-1.091a.606.606 0 0 1 .494-.294c.249 0 .417.162.417.5v.97a.57.57 0 0 0 .134.024c.116 0 .156-.04.156-.109v-.916a.634.634 0 0 0-.639-.724.71.71 0 0 0-.562.271v-.145c0-.068-.04-.112-.156-.112m-.734-.18a.189.189 0 0 0 .189-.185.187.187 0 0 0-.374 0 .2.2 0 0 0 .185.185m-.145.293v1.608a.55.55 0 0 0 .134.014c.116 0 .153-.037.153-.109v-1.6a.55.55 0 0 0-.131-.015c-.116-.006-.156.034-.156.102m-.573 1.622a.6.6 0 0 0 .131-.015v-1.085c0-.42-.186-.644-.679-.641a2.02 2.02 0 0 0-.668.123c-.029.149.025.221.1.221a.66.66 0 0 0 .134-.028 1.8 1.8 0 0 1 .41-.066c.323 0 .407.116.407.395v.062c-.747-.051-1.186.13-1.186.539a.534.534 0 0 0 .588.518.769.769 0 0 0 .6-.275v.149c.007.064.056.103.163.103m-.16-.511a.674.674 0 0 1-.548.283c-.224 0-.348-.134-.348-.283 0-.294.407-.359.9-.322zm-3.882-1.205v1.7a.66.66 0 0 0 .135.016c.116 0 .156-.036.156-.108v-1.115a.466.466 0 0 1 .407-.265c.225 0 .341.145.341.391v1.083a.66.66 0 0 0 .133.014c.116 0 .156-.036.156-.108v-1.115a.466.466 0 0 1 .407-.265c.225 0 .341.145.341.391v1.079a.58.58 0 0 0 .134.018c.116 0 .156-.037.156-.109v-1.024a.553.553 0 0 0-.556-.616.632.632 0 0 0-.544.307.521.521 0 0 0-.494-.307.607.607 0 0 0-.486.25v-.116c0-.073-.04-.116-.148-.116a.66.66 0 0 0-.138.015m11.301-4.149a.69.69 0 0 0-.686.748.691.691 0 1 0 1.376 0 .691.691 0 0 0-.69-.748m-2.397.003a.721.721 0 0 0-.633.382v.729a.71.71 0 0 0 .633.382.692.692 0 0 0 .689-.747.692.692 0 0 0-.689-.746m9.042-1.421H9.141a.287.287 0 0 0-.286.283v3.712a.286.286 0 0 0 .286.288h12.574a.286.286 0 0 0 .285-.285v-3.715a.292.292 0 0 0-.289-.283m-11.26 3.215a2.44 2.44 0 0 1-.786-.137c-.025-.175.029-.267.132-.267a3.9 3.9 0 0 0 .662.1c.346 0 .475-.121.475-.281 0-.114-.05-.215-.361-.3l-.358-.1c-.4-.1-.551-.3-.551-.547 0-.3.24-.571.783-.571a2.29 2.29 0 0 1 .732.125c.033.171-.021.264-.125.264a3.9 3.9 0 0 0-.6-.089c-.322 0-.44.11-.44.253 0 .1.047.193.333.275l.365.1c.407.113.572.3.572.571 0 .322-.243.604-.833.604m2.286 0a.86.86 0 0 1-.7-.346v.849c0 .078-.046.131-.182.131a.57.57 0 0 1-.164-.018v-2.674a.8.8 0 0 1 .164-.018c.136 0 .182.049.182.132v.192a.854.854 0 0 1 .7-.346.984.984 0 0 1 .971 1.05.982.982 0 0 1-.971 1.05zm2.328 0a1.05 1.05 0 1 1 1.041-1.051 1.021 1.021 0 0 1-1.041 1.053zm2.506-1.742a.722.722 0 0 0-.685.449v1.141c0 .085-.046.131-.186.131a.6.6 0 0 1-.161-.018v-2.019a.86.86 0 0 1 .161-.018c.139 0 .186.049.186.132v.281a.856.856 0 0 1 .871-.4 1.05 1.05 0 0 1 .018.155c0 .138-.058.168-.204.168zm1.129 1.743a.583.583 0 0 1-.639-.628v-1.737c0-.089.05-.146.186-.146a.9.9 0 0 1 .161.021v.439h.792a1 1 0 0 1 .015.139c0 .121-.05.164-.125.164h-.671v1.1c0 .236.111.35.332.35a2.5 2.5 0 0 0 .411-.089c.095 0 .148.084.126.252a1.33 1.33 0 0 1-.588.135m1.639 0a2.43 2.43 0 0 1-.785-.137c-.025-.175.028-.267.132-.267a3.9 3.9 0 0 0 .66.1c.346 0 .475-.121.475-.281 0-.114-.05-.215-.361-.3l-.357-.1c-.4-.1-.55-.3-.55-.547 0-.3.239-.571.782-.571a2.29 2.29 0 0 1 .731.125c.033.171-.021.264-.125.264a3.8 3.8 0 0 0-.6-.089c-.321 0-.439.11-.439.253 0 .1.047.193.333.275l.364.1c.406.113.571.3.571.571.006.321-.237.603-.826.603zm-17.747-.879.465.089c.17.033.257.071.257.163 0 .071-.066.145-.284.145-.2 0-.465-.03-.635-.03s-.337.073-.337.394a.7.7 0 0 0 .015.128 6 6 0 0 0 1.111.034c.489-.053.73-.32.73-.688 0-.317-.2-.577-.652-.66l-.443-.082c-.142-.025-.231-.057-.231-.138s.094-.138.32-.138.417.023.542.023c.163 0 .333-.069.333-.39a.56.56 0 0 0-.013-.123 5 5 0 0 0-1.047-.034c-.479.053-.723.34-.723.683a.657.657 0 0 0 .592.624m2.119.63v-2.7a.7.7 0 0 0-.145-.015c-.388 0-.456.207-.456.406v2.614a1.1 1.1 0 0 0 .138.01c.386-.005.463-.119.463-.315m1.117.316a.88.88 0 0 0 .343-.065l-.719-1.079.509-.539.839 1.308-.51 1.068a.705.705 0 0 0 .285.061.412.412 0 0 0 .437-.281l1.199-2.673a.67.67 0 0 0-.249-.058.477.477 0 0 0-.494.344l-.389.914-.763-1.236a1.12 1.12 0 0 0-.258-.036.7.7 0 0 0-.576.272l-.742.809.6.937a.531.531 0 0 0 .488.254m16.086 1.47v3.53a.2.2 0 0 1-.2.2H2.285a.2.2 0 0 1-.2-.2v-3.53a.28.28 0 0 1-.086-.2v3.73a.286.286 0 0 0 .285.286h19.43a.286.286 0 0 0 .286-.286v-3.734a.29.29 0 0 1-.086.204"/></svg>