<svg xmlns="http://www.w3.org/2000/svg" viewBox="0 0 24 24"><path fill="#44739e" d="M22.905 16.399a.22.22 0 0 1-.22.22H1.314a.22.22 0 0 1-.22-.22v-3.885a.308.308 0 0 1-.094-.22v4.105a.315.315 0 0 0 .312.315h21.374a.315.315 0 0 0 .314-.315V12.29a.312.312 0 0 1-.095.22Zm-.223-9.113H8.855a.315.315 0 0 0-.314.313v4.085a.313.313 0 0 0 .312.315h13.833a.317.317 0 0 0 .314-.315V7.599a.32.32 0 0 0-.318-.313m-12.386 3.535a2.7 2.7 0 0 1-.864-.149c-.028-.194.031-.295.145-.295a4.3 4.3 0 0 0 .728.11c.381 0 .522-.134.522-.309 0-.126-.055-.238-.397-.33l-.393-.11c-.44-.11-.607-.33-.607-.602 0-.33.264-.627.862-.627a2.51 2.51 0 0 1 .805.138c.036.187-.023.289-.138.289a4.3 4.3 0 0 0-.66-.097c-.354 0-.484.12-.484.277 0 .11.052.213.367.304l.401.11c.448.124.629.33.629.628 0 .353-.267.663-.916.663m3.585-1.21v.055a1.08 1.08 0 0 1-1 1.155h-.066a.943.943 0 0 1-.77-.38v.934c0 .085-.05.145-.2.145a.72.72 0 0 1-.18-.02V8.558a.9.9 0 0 1 .18-.02c.15 0 .2.055.2.146v.211a.934.934 0 0 1 .77-.38 1.082 1.082 0 0 1 1.07 1.093Zm2.64.053a1.122 1.122 0 0 1-1.087 1.156h-.058a1.155 1.155 0 1 1 1.145-1.165Zm1.612-.76a.796.796 0 0 0-.754.495v1.253c0 .093-.051.143-.205.143a.7.7 0 0 1-.177-.02V8.558a1.07 1.07 0 0 1 .177-.02c.153 0 .205.055.205.146v.309a.94.94 0 0 1 .958-.44 1.1 1.1 0 0 1 .02.172c0 .15-.068.182-.229.182Zm1.237 1.92a.641.641 0 0 1-.702-.575.5.5 0 0 1 0-.11V8.222c0-.099.055-.162.205-.162a1 1 0 0 1 .177.025v.481h.87a1.2 1.2 0 0 1 .017.154c0 .133-.055.18-.138.18h-.738v1.21c0 .258.122.384.365.384a2.64 2.64 0 0 0 .452-.098c.11 0 .163.092.139.278a1.48 1.48 0 0 1-.647.15m1.808 0h-.005a2.65 2.65 0 0 1-.864-.152c-.027-.192.031-.293.146-.293a4.4 4.4 0 0 0 .726.11c.38 0 .522-.134.522-.31 0-.125-.055-.237-.397-.33l-.393-.11c-.44-.11-.605-.33-.605-.602 0-.33.263-.628.861-.628a2.56 2.56 0 0 1 .804.138c.036.189-.024.291-.138.291a4.3 4.3 0 0 0-.66-.099c-.353 0-.483.122-.483.278 0 .11.052.214.367.303l.4.11c.446.125.628.33.628.629.007.352-.261.66-.909.66ZM1.651 9.856l.512.097c.187.037.282.08.282.181 0 .077-.072.159-.312.159-.22 0-.511-.034-.698-.034s-.371.081-.371.434a.77.77 0 0 0 .016.142 6.7 6.7 0 0 0 1.222.037c.538-.059.803-.352.803-.758 0-.348-.22-.634-.717-.725l-.487-.09c-.156-.028-.254-.063-.254-.152s.103-.152.352-.152.459.025.596.025c.179 0 .366-.075.366-.428a.63.63 0 0 0-.014-.137 5.6 5.6 0 0 0-1.152-.037C1.268 8.479 1 8.793 1 9.17a.722.722 0 0 0 .651.686m13.785-1.009h-.063a.757.757 0 0 0-.757.759.6.6 0 0 0 0 .06.76.76 0 1 0 1.513 0 .761.761 0 0 0-.693-.819m-2.637.004h-.063a.796.796 0 0 0-.696.422v.801a.783.783 0 0 0 .696.421.761.761 0 0 0 .76-.763v-.06a.761.761 0 0 0-.696-.821ZM10.9 14.043c-1.148 0-1.352.061-1.844.55l-1.21 1.21h1.633l.391-.391c.255-.256.388-.282.928-.282h2.786l1.088-1.086Zm-6.918-3.494v-2.97a.77.77 0 0 0-.159-.016c-.427 0-.502.227-.502.44v2.876a1 1 0 0 0 .152.011c.424 0 .509-.126.509-.341m14.254 2.131h-1.877l-3.118 3.117h1.876ZM5.211 10.899a.98.98 0 0 0 .377-.071l-.791-1.19.56-.593.923 1.439-.561 1.176a.79.79 0 0 0 .314.067.455.455 0 0 0 .48-.311l1.319-2.937a.72.72 0 0 0-.274-.064.527.527 0 0 0-.543.378l-.428 1.006-.839-1.361a1.18 1.18 0 0 0-.284-.04.77.77 0 0 0-.634.301l-.816.89.66 1.032a.585.585 0 0 0 .537.278m2.743 2.73c-.784.77-2.191 2.173-2.191 2.173h1.76c.397-.384 1.137-1.108 1.48-1.43.48-.453.711-.525 1.754-.525h4.103l1.165-1.164h-5.39a3.005 3.005 0 0 0-2.681.946"/></svg>