<svg xmlns="http://www.w3.org/2000/svg" viewBox="0 0 24 24"><path fill="#44739e" d="M10.9159 23.23c-2.1044-.2157-4.0564-.9846-5.774-2.2746-.5664-.4254-1.584-1.428-2.0139-1.984-1.343-1.7372-2.107-3.619-2.3525-5.7934-.0825-.731-.0336-2.338.0928-3.047q.6352-3.5653 3.1402-6.0837C5.7277 2.3189 7.921 1.2123 10.3737.8361c.7742-.1188 2.4572-.1202 3.2297-.0028 2.4477.372 4.646 1.4752 6.3687 3.196 1.833 1.8307 2.9763 4.2289 3.2528 6.8227.0814.763.0342 2.2798-.0936 3.0038-.888 5.0356-4.88 8.7983-9.9287 9.3584-.3943.044-1.9119.0545-2.2867.0158m1.2658-3.2095c.1253-.106 3.3539-6.3664 3.3544-6.5044.0006-.1628-.0936-.3288-.2192-.386-.0806-.0367-1.0724-.0525-3.3235-.0525H8.7847l-.1603.1603c-.2283.2283-.216.3915.07.9348.1266.2404.8506 1.636 1.609 3.1012s1.421 2.701 1.4724 2.7464c.0512.0453.1419.0826.201.0826.059 0 .1512-.0374.2049-.0826zm3.1628-9.157c.1191-.0636.209-.305.1705-.458-.0269-.1065-3.0921-6.0908-3.2494-6.3436-.078-.1251-.2974-.2002-.4208-.144-.0742.0342-.547.9002-1.6437 3.0124-.8467 1.6307-1.584 3.0543-1.6383 3.1634-.154.3098-.1191.5484.1072.7317.093.0754.3421.0815 3.3452.0825 1.989.0007 3.2774-.0164 3.3293-.0446z"/></svg>