<svg xmlns="http://www.w3.org/2000/svg" viewBox="0 0 24 24"><path fill="#44739e" d="M18.868 4.764c-.117.137-.227.266-.346.413l-1.635 2.129v.35h2.899v-.478h-2.16l.166-.193c.128-.152.238-.287.341-.427l1.616-2.1.006-.381h-2.718v.485h2.006Zm2.408.262.171-.194a6 6 0 0 0 .238-.29l1.285-1.605.006-.285h-2.155v.361h1.603l-.173.195c-.083.093-.164.186-.249.287L20.703 5.12v.261H23v-.355Zm-5.262 5.168h-2.851l.17-.194c.189-.214.345-.404.493-.598l2.137-2.716.01-.501H12.36v.641h2.643l-.22.252c-.156.177-.302.346-.457.533l-2.167 2.753v.463h3.855ZM4.555 16.166a7.914 7.914 0 0 0 11.203 1.873 8.908 8.908 0 0 1-8.491-3.898 9.449 9.449 0 0 1-.516-8.845 7.907 7.907 0 0 0-2.196 10.87m11.203-4.22a.208.208 0 0 0-.207-.208h-3.8a.926.926 0 0 0-.624-.624V5.346a.256.256 0 0 0-.255-.255.271.271 0 0 0-.272.272v5.751a.926.926 0 1 0 1.151 1.152h3.788a.22.22 0 0 0 .221-.22Zm2.373-5.001h1.234a9.9 9.9 0 0 0-.571-.855l-.467.608c-.063.082-.13.163-.196.247m.421.946a8.754 8.754 0 1 1-1.146-1.646l.726-.944c-.162-.175-.33-.344-.502-.506h-.827v-.698a9.877 9.877 0 1 0 3.056 3.794Z"/></svg>