<svg xmlns="http://www.w3.org/2000/svg" viewBox="0 0 24 24"><path fill="#44739e" d="m11.098 2.054.13 18.479 8.783 1.608.587-20.337Zm.435 18.142-.109-17.707h.239l.098 17.544 8.022 1.434v.207Zm8.25 1.087-7.772-1.359V2.533l8.326-.174ZM10.902 2.087l-7.609.217.631 16.729 7.098 1.304Zm-.228.663.152 17.043v-.163L4.5 18.543 3.935 2.87ZM4.065 18.772 3.467 2.87h.142l.587 15.793 6.619 1.152v.142ZM2.217 1.674l.761 17.956L20.587 23l.674-22ZM20.185 22.63 3.228 19.37 2.511 1.978h.174l.728 17.305 7.315 1.369 9.489 1.772Zm0-.315-9.326-1.75h.098l-7.24-1.435L2.978 2h-.293l18.119-.62ZM3.391 19.283H3.38ZM21.783 1.185l-.229-.087-.674 21.522.207-.305Zm0-.011-.229-.087-.674 21.511.207-.294Z"/></svg>