<svg xmlns="http://www.w3.org/2000/svg" fill="#44739e" viewBox="0 0 24 24"><path d="m11.07 2.83.12 17 8.08 1.48.54-18.71zm.4 16.69-.1-16.29h.22l.09 16.14 7.38 1.32v.19zm7.59 1-7.15-1.25v-16l7.66-.16zM10.89 2.86l-7 .2.58 15.39 6.53 1.2zm-.21.61.14 15.68V19L5 18 4.48 3.58ZM4.6 18.21 4.05 3.58h.13l.54 14.53 6.09 1.06v.13ZM2.9 2.48 3.6 19l16.2 3.1.62-20.24Zm16.53 19.28-15.6-3-.66-16h.16L4 18.68l6.73 1.26 8.73 1.63zm0-.29-8.58-1.61h.09l-6.66-1.32L3.6 2.78h-.27L20 2.21ZM3.98 18.68h-.01zM20.9 2.03l-.21-.08-.62 19.8.19-.28zm0-.01-.21-.08-.62 19.79.19-.27z"/></svg>