<svg xmlns="http://www.w3.org/2000/svg" viewBox="0 0 24 24"><path fill="#44739e" d="M16.84 17.788h-.208l-.499-.814h-.007v.043c.007.086.007.164.007.235v.529h-.149V16.76h.199l.499.807h.008a.9.9 0 0 0-.008-.111c0-.064-.006-.122-.006-.157v-.536h.149v1.028Zm-1.892-.514a.58.58 0 0 1-.121.385.444.444 0 0 1-.35.136.451.451 0 0 1-.357-.136.685.685 0 0 1 0-.776.451.451 0 0 1 .357-.136.444.444 0 0 1 .35.136.577.577 0 0 1 .121.391m-.776 0a.455.455 0 0 0 .079.285.276.276 0 0 0 .228.1.258.258 0 0 0 .222-.092.585.585 0 0 0 .007-.571.263.263 0 0 0-.222-.101.278.278 0 0 0-.229.101.406.406 0 0 0-.087.278Zm-1.387.514V16.77h.164v1.021Zm-1.02-.279a.257.257 0 0 1-.101.214.436.436 0 0 1-.27.079.69.69 0 0 1-.287-.056v-.158a1 1 0 0 0 .15.05.58.58 0 0 0 .143.021.25.25 0 0 0 .143-.035.123.123 0 0 0 .05-.1.14.14 0 0 0-.043-.1.53.53 0 0 0-.179-.093.49.49 0 0 1-.199-.129.288.288 0 0 1-.057-.17.235.235 0 0 1 .092-.201.377.377 0 0 1 .243-.071.72.72 0 0 1 .293.064l-.05.135a.7.7 0 0 0-.243-.056.192.192 0 0 0-.121.035.111.111 0 0 0-.043.094.22.22 0 0 0 .014.071c.007.021.029.035.058.049s.071.036.135.065a.73.73 0 0 1 .164.085.34.34 0 0 1 .079.093.2.2 0 0 1 .029.111Zm-1.856.279V16.77h.164v1.021Zm-1.15-1.018h.172l-.357 1.021h-.179l-.357-1.021h.171l.214.635a1.1 1.1 0 0 1 .037.111.44.44 0 0 1 .021.111.9.9 0 0 1 .029-.121c.014-.05.021-.079.027-.101Zm-1.663 1.018h-.579V16.77h.579v.143h-.407v.278h.386v.143h-.386v.322h.407Zm-2.17 0V16.77h.164v.878h.428v.143Zm-1.035 0h-.578V16.77h.578v.143h-.407v.278h.385v.143h-.385v.322h.407Zm-1.863 0h-.164v-.878h-.301v-.14h.764v.143h-.299Zm6.916-8.16h1.306v5.39H8.944Zm11.593 8.224c1.528-.029 2.463-.935 2.463-2.755V9.628h-1.298l.035.998a2.058 2.058 0 0 0-1.928-1.109 2.617 2.617 0 0 0-2.498 2.796 2.64 2.64 0 0 0 2.527 2.819 2.017 2.017 0 0 0 1.864-1.042v.936c0 1.099-.394 1.705-1.143 1.705h-2.492v1.109h2.47Zm-.357-3.862a1.506 1.506 0 0 1-1.527-1.677 1.495 1.495 0 0 1 1.527-1.641 1.513 1.513 0 0 1 1.564 1.642 1.525 1.525 0 0 1-1.564 1.676m-7.459-7.838a2.08 2.08 0 0 1 .407 1.331 2.245 2.245 0 0 1-.333 1.206 1.331 1.331 0 0 0 .887-1.256 1.346 1.346 0 0 0-.971-1.285Zm-1.014.15a1.858 1.858 0 0 1 .357 1.178 1.95 1.95 0 0 1-.292 1.064 1.175 1.175 0 0 0-.065-2.242m-.816.267a1.423 1.423 0 0 1 .272.901 1.52 1.52 0 0 1-.222.812.897.897 0 0 0-.05-1.713m.531 3.059h1.299l-.028.998a1.946 1.946 0 0 1 1.819-1.109 2.025 2.025 0 0 1 2.014 2.307v3.194h-1.292v-3.091c0-.776-.357-1.22-1.109-1.22a1.291 1.291 0 0 0-1.404 1.384v2.927h-1.299ZM8.738 7.415a.853.853 0 0 1 .856-.846.854.854 0 1 1-.856.85Zm-2.263-.713h1.3v8.316h-1.3ZM1 14.019l.887-.621a1.679 1.679 0 0 0 1.449.692c.657 0 .949-.222.949-.578 0-.435-.399-.5-1.306-.757-.793-.222-1.592-.592-1.592-1.655s.856-1.592 1.926-1.592a2.439 2.439 0 0 1 1.87.806l-.757.742a1.461 1.461 0 0 0-1.109-.527c-.485 0-.757.177-.757.499 0 .414.333.5 1.179.72s1.774.555 1.774 1.692c0 .922-.564 1.678-2.091 1.678a2.709 2.709 0 0 1-2.413-1.099Z"/></svg>