<svg xmlns="http://www.w3.org/2000/svg" fill="#44739e" viewBox="0 0 24 24"><path d="M12.616 10.36a1.382 1.382 0 0 1-1.382 1.382 1.382 1.382 0 0 1-1.382-1.382 1.382 1.382 0 0 1 1.382-1.382 1.382 1.382 0 0 1 1.382 1.382m-1.37-2.407a2.39 2.39 0 0 1 2.127 1.3 2.54 2.54 0 0 0 1.086-.275 2.666 2.666 0 1 0-2.71-4.591c-1.1.645-1.987 3.519-2.21 4.293a2.387 2.387 0 0 1 1.707-.723zm.369 4.747a3.74 3.74 0 0 0 .092 1.97 2.666 2.666 0 0 0 4.83-2.257c-.363-.778-1.754-1.569-2.9-2.11a2.411 2.411 0 0 1-2.022 2.397m-.602.013a2.32 2.32 0 0 1-.574-.131 2.392 2.392 0 0 1-1.432-3.061 2.5 2.5 0 0 1 .154-.34 2.47 2.47 0 0 0-.8-.559 2.64 2.64 0 0 0-.906-.16 2.665 2.665 0 0 0-.914 5.169c1.097.398 3.532-.531 4.472-.918m8.316-2.156a.707.707 0 0 0 .718.7c.186 0 .571-.187.571-.762 0-.592-.352-.792-.512-.792a.921.921 0 0 0-.777.854M11.55 18a8.316 8.316 0 0 0 8.113-6.646.833.833 0 0 1-.515-.795 1.064 1.064 0 0 1 .635-.942A8.24 8.24 0 0 0 11.55 2a7.946 7.946 0 0 0-7.873 8 7.946 7.946 0 0 0 7.873 8m-6.633-5.689a2.8 2.8 0 0 1 1.11-3.592 6.33 6.33 0 0 1 5.921-5.11c3.386 0 6.141 3.121 6.141 6.957s-2.755 6.957-6.141 6.957a6.108 6.108 0 0 1-5.455-3.766 2.78 2.78 0 0 1-1.576-1.446m15.446-.659a.43.43 0 0 0-.095-.257.63.63 0 0 1-.221.047h-.031a8.04 8.04 0 0 1-1.022 2.658l-.534 4.2a.956.956 0 0 1-1.1.821l-5.345-.774c-.155.009-.31.014-.464.014a8.08 8.08 0 0 1-2.751-.479l-1.7-.247c-.481-.079-.479-.531-.47-.938a8.39 8.39 0 0 1-3.1-4.825.39.39 0 0 0-.138-.077v.021l.274 7.232a.553.553 0 0 0 .525.568l3.271.177a20.82 20.82 0 0 1 5.46 1.039l2.461.82a6.78 6.78 0 0 0 2.862.306l.592-.065a2.173 2.173 0 0 0 1.334-.661 1.673 1.673 0 0 0 .456-1.194z"/></svg>