<svg xmlns="http://www.w3.org/2000/svg" viewBox="0 0 24 24"><path fill="#44739e" d="M12.667 10.197a1.52 1.52 0 0 1-1.521 1.521 1.52 1.52 0 0 1-1.52-1.521 1.52 1.52 0 0 1 1.52-1.52 1.52 1.52 0 0 1 1.521 1.52M11.16 7.549a2.629 2.629 0 0 1 2.34 1.43 2.794 2.794 0 0 0 1.195-.302 2.933 2.933 0 1 0-2.982-5.051c-1.21.71-2.186 3.872-2.431 4.723a2.626 2.626 0 0 1 1.878-.795Zm.406 5.223a4.115 4.115 0 0 0 .101 2.167 2.933 2.933 0 0 0 5.314-2.483c-.4-.856-1.93-1.726-3.191-2.321a2.652 2.652 0 0 1-2.224 2.637m-.663.014a2.55 2.55 0 0 1-.631-.144 2.632 2.632 0 0 1-1.576-3.368 2.75 2.75 0 0 1 .17-.374 2.72 2.72 0 0 0-.88-.615 2.9 2.9 0 0 0-.997-.176 2.932 2.932 0 0 0-1.006 5.687c1.207.438 3.886-.584 4.92-1.01m9.149-2.372a.778.778 0 0 0 .79.77c.205 0 .628-.206.628-.838 0-.651-.387-.871-.563-.871a1.013 1.013 0 0 0-.855.939m-8.558 8.189a9.149 9.149 0 0 0 8.926-7.312.916.916 0 0 1-.567-.875 1.171 1.171 0 0 1 .699-1.036A9.065 9.065 0 0 0 11.494 1a8.742 8.742 0 0 0-8.661 8.801 8.742 8.742 0 0 0 8.661 8.802m-7.297-6.259a3.08 3.08 0 0 1 1.221-3.952 6.964 6.964 0 0 1 6.514-5.622c3.725 0 6.756 3.434 6.756 7.654s-3.031 7.654-6.756 7.654a6.72 6.72 0 0 1-6.001-4.143 3.058 3.058 0 0 1-1.734-1.591m16.993-.725a.473.473 0 0 0-.105-.283.69.69 0 0 1-.243.052h-.034a8.85 8.85 0 0 1-1.124 2.924l-.588 4.621a1.052 1.052 0 0 1-1.21.903l-5.88-.852c-.171.01-.341.016-.511.016a8.89 8.89 0 0 1-3.026-.527l-1.871-.272c-.529-.087-.527-.584-.517-1.032a9.23 9.23 0 0 1-3.41-5.308.43.43 0 0 0-.152-.085v.023l.301 7.957a.608.608 0 0 0 .578.624l3.599.195a22.9 22.9 0 0 1 6.007 1.143l2.707.902a7.46 7.46 0 0 0 3.149.337l.651-.071a2.39 2.39 0 0 0 1.468-.728 1.84 1.84 0 0 0 .501-1.313Z"/></svg>