<svg xmlns="http://www.w3.org/2000/svg" viewBox="0 0 24 24"><path fill="#44739e" d="M11.358 1.35c-.34.188-.659.363-.72.391-.119.058-1.163.625-1.226.666-.04.025-1.093.598-1.201.653-.055.027-.943.513-1.825.996-.268.147-.507.275-.53.283a1.4 1.4 0 0 0-.138.071c-.053.031-.388.22-.745.412L4 5.356c-.178.099-.382.208-.451.241-.144.071-.369.192-.51.275-.054.032-.362.201-.685.378l-.879.481c-.16.088-.296.161-.305.162a.44.44 0 0 0-.093.044L1 6.98v13.484h1.287v-4.247h1.238v4.247h4.686v-1.286H4.823v-4.247H2.287V7.76l.33-.179.749-.411.57-.31c.223-.119 1.47-.796 1.626-.886s.62-.343.726-.397c.132-.067 1.703-.922 1.809-.989.143-.084.532-.295.631-.341.078-.037.419-.22.607-.33a1.1 1.1 0 0 1 .11-.056s.006.317 0 .704v.704l-.192.107c-.103.056-.295.158-.426.225s-.339.178-.458.244-.486.269-.816.449-.634.347-.673.371c-.11.067-.411.228-.425.228s-.832.44-.843.456-.273.153-.601.33-.637.347-.69.379a1.36 1.36 0 0 1-.226.12s-.137.069-.292.153l-.281.154v5.208h2.947v4.133h1.285v-4.265c0-2.412 0-4.265-.01-4.265a1.4 1.4 0 0 0-.14.078 1.2 1.2 0 0 1-.148.079c-.008 0-.142.076-.297.167l-.484.284-.201.117v2.375H4.823V9.259l.319-.176c.899-.495 1.685-.924 1.759-.961.115-.058 1.152-.622 1.209-.66s.965-.529 1.173-.637 1.319-.712 1.39-.76l.069-.043V3.147l.129-.071c.072-.038.148-.076.172-.086.05-.021.781-.418.879-.479l.068-.041.081.047c.159.092.823.45.897.483.041.018.135.068.207.109l.77.423c.349.191.641.351.648.357.023.018.673.369.733.397s.411.219.631.341l.09.052v1.407l-.147-.081c-.395-.22-.692-.381-.735-.399s-.179-.091-.34-.179-.589-.33-.954-.526-.698-.383-.738-.407a2 2 0 0 0-.22-.109c-.083-.035-.318-.168-.532-.283s-.38-.213-.38-.21-.009 1.333-.013 2.957-.012 2.953-.018 2.953a.12.12 0 0 1-.036-.022c-.038-.029-.492-.29-.576-.33-.036-.018-.202-.11-.369-.21-.483-.283-1.539-.897-1.555-.902s-.009.983-.009 2.199v2.198l.038.026c.068.045.819.475.85.487s.382.211.409.233c.009.007.307.182.659.387s.7.406.77.448.171.101.219.131c.12.066.121.057-.012.124a4.2 4.2 0 0 0-.244.135c-.072.044-.413.242-.756.44s-.633.37-.643.379-.019-.017-.021-.306v-.33l-.057-.036c-.1-.064-.432-.252-.485-.276-.029-.014-.203-.11-.387-.22s-.336-.194-.339-.194 0 .806 0 1.79v1.79s.257-.144.561-.32l.574-.33 1.319-.757a.4.4 0 0 0 .054-.035s.199-.117.44-.253c.675-.385 2.088-1.201 2.17-1.254.041-.026.171-.102.288-.169a1.7 1.7 0 0 0 .211-.132 2.2 2.2 0 0 0-.241-.149c-.132-.077-.255-.151-.275-.164s-.33-.191-.678-.396-.66-.38-.676-.392-.08-.049-.139-.078c-.117-.062-1.063-.605-1.071-.617s-1.181-.685-1.195-.685a.09.09 0 0 1-.045-.012l-.026-.021v-1.421l.066.038.12.068c.11.06 1.054.604 1.124.649.123.078 1.135.66 1.148.66a.64.64 0 0 1 .131.071 2.24 2.24 0 0 0 .419.22l.275-.154c.82-.469.979-.563.979-.574a1.9 1.9 0 0 0-.231-.146c-.724-.421-1.13-.653-1.139-.653s-.083-.042-.172-.092l-.164-.093V9.218c0-.734 0-1.75.008-2.256l.009-.921.048.03c.048.028.86.469 1.929 1.048.288.155.566.308.619.339.189.11 1.23.673 1.248.673a.025.025 0 0 1 .022.01 1.5 1.5 0 0 0 .195.11s.007-.644.007-1.429V5.393l.267.136c.147.076.395.206.55.293l.937.514c.361.195.66.364.673.371s.08.046.156.085c.132.065.644.343 1.418.769l.354.196v6.732h-1.228V8.482l-.255-.136c-.141-.076-.318-.169-.393-.208s-.147-.075-.156-.083c-.03-.024-1.04-.572-1.056-.572a5.6 5.6 0 0 0-.009.73v.731l.295.16.294.16v1.637l-.143-.084a1.4 1.4 0 0 0-.155-.083c-.014 0-.43-.24-.5-.288-.027-.018-.33-.199-.685-.403s-.699-.406-.775-.453-.168-.096-.205-.109c-.072-.035-.799-.452-.894-.515s-1.288-.751-1.298-.751-.006.33-.006.742v.741l.044.03c.024.015.33.193.675.395s.659.383.692.405.12.072.193.11c.144.076 1.009.575 1.037.599s.558.33 1.661.961l.357.205v3.37h2.529v5.935h-1.247v-4.687h-1.286v4.686h-8.433v-1.243h7.196v-1.286h-3.64v-1.165l.081-.051c.044-.027.367-.22.718-.419l.685-.4a1 1 0 0 1 .102-.057c.057-.027 1.057-.606 1.159-.669.033-.021.246-.146.474-.279l.415-.241v-2.65l-.41-.238c-.227-.13-.419-.242-.427-.249-.029-.025-.879-.508-.89-.508a3.5 3.5 0 0 0-.34.192c-.026.018-.246.146-.49.288a4.8 4.8 0 0 0-.44.269 3 3 0 0 0 .399.236c.074.038.22.124.337.19s.379.22.592.345l.387.225v1.153l-.393.23-.601.352c-.109.067-.219.127-.239.134-.035.014-.8.454-.828.477-.01.008-.296.176-.636.373s-.641.372-.669.391a.3.3 0 0 1-.061.034.8.8 0 0 0-.11.056l-.097.055v1.931H9.448v2.529H1.002v1.28H23V6.978l-.117-.056c-.119-.058-.585-.308-.693-.374-.033-.02-.317-.175-.631-.345s-.597-.33-.63-.347c-.098-.058-.421-.233-.45-.241s-.219-.11-.439-.238c-1.106-.607-1.688-.923-1.901-1.036-.13-.069-.421-.228-.649-.352-.786-.432-1.592-.873-1.694-.926s-.815-.439-1.824-.995c-.307-.168-.564-.305-.572-.305a.9.9 0 0 1-.134-.069c-.215-.125-1.256-.686-1.273-.686s-.294.155-.635.342"/></svg>