<svg xmlns="http://www.w3.org/2000/svg" viewBox="0 0 24 24"><path fill="#44739e" d="M12.002 7.967a3.409 3.409 0 1 0 3.409 3.41 3.409 3.409 0 0 0-3.409-3.41m.03 5.861a2.112 2.112 0 1 1 2.111-2.112 2.114 2.114 0 0 1-2.112 2.112Zm.683 3.322a8.091 8.091 0 1 0-1.43 0v4.274a.77.77 0 0 0 .027.129H7.181a.724.724 0 0 0 0 1.447h9.643a.724.724 0 0 0 0-1.447h-4.136a.77.77 0 0 0 .027-.129ZM8.348 4.893a.794.794 0 1 1-.794.793.793.793 0 0 1 .794-.793m3.654 11.049a4.564 4.564 0 1 1 4.564-4.564 4.568 4.568 0 0 1-4.564 4.564m.029-5.186a.96.96 0 1 0 .96.96.96.96 0 0 0-.96-.96"/></svg>