<svg xmlns="http://www.w3.org/2000/svg" viewBox="0 0 24 24"><path fill="#44739e" d="M14.242 9.038a.558.558 0 1 0 .559.558.558.558 0 0 0-.559-.558m-1.151.601a.263.263 0 0 1-.263.263.263.263 0 0 1-.263-.263.263.263 0 0 1 .263-.263.263.263 0 0 1 .263.263M23 11.74v-.287h-2.702c0-.392-.026-.783-.048-1.11a12.76 12.76 0 0 0-2.123-1.399 6.1 6.1 0 0 0-1.397-.823 7.24 7.24 0 0 0-1.929-.097H8.767l-1.254.048a8.05 8.05 0 0 0-2.171 1.21c-.429.267-.897.428-1.303.724-.116.085-.171.249-.289.338-.025.33-.052.718-.048 1.11H1v.289h2.702v.48H1v.289h2.702l.048 1.062a12.1 12.1 0 0 0 2.026 1.35 6.66 6.66 0 0 0 1.54.918 13.86 13.86 0 0 0 3.426.095h3.811a8.58 8.58 0 0 0 1.93-.047 7.1 7.1 0 0 0 2.074-1.158c.431-.285 1.466-.684 1.64-1.158a2.255 2.255 0 0 0 .097-1.062H23v-.289h-2.702v-.482Zm-7.14 3.328a1.24 1.24 0 0 0-.242.193h-5.114a16.25 16.25 0 0 1-2.702-.047 1.24 1.24 0 0 0-.192-.242 55.7 55.7 0 0 1 .048-6.127 2.2 2.2 0 0 0 .29-.193h5.837c.588 0 1.76-.159 2.027.193.22.287.096 1.177.096 1.64v2.948a9.8 9.8 0 0 1-.048 1.635"/></svg>