<svg xmlns="http://www.w3.org/2000/svg" viewBox="0 0 24 24"><path fill="#44739e" d="M14.235 10.835a.88.88 0 1 0 .88.88.88.88 0 0 0-.88-.88m-4.325 0a.88.88 0 1 0 .88.88.88.88 0 0 0-.88-.88m8.286-.849a6.432 6.432 0 0 0-12.391 0H6.94v3.464H5.805a6.433 6.433 0 0 0 12.391 0h-1.072V9.986ZM9.91 13.041a1.32 1.32 0 1 1 1.32-1.32 1.32 1.32 0 0 1-1.32 1.32m4.322 0a1.32 1.32 0 1 1 1.32-1.32 1.32 1.32 0 0 1-1.317 1.32Zm5.028-10.58H4.74A3.74 3.74 0 0 0 1 6.201v11.598a3.74 3.74 0 0 0 3.74 3.74h14.52a3.74 3.74 0 0 0 3.74-3.74V6.201a3.74 3.74 0 0 0-3.74-3.74m-.234 10.326-.015.067a7.361 7.361 0 0 1-4.18 5.39 7.12 7.12 0 0 1-9.765-5.055l-.085-.4h1.291v-2.142H4.975l.015-.066a7.37 7.37 0 0 1 4.18-5.39 7.122 7.122 0 0 1 9.768 5.053l.083.399h-1.234v2.139Z"/></svg>