<svg xmlns="http://www.w3.org/2000/svg" fill="#44739e" viewBox="0 0 24 24"><path d="M6.2072 1.0099c-.4566 0-.989-.043-1.252.1562-.3837.2621-.3144.8165-.3144 1.4629v16.027c-.362 1.1185-1.4546 1.8422-1.3574 3.289.2552.2716.353.5759.7324.7325.4716.1947 1.0904-.0253 1.67.1035.308.0685.8286-.0301 1.201.0527.8797.1957 2.2236.1563 3.1856.1563 1.002 0 2.157.0965 2.7656-.3125.5314-.3571.4805-1.177.6797-1.8809.0958-.3384.4558-1.2657.3125-1.5663-.078-.6857-1.0448-.3824-1.67-.5215l-5.8475-.5742c-.0174-5.0473-.0353-10.094-.0527-15.1404.0805-.185.2287-.1502.2617-.4707H19c.2998 0 .8405.0745 1.043-.0508.5615-.055.4285-.6403.6797-.9921-.0043-.235-.0339-.2853-.1055-.418-1.3622-.0964-2.9367-.0527-4.3847-.0527zm-1.043.3144c.1323.0055.1922.005.2598.0508l.1582.0527c.0169.045.0179.0583.0215.0664.0036.0065.011.0138.0293.0371.0326.6658-.407.5937-.7305.3672.0117-.3402.1038-.4009.2618-.5742m.5215 0H20.461l-.0528.1563H6.678c-.3897 0-.8196.0665-.9922-.1563m.2618.3125h14.41a1.71 1.71 0 0 0-.1583.5215h-.0507v.0527H18.791c.0694-.09.133-.2198.209-.3125a.74.74 0 0 0-.0528-.209h-6.0038c-.4751 0-2.0062-.1294-2.2969.0508-.1314.152-.1467.3146-.0527.418v.0527H6.3654c-.158-.0715-.2622-.3629-.418-.4707zm-.1563.1563c.1494.1057.2119.2608.3652.3652-.1483.1405-.2869.1404-.3652.3652a.546.546 0 0 1-.3672-.209h-.0508c.1274-.2226.3338-.2198.418-.5214m4.9062 0h8.1972a1.35 1.35 0 0 1-.1035.2617h-8.1445zm-5.7949.3652c.1873.1294.1055 1.5492.1055 1.9316v4.3867c0 .4385-.1424 1.3523.0508 1.6699v9.242c-.0507.019-.06.0189-.0684.0235-.0057.0038-.0151.0117-.0351.0273h-.0528zm.2618.209c.3482.124.4837.456.834.5742.0173 5.204.0353 10.4082.0527 15.6111h-.209c-.187.2022-.4222.3936-.5742.627H5.217v-6.578c0-.5075.1392-2.198-.0527-2.5079zm.9394 0a.66.66 0 0 0 .209.0527c.0168.045.0198.0582.0234.0664.0036.0065.011.0138.0293.0371-.0189.1957-.0415.1954-.1054.3145-.2345-.018-.2506-.021-.3125-.209-.0005-.0004-.0379-.001-.0567-.0117-.0009-.0007-.005-.0032-.0059-.004l-.002-.002v-.002l-.002-.002v-.008a.055.055 0 0 1 .0137-.0234h.0527c.054-.142.0746-.115.1563-.209zm.209 16.0799c1.1064.007 2.3354.0951 3.3417.3144.395.0862.8573-.0756 1.1485.1035.2258-.003.4759.0006.627.0528l-.8887 3.2363c-.9017-.0138-1.9004-.0814-2.7149-.2598-.7458-.1635-1.5527-.0576-2.244-.209-.5633-.1233-1.2908.1077-1.7247-.1562-.1583-.0565-.1528-.0482-.207-.209-.1003-.1748.761-1.7964.9394-1.9844v-.0527h.0508v.7305c-.1372.4017-.5976.5986-.6777 1.0976.5377-.0034 1.4288-.0354 1.7754.209.3267-.1228.3626-.5436.5214-.836.2606-.4793.6639-1.2464 1.0957-1.5663v-.209l-1.043-.1035zm.1035.3671h.1582a.6.6 0 0 1-.1055.1563v.0508h-.0527zm.3652 0 .3672.0508c-.2503.4155-.5845.7909-.836 1.2012-.1778.2903-.248.644-.4706.8867v.0527h-.0508c-.046-.111-.0836-.2315-.1582-.3125.1219-.6117.842-1.3508 1.1484-1.8789m4.8047.1036 1.5663.1562c.235.0043.2833.0339.416.1055-.0107.7962-.2734 1.5615-.4687 2.244-.0892.3118-.0651.6959-.3125.836-.4072.2307-1.5911-.048-2.0898-.0527zm-6.0039.1035c.1605.124.1465.2226.416.2617a.716.716 0 0 1-.2597.418v.0527c-.1561-.1653-.1503-.2931-.418-.3652.0774-.1896.1886-.1688.2617-.3672m.4688.5234.002.002a.04.04 0 0 1 .0059.0117v.008c-.0017.0169-.015.0454-.0606.082zm-.1035.1563.002.002v.002c.001.002.0052.0066.0059.0098v.0059c-.0004.0168-.0122.0451-.0606.084zm6.2636.0527c-.0235.0184-.0289.0237-.0352.0273-.008.0037-.0226.007-.0684.0235.0133.2133.0023.241.1563.3144a1.6 1.6 0 0 1-.2598.1563c.0173.1859.0023.1746.1035.2617-.0605.1137-.1547.1515-.2617.209v.1035c.0943.0814.0655.104.209.1562-.0766.064-.2185.1156-.3125.1563.0138.2852.3172.5034.5742.3144.0476-.0258.064-.0288.0703-.0293h.004v-.002c.0007-.006.0038-.0259.0293-.0742.0493-.1238-.0238-.178-.1562-.2598.0749-.0577.2361-.1178.3144-.1582-.0338-.1847-.0373-.1754-.1582-.2597a1.6 1.6 0 0 1 .2617-.1563c-.0188-.2173-.0244-.223-.1562-.3144.0543-.041.1938-.0788.2617-.1035.0034-.0748.0119-.0951.0156-.1055v-.002l.002-.002v-.004c-.0012-.0066-.006-.0178-.0175-.043l-.0528-.1582zm-6.3691.1035c.0864.0771-.2603.4651-.3125.627-.214.0063-.5504.033-.6797-.0528h-.3125c.0519-.0992.0715-.1435.1563-.209.1253-.0007.3002.2065.6796.209.1816-.19.3444-.3172.4688-.5742m6.4218 0c.1424.0013.2404.0026.3144.0527h.1036v.1563a1.31 1.31 0 0 1-.418-.0527l-.0527-.1036h.0527zm-.1035.418c.1322.0055.1921.0069.2597.0527l.1582.0508-.0527.1582c-.2017-.0052-.265-.013-.3652-.1055-.018-.0375-.0262-.0524-.0274-.0625v-.0059c.0034-.0118.017-.0287.0274-.0879zm-7.4628.3086c.1054.0044.2017.019.2578.0566.5943-.0196.4833.1314.7304.418v.0527c-.2288-.0143-1.2519-.059-1.4101-.1582h-.1035l.209-.3652c.0963-.003.211-.0083.3164-.004m7.3065.162h.3653a.32.32 0 0 0 .1035.1036l-.0528.1035c-.3398.0153-.4184-.0133-.416-.207m-.1054.416c.1322.0056.194.007.2617.0528l.1562.0527-.0527.1563c-.2017-.0052-.265-.011-.3652-.1035-.0195-.0407-.0272-.0563-.0274-.0664v-.002l.002-.002c.0034-.0118.015-.0287.0254-.0878zm-8.3535.5743c.8748.2052 2.055.1636 2.9766.3672l1.1484.0508c.5273.1154 1.1355.0293 1.7226.1582.8354.1833 1.8314.271 2.7676.2597v.0527c-.9426.1854-2.7829.2083-3.7598 0-.7987-.1703-1.6669.0512-2.4023-.1054-.6394-.1363-1.3432.1174-1.8789-.1035-.2803-.1156-.3807-.3742-.5742-.5742z"/></svg>