<svg xmlns="http://www.w3.org/2000/svg" viewBox="0 0 24 24"><path fill="#44739e" d="M17.108 15.403c.016 2.282.226 5.252 1.086 6.673a1.1 1.1 0 0 0 .045-.225V5.029c-.818 1.417-1.179 3.54-1.131 10.374m-10.215-.002c.047-6.834-.314-8.8-1.132-10.221v16.671a1.1 1.1 0 0 0 .045.22c.86-1.417 1.07-4.388 1.087-6.67m5.107.526a.77.77 0 1 0 .777.777.778.778 0 0 0-.777-.777m0-3.286a4.062 4.062 0 1 0 4.062 4.063A4.07 4.07 0 0 0 12 12.641m0 .841a.606.606 0 1 1-.606.606.607.607 0 0 1 .606-.606m0 6.438a.605.605 0 1 1 .606-.604.605.605 0 0 1-.606.604m0-2.2a1.017 1.017 0 1 1 1.017-1.015A1.016 1.016 0 0 1 12 17.72m1.503-12.429A1.503 1.503 0 0 1 12 6.794a1.503 1.503 0 0 1-1.503-1.503A1.503 1.503 0 0 1 12 3.789a1.503 1.503 0 0 1 1.503 1.502m3.363 10.112c-.047-6.887.533-9.278 1.373-10.73V2.15A1.148 1.148 0 0 0 17.091 1H6.909a1.148 1.148 0 0 0-1.148 1.15v2.56c.84 1.452 1.42 3.803 1.373 10.691-.017 2.38-.237 5.513-1.191 6.93l-.097-.066A1.144 1.144 0 0 0 6.909 23h10.182a1.146 1.146 0 0 0 1.063-.726l-.096.065c-.954-1.422-1.175-4.556-1.192-6.936M12 3.31a1.987 1.987 0 1 1-1.98 1.98A1.989 1.989 0 0 1 12 3.31m0 17.943a4.546 4.546 0 1 1 4.545-4.544A4.548 4.548 0 0 1 12 21.248Z"/></svg>