<svg xmlns="http://www.w3.org/2000/svg" viewBox="0 0 24 24"><path fill="#44739e" d="M12 2.624a4.797 4.797 0 1 0 4.797 4.796A4.803 4.803 0 0 0 12 2.624M9.711 8.215a.795.795 0 1 1 .795-.795.795.795 0 0 1-.795.795m4.513 0a.795.795 0 1 1 .795-.795.795.795 0 0 1-.795.795M12.42 1h-.84a6.064 6.064 0 0 0-6.057 6.311l.408 9.923a6.064 6.064 0 0 0 12.113.015l.432-9.923A6.064 6.064 0 0 0 12.42 1M12 20.423a1.562 1.562 0 1 1 1.562-1.561A1.562 1.562 0 0 1 12 20.423m0-7.428a5.575 5.575 0 1 1 5.574-5.575A5.58 5.58 0 0 1 12 12.995"/></svg>