<svg xmlns="http://www.w3.org/2000/svg" viewBox="0 0 24 24"><path fill="#44739e" fill-rule="evenodd" d="M14.5 8.797a6.25 6.25 0 1 1-12.5 0 6.25 6.25 0 1 1 12.5 0m7.5 0a6.25 6.25 0 1 1-12.5 0 6.25 6.25 0 1 1 12.5 0m-3.868 6.406a6.25 6.25 0 1 1-12.5 0 6.25 6.25 0 1 1 12.5 0M14.24 8.797a5.99 5.99 0 1 1-11.98 0 5.99 5.99 0 1 1 11.98 0m-.365 0a5.625 5.625 0 1 1-11.25 0 5.625 5.625 0 1 1 11.25 0m7.865 0a5.99 5.99 0 1 1-11.98 0 5.99 5.99 0 1 1 11.98 0m-.365 0a5.625 5.625 0 1 1-11.25 0 5.625 5.625 0 1 1 11.25 0m-3.503 6.406a5.99 5.99 0 1 1-11.979 0 5.99 5.99 0 1 1 11.979 0m-.365 0a5.625 5.625 0 1 1-11.25 0 5.625 5.625 0 1 1 11.25 0"/></svg>