<svg xmlns="http://www.w3.org/2000/svg" viewBox="0 0 24 24"><path fill="#44739e" fill-rule="evenodd" d="M14.5 8.797a6.25 6.25 0 1 1-12.5 0 6.25 6.25 0 1 1 12.5 0m7.5 0a6.25 6.25 0 1 1-12.5 0 6.25 6.25 0 1 1 12.5 0m-3.868 6.406a6.25 6.25 0 1 1-12.5 0 6.25 6.25 0 1 1 12.5 0m-3.684-6.406a6.198 6.198 0 1 1-12.396 0 6.198 6.198 0 1 1 12.396 0m-.365 0a5.833 5.833 0 1 1-11.666 0 5.833 5.833 0 1 1 11.666 0m7.865 0a6.198 6.198 0 1 1-12.396 0 6.198 6.198 0 1 1 12.396 0m-.365 0a5.833 5.833 0 1 1-11.666 0 5.833 5.833 0 1 1 11.666 0m-3.503 6.406a6.198 6.198 0 1 1-12.396 0 6.198 6.198 0 1 1 12.396 0m-.364 0a5.833 5.833 0 1 1-11.667 0 5.833 5.833 0 1 1 11.667 0"/></svg>