<svg xmlns="http://www.w3.org/2000/svg" viewBox="0 0 24 24"><path fill="#44739e" d="M17.773 8.179a.306.306 0 1 0-.53.304 6.82 6.82 0 0 1 0 6.787.306.306 0 0 0 .531.305 7.432 7.432 0 0 0-.001-7.396M11.287 18.71a6.832 6.832 0 0 1-5.877-3.392.306.306 0 1 0-.529.307 7.425 7.425 0 0 0 6.405 3.697.306.306 0 0 0 0-.612Zm.306-13.97a.306.306 0 0 0-.306-.306 7.423 7.423 0 0 0-6.406 3.7.306.306 0 0 0 .11.418.31.31 0 0 0 .154.041.305.305 0 0 0 .264-.153 6.834 6.834 0 0 1 5.879-3.393.306.306 0 0 0 .305-.307m7.596 2.539a.306.306 0 0 0-.529.306 8.613 8.613 0 0 1 0 8.58.305.305 0 0 0 .11.417.29.29 0 0 0 .152.04.304.304 0 0 0 .265-.153 9.194 9.194 0 0 0 0-9.192ZM3.906 16.167a.306.306 0 1 0-.528.307 9.219 9.219 0 0 0 7.954 4.59.306.306 0 0 0 0-.61 8.639 8.639 0 0 1-7.426-4.287m7.428-13.481a9.225 9.225 0 0 0-7.957 4.593.306.306 0 0 0 .11.418.297.297 0 0 0 .153.042.307.307 0 0 0 .265-.153 8.638 8.638 0 0 1 7.428-4.29.306.306 0 0 0 0-.612Zm9.387 3.751a.306.306 0 1 0-.53.306 10.307 10.307 0 0 1 0 10.268.306.306 0 0 0 .11.416.307.307 0 0 0 .418-.11 10.89 10.89 0 0 0 0-10.878Zm-9.27 15.951a10.34 10.34 0 0 1-8.888-5.132.306.306 0 0 0-.529.307A10.919 10.919 0 0 0 11.451 23a.306.306 0 0 0 0-.612M2.396 6.744a10.34 10.34 0 0 1 8.891-5.132.306.306 0 1 0 0-.612 10.915 10.915 0 0 0-9.42 5.437.305.305 0 0 0 .11.417.297.297 0 0 0 .152.042.308.308 0 0 0 .267-.152m12.365-.059a.77.77 0 0 0-.321-.071.77.77 0 0 0-.488.175L10.84 9.36H8.135a.77.77 0 0 0-.763.77v3.497a.77.77 0 0 0 .763.762h.016l2.906-.052 2.87 2.606a.77.77 0 0 0 .511.197.763.763 0 0 0 .764-.77V7.38a.77.77 0 0 0-.441-.695m-.169 9.691a.154.154 0 0 1-.088.138.17.17 0 0 1-.064.014.154.154 0 0 1-.102-.039l-2.959-2.686a.305.305 0 0 0-.205-.079l-3.024.054h-.012a.157.157 0 0 1-.155-.153V10.13a.153.153 0 0 1 .152-.153h2.815a.308.308 0 0 0 .195-.07l3.19-2.64a.165.165 0 0 1 .099-.037.18.18 0 0 1 .066.015.153.153 0 0 1 .088.138Z"/></svg>