<svg xmlns="http://www.w3.org/2000/svg" fill="#44739e" viewBox="0 0 24 24"><path d="M17.247 8.526a.278.278 0 1 0-.481.277 6.2 6.2 0 0 1 0 6.17.278.278 0 0 0 .482.277 6.756 6.756 0 0 0-.001-6.724M11.351 18.1a6.211 6.211 0 0 1-5.343-3.084.278.278 0 1 0-.481.279 6.75 6.75 0 0 0 5.823 3.361.278.278 0 0 0 0-.556zm.278-12.7a.278.278 0 0 0-.278-.278 6.748 6.748 0 0 0-5.824 3.363.278.278 0 0 0 .1.38.283.283 0 0 0 .14.038.277.277 0 0 0 .24-.139 6.213 6.213 0 0 1 5.345-3.085.278.278 0 0 0 .277-.279m6.906 2.308a.278.278 0 0 0-.481.278 7.83 7.83 0 0 1 0 7.8.277.277 0 0 0 .1.379.265.265 0 0 0 .138.037.276.276 0 0 0 .241-.139 8.358 8.358 0 0 0 0-8.357zm-13.894 8.08a.278.278 0 1 0-.48.279 8.381 8.381 0 0 0 7.231 4.173.278.278 0 0 0 0-.555 7.854 7.854 0 0 1-6.751-3.897m6.753-12.255A8.386 8.386 0 0 0 4.16 7.708a.278.278 0 0 0 .1.38.27.27 0 0 0 .139.038.279.279 0 0 0 .241-.139 7.853 7.853 0 0 1 6.753-3.9.278.278 0 0 0 0-.556zm8.533 3.41a.278.278 0 1 0-.481.278 9.37 9.37 0 0 1 0 9.334.278.278 0 0 0 .1.379.279.279 0 0 0 .38-.1 9.9 9.9 0 0 0 0-9.889zM11.5 21.444a9.4 9.4 0 0 1-8.08-4.666.278.278 0 0 0-.481.279A9.926 9.926 0 0 0 11.5 22a.278.278 0 0 0 0-.556M3.268 7.222a9.4 9.4 0 0 1 8.083-4.666.278.278 0 1 0 0-.556 9.923 9.923 0 0 0-8.564 4.943.277.277 0 0 0 .1.379.27.27 0 0 0 .139.038.28.28 0 0 0 .242-.138m11.241-.054a.7.7 0 0 0-.292-.064.7.7 0 0 0-.443.159L10.945 9.6H8.486a.7.7 0 0 0-.694.7v3.179a.7.7 0 0 0 .694.693H8.5l2.642-.047 2.609 2.369a.7.7 0 0 0 .465.179.694.694 0 0 0 .694-.7V7.8a.7.7 0 0 0-.401-.632m-.153 8.81a.14.14 0 0 1-.08.126.15.15 0 0 1-.059.012.14.14 0 0 1-.092-.035l-2.69-2.442a.277.277 0 0 0-.187-.072l-2.749.049h-.011a.143.143 0 0 1-.141-.139V10.3a.139.139 0 0 1 .139-.139h2.559a.28.28 0 0 0 .177-.064l2.9-2.4a.15.15 0 0 1 .09-.033.16.16 0 0 1 .06.013.139.139 0 0 1 .08.126z"/></svg>