<svg xmlns="http://www.w3.org/2000/svg" fill="#44739e" viewBox="0 0 24 24"><path d="M18.28 8.729a3.734 3.734 0 0 0-3.719 3.677v.057h.2a3.619 3.619 0 0 1 3.614 3.617v.1l.242-.016.181-.02.18-.03.177-.038.173-.047.169-.054.167-.062.163-.07.158-.076.153-.085.151-.091.144-.1.14-.105.134-.11.13-.117.124-.123.117-.128.113-.134.105-.139.1-.144.093-.148.085-.153.079-.159.071-.162.064-.165.055-.17.048-.173.039-.176.03-.185.021-.182.019-.18v-.186a3.726 3.726 0 0 0-3.72-3.723M7.329 8.636a3.72 3.72 0 0 1 3.715 3.715v.049h.056v.053l.19-.012.187-.021.185-.03.181-.039.178-.047.175-.055.17-.065.167-.071.162-.079.159-.086.153-.094.149-.1.144-.108.138-.114.133-.119.126-.125.123-.133.114-.137.109-.143.1-.148.1-.152.087-.157.081-.163.072-.165.066-.171.058-.173.048-.178.042-.181.031-.185.023-.186.014-.189v-.19a3.821 3.821 0 0 0-7.642-.047v.056h.057c.049-.01.098-.009.149-.01m7.334 0-.005.186-.014.178-.022.181-.031.179-.041.177-.05.173-.056.169-.064.166-.07.161-.079.158-.084.153-.093.148-.1.144-.106.138-.111.135-.119.128-.123.121-.129.117-.135.111-.139.1-.146.1-.148.092-.155.083-.158.078-.162.069-.165.063-.17.053-.173.046-.176.038-.18.029-.182.021-.131.008.13-.008.182-.022h.015-.328v-.152h.979l.037-.012.165-.062.162-.07.158-.077.155-.084.148-.091.146-.1.139-.1.015-.013h-2.185c-.011-.051-.023-.1-.036-.152h2.4l.069-.063.123-.121.119-.129.111-.134.106-.139.016-.024h-3.16c-.023-.051-.047-.1-.073-.152h3.337l.073-.116.084-.152.079-.159.07-.16.009-.023h-4.036c-.04-.052-.082-.1-.124-.152h4.218l.053-.16.047-.172.041-.177.017-.1H9.571c-.074-.053-.149-.1-.226-.152h5.285L14.643 9l.013-.185v-.316c.003.045.006.088.007.132zM9.343 5.3h3.209q.145.07.285.153H9.058q.142-.084.285-.153m-1.06.762h5.325c.048.05.095.1.14.153h-5.6c.04-.054.087-.105.135-.155Zm-.571.762h6.469q.042.075.081.153H7.631q.039-.077.081-.155Zm-.324.762H14.5c.015.051.029.1.042.152H7.346c.013-.053.027-.104.042-.154Zm-.143.762h7.4c0 .051.01.1.012.152H7.236c.002-.053.004-.1.009-.154Zm6.311 6.511h-.216l-.214.008-.209.014-.411.042-.2.029-.386.071-.367.09-.347.107-.324.123-.154.067-.146.071-.14.074-.133.078-.126.081-.118.084-.111.088-.1.09-.1.093-.085.1-.077.1-.068.1-.058.1-.048.105-.038.109-.028.111-.017.112-.005.109c0 1.194 1.894 2.164 4.222 2.164s4.225-.97 4.225-2.164-1.891-2.156-4.221-2.156m-1.425.234.388-.062.2-.023.411-.033.211-.008h.214a7.8 7.8 0 0 1 1.6.162h-3.2zm-2 .792.114-.08.122-.079.129-.076.279-.141.15-.066.03-.011h5.212a3.74 3.74 0 0 1 .825.457h-6.867zm4.937 3.052h-3.02a5.6 5.6 0 0 1-1.4-.457h5.811a5.6 5.6 0 0 1-1.392.457zm1.9-.762h-6.821a2.13 2.13 0 0 1-.465-.457h7.752a2.16 2.16 0 0 1-.466.457m.708-1.152a1.05 1.05 0 0 1-.021.21 1.16 1.16 0 0 1-.054.18H9.515a1.07 1.07 0 0 1-.075-.388v-.069h8.229c.005.022.007.044.007.067m-.57-.372h-7.6l.011-.031.044-.1.054-.1.064-.1.072-.093.039-.043h7.532a1.44 1.44 0 0 1 .282.457zM10.042 13.3c0-1.137-1.8-2.062-4.023-2.062h-.205l-.2.008-.4.031-.383.05-.367.068-.35.085-.33.1-.157.056-.152.061-.285.131-.133.072-.127.074-.12.077-.112.081-.106.083-.1.086-.092.099-.082.092-.073.094-.064.1-.056.1-.046.1-.036.1-.026.106-.016.107L2 13.3c0 1.137 1.8 2.062 4.02 2.062s4.022-.922 4.022-2.062m-.696-1.021a2.6 2.6 0 0 0-.173-.129c.062.05.118.088.173.132ZM8.916 12c-.067-.037-.133-.075-.206-.109.074.031.139.069.206.109m-6.791 1.11.023-.095.033-.094.043-.094.051-.092.06-.091.069-.088.077-.087.086-.084.093-.085.1-.08.109-.077.115-.075.124-.068.13-.069.278-.129.148-.059.154-.055.324-.1.344-.084.361-.067.378-.049.391-.03.2-.008h.2a6.48 6.48 0 0 1 2.6.505H3.409l-.171.079-.13.066-.123.072-.115.074-.109.078-.1.079-.064.057H9.43a1.387 1.387 0 0 1 .47.762H2.123Zm3.895 2.149a6.87 6.87 0 0 1-2.26-.36h4.521a6.88 6.88 0 0 1-2.261.36m3.253-.868h-6.5a1.65 1.65 0 0 1-.607-.762H9.88a1.645 1.645 0 0 1-.607.762"/></svg>