<svg xmlns="http://www.w3.org/2000/svg" viewBox="0 0 24 24"><path fill="#44739e" d="M18.908 8.418a4.107 4.107 0 0 0-4.091 4.044v.063h.22a3.981 3.981 0 0 1 3.975 3.979v.11l.267-.018.199-.022.198-.033.194-.042.191-.051.186-.06.183-.068.18-.077.173-.084.169-.093.166-.1.158-.11.154-.116.148-.121.143-.128.136-.136.129-.14.124-.148.116-.153.11-.158.102-.163.093-.168.087-.175.078-.178.071-.182.06-.187.053-.19.043-.194.033-.203.023-.2.021-.198v-.205a4.099 4.099 0 0 0-4.092-4.095M6.862 8.315a4.092 4.092 0 0 1 4.086 4.087v.054h.062v.058l.209-.013.206-.023.203-.033.199-.043.196-.052.193-.06.187-.072.183-.078.178-.087.175-.094.169-.104.164-.11.158-.119.152-.125.146-.131.139-.137.135-.147.125-.15.12-.158.11-.163.11-.167.096-.172.089-.18.079-.181.073-.188.064-.191.052-.195.047-.2.034-.203.025-.205.015-.208v-.209a4.203 4.203 0 0 0-8.406-.051v.061h.063c.054-.011.108-.01.164-.011m8.067 0-.005.205-.016.196-.024.199-.034.197-.045.194-.055.191-.062.186-.07.182-.077.177-.087.174-.092.168-.103.163-.11.159-.116.151-.122.149-.131.141-.136.133-.141.129-.149.122-.153.11-.16.11-.163.101-.171.091-.174.086-.178.076-.181.069-.187.058-.191.051-.193.042-.198.032-.2.023-.144.009.143-.009.2-.024h.016-.361v-.168h1.077l.041-.013.182-.068.178-.077.174-.085.17-.092.163-.1.16-.11.153-.11.017-.014H10.97c-.012-.057-.025-.11-.039-.168h2.64l.076-.069.135-.133.131-.142.122-.147.117-.153.017-.027h-3.476c-.025-.056-.052-.11-.08-.167h3.671l.08-.127.092-.168.087-.175.077-.176.01-.025h-4.439c-.044-.057-.091-.11-.137-.167h4.64l.058-.176.052-.189.045-.195.019-.11h-5.54c-.081-.058-.164-.11-.249-.167h5.814l.014-.122.015-.204v-.347c.003.049.006.096.007.145ZM9.077 4.646h3.53q.16.077.314.168H8.764q.156-.092.313-.168m-1.166.838h5.858c.053.055.104.11.154.168h-6.16c.044-.059.095-.115.148-.17Zm-.628.838h7.116q.046.083.089.168H7.194q.043-.084.089-.17Zm-.356.838h7.823c.016.056.032.11.046.168H6.881c.014-.059.029-.115.046-.17Zm-.158.839h8.14c0 .056.011.11.014.167H6.76c.002-.059.004-.11.009-.17Zm6.943 7.162h-.238l-.235.008-.23.016-.452.046-.22.032-.425.078-.404.099-.381.118-.357.135-.169.074-.161.078-.154.081-.146.086-.139.089-.129.093-.123.096-.11.099-.11.103-.093.11-.085.11-.075.11-.063.11-.053.115-.042.12-.031.122-.018.123-.006.12c0 1.314 2.083 2.381 4.644 2.381s4.648-1.067 4.648-2.381-2.08-2.371-4.643-2.371m-1.568.257.427-.068.22-.025.452-.037.232-.009h.235a8.58 8.58 0 0 1 1.76.179h-3.52Zm-2.2.871.125-.088.135-.087.142-.083.306-.155.165-.073.033-.012h5.734a4.1 4.1 0 0 1 .907.503H9.937Zm5.431 3.357h-3.322a6.16 6.16 0 0 1-1.54-.502h6.392a6.16 6.16 0 0 1-1.531.502Zm2.09-.838H9.962a2.34 2.34 0 0 1-.512-.502h8.527a2.38 2.38 0 0 1-.512.502m.779-1.267a1.16 1.16 0 0 1-.024.231 1.3 1.3 0 0 1-.059.198H9.266a1.18 1.18 0 0 1-.082-.427v-.076h9.052c.005.025.008.049.008.074m-.627-.409h-8.36l.012-.034.048-.11.06-.11.07-.11.079-.103.043-.047h8.285a1.58 1.58 0 0 1 .31.503Zm-7.771-3.686c0-1.251-1.98-2.268-4.425-2.268h-.226l-.22.008-.44.034-.421.055-.404.075-.385.094-.363.11-.172.061-.168.067-.313.145-.146.079-.14.081-.132.085-.123.089-.117.091-.11.095-.101.109-.09.101-.081.103-.07.11-.062.11-.05.11-.04.11-.028.117-.018.118-.001.111c0 1.25 1.98 2.268 4.422 2.268s4.424-1.014 4.424-2.268m-.765-1.123a3 3 0 0 0-.191-.142c.068.055.13.097.191.145Zm-.473-.307c-.074-.041-.147-.083-.227-.12.081.034.153.076.227.12m-7.471 1.221.026-.105.036-.103.047-.104.056-.101.066-.1.076-.097.085-.095.095-.093.102-.093.11-.088.12-.085.126-.082.137-.075.143-.076.306-.142.162-.065.17-.06.356-.11.379-.093.397-.074.415-.053.431-.033.22-.009h.22a7.13 7.13 0 0 1 2.86.555H2.55l-.188.087-.143.073-.136.079-.126.081-.12.086-.11.087-.07.063h7.516a1.526 1.526 0 0 1 .517.838H1.135Zm4.285 2.364a7.56 7.56 0 0 1-2.486-.396h4.973a7.57 7.57 0 0 1-2.487.396M9 14.646H1.85a1.815 1.815 0 0 1-.667-.838h8.485a1.81 1.81 0 0 1-.668.838"/></svg>