<svg xmlns="http://www.w3.org/2000/svg" viewBox="0 0 24 24"><path fill="#44739e" d="m22.994 10.054.002-2.213q.001-1.66 0-3.321a3.416 3.416 0 0 0-.885-2.35 3.28 3.28 0 0 0-2.408-1.152c-.679-.022-1.367-.019-2.032-.016l-.735.002-4.569-.001-1.828.001-1.427-.001q-2.144-.001-4.284.003a5.57 5.57 0 0 0-.941.056 3.382 3.382 0 0 0-2.452 1.746 3.426 3.426 0 0 0-.432 1.75q.004 1.228.001 2.457l-.001 3.874.001 8.562a3.7 3.7 0 0 0 .016.42 3.434 3.434 0 0 0 .861 1.951 3.317 3.317 0 0 0 2.371 1.157c.358.017.72.021 1.076.021.145 0 .289-.001.431-.001l.432-.002q2.178.003 4.356.001l1.626-.001 2.466.001q2.43 0 4.858-.003a3.395 3.395 0 0 0 2.395-.943 3.448 3.448 0 0 0 1.104-2.612q.003-2.75.001-5.5Zm-1.083 9.443a2.383 2.383 0 0 1-1.913 2.36 2.76 2.76 0 0 1-.561.053q-2.768.004-5.535.002H4.534a2.395 2.395 0 0 1-2.352-1.748 2.33 2.33 0 0 1-.092-.638q-.007-4.857-.004-9.714V6.5q.001-.994-.001-1.988a2.382 2.382 0 0 1 1.854-2.358 4.18 4.18 0 0 1 .883-.066q2.486-.004 4.971-.003h5.492q2.127-.002 4.256.002a2.391 2.391 0 0 1 2.33 1.99 3.2 3.2 0 0 1 .039.494q.003 3.717.002 7.436ZM11.468 8.921h1.061v2.152h-1.061Zm-2.596 4.793h1.702v1.061H8.872Zm4.667 1.061h1.702v-1.061h-1.702Zm2.705-8.611H7.757a1.593 1.593 0 0 0-1.591 1.591v8.486a1.593 1.593 0 0 0 1.591 1.592h8.487a1.593 1.593 0 0 0 1.591-1.592V7.755a1.593 1.593 0 0 0-1.591-1.591m.53 10.077a.531.531 0 0 1-.53.531H7.757a.531.531 0 0 1-.53-.531V7.755a.531.531 0 0 1 .53-.53h8.487a.531.531 0 0 1 .53.53Z"/></svg>