<svg xmlns="http://www.w3.org/2000/svg" viewBox="0 0 24 24"><path fill="#44739e" d="m22.994 10.054.001-2.213q.002-1.66.001-3.321a3.416 3.416 0 0 0-.886-2.35 3.28 3.28 0 0 0-2.407-1.152c-.679-.022-1.367-.019-2.032-.016l-.735.002-4.569-.001-1.828.001-1.427-.001q-2.145-.001-4.283.003a5.57 5.57 0 0 0-.942.057 3.382 3.382 0 0 0-2.452 1.745 3.426 3.426 0 0 0-.432 1.75q.004 1.228.001 2.457l-.001 3.874.001 8.562a3.7 3.7 0 0 0 .016.42 3.434 3.434 0 0 0 .861 1.951 3.317 3.317 0 0 0 2.371 1.157c.358.017.72.021 1.076.021.145 0 .289-.001.431-.001l.432-.002q2.178.003 4.356.001l1.626-.001 2.466.001q2.43 0 4.858-.003a3.395 3.395 0 0 0 2.395-.943 3.448 3.448 0 0 0 1.104-2.612q.003-2.75.001-5.5Zm-1.083 9.443a2.383 2.383 0 0 1-1.913 2.36 2.76 2.76 0 0 1-.561.053q-2.768.004-5.535.002H4.534a2.395 2.395 0 0 1-2.352-1.748 2.33 2.33 0 0 1-.092-.638q-.007-4.857-.004-9.713V6.5q.001-.994-.001-1.988a2.382 2.382 0 0 1 1.854-2.358 4.18 4.18 0 0 1 .883-.066q2.486-.004 4.971-.003h5.492q2.127-.002 4.256.002a2.391 2.391 0 0 1 2.33 1.99 3.2 3.2 0 0 1 .039.494q.003 3.718.002 7.436ZM12.004 5.438H12a6.591 6.591 0 0 0-6.559 6.515 6.542 6.542 0 0 0 6.558 6.602h.017a6.559 6.559 0 0 0-.012-13.117m1.357 11.706v-1.393h-2.723v1.393a5.322 5.322 0 0 1-.005-10.289v1.391h2.726V6.855a5.319 5.319 0 0 1 .002 10.289m-3.977-6.77h-.013a1.624 1.624 0 0 0-1.634 1.622 1.628 1.628 0 0 0 1.629 1.629 1.623 1.623 0 0 0 1.162-.483 1.597 1.597 0 0 0 .465-1.148 1.618 1.618 0 0 0-1.609-1.62m-.017 2.27a.643.643 0 1 1 .644-.623.651.651 0 0 1-.644.623m5.25-2.271a1.598 1.598 0 0 0-1.136.473 1.628 1.628 0 0 0 1.146 2.779h.002a1.63 1.63 0 0 0 1.155-.477 1.607 1.607 0 0 0 .478-1.15 1.638 1.638 0 0 0-1.644-1.625Zm.656 1.622a.647.647 0 0 1-.64.649.643.643 0 0 1-.009-1.287.642.642 0 0 1 .649.638"/></svg>