<svg xmlns="http://www.w3.org/2000/svg" fill="#44739e" viewBox="0 0 24 24"><path d="m22.3637 10.166.001-2.0868q.0013-1.565.0008-3.1305a3.22 3.22 0 0 0-.835-2.2152 3.093 3.093 0 0 0-2.2694-1.0861c-.6405-.0206-1.2884-.0174-1.916-.0147l-.6929.0019-4.307-.001-1.7229.0005-1.3453-.0005q-2.0213-.0007-4.0377.0028a5.25 5.25 0 0 0-.8873.0532A3.188 3.188 0 0 0 2.04 3.3354a3.23 3.23 0 0 0-.407 1.649q.0035 1.1583.001 2.3166l-.0005 3.6518.0009 8.0707a3.5 3.5 0 0 0 .0151.3965 3.237 3.237 0 0 0 .8117 1.839 3.127 3.127 0 0 0 2.2345 1.0901c.3372.0165.6786.0202 1.0149.0202.1363 0 .2716-.001.4056-.001l.4074-.0017q2.053.0027 4.106.0009l1.533-.001 2.3248.001q2.2905 0 4.5792-.0028a3.2 3.2 0 0 0 2.2583-.8892 3.25 3.25 0 0 0 1.0406-2.462q.0027-2.592.001-5.1848Zm-1.0214 8.9008a2.2466 2.2466 0 0 1-1.8032 2.2252 2.6 2.6 0 0 1-.5285.0496q-2.6098.004-5.2178.0018h-8.831a2.258 2.258 0 0 1-2.2175-1.6472 2.2 2.2 0 0 1-.0867-.602q-.0062-4.578-.0037-9.1563l.0005-3.1223q.0007-.9374-.001-1.8743a2.245 2.245 0 0 1 1.7472-2.2225 3.94 3.94 0 0 1 .8328-.0625q2.3428-.0034 4.686-.0027h5.1765q2.0056-.0021 4.012.0018a2.254 2.254 0 0 1 2.1969 1.8762 3 3 0 0 1 .0366.4652q.0028 3.5045.0019 7.0095Zm-9.844-9.969h1v2.0282h-1Zm-2.4475 4.5184h1.605v1h-1.605Zm4.3994 1h1.6045v-1h-1.6045ZM16 6.4985H8a1.5016 1.5016 0 0 0-1.5 1.5v7.9996a1.5016 1.5016 0 0 0 1.5 1.5h8a1.5016 1.5016 0 0 0 1.5-1.5V7.9984a1.5016 1.5016 0 0 0-1.5-1.5m.5 9.4996a.501.501 0 0 1-.5.5H8a.5007.5007 0 0 1-.5-.5V7.9984a.5003.5003 0 0 1 .5-.5h8a.5007.5007 0 0 1 .5.5Z"/></svg>