<svg xmlns="http://www.w3.org/2000/svg" fill="#44739e" viewBox="0 0 24 24"><path d="m22.3637 10.166.0009-2.0868q.0014-1.565.001-3.1306a3.22 3.22 0 0 0-.8352-2.2152 3.093 3.093 0 0 0-2.2693-1.086c-.6405-.0207-1.2884-.0175-1.916-.0147l-.6929.0018-4.307-.0009-1.7229.0005-1.3453-.0005q-2.0214-.0007-4.0377.0028a5.25 5.25 0 0 0-.8873.0532A3.188 3.188 0 0 0 2.04 3.3354a3.23 3.23 0 0 0-.407 1.649q.0035 1.1583.001 2.3166l-.0005 3.6518.0009 8.0708a3.5 3.5 0 0 0 .0151.3964 3.237 3.237 0 0 0 .8117 1.839 3.127 3.127 0 0 0 2.2345 1.0901c.3372.0166.6786.0202 1.0149.0202.1363 0 .2716-.0009.4056-.0009l.4074-.0018q2.053.0027 4.106.0009l1.533-.001 2.3248.001q2.2905 0 4.5791-.0028a3.2 3.2 0 0 0 2.2584-.8892 3.25 3.25 0 0 0 1.0406-2.462q.0027-2.592.001-5.1848Zm-1.0214 8.9007a2.2466 2.2466 0 0 1-1.8032 2.2253 2.6 2.6 0 0 1-.5285.0496q-2.6098.004-5.2178.0018h-8.831a2.258 2.258 0 0 1-2.2175-1.6472 2.2 2.2 0 0 1-.0867-.602q-.0062-4.5782-.0037-9.1563l.0005-3.1223q.0007-.9374-.001-1.8743a2.245 2.245 0 0 1 1.7472-2.2226 3.94 3.94 0 0 1 .8328-.0624q2.3428-.0034 4.686-.0027h5.1765q2.0055-.0021 4.012.0018a2.254 2.254 0 0 1 2.1968 1.8762 3 3 0 0 1 .0367.4652q.0028 3.5045.0019 7.0095Zm-9.339-13.2523h-.004a6.2133 6.2133 0 0 0-6.1823 6.141 6.167 6.167 0 0 0 6.1818 6.224h.0156a6.1825 6.1825 0 0 0-.011-12.365Zm1.2793 11.0343v-1.3131h-2.5671v1.3131a5.0164 5.0164 0 0 1-.0046-9.699v1.3112h2.5699V7.1501a5.0142 5.0142 0 0 1 .0018 9.6986M9.534 10.467h-.0124a1.5306 1.5306 0 0 0-1.5407 1.5288 1.535 1.535 0 0 0 1.5357 1.5357h.0004a1.53 1.53 0 0 0 1.0952-.4551 1.505 1.505 0 0 0 .4382-1.0824 1.525 1.525 0 0 0-1.5164-1.527m-.0166 2.1396a.6063.6063 0 1 1 .6077-.587.6133.6133 0 0 1-.6077.587m4.949-2.1405a1.506 1.506 0 0 0-1.071.4464 1.5346 1.5346 0 0 0 1.081 2.619h.0019a1.536 1.536 0 0 0 1.0883-.4496 1.515 1.515 0 0 0 .4506-1.0842 1.544 1.544 0 0 0-1.55-1.5316Zm.619 1.5292a.61.61 0 0 1-.604.6113.6062.6062 0 0 1-.008-1.2123.6056.6056 0 0 1 .612.601"/></svg>