<svg xmlns="http://www.w3.org/2000/svg" viewBox="0 0 24 24"><path fill="#44739e" d="M19.426 10.02a.726.726 0 0 0-.509-.21H1.361a.359.359 0 0 0-.254.614l3.467 3.468a.72.72 0 0 0 .509.21h17.556a.359.359 0 0 0 .254-.614ZM1.361 7.671h17.556a.72.72 0 0 0 .509-.21l3.464-3.468a.359.359 0 0 0-.254-.614H5.083a.745.745 0 0 0-.509.21L1.11 7.058a.359.359 0 0 0 .251.613m21.278 8.658H5.083a.72.72 0 0 0-.509.21L1.11 20.007a.359.359 0 0 0 .254.614H18.92a.726.726 0 0 0 .509-.21l3.461-3.469a.359.359 0 0 0-.251-.613"/></svg>