<svg xmlns="http://www.w3.org/2000/svg" viewBox="0 0 24 24"><path fill="#44739e" d="M6.839 11.479a1.036 1.036 0 1 0 .981 1.03 1.01 1.01 0 0 0-.981-1.03m0 1.75a.717.717 0 1 1 .641-.718.678.678 0 0 1-.641.718m3.468-1.75a1.1 1.1 0 0 0-.691.261l-.049-.153a.072.072 0 0 0-.079-.059h-.09a.097.097 0 0 0-.093.093v1.786a.098.098 0 0 0 .093.094h.154a.097.097 0 0 0 .094-.094v-1.321a.97.97 0 0 1 .635-.281c.277 0 .441.183.441.557v1.041a.098.098 0 0 0 .094.093h.158a.097.097 0 0 0 .093-.093v-1.041c.004-.508-.19-.883-.76-.883m9.773 0a1.1 1.1 0 0 0-.691.261l-.044-.153a.073.073 0 0 0-.079-.059h-.093a.097.097 0 0 0-.094.093v1.786a.098.098 0 0 0 .095.094h.151a.098.098 0 0 0 .094-.094v-1.321a.972.972 0 0 1 .637-.281c.275 0 .44.183.44.557v1.041a.096.096 0 0 0 .093.093h.157a.098.098 0 0 0 .095-.093v-1.041c.003-.508-.19-.883-.761-.883m-3.287-.001a1.037 1.037 0 0 0 0 2.07 1.22 1.22 0 0 0 .725-.227c.074-.054.054-.083.021-.127l-.084-.111c-.041-.053-.071-.028-.139.009a.936.936 0 0 1-.488.149.69.69 0 0 1-.66-.641h1.419a.09.09 0 0 0 .088-.084 1.1 1.1 0 0 0 .011-.133v-.057a.87.87 0 0 0-.893-.848m-.621.845a.613.613 0 0 1 .621-.543.57.57 0 0 1 .551.543Zm-2.605-.844a1.1 1.1 0 0 0-.689.261l-.046-.153a.073.073 0 0 0-.078-.059h-.094a.097.097 0 0 0-.094.093v1.786a.098.098 0 0 0 .094.094h.153a.097.097 0 0 0 .093-.094v-1.321a.97.97 0 0 1 .636-.281c.276 0 .44.183.44.557v1.041a.099.099 0 0 0 .095.093h.158a.096.096 0 0 0 .093-.093v-1.041c.003-.508-.19-.883-.761-.883M11.989 1A11 11 0 1 0 23 12 11.011 11.011 0 0 0 11.989 1m.121 21.391A10.094 10.094 0 0 1 2.009 12.305 10.094 10.094 0 0 1 12.107 2.211a10.094 10.094 0 0 1 10.101 10.086 10.095 10.095 0 0 1-10.095 10.094ZM3.937 12.323c-.202-.101-.366-.173-.366-.331 0-.083.06-.198.281-.198a.98.98 0 0 1 .395.119.11.11 0 0 0 .142-.044l.041-.079a.12.12 0 0 0-.031-.153 1.005 1.005 0 0 0-.55-.152.551.551 0 0 0-.626.513c0 .33.301.506.562.635.286.142.434.22.434.395 0 .133-.119.236-.321.236a.83.83 0 0 1-.462-.172.092.092 0 0 0-.131.009c-.015.024-.049.094-.07.123a.101.101 0 0 0 .026.104 1 1 0 0 0 .64.22.624.624 0 0 0 .681-.557c0-.353-.301-.505-.645-.668"/></svg>