<svg xmlns="http://www.w3.org/2000/svg" fill="#44739e" viewBox="0 0 24 24"><path d="M7.323 11.527a.941.941 0 1 0 .891.935.917.917 0 0 0-.891-.935m0 1.589a.651.651 0 1 1 .582-.652.616.616 0 0 1-.582.652m3.149-1.589a1 1 0 0 0-.627.237l-.045-.139a.065.065 0 0 0-.071-.054h-.082a.088.088 0 0 0-.085.085v1.622a.089.089 0 0 0 .085.085h.14a.088.088 0 0 0 .085-.085v-1.2a.88.88 0 0 1 .577-.255c.251 0 .4.166.4.506v.945a.089.089 0 0 0 .086.085h.143a.088.088 0 0 0 .085-.085v-.945c.003-.462-.173-.802-.691-.802m8.876 0a1 1 0 0 0-.627.237l-.04-.139a.066.066 0 0 0-.072-.054h-.085a.088.088 0 0 0-.085.085v1.622a.089.089 0 0 0 .086.085h.137a.089.089 0 0 0 .086-.085v-1.2a.883.883 0 0 1 .578-.255c.25 0 .4.166.4.506v.945a.087.087 0 0 0 .084.085h.143a.089.089 0 0 0 .086-.085v-.945c.003-.462-.172-.802-.691-.802m-2.985-.001a.942.942 0 0 0 0 1.88 1.107 1.107 0 0 0 .658-.206c.068-.049.049-.076.019-.116l-.076-.1c-.037-.049-.064-.026-.126.008a.85.85 0 0 1-.443.135.627.627 0 0 1-.6-.582h1.289a.082.082 0 0 0 .08-.076 1 1 0 0 0 .01-.121v-.052a.79.79 0 0 0-.811-.77m-.564.767a.557.557 0 0 1 .564-.493.518.518 0 0 1 .5.493zm-2.366-.766a1 1 0 0 0-.626.237l-.041-.139a.066.066 0 0 0-.071-.054h-.086a.088.088 0 0 0-.085.085v1.622a.089.089 0 0 0 .085.085h.139a.088.088 0 0 0 .085-.085v-1.2a.882.882 0 0 1 .577-.255c.251 0 .4.166.4.506v.945a.09.09 0 0 0 .086.085h.144a.087.087 0 0 0 .084-.085v-.945c.003-.462-.172-.802-.691-.802M12 2.01A9.99 9.99 0 1 0 22 12a10 10 0 0 0-10-9.99m.11 19.427a9.167 9.167 0 0 1-9.174-9.16 9.167 9.167 0 0 1 9.171-9.167 9.167 9.167 0 0 1 9.174 9.16 9.168 9.168 0 0 1-9.168 9.167zm-7.423-9.144c-.183-.091-.332-.157-.332-.3 0-.076.054-.18.255-.18a.89.89 0 0 1 .359.108.1.1 0 0 0 .129-.04l.037-.072a.109.109 0 0 0-.028-.139.913.913 0 0 0-.5-.138.5.5 0 0 0-.568.466c0 .3.273.46.51.577.26.129.394.2.394.359 0 .12-.108.214-.291.214a.754.754 0 0 1-.42-.156.084.084 0 0 0-.119.008c-.013.022-.044.085-.063.112a.092.092 0 0 0 .023.094.907.907 0 0 0 .582.2.567.567 0 0 0 .618-.506c0-.321-.273-.459-.586-.607"/></svg>