<svg xmlns="http://www.w3.org/2000/svg" viewBox="0 0 24 24"><path fill="#44739e" d="M11.758 9.427a.286.286 0 0 0 .2-.11.58.58 0 0 0 .085-.204c.047-.178.098-.18.123-.181.051 0 .104.062.11.151a.356.356 0 0 1-.047.166l-.012.012.11.138.003-.009a.44.44 0 0 0 .121-.308.39.39 0 0 0-.081-.24.254.254 0 0 0-.406.009.59.59 0 0 0-.085.206c-.047.178-.098.179-.123.18-.051 0-.104-.061-.11-.151a.35.35 0 0 1 .047-.166l.012-.013-.104-.137-.012.013a.43.43 0 0 0-.122.307.394.394 0 0 0 .082.24.265.265 0 0 0 .209.097m.277 3.539a.496.496 0 0 0 .485-.506.487.487 0 0 0-.506-.484.496.496 0 0 0-.485.505.49.49 0 0 0 .506.485m-.017-.813a.318.318 0 0 1 .014.635.321.321 0 0 1-.325-.311.315.315 0 0 1 .311-.324m-.032-1.536a.496.496 0 0 0-.021-.99.506.506 0 0 0-.485.506.49.49 0 0 0 .506.484m-.018-.813a.318.318 0 1 1-.31.324.315.315 0 0 1 .31-.324m.484 1.87-.003-.178-.521.011.546-.609-.939.02.004.177.52-.011-.546.61Zm-.004 1.588a.261.261 0 0 0-.206-.097.186.186 0 0 0-.188.11.63.63 0 0 0-.085.205c-.046.178-.098.179-.123.18-.051 0-.102-.062-.105-.151a.374.374 0 0 1 .048-.166v-.012l-.11-.137-.009.014a.43.43 0 0 0-.121.307.39.39 0 0 0 .081.24.254.254 0 0 0 .406-.009.59.59 0 0 0 .085-.205c.047-.179.098-.18.123-.18.051 0 .104.06.11.149a.35.35 0 0 1-.047.167l-.012.013.104.137.012-.013a.43.43 0 0 0 .122-.307.396.396 0 0 0-.085-.245M6.027 4.006a1.889 1.889 0 0 0 .712 1.847 8.82 8.82 0 0 0 5.404 1.795 9.66 9.66 0 0 0 3.48-.653l.726-.406a4.3 4.3 0 0 0 .587-.427l.022-.02a2.427 2.427 0 0 0 .805-1.296v-.03a2.04 2.04 0 0 0 .034-.347 2.963 2.963 0 0 0-1.583-2.373 7.23 7.23 0 0 0-2.608-.959H13.6l-.049-.008A10.17 10.17 0 0 0 9.11 1.4a8.4 8.4 0 0 0-.48.159 3.502 3.502 0 0 0-2.603 2.447m12.034.448-.043.022c0-.042-.009-.085-.015-.128a2.1 2.1 0 0 0-.087-.37 2.7 2.7 0 0 0-.33-.66 4.13 4.13 0 0 0-1.236-1.161l-.013.021a4.5 4.5 0 0 1 .55.44 3.5 3.5 0 0 1 .504.578 2.5 2.5 0 0 1 .307.625 2.01 2.01 0 0 1 .102.643v.194a2.536 2.536 0 0 1-1.43 2.068l-.732.407a9.72 9.72 0 0 1-3.498.661 8.876 8.876 0 0 1-5.431-1.801 1.811 1.811 0 0 1-.711-1.541 1.98 1.98 0 0 1 .028-.449 2.597 2.597 0 0 1 .757-1.38 3.85 3.85 0 0 1 .781-.598 5 5 0 0 1 .55-.28 5.3 5.3 0 0 0-.691.34 4.1 4.1 0 0 0-.814.627 2.773 2.773 0 0 0-.802 1.465 2.2 2.2 0 0 0-.03.464c0 .053.007.105.012.157l-.049-.034v14.47l.033.052a5.82 5.82 0 0 0 2.924 2.2 9.46 9.46 0 0 0 1.957.503 10.3 10.3 0 0 0 1.518.11c.18 0 .363-.006.542-.014a8.38 8.38 0 0 0 3.289-.816 5.49 5.49 0 0 0 1.308-.902 4.34 4.34 0 0 0 .927-1.251l.022-.044Zm-.258 14.541a3.9 3.9 0 0 1-.794 1.051 5.02 5.02 0 0 1-1.155.813 6.74 6.74 0 0 1-1.459.55 8.9 8.9 0 0 1-1.705.252 10 10 0 0 1-.539.014 9.9 9.9 0 0 1-1.493-.11 8.7 8.7 0 0 1-1.84-.485 6.57 6.57 0 0 1-1.526-.825A4.56 4.56 0 0 1 6.2 19.134l-.01-.016V5.782a2.16 2.16 0 0 0 .384.385 8.78 8.78 0 0 0 2.099 1.201 9.13 9.13 0 0 0 2.31.59 9.7 9.7 0 0 0 1.142.068 10.02 10.02 0 0 0 3.61-.68h.008l.746-.416a3.66 3.66 0 0 0 1.14-1.039l.178 13.093ZM16.214 2.096l.126.083.014-.021a6.4 6.4 0 0 0-.969-.499 6.05 6.05 0 0 1 .829.44Zm1.177 18.362a5.64 5.64 0 0 1-1.337.922 8.505 8.505 0 0 1-3.337.829 10 10 0 0 1-.55.014 10.4 10.4 0 0 1-1.54-.11 9.54 9.54 0 0 1-1.981-.509 6.11 6.11 0 0 1-2.834-2.028C6.102 21.361 9.014 23 12.025 23c2.906 0 5.556-1.382 5.932-3.179a4.6 4.6 0 0 1-.566.637"/></svg>