<svg xmlns="http://www.w3.org/2000/svg" fill="#44739e" viewBox="0 0 24 24"><path d="M2.3 10.788c.011-.04.021-.09.052-.11a.13.13 0 0 1 .084-.059l.135.01v-.01h.01l.114.02.136.01v-.011l.113.021.147.02.145.01.167.02.539.05.291.02.177.02.1.01.126.01.124.01h.135l.166.02.125.01v-.01l.093.021H5.3l.105.01.134.019.406.03.125.011.177.019.456.04.146.011v.01l.135.009v-.01l.1.01v.01l.24.021v-.01h.02v.01l.447.04.114.01.135.02.51.04.125.01.146.02v-.01l.113.01v.01l.25.021.128.009.126.01.25.03h.061l.385.039.374.031.136.02.281.019.134.01.135.021v-.01l.115.01v.01l.27.02.124.01.145.019h.094l.041.011.052.01.156.009V11.5l.072.02h.02l.833.079.571.051h.1l.126.009v.011l.124.01v-.01l.126.019.395.039v-.01l.041.01.041.011h.031l.657.06.27.021.154.02h.093l.127.011v.01l.654.059v-.011l.126.011v.01l.187.02v-.01l.072.01 1.186.109.27.031v-.01l.072.01.041.011.708.06h.072v.01l.666.061.541.05h.041a.218.218 0 0 1 .177.2zm18.5 1.959L2.322 11.058l-.01-.1L20.8 12.617zm0 .249L2.333 11.308v-.09L20.8 12.876Zm0 .25L2.354 11.568v-.091l18.446 1.66Zm-.01.26L4.217 12H4.2a.39.39 0 0 0-.251-.121L20.8 13.387Zm0 .26L4.33 12.227a.13.13 0 0 0-.031-.089l16.5 1.5zm0 .25L4.371 12.487l-.01-.12L20.8 13.9Zm0 .16-.514.16.03 2.018.49-.19v.36L2.592 14.665v-.109l17.536 1.758-.01-.18-17.536-1.727-.01-.092 17.567 1.72V15.9l-15.8-1.569a.6.6 0 0 0 .062-.082l15.738 1.533-.011-.136-15.685-1.537-.01-.13L20.108 15.5v-.139L4.433 13.846l-.01-.139 15.685 1.528-.01-.18-15.676-1.479-.016-.17 15.716 1.54-.01-.18L4.4 13.277v-.14l15.725 1.528-.01-.179-15.725-1.48-.012-.169 15.728 1.539v-.16L4.381 12.737l-.011-.13 16.424 1.559Zm0 2.588L2.613 14.915l-.01-.11 18.19 1.889zm0 .279L2.633 15.185l-.01-.12 18.17 1.879zm-.062.22a.186.186 0 0 1-.134.06l-.11-.02h-.01l-1.018-.1-.1-.021-.136-.01h-.03l-.864-.09-.031-.01-.144-.01-.125-.01v-.011l-.177-.02-.769-.068-.125-.021-1.05-.109-.146-.01-.124-.01v-.01l-.78-.08-.136-.01-.125-.01v-.011l-.789-.079-.136-.01-.125-.01v-.011l-.146-.01-.124-.01-.135-.021v.011l-.093-.019-.666-.07-.135-.01-.666-.07-.113-.01-.125-.021-.26-.029v.011l-.135-.011V16.3l-.676-.07-.123-.01-.135-.021v.011l-.134-.021-.124-.01-.094-.009-.416-.049-.136-.01-.124-.021v.011l-.136-.021-.125-.01-.145-.011v-.01l-.136-.01v.01l-.1-.018-.156-.021-.118-.01-.134-.021v.011l-.125-.021-.136-.008-.114-.011v-.01l-.136-.01v.01l-.125-.01v-.01l-.136-.02h-.115l-.136-.01-.166-.021-.125-.01-.145-.011v-.01l-.124-.008h-.108v-.01l-.124-.021v.01l-.125-.02h-.021l-.115-.021h-.01v.01l-.144-.02-.137-.01-.092-.009-.126-.02v.01l-.134-.01V15.7l-.147-.021v.01l-.123-.02-.145-.005-.1-.01v-.01l-.156-.01-.286-.034-.281-.028v.01l-.25-.041-.143-.01-.148-.01v-.011L3.3 15.5l-.137-.01v-.008l-.123-.011v.011l-.158-.021v-.01l-.082-.008a1 1 0 0 1-.125-.1l18.077 1.889c0 .009-.011.02-.021.03M2.551 14.1l1.144.09a.7.7 0 0 0 .082.1l-1.216-.11Zm-.02-.31 1.079.1v.079a.18.18 0 0 0 .022.07l-1.09-.09zm-.021-.259 1.08.1.01.13-1.08-.1zm-.021-.281 1.09.09v.151L2.5 13.4Zm-.01-.139-.01-.13 1.09.1.01.13zm-.031-.41 1.09.1c0 .03.011.061.011.08a.17.17 0 0 0 .01.07l-1.1-.1zm-.02-.28 1.1.1v.151l-1.09-.1zm-.021-.229 1.111.1v.01a.24.24 0 0 0 0 .089l-1.1-.1zm-.01-.229 1.172.11a.34.34 0 0 0-.041.089l-1.134-.1zm1.515.569a.325.325 0 0 1-.281-.29.232.232 0 0 1 .26-.242.309.309 0 0 1 .3.29.23.23 0 0 1-.28.239m.389 1.407a.3.3 0 0 1 .021.09c.01.011.01.011.01.021a.19.19 0 0 1-.021.109.1.1 0 0 1-.051.08.252.252 0 0 1-.219.07.32.32 0 0 1-.2-.1.312.312 0 0 1-.083-.2.2.2 0 0 1 .072-.16.134.134 0 0 1 .072-.051.116.116 0 0 1 .1-.019c.01-.01.01-.01.02-.01a.28.28 0 0 1 .115.031.26.26 0 0 1 .093.061.57.57 0 0 1 .073.089m-.311-.519a.324.324 0 0 1-.291-.29.246.246 0 0 1 .27-.24.328.328 0 0 1 .3.288.236.236 0 0 1-.28.242m-1.617-1.683 1.476.129a.38.38 0 0 0-.1.021.217.217 0 0 0-.1.059l-1.267-.119Zm19.075-4.288h-.041L4.9 6.242a.276.276 0 0 0-.229.121l-2.463 4.045-.052.049a.5.5 0 0 0-.156.31v.1l.156 1.948.072.919v.031l.126 1.547a.47.47 0 0 0 .415.449l10.1 1.07h.01l7.692.8h.041a.5.5 0 0 0 .333-.121.46.46 0 0 0 .146-.279l.01-.021.854-4.736a.68.68 0 0 0 .02-.2L22 8.049a.59.59 0 0 0-.551-.6M3.891 13l.023.281h.01l.123.01-.01-.079-.01-.2h-.011L3.9 13Zm.062.88.01.09-.1-.021.01.111.093.021.01.109.1.01v-.1h.1l-.011-.109-.092-.01-.011-.1zm16.518 3.42-1.018-.1-.1-.021zm-1.289-.13-.863-.091-.031-.01zm-1.039-.111-.126-.01v-.011zm-.3-.039-.769-.07-.125-.021zm-1.944-.2-.146-.01-.125-.01zm-1.186-.12-.125-.01v-.011zm-1.175-.131.26.031-.135-.01-.125-.01zm-.406-.04.26.031-.124-.01zm-.092-.01.092.01v.011zm-1.7-.179 1.038.11-.133-.01-.667-.07-.114-.01zm-.4-.041.134.01v.011l-.134-.011ZM10 16.2l.26.03-.125-.01Zm-.769-.079L10 16.2v.011l-.136-.021-.123-.01-.095-.011Zm-.26-.031v.011l-.135-.021Zm-.26-.02-.145-.011v-.01zm-.281-.029v.01l-.1-.021Zm-.509-.062v.011l-.121-.017Zm-.125-.01-.135-.01-.113-.011v-.008Zm-.384-.039v.01l-.126-.01v-.01Zm-.8-.079-.144-.011v-.01Zm-.27-.031h-.1v-.01Zm-.226-.02v.01l-.123-.02Zm-.27-.031v.011l-.146-.026Zm-.5-.049v.01l-.134-.01v-.01Zm-.281-.031v.01l-.123-.02Zm-.123-.01-.142-.016-.1-.01v-.01zm-.25-.031-.156-.01-.281-.028-.281-.031v.01l-.25-.04.531.052.281.028zm-1.112-.114-.146-.01v-.01zm-.28-.029-.136-.01v-.01zm-.26-.031v.011l-.157-.021v-.009zm16.34-3.307v.011l-.072-.011zm-.822-.063h-.072v-.011zm-1.527-.14h-.072v-.011zm-.26-.031v.009l-.123-.012v-.01zm-.779-.07v.01l-.124-.01v-.01zm-1.414-.131.041.011h-.041zm-.52-.049.125.021-.125-.011zm-.25-.021.125.011v.01l-.125-.01zm-1.527-.129-.072-.01v-.011ZM12 11.5h-.04v-.01zm-.676-.07v.01l-.113-.01v-.01zm-2.38-.22v.01l-.113-.009V11.2Zm-1.591-.14h-.02v-.01h.02zm-.26-.031v.011l-.1-.011v-.009Zm-1.807-.16-.092-.01v-.009Zm-.219-.021-.167-.007v-.01zm-2.12-.2-.113-.01v-.011zm-.25-.021-.123-.01v-.01h.01"/></svg>