<svg xmlns="http://www.w3.org/2000/svg" fill="#44739e" viewBox="0 0 24 24"><path d="M21.696 15.295c-.6047.4808-1.5173.9283-2.9804.5408L2.204 9.9105l-.002-.0766 16.5236 5.9135c1.8201.47 2.813-.3905 2.9744-.5468zm-.0085.184c-.6037.4779-1.5153.9194-2.9724.533L2.2085 10.0807l-.002-.0926 16.5016 5.94c1.8602.481 2.856-.4298 2.9844-.5566zm-.0057.1524c-.5055.5163-1.5765.9058-2.9855.5566L2.2208 10.2372l-.0058-.0817 16.4936 5.9499c1.8252.472 2.819-.3964 2.9754-.5488zm-.0057.1661c-.5085.5124-1.5755.897-2.9784.5498L2.225 10.3945l-.0029-.072 16.4595 5.9361c.001 0 .002.001.0029.001 1.8853.4878 2.8891-.4357 2.9944-.539zm-.0057.1662c-.5115.5094-1.5755.888-2.9714.5428L2.2314 10.5518l-.0028-.0817L18.683 16.419c.001 0 .002.001.003.001 1.8491.4769 2.85-.4023 2.9874-.5331zm-.0085.1781c-.5395.6393-1.9615.829-2.9332.533L2.296 10.7556c-.002-.001-.031-.025-.0591-.0482l-.002-.0697 16.4474 5.941h.0029c1.8201.47 2.818-.3727 2.9804-.5252zM2.1998 9.6786l16.5286 5.9036c1.8502.478 2.846-.4199 2.9824-.5536l-.0029.0925c-.6047.479-1.5153.9196-2.9704.533L2.204 9.7535Zm-.0058-.1898 16.5668 5.9017c1.766.4563 2.7528-.3413 2.9584-.532l-.003.0914c-.6036.4809-1.5162.9273-2.9774.5389L2.1992 9.5911Zm-.0057-.181 16.5728 5.8997c1.79.4633 2.7819-.3638 2.9664-.5398l-.0057.1092c-.6027.473-1.5103.9028-2.9534.5203L2.194 9.3975Zm-.0028-.0844-.003-.0914 16.58 5.883c1.823.471 2.8159-.3934 2.9753-.5478l-.0057.121c-.6037.476-1.5133.9106-2.9624.526zm-.0114-.2567 16.5898 5.8466.0085.001c1.8112.467 2.803-.3826 2.9724-.5459l-.0057.1199c-.6036.478-1.5152.9205-2.9713.534L2.1769 9.059l-.0028-.0925v-.001m-.0058-.1603 16.605 5.823c1.8441.477 2.84-.414 2.9814-.5527l-.0057.114c-.6037.477-1.5143.9166-2.9674.531l-16.61-5.8318Zm-.0057-.1466 16.61 5.7738c1.8672.4828 2.866-.4082 2.9884-.5252l-.003.0906c-.6037.4799-1.5152.9254-2.9764.538L2.1668 8.7362Zm-.0057-.1447 16.633 5.7226c1.8332.473 2.829-.3766 2.9794-.5192l-.002.0423v.001a.5.5 0 0 0-.0029.0363c-.8815.832-2.2894.7602-2.9874.537L2.161 8.5786Zm-.0057-.1972 16.6464 5.6948c-.0447-.0658-.0057-.0028 0 0 1.425.3846 2.607-.2019 2.986-.5735l-.0083.168c-.8825.827-2.2855.7552-2.9815.532L2.1548 8.435Zm-.0057-.0927s-.0321-.0198 0 0l16.5075 5.644c1.3047.4012 2.816-.0223 3.1359-.6019-.8057.3338-1.9875.7893-3.1359.6019zm19.5572 7.9344.1544-3.1303-.0057.0167c0-.2803-.2928-.5753-1.0149-.8192L4.9631 7.4549c-.3039-.1012-1.7038-.3039-2.6435.2891-.1876.118-.2547.2607-.2257.3787l.0921 2.5923c.002.065.033.177.2067.246l16.286 5.9655c2.0267.5242 3.0425-.4937 3.0255-.7651z"/></svg>