<svg xmlns="http://www.w3.org/2000/svg" viewBox="0 0 24 24"><path fill="#44739e" d="M6.931 9.83a2.162 2.162 0 1 0 2.161 2.162A2.164 2.164 0 0 0 6.931 9.83M8.3 11.992a1.371 1.371 0 1 1-1.373-1.387A1.381 1.381 0 0 1 8.3 11.992m4.618.306-2.606-2.43v4.118h.771v-2.3l2.606 2.426V9.983h-.771Zm9.621-.269a2.86 2.86 0 0 0-.88-.409c-.782-.251-.782-.44-.782-.542 0-.22.246-.452.66-.452a1.235 1.235 0 0 1 .722.25l.056.041.622-.42-.07-.079a1.822 1.822 0 0 0-1.33-.581 1.576 1.576 0 0 0-1.036.361 1.188 1.188 0 0 0-.421.886 1.088 1.088 0 0 0 .462.887 2.85 2.85 0 0 0 .88.41c.783.251.783.44.783.543 0 .22-.248.452-.66.452a1.232 1.232 0 0 1-.723-.251l-.056-.041-.622.42.07.08a1.823 1.823 0 0 0 1.331.581 1.568 1.568 0 0 0 1.035-.362 1.177 1.177 0 0 0 .42-.88 1.079 1.079 0 0 0-.461-.894m-19.962-.413c-.782-.25-.782-.44-.782-.542 0-.22.248-.452.66-.452a1.25 1.25 0 0 1 .724.25l.055.042.622-.42-.07-.081a1.826 1.826 0 0 0-1.334-.583 1.573 1.573 0 0 0-1.035.361 1.18 1.18 0 0 0-.417.887 1.076 1.076 0 0 0 .462.885 2.88 2.88 0 0 0 .88.411c.782.246.782.44.782.542 0 .22-.246.452-.66.452a1.235 1.235 0 0 1-.721-.251l-.057-.042-.622.422.07.079a1.826 1.826 0 0 0 1.33.581 1.57 1.57 0 0 0 1.036-.362 1.185 1.185 0 0 0 .421-.88 1.077 1.077 0 0 0-.459-.88 2.87 2.87 0 0 0-.885-.419m14.5-1.769a2.162 2.162 0 1 0 2.161 2.164 2.164 2.164 0 0 0-2.161-2.164m0 3.549a1.381 1.381 0 0 1-1.373-1.385 1.37 1.37 0 1 1 1.37 1.387Z"/></svg>