<svg xmlns="http://www.w3.org/2000/svg" fill="#44739e" viewBox="0 0 24 24"><path d="M7.392 10.018a1.965 1.965 0 1 0 1.964 1.965 1.967 1.967 0 0 0-1.964-1.965m1.244 1.965a1.246 1.246 0 1 1-1.248-1.261 1.255 1.255 0 0 1 1.248 1.261m4.198.278-2.369-2.209v3.744h.701v-2.091l2.369 2.205v-3.753h-.701zm8.746-.244a2.6 2.6 0 0 0-.8-.372c-.711-.228-.711-.4-.711-.493 0-.2.224-.411.6-.411a1.123 1.123 0 0 1 .656.228l.051.037.566-.382-.064-.072a1.656 1.656 0 0 0-1.209-.528 1.433 1.433 0 0 0-.942.328 1.08 1.08 0 0 0-.382.806.989.989 0 0 0 .42.806 2.59 2.59 0 0 0 .8.373c.711.228.711.4.711.493 0 .2-.225.411-.6.411a1.12 1.12 0 0 1-.657-.228l-.051-.037-.565.382.063.072a1.657 1.657 0 0 0 1.21.528 1.425 1.425 0 0 0 .941-.329 1.07 1.07 0 0 0 .382-.8.981.981 0 0 0-.419-.812m-18.146-.376c-.711-.227-.711-.4-.711-.492 0-.2.225-.411.6-.411a1.135 1.135 0 0 1 .658.227l.05.038.565-.382-.063-.073a1.66 1.66 0 0 0-1.213-.53 1.43 1.43 0 0 0-.941.328 1.074 1.074 0 0 0-.379.806.978.978 0 0 0 .42.805 2.62 2.62 0 0 0 .8.373c.711.224.711.4.711.493 0 .2-.224.411-.6.411a1.123 1.123 0 0 1-.656-.228l-.051-.038-.566.383.064.072a1.66 1.66 0 0 0 1.209.528 1.428 1.428 0 0 0 .942-.329 1.077 1.077 0 0 0 .382-.8.979.979 0 0 0-.417-.8 2.61 2.61 0 0 0-.804-.381m13.181-1.608A1.965 1.965 0 1 0 18.579 12a1.967 1.967 0 0 0-1.964-1.967m0 3.226A1.255 1.255 0 0 1 15.367 12a1.245 1.245 0 1 1 1.245 1.261z"/></svg>