<svg xmlns="http://www.w3.org/2000/svg" fill="#44739e" viewBox="0 0 24 24"><path d="m13.636 9.336.516-.208-.554.985.926-.371.002-.228-.514.206.557-.988-.933.377zm.436.964a.913.913 0 0 0-.487.826c0 .357.211.55.483.443a.958.958 0 0 0 .487-.826c.002-.363-.208-.556-.483-.443m0 1.041c-.173.068-.309-.056-.309-.284a.59.59 0 0 1 .312-.529c.175-.069.311.055.309.283a.588.588 0 0 1-.316.526zm.233-5.266a.457.457 0 0 0-.206.216 1.27 1.27 0 0 0-.091.3c-.051.248-.1.27-.128.28-.051.021-.1-.039-.1-.152a.71.71 0 0 1 .051-.232l.013-.022-.1-.136-.013.022a.905.905 0 0 0-.129.442.438.438 0 0 0 .077.276.172.172 0 0 0 .2.046c.077-.016.141-.091.192-.21a1.25 1.25 0 0 0 .091-.3c.052-.249.1-.27.129-.281.052-.021.1.039.1.153a.75.75 0 0 1-.052.233v.016l.1.137.013-.021a.92.92 0 0 0 .13-.445.438.438 0 0 0-.075-.278.171.171 0 0 0-.202-.044m-.222 1.213a.954.954 0 0 0-.5.837c0 .357.215.545.493.432a.958.958 0 0 0 .5-.837c.002-.359-.212-.547-.493-.432m0 1.041c-.177.072-.316-.05-.316-.277a.6.6 0 0 1 .319-.536c.178-.073.317.065.316.277a.6.6 0 0 1-.323.536zm.181 3.418a.45.45 0 0 0-.2.208 1.28 1.28 0 0 0-.087.294c-.05.246-.1.265-.123.275-.05.019-.1-.043-.1-.157a.75.75 0 0 1 .049-.23l.012-.021-.1-.14-.006.024a.905.905 0 0 0-.124.438.467.467 0 0 0 .074.279.164.164 0 0 0 .2.053.413.413 0 0 0 .2-.206 1.28 1.28 0 0 0 .087-.294c.05-.247.1-.266.124-.275.049-.02.1.042.1.157a.72.72 0 0 1-.05.231l-.02.017.1.141.012-.021a.92.92 0 0 0 .126-.44.467.467 0 0 0-.072-.281.165.165 0 0 0-.202-.052m1.252-8.032V3.7a.56.56 0 0 1-.151.206c-4.569 3.885-6.443.684-6.775 0a2.2 2.2 0 0 1-.1-.386l-.032-.192.084 16.2-.01-.022.01.027a3.99 3.99 0 0 0 .937 1.778c.756.8 2.643 1.034 4.306-.034l1.136-.7a1.194 1.194 0 0 0 .6-1.086l.021-15.809Zm-.2 15.954c-2.636 2.224-4.369 2.082-5.424 1.438L9.765 5.826a3.826 3.826 0 0 0 4.021-.274l1.136-.7a1.24 1.24 0 0 0 .4-.374zM11.773 5.584a4.06 4.06 0 0 0 1.415-.439 11.53 11.53 0 0 0 2.032-1.329c.672-.674-.445-1.423-1.316-1.526l-2.72-.284C9.2 1.925 7.533 2.655 9.525 4.8a2.639 2.639 0 0 0 2.248.784"/></svg>