<svg xmlns="http://www.w3.org/2000/svg" viewBox="0 0 24 24"><path fill="#44739e" d="M15.9312 9.0027c-.088-.0063-.1633.0002-.265.002-.3054.0056-.611.0435-.9133.0855-2.2118.3073-4.3776.8887-6.5501 1.4047-1.642.39-3.2936.7578-4.8991 1.2781-.3865.1252-.7879.218-1.1357.4426-.0572.0368-.1407.0926-.1582.1766a.175.175 0 0 0 .0107.0768c.0097.0263.0312.0547.0606.0814.0487.0444.1099.0802.1755.1155.1336.072.2734.1344.4157.1949.305.1297.6154.2491.9275.3638.4045.1486.8124.2896 1.2195.435.3373.1204.6722.243 1.0115.347a9.5 9.5 0 0 0 .6105.1653c.194.0455.3899.0846.5867.1201.1747.0315.3486.06.523.0784.2263.0239.4551.0308.6833.0244a7.4 7.4 0 0 0 .5027-.0326c.2411-.0233.4819-.0556.721-.0956.332-.0556.6617-.1268.9916-.203.4807-.1111.9597-.232 1.4373-.3582.6851-.181 1.3677-.3729 2.0489-.5704.8414-.2439 1.6805-.497 2.5195-.751l-.2219-.06.2443-.0865.2574.0626c1.0106-.3064 2.0197-.6155 3.0115-.9728.4306-.1551.8594-.3198 1.2923-.4752.1858-.0667.3693-.1305.5419-.2132a2.6 2.6 0 0 0 .3083-.175c.0347-.023.066-.0376.086-.0682.0062-.0095.0073-.0213.0086-.0325.0002-.002-.0008-.0045-.001-.0066-.006-.024-.0139-.047-.03-.0647-.1211-.1326-.3435-.1825-.5292-.2355-.9338-.267-1.8095-.4587-2.7255-.6345-.9162-.1758-1.8363-.3527-2.7668-.4192M22 10.5809c-.0082.0057-.017.012-.025.0173a2.7 2.7 0 0 1-.3266.1852c-.183.0878-.3727.1534-.5576.2198-.4307.1547-.8591.3194-1.2918.4752-.9526.3432-1.919.6404-2.8853.9337l-.028 1.5263c1.5683-.5201 3.14-1.0467 4.6386-1.74.0678-.0314.1318-.0702.1954-.1094.1626-.1003.2594-.2216.2645-.406.0016-.06.0046-.12.0056-.1801.0048-.261.0052-.5225.0051-.7836 0-.046.0032-.0922.0051-.1384m-5.3545 1.9136c-.8874.2688-1.7756.5364-2.6665.7947-.682.1977-1.3657.39-2.0524.5714a48 48 0 0 1-1.442.3592c-.3311.0765-.6644.1491-1.0012.2055a10.6 10.6 0 0 1-.7312.0962 7.6 7.6 0 0 1-.5138.034 5.3 5.3 0 0 1-.7037-.0259c-.1803-.019-.3583-.048-.5347-.0798a12 12 0 0 1-.5948-.1216 9.6 9.6 0 0 1-.6197-.1685c-.3445-.1056-.682-.2288-1.0186-.349-.4062-.145-.8143-.2868-1.2206-.436-.3135-.1152-.626-.2346-.9346-.3658-.1439-.0612-.2884-.1253-.4289-.201a1.1 1.1 0 0 1-.1806-.119 89 89 0 0 0-.001 1.0928c.0004.3313.0032.3372.1206.4345.0843.07.1983.1381.3057.1923 1.2238.6176 2.5231 1.0827 3.8287 1.5005.2716.0869.55.155.8303.208.2463.0466.4956.082.7459.0962.3008.0172.603.0086.9036-.0127.1816-.013.362-.0417.5418-.0697.1585-.0247.3172-.0495.4732-.0865 2.276-.5404 4.5146-1.2358 6.7348-1.9726l.1308-.0432zM4.2714 14.1104a.2633.1727 82.0189 0 1 .1852.2376.2633.1727 82.0189 0 1-.1344.285.2633.1727 82.0189 0 1-.2075-.2372.2633.1727 82.0189 0 1 .1343-.2849.2633.1727 82.0189 0 1 .0224-.0005"/></svg>