<svg xmlns="http://www.w3.org/2000/svg" viewBox="0 0 24 24"><path fill="#44739e" d="M1.33 10.737c.012-.044.023-.099.057-.121a.143.143 0 0 1 .093-.065l.148.011v-.011h.011l.125.022.15.011v-.012l.124.023.162.022.16.011.183.022.593.055.32.022.195.022.11.011.139.011.136.011h.148l.183.022.138.011v-.011l.102.023h.023l.115.011.148.021.446.033.138.012.195.021.501.044.161.012v.011l.148.01v-.011l.11.011v.011l.264.023v-.011h.022v.011l.492.044.125.011.149.022.561.044.137.011.161.022v-.011l.124.011v.011l.275.023.141.01.139.011.275.033h.067l.423.043.412.034.149.022.309.021.148.011.148.023v-.011l.127.011v.011l.297.022.136.011.16.021h.103l.045.012.057.011.172.01v-.01l.079.022h.022l.917.087.628.056h.11l.138.01v.012l.137.011v-.011l.138.021.435.043v-.011l.045.011.045.012h.034l.723.066.297.023.169.022h.102l.14.012v.011l.72.065v-.012l.138.012v.011l.206.022v-.011l.079.011 1.305.12.297.034v-.011l.079.011.045.012.779.066h.079v.011l.732.067.596.055h.045a.24.24 0 0 1 .194.22Zm20.35 2.155L1.354 11.034l-.011-.11 20.337 1.825Zm0 .273L1.366 11.309v-.099l20.314 1.823Zm0 .275L1.389 11.595v-.1l20.291 1.826Zm-.011.286L3.439 12.07H3.42a.43.43 0 0 0-.276-.133l18.536 1.659Zm0 .286L3.563 12.32a.143.143 0 0 0-.034-.098l18.15 1.65Zm0 .275L3.608 12.606l-.011-.132L21.68 14.16Zm0 .176-.566.176.033 2.22.539-.209v.396L1.651 15.001v-.12l19.29 1.934-.011-.198-19.29-1.899-.011-.102 19.324 1.892v-.148l-17.38-1.726a.66.66 0 0 0 .068-.09l17.312 1.686-.012-.15-17.254-1.69-.011-.143 17.243 1.673v-.153L3.676 14.1l-.011-.152 17.254 1.68-.011-.198-17.244-1.627-.017-.187 17.287 1.694-.011-.198L3.64 13.475v-.154l17.297 1.68-.011-.197-17.297-1.628-.013-.185 17.3 1.692v-.176L3.619 12.881l-.012-.143 18.066 1.714Zm0 2.847L1.674 15.276l-.011-.121 20.009 2.078Zm0 .307L1.696 15.573l-.011-.132 19.987 2.067Zm-.068.242a.205.205 0 0 1-.148.066l-.121-.022h-.011l-1.12-.11-.11-.023-.149-.011h-.033l-.95-.099-.035-.011-.158-.011-.137-.011v-.012l-.195-.022-.846-.075-.138-.023-1.155-.12-.16-.011-.137-.011v-.011l-.858-.088-.149-.011-.138-.011v-.012l-.868-.087-.149-.011-.138-.011v-.012l-.16-.011-.137-.011-.148-.023v.012l-.102-.021-.733-.077-.149-.011-.732-.077-.124-.011-.138-.023-.286-.032v.012l-.148-.012V16.8l-.744-.077-.135-.011-.149-.023v.012l-.147-.023-.137-.011-.103-.01-.458-.054-.149-.011-.137-.023v.012l-.149-.023-.138-.011-.159-.012v-.011l-.15-.011v.011l-.11-.02-.171-.023-.13-.011-.148-.023v.012l-.137-.023-.15-.009-.125-.012v-.011l-.15-.011v.011l-.137-.011v-.011l-.15-.022h-.126l-.15-.011-.183-.023-.137-.011-.16-.012v-.011l-.136-.009h-.119v-.011l-.136-.023v.011l-.138-.022H5.37l-.126-.023h-.011v.011l-.159-.022-.15-.011-.102-.01-.138-.022v.011l-.148-.011v-.021l-.161-.023v.011l-.136-.022-.159-.006-.11-.011v-.011l-.172-.011-.314-.037-.309-.031v.011l-.275-.045-.158-.011-.162-.011v-.012l-.15-.011-.151-.011V15.9l-.135-.012v.012l-.174-.023v-.011l-.09-.009a1.1 1.1 0 0 1-.138-.11l19.885 2.078c0 .01-.012.022-.023.033M1.606 14.38l1.258.099a.77.77 0 0 0 .091.11l-1.338-.121Zm-.022-.341 1.187.11v.087a.2.2 0 0 0 .024.077l-1.199-.099Zm-.023-.285 1.188.11.011.143-1.188-.11Zm-.023-.309 1.199.099v.166l-1.187-.1Zm-.011-.153-.011-.143 1.199.11.011.143Zm-.034-.451 1.199.11c0 .033.012.067.012.088a.19.19 0 0 0 .011.077l-1.21-.11Zm-.022-.308 1.21.11v.166l-1.199-.11Zm-.023-.252 1.222.11v.011a.26.26 0 0 0 0 .098l-1.21-.11Zm-.011-.252 1.289.121a.37.37 0 0 0-.045.098l-1.248-.11Zm1.666.626a.357.357 0 0 1-.309-.319.255.255 0 0 1 .286-.266.34.34 0 0 1 .33.319.253.253 0 0 1-.308.263m.428 1.547a.33.33 0 0 1 .023.099c.011.013.011.013.011.024a.21.21 0 0 1-.023.119.11.11 0 0 1-.056.088.277.277 0 0 1-.241.077.352.352 0 0 1-.22-.11.343.343 0 0 1-.091-.22.22.22 0 0 1 .079-.176.147.147 0 0 1 .079-.056.128.128 0 0 1 .11-.021c.011-.011.011-.011.022-.011a.31.31 0 0 1 .127.035.29.29 0 0 1 .102.067.63.63 0 0 1 .08.098m-.342-.571a.356.356 0 0 1-.32-.319.271.271 0 0 1 .297-.264.361.361 0 0 1 .33.316.26.26 0 0 1-.308.267M1.41 11.789l1.624.142a.42.42 0 0 0-.11.023.24.24 0 0 0-.11.065l-1.394-.131Zm20.983-4.716h-.045L4.19 5.736a.304.304 0 0 0-.252.133l-2.709 4.45-.057.054a.55.55 0 0 0-.172.341v.11l.172 2.142.079 1.011v.034l.138 1.702a.517.517 0 0 0 .457.494l11.11 1.177h.011l8.461.88h.045a.55.55 0 0 0 .366-.133.506.506 0 0 0 .161-.307l.011-.023.939-5.21a.75.75 0 0 0 .022-.22L23 7.724a.649.649 0 0 0-.606-.66M3.08 13.17l.025.309h.011l.136.011-.011-.087-.011-.22h-.012l-.128-.013Zm.068.968.011.099-.11-.023.011.122.103.023.011.12.11.011v-.11h.11l-.013-.12-.101-.011-.012-.11Zm18.17 3.762-1.12-.11-.11-.023Zm-1.418-.143-.949-.1-.034-.011Zm-1.143-.122-.138-.011v-.012Zm-.33-.043-.846-.077-.137-.023Zm-2.138-.22-.161-.011-.137-.011Zm-1.305-.132-.137-.011v-.012Zm-1.292-.144.286.034-.149-.011-.137-.011Zm-.447-.044.286.034-.136-.011Zm-.101-.011.101.011v.012Zm-1.87-.197 1.142.121-.147-.011-.733-.077-.126-.011Zm-.44-.045.147.011v.012l-.147-.012ZM9.8 16.69l.286.033-.138-.011Zm-.846-.087.846.087v.012l-.15-.023-.135-.011-.104-.012Zm-.286-.034v.012l-.148-.023Zm-.286-.022-.159-.012v-.011Zm-.309-.032v.011l-.11-.023Zm-.56-.068v.012l-.133-.019Zm-.137-.011-.149-.011-.124-.012v-.009Zm-.423-.043v.011l-.138-.011v-.011Zm-.88-.087-.158-.012v-.011Zm-.297-.034h-.11v-.011Zm-.248-.022v.011l-.136-.022Zm-.297-.034v.012l-.161-.029Zm-.55-.054v.011l-.148-.011v-.011Zm-.31-.034v.011l-.135-.022Zm-.135-.011-.156-.018-.11-.011v-.011Zm-.275-.034-.171-.011-.31-.031-.309-.034v.011l-.275-.044.584.057.31.031Zm-1.223-.126-.161-.011v-.011Zm-.308-.032-.15-.011v-.011Zm-.286-.034v.012l-.173-.023v-.01Zm17.974-3.637v.012l-.079-.012Zm-.904-.07h-.079v-.012Zm-1.68-.154h-.079v-.012Zm-.286-.034v.01l-.135-.013v-.011Zm-.857-.077v.011l-.136-.011v-.011Zm-1.555-.144.045.012h-.045Zm-.572-.054.137.023-.137-.012Zm-.275-.023.137.012v.011l-.137-.011Zm-1.68-.142-.079-.011v-.012ZM12 11.52h-.044v-.011Zm-.744-.077v.011l-.124-.011v-.011Zm-2.618-.242v.011l-.124-.01v-.012Zm-1.75-.154h-.022v-.011h.022Zm-.286-.034v.012l-.11-.012v-.01Zm-1.987-.176-.102-.011v-.01Zm-.241-.023-.184-.008v-.011Zm-2.332-.22-.125-.011v-.012Zm-.275-.023-.136-.011v-.011h.011"/></svg>