<svg xmlns="http://www.w3.org/2000/svg" viewBox="0 0 24 24"><path fill="#44739e" d="M5.834 17.254c0-.076.028-.125.062-.137v-.31c-.025.038-.064.043-.107.008-.01.256-.023.514-.033.77a.422.422 0 0 1 .113.317l.049.04c0-.127 0-.267-.009-.415a.5.5 0 0 1-.075-.273m.03-2.288a.2.2 0 0 1 0-.037v-.333a.105.105 0 0 1-.075-.023q0 .34.01.68a.34.34 0 0 1 .072.081v-.329a.11.11 0 0 1-.007-.039m.013 1.1v-.392a.094.094 0 0 1-.065-.023c0 .235 0 .481-.009.731a.295.295 0 0 1 .086.133v-.4a.11.11 0 0 1-.012-.049m12.32-8.284v-.351.359ZM5.748 6.111v.722a.27.27 0 0 1 .082.08v-.781a.136.136 0 0 1-.082-.021m.027 3.309v.614a.27.27 0 0 1 .058.046v-.641a.16.16 0 0 1-.058-.019m-.023-1.045c0 .227.013.453.018.673a.25.25 0 0 1 .059.048v-.699a.113.113 0 0 1-.077-.022m.019 2.015v.621a.26.26 0 0 1 .068.06v-.66a.15.15 0 0 1-.068-.021m12.422-2.264-.01.005v.326c.002-.113.007-.224.01-.331M5.795 13.494v.686a.26.26 0 0 1 .07.078q0-.363-.007-.74a.12.12 0 0 1-.063-.024m-.001-1.075q.006.34 0 .68a.23.23 0 0 1 .051.048v-.709a.14.14 0 0 1-.051-.019m-.025-1.044c0 .213.006.432.014.655a.27.27 0 0 1 .058.051v-.686a.125.125 0 0 1-.072-.02m-.022-4.124v.719a.3.3 0 0 1 .081.082v-.78a.113.113 0 0 1-.081-.021m.475 1.027c-.088-.058-.159-.014-.156.097a.397.397 0 0 0 .163.299c.087.057.155.016.154-.093a.416.416 0 0 0-.161-.303m.477.317c-.088-.058-.159-.016-.156.092a.406.406 0 0 0 .164.297c.088.056.159.018.155-.089a.424.424 0 0 0-.163-.3M6.47 7.88c-.088-.059-.162-.014-.163.1a.409.409 0 0 0 .157.311c.088.059.159.016.161-.096a.411.411 0 0 0-.155-.315m1.089 9.299c.072.041.143-.012.156-.113a.283.283 0 0 0-.114-.26c-.072-.042-.136 0-.145.108a.299.299 0 0 0 .103.265m.365-8.373c-.09-.048-.169 0-.171.113a.34.34 0 0 0 .164.282c.092.047.165 0 .166-.113a.34.34 0 0 0-.159-.282m-.607 8.773c.064.044.13-.006.143-.113a.308.308 0 0 0-.099-.27c-.066-.045-.126 0-.137.107a.318.318 0 0 0 .093.276m.381.221c.075.036.154-.02.168-.125a.249.249 0 0 0-.113-.251c-.077-.036-.146.016-.159.119a.258.258 0 0 0 .104.257m.804-8.021a.258.258 0 0 0 .169.243.142.142 0 0 0 .18-.144.249.249 0 0 0-.172-.234.133.133 0 0 0-.177.135M7.436 8.521c-.089-.056-.166-.011-.169.1a.377.377 0 0 0 .157.299c.09.055.162.01.166-.098a.376.376 0 0 0-.154-.301M6.08 10.399a.362.362 0 0 0 .15.277c.084.054.153.019.155-.081a.362.362 0 0 0-.149-.278c-.084-.059-.155-.022-.156.082m1.587-1.197c-.091-.049-.166-.008-.166.097a.362.362 0 0 0 .161.282c.09.051.165 0 .165-.1a.355.355 0 0 0-.16-.279m.5 8.778a.162.162 0 0 0 .213-.138.236.236 0 0 0-.161-.246.153.153 0 0 0-.198.137.227.227 0 0 0 .146.247m-.184-.604a.146.146 0 0 0 .186-.138.227.227 0 0 0-.14-.238c-.087-.029-.16.026-.173.13a.237.237 0 0 0 .127.246M7.18 8.91c-.09-.057-.159-.016-.157.09a.391.391 0 0 0 .162.291c.088.055.16.015.159-.09a.39.39 0 0 0-.164-.291m1.342 8.617a.177.177 0 0 0 .226-.152.227.227 0 0 0-.18-.24.168.168 0 0 0-.211.149.227.227 0 0 0 .165.243m-2.438-4.025a.43.43 0 0 0 .13.306c.074.062.136.023.142-.087a.413.413 0 0 0-.127-.309c-.077-.06-.142-.02-.145.09m.435.939a.442.442 0 0 0-.113-.314c-.071-.064-.133-.024-.138.085a.453.453 0 0 0 .114.312c.072.069.13.027.137-.083m-.424-2.016a.433.433 0 0 0 .15.302c.08.059.147.021.148-.088a.408.408 0 0 0-.15-.304c-.082-.059-.149-.018-.148.09m-.022-1.043a.386.386 0 0 0 .155.288c.083.058.15.021.149-.082a.394.394 0 0 0-.152-.289c-.084-.057-.153-.019-.152.083m2.352-2.343a.122.122 0 0 0-.173.126.292.292 0 0 0 .172.258.124.124 0 0 0 .172-.13.294.294 0 0 0-.171-.254m-.26.416a.113.113 0 0 0-.168.113.313.313 0 0 0 .163.265.113.113 0 0 0 .171-.114.301.301 0 0 0-.166-.264m-1.91 5.832a.5.5 0 0 0 .127.308c.065.062.113.027.113-.08a.512.512 0 0 0-.127-.309c-.063-.062-.113-.025-.113.081m.536 1.639a.442.442 0 0 0-.092-.306c-.059-.059-.113-.017-.12.097a.453.453 0 0 0 .091.309c.057.06.112.01.121-.1m.197-.387a.43.43 0 0 0-.1-.3c-.062-.058-.113-.021-.113.088a.453.453 0 0 0 .092.306c.059.055.114.012.121-.094m.343.288a.358.358 0 0 0-.103-.281c-.064-.053-.12-.013-.128.094a.376.376 0 0 0 .098.286c.062.047.123.005.133-.099m-.219.389a.38.38 0 0 0-.091-.287c-.06-.054-.113-.012-.125.098a.392.392 0 0 0 .088.293c.064.051.116.003.128-.104m-.865-.828a.48.48 0 0 0 .102.321c.061.059.113.013.121-.101a.465.465 0 0 0-.102-.315c-.062-.064-.113-.021-.121.095m.411-.172a.467.467 0 0 0-.113-.311c-.062-.062-.113-.025-.113.086a.494.494 0 0 0 .106.314c.064.061.117.021.12-.089M6.087 9.42a.368.368 0 0 0 .155.278c.086.053.156.017.157-.084a.371.371 0 0 0-.157-.282c-.086-.055-.155-.014-.155.088m.866-1.214c-.088-.06-.164-.016-.167.098a.399.399 0 0 0 .157.308c.088.058.16.016.163-.095a.397.397 0 0 0-.153-.311m8.159 9.009a.453.453 0 0 0 .155-.383c-.011-.144-.098-.203-.197-.133a.453.453 0 0 0-.161.378c.01.143.103.205.203.138m-.165-.878c-.007-.133-.092-.18-.193-.113a.453.453 0 0 0-.171.36c.007.133.097.188.198.119a.459.459 0 0 0 .166-.366m-.985 1.563a.397.397 0 0 0 .184-.349c-.006-.136-.097-.194-.204-.134a.405.405 0 0 0-.185.34c.005.134.097.198.205.143m.588-.327a.432.432 0 0 0 .172-.372c-.01-.141-.1-.198-.204-.131a.444.444 0 0 0-.176.367c.008.138.102.201.208.136m.922-1.595c-.006-.13-.087-.181-.183-.114a.427.427 0 0 0-.163.352c.008.131.095.188.19.121a.442.442 0 0 0 .156-.359m-1.076.735c-.006-.131-.093-.179-.197-.113a.435.435 0 0 0-.18.35c0 .13.095.187.2.123a.436.436 0 0 0 .177-.36m1.575-1.025c0-.121-.077-.18-.17-.133a.356.356 0 0 0-.159.314c.006.127.089.188.178.134a.38.38 0 0 0 .151-.315m.711-.114a.277.277 0 0 0 .128-.233c0-.101-.049-.162-.119-.137a.254.254 0 0 0-.136.226c-.005.108.054.175.127.144M8.77 18.145a.187.187 0 0 0 .241-.153.245.245 0 0 0-.197-.249.182.182 0 0 0-.232.151.239.239 0 0 0 .188.251m7.751-1.866a.381.381 0 0 0 .113-.308c0-.124-.063-.191-.135-.154a.34.34 0 0 0-.119.302c.005.131.075.204.141.16m-.406.261a.397.397 0 0 0 .124-.34c-.009-.135-.079-.204-.164-.159a.371.371 0 0 0-.138.334c.011.144.094.216.178.165m.302-1.052c0-.113-.059-.169-.14-.137a.286.286 0 0 0-.148.264c0 .113.076.185.153.146a.325.325 0 0 0 .135-.273m-2.775 1.913a.394.394 0 0 0 .185-.34c0-.128-.091-.179-.195-.122a.394.394 0 0 0-.186.325c.002.129.09.193.196.137m1.993-.542a.443.443 0 0 0 .14-.374c-.012-.141-.093-.206-.185-.144a.441.441 0 0 0-.148.373c.012.145.106.206.193.145m1.237-.804a.35.35 0 0 0 .108-.273c0-.114-.052-.174-.113-.144a.295.295 0 0 0-.114.265c.001.12.058.19.119.152m-6.678 2.339a.218.218 0 0 0 .259-.185.247.247 0 0 0-.234-.238.218.218 0 0 0-.258.18.249.249 0 0 0 .233.243m.644-.741a.235.235 0 0 0-.227-.227.22.22 0 0 0-.251.191.24.24 0 0 0 .227.233.22.22 0 0 0 .251-.197m.094.809a.22.22 0 0 0 .246-.202.227.227 0 0 0-.227-.226.227.227 0 0 0-.25.197.238.238 0 0 0 .231.231m-.824-.869a.241.241 0 0 0-.226-.237.209.209 0 0 0-.251.176.241.241 0 0 0 .227.24.212.212 0 0 0 .25-.179m-.954.068a.198.198 0 0 0 .246-.165.24.24 0 0 0-.21-.241.194.194 0 0 0-.238.162.238.238 0 0 0 .202.244m.305.624a.206.206 0 0 0 .257-.168.248.248 0 0 0-.227-.244.203.203 0 0 0-.252.164.249.249 0 0 0 .222.248m3.91-.115a.35.35 0 0 0 .191-.317c0-.13-.092-.192-.199-.146a.35.35 0 0 0-.189.307c-.004.127.089.199.197.156m-.579.191a.296.296 0 0 0 .189-.279c0-.124-.085-.196-.188-.166a.286.286 0 0 0-.185.267c-.004.123.081.205.184.178m-.277-.539a.27.27 0 0 0 .183-.261c0-.121-.081-.194-.178-.173a.248.248 0 0 0-.178.246c-.001.119.076.208.173.188m.554-.162a.34.34 0 0 0 .187-.303c0-.125-.086-.184-.188-.142a.326.326 0 0 0-.186.289c0 .122.083.195.187.156m-1.437.826a.227.227 0 0 0 .22-.227.206.206 0 0 0-.209-.213.227.227 0 0 0-.227.215.216.216 0 0 0 .216.225m-.097-.808a.215.215 0 0 0-.22-.217.215.215 0 1 0-.012.43.227.227 0 0 0 .232-.213m.621-.025a.185.185 0 0 0-.193-.201.227.227 0 0 0-.211.227.199.199 0 0 0 .204.208.227.227 0 0 0 .2-.234m.091.804a.227.227 0 0 0 .181-.24c0-.121-.075-.207-.177-.196a.236.236 0 0 0-.194.235.185.185 0 0 0 .19.201M17.62 7.762a.39.39 0 0 0-.113.266c0 .095.047.131.113.077a.392.392 0 0 0 .114-.268c.003-.094-.051-.127-.114-.075m-.396 7.057a.352.352 0 0 0 .113-.275c0-.113-.049-.172-.113-.131a.37.37 0 0 0-.114.272c.002.112.052.174.114.134m.311-1.853a.524.524 0 0 0-.104.323c0 .114.05.17.113.114a.544.544 0 0 0 .106-.331c-.006-.124-.056-.167-.115-.106m.018 1.627a.453.453 0 0 0 .108-.312c0-.122-.052-.173-.113-.12a.465.465 0 0 0-.107.306c.002.116.051.174.112.126m-.17-.454a.453.453 0 0 0 .105-.309c0-.12-.05-.171-.114-.113a.46.46 0 0 0-.104.302c.006.12.054.172.113.12m-.68.417a.288.288 0 0 0 .125-.25c0-.108-.05-.168-.113-.134a.306.306 0 0 0-.13.251c-.008.104.05.17.118.133m.354-.181a.357.357 0 0 0 .113-.276c0-.114-.048-.17-.113-.13a.367.367 0 0 0-.113.272c.001.11.051.172.113.134m-.178.62a.284.284 0 0 0 .12-.246c0-.108-.047-.169-.113-.137a.299.299 0 0 0-.124.245c-.002.104.051.165.117.138m.688-4.173a.47.47 0 0 0-.113.296c0 .105.044.145.105.087a.487.487 0 0 0 .113-.298c.006-.107-.044-.144-.105-.085m.027-3.97a.348.348 0 0 0-.101.253c0 .091.052.126.114.077a.35.35 0 0 0 .105-.254c-.003-.091-.058-.124-.118-.076m-.147.589a.385.385 0 0 0-.101.261c0 .094.048.129.105.078a.38.38 0 0 0 .106-.261c-.003-.093-.052-.127-.11-.078m.461-.202c0-.09-.062-.121-.128-.07a.34.34 0 0 0-.113.257c0 .092.054.125.121.073a.358.358 0 0 0 .12-.26m-1.41 7.901a.256.256 0 0 0 .137-.232c0-.102-.052-.163-.126-.135a.277.277 0 0 0-.145.236c-.003.101.058.158.134.131m1.046-3.275a.467.467 0 0 0-.113.294c0 .107.044.15.104.089a.52.52 0 0 0 .114-.302c.005-.104-.044-.14-.105-.081m-.504 3.565a.271.271 0 0 0 .12-.237c0-.105-.048-.166-.113-.137a.29.29 0 0 0-.122.238c-.001.101.05.162.115.136m.548-5.66a.484.484 0 0 0-.113.299c0 .107.045.146.107.087a.49.49 0 0 0 .113-.302c.007-.106-.05-.143-.107-.084m.015-1.046a.47.47 0 0 0-.113.297c0 .105.045.144.113.085a.49.49 0 0 0 .121-.299c-.005-.108-.056-.142-.121-.083m-2.055 6.814a.375.375 0 0 0 .176-.282c0-.101-.071-.149-.169-.1a.352.352 0 0 0-.181.281.113.113 0 0 0 .174.101m-2.196 1.387a.384.384 0 0 0 .186-.313c0-.113-.084-.162-.187-.113a.363.363 0 0 0-.186.297c.003.12.083.177.187.129m.275-.72a.409.409 0 0 0 .191-.3c0-.104-.078-.14-.182-.081a.396.396 0 0 0-.191.292c-.002.103.079.148.182.089m.29.405a.434.434 0 0 0 .183-.34c0-.119-.085-.155-.188-.092a.418.418 0 0 0-.186.323c.001.122.087.173.191.109m-.847-.122a.34.34 0 0 0 .188-.278c0-.104-.078-.146-.179-.103a.314.314 0 0 0-.188.259.12.12 0 0 0 .179.122m-.808.783a.227.227 0 0 0 .179-.235.162.162 0 0 0-.179-.177.227.227 0 0 0-.192.227.179.179 0 0 0 .192.185m.532-.115a.312.312 0 0 0 .185-.277.131.131 0 0 0-.181-.141.29.29 0 0 0-.183.26c-.001.115.078.191.179.158m-.268-.489a.264.264 0 0 0 .182-.242.138.138 0 0 0-.177-.144.227.227 0 0 0-.18.217.152.152 0 0 0 .175.169m2.946-1.783c0-.102-.072-.144-.172-.09a.396.396 0 0 0-.186.292c0 .103.075.137.175.081a.381.381 0 0 0 .183-.283m-1.094.668c0-.105-.077-.138-.181-.072a.435.435 0 0 0-.191.31c0 .103.079.137.181.07a.435.435 0 0 0 .191-.308m1.677-.251a.28.28 0 0 0 .162-.239c0-.101-.06-.159-.148-.126a.295.295 0 0 0-.172.246.113.113 0 0 0 .158.119m1.232-8.189a.37.37 0 0 0-.094.257c0 .094.046.131.101.081a.367.367 0 0 0 .096-.256c-.002-.094-.05-.13-.103-.082m-1.47 7.789a.308.308 0 0 0 .177-.25c0-.102-.068-.159-.163-.114a.33.33 0 0 0-.181.264c-.004.097.072.141.167.1m-1.34 1.344a.453.453 0 0 0 .178-.34c0-.113-.084-.151-.186-.083a.441.441 0 0 0-.182.331c.002.116.088.161.19.092m1.822-1.526a.274.274 0 0 0 .147-.241c0-.103-.056-.162-.136-.13a.288.288 0 0 0-.155.242c-.004.102.063.158.144.129m-1.276 1.152a.437.437 0 0 0 .173-.327c0-.114-.078-.147-.178-.084a.411.411 0 0 0-.18.318c.002.116.087.16.185.093m-.091-.674c0-.103-.076-.137-.177-.074a.431.431 0 0 0-.19.307c0 .105.077.134.178.068a.423.423 0 0 0 .189-.301m1.901-7.203a.435.435 0 0 0-.114.277c0 .098.044.131.106.077a.423.423 0 0 0 .113-.273c-.001-.098-.047-.134-.105-.081m-5.015 2.091a.185.185 0 0 0 .199.166.173.173 0 0 0 .17-.183.184.184 0 0 0-.194-.166.178.178 0 0 0-.175.183m1.62-.83a.239.239 0 0 0-.204.214.156.156 0 0 0 .204.139.246.246 0 0 0 .203-.216c.001-.097-.09-.158-.203-.137m-1.736.167a.181.181 0 0 0-.18.185.184.184 0 0 0 .191.176.181.181 0 0 0 .178-.185.184.184 0 0 0-.189-.176m1.126-.077a.213.213 0 0 0-.193.203.168.168 0 0 0 .199.155.216.216 0 0 0 .194-.204.167.167 0 0 0-.2-.154m.306.444a.213.213 0 0 0-.189.203.162.162 0 0 0 .204.14.227.227 0 0 0 .189-.206.16.16 0 0 0-.204-.137m-1.879.31a.19.19 0 0 0 .199.173.175.175 0 0 0 .176-.18.189.189 0 0 0-.196-.172.175.175 0 0 0-.179.179m5.887-2.386a.414.414 0 0 0-.102.267c0 .096.043.132.1.08a.408.408 0 0 0 .108-.267c0-.095-.051-.131-.106-.08m-4.88 1.684a.192.192 0 0 0-.179.192.176.176 0 0 0 .189.169.192.192 0 0 0 .18-.193.176.176 0 0 0-.19-.168m-2.77-.106a.155.155 0 0 0-.182.16.227.227 0 0 0 .178.217.159.159 0 0 0 .184-.162.22.22 0 0 0-.18-.215m1.653.135a.178.178 0 0 0-.182.18.193.193 0 0 0 .19.183.178.178 0 0 0 .182-.18.193.193 0 0 0-.19-.183m-1.576.578a.206.206 0 0 0 .179.207.167.167 0 0 0 .188-.165.21.21 0 0 0-.181-.206.163.163 0 0 0-.186.164m-.358-.244a.153.153 0 0 0-.183.154.227.227 0 0 0 .172.227.158.158 0 0 0 .186-.158.227.227 0 0 0-.175-.223m1.476.332a.194.194 0 0 0 .194.184.175.175 0 0 0 .184-.177.195.195 0 0 0-.194-.181.173.173 0 0 0-.184.174m-.564-.033a.198.198 0 0 0 .187.195.171.171 0 0 0 .187-.171.201.201 0 0 0-.188-.193.17.17 0 0 0-.186.169m.467-.653a.171.171 0 0 0-.184.174.198.198 0 0 0 .187.195.171.171 0 0 0 .183-.176.198.198 0 0 0-.186-.193m-.551-.044a.163.163 0 0 0-.184.167.206.206 0 0 0 .182.206.168.168 0 0 0 .185-.169.209.209 0 0 0-.183-.204m2.511.503a.188.188 0 0 0-.178.191.176.176 0 0 0 .199.156.193.193 0 0 0 .179-.194.175.175 0 0 0-.2-.153m3.864.796a.363.363 0 0 0 .134-.271c0-.101-.05-.14-.122-.09a.388.388 0 0 0-.143.268c-.004.099.059.141.131.093m-2.679-.991a.244.244 0 0 0-.199.215c0 .094.094.149.204.122a.252.252 0 0 0 .198-.218c.002-.091-.09-.145-.203-.119m2.247.897a.351.351 0 0 0-.181.254c0 .093.073.134.164.091a.325.325 0 0 0 .169-.257c.004-.097-.061-.136-.152-.088m.7-2.918a.43.43 0 0 0-.12.28c0 .1.049.134.113.08a.423.423 0 0 0 .113-.277c-.001-.098-.048-.137-.106-.083m.311-.277a.408.408 0 0 0-.1.266c0 .098.045.134.1.083a.393.393 0 0 0 .1-.264c0-.095-.045-.134-.1-.085M8.95 9.193a.142.142 0 0 0-.177.15.241.241 0 0 0 .177.227.148.148 0 0 0 .18-.155.237.237 0 0 0-.18-.222m6.753 1.959a.317.317 0 0 0-.185.246c0 .094.071.138.169.097a.315.315 0 0 0 .183-.247c.005-.096-.07-.138-.167-.096m.741-1.469a.41.41 0 0 0 .13-.286c0-.102-.049-.139-.12-.081a.453.453 0 0 0-.138.286c-.003.101.056.136.128.081m-.242 1.234a.34.34 0 0 0-.162.255c0 .098.066.145.149.102a.323.323 0 0 0 .15-.259c.003-.1-.055-.143-.137-.098m-1.334-1.893c0-.113-.085-.158-.196-.113a.34.34 0 0 0-.208.265c0 .097.086.144.197.103a.304.304 0 0 0 .207-.255m-.52.482a.281.281 0 0 0-.204.227c0 .092.09.14.2.105a.286.286 0 0 0 .203-.226c.002-.096-.087-.141-.199-.106m-.29-.391a.279.279 0 0 0-.211.227c0 .096.09.152.203.121a.279.279 0 0 0 .209-.227c.002-.094-.088-.153-.201-.121m1.107 2.268a.312.312 0 0 0-.186.243c0 .092.075.136.174.094a.317.317 0 0 0 .186-.246c.003-.093-.074-.133-.174-.091m.286-.564a.32.32 0 0 0-.188.242c0 .09.073.129.173.086a.318.318 0 0 0 .186-.245c.005-.091-.074-.128-.171-.083m-.809-.963a.289.289 0 0 0-.199.227c0 .09.087.132.193.093a.299.299 0 0 0 .198-.235c.007-.085-.079-.124-.192-.085m.467.414c0-.088-.08-.123-.185-.082a.301.301 0 0 0-.195.235c0 .088.083.127.186.085a.311.311 0 0 0 .194-.238m-.207.782a.299.299 0 0 0-.187.237c0 .091.077.13.178.089a.311.311 0 0 0 .187-.24c.003-.089-.077-.127-.178-.086M6.559 7.566a.406.406 0 0 0 .154.318c.089.06.165.015.172-.101a.396.396 0 0 0-.153-.319c-.091-.057-.169-.012-.173.102m2.745 11.051a.261.261 0 0 0-.218-.251.189.189 0 0 0-.246.152.26.26 0 0 0 .212.253.192.192 0 0 0 .252-.154m-.6.219c-.122-.032-.227.028-.227.137a.274.274 0 0 0 .209.259.171.171 0 0 0 .237-.14.277.277 0 0 0-.219-.256m1.337-.096a.257.257 0 0 0-.234-.244.207.207 0 0 0-.26.167.261.261 0 0 0 .234.247.209.209 0 0 0 .26-.17m-.633.255c-.134-.025-.246.042-.252.153a.272.272 0 0 0 .235.249c.136.027.25-.043.255-.154a.275.275 0 0 0-.238-.248m-.789-.533a.256.256 0 0 0-.186-.255.163.163 0 0 0-.22.136.252.252 0 0 0 .177.257.169.169 0 0 0 .229-.138m-.59-.181a.248.248 0 0 0-.137-.251c-.083-.033-.158.023-.171.127a.246.246 0 0 0 .123.252.137.137 0 0 0 .185-.128m.058.366a.137.137 0 0 0-.196.122.267.267 0 0 0 .166.262.144.144 0 0 0 .207-.124.277.277 0 0 0-.177-.26m4.149.554a.227.227 0 0 0-.201.22.18.18 0 0 0 .191.189.216.216 0 0 0 .183-.227.168.168 0 0 0-.173-.182m.453-.435a.163.163 0 0 0-.181-.184.241.241 0 0 0-.181.242c0 .119.076.206.176.19a.252.252 0 0 0 .186-.248m-.55.076a.19.19 0 0 0-.197-.204.227.227 0 0 0-.215.22.203.203 0 0 0 .208.207.227.227 0 0 0 .204-.223m-4.524-.396c-.075-.037-.142.015-.151.113a.272.272 0 0 0 .113.256c.076.037.148-.016.157-.121a.265.265 0 0 0-.119-.248m3.888.41a.236.236 0 0 0-.469-.018.233.233 0 0 0 .227.227.219.219 0 0 0 .242-.209m-.715-.035a.247.247 0 0 0-.238-.233.219.219 0 0 0-.258.183.252.252 0 0 0 .24.237.216.216 0 0 0 .256-.187m-.631.295c-.138-.018-.255.057-.258.168a.266.266 0 0 0 .247.239.206.206 0 0 0 .257-.171.263.263 0 0 0-.246-.236m.751.078a.215.215 0 0 0-.252.185.248.248 0 0 0 .244.227.211.211 0 0 0 .246-.187.239.239 0 0 0-.238-.225m.708.03a.205.205 0 1 0-.006.408.212.212 0 0 0 .227-.204.206.206 0 0 0-.221-.204m-5.475-5.123a.41.41 0 0 0-.129-.306c-.077-.058-.141-.015-.143.095a.425.425 0 0 0 .134.301c.072.062.138.019.138-.09m1.442 3.988a.274.274 0 0 0-.105-.258c-.069-.04-.133.01-.145.113a.281.281 0 0 0 .099.262c.069.041.139-.013.151-.117m-1.267-2.212a.465.465 0 0 0-.121-.311c-.069-.061-.125-.022-.124.089a.492.492 0 0 0 .124.314c.065.061.12.019.121-.092m-.046 1.142a.46.46 0 0 0-.101-.32c-.064-.061-.122-.012-.128.113a.465.465 0 0 0 .104.322c.062.053.117.003.125-.115m-.269-6c.084.052.152.016.153-.084a.357.357 0 0 0-.15-.276c-.085-.052-.154-.012-.155.087a.359.359 0 0 0 .152.273m.027 2.09c.079.057.145.017.147-.092a.399.399 0 0 0-.145-.302c-.081-.057-.149-.013-.148.095a.408.408 0 0 0 .146.299m-.013-1.07c.085.056.149.016.146-.089a.4.4 0 0 0-.157-.293c-.085-.054-.152-.013-.149.092a.4.4 0 0 0 .16.29m.295 2.767a.453.453 0 0 0-.12-.31c-.07-.061-.13-.021-.131.088a.453.453 0 0 0 .126.307c.07.061.123.024.125-.085m-.128 2.75a.44.44 0 0 0 .094.31c.058.052.114 0 .114-.113a.435.435 0 0 0-.091-.308c-.054-.057-.11-.006-.117.111m1.035.311a.34.34 0 0 0-.09-.274c-.06-.047-.113 0-.128.113a.34.34 0 0 0 .087.277c.058.039.119-.011.131-.116m.024.369c-.064-.04-.121.01-.131.114a.304.304 0 0 0 .097.263c.063.039.123-.012.134-.114a.305.305 0 0 0-.1-.263m-.444-.13a.35.35 0 0 0 .086.276c.056.044.113-.007.12-.114a.347.347 0 0 0-.087-.273c-.057-.043-.11.006-.119.111m-.21-.778a.442.442 0 0 0-.089-.309c-.057-.058-.113-.011-.12.106a.453.453 0 0 0 .09.31c.057.055.11.006.119-.107m.307.284a.392.392 0 0 0-.084-.291c-.057-.054-.113-.007-.12.105a.4.4 0 0 0 .083.294c.056.046.111.001.121-.108m-.398.232a.4.4 0 0 0 .085.293c.056.047.107 0 .114-.114a.4.4 0 0 0-.084-.29c-.055-.052-.107-.002-.115.111m8.109.602a.389.389 0 0 0-.19.34c.006.132.102.195.214.145a.365.365 0 0 0 .19-.34c-.008-.132-.104-.198-.214-.145m3.106-2.72a.324.324 0 0 0-.124.252c0 .104.047.158.114.113a.366.366 0 0 0 .125-.257c.003-.094-.051-.146-.115-.108m-.789 1.141a.495.495 0 0 0-.08.349c.012.141.068.209.122.152a.552.552 0 0 0 .077-.35c-.01-.135-.062-.202-.119-.151m.977-1.821a.445.445 0 0 0-.119.3c0 .114.05.164.113.114a.43.43 0 0 0 .124-.306c.003-.116-.052-.163-.118-.108m-.025 1.067a.372.372 0 0 0-.121.277c0 .114.049.162.113.114a.442.442 0 0 0 .124-.287c.003-.107-.049-.151-.116-.104m-.834.001a.371.371 0 0 0-.096.298c.008.128.061.196.113.151a.43.43 0 0 0 .093-.304c0-.12-.05-.184-.11-.145m.322-.196a.318.318 0 0 0-.107.267c0 .113.051.179.114.137a.392.392 0 0 0 .106-.275c0-.109-.047-.165-.113-.129m-.138.683a.445.445 0 0 0-.085.322c.007.131.057.195.113.14a.512.512 0 0 0 .084-.324c-.008-.123-.057-.184-.112-.138m.309-.246a.39.39 0 0 0-.1.296c0 .12.051.178.108.127a.47.47 0 0 0 .101-.3c-.001-.114-.054-.167-.109-.123m.446-7.954a.442.442 0 0 0-.138.298c0 .104.05.141.125.078a.474.474 0 0 0 .146-.298c.005-.105-.057-.136-.133-.078m-.164 1.341c0 .106.051.143.123.079a.492.492 0 0 0 .138-.308c0-.107-.058-.141-.129-.077a.468.468 0 0 0-.132.306m-.041 4.43c0 .124.054.176.114.114a.567.567 0 0 0 .113-.352c0-.127-.058-.171-.122-.103a.558.558 0 0 0-.105.341m-4.988 4.945a.258.258 0 0 0-.19.245.155.155 0 0 0 .186.17.262.262 0 0 0 .196-.247.158.158 0 0 0-.192-.168m4.97-6.168c0 .12.052.166.114.096a.6.6 0 0 0 .119-.35c0-.119-.056-.155-.122-.086a.55.55 0 0 0-.111.34m.039-2.153c0 .106.05.143.12.08a.487.487 0 0 0 .134-.307c0-.106-.056-.14-.126-.078a.476.476 0 0 0-.128.305m.102.737a.476.476 0 0 0-.128.299c0 .104.045.138.113.077a.483.483 0 0 0 .135-.3c.006-.1-.051-.133-.12-.076m.157-3.476c0 .091.054.124.129.074v-.34a.38.38 0 0 0-.129.266m-3.791 9.871a.402.402 0 0 0-.187.34c0 .134.101.201.212.146a.386.386 0 0 0 .186-.349c-.008-.132-.102-.196-.211-.137m-8.252-7.889c.085.051.154.013.155-.085a.348.348 0 0 0-.153-.274c-.085-.053-.155-.011-.155.089a.34.34 0 0 0 .153.27m7.984 8.692a.35.35 0 0 0-.201.308.147.147 0 0 0 .212.146.333.333 0 0 0 .202-.308.146.146 0 0 0-.213-.146m1.057-.997c-.011-.145-.103-.209-.207-.145a.442.442 0 0 0-.174.372c.01.142.106.206.212.146a.417.417 0 0 0 .169-.373m-1.387.485a.357.357 0 0 0-.194.314c0 .127.094.197.206.153a.348.348 0 0 0 .196-.318c-.004-.132-.098-.197-.208-.149m-.395.386c0-.125-.09-.195-.198-.161a.3.3 0 0 0-.193.278c0 .121.085.197.194.166a.303.303 0 0 0 .197-.283m.109.352a.309.309 0 0 0-.2.277.148.148 0 0 0 .201.154.299.299 0 0 0 .205-.277.151.151 0 0 0-.206-.154m3.218-1.798a.5.5 0 0 0-.093.369c.016.147.083.219.146.16a.526.526 0 0 0 .085-.37c-.014-.143-.074-.215-.138-.159m-1.408.969a.424.424 0 0 0-.172.363c.01.14.105.206.211.149a.393.393 0 0 0 .169-.36c-.013-.144-.105-.214-.208-.152m1.153-1.535a.427.427 0 0 0-.114.357c.015.147.092.227.164.168a.453.453 0 0 0 .102-.359c-.016-.143-.081-.216-.152-.166m.367-.256a.408.408 0 0 0-.098.33c.013.138.075.212.135.16a.46.46 0 0 0 .09-.334c-.009-.131-.064-.2-.127-.156m-.502 1.131a.453.453 0 0 0-.123.377c.016.151.1.227.181.167a.453.453 0 0 0 .113-.377c-.018-.15-.091-.225-.171-.167m-.617-.085c-.014-.15-.102-.218-.198-.152a.453.453 0 0 0-.154.386c.012.146.105.214.204.15a.439.439 0 0 0 .148-.384m1.614-1.519a.309.309 0 0 0 .114-.242c0-.101-.046-.16-.108-.132a.269.269 0 0 0-.119.236c.001.107.052.171.113.138m-1.31 1.023a.453.453 0 0 0-.135.38c.016.15.103.227.192.161a.439.439 0 0 0 .127-.377c-.015-.15-.096-.224-.184-.164m-.167.905a.44.44 0 0 0-.148.378c.012.146.104.215.199.156a.413.413 0 0 0 .144-.373c-.015-.149-.1-.223-.195-.161m1.408-10.68a.368.368 0 0 0 .092-.253c0-.093-.048-.133-.099-.088a.368.368 0 0 0-.091.255c.002.1.046.139.098.086m-.819.186a.385.385 0 0 0 .133-.282c0-.103-.053-.147-.128-.097a.39.39 0 0 0-.145.285c-.002.108.064.149.14.094m-.473.315a.406.406 0 0 0 .176-.307c0-.113-.068-.153-.168-.096a.409.409 0 0 0-.186.308c-.003.114.079.161.178.095m1.145-.841a.363.363 0 0 0 .09-.252c0-.094-.043-.137-.095-.094a.37.37 0 0 0-.094.252c.001.094.046.138.099.094m-1.705 1.157a.39.39 0 0 0 .195-.308c0-.113-.08-.163-.187-.113a.383.383 0 0 0-.198.304c.002.118.084.171.19.117m1.555-.549a.385.385 0 0 0 .101-.264c0-.096-.045-.137-.101-.09a.394.394 0 0 0-.105.266c0 .099.047.138.105.088m-.156-.358a.368.368 0 0 0 .105-.263c0-.099-.044-.143-.104-.098a.383.383 0 0 0-.113.267c-.002.101.052.143.112.094m-.184.642a.4.4 0 0 0 .123-.28c0-.1-.049-.141-.114-.089a.42.42 0 0 0-.13.283c-.006.101.053.141.121.086m-.836 2.113c.063 0 .127-.099.127-.199 0-.08-.092-.048-.144.049-.063.125-.059.15.017.15m-.513-1.337v.305a.34.34 0 0 0-.075.189.1.1 0 0 0 .071.113v.286a.13.13 0 0 1 0 .043.2.2 0 0 1-.007.042v.273a.286.286 0 0 0-.096.178.091.091 0 0 0 .092.1l-.009.581a.277.277 0 0 0-.114.186c0 .088.078.127.179.083a.34.34 0 0 0 .177-.184l.2-.113c.013.065.082.087.167.046a.352.352 0 0 0 .183-.237l.169-.092v-.021a.34.34 0 0 1 .043-.136v-.227a.34.34 0 0 0 .046-.149c0-.053-.016-.087-.045-.097v-.288a.14.14 0 0 1-.015-.055.23.23 0 0 1 .008-.053v-.287a.445.445 0 0 0 .076-.218c0-.072-.028-.113-.075-.099v-.675a.43.43 0 0 0 .103-.251c0-.106-.059-.146-.146-.087a.37.37 0 0 0-.087.091l-.846.453v.114a.16.16 0 0 1 .021.083.3.3 0 0 1-.02.103m.454.693c-.119.02-.114-.018.012-.098.216-.139.296-.131.197.02-.069.105-.07.121-.005.121.127 0 .08.075-.098.16-.226.106-.235.103-.145-.026s.098-.186.039-.177m.011-.923a.113.113 0 0 0 .092-.076c.041-.105.147-.062.165.068.009.057-.008.104-.036.104a.06.06 0 0 1-.06-.06c0-.033-.025 0-.052.072-.05.139-.159.178-.197.073-.027-.088.014-.181.088-.181m-.02.369c.113-.142.226-.165.269-.055.084.221-.177.508-.304.34-.084-.121-.083-.135.035-.285m0 .935c.113-.113.162-.12.24-.026.121.145-.121.483-.263.365-.105-.084-.095-.224.019-.339Zm-.073.543c.032-.077.038-.077.07.01s.039.082.068-.035c.037-.144.163-.177.209-.055a.133.133 0 0 1-.026.13c-.041.041-.056.03-.057-.04s-.022-.046-.07.063c-.103.23-.291.156-.197-.071Zm-.744-1.538c0 .113.086.168.195.113a.374.374 0 0 0 .177-.197v-.183c-.03-.051-.095-.066-.172-.031a.369.369 0 0 0-.2.298m.175.77a.325.325 0 0 0-.204.247c0 .091.084.133.192.089a.35.35 0 0 0 .195-.21V9.33c-.02-.064-.092-.079-.183-.041m1.308.049a.424.424 0 0 0 .141-.293c0-.103-.054-.137-.131-.075a.476.476 0 0 0-.142.243v.113c.018.053.071.059.132.012m-.178.904c.007.079.069.107.143.062a.364.364 0 0 0 .147-.272c0-.1-.054-.136-.133-.083a.385.385 0 0 0-.114.135v.135Zm-1.393-2.045a.351.351 0 0 0 .205-.295.129.129 0 0 0-.194-.129.349.349 0 0 0-.208.29.133.133 0 0 0 .197.134m1.034.616c.077-.064.093-.238.023-.238-.026 0-.071.044-.1.097-.067.121-.016.213.077.141m1.979 3.416a.515.515 0 0 0-.114.318c0 .113.049.159.114.093a.56.56 0 0 0 .113-.326c0-.113-.054-.149-.113-.085m-.432-5.701a.36.36 0 0 0 .092-.25c0-.093-.048-.132-.1-.088a.35.35 0 0 0-.089.248c.002.094.045.134.097.09m.454 4.665a.48.48 0 0 0-.119.298c0 .104.046.141.114.082a.484.484 0 0 0 .124-.3c-.001-.111-.053-.146-.119-.08m-.342 4.08a.34.34 0 0 0 .114-.27c0-.113-.049-.169-.114-.129a.355.355 0 0 0-.113.266c.002.102.051.162.113.133m.363-5.137a.476.476 0 0 0-.119.302c0 .106.047.144.113.084a.484.484 0 0 0 .125-.305c.001-.107-.049-.142-.119-.081m-.025 4.902a.442.442 0 0 0 .113-.31c0-.122-.053-.172-.113-.114a.453.453 0 0 0-.113.306c.001.111.051.168.113.118m-.177.652a.331.331 0 0 0 .12-.261c0-.113-.048-.162-.113-.122a.35.35 0 0 0-.113.258c-.005.103.038.161.106.125m.159-2.294a.544.544 0 0 0-.107.334c0 .121.052.175.114.114a.55.55 0 0 0 .113-.34c-.007-.129-.059-.173-.12-.108m-.129-7.117a.356.356 0 0 0 .113-.253c0-.092-.056-.128-.113-.082a.34.34 0 0 0-.102.253c-.006.092.042.129.102.082m-.144.583a.34.34 0 0 0 .097-.25c0-.092-.053-.129-.113-.083a.35.35 0 0 0-.093.25c.008.093.053.131.109.083m.327-.261a.34.34 0 0 0 .114-.254c0-.09-.064-.123-.13-.074a.325.325 0 0 0-.113.252c.011.091.063.126.129.076m.039 1.486a.408.408 0 0 0-.126.274c0 .099.046.139.113.081a.436.436 0 0 0 .134-.281c.005-.096-.053-.128-.121-.074m-.029.998a.467.467 0 0 0-.123.301c0 .105.047.143.113.082a.493.493 0 0 0 .129-.304c.004-.106-.052-.141-.119-.079m.172-3.074a.374.374 0 0 0 .143-.268c0-.095-.065-.127-.143-.073a.354.354 0 0 0-.134.266c.001.093.059.127.134.075m-.106.826c0 .09.061.121.134.07a.34.34 0 0 0 .13-.257c0-.089-.07-.119-.143-.068a.323.323 0 0 0-.121.255m-4.289 2.064a.151.151 0 0 0 .201.151.282.282 0 0 0 .212-.252.148.148 0 0 0-.201-.15.286.286 0 0 0-.212.251M8.03 8.493a.304.304 0 0 0 .147.288c.092.044.172-.015.184-.128a.298.298 0 0 0-.144-.286c-.091-.044-.177.011-.187.126m.462-.166c.093.039.181-.029.201-.148a.265.265 0 0 0-.135-.282c-.093-.039-.185.022-.203.143a.278.278 0 0 0 .137.287m5.673.413a.138.138 0 0 0 .2.136.328.328 0 0 0 .209-.277c0-.113-.086-.171-.2-.132a.324.324 0 0 0-.209.273m-6.627-.53a.35.35 0 0 0 .146.307c.089.052.169 0 .18-.114a.34.34 0 0 0-.143-.304c-.09-.055-.173-.005-.183.111m1.513.661a.22.22 0 0 0 .168.234.163.163 0 0 0 .189-.164.227.227 0 0 0-.161-.235.168.168 0 0 0-.196.165m-.047-.375a.178.178 0 0 0 .205-.171.227.227 0 0 0-.139-.255.178.178 0 0 0-.207.167.227.227 0 0 0 .141.259m.531.11a.185.185 0 0 0 .201-.179.21.21 0 0 0-.143-.242.189.189 0 0 0-.207.179.207.207 0 0 0 .149.242m-1.006.116a.255.255 0 0 0 .156.261c.096.029.178-.04.187-.152a.25.25 0 0 0-.151-.256.15.15 0 0 0-.192.147M6.07 7.247a.408.408 0 0 0 .158.319c.089.059.163.013.166-.102a.403.403 0 0 0-.157-.319c-.096-.061-.166-.014-.167.102m.978.649a.385.385 0 0 0 .15.316c.089.058.166.011.175-.104a.373.373 0 0 0-.146-.315c-.09-.061-.171-.014-.179.103m-1.061.079c.088.057.159.011.159-.102a.41.41 0 0 0-.156-.307c-.089-.057-.16-.009-.16.105a.406.406 0 0 0 .157.304m.011-1.141c.089.056.165.009.167-.107a.397.397 0 0 0-.164-.313c-.092-.055-.166-.008-.166.108a.4.4 0 0 0 .163.312m.997.642c.092.06.173.013.183-.106a.373.373 0 0 0-.153-.32c-.095-.059-.177-.012-.184.106a.39.39 0 0 0 .154.32m-.501-.325c.092.06.171.014.177-.104a.39.39 0 0 0-.161-.319c-.094-.059-.174-.011-.176.106a.401.401 0 0 0 .16.317m5.672 9.368a.178.178 0 0 0-.193-.182.21.21 0 0 0-.206.202.194.194 0 0 0 .203.192.213.213 0 0 0 .196-.212M7.494 7.793c.091.055.175 0 .19-.114a.348.348 0 0 0-.145-.316c-.094-.056-.18-.007-.192.113a.367.367 0 0 0 .147.317m5.354.882a.253.253 0 0 0 .206-.235.163.163 0 0 0-.192-.177.25.25 0 0 0-.205.233.164.164 0 0 0 .191.179m.085.331a.161.161 0 0 0 .196.165.252.252 0 0 0 .208-.227.16.16 0 0 0-.198-.163.249.249 0 0 0-.206.225m-.585.063a.165.165 0 0 0 .187.172.227.227 0 0 0 .198-.21.169.169 0 0 0-.19-.174.227.227 0 0 0-.195.212m1.727-.658a.314.314 0 0 0 .211-.275.142.142 0 0 0-.199-.147.315.315 0 0 0-.211.272.145.145 0 0 0 .199.15m-.619.159a.286.286 0 0 0 .212-.255.154.154 0 0 0-.198-.163.282.282 0 0 0-.212.251.158.158 0 0 0 .198.167m-1.194.164a.227.227 0 0 0 .196-.217.175.175 0 0 0-.183-.192.227.227 0 0 0-.195.219.173.173 0 0 0 .182.19m-6.253.318c.087.053.156.012.154-.092a.39.39 0 0 0-.165-.29c-.088-.055-.157-.009-.152.097a.377.377 0 0 0 .163.285m4.058-.366a.189.189 0 0 0 .199-.186.202.202 0 0 0-.152-.227.195.195 0 0 0-.201.187.197.197 0 0 0 .154.226m.064.353a.201.201 0 0 0 .178.209.175.175 0 0 0 .186-.177.203.203 0 0 0-.174-.211.18.18 0 0 0-.19.179m-.543-.068a.209.209 0 0 0 .173.22.168.168 0 0 0 .187-.17.213.213 0 0 0-.166-.227.177.177 0 0 0-.194.177m2.2.126a.177.177 0 0 0 .185.181.199.199 0 0 0 .187-.197.177.177 0 0 0-.184-.185.202.202 0 0 0-.188.201m-1.181-.359a.21.21 0 0 0 .033-.414.198.198 0 0 0-.196.194.193.193 0 0 0 .163.22m1.098.022a.209.209 0 0 0 .192-.208.182.182 0 0 0-.177-.201.211.211 0 0 0-.192.21.18.18 0 0 0 .177.199m-1.03.326a.194.194 0 0 0 .184.197.179.179 0 0 0 .183-.183.195.195 0 0 0-.178-.201.188.188 0 0 0-.189.187m.477-.324a.201.201 0 0 0 .192-.201.188.188 0 0 0-.169-.21.204.204 0 0 0-.193.202.185.185 0 0 0 .17.209m.079.342a.185.185 0 0 0 .185.188.188.188 0 0 0 .185-.19.186.186 0 0 0-.183-.192.193.193 0 0 0-.187.194m-3.24-1.019c.092.05.179-.008.196-.127a.313.313 0 0 0-.137-.305c-.094-.049-.182.006-.198.125a.328.328 0 0 0 .139.307m.444 5.338a.243.243 0 0 0-.132-.258c-.089-.037-.169.018-.184.128a.263.263 0 0 0 .125.269c.086.037.174-.03.191-.139m-.069.774a.18.18 0 0 0 .207-.16.204.204 0 0 0-.123-.243.161.161 0 0 0-.197.146.22.22 0 0 0 .113.257m.577-.659a.193.193 0 0 0-.142-.227.178.178 0 0 0-.199.162.196.196 0 0 0 .131.236.193.193 0 0 0 .21-.171m2.113 1.528a.238.238 0 0 0 .241-.215.199.199 0 0 0-.2-.227.252.252 0 0 0-.246.215.203.203 0 0 0 .205.227m-3.03-.402c.081.036.167-.03.191-.142a.235.235 0 0 0-.114-.261c-.082-.037-.164.019-.187.131a.253.253 0 0 0 .11.272m-.237-1.34c.082.051.162 0 .176-.113a.307.307 0 0 0-.133-.284c-.083-.05-.157 0-.167.103a.34.34 0 0 0 .124.294m.125.676c.079.044.164-.015.185-.126a.267.267 0 0 0-.114-.276c-.082-.045-.161.005-.179.113a.288.288 0 0 0 .108.289m1.147.906a.22.22 0 0 0 .241-.178.193.193 0 0 0-.163-.227.214.214 0 0 0-.234.174.19.19 0 0 0 .156.231m1.31.131a.238.238 0 0 0 .253-.201.203.203 0 0 0-.198-.226.245.245 0 0 0-.254.199.204.204 0 0 0 .199.228m-1.024-1.651a.206.206 0 0 0-.22.178.185.185 0 0 0 .152.226.219.219 0 0 0 .226-.183.185.185 0 0 0-.158-.221m.761 1.049a.24.24 0 0 0 .251-.2.193.193 0 0 0-.186-.227.24.24 0 0 0-.247.198.19.19 0 0 0 .182.229m-1.229-.13a.214.214 0 0 0 .226-.176.187.187 0 0 0-.145-.227.203.203 0 0 0-.22.173.185.185 0 0 0 .139.23m.817.676a.227.227 0 0 0 .251-.188.198.198 0 0 0-.184-.226.232.232 0 0 0-.25.187.196.196 0 0 0 .183.227m-2.195-1.256c.075.055.152.007.168-.102a.332.332 0 0 0-.113-.299c-.079-.055-.152-.013-.166.097a.36.36 0 0 0 .111.304m1.966.657a.227.227 0 0 0 .245-.188.189.189 0 0 0-.169-.227.227.227 0 0 0-.238.185.187.187 0 0 0 .162.23m-.969.427a.201.201 0 0 0 .22-.168.193.193 0 0 0-.133-.235.211.211 0 0 0-.087.403m-.09-1.954a.246.246 0 0 0 .15.25.155.155 0 0 0 .189-.153.227.227 0 0 0-.161-.235.136.136 0 0 0-.178.138m-.066-.741a.113.113 0 0 0-.166.119.295.295 0 0 0 .166.26c.092.036.168-.026.168-.131a.28.28 0 0 0-.168-.248m-.251.409c-.091-.043-.161 0-.165.114a.322.322 0 0 0 .148.277c.087.043.168-.013.173-.121a.298.298 0 0 0-.156-.27m-.711 1.503a.364.364 0 0 0-.103-.307c-.074-.06-.144-.021-.156.091a.392.392 0 0 0 .102.311c.07.059.14.018.157-.095m1.482-1.767a.145.145 0 0 0-.177.152.232.232 0 0 0 .177.227.152.152 0 0 0 .18-.159.227.227 0 0 0-.18-.22m.557.074a.17.17 0 0 0-.193.169.211.211 0 0 0 .189.207.177.177 0 0 0 .198-.173.21.21 0 0 0-.194-.203m-1.566-.452c-.089-.049-.161-.008-.161.096a.35.35 0 0 0 .159.282c.088.05.161 0 .161-.104a.34.34 0 0 0-.159-.274m1.267.937a.171.171 0 0 0-.194.165.198.198 0 0 0 .157.227.19.19 0 0 0 .207-.173.198.198 0 0 0-.17-.219m-2.202-1.543c-.084-.059-.154-.025-.154.077a.397.397 0 0 0 .15.294c.084.06.153.024.155-.078a.397.397 0 0 0-.151-.293m-.145 1.112a.433.433 0 0 0 .145.308c.08.062.149.023.153-.085a.408.408 0 0 0-.149-.304c-.084-.063-.15-.025-.149.081m.835-.131c-.087-.055-.155-.015-.154.09a.396.396 0 0 0 .153.295c.085.054.159.008.161-.099a.369.369 0 0 0-.16-.286m-.52 1.147c.075.061.146.02.157-.09a.381.381 0 0 0-.122-.308c-.079-.061-.147-.024-.155.086a.41.41 0 0 0 .12.312m.289-.77c-.083-.059-.152-.02-.158.089a.4.4 0 0 0 .134.304c.079.058.154.015.162-.094a.365.365 0 0 0-.138-.299m-.237-.689c-.084-.06-.153-.024-.151.08a.422.422 0 0 0 .157.302c.085.06.153.022.151-.085a.415.415 0 0 0-.157-.297m.239-.352c-.085-.057-.155-.021-.156.082a.386.386 0 0 0 .154.293c.085.057.155.017.156-.088a.376.376 0 0 0-.154-.287m3.396 2.873a.245.245 0 0 0 .244-.216.193.193 0 0 0-.193-.22.25.25 0 0 0-.246.213.196.196 0 0 0 .195.223m1.178-2.492a.177.177 0 0 0 .199.165.196.196 0 0 0 .184-.195.177.177 0 0 0-.198-.163.195.195 0 0 0-.185.193m.44-.69a.178.178 0 0 0-.172.186.185.185 0 0 0 .367-.029.176.176 0 0 0-.195-.157m-.57.039a.177.177 0 1 0 .205.161.186.186 0 0 0-.205-.161m.87.409a.193.193 0 0 0-.171.196.162.162 0 0 0 .186.159.209.209 0 0 0 .175-.208.158.158 0 0 0-.19-.147m.809-.64a.227.227 0 0 0-.178.215.139.139 0 0 0 .192.113.244.244 0 0 0 .179-.221c-.003-.085-.09-.135-.193-.107m-.56.124a.199.199 0 0 0-.17.201.158.158 0 0 0 .193.142.213.213 0 0 0 .173-.209.155.155 0 0 0-.196-.134m-1.587.798a.187.187 0 0 0 .207.17.202.202 0 0 0 .196-.196.185.185 0 0 0-.207-.165.199.199 0 0 0-.196.191m1.886-.389a.227.227 0 0 0-.175.217.139.139 0 0 0 .186.132.246.246 0 0 0 .178-.226.139.139 0 0 0-.189-.123m-3.726.391a.205.205 0 0 0 .195.201.186.186 0 0 0 .201-.178.203.203 0 0 0-.196-.195.18.18 0 0 0-.2.172m.508-.659a.182.182 0 0 0-.199.173.197.197 0 0 0 .196.193.187.187 0 0 0 .202-.178.199.199 0 0 0-.199-.188m-.581-.042a.17.17 0 0 0-.194.163.205.205 0 0 0 .182.207.176.176 0 0 0 .198-.168.205.205 0 0 0-.186-.202m.673.73a.206.206 0 1 0 .203-.182.19.19 0 0 0-.203.182m.617-.004a.19.19 0 0 0 .209.176.202.202 0 0 0 .203-.192.189.189 0 0 0-.21-.172.198.198 0 0 0-.202.188m-.109-.674a.189.189 0 0 0-.199.18.204.204 0 0 0 .405 0 .196.196 0 0 0-.206-.18m.605-.014a.179.179 0 1 0 .209.168.189.189 0 0 0-.209-.168m3.049 2.325a.403.403 0 0 0 .191-.302c0-.113-.072-.158-.173-.106a.391.391 0 0 0-.193.299c-.004.118.073.163.175.109m-1.415 1.241a.34.34 0 0 0 .196-.287c.007-.122-.07-.191-.171-.16a.317.317 0 0 0-.196.276c-.007.125.069.204.171.171m.306-.705a.357.357 0 0 0 .196-.294c.007-.121-.07-.184-.171-.148a.34.34 0 0 0-.196.284c-.007.123.069.198.171.158m-.55.163a.294.294 0 0 0 .196-.267c.006-.125-.07-.204-.169-.186a.269.269 0 0 0-.194.254c-.008.126.067.22.167.199m.8.315a.402.402 0 0 0 .197-.308c0-.119-.072-.173-.174-.127a.38.38 0 0 0-.197.302c-.007.121.071.182.174.133m-1.104.341a.252.252 0 0 0 .195-.247c.007-.124-.067-.214-.169-.204a.254.254 0 0 0-.203.243.178.178 0 0 0 .177.208m-.6.034a.24.24 0 0 0 .227-.226.188.188 0 0 0-.191-.216.249.249 0 0 0-.226.227.194.194 0 0 0 .19.215m.548-.87c.008-.126-.071-.219-.178-.21a.257.257 0 0 0-.215.241.184.184 0 0 0 .185.213.25.25 0 0 0 .208-.244m2.266-2.833c0-.091-.08-.131-.182-.093a.279.279 0 0 0-.184.233c0 .092.082.137.182.098a.295.295 0 0 0 .184-.238m-.735.103a.255.255 0 0 0-.179.226.126.126 0 0 0 .184.114.274.274 0 0 0 .182-.235c-.001-.093-.085-.138-.187-.105m.542.733a.332.332 0 0 0-.186.269.113.113 0 0 0 .173.113.347.347 0 0 0 .187-.273c.002-.106-.076-.152-.174-.109m-.268-1.276a.257.257 0 0 0-.184.227c0 .09.088.138.191.103a.273.273 0 0 0 .183-.227c-.001-.094-.086-.137-.19-.103m-.091 3.473a.428.428 0 0 0 .195-.313c.006-.114-.072-.162-.174-.107a.41.41 0 0 0-.195.311c-.007.116.071.166.174.109m-.253-.429a.397.397 0 0 0 .194-.305c.006-.113-.071-.169-.172-.121a.374.374 0 0 0-.195.298c-.007.119.072.178.173.128m-2.058.27a.187.187 0 0 0-.191-.216.254.254 0 0 0-.235.227.193.193 0 0 0 .195.219.248.248 0 0 0 .231-.23m2.863-.165a.415.415 0 0 0 .192-.303c0-.114-.073-.154-.173-.098a.413.413 0 0 0-.193.305c-.002.113.077.157.174.096m.065-1.48a.358.358 0 0 0-.187.281c0 .114.074.158.173.114a.365.365 0 0 0 .187-.284c.004-.111-.073-.158-.173-.111M5.915 6.004l.17.101a.396.396 0 0 0 .169.308c.094.058.174.012.176-.104l.176.105a.393.393 0 0 0 .167.317c.095.058.179.01.186-.107l.178.107a.374.374 0 0 0 .157.317c.095.058.183.007.195-.113l.177.1a.34.34 0 0 0 .147.314c.094.054.185 0 .202-.123.058.03.113.061.174.089a.299.299 0 0 0 .138.303c.094.045.187-.02.207-.141.058.025.113.049.173.071a.253.253 0 0 0 .132.282c.094.032.188-.044.212-.166.058.017.113.032.173.047a.214.214 0 0 0 .133.258c.095.022.188-.06.209-.18l.172.034a.202.202 0 0 0 .136.247.196.196 0 0 0 .202-.188l.172.024a.195.195 0 0 0 .144.236.203.203 0 0 0 .198-.198l.173.015a.187.187 0 0 0 .153.227.205.205 0 0 0 .194-.205l.178.005a.182.182 0 0 0 .164.215.213.213 0 0 0 .192-.214h.184a.178.178 0 0 0 .173.204.227.227 0 0 0 .196-.226l.189-.014a.172.172 0 0 0 .184.194.252.252 0 0 0 .204-.236l.199-.03a.161.161 0 0 0 .193.178.278.278 0 0 0 .211-.254c.068-.014.137-.03.205-.047a.152.152 0 0 0 .198.163.311.311 0 0 0 .212-.273l.207-.063a.139.139 0 0 0 .197.146.34.34 0 0 0 .207-.289l.202-.079a.128.128 0 0 0 .194.13.367.367 0 0 0 .199-.301l.194-.091a.113.113 0 0 0 .184.113.386.386 0 0 0 .188-.302l.18-.098c0 .113.074.155.16.104a.366.366 0 0 0 .152-.283q.071-.043.136-.085c0 .104.056.15.122.103a.35.35 0 0 0 .113-.263l.108-.077c0 .099.045.143.1.101a.35.35 0 0 0 .095-.252l.092-.068c0 .096.042.139.093.097a.363.363 0 0 0 .09-.248l.096-.079c0 .094.044.135.098.09a.365.365 0 0 0 .103-.253l.114-.088c0 .096.05.132.119.083a.4.4 0 0 0 .135-.271l.146-.105c0 .1.058.134.148.074a11.3 11.3 0 0 0-.013.604.34.34 0 0 0-.144.263c0 .091.065.121.148.068 0 .189.011.376.018.567a.33.33 0 0 0-.135.258c0 .09.066.119.147.065v.226a22.67 22.67 0 0 0-.05-4.071c-.027-.05-.1-.204-.161-.34s-.141-.252-.174-.252a.059.059 0 0 1-.06-.055c0-.34-2.016-1.492-2.619-1.492a.44.44 0 0 1-.171-.043 12.22 12.22 0 0 0-2.833-.171 8.97 8.97 0 0 0-2.483.653c-.039.033-.085.056-.1.05s-1.254.597-1.551.766c-.157.089-.625.366-.744.441a3.316 3.316 0 0 0-1.37 1.758c-.017.075-.029.615-.035 1.444.047-.009.081-.054.081-.127m8.646-.68c.043-.172.094-.18.284-.045.167.113.199.195.113.277-.156.156-.273.148-.21-.012a.218.218 0 0 0-.042-.227c-.052-.05-.088-.038-.08.025.035.315-.017.664-.078.519a.49.49 0 0 0-.246-.222c-.17-.066-.17-.07.013-.086a.307.307 0 0 0 .244-.226Zm-.642-.381c.377-.197.523-.245.523-.169a1.617 1.617 0 0 1-.786.408c-.067-.018.051-.125.26-.235Zm-1.597-1.278c.196 0 .357.043.357.095s-.122.095-.271.095a.596.596 0 0 1-.357-.095c-.048-.054.069-.095.271-.095m4.766 7.473a.453.453 0 0 0 .113-.287c0-.105-.044-.146-.102-.092a.453.453 0 0 0-.113.284c-.003.104.044.15.102.095m-.187 1.7a.408.408 0 0 0 .113-.284c0-.114-.044-.153-.106-.104a.402.402 0 0 0-.113.277c0 .107.044.159.106.111m.019-1.041a.417.417 0 0 0 .113-.284c0-.105-.043-.148-.103-.098a.426.426 0 0 0-.113.281c-.006.104.043.152.103.101m.026-1.414a.44.44 0 0 0-.113.281c0 .104.046.147.105.096a.435.435 0 0 0 .113-.285c-.001-.104-.046-.145-.105-.092m-.644-2.43a.453.453 0 0 0-.15.3c0 .104.062.135.139.073a.44.44 0 0 0 .14-.293c.003-.102-.053-.138-.129-.08m.252 4.742a.347.347 0 0 0-.135.265c0 .104.056.157.127.113a.34.34 0 0 0 .127-.268c.002-.103-.05-.151-.119-.11m.181-.256a.385.385 0 0 0 .119-.272c0-.103-.045-.146-.113-.101a.374.374 0 0 0-.125.267c.002.106.056.152.119.106m-.265-3.774a.467.467 0 0 0 .129-.291c0-.1-.046-.134-.113-.075a.46.46 0 0 0-.144.287c0 .103.059.142.128.079m.806.374a.483.483 0 0 0-.107.296c0 .105.043.145.101.087a.49.49 0 0 0 .108-.296c.002-.104-.045-.142-.102-.087m-.167.68a.47.47 0 0 0-.108.289c0 .105.045.146.102.091a.465.465 0 0 0 .107-.291c.001-.105-.044-.143-.101-.089m-.042 2.457a.43.43 0 0 0 .113-.281c0-.106-.041-.148-.1-.095a.447.447 0 0 0-.114.279c-.004.103.042.148.101.097m-.104-2.825a.476.476 0 0 0-.113.289c0 .104.045.145.104.089a.474.474 0 0 0 .107-.29c.005-.105-.039-.145-.098-.088m.257 3.211a.487.487 0 0 0 .106-.298c0-.114-.044-.149-.101-.094a.453.453 0 0 0-.108.291c-.001.108.045.156.103.101m.04-2.476a.48.48 0 0 0-.107.291c0 .105.044.147.102.091a.482.482 0 0 0 .107-.295c0-.104-.044-.143-.102-.087m-.012 1.043a.46.46 0 0 0-.113.288c0 .105.043.148.101.094a.47.47 0 0 0 .113-.29c-.001-.105-.046-.142-.101-.092m-.46-1.112a.433.433 0 0 0-.113.28c0 .102.049.144.113.093a.43.43 0 0 0 .114-.282c-.006-.104-.052-.144-.114-.091M5.93 9.326a.355.355 0 0 0-.101-.227v.34c.06.007.102-.035.101-.113m-.004.975a.34.34 0 0 0-.094-.227v.331c.056.008.093-.032.094-.104m-.011.983a.358.358 0 0 0-.084-.214v.325c.055 0 .089-.039.084-.111m.027 1.042a.4.4 0 0 0-.101-.241v.358c.061.008.103-.037.101-.117m-.036-4.053a.41.41 0 0 0-.078-.227v.34c.047.006.079-.037.078-.113m3.045 3.674a.213.213 0 0 0 .179.216.167.167 0 0 0 .192-.166.214.214 0 0 0-.183-.209.161.161 0 0 0-.188.159m8.909-4.209c0 .094.057.126.131.07a.374.374 0 0 0 .135-.268c0-.092-.067-.12-.14-.066a.351.351 0 0 0-.126.264M5.907 7.143a.415.415 0 0 0-.077-.227v.361c.045-.013.077-.058.077-.134m-.022 9.366v.298a.215.215 0 0 0 .03-.106.49.49 0 0 0-.03-.192m.059 1.066c.065.054.114 0 .126-.114a.442.442 0 0 0-.104-.32.069.069 0 0 0-.07-.02c0 .144 0 .28.007.409a.23.23 0 0 0 .041.045m12.075-8.526c0 .106.053.14.133.075-.008.227-.014.443-.021.668a.468.468 0 0 0-.139.309c0 .107.053.142.13.077q-.008.34-.018.67a.47.47 0 0 0-.137.306c0 .105.051.141.126.077-.008.22-.016.438-.025.652a.467.467 0 0 0-.135.309c0 .114.051.148.122.078v.745a.59.59 0 0 0-.119.358c0 .125.057.17.125.097 0 .265.008.534.013.8a.567.567 0 0 0-.114.348c0 .122.055.171.124.105v.742a.442.442 0 0 0-.128.292c0 .104.047.148.113.098-.009.216-.02.422-.025.65a.43.43 0 0 0-.121.301l-.114.102c0-.113-.051-.165-.113-.113a.46.46 0 0 0-.097.316l-.098.103c-.005-.124-.053-.181-.105-.127a.528.528 0 0 0-.078.34c-.031.037-.062.072-.091.114-.01-.135-.058-.196-.113-.139a.578.578 0 0 0-.073.357l-.095.114c-.013-.142-.066-.208-.123-.148a.567.567 0 0 0-.08.372c-.036.037-.075.075-.113.113-.014-.145-.077-.214-.148-.154a.496.496 0 0 0-.107.373c-.047.035-.097.072-.148.106-.013-.143-.094-.218-.184-.161a.417.417 0 0 0-.147.358l-.179.098c-.009-.136-.098-.205-.2-.149a.396.396 0 0 0-.174.34l-.197.094c-.007-.128-.101-.194-.212-.142a.369.369 0 0 0-.195.319l-.209.082a.146.146 0 0 0-.215-.138.34.34 0 0 0-.208.29c-.072.024-.143.048-.214.069a.148.148 0 0 0-.21-.14.308.308 0 0 0-.211.263l-.208.053a.15.15 0 0 0-.199-.148.266.266 0 0 0-.202.235 5 5 0 0 1-.191.035.156.156 0 0 0-.181-.163.219.219 0 0 0-.179.214c-.061.007-.123.012-.189.016a.184.184 0 0 0-.198-.182.214.214 0 0 0-.214.198h-.227a.227.227 0 0 0-.233-.202.211.211 0 0 0-.241.183l-.248-.018a.257.257 0 0 0-.25-.22c-.139-.015-.253.06-.253.168l-.255-.035a.284.284 0 0 0-.253-.236c-.139-.023-.251.044-.251.153l-.249-.05a.299.299 0 0 0-.239-.251c-.131-.03-.235.031-.235.138a6 6 0 0 1-.227-.064.307.307 0 0 0-.212-.261c-.113-.037-.206.017-.207.123a4.5 4.5 0 0 1-.192-.075.307.307 0 0 0-.158-.262c-.083-.037-.151.015-.154.114l-.138-.071a.306.306 0 0 0-.121-.255c-.068-.038-.126.013-.129.114l-.11-.069a.331.331 0 0 0-.101-.26c-.059-.041-.114.01-.114.113l-.105-.08a.372.372 0 0 0-.09-.271c-.055-.044-.105.007-.113.113l-.1-.082a.405.405 0 0 0-.089-.287c-.056-.048-.108 0-.113.113l-.106-.089a.425.425 0 0 0-.098-.303c-.061-.053-.114 0-.122.119l-.063-.045c.013.519.027.844.042.893.05.175.098.382.177.761a.31.31 0 0 0 .07.16.127.127 0 0 1 .043.099 1.36 1.36 0 0 0 .113.324c.063.137.128.291.145.34a4.92 4.92 0 0 0 1.233 1.527.046.046 0 0 1 .052.04c0 .022.061.071.134.114s.255.136.404.218a5.09 5.09 0 0 0 1.516.475c.079.011.276.043.434.072a6.69 6.69 0 0 0 2.223-.141 2.8 2.8 0 0 1 .299-.071 5.58 5.58 0 0 0 1.247-.488 3.1 3.1 0 0 1 .466-.215.26.26 0 0 0 .131-.068 6.35 6.35 0 0 1 .836-.486.73.73 0 0 0 .227-.159c0-.02.06-.062.133-.096a4.34 4.34 0 0 0 .978-.861.283.283 0 0 1 .085-.114 5.24 5.24 0 0 0 .738-1.321.36.36 0 0 1 .072-.156.39.39 0 0 0 .07-.197.25.25 0 0 1 .034-.137.26.26 0 0 0 .049-.113 13.34 13.34 0 0 0 .227-3.077c.009-.984.043-3.842.075-6.347l.006-.454c0 .096-.01.192-.013.291a.453.453 0 0 0-.142.295M6.001 15.264c.072.059.127.02.125-.088a.453.453 0 0 0-.131-.302c-.063-.051-.113-.025-.129.055v.073a.44.44 0 0 0 .135.262m-.076-.785a.436.436 0 0 0-.066-.226v.34c.041 0 .066-.046.066-.114m.074 1.902c.068.06.125.013.129-.104a.453.453 0 0 0-.113-.32c-.067-.056-.124-.018-.131.086v.066a.462.462 0 0 0 .115.272m-.058-.834a.45.45 0 0 0-.07-.216v.34c.044-.005.071-.049.07-.124m.001-2.15a.406.406 0 0 0-.093-.249v.369c.054.006.092-.038.093-.12m4.074-1.032a.19.19 0 0 0-.202.181.204.204 0 1 0 .202-.181m1.197 1.069a.249.249 0 0 0-.232.22.188.188 0 0 0 .193.213.247.247 0 0 0 .232-.226.186.186 0 0 0-.193-.207m.125-.369a.182.182 0 0 0 .194.198.238.238 0 0 0 .215-.226.177.177 0 0 0-.194-.192.236.236 0 0 0-.215.22m.495.337a.25.25 0 0 0-.217.226.184.184 0 0 0 .188.21.247.247 0 0 0 .214-.237.177.177 0 0 0-.185-.199m.034-1.107a.211.211 0 0 0-.199.202.181.181 0 0 0 .197.18.227.227 0 0 0 .198-.212.172.172 0 0 0-.196-.17m.543 1.051a.25.25 0 0 0-.197.239c-.007.123.072.217.173.205a.254.254 0 0 0 .194-.245c.006-.119-.069-.207-.17-.199m-.462-.322a.175.175 0 0 0 .183.195.238.238 0 0 0 .199-.227.169.169 0 0 0-.182-.188.233.233 0 0 0-.2.22m.494-.776a.206.206 0 0 0-.186.202.17.17 0 0 0 .182.176.219.219 0 0 0 .185-.21.162.162 0 0 0-.181-.168m-2.359.835a.186.186 0 0 0 .186.206.227.227 0 0 0 .227-.201.187.187 0 0 0-.193-.2.227.227 0 0 0-.22.195m-.138.347a.227.227 0 0 0-.235.191.186.186 0 0 0 .174.22.236.236 0 0 0 .24-.197.185.185 0 0 0-.179-.214m1.314-1.094a.211.211 0 0 0-.207.199.186.186 0 0 0 .203.183.218.218 0 0 0 .209-.207.181.181 0 0 0-.205-.175m1.442.406a.237.237 0 0 0-.188.227c0 .113.072.204.171.188a.26.26 0 0 0 .191-.244.152.152 0 0 0-.174-.171m-3.218.309a.187.187 0 0 0 .172.212.214.214 0 0 0 .227-.187.19.19 0 0 0-.184-.206.202.202 0 0 0-.215.181m1.152-.689a.204.204 0 0 0-.207.192.192.192 0 0 0 .203.188.213.213 0 0 0 .213-.198.192.192 0 0 0-.209-.182m.074.724a.185.185 0 0 0 .194.202.235.235 0 0 0 .226-.214.181.181 0 0 0-.196-.195.227.227 0 0 0-.224.207m-.134.359a.243.243 0 0 0-.238.206.188.188 0 0 0 .187.216.245.245 0 0 0 .242-.21.187.187 0 0 0-.191-.212m4.801-.712a.34.34 0 0 0-.185.271c0 .105.074.15.172.104a.34.34 0 0 0 .183-.266c.002-.102-.072-.152-.17-.109m.252.386a.333.333 0 0 0-.184.267c0 .104.073.149.17.106a.322.322 0 0 0 .181-.259.113.113 0 0 0-.167-.114m.274-.6a.306.306 0 0 0-.18.25.113.113 0 0 0 .168.113.304.304 0 0 0 .172-.255.107.107 0 0 0-.16-.108m.858-1.107a.397.397 0 0 0 .113-.277c0-.104-.045-.148-.113-.098a.397.397 0 0 0-.121.275c.005.107.058.149.121.1m-.394.891a.332.332 0 0 0-.149.258c0 .102.061.153.137.113a.326.326 0 0 0 .14-.262c.003-.103-.053-.151-.128-.109m-.232.612a.32.32 0 0 0-.166.254c0 .102.069.154.155.114a.303.303 0 0 0 .155-.255c.003-.1-.059-.151-.144-.113m.447-1.238a.382.382 0 0 0-.133.27c0 .1.054.148.123.105a.352.352 0 0 0 .127-.269c.002-.105-.049-.152-.117-.106m-1.486 1.701a.377.377 0 0 0-.187.289c0 .113.073.149.172.095a.377.377 0 0 0 .187-.285c.003-.105-.073-.15-.172-.099m-2.14-.12a.286.286 0 0 0-.192.259c-.007.123.069.205.168.178a.314.314 0 0 0 .195-.273c.006-.12-.071-.189-.171-.164m.292-.641a.287.287 0 0 0-.19.253c0 .113.073.187.174.155a.308.308 0 0 0 .19-.266.129.129 0 0 0-.174-.142m-.26-.447a.235.235 0 0 0-.181.218.144.144 0 0 0 .176.156.261.261 0 0 0 .186-.236.139.139 0 0 0-.181-.138m.544-.148a.264.264 0 0 0-.18.235.126.126 0 0 0 .177.128.292.292 0 0 0 .184-.247c.001-.099-.08-.152-.181-.116m.724-.093c0-.095-.078-.139-.178-.101a.288.288 0 0 0-.182.243c0 .097.077.146.177.105a.303.303 0 0 0 .183-.247m.585 1.061a.373.373 0 0 0-.188.289c0 .113.072.154.172.101a.383.383 0 0 0 .188-.288c.004-.105-.073-.152-.172-.102m-1.048-.563a.318.318 0 0 0-.188.266c0 .114.073.17.174.128a.34.34 0 0 0 .184-.268.113.113 0 0 0-.17-.126m.068.706c0 .113.071.17.172.121a.379.379 0 0 0 .191-.291.113.113 0 0 0-.173-.113.355.355 0 0 0-.19.283m-.352-.053a.333.333 0 0 0-.192.28c-.006.113.07.185.172.144a.355.355 0 0 0 .193-.289c0-.116-.077-.174-.173-.135m-6.025 1.643a.35.35 0 0 0-.095-.3c-.07-.056-.139-.014-.154.097a.375.375 0 0 0 .095.305c.068.056.137.009.154-.102m3.824-3.666a.192.192 0 0 0 .208.166.181.181 0 0 0 .183-.183.19.19 0 0 0-.206-.165.181.181 0 0 0-.185.182m-.128-.652a.178.178 0 0 0-.184.178.193.193 0 0 0 .202.173.177.177 0 0 0 .184-.179.195.195 0 0 0-.202-.172m-.468.663a.194.194 0 0 0 .205.176.185.185 0 0 0 .193-.182.195.195 0 0 0-.207-.172.184.184 0 0 0-.191.178m-.107-.669a.176.176 0 0 0-.19.174.194.194 0 0 0 .196.183.178.178 0 0 0 .19-.175.195.195 0 0 0-.196-.182m-2.19-.323a.121.121 0 0 0-.174.12.278.278 0 0 0 .161.255.128.128 0 0 0 .177-.129.27.27 0 0 0-.164-.246m3.894.285a.175.175 0 0 0-.169.182.185.185 0 0 0 .2.16.175.175 0 0 0 .167-.185.184.184 0 0 0-.198-.157m-.416.667a.188.188 0 0 0 .205.161.177.177 0 0 0 .173-.185.186.186 0 0 0-.202-.158.178.178 0 0 0-.176.182m-2.35-.013a.202.202 0 0 0 .185.201.177.177 0 0 0 .196-.17.202.202 0 0 0-.189-.193.172.172 0 0 0-.192.162m-.608-.793a.15.15 0 0 0-.182.15.227.227 0 0 0 .167.227.155.155 0 0 0 .185-.154.227.227 0 0 0-.17-.223m-.288.449a.134.134 0 0 0-.179.134.252.252 0 0 0 .162.241.143.143 0 0 0 .182-.144.236.236 0 0 0-.165-.231m.531.11a.16.16 0 0 0-.189.157.212.212 0 0 0 .174.216.164.164 0 0 0 .19-.161.213.213 0 0 0-.175-.212m.297-.467a.162.162 0 0 0-.189.16.209.209 0 0 0 .177.211.167.167 0 0 0 .191-.163.21.21 0 0 0-.179-.208m.557.058a.172.172 0 0 0-.19.168.201.201 0 0 0 .188.197.175.175 0 0 0 .191-.171.202.202 0 0 0-.189-.194m2.591.432a.179.179 0 0 0-.168.188.173.173 0 0 0 .198.152.19.19 0 0 0 .17-.195.171.171 0 0 0-.2-.145m-2.504.253a.195.195 0 0 0 .198.187.182.182 0 0 0 .196-.177.197.197 0 0 0-.199-.184.181.181 0 0 0-.195.174m1.632-.667a.176.176 0 0 0-.176.18.19.19 0 0 0 .204.166.175.175 0 0 0 .174-.181.189.189 0 0 0-.202-.165m3.912 1.724a.313.313 0 0 0-.182.256c0 .102.073.151.169.114a.306.306 0 0 0 .182-.252.113.113 0 0 0-.169-.118m.277-.595a.312.312 0 0 0-.182.247.113.113 0 0 0 .168.113.299.299 0 0 0 .171-.252c.003-.094-.063-.147-.157-.108m-.808.822a.34.34 0 0 0-.184.271c0 .104.073.15.172.104a.34.34 0 0 0 .183-.269c.004-.102-.073-.15-.171-.106m.279-.607a.307.307 0 0 0-.185.25c0 .101.074.148.172.113a.323.323 0 0 0 .183-.254c.004-.103-.071-.149-.17-.109m1.187-.705a.383.383 0 0 0 .123-.273c0-.103-.047-.145-.113-.096a.39.39 0 0 0-.13.271c-.005.101.052.148.12.098m-.429.881a.322.322 0 0 0-.165.253c0 .101.068.153.153.113a.312.312 0 0 0 .153-.255c.004-.1-.057-.148-.141-.111m.228-.618a.34.34 0 0 0-.147.262c0 .101.061.151.136.113a.34.34 0 0 0 .137-.266c.002-.109-.051-.154-.126-.109m-1.774.319a.303.303 0 0 0-.184.243c0 .095.076.139.175.096a.314.314 0 0 0 .185-.247c.004-.093-.076-.134-.176-.092m-1.167-1.415a.227.227 0 0 0-.187.209.153.153 0 0 0 .203.125.235.235 0 0 0 .187-.212c-.003-.092-.094-.145-.203-.122m-.27.518a.207.207 0 0 0-.175.204.153.153 0 0 0 .198.131.227.227 0 0 0 .178-.21.153.153 0 0 0-.201-.125m.576-.137a.237.237 0 0 0-.184.216c0 .09.092.141.198.113a.249.249 0 0 0 .184-.219c.003-.092-.091-.138-.198-.11m.289-.529a.255.255 0 0 0-.195.219c0 .09.092.139.2.113a.267.267 0 0 0 .195-.227c-.002-.094-.09-.136-.2-.105m-5.16 1.185a.15.15 0 0 0-.183.15.22.22 0 0 0 .168.227.158.158 0 0 0 .187-.157.219.219 0 0 0-.172-.22m3.981-.93a.194.194 0 0 0-.176.195.167.167 0 0 0 .201.143.203.203 0 0 0 .178-.2.164.164 0 0 0-.203-.138m1.949.507c0-.089-.081-.126-.185-.087a.281.281 0 0 0-.188.227c0 .088.083.129.185.09a.295.295 0 0 0 .188-.23m-.476-.411a.269.269 0 0 0-.192.227c0 .089.088.134.194.096a.28.28 0 0 0 .19-.226c0-.09-.086-.131-.192-.097m-8.028 1.657a.442.442 0 0 0 .156.303c.083.061.15.024.149-.084a.428.428 0 0 0-.159-.303c-.084-.06-.151-.022-.146.084m1.979 4.875a.165.165 0 0 0 .2-.153.227.227 0 0 0-.17-.227.152.152 0 0 0-.183.151.219.219 0 0 0 .153.229m-.218-.583a.138.138 0 0 0 .17-.148.244.244 0 0 0-.165-.227c-.09-.024-.159.038-.159.14a.253.253 0 0 0 .154.235m.533.111a.168.168 0 0 0 .205-.159.237.237 0 0 0-.198-.227.155.155 0 0 0-.191.159.227.227 0 0 0 .184.227m.273.593a.187.187 0 0 0 .227-.163.236.236 0 0 0-.202-.227.177.177 0 0 0-.216.16.227.227 0 0 0 .191.23m-1.462-.505c.068.047.133 0 .138-.102a.333.333 0 0 0-.122-.269c-.07-.049-.126-.009-.129.094a.357.357 0 0 0 .113.277m.212-.385c.076.042.14-.006.14-.113a.326.326 0 0 0-.133-.265c-.075-.044-.137 0-.14.113a.322.322 0 0 0 .133.265m.188.614c.079.035.157-.024.164-.127a.262.262 0 0 0-.144-.243c-.08-.035-.145.015-.151.113a.273.273 0 0 0 .131.257m3.05-.257a.233.233 0 0 0-.233-.212.204.204 0 0 0-.237.182.237.237 0 0 0 .232.219.209.209 0 0 0 .238-.189m.105.776a.219.219 0 0 0 .238-.202.227.227 0 0 0-.226-.215.216.216 0 0 0-.241.195.227.227 0 0 0 .229.222m.576-.757a.211.211 0 0 0-.227-.199.209.209 0 0 0-.226.191.227.227 0 0 0 .226.207.212.212 0 0 0 .227-.199m-2.088-.146a.245.245 0 0 0-.221-.226.177.177 0 0 0-.217.164.238.238 0 0 0 .21.227.188.188 0 0 0 .228-.165m-2.218-.493c.068.055.123.012.126-.095a.413.413 0 0 0-.113-.292c-.066-.056-.125-.016-.128.092a.41.41 0 0 0 .115.295m2.303 1.261a.205.205 0 0 0 .246-.175.243.243 0 0 0-.226-.226.197.197 0 0 0-.238.171.239.239 0 0 0 .218.23m.712.083a.213.213 0 0 0 .248-.187.237.237 0 0 0-.226-.227.21.21 0 0 0-.246.182.238.238 0 0 0 .224.232m-.098-.775a.245.245 0 0 0-.234-.226.195.195 0 0 0-.234.172.244.244 0 0 0 .226.227.202.202 0 0 0 .242-.173m-3.151-.969a.453.453 0 0 0-.106-.307c-.063-.063-.12-.026-.123.082a.465.465 0 0 0 .113.309c.06.058.112.02.116-.084m.168-5.562c-.087-.055-.157-.018-.159.084a.366.366 0 0 0 .151.284c.086.056.157.018.161-.084a.364.364 0 0 0-.153-.284m-.228-.658c-.087-.056-.158-.018-.157.085a.381.381 0 0 0 .156.288c.087.057.158.018.158-.084a.381.381 0 0 0-.157-.289m-.244.353c-.086-.056-.156-.018-.156.083a.374.374 0 0 0 .152.283c.085.057.155.02.157-.08a.376.376 0 0 0-.153-.286m.721-.052c-.088-.053-.16-.014-.161.089a.364.364 0 0 0 .155.284c.088.053.161.012.163-.091a.356.356 0 0 0-.157-.282m.485.273c-.09-.047-.163 0-.165.101a.326.326 0 0 0 .156.273c.09.046.165 0 .169-.105a.32.32 0 0 0-.16-.269m-.26.375c-.088-.051-.16-.01-.163.092a.34.34 0 0 0 .152.279c.087.051.162.008.166-.095a.34.34 0 0 0-.155-.276m-.466 5.945a.416.416 0 0 0-.114-.287c-.066-.058-.113-.024-.113.08a.453.453 0 0 0 .113.295c.055.057.111.015.114-.088m-.707-7.202c-.087-.056-.155-.016-.154.089a.388.388 0 0 0 .16.287c.086.056.157.019.155-.085a.39.39 0 0 0-.161-.291m.36 6.884a.495.495 0 0 0-.114-.302c-.063-.064-.113-.028-.113.078a.51.51 0 0 0 .113.305c.062.061.114.025.114-.081m-.519-5.804a.368.368 0 0 0 .149.28c.085.056.156.021.157-.079a.366.366 0 0 0-.15-.282c-.085-.056-.155-.018-.156.081m1.819.431a.113.113 0 0 0-.17.108.304.304 0 0 0 .155.265.113.113 0 0 0 .173-.113.295.295 0 0 0-.158-.26m-1.708 4.439a.476.476 0 0 0 .113.312c.065.064.113.028.12-.08a.468.468 0 0 0-.113-.313c-.06-.065-.118-.027-.12.081m-.126-3.885a.386.386 0 0 0 .151.287c.082.058.152.023.153-.078a.388.388 0 0 0-.15-.288c-.084-.057-.153-.022-.154.079m.434 3.031a.424.424 0 0 0-.113-.315c-.072-.064-.136-.026-.143.084a.442.442 0 0 0 .113.315c.07.064.133.027.143-.084m9.881-4.044a.416.416 0 0 0 .12-.282c0-.103-.047-.142-.114-.088a.435.435 0 0 0-.125.283c-.003.101.052.14.119.087M6.314 13.126a.434.434 0 0 0 .13.311c.075.062.139.025.146-.085a.408.408 0 0 0-.129-.312c-.077-.062-.144-.023-.147.086m8.56-1.163a.317.317 0 0 0-.185.261c0 .103.075.151.174.105a.34.34 0 0 0 .183-.266c.003-.101-.073-.143-.172-.1m-6.529 3.925a.168.168 0 0 0 .196-.16.216.216 0 0 0-.161-.226.164.164 0 0 0-.192.159.207.207 0 0 0 .157.227m.325-.483a.197.197 0 0 0 .227-.166.202.202 0 0 0-.16-.233.194.194 0 0 0-.22.167.197.197 0 0 0 .153.232m-.522-.11c.086.026.173-.047.192-.157a.209.209 0 0 0-.121-.242c-.086-.027-.17.036-.189.147a.227.227 0 0 0 .118.252m.78.689a.185.185 0 0 0 .227-.16.227.227 0 0 0-.194-.227.186.186 0 0 0-.226.163.22.22 0 0 0 .193.224m-1.147-1.673a.304.304 0 0 0-.1-.291c-.076-.051-.15 0-.168.107a.323.323 0 0 0 .097.297c.073.055.151-.001.171-.113m-.068.791c.075.044.152-.015.172-.125a.278.278 0 0 0-.104-.277c-.074-.045-.149 0-.167.114a.299.299 0 0 0 .099.288m.15.649c.081.035.155-.029.167-.137a.26.26 0 0 0-.125-.256c-.079-.035-.153.019-.166.128a.27.27 0 0 0 .124.265m2.346-.365a.214.214 0 0 0-.205-.227.227.227 0 0 0-.252.185.213.213 0 0 0 .207.227.22.22 0 0 0 .25-.185m.786.8a.205.205 0 0 0 .226-.185.219.219 0 0 0-.226-.207.216.216 0 0 0-.24.187.227.227 0 0 0 .24.205m.587-.742a.202.202 0 0 0-.206-.214.238.238 0 0 0-.238.209.206.206 0 0 0 .212.215.227.227 0 0 0 .232-.21m-.68-.011a.211.211 0 0 0-.212-.227.227.227 0 0 0-.25.195.214.214 0 0 0 .216.226.227.227 0 0 0 .246-.194m-1.617.066a.211.211 0 0 0 .243-.173.209.209 0 0 0-.187-.227.213.213 0 0 0-.24.175.204.204 0 0 0 .184.225m1.003.641a.203.203 0 0 0 .241-.174.227.227 0 0 0-.227-.215.211.211 0 0 0-.245.177.227.227 0 0 0 .231.212m6.363-7.503a.487.487 0 0 0-.122.299c0 .104.051.139.113.082a.47.47 0 0 0 .113-.297c.008-.106-.039-.144-.104-.084m-9.194 6.879c.069.05.136 0 .148-.113a.34.34 0 0 0-.104-.283c-.07-.05-.137 0-.148.104a.351.351 0 0 0 .104.292m-.226-.395a.408.408 0 0 0-.098-.306c-.067-.06-.129-.021-.139.089a.42.42 0 0 0 .099.309c.068.06.126.018.138-.092m-.076-4.194c-.085-.056-.157-.021-.159.08a.38.38 0 0 0 .15.289c.085.058.155.021.158-.081a.377.377 0 0 0-.149-.288m.727-.068a.104.104 0 0 0-.166.098.329.329 0 0 0 .153.274c.088.048.164 0 .167-.103a.32.32 0 0 0-.154-.269m-.476-.278c-.086-.055-.157-.019-.161.083a.362.362 0 0 0 .15.285c.086.054.159.015.162-.087a.354.354 0 0 0-.151-.281m.216.648c-.088-.053-.159-.015-.161.087a.355.355 0 0 0 .152.285c.086.053.159.01.162-.093a.347.347 0 0 0-.153-.279m.982.454a.131.131 0 0 0-.175.133.258.258 0 0 0 .165.244.138.138 0 0 0 .177-.145.244.244 0 0 0-.167-.232m-.502-.193a.113.113 0 0 0-.166.106.313.313 0 0 0 .157.27c.09.043.166-.012.168-.114a.299.299 0 0 0-.159-.262m.272-.403a.12.12 0 0 0-.173.114.281.281 0 0 0 .158.256.127.127 0 0 0 .176-.128.269.269 0 0 0-.161-.242m-1.679-.472c-.085-.057-.155-.023-.157.078a.384.384 0 0 0 .149.285c.083.058.154.024.156-.077a.379.379 0 0 0-.148-.286m.415 3.795a.4.4 0 0 0-.099-.313c-.068-.062-.134-.025-.145.087a.426.426 0 0 0 .101.315c.065.062.13.021.143-.089m-.47.148a.465.465 0 0 0 .104.315c.065.064.123.027.132-.083a.44.44 0 0 0-.101-.315c-.067-.064-.127-.027-.135.083m5.027 1.643a.206.206 0 0 0 .212-.197.195.195 0 0 0-.204-.199.22.22 0 0 0-.227.201.203.203 0 0 0 .219.195m-.011 1.105a.219.219 0 0 0 .213-.216.196.196 0 0 0-.206-.202.227.227 0 0 0-.226.208.21.21 0 0 0 .219.21m-4.716-7.03c-.085-.057-.156-.021-.158.079a.377.377 0 0 0 .149.286c.084.057.156.021.159-.08a.374.374 0 0 0-.15-.285m-.41 1.42a.42.42 0 0 0 .155.298c.084.061.151.025.15-.079a.416.416 0 0 0-.154-.299c-.086-.06-.152-.024-.151.08m.459 1.999a.4.4 0 0 0-.113-.313c-.075-.063-.142-.026-.151.084a.428.428 0 0 0 .113.315c.073.064.14.025.151-.086m-.449-.944a.435.435 0 0 0 .135.311c.077.062.145.024.151-.085a.408.408 0 0 0-.136-.31c-.08-.062-.147-.025-.15.084m3.048 3.315a.196.196 0 0 0 .237-.165.227.227 0 0 0-.215-.22.201.201 0 0 0-.24.167.227.227 0 0 0 .218.218m7.803-4.563a.473.473 0 0 0-.113.293c0 .105.043.146.102.089a.49.49 0 0 0 .113-.295c.004-.104-.043-.144-.102-.087m-.333 1.757a.43.43 0 0 0 .105-.295c0-.113-.046-.161-.104-.113a.428.428 0 0 0-.113.289c.003.112.052.166.112.119m.315-.285a.52.52 0 0 0 .104-.316c0-.113-.047-.156-.105-.098a.492.492 0 0 0-.104.307c.001.114.047.164.105.107m-.152.719a.447.447 0 0 0 .105-.304c0-.113-.048-.168-.106-.113a.453.453 0 0 0-.105.297c0 .112.048.168.106.12m-.696.427a.299.299 0 0 0 .132-.254c0-.113-.052-.164-.124-.128a.311.311 0 0 0-.139.253c-.002.104.061.162.131.129m.368-.192a.354.354 0 0 0 .113-.276c0-.113-.049-.166-.113-.125a.367.367 0 0 0-.114.271c-.002.114.051.168.114.13m-.174-.432a.351.351 0 0 0 .119-.272c0-.114-.049-.161-.113-.119a.357.357 0 0 0-.125.268c-.002.107.053.162.119.123m.263-5.168a.453.453 0 0 0-.113.285c0 .107.044.145.103.087a.515.515 0 0 0 .108-.293c.005-.096-.039-.133-.098-.079m.143.36a.487.487 0 0 0-.107.295c0 .105.043.145.1.088a.487.487 0 0 0 .108-.295c.002-.106-.043-.145-.101-.088m-.797 5.011a.304.304 0 0 0 .142-.257c0-.104-.055-.157-.133-.12a.315.315 0 0 0-.151.254c-.003.102.063.158.142.123m.48-4.698a.48.48 0 0 0-.114.292c0 .104.048.142.114.086a.453.453 0 0 0 .113-.292c-.007-.105-.053-.144-.113-.086m.488-.958a.417.417 0 0 0-.108.269c0 .096.041.132.1.08a.42.42 0 0 0 .113-.27c0-.096-.047-.131-.105-.079m.127 1.366a.487.487 0 0 0-.113.296c0 .105.044.145.103.087a.487.487 0 0 0 .113-.298c.006-.107-.043-.144-.103-.085m-.015 1.048a.467.467 0 0 0-.107.293c0 .105.043.147.102.09a.48.48 0 0 0 .113-.296c-.001-.106-.049-.146-.108-.087m.037-2.077a.453.453 0 0 0-.114.291c0 .105.044.145.104.087a.49.49 0 0 0 .114-.294c.004-.106-.043-.138-.104-.084m-1.592 5.512a.297.297 0 0 0 .175-.25c0-.102-.066-.155-.161-.113a.314.314 0 0 0-.181.256.113.113 0 0 0 .167.107m-3.042 2.173a.307.307 0 0 0 .19-.266.126.126 0 0 0-.176-.137.299.299 0 0 0-.189.258c-.004.113.079.18.175.145m1.116-.555a.439.439 0 0 0 .194-.313c0-.113-.075-.149-.179-.086a.434.434 0 0 0-.195.313c-.004.111.076.149.18.086m.559-.352a.437.437 0 0 0 .193-.31c0-.113-.075-.144-.177-.081a.447.447 0 0 0-.194.315c-.006.106.076.139.178.076m-1.12.671a.389.389 0 0 0 .193-.298c0-.113-.076-.157-.178-.105a.38.38 0 0 0-.193.295c-.005.117.076.162.178.108m-.262-.422a.372.372 0 0 0 .196-.297c.005-.114-.073-.175-.175-.133a.357.357 0 0 0-.196.289c-.005.119.073.184.175.141m.56-.28a.426.426 0 0 0 .196-.314c.005-.114-.074-.162-.176-.107a.414.414 0 0 0-.197.311c-.006.118.073.167.177.11m-1.111.461a.286.286 0 0 0 .191-.261c.007-.12-.07-.194-.171-.172a.27.27 0 0 0-.191.249c-.007.119.071.208.171.184m1.672-.793a.442.442 0 0 0 .19-.317c0-.113-.074-.153-.176-.091a.433.433 0 0 0-.195.315c-.002.116.077.155.181.093m1.353-.281a.34.34 0 0 0 .181-.267c0-.102-.071-.152-.169-.105a.356.356 0 0 0-.183.275c-.004.104.073.145.171.097m-.608-.363c0-.114-.073-.149-.174-.091a.419.419 0 0 0-.192.306c0 .114.075.148.176.086a.42.42 0 0 0 .19-.301m-2.776 1.269a.181.181 0 0 0-.185-.205.241.241 0 0 0-.218.227.189.189 0 0 0 .196.205.227.227 0 0 0 .207-.227m3.896-1.122a.283.283 0 0 0 .16-.246c0-.103-.06-.158-.147-.123a.297.297 0 0 0-.169.247.113.113 0 0 0 .156.122m-.768-.16a.365.365 0 0 0 .184-.277c0-.105-.071-.151-.17-.101a.376.376 0 0 0-.187.285c-.001.108.076.149.173.093m-.282.672a.406.406 0 0 0 .187-.294c0-.104-.074-.145-.174-.087a.415.415 0 0 0-.189.301c-.004.107.075.141.176.08m-2.772 1.368a.216.216 0 0 0 .185-.215.163.163 0 0 0-.173-.182.227.227 0 0 0-.199.215.175.175 0 0 0 .187.182"/></svg>