<svg xmlns="http://www.w3.org/2000/svg" viewBox="0 0 24 24"><path fill="#44739e" d="M16.156 12.509h.002v.434h-.002v.824h.002v1.038h.824v-1.038h2.277v-.824h-2.277v-.434h2.277v-.824h-3.103Zm-7.473-.807v3.103h.824v-2.296h1.456v2.296h.824v-3.12H8.683Zm3.735 0v3.103h.824v-.007h1.456v.007h.822v-3.12h-3.102Zm2.28 2.278h-1.456v-1.471h1.456Zm-9.749-2.278v2.278h-.01v.824h3.113V11.67H4.949Zm2.279 2.278H5.773v-1.488h1.455ZM1 9.338v3.183h2.279v1.46H1v.824h3.103v-3.107H1.824v-1.679h2.279v-.824H1Zm22 3.171v-.824h-3.103v3.12h.824v-1.038H23v-.824h-2.279v-.434Z"/></svg>