<svg xmlns="http://www.w3.org/2000/svg" viewBox="0 0 24 24"><path fill="#44739e" d="m10.473 20.62-.11-.014v.097l.118.022.008.094.116.016-.006-.098.099.016v-.103l-.099-.014-.009-.095-.118-.023Zm-1.028-.096.302.054v-.134l-.302-.06Zm2.793 1.563-5.246-.974v-.154l5.228.991h.011m0 .43-5.239-.962v-.164l5.239.983Zm-.076.233a.229.229 0 0 1-.188.042l-4.799-.946c-.076-.022-.132-.12-.165-.188l5.217 1.003a.15.15 0 0 1-.065.091m-3.898-2.189a.586.586 0 0 0 .419.366l-1.685-.308-.012-.275Zm-1.278-1.013v-.12l5.24.88v.12Zm3.996 1.21a.67.67 0 0 0-.153-.287 3.3 3.3 0 0 0-.177-.121l1.575.276v.321Zm-.483.497c.044.01-.033 0 0 0a.42.42 0 0 0 .451-.22l.043.01 1.232.23v.288Zm-.232-.486a.259.259 0 0 1 .298-.286.372.372 0 0 1 .286.376.259.259 0 0 1-.298.251.364.364 0 0 1-.287-.339m-.957-.189a.253.253 0 0 1 .284-.286.37.37 0 0 1 .288.376.26.26 0 0 1-.287.264.36.36 0 0 1-.285-.354m2.918 1.172v.166l-5.228-.97v-.167Zm-3.987-1.512-1.256-.208v-.31l1.619.275a.392.392 0 0 0-.363.243m.419-.11a.361.361 0 0 1 .286.374.264.264 0 0 1-.286.266.381.381 0 0 1-.299-.354.259.259 0 0 1 .299-.287m3.565-.11v.15l-5.24-.895-.011-.146Zm-.011-1.321v.142l-5.24-.717v-.011l-.011-.142Zm-5.262-2.162 5.251.579h.011v.021h-.011v.11l-5.251-.581Zm0-.712v-.131l5.251.507v.131Zm5.251.95v.188l-5.251-.585v-.12Zm-5.251-.66v-.144l5.251.519v.131Zm5.251-.201v.131l-5.251-.505-.01-.132Zm-5.258-1.512v-.144l5.26.52v.132Zm0 .276v-.143l5.26.531v.119Zm5.26.949v.14l-5.26-.502v-.159Zm-5.26-.661v-.143l5.26.519v.133Zm5.249-.54h.011v.02h-.011v.175l-5.249-.505-.011-.142Zm-5.263-1.446v-.164l5.261.462v.153Zm0 .276v-.131l5.261.464v.131Zm5.261.895v.131l-5.261-.441v-.142Zm-5.261-.608v-.132l5.261.452v.131Zm-.011-1.017 5.272.454v.145l-5.272-.451Zm0-.97v-.153l5.262.463.01.131Zm0 .265v-.127l5.272.462v.11Zm5.272.88v.121l-5.272-.44v-.138Zm-5.272-.595v-.143l5.272.451v.131Zm-.011-.991 5.273.464.01.145h-.01l-5.273-.464Zm5.273.186v.123l-5.262-.44-.011.022v-.165Zm-5.273-.603v-.124l5.273.412v.164Zm5.273-.012v.142l-5.273-.386-.011-.143ZM6.89 9.162v-.143l5.284.408v.131Zm0 .284v-.143l5.284.398v.131Zm5.284.828v.121l-5.284-.384v-.133Zm-5.284-.55v-.132l5.284.397v.131Zm5.273-.585.011.134-5.284-.387-.011-.145ZM6.871 7.345l5.294.383v.131l-5.294-.386Zm5.294-.738v.132l-5.294-.386-.011-.143ZM6.849 4.798l5.305.395v.134l-3.799-.29-1.506-.11Zm5.294-.73.011.12-5.305-.396-.012-.132ZM6.826 2.193a.172.172 0 0 1 .067-.133.23.23 0 0 1 .154-.055h.011l.99.043-.242.509L9.93 2.7l.22-.539 1.794.087a.211.211 0 0 1 .197.197v.044l-1.913-.098-.055.12 1.969.122v.131l-2.025-.11-.043.131 2.069.133v.143l-5.306-.384v-.131l.793.054.054-.11-.847-.055-.011-.121.925.068.055-.11Zm.011.76v-.142l5.306.407v.134Zm5.306.551v.122L6.837 3.24v-.143Zm.011.354h-.011v.055l-5.306-.389v-.14l5.306.398h.011Zm0 1.036v.143l-5.305-.396v-.126Zm-5.305-.819v-.127l5.305.384v.132Zm5.305.54v.133l-5.305-.394v-.131Zm0 1.425v.131L6.86 5.777v-.142ZM6.86 5.215v-.149l4.579.352.715.055v.143l-3.555-.264Zm4.601.486.693.054v.133L6.86 5.506v-.143Zm.704.706h-.011v.054L6.86 6.064v-.133l5.294.387h.011Zm0 1.047v.132L6.871 7.19v-.133Zm-5.294-.828v-.13l5.294.399v.131Zm5.294.551V7.3l-5.294-.385v-.146Zm0 1.688.011.133h-.011L6.882 8.6v-.141Zm0-.287v.132l-5.283-.395v-.122Zm-5.283-.827v-.13l5.283.397v.13Zm5.283.542v.131l-5.283-.375v-.144Zm.043 9.928v.2l-5.251-.729v-.11Zm0-.352v.208l-5.251-.64v-.153Zm-5.251-1.061v-.13l5.251.596v.121Zm5.251.741v.175l-5.251-.58v-.177Zm-5.24.749v-.166l5.24.728v.156Zm5.251 1.444-5.251-.903v-.155l5.24.872Zm-.011-.33-5.24-.872v-.098l5.24.726v.072l.011.177Zm4.679-18.215L12.286 1a1.5 1.5 0 0 0-.22.011l-5.075.651-.023.012a.5.5 0 0 0-.307.142.526.526 0 0 0-.165.388l.066 8.207v.011l.098 11.099a.528.528 0 0 0 .441.507l4.799.961c.033 0 .077.011.11.011a.56.56 0 0 0 .363-.133l.055-.054 4.779-2.272a.293.293 0 0 0 .153-.255l.144-18.413v-.034a.644.644 0 0 0-.617-.642"/></svg>