<svg xmlns="http://www.w3.org/2000/svg" viewBox="0 0 24 24"><path fill="#44739e" d="M14.683 5.733c-2.626 0-4.767 2.742-4.767 6.112s2.137 6.11 4.767 6.11 4.768-2.741 4.768-6.11-2.141-6.112-4.768-6.112m-.56-4.308C9.228 1.425 5.247 6.169 5.247 12s3.982 10.574 8.876 10.574S23 17.831 23 12 19.018 1.425 14.123 1.425m.56 17.317c-3.061 0-5.551-3.094-5.551-6.897s2.49-6.899 5.551-6.899 5.552 3.095 5.552 6.899-2.491 6.897-5.552 6.897M4.617 12c0-5.202 3.023-9.586 7.108-10.843a8.9 8.9 0 0 0-.895-.046C5.397 1.111 1 5.989 1 12c0 5.86 4.178 10.636 9.413 10.878l-.034.011h1.51C7.724 21.703 4.617 17.272 4.617 12"/></svg>