<svg xmlns="http://www.w3.org/2000/svg" viewBox="0 0 24 24"><path fill="#44739e" d="m21.932 8.032-2.136-.813c-.331-.111-.239-.192-1.064.062 0 0-16.606 5.024-16.691 5.039-2.009.675-.595 2.691-.007 3.859a1.053 1.053 0 0 0 1.298.663v.01l.036-.012c.41.075 18.054-5.827 18.475-5.895a1.932 1.932 0 0 0 1.156-1.818c-.053-.587-.574-.899-1.067-1.095m-7.756 2.642.028.895a.23.23 0 0 0-.11 0l-.028-.862Zm.045 1.203a.32.32 0 0 0-.11-.015v-.161a.44.44 0 0 1 .086 0l.009.006.014-.015Zm-.254.094a.3.3 0 0 0 .086.013h.024v.148l-.011.006a.16.16 0 0 1-.098 0Zm.11-.11c-.086-.006-.098-.033-.098-.049 0-.034.039-.078.094-.1Zm.041.138c.044.011.061.029.061.041a.11.11 0 0 1-.056.077Zm-.077-1.273.028.86a.38.38 0 0 0-.111.071l-.029-.897Zm-.442.138.033 1.02a.2.2 0 0 0-.11-.072l-.03-.914Zm-.442.138.03.924a.46.46 0 0 0-.11.168l-.034-1.058Zm-.16-.926.02-.047.059.017-.012.047Zm.196 2.015.007.248a.166.166 0 0 1-.051-.11.287.287 0 0 1 .043-.143Zm.035-.066a.32.32 0 0 1 .111-.081l.014.442a.16.16 0 0 1-.111-.013Zm.144-.1a.16.16 0 0 1 .11.012l.011.35a.305.305 0 0 1-.11.083Zm.148.023a.173.173 0 0 1 .062.136.32.32 0 0 1-.052.149Zm-.071-1.038.029.899c-.038 0-.069-.025-.111-.013l-.027-.852Zm-.146.045.028.863a.44.44 0 0 0-.111.08l-.029-.909Zm-.139-.894-.066-.018.019-.053.058.02Zm-.095-.136.059.019-.011.043-.067-.018Zm-.094.037.059.018-.012.049-.067-.018Zm-.255 1.178.029.883-.048.015.007.38-.058-.038-.039-1.215Zm-.147.046.039 1.172-.111-.075-.034-1.063Zm-.145.046.034 1.025-.111-.075-.03-.915Zm-.837.264.111-.034.028.864a.44.44 0 0 0-.11.083Zm.144-.049.11-.036.029.884a.33.33 0 0 0-.11.012Zm-.139 1.399a.177.177 0 0 1-.05-.11.31.31 0 0 1 .042-.136Zm.027-.31a.29.29 0 0 1 .111-.083l.014.442a.16.16 0 0 1-.11-.012Zm.144-.101a.166.166 0 0 1 .11.012l.012.36a.29.29 0 0 1-.11.083Zm.148.023a.183.183 0 0 1 .064.14.324.324 0 0 1-.054.171Zm-.006-.161-.028-.897.11-.034.033.994a.22.22 0 0 0-.115-.063m-.084-2.024v-.011h.025c0 .012.158.131.129.145s-.133-.11-.156-.124Zm-.092.038V10.3h.024c0 .012.158.133.129.147s-.131-.11-.156-.126Zm-.187.064v-.007c.283-.032.11.197.068.151.065-.141.021-.08-.083-.12a.02.02 0 0 1 .015-.024m.007 1.129.029.929a.47.47 0 0 0-.11.169l-.034-1.064Zm-.442.138.029.884a.19.19 0 0 0-.097 0s-.007.006-.013.009l-.027-.86Zm-.221 1.296a.3.3 0 0 0 .11.016l.006.168h-.07l-.009-.006-.019.035Zm.052-.17a.11.11 0 0 1 .05-.077v.119c-.025-.012-.04-.03-.04-.038Zm.096.193c.1 0 .11.031.11.05a.137.137 0 0 1-.1.11h-.007Zm.029-.139h-.034v-.149c.006 0 .008-.007.015-.009a.157.157 0 0 1 .095 0l.005.174a.35.35 0 0 0-.071-.016Zm-.111-1.133.028.872a.32.32 0 0 0-.111.072l-.029-.91Zm-.592-.864.059.019-.012.046-.067-.016Zm.111.088-.013.047-.066-.017.02-.048Zm-.101.033-.012.047-.066-.017.02-.048Zm-.1-.084.058.018-.012.048-.066-.017Zm-8.202 5.036a1.24 1.24 0 0 1 .033-.552l.022.683a1.3 1.3 0 0 1-.055-.131m.096.234c.008-.199-.094-.955.074-1.112l.044 1.388a1.4 1.4 0 0 1-.118-.276m.158.309-.049-1.479a1.8 1.8 0 0 1 .111-.166l.056 1.746a.8.8 0 0 1-.118-.101m.15.133-.059-1.814c.034-.041.07-.08.111-.119l.066 2.038a.8.8 0 0 1-.118-.105m.152.12-.068-2.098c.034-.035.071-.067.11-.099l.064 2.22a.9.9 0 0 1-.11-.023Zm.148.031-.074-2.258c.036-.029.07-.06.111-.088l.077 2.369a.9.9 0 0 1-.114-.023m.148.032-.079-2.408c.034-.023.073-.041.11-.063l.082 2.494c-.043-.001-.073-.019-.113-.023m.148.027-.081-2.519c.036-.021.07-.044.11-.063l.083 2.565c-.036.002-.078.017-.112.017m.147-.023-.084-2.578c.036-.017.073-.027.111-.042l.083 2.607c-.037 0-.074.01-.11.013m.146-.023-.078-2.611c.035-.014.07-.03.11-.042l.086 2.637c-.046.007-.08.011-.118.016m.148-.023-.086-2.644.11-.034.088 2.662c-.042.011-.073.007-.112.016m.146-.026-.087-2.664.11-.035.086 2.662Zm.145-.048-.087-2.662.111-.034.087 2.661Zm.145-.047-.087-2.661.111-.034.087 2.658Zm.145-.048-.086-2.659.11-.035.088 2.659Zm.147-.047-.087-2.659.11-.034.086 2.656Zm.145-.048L4.299 13.8l.111-.034.092 2.651Zm.145-.047-.086-2.651.111-.034.086 2.65Zm.146-.048-.086-2.651.111-.035.086 2.651Zm.146-.047-.085-2.653.11-.035.087 2.651Zm.146-.048-.086-2.651.11-.034.086 2.651Zm.146-.048-.087-2.651.111-.034.086 2.65Zm.145-.047-.086-2.651.111-.034.085 2.651Zm.146-.048-.086-2.646.11-.034.087 2.648Zm.146-.047-.086-2.651.11-.034.085 2.643Zm.145-.047-.085-2.643.11-.035.086 2.642Zm.147-.048-.087-2.642.111-.034.085 2.64Zm.144-.047-.084-2.641.111-.034.086 2.639Zm.147-.048-.087-2.639.11-.035.085 2.638Zm.145-.047-.085-2.638.11-.034.085 2.636Zm.147-.049-.086-2.635.11-.034.085 2.638Zm.144-.046-.081-2.636.11-.035.086 2.633Zm.147-.049-.085-2.632.111-.034.085 2.631Zm.145-.046-.085-2.632.11-.034.087 2.629Zm.147-.049-.086-2.63.11-.034.085 2.629Zm.145-.046L7.07 12.92l.11-.034.083 2.626ZM7.3 15.5l-.085-2.626.111-.035.085 2.626Zm.146-.046-.084-2.627.111-.034.084 2.63Zm.148-.049-.085-2.624.111-.034.085 2.623Zm.146-.046-.085-2.623.11-.035.086 2.621Zm.145-.048L7.8 12.689l.11-.034.085 2.621Zm.147-.047-.086-2.62.111-.035.085 2.618Zm.144-.048-.085-2.618.111-.035.085 2.618Zm.147-.048-.086-2.617.11-.034.085 2.615Zm.145-.047-.085-2.615.11-.035.085 2.614Zm.147-.048L8.53 12.46l.11-.035.085 2.612Zm.144-.047-.085-2.613.111-.034.085 2.611Zm.147-.048-.086-2.611.111-.034.084 2.609Zm.145-.047-.085-2.61.11-.034.085 2.608Zm.147-.048-.086-2.608.11-.034.084 2.606Zm.145-.047-.086-2.607.111-.035.085 2.606Zm.146-.048-.085-2.606.111-.034.084 2.604Zm.145-.047-.085-2.604.111-.034.085 2.602Zm.146-.047-.087-2.603.11-.035.084 2.601Zm.146-.048-.085-2.601.11-.035.085 2.6Zm.145-.047-.086-2.6.111-.034.084 2.597Zm.146-.049-.083-2.597.111-.035.085 2.597Zm.146-.046-.085-2.597.11-.035.084 2.595Zm.146-.049-.084-2.594.11-.034.085 2.593Zm.145-.046-.084-2.594.11-.035.084 2.593Zm.146-.049-.083-2.592.11-.034.032.982a.28.28 0 0 0-.034.093c0 .03.025.045.04.068l.009.314-.025.03.009.006.018.01.036 1.088Zm.145-.046-.037-1.058a.29.29 0 0 0 .11 0l.033 1.023Zm.147-.049-.033-1.011h.007a.38.38 0 0 0 .101-.069l.033 1.045Zm.145-.047-.035-1.057c.008-.007.019-.009.026-.017a.273.273 0 0 0 .064-.173.158.158 0 0 0-.074-.128h-.025l-.007-.184.084-.095-.01-.013a.38.38 0 0 0-.08-.03l-.028-.894.11-.034.084 2.586Zm.147-.048-.084-2.586.11-.035.038 1.161c0 .023-.021.043-.02.067a.31.31 0 0 0 .026.11l.04 1.25Zm.144-.047-.037-1.175a.235.235 0 0 0 .11.08l.034 1.06Zm.147-.048-.034-1.031a.28.28 0 0 0 .11-.01l.032 1.006Zm.145-.047-.032-1.007a.44.44 0 0 0 .11-.083l.035 1.055Zm.146-.046-.036-1.072a.46.46 0 0 0 .111-.145l.037 1.18Zm.145-.049-.042-1.271c.007-.033.031-.063.03-.099a.31.31 0 0 0-.038-.145l-.035-1.059.111-.034.084 2.578Zm.146-.046-.084-2.578.111-.036.028.884-.017-.012.014.688.026-.008.033 1.03Zm.146-.049-.033-1.029.058-.02-.007-.38.047.031.044 1.363Zm.146-.046-.043-1.326.11.075.04 1.215Zm.146-.049-.039-1.177.11.075.036 1.067Zm.145-.046-.034-1.031.028.018-.011-.685-.038.012-.029-.883.111-.035.081 2.563Zm.146-.049-.084-2.57.111-.034.037 1.148c0 .023-.022.043-.022.067s.021.034.026.056l.043 1.298Zm.145-.046-.039-1.203a.192.192 0 0 0 .111.091l.035 1.075Zm.147-.049-.034-1.058a.23.23 0 0 0 .11.012l.033 1.011Zm.144-.048-.032-1.012a.46.46 0 0 0 .111-.082l.034 1.059Zm.147-.047-.035-1.076a.44.44 0 0 0 .105-.152l.04 1.193Zm.145-.047-.041-1.282c.007-.031.03-.057.029-.088s-.025-.048-.034-.075l-.037-1.118.111-.035.083 2.562Zm.146-.047-.083-2.562.11-.035.03.909h-.006a.27.27 0 0 0-.069.168.098.098 0 0 0 .07.111h.014l.007.194-.08.089.009.006a.33.33 0 0 0 .075.028l.033 1.044Zm.146-.048-.034-1.033a.214.214 0 0 0 .095 0c.006 0 .009-.009.015-.011l.033 1.01Zm.145-.047-.033-1.023a.34.34 0 0 0 .111-.071l.034 1.058Zm.146-.048-.036-1.124a.28.28 0 0 0 .038-.094c0-.035-.025-.055-.044-.079l-.009-.272.045-.048h-.009l-.038-.02-.03-.915.111-.034.083 2.556Zm.146-.047-.083-2.557.111-.034.082 2.555Zm.146-.048-.083-2.555.11-.034.083 2.553Zm.146-.047-.083-2.553.11-.035.083 2.552Zm.145-.048-.082-2.552.11-.034.086 2.548Zm.146-.048-.083-2.55.111-.034.083 2.549Zm.146-.047-.083-2.548.111-.036.082 2.548Zm.146-.048-.084-2.546.11-.034.083 2.54Zm.146-.047-.083-2.541.11-.034.083 2.54Zm.145-.048-.083-2.54.111-.036.083 2.541Zm.146-.047-.083-2.541.111-.034.083 2.54Zm.145-.048-.082-2.54.111-.034.082 2.54Zm.146-.046-.083-2.541.11-.035.083 2.54Zm.145-.049-.081-2.54.11-.034.083 2.54Zm.145-.052-.083-2.54.111-.034.083 2.54Zm.146-.047L16.4 9.963l.111-.034.082 2.54Zm.146-.048-.088-2.529.111-.034.083 2.532Zm.145-.047-.081-2.533.11-.034.083 2.531Zm.146-.048-.083-2.531.111-.034.082 2.53Zm.146-.047-.083-2.524.111-.035.082 2.529Zm.146-.048-.083-2.528.11-.034.082 2.527Zm.146-.047-.082-2.527.11-.034.083 2.525Zm.145-.048-.078-2.52.11-.035.082 2.524Zm.146-.047L17.566 9.6l.111-.034.082 2.522Zm.146-.048-.083-2.518.111-.034.081 2.521Zm.145-.046-.082-2.522.11-.035.082 2.52Zm.147-.049-.083-2.519.11-.034.082 2.518Zm.144-.047-.081-2.518.11-.035.082 2.517Zm.147-.048-.083-2.517.111-.034.081 2.516Zm.145-.047-.082-2.515.111-.034.081 2.513Zm.146-.048-.082-2.513.11-.035.082 2.513Zm.145-.047-.081-2.506.11-.034.082 2.511Zm.146-.048-.08-2.51.11-.035.082 2.51Zm.146-.047-.082-2.509.111-.035.081 2.509Zm.146-.048-.081-2.508.111-.034.081 2.507Zm.146-.047-.082-2.506.11-.036.082 2.507Zm.145-.048-.08-2.5.11-.034.082 2.503Zm.146-.047-.082-2.504.111-.034.081 2.503Zm.146-.048-.081-2.502.111-.035.082 2.502Zm.146-.047-.082-2.496.11-.034.081 2.499Zm.144-.048-.08-2.499.11-.034.082 2.498Zm.147-.047-.086-2.494.111-.034.08 2.497Zm.145-.048-.081-2.496.111-.034.082 2.495Zm.147-.047-.082-2.488.111-.035.08 2.494Zm.145-.048-.081-2.489.11-.034.082 2.493Zm.146-.047-.081-2.492.11-.035.081 2.492Zm.145-.048-.08-2.49.11-.034.082 2.489Zm.147-.047-.077-2.485.11-.034.081 2.488Zm.145-.048-.081-2.482.111-.035.079 2.487Zm.147-.047-.082-2.482.11-.034.081 2.485Zm.144-.048-.08-2.485.11-.034.081 2.484Zm.198-.064-.052.017-.08-2.484a.9.9 0 0 1 .11-.03l.081 2.468c-.02.011-.041.028-.059.036Zm.093-.048-.08-2.454.111-.019.078 2.417a.8.8 0 0 1-.109.06Zm.145-.075-.079-2.4a.8.8 0 0 1 .111.021l.075 2.319c-.037.03-.07.041-.107.064Zm.144-.095-.074-2.278a.9.9 0 0 1 .111.022l.07 2.155c-.036.038-.07.076-.107.105Zm.143-.134-.069-2.115a.8.8 0 0 1 .111.046l.064 1.97c-.033.042-.071.069-.106.104Zm.143-.134-.062-1.907a.8.8 0 0 1 .111.081l.054 1.667c-.034.057-.063.116-.103.164Zm.141-.212-.052-1.588a1.04 1.04 0 0 1 .11.135c-.014.147.127 1.385-.058 1.458Zm.14-.22-.038-1.175a1.406 1.406 0 0 1 .034 1.183Zm.122-.764a.74.74 0 0 1 .03.265c0 .022-.011.067-.015.089Z"/></svg>