<svg xmlns="http://www.w3.org/2000/svg" fill="#44739e" viewBox="0 0 24 24"><path d="m21.1198 14.4787.0201-.5168a.058.058 0 0 1 .0432-.0536l.0783-.0202a.057.057 0 0 1 .0713.0587l-.014.5137c0 .0263-.0171.0475-.0443.0546l-.0833.0222a.058.058 0 0 1-.0713-.0586m.0216-.9797v.1577c0 .0314.0281.0547.0582.0466l.1195-.0284a.047.047 0 0 0 .0362-.0455v-.1517a.0463.0463 0 0 0-.0562-.0455l-.1195.0223c-.0221.002-.0382.0222-.0382.0445m.864-.4503a.08.08 0 0 0-.0101-.0182.08.08 0 0 1 .01.0182m-.2127.2252-.3715.089c-.01-.0101-.01-.0203-.0201-.0294-.0301-.0212-.0603-.0313-.0894-.0212l-.2128.0475c-.0402.0112-.0794.0405-.0794.081l-2.3797.5703v-.082l3.1428-.7513c.01.0111.01.0111.01.0212zm0 .1598-.3515.091v-.0708l.3515-.0779zm0 .1719-.3605.091v-.0708l.3605-.091zm0 .1931-.3605.0799v-.0799l.3605-.092zm0 .1891-.3605.081v-.089l.3605-.081zm0 .176-.3605.087v-.091l.3605-.084zm-.003.1688-.3555.088-.002-.089.3575-.086zm0 .092.003.0759-.3916.097s.0401-.0667.0401-.0869m-.0733.0334c0 .0323-.027.0536-.0472.0536l-.1797.0495c-.021 0-.0402 0-.0512-.01a.078.078 0 0 1-.02-.0506l.008-1.1175c0-.0384.016-.0525.0521-.0657l.1908-.0404h.01c.0442-.0101.0613.0404.0613.0505zm.4047.0728v.0202a.19.19 0 0 1-.0402.0607c-.02.0202-.0492.0404-.1004.0506l-2.8014.7685c-.0603.0111-.1105 0-.1506-.0303-.0201-.0102-.0301-.0304-.0402-.0607 0 0-.009-.0101-.009-.0202 0 0 .009-.0102.009-.0203v.0203c1.0443-.263 2.0885-.5552 3.1328-.8191zm-3.1328.6067 2.3797-.6168c0 .0202.0201.0505.0412.0708l-2.4209.638zm0-.1719 2.3797-.6168v.091l-2.3797.6067zm0-.1921 2.3797-.6037v.089l-2.3797.5956zm0-.1921 2.3797-.5835v.0809l-2.3797.6047zm0-.2023 2.3797-.5794v.086l-2.3797.5945zm0-.1719 2.3797-.5714v.0688l-2.3797.5734zm0-.182 2.3797-.5653v.085l-2.3797.5612zm.242-.4247 2.7211-.6371c.019-.0091.0402-.0091.0492-.0091a.157.157 0 0 1 .0904.0293l.01.0111.011.0091-3.1036.7281c.0402-.0596.1205-.1011.2219-.1314m2.9812-.5663c0-.0101-.009-.0304-.009-.0395-.011-.0212-.0512-.0617-.1115-.092-.0703-.0303-.1305-.0202-.1506-.0202-.9127.2123-1.8275.4247-2.7311.637-.1205.0405-.211.091-.2611.172-.009.01-.009.0212-.009.0303-.011.0101-.011.0202-.011.0314 0 .009 0 .0192-.0101.0394 0 .0101 0 .0202-.01.0303l-.009 1.436.009.0708v.0303c.031.0708.0602.1113.1114.1224.019.009.0402.0192.0492.0192.0502.0212.1004.0101.1305.0101l2.8015-.7685c.0713-.0102.1114-.0506.1405-.081.0211-.0303.0402-.0606.0503-.091.011-.0202.011-.0303.011-.0404l.0291-1.4157c-.01-.0304-.01-.0506-.02-.081m.1305.1396-.0402 1.3854c0 .1315-.0903.2528-.2108.3135l-2.9621.7888h-.0201c-.0492.01-.1506.01-.241-.0506-.01-.0101-.016-.0081-.0261-.0182l-.0271-.0212-.0221-.0273-.022-.0213c-.0402-.0515-.0332-.094-.0332-.1547v-1.5674c.02-.1112.0904-.3034.4127-.3944l2.7301-.637c.1115-.0203.4619-.0385.4619.4044M4.744 7.6372c-.0412-.01-.0412-.0707.009-.0809l.4419-.0505 15.4138 4.9338-.503.1123c-.0994.0202-.2008.0202-.2912-.0101zm17.0696 5.036C16.1606 10.8934 10.597 9.0934 4.954 7.3136c-.0402-.0202-.0904-.0202-.1306-.01l-2.6207.3943a.294.294 0 0 0-.251.2933v1.2135c0 .1314.0804.2427.1908.2831l.3113.1214-.1607-.2023c-.02-.0303.01-.0809.0502-.0607l14.5996 5.572c.0803.0303.1506.0809.1908.1618l.1907.273-14.935-5.8257.0643.0819 15.8948 6.2494.0392.0152c.0803.0708.262.0556.3635.0455l2.953-.8393s.1366-.0344.2169-.0991c.1104-.081.1124-.2043.1124-.3358l.0402-1.3854c0-.0404.012-.4783-.26-.5865m-3.1737 2.712v.0213h-.01s.01-.0111.01-.0212"/></svg>