<svg xmlns="http://www.w3.org/2000/svg" fill="#44739e" viewBox="0 0 24 24"><path d="M11.78 9.664a.26.26 0 0 0 .182-.1.53.53 0 0 0 .077-.186c.043-.162.089-.163.112-.164.046 0 .094.056.1.137a.324.324 0 0 1-.043.151l-.011.011.1.125.003-.008a.4.4 0 0 0 .11-.28.354.354 0 0 0-.074-.218.231.231 0 0 0-.369.008.54.54 0 0 0-.077.187c-.043.162-.089.163-.112.164-.046 0-.094-.056-.1-.137a.32.32 0 0 1 .043-.151l.011-.012-.095-.125-.011.012a.392.392 0 0 0-.11.279.358.358 0 0 0 .074.218.241.241 0 0 0 .19.089m.252 3.216a.451.451 0 0 0 .441-.46.443.443 0 0 0-.46-.44.451.451 0 0 0-.441.459.445.445 0 0 0 .46.441m-.016-.739a.289.289 0 0 1 .013.577.292.292 0 0 1-.295-.282.286.286 0 0 1 .282-.295m-.029-1.396a.451.451 0 0 0-.019-.9.46.46 0 0 0-.441.46.445.445 0 0 0 .46.44m-.016-.739a.289.289 0 1 1-.282.295.286.286 0 0 1 .282-.295m.44 1.7-.003-.162-.473.01.496-.553-.854.018.004.161.473-.01-.497.554zm-.004 1.443a.237.237 0 0 0-.187-.088.169.169 0 0 0-.171.1.57.57 0 0 0-.077.186c-.042.162-.089.163-.112.164-.046 0-.093-.056-.095-.137a.34.34 0 0 1 .043-.151v-.011l-.1-.125-.008.013a.392.392 0 0 0-.11.279.354.354 0 0 0 .074.218.231.231 0 0 0 .369-.008.54.54 0 0 0 .077-.186c.043-.163.089-.164.112-.164.046 0 .094.055.1.136a.32.32 0 0 1-.043.151l-.011.012.095.125.011-.012a.392.392 0 0 0 .11-.279.36.36 0 0 0-.077-.223M6.571 4.736a1.717 1.717 0 0 0 .647 1.679 8.016 8.016 0 0 0 4.912 1.632 8.78 8.78 0 0 0 3.163-.594l.66-.369a3.9 3.9 0 0 0 .533-.388l.02-.018a2.206 2.206 0 0 0 .732-1.178v-.027a1.85 1.85 0 0 0 .031-.316A2.693 2.693 0 0 0 15.83 3a6.57 6.57 0 0 0-2.37-.871h-.006l-.044-.007a9.24 9.24 0 0 0-4.037.246c-.147.044-.293.092-.436.144a3.183 3.183 0 0 0-2.366 2.224m10.938.408-.039.02c0-.039-.008-.078-.014-.117a1.93 1.93 0 0 0-.079-.336 2.44 2.44 0 0 0-.3-.6 3.75 3.75 0 0 0-1.123-1.055l-.012.019a4.1 4.1 0 0 1 .5.4A3.18 3.18 0 0 1 16.9 4a2.28 2.28 0 0 1 .279.568 1.83 1.83 0 0 1 .093.585v.176a2.305 2.305 0 0 1-1.3 1.88l-.665.37a8.83 8.83 0 0 1-3.18.6 8.067 8.067 0 0 1-4.936-1.637 1.646 1.646 0 0 1-.646-1.4 1.8 1.8 0 0 1 .025-.408 2.36 2.36 0 0 1 .688-1.255 3.5 3.5 0 0 1 .71-.543 4.5 4.5 0 0 1 .5-.255 4.8 4.8 0 0 0-.628.309 3.73 3.73 0 0 0-.74.57 2.52 2.52 0 0 0-.729 1.332 2 2 0 0 0-.027.422c0 .048.006.095.011.142l-.045-.031v13.152l.03.047a5.29 5.29 0 0 0 2.658 2 8.6 8.6 0 0 0 1.779.457 9.36 9.36 0 0 0 1.379.1c.164 0 .33-.005.493-.013a7.62 7.62 0 0 0 2.989-.741 4.99 4.99 0 0 0 1.189-.82 3.94 3.94 0 0 0 .843-1.137l.02-.04zm-.235 13.216a3.54 3.54 0 0 1-.721.955 4.56 4.56 0 0 1-1.05.739 6.13 6.13 0 0 1-1.326.5 8.1 8.1 0 0 1-1.55.229 9 9 0 0 1-.49.013 9 9 0 0 1-1.357-.1 7.9 7.9 0 0 1-1.672-.441 5.97 5.97 0 0 1-1.387-.75 4.14 4.14 0 0 1-.993-1.019l-.009-.014V6.351a1.96 1.96 0 0 0 .349.35 7.98 7.98 0 0 0 1.908 1.091 8.3 8.3 0 0 0 2.1.536 8.8 8.8 0 0 0 1.038.062 9.11 9.11 0 0 0 3.281-.618h.007l.678-.378a3.33 3.33 0 0 0 1.036-.944l.162 11.9zM15.83 3l.115.076.012-.019a5.8 5.8 0 0 0-.88-.454 5.5 5.5 0 0 1 .753.4zm1.07 16.69a5.13 5.13 0 0 1-1.215.838 7.73 7.73 0 0 1-3.033.753 9 9 0 0 1-.5.013 9.44 9.44 0 0 1-1.4-.1 8.67 8.67 0 0 1-1.8-.463 5.554 5.554 0 0 1-2.576-1.843C6.639 20.51 9.286 22 12.023 22c2.641 0 5.05-1.256 5.391-2.889a4.2 4.2 0 0 1-.514.579"/></svg>