<svg xmlns="http://www.w3.org/2000/svg" viewBox="0 0 24 24"><path fill="#44739e" d="M12.2246.998c-1.1038-.0385-2.2188.1628-3.2422.5801-1.5457.6556-3.0736 1.4258-4.3926 2.4727-.9947.696-.3823 1.9926.461 2.5 1.628 1.2027 3.4873 2.1351 5.4512 2.6387 1.224.2222 2.5337.2072 3.7421-.0997 1.5396-.579 3.0133-1.3476 4.4004-2.2304.7563-.47 1.7936-1.531 1.0098-2.4219-1.1948-1.1755-2.7976-1.8066-4.2578-2.582-.9757-.541-2.0681-.819-3.1719-.8575M12 3.0781c.037-.0025.082.0095.1309.045-.1326.1022-.207.1094-.2344.0859-.0323-.0346.0135-.1248.1035-.1309m-.0195 1.2774c.0355-.003.076.027.1133.1172-.053.0367-.0945.0545-.125.0605a.9.9 0 0 1 .0996.0293c.0441.0662.0597.1066.0566.127l-.002.0019v.0039l-.002.002v.0019h-.002l-.002.002-.002.0019h-.002v.002h-.002l-.002.0019c-.0549.0066-.2127-.1081-.2227-.1582V4.541h.002v-.002l.002-.0019v-.002h.002l.002-.0019.002-.002a.07.07 0 0 1 .0196-.0039c-.0522-.0334-.0095-.1561.0566-.1699.0023-.0005.0054-.0017.0078-.002zm-.0645.1718c.0123.0079.0292.0105.0527.0059a.22.22 0 0 0-.0527-.0059M4.0586 5.709c-.0345.8704-.0055 1.8699.8027 2.4101 1.7042 1.3132 3.6893 2.2823 5.7735 2.8164 1.3549.1662 2.828.202 4.1172-.3125 1.5862-.7377 3.2494-1.4325 4.582-2.5917.7005-.5614.6107-1.4898.6113-2.2891-.4223.6535-1.0195 1.1716-1.6973 1.5488-1.7586.966-3.5557 2.1162-5.6171 2.2207-2.6386.0877-5.1072-1.1515-7.2598-2.5605-.501-.2496-1.083-1.0175-1.3125-1.2422m.084 1.8633c.004 3.1522-.0068 6.3048.0117 9.457-.0064 1.0125-.0945 2.2179.9062 2.8281 1.706 1.3586 3.7493 2.3152 5.881 2.7715v-.002l.1093.0195c1.7714.3603 3.5579-.201 5.1015-1.0507 1.314-.7289 2.926-1.2925 3.6641-2.7032.0155-3.7602.0295-7.521.045-11.2812-1.0618 1.3696-2.7485 1.99-4.2384 2.7637-1.876 1.02-4.1592 1.1033-6.1464.3613-1.9346-.7315-3.8964-1.6337-5.334-3.164m7.7617.6601h.002c.02.0002.074.0264.1758.0977.0124.0323.0174.0536.0156.0664l-.002.0058v.002l-.002.002-.002.0019-.002.002h-.002v.0019h-.006c-.0484-.004-.175-.1279-.1836-.168v-.0059h.002v-.0039h.002zm-.041.3106c.0009-.0002.0048 0 .0059 0 .0232.0005.0735.02.1562.0664.0665.0972.0917.149.0918.1718v.0079h-.002v.0039h-.004v.002h-.008c-.0585-.0119-.2422-.1823-.25-.2364v-.0059l.002-.002v-.0019l.002-.002.002-.0019h.002zm-7.3086 11v.002h-.004l-.0019.002-.002.002v.0099c.01.0783.2647.4103.506.578 1.659 1.3133 3.631 2.2328 5.6796 2.7481 1.3305.1766 2.7732.228 4.0293-.3183 1.6824-.7395 3.434-1.4989 4.7676-2.7988-1.2716 1.0047-2.7433 1.7132-4.205 2.3945-1.6464.8307-3.6034.8548-5.3555.371-1.8125-.621-3.6019-1.4564-5.0704-2.7053-.1948-.1963-.2984-.2751-.3359-.2832l-.002-.002h-.0039z"/></svg>