<svg xmlns="http://www.w3.org/2000/svg" fill="#44739e" viewBox="0 0 24 24"><path d="M15.61 7.968c.1.028.172-.052.171-.181a.311.311 0 0 0-.173-.283c-.1-.03-.171.05-.171.181a.3.3 0 0 0 .173.283m.005 1.253c-.1-.021-.176.066-.175.2a.263.263 0 0 0 .176.267c.1.018.176-.068.175-.2a.266.266 0 0 0-.176-.267m5.14-1.6a4.886 4.886 0 0 0-1.625-1.464 5.64 5.64 0 0 0-2.319-.66l-2.99-.311a5.15 5.15 0 0 0-2.335.326 4.34 4.34 0 0 0-.586.288l-1.63.653-.949.381-1.4.1h-.01a4.44 4.44 0 0 0-3.388 1.13 5.412 5.412 0 0 0-1.523 4 6.43 6.43 0 0 0 1.652 4.712 4.292 4.292 0 0 0 3.159 1.231h.009l2.98-.052 2.179.51.084.029a6.24 6.24 0 0 0 1.965.32l2.779.018h.06a4.554 4.554 0 0 0 3.333-1.287 5.67 5.67 0 0 0 1.37-2.345 9.96 9.96 0 0 0 .43-3.02 7.853 7.853 0 0 0-1.245-4.559M8.431 17.312l-.949-.253A6.344 6.344 0 0 1 5.9 12.741 7.892 7.892 0 0 1 7.806 7.38l2.163-.869a5.75 5.75 0 0 0-1.169 1.6 8.35 8.35 0 0 0-.821 3.925 8.057 8.057 0 0 0 1.1 3.932 6.25 6.25 0 0 0 .533.754 5.33 5.33 0 0 0 1.207 1.147zm11.5-.038a4.187 4.187 0 0 1-3.066 1.177h-.056l-2.779-.017c-4.129-.039-5.6-3.695-5.6-7.106.382-3.889 2.334-5.988 5.355-5.761l2.99.31c3.076.233 4.84 2.531 4.84 6.305a7.106 7.106 0 0 1-1.68 5.092zM16.732 5.986l-2.9-.3c-2.934-.221-4.907 1.895-5.276 5.66 0 3.346 1.45 6.932 5.511 6.97l2.7.018h.055a4.13 4.13 0 0 0 3.025-1.163 6.963 6.963 0 0 0 1.653-4.994c0-3.706-1.741-5.962-4.768-6.191m-.868 2.822v.128l-.517-.12.3-.364-.284-.073v-.132l.513.136-.3.356zm-.448-2.123.007-.007.054.122-.007.007a.26.26 0 0 0-.027.112c0 .066.028.122.055.131s.041.014.068-.107a.37.37 0 0 1 .047-.133.091.091 0 0 1 .108-.035.224.224 0 0 1 .109.112.46.46 0 0 1 .042.188.264.264 0 0 1-.067.2l-.006.007-.056-.119v-.012a.26.26 0 0 0 .027-.111c0-.064-.028-.12-.055-.129s-.041-.014-.068.106a.37.37 0 0 1-.047.132c-.027.047-.061.064-.1.041a.21.21 0 0 1-.109-.111.46.46 0 0 1-.041-.192.272.272 0 0 1 .066-.202m.192.689a.468.468 0 0 1 .269.442c0 .192-.114.324-.266.282a.452.452 0 0 1-.27-.442c0-.197.116-.33.267-.282m.211 3.092-.008.008-.057-.11.007-.008a.28.28 0 0 0 .028-.115c0-.064-.029-.115-.058-.12-.014 0-.042-.007-.07.118a.46.46 0 0 1-.049.141.12.12 0 0 1-.114.058.171.171 0 0 1-.114-.092.39.39 0 0 1-.043-.185.315.315 0 0 1 .071-.214l.007-.008.057.112-.007.008a.3.3 0 0 0-.028.117c0 .066.028.117.057.121s.042.007.07-.119a.41.41 0 0 1 .05-.14.121.121 0 0 1 .113-.055.173.173 0 0 1 .113.093.37.37 0 0 1 .044.181.308.308 0 0 1-.069.209m-.2-.651a.4.4 0 0 1-.276-.417c0-.207.119-.341.273-.307a.42.42 0 0 1 .276.417c-.001.192-.127.334-.275.307Z"/></svg>