<svg xmlns="http://www.w3.org/2000/svg" fill="#44739e" viewBox="0 0 24 24"><path d="M9.05 7.58v9a1.22 1.22 0 0 0 1.07 1.21l2.49.26c.5888.0057 1.0737-.4614 1.09-1.05l.05-9a1.15 1.15 0 0 0-1.06-1.15L10 6.64a1 1 0 0 0-.95.94m3.8 8.76c-.5-.06-1.94-.21-2-.23a.33.33 0 0 1-.17-.3l.09-8.27 1.78.13a.48.48 0 0 1 .29.39zm8.58 2.13v-.01l.01-.1zM3.46 3.29a3.54 3.54 0 0 1 1.67-.16c2.53.12 4.58.21 9.5.52 1.87.12 4.49.31 5.15.48a2 2 0 0 1 1.31 1.5L21 19.78c0 .15.31-.19.38-.73v-.69L21.5 5c0-1.26-1.53-1.55-1.71-1.58-1-.21-13.8-.92-14.4-.89a3.53 3.53 0 0 0-1.93.76M2.5 17.28c0 1.26.35 2.35 2 2.62l4.05.52 6.07.61 4.28.46c.9018.1059 1.701-.5825 1.73-1.49l.12-14.1A1.53 1.53 0 0 0 20 4.7a1.74 1.74 0 0 0-1-.37C18 4.11 4.3 3.3 3.71 3.4c-1.11.19-1 1-1 1.23zM8.8421 6.4869c.188-.1724.2645-.2793.8874-.329L13 6.35a1.43 1.43 0 0 1 .86.36 1 1 0 0 1 .3.72 1.27 1.27 0 0 1 0 .21v10.13s-.08.74-.67.71l-4.4007-.4731c-.2398-.0972-.5121-.4994-.5662-.7525l.0186-9.962c.046-.5322.1428-.6115.3004-.8055"/></svg>