<svg xmlns="http://www.w3.org/2000/svg" fill="#44739e" viewBox="0 0 24 24"><path d="M8.5847 2v.877l-4.218-.007v1.171c-.023-.013-.023-.051-.047-.051a.157.157 0 0 0-.156.156v1.887a.156.156 0 0 0 .156.156c.031 0 .032-.04.057-.056l.015 5.027c-.028-.025-.033-.072-.072-.072a.156.156 0 0 0-.156.156v1.738a.156.156 0 0 0 .156.156c.043 0 .049-.05.077-.077l.019 6.221c-.022-.012-.022-.049-.049-.049a.156.156 0 0 0-.156.156v1.887a.156.156 0 0 0 .156.156c.03 0 .031-.04.055-.055V22h15.7V2Zm-.241 18.047h-3.6v-7.214h3.6zm0-8.144h-3.6V7.6h3.6zm0-4.887h-3.6V3.758h3.6zm10.55 13.829h-9.038V2.575h9.039ZM8.1327 7.83h-3.173v3.84h3.173zm-.423 3.491h-2.327V8.179h2.327zm.423-7.331h-3.173v2.793h3.173zm-.423 2.444h-2.327V4.339h2.327zm-2.115 1.862h1.904v2.793h-1.904zm2.418 4.763h-2.962v6.751h2.962zm-.261 6.407h-2.432V13.3h2.432zm-2.156-5.934h1.903v5.702h-1.903zm-.001-8.972h1.906v1.629h-1.906z"/></svg>