<svg xmlns="http://www.w3.org/2000/svg" viewBox="0 0 24 24"><path fill="#44739e" d="M12 15.464c4.378 0 7.941-2.55 7.941-5.685S16.378 4.093 12 4.093 4.059 6.644 4.059 9.779 7.622 15.464 12 15.464m6.218-4.017-.782 1.13-.126-.039.817-1.137Zm-.177-.41-.981 1.448-.128-.038 1.02-1.457Zm-1.365 1.358-.126-.038.866-1.21.092.046Zm-7.48-2.777.09.046-.586.823-.124-.039Zm-.88.779-.126-.038.817-1.137.091.046Zm1.693-1.37.092.046-1.018 1.503-.128-.037Zm.691-.402.093.047-1.331 1.995-.128-.037Zm.23.33.093.046-1.181 1.76-.128-.039Zm.09-2.316a.298.298 0 0 1 .261-.1c.082.019.085.085.017.163a.292.292 0 0 1-.259.097c-.082-.018-.086-.082-.019-.16m.129 2.661.092.047-1.02 1.503-.127-.037Zm.892-.72.093.046-1.533 2.31-.129-.039Zm.44 0 .093.046-1.59 2.405-.13-.037Zm.12.5.093.047-1.331 1.996-.133-.039Zm.253.292.093.047-1.21 1.794-.129-.037Zm.311.2.092.047-1.137 1.685-.128-.038Zm.077.57.091.046-.831 1.21-.127-.038Zm.175.415.091.045-.626.88-.125-.038Zm.379.091.092.046-.626.88-.126-.039Zm.074-3.35a.3.3 0 0 1 .264-.1c.08.019.08.087.009.166a.295.295 0 0 1-.262.098c-.076-.019-.076-.085-.011-.164m.611 2.948.092.046-.934 1.375-.128-.037Zm.524-.137.093.046-1.084 1.604-.127-.039Zm.627-.302.094.046-1.328 1.996-.128-.038Zm.23.33.093.046-1.181 1.76-.128-.038Zm.057.602.092.046-.857 1.247-.122-.035Zm.22.338.091.046-.701 1.001-.126-.039Zm.143.465.089.045-.463.627-.122-.037Zm.518-.129.091.046-.603.846-.125-.038Zm-.152-4.878a1.12 1.12 0 0 1 .561-.043c.321.077.255.317.059.518a3.21 3.21 0 0 1-1.234.628l-.22.074.66.164-.152.158-.934-.234.11-.116.294-.11a3.38 3.38 0 0 0 1.255-.598c.138-.142.192-.292-.03-.345a.9.9 0 0 0-.431.043Zm-1.186-.275a1.11 1.11 0 0 1 .562-.043c.324.075.263.312.071.511a3.18 3.18 0 0 1-1.226.625l-.22.074.66.161-.149.157-.942-.231.11-.11.292-.105a3.33 3.33 0 0 0 1.248-.595c.135-.141.187-.289-.038-.341a.9.9 0 0 0-.431.044Zm-.622.189c.082.019.083.087.01.166a.3.3 0 0 1-.264.1c-.08-.019-.082-.089-.011-.164a.304.304 0 0 1 .274-.104Zm-1.059-.568a1.12 1.12 0 0 1 .563-.044c.33.073.273.308.087.505a3.11 3.11 0 0 1-1.215.619l-.22.074.672.159-.146.154-.954-.22.11-.11.291-.105a3.27 3.27 0 0 0 1.237-.59c.133-.139.18-.286-.048-.336a.924.924 0 0 0-.433.044Zm-.606-.3c.324.07.267.367-.141.804-.434.464-.863.677-1.197.601-.295-.069-.266-.362.145-.812a1.444 1.444 0 0 1 1.202-.595Zm-1.223.22c.083.018.087.084.017.162a.298.298 0 0 1-.26.099c-.083-.019-.088-.087-.02-.161a.301.301 0 0 1 .271-.098Zm-.848-.635.744.155-.142.154-.586-.122-.377.33a1 1 0 0 1 .134.019.43.43 0 0 1 .266.143c.065.087.057.22-.099.395a1.113 1.113 0 0 1-.99.335.5.5 0 0 1-.307-.166l.178-.127a.44.44 0 0 0 .26.146.71.71 0 0 0 .631-.213c.158-.175.139-.33-.169-.394a1.8 1.8 0 0 0-.228-.031Zm-1.12-.028-.386.07.092-.141.485-.087.182.037L9.14 6.353l-.201-.044 1.058-1.168ZM8.928 8.857l-.99 1.448-.118-.038 1.015-1.46Zm-.259-.283-1.1 1.64-.127-.037 1.14-1.65Zm-.235-.317-1.25 1.87-.129-.038 1.286-1.88Zm-.614.272L6.8 10.033l-.124-.038 1.055-1.512Zm-.733.466-.666.946-.122-.034.7-.955Zm-.521.142-.521.719-.124-.039.55-.726Zm-.52.128-.381.499-.121-.038.414-.506Zm-.24-.315-.516.72-.124-.039.55-.726Zm-.21-.55.092.046-.783 1.131-.125-.037Zm-.22 2.072c-.06-.038-.056-.102-.054-.159a.5.5 0 0 0-.008-.141c-.023-.11-.098-.245-.171-.261s-.16.073-.227.138-.14.135-.212.094-.073-.151.013-.412l.132.043a1.7 1.7 0 0 0-.055.199l.026-.024c.089-.087.211-.205.352-.174.166.037.254.257.279.369a.64.64 0 0 1 .01.176v.027a.73.73 0 0 0 .165-.11 1 1 0 0 0 .137-.131.35.35 0 0 1 .172-.122.308.308 0 0 1 .315.072c.058.079.025.166-.026.296-.028.073-.063.165-.099.289-.047.167-.061.268-.039.301a.208.208 0 0 0 .22.064c.048-.016.066-.048.11-.138a1.7 1.7 0 0 1 .154-.258.682.682 0 0 1 .44-.342.388.388 0 0 1 .33.117c.069.091.056.192-.093.778a1.14 1.14 0 0 0-.043.33c0 .11.007.197.051.235s.204.021.372-.068c.11-.059.161-.118.348-.338l.087-.095c.31-.363.407-.461.57-.516a.8.8 0 0 1 .346-.033.76.76 0 0 1 .532.304c.085.15.051.269-.091.77-.02.071-.042.152-.068.241a1.97 1.97 0 0 0-.133.638c0 .005.034.55.297.627a.495.495 0 0 0 .377-.11.88.88 0 0 0 .316-.358 2.75 2.75 0 0 1 .974-1.006 1.63 1.63 0 0 1 .578-.25.745.745 0 0 1 .56.039.678.678 0 0 1 .288.486.583.583 0 0 1-.047.294 1.07 1.07 0 0 0-.073.32c-.013.166-.023.275.044.354a.38.38 0 0 0 .378.083c.089-.026.128-.074.286-.275l.083-.11c.378-.475.491-.561.591-.617a.704.704 0 0 1 .55-.11.616.616 0 0 1 .408.424.597.597 0 0 1-.071.421 3.4 3.4 0 0 0-.154.426c-.088.306-.125.446-.076.588a.6.6 0 0 0 .559.403c.162-.013.268-.135.491-.409a3.5 3.5 0 0 0 .347-.518 1.293 1.293 0 0 1 .418-.501.99.99 0 0 1 .516-.191.91.91 0 0 1 .421.08l-.056.127a.78.78 0 0 0-.359-.069.887.887 0 0 0-.44.168 1.18 1.18 0 0 0-.376.455 3.63 3.63 0 0 1-.359.537c-.22.275-.359.44-.588.46h-.042a.746.746 0 0 1-.66-.499 1.1 1.1 0 0 1 .074-.672 3.6 3.6 0 0 1 .158-.44c.065-.154.095-.22.066-.33a.481.481 0 0 0-.312-.33.568.568 0 0 0-.44.099c-.082.045-.189.128-.55.582l-.084.11c-.16.206-.22.283-.356.322a.51.51 0 0 1-.523-.127.59.59 0 0 1-.076-.455 1.24 1.24 0 0 1 .082-.357.44.44 0 0 0 .038-.23.54.54 0 0 0-.22-.383.625.625 0 0 0-.461-.022 1.5 1.5 0 0 0-.531.231 2.65 2.65 0 0 0-.673.585 2.75 2.75 0 0 0-.256.376 1.01 1.01 0 0 1-.361.404.613.613 0 0 1-.493.128c-.348-.11-.389-.688-.393-.752a2.06 2.06 0 0 1 .137-.682c.025-.091.048-.171.068-.242.135-.478.158-.57.103-.666a.635.635 0 0 0-.428-.235.66.66 0 0 0-.283.026c-.125.042-.201.11-.51.475l-.082.096a1.28 1.28 0 0 1-.388.37c-.135.071-.382.173-.527.052a.43.43 0 0 1-.1-.336 1.23 1.23 0 0 1 .047-.362c.134-.527.144-.627.116-.66-.057-.077-.205-.063-.206-.063-.141.014-.239.148-.341.287a1.43 1.43 0 0 0-.143.238c-.049.096-.087.171-.192.207a.347.347 0 0 1-.379-.117c-.043-.064-.054-.156.021-.418.037-.13.074-.229.102-.3s.056-.147.043-.165a.185.185 0 0 0-.165-.019.22.22 0 0 0-.11.08 1.2 1.2 0 0 1-.155.148c-.103.076-.239.183-.338.122Zm6.614-3.628c.209.047.514-.151.839-.5s.424-.578.209-.624c-.182-.04-.498.128-.842.499s-.393.582-.206.625M12 17.827c6.065 0 11-3.578 11-7.976s-4.935-7.975-11-7.975S1 5.448 1 9.846s4.935 7.981 11 7.981M5.845 5.128a10.474 10.474 0 0 1 6.16-1.87 10.474 10.474 0 0 1 6.155 1.87 5.792 5.792 0 0 1 2.619 4.651 5.792 5.792 0 0 1-2.619 4.65A10.474 10.474 0 0 1 12 16.297a10.474 10.474 0 0 1-6.155-1.87 5.792 5.792 0 0 1-2.619-4.648 5.792 5.792 0 0 1 2.619-4.651m14.308 10.673a14.12 14.12 0 0 1-8.189 2.437 14.12 14.12 0 0 1-8.189-2.437A8.554 8.554 0 0 1 1 12.632l.128 1.793v.025c0 4.196 4.876 7.674 10.8 7.674s10.993-3.463 10.993-7.658L23 12.481a8.48 8.48 0 0 1-2.847 3.32"/></svg>