<svg xmlns="http://www.w3.org/2000/svg" viewBox="0 0 24 24"><path fill="#44739e" d="M12.934 9.448c.31 0 .341-.5.341-.714s-.031-.716-.341-.716-.343.5-.342.716.031.714.342.714m.88.545a.195.195 0 0 0-.22.153 1.642 1.642 0 0 1-3.235-.026.192.192 0 0 0-.379.063 2.029 2.029 0 0 0 3.995.032.198.198 0 0 0-.161-.222m-2.824-.545c.31 0 .342-.5.342-.714s-.032-.716-.342-.716-.342.5-.342.716.03.714.342.714m.995-5.739a6.655 6.655 0 0 0-6.951 6.312 6.656 6.656 0 0 0 6.951 6.314 6.656 6.656 0 0 0 6.951-6.314 6.655 6.655 0 0 0-6.951-6.312m-.007 9.061a3.09 3.09 0 1 1 3.089-3.088 3.094 3.094 0 0 1-3.089 3.088m.032-11.105h-.025A10.984 10.984 0 0 0 1.002 12.648a10.863 10.863 0 0 0 4.141 8.736 21.88 21.88 0 0 0 6.284.951h.583a24.62 24.62 0 0 0 6.876-1.119A10.982 10.982 0 0 0 12.01 1.665M8.534 20.046a.244.244 0 0 1 .244-.244h.589a.244.244 0 0 1 0 .488h-.589a.245.245 0 0 1-.244-.244m3.754.244h-.59a.244.244 0 1 1 0-.488h.59a.244.244 0 0 1 0 .488m2.904 0h-.59a.244.244 0 1 1 0-.488h.59a.244.244 0 1 1 0 .488m-3.207-2.517c-4.713 0-8.534-3.47-8.534-7.751s3.821-7.751 8.534-7.751 8.534 3.47 8.534 7.75-3.821 7.752-8.534 7.752"/></svg>