<svg xmlns="http://www.w3.org/2000/svg" fill="#44739e" viewBox="0 0 24 24"><path d="M13.017 17.507a.847.847 0 0 0 .918-.734.848.848 0 0 0-.468-1.078.56.56 0 0 0-.134-.016.9.9 0 0 0-.784.75.847.847 0 0 0 .468 1.078m-.402 1.621a1.839 1.839 0 0 0 1.573-.382 3.119 3.119 0 0 0 .893-3.6 1.838 1.838 0 0 0-1.212-1.074 1.64 1.64 0 0 0-.392-.048 2.527 2.527 0 0 0-2.22 2.082 2.98 2.98 0 0 0 .145 1.946 1.839 1.839 0 0 0 1.213 1.076m-.35-2.769a1.135 1.135 0 0 1 1.272-.948 1.135 1.135 0 0 1 .682 1.433 1.194 1.194 0 0 1-1.071.971.86.86 0 0 1-.2-.024 1.134 1.134 0 0 1-.683-1.432m.535-8.472c.12-.017.136-.247.137-.346s-.007-.325-.129-.309-.136.247-.137.345.009.323.129.31m1.088.096a.092.092 0 0 0-.087.081.828.828 0 0 1-.635.7.557.557 0 0 1-.614-.539.067.067 0 0 0-.085-.061.108.108 0 0 0-.062.111.687.687 0 0 0 .758.663 1.033 1.033 0 0 0 .784-.867.074.074 0 0 0-.059-.088m-.334-.2c.12-.016.138-.246.141-.344s0-.323-.126-.307-.139.245-.141.343.006.325.126.308M10.581 5.5a.409.409 0 0 0-.337.4l.115 5.378a.335.335 0 0 0 .128.261.346.346 0 0 0 .288.059l4.705-1.059a.407.407 0 0 0 .318-.385l.085-5.133a.335.335 0 0 0-.116-.264.34.34 0 0 0-.245-.078.2.2 0 0 0-.036 0zm3.8 2.276a1.638 1.638 0 0 1-1.222 1.577c-.646.1-1.171-.46-1.171-1.244a1.556 1.556 0 0 1 1.222-1.577 1.091 1.091 0 0 1 1.168 1.24zm1.395-4.365a.4.4 0 0 0-.062 0l-5.652.866c-.4.061-.7.669-.68 1.384L9.7 20.677a2.16 2.16 0 0 0 .29 1.063c.09.138.236.294.419.253l5.761-1.716c.157-.047.271-.289.272-.576l.038-15a1.874 1.874 0 0 0-.224-.949.594.594 0 0 0-.48-.341m-5.208 1.923 4.905-.812a.5.5 0 0 1 .4.107.489.489 0 0 1 .168.381l-.086 5.132a.587.587 0 0 1-.459.556l-4.7 1.06a.54.54 0 0 1-.079.012.477.477 0 0 1-.517-.47l-.114-5.379a.591.591 0 0 1 .482-.587m.569 12.842a3.26 3.26 0 0 1-.164-2.138 2.667 2.667 0 0 1 2.967-2.248 2.124 2.124 0 0 1 1.407 1.236 3.411 3.411 0 0 1-.981 3.952 2.23 2.23 0 0 1-1.356.491 1.94 1.94 0 0 1-.466-.057 2.124 2.124 0 0 1-1.407-1.236M9.284 5.673c-.017-.809.321-1.5.77-1.565l5.652-.867a.48.48 0 0 1 .169.006l-.688-.527-.8-.571a.76.76 0 0 0-.337-.14.44.44 0 0 0-.154 0l-5.653.866a.5.5 0 0 0-.124.037 1.55 1.55 0 0 0-.6 1.438l.3 14.288a1.567 1.567 0 0 0 .34 1.019.66.66 0 0 0 .069.1l1.564 1.867a2.59 2.59 0 0 1-.194-.934Z"/></svg>