<svg xmlns="http://www.w3.org/2000/svg" fill="#44739e" viewBox="0 0 24 24"><path d="M11.7621 30.4505c-.6311-.322-1.0095-.854-1.0626-1.494l-.0275-.3315h10.656l-.0275.3315c-.0537.6476-.4598 1.2097-1.0893 1.5077l-.3396.1608-3.889-.0027-3.8888-.0026Zm-1.4496-2.8878c-.6685-.0734-1.2944-.379-1.8724-.914-.7267-.673-1.0233-1.3258-1.1036-2.43-.1218-1.6746.968-3.2036 2.6323-3.6927.2542-.0747.697-.1218 1.375-.1462l1-.036.017-1.172.017-1.1718h7.2444l.017 1.1719.017 1.1719 1.0313.038c.8898.033 1.0983.061 1.5205.2044.6329.215 1.0474.485 1.5064.9816.6675.722 1.024 1.717.9564 2.6696-.0361.5095-.2063 1.2308-.3273 1.3876-.0398.0516-.147.2246-.2382.3845-.2405.4216-.8675.9594-1.4623 1.2542-.416.2062-.6116.2638-1.0313.304-.6392.061-10.7378.0566-11.2992-.005m.034-1.9036.1535-.1534v-1.4832c0-1.4368-.0043-1.4877-.1359-1.6278-.1757-.187-.3931-.1838-.5857.0087l-.1534.1534v2.9492l.1654.1532c.2092.194.3621.194.5562-.0001m1.9708-.0293.1827-.1827v-2.8903l-.1534-.1534c-.1868-.1867-.402-.1963-.5848-.026-.1335.1244-.1368.1642-.1368 1.6518v1.5242l.1647.1296c.2197.1728.3108.1636.5276-.0532m1.9555.0532.1647-.1296v-1.507c0-1.4613-.0041-1.5115-.1359-1.6517-.1652-.1759-.3631-.1848-.5603-.0253-.1465.1185-.1477.13-.1664 1.5953l-.0188 1.476.1859.1859c.22.22.3105.2297.5308.0564m2.0113-.024.1534-.1533v-1.4832c0-1.4368-.0042-1.4877-.1359-1.6278-.1706-.1816-.4068-.1851-.5944-.0088-.1434.1347-.1447.1491-.1447 1.628v1.492l.1654.1533c.2092.194.3621.194.5562-.0001m1.9887-.0252.1712-.1787-.0189-1.4711c-.0172-1.3437-.0292-1.4825-.138-1.6026-.1534-.1694-.3968-.1676-.58.0045-.1434.1347-.1446.1487-.1446 1.6366 0 1.4548.0042 1.5051.1359 1.6454.1816.1933.3671.1823.5744-.0341m1.9375.0492.1647-.1296v-1.5242c0-1.4876-.0033-1.5274-.1368-1.6518-.1838-.1712-.3982-.1605-.588.0292l-.1566.1566.0188 1.474.0189 1.4738.1753.1508c.2144.1842.2923.1875.5037.0212m1.9993-.0238.1654-.1532v-1.4834c0-1.437-.0042-1.4878-.1359-1.628-.1706-.1815-.4068-.185-.5944-.0087-.1435.1348-.1447.148-.1447 1.6517v1.5158l.1647.1296c.2149.169.343.1634.545-.0238m-18.625.7758c-.3353-.0664-.8583-.3304-1.1942-.603-.381-.3091-.7094-1.0025-.7511-1.5855-.0404-.564.1066-1.1241.4239-1.615.2663-.412.4843-.5946 1.0444-.8746l.3888-.1944h3.5679l-.1846.3657c-.393.7786-.4608 1.0839-.4601 2.0718.0005.6959.0255.977.108 1.2107.0591.1674.1182.3601.1313.4283.0132.068.1093.2752.2137.4602s.1899.3509.1899.3686c0 .053-3.1971.0228-3.4778-.0328m21.3529.0452c0-.0165.0844-.1904.1875-.3864s.1875-.3915.1875-.4343.0409-.1598.0909-.26c.1465-.2936.2404-1.0711.1993-1.6495-.0474-.668-.173-1.1569-.4453-1.7344l-.2137-.4531h3.5685l.4958.258c.5688.2959.8448.5826 1.1354 1.1795.1813.3725.1979.4582.199 1.0313.0013.5962-.0094.647-.2328 1.105-.2713.5563-.5487.8153-1.2069 1.127l-.434.2055-1.7656.0207c-.971.0114-1.7656.0072-1.7656-.0093M11.9066 16.491c-.826-1.071-.9854-1.4204-.7406-1.6239.0773-.0643.433-.0936 1.4218-.117l1.3187-.0312v-2.1875l-.8617-.0313c-.9816-.0356-.9795-.0344-.981-.5445-.0022-.743.4474-1.4241 1.1773-1.7836l.4124-.2031 2.3259-.0185 2.3258-.0185.384.194c.516.2604.8917.6196 1.063 1.0163.1548.3583.2304 1.0825.1287 1.2329-.0493.073-.2545.1007-.925.125l-.8619.0313v2.1875l1.3188.0312c.9888.0234 1.3445.0527 1.4218.117.245.2037.0835.5575-.7405 1.6228l-.4376.5656L16 17.0567l-3.6562.0014Zm7.7471-7.0193c-.165-.165-.1933-.3428-.0865-.5424.083-.155.604-.4917.7607-.4917.154 0 .4224.2749.4224.4325 0 .2483-.566.755-.8435.755-.0548 0-.1687-.069-.253-.1534m-7.9134-.098c-.3309-.1748-.5083-.4229-.4633-.648.0516-.2575.1477-.3506.3621-.3506.6118 0 1.0886.6477.7362 1-.1552.1552-.3393.1548-.635-.0014m6.19-.749c-.0556-.0325-.1348-.1405-.176-.24-.064-.1545-.055-.2228.0619-.4715.1492-.3174.383-.5381.5704-.5381.1591 0 .4262.274.4262.4371 0 .1931-.223.595-.413.7445-.18.1417-.3109.1606-.4694.068m-4.323-.1253c-.1825-.1436-.378-.6018-.3468-.813.0305-.2066.3154-.3998.5155-.3495.1964.0493.4659.438.5155.7436.0298.1839.008.251-.1247.3838-.1935.1935-.346.203-.5594.0351m7.7055-.1052c-.1519-.0543-.25-.2174-.25-.4157 0-.3143.7505-.9175 1.1381-.915.1931.0013.2799.0647.3533.2577.108.2842-.0751.5373-.6755.9332-.2732.18-.3796.2064-.5659.1398M10.091 8.1188c-.17-.1066-.3865-.2666-.481-.3555-.3255-.306-.177-.8257.236-.8257.1533 0 .6016.2755.889.5463.254.2392.2836.5777.0642.7314-.2031.1423-.3619.1207-.7082-.0965m5.6646.0844c-.233-.1904-.2514-.8853-.0293-1.1073.1245-.1246.488-.1231.6136.0024.0715.0715.0982.2234.0982.559 0 .4052-.0167.4724-.139.558-.182.1276-.378.1232-.5435-.012m2.961-1.2315c-.1949-.1948-.193-.334.0095-.7393.3243-.649.6313-.8187.9336-.5164.1976.1976.1933.2823-.0373.7451-.3219.6458-.609.8076-.9059.5106m-5.9202.0228c-.1426-.083-.5458-.8824-.5458-1.0821 0-.304.3857-.5016.646-.331.1546.1013.604.8984.604 1.0713 0 .152-.285.4102-.4503.408-.0789-.001-.1932-.0308-.254-.0662m10.24-.0926c-.1244-.1243-.1268-.4582-.0047-.6326.1391-.1987.8358-.6442 1.0073-.6442.3376 0 .512.436.2971.7428-.151.2155-.8287.6322-1.0282.6322-.0954 0-.2176-.0442-.2716-.0982M8.375 6.816c-.1203-.0637-.3523-.2336-.5156-.3775-.2428-.214-.2969-.2997-.2969-.4706 0-.2345.1203-.3862.3527-.4445.1211-.0304.2518.026.5792.2496.565.386.7238.7588.4431 1.0395-.1532.1532-.2787.154-.5625.0035m7.367-1.0599c-.1279-.1036-.1497-.1843-.1699-.6274-.028-.6154.0277-1.0321.1548-1.1592.1235-.1235.4874-.1213.6124.0037.0787.0788.0982.2522.0982.875 0 .6935-.0134.7902-.125.9018-.1574.1574-.3807.1598-.5705.0061m9.1614-.2845c-.1778-.1778-.1895-.283-.0593-.5348.1248-.2414.608-.5249.8088-.4745.5366.1347.4278.7685-.1792 1.0442-.3329.1511-.3876.1478-.5703-.035M6.3648 5.294c-.3341-.2548-.4296-.4853-.2983-.7202.175-.3133.6502-.2394.9963.1547.2208.2515.2334.3834.0577.6067-.1792.2278-.4203.2146-.7557-.0412m13.3511-.135c-.2048-.2048-.1947-.3106.081-.8537.2691-.5301.4595-.6535.7542-.4889.2396.1339.2546.4528.041.874-.3105.613-.585.7598-.8762.4686m-7.9154-.0301c-.1842-.1449-.5505-.8103-.5505-1 0-.1668.2652-.4415.4262-.4415.2025 0 .4149.2212.6238.6496.2403.493.2445.5616.0466.7595-.1849.1849-.3405.1941-.546.0324m8.9154-1.7824c-.1863-.1863-.1943-.3964-.0276-.7232.2184-.428.5702-.5435.8386-.275.1396.1395.1217.359-.058.714-.2337.461-.4824.5548-.753.2842m-9.8903-.007c-.184-.1289-.3881-.5362-.3881-.7746 0-.1996.1856-.44.3397-.44.2202 0 .3955.1343.553.4236.2097.3855.2132.5387.0164.7355-.1776.1776-.3244.1932-.521.0555m5.0016-.653c-.3733-.1536-.3405-1.1571.0418-1.2784.1748-.0555.4373.0259.5076.1574.0877.1638.0753.8916-.0172 1.0128-.1005.1315-.3514.1825-.5322.1082"/></svg>