<svg xmlns="http://www.w3.org/2000/svg" viewBox="0 0 24 24"><path fill="#44739e" d="M8.82 22.869c-.475-.243-.76-.643-.8-1.125L8 21.495h8.019l-.021.249c-.04.488-.346.911-.82 1.135l-.255.121-2.927-.002-2.926-.002Zm-1.091-2.173c-.503-.056-.974-.286-1.409-.688-.547-.507-.77-.998-.83-1.829-.092-1.26.728-2.411 1.98-2.779.192-.056.525-.091 1.035-.11l.753-.027.013-.882.012-.882h5.452l.013.882.013.882.776.029c.669.024.826.046 1.144.153.476.162.788.365 1.133.739.503.543.771 1.292.72 2.009-.027.384-.155.926-.246 1.044-.03.039-.111.169-.179.29-.181.317-.653.722-1.101.944-.313.155-.46.198-.776.228-.481.046-8.08.043-8.503-.003m.026-1.433.115-.115v-1.117c0-1.081-.003-1.119-.102-1.225-.132-.14-.296-.138-.441.007l-.115.115v2.22l.124.115c.158.146.273.146.419 0m1.483-.022.137-.138v-2.175l-.115-.115c-.141-.141-.303-.148-.44-.02-.101.094-.103.124-.103 1.243v1.147l.124.098c.165.13.234.123.397-.04m1.471.04.124-.098v-1.134c0-1.099-.003-1.137-.102-1.243-.124-.132-.273-.139-.422-.019-.11.09-.111.098-.125 1.201l-.014 1.111.14.14c.166.165.234.172.399.042m1.514-.018.115-.115v-1.117c0-1.081-.003-1.119-.102-1.225-.128-.136-.306-.139-.447-.006-.108.101-.109.112-.109 1.225v1.123l.124.115c.158.146.273.146.419 0m1.497-.019.128-.134-.014-1.107c-.013-1.012-.022-1.116-.104-1.207-.115-.127-.298-.126-.436.004-.108.101-.109.112-.109 1.231 0 1.095.003 1.133.102 1.239.137.145.277.137.433-.026m1.458.037.124-.097v-1.147c0-1.12-.003-1.15-.103-1.244-.139-.128-.3-.12-.443.022l-.118.118.014 1.11.015 1.109.132.113c.161.139.22.141.379.016m1.504-.018.125-.115v-1.116c0-1.082-.004-1.12-.103-1.226-.128-.136-.306-.139-.447-.006-.108.101-.109.111-.109 1.243v1.141l.124.097c.162.127.258.123.41-.018m-14.016.584c-.252-.05-.646-.249-.898-.454-.287-.232-.534-.754-.566-1.193-.03-.424.081-.846.319-1.215.201-.31.365-.448.786-.658l.293-.147h2.685l-.139.275c-.296.586-.347.816-.346 1.56 0 .523.019.735.081.911.044.126.089.271.099.322s.082.207.161.346.143.264.143.278c0 .04-2.406.017-2.618-.025m16.069.034c0-.012.064-.143.141-.291s.141-.294.141-.327.031-.12.069-.195c.11-.221.181-.806.15-1.242-.036-.502-.13-.87-.335-1.305l-.161-.341h2.685l.373.194c.428.223.636.439.855.888.136.28.149.345.149.776.001.449-.007.487-.175.832-.204.418-.413.613-.908.848l-.327.154-1.328.016c-.731.009-1.329.005-1.329-.007m-9.806-7.517c-.622-.806-.742-1.069-.558-1.222.059-.049.326-.071 1.07-.088l.993-.024V9.384l-.649-.024c-.738-.026-.737-.025-.738-.409-.002-.559.337-1.072.886-1.343l.31-.152 1.751-.014 1.75-.014.289.146c.388.196.671.466.8.765.116.269.173.814.097.927-.037.055-.192.076-.696.094l-.649.024v1.646l.992.024c.744.017 1.012.039 1.07.088.185.153.063.419-.557 1.221l-.329.425-2.752.001-2.751.001Zm5.83-5.283c-.125-.124-.146-.258-.065-.408.062-.116.454-.37.572-.37.116 0 .318.207.318.326 0 .187-.426.568-.635.568-.041 0-.127-.052-.19-.116m-5.955-.073c-.249-.132-.383-.319-.349-.488.039-.194.111-.264.272-.264.461 0 .82.488.554.753-.116.117-.255.116-.477-.001m4.658-.564c-.042-.024-.102-.106-.133-.181-.048-.116-.041-.167.047-.354.112-.239.288-.405.429-.405.12 0 .321.206.321.329 0 .145-.168.447-.311.56-.135.106-.234.121-.353.051m-3.253-.094c-.138-.108-.285-.453-.261-.612.023-.156.237-.301.388-.263.147.037.35.33.388.56.022.138.006.188-.094.288-.146.146-.261.153-.421.027m5.798-.079c-.114-.041-.188-.164-.188-.313 0-.237.565-.691.857-.689.145.001.21.049.266.194.081.214-.057.404-.509.702-.205.136-.285.156-.426.106m-8.445-.208c-.128-.08-.29-.2-.362-.267-.245-.23-.133-.622.178-.622.115 0 .453.208.669.412.191.18.213.434.048.55-.152.107-.272.091-.533-.073m4.263.064c-.175-.143-.189-.666-.022-.833.094-.094.367-.093.462.001.054.054.074.168.074.421 0 .305-.013.356-.105.42-.137.096-.284.093-.409-.009m2.228-.927c-.146-.146-.145-.251.008-.556.244-.489.475-.616.702-.389.149.149.146.213-.028.561-.242.486-.458.608-.682.384m-4.455.017c-.107-.062-.41-.664-.41-.814 0-.229.29-.377.486-.249.116.076.454.676.454.806 0 .115-.214.309-.339.307-.059-.001-.145-.023-.191-.05m7.706-.069c-.094-.094-.095-.345-.003-.476.104-.15.629-.485.758-.485.254 0 .385.328.223.559-.113.162-.623.476-.774.476-.071 0-.163-.034-.204-.074M6.271 5.083c-.09-.048-.265-.176-.388-.284-.183-.161-.223-.226-.223-.354 0-.177.09-.291.265-.335.091-.023.19.02.436.188.425.291.545.571.333.782-.115.116-.209.116-.423.003m5.544-.798c-.096-.078-.113-.138-.128-.472-.021-.463.021-.777.117-.872.093-.093.366-.091.46.003.06.059.074.189.074.658 0 .522-.01.595-.094.679-.118.118-.286.12-.429.004m6.894-.214c-.134-.134-.142-.213-.044-.402.094-.182.457-.395.608-.357.404.101.322.578-.135.785-.25.114-.291.112-.429-.026M4.758 3.938c-.251-.192-.323-.366-.224-.542.132-.236.489-.181.75.116.166.189.175.289.043.457-.135.171-.316.161-.569-.031m10.047-.102c-.154-.154-.146-.234.061-.642.203-.399.346-.492.568-.368.18.1.192.34.031.657-.234.462-.44.572-.66.353m-5.956-.023c-.139-.109-.414-.609-.414-.752 0-.126.199-.332.32-.332.153 0 .313.166.47.488.181.371.184.423.035.572-.139.139-.256.146-.411.024m6.709-1.341c-.14-.14-.146-.298-.021-.544.165-.322.429-.409.631-.207.105.105.092.27-.043.537-.176.347-.363.418-.567.214m-7.443-.005c-.138-.097-.292-.404-.292-.583 0-.15.14-.331.256-.331.166 0 .298.101.416.318.158.291.16.406.012.554-.133.134-.244.145-.392.042m3.764-.492c-.281-.115-.256-.87.032-.962.131-.041.329.02.382.119.066.123.056.671-.013.762-.076.099-.265.137-.401.081"/></svg>