<svg xmlns="http://www.w3.org/2000/svg" viewBox="0 0 24 24"><path fill="#44739e" d="M9.664 12.046H6.841a2.104 2.104 0 0 1 1.042.523 2.372 2.372 0 0 1 .596 1.378 8.93 8.93 0 0 1-.043 2.541 1.91 1.91 0 0 1-1.574 1.669h2.435a3.9 3.9 0 0 0 1.363-.2 2.895 2.895 0 0 0 1.85-2.901 2.782 2.782 0 0 0-2.846-3.01M6.272 5.944c.158-.053.336-.094.336-.094H4.284a3.057 3.057 0 0 0-2.921 1.587 3.489 3.489 0 0 0 .061 3.217 2.693 2.693 0 0 0 2.545 1.387s2.292.009 2.55.007a1.804 1.804 0 0 1-.88-.347 2.568 2.568 0 0 1-.598-1.473 8.83 8.83 0 0 1 .116-2.955 1.742 1.742 0 0 1 1.115-1.329m10.936 6.098H12.35l5.349 6.069H23ZM12.206 5.85H6.937l5.269 6.035Zm6.261 2.483a5.093 5.093 0 0 1-.276 2.985 1.796 1.796 0 0 1-.677.724c2.232 0 2.663-.03 3.3-.293a2.779 2.779 0 0 0 1.732-2.26 3.208 3.208 0 0 0-1.507-3.272 5.03 5.03 0 0 0-2.181-.367h-4.321a5.8 5.8 0 0 1 2.86.818 2.376 2.376 0 0 1 1.07 1.665M1.179 18.157H6.51l-5.331-5.403Z"/></svg>