<svg xmlns="http://www.w3.org/2000/svg" viewBox="0 0 24 24"><path fill="#44739e" d="m18.649 16.839-2.376 5.397c1.069.461 2.694-1.658 4.013-4.719s1.818-5.666.75-6.125Zm-.3-6.749c-1.109.278-2.022.505-2.027.517s-.835 1.868-1.839 4.131l-1.83 4.13.931 1.964a17.2 17.2 0 0 0 1.066 2.065c.226.186.533.116.793-.182.15-.161 5.413-11.997 5.481-12.311a.689.689 0 0 0-.245-.711.516.516 0 0 0-.24-.111c-.048.004-.985.231-2.09.508M5.832 5.215c0 4.678-.014 4.452.313 4.572l.167.066v1.106l-.24-.036a1.58 1.58 0 0 1-1.181-.984 7.5 7.5 0 0 1-.111-1.751l-.028-1.509-.207.201a6.74 6.74 0 0 0-1.282 2.296c-.774 1.752-.845 1.959-.873 2.524a3.15 3.15 0 0 0 1.459 2.848c.177.106 2.036 1.023 4.121 2.048l3.794 1.853.083-.167c.302-.591 3.592-8.121 3.562-8.132l-4.196-2.049-4.156-2.033-.014-2.534L7.034 1H5.832Zm6.317 4.776c.686.338 1.29.645 1.334.691a.284.284 0 0 1 .082.176c0 .13-.129.288-.235.288-.043 0-.668-.288-1.393-.645-1.412-.688-1.486-.74-1.33-.998a.258.258 0 0 1 .187-.129 12 12 0 0 1 1.355.616Zm-.553 1.377a8.9 8.9 0 0 1 1.34.732.205.205 0 0 1 .014.228c-.106.242-.191.222-1.513-.424-.69-.338-1.306-.645-1.363-.687a.24.24 0 0 1-.111-.211c0-.177.078-.259.24-.259a12.8 12.8 0 0 1 1.393.62Zm-.658 1.329c.716.347 1.336.655 1.369.686.106.086.067.328-.063.419s-.143.071-.874-.288c-2.036-.985-2.079-1.015-2.007-1.252a.407.407 0 0 1 .258-.202s.596.283 1.317.635Z"/></svg>