<svg xmlns="http://www.w3.org/2000/svg" fill="#44739e" viewBox="0 0 24 24"><path d="M6.27 2.289a2.936 2.936 0 0 0-2.159 2.035A37.9 37.9 0 0 0 4.1 9.842c.045 0 .491-.086.992-.188L6 9.467l.023-2.334c.027-2.711.016-2.652.584-2.938L6.8 4.1H12c5.737 0 5.316-.019 5.64.256s.308.2.334 2.776L18 9.467l.91.187c.5.1.947.187.992.188a37.9 37.9 0 0 0-.01-5.518 2.927 2.927 0 0 0-2.177-2.037c-.551-.132-10.9-.13-11.442 0m2.515 4.2c-.079.318-.289 1.156-.466 1.862L8 9.637l-.507.475-.507.474-2.486.465-2.485.466v3.754A31.9 31.9 0 0 0 2.071 19l2.415-.9c1.3-.487 2.4-.893 2.45-.9.069-.014.22.1.577.438l.487.45.322 1.283c.177.705.387 1.543.466 1.861l.145.579h6.14l.145-.579c.079-.318.289-1.156.466-1.861L16 18.088l.484-.455c.357-.337.508-.452.577-.438.051.009 1.154.415 2.45.9l2.418.905a31.9 31.9 0 0 0 .058-3.732v-3.751l-2.487-.466-2.485-.465-.507-.474L16 9.637l-.322-1.283c-.177-.706-.387-1.544-.466-1.862l-.145-.579H8.93l-.145.579m4.2 5.182c2.541.608 3.471 3.2 1.83 5.091-2.094 2.419-6.41 1.1-6.428-1.964-.012-2.149 2.253-3.689 4.6-3.127"/></svg>