<svg xmlns="http://www.w3.org/2000/svg" fill="#44739e" viewBox="0 0 24 24"><path d="M19.9505 11.437h-.072a3.468 3.468 0 0 0-2.657 2.915c-.1 1.058.212 1.515 1.093 1.629a2.465 2.465 0 0 0 1.7-.764 3.262 3.262 0 0 0 1.125-1.874 1.812 1.812 0 0 0-.364-1.548 1.115 1.115 0 0 0-.825-.358m.251.207h.013a.207.207 0 0 1 .153.067.332.332 0 0 1 .068.286.6.6 0 0 1-.209.346.452.452 0 0 1-.314.141c-.163-.021-.219-.105-.2-.3a.638.638 0 0 1 .489-.541zm-.885.114h.013a.207.207 0 0 1 .153.067.332.332 0 0 1 .068.286.6.6 0 0 1-.209.346.452.452 0 0 1-.314.141c-.163-.021-.22-.106-.2-.3a.642.642 0 0 1 .489-.54m-.259 1.051h.014a.212.212 0 0 1 .153.067.332.332 0 0 1 .067.286.6.6 0 0 1-.208.346.454.454 0 0 1-.315.141c-.162-.021-.219-.105-.2-.3a.638.638 0 0 1 .489-.54m-.885.115h.013a.21.21 0 0 1 .154.067.335.335 0 0 1 .067.286.6.6 0 0 1-.208.346.458.458 0 0 1-.315.141c-.163-.021-.219-.105-.2-.3a.642.642 0 0 1 .489-.54m-.55 1.921c-.163-.021-.22-.1-.2-.3a.638.638 0 0 1 .491-.538h.016a.207.207 0 0 1 .153.067.332.332 0 0 1 .068.286.6.6 0 0 1-.209.346.453.453 0 0 1-.319.137zm.942.768a.456.456 0 0 1-.314.141c-.163-.021-.22-.1-.2-.3a.641.641 0 0 1 .49-.538h.014a.2.2 0 0 1 .153.066.334.334 0 0 1 .068.287.6.6 0 0 1-.211.344m-.057-.883c-.163-.021-.22-.105-.2-.3a.639.639 0 0 1 .491-.538h.013a.207.207 0 0 1 .153.067.334.334 0 0 1 .068.287.607.607 0 0 1-.209.345.454.454 0 0 1-.316.139m.942.768a.46.46 0 0 1-.314.142c-.163-.022-.22-.106-.2-.3a.642.642 0 0 1 .494-.542h.01a.2.2 0 0 1 .153.067.332.332 0 0 1 .068.286.6.6 0 0 1-.211.347m.28-1.064a.452.452 0 0 1-.314.141c-.163-.021-.22-.106-.2-.3a.638.638 0 0 1 .491-.538h.013a.207.207 0 0 1 .153.067.332.332 0 0 1 .068.286.6.6 0 0 1-.211.344m.26-1.082a.454.454 0 0 1-.315.141c-.162-.021-.219-.106-.2-.3a.643.643 0 0 1 .491-.539h.014a.207.207 0 0 1 .153.067.335.335 0 0 1 .067.286.6.6 0 0 1-.21.345m.623.967a.452.452 0 0 1-.314.141c-.163-.021-.22-.1-.2-.3a.638.638 0 0 1 .491-.538h.013a.207.207 0 0 1 .153.067.332.332 0 0 1 .068.286.6.6 0 0 1-.211.344m.25-1.781a.212.212 0 0 1 .153.067.332.332 0 0 1 .068.286.6.6 0 0 1-.209.346.456.456 0 0 1-.314.141c-.163-.021-.22-.105-.2-.3a.639.639 0 0 1 .49-.538zm-7.2089-1.1244h-.072a3.468 3.468 0 0 0-2.657 2.915c-.095 1.058.211 1.515 1.093 1.629a2.47 2.47 0 0 0 1.7-.764 3.262 3.262 0 0 0 1.126-1.874 1.815 1.815 0 0 0-.366-1.549 1.12 1.12 0 0 0-.824-.357m.251.207h.013a.207.207 0 0 1 .153.067.332.332 0 0 1 .068.286.6.6 0 0 1-.209.346.456.456 0 0 1-.314.141c-.163-.021-.22-.105-.2-.3a.638.638 0 0 1 .489-.541zm-.886.114h.015a.208.208 0 0 1 .153.067.332.332 0 0 1 .068.286.6.6 0 0 1-.209.346.456.456 0 0 1-.314.141c-.163-.021-.22-.106-.2-.3a.641.641 0 0 1 .487-.54m-.258 1.051h.013a.21.21 0 0 1 .154.067.338.338 0 0 1 .067.286.6.6 0 0 1-.208.346.454.454 0 0 1-.315.141c-.163-.021-.219-.105-.2-.3a.642.642 0 0 1 .489-.54m-.885.115h.013a.207.207 0 0 1 .153.067.332.332 0 0 1 .068.286.6.6 0 0 1-.209.346.452.452 0 0 1-.314.141c-.163-.021-.22-.105-.2-.3a.638.638 0 0 1 .489-.54m-.551 1.919c-.163-.021-.219-.1-.2-.3a.642.642 0 0 1 .491-.538h.014a.212.212 0 0 1 .153.067.335.335 0 0 1 .067.286.6.6 0 0 1-.208.346.457.457 0 0 1-.317.139m.943.768a.452.452 0 0 1-.315.141c-.162-.021-.219-.1-.2-.3a.642.642 0 0 1 .491-.538h.014a.21.21 0 0 1 .153.066.337.337 0 0 1 .067.287.6.6 0 0 1-.21.346zm-.058-.883c-.162-.021-.219-.105-.2-.3a.639.639 0 0 1 .49-.538h.014a.21.21 0 0 1 .153.067.334.334 0 0 1 .068.287.607.607 0 0 1-.209.345.454.454 0 0 1-.316.141zm.943.768a.46.46 0 0 1-.314.142c-.163-.022-.22-.106-.2-.3a.642.642 0 0 1 .49-.539h.015a.207.207 0 0 1 .153.067.332.332 0 0 1 .068.286.6.6 0 0 1-.212.346zm.281-1.064a.454.454 0 0 1-.315.141c-.162-.021-.219-.106-.2-.3a.639.639 0 0 1 .49-.538h.014a.207.207 0 0 1 .153.067.335.335 0 0 1 .067.286.6.6 0 0 1-.209.346zm.258-1.082a.452.452 0 0 1-.314.141c-.163-.021-.219-.106-.2-.3a.642.642 0 0 1 .491-.539h.013a.2.2 0 0 1 .153.067.332.332 0 0 1 .068.286.6.6 0 0 1-.211.347zm.624.967a.456.456 0 0 1-.314.141c-.163-.021-.22-.1-.2-.3a.638.638 0 0 1 .491-.538h.013a.207.207 0 0 1 .153.067.332.332 0 0 1 .068.286.6.6 0 0 1-.211.346zm.249-1.781a.21.21 0 0 1 .154.067.335.335 0 0 1 .067.286.6.6 0 0 1-.208.346.452.452 0 0 1-.315.141c-.163-.021-.219-.105-.2-.3a.642.642 0 0 1 .491-.538zm6.725-1.5274a2.6 2.6 0 0 1-.043-.328c.094-.216.209-.359.014-.5a.34.34 0 0 0-.106-.01h-.066v-.036a12.3 12.3 0 0 1-.15-1.743c-.01-.254-.019-.516-.038-.782l-.116-.435-.008-.02a.733.733 0 0 0-.467-.4l-3.012-.293a2.48 2.48 0 0 0-.881.019c-.538.178-.655.449-.81 1.071 0 .03-.4 2.928-.446 3.372-.007.068-.017.163-.026.27l-.133-.181a2.4 2.4 0 0 1-.044-.328c.016-.036.031-.068.047-.1a2 2 0 0 0 .062.285c.019-.16.063-.494.115-.89.006-.167.009-.322.009-.431a5.1 5.1 0 0 0-.036-.72 4.8 4.8 0 0 1-.072-.684c0-.109.1-.079.347-.027.036-.264.062-.463.073-.543l-.276-.016a.141.141 0 0 0-.116.05c-.236.276-.222.307-.467.613-.008-.2-.015-.4-.029-.611l-.129-.436-.009-.014a.731.731 0 0 0-.467-.4h-.003l-3.012-.293a2.51 2.51 0 0 0-.881.019c-.538.178-.655.449-.809 1.071 0 .03-.395 2.928-.445 3.372-.008.07-.018.167-.027.276-.052-.072-.106-.144-.162-.219a2.6 2.6 0 0 1-.043-.328c.022-.051.044-.1.064-.139a2.5 2.5 0 0 0 .073.355c.02-.16.063-.494.115-.89.006-.167.01-.322.009-.431a5.1 5.1 0 0 0-.036-.72 4.9 4.9 0 0 1-.076-.684c0-.109.1-.079.348-.027.035-.264.062-.463.073-.543l-.277-.016a.141.141 0 0 0-.116.05c-.239.279-.219.306-.474.622a.11.11 0 0 0-.017.053c-.008-.231-.017-.466-.033-.7l-.118-.43-.007-.014a.736.736 0 0 0-.467-.4l-3.022-.319a2.56 2.56 0 0 0-.881.018c-.538.176-.655.45-.809 1.076 0 .029-.395 2.927-.446 3.372a6.55 6.55 0 0 0-.043 1.066.15.15 0 0 1-.011.062c-.019.048-.038.088-.056.127a1.8 1.8 0 0 0-.108.282 2.37 2.37 0 0 0-.084.749 4.03 4.03 0 0 0 .177.847.4.4 0 0 0 .041.088.22.22 0 0 1 .045-.042.276.276 0 0 1 .167-.05.84.84 0 0 1 .506.233.021.021 0 0 0 .02.005.02.02 0 0 0 .014-.014 2.4 2.4 0 0 0 .077-.3 2.66 2.66 0 0 0-.042-1.239c-.034-.144-.064-.268-.09-.377a3.74 3.74 0 0 1-.176-1.169v-.014a5.33 5.33 0 0 1 .125-1.014c.1-.555.15-.92.193-1.213a10.8 10.8 0 0 1 .211-1.14 1.7 1.7 0 0 0 .036-.249 1.282 1.282 0 0 1 .259-.758l.024-.031a.5.5 0 0 1 .256-.2 2.37 2.37 0 0 1 .761 0l2.2.216a.17.17 0 0 1 .049.013.865.865 0 0 1 .5.678l.006.034.29 1.7h-.128a1.18 1.18 0 0 0-.274.072 1.05 1.05 0 0 1-.269.01.155.155 0 0 1-.05-.055 4.7 4.7 0 0 0-.511-1.2 1.14 1.14 0 0 0-.38-.314.13.13 0 0 0-.066-.018l-1.323-.035a.137.137 0 0 0-.118.058.68.68 0 0 1-.166.163 1.6 1.6 0 0 0-.165.115.6.6 0 0 1-.072.058c-.089.049-.22.043-.238 0-.024-.06.183-.14.18-.288v-.013a.139.139 0 0 0-.131-.121l-.54-.032a1.6 1.6 0 0 1-.034.217c-.034.141-.061.264-.085.379l2.115.042a.6.6 0 0 1 .511.245 2.07 2.07 0 0 1 .308.451.2.2 0 0 0 .024.032c.128.132.2.178.252.309a.58.58 0 0 1 .036.142.193.193 0 0 0-.087.121c-.008.04.007.073-.021.115s-.086.041-.137.079a.287.287 0 0 0-.086.225.52.52 0 0 0 .014.124c.027.113.087.154.065.191-.04.066-.24-.03-.288.036s.114.2.136.382v.023a1.05 1.05 0 0 1-.13.349.9.9 0 0 1-.243.221 4.39 4.39 0 0 0-1 .879 6.34 6.34 0 0 0-.826 1.244 4.7 4.7 0 0 0-.3.722 1.92 1.92 0 0 0-.043.812v-.072a2.1 2.1 0 0 0 .053.247 1.7 1.7 0 0 0 .057.185v-.007a3.1 3.1 0 0 0 .2.46 2.41 2.41 0 0 0 .5.684c.02.014.107.088.194.145a.7.7 0 0 0 .086.051c.089.042.015.244.015.244a.6.6 0 0 0 .13.158l.972-.266a.207.207 0 0 1 .014-.116.269.269 0 0 1 .346-.086c.035.025.037.051.058.079 0 0 .889-.223.893-.194.008.074.04-.039.065-.173 0-.013-.261.054.057-.252.155-.15.4-.353.432-.382a5.95 5.95 0 0 0 1.084-1.4l.154.271a.4.4 0 0 0 .036.032c.041.033.462.478.546.567l.012.013v.018a.38.38 0 0 1 0 .117v.016c.164.172.453.447.734.71a1.984 1.984 0 0 1-.391-1.7 4.845 4.845 0 0 1 1.928-2.837 4.8 4.8 0 0 0 .41-.343.743.743 0 0 0 .165-.555.15.15 0 0 0-.019-.038l-.021-.03a.9.9 0 0 0-.058-.077l-.012-.01h.008v-.116a1.3 1.3 0 0 0 .17-.007 1.1 1.1 0 0 0 .126-.017c-.018-.015-.041-.034-.068-.059a.075.075 0 0 1-.028-.1.06.06 0 0 0 .007-.023c-.166-.071-.346-.141-.442-.17a.22.22 0 0 0-.057-.017h-.037c-.074 0-.145 0-.213.006l-.1.008h-.047c-.058.007-.114.014-.169.023l-.044.007-.145.026-.062.012c-.055.011-.112.025-.171.043l-.1.033-.036.013a1.4 1.4 0 0 0-.145.059l-.033.015-.072.034a3 3 0 0 0-.194.105 3.48 3.48 0 0 0-.936.81l-.283.454c0 .057.012.113.021.172l.8.705-.033.065-.757-.69c.019.1.046.218.081.368l.555.511-.037.069-.495-.465.02.085.078.327.313.259-.04.113-.239-.219a2.664 2.664 0 0 1 .023 1.172 2.7 2.7 0 0 1-.079.309.088.088 0 0 1-.062.059h-.022a.09.09 0 0 1-.058-.022.81.81 0 0 0-.424-.206l.026-.06a.89.89 0 0 1 .442.216.021.021 0 0 0 .02.005.021.021 0 0 0 .015-.014 2.9 2.9 0 0 0 .077-.3 2.68 2.68 0 0 0-.043-1.24c-.034-.144-.064-.268-.09-.377a3.78 3.78 0 0 1-.173-1.171v-.012a5.33 5.33 0 0 1 .125-1.014c.1-.555.15-.92.193-1.213a10.7 10.7 0 0 1 .212-1.14 2.1 2.1 0 0 0 .036-.248 1.272 1.272 0 0 1 .259-.759c.007-.008.014-.018.024-.031a.5.5 0 0 1 .255-.2 2.37 2.37 0 0 1 .761 0l2.2.216a.14.14 0 0 1 .049.014.868.868 0 0 1 .5.677l.006.034.291 1.7h-.13a1.1 1.1 0 0 0-.274.072 1.1 1.1 0 0 1-.269.009.155.155 0 0 1-.05-.055 4.64 4.64 0 0 0-.507-1.204 1.14 1.14 0 0 0-.381-.317.15.15 0 0 0-.065-.018l-1.327-.03a.145.145 0 0 0-.118.058.64.64 0 0 1-.166.163 1.9 1.9 0 0 0-.165.115.6.6 0 0 1-.072.058c-.089.05-.22.044-.238 0s.183-.14.18-.288v-.011a.138.138 0 0 0-.131-.121l-.539-.032a1.6 1.6 0 0 1-.033.217c-.035.141-.062.264-.086.379l2.115.045a.6.6 0 0 1 .511.245 2.13 2.13 0 0 1 .309.451.14.14 0 0 0 .023.032c.128.132.2.178.252.309a.58.58 0 0 1 .036.142.2.2 0 0 0-.085.113c-.008.04.007.074-.021.115s-.086.041-.137.079a.289.289 0 0 0-.086.226.57.57 0 0 0 .014.124c.027.112.087.153.065.19-.039.067-.239-.03-.288.037s.115.2.137.381v.021a1.07 1.07 0 0 1-.129.349.89.89 0 0 1-.24.226 4.4 4.4 0 0 0-1 .88 6.3 6.3 0 0 0-.826 1.244 4.7 4.7 0 0 0-.3.721 1.94 1.94 0 0 0-.044.813v-.073a2.1 2.1 0 0 0 .053.247 1.7 1.7 0 0 0 .058.19 3.24 3.24 0 0 0 .193.444 2.46 2.46 0 0 0 .5.684c.02.014.107.087.194.145a.8.8 0 0 0 .087.05c.089.043.014.244.014.244a.6.6 0 0 0 .13.158l.972-.266c.006-.041-.008-.071.015-.115a.267.267 0 0 1 .345-.087c.035.025.038.052.058.079 0 0 .89-.223.893-.194.008.074.04-.038.065-.173 0-.012-.261.054.057-.252.156-.149.4-.353.432-.382a5.96 5.96 0 0 0 1.08-1.379l.13.23.036.032c.042.033.463.478.547.567l.012.013v.018a.38.38 0 0 1 0 .117v.016c.165.172.454.447.735.71a1.984 1.984 0 0 1-.391-1.7 4.84 4.84 0 0 1 1.927-2.837 5 5 0 0 0 .411-.343.747.747 0 0 0 .165-.555.17.17 0 0 0-.02-.038l-.02-.03a.9.9 0 0 0-.058-.077l-.012-.01h.008v-.116a1.3 1.3 0 0 0 .169-.007 1.1 1.1 0 0 0 .127-.017 1.2 1.2 0 0 1-.068-.059.075.075 0 0 1-.028-.1.08.08 0 0 0 .009-.029c-.167-.071-.346-.141-.442-.17a.3.3 0 0 0-.058-.015h-.037c-.074 0-.145 0-.214.006l-.1.008h-.047c-.059.007-.115.014-.169.023l-.044.007-.146.026-.061.012c-.055.011-.112.025-.172.043l-.1.033-.036.013c-.047.017-.1.037-.144.059l-.033.015-.072.034a3 3 0 0 0-.194.105 3.48 3.48 0 0 0-.937.81l-.284.453a1.03 1.03 0 0 0 .021.172l.8.705-.033.065-.753-.688c.019.1.045.218.081.368l.554.511-.038.067-.5-.465.021.085c.023.1.048.205.077.327l.314.259-.041.113-.238-.222a2.69 2.69 0 0 1 .025 1.17 2.7 2.7 0 0 1-.079.309.09.09 0 0 1-.062.059h-.022a.08.08 0 0 1-.058-.022.82.82 0 0 0-.385-.2c.009-.019.017-.04.026-.059a.9.9 0 0 1 .4.205.023.023 0 0 0 .021 0 .02.02 0 0 0 .014-.014 2.4 2.4 0 0 0 .077-.3 2.666 2.666 0 0 0-.042-1.24c-.034-.144-.064-.268-.09-.377a3.78 3.78 0 0 1-.174-1.171v-.008a5.33 5.33 0 0 1 .125-1.014c.1-.555.149-.92.193-1.213a10.7 10.7 0 0 1 .211-1.14 1.74 1.74 0 0 0 .036-.248 1.285 1.285 0 0 1 .259-.759.23.23 0 0 0 .024-.031.5.5 0 0 1 .256-.2 2.37 2.37 0 0 1 .761 0l2.2.216a.14.14 0 0 1 .049.014.864.864 0 0 1 .5.677l.006.034.292 1.7h-.128a1.1 1.1 0 0 0-.274.072 1.1 1.1 0 0 1-.269.009.155.155 0 0 1-.05-.055 4.7 4.7 0 0 0-.511-1.2 1.14 1.14 0 0 0-.379-.311.15.15 0 0 0-.066-.018l-1.325-.03a.14.14 0 0 0-.118.058.64.64 0 0 1-.166.163c-.057.036-.113.074-.166.115a.45.45 0 0 1-.076.061c-.088.05-.219.044-.237 0s.183-.14.18-.288v-.014a.139.139 0 0 0-.132-.121l-.538-.032a1.44 1.44 0 0 1-.034.217c-.034.141-.062.264-.085.379l2.115.045a.6.6 0 0 1 .511.245 2.07 2.07 0 0 1 .308.451.14.14 0 0 0 .023.032c.129.132.2.178.253.309a.58.58 0 0 1 .036.142.193.193 0 0 0-.085.113c-.008.04.006.074-.021.115s-.086.041-.137.079a.286.286 0 0 0-.086.226.57.57 0 0 0 .014.124c.027.112.087.153.065.19-.04.067-.24-.03-.289.037s.115.2.137.381v.021a1.05 1.05 0 0 1-.13.349.89.89 0 0 1-.239.226 4.35 4.35 0 0 0-1 .88 6.3 6.3 0 0 0-.826 1.244 4.7 4.7 0 0 0-.3.721 1.92 1.92 0 0 0-.043.813v-.073a2.4 2.4 0 0 0 .052.248 1.7 1.7 0 0 0 .056.181 3.2 3.2 0 0 0 .2.452 2.41 2.41 0 0 0 .5.684c.02.014.107.087.194.145a.7.7 0 0 0 .086.05c.089.043.015.244.015.244a.6.6 0 0 0 .129.158l.973-.266c.005-.041-.009-.071.014-.115a.268.268 0 0 1 .346-.087c.035.025.037.052.057.079 0 0 .89-.223.894-.194.008.074.04-.038.064-.173 0-.012-.26.054.058-.252.155-.149.4-.353.432-.382a4.746 4.746 0 0 0 1.376-2.167 2.564 2.564 0 0 0-.593-2.476m-12.652-.858a.38.38 0 0 0-.106-.009h-.068a.2.2 0 0 0 0-.036 11.8 11.8 0 0 1-.147-1.686 6.74 6.74 0 0 1 .321 1.731m-.809-.858.062-.031.012.066-.067.006c-.028 0-.048 0-.05-.007s.016-.02.043-.034m.024.167.024-.015.01-.006v.007a.032.032 0 0 0 .024-.026 2.2 2.2 0 0 0 .066.31c.007.029.012.053.018.074l-.082-.056c-.11-.076-.2-.145-.2-.145-.005-.045.064-.098.14-.143m.835 3.85a3.4 3.4 0 0 1-1.173 1.954 2.8 2.8 0 0 1-1.674.8 1.2 1.2 0 0 1-.133-.008 1.313 1.313 0 0 1-1.031-.553 1.964 1.964 0 0 1-.183-1.222 3.494 3.494 0 0 1 1.052-2.1 2.97 2.97 0 0 1 1.73-.938 1.268 1.268 0 0 1 1.007.4 1.943 1.943 0 0 1 .405 1.667m3.393-3.4h.072l.389.315h-.1l-.374-.313zm-.393.027.07-.008h.009l.727.589-.069.02-.738-.6zm-.3.073.775.628-.074.037-.777-.652zm-.413.1.042-.016.024-.01.818.706-.077.043-.818-.719zm-.209.1.843.728-.068.05-.841-.738zm-.255.169.843.728-.068.05-.841-.738zm-.243.173.857.74-.063.055-.845-.743zm-.194.189.845.729-.053.064-.843-.74zm-.193.216.844.743-.04.06-.853-.749zm-.2.224.841.739-.04.061-.843-.74zm-.214.295.042-.059.841.739-.04.06zm5.473-1.3a.5.5 0 0 0-.084-.008h-.066a.2.2 0 0 0 0-.036 11.7 11.7 0 0 1-.143-1.639 8.07 8.07 0 0 1 .293 1.686zm-.784-.854.063-.03.011.065-.067.006c-.028 0-.048 0-.05-.006s.016-.018.043-.032zm.024.167.021-.013.01-.006v.01a.032.032 0 0 0 .029-.025 2.7 2.7 0 0 0 .06.31c.007.028.012.052.018.073-.028-.019-.056-.037-.082-.056-.109-.076-.2-.144-.2-.144-.001-.048.068-.1.141-.146zm.836 3.85a3.4 3.4 0 0 1-1.173 1.954 2.8 2.8 0 0 1-1.675.8 1 1 0 0 1-.133-.008 1.317 1.317 0 0 1-1.026-.551 1.954 1.954 0 0 1-.182-1.214 3.477 3.477 0 0 1 1.05-2.1 2.965 2.965 0 0 1 1.73-.939 1.268 1.268 0 0 1 1.007.4 1.945 1.945 0 0 1 .402 1.661zm3.361-3.431h.072l.389.315h-.1l-.375-.313zm-.394.027.071-.008.728.589-.069.02-.738-.6zm-.3.073.775.628-.074.037-.777-.653zm-.413.1.042-.016.024-.01.817.706-.076.043-.818-.719zm-.21.1.843.728-.068.05-.84-.738zm-.255.169.843.728-.068.05-.84-.738zm-.243.173.858.74-.063.055-.846-.743zm-.193.189.844.729-.053.064-.842-.74zm-.193.216.843.743-.04.06-.852-.749zm-.2.224.84.739-.04.061-.843-.74zm-.21.3.042-.059.841.739-.04.06zm4.688-2.15.062-.03.011.065-.066.006c-.028 0-.048 0-.05-.006s.017-.025.044-.039zm.023.167.022-.013.01-.006v.003a.032.032 0 0 0 .029-.025 2.7 2.7 0 0 0 .061.31c.006.028.012.052.017.073-.027-.019-.055-.037-.081-.056-.11-.076-.2-.144-.2-.144-.001-.048.068-.1.142-.146zm.836 3.85a3.4 3.4 0 0 1-1.173 1.954 2.8 2.8 0 0 1-1.674.8 1 1 0 0 1-.133-.008 1.313 1.313 0 0 1-1.026-.551 1.946 1.946 0 0 1-.183-1.221 3.483 3.483 0 0 1 1.053-2.1 2.965 2.965 0 0 1 1.73-.939 1.268 1.268 0 0 1 1.007.4 1.941 1.941 0 0 1 .4 1.661zM2.569 9.9416c.006-.167.009-.321.009-.43a5.25 5.25 0 0 0-.036-.72 4.8 4.8 0 0 1-.072-.684c0-.109.1-.079.347-.028l.073-.542-.276-.018a.144.144 0 0 0-.116.05c-.239.28-.219.306-.475.623a.174.174 0 0 0-.014.18 19.35 19.35 0 0 1 .445 2.459c.02-.157.063-.493.115-.89m1.1606 4.2502a4.846 4.846 0 0 1 1.927-2.838 4.6 4.6 0 0 0 .411-.343.746.746 0 0 0 .165-.554.17.17 0 0 0-.02-.037l-.02-.03a.7.7 0 0 0-.058-.077l-.012-.01h.008v-.116a1.3 1.3 0 0 0 .17-.007 1.1 1.1 0 0 0 .126-.017c-.018-.015-.041-.034-.068-.059a.075.075 0 0 1-.028-.1.06.06 0 0 0 .007-.023c-.166-.071-.346-.142-.442-.171a.4.4 0 0 0-.061-.014h-.03c-.074 0-.145 0-.214.006l-.1.007-.047.005a3 3 0 0 0-.169.023l-.044.007-.146.026-.061.012c-.055.011-.112.025-.172.043l-.1.032-.036.013a2 2 0 0 0-.145.059l-.033.016-.072.034c-.064.031-.129.066-.194.1a3.48 3.48 0 0 0-.936.81l-.29.453a1.15 1.15 0 0 0 .021.173l.8.705-.033.064-.757-.686c.019.1.045.218.081.369l.554.511-.033.064-.5-.464.021.085c.023.1.049.2.077.327l.314.258-.04.114-.239-.222a2.67 2.67 0 0 1 .021 1.169 2.7 2.7 0 0 1-.079.309.085.085 0 0 1-.062.058h-.022a.09.09 0 0 1-.058-.022.782.782 0 0 0-.463-.217.17.17 0 0 0-.045 0l.022.09.163.29.036.032c.042.033.463.478.547.567l.012.013v.018a.38.38 0 0 1 0 .117v.016c.165.172.454.447.735.71a1.986 1.986 0 0 1-.389-1.698m2.024-4.358h.072l.389.315h-.1l-.374-.314zm-.394.028.071-.009.728.589-.069.02-.738-.6zm-.3.072.775.628-.074.037-.778-.651zm-.413.1.042-.017.024-.009.817.706-.076.043-.818-.719zm-.21.1.843.728-.068.05-.84-.738zm-.255.169.844.728-.069.05-.84-.738zm-.243.172.858.74-.063.056-.845-.743zm-.193.19.845.729-.054.063-.845-.729zm-.193.216.843.743-.04.06-.852-.749zm-.2.224.84.739-.04.06-.842-.74zm-.213.288.042-.06.841.74-.04.06zm4.1977-.0122h-.072a3.467 3.467 0 0 0-2.657 2.915c-.1 1.058.211 1.515 1.093 1.629a2.465 2.465 0 0 0 1.7-.764 3.262 3.262 0 0 0 1.129-1.871 1.817 1.817 0 0 0-.366-1.55 1.118 1.118 0 0 0-.827-.359m.251.207h.013a.2.2 0 0 1 .153.067.332.332 0 0 1 .068.286.607.607 0 0 1-.209.346.452.452 0 0 1-.314.141c-.163-.021-.22-.106-.2-.3a.642.642 0 0 1 .489-.54m-.886.115h.014a.2.2 0 0 1 .153.067.332.332 0 0 1 .068.286.607.607 0 0 1-.209.346.462.462 0 0 1-.314.141c-.163-.021-.22-.106-.2-.3a.642.642 0 0 1 .488-.54m-.259 1.051h.01a.21.21 0 0 1 .154.067.335.335 0 0 1 .067.286.6.6 0 0 1-.208.346.458.458 0 0 1-.315.141c-.163-.021-.219-.105-.2-.3a.642.642 0 0 1 .492-.54m-.884.114h.012a.2.2 0 0 1 .153.067.332.332 0 0 1 .068.286.6.6 0 0 1-.209.346.452.452 0 0 1-.314.141c-.163-.021-.219-.106-.2-.3a.642.642 0 0 1 .49-.54m-.551 1.922c-.162-.021-.219-.106-.2-.3a.642.642 0 0 1 .49-.539h.014a.208.208 0 0 1 .153.067.335.335 0 0 1 .067.286.6.6 0 0 1-.208.346.453.453 0 0 1-.316.14m.945.768a.452.452 0 0 1-.315.141c-.162-.021-.219-.1-.2-.3a.639.639 0 0 1 .49-.538h.015a.21.21 0 0 1 .153.067.335.335 0 0 1 .067.286.6.6 0 0 1-.21.344m-.057-.883c-.163-.021-.22-.105-.2-.3a.639.639 0 0 1 .49-.538h.014a.207.207 0 0 1 .153.067.332.332 0 0 1 .068.286.6.6 0 0 1-.209.346.454.454 0 0 1-.318.139zm.942.768a.456.456 0 0 1-.314.141c-.163-.021-.22-.105-.2-.3a.638.638 0 0 1 .491-.538h.013a.207.207 0 0 1 .153.067.332.332 0 0 1 .068.286.6.6 0 0 1-.213.344zm.278-1.068a.462.462 0 0 1-.314.141c-.163-.021-.22-.106-.2-.3a.641.641 0 0 1 .49-.539h.014a.207.207 0 0 1 .153.067.332.332 0 0 1 .068.286.607.607 0 0 1-.213.345zm.262-1.078a.465.465 0 0 1-.315.141c-.163-.021-.219-.106-.2-.3a.642.642 0 0 1 .491-.539h.009a.21.21 0 0 1 .154.067.338.338 0 0 1 .067.286.607.607 0 0 1-.208.345zm.623.967a.452.452 0 0 1-.314.141c-.163-.021-.22-.106-.2-.3a.642.642 0 0 1 .491-.539h.013a.207.207 0 0 1 .153.067.332.332 0 0 1 .068.286.6.6 0 0 1-.213.345zm.25-1.785a.207.207 0 0 1 .153.067.335.335 0 0 1 .067.286.6.6 0 0 1-.208.346.453.453 0 0 1-.318.145c-.162-.021-.219-.106-.2-.3a.643.643 0 0 1 .491-.539z"/></svg>