<svg xmlns="http://www.w3.org/2000/svg" viewBox="0 0 24 24"><path fill="#44739e" d="M9.105 1.478 9.138 1h-.824v.828l-.263-.042a42 42 0 0 1-.666-.112 3.82 3.82 0 0 0-1.01 0c-.904.107-.89.077-.89 1.893V5.06l-.434.271c-1.904 1.179-3.323 3.5-2.838 4.636.108.256 4.821 4.722 4.966 4.707.023 0 .514-.683 1.091-1.513.955-1.371 1.101-1.543 1.596-1.884.665-.458.572-.462 1.275.053l.586.428.34-.175a7 7 0 0 0 1.116-.945l.773-.77-1.081-1.009-1.083-1.01-.024-2.599-.022-2.6-.207-.169a3.225 3.225 0 0 0-1.336-.347l-1.127-.178.032-.478M6.719 3.389a4.32 4.32 0 0 1 .103-1.224 3.27 3.27 0 0 1 1.492.348c0 .239.466.31.683.106.12-.109.196-.112.752-.02.852.14.826.064.827 2.326v1.847L9.425 5.713C8.118 4.519 7.855 4.38 7.087 4.527l-.394.076.022-1.209m1.056 2.04c.076-.217.369 0 2.196 1.658 2.007 1.814 2.079 1.891 1.862 1.968a38.34 38.34 0 0 1-4.061-3.626m-1.065.239c-.018-.289.277-.067 2.138 1.608 1.751 1.575 2.236 2.103 1.863 2.03a47.2 47.2 0 0 1-4.001-3.635m-1.706.956c0-.173.153-.188.32-.031a.566.566 0 0 1 .165.358v.203l-.239-.217a.776.776 0 0 1-.239-.312m3.191 1.684c-1.39-1.266-1.516-1.402-1.489-1.61.017-.119.048-.192.071-.149s.73.706 1.574 1.474c1.433 1.297 1.751 1.661 1.48 1.661a17 17 0 0 1-1.636-1.376m-3.93-1.17c0-.214.314-.072.75.34.352.334.462.491.462.661 0 .216-.018.205-.605-.341a3.27 3.27 0 0 1-.607-.66m-.551.717c-.051-.262.2-.12.977.569.655.577.79.735.789.919 0 .245-1.709-1.195-1.766-1.488M7.775 9.25C6.901 8.445 6.68 8.202 6.7 8.056a8.95 8.95 0 0 1 2.419 2.102c0 .268-.207.12-1.333-.911m-4.568-.582c0-.268.359-.035 1.282.828.78.731.99.971.969 1.106a8.95 8.95 0 0 1-2.251-1.934m16.53.315a9.41 9.41 0 0 0-3.787.162l-1.28.281s-1.852 1.866-1.628 1.84c.081-.01 3.329.109 3.329.109l1.638-.801c1.601-.781 4.615-1.443 3.607-1.475-.323-.009-1.169-.062-1.879-.119m-12.474.997c-.478-.459-.588-.597-.567-.764.026-.189.084-.15.914.63.663.624.863.854.795.919-.12.119-.38-.062-1.142-.785m-2.471 1.511C3.03 9.87 2.807 9.641 2.922 9.553s.284.039 1.365 1.022c.68.619 1.572 1.433 1.983 1.798.68.612.913.955.646.946-.054 0-1.005-.827-2.113-1.834m2.348-.42c-.359-.334-.463-.486-.442-.624.031-.217 1.122.694 1.119.935s-.197.144-.677-.311m3.933.443c-.956-.674-.944-.681-4.082 3.751-1.372 1.939-2.478 3.542-2.455 3.563a4.1 4.1 0 0 0 .737-.564 8.24 8.24 0 0 1 1.926-1.227l1.231-.628.535-.766c.294-.42 1.009-1.433 1.588-2.257l1.054-1.493Zm-4.592.227c-.625-.589-.636-.605-.4-.605.277 0 1.395.974 1.294 1.127s-.259.075-.894-.522m8.669-.247c-.145-.017-.281-.036-.304-.043a1.09 1.09 0 0 0-.04.422c0 1.448-1.692 3.413-3.597 4.181-.85.342-1.94.184-1.94-.279 0-.172-.119-.11-.303.164l-.183.264.263.225c.897.763 2.713.311 4.306-1.075 1.518-1.314 2.655-3.759 1.798-3.858m2.961.868c-.706-.038-1.455-.074-1.663-.08l-.381-.018-1.536 2.061-1.534 2.063.944.887a13.45 13.45 0 0 0 3.361 2.239c1.944-2.33 4.659-5.838 4.568-5.896-.062-.04-.645-.323-1.294-.63l-1.181-.559-1.284-.069m-5.734 4.581c-.022-.035-3.642.188-3.642.188l-.575 3.298L8.97 23l5.391-.8s-1.951-5.231-1.973-5.264"/></svg>