<svg xmlns="http://www.w3.org/2000/svg" fill="#44739e" viewBox="0 0 24 24"><path d="M14.8096 11.5824h-.118c-1.541.093-4.092 2.172-4.323 4.745-.155 1.721.344 2.464 1.778 2.65a4.015 4.015 0 0 0 2.773-1.24 5.32 5.32 0 0 0 1.838-3.045 2.957 2.957 0 0 0-.6-2.521 1.818 1.818 0 0 0-1.348-.589m.407.337h.022a.332.332 0 0 1 .249.109.541.541 0 0 1 .11.465.976.976 0 0 1-.339.563.738.738 0 0 1-.512.229c-.265-.034-.357-.171-.328-.489a1.043 1.043 0 0 1 .801-.877zm-1.44.186h.022a.336.336 0 0 1 .249.109.544.544 0 0 1 .11.465.983.983 0 0 1-.34.563.738.738 0 0 1-.511.229c-.265-.034-.357-.171-.329-.489a1.043 1.043 0 0 1 .799-.877m-.421 1.71h.022a.336.336 0 0 1 .25.109.549.549 0 0 1 .11.466.98.98 0 0 1-.34.562.745.745 0 0 1-.512.23c-.265-.035-.357-.172-.328-.49a1.043 1.043 0 0 1 .798-.877m-1.44.187h.022a.336.336 0 0 1 .249.109.544.544 0 0 1 .11.465.987.987 0 0 1-.339.563.742.742 0 0 1-.512.229c-.265-.034-.357-.171-.329-.489a1.043 1.043 0 0 1 .803-.877zm-.9 3.126c-.265-.034-.357-.171-.328-.489a1.042 1.042 0 0 1 .8-.877h.022a.336.336 0 0 1 .249.109.544.544 0 0 1 .11.465.987.987 0 0 1-.339.563.742.742 0 0 1-.51.229zm1.873.688a.984.984 0 0 1-.339.562.736.736 0 0 1-.512.23c-.265-.034-.357-.172-.328-.49a1.042 1.042 0 0 1 .8-.876h.022a.336.336 0 0 1 .249.109.545.545 0 0 1 .112.465zm-.432-.875c-.265-.034-.357-.171-.329-.489a1.043 1.043 0 0 1 .8-.876h.021a.336.336 0 0 1 .25.109.547.547 0 0 1 .11.465.983.983 0 0 1-.34.563.738.738 0 0 1-.508.228zm1.873.688a.978.978 0 0 1-.34.562.736.736 0 0 1-.511.23c-.265-.034-.357-.171-.329-.489a1.043 1.043 0 0 1 .8-.877h.021a.34.34 0 0 1 .25.109.549.549 0 0 1 .113.465zm.452-1.732a.984.984 0 0 1-.34.562.744.744 0 0 1-.511.23c-.265-.035-.357-.172-.329-.49a1.043 1.043 0 0 1 .8-.876h.022a.336.336 0 0 1 .249.109.545.545 0 0 1 .113.465zm.086-1.2a.744.744 0 0 1-.511.23c-.265-.035-.358-.172-.329-.49a1.043 1.043 0 0 1 .8-.876h.021a.336.336 0 0 1 .25.109.549.549 0 0 1 .11.466.98.98 0 0 1-.337.562zm1.354 1.012a.974.974 0 0 1-.339.562.745.745 0 0 1-.512.23c-.265-.035-.357-.172-.328-.49a1.043 1.043 0 0 1 .8-.876h.022a.332.332 0 0 1 .249.109.542.542 0 0 1 .112.466zm.067-2.336a.336.336 0 0 1 .249.109.545.545 0 0 1 .11.466.984.984 0 0 1-.339.562.744.744 0 0 1-.512.23c-.265-.034-.357-.172-.328-.49a1.041 1.041 0 0 1 .8-.876zm.641-2.45a4 4 0 0 1-.07-.533c.152-.352.341-.584.023-.815a.62.62 0 0 0-.172-.016c-.034 0-.071 0-.109-.005a.4.4 0 0 0 0-.059 20.1 20.1 0 0 1-.245-2.837c-.015-.413-.03-.84-.06-1.272v-.007l-.192-.7v-.006l-.011-.022a1.2 1.2 0 0 0-.76-.657h-.008l-4.9-.476h-.006a4.1 4.1 0 0 0-1.434.03c-.876.29-1.066.731-1.318 1.743-.007.047-.643 4.763-.726 5.487a10.75 10.75 0 0 0-.071 1.735.24.24 0 0 1-.017.1c-.031.077-.062.143-.091.206a2.8 2.8 0 0 0-.176.458 3.9 3.9 0 0 0-.136 1.22 4.35 4.35 0 0 0 .161.939 4.3 4.3 0 0 0 .125.439.75.75 0 0 0 .067.144.4.4 0 0 1 .072-.07.456.456 0 0 1 .272-.08 1.365 1.365 0 0 1 .824.379.034.034 0 0 0 .033.009.033.033 0 0 0 .024-.023 4.477 4.477 0 0 0 .056-2.508c-.055-.234-.1-.436-.146-.613a6.16 6.16 0 0 1-.283-1.905v-.023a8.6 8.6 0 0 1 .2-1.651c.155-.9.243-1.5.313-1.973a17.3 17.3 0 0 1 .351-1.848 3.3 3.3 0 0 0 .058-.405 2.082 2.082 0 0 1 .422-1.234c.011-.013.024-.03.039-.05a.808.808 0 0 1 .416-.326 3.86 3.86 0 0 1 1.238.008l3.58.352a.24.24 0 0 1 .08.022 1.41 1.41 0 0 1 .811 1.1l.01.055.474 2.76h-.209a1.77 1.77 0 0 0-.445.117 1.68 1.68 0 0 1-.438.015.23.23 0 0 1-.081-.089 7.6 7.6 0 0 0-.832-1.946 1.85 1.85 0 0 0-.618-.511.24.24 0 0 0-.107-.03l-2.154-.065a.23.23 0 0 0-.192.094 1.07 1.07 0 0 1-.27.266 2.6 2.6 0 0 0-.269.188.9.9 0 0 1-.117.093c-.144.081-.358.071-.387 0-.04-.1.3-.228.293-.468v-.012a.229.229 0 0 0-.215-.2l-.876-.051a2.7 2.7 0 0 1-.054.353c-.057.23-.1.429-.139.616l3.441.074a.98.98 0 0 1 .832.4 3.4 3.4 0 0 1 .5.733.21.21 0 0 0 .037.052c.209.216.327.29.411.5a.95.95 0 0 1 .058.231.314.314 0 0 0-.137.183c-.013.065.01.12-.035.187-.058.086-.14.067-.223.129a.462.462 0 0 0-.139.367.8.8 0 0 0 .022.2c.044.182.142.249.105.31-.064.108-.389-.05-.469.059s.187.321.223.621v.038a1.72 1.72 0 0 1-.211.567 1.48 1.48 0 0 1-.39.368 7.15 7.15 0 0 0-1.627 1.431 10.33 10.33 0 0 0-1.345 2.025 7.5 7.5 0 0 0-.485 1.173 2.48 2.48 0 0 0-.1.635 2.85 2.85 0 0 0 .325 1.646l-.111-.354-.009-.03a5.2 5.2 0 0 0 .325.749 3.92 3.92 0 0 0 .807 1.113c.033.023.174.142.316.236a1.2 1.2 0 0 0 .14.082c.145.069.024.4.024.4a.98.98 0 0 0 .211.258l1.582-.434c.009-.067-.013-.115.024-.187a.434.434 0 0 1 .562-.141c.057.04.061.084.094.129 0 0 1.448-.364 1.453-.317.014.121.066-.062.106-.281 0-.021-.424.088.094-.41.252-.243.654-.574.7-.621a7.736 7.736 0 0 0 2.239-3.528 4.176 4.176 0 0 0-.958-4.035m-7.887 6.431v-.128a3.8 3.8 0 0 0 .086.413zm6.528-9.171.1-.05.019.107-.108.01c-.046 0-.079 0-.083-.011s.028-.033.072-.056m.038.271.036-.021.015-.009v.011a.053.053 0 0 0 .048-.04h.006v.006a4.3 4.3 0 0 0 .1.5c.01.046.019.085.028.119l-.133-.09c-.178-.125-.323-.236-.323-.236-.012-.08.101-.165.223-.24m-2.439 2.076a.9.9 0 0 1-.121.355zm3.8 4.19a5.537 5.537 0 0 1-1.909 3.179 4.556 4.556 0 0 1-2.725 1.309 1.7 1.7 0 0 1-.217-.013 2.142 2.142 0 0 1-1.67-.9 3.18 3.18 0 0 1-.3-1.988 5.663 5.663 0 0 1 1.711-3.413 4.82 4.82 0 0 1 2.819-1.527 2.066 2.066 0 0 1 1.639.654 3.161 3.161 0 0 1 .652 2.699m-9.996-5.48c.01-.272.015-.524.015-.7a8.5 8.5 0 0 0-.059-1.173 7.74 7.74 0 0 1-.117-1.113c0-.178.169-.129.565-.045.058-.429.1-.753.119-.883l-.45-.027a.232.232 0 0 0-.189.081c-.389.456-.356.5-.772 1.014a.284.284 0 0 0-.023.293c.433.788.482 3.294.724 4 .033-.259.102-.802.187-1.447m1.927 6.992a7.88 7.88 0 0 1 3.136-4.618 7.9 7.9 0 0 0 .668-.558 1.207 1.207 0 0 0 .268-.9.28.28 0 0 0-.032-.062l-.033-.048a1.3 1.3 0 0 0-.094-.125.08.08 0 0 0-.019-.016h.012v-.194c.1 0 .19 0 .276-.011a1.7 1.7 0 0 0 .206-.028c-.03-.024-.067-.055-.111-.1a.121.121 0 0 1-.045-.159.13.13 0 0 0 .01-.037v-.002c-.271-.116-.563-.23-.719-.277a.45.45 0 0 0-.1-.023h-.004l-.014-.007-.037.006c-.12 0-.236 0-.347.009l-.165.013-.077.008c-.1.01-.186.023-.275.036l-.072.012-.236.042-.1.02a2.9 2.9 0 0 0-.28.071c-.052.015-.105.033-.159.052l-.058.021c-.078.029-.156.061-.236.1l-.054.025-.117.056c-.1.051-.209.107-.315.17a5.68 5.68 0 0 0-1.524 1.317l-.471.739c.008.093.019.184.034.281l1.3 1.146-.054.106-1.226-1.12c.031.166.074.355.132.6l.9.831-.054.105-.805-.755.033.138c.038.157.079.332.126.531l.51.422-.065.185-.386-.367a4.52 4.52 0 0 1-.094 2.405.143.143 0 0 1-.1.095.16.16 0 0 1-.037.005.14.14 0 0 1-.094-.037 1.268 1.268 0 0 0-.753-.353.6.6 0 0 0-.072.006l.035.148.266.471c.019.018.038.036.058.052.069.053.753.778.89.923l.02.021v.029a.63.63 0 0 1 0 .191v.025c.267.281.738.728 1.2 1.156a3.229 3.229 0 0 1-.646-2.772m3.294-7.091h.117l.633.512h-.17l-.609-.51zm-.641.044.114-.013h.01l1.183.959-.112.032-1.2-.976h.006zm-.494.119 1.26 1.021-.12.061-1.265-1.061zm-.672.163.068-.027.039-.015 1.331 1.148-.125.07-1.331-1.169zm-.341.17 1.373 1.184-.111.082-1.368-1.2zm-.415.275 1.372 1.184-.111.081-1.368-1.2zm-.4.28 1.4 1.2-.1.09-1.378-1.204zm-.315.309 1.374 1.186-.086.1-1.371-1.2zm-.315.351 1.373 1.208-.065.1-1.382-1.22zm-.317.364 1.368 1.2-.065.1-1.368-1.203zm-.346.47.069-.1 1.367 1.2-.065.1z"/></svg>