<svg xmlns="http://www.w3.org/2000/svg" viewBox="0 0 24 24"><path fill="#44739e" d="m22.905 13.974-.08-.2a.923.923 0 0 0-.807-.347.833.833 0 0 0-.757.362 1.11 1.11 0 0 0-.153.587.816.816 0 0 0 .332.68l.058.04.022.014.1.069-.013-.02a1.09 1.09 0 0 0 .475.096.806.806 0 0 0 .916-.851 1.02 1.02 0 0 0-.093-.43m-.717-.378a.834.834 0 0 0-.757.361 1.13 1.13 0 0 0-.153.588.95.95 0 0 0 .046.289.805.805 0 0 1-.137-.458.785.785 0 0 1 .831-.87 1.01 1.01 0 0 1 .578.151 1.3 1.3 0 0 0-.408-.061m-1.741-2.91-.017-.02a1.677 1.677 0 0 0-1.301-.548 1.907 1.907 0 0 0-1.171.325 1.3 1.3 0 0 0-.111.088v-.316h-2.192v3.197a1.25 1.25 0 0 1-.394.035l-.068-.012a.43.43 0 0 1-.031-.149v-2.825l.008-.246h-2.162v.378a1.62 1.62 0 0 0-.739-.406 2.31 2.31 0 0 0-1.08.039 2.243 2.243 0 0 0-1.109.764 2.14 2.14 0 0 0-.367.681 2.55 2.55 0 0 0-.087.33 3.45 3.45 0 0 0-.04 1.075 2.38 2.38 0 0 1-.972.323.51.51 0 0 1-.198-.037l-.094.032a.407.407 0 0 1-.111-.293V11.87h1.388v-1.409h.018v-.246H8.181v-.934h.026v-.246H6.049v3.326c-.11-.221-.492-.693-1.678-1.057-.794-.244-1.341-.312-1.246-.658.079-.285.555-.261.555-.261a4.1 4.1 0 0 1 1.933.643V9.229l.026.011v-.181l-.023-.01s-.138-.062-.364-.139a4.99 4.99 0 0 0-1.529-.242 3.55 3.55 0 0 0-2.011.588 1.96 1.96 0 0 0-.614.923 2.295 2.295 0 0 0-.077.97 1.564 1.564 0 0 0 .304.756 1.8 1.8 0 0 0 .167.161v-.005a4.51 4.51 0 0 0 1.873.751 1.42 1.42 0 0 1 .651.252l.006.014a.53.53 0 0 1 .047.161.222.222 0 0 1-.085.177 1.26 1.26 0 0 1-.926.089 4.08 4.08 0 0 1-1.425-.599l-.046-.032-.534 1.831.026.015.028.016-.008.024a5.16 5.16 0 0 0 2.994.519 2.159 2.159 0 0 0 2.036-1.53A1.61 1.61 0 0 0 7.72 15.32a3.844 3.844 0 0 0 2.54-.699 1.844 1.844 0 0 0 1.541.695 1.531 1.531 0 0 0 1.43-.678s.146.678 1.274.678c1.035 0 1.225-.171 1.225-.171v.072h2.107v-2.954a.815.815 0 0 1 .728-.117.44.44 0 0 1 .077.038.597.597 0 0 1 .165.444v2.55h.064v.039h2.074v-3.18a2.89 2.89 0 0 0-.273-1.018 1.97 1.97 0 0 0-.225-.333m-10.91-.391v.091H8.354l-.091-.091Zm-7.663-.867a1.96 1.96 0 0 0-.611.924 2.27 2.27 0 0 0-.077.971 1.9 1.9 0 0 0 .111.413 1.63 1.63 0 0 1-.2-.592 2.019 2.019 0 0 1 .665-1.821A4.065 4.065 0 0 1 5.23 8.99c.169.058.286.111.333.126v.017l-.138-.048a5.04 5.04 0 0 0-1.511-.243h-.022a3.57 3.57 0 0 0-2.014.586Zm-.606 5.308a3 3 0 0 1-.121-.061l.487-1.664.111.072Zm2.883-1.144a1.268 1.268 0 0 1-.926.089 3.47 3.47 0 0 1-.986-.345 3.25 3.25 0 0 0 .803.254 1.315 1.315 0 0 0 .99-.111.308.308 0 0 0 .111-.238.2.2 0 0 0 0-.038.347.347 0 0 1 .096.206.222.222 0 0 1-.084.183ZM8.128 9.2H6.215v3.379a1.8 1.8 0 0 0-.091-.165V9.109h2.004Zm2.119 1.956a2.525 2.525 0 0 0-.506 1.374 3.44 3.44 0 0 0 .012.712 2.38 2.38 0 0 1-.971.323.386.386 0 0 1-.291-.101.6.6 0 0 0 .121.011 2.495 2.495 0 0 0 1.034-.347l.021-.018v-.026a3.48 3.48 0 0 1 .035-1.074 2.2 2.2 0 0 1 .083-.314 2.147 2.147 0 0 1 2.467-1.432 1.14 1.14 0 0 1 .349.132 1.2 1.2 0 0 0-.164-.045 2.31 2.31 0 0 0-1.08.039 2.24 2.24 0 0 0-1.11.766m1.552 1.947a.89.89 0 0 1-.062-.332.707.707 0 0 1 .694-.777 1.087 1.087 0 0 1 .583.149v1.109a.998.998 0 0 1-.606.172.793.793 0 0 1-.491-.212Zm1.384.312a.998.998 0 0 1-.604.172.765.765 0 0 1-.368-.122.7.7 0 0 0 .197.031 1.006 1.006 0 0 0 .672-.203l.012-.011v-1.051a.9.9 0 0 1 .091.096Zm1.919-3.029h-1.928v.374c-.025-.022-.055-.049-.092-.077v-.388h2.019Zm2.661 0h-1.929v3.2a.676.676 0 0 1-.328.026.37.37 0 0 1-.138-.076 1.77 1.77 0 0 0 .346-.052l.03-.007v-3.182h2.018Zm1.209 4.72h-.092v-2.472a.78.78 0 0 0-.037-.234.815.815 0 0 1 .129.403Zm.324-4.813a2.17 2.17 0 0 0-1.019.233 1.5 1.5 0 0 0-.302.208l-.111-.111a1.1 1.1 0 0 1 .136-.111 2.154 2.154 0 0 1 2.045-.101 2.12 2.12 0 0 0-.749-.121Zm1.135.375-.001-.002Zm.025.028-.025-.028.016.018Zm-.025-.028"/></svg>