<svg xmlns="http://www.w3.org/2000/svg" viewBox="0 0 24 24"><path fill="#44739e" d="M1 5.643v12.714h22V5.643Zm19.638 9.98v2.054H1.83v-4.106h18.811Zm-.983-3.34h-.983v-1.217c0-.816 0-1.238-.008-1.285a.469.469 0 0 0-.343-.451 1.12 1.12 0 0 0-.349 0 .76.76 0 0 0-.272.11l-.023.018v2.825h-1.968v-.057l-.072.017a4.95 4.95 0 0 1-.667.11 5.6 5.6 0 0 1-.705 0 1.33 1.33 0 0 1-.582-.202 1.056 1.056 0 0 1-.321-.379.3.3 0 0 0-.031-.057.25.25 0 0 0-.032.038 2.1 2.1 0 0 1-.234.234 1.68 1.68 0 0 1-1.135.371 1.936 1.936 0 0 1-1.038-.324 1.8 1.8 0 0 1-.3-.245.55.55 0 0 0-.097-.086s-.061.041-.125.086a3.575 3.575 0 0 1-1.799.571 3.96 3.96 0 0 1-.616-.013 1.47 1.47 0 0 1-1.158-.77 2.13 2.13 0 0 1-.196-.613.44.44 0 0 0-.016-.082.44.44 0 0 0-.028.07 1.804 1.804 0 0 1-.471.739 2.587 2.587 0 0 1-1.579.66 5.8 5.8 0 0 1-.683.011 5.63 5.63 0 0 1-1.666-.375 1.7 1.7 0 0 1-.314-.151s.11-.379.227-.833.227-.823.23-.823.04.022.083.048a3.72 3.72 0 0 0 1.604.566.97.97 0 0 0 .418-.037.396.396 0 0 0 .269-.291c.027-.147-.063-.259-.275-.347-.034-.014-.33-.101-.66-.194a5.6 5.6 0 0 1-1.064-.345 1.562 1.562 0 0 1-.759-.687 1.5 1.5 0 0 1-.156-.55 2.97 2.97 0 0 1 .009-.532 1.83 1.83 0 0 1 .371-.854A2.458 2.458 0 0 1 3.75 6.13c.093-.014.305-.034.414-.038s.46 0 .595.013a3.28 3.28 0 0 1 .813.161c.126.041.495.18.504.19s.011 1.798 0 1.798l-.059-.034a4.43 4.43 0 0 0-1.272-.501 2.24 2.24 0 0 0-.491-.057.632.632 0 0 0-.464.134.273.273 0 0 0-.082.22c.013.1.074.16.22.22.03.011.302.1.604.197.607.193.728.235.889.301a2.8 2.8 0 0 1 .642.355 1.496 1.496 0 0 1 .447.532l.043.085V6.431h1.973v1.151h1.32v1.517h-1.32v.624a4.7 4.7 0 0 0 .014.666.33.33 0 0 0 .163.213.506.506 0 0 0 .255.043 1.58 1.58 0 0 0 .845-.264l.117-.069v-.047a3.1 3.1 0 0 1-.01-.526 2.537 2.537 0 0 1 .692-1.675 1.925 1.925 0 0 1 1.437-.559 1.54 1.54 0 0 1 .414.053 1.496 1.496 0 0 1 .686.403l.047.05v-.429h1.968V9.04c0 1.36 0 1.461.014 1.499a.22.22 0 0 0 .136.17.73.73 0 0 0 .345-.033l.061-.019V7.582h1.968v.358l.054-.043a1.943 1.943 0 0 1 .97-.391 2.75 2.75 0 0 1 .503 0 1.49 1.49 0 0 1 1.033.568 1.914 1.914 0 0 1 .385 1.054c.012.095.013.235.014 1.629v1.526Zm3.019-.585a.682.682 0 0 1-.365.488.924.924 0 0 1-.414.095.743.743 0 0 1-.867-.616 1.32 1.32 0 0 1 0-.359.69.69 0 0 1 .509-.586.92.92 0 0 1 .34-.037.83.83 0 0 1 .229.021.75.75 0 0 1 .356.182.715.715 0 0 1 .22.43 1.46 1.46 0 0 1-.012.382Zm-9.887-2.471a1.45 1.45 0 0 0-.33-.013.651.651 0 0 0-.55.726.682.682 0 0 0 .347.66.935.935 0 0 0 .667.016 1.07 1.07 0 0 0 .227-.11l.039-.026V9.392l-.053-.032a1.07 1.07 0 0 0-.347-.133m-1.918 5.041a1.474 1.474 0 0 0-.632.246 1.65 1.65 0 0 0-.265.248 1.42 1.42 0 0 0-.265.538 1.55 1.55 0 0 0 0 .645 1.4 1.4 0 0 0 .149.375 1.404 1.404 0 1 0 1.419-2.051 2.06 2.06 0 0 0-.406-.001m.296.533a.795.795 0 0 1 .683.683 1.4 1.4 0 0 1 0 .287.784.784 0 0 1-.565.651.87.87 0 0 1-.283.024.737.737 0 0 1-.477-.22.807.807 0 0 1-.233-.458 1.07 1.07 0 0 1 .013-.366.82.82 0 0 1 .22-.388.782.782 0 0 1 .642-.213m-6.865.838a1.6 1.6 0 0 0-.667-.292c-.429-.11-.513-.17-.514-.33a.2.2 0 0 1 .014-.09.307.307 0 0 1 .279-.147 1.135 1.135 0 0 1 .668.22.21.21 0 0 0 .058.032c.008 0 .302-.434.298-.44l-.046-.036a1.54 1.54 0 0 0-.748-.29 2.16 2.16 0 0 0-.347 0 1.23 1.23 0 0 0-.284.078.759.759 0 0 0-.469.798.674.674 0 0 0 .519.622 4 4 0 0 0 .388.117c.304.083.425.142.468.225a.27.27 0 0 1 .01.175c-.053.159-.307.22-.609.149a1.39 1.39 0 0 1-.5-.258c-.023-.018-.044-.032-.047-.027l-.171.204-.166.201.017.017a.9.9 0 0 0 .085.068 1.66 1.66 0 0 0 .77.324 1.96 1.96 0 0 0 .488 0 .792.792 0 0 0 .713-.688 1.06 1.06 0 0 0-.017-.323.62.62 0 0 0-.19-.309m3.06-1.329c-.038 0-.317-.008-.641-.008h-.574v2.648h.575v-.794h.254a2.27 2.27 0 0 0 .474-.03.912.912 0 0 0 .721-.57.89.89 0 0 0 .049-.33.84.84 0 0 0-.015-.209.88.88 0 0 0-.843-.707m-.063 1.313a2.5 2.5 0 0 1-.313.01H6.72v-.802h.264a1.54 1.54 0 0 1 .33.015.369.369 0 0 1 .311.279.6.6 0 0 1 .008.11.383.383 0 0 1-.336.386Zm11.252-.786.003 1.053.001 1.053h.579l.003-1.053.002-1.053h.801l-.001-.267-.003-.267-1.089-.002-1.09-.001v.537h.397Zm-4.452 2.106h.578v-.84h.455l.28.421.281.423h.337a1.52 1.52 0 0 0 .33-.01s-.145-.22-.319-.472-.315-.464-.315-.466h.007a.95.95 0 0 0 .187-.095.78.78 0 0 0 .339-.479 1.31 1.31 0 0 0 .014-.411.833.833 0 0 0-.83-.703c-.049 0-.33-.008-.718-.008h-.633v1.32Zm.583-1.738v-.376h.319c.198 0 .337 0 .369.009a.351.351 0 0 1 .33.367.337.337 0 0 1-.194.325c-.099.048-.125.05-.5.05h-.33Z"/></svg>