<svg xmlns="http://www.w3.org/2000/svg" viewBox="0 0 24 24"><path fill="#44739e" d="M5.136 1A4.134 4.134 0 0 0 1 5.136v13.728A4.134 4.134 0 0 0 5.136 23h13.728A4.134 4.134 0 0 0 23 18.864V5.136A4.134 4.134 0 0 0 18.864 1Zm6.039 8.649.578 1.799h1.897l-1.535 1.104.579 1.799-1.519-1.105-1.534 1.105.165-.51s.723-.974 2.043-1.949a5.35 5.35 0 0 0-1.647.66L8.7 11.45h1.881Zm-6.105.561c.627 0 1.026.297 1.223.792l-.695.315c-.115-.281-.279-.399-.495-.399-.246 0-.396.148-.396.33 0 .148.083.281.33.38l.495.25c.528.231.809.558.809 1.069 0 .645-.545 1.109-1.254 1.109-.66 0-1.172-.365-1.337-.976l.726-.214c.116.33.348.479.611.479.247 0 .429-.165.429-.398 0-.214-.132-.328-.429-.46l-.527-.266c-.462-.247-.661-.561-.661-.973 0-.594.492-1.038 1.17-1.038Zm8.794.05h1.305c.825 0 1.321.413 1.321 1.155 0 .561-.429 1.022-.94 1.088l1.056 1.487h-.925l-1.006-1.485v1.485h-.811Zm-7.31.004h2.454v.735h-.807v2.996h-.825v-2.996h-.821l-.002-.735Zm11.69.404h.8v1.152h1.206v.764h-1.206v1.144h-.8v-1.144h-1.197v-.764h1.197Zm-3.569.301v.924h.494c.314 0 .512-.198.512-.495 0-.264-.198-.429-.512-.429h-.495Z"/></svg>