<svg xmlns="http://www.w3.org/2000/svg" fill="#44739e" viewBox="0 0 24 24"><path d="M4.915 11.91c.395-.266.851-.552 1.274-.8l-1.676-1.2H2.191Zm5.926 4.7804h.231l-.368-.634.341-.422h-.239l-.367.491v-.491h-.198v1.056h.198v-.293l.143-.177zM7.864 12.407c-.388.266-.79.565-1.171.865l2.063 1.5h2.323zM22 7.1c-12.565.764-18.378 6.144-19.7 7.418l-.266.259h2.35C10.581 8.553 19.445 7.337 22 7.108ZM9.076 15.6414h-.197v1.056h.211v-.661l.388.661h.184v-1.056h-.197v.661zm.6 1.056h-.014m-1.553-1.056h.198v1.056h-.198zm.198.1846v.007m-.722.8644v-.177h-.463v-.879h-.198v1.056zm-.463-.8644v-.007m-.79.3054a.34.34 0 0 0-.048-.408.352.352 0 0 0-.245-.082h-.4v1.056h.2v-.423H6l.2.429h.232l-.232-.463a.35.35 0 0 0 .132-.109m-.2-.075a.14.14 0 0 1-.109.041v-.007h-.19v-.282h.19a.144.144 0 0 1 .109.041.14.14 0 0 1 .041.1.144.144 0 0 1-.039.107zm-1.251.429.061.205h.211l-.374-1.056h-.164l-.374 1.056h.211l.061-.205zm-.181-.572.13.409h-.262Zm-.766-.102v-.177h-.742v.177h.272v.886h.205v-.886zm-1.682.014a.176.176 0 0 1 .116-.034.2.2 0 0 1 .116.034.127.127 0 0 1 .047.109h.191a.336.336 0 0 0-.1-.232.36.36 0 0 0-.245-.082.4.4 0 0 0-.259.089.3.3 0 0 0-.1.232c0 .163.1.258.286.292l.1.014a.28.28 0 0 1 .109.048.135.135 0 0 1 .034.1c0 .089-.055.136-.171.136a.188.188 0 0 1-.136-.034.172.172 0 0 1-.054-.122H2a.448.448 0 0 0 .1.259.392.392 0 0 0 .266.081.42.42 0 0 0 .272-.081.3.3 0 0 0 .1-.246c0-.17-.089-.265-.273-.3l-.109-.021a.27.27 0 0 1-.109-.047.134.134 0 0 1-.034-.089.119.119 0 0 1 .039-.106M2 16.562"/></svg>