<svg xmlns="http://www.w3.org/2000/svg" viewBox="0 0 24 24"><path fill="#44739e" d="M3.01 6.614c-1.37 0-2.01.778-2.01 1.99v1.406c0 1.258.225 1.796 1.132 2.365l.699.434c.566.343.64.598.64 1.333v1.24c0 .361-.165.583-.478.583s-.478-.208-.478-.583v-1.947H1v1.962c0 1.226.626 1.989 1.979 1.989 1.399 0 2.039-.809 2.039-1.989V13.87c0-1.167-.299-1.767-1.16-2.319l-.7-.448c-.492-.315-.612-.538-.612-1.347V8.618c0-.36.166-.583.461-.583.313 0 .492.226.492.583v1.93h1.519V8.604c0-1.198-.64-1.99-2.008-1.99m2.485.148v1.499h1.073v8.98h1.546v-8.98h1.072V6.762Zm4.644 0-.865 10.476h1.533l.21-2.799h1.125l.211 2.799h1.564l-.861-10.476Zm4.569 0v10.476h1.547v-4.383h.938v3.591c0 .598.253.792.253.792h1.547c.004.003-.25-.191-.25-.792v-2.725c0-.869-.326-1.346-1.117-1.512v-.18c.787-.12 1.192-.704 1.192-1.648V8.604c0-1.152-.686-1.842-2.011-1.842Zm4.601 0v1.499h1.072v8.98h1.547v-8.98H23V6.762Zm-7.817 1.421h.183l.366 4.835h-.914Zm4.766.004h.401c.478 0 .612.194.612.972v1.3c0 .749-.166.972-.672.972h-.341Z"/></svg>