<svg xmlns="http://www.w3.org/2000/svg" fill="#44739e" viewBox="0 0 24 24"><path d="M2.1855 6.7582c-1.4955 0-2.1932.8484-2.1932 2.1708v1.5343c0 1.3725.2453 1.9587 1.2346 2.5794l.7634.4741c.6174.374.6974.6514.6974 1.4534v1.3534c0 .3933-.18.636-.5212.636s-.5217-.2273-.5217-.636v-2.1243H-.0077v2.1398c0 1.3379.6824 2.1703 2.1587 2.1703 1.5261 0 2.2242-.8826 2.2242-2.1703v-1.6657c0-1.2723-.3262-1.9275-1.2656-2.529l-.7629-.4896c-.5368-.343-.6675-.5865-.6675-1.4694v-1.241c0-.3932.1807-.6365.5028-.6365.3413 0 .5367.2472.5367.6366v2.1048h1.6565V8.929c0-1.307-.6981-2.1708-2.1897-2.1708m2.7109.1618v1.6348h1.1698v9.7967H7.753V8.5548h1.1698V6.92zm5.0654 0-.943 11.4275h1.672l.2295-3.053h1.2272l.2302 3.053h1.7064L13.1445 6.92Zm4.985 0v11.4275h1.687v-4.7807h1.024v3.9174c0 .6516.276.8633.276.8633h1.6876c.0038.0039-.2727-.2079-.2727-.8633v-2.9726c0-.9485-.3564-1.469-1.2191-1.6502v-.1963c.859-.1311 1.3-.7678 1.3-1.7972V8.929c0-1.2568-.748-2.0089-2.1937-2.0089zm5.0195 0v1.6348h1.1692v9.7967h1.6876V8.5548h1.1692V6.92zm-8.5282 1.5498h.1997l.399 5.2743h-.997zm5.1997.004h.4374c.5215 0 .667.212.667 1.0602v1.4188c0 .8174-.1803 1.0602-.7325 1.0602h-.3719z"/></svg>