<svg xmlns="http://www.w3.org/2000/svg" viewBox="0 0 24 24"><path fill="#44739e" d="m20.559 12.584-2.595-9.625a2.013 2.013 0 0 0-1.093-1.299l-.961-.45a2.16 2.16 0 0 0-.924-.21 1.2 1.2 0 0 0-.169.008l-.973.078a2.28 2.28 0 0 0-.71.176L3.736 5.386a.575.575 0 0 0-.322.646L6.069 17.39a.722.722 0 0 0 .703.564.63.63 0 0 0 .206-.03l3.739-1.129 1.69-.019-.09.137a1.65 1.65 0 0 0 .44 2.302l.065.044-.038.068a1.276 1.276 0 0 0-.154.616V23h3.866v-.242l-.034-2.809a1.39 1.39 0 0 0-.458-1.011l-.07-.066.073-.063a.78.78 0 0 0 .299-.505v-.016a3.5 3.5 0 0 0 .025-.425 2.41 2.41 0 0 0-.719-1.71 1.5 1.5 0 0 0-.176-.169l-.123-.103 1.674-.504v-.484l2.743-.831a1.217 1.217 0 0 0 .829-1.478m-.851 1.332-2.854.864v.485l-1.599.475v.285a2.6 2.6 0 0 1 .259.238 2.34 2.34 0 0 1 .675 1.608 2.64 2.64 0 0 1-.028.412.812.812 0 0 1-.512.579 1.333 1.333 0 0 1 .652 1.1l.036 2.896h-3.555v-2.902a1.203 1.203 0 0 1 .263-.743 1.506 1.506 0 0 1 .117-2.778v-.073l-.907.265-1.571.017-3.744 1.129a.45.45 0 0 1-.163.021.584.584 0 0 1-.56-.44L3.557 5.992a.409.409 0 0 1 .242-.471l9.398-4.116a2.1 2.1 0 0 1 .66-.163l.968-.077a.9.9 0 0 1 .163-.01 2.06 2.06 0 0 1 .866.191l.961.45a1.879 1.879 0 0 1 1.015 1.21l2.595 9.624a1.06 1.06 0 0 1-.717 1.286m-4.202 5.073-.031-.03-.065-.029-.11-.054.084-.083a.1.1 0 0 1 .07-.033 2.17 2.17 0 0 0-.904-.194 2.002 2.002 0 0 0-1.385.517l.044.018.122.045-.088.094a1.058 1.058 0 0 0-.297.721v2.723h3.206l-.033-2.722a1.176 1.176 0 0 0-.614-.977Zm-1.008 3.52a.33.33 0 1 1 .33-.33.33.33 0 0 1-.33.334Zm.488-21.179a.84.84 0 0 0-.14.008l-.976.078a1.91 1.91 0 0 0-.604.149l-9.4 4.115a.234.234 0 0 0-.14.274L6.38 17.316a.409.409 0 0 0 .392.305.32.32 0 0 0 .11-.011l3.78-1.138h.013l1.57-.017 1.1-.323v.43l-.06.019a1.2 1.2 0 0 0-.153.06 2.928 2.928 0 0 0 .33 2.101 2.233 2.233 0 0 1 1.109-.284 2.3 2.3 0 0 1 .576.073 2.873 2.873 0 0 1-.057-2.597v-.094c-.027-.007-.062-.018-.11-.028l-.319-.074 2.025-.603v-.484l1.861-.563-3.42-12.758Zm1.389 8.238-.095.035-10.023 3.761-.11.043-.026-.121-1.636-6.537-.026-.087.078-.034L14.282 2.1l.121-.051.043.121 1.903 7.3Zm1.287-6.522a1.707 1.707 0 0 0-.922-1.094l-.959-.45a1.87 1.87 0 0 0-.534-.154l3.404 12.707 1.006-.305a.887.887 0 0 0 .599-1.079Zm-4.317 15.759a2.35 2.35 0 0 1-.33-.789 3.38 3.38 0 0 1-.034-1.306 1.333 1.333 0 0 0 .086 2.322 1.73 1.73 0 0 1 .278-.227m1.77-2.661a2.64 2.64 0 0 0 .215 2.445 2 2 0 0 1 .256.11.645.645 0 0 0 .405-.44 2.75 2.75 0 0 0 .025-.384 2.17 2.17 0 0 0-.624-1.487 1.76 1.76 0 0 0-.257-.232Z"/></svg>