<svg xmlns="http://www.w3.org/2000/svg" viewBox="0 0 24 24"><path fill="#44739e" d="M1.014 10.971s-.021.362-.011.899q0-.446.045-.88ZM12 1a11 11 0 0 0-10.952 9.986l5.837 2.405a2.75 2.75 0 0 1 .511-.272 3 3 0 0 1 1.281-.227l2.673-3.883v-.054a4.15 4.15 0 1 1 4.15 4.158h-.093L11.58 15.85a3.028 3.028 0 0 1-5.985.74L1.44 14.872A10.54 10.54 0 0 1 1 11.87V12A11 11 0 1 0 12 1m3.499 10.725a2.77 2.77 0 1 0-2.764-2.77 2.773 2.773 0 0 0 2.764 2.77M13.43 8.951a2.077 2.077 0 1 1 2.076 2.08 2.08 2.08 0 0 1-2.076-2.08m-5.779 9.135a2.336 2.336 0 0 0 3.057-1.261 2.335 2.335 0 0 0-2.983-3.088l1.4.579a1.726 1.726 0 0 1 .927 2.253 1.722 1.722 0 0 1-2.254.931l-1.351-.56a2.332 2.332 0 0 0 1.204 1.146"/></svg>