<svg xmlns="http://www.w3.org/2000/svg" viewBox="0 0 24 24"><path fill="#44739e" d="M18.275 3.523v16.954H23V3.523Zm2.363 8.545a1.055 1.055 0 1 1 1.055-1.055 1.055 1.055 0 0 1-1.055 1.055m0-2.823a1.055 1.055 0 1 1 1.055-1.054 1.055 1.055 0 0 1-1.055 1.054m0-2.784a1.055 1.055 0 1 1 1.055-1.055 1.055 1.055 0 0 1-1.055 1.055M1 20.477h4.725V3.523H1ZM3.362 4.371a1.055 1.055 0 1 1-1.055 1.054 1.055 1.055 0 0 1 1.055-1.054m0 2.784A1.055 1.055 0 1 1 2.307 8.21a1.055 1.055 0 0 1 1.055-1.055m0 2.823a1.055 1.055 0 1 1-1.055 1.055 1.055 1.055 0 0 1 1.055-1.055m3.101 10.499h11.139v-4.041H6.463Zm9.714-2.933a.873.873 0 1 1-.874.873.874.874 0 0 1 .874-.873m-6.539.116h4.794v1.519H9.638Zm-1.672-.116a.873.873 0 1 1-.873.873.873.873 0 0 1 .873-.873"/></svg>