<svg xmlns="http://www.w3.org/2000/svg" fill="#44739e" viewBox="0 0 24 24"><path d="M17.4424 4.7491v14.642h4.081V4.7491Zm2.041 7.38a.911.911 0 1 1 .911-.911.911.911 0 0 1-.911.911m0-2.438a.911.911 0 1 1 .911-.911.911.911 0 0 1-.911.911m0-2.405a.911.911 0 1 1 .911-.911.911.911 0 0 1-.911.911m-16.96 12.105h4.081V4.7491h-4.081zm2.04-13.91a.911.911 0 1 1-.911.911.911.911 0 0 1 .911-.911m0 2.405a.911.911 0 1 1-.911.911.911.911 0 0 1 .911-.911m0 2.438a.911.911 0 1 1-.911.911.911.911 0 0 1 .911-.911m2.678 9.067h9.62v-3.49h-9.62Zm8.389-2.533a.754.754 0 1 1-.754.754.755.755 0 0 1 .754-.754m-5.647.1h4.14v1.312h-4.14Zm-1.444-.1a.754.754 0 1 1-.754.754.754.754 0 0 1 .754-.754"/></svg>