<svg xmlns="http://www.w3.org/2000/svg" viewBox="0 0 24 24"><path fill="#44739e" d="M18.897 1H5.103A4.103 4.103 0 0 0 1 5.103V6.71h15.133c2.53.025 3.141.622 3.838 2.385l-2.05.945v-.019a.17.17 0 0 0-.01-.056c0-.012-.006-.023-.008-.034a1.73 1.73 0 0 0-.073-.296c0-.014-.013-.029-.019-.043a1.7 1.7 0 0 0-.124-.262c-.009-.016-.021-.03-.031-.046a1.76 1.76 0 0 0-.164-.22c-.014-.016-.032-.032-.047-.047a1.7 1.7 0 0 0-.192-.176c-.021-.016-.044-.03-.066-.044a1.8 1.8 0 0 0-.211-.129c-.029-.014-.06-.025-.09-.038a1.9 1.9 0 0 0-.22-.08c-.039-.011-.08-.017-.121-.025a1.7 1.7 0 0 0-.207-.033h-.15a1.9 1.9 0 0 0-.231.01 2.79 2.79 0 0 0-1.357.261.847.847 0 0 0-.456.783.91.91 0 0 0 .322.66 5.62 5.62 0 0 0 2.013.734 6.285 6.285 0 0 1 3.291 1.54 3.348 3.348 0 0 1 .609 1.986 2.843 2.843 0 0 1-1.663 2.836 6.25 6.25 0 0 1-2.61.464 6.2 6.2 0 0 1-.667-.024l-.011.011H1v1.144A4.103 4.103 0 0 0 5.102 23h13.795A4.103 4.103 0 0 0 23 18.897V5.103A4.103 4.103 0 0 0 18.897 1m-1.274 14.617h-2.795a2.504 2.504 0 0 0 1.305.322 2.714 2.714 0 0 0 1.49-.322m-5.379 0H1v1.76h12.76a3.355 3.355 0 0 1-1.516-1.76m3.255-2.72a5.687 5.687 0 0 1-3.018-1.715H1v1.926h15.319c-.249-.063-.522-.137-.82-.211m-3.589 1.875 1.889-.88a2.813 2.813 0 0 0 .583 1.354h3.602l.22-.556a.6.6 0 0 0 .025-.212.933.933 0 0 0-.459-.844 1.46 1.46 0 0 0-.324-.15H1v1.76h11.096a16 16 0 0 1-.186-.472m1.241-7.282a2.97 2.97 0 0 1 .758-.41H1v2.04h11.132a3.157 3.157 0 0 1 1.019-1.63"/></svg>