<svg xmlns="http://www.w3.org/2000/svg" viewBox="0 0 24 24"><path fill="#44739e" d="M9.236 13.925h4.269v-1.43H9.236Zm.101-1.331h4.071v1.231H9.337Zm-4.445-1.692H3.834a.157.157 0 0 1-.157-.157v-.268a.157.157 0 0 1 .157-.158h1.342a.123.123 0 0 0 .123-.123.123.123 0 0 0-.123-.119H3.589a.406.406 0 0 0-.405.405v.267a.405.405 0 0 0 .405.404h1.056a.157.157 0 0 1 .158.157v.267a.157.157 0 0 1-.158.158h-1.34a.124.124 0 0 0-.123.124.123.123 0 0 0 .123.122h1.602a.405.405 0 0 0 .388-.404v-.267a.404.404 0 0 0-.403-.408m2.636-.825H5.616a.123.123 0 0 0 0 .246h.73v1.541a.123.123 0 0 0 .123.122h.247a.123.123 0 0 0 .123-.122v-1.541h.69a.123.123 0 0 0 .123-.122.123.123 0 0 0-.124-.124m2.006 1.782a.124.124 0 0 0 .123.122h.25a.123.123 0 0 0 .123-.122.946.946 0 0 0-.322-.714.406.406 0 0 0 .322-.396v-.267a.404.404 0 0 0-.404-.405H7.97a.123.123 0 0 0-.123.123v1.659a.123.123 0 0 0 .123.122h.247a.124.124 0 0 0 .123-.122v-.706h.488a.705.705 0 0 1 .706.706m-1.194-.957v-.583h1.036a.157.157 0 0 1 .158.157v.269a.157.157 0 0 1-.158.157Zm8.289.251h1.564a.123.123 0 0 0 0-.247h-1.564v-.424a.158.158 0 0 1 .158-.159h1.406a.123.123 0 0 0 .123-.123.123.123 0 0 0-.123-.123h-1.651a.404.404 0 0 0-.403.405v1.1a.404.404 0 0 0 .403.404h1.651a.123.123 0 0 0 .123-.124.124.124 0 0 0-.123-.123h-1.406a.157.157 0 0 1-.158-.157Zm-14.094-.251h-.583v-.583a.123.123 0 0 0-.246 0v.583h-.583a.123.123 0 0 0 0 .246h.583v.582a.123.123 0 1 0 .246 0v-.582h.583a.123.123 0 0 0 0-.246m18.93.251h1.412a.123.123 0 0 0 0-.247h-1.412a.123.123 0 0 0 0 .247m-10.728.828h1.37a.404.404 0 0 0 .404-.404v-1.1a.404.404 0 0 0-.404-.405h-1.37a.404.404 0 0 0-.403.405v1.1a.404.404 0 0 0 .403.404m.088-.404v-1.1a.158.158 0 0 1 .158-.158h.88a.157.157 0 0 1 .157.158v1.1a.157.157 0 0 1-.157.158h-.88a.157.157 0 0 1-.159-.158Zm7.922.404h.246a.123.123 0 0 0 .123-.122v-.706h.49a.705.705 0 0 1 .705.706.123.123 0 0 0 .123.122h.247a.123.123 0 0 0 .118-.122.946.946 0 0 0-.322-.714.406.406 0 0 0 .322-.396v-.267a.404.404 0 0 0-.403-.405h-1.651a.123.123 0 0 0-.123.123v1.659a.123.123 0 0 0 .125.122m.369-1.658h1.038a.157.157 0 0 1 .157.158v.268a.157.157 0 0 1-.157.157h-1.038Zm-.608 2.169H23v1.436h-4.492Zm-5.565-.511h.247a.123.123 0 0 0 .123-.122v-1.54h.608a.158.158 0 0 1 .158.158v1.382a.122.122 0 0 0 .122.122h.248a.122.122 0 0 0 .122-.122v-1.54h.608a.157.157 0 0 1 .158.158v1.382a.123.123 0 0 0 .123.122h.246a.123.123 0 0 0 .124-.122v-1.377a.405.405 0 0 0-.405-.405h-2.482a.123.123 0 0 0-.123.123v1.659a.123.123 0 0 0 .123.122m.912 1.944h4.269v-1.43h-4.269Zm4.11-1.331h.019v1.231h-.019Zm-.089 0h.019v1.231h-.019Zm-.09 0h.02v1.231h-.02Zm-.089 0h.022v1.231h-.022Zm-.089 0h.018v1.231h-.017Zm-.09 0h.019v1.231h-.019Zm-.088 0h.018v1.231h-.018Zm-.089 0h.019v1.231h-.019Zm-.089 0h.019v1.231h-.019Zm-.089 0h.019v1.231h-.013Zm-.089 0h.019v1.231h-.019Zm-.089 0h.019v1.231h-.019Zm-.089 0h.018v1.231h-.018Zm-.089 0h.017v1.231h-.017Zm-.09 0h.018v1.231h-.018Zm-.089 0h.018v1.231h-.018Zm-.089 0h.018v1.231h-.018Zm-.09 0h.019v1.231h-.019Zm-.089 0h.019v1.231h-.019Zm-.089 0h.017v1.231h-.018Zm-.089 0h.018v1.231h-.022Zm-.088 0h.017v1.231h-.017Zm-.09 0h.019v1.231h-.019Zm-.089 0h.019v1.231h-.019Zm-.089 0h.022v1.231h-.022Zm-.09 0h.02v1.231h-.018Zm-.089 0h.019v1.231h-.019Zm-.089 0h.018v1.231h-.018Zm-.089 0h.018v1.231h-.018Zm-.087 0h.016v1.231h-.016Zm-.089 0h.018v1.231h-.013Zm-.09 0h.019v1.231h-.019Zm-.089 0h.019v1.231h-.019Zm-.09 0h.02v1.231h-.02Zm-.089 0h.019v1.231h-.019Zm-.089 0h.019v1.231h-.019Zm-.089 0h.018v1.231h-.018Zm-.088 0h.017v1.231h-.017Zm-.089 0h.018v1.231h-.018Zm-.09 0h.019v1.231h-.019Zm-.089 0h.017v1.231h-.019Zm-.089 0h.019v1.231h-.023Zm-.089 0h.019v1.231h-.019Zm-.089 0h.019v1.231h-.019Zm-.089 0h.019v1.231h-.019Zm-.089 0h.022v1.231h-.022Z"/></svg>