<svg xmlns="http://www.w3.org/2000/svg" fill="#44739e" viewBox="0 0 24 24"><path d="M5.756 13.676a2.06 2.06 0 0 1-.308-.052c0 .172.016.348.028.52.048.008.1.016.148.028s.1.02.148.028l.012-.012a.55.55 0 0 0 .212-.012l.04-.032.028-.04a1.1 1.1 0 0 0 .012-.12.33.33 0 0 0-.32-.308m10.772-2.192a.492.492 0 0 0 .188-.416.405.405 0 0 0-.388-.44.437.437 0 0 0-.388.468.448.448 0 0 0 .2.4.367.367 0 0 0 .388-.012m-4.552-9.508c-4.736 0-8.3 3.412-8.3 8.668a21.78 21.78 0 0 0 .92 5.732c1.48 3.788 4.336 5.6 7.364 5.6s5.884-1.812 7.364-5.6a20.57 20.57 0 0 0 .952-5.732c.012-5.256-3.548-8.668-8.3-8.668m4.336 8.08a.965.965 0 0 1 .976.976 1.052 1.052 0 0 1-.948 1.08.961.961 0 0 1-1.016-.988h-.012a1.049 1.049 0 0 1 1-1.068M15.14 12.14c-.212 0-.428.012-.64.028v-2.032l-.016-.012h.64c0 .332 0 .668.008 1.008s.008.672.008 1.008m-.684-2.912h.668v.64h-.668zm-5.228.324.012.012h-.012zm-.968.584h.348v-.572h.616v.56h.492v.552h-.492v.664a.51.51 0 0 0 .052.188l.04.04a.55.55 0 0 0 .172.052h.24v.548h-.332a.761.761 0 0 1-.788-.8v-.692H8.26zm-1.932 4.548a.742.742 0 0 1-.48.068c-.264-.052-.52-.108-.772-.16-.064-.856-.1-1.7-.132-2.548l.092.012c.232.036.46.068.692.1a.781.781 0 0 1 .708.772.582.582 0 0 1-.228.492.825.825 0 0 1 .388.68.63.63 0 0 1-.268.584m1.312-3.26a.6.6 0 0 0-.172-.08.14.14 0 0 0-.044-.016c-.348-.116-.7-.232-.676-.692a.611.611 0 0 1 .64-.588.748.748 0 0 1 .772.692c-.08 0-.16 0-.244-.008s-.176-.008-.264-.008a.268.268 0 0 0-.212-.228s-.2-.04-.212.108c-.012.132.148.172.148.172a.7.7 0 0 1 .076.02c.124.032.256.068.376.112a.536.536 0 0 1 .292.268.8.8 0 0 1 .052.316.642.642 0 0 1-.732.612.776.776 0 0 1-.748-.76c.16.016.32.028.48.028a.286.286 0 0 0 .268.252.227.227 0 0 0 .136-.028c.092-.04.1-.132.064-.172m.56 3.616h-.036c-.016-.112-.032-.22-.048-.332s-.036-.22-.048-.332a.314.314 0 0 0-.268-.268 1.7 1.7 0 0 1-.2-.012c-.068 0-.132-.012-.2-.012 0 .292.012.576.024.868v.036c-.1-.012-.2-.02-.3-.032s-.2-.02-.3-.032c-.056-.88-.068-1.772-.068-2.652l-.012-.028c.36.028.72.056 1.08.068a.938.938 0 0 1 .912.94.587.587 0 0 1-.292.532.825.825 0 0 1 .292.532c.016.128.032.256.048.388s.036.26.048.388a5.5 5.5 0 0 1-.632-.052m2.96-.9a1 1 0 0 1-1.12 1.04 1.084 1.084 0 0 1-1.12-1.104l-.012.012v-1.712c.212 0 .428.012.64.028v1.708a.465.465 0 0 0 .48.492.53.53 0 0 0 .372-.132.568.568 0 0 0 .108-.332v-1.72h.652zm-.544-1.952a.767.767 0 0 1-.748-.8v-1.28h.652v1.12a.345.345 0 0 0 .332.36.359.359 0 0 0 .348-.348v-1.12h.668v2.04l.016.016h-.668v-.24a.715.715 0 0 1-.6.252m1.828 3.04a1.029 1.029 0 0 1-1.108-.972h.68a.388.388 0 0 0 .412.372.82.82 0 0 0 .188-.04.043.043 0 0 1 .028-.012.47.47 0 0 0 .092-.08.174.174 0 0 0-.028-.252 1.07 1.07 0 0 0-.228-.092h-.028l-.176-.048a1.111 1.111 0 0 1-.812-.488 1.1 1.1 0 0 1-.08-.4.9.9 0 0 1 .988-.812.962.962 0 0 1 1.056.892h-.68a.341.341 0 0 0-.32-.292.38.38 0 0 0-.28.068.182.182 0 0 0-.052.212.226.226 0 0 0 .12.12c.08.028.212.08.212.08l.028.012c.068.02.14.04.212.056.436.112.864.224.844.808a.96.96 0 0 1-1.068.868m.6-3.04a.944.944 0 0 1-.948-1.04l-.028.012a.966.966 0 0 1 .936-1.052.745.745 0 0 1 .52.188V9.228h.652c.028.972.028 1.948.028 2.92h-.652v-.172a.67.67 0 0 1-.508.212m1.668 3.012a.959.959 0 0 1-1.068-.932c.216-.012.44-.012.668-.012a.375.375 0 0 0 .4.36.382.382 0 0 0 .28-.12.187.187 0 0 0 .028-.24.473.473 0 0 0-.228-.12c-.068-.02-.136-.036-.2-.052a1.082 1.082 0 0 1-.8-.468 1.1 1.1 0 0 1-.08-.4.924.924 0 0 1 .976-.84.88.88 0 0 1 1 .852c-.212.016-.428.028-.64.028a.316.316 0 0 0-.348-.28h-.052a.315.315 0 0 0-.212.12.212.212 0 0 0-.028.148.216.216 0 0 0 .132.132l.08.028v.036c.1.036.208.064.316.092.42.108.836.212.8.776a.978.978 0 0 1-1.024.892m2.972-.32c-.548.076-1.108.128-1.66.18l-.072.008c.028-.908.04-1.812.04-2.72h-.04c.552-.024 1.092-.064 1.644-.1h.1v.588c-.36.04-.72.068-1.08.08v.452c.28-.016.572-.04.852-.068 0 .184 0 .384-.012.572-.136.012-.28.028-.424.04-.14.012-.284.028-.424.04v.492c.376-.028.736-.068 1.108-.12-.004.184-.02.368-.032.552zm1.512-.464c0 .056-.012.116-.016.172a11.2 11.2 0 0 1-1.336.252c.052-.875.068-1.749.079-2.624h.005c.092-.008.184-.016.272-.028s.18-.02.272-.028c0 .512-.024 1.036-.044 1.552-.008.168-.016.332-.02.5a8.1 8.1 0 0 0 .812-.16c0 .116-.012.24-.024.364m-11.412-1.52c-.132 0-.28-.016-.412-.028v.628a1.9 1.9 0 0 1 .208.012c.072 0 .14.012.208.012H7.8a.258.258 0 0 0 .2-.052.308.308 0 0 0 .092-.24.326.326 0 0 0-.308-.332m5.5-2.184a.37.37 0 0 0-.292 0 .458.458 0 0 0-.268.452.469.469 0 0 0 .252.44h-.012a.408.408 0 0 0 .348 0 .469.469 0 0 0 .252-.44.444.444 0 0 0-.28-.452m-7.568 2.412h.16l.028-.052a.265.265 0 0 0 .04-.148.244.244 0 0 0-.252-.252 1 1 0 0 1-.2-.028l-.072-.012c0 .148 0 .292.012.44l.28.04z"/></svg>