<svg xmlns="http://www.w3.org/2000/svg" viewBox="0 0 24 24"><path fill="#44739e" d="M5.158 13.87a2.3 2.3 0 0 1-.339-.057c0 .189.018.383.031.572.053.009.11.017.163.031s.11.022.163.03l.013-.013a.6.6 0 0 0 .233-.013l.044-.035.031-.044a1.2 1.2 0 0 0 .013-.132.363.363 0 0 0-.352-.339m11.849-2.411a.541.541 0 0 0 .207-.458.446.446 0 0 0-.427-.484.481.481 0 0 0-.427.515.493.493 0 0 0 .22.44.404.404 0 0 0 .427-.013M12 1c-5.21 0-9.13 3.753-9.13 9.535a23.96 23.96 0 0 0 1.012 6.305c1.628 4.167 4.77 6.16 8.1 6.16s6.473-1.993 8.101-6.16a22.63 22.63 0 0 0 1.047-6.305C21.143 4.753 17.227 1 12 1m4.77 8.888a1.062 1.062 0 0 1 1.073 1.074A1.157 1.157 0 0 1 16.8 12.15a1.057 1.057 0 0 1-1.117-1.087h-.013a1.154 1.154 0 0 1 1.1-1.175m-1.29 2.292c-.233 0-.47.014-.704.031V9.976l-.017-.013h.704c0 .365 0 .735.009 1.109s.008.739.008 1.108m-.752-3.203h.735v.704h-.735Zm-5.751.357.013.013h-.013Zm-1.065.642h.383v-.629h.678v.616h.541v.607h-.541v.73a.56.56 0 0 0 .057.207l.044.044a.6.6 0 0 0 .189.057h.264v.603h-.365a.837.837 0 0 1-.867-.88v-.761h-.383Zm-2.125 5.003a.816.816 0 0 1-.528.075c-.29-.058-.572-.119-.849-.176-.07-.942-.11-1.87-.145-2.803l.101.013c.255.04.506.075.761.11a.859.859 0 0 1 .779.849.64.64 0 0 1-.251.541.907.907 0 0 1 .427.748.693.693 0 0 1-.295.643m1.443-3.586a.66.66 0 0 0-.189-.088.15.15 0 0 0-.048-.018c-.383-.127-.77-.255-.744-.761a.672.672 0 0 1 .704-.647.823.823 0 0 1 .849.761c-.088 0-.176 0-.268-.008s-.194-.009-.29-.009a.295.295 0 0 0-.234-.251s-.22-.044-.233.119c-.013.145.163.189.163.189a.8.8 0 0 1 .084.022c.136.035.281.075.413.123a.59.59 0 0 1 .321.295.88.88 0 0 1 .058.348.706.706 0 0 1-.806.673.854.854 0 0 1-.822-.836c.176.017.352.031.528.031a.315.315 0 0 0 .294.277.25.25 0 0 0 .15-.031c.101-.044.11-.145.07-.189m.616 3.977h-.039c-.018-.123-.035-.242-.053-.365s-.04-.242-.053-.365a.345.345 0 0 0-.295-.295 1.9 1.9 0 0 1-.22-.013c-.074 0-.145-.013-.22-.013 0 .321.014.633.027.955v.039c-.11-.013-.22-.022-.33-.035s-.22-.022-.33-.035c-.062-.968-.075-1.949-.075-2.917l-.013-.031c.396.031.792.061 1.188.075a1.032 1.032 0 0 1 1.003 1.034.646.646 0 0 1-.321.585.907.907 0 0 1 .321.585c.018.141.035.282.053.427s.039.286.053.427a6 6 0 0 1-.696-.058m3.256-.99a1.1 1.1 0 0 1-1.232 1.144 1.192 1.192 0 0 1-1.232-1.214l-.013.013V12.44c.233 0 .471.013.704.031v1.879a.512.512 0 0 0 .528.541.583.583 0 0 0 .409-.145.625.625 0 0 0 .119-.366v-1.892h.717Zm-.598-2.147a.844.844 0 0 1-.823-.88V9.945h.717v1.232a.38.38 0 0 0 .366.396.395.395 0 0 0 .382-.383V9.958h.735v2.244l.018.018h-.735v-.264a.786.786 0 0 1-.66.277m2.011 3.344a1.132 1.132 0 0 1-1.219-1.069h.748a.427.427 0 0 0 .453.409.9.9 0 0 0 .207-.044.047.047 0 0 1 .031-.013.52.52 0 0 0 .101-.088.191.191 0 0 0-.031-.277 1.18 1.18 0 0 0-.251-.101h-.03l-.194-.053a1.222 1.222 0 0 1-.893-.537 1.21 1.21 0 0 1-.088-.44.99.99 0 0 1 1.087-.893 1.058 1.058 0 0 1 1.161.981h-.748a.375.375 0 0 0-.352-.321.418.418 0 0 0-.308.075.2.2 0 0 0-.057.233.25.25 0 0 0 .132.132c.088.031.233.088.233.088l.031.013c.075.022.154.044.233.062.48.123.951.246.929.888a1.056 1.056 0 0 1-1.175.955m.66-3.344a1.038 1.038 0 0 1-1.043-1.144l-.031.013a1.063 1.063 0 0 1 1.03-1.157.82.82 0 0 1 .572.207V8.977h.717c.031 1.069.031 2.143.031 3.212h-.717V12a.737.737 0 0 1-.559.233m1.835 3.313a1.055 1.055 0 0 1-1.175-1.025c.237-.013.484-.013.735-.013a.413.413 0 0 0 .44.396.42.42 0 0 0 .308-.132.206.206 0 0 0 .03-.264.52.52 0 0 0-.25-.132c-.075-.022-.15-.04-.22-.057a1.19 1.19 0 0 1-.88-.515 1.21 1.21 0 0 1-.088-.44 1.016 1.016 0 0 1 1.073-.924.968.968 0 0 1 1.1.937c-.233.018-.471.031-.704.031a.348.348 0 0 0-.383-.308h-.057a.347.347 0 0 0-.233.132.233.233 0 0 0-.031.163.238.238 0 0 0 .145.145l.088.031v.039c.11.04.229.071.348.102.462.118.92.233.88.853a1.076 1.076 0 0 1-1.126.981m3.269-.352c-.603.084-1.219.141-1.826.198l-.079.009c.03-.999.044-1.993.044-2.992h-.044c.607-.026 1.201-.07 1.808-.11h.11v.647c-.396.044-.792.075-1.188.088v.497c.308-.017.629-.044.937-.075 0 .203 0 .423-.013.63-.15.013-.308.03-.466.044-.154.013-.313.03-.467.044v.541c.414-.031.81-.075 1.219-.132-.004.202-.022.405-.035.607Zm1.663-.51c0 .062-.013.128-.018.189a12.3 12.3 0 0 1-1.469.277c.057-.962.075-1.924.087-2.886h.005c.101-.009.203-.018.299-.031s.198-.022.3-.031c0 .564-.027 1.14-.049 1.708-.009.184-.017.365-.022.55a8.9 8.9 0 0 0 .893-.176c0 .127-.013.264-.026.4M7.389 13.012c-.145 0-.308-.018-.453-.031v.691a2.1 2.1 0 0 1 .228.013c.08 0 .154.013.229.013h.013a.284.284 0 0 0 .22-.057.339.339 0 0 0 .102-.264.359.359 0 0 0-.339-.365m6.05-2.402a.407.407 0 0 0-.321 0 .504.504 0 0 0-.295.497.516.516 0 0 0 .277.484h-.013a.449.449 0 0 0 .383 0 .516.516 0 0 0 .277-.484.488.488 0 0 0-.308-.497m-8.325 2.653h.176l.031-.057a.29.29 0 0 0 .044-.163.268.268 0 0 0-.277-.277 1.1 1.1 0 0 1-.22-.031l-.08-.013c0 .162 0 .321.014.484l.308.044Z"/></svg>