<svg xmlns="http://www.w3.org/2000/svg" viewBox="0 0 24 24"><path fill="#44739e" d="M11.425 19.261v-.01c.232-.071.403-.162.403-.626 0-.55-.322-.726-.99-.726h-2.42v2.75h2.675c.485 0 .838-.131.838-.726-.001-.424-.133-.626-.506-.662m-2.16-.697h1.483c.152 0 .243.051.243.213s-.091.212-.243.212H9.265Zm1.504 1.414H9.265v-.425h1.504c.182 0 .303.041.303.232 0 .148-.121.188-.303.188Zm-7.741-1.047c-.897 0-.998 0-.998-.242 0-.152.13-.213.312-.213h.938c.384 0 .404.081.404.283h.836v-.081c0-.484-.091-.818-1.059-.818h-1.17c-1.059 0-1.1.384-1.1.88 0 .677.142.829 1.404.829 1.079 0 1.18.01 1.18.252 0 .212-.181.232-.363.232H2.393c-.242 0-.363-.02-.363-.313h-.849v.181c0 .595.314.747 1.071.747H3.27c1.121 0 1.363-.121 1.363-.858-.003-.806-.303-.879-1.605-.879m19.092.55c0 .343-.121.485-.464.485h-.838c-.344 0-.465-.142-.465-.485v-1.584h-.837v1.765c0 .677.353 1.01 1.12 1.01h1.201c.777 0 1.12-.33 1.12-1.01v-1.768h-.837Zm-3.59-1.587H16v2.75h.847v-.723h1.313c.263 0 .343.09.343.382v.33h.848v-.474c0-.44-.212-.55-.464-.595v-.011c.383-.09.474-.312.474-.675v-.167c-.004-.494-.186-.817-.831-.817m.01 1.06c0 .202-.081.292-.313.292H16.84v-.665h1.32c.263 0 .384.041.384.283Zm-5.268-1.06-1.474 2.75h.928l.253-.484h1.695l.263.484h.938l-1.503-2.75Zm.019 1.666.525-1.03.55 1.03Zm-5.873-.079c0 .343-.121.485-.464.485h-.838c-.343 0-.464-.142-.464-.485v-1.584h-.837v1.765c0 .677.353 1.01 1.12 1.01h1.201c.776 0 1.12-.33 1.12-1.01v-1.768h-.838Zm12.483-9.54-.392-1.13c-.01-.041-.041-.041-.051 0l-.418 1.13a.151.151 0 0 1-.1.092l-2.028.353c-.051.01-.051.02 0 .02l2.028.343a.144.144 0 0 1 .11.091l.404 1.09c.01.04.039.04.049 0l.394-1.09a.117.117 0 0 1 .101-.091l1.999-.33c.039-.011.039-.021 0-.031l-1.999-.353a.153.153 0 0 1-.097-.094M15.3 7.177l2.028.33a.153.153 0 0 1 .102.094l.413 1.1c.01.04.041.04.051 0l.394-1.1a.151.151 0 0 1 .1-.092l1.998-.33c.041 0 .041-.021 0-.021l-1.998-.353a.152.152 0 0 1-.1-.09l-.394-1.131c-.01-.04-.041-.05-.051 0l-.413 1.131a.152.152 0 0 1-.102.09l-2.028.356c-.051 0-.051.016 0 .016m-2.543 6.226-1.988-.353a.167.167 0 0 1-.11-.091l-.384-1.13c-.02-.041-.039-.041-.06 0l-.404 1.13a.167.167 0 0 1-.11.091l-2.028.353c-.04.01-.04.02 0 .031l2.028.33a.171.171 0 0 1 .11.091l.404 1.09c.021.04.04.04.06 0l.384-1.09a.171.171 0 0 1 .11-.091l1.988-.33c.05-.011.05-.021 0-.031m5.662-.494-1.999-.353a.154.154 0 0 1-.1-.091l-.394-1.124c-.01-.051-.041-.051-.051 0l-.403 1.129a.2.2 0 0 1-.11.092l-2.029.353c-.04 0-.04.02 0 .02l2.029.33a.195.195 0 0 1 .11.09l.403 1.1c.01.04.041.04.051 0l.394-1.1a.152.152 0 0 1 .1-.09l1.999-.33c.04-.006.04-.026 0-.026m-4.966-2.876-2.028.353c-.041.01-.041.02 0 .02l2.028.343a.141.141 0 0 1 .11.091l.404 1.09c.01.04.041.04.05 0l.394-1.09a.119.119 0 0 1 .11-.091l1.989-.33c.041-.011.041-.021 0-.031l-1.989-.353a.146.146 0 0 1-.11-.091l-.392-1.133c-.01-.041-.041-.041-.051 0l-.404 1.129a.193.193 0 0 1-.111.093M7.05 9.438l.909 2.461c.03.092.091.092.121 0l.88-2.461a.308.308 0 0 1 .242-.203l4.473-.754c.102-.01.102-.041 0-.061l-4.47-.789a.341.341 0 0 1-.242-.212l-.88-2.53c-.03-.101-.09-.101-.121 0l-.912 2.54a.396.396 0 0 1-.242.202l-4.562.787q-.15.0315 0 .06l4.562.757a.34.34 0 0 1 .242.203m4.95 6.67c3.916 0 7.558-1.221 9.516-3.169A4.565 4.565 0 0 0 23 9.72a4.587 4.587 0 0 0-1.484-3.219c-1.958-1.948-5.6-3.169-9.516-3.169a15.77 15.77 0 0 0-7.71 1.827C2.17 6.36 1 7.985 1 9.72a4.565 4.565 0 0 0 1.484 3.219c1.947 1.948 5.6 3.169 9.516 3.169M1.616 9.72a3.97 3.97 0 0 1 1.291-2.779C4.754 5.088 8.236 3.948 12 3.948s7.236 1.14 9.083 2.993a3.942 3.942 0 0 1 1.301 2.779c0 3.19-4.662 5.772-10.384 5.772-3.764 0-7.246-1.14-9.093-2.986A3.973 3.973 0 0 1 1.616 9.72"/></svg>