<svg xmlns="http://www.w3.org/2000/svg" fill="#44739e" viewBox="0 0 24 24"><path d="m9.7 17.375.38 2.43a.74.74 0 0 0 .22.45l.36.33a.46.46 0 0 1 .07.07l.38.46a.764.764 0 0 0 .6.28h.56a.711.711 0 0 0 .58-.28l.38-.46a.46.46 0 0 1 .07-.07l.36-.33a.728.728 0 0 0 .23-.45l.39-2.43c-.8.08-1.67.11-2.29.11s-1.5-.03-2.29-.11m-.98-.15-.01-.01-.28-.33c-.18 0-.35.01-.51.01-.57 0-1.38-.03-2.11-.1l.36 2.18a.63.63 0 0 0 .21.4l.33.3a.46.46 0 0 1 .07.07l.35.41a.714.714 0 0 0 .55.25h.51a.646.646 0 0 0 .53-.25l.35-.41-.35-2.21a.81.81 0 0 1 0-.31M8.04 16.2a2.08 2.08 0 0 1-.1-.63 23.2 23.2 0 0 0-1.02-6.42 18.9 18.9 0 0 1-2.89-.35 22.16 22.16 0 0 1 1.09 6.44.75.75 0 0 0 .18.5l.31.36a19.5 19.5 0 0 0 2.32.13.215.215 0 0 1 .11-.03m8.17-7.755a20.14 20.14 0 0 1-4.22.43 19.76 19.76 0 0 1-4.23-.44 24.66 24.66 0 0 1 1.18 7.18.837.837 0 0 0 .19.55l.34.4a18.7 18.7 0 0 0 2.52.15 20.5 20.5 0 0 0 2.52-.15l.34-.4a.785.785 0 0 0 .18-.54 25.03 25.03 0 0 1 1.18-7.18M6.77 8.3a.96.96 0 0 1-.23-.3l-.03-.07c-.36-.72-1.34-2.71-.53-4.25a4.834 4.834 0 0 0-2.48.87c-1.07.98-.1 2.8.23 3.44a14 14 0 0 0 3.05.45c0-.04-.01-.095-.01-.14M20.5 4.545a4.834 4.834 0 0 0-2.48-.87c.81 1.54-.17 3.53-.53 4.25L17.46 8a.96.96 0 0 1-.23.3c0 .05-.01.1-.01.14a14 14 0 0 0 3.05-.45c.33-.645 1.3-2.465.23-3.445m-4.93 12.34-.28.33-.01.01a.81.81 0 0 1 0 .31l-.35 2.21.35.41a.646.646 0 0 0 .53.25h.51a.714.714 0 0 0 .55-.25l.35-.41a.46.46 0 0 1 .07-.07l.33-.3a.63.63 0 0 0 .21-.4l.36-2.18c-.73.07-1.54.1-2.11.1-.16.005-.33-.01-.51-.01m1.51-7.73a23.2 23.2 0 0 0-1.02 6.42 2.08 2.08 0 0 1-.1.63.215.215 0 0 1 .11.02 19.5 19.5 0 0 0 2.32-.13l.31-.36a.75.75 0 0 0 .18-.5A22.16 22.16 0 0 1 19.97 8.8a18.9 18.9 0 0 1-2.89.355M12 8.085a16.73 16.73 0 0 0 4.55-.54c.36-.72 1.41-2.74.25-3.84-1.25-1.17-4.58-1.1-4.79-1.1s-3.56-.07-4.81 1.1c-1.16 1.09-.11 3.12.25 3.84a16.67 16.67 0 0 0 4.55.54"/></svg>