<svg xmlns="http://www.w3.org/2000/svg" viewBox="0 0 24 24"><path fill="#44739e" d="M20.865 1H3.135A2.135 2.135 0 0 0 1 3.135v17.73A2.135 2.135 0 0 0 3.135 23h17.73A2.135 2.135 0 0 0 23 20.865V3.135A2.135 2.135 0 0 0 20.865 1M4.254 7.79a10.2 10.2 0 0 1 1.036-.87l.272-.18 6.335-3.815 7.227 4.18-.032 5.038a3.555 3.555 0 0 1-3.527 3.531l-2.881.022h-.696v1.808l-4.645-2.75L11.988 12v1.815h3.547a1.745 1.745 0 0 0 1.745-1.74v-4.18l-5.268-3.08L6.137 8.25a4.122 4.122 0 0 0-1.883 2.43Zm15.492 8.42a10.2 10.2 0 0 1-1.04.87l-.272.18-6.331 3.815-7.227-4.18.032-5.038a3.555 3.555 0 0 1 3.527-3.531l2.881-.022h.696V6.5l4.645 2.75L12.012 12v-1.815H8.465a1.745 1.745 0 0 0-1.745 1.74v4.18l5.268 3.08 5.875-3.434a4.122 4.122 0 0 0 1.883-2.42Z"/></svg>