<svg xmlns="http://www.w3.org/2000/svg" viewBox="0 0 24 24"><path fill="#44739e" d="m12.28 15.157-2.454-6.58H7.798l3.458 9.312h2.025l3.484-9.312h-2.039Zm9.539.751a1.65 1.65 0 0 1-.979.374 1.338 1.338 0 0 1-1.257-1.366v-4.504h2.2l.68-1.845H19.59V5.898h-1.893v9.114a3.135 3.135 0 0 0 3.123 3.08A3.028 3.028 0 0 0 23 17.25Zm-18.428-4.87c0-.504.384-.88 1.054-.88a1.97 1.97 0 0 1 1.345.675l1.414-1.025a3.374 3.374 0 0 0-2.794-1.41 2.67 2.67 0 0 0-2.904 2.646c0 3.067 4.218 2.657 4.218 4.234 0 .637-.64 1.034-1.368 1.034a2.69 2.69 0 0 1-1.877-1.082L1 16.307a4.312 4.312 0 0 0 3.37 1.777 2.92 2.92 0 0 0 3.239-2.841c0-2.955-4.218-2.648-4.218-4.205"/></svg>