<svg xmlns="http://www.w3.org/2000/svg" fill="#44739e" viewBox="0 0 24 24"><path d="m12.255 14.877-2.231-5.982H8.18l3.144 8.466h1.841l3.167-8.466h-1.854zm8.671.683a1.5 1.5 0 0 1-.89.34 1.216 1.216 0 0 1-1.142-1.242v-4.095h2l.618-1.677H18.9V6.46h-1.721v8.285a2.85 2.85 0 0 0 2.839 2.8A2.753 2.753 0 0 0 22 16.78ZM4.174 11.132c0-.458.349-.8.958-.8a1.792 1.792 0 0 1 1.223.614l1.285-.932A3.067 3.067 0 0 0 5.1 8.732a2.427 2.427 0 0 0-2.64 2.406c0 2.788 3.835 2.415 3.835 3.849 0 .579-.582.94-1.244.94a2.446 2.446 0 0 1-1.706-.984L2 15.922a3.92 3.92 0 0 0 3.064 1.616 2.655 2.655 0 0 0 2.944-2.583c0-2.686-3.834-2.407-3.834-3.823"/></svg>