<svg xmlns="http://www.w3.org/2000/svg" fill="#44739e" viewBox="0 0 24 24"><path d="M16.452 9.053v1.917l1.03 1.03-1.03 1.03v1.917L19.374 12Zm-2.43 3.325a1.466 1.466 0 0 0 1.147-1.468c0-1.125-.73-1.575-1.983-1.575-.639 0-1.213.008-1.661.039v5.305h1.226v-2.073h.049l1.263 2.073h1.49l-1.121-1.7zm-.963-.644a2.9 2.9 0 0 1-.308-.016V10.36c.071-.008.213-.015.339-.015.577 0 .822.251.822.667 0 .447-.332.722-.853.722m6.019-2.681v1.917L20.107 12l-1.029 1.03v1.917L22 12Zm-9.622 3.605-.534-3.285H7.687l-.534 3.285-.534-3.285H5.384l.937 5.306h1.384l.6-3.406.6 3.406h1.384l.937-5.306H9.991ZM4.1 11.452c-.426-.172-.79-.319-.79-.66 0-.3.245-.519.758-.519a3.97 3.97 0 0 1 1.01.166V9.357a5.33 5.33 0 0 0-.966-.095c-1.331 0-2.138.659-2.116 1.656.024 1.024.738 1.3 1.331 1.531.428.165.792.307.792.685s-.319.566-.769.566a3.57 3.57 0 0 1-1.132-.224l-.054 1.162a4.93 4.93 0 0 0 1.093.118c1.354 0 2.177-.764 2.177-1.794 0-.973-.734-1.262-1.334-1.51"/></svg>