<svg xmlns="http://www.w3.org/2000/svg" viewBox="0 0 24 24"><path fill="#44739e" d="M12 2.694v.22ZA9.306 9.306 0 1 0 21.306 12 9.316 9.316 0 0 0 12 2.694m4.348 12.034c0 1.81-1.349 3.098-3.727 3.098H8.418V6.599h4.219c2.178 0 3.374 1.12 3.374 2.775v.247a2.397 2.397 0 0 1-1.595 2.361 2.411 2.411 0 0 1 1.932 2.548ZM12 1a11 11 0 1 0 11 11A11.012 11.012 0 0 0 12 1m0 21.56A10.56 10.56 0 1 1 22.56 12 10.568 10.568 0 0 1 12 22.56m1.849-12.65v-.167c0-.997-.691-1.273-1.903-1.273h-1.32v2.715h1.458c1.273 0 1.765-.521 1.765-1.275m-1.488 3.039h-1.734v2.93h1.442c1.412 0 2.07-.338 2.07-1.473-.014-1.086-.689-1.457-1.778-1.457m-3.593 9.51v-.001Z"/></svg>