<svg xmlns="http://www.w3.org/2000/svg" viewBox="0 0 24 24"><path fill="#44739e" d="M12 2.1a9.9 9.9 0 1 0 9.9 9.9A9.908 9.908 0 0 0 12 2.1m5.766 15.426a.474.474 0 0 1-.511.483H15.9a.474.474 0 0 1-.512-.483v-8.58l-2.408 8.58a.55.55 0 0 1-.55.483h-1.584a.557.557 0 0 1-.55-.483l-2.223-8.58v8.58a.475.475 0 0 1-.513.483H6.268a.474.474 0 0 1-.512-.483V5.993a.484.484 0 0 1 .512-.483h2.53a.593.593 0 0 1 .567.482 81.6 81.6 0 0 1 2.401 9.139 72.3 72.3 0 0 1 2.518-9.139.593.593 0 0 1 .568-.482h2.407a.484.484 0 0 1 .512.482ZM12 1a11 11 0 1 0 11 11A11.012 11.012 0 0 0 12 1m0 21.693A10.693 10.693 0 1 1 22.693 12 10.705 10.705 0 0 1 12 22.693m-3.232-.234v-.001Z"/></svg>