<svg xmlns="http://www.w3.org/2000/svg" viewBox="0 0 24 24"><path fill="#44739e" d="M17.338 5.551a7.77 7.77 0 0 0-1.118-3.308c-1.1-1.33-3.411-1.229-3.436-1.228h-.028A4.2 4.2 0 0 0 12.348 1a12.7 12.7 0 0 0-1.667.102c-.059.012-.138.023-.24.037-1.176.073-2.169.445-2.928 1.347-.495 1.013-.878 2.296-.925 3.421a7.78 7.78 0 0 0 .11 3.059 2.861 2.861 0 0 0 2.873 1.152h.005l5.105-.092c1.582-.03 2.19-.363 2.704-1.486a7.46 7.46 0 0 0-.047-2.989m-3.486 13.738a.92.92 0 0 0 .255.036h.047l.123.047.026-.066a.98.98 0 0 0 .302-.125 1.145 1.145 0 0 0 .425-1.439 1.05 1.05 0 0 0-.075-.132l.023-.061.039-.103-.204-.077-.551-.215-.019.05a1.055 1.055 0 0 0-1.018.784c-.081.264-.061.55.056.8.11.242.319.424.572.501Zm.562-1.785.259.099-.55 1.431-.259-.099Zm.421.424a.895.895 0 0 1-.36 1.042l-.051.027Zm-1.371.135a.817.817 0 0 1 .678-.6l-.531 1.381a.72.72 0 0 1-.11-.161.87.87 0 0 1-.037-.628Zm-5.117 1.106c.027.394.183.767.44 1.065.261.32.577.587.932.793a5.503 5.503 0 0 0 3.171.311 5.15 5.15 0 0 0 1.356-.451c.374-.204.726-.441 1.056-.71.218-.253.341-.574.349-.909.275-2.158.371-4.336.286-6.511a2.454 2.454 0 0 0-.347-1.133 1.17 1.17 0 0 0-.221-.253l-.469-.414a1.475 1.475 0 0 0-.736-.349l-4.444.081c-.242.055-.466.177-.647.348l-.487.464a1.2 1.2 0 0 0-.131.148c-.319.392-.47.894-.421 1.398v.08c.008.28.002 1.885.312 6.042Zm4.732-1.217a1.157 1.157 0 0 1 1.396-.846c.137.04.265.11.374.202l.22.084-.043.11c.039.055.073.111.1.17a1.295 1.295 0 0 1-.482 1.629 1.08 1.08 0 0 1-.563.163 1.028 1.028 0 0 1-.938-.609 1.258 1.258 0 0 1-.064-.902Zm2.654 2.129a1 1 0 0 1-.241.314 7.43 7.43 0 0 1-1.101.741c-.451.228-.933.389-1.431.48-.377.073-.761.11-1.146.11a5.69 5.69 0 0 1-2.201-.441 3.58 3.58 0 0 1-1.039-.867 2.1 2.1 0 0 1-.22-.294 1.321 1.321 0 0 0-.79 1.038c0 1.015 2.022 1.838 4.513 1.838s4.512-.823 4.512-1.838c.015-.402-.308-.777-.856-1.081"/></svg>