<svg xmlns="http://www.w3.org/2000/svg" fill="#44739e" viewBox="0 0 24 24"><path d="M17 6.9c.5 0 .6-.3.6-.5 0-.7-.2-1.3-.6-1.6-.5-.4-1.2-.5-1.8-.3s-1.1.7-1.2 1.4c-.1 0-.1 0-.2.1v-.9c0-.2-.1-.4-.2-.5s-.2-.1-.4-.2c-.3 0-.6.2-.6.6v.9c0 .1 0 .2.1.4-.1.1-.1.2-.1.3 0 .2-.1.4-.3.5s-.3.1-.5.1c-.2-.1-.3-.2-.3-.5v-.2c0-.1 0-.1-.1-.2.1-.1.1-.2.1-.3V5c0-.5-.3-.6-.6-.6-.2 0-.4.1-.4.2-.1.1-.2.3-.2.5v1c0 .1 0 .2.1.3 0 .1-.1.1-.1.2 0 .4 0 .8.3 1.2.2.3.6.5 1.1.6h.2c.3 0 .6-.1.9-.2l.1.1q.3.15.6 0c.2-.1.3-.3.3-.5v-.9c.1 0 .2.1.2.1 0 .6.4 1 1 1.2.3.1.6.2.9.2s.7-.1 1-.2c0 0 .1 0 .1-.1.2-.1.3-.4.3-.7-.1-.2-.3-.4-.6-.3-.1 0-.2 0-.2.1-.2.1-.4.1-.7.1s-.5-.1-.6-.4zm-1.3-1.1H15c.1-.1.1-.2.2-.3.2-.1.4-.2.6-.1.1 0 .3.1.4.4zm-1.7.7q0 .15 0 0m0 .4v-.3zm-4-.2c0-.1 0-.3-.1-.4 0 0 .1-.1.1-.2v-.5c-.2-.8-.7-1.1-1-1.2-.5-.1-.9-.1-1.3.1v-1c-.1-.2-.4-.4-.7-.4s-.5.2-.5.5v2.3c0 .2 0 .3.1.5-.1 0-.1.1-.1.3v1.1c0 .4.3.6.6.6.4 0 .6-.3.6-.6v-.9c0-.2 0-.4-.1-.5.1-.1.1-.2.1-.3 0-.2.1-.3.1-.4.2-.2.4-.3.7-.2.2.1.3.3.3.4 0 .2.1.3.1.4-.1.1-.1.2-.1.4v1c0 .3.1.4.2.5 0 .1.2.2.4.2.3 0 .6-.2.6-.6zm-4 9s.4 0 1 .5c.7.5.9.8.9.8s3.2.1 5.7.1c1.3 0 2.3 0 2.8-.1.7-1 1.7-1.3 1.7-1.3V13H6zm1.6-1.6h8.9v1.1H7.6zM20.5 1.7H3.6C2.1 1.7.9 2.9.9 4.4v13.8c0 1.5 1.2 2.7 2.7 2.7h16.9c1.5 0 2.7-1.2 2.7-2.7V4.4c0-1.5-1.2-2.7-2.7-2.7m-1.3 14.1c0 .5-.3.9-.8 1.1-.1 0-.7.2-1.1.9-.2.3-.5.4-.8.5-.4 0-1.4.1-2.9.1-2.5 0-5.7-.1-5.7-.1-.4 0-.8-.2-.9-.6 0 0-.1-.2-.5-.4q-.45-.3-.6-.3c-.6-.3-.9-.8-.9-1.3v-2.6c0-.6.4-1.1 1-1.1h12c.6 0 1.1.5 1.1 1.1v2.7zm3.1-6.4H1.9v-5c0-.9.8-1.7 1.7-1.7h16.9c.9 0 1.7.8 1.7 1.7v5z"/></svg>