<svg xmlns="http://www.w3.org/2000/svg" viewBox="0 0 24 24"><path fill="#44739e" d="M15.987 11.231c-.48-.288-1.153-.288-1.729-.096.192.096.288.096.48.193l.192.096.865.384h.096q.288-.144.288-.288c0-.096-.096-.192-.192-.289m6.629-.192L8.782 6.044s-.481-.192-.961-.192-.961.192-.961.192L1.48 8.349S1 8.541 1 8.926v2.69c.096.384.48.576.48.576l13.834 5.764s.577.192 1.249.192 1.153-.288 1.153-.288l4.9-2.882s.384-.192.384-.576v-2.69c0-.481-.384-.673-.384-.673M8.974 9.79c-.192.096-.481.193-.673.289s-.288.096-.384.096h-.192c-.096 0-.192-.096-.192-.192s.192-.193.192-.193l.48-.288.096-.096c.096 0 .192-.096.289-.096h.384l.096.096-.096-.096c0-.096.096-.192.288-.192.192-.096.192-.192.192-.192l-.096-.096c-.096-.192-.48-.192-.865-.192-.288 0-.48.096-.672.192h-.288c-.096 0-.096 0-.192-.096l.096.096c0 .096-.096.192-.289.192l-.288.192h-.096c-.192.096-.288.096-.384.192H5.9l-.193-.192c0-.096.096-.192.193-.192l.48-.192c.192-.096.288-.096.48-.192h.288c.097 0 .097 0 .193.096-.096-.096-.096-.096-.096-.193s.096-.096.288-.192l1.633-.672c.096 0 .096 0 .192-.096h.384s.192.096.192.192c0 0 0 .096-.096.192 0 0-.096.096-.192.096l-.576.192c.48 0 .768.096 1.057.288.096.097.192.193.192.289 0 .192-.096.288-.385.48-.096.096-.192.192-.288.192h-.288l.096.096c0 .096-.096.096-.192.192Zm2.402 5.476c-.193 0-.385-.192-.385-.384s.192-.384.385-.384.384.192.384.384-.192.384-.384.384m.768-4.227c-.288.096-.48.289-.768.385-.097 0-.193.096-.289.096s-.288 0-.288-.096v-.193h-.096c-.576 0-1.249-.192-1.441-.48s-.192-.384-.096-.48c.096-.192.384-.385.672-.577h.193c.096 0 .096 0 .192.096l-.096-.096c0-.096.096-.096.192-.192 0 0 .096 0 .096-.096.288 0 .48-.096.672-.192l.096-.096c.193-.096.385-.096.481 0 .096 0 .192.096.192.192s-.096.192-.192.192l-.385.192h-.096c-.096.096-.192.096-.384.192h-.288l-.096-.096s.096 0 .096.096 0 .097-.096.193c0 0-.096 0-.096.096 0 0-.096 0-.096.096-.096.096-.192.096-.192.192s.288.288.768.288c.384 0 .673 0 .961-.192.096-.096.288-.096.384 0v-.096c0-.096.096-.096.192-.192 0 0 .096 0 .096-.096.192-.096.481-.192.673-.289s.384-.096.48 0c.096 0 .192.097.192.193s-.096.192-.192.192l-.576.288c-.096 0-.192.096-.288.096h-.481v.096c0 .096-.096.096-.192.192Zm1.633 5.284c-.096 0-.096.096-.192.096h-.192l-.672-.384s-.385-.096-.385-.769c0-.192.096-.288.096-.288.192-.096.385-.096.385-.096l.768.384s.288.193.288.673c.096.192 0 .288-.096.384m2.306-4.131c-.192.096-.384 0-.48 0-.193-.096-.385-.096-.481-.192l-1.441-.576h-.192c-.096.096-.192.192-.192.288s.096.192.384.288.577.192.961.288h.192c.096 0 .192.096.192.192v.192c-.096.097-.192.097-.288.097h-.192c-.769-.097-1.345-.385-1.633-.673-.192-.192-.289-.288-.192-.48 0-.192.096-.385.288-.481-.096 0-.096-.096-.192-.096 0-.096 0-.192.096-.192h.384c.192.096.192.096.384 0 1.345-.384 2.978 0 3.171.577.192.384-.481.672-.769.768"/></svg>