<svg xmlns="http://www.w3.org/2000/svg" viewBox="0 0 24 24"><path fill="#44739e" d="M16.883 7.659c.494 0 .592-.296.592-.493 0-.691-.197-1.283-.592-1.579-.493-.394-1.183-.493-1.775-.296s-1.086.691-1.184 1.382c-.099 0-.099 0-.198.098v-.888c0-.197-.098-.394-.197-.493s-.197-.099-.394-.197c-.296 0-.592.197-.592.592v.888c0 .098 0 .197.098.394-.098.099-.098.198-.098.296 0 .198-.099.395-.296.494s-.296.098-.494.098c-.197-.098-.296-.197-.296-.493v-.197c0-.099 0-.099-.098-.198.098-.098.098-.197.098-.296v-.986c0-.494-.296-.592-.592-.592-.197 0-.394.098-.394.197-.099.099-.197.296-.197.493v.987c0 .099 0 .197.098.296 0 .099-.098.099-.098.197 0 .395 0 .789.296 1.184.197.296.591.493 1.085.592h.197c.296 0 .592-.099.888-.197l.099.098q.296.148.591 0c.198-.098.296-.296.296-.493v-.888c.099 0 .198.099.198.099 0 .592.394.986.986 1.184.296.098.592.197.888.197s.691-.099.987-.197c0 0 .098 0 .098-.099.198-.099.296-.395.296-.691-.098-.197-.296-.394-.592-.295-.098 0-.197 0-.197.098-.197.099-.394.099-.69.099s-.494-.099-.592-.395Zm-1.282-1.085h-.691c.099-.099.099-.197.198-.296.197-.099.394-.197.592-.099.098 0 .296.099.394.395Zm-1.677.691q0 .148 0 0m0 .394v-.296Zm-3.946-.197c0-.099 0-.296-.099-.395 0 0 .099-.098.099-.197v-.493c-.198-.79-.691-1.086-.987-1.184-.493-.099-.888-.099-1.282.098v-.986c-.099-.197-.395-.395-.691-.395s-.493.198-.493.494v2.269c0 .197 0 .296.098.493-.098 0-.098.099-.098.296v1.085c0 .395.296.592.592.592.394 0 .592-.296.592-.592v-.888c0-.197 0-.394-.099-.493.099-.099.099-.197.099-.296 0-.197.098-.296.098-.395.197-.197.395-.296.691-.197.197.099.296.296.296.395 0 .197.098.296.098.394-.098.099-.098.198-.098.395v.986c0 .296.098.395.197.494 0 .098.197.197.395.197.296 0 .592-.197.592-.592Zm-3.947 8.879s.395 0 .987.493c.691.493.888.789.888.789s3.157.099 5.623.099c1.283 0 2.269 0 2.762-.099.691-.986 1.678-1.282 1.678-1.282v-2.664H6.031Zm1.579-1.579h8.78v1.086H7.61ZM20.336 2.529H3.664A2.653 2.653 0 0 0 1 5.193v13.614a2.653 2.653 0 0 0 2.664 2.664h16.672A2.653 2.653 0 0 0 23 18.807V5.193a2.653 2.653 0 0 0-2.664-2.664m-1.282 13.91c0 .494-.296.888-.789 1.086-.099 0-.691.197-1.086.888-.197.296-.493.394-.789.493-.394 0-1.381.098-2.861.098-2.466 0-5.623-.098-5.623-.098-.395 0-.789-.197-.888-.592 0 0-.099-.197-.493-.395q-.444-.296-.592-.296c-.592-.296-.888-.789-.888-1.282v-2.565c0-.592.394-1.085.986-1.085H17.87c.592 0 1.085.493 1.085 1.085v2.663Zm3.058-6.313H1.987V5.193c0-.888.789-1.677 1.677-1.677h16.672c.888 0 1.677.789 1.677 1.677v4.933Z"/></svg>