<svg xmlns="http://www.w3.org/2000/svg" viewBox="0 0 24 24"><path fill="#44739e" d="M4.375 22.966a3.717 3.717 0 0 1-3.167-2.868c-.08-.307-.085-.849-.085-8.101V4.224l.11-.401A3.71 3.71 0 0 1 3.946 1.11L4.347 1H12c7.025 0 7.678.007 7.967.081a3.727 3.727 0 0 1 2.605 2.162c.33.775.305.152.305 8.754v7.772l-.11.402a3.721 3.721 0 0 1-2.682 2.719L19.7 23h-7.508c-4.129 0-7.647-.011-7.817-.033Zm7.872-7.506a2.186 2.186 0 0 0 1.751-1.672 1.884 1.884 0 0 0-1.036-2.085 13 13 0 0 0-1.32-.408c-1.378-.364-1.635-.502-1.712-.915a.813.813 0 0 1 .603-.928 3.15 3.15 0 0 1 1.149-.009 1.068 1.068 0 0 1 .709.55 1.28 1.28 0 0 1 .117.353c0 .213.11.256.668.256.69 0 .719-.021.638-.463a2.428 2.428 0 0 0-2.629-1.847 2.545 2.545 0 0 0-2.416 1.234 1.49 1.49 0 0 0-.154.737 1.533 1.533 0 0 0 .407 1.25 3.41 3.41 0 0 0 1.822.821c1.43.374 1.572.435 1.771.721a1.25 1.25 0 0 1 .012.863q-.291.564-1.35.55a1.753 1.753 0 0 1-1.21-.371 1.37 1.37 0 0 1-.397-.77c0-.302-.043-.322-.67-.322-.705 0-.707 0-.631.491.211 1.363 1.43 2.169 3.129 2.071a4.84 4.84 0 0 0 .754-.11Zm-6.754-.125a2.833 2.833 0 0 0 1.72-1.175 4.73 4.73 0 0 0 .155-4.18 2.818 2.818 0 0 0-1.21-1.229c-.579-.283-.89-.319-2.698-.319-1.515 0-1.585 0-1.632.092-.069.129-.069 6.664 0 6.792.047.09.118.094 1.687.094a10.56 10.56 0 0 0 1.98-.078Zm-2.372-3.41V9.543h.761a3.19 3.19 0 0 1 1.594.24c.714.362.975.938.975 2.142a2.37 2.37 0 0 1-.54 1.853c-.417.416-.832.529-1.959.529h-.831Zm13.06 3.41c.016-.042.031-1.162.033-2.49a21 21 0 0 1 .048-2.318c.026.053.431 1.168.902 2.478l.856 2.383.513.013c.488.013.516.009.583-.095.038-.061.44-1.15.897-2.42s.846-2.343.869-2.383.042.968.044 2.358c0 1.337.02 2.458.041 2.492s.187.058.613.048l.574-.013v-6.93l-.819-.012a5.4 5.4 0 0 0-.88.029c-.034.023-.456 1.186-.938 2.587s-.895 2.547-.917 2.547-.44-1.137-.932-2.53-.912-2.554-.939-2.587-.257-.058-.897-.048l-.848.013-.014 3.42c-.007 1.879 0 3.444.01 3.477s.182.06.597.06c.478 0 .579-.013.603-.077Z"/></svg>