<svg xmlns="http://www.w3.org/2000/svg" fill="#44739e" viewBox="0 0 24 24"><path d="M6.442 6.65A1.245 1.245 0 0 0 8.121 6l.013-.031a1.276 1.276 0 0 0-.7-1.664 1.242 1.242 0 0 0-1.658.7.9.9 0 0 0-.035.083 1.207 1.207 0 0 0 .701 1.562m-.569 5.905a.9193.9193 0 1 0-.717 1.693.917.917 0 0 0 1.2-.487.919.919 0 0 0-.483-1.206M8.865 4.93a1.331 1.331 0 0 0 1.8-.694l.015-.035a1.366 1.366 0 0 0-.748-1.782 1.334 1.334 0 0 0-1.778.75c-.012.027-.024.055-.035.083a1.3 1.3 0 0 0 .746 1.678M4.9 9.018l.037.016A1.175 1.175 0 0 0 6.476 8.4l.015-.035a1.2 1.2 0 0 0-.66-1.559L5.8 6.8a1.176 1.176 0 0 0-1.528.661 1 1 0 0 0-.025.058A1.157 1.157 0 0 0 4.9 9.018m3.91 2.037-.01-.032a1.038 1.038 0 0 0-1.325-.634l-.045.016a1.016 1.016 0 0 0-.59 1.31c.008.025.016.049.025.074a.989.989 0 0 0 1.274.575v-.011l.041-.013a1.013 1.013 0 0 0 .63-1.285M9.2 8.4l-.006-.02a1.084 1.084 0 0 0-1.382-.664l-.049.017A1.056 1.056 0 0 0 7.151 9.1q.011.036.024.072a1.028 1.028 0 0 0 1.324.6l.048-.015A1.056 1.056 0 0 0 9.2 8.4m2.755-3.835a1.346 1.346 0 0 0 1.818-.7l.013-.032a1.382 1.382 0 0 0-.759-1.8 1.341 1.341 0 0 0-1.791.759c-.013.028-.026.057-.037.086a1.311 1.311 0 0 0 .756 1.687m.794 11.735a.723.723 0 0 0 .573.033h.006l.035-.011a.744.744 0 0 0 .46-.946l-.007-.021a.762.762 0 0 0-.972-.465l-.038.013a.742.742 0 0 0-.427.958.72.72 0 0 0 .37.439m-6.895-5.177a1.127 1.127 0 1 0-1.489.6l.031.013a1.119 1.119 0 0 0 1.458-.613M9.705 5.75c-.017.006-.033.011-.049.018a1.077 1.077 0 0 0-.625 1.39q.01.036.024.072a1.049 1.049 0 0 0 1.35.612l.05-.016a1.077 1.077 0 0 0 .668-1.368l-.01-.028a1.106 1.106 0 0 0-1.408-.68m4.982 10.961a.623.623 0 0 0-.006 1.152.608.608 0 0 0 .477.006.626.626 0 0 0 .342-.815.623.623 0 0 0-.813-.343m.689-2.423a.622.622 0 1 0-.076 1.146h.016a.613.613 0 0 0 .374-.782.625.625 0 0 0-.314-.364m3.636-.614a.34.34 0 0 0 .024-.075.389.389 0 0 0-.3-.46.33.33 0 0 0-.076-.008.389.389 0 0 0-.151.749.381.381 0 0 0 .506-.206zm-1.604 1.537a.5.5 0 0 0-.3.948h.006a.491.491 0 0 0 .643-.262.55.55 0 0 0 .03-.095.5.5 0 0 0-.379-.591m-6.439.924.038-.012a.862.862 0 0 0 .536-1.1l-.006-.019a.886.886 0 0 0-1.128-.543l-.042.015a.86.86 0 0 0-.5 1.111.839.839 0 0 0 1.1.549zM9.05 14.8l.046-.015a.971.971 0 0 0 .6-1.235l-.008-.026a1 1 0 0 0-1.271-.612l-.044.016a.972.972 0 0 0-.564 1.254c.006.021.013.041.02.061a.947.947 0 0 0 1.221.557m-1.724.151-.033-.013a.758.758 0 0 0-.979.442.737.737 0 0 0 .405 1 .759.759 0 0 0 1.025-.389.777.777 0 0 0-.418-1.039Zm4.806 2.181a.682.682 0 1 0 .619.944.7.7 0 0 0 .054-.259.679.679 0 0 0-.673-.685m-2.105.368a.747.747 0 1 0-.98.394.748.748 0 0 0 .982-.394Zm4.959-12.06.026.011a1.372 1.372 0 0 0 1.788-.745 1.387 1.387 0 0 0-2.55-1.084l-.01.024a1.374 1.374 0 0 0 .746 1.794M16.4 8.8a.382.382 0 0 0 .244-.49.389.389 0 1 0-.244.49m.353.67a.3894.3894 0 1 0 .252.737.35.35 0 0 0 .132-.074.381.381 0 0 0 .112-.415v-.006a.389.389 0 0 0-.496-.242m-.198 4.359a.5.5 0 0 0-.314-.943h-.012a.5.5 0 1 0 .326.939zm2.339-4.895a.387.387 0 0 0 .53-.281.389.389 0 1 0-.53.281m.04 1.93a.39.39 0 0 0 .211.509.383.383 0 0 0 .3.006.38.38 0 0 0 .211-.21.389.389 0 1 0-.716-.3zm-2.167.469a.3893.3893 0 0 0 .251.737h.011a.382.382 0 0 0 .233-.487.389.389 0 0 0-.495-.25m1.164-4.648a.383.383 0 0 0 .3.006.377.377 0 0 0 .21-.21.39.39 0 1 0-.51.209zm-3.696 5.909a.5.5 0 0 0 .7.105.512.512 0 0 0 .1-.7.5.5 0 1 0-.8.591zm-.956.355a.5.5 0 1 0 .591.8.5.5 0 0 0 .1-.7.5.5 0 0 0-.691-.1m-2.165.167a.729.729 0 0 0 .146-1.02l-.012-.017a.749.749 0 0 0-1.049-.141l-.022.017a.728.728 0 0 0-.116 1.022l.029.039a.71.71 0 0 0 1 .115zm-.303-1.792a.85.85 0 0 0 .167-1.191l-.012-.017a.875.875 0 0 0-1.225-.167l-.034.026a.851.851 0 0 0-.128 1.2c.011.015.022.031.034.046a.827.827 0 0 0 1.164.131zm3.006-5.34-.009-.026a1.124 1.124 0 0 0-1.431-.692l-.049.017a1.093 1.093 0 0 0-.635 1.411q.01.036.024.072a1.064 1.064 0 0 0 1.37.624l.047-.015a1.1 1.1 0 0 0 .683-1.391m-1.399 7.961a.622.622 0 1 0-.87-.13.626.626 0 0 0 .87.13m.782-5.384a.311.311 0 1 0 .37.5.321.321 0 0 0 .065-.436.311.311 0 0 0-.435-.064m-1.223 1.062.034-.025a.9.9 0 0 0 .179-1.258l-.015-.019a.92.92 0 0 0-1.291-.175l-.047.035a.9.9 0 0 0-.125 1.263c.012.016.024.033.037.048a.873.873 0 0 0 1.228.135zm2.676.309a.322.322 0 0 0 .063-.435.312.312 0 1 0-.062.436zm.554.752a.373.373 0 1 0-.077.521.39.39 0 0 0 .077-.521m.136-3.084h.008a.383.383 0 0 0 .238-.487.39.39 0 1 0-.246.493ZM6.916 20.654a2.4 2.4 0 0 0-.073.263h-.007a2 2 0 0 0-.069-.263l-.541-1.524h-.234l.742 1.97-.3.786h.223l1.03-2.755h-.23zm10.892-1.524h.403v1.969h-.403zm-1.234-.039a1.84 1.84 0 0 0-.687.139l.1.274a1.46 1.46 0 0 1 .545-.121c.252 0 .416.088.416.336v.126c-.595.031-1.18.131-1.18.679 0 .387.285.617.851.617A1.73 1.73 0 0 0 17.33 21v-1.24c0-.486-.285-.669-.756-.669m.376 1.709a1.02 1.02 0 0 1-.34.051c-.3 0-.464-.128-.464-.336 0-.351.4-.384.8-.407zm-11.839-.792c-.241-.092-.42-.168-.42-.407 0-.183.154-.332.42-.332a.807.807 0 0 1 .42.12l.084-.161A1.01 1.01 0 0 0 5.1 19.1c-.4 0-.626.223-.626.507 0 .34.252.461.544.57.256.094.446.183.446.42s-.194.365-.482.365a1.06 1.06 0 0 1-.475-.125L4.42 21a1.236 1.236 0 0 0 .564.135c.434 0 .7-.215.7-.54.001-.357-.266-.469-.573-.587m3.526-.001c-.241-.092-.42-.168-.42-.407 0-.183.153-.332.42-.332a.82.82 0 0 1 .42.12l.084-.161a1.026 1.026 0 0 0-.519-.135c-.4 0-.624.223-.624.508 0 .34.252.46.544.57.256.094.446.182.446.42 0 .223-.194.365-.483.365a1.06 1.06 0 0 1-.474-.125l-.085.17a1.236 1.236 0 0 0 .564.134c.435 0 .7-.215.7-.54 0-.357-.266-.468-.573-.587m10.823-.916a2.07 2.07 0 0 0-.764.138V21.1h.4v-1.633a.954.954 0 0 1 .511-.029l.077-.332a1.27 1.27 0 0 0-.224-.015M18 18.318a.228.228 0 1 0 .247.228.238.238 0 0 0-.247-.228m-7.516 2.59a.35.35 0 0 1-.12.018.293.293 0 0 1-.325-.31V19.3h.445v-.17h-.445v-.569l-.208.081v.488h-.307v.17h.307v1.33a.455.455 0 0 0 .5.493.4.4 0 0 0 .153-.022zM14.7 19.1a.912.912 0 0 0-.636.241.77.77 0 0 0-.617-.241 1.65 1.65 0 0 0-.654.135V21.1H13v-1.746a1.15 1.15 0 0 1 .442-.08c.3 0 .519.15.519.391V21.1h.215v-1.628a.615.615 0 0 1 .486-.2.433.433 0 0 1 .471.449V21.1h.215v-1.388a.6.6 0 0 0-.648-.612m-3.13 0c-.515 0-.833.413-.833 1.019 0 .669.354 1.023.917 1.023a1.32 1.32 0 0 0 .613-.142l-.073-.168a1.15 1.15 0 0 1-.532.125.679.679 0 0 1-.715-.727l1.38-.2v-.117a.729.729 0 0 0-.757-.813m-.636.971c.011-.482.249-.8.636-.8.329 0 .547.2.551.629z"/></svg>