<svg xmlns="http://www.w3.org/2000/svg" viewBox="0 0 24 24"><path fill="#44739e" d="M6.215 6.211a1.372 1.372 0 0 0 1.85-.717l.015-.034a1.406 1.406 0 0 0-.772-1.834 1.369 1.369 0 0 0-1.827.772 1 1 0 0 0-.038.091 1.33 1.33 0 0 0 .772 1.722m-.627 6.507a1.013 1.013 0 1 0-.79 1.865 1.01 1.01 0 0 0 1.322-.536 1.013 1.013 0 0 0-.532-1.329m3.297-8.403a1.467 1.467 0 0 0 1.984-.765l.016-.038a1.505 1.505 0 0 0-.824-1.964 1.47 1.47 0 0 0-1.959.827c-.014.029-.027.06-.039.091a1.433 1.433 0 0 0 .822 1.849M4.516 8.82l.041.018a1.295 1.295 0 0 0 1.695-.699l.017-.039a1.322 1.322 0 0 0-.727-1.718l-.034-.006a1.296 1.296 0 0 0-1.684.728 1 1 0 0 0-.028.064 1.275 1.275 0 0 0 .72 1.652m4.308 2.245-.011-.036a1.144 1.144 0 0 0-1.46-.698l-.049.017a1.12 1.12 0 0 0-.65 1.444c.008.028.017.054.027.082a1.09 1.09 0 0 0 1.404.633v-.012l.045-.014a1.116 1.116 0 0 0 .694-1.416m.43-2.926-.006-.022a1.195 1.195 0 0 0-1.523-.732l-.054.019a1.164 1.164 0 0 0-.675 1.506q.012.04.027.08a1.133 1.133 0 0 0 1.459.661l.053-.017a1.164 1.164 0 0 0 .719-1.495m3.036-4.226a1.483 1.483 0 0 0 2.003-.771l.015-.036a1.523 1.523 0 0 0-.837-1.983 1.478 1.478 0 0 0-1.973.836c-.015.031-.029.063-.041.095a1.445 1.445 0 0 0 .833 1.859m.875 12.931a.797.797 0 0 0 .631.037h.007l.039-.012a.82.82 0 0 0 .507-1.043l-.008-.023a.84.84 0 0 0-1.071-.512l-.042.014a.818.818 0 0 0-.471 1.056.793.793 0 0 0 .408.483M5.567 11.14a1.242 1.242 0 1 0-1.641.661l.034.014a1.233 1.233 0 0 0 1.607-.675m4.244-5.921a.4.4 0 0 0-.054.02 1.187 1.187 0 0 0-.689 1.531q.011.04.026.08a1.156 1.156 0 0 0 1.488.674l.055-.018a1.187 1.187 0 0 0 .736-1.507l-.011-.031a1.219 1.219 0 0 0-1.551-.749m5.49 12.078a.687.687 0 0 0-.007 1.27.67.67 0 0 0 .526.006.69.69 0 0 0 .377-.898.687.687 0 0 0-.896-.378m.759-2.67a.685.685 0 1 0-.084 1.263h.018a.676.676 0 0 0 .412-.862.69.69 0 0 0-.346-.401m4.007-.676a.38.38 0 0 0 .026-.083.429.429 0 0 0-.331-.507.36.36 0 0 0-.083-.009.429.429 0 0 0-.167.826.42.42 0 0 0 .558-.227Zm-1.768 1.693a.551.551 0 0 0-.33 1.045h.006a.541.541 0 0 0 .709-.289.6.6 0 0 0 .033-.104.551.551 0 0 0-.418-.652m-7.095 1.019.041-.014a.95.95 0 0 0 .591-1.212l-.006-.021a.976.976 0 0 0-1.244-.598l-.046.016a.948.948 0 0 0-.551 1.225.925.925 0 0 0 1.212.605Zm-2.115-1.471.051-.017a1.07 1.07 0 0 0 .661-1.361l-.009-.029a1.102 1.102 0 0 0-1.401-.674l-.048.018a1.071 1.071 0 0 0-.622 1.382c.007.023.015.045.022.067a1.044 1.044 0 0 0 1.346.614m-1.9.166-.036-.014a.835.835 0 0 0-1.079.487.812.812 0 0 0 .446 1.102.836.836 0 0 0 1.13-.429.856.856 0 0 0-.461-1.145Zm5.296 2.403a.752.752 0 1 0 .682 1.041.77.77 0 0 0 .06-.286.748.748 0 0 0-.742-.755m-2.319.406a.823.823 0 1 0-1.08.434.824.824 0 0 0 1.082-.434Zm5.464-13.29.029.012a1.512 1.512 0 0 0 1.97-.821 1.528 1.528 0 0 0-2.81-1.194l-.011.026a1.514 1.514 0 0 0 .822 1.977m1.558 3.703a.421.421 0 0 0 .269-.54.429.429 0 1 0-.269.54m.389.738a.429.429 0 1 0 .278.812.39.39 0 0 0 .145-.081.42.42 0 0 0 .124-.458v-.006a.429.429 0 0 0-.547-.267m-.218 4.804a.551.551 0 0 0-.346-1.04H17a.551.551 0 1 0 .359 1.035Zm2.578-5.395a.426.426 0 0 0 .584-.309.429.429 0 1 0-.584.309m.044 2.127a.43.43 0 0 0 .232.561.422.422 0 0 0 .331.007.42.42 0 0 0 .232-.232.429.429 0 1 0-.789-.33Zm-2.388.517a.429.429 0 0 0 .276.812h.012a.421.421 0 0 0 .257-.536.429.429 0 0 0-.545-.276m1.282-5.122a.422.422 0 0 0 .331.007.415.415 0 0 0 .231-.232.43.43 0 1 0-.562.231Zm-4.072 6.512a.551.551 0 0 0 .771.115.564.564 0 0 0 .11-.771.551.551 0 1 0-.881.651Zm-1.054.391a.551.551 0 1 0 .651.881.551.551 0 0 0 .111-.771.551.551 0 0 0-.762-.11m-2.386.184a.803.803 0 0 0 .161-1.124l-.013-.019a.825.825 0 0 0-1.156-.155l-.024.018a.802.802 0 0 0-.128 1.127l.032.043a.782.782 0 0 0 1.102.126Zm-.334-1.975a.937.937 0 0 0 .185-1.312l-.014-.019a.964.964 0 0 0-1.35-.184l-.037.029a.938.938 0 0 0-.141 1.322c.012.016.024.034.037.051a.911.911 0 0 0 1.283.144Zm3.313-5.884-.01-.029a1.239 1.239 0 0 0-1.577-.763l-.054.019a1.204 1.204 0 0 0-.7 1.555q.011.04.027.079a1.172 1.172 0 0 0 1.51.688l.051-.017a1.212 1.212 0 0 0 .753-1.532M12.8 14.249a.685.685 0 1 0-.958-.143.69.69 0 0 0 .958.143m.862-5.933a.343.343 0 1 0 .408.551.354.354 0 0 0 .071-.48.343.343 0 0 0-.479-.071m-1.348 1.171.038-.028a.992.992 0 0 0 .197-1.386l-.016-.021a1.014 1.014 0 0 0-1.423-.193l-.052.039a.992.992 0 0 0-.138 1.391c.014.018.027.037.041.053a.962.962 0 0 0 1.353.149Zm2.949.34a.355.355 0 0 0 .07-.479.344.344 0 1 0-.069.48Zm.611.829a.411.411 0 1 0-.085.574.43.43 0 0 0 .085-.574m.15-3.399h.008a.422.422 0 0 0 .263-.536.43.43 0 1 0-.271.543ZM6.737 21.642a2.7 2.7 0 0 0-.08.29h-.008a2.2 2.2 0 0 0-.076-.29l-.596-1.679h-.258l.818 2.171-.331.866h.246l1.135-3.036h-.253Zm12.003-1.679h.444v2.17h-.444Zm-1.36-.043a2.03 2.03 0 0 0-.757.153l.11.302a1.61 1.61 0 0 1 .601-.133c.277 0 .458.097.458.37v.139c-.655.034-1.3.144-1.3.748 0 .427.314.68.938.68a1.91 1.91 0 0 0 .783-.155v-1.367c0-.535-.314-.737-.833-.737m.414 1.883a1.12 1.12 0 0 1-.374.056c-.331 0-.512-.141-.512-.37 0-.387.441-.423.882-.448Zm-13.046-.872c-.265-.102-.463-.186-.463-.449 0-.202.17-.366.463-.366a.89.89 0 0 1 .463.132l.093-.177a1.113 1.113 0 0 0-.568-.141c-.441 0-.69.246-.69.559 0 .374.278.508.6.628.282.103.491.201.491.463s-.213.402-.531.402a1.17 1.17 0 0 1-.523-.138l-.096.18a1.36 1.36 0 0 0 .621.148c.479 0 .772-.236.772-.595.001-.393-.293-.516-.632-.646m3.886-.002c-.266-.101-.463-.185-.463-.448 0-.202.169-.366.463-.366a.904.904 0 0 1 .463.132l.092-.177a1.13 1.13 0 0 0-.572-.149c-.44 0-.687.246-.687.56 0 .375.277.507.599.628.282.104.492.201.492.463 0 .246-.214.402-.533.402a1.17 1.17 0 0 1-.522-.138l-.094.188a1.36 1.36 0 0 0 .622.147c.479 0 .771-.237.771-.595 0-.393-.293-.515-.631-.647M20.56 19.92a2.28 2.28 0 0 0-.842.152v2.062h.441v-1.8a1.05 1.05 0 0 1 .563-.032l.085-.365a1.4 1.4 0 0 0-.247-.017m-1.609-.852a.251.251 0 1 0 .273.251.262.262 0 0 0-.273-.251m-8.282 2.854a.39.39 0 0 1-.132.02.323.323 0 0 1-.358-.341V20.15h.49v-.187h-.49v-.627l-.229.089v.538h-.339v.187h.339v1.466a.501.501 0 0 0 .551.543.44.44 0 0 0 .168-.024Zm4.646-1.992a1.005 1.005 0 0 0-.701.266.849.849 0 0 0-.68-.266 1.82 1.82 0 0 0-.72.149v2.055h.228V20.21a1.27 1.27 0 0 1 .487-.088c.33 0 .572.165.572.431v1.581h.237V20.34a.678.678 0 0 1 .535-.221.477.477 0 0 1 .519.495v1.52h.237v-1.53a.661.661 0 0 0-.714-.674m-3.449 0c-.568 0-.918.455-.918 1.123 0 .737.39 1.127 1.01 1.127a1.455 1.455 0 0 0 .676-.156l-.081-.185a1.27 1.27 0 0 1-.586.137.748.748 0 0 1-.788-.801l1.521-.22v-.129a.803.803 0 0 0-.834-.896M11.165 21c.012-.531.274-.882.701-.882.362 0 .603.221.607.694Z"/></svg>