<svg xmlns="http://www.w3.org/2000/svg" viewBox="0 0 24 24"><path fill="#44739e" d="M13.491 6.824a1.499 1.499 0 0 0-1.367-1.483V1.034h-.295v4.307a1.499 1.499 0 0 0-1.366 1.483 1.47 1.47 0 0 0 .086.432h2.855a1.47 1.47 0 0 0 .087-.432m5.144-1.483V1.034h-.295v4.307a1.499 1.499 0 0 0-1.366 1.483 1.47 1.47 0 0 0 .087.432h2.854a1.47 1.47 0 0 0 .086-.432 1.499 1.499 0 0 0-1.366-1.483M6.892 7.256a1.47 1.47 0 0 0 .088-.432 1.499 1.499 0 0 0-1.367-1.483V1.034h-.295v4.307a1.499 1.499 0 0 0-1.366 1.483 1.47 1.47 0 0 0 .086.432Zm2.312 6.586H6.162a1.053 1.053 0 0 0-1.069 1.031v4.075a1.03 1.03 0 0 0 .883.996v3.022h.365V19.98h2.808v2.986h.365v-3.042a1.026 1.026 0 0 0 .758-.971v-4.08a1.053 1.053 0 0 0-1.068-1.031m9.355 0H15.51a1.053 1.053 0 0 0-1.068 1.031v4.075a1.03 1.03 0 0 0 .883.996v3.022h.365V19.98h2.808v2.986h.364v-3.042a1.024 1.024 0 0 0 .758-.971v-4.08a1.053 1.053 0 0 0-1.061-1.031M1 16.647h.633v6.279h.8v-6.279h2.362v-1.012H1Zm9.564-1.012h3.588v1.012h-3.588Zm9.357 0v1.012h1.688v6.279h.8v-6.279H23v-1.012Z"/></svg>