<svg xmlns="http://www.w3.org/2000/svg" viewBox="0 0 24 24"><path fill="#44739e" d="M16.978 11.692a25.23 25.23 0 0 1-3.984-4.073c-3.62-4.654-2.331-6.207 2.315-2.475a24.66 24.66 0 0 1 4.079 4.17c3.654 4.752 2.141 6.076-2.41 2.378M23 12.703c0-.071 0-.148-.006-.218 0-.507-.22-1.216-.694-2.102-1.555-2.922-5.178-6.627-8.038-8.215-.805-.449-1.457-.675-1.938-.702a.62.62 0 0 0-.165 0c-.055-.008-.104-.008-.159-.008-4.125 0-11 7.028-11 11.245 0 3.909 1.948 7.345 4.905 9.36.457.312.994.479 1.543.479h7.564c.58 0 1.143-.187 1.614-.531C19.909 19.62 23 15.53 23 12.703"/></svg>