<svg xmlns="http://www.w3.org/2000/svg" viewBox="0 0 24 24"><path fill="#44739e" d="m17.462 15.6-.107-11.994c-.016-.418.608-2.56-5.432-2.605C5.722.946 6.582 3.222 6.574 3.44l-.007 12.492s.008.765.021 2.961l.098.953s.135 3.17 5.073 3.154c4.937-.016 5.505-2.01 5.678-2.99l-.009-1.195c.037-1.066.034-3.215.034-3.215m-.79 2.389c-.687 1.004-3.873 1.279-4.695 1.328-.73.044-3.774-.191-4.42-1.152-.278-.369-.247-2.208-.247-2.208L7.432 3.63s4.008.716 4.409.491c.285-.16-4.43-.433-4.41-1.002.017-.51.357-1.164 4.318-1.164.055 0 .112 0 .169.001 3.676.027 4.811.887 4.643 1.262-.193.43-4.709.832-4.316.917.641.14 4.347-.497 4.347-.497l.146 11.96s.041 1.306-.066 2.391"/></svg>