<svg xmlns="http://www.w3.org/2000/svg" viewBox="0 0 24 24"><path fill="#44739e" d="M19.34 5.337h2.392v.139H19.34ZM2.792 5.36h.997v.103h-.997ZM23 17.842V6.292a.828.828 0 0 0-.828-.829H1.828A.828.828 0 0 0 1 6.292v11.55a.83.83 0 0 0 .737.821h20.526a.83.83 0 0 0 .737-.821M11.958 5.632h.011a.11.11 0 0 1 .032 0 .11.11 0 0 1 .032 0 .209.209 0 0 1 .178.208.205.205 0 0 1-.067.155.195.195 0 0 1-.103.053.2.2 0 0 1-.04 0 .25.25 0 0 1-.042 0 .2.2 0 0 1-.101-.053.205.205 0 0 1-.068-.155.207.207 0 0 1 .168-.208M1.811 17.893V6.238h20.378v11.655Z"/></svg>