<svg xmlns="http://www.w3.org/2000/svg" fill="#44739e" viewBox="0 0 24 24"><path d="M15 21.633a4.13 4.13 0 0 0 1.106-.507v-2.389a7.65 7.65 0 0 1-1.106.4Zm-7.071-.519c.249.1.5.191.765.278v-2.376c-.251-.078-.521-.17-.816-.279 0 1.031.051 1.347.051 2.377m2.271-1.75V21.8a9.3 9.3 0 0 0 1.844.2 13.6 13.6 0 0 0 1.443-.073V19.4c-.5.043-.993.05-1.509.05a12.5 12.5 0 0 1-1.778-.086m3.93 2.473c.077-.013.153-.027.229-.043v-2.507c-.076.014-.153.027-.229.039zm-.43.063q.111-.014.222-.03v-2.514c-.074.01-.148.018-.222.026zm-4.8-.44c.073.024.147.046.22.068v-2.387l-.22-.062Zm.871.24.222.052v-2.42a7 7 0 0 1-.222-.04Zm-.438-.111.228.062v-2.4a8 8 0 0 1-.228-.053Zm5.235.16c.074-.018.148-.036.22-.056v-2.5a9 9 0 0 1-.22.051zm3.395-19.241a5.993.508 0 0 1-5.993.508 5.993.508 0 0 1-5.993-.508A5.993.508 0 0 1 11.97 2a5.993.508 0 0 1 5.993.508m.413 14.851L18.32 8.7a21.11 21.11 0 0 1-6.174.726A24 24 0 0 1 5.664 8.7l-.08 8.655c1.034.88 4.184 1.506 6.462 1.506 1.986.004 5.012-.548 6.33-1.502M11.8 11.006v.443h-.4v-.6l.538-.489.539.486v.6h-.394v-.443zm.482 1.677a.085.085 0 0 1-.085-.085.085.085 0 1 1 .17 0 .085.085 0 0 1-.09.085zm.085 1.053a.085.085 0 1 1-.085-.085.085.085 0 0 1 .08.085zm.148-.259a.085.085 0 1 1 0-.17.085.085 0 0 1 0 .17m0-.226a.086.086 0 1 1 .085-.085.085.085 0 0 1-.09.085zm0-.24a.086.086 0 1 1 .085-.085.085.085 0 0 1-.09.085zm1.648-.205a.085.085 0 1 1-.085.085.085.085 0 0 1 .08-.085zm0 .24a.085.085 0 0 1 .085.085.085.085 0 1 1-.17 0 .085.085 0 0 1 .08-.085zm0 .226a.086.086 0 1 1-.085.085.085.085 0 0 1 .08-.085zm-.247-.79a.086.086 0 0 1 .085.086.085.085 0 1 1-.17 0 .086.086 0 0 1 .08-.086zm0 1.145a.086.086 0 0 1 .085.086.085.085 0 1 1-.17 0 .086.086 0 0 1 .08-.086zm-.231-1.145a.086.086 0 1 1 0 .171.085.085 0 0 1-.085-.085.086.086 0 0 1 .08-.086zm0 1.145a.086.086 0 1 1 0 .171.085.085 0 0 1-.085-.085.086.086 0 0 1 .08-.086zm-.24-1.145a.086.086 0 1 1 0 .171.085.085 0 0 1-.085-.085.086.086 0 0 1 .08-.086zm0 1.145a.086.086 0 1 1 0 .171.085.085 0 0 1-.085-.085.086.086 0 0 1 .08-.086zm-.226-1.145a.086.086 0 0 1 .085.086.085.085 0 1 1-.17 0 .086.086 0 0 1 .08-.086zm0 1.145a.086.086 0 0 1 .085.086.085.085 0 1 1-.17 0 .086.086 0 0 1 .08-.086zM13 12.833a.086.086 0 0 1 .085.086.086.086 0 0 1-.171 0 .086.086 0 0 1 .086-.086m0 .24a.086.086 0 0 1 .085.086.086.086 0 0 1-.171 0 .086.086 0 0 1 .086-.086m0 .227a.085.085 0 1 1-.086.085A.085.085 0 0 1 13 13.3m-3.249 1.288a.086.086 0 0 1-.085-.086.085.085 0 0 1 .085-.085.086.086 0 1 1 0 .171m0-.227a.085.085 0 0 1 0-.17.085.085 0 1 1 0 .17m0-.24a.085.085 0 0 1 0-.17.085.085 0 1 1 0 .17m.206.788a.086.086 0 1 1 0-.171.085.085 0 0 1 .085.085.086.086 0 0 1-.085.086m0-1.088a.085.085 0 1 1 0-.17.085.085 0 1 1 0 .17m0-1.138a.086.086 0 1 1 .085-.085.085.085 0 0 1-.085.085m.226 2.226a.086.086 0 0 1-.085-.086.085.085 0 1 1 .17 0 .086.086 0 0 1-.085.086m0-1.088a.085.085 0 1 1 .085-.085.085.085 0 0 1-.085.085m0-1.138a.085.085 0 0 1-.083-.083.085.085 0 1 1 .17 0 .085.085 0 0 1-.087.083m.24 2.226a.086.086 0 0 1-.085-.086.085.085 0 0 1 .17 0 .086.086 0 0 1-.085.086m0-1.088a.085.085 0 1 1 .085-.085.085.085 0 0 1-.085.085m0-1.138a.085.085 0 0 1-.085-.085.085.085 0 1 1 .17 0 .085.085 0 0 1-.085.085m.231 2.226a.086.086 0 1 1 0-.171.085.085 0 0 1 .085.085.086.086 0 0 1-.085.086m0-1.088a.085.085 0 1 1 0-.17.085.085 0 0 1 0 .17m0-1.138a.086.086 0 1 1 .085-.085.085.085 0 0 1-.085.085m.212.787a.085.085 0 0 1 0-.17.085.085 0 1 1 0 .17m0-.226a.085.085 0 0 1-.085-.085.086.086 0 1 1 .085.085m0-.24a.085.085 0 0 1-.085-.085.086.086 0 1 1 .085.085m1.064-2.971.327.293v-.117h.212v.291l.222.209-.133.108-.628-.588-.648.588-.116-.136zm-.584 4.567a.086.086 0 0 1-.085-.086.086.086 0 0 1 .171 0 .086.086 0 0 1-.086.086m0-.227a.085.085 0 1 1 .086-.085.085.085 0 0 1-.086.08zm0-.24a.085.085 0 1 1 .086-.085.085.085 0 0 1-.086.08zm.234.781a.086.086 0 1 1 0-.171.085.085 0 0 1 .085.085.086.086 0 0 1-.085.081zm0-1.088a.085.085 0 1 1 0-.17.085.085 0 0 1 0 .17m0-1.138a.086.086 0 1 1 .085-.085.085.085 0 0 1-.085.08zm.226 2.226a.086.086 0 0 1-.085-.086.085.085 0 0 1 .085-.085.086.086 0 1 1 0 .171m0-1.088a.085.085 0 0 1 0-.17.085.085 0 1 1 0 .17m0-1.138a.085.085 0 0 1-.085-.085.086.086 0 1 1 .085.085m.24 2.226a.086.086 0 0 1-.085-.086.085.085 0 0 1 .085-.085.086.086 0 1 1 0 .171m0-1.088a.085.085 0 0 1 0-.17.085.085 0 1 1 0 .17m0-1.138a.085.085 0 0 1-.085-.085.086.086 0 1 1 .085.085m.231 2.226a.086.086 0 0 1-.085-.086.085.085 0 0 1 .17 0 .086.086 0 0 1-.085.081zm6.043-6.666c-.082-1.8-.109-3.638-.191-5.435-2.0426.416-4.0818.4857-6.211.486-2.0737.0213-4.1038-.0909-6.106-.542l-.191 5.491c2.1126.5977 4.2827.7427 6.5.776 2.117-.0598 4.184-.2046 6.199-.776"/></svg>