<svg xmlns="http://www.w3.org/2000/svg" viewBox="0 0 24 24"><path fill="#44739e" d="M18.394 9.936a2.46 2.46 0 0 0-.77-.049 2.64 2.64 0 0 0-1.406.521 3.488 3.488 0 0 0-.019 4.896 2.63 2.63 0 0 0 2.022.521c2.87-.358 2.976-5.337.173-5.889m.717 4.161a1.387 1.387 0 0 1-2.61-.077c-.496-1.052-.252-3.048 1.142-3.247a1.444 1.444 0 0 1 1.493.916 2.922 2.922 0 0 1-.025 2.408m-10.387-3.98a2.03 2.03 0 0 0-1.21-.238H6.027v.867H7.53c.262 0 .51-.017.672.231s.079.695.079.982a7.78 7.78 0 0 0-1.753.056 2.18 2.18 0 0 0-.963.497 1.884 1.884 0 0 0 .867 3.166 2.053 2.053 0 0 0 1.406-.074.88.88 0 0 0 .424-.351h.019v.423h1.04v-3.814c0-.669.029-1.325-.597-1.745m-.472 3.999c-.142.787-1.286.989-1.858.564a1.082 1.082 0 0 1-.308-1.161.946.946 0 0 1 .308-.44 1.194 1.194 0 0 1 .558-.239 7.77 7.77 0 0 1 1.307-.015 7.53 7.53 0 0 1-.007 1.291m13.185-5.963a1.47 1.47 0 0 0-.578.22 1.35 1.35 0 0 0-.379.372 1.4 1.4 0 0 0 1.381 2.149 1.36 1.36 0 0 0 .539-.21 1.395 1.395 0 0 0-.963-2.531m.732 2.256a.98.98 0 0 1-.385.138 1.039 1.039 0 0 1-.733-1.88 1.09 1.09 0 0 1 .463-.167 1.039 1.039 0 0 1 .655 1.909m-7.3-2.264h-1.04v2.234a2.776 2.776 0 0 0-1.772-.489 2.567 2.567 0 0 0-1.407.533 3.519 3.519 0 0 0-.191 4.676 2.581 2.581 0 0 0 3.311.279 2.77 2.77 0 0 0 .969-1.512 8.4 8.4 0 0 0 .13-2.274Zm-1.221 5.719a1.408 1.408 0 0 1-1.591 1.1c-1.366-.19-1.54-2.106-1.141-3.141a1.54 1.54 0 0 1 1.141-1.05 1.49 1.49 0 0 1 .462 0c1.325.238 1.472 2.068 1.129 3.091m-10.741.809c-.275-.259-.174-.752-.174-1.1v-2.827h2.948v-.867H2.733V8.685l-.018-.54-.694.237-.278.11-.03.368v1.022H1v.867h.693v3.079a1.688 1.688 0 0 0 .66 1.65 3.41 3.41 0 0 0 1.772.202v-.848c-.363-.004-.935.107-1.218-.159"/></svg>