<svg xmlns="http://www.w3.org/2000/svg" viewBox="0 0 24 24"><path fill="#44739e" d="M15.322 22.596a4.54 4.54 0 0 0 1.217-.557v-2.628a8.4 8.4 0 0 1-1.217.44Zm-7.778-.571c.274.11.55.21.841.306v-2.613c-.276-.086-.573-.187-.897-.307 0 1.134.056 1.481.056 2.614m2.498-1.925v2.68a10.23 10.23 0 0 0 2.028.22 15 15 0 0 0 1.588-.08v-2.78c-.55.047-1.093.055-1.66.055a13.75 13.75 0 0 1-1.956-.095m4.323 2.721c.085-.015.168-.03.252-.048v-2.757c-.084.015-.168.029-.252.043Zm-.473.069q.122-.015.244-.033v-2.765c-.081.011-.163.019-.244.028Zm-5.28-.484c.08.026.162.051.242.075v-2.626l-.242-.068Zm.958.264.244.057v-2.662a8 8 0 0 1-.244-.044Zm-.482-.122.251.068v-2.64a9 9 0 0 1-.251-.058Zm5.759.176c.081-.02.163-.04.242-.062v-2.75a10 10 0 0 1-.242.056Zm3.734-21.165a6.592.559 0 0 1-6.592.559 6.592.559 0 0 1-6.592-.559A6.592.559 0 0 1 11.989 1a6.592.559 0 0 1 6.592.559m.455 16.336-.062-9.525a23.22 23.22 0 0 1-6.791.799 26.4 26.4 0 0 1-7.131-.799l-.088 9.52c1.138.968 4.603 1.657 7.109 1.657 2.184.004 5.513-.603 6.963-1.652m-7.234-6.988v.487h-.44v-.66l.592-.538.593.535v.66h-.434v-.488Zm.53 1.844a.093.093 0 0 1-.093-.093.093.093 0 1 1 .187 0 .093.093 0 0 1-.099.093Zm.094 1.159a.093.093 0 1 1-.094-.094.093.093 0 0 1 .088.094Zm.162-.285a.093.093 0 1 1 0-.187.093.093 0 0 1 0 .187m0-.249a.095.095 0 1 1 .094-.093.093.093 0 0 1-.099.093Zm0-.264a.095.095 0 1 1 .094-.093.093.093 0 0 1-.099.093Zm1.813-.225a.093.093 0 1 1-.093.093.093.093 0 0 1 .088-.093Zm0 .264a.093.093 0 0 1 .094.093.093.093 0 1 1-.187 0 .093.093 0 0 1 .088-.093Zm0 .248a.095.095 0 1 1-.093.094.093.093 0 0 1 .088-.094Zm-.271-.869a.095.095 0 0 1 .093.095.093.093 0 1 1-.187 0 .095.095 0 0 1 .088-.095Zm0 1.26a.095.095 0 0 1 .093.094.093.093 0 1 1-.187 0 .095.095 0 0 1 .088-.094Zm-.255-1.26a.095.095 0 1 1 0 .188.093.093 0 0 1-.093-.093.095.095 0 0 1 .088-.095Zm0 1.26a.095.095 0 1 1 0 .188.093.093 0 0 1-.093-.094.095.095 0 0 1 .088-.094Zm-.264-1.26a.095.095 0 1 1 0 .188.093.093 0 0 1-.093-.093.095.095 0 0 1 .088-.095Zm0 1.26a.095.095 0 1 1 0 .188.093.093 0 0 1-.093-.094.095.095 0 0 1 .088-.094Zm-.248-1.26a.095.095 0 0 1 .093.095.093.093 0 1 1-.187 0 .095.095 0 0 1 .088-.095Zm0 1.26a.095.095 0 0 1 .093.094.093.093 0 1 1-.187 0 .095.095 0 0 1 .088-.094Zm-.241-.874a.095.095 0 0 1 .093.095.095.095 0 0 1-.188 0 .095.095 0 0 1 .095-.095m0 .264a.095.095 0 0 1 .093.095.095.095 0 0 1-.188 0 .095.095 0 0 1 .095-.095m0 .25a.093.093 0 1 1-.095.093.093.093 0 0 1 .095-.093m-3.574 1.417a.095.095 0 0 1-.093-.095.093.093 0 0 1 .093-.093.095.095 0 1 1 0 .188m0-.25a.093.093 0 0 1 0-.187.093.093 0 1 1 0 .187m0-.264a.093.093 0 0 1 0-.187.093.093 0 1 1 0 .187m.227.867a.095.095 0 1 1 0-.188.093.093 0 0 1 .093.093.095.095 0 0 1-.093.095m0-1.197a.093.093 0 1 1 0-.187.093.093 0 1 1 0 .187m0-1.252a.095.095 0 1 1 .093-.093.093.093 0 0 1-.093.093m.248 2.449a.095.095 0 0 1-.093-.095.093.093 0 1 1 .187 0 .095.095 0 0 1-.094.095m0-1.197a.093.093 0 1 1 .094-.093.093.093 0 0 1-.094.093m0-1.252a.093.093 0 0 1-.091-.091.093.093 0 1 1 .187 0 .093.093 0 0 1-.096.091m.264 2.449a.095.095 0 0 1-.093-.095.093.093 0 0 1 .187 0 .095.095 0 0 1-.094.095m0-1.197a.093.093 0 1 1 .094-.093.093.093 0 0 1-.094.093m0-1.252a.093.093 0 0 1-.093-.093.093.093 0 1 1 .187 0 .093.093 0 0 1-.094.093m.254 2.449a.095.095 0 1 1 0-.188.093.093 0 0 1 .094.093.095.095 0 0 1-.094.095m0-1.197a.093.093 0 1 1 0-.187.093.093 0 0 1 0 .187m0-1.252a.095.095 0 1 1 .094-.093.093.093 0 0 1-.094.093m.234.866a.093.093 0 0 1 0-.187.093.093 0 1 1 0 .187m0-.249a.093.093 0 0 1-.094-.093.095.095 0 1 1 .094.093m0-.264a.093.093 0 0 1-.094-.093.095.095 0 1 1 .094.093m1.17-3.268.36.323v-.129h.233v.32l.244.23-.146.119-.691-.647-.713.647-.127-.15Zm-.642 5.024a.095.095 0 0 1-.094-.095.095.095 0 0 1 .188 0 .095.095 0 0 1-.094.095m0-.25a.093.093 0 1 1 .094-.093.093.093 0 0 1-.094.088Zm0-.264a.093.093 0 1 1 .094-.093.093.093 0 0 1-.094.088Zm.257.859a.095.095 0 1 1 0-.188.093.093 0 0 1 .094.094.095.095 0 0 1-.094.089Zm0-1.196a.093.093 0 1 1 0-.187.093.093 0 0 1 0 .187m0-1.252a.095.095 0 1 1 .094-.094.093.093 0 0 1-.094.088Zm.249 2.448a.095.095 0 0 1-.094-.094.093.093 0 0 1 .094-.094.095.095 0 1 1 0 .188m0-1.196a.093.093 0 0 1 0-.187.093.093 0 1 1 0 .187m0-1.252a.093.093 0 0 1-.094-.094.095.095 0 1 1 .094.094m.264 2.448a.095.095 0 0 1-.094-.094.093.093 0 0 1 .094-.094.095.095 0 1 1 0 .188m0-1.196a.093.093 0 0 1 0-.187.093.093 0 1 1 0 .187m0-1.252a.093.093 0 0 1-.094-.094.095.095 0 1 1 .094.094m.254 2.448a.095.095 0 0 1-.094-.094.093.093 0 0 1 .187 0 .095.095 0 0 1-.093.089Zm6.647-7.332c-.09-1.98-.12-4.002-.21-5.979-2.247.458-4.49.535-6.832.535-2.281.023-4.514-.1-6.717-.596l-.21 6.04c2.324.657 4.711.817 7.15.853 2.329-.065 4.602-.225 6.819-.853"/></svg>