<svg xmlns="http://www.w3.org/2000/svg" viewBox="0 0 24 24"><path fill="#44739e" d="M20.337 14.473c-.572-.072-1.08-.316-1.498-.72-.413-.399-.666-.876-.762-1.438-.05-.29-.038-.734.026-1.005.11-.461.313-.848.631-1.199.194-.214.535-.466.765-.565l.08-.034.197.198.197.198-.164.077c-.406.19-.748.501-.961.875-.363.637-.359 1.428.01 2.058.557.949 1.74 1.303 2.718.812.43-.215.756-.555.973-1.012l.081-.171.191.19c.223.221.219.206.09.437-.305.543-.842.985-1.44 1.184-.321.107-.805.156-1.134.115m-15.989-.786c-.153-.017-.273-.062-.358-.135-.098-.083-.14-.177-.14-.313-.001-.135.065-.269.168-.349.067-.05.07-.055.039-.075-.052-.031-.102-.127-.102-.19 0-.083.041-.17.101-.214l.052-.039-.06-.053c-.11-.097-.137-.172-.137-.38 0-.165.004-.193.047-.272.052-.099.153-.199.254-.25.134-.068.194-.074.66-.061l.446.012v.186h-.132c-.122 0-.13.003-.105.028.117.117.143.377.056.555-.059.121-.175.225-.306.277-.082.032-.136.039-.321.041-.189.002-.228.007-.258.034-.046.042-.045.117.001.16.032.029.076.034.363.044.348.011.428.028.537.111.131.1.172.345.089.525-.118.251-.495.402-.894.358m.362-.212c.218-.046.331-.157.331-.326 0-.096-.04-.157-.134-.203-.055-.028-.116-.035-.331-.041-.239-.006-.268-.004-.318.028-.185.117-.218.361-.063.471.113.081.328.111.515.071m.045-1.249c.128-.064.186-.164.185-.321 0-.145-.048-.244-.15-.311-.066-.044-.087-.048-.231-.048-.19 0-.271.033-.351.147-.044.062-.053.093-.058.199-.008.171.039.262.171.331.129.067.303.068.434.003m3.85.699a3 3 0 0 1-.118-.017l-.057-.009v-.335l.048.012c.026.006.127.016.223.021.164.009.179.007.236-.032.048-.032.062-.055.066-.104.005-.052-.003-.071-.047-.107-.029-.025-.095-.058-.145-.075-.274-.089-.383-.193-.408-.388-.049-.363.29-.604.779-.553l.148.015-.004.156c-.003.086-.008.159-.01.162-.003.003-.068-.004-.144-.015-.213-.031-.324.005-.349.111-.017.07.061.141.228.209.076.031.168.074.204.096.253.158.245.554-.016.732-.13.089-.426.145-.634.121m4.449 0c-.245-.063-.357-.212-.336-.445.018-.198.151-.357.367-.44.112-.042.321-.083.425-.083h.077v-.088c0-.07-.009-.097-.048-.14-.09-.1-.336-.103-.572-.008-.058.023-.11.036-.116.029-.007-.007-.018-.084-.024-.171l-.012-.159.102-.028c.258-.071.576-.079.777-.019.109.032.241.156.276.26.018.052.026.222.032.668l.008.599h-.388v-.198l-.065.067c-.086.089-.22.148-.357.157-.061.004-.127.004-.146-.002Zm.367-.354c.078-.045.151-.16.162-.254l.009-.081h-.104c-.26 0-.424.126-.369.283.034.099.177.124.302.051Zm1.311.348c-.144-.04-.218-.101-.278-.228-.035-.075-.037-.112-.042-.704l-.005-.625h.404v.511c0 .282.008.543.017.581.019.085.076.131.163.131.086.001.152-.034.226-.121.106-.124.118-.195.118-.676v-.426h.42V12.9h-.385v-.225l-.079.085c-.046.049-.117.1-.169.123-.097.042-.302.061-.39.037Zm-13.218-.034c-.086-.039-.139-.109-.163-.213-.01-.043-.018-.31-.018-.598l-.001-.52H1v-.192h.332v-.502l.102-.029c.056-.015.111-.028.122-.028.015 0 .021.076.021.279v.28h.454v.192h-.454v.468c.001.257.008.498.017.536.025.109.068.14.197.141.06 0 .137-.003.17-.009l.062-.009v.105c0 .102-.001.105-.053.116-.029.006-.127.012-.218.013-.128.001-.183-.006-.238-.031Zm.99.01c-.086-.027-.187-.135-.211-.225-.011-.042-.016-.117-.011-.168.029-.28.304-.458.752-.487l.173-.012-.008-.134c-.01-.168-.047-.239-.154-.293-.131-.066-.356-.046-.564.051-.045.021-.086.035-.089.031-.004-.004-.011-.052-.016-.107l-.01-.1.091-.034c.152-.057.294-.077.495-.069.211.008.299.04.393.142.094.103.102.169.102.819v.591h-.226l-.005-.134-.006-.134-.044.064c-.053.078-.164.161-.263.196-.085.03-.31.032-.4.003Zm.373-.191c.046-.013.105-.054.163-.111.072-.072.097-.112.126-.207.049-.158.048-.202-.003-.202-.102 0-.339.039-.422.07-.188.071-.268.227-.185.363.06.098.177.13.321.087m3.09.178c-.15-.049-.296-.19-.35-.337-.146-.397-.053-.87.212-1.08.109-.086.227-.12.409-.12s.308.043.409.142c.113.109.161.233.171.438l.008.171H5.803l.009.137c.025.371.243.534.636.475.076-.011.172-.035.215-.054s.079-.031.082-.028.007.052.01.109l.005.104-.096.033c-.071.025-.16.035-.341.04-.212.005-.26.002-.356-.03m.61-1.001c0-.013-.012-.063-.026-.112-.087-.292-.504-.325-.664-.052-.024.042-.049.101-.055.131l-.011.056h.378c.301 0 .378-.005.378-.023m.625 1.025c-.047-.008-.048-.011-.048-.122v-.115l.048.012c.106.025.389.032.465.01.134-.037.216-.145.195-.257-.016-.087-.109-.155-.284-.208-.347-.105-.442-.199-.441-.432 0-.187.083-.311.261-.395.077-.035.131-.046.267-.051.094-.004.214-.002.267.004l.096.012v.22l-.109-.025c-.232-.054-.466-.005-.518.109-.072.158.023.275.286.35.317.09.428.198.428.414 0 .205-.09.335-.296.431-.087.04-.121.045-.333.048-.13.002-.258-.001-.284-.005m2.882-.017c-.168-.051-.279-.148-.35-.303-.121-.267-.099-.664.05-.919.062-.106.205-.227.321-.272.147-.057.564-.069.645-.018.017.01.017.05.002.178-.011.091-.022.168-.024.171-.003.004-.06-.007-.128-.024-.283-.069-.46.041-.508.316-.025.146.001.323.062.416.082.125.253.164.47.107.119-.031.131-.023.131.09 0 .04.006.108.011.151l.011.08-.123.028c-.156.035-.453.035-.57-.001m.986-1.116v-1.128h.405l-.007.459-.006.459.081-.081c.105-.105.221-.146.409-.146.23.001.364.09.421.282.019.064.025.215.025.682v.6h-.402v-.533c0-.568-.008-.63-.085-.671-.055-.03-.163-.023-.225.015-.031.019-.08.067-.109.108-.094.129-.106.204-.106.665v.416h-.402Zm8.115.938.005-.189.401-.357c.423-.377.48-.445.481-.579.002-.179-.123-.297-.315-.297-.131 0-.274.042-.432.126l-.127.068.004-.221.005-.222.102-.031c.056-.017.194-.045.306-.061.445-.064.781.045.917.299.032.06.038.1.038.255 0 .159-.005.194-.041.262-.067.126-.182.25-.472.504l-.271.239.405.005.405.004v.384h-1.417Zm2.391.015v-.175h-.856v-.438l.388-.576.389-.577h.569v1.206h.262v.385h-.262v.349h-.49Zm0-.939c0-.214-.006-.372-.015-.363-.018.02-.48.709-.489.728-.003.008.109.014.249.014h.255Zm-4.916.379c-.214-.054-.439-.239-.534-.438-.268-.56.123-1.188.739-1.188.666 0 1.051.728.681 1.286-.085.128-.182.209-.338.284-.117.057-.144.062-.306.067-.097.003-.206-.003-.242-.011m.493-.182c.19-.098.311-.24.37-.434.096-.317-.056-.657-.363-.81-.094-.047-.118-.051-.295-.051-.176 0-.201.004-.293.049-.14.069-.265.196-.333.34-.051.107-.056.133-.056.284 0 .153.005.176.058.283.07.143.179.258.303.321.14.072.167.077.347.072.142-.005.18-.012.262-.054m-.524-.385c0-.169-.003-.307-.006-.307s-.059.02-.123.044-.12.043-.125.043-.008-.049-.008-.109v-.109l.401-.144c.22-.08.409-.144.419-.144.013 0 .019.125.019.415v.415l-.274.096a28 28 0 0 0-.289.102c-.007.004-.014-.132-.014-.302"/></svg>