<svg xmlns="http://www.w3.org/2000/svg" viewBox="0 0 24 24"><path fill="#44739e" d="M21.0947 14.698c-.624-.0785-1.1777-.3446-1.6344-.786-.4501-.435-.7258-.9553-.8309-1.5685-.0542-.3163-.0415-.8.0287-1.0966.1192-.5028.3413-.9251.688-1.308.2114-.2332.584-.508.8348-.6156l.0866-.037.2154.2159.2154.216-.1795.0838c-.4427.2069-.8159.5466-1.048.954-.3963.6954-.3921 1.558.011 2.2455.607 1.0355 1.8983 1.4212 2.9652.8858.4682-.235.8243-.6058 1.0606-1.1045l.0882-.1862.2085.2072c.2432.2416.2398.225.0984.4769-.3323.5921-.9184 1.0743-1.5702 1.2916-.351.1171-.879.1707-1.2379.1256zm-17.4425-.8574c-.1665-.0184-.2981-.068-.3909-.1474-.1062-.0909-.1517-.193-.1522-.3415-.0006-.1469.0705-.2938.1838-.3802.0725-.0553.0753-.0608.0415-.082-.0557-.0347-.1112-.1385-.1112-.208-.0001-.09.0448-.1847.1107-.2334l.0571-.0422-.066-.058c-.12-.1053-.1496-.1874-.1496-.4144 0-.1802.005-.21.051-.2968.0568-.1077.1677-.2166.2773-.2725.1467-.0748.2118-.081.7202-.0672l.4868.0132v.2037h-.1444c-.1325 0-.1419.003-.1138.0306.1271.1272.1555.4106.0605.6047-.0644.1318-.1904.2459-.3335.3022-.0896.0352-.1486.0428-.3503.0448-.2065.002-.2483.008-.2813.0375-.0501.0454-.0495.1279.001.1739.0352.0318.0832.0376.3957.048.3795.0126.4666.0307.5861.1218.1429.109.188.3765.0967.5723-.128.274-.5395.439-.9754.391zm.3948-.2312c.238-.0504.3617-.1719.3617-.3554 0-.105-.0437-.1716-.1461-.2224-.0601-.0298-.1268-.038-.3612-.0442-.2615-.007-.2927-.004-.3471.0302-.2021.128-.2378.3943-.069.5145.1238.0881.3584.1204.5617.0773m.0499-1.363c.1396-.0697.2022-.1783.2015-.35-.0006-.1577-.053-.2663-.1637-.3396-.0719-.0476-.0955-.0525-.2523-.0525-.2075 0-.2953.0368-.3825.1603-.0479.0678-.0579.1022-.0634.2176-.009.1867.0421.2858.1859.3609.1407.0735.3309.0748.4745.003zm4.1991.7626a3 3 0 0 1-.1287-.0181l-.062-.0102v-.3651l.0525.0126c.0288.007.1383.0174.2432.0232.1786.01.195.008.2574-.0348.0523-.0355.068-.0603.0725-.1138.005-.0564-.004-.0769-.0519-.1168-.0317-.0267-.103-.0633-.1583-.0815-.298-.0976-.417-.2108-.4452-.4237-.0525-.396.3173-.6583.8499-.603l.162.0168-.005.1703c-.003.0937-.008.173-.0108.1762-.003.003-.074-.004-.1571-.0161-.2322-.0337-.3535.005-.3808.1204-.0181.0764.0673.1548.2487.2282.0839.034.184.0814.2225.1055.2766.1724.2675.6034-.0168.7977-.1423.0973-.4653.159-.692.1321zm4.8537-.0003c-.2672-.0682-.3898-.2304-.3667-.4853.0196-.2159.1648-.3896.4007-.4793.122-.0464.3503-.0915.4635-.0915h.0841v-.095c0-.077-.01-.1062-.0524-.1531-.0982-.1087-.367-.1124-.624-.009-.0628.0253-.1198.0398-.1269.0322-.007-.008-.0188-.0918-.0261-.1872l-.0132-.1734.1115-.0307c.2813-.0774.6283-.0858.8478-.0206.1188.0353.2624.1703.3015.2836.0196.0569.0284.242.0347.7295l.008.6532h-.423v-.2157l-.0702.0723c-.0946.0974-.2408.1616-.3904.1715-.0666.004-.1382.004-.1592-.002zm.4002-.3862c.0848-.049.165-.1746.1765-.2768l.01-.088h-.1134c-.283 0-.4621.1373-.4025.3084.0377.1083.1934.1349.3295.0563zm1.4307.3806c-.1573-.0437-.2381-.1103-.3032-.2496-.038-.0814-.0404-.1213-.046-.7676l-.006-.6818h.4408l.0005.5579c.0002.3068.008.5917.0179.6331.0216.0933.0833.143.178.1436.0943.0005.1658-.0378.247-.1327.1152-.1345.1287-.2122.1287-.7368v-.465h.4577v1.6782h-.4195v-.2463l-.0865.0925c-.0503.0538-.1273.11-.1839.1344-.1062.0457-.33.0668-.4257.0402zm-14.4199-.038c-.0935-.0425-.1518-.1186-.178-.2325-.0108-.0464-.0196-.3375-.0199-.6513l-.0004-.5674H0v-.2098h.3624v-.548l.1109-.0311c.061-.0171.121-.0311.1335-.0311.0165 0 .0226.0828.0226.3051v.3052h.4958v.2098H.6293l.0005.5101c.0003.2806.008.5437.0177.5846.0275.1185.0751.1525.2151.1535.0658.0005.1496-.003.1863-.009l.0668-.01v.1143c0 .1115-.001.1145-.0572.1264-.0315.007-.1387.0131-.2383.0141-.139.001-.1995-.006-.2594-.0337zm1.0803.0114c-.0937-.0299-.2043-.1476-.2308-.2458-.0122-.0451-.0175-.1275-.0118-.1831.0313-.3052.332-.5.821-.5317l.1882-.0122-.009-.1469c-.0106-.1824-.0514-.2603-.1674-.319-.1431-.0726-.3883-.0507-.6153.0548-.0498.0232-.0937.0385-.0975.0341-.004-.004-.0118-.057-.0177-.1168L1.49 11.401l.0995-.0372c.166-.062.3204-.0836.5396-.0753.2305.009.3268.0437.4292.1556.1022.1116.1112.1836.1112.8933v.645H2.423l-.006-.1466-.006-.1466-.0477.0702c-.0578.0851-.1797.1759-.2875.2139-.0923.0326-.3385.0344-.4363.003zm.407-.208c.0496-.0146.1147-.0593.177-.1211.0792-.0788.1061-.123.1382-.2267.053-.172.0524-.2203-.004-.2203-.1111 0-.3696.0433-.4598.0771-.2056.077-.2926.2475-.202.396.065.1066.1932.1413.3502.095zm3.371.1936c-.1638-.0534-.3231-.2068-.3822-.3679-.159-.4331-.0575-.949.2316-1.1776.1185-.0937.247-.1316.4462-.1316.198 0 .3352.0478.4459.1552.123.1195.1756.254.1864.4778l.009.187H5.2392l.0102.1491c.0278.4054.2649.5824.6944.5184.0822-.0123.1873-.0388.2335-.059s.0867-.034.09-.0306c.003.003.008.057.0114.1194l.005.1134-.105.036c-.0774.0266-.1744.0378-.3718.043-.2309.006-.2834.002-.3883-.0326zm.6648-1.092c0-.0138-.013-.0686-.0287-.1218-.0948-.3192-.5488-.355-.7234-.0572-.0267.0455-.054.1101-.0607.1435l-.012.0607h.4123c.3287 0 .4125-.005.4125-.0251zm.6818 1.1187c-.051-.009-.0524-.0125-.0524-.1339v-.125l.0524.0126c.1163.0277.4248.0349.5072.0118.147-.0412.2363-.1585.2134-.2805-.0178-.095-.1195-.1695-.3105-.2275-.3781-.1147-.4821-.2167-.4812-.4715.0007-.2037.0907-.3392.2856-.4299.0837-.039.1424-.0504.2907-.0566.1022-.004.2331-.002.2909.005l.105.0131v.2401l-.1192-.0279c-.2523-.059-.5075-.005-.5641.1193-.0787.1727.025.2996.312.3813.3448.0982.4666.216.4666.4518 0 .2235-.0979.366-.3233.4702-.0952.044-.1314.0493-.3632.0525-.1416.002-.281-.0004-.31-.005zm3.1443-.0186c-.183-.0562-.3046-.1618-.3816-.3312-.132-.2906-.1084-.724.0546-1.0022.0677-.1156.2235-.2477.3494-.2966.1603-.0622.6154-.0753.7044-.0203.018.0111.0183.0546.002.1947-.0118.0992-.0238.1833-.0265.1868-.003.004-.0657-.008-.14-.0264-.3083-.075-.5012.0452-.5534.3445-.0278.1596.001.3528.0676.4541.0895.1361.2757.1787.512.1171.1304-.034.143-.0254.1435.0981.0002.0431.006.1173.0121.1648l.012.0864-.1349.0307c-.1702.0387-.4938.0384-.6208-.0005zm1.0752-1.218v-1.23h.442l-.007.5006-.007.5006.0883-.0882c.1147-.1145.241-.1595.4463-.1591.2504.0005.3965.098.4593.3067.021.0699.027.2348.027.7446v.655h-.4386V12.4c0-.6187-.009-.6873-.0925-.7321-.0603-.0323-.1781-.0241-.2455.017-.0338.0206-.0875.0735-.1194.1174-.1018.1407-.1148.2225-.1148.7257v.4543h-.4386zm8.8533 1.0239.005-.2062.4375-.3898c.4617-.4112.5239-.486.525-.6316.002-.1958-.1348-.3245-.3436-.3245-.1426 0-.2991.0459-.4717.1382l-.1388.0743.005-.2419.005-.2419.1116-.034c.0614-.0187.2115-.0484.3337-.066.4861-.0701.8526.0493 1.0007.326.035.0656.0415.1086.0415.2778 0 .174-.006.2115-.0453.286-.0727.1378-.1987.2726-.5143.5502l-.296.2604.442.005.4422.005v.4189h-1.546zm2.6086.0155v-.1907h-.9345v-.4772l.4237-.6291.4237-.6292h.6211v1.316h.286v.4195h-.286v.3814h-.534zm0-1.0241c0-.2335-.007-.406-.0165-.3958-.02.022-.5244.7735-.5334.7947-.004.008.1188.0149.2717.0149h.2781zm-5.3638.4134c-.2326-.0586-.479-.2606-.5824-.4774-.2916-.611.1346-1.2958.8065-1.2958.726 0 1.1465.7937.7428 1.402-.0928.1397-.1983.2286-.3685.3105-.1283.0617-.1576.068-.3338.0732-.1062.003-.2253-.003-.2646-.0125m.5387-.1988c.2066-.106.339-.2612.4032-.4726.1052-.3465-.0611-.7176-.3964-.8839-.1027-.051-.1285-.0554-.3214-.0556-.192-.0002-.2192.004-.3198.0537-.153.0751-.2887.2135-.3628.37-.0556.1172-.0612.1459-.0612.3107 0 .1667.005.192.0627.3089.0766.1557.1954.2813.331.3502.153.0777.1819.0836.3787.0778.155-.005.1963-.0131.286-.0592m-.5721-.419c0-.1844-.003-.3354-.007-.3354s-.0643.0215-.134.0477c-.0696.0262-.1307.0477-.1357.0477s-.009-.0536-.009-.1192v-.1191l.4368-.1574c.2402-.0865.4462-.1573.4577-.1573.0146 0 .0209.137.0208.453l-.0001.4529-.2995.1049a31 31 0 0 0-.3146.1112c-.008.004-.015-.1445-.015-.329z"/></svg>