<svg xmlns="http://www.w3.org/2000/svg" viewBox="0 0 24 24"><path fill="#44739e" d="M8.888 8.541c0 .32-.267.586-.587.586s-.586-.266-.586-.586.267-.586.586-.586.587.256.587.586m-.501 6.63c0 .32-.267.586-.587.586s-.586-.266-.586-.586.267-.586.586-.586.587.256.587.586m.607.139c-.32 0-.586.266-.586.586s.266.586.586.586.586-.266.586-.586-.255-.586-.586-.586m-1.194.671c-.319 0-.586.267-.586.586s.267.587.586.587.587-.267.587-.587c0-.33-.267-.586-.587-.586m7.92.586c0 .32-.267.587-.586.587s-.587-.267-.587-.587.267-.586.587-.586.586.256.586.586m-.586-1.982c-.32 0-.587.266-.587.586s.267.586.587.586.586-.266.586-.586c0-.33-.267-.586-.586-.586m1.396 0c-.32 0-.586.266-.586.586s.266.586.586.586.586-.266.586-.586c-.01-.33-.266-.586-.586-.586m0 1.396c-.32 0-.586.267-.586.586s.266.587.586.587.586-.267.586-.587c-.01-.33-.266-.586-.586-.586m-.053-6.64c0 .319-.267.586-.586.586s-.587-.267-.587-.586.267-.587.587-.587c.33 0 .586.267.586.587m-.586-1.983c-.32 0-.587.267-.587.586s.267.587.587.587.586-.267.586-.587-.256-.586-.586-.586M12 3.148c-4.882 0-8.858 3.976-8.858 8.857S7.118 20.863 12 20.863s8.858-3.976 8.858-8.858c0-4.892-3.976-8.857-8.858-8.857m7.813 8.324h-7.28v-7.28c3.89.267 7.014 3.379 7.28 7.28m-8.346-7.28v7.28h-7.28c.266-3.901 3.39-7.013 7.28-7.28m-7.28 8.346h7.28v7.28c-3.89-.277-7.014-3.389-7.28-7.28m8.346 7.27v-7.28h7.28c-.266 3.901-3.39 7.013-7.28 7.28M12 1.005c-6.076 0-11 4.925-11 11s4.924 10.99 11 10.99 11-4.925 11-11-4.924-10.99-11-10.99m0 20.924c-5.479 0-9.934-4.456-9.934-9.934S6.521 2.061 12 2.061s9.934 4.455 9.934 9.934-4.455 9.934-9.934 9.934"/></svg>