<svg xmlns="http://www.w3.org/2000/svg" viewBox="0 0 24 24"><path fill="#44739e" d="M3.341 3.767 2.035 7.56h5.532l-3.106 9.148c1.33.401 2.733.469 4.114.451l3.26-9.599h5.817L16.45 3.767H3.34Zm9.412 4.713-2.926 8.612a23.07 23.07 0 0 0 4.565-.937l1.018-2.992.836 2.272c1.17-.535 2.297-1.195 3.244-2.073L17.935 8.48c-1.727 0-3.457.002-5.182-.001Zm5.667.033c.152.301.118.781.396.961 1.081.369 2.312 1.254 2.11 2.548-.343 1.603-1.862 2.583-3.181 3.36-3.372 1.798-7.27 2.578-11.076 2.348-1.58-.165-3.375-.443-4.447-1.738-.796-1.045-.104-2.431.748-3.198.889-.868 1.978-1.5 3.095-2.024.412-.905-1.11.322-1.503.412-1.453.86-3.049 1.936-3.509 3.662-.316 1.348.846 2.45 1.999 2.9 2.672 1.076 5.656.97 8.463.587 3.433-.555 6.914-1.604 9.684-3.781 1.018-.842 2.156-2.147 1.696-3.569-.633-1.53-2.42-2.058-3.902-2.371a13 13 0 0 0-.572-.097Zm1.857 7.373c-1.018.672-2.18 1.195-3.268 1.647l.992 2.7h3.663Zm-6.704 2.66c-1.47.327-2.991.502-4.471.621l-.363 1.066h4.248Zm-9.749.084-.535 1.603h4.247l.35-1.067c-1.367-.027-2.748-.14-4.062-.536"/></svg>