<svg xmlns="http://www.w3.org/2000/svg" fill="#44739e" viewBox="0 0 24 24"><path d="M9.725 10.1805a1.3 1.3 0 0 0-.9-.323 9.46 9.46 0 0 0-2.318 0c-.674.085-.836.161-.988.465a8.54 8.54 0 0 0-.162 2.9c.067.608.133.789.333 1 .247.247.276.247 1.748.275 2.536.057 2.6-.019 2.565-2.47-.031-1.572-.031-1.6-.278-1.847m-1.244.931c.38.029.447.057.475.237.029.2 0 .219-.447.219s-.484-.019-.484-.247.019-.238.456-.209m-1.671-.209a.61.61 0 0 1 .38.162c.209.19.218.351.019.541-.285.285-.893.1-.893-.275a.55.55 0 0 1 .494-.428m1 2.537a1.46 1.46 0 0 1-1.016-.229c-.285-.142-.532-.341-.551-.437-.038-.2-.028-.2.371 0a2.9 2.9 0 0 0 2.023.048c.409-.181.437-.19.437-.028-.004.237-.678.589-1.264.644zM12.0825 2.555h-9.5v19h19v-19Zm-1.577 12.255c-.361.427-.817.5-2.84.5-2 0-2.432-.076-2.841-.493-.351-.371-.475-1.293-.409-3.288.076-2.641.19-2.717 3.582-2.669a5.34 5.34 0 0 1 2.128.2 1.05 1.05 0 0 1 .561.607 5.26 5.26 0 0 1 .2 2.2c.008 2.04-.058 2.553-.381 2.943m4.522-3.372v.427h-.76v1.8h.285c.238 0 .285.047.371.351.114.4.037.5-.419.513-1.14.048-1.406-.313-1.367-1.843l.018-.779-.294-.028c-.295-.029-.3-.048-.3-.446s.009-.419.314-.447.3-.048.332-.465.038-.447.428-.533c.655-.161.636-.17.636.447v.57h.76zm3.933-.219c-.038.114-.313.874-.608 1.691l-.551 1.473-.56.028-.57.029-.58-1.549c-.314-.855-.6-1.625-.637-1.719-.066-.153-.018-.172.485-.143l.56.029.371 1.14c.2.626.389 1.073.418 1s.19-.589.351-1.14l.3-1 .551-.029c.527-.029.537-.019.47.19"/></svg>