<svg xmlns="http://www.w3.org/2000/svg" viewBox="0 0 24 24"><path fill="#44739e" d="M6.18 13.427c-.76-.078-.924-.072-.956.033-.045.153.153.237.69.296.965.11 1.156.094 1.142-.08-.015-.12-.244-.182-.876-.249m3.123-3.359c-1.155-1.01-1.424-1.236-1.302-1.056.07.103 4.827 4.245 4.917 4.29a.44.44 0 0 0 .11.033c.017 0-.534-.491-1.225-1.086q-1.252-1.087-2.5-2.181m.36 2.585-2.64-2.53c-1.238-1.192-1.469-1.399-1.461-1.33a2.27 2.27 0 0 0 .296.32l1.29 1.241 1.6 1.54c.85.804 1.089 1.055 1.063 1.111-.013.026-.008.033.011.014a.198.198 0 0 1 .154 0c.081.022-.003-.075-.313-.366m-1.454-1.838v-.007a25.4 25.4 0 0 0-2.22-2.044c-.063-.018-.056 0 .024.079l.561.531 1.366 1.292 1.496 1.404.764.73a1.18 1.18 0 0 0 .323.247l.146.06-.18-.168q-1.146-1.054-2.28-2.124m-.921-.194-1.98-1.87c-.027 0 0 .048.047.103.101.11.866.852 2.537 2.47l1.286 1.257c.257.263.45.416.518.411.025 0-.071-.11-.22-.252Zm2.063.123L7.959 9.495l-.527-.486a.42.42 0 0 0-.209-.136c-.04 0 .129.185.377.405l1.66 1.497 2.86 2.487a10.8 10.8 0 0 0-.864-.808Zm.733 3.184c-.11.127.074.336.276.322a.166.166 0 0 0 .169-.163.157.157 0 0 0-.028-.096.362.362 0 0 0-.417-.063m-.054-1.644-1.666-1.557a26 26 0 0 0-2.145-1.954c-.038-.009.455.476 1.1 1.078l2.07 1.939 1.175 1.093a1.13 1.13 0 0 0 .33.242c.058-.005.069.004-.864-.841m1.379-.157v-.006q-1.561-1.359-3.114-2.729a3.66 3.66 0 0 0-.59-.467 1.58 1.58 0 0 0 .342.355l3.74 3.306a4.95 4.95 0 0 1 .673.649 1.21 1.21 0 0 1-.363-.268q-2.155-1.898-4.29-3.815c-.174-.158-.33-.269-.337-.244a5.06 5.06 0 0 0 .674.66q1.937 1.712 3.85 3.447c.156.151.434.307.476.257.014-.015.086 0 .161.03.249.103.355.204-1.222-1.175m-1.379-.08-2.165-2.002c-1.059-.99-1.525-1.391-1.39-1.202.045.062.517.509 1.32 1.25q1.036.964 2.079 1.918c.903.832 1.143 1.066 1.122 1.1s.036.033.101.032c.143-.005.27.124-1.067-1.096m.178-.081Q8.6 10.496 6.986 9.019a.95.95 0 0 0-.262-.202c-.027 0 .039.087.145.188l3.19 2.943c1.153 1.044 1.248 1.139 1.218 1.201-.018.034-.009.042.022.019a.196.196 0 0 1 .157.009l.11.048-.11-.12c-.068-.067-.626-.579-1.248-1.139m.737.434-1.628-1.468C7.73 9.489 6.97 8.816 6.95 8.845a18.7 18.7 0 0 0 1.923 1.801c2.624 2.392 2.91 2.64 2.901 2.53q-.404-.396-.833-.77Zm-1.453-.147L6.863 9.748c-.921-.881-1.049-.999-1.133-.991-.027 0-.016.029.027.057.084.057 3.498 3.317 4.092 3.906.204.204.378.336.392.314s-.027-.11-.094-.168Zm-6.666-1.611.001.002.005-.004ZM5.96 9.546a7.4 7.4 0 0 1-.747-.795c.011-.022-.012-.038-.053-.034s-.08.023-.074.047c0 .047 1.441 1.484 2.853 2.85l.964.943a2.5 2.5 0 0 0 .494.418c.055 0 .055-.014 0-.063Q7.67 11.235 5.96 9.546m-2.67 1.349a.9.9 0 0 0-.294-.27c-.057 0-.06-.007-.018-.067.03-.043.043-.076.03-.073a.21.21 0 0 0-.075.075c-.043.061-.034.088.047.149s.461.495 1.288 1.486a1.43 1.43 0 0 0 .296.292c.095.027.032-.055-.577-.77Zm.623.454q-.359-.423-.726-.841c-.04-.04-.058-.085-.045-.102s.012-.027 0-.026-.04.026-.056.056.018.11.073.17a21.2 21.2 0 0 0 1.683 1.898c.069.031.044-.017-.089-.171Zm-1.725.025a4.64 4.64 0 0 0 .764.958c.039.011-.084-.182-.272-.431-.382-.497-.451-.574-.492-.527m.639-.73s-.036.033-.07.068c-.205.197-.413.393-.622.585a6.4 6.4 0 0 0-.55.55.86.86 0 0 0 .309.361c.081.037.069.007-.067-.155l-.165-.198.101-.125.098-.126.22.292a1.76 1.76 0 0 0 .33.357c.078.046.036-.03-.157-.275a2.2 2.2 0 0 1-.268-.39c-.008-.096.11.024.354.343a1.76 1.76 0 0 0 .32.352c.088.045.09.042.03-.054a8.7 8.7 0 0 0-.318-.419 2.64 2.64 0 0 1-.262-.357.385.385 0 0 1 .104-.148c.071-.07.11-.09.11-.05a6.6 6.6 0 0 0 .881 1.077 2.31 2.31 0 0 0-.383-.551c-.435-.542-.45-.567-.39-.673.034-.064.079-.11.097-.11a6.9 6.9 0 0 1 .561.666 5.83 5.83 0 0 0 .644.731 9.3 9.3 0 0 0-1.047-1.346c-.081-.082-.088-.102-.034-.155s.065-.048.072 0a14 14 0 0 0 1.286 1.523 9.57 9.57 0 0 0-1.021-1.301c-.128-.15-.213-.284-.194-.298a13.9 13.9 0 0 1 1.262 1.441c.179.22.357.307.189.084q-.696-.859-1.42-1.699m-.366.493a12.3 12.3 0 0 0 .959 1.198c.13.074.047-.053-.395-.606-.467-.588-.571-.696-.564-.592m5.75 1.136v.006l-1.852-1.844-1.548-1.529c-.075-.044-.11-.029-.267.101a1.4 1.4 0 0 0-.205.204.8.8 0 0 1-.194.16 2.2 2.2 0 0 0-.403.372c-.125.146-.294.33-.379.408s-.129.131-.1.11a.059.059 0 0 1 .079.028c.042.087 1.898 2.188 1.965 2.226a.25.25 0 0 0 .083.022c.018 0-.414-.509-.96-1.13-1.11-1.257-1.088-1.229-1.027-1.237.024 0 .511.527 1.084 1.174s1.07 1.187 1.107 1.198c.11.032-.011-.12-1.032-1.263-1.122-1.253-1.077-1.21-1.044-1.247.014-.018.058 0 .098.052s.276.315.528.595l1.064 1.188a6.55 6.55 0 0 0 .684.702c.058.017.065.008.026-.034l-.695-.777-1.122-1.259a3.74 3.74 0 0 1-.46-.561 7.2 7.2 0 0 1 1.035 1.073c1.408 1.561 1.572 1.718 1.65 1.625.015-.017 0-.028-.025-.026a.99.99 0 0 1-.277-.247l-2.25-2.469c-.045-.041-.056-.077-.029-.078a21.3 21.3 0 0 1 1.908 1.995c.673.732.898.921 1.011.842a.053.053 0 0 1 .072.016.213.213 0 0 0 .158.034 2.9 2.9 0 0 1 .307 0l.183.007-.128-.11c-.119-.11-.52-.533-2.2-2.317l-.797-.838c-.041-.042-.053-.079-.025-.081s.71.687 1.516 1.531c1.937 2.032 1.818 1.917 1.967 1.875.074-.019.132-.011.147.024s.039.037.056.022a8.36 8.36 0 0 0-.813-.898q-.811-.835-1.62-1.671l-.923-.949c-.077-.08-.11-.14-.076-.135.087.014 3.549 3.556 3.52 3.609-.013.023.009.025.049.006s.071-.009.073.021.024.039.048.022a1.86 1.86 0 0 0-.402-.477q-1.596-1.6-3.156-3.238c-.126-.187.104.013.606.528l1.449 1.471a12.54 12.54 0 0 1 1.605 1.692c-.01.023 0 .034.019.03a.15.15 0 0 1 .062 0 1.05 1.05 0 0 0 .142.017c.099.009.11 0 .034-.032-.161-.078-3.921-3.881-3.817-3.85a3.63 3.63 0 0 1 .501.449l2.33 2.337 1.026 1.039c.135.144.209.11.09-.037a5.4 5.4 0 0 0-.456-.477m-1.668.348v-.007a6.1 6.1 0 0 1-.66-.66L3.87 9.776c-.068-.042-.059-.048-.021-.061s.15.074.262.195l.794.855 1.059 1.133c.575.623.685.755.579.723m.278.024v-.012a6.9 6.9 0 0 1-.703-.701l-1.222-1.304-.751-.817c-.088-.101-.154-.192-.14-.213s2.336 2.408 2.736 2.879c.099.115.124.18.08.168m-1.97-2.451 1.199 1.272c1.123 1.18 1.16 1.221 1.084 1.226a22.8 22.8 0 0 1-1.98-2.046l-1.03-1.1c-.039-.042-.056-.077-.013-.078a6.8 6.8 0 0 1 .74.726m.923.487v-.011l1.929 2.007c.033.041.034.056 0 .064-.061 0-1.067-1.022-2.971-3.021-.448-.478-.44-.459-.383-.461.029.011.666.643 1.425 1.425Zm.054-1.037v.006a6.05 6.05 0 0 0-.898-.806c-.05 0-.066.006-.035.017a6.2 6.2 0 0 1 .562.524l2.786 2.766c.359.348.682.676.714.721a.198.198 0 0 0 .143.073c.078 0 .078-.01-.007-.084S7.98 11.774 5.828 9.644m-4.268 2.31a.058.058 0 0 0-.034-.075c-.036-.016-.044-.011-.022.019a.059.059 0 0 1-.011.081c-.071.053-.046.11.064.162.091.041.094.035.039-.049a.198.198 0 0 1-.036-.138m11.148 2.09c-.44-.047-.535-.043-.641.031s-.082.25.059.362a1.125 1.125 0 0 0 .55.136c.519.05.66 0 .646-.22-.017-.193-.149-.261-.614-.309m-8.992-3.209c-.378-.44-.478-.533-.47-.424a3.96 3.96 0 0 0 .38.473l.859.99c.469.542.673.745.667.66a7.4 7.4 0 0 0-.521-.635Zm-1.95.949a1.47 1.47 0 0 0 .367.461c.067.028.042-.03-.099-.22-.167-.237-.278-.336-.268-.241m-.001 0h.001l-.001-.001Zm12.641-2.127c.11.054.146.051.292-.032q.274-.168.045-.366a.305.305 0 0 0-.415.013.22.22 0 0 0-.024.317.22.22 0 0 0 .102.068m.194-.324a.14.14 0 0 1 .054.044c.026.027.035.045.026.06 0-.014 0-.029-.026-.054a.147.147 0 0 0-.089-.056c.012.006.024 0 .035.006m-.173.049a.2.2 0 0 0-.019.022c.003-.012.014-.014.022-.022ZM13.4 10.695v-.011c-1.445-1.115-1.784-1.397-1.726-1.437s.124-.022.241.035c.092.044.167.064.165.042-.009-.11-.28-.163-.976-.181a4.8 4.8 0 0 1-.487-.029.69.69 0 0 0-.279 0c-.012.014.011.024.054.022s.074.012.069.035 1.393 1.18 3.801 3.109a4.4 4.4 0 0 1 .576.505 45.3 45.3 0 0 1-3.75-2.97 8.9 8.9 0 0 0-.88-.66c-.049 0 .127.153 1.491 1.262l1.18.962 1.254 1.021c.359.292.594.506.527.477-.122-.052-1.105-.838-3.376-2.702-1.084-.889-1.19-.99-1.123-1.049s.069-.065 0-.059a.136.136 0 0 0-.103.059c-.018.04-.035.041-.063 0a.22.22 0 0 0-.14-.062c-.058 0-.09.008-.074.03s.008.045-.018.045a.045.045 0 0 1-.052-.033c0-.022-.045-.049-.099-.056s-.092 0-.089.03-.02.033-.059.008c-.097-.063-.24-.094-.203-.043s0 .058-.134-.011a1.12 1.12 0 0 0-.381-.061c-.148 0-.297-.009-.44-.022-.089-.011-.152 0-.139.031.051.11 4.939 4.341 5.06 4.378a1.25 1.25 0 0 0 .192.028l.259.018c.09.008.306.013.478.012.294 0 .322-.008.449-.143a3.6 3.6 0 0 0 .358-.561l.22-.417-.364-.298q-.869-.696-1.752-1.376a15.5 15.5 0 0 1-1.691-1.358c0-.012.064.022.144.077.179.123 2.904 2.245 3.367 2.614a3.3 3.3 0 0 0 .361.27c.092-.01-.259-.304-1.848-1.531m-4.162-.848a12.2 12.2 0 0 1-.96-.874c.025 0 .88.706 1.885 1.572l3.197 2.806c-.06.008-.955-.78-4.122-3.504m-.611-.745c-.29-.33.243.11 2.521 2.056l2.505 2.2c-.016.019-4.833-4.037-5.026-4.256m2.669 2.082L8.797 9.016c.048.023 1.253 1.01 2.664 2.2s2.53 2.164 2.497 2.168-1.239-.983-2.662-2.2m2.247 1.667h-.008l-4.41-3.716-.099-.095.097.045c.052.027 1.23.999 2.612 2.165l2.475 2.122a6.6 6.6 0 0 1-.667-.521m-1.683-1.612h-.01L9.309 9.074a7 7 0 0 1 .679.518c1.592 1.3 4.462 3.714 4.42 3.714s-.406-.286-2.548-2.067m-1.12-1.141h-.012c-.652-.55-1.165-.996-1.14-.999a10.2 10.2 0 0 1 .88.691l3.947 3.255c.11.084.17.154.137.158-.053.003-1.788-1.405-3.812-3.105m1.193.787h-.018l-2.09-1.76c.026 0 .793.603 1.702 1.346 2.164 1.76 3.143 2.582 3.123 2.615a34.8 34.8 0 0 1-2.717-2.201m.925.15h-.017l-.852-.686c-1.172-.938-1.459-1.186-1.355-1.188.061 0 .099.012.091.03s.699.602 1.572 1.299c1.685 1.346 2.62 2.107 2.622 2.146s-.719-.527-2.061-1.601m2.09 1.465h-.013c-.035-.036-.379-.314-.77-.615L10.92 9.302c-.11-.093-.123-.11-.047-.085.057.025.484.346.95.714l3.031 2.405a.39.39 0 0 1 .142.168c.02.045.004.045-.042 0Zm-1.816-1.74h-.012c1.684 1.32 2.021 1.59 1.936 1.597-.022 0-.74-.562-2.323-1.808-1.65-1.302-1.684-1.336-1.572-1.338.056 0 .094.014.085.032s.843.7 1.886 1.517m3.178 1.357.19.173c.11.103.22.176.22.161s.011-.028 0-.033-.11-.079-.22-.164Zm-4.158-2.693c-.021.021-.097-.011-.178-.067-.22-.155-.285-.11-.074.045.866.651 3.393 2.631 3.417 2.676s.023.011.012-.045a12.65 12.65 0 0 0-1.592-1.304 16.7 16.7 0 0 1-1.564-1.274c.004-.039-.001-.052-.021-.031m8.989 6.438a.087.087 0 0 1 .068-.058 2.6 2.6 0 0 0 .43-.275c.208-.147.42-.29.472-.314a5.5 5.5 0 0 0 .805-.592.382.382 0 0 0 .009-.467c-.083-.088-4.023-2.982-5.334-3.916a2.6 2.6 0 0 1-.45-.364c0-.027-.017-.103-.025-.168-.031-.234-.16-.319-.627-.411-.24-.049-.389-.138-1.18-.71-.99-.717-1.055-.755-1.246-.741-.156.012-.212.045-1.116.66l-.695.478-1.1-.08-3.366-.25-2.543-.145a1.67 1.67 0 0 0-.45.102 1.57 1.57 0 0 0-.311.196c-.136.11-1.552 1.43-2.79 2.582-.66.611-.757.757-.66.924a5.4 5.4 0 0 1 .168.642 3.63 3.63 0 0 0 .18.631.7.7 0 0 0 .22.11 1.4 1.4 0 0 1 .33.177.79.79 0 0 0 .299.139l4.085.449 4.707.522c2.358.268 3.143.33 3.137.212 0-.029.073-.06.17-.067a1.265 1.265 0 0 0 .674-.247 10.2 10.2 0 0 0 1.078-1.827c.142-.31.147-.336.063-.433a.42.42 0 0 0-.161-.132c-.062-.018-.064-.011-.011.044.075.077.007.098-.078.024-.061-.053-.191.081-.413.43-.131.206-.22.248-.187.083a.34.34 0 0 1 .056-.136 3.2 3.2 0 0 0 .22-.381l.19-.359.461.348 1.234.953 1.156.903 1.314 1.026a8.7 8.7 0 0 0 1.016.732c.276 0 .393-.062.977-.53.865-.687.98-.823.302-.348-1.25.881-1.182.86-1.747.441-.22-.163-.55-.422-.726-.574q-1.071-.888-2.17-1.744a9.5 9.5 0 0 1-.588-.479 28.8 28.8 0 0 1 2.833 2.097c.949.75 1.293.966 1.32.843m1.579-1.592c-.094-.127-.078-.158.034-.071a.312.312 0 0 1 .11.186c0 .085-.06.162-.291.337a7.4 7.4 0 0 1-.898.602c0-.009.22-.201.506-.424.597-.475.628-.514.542-.63Zm-.757.381-.134.159c-.168.198-.283.208-.449.038s-.165-.187-.023-.32.259-.142.45 0Zm-.265-.74a4.5 4.5 0 0 1-.752.568c-.033-.026.17-.2.481-.413.28-.188.271-.188.275-.155Zm-.297-.339a.031.031 0 0 0 .034-.028v-.01c0-.058.045-.062.138-.011.067.037.067.047.008.094-.082.065-.261.061-.235 0a.057.057 0 0 1 .059-.045Zm-.122.491a1.3 1.3 0 0 1-.212-.123c-.104-.071-.157-.129-.12-.132a.46.46 0 0 1 .213.123c.083.07.138.131.122.132Zm-.23-.851h.006l.149.103-.165-.031a.68.68 0 0 1-.241-.097c-.13-.114.085-.094.255.025Zm-.196.848a.18.18 0 0 1 .063.083c0 .052-.178.007-.243-.06-.047-.049-.041-.062.03-.068a.238.238 0 0 1 .154.045Zm-.543.271h.006a.616.616 0 0 1 .236.146c.094.085.163.168.147.187s-.122-.05-.238-.149-.174-.179-.148-.184Zm-.173.357c-.172-.022-.184-.029-.148-.101.027-.053.338-.053.397 0s-.117.117-.245.101Zm.467-.316a.57.57 0 0 1-.153-.156c0-.019.065.024.147.094a.66.66 0 0 1 .153.156c.001.018-.061-.028-.144-.092Zm-.181-.453.063-.155c.068-.165.081-.18.124-.119.016.021-.021.09-.079.156Zm.239-.324a.345.345 0 0 1-.243-.143c-.024-.056-.014-.062.057-.034a.55.55 0 0 1 .153.11c.039.036.054.066.036.067Zm-.22-.839c.149.067.15.069.044.095a.257.257 0 0 1-.22-.063c-.115-.111-.038-.126.177-.032Zm-.316.838a.39.39 0 0 1 .188.077c.11.081.11.083.024.092a.286.286 0 0 1-.191-.076c-.064-.071-.068-.083-.02-.093Zm-.161-.188c-.176.154-.289.185-.398.11s-.093-.065 0-.029a.318.318 0 0 0 .387-.214c.052-.166.059-.17.101-.056.023.057-.009.122-.089.189Zm-.35.864h-.006a1.24 1.24 0 0 1-.154-.141c0-.042.134-.018.176.03a.62.62 0 0 1 .09.145c.039.07.02.064-.105-.034Zm.121-1.04c.067.039.123.087.124.11 0 .079-.123.05-.24-.056s-.067-.153.117-.054Zm.133-.88h-.007c.152.077.22.172.124.181-.075 0-.392-.192-.364-.22s.074-.052.248.035Zm-1.288-1.265.872.644c.215.172.193.161-.097-.048l-.55-.38a5.7 5.7 0 0 1-.499-.373c-.207-.176-.111-.121.275.153Zm.654.848c0 .056-.123.067-.256.02-.078-.025-.062-.035.078-.049.103-.015.178-.002.179.025Zm-.605-.509a.197.197 0 0 1-.242.139.15.15 0 0 1-.038-.011c-.101-.041-.101-.043-.013-.054a.39.39 0 0 0 .177-.091c.117-.113.168-.113.117.013Zm-.526-.429a.156.156 0 0 1-.11.056.179.179 0 0 0-.128.091c-.038.08-.042.077-.051-.011a.23.23 0 0 1 .02-.131c.044-.058.297-.064.271-.009Zm-.352-.25c.081 0 .081 0-.011.028-.056.015-.1.048-.099.071s-.033.046-.078.049c-.073 0-.073 0 0-.07a.35.35 0 0 1 .19-.079Zm-.577-.23c.203-.131.242-.142.344-.085.063.034.061.04-.011.046a.7.7 0 0 0-.22.092.41.41 0 0 1-.213.073c-.054-.007-.028-.05.105-.13Zm.179.461a.424.424 0 0 1 .068.562.559.559 0 0 1-.55.137c-.18-.075-.247-.063-.365.065-.076.085-.101.094-.11.039a.29.29 0 0 1 .081-.166.289.289 0 0 0 .06-.278c-.023-.166-.011-.2.123-.308a.561.561 0 0 1 .694-.055Zm.054 1.349.135-.017-.11.076c-.126.087-.319.118-.33.053s.116-.1.306-.116Zm-.637-.497c.017.014-.022.084-.083.158s-.11.11-.119.086c.001-.069.16-.266.203-.249Zm-.279-2.391a.605.605 0 0 1 .263.085.44.44 0 0 1 .189.174c.016.061-.01.054-.119-.034a1.2 1.2 0 0 0-.288-.163c-.118-.046-.127-.056-.044-.066Zm.061.411a.463.463 0 0 1 .203.336c.016.203-.041.404-.11.409-.044 0-.045-.009 0-.056a.536.536 0 0 0 .034-.281.473.473 0 0 0-.149-.351.855.855 0 0 0-.496-.249c-.035 0-.055-.015-.04-.042.035-.086.356.046.56.229Zm-.175.906a.18.18 0 0 1-.097-.081c-.032-.05-.041-.091-.021-.093s.067.038.103.086.041.078.017.084Zm-.673-.256c.09.009.075.016-.054.033a.22.22 0 0 1-.28-.148.23.23 0 0 1-.009-.09.316.316 0 0 1 .198-.269c.041 0 .034.028-.023.096-.158.184-.079.347.169.373Zm-.098-.205h.007a.365.365 0 0 1 .22-.097l.147-.008-.169.11c-.204.116-.308.116-.204-.009Zm.232-.677h-.006c-.084.017-.084.015 0-.037.18-.11-.55.029-.77.144a.721.721 0 0 0-.396.77c.008.291 0 .316-.064.243a.763.763 0 0 1-.064-.55 1.146 1.146 0 0 1 .831-.707.79.79 0 0 1 .465-.019c.135.026.135.121.006.151Zm-.33-.55a.132.132 0 0 1 .11.049c.029.07-.163.163-.29.141-.167-.04-.019-.198.182-.2Zm-1.547-.9a.147.147 0 0 1 .202-.052.151.151 0 0 1 .073.11c.023.11.011.129-.12.139-.155.012-.231-.09-.149-.202Zm-.466.424h-.007c.264-.159.258-.156.26-.123a2.05 2.05 0 0 1-.449.337c-.097.001-.01-.1.198-.224Zm-.706.356a.176.176 0 0 1 .248 0 .15.15 0 0 1 .02.027c.045.06.04.097-.016.163s-.095.082-.196.046c-.134-.054-.16-.157-.049-.236Zm-9.904 4.89a2.56 2.56 0 0 1-.798-.15.43.43 0 0 0-.188-.08.11.11 0 0 1-.096-.04c-.017-.027.05-.019.152.017a2.4 2.4 0 0 0 .351.088l.726.11a2.64 2.64 0 0 1 .54.104 4.95 4.95 0 0 1-.687-.049m3.841.082a5.02 5.02 0 0 1-1.531-.22.249.249 0 0 1-.011-.348l.011-.014c.096-.08.411-.069 1.353.045.5.06.579.099.595.284s-.115.269-.414.253Zm1.047.388a.14.14 0 0 1-.103-.049 3 3 0 0 1-.135-.984 1.57 1.57 0 0 1 .082.483c.031.392.05.469.122.503.047.023.062.044.034.047m2.769.042a.778.778 0 0 1-.516-.078.513.513 0 0 1-.023-.427c.049-.085.093-.102.22-.092a.89.89 0 0 1 .28.077c.095.051.121.11.135.271.023.186.016.218-.096.249m.947.32c-.029 0-.059-.19-.08-.498-.031-.476-.03-.485.025-.202.034.165.069.389.08.498s0 .202-.025.202m1.89-.125c-.123.146-.283.166-.77.103s-.647-.152-.719-.426c-.025-.1.176-.303.312-.313a5.2 5.2 0 0 1 .55.033c.467.046.639.135.693.352a.248.248 0 0 1-.066.251m1.31-.569c-.026.267-.091.365-.088.132 0-.186.035-.304.084-.307a.44.44 0 0 1 .004.175m.35-.66c-.22.25-.235.278-.207.461.019.11.011.192-.019.194s-.054-.044-.058-.103c-.008-.11-.015-.11-.532-.063a4.9 4.9 0 0 1-1.069-.018l-1.372-.152-.165-.016.06.569a1.7 1.7 0 0 1 .019.535 2.83 2.83 0 0 1-.11-.576l-.067-.539-.308-.038c-.279-.034-.674-.072-2.86-.273a7.6 7.6 0 0 1-.806-.11l-.14-.045.11-.045.127-.051c.007 0 0 .018-.011.045s.033.047.11.046a1.13 1.13 0 0 1 .344.029c.04.012.582.068 1.21.125l1.726.168 1.443.142 1.191.11c.387.045.66.034.687-.029a.495.495 0 0 1 .197-.076c.143-.033.238-.11.423-.33.131-.156.254-.269.274-.252s-.067.152-.197.297Zm-.338.043-.009.006c-.138.11-.189.124-.586.138-.239.008-.898-.034-1.475-.096l-2.387-.239-3.264-.33-3.688-.376c-.976-.101-1.819-.2-1.877-.225s-.11-.021-.129 0c-.053.062.168.136.528.178l5.288.561c.1.009.173.027.16.042a3.1 3.1 0 0 1-.561-.029c-.771-.077-.837-.045-.096.047a3.7 3.7 0 0 1 .683.124 2.26 2.26 0 0 1 .117.596c.047.407.048.488 0 .317a4.8 4.8 0 0 1-.088-.545c-.033-.371 0-.35-.746-.44-.825-.101-.957-.123-.898-.162.028-.022-.146-.056-.389-.082q-1.788-.182-3.578-.348c-.448-.033-.577-.168-.426-.447.063-.124 3.022-2.933 3.374-3.209s.348-.279 2.796-.095l3.283.241c1.21.086 1.459.11 1.449.175-.009.04.026.015.077-.054.081-.11.091-.11.079-.028-.054.368-.061.347.19.576.134.124.563.461.942.757a12.54 12.54 0 0 1 1.971 1.602 4.27 4.27 0 0 1-.74 1.35Zm3.96.637v-.007l-2.373-1.802-1.533-1.178c-.513-.392-.98-.761-1.04-.825l-.11-.11.22-.178a1.17 1.17 0 0 1 .306-.192c.071-.011.074-.03.024-.136a.338.338 0 0 1 .141-.421.607.607 0 0 1 .578.046c.161.13.159.231-.007.396-.22.22-.322.261-.457.188-.11-.058-.132-.056-.293.033-.22.121-.337.272-.29.372a.715.715 0 0 0 .249.179 1 1 0 0 1 .319.249.465.465 0 0 0 .299.209 4.2 4.2 0 0 1 .44.22 1.2 1.2 0 0 0 .578.142 3.05 3.05 0 0 0 .99-.484.695.695 0 0 0 .177-.6c-.023-.094-.016-.123.021-.091.085.07.075.407-.015.584a1.17 1.17 0 0 1-.653.506c-.128.041-.256.082-.384.125a.842.842 0 0 1-.606.019c-.079-.032-.142-.049-.141-.038a4.2 4.2 0 0 0 .412.295 4.7 4.7 0 0 1 .577.449c.128.131.25.202.243.155l-.012-.01.011.007a.09.09 0 0 0-.021-.032 1.76 1.76 0 0 1 .358.247c.449.336.561.396.729.381.131-.008.337-.213.33-.321a.385.385 0 0 0-.12-.172c-.301-.28-.313-.336-.026-.128a.524.524 0 0 0 .619.07c.191-.146.1-.393-.203-.55-.088-.046-.277-.233-.239-.237a2.75 2.75 0 0 1 .337.209c.255.172.336.206.496.194a.4.4 0 0 0 .287-.125c.099-.11.1-.11.11-.014s-.152.206-.406.246c-.22.033-.185.168.063.187a.54.54 0 0 1 .268.101.449.449 0 0 0 .55-.039c.063-.059.132-.085.168-.068.064.035-.02.11-.588.521-.141.101-.411.318-.604.482-.306.258-.364.291-.449.252-.24-.104.303.347 1.443 1.201.299.22.68.518.848.66a4.84 4.84 0 0 0 .595.406c.22.118.264.157.18.16-.124 0-.44-.213-1.284-.88q-.553-.432-1.111-.848Zm-4.357-3.905c-.121.101-.308.126-.303.041a.22.22 0 0 1 .235-.198.22.22 0 0 1 .102.037c.054.034.046.059-.033.125Zm1.642 1.378c-.187.094-.204.098-.21.035-.008-.11.33-.206.394-.11.045.061-.123.237-.235.248-.046 0-.02-.038.067-.101.192-.135.18-.169-.015-.067Zm1.838.43c0-.053.139-.065.22-.019.051.026.046.041-.018.063-.096.042-.196.019-.2-.039Zm1.417 1.014c-.11-.092-.142-.095-.273-.034l-.145.067.11-.1c.14-.129.172-.131.313-.017a.35.35 0 0 1 .12.139c.003.03-.057.004-.124-.049Zm.011.931c-.102.02-.242-.047-.252-.117 0-.025.076-.011.174.024.159.065.168.075.079.098Zm-.55-.344c-.134-.038-.336-.15-.336-.197-.009-.076.125-.038.288.084s.158.138.05.118Zm-.458-.444c.145-.134.135-.258-.03-.425s-.123-.212.091-.051.416.161.561-.014a.374.374 0 0 0 .099-.195c-.01-.135-.197-.245-.387-.22a.517.517 0 0 0-.29.11c-.11.11-.304.153-.311.077 0-.022-.05-.05-.11-.058-.093-.016-.096-.013-.025.034s.064.072-.096.254a1.6 1.6 0 0 1-.247.239c-.052.024-.017.073.144.206.246.201.419.212.601.043m.184-.609c.086.027.414-.099.366-.149.057.044-.28.176-.367.15-.031-.006-.043-.015-.038-.031-.004.017.01.025.04.031Zm-.522.411c-.007.013.008.019.02.024-.01-.009-.026-.014-.02-.023Zm.147.029c.093-.008.153-.018.15-.028.011.008-.057.021-.153.029a.44.44 0 0 1-.11 0 .52.52 0 0 0 .113 0Zm-1.094-1.329c.289.054.488-.056.472-.264s-.124-.286-.38-.289c-.187 0-.245.014-.305.093-.145.189-.041.406.213.46m.082-.387a.45.45 0 0 1 .176.127c.012.026.012.042 0 .052.007-.01.007-.024 0-.047a.45.45 0 0 0-.176-.127c-.117-.055-.188-.07-.212-.058.012-.018.084-.007.212.053m4.418 3.438a.089.089 0 0 0-.053.075c0 .022.038.024.079 0s.065-.017.043.027c-.054.11.084.134.202.044s.103-.087.019-.139a.281.281 0 0 0-.29-.007"/></svg>