<svg xmlns="http://www.w3.org/2000/svg" viewBox="0 0 24 24"><path fill="#44739e" d="M9.27 9.83a1.505 1.505 0 0 0-1.042-.374 10.95 10.95 0 0 0-2.684 0c-.78.098-.968.186-1.144.538a9.89 9.89 0 0 0-.187 3.358c.077.704.154.913.385 1.158.286.286.32.286 2.024.318 2.937.066 3.011-.022 2.97-2.86-.036-1.82-.036-1.852-.322-2.138m-1.44 1.078c.44.033.517.066.55.274.033.232 0 .254-.518.254s-.56-.022-.56-.286.022-.276.528-.242m-1.935-.242a.706.706 0 0 1 .44.187c.242.22.252.407.022.627-.33.33-1.034.115-1.034-.319a.637.637 0 0 1 .572-.495m1.158 2.937a1.69 1.69 0 0 1-1.177-.265c-.33-.164-.616-.395-.638-.506-.044-.232-.032-.232.43 0a3.358 3.358 0 0 0 2.342.056c.474-.21.506-.22.506-.033-.004.275-.785.682-1.463.746ZM12 1H1v22h22V1Zm-1.826 14.19c-.418.494-.946.579-3.288.579-2.316 0-2.816-.088-3.29-.571-.406-.429-.55-1.497-.474-3.807.088-3.058.22-3.146 4.148-3.09a6.18 6.18 0 0 1 2.464.231 1.216 1.216 0 0 1 .65.703 6.09 6.09 0 0 1 .231 2.547c.009 2.362-.067 2.956-.441 3.408m5.236-3.904v.494h-.88v2.084h.33c.276 0 .33.055.43.407.132.463.042.579-.486.594-1.32.055-1.628-.363-1.582-2.134l.02-.902-.34-.033c-.342-.033-.347-.055-.347-.516s.01-.485.363-.518.348-.055.385-.538.044-.518.495-.617c.759-.187.737-.197.737.517v.66h.88Zm4.554-.254c-.044.132-.362 1.012-.704 1.958l-.638 1.706-.648.032-.66.034-.672-1.794c-.364-.99-.695-1.882-.738-1.99-.076-.178-.02-.2.562-.166l.648.034.43 1.32c.232.724.45 1.242.484 1.157s.22-.682.406-1.32l.348-1.157.638-.034c.61-.034.622-.022.544.22"/></svg>