<svg xmlns="http://www.w3.org/2000/svg" viewBox="0 0 24 24"><path fill="#44739e" d="M12 1a11 11 0 1 0 11 11A11 11 0 0 0 12 1m5.099 7.48c-.165 1.739-.881 5.96-1.247 7.908-.154.825-.457 1.1-.751 1.129-.639.058-1.124-.423-1.743-.829-.969-.635-1.515-1.029-2.455-1.65-1.085-.716-.381-1.109.237-1.752.163-.168 2.976-2.728 3.031-2.96a.22.22 0 0 0-.051-.195.254.254 0 0 0-.228-.022q-.145.033-4.64 3.067a2.09 2.09 0 0 1-1.192.44 7.8 7.8 0 0 1-1.711-.406c-.688-.22-1.236-.343-1.189-.723q.038-.297.819-.608 4.811-2.09 6.415-2.763c3.055-1.271 3.689-1.492 4.104-1.498a.72.72 0 0 1 .426.127.458.458 0 0 1 .156.298 1.9 1.9 0 0 1 .019.434"/></svg>