<svg xmlns="http://www.w3.org/2000/svg" viewBox="0 0 24 24"><path fill="#44739e" d="m22.808 10.17-.063-.457a.461.461 0 0 0-.458-.398h-3.775a1.52 1.52 0 0 0-.142-.481c-.167-.342-1.031-.495-1.498-.355l1.084 1.776.748.91a1.07 1.07 0 0 1 .247.679l.032 4.575h3.163a.642.642 0 0 0 .636-.55 19.95 19.95 0 0 0 .026-5.699m-6.42-.952a2.6 2.6 0 0 1-.12-.298l-.464-1.511a2.43 2.43 0 0 0-1.124-1.398l-.33-.187a3.26 3.26 0 0 0-1.61-.424H6.789a3.26 3.26 0 0 0-1.609.427l-.33.187a2.43 2.43 0 0 0-1.124 1.398L3.262 8.92a2.6 2.6 0 0 1-.12.295c-.27-.029-.21-.189-.182-.415.074-.57-1.565-.452-1.801.031a1.079 1.079 0 0 0-.078.976 1.811 1.811 0 0 0 1.506.258l-.946 1.225a2.044 2.044 0 0 0-.507 1.356l.027 4.984a.976.976 0 0 0 .98.97h1.438a.452.452 0 0 0 .455-.46l-.026-1.124H15.52l-.025 1.124a.452.452 0 0 0 .454.46h1.441a.976.976 0 0 0 .98-.966l.026-4.984a2.044 2.044 0 0 0-.507-1.355l-.946-1.225c.089.026-.088-.01 0 0l-.55-.851c-.035.031.282.603-.005-.001M5.011 12.976H2.328c-.119 0-.366-.058-.366-.44l.181-.997c.064-.348.707-.33.99-.145l1.99 1.156a.231.231 0 0 1-.112.426M4.08 9.659a.11.11 0 0 1-.11-.11v-.418a2.867 2.867 0 0 1 2.875-2.86h5.844a2.867 2.867 0 0 1 2.875 2.86v.419a.11.11 0 0 1-.11.11H4.08Zm13.31 1.878.18.996c0 .385-.246.44-.365.44h-2.686a.231.231 0 0 1-.11-.424l1.987-1.16c.283-.178.927-.2.994.148"/></svg>