<svg xmlns="http://www.w3.org/2000/svg" viewBox="0 0 24 24"><path fill="#44739e" d="M22.48 12.272c-.374-3.557-2.032-5.22-3.356-5.99a6.25 6.25 0 0 0-1.852-.691c-1.091-3.299-3.726-4.729-5.92-4.581a6.244 6.244 0 0 0-4.261 2.256 6.48 6.48 0 0 0-.974 4.729l-3.594.585a1.219 1.219 0 0 0 .391 2.407l6.663-1.086a1.219 1.219 0 1 0-.392-2.405l-.67.11a4.19 4.19 0 0 1 .55-3.017 3.64 3.64 0 0 1 2.461-1.144 3.589 3.589 0 0 1 3.008 2.067 11.55 11.55 0 0 0-2.19.506 1.22 1.22 0 0 0 .787 2.309 5.84 5.84 0 0 1 4.771.069c1.21.704 1.939 2.089 2.154 4.133a4.692 4.692 0 0 1-1.143 3.256 5.71 5.71 0 0 1-3.892 1.679c-.718 1.555-2.543 3.189-3.709 3.092a2.954 2.954 0 0 1-2.008-1.288 4.84 4.84 0 0 1-.917-2.824l.796.131a1.22 1.22 0 0 0 .401-2.408l-6.662-1.099a1.22 1.22 0 0 0-.398 2.406l3.435.568a7.325 7.325 0 0 0 1.391 4.679 5.323 5.323 0 0 0 3.788 2.268c.104.008.207.011.312.011a6.136 6.136 0 0 0 5.119-3.561l.017.021c2.14-.206 2.885-.498 4.219-2.132a7.086 7.086 0 0 0 1.675-5.056"/></svg>