<svg xmlns="http://www.w3.org/2000/svg" viewBox="0 0 24 24"><path fill="#44739e" d="m22.503 13.494-.273-.521.014-1.42c.006-.226.297-.024.373-.236l.281-.98c.374-.699-.635-1.783-1.004-1.713l-3.593-.756a12.5 12.5 0 0 1-1.945-.577l-.294-.11 2.523-2.557a.898.898 0 0 1 1.454.149l.337.415a1.227 1.227 0 0 0 1.741.162.957.957 0 0 0 .085-1.379l-1.566-1.477a1.731 1.731 0 0 0-2.651 0l-4.037 3.865-5.774-2.237a6.52 6.52 0 0 0-2.353-.44h-3.67a1.151 1.151 0 0 0 0 2.301H5.51a5.9 5.9 0 0 1 2.125.401l7.833 3.034a14.85 14.85 0 0 0 2.239.669l.717.154c.77.167 2.028.139 1.65.835l-.252.48.019 1.816.622 1.092a1.194 1.194 0 0 1 .337.83v.644a1.189 1.189 0 0 1-1.188 1.188h-1.267c.014-.142.031-.282.035-.426 0-.049.008-.097.008-.145a5.568 5.568 0 1 0-11.137 0v.094c0 .161.019.319.035.477H2.151a1.152 1.152 0 0 0 0 2.302h5.921a5.53 5.53 0 0 0 9.496 0h2.53c1.66 0 2.874-.749 2.874-2.408L23 14.552a2.006 2.006 0 0 0-.497-1.058M10.02 16.656c0-.035-.011-.069-.011-.11a2.806 2.806 0 1 1 5.61 0c0 .045-.011.087-.013.132a2.75 2.75 0 0 1-.059.44 2.806 2.806 0 0 1-1.524 1.951 2.701 2.701 0 0 1-2.464-.026 2.831 2.831 0 0 1-1.54-2.39Z"/></svg>