<svg xmlns="http://www.w3.org/2000/svg" viewBox="0 0 24 24"><path fill="#44739e" d="M13.862 12.219a1.111 1.111 0 0 0-1.375 1.075v8.594a1.109 1.109 0 0 0 1.375 1.074 5.506 5.506 0 0 0 4.469-5.373 5.673 5.673 0 0 0-4.469-5.37M10.1 11.78a1.107 1.107 0 0 0 1.375-1.075V2.111A1.11 1.11 0 0 0 10.1 1.037 5.669 5.669 0 0 0 5.632 6.41a5.504 5.504 0 0 0 4.468 5.37m12.868-1.588a5.673 5.673 0 0 0-5.373-4.468 5.504 5.504 0 0 0-5.374 4.468 1.107 1.107 0 0 0 1.074 1.375h8.599a1.111 1.111 0 0 0 1.074-1.375m-12.263 2.307H2.107a1.112 1.112 0 0 0-1.075 1.375 5.674 5.674 0 0 0 5.375 4.468 5.507 5.507 0 0 0 5.373-4.468 1.109 1.109 0 0 0-1.075-1.375"/></svg>