<svg xmlns="http://www.w3.org/2000/svg" viewBox="0 0 24 24"><path fill="#44739e" d="M22.1 9.882c-.495 0-.897.28-.897.626v.41h-1.052c.021 0-.026-.011-.083 0h-9.14c-1.319 0-4.619-4.12-6.049-5.986a2.238 2.238 0 0 0-1.828-.88A2.09 2.09 0 0 0 1 6.147v11.94a1.862 1.862 0 0 0 1.862 1.862 2.488 2.488 0 0 0 2.062-1.085c1.234-1.808 3.74-5.271 5.068-5.563a3.99 3.99 0 0 0-.22 1.418 3.468 3.468 0 0 0 3.08 3.762l4.729.05c.727.008 1.329-.633 1.87-1.165a3.43 3.43 0 0 0 .747-2.596 7.48 7.48 0 0 0-.44-1.936h1.444v.495c.029.346.453.611.948.592s.88-.316.848-.66v-2.75c-.001-.349-.403-.629-.898-.629m-5.688 6.674h-3.116c-.493-.064-1.127.202-1.57-1.71a1.412 1.412 0 0 1 .013-.924c.067-.261.26-.963.785-.963h4.644c.759.051 1.266 1 1.266 1.912.004 1.705-1.098 1.674-2.022 1.685"/></svg>