<svg xmlns="http://www.w3.org/2000/svg" viewBox="0 0 24 24"><path fill="#44739e" d="M11.088 4.982c.048.049.1.11.154.171l.086.084c.047.061.095.11.128.15v.014a2.02 2.02 0 0 1 .38.668 1.5 1.5 0 0 1 .085.607 1.85 1.85 0 0 1-.299 1.019 2.62 2.62 0 0 1-.418.531c-.167.15-.14.33.059.467a.712.712 0 0 0 .472.123.542.542 0 0 0 .385-.14 2.804 2.804 0 0 0 .952-2.011A2.2 2.2 0 0 0 13 6.147a2.16 2.16 0 0 0-.188-.549c0-.008-.007-.018-.011-.026a2.75 2.75 0 0 0-.534-.747 2 2 0 0 0-.185-.205.005.005 0 0 0-.006 0h-.008a2.09 2.09 0 0 1-.612-1.449 2.156 2.156 0 0 1 .727-1.554c.192-.178.172-.317-.055-.473a.73.73 0 0 0-.467-.142.605.605 0 0 0-.406.155 2.99 2.99 0 0 0-.841 1.37 2.46 2.46 0 0 0-.09.629 2.5 2.5 0 0 0 .033.33 2.81 2.81 0 0 0 .731 1.496m-3.774.037c.054.057.11.11.153.168l.085.095a.9.9 0 0 0 .087.089h-.006c.006 0 .014 0 .02.011a2.19 2.19 0 0 1 .399.685 1.66 1.66 0 0 1 .099.653 2.134 2.134 0 0 1-.712 1.54c-.186.179-.172.312.054.463a.17.17 0 0 1 .059.055.684.684 0 0 0 .413.079.565.565 0 0 0 .392-.145 2.654 2.654 0 0 0 .932-1.992 2.75 2.75 0 0 0-.054-.562 3.7 3.7 0 0 0-.14-.377c-.027-.071-.049-.147-.078-.213a3.08 3.08 0 0 0-.513-.707 2.6 2.6 0 0 0-.186-.206c0-.007-.008-.007-.008-.007-.032-.035-.056-.072-.086-.11a2.22 2.22 0 0 1-.403-.677 1.94 1.94 0 0 1-.129-.66 1.9 1.9 0 0 1 .129-.643 2.18 2.18 0 0 1 .252-.496 2.64 2.64 0 0 1 .349-.417c.159-.157.132-.33-.068-.469a.686.686 0 0 0-.457-.128.635.635 0 0 0-.414.15 2.837 2.837 0 0 0-.927 2.003 2.57 2.57 0 0 0 .478 1.462 2.9 2.9 0 0 0 .28.356m7.558-.038c.08.094.152.178.225.256v.006l.035.038a.7.7 0 0 1 .08.1h.007a.17.17 0 0 1 .019.028 1.98 1.98 0 0 1 .367.647h.007a1.99 1.99 0 0 1 .092.608 2.145 2.145 0 0 1-.725 1.553c-.186.19-.167.313.067.47a.3.3 0 0 1 .046.044.686.686 0 0 0 .413.083.54.54 0 0 0 .412-.15 2.76 2.76 0 0 0 .925-2 3.4 3.4 0 0 0-.054-.512h.007s-.007-.011-.007-.023a2.67 2.67 0 0 0-.213-.568h-.006a2.73 2.73 0 0 0-.526-.747l-.193-.219a1.91 1.91 0 0 1-.605-1.438 1.954 1.954 0 0 1 .282-.99 2.53 2.53 0 0 1 .43-.56c.186-.178.167-.317-.06-.472a.72.72 0 0 0-.467-.133.627.627 0 0 0-.392.155 3.46 3.46 0 0 0-.475.568c-.015.02-.024.042-.038.063a2.4 2.4 0 0 0-.397 1.193c0 .058-.016.11-.015.172a2.29 2.29 0 0 0 .16.88 2.96 2.96 0 0 0 .599.948m5.912 9.628a.979.979 0 0 0-.078-.931c-.239-.46-1.897-.573-1.822-.029.029.22.089.369-.183.395a2.4 2.4 0 0 1-.122-.281l-.47-1.442a2.354 2.354 0 0 0-1.137-1.334l-.33-.18a3.45 3.45 0 0 0-1.629-.406H8.99a3.45 3.45 0 0 0-1.629.406l-.33.18a2.354 2.354 0 0 0-1.137 1.334l-.473 1.438a2.6 2.6 0 0 1-.121.281c-.273-.027-.213-.18-.184-.395.075-.545-1.583-.431-1.822.028a.979.979 0 0 0-.078.932 1.918 1.918 0 0 0 1.525.254l-.956 1.169a1.88 1.88 0 0 0-.513 1.293l.026 4.757a.96.96 0 0 0 .99.922h1.455a.44.44 0 0 0 .459-.44l-.025-1.073h11.652l-.025 1.073a.44.44 0 0 0 .458.44h1.456a.96.96 0 0 0 .99-.922l.027-4.757a1.88 1.88 0 0 0-.513-1.293l-.963-1.169a1.918 1.918 0 0 0 1.525-.25M7.191 17.63H4.477c-.121 0-.37-.055-.37-.421l.183-.951c.063-.33.715-.311 1.005-.139l2.009 1.106a.22.22 0 0 1-.113.405m-.944-3.165a.11.11 0 0 1-.11-.11v-.399a2.822 2.822 0 0 1 2.908-2.726h5.91a2.822 2.822 0 0 1 2.909 2.727v.399a.11.11 0 0 1-.11.11H6.247Zm13.463 1.793.183.951c0 .366-.249.421-.37.421h-2.714a.22.22 0 0 1-.11-.405l2.01-1.106c.286-.172.938-.193 1.001.139"/></svg>