<svg xmlns="http://www.w3.org/2000/svg" fill="#44739e" viewBox="0 0 24 24"><path d="M11.171 5.619c.043.045.091.1.14.156l.078.076c.043.056.086.1.116.137V6a1.84 1.84 0 0 1 .346.608 1.36 1.36 0 0 1 .077.552 1.68 1.68 0 0 1-.272.926 2.38 2.38 0 0 1-.38.483c-.152.136-.127.3.054.425a.647.647 0 0 0 .429.111.493.493 0 0 0 .35-.127 2.55 2.55 0 0 0 .866-1.828 2 2 0 0 0-.066-.471 1.96 1.96 0 0 0-.171-.5c0-.007-.006-.016-.01-.023a2.5 2.5 0 0 0-.485-.679 1.8 1.8 0 0 0-.168-.187.005.005 0 0 0-.006 0h-.007a1.9 1.9 0 0 1-.557-1.317 1.96 1.96 0 0 1 .661-1.413c.175-.162.157-.289-.05-.43a.665.665 0 0 0-.424-.13.55.55 0 0 0-.369.141 2.72 2.72 0 0 0-.765 1.246 2.24 2.24 0 0 0-.082.572 2.3 2.3 0 0 0 .03.3 2.554 2.554 0 0 0 .665 1.36m-3.432.034c.049.052.1.1.139.153l.078.086a.8.8 0 0 0 .079.081h-.006c.006 0 .013 0 .018.01a1.99 1.99 0 0 1 .363.623 1.51 1.51 0 0 1 .09.594 1.94 1.94 0 0 1-.647 1.4c-.169.163-.157.284.049.421a.155.155 0 0 1 .054.05.622.622 0 0 0 .375.072.514.514 0 0 0 .357-.132A2.413 2.413 0 0 0 9.535 7.2a2.5 2.5 0 0 0-.049-.511 3.4 3.4 0 0 0-.127-.343c-.025-.065-.045-.134-.071-.194a2.8 2.8 0 0 0-.467-.643 2.4 2.4 0 0 0-.169-.187c0-.006-.007-.006-.007-.006-.029-.032-.051-.066-.078-.1A2.02 2.02 0 0 1 8.2 4.6a1.76 1.76 0 0 1-.117-.6 1.73 1.73 0 0 1 .117-.585 1.98 1.98 0 0 1 .229-.451 2.4 2.4 0 0 1 .318-.379c.144-.143.12-.3-.062-.426a.624.624 0 0 0-.416-.117.577.577 0 0 0-.376.137A2.58 2.58 0 0 0 7.05 4a2.336 2.336 0 0 0 .435 1.329 2.66 2.66 0 0 0 .254.324m6.872-.035c.073.086.139.162.205.233v.006l.032.034a.63.63 0 0 1 .073.091h.006a.15.15 0 0 1 .017.026 1.8 1.8 0 0 1 .334.588h.006a1.81 1.81 0 0 1 .084.553 1.95 1.95 0 0 1-.659 1.412c-.169.173-.152.284.061.427a.26.26 0 0 1 .041.04.624.624 0 0 0 .376.076.492.492 0 0 0 .375-.137 2.51 2.51 0 0 0 .841-1.818 3.06 3.06 0 0 0-.049-.466h.006s-.006-.01-.006-.021a2.43 2.43 0 0 0-.194-.516h-.006a2.48 2.48 0 0 0-.478-.679l-.175-.2a1.736 1.736 0 0 1-.55-1.307 1.777 1.777 0 0 1 .256-.9 2.3 2.3 0 0 1 .391-.509c.169-.162.152-.289-.055-.43A.656.656 0 0 0 15.119 2a.57.57 0 0 0-.357.141 3.15 3.15 0 0 0-.432.517c-.013.018-.021.038-.034.057a2.184 2.184 0 0 0-.361 1.085c0 .053-.015.1-.014.156a2.08 2.08 0 0 0 .146.8 2.69 2.69 0 0 0 .544.862m5.376 8.755a.89.89 0 0 0-.071-.847c-.217-.418-1.725-.521-1.657-.026.027.2.081.335-.166.359a2.2 2.2 0 0 1-.111-.255l-.427-1.312a2.14 2.14 0 0 0-1.034-1.213l-.3-.163a3.14 3.14 0 0 0-1.481-.369H9.263a3.14 3.14 0 0 0-1.481.369l-.3.163a2.14 2.14 0 0 0-1.034 1.213l-.43 1.308a2.4 2.4 0 0 1-.11.255c-.248-.024-.194-.163-.167-.359.068-.495-1.44-.392-1.657.026a.89.89 0 0 0-.071.847A1.744 1.744 0 0 0 5.4 14.6l-.87 1.063a1.71 1.71 0 0 0-.466 1.176l.024 4.325a.873.873 0 0 0 .9.838h1.323a.4.4 0 0 0 .417-.4l-.023-.975H17.3l-.023.975a.4.4 0 0 0 .417.4h1.324a.873.873 0 0 0 .9-.838l.024-4.325a1.71 1.71 0 0 0-.466-1.176L18.6 14.6a1.744 1.744 0 0 0 1.387-.227M7.627 17.12H5.16c-.11 0-.337-.05-.337-.383l.167-.865c.057-.3.65-.283.913-.126l1.827 1.005a.2.2 0 0 1-.103.369m-.858-2.878a.1.1 0 0 1-.1-.1v-.363A2.566 2.566 0 0 1 9.313 11.3h5.374a2.566 2.566 0 0 1 2.645 2.48v.363a.1.1 0 0 1-.1.1H6.769Zm12.241 1.63.167.865c0 .333-.227.383-.337.383h-2.467a.2.2 0 0 1-.1-.369l1.827-1.005c.26-.157.853-.176.91.126"/></svg>