<svg xmlns="http://www.w3.org/2000/svg" fill="#44739e" viewBox="0 0 24 24"><path d="M8.88 7.715c.143-.114.282-.234.433-.339a4.767 4.767 0 0 1 5.647.216 1.56 1.56 0 0 0 .672.366.673.673 0 0 0 .661-.164.508.508 0 0 0 .068-.6 1.017 1.017 0 0 0-.323-.424 6.862 6.862 0 0 0-4.1-1.462 6.28 6.28 0 0 0-4.022 1.546.96.96 0 0 0-.315.453.513.513 0 0 0 .511.67 1.072 1.072 0 0 0 .768-.262m8.878-3.521A8.6 8.6 0 0 0 11.886 2a8.816 8.816 0 0 0-5.575 1.975 1.66 1.66 0 0 0-.224.211.5.5 0 0 0-.1.591.629.629 0 0 0 .558.321 1.273 1.273 0 0 0 .9-.325 7.248 7.248 0 0 1 9.166.165 1.97 1.97 0 0 0 .31.224.832.832 0 0 0 1.04-.059c.206-.249.13-.609-.203-.909m-3.695 4.511H9.937a3.107 3.107 0 0 0-3.107 3.108v7.08A3.107 3.107 0 0 0 9.937 22h4.126a3.107 3.107 0 0 0 3.107-3.107v-7.08a3.107 3.107 0 0 0-3.107-3.108M12 14.04a1.176 1.176 0 1 1 1.176-1.176A1.176 1.176 0 0 1 12 14.04"/></svg>