<svg xmlns="http://www.w3.org/2000/svg" viewBox="0 0 24 24"><path fill="#44739e" d="m20.778 16.725-5.057-.023c0-.049.007-.095.007-.144a5.516 5.516 0 1 0-11.031 0v.093l-1.608-.007v-3.389a1.498 1.498 0 0 1 1.172-1.462l3.321-1.061a16.57 16.57 0 0 1 4.654-.78l3.298-.074a5.41 5.41 0 0 0 2.25-.403l4.233-2.107c.77-.408 1.241-.898.833-1.665-.303-.567-1.614-.246-2.183.056L16.905 7.27c-.185.099-.373.18-.536.249a17.6 17.6 0 0 0-5.617-4.135 15.79 15.79 0 0 0-7.223-1.449 1.65 1.65 0 0 0-.966.31.808.808 0 0 0-.315.722 1.473 1.473 0 0 0 .897 1.063 3.21 3.21 0 0 0 1.546.349l.239-.007c.188-.007.376-.016.571-.009a12.313 12.313 0 0 1 7.795 3.396 18.71 18.71 0 0 0-5.637.818c-.879.213-1.759.471-2.612.77l-1.682.58A3.502 3.502 0 0 0 1 13.234v4.138c0 1.259.562 1.597 1.869 1.598l2.404.024a5.505 5.505 0 0 0 9.836.1l5.75.057a1.291 1.291 0 0 0 1.36-1.162 1.292 1.292 0 0 0-1.441-1.264m-7.794-.034a2.771 2.771 0 0 1-1.568 2.366 2.672 2.672 0 0 1-2.441-.026 2.773 2.773 0 0 1-1.526-2.367c0-.035-.01-.069-.01-.11a2.779 2.779 0 1 1 5.558 0c-.002.05-.013.092-.013.137"/></svg>