<svg xmlns="http://www.w3.org/2000/svg" viewBox="0 0 24 24"><path fill="#44739e" d="M13.616 14.563c.009.02.009.029 0 .049s-.02.029-.029.038c-.145.087-.6.349-1.171.349-1.006 0-1.587-.697-1.654-1.693-1.142.977-1.964 1.731-3.232 1.731-.348.01-.696-.058-1.015-.193s-.61-.329-.852-.59c-.367.271-1.112.745-1.857.745-1.229 0-1.964-.91-1.964-2.1v-1.383c0-.01-.01-.029-.01-.029-.01-.01-.019-.01-.029-.01h-.774c-.01 0-.01-.01-.019-.01 0 0-.01-.009-.01-.019v-.909c0-.01.01-.01.01-.02s.009-.009.019-.009h.755c.009 0 .029-.01.029-.01.009-.01.009-.019.009-.029V9.378c0-.01.01-.029.01-.039.01-.01.019-.019.029-.019l.987-.339h.019c.01 0 .01 0 .02.01L2.896 9v1.452c0 .009.01.029.01.029.01.009.019.009.029.009h.929c.009 0 .029.01.029.01.009.01.009.019.009.029v.871c0 .009-.009.029-.009.029-.01.009-.02.009-.029.009h-.919c-.01 0-.01.01-.02.01 0 0-.009.01-.009.019v1.2c0 .745.241 1.287.957 1.287.397 0 .852-.319 1.219-.59-.164-.387-.251-.794-.251-1.21 0-1.567 1.161-2.709 2.612-2.709.522 0 1.035.165 1.461.475s.754.735.919 1.238q.014.029 0 .058c0 .019-.019.039-.029.048a19.5 19.5 0 0 1-2.187 1.703c-.009.01-.019.01-.038.019H7.54c-.01 0-.029-.009-.039-.019 0 .01-.009 0-.019-.01l-.464-.658c-.01-.009-.01-.019-.02-.038v-.039c0-.01.01-.029.02-.039l.029-.029c.648-.406 1.509-1.122 1.509-1.122s-.281-.58-1.103-.58c-.851 0-1.529.725-1.529 1.722 0 .977.736 1.828 1.635 1.828.939 0 1.955-.967 3.183-2.099V9.378c0-.01.01-.029.01-.039.01-.01.019-.019.029-.019l.977-.339h.019c.01 0 .01 0 .02.01l.01.009v1.461c0 .01.009.029.009.029.01.01.02.01.029.01h.929c.01 0 .029.01.029.01.01.009.01.019.01.029v.87c0 .01-.01.029-.01.029-.01.01-.019.01-.029.01h-.929c-.009 0-.029.01-.029.01s-.009.019-.009.029v1.296c0 .542.038 1.18.696 1.18.261 0 .561-.193.677-.251.01 0 .02-.01.039 0q.015 0 .029.029Zm6.424-5.601h-.813l-.706 2.37-.716-2.37h-.813l1.074 3.289h.9Zm0 0h-.813l-.706 2.37-.716-2.37h-.813l1.074 3.289h.9Zm0 0h-.813l-.706 2.37-.716-2.37h-.813l1.074 3.289h.9Zm-5.95.716h.841v2.573h.745V9.678h.852v-.716h-2.429v.716Zm7.991-.716h-.658v.919h-.919v.658h.919v.928h.658v-.928H23v-.658h-.919Z"/></svg>