<svg xmlns="http://www.w3.org/2000/svg" viewBox="0 0 24 24"><path fill="#44739e" d="M22.985 16.442c.02.03.02.05 0 .089-.02.03-.029.049-.049.069-.257.148-1.046.612-2.042.612-1.755 0-2.762-1.214-2.88-2.949-1.992 1.706-3.422 3.018-5.632 3.018-.611.019-1.213-.099-1.775-.336-.553-.236-1.065-.572-1.48-1.025-.641.473-1.943 1.302-3.235 1.302-2.14 0-3.422-1.588-3.422-3.66v-2.416c0-.02-.02-.05-.02-.05-.02-.019-.03-.019-.049-.019H1.049c-.019 0-.019-.02-.029-.02 0 0-.02-.02-.02-.03V9.43c0-.02.02-.02.02-.03 0-.02.019-.02.029-.02h1.312c.02 0 .049-.019.049-.019.02-.02.02-.03.02-.05V7.408c0-.02.02-.05.02-.069.02-.02.029-.03.049-.03l1.716-.592h.03c.01 0 .02 0 .03.02l.029.01v2.525c0 .019.02.049.02.049.02.02.03.02.049.02h1.618c.02 0 .049.02.049.02.02.019.02.029.02.049v1.519c0 .02-.02.049-.02.049-.02.02-.029.02-.049.02H4.393c-.01 0-.02.02-.03.02 0 0-.019.019-.019.029v2.091c0 1.302.424 2.239 1.667 2.239.69 0 1.479-.552 2.12-1.026-.286-.67-.434-1.381-.434-2.11 0-2.733 2.022-4.725 4.557-4.725.907 0 1.805.286 2.545.829s1.312 1.282 1.598 2.16c.019.029.019.069 0 .098 0 .03-.03.069-.05.089-1.193 1.075-2.475 2.071-3.807 2.969-.02.02-.03.02-.069.029h-.069c-.02 0-.049-.019-.069-.029 0 .02-.02 0-.03-.02l-.808-1.144c-.02-.02-.02-.03-.03-.069v-.069c0-.02.02-.049.03-.069l.049-.049c1.134-.711 2.633-1.953 2.633-1.953s-.493-1.016-1.923-1.016c-1.48 0-2.663 1.262-2.663 2.998 0 1.707 1.282 3.186 2.85 3.186 1.638 0 3.403-1.687 5.553-3.659V7.408c0-.02.02-.05.02-.069.02-.02.03-.03.049-.03l1.707-.592h.029c.02 0 .02 0 .03.02l.02.02v2.544c0 .02.019.05.019.05.02.019.03.019.05.019h1.617c.02 0 .05.02.05.02.019.02.019.03.019.049v1.519c0 .02-.019.05-.019.05-.02.019-.03.019-.05.019h-1.617c-.02 0-.05.02-.05.02s-.019.03-.019.049v2.259c0 .947.069 2.062 1.213 2.062.454 0 .976-.336 1.183-.434.02 0 .03-.02.07 0 .019 0 .029.019.049.049Z"/></svg>