<svg xmlns="http://www.w3.org/2000/svg" viewBox="0 0 24 24"><path fill="#44739e" d="M-.0004 12V8.7985H16.58v6.403H-.0004Zm4.2812.723v-1.3708h.9764V9.9063H1.483v1.4459h.9764v2.7415h1.8214zm5.0931.7275.005-.643.5774-.005.5774-.005V11.747l-.5774-.005-.5774-.005v-.7699l.8028-.005.8027-.005V9.906H7.5481v4.1873h1.821zm5.6851-1.4599c0-1.168-.007-2.103-.0162-2.103-.0143 0-1.6424.4774-1.8005.5279l-.061.0195v3.6587h1.8778zm2.61 1.212v-1.0242h.9014v.2253h-.5821v.6572h.4507v.2441h-.4688l-.005.4554-.005.4553-.1455.005-.1456.005zm4.5724 1.006c-.1595-.0414-.1972-.1151-.1972-.3853v-.199h.3004v.1582c0 .1974.0154.2173.169.2173.1671 0 .169-.004.1687-.3534-.0001-.162-.008-.3071-.018-.3226-.0136-.0214-.0698-.0304-.2331-.0376-.2411-.0105-.2937-.033-.3542-.1515-.0279-.0546-.0328-.1187-.0329-.4215 0-.4025.0135-.4555.1326-.5193.0921-.0494.5767-.0504.6748-.001.1059.0529.133.1299.127.3614l-.005.1972h-.2816l-.006-.1587c-.003-.0873-.0146-.1697-.0258-.183-.0262-.0317-.2623-.0332-.2935-.002-.0155.0154-.0225.109-.0225.2993 0 .3431-.006.3352.2717.3353.1557.0001.199.007.2505.038.104.0634.1162.121.1162.5454 0 .4274-.0111.4747-.1285.5472-.0603.0373-.0964.0426-.3125.0464-.1344.002-.2697-.002-.3007-.0104zm-3.4645-1.035v-1.014h.3005v2.028h-.3005zm.601 0v-1.014h.3004v1.7839h.5069v.244h-.8074zm1.0139 0v-1.014h.3745l.0281.0986c.0154.0542.0876.314.1604.5774s.1385.4939.1462.5123c.009.0221.071-.1736.1824-.5774l.1685-.6109h.3294v2.028h-.2816l-.001-.7089-.001-.7088-.1362.4788-.1361.4788-.1395.005-.1395.005-.1408-.5017-.1408-.5017-.005.7264-.005.7263h-.2624v-1.014Zm-2.5256-1.313c-.1688-.0408-.1971-.0978-.1971-.3956v-.227l.1455.005.1455.005.006.1586c.003.0873.0146.1697.0258.183.013.0158.0664.0245.1499.0245.1218 0 .1307-.003.148-.0482.0277-.0731.0235-.5765-.005-.6128-.0179-.0225-.0717-.0319-.2221-.0389-.2246-.0105-.2989-.038-.3562-.132-.033-.0542-.0367-.0961-.0367-.4356 0-.3392.004-.3813.0366-.4355.0661-.1084.1133-.1254.3697-.134.1634-.005.232-.002.232.0133 0 .0116.0214.0211.0476.0211.0987 0 .1774.0507.2168.1398.0307.0695.0365.1176.0321.2682l-.005.1835-.1455.005-.1455.005v-.1522c0-.212-.009-.225-.1659-.225-.0738 0-.1365.009-.1496.0226-.0156.0156-.0225.1115-.0225.3103v.2877l.0482.0183c.0265.0101.1284.0183.2263.0183.3337 0 .363.0466.3636.578.0004.3875-.0101.4453-.0958.524-.0246.0227-.0827.05-.1292.0607-.0949.0219-.43.0238-.5163.003zm2.15-1.0154V9.8124h.3916c.3765 0 .394.002.455.0428.1063.0716.1105.0931.1108.5694.0003.4203-.001.4358-.0424.4971-.0329.049-.1158.1124-.1585.1215-.002.0005.0628.1718.1445.3808s.1538.397.1604.4177c.0115.0361.005.0375-.1533.0323l-.1652-.005-.1584-.4084-.1583-.4084h-.1257v.8262h-.3005zm.6656-.1168c.0234-.0335.0292-.1002.0292-.3367 0-.3642.007-.354-.2267-.354h-.1676v.7324h.1679c.1522 0 .1706-.004.1972-.0417m2.5664 1.1319c-.035-.009-.0898-.0425-.122-.0747l-.0587-.0585-.006-.2446-.006-.2446.147.006.147.006.006.1586c.003.0873.0147.1697.0259.1831.013.0157.0662.0244.1487.0244.1078 0 .1316-.006.148-.0363.029-.0545.0255-.6114-.004-.6348-.013-.0102-.115-.0235-.2267-.0295-.2311-.0125-.2974-.0395-.3533-.144-.0306-.0573-.035-.1101-.035-.4226 0-.4035.0134-.4568.1315-.5254.0535-.031.1067-.0394.2863-.0449.1527-.005.2207-.0003.2207.0141 0 .0114.0275.0208.061.0208s.089.0171.1232.038c.0936.0571.1184.1372.1121.362l-.005.1915h-.2816l-.006-.1587c-.003-.0873-.0146-.1696-.0258-.183-.0262-.0317-.2623-.0332-.2936-.002-.0155.0154-.0225.109-.0225.2993 0 .3431-.006.3353.2718.3354.2181 0 .294.0315.3396.1405.0411.0985.0387.7962-.003.8843-.0559.1178-.1301.1452-.4093.1513-.1353.003-.2745-.002-.3094-.011zm-4.3586-1.0339v-1.014h.8638v.2441H19.19v.6009h.49l-.006.1268-.006.1267-.2394.005-.2394.005v.6749h.582v.244h-.8825zm2.4598 0v-1.014h.3005v2.028h-.3005zm.6197 0v-1.014h.8655l-.006.1174-.006.1174-.277.005-.2769.005v.5999h.4694v.2628h-.4694v.676h.5821v.2441h-.8825zm-2.8323-1.1047c.003-.009.0401-.0718.0814-.1405l.0751-.1249.1371-.0003c.156-.0004.1552-.0111.0131.1648l-.0939.1162-.1095.0002c-.0602 0-.1068-.007-.1033-.0154z"/></svg>