<svg xmlns="http://www.w3.org/2000/svg" viewBox="0 0 24 24"><path fill="#44739e" d="M1 12V7.823h22v8.354H1Zm6.325 1.008v-1.88l.808-.009c.445-.004.814-.014.821-.021.007-.006.012-.447.012-.977v-.966l-2.831-.004-2.832-.005.004.984.005.984.821.005.82.004v3.764h2.372Zm4.744 1.183v-.696h1.598v-1.959h-1.599l.004-.211.005-.21 1.207-.005 1.208-.004v-1.96h-2.397c-1.318 0-2.401.007-2.406.015-.004.008-.004 1.3.002 2.87l.011 2.856h2.366Zm5.878.68c0-.034-1.588-2.734-1.6-2.721-.015.015-1.597 2.721-1.597 2.731 0 .004.719.007 1.598.007.99 0 1.599-.007 1.599-.016Zm3.094.009c0-.003-.637-1.1-1.415-2.436a4844 4844 0 0 1-1.649-2.833c-.129-.222-.245-.417-.257-.434-.021-.029-.103-.03-1.41-.026l-1.388.005.311.533c.17.293.921 1.582 1.668 2.866l1.359 2.333h1.39c.765 0 1.391-.003 1.391-.008m-.629-4.343.797-1.364-1.591-.005c-.875-.003-1.594-.002-1.597.002-.008.007 1.582 2.742 1.589 2.735.003-.003.364-.618.802-1.369Z"/></svg>