<svg xmlns="http://www.w3.org/2000/svg" fill="#44739e" viewBox="0 0 24 24"><path d="M8.8 12.7c0 .8.019.878.241 1.019.12.075.182.083 1 .083s.875 0 .946-.081a.309.309 0 0 0 .024-.376c-.048-.068-.119-.075-.852-.094l-.794-.019V12.18l.683-.021c.743-.019.8-.036.946-.26.062-.1.071-.2.071-.788 0-.754-.021-.839-.246-.981-.123-.076-.189-.081-1-.081s-.875.005-.946.078a.309.309 0 0 0-.023.374c.052.071.123.076.851.1l.8.019.009.477.012.473-.657.014C8.833 11.6 8.8 11.634 8.8 12.7m11.966.724c.08-.1.082-.14.082-2.126 0-2.526-.037-2.939-.34-3.831a6.327 6.327 0 0 0-5.363-4.261c-.544-.057-5.9-.057-6.343 0a6.26 6.26 0 0 0-2.558.863c-.419.248-.53.35-.53.492a.311.311 0 0 0 .274.288.99.99 0 0 0 .348-.156 6.4 6.4 0 0 1 2.1-.849 25.7 25.7 0 0 1 3.571-.075c3.225 0 3.228 0 3.634.092a5.719 5.719 0 0 1 4.5 4.479 8.54 8.54 0 0 1 .1 1.887l.019 1.5h-1.008l-.1-.166a.871.871 0 0 0-1.611.442v.018a.87.87 0 0 0 1.611.422l.1-.165h1.01v.52c0 .471.009.532.08.627v-.005a.275.275 0 0 0 .426 0zm-2.15-1.23a.3.3 0 0 1-.506-.189.284.284 0 0 1 .293-.272.272.272 0 0 1 .213.461m-5.042 1.327c.074-.121.078-.2.078-1.594s0-1.476-.078-1.594c-.158-.26-.248-.284-1.057-.284s-.9.024-1.054.284c-.076.121-.078.2-.078 1.594s0 1.476.078 1.594a.71.71 0 0 0 .2.2c.118.07.2.078.851.078.812.006.902-.018 1.06-.278m-.489-1.594v1.31l-.558.012c-.426.007-.563 0-.577-.04s-.015-.622-.01-1.32l.01-1.272h1.135zM12 7.583c1.144 0 1.263-.014 1.388-.2a.528.528 0 0 0 0-.5c-.13-.194-1.112-1.289-1.182-1.329a.52.52 0 0 0-.395 0 17.8 17.8 0 0 0-1.181 1.327.538.538 0 0 0-.007.5.52.52 0 0 0 .189.142 5.1 5.1 0 0 0 1.188.06m-.651-.653c.261-.312.639-.733.655-.733a8.9 8.9 0 0 1 .663.733c.054.066.018.071-.66.071S11.3 7 11.351 6.93Zm10.415.646a7.65 7.65 0 0 0-1.285-2.635 9.6 9.6 0 0 0-1.414-1.416 7.6 7.6 0 0 0-2.636-1.282c-.946-.241-.859-.236-4.423-.236S8.53 2 7.584 2.243a7.57 7.57 0 0 0-2.634 1.28 9.9 9.9 0 0 0-1.416 1.418 7.66 7.66 0 0 0-1.282 2.635c-.234.917-.23.87-.246 4.11-.014 2.033 0 3.152.033 3.485a7.38 7.38 0 0 0 1.206 3.481c.324.485.4.577.537.608A.276.276 0 0 0 4.1 19c.01-.111-.031-.194-.244-.485a6.91 6.91 0 0 1-1.215-3.15c-.087-.719-.064-6.5.031-7A6.967 6.967 0 0 1 8.49 2.652c.485-.078 6.555-.078 7.04 0a6.949 6.949 0 0 1 5.831 5.829c.041.258.053 1.031.053 3.522 0 3.346 0 3.426-.18 4.162a6.979 6.979 0 0 1-5 5.046c-.74.187-.756.189-3.949.206a21.3 21.3 0 0 1-4.162-.13 7.16 7.16 0 0 1-3.008-1.426c-.213-.175-.324-.241-.414-.244a.271.271 0 0 0-.283.284c-.005.151.066.222.633.648a7.463 7.463 0 0 0 3.909 1.438c.078.007 1.537.012 3.247.007 3.377-.007 3.3 0 4.228-.236a7.65 7.65 0 0 0 2.634-1.284 9.5 9.5 0 0 0 1.414-1.414 7.63 7.63 0 0 0 1.285-2.637C22 15.474 22 15.562 22 12s0-3.478-.236-4.424M3.952 8a5.815 5.815 0 0 1 1.135-2.191c.267-.333.308-.47.18-.612a.318.318 0 0 0-.4-.01 6.248 6.248 0 0 0-1.653 3.685c-.056.537-.056 5.722 0 6.266A6.324 6.324 0 0 0 8.823 20.8l.008-.01c.47.052 5.838.052 6.321 0a6.217 6.217 0 0 0 3.842-1.821 6.38 6.38 0 0 0 1.722-3.157 4.85 4.85 0 0 0 .1-1.428.275.275 0 0 0-.5-.014 2.9 2.9 0 0 0-.064.5 5.756 5.756 0 0 1-4.607 5.267c-.409.09-.411.09-3.637.09s-3.225 0-3.637-.09a5.76 5.76 0 0 1-4.5-4.489 8.53 8.53 0 0 1-.1-1.884l-.019-1.495H4.77l.1.175a.812.812 0 0 0 .818.414H5.7A.813.813 0 0 0 6.475 12v-.022a.811.811 0 0 0-.793-.829.811.811 0 0 0-.82.414l-.1.165H3.758v-1.322A8.56 8.56 0 0 1 3.952 8m1.665 3.727a.272.272 0 0 1 .213.459.3.3 0 0 1-.506-.186.284.284 0 0 1 .293-.272Zm8.366-1.448a.933.933 0 0 0 .975-.152.909.909 0 0 0 0-1.267.934.934 0 0 0-.946-.166.883.883 0 0 0-.031 1.594zm.171-.994a.29.29 0 1 1 .4.417.289.289 0 1 1-.4-.414zm-2.367 9.147a.486.486 0 0 0 .421.019c.073-.038 1.052-1.137 1.184-1.326a.541.541 0 0 0 0-.5c-.127-.184-.248-.2-1.383-.2s-1.254.017-1.381.2a.535.535 0 0 0 0 .5q.551.675 1.159 1.307m-.128-1.416q.351-.009.7 0l.355.009-.338.391q-.172.208-.362.4a3.25 3.25 0 0 1-.369-.391l-.343-.4z"/></svg>