<svg xmlns="http://www.w3.org/2000/svg" viewBox="0 0 24 24"><path fill="#44739e" d="M8.48 12.768c0 .88.02.966.265 1.121.132.083.2.092 1.1.092s.962 0 1.04-.089a.34.34 0 0 0 .027-.414c-.053-.075-.131-.083-.937-.104l-.874-.02v-1.158l.751-.023c.818-.021.88-.039 1.041-.286.068-.11.078-.22.078-.867 0-.829-.023-.923-.27-1.079-.136-.083-.208-.089-1.101-.089s-.962.006-1.04.086a.34.34 0 0 0-.025.411c.057.079.135.084.936.11l.88.021.01.525.013.52-.723.016c-1.135.017-1.171.055-1.171 1.227m13.163.797c.088-.11.09-.154.09-2.339 0-2.779-.041-3.233-.374-4.214a6.96 6.96 0 0 0-5.9-4.687c-.598-.063-6.49-.063-6.977 0a6.89 6.89 0 0 0-2.814.949c-.461.273-.583.385-.583.541a.342.342 0 0 0 .301.317 1.09 1.09 0 0 0 .383-.172 7.04 7.04 0 0 1 2.31-.934 28.3 28.3 0 0 1 3.928-.082c3.548 0 3.551 0 3.998.101a6.291 6.291 0 0 1 4.95 4.927 9.4 9.4 0 0 1 .11 2.076l.021 1.65h-1.109l-.11-.183a.958.958 0 0 0-1.772.487v.019a.957.957 0 0 0 1.772.465l.11-.182h1.111v.572c0 .518.01.585.088.69v-.006a.303.303 0 0 0 .469 0Zm-2.366-1.353a.33.33 0 0 1-.556-.208.312.312 0 0 1 .322-.299.299.299 0 0 1 .234.507m-5.546 1.459c.082-.133.086-.22.086-1.753s0-1.624-.086-1.753c-.174-.286-.273-.313-1.163-.313s-.99.027-1.159.313c-.084.133-.086.22-.086 1.753s0 1.624.086 1.753a.78.78 0 0 0 .22.221c.13.077.22.085.936.085.893.007.992-.019 1.166-.306m-.538-1.753v1.441l-.614.013c-.468.008-.619 0-.634-.044s-.017-.684-.011-1.452l.011-1.399h1.248ZM12 7.14c1.258 0 1.389-.016 1.527-.221a.581.581 0 0 0 0-.55c-.143-.213-1.224-1.417-1.301-1.461a.572.572 0 0 0-.434 0 19.6 19.6 0 0 0-1.299 1.459.592.592 0 0 0-.008.55.57.57 0 0 0 .208.157A5.6 5.6 0 0 0 12 7.14m-.716-.719c.287-.343.702-.806.72-.806a9.8 9.8 0 0 1 .729.806c.06.073.02.078-.726.078s-.777-.001-.721-.078Zm11.456.711a8.41 8.41 0 0 0-1.413-2.899 10.56 10.56 0 0 0-1.556-1.557 8.36 8.36 0 0 0-2.899-1.411c-1.041-.265-.945-.259-4.866-.259s-3.823-.008-4.864.259a8.33 8.33 0 0 0-2.898 1.408 10.9 10.9 0 0 0-1.557 1.56 8.43 8.43 0 0 0-1.41 2.899c-.258 1.009-.253.957-.271 4.521-.015 2.236 0 3.467.036 3.834a8.12 8.12 0 0 0 1.327 3.829c.356.533.44.634.591.669a.304.304 0 0 0 .349-.286c.011-.123-.034-.214-.268-.534A7.6 7.6 0 0 1 1.704 15.7c-.095-.791-.07-7.15.035-7.7a7.664 7.664 0 0 1 6.4-6.285c.533-.086 7.21-.086 7.744 0a7.644 7.644 0 0 1 6.414 6.412c.045.284.058 1.134.058 3.875 0 3.68 0 3.768-.198 4.578a7.677 7.677 0 0 1-5.5 5.551c-.814.205-.831.208-4.344.226a23.43 23.43 0 0 1-4.578-.143 7.876 7.876 0 0 1-3.309-1.568c-.234-.193-.356-.265-.455-.269a.298.298 0 0 0-.312.313c-.005.166.073.244.697.713a8.21 8.21 0 0 0 4.3 1.581c.085.008 1.69.014 3.571.008 3.715-.008 3.63 0 4.651-.26a8.41 8.41 0 0 0 2.898-1.412 10.45 10.45 0 0 0 1.555-1.555 8.39 8.39 0 0 0 1.414-2.901C23 15.82 23 15.917 23 11.998s0-3.826-.26-4.866m-19.593.466a6.4 6.4 0 0 1 1.248-2.41c.294-.366.339-.517.198-.673a.35.35 0 0 0-.44-.011 6.873 6.873 0 0 0-1.818 4.053c-.062.591-.062 6.295 0 6.893a6.957 6.957 0 0 0 6.17 6.229l.009-.011c.517.057 6.422.057 6.953 0a6.84 6.84 0 0 0 4.226-2.004 7.02 7.02 0 0 0 1.895-3.472 5.34 5.34 0 0 0 .11-1.571.303.303 0 0 0-.55-.016 3.2 3.2 0 0 0-.071.55 6.332 6.332 0 0 1-5.068 5.794c-.45.099-.452.099-4.001.099s-3.547 0-4-.099a6.336 6.336 0 0 1-4.95-4.938 9.38 9.38 0 0 1-.111-2.072l-.02-1.645h1.119l.11.193a.893.893 0 0 0 .9.455h.013a.894.894 0 0 0 .853-.944v-.024a.892.892 0 0 0-.872-.912.892.892 0 0 0-.902.456l-.11.181H2.933v-1.454a9.42 9.42 0 0 1 .214-2.647m1.831 4.1a.299.299 0 0 1 .234.505.33.33 0 0 1-.556-.205.312.312 0 0 1 .322-.299Zm9.203-1.593a1.026 1.026 0 0 0 1.073-.167 1 1 0 0 0 0-1.394 1.027 1.027 0 0 0-1.041-.182.971.971 0 0 0-.034 1.753Zm.188-1.093a.319.319 0 1 1 .44.458.318.318 0 1 1-.44-.455Zm-2.604 10.062a.535.535 0 0 0 .463.021c.081-.042 1.158-1.251 1.303-1.459a.595.595 0 0 0 0-.55c-.14-.202-.273-.22-1.521-.22s-1.38.019-1.52.22a.589.589 0 0 0 0 .55q.607.743 1.275 1.438m-.14-1.558q.386-.01.77 0l.39.01-.372.43q-.189.229-.398.44a3.6 3.6 0 0 1-.406-.43l-.377-.44Z"/></svg>