<svg xmlns="http://www.w3.org/2000/svg" fill="#44739e" viewBox="0 0 24 24"><path d="M19.546 10.463a1.13 1.13 0 0 0-1.041-.671h-8.041a.506.506 0 1 0 0 1.011h8.041a.136.136 0 0 1 .1.224l-8.633 9.911a.136.136 0 0 1-.233-.127l1.308-4.438a.506.506 0 0 0-.97-.286l-1.308 4.445a1.145 1.145 0 0 0 1.964 1.068l8.635-9.912a1.131 1.131 0 0 0 .178-1.225m-5.5 3.237a.509.509 0 0 0-.51-.5H5.5a.128.128 0 0 1-.124-.08.125.125 0 0 1 .02-.145l8.636-9.911a.136.136 0 0 1 .233.127l-1.312 4.437a.506.506 0 0 0 .97.285l1.308-4.444a1.123 1.123 0 0 0-.553-1.324A1.16 1.16 0 0 0 14.114 2a1.128 1.128 0 0 0-.847.4l-8.635 9.911a1.146 1.146 0 0 0 .864 1.9h8.04a.509.509 0 0 0 .51-.511m-4.984 7.808v-.001z"/></svg>