<svg xmlns="http://www.w3.org/2000/svg" viewBox="0 0 24 24"><path fill="#44739e" d="m20.14 8.045-.283.485h.186l.741-.502Zm-3.132 2.888.18-.315-7.346 4.017-8.792-.572.075.225 8.722.736Zm-.227.337-1.223.679-3.978 7.19-6.241-.975 1.3-2.306-.317-.046-1.392 2.281-.314-.046 1.459-2.274-.834-.109-1.92 2.862 8.871 1.53Zm4.996-8.3-9.484 17.435-8.871-1.528.918.917 8.871 1.529 8.871-17.742Zm-4.354 5.075H15.39L3.897 13.452l1.109.019 10.512-4.935 1.61.021ZM19.329 9.7l-.76 1.485L23 8.475v-.917Zm-4.684 3.653.707-1.206-5.434 3.166-8.026-.72.307.612 7.953.918Zm4.76-3.885 3.4-1.961-2.508.05-.051.228 1.395-.039-1.959 1.151Zm-2.093.868 4.329-7.659-8.736.903-4.283 6.731L1 13.822l8.842.555ZM2.883 13.683l6.961-3.369 3.57-5.959 6.771-.625-.111.248-6.509.6-3.33 5.576 5.026-2.351 2.269-.01.155-.232h-2.638L11.2 9.321l2.598-4.202 5.954-.528-3.565 5.786-6.647 3.605Z"/></svg>