<svg xmlns="http://www.w3.org/2000/svg" viewBox="0 0 24 24"><path fill="#44739e" d="M1.993 17.964v1.172a1.243 1.243 0 0 0 1.244 1.243h6.815v-3.658H3.237a1.243 1.243 0 0 0-1.244 1.243m18.784-1.243h-6.843v3.658h6.843a1.242 1.242 0 0 0 1.243-1.243v-1.172a1.242 1.242 0 0 0-1.243-1.243M1.98 11.411v1.172a1.242 1.242 0 0 0 1.243 1.243h6.829v-3.658H3.223a1.243 1.243 0 0 0-1.243 1.243m18.783-1.243h-6.829v3.658h6.829a1.243 1.243 0 0 0 1.244-1.243v-1.172a1.244 1.244 0 0 0-1.244-1.243M3.223 3.621h17.541c.6886 0 1.243.5544 1.243 1.243v1.172c0 .6886-.5544 1.243-1.243 1.243H3.223A1.2403 1.2403 0 0 1 1.98 6.036V4.864c0-.6886.5544-1.243 1.243-1.243" class="cls-1" data-name="Colore riempimento 1"/></svg>