<svg xmlns="http://www.w3.org/2000/svg" viewBox="0 0 24 24"><path fill="#44739e" d="M16.442 11.806v-.155a.194.194 0 0 0-.155 0h-.065a.453.453 0 0 0-.246.168.44.44 0 0 0-.077.155.52.52 0 0 0 0 .259.466.466 0 0 0 0 .259c.077.168.194.22.349.129a.4.4 0 0 0 .207-.207.492.492 0 0 0 0-.336.375.375 0 0 1-.013-.272m3.153-2.407a1.915 1.915 0 0 0-.841-.919 6.47 6.47 0 0 0-2.588-.725l-.997-.09a3.22 3.22 0 0 1-1.048-.117 1.67 1.67 0 0 1 .077-.789 7.09 7.09 0 0 1 1.191-2.187 4.27 4.27 0 0 1 .764-.764 1.644 1.644 0 0 1 1.048-.142.75.75 0 0 0 .595-.117 1.294 1.294 0 0 0 0-.97 2.265 2.265 0 0 0-1.178-1.501L16.347 1h-.091a.62.62 0 0 0-.298.116c-.452.324-.207.893-.116 1.424a1.01 1.01 0 0 1-.065.492 1.385 1.385 0 0 1-.44.504l-.491.518A8.13 8.13 0 0 0 13.487 6.5c-.078.233-.13.466-.194.712a3.5 3.5 0 0 0-.091.349l-1.462-.013a4.271 4.271 0 0 0-1.955-3.882 5.7 5.7 0 0 0-.789-.414 3.2 3.2 0 0 1-.738-.337 1.644 1.644 0 0 1-.517-.66 1.53 1.53 0 0 0-.324-.569.751.751 0 0 0-.712-.078.96.96 0 0 0-.284.181 1.13 1.13 0 0 0-.285.402 2.588 2.588 0 0 0 0 2.523.815.815 0 0 0 .453.337c.207 0 .427-.143.505-.246A2.03 2.03 0 0 1 8 4.067a2.122 2.122 0 0 1 1.436.324 3.248 3.248 0 0 1 1.398 3.157H9.54l-1.075.091a20.6 20.6 0 0 0-2.135.401 2.77 2.77 0 0 0-1.773 1.048 3.158 3.158 0 0 0-.181 2.239 29.5 29.5 0 0 0 1.217 4.788 3.054 3.054 0 0 0 1.125 1.89 7.946 7.946 0 0 0 3.533.349 1.3 1.3 0 0 1 0 .324 5.6 5.6 0 0 1 0 .815 1.644 1.644 0 0 1-.453 1.113c-.142.129-.297 0-.453 0a2.226 2.226 0 0 0-1.035-.116 3.455 3.455 0 0 0-1.695 1.177c-.168.194-.518.57-.285.867a1.773 1.773 0 0 0 1.411.453 8.3 8.3 0 0 0 1.009-.31 13.6 13.6 0 0 0 1.424-.557c.284-.116.893-.336 1.009-.608s-.336-.841-.259-1.294c0-.207 0-.414.091-.608s.103-.686.194-1.023a1.55 1.55 0 0 1 0-.259h.919a3.727 3.727 0 0 1 0 2.097c-.104.285-.194.517-.311.789s-.168.376-.129.401a1.3 1.3 0 0 0 .22.156c.207.116.414.22.647.323a9.12 9.12 0 0 0 2.161.816 1.85 1.85 0 0 0 1.294-.208.375.375 0 0 0 .156-.207 3.4 3.4 0 0 0-.233-.88 1.294 1.294 0 0 0-.725-.737 3.24 3.24 0 0 0-.88-.091l-.802-.077a2.77 2.77 0 0 1-.492-.117v-.427a5.07 5.07 0 0 1 .09-1.359 1.44 1.44 0 0 1 .156-.453l1.798.181c1.295.091 1.631-.168 2.11-.698a16.18 16.18 0 0 0 1.656-3.818c.233-.764.738-2.588.79-2.782a3.21 3.21 0 0 0-.039-1.838m-8.632 1.035a.31.31 0 0 1 .181-.181.427.427 0 0 1 .376 0c.181.091.336.336.491.764a5.1 5.1 0 0 1 .233.931 3.62 3.62 0 0 0 .402 1.191s.103-.078.323-.414a7.25 7.25 0 0 0 .518-.958c.168-.362.375-.789.44-.945a12.4 12.4 0 0 1 .673-1.384h.142a.4.4 0 0 1 .285.116v.181a28.5 28.5 0 0 1-1.074 2.847 7.4 7.4 0 0 1-.518 1.062 4.03 4.03 0 0 1-.673.957.336.336 0 0 1-.298 0c-.142 0-.271-.22-.44-.582a6.3 6.3 0 0 1-.466-1.682c-.077-.311-.245-.945-.31-1.088a1 1 0 0 0-.155-.245c-.156-.298-.195-.415-.13-.57m-1.178-.065a.518.518 0 0 1 .285-.284.44.44 0 0 1 .207 0 .246.246 0 0 1 .246.129.362.362 0 0 1 0 .259.93.93 0 0 0 0 .22c0 .168 0 .259-.116.311a1.75 1.75 0 0 1-.363 0H9.98c-.285-.065-.35-.363-.195-.635m-.155 1.916a.401.401 0 0 1 .363-.233c.155 0 .22 0 .323.259a1.62 1.62 0 0 1 .155.763v.828c0 .091 0 .143-.09.182a.336.336 0 0 1-.298 0 .427.427 0 0 1-.233-.169 1.99 1.99 0 0 1-.129-.815 2.46 2.46 0 0 0-.065-.479.518.518 0 0 1-.065-.336Zm-1.294-1.398v.194c0 .091 0 .22-.078.35a9.8 9.8 0 0 0 .078 2.018c.078.44 0 .57-.194.673a.505.505 0 0 1-.337 0h-.077a.84.84 0 0 1-.143-.323 5.07 5.07 0 0 1 0-1.191 7.05 7.05 0 0 0 0-1.19 1.204 1.204 0 0 0-.388-.531h-.375a.8.8 0 0 1-.298 0 .53.53 0 0 1-.246-.194.324.324 0 0 1 0-.142.44.44 0 0 1 .117-.414h.44l.88-.104h1.32c.22 0 .246.078.259.336a.52.52 0 0 1 0 .143.31.31 0 0 1 0 .103c0 .117-.117.143-.505.22s-.427-.038-.479.052Zm6.898 4.568a4.28 4.28 0 0 1-1.566 1.01 4.57 4.57 0 0 1-1.682.284 6.77 6.77 0 0 1-2.291-.621c-.492-.246-.621-.323-.66-.466a.375.375 0 0 1 0-.323.324.324 0 0 1 .401-.155c.22.103.738.414 1.022.517a3.6 3.6 0 0 0 1.825.337 4.35 4.35 0 0 0 1.799-.414 7.8 7.8 0 0 0 1.048-.647s.143-.143.233-.143a.18.18 0 0 1 .13 0c.129.22-.143.479-.285.621Zm2.057-3.274h-.103l-.078.168c0 .104-.09.285-.129.415-.117.414-.22.582-.401.673a.414.414 0 0 1-.272 0 1.2 1.2 0 0 1-.311 0 1.009 1.009 0 0 1-.906-.609 1.53 1.53 0 0 1-.181-.711 1.294 1.294 0 0 1 .414-.997 1.074 1.074 0 0 1 .712-.233 1.644 1.644 0 0 1 .802.207c.453.22.66.453.66.738s-.09.272-.232.349Z"/></svg>