<svg xmlns="http://www.w3.org/2000/svg" fill="#44739e" viewBox="0 0 24 24"><path d="M16 11.41v-.12a.15.15 0 0 0-.12 0h-.05a.35.35 0 0 0-.19.13.34.34 0 0 0-.06.12.4.4 0 0 0 0 .2.36.36 0 0 0 0 .2c.06.13.15.17.27.1a.31.31 0 0 0 .16-.16.38.38 0 0 0 0-.26.29.29 0 0 1-.01-.21m2.4363-1.8602a1.48 1.48 0 0 0-.65-.71 5 5 0 0 0-2-.56l-.77-.07a2.49 2.49 0 0 1-.81-.09 1.29 1.29 0 0 1 .06-.61 5.48 5.48 0 0 1 .92-1.69 3.3 3.3 0 0 1 .59-.59 1.27 1.27 0 0 1 .81-.11.58.58 0 0 0 .46-.09 1 1 0 0 0 0-.75 1.75 1.75 0 0 0-.91-1.16l-.21-.06h-.07a.48.48 0 0 0-.23.09c-.35.25-.16.69-.09 1.1a.78.78 0 0 1-.05.38 1.07 1.07 0 0 1-.34.39l-.38.4a6.28 6.28 0 0 0-1.05 1.89c-.06.18-.1.36-.15.55a2.7 2.7 0 0 0-.07.27l-1.13-.01a3.3 3.3 0 0 0-1.51-3 4.4 4.4 0 0 0-.61-.32 2.48 2.48 0 0 1-.57-.26 1.27 1.27 0 0 1-.4-.51 1.18 1.18 0 0 0-.25-.44.58.58 0 0 0-.55-.06.74.74 0 0 0-.22.14.87.87 0 0 0-.22.31 2 2 0 0 0 0 1.95.63.63 0 0 0 .35.26c.16 0 .33-.11.39-.19a1.57 1.57 0 0 1 .7-.57 1.64 1.64 0 0 1 1.11.25 2.51 2.51 0 0 1 1.08 2.44h-1l-.83.07a15.9 15.9 0 0 0-1.65.31 2.14 2.14 0 0 0-1.37.81 2.44 2.44 0 0 0-.14 1.73 22.8 22.8 0 0 0 .94 3.7 2.36 2.36 0 0 0 .87 1.46 6.14 6.14 0 0 0 2.73.27 1 1 0 0 1 0 .25 4.3 4.3 0 0 1 0 .63 1.27 1.27 0 0 1-.35.86c-.11.1-.23 0-.35 0a1.72 1.72 0 0 0-.8-.09 2.67 2.67 0 0 0-1.31.91c-.13.15-.4.44-.22.67a1.37 1.37 0 0 0 1.09.35 6.4 6.4 0 0 0 .78-.24 10.5 10.5 0 0 0 1.1-.43c.22-.09.69-.26.78-.47s-.26-.65-.2-1c0-.16 0-.32.07-.47s.08-.53.15-.79a1.2 1.2 0 0 1 0-.2h.71a2.88 2.88 0 0 1 0 1.62c-.08.22-.15.4-.24.61s-.13.29-.1.31a1 1 0 0 0 .17.12c.16.09.32.17.5.25a7.05 7.05 0 0 0 1.67.63 1.43 1.43 0 0 0 1-.16.29.29 0 0 0 .12-.16 2.62 2.62 0 0 0-.18-.68 1 1 0 0 0-.56-.57 2.5 2.5 0 0 0-.68-.07l-.62-.06a2.14 2.14 0 0 1-.38-.09v-.33a3.92 3.92 0 0 1 .07-1.05 1.11 1.11 0 0 1 .12-.35l1.39.14c1 .07 1.26-.13 1.63-.54a12.5 12.5 0 0 0 1.28-2.95c.18-.59.57-2 .61-2.15a2.48 2.48 0 0 0-.03-1.42m-6.67.8a.24.24 0 0 1 .14-.14.33.33 0 0 1 .29 0c.14.07.26.26.38.59a3.93 3.93 0 0 1 .18.72 2.8 2.8 0 0 0 .31.92s.08-.06.25-.32a5.6 5.6 0 0 0 .4-.74c.13-.28.29-.61.34-.73a9.6 9.6 0 0 1 .52-1.07h.11a.31.31 0 0 1 .22.09v.14a22 22 0 0 1-.83 2.2 5.7 5.7 0 0 1-.4.82 3.11 3.11 0 0 1-.52.74.26.26 0 0 1-.23 0c-.11 0-.21-.17-.34-.45a4.86 4.86 0 0 1-.36-1.3c-.06-.24-.19-.73-.24-.84a.78.78 0 0 0-.12-.19c-.12-.23-.15-.32-.1-.44m-.91-.05a.4.4 0 0 1 .22-.22.34.34 0 0 1 .16 0 .19.19 0 0 1 .19.1.28.28 0 0 1 0 .2.72.72 0 0 0 0 .17c0 .13 0 .2-.09.24a1.35 1.35 0 0 1-.28 0h-.05c-.22-.05-.27-.28-.15-.49m-.12 1.48a.31.31 0 0 1 .28-.18c.12 0 .17 0 .25.2a1.25 1.25 0 0 1 .12.59v.64c0 .07 0 .11-.07.14a.26.26 0 0 1-.23 0 .33.33 0 0 1-.18-.13 1.54 1.54 0 0 1-.1-.63 1.9 1.9 0 0 0-.05-.37.4.4 0 0 1-.05-.26zm-1-1.08v.15c0 .07 0 .17-.06.27a7.56 7.56 0 0 0 .06 1.56c.06.34 0 .44-.15.52a.39.39 0 0 1-.26 0h-.06a.65.65 0 0 1-.11-.25 3.92 3.92 0 0 1 0-.92 5.45 5.45 0 0 0 0-.92.93.93 0 0 0-.3-.41h-.29a.62.62 0 0 1-.23 0 .41.41 0 0 1-.19-.15.25.25 0 0 1 0-.11.34.34 0 0 1 .09-.32h.34l.68-.08h1.02c.17 0 .19.06.2.26a.4.4 0 0 1 0 .11.24.24 0 0 1 0 .08c0 .09-.09.11-.39.17s-.33-.03-.37.04zm5.33 3.53a3.31 3.31 0 0 1-1.21.78 3.53 3.53 0 0 1-1.3.22 5.23 5.23 0 0 1-1.77-.48c-.38-.19-.48-.25-.51-.36a.29.29 0 0 1 0-.25.25.25 0 0 1 .31-.12c.17.08.57.32.79.4a2.78 2.78 0 0 0 1.41.26 3.36 3.36 0 0 0 1.39-.32 6 6 0 0 0 .81-.5s.11-.11.18-.11a.14.14 0 0 1 .1 0c.1.17-.11.37-.22.48zm1.59-2.53h-.08l-.06.13c0 .08-.07.22-.1.32-.09.32-.17.45-.31.52a.32.32 0 0 1-.21 0 .92.92 0 0 1-.24 0 .78.78 0 0 1-.7-.47 1.18 1.18 0 0 1-.14-.55 1 1 0 0 1 .32-.77.83.83 0 0 1 .55-.18 1.27 1.27 0 0 1 .62.16c.35.17.51.35.51.57s-.07.21-.18.27z"/></svg>