<svg xmlns="http://www.w3.org/2000/svg" viewBox="0 0 24 24"><path fill="#44739e" d="M1 12V8.021h22v7.958H1Zm5.277.73v-2.148h.84c.794 0 .846-.002.953-.035.356-.11.57-.505.465-.86-.072-.242-.262-.424-.514-.491-.114-.031-4.663-.035-4.807-.005-.38.08-.633.437-.566.8.05.272.231.474.497.557.103.031.162.034.882.034h.771v4.297h1.479Zm4.129.636.004-1.513.619.708c.34.39.655.745.7.79.255.256.741.266.999.019.036-.035.353-.391.705-.791l.638-.728.005 1.514.004 1.514h1.477l.005-2.514c.004-1.998 0-2.533-.017-2.608-.032-.135-.124-.259-.28-.377-.17-.128-.274-.165-.454-.162-.165.002-.289.045-.407.139-.045.036-.293.308-.553.606-1.093 1.256-1.599 1.831-1.612 1.831-.007 0-.185-.198-.396-.44s-.685-.785-1.052-1.207-.697-.786-.731-.81c-.246-.169-.545-.17-.792-.001-.148.1-.245.202-.304.318-.04.079-.047.117-.048.232 0 .076.001 1.23.004 2.565l.004 2.428h1.478Zm9.019 1.419c.692-.081 1.267-.368 1.785-.891l.178-.18-.118-.098c-.151-.126-.585-.452-.798-.599l-.165-.114-.162.138c-.275.235-.444.331-.702.396-.205.052-.543.04-.766-.026-.199-.06-.437-.176-.562-.276-.291-.23-.481-.628-.506-1.055-.04-.676.373-1.244 1.052-1.448.169-.051.55-.065.735-.026.254.052.395.123.751.375.257.182.513.27.689.237.119-.023.211-.079.322-.196.135-.143.183-.259.183-.441 0-.14-.003-.156-.076-.301-.062-.126-.103-.181-.232-.309-.085-.086-.218-.196-.293-.246-.315-.208-.77-.392-1.135-.46-.261-.049-.862-.045-1.102.007-.789.171-1.393.585-1.847 1.264-.313.468-.412.779-.437 1.381-.024.542.025.806.223 1.214.32.661.754 1.111 1.339 1.387.532.251 1.055.336 1.644.267"/></svg>