<svg xmlns="http://www.w3.org/2000/svg" viewBox="0 0 24 24"><path fill="#44739e" d="M0 12V7.6594h24v8.6812H0Zm5.7563.7969V10.453h.9167c.8662 0 .9235-.002 1.0392-.0378.3889-.1201.6223-.5515.5076-.9385-.078-.2636-.286-.4624-.5604-.5357-.1249-.0334-5.087-.0377-5.2444-.005-.4147.0872-.6902.4765-.6174.872.0547.297.2519.5178.5426.6076.112.0346.1764.037.9618.037h.8417v4.6876h1.6125Zm4.5045.6934.005-1.6502.675.7724c.3713.4248.7147.8122.7632.861.2788.2801.8087.2902 1.0902.0205.0397-.038.3856-.4262.7688-.8628l.6966-.7938.005 1.6516.005 1.6516h1.6113l.005-2.7422c.004-2.1798.0003-2.7633-.0189-2.8453-.0343-.1471-.1352-.283-.3053-.4112-.1848-.1393-.2985-.1799-.4956-.1771-.1792.002-.3148.049-.4441.1524-.0483.0386-.3194.336-.6023.6609-1.1932 1.3699-1.7453 1.9969-1.7585 1.9969-.008 0-.2024-.216-.4327-.48s-.7468-.8563-1.1478-1.3164-.7597-.8576-.797-.8833c-.2683-.1853-.5941-.1861-.8645-.002-.1605.1093-.267.221-.3308.3475-.0436.0865-.0521.1274-.0528.2531-.0004.0825.001 1.3418.004 2.7985l.005 2.6484h1.6123zm9.8393 1.548c.7547-.0884 1.3819-.4015 1.9474-.9722l.1943-.196-.1287-.1072c-.165-.1374-.639-.4926-.8712-.653l-.18-.1243-.1762.1505c-.3002.2564-.4849.3604-.7658.4315-.2242.0567-.5928.0442-.8355-.0283-.2174-.065-.4774-.1924-.614-.301-.3165-.2515-.5241-.6847-.5516-1.1506-.0434-.7374.4071-1.3579 1.1475-1.5804.1843-.0554.6007-.0702.8025-.0284.2765.0572.4306.1341.8187.4092.2807.199.5596.2949.7514.2585.1303-.0247.2304-.0856.3514-.2135.148-.1565.2003-.2822.2003-.4814 0-.1525-.004-.1697-.0828-.3282-.0681-.1375-.1131-.1974-.2531-.337-.0937-.0934-.2378-.2142-.3203-.2686-.3437-.2264-.8397-.4274-1.2375-.5016-.2856-.0533-.9404-.049-1.203.008-.8604.1866-1.5198.6377-2.015 1.3785-.3414.5106-.4488.85-.4768 1.507-.0252.5907.0277.8784.2432 1.3237.3494.7218.8235 1.2128 1.4616 1.5138.5795.2734 1.1508.366 1.7932.2908z"/></svg>