<svg xmlns="http://www.w3.org/2000/svg" fill="#44739e" viewBox="0 0 24 24"><path d="M20.212 9.188a1.54 1.54 0 0 0-.39-.577 1.6 1.6 0 0 0-.594-.38l-2.466-.9a.731.731 0 0 1-.435-.931l.815-2.24a1.608 1.608 0 0 0-1.268-2.142 1.607 1.607 0 0 0-.924.132 1.573 1.573 0 0 0-.821.905l-.821 2.265a.739.739 0 0 1-.931.44L9.941 4.9a1.643 1.643 0 0 0-2.083.871 1.6 1.6 0 0 0 .933 2.139l1.675.588L8.76 9.536a1.653 1.653 0 0 0-.632 2.164 1.584 1.584 0 0 0 .864.754l.119.037a1.583 1.583 0 0 0 1.286-.17l2.05-1.246a.56.56 0 0 1 .244-.08.566.566 0 0 1 .252.031.59.59 0 0 1 .214.137.6.6 0 0 1 .132.214l.745 2.218a1.651 1.651 0 0 0 1.568 1.13 1.73 1.73 0 0 0 .398-.047 1.57 1.57 0 0 0 .58-.3 1.62 1.62 0 0 0 .41-.5 1.58 1.58 0 0 0 .183-.624 1.56 1.56 0 0 0-.079-.642l-.653-1.99 1.664.6a1.614 1.614 0 0 0 .911.085 1.6 1.6 0 0 0 .808-.425 1.61 1.61 0 0 0 .391-1.7zm-1.125.954a.536.536 0 0 1-.274.144.6.6 0 0 1-.338-.035l-1.8-.652a1 1 0 0 0-.544-.039.986.986 0 0 0-.491.265 1.015 1.015 0 0 0-.263.47 1 1 0 0 0 .023.543l.7 2.112a.56.56 0 0 1 .027.224.53.53 0 0 1-.062.211.58.58 0 0 1-.147.18.52.52 0 0 1-.175.1.613.613 0 0 1-.443-.065.59.59 0 0 1-.276-.336l-.747-2.222a1.63 1.63 0 0 0-.379-.614 1.61 1.61 0 0 0-1.154-.482 1.4 1.4 0 0 0-.16.008 1.634 1.634 0 0 0-.684.226l-2.056 1.25a.54.54 0 0 1-.215.077.63.63 0 0 1-.28-.035.532.532 0 0 1-.29-.243.608.608 0 0 1-.038-.437.618.618 0 0 1 .276-.354l1.814-1.1a.98.98 0 0 0 .374-.4.99.99 0 0 0-.1-1.048.98.98 0 0 0-.451-.326l-1.8-.631a.54.54 0 0 1-.188-.115.55.55 0 0 1-.128-.18.576.576 0 0 1-.005-.434.59.59 0 0 1 .311-.3.613.613 0 0 1 .452 0l2.447.865a1.785 1.785 0 0 0 2.264-1.068l.825-2.274a.52.52 0 0 1 .107-.181.5.5 0 0 1 .165-.123.58.58 0 0 1 .328-.048.574.574 0 0 1 .293.141.564.564 0 0 1 .147.605l-.816 2.245A1.779 1.779 0 0 0 16.4 8.317l2.466.9a.57.57 0 0 1 .208.133.65.65 0 0 1 .147.188.585.585 0 0 1 .021.32.565.565 0 0 1-.155.284m-.159 5.036a1.151 1.151 0 0 0-1.44.623 5.929 5.929 0 0 1-11.143-4.053 1.153 1.153 0 0 0-1.567-1.363 1.163 1.163 0 0 0-.6.6A8.23 8.23 0 0 0 9.1 21.5a8.237 8.237 0 0 0 10.553-4.938 1.14 1.14 0 0 0-.089-.838 1.155 1.155 0 0 0-.636-.546m-9.866 6.33v-.001z"/></svg>