<svg xmlns="http://www.w3.org/2000/svg" viewBox="0 0 24 24"><path fill="#44739e" d="M11.973 1c-.009.01-.322.321-.686.695a5.43 5.43 0 0 1-2.31 1.485 2.805 2.805 0 0 1-1.377.187 4.66 4.66 0 0 1-.916-.11c-.178-.052-.205-.036-.205.16A3.17 3.17 0 0 1 6 4.737l-.215.321.22.275c.11.161.257.285.303.285a2.75 2.75 0 0 0 .542-.356 10.02 10.02 0 0 1 2.794-1.388A5.85 5.85 0 0 1 12 3.625a5.85 5.85 0 0 1 2.348.251 9.98 9.98 0 0 1 2.794 1.387 2.75 2.75 0 0 0 .544.357.814.814 0 0 0 .302-.277l.22-.284-.259-.41a3.87 3.87 0 0 1-.381-.899c-.099-.4-.152-.479-.285-.453-.098.019-.489.053-.89.07a2.97 2.97 0 0 1-1.29-.15 5.874 5.874 0 0 1-2.42-1.53c-.382-.383-.704-.696-.712-.687Zm-.261 3.05a2.3 2.3 0 0 0-.291.021 4.31 4.31 0 0 0-2.935 1.725l-.251.358.251.355a6.4 6.4 0 0 0 1.65 1.441 4.86 4.86 0 0 1 1.644 1.806c.089.22.177.402.212.393a2.1 2.1 0 0 0 .294-.506A4.49 4.49 0 0 1 13.87 7.95a6.86 6.86 0 0 0 1.65-1.441l.242-.348-.267-.391a4.056 4.056 0 0 0-2.127-1.522 7.2 7.2 0 0 0-1.65-.198m-6.883.03-.435.481a10.93 10.93 0 0 0-1.656 2.544 4.042 4.042 0 0 0 .49 4.112 8.965 8.965 0 0 0 3.754 2.617 2.7 2.7 0 0 1 .74.347c0 .027-.116.081-.267.11a3.465 3.465 0 0 0-1.521 1.077 1.32 1.32 0 0 0-.204.88c.008 1.238.888 2.316 2.597 3.19a6.7 6.7 0 0 0 1.183.507c.294 0 1.017-.8 1.354-1.521a11.63 11.63 0 0 0 .836-5.42c-.071-2.082-.293-2.803-1.147-3.703a6.3 6.3 0 0 0-1.132-.887C6.5 6.61 5.093 5.343 4.89 4.336Zm14.331.087c-.033 0-.044.033-.046.1-.009.88-1.584 2.31-4.547 4.148a6.27 6.27 0 0 0-1.132.889c-.855.9-1.077 1.621-1.148 3.704a11.66 11.66 0 0 0 .836 5.419c.339.721 1.06 1.522 1.354 1.522a6.16 6.16 0 0 0 1.165-.498c1.718-.872 2.607-1.959 2.616-3.19a1.34 1.34 0 0 0-.204-.88 3.465 3.465 0 0 0-1.523-1.076c-.15-.036-.265-.09-.265-.11a2.7 2.7 0 0 1 .738-.348 8.973 8.973 0 0 0 3.756-2.617 4.042 4.042 0 0 0 .49-4.112 10.47 10.47 0 0 0-1.675-2.554c-.244-.267-.36-.38-.415-.385m-7.328.489h.251a2.955 2.955 0 0 1 1.361.267 4.68 4.68 0 0 1 1.486 1.237 6.82 6.82 0 0 1-1.601 1.2A2.147 2.147 0 0 1 12 7.621a2.156 2.156 0 0 1-1.468-.339 6.5 6.5 0 0 1-1.062-.719l-.44-.384.22-.265a3.98 3.98 0 0 1 1.476-1.064 2.255 2.255 0 0 1 1.112-.199m.173.174a1.243 1.243 0 0 0-.635.159 1.32 1.32 0 1 0 1.283.036 1.375 1.375 0 0 0-.648-.195m-.258.582a.392.392 0 0 1 .354.263c.197.418-.44.898-.703.542-.206-.257-.206-.427.009-.641a.502.502 0 0 1 .34-.165Zm-9.115 5.925a4.95 4.95 0 0 0-.072 1.183 8.393 8.393 0 0 0 2.181 5.929 16.8 16.8 0 0 0 6.47 4.262l.77.294.74-.294c3.818-1.512 6.798-3.977 7.99-6.621a7.04 7.04 0 0 0 .686-3.19 9.7 9.7 0 0 0-.009-1.458c-.045-.117-.124-.072-.399.239-.33.374-.34.419-.392 1.193a8.761 8.761 0 0 1-6.72 7.849 11.02 11.02 0 0 1-3.969-.043 8.706 8.706 0 0 1-6.524-7.81c-.054-.757-.071-.82-.365-1.158a2.24 2.24 0 0 0-.39-.382"/></svg>