<svg xmlns="http://www.w3.org/2000/svg" fill="#44739e" viewBox="0 0 24 24"><path d="m19.8691 1.9902-.6796.0391L4.4297 3.0801l-.4492.039.1386 4.5606.291 10.4805.0118.5234 15.0683 3.2266.0196-.6993zm.172.0489-.3907 19.7168.17-.166.4198-19.4805zm-1.5274 1.5664-.0469 3.2715-12.9727.0878-.0273-2.709Zm-13.4102.668.0371 2.9745 13.3223-.0214-.006.3437-13.6093-.0957-.0234-3.1875zM4.541 8.5468l.3086.0097.2402 9.4942 13.7774 2.795-.004.2343-14.0878-2.8457Zm.6524.0195 13.877.414-.1974 11.5782-13.4101-2.664Z"/></svg>