<svg xmlns="http://www.w3.org/2000/svg" fill="#44739e" viewBox="0 0 24 24"><path d="m18.8336 20.5692-13.4723-2.64-.2547-9.3814-.284-.0039L5.09 18.05l13.7397 2.7427ZM20.06 2.0466 19.6856 21.72l.193-.255.381-19.3277ZM3.3725 6.5063 3.15 6.93h13.83l.21-.55ZM17.6 6.93l1.28-3.45-.6.02-1.3 3.43Zm-14.45 0 1.61-2.78-.37.02-1.65 2.76Zm15.88-3.85-14.45.78-.19.31 14.49-.69ZM3.21 7.44l14.73.18 1.01-2.81.1992-.6055.0156-.8362L17.75 7.23 2.96 7.14Zm.5658-.9356.3931-.0035L5.19 4.71l12.82-.4995.1495-.37L4.96 4.42Zm.955-.231.2958.004-.0105-.84-.2931.5265Zm.0573 1.4127L5.09 7.69v.1322l-.3019-.004ZM4.43 3.08v.59l14.7478-.8278.0122-.8122Zm-.4 1.24.4-.65v-.59l-.45.04Zm15.16-2.29-.3656 19.0422.6856.1378.36-19.22ZM4.5363 8.54l14.5537.44v-.7L4.53 7.97Zm.298 9.706L4.52 7.69h-.4l.29 10.47ZM19.49 21.91 4.4344 18.68l-.0244-.52 15.1 3.05z"/></svg>