<svg xmlns="http://www.w3.org/2000/svg" viewBox="0 0 24 24"><path fill="#44739e" d="m13.136 4.821-2.818.504 2.668.067ZM11.97 4.52h1.259L13.33 4h-1.226ZM11.677 4h-1.225l-.134.52h1.258Zm2.005-1.661h-2.668l-.478 1.443h2.827Zm-2.463 19.219h1.669a1.83 1.83 0 0 0 1.828-1.828V2.829A1.831 1.831 0 0 0 12.888 1a3.502 3.502 0 0 0-3.499 3.498V19.73a1.831 1.831 0 0 0 1.83 1.828m-.521-1.004-.05-.019a.43.43 0 0 1-.172-.11.41.41 0 0 1-.12-.293v-.684h.342Zm0-1.236h-.342v-1.199h.342Zm0-1.32h-.342v-1.514h.342Zm0-1.635h-.342v-1.364h.342Zm0-1.484h-.342V13.43h.342Zm0-1.57h-.342v-1.581h.342Zm0-1.702h-.342v-1.489h.342Zm0-1.61h-.342v-1.49h.342Zm0-1.611h-.342V7.228a.42.42 0 0 1 .11-.297.264.264 0 0 1 .188-.079h.04Zm.569 12.298h-.038a1.6 1.6 0 0 1-.343-.072l-.028-.008v-1.16h.409Zm0-1.36h-.409v-1.199h.409Zm0-1.32h-.409v-1.52h.409Zm0-1.636h-.409v-1.369h.409Zm0-1.484h-.409V13.43h.409Zm0-1.57h-.409v-1.586h.409Zm0-1.701h-.409v-1.495h.409Zm0-1.611h-.409V8.507h.409Zm0-1.61h-.409v-1.5l.049.015a1.95 1.95 0 0 0 .33.076h.032Zm.571 12.283h-.034a.3.3 0 0 0-.046 0c-.092.008-.195 0-.292.007h-.037v-1.238h.409Zm0-1.346h-.409V18.13h.409Zm0-1.32h-.409v-1.525h.409Zm0-1.635h-.409v-1.375h.409Zm0-1.484h-.409v-1.46h.409Zm0-1.57h-.409v-1.592h.409Zm0-1.702h-.409v-1.5h.409Zm0-1.61h-.409V8.507h.409Zm0-1.611h-.409V6.991h.409Zm.571 12.183h-.028c-.12.025-.237.047-.338.062l-.043.009v-1.21h.409Zm0-1.258H12v-1.199h.409Zm0-1.32H12v-1.518h.409Zm0-1.636H12v-1.367h.409Zm0-1.484H12V13.43h.409Zm0-1.57H12v-1.584h.409Zm0-1.701H12v-1.493h.409Zm0-1.611H12V8.507h.409Zm0-1.61H12V6.975h.033a2.2 2.2 0 0 0 .33-.063l.045-.011Zm.57 11.747c0 .178-.121.309-.36.391l-.048.017v-1.092h.408Zm0-.81h-.408v-1.199h.408Zm0-1.32h-.408v-1.523h.408Zm0-1.636h-.408v-1.372h.408Zm0-1.484h-.408V13.43h.408Zm0-1.569h-.408v-1.59h.408Zm0-1.702h-.408v-1.498h.408Zm0-1.61h-.408V8.507h.408Zm0-1.611h-.408V6.862l.029-.007a.252.252 0 0 1 .258.081.407.407 0 0 1 .121.292Zm-2.721-5.576a2.384 2.384 0 0 1 3.106-1.196 2.386 2.386 0 0 1 .518 3.289 2.91 2.91 0 0 1-1.442 1.277 2.13 2.13 0 0 1-.778.151 1.76 1.76 0 0 1-.886-.233 2.384 2.384 0 0 1-.518-3.288M12 22.505c2.328 0 4.218-.273 4.446-.62.016-.024.045-.046.045-.069 0-.25-.88-.467-2.178-.588a1.89 1.89 0 0 1-1.403.629h-1.669a1.892 1.892 0 0 1-1.413-.64c-1.378.118-2.319.34-2.319.599 0 .023.029.045.045.069.228.345 2.118.62 4.446.62m4.28-.393a11.53 11.53 0 0 1-4.28.558 11.53 11.53 0 0 1-4.28-.56c-.124.064-.211.13-.211.199 0 .383 2.01.691 4.491.691s4.491-.308 4.491-.689c0-.069-.091-.135-.211-.199"/></svg>