<svg xmlns="http://www.w3.org/2000/svg" viewBox="0 0 24 24"><path fill="#44739e" d="M12 4.507C5.778 4.507 1 7.703 1 12c0 4.125 4.641 7.493 11 7.493S23 16.125 23 12c0-4.263-4.778-7.493-11-7.493m4.813 1.684c1.169.446 1.924 1.031 2.062 1.546.241.929-.859 2.063-4.297 2.441-.24-2.337-.928-4.331-2.096-4.744a14.42 14.42 0 0 1 4.331.757m-3.197 4.091c-.482 0-1.032.034-1.616.034-.55 0-1.066 0-1.616-.034.275-1.96.963-3.095 1.616-3.095s1.375 1.135 1.616 3.095M5.125 7.737c.137-.48.859-1.065 2.063-1.512a14.47 14.47 0 0 1 4.33-.791c-1.168.413-1.856 2.407-2.096 4.744C5.984 9.8 4.918 8.632 5.125 7.737m-2.509 3.988a5.137 5.137 0 0 1 1.168-3.266c.103 1.684 2.373 2.923 5.569 3.369v.138c0 4.022 1.031 6.187 2.165 6.6-4.881-.173-8.902-3.198-8.902-6.841m7.666.241v-.034c.584.034 1.168.068 1.718.068.584 0 1.168 0 1.718-.034 0 2.991-.893 4.227-1.718 4.227s-1.718-1.236-1.718-4.227m2.165 6.634c1.169-.447 2.2-2.75 2.2-6.634v-.138c3.231-.446 5.5-1.685 5.569-3.369a5.137 5.137 0 0 1 1.168 3.266c0 3.643-4.021 6.703-8.937 6.875"/></svg>