<svg xmlns="http://www.w3.org/2000/svg" fill="#44739e" viewBox="0 0 24 24"><path d="M18.545 14.442a5.68 5.68 0 0 1-.181 1.16 4.662 4.662 0 0 1-3.557 3.672l-.065.018-.1-.548v-.008a2.7 2.7 0 0 0 .358-.167c.016-.01.032-.02.049-.029l.056-.034.049-.031c2.042-1.331 2.767-5.46.983-8.02a4.74 4.74 0 0 0-.727-.787l.054.013-.023-.021a2.13 2.13 0 0 1 .68.155 4.884 4.884 0 0 1 1.662 1.61 5.06 5.06 0 0 1 .762 3.017M6.004 11.415a.606 1.379 0 0 1-.606 1.379.606 1.379 0 0 1-.606-1.379.606 1.379 0 0 1 .606-1.379.606 1.379 0 0 1 .606 1.379M7.5 20.469 7.429 4.044V4a1.181 1.181 0 0 1 1.148-1.22l.5-.014 8.229-.2c.258-.006.517 0 .775.008l-2.875-.4a7.15 7.15 0 0 0-1.232-.074l-8.724.3A1.3 1.3 0 0 0 4 3.694v15.785a1.342 1.342 0 0 0 .974 1.291l2.68.767.626.152a1.277 1.277 0 0 1-.78-1.22m-2.1-7.485c-.456 0-.813-.689-.813-1.569s.357-1.57.813-1.57.814.69.814 1.57-.359 1.569-.814 1.569M18.8 2.969l-9.112.2a1.229 1.229 0 0 0-1.2 1.228l-.031 16.272A1.231 1.231 0 0 0 9.809 21.9l9.139-.912a1.23 1.23 0 0 0 1.108-1.224V4.2A1.23 1.23 0 0 0 18.8 2.969M9.672 5.03c-.142 0-.258-.161-.258-.359s.116-.36.258-.36.258.161.258.36-.115.359-.258.359m9.247 9.578a6.65 6.65 0 0 1-1.3 3.373 4.3 4.3 0 0 1-3.244 1.6 5.164 5.164 0 0 1-2.566-.652 2.4 2.4 0 0 1-.322-.135 2.78 2.78 0 0 1-1.087-1.052 4.7 4.7 0 0 1-.6-1.713 6.96 6.96 0 0 1 .577-3.944c.557-1.182 2.265-2.712 3.629-2.64a.3.3 0 0 0-.109.175l-.007.038a3.17 3.17 0 0 0-1.755.719 5.23 5.23 0 0 0-1.561 1.8 6.6 6.6 0 0 0-.432 1.222h.016a.32.32 0 0 1 .071-.008.61.61 0 0 1 .532.665.732.732 0 0 1-.671.674.234.234 0 0 1-.12-.03l-.018-.011A6.37 6.37 0 0 0 10.016 16a3.386 3.386 0 0 0 1.573 2.6l.082.039a2.46 2.46 0 0 0 1.026.221l.434-.034a2.98 2.98 0 0 0 .584-.154 1.45 1.45 0 0 1-.051.3c-.043.174-.084.338.027.46a.41.41 0 0 0 .308.115h.021a.508.508 0 0 0 .376-.165c.046-.059.083-.155.046-.46a2.82 2.82 0 0 0-.1-.56 3.674 3.674 0 0 0 1.14-1.162 6.65 6.65 0 0 0 .6-4.811 6.3 6.3 0 0 0-.338-1.063 2.977 2.977 0 0 0-1.211-1.521.48.48 0 0 0 .041-.22l-.005-.02c.044.015.088.032.132.05l-.129-.052a.224.224 0 0 0-.209-.171l-.16-.008a.3.3 0 0 0-.066.005l-.013-.005.925-.022c2.721.097 4.019 2.638 3.87 5.246m-5.105 4.356a.97.97 0 0 0 .022-.488.33.33 0 0 0-.06-.146.553.553 0 0 0-.233-.232.44.44 0 0 0-.089-.033.426.426 0 0 0-.262 0 1.48 1.48 0 0 0-.359.144c-.235.093-.3.152-.35.227-.024.021-.044.04-.062.057-.075.069-.084.078-.153.058a.37.37 0 0 0-.112 0c-.033-.152.608-.549 1.255-.565h.081a.87.87 0 0 1 .58.2c.157.156.182.369.229.755a1.54 1.54 0 0 1 .014.216.274.274 0 0 1-.025.129l-.005.008a.24.24 0 0 1-.067.056.43.43 0 0 1-.2.054.285.285 0 0 1-.217-.067c-.056-.062-.034-.165.006-.328zm.233-4.651a.681.681 0 0 1 0-1.329.681.681 0 0 1 0 1.329m.353-4.567c-.013.035-.029.071-.045.107a1.24 1.24 0 0 0-.075.193l-.006.024a.66.66 0 0 1-.111.263.78.78 0 0 1-.425.189.92.92 0 0 1-.327-.04.6.6 0 0 1-.077-.03c-.2-.094-.392-.251-.359-.35a.2.2 0 0 1 .174-.1.16.16 0 0 1 .038 0l.015.005c.026.01.037.026.062.061l.012.018a.291.291 0 0 0 .174.17.372.372 0 0 0 .334.085.22.22 0 0 0 .057-.036l.011-.012a.437.437 0 0 0 .1-.205l.014-.061a1.6 1.6 0 0 0 .048-.255v-.016l.011-.069.008-.033V9.64a.152.152 0 0 1 .157-.121l.159.007a.08.08 0 0 1 .077.067.34.34 0 0 1-.026.153"/></svg>