<svg xmlns="http://www.w3.org/2000/svg" viewBox="0 0 24 24"><path fill="#44739e" d="M19.238 14.71a6.3 6.3 0 0 1-.201 1.289 5.178 5.178 0 0 1-3.951 4.078l-.072.02-.111-.609v-.009a3 3 0 0 0 .398-.185c.018-.011.035-.022.054-.032l.062-.038.055-.035c2.268-1.478 3.073-6.064 1.092-8.907a5.26 5.26 0 0 0-.808-.874l.06.015-.025-.024a2.37 2.37 0 0 1 .755.172 5.424 5.424 0 0 1 1.846 1.788 5.62 5.62 0 0 1 .846 3.351M5.31 11.348a1.532.673 90 0 1-.674 1.532 1.532.673 90 0 1-.673-1.532 1.532.673 90 0 1 .673-1.531 1.532.673 90 0 1 .674 1.531m1.661 10.056L6.892 3.162v-.049a1.312 1.312 0 0 1 1.275-1.355l.556-.016 9.139-.222c.286-.006.574 0 .861.009l-3.193-.444a7.94 7.94 0 0 0-1.369-.082l-9.689.333a1.444 1.444 0 0 0-1.388 1.437v17.532a1.49 1.49 0 0 0 1.082 1.433l2.976.852.695.169a1.418 1.418 0 0 1-.866-1.355m-2.332-8.313c-.507 0-.903-.765-.903-1.743s.396-1.743.903-1.743.904.766.904 1.743-.399 1.743-.904 1.743M19.521 1.968l-10.12.222a1.365 1.365 0 0 0-1.333 1.364l-.034 18.072a1.367 1.367 0 0 0 1.501 1.367l10.151-1.013a1.366 1.366 0 0 0 1.23-1.359V3.335a1.366 1.366 0 0 0-1.395-1.367M9.383 4.257c-.157 0-.286-.179-.286-.399s.129-.4.286-.4.287.179.287.4-.128.399-.287.399m10.27 10.638a7.386 7.386 0 0 1-1.443 3.746 4.776 4.776 0 0 1-3.603 1.777 5.735 5.735 0 0 1-2.85-.724 2.7 2.7 0 0 1-.358-.15 3.09 3.09 0 0 1-1.207-1.169 5.22 5.22 0 0 1-.666-1.902 7.73 7.73 0 0 1 .64-4.381c.619-1.312 2.516-3.012 4.031-2.932a.333.333 0 0 0-.121.195l-.008.042a3.52 3.52 0 0 0-1.949.799 5.81 5.81 0 0 0-1.734 1.999 7.33 7.33 0 0 0-.48 1.357h.018a.36.36 0 0 1 .079-.009.677.677 0 0 1 .591.739.813.813 0 0 1-.745.748.26.26 0 0 1-.134-.033l-.02-.012a7.08 7.08 0 0 0 .071 1.456 3.761 3.761 0 0 0 1.747 2.887l.092.044a2.73 2.73 0 0 0 1.139.245l.482-.038a3.3 3.3 0 0 0 .649-.171 1.6 1.6 0 0 1-.057.333c-.048.194-.093.376.03.511a.455.455 0 0 0 .342.128h.023a.564.564 0 0 0 .418-.183c.051-.066.092-.172.051-.511a3.13 3.13 0 0 0-.111-.622 4.08 4.08 0 0 0 1.266-1.291 7.386 7.386 0 0 0 .667-5.343 7 7 0 0 0-.376-1.18 3.306 3.306 0 0 0-1.345-1.69.53.53 0 0 0 .046-.244l-.006-.022c.049.016.098.035.147.055l-.144-.058a.249.249 0 0 0-.232-.189l-.177-.009a.33.33 0 0 0-.074.005l-.014-.005 1.027-.025c3.022.108 4.464 2.93 4.298 5.827m-5.669 4.838a1.08 1.08 0 0 0 .024-.542.37.37 0 0 0-.067-.163.614.614 0 0 0-.258-.257.5.5 0 0 0-.099-.037.473.473 0 0 0-.291 0 1.64 1.64 0 0 0-.399.16c-.261.103-.333.169-.389.252-.026.023-.049.045-.069.063-.083.077-.093.087-.169.065a.41.41 0 0 0-.125 0c-.036-.169.675-.61 1.394-.628h.09a.966.966 0 0 1 .644.222c.175.174.202.41.254.839a1.7 1.7 0 0 1 .016.24.304.304 0 0 1-.028.143l-.005.009a.27.27 0 0 1-.075.062.48.48 0 0 1-.222.06.317.317 0 0 1-.241-.074c-.062-.069-.038-.183.007-.364Zm.258-5.166a.756.756 0 0 1 0-1.476.756.756 0 0 1 0 1.476m.392-5.072a1.7 1.7 0 0 1-.05.119 1.4 1.4 0 0 0-.083.214l-.007.027a.73.73 0 0 1-.123.292.866.866 0 0 1-.472.21 1.02 1.02 0 0 1-.363-.045.7.7 0 0 1-.086-.033c-.222-.105-.435-.279-.398-.389a.222.222 0 0 1 .193-.111.18.18 0 0 1 .042 0l.017.006c.029.011.041.028.069.067l.013.02a.323.323 0 0 0 .193.189.413.413 0 0 0 .371.095.24.24 0 0 0 .064-.04l.012-.014a.485.485 0 0 0 .111-.227l.015-.068a1.8 1.8 0 0 0 .054-.283v-.018l.012-.077.009-.036v-.016a.169.169 0 0 1 .174-.134l.177.007a.089.089 0 0 1 .085.075.38.38 0 0 1-.029.17"/></svg>