<svg xmlns="http://www.w3.org/2000/svg" viewBox="0 0 24 24"><path fill="#44739e" d="M13.902 9.031 12.824 10.4a2.67 2.67 0 0 1 .673.734 2.66 2.66 0 0 1 .298.949l1.726-.249a4.213 4.213 0 0 0-1.619-2.803m2.083-2.758-1.078 1.371a5.782 5.782 0 0 1 2.32 4.019l1.725-.249a7.708 7.708 0 0 0-2.969-5.141Zm5.54.228A10.999 10.999 0 1 0 17.5 21.524a10.999 10.999 0 0 0 4.025-15.023m-4.672 13.903a9.703 9.703 0 1 1 3.551-13.255 9.703 9.703 0 0 1-3.551 13.255m-5.599-8.836a.865.865 0 0 0-.864.864.863.863 0 0 0 1.726 0 .865.865 0 0 0-.862-.864m-3.97-.831a3.454 3.454 0 1 0 3.453 5.981L9.01 13.727Z"/></svg>