<svg xmlns="http://www.w3.org/2000/svg" viewBox="0 0 24 24"><path fill="#44739e" d="M10.756 1c-.195 0-.345.123-.428.238-.057.079-.092.142-.13.207H6.793c-.728 0-1.389.113-1.904.317-.258.102-.484.228-.664.398-.184.172-.332.413-.332.698v1.028c0 .285.148.526.332.699.181.17.407.294.664.396.515.204 1.176.317 1.904.317H9.79v2.084H5.074l-.006.006c-.824-.019-1.563.633-1.641 1.478 0 .002-.002.003-.002.004v.017c-.434 3.55-1.079 7.128-1.411 10.718l-.001.011v.004a.2.2 0 0 0-.002.028v1.526c.02.965.672 1.683 1.45 1.82h.002l.023.004a.2.2 0 0 0 .032.002h17.049c.336-.008.681-.124.958-.362.282-.243.475-.624.464-1.07v-1.94a.2.2 0 0 0-.002-.029L20.45 9.162a.2.2 0 0 0-.004-.028c-.158-.813-.821-1.642-1.805-1.748l-.013-.002a.2.2 0 0 0-.026-.002h-4.451V5.298h3.004c.729 0 1.389-.112 1.905-.317.257-.101.484-.225.666-.396.184-.173.332-.414.332-.699V2.858c0-.285-.149-.526-.332-.698-.181-.17-.409-.296-.666-.398-.516-.204-1.176-.317-1.905-.317h-3.41c-.038-.065-.071-.128-.128-.206-.085-.115-.236-.239-.432-.239Zm0 .871h2.429c.065 0 .093.028.093.093V13.67c0 .065-.028.092-.093.092h-2.429c-.065 0-.092-.027-.092-.092V7.573h-.002V1.964c0-.064.029-.093.094-.093M5.057 8.255H9.79v.551H6.392a1.358 1.358 0 0 0-.968.4c-.239.239-.39.545-.477.864l-.002.009-.004.017a.2.2 0 0 0-.001.019l-.938 7.887-.002.006a.2.2 0 0 0-.001.028c-.009.423.118.803.367 1.077.249.273.595.421.956.46h.008a.2.2 0 0 0 .026.002l13.423-.051c.382.013.741-.163.954-.471.206-.298.279-.676.264-1.096v-.015a.2.2 0 0 0-.002-.029l-1.192-7.96a.2.2 0 0 0-.005-.027l-.006-.019-.002-.003c-.212-.668-.901-1.12-1.637-1.098h-3.002v-.551h4.396c.512.055.954.589 1.043 1.045l1.527 10.377v1.916c.006.201-.05.286-.16.381-.102.088-.272.149-.413.153H3.602c-.348-.067-.704-.383-.718-.966v-1.477c.327-3.543.969-7.116 1.407-10.703l-.004.01a.2.2 0 0 0 .006-.023v-.005a.2.2 0 0 0 .002-.023v.017l.001-.009c.016-.174.119-.356.268-.489.15-.133.34-.21.493-.204m1.335 1.422h3.389l-.943 5.507H6.909c-.19.001-.263.248-.104.351l4.777 3.069a.191.191 0 0 0 .198.005l5.335-3.068c.17-.097.101-.356-.094-.357h-2.005l-.858-5.507h3.022c.154-.004.339.06.488.161.148.099.254.235.285.326l1.171 7.83c.009.29-.055.484-.107.561-.068.097-.07.102-.21.098h-.011l-13.383.049c-.194-.022-.317-.085-.4-.176-.085-.093-.145-.22-.141-.464v-.005l.922-7.759v-.002c.056-.203.151-.371.249-.47.105-.105.19-.149.349-.149m5.315 7.969q-16.94-25.851 0 0m-6.869 1.97c-.232.001-.437.214-.438.444.001.229.206.443.438.443.231 0 .437-.214.437-.443 0-.23-.206-.443-.437-.444m.935 0c-.229.001-.437.211-.435.44.001.227.208.433.435.434h13.815c.228 0 .437-.208.438-.436 0-.229-.209-.438-.438-.438Z"/></svg>