<svg xmlns="http://www.w3.org/2000/svg" fill="#44739e" viewBox="0 0 24 24"><path d="m21.99 15.808-.064-6.518a1.015 1.015 0 0 0-.461-.83 1.227 1.227 0 0 0-1.088-.146l-5.983 1.562a1.7 1.7 0 0 1 .042-.431c.029-.1.1-.276.172-.466s.14-.362.185-.495a4.8 4.8 0 0 0 .868.721.487.487 0 0 0 .472-.068 5.87 5.87 0 0 0 .707-.979c.149-.308.39-.771.39-.771a1.45 1.45 0 0 0 .092-.192.343.343 0 0 0 .152-.137 1.3 1.3 0 0 0 .065-.149l.048-.137a1.14 1.14 0 0 0 .035-.274.325.325 0 0 0-.088-.292.24.24 0 0 0-.1-.114.35.35 0 0 0-.052-.025.26.26 0 0 0-.055-.078.32.32 0 0 0-.16-.08A.27.27 0 0 0 17 5.8a.277.277 0 0 0-.268.088l-.017-.016a.283.283 0 0 0-.308-.052l-.123.065v.1a.246.246 0 0 0 .032.108.58.58 0 0 1 .062.185 1.05 1.05 0 0 0 .047.38 1.4 1.4 0 0 0 .068.151 1.2 1.2 0 0 1 .053.114v.011a.656.656 0 0 1-.077.29 1.56 1.56 0 0 1-.658.663 2.43 2.43 0 0 1-.663-.816 3.5 3.5 0 0 0-.325-.625.36.36 0 0 0-.086-.143.127.127 0 0 1 .081-.1.68.68 0 0 1 .235-.03h.093a.526.526 0 0 0 .337-.05.3.3 0 0 0 .121-.238.37.37 0 0 0 .081-.181.276.276 0 0 0 .025-.163.27.27 0 0 0 .084-.035l.044-.04c.083-.113.018-.237-.038-.347-.018-.036-.039-.075-.059-.123a.94.94 0 0 1-.049-.274c0-.043-.008-.086-.012-.124a1.05 1.05 0 0 0-.073-.285.367.367 0 0 0 .022-.2c-.04-.236-.286-.456-.747-.673-.267-.133-.559-.247-.709-.088a.23.23 0 0 0-.062.134.72.72 0 0 0-.454.085.271.271 0 0 0-.105.2.26.26 0 0 0 .006.056.677.677 0 0 0-.236.314 1.073 1.073 0 0 0 .08.814.6.6 0 0 1 .025.065.47.47 0 0 1 .012.1l-.188.173h.19v.348l.163-.25v.064a.84.84 0 0 1-.011.225.64.64 0 0 0-.234.083.76.76 0 0 0-.188.162l-.51.237c-.248.084-1.492.506-1.606.559a.81.81 0 0 0-.315.239c-.011.019-.09.2-.177.4-.076.173-.159.36-.2.459a9.8 9.8 0 0 0-.294 1.033s-.01.112-.022.175c-.036.023-.1.06-.15.084a1.7 1.7 0 0 0-.179.1c-.024.013-.06.03-.1.049-.187.089-.3.149-.362.258a.26.26 0 0 0-.008.149.26.26 0 0 0 0 .135.25.25 0 0 0 .038.084.25.25 0 0 0 .03.139c.007.011.013.021.02.03v.018l.005.041a.242.242 0 0 0 .245.184.62.62 0 0 0 .155-.035c.071-.02.16-.045.217-.055a.4.4 0 0 0 .059-.018.27.27 0 0 0 .067.09.23.23 0 0 0 .181.051c.209-.032.216-.237.221-.338.008-.032.03-.091.049-.143l.072-.022h-.063l.021-.055A1.52 1.52 0 0 0 10.8 9.4c0-.015.015-.038.027-.066a1.4 1.4 0 0 0 .081-.218 10 10 0 0 1 .493-1c.079-.122.162-.256.231-.365.047-.075.086-.139.105-.17.113-.025.414-.081.693-.131-.011.039-.023.078-.036.113a1.81 1.81 0 0 0-.083.705 2.47 2.47 0 0 1-.029.732 2.3 2.3 0 0 1-.123.235 1.24 1.24 0 0 0-.238.6.44.44 0 0 0 .059.173 1.553 1.553 0 0 0-.414.737 4.3 4.3 0 0 0-.029.582 1.24 1.24 0 0 1-.019.3c-.02.057-.169.315-.289.523a3.14 3.14 0 0 0-.394.773.164.164 0 0 0 .05.119 8.7 8.7 0 0 1-.431.888c-.136.126-.777.682-.843.729l-.032.03c-.056.069-.821 1.221-1.017 1.516l-.006-.005-.329.483a.37.37 0 0 0-.169.049c-.076.052-.607.473-.616.48a.208.208 0 0 0-.067.151.193.193 0 0 0 .061.142c.046.053.287.394.418.6-1.977.311-3.439.538-3.761.581l-.209-.035L2 20.721h2.953l.178-.226a.848.848 0 0 0 .681-.464l13.522-1.781a1.17 1.17 0 0 0 .2.171l-.384 1.449-.306.851H22v-4.916zm-3.869-5.118 2.168-.555.066 5.989c-3.055.488-7.707 1.226-11.265 1.786 0-.118 0-.291.01-.357a.31.31 0 0 0 .026-.207l.335-.5c1.388-1.373 1.708-1.7 1.788-1.788.012-.007.029-.014.048-.023a1.15 1.15 0 0 0 .287-.181.91.91 0 0 0 .218-.31l.017-.037c.035-.055.362-.461.669-.836h.057l.044-.037a1.93 1.93 0 0 0 .366-.431 8.1 8.1 0 0 0 .413-.795l1.941.275c-.046.039-.094.084-.143.133a3.03 3.03 0 0 0-.405.605 2.4 2.4 0 0 1-.159.262c-.112.119-.371.374-.371.375l-.059.059-.448.365a.18.18 0 0 0-.121 0c-.031.009-.087.026-.572.438l-.041.02-.029.06a.31.31 0 0 0-.005.23 1.95 1.95 0 0 0 .42.523c.073.076.136.143.166.178s.05.072.075.11a1.72 1.72 0 0 0 .325.385 9.2 9.2 0 0 0 .786.524.24.24 0 0 0 .089.016.31.31 0 0 0 .262-.139.244.244 0 0 0-.053-.329 1.126 1.126 0 0 1-.288-.428 2.64 2.64 0 0 1 .011-.478 1.16 1.16 0 0 0 0-.33c-.006-.031-.015-.074-.021-.074l.018-.035a2.4 2.4 0 0 1 .246-.273l.082-.081.036-.027c.072-.058 1.785-1.4 1.993-1.6l.062-.057c.214-.193.478-.434.456-.732 0-.459-.768-.983-.989-1.091l-.119-.055a6.24 6.24 0 0 0-1.04-.4l-.385-.118c-.216-.066-.45-.137-.588-.191Z"/></svg>