<svg xmlns="http://www.w3.org/2000/svg" viewBox="0 0 24 24"><path fill="#44739e" d="M12.886 9.806a11.8 11.8 0 0 0 2.441-.355c.819-.229 1.287-.519 1.404-.819a.41.41 0 0 0 .03-.152V2.351a.4.4 0 0 0-.03-.146c-.11-.289-.55-.569-1.32-.796a14.43 14.43 0 0 0-6.822 0c-.77.227-1.21.506-1.32.796a.42.42 0 0 0-.031.151v6.121a.42.42 0 0 0 .031.154c.11.3.589.59 1.407.82a11.66 11.66 0 0 0 2.443.355L6.314 23h1.192l3.936-10.812V23h1.12V12.195L16.494 23h1.192ZM9.564 2.561a14.52 14.52 0 0 1 4.87 0c1.32.269 1.278.701-.059.961a14.75 14.75 0 0 1-4.748 0c-1.338-.261-1.38-.692-.063-.961"/></svg>