<svg xmlns="http://www.w3.org/2000/svg" viewBox="0 0 24 24"><path fill="#44739e" d="M7.41 10.7a1.354 1.354 0 1 0 1.353 1.353A1.354 1.354 0 0 0 7.41 10.7m-.132.386a.132.132 0 0 1 .264 0v.967a.132.132 0 0 1-.264.02v-.99Zm.83 1.684a.983.983 0 0 1-1.389.009l-.009-.009a1.011 1.011 0 0 1 0-1.413.99.99 0 0 1 .268-.193.11.11 0 0 1 .15.048v.012a.135.135 0 0 1-.057.175.7.7 0 0 0-.188.137.751.751 0 0 0 0 1.055.731.731 0 0 0 1.036.006l.007-.006a.753.753 0 0 0 0-1.055.64.64 0 0 0-.186-.137.133.133 0 0 1-.06-.175.129.129 0 0 1 .172-.06.91.91 0 0 1 .25.193 1.011 1.011 0 0 1 .006 1.413m8.424-2.123A1.353 1.353 0 1 0 17.885 12a1.352 1.352 0 0 0-1.353-1.353m-.132.385a.132.132 0 1 1 .264 0V12a.132.132 0 1 1-.263.02.06.06 0 0 1-.001-.02Zm.832 1.684a.983.983 0 0 1-1.391.009l-.009-.009a1.01 1.01 0 0 1 0-1.412.99.99 0 0 1 .269-.194.11.11 0 0 1 .151.048v.013a.136.136 0 0 1-.058.174.7.7 0 0 0-.189.138.753.753 0 0 0 0 1.055.733.733 0 0 0 1.036.006l.007-.006a.753.753 0 0 0 0-1.055.63.63 0 0 0-.185-.138.132.132 0 0 1-.06-.174.13.13 0 0 1 .171-.061.87.87 0 0 1 .251.193 1.01 1.01 0 0 1 .007 1.413M12 10.647A1.353 1.353 0 1 0 13.353 12 1.352 1.352 0 0 0 12 10.647m-.132.385a.132.132 0 1 1 .264 0V12a.132.132 0 1 1-.263.02.06.06 0 0 1 0-.02v-.968Zm.832 1.684a.983.983 0 0 1-1.391.009l-.009-.009a1.01 1.01 0 0 1 0-1.412.99.99 0 0 1 .269-.194.11.11 0 0 1 .151.048v.013a.135.135 0 0 1-.057.174.7.7 0 0 0-.189.138.753.753 0 0 0 0 1.055.733.733 0 0 0 1.036.006l.007-.006a.753.753 0 0 0 0-1.055.63.63 0 0 0-.185-.138.132.132 0 0 1-.06-.174.13.13 0 0 1 .171-.061.87.87 0 0 1 .251.193 1.01 1.01 0 0 1 .006 1.413M21.985 1H2.015A1.015 1.015 0 0 0 1 2.015v19.97A1.015 1.015 0 0 0 2.015 23h19.97A1.015 1.015 0 0 0 23 21.985V2.015A1.015 1.015 0 0 0 21.985 1M7.409 13.703a1.65 1.65 0 1 1 1.65-1.65 1.65 1.65 0 0 1-1.65 1.65M12 13.65A1.65 1.65 0 1 1 13.65 12 1.65 1.65 0 0 1 12 13.65m4.532 0a1.65 1.65 0 1 1 1.65-1.65 1.65 1.65 0 0 1-1.651 1.65Z"/></svg>