<svg xmlns="http://www.w3.org/2000/svg" fill="#44739e" viewBox="0 0 24 24"><path d="M12.805 10.008a10.73 10.73 0 0 0 2.219-.323c.744-.208 1.17-.471 1.276-.744a.37.37 0 0 0 .027-.138V3.232A.36.36 0 0 0 16.3 3.1c-.1-.263-.5-.518-1.2-.724a13.116 13.116 0 0 0-6.2 0c-.7.206-1.1.46-1.2.724a.38.38 0 0 0-.028.137V8.8a.38.38 0 0 0 .028.14c.1.273.535.536 1.279.745a10.6 10.6 0 0 0 2.22.323L6.832 22h1.083l3.578-9.827V22h1.018v-9.821L16.085 22h1.083zM9.786 3.423a13.2 13.2 0 0 1 4.426 0c1.2.245 1.162.637-.053.874a13.41 13.41 0 0 1-4.316 0c-1.216-.238-1.254-.629-.057-.874"/></svg>