<svg xmlns="http://www.w3.org/2000/svg" viewBox="0 0 24 24"><path fill="#44739e" d="M22.934 3.876v-.259h-.043l-.044-.342h-.041v-.13h-.043l-.044-.214h-.042l-.043-.171h-.043v-.087l-.085-.042-.044-.172-.085-.043v-.085l-.172-.13v-.085l-.086-.044-.257-.3h-.085l-.129-.172h-.086l-.042-.085-.172-.043-.043-.085h-.085v-.043l-.172-.044v-.043l-.215-.042v-.043h-.129v-.044l-.343-.043v-.042h-.214V1H3.853c-.107.095-.275.035-.429.087v.041l-.257.044v.043h-.086v.042h-.129V1.3l-.172.044v.043h-.085l-.043.085-.172.043-.085.129h-.087l-.085.128h-.085l-.043.087-.3.257v.085l-.129.087v.085l-.128.087-.044.171-.085.042v.087h-.043l-.043.172h-.044v.128h-.041v.085h-.044v.13h-.043v.129h-.042v.213h-.043v.215h-.044v16.307h.044l.043.429h.042l.043.259h.044l.041.213h.044l.043.172h.044v.087l.084.041.044.172.128.087v.085l.129.087v.085l.085.043.215.257h.085l.128.172.131.043.041.085.172.044.043.086h.085v.042l.172.043v.044l.216.043v.042h.128v.043l.342.044v.041h.215v.044h14.493a8.15 8.15 0 0 0 1.758-.044h.257v-.041l.343-.044V22.8h.129v-.044l.215-.041v-.044l.172-.043v-.042h.085l.043-.086.172-.044.042-.085.128-.043.087-.129h.085l.043-.085.301-.258v-.085l.128-.087v-.085l.128-.087.044-.17.085-.043v-.087h.043l.044-.172h.041l.044-.213h.043v-.129h.042l.043-.343h.043v-.257h.044V3.876Zm-10.287 1.07 6.935 4.17-.061.08-2.92 1.736c-.225-.117-.457-.222-.675-.352-.996-.592-1.987-1.191-2.979-1.787l-.3-.238Zm-1.442-.025.051.211-.003.296v3.106c-.483.301-.937.588-1.395.867q-1.25.765-2.504 1.523a3.3 3.3 0 0 1-.493-.195c-.789-.46-1.571-.932-2.356-1.4l-.323-.242Zm.03 13.817a1.4 1.4 0 0 1-.233-.086q-2.833-1.67-5.664-3.344c-.545-.321-1.097-.627-1.646-.94l-.218-.178v-3.556c.263.15.502.282.737.421q2.379 1.399 4.756 2.801 1.14.673 2.278 1.351l.005.228Zm-.154-5.49c-.675-.388-1.353-.77-2.03-1.155l-.257-.231c1.051-.672 2.109-1.296 3.163-1.931.954.591 1.89 1.17 2.824 1.753a1.15 1.15 0 0 1 .192.199l.003.018c-.77.459-1.537.921-2.31 1.374-.27.158-.555.289-.832.433-.251-.154-.498-.314-.753-.46m9.337-2.253v3.147L13.004 18.6l-.227.133c-.047-.026-.129-.045-.134-.078a2.1 2.1 0 0 1-.01-.337v-3.153l7.747-4.672.041.203Z"/></svg>