<svg xmlns="http://www.w3.org/2000/svg" data-name="Livello 1" viewBox="0 0 24 24"><path fill="#44739e" d="M23.8144 3.2344V2.955h-.0469l-.0469-.3692h-.0449v-.1406h-.0468l-.0469-.2305h-.045l-.0469-.1855h-.0468v-.0937l-.0918-.045-.0468-.1855-.0918-.0469v-.0918l-.1857-.1406V1.334l-.0937-.0469-.2772-.3242h-.0919l-.1386-.1856h-.0938l-.0449-.0917-.1855-.047-.047-.0917h-.0917V.5l-.1856-.0469V.4063l-.2324-.045V.3145h-.1386v-.047l-.3711-.0468v-.045h-.2305V.129H3.209c-.1154.1027-.2967.0382-.4629.0938v.0449l-.2774.0469v.0468H2.375v.045h-.1387V.453L2.0508.5v.0469H1.959l-.0469.0918-.1855.0468-.0918.1387H1.541L1.4492.963h-.0918l-.0469.0937-.3242.2774v.0918l-.1386.0938v.0917l-.1387.0938-.0469.1855-.0918.045v.0937H.5234l-.0468.1855h-.047v.1387H.3849v.0918h-.047v.1406H.291v.1387H.246v.2305H.1993v.2324h-.047V20.797h.047l.0468.4629H.291l.0469.2793h.0469l.0449.2304h.0469l.0468.1856h.047v.0937l.0917.045.0469.1855.1387.0938v.0917l.1386.0938v.0918l.0918.0469.2325.2773h.0918l.1386.1856.1407.0468.0449.0918.1855.0469.0469.0937h.0918v.045l.1855.0468v.047l.2325.0468v.045h.1386v.0468l.3692.0469v.0449h.2324v.0469h15.6504a8.8 8.8 0 0 0 1.8984-.047h.2774v-.0448l.371-.0469V23.67h.1387v-.0468l.2325-.045v-.0468l.1855-.047v-.0448h.0918l.0469-.0938.1855-.0469.045-.0918.1386-.0468.0938-.1387h.0918l.0468-.0918.3243-.2793v-.0918l.1386-.0938v-.0917l.1387-.0938.0469-.1836.0918-.0469v-.0937h.0468l.047-.1856h.0448l.0469-.2304h.0468v-.1387h.045l.0468-.3711h.0469v-.2773h.0468V3.2344ZM12.7053 4.3899l7.4893 4.5034-.0659.0866-3.153 1.8746c-.2437-.1262-.4941-.2404-.7298-.3807-1.0746-.6391-2.1451-1.2856-3.217-1.9295l-.3237-.2572Zm-1.557-.0267.0554.2277-.0037.3195v3.3543c-.522.325-1.0118.6345-1.5059.9367q-1.35.8255-2.704 1.6441a3.6 3.6 0 0 1-.5327-.21c-.852-.497-1.6971-1.0068-2.5446-1.512l-.348-.262zm.032 14.921a1.5 1.5 0 0 1-.2517-.0936q-3.0591-1.8036-6.1162-3.611c-.588-.3461-1.1845-.6768-1.7771-1.0146L2.8 14.372v-3.8397c.2839.1617.5418.3047.796.4543q2.5682 1.511 5.135 3.0248 1.2318.7267 2.4601 1.4596l.0058.2455zm-.1663-5.9292c-.7288-.4188-1.461-.8314-2.1919-1.2465l-.2775-.2497c1.1355-.726 2.278-1.3994 3.416-2.0852 1.0297.638 2.041 1.2627 3.0488 1.8932a1.24 1.24 0 0 1 .208.2146l.0027.0193c-.831.4953-1.6596.995-2.4945 1.4834-.2914.1704-.5985.3126-.8984.4677-.2709-.166-.538-.3387-.8132-.4968m10.0827-2.4327v3.3987l-8.0054 4.8138-.245.1435c-.0508-.0276-.1396-.0487-.1455-.0841a2.25 2.25 0 0 1-.0105-.3642q-.0004-1.5025-.0002-3.005v-.4l8.3663-5.0445.0436.2187z" class="cls-1" data-name="Colore riempimento 1"/></svg>