<svg xmlns="http://www.w3.org/2000/svg" viewBox="0 0 24 24"><path fill="#44739e" d="M20.507 1H3.493A2.491 2.491 0 0 0 1 3.493v17.014A2.491 2.491 0 0 0 3.493 23h17.014A2.491 2.491 0 0 0 23 20.507V3.493A2.491 2.491 0 0 0 20.507 1M1.294 4.653a.354.354 0 0 1 .354-.353h.943a.354.354 0 0 1 .354.354v.943a.354.354 0 0 1-.354.354h-.943a.355.355 0 0 1-.354-.354ZM3.02 20.019a.354.354 0 0 1-.355.354h-.942a.354.354 0 0 1-.354-.354v-.943a.354.354 0 0 1 .354-.354h.942a.354.354 0 0 1 .355.354Zm0-4.808a.354.354 0 0 1-.355.354h-.942a.354.354 0 0 1-.354-.354v-.943a.354.354 0 0 1 .354-.354h.942a.354.354 0 0 1 .355.354Zm0-4.807a.354.354 0 0 1-.355.354h-.942a.354.354 0 0 1-.354-.354V9.46a.354.354 0 0 1 .354-.354h.942a.354.354 0 0 1 .355.354Zm1.878-5.751a.354.354 0 0 1 .355-.353h.942a.354.354 0 0 1 .355.354v.943a.354.354 0 0 1-.355.354h-.942a.355.355 0 0 1-.355-.354Zm1.372 5.975h-.943a.22.22 0 0 1-.225-.22V9.46a.225.225 0 0 1 .225-.225h.943a.225.225 0 0 1 .23.225v.944a.22.22 0 0 1-.23.224m.23 3.64v.943a.225.225 0 0 1-.225.225h-.948a.225.225 0 0 1-.225-.225v-.943a.225.225 0 0 1 .225-.225h.943a.225.225 0 0 1 .23.225m.129 5.751a.354.354 0 0 1-.354.354h-.948a.354.354 0 0 1-.354-.354v-.943a.354.354 0 0 1 .354-.354h.943a.354.354 0 0 1 .354.354Zm6.626-4.499-.098-.89a2.78 2.78 0 0 1-2.218 1.055 2.19 2.19 0 0 1-2.302-2.255c0-1.901 1.367-3.08 4.275-3.062 0-.65.167-1.264-1.274-1.413-.695-.072-1.087.558-1.273 1.449l-1.523-.395a2.923 2.923 0 0 1 2.813-2.541c2.301 0 2.86 1.641 2.86 3.216v2.941a11.66 11.66 0 0 0 .124 1.884Zm4.051-10.864a.354.354 0 0 1 .355-.356h.939a.354.354 0 0 1 .354.354v.943a.354.354 0 0 1-.354.353h-.943a.354.354 0 0 1-.354-.354Zm1.372 5.976h-.944a.22.22 0 0 1-.22-.22V9.46a.22.22 0 0 1 .22-.225h.944a.22.22 0 0 1 .22.225v.944a.22.22 0 0 1-.22.224Zm.22 3.639v.943a.22.22 0 0 1-.22.226h-.944a.22.22 0 0 1-.22-.226v-.943a.22.22 0 0 1 .22-.225h.944a.22.22 0 0 1 .224.222Zm.13 5.751a.354.354 0 0 1-.354.354h-.944a.354.354 0 0 1-.354-.354v-.942a.354.354 0 0 1 .354-.355h.944a.354.354 0 0 1 .354.355Zm1.944-15.369a.354.354 0 0 1 .354-.353h.942a.354.354 0 0 1 .355.354v.943a.354.354 0 0 1-.355.354h-.942a.354.354 0 0 1-.354-.354Zm1.725 15.366a.355.355 0 0 1-.355.354h-.943a.354.354 0 0 1-.354-.354v-.943a.354.354 0 0 1 .354-.354h.941a.355.355 0 0 1 .355.354Zm0-4.808a.355.355 0 0 1-.355.354h-.943a.354.354 0 0 1-.354-.354v-.943a.355.355 0 0 1 .354-.354h.941a.355.355 0 0 1 .355.354Zm0-4.807a.355.355 0 0 1-.355.354h-.943a.355.355 0 0 1-.354-.354V9.46a.355.355 0 0 1 .354-.354h.941a.355.355 0 0 1 .355.354ZM1.723 14.171h.942c.054 0 .097.044.097.097v.943a.097.097 0 0 1-.097.097h-.942a.097.097 0 0 1-.097-.097v-.943c0-.053.043-.097.097-.097m19.678 0h.941c.054 0 .097.044.097.097v.943a.097.097 0 0 1-.097.097h-.941a.097.097 0 0 1-.097-.097v-.943c0-.053.043-.097.097-.097M1.649 4.556h.943c.053 0 .097.043.097.097v.943a.097.097 0 0 1-.097.097h-.943a.097.097 0 0 1-.097-.097v-.943c0-.054.043-.097.097-.097m19.752 14.423h.941c.054 0 .097.044.097.097v.942a.097.097 0 0 1-.097.097h-.941a.097.097 0 0 1-.097-.097v-.942c0-.053.043-.097.097-.097m-19.678 0h.942c.054 0 .097.044.097.097v.942a.097.097 0 0 1-.097.097h-.942a.097.097 0 0 1-.097-.097v-.942c0-.053.043-.097.097-.097m19.678-9.615h.941c.054 0 .097.044.097.097v.943a.097.097 0 0 1-.097.097h-.941a.097.097 0 0 1-.097-.097v-.943c0-.053.043-.097.097-.097m-3.74-4.808h.941c.054 0 .097.043.097.097v.943a.097.097 0 0 1-.097.097h-.941a.097.097 0 0 1-.097-.097v-.943c0-.054.043-.097.097-.097m-7.463 8.927c-.064.924.843.88 1.498.632.922-.346.821-.302.955-.762 0 0 .149-.708.149-.855l.082-.615c-.451.199-2.577.086-2.684 1.6m-4.871 5.496h.943c.054 0 .097.044.097.097v.942a.097.097 0 0 1-.097.097h-.943a.097.097 0 0 1-.096-.097v-.942c0-.053.043-.097.096-.097M5.254 4.556h.941c.054 0 .097.043.097.097v.943a.097.097 0 0 1-.097.097h-.941a.097.097 0 0 1-.097-.097v-.943c0-.054.043-.097.097-.097m16.072 0h.941c.054 0 .097.043.097.097v.943a.097.097 0 0 1-.097.097h-.941a.097.097 0 0 1-.097-.097v-.943c0-.054.043-.097.097-.097m-3.591 14.423h.943c.054 0 .097.044.097.097v.942a.097.097 0 0 1-.097.097h-.943a.097.097 0 0 1-.096-.097v-.942c0-.053.043-.097.096-.097M1.723 9.364h.942c.054 0 .097.044.097.097v.943a.097.097 0 0 1-.097.097h-.942a.097.097 0 0 1-.097-.097v-.943c0-.053.043-.097.097-.097"/></svg>