<svg xmlns="http://www.w3.org/2000/svg" viewBox="0 0 24 24"><path fill="#44739e" d="m9.856 10.68-2.674 4.764a.99.99 0 0 1-.845.505.843.843 0 0 1-.858-.837l-.034-4.432h-2.66l.085 4.738a3.19 3.19 0 0 0 3.19 3.136h.01a3.705 3.705 0 0 0 3.222-1.87l3.41-6.001Zm1.646 7.787h10.237v-2.642h-8.768Zm7.444-13.021H1.124A.124.124 0 0 0 1 5.57v2.378a.123.123 0 0 0 .124.123l18.06.016a1.245 1.245 0 0 1 1.243 1.245 1.3 1.3 0 0 1-1.294 1.3l-3.169.012a.122.122 0 0 0-.11.061l-1.39 2.377a.124.124 0 0 0 .11.187h4.66A3.77 3.77 0 0 0 23 9.5a4.052 4.052 0 0 0-4.054-4.054"/></svg>