<svg xmlns="http://www.w3.org/2000/svg" viewBox="0 0 24 24"><path fill="#44739e" d="M1.885 9.135c-.061.032-.06.025-.06.613v.54h-.361c-.398 0-.418 0-.448.06a.15.15 0 0 0-.016.059c0 .033.481 1.092.513 1.127s.078.05.193.05h.11v.895c0 .516 0 .954.01 1.034a1.613 1.613 0 0 0 .255.792 1.76 1.76 0 0 0 .361.374 1.94 1.94 0 0 0 .44.22 2.64 2.64 0 0 0 1.288.046 3.25 3.25 0 0 0 .711-.237.139.139 0 0 0 .072-.138 9.7 9.7 0 0 0-.448-.938c-.021-.013-.032-.013-.11.012a1.38 1.38 0 0 1-.4.065.89.89 0 0 1-.44-.065.57.57 0 0 1-.296-.391 8.1 8.1 0 0 1-.015-.87v-.796h.92l.072.152c.097.202.915 1.963 1.403 3.013.028.062.046.088.07.1a3.2 3.2 0 0 0 .637.016c.574 0 .609 0 .638-.02a17.4 17.4 0 0 0 .758-1.59c.402-.864.734-1.568.736-1.566a.36.36 0 0 1-.01.079c-.01.058-.014.424-.017 1.533 0 1.592-.006 1.506.055 1.548.027.017.065.017.628.017s.602 0 .629-.017c.061-.041.058.022.058-1.343 0-.832 0-1.28.011-1.331a.99.99 0 0 1 .184-.473.755.755 0 0 1 .383-.237.92.92 0 0 1 .283-.023.77.77 0 0 1 .44.085.704.704 0 0 1 .361.422c.057.172.055.128.062 1.54l.006 1.309.033.03a.143.143 0 0 0 .077.035h2.221c1.999 0 2.179 0 2.208-.02a.22.22 0 0 0 .049-.037c.018-.019.435-.915.484-1.04a.11.11 0 0 0 .009-.09c-.024-.079.051-.074-1.041-.079l-.974-.006.888-.99c.487-.55.9-1.013.919-1.04a.777.777 0 0 0 .138-.466.64.64 0 0 0-.027-.22.8.8 0 0 0-.196-.341.788.788 0 0 0-.485-.25c-.11-.016-3.207-.016-3.237 0s-.019.025-.019.297v.286l-.048-.056a1.87 1.87 0 0 0-.33-.282 2.64 2.64 0 0 0-.516-.254 3.13 3.13 0 0 0-1.749-.058 2.16 2.16 0 0 0-.454.165 1.97 1.97 0 0 0-.565.401l-.08.083v-.284a1.32 1.32 0 0 0-.012-.296 4.84 4.84 0 0 0-.79 0 .744.744 0 0 0-.482.33 4 4 0 0 0-.191.404c-.287.668-1.012 2.27-1.023 2.259s-.786-1.98-.927-2.357a.935.935 0 0 0-.22-.393.82.82 0 0 0-.352-.226l-.098-.018h-1.54v-.55c0-.598 0-.572-.062-.605a11.6 11.6 0 0 0-1.274.002m12.898 2.454c0 .006-1.637 1.716-1.796 1.878l-.082.082v-1.965h.939c.517 0 .939.002.939.005m4.734-2.571a.213.213 0 0 0-.077.074l-.03.05v2.102h-.81c-.871 0-.849 0-.9.054-.013.013-.134.279-.27.59a3.27 3.27 0 0 0-.248.617.195.195 0 0 0 .074.154l.034.023h2.121v1.036c0 1.173 0 1.108.078 1.181a.23.23 0 0 0 .086.049c.019 0 .287.009.595.009h.557l.05-.031a.19.19 0 0 0 .079-.086l.03-.055v-2.09h1.98l.043-.026a.24.24 0 0 0 .072-.066l.019-.042v-1.173l-.027-.043a.22.22 0 0 0-.082-.069l-.055-.027H20.88v-1.05a7.4 7.4 0 0 0-.021-1.081.293.293 0 0 0-.11-.11c-.019-.007-.22-.012-.605-.012h-.575Z"/></svg>