<svg xmlns="http://www.w3.org/2000/svg" viewBox="0 0 24 24"><path fill="#44739e" d="m14.68 4.608.023-.404h-.282l-.346.125.024-1.843.289.057h.285l.022-.403-.283.006-.308.11.008-.573h-.384l-.013.716-.027.01.027.005-.204 15.627h.383v-.029l.503.1h.283l.023-.403h-.282l-.523.189.024-1.813.477.096h.284l.022-.403h-.282l-.497.181.023-1.799.452.09h.284l.022-.403h-.282l-.472.171.024-1.784.426.085.284-.006.022-.402h-.281l-.448.162.023-1.767.402.081.284-.006.022-.403h-.281l-.422.153.023-1.756.377.075h.283l.023-.403-.282.005-.397.144.024-1.743.351.071h.284l.022-.403h-.282l-.371.134.022-1.728.331.065Zm-.192-.326h.136l-.013.255h-.137Zm-.01-2.061h.136l-.014.254h-.136Zm.01 15.572h.136l-.013.255h-.137Zm0-1.929h.136l-.013.255h-.137Zm0-1.93h.136l-.013.256h-.137Zm0-1.929h.136l-.013.254h-.137Zm0-1.929h.136l-.013.254h-.137Zm0-1.93h.136l-.013.254h-.137Zm0-1.93h.136l-.013.255h-.137Zm6.439-3.131.022-.404h-.283l-.503.183V1.688h-.383l-.051 12.294h.331l.578.116h.285l.022-.403h-.283l-.552.2.006-1.587.442.089h.285l.022-.403h-.283l-.465.169.007-1.468.515.103h.285l.022-.403h-.283l-.537.194.008-1.824.507.101h.285l.022-.403h-.283l-.528.192.008-1.82.498.1h.285l.022-.404h-.283l-.52.189.007-1.801.49.098h.285l.022-.403h-.282l-.512.186.008-1.811.481.097Zm-.192-.326h.136l-.015.255h-.136Zm0 11.015h.136l-.015.255h-.136Zm-.079-1.699h.136l-.014.255h-.136Zm.079-1.597h.136l-.015.254h-.136Zm0-1.93h.136l-.015.254h-.136Zm0-1.929h.136l-.015.254h-.136Zm0-1.931h.136l-.015.255h-.136Zm2.204-.44.023-.404h-.282l-.307.111V2.258l.28.057.284-.006.023-.403h-.282l-.303.111v-.332h-.383v.467l-.035.014.035.006v1.912l-.03.011h.03V6.01l-.025.009h.025v1.918l-.02.007h.02v1.92l-.016.005h.016v1.923h-.01.01v5.336h.383v-.102l.317.063h.284l.023-.404h-.283l-.339.123v-1.401l.314.063h.284l.023-.404h-.283l-.331.122v-1.399l.309.061h.284l.023-.403h-.283l-.331.12v-1.709l.305.061h.284l.023-.403h-.283l-.326.118V9.926l.3.061h.283l.024-.403h-.283l-.322.117V7.997l.295.06h.284l.023-.403h-.282l-.317.11V6.063l.29.058h.284l.023-.402h-.283l-.311.11V4.13l.285.057Zm-.191-.325h.136l-.014.254h-.136Zm0-1.93h.136l-.014.254h-.136Zm0 14.812h.136l-.014.254h-.136Zm0-1.618h.136l-.014.255h-.136Zm0-1.617h.136l-.014.255h-.136Zm0-1.929h.136l-.014.255h-.136Zm0-1.93h.136l-.014.255h-.136Zm0-1.929h.136l-.014.255h-.136Zm0-1.93h.136l-.014.254h-.136ZM18.914 2.62l.022-.403h-.283l-.522.189v-.728h-.385l-.006 4.37h.192l.697.14h.285l.022-.403h-.283l-.528.192V4.446l.504.101h.285l.022-.403h-.283l-.525.191v-1.82l.501.1Zm-.196-.322h.136l-.014.254h-.136Zm0 3.569h.136l-.014.255h-.136Zm0-1.639h.136l-.014.254h-.136ZM10.435 2.21l.022-.403h-.283l-.499.181v-.302h-.38l-.058 13.96h.383v-.033l.535.111h.284l.023-.404h-.283l-.552.203.007-1.836.527.11h.285l.022-.403h-.283l-.552.2.008-1.832.518.104h.285l.022-.402h-.283l-.54.196.008-1.826.51.101h.285l.022-.403h-.283l-.532.193.008-1.822.502.101.272-.006.022-.403h-.283l-.523.19.011-1.812.494.099h.285l.022-.403h-.283l-.518.189.008-1.813.486.098h.285l.022-.403h-.283l-.508.184.008-1.809.478.096Zm-.192-.326h.136l-.015.255h-.135Zm0 13.507h.136l-.015.255h-.135Zm0-1.929h.136l-.015.255h-.135Zm0-1.93h.136l-.015.254h-.135Zm0-1.929h.136l-.015.254h-.135Zm0-1.93h.136l-.015.254h-.135Zm0-1.93h.136l-.015.255h-.135Zm0-1.929h.136l-.015.255h-.135Zm6.578-1.482.022-.402h-.282l-.456.166v-.414h-.383l-.035 8.244h.231l.619.124h.284l.022-.403h-.282l-.488.177.005-1.793.459.092h.284l.022-.403h-.282l-.48.173.008-1.792.45.09h.284l.022-.403h-.282l-.472.172.007-1.789.442.09h.284l.022-.403h-.281l-.464.169.007-1.784.434.086Zm-.192-.324h.135l-.013.254h-.136Zm0 7.717h.135l-.013.256h-.136Zm0-1.929h.135l-.013.255h-.136Zm0-1.929h.135l-.013.255h-.136Zm0-1.93h.135l-.013.255h-.136ZM8.286 2.548l.022-.403h-.282l-.386.143v-.609h-.38l-.028 6.555h.252l.518.104h.285l.022-.403-.282.006-.408.148.008-1.753.378.076h.285l.022-.403h-.281l-.407.145.007-1.747.371.074h.285l.022-.404h-.282l-.392.143.008-1.744.362.073Zm-.192-.326h.136l-.014.255h-.137Zm0 5.789h.136l-.014.254h-.137Zm0-1.929h.136l-.014.254h-.137Zm0-1.931h.136l-.014.256h-.137ZM6.349 2.204l.022-.403h-.283l-.448.163v-.338h-.384l-.021 10.096h.192l.638.128h.285l.022-.403h-.283l-.468.171V9.83l.442.09h.285l.022-.403h-.283l-.464.169V7.901l.442.087h.285l.022-.398h-.283l-.46.167V5.974l.434.087h.285l.022-.403h-.283l-.456.166V4.043l.431.086h.284l.023-.403h-.283l-.452.165V2.113l.426.085Zm-.191-.324h.135l-.014.254h-.136Zm0 9.647h.135l-.014.255h-.136Zm0-1.93h.135l-.014.255h-.136Zm0-1.929h.135l-.014.254h-.136Zm0-1.929h.135l-.014.254h-.136Zm0-1.93h.135l-.014.254h-.136ZM2.067 2.14l.022-.403h-.283l-.395.144v-.199h-.384L1 7.857h.383v-.005l.398.08h.285l.022-.403h-.283l-.42.152.008-1.759.39.078h.285l.022-.403h-.283l-.411.149.007-1.755.382.078h.285l.022-.403H1.81l-.404.145.003-1.744.373.076Zm-.192-.325h.136l-.015.252H1.86Zm0 5.789h.136l-.015.255H1.86Zm0-1.931h.136l-.015.255H1.86Zm0-1.929h.136l-.015.255H1.86Zm10.665-.659.022-.404h-.281l-.396.144.008-1.133h-.383l-.141 20.542h.193l.696.14h.285l.022-.403h-.281l-.527.191.012-1.819.493.1h.285l.022-.403h-.282l-.513.186.012-1.811.479.096h.285l.022-.403h-.282l-.5.181.012-1.803.466.093h.285l.022-.403h-.281l-.488.178.012-1.797.454.092h.285l.022-.403h-.282l-.475.173.012-1.79.442.088h.285l.022-.402h-.281l-.462.168.012-1.781.427.085h.285l.022-.403h-.281l-.449.163.013-1.775.414.083h.285l.022-.403h-.282l-.435.158.012-1.767.401.081h.285l.022-.404h-.282l-.421.154-.019-1.735.387.077h.285l.022-.403h-.281l-.409.148.012-1.752.375.076Zm-.192-.326h.136l-.015.255h-.135Zm0 19.295h.136l-.015.255h-.135Zm0-1.929h.136l-.015.255h-.135Zm0-1.93h.136l-.015.255h-.135Zm0-1.929h.136l-.015.255h-.135Zm0-1.93h.136l-.015.256h-.135Zm0-1.929h.136l-.015.255h-.135Zm0-1.929h.136l-.015.254h-.135Zm0-1.93h.136l-.015.254h-.135Zm0-1.929h.136l-.015.254h-.135Zm0-1.931h.136l-.015.255h-.135ZM4.293 2.752l.022-.403h-.281l-.424.16.011-.808h-.383l-.24 18.344h.383v-.054l.627.126h.285l.022-.403h-.281l-.65.235.025-1.884.603.12h.285l.022-.403h-.282l-.624.227.024-1.871.578.116H4.3l.022-.403H4.04l-.598.22.024-1.856.552.11h.285l.022-.403h-.281l-.573.209.024-1.842.527.11h.285l.022-.403-.3.011-.552.199.023-1.828.503.101h.285l.022-.402h-.282l-.522.19.026-1.818.478.095h.284l.023-.403-.288.001-.497.18.024-1.799.451.09h.285l.022-.403h-.281l-.473.171.023-1.784.428.085h.285l.019-.406h-.281l-.442.163.023-1.767.402.08Zm-.192-.326h.136l-.013.255h-.137Zm0 17.366h.136l-.013.255h-.137Zm0-1.929h.136l-.013.255h-.137Zm0-1.93h.136l-.013.256h-.137Zm0-1.929h.136l-.013.255h-.137Zm0-1.929h.136l-.013.255h-.137Zm0-1.93h.136l-.013.254h-.137Zm0-1.929h.136l-.013.254h-.137Zm0-1.93h.136l-.013.254h-.137Zm0-1.929h.136l-.013.251h-.137Z"/></svg>