<svg xmlns="http://www.w3.org/2000/svg" viewBox="0 0 24 24"><path fill="#44739e" d="M22.606 12.132a.408.408 0 0 0-.394.243l-1.172-.058a.407.407 0 0 0-.745-.037l-1.178-.06a.407.407 0 0 0-.748-.038l-1.175-.06a.406.406 0 0 0-.751-.038l-1.171-.06a.406.406 0 0 0-.755-.037l-1.169-.06a.33.33 0 0 0-.028-.065.44.44 0 0 0 .014-.076l1.123-.304a.406.406 0 0 0 .739-.202l1.119-.305a.406.406 0 0 0 .741-.202l1.117-.304a.406.406 0 0 0 .744-.203l1.113-.303a.407.407 0 0 0 .748-.204l1.118-.304a.405.405 0 1 0-.076-.276l-1.132.308a.407.407 0 0 0-.72.196l-1.137.311a.408.408 0 0 0-.724.197l-1.134.309a.406.406 0 0 0-.726.198l-1.132.308a.407.407 0 0 0-.729.198l-1.129.307a.44.44 0 0 0-.044-.049.4.4 0 0 0-.008-.072l.975-.634a.406.406 0 0 0 .64-.417l.973-.633a.406.406 0 0 0 .644-.419l.97-.631a.406.406 0 0 0 .646-.42l.967-.63a.406.406 0 0 0 .649-.421l.972-.633a.406.406 0 1 0-.157-.24l-.984.64a.406.406 0 0 0-.625.407l-.99.642a.406.406 0 0 0-.628.409l-.99.641a.407.407 0 0 0-.631.411l-.983.639a.406.406 0 0 0-.633.412l-.98.637a.6.6 0 0 0-.05-.044.4.4 0 0 0-.033-.069l.726-.907a.406.406 0 0 0 .479-.597l.725-.904a.406.406 0 0 0 .481-.599l.724-.903a.406.406 0 0 0 .483-.601l.721-.9a.406.406 0 0 0 .484-.603l.725-.905a.406.406 0 1 0-.22-.179l-.734.916a.406.406 0 0 0-.466.581l-.737.919a.407.407 0 0 0-.469.585l-.735.916a.407.407 0 0 0-.471.588l-.733.913a.406.406 0 0 0-.472.59l-.732.912a.44.44 0 0 0-.077-.017.44.44 0 0 0-.06-.062l.395-1.092a.405.405 0 0 0 .261-.719l.394-1.09a.406.406 0 0 0 .261-.722l.393-1.087a.406.406 0 0 0 .262-.726l.392-1.084a.406.406 0 0 0 .263-.727l.394-1.09a.407.407 0 1 0-.27-.098l-.399 1.101a.406.406 0 0 0-.253.7l-.401 1.108a.407.407 0 0 0-.254.705l-.4 1.1a.405.405 0 0 0-.255.707l-.399 1.1a.406.406 0 0 0-.256.711l-.397 1.101a.406.406 0 0 0-.259.713l-.104.288-.173-.25a.405.405 0 0 0-.343-.638 1.31 1.31 0 0 1 .548-.113 1.4 1.4 0 0 1 .221.019.5.5 0 0 0-.083-.042V9.494a.406.406 0 0 0 0-.771V7.564a.406.406 0 0 0 0-.77V5.638a.405.405 0 0 0 0-.77V3.715a.406.406 0 0 0 0-.77V1.786a.406.406 0 1 0-.287 0v1.172a.406.406 0 0 0 0 .745v1.178a.407.407 0 0 0 0 .75v1.174a.406.406 0 0 0 0 .752v1.172a.406.406 0 0 0 0 .755v1.168a.44.44 0 0 0-.065.032.44.44 0 0 0-.077-.01l-.367-1.101a.406.406 0 0 0-.242-.725l-.365-1.101a.406.406 0 0 0-.242-.729l-.366-1.1a.406.406 0 0 0-.243-.731l-.364-1.094a.406.406 0 0 0-.245-.734l-.366-1.101a.407.407 0 1 0-.272.09l.37 1.113a.406.406 0 0 0 .235.708l.376 1.126a.406.406 0 0 0 .236.711l.371 1.115a.406.406 0 0 0 .238.713l.37 1.112a.406.406 0 0 0 .238.716l.369 1.109-.035.033-.054.01-.66-.955a.407.407 0 0 0-.441-.628l-.66-.952a.406.406 0 0 0-.44-.631l-.661-.949a.406.406 0 0 0-.44-.633l-.66-.947a.406.406 0 0 0-.441-.635l-.66-.952a.406.406 0 1 0-.235.164l.669.963a.406.406 0 0 0 .425.612l.673.967a.406.406 0 0 0 .427.615l.671.966a.406.406 0 0 0 .43.617l.668.962a.406.406 0 0 0 .431.621l.667.96a.4.4 0 0 0-.027.047.44.44 0 0 0-.054.026l-.912-.721a.406.406 0 0 0-.6-.474l-.909-.72a.407.407 0 0 0-.604-.476L7.1 7.943a.406.406 0 0 0-.604-.479l-.905-.715a.407.407 0 0 0-.607-.48l-.909-.719a.407.407 0 1 0-.179.22l.921.728a.407.407 0 0 0 .584.463l.925.731a.407.407 0 0 0 .587.465l.923.729a.406.406 0 0 0 .59.467l.92.726a.406.406 0 0 0 .592.469l.917.726a.6.6 0 0 0-.013.056.6.6 0 0 0-.046.044l-1.084-.421a.407.407 0 0 0-.714-.277l-1.081-.421a.407.407 0 0 0-.716-.278l-1.079-.418a.406.406 0 0 0-.719-.28l-1.075-.417a.407.407 0 0 0-.722-.281l-1.081-.419a.408.408 0 1 0-.11.266l1.094.425a.407.407 0 0 0 .696.271l1.1.427a.406.406 0 0 0 .698.271l1.101.426a.407.407 0 0 0 .702.273l1.093.423a.406.406 0 0 0 .704.275l1.09.423a.4.4 0 0 0 .007.072.55.55 0 0 0-.039.069L9.5 11.724a.407.407 0 0 0-.771-.039l-1.157-.059a.407.407 0 0 0-.771-.04l-1.156-.058a.407.407 0 0 0-.77-.04l-1.143-.052a.407.407 0 0 0-.77-.039l-1.158-.058a.406.406 0 1 0-.014.286l1.172.059a.407.407 0 0 0 .745.039l1.178.059a.407.407 0 0 0 .748.039l1.171.056a.407.407 0 0 0 .752.038l1.171.06a.407.407 0 0 0 .755.038l1.169.06a.33.33 0 0 0 .028.063.44.44 0 0 0-.015.076l-1.122.306a.406.406 0 0 0-.739.202l-1.119.305a.406.406 0 0 0-.741.201l-1.117.302a.406.406 0 0 0-.744.202l-1.117.308a.406.406 0 0 0-.748.204l-1.118.304a.405.405 0 1 0 .076.277l1.136-.305a.406.406 0 0 0 .719-.196l1.138-.309a.407.407 0 0 0 .723-.197l1.135-.309a.406.406 0 0 0 .726-.198L8.883 13a.407.407 0 0 0 .73-.198l1.128-.308a.33.33 0 0 0 .044.051.4.4 0 0 0 .009.071l-.975.634a.406.406 0 0 0-.641.417l-.973.633a.406.406 0 0 0-.643.419l-.97.631a.406.406 0 0 0-.646.421l-.968.628a.407.407 0 0 0-.649.423l-.971.632a.407.407 0 1 0 .157.241l.984-.641a.406.406 0 0 0 .625-.406l.99-.643a.407.407 0 0 0 .628-.409l.985-.641a.407.407 0 0 0 .631-.41l.982-.64a.406.406 0 0 0 .634-.411l.98-.639a.4.4 0 0 0 .061.037.4.4 0 0 0 .033.07l-.727.907a.406.406 0 0 0-.479.596l-.725.905a.406.406 0 0 0-.48.599l-.724.902a.406.406 0 0 0-.482.601l-.721.901a.406.406 0 0 0-.486.603l-.724.904a.408.408 0 1 0 .22.179l.734-.915a.406.406 0 0 0 .467-.581l.737-.92a.406.406 0 0 0 .469-.584l.736-.917a.406.406 0 0 0 .471-.587l.733-.913a.406.406 0 0 0 .472-.59l.732-.912a.36.36 0 0 0 .077.016.35.35 0 0 0 .058.062l-.395 1.093a.405.405 0 0 0-.26.719l-.394 1.09a.406.406 0 0 0-.261.722l-.393 1.087a.406.406 0 0 0-.261.725l-.393 1.085a.406.406 0 0 0-.263.727l-.393 1.09a.405.405 0 1 0 .269.097l.399-1.101a.405.405 0 0 0 .253-.7l.4-1.108a.407.407 0 0 0 .256-.705l.398-1.1a.406.406 0 0 0 .257-.708l.398-1.101a.406.406 0 0 0 .257-.711l.397-1.1a.406.406 0 0 0 .257-.714l.111-.288.173.25a.406.406 0 0 0 .344.638 1.31 1.31 0 0 1-.558.123 1.4 1.4 0 0 1-.22-.018.42.42 0 0 0 .082.042v1.162a.405.405 0 0 0 0 .764v1.159a.406.406 0 0 0 0 .77v1.156a.406.406 0 0 0 0 .77v1.153a.407.407 0 0 0 0 .77v1.158a.406.406 0 1 0 .287 0v-1.172a.406.406 0 0 0 0-.745v-1.178a.407.407 0 0 0 0-.75v-1.174a.406.406 0 0 0 0-.752v-1.172a.405.405 0 0 0 0-.755v-1.168a.6.6 0 0 0 .065-.032.44.44 0 0 0 .077.01l.367 1.101a.406.406 0 0 0 .242.725l.366 1.101a.406.406 0 0 0 .243.729l.365 1.1a.405.405 0 0 0 .243.731l.365 1.094a.406.406 0 0 0 .244.734l.366 1.101a.407.407 0 1 0 .272-.09l-.37-1.113a.406.406 0 0 0-.236-.708l-.38-1.13a.406.406 0 0 0-.236-.711l-.371-1.115a.406.406 0 0 0-.235-.706l-.37-1.111a.406.406 0 0 0-.238-.717l-.369-1.108.035-.033a.4.4 0 0 0 .054-.01l.66.954a.406.406 0 0 0 .441.629l.66.952a.406.406 0 0 0 .44.629l.661.95a.406.406 0 0 0 .44.633l.66.948a.406.406 0 0 0 .441.635l.66.951a.407.407 0 1 0 .237-.163l-.671-.963a.406.406 0 0 0-.424-.612l-.673-.969a.406.406 0 0 0-.428-.614l-.67-.965a.406.406 0 0 0-.43-.618l-.669-.963a.406.406 0 0 0-.431-.62l-.667-.959a.3.3 0 0 0 .027-.048.44.44 0 0 0 .054-.026l.913.721a.406.406 0 0 0 .599.474l.91.72a.407.407 0 0 0 .603.477l.907.717a.406.406 0 0 0 .605.478l.905.715a.407.407 0 0 0 .607.481l.908.719a.408.408 0 1 0 .18-.22l-.927-.743a.406.406 0 0 0-.584-.462l-.925-.731a.407.407 0 0 0-.588-.466l-.922-.728a.406.406 0 0 0-.59-.467l-.919-.727a.407.407 0 0 0-.593-.469l-.917-.726a.4.4 0 0 0 .013-.055.6.6 0 0 0 .046-.044l1.084.421a.406.406 0 0 0 .714.277l1.08.419a.407.407 0 0 0 .717.279l1.079.419a.406.406 0 0 0 .718.28l1.077.417a.407.407 0 0 0 .722.281l1.08.419a.407.407 0 1 0 .104-.268l-1.094-.424a.407.407 0 0 0-.696-.27l-1.1-.427a.407.407 0 0 0-.699-.272l-1.101-.425a.407.407 0 0 0-.702-.273l-1.093-.423a.406.406 0 0 0-.704-.275l-1.09-.423a.4.4 0 0 0-.007-.073.44.44 0 0 0 .039-.068l1.161.059a.407.407 0 0 0 .771.039l1.157.059a.407.407 0 0 0 .771.039l1.156.059a.406.406 0 0 0 .77.039l1.152.059a.407.407 0 0 0 .771.039l1.158.059a.406.406 0 1 0 .408-.529Zm-11.927-.01c0-.041-.007-.081-.007-.123a1.32 1.32 0 0 1 .398-.944.406.406 0 0 0 .474.55l.22.312-.367.1a.407.407 0 0 0-.716.11Zm.983.375a.406.406 0 0 0-.323.649 1.32 1.32 0 0 1-.543-.591.405.405 0 0 0 .673-.264l.297-.081Zm.665-.997a.406.406 0 0 0 .324-.648 1.33 1.33 0 0 1 .543.59.409.409 0 0 0-.375-.087.404.404 0 0 0-.298.352l-.297.081Zm.593 1.442a.405.405 0 0 0-.474-.55l-.22-.313.373-.092a.406.406 0 0 0 .717-.11c0 .04.006.081.006.123a1.313 1.313 0 0 1-.398.942Zm-7.937 8.701a.12.12 0 0 1-.011.093.124.124 0 0 1-.075.059.125.125 0 0 1-.089-.014.124.124 0 0 1-.059-.074.124.124 0 0 0 .059.074.125.125 0 0 0 .089.014.124.124 0 0 0 .075-.059.12.12 0 0 0 .011-.093"/></svg>