<svg xmlns="http://www.w3.org/2000/svg" viewBox="0 0 24 24"><path fill="#44739e" d="M22.927 9.743a4.15 4.15 0 0 1-.442 1.117 8.5 8.5 0 0 1-1.189 1.579 72 72 0 0 1-1.65 1.682.156.156 0 0 0-.035.168 9.47 9.47 0 0 1 .81 3.621 14.76 14.76 0 0 1-.25 3.018c-.231.864-1.083 1.411-1.965 1.258a11.19 11.19 0 0 1-4.002-1.664 10.3 10.3 0 0 1-1.812-1.432l-.024.017a20.02 20.02 0 0 1-4.934 3.536c-1.105.55-2.446.099-2.994-1.006a11.246 11.246 0 0 1-.284-4.967 23.2 23.2 0 0 1 .582-2.474c-.155-.138-1.572-1.61-2.061-2.24C.931 9.71 1 8.76 1 8.76a2.414 2.414 0 0 1 1.416-1.892 7.374 7.374 0 0 1 3.88-.76 7.62 7.62 0 0 1 2.442.562 8.21 8.21 0 0 1 2.056 1.209 9.78 9.78 0 0 1 1.601 1.617.233.233 0 0 1 0 .292.227.227 0 0 1-.286.051 10.285 10.285 0 0 0-3.868-1.356 6.7 6.7 0 0 0-1.862.055 5.97 5.97 0 0 0-1.307.412.073.073 0 0 0-.036.098l.012.018a14.03 14.03 0 0 0 3.215 2.524c1.03.629 1.605 1.304 1.268 2.328a12.36 12.36 0 0 0-.734 2.748 21.6 21.6 0 0 0 2.699-1.948c.86-.607 2.05-.388 2.639.484a11.55 11.55 0 0 0 3.059 2.87 14 14 0 0 0-.719-4.036 1.242 1.242 0 0 1 .517-1.434 22.65 22.65 0 0 0 3.368-3.034c.311-.433.267-.601-.244-.777a7.573 7.573 0 0 0-4.372.036.82.82 0 0 1-1.06-.465.73.73 0 0 1-.051-.257 10.38 10.38 0 0 0-.694-3.301 7.54 7.54 0 0 0-1.445-2.358.079.079 0 0 0-.113 0 9.04 9.04 0 0 0-1.116 1.565 9.82 9.82 0 0 0-.885 2.399.175.175 0 0 1-.138.103.178.178 0 0 1-.219-.193 9.987 9.987 0 0 1 2.218-5.007c.163-.2.186-.254.393-.105l.048.028a8.38 8.38 0 0 1 2.471 3.002c.405.8.718 1.645.931 2.517a.09.09 0 0 0 .11.064 8.53 8.53 0 0 1 2.595-.349 10.37 10.37 0 0 1 1.863.19 3.89 3.89 0 0 1 1.086.401 2.373 2.373 0 0 1 1.188 2.684"/></svg>