<svg xmlns="http://www.w3.org/2000/svg" viewBox="0 0 24 24"><path fill="#44739e" d="M5.012 21.638a.12.12 0 0 1-.011.093.124.124 0 0 1-.074.059.125.125 0 0 1-.09-.013.124.124 0 0 1-.058-.075.124.124 0 0 0 .058.075.125.125 0 0 0 .09.013.124.124 0 0 0 .074-.059.12.12 0 0 0 .011-.093M21.561 7.963a.298.298 0 0 0 .427.086.366.366 0 0 0 .145-.208.36.36 0 0 0-.029-.272.298.298 0 0 0-.441-.103.366.366 0 0 0-.144.204l-.792.092a5.2 5.2 0 0 0 .017-.589l.55-.394a.3.3 0 0 0 .338-.007.372.372 0 0 0 .145-.207.366.366 0 0 0-.03-.272.298.298 0 0 0-.44-.104.37.37 0 0 0-.15.22.4.4 0 0 0-.008.125l-.428.307a6 6 0 0 0-.048-.359c-.012-.087-.033-.173-.049-.261l.145-.089.075-.045a.301.301 0 0 0 .316-.019.374.374 0 0 0 .116-.48.298.298 0 0 0-.44-.103.375.375 0 0 0-.155.363l-.133.083c-.01-.039-.023-.078-.033-.116a4.95 4.95 0 0 0-.284-.702l.517-.968a.312.312 0 0 0 .197-.054.37.37 0 0 0 .146-.208v-.011a.36.36 0 0 0-.032-.26.298.298 0 0 0-.44-.104.367.367 0 0 0-.148.22.363.363 0 0 0 .033.261l.007.012-.441.827a3.85 3.85 0 0 0-.366-.521l.319-1.167.027-.013a.363.363 0 0 0 .166-.221.356.356 0 0 0-.019-.249.299.299 0 0 0-.428-.139.377.377 0 0 0-.147.472.31.31 0 0 0 .123.138l-.238.937a4.8 4.8 0 0 0-.417-.394l.076-.621a.33.33 0 0 0 .051-.028.367.367 0 0 0 .145-.208v-.011a.36.36 0 0 0-.033-.261.298.298 0 0 0-.44-.103.375.375 0 0 0-.117.48.31.31 0 0 0 .11.117l-.054.44a5.4 5.4 0 0 0-.584-.371l.011-.881a.3.3 0 0 0 .064-.029.363.363 0 0 0 .163-.207v-.013a.37.37 0 0 0-.019-.251.305.305 0 0 0-.183-.166.3.3 0 0 0-.245.028.374.374 0 0 0-.147.471.304.304 0 0 0 .099.122l-.01.778c-.047-.023-.079-.036-.123-.057l.007-.016c-.026-.009-.082-.027-.144-.047l-.023-.01-.019-.815a.36.36 0 0 0 .074-.047.299.299 0 0 0 .021-.45.374.374 0 0 0-.494-.018.298.298 0 0 0-.02.449.35.35 0 0 0 .12.077l.016.725a7 7 0 0 0-.651-.132l-.06-.366a.28.28 0 0 0 .052-.042.298.298 0 0 0-.016-.449.375.375 0 0 0-.494.014.298.298 0 0 0 .017.449.35.35 0 0 0 .147.075l.047.281a5.5 5.5 0 0 0-.594-.043l.11-.927a.34.34 0 0 0 .119-.075.3.3 0 0 0 .095-.227.306.306 0 0 0-.11-.22.374.374 0 0 0-.493.014.299.299 0 0 0 .015.45.4.4 0 0 0 .073.047l-.11.94a6.5 6.5 0 0 0-.756.054l-.323-.808a.298.298 0 0 0-.031-.433.374.374 0 0 0-.493.014.298.298 0 0 0 .015.449.37.37 0 0 0 .236.086l.297.739a5.4 5.4 0 0 0-.573.14l-.525-.428a.299.299 0 0 0-.095-.324.375.375 0 0 0-.494.015.298.298 0 0 0 .017.449.367.367 0 0 0 .249.085.39.39 0 0 0 .124-.024l.408.33c-.11.042-.22.089-.33.14-.082.035-.159.078-.239.117l-.124-.117-.063-.059a.303.303 0 0 0-.102-.301.374.374 0 0 0-.493.014.299.299 0 0 0 .015.45.376.376 0 0 0 .392.053l.11.11c-.034.02-.068.043-.102.063a5 5 0 0 0-.603.459l-1.07-.243a.317.317 0 0 0-.11-.176.365.365 0 0 0-.238-.086h-.013a.363.363 0 0 0-.243.1.299.299 0 0 0 .017.45.374.374 0 0 0 .25.086.36.36 0 0 0 .243-.102l.01-.009.913.205a4 4 0 0 0-.406.491h-1.21l-.021-.022a.36.36 0 0 0-.242-.109.37.37 0 0 0-.237.084.31.31 0 0 0-.11.22.297.297 0 0 0 .093.227.373.373 0 0 0 .492.019.31.31 0 0 0 .102-.155h.969a5 5 0 0 0-.269.506l-.628.089a.4.4 0 0 0-.039-.042.37.37 0 0 0-.239-.085h-.011a.358.358 0 0 0-.244.1.298.298 0 0 0 .016.449.373.373 0 0 0 .493-.015.297.297 0 0 0 .084-.141l.44-.062a5.6 5.6 0 0 0-.205.66l-.853.22a.33.33 0 0 0-.04-.049.358.358 0 0 0-.242-.102h-.012a.363.363 0 0 0-.237.084.308.308 0 0 0-.11.22.3.3 0 0 0 .092.227.374.374 0 0 0 .493.019.32.32 0 0 0 .093-.127l.752-.196c-.034.175-.056.321-.075.448l-.015.104c-.013.094-.021.184-.03.277l-.963.422a.37.37 0 0 0-.201-.059.363.363 0 0 0-.254.102.298.298 0 0 0 .016.448.375.375 0 0 0 .494-.014.3.3 0 0 0 .092-.241l.795-.343c0 .183 0 .365.014.55l-.133.046a.365.365 0 0 0-.245-.092.37.37 0 0 0-.236.085.299.299 0 0 0-.021.448.375.375 0 0 0 .494.019.31.31 0 0 0 .11-.205l.06-.02a5.5 5.5 0 0 0 .168.824l-.588.556a.374.374 0 0 0-.172-.042.367.367 0 0 0-.254.101.299.299 0 0 0 .016.45.375.375 0 0 0 .494-.015.299.299 0 0 0 .089-.268l.504-.479q.102.293.231.584l-.324.455a.36.36 0 0 0-.077-.009h-.011a.355.355 0 0 0-.243.1.298.298 0 0 0 .016.449.363.363 0 0 0 .204.085l.016.008.005-.007h.024a.363.363 0 0 0 .237-.096.297.297 0 0 0 .057-.359l.233-.33c.043.078.086.16.128.238v.011c.077.135.158.272.249.408l-.536.59h-.019a.367.367 0 0 0-.255.1.299.299 0 0 0 .016.45.373.373 0 0 0 .493-.015.3.3 0 0 0 .095-.227.295.295 0 0 0-.063-.172l.435-.476c.102.148.209.291.324.44.039.051.077.098.116.144l-.306.676a.37.37 0 0 0-.22.083.298.298 0 0 0-.02.449.36.36 0 0 0 .242.102.37.37 0 0 0 .251-.083.303.303 0 0 0 .11-.22.295.295 0 0 0-.089-.226l.241-.534a4.13 4.13 0 0 0 .637.55l-1.154.796.01.012a.385.385 0 0 0-.153-.032.367.367 0 0 0-.254.1.298.298 0 0 0 .015.449.365.365 0 0 0 .251.086.358.358 0 0 0 .243-.1.297.297 0 0 0 .08-.305l1.196-.831a5.2 5.2 0 0 1 .479.392l-.514.66a.4.4 0 0 0-.051 0 .363.363 0 0 0-.254.101.298.298 0 0 0 .016.448.375.375 0 0 0 .494-.014.298.298 0 0 0 .057-.39l.474-.604c.098.096.2.205.311.33s.206.225.313.351l-1.406.622a.38.38 0 0 0-.183-.046.363.363 0 0 0-.254.1.298.298 0 0 0 .015.449.375.375 0 0 0 .494-.014.297.297 0 0 0 .094-.228v-.031l1.447-.651c.068.082.14.167.209.253v.035h.022c.089.11.183.229.272.35l-.717.22a.374.374 0 0 0-.453.043.297.297 0 0 0 .015.449.374.374 0 0 0 .494-.015.297.297 0 0 0 .094-.227v-.009l.739-.22c.068.097.132.195.196.296l-.174.148a.4.4 0 0 0-.081-.008.363.363 0 0 0-.255.1.3.3 0 0 0-.094.227.304.304 0 0 0 .11.22.375.375 0 0 0 .494-.014.297.297 0 0 0 .06-.353l.089-.076a5.3 5.3 0 0 1 .325.66l-.738.066a.29.29 0 0 0-.062-.086.363.363 0 0 0-.256-.102.37.37 0 0 0-.237.084.303.303 0 0 0-.11.22.297.297 0 0 0 .092.229.375.375 0 0 0 .494.018.32.32 0 0 0 .072-.088l.846-.076a4.2 4.2 0 0 1 .184.817l-.606-.198a.31.31 0 0 0-.1-.158.374.374 0 0 0-.493.015.299.299 0 0 0 .015.45.375.375 0 0 0 .494-.015l.021-.023.69.229a3.4 3.4 0 0 1-.018.466v.028l-1.24-.099a.314.314 0 0 0-.102-.167.375.375 0 0 0-.494.014.297.297 0 0 0-.093.228.303.303 0 0 0 .11.22.37.37 0 0 0 .249.086.36.36 0 0 0 .243-.102l.014-.013 1.275.103c-.022.11-.048.22-.077.33l-1.1.298-.021-.023a.363.363 0 0 0-.257-.103.37.37 0 0 0-.236.084.299.299 0 0 0-.021.45.374.374 0 0 0 .243.102.367.367 0 0 0 .251-.085.304.304 0 0 0 .102-.158l.943-.254a4.84 4.84 0 0 1-.282.646l-.494.05-.025-.024a.374.374 0 0 0-.493.014.297.297 0 0 0 .016.449.363.363 0 0 0 .249.086.355.355 0 0 0 .233-.11.303.303 0 0 0 .088-.157l.24-.027a4.6 4.6 0 0 1-.44.596l-.65-.441a.301.301 0 0 0-.099-.311.37.37 0 0 0-.239-.086h-.001a.363.363 0 0 0-.244.102.298.298 0 0 0 .017.448.363.363 0 0 0 .249.086.36.36 0 0 0 .135-.028l.65.44a2.6 2.6 0 0 1-.202.187h-.007c-.065.054-.133.11-.202.159l-.035-.064a.297.297 0 0 0 .053-.179.3.3 0 0 0-.11-.22.374.374 0 0 0-.493.014.3.3 0 0 0-.095.228.306.306 0 0 0 .111.22.374.374 0 0 0 .249.086h.028l.045.084a2.68 2.68 0 0 1-.791.322l-.022-.479a.37.37 0 0 0 .086-.052.298.298 0 0 0 .019-.449.358.358 0 0 0-.242-.103h-.014a.363.363 0 0 0-.236.085.298.298 0 0 0-.021.449.37.37 0 0 0 .11.073l.026.524a2.86 2.86 0 0 1-.597-.007l.068-1.328a.39.39 0 0 0 .098-.066.299.299 0 0 0-.017-.45.37.37 0 0 0-.238-.086h-.011a.36.36 0 0 0-.244.101.297.297 0 0 0-.094.228.304.304 0 0 0 .11.22.34.34 0 0 0 .096.057l-.068 1.272a3.74 3.74 0 0 1-.734-.238l.245-.33h.012a.37.37 0 0 0 .244-.1.3.3 0 0 0-.016-.45.374.374 0 0 0-.492.016.298.298 0 0 0-.02.413l-.245.33c-.089-.043-.18-.093-.269-.144l.203-.958a.363.363 0 0 0 .237-.1.298.298 0 0 0-.015-.449.375.375 0 0 0-.494.014.298.298 0 0 0-.01.425l-.195.904-.089-.058h.047v-1.414a.35.35 0 0 0 .133-.08.298.298 0 0 0-.017-.449.367.367 0 0 0-.239-.086.363.363 0 0 0-.254.1.3.3 0 0 0-.094.228.306.306 0 0 0 .11.22.36.36 0 0 0 .061.042v.524a.28.28 0 0 1 .012.094.3.3 0 0 1-.012.068.31.31 0 0 1-.089.142.26.26 0 0 0 .025-.06.3.3 0 0 0 .013-.068.3.3 0 0 0-.013-.095.303.303 0 0 0-.08-.134.363.363 0 0 0-.242-.101h-.015a.363.363 0 0 0-.236.084.305.305 0 0 0-.11.188q-.079-.072-.155-.148l.21-.282a.363.363 0 0 0 .255-.099.3.3 0 0 0-.016-.45.37.37 0 0 0-.239-.086h-.011a.365.365 0 0 0-.243.101.297.297 0 0 0-.017.416l-.144.194a8 8 0 0 1-.491-.561l.55-.383a.37.37 0 0 0 .298-.098.298.298 0 0 0-.017-.449.363.363 0 0 0-.237-.085h-.012a.36.36 0 0 0-.243.1.296.296 0 0 0-.052.369l-.466.325c-.097-.124-.192-.258-.281-.385l.463-.706a.366.366 0 0 0 .248-.104.298.298 0 0 0-.017-.449.374.374 0 0 0-.493.015.297.297 0 0 0-.012.422l-.365.562a8.7 8.7 0 0 1-.466-.81l.172-.167a.372.372 0 0 0 .41-.067.298.298 0 0 0-.015-.449.365.365 0 0 0-.239-.086h-.012a.363.363 0 0 0-.243.101.298.298 0 0 0-.086.285l-.11.11c-.076-.168-.148-.331-.209-.499-.009-.02-.012-.035-.021-.054l.518-.371a.375.375 0 0 0 .423-.061.298.298 0 0 0-.015-.449.37.37 0 0 0-.239-.086h-.018a.367.367 0 0 0-.243.1.3.3 0 0 0-.088.278l-.433.313a3.96 3.96 0 0 1-.12-.564l.67-.558a.371.371 0 0 0 .344-.089.298.298 0 0 0-.016-.45.372.372 0 0 0-.493.015.3.3 0 0 0-.095.228.33.33 0 0 0 .029.116l-.481.396c-.013-.149-.022-.312-.034-.503l.27-.33a.373.373 0 0 0 .33-.092.298.298 0 0 0-.016-.448.363.363 0 0 0-.239-.087h-.011a.36.36 0 0 0-.243.1.3.3 0 0 0-.095.227.29.29 0 0 0 .036.129l-.055.067c0-.167-.014-.353-.017-.555l.418-.1a.356.356 0 0 0 .293.144.319.319 0 1 0 0-.635.348.348 0 0 0-.33.22l-.384.092c0-.121 0-.248-.009-.38l.009.015 1.013-.547a.367.367 0 0 0 .19.052.319.319 0 1 0-.348-.318v.035l-.866.462c0-.11 0-.21-.009-.322v-.261l.496-.465a.4.4 0 0 0 .09.011.319.319 0 1 0-.348-.318.31.31 0 0 0 .029.13l-.275.257c0-.23-.013-.475-.017-.736l.809-.134a.36.36 0 0 0 .29.141.319.319 0 1 0 0-.636.347.347 0 0 0-.33.22l-.77.129c0-.194-.009-.401-.017-.611l.061.043a.28.28 0 0 0-.015.091.35.35 0 1 0 .349-.318.37.37 0 0 0-.133.025l-.271-.191c0-.101 0-.202-.008-.307l.673-.607a.37.37 0 0 0 .136.026.319.319 0 1 0-.348-.318.29.29 0 0 0 .013.088l-.483.441c0-.082 0-.168-.008-.254l.387-.722h.028a.319.319 0 1 0-.349-.318.294.294 0 0 0 .061.179l-.159.291c-.009-.221-.013-.441-.021-.666l.252-.232a.39.39 0 0 0 .134.032.34.34 0 0 0 .37-.298.297.297 0 0 0-.088-.23.34.34 0 0 0-.154-.092l-.019-.02-.012.013a.4.4 0 0 0-.05-.007h-.021a.337.337 0 0 0-.349.298.26.26 0 0 0 .009.089l-.081.075c0-.121-.008-.238-.013-.351l1.1-.44a.37.37 0 0 0 .118.019.319.319 0 1 0-.349-.317.3.3 0 0 0 .015.088l-.901.361c-.014-.206-.03-.408-.052-.599l.275-.095a.363.363 0 0 0 .236.084.319.319 0 1 0-.348-.33l-.202.071a5.8 5.8 0 0 0-.089-.421l.96-.71h.039a.319.319 0 1 0-.34-.324.297.297 0 0 0 .048.16l-.788.583c-.043-.11-.089-.22-.141-.324l.096-.368a.33.33 0 0 0 .32-.317.351.351 0 0 0-.699 0 .304.304 0 0 0 .097.22l-.033.122a2.7 2.7 0 0 0-.308-.342h.022l.105-1.127a.322.322 0 0 0 .233-.299.351.351 0 0 0-.699 0 .312.312 0 0 0 .167.271l-.089.937a3.7 3.7 0 0 0-.336-.22l.051-.078a.33.33 0 0 0 .304-.316.351.351 0 0 0-.699 0 .304.304 0 0 0 .11.226l-.023.035a2.4 2.4 0 0 0-.235-.094l-.091-.725a.312.312 0 0 0 .149-.26.351.351 0 0 0-.698 0 .33.33 0 0 0 .252.306l.072.578a5 5 0 0 0-.487-.11l-.144-.289a.3.3 0 0 0 .081-.204.351.351 0 1 0-.352.318l.065.129a5.5 5.5 0 0 0-.573-.024l-.103-.622-.052-.281a.307.307 0 0 0 .122-.242.351.351 0 0 0-.699 0 .33.33 0 0 0 .285.312l.034.212.102.634a4.2 4.2 0 0 0-.447.046l.017-.154a.303.303 0 0 0 .11-.232.351.351 0 0 0-.698 0 .33.33 0 0 0 .271.31l-.016.131c-.068.012-.136.028-.205.043v.241a5.7 5.7 0 0 1 .568-.11l-.169.506a.33.33 0 0 0-.299.314.351.351 0 0 0 .699 0 .305.305 0 0 0-.11-.235l.208-.619c.132-.011.266-.017.4-.017l-.183.448a.33.33 0 0 0-.251.305.35.35 0 0 0 .697 0 .307.307 0 0 0-.147-.252l.199-.488a5 5 0 0 1 .517.055l-.186.323a.363.363 0 0 0-.19.056.315.315 0 0 0-.146.204.29.29 0 0 0 .055.237.35.35 0 0 0 .22.133.374.374 0 0 0 .261-.05.301.301 0 0 0 .092-.44l-.019-.03.22-.38c.119.028.237.061.352.099a.44.44 0 0 0-.078-.007.319.319 0 1 0 .35.318.29.29 0 0 0-.033-.134l.038-.072a3 3 0 0 1 .661.381l-.221.034a.37.37 0 0 0-.238-.086.319.319 0 1 0 .347.345l.372-.058a2.3 2.3 0 0 1 .272.337l-1.1.11a.365.365 0 0 0-.259-.105.319.319 0 1 0 0 .636.341.341 0 0 0 .344-.265l1.16-.11c.03.062.057.125.083.19l-.731.307a.363.363 0 0 0-.253-.1.319.319 0 1 0 .345.361l.73-.308c.015.054.03.11.043.166l-.395.289a.37.37 0 0 0-.123-.019.319.319 0 1 0 .35.316.29.29 0 0 0-.019-.1l.249-.181c.026.16.047.33.062.51l-.934.269a.363.363 0 0 0-.253-.1.319.319 0 1 0 0 .636.34.34 0 0 0 .346-.278l.863-.251c.011.157.019.321.026.492l-.17.024a.355.355 0 0 0-.317-.186.319.319 0 1 0 0 .636.354.354 0 0 0 .317-.176l.179-.019v.11c0 .096 0 .193.009.289l-1.398-.21a.344.344 0 0 0-.339-.241.319.319 0 1 0 0 .636.362.362 0 0 0 .28-.128l1.472.22v.076l-.203.09a.363.363 0 0 0-.274-.122.319.319 0 1 0 0 .636.345.345 0 0 0 .339-.241l.152-.065.003.16-.829.36a.37.37 0 0 0-.212-.067.319.319 0 1 0 .349.318v-.009l.692-.304c0 .133.008.262.011.389a.353.353 0 0 0-.31-.172.319.319 0 1 0 0 .634.37.37 0 0 0 .206-.06l.117.069.007.196-1.219-.155a.344.344 0 0 0-.339-.243.319.319 0 1 0 0 .635.359.359 0 0 0 .277-.126l1.292.164v.156l-.55.117a.362.362 0 0 0-.278-.128.319.319 0 1 0 0 .636.344.344 0 0 0 .337-.242l.494-.11c0 .175.008.343.012.506l-1.435-.023a.351.351 0 0 0-.33-.209.319.319 0 1 0 0 .636.354.354 0 0 0 .298-.154l1.472.022.009.388-.528-.143a.349.349 0 0 0-.331-.22.319.319 0 1 0 0 .636.36.36 0 0 0 .293-.144l.573.155c0 .123 0 .242.009.358v.039l-.887.22a.356.356 0 0 0-.3-.165.319.319 0 1 0 0 .636.352.352 0 0 0 .318-.188l.88-.22.007.275-1.931.253a.358.358 0 0 0-.305-.163.319.319 0 1 0 0 .635.351.351 0 0 0 .324-.199l1.917-.252c0 .156.008.303.012.44l-.131-.055a.303.303 0 0 0-.11-.22.36.36 0 0 0-.237-.086h-.007a.363.363 0 0 0-.243.1.298.298 0 0 0 .015.449.374.374 0 0 0 .466.01l.248.105.013-.025q0 .153.009.291l-.853-.025a.31.31 0 0 0-.096-.143.374.374 0 0 0-.493.014.299.299 0 0 0 .015.45.374.374 0 0 0 .493-.014.3.3 0 0 0 .032-.037l.913.032c0 .053 0 .11.007.154l-1.023.298a.44.44 0 0 0-.044-.045.367.367 0 0 0-.239-.086.36.36 0 0 0-.254.101.297.297 0 0 0 .015.448.374.374 0 0 0 .493-.014.3.3 0 0 0 .083-.133l.99-.288c.018.264.04.476.069.66l-.463-.063a.32.32 0 0 0-.084-.11.374.374 0 0 0-.492.014.299.299 0 0 0 .015.45.372.372 0 0 0 .493-.015.3.3 0 0 0 .053-.066l.533.073a4.3 4.3 0 0 0 .173.55c0 .015.012.026.016.043l-1.034.034a.34.34 0 0 0-.076-.095.375.375 0 0 0-.494.014.299.299 0 0 0 .017.45.374.374 0 0 0 .25.086.36.36 0 0 0 .243-.101.29.29 0 0 0 .061-.081l1.145-.039c.042.101.09.198.137.299l-.018.02.048.039c.046.093.093.187.145.28l-.942.018a.3.3 0 0 0-.069-.103.374.374 0 0 0-.493-.018.298.298 0 0 0-.021.449.363.363 0 0 0 .242.102.37.37 0 0 0 .251-.084.3.3 0 0 0 .065-.073l1.117-.022c.098.17.204.342.315.512l.014.008c.059.089.124.183.188.272l-.642.306-.006-.008a.37.37 0 0 0-.239-.086h-.011a.37.37 0 0 0-.244.1.299.299 0 0 0 .016.45.374.374 0 0 0 .493-.014.308.308 0 0 0 .093-.184l.706-.33c.137.179.278.35.423.517l-.341.105-.015-.015a.374.374 0 0 0-.493.015.3.3 0 0 0-.095.227.304.304 0 0 0 .11.22.375.375 0 0 0 .494-.014.308.308 0 0 0 .092-.178l.44-.134c.149.159.303.314.462.462l-.49.66a.35.35 0 0 0-.11-.017.365.365 0 0 0-.255.102.298.298 0 0 0 .017.448.373.373 0 0 0 .492-.014.305.305 0 0 0 .095-.228.29.29 0 0 0-.022-.101l.487-.66a8.1 8.1 0 0 0 .672.526l-.234.115a.38.38 0 0 0-.169-.04.37.37 0 0 0-.255.1.3.3 0 0 0 .016.45.374.374 0 0 0 .493-.014.297.297 0 0 0 .089-.271l.33-.162a5.8 5.8 0 0 0 .676.37l-.857.266a.374.374 0 0 0-.408.067.299.299 0 0 0 .016.45.374.374 0 0 0 .493-.014.298.298 0 0 0 .088-.276l1.065-.33c.072.026.141.05.213.069l-.153.279a.36.36 0 0 0-.085-.01h-.011a.36.36 0 0 0-.244.101.298.298 0 0 0 .016.448.375.375 0 0 0 .485-.007.297.297 0 0 0 .094-.228.29.29 0 0 0-.028-.11l.212-.385a3 3 0 0 0 .44.07l-.031.237a.33.33 0 0 0-.063.048.298.298 0 0 0 .015.449.375.375 0 0 0 .494-.014.298.298 0 0 0-.016-.449.35.35 0 0 0-.124-.068l.025-.187a2.75 2.75 0 0 0 .534-.051 3.3 3.3 0 0 0 .341-.089l.006.046a.37.37 0 0 0-.08.057.3.3 0 0 0 .016.45.374.374 0 0 0 .493-.014.3.3 0 0 0 .095-.228.306.306 0 0 0-.11-.22.36.36 0 0 0-.117-.066l-.017-.136a3 3 0 0 0 .633-.385l.043.557a.3.3 0 0 0-.059.045.299.299 0 0 0 .015.45.374.374 0 0 0 .49-.02.3.3 0 0 0 .094-.228.306.306 0 0 0-.11-.22.36.36 0 0 0-.136-.071l-.059-.757a4.1 4.1 0 0 0 .406-.44l.375.126a.1.1 0 0 0 0 .018.303.303 0 0 0 .111.22.374.374 0 0 0 .492-.015.305.305 0 0 0 .095-.227.31.31 0 0 0-.11-.22.37.37 0 0 0-.239-.086.374.374 0 0 0-.22.067l-.33-.11a4.84 4.84 0 0 0 .38-.634l.521.55a.29.29 0 0 0-.033.143.31.31 0 0 0 .11.22.374.374 0 0 0 .251.086.363.363 0 0 0 .243-.101.297.297 0 0 0 .094-.227.3.3 0 0 0-.11-.22.37.37 0 0 0-.238-.086h-.012a.4.4 0 0 0-.074.01l-.619-.652c.03-.063.055-.129.08-.195l.148.05a.303.303 0 0 0 .11.265.373.373 0 0 0 .492-.014.299.299 0 0 0-.015-.45l-.035-.026.322.168a.306.306 0 0 0 .11.201.373.373 0 0 0 .493-.016.298.298 0 0 0-.015-.448.372.372 0 0 0-.239-.086.365.365 0 0 0-.241.088l-.91-.471c.027-.128.047-.261.065-.388v-.048l.49.239a.308.308 0 0 0 .11.22.37.37 0 0 0 .251.086.363.363 0 0 0 .243-.1.298.298 0 0 0-.017-.449.36.36 0 0 0-.237-.087h.003a.365.365 0 0 0-.211.073l-.6-.293a3.6 3.6 0 0 0-.03-.529l.364.136a.314.314 0 0 0 .104.167.373.373 0 0 0 .493-.015.298.298 0 0 0-.016-.449.37.37 0 0 0-.238-.086h-.012a.367.367 0 0 0-.244.1l-.012.014-.486-.182a4.36 4.36 0 0 0-.213-.712l.895.247a.308.308 0 0 0 .11.211.375.375 0 0 0 .494-.014.298.298 0 0 0-.015-.449.375.375 0 0 0-.476 0l-1.148-.316a2.1 2.1 0 0 0-.11-.213l.645.149a.34.34 0 0 0 .088.121.375.375 0 0 0 .494-.014.3.3 0 0 0-.017-.45.366.366 0 0 0-.238-.086h-.012a.367.367 0 0 0-.243.1.33.33 0 0 0-.044.054l-.857-.198a2.4 2.4 0 0 0-.095-.151l.227-.096a.373.373 0 0 0 .453-.015.298.298 0 0 0 .021-.449.375.375 0 0 0-.494-.018.308.308 0 0 0-.11.22.1.1 0 0 0 0 .016l-.253.11a10 10 0 0 0-.401-.54l.995-.092.01.01a.372.372 0 0 0 .493-.016.297.297 0 0 0-.015-.449.37.37 0 0 0-.239-.085h-.011a.363.363 0 0 0-.243.1.308.308 0 0 0-.091.173l-1.101.102c-.154-.186-.311-.361-.456-.525l.375-.201a.377.377 0 0 0 .432-.057.3.3 0 0 0-.016-.45.374.374 0 0 0-.493.015.305.305 0 0 0-.095.228v.037l-.405.22a7.2 7.2 0 0 0-.623-.618l1.38-.466a.363.363 0 0 0 .22.083.37.37 0 0 0 .251-.084.298.298 0 0 0 .021-.449.371.371 0 0 0-.493-.018.308.308 0 0 0-.11.22l-1.51.508-.295-.22a10 10 0 0 1-.176-.128l.866-.19a.3.3 0 0 0 .055.06.363.363 0 0 0 .249.086.358.358 0 0 0 .245-.1.298.298 0 0 0-.017-.449.374.374 0 0 0-.493.015.31.31 0 0 0-.076.116l-1.1.244a4.4 4.4 0 0 1-.508-.541l.585.061a.33.33 0 0 0 .073.09.375.375 0 0 0 .494-.014.299.299 0 0 0-.017-.45.37.37 0 0 0-.237-.086h-.012a.36.36 0 0 0-.244.101.3.3 0 0 0-.061.083l-.812-.084a8.4 8.4 0 0 1-.479-.727l.35-.007a.32.32 0 0 0 .088.12.374.374 0 0 0 .493-.014.299.299 0 0 0-.015-.45.37.37 0 0 0-.239-.086h-.011a.363.363 0 0 0-.244.101.37.37 0 0 0-.047.056l-.524.01c-.069-.127-.128-.256-.188-.385l1.388.049a.3.3 0 0 0 .057.077.374.374 0 0 0 .493.018.305.305 0 0 0 .11-.22.297.297 0 0 0-.091-.228.363.363 0 0 0-.243-.102h-.017a.363.363 0 0 0-.236.085.32.32 0 0 0-.08.099l-1.501-.052a5.8 5.8 0 0 1-.248-.793l.22.101a.308.308 0 0 0 .11.22.375.375 0 0 0 .492-.026.298.298 0 0 0-.017-.449.363.363 0 0 0-.238-.086h-.011a.367.367 0 0 0-.22.079l-.405-.189a5.7 5.7 0 0 1-.064-.55l1.061.427a.31.31 0 0 0 .102.166.374.374 0 0 0 .493-.014.299.299 0 0 0-.016-.45.37.37 0 0 0-.238-.086h-.011a.363.363 0 0 0-.245.101l-.014.016-1.145-.463a5.8 5.8 0 0 1 .029-.599l.534.256a.308.308 0 0 0 .11.195.373.373 0 0 0 .493-.014.299.299 0 0 0-.015-.45.373.373 0 0 0-.486.007L10.854 7l-.089-.043c.03-.198.073-.455.145-.742l.127.097a.3.3 0 0 0 .089.342.374.374 0 0 0 .493-.015.299.299 0 0 0-.015-.45.367.367 0 0 0-.239-.085.37.37 0 0 0-.116.018l-.253-.191a4.8 4.8 0 0 1 .248-.627l.423.397a.299.299 0 0 0 .091.339.367.367 0 0 0 .249.086.36.36 0 0 0 .243-.101.298.298 0 0 0-.015-.448.367.367 0 0 0-.239-.086.42.42 0 0 0-.116.017l-.503-.465a5.1 5.1 0 0 1 .388-.583l.1.229-.008.007a.298.298 0 0 0 .016.449.373.373 0 0 0 .493-.014.299.299 0 0 0-.015-.45.363.363 0 0 0-.204-.084l-.168-.387a4.6 4.6 0 0 1 .401-.377l.22.929a.26.26 0 0 0-.043.036.3.3 0 0 0-.094.226.306.306 0 0 0 .11.22.374.374 0 0 0 .493-.014.299.299 0 0 0-.016-.45.36.36 0 0 0-.159-.077l-.257-1.07.168-.11a4.35 4.35 0 0 1 .623-.33l-.024.81a.35.35 0 0 0-.085.06.3.3 0 0 0 .017.45.37.37 0 0 0 .25.086.36.36 0 0 0 .243-.102.298.298 0 0 0-.016-.449.37.37 0 0 0-.11-.062l.024-.914.187-.066c.03-.008.06-.02.09-.028l.009.028.11.289a.33.33 0 0 0-.054.043.297.297 0 0 0 .016.449.365.365 0 0 0 .25.085.36.36 0 0 0 .243-.1.297.297 0 0 0-.015-.449.37.37 0 0 0-.144-.074l-.092-.243-.038-.102a5.4 5.4 0 0 1 .628-.11v.21l-.011.459a.37.37 0 0 0-.162.089.298.298 0 0 0 .017.449.374.374 0 0 0 .493-.014.299.299 0 0 0-.016-.45l-.034-.025.012-.508v-.237a6.4 6.4 0 0 1 .722 0l-.085.236-.251.7a.34.34 0 0 0-.126.078.304.304 0 0 0-.095.228.308.308 0 0 0 .11.22.375.375 0 0 0 .494-.014.298.298 0 0 0-.016-.449.26.26 0 0 0-.059-.041l.259-.723.077-.213a6 6 0 0 1 .619.086l-.021.124-.041.24a.363.363 0 0 0-.211.083.298.298 0 0 0-.02.449.374.374 0 0 0 .492.019.3.3 0 0 0 .11-.22.297.297 0 0 0-.089-.226l.06-.344.013-.066c.094.023.179.042.256.062l.088.025-.024.091.064-.075c.184.082.42.191.679.337l-.128.096a.298.298 0 0 0-.353 0 .373.373 0 0 0-.116.479.298.298 0 0 0 .441.104.37.37 0 0 0 .146-.208.4.4 0 0 0 .013-.11l.251-.194a4.8 4.8 0 0 1 .539.404l-.494.305a.298.298 0 0 0-.351 0 .374.374 0 0 0-.117.479.299.299 0 0 0 .44.104.37.37 0 0 0 .138-.228.35.35 0 0 0 .013-.116l.582-.364a4.95 4.95 0 0 1 .46.53l-.247.035v-.01a.298.298 0 0 0-.441-.102.373.373 0 0 0-.115.479.298.298 0 0 0 .44.103.363.363 0 0 0 .134-.174l.417-.06a4.3 4.3 0 0 1 .259.487l-.952-.028a.33.33 0 0 0-.023-.05.304.304 0 0 0-.195-.151.3.3 0 0 0-.242.048.374.374 0 0 0-.116.48.298.298 0 0 0 .44.102.36.36 0 0 0 .116-.133l1.1.035c.022.064.042.128.064.192a4.5 4.5 0 0 1 .159.69l-.776-.237a.35.35 0 0 0-.035-.098.297.297 0 0 0-.195-.151.3.3 0 0 0-.243.048.367.367 0 0 0-.149.22.36.36 0 0 0 .032.26.299.299 0 0 0 .44.104.36.36 0 0 0 .091-.089l.874.264c.007.068.009.131.015.199v.093h-.037l-.308.028a.33.33 0 0 0-.026-.064.299.299 0 0 0-.44-.103.367.367 0 0 0-.149.22.36.36 0 0 0 .032.261.297.297 0 0 0 .195.15.306.306 0 0 0 .243-.047.35.35 0 0 0 .11-.119l.26-.024.11-.01a5.3 5.3 0 0 1-.061.634l-.201-.06-.44-.132a.35.35 0 0 0-.043-.178.299.299 0 0 0-.44-.103.373.373 0 0 0-.11.479.298.298 0 0 0 .44.104l.034-.027.486.147.228.066a6.3 6.3 0 0 1-.187.697l-.206-.145-.608-.426a.37.37 0 0 0-.042-.143.304.304 0 0 0-.195-.151.308.308 0 0 0-.243.049.373.373 0 0 0-.115.479.298.298 0 0 0 .44.104.37.37 0 0 0 .054-.046l.629.44.186.13a6 6 0 0 1-.245.575l-.111-.053-.22-.103a.367.367 0 0 0-.025-.226.298.298 0 0 0-.428-.138.375.375 0 0 0-.147.47.306.306 0 0 0 .183.168.3.3 0 0 0 .241-.028l.317.149.061.031c-.048.083-.089.161-.128.229a3.3 3.3 0 0 1-.198.31l.184.157c.019-.026.054-.079.097-.146l.794.197a.33.33 0 0 0 .026.083.298.298 0 0 0 .427.139.373.373 0 0 0 .149-.471.298.298 0 0 0-.428-.139.35.35 0 0 0-.11.096l-.704-.177a7 7 0 0 0 .299-.592l.369.038a.44.44 0 0 0 .026.062.298.298 0 0 0 .44.102.376.376 0 0 0 .117-.479.298.298 0 0 0-.44-.103.35.35 0 0 0-.11.123l-.289-.035a5.4 5.4 0 0 0 .198-.561l.865.35a.35.35 0 0 0 .041.136.3.3 0 0 0 .194.15.306.306 0 0 0 .244-.047.37.37 0 0 0 .145-.208.36.36 0 0 0-.036-.272.298.298 0 0 0-.441-.103.36.36 0 0 0-.064.057l-.881-.355a6.3 6.3 0 0 0 .147-.744Z"/></svg>