<svg xmlns="http://www.w3.org/2000/svg" fill="#44739e" viewBox="0 0 24 24"><path d="M22 16.934a.428.428 0 0 0-.422-.422.481.481 0 0 0-.359.193.477.477 0 0 0-.358-.193.428.428 0 0 0-.422.422v.017a.606.606 0 0 0 .154.433c.022.03.049.062.079.1a4.02 4.02 0 0 1-.95.922.417.417 0 0 0-.36-.207.477.477 0 0 0-.358.193.478.478 0 0 0-.359-.193.427.427 0 0 0-.421.421v.017a.57.57 0 0 0 .115.379q-.124.028-.249.048a2.153 2.153 0 0 1-1.612-.274c.367-.354.366-.524.365-.667V18.1a.427.427 0 0 0-.421-.422.481.481 0 0 0-.359.193.6.6 0 0 0-.154-.135 2.9 2.9 0 0 1-.04-.337 2.72 2.72 0 0 1 .163-1.1c.022-.057.046-.11.07-.161.075.066.162.138.262.217l.039.031.039-.031c.744-.585.742-.809.741-.989v-.017a.41.41 0 0 0-.045-.183c.114-.061.232-.121.356-.183a7.6 7.6 0 0 0 1.167-.684c.084.077.184.161.3.255l.039.031.039-.031c.744-.585.742-.809.741-.989v-.015a.43.43 0 0 0-.1-.27 7.03 7.03 0 0 0 .757-1.245c.045.037.093.077.145.118l.04.031.039-.031c.743-.585.742-.809.741-.989v-.017a.428.428 0 0 0-.422-.422.4.4 0 0 0-.111.017 4.57 4.57 0 0 0 .07-1.367c.73-.578.729-.8.728-.979v-.017a.427.427 0 0 0-.422-.422.479.479 0 0 0-.358.193.488.488 0 0 0-.344-.192 4.75 4.75 0 0 0-.939-1.317c.352-.344.351-.511.351-.651v-.017a.427.427 0 0 0-.421-.422.481.481 0 0 0-.359.193.481.481 0 0 0-.358-.193.419.419 0 0 0-.356.2 6.14 6.14 0 0 0-.986-.489c-.125-.047-.255-.09-.387-.13a.563.563 0 0 0 .094-.347v-.016a.427.427 0 0 0-.422-.422.479.479 0 0 0-.358.193.481.481 0 0 0-.359-.193.428.428 0 0 0-.422.422v.094a6.25 6.25 0 0 0-1.07.006 5 5 0 0 0-.343.045.427.427 0 0 0-.419-.376.478.478 0 0 0-.359.193.476.476 0 0 0-.358-.193.427.427 0 0 0-.422.421v.017a.617.617 0 0 0 .163.446 2.32 2.32 0 0 0-.678.672 2.557 2.557 0 0 0-.393 1.322.407.407 0 0 0-.2-.055.427.427 0 0 0-.421.422V7.8c0 .18 0 .4.742.989l.039.031.03-.024.023.077a3.335 3.335 0 0 0 .755 1.344.42.42 0 0 0-.058.207v.017c0 .18 0 .4.741.989l.039.031.039-.031c.1-.079.189-.152.264-.219a2.6 2.6 0 0 1 .562.974c.019.061.037.124.053.187h-.041a.427.427 0 0 0-.421.422v.016c0 .163 0 .362.551.833a4.43 4.43 0 0 1-.25 1.1l-.033.087-.011.008a.39.39 0 0 0-.184 0 .423.423 0 0 0-.265-.1.427.427 0 0 0-.422.422v.017c0 .137 0 .3.329.631a2.77 2.77 0 0 1-.978.8v-.031a.427.427 0 0 0-.422-.422.481.481 0 0 0-.358.193.481.481 0 0 0-.359-.193.427.427 0 0 0-.421.422v.016a.58.58 0 0 0 .043.25 2 2 0 0 1-1.141-.493c.343-.338.343-.5.342-.643v-.017a.428.428 0 0 0-.422-.422.445.445 0 0 0-.31.14h-.049a.4.4 0 0 0-.046 0 8 8 0 0 1-.1-1.234v-.043c.638-.523.638-.734.637-.9v-.016a.428.428 0 0 0-.422-.422.418.418 0 0 0-.249.087c-.013-.5-.023-.942-.031-1.326.7-.562.7-.782.7-.958v-.017a.428.428 0 0 0-.422-.422.444.444 0 0 0-.307.137 7.1 7.1 0 0 0-.157-1.835c.5-.437.5-.628.5-.786v-.02a.427.427 0 0 0-.422-.422.479.479 0 0 0-.358.193.523.523 0 0 0-.251-.178 6.3 6.3 0 0 0-.8-1.075c.323-.325.322-.487.321-.623v-.017a.428.428 0 0 0-.421-.422.481.481 0 0 0-.359.193.481.481 0 0 0-.358-.193.412.412 0 0 0-.317.148A1.988 1.988 0 0 0 5.311 5 1.52 1.52 0 0 0 5 5.1a.41.41 0 0 0-.233-.072.478.478 0 0 0-.359.193.478.478 0 0 0-.359-.193.427.427 0 0 0-.421.421v.017c0 .139 0 .3.342.644a3.37 3.37 0 0 0-.434 1.313c0 .035-.006.069-.008.1a.4.4 0 0 0-.2-.052.428.428 0 0 0-.422.421v.017c0 .18 0 .4.742.989l.039.031.04-.029.048-.038a4.94 4.94 0 0 0 .525.918.437.437 0 0 0-.194.353v.017c0 .18 0 .4.741.989l.039.031.04-.031c.117-.092.215-.176.3-.251.115.109.214.188.306.261a2.61 2.61 0 0 1 .592.615.435.435 0 0 0-.241.38v.017c0 .18 0 .4.741.989l.04.031.039-.031.106-.086a3.8 3.8 0 0 1 .2 1.468.6.6 0 0 0-.058.063.481.481 0 0 0-.351-.195.428.428 0 0 0-.422.422v.016c0 .169 0 .376.609.883a2.9 2.9 0 0 1-.58.995.415.415 0 0 0-.348-.189.481.481 0 0 0-.359.193.481.481 0 0 0-.358-.193.427.427 0 0 0-.422.422v.016a.637.637 0 0 0 .189.478l.042.05a3.315 3.315 0 0 1-1.391.072 1 1 0 0 0 0-.105v-.017a.429.429 0 0 0-.422-.422.477.477 0 0 0-.358.193.481.481 0 0 0-.359-.193.429.429 0 0 0-.421.424v.017c0 .18 0 .4.741.989l.04.031.039-.031a2.21 2.21 0 0 0 .7-.737 3.46 3.46 0 0 0 1.549-.1 5 5 0 0 0 .392.338l.039.031.039-.031a3.53 3.53 0 0 0 .556-.516.636.636 0 0 0 .186-.473v-.016a.35.35 0 0 0-.008-.079 3.01 3.01 0 0 0 .641-1.048l.007.006.039.03.04-.026c.743-.586.742-.81.741-.99v-.016a.428.428 0 0 0-.422-.422.39.39 0 0 0-.143.028 3.99 3.99 0 0 0-.235-1.471c.512-.446.511-.639.51-.8v-.017a.428.428 0 0 0-.422-.422.477.477 0 0 0-.358.193.481.481 0 0 0-.359-.193h-.023l-.03-.043a2.79 2.79 0 0 0-.625-.65c-.088-.07-.182-.145-.291-.248.333-.332.333-.495.332-.633v-.017a.429.429 0 0 0-.422-.422.46.46 0 0 0-.33.161.36.36 0 0 0-.092-.034.436.436 0 0 0-.295-.127.46.46 0 0 0-.084.009 4.82 4.82 0 0 1-.552-.955c.572-.483.571-.685.57-.85v-.017a.427.427 0 0 0-.422-.421.476.476 0 0 0-.358.193l-.016-.018c0-.07 0-.14.012-.211a3.2 3.2 0 0 1 .4-1.221c.08.073.173.151.284.238l.039.031.039-.031c.744-.585.743-.809.741-.989v-.017a.426.426 0 0 0-.073-.232 1.44 1.44 0 0 1 .231-.072 1.837 1.837 0 0 1 1.25.24.42.42 0 0 0-.028.147v.017c0 .18 0 .4.741.989l.039.031.039-.031c.123-.1.225-.183.31-.261a6.24 6.24 0 0 1 .718.962.432.432 0 0 0-.345.415v.016c0 .18 0 .4.742.99l.039.03.039-.03.118-.1a7.57 7.57 0 0 1 .131 1.683.42.42 0 0 0-.257-.094.427.427 0 0 0-.422.422v.017c0 .177 0 .4.707.962.009.4.019.855.032 1.382a.45.45 0 0 0-.317-.147.427.427 0 0 0-.422.422v.016c0 .18 0 .4.741.989l.034.027a8.9 8.9 0 0 0 .069 1.062.37.37 0 0 0-.136-.026.427.427 0 0 0-.422.422v.017c0 .18 0 .4.741.989l.039.031.039-.031c.113-.089.208-.169.289-.242A2.186 2.186 0 0 0 11.2 17a2.5 2.5 0 0 0 .4.415c.06.051.126.106.2.165l.039.03.039-.03c.075-.06.142-.115.2-.167a1.5 1.5 0 0 0 .517-.632l.044-.019a2.875 2.875 0 0 0 1.068-.853c.084.076.182.159.3.251l.039.031.039-.031c.744-.585.743-.809.742-.989v-.017a.428.428 0 0 0-.422-.422.4.4 0 0 0-.063 0 4.52 4.52 0 0 0 .229-.985l.051.041.039.03.039-.03c.744-.586.742-.81.741-.99v-.016a.427.427 0 0 0-.422-.422.481.481 0 0 0-.358.193.59.59 0 0 0-.148-.131c-.022-.1-.048-.2-.079-.293a2.74 2.74 0 0 0-.594-1.032c.367-.354.367-.524.366-.666v-.017a.428.428 0 0 0-.414-.414.478.478 0 0 0-.359.193.476.476 0 0 0-.358-.193.405.405 0 0 0-.265.1 3.2 3.2 0 0 1-.709-1.27 4 4 0 0 1-.039-.136c.623-.514.622-.723.621-.893v-.018a.427.427 0 0 0-.422-.422.481.481 0 0 0-.358.193l-.003-.006a2.49 2.49 0 0 1 .367-1.371 2.175 2.175 0 0 1 .651-.639 4.24 4.24 0 0 0 .478.427l.037.035.039-.031c.625-.491.724-.728.739-.9.123-.02.243-.036.357-.047a6.2 6.2 0 0 1 1.09 0 2.1 2.1 0 0 0 .706.757l.039.03.039-.03A3.64 3.64 0 0 0 17 5.263c.146.042.29.089.428.141a6 6 0 0 1 .982.489.36.36 0 0 0-.009.08v.017c0 .18 0 .4.741.989l.039.031.039-.031c.109-.085.2-.163.28-.234a4.59 4.59 0 0 1 .893 1.238.433.433 0 0 0-.28.4V8.4c0 .174 0 .39.676.937a4.46 4.46 0 0 1-.089 1.511.7.7 0 0 0-.071.074.481.481 0 0 0-.359-.193.428.428 0 0 0-.422.422v.017c0 .155 0 .343.477.769a6.85 6.85 0 0 1-.753 1.249.417.417 0 0 0-.205-.054.481.481 0 0 0-.358.193.481.481 0 0 0-.359-.193.428.428 0 0 0-.421.422v.017c0 .137 0 .3.325.627a7.6 7.6 0 0 1-1.123.656c-.13.065-.257.129-.379.2a.408.408 0 0 0-.286-.115.478.478 0 0 0-.358.192.48.48 0 0 0-.359-.192.428.428 0 0 0-.422.421v.017c0 .142 0 .312.364.665a2.1 2.1 0 0 0-.1.213 2.85 2.85 0 0 0-.177 1.157c0 .094.015.188.029.28h-.039a.427.427 0 0 0-.421.422v.016c0 .18 0 .4.741.989l.039.031.039-.031c.1-.079.188-.151.263-.218l.01.008a1.97 1.97 0 0 0 1.225.352 3.4 3.4 0 0 0 .513-.04c.11-.017.22-.039.328-.066a3.84 3.84 0 0 0 .524.478l.039.031.039-.031c.744-.585.742-.809.741-.989v-.017a.4.4 0 0 0-.006-.069 4.13 4.13 0 0 0 1-.956 4.8 4.8 0 0 0 .4.349l.039.031.04-.031c.743-.585.742-.809.741-.989ZM2.781 18.321c-.656-.524-.655-.717-.654-.858v-.018a.3.3 0 0 1 .3-.3.411.411 0 0 1 .3.207l.055.1.056-.1a.414.414 0 0 1 .3-.207.3.3 0 0 1 .3.3v.018c-.003.137-.002.337-.657.858m2.716-.5c-.656-.524-.655-.716-.654-.858v-.017a.3.3 0 0 1 .3-.3.414.414 0 0 1 .3.207l.055.1.055-.1a.412.412 0 0 1 .3-.207.3.3 0 0 1 .295.3v.017c.004.147.005.337-.648.863Zm1.817-3.3a.3.3 0 0 1 .295.3v.017c0 .142 0 .335-.653.858-.656-.523-.655-.716-.654-.858v-.017a.3.3 0 0 1 .3-.3.411.411 0 0 1 .3.207l.055.1.056-.1a.414.414 0 0 1 .301-.2zm-1.007-2.672a.411.411 0 0 1 .3.207l.055.1.056-.1a.414.414 0 0 1 .3-.207.3.3 0 0 1 .295.295v.018c0 .141 0 .334-.653.858-.656-.524-.655-.717-.654-.858v-.018a.3.3 0 0 1 .301-.295M4.531 9.838a.414.414 0 0 1 .3.207l.055.1.055-.1s.12-.207.3-.207a.3.3 0 0 1 .295.295v.018c0 .141 0 .334-.654.858-.656-.524-.654-.717-.654-.858v-.018a.3.3 0 0 1 .303-.295M3.688 7.9l.055-.1a.414.414 0 0 1 .3-.207.3.3 0 0 1 .3.295v.018c0 .141 0 .334-.654.858-.656-.524-.655-.717-.654-.858v-.012a.3.3 0 0 1 .3-.295.414.414 0 0 1 .3.207zm.717-1.579c-.656-.524-.655-.717-.654-.858v-.015a.3.3 0 0 1 .3-.3.414.414 0 0 1 .3.207l.055.1.055-.1a.414.414 0 0 1 .3-.207.3.3 0 0 1 .295.3v.018c.004.141.005.334-.651.858Zm2.94.083c-.656-.524-.655-.717-.654-.858v-.015a.3.3 0 0 1 .3-.295.414.414 0 0 1 .3.207l.055.1.055-.1a.414.414 0 0 1 .3-.207.3.3 0 0 1 .299.295v.018c0 .141 0 .334-.655.858Zm1.5 2.121c-.656-.523-.655-.716-.654-.858v-.014a.3.3 0 0 1 .295-.3.414.414 0 0 1 .3.207l.055.1.055-.1a.409.409 0 0 1 .3-.207.3.3 0 0 1 .3.3v.017c.004.142.004.335-.648.858ZM8.58 10.59v-.018a.3.3 0 0 1 .3-.295.414.414 0 0 1 .3.207l.055.1.055-.1s.12-.207.3-.207a.3.3 0 0 1 .295.295v.018c0 .141 0 .334-.654.858-.65-.521-.648-.714-.648-.855zm.654 3.493c-.656-.524-.654-.716-.654-.858v-.017a.3.3 0 0 1 .3-.3.414.414 0 0 1 .3.207l.055.1.055-.1s.12-.207.3-.207a.3.3 0 0 1 .295.3v.017c.007.145.008.337-.648.861zm.29 2.481c-.656-.524-.654-.717-.654-.859v-.017a.3.3 0 0 1 .3-.295.414.414 0 0 1 .3.207l.055.1.055-.1s.119-.207.3-.207a.3.3 0 0 1 .295.295v.017c.007.145.008.338-.648.862zm2.318.886c-.656-.523-.655-.716-.654-.858v-.017a.3.3 0 0 1 .295-.3.414.414 0 0 1 .3.207l.055.1.055-.1a.409.409 0 0 1 .3-.207.3.3 0 0 1 .3.3v.025c.007.137.007.33-.648.853zm2.568-2.59a.3.3 0 0 1 .295.295v.017c0 .142 0 .335-.654.858-.656-.523-.654-.716-.654-.858v-.017a.3.3 0 0 1 .3-.295c.183 0 .3.205.3.206l.055.1.055-.1a.414.414 0 0 1 .306-.203zm.2-2.161.055.1.055-.1a.414.414 0 0 1 .3-.207.3.3 0 0 1 .3.3v.017c0 .142 0 .335-.654.858-.656-.523-.655-.716-.654-.858v-.017a.3.3 0 0 1 .295-.3.414.414 0 0 1 .307.208zm-1.835-2.279a.3.3 0 0 1 .3-.295.414.414 0 0 1 .3.207l.055.1.055-.1s.12-.207.3-.207a.3.3 0 0 1 .295.295v.018c0 .141 0 .334-.654.858-.656-.524-.654-.717-.654-.858zM11.9 7.791l.055-.1a.414.414 0 0 1 .3-.207.3.3 0 0 1 .3.3V7.8c0 .142 0 .334-.654.858-.656-.524-.655-.716-.654-.858v-.017a.3.3 0 0 1 .295-.3.414.414 0 0 1 .3.207zm1.53-1.956c-.656-.524-.654-.717-.654-.858v-.018a.3.3 0 0 1 .3-.295.414.414 0 0 1 .3.207l.055.1.055-.1s.12-.207.3-.207a.3.3 0 0 1 .295.295v.018c.007.141.008.334-.648.858zm2.97-.191c-.656-.523-.655-.716-.654-.858v-.017a.3.3 0 0 1 .295-.295c.184 0 .3.2.3.206l.055.1.055-.1a.413.413 0 0 1 .3-.206.3.3 0 0 1 .3.295v.017c.006.142.008.335-.651.858m2.773 1.205c-.656-.524-.655-.717-.654-.858v-.018a.3.3 0 0 1 .3-.295.414.414 0 0 1 .3.207l.055.1.055-.1a.412.412 0 0 1 .3-.207.3.3 0 0 1 .295.295v.018c.007.141.008.334-.648.858zM20.235 8.4v-.021a.3.3 0 0 1 .3-.295.414.414 0 0 1 .3.207l.054.1.056-.1a.414.414 0 0 1 .3-.207.3.3 0 0 1 .3.295V8.4c0 .141 0 .334-.654.858-.658-.527-.657-.72-.656-.858m-.265 2.767v-.017a.3.3 0 0 1 .3-.295.411.411 0 0 1 .3.207l.056.1.055-.1a.406.406 0 0 1 .3-.207.3.3 0 0 1 .3.295v.017c0 .142 0 .335-.654.858-.659-.525-.658-.719-.657-.861Zm-1.62 2.4v-.017a.3.3 0 0 1 .295-.295.414.414 0 0 1 .3.207l.055.1.055-.1a.409.409 0 0 1 .3-.207.3.3 0 0 1 .3.295v.018c0 .141 0 .334-.654.858-.653-.526-.652-.717-.651-.858Zm-2.6 1.8v-.018a.3.3 0 0 1 .295-.3c.184 0 .3.205.3.207l.055.1.055-.1a.414.414 0 0 1 .3-.207.3.3 0 0 1 .3.3v.018c0 .141 0 .334-.654.858-.654-.525-.653-.715-.652-.856Zm.314 3.609c-.656-.523-.655-.716-.654-.858V18.1a.3.3 0 0 1 .295-.3.414.414 0 0 1 .3.207l.055.1.055-.1a.412.412 0 0 1 .3-.207.3.3 0 0 1 .295.3v.017c.008.145.009.338-.647.861zm2.936.516c-.656-.524-.655-.717-.654-.858v-.018a.3.3 0 0 1 .295-.295.414.414 0 0 1 .3.207l.055.1.055-.1a.409.409 0 0 1 .3-.207.3.3 0 0 1 .3.295v.018c.008.141.009.334-.651.858m2.215-1.683c-.655-.523-.654-.716-.653-.858v-.017a.3.3 0 0 1 .3-.3c.183 0 .3.205.3.206l.055.1.056-.1a.409.409 0 0 1 .3-.206.3.3 0 0 1 .3.3v.017c.001.142.002.335-.654.858z"/></svg>