<svg xmlns="http://www.w3.org/2000/svg" viewBox="0 0 24 24"><path fill="#44739e" d="M23 17.421a.471.471 0 0 0-.464-.464.529.529 0 0 0-.395.212.525.525 0 0 0-.394-.212.471.471 0 0 0-.464.464v.019a.667.667 0 0 0 .169.476c.025.033.054.069.087.11a4.42 4.42 0 0 1-1.045 1.015.459.459 0 0 0-.396-.228.525.525 0 0 0-.394.212.526.526 0 0 0-.394-.212.47.47 0 0 0-.464.463v.019a.627.627 0 0 0 .127.417q-.136.03-.274.052a2.368 2.368 0 0 1-1.773-.301c.404-.389.402-.576.401-.734v-.025a.47.47 0 0 0-.463-.464.529.529 0 0 0-.395.212.66.66 0 0 0-.169-.148 3.2 3.2 0 0 1-.044-.371 2.99 2.99 0 0 1 .179-1.21c.024-.063.051-.121.077-.177.083.072.178.152.288.238l.043.035.043-.035c.819-.643.816-.889.815-1.087v-.019a.45.45 0 0 0-.049-.201c.125-.068.255-.134.391-.202a8.36 8.36 0 0 0 1.284-.752c.093.085.203.177.33.28l.043.034.043-.034c.818-.643.816-.89.815-1.088v-.016a.473.473 0 0 0-.11-.297 7.73 7.73 0 0 0 .833-1.37c.049.041.102.085.159.13l.044.034.043-.034c.817-.643.816-.89.815-1.088v-.018a.471.471 0 0 0-.464-.465.44.44 0 0 0-.122.019 5.03 5.03 0 0 0 .077-1.504c.803-.635.802-.88.801-1.076v-.019a.47.47 0 0 0-.464-.464.527.527 0 0 0-.394.212.537.537 0 0 0-.379-.211 5.23 5.23 0 0 0-1.033-1.449c.388-.378.387-.562.387-.716v-.019a.47.47 0 0 0-.464-.464.529.529 0 0 0-.394.212.529.529 0 0 0-.394-.212.461.461 0 0 0-.392.22 6.75 6.75 0 0 0-1.084-.538 7 7 0 0 0-.426-.143.62.62 0 0 0 .103-.382V4.04a.47.47 0 0 0-.464-.464.527.527 0 0 0-.394.212.529.529 0 0 0-.395-.212.471.471 0 0 0-.464.464v.103a6.9 6.9 0 0 0-1.177.007 5.5 5.5 0 0 0-.377.049.47.47 0 0 0-.461-.413.526.526 0 0 0-.395.212.524.524 0 0 0-.394-.212.47.47 0 0 0-.464.463v.019a.68.68 0 0 0 .179.49 2.55 2.55 0 0 0-.745.739 2.813 2.813 0 0 0-.433 1.455.45.45 0 0 0-.22-.061.47.47 0 0 0-.463.464v.019c0 .198 0 .44.816 1.088l.043.034.033-.026.026.084a3.67 3.67 0 0 0 .83 1.479.46.46 0 0 0-.064.227v.019c0 .198 0 .44.815 1.088l.043.034.043-.034a6.6 6.6 0 0 0 .291-.241 2.86 2.86 0 0 1 .618 1.071c.021.068.04.137.058.206h-.045a.47.47 0 0 0-.463.464v.018c0 .179 0 .398.606.916a4.87 4.87 0 0 1-.275 1.21l-.036.096-.012.009a.43.43 0 0 0-.203 0 .465.465 0 0 0-.291-.11.47.47 0 0 0-.465.464v.019c0 .15 0 .33.362.694a3.05 3.05 0 0 1-1.075.88v-.034a.47.47 0 0 0-.465-.465.529.529 0 0 0-.393.213.529.529 0 0 0-.395-.213.47.47 0 0 0-.463.465v.017a.64.64 0 0 0 .047.275 2.2 2.2 0 0 1-1.255-.542c.377-.372.377-.55.376-.707v-.019a.471.471 0 0 0-.464-.464.49.49 0 0 0-.341.154h-.054a.4.4 0 0 0-.051 0 8.8 8.8 0 0 1-.11-1.358v-.047c.702-.575.702-.807.701-.99v-.018a.471.471 0 0 0-.464-.464.46.46 0 0 0-.274.096c-.014-.55-.025-1.036-.034-1.459.77-.618.77-.86.77-1.053v-.019a.471.471 0 0 0-.465-.464.488.488 0 0 0-.337.15 7.8 7.8 0 0 0-.173-2.018c.55-.481.55-.691.55-.865v-.022a.47.47 0 0 0-.464-.464.527.527 0 0 0-.394.212.575.575 0 0 0-.276-.195 6.93 6.93 0 0 0-.88-1.183c.355-.357.354-.536.353-.685v-.019a.471.471 0 0 0-.463-.464.529.529 0 0 0-.395.212.529.529 0 0 0-.394-.212.453.453 0 0 0-.348.163 2.187 2.187 0 0 0-1.491-.283 1.67 1.67 0 0 0-.342.11.45.45 0 0 0-.256-.079.526.526 0 0 0-.395.212.526.526 0 0 0-.395-.212.47.47 0 0 0-.463.463v.019c0 .152 0 .33.376.708a3.71 3.71 0 0 0-.477 1.444c0 .039-.007.076-.009.11a.44.44 0 0 0-.22-.057.471.471 0 0 0-.464.463v.019c0 .198 0 .44.816 1.088l.043.034.044-.032.052-.042a5.43 5.43 0 0 0 .578 1.01.481.481 0 0 0-.213.388v.019c0 .198 0 .44.815 1.088l.043.034.044-.034c.128-.101.236-.194.33-.276.126.12.235.207.336.287a2.87 2.87 0 0 1 .651.676.479.479 0 0 0-.265.418v.019c0 .198 0 .44.815 1.088l.044.034.043-.034.117-.095a4.18 4.18 0 0 1 .22 1.615.7.7 0 0 0-.064.069.529.529 0 0 0-.386-.214.471.471 0 0 0-.464.464v.018c0 .186 0 .413.67.971a3.19 3.19 0 0 1-.638 1.095.457.457 0 0 0-.383-.208.529.529 0 0 0-.395.212.529.529 0 0 0-.394-.212.47.47 0 0 0-.464.464v.017a.7.7 0 0 0 .208.526l.046.055a3.65 3.65 0 0 1-1.53.079 1.1 1.1 0 0 0 0-.115v-.019a.472.472 0 0 0-.464-.464.525.525 0 0 0-.394.212.529.529 0 0 0-.395-.212.472.472 0 0 0-.463.466v.019c0 .198 0 .44.815 1.088l.044.034.043-.034a2.43 2.43 0 0 0 .77-.811 3.806 3.806 0 0 0 1.704-.11 5.5 5.5 0 0 0 .431.372l.043.034.043-.034a3.9 3.9 0 0 0 .612-.567.7.7 0 0 0 .204-.521v-.017a.4.4 0 0 0-.009-.087 3.31 3.31 0 0 0 .705-1.153l.008.007.043.033.044-.029c.817-.645.816-.891.815-1.089V15.1a.471.471 0 0 0-.464-.464.43.43 0 0 0-.157.031 4.39 4.39 0 0 0-.259-1.618c.563-.491.562-.703.561-.88v-.019a.471.471 0 0 0-.464-.464.525.525 0 0 0-.394.212.529.529 0 0 0-.395-.212h-.025l-.033-.047a3.07 3.07 0 0 0-.688-.715c-.096-.077-.2-.16-.32-.273.367-.365.367-.545.365-.696v-.019a.472.472 0 0 0-.464-.464.506.506 0 0 0-.363.177.4.4 0 0 0-.101-.038.48.48 0 0 0-.324-.139.5.5 0 0 0-.093.01 5.3 5.3 0 0 1-.607-1.051c.629-.531.628-.753.627-.935v-.019a.47.47 0 0 0-.464-.463.524.524 0 0 0-.394.213l-.018-.02c0-.077 0-.154.014-.232a3.52 3.52 0 0 1 .44-1.343c.088.08.19.166.312.261l.043.034.043-.034c.818-.643.817-.89.815-1.088v-.018a.47.47 0 0 0-.08-.255 1.6 1.6 0 0 1 .254-.08 2.02 2.02 0 0 1 1.375.264.46.46 0 0 0-.031.162v.019c0 .198 0 .44.815 1.088l.043.034.043-.034c.135-.11.247-.202.341-.287a6.86 6.86 0 0 1 .79 1.058.475.475 0 0 0-.38.456v.018c0 .198 0 .44.816 1.089l.043.033.043-.033.13-.11a8.33 8.33 0 0 1 .144 1.851.462.462 0 0 0-.283-.103.47.47 0 0 0-.464.464v.019c0 .194 0 .44.778 1.058.01.44.021.94.035 1.52a.495.495 0 0 0-.349-.162.47.47 0 0 0-.464.465v.017c0 .198 0 .44.815 1.088l.038.03a9.8 9.8 0 0 0 .075 1.168.41.41 0 0 0-.149-.029.47.47 0 0 0-.464.465v.018c0 .198 0 .44.815 1.088l.043.034.043-.034c.124-.098.228-.186.317-.266a2.405 2.405 0 0 0 1.48.594 2.75 2.75 0 0 0 .44.456c.066.057.139.117.22.182l.043.033.043-.033c.082-.066.156-.127.22-.184a1.65 1.65 0 0 0 .568-.695l.049-.021a3.16 3.16 0 0 0 1.175-.938c.092.083.2.175.33.276l.043.034.042-.034c.819-.644.818-.89.817-1.088v-.019a.471.471 0 0 0-.465-.464.44.44 0 0 0-.069 0 4.97 4.97 0 0 0 .252-1.083l.056.045.043.033.043-.033c.818-.645.816-.891.815-1.089v-.018a.47.47 0 0 0-.464-.464.529.529 0 0 0-.394.212.65.65 0 0 0-.163-.144c-.024-.11-.053-.22-.087-.322a3.01 3.01 0 0 0-.653-1.135c.404-.39.404-.577.403-.733v-.019a.471.471 0 0 0-.456-.455.526.526 0 0 0-.395.212.524.524 0 0 0-.394-.212.446.446 0 0 0-.291.11 3.52 3.52 0 0 1-.78-1.397 4 4 0 0 1-.043-.15c.685-.565.684-.795.683-.982v-.02a.47.47 0 0 0-.464-.464.529.529 0 0 0-.394.212l-.003-.006a2.74 2.74 0 0 1 .404-1.508 2.39 2.39 0 0 1 .716-.703 4.66 4.66 0 0 0 .526.469l.04.039.043-.034c.688-.54.797-.801.813-.99.135-.022.267-.04.393-.052a6.8 6.8 0 0 1 1.199 0 2.31 2.31 0 0 0 .776.833l.043.033.043-.033a4 4 0 0 0 .614-.568c.161.046.319.098.471.155a6.6 6.6 0 0 1 1.08.538.4.4 0 0 0-.01.088v.019c0 .198 0 .44.815 1.088l.043.034.043-.034c.12-.094.22-.179.308-.258a5.05 5.05 0 0 1 .982 1.362.476.476 0 0 0-.308.44v.019c0 .191 0 .429.744 1.031a4.9 4.9 0 0 1-.098 1.662.8.8 0 0 0-.078.081.529.529 0 0 0-.395-.212.471.471 0 0 0-.464.464v.019c0 .17 0 .377.525.846a7.54 7.54 0 0 1-.829 1.374.46.46 0 0 0-.225-.06.529.529 0 0 0-.394.212.529.529 0 0 0-.395-.212.471.471 0 0 0-.463.464v.019c0 .151 0 .33.357.69a8.36 8.36 0 0 1-1.235.721c-.143.072-.283.142-.417.22a.45.45 0 0 0-.314-.126.526.526 0 0 0-.394.211.528.528 0 0 0-.395-.211.471.471 0 0 0-.464.463v.019c0 .156 0 .343.4.731a2.3 2.3 0 0 0-.11.234 3.135 3.135 0 0 0-.195 1.273c0 .104.017.207.032.308h-.043a.47.47 0 0 0-.463.464v.018c0 .198 0 .44.815 1.088l.043.034.043-.034c.11-.087.207-.166.29-.24l.011.009a2.167 2.167 0 0 0 1.347.387 3.74 3.74 0 0 0 .564-.044c.121-.019.242-.043.361-.073a4.2 4.2 0 0 0 .577.526l.042.034.043-.034c.819-.643.817-.89.815-1.088v-.018a.44.44 0 0 0-.006-.076 4.54 4.54 0 0 0 1.1-1.052 5.3 5.3 0 0 0 .44.384l.043.034.044-.034c.817-.643.816-.89.815-1.088ZM1.859 18.947c-.722-.576-.72-.789-.719-.944v-.02a.33.33 0 0 1 .33-.33.452.452 0 0 1 .33.228l.06.11.062-.11a.455.455 0 0 1 .33-.228.33.33 0 0 1 .33.33v.02c-.004.151-.002.371-.723.944m2.988-.55c-.722-.576-.721-.788-.72-.944v-.018a.33.33 0 0 1 .33-.33.455.455 0 0 1 .33.227l.061.11.06-.11a.453.453 0 0 1 .33-.227.33.33 0 0 1 .325.33v.018c.004.162.005.371-.713.95Zm1.998-3.63a.33.33 0 0 1 .325.33v.019c0 .156 0 .368-.718.944-.722-.576-.721-.788-.72-.944v-.019a.33.33 0 0 1 .33-.33.452.452 0 0 1 .33.228l.061.11.061-.11a.455.455 0 0 1 .331-.22Zm-1.107-2.939a.452.452 0 0 1 .33.228l.06.11.062-.11a.455.455 0 0 1 .33-.228.33.33 0 0 1 .324.324v.02c0 .155 0 .368-.718.944-.722-.576-.721-.789-.719-.944v-.02a.33.33 0 0 1 .331-.324M3.784 9.616a.455.455 0 0 1 .33.227l.061.11.06-.11s.132-.227.33-.227a.33.33 0 0 1 .325.324v.02c0 .155 0 .367-.72.944-.721-.577-.719-.789-.719-.944v-.02a.33.33 0 0 1 .333-.324m-.927-2.132.06-.11a.455.455 0 0 1 .33-.228.33.33 0 0 1 .33.325v.02c0 .155 0 .367-.719.943-.722-.576-.721-.788-.72-.943v-.014a.33.33 0 0 1 .33-.324.455.455 0 0 1 .33.228Zm.788-1.737c-.721-.576-.72-.789-.719-.944v-.016a.33.33 0 0 1 .33-.33.455.455 0 0 1 .33.227l.061.11.06-.11a.455.455 0 0 1 .33-.227.33.33 0 0 1 .325.33v.02c.004.155.005.367-.717.943Zm3.235.091c-.722-.576-.721-.788-.72-.943v-.017a.33.33 0 0 1 .33-.324.455.455 0 0 1 .33.227l.061.11.06-.11a.455.455 0 0 1 .33-.227.33.33 0 0 1 .329.324v.02c0 .155 0 .367-.72.944Zm1.65 2.333c-.722-.575-.721-.787-.72-.943v-.016a.33.33 0 0 1 .325-.33.455.455 0 0 1 .33.228l.06.11.061-.11a.45.45 0 0 1 .33-.228.33.33 0 0 1 .33.33v.019c.004.156.004.368-.713.944Zm-.292 2.272v-.02a.33.33 0 0 1 .33-.324.455.455 0 0 1 .33.227l.061.11.06-.11s.132-.227.33-.227a.33.33 0 0 1 .325.324v.02c0 .155 0 .367-.72.944-.715-.573-.713-.786-.713-.941Zm.719 3.842c-.721-.576-.719-.787-.719-.944v-.018a.33.33 0 0 1 .33-.33.455.455 0 0 1 .33.227l.061.11.06-.11s.132-.227.33-.227a.33.33 0 0 1 .325.33v.018c.007.16.008.371-.713.948Zm.319 2.729c-.721-.576-.719-.788-.719-.945v-.018a.33.33 0 0 1 .33-.325.455.455 0 0 1 .33.228l.06.11.061-.11s.131-.228.33-.228a.33.33 0 0 1 .325.325v.018c.007.16.008.372-.713.949Zm2.55.975c-.721-.575-.72-.788-.719-.944v-.019a.33.33 0 0 1 .324-.33.455.455 0 0 1 .33.228l.061.11.06-.11a.45.45 0 0 1 .33-.228.33.33 0 0 1 .33.33v.028c.008.151.008.363-.712.938Zm2.825-2.849a.33.33 0 0 1 .324.324v.019c0 .156 0 .369-.719.944-.722-.575-.719-.788-.719-.944v-.019a.33.33 0 0 1 .33-.324c.201 0 .33.225.33.227l.06.11.061-.11a.455.455 0 0 1 .336-.224Zm.22-2.377.06.11.061-.11a.455.455 0 0 1 .33-.228.33.33 0 0 1 .33.33v.019c0 .156 0 .368-.719.944-.722-.576-.721-.788-.72-.944v-.019a.33.33 0 0 1 .325-.33.455.455 0 0 1 .337.229Zm-2.019-2.507a.33.33 0 0 1 .33-.325.455.455 0 0 1 .33.228l.061.11.06-.11s.132-.228.33-.228a.33.33 0 0 1 .325.325v.02c0 .155 0 .367-.719.944-.722-.577-.72-.789-.72-.944Zm-.962-2.892.06-.11a.455.455 0 0 1 .331-.228.33.33 0 0 1 .33.33v.018c0 .156 0 .367-.72.944-.721-.577-.72-.788-.719-.944v-.019a.33.33 0 0 1 .324-.33.455.455 0 0 1 .33.228Zm1.683-2.152c-.722-.576-.719-.788-.719-.943v-.02a.33.33 0 0 1 .33-.325.455.455 0 0 1 .33.228l.06.11.061-.11s.132-.228.33-.228a.33.33 0 0 1 .324.325v.02c.008.155.009.367-.713.943Zm3.267-.21c-.722-.575-.72-.787-.719-.943V4.04a.33.33 0 0 1 .324-.325c.203 0 .33.22.33.227l.061.11.06-.11a.454.454 0 0 1 .33-.227.33.33 0 0 1 .33.325v.019c.007.156.009.368-.716.943m3.05 1.326c-.721-.577-.72-.789-.719-.944v-.02a.33.33 0 0 1 .33-.324.455.455 0 0 1 .33.227l.06.11.061-.11a.453.453 0 0 1 .33-.227.33.33 0 0 1 .324.324v.02c.008.155.009.367-.712.944Zm1.169 1.706v-.023a.33.33 0 0 1 .33-.325.455.455 0 0 1 .329.228l.06.11.062-.11a.455.455 0 0 1 .329-.228.33.33 0 0 1 .331.325v.023c0 .155 0 .367-.72.944-.724-.58-.723-.792-.721-.944m-.292 3.044v-.019a.33.33 0 0 1 .33-.325.452.452 0 0 1 .33.228l.062.11.06-.11a.447.447 0 0 1 .33-.228.33.33 0 0 1 .33.325v.019c0 .156 0 .368-.719.943-.725-.577-.724-.79-.723-.947Zm-1.782 2.64v-.019a.33.33 0 0 1 .325-.325.455.455 0 0 1 .33.228l.06.11.061-.11a.45.45 0 0 1 .33-.228.33.33 0 0 1 .33.325v.02c0 .155 0 .367-.72.944-.718-.579-.717-.789-.716-.944Zm-2.86 1.98v-.02a.33.33 0 0 1 .325-.33c.202 0 .33.225.33.228l.06.11.061-.11a.455.455 0 0 1 .33-.228.33.33 0 0 1 .33.33v.02c0 .155 0 .367-.72.943-.719-.577-.718-.786-.717-.941Zm.345 3.97c-.721-.576-.72-.788-.719-.944v-.02a.33.33 0 0 1 .324-.33.455.455 0 0 1 .33.228l.061.11.06-.11a.453.453 0 0 1 .33-.228.33.33 0 0 1 .325.33v.019c.009.159.01.371-.712.947Zm3.23.567c-.722-.576-.72-.789-.719-.944v-.019a.33.33 0 0 1 .324-.325.455.455 0 0 1 .33.228l.061.11.06-.11a.45.45 0 0 1 .33-.228.33.33 0 0 1 .33.325v.019c.009.155.01.368-.716.944m2.437-1.851c-.721-.575-.72-.788-.719-.944v-.019a.33.33 0 0 1 .33-.33c.202 0 .33.226.33.227l.061.11.061-.11a.45.45 0 0 1 .33-.227.33.33 0 0 1 .33.33v.019c.001.156.003.369-.719.944Z"/></svg>