<svg xmlns="http://www.w3.org/2000/svg" fill="#44739e" viewBox="0 0 24 24"><path d="M21.4712 10.0655a3.63 3.63 0 0 1-.3867.9768 7.43 7.43 0 0 1-1.0393 1.3798 63 63 0 0 1-1.4422 1.4707.136.136 0 0 0-.0311.1466 8.28 8.28 0 0 1 .7082 3.1653 12.9 12.9 0 0 1-.2184 2.6375c-.2015.7561-.9466 1.2335-1.7177 1.1004a9.78 9.78 0 0 1-3.4977-1.4545 9 9 0 0 1-1.5847-1.2523l-.0204.015a17.5 17.5 0 0 1-4.3131 3.0907c-.9655.4806-2.1378.0868-2.6172-.8792a9.83 9.83 0 0 1-.2483-4.3416 20.3 20.3 0 0 1 .5088-2.1627c-.1357-.1208-1.3744-1.407-1.8018-1.9578-1.5263-1.9632-1.4653-2.7936-1.4653-2.7936a2.11 2.11 0 0 1 1.2374-1.6539 6.446 6.446 0 0 1 3.3919-.6648 6.66 6.66 0 0 1 2.1341.4912 7.18 7.18 0 0 1 1.7977 1.0569 8.55 8.55 0 0 1 1.3988 1.4137.204.204 0 0 1 0 .2551.198.198 0 0 1-.2496.0448 8.99 8.99 0 0 0-3.381-1.1858 5.85 5.85 0 0 0-1.6281.0488 5.22 5.22 0 0 0-1.1424.3596.064.064 0 0 0-.0312.0855l.0108.0163a12.26 12.26 0 0 0 2.8099 2.206c.9009.5495 1.4029 1.1397 1.1084 2.0352a10.8 10.8 0 0 0-.6417 2.4015 18.9 18.9 0 0 0 2.3594-1.7028c.7517-.5298 1.792-.3389 2.3065.4233a10.1 10.1 0 0 0 2.6741 2.5087 12.24 12.24 0 0 0-.6281-3.5276 1.0854 1.0854 0 0 1 .4518-1.2536 19.8 19.8 0 0 0 2.9441-2.6525c.2714-.3785.2334-.525-.213-.6784a6.62 6.62 0 0 0-3.822.0312.7164.7164 0 0 1-.9266-.407.64.64 0 0 1-.0448-.224 9.07 9.07 0 0 0-.6065-2.8857 6.59 6.59 0 0 0-1.2631-2.061.069.069 0 0 0-.099 0 7.9 7.9 0 0 0-.9755 1.3677 8.58 8.58 0 0 0-.7734 2.0975.153.153 0 0 1-.1207.0896.156.156 0 0 1-.1914-.1683A8.73 8.73 0 0 1 12.13 2.697c.1425-.175.1629-.2225.3433-.0922l.042.0244a7.326 7.326 0 0 1 2.16 2.624c.3546.7.6277 1.4383.814 2.2006a.079.079 0 0 0 .0964.0556 7.46 7.46 0 0 1 2.2685-.3052 9.06 9.06 0 0 1 1.6281.1668 3.4 3.4 0 0 1 .9497.35 2.0745 2.0745 0 0 1 1.038 2.346"/></svg>