<svg xmlns="http://www.w3.org/2000/svg" viewBox="0 0 24 24"><path fill="#44739e" d="M22.771 9.263 23 9.061l-.274-.312-.23.201-.596.527a4.95 4.95 0 0 0-.117-.709 5 5 0 0 0-.305-.894l.926-.812.229-.202-.274-.312-.229.201-.845.743a5.54 5.54 0 0 0-.907-1.198l.761-.668.23-.202-.274-.312-.23.202-.79.694a7.3 7.3 0 0 0-1.38-.957l.716-.628.23-.202-.271-.312-.23.201-.843.741a5.5 5.5 0 0 0-.384-.162 7.4 7.4 0 0 0-1.354-.362l.689-.605.229-.201-.274-.313-.229.203-.957.84a7.37 7.37 0 0 0-1.465-.014l.503-.44.229-.202-.281-.313-.229.201-1.003.88a3.9 3.9 0 0 0-1.198.492l.179-.301.157-.262-.359-.211-.155.261-.745 1.25.11.064a3.154 3.154 0 0 0-.44 1.967l-.203.179.263.299a6.2 6.2 0 0 0 .175.734 4.07 4.07 0 0 0 .386.897l-.202.176.274.313.16-.141a6.27 6.27 0 0 0 .847.88c.156.141.308.279.453.427l-.168.147.274.313.168-.148a2.93 2.93 0 0 1 .5.947 3.8 3.8 0 0 1 .152.703l-.295.259.274.312.053-.046a5.02 5.02 0 0 1-.309 1.715l-.023.062-.364.319.146.168a3.82 3.82 0 0 1-1.041 1.279l.283-.701.11-.284-.385-.154-.11.283-.484 1.21a3.33 3.33 0 0 1-1.812.22l.842-.739.229-.201-.274-.312-.23.202-1.051.921a2.05 2.05 0 0 1-.699-.426 1.75 1.75 0 0 1-.464-.746l1.004-.88.229-.201-.274-.313-.229.201-.838.736a10.3 10.3 0 0 1-.087-1.291q-.01-.33-.019-.645l.969-.851.229-.201-.274-.313-.229.202-.709.623c-.018-.666-.031-1.242-.042-1.739l.945-.829.229-.202-.274-.312-.229.201-.683.6v-.254c-.01-.459-.018-.833-.026-1.144l.853-.75.23-.202-.274-.312-.23.201-.597.526a4.14 4.14 0 0 0-.22-1.37 6 6 0 0 0-.096-.256l.848-.745.23-.201-.274-.312-.229.201-.748.66a7.35 7.35 0 0 0-.88-1.405l.99-.872.229-.201-.275-.312-.224.195-.99.866a5.12 5.12 0 0 0-1.39-1.128l.77-.678.228-.202-.268-.312-.229.201-.918.807a2.035 2.035 0 0 0-1.1-.095 1.9 1.9 0 0 0-.675.296l.149-.382.11-.284-.387-.15-.11.283-.528 1.337a3.94 3.94 0 0 0-.602 1.63l-.238.209.22.247a3.79 3.79 0 0 0 .542 1.764l-.064.056.275.312.011-.009a12.1 12.1 0 0 0 .739.97 5.06 5.06 0 0 0 .504.539l-.128.11.274.311.175-.153a3.01 3.01 0 0 1 .67.701 6.05 6.05 0 0 1 .585.99l-.211.186.274.312.104-.092a4.38 4.38 0 0 1 .252 1.937l-.307.269.232.264a4.18 4.18 0 0 1-.307.996l-.639.561.166.189a3.04 3.04 0 0 1-.566.517 3.15 3.15 0 0 1-.631.343l.499-.44L4.54 18l-.274-.312-.229.201-1.1.962a4.25 4.25 0 0 1-1.497-.106l.946-.832.23-.201-.275-.313-.229.202-1.1.962.059.069-.014-.006-.057.166a4.444 4.444 0 0 0 2.083.233l.133.151.262-.231a3.26 3.26 0 0 0 1.066-.492 3.17 3.17 0 0 0 .633-.589l1.036-.91.229-.201-.272-.315-.229.201-.164.143a4.7 4.7 0 0 0 .206-.821l.946-.831.229-.201-.276-.317-.229.201-.602.528a4.565 4.565 0 0 0-.298-1.895l.85-.747.229-.201-.274-.306-.228.201-.747.66a6.27 6.27 0 0 0-.581-.978 3.18 3.18 0 0 0-.679-.716l.788-.691.229-.201-.27-.318-.23.202-.835.734a4.84 4.84 0 0 1-.5-.534 11.6 11.6 0 0 1-.745-.977l.95-.835.229-.201-.275-.306-.229.201-.895.782a3.586 3.586 0 0 1-.506-1.686l.978-.858.229-.199-.274-.312-.229.202-.653.574a3.76 3.76 0 0 1 .55-1.366l.22.087.254-.648a1.85 1.85 0 0 1 .839-.453 1.826 1.826 0 0 1 .916.056l-.027.024.274.311.184-.161a4.42 4.42 0 0 1 1.025.734 7.08 7.08 0 0 1 1.523 2.111l-.209.185.274.313.11-.095c.024.063.047.126.069.19a4.36 4.36 0 0 1 .21 1.461l-.33.288.274.312.071-.062c.006.28.014.608.022.998l.009.401-.242.212.251.288c.012.509.026 1.1.044 1.78l-.22.19.228.257q.009.287.017.594a9.24 9.24 0 0 0 .11 1.421l-.103.09.17.193a1.96 1.96 0 0 0 .54.912 2.27 2.27 0 0 0 .935.521l.11.131.09-.079a3.51 3.51 0 0 0 2-.183l.301.121.142-.352a3.76 3.76 0 0 0 1.285-1.436l1.094-.962.23-.202-.274-.311-.23.201-.464.408a5.15 5.15 0 0 0 .238-1.694l.87-.77.23-.201-.274-.312-.23.202-.642.564a3.9 3.9 0 0 0-.143-.618 3.14 3.14 0 0 0-.535-1.01l.795-.698.229-.202-.274-.311-.229.201-.796.699c-.148-.153-.306-.295-.466-.44a6.05 6.05 0 0 1-.832-.865l.803-.706.229-.201-.274-.313-.229.202-.76.667a3.9 3.9 0 0 1-.353-.828 5.9 5.9 0 0 1-.183-.802l.947-.832.229-.201-.274-.312-.228.202-.722.633a2.944 2.944 0 0 1 .414-1.728l.099.058.33-.556a3.38 3.38 0 0 1 1.43-.707l.185.212.362-.318c.085-.011.169-.02.249-.028a7.2 7.2 0 0 1 1.35 0l.234.268.239-.209a7.44 7.44 0 0 1 1.459.376c.069.027.172.068.303.126l-.11.096.274.311.238-.21a7.1 7.1 0 0 1 1.389.949l-.173.152.274.312.202-.178a5.4 5.4 0 0 1 .904 1.2l-.116.102.274.312.032-.028a4.8 4.8 0 0 1 .274.813 4.84 4.84 0 0 1 .122.813l-.33.292.274.312.062-.055a5.5 5.5 0 0 1-.232 1.32l-.387.341.191.22a7.55 7.55 0 0 1-.667 1.273l-.56.491.11.129c-.192.241-.33.383-.352.407a5.6 5.6 0 0 1-.507.459l.243-.911.079-.295-.402-.11-.078.295-.374 1.397a10.8 10.8 0 0 1-.956.524c-.173.088-.341.172-.501.261l.206-.313.168-.255-.348-.229-.167.255-.801 1.219.045.028a2.29 2.29 0 0 0-.366.64 3.25 3.25 0 0 0-.207 1.228l-.274.24.274.312.052-.045a2.2 2.2 0 0 0 .674 1.283l-.182.159.274.312.275-.241a2.64 2.64 0 0 0 1.079.207 3.85 3.85 0 0 0 .585-.047l.07.081.133-.117a4.69 4.69 0 0 0 1.43-.55l-.015.057.4.11.143-.522a4.7 4.7 0 0 0 .99-1.043l.308.033.158-1.45.033-.302-.414-.045-.033.303-.14 1.298h-.008a4.5 4.5 0 0 1-.818.922l.163-.594.08-.295-.4-.11-.08.295-.303 1.1a4.58 4.58 0 0 1-1.216.55l.68-.598.229-.202-.274-.312-.228.201-1.1.963.064.073a2.87 2.87 0 0 1-1.381-.129l.676-.594.229-.202-.274-.312-.229.201-.781.687a2.048 2.048 0 0 1-.65-1.304l.888-.78.229-.201-.274-.311-.23.201-.642.564a3.01 3.01 0 0 1 .191-1.008 2.13 2.13 0 0 1 .35-.605l.156.102.373-.568a7.7 7.7 0 0 1 .802-.44 10.1 10.1 0 0 0 1.09-.61l.185.049.058-.22a5.8 5.8 0 0 0 .707-.614c.022-.023.157-.161.345-.396l.044.051 1.094-.962.251-.194-.274-.312-.23.201-.104.092a7.4 7.4 0 0 0 .421-.889l.99-.873.229-.201-.274-.313-.229.202-.47.412a5.52 5.52 0 0 0 .173-1.273Zm-.051-.44.206.235-.146.131-.207-.235Zm-.37-2.2.207.235-.15.131-.207-.235Zm-1.264-1.43.207.234-.15.132-.207-.235Zm-1.728-1.21.207.235-.15.131-.207-.235Zm-2.166-.701.207.235-.15.131-.207-.234Zm-2.2.074.207.235-.15.131-.205-.235Zm-3.756 13.456.206.235-.149.131-.207-.234Zm-1.485-1.444.206.235-.149.131-.206-.242ZM9.5 13.005l.205.235-.148.131-.207-.235Zm-.082-2.257.207.235-.149.131-.206-.242Zm-.133-1.865.207.236-.15.13-.202-.235Zm-.33-2.157.207.235-.15.131-.21-.235ZM8.04 4.794l.207.236-.15.132-.202-.23ZM6.161 3.543l.207.235-.15.131-.206-.235ZM4.26 17.771l.207.236-.149.13-.207-.235Zm-1.924-.299.207.235-.149.131-.207-.235Zm3.825-.961.207.234-.15.132-.206-.236Zm.714-1.822.207.235-.15.131-.205-.235Zm-.323-2.427.206.236-.148.134-.207-.235Zm-1.493-2.039.207.235-.15.131-.207-.235Zm-1.4-1.924.206.235-.149.131-.207-.234Zm-.698-2.068.206.241-.149.131-.206-.241Zm.185-2.302.292.11-.073.186-.292-.11Zm9.734 12.42.29.116-.07.185-.292-.117Zm2.174-1.465.206.234-.149.132-.207-.235Zm.369-2.364.207.235-.15.132-.206-.235Zm-.8-2.074.207.236-.148.132-.207-.236Zm-1.56-1.623.205.235-.148.131-.207-.235Zm-.623-2.107.207.236-.15.13-.205-.235Zm.13-2.564.268.161-.101.17-.269-.159Zm6.724 9.411.303.081-.052.191-.303-.08Zm2.627 3.478.311.034-.021.197-.311-.033Zm-1.167 1.531.302.082-.052.193-.303-.083Zm-1.006.84.207.236-.149.131-.207-.236Zm-2.009 0 .206.236-.149.131-.206-.236Zm-.818-1.709.207.235-.149.132-.207-.235Zm.469-2.453.261.173-.11.166-.262-.173Zm4.013-2.523.207.235-.15.131-.207-.236Zm1.036-1.98.207.235-.15.131-.206-.236Z"/></svg>