<svg xmlns="http://www.w3.org/2000/svg" viewBox="0 0 24 24"><path fill="#44739e" d="M1.893 5.235H1v13.523h.893v.007l9.83-.862V6.975l-9.83-1.733Zm.065.11 9.7 1.693v10.801l-9.7.834Zm8.548 12.412 1.001-.082v-1.132l-1.001.054Zm-1.197.099 1.001-.081v-1.168l-1.001.053Zm-1.195.101 1.001-.083V16.67l-1.001.053Zm-1.197.1 1.001-.083v-1.24l-1.001.054Zm-1.197.099 1.001-.083v-1.276l-1.001.054Zm-1.196.1 1-.084v-1.311l-1 .054Zm-1.196.098 1.001-.083v-1.345l-1.001.053Zm-1.197.1 1.001-.083v-1.382l-1.001.053Zm8.375-3.229v1.162l1.001-.052v-1.132Zm-1.197 1.223 1.001-.051V15.23l-1.001.019Zm-1.195.062 1.001-.052v-1.204l-1.001.022Zm-1.197.059 1.001-.05v-1.24l-1.001.021Zm-1.197.062 1.001-.052v-1.275l-1.001.021Zm-.196-1.301-1 .021v1.342l1-.052Zm-2.196 1.423 1.001-.052v-1.346l-1.001.021Zm-1.197.061 1.001-.051V15.38l-1.001.021Zm8.375-2.959v1.161l1.001-.017v-1.133Zm-1.197-.014v1.198l1.001-.018v-1.169Zm-.194 1.203v-1.205l-1.001-.012v1.234Zm-1.197.022v-1.24l-1.001-.012v1.27Zm-1.197.023v-1.277l-1.001-.01v1.304Zm-2.197.041 1-.02V13.8l-1-.012Zm-1.196.022 1.001-.019v-1.347l-1.001-.012Zm-1.197.023 1.001-.02v-1.383l-1.001-.01Zm8.375-2.692v1.163l1.001.013v-1.132Zm-.196 1.159v-1.167l-1.001-.044v1.198Zm-1.195-.015v-1.203l-1.001-.044v1.234Zm-1.197-.015v-1.241l-1.001-.043v1.269Zm-1.197-.017V12.32l-1.001-.044v1.306Zm-1.197-1.328-1-.043v1.341l1 .015Zm-2.196 1.282 1.001.014v-1.347l-1.001-.043Zm-1.197-.016 1.001.014v-1.383l-1.001-.043Zm8.375-2.421v1.163l1.001.046v-1.133Zm-1.197-.09v1.198l1.001.046v-1.168Zm-1.195-.09v1.233l1.001.046v-1.203Zm-1.197-.09v1.269l1.001.046v-1.239Zm-.196-.015-1.001-.075v1.304l1.001.046Zm-1.197-.09-1-.076v1.341l1 .045Zm-2.196 1.21 1.001.046v-1.346l-1.001-.076Zm-1.197-.054 1.001.045v-1.381l-1.001-.076Zm8.375-2.151v1.161l1.001.078V9.85Zm-.196 1.146V9.721l-1.001-.108v1.198ZM8.114 9.484v1.233l1.001.078V9.592Zm-1.197-.128v1.269l1.001.077V9.463ZM5.72 9.227v1.304l1.001.079V9.335Zm-.196-.021-1-.108v1.341l1 .077Zm-2.196 1.14 1.001.078V9.077l-1.001-.108Zm-1.197-.093 1.001.077V8.949l-1.001-.108Zm8.375-1.882v1.162l1.001.11V8.511Zm-.196-.027-1.001-.14v1.197l1.001.111Zm-1.195-.168-1.001-.139V9.27l1.001.11Zm-1.197-.167-1.001-.14v1.269l1.001.111Zm-1.197-.167-1.001-.14v1.305l1.001.11Zm-1.197-.167-1-.14v1.34l1 .11ZM3.328 8.744l1.001.11V7.508l-1.001-.14Zm-1.197-.132 1.001.111V7.34l-1.001-.139Zm9.376-1.44-1.001-.171v1.161l1.001.142Zm-1.197-.206-1.001-.171v1.197l1.001.142Zm-1.195-.205-1.001-.172v1.233l1.001.142Zm-1.197-.206-1.001-.172v1.269l1.001.142Zm-1.197-.206L5.72 6.178v1.304l1.001.141Zm-1.197-.205-1-.172v1.34l1 .142Zm-2.196.997 1.001.142V5.938l-1.001-.172Zm-1.197-.169 1.001.142V5.732l-1.001-.171Zm19.517 9.541h1.119v1.119h-1.119Zm-1.324 0h1.12v1.119h-1.12Zm-1.324 0h1.12v1.119H19Zm-1.323 0h1.12v1.119h-1.12Zm-1.323 0h1.12v1.119h-1.12Zm-1.324 0h1.12v1.119h-1.12Zm-1.323 0h1.12v1.119h-1.12Zm-1.323 0h1.12v1.119h-1.12Zm9.264-1.325h1.119v1.12h-1.119Zm-1.324 0h1.12v1.12h-1.12Zm-1.324 0h1.12v1.12H19Zm-1.323 0h1.12v1.12h-1.12Zm-1.323 0h1.12v1.12h-1.12Zm-1.323 0h1.119v1.12h-1.119Zm-1.324 0h1.12v1.12h-1.12Zm-1.323 0h1.12v1.12h-1.12Zm9.264-1.324h1.119v1.12h-1.119Zm-1.324 0h1.12v1.12h-1.12Zm-1.324 0h1.12v1.12H19Zm-1.323 0h1.12v1.12h-1.12Zm-1.323 0h1.12v1.12h-1.12Zm-1.323 0h1.119v1.12h-1.119Zm-1.324 0h1.12v1.12h-1.12Zm-1.323 0h1.12v1.12h-1.12Zm9.264-1.322h1.119v1.119h-1.119Zm-1.324 0h1.12v1.119h-1.12Zm-1.324 0h1.12v1.119H19Zm-1.323 0h1.12v1.119h-1.12Zm-1.323 0h1.12v1.119h-1.12Zm-1.323 0h1.119v1.119h-1.119Zm-1.324 0h1.12v1.119h-1.12Zm-1.323 0h1.12v1.119h-1.12Zm9.264-1.324h1.119v1.12h-1.119Zm-1.324 0h1.12v1.12h-1.12Zm-1.324 0h1.12v1.12H19Zm-1.323 0h1.12v1.12h-1.12Zm-1.323 0h1.12v1.12h-1.12Zm-1.323 0h1.119v1.12h-1.119Zm-1.324 0h1.12v1.12h-1.12Zm-1.323 0h1.12v1.12h-1.12Zm9.264-1.323h1.119v1.119h-1.119Zm-1.324 0h1.12v1.119h-1.12Zm-1.324 0h1.12v1.119H19Zm-1.323 0h1.12v1.119h-1.12Zm-1.323 0h1.12v1.119h-1.12Zm-1.323 0h1.119v1.119h-1.119Zm-1.324 0h1.12v1.119h-1.12Zm-1.323 0h1.12v1.119h-1.12Zm9.264-1.324h1.119V9.69h-1.119Zm-1.324 0h1.12V9.69h-1.12Zm-1.324 0h1.12V9.69H19Zm-1.323 0h1.12V9.69h-1.12Zm-1.323 0h1.12V9.69h-1.12Zm-1.323 0h1.119V9.69h-1.119Zm-1.324 0h1.12V9.69h-1.12Zm-1.323 0h1.12V9.69h-1.12Zm9.264-1.323h1.119v1.119h-1.119Zm-1.324 0h1.12v1.119h-1.12Zm-1.324 0h1.12v1.119H19Zm-1.323 0h1.12v1.119h-1.12Zm-1.323 0h1.12v1.119h-1.12Zm-1.323 0h1.119v1.119h-1.119Zm-1.324 0h1.12v1.119h-1.12Zm-1.323 0h1.12v1.119h-1.12Zm-.257-.233v10.861H23V7.015Zm10.802 10.789H12.198V7.086h10.731Z"/></svg>