<svg xmlns="http://www.w3.org/2000/svg" fill="#44739e" viewBox="0 0 24 24"><path d="m14.444 5.3.02-.365h-.255l-.313.113.022-1.669.261.052h.258l.02-.365-.256.005-.279.1.007-.519h-.347l-.012.648-.025.009.025.005-.185 14.149h.347v-.026l.455.091h.257l.02-.365h-.255l-.473.171.021-1.642.432.087h.257l.02-.365h-.255l-.45.164.021-1.629.409.082h.257l.02-.365h-.255l-.428.155.022-1.616.386.077.257-.005.02-.364h-.255l-.405.147.021-1.6.364.073.257-.005.02-.365h-.255l-.382.138.021-1.59.341.068h.257l.02-.365-.255.005-.359.13.021-1.578.318.064h.257l.02-.365h-.255l-.336.122.02-1.565.3.059zm-.174-.295h.123l-.012.231h-.124Zm-.009-1.866h.123l-.013.23h-.123zm.009 14.1h.123l-.012.231h-.124zm0-1.747h.123l-.012.231h-.124zm0-1.747h.123l-.012.231h-.124zm0-1.747h.123l-.012.23h-.124zm0-1.747h.123l-.012.23h-.124zm0-1.747h.123l-.012.23h-.124zm0-1.748h.123l-.012.231h-.124Zm5.83-2.835.02-.365h-.256l-.456.165V2.656h-.347l-.046 11.132h.3l.523.105h.258l.02-.365h-.256l-.5.181.006-1.437.4.081h.258l.02-.365h-.256l-.421.153.006-1.329.466.093h.258l.02-.365h-.256l-.486.176.007-1.652.459.092h.258l.02-.365h-.256l-.478.174.007-1.648.451.09h.258l.02-.365h-.256l-.471.171.006-1.631.444.089h.258l.02-.365h-.256l-.463.168.007-1.64.436.088zm-.174-.295h.123l-.013.231h-.123zm0 9.974h.123l-.013.231h-.123zm-.071-1.539h.123l-.013.231h-.123zm.071-1.446h.123l-.013.23h-.123zm0-1.747h.123l-.013.23h-.123zm0-1.747h.123l-.013.23h-.123zm0-1.748h.123l-.013.231h-.123zm1.996-.399.021-.365h-.256l-.278.1V3.173l.254.051.257-.005.021-.365h-.256l-.274.1v-.3h-.347v.423l-.031.012.031.006v1.731l-.027.01h.027V6.57l-.022.008h.022v1.737l-.018.006h.018v1.738l-.014.005h.014v1.741h-.009.009v4.832h.347v-.093l.287.057h.257l.021-.365h-.256l-.307.111v-1.269l.284.057h.257l.021-.365h-.256l-.3.11v-1.267l.28.056h.257l.021-.365h-.256l-.3.108v-1.547l.276.055h.257l.021-.365h-.256l-.295.107v-1.546l.271.055h.257l.021-.365h-.256l-.291.106V8.369l.267.054h.257l.021-.365h-.256l-.287.1v-1.54l.263.052h.257l.021-.364h-.256l-.282.1V4.868l.258.051zm-.173-.294h.123l-.013.23h-.123zm0-1.747h.123l-.013.23h-.123zm0 13.411h.123l-.013.23h-.123zm0-1.465h.123l-.013.231h-.123zm0-1.464h.123l-.013.231h-.123zm0-1.747h.123l-.013.231h-.123zm0-1.747h.123l-.013.231h-.123zm0-1.747h.123l-.013.231h-.123zm0-1.747h.123l-.013.23h-.123ZM18.277 3.5l.02-.365h-.256l-.473.172v-.66h-.348l-.006 3.957h.174l.631.127h.258l.02-.365h-.256l-.478.174V5.154l.456.091h.258l.02-.365h-.256l-.475.173V3.405l.453.091zm-.177-.291h.123l-.013.23h-.123zm0 3.231h.123l-.013.231h-.123zm0-1.484h.123l-.013.23h-.123Zm-7.5-1.827.02-.365h-.256l-.452.164v-.273h-.344l-.053 12.64h.347v-.03l.484.1h.258l.02-.365h-.256l-.5.183.007-1.662.477.1h.258l.02-.365h-.256l-.5.181.007-1.659.469.094h.258l.02-.364h-.256l-.489.178.007-1.654.462.092h.258l.02-.365h-.256l-.482.175.007-1.65.455.091.246-.005.02-.365h-.256l-.474.172.01-1.641.447.09h.258l.02-.365h-.256l-.469.171.007-1.641.44.088h.258l.02-.365h-.256l-.46.167.007-1.638.433.087zm-.174-.295h.123l-.013.231h-.123zm0 12.23h.123l-.013.231h-.123zm0-1.747h.123l-.013.231h-.123zm0-1.747h.123l-.013.23h-.123zm0-1.747h.123l-.013.23h-.123zm0-1.747h.123l-.013.23h-.123zm0-1.748h.123l-.013.231h-.123zm0-1.747h.123l-.013.231h-.123zm5.956-1.341.02-.364h-.255l-.413.15v-.375h-.347l-.032 7.465h.21l.56.112h.257l.02-.365h-.255l-.442.16.004-1.623.416.083h.257l.02-.365h-.255l-.435.157.007-1.623.408.082h.257l.02-.365h-.255l-.428.156.007-1.62.4.081h.257l.02-.365h-.255l-.42.153.007-1.615.393.078zm-.174-.294h.123l-.012.23h-.123zm0 6.988h.123l-.012.231h-.123zm0-1.747h.123l-.012.231h-.123zm0-1.747h.123l-.012.231h-.123zm0-1.747h.123l-.012.231h-.123ZM8.654 3.435l.02-.365h-.255l-.35.13v-.552h-.344L7.7 8.584h.228l.469.094h.258l.02-.365-.255.005-.37.134.007-1.587.343.069h.258l.02-.365h-.255l-.368.131.006-1.582.336.067h.258l.02-.365H8.42l-.355.129.007-1.579.328.066zM8.48 3.14h.123l-.012.231h-.124Zm0 5.242h.123l-.012.23h-.124Zm0-1.747h.123l-.012.23h-.124Zm0-1.748h.123l-.012.231h-.124ZM6.9 3.124l.02-.365h-.256l-.406.147V2.6h-.347l-.019 9.142h.173l.578.116h.258l.02-.365h-.256l-.424.155v-1.619l.4.081h.258l.02-.365h-.256l-.42.153V8.282l.4.079h.258L6.921 8h-.256l-.417.152V6.537l.393.079h.258l.02-.365h-.256l-.413.15V4.789l.39.078h.258l.02-.365h-.256l-.409.149v-1.61l.386.077zm-.173-.294h.123l-.013.23h-.123Zm0 8.735h.123l-.013.231h-.123Zm0-1.747h.123l-.013.231h-.123Zm0-1.747h.123l-.013.23h-.123Zm0-1.747h.123l-.013.23h-.123Zm0-1.747h.123l-.013.23h-.123ZM3.023 3.066l.02-.365h-.256l-.358.13v-.18h-.348l-.024 5.591h.347v-.004l.36.072h.258l.02-.365h-.256l-.38.138.007-1.593.353.071h.258l.02-.365h-.256l-.372.135.006-1.589.346.07h.258l.02-.365H2.79l-.365.132L2.427 3l.338.068zm-.174-.295h.123L2.959 3h-.123Zm0 5.242h.123l-.013.231h-.123Zm0-1.748h.123l-.013.231h-.123Zm0-1.747h.123l-.013.231h-.123Zm9.657-.597.02-.365h-.255l-.358.13.007-1.026h-.347l-.127 18.6h.174l.631.127h.258l.02-.365h-.255l-.477.173.011-1.647.446.09h.258l.02-.365h-.255l-.465.169.011-1.64.434.087h.258l.02-.365h-.255l-.453.164.011-1.633.422.085h.258l.02-.365h-.255l-.442.161.011-1.627.411.083h.258l.02-.365h-.255l-.43.157.011-1.621.4.08h.258l.02-.364h-.255l-.418.152.011-1.613.387.077h.258l.02-.365h-.255l-.406.148.011-1.607.375.075h.258l.02-.365h-.255l-.394.143.011-1.6.363.073h.258l.02-.365h-.255l-.382.139L11.9 5.6l.351.07h.258l.02-.365h-.255l-.37.134.011-1.586.339.068zm-.174-.295h.123l-.013.231h-.123zm0 17.471h.123l-.013.231h-.123zm0-1.747h.123l-.013.231h-.123zm0-1.747h.123l-.013.231h-.123zm0-1.747h.123l-.013.231h-.123zm0-1.747h.123l-.013.231h-.123zm0-1.747h.123l-.013.231h-.123zm0-1.747h.123l-.013.23h-.123zm0-1.747h.123l-.013.23h-.123zm0-1.747h.123l-.013.23h-.123zm0-1.748h.123l-.013.231h-.123ZM5.039 3.62l.02-.365h-.255L4.42 3.4l.01-.732h-.347l-.217 16.61h.347v-.049l.568.114h.258l.02-.365h-.255l-.588.213.022-1.706.546.109h.258l.02-.365h-.255l-.565.205.022-1.694.523.105h.258l.02-.365H4.81l-.542.2.022-1.681.5.1h.258l.02-.365h-.255l-.519.189.022-1.668.477.1h.258l.02-.365L4.8 12l-.5.18.021-1.655.455.091h.258l.02-.364h-.255l-.473.172.024-1.646.432.086h.258l.02-.365-.26.001-.45.163.021-1.629.409.082h.258l.02-.365h-.255l-.428.155.021-1.616.387.077h.258L5.059 5h-.255l-.4.147.021-1.6.364.073zm-.174-.295h.123l-.012.231h-.124Zm0 15.724h.123l-.012.231h-.124Zm0-1.747h.123l-.012.231h-.124Zm0-1.747h.123l-.012.231h-.124Zm0-1.747h.123l-.012.231h-.124Zm0-1.747h.123l-.012.231h-.124Zm0-1.747h.123l-.012.23h-.124Zm0-1.747h.123l-.012.23h-.124Zm0-1.747h.123l-.012.23h-.124Zm0-1.747h.123l-.012.227h-.124Z"/></svg>