<svg xmlns="http://www.w3.org/2000/svg" fill="#44739e" viewBox="0 0 24 24"><path d="M21.561 8.6936a6.46 6.46 0 0 0 .359-3.29l-.656-3.433h-.2l.67 3.5a6.06 6.06 0 0 1-.334 3.091 2.64 2.64 0 0 1-.681 1.027.373.373 0 0 0-.372-.373h-.994a.373.373 0 0 0-.372.373v.268a1.463 1.463 0 0 1-1.044-.7 14.7 14.7 0 0 1-1.008-3.9c-.047-.264-.1-.54-.149-.831a12.3 12.3 0 0 0-.686-2.445h-.422c.039.135.089.3.154.514.106.348.237.781.39 1.321a7.77 7.77 0 0 1-.477 4.273 2.475 2.475 0 0 1-.953 1.038v-.277a.373.373 0 0 0-.372-.373h-.994a.373.373 0 0 0-.372.373v.139a3.16 3.16 0 0 1-.835-.913c-1.062-1.668-.72-4.885-.576-6.107h-.253c-.02.173-.043.386-.071.654-.174 1.648-.5 4.714-1.338 5.453-.1.09-.2.169-.3.238v-.163a.373.373 0 0 0-.372-.373h-.991a.373.373 0 0 0-.372.373v.09a3 3 0 0 1-.227-.24c-1.087-1.276-.976-4.141-.922-5.519.008-.207.013-.371.015-.511h-.278v.452c.008 1.5.024 4.609-1.41 5.788l-.051.041v-.231a.373.373 0 0 0-.372-.373H3.7a.373.373 0 0 0-.373.373v.247c-.023-.02-.046-.04-.069-.062-1.008-.917-1.472-3.464-.611-6.235h-.2a9.77 9.77 0 0 0-.405 3.66 4.42 4.42 0 0 0 1.12 2.8c.059.053.115.1.171.147v.5h-.046a.165.165 0 0 0-.166.165v.559a.166.166 0 0 0 .166.166h-.031l-.016.039a5.437 5.437 0 0 0 .368 5.182c.255.385.552.7.663.7.134 0 .307-.221.429-.407a5.878 5.878 0 0 0 .5-5.477l-.017-.037h-.075a.166.166 0 0 0 .165-.166v-.561a.165.165 0 0 0-.165-.165h-.042v-.519c.048-.036.1-.074.146-.115a5.206 5.206 0 0 0 1.4-3.417c.008.11.017.221.028.331a5.21 5.21 0 0 0 .953 2.851 3.03 3.03 0 0 0 .348.35v.649H7.9a.166.166 0 0 0-.166.166v.558a.166.166 0 0 0 .166.166h-.032l-.016.039a5.44 5.44 0 0 0 .367 5.182c.256.385.553.7.663.7.134 0 .307-.221.429-.407a5.874 5.874 0 0 0 .5-5.476l-.016-.038h-.076a.166.166 0 0 0 .166-.166v-.558a.166.166 0 0 0-.166-.166h-.041v-.594a3.8 3.8 0 0 0 .4-.307c.64-.564.989-2.22 1.206-3.783a7.335 7.335 0 0 0 .791 3.735 3.305 3.305 0 0 0 .976 1.03v.618h-.041a.166.166 0 0 0-.166.166v.558a.166.166 0 0 0 .166.166h-.031l-.016.039a5.44 5.44 0 0 0 .367 5.182c.256.385.553.7.664.7.134 0 .307-.221.429-.407a5.876 5.876 0 0 0 .5-5.476l-.017-.038h-.075a.166.166 0 0 0 .166-.166v-.558a.166.166 0 0 0-.166-.166h-.041v-.5a2.67 2.67 0 0 0 1.1-1.159 6.61 6.61 0 0 0 .61-2.581 7.25 7.25 0 0 0-.107-1.959c-.154-.543-.286-.978-.392-1.327-.041-.135-.08-.264-.114-.379a11.44 11.44 0 0 1 .713 2.482c.053.291.1.567.149.83a14.9 14.9 0 0 0 1.037 3.991 1.653 1.653 0 0 0 1.2.816v.521h-.046a.166.166 0 0 0-.166.166v.558a.166.166 0 0 0 .166.166h-.031l-.016.039a5.436 5.436 0 0 0 .368 5.182c.255.385.552.7.663.7.134 0 .307-.221.429-.407a5.876 5.876 0 0 0 .5-5.476l-.017-.038h-.076a.166.166 0 0 0 .166-.166v-.558a.166.166 0 0 0-.166-.166h-.041v-.746a2.65 2.65 0 0 0 .842-1.2m-16.4 2.05-.461.7.047-.568.457-.2zm.1.105-.151 1.108-.375-.311.405-.613zm-.57.981.336.231.044.031-.015.02-.071.093-.285.384zm-.063-1.741-.047.544-.135-.188-.253-.355h.435zm-1.523 1.291.81-.249-.733.364-.019-.02-.023-.023-.057-.058.031-.008zm.625 1.359.1-.393.656.452-.336.131-.514.2zm-.019-.68-.381-.409.83.07.267.022-.635.4zm.489 1.956-.38.411-.332-.156zm-.779.145.166-.8.707.491zm.986-.164.021.05.267.649-.325-.1-.408-.122zm-.029-.25-.691-.5.482-.189.36-.141-.092.506zm-.478-1.512.644-.409v.855zm-.5-.7 1.168-.58-.015.677zm.962-.966.117.164-.8-.226-.389-.11.266-.088.5-.166zm-1.02-.479H3.8l-.513.17h-.009c.022-.05.04-.108.064-.17m-.242.73c.029-.105.062-.212.1-.32l.135.038 1.092.308-1.378.424zm-.154.742.036-.077.05.051.025.025.016.016-.045.049-.1.11c-.003-.057.004-.115.013-.174zm-.043.4.266-.282.463.5-.739.009c-.003-.079 0-.153.007-.229zm-.012.345.5-.007h.293l-.1.409-.1.4-.6-.594c.002-.075.002-.143.002-.21zm.014.407.268.267-.256-.134a.63.63 0 0 1-.017-.135zm.03.288.343.179h-.322c-.01-.061-.018-.121-.026-.181zm.048.3h.287l-.26.131zm.248.865a5.1 5.1 0 0 1-.191-.605l.391-.2-.168.813zm.133.316c-.015-.035-.031-.07-.047-.106l.018-.02.01-.012.073.035.248.117-.257.078zm.1.205.308-.094.05.377.048.364a4.47 4.47 0 0 1-.409-.645zm.511.28-.048-.368.738.239-.1.084-.538.467zm.3.793a.55.55 0 0 1-.094-.071l.133.055a.13.13 0 0 1-.038.015zm.319-.349a2 2 0 0 1-.178.235l-.286-.117.627-.594.025.156c-.067.126-.131.234-.182.319zm.385-.722H4.96l.06-.1a.7.7 0 0 1-.041.1m.286-.762-.439.707-.3-.735.825-.272c-.028.105-.051.205-.086.302zm.119-.444-.86.279.058-.315.094-.519.021.015v-.005l.165.106.542.351c-.004.031-.013.061-.02.094zm.048-.227-.659-.426.748-.218a5.8 5.8 0 0 1-.089.646zm.1-.776-.566.165-.165.048.4-.523.015-.02.032.009.3.08c-.011.083-.014.164-.019.243zm.009-.369-.148-.04.147-.05c-.002.032-.002.062-.002.092zm-.006-.22-.02.007-.246.083.137-1a5.15 5.15 0 0 1 .126.908zm-.3-1.437.029.035.01.027h-.009l-.343.14-.191.078.013-.149.043-.5h.15zm4.547.418-.462.7.048-.569.456-.2zm.1.1-.154 1.117-.376-.311.406-.614zm-.57.981.336.231.044.031-.016.021-.07.093-.294.388zm-.072-1.73-.047.544-.135-.189-.253-.355zm-1.523 1.288.809-.25-.732.364-.019-.019-.023-.024-.052-.058.031-.007zm.625 1.358.1-.393.656.452-.336.132-.514.2zm-.019-.68-.381-.408.83.069.267.023-.635.4zm.484 1.957-.381.41-.326-.156zm-.779.145.165-.8.708.492zm.986-.165.021.051.267.648-.326-.1-.408-.121zm-.029-.25-.691-.5.481-.188.361-.141-.092.505zm-.476-1.512.644-.408v.855zm-.5-.7 1.168-.58-.016.676zm.962-.967.117.164-.8-.226-.39-.109.267-.089.5-.166zm-1.013-.474h.455l-.513.166h-.009c.017-.05.039-.108.063-.166zm-.247.727c.029-.106.062-.212.1-.32l.135.038 1.091.307-1.378.425zm-.159.739.037-.077.05.051.025.026.016.016-.045.049-.1.111c.002-.057.009-.115.017-.176m-.042.4.266-.283.463.5-.739.009c0-.076.005-.15.01-.226m-.012.344.5-.006h.293l-.1.409-.1.4-.6-.594c.009-.073.009-.14.009-.208zm.014.407.268.267-.256-.134a2.4 2.4 0 0 1-.012-.132zm.03.288.343.18h-.317c-.01-.058-.018-.119-.026-.179zm.048.3h.287l-.26.131c-.009-.041-.017-.084-.027-.129zm.248.866a5.2 5.2 0 0 1-.191-.605l.39-.2-.167.813zm.133.315c-.016-.034-.031-.07-.047-.106l.018-.02.01-.011.073.034.247.117-.256.078c-.016-.028-.03-.058-.045-.09zm.1.205.308-.094.05.377.047.364a4.47 4.47 0 0 1-.403-.645zm.511.28-.048-.368.738.239-.1.084-.538.468zm.3.793a.46.46 0 0 1-.1-.074l.132.055a.12.12 0 0 1-.026.021zm.318-.349a1.9 1.9 0 0 1-.177.236l-.286-.118.626-.594.026.156a2.75 2.75 0 0 1-.183.322zm.385-.719-.02.005.061-.1c-.008.036-.021.065-.035.097zm.286-.762-.439.707-.3-.735.826-.271c-.023.104-.052.204-.081.301zm.129-.442-.86.28.058-.316.094-.518.021.014.165.107.542.35c-.011.025-.02.057-.02.083m.048-.227-.659-.426.748-.218a5.8 5.8 0 0 1-.093.645zm.1-.776-.566.165-.165.049.4-.524.015-.019.032.008.3.081q-.016.117-.023.24zm.009-.369-.157-.04.147-.049c.003.035.003.059.003.089zm-.007-.22-.019.007-.246.083.136-1a4.96 4.96 0 0 1 .122.91zm-.3-1.437.029.036.009.026H9.88l-.343.14-.191.078.013-.149.043-.5h.15zm5.043.987-.462.7.048-.569.457-.195zm.1.105-.157 1.111-.376-.311.406-.614zm-.57.981.336.231.044.031-.016.021-.07.093-.294.388zm-.069-1.737-.047.544-.135-.188-.253-.355h.435zm-1.523 1.288.809-.25-.732.364-.019-.019-.023-.024-.057-.058.031-.008zm.625 1.358.1-.393.656.452-.336.132-.514.2zm-.019-.68-.381-.408.83.069.267.023-.635.4zm.484 1.957-.381.41-.34-.156zm-.779.144.166-.8.707.492zm.986-.164.021.051.267.648-.326-.1-.407-.121zm-.029-.25-.691-.5.481-.188.361-.141-.092.505zm-.476-1.512.644-.408v.855zm-.5-.7 1.168-.579-.016.676zm.962-.966.117.164-.8-.226-.402-.111.266-.088.5-.166zm-1.013-.474h.455l-.527.166h-.009c.025-.051.047-.109.071-.167zm-.247.726c.029-.105.062-.211.1-.319l.135.038 1.091.307-1.378.424zm-.155.742.037-.077.05.051.025.025.016.016-.045.049-.105.11c-.003-.058.004-.116.012-.176zm-.042.4.266-.283.463.5-.739.009c-.008-.079-.005-.153 0-.228zm-.012.344.505-.006h.293l-.1.409-.1.4-.6-.594c-.008-.076-.008-.143-.008-.211zm.014.407.268.267-.256-.134c-.015-.046-.019-.086-.022-.135zm.03.288.343.18h-.317c-.02-.061-.028-.121-.036-.182zm.048.3h.287l-.26.131zm.248.865a5.1 5.1 0 0 1-.191-.605l.39-.2-.167.813zm.133.316c-.016-.035-.031-.07-.047-.106l.018-.02.01-.012.073.035.247.117-.256.078c-.025-.031-.04-.061-.055-.093zm.1.205.308-.094.05.377.047.364a4.47 4.47 0 0 1-.413-.648zm.511.28-.048-.368.738.239-.1.084-.538.468zm.3.793a.5.5 0 0 1-.1-.074l.132.055a.12.12 0 0 1-.032.019m.318-.349a1.9 1.9 0 0 1-.177.236l-.286-.118.627-.594.025.156a6 6 0 0 1-.193.319zm.385-.719-.02.005.061-.1zm.285-.762-.438.707-.3-.735.826-.272c-.033.102-.062.202-.092.299zm.12-.444-.86.28.058-.316.094-.518.021.014v-.006l.165.107.542.35c-.011.029-.017.063-.028.088zm.048-.227-.659-.426.748-.218a5.8 5.8 0 0 1-.093.645zm.1-.776-.566.165-.165.048.4-.523.015-.019.032.008.3.081q-.016.117-.023.239zm.009-.369-.148-.04.147-.049c-.006.029-.006.058-.006.088zm-.007-.22-.019.007-.246.083.136-1a4.95 4.95 0 0 1 .122.909zm-.3-1.437.029.036.009.026h-.008l-.343.14-.191.078.013-.149.043-.5h.15zm5.868 1.023-.461.7.047-.569.457-.2zm.1.105-.151 1.109-.376-.312.406-.613zm-.57 1.745v-.764l.336.231.044.031-.015.021-.071.093zm-.069-2.5-.047.544-.135-.188-.253-.355h.435zm-1.523 1.287.809-.249-.732.364-.019-.019-.023-.024-.057-.058.031-.008zm.625 1.359.1-.393.656.452-.336.132-.514.2zm-.019-.68-.381-.408.83.069.267.023-.635.4zm.484 1.957-.38.41-.332-.156zm-.779.144.166-.8.707.492zm.986-.164.021.051.267.648-.325-.1-.408-.121zm-.029-.25-.691-.5.482-.188.36-.142-.092.506zm-.476-1.512.644-.408v.855zm-.5-.7 1.168-.58-.015.676zm.962-.967.117.164-.8-.226-.389-.109.266-.089.5-.166zM19 11.6566h.455l-.513.17h-.009c.016-.054.038-.112.067-.17m-.247.726c.029-.105.062-.211.1-.319l.135.038 1.091.307-1.377.425zm-.155.742.037-.077.05.051.025.025.016.016-.045.049-.1.11c-.003-.057.004-.11.012-.174zm-.042.4.266-.283.463.5-.739.009c-.003-.078 0-.152.005-.227zm-.012.344.5-.007h.293l-.1.409-.1.4-.6-.594c.002-.074.002-.141.002-.209zm.014.407.268.267-.256-.134c-.01-.045-.013-.089-.017-.134zm.03.288.343.18h-.317c-.014-.055-.023-.12-.031-.181zm.048.3h.287l-.26.131zm.248.865a5.1 5.1 0 0 1-.191-.6l.391-.2-.168.813zm.133.316c-.016-.035-.031-.07-.047-.106l.018-.02.01-.012.073.035.247.117-.256.078a.7.7 0 0 1-.05-.092zm.1.2.308-.094.05.377.048.364a4.47 4.47 0 0 1-.409-.642zm.511.28-.048-.368.738.239-.1.084-.538.467zm.3.793a.5.5 0 0 1-.095-.074l.133.055a.13.13 0 0 1-.037.024zm.319-.349a2 2 0 0 1-.178.236l-.286-.118.627-.594.025.156c-.067.132-.135.24-.187.325zm.384-.719-.02.005.061-.1a.74.74 0 0 1-.04.1zm.286-.762-.439.707-.3-.735.822-.271a3.8 3.8 0 0 1-.082.3zm.119-.444-.86.28.058-.316.094-.518.021.014v-.005l.165.107.542.35c-.006.033-.012.064-.019.093zm.048-.227-.659-.426.748-.218a5.8 5.8 0 0 1-.088.649zm.1-.776-.566.165-.165.048.4-.523.015-.019.032.008.3.081q-.01.127-.018.245zm.009-.369-.148-.04.147-.049c-.001.035-.001.064-.001.094zm-.007-.22-.019.007-.246.083.137-1a5.05 5.05 0 0 1 .126.915zm-.3-1.437.029.036.01.026h-.009l-.343.14-.191.078.013-.149.043-.5h.15z"/></svg>