<svg xmlns="http://www.w3.org/2000/svg" viewBox="0 0 24 24"><path fill="#44739e" d="m22.366 17.532-.11-.688-.481.491-.696-.127.33.622-.165.317-.153.292.44-.069a4.59 4.59 0 0 1-1.663 1.32l-.11-.671-.482.491-.676-.129.33.621a3 3 0 0 1-.233.042 2.435 2.435 0 0 1-1.841-.317 1.54 1.54 0 0 1-.163-.156l.046-.348.626-.301-.634-.315-.07-.448-.039-.24-.236.241-.195.198a2.2 2.2 0 0 1-.018-.197 3.09 3.09 0 0 1 .185-1.253 2.4 2.4 0 0 1 .11-.235l.073-.011.496.505.092-.689.625-.299-.584-.279a7.3 7.3 0 0 1 .849-.476c.134-.067.272-.136.413-.211l-.056.11.687-.11.497.504.092-.688.625-.3-.633-.316c.13-.11.261-.231.391-.365a7.43 7.43 0 0 0 .941-1.249l.467.476.093-.688.626-.3-.634-.317-.031-.193a5.93 5.93 0 0 0 .457-1.912l.262.266.092-.687.626-.301-.634-.315-.11-.688-.345.351a1 1 0 0 0-.019-.082 4.96 4.96 0 0 0-.715-1.625V6.75l.625-.301-.632-.315-.11-.688-.482.491-.13-.024a6.97 6.97 0 0 0-1.452-1.089l.569-.273-.634-.317-.11-.687-.483.49-.694-.126.212.393a7.7 7.7 0 0 0-1.577-.349l-.55-.276-.11-.688-.473.479-.694-.128.309.574h-.014a4.356 4.356 0 0 0-2.023.66l-.044-.022-.11-.688-.482.49-.7-.116.33.621-.318.61.55-.085a3.144 3.144 0 0 0-.394 1.895l-.083.084-.695-.127.33.622-.318.61.689-.11.402.409a3.88 3.88 0 0 0 1.007 1.487l.234.435-.318.609.689-.11.496.505.038-.289a2.94 2.94 0 0 1 .416.83 4.03 4.03 0 0 1 .18 1.275l-.57-.103.335.621-.317.611.42-.067a5.1 5.1 0 0 1-.172.573 4.6 4.6 0 0 1-.281.621l-.035-.22-.482.491-.695-.126.34.614-.287.55a2.75 2.75 0 0 1-.377.209 3.08 3.08 0 0 1-.72.22l-.354-.176-.11-.687-.482.489-.695-.132.239.44a2.08 2.08 0 0 1-.863-.479 1.65 1.65 0 0 1-.252-.3l.016.016.092-.689.626-.3-.634-.316-.11-.687-.371.378a22 22 0 0 1-.021-.567c-.01-.339-.02-.66-.028-.959l.42.426.093-.687.626-.3-.634-.316-.11-.688-.423.432c-.015-.623-.026-1.146-.036-1.587v-.084l.257.26.092-.687.625-.3-.633-.316L8.936 9l-.269.277a4.32 4.32 0 0 0-.22-1.471l-.022-.073.016-.119.626-.295-.633-.315-.11-.689-.38.387A7.13 7.13 0 0 0 6.83 5.23l.618-.296-.629-.323-.11-.687-.482.49-.636-.116a2.182 2.182 0 0 0-1.422-.233 1.5 1.5 0 0 0-.161.041l-.09-.568-.482.49-.695-.126.33.621-.311.61a3.9 3.9 0 0 0-.496 1.078l-.054.059-.694-.126.334.625-.318.61.605-.095a3.85 3.85 0 0 0 .589 1.769l-.371-.067.33.621-.318.611.688-.11.497.505.047-.36.018.021a4.62 4.62 0 0 0 .8.788 3.2 3.2 0 0 1 .431.393l-.48-.088.33.623-.318.609.689-.11.496.504.048-.358a4.59 4.59 0 0 1 .485 1.87l-.052.052-.694-.126.33.621-.318.611.644-.102a3.663 3.663 0 0 1-.827 1.819l-.097-.608-.482.49-.695-.126.33.621-.22.427-.098.036a3.51 3.51 0 0 1-1.248.186l-.34-.186-.045-.023-.11-.687-.482.49L1 17.879l.336.622-.318.609.687-.11.497.505.092-.688.503-.241a3.59 3.59 0 0 0 1.312-.238l.521-.082.496.505.074-.55.017-.14.623-.302-.531-.265a3.766 3.766 0 0 0 .869-1.841l.382.389.093-.687.626-.3-.634-.316-.11-.689-.266.271a4.87 4.87 0 0 0-.605-1.996v-.03l.625-.301-.633-.315-.11-.688-.458.467a3.15 3.15 0 0 0-.563-.544 4.53 4.53 0 0 1-.77-.762l-.115-.145.012-.095.626-.3-.638-.316-.11-.689-.482.491-.096-.016a3.9 3.9 0 0 1-.638-1.727l.4.407.092-.689.626-.299-.634-.317-.11-.688-.146.149a3.65 3.65 0 0 1 .457-.834l.44-.069.497.505.091-.689.626-.299-.563-.282c.035-.01.071-.019.11-.027a2.104 2.104 0 0 1 1.455.292l.207.384-.317.61.688-.11.496.505.065-.481a7.08 7.08 0 0 1 1 1.357l-.653-.118.33.621-.317.611.688-.11.496.504.022-.166a6 6 0 0 1 .13 1.312l-.047.047-.696-.127.33.622-.318.61.689-.11.063.065.006.269c.009.447.02.982.036 1.62l-.581-.11.33.623-.318.609.606-.083c.008.321.018.66.029 1.026.006.232.013.453.025.66l-.636-.116.33.622-.317.609.688-.11.11.11a1.9 1.9 0 0 0 .502.802 2.303 2.303 0 0 0 1.069.55l-.285.55-.022.043.276-.044.411-.065.062.064.434.44.06-.44.033-.244.641-.295-.03-.015a2.95 2.95 0 0 0 1.13-.54l.368-.058.497.505.092-.688.625-.3-.634-.317-.03-.188a4.8 4.8 0 0 0 .399-.837 5.1 5.1 0 0 0 .193-.66l.085-.013.496.505.092-.688.626-.3-.633-.317-.11-.687-.434.44a4.16 4.16 0 0 0-.189-1.302 3.08 3.08 0 0 0-.55-1.021l.02-.157.626-.299-.634-.317-.11-.687-.482.49-.502-.091a3.71 3.71 0 0 1-.972-1.489l.06-.44.633-.3L12 7.557l-.11-.689-.232.237a2.904 2.904 0 0 1 .415-1.698l.449.457.092-.687.626-.301-.411-.204a4.24 4.24 0 0 1 1.816-.573l-.249.48.687-.11.496.505.093-.687.385-.185a7.54 7.54 0 0 1 1.859.421l-.318.61.687-.11.496.505.075-.559a6.82 6.82 0 0 1 1.217.88l-.252-.047.33.621-.318.609.689-.11.498.508.052-.39a4.77 4.77 0 0 1 .583 1.4c.014.061.027.121.038.181l-.684-.124.33.621-.318.609.688-.11.069.071a5.54 5.54 0 0 1-.346 1.744l-.016-.153-.482.491-.694-.126.33.621-.317.611.516-.082a7.04 7.04 0 0 1-.863 1.13c-.1.103-.201.198-.301.286l-.077-.484-.481.49-.696-.127.33.622-.117.226c-.22.124-.432.231-.635.33a7.4 7.4 0 0 0-.845.472l-.089-.557-.482.491-.695-.127.33.622-.298.611.408-.063c-.021.045-.041.092-.059.14a3.22 3.22 0 0 0-.201 1.32c0 .076.01.152.02.22l-.572-.104.33.623-.318.609.689-.11.496.504.017-.123c.027.026.055.05.084.074a2.237 2.237 0 0 0 1.392.4 3.85 3.85 0 0 0 .583-.047c.035 0 .07-.011.11-.017l-.214.409.688-.11.497.505.091-.688.626-.3-.457-.229a4.74 4.74 0 0 0 1.73-1.46l.497.504.091-.688.622-.299Zm-.54.676-.521.083.241-.462-.251-.464.519.094.365-.372.083.522.476.237-.47.22-.069.517Zm-2.486 2.173-.52.082.24-.462-.251-.464.519.095.365-.372.083.521.476.238-.47.22-.069.516Zm-3.433-1.472-.251-.465.521.095.364-.371.083.521.476.237-.47.225-.069.517-.373-.379-.521.082Zm.386-2.75-.249-.464.519.094.364-.371.083.521.476.238-.47.225-.068.516-.374-.379-.521.082Zm2.277-1.925.519.096.366-.372.082.521.476.238-.469.22-.07.517-.372-.38-.521.083.24-.462Zm2.135-1.98-.25-.464.519.094.365-.371.082.521.477.238-.47.225-.069.516-.373-.379-.522.082Zm1.053-2.763-.521.082.241-.462-.251-.464.519.095.365-.372.083.521.476.238-.47.22-.069.517Zm-1.19-2.69-.522.083.24-.462-.249-.465.519.095.364-.372.083.522.476.237-.47.22-.068.517ZM18.329 4.9l-.521.082.241-.462-.251-.464.519.094.365-.371.083.521.476.238-.469.22-.07.517Zm-3.203-.55-.521.081.241-.461-.251-.465.519.094.365-.37.083.52.476.238-.47.225-.069.517Zm-3.058.888-.52.082.24-.462-.251-.464.52.094.364-.371.084.521.475.237-.47.226-.069.516Zm-.235 3.377-.373-.378-.522.081.241-.462-.25-.464.519.095.364-.371.083.52.477.233-.47.226Zm1.993 1.329.084.521.475.238-.47.226-.069.515-.373-.379-.52.082.239-.462-.25-.464.52.095Zm.914 4.462-.521.082.241-.462-.251-.464.519.095.365-.372.083.521.476.238-.47.225-.069.516Zm-.791 1.899.475.238-.469.225-.069.516-.374-.379-.52.082.24-.462-.25-.464.519.095.369-.367Zm-2.215 1.334-.47.22-.069.515-.373-.378-.522.081.241-.462-.25-.464.519.095.365-.371.082.52ZM8.48 15.672l-.251-.464.519.094.366-.372.082.522.476.237-.469.22-.07.517-.373-.379-.521.082Zm-.025-2.713-.252-.47.519.096.365-.372.083.521.476.237-.47.226-.069.517-.373-.38-.521.082Zm-.229-2.97-.252-.47.519.095.364-.371.084.521.476.237-.47.226-.069.516-.373-.379-.521.082Zm-.33-2.31-.524.08.241-.462-.251-.464.52.095.365-.378.082.52.477.237-.47.233-.069.515ZM6.28 5.288l-.521.082.24-.462-.25-.464.519.095.365-.372.083.521.476.238-.472.225-.068.519ZM3.487 4.9l-.52.082.24-.462-.251-.464.519.094.365-.371.084.521.475.238-.47.22-.069.517ZM1.739 7.226l.241-.457-.251-.464.519.095.366-.372.082.522.476.237-.469.22-.07.517-.372-.381Zm1.715 1.633.083.521.476.237-.47.232-.069.516-.373-.384-.52.083.239-.462-.25-.464.519.094Zm2.108 3.366-.069.517-.372-.379-.522.082.241-.462-.251-.465.519.096.365-.372.083.521.475.238Zm.55 3.198-.522.082.241-.462-.254-.464.519.095.365-.371.083.521.476.237-.469.226-.07.516Zm-1 2.566-.068.516-.374-.379-.521.082.24-.462-.25-.464.52.095.364-.371.083.52.475.243Zm-2.454.52-.47.22-.069.516-.373-.376-.52.083.239-.462-.25-.464.52.094.365-.367.084.521Z"/></svg>