<svg xmlns="http://www.w3.org/2000/svg" fill="#44739e" viewBox="0 0 24 24"><path d="m21.424 16.784-.1-.625-.438.446-.632-.115.3.565-.15.288-.139.266.4-.063a4.174 4.174 0 0 1-1.512 1.2l-.1-.61-.438.446-.615-.117.3.565c-.07.015-.141.028-.212.038a2.214 2.214 0 0 1-1.673-.288 1.4 1.4 0 0 1-.149-.142l.042-.317.569-.273-.576-.287-.064-.407-.035-.218-.215.219-.177.18a2 2 0 0 1-.016-.179 2.81 2.81 0 0 1 .168-1.139 2.2 2.2 0 0 1 .1-.214l.066-.01.451.459.084-.626.568-.272-.531-.254a6.6 6.6 0 0 1 .772-.432c.122-.061.247-.124.375-.192l-.051.1.625-.1.452.458.083-.625.569-.273-.576-.287c.118-.1.237-.21.356-.332a6.75 6.75 0 0 0 .855-1.136l.425.433.084-.625.569-.273-.576-.288-.028-.176a5.39 5.39 0 0 0 .415-1.738l.238.242.084-.625.569-.273-.576-.287-.1-.625-.314.319a1 1 0 0 0-.017-.075 4.51 4.51 0 0 0-.65-1.477v-.031l.568-.273-.575-.287-.1-.625-.438.446-.118-.022a6.34 6.34 0 0 0-1.32-.99l.517-.248-.576-.288-.1-.625-.439.446-.631-.115.193.358a7 7 0 0 0-1.434-.318l-.5-.251-.1-.625L14.8 4l-.631-.116.281.522h-.013a3.96 3.96 0 0 0-1.839.6l-.04-.02-.1-.626-.438.446-.636-.106.3.565-.289.555.5-.078a2.858 2.858 0 0 0-.359 1.723l-.075.076-.632-.115.3.565-.289.555.626-.1.366.372a3.53 3.53 0 0 0 .915 1.352l.213.395-.289.554.626-.1.451.459.035-.263a2.67 2.67 0 0 1 .378.755 3.66 3.66 0 0 1 .164 1.159l-.519-.094.305.565-.288.555.382-.061a4.6 4.6 0 0 1-.157.521 4.15 4.15 0 0 1-.255.565l-.032-.2-.438.446-.632-.115.309.559-.261.5a2.5 2.5 0 0 1-.343.19 2.8 2.8 0 0 1-.654.2l-.322-.16-.1-.625-.438.445-.632-.12.217.4a1.89 1.89 0 0 1-.784-.436 1.5 1.5 0 0 1-.229-.273l.014.015.084-.626.569-.273-.576-.287-.1-.625-.338.344c-.008-.161-.014-.333-.019-.516-.009-.308-.018-.6-.025-.872l.382.388.084-.625.569-.273-.576-.287-.1-.625-.385.392c-.013-.566-.023-1.041-.032-1.442v-.077l.233.237.084-.625.568-.273-.575-.287-.1-.626-.245.252a3.93 3.93 0 0 0-.2-1.338l-.02-.066.015-.108.569-.268-.576-.287-.1-.626-.345.352A6.48 6.48 0 0 0 7.3 5.6l.562-.269-.572-.293-.1-.625-.438.446-.578-.106a1.984 1.984 0 0 0-1.293-.212 1.4 1.4 0 0 0-.146.038l-.082-.517-.438.446-.632-.115.3.565-.283.554a3.55 3.55 0 0 0-.451.98l-.049.054-.631-.115.304.569-.289.554.55-.086a3.5 3.5 0 0 0 .535 1.608l-.337-.061.3.565-.289.555.625-.1.452.459.043-.327.016.019a4.2 4.2 0 0 0 .727.716 2.9 2.9 0 0 1 .392.358l-.436-.08.3.566-.289.554.626-.1.451.458.044-.326a4.17 4.17 0 0 1 .441 1.7l-.048.048-.631-.115.3.565-.289.555.586-.093a3.33 3.33 0 0 1-.752 1.654l-.088-.553-.438.446-.632-.115.3.565-.2.388-.089.033a3.19 3.19 0 0 1-1.135.169l-.309-.169-.041-.021-.1-.625-.438.446L2 17.1l.305.565-.289.554.625-.1.452.459.083-.626.458-.219a3.26 3.26 0 0 0 1.192-.216l.474-.075.451.459.067-.5.016-.127L6.4 17l-.483-.241a3.424 3.424 0 0 0 .79-1.674l.348.354.084-.625.569-.273-.576-.287-.1-.626-.242.246a4.43 4.43 0 0 0-.55-1.814v-.028l.568-.273-.575-.287-.1-.625-.417.424a2.86 2.86 0 0 0-.511-.494 4.12 4.12 0 0 1-.7-.693L4.4 9.952l.011-.086.569-.273-.58-.287-.1-.626-.438.446-.087-.015a3.544 3.544 0 0 1-.58-1.57l.363.37.084-.626.569-.272-.576-.288-.1-.625-.133.135a3.32 3.32 0 0 1 .415-.758l.4-.063.452.459.083-.626.569-.272-.512-.256c.032-.009.065-.018.1-.025a1.913 1.913 0 0 1 1.323.266l.188.349-.288.554.625-.1.451.459.059-.437a6.44 6.44 0 0 1 .909 1.234l-.593-.108.3.565-.288.555.625-.1.451.459.02-.151a5.46 5.46 0 0 1 .118 1.192l-.043.043-.632-.115.3.565-.289.555.626-.1.057.059.006.244c.008.407.018.893.032 1.473l-.528-.1.3.566-.289.554.551-.075c.007.291.016.6.026.932.006.211.012.412.023.6l-.578-.105.3.565-.288.554.625-.1.1.1a1.73 1.73 0 0 0 .457.729 2.094 2.094 0 0 0 .971.5l-.259.5-.02.039.251-.04.374-.059.056.058.395.4.054-.4.03-.222.583-.268-.027-.013A2.68 2.68 0 0 0 13 16.379l.335-.053.451.459.084-.625.568-.273-.576-.288-.027-.171a4.35 4.35 0 0 0 .362-.761 4.6 4.6 0 0 0 .176-.6l.077-.012.451.459.084-.625.569-.273-.576-.288-.1-.625-.394.4a3.78 3.78 0 0 0-.172-1.183 2.8 2.8 0 0 0-.5-.929l.018-.142.569-.272-.576-.288-.1-.625-.438.446-.457-.083a3.37 3.37 0 0 1-.883-1.354l.054-.4.576-.273L12 7.716l-.1-.626-.211.215a2.64 2.64 0 0 1 .377-1.544l.409.416.083-.625.569-.273-.373-.186a3.856 3.856 0 0 1 1.651-.521l-.227.437.625-.1.451.459.084-.625.35-.168a6.85 6.85 0 0 1 1.69.383l-.289.554.625-.1.451.459.068-.508a6.2 6.2 0 0 1 1.106.8l-.229-.043.3.565-.289.554.626-.1.453.461.047-.354a4.34 4.34 0 0 1 .53 1.273c.013.055.025.11.035.164l-.622-.113.3.565-.289.554.625-.1.063.064a5.04 5.04 0 0 1-.314 1.586l-.015-.139-.438.446-.631-.115.3.565-.288.555.469-.074a6.4 6.4 0 0 1-.785 1.027c-.091.094-.182.18-.273.26l-.07-.44-.438.446-.632-.116.3.566-.107.205c-.2.113-.392.21-.577.3a6.7 6.7 0 0 0-.768.429l-.081-.506-.438.446-.632-.115.3.565-.271.556.371-.058c-.019.041-.037.084-.054.128a2.93 2.93 0 0 0-.182 1.2c0 .069.009.138.018.2l-.52-.095.3.566-.289.554.626-.1.451.458.015-.112c.025.024.05.046.077.068a2.034 2.034 0 0 0 1.265.363 3.5 3.5 0 0 0 .53-.042c.032 0 .064-.01.1-.016l-.194.372.625-.1.452.459.083-.625.569-.273-.416-.208a4.31 4.31 0 0 0 1.573-1.328l.452.459.083-.626.565-.272Zm-.491.615-.474.075.219-.42-.228-.422.472.086.332-.338.075.474.433.216-.427.2-.063.47zm-2.26 1.975-.473.075.218-.42-.228-.422.472.086.332-.338.075.474.433.216-.427.2-.063.469zm-3.121-1.338-.228-.423.473.087.331-.338.076.474.432.215-.427.205-.063.47-.339-.345-.473.075zm.351-2.5-.227-.422.472.086.331-.338.076.474.432.216-.427.205-.062.469-.34-.345-.473.075zm2.07-1.75.472.087.332-.338.075.474.433.216-.427.2-.063.47-.339-.345-.473.075.218-.42zm1.941-1.8-.228-.422.472.086.332-.338.075.474.433.216-.427.205-.063.469-.339-.345-.474.075zm.957-2.512-.474.075.219-.42-.228-.422.472.086.332-.338.075.474.433.216-.427.2-.063.47zm-1.082-2.445-.474.075.218-.42-.227-.423.472.087.331-.338.076.474.432.216-.427.2-.062.47ZM17.754 5.3l-.474.075.219-.42-.228-.422.472.086.332-.338.075.474.433.216-.427.2-.063.47zm-2.912-.5-.474.074.219-.419-.228-.423.472.086.332-.337.075.473.433.216-.427.205-.063.47zm-2.78.808-.473.074.218-.42-.228-.422.473.086.331-.337.076.473.432.216-.427.205-.063.469zm-.214 3.07-.339-.344-.474.074.219-.42-.228-.422.472.086.331-.337.076.473.433.212-.427.205Zm1.812 1.208.076.474.432.216-.427.205-.063.469-.339-.345-.473.075.218-.42-.228-.422.473.086zm.831 4.056-.474.075.219-.42-.228-.422.472.086.332-.338.075.474.433.216-.427.205-.063.469zm-.719 1.727.432.216-.427.205-.062.469-.34-.345-.473.075.218-.42-.227-.422.472.086.335-.333Zm-2.014 1.212-.427.2-.063.469-.339-.344-.474.074.219-.42-.228-.422.472.086.332-.337.075.473zM8.8 15.093l-.228-.422.472.086.332-.338.075.474.433.216-.427.2-.063.47-.339-.345-.474.075zm-.023-2.466-.229-.427.472.087.332-.338.075.473.433.216-.427.205-.063.47-.339-.345-.474.074Zm-.208-2.7L8.34 9.5l.472.086.331-.337.076.473.433.216-.427.205-.063.469-.339-.344-.474.074Zm-.3-2.1-.476.073.219-.42-.228-.422.472.086.332-.344.075.473.433.216-.427.211-.063.469ZM6.8 5.653l-.474.075.219-.42-.228-.422.472.086.332-.338.075.474.433.216-.429.205L7.138 6ZM4.261 5.3l-.473.075.218-.42-.228-.422.472.086.332-.338.076.474.432.216-.427.2-.063.47ZM2.672 7.415 2.891 7l-.228-.422.472.086.332-.338.075.474.433.216-.427.2-.063.47-.339-.346ZM4.231 8.9l.075.473.433.216-.427.211-.063.469-.339-.349-.473.075.218-.42-.228-.422.472.086Zm1.916 3.06-.062.47-.339-.345-.474.075.219-.42-.228-.423.472.087.331-.338.076.474.432.216zm.5 2.907-.474.074.219-.42-.231-.421.472.086.332-.337.075.473.433.216-.427.205-.063.469zM5.738 17.2l-.062.469-.34-.345-.473.075.218-.42-.227-.422.472.086.331-.337.076.473.432.221Zm-2.231.472-.427.2-.063.469L2.678 18l-.473.075.218-.42-.228-.422.473.086.332-.334.076.474Z"/></svg>