<svg xmlns="http://www.w3.org/2000/svg" viewBox="0 0 24 24"><path fill="#44739e" d="M22.54 17.533a.455.455 0 0 0-.455.455.45.45 0 0 0 .072.246l-.016.023a4.55 4.55 0 0 1-.783.88.45.45 0 0 0-.33-.139.455.455 0 0 0-.407.66 4.65 4.65 0 0 1-.926.404.455.455 0 0 0-.873.179 3.05 3.05 0 0 1-1.085-.073.3.3 0 0 0 0-.05.457.457 0 0 0-.455-.455.45.45 0 0 0-.272.091 2.09 2.09 0 0 1-.498-1.018.455.455 0 0 0 .349-.44v-.016a.455.455 0 0 0-.402-.44 3 3 0 0 1 .185-.848 2.4 2.4 0 0 1 .186-.378.45.45 0 0 0 .246.074.454.454 0 0 0 .37-.72 6.86 6.86 0 0 1 .904-.512c.152-.076.309-.155.47-.242a.455.455 0 0 0 .814-.28.45.45 0 0 0-.042-.19 5.9 5.9 0 0 0 .828-.704c.021-.021.128-.132.284-.32a.45.45 0 0 0 .247.074.455.455 0 0 0 .29-.806 7.9 7.9 0 0 0 .688-1.3.4.4 0 0 0 .073.007.455.455 0 0 0 .213-.858 5.57 5.57 0 0 0 .187-1.346.455.455 0 0 0-.071-.902c-.019-.11-.041-.22-.067-.33a5.06 5.06 0 0 0-.287-.855.455.455 0 0 0-.44-.798 5.87 5.87 0 0 0-.871-1.022.455.455 0 0 0-.704-.577 7.7 7.7 0 0 0-1.034-.624.455.455 0 0 0-.826-.345 7.87 7.87 0 0 0-1.33-.316.455.455 0 0 0-.904-.081 7.15 7.15 0 0 0-.949.024c-.155.014-.318.036-.487.067a.454.454 0 0 0-.88.164.4.4 0 0 0 .006.075 3.18 3.18 0 0 0-1.115.7.455.455 0 0 0-.521.741 3.22 3.22 0 0 0-.284 1.41.454.454 0 0 0 .094.893c.04.201.091.408.154.621a4.24 4.24 0 0 0 .278.699.455.455 0 0 0 .503.754 7.4 7.4 0 0 0 .707.7c.081.074.162.148.242.22a.45.45 0 0 0-.064.233.455.455 0 0 0 .455.455.45.45 0 0 0 .192-.043 3 3 0 0 1 .42.845 3.74 3.74 0 0 1 .143.626.455.455 0 0 0 .036.872 5.12 5.12 0 0 1-.306 1.488c-.014.038-.028.076-.044.11a.44.44 0 0 0-.114-.018.454.454 0 0 0-.284.811 3.71 3.71 0 0 1-.857.949.455.455 0 0 0-.797.3.48.48 0 0 0 .017.127 3.44 3.44 0 0 1-1.32.184.455.455 0 0 0-.862-.181 2.09 2.09 0 0 1-.672-.419 1.76 1.76 0 0 1-.234-.273.455.455 0 0 0-.269-.822.4.4 0 0 0-.054 0 8.9 8.9 0 0 1-.11-1.375.455.455 0 0 0-.025-.895c-.016-.562-.028-1.066-.039-1.516a.454.454 0 0 0-.02-.889c0-.192-.007-.372-.011-.54-.009-.482-.018-.871-.027-1.195a.455.455 0 0 0-.039-.892 3.5 3.5 0 0 0-.195-1.008q-.097-.281-.22-.558a.455.455 0 0 0-.307-.792.48.48 0 0 0-.11.013 7.26 7.26 0 0 0-1-1.289.455.455 0 0 0-.677-.592 3.25 3.25 0 0 0-1.421-.64.455.455 0 0 0-.899.086 2.57 2.57 0 0 0-1.188 1.001.44.44 0 0 0-.179-.036.454.454 0 0 0-.242.841 3.76 3.76 0 0 0-.232.957 3.05 3.05 0 0 0 0 .649.455.455 0 0 0 .177.88h.037A5.92 5.92 0 0 0 3.118 9.6a.455.455 0 0 0 .561.696 4.66 4.66 0 0 0 .719.687 3.6 3.6 0 0 1 .324.28.454.454 0 0 0 .355.74.46.46 0 0 0 .19-.042 5.52 5.52 0 0 1 .66 1.363.455.455 0 0 0 .184.868 4.3 4.3 0 0 1-.006 1.008l-.028.187h-.022a.455.455 0 0 0-.178.88 3.6 3.6 0 0 1-.39.82.46.46 0 0 0-.167-.031.454.454 0 0 0-.394.683 3.1 3.1 0 0 1-.257.203 3.14 3.14 0 0 1-.612.33.455.455 0 0 0-.85.063.5.5 0 0 0-.012.123v.034a4.18 4.18 0 0 1-1.287-.053.4.4 0 0 0-.017-.103.454.454 0 1 0-.009.278 4.4 4.4 0 0 0 1.36.05.455.455 0 0 0 .863-.206v-.015a3.5 3.5 0 0 0 .256-.117 3.2 3.2 0 0 0 .416-.25 3.2 3.2 0 0 0 .272-.22.455.455 0 0 0 .594-.687 3.8 3.8 0 0 0 .414-.88.455.455 0 0 0 .194-.867c.011-.077.02-.146.026-.205a4.5 4.5 0 0 0 0-1.061.455.455 0 0 0-.167-.88h-.014a5.7 5.7 0 0 0-.686-1.43.455.455 0 0 0-.55-.709 3.6 3.6 0 0 0-.349-.303 4.53 4.53 0 0 1-.692-.66.454.454 0 0 0-.559-.694 5.8 5.8 0 0 1-.804-1.383.455.455 0 0 0-.213-.85 2.9 2.9 0 0 1 0-.597 3.6 3.6 0 0 1 .22-.911.44.44 0 0 0 .076.007.455.455 0 0 0 .324-.77 2.43 2.43 0 0 1 1.069-.922.455.455 0 0 0 .873-.087 3.05 3.05 0 0 1 1.307.598.44.44 0 0 0-.055.22.457.457 0 0 0 .456.455.45.45 0 0 0 .265-.086 7.2 7.2 0 0 1 .958 1.237.455.455 0 0 0 .269.821.46.46 0 0 0 .153-.026q.119.261.21.524a3.36 3.36 0 0 1 .186.959.454.454 0 0 0 .031.888c.009.321.018.709.028 1.19 0 .167.006.346.011.537a.455.455 0 0 0 .019.896c.011.45.024.954.039 1.517a.454.454 0 0 0 .025.889 8.7 8.7 0 0 0 .119 1.43.455.455 0 0 0 .226.85.44.44 0 0 0 .11-.013 1.9 1.9 0 0 0 .275.33 2.23 2.23 0 0 0 .747.461v.032a.454.454 0 0 0 .88.153 3.62 3.62 0 0 0 1.43-.2.455.455 0 0 0 .81-.285.47.47 0 0 0-.023-.143 3.8 3.8 0 0 0 .928-1.024.44.44 0 0 0 .123.017.455.455 0 0 0 .278-.815c.018-.044.034-.087.051-.132a5.31 5.31 0 0 0 .316-1.54.455.455 0 0 0-.038-.904 3.96 3.96 0 0 0-.149-.66 3.2 3.2 0 0 0-.446-.897.454.454 0 0 0-.33-.762.458.458 0 0 0-.274.091c-.079-.073-.16-.146-.241-.22a7.5 7.5 0 0 1-.689-.683.455.455 0 0 0-.483-.724 4.03 4.03 0 0 1-.265-.667q-.09-.304-.148-.593a.455.455 0 0 0-.093-.88 3.07 3.07 0 0 1 .261-1.309.455.455 0 0 0 .503-.714 3.01 3.01 0 0 1 1.043-.65.454.454 0 0 0 .84-.231c.164-.03.324-.051.474-.065a7 7 0 0 1 .934-.023.455.455 0 0 0 .865.081 7.7 7.7 0 0 1 1.299.308.44.44 0 0 0-.008.086.455.455 0 0 0 .831.257 7.5 7.5 0 0 1 1.02.617.455.455 0 0 0 .652.535 5.7 5.7 0 0 1 .868 1.019.455.455 0 0 0 .346.751.44.44 0 0 0 .063 0 4.95 4.95 0 0 1 .282.837c.026.11.047.22.064.323a.455.455 0 0 0 .07.874 5.5 5.5 0 0 1-.176 1.298h-.044a.454.454 0 0 0-.239.842 7.6 7.6 0 0 1-.678 1.277.454.454 0 0 0-.59.44.45.45 0 0 0 .081.258c-.155.189-.263.3-.283.321a5.8 5.8 0 0 1-.805.683.457.457 0 0 0-.749.457c-.161.086-.317.165-.47.242a6.8 6.8 0 0 0-.954.55.45.45 0 0 0-.239-.067.454.454 0 0 0-.376.71 2.5 2.5 0 0 0-.22.44 3.25 3.25 0 0 0-.202.928.458.458 0 0 0-.33.423v.013a.455.455 0 0 0 .381.449 2.3 2.3 0 0 0 .561 1.142.455.455 0 1 0 .791.451 3 3 0 0 0 .79.099 3.7 3.7 0 0 0 .38-.02.455.455 0 0 0 .88-.173v-.006a4.87 4.87 0 0 0 1.002-.44.455.455 0 0 0 .753-.345.46.46 0 0 0-.032-.168 4.75 4.75 0 0 0 .827-.917.45.45 0 0 0 .258.08.455.455 0 0 0 0-.911ZM1.45 18.797a.338.338 0 1 1 .338-.338.338.338 0 0 1-.338.338m2.195 0a.338.338 0 1 1 .338-.338.337.337 0 0 1-.338.338m2.014-1.296a.338.338 0 1 1-.338-.337.339.339 0 0 1 .338.337m.735-1.663a.338.338 0 1 1-.339-.341.339.339 0 0 1 .339.341m-.28-2.439a.338.338 0 1 1-.337.338.339.339 0 0 1 .337-.338m-1.037-2.192a.338.338 0 1 1-.338.336.337.337 0 0 1 .338-.336m-1.613-1.65a.338.338 0 1 1-.336.337.338.338 0 0 1 .336-.337M2.243 7.365a.338.338 0 1 1-.337.338.338.338 0 0 1 .337-.338m.631-2.073a.338.338 0 1 1-.339-.338.338.338 0 0 1 .339.338m1.48-1.068a.338.338 0 1 1 .338-.338.338.338 0 0 1-.338.338m2.156.89a.338.338 0 1 1 .338-.338.338.338 0 0 1-.338.338m1.493 1.972a.338.338 0 1 1 .338-.338.339.339 0 0 1-.338.338m.32 2.015a.338.338 0 1 1 .338.338.338.338 0 0 1-.338-.338m.059 2.624a.338.338 0 1 1 .337.337.337.337 0 0 1-.337-.337m.414 2.75a.338.338 0 1 1 .339-.342.339.339 0 0 1-.339.337Zm.261 2.273a.338.338 0 1 1 .338-.338.339.339 0 0 1-.338.333Zm1.583 1.259a.338.338 0 1 1 .338-.337.338.338 0 0 1-.338.333Zm2.211-.33a.338.338 0 1 1 .338-.338.339.339 0 0 1-.338.333Zm1.821-1.943a.338.338 0 1 1-.338-.337.338.338 0 0 1 .338.332Zm.242-2.819a.338.338 0 1 1-.338.337.338.338 0 0 1 .338-.342Zm-.902-2.31a.338.338 0 1 1-.338.338.339.339 0 0 1 .338-.348Zm-1.557-1.563a.338.338 0 1 1-.338.336.337.337 0 0 1 .338-.336m-.356-1.795a.338.338 0 1 1-.337-.337.337.337 0 0 1 .337.337m.127-1.854a.338.338 0 1 1 .337-.338.338.338 0 0 1-.337.342Zm1.786-1.174a.338.338 0 1 1 .337-.337.338.338 0 0 1-.337.342Zm2.31-.174a.338.338 0 1 1 .336-.337.339.339 0 0 1-.339.342Zm2.166.57a.338.338 0 1 1 .337-.336.338.338 0 0 1-.34.341Zm1.83 1.01a.338.338 0 1 1 .338-.338.339.339 0 0 1-.34.342Zm1.43 1.714a.338.338 0 1 1 .338-.337.338.338 0 0 1-.339.341Zm.23 1.701a.338.338 0 1 1 .338.336.338.338 0 0 1-.339-.332Zm-.309 2.2a.338.338 0 1 1 .338.337.338.338 0 0 1-.339-.335ZM20.955 13a.338.338 0 1 1-.337.336.338.338 0 0 1 .336-.333Zm-1.772 1.595a.338.338 0 1 1-.338.337.338.338 0 0 1 .337-.334Zm-2.102 1.299a.338.338 0 1 1-.337.338.339.339 0 0 1 .336-.335Zm-1.008 2.397a.338.338 0 1 1 .338.338.339.339 0 0 1-.339-.335Zm1.21 2.161a.338.338 0 1 1 .338-.337.338.338 0 0 1-.335.341Zm1.992.124a.338.338 0 1 1 .337-.338.338.338 0 0 1-.333.341Zm1.754-.793a.338.338 0 1 1 .336-.338.338.338 0 0 1-.333.342Zm1.508-1.461a.338.338 0 1 1 .338-.337.338.338 0 0 1-.335.34Z"/></svg>