<svg xmlns="http://www.w3.org/2000/svg" viewBox="0 0 24 24"><path fill="#44739e" d="M22.524 10.881a7.113 7.113 0 0 0 .396-3.622l-.723-3.78h-.22l.738 3.854a6.67 6.67 0 0 1-.368 3.403 2.91 2.91 0 0 1-.75 1.131.411.411 0 0 0-.409-.411h-1.095a.411.411 0 0 0-.409.411v.295a1.611 1.611 0 0 1-1.15-.771 16.18 16.18 0 0 1-1.109-4.294c-.052-.29-.11-.594-.164-.915a13.54 13.54 0 0 0-.756-2.692h-.464c.043.149.098.331.169.566.117.383.261.86.43 1.455a8.555 8.555 0 0 1-.526 4.704 2.725 2.725 0 0 1-1.049 1.143v-.305a.411.411 0 0 0-.409-.411h-1.095a.411.411 0 0 0-.409.411v.153a3.48 3.48 0 0 1-.92-1.005c-1.169-1.837-.792-5.378-.634-6.724h-.278c-.023.191-.048.425-.079.72-.191 1.815-.55 5.19-1.473 6.004-.11.099-.22.186-.33.262v-.179a.411.411 0 0 0-.41-.411H7.937a.411.411 0 0 0-.409.411v.099a3.3 3.3 0 0 1-.25-.265C6.081 8.713 6.203 5.559 6.263 4.042c.008-.228.014-.409.016-.563h-.306v.498c.009 1.651.026 5.074-1.552 6.373l-.057.045v-.255a.411.411 0 0 0-.409-.41H2.859a.411.411 0 0 0-.41.41v.272a1.6 1.6 0 0 1-.076-.068C1.263 9.334.752 6.53 1.7 3.479h-.22a10.76 10.76 0 0 0-.446 4.03 4.866 4.866 0 0 0 1.233 3.083c.065.058.127.11.188.162v.55h-.05a.182.182 0 0 0-.183.182v.615a.183.183 0 0 0 .183.183H2.37l-.017.043a5.986 5.986 0 0 0 .405 5.705c.281.424.608.771.73.771.148 0 .338-.243.472-.448a6.472 6.472 0 0 0 .551-6.03l-.019-.041H4.41a.183.183 0 0 0 .181-.183v-.617a.182.182 0 0 0-.181-.182h-.047v-.571c.053-.04.11-.082.161-.127a5.732 5.732 0 0 0 1.541-3.762c.009.121.019.243.031.364a5.736 5.736 0 0 0 1.05 3.139 3.34 3.34 0 0 0 .383.386v.714h-.045a.183.183 0 0 0-.183.183v.614a.183.183 0 0 0 .183.183h-.036l-.017.043a5.989 5.989 0 0 0 .404 5.705c.282.424.609.771.73.771.147 0 .338-.243.472-.448a6.467 6.467 0 0 0 .551-6.029l-.018-.042h-.084a.183.183 0 0 0 .183-.183v-.614a.183.183 0 0 0-.183-.183h-.045v-.654a4.2 4.2 0 0 0 .441-.338c.704-.621 1.088-2.444 1.327-4.165a8.076 8.076 0 0 0 .871 4.112 3.64 3.64 0 0 0 1.075 1.134v.681h-.045a.183.183 0 0 0-.183.182v.615a.183.183 0 0 0 .183.183h-.034l-.018.043a5.989 5.989 0 0 0 .404 5.705c.282.424.609.771.731.771.148 0 .338-.244.472-.448a6.47 6.47 0 0 0 .551-6.03l-.019-.041h-.082a.183.183 0 0 0 .182-.183v-.615a.183.183 0 0 0-.182-.182h-.045v-.551a2.94 2.94 0 0 0 1.211-1.276 7.28 7.28 0 0 0 .671-2.842 7.98 7.98 0 0 0-.118-2.156c-.169-.598-.314-1.077-.431-1.462-.045-.148-.088-.29-.126-.417a12.6 12.6 0 0 1 .785 2.733c.059.32.11.624.164.914a16.4 16.4 0 0 0 1.142 4.394 1.82 1.82 0 0 0 1.321.898v.574h-.05a.183.183 0 0 0-.183.183v.614a.183.183 0 0 0 .183.183h-.034l-.018.043a5.985 5.985 0 0 0 .405 5.705c.281.424.608.771.73.771.148 0 .338-.243.472-.448a6.47 6.47 0 0 0 .551-6.029l-.019-.042h-.083a.183.183 0 0 0 .182-.183v-.614a.183.183 0 0 0-.182-.183h-.046v-.821a2.92 2.92 0 0 0 .927-1.322M4.468 13.138l-.508.771.052-.625.503-.22Zm.11.116-.166 1.22-.413-.342.446-.675Zm-.628 1.08.37.254.049.035-.017.022-.078.102-.314.423Zm-.069-1.917-.052.599-.148-.207-.279-.391h.479Zm-1.677 1.422.892-.274-.807.4-.021-.022-.025-.025-.063-.064.034-.009Zm.688 1.496.11-.433.723.498-.37.144-.566.22Zm-.021-.749-.419-.45.914.077.294.024-.699.441Zm.539 2.154-.419.452-.365-.171Zm-.858.159.183-.88.778.54Zm1.086-.18.023.055.294.715-.358-.111-.449-.134Zm-.032-.275-.761-.551.531-.208.396-.155-.101.557Zm-.526-1.665.709-.45v.941Zm-.551-.771 1.286-.638-.016.745Zm1.059-1.063.129.18-.881-.249-.428-.121.293-.097.55-.182Zm-1.123-.528h.504l-.564.187h-.01c.024-.055.044-.118.07-.187m-.266.804c.032-.116.068-.233.11-.352l.148.042 1.203.339-1.517.466Zm-.17.817.04-.085.055.056.027.028.018.017-.05.054-.11.122c-.003-.063.005-.127.015-.192Zm-.047.44.293-.31.509.55-.813.01c-.003-.087 0-.168.008-.252Zm-.013.38.55-.007h.323l-.11.45-.11.44-.661-.654c.002-.082.002-.157.002-.231Zm.015.448.295.294-.282-.147a.7.7 0 0 1-.018-.149Zm.033.317.378.198H2.04c-.011-.068-.02-.134-.028-.2Zm.053.331h.316l-.286.144Zm.273.952a5.6 5.6 0 0 1-.21-.666l.43-.22-.185.895Zm.146.348c-.016-.039-.034-.077-.051-.117l.019-.022.011-.013.081.039.273.128-.283.086Zm.111.226.339-.104.055.415.053.401a4.9 4.9 0 0 1-.451-.71Zm.562.308-.053-.405.813.263-.11.092-.593.515Zm.33.873a.6.6 0 0 1-.103-.078l.146.06a.14.14 0 0 1-.041.017Zm.352-.384a2.2 2.2 0 0 1-.196.259l-.315-.129.69-.654.028.172c-.074.138-.145.257-.201.351Zm.424-.795h-.021l.066-.11a.8.8 0 0 1-.045.11m.314-.839-.483.778-.33-.809.908-.299c-.031.115-.056.225-.095.332Zm.131-.489-.946.307.063-.347.104-.571.023.017v-.006l.182.117.596.386c-.004.034-.014.067-.022.104Zm.053-.25-.725-.469.823-.24a6.4 6.4 0 0 1-.098.711Zm.11-.854-.623.181-.181.053.44-.576.016-.022.036.01.33.088c-.012.092-.015.181-.021.268Zm.01-.406-.163-.045.162-.055c-.002.036-.002.069-.002.102Zm-.006-.243-.022.008-.271.091.151-1.101a5.67 5.67 0 0 1 .138 1Zm-.331-1.582.032.039.011.029h-.01l-.377.155-.211.085.015-.164.047-.55h.165Zm5.007.46-.509.771.053-.626.502-.221Zm.11.11-.17 1.23-.414-.342.447-.676Zm-.628 1.081.37.254.049.034-.018.023-.077.103-.324.427Zm-.079-1.905-.052.599-.148-.208-.279-.391Zm-1.677 1.418.891-.275-.806.4-.021-.02-.025-.027-.058-.064.035-.007Zm.688 1.495.11-.433.723.498-.37.145-.566.221Zm-.021-.749-.419-.449.914.076.294.025-.7.441Zm.533 2.155-.419.451-.359-.171Zm-.857.16.181-.881.78.542Zm1.085-.182.023.056.294.714-.359-.11-.449-.134Zm-.032-.275-.761-.551.53-.207.397-.155-.101.556Zm-.524-1.665.709-.449v.941Zm-.55-.771 1.286-.638-.018.744Zm1.059-1.064.129.18-.881-.249-.43-.12.294-.098.551-.182Zm-1.116-.522h.501l-.564.183h-.01c.018-.055.043-.119.069-.183Zm-.272.8c.032-.116.069-.233.111-.352l.148.042 1.201.338-1.517.468Zm-.175.814.041-.085.055.056.028.029.017.018-.049.053-.11.123c.002-.063.01-.127.018-.194m-.046.44.293-.311.51.55-.814.01c0-.084.006-.165.011-.249m-.013.379.55-.007h.323l-.11.451-.11.44-.661-.654c.01-.08.01-.154.01-.229Zm.015.448.295.294-.281-.147a2.6 2.6 0 0 1-.014-.146Zm.033.317.378.198h-.349c-.011-.063-.02-.131-.029-.197Zm.053.331h.316l-.286.144c-.01-.045-.019-.093-.03-.142Zm.273.953a5.7 5.7 0 0 1-.21-.666l.429-.22-.183.895Zm.147.347c-.018-.038-.034-.077-.052-.117l.02-.022.011-.012.08.037.272.129-.282.086a1.5 1.5 0 0 1-.049-.099Zm.11.226.339-.104.055.415.052.401a4.9 4.9 0 0 1-.444-.71Zm.562.308-.052-.405.812.263-.11.092-.592.516Zm.331.873a.5.5 0 0 1-.11-.082l.145.061a.13.13 0 0 1-.029.023Zm.35-.384a2.1 2.1 0 0 1-.195.26l-.315-.13.689-.654.029.171a3 3 0 0 1-.201.355Zm.424-.792-.022.006.067-.111c-.009.04-.023.072-.039.107Zm.315-.839-.484.779-.33-.81.909-.298c-.025.114-.057.224-.089.331Zm.142-.487-.947.309.064-.348.103-.571.023.016.182.118.597.385c-.012.028-.022.063-.022.091m.053-.249-.726-.47.824-.24a6.4 6.4 0 0 1-.103.711Zm.11-.855-.624.182-.181.054.44-.577.017-.021.035.009.33.089q-.017.129-.025.264Zm.01-.406-.173-.044.162-.054c.003.038.003.065.003.098Zm-.008-.242-.021.007-.271.092.15-1.101a5.46 5.46 0 0 1 .134 1.002Zm-.33-1.583.031.04.01.029h-.008l-.378.154-.21.086.014-.164.047-.551h.165Zm5.552 1.087-.509.771.053-.627.503-.214Zm.11.116-.173 1.223-.414-.342.447-.676Zm-.628 1.08.37.254.049.034-.018.023-.077.103-.324.427Zm-.075-1.913-.052.599-.149-.207-.278-.39h.479Zm-1.677 1.419.89-.276-.806.401-.02-.021-.026-.026-.063-.064.035-.009Zm.688 1.495.11-.433.722.498-.37.145-.566.22Zm-.021-.749-.42-.449.914.076.294.025-.699.44Zm.533 2.155-.42.451-.374-.172Zm-.858.158.183-.881.778.542Zm1.086-.18.023.056.294.713-.359-.11-.448-.133Zm-.032-.276-.761-.55.53-.207.397-.155-.101.556Zm-.524-1.664.709-.45v.942Zm-.551-.771 1.286-.638-.017.745Zm1.059-1.064.129.181-.881-.249-.442-.122.293-.097.55-.183Zm-1.115-.521h.501l-.58.182h-.01c.027-.056.052-.12.078-.184Zm-.272.799c.032-.116.068-.232.11-.351l.149.041 1.201.338-1.517.467Zm-.171.817.041-.085.055.056.028.028.017.017-.049.054-.116.121c-.003-.063.005-.127.013-.193Zm-.046.44.293-.311.51.55-.814.01c-.009-.087-.005-.168 0-.251Zm-.013.379.556-.007h.323l-.111.451-.11.44-.66-.654c-.009-.084-.009-.157-.009-.232Zm.015.448.295.294-.281-.147c-.017-.051-.021-.095-.025-.149Zm.033.317.378.198h-.349c-.022-.067-.031-.133-.04-.2Zm.053.33h.316l-.286.145Zm.273.953a5.6 5.6 0 0 1-.21-.666l.429-.22-.183.895Zm.147.348c-.018-.039-.034-.077-.052-.117l.02-.022.011-.013.08.038.272.129-.282.086a.47.47 0 0 1-.06-.102Zm.11.225.339-.103.055.415.052.401a4.9 4.9 0 0 1-.455-.714Zm.562.309-.052-.405.812.263-.11.092-.592.515Zm.331.873a.55.55 0 0 1-.11-.082l.145.061a.13.13 0 0 1-.035.021m.35-.384a2.1 2.1 0 0 1-.195.259l-.315-.129.69-.654.028.171a6.6 6.6 0 0 1-.213.351Zm.424-.792-.022.005.067-.11Zm.314-.839-.483.778-.33-.809.909-.299c-.036.112-.068.222-.101.329Zm.132-.489-.947.308.064-.347.103-.571.023.016v-.007l.182.118.597.385c-.012.032-.019.07-.031.097Zm.053-.25-.726-.469.824-.24a6.4 6.4 0 0 1-.103.71Zm.11-.854-.624.182-.181.052.44-.575.017-.021.035.008.33.09q-.017.128-.025.263Zm.01-.406-.163-.044.161-.054c-.006.032-.006.063-.006.096Zm-.008-.243-.021.008-.271.091.15-1.101a5.45 5.45 0 0 1 .134 1.001Zm-.33-1.582.031.04.01.028h-.008l-.378.155-.21.085.014-.164.047-.55h.165Zm6.46 1.127-.507.77.051-.626.504-.22Zm.11.115-.166 1.221-.414-.343.447-.675Zm-.627 1.921v-.841l.37.255.048.034-.016.023-.079.102Zm-.076-2.752-.052.599-.149-.207-.278-.391h.479Zm-1.677 1.417.891-.274-.806.4-.021-.02-.025-.027-.063-.064.034-.009Zm.688 1.496.11-.433.722.498-.369.145-.566.221Zm-.021-.749-.419-.449.914.076.294.026-.7.44Zm.533 2.155-.418.452-.366-.172Zm-.858.159.183-.881.779.542Zm1.086-.181.023.056.294.714-.358-.11-.449-.134Zm-.032-.275-.761-.551.531-.207.396-.156-.101.557Zm-.524-1.665.709-.449v.941Zm-.551-.771 1.286-.638-.016.744Zm1.06-1.064.128.18-.88-.249-.429-.12.293-.098.551-.182Zm-1.121-.524h.501l-.565.187h-.01c.018-.06.042-.123.074-.187m-.272.799c.032-.116.068-.232.11-.351l.149.042 1.201.338-1.516.468Zm-.171.817.041-.085.055.056.028.028.017.017-.049.054-.111.122c-.003-.063.005-.122.014-.192Zm-.046.44.293-.311.51.55-.814.01c-.003-.086 0-.167.005-.25Zm-.013.379.55-.008h.323l-.11.451-.11.44-.661-.654c.002-.081.002-.155.002-.23Zm.015.448.295.294-.282-.147c-.011-.05-.014-.098-.018-.148Zm.033.317.378.198h-.349c-.016-.06-.026-.132-.034-.199Zm.053.331h.316l-.286.144Zm.273.952a5.6 5.6 0 0 1-.21-.661l.43-.22-.185.895Zm.147.348a4 4 0 0 1-.052-.117l.02-.022.011-.013.08.038.272.129-.282.086a.8.8 0 0 1-.055-.101Zm.11.22.339-.103.055.415.053.4a4.9 4.9 0 0 1-.451-.706Zm.562.308-.053-.405.813.263-.11.093-.593.514Zm.331.873a.55.55 0 0 1-.105-.081l.146.061a.14.14 0 0 1-.04.026Zm.351-.384a2.2 2.2 0 0 1-.196.26l-.315-.13.69-.654.028.172c-.074.145-.149.264-.206.358Zm.423-.791-.022.005.067-.11a.8.8 0 0 1-.044.11Zm.314-.839-.483.778-.33-.809.905-.299a4.2 4.2 0 0 1-.09.331Zm.131-.489-.946.308.063-.348.104-.57.023.015v-.005l.182.118.596.385c-.006.036-.013.07-.02.102Zm.053-.25-.725-.469.823-.24a6.4 6.4 0 0 1-.097.714Zm.11-.855-.623.182-.181.053.44-.576.016-.021.036.009.33.089q-.011.14-.02.27Zm.01-.406-.163-.044.162-.054c-.001.039-.001.071-.001.104Zm-.007-.242-.021.008-.271.091.151-1.101a5.56 5.56 0 0 1 .138 1.007Zm-.331-1.582.032.039.011.029h-.01l-.377.154-.211.086.015-.164.047-.55h.165Z"/></svg>