<svg xmlns="http://www.w3.org/2000/svg" fill="#44739e" viewBox="0 0 24 24"><path d="M21.792 9.637 22 9.454l-.249-.284-.209.183-.542.479a4.5 4.5 0 0 0-.106-.645 4.56 4.56 0 0 0-.278-.812l.842-.739.208-.183-.249-.284-.208.183-.768.675a5.04 5.04 0 0 0-.825-1.089l.692-.607.209-.184-.249-.283-.209.183-.718.631a6.63 6.63 0 0 0-1.255-.87l.651-.571.209-.183-.246-.284-.209.183-.766.673a5 5 0 0 0-.35-.147 6.73 6.73 0 0 0-1.23-.329l.626-.55.208-.183-.249-.284-.208.184-.87.764a6.7 6.7 0 0 0-1.332-.013l.457-.4.208-.183-.255-.285-.208.183-.912.8a3.54 3.54 0 0 0-1.089.447l.163-.274.142-.238-.326-.192-.141.238-.677 1.136.1.058a2.867 2.867 0 0 0-.4 1.788l-.185.163.239.272a5.6 5.6 0 0 0 .159.667 3.7 3.7 0 0 0 .351.816l-.183.16.249.284.145-.128a5.7 5.7 0 0 0 .77.8c.142.128.28.254.412.388l-.153.134.249.284.153-.134a2.66 2.66 0 0 1 .455.861 3.47 3.47 0 0 1 .138.639l-.268.235.249.284.048-.042a4.56 4.56 0 0 1-.281 1.559l-.021.057-.331.29.133.152a3.47 3.47 0 0 1-.946 1.163l.257-.637.1-.258-.35-.14-.1.257-.44 1.1a3.027 3.027 0 0 1-1.647.2l.765-.672.208-.183-.249-.283-.209.183-.955.838a1.86 1.86 0 0 1-.636-.388 1.59 1.59 0 0 1-.422-.678l.913-.8.208-.183-.249-.284-.208.183-.762.669a9.4 9.4 0 0 1-.079-1.174q-.009-.3-.017-.586l.881-.774.208-.183-.249-.284-.208.183-.645.567c-.016-.606-.028-1.129-.038-1.581l.859-.754.208-.183-.249-.284-.208.183-.621.545v-.231c-.009-.417-.016-.757-.024-1.04l.776-.682.209-.183-.249-.284-.209.183-.543.478a3.76 3.76 0 0 0-.2-1.245 5.5 5.5 0 0 0-.087-.233l.771-.677.209-.183-.249-.284-.209.183-.68.6a6.68 6.68 0 0 0-.8-1.277l.9-.793.209-.183-.25-.283-.204.177-.9.787a4.65 4.65 0 0 0-1.264-1.025l.7-.617.208-.183L6.7 4.37l-.208.183-.835.733a1.85 1.85 0 0 0-1-.086 1.73 1.73 0 0 0-.613.269l.135-.347.1-.258-.352-.137-.1.258-.48 1.215A3.58 3.58 0 0 0 2.8 7.682l-.216.19.2.224A3.445 3.445 0 0 0 3.276 9.7l-.058.051.25.284.01-.009a11 11 0 0 0 .672.882 4.6 4.6 0 0 0 .458.49l-.116.1.249.283.159-.139a2.74 2.74 0 0 1 .609.637 5.5 5.5 0 0 1 .532.9l-.192.169.249.284.095-.084a3.984 3.984 0 0 1 .229 1.761l-.279.245.211.24a3.8 3.8 0 0 1-.279.905l-.581.51.151.172a2.76 2.76 0 0 1-.515.47 2.86 2.86 0 0 1-.574.312l.454-.4.208-.183-.249-.284-.208.183-1 .875a3.86 3.86 0 0 1-1.361-.097l.86-.756.209-.183-.25-.284-.208.183-1 .875.054.063-.013-.006L2 18.3a4.04 4.04 0 0 0 1.894.212l.121.137.238-.21a2.96 2.96 0 0 0 .969-.447 2.88 2.88 0 0 0 .575-.536l.942-.827.208-.183-.247-.286-.208.183-.149.13a4.25 4.25 0 0 0 .187-.747l.86-.755.208-.183-.251-.288-.208.183-.547.48a4.15 4.15 0 0 0-.271-1.723l.773-.679.208-.183-.249-.278-.208.183-.679.6a5.7 5.7 0 0 0-.528-.889 2.89 2.89 0 0 0-.617-.651l.716-.628.208-.183-.245-.289-.209.183-.759.668a4.4 4.4 0 0 1-.455-.486A10.5 10.5 0 0 1 3.6 9.92l.864-.759.208-.183-.25-.278-.208.183-.814.711a3.26 3.26 0 0 1-.46-1.533l.889-.78.208-.181-.249-.284L3.58 7l-.594.522a3.42 3.42 0 0 1 .5-1.242l.2.079.231-.589a1.68 1.68 0 0 1 .763-.412 1.66 1.66 0 0 1 .833.051l-.025.022.249.283.168-.147a4.02 4.02 0 0 1 .931.668 6.44 6.44 0 0 1 1.385 1.919l-.19.168.249.284.1-.086c.022.057.043.115.063.173a3.96 3.96 0 0 1 .191 1.328l-.3.262.249.283.064-.056c.006.255.013.553.02.907l.008.365-.22.193.229.261c.011.463.023 1 .04 1.619l-.2.172.207.234q.008.261.015.54a8.4 8.4 0 0 0 .1 1.292l-.093.082.154.175a1.784 1.784 0 0 0 .491.829 2.066 2.066 0 0 0 .85.474l.1.119.082-.072a3.19 3.19 0 0 0 1.818-.166l.274.11.129-.32a3.42 3.42 0 0 0 1.168-1.306l.995-.874.209-.184-.249-.283-.209.183-.422.371a4.68 4.68 0 0 0 .216-1.54l.791-.7.209-.183-.249-.283-.209.183-.584.513a3.54 3.54 0 0 0-.13-.562 2.85 2.85 0 0 0-.486-.918l.723-.635.208-.183-.249-.283-.208.183-.724.635c-.135-.139-.278-.268-.424-.4a5.5 5.5 0 0 1-.756-.786l.73-.642.208-.183-.249-.284-.208.183-.691.607a3.54 3.54 0 0 1-.321-.753 5.4 5.4 0 0 1-.166-.729l.861-.756.208-.183-.249-.284-.208.184-.656.575a2.676 2.676 0 0 1 .376-1.571l.09.053.3-.505a3.07 3.07 0 0 1 1.3-.643l.169.193.329-.289c.077-.01.153-.019.226-.026a6.54 6.54 0 0 1 1.227 0l.213.244.217-.19a6.76 6.76 0 0 1 1.327.342c.062.024.156.061.275.114l-.1.087.249.283.217-.191a6.45 6.45 0 0 1 1.262.863l-.157.138.249.284.184-.162a4.9 4.9 0 0 1 .822 1.091l-.106.093.249.283.029-.025a4.36 4.36 0 0 1 .249.739 4.4 4.4 0 0 1 .111.739l-.3.265.249.284.057-.05a5 5 0 0 1-.211 1.2l-.352.31.174.2a6.86 6.86 0 0 1-.607 1.157l-.509.447.1.117c-.174.219-.3.348-.32.37a5.1 5.1 0 0 1-.461.417l.221-.828.072-.268-.365-.1-.071.268-.34 1.27a9.8 9.8 0 0 1-.869.476c-.158.08-.31.157-.456.238l.187-.285.153-.232-.316-.208-.152.232-.728 1.108.041.026a2.08 2.08 0 0 0-.333.581 2.95 2.95 0 0 0-.188 1.117l-.249.218.249.284.047-.041a2 2 0 0 0 .613 1.166l-.166.145.249.283.25-.219a2.4 2.4 0 0 0 .981.188 3.5 3.5 0 0 0 .532-.042l.064.073.121-.106a4.26 4.26 0 0 0 1.3-.5l-.014.052.364.1.13-.475a4.28 4.28 0 0 0 .9-.948l.28.03.143-1.318.03-.275-.376-.041-.03.276-.127 1.18h-.008a4.1 4.1 0 0 1-.743.838l.148-.54.073-.268-.364-.1-.073.268-.275 1a4.16 4.16 0 0 1-1.106.5l.619-.544.208-.183-.249-.284-.208.183-1 .875.059.067a2.61 2.61 0 0 1-1.256-.118l.615-.54.208-.183-.249-.284-.208.183-.71.624a1.862 1.862 0 0 1-.591-1.185l.807-.709.208-.183-.249-.283-.209.183-.584.513a2.74 2.74 0 0 1 .174-.917 1.94 1.94 0 0 1 .318-.55l.142.093.339-.516a7 7 0 0 1 .729-.4 9.2 9.2 0 0 0 .991-.555l.168.045.053-.2a5.3 5.3 0 0 0 .643-.558c.02-.021.142-.147.313-.36l.04.046.995-.875L20.8 13l-.249-.284-.209.183-.095.084a6.7 6.7 0 0 0 .383-.808l.9-.794.208-.183-.249-.284-.208.183-.427.375a5.02 5.02 0 0 0 .157-1.157zm-.047-.4.188.214-.133.119-.188-.214Zm-.336-2 .188.214-.136.119-.188-.214Zm-1.149-1.3.188.213-.136.12-.188-.214Zm-1.571-1.1.188.214-.136.119-.188-.214ZM16.72 4.2l.188.214-.136.119-.188-.213Zm-2 .067.188.214-.136.119-.187-.214ZM11.305 16.5l.188.214-.136.119-.188-.213Zm-1.35-1.313.188.214-.136.119-.187-.22Zm-.228-2.148.187.214-.135.119-.188-.214Zm-.074-2.052.188.214-.136.119-.187-.22Zm-.121-1.695.188.214-.136.119-.184-.214Zm-.3-1.961.188.214-.136.119-.191-.214ZM8.4 5.575l.188.214-.136.12-.184-.209ZM6.692 4.437l.188.214-.136.119-.188-.214ZM4.964 17.372l.188.214-.136.119-.188-.214ZM3.215 17.1l.188.214-.136.119-.188-.214Zm3.477-.874.188.213-.136.12-.188-.214Zm.649-1.656.188.214-.136.119-.187-.214Zm-.294-2.206.188.214-.135.122-.188-.214ZM5.69 10.51l.188.214-.136.119-.188-.214ZM4.417 8.761l.188.214-.136.119-.188-.213Zm-.634-1.88.187.219-.135.119L3.647 7Zm.168-2.093.265.1-.066.169-.265-.1ZM12.8 16.079l.264.106-.064.168-.265-.107Zm1.976-1.332.188.213-.136.12-.188-.214zm.336-2.149.188.214-.136.12-.188-.214zm-.727-1.885.188.214-.135.12-.188-.214zm-1.419-1.476.187.214-.135.119-.188-.214ZM12.4 7.322l.188.214-.136.119-.187-.214Zm.118-2.331.244.146-.092.155-.245-.145Zm6.113 8.555.275.074-.047.174-.275-.073zm2.388 3.162.283.031-.019.179-.283-.03ZM19.958 18.1l.275.075-.048.175-.275-.075zm-.914.764.188.214-.136.119-.188-.214zm-1.827 0 .188.214-.136.119-.187-.214zm-.743-1.554.188.214-.136.12-.188-.214zm.426-2.23.237.157-.1.151-.238-.157zm3.648-2.294.188.214-.136.119-.188-.214Zm.942-1.8.188.214-.136.119-.187-.214z"/></svg>