<svg xmlns="http://www.w3.org/2000/svg" fill="#44739e" viewBox="0 0 24 24"><path d="M20.9 11.925h-2.1a1.856 1.856 0 1 0 2.91 1.523 1.834 1.834 0 0 0-.81-1.523m-1.916-1.775v.521h-.046a.166.166 0 0 0-.166.166v.563a.172.172 0 0 0 .166.166h-.031l-.012.029v.01c-.009.02-.015.042-.024.062h2.006a.5.5 0 0 1-.019-.056V11.6l-.017-.038h-.076a.167.167 0 0 0 .113-.051.162.162 0 0 0 .046-.112v-.559a.166.166 0 0 0-.166-.166h-.041v-.746a2.65 2.65 0 0 0 .842-1.2 6.464 6.464 0 0 0 .359-3.29l-.656-3.433h-.2l.67 3.5a6.066 6.066 0 0 1-.332 3.088 2.644 2.644 0 0 1-.681 1.027.372.372 0 0 0-.372-.373h-.994a.372.372 0 0 0-.372.373v.268a1.46 1.46 0 0 1-1.044-.7 14.74 14.74 0 0 1-1.008-3.9c-.047-.264-.1-.54-.149-.831a12.35 12.35 0 0 0-.686-2.445h-.424c.039.135.089.3.154.514.106.348.237.781.39 1.321a7.77 7.77 0 0 1-.477 4.273 2.47 2.47 0 0 1-.953 1.038v-.277a.373.373 0 0 0-.372-.373h-.994a.373.373 0 0 0-.372.373v.139a3.14 3.14 0 0 1-.835-.913c-1.062-1.668-.72-4.885-.576-6.107h-.253c-.02.173-.043.386-.071.654-.174 1.648-.5 4.714-1.338 5.453a3 3 0 0 1-.3.238v-.163a.373.373 0 0 0-.373-.373h-.99a.373.373 0 0 0-.372.373v.09a3 3 0 0 1-.227-.24c-1.087-1.276-.976-4.141-.922-5.519C6.8 2.306 6.8 2.142 6.8 2h-.274v.452c.008 1.5.024 4.609-1.41 5.788l-.051.041v-.229a.372.372 0 0 0-.365-.373h-1a.373.373 0 0 0-.373.373V8.3c-.023-.02-.046-.04-.069-.062C2.248 7.32 1.784 4.773 2.645 2h-.2a9.77 9.77 0 0 0-.4 3.66 4.416 4.416 0 0 0 1.12 2.8c.059.053.115.1.171.147v.5h-.051a.165.165 0 0 0-.166.164v.559a.166.166 0 0 0 .166.17h-.031l-.007.017-.009.022c-.012.026-.019.052-.03.078h2.018c-.011-.026-.017-.054-.028-.08l-.009-.02L5.181 10h-.075a.167.167 0 0 0 .165-.166v-.56a.165.165 0 0 0-.165-.165h-.042v-.521c.048-.036.1-.074.146-.115a5.2 5.2 0 0 0 1.4-3.417c.008.11.017.221.028.331a5.213 5.213 0 0 0 .953 2.851 3 3 0 0 0 .348.35v.649H7.9a.166.166 0 0 0-.166.166v.558a.134.134 0 0 0 .032.085.186.186 0 0 0 .087.059c.008 0 .012.01.02.011h1.871c.006 0 .01-.007.017-.009a.187.187 0 0 0 .088-.058.13.13 0 0 0 .034-.088V9.4a.166.166 0 0 0-.166-.166h-.041v-.591a3.7 3.7 0 0 0 .4-.307c.64-.564.989-2.22 1.206-3.783a7.33 7.33 0 0 0 .791 3.735 3.31 3.31 0 0 0 .976 1.03v.618h-.041a.166.166 0 0 0-.166.166v.558a.157.157 0 0 0 .1.14c.021.009.038.026.063.026h-.031l-.016.039-.006.015h1.972l-.006-.016-.017-.038h-.075a.163.163 0 0 0 .11-.046.159.159 0 0 0 .064-.12v-.56a.166.166 0 0 0-.166-.166h-.044v-.5a2.677 2.677 0 0 0 1.1-1.159A6.6 6.6 0 0 0 16.5 5.7a7.27 7.27 0 0 0-.107-1.959c-.154-.543-.286-.978-.392-1.327-.041-.135-.08-.264-.114-.379a11.4 11.4 0 0 1 .713 2.478c.053.291.1.567.149.83a14.9 14.9 0 0 0 1.037 3.991 1.657 1.657 0 0 0 1.198.816m-4.111.993h-1.857a1.861 1.861 0 1 0 1.857 0m-9.723-.764H3.259a1.86 1.86 0 1 0 1.891 0m4.586-.002H7.85a1.859 1.859 0 1 0 1.886 0"/></svg>