<svg xmlns="http://www.w3.org/2000/svg" fill="#44739e" viewBox="0 0 24 24"><path d="M21.638 17.132a.362.362 0 0 0-.266.608l-.072-.04a4.22 4.22 0 0 1-.787.879.362.362 0 0 0-.62.255.354.354 0 0 0 .037.159 4.25 4.25 0 0 1-.947.417.362.362 0 0 0-.693.143 2.79 2.79 0 0 1-1.1-.077v-.03a.362.362 0 0 0-.572-.295 1.906 1.906 0 0 1-.5-1.021.362.362 0 0 0-.043-.71 2.82 2.82 0 0 1 .173-.83 2.12 2.12 0 0 1 .2-.39.362.362 0 0 0 .56-.3.364.364 0 0 0-.068-.211 5.9 5.9 0 0 1 .869-.5c.154-.077.314-.158.478-.247a.362.362 0 0 0 .641-.231.37.37 0 0 0-.028-.141 5.37 5.37 0 0 0 .8-.675c.02-.02.133-.137.294-.335a.356.356 0 0 0 .191.055.362.362 0 0 0 .236-.637 7.2 7.2 0 0 0 .679-1.283h.046a.363.363 0 0 0 .18-.677 5.14 5.14 0 0 0 .183-1.342.362.362 0 0 0-.056-.714c-.019-.12-.042-.24-.071-.362a4.64 4.64 0 0 0-.284-.829.362.362 0 0 0-.188-.672.37.37 0 0 0-.159.037 5.33 5.33 0 0 0-.866-1.016.362.362 0 0 0-.283-.588.364.364 0 0 0-.277.128 7.1 7.1 0 0 0-1.04-.626.3.3 0 0 0 .006-.062.362.362 0 0 0-.657-.21 7.14 7.14 0 0 0-1.323-.316.362.362 0 0 0-.717-.068 6.7 6.7 0 0 0-.922.02c-.157.015-.325.038-.5.071a.363.363 0 0 0-.7.141.4.4 0 0 0 0 .048 2.92 2.92 0 0 0-1.11.7.362.362 0 0 0-.526.323.365.365 0 0 0 .113.263 2.95 2.95 0 0 0-.283 1.394.363.363 0 0 0 .075.707 5.6 5.6 0 0 0 .152.621 3.9 3.9 0 0 0 .278.689.362.362 0 0 0 .237.636.355.355 0 0 0 .162-.039 6.6 6.6 0 0 0 .682.683c.088.08.176.159.261.24a.35.35 0 0 0-.045.174.363.363 0 0 0 .363.362.37.37 0 0 0 .142-.029 2.74 2.74 0 0 1 .417.816 3.55 3.55 0 0 1 .138.627.362.362 0 0 0 .029.687 4.71 4.71 0 0 1-.283 1.416c-.019.051-.039.1-.06.153a.37.37 0 0 0-.089-.011.362.362 0 0 0-.231.641 3.39 3.39 0 0 1-.854.947.362.362 0 0 0-.632.241.4.4 0 0 0 .013.1 3.11 3.11 0 0 1-1.311.184.362.362 0 0 0-.683-.143 1.93 1.93 0 0 1-.665-.4 1.56 1.56 0 0 1-.243-.294.362.362 0 0 0-.216-.653h-.039a7.93 7.93 0 0 1-.116-1.364.362.362 0 0 0-.02-.709c-.015-.56-.027-1.056-.038-1.5a.362.362 0 0 0-.015-.7q-.006-.3-.012-.549c-.009-.468-.017-.841-.026-1.147a.362.362 0 0 0-.03-.7 3.28 3.28 0 0 0-.183-.977 6 6 0 0 0-.228-.561.363.363 0 0 0-.257-.619.4.4 0 0 0-.068.007A6.63 6.63 0 0 0 7.3 5.6a.354.354 0 0 0 .049-.18.361.361 0 0 0-.583-.287 2.96 2.96 0 0 0-1.4-.627.362.362 0 0 0-.709.068 2.32 2.32 0 0 0-1.149.946l-.022.033a.37.37 0 0 0-.13-.024.363.363 0 0 0-.2.664 3.43 3.43 0 0 0-.232.925 2.87 2.87 0 0 0 .01.65.362.362 0 0 0 .155.689H3.1a5.41 5.41 0 0 0 .82 1.414.362.362 0 0 0 .284.588.354.354 0 0 0 .159-.037 4.4 4.4 0 0 0 .693.67 3.1 3.1 0 0 1 .335.294.358.358 0 0 0-.077.222.363.363 0 0 0 .363.363.35.35 0 0 0 .144-.031 5.07 5.07 0 0 1 .645 1.343.362.362 0 0 0 .146.687 3.98 3.98 0 0 1 0 .976c-.007.061-.016.136-.029.221h-.011a.362.362 0 0 0-.146.694 3.32 3.32 0 0 1-.4.848.362.362 0 0 0-.442.512 2.7 2.7 0 0 1-.276.222 2.87 2.87 0 0 1-.609.327.362.362 0 0 0-.69.154v.024a3.84 3.84 0 0 1-1.286-.048.361.361 0 1 0-.023.16 3.98 3.98 0 0 0 1.354.048.362.362 0 0 0 .677-.174 3.02 3.02 0 0 0 .668-.355 3.1 3.1 0 0 0 .289-.232.363.363 0 0 0 .472-.547 3.5 3.5 0 0 0 .427-.9.362.362 0 0 0 .154-.682c.014-.094.024-.177.032-.243a4.14 4.14 0 0 0 0-1.026.362.362 0 0 0-.146-.694 5.23 5.23 0 0 0-.673-1.4.362.362 0 0 0-.274-.6.37.37 0 0 0-.16.037 3.4 3.4 0 0 0-.36-.318 4.17 4.17 0 0 1-.668-.645.362.362 0 0 0-.292-.594.37.37 0 0 0-.157.035 5.25 5.25 0 0 1-.783-1.358.362.362 0 0 0-.169-.68 2.72 2.72 0 0 1-.008-.6 3.28 3.28 0 0 1 .224-.884.4.4 0 0 0 .048 0 .362.362 0 0 0 .266-.608 2.2 2.2 0 0 1 1.058-.908.362.362 0 0 0 .694-.068 2.783 2.783 0 0 1 1.292.586.362.362 0 0 0 .322.527.36.36 0 0 0 .205-.063 6.55 6.55 0 0 1 .941 1.215.362.362 0 0 0 .218.651.35.35 0 0 0 .118-.02c.081.176.153.352.214.528a3.15 3.15 0 0 1 .174.931.362.362 0 0 0 .03.705c.009.3.017.676.026 1.143q.006.253.012.546a.362.362 0 0 0 .016.709c.01.44.022.936.037 1.5a.363.363 0 0 0 .02.7 7.76 7.76 0 0 0 .123 1.417.362.362 0 0 0 .194.668.37.37 0 0 0 .066-.006 1.7 1.7 0 0 0 .282.345 2.06 2.06 0 0 0 .736.441v.01a.362.362 0 0 0 .7.135 3.275 3.275 0 0 0 1.414-.2.361.361 0 0 0 .633-.24.35.35 0 0 0-.013-.1 3.45 3.45 0 0 0 .923-1.017.4.4 0 0 0 .083.009.362.362 0 0 0 .234-.639c.023-.056.046-.113.067-.172a4.83 4.83 0 0 0 .292-1.463.362.362 0 0 0-.03-.717 3.66 3.66 0 0 0-.144-.654 2.89 2.89 0 0 0-.439-.864.358.358 0 0 0 .088-.236.362.362 0 0 0-.362-.363.354.354 0 0 0-.21.068c-.085-.081-.173-.16-.26-.239a6.25 6.25 0 0 1-.665-.667.361.361 0 0 0-.381-.569 3.66 3.66 0 0 1-.267-.66 5.2 5.2 0 0 1-.145-.6.362.362 0 0 0-.072-.7 2.844 2.844 0 0 1 .259-1.3.4.4 0 0 0 .109.016.362.362 0 0 0 .288-.581 2.75 2.75 0 0 1 1.042-.653.362.362 0 0 0 .663-.181c.169-.033.333-.055.487-.07a6.4 6.4 0 0 1 .91-.019.362.362 0 0 0 .679.064 7.1 7.1 0 0 1 1.295.307.3.3 0 0 0-.006.061.363.363 0 0 0 .657.211 6.9 6.9 0 0 1 1.028.623.37.37 0 0 0-.011.088.362.362 0 0 0 .362.362.35.35 0 0 0 .155-.035 5.2 5.2 0 0 1 .867 1.018.357.357 0 0 0-.076.222.363.363 0 0 0 .362.363h.033a4.35 4.35 0 0 1 .281.816c.028.117.051.234.069.349a.362.362 0 0 0 .054.689 4.93 4.93 0 0 1-.175 1.3h-.026a.362.362 0 0 0-.2.666 6.97 6.97 0 0 1-.671 1.275.35.35 0 0 0-.092-.012.362.362 0 0 0-.306.555c-.161.2-.274.316-.294.336a5.3 5.3 0 0 1-.782.657.361.361 0 0 0-.6.272.4.4 0 0 0 .01.086c-.164.09-.324.17-.478.248a5.8 5.8 0 0 0-.92.534.362.362 0 0 0-.533.32.36.36 0 0 0 .051.184 2.17 2.17 0 0 0-.235.451 2.98 2.98 0 0 0-.188.906.362.362 0 0 0 .043.7 2.09 2.09 0 0 0 .562 1.139.362.362 0 0 0 .318.537.361.361 0 0 0 .312-.18 2.68 2.68 0 0 0 .776.107 3.5 3.5 0 0 0 .405-.024.361.361 0 0 0 .689-.142 4.4 4.4 0 0 0 1.019-.45.362.362 0 0 0 .584-.286.37.37 0 0 0-.019-.116 4.33 4.33 0 0 0 .831-.92.362.362 0 1 0 .205-.661z"/></svg>