<svg xmlns="http://www.w3.org/2000/svg" viewBox="0 0 24 24"><path fill="#44739e" d="M15.609 12.859a2.662 2.662 0 0 0-1.876-.121 3.19 3.19 0 0 0-1.817 3.236 3.432 3.432 0 0 0 1.3 2.2 1.82 1.82 0 0 0 1.311.336 1.793 1.793 0 0 0 1.335-.36 3.148 3.148 0 0 0 1.227-2.562 4.5 4.5 0 0 0-.193-1.239 3.75 3.75 0 0 0-1.287-1.49m-.264 5.06a2.356 2.356 0 0 1-1.576.06c-.349-.132-1.058-.841-1.058-1.058 0-.11.409-.156 1.66-.193.902-.012 1.708-.048 1.791-.06a.251.251 0 0 1 .22.085c.082.159-.617.941-1.037 1.169Zm1.311-2.141-.036.44h-4.21l-.036-.564a2.482 2.482 0 0 1 2.081-2.623 2.443 2.443 0 0 1 2.2 2.743Zm6.333-3.403-.037-7.7-.414-.428a2.37 2.37 0 0 0-.632-.493l-.019-.005c-.312-.089-17.93-.885-18.48-.898a6.4 6.4 0 0 0-.892.188 3.3 3.3 0 0 0-.908.358C1 3.889 1 3.889 1 12.038v.829c0 7.382 0 7.382.712 7.822l.05.031c.466.294.77.429 2.496.429 1.45 0 3.904-.094 8.3-.271 7.45-.313 9.24-.417 9.553-.563l.059-.025c.854-.371.854-.371.819-7.915m-20.24-.337c0 4.991 0 7.06-.077 7.59a.75.75 0 0 1-.174-.127c-.17-.17-.17-1.004-.17-7.492 0-5.418.012-7.328.143-7.48a.482.482 0 0 1 .266-.137h.012Zm5.17 7.649-4.07.153-.147-.188c-.148-.173-.172-.433-.172-1.852v-1.492h6.008l.053.347a4.818 4.818 0 0 0 1.8 2.883c-.74.039-1.976.095-3.472.149m2.884-2.378-.11.047-.014-.03a3.13 3.13 0 0 1-.296-1.677 3.2 3.2 0 0 1 .24-1.527l.11.044a4.865 4.865 0 0 0 .07 3.143m-1.249-2.45-.049.427-1.98.033-1.958.022V5.949l1.107.059c.681.034 3.684.153 6.764.253 3.475.126 5.731.22 6.036.252l.408.038v8.671h-1.333l-.051-.316a4.463 4.463 0 0 0-2.235-3.321c-.671-.382-.819-.393-2.213-.393a3.96 3.96 0 0 0-2.116.303 4.631 4.631 0 0 0-2.38 3.364m4.95 4.382h-.029a2.655 2.655 0 0 1-2.115-.962 4.228 4.228 0 0 1-.741-4.059 4.08 4.08 0 0 1 1.843-1.98 3.49 3.49 0 0 1 1.006-.129 3.19 3.19 0 0 1 1.192.191 4.023 4.023 0 0 1 1.62 1.684 5.25 5.25 0 0 1 .033 3.315 3.068 3.068 0 0 1-2.809 1.942Zm7.066-1.731a8.53 8.53 0 0 1-.056 1.54.3.3 0 0 1-.049.022 26.5 26.5 0 0 1-2.73.179l-1.852.061.067-.053a4.74 4.74 0 0 0 1.496-2.565l.097-.497 1.157-.045c.699-.012 1.475-.046 1.744-.061l.129-.008Zm0-2.284h-.723v-4.427c0-1.215-.009-2.401-.029-3.338-.031-1.481-.057-1.521-.11-1.595-.118-.177-.172-.258-7.914-.54-6.797-.253-7.7-.244-7.859-.22-.277.083-.33.098-.33 5.378v4.859H3.53v-5.265c0-4.325.017-5.445.165-5.653l.118-.177 1.86.068 1.421.062c1.76.075 4.62.199 7.37.322 3.779.17 6.691.351 7.004.409l.11.047Z"/></svg>