<svg xmlns="http://www.w3.org/2000/svg" fill="#44739e" viewBox="0 0 24 24"><path d="M.098 8.243c.854.001 22.996.001 23.805 0 .043 0 .097.043.097.088-.005.974-.001 4.782-.001 5.756 0 .134-.165.224-.274.295-.376.243-1.871 1.109-2.233 1.319-.051.029-.101.053-.154.053-.688.002-17.933.003-18.675 0-.053 0-.103-.024-.154-.053-.362-.21-1.857-1.077-2.233-1.319-.109-.07-.274-.16-.274-.295 0-.974.004-4.782-.001-5.756 0-.045.054-.088.097-.088m14.554 2.908c0-.696-.565-1.261-1.261-1.261h-2.783c-.696 0-1.261.565-1.261 1.261s.565 1.261 1.261 1.261h2.783c.696 0 1.261-.565 1.261-1.261"/></svg>