<svg xmlns="http://www.w3.org/2000/svg" viewBox="0 0 24 24"><path fill="#44739e" fill-rule="evenodd" d="M15.234 5.316h.503v-.458h-.503Zm-3.321 5.538c-.974-.016-1.908-.867-1.908-1.581V4.871H8.007l.052 4.402c0 1.713 1.622 3.507 3.987 3.507s3.95-1.612 3.95-4.505h-1.014v-.957h.951V6.254h-.937l-.014-.725h-.76v.725h.654v1.064h-.922V8.72c-.075 1.436-.888 2.154-2.041 2.134m-8.808 4.358a.073.073 0 0 0-.037.009l-1.603.874c-.077.041-.05.165.034.165h20.977c.086 0 .112-.125.035-.166l-1.584-.873a.07.07 0 0 0-.034-.009Zm5.74 1.746a.154.154 0 0 0-.114.052.183.183 0 0 0-.047.123v1.311c0 .095.071.174.161.174h5.774a.154.154 0 0 0 .113-.051.183.183 0 0 0 .047-.123v-1.311a.183.183 0 0 0-.047-.123.154.154 0 0 0-.113-.052ZM23 16.566a.18.18 0 0 0-.012-.067.17.17 0 0 0-.035-.057.16.16 0 0 0-.052-.038.15.15 0 0 0-.061-.014H1.16a.15.15 0 0 0-.061.014.16.16 0 0 0-.052.038.17.17 0 0 0-.035.057.19.19 0 0 0-.012.067v2.401c0 .096.072.175.16.175h21.68a.15.15 0 0 0 .061-.013.16.16 0 0 0 .052-.038.17.17 0 0 0 .035-.057.18.18 0 0 0 .012-.067Zm-20.216.691a.183.183 0 0 0-.047-.123.154.154 0 0 0-.113-.051H1.581a.154.154 0 0 0-.113.051.183.183 0 0 0-.047.123v1.048c0 .096.071.175.16.175h1.043a.154.154 0 0 0 .113-.051.183.183 0 0 0 .047-.124Zm13.198-.277a.068.068 0 0 0-.017-.046.058.058 0 0 0-.043-.019h-.12a.058.058 0 0 0-.042.019.068.068 0 0 0-.018.046.07.07 0 0 1-.017.047.055.055 0 0 1-.044.019h-.059a.116.116 0 0 0-.085.038.138.138 0 0 0-.036.092v.176c0 .096.072.175.16.175h.402c.042 0 .083-.019.113-.052a.183.183 0 0 0 .047-.123v-.176a.138.138 0 0 0-.036-.092.116.116 0 0 0-.085-.038h-.059a.055.055 0 0 1-.044-.019.07.07 0 0 1-.017-.047m.642 0c0-.035.027-.065.06-.065h.12c.034 0 .061.03.061.065 0 .037.026.066.06.066h.06c.067 0 .12.059.12.13v.176a.183.183 0 0 1-.047.123.154.154 0 0 1-.113.052h-.401a.154.154 0 0 1-.114-.052.183.183 0 0 1-.047-.123v-.176c0-.071.055-.13.121-.13h.061a.057.057 0 0 0 .042-.019.06.06 0 0 0 .013-.022.07.07 0 0 0 .004-.025m1.163 0a.07.07 0 0 0-.018-.046.056.056 0 0 0-.043-.019h-.119a.055.055 0 0 0-.023.005.06.06 0 0 0-.02.014.068.068 0 0 0-.018.046.07.07 0 0 1-.004.025.06.06 0 0 1-.013.022.06.06 0 0 1-.02.014.055.055 0 0 1-.023.005h-.06a.116.116 0 0 0-.085.039.138.138 0 0 0-.035.091v.176c0 .096.071.175.16.175h.402a.154.154 0 0 0 .113-.052.183.183 0 0 0 .047-.123v-.176a.138.138 0 0 0-.036-.092.116.116 0 0 0-.084-.038h-.061a.057.057 0 0 1-.043-.019.06.06 0 0 1-.013-.022.07.07 0 0 1-.004-.025m.641 0c0-.035.027-.065.061-.065h.12c.033 0 .06.03.06.065 0 .037.027.066.06.066h.061c.066 0 .12.059.12.13v.176a.183.183 0 0 1-.047.123.154.154 0 0 1-.113.052h-.401a.154.154 0 0 1-.114-.052.183.183 0 0 1-.047-.123v-.176c0-.071.054-.13.12-.13h.06a.057.057 0 0 0 .043-.019.06.06 0 0 0 .013-.022.07.07 0 0 0 .004-.025m2.046.787a.07.07 0 0 0-.004-.025.06.06 0 0 0-.013-.022.058.058 0 0 0-.044-.019h-.12a.058.058 0 0 0-.042.019.068.068 0 0 0-.018.046.07.07 0 0 1-.004.026.064.064 0 0 1-.033.036.055.055 0 0 1-.024.004h-.059a.116.116 0 0 0-.085.038.138.138 0 0 0-.036.092v.176c0 .096.073.174.161.174h.401a.154.154 0 0 0 .113-.051.183.183 0 0 0 .047-.123v-.177a.138.138 0 0 0-.036-.092.116.116 0 0 0-.084-.038h-.06a.055.055 0 0 1-.023-.005.06.06 0 0 1-.02-.014.06.06 0 0 1-.013-.022.07.07 0 0 1-.005-.025Zm-2.046.567c0 .037.027.065.061.065h.12a.058.058 0 0 0 .043-.019.068.068 0 0 0 .017-.046c0-.036.027-.066.06-.066h.061a.116.116 0 0 0 .084-.038.138.138 0 0 0 .036-.092v-.177a.183.183 0 0 0-.047-.123.154.154 0 0 0-.113-.051h-.401a.154.154 0 0 0-.114.051.183.183 0 0 0-.047.123v.176c0 .072.054.13.12.13h.06c.034 0 .06.031.06.067m-.681 0a.07.07 0 0 1-.004.025.06.06 0 0 1-.014.022.06.06 0 0 1-.043.018h-.12a.058.058 0 0 1-.042-.019.068.068 0 0 1-.018-.046.07.07 0 0 0-.017-.047.06.06 0 0 0-.019-.014.055.055 0 0 0-.023-.005h-.061a.116.116 0 0 1-.085-.038.138.138 0 0 1-.036-.092v-.177c0-.096.073-.174.161-.174h.401c.089 0 .16.078.16.174v.176a.138.138 0 0 1-.035.091.116.116 0 0 1-.084.039h-.061a.06.06 0 0 0-.043.019.06.06 0 0 0-.013.022.07.07 0 0 0-.004.026m-1.123 0c0 .037.027.065.06.065h.12a.057.057 0 0 0 .043-.018.066.066 0 0 0 .018-.047c0-.036.026-.066.06-.066h.06a.116.116 0 0 0 .084-.038.138.138 0 0 0 .036-.092v-.177a.183.183 0 0 0-.047-.123.154.154 0 0 0-.113-.051h-.401a.154.154 0 0 0-.114.051.183.183 0 0 0-.047.123v.176c0 .072.055.13.121.13h.061c.032 0 .059.031.059.067m-.642 0a.068.068 0 0 1-.017.046.058.058 0 0 1-.043.019h-.12a.058.058 0 0 1-.042-.019.068.068 0 0 1-.018-.046.07.07 0 0 0-.004-.025.06.06 0 0 0-.013-.022.055.055 0 0 0-.044-.019h-.059a.116.116 0 0 1-.085-.038.138.138 0 0 1-.036-.092v-.177c0-.096.072-.174.16-.174h.402c.089 0 .16.078.16.174v.176a.138.138 0 0 1-.036.092.116.116 0 0 1-.085.038h-.059a.055.055 0 0 0-.024.005.06.06 0 0 0-.02.014.06.06 0 0 0-.013.022.07.07 0 0 0-.004.026m5.814-1.244a.183.183 0 0 0-.046-.123.154.154 0 0 0-.113-.052h-.482a.154.154 0 0 0-.113.051.183.183 0 0 0-.047.124v.174c0 .097.072.175.16.175h.482a.154.154 0 0 0 .113-.051.183.183 0 0 0 .047-.124Zm-.801.96c0-.097.072-.174.16-.174h.482c.088 0 .16.077.16.174v.175a.183.183 0 0 1-.047.123.154.154 0 0 1-.113.051h-.482a.154.154 0 0 1-.113-.051.183.183 0 0 1-.047-.123Zm-12.232.655a.15.15 0 0 1-.06-.013.16.16 0 0 1-.052-.038.17.17 0 0 1-.035-.057.18.18 0 0 1-.012-.067v-1.484c0-.097.072-.174.161-.174H14.7c.088 0 .16.077.16.174v1.484a.183.183 0 0 1-.047.124.154.154 0 0 1-.113.051Z" clip-rule="evenodd"/></svg>