<svg xmlns="http://www.w3.org/2000/svg" fill="none" viewBox="0 0 24 24"><path fill="#44739e" fill-rule="evenodd" d="M15.5254 4.7158h.5491v-.4992h-.5491zm-3.6217 6.0409c-1.0627-.0181-2.0817-.9453-2.0817-1.7249V4.2301H7.6426l.057 4.8017c0 1.8691 1.769 3.8259 4.3483 3.8259s4.3095-1.7583 4.3095-4.914h-1.1063V6.8993h1.0375V5.7388h-1.0229l-.0146-.7903h-.8294v.7903h.7141v1.1605h-1.006v1.5296c-.0816 1.5664-.9684 2.3493-2.2261 2.3278m-9.608 4.7532a.08.08 0 0 0-.04.01l-1.7483.9531c-.0846.0448-.0549.1804.0365.1804l22.8813.0001c.0937 0 .1222-.1369.0377-.1817l-1.7271-.952a.08.08 0 0 0-.0378-.01zm6.2608 1.905a.168.168 0 0 0-.1236.0558.2.2 0 0 0-.0513.1346v1.4296c0 .1045.0777.1904.1749.1904h6.2985a.168.168 0 0 0 .1236-.0558.2.2 0 0 0 .0512-.1346v-1.4296a.2.2 0 0 0-.0512-.1346.168.168 0 0 0-.1236-.0558zm15.44-.4279a.2.2 0 0 0-.013-.0733.19.19 0 0 0-.0378-.0621.17.17 0 0 0-.0568-.0416.16.16 0 0 0-.0672-.0146H.1748a.16.16 0 0 0-.0671.0146.17.17 0 0 0-.0569.0416.19.19 0 0 0-.0378.0621.21.21 0 0 0-.013.0733v2.6191c0 .1045.0788.1904.1748.1904h23.6469a.16.16 0 0 0 .0669-.0145.175.175 0 0 0 .0567-.0413.19.19 0 0 0 .0379-.0617.2.2 0 0 0 .0133-.0729zm-22.0505.7537a.2.2 0 0 0-.0512-.1346.168.168 0 0 0-.1236-.0558H.6342a.168.168 0 0 0-.1236.0558.2.2 0 0 0-.0512.1346v1.1435c0 .1045.0777.1903.1748.1903h1.137a.168.168 0 0 0 .1236-.0557.2.2 0 0 0 .0512-.1346zm14.3956-.3021a.074.074 0 0 0-.019-.0501.063.063 0 0 0-.0461-.0208h-.1314a.063.063 0 0 0-.0461.0208.074.074 0 0 0-.019.0501.077.077 0 0 1-.0191.0514.06.06 0 0 1-.0472.0208h-.0652a.126.126 0 0 0-.0925.0415.15.15 0 0 0-.0389.1003v.1917c0 .1045.0789.1903.1749.1903h.4376c.0464 0 .0909-.02.1236-.0557a.2.2 0 0 0 .0512-.1346v-.1917a.15.15 0 0 0-.0388-.1003.126.126 0 0 0-.0926-.0415h-.0651a.06.06 0 0 1-.0472-.0208.077.077 0 0 1-.0191-.0514m.7005 0c0-.0385.0297-.0709.0651-.0709h.1314c.0366 0 .0663.0324.0663.0709 0 .0399.0286.0722.0652.0722h.0651c.0731 0 .1314.0635.1314.1418v.1917a.2.2 0 0 1-.0512.1346.168.168 0 0 1-.1236.0557h-.4377a.168.168 0 0 1-.1236-.0557.2.2 0 0 1-.0512-.1346v-.1917c0-.0783.0594-.1418.1314-.1418h.0663a.062.062 0 0 0 .0464-.0212.07.07 0 0 0 .0141-.0234.08.08 0 0 0 .0046-.0276m1.2684 0a.075.075 0 0 0-.0195-.0506.061.061 0 0 0-.0468-.0203h-.1303a.06.06 0 0 0-.0252.005.07.07 0 0 0-.0216.0153.074.074 0 0 0-.0194.0506.08.08 0 0 1-.0047.0276.07.07 0 0 1-.014.0234.07.07 0 0 1-.0213.0157.06.06 0 0 1-.0252.0055h-.0662a.126.126 0 0 0-.0918.0419.15.15 0 0 0-.0385.0999v.1917c0 .1045.0777.1903.1748.1903h.4377a.168.168 0 0 0 .1236-.0557.2.2 0 0 0 .0512-.1346v-.1917a.15.15 0 0 0-.0389-.1003.126.126 0 0 0-.0925-.0415h-.0663a.062.062 0 0 1-.0464-.0212.07.07 0 0 1-.0141-.0234.08.08 0 0 1-.0046-.0276m.6993 0c0-.0385.0297-.0709.0663-.0709h.1314c.0354 0 .0651.0324.0651.0709 0 .0399.0297.0722.0652.0722h.0662c.072 0 .1315.0635.1315.1418v.1917a.2.2 0 0 1-.0513.1346.168.168 0 0 1-.1236.0557h-.4376a.168.168 0 0 1-.1237-.0557.2.2 0 0 1-.0512-.1346v-.1917c0-.0783.0583-.1418.1303-.1418h.0663a.062.062 0 0 0 .0464-.0212.07.07 0 0 0 .0141-.0234.08.08 0 0 0 .0046-.0276m2.2317.8586a.08.08 0 0 0-.0047-.0278.07.07 0 0 0-.0144-.0236.063.063 0 0 0-.0472-.0208h-.1314a.063.063 0 0 0-.0461.0208.074.074 0 0 0-.019.0501.08.08 0 0 1-.0048.0278.07.07 0 0 1-.036.0392.06.06 0 0 1-.0255.0052h-.0651a.126.126 0 0 0-.0926.0415.15.15 0 0 0-.0388.1003v.1917c0 .1045.0788.1903.1748.1903h.4376a.168.168 0 0 0 .1237-.0557.2.2 0 0 0 .0512-.1346v-.1929a.15.15 0 0 0-.0389-.1004.126.126 0 0 0-.0925-.0415h-.0652a.06.06 0 0 1-.0255-.0051.07.07 0 0 1-.0217-.0156.07.07 0 0 1-.0143-.0236.08.08 0 0 1-.0048-.0278zm-2.2317.6184c0 .0398.0297.0709.0663.0709h.1314a.063.063 0 0 0 .0461-.0208.074.074 0 0 0 .019-.0501c0-.0399.0297-.0722.0652-.0722h.0662a.126.126 0 0 0 .0926-.0415.15.15 0 0 0 .0389-.1003v-.1929a.2.2 0 0 0-.0513-.1346.168.168 0 0 0-.1236-.0558h-.4376a.168.168 0 0 0-.1237.0558.2.2 0 0 0-.0512.1346v.1916c0 .0784.0583.1419.1303.1419h.0663c.0365 0 .0651.0335.0651.0734m-.7427 0a.08.08 0 0 1-.0051.0274.07.07 0 0 1-.0144.0232.064.064 0 0 1-.0468.0203h-.1314a.063.063 0 0 1-.0461-.0208.074.074 0 0 1-.0191-.0501.076.076 0 0 0-.0186-.051.07.07 0 0 0-.0213-.0157.06.06 0 0 0-.0252-.0055h-.0663a.126.126 0 0 1-.0925-.0415.15.15 0 0 1-.0389-.1003v-.1929c0-.1045.0789-.1904.1749-.1904h.4376c.0971 0 .1748.0859.1748.1904v.1916a.15.15 0 0 1-.0384.0999.127.127 0 0 1-.0918.042h-.0663a.064.064 0 0 0-.0465.0212.07.07 0 0 0-.014.0234.08.08 0 0 0-.0046.0288m-1.225 0c0 .0398.0297.0709.0651.0709h.1314a.062.062 0 0 0 .0468-.0203.072.072 0 0 0 .0195-.0506c0-.0399.0286-.0722.0652-.0722h.0651a.126.126 0 0 0 .0925-.0415.15.15 0 0 0 .0389-.1003v-.1929a.2.2 0 0 0-.0512-.1346.168.168 0 0 0-.1236-.0558h-.4377a.168.168 0 0 0-.1236.0558.2.2 0 0 0-.0512.1346v.1916c0 .0784.0594.1419.1314.1419h.0663c.0354 0 .0651.0335.0651.0734m-.7005 0a.074.074 0 0 1-.019.0501.063.063 0 0 1-.0461.0208h-.1314a.063.063 0 0 1-.0461-.0208.074.074 0 0 1-.019-.0501.08.08 0 0 0-.0048-.0279.07.07 0 0 0-.0143-.0235.06.06 0 0 0-.0472-.0208h-.0652a.126.126 0 0 1-.0925-.0415.15.15 0 0 1-.0389-.1003v-.1929c0-.1045.0789-.1904.1749-.1904h.4376c.0971 0 .1748.0859.1748.1904v.1916a.15.15 0 0 1-.0388.1004.127.127 0 0 1-.0926.0415h-.0651a.06.06 0 0 0-.0255.0051.07.07 0 0 0-.0217.0156.07.07 0 0 0-.0143.0236.08.08 0 0 0-.0048.0291m6.342-1.3575a.2.2 0 0 0-.0508-.1342.168.168 0 0 0-.1229-.0562h-.5257a.168.168 0 0 0-.1236.0558.2.2 0 0 0-.0512.1346v.1904c0 .1057.0789.1903.1748.1903h.5257a.168.168 0 0 0 .1236-.0557.2.2 0 0 0 .0512-.1346zm-.8742 1.0476c0-.1057.0789-.1903.1748-.1903h.5257c.096 0 .1748.0846.1748.1903v.1904a.2.2 0 0 1-.0512.1346.168.168 0 0 1-.1236.0558h-.5257a.168.168 0 0 1-.1236-.0558.2.2 0 0 1-.0512-.1346zm-13.342.7142a.16.16 0 0 1-.065-.0141.175.175 0 0 1-.0571-.0412.19.19 0 0 1-.0382-.0619.2.2 0 0 1-.0134-.0731v-1.6188c0-.1058.0788-.1904.176-.1904h6.4733c.096 0 .1748.0846.1748.1904v1.6188a.2.2 0 0 1-.0512.1346.168.168 0 0 1-.1236.0557z" clip-rule="evenodd"/></svg>