<svg xmlns="http://www.w3.org/2000/svg" fill="#44739e" viewBox="0 0 24 24"><path d="M11.961 8.2a3.618 3.618 0 1 0 3.618 3.618A3.617 3.617 0 0 0 11.961 8.2m1.065 3.315a6.9 6.9 0 0 1-.07.843 1.008 1.008 0 0 1-.457.533.706.706 0 0 1-.484.1.982.982 0 0 1-.753-.245c-.279-.251-.307-.364-.3-1.232a5.6 5.6 0 0 1 .038-.821c.041-.076.227-.093.34-.032a.78.78 0 0 0 .175.059c.164.035.346.439.231.511-.037.022-.035.072.007.179a3 3 0 0 1 .038.445c.015.4.039.458.209.459s.175-.066.175-.686a1.7 1.7 0 0 1 .069-.729.558.558 0 0 1 .51-.275c.134 0 .178.019.231.1s.065.183.041.795zm8.63-2.115a8.44 8.44 0 0 0-.756-1.96 10.25 10.25 0 0 0-2.611-3.3 10.59 10.59 0 0 0-3.831-1.91 7.36 7.36 0 0 0-2.3-.276 10.5 10.5 0 0 0-1.436.043 10.224 10.224 0 0 0-4.971 2.119 12.8 12.8 0 0 0-1.48 1.456A10.54 10.54 0 0 0 2.2 10.016a10.046 10.046 0 0 0 8.391 11.958 13.13 13.13 0 0 0 2.831 0 9.937 9.937 0 0 0 4.913-2.174 9.83 9.83 0 0 0 2.623-3.333 10.057 10.057 0 0 0 .698-7.067m-9.695 7.4a4.974 4.974 0 1 1 4.975-4.974 4.974 4.974 0 0 1-4.975 4.974m.391-5.834a9 9 0 0 0-.03 1.506c.054 0 .167-.147.137-.18-.014-.016 0-.017.023 0s.089-.015.148-.078c.141-.153.132-.016-.01.143-.093.1-.144.125-.344.142a.98.98 0 0 1-.4-.037c-.092-.032-.167-.049-.167-.037a.7.7 0 0 0 .091.142c.155.208.166.235.071.184-.188-.1-.215-.207-.212-.81a4.2 4.2 0 0 1 .029-.606c.043-.07-.041-.047-.111.03-.047.052-.065.146-.065.337 0 .166-.014.255-.039.24a.59.59 0 0 1-.04-.275c0-.209.016-.269.1-.367.1-.117.125-.221.066-.258-.018-.011-.065.036-.105.1-.1.165-.13.064-.036-.11s.04-.232-.065-.1c-.058.076-.075.166-.078.412a3.7 3.7 0 0 1-.033.472c-.025.13-.036.076-.062-.3a3.85 3.85 0 0 1-.008-.58c.026-.128 0-.236-.058-.236a.071.071 0 0 0-.054.049c-.01.028-.013.389-.009.8l.009.754.119.169a.789.789 0 0 0 .585.351.9.9 0 0 0 1.008-.437c.068-.133.077-.233.077-.819a6.7 6.7 0 0 0-.023-.729c-.054-.124-.442-.03-.514.128M12 7.2a4.621 4.621 0 1 0 4.62 4.62A4.619 4.619 0 0 0 12 7.2m3.521 6.279a3.933 3.933 0 0 1-5.29 1.877 3.71 3.71 0 0 1-1.143-.851 3.9 3.9 0 0 1-.97-1.792 4.465 4.465 0 0 1 0-1.784A3.991 3.991 0 0 1 11.647 7.9a2.6 2.6 0 0 1 .708.016 3.951 3.951 0 0 1 3.127 2.181 3.845 3.845 0 0 1 .039 3.384z"/></svg>