<svg xmlns="http://www.w3.org/2000/svg" viewBox="0 0 24 24"><path fill="#44739e" d="M17.921 1H6.079A5.094 5.094 0 0 0 1 6.079v11.842A5.094 5.094 0 0 0 6.079 23h11.842A5.094 5.094 0 0 0 23 17.921V6.079A5.094 5.094 0 0 0 17.921 1M7.877 5.4H8.7v.816h-.823Zm1.65 1.233v.817H8.7v-.818ZM8.7 7.659v.821h-.817v-.821ZM7.057 6.224h.816v.816h-.816Zm.816 2.661v.817h-.816v-.817ZM5.4 4.574h.826V5.4H5.4Zm0 8.989V6.83h.826v4.51h.824v-.817h.825v1.82H8.7v-3.05h.825v5.949A5.06 5.06 0 0 0 12 19.426c-4.149 0-6.6-2.514-6.6-5.863m13.2 0c0 3.167-2.2 5.589-5.948 5.84l-.49-.271a4.84 4.84 0 0 1-2.188-2.923 5.34 5.34 0 0 0 2.606.734c3.053.137 5.128-1.157 6.02-4.07Zm0-1.829-.32 1.045a4.847 4.847 0 0 1-3.933 3.724 6.67 6.67 0 0 0 .123-1.261V7.387c0-1.37.389-2.805 4.13-2.805Z"/></svg>