<svg xmlns="http://www.w3.org/2000/svg" viewBox="0 0 24 24"><path fill="#44739e" d="M18.302 1H5.701a.531.531 0 0 0-.531.531V20.91A2.09 2.09 0 0 0 7.26 23h9.377a2.193 2.193 0 0 0 2.193-2.193V1.534A.533.533 0 0 0 18.302 1m-5.083 9.769h.184v.185h-.184Zm-2.261-6.836h2.133v.42h-2.133Zm2.537 8.241a2.2 2.2 0 0 1-.037.42 1.3 1.3 0 0 1-.064.206 1.4 1.4 0 0 1-.245.412v.007c-.014.016-.028.033-.043.049l-.056.055a1.46 1.46 0 0 1-.862.401c-.039 0-.117.009-.156.009s-.115 0-.154-.009a1.46 1.46 0 0 1-.863-.401l-.055-.055-.057-.048v-.01a1.43 1.43 0 0 1-.154-.22 1.54 1.54 0 0 1-.093-.194 1.3 1.3 0 0 1-.062-.205 2.2 2.2 0 0 1-.039-.42V10.79h.736v1.401c0 .041 0 .082.007.121a.8.8 0 0 0 .089.314c.015.025.031.052.048.076a.742.742 0 0 0 .49.289 1 1 0 0 0 .1.007c.025 0 .076 0 .101-.007a.737.737 0 0 0 .488-.289.7.7 0 0 0 .049-.076.8.8 0 0 0 .089-.314c0-.039.006-.08.008-.121v-.504h.368v.368h.367Zm0-.485h-.367v-.368h-.276v-.276h.276v.276h.367Z"/></svg>