<svg xmlns="http://www.w3.org/2000/svg" viewBox="0 0 24 24"><path fill="#44739e" d="M11.96 7.843a3.959 3.959 0 1 0 3.959 3.96 3.958 3.958 0 0 0-3.959-3.96m1.165 3.628a7.6 7.6 0 0 1-.076.923 1.103 1.103 0 0 1-.501.583.773.773 0 0 1-.529.109 1.075 1.075 0 0 1-.824-.268c-.305-.275-.336-.398-.328-1.348a6.1 6.1 0 0 1 .041-.898c.045-.084.249-.102.372-.035a.85.85 0 0 0 .192.064c.179.038.378.48.252.559-.04.024-.038.079.008.196a3.3 3.3 0 0 1 .042.487c.016.438.042.501.228.502s.192-.072.192-.75a1.86 1.86 0 0 1 .075-.798.611.611 0 0 1 .559-.301c.146 0 .194.021.252.109s.071.201.045.87Zm9.444-2.314a9.24 9.24 0 0 0-.827-2.145 11.22 11.22 0 0 0-2.858-3.611 11.59 11.59 0 0 0-4.192-2.09 8.05 8.05 0 0 0-2.517-.302 11.5 11.5 0 0 0-1.571.047 11.19 11.19 0 0 0-5.44 2.318 14 14 0 0 0-1.619 1.594 11.534 11.534 0 0 0-2.267 4.863 10.993 10.993 0 0 0 9.183 13.085 14.37 14.37 0 0 0 3.098 0 10.874 10.874 0 0 0 5.376-2.379 10.76 10.76 0 0 0 2.87-3.647 11.005 11.005 0 0 0 .764-7.733M11.96 17.254a5.443 5.443 0 1 1 5.444-5.443 5.443 5.443 0 0 1-5.444 5.443m.428-6.384a9.85 9.85 0 0 0-.033 1.648c.059 0 .183-.161.15-.197-.016-.017 0-.018.025 0s.097-.016.162-.085c.154-.167.144-.018-.011.156-.102.11-.158.137-.377.156a1.07 1.07 0 0 1-.437-.041c-.101-.035-.183-.053-.183-.04a.77.77 0 0 0 .1.155c.169.228.181.257.077.202-.205-.11-.235-.227-.232-.887a4.6 4.6 0 0 1 .032-.663c.047-.077-.045-.051-.121.033-.052.057-.072.16-.072.369 0 .181-.015.279-.042.262a.646.646 0 0 1-.044-.301c0-.228.017-.294.109-.401.11-.128.137-.242.073-.283-.02-.012-.072.04-.115.11-.11.18-.143.07-.04-.12s.044-.254-.071-.11c-.063.083-.082.182-.085.451a4.05 4.05 0 0 1-.036.516c-.028.143-.04.084-.068-.328a4.2 4.2 0 0 1-.009-.635c.029-.14 0-.258-.063-.258a.078.078 0 0 0-.059.054c-.011.03-.015.426-.01.875l.01.825.13.185a.863.863 0 0 0 .64.384.985.985 0 0 0 1.103-.478c.074-.145.084-.255.084-.896a7.3 7.3 0 0 0-.025-.798c-.059-.135-.484-.033-.562.14m-.386-4.121a5.057 5.057 0 1 0 5.056 5.056 5.055 5.055 0 0 0-5.056-5.056m3.853 6.871a4.304 4.304 0 0 1-5.788 2.054 4.06 4.06 0 0 1-1.251-.931 4.27 4.27 0 0 1-1.062-1.961 4.89 4.89 0 0 1 0-1.952 4.367 4.367 0 0 1 3.862-3.315 2.85 2.85 0 0 1 .775.018 4.324 4.324 0 0 1 3.422 2.386 4.208 4.208 0 0 1 .042 3.703Z"/></svg>