<svg xmlns="http://www.w3.org/2000/svg" fill="none" viewBox="0 0 24 24"><path fill="#44739e" fill-rule="evenodd" d="M17.5307 17.5551c.1526.9927-1.4238 3.4508-2.3497 3.7802H8.9948c-1.3835-.734-2.4868-3.1191-2.5358-4.0685V7.4023c.0874-1.775 2.4102-4.7755 5.6011-4.7372 2.9393.0352 5.311 2.954 5.4706 4.7372.0035 1.2753-.0072 2.9529-.0175 4.5778v.0002c-.0171 2.6947-.0333 5.2446.0175 5.5748m-8.7768-4.288V8.5976c.6345-1.5344 1.24-2.179 3.2682-2.5083 1.7492.2417 2.5323.794 3.2241 2.5083v4.5172c-.5301 1.5182-1.1374 2.2938-3.2241 2.6654-1.6849-.2547-2.434-.7453-3.2682-2.5131M12 17.903a.2095.2095 0 0 0-.2094.2094v1.5993a.2094.2094 0 1 0 .4188 0v-1.5993A.2094.2094 0 0 0 12 17.903" clip-rule="evenodd"/></svg>