<svg xmlns="http://www.w3.org/2000/svg" viewBox="0 0 24 24"><path fill="#44739e" d="M4.676 3.444h1.209v1.209H4.676Zm8.18 15.874a7.907 7.907 0 0 1-3.86-1.086 7.16 7.16 0 0 0 3.241 4.328l.726.4c5.556-.37 8.808-3.959 8.808-8.647v-1.016c-1.321 4.309-4.394 6.225-8.915 6.021M8.34 16.799v-8.81H7.117v4.509H5.892v-2.7H4.671v1.209H3.447V4.345H2.224v9.967C2.224 19.27 5.853 23 11.998 23a7.498 7.498 0 0 1-3.658-6.201M7.117 4.048H8.34v1.21H7.117ZM2.224 1h1.223v1.222H2.224Zm2.453 6.384h1.21v1.21h-1.21ZM5.899 5.57h1.21v1.21h-1.21Zm-.006-3.348h1.224V3.43H5.893Zm9.761 2.944v11.632a9.85 9.85 0 0 1-.181 1.869c2.938-.534 4.855-2.35 5.829-5.514l.474-1.547V1.013c-5.545 0-6.122 2.124-6.122 4.153"/></svg>