<svg xmlns="http://www.w3.org/2000/svg" viewBox="0 0 24 24"><path fill="#44739e" d="M18.236 14.764a.63.63 0 0 0-.178 0H5.883c-.234 0-.234 0-.235.226v.583c0 .229 0 .229.23.229h12.47c0-.33 0-.634-.006-.935 0-.04-.064-.089-.106-.103m4.22-4.906a3.222 3.222 0 0 0-3.238-1.521 3.596 3.596 0 0 0-2.261 1.209 7.28 7.28 0 0 0-1.704 3.26c-.076.3-.123.608-.189.939.352 0 .653-.006.954 0 .135 0 .17-.049.191-.171a6.494 6.494 0 0 1 1.328-3.03 2.749 2.749 0 0 1 2.016-1.146 2.251 2.251 0 0 1 2.336 2.134c.015.22 0 .449 0 .691l1.014.22a.66.66 0 0 0 .034-.092 3.394 3.394 0 0 0-.481-2.493m-15.795.945a6.81 6.81 0 0 1 1.143 2.806c.009.05.061.133.094.134.33.011.667.007 1.013.007a1.1 1.1 0 0 0 0-.14 7.98 7.98 0 0 0-.449-1.731 6.46 6.46 0 0 0-1.848-2.731 3.383 3.383 0 0 0-2.708-.809 3.218 3.218 0 0 0-2.594 1.954 3.337 3.337 0 0 0-.228 2.152l1.053-.227c-.014-.174-.039-.33-.037-.484a3.1 3.1 0 0 1 .048-.482 2.239 2.239 0 0 1 3.025-1.698 3.33 3.33 0 0 1 1.488 1.249m7.353 6.118c-.021-.087-.058-.11-.141-.11h-.989c.009.071.012.11.019.143a6.18 6.18 0 0 0 .827 2.109.192.192 0 0 1-.007.245 4.685 4.685 0 0 1-1.63 1.472.244.244 0 0 1-.201-.008 4.7 4.7 0 0 1-1.613-1.468.191.191 0 0 1 0-.245 5.94 5.94 0 0 0 .697-1.576c.059-.213.11-.432.158-.66h-1.109a6.07 6.07 0 0 1-1.031 2.188.242.242 0 0 0 0 .198 5.5 5.5 0 0 0 2.922 2.795.228.228 0 0 0 .166 0 5.543 5.543 0 0 0 2.936-2.806.186.186 0 0 0-.022-.22 5.41 5.41 0 0 1-.982-2.057m-5.023-6.305a14.7 14.7 0 0 1 .935 2.42c.058.233.101.469.149.701h1.078c0-.068 0-.126-.011-.183a9.94 9.94 0 0 0-.748-2.481c-.316-.744-.648-1.482-.937-2.235a3.383 3.383 0 0 1-.197-1.921 3.95 3.95 0 0 1 1.44-2.278c.412-.34.827-.675 1.242-1.013a.5.5 0 0 1 .07-.04c.11.092.207.182.31.268.463.388.961.741 1.383 1.17a3.326 3.326 0 0 1 .926 3.514 18.6 18.6 0 0 1-.704 1.803 14.46 14.46 0 0 0-.96 2.64c-.054.248-.091.501-.137.77h1.092c.012-.047.028-.087.034-.128a9.46 9.46 0 0 1 .739-2.301c.297-.692.612-1.379.874-2.089a4.496 4.496 0 0 0 .158-2.871 5.197 5.197 0 0 0-1.942-2.734 10.84 10.84 0 0 1-1.667-1.506 1.5 1.5 0 0 1-.094-.142c-.07.074-.11.11-.144.151-.454.422-.905.846-1.364 1.263a15.2 15.2 0 0 0-1.178 1.057A4.436 4.436 0 0 0 8.223 8.51a10.5 10.5 0 0 0 .768 2.106"/></svg>