<svg xmlns="http://www.w3.org/2000/svg" fill="#44739e" viewBox="0 0 24 24"><path d="M17.678 14.515a.57.57 0 0 0-.161 0H6.446c-.213 0-.213 0-.214.206v.53c0 .208 0 .208.209.208H17.78c0-.3 0-.576-.005-.85 0-.036-.058-.081-.097-.094m3.838-4.461a2.93 2.93 0 0 0-2.945-1.383 3.27 3.27 0 0 0-2.056 1.1 6.62 6.62 0 0 0-1.549 2.964c-.069.273-.112.553-.172.854.32 0 .594-.006.868 0 .122 0 .154-.045.173-.156a5.905 5.905 0 0 1 1.208-2.755 2.5 2.5 0 0 1 1.833-1.042A2.047 2.047 0 0 1 21 11.577c.014.2 0 .408 0 .628l.922.2a.6.6 0 0 0 .031-.084 3.086 3.086 0 0 0-.437-2.267m-14.363.86a6.19 6.19 0 0 1 1.04 2.551c.008.046.055.121.085.122.3.01.607.006.921.006a1 1 0 0 0 0-.127 7.26 7.26 0 0 0-.408-1.574 5.874 5.874 0 0 0-1.68-2.483 3.076 3.076 0 0 0-2.463-.736A2.926 2.926 0 0 0 2.29 10.45a3.034 3.034 0 0 0-.208 1.957l.958-.207c-.013-.158-.036-.3-.034-.44a2.8 2.8 0 0 1 .044-.438A2.036 2.036 0 0 1 5.8 9.778a3.027 3.027 0 0 1 1.353 1.136m6.686 5.563c-.019-.079-.052-.1-.128-.1h-.899c.008.064.011.1.017.13a5.62 5.62 0 0 0 .752 1.917.175.175 0 0 1-.006.223 4.26 4.26 0 0 1-1.482 1.339.222.222 0 0 1-.183-.008 4.274 4.274 0 0 1-1.467-1.334.174.174 0 0 1 0-.223 5.4 5.4 0 0 0 .634-1.433c.054-.194.1-.393.144-.6h-1.009a5.52 5.52 0 0 1-.937 1.989.22.22 0 0 0 0 .18 5 5 0 0 0 2.657 2.542.207.207 0 0 0 .151 0 5.04 5.04 0 0 0 2.669-2.552.169.169 0 0 0-.02-.2 4.92 4.92 0 0 1-.893-1.87m-4.567-5.733a13.37 13.37 0 0 1 .85 2.2c.053.212.092.427.136.638h.98c0-.062 0-.115-.01-.167a9.04 9.04 0 0 0-.68-2.256c-.288-.676-.589-1.347-.852-2.032a3.076 3.076 0 0 1-.179-1.747 3.592 3.592 0 0 1 1.309-2.071c.375-.309.752-.614 1.129-.921a.43.43 0 0 1 .064-.037c.1.084.188.166.282.244.421.353.874.674 1.257 1.064a3.024 3.024 0 0 1 .842 3.195 16.9 16.9 0 0 1-.64 1.64 13.15 13.15 0 0 0-.873 2.4c-.049.226-.082.456-.124.7h.993c.011-.042.025-.079.031-.116a8.6 8.6 0 0 1 .672-2.092c.27-.63.556-1.254.794-1.9a4.088 4.088 0 0 0 .144-2.61 4.726 4.726 0 0 0-1.766-2.486 9.86 9.86 0 0 1-1.516-1.37 1.4 1.4 0 0 1-.085-.129c-.064.067-.1.1-.131.137-.413.384-.823.77-1.24 1.149a13.8 13.8 0 0 0-1.071.961 4.034 4.034 0 0 0-1.014 3.691 9.55 9.55 0 0 0 .698 1.915"/></svg>