<svg xmlns="http://www.w3.org/2000/svg" fill="#44739e" viewBox="0 0 24 24"><path d="M21.917 11.374 21.4 9.985a1.1 1.1 0 0 0-.928-.707L3.694 7.746a2.394 2.394 0 0 0-1.129.164l-.351.14-.069.028.147-.046a1.15 1.15 0 0 1 .31.005l17.49 1.719a.92.92 0 0 1 .389.13.931.931 0 0 1 .45.824v.041L20.868 15s-.009.638-.028 1.157a.8.8 0 0 1-.009.084.924.924 0 0 1-.206.422l.175-.149 1.025-.987A.572.572 0 0 0 22 15.1Zm-1.217-.603a.854.854 0 0 0-.769-.859L2.456 8.245A.417.417 0 0 0 2 8.666l.088 5.186a.714.714 0 0 0 .627.7l17.267 2.081a.576.576 0 0 0 .645-.564zM7.03 13.25v-.183l.091.008v.184h-.054zm.047-.412H7.03v-.2l.091.008v.2zm0-.433H7.03v-.183l.091.008v.184zm0-.417H7.03v-.212l.091.009v.211zm0-.444H7.03v-.183l.091.008v.184zm0-.417H7.03v-.2l.091.009v.2zm0-.434H7.03v-.183l.091.008v.182Zm0-.416H7.03v-.183l.091.008v.184zm0-.624v.211h-.024a.79.79 0 0 0-.077-.218Zm-1.034-.479v-.062l.184.017v.125l-.184-.017Zm0 .383.184.017v.2a.4.4 0 0 0-.066-.028.9.9 0 0 0-.118-.03Zm-.424-.422v-.062l.191.017v.125L5.619 9.2Zm0 .383.191.018v.149l-.134-.014a.36.36 0 0 0-.057 0zM5.2 9.1v-.066l.184.017v.125L5.2 9.159Zm0 .382.184.017v.211L5.2 9.69Zm-1.709-.544v-.062l.184.017v.125L3.491 9Zm0 .383.184.017v.155a.34.34 0 0 0-.126.042l-.055-.005Zm-.85.038a.73.73 0 0 1 .043-.113l.139.013a.67.67 0 0 0-.077.2l-.1-.01zm0 .327.091.009v.183l-.091-.008Zm0 .417.091.008v.189l-.091-.008Zm0 .417.091.008v.2l-.091-.008Zm0 .433.091.009v.183l-.091-.008Zm0 .417.091.008v.211l-.091-.008Zm0 .444.091.009v.183L2.641 12Zm0 .417.091.008v.2l-.091-.009Zm0 .433.091.009v.183l-.091-.008Zm0 .417.091.008v.139a.5.5 0 0 0 0 .053l-.094-.009Zm.069.677-.024-.043v-.143l.064.006a.86.86 0 0 0 .106.193zm.146-4.666-.066-.006q.031-.03.066-.057Zm.4 5.019a.9.9 0 0 1-.2-.1v-.054l.189.017h.011zm0-.424a.55.55 0 0 1-.067-.049.64.64 0 0 1-.09-.09l.157.015zm0-.357-.2-.019v-.191l.2.018zm0-.425-.2-.019V12.7l.2.019zm0-.417-.2-.018v-.2l.2.019zm0-.433-.2-.019v-.183l.2.018zm0-.948v.087l-.2-.019v-.183l.2.018zm0-.33-.2-.018v-.2l.2.019zm0-.433-.2-.019v-.183l.2.018zm0-.417-.2-.019v-.183l.2.019zm0-.417-.2-.018v-.129a.47.47 0 0 1 .072-.076l.128.012zm0-.562a.62.62 0 0 0-.2.076v-.146l.027-.011.173.016Zm.417 5.229-.184-.017v-.125l.184.017zm0-.392-.184-.017v-.184l.184.017zm.008-2.547-.2-.018v-.184h.008v-.005l.184.017v.005h.008Zm.436 2.98-.209-.018v-.125l.211.019zm0-.392-.211-.02v-.183l.211.019zm-.206-2.564v-.184l.2.019v.183Zm.206-1.739L3.908 9.5v-.141l.211.02zm0-.561v.1l-.211-.02v-.128l.211.02zm.417 5.3-.184-.017v-.125l.184.017zm0-.393-.184-.016v-.184l.184.017zm0-2.639v.094l-.2-.018v-.184h.008v-.005h.011l.184.017zm0-1.6-.081-.008a.35.35 0 0 0-.1-.049h-.006V9.4l.184.017zm0-.628v.1l-.182-.022v-.125l.184.017zm.433 5.3-.2-.019v-.125l.2.019zm0-.392-.2-.019V13.7l.2.018zm0-.847H4.9a1.2 1.2 0 0 1-.133-.019v-.173l.2.019zm0-.411-.2-.019v-.2l.2.018zm0-.434-.2-.018v-.184l.2.019zm0-.416-.2-.019v-.211l.2.019zm0-.534v.087l-.2-.019v-.183l.2.018zm0-.519v.183l-.2-.018v-.192l.2.018zm0-.242-.2-.018V10.3l.2.019zm0-.416-.2-.019v-.189l.2.019zm0-.417-.2-.019v-.216l.075.007a.64.64 0 0 1 .111.14c0 .009.009.019.014.029zm0-.628v.1l-.2-.019v-.133l.2.019zm.417 5.3-.184-.027v-.125l.184.017zm0-.393-.184-.027v-.183l.184.017zm.008-2.549-.2-.018v-.184H5.2l.184.017v.005h.008zm.416 2.981-.191-.018v-.125l.191.018zm0-.392-.191-.018v-.184l.191.018zm.009-2.644v.087l-.2-.018v-.184l.2.019zm.408 3.075-.182-.024v-.126l.184.017zm0-.393L6.043 14v-.183l.184.017zm.017-2.551-.2-.018v-.184h.008v-.005l.184.017h.008zm.416 2.918a.8.8 0 0 1-.2.036V14.3a.7.7 0 0 0 .092-.014l.108.01zm0-.463a.4.4 0 0 1-.039.029.6.6 0 0 1-.161.076v-.171l.2.019zm0-.28-.2-.019v-.191l.2.018zm0-.425-.2-.018v-.184l.2.019zm0-.417-.2-.018v-.2l.2.018zm0-.433-.2-.019v-.183l.2.019zm0-1.045v.165l-.2-.018V11.3l.2.019zm0-.425v.184l-.2-.019v-.192l.2.019zm0-.241-.2-.019v-.183l.2.018zm0-.417-.2-.018v-.194l.2.019zm0-.417-.2-.018V9.6l.2.018zm0-.514a.76.76 0 0 0-.2-.086v-.056l.2.019zm.234.028a.9.9 0 0 1 .065.07L6.894 9.4Zm.183 4.8a1 1 0 0 1-.025.039l-.15-.025a.65.65 0 0 0 .111-.174l.066.011Zm0-.459H7.03v-.191l.091.008v.192zm1.428-.013-.389-.037v-.351l.389.037zm0-.44-.389-.036v-.351l.389.036zm0-.438-.389-.036V12.4l.389.036zm0-.44-.389-.036v-.351l.391.028Zm0-.437-.389-.037v-.352l.389.036zm0-.44-.389-.036v-.351l.389.036zm0-.44L8.116 11v-.351l.389.036zm.488 1.363-.39-.036v-.352l.39.037zm.485.045-.387-.05v-.352l.389.037zm.487.045-.389-.036V12.1l.389.036zm.488 1.365-.391-.037v-.351l.391.036zm0-.44-.391-.037v-.363l.391.037zm0-.439-.391-.037v-.351l.391.036zm0-.44-.391-.037v-.351l.391.036zm0-.439-.391-.036V11.7l.391.037zm0-.44-.391-.037v-.351l.391.036zm0-.441-.391-.036v-.351l.391.035zm.971 2.73-.389-.036v-.352l.389.036zm0-.44-.389-.037v-.352l.389.037zm0-.439-.389-.037v-.351l.389.036zm0-.441-.389-.036v-.352l.389.036zm0-.439-.389-.036v-.354l.389.036zm0-.441-.389-.036v-.352l.389.036zm0-.441-.389-.035v-.352l.389.036zm.487 2.687-.389-.036V13.6l.389.036zm0-2.642-.389-.036v-.352l.389.036zm.486 2.688L12.007 14v-.352l.39.037zm0-2.643-.39-.036V11l.39.036zm.487 2.689-.389-.037V13.7l.389.036zm0-2.644L12.5 11.4v-.352l.389.035zm.488 2.689-.392-.036v-.353l.392.037zm0-.441-.392-.037v-.352l.392.037zm0-.44-.392-.036v-.352l.392.036zm0-.441-.392-.036v-.353l.392.037zm0-.44-.392-.036v-.354l.392.036zm0-.441-.392-.036v-.352l.392.036zm0-.441-.392-.036v-.364l.392.036zm.97 2.736-.389-.037v-.352l.389.036zm0-.442-.389-.036v-.353l.389.036zm0-.44-.389-.036v-.353l.389.036zm0-.442-.389-.036V12.5l.389.037zm0-.44-.389-.036v-.354l.389.036zm0-.441-.389-.036v-.353l.389.036zm0-.442-.389-.036v-.353l.389.036zm.488.487-.389-.036v-.353l.389.036zm.485.927-.389-.037v-.352l.389.036zm0-.44-.389-.037v-.354l.389.036zm.488-.4-.389-.036v-.353l.389.036Zm.489 2.247-.391-.037v-.353l.391.037zm0-.443-.391-.036v-.353l.391.036zm0-.44-.391-.037v-.353l.391.037zm0-.443-.391-.036v-.353l.391.036zm0-.44-.39-.034v-.355l.391.036zm0-.443-.391-.036V11.8l.391.036zm0-.442-.391-.036v-.353l.391.036zm.971 2.742-.389-.036V14.1l.389.037zm0-.443-.389-.036v-.353l.389.036zm0-.44-.389-.037v-.353l.389.036zm0-.443-.389-.037v-.353l.389.036zm0-.441-.389-.036v-.358l.389.036zm0-.443-.389-.036v-.355l.389.036zm0-.443-.389-.036v-.353l.389.036zm.488 2.7-.389-.038v-.353l.389.036zm0-1.327-.389-.036v-.354l.389.036zm0-1.327-.389-.036v-.353l.389.035zm.485 2.7-.389-.037v-.357l.389.037zm0-1.328-.389-.036v-.354l.389.036zm0-1.327-.389-.036v-.354l.389.036zm.488 2.7-.39-.036v-.354l.39.037zm0-1.328-.39-.036v-.353l.39.036zm0-1.327-.39-.036v-.354l.39.036zm.487 2.7-.391-.036v-.354l.391.036zm0-2.657-.391-.036v-.354l.391.036z"/></svg>