<svg xmlns="http://www.w3.org/2000/svg" viewBox="0 0 24 24"><path fill="#44739e" d="M23 14.369a16.59 16.59 0 0 0-6.874-2.709c-.233-.03-1.992-.053-3.839-.053-1.935 0-3.967.025-4.443.094A14.245 14.245 0 0 0 1 14.372a118.7 118.7 0 0 1 22-.003m-7.26-4.309a5.4 5.4 0 0 1 .196 1.363.275.275 0 0 0 .166.026v-.009a3.73 3.73 0 0 0-.248-1.54.126.126 0 0 0-.073.044.139.139 0 0 0-.041.116m-9.991-.65h.023a2.9 2.9 0 0 0 .286.056c.089.013.238.034.55.086l.502.081a6 6 0 0 1 .66.175c.096.05.189.086.277.122a1.727 1.727 0 0 1 .757.511 8 8 0 0 1 .778 1.038c1.488-.025 3.551-.024 4.969-.008.013-.025.024-.049.037-.075a2.28 2.28 0 0 1 .277-.45 4.77 4.77 0 0 1 .802-.796l-.019-.072a.249.249 0 0 1 .124-.254.122.122 0 0 1 .149 0 .34.34 0 0 1 .072.11 5.6 5.6 0 0 1 .66-.237 7.6 7.6 0 0 1 1.21-.22 3.85 3.85 0 0 0 .702-.126h.009c.204-.069.207-.07.207-.182a.476.476 0 0 0-.22-.178 1.3 1.3 0 0 0-.452-.145h-.008c-.572-.093-.572-.093-1.21-.166a27 27 0 0 0-2.8-.22l-.151-.008c-.788-.035-.87-.039-1.811-.04-.667 0-.691 0-1.98.051h-.11l-.292.01a25.85 25.85 0 0 0-3.357.289c-.66.11-1.02.27-1.024.37a.21.21 0 0 0 .047.11.575.575 0 0 0 .336.168m6.377-1.142c.811 0 .99 0 1.522.027V6.239a.463.463 0 0 0-.462-.462h-2.278a.452.452 0 0 0-.451.451v2.078c.984-.038 1.06-.039 1.669-.038m-4.161 3.247a.286.286 0 0 0 .166-.027 5.6 5.6 0 0 1 .173-1.279 1.9 1.9 0 0 0-.174-.086 5.72 5.72 0 0 0-.169 1.381c0 .009.001.009.004.011m.892 3.055.178-.121-.264-.386-.256.009Zm6.436.06.39-.563-.257-.008-.31.448Zm-3.329.009h.22v-.634h-.22Zm3.354.125-.33-.232.122-.176-.047-.038h-2.787v.417h-.409v-.417H9.106l-.028.021.092.132-.338.231-.067-.099a5.023 5.023 0 0 0-1.385 2.284h9.277a4.847 4.847 0 0 0-1.247-2.256Zm-5.74 3.459 4.921-.023.162-1.087h-5.22Z"/></svg>