<svg xmlns="http://www.w3.org/2000/svg" viewBox="0 0 24 24"><path fill="#44739e" d="M2.015 9.448c.374-.023.644-.04.879-.04a3.8 3.8 0 0 1 .393.02 4.1 4.1 0 0 1 .735.153c.181.055.361.1.545.14-.091-.034-.183-.073-.278-.111a3.985 3.985 0 0 1-1.511-1.132c-.399.222-1.241.687-1.778.979.067.008.137.014.211.02a4.4 4.4 0 0 0 .608-.011Zm17.679 3.123v-.017a2.91 2.91 0 0 1-.255-1.194c-.1-.037-.187-.067-.257-.09a8.3 8.3 0 0 0-.881-.244 22.2 22.2 0 0 0-2.209-.414c-.539-.071-.889-.104-1.519-.137h-.077c-.259-.011-.619-.026-1.195-.055-.491-.023-.842-.043-1.136-.061l-.959-.052-.753-.042c-.352-.02-.565-.032-.933-.047l-.369-.014h-.598c-.272 0-.481 0-.915-.029-.194-.006-.378-.017-.617-.036l-.313-.024a15 15 0 0 1 1.542.389c1.065.333 2.484.942 5.31 2.158l.045.019c.139.059 1.381.578 3.486 1.238a7.78 7.78 0 0 0 2.189.348 2.98 2.98 0 0 0 1.293-.124 2.06 2.06 0 0 1-.535-.666 4 4 0 0 1-.344-.906m-8.908 7.818a1.652 1.652 0 0 0 1.241.321 1.76 1.76 0 0 0 .466-.165 6.7 6.7 0 0 1-.858-.431 2.6 2.6 0 0 1-.849.275m5.196-1.786-.371-.119h-.05a4.7 4.7 0 0 1-1.273-.27h-.016c-.601-.173-.903-.261-1.458-.457a1.1 1.1 0 0 0-.094-.029l-.055-.014c-.162.041-.402.077-.759.131l-.033.006c-.526.076-1.244.183-2.12.371-.128.026-.236.052-.334.072.32.222.792.533 1.366.91a7.49 7.49 0 0 0 2.486 1.269 2 2 0 0 0 2.288-.778 2.56 2.56 0 0 0 .515-1.06l-.034-.01Zm2.79-2.631a1.8 1.8 0 0 1 .13.478 3.37 3.37 0 0 1-.025.84 2.41 2.41 0 0 0 .746.159c.299 0 .385-.02.403-.047 0-.018 0-.145-.31-.518a5.3 5.3 0 0 0-.944-.912m-.361-.028a.5.5 0 0 1-.073-.216 2.33 2.33 0 0 0-.252-.333 3.856 3.856 0 0 0-1.778-.718c-.457-.083-1.011-.154-1.648-.207h-.024c-3.557-.134-4.386-.14-4.391-.14-.606 0-1.133.009-1.567.016h-.271a12.8 12.8 0 0 1-1.833-.135 6.05 6.05 0 0 1-1.199-.255 6.1 6.1 0 0 1-1.111-.428 4.5 4.5 0 0 1-.277-.155 3.627 3.627 0 0 1-1.445-1.307 4 4 0 0 1-.388.52l-.008.012a9 9 0 0 0-.607.793l-.028.042h.019c.05 0 .111-.006.17-.006h.02a1.62 1.62 0 0 1 .367.047l.1.021a3.7 3.7 0 0 0 .505.057 6.5 6.5 0 0 1 .803.096l1.461.264.252.046c.334.059.358.062.467.089a19.67 19.67 0 0 1 3.276 1.095 7.84 7.84 0 0 1 1.223.598 6.7 6.7 0 0 1 .873.635 2.41 2.41 0 0 0 .813.504l.162.057c.193.069.485.173.874.333l.205.088.051.023.127.056a7.7 7.7 0 0 0 .913.297c.229.065.562.159 1.064.31.426.13.696.222.881.274a1.3 1.3 0 0 0 .452.111h.02a2.76 2.76 0 0 0 1.952-1.111l.007-.045a3.05 3.05 0 0 0 .027-.778 1.49 1.49 0 0 0-.184-.55m1.449.621a5 5 0 0 1-.149-.445 5.56 5.56 0 0 1-.157-.778.53.53 0 0 1-.163-.196.98.98 0 0 1-.085-.564.45.45 0 0 0-.072-.008h-.129a2.71 2.71 0 0 1-1.111-.063 14.95 14.95 0 0 1-2.767-.841c-.016-.008-.169-.075-.529-.228-.809-.296-1.223-.472-1.223-.473l-.227-.098c-1.168-.502-2.09-.898-2.843-1.21s-1.416-.536-2.136-.762c-.313-.096-.556-.167-.797-.233-.311-.084-.444-.117-.759-.186-.203-.045-.48-.111-.929-.213l-.095-.017-.13-.022c-.505-.082-.96-.16-1.397-.274-.062-.007-.112-.011-.207-.03-.167-.029-.302-.065-.415-.092a.907.907 0 0 0-.555-.042.65.65 0 0 0-.196.103.78.78 0 0 0-.251.361 2.23 2.23 0 0 0 .251 1.625 4.445 4.445 0 0 0 2.651 1.778c.916.295 1.544.344 4.797.372.007 0 .918.01 4.403.14.111 0 2.845.119 3.755 1.111l.029.031c.043.049.127.143.24.259a4.01 4.01 0 0 1 1.196.995m-3.27 2.181a1.03 1.03 0 0 1-.208-.022 1.72 1.72 0 0 1-.105.362l.482.334.345.294v-1.036a2 2 0 0 1-.499.065Zm3.034-4.149a.667.667 0 0 0 .047.403.28.28 0 0 0 .05.072 2.67 2.67 0 0 0 .333-.34c.057-.065.111-.128.166-.188a3.37 3.37 0 0 1-.581.053Zm3.085-5.158a2.62 2.62 0 0 0-.667-.599 4.6 4.6 0 0 0-.889-.444l-.085-.034-.059-.023a1.15 1.15 0 0 1-.222-.074c-.126-.049-.289-.112-.505-.188l-.423-.136-.556-.173c-.229-.07-.483-.148-.83-.251h-.014l-.111-.034-.706-.204c.18.094.356.191.533.293.149.087.193.111.406.258l.015.011c.214.141.592.394 1.386.91.127.084.246.173.378.271l.012.009a4.8 4.8 0 0 0 .477.334 2.25 2.25 0 0 1 .508.403.856.856 0 0 1 .244.389.645.645 0 0 1-.01.346v.033a1.31 1.31 0 0 0 .531-.082l.03-.008c.297-.081.799-.222.847-.469.012-.139-.101-.289-.29-.538m-1.241 3.066a1.3 1.3 0 0 1-.273-.178l-.011-.005a7 7 0 0 0-.262-.192l-.3-.15a25 25 0 0 1-.597-.315l-.041-.022c-.079-.043-.187-.102-.253-.133a7.9 7.9 0 0 0 .257.956 4.1 4.1 0 0 0 .314.847 1.45 1.45 0 0 0 .667.698.73.73 0 0 0 .541.042.697.697 0 0 0 .403-.555.95.95 0 0 0-.137-.565 1.69 1.69 0 0 0-.308-.428m-1.323-2.183c.074.081.155.181.253.306.047.059.084.105.116.147l.173.222a1.27 1.27 0 0 0 .346-.343 1.83 1.83 0 0 0 .244-.445h-.233a2.33 2.33 0 0 0-.394.046l-.111.019c-.007-.009-.133.011-.394.048m-2.8-4.761c-.17-.049-.334-.097-.51-.141l-.474-.125c-1.151-.302-1.694-.444-1.877-.501a13.5 13.5 0 0 0-1.401-.333l-.159-.029a10 10 0 0 0-.244-.047c.28.072.621.163 1.098.29l.029.008c.463.122.687.184.94.253.199.055.416.111.784.214 1.279.344 2.229.583 2.873.686l-.055-.014c-.333-.067-.666-.161-.989-.252Zm-7.379-1.87.148.037a.63.63 0 0 1 .12.04c.305.017.636.046 1.01.087l-.033-.582-.691.103-.75.303c.069.01.131.022.187.032Zm4.65.123.39.028-.439-.223-.63-.103.657.272Zm-.014.395c.382.058.541.083.541.257a.164.164 0 0 1-.059.13c.413.148 1.286.376 1.831.517.172.046.344.093.515.142.305.086.648.184.983.251l.179.035.104.02a2.98 2.98 0 0 1 1.165.383 3.02 3.02 0 0 1 .649.484.393.393 0 0 0 .184.162.367.367 0 0 0 .189 0c.275-.049.386-.075.445-.16a.358.358 0 0 0 .055-.261c-.015-.169-.136-.424-.948-.884a6.38 6.38 0 0 0-1.625-.707 11.56 11.56 0 0 0-1.92-.278c-.392-.041-.582-.054-1.497-.112l-1.252-.09-.306-.021h.02c.287.067.553.107.747.132m-5.177 0a8.2 8.2 0 0 0 1.099.012l-.054-.012a4.5 4.5 0 0 1-.73 0h-.039l-.421-.011c.046-.002.095.001.145.011m.25-.826-.898.145-.138.057c.174 0 .333 0 .49.017ZM9.4 4.516h-.054c.063.024.126.045.191.064a4.02 4.02 0 0 0 .899.135l.156.015c.127.011.256.023.384.036l.111.011.467.046a11.26 11.26 0 0 1 1.987.396 13 13 0 0 1 1.392.444l.027.009c.383.139.907.333 1.87.637.469.15.819.256 1.093.34a6.67 6.67 0 0 1 1.087.389 3.1 3.1 0 0 0 .444.168 4 4 0 0 1 .437.16l.031.013c.138.063.258.111.333.08s.111-.148.13-.197a.723.723 0 0 0-.125-.632 3.03 3.03 0 0 0-.488-.368l-.135-.042a5 5 0 0 0-.584-.021h-.049a17.8 17.8 0 0 1-3.556-.753l-.479-.125c-.59-.156-.967-.257-1.236-.334h-.017l-.147-.039c-.733-.193-1.137-.3-1.513-.392l-.23-.054a7.3 7.3 0 0 0-.944.005 9.56 9.56 0 0 1-1.482.009m3.311-.64c.031-.172.073-.187.965-.125l-.666-.268-.679-.1-.036.614c.199.032.386.066.565.1-.148-.085-.159-.155-.149-.221m-2.094 15.588c-.778-.517-1.305-.862-1.596-1.071l-.075.02a2.44 2.44 0 0 1-.454.092 6 6 0 0 1-.695.04 5.264 5.264 0 0 1-2.611-.667 9.26 9.26 0 0 0 1.223 1.518 3.145 3.145 0 0 0 1.189.904 3.697 3.697 0 0 0 1.889-.008 10.75 10.75 0 0 0 1.836-.368c-.229-.145-.466-.301-.706-.46m-5.279-1.862a5.063 5.063 0 0 0 3.112.591 2 2 0 0 0 .406-.081c.17-.048.386-.111.825-.2.863-.186 1.585-.293 2.112-.373h.028c.222-.031.423-.061.584-.091a4.5 4.5 0 0 1-.413-.152c-.094-.04-.179-.082-.262-.123a2.69 2.69 0 0 1-.89-.556l-.068-.056-.044-.036a14 14 0 0 0-1.923-1.103 19.34 19.34 0 0 0-3.2-1.069l-.251-.051-.202-.036c-.222-.039-.591-.112-1.216-.223l-.139-.017a1.67 1.67 0 0 1-.361-.07 5.6 5.6 0 0 0-.418-.062.87.87 0 0 0 .018.315 5.223 5.223 0 0 0 2.289 3.386Zm-1.812-.835-.012.076c-.029.181-.037.262-.012.293.051.062.287.04.537.008l.207-.026a5.6 5.6 0 0 1-.651-.778c-.022.128-.048.274-.069.427M5.287 5.38h.19a4.8 4.8 0 0 0 1.182-.163l.044-.007c.065-.015.125-.03.184-.043a9.8 9.8 0 0 1 1.714-.104c.176 0 .384-.008.613-.008a14.7 14.7 0 0 1 1.703.092 14.34 14.34 0 0 1 2.548.556c.576.165.976.305 1.334.429a16.2 16.2 0 0 0 1.561.479l.092.023c.187.046.498.124.913.237s.778.222 1.192.345l.233.07-.807-.271-.136-.045c-.392-.131-.784-.263-1.178-.391a63 63 0 0 1-.808-.266v-.06l-.017.053c-.377-.125-.709-.234-1.288-.418s-.89-.282-1.304-.393h-.014a12.2 12.2 0 0 0-1.413-.32 9 9 0 0 0-.298-.041l-.34-.033-.123-.012-.488-.047-.222-.019a7 7 0 0 1-.274-.028 3.15 3.15 0 0 1-.613-.111l-.038-.011a2.3 2.3 0 0 1-.282-.1 1.145 1.145 0 0 1-.521-.323c-.235-.168-.314-.223-.295-.348s.111-.17.296-.198a15.1 15.1 0 0 0-1.746.118c-1.656.199-1.909.4-2.015.573a.667.667 0 0 0-.087.638c.067.088.213.133.508.147m.545 14.38.298-.205c-.101-.103-.2-.211-.298-.32ZM4.418 9.321a7.11 7.11 0 0 0 2.623.499c.407.033.636.037.983.043h.035c.312 0 .739.01 1.468.041.368.014.584.026.937.046l.754.043c1.019.055 1.763.092 2.334.121l.199.01c1.163.054 1.599.076 2.374.179a22.7 22.7 0 0 1 2.239.421 9 9 0 0 1 .91.25 7.3 7.3 0 0 1 1.618.76 3 3 0 0 0-.127-.15l.034-.047-.041.036c-.049-.057-.097-.111-.19-.222-.127-.155-.187-.233-.258-.325l-.159-.201c-.222-.283-.334-.411-.452-.451-.146.013-.32.031-.518.048a1.3 1.3 0 0 1-.144.013c-.081.008-.169.011-.262.011a6.86 6.86 0 0 1-2.275-.541c-.169-.06-.356-.13-.566-.211l-.238-.094c-.838-.321-1.544-.652-2.194-.964l-.123-.059-.035-.017c-.989-.474-1.29-.623-1.371-.667l-.019-.016-.311-.141a10.9 10.9 0 0 0-1.524-.625c-.111-.023-.348-.065-.618-.103l-.072-.006c-.235-.019-.512-.044-.937-.098a11 11 0 0 1-1.147-.169h-.013a4.8 4.8 0 0 1-.767-.172c-.066-.022-.136-.048-.211-.074s-.161-.057-.251-.089l-.078-.026-.234-.075-.202-.063-.153-.044a10 10 0 0 0-.452-.111 15.45 15.45 0 0 1-1.986.684l-.222.072-.101.05c-.006.101-.017.29-.017.419a2.02 2.02 0 0 0 .143.603 2.908 2.908 0 0 0 1.617 1.412m.574-3.562c.252.055.527.131.533.133.256.07.435.13.592.181l.112.037a10.9 10.9 0 0 0 1.18.322 10.6 10.6 0 0 0 1.104.162c.152.016.269.027.38.036.195.017.372.032.649.071s.522.082.645.111a5.92 5.92 0 0 1 1.634.651l.271.14c.009 0 .222.111 1.42.687l.019.009c.617.296 1.386.667 2.278 1.006a7.9 7.9 0 0 0 3.205.815c.865-.076 1.315-.136 1.469-.16l.111-.018a2.5 2.5 0 0 1 .445-.05 1.9 1.9 0 0 0-.216-.176 1.8 1.8 0 0 1-.111-.073h-.007l-.014-.014a3.9 3.9 0 0 1-.373-.25 16 16 0 0 1-.473-.341l-.036-.027c-.756-.492-1.135-.744-1.353-.889l-.045-.03c-.205-.137-.247-.164-.38-.242-.162-.089-.334-.184-.531-.287l-.258-.137c-.286-.142-.526-.248-.743-.343a1.56 1.56 0 0 1-.361-.185l-.124-.051c-.527-.142-.911-.275-1.315-.416-.211-.073-.426-.148-.667-.228l-.642-.197c-.445-.125-.889-.256-1.404-.365-.32-.065-.64-.119-.948-.161l-.158-.021a16.3 16.3 0 0 0-2.258-.082c-.733.032-1.245.055-1.667.1l-.137.033-.062.014a5.6 5.6 0 0 1-.973.167 2.2 2.2 0 0 1-.483.007h-.025a1.074 1.074 0 0 1-.667-.188l-.778.276a5.06 5.06 0 0 1 .732-.063 2.03 2.03 0 0 1 .43.036"/></svg>