<svg xmlns="http://www.w3.org/2000/svg" fill="#44739e" viewBox="0 0 24 24"><path d="M22 14.017a15.08 15.08 0 0 0-6.249-2.463c-.212-.027-1.811-.048-3.49-.048-1.759 0-3.606.023-4.039.086A12.95 12.95 0 0 0 2 14.02a107.9 107.9 0 0 1 20-.003M15.4 10.1a4.92 4.92 0 0 1 .178 1.239.25.25 0 0 0 .151.024v-.009a3.39 3.39 0 0 0-.225-1.4.115.115 0 0 0-.067.04.126.126 0 0 0-.037.106m-9.083-.591h.021a2.6 2.6 0 0 0 .26.051c.081.012.217.031.5.078l.457.074a5.4 5.4 0 0 1 .6.159c.087.045.171.078.251.111a1.57 1.57 0 0 1 .689.464 7.26 7.26 0 0 1 .707.944c1.353-.023 3.228-.022 4.517-.007.012-.023.022-.045.034-.069a2.07 2.07 0 0 1 .252-.409 4.34 4.34 0 0 1 .729-.723l-.018-.066a.226.226 0 0 1 .113-.231.111.111 0 0 1 .136 0 .31.31 0 0 1 .065.1 5.1 5.1 0 0 1 .6-.215 6.9 6.9 0 0 1 1.1-.2 3.5 3.5 0 0 0 .638-.115h.008c.186-.062.189-.063.189-.165a.433.433 0 0 0-.2-.162 1.18 1.18 0 0 0-.411-.132h-.008c-.52-.084-.52-.084-1.1-.151a24.6 24.6 0 0 0-2.545-.2l-.137-.007c-.717-.032-.791-.035-1.647-.036-.606 0-.628 0-1.8.046h-.1l-.265.009A23.5 23.5 0 0 0 6.9 8.92c-.6.1-.927.245-.931.336a.19.19 0 0 0 .043.1.523.523 0 0 0 .305.153m5.798-1.038c.737 0 .9 0 1.383.024V6.626a.421.421 0 0 0-.42-.42h-2.071a.411.411 0 0 0-.41.41v1.889c.895-.034.964-.035 1.518-.034m-3.783 2.952a.26.26 0 0 0 .151-.025 5.08 5.08 0 0 1 .157-1.163 1.7 1.7 0 0 0-.158-.078 5.2 5.2 0 0 0-.154 1.256c0 .008.001.008.004.01m.811 2.777.162-.11-.24-.351-.233.008Zm5.851.054.354-.511-.233-.008-.282.408zm-3.027.009h.2v-.577h-.2zm3.049.113-.3-.211.111-.16-.042-.034h-2.534v.379h-.372v-.379h-2.51l-.025.019.083.12-.307.21-.061-.09A4.566 4.566 0 0 0 7.8 16.306h8.434a4.406 4.406 0 0 0-1.134-2.051Zm-5.218 3.145 4.474-.021.147-.988H9.674Z"/></svg>