<svg xmlns="http://www.w3.org/2000/svg" viewBox="0 0 24 24"><path fill="#44739e" d="M11.925 12.658v5.866h.178v-5.955h-.178Zm-.248-2.129h.657v1.951h-.657Zm1.302 2.673h.177v5.322h-.177Zm-.446 0h.177v5.322h-.177Zm-1.123 0h.178v5.322h-.178Zm-.457 0h.178v5.322h-.178Zm9.36-5.221c1.165.041.645-2.263.601-2.76a3.282 3.282 0 0 0-1.506-2.622C17.465 1.414 17.187 1.467 12.038 1c-5.223.475-5.493.384-7.445 1.575a3.282 3.282 0 0 0-1.507 2.622c-.044.494-.565 2.805.604 2.761l.049.029a3.425 3.425 0 0 0-.588 2.02c.068 1.674.129 5.334.286 6.966.332 1.67.813 3.703 2.283 4.761a7.23 7.23 0 0 0 2.228.932h.007l1.846.258a25.64 25.64 0 0 0 6.564-.339 5.81 5.81 0 0 0 2.236-1.184 6.092 6.092 0 0 0 1.894-4.187c.029-.164.186-1.358.19-1.525l.196-5.702a3.395 3.395 0 0 0-.59-1.997ZM3.554 7.718c-.238-.158.535-.317.836-.43a16.4 16.4 0 0 1 2.253-.373c.751-.092 5.052-.168 5.345-.139h-.035c.305-.009 4.626.075 5.404.163.17.022 2.81.283 3.13.76l-.039.045c-2.326-1.019-6.421-.739-8.495-.843h.035c-2.067.06-6.118-.19-8.434.817m16.555.216-.035.029c-.063-.01.021-.022.035-.029M9.33 14.668a21.4 21.4 0 0 1 .34-4.387v-.018c.363.067 4.262.063 4.645 0 .396.979.332 4.315.432 5.821-.057 1.623.177 3.832-1.379 4.598a3.825 3.825 0 0 1-3.147-.226c-1.224-1.343-.872-3.901-.891-5.788m11.189-4.686c-.054.995-.127 6.484-.362 7.337l-.137.672a4.958 4.958 0 0 1-3.383 4.175l-.896.245a20.22 20.22 0 0 1-4.364.289 13.86 13.86 0 0 1-4.48-.62c-.045-.026-.808-.417-.823-.429s-.679-.655-.688-.663c-1.047-.956-1.269-2.787-1.596-4.093-.146-1.681-.21-5.186-.277-6.904a3.12 3.12 0 0 1 .666-2.015c.167 0 .012-.026-.034-.055-.09-.053-.186-.216-.26-.048.162-.409 3.014-.652 3.093-.657-.294.008-3.141.558-1.877.816 1.458.141 2.696-.158 3.695.389a2.716 2.716 0 0 1 .671 1.631 4.46 4.46 0 0 0-.34 1.658c-.037 1.896-.233 4.51-.071 6.218.113 2.452 1.105 3.46 3.077 3.369 2.404-.048 2.886-1.69 2.897-4.315.048-.743-.113-3.961-.156-5.281a6.1 6.1 0 0 0-.274-1.53l-.046-.09c.218-2.207 1.417-1.986 3.539-2-.048-.043 1.067.062 1.168-.201-.13-.295-1.472-.538-1.886-.609a11.13 11.13 0 0 1 2.65.506c-.016.026-.227.148-.196.191-.06.024-.103.032.02.035a3.044 3.044 0 0 1 .67 1.979"/></svg>