<svg xmlns="http://www.w3.org/2000/svg" viewBox="0 0 24 24"><path fill="#44739e" d="M19.085 13.452s-.11-6.873-.11-7.026a1.284 1.284 0 0 0-.273-.76 5.5 5.5 0 0 0-.659-.538c-.639-.462-2.293-1.662-4.052-2.939-.743-.54-1.427-1.026-1.524-1.08A.82.82 0 0 0 12 1.005a.768.768 0 0 0-.537.141c-.128.078-1.306.921-2.617 1.874L6.01 5.083c-.803.582-.941.754-.978 1.228-.022.269-.009 7.135-.009 7.149s-1.155 3.56-1.462 4.5c.018.03-1.329 4.073-1.331 4.298a.794.794 0 0 0 .313.618l.171.124h18.557l.162-.11a.853.853 0 0 0 .337-.613c0-.155-2.685-8.825-2.685-8.825m-3.282-6.336c-.168-.415-.234-.843-.143-.939a.54.54 0 0 1 .486.038 5.2 5.2 0 0 1 .245.591 2.163 2.163 0 0 1 .01 1.77 2.88 2.88 0 0 0-.181.666 2.9 2.9 0 0 0 .181.665 2.086 2.086 0 0 1 .039 1.625 4.4 4.4 0 0 0-.185.53.87.87 0 0 1-.11.269c-.077.098-.449.11-.504.012a1.38 1.38 0 0 1 .148-.946 2.9 2.9 0 0 0 .187-.622 2.92 2.92 0 0 0-.193-.635 2.11 2.11 0 0 1 0-1.808 2.26 2.26 0 0 0 .193-.604 2.5 2.5 0 0 0-.173-.612m-1.575.017c-.277-.674-.287-.71-.236-.855.04-.109.1-.142.254-.142.294 0 .38.101.549.651a2.823 2.823 0 0 1 .027 1.766 2.39 2.39 0 0 0 .029 1.494 2.667 2.667 0 0 1-.013 1.509 2.74 2.74 0 0 0-.153.491c-.046.262-.174.364-.458.364-.14 0-.199-.037-.241-.151-.067-.186-.034-.33.189-.809a1.454 1.454 0 0 0-.04-1.439 1.448 1.448 0 0 1-.02-1.477 1.606 1.606 0 0 0 .113-1.402m-1.698-.249a2.09 2.09 0 0 1-.151-.658c.027-.078.104-.097.321-.083l.286.02.14.412c.403 1.181.39 1.104.248 1.536-.07.22-.165.47-.21.564a1.947 1.947 0 0 0 .094 1.372 1.255 1.255 0 0 1 .038 1.332 4.8 4.8 0 0 0-.219.691c0 .188-.189.329-.439.329-.33 0-.348-.116-.121-.796a2.048 2.048 0 0 0-.023-1.743c-.239-.649-.238-.651.039-1.38a1.943 1.943 0 0 0-.003-1.596m-1.826-.703a.549.549 0 0 1 .488.037 5.1 5.1 0 0 1 .254.586 2.114 2.114 0 0 1 .005 1.771 1.363 1.363 0 0 0 0 1.335 1.64 1.64 0 0 1 .159.93 4.05 4.05 0 0 1-.445 1.512.41.41 0 0 1-.27.048c-.191-.019-.206-.037-.22-.274a1.79 1.79 0 0 1 .166-.722 1.233 1.233 0 0 0 0-1.253 1.827 1.827 0 0 1-.181-.912 1.85 1.85 0 0 1 .181-.917 1.226 1.226 0 0 0 0-1.245c-.168-.443-.225-.806-.137-.896m-1.491.813c-.177-.407-.228-.725-.141-.813a.678.678 0 0 1 .549.037 3.6 3.6 0 0 1 .22.572 2.817 2.817 0 0 1 .036 1.756 2.157 2.157 0 0 0 0 1.411 2.865 2.865 0 0 1-.042 1.784 4.4 4.4 0 0 1-.219.593.539.539 0 0 1-.491.041c-.151-.061-.11-.416.092-.886a1.68 1.68 0 0 0-.057-1.565 1.395 1.395 0 0 1 .021-1.422 1.562 1.562 0 0 0 .032-1.511Zm-.137 7.845c.262-.075.439-.128 1.029-.31.175-.054.571-.184.889-.28s.521-.16.521-.16l.27-.075c.219-.066.227-.066.622.071.165.057 2.627.836 2.725.853s.178.047.178.067a2.37 2.37 0 0 1-.674.251c-.073.02-.668.219-1.318.432a13.4 13.4 0 0 1-1.329.395c-.11 0-3.157-.954-3.377-1.057-.063-.031-.015-.05.464-.19ZM7.574 6.884a2.14 2.14 0 0 1-.153-.658c.029-.078.11-.097.33-.083l.287.02.142.412c.415 1.216.409 1.097.102 1.933a1.636 1.636 0 0 0-.132.868 1.77 1.77 0 0 0 .121.571 2.85 2.85 0 0 1 .194.506l.11.359-.187.496c-.103.273-.219.617-.253.768-.073.289-.191.363-.524.323-.156-.018-.173-.044-.167-.242a2.6 2.6 0 0 1 .166-.639 1.866 1.866 0 0 0-.02-1.55 1.647 1.647 0 0 1 0-1.467 1.932 1.932 0 0 0-.016-1.617m-2.971 9.331c.027-.028 1.008-.28 1.795-.541l.73-.237a1.796 1.796 0 0 1 1.298-.087c.13.05.28.103.329.116.181.046 2.635.862 2.648.878s-1.78.559-2.611.838c-.68.228-.722.232-1.123.099l-.373-.123-.43-.142-1.976-.635s-.317-.114-.287-.172ZM17.81 20.58c-.014.25-.134.365-.563.541a1.7 1.7 0 0 1-.821.123 2.195 2.195 0 0 1-.958-.152c-.242-.084-.515-.17-.608-.192-.286-.067-.97-.283-1.318-.416a1.1 1.1 0 0 0-.219-.067 1.65 1.65 0 0 1-.293-.093 9.4 9.4 0 0 0-.468-.168c-.463-.151-.878-.297-1.554-.549-.196-.071-.448-.158-.561-.191s-.275-.089-.358-.122a2.14 2.14 0 0 0-.674-.042c-.456.017-.544.033-.685.131-.09.061-.157.12-.149.13a12 12 0 0 0 1.154.389c.133.034.378.11.543.169s.392.137.506.174c.28.091.439.145 1.216.411.165.057.401.138.525.178s.317.11.43.164.358.147.549.219c.406.162.607.315.641.493.058.304-.161.517-.741.718a1.946 1.946 0 0 1-1.19.056c-.11-.038-.284-.091-.376-.117-.21-.062-1.179-.385-1.78-.594-.247-.087-.508-.174-.579-.195s-.3-.096-.507-.17-.439-.149-.504-.169-.317-.103-.544-.185c-.373-.136-.686-.242-1.46-.492-.323-.104-.418-.169-.451-.306a.181.181 0 0 1 .052-.189c.086-.091.202-.07.848.15 1.019.348 1.362.465 1.798.609.267.089.622.21.786.268s.358.123.43.144.3.098.507.169.643.22.972.324.694.225.808.265a1.906 1.906 0 0 0 1.141-.037.87.87 0 0 0 .28-.141c0-.054-.297-.192-.523-.245a5 5 0 0 1-.395-.115l-.412-.142c-.518-.171-.834-.282-.988-.348a.88.88 0 0 0-.233-.07.9.9 0 0 1-.225-.066c-.087-.036-.303-.11-.478-.173a19.7 19.7 0 0 1-2.028-.786.452.452 0 0 1-.219-.453c0-.257.11-.35.652-.563a2.73 2.73 0 0 1 1.367-.032c.322.11.564.177.789.229.11.026.29.079.393.115.235.083.719.25 1.002.344.536.177.698.232.926.316.359.131.557.198.786.268.11.034.299.098.412.143s.493.181.843.302a2.525 2.525 0 0 0 1.142.22c.432 0 .531-.011.678-.097.22-.126.255-.197.119-.235-.274-.076-8.233-2.682-8.233-2.702 0 0-.11-.043-.15-.063-.057-.029-.03-.101.101-.139 0 0 .258-.082.372-.11.177-.051.833-.268 2.195-.727a.918.918 0 0 1 .787-.043c.123.043.282.096.355.117s.501.162.955.316.924.307 1.048.345.329.109.449.159l.206.073-.169.052c.016.014-1.033.306-1.033.306-.365.126-1.155.359-1.155.359-.149.119-.121.158.148.22.093.019.329.09.524.157s.448.149.562.184.341.11.505.17.359.124.431.145.299.097.506.169.542.186.748.253a4.48 4.48 0 0 1 1.33.584.339.339 0 0 1 .085.319Zm1.442-4.191c-.15.033-.489.134-.835.251-.109.037-.349.11-.524.164s-.659.207-1.086.342a7.3 7.3 0 0 1-.878.246 10.5 10.5 0 0 1-1.364-.414c-.109-.04-.374-.126-.58-.192s-.539-.175-.74-.241-.439-.136-.535-.154-.164-.042-.156-.052.291-.11.629-.22.707-.227.82-.266.439-.151.73-.246.634-.22.769-.268a1.215 1.215 0 0 1 .899.02c.11.044.695.235 1.292.423l1.382.44a2.2 2.2 0 0 1 .311.109c.002.02-.055.043-.134.058"/></svg>