<svg xmlns="http://www.w3.org/2000/svg" fill="#44739e" viewBox="0 0 24 24"><path d="M18.454 13.324s-.1-6.261-.1-6.4a1.17 1.17 0 0 0-.249-.693 5 5 0 0 0-.6-.49c-.582-.421-2.089-1.514-3.691-2.677-.677-.492-1.3-.935-1.389-.984A.745.745 0 0 0 12 1.985a.7.7 0 0 0-.489.129c-.117.071-1.19.839-2.384 1.707L6.543 5.7c-.731.53-.857.687-.891 1.119-.02.245-.008 6.5-.008 6.512s-1.052 3.243-1.332 4.1c.017.027-1.21 3.71-1.212 3.915a.723.723 0 0 0 .285.563l.156.113h16.905l.147-.1a.777.777 0 0 0 .307-.559c0-.141-2.446-8.039-2.446-8.039m-2.99-5.772c-.153-.378-.213-.768-.13-.855a.492.492 0 0 1 .443.034A4.7 4.7 0 0 1 16 7.27a1.97 1.97 0 0 1 .009 1.612 2.62 2.62 0 0 0-.165.607 2.63 2.63 0 0 0 .165.606 1.9 1.9 0 0 1 .036 1.48 4 4 0 0 0-.169.483.79.79 0 0 1-.1.245c-.07.089-.409.1-.459.011a1.258 1.258 0 0 1 .135-.862 2.64 2.64 0 0 0 .17-.567 2.66 2.66 0 0 0-.176-.578 1.922 1.922 0 0 1 0-1.647 2.06 2.06 0 0 0 .176-.55 2.28 2.28 0 0 0-.158-.558m-1.434.016c-.253-.614-.262-.647-.215-.779.036-.1.091-.13.231-.13.268 0 .346.092.5.593a2.572 2.572 0 0 1 .025 1.609 2.177 2.177 0 0 0 .026 1.361 2.43 2.43 0 0 1-.012 1.375 2.5 2.5 0 0 0-.139.447c-.042.239-.159.332-.417.332-.128 0-.182-.034-.22-.138-.061-.169-.031-.3.172-.737a1.325 1.325 0 0 0-.036-1.311 1.319 1.319 0 0 1-.018-1.345 1.463 1.463 0 0 0 .103-1.277m-1.547-.227a1.9 1.9 0 0 1-.138-.6c.025-.071.095-.088.293-.075l.26.018.128.375c.367 1.076.355 1.006.226 1.4-.064.2-.151.428-.192.513a1.774 1.774 0 0 0 .086 1.25 1.143 1.143 0 0 1 .035 1.214 4.4 4.4 0 0 0-.2.629c0 .171-.172.3-.4.3-.3 0-.317-.106-.11-.725a1.866 1.866 0 0 0-.021-1.588c-.218-.591-.217-.593.036-1.257a1.77 1.77 0 0 0-.003-1.454M10.819 6.7a.5.5 0 0 1 .445.034 4.6 4.6 0 0 1 .231.534 1.926 1.926 0 0 1 .005 1.613 1.242 1.242 0 0 0 0 1.216 1.494 1.494 0 0 1 .145.848 3.69 3.69 0 0 1-.406 1.377.374.374 0 0 1-.246.044c-.174-.018-.187-.034-.2-.25a1.63 1.63 0 0 1 .151-.658 1.123 1.123 0 0 0 0-1.141 1.664 1.664 0 0 1-.165-.831 1.687 1.687 0 0 1 .165-.835 1.117 1.117 0 0 0 0-1.134c-.153-.404-.205-.735-.125-.817m-1.358.741c-.161-.371-.208-.66-.128-.741a.618.618 0 0 1 .5.034 3.26 3.26 0 0 1 .2.521 2.566 2.566 0 0 1 .033 1.6 1.965 1.965 0 0 0 0 1.285 2.61 2.61 0 0 1-.038 1.625 4.04 4.04 0 0 1-.2.541.491.491 0 0 1-.447.037c-.138-.056-.1-.379.084-.807a1.53 1.53 0 0 0-.052-1.426 1.271 1.271 0 0 1 .019-1.295 1.423 1.423 0 0 0 .029-1.377Zm-.125 7.147c.239-.069.4-.117.938-.283.159-.049.52-.167.81-.255s.474-.146.474-.146l.246-.068c.2-.06.207-.06.567.065.15.052 2.393.761 2.482.777s.162.043.162.061a2.16 2.16 0 0 1-.614.228c-.066.019-.608.2-1.2.394a12.2 12.2 0 0 1-1.211.36c-.1 0-2.876-.869-3.076-.963-.058-.028-.014-.046.422-.173ZM7.968 7.341a1.95 1.95 0 0 1-.139-.6c.026-.071.1-.088.3-.075l.262.018.129.375c.378 1.108.373 1 .093 1.761a1.49 1.49 0 0 0-.12.791 1.61 1.61 0 0 0 .11.52 2.6 2.6 0 0 1 .177.461l.1.327-.17.452c-.094.249-.2.562-.231.7-.066.263-.174.33-.477.294-.142-.017-.158-.04-.152-.221a2.38 2.38 0 0 1 .151-.582 1.7 1.7 0 0 0-.018-1.412 1.5 1.5 0 0 1 0-1.336 1.76 1.76 0 0 0-.015-1.473m-2.706 8.5c.024-.025.918-.255 1.635-.493l.665-.216a1.636 1.636 0 0 1 1.182-.079c.119.046.255.094.3.106.165.042 2.4.785 2.412.8s-1.621.509-2.378.763c-.62.208-.658.211-1.023.09l-.34-.112-.392-.129-1.8-.579s-.289-.104-.261-.156zm12.031 3.976c-.013.228-.122.333-.513.493a1.55 1.55 0 0 1-.748.112 2 2 0 0 1-.873-.138c-.22-.077-.469-.155-.554-.175-.26-.061-.883-.258-1.2-.379a1 1 0 0 0-.2-.061 1.5 1.5 0 0 1-.267-.085 8.6 8.6 0 0 0-.426-.153c-.422-.137-.8-.27-1.416-.5-.178-.065-.408-.144-.511-.174s-.25-.081-.326-.111a1.95 1.95 0 0 0-.614-.038c-.415.015-.495.03-.624.119-.082.056-.143.109-.136.118a11 11 0 0 0 1.052.355c.121.031.344.1.494.154s.357.125.461.158c.255.083.4.132 1.108.375.15.052.365.125.478.162s.289.1.392.149.326.134.5.2c.37.147.553.287.584.449.053.277-.147.471-.675.654a1.773 1.773 0 0 1-1.084.051c-.1-.035-.259-.083-.343-.107-.191-.056-1.074-.35-1.621-.541-.225-.079-.463-.158-.528-.177s-.273-.088-.461-.155-.4-.136-.46-.154-.288-.094-.495-.169c-.34-.124-.625-.22-1.33-.448-.294-.095-.381-.154-.411-.279a.165.165 0 0 1 .047-.172c.079-.083.184-.064.773.137.928.317 1.241.423 1.638.555.243.081.566.191.716.244s.326.112.392.131.273.089.461.154.586.2.886.295.632.205.736.241a1.736 1.736 0 0 0 1.039-.033.79.79 0 0 0 .255-.129c0-.049-.27-.175-.476-.223-.1-.024-.266-.072-.36-.105l-.375-.129c-.472-.156-.76-.257-.9-.317a.8.8 0 0 0-.212-.064.82.82 0 0 1-.205-.06c-.08-.033-.276-.1-.436-.158a17.9 17.9 0 0 1-1.847-.716.412.412 0 0 1-.2-.412c0-.234.1-.319.594-.513a2.49 2.49 0 0 1 1.245-.029c.294.1.514.161.719.208.1.024.264.072.358.105.214.076.655.228.913.313.488.162.636.212.844.288.327.12.507.181.716.244.1.031.272.09.375.131s.449.165.768.275a2.3 2.3 0 0 0 1.04.2c.394 0 .484-.01.618-.088.2-.115.232-.18.108-.214-.249-.069-7.5-2.443-7.5-2.462 0 0-.1-.039-.136-.057-.052-.026-.028-.092.092-.127 0 0 .235-.074.338-.1.162-.046.759-.244 2-.662a.836.836 0 0 1 .717-.039c.112.039.257.087.323.106s.457.148.87.288.842.28.955.314.3.1.409.145l.188.067-.154.047c.014.013-.941.279-.941.279-.333.115-1.052.327-1.052.327-.136.108-.111.144.134.2.085.018.3.082.478.143s.408.136.512.168.31.1.46.155.327.113.392.132.273.088.461.154.494.169.682.23a4.08 4.08 0 0 1 1.211.532.309.309 0 0 1 .078.291zM18.606 16c-.136.03-.445.122-.76.228-.1.034-.318.1-.478.15s-.6.188-.989.311a6.6 6.6 0 0 1-.8.224 9.6 9.6 0 0 1-1.242-.377c-.1-.036-.341-.115-.529-.175s-.491-.159-.674-.219-.4-.124-.487-.141-.15-.038-.142-.047.265-.1.573-.2.644-.207.747-.243.4-.137.665-.224.577-.2.7-.244a1.107 1.107 0 0 1 .819.018c.1.04.633.214 1.177.386l1.259.4a2 2 0 0 1 .283.1c.002.018-.05.039-.122.053"/></svg>