<svg xmlns="http://www.w3.org/2000/svg" viewBox="0 0 24 24"><path fill="#44739e" d="M11.803 8.531c-.559.772-.798 1.649-.905 2.314h-1.17c.107-.798.399-1.941 1.144-2.979.957-1.356 2.739-2.447 5.612-2.367l-.24 1.144c-2.446 0-3.697.877-4.441 1.888m4.255-1.011-.239 1.171c-1.277.08-1.942.612-2.367 1.17-.24.319-.373.665-.479 1.011h-1.17c.106-.506.319-1.091.718-1.676.612-.904 1.782-1.622 3.537-1.675m-2.127 3.351c.079-.16.132-.24.239-.399.266-.399.691-.718 1.409-.772l-.266 1.171Zm8.111-1.17s.931.212.958 1.17h-1.224Zm-15.718.026h1.383l-1.304 6.064c-.425 1.995-1.569 2.713-3.218 2.713-1.675 0-2.5-.718-2.074-2.713l1.303-6.09h1.383l-1.33 6.197c-.239 1.09.107 1.569.931 1.569s1.356-.479 1.596-1.569l1.33-6.197Zm4.92 1.942c.984 0 1.516.452 1.224 1.782l-1.038 4.894h-1.303l.957-4.469c.16-.851 0-1.17-.664-1.17-.532 0-1.118.426-1.304 1.276l-.904 4.336H6.909l1.383-6.49h1.223l-.159.772h.026c.452-.586 1.144-.931 1.862-.931m2.58.159h1.303l-1.383 6.517h-1.303Zm3.404 1.436h3.033l-.24 1.144h-3.032l-.851 3.936h-1.383l1.862-8.644h4.415l-.266 1.171h-3.032Zm2.979 5.08 1.357-6.516h1.33l-1.383 6.516Z"/></svg>