<svg xmlns="http://www.w3.org/2000/svg" fill="#44739e" viewBox="0 0 24 24"><path d="M5.4125 1.1494c.802 5.4144 5.5345 2.4137 5.5345 7.2054v11.6637c0 .2094 0 .314-.1995.4188-.7183.5566-1.9073 1.0057-3.1882 1.036-.6025.204-.9218.1378-.9138.62.7023.3858.846.2948 1.652.4023 1.3327.1708 2.1946.0303 3.8226.0303 1.5043 0 1.5921.0468 3.1802.0083.806-.102 1.5044.0413 2.2066-.372.399-.6255-.0279-.4987-.359-.6475-.9937-.0661-3.4437-.5373-3.7908-1.0801-.1995-.1047-.1995-.3114-.1995-.416V8.3547c.399-4.5823 4.1857-1.7773 4.9878-7.1944-1.241-.033-9.8719-.011-12.7329-.011"/></svg>