<svg xmlns="http://www.w3.org/2000/svg" fill="#44739e" viewBox="0 0 24 24"><path d="M4.914 13.611a5.166 5.166 0 0 0 1.832 4.129A35.74 35.74 0 0 0 12 20.5a31.95 31.95 0 0 0 5.255-2.76 5.069 5.069 0 0 0 1.832-4.129V4.625h.022c-.971-.088-1.965-.154-3-.154-3.776 0-7.838.816-11.194 3.885zm11.944-4.945a2.41 2.41 0 0 1 1.5.441V10.3a1.836 1.836 0 0 0-1.215-.552c-.375 0-.794.177-.794.641-.023.485.4.684.883.993 1.126.663 1.347 1.259 1.324 2.054a1.828 1.828 0 0 1-1.965 1.81 3.19 3.19 0 0 1-1.5-.419v-1.26a2.15 2.15 0 0 0 1.3.552.727.727 0 0 0 .817-.751c0-.419-.243-.662-.839-1.015-1.126-.663-1.325-1.192-1.347-1.921a1.8 1.8 0 0 1 1.836-1.766m-6.491.485a3.323 3.323 0 0 1 1.833-.485c1.634 0 2.517 1.236 2.517 3.2 0 1.987-.861 3.334-2.385 3.334a3.25 3.25 0 0 1-.618-.066l.022 2.87h-1.369Zm-4.747 3.93V8.8h1.369v4.328c0 .375.088.949.707.949a1.1 1.1 0 0 0 .64-.177V8.8h1.347v5.9a3.64 3.64 0 0 1-2.054.552c-1.347 0-2.009-.728-2.009-2.164ZM12 2a17.4 17.4 0 0 0-8.433 1.912v9.793a6.353 6.353 0 0 0 2.3 5.092A38.73 38.73 0 0 0 12 22a37.2 37.2 0 0 0 6.129-3.226 6.285 6.285 0 0 0 2.3-5.092v-9.77A17.4 17.4 0 0 0 12 2m7.839 11.633a5.835 5.835 0 0 1-2.1 4.681 36.3 36.3 0 0 1-5.716 2.986 38.7 38.7 0 0 1-5.718-3 5.833 5.833 0 0 1-2.1-4.681V4.426a16.54 16.54 0 0 1 7.816-1.744 16.28 16.28 0 0 1 7.816 1.744zm-7.661.486c.772 0 1.148-.728 1.148-2.208 0-1.523-.331-2.141-1.126-2.141a1.47 1.47 0 0 0-.486.088l.022 4.173a1.11 1.11 0 0 0 .442.088M12 22"/></svg>