<svg xmlns="http://www.w3.org/2000/svg" fill="#44739e" viewBox="0 0 24 24"><path d="M13.638 6.926a2.2 2.2 0 0 0-.29.02 3.63 3.63 0 0 0-2.125.665l.218.451a3.01 3.01 0 0 1 1.683-.562 1.548 1.548 0 0 1 1.76 1.3 1.47 1.47 0 0 1 .014.325c-.013 1.225-1 2.229-3.094 4.076l-.816.735v.413H15.9V13.8h-3.669v-.22l.054-.068.652-.56C14.556 11.509 15.7 10.379 15.7 9a2.068 2.068 0 0 0-2.062-2.074m-.426 10.16-.107-.068-5.01-3.172-1.081.605 5.284 3.216zM6.259 7.198l.987-.572L4.29 5.34l-.117 3.067 1.071-.621 2.307 2.969-5.55 3.736.873 1.032 6.596-4.462Zm5.833 11.235-5.257-3.311-3.125 1.543 5.08 3.588Zm-2.703-5.871 1.584.985.292-.264-1.917-1.173Zm2.857-.162c.089-.081.17-.158.255-.235l-2-1.225.036.4zM7.355 6.7l.024.014 1.05 1.142v.014l.023.014 1.071 1.16v.015l.023.014L11 10.655l-.393.22 1.99 1.207q.372-.351.672-.657L11.514 10.4l.091-.061.011-.007 1.745 1c.109-.114.208-.223.3-.33L10.5 9.127V9.11l-.03-.01.375-.243 1.083-.727a3.65 3.65 0 0 0-.448.281l-.145.113-.183-.373-.632.427-1.12-.65V7.91l-.057-.034.114-.083 4.857-3.259.021-.46-4.912 3.317-2.167-1.345.1.644Zm4.008 6.5.24-.215c.2-.176.364-.331.537-.485l-1.633-1.035-1.037.579Zm2.855-9.186L12.199 3 7.382 5.992l2.049 1.235ZM13.126 7.8a2.25 2.25 0 0 0-.554.072L10.725 9.1l3.037 1.79a2.8 2.8 0 0 0 .838-1.763c0-.606-.257-1.327-1.474-1.327m3.513 4.968-1.9-1.128c-.094.1-.2.207-.3.312l2.138 1.227.132.071-.14.093h-.007l-.358.244v1.062h-.741l-.954.614-1-.614h-.76l1.692 1.051.134.079-.024.018-.052.033-.073.053h-.005l-.977.628-5.3-3.246.043.491 5.064 3.151.134.079.106.065v.028l-1.177.757-4.906-3-.521-.319.047.516 5.33 3.3.094.057h.008l-.146.083-3.43 1.959-5.213-3.7v.541L8.79 21l3.787-2.232.615-.363.57-.334 1.938-2.366.008-.006 1-1.223 2.253-2.753 3.011-2.134.028-.525Zm-8.374.435 5.164 3.144.856-.545-1.815-1.149h-1.784v-.847l.183-.166-1.586-1.005Zm6.413.298-1.132-.693-.266.24.727.453zm-1.543-.321-.375.321h.966l-.556-.352Zm2.062 1.473h-1.44l.736.447Zm.929-1.153.339-.215-.029-.014-2.093-1.221c-.217.218-.451.441-.7.669l1.282.781Zm-2.752-6.847a3.66 3.66 0 0 1 .661.063L15.548 5.7l-.034-.018.021-.487Zm-2.846 1.754.567-.38-.247-.5.1-.08a3.87 3.87 0 0 1 2.18-.782l2.287-1.536-1.015-.507-4.81 3.245Zm3.702-1.642A2.26 2.26 0 0 1 16 9a3.832 3.832 0 0 1-1.166 2.526l1.811 1.07L21.871 9l.129.064-6.29-3.283Z"/></svg>