<svg xmlns="http://www.w3.org/2000/svg" fill="#44739e" viewBox="0 0 24 24"><path d="M17.2525 11.8229h-1.237v-5.081h-1.067l-3.867 5.119v.529h4.107v2.225h.827v-2.225h1.237zm-2.024-4.152c-.027.423-.04.851-.04 1.273v2.879h-3.2v-.2l.032-.066 2.162-2.779c.257-.4.468-.745.722-1.189l.043-.075h.288zm-5.637.18.939.54 4.883-3.278-1.012-.507zm3.84 8.48.856-.545-5.003-3.167-1.017.568zm-9.257-7.94 1.072-.621 2.307 2.969-5.55 3.736.872 1.032 6.596-4.462-3.21-3.863.987-.572-2.956-1.286zm5.258-1.18 4.788-3.213-2.02-1.014-4.816 2.992zm-2.417 7.224 5.284 3.216.914-.581-.106-.068-5.011-3.172zm1.776 5.802 3.302-1.82-5.257-3.311-3.124 1.543zm3.68-7.547h-1.69v-.929l.072-.096-.345-.218-1.037.579 5.023 3.058.393-.25v-.615zm-1.94-1.37.397.247.195-.259-.628-.384zm1.897.203h1.04l-.715-.418zm4.213 1.229-.105-.062h-.221v.323l.262.15.132.071-.14.093-.006.004-.248.169v1.416h-1.285l-.521.335-5.159-3.157.041.452 5.051 3.144.135.079-.025.018.001.004-.052.033-.073.053-.005-.003-.977.628-5.303-3.246.044.491 5.063 3.151.135.079h-.001l.106.065.002.028-1.177.757-4.907-3.003-.52-.319.046.516 5.331 3.3.001.001.093.057v.003l.008.005-.145.083h-.002l-3.429 1.946-5.213-3.702v.541l5.213 3.729 3.787-2.232.616-.363.57-.334 1.935-2.366.009-.006v-.005l1-1.223.001-.001v-.001l2.252-2.753 3.012-2.134.024-.518-4.444 3.074v.568h-.822zm-3.447-2.214 1.667.985h.026v-2.579c0-.249 0-.5.014-.751-.152.255-.3.494-.472.757zm-.09.116-.277.356.893.513h.848zm3.211.869h1.238v.435l4.319-2.974.124.064-6.284-3.283-4.985 3.314 1.438.85 2.635-3.486h1.515zm-1.428 2.508v-.419l-1.507-.922h-.648zm1.573-.761-.023-.014-.122-.071v.177zm-9.073-6.566 1.05 1.142.003.014.023.014 1.062 1.154.004.015.023.014 1.455 1.582-.394.22.582.354.533-.706-.213-.124.092-.061.01-.007.179.103.281-.373-1.575-.934.001-.017-.032-.014.375-.243 4.703-3.157-.034-.018.021-.487-5.014 3.383-1.116-.65v-.014l-.056-.034.114-.083 4.856-3.259.021-.46-4.916 3.317-2.168-1.345.104.644-.003-.001.003.004.002.013zm7.5 5.986h-1.267l1.267.771z"/></svg>