<svg xmlns="http://www.w3.org/2000/svg" viewBox="0 0 24 24"><path fill="#44739e" d="M17.779 11.823h-1.361V6.232h-1.174l-4.255 5.633v.582h4.519v2.448h.91v-2.448h1.361Zm-2.227-4.569c-.03.466-.044.937-.044 1.401v3.168h-3.521v-.22l.035-.073 2.379-3.058c.283-.44.515-.819.794-1.308l.048-.082h.317Zm-6.203.198 1.034.595 5.372-3.607-1.113-.558Zm4.226 9.331.941-.6-5.504-3.484-1.12.625ZM3.389 8.047l1.179-.684 2.539 3.267L1 14.741l.959 1.135 7.258-4.909-3.532-4.251 1.086-.629-3.252-1.415Zm5.785-1.299 5.269-3.535-2.223-1.116-5.299 3.292Zm-2.659 7.949 5.814 3.539 1.006-.64-.117-.075-5.514-3.49Zm1.954 6.384 3.633-2.003-5.784-3.643-3.438 1.698Zm4.049-8.304h-1.859v-1.022l.079-.106-.38-.24-1.141.637 5.527 3.365.433-.275v-.677Zm-2.134-1.508.436.272.215-.285-.691-.422Zm2.087.224h1.144l-.786-.46Zm4.636 1.352-.116-.068h-.243v.355l.288.165.145.078-.154.103-.006.004-.273.186v1.558h-1.414l-.573.369-5.677-3.474.045.497 5.558 3.46.149.087-.028.02.001.004-.057.036-.08.059-.006-.004-1.075.691L7.756 13.4l.048.54 5.571 3.467.149.087h-.001l.116.071.003.031-1.295.833-5.4-3.304-.572-.351.051.568 5.866 3.631.001.001.102.063v.003l.009.005-.16.092h-.002l-3.773 2.141-5.736-4.073v.595l5.736 4.103 4.167-2.456.678-.399.627-.368 2.129-2.603.01-.007v-.005l1.1-1.346.001-.001v-.001l2.478-3.029 3.315-2.349.026-.57-4.89 3.383v.625h-.904Zm-3.793-2.436 1.834 1.084h.029V8.655c0-.274 0-.55.015-.826-.167.28-.33.543-.519.833Zm-.099.128-.305.391.983.565h.933Zm3.533.956h1.362v.478l4.752-3.272.137.07-6.915-3.612-5.485 3.647 1.583.935 2.899-3.836h1.667Zm-1.571 2.759v-.461l-1.659-1.014h-.713Zm1.73-.837-.025-.015-.134-.079v.195ZM6.924 6.19 8.08 7.447l.003.015.025.016 1.169 1.269.004.017.025.015 1.601 1.741-.433.242.64.39.587-.777-.235-.137.102-.067.011-.007.197.113.309-.411-1.733-1.027.001-.019-.035-.015.412-.268 5.175-3.473-.037-.02.023-.536-5.517 3.722-1.228-.715V7.5l-.062-.038.126-.091 5.343-3.586.023-.506-5.409 3.65-2.386-1.48.115.708-.004-.001.004.005.002.014Zm8.253 6.587h-1.394l1.394.848Z"/></svg>