<svg xmlns="http://www.w3.org/2000/svg" fill="#44739e" viewBox="0 0 24 24"><path d="m6.261 7.198.987-.572L4.292 5.34l-.118 3.067 1.072-.621 2.307 2.969-5.55 3.736.872 1.032 6.596-4.462zm7.959-3.184L12.2 3 7.384 5.992l2.048 1.235Zm-3.69 4.393 4.883-3.278-1.012-.507-4.81 3.245Zm6.119 4.189L21.872 9l.124.064-6.284-3.283-4.985 3.314ZM7.408 14.84l-.52-.319m15.109-5.457-5.356 3.704-6.139-3.641.001-.017-.032-.014.375-.243 4.703-3.157-.034-.018.021-.487-5.014 3.383-1.116-.65V7.91l-.056-.034.114-.083 4.856-3.259.021-.46-4.916 3.317-2.168-1.345.104.644-.003-.001.003.004.002.013.024.014 1.05 1.142.003.014.023.014 1.062 1.154.004.015.023.014 1.455 1.582-.394.22 4.925 2.998.922-.587-.023-.014-4.922-2.873.092-.061.01-.007 4.96 2.848.132.071-.14.093-.006.004-1.01.689-5.058-3.096.036.396 4.993 3.108.135.079-.149.108-.006-.004-.995.64L9.35 12.11l.041.452 5.051 3.144.135.079-.025.018.001.004-.052.033-.073.053-.005-.003-.977.628-5.303-3.246.468.287-.468-.287.044.491 5.063 3.151.135.079h-.001l.106.065.002.028-1.177.757-4.907-3.003-.52-.319.046.516 5.331 3.3.001.001.093.057v.003l.008.005-.145.083h-.002l-3.429 1.946-5.213-3.702v.541L8.791 21l3.787-2.232.616-.363.57-.334 1.935-2.366.009-.006v-.005l1-1.223.001-.001v-.001l2.252-2.753 3.012-2.134zm-6.625 5.478-4.864-3.079-1.037.579 5.023 3.058zM9.35 12.109v.001zm4.937 3.693-5.003-3.167-1.017.568 5.164 3.144zm-1.074 1.284-.106-.068-5.011-3.172-1.081.605 5.284 3.216zm-1.12 1.347-5.257-3.311-3.124 1.543 5.079 3.588z"/></svg>