<svg xmlns="http://www.w3.org/2000/svg" fill="#44739e" viewBox="0 0 24 24"><path d="M14.533 10.17a2.016 2.016 0 0 0 1.593-1.882c0-.877-.65-1.9-2.479-1.9a4.53 4.53 0 0 0-2.218.571l.216.564a3.65 3.65 0 0 1 1.763-.5c1.3 0 1.762.747 1.762 1.446 0 1.054-1.108 1.6-2.2 1.6h-.542v.573h.542c1.154 0 2.508.489 2.523 1.868a1.682 1.682 0 0 1-.476 1.207 2.385 2.385 0 0 1-1.75.612 4.6 4.6 0 0 1-1.956-.478l-.232.619a4.97 4.97 0 0 0 2.2.5c2.215.007 3.2-1.213 3.2-2.423a2.14 2.14 0 0 0-1.924-2.061l-.123-.023v-.232Zm-.315-6.156L12.199 3 7.382 5.992l2.049 1.235Zm-1.006 13.072-.107-.068-5.01-3.172-1.081.605 5.284 3.216zm-3.823-4.524 1.7 1.055.073-.192.148.092a4.14 4.14 0 0 0 .941.37l-2.9-1.777Zm-3.13-5.364.987-.572L4.29 5.34l-.117 3.067 1.071-.621 2.307 2.969-5.55 3.736.873 1.032 6.596-4.462zm10.51 5.481a2.47 2.47 0 0 1-.095.553l.033.018-.049.033a2.7 2.7 0 0 1-1.782 1.747l-.369.237-.167-.1a5.2 5.2 0 0 1-.638.082l.739.459.134.079-.024.018-.052.033-.073.053h-.005l-.977.628-5.3-3.246.043.491 5.064 3.151.135.079.105.065v.028l-1.177.757-4.906-3-.521-.319.047.516 5.33 3.3.094.057h.008l-.146.083-3.43 1.951-5.213-3.7v.541L8.79 21l3.787-2.232.615-.363.57-.334 1.938-2.366.008-.006 1-1.223 2.253-2.753 3.011-2.134.028-.525Zm-8.504.521 5.164 3.144.856-.545-.846-.536c-.055 0-.1.012-.156.012a5.04 5.04 0 0 1-2.467-.6l-.106-.064.326-.864-1.753-1.11zm3.827 5.233-5.257-3.311-3.125 1.543 5.08 3.588zm2.36-7.133.015.009m.404-2.831c0-.718-.546-1.147-1.461-1.147h-.028L10.725 9.1l1.4.825v-.147h.842c.767 0 1.904-.348 1.904-1.3m-1.9 2.473H12.7l2.477 1.423a1.34 1.34 0 0 0-.193-.588l-1.281-.76a3.6 3.6 0 0 0-.732-.075m.679-4.864c.107 0 .2.013.3.022l1.459-.98-1.009-.507-2.98 2.012a4.854 4.854 0 0 1 2.23-.547m.802 7.691a1.46 1.46 0 0 0 .312-.223L10.5 10.94l.036.4zM7.355 6.7l.024.014 1.05 1.142v.014l.023.014 1.071 1.16v.015l.023.014L11 10.655l-.393.22 4.234 2.578a1.367 1.367 0 0 0 .344-.908l-2.725-1.594h-.331v-.193l-.615-.359.091-.061.011-.007.513.295v-.533L10.5 9.127V9.11l-.03-.01.375-.243 2.224-1.494a3.5 3.5 0 0 0-1.412.511l-.158.1-.018-.048-.961.648-1.12-.65V7.91l-.057-.034.114-.083 4.857-3.259.021-.46-4.912 3.317-2.167-1.345.1.644ZM9.59 7.867l.938.54.906-.607-.36-.935Zm3.068 6.116a3.7 3.7 0 0 0 .612.054 2.63 2.63 0 0 0 1.01-.186l-3.773-2.388-1.037.579ZM14.936 6.3a2.1 2.1 0 0 1 1.492 1.992 2.2 2.2 0 0 1-1.4 2.007 2.355 2.355 0 0 1 1.755 2.211L21.871 9l.129.064-6.29-3.283Zm-.784-.172a3.55 3.55 0 0 1 .586.115l.81-.543-.034-.018.021-.487Z"/></svg>