<svg xmlns="http://www.w3.org/2000/svg" viewBox="0 0 24 24"><path fill="#44739e" d="M14.786 9.987a2.218 2.218 0 0 0 1.752-2.07c0-.965-.715-2.091-2.727-2.091a4.983 4.983 0 0 0-2.44.629l.238.62a4.015 4.015 0 0 1 1.939-.55c1.43 0 1.939.822 1.939 1.591 0 1.159-1.219 1.76-2.42 1.76h-.597v.63h.597c1.269 0 2.758.538 2.775 2.055a1.85 1.85 0 0 1-.524 1.328 2.624 2.624 0 0 1-1.925.673 5.06 5.06 0 0 1-2.151-.526l-.256.681a5.47 5.47 0 0 0 2.42.55c2.437.008 3.521-1.334 3.521-2.665a2.354 2.354 0 0 0-2.117-2.267l-.135-.026v-.255Zm-.347-6.772L12.218 2.1 6.919 5.391l2.254 1.358Zm-1.106 14.38-.118-.075-5.511-3.489-1.189.665 5.812 3.538Zm-4.206-4.977 1.87 1.161.081-.211.162.101a4.55 4.55 0 0 0 1.036.407l-3.191-1.955Zm-3.443-5.9 1.086-.63-3.252-1.414-.129 3.374 1.178-.684 2.538 3.266L1 14.74l.96 1.135 7.256-4.908Zm11.562 6.029a2.72 2.72 0 0 1-.105.608l.036.02-.053.036a2.97 2.97 0 0 1-1.961 1.922l-.406.261-.183-.11a5.7 5.7 0 0 1-.702.09l.813.505.147.087-.026.02-.058.036-.08.058h-.005l-1.075.691-5.83-3.571.047.54 5.571 3.467.148.087.116.071v.031l-1.295.833-5.397-3.3-.573-.351.052.567 5.863 3.63.103.063h.009l-.161.091-3.773 2.147-5.734-4.071v.596L8.468 21.9l4.166-2.455.677-.399.627-.368 2.132-2.602.008-.007 1.101-1.345 2.478-3.029 3.312-2.347L23 8.77Zm-9.355.573 5.68 3.459.942-.6-.931-.59c-.06 0-.11.014-.171.014a5.544 5.544 0 0 1-2.714-.66l-.117-.071.359-.95-1.928-1.221Zm4.21 5.757-5.783-3.643-3.438 1.698 5.588 3.947Zm2.596-7.847.016.01m.445-3.114c0-.79-.601-1.262-1.607-1.262h-.031L10.597 8.81l1.54.907v-.161h.926c.844 0 2.095-.383 2.095-1.43m-2.09 2.72h-.299l2.725 1.565a1.474 1.474 0 0 0-.212-.646l-1.409-.836a3.96 3.96 0 0 0-.805-.083m.747-5.351c.117 0 .22.015.33.025l1.605-1.078-1.11-.558-3.279 2.213a5.34 5.34 0 0 1 2.454-.602m.882 8.461a1.6 1.6 0 0 0 .343-.245l-4.691-2.877.04.44ZM6.89 6.17l.026.015 1.155 1.256v.016l.025.015 1.179 1.276v.017l.025.015 1.599 1.74-.432.242 4.658 2.836a1.504 1.504 0 0 0 .378-.998l-2.998-1.754h-.364v-.212l-.676-.395.1-.067.012-.008.564.325v-.587L10.349 8.84v-.019l-.033-.011.413-.267 2.446-1.644a3.85 3.85 0 0 0-1.553.562l-.174.11-.019-.053-1.058.713-1.232-.715v-.015l-.062-.038.125-.091 5.343-3.585.023-.506L9.165 6.93 6.781 5.45l.11.709Zm2.458 1.283 1.032.595.997-.668-.396-1.029Zm3.375 6.728a4.07 4.07 0 0 0 .674.06 2.89 2.89 0 0 0 1.111-.205l-4.151-2.627-1.141.637Zm2.506-8.451a2.31 2.31 0 0 1 1.641 2.191 2.42 2.42 0 0 1-1.54 2.208 2.591 2.591 0 0 1 1.931 2.432L22.858 8.7l.142.07-6.919-3.611Zm-.862-.19a3.9 3.9 0 0 1 .644.127l.891-.597-.037-.02.023-.536Z"/></svg>