<svg xmlns="http://www.w3.org/2000/svg" viewBox="0 0 24 24"><path fill="#44739e" d="M12.899 4.76a4.38 4.38 0 0 0 1.268-.08V3.571h-1.429V4.68c.161.048.071-.011.161.08m0-1.11h1.19a3.09 3.09 0 0 1-.079.951h-1.111ZM9.808 4.68h1.43V3.571h-1.43Zm.159-1.03h1.109v.876H9.967Zm9.603 3.337a.195.195 0 0 0-.195-.194h-4.336V2.936a6.93 6.93 0 0 0-.079-1.902h-4.042a7.26 7.26 0 0 0-1.979.079v5.68H4.624a.194.194 0 0 0-.194.194v3.927h15.14Zm-8.176-.194h-2.22V1.272h2.774v.713l-.549-.079v1.11l.549-.08v3.57a1.51 1.51 0 0 0-.549-.159Zm3.409 0h-3.33v-.287a3.96 3.96 0 0 0 .634.158V3.805c0-.307.072-.859-.08-1.03-.109-.077-.289.049-.549.079v-.79l.633.08v-.872h2.695ZM4.43 11.576v11.229a.195.195 0 0 0 .194.195h14.751a.195.195 0 0 0 .195-.195V11.576ZM12 13.062a.497.497 0 1 1-.496.496.496.496 0 0 1 .496-.496m0 1.86a.496.496 0 1 1-.496.496.496.496 0 0 1 .496-.496m0 5.659a1.467 1.467 0 1 1 1.466-1.467A1.466 1.466 0 0 1 12 20.581"/></svg>