<svg xmlns="http://www.w3.org/2000/svg" viewBox="0 0 24 24"><path fill="#44739e" d="M4.549 1h-.726v22h.726l.058-.043V1.043Zm2.68 20.008a11.77 11.77 0 0 0 4.818-7.182A1.833 1.833 0 0 1 10.798 12a1.833 1.833 0 0 1 1.249-1.826 11.77 11.77 0 0 0-4.818-7.182L4.986 1.33v21.351Zm7.509-7.182A1.833 1.833 0 0 1 13.491 12a1.833 1.833 0 0 1 1.247-1.826 11.77 11.77 0 0 0-4.816-7.182L7.241 1h-.726v.969l.95.706a13.8 13.8 0 0 1 3.39 3.552 10.86 10.86 0 0 1 1.615 4.07l.035.205-.206.025A1.397 1.397 0 0 0 11.193 12a1.397 1.397 0 0 0 1.106 1.473l.206.025-.035.205a10.86 10.86 0 0 1-1.615 4.07 13.8 13.8 0 0 1-3.39 3.552l-.95.706V23h.726l2.681-1.992a11.77 11.77 0 0 0 4.816-7.182m2.746 0A1.833 1.833 0 0 1 16.237 12a1.833 1.833 0 0 1 1.247-1.826 11.77 11.77 0 0 0-4.817-7.182L9.986 1H9.26v1.009l.897.666a13.8 13.8 0 0 1 3.39 3.552 10.835 10.835 0 0 1 1.615 4.07l.035.205-.207.025A1.397 1.397 0 0 0 13.89 12a1.397 1.397 0 0 0 1.1 1.473l.207.025-.035.205a10.835 10.835 0 0 1-1.615 4.07 13.8 13.8 0 0 1-3.39 3.552l-.897.666V23h.726l2.681-1.992a11.77 11.77 0 0 0 4.817-7.182M18.929 12a1.833 1.833 0 0 1 1.248-1.826 11.77 11.77 0 0 0-4.817-7.182L12.678 1h-.726v.969l.951.706a13.8 13.8 0 0 1 3.386 3.552 10.86 10.86 0 0 1 1.615 4.07l.035.205-.206.025a1.397 1.397 0 0 0-1.1 1.473 1.397 1.397 0 0 0 1.1 1.473l.206.025-.035.205a10.86 10.86 0 0 1-1.615 4.07 13.8 13.8 0 0 1-3.39 3.552l-.95.706V23h.726l2.681-1.992a11.77 11.77 0 0 0 4.816-7.182A1.833 1.833 0 0 1 18.929 12"/></svg>