<svg xmlns="http://www.w3.org/2000/svg" viewBox="0 0 24 24"><path fill="#44739e" d="m21.913 11.733-.033 1.53.312.161-.017.376.609.019a4.51 4.51 0 0 0 .055-2.571l-.636-.019-.019.45ZM3.504 12.764l.016-1.53-.313-.154.013-.376h-.61a4.517 4.517 0 0 0-.026 2.57l.636.007.015-.451Zm-1.351-.306.124.002.01-.987-.182-.012.007-.612-.124-.001h-.011l-.125-.001-.007.441-.706-.015v.001l-.125-.003-.004.385.124.001.159.003-.006.479-.283.002-.004.457.822.017.002.372.124.001h.007l.125.001.012-.531Zm10.184-3.222c-2.566-.623-5.22-1.267-7.865-.033l-.099.046-.015 1.894h-.026l-.539-.006-.015 1.581.563-.087-.021 2.13.193-.089a7.04 7.04 0 0 1 1.362-.466l3.428.479.051-.55c.182.028.364.057.55.09v.33l2.171.15.163.04c2.321.574 4.715 1.165 7.113.364l.587.048.039-.289.124-.056.099-.047.013-1.319.854.009v-.433l.482-.016.01-.965-.455-.005v-.511l-.807-.007.014-.071-.077-.044.018-2.216-.193.091c-2.579 1.206-5.194.571-7.722-.042m7.568 5.246c-2.546 1.129-5.127.491-7.623-.127s-5.084-1.256-7.666-.154l.015-1.539c2.546-1.129 5.127-.491 7.623.126s5.084 1.257 7.666.155Zm.034-3.237-.464-.267s-.375-.095-.429-.117-.76-.101-.76-.101l-.996.135-.162.048-1.807-.375-.007.732h-.431l.007-.732-2.123-.285-1.452-.016-1.403.249-.008.733h-.35l.008-.733-1.879.229-.586-.095-1.229-.231-1.004.155-.213.241.01-1.268c2.544-1.139 5.126-.513 7.624.093s5.086 1.236 7.666.121Z"/></svg>