<svg xmlns="http://www.w3.org/2000/svg" viewBox="0 0 24 24"><path fill="#44739e" d="M12.858 9.162h.503v2.408h-.503Zm7.433.119a.4.4 0 0 0-.278-.119h-.226v2.408h.504Zm-2.044-.119h.503v2.408h-.503Zm4.742 6.212-.363-6.879a.934.934 0 0 0-.828-.968H2.228a.933.933 0 0 0-.827.963l-.389 6.875a.967.967 0 0 0 .829 1.108h20.32a.965.965 0 0 0 .828-1.099m-1.746-.573a.769.769 0 0 1-.669.836H3.544a.769.769 0 0 1-.669-.836V9.029a.769.769 0 0 1 .669-.836h17.028a.769.769 0 0 1 .669.836Zm-3.766-5.639h.504v2.408h-.504Zm1.54 0h.503v2.408h-.503Zm-3.08 0h.503v2.408h-.503Zm.77 0h.503v2.408h-.503Zm-2.31 0h.503v2.408h-.503Zm-.77 0h.503v2.408h-.503Zm1.541 0h.503v2.408h-.503Zm-3.081 2.852h.504v2.65h-.504Zm-.769 0h.503v2.65h-.503Zm-.77 0h.503v2.65h-.503Zm2.31 0h.503v2.65h-.503Zm-3.081 0h.504v2.65h-.504Zm-1.539 0h.503v2.65h-.503Zm.77 0h.503v2.65h-.503Zm4.619 0h.503v2.65h-.503Zm6.16 2.65h.226a.4.4 0 0 0 .278-.12v-2.528h-.504Zm-1.54-2.65h.503v2.65h-.503Zm.77 0h.503v2.65h-.503Zm-11.549 0h.503v2.65h-.503Zm9.239 0h.503v2.65h-.503Zm-1.539 0h.503v2.65h-.503Zm-.771 0h.503v2.65h-.503Zm3.08 0h.504v2.65h-.504Zm-1.54 0h.503v2.65h-.503ZM4.121 9.162h-.018a.518.518 0 0 0-.452.564v1.844h.47Zm4.117 0h.503v2.408h-.503Zm-.77 0h.503v2.408h-.503Zm-.77 0h.504v2.408h-.504Zm-.77 0h.503v2.408h-.503Zm5.39 0h.503v2.408h-.503Zm-4.62 2.852h.504v2.65h-.504Zm3.079-2.852h.504v2.408h-.504Zm.771 0h.503v2.408h-.503Zm-1.54 0h.503v2.408h-.503Zm-3.85 2.852h.503v2.65h-.503Zm-.77 0h.504v2.65h-.504Zm1.54 0h.503v2.65h-.503Zm-2.279 2.085a.518.518 0 0 0 .452.565h.02v-2.65h-.472Zm1.509-4.937h.503v2.408h-.503Zm-.77 0h.504v2.408h-.504Zm7.699 0h.504v2.408h-.504Z"/></svg>