<svg xmlns="http://www.w3.org/2000/svg" fill="#44739e" viewBox="0 0 24 24"><path d="M13.311 12.89c-.054-.028-.082-.014-.1.04-.151.479-.123.683.027.793.232.136.792-.055 1.052-.56.273-.533.232-1.066 0-1.2-.273-.178-.656.041-.82.45 0 .028 0 .055.027.069.069.041.3.177.151.369-.105.134-.296.049-.337.039m3.565 3.537a.166.166 0 0 0 .164-.164.151.151 0 0 0-.15-.177l-2.623.013a.79.79 0 0 1 .014.315zm-9.766-.355a.164.164 0 1 0 0 .328l2.6-.014a1.15 1.15 0 0 1 .014-.3zm3.374-3.579c.027-.013.027-.041.027-.068-.164-.41-.546-.628-.819-.451-.233.137-.274.67 0 1.2.259.506.833.7 1.051.56.151-.109.178-.314.028-.792-.014-.054-.041-.068-.1-.041-.027.014-.232.082-.328-.041-.143-.203.073-.339.141-.367M8.38 7.808c.369.629.67 1.093.861.984s-.492-.833-1.134-2.5-.86-2.977-.546-3.018S8.353 4.6 8.9 5.964a23.4 23.4 0 0 1 .929 2.992.17.17 0 0 1-.054.177 3.137 3.137 0 0 0-1.257 2.035c-.137 1.121.56 2.869.328 4.221L6.81 15.28a.164.164 0 0 0-.164.15.154.154 0 0 0 .15.164l2.937.15c.191-.451.628-.382.628-.765a.543.543 0 0 0-.205-.409 3.99 3.99 0 0 1-1.216-2.227c-.054-.642.11-1.489.629-1.6.983-.205 1.967 2.049 1.967 3.469 0 .574.027.765-.205 1.093a1.053 1.053 0 0 0-.246.615c.027.287.3.369.437.5.41.4-.014 1.052-.765 1.052a1 1 0 0 1-1.038-.724l-2.308.123c-.082.014-.164.082-.151.164a.155.155 0 0 0 .164.15l1.876-.116a4.355 4.355 0 0 0 2.677 1.789 4.324 4.324 0 0 0 2.677-1.789l1.871.123a.164.164 0 0 0 .164-.15.175.175 0 0 0-.15-.164l-2.309-.123a.976.976 0 0 1-1.024.724c-.751 0-1.175-.656-.765-1.052.137-.136.41-.218.437-.5a.92.92 0 0 0-.246-.615 1.626 1.626 0 0 1-.205-1.093c0-1.42.984-3.674 1.967-3.469.519.1.67.956.629 1.6a4 4 0 0 1-1.23 2.227c-.095.122-.205.2-.205.409 0 .383.451.314.629.765l2.936-.15a.165.165 0 0 0 .151-.164.191.191 0 0 0-.178-.164l-2.035.109c-.232-1.352.464-3.1.328-4.22a3.138 3.138 0 0 0-1.261-2.042.172.172 0 0 1-.055-.178 23.7 23.7 0 0 1 .929-2.991c.547-1.366 1.025-2.718 1.339-2.691s.1 1.352-.547 3.019-1.311 2.4-1.133 2.5.492-.355.86-.983a11.64 11.64 0 0 0 1.093-2.623c.4-1.284.533-3.1 0-3.169-.492-.082-1.407 1.339-2.5 3.4a21.96 21.96 0 0 0-1.42 3.21.109.109 0 0 1-.137.1 3.1 3.1 0 0 0-.642-.055 3.2 3.2 0 0 0-.642.055.116.116 0 0 1-.136-.1A21.35 21.35 0 0 0 9.733 5.4C8.64 3.356 7.725 1.921 7.233 2s-.341 1.885.055 3.183A11.9 11.9 0 0 0 8.38 7.808M12 17.534a1.7 1.7 0 0 0 .779.491 1.086 1.086 0 0 1-.779.328 1.11 1.11 0 0 1-.779-.328 1.856 1.856 0 0 0 .779-.491m0-12.976a3.776 3.776 0 0 1 1.9.532c.218-.423.423-.792.614-1.12A5 5 0 0 0 12 3.274a5.05 5.05 0 0 0-2.527.7c.191.328.4.7.628 1.12A3.74 3.74 0 0 1 12 4.558m4.794 1.488a11.7 11.7 0 0 1-.587 1.407 11.547 11.547 0 0 1 1.735 5.928 8.242 8.242 0 0 1-1.735 5.177A5.433 5.433 0 0 1 12 20.716a5.433 5.433 0 0 1-4.207-2.158 8.268 8.268 0 0 1-1.735-5.177 11.56 11.56 0 0 1 1.749-5.928 10.64 10.64 0 0 1-.588-1.407 12.655 12.655 0 0 0-2.458 7.335 9.47 9.47 0 0 0 2.035 6A6.676 6.676 0 0 0 12 22a6.657 6.657 0 0 0 5.2-2.623 9.55 9.55 0 0 0 2.035-6 12.93 12.93 0 0 0-2.441-7.331"/></svg>