<svg xmlns="http://www.w3.org/2000/svg" viewBox="0 0 24 24"><path fill="#44739e" d="M13.444 12.981c-.059-.031-.09-.016-.11.044-.166.526-.135.751.03.872.255.149.871-.061 1.157-.616.3-.586.255-1.173 0-1.32-.3-.196-.721.045-.902.495 0 .031 0 .06.03.076.076.045.33.194.166.406-.116.147-.326.054-.371.043m3.921 3.89a.183.183 0 0 0 .181-.181.166.166 0 0 0-.165-.194l-2.885.014a.87.87 0 0 1 .015.346ZM6.624 16.48a.18.18 0 1 0 0 .361l2.86-.015a1.26 1.26 0 0 1 .015-.33Zm3.711-3.936c.03-.014.03-.045.03-.075-.181-.451-.601-.691-.901-.496-.256.151-.301.737 0 1.32.285.556.916.77 1.156.616.166-.12.196-.346.031-.871-.016-.06-.045-.075-.11-.045-.03.015-.255.09-.361-.045-.157-.224.08-.373.155-.404M8.021 7.391c.406.692.737 1.202.947 1.082s-.541-.916-1.247-2.749-.946-3.274-.601-3.319.871 1.458 1.473 2.958a25.7 25.7 0 0 1 1.022 3.291.187.187 0 0 1-.06.194 3.45 3.45 0 0 0-1.382 2.239c-.151 1.233.616 3.155.361 4.642l-2.24-.12a.18.18 0 0 0-.18.165.169.169 0 0 0 .165.18l3.23.165c.21-.496.691-.42.691-.841a.597.597 0 0 0-.226-.45 4.388 4.388 0 0 1-1.337-2.449c-.059-.706.121-1.638.692-1.76 1.081-.225 2.163 2.254 2.163 3.816 0 .631.03.841-.225 1.202a1.158 1.158 0 0 0-.271.676c.03.316.33.406.481.55.451.44-.016 1.157-.842 1.157a1.1 1.1 0 0 1-1.141-.796l-2.539.135c-.09.015-.18.09-.166.18a.17.17 0 0 0 .181.165l2.063-.127a4.79 4.79 0 0 0 2.944 1.967 4.756 4.756 0 0 0 2.944-1.967l2.058.135a.18.18 0 0 0 .18-.165.192.192 0 0 0-.164-.18l-2.54-.136a1.073 1.073 0 0 1-1.126.797c-.826 0-1.293-.722-.842-1.157.151-.15.451-.24.481-.55a1.012 1.012 0 0 0-.271-.677 1.788 1.788 0 0 1-.225-1.202c0-1.562 1.082-4.041 2.163-3.815.571.11.737 1.051.692 1.76a4.4 4.4 0 0 1-1.353 2.449c-.104.134-.225.22-.225.45 0 .421.496.345.692.841l3.229-.165a.181.181 0 0 0 .166-.18.21.21 0 0 0-.196-.181l-2.238.12c-.255-1.487.51-3.409.361-4.641a3.45 3.45 0 0 0-1.387-2.246.189.189 0 0 1-.061-.196 26.1 26.1 0 0 1 1.022-3.289c.602-1.503 1.127-2.989 1.473-2.96s.11 1.487-.602 3.321-1.442 2.639-1.246 2.749.541-.39.946-1.081a12.8 12.8 0 0 0 1.202-2.885c.44-1.412.586-3.409 0-3.485-.541-.09-1.547 1.472-2.75 3.739a24.15 24.15 0 0 0-1.561 3.531.12.12 0 0 1-.151.11 3.4 3.4 0 0 0-.706-.061 3.5 3.5 0 0 0-.706.061.128.128 0 0 1-.15-.11 23.5 23.5 0 0 0-1.577-3.535C8.307 2.495 7.301.917 6.76 1.003s-.376 2.074.06 3.501a13.1 13.1 0 0 0 1.201 2.887m3.981 10.697a1.87 1.87 0 0 0 .857.54 1.194 1.194 0 0 1-.857.361 1.22 1.22 0 0 1-.856-.361 2.04 2.04 0 0 0 .856-.54m0-14.271a4.153 4.153 0 0 1 2.09.585c.24-.465.465-.871.675-1.232a5.5 5.5 0 0 0-2.765-.765 5.554 5.554 0 0 0-2.779.769c.21.361.44.77.691 1.232a4.113 4.113 0 0 1 2.088-.589m5.273 1.636a12.9 12.9 0 0 1-.646 1.548 12.7 12.7 0 0 1 1.909 6.52 9.065 9.065 0 0 1-1.909 5.693 5.975 5.975 0 0 1-4.627 2.374 5.975 5.975 0 0 1-4.627-2.374 9.093 9.093 0 0 1-1.908-5.693 12.714 12.714 0 0 1 1.924-6.52 11.7 11.7 0 0 1-.647-1.548 13.918 13.918 0 0 0-2.703 8.068 10.415 10.415 0 0 0 2.238 6.599A7.342 7.342 0 0 0 12.002 23a7.322 7.322 0 0 0 5.72-2.885 10.503 10.503 0 0 0 2.238-6.599 14.22 14.22 0 0 0-2.685-8.063"/></svg>