<svg xmlns="http://www.w3.org/2000/svg" data-name="Livello 1" viewBox="0 0 24 24"><path fill="#44739e" d="M12.1176 22.62h-.2596c-.1956-.2912-.3943-.5805-.5858-.8742-.1546-.237-.3177-.2567-.5138-.0449-.1827.1973-.3659.395-.5616.5797-.233.2199-.4388.1853-.5745-.1042-.0888-.1895-.1565-.3883-.2326-.5834-.1939-.4974-.2716-.5185-.7282-.1976-.1514.1064-.2987.2194-.4566.3161-.3264.2-.5053.1336-.5886-.2232-.06-.2573-.0941-.5202-.1479-.779-.0506-.244-.1867-.3288-.4356-.2121-.2326.109-.4698.21-.7094.304-.3655.1436-.519.0496-.526-.3238-.005-.2649.01-.53.0095-.795-.0006-.2546-.1405-.3546-.392-.299-.2659.0588-.528.1335-.7941.1908-.3092.0667-.5035-.1185-.441-.4206.0393-.1904.0979-.377.1455-.566.1332-.529.0825-.592-.4663-.5836-.2017.0031-.4036.0145-.605.0088-.3804-.0106-.4834-.165-.3396-.5135.0851-.2065.1908-.405.2825-.6092.153-.3403.0804-.4732-.3045-.543-.212-.0383-.4284-.0531-.6402-.0921-.4175-.077-.4953-.2654-.2543-.6137.136-.1968.281-.3881.427-.5783.1776-.2313.1036-.3865-.1525-.484-.2406-.0916-.4886-.166-.726-.2646-.3524-.1464-.394-.3396-.132-.602.1498-.1502.3167-.2844.474-.4278.3683-.336.36-.4034-.0822-.6738-.2542-.1554-.5096-.3091-.7644-.4636v-.3352c.2674-.1613.536-.3207.8019-.4845.3905-.2408.4005-.325.076-.6246-.1459-.1347-.299-.262-.4442-.3976-.3485-.3255-.3079-.5107.1527-.6897.2133-.0829.4318-.153.6452-.2355.2558-.0989.3282-.2543.1507-.4851-.1548-.2012-.312-.4016-.4521-.6123-.2042-.307-.1237-.4998.2393-.5726.225-.045.4569-.057.683-.0978.3838-.0692.4558-.203.3015-.5447-.098-.2167-.214-.4263-.3019-.6465-.1151-.2887-.0155-.4668.3196-.4742a9 9 0 0 1 .7346.0128c.3604.0211.5236-.096.4044-.467a6.7 6.7 0 0 1-.1737-.6883c-.0624-.3008.1342-.4852.4436-.4184.2661.0574.5286.1308.7944.1897.2532.0562.3901-.046.3902-.2998.0001-.265-.0149-.5302-.0097-.7951.0072-.3726.162-.4664.5272-.3222.226.0894.4507.184.6685.2906.2858.14.4348.0432.4886-.241.0467-.246.0784-.4952.1352-.739.0826-.3546.2639-.4211.5893-.2206.1698.1046.329.2255.4928.3392.4125.2866.4987.2629.6745-.1845.0817-.2079.1551-.4195.2496-.6218.1352-.2897.3408-.3248.574-.1038.1954.1852.3786.3828.5614.58.1955.2108.359.194.514-.044.1914-.294.3902-.5833.5857-.8745h.2596c.2042.2849.4158.5651.6103.8561.1644.246.328.2941.5401.0544.1406-.1588.2917-.309.4405-.4609.3714-.3788.5581-.3387.7558.1602.0824.2079.1656.4155.2479.6234.0901.2276.2481.256.442.129.2266-.1484.4394-.317.6689-.4607.305-.1911.5235-.1027.5977.2421.0527.245.0764.4955.1194.7426.047.2692.1942.3547.46.2319.2336-.1079.4696-.2117.7098-.3044.3422-.1322.5347-.0165.5404.3372.004.2503-.0337.501-.0465.752-.014.2738.126.39.4013.3338.253-.0516.5025-.1193.7544-.1766.3629-.0825.5226.0531.4646.4185-.0392.2465-.116.4874-.1754.731-.0703.288.0409.4252.3529.4112.2591-.0116.519-.0202.7782-.0133.3514.0093.4624.1723.335.491-.0829.2075-.1887.4063-.2818.61-.1705.373-.1104.4891.3039.564.2262.0408.4585.0525.6828.1005.3403.0728.423.2649.2376.5468-.139.2115-.2923.415-.45.614-.1938.2447-.1258.4068.153.5117.2412.0907.4888.1666.7252.2673.3207.1366.3649.3358.1279.5815-.1767.1832-.3691.353-.5626.5199-.232.2-.2216.3706.044.5282.2207.131.4472.2547.6576.4.2856.197.2867.3964.0024.5937-.2217.154-.46.2853-.6914.4262-.2267.1382-.2358.2977-.0473.473.1973.1836.4061.3565.594.5488.239.2447.1973.4458-.1205.5829-.236.1017-.4843.1763-.7251.2678-.272.1034-.3568.261-.1596.5097.1577.199.3107.4027.4503.614.1865.2822.1069.4744-.2323.5495-.2238.0495-.4564.0605-.6828.101-.4177.0747-.4783.189-.3087.561.093.2037.1989.4025.2823.6098.1284.3194.0185.4828-.3313.4937-.2302.0072-.4612-.008-.6918-.0099-.455-.004-.521.0716-.4225.487.0481.2032.1138.403.1517.6078.0742.4017-.0888.5426-.4984.4474-.2377-.0553-.4753-.1114-.7144-.1606-.2768-.057-.4163.057-.4034.3305.0117.2509.0502.5015.0466.7519-.0051.3549-.1974.4725-.5383.341-.2402-.0926-.4762-.1968-.7092-.3057-.2657-.124-.4135-.0372-.462.2297-.0448.2467-.0672.4975-.1198.7425-.0742.3456-.2923.435-.597.2451-.2177-.1356-.4223-.291-.6323-.4382-.2291-.1606-.395-.129-.4966.1417-.0932.2482-.1834.4987-.2988.7373-.1513.3131-.3434.3435-.5991.1015-.1853-.1754-.3597-.3625-.5291-.5525-.213-.239-.3758-.1916-.5402.0544-.1946.2913-.4062.5715-.6104.8564M7.6978 5.0162l4.2787 11.2085 4.047-11.1349c-.7313-.2592-1.4019-.499-2.0742-.7343a.651.651 0 0 0-.7963.2025 6.7 6.7 0 0 1-.7106.6715.6174.6174 0 0 1-.9768-.005c-.2821-.2592-.547-.5366-.8384-.7853a.502.502 0 0 0-.369-.1267c-.8295.2124-1.6519.4503-2.5604.7037m6.6768 14.2757c.8008-.0157 1.0792-.4662 1.1313-1.1263a3 3 0 0 1 .1173-.5309c.1316-.4917.369-.6353.8867-.5338a7.6 7.6 0 0 1 .8396.189.549.549 0 0 0 .6395-.1862 6.727 6.727 0 0 0 1.9955-5.7394.506.506 0 0 0-.2505-.3218c-.3694-.1853-.7617-.3275-1.1381-.5006a.5808.5808 0 0 1-.344-.8845c.2008-.4619.4224-.9154.6133-1.381a1.32 1.32 0 0 0 .0283-.4163l-.1464-.0206Zm-4.8142-.0185L5.2589 8.0054l-.1102.0251a2.6 2.6 0 0 0 .0868.505c.133.3521.2976.693.4458 1.04.2107.4934.1153.7331-.3924.964a8.6 8.6 0 0 1-.8705.3639.5625.5625 0 0 0-.4325.6232 8.83 8.83 0 0 0 2.092 5.5835.61.61 0 0 0 .462.1417c.327-.0291.6467-.1259.9724-.1774.4884-.0773.6988.0626.806.5175a4.1 4.1 0 0 1 .1566.7352c.0279.6259.4247.8545 1.0855.9463M4.85 9.5707a.6454.6454 0 1 0-.652.636.65.65 0 0 0 .652-.636m2.3111 9.5361a.634.634 0 0 0 .6302-.6514.6437.6437 0 0 0-.6366-.608.664.664 0 0 0-.6606.635.6536.6536 0 0 0 .667.6244M20.388 9.6095a.6445.6445 0 0 0-1.2888-.0113.605.605 0 0 0 .6155.6211.617.617 0 0 0 .6733-.6098m-4.2192 8.872a.582.582 0 0 0 .5802.6426.6413.6413 0 0 0 .7029-.5872.679.679 0 0 0-.646-.6625.626.626 0 0 0-.6371.6072m-4.187-15.2611a.638.638 0 0 0-.6482.6353.61.61 0 0 0 .612.6155.6487.6487 0 0 0 .6853-.6003.677.677 0 0 0-.6491-.6505" class="cls-1" data-name="Colore riempimento 1"/></svg>