<svg xmlns="http://www.w3.org/2000/svg" viewBox="0 0 24 24"><path fill="#44739e" d="M23 12A11 11 0 1 1 12 1a11 11 0 0 1 11 11M9.25 19.961a9.48 9.48 0 0 1-.682-2.131 5.98 5.98 0 0 1-1.342-.367c-.229-.099-.542-.191-.487-.11s.136.145.181.212-.494-.04-.907-.33c-.357-.249-.472-.319-.88-.171a2.97 2.97 0 0 0-.506.248 9.163 9.163 0 0 0 4.024 3.091l.592-.44Zm4.043-12.012c.05.027.33.166.503.247a.468.468 0 0 0 .349.041 2.3 2.3 0 0 0 .33-.242c.087-.071.039-.09-.093-.15a2.53 2.53 0 0 0-.728-.182h-.026c-.066 0-.135.027-.277.135-.068.054-.149.1-.058.151m5.747 2.917c-.025-4.232-3.967-7.129-8.58-6.264-.825.156-1.443.257-.028-.62a7.12 7.12 0 0 1 3.151-.978 9.24 9.24 0 0 0-1.561-.134 9.117 9.117 0 0 0-9.152 9.084 9.02 9.02 0 0 0 .271 2.194c.283-.099.463-.142.463-.142a8.7 8.7 0 0 1 .123-4.367v.007-.013a8.6 8.6 0 0 1 1.65-3.104h4.852L8.323 9.9H4.571a7.93 7.93 0 0 0-.059 4.202 1.857 1.857 0 0 0 1.767.789c.22 0 .834-.007 1.959-.028a.248.248 0 0 0 .186-.088.396.396 0 0 0 .082-.22.73.73 0 0 0 0-.357c-.048-.083-.186-.064-.489.146-.215.146-.293.081-.291-.101a5.02 5.02 0 0 1 .428-1.458c.128-.33.323-.786.351-.858.158-.393.33-.574.049-.468-.58.22.402-1.156.974-1.839.265-.317.55-.55.257-.501-.44.074.683-.974 1.152-1.275a2.9 2.9 0 0 0 .597-.483c.42-.44.474-.576.822-.942s.586-.517.698-.517c.088 0 .099.091.027.255-.337.76-.452 1.246 1.177 1.149.89-.055.835.66.836.66 2.397.11 1.069 2.155 1.065 2.143-.239-.743-1.064-.702-1.622-.619-.492.072-.087.156.059.204.914.306.732.641.651.624-1.256-.247-1.61.431-1.612 1.087-.006 1.962.934 3.822 2.464 4.377 1.708-.721 2.956-2.111 2.94-4.927ZM6.177 7.284c.047.239.39 1.786.429 1.945.041.179.078.262.232.262h.829c.133 0 .172-.029.245-.157.121-.212 1.21-2.077 1.21-2.077s.117-.183-.139-.183H8.48a.132.132 0 0 0-.116.073q-.508.898-1.012 1.798l-.366-1.76a.133.133 0 0 0-.149-.116h-.491c-.101 0-.208.018-.169.211Z"/></svg>