<svg xmlns="http://www.w3.org/2000/svg" viewBox="0 0 24 24"><path fill="#44739e" d="M3.23 18.516h1.348v.442H3.23Zm14.764 0h1.359v.442h-1.359Zm-1.638 0h1.347v.442h-1.347Zm-1.638 0h1.347v.442h-1.347Zm-4.925 0h1.347v.442H9.793Zm1.638 0h1.359v.442h-1.359Zm-3.276 0h1.348v.442H8.155Zm-1.638 0h1.348v.442H6.517Zm6.563 0h1.348v.442H13.08Zm-8.212 0h1.359v.442H4.868Zm14.775 0h1.347v.442h-1.347Zm-1.94-15.541h.291v15.541h-.291Zm-1.638 0h.291v15.541h-.291Zm-1.637 0h.29v15.541h-.29Zm-1.638 0h.29v15.541h-.29Zm8.2 0h.291v15.541h-.291Zm-1.637 0h.29v15.541h-.29Zm-7.922 3.844h.011v11.697h-.29V6.819h-.012V2.975h.291Zm-1.638 0h.012v11.697h-.291V6.819h-.011V2.975h.29ZM7.865 2.975h.29v15.541h-.29Zm-4.925 0h.29v15.541h-.29Zm3.287 0h.29v15.541h-.29Zm-1.649 0h.29v15.541h-.29Zm9.85 15.983h.29V23h-.29Zm-3.288 0h.291V23h-.291Zm9.85 0h.291V23h-.291Zm-1.637 0h.29V23h-.29Zm-6.563 0h.29V23h-.29Zm-9.85 0h.29V23h-.29Zm1.638 0h.29V23h-.29Zm3.287 0h.29V23h-.29Zm9.838 0h.291V23h-.291Zm-1.638 0h.291V23h-.291Zm-6.562 0h.29V23h-.29Zm-3.276 0h.29V23h-.29ZM1.325 1h21.35v1.905H1.325Zm0 0h21.35v1.905H1.325Z"/></svg>