<svg xmlns="http://www.w3.org/2000/svg" viewBox="0 0 24 24"><path fill="#44739e" d="M6.828 18.514h.256v.442h-.256Zm9.844 0h.267v.442h-.267Zm-6.566 0h.267v.442h-.267Zm8.216 0h.256v.442h-.256Zm-3.289 0h.256v.442h-.256Zm-11.494 0h.268v.442h-.268Zm9.856 0h.255v.442h-.255Zm-1.639 0h.256v.442h-.256Zm-3.289 0h.256v.442h-.256Zm11.494 0h.256v.442h-.256Zm-14.771 0h.255v.442H5.19ZM1.32 1h21.36v1.906H1.32Zm18.897 1.952H21.6v15.562h-1.383Zm-4.928 0h1.383v15.562h-1.383Zm3.289 0h1.383v15.562h-1.383Zm-4.928 0h1.383v15.562H13.65Zm3.289 0h1.383v15.562h-1.383Zm-4.927 0h1.383v15.562h-1.383Zm-9.856 0h1.383v15.562H2.156Zm1.651 0H5.19v15.562H3.807Zm4.916 0h1.383v15.562H8.723Zm1.65 0h1.383v15.562h-1.383Zm-3.289 0h1.383v15.562H7.084Zm-1.639 0h1.383v15.562H5.445Zm14.772 16.004H21.6V23h-1.383Zm-4.928 0h1.383V23h-1.383Zm3.289 0h1.383V23h-1.383Zm-1.639 0h1.383V23h-1.383Zm-6.566 0h1.383V23h-1.383Zm-6.566 0H5.19V23H3.807Zm9.843 0h1.383V23H13.65Zm-1.638 0h1.383V23h-1.383Zm-6.567 0h1.383V23H5.445Zm3.278 0h1.383V23H8.723Zm-1.639 0h1.383V23H7.084Zm-4.928 0h1.383V23H2.156ZM1.32 1h21.36v1.906H1.32Z"/></svg>