<svg xmlns="http://www.w3.org/2000/svg" fill="#44739e" viewBox="0 0 24 24"><path d="M13.662 19.394h.22v1.619h-.22zm-.762.906a.62.62 0 0 0 .168-.063.48.48 0 0 0 .125-.1.45.45 0 0 0 .08-.134.5.5 0 0 0-.008-.346.36.36 0 0 0-.109-.142.5.5 0 0 0-.185-.09 1 1 0 0 0-.266-.031h-.459v1.619h.219v-.676h.166a.13.13 0 0 1 .068.013.114.114 0 0 1 .042.038l.422.578a.1.1 0 0 0 .088.047h.2l-.474-.643a.215.215 0 0 0-.077-.07m-.2-.123h-.24v-.611h.24a.46.46 0 0 1 .285.073.258.258 0 0 1 .1.218.34.34 0 0 1-.025.13.29.29 0 0 1-.075.1.35.35 0 0 1-.123.065.56.56 0 0 1-.171.026zm-1.491-6.509L6.5 9.43v1.411a.77.77 0 0 0 .258.578l4.221 3.8a1.548 1.548 0 0 0 2.072 0l4.193-3.8a.774.774 0 0 0 .256-.575V9.433l-4.674 4.233a1.2 1.2 0 0 1-1.617.002m1.617-3.39a1.2 1.2 0 0 1-1.617 0L6.5 6.042V7.8l4.479 4.032a1.548 1.548 0 0 0 2.072 0L17.5 7.8V6.042Zm.474 6.59a.78.78 0 0 0-.269-.188.925.925 0 0 0-.7 0 .79.79 0 0 0-.27.187.85.85 0 0 0-.176.284 1.07 1.07 0 0 0 0 .712.83.83 0 0 0 .176.284.81.81 0 0 0 .27.189.937.937 0 0 0 .7 0 .815.815 0 0 0 .443-.473 1.035 1.035 0 0 0 0-.711.815.815 0 0 0-.174-.284m-.152.888a.52.52 0 0 1-.1.185.43.43 0 0 1-.158.117.51.51 0 0 1-.209.04.52.52 0 0 1-.211-.04.43.43 0 0 1-.159-.117.54.54 0 0 1-.1-.185.84.84 0 0 1-.035-.249.82.82 0 0 1 .035-.247.53.53 0 0 1 .1-.186.41.41 0 0 1 .159-.117.51.51 0 0 1 .211-.042.5.5 0 0 1 .209.042.406.406 0 0 1 .158.117.52.52 0 0 1 .1.186.82.82 0 0 1 .035.247.84.84 0 0 1-.033.249zm3.46 2.479a.5.5 0 0 0-.124-.078 1.6 1.6 0 0 0-.143-.056c-.049-.017-.1-.032-.143-.047a.75.75 0 0 1-.124-.054.29.29 0 0 1-.089-.076.184.184 0 0 1-.033-.112.25.25 0 0 1 .02-.1.21.21 0 0 1 .056-.08.28.28 0 0 1 .094-.053.38.38 0 0 1 .131-.02.39.39 0 0 1 .132.019.5.5 0 0 1 .094.043.7.7 0 0 1 .066.041.08.08 0 0 0 .045.02.05.05 0 0 0 .029-.008.1.1 0 0 0 .022-.026l.053-.1a.57.57 0 0 0-.2-.124.67.67 0 0 0-.247-.043.58.58 0 0 0-.215.037.49.49 0 0 0-.157.1.426.426 0 0 0-.131.309.44.44 0 0 0 .036.173.37.37 0 0 0 .088.12.48.48 0 0 0 .125.08c.047.02.1.038.143.054l.143.045a.56.56 0 0 1 .124.053.25.25 0 0 1 .087.079.2.2 0 0 1 .035.12.31.31 0 0 1-.023.121.27.27 0 0 1-.066.094.3.3 0 0 1-.1.059.4.4 0 0 1-.139.022.54.54 0 0 1-.112-.011.56.56 0 0 1-.09-.031.45.45 0 0 1-.069-.039l-.055-.04a.3.3 0 0 0-.043-.029.056.056 0 0 0-.032-.013.053.053 0 0 0-.03.009.08.08 0 0 0-.021.021l-.064.1a.69.69 0 0 0 .221.154.705.705 0 0 0 .288.057.61.61 0 0 0 .23-.04.48.48 0 0 0 .171-.108.45.45 0 0 0 .106-.162.53.53 0 0 0 .037-.2.39.39 0 0 0-.034-.169.36.36 0 0 0-.092-.111m-2.285-2.505a.14.14 0 0 1 .044.046l.318.538a.133.133 0 0 0 .127.07h.312l-.389-.631a.34.34 0 0 0-.052-.064.35.35 0 0 0-.062-.047.55.55 0 0 0 .149-.08.52.52 0 0 0 .111-.113.48.48 0 0 0 .068-.142.56.56 0 0 0 .024-.166.55.55 0 0 0-.037-.2.4.4 0 0 0-.116-.162.56.56 0 0 0-.2-.105 1.01 1.01 0 0 0-.3-.039h-.525v1.754h.346v-.668h.117a.14.14 0 0 1 .065.009m-.186-.824h.179a.355.355 0 0 1 .24.069.242.242 0 0 1 .08.193.36.36 0 0 1-.019.116.226.226 0 0 1-.058.093.27.27 0 0 1-.1.062.45.45 0 0 1-.145.022h-.177zm1.15-.276h.348v1.754h-.348zm.15 4.048a.06.06 0 0 0-.039.017.64.64 0 0 1-.085.067.45.45 0 0 1-.091.045.57.57 0 0 1-.108.027 1 1 0 0 1-.13.008.56.56 0 0 1-.222-.043.5.5 0 0 1-.178-.124.6.6 0 0 1-.119-.2.78.78 0 0 1-.043-.27.82.82 0 0 1 .041-.268.585.585 0 0 1 .117-.2.515.515 0 0 1 .18-.126.648.648 0 0 1 .406-.021.56.56 0 0 1 .119.049.7.7 0 0 1 .077.049.088.088 0 0 0 .05.022.047.047 0 0 0 .028-.007.054.054 0 0 0 .018-.019l.073-.1a.77.77 0 0 0-.234-.15.785.785 0 0 0-.306-.055.82.82 0 0 0-.322.061.72.72 0 0 0-.252.169.78.78 0 0 0-.162.262.93.93 0 0 0-.058.336.97.97 0 0 0 .056.335.77.77 0 0 0 .156.262.705.705 0 0 0 .244.17.81.81 0 0 0 .317.06.82.82 0 0 0 .343-.065.69.69 0 0 0 .243-.179l-.087-.094a.044.044 0 0 0-.032-.018m-5.623-.396h.632v-.172h-.632v-.538h.781v-.178H9.594v1.619h1.001l.001-.179h-.782ZM8.97 19.4a.066.066 0 0 0-.029.032l-.551.995a.5.5 0 0 0-.027.058c-.008.02-.016.039-.024.06a.6.6 0 0 0-.025-.06c-.008-.02-.017-.038-.026-.057l-.561-1A.067.067 0 0 0 7.7 19.4a.18.18 0 0 0-.046-.005h-.165v1.619h.193v-1.19a.9.9 0 0 0-.007-.111l.569 1.017a.084.084 0 0 0 .079.051h.032a.083.083 0 0 0 .079-.051l.558-1.012-.005.055v1.241h.193v-1.62h-.163a.2.2 0 0 0-.047.006m2.01-10.938a1.548 1.548 0 0 0 2.071 0l4.271-3.869c.872-.812-1.553-1.617-5.3-1.622h-.038c-3.748.005-6.175.81-5.3 1.622ZM8.211 16.63h-.28a.116.116 0 0 0-.074.025.136.136 0 0 0-.04.055l-.36 1.011c-.014.038-.027.079-.039.124s-.022.091-.032.14a2.4 2.4 0 0 0-.038-.14 5 5 0 0 0-.04-.124l-.362-1.011a.13.13 0 0 0-.043-.057.11.11 0 0 0-.072-.023h-.279l.673 1.754h.313zm.155 0h.348v1.754h-.348zm2.911 1.754v-1.461h.488v-.293h-1.323v.293h.488v1.461zm-.548 1.194h.527v1.435h.218v-1.435H12v-.184h-1.271zm5.714-2.948-.654 1.754h.271a.113.113 0 0 0 .073-.024.146.146 0 0 0 .04-.055l.113-.335h.666l.113.335a.15.15 0 0 0 .041.058.122.122 0 0 0 .074.021h.268L16.8 16.63Zm-.072 1.088.18-.534q.017-.042.033-.1c.012-.039.024-.081.035-.126q.017.066.033.123c.012.038.024.071.035.1l.181.537zm-6.236.616a.67.67 0 0 0 .252-.206l-.137-.153a.061.061 0 0 0-.049-.022.06.06 0 0 0-.029.007.13.13 0 0 0-.027.018.42.42 0 0 1-.074.058.35.35 0 0 1-.077.038.45.45 0 0 1-.089.02.8.8 0 0 1-.105.006.465.465 0 0 1-.186-.038.45.45 0 0 1-.152-.116.57.57 0 0 1-.1-.187.82.82 0 0 1-.037-.252.84.84 0 0 1 .035-.251.53.53 0 0 1 .1-.185.43.43 0 0 1 .151-.116.46.46 0 0 1 .192-.04.473.473 0 0 1 .258.067.8.8 0 0 1 .069.046.094.094 0 0 0 .057.02.07.07 0 0 0 .043-.012.1.1 0 0 0 .027-.028l.116-.166a.7.7 0 0 0-.109-.093.65.65 0 0 0-.132-.074.8.8 0 0 0-.154-.047.8.8 0 0 0-.174-.017.88.88 0 0 0-.233.03.73.73 0 0 0-.2.086.74.74 0 0 0-.166.135.84.84 0 0 0-.124.179.88.88 0 0 0-.08.218 1.186 1.186 0 0 0 .03.607.85.85 0 0 0 .161.284.73.73 0 0 0 .255.187.81.81 0 0 0 .337.067.85.85 0 0 0 .351-.07"/></svg>