<svg xmlns="http://www.w3.org/2000/svg" fill="#44739e" viewBox="0 0 24 24"><path d="M13.879 16.646a8.41 8.41 0 0 0 1.01-4.5s.061-.716-.5-.782a.638.638 0 0 0-.665.718s-.031 2.982-1.167 4.187a6.94 6.94 0 0 1-1.091-4.054 13.2 13.2 0 0 0-.4-3.025 14.2 14.2 0 0 0-.4 2.877.639.639 0 0 1-.237.52s-.176.086-.141.39a11.82 11.82 0 0 0 1.071 3.889s-1.754.114-2.1-3.392a1.424 1.424 0 0 0-.288-.831.672.672 0 0 1-.23-.507 13.4 13.4 0 0 1 .1-2.1 2.35 2.35 0 0 0-.119-.851 6.21 6.21 0 0 0-.319 2.372s.056.953-.418 1.274a8.7 8.7 0 0 0 1.1 4.119 2.932 2.932 0 0 0 2.421 1.141 2.78 2.78 0 0 0 2.373-1.445m3.27-2.719s.133-1.269.156-1.886a.664.664 0 0 0-.564-.675.594.594 0 0 0-.632.591s-.038 2.89-1.108 4.212L14.736 16a4.6 4.6 0 0 1-1.522 2.051 2.808 2.808 0 0 0 2.556-.821 5.51 5.51 0 0 0 1.379-3.303m2.362-.734a6.05 6.05 0 0 0 .057-1.28.627.627 0 0 0-.574-.547s-.624-.049-.662.535-.054.823-.054.823a7.2 7.2 0 0 1-1.027 3.445L17.027 16a3.988 3.988 0 0 1-1.562 2.054 2.674 2.674 0 0 0 2.3-.561s1.418-.862 1.746-4.3m1.945-1.82s-.627-.122-.711.408-.066 3.206-1.254 4.577a1 1 0 0 1-.431.308 2.31 2.31 0 0 0-.626.693 2.57 2.57 0 0 1-.724.594 2.641 2.641 0 0 0 2.508-.525s1.5-1.006 1.773-5.249c.009.005.089-.701-.535-.806M10.123 7.357a8.4 8.4 0 0 0-1.009 4.5s-.061.716.5.782a.639.639 0 0 0 .666-.718s.03-2.982 1.167-4.187a6.94 6.94 0 0 1 1.09 4.054 13.18 13.18 0 0 0 .4 3.025 14.2 14.2 0 0 0 .4-2.877.639.639 0 0 1 .237-.52s.173-.087.14-.39a11.81 11.81 0 0 0-1.07-3.889s1.753-.115 2.1 3.392a1.418 1.418 0 0 0 .288.831.67.67 0 0 1 .229.507 13.4 13.4 0 0 1-.1 2.1 2.37 2.37 0 0 0 .12.851 6.23 6.23 0 0 0 .319-2.372s-.056-.954.418-1.275a8.68 8.68 0 0 0-1.1-4.115 2.932 2.932 0 0 0-2.421-1.142 2.781 2.781 0 0 0-2.374 1.443M9.264 8a4.6 4.6 0 0 1 1.522-2.052 2.806 2.806 0 0 0-2.556.82 5.514 5.514 0 0 0-1.379 3.31s-.133 1.27-.156 1.886a.666.666 0 0 0 .564.676.6.6 0 0 0 .632-.592S7.929 9.154 9 7.831zm-2.288-.006a3.986 3.986 0 0 1 1.56-2.052 2.673 2.673 0 0 0-2.3.559s-1.417.866-1.746 4.3a6.06 6.06 0 0 0-.056 1.279.628.628 0 0 0 .573.548s.625.049.663-.538.053-.823.053-.823a7.21 7.21 0 0 1 1.029-3.441ZM8.538 5.94l-.002.002.002.001ZM4.94 7.331a2.3 2.3 0 0 0 .626-.693 2.59 2.59 0 0 1 .724-.594 2.644 2.644 0 0 0-2.508.525S2.279 7.573 2 11.817c0 0-.084.706.54.81 0 0 .627.122.711-.408s.07-3.206 1.258-4.579a1 1 0 0 1 .431-.309"/></svg>