<svg xmlns="http://www.w3.org/2000/svg" viewBox="0 0 24 24"><path fill="#44739e" d="M5.305 12.194h9.151a4.555 4.555 0 0 0 4.295-4.779 4.555 4.555 0 0 0-4.29-4.776 4.314 4.314 0 0 0-4.038 3.197.987.987 0 0 0 .538 1.21.844.844 0 0 0 1.086-.599 2.568 2.568 0 0 1 2.42-1.898 2.736 2.736 0 0 1 2.563 2.866 2.736 2.736 0 0 1-2.574 2.866H5.305a.96.96 0 0 0 0 1.91Zm13.991.904h-7.335c1.184 0 1.752.655 2.42 1.656h4.92a2.36 2.36 0 0 1 2.213 2.477 2.361 2.361 0 0 1-2.213 2.478 2.211 2.211 0 0 1-2.076-1.641.726.726 0 0 0-.935-.517.855.855 0 0 0-.462 1.045 3.715 3.715 0 0 0 3.473 2.765 3.93 3.93 0 0 0 3.693-4.13 3.93 3.93 0 0 0-3.698-4.133m-8.839 0H1.741a.833.833 0 0 0 0 1.656h8.716a1.954 1.954 0 0 1 .95.254 2.522 2.522 0 0 1 1.229 2.22 2.347 2.347 0 0 1-2.179 2.479 2.182 2.182 0 0 1-2.038-1.642.713.713 0 0 0-.92-.517.861.861 0 0 0-.456 1.046 3.668 3.668 0 0 0 3.419 2.765 3.908 3.908 0 0 0 3.632-4.131 4.52 4.52 0 0 0-.578-2.22 3.548 3.548 0 0 0-3.059-1.91"/></svg>