<svg xmlns="http://www.w3.org/2000/svg" fill="#44739e" viewBox="0 0 24 24"><path d="M6.743 12.152h7.185A3.576 3.576 0 0 0 17.3 8.4a3.576 3.576 0 0 0-3.368-3.75 3.387 3.387 0 0 0-3.17 2.51.775.775 0 0 0 .422.95.663.663 0 0 0 .853-.47 2.016 2.016 0 0 1 1.9-1.49 2.148 2.148 0 0 1 2.012 2.25 2.148 2.148 0 0 1-2.021 2.25H6.743a.754.754 0 0 0 0 1.5zm10.985.71h-5.759c.93 0 1.376.514 1.9 1.3h3.863a1.853 1.853 0 0 1 1.738 1.945 1.854 1.854 0 0 1-1.738 1.946 1.736 1.736 0 0 1-1.63-1.289.57.57 0 0 0-.734-.406.671.671 0 0 0-.363.821 2.917 2.917 0 0 0 2.727 2.171 3.086 3.086 0 0 0 2.9-3.243 3.086 3.086 0 0 0-2.904-3.245m-6.94 0H3.945a.654.654 0 0 0 0 1.3h6.843a1.534 1.534 0 0 1 .746.2 1.98 1.98 0 0 1 .965 1.743 1.843 1.843 0 0 1-1.711 1.946 1.713 1.713 0 0 1-1.6-1.289.56.56 0 0 0-.722-.406.676.676 0 0 0-.358.821 2.88 2.88 0 0 0 2.684 2.171 3.068 3.068 0 0 0 2.852-3.243 3.55 3.55 0 0 0-.454-1.743 2.786 2.786 0 0 0-2.402-1.5"/></svg>