<svg xmlns="http://www.w3.org/2000/svg" viewBox="0 0 24 24"><path fill="#44739e" d="M12 1a11 11 0 1 0 11 11A11 11 0 0 0 12 1m0 1.892a9.1 9.1 0 0 1 2.674.399L12 9.295 9.327 3.29A9.13 9.13 0 0 1 12 2.892M2.892 12a9.1 9.1 0 0 1 .43-2.775l4.938 11.08A9.109 9.109 0 0 1 2.892 12M12 21.108a9.13 9.13 0 0 1-2.673-.398L12 14.704l2.674 6.005a9.1 9.1 0 0 1-2.674.399m1.332-8.822h-2.663l-1.788 4.016L4.6 6.688A9.17 9.17 0 0 1 7.317 4.19l3.353 7.528h2.662l3.351-7.528a9.15 9.15 0 0 1 2.716 2.501l-4.279 9.612Zm2.408 8.019 4.937-11.08a9.118 9.118 0 0 1-4.937 11.08"/></svg>