<svg xmlns="http://www.w3.org/2000/svg" viewBox="0 0 24 24"><path fill="#44739e" d="m18.997 3.139-1.542 1.542.17.133a9.1 9.1 0 0 1 1.53 1.529l.133.169 1.54-1.54a11.7 11.7 0 0 1 1.094 1.643l.054.099h.601v-5.33h-5.329v.611l.1.055a11.37 11.37 0 0 1 1.649 1.089m3.196-1.364v4.549a12.1 12.1 0 0 0-1.204-1.752l-.133-.162-1.536 1.536a9.53 9.53 0 0 0-1.292-1.291l1.539-1.537-.163-.135a11.73 11.73 0 0 0-1.772-1.208Zm-1.141 3.976-.13-.189-1.37 1.369.084.131a9.087 9.087 0 1 1-2.688-2.689l.129.084 1.37-1.368-.186-.132a11 11 0 1 0 2.791 2.794M12 22.618a10.617 10.617 0 1 1 5.853-19.476l-.826.825A9.473 9.473 0 1 0 20.04 6.99l.826-.825A10.617 10.617 0 0 1 12 22.618m6.187-10.754c-.008.397.16.802.549.809h.009c.38 0 .558-.395.566-.79.009-.46-.216-.785-.546-.792a.499.499 0 0 0-.433.245 1.006 1.006 0 0 0-.145.528m.305-.424a.307.307 0 0 1 .263-.157c.254 0 .367.312.358.597s-.106.601-.374.601c-.256 0-.366-.312-.366-.611a.82.82 0 0 1 .119-.43m-1.184.439c0 .666.566 1.1 1.443 1.1s1.44-.431 1.44-1.1c0-.539-.446-1.083-1.444-1.083-.874-.003-1.439.423-1.439 1.083m2.689 0c0 .558-.479.904-1.249.904s-1.248-.348-1.248-.904.489-.893 1.248-.893 1.253.349 1.253.893ZM8.5 11.864c0 .397.161.802.55.809h.009a.489.489 0 0 0 .434-.264 1.1 1.1 0 0 0 .131-.527.904.904 0 0 0-.208-.643.477.477 0 0 0-.338-.148h-.011c-.325 0-.559.316-.567.773m.57-.581a.277.277 0 0 1 .203.09.725.725 0 0 1 .16.506.904.904 0 0 1-.105.431.293.293 0 0 1-.275.17c-.258 0-.366-.312-.366-.611.013-.285.135-.586.38-.586Zm-1.449.596c0 .666.567 1.1 1.445 1.1s1.439-.431 1.439-1.1c0-.539-.447-1.083-1.446-1.083-.873-.003-1.438.423-1.438 1.083m2.689 0c0 .558-.478.904-1.248.904s-1.253-.346-1.253-.904.489-.893 1.247-.893 1.257.349 1.257.893Zm-4.492-1.047H3.732v.482h.474l.881 1.602h1.132l.867-1.603h.473v-.482H6.061v.482h.317l-.471.871-.477-.871h.393Zm-.192.291h-.524l.802 1.467.791-1.467h-.439v-.1h1.112v.099h-.396l-.867 1.602h-.906l-.882-1.601h-.396v-.1h1.705Zm9.148 1.793h1.137l.867-1.603h.473v-.482H15.75v.482h.314l-.472.871-.478-.871h.394v-.482H13.42v.482h.474Zm-1.162-1.893h1.704v.099h-.524l.801 1.467.792-1.467h-.443v-.099h1.114v.099h-.394l-.867 1.602h-.907l-.881-1.601h-.396Zm-2.762 1.892h2.811v-1.067h-.475v.095a.479.479 0 0 1-.524.489h-.307v-1.116h.435v-.481h-1.94v.481h.441v1.116h-.441Zm.192-.295h.441v-1.498h-.44v-.099h1.556v.099h-.435v1.498h.5a.667.667 0 0 0 .709-.581h.102v.684h-2.432Z"/></svg>