<svg xmlns="http://www.w3.org/2000/svg" fill="#44739e" viewBox="0 0 24 24"><path d="M16.779 2.874v.266a10.14 10.14 0 0 1 1.62 1.1l-1.354 1.348a8.14 8.14 0 0 1 1.373 1.372l1.352-1.352a10.5 10.5 0 0 1 1.1 1.613h.26V2.874ZM19.817 6.6l-.965.965a8.156 8.156 0 1 1-2.41-2.414l.965-.965a9.507 9.507 0 1 0 2.41 2.414m-3.068 5.291c0 .489.395.879 1.186.879s1.181-.39 1.181-.879-.414-.869-1.186-.869-1.181.386-1.181.869m1.2-.606c.263 0 .4.289.4.61-.006.3-.131.617-.42.611s-.406-.316-.4-.625.151-.601.416-.596zm-9.714.606c0 .489.4.879 1.186.879s1.181-.39 1.181-.879-.414-.869-1.186-.869-1.181.386-1.181.869m1.593 0c0 .3-.131.617-.42.611s-.406-.316-.4-.625.159-.6.424-.6.402.297.396.623zm-3.346-.833H4.816l-.001.255h.382l.775 1.407.897.001.761-1.408h.382v-.255H6.864v.255h.331l-.554 1.025-.562-1.025h.403zm8.007 1.662.896.001.762-1.408h.382v-.255H15.38v.255h.333l-.556 1.025-.562-1.025h.403v-.255h-1.665l-.001.255h.382zm-3.415-.001h2.306v-.769h-.253a.505.505 0 0 1-.545.511h-.355v-1.149h.383v-.255h-1.536v.255h.387v1.149h-.388v.258z"/></svg>