<svg xmlns="http://www.w3.org/2000/svg" viewBox="0 0 24 24"><path fill="#44739e" d="M13.868 18.939c-.504 0-.39-.069-1.19.721-.265.263-.491.478-.502.478s-.285-.253-.936-.888c-.324-.318-.306-.311-.77-.311h-.376l1.76 1.761v1.162c.11 0 .647.014.625-.031 0-.026 0-1.074.019-1.1.079-.119 1.43-1.459 1.76-1.795Zm8.809 0h-.324v1.15h-2.805v-1.15h-.647v2.926l.635-.013.025-1.151h2.779c0 .289.01.874.013 1.163H23v-2.925Zm-13.387.05-.133-.063H7.719c-1.32.087-1.662-.291-2.09.556.026.617-.11 2.074.203 2.17.214.213.12.203 1.834.203h1.516c.522-.26.52-.199.527-1.45 0-1.158-.022-1.226-.419-1.416M7.682 21.24c-1.578 0-1.445.07-1.457-.77-.009-.626 0-.716.086-.818s.093-.115 1.389-.11h1.225c.21.197.187.148.196.843 0 .931.126.855-1.439.855m10.124.203c-.587-.782-1.354-1.901-1.871-2.531-.593.694-1.019 1.392-1.613 2.17-.431.585-.55.752-.55.77a3.52 3.52 0 0 0 .731-.018c.33-.291.902-1.289 1.435-1.889.015 0 .307.39.65.865.429.587.62.867.796 1.053.094-.011.833.031.698-.044ZM8.345 7.169c1.29 1.332 1.137.794 1.981 6.964l.073.533.23.415c.414.75.391.962.283-2.566-.019-.637-.061-2.07-.093-3.183.016-3.116-.349-2.715-1.599-4.193-.621-.68-2.343-2.623-2.712-3.004-.007 0-.012.551-.012 1.23 0 1.392.02 1.531.299 2.049.193.354.158.314 1.55 1.755m3.122 2.512c.038 1.266.168 5.818.22 7.744.196.279.243.746.459.258l.136-.244c.066-2.311.205-7.152.252-8.826.026-.901.035-1.679.023-1.729a2.48 2.48 0 0 0-.572-.544 5.7 5.7 0 0 0-.605.522c.029.893.055 1.773.087 2.819m1.621 5.854c.712-1.406.297.241 1.009-4.695.33-2.459.322-2.437 2.004-4.159 1.335-1.366 1.368-1.443 1.391-3.301.017-1.252.01-1.31-.118-1.159-.929 1.037-2.255 2.518-3.096 3.451-1.113 1.211-1.061 1.05-1.119 3.331-.047 1.848-.135 4.951-.168 5.941-.024.706-.003.808.097.591m-8.522 3.406a16.2 16.2 0 0 0-1.357 1.778c-.11.149 0 .276-1.185-1.372-.323-.449-.275-.419-.66-.425a1.87 1.87 0 0 0-.356.013c-.03.019.006.073.454.684.476.653 1.187 1.631 1.642 2.245.012.012.091-.081.21-.252.461-.648 1.443-1.961 1.954-2.681a4.07 4.07 0 0 0-.702.01"/></svg>