<svg xmlns="http://www.w3.org/2000/svg" fill="#44739e" viewBox="0 0 24 24"><path d="M17.397 0c1.534 0 3.069.585 4.241 1.757 1.171 1.171 1.756 2.706 1.756 4.241 0 1.534-.585 3.069-1.756 4.24l-.001.001-1.756 1.756.557.558 1.199 1.199h.001c1.171 1.171 1.756 2.706 1.756 4.241s-.585 3.07-1.756 4.241c-1.172 1.171-2.707 1.757-4.241 1.757-1.535 0-3.07-.586-4.241-1.757l-1.2-1.199-.077-.078-.102-.102c-.269.502-.614.973-1.038 1.396-.761.761-1.677 1.271-2.646 1.532-.288.078-.579.134-.874.167-.226.026-.452.039-.68.039-1.519 0-3.038-.578-4.197-1.738C1.183 21.092.603 19.573.603 18.053V0h11.276v3.033l1.277-1.276C14.327.585 15.862 0 17.397 0M8.311 17.173v-2.889h-.529v3.358h1.409l.201-.469zm1.973.469.193-.469h1.501l.192.469h.558l-1.476-3.427h-.03l-1.471 3.427zm.948-2.267.548 1.329h-1.106zm-4.769-1.091L5.12 16.16v-1.876h-.528v3.358h.528v-1.19l1.269 1.19h.735l-1.486-1.393 1.407-1.965zm9.171 3.358-.682-.953c.44-.203.672-.603.672-1.121 0-.775-.509-1.284-1.432-1.284h-.859v3.358h.528v-.8h.331c.084 0 .168-.005.242-.015l.573.815zm-1.462-1.254h-.311v-1.635h.311c.642 0 .909.306.909.815 0 .513-.262.82-.909.82m2.43 1.254.193-.469h1.5l.193.469h.558l-1.476-3.427h-.03l-1.471 3.427zm.948-2.267.548 1.329h-1.106z"/></svg>