<svg xmlns="http://www.w3.org/2000/svg" viewBox="0 0 24 24"><path fill="#44739e" d="M23 8.285c0 4.827-4.925 14.137-11 14.137S1 13.112 1 8.285s4.925-6.707 11-6.707 11 1.88 11 6.707m-12.53.783.454-.318.593-.418c.557-.391.652-.955.338-1.402-.314-.451-.863-.546-1.418-.157l-.592.424 1.076 1.536-1.738-1.088-.418.296.427 1.981-.696-.261a.596.596 0 0 0-.015-.706.596.596 0 0 0-.392-.267.847.847 0 0 0-.626.19l-.735.516 1.091 1.556.434-.296-.333-.472.193-.133.643.252.499-.347.406-.296-.101-.371.593-.424Zm.235-1.922a.472.472 0 0 1 .314-.12c.159 0 .307.08.394.212a.466.466 0 0 1 .095.283c0 .173-.097.333-.25.414l-.174.121-.554-.785ZM7.953 9.619l-.297.202-.263-.377.296-.199c.142-.098.279-.1.365.024.082.118.047.252-.098.353Zm1.482-.759-.133-.563.483.32Zm3.108-2.396a.988.988 0 0 0 1.402.22.997.997 0 0 0 .272-1.399.987.987 0 0 0-1.402-.22.996.996 0 0 0-.275 1.399Zm.54-1.011a.489.489 0 0 1 .693.142c.066.086.101.19.101.297 0 .156-.075.303-.202.394a.495.495 0 0 1-.281.088.497.497 0 0 1-.416-.227.49.49 0 0 1-.101-.297.486.486 0 0 1 .206-.397m-1.647.616 1.092 1.559.433-.303-1.092-1.559Zm-.987 11.858h3.946V7.022l-3.946 2.763Z"/></svg>