<svg xmlns="http://www.w3.org/2000/svg" viewBox="0 0 24 24"><path fill="#44739e" d="M16.95 1c1.407 0 2.815.536 3.89 1.611 1.073 1.074 1.61 2.482 1.61 3.889s-.537 2.815-1.61 3.888l-.001.001L19.228 12l.511.511 1.1 1.1h.001c1.073 1.074 1.61 2.481 1.61 3.889s-.537 2.815-1.61 3.889C19.765 22.463 18.357 23 16.95 23s-2.815-.537-3.889-1.611l-1.1-1.1-.071-.071-.093-.094a5.4 5.4 0 0 1-.952 1.28c-.698.698-1.538 1.166-2.426 1.405a5.2 5.2 0 0 1-.802.153c-.207.024-.414.036-.623.036-1.393 0-2.786-.53-3.849-1.594-1.063-1.062-1.595-2.455-1.595-3.849V1h10.34v2.781l1.171-1.17C14.135 1.536 15.543 1 16.95 1M8.619 16.748v-2.649h-.486v3.079h1.292l.185-.43Zm1.809.43.177-.43h1.376l.176.43h.512l-1.354-3.143h-.027l-1.349 3.143Zm.869-2.079.503 1.219h-1.015Zm-4.373-1-1.232 1.72v-1.72h-.484v3.079h.484v-1.091l1.164 1.091h.674l-1.363-1.277 1.291-1.802Zm8.41 3.079-.626-.874c.404-.186.617-.553.617-1.028 0-.711-.467-1.177-1.314-1.177h-.787v3.079h.484v-.734h.303c.077 0 .155-.004.222-.013l.526.747Zm-1.341-1.15h-.285v-1.499h.285c.589 0 .834.28.834.747 0 .47-.241.752-.834.752m2.228 1.15.177-.43h1.376l.177.43h.512l-1.354-3.143h-.027l-1.349 3.143Zm.87-2.079.502 1.219h-1.014Z"/></svg>