<svg xmlns="http://www.w3.org/2000/svg" viewBox="0 0 24 24"><path fill="#44739e" d="M12 1.086C5.933 1.086 1 5.981 1 12s4.933 10.914 11 10.914c6.062 0 11-4.895 11-10.914V1.086Zm3.479 6.492h1.24a.135.135 0 0 1 .135.134v1.437h1.904a.135.135 0 0 1 .136.134v1.006a.135.135 0 0 1-.136.134h-1.904l.001 2.287v.057c0 .494.283.803.69.803.381 0 .654-.27.686-.714v-.005c.014-.123.095-.187.199-.187h1.065a.135.135 0 0 1 .135.131l.001.029c0 1.192-.912 2.16-2.113 2.16l-.003-.004c-1.278 0-2.171-.929-2.172-2.316v-4.95a.136.136 0 0 1 .136-.136m-1.586 1.531a3.8 3.8 0 0 1 .559 0 .149.149 0 0 1 .14.148v1.015a.149.149 0 0 1-.155.147c-.02-.001-.039 0-.059 0-1.18-.051-1.999.887-2.041 2.058v1.89l.002-.009v.382a.15.15 0 0 1-.151.149h-1.21a.15.15 0 0 1-.15-.149V9.295a.15.15 0 0 1 .15-.149h1.15a.15.15 0 0 1 .151.149v.643c.479-.58 1.049-.784 1.614-.829m-5.228.042h1.261c.101 0 .174.098.143.194L8.182 14.79a.15.15 0 0 1-.143.104H6.586a.15.15 0 0 1-.143-.104L4.555 9.345a.149.149 0 0 1 .143-.194H5.96a.15.15 0 0 1 .144.107l1.209 3.753h.024l1.184-3.753a.15.15 0 0 1 .144-.107"/></svg>