<svg xmlns="http://www.w3.org/2000/svg" viewBox="0 0 24 24"><path fill="#44739e" d="M21.13 10.535c0 1.597-.453 4.822-1.047 6.305-1.628 4.167-4.77 6.16-8.1 6.16-3.332 0-6.473-1.993-8.101-6.16-.559-1.483-1.012-4.708-1.012-6.305C2.87 4.753 6.791 1 12 1c5.227 0 9.143 3.753 9.13 9.535m-2.588 1.729c-.013.962-.03 1.924-.087 2.887.484-.058.986-.159 1.47-.278.004-.062.012-.128.017-.189.013-.137.027-.273.027-.401-.291.076-.599.132-.894.176.004-.184.014-.364.022-.55.022-.567.048-1.144.048-1.706-.1.008-.198.017-.298.03-.098.014-.198.022-.3.031Zm-3.814-3.287v.704h.735v-.704Zm.031.986.018.013v2.235c.232-.018.47-.03.704-.03 0-.37-.005-.74-.01-1.11-.004-.374-.008-.743-.008-1.108Zm-1.628-.018c-.647 0-1.03.542-1.03 1.158l.031-.014c-.013.616.396 1.175 1.043 1.144.22 0 .409-.074.558-.233v.189h.718c0-1.069 0-2.142-.031-3.212h-.717v1.175c-.163-.145-.352-.207-.572-.207m.338 1.646a.449.449 0 0 1-.382 0h.013c-.176-.088-.277-.264-.277-.484s.101-.427.294-.498c.102-.044.22-.044.322 0 .206.076.308.264.308.498 0 .22-.102.396-.278.484M8.977 9.347h.014l-.014-.014Zm-.682 0v.629h-.382v.589h.382v.762c-.013.514.37.88.867.88h.365v-.603h-.264c-.07 0-.189-.057-.189-.057l-.044-.044c-.044-.062-.057-.207-.057-.207v-.731h.541v-.602h-.541v-.616Zm-3.929 2.741a4 4 0 0 0-.101-.013c.03.937.074 1.861.145 2.802.277.058.559.12.849.176.176.032.366.014.528-.074.22-.146.308-.383.295-.647-.013-.308-.163-.585-.427-.748.176-.132.251-.321.251-.541 0-.454-.339-.792-.779-.85-.255-.03-.506-.066-.761-.105m.748 1.175v-.014l-.308-.044c-.013-.162-.013-.32-.013-.484l.079.014c.066.013.141.03.215.03.176.014.278.12.278.278 0 .057-.014.118-.044.162l-.031.058Zm.308 1.157c-.075.013-.163.031-.233.013l-.014.014c-.052-.01-.105-.018-.162-.032a2.5 2.5 0 0 0-.163-.03c-.013-.19-.031-.383-.031-.572.119.03.22.044.339.057.207.013.321.145.352.339 0 .044-.013.132-.013.132l-.031.044Zm2.011-2.055c-.396-.013-.792-.044-1.188-.074l.013.03c0 .968.013 1.95.075 2.918.11.012.22.026.33.034.11.014.22.022.33.036v-.04c-.014-.321-.026-.634-.026-.954.074 0 .144.008.22.012.074.01.144.014.22.014.162.03.264.132.294.294.014.124.031.247.053.366.017.123.035.242.053.365l.04.005c.232.026.457.052.694.052-.012-.14-.034-.282-.052-.426-.018-.146-.036-.286-.053-.428-.031-.232-.145-.44-.321-.584.22-.132.321-.34.321-.586-.005-.563-.427-1.003-1.003-1.034m.194 1.276c-.058.058-.132.058-.22.058h-.014c-.074 0-.15-.01-.228-.014a2.2 2.2 0 0 0-.23-.013v-.691c.146.014.308.031.454.031.206.031.338.163.338.365 0 .106-.026.194-.1.264m.998.678.014-.014c0 .704.528 1.22 1.232 1.22.704.03 1.232-.396 1.232-1.144v-1.892h-.718v1.892c0 .132-.044.264-.118.364-.115.102-.247.146-.41.146-.321 0-.528-.234-.528-.542v-1.878c-.233-.018-.47-.031-.704-.031Zm9.557-2.02c-.607.04-1.201.084-1.809.11h.044c0 .999-.012 1.994-.044 2.992l.08-.008c.607-.058 1.223-.115 1.826-.198.013-.208.03-.41.03-.616-.408.056-.804.1-1.218.132v-.542c.154-.013.312-.03.466-.044h.004c.159-.013.318-.03.467-.044.013-.206.013-.426.013-.629-.308.031-.629.057-.937.075v-.498c.396-.012.792-.044 1.188-.088v-.646Zm-5.918 1.272c-.101-.044-.132-.132-.132-.132s-.061-.114.057-.234c.119-.105.308-.074.308-.074.19.013.308.132.352.321h.748c0-.629-.576-.981-1.162-.981-.528 0-1.073.308-1.086.893 0 .145.03.295.088.44.198.361.546.449.893.537.066.018.127.035.193.052h.032c.088.027.206.071.25.102.062.044.119.158.031.277-.027.031-.057.057-.101.088 0 0-.018 0-.031.013 0 0-.132.044-.207.044-.264 0-.422-.158-.453-.409h-.748c.031.66.572 1.083 1.219 1.069.59 0 1.162-.326 1.174-.954.022-.643-.448-.766-.928-.89a3.7 3.7 0 0 1-.233-.061l-.031-.013s-.145-.058-.233-.088m2.645 0-.088-.031c-.076-.031-.12-.075-.146-.145-.013-.044 0-.102.031-.163.057-.088.163-.119.233-.132h.058c.206 0 .352.101.382.308.234 0 .471-.013.704-.031 0-.616-.528-.968-1.1-.937-.528 0-1.056.352-1.074.924 0 .145.032.295.088.44.194.347.533.431.876.515.075.018.15.035.224.057 0 0 .19.044.252.132.044.057.056.176-.032.264s-.188.132-.308.132c-.25 0-.408-.145-.44-.396-.25 0-.496 0-.734.013.013.647.541 1.056 1.174 1.026.572-.032 1.118-.366 1.132-.982.034-.62-.423-.734-.885-.854-.119-.03-.237-.061-.347-.1Zm-3.01-1.351-.018-.017V9.959h-.734v1.232c-.018.22-.15.352-.384.382-.22-.03-.364-.162-.364-.396V9.945h-.718v1.408c0 .471.339.88.823.88.264.018.497-.088.66-.277v.264Zm4.87-2.332c-.628.031-1.1.541-1.1 1.175h.014c0 .616.484 1.13 1.118 1.086.616-.044 1.042-.584 1.042-1.188 0-.602-.47-1.073-1.074-1.073m.238 1.571c-.132.088-.294.088-.426.013-.146-.088-.22-.251-.22-.44 0-.277.188-.515.426-.515.308 0 .427.278.427.484-.005.194-.061.352-.207.458m-9.248-.339c-.058-.132-.176-.233-.322-.295-.132-.048-.277-.088-.414-.123-.03-.009-.056-.017-.083-.022 0 0-.176-.044-.163-.189.014-.163.234-.119.234-.119.132.031.206.119.232.251.098 0 .194.004.291.008.093.005.181.01.269.01-.014-.454-.41-.748-.85-.762-.382 0-.69.264-.704.647-.026.506.361.633.744.761.018.004.035.009.048.018 0 0 .146.044.19.088s.03.145-.076.189c-.044.031-.1.031-.144.031-.164-.014-.264-.119-.296-.278-.176 0-.352-.012-.528-.03 0 .453.366.805.824.836.408.03.804-.234.804-.674 0-.127-.012-.246-.056-.347"/></svg>