<svg xmlns="http://www.w3.org/2000/svg" fill="#44739e" viewBox="0 0 24 24"><path d="M24 7.947c0 5.266-5.373 15.422-12 15.422S0 13.213 0 7.947 5.373.631 12 .631s12 2.05 12 7.316m-13.669.854.495-.346.647-.456c.608-.427.711-1.042.369-1.53-.343-.492-.942-.595-1.547-.171l-.646.462 1.174 1.676-1.896-1.187-.456.323.466 2.161-.76-.285a.65.65 0 0 0-.016-.77.65.65 0 0 0-.427-.291.924.924 0 0 0-.683.207l-.802.563 1.19 1.698.473-.323-.363-.515.211-.145.701.275.544-.379.443-.323-.11-.405.647-.462zm.256-2.096a.515.515 0 0 1 .343-.131c.173 0 .335.087.43.231.067.089.103.198.103.309 0 .189-.105.363-.272.451l-.19.133-.605-.857zM7.585 9.403l-.324.22-.287-.411.323-.217c.155-.107.304-.11.398.026.09.129.052.275-.107.385zm1.617-.828-.145-.615.527.349zm3.39-2.614a1.078 1.078 0 0 0 1.53.24 1.0876 1.0876 0 0 0 .297-1.527 1.077 1.077 0 0 0-1.53-.239 1.086 1.086 0 0 0-.3 1.526zm.589-1.103a.5337.5337 0 0 1 .756.155c.072.093.111.207.111.324 0 .17-.082.33-.221.43a.54.54 0 0 1-.306.095.542.542 0 0 1-.454-.247.535.535 0 0 1-.11-.324.53.53 0 0 1 .224-.433m-1.796.672 1.191 1.701.472-.331-1.191-1.701zm-1.077 12.936h4.305V6.569l-4.305 3.015z"/></svg>