<svg xmlns="http://www.w3.org/2000/svg" fill="#44739e" viewBox="0 0 24 24"><path d="M21.96 10.402c0 1.742-.494 5.26-1.142 6.878-1.776 4.546-5.204 6.72-8.837 6.72-3.634 0-7.061-2.174-8.837-6.72-.61-1.618-1.104-5.136-1.104-6.878C2.04 4.094 6.317 0 12 0c5.702 0 9.974 4.094 9.96 10.402m-2.823 1.886c-.014 1.05-.033 2.099-.095 3.149.528-.063 1.075-.173 1.603-.303.005-.067.014-.139.019-.206.014-.149.029-.298.029-.437-.317.082-.653.144-.975.192.005-.201.015-.398.024-.6.024-.619.053-1.248.053-1.862-.11.009-.216.019-.326.033-.106.015-.216.024-.327.034zm-4.161-3.586v.768h.802v-.768zm.034 1.076.019.014v2.438c.254-.019.513-.033.768-.033 0-.403-.005-.807-.01-1.21-.005-.408-.009-.811-.009-1.209zm-1.776-.02c-.706 0-1.124.591-1.124 1.263l.034-.015c-.014.672.432 1.282 1.138 1.248.24 0 .446-.081.609-.254v.206h.783c0-1.166 0-2.337-.034-3.504h-.782v1.282c-.178-.158-.384-.226-.624-.226m.369 1.796a.49.49 0 0 1-.417 0h.014c-.192-.096-.302-.288-.302-.528s.11-.466.321-.543c.111-.048.24-.048.351 0 .225.082.336.288.336.543 0 .24-.111.432-.303.528M8.702 9.106h.015l-.015-.015zm-.744 0v.686h-.417v.643h.417v.831c-.014.561.404.96.946.96h.398v-.658h-.288c-.076 0-.206-.062-.206-.062l-.048-.048c-.048-.068-.062-.226-.062-.226v-.797h.59v-.657h-.59v-.672zm-4.286 2.99c-.038-.005-.072-.01-.11-.014.033 1.022.081 2.03.158 3.057.302.063.61.13.926.192.192.034.399.015.576-.081.24-.159.336-.418.322-.706-.014-.336-.178-.638-.466-.816.192-.144.274-.35.274-.59 0-.495-.37-.864-.85-.927-.278-.033-.552-.072-.83-.115m.816 1.282v-.015l-.336-.048c-.014-.177-.014-.35-.014-.528l.086.015c.072.014.154.033.235.033.192.015.303.13.303.303 0 .062-.015.129-.048.177l-.034.063zm.336 1.262c-.082.014-.178.034-.254.014l-.015.015c-.057-.01-.115-.019-.177-.034a2.7 2.7 0 0 0-.178-.033c-.014-.207-.034-.418-.034-.624.13.033.24.048.37.062.226.014.35.158.384.37 0 .048-.014.144-.014.144l-.034.048zm2.194-2.242c-.432-.014-.864-.048-1.296-.081l.014.033c0 1.056.014 2.127.082 3.183.12.014.24.029.36.038.12.015.24.024.36.039v-.044c-.015-.35-.029-.691-.029-1.041.081 0 .158.009.24.014.081.01.158.015.24.015.177.033.288.144.321.321.015.135.034.269.058.399.019.134.038.264.058.398l.043.005c.254.029.499.057.758.057-.014-.153-.038-.307-.057-.465-.02-.159-.039-.312-.058-.466-.034-.254-.158-.48-.35-.638.24-.144.35-.37.35-.639-.005-.614-.466-1.094-1.094-1.128m.211 1.392c-.063.063-.144.063-.24.063h-.015c-.081 0-.163-.01-.249-.015a2.4 2.4 0 0 0-.25-.014v-.754c.159.015.336.034.495.034.225.034.369.178.369.398 0 .116-.029.212-.11.288m1.089.74.015-.015c0 .768.576 1.33 1.344 1.33.768.033 1.344-.432 1.344-1.248v-2.064h-.783v2.064c0 .144-.048.288-.129.398-.125.111-.269.159-.447.159-.35 0-.576-.255-.576-.591v-2.049c-.254-.02-.513-.034-.768-.034zm10.426-2.204c-.662.044-1.31.092-1.973.12h.048c0 1.09-.014 2.175-.048 3.264l.087-.009c.662-.063 1.334-.125 1.992-.216.014-.226.033-.447.033-.672-.446.062-.878.11-1.329.144v-.591c.168-.014.34-.033.508-.048h.005c.173-.014.346-.033.509-.048.014-.225.014-.465.014-.686-.336.034-.686.062-1.022.082v-.543c.432-.014.864-.048 1.296-.096v-.705zm-6.456 1.388c-.11-.048-.144-.144-.144-.144s-.067-.125.062-.255c.13-.115.336-.081.336-.081.207.014.336.144.384.35h.816c0-.686-.628-1.07-1.267-1.07-.576 0-1.171.336-1.185.974 0 .158.033.322.096.48.216.394.595.49.974.586.072.019.139.038.211.057h.034c.096.029.225.077.273.111.068.048.13.172.034.302-.029.034-.062.062-.11.096 0 0-.02 0-.034.014 0 0-.144.048-.226.048-.288 0-.46-.172-.494-.446h-.816c.034.72.624 1.181 1.33 1.166.643 0 1.267-.355 1.281-1.041.024-.701-.489-.835-1.013-.97a4 4 0 0 1-.254-.067l-.034-.014s-.158-.063-.254-.096m2.885 0-.096-.034c-.082-.034-.13-.082-.159-.158-.014-.048 0-.111.034-.178.062-.096.178-.13.254-.144h.063c.225 0 .384.11.417.336.255 0 .514-.014.768-.034 0-.672-.576-1.056-1.2-1.022-.576 0-1.152.384-1.171 1.008 0 .158.034.322.096.48.211.379.581.47.955.562.082.019.164.038.245.062 0 0 .207.048.274.144.048.062.062.192-.034.288s-.206.144-.336.144c-.273 0-.446-.158-.48-.432-.273 0-.542 0-.801.014.014.706.59 1.152 1.281 1.119.624-.034 1.219-.399 1.234-1.071.038-.676-.461-.801-.965-.931-.13-.033-.259-.067-.379-.11zM11.89 12.24l-.02-.019V9.773h-.801v1.344c-.019.24-.163.384-.418.417-.24-.033-.398-.177-.398-.432V9.758H9.47v1.536c0 .514.37.96.898.96.288.02.542-.096.72-.302v.288zm5.313-2.544c-.686.034-1.2.59-1.2 1.282h.015c0 .672.528 1.233 1.219 1.185.672-.048 1.137-.638 1.137-1.296 0-.657-.513-1.171-1.171-1.171m.259 1.714c-.144.096-.321.096-.465.014-.159-.096-.24-.274-.24-.48 0-.302.206-.562.465-.562.336 0 .466.303.466.528-.005.212-.067.384-.226.5m-10.089-.37c-.063-.144-.192-.254-.351-.322-.144-.052-.302-.096-.451-.134-.033-.01-.062-.019-.091-.024 0 0-.192-.048-.178-.206.015-.178.255-.13.255-.13.144.034.225.13.254.274.106 0 .211.004.317.009.101.005.197.01.293.01-.015-.495-.447-.816-.927-.831-.417 0-.753.288-.768.706-.028.552.394.691.812.83.019.005.038.01.052.02 0 0 .159.048.207.096s.033.158-.082.206c-.048.034-.11.034-.158.034-.178-.015-.288-.13-.322-.303-.192 0-.384-.014-.576-.033 0 .494.399.878.898.912.446.033.878-.255.878-.735 0-.139-.014-.269-.062-.379"/></svg>