<svg xmlns="http://www.w3.org/2000/svg" viewBox="0 0 24 24"><path fill="#44739e" d="M22.89 4.881a5.117 5.117 0 0 0-3.231-3.62c-.781-.27-.605-.265-7.693-.259-5.667 0-6.697.016-7.026.088a5.048 5.048 0 0 0-3.88 4.1c-.044.291-.055 2.245-.044 7.032.017 6.13.028 6.652.116 6.961a5.03 5.03 0 0 0 1.272 2.255 4.81 4.81 0 0 0 3.152 1.514c.407.044 2.545.055 6.867.044 6.246-.022 6.274-.022 6.725-.143a4.99 4.99 0 0 0 1.601-.705 5.057 5.057 0 0 0 2.145-3.092c.089-.347.094-.891.094-7.081-.001-6.23-.001-6.741-.098-7.094m-2.351 6.296h-1.92l-.016-1.449c-.017-1.545-.028-1.6-.315-1.754a.915.915 0 0 0-.796.06c-.369.231-.391.313-.408 1.805l-.017 1.338h-1.92V9.756c0-1.303-.012-1.425-.11-1.59-.269-.445-1.117-.302-1.376.231-.099.21-.116.341-.116 1.504v1.272h-1.504c-1.672 0-1.93-.039-2.453-.347a2.406 2.406 0 0 1-.892-1.078 3.24 3.24 0 0 1-.153-1.079l-.034-.77-.116.193c-.066.104-.462.786-.874 1.513a13.8 13.8 0 0 1-.892 1.441.489.489 0 0 1-.611.033c-.06-.055-.66-1.051-1.325-2.217a14.16 14.16 0 0 1-1.21-2.287.463.463 0 0 1 .144-.318c.143-.143.159-.143.925-.143h.776l.434.748a4.63 4.63 0 0 0 .506.776c.122.049.242-.105.65-.831l.386-.694h2.227l.374-.65.375-.655.01.529c.012.291.028.578.044.649.028.115.06.127.463.127h.439v1.761h-.952l.034.463c.06.852.263 1.072 1.018 1.072h.451V6.114h1.76v.253c0 .138.017.242.044.232l.419-.21a1.677 1.677 0 0 1 .935-.209 1.722 1.722 0 0 1 1.504.517l.303.291.104-.137a2.417 2.417 0 0 1 2.429-.572 1.87 1.87 0 0 1 .925.803 5.27 5.27 0 0 1 .331 2.605Z"/></svg>