<svg xmlns="http://www.w3.org/2000/svg" viewBox="0 0 24 24"><path fill="#44739e" d="M22.891 4.881a5.118 5.118 0 0 0-3.231-3.62c-.78-.269-.605-.265-7.692-.26-5.667 0-6.697.017-7.026.088a5.054 5.054 0 0 0-3.88 4.099c-.048.293-.056 2.247-.048 7.032.016 6.13.027 6.652.11 6.96a5.03 5.03 0 0 0 1.282 2.258 4.806 4.806 0 0 0 3.151 1.515c.408.043 2.545.053 6.867.043 6.246-.021 6.274-.021 6.725-.143a4.98 4.98 0 0 0 1.601-.705 5.054 5.054 0 0 0 2.146-3.093c.089-.347.093-.89.093-7.08 0-6.23 0-6.741-.098-7.094m-4.686 13.607a3.973 3.973 0 0 1-4.505 2.224 15 15 0 0 1-1.567-.713c-.211-.07-.41.124-.575.229a4.02 4.02 0 0 1-1.098.468 3.956 3.956 0 0 1-2.711-7.386 4.407 4.407 0 0 1 3.71.11 3.81 3.81 0 0 1-.909 1.56c-.22.11-.799-.201-1.077-.201a2.172 2.172 0 0 0-2.067 1.827 2.137 2.137 0 0 0 1.388 2.222c.505.194 1.571.22 1.879-.346a1.626 1.626 0 0 0 .054-.727H8.95v-1.722h3.553a4.18 4.18 0 0 0 .158 1.571 2.13 2.13 0 0 0 .527.779c1.97 1.858 4.81-1.258 2.768-3.068a2.16 2.16 0 0 0-.989-.49 3.69 3.69 0 0 0-1.464.22l-.888-1.515v-.058a3.938 3.938 0 0 1 5.598 5.016Zm2.336-8.795v1.49H18.62l-.016-1.449c-.017-1.546-.028-1.6-.315-1.758a.912.912 0 0 0-.794.059c-.369.23-.391.313-.408 1.805l-.017 1.337h-1.922V9.756c0-1.303-.011-1.428-.11-1.589-.269-.447-1.117-.303-1.376.23-.098.21-.11.342-.11 1.504v1.272h-1.509c-1.672 0-1.93-.039-2.453-.346a2.417 2.417 0 0 1-.893-1.078 3.27 3.27 0 0 1-.154-1.08L8.511 7.9l-.116.193c-.066.11-.462.787-.879 1.513a13.5 13.5 0 0 1-.892 1.441.49.49 0 0 1-.611.033c-.059-.055-.659-1.051-1.325-2.217a14.1 14.1 0 0 1-1.209-2.286.458.458 0 0 1 .144-.318c.143-.144.16-.144.925-.144h.776l.434.748a4.6 4.6 0 0 0 .507.777c.121.049.241-.11.649-.832l.386-.694h2.23l.374-.65.374-.654.011.528a6.5 6.5 0 0 0 .044.649c.028.116.061.127.463.127h.439v1.758h-.951l.033.463c.06.852.264 1.072 1.018 1.072h.451V6.111h1.758v.254c0 .137.018.241.044.23l.419-.208a1.687 1.687 0 0 1 .936-.21 1.72 1.72 0 0 1 1.503.517l.303.291.104-.137a2.417 2.417 0 0 1 2.429-.571 1.868 1.868 0 0 1 .925.802 5.274 5.274 0 0 1 .334 2.614"/></svg>