<svg xmlns="http://www.w3.org/2000/svg" viewBox="0 0 24 24"><path fill="#44739e" d="M16.272 9.161a2.81 2.81 0 0 0-1.443-.49H12.87a.425.425 0 0 0-.4.438v5.723a.425.425 0 0 0 .4.438h1.92a1.7 1.7 0 0 0 .438 0 2.823 2.823 0 0 0 1.521-.799 3.364 3.364 0 0 0 .954-3.055 3.235 3.235 0 0 0-1.431-2.255m-.399 4.086a1.534 1.534 0 0 1-1.057.618h-.967c-.09 0-.09 0-.09-.09v-3.647c0-.091 0-.091.077-.091h.877a1.534 1.534 0 0 1 1.289.774 2 2 0 0 1 .309.992 2.127 2.127 0 0 1-.412 1.431m7.062-4.137a.425.425 0 0 0-.361-.439h-1.005v3.944a1.52 1.52 0 0 1 0 .348 1.057 1.057 0 0 1-.722.851.941.941 0 0 1-1.056-.245 1.186 1.186 0 0 1-.348-.864V8.658h-1.006a.438.438 0 0 0-.373.439v3.621a2.96 2.96 0 0 0 .064.567 2.462 2.462 0 0 0 2.835 2.011 2.307 2.307 0 0 0 1.508-1.005A2.797 2.797 0 0 0 23 12.757v-3.66Zm-10.929 0a.438.438 0 0 0-.374-.439h-1.005v3.944a3 3 0 0 1 0 .348 1.07 1.07 0 0 1-.735.851.941.941 0 0 1-1.056-.245 1.186 1.186 0 0 1-.323-.876V8.658H7.482a.425.425 0 0 0-.36.439v3.621a2.2 2.2 0 0 0 .128.606 2.449 2.449 0 0 0 2.823 2.01 2.307 2.307 0 0 0 1.508-1.005 2.694 2.694 0 0 0 .503-1.533V9.097Zm-5.426-.464h-.954a.4.4 0 0 0-.361.283L4.235 12.19l-.284.902a.13.13 0 0 1 0 .064v-.064c-.219-.722-.451-1.431-.683-2.152l-.773-2.037a.387.387 0 0 0-.4-.27h-.941c-.129 0-.18.103-.141.232.554 1.727 1.121 3.454 1.688 5.155l.116.361a1.186 1.186 0 0 0 1.108.876h.142a4.8 4.8 0 0 0 .645-.09l.386-1.289c.567-1.688 1.109-3.338 1.676-5.052a.18.18 0 0 0-.181-.193"/></svg>