<svg xmlns="http://www.w3.org/2000/svg" viewBox="0 0 24 24"><path fill="#44739e" d="m9.892 7.081-.086.142v.068a3.48 3.48 0 0 0-.245 1.269v5.139a3.37 3.37 0 0 0 .413 1.607c.037.067.077.131.117.195a3.08 3.08 0 0 0 1.464 1.203l.193.075a3.044 3.044 0 0 0 2.556-.271l4.227-2.531a3.25 3.25 0 0 0 .382-.267 3.114 3.114 0 0 0 .85-1.075l.071-.15v-.018a3.45 3.45 0 0 0 .26-1.296V6.029a3.38 3.38 0 0 0-.412-1.606 3.118 3.118 0 0 0-1.582-1.41l-.191-.075a3.21 3.21 0 0 0-.977-.164.55.55 0 0 0-.102.007 3.15 3.15 0 0 0-1.479.429l-1.044.624-3.181 1.904a3.125 3.125 0 0 0-1.234 1.343m5.833-3.25a2.42 2.42 0 0 1 1.21-.33 2.47 2.47 0 0 1 .752.127.044.044 0 0 0 .03.016 2.413 2.413 0 0 1 1.331 1.129 2.65 2.65 0 0 1 .323 1.256v5.14a2.68 2.68 0 0 1-.246 1.114.06.06 0 0 0-.015.047 2.42 2.42 0 0 1-.95 1.034l-4.228 2.531a2.328 2.328 0 0 1-1.961.205.046.046 0 0 0-.03-.015 2.4 2.4 0 0 1-1.331-1.129 2.64 2.64 0 0 1-.323-1.258V8.56a2.685 2.685 0 0 1 .244-1.118c0-.017.015-.017.015-.048a2.42 2.42 0 0 1 .95-1.033ZM9.318 15.072a3.36 3.36 0 0 1-.413-1.607V8.322a3.43 3.43 0 0 1 .246-1.263v-.065l.085-.142a3.13 3.13 0 0 1 1.232-1.342l3.18-1.902a2.75 2.75 0 0 0-1.173-.944 3.2 3.2 0 0 0-.236-.089.042.042 0 0 1-.035-.017h-.019a2.83 2.83 0 0 0-.857-.142 2.916 2.916 0 0 0-1.41.371L4.993 5.595a2.736 2.736 0 0 0-1.107 1.148v.018c0 .016-.017.016-.017.034a2.87 2.87 0 0 0-.287 1.237v5.71a2.803 2.803 0 0 0 .382 1.397 2.77 2.77 0 0 0 1.553 1.254.052.052 0 0 1 .034.018h.017a2.8 2.8 0 0 0 .855.141 2.905 2.905 0 0 0 1.411-.37l1.607-.916a2.1 2.1 0 0 1-.123-.194m8.254 2.714-.052-.019a.88.88 0 0 0-.266-.045h-.029a.85.85 0 0 0-.403.116l-.284.171-.867.518a.864.864 0 0 0-.33.367l-.023.038v.019a.95.95 0 0 0-.067.344v1.4a.91.91 0 0 0 .11.44c.011.019.021.037.033.054a.833.833 0 0 0 .397.33l.052.021a.88.88 0 0 0 .266.044.86.86 0 0 0 .431-.119l1.153-.688a.73.73 0 0 0 .103-.073.86.86 0 0 0 .232-.293l.019-.042v-.006a.95.95 0 0 0 .072-.352v-1.402a.935.935 0 0 0-.111-.441.858.858 0 0 0-.435-.382Zm.345 2.223a.74.74 0 0 1-.067.303v.013a.66.66 0 0 1-.259.282l-1.152.689a.631.631 0 0 1-.535.056h-.007a.66.66 0 0 1-.364-.308.715.715 0 0 1-.088-.343v-1.405a.73.73 0 0 1 .074-.299v-.013a.66.66 0 0 1 .259-.282l1.152-.689a.67.67 0 0 1 .33-.091.68.68 0 0 1 .205.035h.008a.66.66 0 0 1 .363.307.74.74 0 0 1 .088.343Zm-2.851.627v-1.401a.92.92 0 0 1 .066-.345v-.018l.024-.039a.847.847 0 0 1 .33-.365l.867-.52a.764.764 0 0 0-.32-.257l-.064-.025h-.01a.8.8 0 0 0-.233-.038.79.79 0 0 0-.384.101l-1.344.771a.737.737 0 0 0-.301.312l-.006.01a.79.79 0 0 0-.078.337v1.556a.76.76 0 0 0 .526.723h.01a.73.73 0 0 0 .233.038.8.8 0 0 0 .384-.1l.441-.25a2 2 0 0 1-.032-.052.924.924 0 0 1-.108-.438Zm5.247-.398h-.04a.278.278 0 0 1-.19-.049.2.2 0 0 1-.055-.162v-1.14h.267a.242.242 0 0 0 0-.484h-.264v-.313a.264.264 0 0 0-.528 0v.316h-.266a.242.242 0 0 0 0 .484h.266v1.139a.678.678 0 0 0 .194.544.836.836 0 0 0 .55.164h.069a.249.249 0 0 0 0-.496Zm2.666-1.461a.274.274 0 0 0-.507-.208l-.53 1.385-.53-1.382v-.007a.275.275 0 0 0-.507.212l.743 1.751a.33.33 0 0 0 .175.176.324.324 0 0 0 .42-.175l.741-1.761Zm-4.268 1.409a.275.275 0 0 0 0 .55.275.275 0 0 0 0-.55M6.385 18.402a.262.262 0 0 0-.262.26v.126a.819.819 0 0 0-.74-.389 1.167 1.167 0 0 0 0 2.331.819.819 0 0 0 .74-.384v.125a.261.261 0 0 0 .24.259h.044a.261.261 0 0 0 .239-.259V18.65a.262.262 0 0 0-.261-.248m-.342 1.493a.622.622 0 0 1-.585.352.66.66 0 0 1-.668-.652v-.016a.66.66 0 0 1 .635-.683h.026a.647.647 0 0 1 .611.388.69.69 0 0 1 .06.308.77.77 0 0 1-.082.303Zm-2.219-1.497a.28.28 0 0 0-.268.204l-.363 1.293-.381-1.228a.275.275 0 0 0-.239-.193h-.04a.276.276 0 0 0-.247.207l-.377 1.211-.366-1.298a.276.276 0 1 0-.533.148l.012.038v.01l.55 1.727a.318.318 0 0 0 .273.213h.048a.319.319 0 0 0 .288-.228l.363-1.157.367 1.15a.319.319 0 0 0 .278.231h.046a.319.319 0 0 0 .286-.214l.57-1.76a.33.33 0 0 0 .012-.074.28.28 0 0 0-.281-.28Zm3.615.008H7.39a.262.262 0 0 0-.246.261v1.822a.261.261 0 0 0 .521 0v-1.827a.261.261 0 0 0-.228-.258Zm-.033-.95a.273.273 0 1 0 .272.274.273.273 0 0 0-.272-.274m2.05.941a.913.913 0 0 0-.77.389v-.142a.245.245 0 0 0-.491-.011v2.635a.261.261 0 0 0 .24.251h.041a.261.261 0 0 0 .238-.259v-.891a.85.85 0 0 0 .747.361 1.169 1.169 0 0 0 0-2.333Zm.571 1.168a.66.66 0 0 1-.644.677h-.027a.66.66 0 0 1-.66-.661v-.016a.7.7 0 0 1 .187-.484.66.66 0 0 1 .473-.194.66.66 0 0 1 .673.648v.029Zm2.739-1.101a.255.255 0 0 0-.15-.063h-.048a.262.262 0 0 0-.239.258v1.016c0 .312-.128.56-.504.56s-.48-.252-.48-.575v-1.01a.263.263 0 0 0-.239-.253h-.047a.262.262 0 0 0-.239.259v1.134a.821.821 0 0 0 .7.929.74.74 0 0 0 .156.007.705.705 0 0 0 .684-.36v.118a.247.247 0 1 0 .493 0v-1.817a.26.26 0 0 0-.085-.192Z"/></svg>