<svg xmlns="http://www.w3.org/2000/svg" fill="#44739e" viewBox="0 0 24 24"><path d="m7.365 2.001-1-.002-.041 20 1 .002.039-18.991L22 5.345V4.291Zm11.717 14.24-.072.068.068.073.072-.069zm-.68-.572-.072.068.05.053.065-.031zm-.662.208-.055.026.043.09.06-.079zm-.649-.372-.061.079.04.03.047-.012zm-1.576.325-.032.009.027.097.036-.094zm-1.251-.371-.036.094.02.008.024-.002zm-1.183.001-.012.001.009.1.012-.1zm-.977-.011-.011.1.04.004.034-.026zm-.786.493-.086.068.062.078.083-.056zm-.552-.65-.083.056.089.134.081-.14zm8.744-.323-9.358-.96a.471.471 0 0 0-.519.468v1.881a.47.47 0 0 0 .438.469l9.357.663a.47.47 0 0 0 .5-.469v-1.583a.472.472 0 0 0-.418-.469m-.364 1.486-.068-.073-.072.068-.626-.66-.609.293-.043-.09-.061.079-.6-.458-1.534.418-.026-.1-.036.093-1.226-.468-1.161.1-.009-.1-.012.1-.933-.107-.777.613-.062-.078-.084.056-.438-.662-.729 1.262-.173-.1.81-1.4.086.05.084-.056.468.706.724-.571.062.078.012-.1.965.11 1.174-.1.009.1.036-.094 1.215.465 1.549-.422.027.1.06-.079.589.451.619-.3.043.09.073-.068.607.64.667-.625.137.147zm.662-2.785-.548-.059a.162.162 0 0 0-.182.163v.548a.209.209 0 0 0 .182.2l.548.058a.161.161 0 0 0 .182-.163v-.547a.208.208 0 0 0-.182-.2m-1.132-.12-.547-.058a.16.16 0 0 0-.182.163v.545a.208.208 0 0 0 .182.2l.547.059a.162.162 0 0 0 .183-.163v-.548a.209.209 0 0 0-.183-.198m-1.123-.122-.547-.059a.161.161 0 0 0-.183.163v.547a.208.208 0 0 0 .183.2l.547.059a.16.16 0 0 0 .182-.163v-.545a.208.208 0 0 0-.182-.202m-1.904.695.547.059a.161.161 0 0 0 .183-.163v-.547a.208.208 0 0 0-.183-.2l-.547-.059a.162.162 0 0 0-.183.163v.547a.208.208 0 0 0 .183.2M14.518 14l.547.058a.16.16 0 0 0 .182-.163v-.547a.208.208 0 0 0-.182-.2l-.547-.059a.162.162 0 0 0-.183.163v.548a.209.209 0 0 0 .183.2m-1.124-.119.548.059a.161.161 0 0 0 .182-.163v-.547a.208.208 0 0 0-.182-.2l-.548-.059a.161.161 0 0 0-.182.163v.547a.208.208 0 0 0 .182.2m-1.381-.192.547.059a.162.162 0 0 0 .183-.163v-.548a.209.209 0 0 0-.183-.2l-.547-.058a.161.161 0 0 0-.183.163v.547a.208.208 0 0 0 .183.2m-1.131-.12.547.059a.16.16 0 0 0 .182-.163v-.547a.207.207 0 0 0-.182-.2l-.547-.059a.161.161 0 0 0-.183.163v.547a.208.208 0 0 0 .183.2m-.576-.064a.161.161 0 0 0 .182-.163V12.8a.208.208 0 0 0-.182-.2l-.548-.059a.162.162 0 0 0-.182.163v.548a.209.209 0 0 0 .182.2zm8.946-.145.547.059a.161.161 0 0 0 .183-.163v-.547a.208.208 0 0 0-.183-.2l-.547-.059a.16.16 0 0 0-.182.163v.547a.207.207 0 0 0 .182.2m-.584-.973-.547-.059a.162.162 0 0 0-.183.163v.548a.209.209 0 0 0 .183.2l.547.058a.16.16 0 0 0 .182-.163v-.547a.208.208 0 0 0-.182-.2m-1.123-.123L17 12.206a.161.161 0 0 0-.182.163v.547a.208.208 0 0 0 .182.2l.548.059a.161.161 0 0 0 .182-.163v-.548a.208.208 0 0 0-.185-.2m-1.904.696.547.059a.16.16 0 0 0 .182-.163v-.547a.207.207 0 0 0-.182-.2l-.547-.059a.161.161 0 0 0-.183.163v.547a.208.208 0 0 0 .183.2m-1.132-.12.548.059a.161.161 0 0 0 .182-.163v-.547a.208.208 0 0 0-.182-.2l-.548-.059a.161.161 0 0 0-.182.163v.547a.208.208 0 0 0 .182.2m-1.123-.122.547.058a.161.161 0 0 0 .183-.162v-.548a.209.209 0 0 0-.183-.2l-.547-.058a.16.16 0 0 0-.182.163v.547a.208.208 0 0 0 .182.2m-1.381-.192.547.058a.16.16 0 0 0 .182-.163v-.547a.208.208 0 0 0-.182-.2l-.547-.059a.162.162 0 0 0-.183.163v.548a.209.209 0 0 0 .183.2m-1.132-.12.548.059a.162.162 0 0 0 .179-.165v-.548a.209.209 0 0 0-.182-.2l-.548-.058a.161.161 0 0 0-.182.163v.543a.208.208 0 0 0 .185.206m-1.123-.123.547.059a.161.161 0 0 0 .183-.163v-.547a.208.208 0 0 0-.183-.2l-.547-.059a.16.16 0 0 0-.182.163v.547a.207.207 0 0 0 .182.2M19.864 11.2l-2.964-.327a.148.148 0 0 0-.168.149v.731a.191.191 0 0 0 .168.186l2.965.336a.147.147 0 0 0 .167-.15v-.74a.193.193 0 0 0-.168-.185m-6.564.32 2.966.335a.146.146 0 0 0 .167-.15v-.74a.193.193 0 0 0-.167-.188l-2.966-.324a.147.147 0 0 0-.167.149v.731a.193.193 0 0 0 .167.187m-.67-.055a.148.148 0 0 0 .167-.15v-.741a.194.194 0 0 0-.167-.188l-2.966-.324a.148.148 0 0 0-.167.15v.731a.192.192 0 0 0 .167.186zM20.216 10 9.52 8.8a1.132 1.132 0 0 0-1.258 1.123v7.243A1.132 1.132 0 0 0 9.324 18.3l10.7.662a1.132 1.132 0 0 0 1.2-1.13v-6.711A1.132 1.132 0 0 0 20.216 10m.006 7.913a.055.055 0 0 1-.059.055l-10.849-.67a.055.055 0 0 1-.052-.054v-7.4a.056.056 0 0 1 .061-.055L20.173 11a.056.056 0 0 1 .049.055z"/></svg>