<svg xmlns="http://www.w3.org/2000/svg" viewBox="0 0 24 24"><path fill="#44739e" d="M20.308 4.372S14.69 1.562 11.038 1c-3.091.843-7.581 4.214-7.581 4.214v.562s1.686 8.709 2.248 10.394a3.613 3.613 0 0 0-2.248 3.934c.554 2.809 2.523 3.093 3.085 2.809a2.772 2.772 0 0 0 2.809-2.529h1.967c0 .282.281.282.281.562h.562l.842-1.685a15.9 15.9 0 0 0 5.057-.844c.562-2.247 2.529-13.203 2.529-13.203ZM4.856 7.181l1.404.28v-.562l-1.404-.562 6.181-2.809.281 7.871-5.338 1.119Zm4.776 11.803h1.124v.282Zm-1.123-1.971v-.561c-.282 0-.562-.282-.844-.282s-.561-.28-.843-.28l-.562-2.248 1.405.281v-.562h-.843l4.496-1.405v4.776Zm8.426 0-4.498-.281v-4.494l4.494.842h-.561v.562l1.405-.281Zm1.967-10.394-1.124 5.619-5.055-1.126V3.528l6.461 2.248-1.404.561-.282.562Z"/></svg>