<svg xmlns="http://www.w3.org/2000/svg" viewBox="0 0 24 24"><path fill="#44739e" d="M10.331 1 2.325 2.908l-.019 1.277a2.27 2.27 0 0 0-.365.125.277.277 0 0 0-.068.183L1.815 20.2a.27.27 0 0 0 .087.145 1.04 1.04 0 0 0 .318.067l.019 1.068L10.331 23l5.195-1.308V3.694Zm.856 1.847 3.437 1.703v.173l-2.291.481v.578l1.962-.347.02 14.481-1.945-.318.01.568 2.194.347v.191l-3.396.635Zm-2.098.01L9.06 21.263l-5.744-.895.02-.182 2.194-.366V5.05l-2.156-.798a.333.333 0 0 1 .269-.318c.27-.057 5.446-1.077 5.446-1.077m9.391 2.379-1.982.471v1.039l1.044-.205-.018 12.97-1.039-.163v1.185l1.995.375 3.705-.933V7.158Zm2.954 2.627-1.616.332V8.6l1.382-.24.02 10.208-1.366-.221.01.384 1.551.241v.135l-2.395.443V6.541l2.424 1.203v.116Z"/></svg>