<svg xmlns="http://www.w3.org/2000/svg" viewBox="0 0 24 24"><path fill="#44739e" d="M20.042 1H3.958A2.958 2.958 0 0 0 1 3.958v16.084A2.958 2.958 0 0 0 3.958 23h16.084A2.958 2.958 0 0 0 23 20.042V3.958A2.958 2.958 0 0 0 20.042 1m-3.82 18.59a1.823 1.823 0 0 1-1.821 1.822H9.6a1.823 1.823 0 0 1-1.822-1.822V4.41A1.823 1.823 0 0 1 9.6 2.591h4.801a1.823 1.823 0 0 1 1.821 1.819ZM14.401 3.691H9.6a.722.722 0 0 0-.722.721V19.59a.722.722 0 0 0 .722.722h4.801a.722.722 0 0 0 .721-.722V4.41a.722.722 0 0 0-.721-.719m-1.32 1.471h-1.987a.372.372 0 1 1 0-.743h1.992a.372.372 0 0 1 0 .743Z"/></svg>