<svg xmlns="http://www.w3.org/2000/svg" viewBox="0 0 24 24"><path fill="#44739e" d="M6.59 3.894a1.53 1.53 0 0 0-1.396 1.118c0 .279-.84 3.629-.84 3.629h-.275c-.558-.279-.839 0-.839 0a15.7 15.7 0 0 1-1.961.28C1 8.921 1 9.484 1 9.484v9.504a.55.55 0 0 0 .559.56l8.106.558a6.1 6.1 0 0 1 1.677-.279c.839-.279.56-.839.56-.839s6.149.56 6.709.56 1.117-.839 1.117-.839 2.796-8.107 3.079-9.225c.56-1.118-.279-1.397-.279-1.397S7.988 4.173 6.871 3.894ZM8.827 5.85l12.859 3.071.279.279v.56l-2.796 7.826q-.419.84-.838.839c-.28 0-12.299-1.677-12.299-1.677s-.559 0-.559-.28c-.279-.279 0-.839 0-.839L7.988 6.41a.98.98 0 0 0 .279-.56c0 .279.56 0 .56 0"/></svg>