<svg xmlns="http://www.w3.org/2000/svg" viewBox="0 0 24 24"><path fill="#44739e" d="M17.376 4.386c-1.441.373-3.807.373-5.25 0-1.422-.367-1.378-.953.062-1.308 1.422-.35 3.698-.35 5.121 0 1.442.355 1.488.941.067 1.308m5.579 6.47-2.474-8.331-.03-.087c-.23-.523-1.353-1.02-3.362-1.287a17.54 17.54 0 0 0-4.6.001c-2.006.266-3.126.763-3.353 1.286l-.045.135-2.543 8.279c-.038.118-.06.242-.041.364.204 1.352 2.654 2.441 7.13 2.596-.603 2.125-2.556 3.688-4.873 3.688-1.211 0-2.323-.429-3.197-1.14-.036-1.313-.168-2.588-.412-3.586-.236-.965-.528-1.512-.831-1.653a.335.335 0 0 0-.158-.038H2.419c-.054 0-.104.011-.157.038-.316.145-.618.736-.857 1.761-.539 2.313-.539 6.014 0 8.323.239 1.024.541 1.612.857 1.757.053.027.103.038.157.038h1.747c.054 0 .108-.011.158-.038.303-.142.595-.688.831-1.657.194-.791.316-1.761.378-2.779.965.513 2.064.807 3.231.807 3.33 0 6.116-2.369 6.762-5.511 4.696-.11 7.263-1.224 7.468-2.61.017-.119-.005-.24-.039-.356"/></svg>