<svg xmlns="http://www.w3.org/2000/svg" viewBox="0 0 24 24"><path fill="#44739e" d="m22.403 12.537-6.291-6.048c-.095-.095-.222-.169-.338-.243-.052-.031-.105-.084-.158-.116-.105-.052-.232-.084-.358-.116-.074-.01-.148-.052-.232-.063-.053-.01-.116 0-.168-.01-1.254-.137-2.919.569-4.332 1.991-.116.116-.221.243-.326.359v-2.53c0-.252-.169-.463-.422-.516l-6.407-1.37-1.834-.042c-.147.011-.284.053-.379.148-.105.094-.158.231-.158.379v14.416c0 .295.232.527.527.527h1.886c.042 0 .085 0 .127-.011l6.259-1.486c.243-.052.401-.263.401-.516v-1.222h1.528l3.656 3.509c.39.39.928.59 1.56.59.253 0 .538-.042.822-.105.063-.011.116-.021.179-.043.032-.01.063-.01.095-.021.053-.01.095-.042.148-.052.158-.053.326-.116.484-.19.064-.032.127-.053.19-.084.221-.106.432-.222.653-.359.043-.031.085-.052.127-.084.179-.116.369-.253.548-.39.053-.042.116-.084.168-.137.211-.179.422-.358.633-.569.895-.896 1.559-1.949 1.854-2.94.306-1.117.158-2.055-.442-2.656M6.29 13.654c-.168 0-.316-.084-.411-.21s-.126-.306-.084-.464l.79-2.835 1.096.032-.685 2.434 1.929.021 1.085 1.065Zm15.523 1.233c-.243.833-.812 1.718-1.592 2.498-1.633 1.633-3.477 2.065-4.109 1.433-.306-.305-.369-.896-.158-1.602.242-.832.811-1.717 1.591-2.497s1.665-1.339 2.497-1.591c.285-.085.548-.127.78-.127.348 0 .643.095.822.285.327.305.379.895.169 1.601"/></svg>