<svg xmlns="http://www.w3.org/2000/svg" viewBox="0 0 24 24"><path fill="#44739e" d="M21.961 11.738v-.929c.696-.292 1.039-.656 1.039-1.11 0-.444-.353-.827-1.039-1.11V7.64C22.657 7.348 23 6.984 23 6.53c0-1.796-5.742-1.988-8.205-1.988-2.391 0-7.831.182-8.174 1.827L1.192 8.256a.2745.2745 0 0 0-.172.252L1 18.317c0 .051.02.091.05.132v.01c0 .01.011.01.021.01.01.02.02.03.04.05.01.01.03 0 .05.01s.041.031.061.041l5.833.888h.081l7.932-1.453c.414 0 1.12-.011 1.948-.061.746-.04 1.453-.101 2.089-.172 1.423-.171 2.462-.413 3.088-.736.535-.273.797-.616.797-1.009 0-.404-.273-.737-.797-1.01-.071-.04-.152-.07-.243-.111v-.928c.697-.293 1.04-.656 1.04-1.11.01-.474-.323-.838-1.029-1.13m-1.514-3.583c-2.23-.434-5.298-.444-5.652-.444-.575 0-3.451.02-5.621.434V6.359c.798-.172 2.634-.475 5.621-.475 3.018 0 4.855.313 5.652.485Zm0 3.159c-2.23-.434-5.298-.444-5.652-.444s-3.401.01-5.621.444V9.517c.798-.171 2.624-.474 5.621-.474 3.028 0 4.865.313 5.652.485Zm0 3.158c-.414-.08-.868-.151-1.342-.211-.636-.071-1.343-.132-2.089-.172-.828-.04-1.544-.061-1.999-.061h-.222c-.353 0-3.401.011-5.621.444v-1.786c.798-.171 2.634-.474 5.621-.474 3.018 0 4.855.313 5.652.484Zm.666 1.534c-.908.293-3.088.646-6.318.646-.948 0-1.856-.03-2.704-.091a25.8 25.8 0 0 1-2.069-.222 8.8 8.8 0 0 1-.777-.141c-.333-.07-.575-.131-.747-.192.374-.121.908-.232 1.534-.333.293-.04.606-.09.949-.121.747-.08 1.544-.141 2.391-.171.455-.02.929-.02 1.423-.02 3.23 0 5.41.363 6.318.645"/></svg>