<svg xmlns="http://www.w3.org/2000/svg" viewBox="0 0 24 24"><path fill="#44739e" d="M18.978 1c-2.283 0-4.007.917-4.007 2.133v2.203l-1.346.608c-.15.07-.249.22-.249.389v9.141c0 .229.189.419.418.419h1.177v1.614c0 1.217 1.724 2.134 4.007 2.134s4.007-.917 4.007-2.134V3.143C22.985 1.927 21.261 1 18.978 1m0 17.813c-1.814 0-3.16-.678-3.16-1.296 0-.608 1.356-1.295 3.16-1.295 1.814 0 3.16.677 3.16 1.295 0 .609-1.356 1.296-3.16 1.296M7.624 1C4.932 1 2.899 2.087 2.899 3.522v2.592l-1.585.717c-.179.08-.299.26-.299.459v10.776c0 .279.219.498.498.498h1.376v1.914C2.889 21.913 4.923 23 7.614 23s4.725-1.087 4.725-2.522V3.532C12.349 2.087 10.315 1 7.624 1m0 20.993c-2.133 0-3.728-.807-3.728-1.525s1.595-1.525 3.728-1.525 3.728.807 3.728 1.525-1.595 1.525-3.728 1.525"/></svg>