<svg xmlns="http://www.w3.org/2000/svg" fill="#44739e" viewBox="0 0 24 24"><path d="M21.95 11.15v-.92c.69-.29 1.03-.65 1.03-1.1 0-.44-.35-.82-1.03-1.1v-.94c.69-.29 1.03-.65 1.03-1.1 0-1.78-5.69-1.97-8.13-1.97-2.37 0-7.76.18-8.1 1.81L1.37 7.7c-.1.04-.17.14-.17.25l-.02 9.72c0 .05.02.09.05.13v.01c0 .01.01.01.02.01.01.02.02.03.04.05.01.01.03 0 .05.01s.04.03.06.04l5.78.88h.08l7.86-1.44c.41 0 1.11-.01 1.93-.06.74-.04 1.44-.1 2.07-.17 1.41-.17 2.44-.41 3.06-.73.53-.27.79-.61.79-1 0-.4-.27-.73-.79-1-.07-.04-.15-.07-.24-.11v-.92c.69-.29 1.03-.65 1.03-1.1.01-.47-.32-.83-1.02-1.12m-1.5-3.55c-2.21-.43-5.25-.44-5.6-.44-.57 0-3.42.02-5.57.43V5.82c.79-.17 2.61-.47 5.57-.47 2.99 0 4.81.31 5.6.48zm0 3.13c-2.21-.43-5.25-.44-5.6-.44s-3.37.01-5.57.44V8.95c.79-.17 2.6-.47 5.57-.47 3 0 4.82.31 5.6.48zm0 3.13c-.41-.08-.86-.15-1.33-.21-.63-.07-1.33-.13-2.07-.17-.82-.04-1.53-.06-1.98-.06h-.22c-.35 0-3.37.01-5.57.44v-1.77c.79-.17 2.61-.47 5.57-.47 2.99 0 4.81.31 5.6.48zm.66 1.52c-.9.29-3.06.64-6.26.64-.94 0-1.84-.03-2.68-.09-.75-.05-1.44-.13-2.05-.22-.29-.04-.55-.09-.77-.14-.33-.07-.57-.13-.74-.19.37-.12.9-.23 1.52-.33.29-.04.6-.09.94-.12.74-.08 1.53-.14 2.37-.17.45-.02.92-.02 1.41-.02 3.2 0 5.36.36 6.26.64"/></svg>