<svg xmlns="http://www.w3.org/2000/svg" viewBox="0 0 24 24"><path fill="#44739e" d="M22.666 2.825c-.287-.086-7.073-2.1-16.779-.926-1.508.182-3.026.439-4.515.764-.219.048-.372.238-.372.468v.897c0 .143.057.276.172.362s.248.134.382.105c0 0 .286-.047.792-.114l2.567 9.334c-.191.143-.382.296-.553.477-.888.926-1.384 2.224-1.356 3.56.058 2.615 2.09 4.715 4.534 4.715h.076c1.384-.028 2.558-.506 3.398-1.374.095-.096.162-.22.248-.325.01 0 .029.01.038.01h.783l.067-.019c.172-.057.706-.334 1.097-1.67 1.193-.067 2.568-.191 3.913-.401.182-.029.325-.163.382-.334 1.069-3.494 3.484-11.759 4.047-13.687.286.048.563.105.849.153.134.028.287-.01.392-.096.114-.095.172-.229.172-.372V3.283c.009-.21-.134-.391-.334-.458M6.02 13.114 3.825 5.116s-.372-.792 1.269-.792c1.909 0 2.301.658 2.301.658l.925 7.922c-.295-.048-.601-.067-.925-.067-.239 0-.478.038-.716.086-.22.038-.439.114-.659.191m3.971-.706v1.069c-.105-.067-.229-.115-.344-.172L8.75 5.45s-.095-.611.525-.716c.229-.038 1.269-.258 2.262-.315 1.384-.086 2.796 0 2.796 0l-.019.305-.754 7.684s-.63.534-3.569 0m10.021-7.273-3.541 12.14s-.401.153-1.269-.114-.955-.64-.955-.64l1.27-12.112c1.031 0 2.892.067 3.732.163 1.021.114.763.563.763.563"/></svg>