<svg xmlns="http://www.w3.org/2000/svg" fill="#44739e" viewBox="0 0 24 24"><path d="M20.313 3.492c0-.482-.723-.964-2.409-1.2a35.6 35.6 0 0 0-5.061-.241 35.6 35.6 0 0 0-5.06.241c-1.687.241-2.41.482-2.41 1.205v.964L3.687 4.7c-.241 0-.241.241-.241.481l.241 13.494a.236.236 0 0 0 .241.241l4.819 2.651c1.205.241 2.651.241 3.855.482h.723c2.41 0 3.856-.482 4.338-1.2v-4.827h.237a11.7 11.7 0 0 0 1.69-.722c.241-.241.723-.482.723-.723s.241-3.855.241-5.3-.241-5.542-.241-5.783m-2.891 7.952a27.8 27.8 0 0 1-4.579.24 29.3 29.3 0 0 1-4.578-.24 3.887 3.887 0 0 1-2.165-.725V8.07h.241a15.4 15.4 0 0 0 1.687.482 35.96 35.96 0 0 0 5.06.482 35.96 35.96 0 0 0 5.061-.482 4.46 4.46 0 0 0 1.686-.482v2.892a7.12 7.12 0 0 1-2.409.482m2.164-4.338a7.03 7.03 0 0 1-2.168.482 29.5 29.5 0 0 1-4.579.482 29.16 29.16 0 0 1-4.578-.241L6.1 7.106V4.215a15.4 15.4 0 0 1 1.683.485 35.6 35.6 0 0 0 5.06.241A35.6 35.6 0 0 0 17.9 4.7a4.46 4.46 0 0 0 1.686-.482v2.888M8.265 3.01c1.446 0 3.133-.241 4.578-.241a29.2 29.2 0 0 1 4.579.241 5.66 5.66 0 0 1 1.927.482 5.3 5.3 0 0 1-1.927.241 26.7 26.7 0 0 1-4.579.482 29.16 29.16 0 0 1-4.578-.241 5.67 5.67 0 0 1-1.928-.482c.723-.241 1.205-.241 1.928-.482M19.59 14.576l-2.168.723a26.7 26.7 0 0 1-4.579.482 15.13 15.13 0 0 1-4.578-.723 2.737 2.737 0 0 1-1.928-.723 14.3 14.3 0 0 0-.237-2.651 3.483 3.483 0 0 0 1.687.482 35.96 35.96 0 0 0 5.06.482 35.96 35.96 0 0 0 5.061-.482 3.48 3.48 0 0 0 1.686-.482v2.892"/></svg>