<svg xmlns="http://www.w3.org/2000/svg" viewBox="0 0 24 24"><path fill="#44739e" d="M9.425 9.636h5.096v1.085H9.425Zm-.044 4.283h5.14v-2.298h-5.14ZM23 5.126c0-.022-.011-.044-.011-.065V3.467c0-.109-.032-.217-.097-.304l-.694-1.019c-.098-.152-.271-.239-.445-.239h-1.442c-.163 0-.325.076-.423.206l-.531.683h-2.884l-.651-.704c-.098-.109-.249-.174-.401-.174H2.214c-.162 0-.314.065-.412.195l-.672.77c-.087.098-.13.228-.13.358v11.862c0 .087.022.163.054.239.033.065 3.361 6.755 10.691 6.755h.076c7.351-.044 10.951-6.235 11.103-6.495.043-.087.076-.174.076-.271Zm-9.845-.532-.358 1.41h-1.865l-.282-1.42ZM11.81 20.989h-.065c-6.148 0-9.227-5.227-9.661-6.04V5.082c0-.065.022-.271.141-.39.087-.087.239-.141.445-.141h.021l6.853.033.412 2.071c.054.249.271.433.531.433h2.722c.249 0 .466-.162.52-.412l.532-2.082 7.102.033c.043.011.292.022.423.141.021.022.086.097.108.293v10.105c-.499.824-3.882 5.79-10.084 5.823"/></svg>