<svg xmlns="http://www.w3.org/2000/svg" viewBox="0 0 24 24"><path fill="#44739e" d="M18.775 17.515c-1.748 1.275-3.722 1.54-4.409.592-.686-.949.176-2.75 1.924-4.025s3.723-1.54 4.409-.593c.687.95-.175 2.751-1.924 4.026m3.872-4.505-8.016-9.173c-.823-1.063-3.236-.525-5.39 1.201-2.156 1.726-3.295 4.294-2.474 5.357l.803 1.146H5.56c-.048-1.109-.181-2.173-.405-3.022-.236-.89-.529-1.396-.832-1.526a.36.36 0 0 0-.158-.035H2.418c-.053 0-.103.011-.157.035-.315.134-.617.681-.857 1.626-.539 2.134-.539 5.551 0 7.682.24.946.542 1.489.857 1.623.054.024.104.034.157.034h1.747c.055 0 .109-.01.158-.034.303-.13.596-.636.832-1.53.224-.848.356-1.911.405-3.019h3.294l4.534 6.474c1.015 1.421 3.911 1.04 6.468-.848s3.806-4.571 2.791-5.991"/></svg>