<svg xmlns="http://www.w3.org/2000/svg" fill="#44739e" viewBox="0 0 24 24"><path d="M23.3912 21.5164c-1.907 1.391-4.061 1.68-4.81.646-.748-1.035.192-3 2.099-4.391s4.061-1.68 4.81-.647c.749 1.036-.191 3.001-2.099 4.392m4.224-4.915-8.745-10.0068c-.898-1.159-3.53-.572-5.88 1.311-2.352 1.882-3.595 4.684-2.699 5.843l.876 1.2509h-2.193c-.052-1.21-.197-2.371-.441-3.297-.258-.971-.578-1.523-.908-1.665a.396.396 0 0 0-.172-.038h-1.906c-.058 0-.113.012-.172.038-.343.146-.673.743-.935 1.774-.587 2.328-.587 6.056 0 8.381.262 1.031.592 1.624.935 1.77.059.026.114.037.172.037h1.906c.059 0 .118-.011.172-.037.33-.142.65-.694.908-1.669.244-.925.388-2.085.441-3.294h3.594l4.946 7.0629c1.107 1.55 4.266 1.135 7.056-.925 2.789-2.06 4.152-4.987 3.045-6.536"/></svg>