<svg xmlns="http://www.w3.org/2000/svg" viewBox="0 0 24 24"><path fill="#44739e" d="M22.718 16.936c-.847-1.975-6.205-2.256-9.308-2.256h-.564a40.26 40.26 0 0 0-8.18.845v-1.691c0-.283 1.693-1.411 7.898-1.411h.565c5.358 0 7.615 1.128 7.615 1.692v1.129a.276.276 0 0 0 .282.281s1.41-.564 1.41-1.41V12.99a1.988 1.988 0 0 0-1.128-1.41 3.403 3.403 0 0 0 1.41-1.41V9.039c-.564-.564-.847-1.129-1.41-1.129a1.904 1.904 0 0 0 1.128-1.692V5.09q-.846-2.539-8.456-2.539h-1.416a23.54 23.54 0 0 0-6.205.846c-1.974.564-3.103 1.693-3.103 1.98v1.405L1 8.192v11.847a.276.276 0 0 0 .282.281l10.436 1.129 3.385-1.129c4.794 0 7.897-1.128 7.897-2.256v-.282c0-.564 0-.846-.282-.846m-1.698 1.128c-.564.846-5.359 1.128-8.744 1.128-6.205 0-7.615-.563-7.615-1.128s3.103-1.41 8.462-1.41h.282c4.795 0 7.615.564 7.615 1.41m-.564-10.718a33.15 33.15 0 0 0-7.61-.846 25.45 25.45 0 0 0-7.897 1.129V6.5c0-.282 1.692-1.974 7.615-1.974h.282c7.051 0 7.615 1.692 7.615 1.692v1.128m.565 4.231c-1.975-.846-5.077-.846-7.897-.846h-.847a21.03 21.03 0 0 0-7.333 1.128v-1.41c0-.283 1.692-1.693 7.897-1.693s7.898 1.41 7.898 1.693v.561l.282.563c-.282-.281-.282 0 0 0"/></svg>