<svg xmlns="http://www.w3.org/2000/svg" fill="#44739e" viewBox="0 0 24 24"><path d="M21.7753 24.55c-1.317-.428-3.233-.428-4.551-.001l-1.091-7.759c2.147.273 4.586.273 6.733.001zm3.807-11.794c-1.564-.472-3.598-.713-5.661-.744C19.4393 8.619 16.5233 6 13.0003 6c-1.542 0-2.965.508-4.123 1.356-.079-.654-.192-1.267-.344-1.795-.258-.891-.577-1.396-.907-1.527A.45.45 0 0 0 7.4543 4h-1.907c-.058 0-.113.011-.171.034-.344.134-.674.681-.936 1.626-.587 2.135-.587 5.552 0 7.683.262.945.592 1.489.936 1.623.058.023.113.034.171.034h1.907a.45.45 0 0 0 .172-.034c.33-.131.649-.636.907-1.53.287-.996.435-2.288.458-3.602.94-1.188 2.379-1.968 4.009-1.968 2.502 0 4.585 1.803 5.036 4.176-1.698.087-3.324.321-4.625.714-3.293.994-3.187 2.576.157 3.535.153.044.33.075.491.115l1.442 10.246c.121.449.834.995 2.478 1.237.506.074 1.015.111 1.523.111s1.016-.037 1.522-.111c1.642-.242 2.319-.791 2.475-1.235l1.441-10.246c.163-.041.343-.073.498-.117 3.34-.959 3.441-2.541.144-3.535"/></svg>