<svg xmlns="http://www.w3.org/2000/svg" fill="#44739e" viewBox="0 0 24 24"><path d="M9.771 2.066 2.539 3.787l-.017 1.156a2.05 2.05 0 0 0-.33.113.25.25 0 0 0-.061.165l-.052 14.184a.232.232 0 0 0 .078.13.92.92 0 0 0 .287.061l.017.965 7.31 1.373 4.693-1.182V4.5Zm.773 1.668 3.1 1.539v.156l-2.069.435v.521l1.774-.313.017 13.081-1.756-.287.009.513 1.982.313v.174l-3.069.573zm-1.9.009L8.623 20.37l-5.188-.808.017-.166 1.982-.33V5.725L3.487 5a.3.3 0 0 1 .243-.286c.243-.053 4.919-.974 4.919-.974m6.293.939L14.9 20.674l3.676-.921.024-13.168Zm2.912 2.59-1.608.339v.4l1.373-.244-.009 10.572-1.356-.226.009.391 1.539.244v.13l-2.382.443.026-13.359 2.408 1.191Zm1.182-.522-.026.009L19 19.64l.035.008 2.885-.721V8.245Zm2.3 2.043-1.26.261v.312l1.077-.191.009 8.631-1.062-.171.009.313 1.208.191v.1l-1.869.348V7.767l1.886.93v.1z"/></svg>