<svg xmlns="http://www.w3.org/2000/svg" viewBox="0 0 24 24"><path fill="#44739e" d="M22.98 11.145c0-.454-.343-.817-1.039-1.11v-.928c.081-.03.161-.07.242-.111.535-.272.797-.615.797-1.008 0-.404-.273-.737-.797-1.009-.625-.323-1.675-.575-3.087-.737-.635-.07-1.341-.131-2.088-.171-.827-.04-1.533-.061-1.947-.061L7.123 4.558c-.03 0-.051-.01-.081 0l-5.83.878c-.02 0-.041.03-.061.04-.01.01-.03 0-.05.01s-.03.03-.04.04c0 .01-.011.01-.021.01v.01c-.03.041-.04.091-.04.142l.02 9.804c0 .111.071.212.172.242l5.437 1.887c.343 1.634 5.78 1.826 8.17 1.826 2.461 0 8.201-.192 8.201-1.988 0-.454-.343-.817-1.039-1.109v-.928c.686-.293 1.039-.666 1.039-1.11 0-.454-.343-.817-1.039-1.109v-.928c.686-.313 1.019-.676 1.019-1.13m-2.552 5.053v1.423c-.797.171-2.633.484-5.649.484-2.996 0-4.832-.303-5.619-.474v-1.786c2.169.414 5.044.434 5.619.434.353 0 3.42-.01 5.649-.444Zm0-3.157v1.422c-.787.172-2.623.485-5.649.485-2.996 0-4.832-.303-5.619-.474v-1.786c2.23.424 5.266.444 5.619.444s3.42-.01 5.649-.444Zm0-1.735c-.797.172-2.633.484-5.649.484-2.996 0-4.832-.302-5.619-.474V9.531c2.23.424 5.266.444 5.619.444h.222c.454 0 1.17-.02 1.997-.061.747-.04 1.453-.101 2.088-.171.474-.061.928-.121 1.342-.212Zm-5.649-2.673c-.504 0-.978-.01-1.422-.02-.848-.03-1.644-.081-2.391-.172-.343-.04-.666-.08-.948-.121-.615-.1-1.16-.211-1.533-.332.171-.061.413-.121.746-.192.232-.051.494-.101.777-.141.615-.101 1.311-.172 2.068-.222.847-.061 1.755-.091 2.703-.091 3.218 0 5.407.363 6.315.646-.908.282-3.087.645-6.315.645"/></svg>