<svg xmlns="http://www.w3.org/2000/svg" fill="#44739e" viewBox="0 0 24 24"><path d="M22.98 10.56c0-.45-.34-.81-1.03-1.1v-.92c.08-.03.16-.07.24-.11.53-.27.79-.61.79-1 0-.4-.27-.73-.79-1-.62-.32-1.66-.57-3.06-.73-.63-.07-1.33-.13-2.07-.17-.82-.04-1.52-.06-1.93-.06L7.26 4.03c-.03 0-.05-.01-.08 0L1.4 4.9c-.02 0-.04.03-.06.04-.01.01-.03 0-.05.01s-.03.03-.04.04c0 .01-.01.01-.02.01v.01c-.03.04-.04.09-.04.14l.02 9.72c0 .11.07.21.17.24l5.39 1.87c.34 1.62 5.73 1.81 8.1 1.81 2.44 0 8.13-.19 8.13-1.97 0-.45-.34-.81-1.03-1.1v-.92c.68-.29 1.03-.66 1.03-1.1 0-.45-.34-.81-1.03-1.1v-.92c.68-.31 1.01-.67 1.01-1.12m-2.53 5.01v1.41c-.79.17-2.61.48-5.6.48-2.97 0-4.79-.3-5.57-.47v-1.77c2.15.41 5 .43 5.57.43.35 0 3.39-.01 5.6-.44zm0-3.13v1.41c-.78.17-2.6.48-5.6.48-2.97 0-4.79-.3-5.57-.47v-1.77c2.21.42 5.22.44 5.57.44s3.39-.01 5.6-.44zm0-1.72c-.79.17-2.61.48-5.6.48-2.97 0-4.79-.3-5.57-.47V8.96c2.21.42 5.22.44 5.57.44h.22c.45 0 1.16-.02 1.98-.06.74-.04 1.44-.1 2.07-.17.47-.06.92-.12 1.33-.21zm-5.6-2.65c-.5 0-.97-.01-1.41-.02-.84-.03-1.63-.08-2.37-.17-.34-.04-.66-.08-.94-.12-.61-.1-1.15-.21-1.52-.33.17-.06.41-.12.74-.19.23-.05.49-.1.77-.14.61-.1 1.3-.17 2.05-.22.84-.06 1.74-.09 2.68-.09 3.19 0 5.36.36 6.26.64-.9.28-3.06.64-6.26.64"/></svg>