<svg xmlns="http://www.w3.org/2000/svg" fill="#44739e" viewBox="0 0 24 24"><path d="M21.8652 7.6943c-1.572.407-4.154.407-5.728 0-1.551-.401-1.503-1.04.068-1.427 1.551-.382 4.034-.382 5.587 0 1.573.387 1.623 1.026.073 1.427m6.086 7.058-2.699-9.089-.033-.094c-.251-.571-1.476-1.113-3.667-1.404-1.664-.22-3.355-.221-5.019.001-2.188.29-3.41.832-3.658 1.403l-.049.147-2.774 9.032c-.041.128-.065.264-.045.397.223 1.474 2.896 2.663 7.779 2.832-.658 2.318-2.789 4.023-5.316 4.023-1.321 0-2.535-.468-3.488-1.244-.039-1.432-.183-2.823-.449-3.912-.258-1.052-.577-1.649-.907-1.803a.366.366 0 0 0-.172-.041h-1.906c-.059 0-.114.012-.172.041-.344.158-.674.803-.935 1.921-.588 2.523-.588 6.561 0 9.08.261 1.117.591 1.758.935 1.917.058.029.113.041.172.041h1.906c.058 0 .117-.012.172-.041.33-.155.649-.751.907-1.808.211-.863.344-1.921.412-3.032 1.053.56 2.252.881 3.525.881 3.632 0 6.672-2.585 7.376-6.012 5.123-.121 7.924-1.336 8.147-2.848.019-.13-.005-.262-.042-.388"/></svg>