<svg xmlns="http://www.w3.org/2000/svg" viewBox="0 0 24 24"><path fill="#44739e" d="M9.532 1 1.524 2.906l-.019 1.28a2.27 2.27 0 0 0-.365.125.277.277 0 0 0-.067.183L1.015 20.2a.257.257 0 0 0 .086.144 1.02 1.02 0 0 0 .318.067l.019 1.069L9.532 23l5.197-1.309V3.695Zm.856 1.847 3.433 1.704v.173l-2.291.482v.576l1.964-.346.019 14.485-1.944-.318.01.568 2.194.346v.193l-3.398.635Zm-2.104.01-.023 18.411-5.745-.895.019-.183 2.195-.366V5.052l-2.156-.803a.332.332 0 0 1 .269-.317c.269-.059 5.447-1.078 5.447-1.078m6.968 1.039-.046 17.712 4.07-1.02.027-14.581Zm3.225 2.868-1.781.376v.443l1.521-.271-.01 11.707-1.502-.25.01.433 1.704.27v.144l-2.637.49.028-14.792 2.667 1.319Zm1.309-.578-.029.01-.011 14.267.038.009 3.195-.799V7.842Zm2.546 2.263-1.395.289v.345l1.193-.211.01 9.557-1.176-.19.01.347 1.337.211v.111l-2.069.386V7.313l2.088 1.03v.11Z"/></svg>