<svg xmlns="http://www.w3.org/2000/svg" fill="#44739e" viewBox="0 0 24 24"><path d="M10.494 2.079 3.272 3.8l-.017 1.152a2.05 2.05 0 0 0-.33.113.25.25 0 0 0-.061.165L2.812 19.4a.243.243 0 0 0 .078.131.94.94 0 0 0 .287.06l.017.964 7.3 1.371 4.687-1.18V4.509Zm.773 1.666 3.1 1.537v.156l-2.067.434v.521l1.77-.313.018 13.064-1.754-.287.009.512 1.979.313v.173l-3.064.573zm-1.893.009-.026 16.605-5.182-.807.018-.165 1.979-.33V5.733l-1.945-.72a.3.3 0 0 1 .243-.287c.243-.052 4.913-.972 4.913-.972M17.846 5.9l-1.788.425v.938L17 7.078l-.017 11.7-.937-.147V19.7l1.8.339 3.342-.842V7.634Zm2.665 2.37-1.458.3v.365l1.247-.216.018 9.209-1.233-.2.009.347 1.4.217v.122l-2.161.4V7.078l2.187 1.085v.105z"/></svg>