<svg xmlns="http://www.w3.org/2000/svg" viewBox="0 0 24 24"><path fill="#44739e" d="m7.856 13.245-5.254 2.439a1.342 1.342 0 0 0-.147 1.821c.422.721 1.161 1.065 1.65.777l4.751-3.312a.947.947 0 0 0 .034-1.173.939.939 0 0 0-1.034-.552m8.307.001c-.33-.13-.77.11-1.036.556a.954.954 0 0 0 .028 1.166l4.747 3.32c.493.281 1.235-.061 1.658-.783s.34-1.539-.149-1.821Zm-4.155 2.352a.942.942 0 0 0-.996.612l-.513 5.758c0 .57.667 1.032 1.509 1.032s1.508-.462 1.508-1.032l-.508-5.758a.948.948 0 0 0-1-.612m3.119-5.394a.968.968 0 0 0 1.036.56l5.254-2.443c.488-.289.561-1.095.148-1.82s-1.165-1.067-1.658-.785L15.161 9.03a.97.97 0 0 0-.029 1.177ZM4.109 5.718c-.493-.288-1.232.055-1.65.781a1.341 1.341 0 0 0 .148 1.821l5.249 2.437a.939.939 0 0 0 1.034-.55.945.945 0 0 0-.034-1.172ZM12.008 1c-.842 0-1.509.466-1.509 1.037l.519 5.758a.942.942 0 0 0 .99.611.948.948 0 0 0 1-.611l.508-5.758C13.518 1.466 12.847 1 12.008 1"/></svg>