<svg xmlns="http://www.w3.org/2000/svg" fill="#44739e" viewBox="0 0 24 24"><path d="M11.013 13.355a1.58 1.58 0 0 0 .1.548 1.44 1.44 0 0 0 .229.41 1.26 1.26 0 0 0 .844.484 1.2 1.2 0 0 0 .148.008 1.257 1.257 0 0 0 .983-.5v.005a1.565 1.565 0 0 0 .312-.96 7.4 7.4 0 0 0-1.321-2.637 7.43 7.43 0 0 0-1.295 2.642m1.615.937a1.36 1.36 0 0 0 .372-.314.77.77 0 0 0 .148-.371 1.28 1.28 0 0 0-.038-.489 4.6 4.6 0 0 0-.248-.561l-.136-.272c-.08-.182.043-.313.176-.12a.5.5 0 0 1 .059.093c.034.066.037.073.091.18a3.9 3.9 0 0 1 .266.612 1.53 1.53 0 0 1 .043.594 1.33 1.33 0 0 1-.17.473 1.81 1.81 0 0 1-.474.407c-.161.076-.294-.111-.089-.232m6.449 5.714h.254v1.869h-.254zm-.658 0h.224v1.317h-.224zm.317 0h.224v.868h-.224ZM9.872 3.775h4.741v.54H9.872Zm9.577 16.227h.24v1.878h-.24zM9.367 3.552h5.751a.434.434 0 0 0 0-.868h-1.262a.2.2 0 0 1-.023-.01C13.757 2.232 12.955 2 12.161 2s-1.611.234-1.676.683H9.367a.434.434 0 1 0 0 .868zm2.794-1.171a2.07 2.07 0 0 1 .408.029 2.04 2.04 0 0 0-1.138.271h-.537a2.053 2.053 0 0 1 1.267-.3M18.43 19.8h1.591v-1.132a1.066 1.066 0 0 0-1.065-1.068h-1.127V8.118a3.55 3.55 0 0 0-.408-1.659V4.9h-1.608a3.56 3.56 0 0 0-1.567-.361h-4.01a3.56 3.56 0 0 0-1.567.361H7.064v1.56a3.564 3.564 0 0 0-.407 1.66v10.3a3.56 3.56 0 0 0 .407 1.658v1.912H10c.079 0 .159.009.239.009h4.011a2.1 2.1 0 0 0 .239-.009h2.932v-1.909a3.5 3.5 0 0 0 .323-.887h.686ZM7.281 5.116h1.006a3.6 3.6 0 0 0-1.006.984Zm0 16.659v-1.333a3.594 3.594 0 0 0 1.7 1.333zm8.1-6.587H9.256a1.635 1.635 0 0 1-1.636-1.635v-1.587a1.636 1.636 0 0 1 1.634-1.636h6.128a1.634 1.634 0 0 1 1.631 1.636v1.586a1.635 1.635 0 0 1-1.634 1.636zm1.819 6.587h-1.7a3.59 3.59 0 0 0 1.7-1.333zm0-15.675a3.62 3.62 0 0 0-1-.981h1zm.609 12.6c.007-.093.012-.188.012-.283v-.327h1.127a.578.578 0 0 1 .577.577v.648h-.615V18.7Zm2.011 1.302h.202v1.056h-.202Z"/></svg>