<svg xmlns="http://www.w3.org/2000/svg" viewBox="0 0 24 24"><path fill="#44739e" d="M9.441 13.491a1.74 1.74 0 0 0 .11.603 1.58 1.58 0 0 0 .252.451 1.386 1.386 0 0 0 .928.532 1.3 1.3 0 0 0 .163.009 1.383 1.383 0 0 0 1.081-.55v.005a1.722 1.722 0 0 0 .343-1.056 8.14 8.14 0 0 0-1.453-2.9 8.17 8.17 0 0 0-1.424 2.906m1.776 1.031a1.5 1.5 0 0 0 .41-.346.847.847 0 0 0 .162-.408 1.41 1.41 0 0 0-.041-.538 5.1 5.1 0 0 0-.273-.617l-.15-.299c-.088-.2.047-.344.194-.132a.55.55 0 0 1 .065.102c.037.073.04.08.1.198a4.3 4.3 0 0 1 .292.673 1.68 1.68 0 0 1 .048.654 1.46 1.46 0 0 1-.187.52 1.99 1.99 0 0 1-.522.448c-.177.083-.323-.122-.098-.255m7.094 6.285h.28v2.056h-.28Zm-.723 0h.246v1.449h-.246Zm.348 0h.247v.955h-.247ZM8.186 2.953h5.215v.594H8.186Zm10.535 17.85h.264v2.066h-.264ZM7.63 2.707h6.326a.477.477 0 0 0 0-.955h-1.388a.2.2 0 0 1-.025-.011C12.459 1.255 11.577 1 10.704 1s-1.773.257-1.844.751H7.63a.477.477 0 1 0 0 .955Zm3.074-1.288a2.3 2.3 0 0 1 .448.032 2.244 2.244 0 0 0-1.251.298H9.31a2.258 2.258 0 0 1 1.394-.33M17.6 20.581h1.75v-1.246a1.173 1.173 0 0 0-1.172-1.174h-1.239V7.73a3.905 3.905 0 0 0-.449-1.825V4.19h-1.769a3.916 3.916 0 0 0-1.724-.397H8.586a3.916 3.916 0 0 0-1.724.397H5.097v1.716a3.92 3.92 0 0 0-.448 1.826v11.331a3.916 3.916 0 0 0 .448 1.823v2.104h3.229c.087 0 .175.01.263.01h4.413a2.3 2.3 0 0 0 .262-.01h3.226v-2.1a3.85 3.85 0 0 0 .355-.976h.755ZM5.335 4.428h1.107A3.96 3.96 0 0 0 5.335 5.51Zm0 18.325v-1.466a3.954 3.954 0 0 0 1.871 1.466Zm8.911-7.246H7.508a1.799 1.799 0 0 1-1.8-1.798v-1.746a1.8 1.8 0 0 1 1.798-1.8h6.741a1.797 1.797 0 0 1 1.794 1.8v1.745a1.799 1.799 0 0 1-1.797 1.799Zm2.001 7.246h-1.87a3.95 3.95 0 0 0 1.87-1.466Zm0-17.243a3.98 3.98 0 0 0-1.1-1.079h1.1Zm.67 13.861c.007-.103.013-.207.013-.312V18.7h1.24a.636.636 0 0 1 .634.634v.713h-.676v-.676Zm2.212 1.432h.222v1.161h-.222Z"/></svg>