<svg xmlns="http://www.w3.org/2000/svg" viewBox="0 0 24 24"><path fill="#44739e" d="m20.607 10.324.497-.181v1.128l1.005-.361V9.408l-1.502.543Zm.902-1.521a1.499 1.499 0 1 0 1.491 1.5 1.495 1.495 0 0 0-1.491-1.5m0 2.779a1.279 1.279 0 1 1 1.271-1.279 1.276 1.276 0 0 1-1.271 1.279m-3.349 1.184v-.017a1.614 1.614 0 0 0 1.136-1.601c0-1.171-.839-1.775-2.325-1.775h-2.525v2.021h-.016c-.306-1.217-1.33-2.021-3.213-2.021H7.658l-.541 2.378c-.11.49-.21 1.111-.21 1.111h-.018s-.122-.69-.236-1.181l-.463-2.31H4.236l-.464 2.31c-.11.491-.235 1.181-.235 1.181h-.018s-.099-.621-.209-1.111l-.543-2.378H1l1.556 5.824h1.777l.88-3.734h.018l.88 3.734H7.86l1.294-4.84h.018v4.84h1.98c1.905 0 2.957-.874 3.266-2.123h.016v2.123h1.608V13.14h.138a.97.97 0 0 1 .895.396l.99 1.661h1.731l-.9-1.513a3 3 0 0 0-.736-.918m-6.863 1.111h-.489v-3.184h.446c1.067 0 1.548.472 1.548 1.557-.002 1.067-.483 1.627-1.507 1.627Zm5.639-1.968h-.88v-1.303h.826c.55 0 .779.22.779.66-.002.397-.237.643-.728.643Z"/></svg>