<svg xmlns="http://www.w3.org/2000/svg" fill="#44739e" viewBox="0 0 24 24"><path d="M9.548 10.5818a4.464 4.464 0 0 1 4.044 2.887l.11.292.307-.058a2.75 2.75 0 0 1 .528-.046 2.937 2.937 0 0 1 2.585 1.544l.23.423.191-.179.16-.15a5.169 5.169 0 1 0-8.5-5.186l-.043.15-.087.308zm5.773-3.341a4.429 4.429 0 0 1 2.188 7.186 3.675 3.675 0 0 0-2.973-1.512c-.127 0-.248.005-.364.015a5.2 5.2 0 0 0-4.108-3.052 4.445 4.445 0 0 1 5.257-2.637m4.747 1.406.642-.372a.462.462 0 0 0-.46-.8l-.643.371a.463.463 0 0 0 .461.8zm-2.857-2.387a.468.468 0 0 0 .636-.171l.371-.643a.463.463 0 0 0-.8-.464l-.372.642a.47.47 0 0 0 .165.636m3.499 8.493-.642-.371a.463.463 0 1 0-.461.8l.643.371a.462.462 0 0 0 .46-.8m.747-3.703h-.743a.464.464 0 1 0 0 .928h.743a.464.464 0 1 0 0-.928M7.643 8.2748l.643.372a.463.463 0 0 0 .461-.8l-.647-.374a.466.466 0 0 0-.632.171.461.461 0 0 0 .175.631m2.864-2.191a.463.463 0 1 0 .8-.461l-.371-.642a.462.462 0 1 0-.8.46zm3.67-.643a.464.464 0 0 0 .464-.464v-.743a.464.464 0 1 0-.928 0v.743a.464.464 0 0 0 .464.464m.04 8.637a2.939 2.939 0 0 1 2.912 2.554l.041.324h.33a1.5 1.5 0 0 1 .044 2.994H4.3a2.216 2.216 0 0 1-.038-4.431l.342-.006.022-.341a4.475 4.475 0 0 1 8.65-1.282l.11.293.308-.06a2.8 2.8 0 0 1 .523-.045"/></svg>