<svg xmlns="http://www.w3.org/2000/svg" viewBox="0 0 24 24"><path fill="#44739e" d="M14.635 1.868a4.3 4.3 0 0 0-.688.054c-.696.132-1.265.388-1.843.838l-.216.167-.145-.11a4.58 4.58 0 0 0-1.715-.792A4.46 4.46 0 0 0 8.6 1.99c-.755.134-1.373.475-1.989 1.098-.523.528-.842 1.078-1.001 1.721-.112.45-.119.569-.101 2.559l.014 1.823-.379.228c-.948.565-2.539 1.551-2.703 1.672a4.13 4.13 0 0 0-.726.737 3.99 3.99 0 0 0-.664 1.666c-.193 1.163.167 2.257 1.023 3.115.275.278.462.424.766.602.193.113.522.271.69.331.033.012.037.031.025.101a5.5 5.5 0 0 0-.027.393 3.997 3.997 0 0 0 .631 2.351c.165.258.591.708.834.88.48.342 1.071.582 1.705.695.246.044.336.049.679.038.418-.013.608-.047.946-.165.27-.094.424-.176 2.025-1.07l1.5-.838 1.115.66c1.721 1.018 1.815 1.073 2.054 1.192.377.187.764.299 1.164.339a3.75 3.75 0 0 0 1.61-.206c.333-.113.777-.337 1.034-.524.572-.421 1.056-1.121 1.279-1.849.143-.47.168-.635.171-1.283l.003-.594.2-.073a4.065 4.065 0 0 0 1.684-1.199c.422-.522.667-1.031.795-1.643.062-.297.056-.971-.011-1.321-.148-.773-.471-1.419-.96-1.929-.382-.398-.467-.456-1.98-1.33-1.007-.581-1.628-.949-1.663-.986-.013-.013-.009-.604.011-1.523.038-1.883.035-2.278-.013-2.561-.14-.807-.47-1.455-1.056-2.067-.583-.61-1.227-.972-1.996-1.121a3.7 3.7 0 0 0-.654-.041m-5.283 2.5c.35.011.704.143.947.396.247.259.33.517.359 1.121.009.188.011 1.153 0 2.144-.016 1.544-.015 1.83.013 1.997.122.737.764 1.177 1.485 1.019.473-.105.827-.503.91-1.019.025-.148.038-.656.054-2.191.019-1.862.022-2.011.064-2.213.086-.422.209-.692.424-.913.462-.477 1.388-.451 1.875.055.246.256.332.519.361 1.11.009.181.006 1.159-.005 2.171-.022 2.057-.024 2.035.126 2.362.141.308.274.418 1.067.876.968.559 2.467 1.44 2.653 1.56.453.291.699.523.803.751.116.256.132.601.039.907-.098.323-.416.709-.698.849-.143.07-.16.074-.413.073-.3 0-.61-.071-.908-.204a52 52 0 0 1-1.606-.902c-1.933-1.113-1.933-1.114-2.291-1.169-.22-.033-.431 0-.643.105a1.015 1.015 0 0 0-.448.415 1.133 1.133 0 0 0-.201.647 1.034 1.034 0 0 0 .306.764c.205.225.264.26 2.024 1.285 1.911 1.113 2.145 1.304 2.275 1.833.05.209.033.511-.041.702-.167.429-.416.682-.8.817-.191.066-.451.088-.638.054-.334-.063-.647-.233-3.442-1.881-.593-.349-.821-.432-1.188-.429-.371.002-.415.022-1.692.748-1.016.577-1.902 1.072-2.132 1.192-.324.168-.759.302-.983.302-.119 0-.321-.052-.466-.122-.268-.128-.555-.436-.684-.732a1.41 1.41 0 0 1-.042-.757c.092-.331.247-.524.649-.805.327-.231.605-.397 1.855-1.109 1.121-.638 1.448-.829 1.584-.926.162-.116.338-.33.424-.516a.79.79 0 0 0 .088-.388 1.074 1.074 0 0 0-.201-.71c-.264-.401-.649-.579-1.104-.511-.258.039-.409.103-.909.385a72 72 0 0 0-1.682.973c-.876.517-1.111.643-1.383.733-.68.224-1.077.177-1.411-.165-.28-.286-.433-.634-.433-.982 0-.311.084-.557.256-.753.201-.227.482-.416 1.564-1.052.411-.242 1.019-.605 1.352-.806l.751-.455c.362-.219.583-.527.68-.949.015-.072.03-.79.042-2.162.016-1.939.018-2.066.06-2.271.088-.425.212-.692.426-.913.231-.239.577-.352.928-.341"/></svg>