<svg xmlns="http://www.w3.org/2000/svg" viewBox="0 0 24 24"><path fill="#44739e" d="M21.593 14.814 19.291 3.559c0-.513-.512-2.559-7.419-2.559-7.163 0-7.418 2.559-7.418 2.559L2.407 15.07a1.99 1.99 0 0 0 .511 2.046 5.313 5.313 0 0 0 2.559 1.54 2.552 2.552 0 0 0 1.279 1.023S6.244 23 11.872 23s5.372-2.559 5.628-3.582l1.534-.77a8.4 8.4 0 0 0 2.047-1.54 2.455 2.455 0 0 0 .512-2.302m-1.279 1.791c-1.023 1.023-3.07 2.302-8.442 2.302-5.628 0-7.674-1.279-8.186-2.046a3.64 3.64 0 0 1-.511-1.54L5.477 3.559S5.73 1.77 11.616 1.77h.256c5.116 0 6.398 1.276 6.398 1.789l2.302 11.255a2.102 2.102 0 0 1-.256 1.791"/></svg>