<svg xmlns="http://www.w3.org/2000/svg" viewBox="0 0 24 24"><path fill="#44739e" d="M20.423 7.997a21.27 21.27 0 0 0-4.853-3.998 8.81 8.81 0 0 0-3.713-.857h-.571a7.61 7.61 0 0 0-3.426.857 22.7 22.7 0 0 0-4.855 3.998 8.226 8.226 0 0 0-1.998 5.71c.285 1.714 1.142 3.712 2.858 4.287 1.142.571 5.997.571 7.995.571h.286a65.9 65.9 0 0 0 7.996-.571c1.712-.571 2.569-2.858 2.858-4.287a11.49 11.49 0 0 0-2.57-5.71m-3.434 11.707a27.53 27.53 0 0 1-4.853 0c-3.141 0-5.997-.286-5.997-.286a.615.615 0 0 0-.571.572c.286.284.286.57.571.57s2.858.286 5.997.286a27.67 27.67 0 0 0 4.853-.286.615.615 0 0 0 .572-.57c0-.286-.286-.572-.572-.286"/></svg>