<svg xmlns="http://www.w3.org/2000/svg" fill="#44739e" viewBox="0 0 24 24"><path d="M20.087 8.542a19.83 19.83 0 0 0-4.522-3.724 5.85 5.85 0 0 0-3.457-1.064h-.532a5.112 5.112 0 0 0-3.192 1.064 12.165 12.165 0 0 0-4.522 3.724A7.668 7.668 0 0 0 2 13.862c.266 1.6 1.064 3.458 2.66 3.99a2.4 2.4 0 0 0 1.33.266l.532 1.6a.261.261 0 0 0 .266.266s2.66.266 5.585.266a25.8 25.8 0 0 0 4.527-.27.261.261 0 0 0 .266-.266l.8-1.6a2.4 2.4 0 0 0 1.33-.266c1.6-.532 2.394-2.66 2.66-3.99a6.31 6.31 0 0 0-1.862-5.32m-3.465 10.378a21.5 21.5 0 0 1-4.256.266 35.64 35.64 0 0 1-5.319-.266v-.8a32.3 32.3 0 0 0 4.788.266h.266a32.3 32.3 0 0 0 4.787-.266zm4.522-5.32c0 1.33-.8 2.926-1.862 3.192a32.68 32.68 0 0 1-7.181.532 33.9 33.9 0 0 1-7.448-.532c-.8-.266-1.6-1.862-1.862-3.192a7.223 7.223 0 0 1 1.6-4.522A17.37 17.37 0 0 1 8.65 5.616a5.36 5.36 0 0 1 2.926-.8h.532a5.36 5.36 0 0 1 2.925.8 13.53 13.53 0 0 1 4.256 3.458 6.23 6.23 0 0 1 1.862 4.526"/></svg>