<svg xmlns="http://www.w3.org/2000/svg" viewBox="0 0 24 24"><path fill="#44739e" d="M20.89 8.191a21.8 21.8 0 0 0-4.971-4.094 6.43 6.43 0 0 0-3.8-1.17h-.585a5.62 5.62 0 0 0-3.509 1.17 13.37 13.37 0 0 0-4.971 4.094 8.43 8.43 0 0 0-2.047 5.848c.292 1.759 1.169 3.802 2.924 4.387a2.64 2.64 0 0 0 1.462.292l.585 1.759a.287.287 0 0 0 .292.292s2.924.293 6.14.293a28.36 28.36 0 0 0 4.977-.297.287.287 0 0 0 .292-.292l.879-1.759a2.64 2.64 0 0 0 1.462-.293c1.759-.585 2.632-2.924 2.925-4.386a6.937 6.937 0 0 0-2.047-5.848m-3.809 11.408a23.64 23.64 0 0 1-4.679.293 39.2 39.2 0 0 1-5.847-.293v-.879a35.5 35.5 0 0 0 5.263.292h.293a35.5 35.5 0 0 0 5.262-.292Zm4.971-5.848c0 1.462-.88 3.217-2.047 3.509a35.93 35.93 0 0 1-7.894.585 37.27 37.27 0 0 1-8.188-.585c-.88-.292-1.759-2.047-2.047-3.509a7.94 7.94 0 0 1 1.759-4.971 19.1 19.1 0 0 1 4.674-3.802 5.89 5.89 0 0 1 3.217-.879h.585a5.89 5.89 0 0 1 3.215.879 14.87 14.87 0 0 1 4.679 3.802 6.85 6.85 0 0 1 2.047 4.975"/></svg>