<svg xmlns="http://www.w3.org/2000/svg" fill="#44739e" viewBox="0 0 24 24"><path d="M14.255 6.86 13 8.12a1.422 1.422 0 0 0 0 2.008l.749.749a1.754 1.754 0 0 1 .493 1.514l2.775-2.775a1.42 1.42 0 0 0 0-2.007l-.748-.749a1.423 1.423 0 0 0-2.014 0m.6 1.206-.952.952.361.362.861-.861.38.38-.861.86.5.5-.444.441-1.62-1.616 1.4-1.4zm1.912.562-.416.415-1.171-1.175.415-.416Zm-1.505-1.093a.3.3 0 0 1-.444.032.344.344 0 1 1 .444-.032M11.578 10.4a.306.306 0 0 0-.037.44.345.345 0 1 0 .037-.44m-.546 1.271c.192.267.43.592.605.8a9.7 9.7 0 0 0-.82-.58l-.328-.217-.411.411.217.328a9.5 9.5 0 0 0 .58.821c-.208-.176-.534-.414-.8-.606l-.314-.228-.462.462 2 1.232.409-.409-.277-.425c-.2-.3-.451-.654-.559-.781.127.108.479.362.781.559l.425.277.422-.415-1.232-2-.457.458zm.8708-.5252.4157-.4157 1.1752 1.1752-.4157.4158zm-8.2092 7.2037.4024-.4024.5628.5629-.4023.4023zm1.3944 1.394.4024-.4024.5628.5629-.4023.4023zM16.253 3.35l-9.486 9.487-1.608 1.608.348.348-3.135 3.135 3.7 3.7 3.135-3.135.349.348L20.65 7.747c.733-.733.93-1.723.442-2.211l-2.627-2.628c-.489-.488-1.479-.29-2.212.442M7.755 19.3l-1.77 1.77-1.447-1.447.884-.885-.415-.415.389-.389.415.416.5-.5zm-1.609-1.607-.335.335-.411-.416-.71.711.416.415-.724.724-1.453-1.448L4.7 16.245ZM17.251 7.37a1.761 1.761 0 0 1 0 2.486l-4.868 4.867a1.759 1.759 0 0 1-2.485 0l-.749-.749a1.76 1.76 0 0 1 0-2.486l4.867-4.867a1.761 1.761 0 0 1 2.486 0z"/></svg>