<svg xmlns="http://www.w3.org/2000/svg" fill="#44739e" viewBox="0 0 24 24"><path d="M19.07 3.98h-1.236a1 1 0 0 0-1 1V19.5a1 1 0 0 0 1 1h1.236a1 1 0 0 0 1-1V4.979a1 1 0 0 0-1-.999m-1 9.6a.228.228 0 0 1-.228.227h-.238a.227.227 0 0 1-.227-.227v-3.531a.227.227 0 0 1 .227-.227h.238a.228.228 0 0 1 .228.227zM13.254 2H5.993a2.068 2.068 0 0 0-2.062 2.063v15.874A2.068 2.068 0 0 0 5.993 22h7.261a2.069 2.069 0 0 0 2.063-2.063V4.063A2.069 2.069 0 0 0 13.254 2m1.007 11.58a.227.227 0 0 1-.227.227H13.8a.227.227 0 0 1-.227-.227v-3.531a.227.227 0 0 1 .227-.227h.239a.227.227 0 0 1 .227.227z"/></svg>