<svg xmlns="http://www.w3.org/2000/svg" fill="#44739e" viewBox="0 0 24 24"><path d="M2.0432 8 0 10.0432l1.7288 1.7293L0 13.5018l2.0432 2.0438 3.773-3.773Zm12.8777.4064-.4232.4226.358.358-.358.3574.4232.4226.78-.78Zm-7.6593.7947 1.4046 5.0868h1.0314l.952-3.6915.952 3.6915h1.0319l1.4029-5.0868h-1.0102l-.8067 3.2122s-.0873.3714-.1235.5527c-.0362-.1821-.124-.5603-.124-.5603l-.8285-3.2046h-.9884l-.8296 3.2046s-.0873.379-.1235.5603c-.0362-.1821-.1235-.5527-.1235-.5527l-.8067-3.2122Zm13.418 0v5.0863h.9154v-1.4171l.2753-.2693 1.076 1.6864H24l-1.49-2.3185 1.3154-1.2854h-1.1342l-1.0972 1.0901V9.2011Zm-2.0879 1.3806c-.5228 0-.952.2689-1.2207.6827v-.581h-.9155v3.6045h.9155v-1.8316c0-.603.3565-1.0172.8356-1.0172.5086 0 .7344.2984.7344.7708v2.0775h.915v-2.4561c0-.7484-.4939-1.2496-1.2643-1.2496m-3.9721.1018v3.6044h.915v-3.6044Z"/></svg>