<svg xmlns="http://www.w3.org/2000/svg" viewBox="0 0 24 24"><path fill="#44739e" d="M8.293 20.204v1.419c1.311 2.02 6.707 1.667 7.332-.083v-1.336c-.209.771-4.321 2.569-7.332 0m.018-.182a7.24 7.24 0 0 0 1.672.889 7.025 7.025 0 0 0 4.04.02 4.77 4.77 0 0 0 1.541-.867l-.065-.874c-1.036 1.928-5.756 1.731-7.079.031l-.026-.008ZM17.68 7.511c.037.3-.722 1.647-5.315 1.988l.017.813a11.61 11.61 0 0 1-4.991-.771l.302-.723c-1.268-.578-1.412-.916-1.478-1.253q-.075.257-.153.514v9.225a1.39 1.39 0 0 0 .32.703 3.688 3.688 0 0 0 2.013 1.201v-.023l.024.03c2.658.823 7.052.791 9.144-1.273a.874.874 0 0 0 .244-.623l.049-9.079a2.18 2.18 0 0 0-.176-.729m-9.803 4.208a.097.097 0 0 1-.116.015l-.445-.208.01.629c0 .12-.064.181-.145.139a.27.27 0 0 1-.11-.115.415.415 0 0 1-.047-.174l-.017-.622-.411-.193a.356.356 0 0 1-.153-.29.218.218 0 0 1 .033-.142.078.078 0 0 1 .1-.023l.418.185-.02-.681c0-.138.063-.224.152-.189a.245.245 0 0 1 .116.119.45.45 0 0 1 .05.199l.012.689.454.201a.359.359 0 0 1 .165.316.197.197 0 0 1-.046.145m1.884 5.141-.095-.057a.284.284 0 0 0 .049-.164.156.156 0 0 0-.109-.168c-.061-.015-.094.014-.128.104-.044.121-.109.166-.196.145a.298.298 0 0 1-.205-.299.33.33 0 0 1 .043-.164l.091.054a.24.24 0 0 0-.039.137.139.139 0 0 0 .095.144c.057.015.083-.022.116-.109.046-.116.109-.165.211-.141a.312.312 0 0 1 .218.328.35.35 0 0 1-.051.19m.04.319-.709-.187v-.132l.708.182Zm-.354-.991a.446.446 0 0 1-.372-.413c0-.228.192-.249.318-.224.026 0 .046.013.059.016l.005.499c.173.035.243-.062.241-.193a.51.51 0 0 0-.04-.205h.092a.66.66 0 0 1 .048.247.257.257 0 0 1-.351.273m-.372-1.193.115.021a.16.16 0 0 0 0 .041.218.218 0 0 0 .158.198c.018.005.037.012.058.016l.371.07v.127l-.477-.092a3.3 3.3 0 0 0-.211-.035v-.109l.132.019a.259.259 0 0 1-.147-.218.16.16 0 0 1-.003-.038Zm-.174 1.801a.102.102 0 0 1 .076.102.057.057 0 0 1-.076.06.109.109 0 0 1-.076-.102.056.056 0 0 1 .076-.06m-.075 1.482v-.143l.494.029c.124.006.251.017.349.028-.102-.049-.218-.119-.351-.194l-.492-.288v-.142l.49.015c.118 0 .236.01.342.024-.109-.054-.218-.115-.346-.181l-.486-.27v-.134l.983.563v.144l-.523-.017a2.4 2.4 0 0 1-.318-.025c.096.047.191.098.319.175l.53.312v.148Zm4.725-6.191a.167.167 0 0 1-.167.167h-1.605a.168.168 0 0 1-.167-.167v-.276a.167.167 0 0 1 .167-.166h1.6a.167.167 0 0 1 .118.049.162.162 0 0 1 .049.117Zm-4.393 3.716a.278.278 0 0 0 .204.241v-.375c-.083-.019-.204-.009-.204.134m8.522-8.292a1.64 1.64 0 0 0 .155-.266V2.986c-.321 1.274-2.747 2.024-5.852 1.98-3.057-.043-5.17-.514-5.897-1.975v4.351c1.277 1.908 5.218 1.91 5.849 1.91.496 0 4.581-.101 5.743-1.738v-.023Zm-.166-4.657a5.531 1.854 0 0 1-5.531 1.854 5.531 1.854 0 0 1-5.531-1.854A5.531 1.854 0 0 1 11.983 1a5.531 1.854 0 0 1 5.531 1.854m1.042 15.171c1.619-1.275 1.703.009 3.694-1.429-.12-.341-.063-.182-.197-.553-2.029 1.343-2.225.058-3.731 1.325.117.33.096.271.234.657m.132-2.723c1.619-1.275 1.703.01 3.694-1.43-.12-.34-.064-.181-.197-.552-2.028 1.343-2.225.058-3.731 1.324Zm0-2.61c1.619-1.274 1.703.01 3.694-1.428-.12-.342-.064-.182-.197-.554-2.028 1.343-2.225.059-3.731 1.324.117.331.096.272.234.658m0-2.465c1.619-1.274 1.703.01 3.694-1.428-.12-.341-.064-.181-.197-.553-2.028 1.344-2.225.058-3.731 1.325.117.33.096.271.234.656m0-2.538c1.619-1.274 1.703.01 3.694-1.428-.12-.342-.064-.181-.197-.553-2.028 1.343-2.225.059-3.731 1.324.117.331.096.271.234.657m0-2.679c1.619-1.275 1.703.01 3.694-1.429-.12-.34-.064-.181-.197-.552-2.028 1.343-2.225.058-3.731 1.324.117.329.096.268.234.657M5.444 18.322c-1.62-1.274-1.703.01-3.694-1.429.12-.341.063-.182.196-.553 2.028 1.343 2.225.058 3.732 1.325-.118.33-.097.271-.234.657m-.132-2.72c-1.62-1.274-1.703.01-3.694-1.429.12-.341.063-.182.195-.553 2.029 1.343 2.226.058 3.733 1.325-.118.329-.097.268-.234.657m0-2.613c-1.62-1.274-1.703.01-3.694-1.428.12-.342.063-.182.195-.553 2.029 1.342 2.226.058 3.733 1.325-.118.329-.097.27-.234.656m0-2.464c-1.62-1.274-1.703.01-3.694-1.429.12-.341.063-.181.195-.553 2.029 1.344 2.226.058 3.733 1.325-.118.33-.097.274-.234.657m0-2.538c-1.62-1.275-1.703.009-3.694-1.429.12-.342.063-.181.195-.552 2.029 1.342 2.226.058 3.733 1.324-.118.33-.097.271-.234.657m0-2.682c-1.62-1.278-1.703.009-3.694-1.43.12-.341.063-.181.197-.552 2.027 1.343 2.224.058 3.731 1.324-.118.33-.097.271-.234.658"/></svg>