<svg xmlns="http://www.w3.org/2000/svg" fill="#44739e" viewBox="0 0 24 24"><path d="M8.643 19.514v1.3c1.2 1.85 6.142 1.526 6.714-.076v-1.224c-.191.706-3.957 2.353-6.714 0m.016-.166a6.63 6.63 0 0 0 1.531.814 6.433 6.433 0 0 0 3.7.018 4.37 4.37 0 0 0 1.411-.794l-.059-.8c-.949 1.765-5.271 1.585-6.483.028l-.024-.007Zm8.58-11.457c.034.274-.661 1.508-4.867 1.82l.015.745a10.63 10.63 0 0 1-4.57-.706l.276-.663C6.932 8.558 6.8 8.249 6.74 7.94q-.069.235-.14.471v8.448a1.274 1.274 0 0 0 .293.643 3.377 3.377 0 0 0 1.843 1.1v-.021l.022.028c2.434.753 6.458.724 8.374-1.166a.8.8 0 0 0 .223-.571l.045-8.314a2 2 0 0 0-.161-.667m-8.977 3.853a.089.089 0 0 1-.106.014l-.408-.191.009.576c0 .11-.058.166-.133.128a.245.245 0 0 1-.1-.106.38.38 0 0 1-.043-.159l-.016-.57-.376-.176a.326.326 0 0 1-.14-.266.2.2 0 0 1 .03-.13.071.071 0 0 1 .091-.021l.383.169-.018-.623c0-.127.058-.205.139-.173a.224.224 0 0 1 .106.109.41.41 0 0 1 .046.182l.011.631.416.184a.329.329 0 0 1 .151.289.18.18 0 0 1-.042.133m1.725 4.708L9.9 16.4a.26.26 0 0 0 .045-.15.143.143 0 0 0-.1-.154c-.056-.014-.086.013-.117.095-.04.111-.1.152-.18.133a.273.273 0 0 1-.187-.274.3.3 0 0 1 .039-.15l.083.049a.22.22 0 0 0-.035.126.127.127 0 0 0 .087.132c.052.013.076-.021.106-.1.042-.106.1-.151.193-.129a.286.286 0 0 1 .2.3.32.32 0 0 1-.047.174m.037.292-.65-.171v-.121l.649.167zm-.324-.907a.408.408 0 0 1-.341-.379c0-.208.176-.228.291-.205.024 0 .042.012.054.015l.005.457c.158.032.222-.057.22-.177a.47.47 0 0 0-.036-.188h.084a.6.6 0 0 1 .044.227.235.235 0 0 1-.321.25m-.341-1.093.105.019a.15.15 0 0 0 0 .038.2.2 0 0 0 .145.181c.016.005.034.011.053.015l.34.064v.116l-.437-.084a3 3 0 0 0-.193-.032v-.1l.121.018a.237.237 0 0 1-.135-.2.15.15 0 0 1-.003-.035ZM9.2 16.393a.093.093 0 0 1 .069.094.052.052 0 0 1-.069.055.1.1 0 0 1-.07-.094.051.051 0 0 1 .07-.055m-.069 1.358v-.131l.452.026c.114.006.23.016.32.026-.094-.045-.2-.109-.322-.178l-.45-.264v-.13l.449.014c.108 0 .216.009.313.022-.1-.049-.2-.105-.317-.166l-.445-.247V16.6l.9.516v.132l-.479-.016a2.2 2.2 0 0 1-.291-.023c.088.043.175.09.292.161l.485.285v.136zm4.327-5.67a.153.153 0 0 1-.153.153h-1.47a.154.154 0 0 1-.153-.153v-.253a.153.153 0 0 1 .153-.152H13.3a.153.153 0 0 1 .108.045.148.148 0 0 1 .045.107zm-4.023 3.403a.255.255 0 0 0 .187.221v-.344c-.076-.017-.187-.008-.187.123m7.804-7.593a1.5 1.5 0 0 0 .142-.244v-3.9c-.294 1.166-2.516 1.853-5.359 1.813-2.8-.039-4.735-.471-5.4-1.809v3.985c1.169 1.747 4.778 1.749 5.356 1.749.454 0 4.195-.093 5.259-1.592v-.021Zm-.152-4.265a5.065 1.698 0 0 1-5.065 1.698 5.065 1.698 0 0 1-5.065-1.698 5.065 1.698 0 0 1 5.065-1.698 5.065 1.698 0 0 1 5.065 1.698m.954 13.893c1.483-1.168 1.56.008 3.383-1.309-.11-.312-.058-.166-.18-.506-1.858 1.23-2.038.053-3.417 1.213.107.302.088.248.214.602m.121-2.494c1.483-1.167 1.56.009 3.383-1.309-.11-.312-.059-.166-.18-.506-1.858 1.23-2.038.053-3.417 1.213zm0-2.39c1.483-1.167 1.56.009 3.383-1.308-.11-.313-.059-.166-.18-.507-1.858 1.23-2.038.054-3.417 1.213.107.303.088.249.214.602m0-2.257c1.483-1.167 1.56.009 3.383-1.308-.11-.312-.059-.166-.18-.506-1.858 1.23-2.038.053-3.417 1.213.107.302.088.248.214.601m0-2.324c1.483-1.167 1.56.009 3.383-1.308-.11-.313-.059-.166-.18-.507-1.858 1.23-2.038.054-3.417 1.213.107.303.088.248.214.602m0-2.454c1.483-1.167 1.56.009 3.383-1.308-.11-.312-.059-.166-.18-.506-1.858 1.23-2.038.053-3.417 1.213.107.301.088.245.214.601M6.034 17.791c-1.484-1.167-1.56.009-3.383-1.309.11-.312.058-.166.179-.506 1.858 1.23 2.038.053 3.418 1.213-.108.302-.089.248-.214.602M5.913 15.3c-1.484-1.167-1.56.009-3.383-1.309.11-.312.058-.166.179-.506 1.858 1.23 2.038.053 3.418 1.213-.108.302-.089.246-.214.602m0-2.393c-1.484-1.167-1.56.009-3.383-1.308.11-.313.058-.166.179-.506 1.858 1.229 2.038.053 3.418 1.213-.108.302-.089.248-.214.601m0-2.256c-1.484-1.167-1.56.009-3.383-1.309.11-.312.058-.166.179-.506 1.858 1.23 2.038.053 3.418 1.213-.108.302-.089.251-.214.602m0-2.325c-1.484-1.167-1.56.009-3.383-1.308.11-.313.058-.166.179-.506 1.858 1.229 2.038.053 3.418 1.213-.108.302-.089.248-.214.601m0-2.456c-1.484-1.17-1.56.009-3.383-1.309.11-.312.058-.166.18-.506 1.857 1.23 2.037.053 3.417 1.213-.108.302-.089.248-.214.602"/></svg>