<svg xmlns="http://www.w3.org/2000/svg" viewBox="0 0 24 24"><path fill="#44739e" d="m22.462 19.481-.29-16.217a1.917 1.917 0 0 0-1.446-1.636S5.097 1.01 4.933 1a3.02 3.02 0 0 0-.983.192c-.029.012-.479.2-.464.272l16.835.669a1.704 1.704 0 0 1 1.335 1.652l.11 17.488c.083.022.266-.29.425-.603a2.52 2.52 0 0 0 .271-1.189M19.325 2.394 3.569 1.852a1.964 1.964 0 0 0-2.031 1.999l.312 15.786a1.964 1.964 0 0 0 1.784 1.918l15.61 1.437a1.965 1.965 0 0 0 2.144-1.975l-.167-16.68a1.962 1.962 0 0 0-1.896-1.943m-9.327.824.008.22h.009a.345.345 0 0 1 .331-.229.26.26 0 0 1 .063.008v.188a.36.36 0 0 0-.075-.009.285.285 0 0 0-.297.246.47.47 0 0 0-.009.092v.584l-.221-.008v-.756c0-.129 0-.24-.01-.342Zm-.954-.054a.497.497 0 0 1 .498.53.8.8 0 0 1-.007.092l-.847-.028a.385.385 0 0 0 .413.393.85.85 0 0 0 .331-.046l.037.144a1.03 1.03 0 0 1-.401.054.551.551 0 0 1-.591-.57.531.531 0 0 1 .567-.569m-1.189.589c-.214-.077-.315-.188-.315-.318 0-.174.155-.313.412-.305a.66.66 0 0 1 .294.077l-.055.142a.52.52 0 0 0-.245-.072c-.128 0-.199.062-.199.142s.071.133.227.192c.207.078.314.176.314.338 0 .191-.163.321-.447.31a.75.75 0 0 1-.331-.085l.054-.149a.62.62 0 0 0 .285.088c.159 0 .233-.064.233-.153s-.065-.149-.227-.207m-.732-1.052a.128.128 0 0 1 .133.128.119.119 0 0 1-.138.117.129.129 0 0 1-.13-.126.121.121 0 0 1 .135-.119m.11.431v1.084l-.221-.008V3.125ZM5.081 2.64l.193.763c.048.187.091.375.121.521a5.3 5.3 0 0 1 .137-.513l.221-.749.22.006.199.771c.046.18.09.359.11.519h.006c.034-.164.08-.33.131-.515l.22-.753.22.007-.47 1.484-.22-.007-.207-.785a4 4 0 0 1-.11-.493 4.2 4.2 0 0 1-.126.485l-.232.771-.22-.008-.416-1.504Zm3.193 15.282a.33.33 0 0 1-.356.312l-1.345-.088a.336.336 0 0 1 .044-.669l1.345.088a.33.33 0 0 1 .308.361Zm3.084 1.448a1.237 1.237 0 0 1-1.167-1.269 1.101 1.101 0 0 1 .386-.867.973.973 0 0 1 .816-.194 1.269 1.269 0 0 1 .963 1.247 1.032 1.032 0 0 1-.998 1.092Zm4.942-.771a.337.337 0 0 1-.33.314h-.024l-.374-.024v.379a.278.278 0 0 1-.277.278.28.28 0 0 1-.196-.082.28.28 0 0 1-.081-.196v-.414l-.417-.027a.336.336 0 0 1 .022-.671h.022l.373.024v-.377a.278.278 0 0 1 .551 0v.414l.417.027a.33.33 0 0 1 .314.356Zm.465-3.421-3.864-.279-7.725-.559-.133-9.602 12.444.627.137 9.876ZM9.027 3.3a.33.33 0 0 0-.331.312l.64.021a.303.303 0 0 0-.309-.333m2.293 14.096a.73.73 0 0 0-.135-.013.6.6 0 0 0-.385.137.749.749 0 0 0-.256.591.891.891 0 0 0 .813.914.683.683 0 0 0 .643-.728.921.921 0 0 0-.68-.901"/></svg>