<svg xmlns="http://www.w3.org/2000/svg" viewBox="0 0 24 24"><path fill="#44739e" d="M11.684 12.629q0 .799.007 1.598h.618c0-.475.007-1.004.007-1.598A44.3 44.3 0 0 0 12 5.51a44.3 44.3 0 0 0-.316 7.119M12 1a11 11 0 1 0 11 11A11 11 0 0 0 12 1M8.457 17.901a1.122 1.122 0 0 1-1.144-1.494 1.4 1.4 0 0 0 1.155.228 1.478 1.478 0 0 0 .983-1.072h.797c-.217 1.607-.981 2.338-1.791 2.338M12 20.28a8.01 8.01 0 0 1-2.22-1.741 5.445 5.445 0 0 0 1.131-2.976h.802a18.23 18.23 0 0 0 .287 3.19 18.3 18.3 0 0 0 .287-3.19h.802a5.45 5.45 0 0 0 1.13 2.976A7.99 7.99 0 0 1 12 20.28m3.543-2.38c-.81 0-1.574-.731-1.79-2.337h.798a1.48 1.48 0 0 0 .982 1.072 1.401 1.401 0 0 0 1.156-.228 1.122 1.122 0 0 1-1.146 1.493m2.043-3.204a1.483 1.483 0 0 0-.923-2.256 1.946 1.946 0 0 0-2.159 1.788h.831a.638.638 0 0 1 0 .785H8.668a.631.631 0 0 1 0-.784h.831a1.945 1.945 0 0 0-2.16-1.789 1.482 1.482 0 0 0-.925 2.255 2.712 2.712 0 0 1 .302-5.408c2.095 0 3.463 2.253 3.58 4.939h.66c-.112-3.097-1.773-4.304-1.773-6.36 0-2.224 2.287-4.228 2.817-4.755.529.527 2.816 2.53 2.816 4.755 0 2.056-1.66 3.263-1.769 6.362h.66c.118-2.687 1.486-4.939 3.581-4.939A2.723 2.723 0 0 1 20.016 12a2.72 2.72 0 0 1-2.43 2.696"/></svg>