<svg xmlns="http://www.w3.org/2000/svg" viewBox="0 0 24 24"><path fill="#44739e" d="M12 1a11 11 0 1 0 11 11A11 11 0 0 0 12 1M8.644 21.864c-.087.044-.295-.344-.198-.426v.01a8 8 0 0 1 .972-.363 1.56 1.56 0 0 0 .154.44 7.8 7.8 0 0 0-.928.339m-1.1-7.7h-.021A2.186 2.186 0 0 1 5.574 12a2.241 2.241 0 0 1 2.19-2.176c1.21 0 2.781 1.809 2.872 3.96h.528c-.088-2.485-1.417-3.452-1.417-5.101s1.833-3.389 2.263-3.814c.426.42 2.263 2.026 2.263 3.814s-1.33 2.616-1.417 5.101h.527c.092-2.156 1.189-3.96 2.872-3.96A1.935 1.935 0 0 1 18.445 12a2.124 2.124 0 0 1-1.948 2.162 1.19 1.19 0 0 0-.745-1.809 1.56 1.56 0 0 0-1.731 1.437h.667a.54.54 0 0 1 .11.314.51.51 0 0 1-.11.314H9.346a.54.54 0 0 1-.11-.314.506.506 0 0 1 .11-.314h.666a1.564 1.564 0 0 0-1.73-1.433 1.185 1.185 0 0 0-.74 1.809Zm5.478 5.265a1.333 1.333 0 0 1 .968.421 2.72 2.72 0 0 1-.682.044 1.3 1.3 0 0 0-.967.27 3.04 3.04 0 0 1-1.596.464c-.145 0-.256-.01-.348-.01a.609.609 0 0 1 .57-.464 2.06 2.06 0 0 0 .89-.256c.641-.341.781-.466 1.163-.466Zm-2.8-2.185a4.29 4.29 0 0 0 .91-2.388h.643A14.8 14.8 0 0 0 12 17.415a15.3 15.3 0 0 0 .228-2.557h.642a4.367 4.367 0 0 0 .91 2.388A6.38 6.38 0 0 1 12 18.644a6.38 6.38 0 0 1-1.78-1.398Zm3.19-2.384h.638a1.19 1.19 0 0 0 .789.861 1.123 1.123 0 0 0 .929-.183.9.9 0 0 1-.919 1.199h-.011c-.648.002-1.257-.583-1.431-1.877Zm-5.163.678a1.122 1.122 0 0 0 .925.181 1.191 1.191 0 0 0 .788-.861h.638c-.174 1.291-.783 1.876-1.43 1.876a.942.942 0 0 1-.92-1.196Zm2.741 6.556a1.332 1.332 0 0 1 0-2.665 1.63 1.63 0 0 1 .749.242 1.84 1.84 0 0 1-.77.227.864.864 0 0 0 0 1.727 1.86 1.86 0 0 1 .77.227c-.227.128-.024.244-.754.244Zm2.031 0c-.358 0-.523-.126-1.165-.469a2.06 2.06 0 0 0-.89-.256.611.611 0 0 1-.571-.465c.093-.009-.212-.009.349-.009a3 3 0 0 1 1.595.468 1.32 1.32 0 0 0 .967.271 4.14 4.14 0 0 1 .682.044 1.36 1.36 0 0 1-.973.418Zm2.321-.252a6.6 6.6 0 0 0-.846-.314 3.4 3.4 0 0 0-1.185-.165 1.31 1.31 0 0 1-.46-.033c-.159-.054-.507-.29-.73-.387.22-.024.644-.034 1.045-.034a5.4 5.4 0 0 1 1.475.179 8.3 8.3 0 0 1 .889.33c.125.059-.102.474-.194.426Zm2.906-3.597a8.72 8.72 0 0 1-3.612 2.2 5.63 5.63 0 0 1-1.474.178 9 9 0 0 1-1.045-.033c.22-.097.571-.33.73-.387.11-.044-.242-.034.459-.034a3.43 3.43 0 0 0 1.184-.164 8.514 8.514 0 0 0 3.434-2.079 8.36 8.36 0 1 0-8.351 2.09 1.7 1.7 0 0 0-.155.44 8.836 8.836 0 1 1 8.827-14.701 8.839 8.839 0 0 1 0 12.492ZM7.755 11.314l.305-.6-.6.305-.474-.474.106.662-.604.305.668.101.105.663.305-.599.668.105Zm8.689.357.304.6.106-.663.668-.101-.605-.305.107-.662-.474.473-.6-.304.305.599-.479.47Zm-4.696 2.118h.498v-1.281a35.3 35.3 0 0 0-.256-5.706 35.4 35.4 0 0 0-.256 5.706h.014Z"/></svg>