<svg xmlns="http://www.w3.org/2000/svg" fill="#44739e" viewBox="0 0 24 24"><path d="M11.774 12.572q0 .726.006 1.453h.562c0-.432.006-.913.006-1.453a40.3 40.3 0 0 0-.287-6.472 40.3 40.3 0 0 0-.287 6.472M12.061 2a10 10 0 1 0 10 10 10 10 0 0 0-10-10M8.84 17.365a1.02 1.02 0 0 1-1.04-1.359 1.273 1.273 0 0 0 1.05.208 1.344 1.344 0 0 0 .894-.975h.724c-.197 1.461-.892 2.126-1.628 2.126m3.221 2.162a7.28 7.28 0 0 1-2.018-1.582 4.95 4.95 0 0 0 1.028-2.706h.729a16.57 16.57 0 0 0 .261 2.9 16.65 16.65 0 0 0 .261-2.9h.729a4.955 4.955 0 0 0 1.027 2.706 7.26 7.26 0 0 1-2.017 1.582m3.221-2.163c-.736 0-1.431-.665-1.627-2.125h.725a1.345 1.345 0 0 0 .893.975 1.274 1.274 0 0 0 1.051-.208 1.02 1.02 0 0 1-1.042 1.358m1.857-2.913A1.348 1.348 0 0 0 16.3 12.4a1.769 1.769 0 0 0-1.963 1.625h.756a.58.58 0 0 1 0 .714H9.032a.574.574 0 0 1 0-.713h.755A1.768 1.768 0 0 0 7.824 12.4a1.347 1.347 0 0 0-.841 2.05 2.465 2.465 0 0 1 .274-4.916c1.905 0 3.149 2.048 3.255 4.49h.6C11.01 11.208 9.5 10.111 9.5 8.242c0-2.022 2.079-3.844 2.561-4.323.481.479 2.56 2.3 2.56 4.323 0 1.869-1.509 2.966-1.608 5.783h.6c.107-2.442 1.351-4.49 3.255-4.49A2.475 2.475 0 0 1 19.348 12a2.473 2.473 0 0 1-2.209 2.451"/></svg>