<svg xmlns="http://www.w3.org/2000/svg" viewBox="0 0 24 24"><path fill="#44739e" d="M14.645 15.538a1.106 1.106 0 0 0-.73-.099 1.208 1.208 0 0 0-.756.539 1.283 1.283 0 0 0-.119.868 1.161 1.161 0 0 0 .769.815 1.77 1.77 0 0 0 .659 0 1.122 1.122 0 0 0 .746-.705 1.406 1.406 0 0 0 0-.797 1.107 1.107 0 0 0-.569-.621m-6.676.021a1.2 1.2 0 0 0-.264-.11 1.62 1.62 0 0 0-.526-.019 1.162 1.162 0 0 0-.139 2.229 1.4 1.4 0 0 0 .287.039 1.075 1.075 0 0 0 1.015-.481 1.173 1.173 0 0 0-.373-1.658M22.96 2.114a1.403 1.403 0 0 0-.928-1.047l-.146-.052h-9.817c-5.399 0-9.861 0-9.919.015a1.386 1.386 0 0 0-1.11 1.084c-.053.266-.053 19.502 0 19.772a1.405 1.405 0 0 0 .939 1.047l.16.052h19.747l.148-.053a1.402 1.402 0 0 0 .926-1.046c.053-.267.053-19.503 0-19.772M8.912 17.373a1.74 1.74 0 0 1-.692.705 1.58 1.58 0 0 1-.934.177 1.35 1.35 0 0 1-.856-.414l-.179-.182v1.811h-.573v-2.263l.007-2.261.282-.007.279-.007v.54l.146-.15a1.57 1.57 0 0 1 .249-.22 1.505 1.505 0 0 1 .56-.22 3.4 3.4 0 0 1 .698.033c.044.016.175.073.287.128a1.613 1.613 0 0 1 .756.769 1.476 1.476 0 0 1 .16.751 1.51 1.51 0 0 1-.19.81m1.153.812h-.287v-3.254l.282.007.279.007.007 1.619.005 1.621Zm.228-3.902a.297.297 0 0 1-.231.067.33.33 0 0 1-.329-.175.26.26 0 0 1-.046-.211.358.358 0 0 1 .179-.309.419.419 0 0 1 .365-.016.413.413 0 0 1 .203.305.361.361 0 0 1-.141.339m1.477 1.544v2.358h-.572v-4.717h.572Zm4.071.826a1.59 1.59 0 0 1-.174.673 1.678 1.678 0 0 1-1.339.929 1.72 1.72 0 0 1-1.357-.452 1.626 1.626 0 0 1-.471-.779 2.02 2.02 0 0 1 0-.945 1.672 1.672 0 0 1 .824-1.015 1.63 1.63 0 0 1 .481-.176 3.2 3.2 0 0 1 .779.025 1.785 1.785 0 0 1 .859.549 1.66 1.66 0 0 1 .402 1.191Zm2.316 1.538a1.65 1.65 0 0 1-.95-.126.707.707 0 0 1-.33-.465c-.02-.076-.036-.829-.043-2.104a1.54 1.54 0 0 0-.309-.015h-.309v-.549h.617v-.353a1.15 1.15 0 0 1 .025-.371c.026-.013.488-.16.532-.167a3.2 3.2 0 0 1 .016.439v.446h.871v.55h-.429l-.43.006-.008.893a9.6 9.6 0 0 0 .019 1.013c.048.22.181.284.584.28h.252l.006.253.008.251ZM18.7 7.613a1.796 1.796 0 0 1-.854 1.647 2.21 2.21 0 0 1-.933.239c-.126.014-.295.037-.373.048a.367.367 0 0 1-.46-.22.6.6 0 0 1-.06-.354.58.58 0 0 1 .073-.378.49.49 0 0 1 .54-.31 3.35 3.35 0 0 0 .659-.07c.197-.078.338-.459.312-.846-.021-.33-.162-.561-.369-.616a7.4 7.4 0 0 0-.769-.03l-.659.004-.014.092c-.013.086-.082.728-.129 1.208-.054.549-.068.685-.091.893-.011.124-.034.329-.046.447a3.42 3.42 0 0 1-.256 1.301 1.548 1.548 0 0 1-1.044.804 2.58 2.58 0 0 1-.764.007 1.318 1.318 0 0 1-.678-.508c-.15-.23-.183-.348-.602-2.239-.064-.283-.162-.722-.219-.973s-.124-.557-.152-.676c-.069-.32-.093-.394-.139-.422s-.131.055-.131.177c0 .051-.011.182-.023.289-.021.169-.087.841-.264 2.624a4.38 4.38 0 0 1-.226 1.414 1.995 1.995 0 0 1-1.152 1.074 4.4 4.4 0 0 1-.674.159 3.12 3.12 0 0 1-.971-.044 1.91 1.91 0 0 1-.761-.401 2.186 2.186 0 0 1-.591-1.079c-.045-.152-.125-.41-.176-.572s-.11-.361-.13-.44-.097-.314-.161-.527-.148-.488-.185-.607c-.062-.208-.22-.722-.415-1.362-.05-.166-.103-.33-.115-.367s-.036-.122-.057-.184c-.045-.146-.194-.631-.298-.973-.158-.525-.091-.8.255-1.065a1.13 1.13 0 0 1 .389-.193 1.82 1.82 0 0 1 .816 0A1.527 1.527 0 0 1 8 5.936c.191.731.25.957.3 1.141.057.206.644 2.554.72 2.885.025.11.061.274.084.367.083.383.081.378.175.385.064 0 .085 0 .093-.034.017-.051.07-.566.145-1.393.018-.22.043-.492.058-.619.029-.323.127-1.428.158-1.786a2.625 2.625 0 0 1 .3-1.203 1.439 1.439 0 0 1 1.369-.687 1.82 1.82 0 0 1 .879.206 1.5 1.5 0 0 1 .57.456 2.53 2.53 0 0 1 .33.644c.044.137.22.988.362 1.718a19.2 19.2 0 0 0 .446 2.094c.09.054.097.013.179-1.121.03-.414.081-1.024.11-1.397.023-.231.042-.414.15-1.463.052-.519.135-.699.359-.809a.77.77 0 0 1 .555-.078l.586.047c1.428.11 1.569.139 1.924.349a2.097 2.097 0 0 1 .849 1.977Z"/></svg>