<svg xmlns="http://www.w3.org/2000/svg" viewBox="0 0 24 24"><path fill="#44739e" d="M12.88 17.901a1.5 1.5 0 0 0-.302.026v1.087a1.26 1.26 0 0 0 .245.017c.44 0 .692-.22.692-.586s-.248-.544-.635-.544M16.95 1h-9.9A6.05 6.05 0 0 0 1 7.05v9.9A6.05 6.05 0 0 0 7.05 23h9.9A6.05 6.05 0 0 0 23 16.95v-9.9A6.05 6.05 0 0 0 16.95 1m-6.358 19.77h-.744l-.312-1.417a10.1 10.1 0 0 1-.185-1.065h-.006c-.062.378-.128.714-.22 1.065l-.356 1.417h-.737l-.801-3.343h.744l.285 1.444c.076.4.147.813.199 1.169h.014c.053-.374.142-.761.238-1.178l.33-1.43h.692l.308 1.452c.08.391.152.761.199 1.151h.014c.056-.394.128-.77.204-1.173l.298-1.43h.706Zm-.729-7.049a2.142 2.142 0 1 1 2.141 2.142 2.144 2.144 0 0 1-2.138-2.142Zm2.97 5.815a1.43 1.43 0 0 1-.256-.017v1.251h-.698v-3.3a5.7 5.7 0 0 1 .943-.069 1.66 1.66 0 0 1 1.038.265.934.934 0 0 1 .35.748c0 .917-.834 1.122-1.378 1.122Zm-3.35-8.339-1.01-1.01a5.004 5.004 0 0 1 7.068 0l-1.01 1.01a3.574 3.574 0 0 0-5.048 0m5.973 9.617a2.09 2.09 0 0 1-.895-.187l.137-.539a1.75 1.75 0 0 0 .787.187c.388 0 .592-.17.592-.418s-.175-.383-.578-.543c-.55-.22-.891-.53-.891-.965 0-.55.47-.97 1.256-.97a1.88 1.88 0 0 1 .781.153l-.146.526a1.51 1.51 0 0 0-.649-.144c-.37 0-.536.182-.536.369 0 .24.181.349.626.536.582.239.843.55.843.99 0 .578-.479 1.005-1.327 1.005m1.1-11.636a6.424 6.424 0 0 0-9.086 0L6.46 8.169a7.852 7.852 0 0 1 11.105 0Zm2.013-2.018a9.28 9.28 0 0 0-13.124 0l-1.01-1.01a10.709 10.709 0 0 1 15.144 0Z"/></svg>