<svg xmlns="http://www.w3.org/2000/svg" fill="#44739e" viewBox="0 0 24 24"><path d="M10.0488 1.8077c-1.8155 0-2.8531 1.2655-2.8531 2.5383 0 4.4277-.0744 9.7074-.0744 12.5047 0 2.3527 2.0653 3.316 3.131 3.316.7124 0 1.6219-.0032 2.6247-.0077-.1071.1497-2.9107 4.0686-3.0939 4.329-.1866.2652-.2785.2748-.2785.2748s-3.2747.3866-3.373.4062c-.0982.0197-.0981.2062-.0981.2062s-.0527 2.689-.0527 2.7807.1705.1344.1705.1344 7.5098 1.5652 8.0285 1.6763c.5187.1112 1.1762.2316 1.695.2223.5187-.0093 8.6976-1.1394 9.4294-1.2227.7317-.0834.6853-.1388.7038-.2036.0185-.0649 0-2.0472 0-2.4919s.0278-.4817-.1111-.5188c-.139-.037-7.5954-1.4077-7.5954-1.4077s1.9536-2.7892 2.2882-3.2607c.1607-.2265.3618-.7212.4418-.926.2465.003.5076.0051.725.0092 2.927.0556 3.5756-1.5754 3.5756-3.1677 0-4.5774.0185-8.4849 0-11.8195-.0186-3.3345-3.0195-3.3347-3.0195-3.3347s-10.4484-.0372-12.2638-.0372zm1.5678 2.1921c1.3632 0 9.2088.0274 9.2088.0274s2.253.0004 2.267 2.5042 0 5.4374 0 8.8744c0 1.1956-.4868 2.4204-2.6846 2.3787s-6.5378 0-8.6382 0c-.8003 0-2.3508-.7232-2.3508-2.4898 0-2.1004.0553-6.065.0553-9.3896 0-.9557.7793-1.9053 2.1425-1.9053m4.746 3.792a3.2201 3.1586 0 0 0-3.2205 3.1585 3.2201 3.1586 0 0 0 3.2205 3.1584 3.2201 3.1586 0 0 0 3.22-3.1584 3.2201 3.1586 0 0 0-3.22-3.1585m-.0434.63a2.6028 2.553 0 0 1 2.603 2.5528 2.6028 2.553 0 0 1-2.603 2.5533 2.6028 2.553 0 0 1-2.6025-2.5533 2.6028 2.553 0 0 1 2.6025-2.5528m-.3597 12.3625 1.0806.2026s-3.1034 4.514-3.2092 4.5883c-.2814.1976-.4976.3992-1.1529.2259 0 0-.1922-.039-.157-.0951.407-.6482 3.4385-4.9217 3.4385-4.9217m1.8578 4.3393 3.6215.6899-4.4897.5601z"/></svg>