<svg xmlns="http://www.w3.org/2000/svg" viewBox="0 0 24 24"><path fill="#44739e" d="M5.136 1A4.134 4.134 0 0 0 1 5.136v13.728A4.134 4.134 0 0 0 5.136 23h13.728A4.134 4.134 0 0 0 23 18.864V5.136A4.134 4.134 0 0 0 18.864 1ZM12 3.75c1.665 0 3.034.457 4.297 1.208.015.008.02.024.015.041-.007.014-.022.017-.039.012-1.597-.345-4.026 1.036-4.257 1.173-.005.005-.008.009-.014.009-.007 0-.014-.005-.02-.009-.608-.349-2.853-1.526-4.266-1.165-.016.004-.032 0-.039-.014-.008-.014-.001-.032.013-.039C8.952 4.207 10.342 3.75 12 3.75M6.455 6.072c.405.002 1.358.299 3.28 2.211.008.007.016.016.016.027a.033.033 0 0 1-.014.025c-1.661 1.977-4.876 6.688-4.247 8.633.006.016.005.033-.011.042-.015.008-.032.002-.043-.013A8.233 8.233 0 0 1 3.75 12a8.222 8.222 0 0 1 2.453-5.872c-.002.002.068-.056.252-.055Zm11.09 0c.184 0 .254.06.252.056A8.22 8.22 0 0 1 20.25 12a8.23 8.23 0 0 1-1.686 4.997c-.011.013-.028.022-.044.013-.014-.007-.016-.025-.01-.04.629-1.945-2.583-6.663-4.243-8.64-.008-.006-.013-.014-.013-.022 0-.012.008-.022.015-.029 1.921-1.913 2.872-2.206 3.276-2.207M12 10.368h.002c.011 0 .019.007.023.012 2.47 1.876 6.693 6.513 5.407 7.827v.002a8.217 8.217 0 0 1-5.43 2.041 8.22 8.22 0 0 1-5.434-2.041v-.002c-1.282-1.314 2.939-5.951 5.407-7.827a.05.05 0 0 1 .025-.012"/></svg>