<svg xmlns="http://www.w3.org/2000/svg" data-name="Livello 1" viewBox="0 0 24 24"><path fill="#44739e" d="M23.8144 3.2344V2.955h-.0469l-.0469-.3692h-.0449v-.1406h-.0468l-.0469-.2305h-.045l-.0468-.1855h-.0469v-.0937l-.0918-.045-.0468-.1855-.0918-.0469v-.0918l-.1856-.1406V1.334l-.0937-.0469-.2773-.3242h-.0919l-.1386-.1856h-.0938l-.0449-.0917-.1855-.047-.047-.0917h-.0917V.5l-.1856-.0469V.4063l-.2324-.045V.3145h-.1386v-.047l-.3711-.0468v-.045h-.2305V.129H3.209c-.1154.1027-.2967.0382-.4629.0938v.0449l-.2774.0469v.0468H2.375v.045h-.1387V.453L2.0508.5v.0469H1.959l-.0469.0918-.1855.0468-.0918.1387H1.541L1.4492.963h-.0918l-.0469.0937-.3242.2774v.0918l-.1386.0938v.0917l-.1387.0938-.0469.1855-.0918.045v.0937H.5234l-.0468.1855h-.047v.1387H.3849v.0918h-.047v.1406H.291v.1387H.246v.2305H.1993v.2324h-.047V20.797h.047l.0468.4629H.291l.0469.2793h.0469l.0449.2304h.0469l.0468.1856h.047v.0937l.0917.045.0469.1855.1387.0938v.0917l.1386.0938v.0918l.0918.0469.2325.2773h.0918l.1386.1856.1407.0468.0449.0918.1855.0469.0469.0937h.0918v.045l.1855.0468v.047l.2325.0468v.045h.1386v.0468l.3692.0469v.0449h.2324v.0469h15.6504a8.8 8.8 0 0 0 1.8984-.047h.2774v-.0448l.371-.0469V23.67h.1387v-.0468l.2325-.045v-.0468l.1855-.047v-.0448h.0918l.0469-.0938.1855-.0469.045-.0918.1386-.0468.0938-.1387h.0918l.0468-.0918.3243-.2793v-.0918l.1386-.0938v-.0917l.1387-.0938.0469-.1836.0918-.0469v-.0937h.0468l.047-.1856h.0448l.0469-.2304h.0468v-.1387h.045l.0468-.3711h.0469v-.2773h.0468V3.2344Zm-12.3677 13.912H9.0708v-6.5257h2.3759zm4.1201.0063h-2.212c-.011-.2372-.0287-.4626-.031-.6881-.0198-1.9534-.003-3.9082-.0663-5.8598-.0426-1.3195-.5182-1.832-1.6933-1.8837-1.3564-.0594-2.7157-.0404-4.0737-.0508a1.47 1.47 0 0 0-.3014.0732v8.398H4.8783c-.011-.2085-.0298-.3973-.0299-.5861-.0018-3.1656.0089-6.3313-.0115-9.4968-.0033-.5205.1331-.6657.591-.656 2.3502.0496 4.701.0635 7.0516.0932a2.76 2.76 0 0 1 .4674.0511c1.8018.3351 2.5058 1.049 2.5947 3.1046.1068 2.4713.0252 4.953.0252 7.5011zm4.2818-.0038h-2.3001c-.0116-.1864-.0331-.3724-.0332-.5585-.0021-3.1867.007-6.3735-.0108-9.5602-.0027-.4887.1232-.6614.56-.6256a13.8 13.8 0 0 0 1.411.0066c.2564-.0052.3777.0876.3771.4032-.0064 3.4201-.004 6.8403-.004 10.3345" class="cls-1" data-name="Colore riempimento 1"/></svg>