<svg xmlns="http://www.w3.org/2000/svg" viewBox="0 0 24 24"><path fill="#44739e" d="M12 11.01a2.75 2.75 0 1 0 2.75 2.75A2.75 2.75 0 0 0 12 11.01m0 4.4a1.65 1.65 0 1 1 1.65-1.65A1.65 1.65 0 0 1 12 15.41m0-6.18a4.558 4.558 0 1 0 4.558 4.559A4.564 4.564 0 0 0 12 9.23m0 8.017a3.458 3.458 0 1 1 3.458-3.458A3.463 3.463 0 0 1 12 17.247M12 8.7a2.623 2.623 0 1 0-2.622-2.625A2.626 2.626 0 0 0 12 8.7m0-4.146a1.524 1.524 0 1 1-1.522 1.524A1.526 1.526 0 0 1 12 4.552ZM19.894 1H4.106A3.106 3.106 0 0 0 1 4.106v15.788A3.106 3.106 0 0 0 4.106 23h15.788A3.106 3.106 0 0 0 23 19.894V4.106A3.106 3.106 0 0 0 19.894 1M16.98 19.276a1.85 1.85 0 0 1-1.851 1.854H8.87a1.85 1.85 0 0 1-1.85-1.85V4.723A1.85 1.85 0 0 1 8.87 2.87h6.259a1.85 1.85 0 0 1 1.851 1.85Z"/></svg>