<svg xmlns="http://www.w3.org/2000/svg" viewBox="0 0 24 24"><path fill="#44739e" d="M13.228 16.859a27.65 27.65 0 0 1-5.193-.261l-.296-.043v5.608l.132.074a4.49 4.49 0 0 0 1.284.485 13.86 13.86 0 0 0 2.729.278c.164 0 .33 0 .492-.009a16.3 16.3 0 0 0 2.309-.175 4.7 4.7 0 0 0 1.429-.424l.147-.069v-5.771l-.299.045a23.6 23.6 0 0 1-2.734.262m2.504 5.132a4.2 4.2 0 0 1-1.131.311 15.56 15.56 0 0 1-2.243.169 13.1 13.1 0 0 1-3.109-.254 3.93 3.93 0 0 1-1.002-.357v-4.705a28.34 28.34 0 0 0 4.997.22 24.9 24.9 0 0 0 2.488-.22Zm-3.905-2.858c-.323-.13-.65-.252-.976-.377v.919c.245.092.481.189.726.271v-.311c-.138-.054-.279-.11-.421-.158 0-.1-.012-.197-.012-.301q.35.128.695.266v.601h.296v-.601q.344-.137.695-.266c0 .101-.011.198-.011.301-.142.054-.283.102-.422.158v.311c.245-.083.482-.18.716-.276v-.919c-.358.14-.714.282-1.072.416-.069.032-.146-.016-.214-.034M16.244 1.69c-.006-.073-.007-.123-.088-.144a15.76 15.76 0 0 0-3.601-.531 16.52 16.52 0 0 0-4.657.464c-.055.02-.125.028-.139.096a2.35 2.35 0 0 0-.014.393v14.075a26.6 26.6 0 0 0 3.167.291 29.3 29.3 0 0 0 5.33-.285c.001-4.778-.003-9.587.002-14.359"/></svg>