<svg xmlns="http://www.w3.org/2000/svg" viewBox="0 0 24 24"><path fill="#44739e" d="M10.805 4.733h.231v6.576h-.231ZM5.595 1h.231v6.576h-.231Zm5.236 10.36h.184a.247.247 0 0 1 .247.247v.996a.249.249 0 0 1-.248.248h-.179a.247.247 0 0 1-.247-.247v-.996a.249.249 0 0 1 .243-.248M5.645 7.626h.13a.186.186 0 0 1 .186.186v.607a.187.187 0 0 1-.187.187h-.129a.187.187 0 0 1-.187-.187v-.607a.187.187 0 0 1 .187-.186M2.442 6.431l1.35 1.139 7.034 5.952 8.14 6.894a2.263 2.263 0 0 0 1.381.55 2.75 2.75 0 0 0 .385.008 1.99 1.99 0 0 0 .88-.211.44.44 0 0 0 .076-.075.483.483 0 0 0 .11-.448.475.475 0 0 0-.175-.244l-10.322-7.841v.448a.291.291 0 0 1-.292.291h-.179a.291.291 0 0 1-.29-.291V11.58L6.005 8.14v.279a.23.23 0 0 1-.228.23h-.132a.231.231 0 0 1-.23-.23V8.15l-.457.013a.557.557 0 0 1-.373-.123L2.686 6.456a.11.11 0 0 1 .058-.193l.343-.033a.44.44 0 0 1 .31.088L5.415 7.85v-.038a.23.23 0 0 1 .025-.102L3.342 6.12a1.022 1.022 0 0 0-.916-.128c-.237.036-.27.202-.22.237Zm9.158 6.92.419-.094c.297-.11.538.018.84.264l7.32 5.714c.343.279.471.604.126.696l-.58.198a1.113 1.113 0 0 1-1.091-.268l-7.077-5.946c-.257-.229-.212-.471.043-.564m-5.53-4.4.414-.042a.825.825 0 0 1 .538.167l3.379 2.57a.143.143 0 0 1-.047.263l-.66.157a.723.723 0 0 1-.609-.246L5.978 9.266a.179.179 0 0 1 .092-.314Zm15.627 11.912a2.464 2.464 0 0 1-1.352.22 2.37 2.37 0 0 1-1.448-.571L2.475 6.629 2.2 6.401l.017.596.11.1 16.258 14.878a3.59 3.59 0 0 0 1.31.705 3.26 3.26 0 0 0 .88.068l.065-.007a1.42 1.42 0 0 0 .723-.33l.11-.089.133-1.575a.62.62 0 0 1-.109.116m.103 1.531-.149.124a1.54 1.54 0 0 1-.79.353l-.072.008c-.065 0-.131.008-.199.008a3.74 3.74 0 0 1-.724-.08 3.74 3.74 0 0 1-1.37-.734L2.244 7.195l-.042-.035v.197L18.564 22.29a2.86 2.86 0 0 0 1.89.71h.087l.309-.02a.7.7 0 0 0 .064-.006 1.375 1.375 0 0 0 .59-.2c.22-.159.305-.28.298-.415Z"/></svg>