<svg xmlns="http://www.w3.org/2000/svg" viewBox="0 0 24 24"><path fill="#44739e" d="M9.656 13.338c.09.173.194.338.279.512a1.32 1.32 0 0 1-.239.158 1.01 1.01 0 0 1-.271.123 2.2 2.2 0 0 1-.175-.292 1.7 1.7 0 0 1-.169-.318c.143-.099.302-.183.452-.267.072-.038.091.039.123.084M1 13.184c.187-.024.381 0 .569-.01.22 0 .45-.013.671.007.008 1.585 0 3.212 0 4.8a1.8 1.8 0 0 1 0 .231H1.002Q1 15.698 1 13.184M11.871 1.632a11.2 11.2 0 0 1 1.387.043 11.1 11.1 0 0 1 3.002.719 10.8 10.8 0 0 1 3.52 2.252 4.2 4.2 0 0 1 .382.393 11.1 11.1 0 0 1 1.022 1.274 10.7 10.7 0 0 1 1.152 2.2 10.4 10.4 0 0 1 .584 2.296 9.97 9.97 0 0 1-.031 2.743 10.32 10.32 0 0 1-1.462 4.03 9.02 9.02 0 0 1-1.286 1.63 9.8 9.8 0 0 1-.798.752 9.6 9.6 0 0 1-1.905 1.261 10.23 10.23 0 0 1-4.826 1.147 10.54 10.54 0 0 1-4.547-1.116 10.25 10.25 0 0 1-1.989-1.3c-.154-.126-.286-.273-.44-.399-.22-.179-.378-.402-.58-.597a8.5 8.5 0 0 1-.69-.861 9.8 9.8 0 0 1-.935-1.61 9.56 9.56 0 0 1-.815-2.814 9.2 9.2 0 0 1 .011-2.58 9.85 9.85 0 0 1 2.09-4.824 12.2 12.2 0 0 1 .968-1.016A9.71 9.71 0 0 1 7.941 3.72a9.59 9.59 0 0 1 3.711-.99 9.845 9.845 0 0 1 6.532 1.989 9.46 9.46 0 0 1 3.528 5.526 9 9 0 0 1 .181 1.284 8.7 8.7 0 0 1-.074 1.854 9.42 9.42 0 0 1-.667 2.4 9.24 9.24 0 0 1-1.002 1.761 10.12 10.12 0 0 1-1.404 1.513 9.3 9.3 0 0 1-1.76 1.187 9.06 9.06 0 0 1-2.737.924 8.69 8.69 0 0 1-2.75.037 9.355 9.355 0 0 1-4.856-2.185 6 6 0 0 1-.77-.776 8.84 8.84 0 0 1-2.175-4.741 7.92 7.92 0 0 1-.023-2.008A8.71 8.71 0 0 1 5.03 7.697a8.32 8.32 0 0 1 1.379-1.631 8.82 8.82 0 0 1 2.498-1.597 8.53 8.53 0 0 1 2.87-.66c.279-.01.559-.007.839 0a8.78 8.78 0 0 1 4.949 1.806 7.3 7.3 0 0 1 .953.846c.117.142.246.273.36.417a8.187 8.187 0 0 1 1.939 4.993 8.56 8.56 0 0 1-.162 1.842 8.02 8.02 0 0 1-1.795 3.695c-.22.239-.449.462-.676.688a8.124 8.124 0 0 1-5.791 2.109 8.76 8.76 0 0 1-2.2-.399 8.41 8.41 0 0 1-2.833-1.602 8.05 8.05 0 0 1-1.87-2.466 7.55 7.55 0 0 1-.77-3.098 7.68 7.68 0 0 1 .52-2.979 7.59 7.59 0 0 1 1.352-2.236c.163-.177.336-.347.508-.516a6.5 6.5 0 0 1 .73-.604 7.535 7.535 0 0 1 3.389-1.354 7.656 7.656 0 0 1 3.616.386 7.63 7.63 0 0 1 2.31 1.32 8.95 8.95 0 0 1 .931.931c.177.228.355.455.51.7a7.1 7.1 0 0 1 1.162 3.826 7.46 7.46 0 0 1-.66 2.97 6.66 6.66 0 0 1-1.123 1.702 4.4 4.4 0 0 1-.495.496 7.007 7.007 0 0 1-4.92 1.835 7.24 7.24 0 0 1-2.457-.511A7.08 7.08 0 0 1 7.71 17.05a12 12 0 0 1-.418-.481 6.73 6.73 0 0 1-1.349-2.75 6.34 6.34 0 0 1-.043-2.585 6.57 6.57 0 0 1 1.33-2.888 7.4 7.4 0 0 1 .605-.637 5.9 5.9 0 0 1 1.174-.872 6.34 6.34 0 0 1 2.297-.808 6.27 6.27 0 0 1 1.092-.058 6.1 6.1 0 0 1 1.65.247 6.57 6.57 0 0 1 2.258 1.156 4.93 4.93 0 0 1 .808.77 6.23 6.23 0 0 1 .66.893 5.995 5.995 0 0 1 .88 3.047 5.91 5.91 0 0 1-1.837 4.326 8.1 8.1 0 0 1-.632.516 6.16 6.16 0 0 1-1.024.59 5.866 5.866 0 0 1-3.116.474 6.19 6.19 0 0 1-3.197-1.367 5.847 5.847 0 0 1-1.74-2.661 5.37 5.37 0 0 1 0-3.08 5.445 5.445 0 0 1 1.023-1.917c.205-.228.427-.44.65-.654a5.41 5.41 0 0 1 2.613-1.201 6 6 0 0 1 1.319-.045 5.7 5.7 0 0 1 1.089.207 5.48 5.48 0 0 1 2.293 1.363 5.94 5.94 0 0 1 .77.999 4.83 4.83 0 0 1 .651 1.859 3.94 3.94 0 0 1 .02 1.107 5.04 5.04 0 0 1-.367 1.43 4.81 4.81 0 0 1-1.122 1.608 4.846 4.846 0 0 1-5.609.734 4.43 4.43 0 0 1-1.019-.719 4.62 4.62 0 0 1-1.32-2.186 4.27 4.27 0 0 1-.068-1.784A4.35 4.35 0 0 1 9.043 9.57a2.4 2.4 0 0 1 .36-.357 4.227 4.227 0 0 1 2.435-1.061 4.84 4.84 0 0 1 1.156.048 4.35 4.35 0 0 1 2.073.969 4.03 4.03 0 0 1 1.26 1.933 3.44 3.44 0 0 1 .136.77 4.04 4.04 0 0 1-.054.943 3.704 3.704 0 0 1-1.033 1.98 3.94 3.94 0 0 1-.921.66 3.76 3.76 0 0 1-1.405.413 4.01 4.01 0 0 1-1.515-.181 3.72 3.72 0 0 1-1.491-.929 2.84 2.84 0 0 1-.44-.556.79.79 0 0 1 .306-.177c.065.069.116.151.175.226a3.23 3.23 0 0 0 .966.834 3.393 3.393 0 0 0 5.044-2.499 3.3 3.3 0 0 0-.165-1.572 3.96 3.96 0 0 0-2.614-2.384 4.24 4.24 0 0 0-1.351-.136 3.93 3.93 0 0 0-1.657.512 3.66 3.66 0 0 0-1.216 1.079 3.953 3.953 0 0 0-.75 1.918 4.01 4.01 0 0 0 .138 1.517 4.326 4.326 0 0 0 1.16 1.85 4.47 4.47 0 0 0 2.286 1.161 4.83 4.83 0 0 0 1.62 0 4.477 4.477 0 0 0 3.659-4.563 5.8 5.8 0 0 0-.116-.848 4.887 4.887 0 0 0-1.856-2.735 4.983 4.983 0 0 0-2.371-.95 6 6 0 0 0-.932-.03 5.06 5.06 0 0 0-2.435.822 4.64 4.64 0 0 0-1.083.963 5.074 5.074 0 0 0-1.152 2.7 4.98 4.98 0 0 0 .294 2.282 5.31 5.31 0 0 0 .943 1.569 5.544 5.544 0 0 0 3.837 1.937 6.1 6.1 0 0 0 1.305-.062 5.555 5.555 0 0 0 2.273-.924 5.3 5.3 0 0 0 1.1-1.009 5.526 5.526 0 0 0 1.273-3.23 5.46 5.46 0 0 0-.599-2.828 6.3 6.3 0 0 0-.893-1.276 4 4 0 0 0-.408-.401 5.36 5.36 0 0 0-.965-.743 6.02 6.02 0 0 0-3.676-.871 6.165 6.165 0 0 0-3.566 1.531 3.9 3.9 0 0 0-.524.53 6.25 6.25 0 0 0-1.366 2.699 6.07 6.07 0 0 0 .018 2.711 6.314 6.314 0 0 0 1.351 2.623c.234.25.476.496.726.73a6.668 6.668 0 0 0 8.25.35c.22-.158.426-.336.633-.515a6.93 6.93 0 0 0 1.356-1.777 6.6 6.6 0 0 0 .744-2.714 6.51 6.51 0 0 0-.477-2.877 7.22 7.22 0 0 0-1.195-1.906c-.15-.173-.318-.324-.475-.49a.506.506 0 0 0-.193-.134 1.54 1.54 0 0 0-.357-.33 6.9 6.9 0 0 0-.674-.471 6.86 6.86 0 0 0-1.905-.829 7.32 7.32 0 0 0-1.972-.24 7.23 7.23 0 0 0-4.722 1.891 3.6 3.6 0 0 0-.419.419 7 7 0 0 0-.936 1.266 7.13 7.13 0 0 0-.912 2.633 7 7 0 0 0-.007 1.908 7.18 7.18 0 0 0 .99 2.797 7.865 7.865 0 0 0 2.36 2.448 7.761 7.761 0 0 0 9.482-.759 4.6 4.6 0 0 0 .496-.497 8.64 8.64 0 0 0 .99-1.363 7.724 7.724 0 0 0 .963-4.783 7.54 7.54 0 0 0-.704-2.395 8.16 8.16 0 0 0-1.118-1.705 8.8 8.8 0 0 0-2.072-1.75 7.48 7.48 0 0 0-1.723-.79 8.25 8.25 0 0 0-1.711-.36 7.9 7.9 0 0 0-1.31-.023 8.3 8.3 0 0 0-5.008 2.066c-.23.22-.46.451-.682.683a8.24 8.24 0 0 0-.199 10.764 9.1 9.1 0 0 0 .813.865 6.97 6.97 0 0 0 1.151.928 8.89 8.89 0 0 0 3.78 1.406 9.09 9.09 0 0 0 2.8-.095 8.93 8.93 0 0 0 4.255-2.135 6.9 6.9 0 0 0 .779-.801 9.15 9.15 0 0 0 1.145-1.71 8.767 8.767 0 0 0 .671-6.212 8.99 8.99 0 0 0-1.98-3.669 5.6 5.6 0 0 0-.397-.411 9.13 9.13 0 0 0-1.371-1.142 9 9 0 0 0-1.512-.847 9.24 9.24 0 0 0-2.615-.717 10.7 10.7 0 0 0-1.869-.047 9.48 9.48 0 0 0-2.628.597 8.54 8.54 0 0 0-1.188.55 9.5 9.5 0 0 0-1.64 1.151c-.241.213-.467.44-.691.675a9.51 9.51 0 0 0-2.33 4.62A9.24 9.24 0 0 0 4.3 17.33a10.23 10.23 0 0 0 1.034 1.386c.252.272.521.539.793.791a11 11 0 0 0 1.196.913 9.9 9.9 0 0 0 3.416 1.396 8.66 8.66 0 0 0 1.504.187 9.8 9.8 0 0 0 1.367-.022 9.927 9.927 0 0 0 5.654-2.409 9.1 9.1 0 0 0 .726-.703 10.6 10.6 0 0 0 1.111-1.43 9.81 9.81 0 0 0 1.372-3.469 9.42 9.42 0 0 0 .156-2.352 9.2 9.2 0 0 0-.352-2.145 10.05 10.05 0 0 0-1.614-3.258 10.8 10.8 0 0 0-.872-1.021 9.1 9.1 0 0 0-.722-.675c-.276-.258-.585-.468-.88-.696a10.75 10.75 0 0 0-1.626-.918A10.5 10.5 0 0 0 12.99 2c-.497-.023-.99-.021-1.491 0a10.692 10.692 0 0 0-6.118 2.541c-.305.274-.588.571-.88.862-.203.209-.38.45-.564.678a10.43 10.43 0 0 0-2.057 5.043 8.3 8.3 0 0 0-.07.838c-.019.369 0 .738 0 1.107a1.56 1.56 0 0 1-.351 0c-.023-.325-.008-.66-.008-.98a11.42 11.42 0 0 1 .418-2.656 10.9 10.9 0 0 1 1.814-3.611 10.7 10.7 0 0 1 .952-1.063 6.4 6.4 0 0 1 .533-.492 10.864 10.864 0 0 1 5.952-2.584 6.8 6.8 0 0 1 .751-.051"/></svg>