<svg xmlns="http://www.w3.org/2000/svg" viewBox="0 0 24 24"><path fill="#44739e" d="M5.304 2.534h-.286l-.33.009-.041.091a.14.14 0 0 0-.009.061v.125h1.21v-.287h-.426ZM22.94 1.001H2.587a2.2 2.2 0 0 0-.264.007l-.333.036-.03.339c-.008.092-.008.18-.007.261l-.034.007-.047.01a1.003 1.003 0 0 0-.723.615 1.61 1.61 0 0 0-.069.779v.01a1.43 1.43 0 0 0 .611.963 2.11 2.11 0 0 0 1.001.306h.137a3.05 3.05 0 0 0 .707-.103c.141-.033.271-.077.396-.119.093-.031.18-.06.265-.083h.009c.097-.029.184-.051.265-.067v17.585c-.485-.012-.958-.039-1.407-.079H3.02a4.48 4.48 0 0 1-.89-.15l-.481-.154-.054.503c-.01.095-.017.19-.025.281s-.014.192-.024.283l-.033.288.26.129a2.35 2.35 0 0 0 .708.189l.068.01h.011a17.5 17.5 0 0 0 1.835.132c.341.015.683.021 1.019.021.497 0 .978-.013 1.412-.028h.01l.182-.009a12.8 12.8 0 0 0 1.442-.138 2.28 2.28 0 0 0 .679-.207l.22-.115v-.248c0-.122-.008-.236-.017-.347 0-.074-.011-.144-.013-.213l-.018-.536-.514.155a5 5 0 0 1-.959.158h-.025c-.533.046-1.07.074-1.594.081h-.208l.008-.289V3.443l-.01-.257-.234-.103a1.5 1.5 0 0 0-.715-.097.67.67 0 0 0-.25.064 3.6 3.6 0 0 0-.957.175l-.103.029a3.2 3.2 0 0 1-.891.197 1.18 1.18 0 0 1-.707-.163.635.635 0 0 1-.213-.59v-.014a.172.172 0 0 1 .084-.135h.009a.56.56 0 0 1 .165-.036 1.9 1.9 0 0 0 .19-.031l.952-.213-.04-.027h1.414a2.4 2.4 0 0 0 .274-.013 2.18 2.18 0 0 1 .463 0 2.5 2.5 0 0 0 .304.013h17.174v-.817ZM7.842 21.958a5.5 5.5 0 0 0 1.064-.176c.005.182.03.361.029.544a1.87 1.87 0 0 1-.56.166 14.1 14.1 0 0 1-1.577.143c-.801.027-1.604.043-2.405.006a17.2 17.2 0 0 1-1.795-.128 2.3 2.3 0 0 1-.66-.162c.021-.188.028-.378.049-.568a5 5 0 0 0 1.02.173c.516.047 1.035.075 1.553.085q.825.029 1.65 0a21.6 21.6 0 0 0 1.632-.083m-5.94-19.69a.464.464 0 0 0-.258.374.937.937 0 0 0 .33.88 1.444 1.444 0 0 0 .893.22 3.5 3.5 0 0 0 .981-.212l.095-.029a3.2 3.2 0 0 1 .53-.127v.272a3.1 3.1 0 0 0-.35.083 5.6 5.6 0 0 0-.284.09c-.12.04-.243.081-.371.11a2.78 2.78 0 0 1-.636.094h-.116a1.804 1.804 0 0 1-.858-.259 1.117 1.117 0 0 1-.477-.758 1.326 1.326 0 0 1 .054-.633.708.708 0 0 1 .514-.427l-.006.28h.062a.53.53 0 0 0-.106.046Zm20.615-.448H5.755a2.5 2.5 0 0 1-.257-.011 2.6 2.6 0 0 0-.55 0 2.4 2.4 0 0 1-.306.01H2.364v-.173a2 2 0 0 1 0-.231 3.3 3.3 0 0 1 .33 0H22.52c-.004.136-.005.273-.005.409Z"/></svg>