<svg xmlns="http://www.w3.org/2000/svg" fill="none" viewBox="0 0 24 24"><path fill="#44739e" fill-rule="evenodd" d="M1.1613 1.9355S2.8647 0 3.4839 0h19.7419A.774.774 0 0 1 24 .7742V20.516c0 .9925-1.9355 2.5162-1.9355 2.5162V2.7097a.774.774 0 0 0-.7742-.7742zM0 4.7097c0-1.1046.8954-2 2-2h17.2903c1.1046 0 2 .8954 2 2V22c0 1.1046-.8954 2-2 2H2c-1.1046 0-2-.8954-2-2zm4.258.9032c0 .7483-.6065 1.3548-1.3548 1.3548S1.5484 6.3612 1.5484 5.613s.6066-1.3548 1.3548-1.3548 1.3549.6066 1.3549 1.3548m2.5162 1.3548c.7482 0 1.3548-.6065 1.3548-1.3548s-.6066-1.3548-1.3548-1.3548-1.3549.6066-1.3549 1.3548.6066 1.3548 1.3549 1.3548M12 5.613c0 .7483-.6066 1.3548-1.3548 1.3548S9.2903 6.3612 9.2903 5.613s.6066-1.3548 1.3549-1.3548S12 4.8647 12 5.6129m2.5161 1.3548c.7483 0 1.3549-.6065 1.3549-1.3548s-.6066-1.3548-1.3549-1.3548-1.3548.6066-1.3548 1.3548.6066 1.3548 1.3548 1.3548m5.2258-1.3548c0 .7483-.6066 1.3548-1.3548 1.3548s-1.3549-.6065-1.3549-1.3548.6066-1.3548 1.3549-1.3548 1.3548.6066 1.3548 1.3548M2.9032 10.8387c.7483 0 1.3549-.6066 1.3549-1.3548S3.6515 8.129 2.9032 8.129s-1.3548.6066-1.3548 1.3549.6066 1.3548 1.3548 1.3548M8.129 9.4839c0 .7482-.6066 1.3548-1.3548 1.3548s-1.3549-.6066-1.3549-1.3548S6.026 8.129 6.7742 8.129s1.3548.6066 1.3548 1.355m2.5162 1.3548c.7482 0 1.3548-.6066 1.3548-1.3548s-.6066-1.3549-1.3548-1.3549-1.3549.6066-1.3549 1.3549.6066 1.3548 1.3549 1.3548M15.871 9.484c0 .7482-.6066 1.3548-1.3549 1.3548s-1.3548-.6066-1.3548-1.3548.6066-1.3549 1.3548-1.3549 1.3549.6066 1.3549 1.3549m2.5161 1.3548c.7482 0 1.3548-.6066 1.3548-1.3548s-.6066-1.3549-1.3548-1.3549-1.3549.6066-1.3549 1.3549.6066 1.3548 1.3549 1.3548m-14.129 2.5161c0 .7483-.6066 1.3549-1.3549 1.3549s-1.3548-.6066-1.3548-1.3549S2.155 12 2.9032 12s1.3549.6066 1.3549 1.3548m2.516 1.3549c.7483 0 1.355-.6066 1.355-1.3549S7.5223 12 6.774 12s-1.3548.6066-1.3548 1.3548.6066 1.3549 1.3549 1.3549M12 13.3548c0 .7483-.6066 1.3549-1.3548 1.3549s-1.3549-.6066-1.3549-1.3549S9.897 12 10.6452 12 12 12.6066 12 13.3548m2.5161 1.3549c.7483 0 1.3549-.6066 1.3549-1.3549S15.2644 12 14.5161 12s-1.3548.6066-1.3548 1.3548.6066 1.3549 1.3548 1.3549m5.2258-1.3549c0 .7483-.6066 1.3549-1.3548 1.3549s-1.3549-.6066-1.3549-1.3549S17.6388 12 18.3871 12s1.3548.6066 1.3548 1.3548M2.9032 18.5807c.7483 0 1.3549-.6066 1.3549-1.3549s-.6066-1.3548-1.3549-1.3548-1.3548.6066-1.3548 1.3548.6066 1.3549 1.3548 1.3549m5.2258-1.3549c0 .7483-.6066 1.3548-1.3548 1.3548s-1.3549-.6065-1.3549-1.3548.6066-1.3548 1.3549-1.3548 1.3548.6066 1.3548 1.3548m2.5162 1.3548c.7482 0 1.3548-.6065 1.3548-1.3548s-.6066-1.3548-1.3548-1.3548-1.3549.6066-1.3549 1.3548.6066 1.3548 1.3549 1.3548m5.2258-1.3548c0 .7483-.6066 1.3548-1.3549 1.3548s-1.3548-.6065-1.3548-1.3548.6066-1.3548 1.3548-1.3548 1.3549.6066 1.3549 1.3548m2.5161 1.3548c.7482 0 1.3548-.6065 1.3548-1.3548s-.6066-1.3548-1.3548-1.3548-1.3549.6066-1.3549 1.3548.6066 1.3548 1.3549 1.3548m-14.129 2.5162c0 .7482-.6066 1.3548-1.3549 1.3548s-1.3548-.6066-1.3548-1.3548.6066-1.3549 1.3548-1.3549 1.3549.6066 1.3549 1.3549m2.516 1.3548c.7483 0 1.355-.6066 1.355-1.3548s-.6067-1.3549-1.355-1.3549-1.3548.6066-1.3548 1.3549.6066 1.3548 1.3549 1.3548M12 21.0968c0 .7482-.6066 1.3548-1.3548 1.3548s-1.3549-.6066-1.3549-1.3548.6066-1.3549 1.3549-1.3549S12 20.3485 12 21.0968m2.5161 1.3548c.7483 0 1.3549-.6066 1.3549-1.3548s-.6066-1.3549-1.3549-1.3549-1.3548.6066-1.3548 1.3549.6066 1.3548 1.3548 1.3548m5.2258-1.3548c0 .7482-.6066 1.3548-1.3548 1.3548s-1.3549-.6066-1.3549-1.3548.6066-1.3549 1.3549-1.3549 1.3548.6066 1.3548 1.3549" clip-rule="evenodd"/></svg>