<svg xmlns="http://www.w3.org/2000/svg" fill="none" viewBox="0 0 24 24"><path fill="#44739e" fill-rule="evenodd" d="M22 5.2v16.432c.2935-.3558.5779-.7181.8442-1.0574.1583-.2018.3103-.3954.4539-.5746A3.186 3.186 0 0 0 24 18V3.2C24 1.4327 22.5673 0 20.8 0H5.6c-.9151 0-1.7406.3842-2.3238 1-.3158.3335-.617.6655-.9105 1H18.8C20.5673 2 22 3.4327 22 5.2M0 6c0-1.7673 1.4327-3.2 3.2-3.2H18c1.7673 0 3.2 1.4327 3.2 3.2v14.8c0 1.7673-1.4327 3.2-3.2 3.2H3.2C1.4327 24 0 22.5673 0 20.8zm10.6 16.4c4.9706 0 9-4.0294 9-9s-4.0294-9-9-9-9 4.0294-9 9 4.0294 9 9 9m0-2c3.866 0 7-3.134 7-7s-3.134-7-7-7-7 3.134-7 7 3.134 7 7 7m2-1.8c1.4863-1.1759 2.178-2.0197 3.2-3.8 0 0-.0212 1.9713-.8 2.8-.6954.7399-2.4 1-2.4 1M7 12.2H5.6c0-.8.814-2.1256 2-2.6h2.8c-1.3355.3339-2.9333 1.1998-3.4 2.6" clip-rule="evenodd"/></svg>