<svg xmlns="http://www.w3.org/2000/svg" viewBox="0 0 24 24"><path fill="#44739e" fill-rule="evenodd" d="M21.167 5.767v15.062c.269-.326.529-.658.774-.969.145-.185.284-.362.416-.527A2.92 2.92 0 0 0 23 17.5V3.933C23 2.313 21.687 1 20.067 1H6.133c-.839 0-1.595.352-2.13.917-.289.305-.565.61-.834.916h15.064c1.62 0 2.934 1.314 2.934 2.934M1 6.5c0-1.62 1.313-2.933 2.933-2.933H17.5c1.62 0 2.933 1.313 2.933 2.933v13.567c0 1.62-1.313 2.933-2.933 2.933H3.933C2.313 23 1 21.687 1 20.067Zm9.717 15.033c4.556 0 8.25-3.693 8.25-8.25s-3.694-8.25-8.25-8.25-8.25 3.694-8.25 8.25 3.693 8.25 8.25 8.25m0-1.833c3.543 0 6.416-2.873 6.416-6.417s-2.873-6.416-6.416-6.416S4.3 9.74 4.3 13.283 7.173 19.7 10.717 19.7m1.833-1.65c1.362-1.078 1.996-1.851 2.933-3.483 0 0-.019 1.807-.733 2.566-.637.679-2.2.917-2.2.917m-5.133-5.867H6.133c0-.733.746-1.948 1.834-2.383h2.566c-1.224.306-2.689 1.1-3.116 2.383" clip-rule="evenodd"/></svg>