<svg xmlns="http://www.w3.org/2000/svg" viewBox="0 0 24 24"><path fill="#44739e" d="m7.265 19.94-.137-.066c0-.139 0-.278.011-.417a10.1 10.1 0 0 1-2.612-.034c0 .15.011.301.017.451l-.139.066a.95.95 0 0 0 .135.131v.255l-.111.033v.09l.111.052v.299l-.111.051v.091l.111.032v.255a.93.93 0 0 0-.133.131l.111.06a.57.57 0 0 0 .14.302c.093.076.229.111.332.176s.126.18.21.244c.09.045.196.063.284.11a.86.86 0 0 1 .148.181h.411a.96.96 0 0 1 .149-.18c.092-.055.212-.067.302-.127.071-.069.111-.164.191-.229.097-.07.233-.101.326-.177a.57.57 0 0 0 .139-.302l.111-.06a.9.9 0 0 0-.133-.131v-.255l.111-.032v-.091l-.111-.051v-.299l.111-.052v-.09l-.111-.033v-.255a.84.84 0 0 0 .137-.129m-.303.531v.073l-.089.041v.241l.089.041v.073l-.086.025v.205a.7.7 0 0 1 .111.111l-.092.049a.454.454 0 0 1-.111.241c-.074.062-.183.087-.262.143-.06.052-.095.13-.153.184s-.168.057-.243.103a.67.67 0 0 0-.118.144h-.332a.63.63 0 0 0-.12-.145c-.07-.04-.155-.055-.227-.091s-.103-.141-.17-.196-.187-.081-.262-.142a.454.454 0 0 1-.111-.241l-.092-.049a.7.7 0 0 1 .111-.111v-.205l-.086-.025v-.073l.087-.041v-.241l-.089-.041v-.073l.087-.026v-.204a.75.75 0 0 1-.111-.111l.111-.053c0-.121-.01-.241-.012-.361a8.1 8.1 0 0 0 2.096.026c0 .111 0 .222-.007.333l.111.052a.75.75 0 0 1-.111.11v.204ZM4.55 12.185v1.018c.273.102.546.203.82.303v-.343l-.487-.179-.01-.332c.263.098.527.195.79.295v.664h.338v-.664c.263-.1.526-.197.79-.295 0 .111 0 .222-.009.332l-.483.179v.343c.274-.1.546-.201.82-.303v-1.018a11.4 11.4 0 0 1-1.307.454c-.429-.106-.84-.314-1.262-.454m9.345 7.344c-.064-.031-.126-.062-.188-.091.008-.21.018-.419.021-.627a13.4 13.4 0 0 1-3.544.046c.006.194.01.387.013.581l-.185.091a1.22 1.22 0 0 0 .181.183v.354l-.147.046v.125l.15.072v.417l-.148.071v.125l.146.045v.356a1.16 1.16 0 0 0-.18.182l.155.084a.81.81 0 0 0 .19.419c.126.11.31.149.443.247.101.089.163.221.259.319.121.083.285.098.41.177a1.22 1.22 0 0 1 .2.249h.554a1.22 1.22 0 0 1 .203-.251c.118-.069.264-.093.384-.158.111-.088.175-.242.286-.332.133-.096.318-.14.443-.247a.794.794 0 0 0 .188-.418l.157-.084a1.16 1.16 0 0 0-.181-.181v-.356l.145-.045v-.126l-.149-.071v-.416l.15-.072v-.125l-.145-.047v-.353a1.3 1.3 0 0 0 .189-.189m-.414.739v.101l-.12.058v.332l.119.058v.101c-.039.012-.077.023-.116.036v.285a.9.9 0 0 1 .144.146l-.125.068a.64.64 0 0 1-.151.332c-.103.085-.251.121-.358.198-.089.077-.137.201-.229.272-.097.05-.214.07-.309.126a.96.96 0 0 0-.163.201h-.443a.96.96 0 0 0-.16-.199c-.101-.063-.233-.076-.333-.144-.078-.075-.127-.183-.208-.256-.111-.077-.255-.111-.357-.198a.657.657 0 0 1-.151-.332l-.125-.068a.9.9 0 0 1 .144-.146v-.285q-.058-.02-.116-.036v-.101l.12-.058v-.332l-.121-.058v-.101l.116-.036v-.285a1.02 1.02 0 0 1-.146-.147l.15-.073c0-.155-.006-.31-.011-.466a10.8 10.8 0 0 0 2.846-.037c0 .167-.011.332-.017.503l.15.073a1.02 1.02 0 0 1-.146.147v.285ZM10.206 8.742v1.417c.37.142.74.283 1.108.421v-.478l-.655-.248c-.006-.153-.009-.306-.013-.458.357.136.715.271 1.072.409v.929h.46v-.929c.356-.138.714-.273 1.073-.409 0 .152-.009.305-.013.458l-.656.248v.478c.372-.138.742-.279 1.108-.421V8.742c-.575.196-1.135.483-1.722.631a15 15 0 0 1-1.762-.631M7.612 6.213a17.5 17.5 0 0 1 2.247-.111h.312c.577.009 1.149 0 1.719 0 1.206-.005 2.351-.008 3.544.076a8.9 8.9 0 0 1 .893.111l.621.11v-.943a15.5 15.5 0 0 0-.143-2.671 1.644 1.644 0 0 0-.899-1.179 5.18 5.18 0 0 0-1.498-.424 20.16 20.16 0 0 0-3.355-.171 10.32 10.32 0 0 0-2.249.295 3.013 3.013 0 0 0-1.363.719 1.35 1.35 0 0 0-.41.927c-.024.793-.022 1.589-.02 2.382v.96Zm11.985 13.782-.139-.065c.007-.15.014-.301.017-.45a10.15 10.15 0 0 1-2.611.033c0 .139.007.278.01.418l-.137.064a.95.95 0 0 0 .134.133v.253l-.111.034v.091l.111.05v.301l-.111.051v.089l.111.034v.254a.82.82 0 0 0-.133.131l.111.061a.58.58 0 0 0 .138.301c.093.077.229.111.332.177.075.065.12.161.192.23s.209.071.301.127a.9.9 0 0 1 .149.18h.411a.8.8 0 0 1 .149-.181c.087-.05.194-.068.283-.111.085-.063.129-.174.21-.242.099-.069.235-.101.332-.178a.565.565 0 0 0 .14-.3l.111-.061a.82.82 0 0 0-.132-.13v-.255l.111-.033v-.09l-.111-.051v-.3l.111-.051v-.09l-.111-.034v-.254a.95.95 0 0 0 .132-.136m-.305.533v.072l-.088.042v.24l.087.041v.072l-.085.027v.205a.64.64 0 0 1 .111.105l-.093.049a.454.454 0 0 1-.111.241c-.076.061-.185.086-.264.142s-.101.144-.169.195-.158.051-.222.091a.7.7 0 0 0-.12.145h-.332a.7.7 0 0 0-.119-.144c-.075-.046-.171-.056-.243-.103s-.093-.132-.153-.184c-.079-.057-.187-.082-.262-.143a.473.473 0 0 1-.111-.242l-.092-.048a.7.7 0 0 1 .111-.105v-.205l-.087-.027v-.072l.089-.041v-.237l-.089-.042v-.072l.087-.027v-.205a.74.74 0 0 1-.111-.11l.111-.054c0-.11 0-.221-.009-.332a8.15 8.15 0 0 0 2.097-.026c0 .119-.008.24-.013.361l.111.053a.7.7 0 0 1-.111.111v.205Zm2.233-9.601a11.6 11.6 0 0 0-1.975-.16h-.11c-.419-.01-.838-.008-1.257 0H16.8c0-.141.012-.28.017-.421h.041c.425.006.847 0 1.267 0 .886 0 1.731-.007 2.609.054a6.2 6.2 0 0 1 .657.077l.459.077v-.675a10.86 10.86 0 0 0-.111-1.92 1.185 1.185 0 0 0-.665-.847 3.87 3.87 0 0 0-1.107-.305 15.2 15.2 0 0 0-2.465-.12 8.6 8.6 0 0 0-1.45.175 18.7 18.7 0 0 0-2.215-.164h-.157c-.569-.015-1.136-.011-1.705-.006h-.886c-.719 0-1.44-.011-2.147.011a10.9 10.9 0 0 0-1.132.083 8.86 8.86 0 0 0-1.31-.16 15.06 15.06 0 0 0-2.473.123 3.9 3.9 0 0 0-1.107.305 1.19 1.19 0 0 0-.665.847 10.86 10.86 0 0 0-.111 1.92v.676l.458-.078c.221-.036.436-.061.658-.076.877-.061 1.72-.059 2.609-.055h1.219c0 .141.009.281.014.421H5.824c-.42 0-.837 0-1.256.006h-.111a11.7 11.7 0 0 0-1.975.16l-.327.065.02.324c.062.986.092 1.975.123 2.962a4.043 4.043 0 0 0 .723 2.023c.062.091.127.171.193.252a1.55 1.55 0 0 1 .201.283 1.15 1.15 0 0 1 .133.483v.827a1.07 1.07 0 0 0 .034.321l.034.081a1.22 1.22 0 0 0 .21.246l.062.061a.91.91 0 0 0 .469.281 5.8 5.8 0 0 0 .658.09l.099.009c.299.02.585.031.858.031a8.86 8.86 0 0 0 1.376-.101l.116-.018.077-.083c.048-.045.101-.085.153-.126a2.9 2.9 0 0 0 .228-.192.603.603 0 0 0 .182-.435c.006-.15 0-.263 0-.376s-.008-.203 0-.305a1.765 1.765 0 0 1 .211-.886 2 2 0 0 1 .222-.299 3.4 3.4 0 0 0 .232-.299 1.4 1.4 0 0 0 .089-.163c.01.097.019.197.023.309.006.141 0 .281 0 .423s-.012.315 0 .524a.853.853 0 0 0 .247.606c.098.095.203.18.309.266.071.057.143.11.21.176l.116.111.157.025a11.85 11.85 0 0 0 1.868.14c.371 0 .758-.016 1.165-.044l.126-.01a7.5 7.5 0 0 0 .893-.124 1.236 1.236 0 0 0 .636-.392l.084-.084a1.62 1.62 0 0 0 .285-.342l.047-.111a1.54 1.54 0 0 0 .046-.443c0-.37-.008-.738 0-1.108.056.102.103.212.168.307a3.7 3.7 0 0 0 .233.299 2.17 2.17 0 0 1 .221.299 1.77 1.77 0 0 1 .212.886v.304c0 .101-.009.221 0 .378a.604.604 0 0 0 .183.435 2.9 2.9 0 0 0 .227.192c.052.039.105.08.154.126l.085.078.116.018a8.86 8.86 0 0 0 1.376.101c.274 0 .559-.011.858-.031l.1-.01a5.5 5.5 0 0 0 .658-.089.92.92 0 0 0 .469-.281l.062-.061a1.2 1.2 0 0 0 .209-.247l.035-.08a1.09 1.09 0 0 0 .034-.322v-.826a1.14 1.14 0 0 1 .133-.483 1.55 1.55 0 0 1 .2-.283c.065-.081.131-.163.193-.252a4.05 4.05 0 0 0 .722-2.023c.031-.988.062-1.976.123-2.962l.02-.324ZM8.448 15.893c-.145.222-.332.387-.466.613a2.14 2.14 0 0 0-.264 1.055c-.01.222.016.433.008.648a.294.294 0 0 1-.07.222c-.117.111-.256.201-.375.311a9.57 9.57 0 0 1-2.136.067 6.3 6.3 0 0 1-.724-.093.6.6 0 0 1-.282-.191 1.3 1.3 0 0 1-.199-.222.78.78 0 0 1-.017-.208v-.838a1.506 1.506 0 0 0-.171-.641 5.3 5.3 0 0 0-.42-.58 3.703 3.703 0 0 1-.658-1.825c-.03-.997-.062-1.984-.123-2.973a12.03 12.03 0 0 1 2.026-.157c.572-.015 1.144 0 1.717 0h.828c0 .099 0 .197.01.295l.008.151a5.7 5.7 0 0 0 .092.876 5.06 5.06 0 0 0 .741 1.783 4.9 4.9 0 0 0 .316.416 2.9 2.9 0 0 1 .303.416 1.7 1.7 0 0 1 .139.309 3 3 0 0 1-.283.566m6.58-1.363a2.2 2.2 0 0 0-.247.376c-.018.039-.028.079-.045.118a2.03 2.03 0 0 0-.189.775v1.166a1.1 1.1 0 0 1-.023.291 1.72 1.72 0 0 1-.271.304.815.815 0 0 1-.382.265 8.3 8.3 0 0 1-.982.131 12.82 12.82 0 0 1-2.899-.093c-.163-.154-.351-.277-.51-.433a.42.42 0 0 1-.096-.305c-.009-.3.024-.6.012-.902a3.024 3.024 0 0 0-.359-1.467c-.177-.315-.435-.554-.632-.852a4.54 4.54 0 0 1-.665-1.601 6.25 6.25 0 0 1-.088-.952c-.061-1.337-.083-2.675-.131-4.013a9.86 9.86 0 0 1 1.424-.122c.795-.025 1.589-.015 2.384-.009.776 0 1.551-.019 2.326 0 .465.011.937.022 1.407.052a10 10 0 0 1 1.344.165c-.059.974-.087 1.949-.119 2.924 0 .14-.012.278-.017.417s-.011.25-.015.374-.012.28-.017.42a5.206 5.206 0 0 1-.892 2.539c-.101.159-.212.294-.318.432m6.299-.263a3.703 3.703 0 0 1-.658 1.826 5.1 5.1 0 0 0-.419.579 1.5 1.5 0 0 0-.172.641q-.007.419 0 .838a.82.82 0 0 1-.018.209 1.33 1.33 0 0 1-.2.221.6.6 0 0 1-.281.19 6.4 6.4 0 0 1-.723.094 9.64 9.64 0 0 1-2.136-.066c-.121-.111-.259-.2-.375-.313a.29.29 0 0 1-.071-.221c-.007-.222.018-.432.009-.648a2.14 2.14 0 0 0-.265-1.056c-.131-.221-.321-.396-.466-.612a3.2 3.2 0 0 1-.349-.704c.015-.039.023-.072.042-.111a2.27 2.27 0 0 1 .272-.393c.089-.111.179-.221.262-.351a5.716 5.716 0 0 0 .981-2.813c0-.146.013-.292.018-.437h.927c.573 0 1.144-.013 1.717 0a12 12 0 0 1 2.026.155c-.061.988-.091 1.981-.121 2.972M16.88 12.24v1.019c.272.102.545.204.819.303v-.339l-.483-.178-.01-.332c.264.098.528.195.791.295v.664h.339v-.664c.264-.1.528-.197.791-.295l-.01.332-.483.178v.343c.275-.099.547-.201.82-.302v-1.019c-.423.141-.835.347-1.268.454a11.1 11.1 0 0 1-1.306-.459"/></svg>