<svg xmlns="http://www.w3.org/2000/svg" viewBox="0 0 24 24"><path fill="#44739e" fill-rule="evenodd" d="M2.065 2.774S3.626 1 4.194 1H22.29a.709.709 0 0 1 .71.71v18.096c0 .91-1.774 2.307-1.774 2.307V3.484a.709.709 0 0 0-.71-.71ZM1 5.317c0-1.012.821-1.833 1.833-1.833h15.85c1.012 0 1.833.821 1.833 1.833v15.85c0 1.012-.821 1.833-1.833 1.833H2.833C1.821 23 1 22.179 1 21.167Zm3.903.828c0 .686-.556 1.242-1.242 1.242s-1.242-.556-1.242-1.242.556-1.242 1.242-1.242 1.242.556 1.242 1.242M7.21 7.387c.686 0 1.242-.556 1.242-1.242S7.896 4.903 7.21 4.903s-1.242.556-1.242 1.242.556 1.242 1.242 1.242M12 6.145c0 .686-.556 1.242-1.242 1.242s-1.242-.556-1.242-1.242.556-1.242 1.242-1.242S12 5.459 12 6.145m2.306 1.242c.686 0 1.242-.556 1.242-1.242s-.556-1.242-1.242-1.242-1.241.556-1.241 1.242.556 1.242 1.241 1.242m4.791-1.242c0 .686-.556 1.242-1.242 1.242s-1.242-.556-1.242-1.242.556-1.242 1.242-1.242 1.242.556 1.242 1.242m-15.436 4.79c.686 0 1.242-.556 1.242-1.241s-.556-1.242-1.242-1.242-1.242.556-1.242 1.242.556 1.241 1.242 1.241m4.791-1.241c0 .685-.556 1.241-1.242 1.241s-1.242-.556-1.242-1.241.556-1.242 1.242-1.242 1.242.556 1.242 1.242m2.306 1.242c.686 0 1.242-.556 1.242-1.242s-.556-1.242-1.242-1.242-1.242.556-1.242 1.242.556 1.242 1.242 1.242m4.79-1.242c0 .686-.556 1.242-1.242 1.242s-1.241-.556-1.241-1.242.556-1.242 1.241-1.242 1.242.556 1.242 1.242m2.307 1.242c.686 0 1.242-.556 1.242-1.242s-.556-1.242-1.242-1.242-1.242.556-1.242 1.242.556 1.242 1.242 1.242M4.903 13.242c0 .686-.556 1.242-1.242 1.242s-1.242-.556-1.242-1.242S2.975 12 3.661 12s1.242.556 1.242 1.242m2.307 1.242c.686 0 1.242-.556 1.242-1.242S7.895 12 7.209 12s-1.241.556-1.241 1.242.556 1.242 1.242 1.242M12 13.242c0 .686-.556 1.242-1.242 1.242s-1.242-.556-1.242-1.242S10.072 12 10.758 12 12 12.556 12 13.242m2.306 1.242c.686 0 1.242-.556 1.242-1.242S14.992 12 14.306 12s-1.241.556-1.241 1.242.556 1.242 1.241 1.242m4.791-1.242c0 .686-.556 1.242-1.242 1.242s-1.242-.556-1.242-1.242S17.169 12 17.855 12s1.242.556 1.242 1.242m-15.436 4.79c.686 0 1.242-.556 1.242-1.242s-.556-1.242-1.242-1.242-1.242.556-1.242 1.242.556 1.242 1.242 1.242m4.791-1.242c0 .686-.556 1.242-1.242 1.242s-1.242-.556-1.242-1.242.556-1.242 1.242-1.242 1.242.556 1.242 1.242m2.306 1.242c.686 0 1.242-.556 1.242-1.242s-.556-1.242-1.242-1.242-1.242.556-1.242 1.242.556 1.242 1.242 1.242m4.79-1.242c0 .686-.556 1.242-1.242 1.242s-1.241-.556-1.241-1.242.556-1.242 1.241-1.242 1.242.556 1.242 1.242m2.307 1.242c.686 0 1.242-.556 1.242-1.242s-.556-1.242-1.242-1.242-1.242.556-1.242 1.242.556 1.242 1.242 1.242M4.903 20.339c0 .686-.556 1.242-1.242 1.242s-1.242-.556-1.242-1.242.556-1.242 1.242-1.242 1.242.556 1.242 1.242m2.307 1.242c.686 0 1.242-.556 1.242-1.242s-.556-1.242-1.242-1.242-1.242.556-1.242 1.242.556 1.242 1.242 1.242M12 20.339c0 .686-.556 1.242-1.242 1.242s-1.242-.556-1.242-1.242.556-1.242 1.242-1.242S12 19.653 12 20.339m2.306 1.242c.686 0 1.242-.556 1.242-1.242s-.556-1.242-1.242-1.242-1.241.556-1.241 1.242.556 1.242 1.241 1.242m4.791-1.242c0 .686-.556 1.242-1.242 1.242s-1.242-.556-1.242-1.242.556-1.242 1.242-1.242 1.242.556 1.242 1.242" clip-rule="evenodd"/></svg>