<svg xmlns="http://www.w3.org/2000/svg" viewBox="0 0 24 24"><path fill="#44739e" d="M13.921 19.529c-.063-.031-.125-.062-.187-.091.008-.21.018-.419.021-.627a13.4 13.4 0 0 1-3.544.046c.006.194.01.388.013.581l-.186.091a1.3 1.3 0 0 0 .181.183v.354l-.146.046v.125l.15.072v.417l-.149.071v.125l.147.045v.356a1.16 1.16 0 0 0-.18.182l.155.084a.81.81 0 0 0 .19.419c.126.11.31.149.443.247.1.089.162.221.259.319.121.083.285.098.41.177a1.22 1.22 0 0 1 .2.249h.554a1.22 1.22 0 0 1 .203-.251c.118-.069.263-.093.384-.158.111-.088.175-.242.286-.332.133-.096.318-.14.443-.247a.794.794 0 0 0 .188-.418l.156-.084a1.16 1.16 0 0 0-.18-.181v-.356l.145-.045v-.126l-.15-.071v-.416l.151-.072v-.125l-.145-.047v-.353a1.3 1.3 0 0 0 .188-.189m-.413.739v.101l-.121.058v.332c.04.018.08.038.12.057v.1l-.117.037v.285a.9.9 0 0 1 .144.146l-.126.067a.64.64 0 0 1-.15.333c-.103.085-.252.121-.358.198-.09.076-.137.201-.229.271-.098.051-.214.071-.309.127a.96.96 0 0 0-.163.201h-.443a.96.96 0 0 0-.161-.199c-.101-.063-.232-.077-.332-.144-.079-.075-.128-.183-.208-.256-.111-.077-.255-.111-.357-.198a.657.657 0 0 1-.152-.333l-.124-.067a.9.9 0 0 1 .144-.146v-.285l-.116-.037v-.1c.04-.019.08-.039.119-.057v-.332l-.12-.058v-.101l.116-.036v-.285a1.02 1.02 0 0 1-.146-.147l.149-.073c0-.155-.005-.31-.011-.466a10.8 10.8 0 0 0 2.847-.037c0 .167-.011.332-.018.503l.151.073a1.02 1.02 0 0 1-.146.147v.285ZM16.54 6.916a15.4 15.4 0 0 0-2.682-.222h-.157c-.568-.016-1.136-.011-1.705-.007h-.886c-.719 0-1.44-.011-2.147.011a10.4 10.4 0 0 0-1.498.129l-.451.07.016.456c.018.527.033 1.056.048 1.583.022.813.045 1.624.082 2.437l.008.149a5.7 5.7 0 0 0 .092.878A5.06 5.06 0 0 0 8 14.186a4.9 4.9 0 0 0 .315.416 2.9 2.9 0 0 1 .304.416 2.514 2.514 0 0 1 .288 1.226c.005.141 0 .282 0 .423s-.012.315 0 .524a.853.853 0 0 0 .247.606c.097.096.203.181.309.266.071.058.143.111.209.176l.117.111.157.025a11.85 11.85 0 0 0 1.867.14c.371 0 .759-.015 1.166-.043l.127-.015a7.5 7.5 0 0 0 .893-.124 1.236 1.236 0 0 0 .636-.392l.084-.084a1.66 1.66 0 0 0 .284-.342l.048-.111a1.54 1.54 0 0 0 .045-.443c0-.383-.007-.767 0-1.15a1.64 1.64 0 0 1 .181-.672 2.27 2.27 0 0 1 .273-.393c.088-.111.178-.222.261-.351a5.716 5.716 0 0 0 .981-2.814c.042-1.373.083-2.748.166-4.119l.028-.452Zm-.27 4.645a5.206 5.206 0 0 1-.893 2.539 7.4 7.4 0 0 0-.57.807 2.16 2.16 0 0 0-.233.886v1.167a1.1 1.1 0 0 1-.024.29 1.72 1.72 0 0 1-.27.305.815.815 0 0 1-.382.264 8.3 8.3 0 0 1-.983.131 12.74 12.74 0 0 1-2.898-.093c-.163-.153-.351-.277-.51-.433a.42.42 0 0 1-.096-.305c-.009-.3.024-.6.012-.901a3.024 3.024 0 0 0-.359-1.468c-.177-.315-.435-.554-.632-.852a4.54 4.54 0 0 1-.665-1.6 6.25 6.25 0 0 1-.089-.953c-.061-1.337-.083-2.675-.13-4.013a9.86 9.86 0 0 1 1.424-.122c.794-.024 1.589-.014 2.384-.009.775 0 1.551-.019 2.326 0a16.06 16.06 0 0 1 2.75.222c-.078 1.379-.121 2.759-.162 4.138m-6.037-2.819v1.417c.37.142.74.283 1.107.421v-.478l-.654-.248c-.006-.153-.009-.306-.014-.458.358.136.716.271 1.073.409v.929h.459v-.929c.357-.138.715-.273 1.074-.409 0 .152-.009.305-.014.458l-.655.248v.478c.372-.138.742-.279 1.107-.421V8.742c-.575.196-1.134.483-1.721.631a14.8 14.8 0 0 1-1.762-.631M7.639 6.213a17.5 17.5 0 0 1 2.247-.111h.311c.577.009 1.15 0 1.719 0 1.207-.005 2.352-.008 3.545.076a8.9 8.9 0 0 1 .886.111l.623.11v-.943a15.5 15.5 0 0 0-.143-2.671 1.644 1.644 0 0 0-.9-1.179 5.18 5.18 0 0 0-1.492-.424 20.16 20.16 0 0 0-3.355-.171 10.32 10.32 0 0 0-2.25.295 3.013 3.013 0 0 0-1.362.719 1.344 1.344 0 0 0-.41.927c-.024.793-.022 1.589-.02 2.382v.96Z"/></svg>