<svg xmlns="http://www.w3.org/2000/svg" viewBox="0 0 24 24"><path fill="#44739e" d="M22.193 13.047a7.04 7.04 0 0 0-1.447-.544 25 25 0 0 0-3.931-.677c-.594-.058-1.19-.11-1.786-.143-.184-.022-.37-.012-.55-.032-.22-.024-.448-.007-.672-.025-.387-.03-.782-.017-1.172-.02-.594-.006-1.189 0-1.784 0-.313 0-.624.031-.937.03-1.355.06-2.698.163-4.042.352a18.87 18.87 0 0 0-3.112.67 4.56 4.56 0 0 0-1.23.578.898.898 0 0 0-.394.537.566.566 0 0 0 .205.467 3.08 3.08 0 0 0 .912.55 7.4 7.4 0 0 0 1.027.351 22.9 22.9 0 0 0 3.327.609c.77.089 1.54.16 2.31.202.204.027.408.013.61.038s.413 0 .619.022c.304.027.603.015.907.022.566.022 1.132.014 1.698.007.372-.021.741 0 1.111-.028.206-.02.41 0 .615-.02.234-.023.468-.02.702-.046a3.7 3.7 0 0 0 .381-.023 32.4 32.4 0 0 0 4.034-.515 10.78 10.78 0 0 0 2.487-.758 2.16 2.16 0 0 0 .65-.461.616.616 0 0 0 .158-.331.583.583 0 0 0-.147-.396 1.88 1.88 0 0 0-.549-.416m.774.161a.74.74 0 0 0-.22-.266 3.25 3.25 0 0 0-.801-.457 8.4 8.4 0 0 0-.952-.33 21.46 21.46 0 0 0-3.038-.592c-.99-.132-1.967-.22-2.96-.275-.204-.025-.41-.008-.615-.032-.233-.025-.466-.006-.702-.024-.38-.025-.76-.014-1.141-.031-.429-.006-.858 0-1.287.01-.301 0-.606 0-.907.022-.206.017-.412 0-.619.023s-.407 0-.611.032a37.1 37.1 0 0 0-4.139.44 16.9 16.9 0 0 0-2.179.506 6.1 6.1 0 0 0-1.082.44 1.96 1.96 0 0 0-.57.452c-.116.119-.07.33-.066.485a.9.9 0 0 1 .428-.649 5.5 5.5 0 0 1 1.614-.702 21.2 21.2 0 0 1 3.035-.592q1.439-.188 2.89-.267c.255-.026.513-.017.77-.042.342 0 .681-.042 1.023-.033q1.374-.01 2.751 0c.296.026.594.018.89.046.182.012.363 0 .544.025.911.055 1.822.132 2.727.248a21.1 21.1 0 0 1 3.342.66 5.48 5.48 0 0 1 1.43.624 1.038 1.038 0 0 1 .451.561.53.53 0 0 1 0 .191c.045-.067.02-.14.019-.22a1.54 1.54 0 0 0-.025-.253m-20.704-1.04a9.3 9.3 0 0 1 1.32-.422 22.1 22.1 0 0 1 2.498-.463c1-.132 2.043-.227 3.101-.282h.007c.1-.012.2-.014.306-.017s.19 0 .287-.014c.133-.012.272-.013.406-.014s.268 0 .405-.014.303-.015.463-.015h.22c.474-.009.957 0 1.423 0h.371c.14 0 .277 0 .422.013.126.008.257.016.387.015a4.2 4.2 0 0 1 .422.016c.092.008.184.01.272.012a3.1 3.1 0 0 1 .305.017h.007a36.5 36.5 0 0 1 4.304.473 16.8 16.8 0 0 1 1.885.44 5.8 5.8 0 0 1 1.338.569 1.6 1.6 0 0 1 .357.317l.22.254-.027-.459c-.009-.149-.017-.302-.022-.454v-.045a3.3 3.3 0 0 1-.018-.411.79.79 0 0 0-.233-.582 2.65 2.65 0 0 0-.809-.522 9.57 9.57 0 0 0-1.634-.529 28.9 28.9 0 0 0-4.181-.622l-.403-.03c-.408-.031-.831-.063-1.247-.074-.159-.017-.318-.02-.472-.022-.102 0-.209 0-.313-.01-.357-.017-.719-.018-1.067-.018h-1.067c-.398 0-.809 0-1.216.028-.173-.005-.344 0-.509.017-.142.009-.288.017-.43.016h-.005a35.14 35.14 0 0 0-5.062.609 13.2 13.2 0 0 0-1.417.369 4.97 4.97 0 0 0-1.21.544 1.265 1.265 0 0 0-.474.513v.008a1.95 1.95 0 0 0-.063.581v.065a1.5 1.5 0 0 1-.013.155 1.4 1.4 0 0 0-.016.22 1.87 1.87 0 0 1-.017.32L1 13.137l.27-.322a2.49 2.49 0 0 1 .993-.647m-.934.041a1.8 1.8 0 0 0 .015-.179v-.067a1.76 1.76 0 0 1 .051-.505 1.056 1.056 0 0 1 .387-.406 4.73 4.73 0 0 1 1.149-.515 12.8 12.8 0 0 1 1.393-.365 35.1 35.1 0 0 1 5.021-.604c.15 0 .3-.007.441-.016.169-.011.33-.021.491-.015h.012c.402-.028.811-.029 1.211-.029h1.069c.347 0 .704 0 1.055.02.11.006.22.007.323.009a4.4 4.4 0 0 1 .453.022h.011c.413.009.833.041 1.24.072l.403.03a28.7 28.7 0 0 1 4.15.617 9.46 9.46 0 0 1 1.593.514 2.43 2.43 0 0 1 .738.473.55.55 0 0 1 .166.41 3.6 3.6 0 0 0 .02.441v.035c0 .091.008.182.012.273a1.5 1.5 0 0 0-.187-.139 6.05 6.05 0 0 0-1.393-.594 17.2 17.2 0 0 0-1.912-.447 36.5 36.5 0 0 0-4.327-.476 3 3 0 0 0-.33-.019c-.088 0-.171 0-.254-.011a4.6 4.6 0 0 0-.447-.017c-.122 0-.248-.007-.37-.015-.143-.009-.291-.018-.44-.013h-.368c-.468 0-.952-.008-1.431 0h-.22c-.158 0-.321 0-.484.014-.128.011-.259.012-.386.013s-.282 0-.427.016c-.088.009-.176.011-.27.013s-.22.006-.323.019c-1.063.055-2.11.149-3.116.282a22.5 22.5 0 0 0-2.523.469 9.4 9.4 0 0 0-1.36.434 3.33 3.33 0 0 0-.857.487v-.044a1.3 1.3 0 0 1 .022-.187Zm.965-1.912c.11-.049.22-.095.324-.133a12 12 0 0 1 1.633-.457 33.1 33.1 0 0 1 4.868-.602h.009a2.8 2.8 0 0 1 .288-.014c.103 0 .211 0 .319-.017a2.8 2.8 0 0 1 .306-.013h.204c.069 0 .156-.006.23-.011.117-.006.227-.013.338-.013h.68c.244 0 .497-.005.747 0h.93c.146 0 .296.006.44.013s.304.018.459.016c.099 0 .199.005.305.013s.22.016.33.015a36.9 36.9 0 0 1 4.291.459 14.4 14.4 0 0 1 2.498.632c.176.064.344.139.483.204l.231.11-.027-.275a.85.85 0 0 0-.147-.465 1.57 1.57 0 0 0-.43-.366 6.12 6.12 0 0 0-1.479-.591 22.8 22.8 0 0 0-3.437-.611c-.814-.085-1.54-.141-2.206-.172a3.2 3.2 0 0 0-.42-.021c-.118 0-.235-.005-.359-.013-.099-.006-.2-.012-.304-.013-.17 0-.341 0-.508-.01-.194 0-.395-.012-.594-.01-.387 0-.803 0-1.308.017-.207 0-.412 0-.612.015-.168.009-.342.018-.512.015h-.006c-.074 0-.145.009-.22.016a2.3 2.3 0 0 1-.271.014h-.005c-.77.043-1.564.11-2.357.205a21.9 21.9 0 0 0-2.827.5 8.4 8.4 0 0 0-1.265.419 2.94 2.94 0 0 0-.705.418.96.96 0 0 0-.257.32 1.02 1.02 0 0 0-.076.306l-.006.04-.036.249.234-.093c.077-.031.153-.064.227-.096m-.084-.288a.67.67 0 0 1 .182-.221 2.7 2.7 0 0 1 .636-.374 8 8 0 0 1 1.219-.402 21.7 21.7 0 0 1 2.793-.498c.786-.091 1.57-.159 2.334-.202a2.6 2.6 0 0 0 .296-.015c.068-.006.131-.011.196-.014.177 0 .355-.007.527-.016.195-.01.396-.021.592-.014h.009c.504-.016.917-.021 1.302-.017.194 0 .392 0 .583.009.169.005.345.01.515.01.095 0 .189.006.288.013.124.008.253.016.384.013a3.1 3.1 0 0 1 .386.02h.009c.666.031 1.384.087 2.193.17a22.6 22.6 0 0 1 3.388.601 5.86 5.86 0 0 1 1.41.562 1.29 1.29 0 0 1 .353.299.28.28 0 0 1 .042.077 5.5 5.5 0 0 0-.256-.102 14.7 14.7 0 0 0-2.547-.644A37.5 37.5 0 0 0 14.71 8.8h-.011c-.1 0-.199-.005-.304-.013a3.3 3.3 0 0 0-.331-.015c-.144 0-.292-.006-.44-.014s-.304-.017-.458-.015-.339 0-.504 0h-1.85c-.121 0-.24.007-.355.013-.074 0-.15.009-.226.011s-.127 0-.195 0a3.2 3.2 0 0 0-.336.015 2.8 2.8 0 0 1-.291.014 3.1 3.1 0 0 0-.313.017 33.1 33.1 0 0 0-4.905.611 12.2 12.2 0 0 0-1.672.467c-.11.038-.21.082-.311.126Z"/></svg>