<svg xmlns="http://www.w3.org/2000/svg" viewBox="0 0 24 24"><path fill="#44739e" d="M17.742 3.508c-.681-.014-11.625 1.398-12.95 1.895-.989.37-1.765.845-2.374 1.457-.991.996-1.182 1.966-1.024 3.668.143 1.543.853 6.662 1.207 7.72.391 1.171 1.111 2.069 2.298 2.197 3.623.396 4.478-1.629 12.902-1.611 2.551.006 3.82-1.128 4.349-2.116.617-1.163.498-2.692.488-3.501-.013-1.06-.615-6.08-.904-6.86-.187-.504-.581-1.424-1.314-1.984-.938-.716-1.703-.845-2.678-.865M9.749 8.987c.155-.008.364.061.448.088.655.21 3.934 1.373 4.954 1.896.029.016.063.029.097.043.145.062.345.147.349.395.002.236-.177.346-.321.434-.027.016-.055.034-.08.05-.213.144-.422.289-.632.435-.488.338-3.327 2.302-3.327 2.302-.242.186-.697.479-.87.387-.173-.094-.232-.729-.274-1.037l-.011-.068c-.051-.37-.459-3.894-.506-4.282-.014-.11-.081-.513.043-.605.033-.025.079-.035.13-.038m7.719-5.091h.01c.932.018 1.661.144 2.556.826.7.534 1.077 1.411 1.254 1.893.275.744.849 5.535.863 6.547.01.771.124 2.231-.468 3.339-.501.941-1.708 2.019-4.13 2.019h-.128c-7.224 0-8.553 1.584-11.331 1.584-.273 0-.56-.016-.867-.048-1.132-.124-1.818-.98-2.192-2.096-.338-1.011-1.014-5.894-1.152-7.366-.151-1.625.031-2.549.977-3.499.58-.584 1.321-1.039 2.267-1.391 1.254-.472 11.604-1.808 12.341-1.808m0-.85c-.467 0-3.526.38-6.088.734-2.563.354-5.778.838-6.544 1.124-1.058.396-1.897.914-2.564 1.584C1.046 7.721.896 9.003 1.049 10.674c.12 1.294.803 6.393 1.194 7.56.527 1.574 1.553 2.52 2.892 2.666a8.8 8.8 0 0 0 .957.054c1.174 0 2.104-.254 3.181-.548 1.694-.462 3.802-1.036 8.152-1.036h.128c1.066 0 3.674-.24 4.862-2.463.635-1.188.597-2.63.576-3.493a51 51 0 0 0-.006-.264c-.014-1.028-.592-5.953-.916-6.836-.376-1.018-.893-1.782-1.536-2.272-1.047-.8-1.938-.974-3.037-.996h-.008Z"/></svg>