<svg xmlns="http://www.w3.org/2000/svg" viewBox="0 0 24 24"><path fill="#44739e" d="M5.136 1A4.134 4.134 0 0 0 1 5.136v13.728A4.134 4.134 0 0 0 5.136 23h13.728A4.134 4.134 0 0 0 23 18.864V5.136A4.134 4.134 0 0 0 18.864 1Zm2.041 5.162h9.646a3.428 3.428 0 0 1 3.427 3.429v4.82a3.428 3.428 0 0 1-3.427 3.428H7.177a3.428 3.428 0 0 1-3.427-3.43V9.591a3.428 3.428 0 0 1 3.427-3.428Zm2.728 3.443a.181.181 0 0 0-.172.18v4.438a.18.18 0 0 0 .261.164l4.511-2.153a.181.181 0 0 0 .004-.324L9.998 9.624a.18.18 0 0 0-.092-.02Z"/></svg>