<svg xmlns="http://www.w3.org/2000/svg" viewBox="0 0 24 24"><path fill="#44739e" d="M18.2637 2.7363c-.742-.0151-12.6815 1.5252-14.127 2.0664-1.0787.4038-1.925.922-2.5898 1.5899C.466 7.4794.258 8.5373.4297 10.3946c.1565 1.6826.9304 7.2673 1.3164 8.4218.4268 1.2767 1.2125 2.2568 2.5078 2.3965 3.9525.4321 4.8847-1.7775 14.0742-1.7578 2.7837.0065 4.1673-1.2305 4.7442-2.3086.6734-1.268.5439-2.9367.5332-3.8184-.015-1.1567-.6711-6.6332-.9864-7.4843-.2037-.55-.6336-1.553-1.4336-2.1641-1.023-.7813-1.8581-.9214-2.9218-.9434M9.5449 8.713c.169-.009.3966.0662.4883.0957.7142.2291 4.2913 1.4987 5.4043 2.0684.0322.0174.069.0315.1055.0468.1587.0677.3765.161.3808.4317.0021.2575-.193.3766-.3496.4726-.03.0175-.06.0372-.0879.0547-.2316.1571-.46.3153-.6894.4746-.5319.3688-3.629 2.5117-3.629 2.5117-.2637.203-.7604.5223-.9491.422-.1888-.1027-.2538-.7949-.2989-1.131l-.0117-.0742c-.0558-.4037-.5013-4.2484-.5527-4.6718-.015-.12-.0883-.5598.0468-.6602.036-.0267.0863-.038.1426-.041m8.4207-5.5539h.0107c1.0166.0197 1.8122.1572 2.788.9014.7635.5827 1.1753 1.5386 1.3683 2.0645.3002.8119.9264 6.0388.9414 7.143.0108.8403.1352 2.4335-.5104 3.6425-.5468 1.0258-1.8636 2.2021-4.5058 2.2021h-.1393c-7.8814 0-9.3312 1.7285-12.3615 1.7285-.298 0-.6112-.0175-.9458-.0524-1.2352-.1353-1.9837-1.0694-2.3912-2.2872-.3689-1.1021-1.1066-6.4294-1.2567-8.0356-.1651-1.7722.0343-2.7804 1.0658-3.817.6327-.6374 1.4412-1.1328 2.4728-1.5169C5.87 4.617 17.1614 3.159 17.9656 3.159m0-.9275c-.5104 0-3.8474.4147-6.6418.801-2.7965.3862-6.303.9144-7.1393 1.2265-1.1538.432-2.0696.9973-2.7966 1.7284C.0497 7.3318-.1133 8.7307.054 10.5531c.1309 1.412.875 6.975 1.3018 8.2473.5748 1.7176 1.6943 2.7499 3.1547 2.9092a9.6 9.6 0 0 0 1.0445.0589c1.2803 0 2.2947-.2772 3.47-.598 1.8486-.5041 4.1476-1.1305 8.8935-1.1305h.1394c1.1624 0 4.0083-.2619 5.3036-2.6865.6927-1.2964.652-2.87.6284-3.8105a56 56 0 0 0-.0065-.2881c-.015-1.1218-.6455-6.4949-.9993-7.4573-.4096-1.1109-.9737-1.9446-1.675-2.4793-1.143-.873-2.1145-1.0628-3.3134-1.0868h-.0086z"/></svg>