<svg xmlns="http://www.w3.org/2000/svg" viewBox="0 0 24 24"><path fill="#44739e" d="m13.026 6.084 3.532-4.36a.304.304 0 0 0-.056-.44l-.279-.216a.33.33 0 0 0-.456.054l-3.996 4.909a10 10 0 0 0-1.099.078L7.86 2.732a.324.324 0 0 0-.218-.119.328.328 0 0 0-.238.069l-.277.218a.31.31 0 0 0-.12.212.304.304 0 0 0 .073.232l2.462 2.961a8.728 8.728 0 0 0-7.072 8.207C2.47 19.201 6.735 23 12 23s9.53-3.802 9.53-8.491c0-4.374-3.727-7.974-8.504-8.425m3.827 11.378c-.238 1.072-.715 1.488-1.914 1.579a27.73 27.73 0 0 1-6.433-.455l-.414-.084-.089-.029c-.349-.076-.63-.15-.979-.249a1.9 1.9 0 0 1-.345-.119c-.034-.014-.066-.031-.098-.047a1.818 1.818 0 0 1-.968-1.325 15.05 15.05 0 0 1-.098-4.669 1.837 1.837 0 0 1 1.244-1.453 24.93 24.93 0 0 1 8.473-1.024 1.857 1.857 0 0 1 1.503 1.025q.033.0675.06.138a1.67 1.67 0 0 1 .092.327c.04.22.073.457.103.704l.018.146c.013.119.026.253.038.383a19.32 19.32 0 0 1-.193 5.147Zm-9.463.235-.014-.075a14.38 14.38 0 0 1-.079-4.378 1.072 1.072 0 0 1 .715-.827 23.68 23.68 0 0 1 6.884-1.065c.432 0 .848.018 1.273.052a1.167 1.167 0 0 1 .834.382c-.03-.247-.063-.484-.103-.704a1.67 1.67 0 0 0-.092-.327 1.6 1.6 0 0 0-.06-.138 2.86 2.86 0 0 0-.476-.097h-.013c-.452-.036-.895-.056-1.354-.056a24.67 24.67 0 0 0-7.182 1.118 1.95 1.95 0 0 0-1.285 1.515 15.27 15.27 0 0 0 .08 4.697v.04l.019.061c.017.058.037.112.058.167.032.017.065.034.098.048a1.9 1.9 0 0 0 .345.119c.349.099.631.173.98.249a1.52 1.52 0 0 1-.628-.781"/></svg>