<svg xmlns="http://www.w3.org/2000/svg" viewBox="0 0 24 24"><path fill="#44739e" d="M7.429 5.571A6.435 6.435 0 0 0 1 12.004a6.432 6.432 0 0 0 12.165 2.909h2.672c.638 0 1.214-.04 1.799-.507.422-.334.686-.81.809-1.43v1.928h1.225v-2.267h2.89v-1.008h-2.897l.019-.408c.004-.664.207-1.065 1.17-1.065H23v-1.02h-2.583c-1.391 0-1.963.779-1.963 1.998v.118c-.233-1.434-1.086-2.117-2.648-2.117h-2.617a6.433 6.433 0 0 0-5.76-3.564m.923 3.565h3.149c1.597 0 1.826 1.117 1.826 1.741 0 .665-.273 1.717-1.826 1.717h-.773c-.968 0-1.175.349-1.175 1.012v.308h3.617v.985H8.317v-1.428c0-1.224.573-1.947 1.959-1.947h.8c.633 0 1.008-.128 1.008-.664 0-.555-.375-.708-1.026-.708H8.353V9.135Zm6.077 1.02h1.349c1.061 0 1.443.455 1.443 1.87 0 1.413-.377 1.866-1.443 1.866h-1.349Z"/></svg>