<svg xmlns="http://www.w3.org/2000/svg" viewBox="0 0 24 24"><path fill="#44739e" d="M8.883 14.416c-.005-.005-.01-.115-.01-.243v-.232h2.581v.233c0 .195-.005.236-.025.244-.034.013-2.533.012-2.546-.001Zm-4.409-1.232c-.261-.05-.539-.238-.689-.465-.074-.111-.161-.328-.197-.491-.043-.196-.04-.634.005-.82.154-.622.583-.96 1.163-.915.284.022.504.111.671.27l.101.098.005-.639.005-.64.288-.004.288-.005-.005 1.782-.004 1.782-.272.004-.272.005v-.167l-.001-.167-.035.049c-.067.094-.191.202-.285.25-.187.094-.499.124-.767.073Zm.552-.464c.244-.074.43-.305.497-.618.031-.145.021-.497-.018-.621-.075-.238-.218-.414-.39-.479-.136-.051-.348-.062-.465-.023-.232.077-.386.249-.47.527-.03.099-.037.161-.038.341-.001.243.017.341.091.5.149.316.472.469.793.373m7.933.466c-.423-.08-.777-.348-.945-.715-.135-.296-.16-.768-.056-1.075.075-.221.18-.381.365-.554.266-.249.57-.363.965-.362.321 0 .56.066.775.211.119.081.304.278.376.399.121.204.192.488.198.79l.002.17-.945.004-.946.005.011.085c.024.184.137.35.293.429.095.049.314.069.423.04.098-.027.213-.107.27-.189l.052-.073h.789v.035c0 .02-.033.105-.074.19-.105.215-.261.37-.478.477-.234.114-.364.143-.681.151-.191.004-.304-.001-.394-.018m.81-1.691c-.022-.158-.137-.318-.278-.388-.118-.057-.286-.06-.41-.007-.144.062-.285.246-.32.418l-.011.053h1.029Zm1.913 1.685c-.155-.038-.253-.088-.353-.181-.116-.106-.183-.225-.234-.415l-.043-.161-.007-.937-.006-.938h.863v.777c0 .427.004.811.01.853.016.114.096.235.187.282.1.051.282.055.388.008.096-.043.198-.157.24-.268.032-.087.034-.124.036-.85.002-.418.007-.77.011-.781.006-.017.099-.021.428-.021h.42v2.577c0 .006-.184.012-.409.012h-.41l-.009-.168-.008-.167-.062.081c-.096.127-.314.258-.502.302-.136.032-.397.03-.54-.006Zm5.633.005c-.25-.046-.446-.136-.623-.287-.207-.175-.332-.375-.403-.645-.054-.204-.061-.576-.015-.756.035-.135.121-.322.206-.447.114-.168.359-.365.57-.459.278-.122.671-.15.987-.068.468.122.797.482.91.999.017.076.036.228.042.337l.011.198h-1.906l.011.077c.028.195.141.362.299.445.064.033.097.038.252.038.162 0 .186-.004.26-.043.087-.046.196-.147.212-.196.008-.026.04-.028.414-.028.222 0 .404.002.404.005s-.014.048-.032.099c-.128.372-.451.632-.901.725-.173.036-.521.039-.698.007Zm.811-1.676c-.012-.071-.09-.241-.132-.288-.092-.103-.218-.157-.365-.156-.154.001-.251.041-.356.148-.084.087-.125.164-.169.321l-.01.036h1.042Zm-3.124 1.622c-.157-.037-.237-.08-.32-.17-.08-.086-.106-.134-.144-.263-.025-.084-.029-.192-.035-.84l-.006-.742h-.209c-.174 0-.209-.004-.218-.026-.005-.014-.009-.13-.009-.258s.004-.245.009-.259c.009-.021.044-.025.22-.025h.209v-.779h.86v.779h.52l-.004.28-.005.28-.255.004-.256.005-.001.06c0 .034 0 .316.001.629.002.624 0 .612.102.674.043.027.082.032.235.032h.182v.308c0 .216-.005.311-.018.319-.011.006-.181.014-.378.017-.301.004-.378 0-.48-.024Zm-17.991.003c-.006-.005-.011-.099-.011-.208v-.197l.15-.18c.083-.098.205-.247.272-.329s.129-.159.138-.169.1-.12.202-.245c.103-.125.191-.231.196-.236.006-.004.075-.088.154-.186s.176-.215.214-.26.07-.086.07-.093c0-.006-.292-.012-.649-.012h-.65v-.455h2.111v.404l-.15.175c-.082.097-.153.179-.159.184-.005.004-.139.161-.298.349a452 452 0 0 1-.546.641c-.102.121-.21.245-.239.276s-.053.062-.053.069.34.012.755.012h.755v.471H2.147c-.619 0-1.13-.005-1.136-.011m6.003-.009c-.005-.011-.01-.496-.012-1.076l-.004-1.055-.203-.003-.203-.002v-.429l.203-.003.203-.002.011-.236c.019-.442.133-.628.436-.707.113-.029.438-.038.597-.016l.085.012-.004.23c-.004.195-.009.229-.029.223-.014-.004-.088-.01-.166-.014-.122-.006-.15-.003-.216.029-.105.05-.124.101-.118.313l.005.165.235.003.235.003.001.212c.001.14-.004.213-.016.214-.009 0-.116.003-.236.003l-.219.003-.009 1.072-.008 1.071-.28.004c-.216.004-.283 0-.288-.016Zm1.875-1.766V9.573l.426.005.426.004v.646c0 .354.004.645.008.645.005-.001.025-.026.045-.057.079-.122.32-.268.524-.317.12-.029.394-.024.53.009.308.076.502.276.585.601.026.102.029.207.029 1.071v.957l-.426.005-.426.004v-.809c0-.926-.001-.936-.12-1.05-.144-.138-.412-.138-.574 0-.037.032-.088.1-.113.151l-.045.093-.009.803-.008.804-.426.004-.426.005Z"/></svg>