<svg xmlns="http://www.w3.org/2000/svg" viewBox="0 0 24 24"><path fill="#44739e" d="M8.6 14.6362c-.006-.006-.0115-.1256-.0115-.2652v-.2539h2.8156v.255c0 .2125-.005.2565-.0271.2652-.0372.0143-2.7627.0133-2.777-.001zm-4.8104-1.3449c-.2842-.0547-.5876-.2591-.7518-.5065-.0808-.1217-.1756-.3583-.2147-.5361-.047-.2138-.0437-.692.006-.894.1674-.6789.6356-1.0476 1.268-.9988.3105.024.5502.1207.732.2952l.111.1067.005-.6977.005-.6976.3144-.005.3144-.005-.005 1.9439-.005 1.9438-.2966.005-.2966.005-.0006-.1819-.0005-.182-.0381.0532c-.0734.1025-.2084.2206-.311.2725-.2043.103-.5449.1353-.8363.0793zm.602-.5062c.267-.08.47-.332.5429-.6734.0339-.1589.0227-.5429-.0196-.6774-.0818-.2597-.2383-.4518-.4258-.5227-.1484-.0561-.3797-.0677-.5072-.0254-.2536.0842-.421.2717-.5128.5747-.033.1087-.0405.1761-.0414.3718-.001.2651.0183.3721.0997.5455.1622.3455.5148.5115.8643.4068zm8.6547.5082c-.4615-.087-.8478-.3793-1.031-.78-.1475-.3223-.1744-.8377-.0612-1.172.0817-.2416.1965-.4159.3983-.6047.29-.2712.6216-.3956 1.0528-.395.3503.0006.6112.0718.845.2306.1298.0882.3322.3026.4109.4353.1316.222.209.5318.2151.8612l.003.1854-1.0317.005-1.0317.005.0121.0928c.0262.201.1495.3816.3199.4687.103.0527.3424.075.4608.0428.1072-.029.2324-.1163.2955-.2058l.0564-.08h.8609v.039c0 .0215-.0367.1144-.0815.2065-.1141.2345-.2838.4041-.5206.5202-.2554.1253-.397.1567-.7437.1649-.2083.005-.3317-.0006-.4298-.019zm.8836-1.8438c-.0237-.173-.149-.3477-.3036-.4233-.1286-.063-.312-.0662-.4473-.008-.1564.0673-.3105.2684-.3492.456l-.0119.0576h1.1233zm2.0868 1.8375c-.1686-.0415-.2755-.096-.3854-.197-.1267-.1162-.1993-.2452-.255-.4527l-.0472-.1759-.007-1.0226-.007-1.0227h.9415v.8475c0 .4662.005.8848.0113.9302.017.1246.1047.2573.2033.3078.11.0563.308.0607.4233.009.1051-.0468.2164-.1711.2619-.2928.0353-.0945.037-.1345.0397-.9274.002-.4558.007-.839.0116-.8517.007-.018.108-.023.4673-.023h.4585v2.8112c0 .007-.2012.0133-.447.0133h-.4472l-.009-.1827-.009-.1827-.0676.0888c-.1055.1386-.3425.2812-.5474.3296-.1488.035-.4334.0319-.5896-.007zm6.1452.006c-.2728-.0504-.4862-.1486-.6798-.3129-.2258-.1914-.3624-.41-.44-.7037-.0586-.2226-.0663-.6287-.0155-.8248.0382-.1475.1321-.3519.2242-.488.124-.1831.3916-.3985.622-.5004.3027-.1339.7323-.1635 1.0767-.0742.511.1324.8697.526.993 1.0896.0182.083.0385.2483.0453.3674l.0122.2165h-2.0794l.0122.0841c.031.212.1541.395.3264.4846.0693.0361.1052.0415.2745.042.1773.0003.2028-.004.2843-.047.0942-.0497.2136-.1603.2305-.2134.009-.029.0442-.0314.4515-.0314.2428 0 .4415.003.4415.006s-.0157.0518-.035.1077c-.1397.4062-.4924.69-.983.7913-.189.039-.5688.0423-.7617.007zm.8845-1.8281c-.0133-.078-.0982-.2635-.1441-.3148-.1005-.1124-.2372-.1709-.3974-.1701-.168.0008-.2741.045-.3885.1616-.0924.0943-.1372.179-.1848.3498l-.0111.0398h1.1373zm-3.408 1.7694c-.171-.041-.2586-.0874-.349-.1855-.087-.0945-.1157-.147-.157-.2873-.027-.0922-.032-.2097-.0383-.916l-.007-.81h-.227c-.1907 0-.2288-.004-.2378-.028-.006-.0155-.0107-.1423-.0107-.282s.005-.2664.0107-.2818c.009-.0235.0472-.028.239-.028h.2284v-.85h.9385v.85h.5675l-.005.3054-.005.3055-.2789.005-.2789.005-.0009.066c-.0004.0363-.0001.3448.0009.6857.002.6806-.0002.6676.1116.7357.0472.0288.0896.0345.2559.0346h.1992v.3355c0 .2358-.006.3392-.0206.3481-.0113.007-.1966.0153-.4117.0184-.3286.005-.4124.0006-.524-.026zm-19.6266.003c-.006-.006-.0118-.1087-.0118-.227v-.2153l.1638-.1958c.0901-.1076.2236-.2695.2966-.3597s.1408-.1728.1506-.1837c.01-.0109.1091-.1313.2207-.2677.1115-.1363.2076-.2519.2135-.2567.006-.005.0815-.0965.168-.2037s.1916-.2345.2335-.283.0762-.0943.0762-.1018c0-.007-.3187-.0136-.7083-.0136H.1063v-.4959h2.302v.4403l-.1628.1916c-.0896.1054-.1676.1956-.1734.2004-.006.005-.1524.1762-.326.3808a493 493 0 0 1-.5948.6995c-.1119.1315-.2294.2669-.261.301-.0318.034-.0578.068-.0579.0753 0 .007.3704.0133.8233.0133h.8235v.5135H1.2514c-.6753 0-1.2331-.005-1.2396-.0118m6.5487-.01c-.005-.0124-.0105-.5406-.013-1.1736l-.004-1.151-.2213-.003-.2213-.003v-.4675l.2213-.003.2214-.003.0112-.2568c.021-.4827.1457-.6848.4758-.7712.1233-.0323.4781-.0419.6512-.0177l.0934.0131-.005.2506c-.004.2126-.009.2496-.0315.2436-.0146-.004-.0958-.0108-.1804-.0154-.134-.007-.1645-.003-.2366.0317-.1138.0551-.1346.1104-.1281.3414l.005.1806.2568.003.2567.003.001.2316c.0008.1522-.005.232-.0177.2329-.0104.0007-.1264.003-.258.004l-.239.003-.009 1.1687-.009 1.1688-.3058.005c-.235.004-.3079-.0004-.3144-.0177zm2.0457-1.9262V9.3526l.4649.005.4648.005v.7039c0 .3871.004.7038.009.7037.005-.0002.0267-.0277.0485-.0614.0866-.1337.3489-.2926.5713-.3461.1316-.0317.4303-.0264.579.0102.3352.0825.547.3001.6378.6554.0283.1107.0314.2256.0315 1.1676l.0001 1.0448-.4648.005-.4648.005v-.8825c0-1.0104-.001-1.0214-.1309-1.1462-.1566-.1508-.4493-.1506-.6259.0006-.0404.0346-.0958.1084-.1232.1642l-.0498.1013-.009.8766-.009.8765-.4648.005-.4648.005z"/></svg>