<svg xmlns="http://www.w3.org/2000/svg" viewBox="0 0 24 24"><path fill="#44739e" d="M12.5503 15.4895c-.2885-.07-.5229-.2823-.6306-.5713-.0361-.0967-.0397-.1523-.046-.6958l-.007-.5906-.6223-.6235-.6223-.6234h1.2467v-1.5341c0-1.0176.007-1.5715.0203-1.6454.0615-.338.3479-.6291.6884-.7.071-.0147 1.6015-.0205 5.3627-.0203 5.7616.0003 5.385-.007 5.5986.108.1216.0654.2878.2316.3532.3532.1122.2084.1078.0833.1078 3.0542s.004 2.8458-.1078 3.0542c-.0654.1216-.2316.2878-.3532.3532-.2138.115.1655.1079-5.6136.1064-4.1606-.001-5.2988-.006-5.3751-.0248zm2.0375-1.1733v-.3188h-.375v-2.2313h-1.2v.6375h.3937v1.5938h-.3938v.6375h1.5751zm1.7625 0v-.3188h-.3V12.517l.0746-.038c.1828-.0934.5796-.1233.7227-.0547.1008.0484.1022.0592.1025.8466l.0002.7266h-.3v.6375h1.4813v-.6375h-.3938v-.8448c0-.6995-.005-.867-.0294-.974-.073-.321-.2914-.424-.8684-.4096-.2444.006-.2619.009-.3777.0666-.0668.0331-.1847.1108-.262.1727l-.1406.1125-.005-.1773-.005-.1774h-1.1612v.6188h.375v1.6125h-.3937v.6375h1.4812zm3.6188.0006v-.3181l-.2015-.005-.2016-.005-.005-.7922-.005-.7922h.5441v-.6375h-.5492l.0118-.1528c.017-.2216.018-.2222.3248-.2222h.2502v-.6h-.4493c-.5309 0-.6042.0163-.7511.1666-.1226.1255-.1496.2245-.1496.548v.2604h-.3938v.6375h.3938v1.5938h-.3938v.6375h1.575v-.3181zm2.4483.2868c.1188-.0403.2982-.2182.3694-.3663.1115-.2316.1168-.2787.1168-1.0368 0-.6015-.004-.7094-.0326-.8117-.0524-.1896-.1272-.3235-.2499-.4478-.1757-.178-.1737-.1777-1.0517-.171l-.7283.006-.0945.0499c-.1816.0959-.3308.311-.3977.5736-.048.188-.048 1.415 0 1.6031.0785.308.2701.5494.4854.6113.0351.0101.3789.019.7769.0198.6207.001.726-.002.8063-.0297zm-1.2154-.639c-.016-.018-.0427-.0787-.0592-.1346-.0413-.1405-.0435-1.1208-.003-1.2736.0468-.1757.0354-.1715.4713-.1715h.3801l.0375.0476c.0643.0818.0778.2126.0778.7586s-.0134.6768-.0778.7586l-.0375.0476h-.38c-.3385 0-.3834-.004-.4094-.0328zm-7.008-2.911v-.3375h-.825v.675h.825zM.001 14.2552l.001-.3609 1.124-1.1856c.6182-.652 1.124-1.19 1.124-1.1953 0-.005-.2785-.01-.6188-.01h-.6187v.6938h-.9v-1.4814h3.45l-.001.3797-.001.3797-1.1133 1.172c-.6123.6445-1.1139 1.1782-1.1145 1.1859-.0007.008.3025.0141.6738.0141h.675v-.7688h.8813v1.5376H.0002Zm4.9022.3484c-.5233-.0328-.7507-.2656-.8668-.8874-.0288-.154-.0332-.2924-.0329-1.022.0004-.7202.005-.8709.0333-1.0294.1004-.5662.293-.8173.6952-.9062.1855-.041.846-.0402 1.0386.001.166.0357.3164.1136.486.2517.0703.0573.1384.1123.1513.1223.0186.0144.0234-.079.0234-.453v-.471H5.925v-.8251H7.5v4.4064h.525v.825H6.4312v-.2438c0-.134-.005-.2437-.0113-.2437-.006 0-.0588.0433-.1168.0962-.1525.1394-.348.2717-.4693.3178-.141.0535-.5846.0825-.9307.0608zm1.2492-.8575c.0967-.0248.199-.054.2274-.0652l.0516-.02v-1.9504l-.0934-.0473c-.1695-.086-.28-.1033-.6558-.1032-.1912 0-.3786.009-.4164.0192-.0817.0227-.1732.1204-.2054.2192-.032.0984-.0464 1.5393-.0168 1.682.0253.1218.1111.2474.1936.2833.0435.0189.1524.0262.3996.0267.299.0006.3609-.005.5156-.0443m2.304.467v-.4032h.5062v-2.25h-.525v-.8438h.5211l.008-.361c.007-.3114.0136-.3763.0489-.4734.081-.2226.2335-.3718.4534-.4435.1105-.036.1766-.0406.7078-.0488l.586-.009v.8108h-.3066c-.3257 0-.4116.0157-.4472.0817-.0119.0221-.0255.131-.03.2418l-.008.2016h.736v.8438h-.7313v2.25h.5625v.8063H8.457z"/></svg>