<svg xmlns="http://www.w3.org/2000/svg" viewBox="0 0 24 24"><path fill="#44739e" d="M1 13.272c0-7.437.003-7.988.034-8 .019-.008 2.696-.581 5.949-1.275l5.915-1.261.005 2.513c.005 2.301.008 2.514.039 2.514.018 0 2.278-.479 5.021-1.063s5-1.063 5.013-1.063c.018 0 .024 1.551.024 6.541 0 6.211-.002 6.541-.036 6.551-.02.006-2.678.574-5.908 1.262a7383 7383 0 0 0-5.918 1.262l-.046.011v-1.077c0-1.015-.002-1.076-.036-1.066-.046.013-10.027 2.139-10.044 2.139-.006 0-.012-3.595-.012-7.988m3.394 4.684c.693-.149 1.267-.275 1.275-.28.008-.006.016-.848.016-1.873V13.94l.131-.024c.25-.046.338-.024.399.097.035.07.038.193.048 1.809l.01 1.734 1.269-.27 1.269-.27v-4.393l-.047-.185c-.192-.754-.701-1.04-1.493-.84-.6.152-1.101.447-1.598.943l-.27.268-.023-.122c-.033-.176-.116-.298-.25-.368-.187-.097-.272-.088-1.439.159-.563.119-1.027.217-1.032.217s-.008.427-.008.95v.949l.046-.011c.026-.006.128-.028.227-.05l.181-.038v1.865c0 1.026.006 1.866.014 1.866s.582-.122 1.275-.27m12.895-.348 2.662-.568c.508-.108.928-.197.934-.197s.01-.228.01-.507c0-.473-.003-.506-.036-.497-.02.006-.496.109-1.058.228l-2.373.506c-.744.158-1.475.314-1.626.345l-.273.058v.501c0 .276.005.501.011.501.007 0 .794-.167 1.749-.37m-5.25-1.196c1.052-.223 1.624-.491 2.36-1.104l.263-.219v-.63c0-.49-.005-.629-.026-.628-.014 0-.344.069-.733.152l-.708.152-.128.129c-.172.174-.309.275-.48.352-.344.157-.66.075-.803-.206-.041-.082-.101-.311-.085-.327.002-.003.719-.156 1.592-.342l1.588-.336.014-.082c.027-.153.018-.75-.015-.972-.058-.39-.204-.792-.381-1.049-.401-.583-1.114-.874-1.957-.799-1.352.12-2.468.839-3.006 1.934-.381.775-.483 1.706-.278 2.522.18.718.623 1.218 1.265 1.43.262.086.41.103.829.094.34-.006.431-.016.689-.071m-.369-3.342c.001-.093.068-.338.124-.451.073-.148.219-.288.32-.307.21-.04.398.176.436.498l.012.104-.276.058a84 84 0 0 0-.446.095c-.157.034-.17.034-.17.003m6.439 2.051c1.696-.358 2.793-1.522 2.97-3.153.081-.739-.065-1.477-.385-1.948-.262-.385-.624-.635-1.11-.765-.192-.052-.236-.056-.64-.057-.373-.001-.466.006-.67.047-.859.173-1.511.504-2.043 1.036-.271.271-.458.531-.629.876q-.383.773-.383 1.651c0 .843.261 1.518.745 1.925.248.209.532.342.896.419.281.059.891.044 1.249-.031m-.073-1.62c-.11-.046-.213-.242-.272-.517-.058-.274-.052-1.026.011-1.318.078-.359.188-.557.361-.646.14-.072.255-.003.353.21.086.189.116.373.129.785.013.418-.01.703-.078.962-.104.397-.305.606-.504.524M3.884 10.908l1.14-.242v-.523c0-.288-.007-.523-.016-.523s-.144.028-.3.062-.287.062-.292.062-.012.085-.015.189l-.006.189-.361.078c-.198.042-.364.074-.368.07s.278-.438.625-.965l.631-.958v-.335c0-.309-.003-.334-.037-.325-.049.014-2.183.468-2.2.468-.007 0-.013.219-.013.487v.487l.047-.011c.025-.006.15-.032.277-.057l.232-.045.005-.166.006-.166.337-.07c.186-.039.342-.066.347-.061.004.004-.275.44-.621.966l-.63.957v.347c-.001.321.002.347.035.337.02-.005.55-.119 1.177-.252m2.738-.565c.281-.072.477-.208.63-.437.06-.091.084-.113.084-.081 0 .15.129.269.291.269.091.001.682-.11.721-.134.011-.007.02-.155.02-.329v-.317l-.121.011c-.206.019-.189.186-.189-1.879 0-1.426-.006-1.791-.026-1.784-.014.006-.265.06-.557.121l-.531.112v.625l.087-.019c.049-.01.109-.023.135-.029l.046-.01V7.5l-.042-.053c-.023-.029-.093-.078-.155-.109-.312-.152-.813-.037-1.13.259-.231.216-.363.486-.44.898-.054.292-.055.902 0 1.135.093.399.274.631.562.72.147.045.424.042.615-.008Zm-.09-.699c-.153-.082-.247-.374-.247-.767 0-.544.171-.906.457-.971.106-.023.122-.022.209.02.173.084.261.348.26.776-.001.493-.137.827-.381.941-.105.048-.209.049-.298.001m3.012.063.753-.159.006-.325c.003-.198-.002-.325-.014-.325-.019 0-.264.048-.369.072l-.046.011V7.276l.341-.069.34-.07V6.81c0-.18-.004-.327-.009-.327s-.159.033-.342.072c-.183.04-.341.072-.352.072s-.019-.13-.019-.311c0-.245.007-.327.033-.382.052-.109.14-.16.291-.17l.13-.008v.126c0 .151-.017.147.318.075.131-.029.243-.052.249-.052.007 0 .009-.179.006-.397l-.006-.397-.258.004c-.781.015-1.283.218-1.465.594-.087.179-.106.296-.118.704l-.011.394-.142.026-.142.025v.328c0 .181.008.329.016.329s.048-.009.088-.019a6 6 0 0 1 .129-.031l.056-.013v1.709l-.134.027-.134.027v.326c0 .248.006.326.026.325.014 0 .365-.072.779-.16Z"/></svg>