<svg xmlns="http://www.w3.org/2000/svg" viewBox="0 0 24 24"><path fill="#44739e" d="M-.0001 13.3878c0-8.1137.003-8.7146.0375-8.728.0206-.008 2.941-.6336 6.4897-1.3903l6.4521-1.3758.006 2.7418c.005 2.5103.009 2.7418.0422 2.7418.0201 0 2.4852-.5218 5.4782-1.1595s5.4536-1.1595 5.4681-1.1595c.0201 0 .0264 1.6925.0264 7.1354 0 6.7762-.002 7.136-.0394 7.1472-.0217.006-2.9217.6258-6.4446 1.3764a8054 8054 0 0 0-6.456 1.3768l-.0506.0122v-1.1747c0-1.108-.002-1.174-.0394-1.1632-.0497.0145-10.9384 2.333-10.9566 2.333-.007 0-.0134-3.9211-.0134-8.7136zm3.7022 5.1093c.756-.1622 1.3822-.2995 1.3915-.3053.009-.006.017-.925.017-2.0428v-2.0323l.1432-.0264c.2728-.0503.3692-.0268.4354.1062.0377.0758.0412.2105.0517 1.973l.0113 1.8917 1.3846-.2944 1.3846-.2944v-4.7931l-.0514-.2017c-.2092-.8218-.7647-1.134-1.6291-.9157-.6545.1654-1.201.4875-1.7431 1.0278l-.2942.293-.0252-.1327c-.0366-.1927-.1268-.3254-.273-.4018-.2037-.1064-.2966-.0962-1.5701.1735-.6141.13-1.1206.2364-1.1255.2364-.005 0-.009.4662-.009 1.036v1.0362l.0507-.0121c.028-.007.1394-.0312.2477-.0545l.197-.0424v2.0353c0 1.1194.007 2.0353.0156 2.0353.009 0 .6342-.1327 1.3902-.2949zm14.068-.3796 2.9036-.6191c.5543-.1182 1.0128-.215 1.0188-.215s.011-.2489.011-.553c0-.5161-.003-.5524-.0394-.5419-.0217.006-.541.118-1.1539.2484l-2.589.5514c-.8112.1728-1.609.3426-1.773.3773l-.2984.063v.5466c0 .3006.006.5465.0123.5465.007 0 .8654-.1819 1.908-.4042m-5.7276-1.3041c1.1473-.244 1.7715-.5362 2.5746-1.2049l.2871-.239v-.6866c0-.5345-.006-.6864-.0281-.6859-.0155.0004-.3756.0753-.8003.1666l-.7722.166-.1393.1406c-.1882.19-.3374.2993-.524.3841-.3749.1703-.7203.0813-.8759-.2257-.0448-.0884-.1102-.3385-.0932-.356.003-.003.7845-.1705 1.737-.3728l1.7321-.3676.0158-.0887c.0296-.1667.0194-.8187-.0166-1.061-.0631-.4248-.2224-.8636-.4154-1.1442-.4375-.6358-1.215-.953-2.1352-.8712-1.4742.1311-2.6927.915-3.2793 2.1096-.415.8453-.527 1.8614-.3034 2.7518.1967.783.6795 1.3283 1.3802 1.559.286.0942.4473.1126.9043.1034.371-.007.4708-.0177.7519-.0775zm-.4025-3.6466c.001-.1012.0744-.3678.1354-.492.0793-.1615.2385-.314.3494-.3349.2283-.0428.4335.192.4747.5432l.0135.1145-.3009.063a92 92 0 0 0-.4867.1032c-.1714.037-.1857.0373-.1853.003zm7.024 2.2377c1.8506-.39 3.047-1.6596 3.2408-3.4391.0878-.8064-.0716-1.6117-.4207-2.1255-.2852-.4197-.6803-.6922-1.2103-.8348-.2099-.0565-.2572-.0606-.698-.0615-.4069-.0009-.5088.006-.7316.051-.9364.1883-1.6486.5493-2.2286 1.13-.2957.2959-.4994.5799-.6859.9563q-.4176.8428-.4176 1.801c0 .9193.2848 1.6557.812 2.0997.2707.2279.581.373.9778.4569.3063.0648.9722.0482 1.3621-.034m-.0788-1.7673c-.1205-.05-.2328-.2632-.2968-.5639-.0635-.2985-.0566-1.1192.012-1.4379.0844-.3916.2049-.6073.3933-.7042.1525-.0784.2784-.004.3848.2289.0945.2065.1275.4066.1413.8566.0139.4559-.0113.7664-.0854 1.0494-.1134.4328-.3325.6607-.5491.571zm-15.439-2.8288 1.244-.2642V9.974c0-.3137-.008-.5704-.0182-.5704-.01 0-.1572.0304-.3271.0675-.17.0371-.3134.0675-.3188.0675-.005 0-.0126.093-.0162.2065l-.006.2065-.394.0843c-.2167.0464-.3972.081-.4013.077s.3025-.4777.681-1.0527l.6884-1.0454v-.3653c0-.3372-.003-.3645-.0394-.3541-.0535.0152-2.3818.5096-2.4.5096-.008 0-.0146.2392-.0146.5315v.5316l.0507-.0121c.028-.007.1643-.0344.3031-.0617l.2524-.0496.006-.1811.006-.1811.3681-.0764c.2025-.042.3725-.072.378-.0666.005.005-.2995.4797-.6774 1.054l-.6871 1.0443-.0004.3786c-.0003.35.003.3778.0391.3674.0217-.006.5992-.1301 1.2833-.2754zm2.9868-.6164c.3065-.0784.5204-.2267.6872-.4765.066-.099.0915-.1236.0915-.0887 0 .1639.1405.2943.3173.2944.0994.0001.7441-.1204.7874-.1472.0116-.007.021-.1684.021-.3585V9.07l-.1318.012c-.2242.0203-.206.2028-.206-2.0499 0-1.5553-.006-1.954-.028-1.946-.0155.006-.289.065-.6079.1319l-.5797.1217v.682l.0957-.0204c.0526-.0112.1184-.0255.1463-.0318l.0507-.0115v1.1327l-.0456-.058c-.025-.0318-.1014-.0852-.1697-.1186-.3398-.1663-.887-.0408-1.2327.2825-.2515.2353-.396.5304-.4797.98-.0593.3186-.0595.9842-.0003 1.2382.1013.4348.2997.6885.6137.785.1597.049.4624.0455.6707-.008zm-.098-.7621c-.1673-.0898-.2699-.4078-.2699-.8369 0-.5936.1864-.9888.4993-1.0589.1153-.0258.1331-.024.228.022.1879.0908.2846.3795.2833.8456-.001.538-.1492.903-.4155 1.0266-.1149.0533-.2278.0538-.3252.002zm3.2858.0682.8217-.1735.006-.3545c.004-.2158-.002-.3546-.0154-.3546-.0202 0-.288.0528-.4017.0792l-.0507.0118V6.8468l.3715-.076.3715-.076v-.3567c0-.1962-.004-.3567-.01-.3567-.005 0-.1732.0355-.3728.0788-.1995.0433-.3723.0788-.384.0788-.0123 0-.0212-.1422-.0212-.34 0-.267.008-.3564.0365-.4169.0563-.1185.152-.1744.317-.1849l.1418-.009v.1377c0 .1648-.0186.1604.3467.0814.1432-.031.2658-.0563.2725-.0563.007 0 .009-.195.006-.4334l-.006-.4334-.2814.005c-.8528.0161-1.4003.2381-1.5988.6482-.0945.1951-.1157.3222-.1283.7674l-.0122.4303-.1548.0277-.1547.0277v.3582c0 .197.008.3581.0169.358.009 0 .0523-.009.0957-.0202a6 6 0 0 1 .1407-.0341l.0619-.014v1.8647l-.1464.029-.1463.0292v.356c0 .2705.007.356.0281.3551.0155-.0006.398-.079.85-.1745z"/></svg>