<svg xmlns="http://www.w3.org/2000/svg" viewBox="0 0 24 24"><path fill="#44739e" d="M4.0423 16.3564c-1.451-.1335-2.6884-.8972-3.4185-2.11-.7657-1.2716-.8307-2.8573-.1712-4.1752.2322-.464.4626-.784.8274-1.1487.2728-.2728.5237-.4709.8315-.6563 1.2761-.7688 2.8671-.8351 4.189-.1745.785.3923 1.4757 1.0542 1.8796 1.8012l.0903.167 1.0066.0005c.5537.0004 1.0712.009 1.15.0191.7428.0961 1.1786.4727 1.3668 1.181l.0422.1588.013-.1726c.0284-.3759.1353-.645.3352-.8433.141-.14.2872-.2246.4986-.2888.1402-.0426.1655-.0436 1.1994-.0502l1.0562-.007v.6876l-.8746.007c-.9577.008-.969.009-1.1545.1268-.0694.044-.1023.0838-.151.1827-.0588.1197-.0627.1408-.0736.4031l-.0115.2769h1.9594v.6881h-1.969v1.5484h-.822l-.001-.6356-.001-.6356-.0521.1625c-.1843.573-.565.931-1.1302 1.0623-.1254.0291-.285.0343-1.274.0412l-1.1307.008-.0601.1128c-.033.062-.1185.2011-.19.3092-.4375.6626-1.01 1.1638-1.7324 1.5166-.4282.2091-.8105.3286-1.2815.4006-.1883.0288-.779.0512-.9455.036zm4.2055-2.7219v-.325H5.8009v-.1806c0-.4012.0917-.5709.3632-.6718.069-.0256.1983-.0351.65-.0476.628-.0174.7459-.0345.9704-.1411.2606-.1238.4494-.3578.5324-.6602.0474-.1725.0474-.573 0-.7455-.0831-.3026-.266-.5372-.5123-.6576-.2824-.1378-.2339-.1335-1.5879-.1407l-1.2186-.006v.69h1c.6376 0 1.0412.008 1.1136.0208.2623.048.388.1785.4054.4204.0117.163-.0267.2774-.121.36-.1204.1058-.2065.1194-.8592.1359-.6557.0165-.7387.0288-.9799.1448-.1567.0754-.3295.2323-.4109.373-.0789.1366-.1433.3526-.1658.5564-.0113.102-.0205.4139-.0205.693v.5072h3.288zm2.1491-.3905c.3093-.0853.4515-.2393.5494-.5947.0377-.1368.0421-.1995.0431-.6205.001-.3793-.005-.4956-.032-.6117-.0915-.396-.2995-.5948-.68-.6499-.0702-.01-.362-.0186-.6485-.0188l-.5209-.0003v1.2584c0 .6922.006 1.2652.0143 1.2734.008.008.2724.0105.5878.005.4484-.008.5982-.0166.6868-.041zm6.4956.8096c-.2922-.045-.494-.1858-.573-.4-.0904-.2456-.1053-.4157-.1146-1.3142l-.009-.8458h-.4176l.005-.3107.005-.3106.2055-.005.2055-.005v-.878h1.0323v.8793h.516v.6308h-.5183l.006.8077c.006.7633.008.8117.044.8828.0613.1204.118.1502.3055.16l.163.009v.3222c0 .3185-.0006.3223-.043.332-.2171.0493-.6386.0736-.813.0468zm1.2382-1.6234v-1.5675h1.0132v3.135h-1.0132zm2.3877 1.515c-.1671-.439-1.115-3.0081-1.1216-3.0398l-.009-.0433.5407.005.5406.005.2894 1.0514c.1591.5783.2932 1.0619.298 1.0747.005.0128.1286-.4087.2753-.9367s.2826-1.0137.302-1.0794l.0352-.1195h.5343c.3265 0 .5344.007.5344.0183 0 .0139-.8545 2.3319-1.1084 3.0068l-.0413.11h-1.0496zm2.4534-1.5102.005-1.5627h1.0131l.005 1.5627.005 1.5627h-1.0327zm-4.8366-2.2557.005-.4157.5017-.005.5018-.005v.8417H18.13zm4.8363 0 .005-.4157h1.0131l.005.4157.005.4158h-1.0338z"/></svg>