<svg xmlns="http://www.w3.org/2000/svg" fill="#44739e" viewBox="0 0 24 24"><path d="M21.653 8.883a6.253 6.253 0 0 0-4.292-5.067A16.57 16.57 0 0 0 12 3.115a22.9 22.9 0 0 0-2.669.126 10.56 10.56 0 0 0-3.682.987A6.248 6.248 0 0 0 2.384 8.6a15.8 15.8 0 0 0-.28 5.363 8.96 8.96 0 0 0 1.046 3.584 6.374 6.374 0 0 0 4.271 3.034 19.83 19.83 0 0 0 5.329.45 17 17 0 0 0 3.8-.442 6.215 6.215 0 0 0 4.691-3.926 14.19 14.19 0 0 0 .412-7.78m-16.54 9.269a.038.038 0 0 1-.054 0 .039.039 0 0 1-.011-.042c.139-.337.528-1.255.682-1.62a.176.176 0 0 0 .015-.131 6.01 6.01 0 0 1-.821-2.7 13.33 13.33 0 0 1 .238-4.509A3.527 3.527 0 0 1 7.9 6.38a15.9 15.9 0 0 1 5.316-.356c.576.074.8.294.794.736a3.6 3.6 0 0 1-.751 1.512c-1.037 1.456-7.14 8.728-8.146 9.88m13.715-3.194a3.833 3.833 0 0 1-3.476 2.993 21.1 21.1 0 0 1-3.366.262 7.37 7.37 0 0 1-1.368-.1c-.612-.134-.8-.479-.565-1.062a9.82 9.82 0 0 1 1.712-2.534c1.916-2.289 6.282-7.427 7.116-8.4a.038.038 0 0 1 .054 0 .039.039 0 0 1 .011.042c-.137.334-.541 1.128-.7 1.486a.211.211 0 0 0 .016.225 6.19 6.19 0 0 1 .8 2.8 13.6 13.6 0 0 1-.234 4.288"/></svg>