<svg xmlns="http://www.w3.org/2000/svg" viewBox="0 0 24 24"><path fill="#44739e" d="M22.606 8.485a6.872 6.872 0 0 0-4.717-5.568 18.21 18.21 0 0 0-5.891-.771 25.2 25.2 0 0 0-2.934.139 11.6 11.6 0 0 0-4.046 1.084A6.867 6.867 0 0 0 1.43 8.174a17.36 17.36 0 0 0-.308 5.894 9.85 9.85 0 0 0 1.15 3.939 7.005 7.005 0 0 0 4.693 3.334 21.8 21.8 0 0 0 5.857.495 18.68 18.68 0 0 0 4.176-.486 6.83 6.83 0 0 0 5.155-4.315 15.595 15.595 0 0 0 .453-8.55M4.429 18.672a.042.042 0 0 1-.059 0 .043.043 0 0 1-.013-.046c.153-.371.581-1.38.75-1.781a.193.193 0 0 0 .016-.144 6.605 6.605 0 0 1-.902-2.967 14.65 14.65 0 0 1 .262-4.955 3.876 3.876 0 0 1 3.009-3.045 17.47 17.47 0 0 1 5.842-.391c.633.082.879.323.873.809a3.956 3.956 0 0 1-.826 1.662c-1.139 1.6-7.847 9.592-8.952 10.858m15.073-3.51a4.212 4.212 0 0 1-3.82 3.289 23.2 23.2 0 0 1-3.7.288 8.1 8.1 0 0 1-1.503-.11c-.673-.147-.879-.526-.621-1.167a10.8 10.8 0 0 1 1.881-2.785c2.106-2.516 6.904-8.162 7.821-9.232a.042.042 0 0 1 .059 0 .043.043 0 0 1 .012.047c-.15.367-.594 1.239-.769 1.633a.232.232 0 0 0 .018.247 6.8 6.8 0 0 1 .879 3.077 14.95 14.95 0 0 1-.257 4.713"/></svg>