<svg xmlns="http://www.w3.org/2000/svg" fill="#44739e" viewBox="0 0 24 24"><path d="M6.8065 18.2234c0-.309.031-.612-.387-.612h-3.506v.551h2.2l-2.16 2.018c-.154.383.1.533.323.533h3.562v-.55h-2.226zm13.443-.675h-2.643a.657.657 0 0 0-.657.657v1.865a.657.657 0 0 0 .657.657h2.64a.657.657 0 0 0 .66-.657v-1.865a.657.657 0 0 0-.657-.657m-.206 2.182-1.551.491a.3.3 0 0 1-.372-.193l-.351-1.111a.3.3 0 0 1 .193-.372l1.551-.491a.3.3 0 0 1 .372.194l.352 1.11a.3.3 0 0 1-.194.372m-3.98-2.182h-2.64a.657.657 0 0 0-.657.657v1.865a.657.657 0 0 0 .657.657h2.64a.657.657 0 0 0 .657-.657v-1.865a.657.657 0 0 0-.657-.657m-.206 2.182-1.551.491a.3.3 0 0 1-.372-.193l-.352-1.111a.3.3 0 0 1 .194-.372l1.551-.491a.3.3 0 0 1 .372.194l.351 1.11a.3.3 0 0 1-.193.372m-4.431-2.103h-2.081a.752.752 0 0 0-.751.752v1.581a.75.75 0 0 0 .027.135l.006.03a.745.745 0 0 0 .132.285l.006.009a.738.738 0 0 0 .58.293l3.251.015v-4.026h-1.17zm0 .554v2h-1.4a.5.5 0 0 1-.505-.5v-1a.529.529 0 0 1 .528-.529h1.377zm-4.233 2.546h1.17v-3.1h-1.17zm0-3.269h1.17v-.757h-1.17zm13.213-6.002c-.014-.1-.245-.163-.245-.163a11.7 11.7 0 0 0-1.479-.589 4 4 0 0 0-1.476-.274 3.183 3.183 0 0 0-1.721.392c-.758.32-.731.37-2.168 1.044-1.212.568-1.016.431-1.283.585a1.45 1.45 0 0 1-.447.134 3.72 3.72 0 0 1-1.128.1 1.9 1.9 0 0 1-1.121-.341l2-1.364a4.96 4.96 0 0 0-.861-.845 4.24 4.24 0 0 0-.9-.472 2.67 2.67 0 0 0-.894-.145 2.71 2.71 0 0 0-.881.115 20.54 20.54 0 0 0-3 1.589 7.166 7.166 0 0 0 1.844 2.874 4.762 4.762 0 0 0 2.609 1.484 7.414 7.414 0 0 0 3.4-.324 12.9 12.9 0 0 0 1.508-.687c3.665-1.845 6.243-3.113 6.243-3.113m-16.755-3.811a11.7 11.7 0 0 0 1.479.589 4.03 4.03 0 0 0 1.481.275 3.183 3.183 0 0 0 1.721-.392c.758-.32.731-.371 2.168-1.044 1.212-.568 1.016-.432 1.283-.586a1.48 1.48 0 0 1 .447-.134 3.72 3.72 0 0 1 1.128-.1 1.894 1.894 0 0 1 1.121.342l-2.005 1.363a5 5 0 0 0 .861.845 4.23 4.23 0 0 0 .9.471 2.62 2.62 0 0 0 .894.145 2.72 2.72 0 0 0 .881-.114 20.6 20.6 0 0 0 3-1.59 7.166 7.166 0 0 0-1.844-2.874 4.77 4.77 0 0 0-2.61-1.481 7.43 7.43 0 0 0-3.4.324 13.1 13.1 0 0 0-1.508.687c-3.664 1.843-6.242 3.109-6.242 3.109.014.107.245.165.245.165"/></svg>