<svg xmlns="http://www.w3.org/2000/svg" fill="#44739e" viewBox="0 0 24 24"><path d="M13.648 12.33a.16.16 0 0 0 0-.052c-.007 0-.05-.889-.041-1.87S13.6 8.586 13.6 8.584a.763.763 0 0 0-1.015-.04 12.53 12.53 0 0 0-1.754 1.807c-.1.123-.193.248-.286.377a2.6 2.6 0 0 0 .032.351q.435-.578.923-1.113c.333-.365.685-.713 1.052-1.043.013 0 .056.838.046 1.808s-.007 1.85 0 1.945a.751.751 0 0 0 .974.064 12.35 12.35 0 0 0 2.158-2.3 2.5 2.5 0 0 0-.049-.324 15.3 15.3 0 0 1-2.033 2.214m-9.8199 5.6925.4024-.4023.5628.5628-.4023.4024zm1.3935 1.394.4023-.4023.5629.5628-.4024.4024zM16.387 3.023 6.9 12.51l-1.607 1.608.349.348L2.506 17.6l3.7 3.7 3.135-3.135.349.348L20.784 7.42c.733-.733.93-1.723.442-2.211L18.6 2.581c-.49-.488-1.48-.29-2.213.442m-8.5 15.951-1.77 1.77L4.672 19.3l.884-.885L5.141 18l.389-.389.415.416.5-.5zM6.28 17.366l-.335.335-.416-.416-.71.715.416.415-.724.724-1.448-1.452 1.77-1.769Zm9.4-7.258s.03.14.036.162.014.161.014.161v.005a2.6 2.6 0 0 1-5.155.643.9.9 0 0 1-.026-.169 1.04 1.04 0 0 1-.006-.181 2.6 2.6 0 0 1 5.138-.616z"/></svg>