<svg xmlns="http://www.w3.org/2000/svg" viewBox="0 0 24 24"><path fill="#44739e" d="M8.065 1.003c-.197-.009-.391-.002-.52.064-.186.094-.343.319-.488.467l-.977.994-3.245 3.298-1.032 1.051c-.202.204-.433.387-.525.671-.161.498-.05 1.171-.05 1.693v6.044c0 .397-.075.88.071 1.255.102.264.311.447.504.642l.888.905 3.245 3.298 1.063 1.08c.155.157.333.405.546.48.151.053.358.018.516.018h7.351c.287 0 .805.101 1.064-.031.185-.094.342-.319.487-.467l.975-.991c1.077-1.095 2.168-2.174 3.245-3.269l1.035-1.052c.198-.202.43-.388.514-.672.153-.521.031-1.156.031-1.694v-3.561c0-.837-.01-1.673 0-2.51.005-.401.099-.838-.052-1.226-.097-.251-.311-.427-.493-.613l-.891-.905c-1.096-1.115-2.207-2.216-3.302-3.329-.369-.375-.749-.737-1.119-1.109-.147-.148-.319-.405-.517-.479-.14-.053-.341-.017-.489-.017H8.606c-.143 0-.343-.026-.541-.035m5.473 1.535c.045-.001.042.003.049.01.024.022.021.06-.004.082-.01.009-.043.012-.337.025-.181.008-.33.017-.332.019-.003.003-.224.957-.224.969 0 .004.01.012.023.02.188.119.344.349.415.617.034.128.046.225.046.373 0 .138-.014.25-.05.378l-.016.056.022.027c.028.034.078.134.132.269.021.053.038.095.039.095s.056.019.124.041c.167.055.377.118.79.237.803.231 1.222.362 1.582.491.868.314 1.397.63 1.627.971.067.1.104.187.123.286.012.058.011.197-.002.253-.022.102-.078.25-.127.338-.198.349-.531.572-1.004.67-.335.07-.749.067-1.142-.006-.356-.066-.68-.191-.813-.314-.06-.057-.401-.42-.555-.591-.233-.26-.499-.584-.632-.767-.059-.082-.059-.081-.063-.066a2 2 0 0 1-.048.132c-.004.006-.162.043-.251.059a4.2 4.2 0 0 1-.315.043c-.097.01-.48.008-.58-.002-.204-.019-.435-.055-.448-.072-.003-.003-.021-.045-.039-.092l-.033-.085-.031.044c-.149.214-.402.525-.669.823-.229.255-.521.562-.586.617-.063.053-.142.098-.266.15-.232.097-.51.16-.851.195-.052.006-.419.013-.463.009a5 5 0 0 1-.089-.009c-.363-.031-.69-.144-.923-.316a1.23 1.23 0 0 1-.43-.579c-.041-.113-.056-.191-.056-.284 0-.151.04-.272.136-.411.196-.285.582-.544 1.203-.804.45-.188.947-.35 2-.653.441-.126.743-.219.916-.279.056-.02.056-.021.063-.039.069-.178.09-.228.114-.278.017-.036.037-.067.049-.08l.021-.023-.015-.047a1.37 1.37 0 0 1-.053-.387c0-.144.013-.248.047-.377.018-.067.065-.191.097-.251.079-.15.187-.277.304-.354.019-.012.035-.025.035-.028s-.05-.225-.111-.49l-.111-.481-.327-.015c-.273-.012-.33-.017-.342-.025a.054.054 0 0 1-.016-.069c.016-.029.004-.029.356-.013.403.019.374.017.387.033.005.007.095.231.199.498l.189.486.029-.003c.017-.001.047-.004.068-.004a.8.8 0 0 1 .068.004l.029.003.164-.42c.091-.232.179-.455.194-.494.023-.061.029-.072.041-.078.011-.006.079-.012.321-.023.209-.009.306-.014.352-.014m-.364 5.01c.009.013.087.24.125.368.026.088.068.244.068.253 0 .004-.031.016-.08.031-.19.057-.346.084-.585.103-.092.007-.324.009-.436.004-.178-.008-.418-.043-.607-.087-.099-.023-.279-.076-.286-.084-.008-.01.157-.538.175-.56.002-.002.019 0 .039.005.124.025.318.05.476.061.101.007.364.007.471 0a3.5 3.5 0 0 0 .609-.092c.016-.004.028-.006.031-.003Zm-1.879.915a.4.4 0 0 1 .05.014 3.6 3.6 0 0 0 .421.11c.572.104 1.154.08 1.626-.068.033-.011.06-.02.061-.019.007.008.045.262.058.383.008.075.02.228.02.251 0 .009-.009.013-.061.035-.21.086-.447.14-.739.164-.065.006-.153.007-.271.006-.204-.001-.213-.001-.33-.012-.271-.026-.517-.076-.73-.15-.067-.023-.181-.071-.185-.076-.005-.007.018-.247.039-.389.01-.067.039-.246.041-.249m-.084 1.068.057.02c.682.254 1.596.271 2.226.042l.05-.019v.025c0 .034-.011.185-.019.255a3.2 3.2 0 0 1-.064.356l-.014.059-.053.021c-.17.066-.372.109-.622.132-.086.008-.339.014-.422.01-.361-.016-.697-.081-.983-.189-.078-.03-.068-.015-.095-.146a3.4 3.4 0 0 1-.057-.498Zm.218 1.154c.001-.001.028.005.059.014.198.058.418.099.647.12.175.016.464.016.631 0 .146-.014.331-.046.447-.076a.2.2 0 0 1 .041-.009c.001.003-.059.116-.083.155a2.1 2.1 0 0 1-.294.374c-.064.065-.197.178-.249.212-.051.034-.118.063-.171.074-.056.013-.171.01-.224-.004a.5.5 0 0 1-.14-.058c-.039-.023-.162-.124-.228-.187a2.02 2.02 0 0 1-.414-.561c-.013-.028-.024-.052-.022-.054m-.784 1.446h.891v3.621h-.747l-.029-.818-.082-1.986Zm2.413 0h.747l.084 2.656.029.673-.029.241-.257.051-.574.029Zm-1.703 5.454a2.74 2.74 0 0 1 .524.058c.178.037.381.099.503.245.132.16.131.381.131.578 0 .388.016.781-.002 1.169-.025.562-.672.549-.802 1.022-.161 0-.399.044-.545-.031-.156-.079-.262-.253-.404-.356-.18-.132-.373-.224-.44-.461-.083-.293-.018-.687-.018-.991 0-.329-.084-.765.203-.996.224-.18.541-.239.85-.237m-1.874.019c.124-.001.229.044.265.169.066.225.01.547.01.781v1.694h-.775v-1.169c-.409.289-.563.355-.949-.029v1.226h-.775v-2.569c.172-.047.336-.109.518-.077.348.064.581.509.718.807.161-.192.261-.429.432-.613.087-.093.348-.219.556-.22m5.501.074c0 .138.096.518-.019.613-.144.119-.51-.02-.596.181-.063.146-.017.391-.017.549v1.226h-.833v-1.868l-.66-.059-.058-.613Zm.228 0h2.154v.642l-.631.059v1.897h-.805v-1.868l-.689-.088Zm-4.133.673v1.341l.632-.029v-1.312Z"/></svg>