<svg xmlns="http://www.w3.org/2000/svg" viewBox="0 0 24 24"><path fill="#44739e" d="M13.909 12.606a.19.19 0 0 0 0-.06c-.008 0-.057-1.03-.047-2.167s-.008-2.111-.008-2.113a.884.884 0 0 0-1.176-.046 14.5 14.5 0 0 0-2.032 2.093c-.116.143-.224.288-.332.437a3 3 0 0 0 .037.407q.504-.67 1.07-1.29c.386-.423.793-.826 1.219-1.208.015 0 .065.971.053 2.095s-.008 2.143 0 2.253a.87.87 0 0 0 1.128.074 14.3 14.3 0 0 0 2.501-2.664 2.9 2.9 0 0 0-.057-.376 17.73 17.73 0 0 1-2.356 2.565M2.532 19.202l.466-.466.652.652-.466.466Zm1.614 1.615.467-.466.652.652-.467.466ZM17.083 1.823 6.091 12.815l-1.862 1.863.404.403L1 18.712l4.287 4.287 3.632-3.632.405.403L22.177 6.917c.85-.849 1.078-1.996.513-2.561l-3.043-3.045c-.568-.566-1.715-.336-2.564.512M7.235 20.304l-2.051 2.051-1.674-1.673 1.024-1.025-.481-.481.451-.451.481.482.579-.579Zm-1.862-1.863-.388.388-.482-.482-.823.829.482.481-.839.838-1.678-1.682 2.051-2.049Zm10.891-8.409s.035.162.042.188.016.186.016.186v.006a3.012 3.012 0 0 1-5.973.745 1.04 1.04 0 0 1-.03-.196 1.2 1.2 0 0 1-.007-.21 3.012 3.012 0 0 1 5.953-.713Z"/></svg>