<svg xmlns="http://www.w3.org/2000/svg" fill="#44739e" viewBox="0 0 24 24"><path d="M16.921 2.5H7.079A4.579 4.579 0 0 0 2.5 7.079v9.842A4.579 4.579 0 0 0 7.079 21.5h9.842a4.579 4.579 0 0 0 4.579-4.579V7.079A4.579 4.579 0 0 0 16.921 2.5m-.066 12.17a2.17 2.17 0 0 1-.637 1.548 2.206 2.206 0 0 1-1.548.637H9.331a2.206 2.206 0 0 1-1.549-.637 2.166 2.166 0 0 1-.636-1.548V9.331a2.174 2.174 0 0 1 2.165-2.185.07.07 0 0 1 .02 0h5.339a2.22 2.22 0 0 1 .836.161 2.32 2.32 0 0 1 .8.56.62.62 0 0 1 .172.409.555.555 0 0 1-.172.409.57.57 0 0 1-.806.01l-.01-.01a1.15 1.15 0 0 0-.419-.3 1.09 1.09 0 0 0-.4-.076h-5.34a1.007 1.007 0 0 0-1.031.983v5.378a1.008 1.008 0 0 0 .992 1.03h5.378a1.008 1.008 0 0 0 1.026-.988v-4.365a1.162 1.162 0 0 1 1.159-1.055zm-6.28-4.209a1.132 1.132 0 0 1-.9-1.169h3.655c.466 0 .693.058.893.5a.868.868 0 0 1-.2.95l-2.935 2.812h2.546a1.192 1.192 0 0 1 1.017 1.158h-4.389a.8.8 0 0 1-.855-.475.825.825 0 0 1 .17-.864l3.088-2.907z"/></svg>