<svg xmlns="http://www.w3.org/2000/svg" viewBox="0 0 24 24"><path fill="#44739e" d="M17.698 1H6.302A5.302 5.302 0 0 0 1 6.302v11.396A5.302 5.302 0 0 0 6.302 23h11.396A5.302 5.302 0 0 0 23 17.698V6.302A5.302 5.302 0 0 0 17.698 1m-.076 14.092a2.513 2.513 0 0 1-.738 1.792 2.554 2.554 0 0 1-1.792.738H8.91a2.554 2.554 0 0 1-1.794-.738 2.508 2.508 0 0 1-.736-1.792V8.91a2.517 2.517 0 0 1 2.506-2.53.08.08 0 0 1 .024 0h6.182a2.57 2.57 0 0 1 .968.186 2.69 2.69 0 0 1 .926.648.718.718 0 0 1 .199.474.643.643 0 0 1-.199.474.66.66 0 0 1-.933.011l-.012-.011a1.33 1.33 0 0 0-.485-.348 1.26 1.26 0 0 0-.463-.088H8.91a1.166 1.166 0 0 0-1.194 1.138v6.228a1.167 1.167 0 0 0 1.148 1.192h6.228a1.167 1.167 0 0 0 1.188-1.144v-5.054a1.345 1.345 0 0 1 1.342-1.222Zm-7.272-4.874a1.311 1.311 0 0 1-1.042-1.354h4.232c.54 0 .802.068 1.034.579a1.005 1.005 0 0 1-.232 1.1l-3.398 3.256h2.948a1.38 1.38 0 0 1 1.178 1.341H9.988a.926.926 0 0 1-.99-.55.955.955 0 0 1 .196-1l3.576-3.366Z"/></svg>