<svg xmlns="http://www.w3.org/2000/svg" fill="#44739e" viewBox="0 0 24 24"><path d="M11.987 10.473c-.126.143-.234.263-.243.271s-.111.123-.229.258-.22.249-.229.257-.111.123-.228.258-.275.306-.347.386-.234.257-.357.4c-.381.432-.395.449-.5.561-.054.057-.131.143-.169.189s-.18.2-.311.352-.329.369-.435.486-.278.309-.381.426l-.191.215v1.607h7.253v-.981c0-.961 0-.984-.057-.995-.032-.006-.958-.012-2.06-.012h-2.025c-.029 0 .037-.088.272-.354.1-.109.2-.226.231-.261s.115-.131.192-.217.166-.189.2-.229c.058-.069.1-.12.341-.386.057-.063.174-.2.26-.3.16-.188.375-.431.4-.457.008-.009.1-.112.2-.229s.22-.255.263-.3l.137-.158.223-.254c.089-.1.192-.218.226-.258s.089-.1.118-.131.134-.155.237-.272l.2-.229c.009-.008.1-.111.2-.229s.22-.251.263-.3l.08-.086V7.867H8.512v1.982h2l2 .006c.017.006-.069.117-.183.24-.064.066-.216.238-.342.378M18.4 6.694a1.415 1.415 0 0 0 1.23-.792 1.285 1.285 0 0 0 .143-.721 1.413 1.413 0 0 0-.987-1.287 1.676 1.676 0 0 0-.815-.018 1.465 1.465 0 0 0-.99.936 1.585 1.585 0 0 0 0 .895 1.426 1.426 0 0 0 1.419.987m3.585 4.522c-.043-.432-.061-.6-.072-.643-.006-.023-.02-.1-.029-.172a10.35 10.35 0 0 0-.406-1.622c-.2-.609-.286-.763-.477-.892a.715.715 0 0 0-.747-.046.666.666 0 0 0-.369.4.713.713 0 0 0 .014.58 9.5 9.5 0 0 1 .452 1.568c.017.094.037.2.043.232.012.051.04.288.089.74.017.143.017 1.127 0 1.3a8.56 8.56 0 0 1-1.405 4.062 9.07 9.07 0 0 1-2.257 2.294A8.65 8.65 0 0 1 13.4 20.4l-.186.032a3.6 3.6 0 0 1-.529.057 9.1 9.1 0 0 1-2.174-.1l-.243-.046a8.93 8.93 0 0 1-2.46-.926 8.76 8.76 0 0 1-2.449-2.094 9.9 9.9 0 0 1-.606-.853c-.011-.023-.066-.12-.123-.214-.114-.2-.363-.7-.466-.93a9.5 9.5 0 0 1-.475-1.5 10.3 10.3 0 0 1-.172-1.187c-.017-.171-.017-1.132 0-1.258.009-.055.02-.192.032-.3a9.3 9.3 0 0 1 .2-1.13 8.534 8.534 0 0 1 4.577-5.617 8.33 8.33 0 0 1 3.032-.818 10.8 10.8 0 0 1 1.67.031 1.2 1.2 0 0 0 .161.029 7.5 7.5 0 0 1 1.315.295.976.976 0 0 0 .758.034.722.722 0 0 0 .438-.672.739.739 0 0 0-.4-.667 9.16 9.16 0 0 0-2.14-.506l-.229-.029c-.1-.014-1.547-.04-1.562-.028a1.6 1.6 0 0 1-.257.028c-.135.012-.269.023-.3.029s-.132.02-.226.032-.2.025-.229.031l-.215.04a9.9 9.9 0 0 0-2.531.847 10.06 10.06 0 0 0-5.189 6.075 11.5 11.5 0 0 0-.3 1.3c-.006.046-.023.143-.035.214-.02.143-.026.189-.06.544a13.16 13.16 0 0 0 .034 2.057c.029.191.04.283.058.423.011.077.028.189.043.243a1.9 1.9 0 0 1 .04.186 10.44 10.44 0 0 0 .54 1.759 10.039 10.039 0 0 0 7.071 5.967c.138.029.521.1.572.109.069.011.318.046.415.063a13.1 13.1 0 0 0 2.432-.006c.454-.066.872-.146 1.187-.226a10.186 10.186 0 0 0 5.437-3.532 10.73 10.73 0 0 0 1.422-2.446 9.8 9.8 0 0 0 .546-1.845 7.1 7.1 0 0 0 .12-.787c.009-.08.023-.174.032-.214.024-.122.031-1.429.009-1.678"/></svg>