<svg xmlns="http://www.w3.org/2000/svg" viewBox="0 0 24 24"><path fill="#44739e" d="M22.695 2.2a1.824 1.824 0 0 0-.621-1.085c-.289-.22-.479-.135-.759.351a3.03 3.03 0 0 1-.645.812 1.496 1.496 0 0 1-.629.26c-.281.074-.619.251-.619.325a.042.042 0 0 0 .035.043.58.58 0 0 1 .152.188l.118.184.144-.08c.077-.044.22-.127.308-.18s.274-.164.401-.238a2.244 2.244 0 0 0 .77-.708c.22-.301.27-.341.303-.254.027.067-.05.201-.267.478a2.64 2.64 0 0 1-.966.738 4.7 4.7 0 0 0-.448.264l-.069.06.12.251a.842.842 0 0 0 .351.411 1.35 1.35 0 0 0 .237.15c0-.007.047-.076.093-.16a6.4 6.4 0 0 1 .495-.602 5 5 0 0 0 .898-1.2c.136-.274.237-.354.237-.193a2.28 2.28 0 0 1-.381.731c-.081.11-.33.41-.55.66a7.6 7.6 0 0 0-.538.648l-.13.197.146.138a1.3 1.3 0 0 1 .22.283l.074.151.043-.085a2.34 2.34 0 0 0 .097-.411 1.813 1.813 0 0 1 .842-1.273c.437-.373.558-.56.538-.854m-1.623 3.475a6.22 6.22 0 0 1-.392 1.42 10.63 10.63 0 0 1-2.509 3.357 26.36 26.36 0 0 0-3.991 4.591 25.5 25.5 0 0 1-2.495 3.143c-.488.525-1.714 1.728-2.135 2.09a6.93 6.93 0 0 1-4.263 1.957c-.668.031-.841-.059-.197-.1a7.33 7.33 0 0 0 3.95-1.685 27.9 27.9 0 0 0 5.051-5.536 22.88 22.88 0 0 1 3.521-4.109A20.35 20.35 0 0 0 19.6 8.598a6.13 6.13 0 0 0 1.243-2.479 4.18 4.18 0 0 0 .063-1.299c-.047-.161-.177-.348-.247-.348-.023 0-.061.09-.084.207-.14.682-.428 1.14-1.64 2.633-.308.377-.799 1.008-1.1 1.407a12.08 12.08 0 0 1-2.345 2.549 27.7 27.7 0 0 0-2.069 1.971c-.956 1.032-2.299 2.513-2.896 3.19a37.35 37.35 0 0 1-3.751 3.601 7.72 7.72 0 0 1-1.473.99l-.123.05.13-.117c.074-.064.311-.241.531-.391A11.9 11.9 0 0 0 7.43 19.26a37.7 37.7 0 0 0 3.41-3.448c.174-.2.505-.568.736-.818s.642-.699.916-1.003a40 40 0 0 1 2.86-2.813 13.1 13.1 0 0 0 2.563-2.836c.281-.378.732-.959 1.006-1.29a9.13 9.13 0 0 0 1.269-1.76 1.804 1.804 0 0 0 .24-.822c0-.174-.01-.197-.11-.287a.92.92 0 0 0-.22-.141c-.1-.043-.131-.036-.338.044a5.45 5.45 0 0 0-1.122.655A12.85 12.85 0 0 0 16 7.747a10.87 10.87 0 0 1-1.367 1.722 13.2 13.2 0 0 1-1.938 1.557 40.5 40.5 0 0 0-5.647 4.792 14.74 14.74 0 0 0-3.009 3.705c-.227.467-.265.492-.13.097a5.96 5.96 0 0 1 1.035-1.734 21.5 21.5 0 0 1 2.957-3.123 45.9 45.9 0 0 1 4.62-3.776 10.53 10.53 0 0 0 3.01-2.86 18.15 18.15 0 0 1 2.089-2.659 5.85 5.85 0 0 1 1.941-1.467c.314-.14.351-.167.341-.237a.485.485 0 0 0-.257-.346 2.5 2.5 0 0 0-1.153 0 4.62 4.62 0 0 0-1.293.672 9.68 9.68 0 0 0-1.76 1.894c-.164.231-.257.33-.257.27a10 10 0 0 1 .88-1.266 4.642 4.642 0 0 1 3.099-1.819c.11 0 .201-.014.201-.03a.57.57 0 0 0-.19-.127 1.1 1.1 0 0 0-.612-.1 3.63 3.63 0 0 0-.635.037c-1.079.226-1.935.898-3.08 2.412-1.002 1.332-1.517 1.731-4.127 3.19a31.55 31.55 0 0 0-5.83 3.983A10.11 10.11 0 0 0 1.603 16.8a4.62 4.62 0 0 0 .475 4.2 9.1 9.1 0 0 0 1.56 1.477 4.08 4.08 0 0 0 1.139.464 6.61 6.61 0 0 0 1.901-.02 7.81 7.81 0 0 0 3.478-1.861c.451-.391 1.437-1.393 2.038-2.072a19.03 19.03 0 0 0 2.373-3.174 20.6 20.6 0 0 1 2.909-3.768A17.71 17.71 0 0 0 20.55 8.1a4.35 4.35 0 0 0 .604-2.09c.024-.626-.023-.8-.082-.335M2.425 19.716a4.1 4.1 0 0 1-.043.512 2.5 2.5 0 0 1-.048-.835 5.8 5.8 0 0 1 .639-2.209 12.585 12.585 0 0 1 3.341-3.968 32.1 32.1 0 0 1 5.079-3.527 13.45 13.45 0 0 0 2.906-2.067c.131-.133.241-.243.241-.243.044 0-.126.231-.34.461a13.6 13.6 0 0 1-2.991 2.128c-3.701 2.228-6.01 4.163-7.473 6.264a6.395 6.395 0 0 0-1.311 3.484"/></svg>