<svg xmlns="http://www.w3.org/2000/svg" fill="#44739e" viewBox="0 0 24 24"><path d="m16.458 9.096-.457-.312.268.493Zm5.027-3.843L18.9 2.575c-.479-.5-1.472-.318-2.219.4l-9.668 9.3-1.638 1.58.342.354-3.192 3.075 3.629 3.77 3.2-3.075.342.355L21 7.456c.747-.719.964-1.705.485-2.203M3.081 17.38l1.8-1.734L6.3 17.121l-.341.329-.408-.424-.724.7.407.423-.737.71zm3 3.115L4.657 19.02l.9-.868-.407-.423.4-.381.408.424.509-.491 1.412 1.479zm4.236-5.756-.02-.02a3.678 3.678 0 0 1 .089-5.189l.337.351a3.229 3.229 0 0 0-.057 4.521zm1.049-1.01-.35.337-.008-.008a2.68 2.68 0 0 1 .073-3.789l.008-.008.337.35a2.244 2.244 0 0 0-.06 3.118m2.648-.481a1.478 1.478 0 1 1 .04-2.089 1.477 1.477 0 0 1-.043 2.089zm1.563-2.53-.673-.47.422.708-.346.334-1.4-.789.407-.393.826.616-.574-.861.284-.273.849.6-.576-.855.383-.367.757 1.409zM16.945 9.4l-.181-.122-.314.3.11.19-.426.41-.664-1.5.445-.436 1.463.728zm.678-.649-1.484-.708.434-.418.823.5-.461-.871.413-.392.665 1.508zm.9-.87-1.064-1.107.734-.706.269.281-.349.337.119.124.317-.315.276.287-.317.313.127.132.355-.34.273.282zm-5.313 4.445-.255-1.225-.898.865.107.504.471-.454.252 1.284.922-.888-.119-.548zm-9.3721 5.4046.41-.3946.552.5736-.41.3945zm1.367 1.4206.41-.3946.552.5736-.41.3946z"/></svg>