<svg xmlns="http://www.w3.org/2000/svg" viewBox="0 0 24 24"><path fill="#44739e" d="m22.589 14.236-4.467-7.737a.685.685 0 0 0-.589-.342H8.597a.685.685 0 0 0-.594.342l-4.466 7.737a.683.683 0 0 0 0 .685l4.466 7.737a.685.685 0 0 0 .594.342h8.936a.685.685 0 0 0 .594-.342l.775-1.353a.058.058 0 0 0-.021-.081l-1.084-.625a.058.058 0 0 0-.081.021l-.583 1.011H8.992L4.92 14.579l4.072-7.051h8.142l4.071 7.051-2.214 3.841h-7.363l4.356-7.548a.686.686 0 0 0-.594-1.028H9.342a.06.06 0 0 0-.06.059v1.251a.06.06 0 0 0 .06.06h4.87l-4.358 7.549a.685.685 0 0 0 .594 1.027h8.941a.683.683 0 0 0 .592-.342l2.613-4.527a.683.683 0 0 0-.005-.685M13.062 2.369V1H5.619a.685.685 0 0 0-.593.342l-3.71 6.425 1.187.691 3.511-6.089ZM3.668 9.095l1.168.674 2.735-4.743h5.474V3.68H7.183a.674.674 0 0 0-.583.332Z"/></svg>