<svg xmlns="http://www.w3.org/2000/svg" viewBox="0 0 24 24"><path fill="#44739e" d="m16.953 9.049-.523-.357.306.564Zm5.756-4.4-2.96-3.066c-.549-.573-1.685-.364-2.541.458L6.139 12.689l-1.876 1.809.392.405L1 18.424l4.155 4.317 3.664-3.521.392.406L22.153 7.171c.856-.823 1.104-1.952.556-2.522M1.637 18.534l2.061-1.985 1.624 1.689-.39.376-.467-.485-.829.801.466.485-.844.813Zm3.435 3.567-1.631-1.689 1.031-.994-.466-.484.458-.437.467.486.582-.562 1.617 1.693Zm4.85-6.591-.023-.023a4.211 4.211 0 0 1 .102-5.941l.385.402a3.697 3.697 0 0 0-.065 5.176Zm1.201-1.156-.401.386-.009-.009a3.069 3.069 0 0 1 .083-4.339l.01-.009.385.401a2.569 2.569 0 0 0-.068 3.57m3.032-.551a1.692 1.692 0 1 1 .045-2.392 1.691 1.691 0 0 1-.049 2.392Zm1.789-2.897-.77-.538.483.811-.396.382-1.603-.903.466-.45.945.705-.657-.986.325-.312.972.687-.659-.979.438-.42.867 1.613Zm1.566-1.509-.207-.139-.359.343.126.218-.488.469-.76-1.717.509-.5 1.675.834Zm.777-.743-1.699-.81.497-.479.942.572-.528-.997.473-.449.761 1.727Zm1.03-.996-1.218-1.267.84-.809.308.322-.399.386.136.142.363-.361.316.329-.363.358.145.151.407-.389.313.323Zm-6.083 5.089-.292-1.402-1.028.99.122.577.54-.52.288 1.471 1.056-1.017-.136-.628ZM2.503 18.936l.47-.452.632.656-.47.452Zm1.565 1.626.47-.452.632.657-.47.452Z"/></svg>